<?xml version="1.0" encoding="utf-8"?>
<!-- Generator: Adobe Illustrator 24.3.0, SVG Export Plug-In . SVG Version: 6.00 Build 0)  -->
<svg version="1.1" id="Layer_1" xmlns="http://www.w3.org/2000/svg" xmlns:xlink="http://www.w3.org/1999/xlink" x="0px" y="0px"
	 viewBox="0 0 135.1 165" style="enable-background:new 0 0 135.1 165;" xml:space="preserve">
<style type="text/css">
	.st0{fill:#00B0FB;}
	.st1{fill:#FFFFFF;}
	.st2{fill:#00B0FB;fill-opacity:0.4;}
	.st3{fill:#00B0FB;fill-opacity:0.4;stroke:#FFFFFF;stroke-width:5;stroke-miterlimit:10;}
</style>
<g>
	<path d="M18.81,37.28c0-5.77,0-11.45,0-17.12c0-3.49,0.62-4.1,4.16-4.1c5.4,0,10.8-0.14,16.2,0.05c3.31,0.12,6.74-0.93,9.94,0.75
		c0.24,3.32,0.58,6.64,0.7,9.97c0.12,3.44,0.03,6.89,0.03,10.3c3.58,0.84,3.58,0.9,4,4.6c0.54,4.79,1.12,9.57,1.78,14.34
		c0.1,0.69,0.6,1.44,1.12,1.95c14.5,14.08,14.47,35.06,0.08,49.17c-1.17,1.15-1.37,3.47-1.66,5.3c-0.58,3.62-0.93,7.28-1.33,10.92
		c-0.4,3.74-0.41,3.78-4,4.6c0,5.71,0,11.45,0,17.2c0,3.22-0.67,3.88-3.93,3.88c-7.77,0-15.55,0.01-23.32,0
		c-3.06,0-3.75-0.71-3.76-3.84c-0.01-5.75,0-11.51,0-17.22c-3.65-0.9-3.59-0.91-4-4.59c-0.53-4.79-1.13-9.57-1.79-14.34
		c-0.1-0.7-0.59-1.46-1.11-1.97c-14.52-14.19-14.52-34.98-0.03-49.1c0.6-0.59,1.07-1.54,1.18-2.38c0.69-5.13,1.31-10.27,1.86-15.42
		C15.16,37.91,16.71,37.38,18.81,37.28z M34.19,111.09c15.62,0.1,28.54-12.63,28.63-28.21c0.09-15.82-12.58-28.72-28.26-28.8
		C18.77,54,5.89,66.69,5.81,82.4C5.72,98.16,18.41,110.99,34.19,111.09z M44.96,20.95c-7.2,0-14.22,0-21.27,0c0,5.5,0,10.86,0,16.36
		c7.13,0,14.14,0,21.27,0C44.96,31.82,44.96,26.45,44.96,20.95z M23.66,144.18c7.2,0,14.26,0,21.27,0c0-5.54,0-10.91,0-16.29
		c-7.16,0-14.16,0-21.27,0C23.66,133.37,23.66,138.67,23.66,144.18z M50.45,53.42c-0.45-3.68-0.82-7.01-1.33-10.31
		c-0.06-0.37-0.91-0.87-1.39-0.87c-8.91-0.05-17.83-0.05-26.74,0c-0.5,0-1.38,0.46-1.44,0.81c-0.52,3.34-0.9,6.7-1.36,10.44
		C29.12,47.98,39.61,48.05,50.45,53.42z M18.19,111.74c0.43,3.6,0.73,6.74,1.24,9.85c0.09,0.54,1.07,1.32,1.64,1.33
		c8.84,0.08,17.69,0.07,26.53,0.02c0.52,0,1.43-0.42,1.48-0.76c0.52-3.35,0.9-6.72,1.36-10.44
		C39.53,117.18,29.03,117.14,18.19,111.74z"/>
	<path d="M118.59,125.29c0,2.88,0,5.53,0,8.18c0,4.25-0.03,8.49,0.01,12.74c0.02,1.72-0.66,2.86-2.45,2.87
		c-8.64,0.04-17.28,0.04-25.92,0c-1.8-0.01-2.42-1.2-2.41-2.9c0.03-6.05,0.01-12.09,0.01-18.14c0-0.79,0-1.57,0-2.33
		c-3.75-0.97-3.74-0.97-4.29-5.02c-0.68-4.99-1.36-9.98-2.12-14.95c-0.13-0.85-0.55-1.78-1.12-2.42
		c-10.63-12.02-10.68-29.4-0.04-41.33c1.96-2.2,1.45-5.01,1.94-7.54c0.73-3.81,1.25-7.67,1.64-11.52c0.24-2.4,1.45-3.29,4-3.11
		c0-0.84,0-1.59,0-2.35c0-6.05-0.01-12.09,0-18.14c0.01-2.56,0.66-3.25,3.16-3.26c8.13-0.02,16.27-0.02,24.4,0
		c2.51,0.01,3.17,0.69,3.18,3.24c0.01,6.76,0,13.51,0,20.23c3.67,0.72,3.69,0.75,4.26,4.86c0.71,5.06,1.39,10.12,2.16,15.16
		c0.12,0.79,0.52,1.64,1.04,2.24c10.73,12.31,10.65,29.25,0.15,41.6c-1.51,1.78-1.55,4.91-2,7.47c-0.64,3.61-1.09,7.25-1.51,10.9
		C122.42,124.15,121.62,125.84,118.59,125.29z M103.34,108.69c14.42-0.05,26.02-11.73,26-26.17c-0.02-14.48-11.8-26.12-26.35-26.05
		c-14.23,0.07-25.93,11.85-25.91,26.08C77.1,97.08,88.82,108.74,103.34,108.69z M113.69,39.75c0-6.41,0-12.61,0-18.81
		c-7.08,0-14.01,0-20.94,0c0,6.34,0,12.54,0,18.81C99.77,39.75,106.65,39.75,113.69,39.75z M113.68,144.29c0-6.41,0-12.61,0-18.8
		c-7.09,0-14.01,0-20.94,0c0,6.34,0,12.54,0,18.8C99.78,144.29,106.65,144.29,113.68,144.29z M86.77,56.39
		c11.11-6.21,21.85-6.19,32.88-0.03c-0.56-4.15-1.08-7.93-1.59-11.66c-10.07,0-19.88,0-29.71,0C87.84,48.53,87.34,52.22,86.77,56.39
		z M88.35,120.49c10.03,0,19.85,0,29.74,0c0.51-3.84,1.01-7.58,1.56-11.66c-11.04,6.15-21.77,6.15-32.84-0.01
		C87.34,112.89,87.84,116.62,88.35,120.49z"/>
	<path class="st0" d="M44.96,20.95c0,5.5,0,10.87,0,16.36c-7.13,0-14.14,0-21.27,0c0-5.49,0-10.85,0-16.36
		C30.74,20.95,37.75,20.95,44.96,20.95z"/>
	<path class="st0" d="M23.66,144.18c0-5.51,0-10.81,0-16.29c7.11,0,14.11,0,21.27,0c0,5.38,0,10.74,0,16.29
		C37.92,144.18,30.86,144.18,23.66,144.18z"/>
	<path class="st0" d="M50.45,53.42c-10.83-5.37-21.33-5.44-32.26,0.06c0.47-3.74,0.84-7.1,1.36-10.44c0.05-0.35,0.94-0.8,1.44-0.81
		c8.91-0.05,17.83-0.05,26.74,0c0.49,0,1.34,0.5,1.39,0.87C49.63,46.41,49.99,49.74,50.45,53.42z"/>
	<path class="st0" d="M18.19,111.74c10.84,5.4,21.34,5.44,32.26,0c-0.46,3.72-0.84,7.09-1.36,10.44c-0.05,0.33-0.97,0.75-1.48,0.76
		c-8.84,0.05-17.69,0.06-26.53-0.02c-0.57-0.01-1.55-0.79-1.64-1.33C18.92,118.47,18.62,115.33,18.19,111.74z"/>
	<path class="st0" d="M113.69,39.75c-7.04,0-13.91,0-20.94,0c0-6.26,0-12.47,0-18.81c6.93,0,13.86,0,20.94,0
		C113.69,27.14,113.69,33.34,113.69,39.75z"/>
	<path class="st0" d="M113.68,144.29c-7.03,0-13.91,0-20.94,0c0-6.26,0-12.46,0-18.8c6.92,0,13.85,0,20.94,0
		C113.68,131.67,113.68,137.87,113.68,144.29z"/>
	<path class="st0" d="M86.77,56.39c0.57-4.17,1.07-7.86,1.58-11.68c9.83,0,19.64,0,29.71,0c0.51,3.72,1.02,7.51,1.59,11.66
		C108.62,50.2,97.88,50.18,86.77,56.39z"/>
	<path class="st0" d="M88.35,120.49c-0.51-3.86-1-7.6-1.54-11.67c11.06,6.16,21.8,6.16,32.84,0.01c-0.55,4.09-1.05,7.83-1.56,11.66
		C108.2,120.49,98.38,120.49,88.35,120.49z"/>
	<path d="M27.83,70.06c0.92-0.13,1.86,0,2.72,0.34c2.75,1.07,5.9-0.08,9.11-0.32c6.9-0.53,12.87,7.5,8.64,14.48
		c-3.12,5.15-7.88,8.23-13.28,10.47c-0.47,0.19-1.17,0.12-1.66-0.08c-4.85-2.01-9.17-4.8-12.3-9.11c-2.36-3.25-3.05-6.79-1.04-10.5
		C21.69,72.27,24.21,70.58,27.83,70.06z M43.8,76.97c-0.48-0.62-1-1.19-1.61-1.63c-1.59-1.15-3.78-0.99-5.28,0.27
		c-1.69,1.42-3.06,1.56-4.84,0.22c-2.4-1.8-5.16-1.5-7.02,0.47c-1.86,1.97-2.17,4.62-0.01,6.77c2.56,2.54,5.64,4.57,8.55,6.74
		c0.34,0.25,1.21,0.21,1.57-0.05c2.82-2.07,5.66-4.12,8.28-6.42c0.37-0.32,0.64-0.75,0.89-1.26C45.16,80.41,44.94,78.43,43.8,76.97z
		"/>
	<path d="M98.01,70.88c0.51-0.05,1.02,0.06,1.48,0.28c2.57,1.23,5.61-0.04,8.69-0.17c7.11-0.31,11.47,7.36,7.88,13.55
		c-2.75,4.75-7.19,7.51-12.1,9.57c-0.41,0.17-1.08,0.17-1.49,0c-4.85-2.05-9.19-4.79-12.05-9.38c-1.87-3-1.98-6.13-0.17-9.19
		C91.9,72.75,94.38,71.26,98.01,70.88z M111.53,82.93c1.38-1.83,1.06-4.41-0.54-6.05c-0.24-0.24-0.49-0.47-0.76-0.67
		c-1.55-1.14-3.39-0.81-4.8,0.37c-1.58,1.31-2.88,1.11-4.45,0.04c-2.26-1.54-4.39-1.32-6.02,0.41c-1.61,1.72-1.84,4.08,0.09,6
		c2.2,2.2,4.86,3.96,7.39,5.81c0.39,0.28,1.36,0.23,1.77-0.07c2.37-1.71,4.75-3.44,6.92-5.39C111.27,83.24,111.4,83.09,111.53,82.93
		z"/>
	<path class="st2" d="M43.52,76.63c1.44,1.73,1.7,4.22,0.46,6.09c-0.16,0.23-0.33,0.44-0.53,0.62c-2.62,2.3-5.47,4.35-8.28,6.42
		c-0.36,0.26-1.23,0.3-1.57,0.05c-2.91-2.17-6-4.19-8.55-6.74c-2.16-2.15-1.85-4.79,0.01-6.77c1.85-1.97,4.62-2.27,7.02-0.47
		c1.79,1.34,3.15,1.2,4.84-0.22c1.5-1.26,3.69-1.42,5.28-0.27C42.68,75.7,43.12,76.14,43.52,76.63z"/>
	<path class="st2" d="M111.92,77.97c0.78,1,0.93,2.36,0.4,3.52c-0.35,0.77-0.69,1.42-1.2,1.88c-2.17,1.95-4.55,3.68-6.92,5.39
		c-0.41,0.3-1.38,0.35-1.77,0.07c-2.54-1.85-5.19-3.61-7.39-5.81c-1.93-1.92-1.7-4.28-0.09-6c1.62-1.73,3.75-1.95,6.02-0.41
		c1.57,1.07,2.87,1.27,4.45-0.04c1.42-1.18,3.26-1.51,4.8-0.37C110.87,76.68,111.4,77.31,111.92,77.97z"/>
</g>
</svg>
