<?xml version="1.0" encoding="utf-8"?>
<!-- Generator: Adobe Illustrator 25.0.0, SVG Export Plug-In . SVG Version: 6.00 Build 0)  -->
<svg version="1.1" id="Layer_1" xmlns="http://www.w3.org/2000/svg" xmlns:xlink="http://www.w3.org/1999/xlink" x="0px" y="0px"
	 viewBox="0 0 144.9 191" style="enable-background:new 0 0 144.9 191;" xml:space="preserve">
<style type="text/css">
	.st0{fill:#185AE9;}
	.st1{fill:#00B0FB;}
	.st2{fill-rule:evenodd;clip-rule:evenodd;fill:#00B0FB;}
	.st3{fill:none;}
	.st4{fill:#00B0FB;fill-opacity:0.4;}
	.st5{fill:#FFFFFF;}
	.st6{fill:#3C7CFF;}
	.st7{fill:#001135;}
	.st8{fill:#8DB849;}
	.st9{fill:#5A863E;}
	.st10{fill:#FFFFFE;}
	.st11{fill:#009CDE;}
	.st12{fill:#FCB415;}
	.st13{opacity:0.2;fill:#FFFFFF;enable-background:new    ;}
	.st14{fill:#68B345;}
	.st15{fill:#0A99D6;}
	.st16{opacity:0.1;fill:#010101;enable-background:new    ;}
	.st17{fill:#EE3325;}
	.st18{fill:url(#SVGID_1_);}
	.st19{fill:#B3B3B3;}
	.st20{fill:#A6120D;}
	.st21{fill:#DD1B16;}
	.st22{fill:#F2F2F2;}
	.st23{fill:#FF2D20;}
	.st24{clip-path:url(#SVGID_2_);fill:#F9C638;}
	.st25{fill:#2A2D2C;}
	.st26{fill:#F9C638;}
</style>
<path class="st11" d="M102.57,40.26C89.15,27.18,76.42,14.45,72.63,0c-3.79,14.45-16.52,27.19-29.94,40.26
	C22.74,60.22,0.02,82.93,0.02,117c-1.03,39.92,30.97,73.3,70.89,73.99c39.92,0.69,73.3-30.97,73.99-70.89V117
	C145.24,82.93,122.53,60.22,102.57,40.26L102.57,40.26z M37.19,123.54c-2.06,2.75-4.13,5.85-5.51,8.95
	c-0.35,0.35-0.69,1.03-1.38,1.03l-0.34,0c-1.72,0-3.44-3.1-3.44-3.1c-0.35-0.69-1.03-1.72-1.38-2.41l-0.35-0.69
	c-4.48-9.64-0.69-23.06-0.69-23.06c1.72-6.54,4.82-13.08,8.6-18.58c2.41-3.44,5.16-6.88,7.91-10.32l3.44,3.44l16.17,16.52
	c0.69,0.69,0.69,1.72,0,2.41l-16.86,18.93L37.19,123.54L37.19,123.54z M73.32,171.03c-13.76,0-25.12-11.36-24.78-25.12
	c0-6.2,2.41-12.04,6.2-16.52c5.16-6.2,11.7-12.39,18.93-20.65c8.26,8.95,13.76,14.8,18.93,21.68c0.35,0.35,0.69,1.03,1.03,1.72
	c2.75,4.13,4.47,8.95,4.47,14.11C98.44,160.02,87.09,171.03,73.32,171.03L73.32,171.03z M120.47,131.11
	c-0.35,1.03-1.38,1.72-2.41,2.06l-0.35,0c-1.03-0.35-1.72-1.03-2.41-1.72c-4.47-6.54-9.29-12.73-14.8-18.24l-6.54-6.88L71.95,83.62
	C67.48,79.49,63,74.68,58.87,70.2c0-0.34-0.34-0.34-0.34-0.34c-0.69-1.03-1.38-2.06-1.72-3.44v-0.69
	c-0.69-3.79,0.69-7.57,3.44-10.32c4.13-4.13,8.6-8.6,12.73-13.08c4.47,4.82,9.29,9.64,14.11,14.45c9.64,8.95,18.24,18.93,26.15,29.6
	c6.54,9.29,9.98,19.96,9.98,31.32C122.53,121.82,121.84,126.64,120.47,131.11L120.47,131.11z"/>
<path class="st11" d="M102.57,40.26C89.15,27.18,76.42,14.45,72.63,0c-3.79,14.45-16.52,27.19-29.94,40.26
	C22.74,60.22,0.02,82.93,0.02,117c-1.03,39.92,30.97,73.3,70.89,73.99c39.92,0.69,73.3-30.97,73.99-70.89V117
	C145.24,82.93,122.53,60.22,102.57,40.26L102.57,40.26z M37.19,123.54c-2.06,2.75-4.13,5.85-5.51,8.95
	c-0.35,0.35-0.69,1.03-1.38,1.03l-0.34,0c-1.72,0-3.44-3.1-3.44-3.1c-0.35-0.69-1.03-1.72-1.38-2.41l-0.35-0.69
	c-4.48-9.64-0.69-23.06-0.69-23.06c1.72-6.54,4.82-13.08,8.6-18.58c2.41-3.44,5.16-6.88,7.91-10.32l3.44,3.44l16.17,16.52
	c0.69,0.69,0.69,1.72,0,2.41l-16.86,18.93L37.19,123.54L37.19,123.54z M73.32,171.03c-13.76,0-25.12-11.36-24.78-25.12
	c0-6.2,2.41-12.04,6.2-16.52c5.16-6.2,11.7-12.39,18.93-20.65c8.26,8.95,13.76,14.8,18.93,21.68c0.35,0.35,0.69,1.03,1.03,1.72
	c2.75,4.13,4.47,8.95,4.47,14.11C98.44,160.02,87.09,171.03,73.32,171.03L73.32,171.03z M120.47,131.11
	c-0.35,1.03-1.38,1.72-2.41,2.06l-0.35,0c-1.03-0.35-1.72-1.03-2.41-1.72c-4.47-6.54-9.29-12.73-14.8-18.24l-6.54-6.88L71.95,83.62
	C67.48,79.49,63,74.68,58.87,70.2c0-0.34-0.34-0.34-0.34-0.34c-0.69-1.03-1.38-2.06-1.72-3.44v-0.69
	c-0.69-3.79,0.69-7.57,3.44-10.32c4.13-4.13,8.6-8.6,12.73-13.08c4.47,4.82,9.29,9.64,14.11,14.45c9.64,8.95,18.24,18.93,26.15,29.6
	c6.54,9.29,9.98,19.96,9.98,31.32C122.53,121.82,121.84,126.64,120.47,131.11L120.47,131.11z"/>
</svg>
