<?xml version="1.0" encoding="utf-8"?>
<!-- Generator: Adobe Illustrator 25.0.0, SVG Export Plug-In . SVG Version: 6.00 Build 0)  -->
<svg version="1.1" id="Layer_1" xmlns="http://www.w3.org/2000/svg" xmlns:xlink="http://www.w3.org/1999/xlink" x="0px" y="0px"
	 viewBox="0 0 113.63 110" style="enable-background:new 0 0 113.63 110;" xml:space="preserve">
<style type="text/css">
	.st0{fill:#185AE9;}
	.st1{fill-rule:evenodd;clip-rule:evenodd;fill:#00B0FB;}
	.st2{fill:#00B0FB;}
</style>
<g>
	<polygon class="st2" points="93.59,95.23 100.31,95.23 100.31,51.08 73.67,51.08 73.67,95.23 91.7,95.23 	"/>
	<polygon class="st2" points="43.49,54.79 43.49,59.04 43.49,95.23 70.14,95.23 70.14,34.99 43.49,34.99 	"/>
	<path class="st2" d="M49.82,20.4l-1.3,7.6l6.83-3.59c0.92-0.48,2.02-0.48,2.93,0l6.83,3.59l-1.3-7.6
		c-0.18-1.02,0.16-2.07,0.91-2.79l5.52-5.39l-7.63-1.11c-1.03-0.15-1.91-0.79-2.37-1.72l-3.41-6.92L53.4,9.39
		c-0.46,0.93-1.35,1.58-2.37,1.72l-7.63,1.11l5.52,5.39C49.66,18.34,50,19.38,49.82,20.4z"/>
	<rect x="13.31" y="64.65" class="st2" width="26.64" height="30.58"/>
	<path class="st2" d="M112.55,98.77H93.59H91.7H1.07C0.48,98.77,0,99.25,0,99.84V110h113.63V99.84
		C113.63,99.25,113.15,98.77,112.55,98.77z"/>
	<path class="st2" d="M78.01,15.16c0,0.98,0.79,1.77,1.77,1.77h2.53c0.98,0,1.77-0.79,1.77-1.77s-0.79-1.77-1.77-1.77h-2.53
		C78.81,13.39,78.01,14.18,78.01,15.16z"/>
	<path class="st2" d="M76.74,4.58c0.24,0,0.49-0.05,0.73-0.16l2.3-1.05c0.89-0.41,1.28-1.46,0.87-2.34
		c-0.4-0.88-1.44-1.27-2.33-0.88L76,1.2c-0.89,0.4-1.28,1.45-0.88,2.34C75.41,4.18,76.04,4.58,76.74,4.58z"/>
	<path class="st2" d="M77.46,25.9c-0.89-0.4-1.94-0.01-2.34,0.88c0,0,0,0,0,0c-0.4,0.89-0.01,1.94,0.88,2.34l2.3,1.05
		c0.23,0.1,0.48,0.16,0.73,0.16c0.69,0,1.32-0.41,1.61-1.04c0.4-0.89,0.01-1.94-0.88-2.34L77.46,25.9z"/>
	<path class="st2" d="M31.55,16.93h2.53c0.98,0,1.77-0.79,1.77-1.77s-0.79-1.77-1.77-1.77h-2.53c-0.98,0-1.77,0.79-1.77,1.77
		S30.57,16.93,31.55,16.93z"/>
	<path class="st2" d="M34.09,3.38l2.3,1.05c0.23,0.1,0.48,0.16,0.73,0.16c0.69,0,1.32-0.41,1.61-1.04c0.4-0.89,0.01-1.94-0.88-2.34
		l-2.3-1.05c-0.89-0.4-1.94-0.01-2.34,0.88c0,0,0,0,0,0C32.81,1.93,33.2,2.97,34.09,3.38z"/>
	<path class="st2" d="M36.4,25.9l-2.3,1.05c-0.89,0.4-1.28,1.45-0.88,2.34c0.4,0.89,1.45,1.28,2.34,0.88l2.3-1.05
		c0.89-0.41,1.28-1.46,0.87-2.34C38.32,25.89,37.28,25.5,36.4,25.9z"/>
</g>
</svg>
