<?xml version="1.0" encoding="utf-8"?>
<!-- Generator: Adobe Illustrator 25.0.0, SVG Export Plug-In . SVG Version: 6.00 Build 0)  -->
<svg version="1.1" id="Layer_1" xmlns="http://www.w3.org/2000/svg" xmlns:xlink="http://www.w3.org/1999/xlink" x="0px" y="0px"
	 viewBox="0 0 187.02 187.03" style="enable-background:new 0 0 187.02 187.03;" xml:space="preserve">
<style type="text/css">
	.st0{fill:#185AE9;}
	.st1{fill:#00B0FB;}
	.st2{fill:#00B0FB;fill-opacity:0.4;}
	.st3{fill:#FFFFFF;}
	.st4{fill:#001135;}
	.st5{fill:#3C7CFF;}
	.st6{fill-rule:evenodd;clip-rule:evenodd;fill:#252F3E;}
	.st7{fill-rule:evenodd;clip-rule:evenodd;fill:#FF9900;}
	.st8{fill:#8D3124;}
	.st9{fill:#E05244;}
	.st10{fill:#F7ADAE;}
	.st11{fill:#5B1E19;}
	.st12{fill:#F58436;}
	.st13{fill:#9D5026;}
	.st14{fill:#1A476F;}
	.st15{fill:#1F5B98;}
	.st16{fill:#2D72B8;}
	.st17{fill:#5294CF;}
	.st18{fill:#FF9900;}
	.st19{fill:#252F3E;}
	.st20{fill:#FDFDFD;}
	.st21{fill:#DBDBDB;}
	.st22{fill:#040404;}
	.st23{fill:#0C0C0C;}
	.st24{fill:#010101;}
	.st25{fill:#D9D9D9;}
	.st26{fill:#DCDCDC;}
	.st27{fill:#D7D7D7;}
	.st28{fill:#D8D8D8;}
	.st29{fill:#111111;}
	.st30{fill:#050505;}
	.st31{fill:#070707;}
	.st32{fill:#060606;}
	.st33{fill:#030303;}
	.st34{fill:#020202;}
	.st35{fill:#151515;}
	.st36{fill:#0F0F0F;}
	.st37{fill:#606060;}
	.st38{fill:#FCFCFC;}
	.st39{fill:#0A0A0A;}
	.st40{fill:#191919;}
	.st41{fill:#0D0D0D;}
	.st42{fill:#101010;}
	.st43{fill:#090909;}
	.st44{fill:#161616;}
	.st45{fill:#080808;}
	.st46{fill-rule:evenodd;clip-rule:evenodd;fill:#00B0FB;}
</style>
<g>
	<path class="st1" d="M93.48,72.1h-2.27v5.99c0,2.36-1.92,4.28-4.28,4.28H8.79c-2.36,0-4.28-1.92-4.28-4.28V72.1H3.15v12.72
		c1.53,1.28,3.5,2.06,5.64,2.06h78.14c2.61,0,4.94-1.14,6.55-2.95V72.1z"/>
	<path class="st1" d="M136,48.83c0.09,0.06,0.18,0.09,0.28,0.09c0.05,0,0.19-0.04,0.23-0.06c0.16-0.08,0.27-0.25,0.27-0.44v-7.7
		c0-1.24,1.01-2.25,2.25-2.25h19.65c1.24,0,2.25,1.01,2.25,2.25v37.11c0,0.82,0.7,1.52,1.52,1.52h9.61c0.83,0,1.52-0.69,1.52-1.52
		V30.04c0-2.33-1.89-4.22-4.22-4.22h-30.34c-1.24,0-2.25-1.01-2.25-2.25v-7.7c0-0.19-0.1-0.36-0.27-0.44
		c-0.04-0.02-0.18-0.06-0.23-0.06c-0.1,0-0.2,0.03-0.28,0.09l-23.76,16.29c-0.14,0.09-0.22,0.25-0.22,0.41s0.08,0.32,0.22,0.41
		L136,48.83z"/>
	<path class="st2" d="M182.22,150.85c-0.04-0.02-0.16-0.04-0.2-0.04c-0.12,0-0.24,0.05-0.33,0.13c-2.87,2.52-6.54,3.91-10.35,3.91
		h-14.45c-0.28,0-0.5,0.22-0.5,0.5v0.56c0,3.06-2.5,5.55-5.56,5.55h-23.31c-3.06,0-5.55-2.49-5.55-5.55v-0.56
		c0-0.28-0.22-0.5-0.5-0.5h-14.46c-3.81,0-7.48-1.39-10.35-3.92c-0.09-0.08-0.21-0.12-0.33-0.12c-0.04,0-0.17,0.03-0.21,0.05
		c-0.18,0.08-0.29,0.26-0.29,0.45v26.93c0,2.36,1.92,4.28,4.28,4.28h78.15c2.36,0,4.28-1.92,4.28-4.28v-26.93
		C182.52,151.11,182.4,150.93,182.22,150.85z"/>
	<path class="st2" d="M86.93,20.75H8.79c-2.36,0-4.28,1.92-4.28,4.28v16c0.01,6.16,5.02,11.16,11.17,11.16h14.47
		c0.27,0,0.5-0.22,0.5-0.5v-0.55c0-3.06,2.49-5.56,5.56-5.56h23.31c3.06,0,5.55,2.5,5.55,5.56v0.55c0,0.28,0.23,0.5,0.5,0.5h14.47
		c6.16,0,11.17-5.01,11.17-11.17V25.03C91.21,22.67,89.29,20.75,86.93,20.75z M20.74,40.85h-5.05c-1.24,0-2.25-1.01-2.25-2.26
		c0-1.24,1.01-2.25,2.25-2.25h5.05c1.25,0,2.26,1.01,2.26,2.25C23,39.84,21.99,40.85,20.74,40.85z M80.03,40.85h-5.05
		c-1.24,0-2.26-1.01-2.26-2.26c0-1.24,1.02-2.25,2.26-2.25h5.05c1.24,0,2.25,1.01,2.25,2.25C82.28,39.84,81.27,40.85,80.03,40.85z"
		/>
	<path class="st1" d="M51.02,139.07c-0.09-0.06-0.18-0.09-0.28-0.09c-0.05,0-0.19,0.04-0.23,0.06c-0.16,0.08-0.27,0.25-0.27,0.44
		v7.69c0,1.24-1.01,2.25-2.25,2.25H28.32c-1.24,0-2.25-1.01-2.25-2.25v-37.1c0-0.82-0.69-1.51-1.51-1.51h-9.62
		c-0.82,0-1.51,0.69-1.51,1.51v47.79c0,2.32,1.89,4.21,4.21,4.21h30.35c1.24,0,2.25,1.01,2.25,2.25v7.7c0,0.19,0.1,0.36,0.27,0.44
		c0.04,0.02,0.18,0.06,0.23,0.06c0.1,0,0.2-0.03,0.28-0.09l23.76-16.28c0.14-0.09,0.22-0.25,0.22-0.41c0-0.16-0.08-0.32-0.22-0.41
		L51.02,139.07z"/>
	<path class="st3" d="M114.3,136.73c0,1.24-1.01,2.25-2.25,2.25H107c-1.24,0-2.26-1.01-2.26-2.25s1.02-2.25,2.26-2.25h5.05
		C113.29,134.48,114.3,135.49,114.3,136.73z"/>
	<path class="st3" d="M173.58,136.73c0,1.24-1.01,2.25-2.25,2.25h-5.06c-1.24,0-2.25-1.01-2.25-2.25s1.01-2.25,2.25-2.25h5.06
		C172.57,134.48,173.58,135.49,173.58,136.73z"/>
	<path class="st3" d="M178.23,114.38h-11.54c-0.27,0-0.5-0.22-0.5-0.5v-10.14c0-3.08-2.51-5.59-5.6-5.59h-42.86
		c-3.09,0-5.61,2.51-5.61,5.59v10.14c0,0.28-0.22,0.5-0.5,0.5h-11.53c-4.85,0-8.8,3.95-8.8,8.8v55.06c0,4.84,3.95,8.79,8.8,8.79
		h78.14c4.85,0,8.79-3.95,8.79-8.79v-55.06C187.02,118.33,183.08,114.38,178.23,114.38z M116.63,103.74c0-0.59,0.51-1.09,1.1-1.09
		h42.86c0.59,0,1.1,0.5,1.1,1.09v10.14c0,0.28-0.23,0.5-0.5,0.5h-44.06c-0.27,0-0.5-0.22-0.5-0.5V103.74z M182.52,178.24
		c0,2.36-1.93,4.28-4.29,4.28h-78.14c-2.37,0-4.29-1.92-4.29-4.28v-26.93c0-0.2,0.12-0.38,0.29-0.46c0.04-0.01,0.17-0.04,0.21-0.04
		c0.13,0,0.24,0.04,0.33,0.12c2.87,2.53,6.55,3.92,10.36,3.92h14.46c0.28,0,0.5,0.22,0.5,0.5v0.56c0,3.06,2.49,5.55,5.56,5.55h23.3
		c3.07,0,5.57-2.49,5.57-5.55v-0.56c0-0.28,0.22-0.5,0.5-0.5h14.45c3.81,0,7.49-1.39,10.35-3.91c0.1-0.09,0.21-0.13,0.34-0.13
		c0.04,0,0.16,0.03,0.2,0.04c0.18,0.08,0.3,0.26,0.3,0.46V178.24z M126.46,155.91v-6.63c0-0.56,0.48-1.04,1.05-1.04h23.3
		c0.58,0,1.06,0.48,1.06,1.04v6.63c0,0.56-0.48,1.04-1.06,1.04h-23.3C126.93,156.95,126.46,156.48,126.46,155.91z M182.52,139.16
		c0,6.16-5.02,11.18-11.19,11.18h-14.45c-0.28,0-0.5-0.22-0.5-0.5v-0.56c0-3.06-2.5-5.55-5.57-5.55h-23.3
		c-3.07,0-5.56,2.49-5.56,5.55v0.56c0,0.28-0.22,0.5-0.5,0.5h-14.46c-6.17,0-11.19-5.02-11.19-11.18v-15.98
		c0-2.37,1.92-4.29,4.29-4.29h78.14c2.36,0,4.29,1.92,4.29,4.29V139.16z"/>
	<path class="st3" d="M20.74,36.34h-5.05c-1.24,0-2.25,1.01-2.25,2.25s1.01,2.25,2.25,2.25h5.05c1.24,0,2.25-1.01,2.25-2.25
		S21.99,36.34,20.74,36.34z"/>
	<path class="st3" d="M80.03,36.34h-5.05c-1.24,0-2.25,1.01-2.25,2.25s1.01,2.25,2.25,2.25h5.05c1.24,0,2.25-1.01,2.25-2.25
		S81.27,36.34,80.03,36.34z"/>
	<path class="st3" d="M86.93,16.24H75.39c-0.28,0-0.5-0.23-0.5-0.5V5.59c0-3.08-2.51-5.59-5.6-5.59H26.44
		c-3.09,0-5.61,2.51-5.61,5.59v10.15c0,0.27-0.22,0.5-0.5,0.5H8.79C3.94,16.24,0,20.18,0,25.03v55.06c0,4.85,3.94,8.79,8.79,8.79
		h78.14c4.85,0,8.79-3.94,8.79-8.79V25.03C95.72,20.18,91.78,16.24,86.93,16.24z M25.34,5.59c0-0.59,0.5-1.08,1.1-1.08h42.85
		c0.6,0,1.09,0.48,1.09,1.08v10.15c0,0.27-0.22,0.5-0.5,0.5H25.84c-0.28,0-0.5-0.23-0.5-0.5V5.59z M91.21,80.09
		c0,2.36-1.92,4.28-4.28,4.28H8.79c-2.36,0-4.28-1.92-4.28-4.28V53.17c0-0.2,0.11-0.38,0.29-0.46c0.04-0.01,0.16-0.04,0.21-0.04
		c0.12,0,0.24,0.04,0.33,0.12c2.87,2.52,6.54,3.91,10.34,3.91h14.47c0.27,0,0.5,0.23,0.5,0.5v0.56c0,3.07,2.49,5.56,5.56,5.56h23.31
		c3.06,0,5.55-2.49,5.55-5.56V57.2c0-0.27,0.23-0.5,0.5-0.5h14.47c3.8,0,7.47-1.39,10.34-3.91c0.09-0.08,0.21-0.12,0.33-0.12
		c0.04,0,0.17,0.02,0.2,0.04c0.19,0.08,0.3,0.26,0.3,0.46V80.09z M35.16,57.76v-6.62c0-0.57,0.48-1.05,1.05-1.05h23.31
		c0.57,0,1.04,0.48,1.04,1.05v6.62c0,0.57-0.47,1.06-1.04,1.06H36.21C35.64,58.82,35.16,58.33,35.16,57.76z M91.21,41.02
		c0,6.16-5.01,11.17-11.17,11.17H65.57c-0.27,0-0.5-0.22-0.5-0.5v-0.55c0-3.06-2.49-5.56-5.55-5.56H36.21
		c-3.07,0-5.56,2.5-5.56,5.56v0.55c0,0.28-0.23,0.5-0.5,0.5H15.68c-6.15,0-11.16-5-11.17-11.16v-16c0-2.36,1.92-4.28,4.28-4.28
		h78.14c2.36,0,4.28,1.92,4.28,4.28V41.02z"/>
	<path class="st3" d="M169.38,21.31h-27.59c-0.27,0-0.5-0.23-0.5-0.5v-5.59c0-2.03-0.84-3.64-2.31-4.42
		c-0.6-0.31-1.25-0.47-1.94-0.47c-1.01,0-2.04,0.34-2.98,0.98l-25.25,17.31c-1.8,1.22-2.18,2.59-2.18,3.51
		c0,0.93,0.37,2.3,2.18,3.54l25.25,17.29c0.94,0.65,1.97,1,2.98,1c0.69,0,1.34-0.16,1.93-0.47c1.48-0.78,2.32-2.39,2.32-4.42v-5.6
		c0-0.27,0.23-0.5,0.5-0.5h14.15c0.28,0,0.5,0.23,0.5,0.5v34.36c0,3.32,2.71,6.02,6.03,6.02h9.61c3.33,0,6.03-2.7,6.03-6.02V30.04
		C178.11,25.22,174.2,21.31,169.38,21.31z M173.6,77.83c0,0.82-0.69,1.51-1.52,1.51h-9.61c-0.82,0-1.52-0.69-1.52-1.51V40.72
		c0-1.24-1.01-2.26-2.26-2.26h-19.65c-1.24,0-2.26,1.02-2.26,2.26v7.7c0,0.19-0.1,0.36-0.26,0.44c-0.04,0.02-0.19,0.06-0.24,0.06
		c-0.09,0-0.19-0.03-0.28-0.09l-23.75-16.27c-0.14-0.1-0.22-0.25-0.22-0.41c0-0.17,0.08-0.32,0.22-0.42L136,15.45
		c0.09-0.06,0.19-0.09,0.28-0.09c0.06,0,0.2,0.04,0.24,0.06c0.16,0.08,0.26,0.25,0.26,0.44v7.7c0,1.24,1.02,2.26,2.26,2.26h30.34
		c2.33,0,4.22,1.89,4.22,4.22V77.83z"/>
	<path class="st3" d="M78.22,152.23l-25.25-17.29c-0.95-0.65-1.98-1-2.99-1c-0.69,0-1.34,0.16-1.93,0.47
		c-1.47,0.78-2.32,2.39-2.32,4.42v5.59c0,0.27-0.22,0.5-0.5,0.5H31.07c-0.27,0-0.5-0.23-0.5-0.5v-34.35c0-3.32-2.7-6.02-6.02-6.02
		h-9.62c-3.32,0-6.02,2.7-6.02,6.02v47.79c0,4.81,3.91,8.72,8.72,8.72h27.6c0.28,0,0.5,0.23,0.5,0.5v5.6c0,2.03,0.85,3.64,2.32,4.42
		c0.59,0.31,1.24,0.47,1.93,0.47c1.01,0,2.04-0.35,2.98-0.99l25.26-17.31c1.8-1.23,2.18-2.6,2.17-3.53
		C80.39,154.82,80.01,153.45,78.22,152.23z M74.78,156.17l-23.76,16.27c-0.08,0.06-0.18,0.09-0.28,0.09c-0.05,0-0.19-0.04-0.23-0.06
		c-0.17-0.08-0.27-0.25-0.27-0.44v-7.7c0-1.25-1.01-2.26-2.26-2.26H17.63c-2.32,0-4.21-1.89-4.21-4.21v-47.79
		c0-0.82,0.69-1.51,1.51-1.51h9.62c0.82,0,1.52,0.69,1.52,1.51v37.1c0,1.24,1.01,2.26,2.25,2.26h19.66c1.25,0,2.26-1.02,2.26-2.26
		v-7.69c0-0.19,0.1-0.36,0.26-0.44c0.05-0.02,0.19-0.06,0.24-0.06c0.1,0,0.2,0.03,0.28,0.09l23.76,16.27
		c0.13,0.1,0.21,0.25,0.21,0.41C74.99,155.92,74.91,156.07,74.78,156.17z"/>
</g>
</svg>
