<?xml version="1.0" encoding="utf-8"?>
<!-- Generator: Adobe Illustrator 25.0.0, SVG Export Plug-In . SVG Version: 6.00 Build 0)  -->
<svg version="1.1" id="Layer_1" xmlns="http://www.w3.org/2000/svg" xmlns:xlink="http://www.w3.org/1999/xlink" x="0px" y="0px"
	 viewBox="0 0 187.02 187" style="enable-background:new 0 0 187.02 187;" xml:space="preserve">
<style type="text/css">
	.st0{fill:#185AE9;}
	.st1{fill:#00B0FB;}
	.st2{fill:#00B0FB;fill-opacity:0.4;}
	.st3{fill:#FFFFFF;}
	.st4{fill:#001135;}
	.st5{fill:#3C7CFF;}
	.st6{fill-rule:evenodd;clip-rule:evenodd;fill:#252F3E;}
	.st7{fill-rule:evenodd;clip-rule:evenodd;fill:#FF9900;}
	.st8{fill:#8D3124;}
	.st9{fill:#E05244;}
	.st10{fill:#F7ADAE;}
	.st11{fill:#5B1E19;}
	.st12{fill:#F58436;}
	.st13{fill:#9D5026;}
	.st14{fill:#1A476F;}
	.st15{fill:#1F5B98;}
	.st16{fill:#2D72B8;}
	.st17{fill:#5294CF;}
	.st18{fill:#FF9900;}
	.st19{fill:#252F3E;}
	.st20{fill:#FDFDFD;}
	.st21{fill:#DBDBDB;}
	.st22{fill:#040404;}
	.st23{fill:#0C0C0C;}
	.st24{fill:#010101;}
	.st25{fill:#D9D9D9;}
	.st26{fill:#DCDCDC;}
	.st27{fill:#D7D7D7;}
	.st28{fill:#D8D8D8;}
	.st29{fill:#111111;}
	.st30{fill:#050505;}
	.st31{fill:#070707;}
	.st32{fill:#060606;}
	.st33{fill:#030303;}
	.st34{fill:#020202;}
	.st35{fill:#151515;}
	.st36{fill:#0F0F0F;}
	.st37{fill:#606060;}
	.st38{fill:#FCFCFC;}
	.st39{fill:#0A0A0A;}
	.st40{fill:#191919;}
	.st41{fill:#0D0D0D;}
	.st42{fill:#101010;}
	.st43{fill:#090909;}
	.st44{fill:#161616;}
	.st45{fill:#080808;}
	.st46{fill-rule:evenodd;clip-rule:evenodd;fill:#00B0FB;}
</style>
<g>
	<path class="st1" d="M8.33,180.48c-1.05-0.88-1.03-1.91-1.01-2.82l0.01-0.38c-0.01-19.53,0-75.52,0-75.78
		c0-0.19,0.01-0.37,0.01-0.57c0.02-0.38,0.04-0.74-0.01-1.14c0-14.47-0.01-53.41-0.01-53.41c0-0.21,0.01-0.42,0.02-0.66
		c0.01-0.42,0.02-0.87-0.03-1.27c-0.06-0.54,0.03-0.93,0.28-1.2c0.31-0.35,0.76-0.39,1.07-0.39c0.11,0,0.23,0,0.36,0.01
		c0.2,0.02,0.41,0.02,0.61,0.02l1.06-0.01h4.39v-2.19H2.06c0.01,20.71,0.01,44.95,0,58.26l-0.01,0.8c-0.06,0.32-0.04,0.68-0.01,1.11
		c0.01,0.19,0.02,0.39,0.02,0.58v15.03c0,0.25-0.01,0.51,0,0.77v53.96c0,0.75-0.02,1.51-0.03,2.27c-0.04,1.67-0.07,3.4,0.07,5.08
		c0.15,1.68,0.66,3.83,2.11,5.47h12.16v-2.31c-1.68,0-3.36,0-5.05,0.01C10.06,181.72,9.27,181.27,8.33,180.48z"/>
	<path class="st1" d="M128.76,97.14c0-2.62,0-5.24-0.01-7.85c0-0.43-0.01-1.59-1.19-1.59c-0.26,0-0.59,0.06-1.05,0.19
		c-0.32,0.09-0.65,0.18-0.97,0.27c-0.96,0.26-1.95,0.52-2.87,0.93c-0.78,0.34-1.95,0.86-1.81,2.67c0.16,2.12,0.13,4.29,0.1,6.4
		c-0.01,0.89-0.03,1.77-0.03,2.65l0,2.59c0,2.46,0,4.91,0.01,7.35c0,0.85,0.68,1.57,1.48,1.57c0.27,0,0.53-0.09,0.76-0.25
		c1.17-0.84,2.32-1.73,3.44-2.58l1.34-1.02c0.58-0.45,0.84-1.02,0.84-1.85c-0.02-3.01-0.02-6.02-0.02-9.02V97.14z"/>
	<path class="st1" d="M50.11,78.36l0.15,0.07c0.11,0.05,0.21,0.09,0.31,0.14c2.43,1.2,5.02,2.04,7.53,2.85
		c1.61,0.52,3.27,1.06,4.86,1.68c1.73,0.68,3.52,1.24,5.25,1.79c1.26,0.39,2.53,0.79,3.76,1.23l2.8,1c1.13,0.4,2.26,0.81,3.4,1.21
		c0.47,0.17,1.52,0.53,1.52,0.53c1.54,0.53,3.13,1.07,4.61,1.74c0.97,0.43,1.97,0.74,2.95,1.04c1.33,0.41,2.69,0.82,3.9,1.54
		c0.76,0.45,1.61,0.69,2.46,0.69c0.81,0,1.6-0.22,2.27-0.65c1.21-0.77,2.59-1.19,3.92-1.59c0.96-0.29,1.95-0.59,2.89-1.02
		c1.47-0.66,3.07-1.14,4.61-1.6c0.8-0.24,1.57-0.47,2.33-0.72c0.26-0.09,0.45-0.28,0.58-0.42c0.06-0.06,0.1-0.1,0.14-0.13
		c0.1-0.09,0.17-0.22,0.18-0.35c0.01-0.13-0.04-0.27-0.13-0.37c-0.05-0.05-0.1-0.12-0.14-0.18c-0.19-0.25-0.4-0.53-0.74-0.61
		c-1.3-0.31-2.57-0.82-3.8-1.33c-1.18-0.48-2.39-0.97-3.63-1.29c-1.11-0.29-2.21-0.72-3.27-1.14c-1.54-0.61-3.12-1.23-4.85-1.47
		c-0.97-0.13-1.97-0.94-2.65-1.6c-0.2-0.19-0.16-1.02-0.14-1.46l0.01-0.28c0.04-1.49,0.81-2.34,2.09-2.34
		c0.39,0,0.82,0.08,1.27,0.23c1.61,0.55,3.21,1.1,4.82,1.65l5.9,2.03c1.83,0.63,3.66,1.26,5.48,1.87l0.65,0.22
		c2.49,0.83,5.05,1.69,7.5,2.68c0.5,0.2,0.95,0.3,1.4,0.3c0.41,0,0.82-0.08,1.29-0.25c1.97-0.71,3.94-1.4,5.91-2.1l0.23-0.08
		c1.76-0.62,3.52-1.23,5.27-1.86c0.8-0.29,1.59-0.62,2.35-0.95c0.42-0.18,0.75-0.32,1.08-0.46l0.49-0.2
		c0.17-0.07,0.29-0.23,0.31-0.41s-0.06-0.36-0.21-0.46l-0.15-0.11c-0.14-0.1-0.28-0.2-0.43-0.28l-0.25-0.14
		c-0.35-0.2-0.68-0.38-1.06-0.47c-1.29-0.29-2.56-0.82-3.78-1.33c-1.59-0.67-3.23-1.36-5.03-1.57c-2.56-1.44-5.55-2.38-8.43-3.28
		c-1.66-0.52-3.37-1.06-5.01-1.69c-3.64-1.41-7.4-2.71-11.04-3.96l-3.11-1.08c-1.05-0.37-2.12-0.71-3.17-1.05l-1.56-0.5
		c-0.03-0.01-0.12-0.02-0.16-0.02c-0.03,0-0.13,0.02-0.16,0.02c-0.29,0.1-0.56,0.19-0.81,0.28c-0.53,0.19-0.94,0.33-1.36,0.43
		c-2.01,0.48-3.95,1.2-5.83,1.9c-1.2,0.45-2.45,0.91-3.69,1.3c-2.1,0.66-4.17,1.39-6.18,2.1c-0.78,0.28-1.54,0.55-2.31,0.81
		c-2.65,0.92-5.29,1.87-7.93,2.81l-5.67,2.02c-3.02,1.07-6.15,2.18-9.19,3.4c-0.19,0.07-0.34,0.18-0.48,0.28l-0.17,0.12
		c-0.15,0.1-0.24,0.27-0.22,0.46C49.83,78.12,49.94,78.29,50.11,78.36z"/>
	<path class="st1" d="M116.23,100.1c0-2.24,0-4.47,0-6.7c0-1.02-0.52-1.65-1.35-1.65c-0.22,0-0.46,0.05-0.71,0.15
		c-0.56,0.22-1.11,0.48-1.66,0.74c-0.76,0.36-1.45,0.68-2.17,0.93c-2.05,0.71-4.1,1.4-6.16,2.09l-0.15,0.05
		c-3.08,1.03-6.26,2.1-9.39,3.22c-0.44,0.16-0.79,0.23-1.11,0.23c-0.33,0-0.66-0.07-1.09-0.23c-1.09-0.4-2.19-0.78-3.28-1.16
		c-1.73-0.6-3.44-1.19-5.13-1.85c-4.52-1.76-9.12-3.24-14.23-4.86c-1.22-0.38-2.43-0.85-3.61-1.31c-1.91-0.74-3.86-1.5-5.9-1.95
		c-0.29-0.06-0.53-0.09-0.72-0.09c-0.72,0-1.16,0.42-1.25,1.21c-0.03,0.22-0.02,0.44-0.01,0.66l0,0.26l0.01,4.36
		c0.01,4.14,0.02,8.42-0.04,12.68c-0.02,1.07,0.38,1.85,1.27,2.53c2.72,2.06,5.43,3.71,8.05,4.9c0.49,0.22,0.99,0.46,1.48,0.7
		c2.39,1.14,4.86,2.32,7.7,2.36c2.31,1.11,5,1.45,7.61,1.78c0.96,0.12,1.87,0.24,2.77,0.39c1.11,0.18,2.86,0.28,5.06,0.28
		c4.36,0,9.47-0.38,11.64-0.87c0.49-0.11,1.01-0.14,1.52-0.17c0.82-0.05,1.59-0.09,2.31-0.42c1.22-0.57,2.54-0.91,3.81-1.24
		c0.97-0.25,1.97-0.51,2.95-0.87c1.17-0.43,1.84-0.96,1.83-2.37c-0.02-2.45-0.02-4.91-0.01-7.36L116.23,100.1z"/>
	<path class="st2" d="M181.75,8.96c0.01-1.14-0.46-1.83-1.16-2.52l-0.14-0.14c-0.51-0.5-1.08-1.06-1.98-1.06
		c-0.16,0-0.32,0.02-0.49,0.05c-0.12,0.03-0.25,0.04-0.42,0.04c-0.14,0-0.28-0.01-0.42-0.02c-0.2-0.01-0.34-0.01-0.48-0.01
		L9.28,5.29c-0.29,0-0.58,0-0.87,0.02C8.04,5.32,7.58,5.33,7.3,5.64C7.12,5.84,6.92,6.02,6.71,6.2C5.93,6.91,5.04,7.72,5.3,9.29
		c0.11,0.64,0.08,1.34,0.05,2.01c-0.01,0.37-0.03,0.7-0.03,1.03v22.49c0.01,2.58,0.22,2.79,2.92,2.8h169.94
		c0.21,0,0.43-0.01,0.64-0.01c0.25-0.01,0.42-0.02,0.6-0.02c0.23,0,0.47,0.01,0.7,0.04c0.11,0.01,0.22,0.02,0.31,0.02
		c0.4,0,0.71-0.11,0.93-0.34c0.31-0.31,0.37-0.75,0.37-1.31C181.71,25.99,181.7,17.57,181.75,8.96z M21.6,30.25l-0.36,0.01
		c-2.47,0-4.59-0.82-6.13-2.38c-1.57-1.57-2.43-3.81-2.41-6.29c0.04-5.61,3.19-8.85,8.66-8.9h0.13c5.24,0,8.23,2.92,8.89,8.69
		C29.89,27.09,26.93,30.08,21.6,30.25z M46.62,30.23h-0.08c-5.54,0-8.74-3.17-8.77-8.7c-0.01-2.76,0.78-5.03,2.29-6.54
		c1.49-1.49,3.71-2.29,6.4-2.3c5.34,0,8.36,2.94,8.98,8.74C54.91,27.23,51.95,30.2,46.62,30.23z M71.68,30.28H71.6
		c-2.59,0-4.81-0.85-6.4-2.46c-1.56-1.57-2.41-3.8-2.39-6.27c0.05-5.6,3.22-8.83,8.7-8.86c5.34,0,8.36,2.94,8.98,8.73
		C80.12,26.85,76.74,30.25,71.68,30.28z M174.43,27.66c-0.01,1.24-1.34,2.58-2.67,2.69c-0.2,0.01-0.4,0.02-0.59,0.02l-1.08-0.02
		h-42.28c-6.01,0-12.02,0-18.04-0.01c-0.17,0-0.33,0.01-0.5,0.02c-0.15,0.01-0.3,0.02-0.45,0.02c-0.4,0-0.71-0.07-1.01-0.42
		c-0.76-0.9-1.27-1.73-1.27-2.81c0.01-2.21,0.01-4.42,0.01-6.62v-5.41c-0.03-0.58-0.04-0.95,0.39-1.3c0.78-0.62,1.45-1.16,2.32-1.25
		c0.15-0.02,0.31-0.03,0.47-0.03c0,0,0.82,0.02,0.89,0.02h19.05c13.57,0,27.14,0,40.71,0.02c0.87,0,1.61,0.03,2.45,0.4
		c1.24,0.55,1.53,1.52,1.56,2.24C174.55,19.54,174.48,24.04,174.43,27.66z"/>
	<path class="st3" d="M187,9.48c0-1.16-0.18-2.24-0.55-3.31c-0.6-1.76-1.36-3.5-2.89-4.36c-1.59-0.9-3.52-1.81-5.82-1.81
		c-28.45,0.02-56.91,0.03-85.37,0.03c-27.63,0-55.26-0.01-82.9-0.02c-1.1,0-2.18,0.18-3.3,0.56c-1.76,0.59-3.5,1.35-4.35,2.9
		C0.93,5.09,0.02,7.05,0.03,9.3c0.04,17.02,0.04,67.91,0.03,89.65l-0.01,0.8c-0.06,0.32-0.04,0.68-0.01,1.11
		c0.01,0.19,0.02,0.39,0.02,0.58v15.03c0,0.25-0.01,0.51,0,0.77v53.96c0,0.75-0.02,1.51-0.03,2.27c-0.04,1.67-0.07,3.4,0.07,5.08
		c0.19,2.11,0.92,4.97,3.39,6.6c1.85,1.22,3.78,1.83,5.76,1.83c25.37-0.01,50.75-0.02,76.13-0.02c30.81,0,61.61,0.01,92.42,0.04
		h0.01c1.16,0,2.21-0.31,3.27-0.66c1.49-0.48,3.3-1.24,4.11-2.77c0.95-1.79,1.83-3.77,1.83-6.11C186.97,118.57,186.98,59.5,187,9.48
		z M181.71,45.7l0.01,0.7v130.68c0.01,1.38-0.08,2.52-1.22,3.65c-0.9,0.89-1.82,0.96-2.62,0.96l-0.84-0.01
		c-37.12,0.01-74.25,0.01-111.38,0.01l-39.36-0.01c-5.65,0-11.3,0.01-16.98,0.04c-1.26,0-2.05-0.45-2.99-1.24
		c-1.05-0.88-1.03-1.91-1.01-2.82l0.01-0.38c-0.01-19.53,0-75.52,0-75.78c0-0.19,0.01-0.37,0.01-0.57c0.02-0.38,0.04-0.74-0.01-1.14
		c0-14.47-0.01-53.41-0.01-53.41c0-0.21,0.01-0.42,0.02-0.66c0.01-0.42,0.02-0.87-0.03-1.27c-0.06-0.54,0.03-0.93,0.28-1.2
		c0.31-0.35,0.76-0.39,1.07-0.39c0.11,0,0.23,0,0.36,0.01c0.2,0.02,0.41,0.02,0.61,0.02l1.06-0.01h169.69l1.2,0.01
		c0.26,0,0.51,0,0.77-0.02h0.17c0.26,0,0.64,0.03,0.92,0.32c0.21,0.22,0.31,0.54,0.29,0.96C181.7,44.66,181.71,45.18,181.71,45.7z
		 M181.73,36c0,0.56-0.06,1-0.37,1.31c-0.22,0.23-0.53,0.34-0.93,0.34c-0.09,0-0.2-0.01-0.31-0.02c-0.23-0.03-0.47-0.04-0.7-0.04
		c-0.18,0-0.35,0.01-0.6,0.02c-0.21,0-0.43,0.01-0.64,0.01H8.24c-2.7-0.01-2.91-0.22-2.92-2.8V12.33c0-0.33,0.02-0.66,0.03-1.03
		c0.03-0.67,0.06-1.37-0.05-2.01C5.04,7.72,5.93,6.91,6.71,6.2C6.92,6.02,7.12,5.84,7.3,5.64c0.28-0.31,0.74-0.32,1.11-0.33
		C8.7,5.29,8.99,5.29,9.28,5.29L176.66,5.3c0.14,0,0.28,0,0.48,0.01c0.14,0.01,0.28,0.02,0.42,0.02c0.17,0,0.3-0.01,0.42-0.04
		c0.17-0.03,0.33-0.05,0.49-0.05c0.9,0,1.47,0.56,1.98,1.06l0.14,0.14c0.7,0.69,1.17,1.38,1.16,2.52
		C181.7,17.57,181.71,25.99,181.73,36z"/>
	<path class="st3" d="M148.04,75.71c-0.95-0.52-2.01-0.87-3.06-1.21c-0.67-0.23-1.37-0.45-2.05-0.74c-2.45-1.02-5.03-1.9-7.54-2.74
		c-2.4-0.82-4.89-1.66-7.3-2.65c-1.35-0.56-2.81-0.99-4.24-1.42c-1.49-0.44-3.04-0.9-4.5-1.52c-1.11-0.47-2.29-0.84-3.44-1.19
		c-1.85-0.56-3.76-1.15-5.34-2.15c-3.12-0.77-6.16-1.91-9.1-3.01c-2.25-0.84-4.57-1.71-6.9-2.4c-0.47-0.14-0.82-0.2-1.14-0.2
		c-0.29,0-0.57,0.05-0.87,0.16c-1.31,0.47-2.62,0.92-4.06,1.41c-1.14,0.39-2.27,0.78-3.41,1.18c-1.14,0.41-2.3,0.81-3.45,1.2
		c-1.81,0.61-3.68,1.24-5.47,1.94c-1.58,0.62-3.22,1.19-4.81,1.75c-1.67,0.58-3.4,1.18-5.08,1.85c-3.46,1.38-7.05,2.55-10.73,3.73
		c-2.07,0.66-4.17,1.43-6.21,2.18c-2.68,0.97-5.44,1.99-8.26,2.79l-0.1,0.03c-1.02,0.29-2.17,0.62-2.84,1.64
		c-0.55,0.83-0.72,2.17-0.03,2.87c0.62,0.64,1.31,1.06,2.31,1.4c2.78,0.93,5.66,1.9,8.42,3.11c1.03,0.45,2.17,0.85,3.41,1.17
		c0.98,0.26,1.38,0.78,1.36,1.77c-0.04,2.87-0.03,5.74-0.02,8.61v6.07c0,2.98,0,5.96-0.01,8.94v0.15c0,0.57,0,0.91,0.39,1.2
		c0.65,0.49,1.27,1.01,1.92,1.55l0.08,0.07c0.4,0.33,0.8,0.66,1.21,0.99c0.11,0.08,0.25,0.15,0.41,0.22
		c0.17,0.08,0.33,0.16,0.48,0.26c2.8,1.85,6.17,3.93,9.91,5.34c3.32,1.25,6.6,2.3,10,3.21c0.6,0.16,1.23,0.2,1.85,0.24
		c0.73,0.05,1.48,0.11,2.2,0.36c1.79,0.61,3.79,0.92,5.95,0.92c1.25,0,2.5,0.05,3.78,0.1c1.24,0.04,2.51,0.09,3.77,0.09
		c2.5,0,4.52-0.2,6.34-0.62c1.29-0.29,2.64-0.38,3.95-0.47c0.61-0.04,1.23-0.09,1.84-0.15c0.04,0,0.13-0.04,0.22-0.07
		c0.06-0.03,0.11-0.05,0.17-0.07l1.95-0.66c1.43-0.49,2.86-0.98,4.3-1.44c0.25-0.08,0.46-0.12,0.66-0.12c0.57,0,1.25,0.3,1.27,1.75
		v2.03c-0.01,1.03-0.01,2.06,0.01,3.08c0,0.17-0.01,0.34-0.03,0.51c-0.04,0.53-0.03,0.73,0.26,0.93c0.69,0.47,1.34,0.92,2.12,0.92
		c0.08,0,0.15-0.01,0.22-0.02c1.53-0.15,2.1-0.78,2.11-2.33c0-0.61,0.02-1.22,0.03-1.82c0.03-1.64,0.06-3.33-0.07-4.96
		c-0.12-1.53,0.53-2.76,1.76-3.29c2.71-1.18,5.11-2.94,7.43-4.65c0.56-0.41,1.12-0.82,1.68-1.22c1.27-0.91,1.8-1.9,1.77-3.32
		c-0.13-5.42-0.1-10.95-0.08-16.34c0.01-1.67,0.01-3.34,0.02-5.01c0-1.86,0.53-2.54,2.47-3.16c1.62-0.52,3.25-1.15,4.86-1.76
		c2.13-0.81,4.33-1.66,6.59-2.27c1.03-0.28,1.79-1.08,2-2.08C149.63,77.16,149.24,76.39,148.04,75.71z M114.41,116.24
		c-0.97,0.36-1.98,0.62-2.95,0.88c-1.27,0.33-2.59,0.67-3.81,1.23c-0.71,0.33-1.48,0.38-2.3,0.43c-0.51,0.03-1.04,0.06-1.53,0.17
		c-2.16,0.49-7.27,0.87-11.63,0.87c-2.21,0-3.96-0.1-5.07-0.28c-0.9-0.15-1.81-0.27-2.77-0.39c-2.6-0.33-5.3-0.67-7.6-1.78
		c-2.84-0.03-5.32-1.21-7.71-2.36c-0.49-0.23-0.99-0.47-1.48-0.69c-2.62-1.19-5.32-2.83-8.05-4.9c-0.89-0.67-1.28-1.45-1.26-2.53
		c0.05-4.26,0.05-8.54,0.04-12.68l-0.01-4.36v-0.26c-0.01-0.22-0.01-0.44,0.01-0.66c0.1-0.79,0.53-1.21,1.25-1.21
		c0.2,0,0.44,0.04,0.72,0.1c2.04,0.45,3.99,1.2,5.9,1.95c1.18,0.45,2.4,0.92,3.61,1.31c5.11,1.61,9.71,3.09,14.23,4.85
		c1.69,0.66,3.4,1.25,5.13,1.85c1.1,0.38,2.2,0.76,3.29,1.16c0.43,0.15,0.76,0.22,1.09,0.22c0.32,0,0.67-0.07,1.11-0.23
		c3.14-1.12,6.32-2.19,9.39-3.22l0.16-0.05c2.05-0.69,4.11-1.38,6.16-2.09c0.71-0.24,1.4-0.57,2.17-0.93
		c0.55-0.26,1.1-0.52,1.66-0.74c0.25-0.09,0.49-0.14,0.72-0.14c0.82,0,1.34,0.63,1.35,1.64v13.11c-0.01,2.45-0.01,4.91,0.01,7.36
		C116.26,115.29,115.58,115.81,114.41,116.24z M127.94,108.46l-1.34,1.03c-1.11,0.86-2.27,1.75-3.44,2.58
		c-0.22,0.16-0.49,0.25-0.76,0.25c-0.79,0-1.47-0.72-1.47-1.57c-0.01-2.45-0.01-4.9-0.01-7.35v-2.6c0-0.88,0.02-1.76,0.03-2.65
		c0.03-2.11,0.07-4.28-0.1-6.4c-0.14-1.8,1.04-2.32,1.81-2.66c0.93-0.41,1.91-0.68,2.87-0.93c0.33-0.09,0.65-0.18,0.97-0.27
		c0.47-0.13,0.79-0.19,1.06-0.19c1.18,0,1.18,1.15,1.19,1.58c0.01,2.62,0.01,5.24,0.01,7.86v0.45c0,3.01,0,6.02,0.02,9.03
		C128.78,107.45,128.52,108.02,127.94,108.46z M136.91,78.38l-0.49,0.2c-0.33,0.14-0.65,0.28-1.08,0.46
		c-0.76,0.32-1.54,0.66-2.34,0.95c-1.76,0.63-3.52,1.24-5.28,1.86l-0.22,0.08c-1.97,0.69-3.95,1.39-5.91,2.1
		c-0.47,0.16-0.88,0.24-1.29,0.24c-0.46,0-0.9-0.09-1.4-0.29c-2.45-1-5-1.85-7.5-2.69l-0.64-0.21c-1.83-0.61-3.66-1.25-5.48-1.88
		l-5.91-2.03c-1.6-0.55-3.21-1.11-4.81-1.65c-0.46-0.16-0.89-0.24-1.28-0.24c-1.28,0-2.05,0.86-2.09,2.35l-0.01,0.28
		c-0.02,0.44-0.05,1.27,0.14,1.46c0.67,0.65,1.68,1.46,2.65,1.6c1.72,0.24,3.3,0.86,4.84,1.47c1.06,0.42,2.15,0.85,3.27,1.14
		c1.24,0.32,2.44,0.81,3.63,1.29c1.23,0.5,2.5,1.02,3.8,1.32c0.35,0.09,0.56,0.37,0.75,0.62c0.04,0.06,0.09,0.12,0.14,0.18
		c0.09,0.1,0.14,0.24,0.13,0.37c0,0.13-0.07,0.26-0.17,0.35l-0.14,0.14c-0.14,0.13-0.32,0.32-0.58,0.41
		c-0.76,0.25-1.53,0.48-2.34,0.72c-1.54,0.47-3.14,0.94-4.61,1.61c-0.94,0.42-1.93,0.72-2.89,1.02c-1.34,0.4-2.72,0.82-3.92,1.59
		c-0.67,0.42-1.46,0.65-2.27,0.65c-0.85,0-1.7-0.24-2.46-0.69c-1.21-0.71-2.57-1.13-3.9-1.54c-0.98-0.3-1.99-0.61-2.95-1.04
		c-1.48-0.66-3.07-1.2-4.61-1.73c0,0-1.05-0.36-1.52-0.53c-1.13-0.4-2.26-0.8-3.39-1.21l-2.8-0.99c-1.23-0.44-2.51-0.84-3.76-1.24
		c-1.74-0.54-3.53-1.1-5.26-1.78c-1.59-0.62-3.25-1.16-4.86-1.68c-2.51-0.81-5.1-1.65-7.53-2.85c-0.1-0.05-0.2-0.1-0.31-0.14
		l-0.15-0.07c-0.17-0.07-0.28-0.24-0.3-0.42c-0.01-0.18,0.08-0.36,0.23-0.45l0.17-0.12c0.14-0.1,0.3-0.21,0.48-0.28
		c3.05-1.22,6.17-2.33,9.19-3.4l5.67-2.02c2.64-0.95,5.28-1.89,7.93-2.81c0.76-0.27,1.52-0.54,2.3-0.81
		c2.01-0.71,4.09-1.45,6.18-2.11c1.24-0.39,2.49-0.85,3.69-1.3c1.88-0.69,3.82-1.41,5.83-1.9c0.42-0.1,0.83-0.24,1.36-0.43
		c0.25-0.09,0.52-0.18,0.81-0.28c0.03-0.01,0.12-0.02,0.16-0.02c0.03,0,0.12,0.01,0.15,0.02l1.56,0.51
		c1.05,0.34,2.12,0.68,3.17,1.05l3.11,1.07c3.64,1.25,7.4,2.55,11.04,3.97c1.65,0.63,3.36,1.17,5.02,1.69
		c2.88,0.9,5.87,1.84,8.43,3.28c1.8,0.22,3.44,0.91,5.04,1.57c1.22,0.52,2.48,1.05,3.77,1.33c0.38,0.09,0.71,0.27,1.06,0.47
		l0.25,0.14c0.15,0.08,0.3,0.18,0.44,0.28L137,77.5c0.15,0.11,0.23,0.29,0.21,0.47C137.2,78.15,137.08,78.31,136.91,78.38z"/>
	<path class="st3" d="M171.01,163.6l-0.24,0.28c-0.42,0.51-0.75,0.92-1.31,0.92c-0.08,0-0.17-0.01-0.26-0.03
		c-0.22-0.04-0.46-0.06-0.73-0.06c-0.19,0-0.37,0.01-0.56,0.02c-0.21,0.01-0.36,0.01-0.51,0.01H19.43c-0.21,0-0.42,0.01-0.63,0.01
		c-0.2,0.01-0.4,0.01-0.61,0.01c-0.23,0-0.47,0-0.7-0.02c-0.91-0.09-1.49-1.02-1.48-2.37c0-1.33,0.61-2.24,1.54-2.32
		c0.16-0.01,0.33-0.01,0.49-0.01l0.89,0.01c0,0,113.65,0,149.11,0c0.17,0,0.34,0,0.52-0.01c0.16,0,0.32-0.01,0.49-0.01
		c0.72,0,1.21,0.12,1.6,0.73C171.01,161.31,171.22,163.36,171.01,163.6z"/>
	<path class="st3" d="M143.2,147.54c-0.2,0.2-0.39,0.43-0.58,0.66c-0.51,0.65-0.91,1.15-1.66,1.17H19.97l-1.08,0.01
		c-0.2,0-0.4,0-0.59-0.02c-1.73-0.11-2.28-0.7-2.29-2.41c-0.01-1.21,0.14-1.89,0.52-2.27c0.39-0.4,1.12-0.57,2.44-0.57
		c9.58,0,43.12-0.01,43.12-0.01l37.38,0.01c13.4,0,26.81-0.01,40.22-0.03c1.15,0,2.1,0.08,2.8,1.04
		C143.09,145.95,143.34,147.39,143.2,147.54z"/>
	<path class="st3" d="M171.03,146.63c0,0.12,0.01,0.24,0.01,0.36c-0.02,1.71-0.64,2.34-2.31,2.36c-1.69,0.02-3.37,0.02-5.06,0.02
		h-5.47c-1.81,0-3.61,0-5.41,0.02h-0.03c-1.09,0-1.71-0.72-2.3-1.8c-0.35-0.64-0.34-1.68,0.52-2.45c0.72-0.64,1.41-1.06,2.45-1.06
		h0.16c1.03,0.04,2.06,0.05,3.09,0.05c0.72,0,1.44-0.01,2.17-0.01c0.71-0.01,1.43-0.01,2.15-0.01c0.63,0,2.07,0.01,2.07,0.01h2.07
		c1.1,0,2.19-0.01,3.28-0.05c0.57,0,0.95,0.17,1.4,0.37c0.15,0.07,0.29,0.13,0.44,0.19c0.65,0.27,0.86,0.58,0.79,1.17
		C171.01,146.07,171.02,146.35,171.03,146.63z"/>
	<path class="st3" d="M174.39,15.22c-0.03-0.72-0.32-1.69-1.56-2.24c-0.84-0.37-1.58-0.4-2.45-0.4
		c-13.57-0.02-27.14-0.02-40.71-0.02h-19.05c-0.07,0-0.89-0.02-0.89-0.02c-0.16,0-0.32,0.01-0.47,0.03
		c-0.87,0.09-1.54,0.63-2.32,1.25c-0.43,0.35-0.42,0.72-0.39,1.3v5.41c0,2.2,0,4.41-0.01,6.62c0,1.08,0.51,1.91,1.27,2.81
		c0.3,0.35,0.61,0.42,1.01,0.42c0.15,0,0.3-0.01,0.45-0.02c0.17-0.01,0.33-0.02,0.5-0.02c6.02,0.01,12.03,0.01,18.04,0.01h42.28
		l1.08,0.02c0.19,0,0.39-0.01,0.59-0.02c1.33-0.11,2.66-1.45,2.67-2.69C174.48,24.04,174.55,19.54,174.39,15.22z M169.13,23.12
		l-0.03,1.28c0,0.26-0.21,0.48-0.47,0.49c-0.44,0.02-0.88,0.05-1.37,0.08c-0.93,0.05-1.89,0.11-2.84,0.11
		c-9.43,0.01-18.86,0.01-28.28,0.01H115.2c-0.18,0-1.04-0.02-1.22-0.02c-0.24,0-0.48,0.01-0.72,0.03c-0.09,0.01-0.17,0.01-0.25,0.01
		c-0.39,0-0.67-0.1-0.89-0.32c-0.3-0.32-0.33-0.76-0.32-1.2c0.04-1.19,0.06-2.38,0.08-3.58l0.02-1.5c0-0.26,0.22-0.48,0.48-0.49
		c0.49-0.02,1.6-0.07,1.6-0.07c1.13-0.06,2.3-0.11,3.46-0.12c3.58-0.01,7.17-0.01,10.75-0.01l38.76,0.01c0.96,0,1.49,0,1.86,0.37
		c0.38,0.38,0.38,0.91,0.37,1.96C169.18,21.15,169.16,22.13,169.13,23.12z"/>
	<path class="st3" d="M46.46,12.69c-2.69,0.01-4.91,0.81-6.4,2.3c-1.51,1.51-2.3,3.78-2.29,6.54c0.03,5.53,3.23,8.7,8.77,8.7h0.08
		c5.33-0.03,8.29-3,8.82-8.8C54.82,15.63,51.8,12.69,46.46,12.69z M49.1,23.97c-0.68,0.71-1.61,1.11-2.54,1.12
		c-1.93,0-3.64-1.68-3.65-3.59c-0.01-0.93,0.38-1.86,1.07-2.56c0.68-0.7,1.6-1.11,2.52-1.12h0.02c1.93,0,3.64,1.68,3.65,3.6
		C50.18,22.34,49.79,23.27,49.1,23.97z"/>
	<path class="st3" d="M21.49,12.69h-0.13c-5.47,0.05-8.62,3.29-8.66,8.9c-0.02,2.48,0.84,4.72,2.41,6.29
		c1.54,1.56,3.66,2.38,6.13,2.38l0.36-0.01c5.33-0.17,8.29-3.16,8.78-8.87C29.72,15.61,26.73,12.69,21.49,12.69z M24.02,23.99
		c-0.69,0.7-1.61,1.1-2.53,1.1c-1.94,0-3.64-1.7-3.64-3.63c0-1.94,1.7-3.64,3.63-3.64c1.94,0,3.64,1.7,3.64,3.63
		C25.12,22.37,24.72,23.3,24.02,23.99z"/>
	<path class="st3" d="M71.51,12.69c-5.48,0.03-8.65,3.26-8.7,8.86c-0.02,2.47,0.83,4.7,2.39,6.27c1.59,1.61,3.81,2.46,6.4,2.46h0.08
		c5.06-0.03,8.44-3.43,8.81-8.86C79.87,15.63,76.85,12.69,71.51,12.69z M71.56,25.09c-0.92-0.01-1.84-0.41-2.53-1.12
		c-0.68-0.7-1.07-1.63-1.07-2.55c0.02-1.92,1.72-3.6,3.66-3.6h0.02c0.91,0.01,1.83,0.42,2.52,1.12c0.68,0.7,1.07,1.64,1.07,2.56
		C75.22,23.41,73.5,25.09,71.56,25.09z"/>
</g>
</svg>
