<?xml version="1.0" encoding="utf-8"?>
<!-- Generator: Adobe Illustrator 24.3.0, SVG Export Plug-In . SVG Version: 6.00 Build 0)  -->
<svg version="1.1" id="Layer_1" xmlns="http://www.w3.org/2000/svg" xmlns:xlink="http://www.w3.org/1999/xlink" x="0px" y="0px"
	 width="50.6px" height="55.7px" viewBox="0 0 50.6 55.7" style="enable-background:new 0 0 50.6 55.7;" xml:space="preserve">
<style type="text/css">
	.st0{fill:#00B0FB;}
	.st1{opacity:0.4;fill:#00B0FB;}
	.st2{fill:none;}
	.st3{opacity:0.4;}
	.st4{fill-rule:evenodd;clip-rule:evenodd;fill:#00B0FB;}
	.st5{fill-rule:evenodd;clip-rule:evenodd;}
</style>
<g>
	<path class="st0" d="M33.7,7.8C33.7,7.8,33.7,7.8,33.7,7.8C33.7,7.8,33.6,7.8,33.7,7.8C33.6,7.8,33.6,7.7,33.7,7.8
		C33.6,7.7,33.6,7.7,33.7,7.8C33.6,7.7,33.6,7.7,33.7,7.8C33.6,7.7,33.6,7.7,33.7,7.8C33.6,7.7,33.6,7.7,33.7,7.8
		c-0.1-0.2-0.1-0.2-0.2-0.3c-0.4-0.4-0.6-0.9-0.6-1.4c-0.2,0.1-0.4,0.2-0.6,0.3c-0.4,0.6-1,1-1.9,1c-0.2,0-0.4,0-0.6-0.1
		c-1.5,0.6-2.6,1.1-3.4,1.4c-1.9,0.8-2.1,0.8-2.2,1.3l-1.5,8.2c-3.2,0.3-5.2,0.5-6.5,0.6c-2.1,0.2-2.4,0.2-2.6,0.7l-2.8,7.1l-8,1.6
		c-0.5,0.1-0.7,0.6-0.7,1c0,0.4,0.3,0.8,0.9,0.8c0.1,0,0.1,0,0.2,0c3.3-0.7,5.4-1.1,6.7-1.4c2.1-0.4,2.2-0.4,2.4-0.9l2.8-7
		c3.2-0.4,5.2-0.5,6.6-0.6c2.2-0.2,2.6-0.2,2.7-0.9l1.5-8.4l7-2.9l0,1.1c0.2-0.2,0.5-0.4,0.8-0.6C33.7,8.3,33.7,8.1,33.7,7.8z"/>
	<path class="st1" d="M25.1,27.2h-3.2c-0.4,0-0.7,0.3-0.7,0.7v13.7h4.5V27.9C25.8,27.5,25.5,27.2,25.1,27.2z"/>
	<path class="st1" d="M13.2,34.6H10c-0.4,0-0.7,0.3-0.7,0.7v6.2h4.5v-6.2C13.8,34.9,13.5,34.6,13.2,34.6z"/>
	<path class="st0" d="M39.9,35.1c-4,0-7.2,3.2-7.2,7.2c0,4,3.2,7.2,7.2,7.2c4,0,7.2-3.2,7.2-7.2C47.1,38.4,43.9,35.1,39.9,35.1z
		 M40,41.7c1.2,0,2.6,1.2,2.6,2.8c0,1.3-0.9,2.4-2.1,2.7c-0.1,0.3,0.3,1.7-0.7,1.7c-1,0-0.6-1.3-0.7-1.7c-1.2-0.3-2.1-1.4-2.1-2.7
		c0-0.9,1.4-0.9,1.4,0c0,1.9,2.8,1.9,2.8,0c0-0.7-0.5-1.3-1.1-1.4c-0.1,0-0.2,0-0.2,0c-3.3,0-3.8-4.7-0.7-5.6
		c0.1-0.7-0.1-1.1,0.2-1.4c0.4-0.5,1.2-0.2,1.2,0.4v1c2.2,0.6,2.7,3.5,1.3,3.5c-0.4,0-0.7-0.3-0.7-0.7c0-1.2-1.5-1.9-2.4-1.1
		C38.1,40.2,38.8,41.7,40,41.7z"/>
	<path d="M11.9,27.5l2.8-7c3.2-0.4,5.2-0.5,6.6-0.6c2.2-0.2,2.6-0.2,2.7-0.9l1.5-8.4l7-2.9l0,2.3c0,0.7,0.6,0.9,0.9,0.9l0.2,0l0,0
		c0.4-0.1,0.7-0.4,0.7-0.9V5.5c0-0.5-0.4-0.9-0.8-0.9L29,4.3c-0.5,0-0.8,0.4-0.9,0.9c0,0.4,0.2,0.9,0.8,0.9l2.4,0.2
		C28.7,7.3,27,8,26,8.4c-1.9,0.8-2.1,0.8-2.2,1.3L22.4,18c-3.2,0.3-5.2,0.5-6.5,0.6c-2.1,0.2-2.4,0.2-2.6,0.7l-2.8,7.1l-8,1.6
		c-0.5,0.1-0.7,0.6-0.7,1c0,0.4,0.3,0.8,0.9,0.8c0.1,0,0.1,0,0.2,0c3.3-0.7,5.4-1.1,6.7-1.4C11.5,28,11.7,28,11.9,27.5z"/>
	<path d="M41.4,40.3c0,0.4,0.3,0.7,0.7,0.7c1.3,0,0.9-2.9-1.3-3.5v-1c0-0.6-0.8-0.9-1.2-0.4c-0.4,0.3-0.2,0.7-0.2,1.4
		c-3.1,0.9-2.6,5.6,0.7,5.6c0.1,0,0.2,0,0.2,0c0.6,0.1,1.1,0.7,1.1,1.4c0,1.9-2.8,1.9-2.8,0c0-0.9-1.4-0.9-1.4,0
		c0,1.3,0.9,2.4,2.1,2.7c0.1,0.4-0.3,1.7,0.7,1.7c1,0,0.6-1.3,0.7-1.7c1.2-0.3,2.1-1.4,2.1-2.7c0-1.6-1.4-2.8-2.6-2.8
		c-1.2,0-1.9-1.5-1-2.4C39.9,38.4,41.4,39.1,41.4,40.3z"/>
	<path d="M46.3,36c-1.7-1.7-3.9-2.7-6.3-2.7c-0.2,0-0.3,0-0.5,0V15.5c0-1.4-1.1-2.5-2.5-2.5h-3.2c-1.4,0-2.5,1.1-2.5,2.5l0,24.2
		c-0.2,0.7-0.3,1.3-0.4,2.1l-3.5,0.1V27.9c0-1.4-1.1-2.5-2.5-2.5h-3.2c-1.4,0-2.5,1.1-2.5,2.5v14.1L15.6,42v-6.7
		c0-1.4-1.1-2.5-2.5-2.5H10c-1.4,0-2.5,1.1-2.5,2.5v6.8l-2.9,0.1c-0.6,0-0.9,0.5-0.9,0.9c0,0.4,0.3,0.9,0.9,0.9l26.4-0.5
		c0.6,4.5,4.4,7.9,8.9,7.9c4.9,0,9-4,9-9C48.9,40,48,37.7,46.3,36z M13.8,41.6H9.3v-6.2c0-0.4,0.3-0.7,0.7-0.7h3.2
		c0.4,0,0.7,0.3,0.7,0.7V41.6z M25.8,41.6h-4.5V27.9c0-0.4,0.3-0.7,0.7-0.7h3.2c0.4,0,0.7,0.3,0.7,0.7V41.6z M33.2,15.5
		c0-0.4,0.3-0.7,0.7-0.7H37c0.4,0,0.7,0.3,0.7,0.7v18.2c-1.8,0.5-3.3,1.5-4.5,2.8V15.5z M39.9,49.6c-4,0-7.2-3.2-7.2-7.2
		c0-4,3.2-7.2,7.2-7.2c4,0,7.2,3.2,7.2,7.2C47.1,46.4,43.9,49.6,39.9,49.6z"/>
</g>
</svg>
