<?xml version="1.0" encoding="utf-8"?>
<!-- Generator: Adobe Illustrator 25.0.0, SVG Export Plug-In . SVG Version: 6.00 Build 0)  -->
<svg version="1.1" id="Layer_1" xmlns="http://www.w3.org/2000/svg" xmlns:xlink="http://www.w3.org/1999/xlink" x="0px" y="0px"
	 viewBox="0 0 138.85 111" style="enable-background:new 0 0 138.85 111;" xml:space="preserve">
<style type="text/css">
	.st0{fill:#00B0FB;}
	.st1{fill:#00B0FB;fill-opacity:0.4;}
	.st2{fill:#FFFFFF;}
	.st3{fill:#185AE9;}
	.st4{fill:#3C7CFF;}
	.st5{fill:#001135;}
	.st6{fill:none;}
	.st7{fill:#DBDBDB;}
	.st8{fill:#FDFDFD;}
</style>
<g>
	<path class="st0" d="M3.96,107.54V34.95c0-0.28,0.23-0.5,0.5-0.5h4.03v-1.61H1.01c0,0.04-0.01,0.08-0.01,0.12v76.56
		c0,0.04,0.01,0.07,0.01,0.1h16.38v-1.58H4.46C4.19,108.04,3.96,107.82,3.96,107.54z"/>
	<path class="st1" d="M33.76,56.46h12.6c0.14,0,0.28-0.06,0.38-0.17c0.1-0.11,0.14-0.25,0.12-0.4c-0.91-6.76-6.27-12.12-13.03-13.03
		c-0.02,0-0.04,0-0.07,0c-0.12,0-0.24,0.04-0.33,0.12c-0.11,0.09-0.17,0.23-0.17,0.38v12.6C33.26,56.24,33.49,56.46,33.76,56.46z"/>
	<path class="st0" d="M135.38,2.96H34.68c-0.28,0-0.5,0.22-0.5,0.5v11.78c0,0.28,0.22,0.5,0.5,0.5h87.07c0.82,0,1.48,0.67,1.48,1.48
		v58.83c0,0.28,0.22,0.5,0.5,0.5h11.65c0.28,0,0.5-0.22,0.5-0.5V3.46C135.88,3.19,135.66,2.96,135.38,2.96z"/>
	<path class="st1" d="M31.78,73.16c7.58,0,14.06-5.66,15.08-13.17c0.02-0.14-0.02-0.29-0.12-0.4c-0.09-0.11-0.23-0.17-0.38-0.17
		H31.78c-0.82,0-1.48-0.67-1.48-1.48V43.36c0-0.14-0.06-0.28-0.17-0.38c-0.09-0.08-0.21-0.12-0.33-0.12c-0.02,0-0.04,0-0.07,0
		c-7.51,1.01-13.17,7.49-13.17,15.08C16.57,66.33,23.39,73.16,31.78,73.16z"/>
	<path class="st2" d="M96.25,85.21c0,0.82-0.67,1.48-1.48,1.48H12.54c-0.82,0-1.49-0.66-1.49-1.48c0-0.81,0.67-1.48,1.49-1.48h82.23
		C95.58,83.73,96.25,84.4,96.25,85.21z"/>
	<path class="st2" d="M31.78,39.76c-10.02,0-18.18,8.16-18.18,18.18c0,10.02,8.16,18.18,18.18,18.18c10.02,0,18.18-8.16,18.18-18.18
		C49.96,47.92,41.8,39.76,31.78,39.76z M33.26,43.36c0-0.14,0.06-0.28,0.17-0.38c0.09-0.08,0.21-0.12,0.33-0.12
		c0.02,0,0.05,0,0.07,0.01c6.76,0.91,12.12,6.26,13.03,13.02c0.02,0.15-0.03,0.29-0.12,0.4c-0.1,0.11-0.23,0.17-0.38,0.17h-12.6
		c-0.27,0-0.5-0.22-0.5-0.5V43.36z M31.78,73.16c-8.39,0-15.21-6.83-15.21-15.22c0-7.58,5.66-14.06,13.16-15.07
		c0.02-0.01,0.05-0.01,0.07-0.01c0.12,0,0.24,0.04,0.33,0.12c0.11,0.1,0.17,0.24,0.17,0.38v14.58c0,0.82,0.66,1.48,1.48,1.48h14.58
		c0.15,0,0.28,0.07,0.38,0.17c0.09,0.11,0.14,0.26,0.12,0.4C45.84,67.5,39.36,73.16,31.78,73.16z"/>
	<path class="st2" d="M137.36,0H32.7c-0.82,0-1.48,0.67-1.48,1.48v13.76c0,0.28-0.22,0.5-0.5,0.5H17.09c-0.82,0-1.48,0.67-1.48,1.48
		v13.76c0,0.28-0.22,0.5-0.5,0.5H1.48C0.66,31.48,0,32.15,0,32.96v76.56c0,0.82,0.66,1.48,1.48,1.48h104.66
		c0.82,0,1.49-0.66,1.49-1.48V95.76c0-0.27,0.22-0.5,0.5-0.5h13.62c0.82,0,1.49-0.66,1.49-1.48V80.02c0-0.27,0.22-0.5,0.5-0.5h13.62
		c0.82,0,1.49-0.66,1.49-1.48V1.48C138.85,0.67,138.18,0,137.36,0z M104.66,107.54c0,0.28-0.22,0.5-0.5,0.5H3.46
		c-0.27,0-0.5-0.22-0.5-0.5V34.95c0-0.28,0.23-0.5,0.5-0.5h100.7c0.28,0,0.5,0.22,0.5,0.5V107.54z M120.27,91.8
		c0,0.28-0.22,0.5-0.5,0.5h-11.64c-0.28,0-0.5-0.22-0.5-0.5V32.96c0-0.81-0.67-1.48-1.49-1.48H19.07c-0.27,0-0.5-0.22-0.5-0.5V19.21
		c0-0.28,0.23-0.5,0.5-0.5h100.7c0.28,0,0.5,0.22,0.5,0.5V91.8z M135.88,76.06c0,0.27-0.22,0.5-0.5,0.5h-11.64
		c-0.28,0-0.5-0.23-0.5-0.5V17.22c0-0.81-0.67-1.48-1.49-1.48H34.68c-0.27,0-0.5-0.22-0.5-0.5V3.46c0-0.27,0.23-0.5,0.5-0.5h100.7
		c0.28,0,0.5,0.23,0.5,0.5V76.06z"/>
	<path class="st2" d="M96.25,95.79c0,0.82-0.67,1.48-1.48,1.48H12.54c-0.82,0-1.49-0.66-1.49-1.48s0.67-1.48,1.49-1.48h82.23
		C95.58,94.31,96.25,94.97,96.25,95.79z"/>
	<path class="st2" d="M96.25,42.91c0,0.82-0.67,1.48-1.48,1.48H58.46c-0.82,0-1.49-0.66-1.49-1.48c0-0.82,0.67-1.48,1.49-1.48h36.31
		C95.58,41.43,96.25,42.09,96.25,42.91z"/>
	<path class="st2" d="M96.25,53.49c0,0.81-0.67,1.48-1.48,1.48H58.46c-0.82,0-1.49-0.67-1.49-1.48c0-0.82,0.67-1.49,1.49-1.49h36.31
		C95.58,52,96.25,52.67,96.25,53.49z"/>
	<path class="st2" d="M96.25,74.64c0,0.81-0.67,1.48-1.48,1.48H58.46c-0.82,0-1.49-0.67-1.49-1.48c0-0.82,0.67-1.48,1.49-1.48h36.31
		C95.58,73.16,96.25,73.82,96.25,74.64z"/>
	<path class="st2" d="M96.25,64.06c0,0.82-0.67,1.48-1.48,1.48H58.46c-0.82,0-1.49-0.66-1.49-1.48c0-0.81,0.67-1.48,1.49-1.48h36.31
		C95.58,62.58,96.25,63.25,96.25,64.06z"/>
</g>
</svg>
