<?xml version="1.0" encoding="utf-8"?>
<!-- Generator: Adobe Illustrator 25.0.0, SVG Export Plug-In . SVG Version: 6.00 Build 0)  -->
<svg version="1.1" id="Layer_1" xmlns="http://www.w3.org/2000/svg" xmlns:xlink="http://www.w3.org/1999/xlink" x="0px" y="0px"
	 viewBox="0 0 122.34 109" style="enable-background:new 0 0 122.34 109;" xml:space="preserve">
<style type="text/css">
	.st0{fill:#00B0FB;}
	.st1{fill:#00B0FB;fill-opacity:0.4;}
	.st2{fill:#FFFFFF;}
	.st3{fill:#185AE9;}
	.st4{fill:#3C7CFF;}
	.st5{fill:#001135;}
	.st6{fill:none;}
	.st7{fill:#DBDBDB;}
	.st8{fill:#FDFDFD;}
</style>
<g>
	<path class="st0" d="M118.46,32.7v54.82c0,0.65-0.42,1.23-1.02,1.42c-0.15,0.05-0.31,0.08-0.48,0.08c-0.13,0-0.25-0.02-0.37-0.05
		c0.03,0.39,0.06,0.78,0.06,1.17c0,0.1-0.02,0.2-0.02,0.3c0.06,0,0.11-0.01,0.17-0.01c1.58,0,3.11,0.29,4.54,0.79V30.31h-7.17v0.89
		h2.79C117.79,31.2,118.46,31.87,118.46,32.7z"/>
	<path class="st0" d="M52.38,43.41L52.38,43.41c-4.45,0-8.07,3.63-8.07,8.07c0,4.45,3.62,8.08,8.07,8.08s8.07-3.62,8.07-8.07
		S56.83,43.41,52.38,43.41z"/>
	<path class="st0" d="M85.62,50.05c-0.28-0.39-0.73-0.62-1.22-0.62c-0.48,0-0.93,0.23-1.21,0.62L54.27,90.25
		c-0.37,0.51-0.38,1.21-0.02,1.73l9.38,13.51c0.28,0.4,0.74,0.64,1.23,0.64h47.47c3.93,0,7.13-3.2,7.13-7.13v-1.42
		c0-0.31-0.1-0.61-0.28-0.87L85.62,50.05z"/>
	<path class="st0" d="M51.35,92.84L33.69,68.29c-0.29-0.39-0.74-0.62-1.22-0.62c-0.48,0-0.94,0.23-1.22,0.62L6.2,103.12
		c-0.25,0.35-0.34,0.8-0.24,1.22c0.1,0.43,0.38,0.79,0.77,0.99c1,0.52,2.14,0.8,3.27,0.8h47.71c0.56,0,1.07-0.31,1.33-0.81
		c0.26-0.49,0.22-1.08-0.1-1.54L51.35,92.84z"/>
	<path class="st1" d="M112.33,2.88H10c-3.93,0-7.12,3.2-7.13,7.13v16.82c0,0.82,0.68,1.5,1.5,1.5h113.59c0.83,0,1.5-0.68,1.5-1.5
		V10.01C119.46,6.08,116.26,2.88,112.33,2.88z M47.06,17.04H16.41c-0.79,0-1.44-0.65-1.44-1.44c0-0.79,0.65-1.44,1.44-1.44h30.65
		c0.79,0,1.44,0.65,1.44,1.44C48.5,16.39,47.85,17.04,47.06,17.04z"/>
	<path class="st2" d="M112.33,0H10.01C4.49,0.01,0,4.5,0,10.01v88.98C0,104.51,4.49,109,10,109h102.33c5.51,0,10-4.49,10.01-10
		V10.01C122.33,4.5,117.84,0.01,112.33,0z M59.04,105.32c-0.26,0.5-0.77,0.81-1.33,0.81H10c-1.13,0-2.26-0.28-3.27-0.8
		c-0.39-0.2-0.67-0.56-0.77-0.99c-0.1-0.42-0.01-0.87,0.24-1.22L31.26,68.3c0.28-0.4,0.73-0.63,1.22-0.63
		c0.47,0,0.93,0.23,1.21,0.62l17.66,24.55l7.59,10.93C59.26,104.23,59.3,104.83,59.04,105.32z M119.46,99c0,3.92-3.2,7.12-7.13,7.13
		H64.86c-0.49,0-0.95-0.24-1.23-0.65l-9.38-13.51c-0.36-0.52-0.35-1.21,0.02-1.72l28.91-40.21c0.29-0.38,0.74-0.62,1.22-0.62
		s0.94,0.24,1.22,0.63l33.56,46.66c0.18,0.26,0.28,0.56,0.28,0.87V99z M119.46,87.52c0,0.65-0.42,1.23-1.02,1.42
		c-0.15,0.05-0.31,0.08-0.48,0.08c-0.48,0-0.94-0.23-1.22-0.63L87.76,48.1c-0.78-1.08-2.03-1.72-3.36-1.72
		c-0.88,0-1.71,0.27-2.42,0.78c-0.36,0.26-0.68,0.58-0.94,0.94L53.09,86.95c-0.28,0.39-0.73,0.63-1.22,0.63
		c-0.47,0-0.93-0.23-1.21-0.63l-14.83-20.6c-0.77-1.08-2.03-1.72-3.36-1.72c-0.87,0-1.7,0.27-2.41,0.77
		c-0.36,0.27-0.68,0.58-0.94,0.95L5.59,99.05c-0.28,0.39-0.74,0.62-1.22,0.62c-0.16,0-0.32-0.02-0.46-0.07
		c-0.62-0.2-1.04-0.77-1.04-1.43V32.7c0-0.83,0.68-1.5,1.5-1.5h113.59c0.83,0,1.5,0.67,1.5,1.5V87.52z M119.46,26.83
		c0,0.82-0.67,1.5-1.5,1.5H4.37c-0.82,0-1.5-0.68-1.5-1.5V10.01C2.88,6.08,6.07,2.88,10,2.88h102.33c3.93,0,7.13,3.2,7.13,7.13
		V26.83z"/>
	<path class="st2" d="M52.38,40.53c-6.04,0-10.95,4.92-10.95,10.95c0.01,6.03,4.92,10.95,10.95,10.95c6.04,0,10.95-4.91,10.95-10.95
		C63.33,45.45,58.42,40.53,52.38,40.53z M52.38,59.56c-4.45,0-8.07-3.62-8.07-8.08c0-4.44,3.62-8.07,8.07-8.07
		c0.17,0,0.35,0.01,0.52,0.02c0.18,0.01,0.35,0.03,0.53,0.05s0.35,0.05,0.52,0.08c0.35,0.07,0.68,0.16,1.01,0.27
		c0.02,0.01,0.04,0.02,0.06,0.02c0.05,0.02,0.09,0.04,0.14,0.05c0.08,0.03,0.16,0.07,0.24,0.1c0.09,0.03,0.17,0.07,0.24,0.1
		c0.08,0.03,0.16,0.06,0.24,0.11c0.12,0.05,0.24,0.11,0.35,0.17c0.23,0.13,0.45,0.26,0.66,0.41c0.01,0,0.01,0,0.01,0
		c0.21,0.15,0.42,0.3,0.62,0.47c0.2,0.16,0.39,0.34,0.57,0.52c0.18,0.18,0.36,0.37,0.52,0.57c0.33,0.4,0.62,0.83,0.87,1.29
		c0.12,0.23,0.24,0.46,0.34,0.7c0.05,0.12,0.1,0.24,0.15,0.37c0.09,0.24,0.17,0.5,0.23,0.75c0.04,0.16,0.08,0.32,0.11,0.49
		c0.03,0.16,0.06,0.33,0.08,0.5c0.02,0.09,0.03,0.18,0.03,0.26c0.01,0.08,0.01,0.16,0.02,0.25c0.01,0.17,0.02,0.35,0.02,0.52
		C60.46,55.94,56.83,59.56,52.38,59.56z"/>
	<path class="st2" d="M47.06,14.16H16.41c-0.79,0-1.44,0.64-1.44,1.44s0.64,1.44,1.44,1.44h30.65c0.79,0,1.44-0.64,1.44-1.44
		S47.85,14.16,47.06,14.16z"/>
</g>
</svg>
