<?xml version="1.0" encoding="utf-8"?>
<!-- Generator: Adobe Illustrator 25.0.0, SVG Export Plug-In . SVG Version: 6.00 Build 0)  -->
<svg version="1.1" id="Layer_1" xmlns="http://www.w3.org/2000/svg" xmlns:xlink="http://www.w3.org/1999/xlink" x="0px" y="0px"
	 viewBox="0 0 96.45 96.58" style="enable-background:new 0 0 96.45 96.58;" xml:space="preserve">
<style type="text/css">
	.st0{fill:#FFFFFF;}
	.st1{fill:#001135;}
	.st2{fill:#3C7CFF;}
	.st3{fill:#185AE9;}
	.st4{fill:#00B0FB;}
	.st5{fill:#00D8FF;}
	.st6{fill:#B3B3B3;}
	.st7{fill:#A6120D;}
	.st8{fill:#DD1B16;}
	.st9{fill:#F2F2F2;}
	.st10{fill:#4DBA87;}
	.st11{fill:#425466;}
	.st12{fill-rule:evenodd;clip-rule:evenodd;fill:#7FC728;}
	.st13{fill:url(#SVGID_1_);}
	.st14{fill:url(#SVGID_2_);}
	.st15{fill:#14559A;}
	.st16{fill:url(#SVGID_3_);}
	.st17{fill:#3092C4;}
	.st18{fill:#1969BC;}
	.st19{fill:url(#SVGID_4_);}
	.st20{fill:url(#SVGID_5_);}
	.st21{fill:url(#SVGID_6_);}
	.st22{fill:#2B74B1;}
	.st23{fill:#125A9E;}
	.st24{fill:url(#SVGID_7_);}
	.st25{fill:url(#SVGID_8_);}
	.st26{fill:#0D82CA;}
	.st27{fill:url(#SVGID_9_);}
	.st28{fill:#127BCA;}
	.st29{fill:url(#SVGID_10_);}
	.st30{fill:url(#SVGID_11_);}
	.st31{fill:#05A1E6;}
	.st32{fill:url(#SVGID_12_);}
	.st33{fill:url(#SVGID_13_);}
	.st34{fill:url(#SVGID_14_);}
	.st35{fill:#079AE1;}
	.st36{fill:#1E5CB3;}
	.st37{fill:#1D60B5;}
	.st38{fill:#175FAB;}
	.st39{fill:url(#SVGID_15_);}
	.st40{fill:#7DCBEC;}
	.st41{fill:#5EC5ED;}
	.st42{fill:url(#SVGID_16_);}
	.st43{fill:url(#SVGID_17_);}
	.st44{fill:url(#SVGID_18_);}
	.st45{fill:#6EB341;}
	.st46{fill:#F6F6F6;}
	.st47{fill:none;}
</style>
<g>
	<path class="st4" d="M55.77,49.49c-0.9,0.98-1.75,2.01-2.72,2.92c-0.41,0.38-1.08,0.72-1.6,0.69c-1.95-0.14-3.91-0.35-5.81-0.75
		c-0.56-0.11-1.27-0.89-1.39-1.47c-0.37-1.7-0.58-3.46-0.63-5.2c-0.02-0.77,0.33-1.69,0.83-2.29c0.79-0.97,1.84-1.73,3.01-2.78
		c-5.93-0.77-10.97,4.93-9.92,10.69c0.24,1.33-0.03,2.22-1.02,3.12c-2.23,2.05-4.36,4.19-6.5,6.25c2.08,2.06,3.93,3.9,5.93,5.89
		c2.09-2.14,4.24-4.27,6.31-6.49c0.86-0.92,1.69-1.19,2.98-0.98C51.17,60.08,56.57,55.38,55.77,49.49z"/>
	<path class="st4" d="M20.53,55.32c-1.4-1.38-2.5-2.68-1.78-4.79c0.14-0.42,0.05-0.92,0.02-1.39c-0.32-5.02-5.01-9.23-9.67-8.56
		c0.23,0.27,0.38,0.54,0.62,0.7c2.72,1.87,3.43,4.4,2.6,7.51c-0.21,0.79-0.15,1.66-0.41,2.42c-0.16,0.46-0.65,1.05-1.07,1.13
		c-3.76,0.69-7.67,1.83-10.27-2.43c-0.08-0.12-0.24-0.19-0.5-0.4c-0.55,5.88,5.02,10.62,11.1,9.55c1.04-0.18,1.75,0.01,2.49,0.75
		c7.71,7.74,15.43,15.47,23.18,23.18c0.75,0.74,0.86,1.49,0.78,2.49c-0.12,1.42-0.18,2.9,0.13,4.27c0.93,4.19,5.36,7.36,9.19,6.76
		c0-0.05,0.02-0.12,0-0.15c-0.09-0.13-0.17-0.28-0.29-0.36c-3.45-2.17-3.39-5.37-2.59-8.8c0.07-0.3,0.11-0.61,0.12-0.91
		c0.04-1.08,0.66-1.55,1.67-1.66c1.64-0.19,3.27-0.38,4.9-0.62c1.06-0.15,1.88,0.09,2.61,0.92c0.81,0.92,1.76,1.73,2.8,2.74
		c0.18-6.01-4.86-10.55-10.53-9.7c-1.54,0.23-2.57-0.11-3.67-1.22C34.87,69.56,27.73,62.41,20.53,55.32z"/>
	<path class="st4" d="M14.4,76.58c-1.16,1.28-2.34,1.62-4.06,1.37C4.81,77.16-0.19,81.8,0.01,87.47c0.21-0.06,0.33-0.06,0.4-0.12
		c0.26-0.24,0.55-0.47,0.76-0.76c1.64-2.31,3.78-3.11,6.54-2.34c0.94,0.26,1.97,0.17,2.89,0.47c0.53,0.17,1.21,0.74,1.3,1.23
		c0.36,1.92,0.59,3.87,0.69,5.82c0.03,0.62-0.35,1.37-0.77,1.87c-0.82,1-1.8,1.87-2.85,2.93c6.01,0.34,10.63-4.88,9.69-10.72
		c-0.23-1.38,0.04-2.32,1.08-3.26c2.2-1.99,4.29-4.11,6.39-6.14c-2.07-2.04-3.92-3.87-5.88-5.81C18.35,72.55,16.3,74.49,14.4,76.58z
		"/>
	<path class="st4" d="M92.7,30.84c-0.98,0-1.96-0.03-2.93,0.01c-1.13,0.05-1.63-0.48-1.95-1.54c-0.64-2.11-1.27-4.25-2.21-6.23
		c-1.98-4.19-2.09-4.19,1.24-7.43c0.82-0.8,1.09-1.62,1.08-2.72c-0.01-1.69-1.45-2.28-2.35-3.25c-1.43-1.57-3.11-1.5-4.63,0.01
		c-0.77,0.76-1.57,1.49-2.3,2.3c-0.84,0.93-1.62,0.91-2.71,0.31c-1.93-1.07-3.95-1.98-5.97-2.87c-1.33-0.59-3.26-0.67-3.95-1.65
		c-0.72-1.03-0.19-2.88-0.36-4.36c-0.1-0.8-0.41-1.62-0.81-2.33c-0.49-0.9-1.38-0.99-2.37-1.05c-4.39-0.26-5.42,0.83-5.12,5.19
		c0.04,0.52-0.01,1.03,0.01,1.55c0.04,1.11-0.53,1.62-1.58,1.94c-2.11,0.64-4.25,1.26-6.23,2.2c-4.21,1.99-4.17,2.07-7.55-1.3
		c-1.42-1.42-3.15-1.42-4.56-0.01c-0.41,0.4-0.81,0.8-1.21,1.2c-1.63,1.66-1.63,3.25,0.01,4.89c0.73,0.72,1.43,1.49,2.19,2.18
		c0.94,0.84,0.93,1.64,0.33,2.73c-1.03,1.89-1.93,3.85-2.81,5.82c-0.61,1.38-0.69,3.41-1.71,4.07c-1.15,0.75-3.09,0.21-4.67,0.38
		c-0.69,0.07-1.42,0.41-2.02,0.81c-1.63,1.06-0.93,2.78-0.99,4.24c-0.08,2.16,1.09,3.26,3.27,3.27c1.13,0,2.27,0.03,3.4-0.01
		c1.12-0.03,1.7,0.47,1.94,1.55c0.21,1.01,0.54,1.98,0.77,2.8c1.59-1.44,3.01-2.85,4.58-4.05c0.7-0.54,0.83-0.92,0.7-1.74
		c-2.22-14.64,12.55-26.93,26.6-22.16c10.3,3.5,15.9,13.68,13.46,24.47c-2.21,9.82-12.15,16.51-22.58,15.22
		c-0.39-0.04-0.96,0.08-1.19,0.34c-1.45,1.63-2.82,3.32-4.17,4.93c1.15,0.51,3.04,0.75,3.67,1.77c0.71,1.14,0.27,2.98,0.32,4.52
		c0.01,0.06-0.01,0.11,0.01,0.16c0.27,0.68,0.44,1.42,0.84,2.02c1.03,1.58,2.68,0.92,4.1,0.97c2.27,0.08,3.37-1.07,3.38-3.31
		c0-1.04,0.04-2.07-0.01-3.1c-0.07-1.28,0.48-1.84,1.73-2.28c2.9-1.02,5.73-2.23,8.52-3.52c1.09-0.51,1.88-0.64,2.73,0.3
		c0.8,0.87,1.67,1.68,2.52,2.51c1.21,1.18,3.03,1.21,4.21,0.05c0.48-0.46,0.96-0.94,1.43-1.41c1.59-1.6,1.6-3.21,0.04-4.77
		c-0.76-0.77-1.5-1.57-2.3-2.29c-0.94-0.86-0.86-1.67-0.29-2.74c1.05-1.94,1.97-3.95,2.87-5.97c0.59-1.33,0.68-3.25,1.67-3.94
		c1.03-0.71,2.88-0.36,4.36-0.29c1.15,0.05,2.19-0.21,2.61-1.2c0.46-1.06,0.65-2.29,0.69-3.46C96.54,31.83,95.49,30.84,92.7,30.84z"
		/>
	<path class="st4" d="M47.02,44.61c-0.29,0.32-0.65,0.77-0.63,1.15c0.04,1.37,0.23,2.73,0.36,4.09c0.65,0.07,1.13,0.05,1.56,0.18
		c2.13,0.64,3.77,0.04,5.09-1.75c0.57-0.78,1.31-1.48,2.08-2.06c0.61-0.44,1.47-0.98,2.07-0.84c0.5,0.12,1.02,1.13,1.11,1.8
		c0.23,1.72,0.23,3.47,0.33,5.32c6.7,1.42,14.68-2.57,18.09-9.05c3.79-7.19,2.41-15.77-3.41-21.27c-5.75-5.43-14.49-6.43-21.16-2.41
		c-6.33,3.81-10.07,11.84-8.41,17.88c1.92,0.13,3.83,0.1,5.68,0.43c1.95,0.35,2.21,1.51,0.84,2.91
		C49.43,42.21,48.2,43.38,47.02,44.61z M76.07,33.85c0.94,0,1.7,0.76,1.7,1.7s-0.76,1.7-1.7,1.7c-0.94,0-1.7-0.76-1.7-1.7
		S75.13,33.85,76.07,33.85z M61.46,51.26c-0.94,0-1.7-0.76-1.7-1.7c0-0.94,0.76-1.7,1.7-1.7c0.94,0,1.7,0.76,1.7,1.7
		S62.4,51.26,61.46,51.26z M71.73,47.16c-0.94,0-1.7-0.76-1.7-1.7s0.76-1.7,1.7-1.7c0.94,0,1.7,0.76,1.7,1.7
		S72.67,47.16,71.73,47.16z M72.02,23.51c0.94,0,1.7,0.76,1.7,1.7s-0.76,1.7-1.7,1.7s-1.7-0.76-1.7-1.7S71.08,23.51,72.02,23.51z
		 M69.7,41.31c0.7,0.7,1.36,1.51,0.52,2.39c-0.92,0.96-1.74,0.24-2.48-0.5c-2.1-2.13-4.18-4.28-6.36-6.33
		c-0.95-0.89-1.35-1.85-1.26-3.13c0.09-1.23,0.02-2.47,0.02-3.71c0.01,0,0.01,0,0.01,0c0-1.55,0-3.09,0-4.64
		c0-0.9,0.37-1.53,1.34-1.53c0.97,0,1.34,0.63,1.34,1.53c0,2.63-0.05,5.26,0.04,7.89c0.02,0.69,0.36,1.5,0.83,2
		C65.65,37.34,67.69,39.32,69.7,41.31z M61.22,18.25c0.94,0,1.7,0.76,1.7,1.7c0,0.94-0.76,1.7-1.7,1.7c-0.94,0-1.7-0.76-1.7-1.7
		C59.52,19.01,60.28,18.25,61.22,18.25z M47,36.75c-0.94,0-1.7-0.76-1.7-1.7c0-0.94,0.76-1.7,1.7-1.7s1.7,0.76,1.7,1.7
		C48.7,35.98,47.93,36.75,47,36.75z M51.2,26.44c-0.94,0-1.7-0.76-1.7-1.7s0.76-1.7,1.7-1.7c0.94,0,1.7,0.76,1.7,1.7
		S52.14,26.44,51.2,26.44z M51.51,43.54c0.94,0,1.7,0.76,1.7,1.7c0,0.94-0.76,1.7-1.7,1.7s-1.7-0.76-1.7-1.7
		C49.81,44.3,50.57,43.54,51.51,43.54z"/>
</g>
</svg>
