<?xml version="1.0" encoding="utf-8"?>
<!-- Generator: Adobe Illustrator 24.3.0, SVG Export Plug-In . SVG Version: 6.00 Build 0)  -->
<svg version="1.1" id="Layer_1" xmlns="http://www.w3.org/2000/svg" xmlns:xlink="http://www.w3.org/1999/xlink" x="0px" y="0px"
	 width="564.3px" height="478px" viewBox="0 0 564.3 478" style="enable-background:new 0 0 564.3 478;" xml:space="preserve">
<style type="text/css">
	.st0{fill:#185AE9;}
	.st1{fill:#00B0FB;}
	.st2{fill-rule:evenodd;clip-rule:evenodd;fill:#00B0FB;}
	.st3{fill:#00B0FB;fill-opacity:0.4;}
	.st4{fill:#FFFFFF;}
	.st5{fill:none;}
	.st6{fill:#001135;}
	.st7{fill:#3C7CFF;}
	.st8{fill:#DBDBDB;}
	.st9{fill:#0A0A0A;}
	.st10{fill:#FEFDFE;}
	.st11{fill:#030302;}
	.st12{fill:#FCFCFC;}
	.st13{fill:#D2D3D3;}
	.st14{fill:#1F1F1F;}
	.st15{fill:#F6F6F6;}
	.st16{fill:#0E0D0E;}
	.st17{fill:#BABBBB;}
	.st18{fill:#8A8A8A;}
	.st19{fill:#8E8F8F;}
	.st20{fill:#464746;}
	.st21{fill:#5F5E5E;}
	.st22{fill:#0B0B0B;}
	.st23{fill:#090909;}
	.st24{fill:#151414;}
	.st25{fill:#101010;}
	.st26{fill:#282828;}
	.st27{fill-rule:evenodd;clip-rule:evenodd;}
</style>
<g>
	<g>
		<path class="st4" d="M256,126.1c1.1,2,3,2.9,5.2,3.1c7.3,0.5,14.7,1.2,22,1.6c3.9,0.2,7-2.8,7.3-6.8c0.4-4.8-2.1-8.3-6.8-9.2
			c-5.6-0.4-11.5-0.8-17.4-1.2c-4.6-0.3-9.3-0.3-13.9-1.5c-0.4-0.1-1,0-1.3-0.3c0.1,0.6,0.1,1.1,0.2,1.7c2.7,0.2,5.3,0.5,7.9,1.1
			c3,0.7,5.6,3.3,5.9,6.1c0.3,2-0.4,3.7-2.2,4.8c-1.9,1-3.7,0.9-5.2-0.6c-0.8-0.8-1.8-1.1-2.9-1.1c-1.3,0-2.6,0-3.9,0
			c-0.1,0.5-0.1,1-0.2,1.6c1-0.1,2-0.2,3-0.3C254.8,124.9,255.4,125.2,256,126.1z"/>
		<path class="st4" d="M156.7,109.6c-7.3,0.8-18.7,0-26,0.1c-3.7,0.1-7.4-0.1-11,0c-3.5,0-6.6,2.2-7.8,5.5c-1.2,3.5-0.6,6.7,1.9,9.4
			c1.8,2,4.3,2.1,6.7,2.1c6.9,0.1,17.8,0.1,24.7,0.1c2.4,0,4.6-0.6,6-2.9c0.5-0.8,1.4-0.9,2.2-0.8c1.2,0.1,2.4,0.1,3.6,0.2
			c0.1,0,0.3,0,0.4,0.1c-0.1-0.5-0.1-1-0.2-1.5c-1.4-0.1-2.8-0.1-4.3-0.3c-1.7-0.1-3.2-0.1-4.5,1.3c-0.7,0.8-1.8,0.7-2.7,0.6
			c-3.2-0.5-5-3.8-3.8-6.7c0.7-1.7,1.9-2.9,3.5-3.7c3.7-2,7.9-2,11.9-2.1c0.1-0.5,0.1-1,0.2-1.5
			C157.2,109.6,156.9,109.6,156.7,109.6z"/>
		<path class="st4" d="M119.3,274.5c0-4.6,0-9.3,0-13.9c0-1.5-0.6-2.2-2.1-2.2c-3.6,0-7.1,0-10.7,0c-1.6,0-2.1,0.6-2.1,2.2
			c0,9.1,0,18.3-0.1,27.4c0,1.6,0.6,2.1,2.2,2.1c3.5-0.1,7-0.1,10.5,0c1.9,0.1,2.4-0.7,2.4-2.5C119.2,283.2,119.3,278.8,119.3,274.5
			z"/>
		<path class="st4" d="M145.7,277.5C145.7,277.5,145.7,277.5,145.7,277.5c0-3.6-0.1-7.3,0-10.9c0-1.4-0.5-2.1-2-2
			c-3.6,0.1-7.3,0.1-10.9,0c-1.5,0-2,0.6-2.1,2c-0.4,7.1-0.1,14.3-0.3,21.4c0,1.6,0.6,2.1,2.1,2.1c3.6-0.1,7.3-0.1,10.9,0
			c1.7,0.1,2.2-0.7,2.2-2.3C145.7,284.3,145.7,280.9,145.7,277.5z"/>
		<path class="st4" d="M187.5,80h11.6c3.7-0.6,7.3-0.6,11,0h10.7c-2.8-1.2-5.9-2.2-9.1-2.8C202.9,75.6,194.6,76.8,187.5,80z"/>
		<path class="st4" d="M225.8,86.3c0.6,0.4,1.2,0.9,1.8,1.4c0.6,0.6,1,1.4,0.3,2.2c-0.7,0.8-1.4,0.7-2.2,0.1
			c-1.8-1.3-3.7-2.6-5.7-3.6c-3.1-1.6-6.4-2.6-9.8-3.3c-10.6-1.7-19.9,1-28.2,7.8c-0.4,0.3-0.8,0.7-1.2,1c-0.8,0.7-1.6,0.7-2.4-0.2
			c-0.7-0.8-0.4-1.6,0.3-2.2c2.5-2.3,5.3-4.3,8.3-5.7c4-2,8.1-3.2,12-3.9h-11.6c-12.3,5.5-21.3,17-23.6,30
			c-3.9,21.8,10.9,43.2,32.7,47.2c23.7,4.3,44.4-11.6,47.7-32.5c3.8-17.9-5.8-37-23.5-44.7H210C215.3,80.9,220.6,82.9,225.8,86.3z
			 M166.9,117.8c-0.1-0.9-0.2-1.8-0.2-2.7c0.1-4.6,1.2-5.8,5.7-5.7c5.8,0,11.6,0,16.9,0.5c3.5,0.7,6.3,1.8,8.1,4.4
			c2.7,3.7,1.3,8.2-2.8,8.9c-1.1,0.2-2.3,0.2-3-0.5c-1.9-1.9-4.2-1.7-6.5-1.6c-4.7,0.1-9.3,0.2-14,0.3
			C168.3,121.3,167.4,120.6,166.9,117.8z M202.5,153.2c-0.2,1.1-1.1,1.3-2.1,1.2c-1-0.1-1.9-0.3-2.9-0.5
			c-10.4-2.2-18.6-7.8-24.6-16.6c-0.5-0.7-0.9-1.6-1.3-2.4c-0.3-0.7-0.3-1.3,0.4-1.8c0.7-0.5,1.4-0.5,2,0.2c0.3,0.3,0.5,0.7,0.8,1.1
			c5.7,9.6,14.2,15,25.2,16.8c0.3,0,0.6,0.1,0.9,0.1C201.9,151.6,202.7,152,202.5,153.2z M237.9,118.7c-0.1,9.7-7.8,17.4-17.4,17.3
			c-8.4-0.1-16.8-0.4-25.3-0.6c-1.1,0-2.1-0.1-2.9-0.4c-6.1-1.2-10-4.8-12.4-10.1c-0.8-1.7-0.5-2.5,1.6-2.4c1,0.1,2.1,0,3.2-0.2
			c2.1-0.3,3.7,0.2,4.8,2.3c1,1.8,2.9,2.5,5,2.6c8.8,0.2,17.6,0.3,26.4,0.4c4.6,0,8-3.7,8.1-8.5c0.1-5.5-3.3-9.4-8.6-9.6
			c-5.1-0.2-10.2-0.2-15.3-0.4c-7-0.3-14,0.3-20.9-1.3c-0.5-0.1-1.2-0.1-1.4-0.4c-0.4-0.6,0.3-1.1,0.7-1.5c3.5-3.6,8-5.1,12.9-5.1
			c8.2,0,16.4,0.2,24.6,0.4C230.5,101.4,238,109.2,237.9,118.7z"/>
		<path class="st4" d="M273.1,195.5c0.6,0.6,1.3,0.9,2,0.3c0.8-0.6,0.4-1.4-0.1-2c-0.2-0.3-0.5-0.6-0.7-0.8
			c-5.9-7-11.7-13.9-17.6-20.9H253c5.8,6.8,11.6,13.6,17.4,20.4C271.3,193.5,272.2,194.5,273.1,195.5z"/>
		<path class="st4" d="M254.1,169c-0.4-0.5-0.8-0.9-1.5-1.1c-0.5,0-0.9,0.2-1.2,0.7c-0.4,0.9,0,1.5,0.6,2.2c0.3,0.4,0.7,0.8,1,1.2
			h3.6C255.8,171,255,170,254.1,169z"/>
		<path d="M212.8,290c-2.5,0-5,0-7.5,0c-2.8,0-2.8,0-2.8-2.9c0-1.7,0-3.4,0-5.1c0-18.8,0-37.6,0-56.3c0-3.3,0-3.3-3.4-3.3
			c-5.1,0-10.1,0-15.2,0c-3.1,0-3.1,0-3.1,3.1c0,20,0,40,0,60c0,0.9,0,1.7,0,2.6c0,1.5-0.6,2-2.1,2c-2.6,0-2.8,0-2.8-2.7
			c0-15.9,0-31.7,0-47.6c0-2.8-0.1-2.9-2.9-2.9c-5.5,0-11,0.1-16.5,0c-1.9,0-2.4,0.6-2.4,2.5c0.1,15.9,0.1,31.7,0.1,47.6
			c0,1.7,0,3.2-2.6,3.2c-2.7,0-2.3-1.6-2.3-3.2c0-7.6,0-15.1,0-22.7c0-2.9-0.3-3.2-3.2-3.2c-5.2,0-10.4,0-15.6,0
			c-3.2,0-3.5,0.3-3.5,3.6c0,7.8,0,15.6,0,23.4c0,1.2-0.1,2.1-1.7,2.2c-1.5,0.1-2.3-0.4-2.4-2c0-1.5-0.1-3-0.1-4.5
			c0.1-8.6,0.2-17.3,0.2-25.9c0-2.8-0.5-3.2-3.3-3c-1.8,0.2-3.6,0.1-5.3,0.1c-3.8-0.1-7.7,0-11.5,0c-1.5,0-2.2,0.7-2.3,2.4
			c-0.2,3.7-0.2,7.4-0.2,11.1c0,6.5,0,13,0,19.5c0,1.7-0.5,2.5-2.4,2.3c-1.9-0.2-1.4-1.5-1.4-2.5c0-15,0-30,0-45
			c0-2.8-0.1-2.9-2.8-2.9c-5.2,0-10.4,0.1-15.6,0c-2.2,0-2.8,0.7-2.8,2.9c0.1,13.3,0,26.6,0,39.9c0,2,0,4,0,6c0,1.3-0.5,1.7-1.8,1.8
			c-1.8,0.1-2.4-0.6-2.3-2.3c0.1-8.9,0-17.7,0.1-26.6c0-2.1-0.5-2.9-2.7-2.9c-5.2,0.1-10.4,0.1-15.6,0c-2.2-0.1-2.8,0.8-2.8,2.9
			c0.1,7.9,0,15.7,0,23.6c0,5.3,0,5.3-5.3,5.3c-3.1,0-3.1,0-3.1-3c0-25.2,0-50.4,0-75.6c0-1.1,0-2.3,0-3.4c-0.1-1.7-1.1-2.4-2.7-1.9
			c-1.5,0.5-0.9,1.8-0.9,2.7c0,25.9,0,51.9,0,77.8c0,0.6,0,1.1,0,1.7c0.1,1.3-0.5,1.8-1.8,1.8c-1.6,0-3.3,0-4.9,0
			c-1.1,0-1.4,0.7-1.4,1.7c0,1,0.1,1.9,1.4,1.9c1.1,0,2.3,0,3.4,0c29.3,0,58.6,0,87.8,0c0,0,0,0,0,0c6.6,0,13.3,0,19.9,0
			c23.4,0,46.7,0,70.1,0c1.3,0,2.9,0.3,2.9-1.8C215.7,289.7,214.1,290,212.8,290z M116.9,290c-3.5-0.1-7-0.1-10.5,0
			c-1.6,0-2.2-0.5-2.2-2.1c0.1-9.1,0.1-18.3,0.1-27.4c0-1.6,0.6-2.2,2.1-2.2c3.6,0.1,7.1,0.1,10.7,0c1.6,0,2.2,0.6,2.1,2.2
			c0,4.6,0,9.3,0,13.9c0,4.4-0.1,8.7,0,13.1C119.3,289.3,118.8,290.1,116.9,290z M143.6,290c-3.6-0.1-7.3-0.1-10.9,0
			c-1.6,0-2.2-0.5-2.1-2.1c0.1-7.1-0.2-14.3,0.3-21.4c0.1-1.5,0.6-2,2.1-2c3.6,0.1,7.3,0.1,10.9,0c1.5,0,2,0.6,2,2
			c-0.1,3.6,0,7.3,0,10.9c0,0,0,0,0,0c0,3.4-0.1,6.9,0,10.3C145.8,289.4,145.3,290.1,143.6,290z"/>
		<path d="M79,222.3c-0.4,1.9-1.5,2.7-3.1,3.5c-9.5,4.7-18.9,9.4-28.4,14.1c-1.9,0.9-2.2,2.2-0.8,3.4c1,0.9,1.9,0.1,2.7-0.3
			c9.6-4.7,19.1-9.4,28.6-14.1c1.2-0.6,2.2-0.8,3.6,0c2.1,1.1,4.3,0.9,6.2-0.7c0.8-0.7,1.4-0.9,2.5-0.5c9.1,3.1,18.3,6.2,27.4,9.2
			c1.3,0.4,2.3,1,2.9,2.5c1,2.3,3.3,3.5,5.5,3.3c2.7-0.3,4.4-1.8,4.9-4.6c0.3-1.4,0.9-2.3,2.1-3c10.8-6.2,21.6-12.5,32.4-18.8
			c1.8-1,3.5-2.2,5.7-0.7c0.4,0.3,1,0.2,1.1,0.2c1.9,0.1,3.5-0.3,4.2-1.5c1.5-2.6,3.8-2.9,6.3-3c1.6-0.1,3.1-0.4,4.7-0.6
			c7.5-0.9,15-1.7,22.5-2.6c1.2-0.1,2.2-0.4,2.1-1.8c0-1.6-0.9-2.1-2.4-1.9c-9.4,1.1-18.8,2.2-28.3,3.3c-1.9,0.2-3.6,0.3-5.2-1.3
			c-3.2-3.1-8.3-1.3-9,3.1c-0.2,1.5-0.9,2.3-2.1,2.9c-2.7,1.4-5.4,3-8,4.5c-8.8,5.1-17.5,10.2-26.2,15.4c-1,0.6-1.9,0.7-3,0.1
			c-1.8-1-3.9-1-5.4,0.4c-1.5,1.3-2.8,1-4.3,0.5c-8.9-3-17.7-6-26.6-9c-1.2-0.4-1.9-1-2.3-2.2c-0.8-2.1-3.1-3.5-5.2-3.5
			C81.9,218.6,79.4,220.2,79,222.3z"/>
		<path d="M93.3,54c15.4-6.6,29.3-15.3,40.8-27.6c0.9-0.9,1.5-0.9,2.4-0.1c1.9,1.5,3.9,2.9,5.9,4.3c0.5,0.3,0.9,0.9,1.5,0.6
			c0.7-0.3,0.5-1.1,0.6-1.7c0.4-6.5,0.6-13,0.7-19.5c0-2.8,0-5.6,0-8.4c0-1.7-0.4-1.9-1.9-1.3c-3.3,1.3-6.6,2.6-9.8,4
			c-4.8,2-9.5,4.1-14.3,6.1c-1.7,0.7-1.8,1.4-0.4,2.4c1.4,1.1,2.9,2.2,4.3,3.2c1.1,0.7,1.3,1.4,0.4,2.5c-4.6,5.9-9.6,11.4-15.4,16.2
			c-13,10.8-27.8,18-44,22.6C47.8,62,31,64,14.1,65c-4.2,0.2-8.3,0.4-12.5,0.6c-1.3,0.1-1.7,0.7-1.6,1.9c0.1,1.3,1.1,1.4,2.1,1.4
			c3.7,0,7.4-0.1,11.1-0.2c11.1-0.2,22.2-1.1,33.2-2.6C62.5,63.9,78.3,60.4,93.3,54z"/>
		<path d="M124,67.9c2.9,0,5.7,0,8.6,0c1.9,0,2.1-0.2,2.1-2.1c0-5,0-9.9,0-14.9c0,0,0,0,0,0c0-5.2,0-10.4,0-15.5
			c0-0.5,0.1-1.2-0.4-1.4c-0.5-0.2-0.8,0.3-1.2,0.6c-3.1,2.3-6.1,4.7-9.2,7c-0.8,0.6-1.3,1.2-1.3,2.3c-0.3,7.5,0,15-0.1,22.5
			C122.3,67.6,122.9,67.9,124,67.9z"/>
		<path d="M108.4,67.9c2.9-0.1,5.7-0.1,8.6,0c1.5,0,1.9-0.6,1.9-2c-0.1-3.1,0-6.2,0-9.4c0,0,0,0,0,0c0-3.2,0-6.3,0-9.5
			c0-2-0.2-2.1-1.9-1.2c-3,1.7-6,3.4-9,5c-0.9,0.5-1.3,1.1-1.3,2.1c0,4.4,0.1,8.8,0,13.2C106.6,67.5,107.1,68,108.4,67.9z"/>
		<path d="M103,60.9c0-1.9,0-3.8,0-5.7c0-1-0.4-1.2-1.3-0.8c-3.3,1.4-6.5,2.8-9.8,4.1c-0.8,0.3-1.1,0.8-1.1,1.7c0,2.1,0,4.2,0,6.3
			c0,1,0.5,1.4,1.5,1.4c3.1,0,6.2,0,9.4,0c1,0,1.4-0.5,1.4-1.5C103,64.6,103,62.7,103,60.9C103,60.9,103,60.9,103,60.9z"/>
		<path d="M86,60.9c-3.3,1-6.6,1.9-9.8,2.9c-1.6,0.5-0.9,2.1-0.9,3.2c0,1.1,1,0.9,1.7,0.9c1.4,0,2.7,0,4.1,0c0,0,0,0,0,0
			c1.6,0,3.2,0,4.7,0c0.9,0,1.4-0.4,1.4-1.3c0-1.6,0-3.2,0-4.7C87.2,61,86.8,60.6,86,60.9z"/>
		<path d="M211.6,77.2c3.2,0.6,6.3,1.5,9.1,2.8h12.6c-7-5.4-15.6-8.9-25.1-9.8c-12.3-1.1-23.9,2.7-33,9.8h12.3
			C194.6,76.8,202.9,75.6,211.6,77.2z"/>
		<path d="M157.9,107.7c0.4,0.4,0.9,0.8,0.6,1.4c-0.2,0.4-0.6,0.5-1,0.5c-0.1,0.5-0.1,1-0.2,1.5c0.1,0,0.1,0,0.2,0
			c1,0,1.4,0.6,1.3,1.6c-0.2,2.6-0.5,5.2-0.1,7.9c0.1,1.1-0.5,1.5-1.5,1.4c0,0,0,0,0,0c0.1,0.5,0.1,1,0.2,1.5c2,0.3,2.4,1.1,1.3,3
			c-0.2,0.3-0.4,0.6-0.5,0.9c4.1,18.1,18.5,32.6,37,36.1c9.8,1.9,19.3,0.8,28.5-3.2c1.6-0.7,2.6-0.5,3.6,0.9
			c1.8,2.3,3.7,4.6,5.5,6.9c0.7,0.9,1.4,1.4,2.6,0.7c4.7-3,9-6.5,13-10.5c1.1-1.1,1-2,0-3.1c-2-2.2-3.8-4.5-5.8-6.6
			c-1.3-1.4-1.2-2.4-0.1-3.9c3.6-4.8,6-10.1,7.4-15.2c-0.4-0.7-0.8-1.4-1.1-2.2c-0.5-1.2-0.4-1.9,1-2c0.3,0,0.7-0.1,1-0.1
			c0.1-0.5,0.2-1.1,0.2-1.6c0,0-0.1,0-0.1,0c-4-0.1-4.9-1-4.9-5.1c0-0.6,0.1-1.2,0.1-1.4c0.6-3.4,1.6-4,4.7-3.8c0.2,0,0.4,0,0.6,0
			c0-0.6-0.1-1.1-0.2-1.7c-0.1-0.1-0.2-0.2-0.2-0.4c0-0.2,0-0.4,0.1-0.5c0-0.1,0-0.2,0-0.3c-1.9-12.5-8.4-23.2-17.7-30.4h-12.6
			c17.7,7.7,27.4,26.7,23.5,44.7c-3.3,20.9-24,36.8-47.7,32.5c-21.8-4-36.6-25.4-32.7-47.2c2.3-13,11.3-24.5,23.6-30h-12.3
			C166.5,86.8,160.2,96.5,157.9,107.7z"/>
		<path d="M274.3,192.9c0.2,0.3,0.5,0.5,0.7,0.8c0.4,0.6,0.8,1.4,0.1,2c-0.7,0.6-1.4,0.3-2-0.3c-0.9-1-1.8-2-2.7-3.1
			c-5.8-6.8-11.6-13.6-17.4-20.4h-14.4c-1.5,1.2-1.6,2.1-0.4,3.7c8.4,11,16.7,22,25.2,33c3.2,4.1,7.6,5.6,12.7,4.3
			c4.7-1.2,7.4-4.6,8.6-8.6c0.7-4-0.3-7.4-2.6-10c-4.1-4.7-8.2-9.4-12.3-14.1c-2.4-2.7-4.7-5.5-7.1-8.2h-6
			C262.5,179,268.4,185.9,274.3,192.9z"/>
		<path d="M251,161.2c-3.7,4-8,7.3-12.3,10.7c0,0-0.1,0.1-0.1,0.1H253c-0.3-0.4-0.7-0.8-1-1.2c-0.6-0.7-1-1.3-0.6-2.2
			c0.2-0.6,0.7-0.7,1.2-0.7c0.7,0.2,1.1,0.6,1.5,1.1c0.8,1,1.7,2,2.6,3h6c-3-3.4-5.9-6.8-8.9-10.2
			C253.1,160.9,252.4,159.8,251,161.2z"/>
		<path d="M157,123.5c-1.2-0.1-2.4-0.2-3.6-0.2c-0.8,0-1.7,0-2.2,0.8c-1.4,2.2-3.6,2.9-6,2.9c-6.9,0-17.8,0-24.7-0.1
			c-2.4,0-4.9-0.1-6.7-2.1c-2.5-2.8-3.1-6-1.9-9.4c1.1-3.3,4.2-5.5,7.8-5.5c3.7,0,7.4,0.1,11,0c7.3-0.1,18.7,0.6,26-0.1
			c0.3,0,0.6,0,0.9,0c0.1-0.7,0.2-1.3,0.4-2c-0.1-0.1-0.2-0.2-0.3-0.2c-2.9-3-6.4-5-10.7-5.2c-8.2-0.4-20.4-0.3-28.6,0
			c-7.6,0.2-13.5,5.5-14.8,13.1c-1.9,10.4,4.5,19,14.9,19.3c7.7,0.3,19.5,0.3,27.2,0.1c5.4-0.1,9.5-2.9,12.5-7.2
			c-0.3-1.3-0.5-2.6-0.7-3.9C157.2,123.5,157.1,123.5,157,123.5z"/>
		<path d="M157.4,123.5c0.2,1.3,0.4,2.6,0.7,3.9c0.2-0.3,0.4-0.6,0.5-0.9C159.8,124.7,159.4,123.8,157.4,123.5z"/>
		<path d="M158.5,109.1c0.3-0.6-0.2-1-0.6-1.4c-0.1,0.6-0.3,1.3-0.4,2C157.9,109.6,158.3,109.5,158.5,109.1z"/>
		<path d="M252.5,112c4.6,1.1,9.2,1.1,13.9,1.5c5.9,0.4,11.8,0.8,17.4,1.2c4.7,0.9,7.2,4.4,6.8,9.2c-0.3,4-3.4,7-7.3,6.8
			c-7.4-0.4-14.7-1-22-1.6c-2.2-0.2-4.1-1.1-5.2-3.1c-0.5-0.9-1.2-1.3-2.2-1.2c-1,0.1-2,0.2-3,0.3c-0.1,0.6-0.2,1.1-0.3,1.7
			c-0.2,0.8-0.4,1.7-0.7,2.6c2.6,4.3,6.5,6.8,11.8,7.3c6.1,0.6,12.3,0.9,18.4,1.5c10.6,1.1,17.8-4.8,18.4-15.5
			c0.4-7.3-6.3-15.2-13.4-15.7c-7-0.5-14.1-1-21.1-1.4c-4.6-0.3-8.6,0.9-12,4.1c-0.3,0.3-0.7,0.5-0.9,0.9c0,0.3,0.1,0.6,0.1,0.9
			C251.5,112,252.1,111.9,252.5,112z"/>
		<path d="M250.7,125.3c-0.3,0-0.7,0.1-1,0.1c-1.4,0.1-1.6,0.8-1,2c0.3,0.8,0.7,1.5,1.1,2.2c0.2-0.9,0.5-1.7,0.7-2.6
			C250.6,126.4,250.6,125.8,250.7,125.3z"/>
		<path d="M251,111.3c0,0.2,0.1,0.3,0.2,0.4c0-0.3-0.1-0.6-0.1-0.9C251,110.9,250.9,111.1,251,111.3z"/>
		<path d="M257.7,124.8c1.5,1.5,3.3,1.6,5.2,0.6c1.9-1,2.5-2.7,2.2-4.8c-0.4-2.8-2.9-5.4-5.9-6.1c-2.6-0.6-5.2-0.9-7.9-1.1
			c0.3,3.3,0.1,6.7-0.4,10.3c1.3,0,2.6,0,3.9,0C256,123.7,256.9,124,257.7,124.8z"/>
		<path d="M251.3,113.4c-0.2,0-0.4,0-0.6,0c-3.1-0.2-4.1,0.4-4.7,3.8c0,0.2-0.1,0.8-0.1,1.4c0,4.1,0.9,5,4.9,5.1c0,0,0.1,0,0.1,0
			C251.4,120.1,251.6,116.7,251.3,113.4z"/>
		<path d="M141.9,117c-1.2,2.9,0.7,6.2,3.8,6.7c0.9,0.1,2,0.2,2.7-0.6c1.3-1.5,2.8-1.5,4.5-1.3c1.4,0.1,2.8,0.2,4.3,0.3
			c-0.2-1.5-0.3-3-0.3-4.6c0-2.1,0.1-4.3,0.4-6.3c-4.1,0.2-8.2,0.2-11.9,2.1C143.8,114.1,142.6,115.3,141.9,117z"/>
		<path d="M157.2,122C157.2,122,157.2,122,157.2,122c1,0.1,1.6-0.3,1.5-1.4c-0.3-2.6-0.1-5.2,0.1-7.9c0.1-1-0.3-1.7-1.3-1.6
			c-0.1,0-0.1,0-0.2,0c-0.3,2.1-0.4,4.2-0.4,6.3C156.9,119,157,120.5,157.2,122z"/>
		<path d="M114.9,137.9c-0.4-0.1-0.6-0.1-0.8-0.2c-1.6-0.5-2.7-0.2-3,1.8c-0.4,1.9,0.5,2.6,2.2,2.8c0.5,0.1,1,0.2,1.5,0.3
			c2.3,0.3,3.4-0.8,3-3C117.5,137.8,115.8,138.3,114.9,137.9z"/>
		<path d="M157.1,145.7c-2.9-0.5-3.3-0.3-3.8,2c-0.5,2.4,1.4,2.2,2.7,2.6c1.6,0.2,3.4,1.1,3.9-1.5
			C160.4,146.2,158.8,146,157.1,145.7z"/>
		<path d="M143.8,143.3c-0.7-0.1-1.3-0.2-2-0.4c-1.4-0.3-2.1,0.3-2.4,1.6c-0.5,2.2-0.2,2.6,2.5,3.1c0.3,0.1,0.6,0.1,0.9,0.2
			c1.7,0.4,2.7,0.1,3-1.9C146.2,144.1,145.4,143.5,143.8,143.3z"/>
		<path d="M129,140.5c-0.4-0.1-0.6-0.1-0.8-0.2c-1.7-0.5-2.6-0.1-3,1.8c-0.4,2,0.6,2.6,2.2,2.7c0.4,0,0.9,0.2,1.3,0.2
			c2.4,0.4,3.1-0.3,3.1-2.7C131.8,140.4,129.9,141,129,140.5z"/>
		<path d="M196.3,100.8c-4.9,0-9.3,1.5-12.9,5.1c-0.4,0.4-1.1,0.9-0.7,1.5c0.2,0.3,0.9,0.3,1.4,0.4c6.9,1.6,13.9,1,20.9,1.3
			c5.1,0.2,10.2,0.2,15.3,0.4c5.3,0.2,8.7,4.1,8.6,9.6c-0.1,4.8-3.6,8.6-8.1,8.5c-8.8-0.1-17.6-0.3-26.4-0.4c-2.1,0-4-0.7-5-2.6
			c-1.1-2.1-2.7-2.6-4.8-2.3c-1,0.1-2.1,0.2-3.2,0.2c-2-0.1-2.3,0.7-1.6,2.4c2.4,5.4,6.3,8.9,12.4,10.1c0.8,0.3,1.8,0.4,2.9,0.4
			c8.4,0.2,16.8,0.5,25.3,0.6c9.6,0.1,17.3-7.7,17.4-17.3c0.1-9.6-7.4-17.3-17-17.5C212.7,101,204.5,100.8,196.3,100.8z"/>
		<path d="M191.6,122.6c0.8,0.7,1.9,0.7,3,0.5c4-0.8,5.4-5.2,2.8-8.9c-1.9-2.6-4.6-3.7-8.1-4.4c-5.3-0.5-11.1-0.5-16.9-0.5
			c-4.5,0-5.6,1.2-5.7,5.7c0,0.9,0,1.8,0.2,2.7c0.5,2.8,1.3,3.6,4.2,3.5c4.7-0.1,9.3-0.2,14-0.3C187.4,121,189.7,120.8,191.6,122.6z
			"/>
		<path d="M199.1,80h11C206.4,79.4,202.7,79.4,199.1,80z"/>
		<path d="M178.7,89.6c-0.7,0.6-1,1.3-0.3,2.2c0.7,0.8,1.5,0.9,2.4,0.2c0.4-0.3,0.8-0.7,1.2-1c8.2-6.8,17.6-9.5,28.2-7.8
			c3.4,0.6,6.7,1.7,9.8,3.3c2,1,3.9,2.3,5.7,3.6c0.8,0.6,1.5,0.7,2.2-0.1c0.7-0.8,0.3-1.6-0.3-2.2c-0.5-0.5-1.1-1-1.8-1.4
			c-5.2-3.4-10.4-5.5-15.8-6.3h-11c-4,0.6-8,1.9-12,3.9C184,85.3,181.2,87.4,178.7,89.6z"/>
		<path d="M200.9,151.4c-0.3,0-0.6-0.1-0.9-0.1c-10.9-1.8-19.4-7.3-25.2-16.8c-0.2-0.4-0.5-0.8-0.8-1.1c-0.6-0.7-1.3-0.7-2-0.2
			c-0.7,0.4-0.8,1.1-0.4,1.8c0.4,0.8,0.8,1.6,1.3,2.4c6,8.8,14.2,14.3,24.6,16.6c1,0.2,1.9,0.4,2.9,0.5c1,0.1,1.9-0.1,2.1-1.2
			C202.7,152,201.9,151.6,200.9,151.4z"/>
	</g>
	<g>
		<path class="st5" d="M360.4,143.6c-0.2,0.5-0.3,0.9-0.5,1.4c0,0,0,0,0,0c0,0,0,0,0,0C360.1,144.5,360.3,144.1,360.4,143.6z"/>
		<path class="st5" d="M376.9,125.1c-0.4,0-0.8-0.1-1.1-0.3C376.2,125,376.5,125.1,376.9,125.1z"/>
		<path class="st5" d="M388.4,119.8c-1.4-0.5-2.8-0.7-4.1-0.6c-1.8,0-3.4,0.2-4.8,0.5c1.4-0.3,3-0.5,4.8-0.5
			C385.6,119.2,387,119.4,388.4,119.8z"/>
		<path class="st5" d="M383.8,294.4c-0.2,0.1-0.4,0.2-0.6,0.3c0.5-0.2,1-0.5,1.6-0.7C384.4,294.2,384.1,294.3,383.8,294.4z"/>
		<path class="st5" d="M378,298.3c0,0.2,0,0.4,0.1,0.6c0,0.1,0.1,0.2,0.1,0.3c0,0,0,0,0,0c0,0,0,0,0,0c-0.1-0.1-0.1-0.3-0.2-0.4
			C378,298.7,378,298.5,378,298.3z"/>
		<path class="st5" d="M381.7,127.9c1.6,0,2.4,0.9,2.8,2C384.2,128.7,383.4,127.9,381.7,127.9c-1.1,0-1.7,0.4-2.2,1
			C380,128.3,380.6,127.9,381.7,127.9z"/>
		<path class="st5" d="M378.7,131.5c0.1-0.6,0.2-1.2,0.3-1.7C378.9,130.3,378.8,130.9,378.7,131.5z"/>
		<path class="st5" d="M381.7,136.1c-1.4-0.1-2.1-0.8-2.5-1.7C379.6,135.3,380.3,136,381.7,136.1c0.9,0.1,1.7-0.4,2.3-1.2
			C383.4,135.7,382.6,136.2,381.7,136.1z"/>
		<path class="st5" d="M382.1,123.8c2-0.3,4-0.3,6,0.1C386.1,123.5,384.1,123.4,382.1,123.8z"/>
		<path class="st5" d="M378.4,299.5C378.4,299.5,378.4,299.5,378.4,299.5C378.4,299.6,378.4,299.6,378.4,299.5
			C378.4,299.6,378.4,299.6,378.4,299.5C378.4,299.6,378.4,299.5,378.4,299.5z"/>
		<path class="st5" d="M442.4,237c0,0.1-0.1,0.2-0.1,0.3C442.4,237.2,442.4,237.1,442.4,237L442.4,237z"/>
		<path class="st5" d="M281.7,335C281.7,335,281.7,335,281.7,335C281.7,335,281.7,335,281.7,335C281.7,335,281.7,335,281.7,335z"/>
		<path class="st5" d="M392.1,125c0.6,0.1,1.1-0.1,1.4-0.7c0.1-0.3,0.2-0.5,0.2-0.7c0,0.2-0.1,0.5-0.2,0.7
			C393.2,124.9,392.7,125,392.1,125z"/>
		<path class="st5" d="M263.3,314.9c2.4-0.6,4.8-1.2,7.2-1.8C268.1,313.6,265.7,314.2,263.3,314.9c-2.3,0.6-3,1.7-3,4.2
			c0,1.3,0.2,2.3,0.6,3c-0.4-0.7-0.6-1.7-0.5-3C260.3,316.6,261,315.5,263.3,314.9z"/>
		<path class="st5" d="M281.2,334.6c-0.4-0.2-0.9,0-1.4,0.2C280.3,334.6,280.8,334.4,281.2,334.6z"/>
		<path class="st5" d="M279.3,318.4c-2.2,1-4.5,1.9-6.8,2.7C274.8,320.3,277.1,319.4,279.3,318.4c1.7-0.8,3.1-1.9,3.2-3.6
			C282.5,316.5,281.1,317.6,279.3,318.4z"/>
		<path class="st5" d="M280,311.3c0.1,0,0.1,0,0.2,0C280.1,311.3,280,311.3,280,311.3z"/>
		<path class="st5" d="M261.4,309.7c0.4,0.1,0.9,0.2,1.5,0c2.5-0.5,5.1-1.1,7.6-1.8c-2.5,0.6-5.1,1.2-7.6,1.8
			C262.3,309.9,261.8,309.9,261.4,309.7z"/>
		<path class="st5" d="M278.2,303.9c0.3,1.4-0.6,2.1-1.6,2.5C277.6,306.1,278.5,305.3,278.2,303.9c-0.1-0.6-0.4-1.1-0.7-1.4
			C277.8,302.9,278.1,303.3,278.2,303.9z"/>
		<path class="st5" d="M260.6,307.2c0.4-1.4,1.4-2.2,2.7-2.7c2.9-1,5.9-1.7,9.1-2.2c-3.1,0.5-6.1,1.2-9.1,2.2
			C262,304.9,260.9,305.7,260.6,307.2c-0.2,0.7-0.2,1.3,0,1.8C260.4,308.5,260.4,307.9,260.6,307.2z"/>
		<path class="st5" d="M387.7,292.8c-0.6,0.2-1.2,0.5-1.9,0.8c-0.2,0.1-0.4,0.2-0.5,0.2c0.9-0.4,1.8-0.7,2.6-1.1c0,0,0,0,0,0
			c0,0-0.1,0-0.1,0C387.8,292.7,387.7,292.8,387.7,292.8z"/>
		<path class="st5" d="M275.7,336.4c-1.3,0.5-2.6,1-4,1.6c-0.3,0.1-0.6,0.2-0.9,0.3c0.3-0.1,0.6-0.2,0.9-0.3
			C273,337.5,274.3,337,275.7,336.4z"/>
		<path class="st5" d="M375.2,156.3C375.2,156.3,375.2,156.3,375.2,156.3C375.2,156.3,375.2,156.3,375.2,156.3z"/>
		<path class="st5" d="M379.1,156.3c0.1,0.1,0.1,0.2,0.2,0.4C379.3,156.6,379.2,156.5,379.1,156.3c-0.8-1.2-1.9-1-3-0.4
			c-0.2,0.1-0.5,0.2-0.7,0.3c0.2-0.1,0.5-0.2,0.7-0.3C377.2,155.4,378.3,155.1,379.1,156.3z"/>
		<path class="st5" d="M365.6,132.1c-1.2-0.1-1.6,1-1.9,2.1c-0.5,1.4-0.9,2.8-1.4,4.1c0.5-1.4,0.9-2.7,1.4-4.1
			C364,133,364.4,132,365.6,132.1z"/>
		<path class="st5" d="M447.4,237.2c-0.2,0.5-0.4,0.9-0.5,1.4C447.1,238.1,447.2,237.7,447.4,237.2z"/>
		<path class="st5" d="M439,248c-1.1,3.9-2.1,7.9-2.7,12.5c0,0,0,0,0,0c0,0,0,0,0,0C436.9,255.9,438,251.9,439,248z"/>
		<path class="st5" d="M444.2,247c-0.1,0.3-0.2,0.6-0.2,1C444.1,247.6,444.2,247.3,444.2,247z"/>
		<path class="st5" d="M369,158.1c-2.4,0.2-4.9-0.3-7.3-1.7c-0.2-0.1-0.4-0.2-0.6-0.2c0.2,0.1,0.4,0.1,0.6,0.3
			C364.1,157.8,366.5,158.3,369,158.1z"/>
		<path class="st5" d="M446.1,240.7c-0.1,0.3-0.2,0.6-0.3,0.9C445.9,241.3,446,241,446.1,240.7z"/>
		<path class="st5" d="M445,244.1c-0.1,0.2-0.1,0.4-0.2,0.5C444.9,244.5,445,244.3,445,244.1z"/>
		<path class="st5" d="M378.3,159L378.3,159c0.4-0.3,0.8-0.7,1-1.1C379.1,158.3,378.7,158.7,378.3,159z"/>
		<path class="st5" d="M366.8,147.1c-0.2-0.1-0.3-0.2-0.5-0.3c-0.3-0.1-0.6-0.2-0.8-0.4c0.2,0.1,0.5,0.3,0.8,0.4
			C366.5,146.9,366.7,147,366.8,147.1z"/>
		<path class="st5" d="M355.9,135.8c-1.4,0.3-2.8-1.2-3.3-3.2C353.1,134.5,354.5,136,355.9,135.8c2.2-0.4,2.8-2.1,3-3.9
			C358.7,133.7,358.1,135.3,355.9,135.8z"/>
		<path class="st5" d="M364.4,144.4c0.1-0.6,0.3-1.2,0.6-1.9c0.6-1.3,1.1-2.6,1.6-3.9c-0.5,1.3-1,2.6-1.6,3.9
			C364.7,143.2,364.5,143.8,364.4,144.4z"/>
		<path class="st5" d="M352.8,129.7c0-0.1,0.1-0.3,0.2-0.4C352.9,129.4,352.9,129.5,352.8,129.7z"/>
		<path class="st5" d="M421.6,132.8c0.2,0,0.4-0.1,0.6-0.1C422,132.7,421.8,132.7,421.6,132.8z"/>
		<path class="st5" d="M359.1,156.9C359.1,156.9,359.1,156.9,359.1,156.9c-0.6,0.9-0.1,1.5,0.4,2.1h0
			C359,158.4,358.6,157.8,359.1,156.9z"/>
		<path class="st5" d="M422,136.7c-0.8,0.2-1.6,0.6-2.3,1.2C420.5,137.4,421.2,136.9,422,136.7z"/>
		<path class="st5" d="M419.5,138.1c-0.8,0.6-1.6,1-2.4,0c-0.7-0.8-0.7-1.8,0-2.6c1.2-1.5,2.7-2.4,4.5-2.7c-1.8,0.4-3.3,1.2-4.5,2.7
			c-0.7,0.8-0.7,1.8,0,2.6C417.9,139,418.7,138.7,419.5,138.1z"/>
		<path class="st5" d="M426.2,136.7c-0.6,1-1.4,0.7-2.2,0.3c-0.3-0.2-0.7-0.2-1-0.3c0.3,0,0.6,0.1,1,0.3
			C424.9,137.4,425.7,137.7,426.2,136.7c0.6-1,0.3-1.9-0.4-2.6c-0.9-0.9-2-1.3-3.4-1.5c0,0,0,0,0,0c1.3,0.1,2.5,0.5,3.4,1.5
			C426.5,134.8,426.8,135.7,426.2,136.7z"/>
		<path class="st5" d="M380.4,296c-0.2,0.1-0.4,0.2-0.6,0.3c-0.2,0.1-0.4,0.2-0.6,0.3c0.2-0.1,0.4-0.2,0.6-0.3
			C380,296.2,380.2,296.1,380.4,296z"/>
		<path class="st5" d="M266.1,327.5C266.2,327.4,266.2,327.4,266.1,327.5C266.2,327.4,266.2,327.4,266.1,327.5z"/>
		<path class="st5" d="M282.4,327.7c-1.6,1.2-3.3,2.2-5.1,3.1C279.1,330,280.8,329,282.4,327.7c0.4-0.3,0.7-0.7,1-1.1
			C283.1,327,282.8,327.4,282.4,327.7z"/>
		<path class="st5" d="M280.1,323.2c0.1,0,0.3-0.1,0.4-0.1C280.4,323.2,280.3,323.2,280.1,323.2z"/>
		<path class="st5" d="M274.6,332c-1.8,0.7-3.6,1.3-5.4,1.8C271,333.3,272.8,332.7,274.6,332z"/>
		<path class="st5" d="M268.1,326.9c-0.5,0.1-0.9,0.2-1.4,0.4c-0.1,0-0.3,0.1-0.4,0.1c0.1,0,0.3-0.1,0.4-0.1
			C267.2,327.2,267.7,327.1,268.1,326.9z"/>
		<path class="st5" d="M269.5,340.1c-0.1-0.6,0-1,0.3-1.3C269.5,339.1,269.4,339.4,269.5,340.1c0.1,0.7,0.5,1.2,1,1.6
			C270,341.3,269.7,340.8,269.5,340.1z"/>
		<path class="st5" d="M264,330.2c0-0.1,0-0.2,0-0.2C264,330,264,330.1,264,330.2c0.1,1.2,0.7,2.2,1.6,2.9
			C264.7,332.4,264.1,331.4,264,330.2z"/>
		<path class="st5" d="M270.9,341.9c0.6,0.2,1.3,0.4,2.1,0.4c1.1-0.2,2.2-0.7,3.3-1.2c-1.1,0.6-2.2,1-3.3,1.2
			C272.2,342.2,271.5,342.1,270.9,341.9z"/>
		<path class="st8" d="M410.7,225.7c-0.1,0.1-0.1,0.2-0.2,0.3C410.6,225.9,410.6,225.8,410.7,225.7c4.8-8.4,9.6-16.7,14.4-25.1
			c0.1-0.2,0.2-0.4,0.3-0.6c-0.1,0.2-0.2,0.4-0.3,0.6C420.3,209,415.5,217.3,410.7,225.7z"/>
		<path class="st8" d="M378.1,159.2c-1.3,1-2.8,1.8-4.3,2.3C375.3,160.9,376.7,160.1,378.1,159.2c0.1-0.1,0.1-0.1,0.2-0.2h0
			C378.2,159.1,378.2,159.1,378.1,159.2z"/>
		<path class="st8" d="M425.7,197.7c0-0.2-0.1-0.4-0.2-0.6c-1.3-2.7-2.5-5.4-3.9-8.1c1.3,2.8,2.6,5.5,3.9,8.2
			C425.6,197.3,425.7,197.5,425.7,197.7z"/>
		<path class="st8" d="M359.6,159L359.6,159c0,0,0.1,0.1,0.1,0.1C359.7,159.1,359.6,159,359.6,159z"/>
		<path class="st8" d="M363.4,211.3c2.4-2.3,4.1-2,5.4,1.1c0.6,1.3,1.1,2.6,1.7,4c0.9-4.4,2.2-9.5,2.7-11.3c1-3.4,1.1-7,1.5-10.5
			c0.1-1.1,0.3-2.6-0.6-3.2c-1.1-0.8-2.1,0.4-3,1c-2,1.3-3.9,2.8-5.8,4.2c-3.5,2.7-5.4,6.4-6.1,10.7c-0.5,3.2-1.1,6.4-1.8,10.3
			C359.7,215.2,361.4,213.2,363.4,211.3z"/>
		<path class="st8" d="M394.2,210c8.7-8.3,17.9-15.5,25.6-24.8c0,0,0,0,0,0C412.2,194.5,403,201.7,394.2,210
			C394.2,210,394.2,210,394.2,210z"/>
		<path class="st4" d="M377.4,232.6c2.4-5.2,4.9-9.7,6.5-14.6c2.7-8.1,7.5-14.3,14.4-19.3c4.8-3.4,8.7-8,13-12
			c1.5-1.4,1.9-2.9,1.4-4.9c-1-4.4-1.5-8.8-1.3-13.3c0.1-2.1-0.3-4.1-1.5-6.6c-2.7,3.1-5.2,5.7-7.5,8.5c-5.8,7.2-12,13.8-20.9,17.3
			c-1.5,0.6-2.1,1.5-2,3.1c0.6,8.1-5.4,24.8-5.8,32.8c0,0.1,0,0.2,0,0.3c0.8,1.9,1.5,3.7,2.3,5.6
			C376.4,230.4,376.8,231.2,377.4,232.6z"/>
		<path class="st8" d="M457,218.4C457,218.4,456.9,218.4,457,218.4c-0.4,0.1-0.6,0.2-0.9,0.4C456.3,218.6,456.6,218.5,457,218.4
			C456.9,218.4,457,218.4,457,218.4z"/>
		<path class="st8" d="M460.1,220.1c0.5,1.3-0.1,2.4-1.3,2.8c-5.3,1.8-7.7,6-9.8,10.6c2.1-4.5,4.5-8.7,9.8-10.6
			C460.1,222.4,460.7,221.3,460.1,220.1c-0.2-0.5-0.5-1-0.9-1.3C459.6,219.1,459.9,219.5,460.1,220.1z"/>
		<path class="st8" d="M447.1,227.5c-1.9,3-3.4,6.2-4.6,9.5h0C443.7,233.7,445.1,230.5,447.1,227.5z"/>
		<path class="st8" d="M407.6,225.8c-2.7-4-5.6-8-8.4-12c-0.3-0.4-0.6-0.8-0.9-1.3c0.3,0.4,0.6,0.8,0.9,1.3
			C402.1,217.8,404.9,221.8,407.6,225.8c0.6,0.9,1.1,1.3,1.6,1.3C408.7,227.1,408.2,226.7,407.6,225.8z"/>
		<path class="st8" d="M366.5,162.5c-2.3-0.2-4.6-1.2-6.5-3.1C361.9,161.3,364.2,162.3,366.5,162.5z"/>
		<path d="M412.4,284C412.4,284,412.4,284,412.4,284c2.3-1.1,4.4-2.1,6.6-3.1C416.8,281.9,414.6,282.9,412.4,284z"/>
		<path d="M390.3,313.3c-0.9,0.3-1.7,0.9-1.4,2.2c0,0.1,0,0.2,0.1,0.2c0-0.1-0.1-0.2-0.1-0.2C388.6,314.1,389.3,313.6,390.3,313.3z"
			/>
		<path d="M456.2,363.2c-3.1,2.6-6.2,5.2-9.4,7.7C450,368.3,453.1,365.7,456.2,363.2z"/>
		<path d="M433.2,381.7c-1.1,0.9-2.3,1.8-3.4,2.6C430.9,383.5,432,382.6,433.2,381.7z"/>
		<path d="M385.9,307.4c-0.1-0.2-0.1-0.4-0.1-0.6C385.8,307,385.9,307.2,385.9,307.4c0.5,2,2.1,1.7,3.5,1.4c2.9-0.6,5.8-1.3,8.6-1.9
			c-2.9,0.7-5.7,1.3-8.6,1.9C388.1,309,386.5,309.3,385.9,307.4z"/>
		<path d="M406.7,298.5c-0.5,0.5-1.3,0.8-2,1c-2.4,0.7-4.8,1.3-7.2,1.9c2.4-0.6,4.8-1.2,7.2-1.9C405.4,299.3,406.2,299,406.7,298.5z
			"/>
		<path d="M429,279.9c-0.1,0.1-0.2,0.1-0.3,0.2C428.8,280.1,428.9,280,429,279.9c0.4-0.4,0.2-0.7-0.2-1
			C429.2,279.2,429.4,279.5,429,279.9z"/>
		<path d="M418.3,393c-1.8,1.3-3.6,2.6-5.4,3.9C414.7,395.7,416.5,394.3,418.3,393z"/>
		<path d="M426.8,386.7c-2,1.5-3.9,3-5.9,4.5C422.8,389.6,424.8,388.2,426.8,386.7z"/>
		<path d="M405.7,309.5c0.1,0,0.3-0.1,0.4-0.2C406,309.4,405.9,309.4,405.7,309.5c-2.5,0.7-5,1.3-7.5,1.9c-1.4,0.3-2.7,0.6-4.1,0.9
			c1.4-0.3,2.7-0.6,4.1-0.9C400.8,310.8,403.3,310.2,405.7,309.5z"/>
		<path d="M425.6,280.6c0.2,0,0.3,0.1,0.5,0.1c0.3,0.1,0.5,0.1,0.8,0.1c-0.3,0-0.5,0-0.8-0.1C425.9,280.7,425.8,280.6,425.6,280.6z"
			/>
		<path d="M407.5,307.4c0,0.2,0,0.4-0.1,0.6C407.5,307.8,407.5,307.6,407.5,307.4z"/>
		<path d="M406,305.3c0.6,0.2,1,0.6,1.3,1.2C407,305.8,406.6,305.4,406,305.3z"/>
		<path d="M399.6,316.5c0.8-0.1,1.6-0.2,2.4-0.4c0.1,0,0.2,0,0.3-0.1c-0.1,0-0.2,0-0.3,0C401.2,316.2,400.4,316.4,399.6,316.5z"/>
		<path d="M404,315.8c-0.2,0-0.4,0-0.6,0.1C403.6,315.9,403.8,315.8,404,315.8c1.1-0.1,2,0.2,2.4,1C406,316,405.1,315.7,404,315.8z"
			/>
		<path d="M474.5,347.4c-2.1,1.9-4.2,3.7-6.3,5.6C470.3,351.1,472.4,349.3,474.5,347.4z"/>
		<path d="M409.6,290c-2.4-0.8-5.1-1.1-8.1-0.7c-0.6,0.1-1.1,0.1-1.7,0.2c-0.1,0-0.1,0-0.2,0c-0.3,0-0.5,0.1-0.8,0.1
			c0.9-0.2,1.8-0.3,2.7-0.4C404.5,288.9,407.2,289.2,409.6,290z"/>
		<path d="M419.6,300.3c0-0.1-0.1-0.2-0.1-0.4c-0.1-0.2-0.2-0.5-0.3-0.7c0.1,0.2,0.2,0.5,0.3,0.7C419.5,300,419.5,300.1,419.6,300.3
			z"/>
		<path d="M390,291.9c-0.2,0.1-0.4,0.1-0.6,0.2c-0.5,0.2-1,0.4-1.6,0.6c0,0,0,0,0,0C388.6,292.4,389.3,292.2,390,291.9z"/>
		<path d="M436.3,260.5C436.3,260.5,436.3,260.5,436.3,260.5C436.3,260.5,436.3,260.5,436.3,260.5c-0.2,1.1,0.7,2.1,2.5,2.3
			c0.2,0,0.4,0,0.6,0c-0.2,0-0.4,0-0.6,0C437.1,262.6,436.1,261.6,436.3,260.5z"/>
		<path d="M550.5,216.1c-8.7-1.1-17,0.5-25.3,2.7C509,223,493.8,229.6,479,237c0,0,0,0,0,0c3.2,15.3,5.1,30.8,6.7,46.4
			c1.5,14.5,2,29.2,5.1,43.5c0.4,1.7,0.7,3.4,0.9,5c17.2-16.2,33.5-33.2,48-51.8c8.1-10.4,15.6-21.2,20.9-33.4
			c2-4.6,3.6-9.3,3.7-14.4C564.6,222.8,559.8,217.3,550.5,216.1z"/>
		<path d="M440.5,262.6c0.4-0.3,0.6-0.7,0.8-1.2C441.1,261.8,440.9,262.3,440.5,262.6z"/>
		<path d="M484.9,338c-2.5,2.3-5.1,4.6-7.7,6.9C479.8,342.7,482.4,340.3,484.9,338z"/>
		<path d="M465.2,355.5c-2.6,2.2-5.2,4.5-7.8,6.7C460,360,462.6,357.7,465.2,355.5z"/>
		<path d="M416.6,283.8c1.3-0.6,2.5-1.1,3.7-1.7C419.2,282.7,417.9,283.2,416.6,283.8z"/>
		<path d="M398.5,326.9c0.7,0.2,1.4,0.3,2.1,0.4c1.2,0.2,2.3,0.5,3.3,1.1c-1-0.6-2.1-0.9-3.3-1.1
			C399.8,327.2,399.1,327.1,398.5,326.9z"/>
		<path d="M404.7,320c0.4-0.1,0.9-0.3,1.2-0.5C405.6,319.8,405.1,319.9,404.7,320c-3.1,0.7-6.2,1.2-9.3,1.9
			c-0.4,0.1-0.8,0.1-1.2,0.2c0.4-0.1,0.8-0.1,1.2-0.2C398.5,321.3,401.6,320.7,404.7,320z"/>
		<path d="M456.8,341c0.1,2-0.1,4-0.6,5.9C456.7,345,456.9,343,456.8,341c0.1-1.3,0-2.6-0.1-3.9C456.8,338.4,456.9,339.7,456.8,341z
			"/>
		<path d="M398,289.7c-0.6,0.1-1.2,0.2-1.7,0.4c-0.1,0-0.2,0-0.2,0.1c0.8-0.2,1.6-0.4,2.5-0.5C398.3,289.7,398.1,289.7,398,289.7z"
			/>
		<path d="M434.6,348.9c3.1,2.1,6.3,4.1,9.6,5.8c1.1,0.6,2.1,1,2.9,1.4c-0.9-0.3-1.8-0.8-2.9-1.4C440.9,353,437.7,351,434.6,348.9z"
			/>
		<path d="M427.1,317.5c4.6,1.4,9.2,3,13.7,4.4C436.2,320.4,431.7,318.8,427.1,317.5c-2.9-0.9-4.2-2.5-4.7-5.4
			c-0.3-1.5-0.5-3.1-0.8-4.6c0.3,1.5,0.5,3.1,0.8,4.6C422.9,314.9,424.2,316.6,427.1,317.5z"/>
		<path d="M454.5,330.5c-0.9-1.8-2-3.3-3.4-4.5C452.6,327.2,453.7,328.7,454.5,330.5z"/>
		<path d="M389.1,303.7c0.1,0,0.2-0.1,0.4-0.1C389.4,303.6,389.2,303.6,389.1,303.7z"/>
		<path d="M406,305.3C406,305.3,405.9,305.3,406,305.3C405.9,305.3,406,305.3,406,305.3z"/>
		<path d="M393.1,290.9c-0.7,0.2-1.4,0.4-2.1,0.7c-0.1,0-0.3,0.1-0.4,0.1c1.6-0.6,3.3-1.1,5-1.5
			C394.7,290.5,393.9,290.7,393.1,290.9z"/>
		<path d="M405.6,294.9c0.5,0,1,0.3,1.3,0.8C406.5,295.2,406.1,294.9,405.6,294.9z"/>
		<path d="M406.2,309.3C406.2,309.3,406.2,309.3,406.2,309.3C406.2,309.3,406.2,309.3,406.2,309.3z"/>
		<path d="M379.4,300.2c0.1,0,0.2,0.1,0.2,0.1c0,0,0.1,0,0.1,0C379.6,300.2,379.4,300.2,379.4,300.2
			C379.3,300.2,379.3,300.2,379.4,300.2z"/>
		<path d="M439.6,262.9c0,0-0.1,0-0.1,0C439.6,262.9,439.6,262.9,439.6,262.9z"/>
		<path d="M367.1,428c-1.3,0.8-2.6,1.6-3.9,2.5C364.4,429.7,365.8,428.8,367.1,428z"/>
		<path d="M379.1,300.1c-0.1,0-0.1-0.1-0.2-0.1C379,300,379,300.1,379.1,300.1z"/>
		<path d="M380.4,300.4c-0.1,0-0.2,0-0.2,0C380.2,300.4,380.3,300.4,380.4,300.4z"/>
		<path d="M390.3,313.3C390.3,313.3,390.3,313.3,390.3,313.3C390.3,313.3,390.3,313.3,390.3,313.3z"/>
		<path d="M380.7,300.4c0.1,0,0.1,0,0.2,0c0.4,0,0.7,0,1.1,0c-0.3,0-0.7,0-1.1,0C380.8,300.4,380.8,300.4,380.7,300.4z"/>
		<path d="M409.8,399.2c-1.6,1.2-3.3,2.4-5,3.5C406.5,401.6,408.2,400.4,409.8,399.2z"/>
		<path d="M401.4,405.2c-1.6,1.1-3.1,2.2-4.7,3.3C398.3,407.4,399.8,406.3,401.4,405.2z"/>
		<polygon points="378.4,299.6 378.4,299.6 378.4,299.6 		"/>
		<path d="M378.6,299.8C378.7,299.8,378.7,299.8,378.6,299.8C378.7,299.8,378.6,299.8,378.6,299.8
			C378.6,299.8,378.6,299.8,378.6,299.8z"/>
		<path d="M317.3,429.9c0.3-12.5,2.2-24.9,3.7-37.3c0.2-1.4,0.1-2.5-1-3.6c-2-2-2.9-4.5-2.4-7.3c0.4-2.2-0.5-2.6-2.4-2.6
			c-9.1,0-18.1-0.1-27.2-0.1c-0.6,0-1.1,0-1.6-0.1c0,0,0,0,0,0c-12.3,12.5-23.9,25.7-34.4,39.8c-7.1,9.5-13.6,19.4-18,30.5
			c-1.7,4.2-2.9,8.5-3,13.1c-0.1,8.5,4.5,13.8,12.9,15.2c2.2,0.3,4.5,0.3,6.6,0.5c14.8-0.6,28.4-5.3,41.8-10.6
			c22.9-9.1,44.5-20.8,65.5-33.6c0.4-0.3,0.9-0.5,1.3-0.8c-12.9,0-25.9,0-38.8,0C317.9,433,317.2,432.4,317.3,429.9z"/>
		<path d="M393.3,324c0,0,0-0.1,0-0.1C393.3,323.9,393.3,323.9,393.3,324z"/>
		<path d="M389,298.9c0.3-0.1,0.5-0.1,0.8-0.2c1.3-0.3,2.6-0.7,3.9-1c-1.3,0.3-2.6,0.7-3.9,1C389.6,298.7,389.3,298.8,389,298.9z"/>
		<path d="M384.4,416.9c-1.5,1-2.9,1.9-4.4,2.9C381.4,418.8,382.9,417.8,384.4,416.9z"/>
		<path d="M418.4,336.2c-0.7-0.5-1.3-0.8-2-1.1C417.1,335.4,417.7,335.7,418.4,336.2z"/>
		<path d="M375.8,422.5c-1.4,0.9-2.8,1.8-4.2,2.7C372.9,424.3,374.4,423.4,375.8,422.5z"/>
		<path d="M392.9,411.1c-1.5,1-3,2-4.5,3.1C389.9,413.1,391.4,412.1,392.9,411.1z"/>
		<path class="st4" d="M414.7,151.5c2.5,0.9,4.7,0.1,6.6-1.6c3.6-3.1,6.1-7.1,7.8-11.5c0.4-1.1,0.6-2.4,0.6-3.6c0-5.3-3.7-7.8-8.6-6
			c-2.8,1-4.5,3.2-5.6,5.8c-1.3,3.2-3.9,2.1-6.1,2c-2.4-0.1-2.2-2.1-2.4-3.6c-0.3-2.7-0.1-5.5-0.8-8.2c-0.8-3.2-2.6-5.1-6.1-6
			c-11.8-3-22.9-7.8-32.2-16c-2.5-2.2-4.8-4.7-6.6-7.5c-1-1.5-1.9-1.5-3.1-0.3c-3.7,3.6-5.7,8.1-7.1,12.9c-0.8,2.6-1.1,5.2-1.3,7.9
			c-0.2,2,0.5,3,2.7,2.9c2.7-0.1,5.3,0.7,7.6,2c1.2,0.7,2.4,1.6,1.6,3.2c-0.8,1.6-2.2,1.2-3.5,0.6c-0.3-0.2-0.7-0.3-1-0.5
			c-5.7-2.5-7.3-1.4-7.3,5.6c1.1,6.6-0.9,14.3,0.9,21.8c0.6,2.6,1.4,5.1,2.3,7.5h6.5c-0.5-0.6-1-1.2-0.4-2.1c0,0,0,0,0,0
			c0,0,0,0,0,0c0.5-0.8,1.2-1,1.9-0.8c0.2,0.1,0.4,0.1,0.6,0.2c2.5,1.5,4.9,1.9,7.3,1.7c2.1-0.2,4.2-0.8,6.2-1.8c0,0,0,0,0,0
			c0.1,0,0.1-0.1,0.2-0.1c0.2-0.1,0.5-0.2,0.7-0.3c1.1-0.6,2.2-0.8,3,0.4c0.1,0.1,0.1,0.3,0.2,0.4c0.2,0.5,0.2,0.8,0,1.2
			c-0.2,0.4-0.6,0.8-1,1.1h27.7c1.3-1.6,2.4-3.4,3.5-5.3C410.7,151.6,412.2,150.6,414.7,151.5z M417.1,135.5
			c1.2-1.5,2.7-2.3,4.5-2.7c0,0,0,0,0.1,0c0.2,0,0.4-0.1,0.6-0.1c0.1,0,0.1,0,0.2,0c0,0,0,0,0,0c0,0,0,0,0,0
			c1.3,0.1,2.5,0.5,3.4,1.5c0.7,0.7,1,1.6,0.5,2.6c-0.6,1-1.4,0.7-2.2,0.3c-0.3-0.2-0.7-0.2-1-0.3c-0.3,0-0.7,0-1,0
			c-0.8,0.2-1.6,0.6-2.3,1.2c0,0-0.1,0.1-0.1,0.1c0,0,0,0-0.1,0c-0.8,0.6-1.6,1-2.4,0C416.4,137.2,416.4,136.3,417.1,135.5z
			 M358.9,131.8c-0.1,1.8-0.8,3.5-3,3.9c-1.4,0.3-2.9-1.2-3.3-3.3c-0.1-0.4-0.1-0.8-0.1-1.2c0.1-0.6,0.2-1.1,0.3-1.7
			c0-0.1,0.1-0.3,0.2-0.4c0.4-0.9,1.1-1.7,2.5-1.9c1.7-0.3,3.4,1.6,3.4,3.8C358.9,131.4,358.9,131.6,358.9,131.8z M367.6,148.8
			c-0.2,1-1.1,1.2-2,1.4c-2.6,0.4-5.7-2.3-5.7-5.2c0,0,0,0,0,0c0.2-0.4,0.3-0.9,0.5-1.4c0.6-1.7,1.2-3.5,1.8-5.3
			c0.5-1.4,0.9-2.7,1.4-4.1c0.4-1.1,0.8-2.2,1.9-2.1c0.2,0,0.4,0,0.6,0.1c1.6,0.5,1.5,1.8,1.3,3.1c-0.2,1.2-0.5,2.3-0.9,3.4
			c-0.5,1.3-1,2.6-1.6,3.9c-0.3,0.7-0.5,1.3-0.6,1.9c-0.1,0.8,0.2,1.5,1.1,2.1c0.2,0.1,0.5,0.2,0.8,0.4c0.2,0.1,0.4,0.2,0.5,0.3
			C367.4,147.4,367.8,148,367.6,148.8z M381.7,136.1c-1.4-0.1-2.1-0.8-2.5-1.7c-0.3-0.7-0.4-1.5-0.5-2.4c0-0.1,0-0.3,0-0.4
			c0.1-0.6,0.2-1.2,0.3-1.7c0.1-0.3,0.3-0.7,0.5-0.9c0.4-0.6,1.1-1,2.2-1c1.6,0,2.5,0.9,2.8,2c0.2,0.6,0.3,1.2,0.3,1.9
			c0.1,1.2-0.3,2.3-0.9,3.1C383.4,135.7,382.6,136.2,381.7,136.1z M393.6,124.3c-0.3,0.6-0.9,0.8-1.4,0.7c-0.3,0-0.6-0.1-0.9-0.2
			c-1.1-0.4-2.1-0.7-3.2-0.9c-2-0.4-4-0.4-6-0.1c-1.3,0.2-2.6,0.6-3.9,1.1c-0.4,0.2-0.9,0.3-1.3,0.2c-0.4,0-0.8-0.1-1.1-0.3
			c-0.4-0.3-0.7-0.7-0.9-1.3c-0.5-1.5,0.6-2.3,1.8-2.8c0.9-0.4,1.8-0.7,2.7-0.9c1.4-0.3,3-0.5,4.8-0.5c1.3-0.1,2.7,0.1,4.1,0.6
			c1.4,0.5,2.8,1.2,4.1,2.1c0.6,0.4,1.2,0.9,1.2,1.6C393.8,123.8,393.7,124,393.6,124.3z"/>
		<path class="st4" d="M378.1,159.2c-1.3,1-2.8,1.7-4.3,2.3c-1.8,0.7-3.8,1-6,1c-0.4,0-0.9,0-1.3,0c-2.3-0.2-4.6-1.2-6.5-3.1
			c-0.1-0.1-0.2-0.2-0.3-0.2c0,0,0,0,0,0c0,0-0.1-0.1-0.1-0.1h-6.5c1.4,3.6,3.1,7,5.4,10.2c4.2,6,9.9,9.2,17.5,7.2
			c11.8-3.1,22.6-7.8,30.1-17.5h-27.7C378.2,159.1,378.2,159.1,378.1,159.2z"/>
		<path class="st4" d="M264.7,323.1c2.6-0.6,5.2-1.3,7.8-2.1c2.3-0.8,4.6-1.6,6.8-2.7c1.7-0.8,3.1-1.9,3.2-3.6c0-0.5-0.1-1-0.3-1.5
			c-0.4-1.2-1.2-1.7-2.1-2c-0.1,0-0.1,0-0.2,0c-0.8-0.2-1.8-0.1-2.8,0.2c-2.2,0.5-4.4,1.1-6.6,1.6c-2.4,0.6-4.8,1.2-7.2,1.8
			c-2.3,0.6-3,1.7-3,4.2c0,1.3,0.2,2.3,0.5,3C261.5,323.2,262.8,323.5,264.7,323.1z"/>
		<path class="st4" d="M281.7,335C281.7,335,281.7,335,281.7,335c-0.1-0.2-0.3-0.4-0.5-0.4c-0.4-0.2-0.9,0-1.4,0.2
			c-0.1,0-0.1,0.1-0.2,0.1c-1.3,0.5-2.7,1-4,1.6c-1.3,0.5-2.6,1.1-4,1.6c-0.3,0.1-0.6,0.2-0.9,0.3c-0.4,0.1-0.8,0.2-1,0.5
			c-0.3,0.3-0.4,0.6-0.3,1.3c0.1,0.7,0.5,1.2,1,1.6c0.1,0.1,0.3,0.2,0.4,0.2c0.6,0.2,1.3,0.4,2.1,0.4c1.1-0.2,2.2-0.7,3.3-1.2
			c1.8-0.9,3.5-2.3,5.1-3.8C282,336.6,282.1,335.7,281.7,335z"/>
		<path class="st4" d="M283.4,323.9c-0.7-1.3-1.8-1.1-2.8-0.8c-0.1,0-0.3,0.1-0.4,0.1c-0.1,0-0.2,0.1-0.3,0.1
			c-3.9,1.3-7.7,2.6-11.7,3.6c-0.5,0.1-0.9,0.2-1.4,0.4c-0.1,0-0.3,0.1-0.4,0.1c0,0-0.1,0-0.1,0c0,0,0,0,0,0
			c-1.2,0.3-2.2,0.9-2.2,2.5c0,0.1,0,0.2,0,0.2c0.1,1.2,0.7,2.2,1.6,2.9c0.7,0.6,1.7,0.9,2.7,0.9c0.3-0.1,0.5-0.2,0.8-0.2
			c1.8-0.5,3.6-1.1,5.4-1.8c0.9-0.4,1.8-0.7,2.7-1.2c1.8-0.9,3.5-1.9,5.1-3.1c0.4-0.3,0.7-0.7,1-1.1
			C283.8,325.8,283.8,324.9,283.4,323.9z"/>
		<path class="st8" d="M462.6,218.1V237h-15.1c0,0.1-0.1,0.1-0.1,0.2c-0.2,0.5-0.4,0.9-0.5,1.4c-0.3,0.7-0.5,1.4-0.8,2.1
			c-0.1,0.3-0.2,0.6-0.3,0.9c-0.3,0.9-0.6,1.7-0.8,2.6c-0.1,0.2-0.1,0.4-0.2,0.5c-0.2,0.8-0.4,1.5-0.6,2.3c-0.1,0.3-0.2,0.6-0.2,1
			c-0.7,3-1.4,6-1.9,9.1c10.2-6.1,20.6-11.8,31.2-17.2c-0.8-3.9-1.8-7.7-3-11.5C468.9,224,466.5,220.4,462.6,218.1z"/>
		<path class="st8" d="M484.9,338c0.3-0.3,0.7-0.6,1-0.9c0,0,0,0,0,0C485.6,337.4,485.2,337.7,484.9,338z"/>
		<path class="st8" d="M446.3,371.3c0.2-0.1,0.4-0.3,0.5-0.4C446.7,371,446.5,371.1,446.3,371.3
			C446.3,371.3,446.3,371.3,446.3,371.3z"/>
		<path class="st8" d="M477.2,345c-0.9,0.8-1.8,1.6-2.8,2.5C475.4,346.6,476.3,345.8,477.2,345z"/>
		<path class="st8" d="M439,248c0.3-1.1,0.6-2.2,0.9-3.3c0.7-2.5,1.5-4.9,2.3-7.3c0-0.1,0.1-0.2,0.1-0.3h-61.3
			c-1.9,4.3-3.6,8.6-4.7,13.2c-0.6,2.5-1.4,5-2.1,7.4c-0.5,1.6-0.8,3.4-3.1,2.8c-2.3-0.6-2.1-2.3-1.6-4.1c1.4-4.8,2.7-9.6,4.1-14.3
			c0.4-1.5,0.7-3,0.1-4.5c-0.1-0.2-0.2-0.4-0.2-0.6h-52.4c0,0.2-0.1,0.4-0.1,0.6c0.2,0,0.4-0.1,0.7-0.1c4.2-0.6,5.4,0.4,6.8,4.4
			c0.1,0.2,0.2,0.5,0.3,0.8c0.3,0,0.6-0.1,1-0.1c6.4-0.3,19.1-0.6,25.5-0.8c4.3-0.1,5.6,1,6.5,5.2c3.4,15.2,6.9,30.3,10.4,45.5
			c0.2,0.7,0.1,1.5,1,2.1c1.2-2,4.1-2.1,4.8-4.6c2.6-9.1,8.1-11.9,16.8-8.3c0.3,0.1,0.6,0.2,0.8,0.3c1.5,1,3,0.8,4.6,0
			c3-1.4,6-2.9,9-4.3c0,0,0,0,0,0c8.9-6,17.9-11.8,27-17.3c0,0,0,0,0,0C436.9,255.9,438,251.9,439,248z"/>
		<path class="st8" d="M457.4,362.2c-0.4,0.3-0.8,0.7-1.2,1C456.6,362.8,457,362.5,457.4,362.2z"/>
		<path class="st8" d="M468.1,353c-1,0.8-1.9,1.7-2.9,2.5C466.2,354.7,467.2,353.8,468.1,353z"/>
		<path class="st8" d="M365.8,218.9c-0.6-1.4-1.1-1.5-2.2-0.4c-2.6,2.8-5.3,5.5-8,8.2c-1,1-2.2,2-3.8,1.3c-1.6-0.8-1.8-2.3-1.5-4
			c0.7-4,1.4-7.9,2.1-11.8c0.9-4.9,1.2-4.8-3.6-3c-9.2,3.4-18,7.2-23.1,16c-0.1,0.2-3.7,6.9-4.6,11.8h52.4
			C371,231,368.4,224.9,365.8,218.9z"/>
		<path class="st8" d="M447.1,227.5c0.8-1.3,1.8-2.6,2.8-3.8c1.7-2.1,3.7-3.8,6.2-4.8c0.3-0.1,0.6-0.2,0.9-0.3c0,0,0,0,0.1,0
			c0.9-0.3,1.7-0.1,2.3,0.4c0.4,0.3,0.6,0.7,0.9,1.3c0.5,1.3-0.1,2.4-1.3,2.8c-5.3,1.8-7.7,6-9.8,10.6c-0.2,0.5-0.5,1-0.7,1.6
			c-0.3,0.7-0.6,1.4-0.9,2h15.1v-18.9c-0.5-0.3-1-0.6-1.5-0.8c-8.7-4.2-17.3-8.6-26-12.8c-4.8-2.3-4.8-2.2-7.3,2.4
			c-4.9,8.6-9.9,17.2-14.9,25.8c-2,3.4-4.2,3.5-6.6,0.3c-1.4-1.9-2.8-3.9-4.1-5.9c-3.1-4.5-6.2-9.1-9.4-13.8
			c-0.4,0.5-0.7,0.8-0.8,1.1c-3.2,7.7-7.4,15-10.8,22.7h61.3C443.7,233.7,445.1,230.5,447.1,227.5z"/>
		<path class="st8" d="M485.6,334.7c-0.5-4-1.4-7.9-2-11.8c-1.5-10-2.3-20.1-3.3-30.2c-1.1-10.8-2.3-21.6-3.7-32.4
			c-0.9-6.9-1.9-13.7-3.4-20.5c0,0,0,0,0,0c-10.6,5.4-21,11.2-31.2,17.2c-0.2,1.1-0.4,2.1-0.6,3.2c-0.1,0.4-0.1,0.8-0.2,1.1
			c-0.2,0.5-0.4,0.9-0.8,1.2c-0.2,0.2-0.5,0.3-0.8,0.3c0,0-0.1,0-0.1,0c0,0,0,0,0,0c-0.2,0-0.4,0-0.6,0c-1.8-0.3-2.7-1.3-2.5-2.3
			c-9.1,5.6-18.1,11.3-27,17.3c4.9-2.3,9.8-4.6,14.8-6.9c1.1-0.5,2.4-1.4,3.4-1.2c2.7,0.6,4.6-0.9,6.7-1.9c1.3-0.6,2.5-1.3,3.9-1.9
			c2.3-1,4.3-0.4,5.9,1.5c3,3.4,2.2,7.3-1.8,9.5c-1.8,0.9-3.1,2.2-4.5,3.7c-3,3.3-7.1,5.6-11.7,5.8c-2.1,0.1-3.7,0.7-5.3,1.6
			c-1,0.5-1.5,1.2-0.5,2.2c4.4,5,6.2,11.1,7.1,17.5c0.5,3.1,2,4.4,4.8,5.1c2.3,0.7,3-0.1,3.4-2.3c0.8-4.4,0.9-8.7,0.7-13.1
			c-0.1-2.4-0.1-4.8-0.1-7.2c0-1.3,0.6-2.3,2-2.4c1.2-0.1,1.9,0.7,2.3,1.8c0.2,0.6,0.4,1.3,0.5,2c0.4,4.9,1.1,9.9,0.8,14.8
			c-0.4,5.1-0.2,5.1,4.5,3.3c4.7-1.7,9.4-3.2,14.5-3.3c1.5,0,3,0.1,3.2,2c0.2,1.9-1.3,2.4-2.8,2.6c-0.9,0.1-1.9,0.3-2.8,0.4
			c-3.5,0.5-6.8,1.7-10.6,3.7c3.6,0,6.4,0.6,9.2,1.2c7.7,1.7,14.5,5.1,20.6,10.2c0.8,0.7,1.6,1.5,1.3,2.7c-0.2,0.9-0.7,1.6-1.6,1.9
			c-1.3,0.4-2.2-0.5-3.1-1.2c-5.1-4-10.9-6.7-17.1-8.4c-0.9-0.2-1.8-0.8-2.8,0.1c0.3,0.4,0.5,0.8,0.9,1.1c9.5,9.1,9.5,26.8,0.6,36.9
			c-3.4,3.8-7.6,5.3-12.6,4.5c-4.9-0.7-8.5-3.4-11.2-7.4c1.8,7.4,7.9,13,14.7,14.5c0.2-0.1,0.4-0.3,0.5-0.4c3.1-2.5,6.3-5.1,9.4-7.7
			c0.4-0.3,0.8-0.7,1.2-1c2.6-2.2,5.2-4.4,7.8-6.7c1-0.8,1.9-1.7,2.9-2.5c2.1-1.8,4.2-3.7,6.3-5.6c0.9-0.8,1.8-1.6,2.8-2.5
			c2.6-2.3,5.1-4.6,7.7-6.9c0.3-0.3,0.7-0.6,1-0.9C485.8,336.3,485.8,335.5,485.6,334.7z"/>
		<path class="st8" d="M394.2,210c2.1,0.2,3.2,1.3,4.1,2.6c0.3,0.4,0.6,0.8,0.9,1.3c2.8,4,5.6,7.9,8.4,12c0.6,0.9,1.1,1.3,1.6,1.3
			c0.4,0,0.8-0.4,1.3-1.1c0.1-0.1,0.1-0.2,0.2-0.3c4.8-8.4,9.6-16.7,14.4-25.1c0.1-0.2,0.2-0.4,0.3-0.6c0.3-0.7,0.5-1.5,0.3-2.3
			c0-0.2-0.1-0.4-0.2-0.6c-1.3-2.7-2.5-5.4-3.9-8.2c-0.6-1.2-1.2-2.5-1.8-3.7C412.2,194.5,403,201.7,394.2,210z"/>
		<path class="st8" d="M321,345.9c0.9-0.8,1.7-1.5,2.6-2.3C322.3,343.9,321.3,344.6,321,345.9z"/>
		<path class="st8" d="M323.6,343.7c0.4-0.4,0.8-0.7,1.2-1.1c-3.3-0.1-6.6-0.1-10-0.2c-2.4,0-4.8-0.2-5.2,3
			c-0.4,3.1,1.5,6.4,4.3,6.9c2.4-2.2,4.7-4.3,7.1-6.4C321.3,344.6,322.3,343.9,323.6,343.7z"/>
		<path class="st8" d="M376.5,367c-2-9.1-4-18.2-6.1-27.4c-2.2-9.7-4.4-19.3-6.6-29c0,0,0,0,0,0c-0.8-3.4-1.5-6.7-2.3-10.1
			c-3.5-15.5-7.1-31.1-10.6-46.6c-0.5-2.1-1.5-2.9-3.5-2.8c-3,0.1-12.2,0.1-15.2,0.1c-0.2,0-0.3,0-0.5,0c0.2,0.6,0.4,1.2,0.6,1.8
			c1.2,3.8,0,5.3-4,5.5c-12.7,0.6-25.3,1.2-38,1.8c-5.6,0.3-5.9,0.2-7.3-5.2c-0.1-0.4-0.2-0.7-0.3-1.1c-3,0-11.3,0.2-14.1,0.1
			c-2.4-0.1-3,0.6-2.4,3c2.9,12.2,5.8,24.5,8.5,36.8c0.4,1.8,1.1,2.7,3.1,3.1c4.1,0.7,6.3,3.9,5.9,8.1c-0.1,1.3,0.3,2.1,1.2,3
			c2.6,2.4,3.6,5.4,2.9,8.8c-0.2,1.3-0.2,2.4,0.5,3.6c2,3.4,1.5,6.6-0.6,9.7c-0.6,0.9-1.1,1.7-0.6,2.9c0.9,2.2,0.7,4.3-0.4,6.4
			c-0.5,0.9-0.6,1.8-0.3,2.8c2.5,8.2,3.6,16.8,6.1,25c0.5,1.8,1.4,2.5,3.1,2.6c0,0,0,0,0,0c0.1,0,0.2,0,0.3,0c4.2-0.1,8.4,0,12.6,0
			c21.8,0.2,43.5,0.4,65.3,0.6C377,370.4,377.2,370.3,376.5,367z"/>
		<path class="st8" d="M321.9,352.6c0.4,0,1-0.1,1-0.3c1.3-3.9,4.4-1.5,6.7-1.9c0,0,0,0,0,0c-1.7-0.7-3.6-0.3-5.3-0.5
			c-1.9-0.3-3.4-1-3.3-3.2c0-0.2,0-0.4,0.1-0.6c-2.4,2.1-4.8,4.3-7.1,6.4c0.1,0,0.2,0,0.3,0.1C316.7,352.7,319.3,352.6,321.9,352.6z
			"/>
		<path class="st8" d="M303.9,286.7c2.4,0.4,3.1-0.9,3.5-2.8c0.1-0.3,0.1-0.4-0.5-0.6c-1.9-0.6-2.5-1.9-2.2-3.8
			c0.4-1.9,1.8-2.2,3.5-2.2c3.4-0.1,6.7,0.5,9.9,1.2c1.2,0.3,2.3,0.9,3.1,1.9c1.1,1.5,2.1,3.2,0.6,4.9c-1.4,1.5-3.1,1.1-4.7,0.2
			c-1.3-0.7-2.5-1.7-4-1.5c2.3,3.2,5.6,3.9,9.3,3.8c2.9-0.1,5.7,0.2,8.6,0.3c3.7,0.1,5.5-2.1,4.6-5.7c-1-3.8-3.5-5.8-7.4-5.9
			c-9.8-0.2-19.6-0.4-29.5-0.6c-3.8-0.1-5.5,1.1-5.6,3.8c-0.1,3.8,2.1,6.6,5.4,6.9C300.3,286.8,302.1,286.4,303.9,286.7z"/>
		<path class="st4" d="M260.6,307.2c-0.2,0.7-0.2,1.3,0,1.8c0.2,0.4,0.5,0.6,0.9,0.8c0.4,0.1,0.9,0.2,1.5,0c2.5-0.5,5.1-1.1,7.6-1.8
			c1.7-0.4,3.4-0.8,5.1-1.2c0.3-0.1,0.6-0.2,0.9-0.3c1.1-0.4,1.9-1.1,1.6-2.5c-0.1-0.6-0.4-1.1-0.7-1.4c-0.7-0.6-1.7-0.7-2.6-0.7
			c-0.9,0.1-1.7,0.2-2.5,0.4c-3.1,0.5-6.1,1.3-9.1,2.2C262,304.9,260.9,305.7,260.6,307.2z"/>
		<path class="st4" d="M427.5,386.1c0.7-0.6,1.5-1.1,2.2-1.7C429,385,428.3,385.5,427.5,386.1C427.5,386.1,427.5,386.1,427.5,386.1z
			"/>
		<path class="st4" d="M433.2,381.7c2.5-1.9,5-3.9,7.4-5.8c0,0,0,0,0,0C438.1,377.9,435.7,379.8,433.2,381.7z"/>
		<path class="st8" d="M426.1,360c-1.1-3.2-1.7-6.5-2-9.8c-0.1-0.6,0-1.6-0.4-1.9c-3.6-3-6.5-7.1-11.5-8c-4.2-0.7-7.9-2.3-10.3-6
			c-0.9-1.3-2.3-1.6-3.6-2c-5.1-1.5-9.9-3.3-11-9.5c-0.1-0.6-0.7-1.1-1.2-1.5c-1.7-1.6-2.8-3.5-2.6-5.8c0.2-2.5-1.7-4-2.7-5.9
			c-0.7-1.3-2-0.2-3.1,0.1c-1.6,0.4-1.1,1.5-0.9,2.5c1.8,7.9,3.8,15.8,5.6,23.7c2.9,12.6,5.8,25.3,8.7,38c1,4.3-0.4,5.9-4.8,5.9
			c-3.8,0-7.6,0-11.4,0v-0.1c-3.6,0-7.3,0-10.9,0c-3.8,0-3.8,0-3.7,3.9c0,1.2,0.2,2.5,0.2,3.7c0,1.3-0.5,2.6-2,2.8
			c-1.6,0.2-2.5-1-2.7-2.4c-0.3-1.8-0.3-3.6-0.3-5.4c0-1.7-0.5-2.6-2.5-2.7c-8.6-0.1-17.2-0.3-25.8-0.4c-1.3,0-3.1-0.2-3.6,1.6
			c-0.6,2,0.2,3.6,1.9,4.8c2.7,1.9,5.8,2.3,8.9,2.9c22.5,4.3,45.1,4.6,67.8,1.6c8.5-1.1,17-2.3,25.4-4c0.7-0.6,1.5-1.1,2.2-1.7
			c1.1-0.9,2.3-1.8,3.4-2.6c2.5-1.9,5-3.9,7.4-5.8C433.4,372.9,428.7,367.5,426.1,360z"/>
		<path class="st4" d="M387.9,292.7c-0.9,0.3-1.8,0.7-2.6,1.1c-0.2,0.1-0.4,0.2-0.6,0.3c-0.5,0.2-1,0.5-1.6,0.7
			c-0.9,0.4-1.8,0.9-2.7,1.3c-0.2,0.1-0.4,0.2-0.6,0.3c-0.2,0.1-0.4,0.2-0.6,0.3c-0.6,0.4-1.2,0.9-1.2,1.7c0,0.2,0,0.4,0.1,0.6
			c0,0.2,0.1,0.3,0.2,0.4c0,0.1,0.1,0.1,0.1,0.2c0,0,0,0.1,0.1,0.1C381.6,297.3,384.7,295,387.9,292.7z"/>
		<path class="st4" d="M378.4,299.6C378.4,299.6,378.4,299.6,378.4,299.6c0.1,0.1,0.1,0.1,0.2,0.2c0,0,0.1,0.1,0.1,0.1
			c0.1,0,0.1,0.1,0.2,0.1c0.1,0,0.1,0.1,0.2,0.1c0.1,0,0.1,0.1,0.2,0.1c0.1,0.1,0.3,0.1,0.4,0.1c0.1,0,0.3,0.1,0.4,0.1
			c0.1,0,0.2,0,0.2,0c0.1,0,0.2,0,0.3,0c0.1,0,0.1,0,0.2,0c0.4,0,0.7,0,1.1,0c2.4-0.1,4.7-0.9,7.1-1.5c0.3-0.1,0.5-0.1,0.8-0.2
			c1.3-0.3,2.6-0.7,3.9-1c3.2-0.8,6.5-1.7,9.7-2.5c0.7-0.2,1.4-0.4,2.1-0.3c0.5,0,1,0.3,1.3,0.8c0.1,0.2,0.2,0.3,0.2,0.6
			c0.3,1,0.1,1.7-0.4,2.2c-0.5,0.5-1.3,0.8-2,1c-2.4,0.7-4.8,1.3-7.2,1.9c-2.2,0.6-4.5,1.2-6.7,1.7c-0.5,0.1-0.9,0.3-1.3,0.4
			c-0.1,0-0.2,0.1-0.4,0.1c-0.3,0.1-0.7,0.2-1,0.3c-1.6,0.4-2.4,1.3-2.3,2.8c0,0.2,0.1,0.4,0.1,0.6c0.5,2,2.1,1.7,3.5,1.4
			c2.9-0.6,5.7-1.3,8.6-1.9c1.6-0.4,3.2-0.7,4.8-1.1c0.6-0.1,1.1-0.2,1.7-0.4c0.5-0.1,1-0.1,1.4,0c0,0,0,0,0.1,0c0,0,0,0,0,0
			c0.6,0.2,1,0.6,1.3,1.2c0.1,0.1,0.1,0.3,0.1,0.4c0,0.2,0.1,0.3,0.1,0.5c0,0.2,0,0.4-0.1,0.6c-0.2,0.6-0.6,1.1-1.2,1.4c0,0,0,0,0,0
			c0,0,0,0,0,0c-0.1,0.1-0.3,0.1-0.4,0.2c-2.5,0.7-5,1.3-7.5,1.9c-1.4,0.3-2.7,0.6-4.1,0.9c-1,0.2-1.9,0.4-2.9,0.7
			c-0.3,0.1-0.6,0.2-0.9,0.3c0,0,0,0,0,0c0,0,0,0-0.1,0c-0.9,0.3-1.7,0.9-1.4,2.2c0,0.1,0,0.2,0.1,0.2c0.4,1.6,1.8,1.9,3.2,1.8
			c2.5-0.3,5-0.7,7.5-1c0.8-0.1,1.6-0.2,2.4-0.4c0.1,0,0.2,0,0.3,0c0.4-0.1,0.7-0.1,1.1-0.2c0.2,0,0.4-0.1,0.6-0.1
			c1.1-0.1,2,0.2,2.4,1c0.2,0.3,0.3,0.6,0.3,0.9c0.1,0.9-0.3,1.5-0.8,1.8c-0.3,0.2-0.8,0.4-1.2,0.5c-3.1,0.7-6.2,1.2-9.3,1.9
			c-0.4,0.1-0.8,0.1-1.2,0.2c-0.5,0.1-0.9,0.3-1,0.8c-0.1,0.3-0.1,0.7,0.1,0.9c0,0,0,0.1,0,0.1c0.3,0.5,0.8,0.9,1.3,1.2
			c1.2,0.8,2.5,1.3,3.8,1.7c0.7,0.2,1.4,0.3,2.1,0.4c1.2,0.2,2.3,0.5,3.3,1.1c1,0.6,1.8,1.4,2.6,2.5c1.7,2.5,4.2,3.9,7.3,3.8
			c1,0,1.8,0.1,2.6,0.4c0.7,0.2,1.4,0.6,2,1.1c0.3,0.2,0.7,0.5,1,0.8c4.9,4.3,9.9,8.3,15.2,12c3.1,2.1,6.3,4.1,9.6,5.8
			c1.1,0.6,2.1,1,2.9,1.4c4.4,1.8,5.8,0.4,8-5.8c0.4-1.1,0.8-2.3,1-3.4c0.5-2,0.7-4,0.6-5.9c0.1-1.3,0-2.6-0.1-3.9
			c-0.2-1.6-0.6-3.2-1.2-4.7c-0.3-0.7-0.6-1.3-0.9-1.9c-0.9-1.8-2-3.3-3.4-4.5c-1.2-1-2.6-1.8-4.4-2.3c-2-0.6-3.9-1.2-5.9-1.8
			c-4.6-1.5-9.1-3.1-13.7-4.4c-2.9-0.9-4.2-2.5-4.7-5.4c-0.3-1.5-0.5-3.1-0.8-4.6c-0.5-2.5-1.1-4.9-2-7.3c0-0.1-0.1-0.2-0.1-0.4
			c-0.1-0.2-0.2-0.5-0.3-0.7c-2.2-4.7-5.4-7.8-9.5-9.2c-2.4-0.8-5.1-1.1-8.1-0.7c-0.9,0.1-1.8,0.2-2.7,0.4c-0.1,0-0.2,0-0.3,0.1
			c-0.8,0.1-1.6,0.3-2.5,0.5c-0.2,0-0.3,0.1-0.5,0.1c-1.7,0.4-3.4,0.9-5,1.5c-0.2,0.1-0.3,0.1-0.5,0.2c-0.7,0.3-1.4,0.5-2.1,0.8
			C384.7,295,381.6,297.3,378.4,299.6z"/>
		<path class="st4" d="M421.2,281.6c1.4-0.8,2.8-1.2,4.4-1c0.2,0,0.3,0.1,0.5,0.1c0.3,0.1,0.5,0.1,0.8,0.1c0.7,0,1.3-0.2,1.9-0.7
			c0.1-0.1,0.2-0.1,0.3-0.2c0.4-0.4,0.2-0.7-0.2-1c0,0-0.1-0.1-0.1-0.1c-0.9-0.8-1.9-1.3-3.1-0.9c-1.3,0.5-2.7,1.1-3.9,1.7
			c-0.9,0.4-1.8,0.9-2.7,1.3c-2.1,1-4.3,2-6.5,3.1c1.2,1.1,2.2,0.7,3.2,0.3c0.4-0.2,0.7-0.3,1.1-0.5c1.3-0.6,2.5-1.1,3.7-1.7
			C420.7,281.9,421,281.7,421.2,281.6z"/>
		<path d="M396.7,408.5c-1.3,0.9-2.5,1.8-3.8,2.6C394.2,410.2,395.4,409.4,396.7,408.5z"/>
		<path d="M371.5,425.2c-1.5,0.9-3,1.9-4.5,2.8C368.6,427.1,370.1,426.1,371.5,425.2z"/>
		<path d="M404.9,402.7c-1.2,0.8-2.3,1.7-3.5,2.5C402.6,404.4,403.7,403.6,404.9,402.7z"/>
		<path d="M295.4,369.7C295.4,369.7,295.4,369.7,295.4,369.7c-1.7-0.1-2.6-0.8-3.1-2.6c-2.5-8.2-3.7-16.8-6.1-25
			c-0.3-1-0.2-1.9,0.3-2.8c1.1-2,1.3-4.2,0.4-6.4c-0.5-1.2,0-2,0.6-2.9c2.2-3.1,2.6-6.3,0.6-9.7c-0.7-1.1-0.7-2.3-0.5-3.6
			c0.7-3.4-0.2-6.4-2.9-8.8c-0.9-0.8-1.3-1.6-1.2-3c0.4-4.2-1.8-7.4-5.9-8.1c-2-0.3-2.7-1.3-3.1-3.1c-2.8-12.3-5.6-24.6-8.5-36.8
			c-0.6-2.4,0-3.1,2.4-3c2.8,0.1,11.1-0.1,14.1-0.1c0.1,0.4,0.2,0.7,0.3,1.1c1.5,5.4,1.7,5.5,7.3,5.2c12.7-0.6,25.3-1.1,38-1.8
			c4-0.2,5.2-1.8,4-5.5c-0.2-0.6-0.4-1.2-0.6-1.8c0.2,0,0.3,0,0.5,0c3,0,12.2,0,15.2-0.1c2.1-0.1,3.1,0.7,3.5,2.8
			c3.5,15.5,7.1,31.1,10.6,46.6c0.8,3.4,1.5,6.7,2.3,10.1c0,0,0,0,0,0c4.8-3.7,9.7-7.4,14.7-11.1c0,0,0,0,0,0c0,0,0,0,0-0.1
			c0-0.1-0.1-0.1-0.1-0.2c0,0,0,0,0,0c0,0,0,0,0,0c0-0.1-0.1-0.2-0.1-0.3c-0.1-0.2-0.1-0.4-0.1-0.6c0-0.8,0.6-1.3,1.2-1.7
			c0.2-0.1,0.4-0.2,0.6-0.3c0.2-0.1,0.4-0.2,0.6-0.3c0.9-0.4,1.8-0.9,2.7-1.3c0.2-0.1,0.4-0.2,0.6-0.3c0.3-0.1,0.6-0.3,0.9-0.4
			c0.2-0.1,0.4-0.2,0.6-0.3c0.2-0.1,0.4-0.2,0.5-0.2c0.6-0.3,1.2-0.5,1.9-0.8c0,0,0.1,0,0.2-0.1c0,0,0.1,0,0.1,0
			c1.9-1.3,3.7-2.7,5.6-4c5.2-3.7,10.5-7.3,15.7-10.8c0,0,0,0,0,0c-3,1.4-6,2.9-9,4.3c-1.6,0.8-3,1-4.6,0c-0.2-0.2-0.5-0.2-0.8-0.3
			c-8.7-3.6-14.2-0.9-16.8,8.3c-0.7,2.4-3.6,2.6-4.8,4.6c-0.9-0.6-0.9-1.4-1-2.1c-3.5-15.2-7-30.3-10.4-45.5c-1-4.1-2.2-5.3-6.5-5.2
			c-6.4,0.2-19.1,0.4-25.5,0.8c-0.4,0-0.7,0-1,0.1c-0.1-0.2-0.2-0.5-0.3-0.8c-1.4-4-2.7-5-6.8-4.4c-0.2,0-0.5,0.1-0.7,0.1
			c0-0.2,0.1-0.4,0.1-0.6h-6.6v-1.7c-0.2-0.2-0.4-0.5-0.6-0.7c-4.7-5.5-13.7-6.2-19.6-2.2c-1.7,1.2-2.9,2.8-3.3,4.8
			c-0.3,1.8-1.2,2.4-3,2.4c-1.5,0-3.1,0-4.6,0.2c-3,0.3-4.1,1.7-3.4,4.6c0,0.2,0.1,0.3,0.1,0.5c-1,0-2.2,0-3.7,0.1
			c-4.8,0.2-15.3,0.3-20,0.5c-4.1,0.1-5.5,1.8-4.6,5.9c3.3,14.3,6.7,28.6,10.1,42.9c0.7,2.8,0.9,4.6-2.4,6c-4.2,1.7-5.2,5.6-4.5,9.9
			c0.3,1.9,0.1,3.7-0.3,5.6c-0.9,4.2-0.7,8.2,2.5,11.5c0.2,0.2,0.5,0.4,0.5,0.6c0.2,5.4,4.5,8.8,6.2,13.5c1.5,4.2,3.7,6.2,8.2,6.2
			c2.4,0,2.9,1.4,3.3,3.1c1.8,7.5,3.5,15.1,5.2,22.6c0.9,3.9,2.1,5.3,5.5,5.6C289.3,375.8,292.3,372.8,295.4,369.7z M260.6,307.2
			c0.4-1.4,1.4-2.2,2.7-2.7c2.9-1,5.9-1.7,9.1-2.2c0.8-0.1,1.7-0.3,2.5-0.4c0.9,0,1.9,0.1,2.6,0.7c0.4,0.3,0.6,0.7,0.8,1.4
			c0.3,1.4-0.6,2.1-1.7,2.5c-0.3,0.1-0.6,0.2-0.9,0.3c-1.7,0.4-3.4,0.8-5.1,1.2c-2.5,0.6-5.1,1.2-7.6,1.8c-0.6,0.1-1.1,0.1-1.5,0
			c-0.4-0.1-0.7-0.4-0.9-0.8C260.4,308.5,260.4,307.9,260.6,307.2z M260.8,322c-0.4-0.7-0.6-1.7-0.6-3c0-2.5,0.7-3.6,3-4.2
			c2.4-0.6,4.8-1.2,7.2-1.8c2.2-0.5,4.4-1.1,6.6-1.6c1-0.2,1.9-0.4,2.8-0.2c0.1,0,0.1,0,0.2,0c0.9,0.2,1.6,0.8,2.1,2
			c0.2,0.6,0.3,1.1,0.3,1.5c0,1.7-1.4,2.8-3.2,3.6c-2.2,1-4.5,1.9-6.8,2.7c-2.6,0.8-5.1,1.5-7.8,2.1
			C262.8,323.5,261.5,323.2,260.8,322z M281.4,337.2c-1.6,1.6-3.3,2.9-5.1,3.8c-1.1,0.6-2.2,1-3.3,1.2c-0.9,0-1.6-0.1-2.1-0.4
			c-0.2-0.1-0.3-0.1-0.4-0.2c-0.5-0.4-0.8-0.9-1-1.6c-0.1-0.6,0-1,0.3-1.3c0.3-0.3,0.6-0.4,1-0.5c0.3-0.1,0.6-0.2,0.9-0.3
			c1.3-0.6,2.6-1.1,4-1.6c1.3-0.5,2.7-1,4-1.6c0.1,0,0.1,0,0.2-0.1c0.5-0.2,1-0.4,1.4-0.2c0.2,0.1,0.3,0.2,0.5,0.4c0,0,0,0,0,0
			c0,0,0,0,0,0c0,0,0,0,0,0C282.1,335.7,282,336.6,281.4,337.2z M282.4,327.7c-1.6,1.2-3.3,2.2-5.1,3.1c-0.9,0.4-1.8,0.8-2.7,1.2
			c-1.8,0.7-3.6,1.3-5.4,1.8c-0.3,0.1-0.5,0.2-0.8,0.2c-1.1,0-2-0.3-2.7-0.9c-0.9-0.7-1.5-1.7-1.6-2.9c0-0.1,0-0.2,0-0.2
			c-0.1-1.6,0.9-2.2,2.2-2.5c0,0,0,0,0,0c0,0,0.1,0,0.1,0c0.1,0,0.3-0.1,0.4-0.1c0.5-0.1,0.9-0.2,1.4-0.4c4-1,7.8-2.3,11.7-3.6
			c0.1,0,0.2-0.1,0.3-0.1c0.1,0,0.3-0.1,0.4-0.1c1.1-0.3,2.2-0.5,2.8,0.8c0.5,0.9,0.4,1.9,0,2.7
			C283.1,327.1,282.8,327.4,282.4,327.7z"/>
		<path d="M388.4,414.2c-1.3,0.9-2.7,1.8-4,2.7C385.7,416,387,415.1,388.4,414.2z"/>
		<path d="M380,419.7c-1.4,0.9-2.8,1.8-4.2,2.7C377.2,421.6,378.6,420.7,380,419.7z"/>
		<path d="M412.9,397c-1,0.8-2.1,1.5-3.1,2.3C410.9,398.5,411.9,397.7,412.9,397z"/>
		<path d="M350.8,151.5c-1.8-7.6,0.2-15.2-0.9-21.8c-0.1-7,1.5-8,7.3-5.6c0.4,0.2,0.7,0.3,1,0.5c1.3,0.6,2.7,1,3.5-0.6
			c0.8-1.6-0.4-2.5-1.6-3.2c-2.3-1.4-4.9-2.2-7.6-2c-2.2,0.1-2.9-0.9-2.7-2.9c0.2-2.7,0.5-5.3,1.3-7.9c1.4-4.8,3.4-9.3,7.1-12.9
			c1.3-1.2,2.1-1.2,3.1,0.3c1.9,2.8,4.1,5.3,6.6,7.5c9.4,8.1,20.4,12.9,32.2,16c3.4,0.9,5.2,2.8,6.1,6c0.7,2.7,0.5,5.5,0.8,8.2
			c0.2,1.5,0,3.5,2.4,3.6c2.2,0.1,4.8,1.2,6.1-2c1.1-2.6,2.8-4.8,5.6-5.8c5-1.8,8.7,0.7,8.6,6c0,1.2-0.2,2.5-0.6,3.6
			c-1.7,4.4-4.2,8.4-7.8,11.5c-1.9,1.6-4.1,2.5-6.6,1.6c-2.5-0.9-4,0.1-5.2,2.2c-1.1,1.9-2.2,3.7-3.5,5.3h27.3
			c-1.4-3.3-1-6.9,1.1-10.2c4.5-6.9,8-14.2,9-22.4c2.4-21.1-3.6-39.2-21.4-51.7c-15.7-11-33.2-13.9-51.4-6.8c-5.2,2-10,4.8-15.2,7
			c-11.8,4.9-19.3,19.5-17.7,32.3c0.7,5.8,2.6,11.1,5.7,16c1.2,1.9,1.6,3.7,1.6,5.9c-0.1,8.2-0.9,16.4,1.2,24.5
			c0.5,1.8,1,3.7,1.6,5.4h5.4C352.2,156.6,351.4,154,350.8,151.5z"/>
		<path d="M440.6,375.9C440.6,375.9,440.6,375.9,440.6,375.9c1.9-1.5,3.8-3.1,5.7-4.6c0,0,0,0,0,0
			C444.4,372.8,442.5,374.4,440.6,375.9z"/>
		<path d="M426.8,386.7c0.3-0.2,0.5-0.4,0.8-0.6c0,0,0,0,0,0C427.3,386.3,427,386.5,426.8,386.7z"/>
		<path d="M420.9,391.1c-0.9,0.6-1.7,1.3-2.6,1.9C419.1,392.4,420,391.8,420.9,391.1z"/>
		<path d="M485.9,337.1C485.9,337.1,485.9,337.1,485.9,337.1c0.2-0.1,0.3-0.3,0.4-0.4c1.8-1.6,3.5-3.3,5.3-4.9c0,0,0,0,0,0
			c-1.8,1.6-3.5,3.3-5.3,4.9C486.2,336.9,486,337,485.9,337.1z"/>
		<path d="M359.1,433c1.3-0.8,2.7-1.7,4-2.5C361.8,431.3,360.4,432.1,359.1,433C359.1,433,359.1,433,359.1,433z"/>
		<path d="M373.8,242c-1.4,4.8-2.7,9.6-4.1,14.3c-0.5,1.8-0.8,3.5,1.6,4.1c2.3,0.6,2.7-1.2,3.1-2.8c0.7-2.5,1.5-4.9,2.1-7.4
			c1.1-4.6,2.8-9,4.7-13.2h-7.5c0.1,0.2,0.2,0.4,0.2,0.6C374.5,239.1,374.2,240.5,373.8,242z"/>
		<path d="M470.3,228.4c1.2,3.8,2.2,7.6,3,11.5c0.7-0.3,1.3-0.7,2-1c1.2-0.6,2.5-1.2,3.7-1.9c-0.5-2.5-1-4.9-1.6-7.4
			c-2-8.6-6.6-14.9-14.7-18.7v7.2C466.5,220.4,468.9,224,470.3,228.4z"/>
		<path d="M369.7,223.4c0.2,1.2,1,2.1,2.3,2.1c1.1,0,1.6-0.7,1.7-1.6c-1.1-2.5-2.1-5.1-3.2-7.6C369.9,219.4,369.5,222.2,369.7,223.4
			z"/>
		<path d="M321.2,237c0.9-4.9,4.5-11.6,4.6-11.8c5.1-8.8,14-12.6,23.1-16c4.9-1.8,4.6-1.9,3.6,3c-0.8,3.9-1.4,7.9-2.1,11.8
			c-0.3,1.6-0.2,3.1,1.5,4c1.6,0.8,2.7-0.2,3.8-1.3c2.7-2.7,5.4-5.4,8-8.2c1.1-1.1,1.6-1,2.2,0.4c2.6,6,5.2,12.1,7.8,18.1h7.5
			c3.4-7.6,7.6-15,10.8-22.7c0.1-0.3,0.4-0.6,0.8-1.1c3.2,4.7,6.3,9.3,9.4,13.8c1.3,2,2.7,3.9,4.1,5.9c2.4,3.2,4.6,3.2,6.6-0.3
			c5-8.6,10-17.2,14.9-25.8c2.6-4.6,2.6-4.7,7.3-2.4c8.7,4.2,17.3,8.5,26,12.8c0.5,0.3,1,0.5,1.5,0.8v-7.2c-0.1-0.1-0.2-0.1-0.3-0.2
			c-9.8-4.4-19.4-9.4-29.2-14.1c-1.2-0.6-1.9-1.5-2.5-2.6c-2-3.6-3.7-7.3-5.3-11.1c-1.2-3-3-5.4-6.1-6.4c-2.1-0.7-2-2.4-1.8-4
			c0.2-1.8,1.8-1,2.8-1c5.6-0.2,10.7-1.8,15.2-5.1c1.6-1.1,2.1-2.1,0.4-3.8c-1.1-1.1-1.9-2.4-2.4-3.7h-27.3
			c-7.4,9.6-18.2,14.3-30.1,17.5c-7.6,2-13.3-1.3-17.5-7.2c-2.3-3.2-4-6.6-5.4-10.2h-5.4c2.2,6.9,5.6,13.3,11.2,18.4
			c3.5,3.1,7.5,4.8,12.3,4.6c1,0,2.5-0.5,2.8,1.1c0.3,1.4-1,1.9-2,2.5c-4.2,2.7-8.6,5-12.2,8.5c-0.9,0.9-2,1.7-2.5,2.7
			c-1.9,4.2-5.7,5.6-9.6,7c-6.9,2.6-13.8,5.2-19.5,10c-2.5,2.1-4.7,4.5-6.4,7.3c-1,1.2-2.1,4-3.2,7c-1.1,3-2.1,6.1-2.7,8.2
			c-0.4-0.3-0.9-0.7-1.3-1.1v1.7H321.2z M419.9,185.2C419.9,185.2,419.9,185.2,419.9,185.2C419.9,185.2,419.9,185.2,419.9,185.2
			c0.6,1.3,1.2,2.5,1.8,3.7c1.3,2.8,2.6,5.5,3.9,8.1c0.1,0.2,0.2,0.4,0.2,0.6c0.2,0.8,0,1.6-0.3,2.3c-0.1,0.2-0.2,0.4-0.3,0.6
			c-4.8,8.4-9.6,16.7-14.4,25.1c-0.1,0.1-0.1,0.2-0.2,0.3c-0.4,0.7-0.8,1-1.3,1.1c-0.5,0-1-0.4-1.6-1.3c-2.7-4-5.5-8-8.4-12
			c-0.3-0.4-0.6-0.8-0.9-1.3c-1-1.3-2.1-2.4-4.1-2.6c0,0,0,0,0,0c0,0,0,0,0,0C403,201.7,412.2,194.5,419.9,185.2z M359.1,207.3
			c0.7-4.3,2.6-8,6.1-10.7c1.9-1.4,3.8-2.9,5.8-4.2c0.9-0.6,1.9-1.8,3-1c0.9,0.7,0.8,2.1,0.6,3.2c-0.3,3.5-0.5,7-1.5,10.5
			c-0.5,1.8-1.8,6.8-2.7,11.3c1.1,2.5,2.2,5.1,3.2,7.6c0-0.1,0-0.2,0-0.3c0.4-8,6.4-24.7,5.8-32.8c-0.1-1.5,0.5-2.5,2-3.1
			c8.9-3.5,15.1-10.1,20.9-17.3c2.3-2.8,4.7-5.4,7.5-8.5c1.2,2.4,1.6,4.5,1.5,6.6c-0.2,4.5,0.3,9,1.3,13.3c0.5,2,0.1,3.5-1.4,4.9
			c-4.3,4-8.3,8.5-13,12c-6.9,5-11.7,11.2-14.4,19.3c-1.6,4.8-4.1,9.3-6.5,14.6c-0.6-1.4-1-2.2-1.4-3.1c-0.8-1.9-1.6-3.7-2.3-5.6
			c-0.1,0.9-0.5,1.6-1.7,1.6c-1.4-0.1-2.1-0.9-2.3-2.1c-0.2-1.3,0.2-4,0.8-7.1c-0.6-1.3-1.1-2.6-1.7-4c-1.3-3.1-3-3.4-5.4-1.1
			c-1.9,1.9-3.7,3.8-6,6.2C358,213.7,358.6,210.5,359.1,207.3z"/>
		<path d="M485.6,283.3c-1.6-15.5-3.5-31-6.7-46.4c0,0,0,0,0,0c-1.2,0.6-2.5,1.2-3.7,1.9c-0.7,0.3-1.3,0.7-2,1c0,0,0,0,0,0
			c1.5,6.8,2.5,13.6,3.4,20.5c1.4,10.8,2.6,21.6,3.7,32.4c1,10.1,1.8,20.2,3.3,30.2c0.6,4,1.5,7.9,2,11.8c0.1,0.8,0.2,1.6,0.2,2.4
			c0.1-0.1,0.3-0.3,0.4-0.4c1.8-1.6,3.5-3.3,5.3-4.9c-0.2-1.7-0.5-3.3-0.9-5C487.6,312.5,487.1,297.8,485.6,283.3z"/>
		<path d="M402.1,390.1c-22.7,2.9-45.3,2.6-67.8-1.6c-3.1-0.6-6.3-1-8.9-2.9c-1.6-1.2-2.4-2.8-1.9-4.8c0.5-1.8,2.2-1.6,3.6-1.6
			c8.6,0.1,17.2,0.3,25.8,0.4c1.9,0,2.5,0.9,2.5,2.7c0,1.8,0.1,3.6,0.3,5.4c0.2,1.4,1.1,2.6,2.7,2.4c1.5-0.2,1.9-1.5,2-2.8
			c0-1.2-0.1-2.5-0.2-3.7c-0.1-3.9-0.1-3.9,3.7-3.9c3.6,0,7.3,0,10.9,0v0.1c3.8,0,7.6,0,11.4,0c4.4,0,5.7-1.6,4.8-5.9
			c-2.8-12.7-5.7-25.3-8.7-38c-1.8-7.9-3.7-15.8-5.6-23.7c-0.2-1-0.7-2.2,0.9-2.5c1-0.2,2.4-1.4,3.1-0.1c1,1.9,2.9,3.4,2.7,5.9
			c-0.2,2.3,0.9,4.2,2.6,5.8c0.5,0.4,1.1,1,1.2,1.5c1.2,6.1,6,7.9,11,9.5c1.4,0.4,2.8,0.7,3.6,2c2.4,3.7,6.1,5.3,10.3,6
			c5,0.9,7.9,5,11.5,8c0.4,0.3,0.3,1.2,0.4,1.9c0.3,3.3,1,6.6,2,9.8c2.6,7.5,7.3,13,14.4,15.9c1.9-1.5,3.8-3.1,5.7-4.6
			c-6.8-1.5-12.9-7.1-14.7-14.5c2.7,4.1,6.3,6.7,11.2,7.4c5,0.7,9.2-0.7,12.6-4.5c8.9-10.1,9-27.8-0.6-36.9
			c-0.3-0.3-0.6-0.7-0.9-1.1c1-0.8,1.9-0.3,2.8-0.1c6.3,1.7,12,4.4,17.1,8.4c0.9,0.7,1.8,1.5,3.1,1.2c0.9-0.3,1.4-1,1.6-1.9
			c0.2-1.2-0.5-2-1.3-2.7c-6.1-5-12.9-8.5-20.6-10.2c-2.8-0.6-5.5-1.2-9.2-1.2c3.8-2,7-3.2,10.6-3.7c0.9-0.1,1.9-0.3,2.8-0.4
			c1.5-0.2,3-0.7,2.8-2.6c-0.2-1.9-1.7-2-3.2-2c-5,0.2-9.8,1.6-14.5,3.3c-4.7,1.7-4.8,1.8-4.5-3.3c0.3-5-0.4-9.9-0.8-14.8
			c0-0.7-0.2-1.3-0.5-2c-0.4-1.1-1.1-1.9-2.3-1.8c-1.4,0.1-2,1.1-2,2.4c0,2.4,0,4.8,0.1,7.2c0.2,4.4,0,8.8-0.7,13.1
			c-0.4,2.1-1.1,2.9-3.4,2.3c-2.8-0.8-4.3-2-4.8-5.1c-0.9-6.4-2.8-12.5-7.1-17.5c-0.9-1.1-0.4-1.7,0.5-2.2c1.7-0.9,3.3-1.5,5.3-1.6
			c4.6-0.2,8.7-2.5,11.7-5.8c1.4-1.5,2.7-2.8,4.5-3.7c4.1-2.1,4.8-6,1.8-9.5c-1.6-1.9-3.6-2.5-5.9-1.5c-1.3,0.6-2.6,1.3-3.9,1.9
			c-2.1,1-4,2.4-6.7,1.9c-1-0.2-2.3,0.7-3.4,1.2c-4.9,2.3-9.9,4.6-14.8,6.9c-5.3,3.6-10.5,7.2-15.7,10.8c-1.9,1.3-3.8,2.7-5.6,4
			c0.5-0.2,1-0.4,1.6-0.6c0.2-0.1,0.4-0.1,0.6-0.2c0.2-0.1,0.3-0.1,0.5-0.2c0.1,0,0.3-0.1,0.4-0.1c0.7-0.2,1.4-0.5,2.1-0.7
			c0.8-0.2,1.6-0.5,2.5-0.7c0.2,0,0.3-0.1,0.5-0.1c0.1,0,0.2,0,0.2-0.1c0.6-0.1,1.2-0.2,1.7-0.4c0.2,0,0.3-0.1,0.5-0.1
			c0.1,0,0.2,0,0.3-0.1c0.3,0,0.5-0.1,0.8-0.1c0.1,0,0.1,0,0.2,0c0.6-0.1,1.1-0.2,1.7-0.2c3-0.3,5.7-0.1,8.1,0.7
			c4.2,1.4,7.3,4.5,9.5,9.2c0.1,0.2,0.2,0.5,0.3,0.7c0.1,0.1,0.1,0.2,0.1,0.4c1,2.4,1.6,4.8,2,7.3c0.3,1.5,0.5,3.1,0.8,4.6
			c0.5,2.8,1.8,4.5,4.7,5.4c4.6,1.4,9.2,3,13.7,4.4c2,0.6,3.9,1.3,5.9,1.8c1.8,0.5,3.2,1.3,4.4,2.3c1.5,1.2,2.6,2.8,3.4,4.5
			c0.3,0.6,0.6,1.3,0.9,1.9c0.6,1.5,1,3.1,1.2,4.7c0.2,1.3,0.2,2.5,0.1,3.9c0.1,2-0.1,4-0.6,5.9c-0.3,1.1-0.6,2.3-1,3.4
			c-2.2,6.1-3.6,7.5-8,5.8c-0.9-0.3-1.8-0.8-2.9-1.4c-3.3-1.7-6.5-3.7-9.6-5.8c-5.3-3.6-10.4-7.7-15.2-12c-0.3-0.3-0.6-0.5-1-0.8
			c-0.7-0.5-1.3-0.8-2-1.1c-0.8-0.3-1.7-0.4-2.6-0.4c-3.1,0-5.6-1.3-7.3-3.8c-0.7-1.1-1.6-1.9-2.6-2.5c-1-0.6-2.1-0.9-3.3-1.1
			c-0.7-0.1-1.4-0.3-2.1-0.4c-1.3-0.4-2.6-0.9-3.8-1.7c-0.5-0.3-1-0.7-1.3-1.2c0,0,0-0.1,0-0.1c-0.1-0.3-0.2-0.6-0.1-0.9
			c0.1-0.5,0.6-0.7,1-0.8c0.4-0.1,0.8-0.1,1.2-0.2c3.1-0.6,6.2-1.2,9.3-1.9c0.5-0.1,0.9-0.2,1.2-0.5c0.6-0.4,0.9-1,0.8-1.8
			c0-0.4-0.2-0.7-0.3-0.9c-0.5-0.8-1.4-1-2.4-1c-0.2,0-0.4,0-0.6,0.1c-0.4,0.1-0.7,0.1-1.1,0.2c-0.1,0-0.2,0-0.3,0.1
			c-0.8,0.1-1.6,0.2-2.4,0.4c-2.5,0.4-5,0.7-7.5,1c-1.5,0.2-2.8-0.2-3.2-1.8c0-0.1-0.1-0.2-0.1-0.2c-0.2-1.4,0.5-1.9,1.4-2.2
			c0,0,0,0,0.1,0c0,0,0,0,0,0c0.3-0.1,0.6-0.2,0.9-0.3c1-0.2,1.9-0.5,2.9-0.7c1.4-0.3,2.7-0.6,4.1-0.9c2.5-0.6,5-1.2,7.5-1.9
			c0.1,0,0.3-0.1,0.4-0.1c0,0,0,0,0,0c0,0,0,0,0,0c0.6-0.3,1.1-0.7,1.2-1.4c0-0.2,0.1-0.4,0.1-0.6c0-0.2,0-0.3-0.1-0.5
			c0-0.1-0.1-0.3-0.1-0.4c-0.3-0.6-0.7-1-1.3-1.2c0,0,0,0,0,0c0,0,0,0-0.1,0c-0.4-0.1-0.9-0.1-1.4,0c-0.6,0.1-1.1,0.2-1.7,0.4
			c-1.6,0.4-3.2,0.7-4.8,1.1c-2.9,0.7-5.7,1.3-8.6,1.9c-1.4,0.3-3,0.6-3.5-1.4c-0.1-0.2-0.1-0.4-0.1-0.6c-0.2-1.5,0.7-2.4,2.3-2.8
			c0.3-0.1,0.7-0.2,1-0.3c0.1,0,0.2-0.1,0.4-0.1c0.4-0.2,0.9-0.3,1.3-0.4c2.2-0.6,4.5-1.2,6.7-1.7c2.4-0.6,4.8-1.2,7.2-1.9
			c0.8-0.2,1.5-0.5,2-1c0.5-0.5,0.7-1.2,0.4-2.2c-0.1-0.2-0.1-0.4-0.2-0.6c-0.3-0.6-0.8-0.8-1.3-0.8c-0.7-0.1-1.4,0.2-2.1,0.3
			c-3.2,0.8-6.5,1.6-9.7,2.5c-1.3,0.3-2.6,0.7-3.9,1c-0.3,0.1-0.6,0.1-0.8,0.2c-2.3,0.6-4.6,1.4-7.1,1.5c-0.3,0-0.7,0-1.1,0
			c-0.1,0-0.1,0-0.2,0c-0.1,0-0.2,0-0.3,0c-0.1,0-0.2,0-0.2,0c-0.2,0-0.3,0-0.4-0.1c0,0-0.1,0-0.1,0c-0.1,0-0.2,0-0.2-0.1
			c0,0-0.1,0-0.1,0c-0.1,0-0.1-0.1-0.2-0.1c-0.1,0-0.1-0.1-0.2-0.1c-0.1,0-0.1-0.1-0.2-0.1c0,0-0.1,0-0.1-0.1c0,0,0,0,0,0
			c-0.1,0-0.1-0.1-0.2-0.2c0,0,0,0,0,0c-4.9,3.6-9.8,7.3-14.7,11.1c2.2,9.7,4.4,19.3,6.6,29c2.1,9.1,4.1,18.2,6.1,27.4
			c0.7,3.3,0.5,3.4-2.8,3.4c-21.8-0.2-43.5-0.4-65.3-0.6c-4.2,0-8.4-0.1-12.6,0c-0.1,0-0.2,0-0.3,0c-3.1,3-6.1,6.1-9.1,9.1
			c0,0,0,0,0,0c0.5,0,1,0.1,1.6,0.1c9.1,0.1,18.2,0.1,27.2,0.1c1.9,0,2.8,0.4,2.4,2.6c-0.5,2.8,0.4,5.4,2.4,7.3
			c1.1,1.1,1.2,2.2,1,3.6c-1.5,12.4-3.5,24.8-3.7,37.3c-0.1,2.5,0.6,3.1,3,3.1c12.9,0,25.9,0,38.8,0c1.4-0.8,2.7-1.7,4-2.5
			c1.3-0.8,2.6-1.6,3.9-2.5c1.5-0.9,3-1.9,4.5-2.8c1.4-0.9,2.8-1.8,4.2-2.7c1.4-0.9,2.8-1.8,4.2-2.7c1.5-1,2.9-1.9,4.4-2.9
			c1.3-0.9,2.7-1.8,4-2.7c1.5-1,3-2,4.5-3.1c1.3-0.9,2.5-1.7,3.8-2.6c1.6-1.1,3.1-2.2,4.7-3.3c1.2-0.8,2.3-1.7,3.5-2.5
			c1.7-1.2,3.3-2.4,5-3.5c1-0.7,2.1-1.5,3.1-2.3c1.8-1.3,3.6-2.6,5.4-3.9c0.9-0.6,1.7-1.3,2.6-1.9c2-1.5,4-3,5.9-4.5
			c0.2-0.2,0.5-0.4,0.7-0.6C419.1,387.8,410.6,389,402.1,390.1z M415.6,284.3c-1,0.5-2,0.8-3.2-0.3c0,0,0,0,0,0c0,0,0,0,0,0
			c2.3-1.1,4.4-2.1,6.6-3.1c0.9-0.4,1.8-0.9,2.7-1.3c1.3-0.6,2.6-1.2,3.9-1.7c1.2-0.5,2.2,0.1,3.1,0.9c0.1,0,0.1,0.1,0.1,0.1
			c0.3,0.3,0.5,0.7,0.2,1c-0.1,0.1-0.2,0.1-0.3,0.2c-0.5,0.5-1.2,0.7-1.9,0.7c-0.3,0-0.5,0-0.8-0.1c-0.2,0-0.3-0.1-0.5-0.1
			c-1.6-0.3-2.9,0.1-4.4,1c-0.3,0.2-0.6,0.3-0.9,0.5c-1.2,0.6-2.5,1.2-3.7,1.7C416.3,283.9,415.9,284.1,415.6,284.3z"/>
		<path d="M272.5,321c-2.6,0.8-5.1,1.5-7.8,2.1c-2,0.4-3.2,0-3.9-1.1c0.7,1.2,1.9,1.5,3.9,1.1C267.4,322.6,270,321.9,272.5,321z"/>
		<path d="M280,311.3c-0.8-0.2-1.8-0.1-2.8,0.2c-2.2,0.6-4.4,1.1-6.6,1.6c2.2-0.5,4.4-1.1,6.6-1.6
			C278.2,311.2,279.1,311.1,280,311.3z"/>
		<path d="M282.2,313.3c0.2,0.6,0.3,1.1,0.3,1.5C282.5,314.3,282.4,313.8,282.2,313.3c-0.4-1.2-1.2-1.7-2.1-2
			C281,311.5,281.8,312.1,282.2,313.3z"/>
		<path d="M279.8,334.8c-0.1,0-0.1,0-0.2,0.1c-1.3,0.5-2.7,1-4,1.6c1.3-0.5,2.6-1,4-1.6C279.7,334.9,279.7,334.8,279.8,334.8z"/>
		<path d="M281.7,335C281.7,335,281.7,335,281.7,335c-0.1-0.2-0.3-0.3-0.5-0.4C281.4,334.7,281.5,334.8,281.7,335z"/>
		<path d="M281.4,337.2c-1.6,1.6-3.3,2.9-5.1,3.8C278.1,340.1,279.9,338.7,281.4,337.2c0.6-0.6,0.7-1.4,0.2-2.1
			C282.1,335.7,282,336.6,281.4,337.2z"/>
		<path d="M270.8,338.3c-0.4,0.1-0.8,0.2-1,0.5C270,338.5,270.4,338.4,270.8,338.3z"/>
		<path d="M270.9,341.9c-0.2-0.1-0.3-0.1-0.4-0.2C270.6,341.7,270.8,341.8,270.9,341.9z"/>
		<path d="M277.3,330.8c-0.9,0.4-1.8,0.8-2.7,1.2C275.5,331.7,276.4,331.3,277.3,330.8z"/>
		<path d="M266.2,327.4c0,0,0.1,0,0.1,0C266.3,327.4,266.2,327.4,266.2,327.4z"/>
		<path d="M283.4,323.9c-0.7-1.3-1.8-1.1-2.8-0.8C281.6,322.8,282.7,322.6,283.4,323.9c0.5,0.9,0.4,1.9,0,2.7
			C283.8,325.8,283.9,324.9,283.4,323.9z"/>
		<path d="M280.1,323.2c-0.1,0-0.2,0.1-0.3,0.1c-3.9,1.3-7.7,2.6-11.7,3.6c4-1,7.8-2.3,11.7-3.6C279.9,323.3,280,323.3,280.1,323.2z
			"/>
		<path d="M266.1,327.5c-1.2,0.3-2.3,0.9-2.2,2.5C263.9,328.3,264.9,327.8,266.1,327.5z"/>
		<path d="M265.6,333.1c0.7,0.6,1.7,0.9,2.7,0.9c0.3-0.1,0.5-0.2,0.8-0.2c-0.3,0.1-0.5,0.2-0.8,0.2
			C267.3,334,266.4,333.7,265.6,333.1z"/>
		<path d="M394.2,210C394.2,210,394.2,210,394.2,210c2.1,0.2,3.2,1.3,4.1,2.6C397.4,211.3,396.3,210.1,394.2,210z"/>
		<path d="M425.4,200c0.3-0.7,0.5-1.5,0.3-2.3C425.9,198.5,425.7,199.3,425.4,200z"/>
		<path d="M409.2,227.1c0.4,0,0.8-0.4,1.3-1.1C410.1,226.7,409.6,227,409.2,227.1z"/>
		<path d="M419.9,185.2C419.9,185.2,419.9,185.2,419.9,185.2c0.6,1.3,1.2,2.5,1.8,3.7C421,187.7,420.5,186.5,419.9,185.2z"/>
		<path d="M270.5,308c1.7-0.4,3.4-0.8,5.1-1.2c0.3-0.1,0.6-0.2,0.9-0.3c-0.3,0.1-0.6,0.2-0.9,0.3C273.9,307.2,272.2,307.6,270.5,308
			z"/>
		<path d="M260.6,309c0.2,0.4,0.5,0.6,0.9,0.8C261,309.6,260.7,309.3,260.6,309z"/>
		<path d="M277.5,302.6c-0.7-0.6-1.7-0.7-2.6-0.7c-0.9,0.1-1.7,0.2-2.5,0.4c0.8-0.1,1.7-0.3,2.5-0.4
			C275.8,301.9,276.8,302,277.5,302.6z"/>
		<path d="M380.4,296c0.9-0.4,1.8-0.9,2.7-1.3C382.2,295.2,381.3,295.6,380.4,296z"/>
		<path d="M384.7,294c0.2-0.1,0.4-0.2,0.6-0.3C385.1,293.9,384.9,293.9,384.7,294z"/>
		<path d="M378.4,299.5c0-0.1-0.1-0.1-0.1-0.2C378.3,299.4,378.3,299.4,378.4,299.5z"/>
		<path d="M379.2,296.7c-0.7,0.4-1.2,0.9-1.2,1.7C378,297.5,378.6,297,379.2,296.7z"/>
		<path d="M380.1,300.4c-0.2,0-0.3,0-0.4-0.1C379.9,300.3,380,300.3,380.1,300.4z"/>
		<path d="M406,305.3C406,305.3,406,305.3,406,305.3C406,305.3,406,305.3,406,305.3z"/>
		<path d="M395.5,290.3c0.2,0,0.3-0.1,0.5-0.1C395.8,290.2,395.7,290.2,395.5,290.3z"/>
		<path d="M419.1,299.2c-2.2-4.7-5.4-7.8-9.5-9.2C413.7,291.4,416.9,294.4,419.1,299.2z"/>
		<path d="M390,291.9c0.2-0.1,0.3-0.1,0.5-0.2C390.4,291.8,390.2,291.8,390,291.9z"/>
		<path d="M398.5,289.7c0.1,0,0.2,0,0.3-0.1C398.7,289.6,398.6,289.6,398.5,289.7z"/>
		<path d="M378.9,300c-0.1,0-0.1-0.1-0.2-0.1C378.8,299.9,378.9,300,378.9,300z"/>
		<path d="M378.6,299.8c-0.1-0.1-0.1-0.1-0.2-0.2C378.5,299.6,378.5,299.7,378.6,299.8z"/>
		<path d="M390.3,313.3C390.3,313.3,390.3,313.3,390.3,313.3C390.3,313.3,390.3,313.3,390.3,313.3z"/>
		<path d="M379.3,300.2c-0.1,0-0.1-0.1-0.2-0.1C379.2,300.1,379.2,300.1,379.3,300.2z"/>
		<path d="M403.4,315.9c-0.4,0.1-0.7,0.1-1.1,0.2C402.7,316,403.1,316,403.4,315.9z"/>
		<path d="M389,298.9c-2.3,0.6-4.6,1.4-7.1,1.5C384.4,300.3,386.7,299.5,389,298.9z"/>
		<path d="M419.6,300.3c1,2.4,1.6,4.8,2,7.3C421.1,305,420.5,302.6,419.6,300.3z"/>
		<path d="M380.7,300.4c-0.1,0-0.2,0-0.3,0C380.5,300.4,380.6,300.4,380.7,300.4z"/>
		<path d="M403.5,295.2c-3.2,0.8-6.5,1.6-9.7,2.5C397,296.9,400.2,296,403.5,295.2c0.7-0.2,1.4-0.4,2.1-0.3
			C404.9,294.8,404.1,295,403.5,295.2z"/>
		<path d="M451.1,326c-1.2-1-2.6-1.8-4.4-2.3c-2-0.6-3.9-1.2-5.9-1.8c2,0.6,3.9,1.3,5.9,1.8C448.5,324.2,449.9,325,451.1,326z"/>
		<path d="M404.5,305.3c-0.6,0.1-1.1,0.2-1.7,0.4c-1.6,0.4-3.2,0.7-4.8,1.1c1.6-0.4,3.2-0.7,4.8-1.1
			C403.4,305.5,404,305.4,404.5,305.3c0.5-0.1,1-0.1,1.4,0C405.5,305.2,405,305.2,404.5,305.3z"/>
		<path d="M397.5,301.4c-2.2,0.6-4.5,1.1-6.7,1.7c-0.5,0.1-0.9,0.3-1.3,0.4c0.4-0.2,0.9-0.3,1.3-0.4
			C393,302.5,395.3,302,397.5,301.4z"/>
		<path d="M388.1,304c0.3-0.1,0.7-0.2,1-0.3C388.8,303.8,388.4,303.9,388.1,304c-1.6,0.4-2.4,1.3-2.3,2.8
			C385.6,305.3,386.5,304.4,388.1,304z"/>
		<path d="M407.3,306.5c0.1,0.1,0.1,0.3,0.1,0.4c0,0.2,0.1,0.3,0.1,0.5c0-0.2,0-0.3-0.1-0.5C407.4,306.7,407.3,306.6,407.3,306.5z"
			/>
		<path d="M388.9,315.8c0.4,1.6,1.8,1.9,3.2,1.8c2.5-0.3,5-0.7,7.5-1c-2.5,0.4-5,0.7-7.5,1C390.6,317.7,389.3,317.3,388.9,315.8z"/>
		<path d="M393.2,322.9c0.1-0.5,0.6-0.7,1-0.8C393.8,322.2,393.4,322.4,393.2,322.9c-0.1,0.3-0.1,0.7,0.1,0.9
			C393.2,323.6,393.1,323.3,393.2,322.9z"/>
		<path d="M406.4,330.9c-0.7-1.1-1.6-1.9-2.6-2.5C404.8,329,405.7,329.8,406.4,330.9c1.7,2.5,4.2,3.9,7.3,3.8c1,0,1.8,0.1,2.6,0.4
			c-0.8-0.3-1.7-0.4-2.6-0.4C410.7,334.8,408.1,333.4,406.4,330.9z"/>
		<path d="M393.3,324c0.3,0.5,0.8,0.9,1.3,1.2c1.2,0.8,2.5,1.3,3.8,1.7c-1.3-0.4-2.6-0.9-3.8-1.7C394.2,324.9,393.6,324.5,393.3,324
			z"/>
		<path d="M394.2,312.3c-1,0.2-1.9,0.4-2.9,0.7c-0.3,0.1-0.6,0.2-0.9,0.3c0.3-0.1,0.6-0.2,0.9-0.3
			C392.2,312.8,393.2,312.5,394.2,312.3z"/>
		<path d="M407.4,307.9c-0.2,0.6-0.6,1.1-1.2,1.4C406.8,309,407.3,308.6,407.4,307.9z"/>
		<path d="M406.7,317.7c-0.1-0.4-0.2-0.7-0.3-0.9C406.6,317,406.7,317.3,406.7,317.7c0.1,0.9-0.3,1.5-0.8,1.8
			C406.5,319.2,406.8,318.6,406.7,317.7z"/>
		<path d="M406.2,309.3C406.2,309.3,406.2,309.3,406.2,309.3C406.2,309.3,406.2,309.3,406.2,309.3z"/>
		<path d="M418.4,336.2c0.3,0.2,0.7,0.5,1,0.8c4.9,4.3,9.9,8.3,15.2,12c-5.3-3.6-10.4-7.7-15.2-12
			C419,336.7,418.7,336.4,418.4,336.2z"/>
		<path d="M456.6,337.1c-0.2-1.6-0.6-3.2-1.2-4.7c-0.3-0.7-0.6-1.3-0.9-1.9c0.3,0.6,0.6,1.3,0.9,1.9
			C456,334,456.4,335.5,456.6,337.1z"/>
		<path d="M407.1,296.3c-0.1-0.2-0.2-0.4-0.2-0.6C406.9,295.9,407,296.1,407.1,296.3c0.3,1,0.1,1.7-0.4,2.2
			C407.2,298,407.4,297.3,407.1,296.3z"/>
		<path d="M447.1,356.1c4.4,1.8,5.8,0.4,8-5.8c0.4-1.1,0.8-2.3,1-3.4c-0.3,1.1-0.6,2.3-1,3.4C453,356.5,451.5,357.9,447.1,356.1z"/>
		<path d="M412.4,284C412.4,284,412.4,284,412.4,284c1.2,1.1,2.2,0.7,3.2,0.3c0.4-0.2,0.7-0.3,1.1-0.5c-0.4,0.2-0.7,0.3-1.1,0.5
			C414.6,284.7,413.6,285.1,412.4,284z"/>
		<path d="M421.2,281.6c-0.3,0.2-0.6,0.3-0.9,0.5C420.7,281.9,421,281.7,421.2,281.6c1.4-0.8,2.8-1.2,4.4-1
			C424,280.3,422.7,280.7,421.2,281.6z"/>
		<path d="M428.8,280.1c-0.6,0.5-1.2,0.7-1.9,0.7C427.6,280.8,428.2,280.6,428.8,280.1z"/>
		<path d="M425.6,277.9c1.2-0.5,2.2,0.1,3.1,0.9c0.1,0,0.1,0.1,0.1,0.1c0,0-0.1-0.1-0.1-0.1C427.8,278,426.8,277.4,425.6,277.9
			c-1.3,0.5-2.6,1.1-3.9,1.7c-0.9,0.4-1.8,0.9-2.7,1.3c0.9-0.4,1.8-0.9,2.7-1.3C422.9,279,424.3,278.4,425.6,277.9z"/>
		<path d="M442.4,237c0,0.1-0.1,0.2-0.1,0.3c-0.9,2.4-1.6,4.8-2.3,7.3c-0.3,1.1-0.6,2.2-0.9,3.3c-1.1,3.9-2.1,7.9-2.7,12.5
			c1.9-1.2,3.8-2.3,5.7-3.4c0,0,0,0,0,0c0,0,0,0,0,0c0.1-0.5,0.2-1.1,0.3-1.6c0.1-0.5,0.2-1.1,0.3-1.6c0.2-1.1,0.5-2.1,0.7-3.2
			c0.1-0.5,0.2-1.1,0.4-1.6c0.1-0.3,0.2-0.7,0.3-1c0.1-0.3,0.2-0.6,0.2-1c0.2-0.8,0.4-1.5,0.6-2.3c0.1-0.2,0.1-0.4,0.2-0.5
			c0-0.1,0-0.1,0.1-0.2c0.1-0.4,0.3-0.9,0.4-1.3c0.1-0.3,0.2-0.6,0.3-1c0,0,0-0.1,0-0.1c0.1-0.3,0.2-0.6,0.3-0.9
			c0-0.1,0.1-0.3,0.1-0.4c0.1-0.4,0.3-0.8,0.4-1.1c0.1-0.2,0.2-0.4,0.2-0.6c0.2-0.5,0.4-0.9,0.5-1.4c0-0.1,0.1-0.1,0.1-0.2H442.4z"
			/>
		<path d="M447.5,237c0.1-0.2,0.1-0.3,0.2-0.5c0.2-0.5,0.4-1,0.7-1.5c0.2-0.5,0.5-1,0.7-1.6c2.1-4.5,4.5-8.7,9.8-10.6
			c1.2-0.4,1.8-1.5,1.3-2.8c-0.2-0.5-0.5-1-0.9-1.3c-0.6-0.5-1.3-0.7-2.3-0.4c0,0,0,0,0,0c-0.3,0.1-0.6,0.2-0.9,0.3
			c-2.4,1.1-4.4,2.8-6.2,4.8c-1,1.2-2,2.5-2.8,3.8c-1.9,3-3.4,6.2-4.6,9.5H447.5z"/>
		<path d="M442,257.1c-1.9,1.1-3.8,2.3-5.7,3.4c0,0,0,0,0,0c-0.2,1.1,0.7,2.1,2.5,2.3c0.2,0,0.4,0,0.6,0c0,0,0,0,0,0
			c0,0,0.1,0,0.1,0c0.3,0,0.6-0.1,0.8-0.3c0.4-0.3,0.6-0.7,0.8-1.2c0.1-0.3,0.2-0.7,0.2-1.1C441.7,259.2,441.9,258.1,442,257.1z"/>
		<path d="M447.4,237.2c0-0.1,0.1-0.1,0.1-0.2h0C447.5,237.1,447.5,237.1,447.4,237.2z"/>
		<path d="M442.3,237.3c-0.9,2.4-1.6,4.9-2.3,7.3c-0.3,1.1-0.6,2.2-0.9,3.3c0.3-1.1,0.6-2.2,0.9-3.3
			C440.7,242.2,441.4,239.7,442.3,237.3z"/>
		<path d="M445.5,242.7c-0.1,0.4-0.3,0.9-0.4,1.3c0,0.1,0,0.1-0.1,0.2c0.3-0.9,0.5-1.7,0.8-2.6c0,0,0,0.1,0,0.1
			C445.7,242,445.6,242.3,445.5,242.7z"/>
		<path d="M443.7,249c-0.1,0.5-0.2,1.1-0.4,1.6c-0.2,1.1-0.5,2.1-0.7,3.2c-0.1,0.5-0.2,1.1-0.3,1.6c-0.1,0.5-0.2,1.1-0.3,1.6
			c0,0,0,0,0,0c0,0,0,0,0,0c0,0,0,0,0,0c0.6-3.1,1.2-6.1,1.9-9.1C443.9,248.3,443.8,248.6,443.7,249z"/>
		<path d="M444.9,244.7c-0.2,0.8-0.4,1.5-0.6,2.3C444.4,246.2,444.6,245.5,444.9,244.7z"/>
		<path d="M446.2,240.3c0,0.1-0.1,0.3-0.1,0.4c0.2-0.7,0.5-1.4,0.8-2.1c-0.1,0.2-0.2,0.4-0.2,0.6C446.5,239.6,446.4,240,446.2,240.3
			z"/>
		<path d="M449.1,233.4c-0.2,0.5-0.5,1-0.7,1.6c-0.2,0.5-0.4,1-0.7,1.5c-0.1,0.2-0.1,0.3-0.2,0.5h0c0.3-0.7,0.5-1.4,0.9-2
			C448.6,234.4,448.8,233.9,449.1,233.4z"/>
		<path d="M456.1,218.8c-2.5,1.1-4.4,2.8-6.2,4.8c-1,1.2-2,2.5-2.8,3.8c0.8-1.3,1.8-2.6,2.8-3.8
			C451.6,221.6,453.6,219.8,456.1,218.8z"/>
		<path d="M459.3,218.8c-0.6-0.5-1.3-0.7-2.3-0.4C457.9,218.1,458.7,218.3,459.3,218.8z"/>
		<path d="M440.5,262.6c-0.2,0.2-0.5,0.3-0.8,0.3C440,262.8,440.3,262.7,440.5,262.6z"/>
		<path d="M441.5,260.2c-0.1,0.4-0.1,0.8-0.2,1.1C441.3,261,441.4,260.6,441.5,260.2c0.2-1.1,0.4-2.1,0.6-3.2c0,0,0,0,0,0
			C441.9,258.1,441.7,259.2,441.5,260.2z"/>
		<path d="M439.5,262.9C439.5,262.9,439.5,262.9,439.5,262.9C439.5,262.9,439.5,262.9,439.5,262.9z"/>
		<path d="M359.6,159h18.7c0.4-0.3,0.8-0.7,1-1.1c0.2-0.3,0.2-0.7,0-1.2c-0.1-0.1-0.1-0.2-0.2-0.4c-0.8-1.2-1.9-1-3-0.4
			c-0.2,0.1-0.5,0.2-0.7,0.3c-0.1,0-0.1,0.1-0.2,0.1c0,0,0,0,0,0c-2.1,0.9-4.1,1.6-6.2,1.8c-2.4,0.2-4.9-0.3-7.3-1.7
			c-0.2-0.1-0.4-0.2-0.6-0.3c-0.7-0.2-1.4,0-1.9,0.8C358.6,157.8,359,158.4,359.6,159z"/>
		<path d="M378.3,159h-18.7c0,0,0.1,0.1,0.1,0.1c0,0,0,0,0,0c0.1,0.1,0.2,0.2,0.3,0.3c1.9,1.9,4.2,2.9,6.5,3.1c0.4,0,0.9,0.1,1.3,0
			c2.2,0,4.2-0.4,6-1c1.5-0.6,3-1.3,4.3-2.3C378.2,159.1,378.2,159.1,378.3,159z"/>
		<path d="M361,156.1c-0.7-0.2-1.4,0-1.9,0.8c0,0,0,0,0,0C359.7,156.1,360.3,155.9,361,156.1z"/>
		<path d="M369,158.1c2.1-0.2,4.2-0.8,6.2-1.8C373.1,157.3,371.1,157.9,369,158.1z"/>
		<path d="M375.2,156.3c0.1,0,0.1-0.1,0.2-0.1C375.3,156.3,375.3,156.3,375.2,156.3z"/>
		<path d="M379.3,157.9c0.2-0.3,0.2-0.7,0-1.2C379.5,157.1,379.5,157.5,379.3,157.9z"/>
		<path d="M366.5,162.5c0.4,0,0.9,0.1,1.3,0c2.2,0,4.2-0.4,6-1c-1.8,0.7-3.8,1-6,1C367.4,162.5,366.9,162.5,366.5,162.5z"/>
		<path d="M359.7,159.1C359.7,159.1,359.7,159.2,359.7,159.1c0.1,0.1,0.2,0.2,0.3,0.3C359.9,159.3,359.8,159.3,359.7,159.1
			C359.7,159.2,359.7,159.1,359.7,159.1z"/>
		<path d="M365.6,150.2c0.9-0.1,1.8-0.4,2-1.4c0.2-0.8-0.2-1.4-0.8-1.7c-0.2-0.1-0.3-0.2-0.5-0.2c-0.3-0.1-0.6-0.2-0.8-0.4
			c-0.9-0.5-1.2-1.2-1.1-2.1c0.1-0.6,0.3-1.2,0.6-1.9c0.6-1.3,1.1-2.6,1.6-3.9c0.4-1.1,0.7-2.2,0.9-3.4c0.2-1.3,0.2-2.6-1.3-3.1
			c-0.2-0.1-0.4-0.1-0.6-0.1c-1.2-0.1-1.6,1-1.9,2.1c-0.5,1.4-0.9,2.8-1.4,4.1c-0.6,1.8-1.2,3.6-1.8,5.3c-0.2,0.5-0.3,0.9-0.5,1.4
			c0,0,0,0,0,0C359.9,147.9,363,150.5,365.6,150.2z"/>
		<path d="M360.4,143.6c0.6-1.7,1.2-3.5,1.8-5.3C361.6,140.1,361,141.9,360.4,143.6z"/>
		<path d="M366.8,147.1c0.6,0.4,1,0.9,0.8,1.7c-0.2,1-1.1,1.2-2,1.4c-2.6,0.4-5.7-2.3-5.7-5.2c0,2.9,3,5.6,5.7,5.2
			c0.9-0.1,1.8-0.4,2-1.4C367.8,148,367.4,147.4,366.8,147.1z"/>
		<path d="M365.5,146.5c-0.9-0.5-1.2-1.2-1.1-2.1C364.3,145.2,364.6,145.9,365.5,146.5z"/>
		<path d="M367.5,135.2c-0.2,1.2-0.5,2.3-0.9,3.4C366.9,137.5,367.3,136.4,367.5,135.2c0.2-1.3,0.2-2.6-1.3-3.1
			c-0.2-0.1-0.4-0.1-0.6-0.1c0.2,0,0.4,0,0.6,0.1C367.7,132.6,367.7,134,367.5,135.2z"/>
		<path d="M392.5,122c-1.3-0.9-2.7-1.6-4.1-2.1c-1.4-0.5-2.8-0.7-4.1-0.6c-1.8,0-3.4,0.2-4.8,0.5c-0.9,0.2-1.8,0.5-2.7,0.9
			c-1.2,0.5-2.3,1.3-1.8,2.8c0.2,0.6,0.5,1,0.9,1.3c0.3,0.2,0.7,0.3,1.1,0.3c0.4,0,0.8-0.1,1.3-0.3c1.3-0.5,2.6-0.9,3.9-1.1
			c2-0.3,4-0.3,6,0.1c1.1,0.2,2.1,0.5,3.2,0.9c0.3,0.1,0.6,0.2,0.9,0.2c0.6,0.1,1.1-0.1,1.4-0.7c0.1-0.3,0.2-0.5,0.2-0.7
			C393.8,122.8,393.1,122.4,392.5,122z"/>
		<path d="M388.1,123.9c1.1,0.2,2.1,0.5,3.2,0.9c0.3,0.1,0.6,0.2,0.9,0.2c-0.3,0-0.6-0.1-0.9-0.2
			C390.2,124.4,389.2,124.1,388.1,123.9z"/>
		<path d="M375,123.5c-0.5-1.5,0.6-2.3,1.8-2.8c0.9-0.4,1.8-0.7,2.7-0.9c-0.9,0.2-1.8,0.5-2.7,0.9C375.6,121.2,374.5,122,375,123.5
			c0.2,0.6,0.5,1,0.9,1.3C375.5,124.5,375.2,124.1,375,123.5z"/>
		<path d="M376.9,125.1c0.4,0,0.8-0.1,1.3-0.2c1.3-0.5,2.6-0.9,3.9-1.1c-1.3,0.2-2.6,0.5-3.9,1.1C377.8,125,377.3,125.1,376.9,125.1
			z"/>
		<path d="M392.5,122c-1.3-0.9-2.7-1.6-4.1-2.1C389.8,120.3,391.2,121,392.5,122c0.6,0.4,1.2,0.9,1.2,1.6
			C393.8,122.8,393.1,122.4,392.5,122z"/>
		<path d="M355.5,127.4c-1.4,0.2-2.1,1-2.5,1.9c-0.1,0.1-0.1,0.3-0.2,0.4c-0.2,0.5-0.3,1.1-0.3,1.7c0,0.4,0.1,0.8,0.1,1.2
			c0.4,2,1.9,3.5,3.3,3.2c2.2-0.4,2.8-2.1,3-3.9c0-0.2,0-0.4,0-0.6C358.9,129,357.2,127.1,355.5,127.4z"/>
		<path d="M355.5,127.4c-1.4,0.2-2.1,1-2.5,1.9C353.4,128.3,354.1,127.6,355.5,127.4c1.7-0.3,3.4,1.6,3.4,3.8c0,0.2,0,0.4,0,0.6
			c0-0.2,0-0.4,0-0.6C358.9,129,357.2,127.1,355.5,127.4z"/>
		<path d="M352.8,129.7c-0.2,0.5-0.3,1.1-0.3,1.7c0,0.4,0.1,0.8,0.1,1.2c-0.1-0.4-0.1-0.8-0.1-1.2
			C352.5,130.8,352.6,130.2,352.8,129.7z"/>
		<path d="M384.6,129.9c-0.4-1.2-1.2-2.1-2.8-2c-1.1,0-1.7,0.4-2.2,1c-0.2,0.3-0.4,0.6-0.5,0.9c-0.2,0.5-0.3,1.1-0.3,1.7
			c0,0.1,0,0.3,0,0.4c0.1,0.8,0.2,1.7,0.5,2.4c0.4,0.9,1.1,1.6,2.5,1.7c0.9,0.1,1.7-0.4,2.3-1.2c0.6-0.8,0.9-1.9,0.9-3.1
			C384.9,131.2,384.8,130.5,384.6,129.9z"/>
		<path d="M384.6,129.9c0.2,0.6,0.3,1.2,0.3,1.9c0.1,1.2-0.3,2.3-0.9,3.1c0.6-0.8,0.9-1.9,0.9-3.1
			C384.9,131.2,384.8,130.5,384.6,129.9z"/>
		<path d="M379.1,129.8c0.1-0.3,0.3-0.7,0.5-0.9C379.4,129.1,379.2,129.4,379.1,129.8z"/>
		<path d="M378.7,131.5c0,0.1,0,0.3,0,0.4c0.1,0.8,0.2,1.7,0.5,2.4c-0.3-0.7-0.4-1.5-0.5-2.4C378.7,131.8,378.7,131.7,378.7,131.5z"
			/>
		<path d="M417.1,135.5c-0.7,0.8-0.7,1.8,0,2.6c0.8,1,1.6,0.6,2.4,0c0,0,0,0,0.1,0c0,0,0.1-0.1,0.1-0.1c0.7-0.6,1.5-1,2.3-1.2
			c0.3-0.1,0.7-0.1,1,0c0.3,0,0.6,0.1,1,0.3c0.8,0.4,1.6,0.7,2.2-0.3c0.6-1,0.3-1.9-0.4-2.6c-0.9-0.9-2-1.3-3.4-1.5
			c-0.1,0-0.1,0-0.2,0c-0.2,0-0.4,0-0.6,0.1c0,0,0,0-0.1,0C419.8,133.1,418.3,134,417.1,135.5z"/>
		<path d="M422.4,132.6c-0.1,0-0.1,0-0.2,0C422.3,132.7,422.4,132.6,422.4,132.6C422.4,132.6,422.4,132.6,422.4,132.6z"/>
		<path d="M421.6,132.8C421.6,132.8,421.6,132.8,421.6,132.8C421.6,132.8,421.6,132.8,421.6,132.8z"/>
		<path d="M419.5,138.1C419.6,138.1,419.6,138,419.5,138.1c0.1-0.1,0.1-0.1,0.2-0.1C419.7,138,419.6,138,419.5,138.1
			C419.6,138,419.6,138.1,419.5,138.1z"/>
		<path d="M422,136.7c0.3-0.1,0.7-0.1,1,0C422.7,136.7,422.3,136.7,422,136.7z"/>
	</g>
</g>
</svg>
