<?xml version="1.0" encoding="utf-8"?>
<!-- Generator: Adobe Illustrator 25.0.0, SVG Export Plug-In . SVG Version: 6.00 Build 0)  -->
<svg version="1.1" id="Layer_1" xmlns="http://www.w3.org/2000/svg" xmlns:xlink="http://www.w3.org/1999/xlink" x="0px" y="0px"
	 viewBox="0 0 110.04 110" style="enable-background:new 0 0 110.04 110;" xml:space="preserve">
<style type="text/css">
	.st0{fill:#00B0FB;}
	.st1{fill:#00B0FB;fill-opacity:0.4;}
	.st2{fill:#FFFFFF;}
	.st3{fill:#185AE9;}
	.st4{fill-rule:evenodd;clip-rule:evenodd;fill:#00B0FB;}
	.st5{fill:none;}
</style>
<g>
	<path class="st0" d="M98.38,39.04c0.06,0,0.12,0.01,0.18,0.04c0.13,0.05,0.23,0.15,0.28,0.27c3.73,9.17,3.72,22.31-0.02,31.26
		c-0.05,0.12-0.15,0.22-0.28,0.27c-0.05,0.02-0.12,0.03-0.18,0.03c-0.07,0-0.14-0.01-0.2-0.04c-0.07-0.03-0.15-0.06-0.22-0.09
		c0.13,0.46,0.21,0.93,0.23,1.39c0.01,0.2,0,0.4-0.02,0.6c0.64-0.53,1.42-0.93,2.35-1.12c-0.02-0.33,0.03-0.71,0.18-1.16
		c3.37-10.27,3.38-20.67,0.02-30.93c-0.1-0.31-0.16-0.59-0.18-0.84c-0.08,0-0.17,0-0.25-0.01c-0.3-0.03-0.59-0.06-0.89-0.09
		c-0.06,0.02-0.13,0.04-0.21,0.07c-0.52,0.23-1.07,0.42-1.62,0.57c-0.08,0.02-0.16,0.04-0.24,0.06c0,0.04-0.01,0.07-0.01,0.11
		c0.29-0.12,0.57-0.23,0.86-0.36C98.24,39.06,98.31,39.04,98.38,39.04z"/>
	<path class="st1" d="M20.85,70.16h-0.04c-5.16,0-9.99,1.99-13.6,5.61c-3.6,3.59-5.57,8.39-5.57,13.51
		c0.02,10.53,8.63,19.1,19.22,19.1c10.52-0.03,19.03-8.63,19.02-19.16C39.86,78.55,31.51,70.18,20.85,70.16z M32.4,93.91
		c-0.03,0.14-0.07,0.27-0.11,0.41l-0.09,0.29c-1.56,5.57-3.79,5.81-8.26,5.81h-0.37c-2.21,0-4.22-0.4-5.99-1.19
		c-0.32-0.14-0.63-0.21-0.96-0.21c-0.27,0-0.54,0.04-0.84,0.14c-0.69,0.22-1.46,0.32-2.43,0.32c-0.53,0-1.05-0.03-1.57-0.05
		c-0.47-0.03-0.94-0.05-1.41-0.06c-0.63-0.01-1.46-0.2-1.44-1.74c0.03-2.65,0.05-5.79-0.01-9c-0.02-1.25,0.53-1.83,1.76-1.86
		c0.37,0,0.74-0.02,1.12-0.04c0.49-0.03,0.99-0.05,1.49-0.05c0.83,0,1.5,0.07,2.09,0.24c0.29,0.07,0.55,0.11,0.79,0.11
		c0.96,0,1.56-0.59,1.97-1.1c1.21-1.5,2.18-3.25,2.98-5.34c0.64-1.68,1.74-2.6,3.1-2.6c0.29,0,0.6,0.04,0.91,0.13
		c2.33,0.66,2.33,2.9,2.12,4.18c-0.15,0.89-0.24,1.77-0.35,2.7c-0.05,0.42-0.1,0.85-0.15,1.29c-0.02,0.14,0.02,0.27,0.11,0.37
		c0.08,0.11,0.2,0.18,0.33,0.19c2.47,0.27,4.06,0.94,4.86,2.06C32.82,89.99,32.93,91.63,32.4,93.91z"/>
	<path class="st0" d="M20.86,1.62h-0.03c-5.1,0-9.91,2-13.55,5.63c-3.63,3.63-5.64,8.43-5.63,13.52c0,10.52,8.6,19.08,19.17,19.08
		c10.73-0.05,19.06-8.44,19.05-19.11C39.87,10.21,31.34,1.63,20.86,1.62z M25.57,11.42c-0.15,0.01-0.29,0.01-0.44,0.01
		c-0.28,0-0.56-0.01-0.85-0.03c-0.31-0.02-0.62-0.04-0.92-0.04c-0.95,0-2.13,0.17-2.84,1.42c-0.82,1.43-0.7,2.98-0.57,4.48
		c0.05,0.65,0.1,1.27,0.07,1.86c-0.01,0.2,0.1,0.38,0.27,0.47c0.49,0.25,1.05,0.28,1.54,0.3c0.97,0.04,1.22,0.08,1.2,0.87
		c-0.02,0.7-0.19,0.76-1.18,0.78c-0.5,0.01-1.06,0.03-1.58,0.27c-0.18,0.08-0.29,0.26-0.29,0.45v7.12c0.01,0.36,0.01,0.71-0.01,1.06
		c-0.03,0.49-0.18,1.07-0.77,1.07h-0.02c-0.24,0-0.81-0.01-0.8-1.21c0.01-1.92,0.01-3.84,0-5.75v-2.26c0-0.17-0.09-0.34-0.24-0.43
		c-0.52-0.31-1.15-0.32-1.7-0.34c-1.05-0.03-1.27-0.1-1.28-0.79c0-0.73,0.27-0.81,1.41-0.84c0.43-0.01,0.87-0.02,1.28-0.14
		c0.17-0.05,0.3-0.19,0.35-0.36c0.26-1.09,0.22-2.19,0.19-3.26c-0.01-0.48-0.03-0.95-0.02-1.42c0.07-2.95,1.7-4.67,4.57-4.84
		c0.39-0.02,0.77-0.04,1.15-0.04c0.57,0,1.08,0.03,1.57,0.09c0.53,0.06,0.78,0.36,0.74,0.88C26.37,11.1,26.3,11.35,25.57,11.42z"/>
	<path class="st1" d="M102.78,7.26c-3.61-3.63-8.41-5.64-13.49-5.64h-0.03c-5.12,0-9.92,1.98-13.52,5.6
		c-3.61,3.62-5.59,8.45-5.58,13.6c0.03,10.67,8.4,19.03,19.06,19.03c10.54,0,19.14-8.51,19.17-18.97
		C108.41,15.75,106.42,10.91,102.78,7.26z M98.22,21.91c-4.36,2.67-8.73,5.33-13.11,7.98c-0.76,0.46-1.17,0.56-1.37,0.56
		c-0.13,0-0.53,0-0.54-1.52c-0.01-3.52-0.01-7.05-0.01-10.57v-5.72c0-1.07,0.05-1.43,0.95-1.47l0.19,0.09
		c0.25,0.12,0.55,0.26,0.83,0.43c4.37,2.65,8.74,5.3,13.11,7.97c0.96,0.58,1.1,0.94,1.1,1.1C99.37,20.93,99.22,21.3,98.22,21.91z"/>
	<path class="st0" d="M74.02,52.98c-0.06-0.22-0.26-0.38-0.49-0.38h-0.04c-0.18,0.02-0.36,0.02-0.54,0.02
		c-1.93,0-2.98-0.88-4.03-3.39c-1.12-2.67-0.89-4.24,0.84-5.79c0.2-0.18,0.22-0.49,0.05-0.69c-0.84-1-1.56-1.85-2.83-2.66
		c-0.08-0.05-0.17-0.07-0.26-0.07c-0.16,0-0.32,0.07-0.42,0.21c-0.74,1.07-1.52,1.55-2.52,1.55c-0.85,0-1.79-0.32-2.88-0.69
		l-0.23-0.08c-2.56-0.87-3.49-2.16-3.31-4.59c0.01-0.14-0.04-0.28-0.13-0.38c-0.09-0.1-0.23-0.16-0.37-0.16h-3.69
		c-0.14,0-0.28,0.06-0.37,0.16c-0.1,0.1-0.14,0.24-0.13,0.38c0.21,2.37-0.66,3.58-3.33,4.64c-1.17,0.46-2.07,0.68-2.83,0.68
		c-1.14,0-2.06-0.48-2.97-1.54c-0.09-0.1-0.21-0.16-0.35-0.17h-0.03c-0.12,0-0.24,0.04-0.33,0.13l-0.42,0.36
		c-0.83,0.72-1.62,1.41-2.21,2.49c-0.12,0.22-0.07,0.49,0.13,0.64c2.07,1.56,1.68,3.17,0.79,5.62c-0.9,2.47-2.17,3.44-4.54,3.44
		l-0.21-0.01c-0.14,0-0.26,0.06-0.36,0.15c-0.09,0.1-0.15,0.23-0.14,0.36c0,0.37-0.01,0.71-0.03,1.04c-0.04,0.91-0.09,1.85,0.4,2.84
		c0.09,0.17,0.26,0.28,0.45,0.28c0.03,0,0.05-0.01,0.07-0.01c0.27-0.04,0.51-0.06,0.74-0.06c1.94,0,2.66,1.45,3.65,3.46
		c1.21,2.45,0.95,4.02-0.89,5.69c-0.21,0.18-0.23,0.49-0.05,0.69c0.87,1.04,1.62,1.92,2.81,2.66c0.08,0.05,0.17,0.08,0.26,0.08
		c0.15,0,0.29-0.07,0.39-0.19c0.86-1.08,1.72-1.57,2.79-1.57c0.75,0,1.62,0.23,2.83,0.74c2.38,0.99,3.63,2,3.38,4.54
		c-0.02,0.25,0.15,0.48,0.39,0.53c0.77,0.18,1.42,0.26,2.03,0.26c0.68,0,1.33-0.1,2-0.3c0.23-0.08,0.38-0.31,0.35-0.55
		c-0.34-2.54,1.08-3.38,3.42-4.52c0.97-0.47,1.82-0.7,2.6-0.7c1.05,0,1.97,0.42,2.9,1.32c0.1,0.1,0.22,0.14,0.35,0.14
		c0.11,0,0.22-0.03,0.31-0.1l2.86-2.25c0.12-0.09,0.19-0.24,0.19-0.39c0-0.15-0.06-0.29-0.18-0.39c-2.1-1.71-1.97-3.33-0.99-5.7
		c1.04-2.54,2.14-3.48,4.05-3.48c0.2,0,0.41,0.01,0.63,0.03h0.05c0.11,0,0.23-0.04,0.32-0.12c0.1-0.08,0.17-0.21,0.18-0.34
		l0.01-0.21C74.24,55.36,74.33,54.25,74.02,52.98z M55.09,64.62h-0.06c-5.2,0-9.62-4.37-9.64-9.56c-0.03-5.23,4.35-9.67,9.56-9.7
		c5.25,0,9.67,4.38,9.7,9.56C64.68,60.15,60.3,64.59,55.09,64.62z"/>
	<path class="st0" d="M102.9,75.83c-3.56-3.62-8.33-5.63-13.44-5.67H89.3c-10.68,0-19.09,8.33-19.14,18.97
		c-0.05,10.51,8.33,19.14,18.69,19.25h0.2c10.57,0,19.25-8.45,19.34-18.83C108.44,84.36,106.49,79.49,102.9,75.83z M99.4,96.93
		c-0.01,1.77-0.7,2.44-2.54,2.45c-2.56,0.01-5.13,0.02-7.69,0.02c-2.49,0-4.98-0.01-7.46-0.02c-1.9-0.02-2.54-0.67-2.56-2.61
		c-0.01-1.81-0.01-3.61,0-5.42l-0.01-4.51c0-1.74,0-3.48,0.01-5.22c0.02-1.86,0.63-2.49,2.42-2.49c2.53-0.02,5.06-0.02,7.59-0.02
		c2.58,0,5.17,0,7.76,0.01c1.82,0.01,2.47,0.66,2.48,2.47C99.44,86.54,99.44,91.7,99.4,96.93z"/>
	<path class="st2" d="M102.52,73.38c-0.87-0.77-1.29-1.49-0.83-2.89c3.37-10.27,3.38-20.67,0.02-30.93
		c-0.48-1.46-0.04-2.22,0.88-3.04c6.33-5.62,8.61-12.48,6.78-20.39c-1.84-7.94-6.97-13.24-14.84-15.34C92.55,0.27,90.6,0,88.74,0
		c-5.7,0-10.81,2.46-15.17,7.31c-0.54,0.6-1.18,1.16-2.14,1.16c-0.36,0-0.75-0.08-1.22-0.23C65.16,6.6,60.04,5.76,54.99,5.76
		S44.84,6.59,39.82,8.23c-0.48,0.16-0.88,0.23-1.24,0.23c-0.78,0-1.4-0.33-2.13-1.15C32.2,2.5,27.1,0.07,21.3,0.07
		c-1.19,0-2.42,0.1-3.66,0.3C8.95,1.79,3.14,7,0.83,15.43c-2.22,8.11,0.01,15.2,6.63,21.09c1.05,0.94,1.28,1.74,0.84,3.05
		c-3.36,10.2-3.37,20.55-0.02,30.74c0.46,1.42,0.22,2.26-0.92,3.21c-4.62,3.89-7.07,9.18-7.28,15.72c0,0.16,0,0.32-0.01,0.47
		c0,0.33-0.01,0.66,0.02,0.98c0.05,0.49,0.14,0.98,0.24,1.49l0.06,0.31c1.6,8.69,6.6,14.28,14.85,16.62
		c2.08,0.59,4.12,0.89,6.08,0.89c5.72,0,10.83-2.49,15.2-7.41c0.67-0.75,1.27-1.07,2.01-1.07c0.34,0,0.72,0.07,1.2,0.22
		c5.13,1.66,10.29,2.5,15.36,2.5c5.02,0,10.08-0.83,15.03-2.46c0.47-0.16,0.88-0.23,1.25-0.23c0.99,0,1.65,0.51,2.39,1.33
		c4.24,4.66,9.28,7.02,15,7.02c1.09,0,2.22-0.08,3.36-0.26c8.71-1.31,14.59-6.44,17.01-14.83
		C111.49,86.56,109.27,79.35,102.52,73.38z M75.74,7.22c3.6-3.62,8.4-5.6,13.52-5.6h0.03c5.08,0,9.88,2.01,13.49,5.64
		c3.64,3.65,5.63,8.49,5.61,13.62c-0.03,10.46-8.63,18.97-19.17,18.97c-10.66,0-19.03-8.36-19.06-19.03
		C70.15,15.67,72.13,10.84,75.74,7.22z M1.65,20.77c-0.01-5.09,2-9.89,5.63-13.52c3.64-3.63,8.45-5.63,13.55-5.63h0.03
		c10.48,0.01,19.01,8.59,19.01,19.12c0.01,10.67-8.32,19.06-19.05,19.11C10.25,39.85,1.65,31.29,1.65,20.77z M20.86,108.38
		c-10.59,0-19.2-8.57-19.22-19.1c0-5.12,1.97-9.92,5.57-13.51c3.61-3.62,8.44-5.61,13.6-5.61h0.04
		c10.66,0.02,19.01,8.39,19.03,19.06C39.89,99.75,31.38,108.35,20.86,108.38z M70.99,99.69c-0.05,0.13-0.16,0.23-0.29,0.27
		c-5.19,1.78-10.46,2.69-15.64,2.69c-5.15,0-10.44-0.9-15.7-2.66c-0.13-0.04-0.24-0.14-0.3-0.27s-0.06-0.28,0-0.4
		c4.28-9.66,3.03-17.97-3.72-24.7c-4.09-4.08-8.81-6.16-14.02-6.16c-3.31,0-6.88,0.84-10.6,2.5C10.65,70.98,10.58,71,10.51,71
		s-0.13-0.02-0.2-0.04c-0.13-0.06-0.23-0.17-0.27-0.3c-3.59-10.49-3.59-20.74-0.01-31.35c0.05-0.14,0.15-0.24,0.27-0.3
		c0.07-0.03,0.14-0.04,0.21-0.04c0.06,0,0.13,0.01,0.2,0.04c3.72,1.65,7.28,2.49,10.6,2.49c5.19,0,9.89-2.05,13.98-6.1
		c6.74-6.68,8.02-14.98,3.78-24.69c-0.05-0.13-0.05-0.27,0-0.4c0.06-0.13,0.17-0.23,0.3-0.27c5.18-1.78,10.43-2.68,15.6-2.68
		c5.17,0,10.45,0.9,15.7,2.68c0.13,0.04,0.24,0.14,0.3,0.27c0.05,0.13,0.05,0.28,0,0.4c-4.26,9.63-3,17.92,3.74,24.64
		c4.1,4.09,8.83,6.16,14.05,6.16c3.27,0,6.77-0.82,10.41-2.43c0.07-0.02,0.14-0.04,0.21-0.04c0.06,0,0.12,0.01,0.18,0.04
		c0.13,0.05,0.23,0.15,0.28,0.27c3.73,9.17,3.72,22.31-0.02,31.26c-0.05,0.12-0.15,0.22-0.28,0.27c-0.05,0.02-0.12,0.03-0.18,0.03
		c-0.07,0-0.14-0.01-0.2-0.04c-3.65-1.6-7.17-2.42-10.44-2.42c-5.39,0-10.25,2.21-14.42,6.57c-6.41,6.69-7.52,14.86-3.31,24.27
		C71.05,99.42,71.05,99.56,70.99,99.69z M89.05,108.38h-0.2c-10.36-0.11-18.74-8.74-18.69-19.25c0.05-10.64,8.46-18.97,19.14-18.97
		h0.16c5.11,0.04,9.88,2.05,13.44,5.67c3.59,3.66,5.54,8.53,5.49,13.72C108.3,99.93,99.62,108.38,89.05,108.38z"/>
	<path class="st2" d="M75.81,56.2c0-0.38-0.01-0.81,0-1.3c0-0.23,0-0.93,0-0.93c0-2.55,0-2.55-2.52-2.93
		c-1.25-0.19-2.32-1.06-2.87-2.34c-0.57-1.34-0.45-2.79,0.32-3.88c0.11-0.16,0.24-0.31,0.36-0.47c0.4-0.5,0.74-0.94,0.74-1.49
		c-0.02-0.41-0.28-0.7-0.68-1.09L70.38,41c-0.71-0.69-1.45-1.41-2.14-2.17c-0.39-0.42-0.76-0.63-1.13-0.63
		c-0.33,0-0.71,0.17-1.14,0.51l-0.19,0.15c-0.38,0.31-0.78,0.63-1.21,0.89c-0.31,0.19-0.7,0.29-1.18,0.29
		c-1.58,0-4.16-1.1-4.34-2.55c-0.42-3.28-0.42-3.28-2.35-3.28l-1.32,0.01l-1.37-0.01c-2.51,0.01-2.51,0.01-2.93,2.54
		c-0.02,0.14-0.03,0.28-0.04,0.42c-0.02,0.53-0.05,1.25-0.85,1.75c-1.18,0.74-2.11,1.07-2.99,1.07c-0.94,0-1.84-0.36-2.93-1.17
		c-0.53-0.39-0.97-0.58-1.34-0.58c-0.26,0-0.67,0.07-1.24,0.72c-0.79,0.9-1.68,1.79-2.82,2.82c-0.81,0.74-0.85,1.38-0.14,2.27
		l0.14,0.17c0.32,0.39,0.64,0.79,0.91,1.23c0.55,0.88,0.23,2.45-0.32,3.61c-0.25,0.53-0.94,1.77-1.94,1.9
		c-3.29,0.44-3.29,0.44-3.27,2.89v2.16c0,2.49,0,2.49,2.54,2.92c0.13,0.02,0.27,0.03,0.41,0.03c0.53,0.03,1.25,0.07,1.75,0.87
		c1.46,2.36,1.43,3.85-0.1,5.92c-0.82,1.1-0.78,1.77,0.14,2.57c0.98,0.85,1.88,1.76,2.71,2.69c0.43,0.5,0.84,0.74,1.25,0.74
		c0.38,0,0.8-0.2,1.28-0.61c0.34-0.28,0.78-0.64,1.27-0.94c0.31-0.18,0.7-0.28,1.18-0.28c1.55,0,4.11,1.1,4.33,2.56
		c0.06,0.45,0.11,0.85,0.16,1.2c0.25,2.07,0.25,2.07,2.85,2.07c0.29,0,0.6,0,0.94-0.01l0.46-0.01c0.23-0.01,0.45-0.01,0.68-0.01
		c0.26,0,0.53,0.01,0.79,0.03c0.12,0.01,0.23,0.02,0.34,0.02c0.83,0,1.38-0.28,1.59-1.67c0.02-0.21,0.03-0.43,0.03-0.65
		c0.01-0.74,0.02-1.65,0.86-2.29c0.95-0.73,2.02-1.11,3.07-1.11c1.02,0,2.03,0.36,2.9,1.05c0.55,0.43,1.01,0.64,1.43,0.64
		c0.46,0,0.92-0.29,1.4-0.88c0.27-0.33,0.56-0.61,0.85-0.88c0.13-0.12,0.26-0.23,0.38-0.36c2.29-2.28,2.29-2.28,0.57-5.09
		c-0.56-0.91-0.22-2.56,0.33-3.71c0.3-0.62,0.95-1.69,1.89-1.81C75.84,58.61,75.84,58.61,75.81,56.2z M74.14,56.63l-0.01,0.21
		c-0.01,0.13-0.08,0.26-0.18,0.34c-0.09,0.08-0.21,0.12-0.32,0.12h-0.05c-0.22-0.02-0.43-0.03-0.63-0.03
		c-1.91,0-3.01,0.94-4.05,3.48c-0.98,2.37-1.11,3.99,0.99,5.7c0.12,0.1,0.18,0.24,0.18,0.39c0,0.15-0.07,0.3-0.19,0.39l-2.86,2.25
		c-0.09,0.07-0.2,0.1-0.31,0.1c-0.13,0-0.25-0.04-0.35-0.14c-0.93-0.9-1.85-1.32-2.9-1.32c-0.78,0-1.63,0.23-2.6,0.7
		c-2.34,1.14-3.76,1.98-3.42,4.52c0.03,0.24-0.12,0.47-0.35,0.55c-0.67,0.2-1.32,0.3-2,0.3c-0.61,0-1.26-0.08-2.03-0.26
		c-0.24-0.05-0.41-0.28-0.39-0.53c0.25-2.54-1-3.55-3.38-4.54c-1.21-0.51-2.08-0.74-2.83-0.74c-1.07,0-1.93,0.49-2.79,1.57
		c-0.1,0.12-0.24,0.19-0.39,0.19c-0.09,0-0.18-0.03-0.26-0.08c-1.19-0.74-1.94-1.62-2.81-2.66c-0.18-0.2-0.16-0.51,0.05-0.69
		c1.84-1.67,2.1-3.24,0.89-5.69c-0.99-2.01-1.71-3.46-3.65-3.46c-0.23,0-0.47,0.02-0.74,0.06c-0.02,0-0.04,0.01-0.07,0.01
		c-0.19,0-0.36-0.11-0.45-0.28c-0.49-0.99-0.44-1.93-0.4-2.84c0.02-0.33,0.03-0.67,0.03-1.04c-0.01-0.13,0.05-0.26,0.14-0.36
		c0.1-0.09,0.22-0.15,0.36-0.15l0.21,0.01c2.37,0,3.64-0.97,4.54-3.44c0.89-2.45,1.28-4.06-0.79-5.62c-0.2-0.15-0.25-0.42-0.13-0.64
		c0.59-1.08,1.38-1.77,2.21-2.49l0.42-0.36c0.09-0.09,0.21-0.13,0.33-0.13h0.03c0.14,0.01,0.26,0.07,0.35,0.17
		c0.91,1.06,1.83,1.54,2.97,1.54c0.76,0,1.66-0.22,2.83-0.68c2.67-1.06,3.54-2.27,3.33-4.64c-0.01-0.14,0.03-0.28,0.13-0.38
		c0.09-0.1,0.23-0.16,0.37-0.16h3.69c0.14,0,0.28,0.06,0.37,0.16c0.09,0.1,0.14,0.24,0.13,0.38c-0.18,2.43,0.75,3.72,3.31,4.59
		l0.23,0.08c1.09,0.37,2.03,0.69,2.88,0.69c1,0,1.78-0.48,2.52-1.55c0.1-0.14,0.26-0.21,0.42-0.21c0.09,0,0.18,0.02,0.26,0.07
		c1.27,0.81,1.99,1.66,2.83,2.66c0.17,0.2,0.15,0.51-0.05,0.69c-1.73,1.55-1.96,3.12-0.84,5.79c1.05,2.51,2.1,3.39,4.03,3.39
		c0.18,0,0.36,0,0.54-0.02h0.04c0.23,0,0.43,0.16,0.49,0.38C74.33,54.25,74.24,55.36,74.14,56.63z"/>
	<path class="st2" d="M23.03,20.76c0.02-0.79-0.23-0.83-1.2-0.88c-0.49-0.02-1.05-0.05-1.54-0.3c-0.17-0.09-0.28-0.27-0.27-0.47
		c0.03-0.6-0.02-1.21-0.08-1.87c-0.12-1.5-0.25-3.05,0.57-4.48c0.71-1.25,1.9-1.41,2.85-1.41c0.3,0,0.61,0.02,0.92,0.04
		c0.29,0.02,0.57,0.03,0.85,0.03c0.15,0,0.29,0,0.43-0.02c0.73-0.06,0.81-0.32,0.83-0.62c0.04-0.52-0.21-0.82-0.74-0.88
		c-0.49-0.06-1-0.08-1.56-0.08c-0.38,0-0.77,0.01-1.15,0.04c-2.88,0.17-4.5,1.89-4.57,4.84c-0.01,0.47,0,0.95,0.02,1.42
		c0.03,1.07,0.07,2.17-0.19,3.26c-0.04,0.17-0.17,0.31-0.35,0.36c-0.41,0.12-0.85,0.13-1.28,0.14c-1.14,0.03-1.41,0.11-1.4,0.84
		c0,0.68,0.23,0.75,1.27,0.79c0.55,0.02,1.18,0.04,1.7,0.34c0.15,0.09,0.25,0.25,0.25,0.43l0,2.26c0,1.91,0,3.83-0.01,5.74
		c-0.01,1.2,0.56,1.21,0.8,1.22h0.02c0.58,0,0.74-0.58,0.77-1.07c0.02-0.35,0.02-0.71,0.01-1.06l0-7.12c0-0.19,0.11-0.37,0.29-0.45
		c0.52-0.25,1.09-0.26,1.59-0.27C22.84,21.52,23.02,21.46,23.03,20.76z"/>
	<path class="st2" d="M98.27,19.66c-4.37-2.67-8.74-5.32-13.11-7.97c-0.28-0.17-0.58-0.31-0.83-0.43l-0.19-0.09
		c-0.9,0.04-0.95,0.4-0.95,1.47v5.72c0,3.52,0,7.05,0.01,10.57c0.01,1.52,0.41,1.52,0.54,1.52c0.2,0,0.61-0.1,1.37-0.56
		c4.38-2.65,8.75-5.31,13.11-7.98c1-0.61,1.15-0.98,1.15-1.15C99.37,20.6,99.23,20.24,98.27,19.66z M96.42,21.16l-10.9,6.66
		c-0.08,0.05-0.17,0.08-0.26,0.08c-0.08,0-0.17-0.03-0.24-0.07c-0.16-0.09-0.26-0.25-0.26-0.43V14.08c0-0.18,0.1-0.34,0.26-0.43
		c0.07-0.04,0.16-0.07,0.24-0.07c0.09,0,0.18,0.03,0.26,0.08l10.9,6.64c0.15,0.1,0.24,0.26,0.24,0.43
		C96.66,20.91,96.57,21.07,96.42,21.16z"/>
	<path class="st2" d="M32.05,88.91c-0.8-1.12-2.39-1.79-4.86-2.06c-0.13-0.01-0.25-0.08-0.33-0.19c-0.09-0.1-0.13-0.23-0.11-0.37
		c0.05-0.44,0.1-0.87,0.15-1.29c0.11-0.93,0.2-1.81,0.35-2.7c0.21-1.28,0.21-3.52-2.12-4.18c-0.31-0.09-0.62-0.13-0.91-0.13
		c-1.36,0-2.46,0.92-3.1,2.6c-0.8,2.09-1.77,3.84-2.98,5.34c-0.41,0.51-1.01,1.1-1.97,1.1c-0.24,0-0.5-0.04-0.79-0.11
		c-0.59-0.17-1.26-0.24-2.09-0.24c-0.5,0-1,0.02-1.49,0.05c-0.38,0.02-0.75,0.04-1.12,0.04c-1.23,0.03-1.78,0.61-1.76,1.86
		c0.06,3.21,0.04,6.35,0.01,9c-0.02,1.54,0.81,1.73,1.44,1.74c0.47,0.01,0.94,0.03,1.41,0.06c0.52,0.02,1.04,0.05,1.57,0.05
		c0.97,0,1.74-0.1,2.43-0.32c0.3-0.1,0.57-0.14,0.84-0.14c0.33,0,0.64,0.07,0.96,0.21c1.77,0.79,3.78,1.19,5.99,1.19h0.37
		c4.47,0,6.7-0.24,8.26-5.81l0.09-0.29c0.04-0.14,0.08-0.27,0.11-0.41C32.93,91.63,32.82,89.99,32.05,88.91z M14.87,97.24
		c0,0.25-0.19,0.47-0.45,0.49c-0.61,0.07-1.23,0.13-1.85,0.13c-0.64,0-1.19-0.07-1.75-0.21c-0.22-0.06-0.37-0.26-0.37-0.49V88.9
		c0-0.25,0.17-0.45,0.41-0.5c0.58-0.09,1.15-0.14,1.74-0.14c0.58,0,1.18,0.04,1.84,0.14c0.25,0.03,0.43,0.24,0.43,0.49V97.24z
		 M30.78,93.76c-1.01,4.19-2.24,5.16-6.63,5.21c-0.34-0.04-0.69-0.07-1.03-0.1c-0.77-0.07-1.56-0.15-2.34-0.27
		c-3.61-0.59-4.2-1.28-4.2-4.94c0-0.23,0.01-0.47,0.01-0.71c0.02-0.52,0.03-1-0.02-1.48c-0.14-1.39,0.3-2.42,1.43-3.33
		c2.29-1.86,3.53-4.43,4.52-6.92l0.06-0.14c0.25-0.63,0.58-1.49,1.58-1.49c0.15,0,0.31,0.02,0.47,0.06
		c1.48,0.38,1.26,1.62,1.13,2.36l-0.03,0.19c-0.14,0.84-0.26,1.68-0.37,2.53c-0.12,0.82-0.23,1.64-0.36,2.45
		c-0.08,0.48-0.04,0.83,0.13,1.03c0.16,0.21,0.49,0.32,0.97,0.35h0.73c1.8,0.02,3.14,0.21,3.83,1.1
		C31.37,90.56,31.22,91.95,30.78,93.76z"/>
	<path class="st2" d="M99.4,81.59c-0.01-1.81-0.66-2.46-2.48-2.47c-2.59-0.01-5.18-0.01-7.76-0.01c-2.53,0-5.06,0-7.59,0.02
		c-1.79,0-2.4,0.63-2.42,2.49c-0.01,1.74-0.01,3.48-0.01,5.22l0.01,4.51c-0.01,1.81-0.01,3.61,0,5.42c0.02,1.94,0.66,2.59,2.56,2.61
		c2.48,0.01,4.97,0.02,7.46,0.02c2.56,0,5.13-0.01,7.69-0.02c1.84-0.01,2.53-0.68,2.54-2.45C99.44,91.7,99.44,86.54,99.4,81.59z
		 M97.72,97.15c0,0.28-0.23,0.5-0.5,0.5H81.29c-0.27,0-0.5-0.22-0.5-0.5V81.37c0-0.28,0.23-0.5,0.5-0.5h15.93
		c0.27,0,0.5,0.22,0.5,0.5V97.15z"/>
	<path class="st2" d="M54.95,45.36c-5.21,0.03-9.59,4.47-9.56,9.7c0.02,5.19,4.44,9.56,9.64,9.56h0.06c5.21-0.03,9.59-4.47,9.56-9.7
		C64.62,49.74,60.2,45.36,54.95,45.36z M54.97,63.03h-0.12c-4.37-0.07-7.89-3.71-7.87-8.11c0.03-4.47,3.58-7.97,8.08-7.97h0.13
		c4.36,0.07,7.89,3.71,7.86,8.11C63.03,59.53,59.48,63.03,54.97,63.03z"/>
	<path class="st2" d="M89.16,84.69c-2.64,0.02-4.47,1.91-4.46,4.6c0.02,2.64,1.93,4.55,4.55,4.55h0.01c1.27,0,2.44-0.47,3.29-1.34
		c0.87-0.87,1.33-2.08,1.31-3.38C93.82,86.55,91.86,84.69,89.16,84.69z M89.18,92.27h-0.01c-1.64-0.04-3.01-1.37-3.04-2.96
		c-0.04-1.69,1.37-3.15,3.07-3.19c0,0,0.06,0,0.07,0c0.8,0,1.56,0.33,2.13,0.93c0.57,0.59,0.88,1.37,0.88,2.2
		C92.28,91.08,91.1,92.27,89.18,92.27z"/>
</g>
</svg>
