<?xml version="1.0" encoding="utf-8"?>
<!-- Generator: Adobe Illustrator 25.0.0, SVG Export Plug-In . SVG Version: 6.00 Build 0)  -->
<svg version="1.1" id="Layer_1" xmlns="http://www.w3.org/2000/svg" xmlns:xlink="http://www.w3.org/1999/xlink" x="0px" y="0px"
	 viewBox="0 0 93.12 110" style="enable-background:new 0 0 93.12 110;" xml:space="preserve">
<style type="text/css">
	.st0{fill:#00B0FB;}
	.st1{fill:#00B0FB;fill-opacity:0.4;}
	.st2{fill:#FFFFFF;}
	.st3{fill:#185AE9;}
	.st4{fill-rule:evenodd;clip-rule:evenodd;fill:#00B0FB;}
	.st5{fill:none;}
</style>
<g>
	<path class="st0" d="M2.66,48.4V6.97c0-2.93,2.38-5.32,5.32-5.32h5.99V0.53H5.33C2.79,1.57,1,4.07,1,6.97V48.4
		c0,2.73,1.58,5.09,3.88,6.24v-0.06h4.36v-0.85H7.98C5.04,53.72,2.66,51.33,2.66,48.4z"/>
	<path class="st0" d="M49.03,79.23H31.36c-0.45,0-0.81,0.36-0.81,0.81v4.52c0,0.45,0.36,0.81,0.81,0.81h17.66
		c0.45,0,0.81-0.36,0.81-0.81v-4.52C49.83,79.6,49.47,79.23,49.03,79.23z"/>
	<path class="st0" d="M49.03,94.76H31.36c-0.45,0-0.81,0.36-0.81,0.81v4.52c0,0.45,0.36,0.81,0.81,0.81h17.66
		c0.45,0,0.81-0.36,0.81-0.81v-4.52C49.83,95.12,49.47,94.76,49.03,94.76z"/>
	<path class="st1" d="M18.48,94.76H2.47c-0.45,0-0.81,0.36-0.81,0.81v4.52c0,0.45,0.36,0.81,0.81,0.81h16.01
		c0.45,0,0.81-0.36,0.81-0.81v-4.52C19.29,95.12,18.92,94.76,18.48,94.76z"/>
	<path class="st1" d="M71.03,32.69c3.71,0,6.73-3.02,6.73-6.73c0-3.71-3.02-6.73-6.73-6.73c-3.71,0-6.73,3.02-6.73,6.73
		C64.29,29.67,67.31,32.69,71.03,32.69z"/>
	<path class="st0" d="M90.65,79.23H78.97c-0.45,0-0.81,0.36-0.81,0.81v4.52c0,0.45,0.36,0.81,0.81,0.81h11.68
		c0.45,0,0.81-0.36,0.81-0.81v-4.52C91.46,79.6,91.1,79.23,90.65,79.23z"/>
	<path class="st0" d="M75.7,79.23H52.3c-0.45,0-0.81,0.36-0.81,0.81v4.52c0,0.45,0.36,0.81,0.81,0.81H75.7
		c0.45,0,0.81-0.36,0.81-0.81v-4.52C76.51,79.6,76.15,79.23,75.7,79.23z"/>
	<path class="st1" d="M51.49,100.09c0,0.45,0.36,0.81,0.81,0.81h13.55c0.45,0,0.81-0.36,0.81-0.81v-4.52c0-0.45-0.36-0.81-0.81-0.81
		H52.3c-0.45,0-0.81,0.36-0.81,0.81V100.09z"/>
	<path class="st0" d="M54.08,70.16c0.18-0.16,0.29-0.38,0.29-0.62v-5.56c0-0.45-0.36-0.81-0.81-0.81h-5.79
		c-0.45,0-0.81,0.36-0.81,0.81v5.56c0,0.24,0.11,0.46,0.29,0.62l2.25,1.89c0.32,0.27,0.73,0.42,1.15,0.42
		c0.44,0,0.85-0.15,1.18-0.42L54.08,70.16z"/>
	<path class="st2" d="M52.3,87.03h38.39c0.64,0,1.25-0.25,1.71-0.71c0.46-0.46,0.72-1.07,0.72-1.72v-4.59
		c0-0.65-0.26-1.26-0.72-1.72c-0.46-0.46-1.07-0.71-1.72-0.71H52.3c-0.45,0-0.81-0.36-0.81-0.81V74.6c0-0.33,0.19-0.62,0.49-0.75
		c0.34-0.14,0.64-0.32,0.91-0.54l2.36-1.98c0.49-0.41,0.77-1.01,0.77-1.65v-6.02c0-0.58-0.22-1.12-0.63-1.52
		c-0.41-0.41-0.95-0.63-1.52-0.63h-6.42c-0.57,0-1.11,0.22-1.52,0.63c-0.4,0.41-0.63,0.94-0.63,1.52v6.02
		c0,0.64,0.28,1.24,0.77,1.65l2.37,1.98c0.26,0.22,0.56,0.4,0.89,0.54c0.31,0.13,0.5,0.42,0.5,0.75v2.17c0,0.45-0.36,0.81-0.8,0.81
		h-17.7c-1.34,0-2.43,1.09-2.43,2.43v4.59c0,1.34,1.09,2.43,2.43,2.43h17.7c0.44,0,0.8,0.36,0.8,0.81v4.46
		c0,0.44-0.36,0.81-0.8,0.81h-17.7c-1.34,0-2.43,1.09-2.43,2.43v4.58c0,1.34,1.09,2.43,2.43,2.43h17.7c0.44,0,0.8,0.37,0.8,0.81
		v5.81c0,0.46,0.37,0.83,0.83,0.83c0.46,0,0.83-0.37,0.83-0.83v-5.81c0-0.44,0.36-0.81,0.81-0.81h38.39c0.64,0,1.25-0.25,1.71-0.71
		c0.46-0.46,0.72-1.07,0.72-1.72v-4.58c0-1.34-1.1-2.43-2.44-2.43H52.3c-0.45,0-0.81-0.37-0.81-0.81v-4.46
		C51.49,87.39,51.85,87.03,52.3,87.03z M49.83,100.09c0,0.45-0.36,0.81-0.8,0.81H31.36c-0.44,0-0.8-0.36-0.8-0.81v-4.52
		c0-0.45,0.36-0.81,0.8-0.81h17.67c0.44,0,0.8,0.36,0.8,0.81V100.09z M49.83,84.57c0,0.44-0.36,0.81-0.8,0.81H31.36
		c-0.44,0-0.8-0.37-0.8-0.81v-4.53c0-0.44,0.36-0.81,0.8-0.81h17.67c0.44,0,0.8,0.37,0.8,0.81V84.57z M78.17,80.04
		c0-0.44,0.36-0.81,0.8-0.81h11.68c0.45,0,0.81,0.37,0.81,0.81v4.53c0,0.44-0.36,0.81-0.81,0.81H78.97c-0.44,0-0.8-0.37-0.8-0.81
		V80.04z M52.3,79.23h23.4c0.45,0,0.81,0.37,0.81,0.81v4.53c0,0.44-0.36,0.81-0.81,0.81H52.3c-0.45,0-0.81-0.37-0.81-0.81v-4.53
		C51.49,79.6,51.85,79.23,52.3,79.23z M68.31,95.57c0-0.45,0.36-0.81,0.81-0.81h21.53c0.45,0,0.81,0.36,0.81,0.81v4.52
		c0,0.45-0.36,0.81-0.81,0.81H69.12c-0.45,0-0.81-0.36-0.81-0.81V95.57z M52.3,94.76h13.55c0.44,0,0.8,0.36,0.8,0.81v4.52
		c0,0.45-0.36,0.81-0.8,0.81H52.3c-0.45,0-0.81-0.36-0.81-0.81v-4.52C51.49,95.12,51.85,94.76,52.3,94.76z M50.65,72.46
		c-0.42,0-0.83-0.15-1.15-0.42l-2.26-1.88c-0.18-0.16-0.28-0.38-0.28-0.62v-5.57c0-0.44,0.36-0.81,0.8-0.81h5.8
		c0.44,0,0.81,0.37,0.81,0.81v5.57c0,0.24-0.11,0.46-0.29,0.62l-2.25,1.88C51.5,72.31,51.09,72.46,50.65,72.46z"/>
	<path class="st2" d="M18.59,77.58H2.36c-1.3,0-2.35,1.06-2.36,2.35v4.75c0.01,1.29,1.06,2.35,2.36,2.35h16.23
		c1.29,0,2.35-1.06,2.35-2.35v-4.75C20.94,78.64,19.88,77.58,18.59,77.58z M19.29,84.57c0,0.44-0.37,0.81-0.81,0.81H2.47
		c-0.45,0-0.81-0.37-0.81-0.81v-4.53c0-0.44,0.36-0.81,0.81-0.81h16.01c0.44,0,0.81,0.37,0.81,0.81V84.57z"/>
	<path class="st2" d="M18.59,93.11H2.36c-1.3,0-2.35,1.05-2.36,2.35v4.74c0.01,1.3,1.06,2.35,2.36,2.35h16.23
		c1.29,0,2.35-1.05,2.35-2.35v-4.74C20.94,94.16,19.88,93.11,18.59,93.11z M19.29,100.09c0,0.45-0.37,0.81-0.81,0.81H2.47
		c-0.45,0-0.81-0.36-0.81-0.81v-4.52c0-0.45,0.36-0.81,0.81-0.81h16.01c0.44,0,0.81,0.36,0.81,0.81V100.09z"/>
	<path class="st2" d="M86.14,0H6.98C3.13,0,0,3.13,0,6.97V48.4c0,3.84,3.13,6.97,6.98,6.97h79.16c3.85,0,6.97-3.13,6.97-6.97V6.97
		C93.11,3.13,89.99,0,86.14,0z M91.46,48.4c0,2.93-2.38,5.32-5.32,5.32H6.98c-2.94,0-5.32-2.39-5.32-5.32V6.97
		c0-2.93,2.38-5.32,5.32-5.32h79.16c2.94,0,5.32,2.39,5.32,5.32V48.4z"/>
	<path class="st2" d="M71.03,17.57c-4.63,0-8.39,3.76-8.39,8.39c0,4.62,3.76,8.38,8.39,8.38c4.62,0,8.38-3.76,8.38-8.38
		C79.41,21.33,75.65,17.57,71.03,17.57z M71.03,32.69c-3.72,0-6.74-3.02-6.74-6.73c0-3.72,3.02-6.74,6.74-6.74
		c3.71,0,6.73,3.02,6.73,6.74C77.76,29.67,74.74,32.69,71.03,32.69z"/>
	<path class="st2" d="M57.34,24.21c0,0.46-0.37,0.83-0.83,0.83c-6.21,0-12.14,2.99-15.86,8c-0.01,0.01-0.05,0.05-0.09,0.08
		c-0.01,0.04-0.04,0.07-0.08,0.09l-0.16,0.09c-0.02,0.01-0.09,0.03-0.11,0.04c-0.11,0.02-0.17,0.03-0.23,0.03
		c-0.01,0-0.11-0.01-0.12-0.01l-0.14-0.03c-0.02-0.01-0.11-0.05-0.13-0.06l-0.15-0.11l-0.12-0.12c-0.05-0.07-0.07-0.11-0.08-0.14
		c-4.57-9.59-14.39-15.79-25.01-15.79c-0.45,0-0.82-0.37-0.82-0.82c0-0.46,0.37-0.83,0.82-0.83c5.65,0,11.14,1.61,15.87,4.65
		c3.88,2.51,7.16,5.94,9.49,9.93c0.13,0.22,0.35,0.37,0.61,0.4c0,0,0.01,0,0.02,0c0.3,0,0.51-0.09,0.66-0.25
		c4.05-4.32,9.75-6.8,15.63-6.8C56.97,23.39,57.34,23.76,57.34,24.21z"/>
	<path class="st2" d="M57.34,31.03c0,0.45-0.38,0.83-0.83,0.83c-2.6,0-5.1,0.76-7.24,2.2c-2.57,1.75-4.43,4.34-5.25,7.32
		c-0.09,0.36-0.42,0.61-0.79,0.61c-0.07,0-0.14-0.01-0.22-0.03c-0.44-0.12-0.7-0.58-0.58-1.02c0.92-3.35,3.02-6.28,5.92-8.25
		c2.41-1.63,5.23-2.49,8.14-2.49c0.24,0,0.45,0.09,0.6,0.25C57.25,30.6,57.34,30.81,57.34,31.03z"/>
	<path class="st2" d="M36.44,41.02c0.03,0.22-0.02,0.44-0.14,0.62c-0.13,0.18-0.32,0.3-0.54,0.34c-0.05,0-0.09,0.01-0.14,0.01
		c-0.4,0-0.74-0.29-0.81-0.69c-1.7-10.07-10.36-17.37-20.58-17.37c-0.45,0-0.82-0.37-0.82-0.83s0.37-0.83,0.82-0.83
		c5.35,0,10.53,1.92,14.61,5.39C32.86,31.1,35.56,35.84,36.44,41.02z"/>
</g>
</svg>
