<?xml version="1.0" encoding="utf-8"?>
<!-- Generator: Adobe Illustrator 25.0.0, SVG Export Plug-In . SVG Version: 6.00 Build 0)  -->
<svg version="1.1" id="Layer_1" xmlns="http://www.w3.org/2000/svg" xmlns:xlink="http://www.w3.org/1999/xlink" x="0px" y="0px"
	 viewBox="0 0 173.33 173" style="enable-background:new 0 0 173.33 173;" xml:space="preserve">
<style type="text/css">
	.st0{fill:#185AE9;}
	.st1{fill:#00B0FB;}
	.st2{fill:#00B0FB;fill-opacity:0.4;}
	.st3{fill:#FFFFFF;}
	.st4{fill:#3C7CFF;}
	.st5{fill:#3C7CFF;stroke:#001135;stroke-width:0.7602;stroke-miterlimit:10;}
	.st6{fill:#001135;}
	.st7{fill:#0A0A0A;}
	.st8{fill:#DBDBDB;}
	.st9{fill:#FDFDFD;}
	.st10{fill:#030303;}
	.st11{fill:none;}
	.st12{fill:#010101;}
	.st13{fill:#020202;}
	.st14{fill:#181818;}
	.st15{fill:#1C1C1C;}
	.st16{fill:#171717;}
	.st17{fill:#090909;}
	.st18{fill:#060606;}
	.st19{fill:#070707;}
	.st20{fill:#191919;}
	.st21{fill:#FBFBFB;}
	.st22{fill:#FCFCFC;}
	.st23{fill:#050505;}
	.st24{fill:#0B0B0B;}
	.st25{fill:#040404;}
	.st26{fill:#FAFAFA;}
	.st27{fill:#FBFAFB;}
	.st28{fill:#0C0C0C;}
</style>
<g>
	<g>
		<path class="st1" d="M57.66,10.74c-3.51-0.16-6.3-1.39-8.39-3.26c-5.05,0.57-9.98,1.95-14.68,4.14
			c-11.52,5.39-20.26,14.92-24.59,26.85C3.34,56.74,8.39,76.98,22.88,90.02c0.16,0.14,0.21,0.37,0.14,0.57l-4.69,12.93
			c-0.23,0.62-0.2,1.29,0.07,1.89l2.32,4.99c0.05,0.13,0.06,0.26,0.01,0.4c-0.04,0.13-0.15,0.23-0.27,0.29l-4.99,2.32
			c-0.6,0.27-1.06,0.78-1.28,1.4c-0.23,0.62-0.19,1.29,0.09,1.9l2.32,4.99c0.05,0.13,0.06,0.26,0.01,0.4
			c-0.04,0.13-0.14,0.23-0.26,0.29l-5,2.32c-0.6,0.27-1.05,0.78-1.28,1.39c-0.22,0.63-0.19,1.3,0.09,1.91l2.32,4.99
			c0.06,0.13,0.06,0.26,0.02,0.4c-0.05,0.13-0.15,0.23-0.27,0.29l-4.99,2.32c-0.61,0.27-1.08,0.78-1.29,1.38l-3.7,10.19
			c-0.2,0.55-0.2,1.14,0,1.69l6.17,17.1c2.16,0.32,4.01,1.08,5.55,2.15c0.26-0.01,0.5-0.03,0.77-0.03c0.38,0,0.73,0.03,1.1,0.05
			c-0.09-0.89-0.12-1.78-0.07-2.67l-1.34,0.78c-0.07,0.05-0.17,0.07-0.26,0.07c-0.06,0-0.12-0.01-0.18-0.03
			c-0.15-0.05-0.26-0.17-0.31-0.31L7.3,148.7c-0.04-0.12-0.04-0.24,0-0.36l2.91-8c0.05-0.13,0.15-0.23,0.27-0.29l6.58-3.07
			c0.61-0.27,1.06-0.77,1.29-1.39c0.22-0.63,0.19-1.3-0.09-1.9l-2.32-4.99c-0.06-0.13-0.06-0.27-0.02-0.41
			c0.05-0.13,0.15-0.23,0.27-0.29l4.99-2.32c0.61-0.27,1.06-0.77,1.29-1.39c0.22-0.63,0.19-1.3-0.1-1.9l-2.31-4.99
			c-0.13-0.26-0.01-0.58,0.25-0.7l4.99-2.32c0.6-0.27,1.06-0.77,1.28-1.39c0.23-0.63,0.2-1.3-0.09-1.9l-3.06-6.58
			c-0.06-0.13-0.06-0.27-0.02-0.4l4.99-13.71c0.37-0.96,0.06-2.08-0.74-2.75C13.76,76.16,8.55,57.1,14.7,40.21
			c6.1-16.75,22.2-28.02,40.04-28.02c2.08,0,4.15,0.17,6.2,0.48c0.02-0.36,0.06-0.72,0.11-1.08C59.83,11.43,58.7,11.15,57.66,10.74z
			"/>
		<path class="st1" d="M152.45,51.7c-0.05-0.16-0.16-0.29-0.32-0.35l-38.6-14.7c-0.06-0.02-0.12-0.03-0.19-0.03
			c-0.16,0-0.32,0.07-0.42,0.21L100.24,53.6c-0.07,0.09-0.11,0.21-0.11,0.32c0.09,5.95-0.86,11.71-2.82,17.13
			c-1.41,3.89-3.37,7.62-5.83,11.09c-0.09,0.13-0.12,0.29-0.08,0.45l11.63,40.58c0.04,0.13,0.13,0.25,0.25,0.31
			c0.08,0.04,0.17,0.07,0.25,0.07c0.05,0,0.1-0.01,0.14-0.02l14.46-4.15c0.28-0.08,0.44-0.37,0.36-0.65l-10.76-37.58
			c-0.18-0.64-0.1-1.31,0.22-1.89c0.33-0.58,0.85-1.01,1.49-1.18l28.89-8.3c0.22-0.06,0.45-0.09,0.68-0.09
			c0.42,0,0.84,0.11,1.2,0.31c0.59,0.32,1.02,0.86,1.2,1.49l10.75,37.54c0.04,0.13,0.13,0.25,0.25,0.31
			c0.08,0.04,0.17,0.07,0.25,0.07c0.05,0,0.1-0.01,0.14-0.02l14.44-4.14c0.13-0.04,0.25-0.13,0.31-0.25
			c0.07-0.12,0.08-0.27,0.05-0.4L152.45,51.7z"/>
		<path class="st2" d="M72.84,11.77c9.16,4.28,16.6,11.3,21.53,20.31c0.09,0.16,0.24,0.26,0.42,0.27c0.01,0,0.03,0,0.04,0
			c0.16,0,0.32-0.08,0.42-0.21l8.27-10.91c1.61-2.11,4.16-3.37,6.81-3.37c0.57,0,1.14,0.06,1.69,0.17c0.04,0.01,0.07,0.01,0.11,0.01
			c0.17,0,0.34-0.08,0.44-0.23c0.12-0.18,0.12-0.41,0-0.58c-3.28-4.86-7.92-8.49-13.42-10.51c-3.04-1.12-6.23-1.69-9.48-1.69
			c-4.01,0-8.04,0.9-11.67,2.61c-0.06,0.03-0.11,0.07-0.16,0.12c-1.73,0.8-3.39,1.83-5.08,3.13c-0.14,0.11-0.22,0.29-0.2,0.47
			C72.56,11.53,72.68,11.69,72.84,11.77z"/>
		<path class="st2" d="M58.11,26.27c-1.58,0.76-2.78,2.07-3.36,3.69c-1.21,3.38,0.55,7.13,3.92,8.37c0.72,0.26,1.46,0.38,2.21,0.38
			c2.74,0,5.21-1.73,6.16-4.3c0.25-0.71,0.38-1.45,0.38-2.2c0-3.62-2.94-6.56-6.56-6.56C59.91,25.65,58.96,25.86,58.11,26.27z"/>
		<path d="M173.23,106.06c-0.01-0.02-0.01-0.04-0.01-0.06L158.5,54.69c-0.05-0.19,0.01-0.39,0.16-0.52
			c0.09-0.09,0.22-0.14,0.35-0.14c0.06,0,0.13,0.01,0.19,0.03l1.4,0.53c0.28,0.1,0.58,0.16,0.88,0.16c1.04,0,1.96-0.62,2.33-1.59
			l4.3-11.24c0.49-1.29-0.15-2.74-1.44-3.23l-46.45-17.68c-0.14-0.05-0.24-0.17-0.3-0.3c-3.44-8.72-10.41-15.54-19.13-18.73
			C97.2,0.67,93.44,0,89.63,0c-4.74,0-9.5,1.07-13.79,3.07c-3.26,1.54-6.24,3.6-8.85,6.1c-0.09,0.09-0.22,0.15-0.36,0.15
			c-0.05,0-0.1-0.01-0.16-0.02c-4.58-1.41-9.3-2.12-14.02-2.12c-6.91,0-13.63,1.49-19.96,4.44C20.97,17.01,12.24,26.54,7.91,38.47
			C1.24,56.74,6.29,76.98,20.78,90.02c0.16,0.14,0.21,0.37,0.14,0.57l-4.69,12.93c-0.23,0.62-0.2,1.29,0.07,1.89l2.32,4.99
			c0.05,0.13,0.06,0.26,0.01,0.4c-0.04,0.13-0.15,0.23-0.27,0.29l-4.99,2.32c-0.6,0.27-1.06,0.78-1.28,1.4
			c-0.23,0.62-0.19,1.29,0.09,1.9l2.32,4.99c0.05,0.13,0.06,0.26,0.01,0.4c-0.04,0.13-0.14,0.23-0.26,0.29l-5,2.32
			c-0.6,0.27-1.05,0.78-1.28,1.39c-0.22,0.63-0.19,1.3,0.09,1.91l2.32,4.99c0.06,0.13,0.06,0.26,0.02,0.4
			c-0.05,0.13-0.15,0.23-0.27,0.29l-4.99,2.32c-0.61,0.27-1.08,0.78-1.29,1.38l-3.7,10.19c-0.2,0.55-0.2,1.14,0,1.69l7.97,22.09
			c0.35,0.99,1.28,1.64,2.31,1.64c0.28,0,0.56-0.04,0.82-0.14c0.16-0.05,0.3-0.13,0.45-0.21l20.28-11.81
			c0.52-0.31,0.91-0.78,1.1-1.3l20.74-57c0.07-0.2,0.26-0.34,0.47-0.35c12.41-0.45,23.99-5.64,32.6-14.59
			c0.09-0.1,0.23-0.16,0.38-0.16c0.04,0,0.08,0,0.13,0.01c0.18,0.05,0.33,0.19,0.38,0.37l11.33,39.51c0.18,0.63,0.61,1.16,1.18,1.48
			c0.39,0.21,0.82,0.33,1.2,0.33c0.26,0,0.49-0.03,0.69-0.09l69.36-19.9c0.63-0.18,1.16-0.61,1.49-1.18
			C173.34,107.38,173.41,106.7,173.23,106.06z M162.11,42.31c0.14,0.05,0.24,0.15,0.29,0.27c0.05,0.13,0.06,0.27,0.01,0.41
			l-2.16,5.62c-0.08,0.2-0.28,0.34-0.49,0.34c-0.06,0-0.13-0.01-0.19-0.04l-46.35-17.65c-0.27-0.1-0.57-0.16-0.86-0.16
			c-0.78,0-1.52,0.37-1.99,0.98l-10.22,13.54c-0.09,0.13-0.25,0.21-0.42,0.21c-0.03,0-0.07-0.01-0.12-0.02
			c-0.2-0.04-0.36-0.2-0.4-0.4c-0.53-2.63-1.21-4.98-2.01-7.17c-0.06-0.17-0.04-0.36,0.07-0.5l10.19-13.49
			c0.67-0.88,1.73-1.39,2.84-1.39c0.43,0,0.85,0.07,1.25,0.23L162.11,42.31z M72.75,10.87c1.69-1.3,3.34-2.33,5.07-3.12
			c0.04-0.05,0.1-0.09,0.16-0.12c3.63-1.71,7.66-2.61,11.67-2.61c3.25,0,6.44,0.57,9.48,1.69c5.5,2.01,10.15,5.65,13.42,10.51
			c0.13,0.18,0.13,0.41,0,0.59c-0.09,0.15-0.26,0.23-0.43,0.23c-0.04,0-0.07,0-0.1-0.01c-0.56-0.12-1.12-0.17-1.69-0.17
			c-2.65,0-5.2,1.26-6.82,3.38l-8.26,10.9c-0.1,0.14-0.25,0.21-0.42,0.21h-0.04c-0.17-0.01-0.34-0.12-0.42-0.27
			C89.45,23.07,82,16.04,72.84,11.76c-0.17-0.07-0.27-0.23-0.29-0.42C72.53,11.17,72.6,10.99,72.75,10.87z M52.44,97.43h-0.15
			c-0.06,0-0.13-0.01-0.19-0.04c-1.04,0.1-1.86,0.7-2.2,1.63l-21.11,57.93c-0.04,0.12-0.12,0.21-0.23,0.27l-16.23,9.44
			c-0.07,0.05-0.17,0.07-0.26,0.07c-0.06,0-0.12-0.01-0.18-0.03c-0.15-0.05-0.26-0.17-0.31-0.31L5.2,148.7
			c-0.04-0.12-0.04-0.24,0-0.36l2.91-8c0.05-0.13,0.15-0.23,0.27-0.29l6.58-3.07c0.61-0.27,1.06-0.77,1.29-1.39
			c0.22-0.63,0.19-1.3-0.09-1.9l-2.32-4.99c-0.06-0.13-0.06-0.27-0.02-0.41c0.05-0.13,0.15-0.23,0.27-0.29l4.99-2.32
			c0.61-0.27,1.06-0.77,1.29-1.39c0.22-0.63,0.19-1.3-0.1-1.9l-2.31-4.99c-0.13-0.26-0.01-0.58,0.25-0.7l4.99-2.32
			c0.6-0.27,1.06-0.77,1.28-1.39c0.23-0.63,0.2-1.3-0.09-1.9l-3.06-6.58c-0.06-0.13-0.06-0.27-0.02-0.4l4.99-13.71
			c0.37-0.96,0.06-2.08-0.74-2.75C11.66,76.16,6.45,57.1,12.61,40.21c6.1-16.75,22.2-28.02,40.04-28.02c3.33,0,6.66,0.4,9.9,1.17
			c0.17,0.04,0.3,0.16,0.37,0.31c0.06,0.17,0.04,0.35-0.05,0.49c-1.4,2.03-2.55,4.18-3.41,6.39c-0.06,0.17-0.22,0.29-0.4,0.33
			c-1.2,0.2-2.15,0.48-3.02,0.89c-2.78,1.29-4.89,3.6-5.96,6.5c-1.06,2.86-0.92,5.99,0.38,8.8c1.29,2.77,3.6,4.89,6.49,5.95
			c1.29,0.46,2.61,0.69,3.91,0.69c4.82,0,9.16-3.04,10.81-7.56c2.11-5.83-0.88-12.4-6.67-14.64c-0.14-0.05-0.24-0.16-0.29-0.29
			c-0.05-0.13-0.05-0.28,0.01-0.41c0.84-1.8,1.93-3.53,3.31-5.27c0.09-0.14,0.25-0.2,0.41-0.2c0.06,0,0.14,0.01,0.2,0.03
			c10.04,4.07,18.09,11.68,22.64,21.46c4.81,10.32,5.33,21.9,1.44,32.6C86.61,86.17,70.43,97.43,52.44,97.43z M67.42,32.21
			c0,0.74-0.14,1.49-0.39,2.2c-0.94,2.57-3.42,4.3-6.15,4.3c-0.75,0-1.5-0.13-2.21-0.39c-3.37-1.23-5.13-4.98-3.92-8.36
			c0.59-1.63,1.78-2.94,3.37-3.7c0.85-0.4,1.79-0.62,2.75-0.62C64.47,25.65,67.42,28.59,67.42,32.21z M147.07,111.09l-23.12,6.64
			c-0.05,0.02-0.09,0.02-0.15,0.02c-0.08,0-0.18-0.02-0.25-0.06c-0.13-0.06-0.21-0.18-0.25-0.31l-9.95-34.68
			c-0.08-0.28,0.08-0.58,0.36-0.65l23.12-6.65c0.04-0.01,0.09-0.02,0.15-0.02c0.08,0,0.17,0.02,0.25,0.06
			c0.13,0.07,0.21,0.19,0.25,0.31l9.95,34.69C147.5,110.72,147.35,111,147.07,111.09z M167.58,105.01
			c-0.06,0.12-0.18,0.21-0.31,0.25l-14.44,4.14c-0.05,0.01-0.09,0.02-0.15,0.02c-0.08,0-0.18-0.02-0.25-0.07
			c-0.13-0.06-0.21-0.18-0.25-0.31L141.43,71.5c-0.18-0.63-0.62-1.17-1.2-1.49c-0.37-0.21-0.79-0.31-1.21-0.31
			c-0.23,0-0.46,0.03-0.68,0.08l-28.89,8.3c-0.64,0.18-1.16,0.6-1.49,1.18s-0.41,1.26-0.23,1.89l10.77,37.58
			c0.07,0.28-0.08,0.58-0.37,0.65l-14.46,4.15c-0.04,0.01-0.09,0.02-0.14,0.02c-0.09,0-0.18-0.02-0.26-0.07
			c-0.12-0.06-0.21-0.18-0.24-0.31L91.41,82.59c-0.04-0.16-0.02-0.31,0.07-0.45c2.45-3.46,4.41-7.19,5.83-11.08
			c1.97-5.42,2.91-11.19,2.82-17.13c0-0.12,0.04-0.23,0.1-0.32l12.69-16.78c0.1-0.13,0.26-0.2,0.42-0.2c0.06,0,0.13,0.01,0.19,0.03
			l38.59,14.7c0.16,0.05,0.27,0.19,0.33,0.35l15.17,52.91C167.67,104.73,167.66,104.88,167.58,105.01z"/>
	</g>
</g>
</svg>
