<?xml version="1.0" encoding="utf-8"?>
<!-- Generator: Adobe Illustrator 25.0.0, SVG Export Plug-In . SVG Version: 6.00 Build 0)  -->
<svg version="1.1" id="Layer_1" xmlns="http://www.w3.org/2000/svg" xmlns:xlink="http://www.w3.org/1999/xlink" x="0px" y="0px"
	 viewBox="0 0 169.02 169" style="enable-background:new 0 0 169.02 169;" xml:space="preserve">
<style type="text/css">
	.st0{fill:#185AE9;}
	.st1{fill:#00B0FB;}
	.st2{fill:#00B0FB;fill-opacity:0.4;}
	.st3{fill:#FFFFFF;}
	.st4{fill:#3C7CFF;}
	.st5{fill:#3C7CFF;stroke:#001135;stroke-width:0.7602;stroke-miterlimit:10;}
	.st6{fill:#001135;}
	.st7{fill:#0A0A0A;}
	.st8{fill:#DBDBDB;}
	.st9{fill:#FDFDFD;}
	.st10{fill:#030303;}
	.st11{fill:none;}
	.st12{fill:#010101;}
	.st13{fill:#020202;}
	.st14{fill:#181818;}
	.st15{fill:#1C1C1C;}
	.st16{fill:#171717;}
	.st17{fill:#090909;}
	.st18{fill:#060606;}
	.st19{fill:#070707;}
	.st20{fill:#191919;}
	.st21{fill:#FBFBFB;}
	.st22{fill:#FCFCFC;}
	.st23{fill:#050505;}
	.st24{fill:#0B0B0B;}
	.st25{fill:#040404;}
	.st26{fill:#FAFAFA;}
	.st27{fill:#FBFAFB;}
	.st28{fill:#0C0C0C;}
</style>
<g>
	<g>
		<path class="st1" d="M158.57,27.63v1.15h3.17v103.93c0,0.67-0.3,1.27-0.75,1.72c-0.45,0.45-1.05,0.75-1.76,0.75h-8.42v5.28h8.42
			c2.06,0,4.04-0.82,5.5-2.28c1.39-1.39,2.29-3.34,2.29-5.47V27.63H158.57z"/>
		<path class="st1" d="M135.15,49.29c-2.55-1.87-6.93-0.71-11.53,1.76c-7,3.7-14.15,10.33-17.56,15.04L59.32,148.2l-0.04,0.08
			c-0.34,0.56-0.3,1.24-0.11,1.87c0.34,0.94,1.05,1.84,1.87,2.43c0.86,0.6,1.91,1.02,2.92,1.02c0.64-0.04,1.2-0.19,1.61-0.6
			l0.07-0.08l62.92-70.73c3.33-4.68,7.15-13.55,8.46-21.34C137.88,55.58,137.62,51.01,135.15,49.29z M127.66,68.37
			c-1.15,0.89-2.8,0.69-3.71-0.44c-0.36-0.51-0.83-0.92-1.38-1.2c-0.52-0.33-1.11-0.54-1.72-0.6c-1.45-0.19-2.46-1.51-2.29-2.96
			c0.19-1.42,1.5-2.43,2.96-2.28c1.27,0.19,2.55,0.6,3.67,1.23c1.12,0.64,2.13,1.54,2.92,2.59
			C129.01,65.83,128.78,67.48,127.66,68.37z"/>
		<polygon class="st1" points="31.14,81.62 79.01,102.24 89.48,84.21 37.31,77.02 		"/>
		<polygon class="st1" points="72.25,153.47 78.56,162.09 83.95,155.73 81.03,143.59 		"/>
		<polygon class="st1" points="50.71,131.89 46.41,139.04 56.62,142.26 63.17,130.76 		"/>
		<path class="st2" d="M162.99,6.02c-0.46-0.47-1.1-0.74-1.76-0.75H7.74c-0.67,0-1.27,0.3-1.72,0.75S5.27,7.07,5.27,7.74V23.5
			h158.47V7.74C163.74,7.07,163.44,6.47,162.99,6.02z M15.72,16.95c-1.43,0-2.55-1.16-2.55-2.58c0-1.41,1.14-2.55,2.55-2.55
			c1.4,0,2.54,1.14,2.54,2.55C18.26,15.79,17.14,16.95,15.72,16.95z M26.87,16.95c-1.42,0-2.58-1.16-2.58-2.58
			c0-1.39,1.16-2.55,2.58-2.55c1.4,0,2.54,1.14,2.54,2.55C29.41,15.79,28.29,16.95,26.87,16.95z M38.02,16.95
			c-1.42,0-2.58-1.16-2.58-2.58c0-1.39,1.16-2.55,2.58-2.55c1.41,0,2.55,1.14,2.55,2.55C40.57,15.79,39.44,16.95,38.02,16.95z"/>
		<polygon class="st1" points="102.96,119.46 137.84,158.16 140.23,150.82 116.69,103.74 		"/>
		<path d="M166.73,2.28c-1.42-1.42-3.37-2.28-5.5-2.28H7.74C5.61,0,3.7,0.86,2.28,2.28C0.86,3.7,0,5.61,0,7.74v124.97
			c-0.01,2.06,0.81,4.03,2.28,5.47c1.44,1.46,3.41,2.29,5.46,2.28h32.04c-0.04,1.15,0.68,2.23,1.83,2.58L54.1,147
			c-0.53,1.62-0.45,3.26,0.05,4.8c0.68,2.02,2.14,3.85,3.82,5.09v-0.04c1.68,1.24,3.89,2.02,6.03,1.99c1.61,0,3.19-0.47,4.56-1.48
			l7.71,10.53c0.98,1.38,3.03,1.5,4.16,0.19l8.38-9.96c0.54-0.64,0.75-1.5,0.56-2.32l-4.06-17.02l13.91-15.65l37.76,41.95
			c1.38,1.54,3.93,0.94,4.49-1.04l4.12-12.58c0.26-0.75,0.15-1.53-0.23-2.17l-4.41-8.83h20.28c2.06,0,4.04-0.82,5.5-2.28
			c1.39-1.39,2.29-3.34,2.29-5.47V7.74C169.02,5.61,168.12,3.7,166.73,2.28z M56.62,142.25l-10.21-3.21l4.3-7.15l12.46-1.13
			L56.62,142.25z M78.56,162.09l-6.31-8.62l8.78-9.88l2.92,12.14L78.56,162.09z M65.64,152.92L65.57,153
			c-0.41,0.41-0.97,0.56-1.61,0.6c-1.01,0-2.06-0.42-2.92-1.02c-0.82-0.59-1.53-1.49-1.87-2.43c-0.19-0.63-0.23-1.31,0.11-1.87
			l0.04-0.08l46.74-82.11c3.41-4.71,10.56-11.34,17.56-15.04c4.6-2.47,8.98-3.63,11.53-1.76c2.47,1.72,2.73,6.29,1.87,11.56
			c-1.31,7.79-5.13,16.66-8.46,21.34L65.64,152.92z M79.01,102.24L31.14,81.62l6.17-4.6l52.17,7.19L79.01,102.24z M137.84,158.16
			l-34.88-38.7l13.73-15.72l23.54,47.08L137.84,158.16z M163.74,132.71c0,0.67-0.3,1.27-0.75,1.72c-0.45,0.45-1.05,0.75-1.76,0.75
			h-22.92l-17.93-35.85l12.15-13.67c0.09-0.09,0.18-0.19,0.26-0.3c3.7-5.16,8.01-15.04,9.43-23.68c1.16-7.12,0.41-13.55-3.97-16.7
			c-4.53-3.22-10.81-1.94-17.1,1.42c-7.75,4.12-15.68,11.5-19.43,16.7c-0.03,0.07-0.11,0.15-0.15,0.22l-9.09,15.99l-55.51-7.68
			c-0.69-0.07-1.38,0.12-1.94,0.52l-10.52,7.86c-0.45,0.27-0.78,0.68-1.01,1.2c-0.6,1.31,0.04,2.88,1.39,3.45l51.82,22.37
			l-10.33,18.16l-17.47,1.61c-0.83,0.06-1.58,0.52-2.02,1.23l-4.32,7.15H7.74c-0.67,0-1.27-0.3-1.72-0.75s-0.75-1.05-0.75-1.72
			V28.78h158.47V132.71z M163.74,23.5H5.27V7.74c0-0.67,0.3-1.27,0.75-1.72s1.05-0.75,1.72-0.75h153.49
			c0.66,0.01,1.3,0.28,1.76,0.75c0.45,0.45,0.75,1.05,0.75,1.72V23.5z"/>
		<path d="M38.02,11.82c-1.42,0-2.58,1.16-2.58,2.55c0,1.43,1.16,2.58,2.58,2.58c1.42,0,2.54-1.16,2.54-2.58
			C40.57,12.96,39.43,11.82,38.02,11.82z"/>
		<path d="M26.87,11.82c-1.42,0-2.58,1.16-2.58,2.55c0,1.42,1.16,2.58,2.58,2.58s2.54-1.16,2.54-2.58
			C29.41,12.96,28.27,11.82,26.87,11.82z"/>
		<path d="M15.72,11.82c-1.41,0-2.54,1.14-2.55,2.55c0,1.42,1.12,2.58,2.55,2.58c1.42,0,2.54-1.16,2.54-2.58
			C18.26,12.96,17.12,11.82,15.72,11.82z"/>
		<path d="M128.11,64.71c-0.79-1.05-1.8-1.95-2.92-2.58c-1.12-0.64-2.4-1.05-3.67-1.23c-1.46-0.15-2.77,0.86-2.96,2.28
			c-0.18,1.45,0.84,2.76,2.28,2.96c0.61,0.06,1.2,0.27,1.72,0.6c0.55,0.28,1.03,0.69,1.39,1.2c0.91,1.14,2.56,1.34,3.71,0.45
			C128.78,67.48,129.01,65.83,128.11,64.71z"/>
		<path d="M88.17,54.23c0,1.46-1.16,2.65-2.61,2.65H29.83c-1.46,0-2.62-1.19-2.62-2.65c0-1.46,1.16-2.62,2.62-2.62h55.73
			C87.01,51.61,88.17,52.77,88.17,54.23z"/>
		<path d="M73.8,40.12c0,1.46-1.16,2.65-2.62,2.65H29.83c-1.46,0-2.62-1.19-2.62-2.65c0-1.46,1.16-2.62,2.62-2.62h41.35
			C72.64,37.5,73.8,38.66,73.8,40.12z"/>
	</g>
</g>
</svg>
