<?xml version="1.0" encoding="utf-8"?>
<!-- Generator: Adobe Illustrator 24.3.0, SVG Export Plug-In . SVG Version: 6.00 Build 0)  -->
<svg version="1.1" id="Layer_1" xmlns="http://www.w3.org/2000/svg" xmlns:xlink="http://www.w3.org/1999/xlink" x="0px" y="0px"
	 width="111.6px" height="107px" viewBox="0 0 111.6 107" style="enable-background:new 0 0 111.6 107;" xml:space="preserve">
<style type="text/css">
	.st0{fill:#185AE9;}
	.st1{fill:#00B0FB;}
</style>
<g>
	<path class="st1" d="M17.7,69.1c3.1,2.7,6.6,5,10.4,6.6l19.8-12.4c4.1-2.6,9.5-2,13,1.5l6.6,6.6c10-7.3,16.2-19.1,16.2-31.8
		C83.7,17.8,65.9,0,44.1,0S4.5,17.8,4.5,39.6C4.5,50.8,9.3,61.6,17.7,69.1z M40.6,23.5v-3.7c0-1.9,1.6-3.5,3.5-3.5
		c1.9,0,3.5,1.6,3.5,3.5v3.5h4.7c1.9,0,3.5,1.6,3.5,3.5c0,1.9-1.6,3.5-3.5,3.5h-9.9c-1.6,0-2.9,1.3-2.9,2.9c0,1.6,1.3,2.9,2.9,2.9
		h3.5c5.5,0,9.9,4.4,9.9,9.9c0,4.8-3.4,8.9-8.2,9.7v3.7c0,1.9-1.6,3.5-3.5,3.5c-1.9,0-3.5-1.6-3.5-3.5v-3.5H36
		c-1.9,0-3.5-1.6-3.5-3.5c0-1.9,1.6-3.5,3.5-3.5h9.9c1.6,0,2.9-1.3,2.9-2.9c0-1.6-1.3-2.9-2.9-2.9c0,0,0,0,0,0h-3.5
		c-5.5,0-9.9-4.4-9.9-9.9C32.4,28.4,35.9,24.3,40.6,23.5z"/>
	<path class="st1" d="M107,51.2H88.3c-2.6,0-4.7,2.1-4.7,4.7c0,1.2,0.5,2.4,1.4,3.3l6,6l-19,19L56.7,68.9c-1.5-1.5-3.9-1.8-5.7-0.7
		L2.1,98.5c-2.1,1.4-2.7,4.3-1.3,6.4c1.4,2.1,4.1,2.7,6.2,1.5l45.7-28.3l16,16c1.8,1.8,4.8,1.8,6.6,0c0,0,0,0,0,0l22.3-22.3l6,6
		c1.8,1.8,4.8,1.8,6.6,0c0.9-0.9,1.4-2.1,1.4-3.3V55.9C111.6,53.3,109.5,51.2,107,51.2z"/>
</g>
</svg>
