<?xml version="1.0" encoding="utf-8"?>
<!-- Generator: Adobe Illustrator 24.3.0, SVG Export Plug-In . SVG Version: 6.00 Build 0)  -->
<svg version="1.1" id="Layer_1" xmlns="http://www.w3.org/2000/svg" xmlns:xlink="http://www.w3.org/1999/xlink" x="0px" y="0px"
	 width="96.2px" height="107px" viewBox="0 0 96.2 107" style="enable-background:new 0 0 96.2 107;" xml:space="preserve">
<style type="text/css">
	.st0{fill:#185AE9;}
	.st1{fill:#00B0FB;}
</style>
<g>
	<path class="st1" d="M92.4,31.5c0.8,0.5,1.7,0.4,2.4-0.1c0.7-0.5,1.1-1.4,0.9-2.2L91.2,1.9c0-0.2-0.1-0.3-0.1-0.5
		c-0.5-1.1-1.8-1.7-2.9-1.2L63.7,10.6c-0.5,0.2-0.9,0.6-1.2,1.1c-0.5,1.1,0,2.4,1.1,3l7.4,3.6C51.3,61.5,4.4,58.4,2.4,58.2
		C1.3,58.1,0.3,58.9,0,60c-0.2,1.2,0.5,2.4,1.7,2.7c8.3,1.8,15.8,2.6,22.6,2.6c32.3,0,49-18.5,60.9-38.1L92.4,31.5z"/>
	<path class="st1" d="M42.9,78.9H27.7c-1.1,0-2,0.9-2,2v24c0,1.1,0.9,2,2,2h15.3c1.1,0,2-0.9,2-2v-24C45,79.8,44,78.9,42.9,78.9z"/>
	<path class="st1" d="M17.3,84.1H2c-1.1,0-2,0.9-2,2V105c0,1.1,0.9,2,2,2h15.3c1.1,0,2-0.9,2-2V86.2C19.3,85.1,18.4,84.1,17.3,84.1z
		"/>
	<path class="st1" d="M68.5,67.4H53.3c-1.1,0-2,0.9-2,2V105c0,1.1,0.9,2,2,2h15.3c1.1,0,2-0.9,2-2V69.5
		C70.6,68.3,69.6,67.4,68.5,67.4z"/>
	<path class="st1" d="M94.1,52.5H78.9c-1.1,0-2,0.9-2,2V105c0,1.1,0.9,2,2,2h15.3c1.1,0,2-0.9,2-2V54.5
		C96.2,53.4,95.2,52.5,94.1,52.5z"/>
</g>
</svg>
