<?xml version="1.0" encoding="utf-8"?>
<!-- Generator: Adobe Illustrator 24.3.0, SVG Export Plug-In . SVG Version: 6.00 Build 0)  -->
<svg version="1.1" id="Layer_1" xmlns="http://www.w3.org/2000/svg" xmlns:xlink="http://www.w3.org/1999/xlink" x="0px" y="0px"
	 width="144.2px" height="115.5px" viewBox="0 0 144.2 115.5" style="enable-background:new 0 0 144.2 115.5;" xml:space="preserve"
	>
<style type="text/css">
	.st0{fill:#00C8FF;}
	.st1{fill-rule:evenodd;clip-rule:evenodd;fill:#00C8FF;}
	.st2{fill:#185AE9;}
	.st3{fill:#FFFFFF;}
	.st4{fill-rule:evenodd;clip-rule:evenodd;fill:#FFFFFF;}
	.st5{fill:#00B0FB;}
	.st6{fill:#00B0FB;fill-opacity:0.4;}
	.st7{fill:#E4ECF4;}
	.st8{fill:#FFE8A0;}
	.st9{fill:none;}
	.st10{fill:#0D0D0D;}
	.st11{fill-rule:evenodd;clip-rule:evenodd;fill:#00B0FB;}
	.st12{fill:#FAFBFF;}
	.st13{fill:#070707;}
	.st14{fill:#D9D9D9;filter:url(#Adobe_OpacityMaskFilter);}
	.st15{mask:url(#mask0_103_2708_1_);}
	.st16{fill-rule:evenodd;clip-rule:evenodd;fill:#DAB6E4;}
	.st17{stroke:#FFFFFF;stroke-width:2;}
	.st18{fill:#FFFFFF;stroke:#000000;stroke-width:2;}
	.st19{fill-rule:evenodd;clip-rule:evenodd;}
	.st20{stroke:#FFFFFF;}
	.st21{fill:#FFFFFF;filter:url(#Adobe_OpacityMaskFilter_1_);}
	.st22{mask:url(#path-22-inside-1_103_2708_1_);fill:#FFFFFF;}
	.st23{fill-rule:evenodd;clip-rule:evenodd;fill:#263238;}
	.st24{fill:#EFEFEF;}
	
		.st25{fill:none;stroke:#000000;stroke-width:10.01;stroke-linecap:round;stroke-linejoin:round;stroke-miterlimit:3.08;stroke-dasharray:70.84,70.84;}
	.st26{fill:#010000;}
	.st27{opacity:0.64;}
	.st28{fill:#F9F7F5;}
	.st29{fill:#D9D9D9;filter:url(#Adobe_OpacityMaskFilter_2_);}
	.st30{mask:url(#mask0_103_2310_1_);}
	.st31{fill:#FFFFFF;filter:url(#Adobe_OpacityMaskFilter_3_);}
	.st32{mask:url(#mask1_103_2310_1_);}
	.st33{fill:#E6E6E6;}
	.st34{fill:#FFFFFF;filter:url(#Adobe_OpacityMaskFilter_4_);}
	.st35{mask:url(#mask2_103_2310_1_);}
	.st36{fill:none;stroke:#000000;stroke-width:1.5;stroke-linecap:round;stroke-linejoin:round;stroke-miterlimit:10;}
	.st37{fill:#FFFFFF;filter:url(#Adobe_OpacityMaskFilter_5_);}
	.st38{mask:url(#mask3_103_2310_1_);}
	.st39{fill:#FFFFFF;filter:url(#Adobe_OpacityMaskFilter_6_);}
	.st40{mask:url(#mask4_103_2310_1_);}
	.st41{fill:#FFFFFF;filter:url(#Adobe_OpacityMaskFilter_7_);}
	.st42{mask:url(#mask5_103_2310_1_);}
	.st43{fill:#FFFFFF;filter:url(#Adobe_OpacityMaskFilter_8_);}
	.st44{mask:url(#mask6_103_2310_1_);}
	.st45{fill:#DBDBDB;}
	.st46{fill:#FFFFFF;filter:url(#Adobe_OpacityMaskFilter_9_);}
	.st47{mask:url(#mask7_103_2310_1_);}
	.st48{fill:#FFFFFF;filter:url(#Adobe_OpacityMaskFilter_10_);}
	.st49{mask:url(#mask8_103_2310_1_);}
	.st50{fill:#FFFFFF;filter:url(#Adobe_OpacityMaskFilter_11_);}
	.st51{mask:url(#mask9_103_2310_1_);}
	.st52{fill:#FFFFFF;filter:url(#Adobe_OpacityMaskFilter_12_);}
	.st53{mask:url(#mask10_103_2310_1_);}
	.st54{fill:#FFFFFF;filter:url(#Adobe_OpacityMaskFilter_13_);}
	.st55{mask:url(#mask11_103_2310_1_);}
	.st56{fill:#FFFFFF;filter:url(#Adobe_OpacityMaskFilter_14_);}
	.st57{mask:url(#mask12_103_2310_1_);}
	.st58{fill:#FFFFFF;stroke:#000000;}
	.st59{fill:#FFFFFF;filter:url(#Adobe_OpacityMaskFilter_15_);stroke:#FFFFFF;}
	.st60{mask:url(#mask13_103_2310_1_);}
	.st61{fill:#FFFFFF;filter:url(#Adobe_OpacityMaskFilter_16_);}
	.st62{mask:url(#path-55-inside-1_103_2310_1_);}
	.st63{fill:#FFFFFF;filter:url(#Adobe_OpacityMaskFilter_17_);}
	.st64{mask:url(#path-59-inside-2_103_2310_1_);fill:#FFFFFF;}
	.st65{fill:none;stroke:#FFFFFF;stroke-width:1.5;stroke-linecap:round;stroke-linejoin:round;stroke-miterlimit:10;}
	.st66{fill:#181818;}
	.st67{fill:#BEBEBE;}
	.st68{fill:#FEFEFE;}
	.st69{fill:none;stroke:#000000;stroke-width:2.1125;stroke-miterlimit:6.5;}
	.st70{fill:#3C7CFF;stroke:#001135;stroke-width:0.7602;stroke-miterlimit:10;}
	.st71{fill:#001135;}
	.st72{fill:#3C7CFF;}
	.st73{clip-path:url(#SVGID_1_);}
	.st74{fill:#FFFFFF;stroke:#001135;stroke-width:0.7602;stroke-miterlimit:10;}
	.st75{fill:none;stroke:#001135;stroke-width:0.7602;stroke-miterlimit:10;}
	.st76{fill:#001135;stroke:#001135;stroke-width:0.7602;stroke-miterlimit:10;}
	.st77{fill:#0F0D0E;}
	.st78{fill:#161415;}
	.st79{fill:#FCFCFC;}
	.st80{fill:#FBFBFB;}
	.st81{fill:#FAFAFA;}
	.st82{fill:#C1C1C1;}
	.st83{fill:#0E0E0E;}
	.st84{fill:#EFEEEE;}
	.st85{fill:#A8A8A8;}
	.st86{fill:#9A9A9B;}
	.st87{fill:#404040;}
	.st88{fill:#EDEDED;}
	.st89{fill:#E7E7E7;}
	.st90{fill:#9A9999;}
	.st91{fill:#D2D2D2;}
	.st92{fill:#AEAEAE;}
	.st93{fill:#8D8D8C;}
	.st94{fill:#B9BABC;}
	.st95{fill:#61605F;}
	.st96{fill:#A5A5A5;}
	.st97{fill:#B5B6B6;}
	.st98{fill:#1B1C1C;}
	.st99{fill:#171616;}
	.st100{fill:#161616;}
	.st101{fill:#0F0F0F;}
	.st102{fill:#F0F0F0;}
	.st103{fill:#EDEDEC;}
	.st104{fill:#EBEBEB;}
	.st105{fill:#EBEBEA;}
	.st106{fill:#ECECEC;}
	.st107{fill:#E9E9E9;}
	.st108{fill:#EBEAEA;}
	.st109{fill:#B9BAB9;}
	.st110{fill:#EDECEC;}
	.st111{fill:#EAEAEA;}
	.st112{fill:#1F1F1E;}
	.st113{fill:#1E1E1D;}
	.st114{fill:#202020;}
	.st115{fill:#1B1A1A;}
	.st116{fill:#1F1F20;}
	.st117{fill:#252424;}
	.st118{fill:#1F1E1E;}
	.st119{fill:#222121;}
	.st120{fill:#2B2B2B;}
	.st121{fill:#1E1E1E;}
	.st122{fill:#1F1F1F;}
	.st123{fill:#434242;}
	.st124{fill:#2C2C2C;}
	.st125{fill:#484848;}
	.st126{fill:#FDFDFD;}
	.st127{fill:#F4F4F3;}
	.st128{fill:#F2F2F2;}
	.st129{fill:#F3F3F3;}
	.st130{fill:#F1F1F1;}
	.st131{fill:#191918;}
	.st132{fill:#1A1A19;}
	.st133{fill:#1D1C1D;}
	.st134{fill:#1C1A1B;}
	.st135{fill:#1E1D1E;}
	.st136{fill:#212021;}
	.st137{fill:#1D1D1D;}
	.st138{fill:#1D1B1B;}
	.st139{fill:#1F1D1E;}
	.st140{fill:#1E1D1D;}
	.st141{fill:#FCFBFB;}
	.st142{fill:#080808;}
	.st143{fill:#020202;}
	.st144{fill:#030303;}
	.st145{fill:#060606;}
	.st146{fill:#040304;}
	.st147{fill:#040404;}
	.st148{fill:#050404;}
	.st149{fill:#030302;}
	.st150{fill:#0A0A0A;}
	.st151{fill:#020102;}
	.st152{fill:#090909;}
	.st153{fill:#0B0B0B;}
	.st154{fill:#010101;}
	.st155{fill:#030304;}
	.st156{fill:#F8F9F9;}
	.st157{fill:#F9F9F9;}
	.st158{fill:#F8F8F8;}
	.st159{fill:#F7F7F7;}
	.st160{fill:#F5F5F5;}
	.st161{fill:#E4E5E4;}
	.st162{fill:#D4D4D5;}
	.st163{fill:#A5A5A6;}
	.st164{fill:#222222;}
	.st165{fill:#161615;}
	.st166{fill:#C7C7C7;}
	.st167{fill:#626261;}
	.st168{fill:#D5D3D6;}
	.st169{fill:#090908;}
	.st170{fill:#F6F6F6;}
	.st171{fill:#232323;}
	.st172{fill:#5F5E5E;}
	.st173{fill:#080807;}
	.st174{fill:#C3C3C3;}
	.st175{fill:#050505;}
	.st176{fill:#191919;}
	.st177{fill:#1A1A1A;}
	.st178{fill:#151615;}
	.st179{fill:#0F0F0E;}
	.st180{fill:#1D1C1C;}
	.st181{fill:#1A1919;}
	.st182{fill:#1C1C1C;}
	.st183{fill:#201F20;}
	.st184{fill:#151616;}
	.st185{fill:#201F1F;}
	.st186{fill:#232424;}
	.st187{fill:#1E1F1F;}
	.st188{fill:#1E1E1F;}
	.st189{fill:#1B1B1B;}
	.st190{fill:#1B1A1C;}
	.st191{fill:#2A2A2A;}
	.st192{fill:#1C1B1D;}
	.st193{fill:#242324;}
	.st194{fill:#1B1A1B;}
	.st195{fill:#212121;}
	.st196{fill:#2A2A2B;}
	.st197{fill:#2B2A2B;}
	.st198{fill:#202021;}
	.st199{fill:#202121;}
	.st200{fill:#242424;}
	.st201{fill:#1D1D1E;}
	.st202{fill:#272728;}
	.st203{fill:#222122;}
	.st204{fill:#242323;}
	.st205{fill:#222223;}
	.st206{fill:#252526;}
	.st207{fill:#282828;}
	.st208{fill:#292829;}
	.st209{fill:#171817;}
	.st210{fill:#282829;}
	.st211{fill:#2A2B2B;}
	.st212{fill:#363536;}
	.st213{fill:#212122;}
	.st214{fill:#272727;}
	.st215{fill:#252525;}
	.st216{fill:#29292A;}
	.st217{fill:#1F1E1F;}
	.st218{fill:#2E2D2D;}
	.st219{fill:#313030;}
	.st220{fill:#404141;}
	.st221{fill:#2E2F2E;}
	.st222{fill:#242525;}
	.st223{fill:#2D2C2C;}
	.st224{fill:#2B2B2C;}
	.st225{fill:#4B4B4B;}
	.st226{fill:#2E2E2E;}
	.st227{fill:#2E2D2E;}
	.st228{fill:#2E2E2F;}
	.st229{fill:#2C2B2B;}
	.st230{fill:#272627;}
	.st231{fill:#323131;}
	.st232{fill:#282928;}
	.st233{fill:#323232;}
	.st234{fill:#262627;}
	.st235{fill:#2D2C2D;}
	.st236{fill:#333333;}
	.st237{fill:#2A292A;}
	.st238{fill:#141414;}
	.st239{fill:#303030;}
	.st240{fill:#2E2E2D;}
	.st241{fill:#363635;}
	.st242{fill:#4D4D4D;}
	.st243{fill:#373636;}
	.st244{fill:#292929;}
	.st245{fill:#3C3B3C;}
	.st246{fill:#161516;}
	.st247{fill:#393939;}
	.st248{fill:#373737;}
	.st249{fill:#252425;}
	.st250{fill:#383839;}
	.st251{fill:#313232;}
	.st252{fill:#323233;}
	.st253{fill:#2B2C2C;}
	.st254{fill:#343333;}
	.st255{fill:#2C2C2D;}
	.st256{fill:#3C3C3C;}
	.st257{fill:#070606;}
	.st258{fill:#454545;}
	.st259{fill:#3B3B3C;}
	.st260{fill:#30302F;}
	.st261{fill:#3C3C3D;}
	.st262{fill:#232223;}
	.st263{fill:#333433;}
	.st264{fill:#050405;}
	.st265{fill:#373637;}
	.st266{fill:#414141;}
	.st267{fill:#3C3B3D;}
	.st268{fill:#3D3C3D;}
	.st269{fill:#2F2E2E;}
	.st270{fill:#2B2A2A;}
	.st271{fill:#040303;}
	.st272{fill:#2C2A2B;}
	.st273{fill:#191A1A;}
	.st274{fill:#313130;}
	.st275{fill:#19191A;}
	.st276{fill:#444443;}
	.st277{fill:#303031;}
	.st278{fill:#4A4A4B;}
	.st279{fill:#353635;}
	.st280{fill:#030202;}
	.st281{fill:#010001;}
	.st282{fill:#343434;}
	.st283{fill:#060505;}
	.st284{fill:#151514;}
	.st285{fill:#040302;}
	.st286{fill:#111010;}
	.st287{fill:#5D5C5D;}
	.st288{fill:#353535;}
	.st289{fill:#262524;}
	.st290{fill:#020203;}
	.st291{fill:#030203;}
	.st292{fill:#3D3E3E;}
	.st293{fill:#222323;}
	.st294{fill:#272928;}
	.st295{fill:#343433;}
	.st296{fill:#131212;}
	.st297{fill:#111111;}
	.st298{fill:#0B0C0C;}
	.st299{fill:#121212;}
	.st300{fill:#949597;}
	.st301{fill:#494749;}
	.st302{fill:#F9F8F9;}
	.st303{fill:#E4E5E5;}
	.st304{fill:#C8C5C6;}
	.st305{fill:#E5E5E5;}
	.st306{fill:#B7B6B8;}
	.st307{fill:#D0D0D1;}
	.st308{fill:#E6E6E7;}
	.st309{fill:#D1D0D3;}
	.st310{fill:#F6F7F7;}
	.st311{fill:#CBCACC;}
	.st312{fill:none;stroke:#000000;stroke-width:2;stroke-miterlimit:10;}
	.st313{fill:none;stroke:#000000;stroke-width:2;stroke-miterlimit:10;stroke-dasharray:12.1617,12.1617;}
	.st314{fill:none;stroke:#000000;stroke-width:2;stroke-miterlimit:10;stroke-dasharray:12;}
	.st315{fill:none;stroke:#222122;stroke-width:2;stroke-miterlimit:10;stroke-dasharray:12;}
	.st316{fill:none;stroke:#000000;stroke-width:2;stroke-miterlimit:10;stroke-dasharray:12.0927,12.0927;}
	.st317{fill:none;stroke:#000000;stroke-width:0;stroke-linecap:round;stroke-linejoin:round;}
	.st318{fill:#535353;}
	.st319{fill:#414041;}
	.st320{fill:#4D4C4D;}
	.st321{fill:#0A0A0B;}
	.st322{fill:#181718;}
	.st323{fill:#2F2E2F;}
	.st324{fill:#494A4A;}
	.st325{fill:#585959;}
	.st326{fill:#3A3A3A;}
	.st327{fill:#989898;}
	.st328{fill:#908F90;}
	.st329{fill:#0D0C0C;}
	.st330{fill:#0C0C0B;}
	.st331{fill:#232322;}
	.st332{fill:#474847;}
</style>
<g>
	<rect x="49.7" y="55.9" class="st71" width="14.3" height="55.2"/>
	<polygon class="st72" points="80.2,111.1 80.2,111.1 94.5,111.1 94.5,78.5 80.2,78.5 	"/>
	<rect x="19.2" y="85" class="st72" width="14.3" height="26.1"/>
	<path class="st3" d="M129.4,97.8h3.3c3.1,0,5.6-2.5,5.6-5.6V10c0-3.1-2.5-5.6-5.6-5.6H11.5c-3.1,0-5.7,2.5-5.7,5.6v82.1
		c0,3.1,2.5,5.6,5.7,5.6h3.3v-15c0-1.2,1-2.2,2.2-2.2h18.7c1.2,0,2.2,1,2.2,2.2v15h7.4V53.7c0-1.2,1-2.2,2.2-2.2c0,0,0,0,0,0h18.7
		c1.2,0,2.2,1,2.2,2.2v44.1h7.4V76.3c0-1.2,1-2.2,2.2-2.2h18.7c1.2,0,2.2,1,2.2,2.2c0,0,0,0,0,0v21.5h7.4V48.4c0-1.2,1-2.2,2.2-2.2
		h18.7c1.2,0,2.2,1,2.2,2.2V97.8z M113,35.5L95.1,53.2c3.6,6-0.8,13.7-7.8,13.7c-7.1,0-11.4-7.7-7.8-13.7L61.5,35.5
		c-2.9,1.8-6.6,1.8-9.5,0L34.1,53.2c3.6,6-0.7,13.7-7.8,13.7c-5,0-9.1-4.1-9.1-9.1c0-7.1,7.8-11.4,13.8-7.8L49,32.4
		c-3.6-6,0.8-13.7,7.8-13.7c7.1,0,11.4,7.7,7.8,13.7L82.5,50c2.9-1.8,6.6-1.8,9.5,0L110,32.4c-3.6-6,0.8-13.7,7.8-13.7
		c5,0,9.1,4.1,9.1,9.1C126.9,34.8,119,39.2,113,35.5z"/>
	<rect x="110.7" y="50.6" class="st71" width="14.3" height="60.5"/>
	<path class="st3" d="M87.3,53.1c-2.6,0-4.7,2.1-4.7,4.7c0,2.6,2.1,4.7,4.7,4.7c2.6,0,4.7-2.1,4.7-4.7C92,55.2,89.9,53.1,87.3,53.1z
		"/>
	<path class="st3" d="M117.8,23c-2.6,0-4.7,2.1-4.7,4.7c0,2.6,2.1,4.7,4.7,4.7c2.6,0,4.7-2.1,4.7-4.7C122.5,25.1,120.4,23,117.8,23z
		"/>
	<path class="st3" d="M26.3,53.1c-2.6,0-4.7,2.1-4.7,4.7c0,2.6,2.1,4.7,4.7,4.7c2.6,0,4.7-2.1,4.7-4.7C31,55.2,28.9,53.1,26.3,53.1z
		"/>
	<path class="st3" d="M56.8,23c-2.6,0-4.7,2.1-4.7,4.7c0,2.6,2.1,4.7,4.7,4.7c2.6,0,4.7-2.1,4.7-4.7C61.5,25.1,59.4,23,56.8,23z"/>
	<path class="st72" d="M117.8,18.6c-7.1,0-11.4,7.7-7.8,13.7L92,50c-2.9-1.8-6.6-1.8-9.5,0L64.6,32.3c3.6-6-0.7-13.7-7.8-13.7
		c-7.1,0-11.4,7.7-7.8,13.7L31.1,50c-6-3.7-13.8,0.6-13.8,7.8c0,5,4.1,9.1,9.1,9.1c7.1,0,11.4-7.8,7.8-13.7L52,35.5
		c2.9,1.8,6.6,1.8,9.5,0l17.9,17.7c-3.6,6,0.7,13.7,7.8,13.7c7.1,0,11.4-7.7,7.8-13.7L113,35.5c6,3.7,13.8-0.6,13.8-7.8
		C126.9,22.7,122.8,18.6,117.8,18.6z M26.3,62.5c-2.6,0-4.7-2.1-4.7-4.7c0-2.6,2.1-4.7,4.7-4.7c2.6,0,4.7,2.1,4.7,4.7
		C31,60.4,28.9,62.5,26.3,62.5z M56.8,32.4c-2.6,0-4.7-2.1-4.7-4.7c0-2.6,2.1-4.7,4.7-4.7c2.6,0,4.7,2.1,4.7,4.7
		C61.5,30.3,59.4,32.4,56.8,32.4z M87.3,62.5c-2.6,0-4.7-2.1-4.7-4.7c0-2.6,2.1-4.7,4.7-4.7c2.6,0,4.7,2.1,4.7,4.7
		C92,60.4,89.9,62.5,87.3,62.5z M117.8,32.4c-2.6,0-4.7-2.1-4.7-4.7c0-2.6,2.1-4.7,4.7-4.7c2.6,0,4.7,2.1,4.7,4.7
		C122.5,30.3,120.4,32.4,117.8,32.4z"/>
	<path class="st71" d="M142,111.1h-12.6v-8.9h3.3c5.5,0,10-4.5,10-10V10c0-5.5-4.5-10-10-10H11.5C6,0,1.5,4.5,1.5,10v82.1
		c0,5.5,4.5,10,10,10h3.3v8.9H2.2c-1.2,0-2.2,1-2.2,2.2c0,1.2,1,2.2,2.2,2.2c0,0,0,0,0,0H142c1.2,0,2.2-1,2.2-2.2
		S143.2,111.1,142,111.1z M33.5,111.1H19.2V85h14.3V111.1z M45.3,111.1h-7.4v-8.9h7.4V111.1z M64,111.1H49.7V55.9H64V111.1z
		 M75.8,111.1h-7.4v-8.9h7.4V111.1z M94.5,111.1H80.2v0V78.5h14.3V111.1z M106.3,111.1h-7.4v-8.9h7.4V111.1z M125,111.1h-14.3V50.6
		H125V111.1z M127.2,46.3h-18.7c-1.2,0-2.2,1-2.2,2.2v49.4h-7.4V76.3c0,0,0,0,0,0c0-1.2-1-2.2-2.2-2.2H78c-1.2,0-2.2,1-2.2,2.2v21.5
		h-7.4V53.7c0-1.2-1-2.2-2.2-2.2H47.5c0,0,0,0,0,0c-1.2,0-2.2,1-2.2,2.2v44.1h-7.4v-15c0-1.2-1-2.2-2.2-2.2H17c-1.2,0-2.2,1-2.2,2.2
		v15h-3.3c-3.1,0-5.7-2.5-5.7-5.6V10c0-3.1,2.5-5.6,5.7-5.6h121.2c3.1,0,5.6,2.5,5.6,5.6v82.1c0,3.1-2.5,5.6-5.6,5.6h-3.3V48.4
		C129.4,47.2,128.4,46.3,127.2,46.3z"/>
</g>
</svg>
