<?xml version="1.0" encoding="utf-8"?>
<!-- Generator: Adobe Illustrator 25.0.0, SVG Export Plug-In . SVG Version: 6.00 Build 0)  -->
<svg version="1.1" id="Layer_1" xmlns="http://www.w3.org/2000/svg" xmlns:xlink="http://www.w3.org/1999/xlink" x="0px" y="0px"
	 viewBox="0 0 135.1 165" style="enable-background:new 0 0 135.1 165;" xml:space="preserve">
<style type="text/css">
	.st0{fill:#185AE9;}
	.st1{fill:#00B0FB;}
	.st2{fill:#00B0FB;fill-opacity:0.4;}
	.st3{fill:#FFFFFF;}
	.st4{fill:#3C7CFF;}
	.st5{fill:#001135;}
	.st6{fill:#00769D;}
	.st7{fill:#8DB849;}
	.st8{fill:#5A863E;}
	.st9{fill:#FFFFFE;}
	.st10{fill:#F26322;}
	.st11{fill:#009CDE;}
	.st12{clip-path:url(#SVGID_1_);}
	.st13{fill:#FFFFFF;filter:url(#Adobe_OpacityMaskFilter);}
	.st14{mask:url(#prefix__a_2_);}
	.st15{fill:#FFFFFF;filter:url(#Adobe_OpacityMaskFilter_1_);}
	.st16{mask:url(#prefix__b_2_);}
	.st17{fill:url(#SVGID_2_);}
	.st18{fill:url(#SVGID_3_);}
	.st19{fill:#FF2D20;}
	.st20{fill:#FDFDFD;}
	.st21{fill:#DBDBDB;}
	.st22{fill:#070707;}
	.st23{fill:#060605;}
	.st24{fill:#080707;}
	.st25{fill:#181717;}
	.st26{fill:#0F0F0F;}
	.st27{fill:#010101;}
	.st28{fill:#060606;}
	.st29{fill:#050505;}
	.st30{fill:#040404;}
	.st31{fill:#080808;}
	.st32{fill:#030303;}
	.st33{fill:#0C0C0C;}
	.st34{fill:#FEFEFE;}
	.st35{fill:#F8F8F8;}
	.st36{fill:#F1F1F1;}
	.st37{fill:#FAFAFA;}
	.st38{fill:#F9F9F9;}
	.st39{fill:#F2F2F2;}
	.st40{fill:#F7F7F7;}
	.st41{fill:#F3F3F3;}
	.st42{fill:#0D0D0D;}
	.st43{fill:#090909;}
	.st44{fill:#0A0A0A;}
	.st45{fill:#070807;}
	.st46{fill:#020202;}
	.st47{fill:#141414;}
	.st48{fill:#0E0E0E;}
	.st49{fill:#FCFCFC;}
	.st50{fill:#D2D3D3;}
	.st51{fill:#F6F6F6;}
	.st52{fill:#BABBBB;}
	.st53{fill:#8A8A8A;}
	.st54{fill:#8E8F8F;}
	.st55{fill:#5F5E5E;}
</style>
<g>
	<path class="st1" d="M35.81,56.27v6.38h1.39V60.7c0-0.6,0.5-1,1-1h58.7c0.5,0,1,0.4,1,1v1.86h1.23v-6.29H35.81z"/>
	<path class="st1" d="M110.4,112.7c-2.2-0.9-4.5-1.4-6.8-1.7h-0.1c-0.3,0-0.5,0-0.7,0.2c-0.2,0.2-0.3,0.5-0.3,0.8v20.4
		c0,1.3-1,2.3-2.3,2.3c-1.3,0-2.3-1.1-2.3-2.3v-20.5c0-0.6-0.5-1-1-1h-8.4c-0.3,0-0.5,0.1-0.7,0.3l-17.7,18.6
		c-0.2,0.2-0.3,0.5-0.3,0.7v29c0,0.5,0.4,1,1,1h26c0.5,0,1-0.5,1-1V152c0-1.3,1-2.3,2.3-2.3c1.3,0,2.3,1.1,2.3,2.3v7.5
		c0,0.5,0.5,1,1,1h6.5c0.6,0,1-0.5,1-1h0.1v-45.9C111,113.2,110.8,112.9,110.4,112.7z M100.1,144.5c-1.27,0-2.3-1.03-2.3-2.3
		s1.03-2.3,2.3-2.3c1.27,0,2.3,1.03,2.3,2.3S101.37,144.5,100.1,144.5z"/>
	<path class="st1" d="M65,129.8l-17.8-18.5c-0.2-0.2-0.4-0.3-0.7-0.3h-8.4c-0.5,0-1,0.4-1,1v20.5c0,1.3-1.1,2.3-2.3,2.3
		c-1.3,0-2.3-1.1-2.3-2.3v-20.4c0-0.3-0.1-0.6-0.3-0.8c-0.2-0.1-0.5-0.2-0.7-0.2h-0.1c-2.4,0.3-4.6,0.9-6.8,1.7
		c-0.3,0.1-0.6,0.5-0.6,0.9v45.8c0,0.5,0.4,1,1,1h6.5c0.6,0,1-0.5,1-1V152c0-1.3,1.1-2.3,2.3-2.3c1.3,0,2.3,1.1,2.3,2.3v7.5
		c0,0.5,0.5,1,1,1h26.1c0.6,0,1-0.5,1-1h0.1v-29C65.3,130.2,65.2,130,65,129.8z M34.9,144.5c-1.27,0-2.3-1.03-2.3-2.3
		s1.03-2.3,2.3-2.3c1.27,0,2.3,1.03,2.3,2.3S36.17,144.5,34.9,144.5z"/>
	<path class="st1" d="M32.7,58.7c0-0.6-0.4-1-1-1c-4.1,0-7.5,3.4-7.5,7.5s3.4,7.5,7.5,7.5h0.1c0.2,0,0.5-0.1,0.7-0.3
		c0.2-0.2,0.3-0.5,0.3-0.7c-0.1-1.1-0.1-2.2-0.1-3.2V58.7z"/>
	<path class="st1" d="M103.4,57.6c-0.5,0-1,0.4-1,1v9.8c0,1.1,0,2.1-0.1,3.2c0,0.3,0.1,0.6,0.3,0.8c0.2,0.2,0.4,0.3,0.7,0.3h0.1
		c4.1,0,7.5-3.5,7.5-7.6C110.9,61,107.5,57.6,103.4,57.6z"/>
	<path class="st2" d="M109.7,52c0.7-0.8,1.2-1.9,1.2-3c0-2.4-2-4.3-4.3-4.3H28.3c-1.1,0-2.2,0.4-3,1.2c-0.8,0.8-1.2,1.9-1.2,3
		c0,2.4,1.9,4.3,4.3,4.3h78.3C107.8,53.2,108.9,52.8,109.7,52z"/>
	<path class="st2" d="M31.8,40.1h71.5c0.3,0,0.6-0.1,0.8-0.3c0.2-0.2,0.2-0.5,0.2-0.8c-1.2-11.4-9.1-21.3-20-25.2
		c-0.1-0.1-0.2-0.1-0.3-0.1c-0.2,0-0.4,0.1-0.6,0.2c-0.2,0.2-0.4,0.5-0.4,0.8v14.7c0,1.3-1,2.3-2.3,2.3c-1.3,0-2.3-1.1-2.3-2.3V9.8
		c0-2.6-2.2-5.2-4.3-5.2h-13c-2.2,0-4.3,2.6-4.3,5.2v19.5c0,1.3-1.1,2.3-2.3,2.3c-1.3,0-2.3-1.1-2.3-2.3V14.7c0-0.3-0.1-0.6-0.4-0.8
		c-0.2-0.1-0.4-0.2-0.6-0.2c-0.1,0-0.2,0.1-0.3,0.1C40,17.6,32.1,27.5,30.8,39c-0.1,0.3,0,0.6,0.2,0.8S31.5,40.1,31.8,40.1z"/>
	<circle cx="34.9" cy="142.2" r="2.3"/>
	<path d="M100.1,139.9c-1.27,0-2.3,1.03-2.3,2.3s1.03,2.3,2.3,2.3c1.27,0,2.3-1.03,2.3-2.3S101.37,139.9,100.1,139.9z"/>
	<path d="M129.2,122.6c-3.6-5.5-8.5-9.9-14.2-12.8c-0.1,0-0.2-0.1-0.2-0.2c-0.3-0.3-0.8-0.5-1.3-0.6c-0.1,0-0.2,0-0.3-0.1
		c-4.2-1.8-8.5-2.7-13-2.7h-9.8c-0.6,0-1-0.5-1-1v-8.6c0-0.3,0.1-0.6,0.4-0.8c5.5-4.7,9.5-11,11.4-18c0.1-0.4,0.5-0.7,1-0.7h1.3
		c6.6,0,12.1-5.4,12.1-12c0-3-1.1-5.9-3.2-8.2c-0.2-0.2-0.3-0.5-0.3-0.7c0-0.3,0.1-0.5,0.3-0.7c0.2-0.2,0.4-0.3,0.5-0.5
		c1.7-1.7,2.6-3.9,2.6-6.2c0-3.8-2.4-7.1-6-8.3c-0.4-0.1-0.6-0.5-0.7-0.9c-1.1-14.6-11.4-27-25.4-30.9c-0.4,0-0.7-0.3-0.8-0.7
		c-0.7-3.9-4-8-8.6-8H61c-4.6,0-7.9,4.1-8.6,8c-0.1,0.4-0.4,0.7-0.7,0.8c-14.1,3.9-24.3,16.3-25.4,30.9c0,0.4-0.3,0.7-0.7,0.9
		c-1.3,0.4-2.4,1.2-3.4,2.1c-1.7,1.7-2.6,3.9-2.6,6.2c0,2.6,1.1,5,3.1,6.7c0.2,0.2,0.3,0.4,0.4,0.7c0,0.3-0.1,0.5-0.3,0.7
		c-2.1,2.2-3.2,5.1-3.2,8.2c0,6.6,5.4,12,12,12h1.3c0.5,0,0.9,0.3,1,0.7c1.6,5.8,4.7,11.2,8.9,15.6c0.8,0.8,1.6,1.6,2.5,2.4
		c0.2,0.2,0.4,0.5,0.4,0.8v8.6c0,0.5-0.4,1-1,1h-9.8c-4.5,0-8.9,0.9-13,2.7c-0.1,0-0.2,0.1-0.3,0.1c-0.5,0.1-0.9,0.3-1.3,0.6
		c-0.1,0.1-0.2,0.1-0.2,0.2c-5.8,2.8-10.7,7.2-14.2,12.8C2,128.5,0,135.3,0,142.2v20.5c0,1.2,1,2.3,2.3,2.3h130.5
		c1.2,0,2.3-1,2.3-2.3v-20.5C135,135.3,133,128.5,129.2,122.6z M19.6,159.5c0,0.5-0.5,1-1,1H5.5c-0.5,0-1-0.5-1-1v-17.3
		c0-10.1,5.2-20,13.5-25.9c0.2-0.1,0.4-0.2,0.6-0.2c0.2,0,0.3,0,0.5,0.1c0.3,0.2,0.5,0.5,0.5,0.9V159.5z M103.4,72.7h-0.1
		c-0.3,0-0.5-0.1-0.7-0.3c-0.2-0.2-0.3-0.5-0.3-0.8c0.1-1.1,0.1-2.1,0.1-3.2v-9.8c0-0.6,0.5-1,1-1c4.1,0,7.5,3.4,7.5,7.5
		C110.9,69.2,107.5,72.7,103.4,72.7z M30.8,39c1.3-11.5,9.2-21.4,20.1-25.2c0.1,0,0.2-0.1,0.3-0.1c0.2,0,0.4,0.1,0.6,0.2
		c0.3,0.2,0.4,0.5,0.4,0.8v14.6c0,1.2,1,2.3,2.3,2.3c1.2,0,2.3-1,2.3-2.3V9.8c0-2.6,2.1-5.2,4.3-5.2h13c2.1,0,4.3,2.6,4.3,5.2v19.6
		c0,1.2,1,2.3,2.3,2.3c1.3,0,2.3-1,2.3-2.3V14.7c0-0.3,0.2-0.6,0.4-0.8c0.2-0.1,0.4-0.2,0.6-0.2c0.1,0,0.2,0,0.3,0.1
		c10.9,3.9,18.8,13.8,20,25.2c0,0.3,0,0.6-0.2,0.8c-0.2,0.2-0.5,0.3-0.8,0.3H31.8c-0.3,0-0.6-0.1-0.8-0.3
		C30.8,39.6,30.7,39.3,30.8,39z M32.5,72.4c-0.2,0.2-0.5,0.3-0.7,0.3h-0.1c-4.1,0-7.5-3.4-7.5-7.5c0-4.1,3.4-7.5,7.5-7.5
		c0.6,0,1,0.4,1,1v9.8c0,1,0,2.1,0.1,3.2C32.8,71.9,32.7,72.2,32.5,72.4z M28.4,53.2c-2.4,0-4.3-1.9-4.3-4.3c0-1.1,0.4-2.2,1.2-3
		c0.8-0.8,1.9-1.2,3-1.2h78.3c2.3,0,4.3,1.9,4.3,4.3c0,1.1-0.5,2.2-1.2,3c-0.8,0.8-1.9,1.2-3,1.2H28.4z M37.8,74.6v-0.1
		c-0.4-2-0.6-4-0.6-6v-9.8c0-0.6,0.5-1,1-1h58.7c0.5,0,1,0.4,1,1v9.8c0,2-0.2,4-0.6,5.9c0,0.1,0,0.2,0,0.2
		c-1.5,7.5-5.7,14.2-11.7,18.9c-5.3,4.1-11.5,6.3-18,6.3s-12.7-2.2-18-6.3c-1.2-0.9-2.4-2-3.4-3.1C41.8,86,38.9,80.5,37.8,74.6z
		 M65.3,159.5h-0.1c0,0.5-0.4,1-1,1H38.1c-0.5,0-1-0.5-1-1V152c0-1.2-1-2.3-2.3-2.3c-1.2,0-2.3,1-2.3,2.3v7.5c0,0.5-0.4,1-1,1H25
		c-0.6,0-1-0.5-1-1v-45.8c0-0.4,0.3-0.8,0.6-0.9c2.2-0.8,4.4-1.4,6.8-1.7h0.1c0.2,0,0.5,0.1,0.7,0.2c0.2,0.2,0.3,0.5,0.3,0.8v20.4
		c0,1.2,1,2.3,2.3,2.3c1.2,0,2.3-1,2.3-2.3V112c0-0.6,0.5-1,1-1h8.4c0.3,0,0.5,0.1,0.7,0.3L65,129.8c0.2,0.2,0.3,0.4,0.3,0.7V159.5z
		 M67.5,125.4c-0.3,0-0.5-0.1-0.7-0.3L50.5,108c-0.2-0.2-0.3-0.4-0.3-0.7v-6.1c0-0.3,0.2-0.7,0.5-0.9c0.2-0.1,0.3-0.1,0.5-0.1
		c0.2,0,0.3,0,0.5,0.1c4.9,2.7,10.3,4,15.8,4s10.9-1.3,15.8-4c0.1-0.1,0.3-0.1,0.5-0.1c0.2,0,0.4,0,0.5,0.1c0.3,0.2,0.5,0.5,0.5,0.9
		v6.1c0,0.2-0.1,0.5-0.3,0.7l-16.3,17.1C68,125.3,67.8,125.4,67.5,125.4z M111,159.5h-0.1c0,0.5-0.4,1-1,1h-6.5c-0.5,0-1-0.5-1-1
		V152c0-1.2-1-2.3-2.3-2.3c-1.3,0-2.3,1-2.3,2.3v7.5c0,0.5-0.5,1-1,1h-26c-0.6,0-1-0.5-1-1v-29c0-0.2,0.1-0.5,0.3-0.7l17.7-18.6
		c0.2-0.2,0.4-0.3,0.7-0.3h8.4c0.5,0,1,0.4,1,1v20.5c0,1.2,1,2.3,2.3,2.3c1.3,0,2.3-1,2.3-2.3V112c0-0.3,0.1-0.6,0.3-0.8
		c0.2-0.2,0.4-0.2,0.7-0.2h0.1c2.3,0.3,4.6,0.8,6.8,1.7c0.4,0.2,0.6,0.5,0.6,0.9V159.5z M130.6,159.5h-0.1c0,0.5-0.5,1-1,1h-13
		c-0.6,0-1-0.5-1-1v-42.4c0-0.4,0.2-0.7,0.5-0.9c0.1-0.1,0.3-0.1,0.5-0.1s0.4,0.1,0.6,0.2c8.3,5.9,13.5,15.8,13.5,25.9V159.5z"/>
</g>
</svg>
