<?xml version="1.0" encoding="utf-8"?>
<!-- Generator: Adobe Illustrator 25.0.0, SVG Export Plug-In . SVG Version: 6.00 Build 0)  -->
<svg version="1.1" id="Layer_1" xmlns="http://www.w3.org/2000/svg" xmlns:xlink="http://www.w3.org/1999/xlink" x="0px" y="0px"
	 viewBox="0 0 164 164" style="enable-background:new 0 0 164 164;" xml:space="preserve">
<style type="text/css">
	.st0{fill:#001135;}
	.st1{fill:#3C7CFF;}
	.st2{fill:#FFFFFF;}
	.st3{fill:#00B0FB;}
	.st4{fill:#00B0FB;fill-opacity:0.4;}
	.st5{fill:#185AE9;}
	.st6{fill:#FDFDFD;}
	.st7{fill:#DBDBDB;}
	.st8{fill:none;}
	.st9{fill:#040404;}
	.st10{fill:#030303;}
	.st11{fill:#060606;}
	.st12{fill:#FF9A00;}
	.st13{fill:#330000;}
	.st14{fill:#D7A2FE;}
	.st15{fill:#371351;}
	.st16{fill:#1E1E1E;}
	.st17{fill:#D26E00;}
	.st18{fill:#FF9100;}
	.st19{fill:#FFA403;}
	.st20{fill:#5E5E5E;}
	.st21{fill:#939393;}
	.st22{fill:#B3D8FB;}
	.st23{fill:#27A2FB;}
	.st24{fill:#D8EAFB;}
	.st25{fill:#0A81F9;}
	.st26{fill:#8F818F;}
	.st27{fill:#003932;}
	.st28{fill:url(#SVGID_1_);}
	.st29{fill:url(#SVGID_2_);}
	.st30{fill:url(#SVGID_3_);}
	.st31{opacity:0.2;fill:url(#SVGID_4_);enable-background:new    ;}
	.st32{opacity:0.1;fill:url(#SVGID_5_);enable-background:new    ;}
	.st33{opacity:0.2;fill:url(#SVGID_6_);enable-background:new    ;}
	.st34{opacity:0.1;fill:url(#SVGID_7_);enable-background:new    ;}
	.st35{fill:url(#SVGID_8_);}
	.st36{fill:url(#SVGID_9_);}
	.st37{fill:url(#SVGID_10_);}
	.st38{opacity:0.2;fill:url(#SVGID_11_);enable-background:new    ;}
	.st39{opacity:0.1;fill:url(#SVGID_12_);enable-background:new    ;}
	.st40{opacity:0.2;fill:url(#SVGID_13_);enable-background:new    ;}
	.st41{opacity:0.1;fill:url(#SVGID_14_);enable-background:new    ;}
	.st42{opacity:0.2;fill:url(#SVGID_15_);enable-background:new    ;}
	.st43{opacity:0.1;fill:url(#SVGID_16_);enable-background:new    ;}
	.st44{opacity:0.2;fill:url(#SVGID_17_);enable-background:new    ;}
	.st45{opacity:0.1;fill:url(#SVGID_18_);enable-background:new    ;}
	.st46{fill:url(#SVGID_19_);}
	.st47{fill-rule:evenodd;clip-rule:evenodd;fill:#00B0FB;}
	.st48{fill-rule:evenodd;clip-rule:evenodd;fill:#252F3E;}
	.st49{fill-rule:evenodd;clip-rule:evenodd;fill:#FF9900;}
	.st50{fill:#8D3124;}
	.st51{fill:#E05244;}
	.st52{fill:#F7ADAE;}
	.st53{fill:#5B1E19;}
	.st54{fill:#F58436;}
	.st55{fill:#9D5026;}
	.st56{fill:#1A476F;}
	.st57{fill:#1F5B98;}
	.st58{fill:#2D72B8;}
	.st59{fill:#5294CF;}
	.st60{fill:#FF9900;}
	.st61{fill:#252F3E;}
</style>
<g>
	<g>
		<path class="st60" d="M49.98,127.97l-2.88,2.88l11.22,11.22c2.58,2.58,0.75,7-2.9,7h-36.4c-2.26,0-4.1-1.84-4.1-4.1v-36.4
			c0-3.65,4.42-5.48,7-2.9l11.22,11.22L55.7,94.35H10.41c-3.09,0-5.61,2.51-5.61,5.61v53.63c0,3.09,2.51,5.61,5.61,5.61h53.63
			c3.09,0,5.61-2.51,5.61-5.61V108.3L49.98,127.97C49.98,127.97,49.98,127.97,49.98,127.97z"/>
		<path class="st61" d="M34.85,122C34.85,122,34.85,122,34.85,122c-0.94,0.94-2.46,0.94-3.4,0l-11.72-11.72v33.99h33.99L42,132.55
			c-0.94-0.94-0.94-2.46,0-3.4l3.57-3.57c0,0,0,0,0,0L129.15,42c0.94-0.94,2.46-0.94,3.4,0l11.72,11.72V19.73h-33.99L122,31.45
			c0.94,0.94,0.94,2.46,0,3.4L34.85,122z"/>
		<path class="st60" d="M60.5,89.55l39.97-39.97h-81.1c0,0,0,0,0,0h-8.95c-3.09,0-5.61,2.51-5.61,5.61v36
			c1.67-1.07,3.62-1.64,5.61-1.64H60.5z"/>
		<path class="st60" d="M153.59,4.8H10.41c-3.09,0-5.61,2.51-5.61,5.61v36c1.67-1.07,3.62-1.64,5.61-1.64h17.75c0,0,0,0,0,0h77.12
			l11.63-11.63l-11.22-11.22c-2.58-2.58-0.75-7,2.9-7h36.4c2.26,0,4.1,1.84,4.1,4.1v36.4c0,3.65-4.42,5.48-7,2.9L130.85,47.1
			l-11.63,11.62v94.87c0,1.99-0.57,3.93-1.64,5.61h36.01c3.09,0,5.61-2.51,5.61-5.61v-43.5v-8.79V10.41
			C159.2,7.32,156.68,4.8,153.59,4.8z"/>
		<path class="st60" d="M114.42,63.53L74.45,103.5v50.09c0,1.99-0.57,3.93-1.64,5.61h36.01c3.09,0,5.61-2.51,5.61-5.61h0V63.53z"/>
		<path class="st61" d="M153.59,0H10.41C4.67,0,0,4.67,0,10.41v143.18C0,159.33,4.67,164,10.41,164h143.18
			c5.74,0,10.41-4.67,10.41-10.41v-43.5v-8.79V10.41C164,4.67,159.33,0,153.59,0z M4.8,55.18c0-3.09,2.51-5.61,5.61-5.61h8.95
			c0,0,0,0,0,0h81.1L60.5,89.55H10.41c-1.99,0-3.93,0.57-5.61,1.64V55.18z M122,31.45l-11.72-11.72h33.99v33.99L132.55,42
			c-0.94-0.94-2.46-0.94-3.4,0l-83.58,83.58c0,0,0,0,0,0L42,129.15c-0.94,0.94-0.94,2.46,0,3.4l11.72,11.72H19.73v-33.99L31.45,122
			c0.94,0.94,2.46,0.94,3.4,0c0,0,0,0,0,0L122,34.85C122.93,33.91,122.93,32.39,122,31.45z M69.65,153.59
			c0,3.09-2.51,5.61-5.61,5.61H10.41c-3.09,0-5.61-2.51-5.61-5.61V99.96c0-3.09,2.51-5.61,5.61-5.61H55.7L33.15,116.9l-11.22-11.22
			c-2.58-2.58-7-0.75-7,2.9v36.4c0,2.26,1.84,4.1,4.1,4.1h36.4c3.65,0,5.48-4.42,2.9-7L47.1,130.85l2.88-2.88c0,0,0,0,0,0
			l19.67-19.67V153.59z M108.82,159.2H72.81c1.07-1.67,1.64-3.62,1.64-5.61V103.5l39.97-39.97v90.06h0
			C114.42,156.68,111.91,159.2,108.82,159.2z M159.2,101.3v8.79v43.5c0,3.09-2.51,5.61-5.61,5.61h-36.01
			c1.07-1.67,1.64-3.62,1.64-5.61V58.72l11.63-11.62l11.22,11.22c2.58,2.58,7,0.75,7-2.9v-36.4c0-2.26-1.84-4.1-4.1-4.1h-36.4
			c-3.65,0-5.48,4.42-2.9,7l11.22,11.22l-11.63,11.63H28.16c0,0,0,0,0,0H10.41c-1.99,0-3.93,0.57-5.61,1.64v-36
			c0-3.09,2.51-5.61,5.61-5.61h143.18c3.09,0,5.61,2.51,5.61,5.61V101.3z"/>
	</g>
	<path class="st48" d="M34.33,30.36c0,1.1,0.12,1.99,0.33,2.65c0.24,0.65,0.54,1.37,0.95,2.14c0.15,0.24,0.21,0.48,0.21,0.68
		c0,0.3-0.18,0.59-0.56,0.89l-1.87,1.25c-0.27,0.18-0.54,0.27-0.77,0.27c-0.3,0-0.59-0.15-0.89-0.42c-0.42-0.45-0.77-0.92-1.07-1.4
		c-0.3-0.51-0.59-1.07-0.92-1.75c-2.32,2.74-5.23,4.1-8.74,4.1c-2.5,0-4.49-0.71-5.95-2.14c-1.46-1.43-2.2-3.33-2.2-5.71
		c0-2.53,0.89-4.58,2.71-6.12c1.81-1.55,4.22-2.32,7.28-2.32c1.01,0,2.05,0.09,3.15,0.24c1.1,0.15,2.23,0.39,3.42,0.65V21.2
		c0-2.26-0.48-3.84-1.4-4.76c-0.95-0.92-2.56-1.37-4.85-1.37c-1.04,0-2.11,0.12-3.21,0.39s-2.17,0.59-3.21,1.01
		c-0.48,0.21-0.83,0.33-1.04,0.39c-0.21,0.06-0.36,0.09-0.48,0.09c-0.42,0-0.62-0.3-0.62-0.92v-1.46c0-0.48,0.06-0.83,0.21-1.04
		c0.15-0.21,0.42-0.42,0.83-0.62c1.04-0.54,2.29-0.98,3.75-1.34c1.46-0.39,3-0.56,4.64-0.56c3.54,0,6.12,0.8,7.79,2.41
		c1.64,1.61,2.47,4.04,2.47,7.31v9.63L34.33,30.36L34.33,30.36z M22.25,34.88c0.98,0,1.99-0.18,3.06-0.54
		c1.07-0.36,2.02-1.01,2.82-1.9c0.48-0.56,0.83-1.19,1.01-1.9c0.18-0.71,0.3-1.58,0.3-2.59V26.7c-0.86-0.21-1.78-0.39-2.74-0.51
		c-0.95-0.12-1.87-0.18-2.79-0.18c-1.99,0-3.45,0.39-4.43,1.19c-0.98,0.8-1.46,1.93-1.46,3.42c0,1.4,0.36,2.44,1.1,3.15
		C19.85,34.52,20.89,34.88,22.25,34.88L22.25,34.88z M46.13,38.09c-0.54,0-0.89-0.09-1.13-0.3c-0.24-0.18-0.45-0.59-0.62-1.16
		l-6.99-22.98c-0.18-0.59-0.27-0.98-0.27-1.19c0-0.48,0.24-0.74,0.71-0.74h2.91c0.56,0,0.95,0.09,1.16,0.3
		c0.24,0.18,0.42,0.59,0.59,1.16l4.99,19.68l4.64-19.68c0.15-0.59,0.33-0.98,0.56-1.16c0.24-0.18,0.65-0.3,1.19-0.3h2.38
		c0.56,0,0.95,0.09,1.19,0.3c0.24,0.18,0.45,0.59,0.56,1.16l4.7,19.92l5.14-19.92c0.18-0.59,0.39-0.98,0.59-1.16
		c0.24-0.18,0.62-0.3,1.16-0.3h2.76c0.48,0,0.74,0.24,0.74,0.74c0,0.15-0.03,0.3-0.06,0.48s-0.09,0.42-0.21,0.74l-7.17,22.98
		c-0.18,0.59-0.39,0.98-0.62,1.16c-0.24,0.18-0.62,0.3-1.13,0.3h-2.56c-0.57,0-0.95-0.09-1.19-0.3c-0.24-0.21-0.45-0.59-0.56-1.19
		l-4.61-19.18L50.44,36.6c-0.15,0.59-0.33,0.98-0.57,1.19c-0.24,0.21-0.65,0.3-1.19,0.3H46.13L46.13,38.09z M84.33,38.89
		c-1.55,0-3.09-0.18-4.58-0.54c-1.49-0.36-2.65-0.74-3.42-1.19c-0.48-0.27-0.8-0.56-0.92-0.83c-0.12-0.27-0.18-0.56-0.18-0.83v-1.52
		c0-0.62,0.24-0.92,0.68-0.92c0.18,0,0.36,0.03,0.54,0.09s0.45,0.18,0.74,0.3c1.01,0.45,2.11,0.8,3.27,1.04
		c1.19,0.24,2.35,0.36,3.54,0.36c1.87,0,3.33-0.33,4.34-0.98c1.01-0.65,1.55-1.61,1.55-2.82c0-0.83-0.27-1.52-0.8-2.08
		c-0.54-0.57-1.55-1.07-3-1.55l-4.31-1.34c-2.17-0.68-3.78-1.69-4.76-3.03c-0.98-1.31-1.49-2.76-1.49-4.31c0-1.25,0.27-2.35,0.8-3.3
		s1.25-1.78,2.14-2.44c0.89-0.68,1.9-1.19,3.09-1.55c1.19-0.36,2.44-0.51,3.75-0.51c0.65,0,1.34,0.03,1.99,0.12
		c0.68,0.09,1.31,0.21,1.93,0.33c0.59,0.15,1.16,0.3,1.69,0.48s0.95,0.36,1.25,0.54c0.42,0.24,0.71,0.48,0.89,0.74
		c0.18,0.24,0.27,0.57,0.27,0.98v1.4c0,0.62-0.24,0.95-0.68,0.95c-0.24,0-0.62-0.12-1.13-0.36c-1.69-0.77-3.6-1.16-5.71-1.16
		c-1.69,0-3.03,0.27-3.95,0.83c-0.92,0.56-1.4,1.43-1.4,2.65c0,0.83,0.3,1.55,0.89,2.11c0.59,0.56,1.69,1.13,3.27,1.64l4.22,1.34
		c2.14,0.68,3.69,1.64,4.61,2.85s1.37,2.62,1.37,4.16c0,1.28-0.27,2.44-0.77,3.45c-0.54,1.01-1.25,1.9-2.17,2.62
		c-0.92,0.74-2.02,1.28-3.3,1.66C87.25,38.68,85.85,38.89,84.33,38.89L84.33,38.89z"/>
</g>
</svg>
