<?xml version="1.0" encoding="utf-8"?>
<!-- Generator: Adobe Illustrator 24.3.0, SVG Export Plug-In . SVG Version: 6.00 Build 0)  -->
<svg version="1.1" id="Layer_1" xmlns="http://www.w3.org/2000/svg" xmlns:xlink="http://www.w3.org/1999/xlink" x="0px" y="0px"
	 viewBox="0 0 135.1 165" style="enable-background:new 0 0 135.1 165;" xml:space="preserve">
<style type="text/css">
	.st0{fill:#00B0FB;}
	.st1{fill:#FFFFFF;}
	.st2{fill:#00B0FB;fill-opacity:0.4;}
</style>
<g>
	<path d="M31.05,59.21c-1.52-0.37-2.9-0.52-4.13-1.03C24.07,57,22.4,54.12,22.56,51c0.15-2.97,2.09-5.71,4.97-6.57
		c1.22-0.36,1.46-0.91,1.45-2.03c-0.04-5.65-0.03-11.31-0.02-16.96c0.01-5.86,3.47-9.39,9.29-9.41c9.55-0.03,19.11-0.03,28.66,0
		c5.73,0.02,9.22,3.54,9.24,9.25c0.02,5.72,0.01,11.44,0,17.16c0,0.85-0.07,1.52,1.09,1.9c3.84,1.26,5.73,4.37,5.23,8.25
		c-0.44,3.43-3.26,5.94-7.11,6.31c-0.38,0.04-0.76,0.09-0.76,0.09c-0.99,3.3-1.57,6.54-2.95,9.39c-1.18,2.45-3.33,4.41-4.95,6.67
		c-0.59,0.82-1.14,1.83-1.23,2.8c-0.19,2-0.08,4.02-0.05,6.04c0.03,2.27,0.66,2.86,2.91,2.93c3.96,0.11,7.94-0.02,11.86,0.41
		c10.79,1.17,20.5,9.94,22.9,20.58c0.57,2.51,0.86,5.13,0.88,7.71c0.1,10.01,0.05,20.02,0.04,30.03c0,3.07-0.42,3.48-3.51,3.49
		c-31.98,0-63.95,0-95.93,0c-3.08,0-3.51-0.43-3.52-3.49c0-10.14-0.05-20.28,0.01-30.42c0.08-13.23,8.02-23.93,20.79-27.25
		c4.13-1.07,8.62-0.75,12.95-1.04c0.84-0.06,1.69,0.02,2.53-0.02c1.35-0.06,2.25-0.72,2.28-2.14c0.05-2.6,0.06-5.2,0-7.8
		c-0.01-0.45-0.29-1.03-0.64-1.32C33.94,71.27,31.4,65.78,31.05,59.21z M78.75,91.23c0.27,1.99,0.47,3.58,0.71,5.17
		c0.99,6.48,1.98,12.96,3.01,19.43c0.27,1.68-0.3,2.69-1.94,3.29c-2.62,0.96-5.2,2.02-7.74,3.17c-0.56,0.25-1.16,1-1.27,1.61
		c-0.5,2.81-1,5.64-1.17,8.48c-0.21,3.49-1.52,6.13-4.51,8.05c-1.69,1.08-3.11,2.58-4.96,4.15c13.21,0,25.92,0,38.73,0
		c0.05-0.49,0.13-0.86,0.13-1.24c0-9.81,0.01-19.63-0.03-29.44c-0.01-3.57-0.94-6.95-2.63-10.08C93.19,96.66,87.2,92.51,78.75,91.23
		z M26.42,91.28c-1.46,0.25-2.62,0.34-3.7,0.65c-10.29,2.94-17.2,11.86-17.32,22.57c-0.11,9.48-0.03,18.96-0.02,28.44
		c0,0.55,0.1,1.11,0.15,1.63c12.89,0,25.57,0,38.76,0c-2.73-2.29-5.15-4.21-7.43-6.28c-0.7-0.64-1.33-1.64-1.49-2.56
		c-0.67-3.9-1.1-7.83-1.76-11.73c-0.11-0.65-0.75-1.47-1.35-1.74c-2.47-1.14-4.99-2.17-7.55-3.09c-1.71-0.61-2.35-1.61-2.06-3.39
		c0.65-3.97,1.23-7.94,1.84-11.92C25.11,99.78,25.74,95.7,26.42,91.28z M33.25,43.75c0.42,0.07,0.6,0.13,0.79,0.13
		c0.97,0.01,1.95,0.03,2.92,0.01c2.01-0.05,2.66-0.69,2.7-2.72c0.04-1.75-0.02-3.51,0.02-5.26c0.05-2.07,0.64-2.67,2.71-2.68
		c3.9-0.03,7.79-0.03,11.69,0.01c0.62,0.01,1.5,0.04,1.82,0.42c1.22,1.47,2.46,1.06,3.96,0.55c5.15-1.76,5.55-1.43,5.55,3.97
		c0,5.94,0.04,5.97,5.97,5.67c0.11-0.01,0.21-0.12,0.44-0.25c0-6.41,0.07-12.9-0.04-19.37c-0.03-2.21-1.84-3.87-4.12-3.88
		c-10.07-0.06-20.13-0.06-30.2,0c-2.46,0.01-4.18,1.76-4.21,4.22C33.21,30.91,33.25,37.27,33.25,43.75z M52.35,139.45
		c0.14,0,0.28-0.01,0.42-0.01c4.99-14.98,9.98-29.96,14.98-44.94c-4.25,4.31-8.98,7.29-15.2,7.29c-6.22,0.01-10.91-3.04-15.17-7.29
		C42.37,109.49,47.36,124.47,52.35,139.45z M44.09,78.68c-0.52,4.38,1.3,9.33-3.86,11.85c7.63,9.85,18.25,8.71,24.61-0.06
		c-5.16-2.5-3.24-7.5-3.86-11.79C55.25,80.91,49.74,80.86,44.09,78.68z M63.28,68.31c-0.07-2.2,0.21-4.22-1.76-6.2
		c-2.4-2.41-4.76-3.73-8.14-3.23c-1.14,0.17-2.34,0.14-3.49,0c-2.05-0.25-3.41,0.65-4.94,1.96c-2.48,2.14-3.64,4.53-3.14,7.76
		c0.12,0.76-0.13,1.59,0.06,2.32c0.21,0.78,0.55,1.76,1.16,2.16c4.91,3.27,10.22,3.88,15.74,1.79
		C63.14,73.22,63.28,72.92,63.28,68.31z M48.51,142.47c0.08-0.08,0.17-0.17,0.25-0.25c-5.7-17.09-11.41-34.18-17.11-51.27
		c-0.28,0.05-0.56,0.1-0.83,0.14c-1.25,8.09-2.49,16.19-3.75,24.36c2.86,1.15,5.6,2.31,8.39,3.35c1.31,0.49,1.99,1.27,2.17,2.67
		c0.44,3.47,0.92,6.94,1.48,10.4c0.2,1.23,0.33,2.8,1.12,3.55C42.82,137.94,45.72,140.15,48.51,142.47z M74.3,91.08
		c-0.29-0.02-0.57-0.03-0.86-0.05c-5.7,17.1-11.41,34.19-17.28,51.8c3.03-2.52,5.69-4.65,8.25-6.91c0.61-0.54,1.11-1.43,1.24-2.22
		c0.7-4.09,1.16-8.22,1.95-12.29c0.18-0.94,1.13-2.05,2.01-2.48c2.73-1.31,5.6-2.32,8.46-3.47C76.8,107.24,75.55,99.16,74.3,91.08z
		 M39.01,48.06c2.64,2.19,4.81,5.24,7.59,5.97c3.77,1,8.21,0.98,11.97-0.03c2.77-0.75,4.93-3.79,7.54-5.96
		c-4.98-1.59-5.11-5.56-5.06-9.72c-2.65,0.95-5.1,2.22-7.05-0.6c-0.09-0.13-0.35-0.18-0.54-0.18c-3.09-0.01-6.19-0.01-9.5-0.01
		C44.09,41.92,44.41,46.27,39.01,48.06z M69.73,51.27c-0.15-0.08-0.31-0.16-0.46-0.24c-2.32,1.93-4.64,3.86-7.04,5.85
		c2.33,2.99,6.62,4.73,5.42,9.66C70.56,61.59,69.46,56.35,69.73,51.27z M35.58,50.79c-0.39,7.44-0.45,13.06,2.2,15.89
		c-1.58-5.19,2.92-6.8,5.09-9.83C40.49,54.88,38.16,52.94,35.58,50.79z M30.99,48.25c-1.79-0.18-3.24,0.27-3.75,1.76
		c-0.33,0.96-0.16,2.33,0.3,3.25c0.62,1.24,1.93,1.59,3.45,1.13C30.99,52.37,30.99,50.39,30.99,48.25z M74.11,54.47
		c1.81,0.34,3.21-0.15,3.74-1.61c0.34-0.95,0.22-2.31-0.23-3.23c-0.63-1.31-2-1.61-3.51-1.32C74.11,50.4,74.11,52.37,74.11,54.47z"
		/>
	<path d="M134.04,65.44c-0.13,14.4-11.68,25.76-26.05,25.64c-14.08-0.12-25.5-11.77-25.4-25.91c0.1-14.28,11.79-25.7,26.16-25.55
		C122.71,39.76,134.17,51.47,134.04,65.44z M129.75,65.39c-0.02-11.89-9.56-21.47-21.39-21.49c-11.83-0.01-21.46,9.58-21.48,21.41
		c-0.02,11.91,9.64,21.52,21.6,21.48C120.19,86.75,129.77,77.11,129.75,65.39z"/>
	<path class="st0" d="M33.25,43.75c0-6.48-0.05-12.84,0.02-19.19c0.03-2.46,1.75-4.2,4.21-4.22c10.07-0.06,20.13-0.05,30.2,0
		c2.27,0.01,4.08,1.67,4.12,3.88c0.1,6.48,0.04,12.96,0.04,19.37c-0.23,0.13-0.33,0.24-0.44,0.25c-5.93,0.31-5.97,0.27-5.97-5.67
		c0-5.4-0.4-5.73-5.55-3.97c-1.5,0.51-2.74,0.92-3.96-0.55c-0.32-0.38-1.19-0.42-1.82-0.42c-3.9-0.04-7.79-0.04-11.69-0.01
		c-2.08,0.02-2.66,0.62-2.71,2.68c-0.04,1.75,0.02,3.51-0.02,5.26c-0.05,2.03-0.69,2.67-2.7,2.72c-0.97,0.03-1.95,0.01-2.92-0.01
		C33.86,43.88,33.67,43.82,33.25,43.75z"/>
	<path class="st2" d="M44.09,78.68c5.65,2.18,11.16,2.23,16.89,0c0.62,4.28-1.3,9.29,3.86,11.79c-6.36,8.77-16.98,9.91-24.61,0.06
		C45.39,88.01,43.57,83.06,44.09,78.68z"/>
	<path class="st0" d="M48.51,142.47c-2.79-2.32-5.68-4.53-8.3-7.04c-0.79-0.76-0.91-2.32-1.12-3.55c-0.56-3.45-1.04-6.92-1.48-10.4
		c-0.18-1.39-0.86-2.18-2.17-2.67c-2.78-1.04-5.52-2.2-8.39-3.35c1.26-8.17,2.51-16.27,3.75-24.36c0.28-0.05,0.56-0.1,0.83-0.14
		c5.7,17.09,11.41,34.18,17.11,51.27C48.68,142.31,48.59,142.39,48.51,142.47z"/>
	<path class="st0" d="M74.3,91.08c1.25,8.08,2.5,16.16,3.77,24.38c-2.86,1.15-5.73,2.16-8.46,3.47c-0.88,0.42-1.83,1.54-2.01,2.48
		c-0.78,4.07-1.25,8.2-1.95,12.29c-0.14,0.8-0.64,1.69-1.24,2.22c-2.56,2.25-5.22,4.39-8.25,6.91c5.87-17.61,11.58-34.7,17.28-51.8
		C73.72,91.05,74.01,91.06,74.3,91.08z"/>
	<path class="st0" d="M129.75,65.39c0.02,11.72-9.56,21.36-21.27,21.4c-11.96,0.04-21.62-9.57-21.6-21.48
		c0.02-11.83,9.65-21.42,21.48-21.41C120.19,43.92,129.73,53.5,129.75,65.39z M108.58,52.24c-1.88-0.65-3.48-1.47-5.17-1.73
		c-4.74-0.72-9.25,1.8-11.21,6c-2.03,4.37-1.06,9.31,2.68,12.56c1.31,1.14,1.68,2.3,1.33,3.93c-0.34,1.58-0.56,3.2-0.68,4.82
		c-0.13,1.72,0.88,2.83,2.44,2.41c3.93-1.04,8.14-1.8,9.65-6.5c0.12-0.37,0.45-0.67,1.03-1.47c1.05,5.38,5.07,6.62,9.14,7.82
		c2.2,0.65,3.49-0.28,3.31-2.54c-0.12-1.48-0.28-2.98-0.63-4.43c-0.43-1.8,0.13-2.99,1.51-4.24c5.99-5.45,3.98-15.12-3.64-17.9
		C114.74,49.68,111.43,50.43,108.58,52.24z"/>
	<path d="M108.58,52.24c2.85-1.81,6.16-2.55,9.74-1.25c7.62,2.78,9.64,12.44,3.64,17.9c-1.37,1.25-1.93,2.44-1.51,4.24
		c0.34,1.45,0.51,2.94,0.63,4.43c0.18,2.26-1.1,3.19-3.31,2.54c-4.07-1.2-8.09-2.45-9.14-7.82c-0.57,0.81-0.91,1.11-1.03,1.47
		c-1.51,4.7-5.71,5.46-9.65,6.5c-1.56,0.41-2.57-0.69-2.44-2.41c0.12-1.61,0.34-3.23,0.68-4.82c0.35-1.63-0.02-2.79-1.33-3.93
		c-3.74-3.25-4.71-8.19-2.68-12.56c1.96-4.21,6.47-6.73,11.21-6C105.1,50.77,106.7,51.59,108.58,52.24z M100.35,74.8
		c0.19,0.15,0.38,0.29,0.57,0.44c0.79-0.83,1.68-1.6,2.35-2.52c0.6-0.83,1.03-1.8,1.41-2.76c0.67-1.69,1.68-2.53,3.65-2.53
		c1.97,0.01,2.98,0.85,3.64,2.54c0.4,1.02,0.85,2.06,1.5,2.93c0.64,0.86,1.57,1.51,2.37,2.25c0.41-0.68,0.46-0.95,0.4-1.19
		c-0.8-3.45,0.19-6.11,2.99-8.41c2.45-2.01,2.56-5.76,0.67-8.3c-1.93-2.6-5.39-3.53-8.12-1.79c-2.48,1.57-4.51,1.37-7.04,0.02
		c-1.41-0.75-3.63-0.85-5.16-0.31c-4.67,1.63-5.62,7.46-1.85,10.7c2.42,2.08,3.4,4.48,2.7,7.59
		C100.35,73.89,100.38,74.35,100.35,74.8z"/>
	<path class="st2" d="M100.35,74.8c0.03-0.45,0.01-0.91,0.1-1.34c0.69-3.1-0.28-5.51-2.7-7.59c-3.77-3.24-2.82-9.07,1.85-10.7
		c1.53-0.53,3.75-0.44,5.16,0.31c2.52,1.35,4.56,1.55,7.04-0.02c2.73-1.73,6.19-0.81,8.12,1.79c1.88,2.54,1.78,6.29-0.67,8.3
		c-2.8,2.29-3.79,4.96-2.99,8.41c0.06,0.24,0.01,0.51-0.4,1.19c-0.8-0.74-1.72-1.39-2.37-2.25c-0.65-0.87-1.1-1.91-1.5-2.93
		c-0.66-1.7-1.67-2.54-3.64-2.54c-1.97-0.01-2.99,0.84-3.65,2.53c-0.38,0.96-0.81,1.93-1.41,2.76c-0.67,0.92-1.56,1.69-2.35,2.52
		C100.73,75.09,100.54,74.94,100.35,74.8z"/>
</g>
</svg>
