<?xml version="1.0" encoding="utf-8"?>
<!-- Generator: Adobe Illustrator 24.3.0, SVG Export Plug-In . SVG Version: 6.00 Build 0)  -->
<svg version="1.1" id="Layer_1" xmlns="http://www.w3.org/2000/svg" xmlns:xlink="http://www.w3.org/1999/xlink" x="0px" y="0px"
	 width="688.5px" height="480.3px" viewBox="0 0 688.5 480.3" style="enable-background:new 0 0 688.5 480.3;" xml:space="preserve"
	>
<style type="text/css">
	.st0{fill:#00B0FB;}
	.st1{fill:#00B0FB;fill-opacity:0.4;}
	.st2{fill:#FFFFFF;}
	.st3{fill:none;}
	.st4{fill:#001135;}
	.st5{fill:#3C7CFF;}
	.st6{fill:#3C7CFF;stroke:#001135;stroke-width:0.7602;stroke-miterlimit:10;}
	.st7{fill:#DBDBDB;}
	.st8{fill:#B9B9B9;}
	.st9{fill:#080808;}
	.st10{fill:#060606;}
	.st11{fill:#070707;}
	.st12{fill:#121212;}
	.st13{fill:#111111;}
	.st14{fill:#090909;}
	.st15{fill:#FDFDFD;}
	.st16{fill:#F9F9F9;}
	.st17{fill:#F3F2F3;}
	.st18{fill:#FAFAFA;}
	.st19{fill:#0A0A0A;}
	.st20{fill:#EEEEEE;}
	.st21{fill:#0D0D0D;}
	.st22{fill:#0C0C0C;}
	.st23{fill:#0E0E0E;}
	.st24{fill:#050505;}
	.st25{fill:#3A3A3A;}
	.st26{fill:#525252;}
	.st27{fill:#474747;}
	.st28{fill:#1E1E1E;}
	.st29{fill:#1D1D1D;}
	.st30{fill:#222222;}
	.st31{fill:#494949;}
	.st32{fill:#585858;}
	.st33{fill:#EDEDED;}
	.st34{fill:#F0F0F0;}
	.st35{fill:#EAEAEA;}
	.st36{fill:#EAE9EA;}
	.st37{fill:#040404;}
	.st38{fill:#F4F3F4;}
	.st39{fill:#030303;}
	.st40{fill:#E8E8E8;}
	.st41{fill:#0C0C0B;}
	.st42{fill:#0D0D0C;}
	.st43{fill:#919191;}
	.st44{fill:#909090;}
	.st45{fill:#0E0E0D;}
	.st46{fill:#0C0D0C;}
	.st47{fill:#090908;}
	.st48{fill:#141414;}
	.st49{fill:#4C4D4D;}
	.st50{fill:#737474;}
	.st51{fill:#242424;}
	.st52{fill:#202020;}
	.st53{fill:#101010;}
	.st54{fill:#0D0E0D;}
	.st55{fill:#111212;}
	.st56{fill:#0B0B0B;}
	.st57{fill:#0D0C0C;}
	.st58{fill:#E7E7E7;}
	.st59{fill:#272727;}
	.st60{fill:#2E2E2E;}
	.st61{fill:#1F1E1E;}
	.st62{fill:#1B1A1A;}
	.st63{fill:#E6E6E6;}
	.st64{fill:#0F0E0E;}
	.st65{fill:#F2F2F2;}
	.st66{fill:#F4F3F3;}
	.st67{fill:#F9F8F8;}
	.st68{fill:#F1F1F0;}
	.st69{fill:#F6F6F6;}
	.st70{fill:#F5F6F6;}
	.st71{fill:#F5F5F5;}
	.st72{fill:#2C2C2C;}
	.st73{fill:#252625;}
	.st74{fill:#303030;}
	.st75{fill:#2D2D2C;}
	.st76{fill:#2D2D2D;}
	.st77{fill:#262727;}
	.st78{fill:#191919;}
	.st79{fill:#1B1B1B;}
	.st80{fill:#F7F7F7;}
	.st81{fill:#F6F7F7;}
	.st82{fill:#F9F9FA;}
	.st83{fill:#F4F4F4;}
	.st84{fill:#F8F8F8;}
	.st85{fill:#FCFCFC;}
	.st86{fill:#FBFBFB;}
	.st87{fill:#E2E1E2;}
	.st88{fill:#D8D7D8;}
	.st89{fill:#0F0F0F;}
	.st90{fill:#161616;}
	.st91{fill:#181818;}
	.st92{fill:#131313;}
	.st93{fill-rule:evenodd;clip-rule:evenodd;fill:#00B0FB;}
	.st94{fill:#030302;}
	.st95{fill:#D2D3D3;}
	.st96{fill:#1F1F1F;}
	.st97{fill:#0E0D0E;}
	.st98{fill:#BABBBB;}
	.st99{fill:#8A8A8A;}
	.st100{fill:#8E8F8F;}
	.st101{fill:#464746;}
	.st102{fill:#5F5E5E;}
	.st103{fill:#151414;}
	.st104{fill:#282828;}
	.st105{fill:#030202;}
	.st106{fill:#040403;}
	.st107{fill:#040303;}
	.st108{fill:#202021;}
	.st109{fill:#020202;}
	.st110{fill:#050506;}
	.st111{fill:#010101;}
	.st112{fill:#F3F3F3;}
	.st113{fill:#F1F1F1;}
	.st114{fill:#FAFAF9;}
	.st115{fill:#040504;}
	.st116{fill:#070708;}
	.st117{fill:#131212;}
	.st118{fill:#070808;}
	.st119{fill:#3C3C3C;}
</style>
<g>
	<path d="M341.9,464.1c0.1,8.8-4.6,14.3-13.3,15.7c-2.3,0.4-4.6,0.4-6.8,0.6c-15.2-0.6-29.2-5.4-42.9-11
		c-23.5-9.4-45.6-21.5-67.2-34.7c-4.9-3-9.8-6.1-14.5-9.1c-3.6-2.2-7.1-4.6-10.6-6.9c-5.1-3.4-10.2-6.8-15.2-10.3
		c-0.5-0.3-0.9-0.7-1.4-1c-2-1.4-4.1-2.9-6.1-4.3c-2.6-1.8-5.2-3.7-7.8-5.6c0,0,0,0,0,0c-2.1-1.5-4.2-3.1-6.3-4.6
		c-1.9-1.5-3.9-3-5.9-4.5c-0.1-0.1-0.3-0.2-0.4-0.3c-1.2-0.9-2.4-1.8-3.6-2.7c-0.5-0.4-1-0.8-1.5-1.1c-0.4-0.3-0.8-0.7-1.2-1
		c-2.4-1.8-4.7-3.7-7-5.5c-9.2-7.2-18.1-14.7-27-22.3c-1-0.8-1.9-1.6-2.8-2.4c-6.9-6-13.7-12.1-20.4-18.3c-4-3.7-7.9-7.4-11.8-11.2
		c-1.6-1.6-3.2-3.1-4.8-4.7c-1-1-2-2-3-3c-6.7-6.8-13.2-13.7-19.5-20.9c-2.3-2.6-4.6-5.3-6.8-8c-1.5-1.8-2.9-3.6-4.4-5.4
		c-1.5-1.8-2.9-3.6-4.3-5.5C17,265.2,9.2,254,3.8,241.4c-2-4.7-3.6-9.6-3.8-14.8c-0.4-9.6,4.6-15.4,14.1-16.5
		c8.9-1.1,17.5,0.5,26,2.8c14.7,3.9,28.5,9.7,42.1,16.2c2.2,1.1,4.4,2.1,6.5,3.2c0.8,0.4,1.6,0.8,2.5,1.2
		c23.1,11.7,45.2,25.1,66.6,39.6c2.4,1.6,4.7,3.2,7,4.8c0,0,0,0,0.1,0c1,0.7,2,1.4,3,2.1c0.3,0.2,0.6,0.5,1,0.6c1.4,1,2.8,2,4.2,2.9
		c0.5,0.3,0.9,0.6,1.3,0.9c0.2,0.1,0.4,0.3,0.5,0.4c1.4,1,2.7,1.9,4,2.9c1.5,1,2.9,2.1,4.3,3.1c0.7,0.5,1.5,1.1,2.2,1.7
		c1.8,1.3,3.6,2.7,5.4,4c2.6,1.9,5.2,3.9,7.8,5.9c7.1,5.4,14.1,10.9,21.1,16.5l3.4,2.8c1.7,1.4,3.4,2.8,5.2,4.3
		c3.5,2.9,6.9,5.8,10.4,8.8c3.9,3.3,7.8,6.7,11.6,10.2c1,0.9,2,1.7,2.9,2.6c1.1,1,2.2,2,3.3,3c2.2,2,4.4,4,6.6,6.1
		c2.6,2.4,5.1,4.8,7.6,7.2c0.8,0.8,1.6,1.5,2.4,2.3c12.5,12.2,24.6,24.8,35.7,38.3c2.7,3.3,5.4,6.6,7.9,10c1.1,1.5,2.3,3,3.4,4.5
		c0.2,0.2,0.4,0.5,0.5,0.7c7.1,9.6,13.5,19.5,17.9,30.7C340.5,454.9,341.8,459.3,341.9,464.1z"/>
	<path d="M399.5,81c2.4,0,4.7,0,7.1,0c1,0,2.2-0.2,2.7,0.9c0.5,1.1-0.2,1.9-0.9,2.8c-7,9.2-13.9,18.4-20.9,27.6c-3,4-6,8-9,12
		c-0.7,0.9-1.4,2.2-2.6,1.6c-1.5-0.7-0.7-2.1-0.3-3.3c2.5-8,5.1-15.9,7.7-23.9c1-3,0.6-3.7-2.6-3.7c-3.7-0.1-7.4,0-11,0
		c-2.8,0-3.5-1.2-2.4-3.7c4.7-11.4,9.4-22.8,14-34.3c1-2.6,2.4-3.8,5.2-3.6c3.2,0.2,6.3,0,9.5,0.1c4.1,0,4.5,0.6,2.8,4.5
		c-2.8,6.3-5.8,12.6-8.7,18.9c-1.6,3.5-1.2,4,2.8,4C395,81,397.2,81,399.5,81C399.5,81,399.5,81,399.5,81z"/>
	<g>
		<path d="M683,336.2c-14.6-0.8-29.2-1.2-43.9-1c-1.2,0-2.5,0.3-2.5-1.7c0-1.9,1-1.9,2.3-1.9c3.2,0,6.3,0,9.5-0.1
			c5.3-0.2,8.1-2.5,8.1-7.8c0.1-16.1,0.1-32.2,0-48.3c0-4.3-2.4-6.5-6.6-6.8c-3.8-0.3-7.5-0.3-11.3-0.4c-1.6,0-2.5-0.3-2.4-2.2
			c0-1.9,0.6-2.6,2.5-2.5c3.5,0.1,7.1,0.1,10.6-0.2c4.9-0.3,7.2-2.4,7.2-7.4c0.1-16.2,0.1-32.4-0.1-48.6c0-4.3-1.9-6-6.1-6.8
			c-3.9-0.8-7.8-0.7-11.7-0.6c-1.9,0-2.5-0.7-2.5-2.5c0-0.4,0-0.7,0.1-0.9c0.4,0,0.8,0,1.2,0c2.5,0,5.1,0,7.6,0c0.3,0,0.7,0,1.2,0
			c0,0,0,0,0,0c0,0,0.1,0,0.1,0c0.1,0,0.1,0,0.2,0c0.1,0,0.2,0,0.2,0c0.1,0,0.3,0,0.4,0c0.1,0,0.1,0,0.2,0c0.1,0,0.2,0,0.3,0
			c0.1,0,0.1,0,0.2,0c0.1,0,0.2,0,0.3-0.1c0.1,0,0.1,0,0.2,0c0.4-0.1,0.8-0.2,1.2-0.3c0,0,0.1,0,0.1,0c0.1,0,0.2-0.1,0.4-0.1
			c0.1,0,0.1,0,0.2-0.1c0.1-0.1,0.3-0.1,0.4-0.2c0,0,0.1,0,0.1-0.1c0.4-0.2,0.8-0.4,1.2-0.7c0.1,0,0.1-0.1,0.2-0.1
			c0.1-0.1,0.2-0.2,0.3-0.2c0.1-0.1,0.1-0.1,0.2-0.2c0.1-0.1,0.2-0.2,0.3-0.3c0.1-0.1,0.1-0.1,0.2-0.2c0.1-0.1,0.2-0.2,0.3-0.2
			c3-3,2.9-7.2,2.9-8.6c-0.2-9.7-0.1-19.6-0.1-29.1c0-2,0-4,0-6c0-1.5,0-3.1,0-4.6c0-1.4,0-2.7-0.1-3.9c-0.1-2.8-0.6-5.1-2.3-7.1
			c0,0-0.1-0.1-0.1-0.1c0,0,0,0-0.1-0.1c-0.1-0.2-0.3-0.3-0.5-0.5c0,0,0,0,0,0c-0.2-0.2-0.5-0.4-0.7-0.6c0,0,0,0,0,0c0,0,0,0,0,0
			c-2.8-2.2-6.3-2.2-11-2.2c-54.8,0-109.6-0.1-164.5-0.1l-8.3,0c-16.7,0-31.3,0-44.7,0.1c-2.9,0-6.5,0-9.3,2.8c0,0,0,0,0,0
			c0,0,0,0,0,0c-1.6,1-2.3,2.7-2.4,5.3c-0.2,1.3-0.2,2.6-0.2,3.9c0,9.3,0,18.7,0,28l0,14.4c0,2,0,4.2,0.8,6.2c0,0,0,0.1,0,0.1
			c0.1,0.1,0.1,0.3,0.2,0.4c0,0,0,0,0,0c0,0.1,0.1,0.1,0.1,0.2c0.1,0.1,0.1,0.2,0.2,0.4c0,0,0,0,0,0c0.3,0.5,0.7,1,1.2,1.5
			c2.5,2.6,5.8,2.7,8.7,2.9c1,0,1.9,0,2.8,0l6.7,0c0.1,0.3,0.1,0.6,0,1c-0.1,1.6-0.3,2.5-2.2,2.4c-3.5-0.1-7.1-0.1-10.6,0.2
			c-5.5,0.4-7.6,2.2-7.7,7.7c-0.2,16-0.2,31.9,0,47.9c0.1,5.3,2.8,7.6,8.1,7.7c3.3,0.1,6.6,0.1,9.9,0c1.6,0,2.5,0.3,2.4,2.2
			c-0.1,1.7-0.3,2.8-2.3,2.7c-3.2-0.1-6.3,0-9.5,0c-6.3,0.1-8.5,2-8.6,8.3c-0.2,15.7-0.2,31.5-0.1,47.2c0,5.1,2.7,7.5,7.8,7.7
			c3,0.1,6.1,0.1,9.1,0.2c1.2,0.1,2.8-0.7,2.9,1.6c0.1,2.3-1.6,1.7-2.7,1.7c-2.7,0.1-5.4,0-8,0c-12.6-0.1-25.1,0.1-37.6,1.2
			c-1.3,0.1-3.3-0.1-3.1,2.2c0.2,1.9,1.9,1.6,3.2,1.6c6.3,0.3,12.6,0.7,19,0.7c42.1,0.2,84.1,0.4,126.2,0.2
			c51.3-0.2,102.6,0.9,153.9-0.9c2-0.1,5.6,1.1,5.6-2.2C688.4,335.3,685,336.3,683,336.2z"/>
		<path class="st111" d="M532.2,112.1c-24.1,0-48.3,0.1-72.4,0c-17-0.1-29.5-13.3-28.7-30c0.6-11.2,8.9-21.3,20.5-24.2
			c3.7-0.9,5.2-2.5,6-6.2c4.2-20,24.4-31.3,43.7-24.6c2.3,0.8,3.1,0.2,4.3-1.6c23.4-35.4,74.1-33.6,94.7,3.4
			c2.7,4.9,4.2,10.1,5.1,15.5c0.3,2,0.9,3.1,3.3,3.4c15.8,2,27.6,15.2,28,31.1c0.4,15.3-11,29.4-26.3,32.5c-3,0.6-6,0.8-9.1,0.8
			C578.3,112.2,555.2,112.2,532.2,112.1C532.2,112.2,532.2,112.1,532.2,112.1z"/>
		<path class="st7" d="M534.6,258.2c-35.8,0-71.6,0-107.5,0c-1.1,0-2.2,0-3.3,0c-4.7-0.2-4.9-0.4-4.9-5.1c0-14.1,0-28.3,0-42.4
			c0-5,0.3-5.4,5.4-5.4c17.7-0.1,35.3-0.1,53-0.1c54.8,0,109.7,0.1,164.5,0.1c8.2,0,8.2,0,8.2,8c0,13.3-0.1,26.6,0.1,39.8
			c0.1,3.7-1.2,4.9-4.8,4.9c-18.6,0-37.3,0.1-55.9,0.1C571.1,258.2,552.8,258.2,534.6,258.2C534.6,258.2,534.6,258.2,534.6,258.2z"
			/>
		<path class="st15" d="M534.4,190c-35.8,0-71.6,0-107.5,0c-1.1,0-2.2,0-3.3,0c-4.7-0.2-4.9-0.4-4.9-5.1c0-14.1,0-28.3,0-42.4
			c0-5,0.3-5.4,5.4-5.4c17.7-0.1,35.3-0.1,53-0.1c54.8,0,109.7,0.1,164.5,0.1c8.2,0,8.2,0,8.2,8c0,13.3-0.1,26.6,0.1,39.8
			c0.1,3.7-1.2,4.9-4.8,4.9c-18.6,0-37.3,0.1-55.9,0.1C570.9,190,552.6,190,534.4,190C534.4,190,534.4,190,534.4,190z"/>
		<path class="st15" d="M534.2,326.3c-36.1,0-72.2,0-108.2,0c-1.3,0-2.7-0.1-4-0.1c-2.1,0-3.1-0.9-3-3.1c0.1-15.4,0.1-30.7,0-46.1
			c0-2.1,1-3.2,3.1-3.2c1,0,1.9-0.1,2.9-0.1c72.3,0,144.6,0,216.8,0c9.7,0,8.2-0.1,8.2,8.3c0,12.9,0,25.8,0,38.8
			c0,5.2-0.1,5.3-5.7,5.3c-26.1,0.1-52.2,0.1-78.2,0.1C555.4,326.3,544.8,326.3,534.2,326.3C534.2,326.3,534.2,326.3,534.2,326.3z"
			/>
		<path class="st7" d="M531.6,105.2c-23,0-46.1,0-69.1,0c-11.8,0-19.7-4.7-23-13.8c-4.6-12.4,3.9-26,17-27.6
			c6.8-0.8,13.6-0.2,20.4,0.4c1.2,0.1,2.7,0.6,3.2-0.8c0.5-1.4-0.8-2.2-1.7-2.9c-3.3-2.4-6.8-4.3-11-4.6c-2.9-0.2-3.3-1.4-2.7-4.1
			c4-16.2,22.9-24.4,38.7-16.4c3.5,1.7,4.4,1,6-2c16.3-30.8,56.6-35.4,79.3-9.1c6,7,9.5,15.2,10.2,24.5c0.4,5.2,0.4,5.2,5.5,5.4
			c17.8,0.7,29.3,17.1,23.7,33.8c-3.5,10.4-13.5,17.1-25.5,17.1C578.8,105.2,555.2,105.2,531.6,105.2
			C531.6,105.2,531.6,105.2,531.6,105.2z"/>
		<path class="st24" d="M563.3,216.7c8.4,0,16.8,0,25.2,0c1.9,0,3.8,0,3.9,2.6c0.1,2.9-2,2.9-4,2.9c-16.7,0-33.3,0.1-50,0.1
			c-2,0-4.3-0.1-4.3-2.7c-0.1-2.9,2.2-2.9,4.4-2.9C546.7,216.8,555,216.8,563.3,216.7C563.3,216.8,563.3,216.7,563.3,216.7z"/>
		<path class="st109" d="M563.3,246c-8.4,0-16.8,0-25.2,0c-1.9,0-3.9,0-4-2.6c-0.1-2.6,1.7-3.2,3.9-3.2c16.9,0,33.9,0,50.8,0
			c2.2,0,3.5,0.7,3.5,3.1c0,2.4-1.5,2.7-3.4,2.7C580.3,246,571.8,246,563.3,246z"/>
		<path class="st24" d="M562.9,229.2c8.3,0,16.6,0,24.8,0c2.1,0,4.4-0.4,4.5,2.8c0.1,3.1-2.2,2.9-4.3,2.9c-16.2,0-32.4,0-48.6,0
			c-0.9,0-1.7,0-2.6-0.1c-1.7-0.2-2.8-1-2.7-2.8c0.1-1.8,1.2-2.6,2.9-2.6c2.9-0.1,5.8-0.1,8.8-0.1
			C551.5,229.3,557.2,229.3,562.9,229.2C562.9,229.3,562.9,229.2,562.9,229.2z"/>
		<path class="st39" d="M451.7,231.1c0.2-3.3,2.8-5.7,6-5.4c3.2,0.3,5.7,3,5.5,6.1c-0.2,3.1-2.9,5.6-6.1,5.4
			C453.8,237,451.5,234.3,451.7,231.1z"/>
		<path class="st37" d="M474.4,225.6c3.2,0,5.8,2.6,5.7,5.8c-0.1,3.1-2.8,5.8-5.9,5.7c-3-0.1-5.5-2.6-5.5-5.6
			C468.7,228.3,471.3,225.6,474.4,225.6z"/>
		<path class="st37" d="M440.3,225.6c3.3,0.1,5.7,2.6,5.6,5.9c-0.1,3.1-2.8,5.7-6,5.5c-3.2-0.1-5.5-2.7-5.3-6.1
			C434.8,227.7,437.2,225.5,440.3,225.6z"/>
		<path class="st37" d="M563.1,314.7c-8.3,0-16.6,0-24.8,0c-2,0-4.1,0.1-4.1-2.8c0-2.7,1.9-2.9,4-2.9c16.8,0,33.6,0,50.4,0
			c2,0,3.6,0.3,3.7,2.8c0,2.6-1.6,2.9-3.6,2.9C580.1,314.7,571.6,314.7,563.1,314.7C563.1,314.7,563.1,314.7,563.1,314.7z"/>
		<path class="st10" d="M563.3,297.9c8.4,0,16.8,0,25.2,0c1.9,0,3.8,0,3.9,2.6c0.1,2.9-1.9,2.9-4,2.9c-16.7,0-33.3,0-50,0
			c-2,0-4.3,0-4.3-2.7c-0.1-3,2.2-2.9,4.4-2.9C546.7,297.9,555,297.9,563.3,297.9C563.3,297.9,563.3,297.9,563.3,297.9z"/>
		<path class="st109" d="M563.3,290.7c-8.3,0-16.5,0-24.8,0c-2.1,0-4.5,0.2-4.5-2.8c0-2.8,2.3-2.6,4.3-2.6c16.7,0,33.3,0,50-0.1
			c2,0,4-0.1,4,2.9c0,2.7-2,2.6-3.8,2.6C580.1,290.7,571.7,290.7,563.3,290.7C563.3,290.7,563.3,290.7,563.3,290.7z"/>
		<path class="st37" d="M457.3,293.9c3.3,0,5.7,2.3,5.8,5.7c0.1,3.2-2.4,5.7-5.7,5.7c-3.3,0-5.8-2.3-5.8-5.6
			C451.6,296.4,454,293.9,457.3,293.9z"/>
		<path class="st37" d="M468.8,299.8c0-3.3,2.5-5.8,5.7-5.9c3.3,0,5.8,2.5,5.8,5.7c-0.1,3.2-2.7,5.7-5.9,5.6
			C471.2,305.3,468.8,302.9,468.8,299.8z"/>
		<path class="st109" d="M446,299.7c0,3.3-2.6,5.7-5.9,5.6c-3.2-0.1-5.4-2.4-5.4-5.7c0.1-3.3,2.6-5.8,5.9-5.7
			C443.7,294,446,296.5,446,299.7z"/>
		<path class="st37" d="M563.3,172c8.4,0,16.8,0,25.2,0c2,0,3.7,0.1,3.8,2.7c0.1,2.8-1.7,3.1-3.9,3.1c-16.7,0-33.3,0-50,0
			c-2,0-4.2,0.1-4.3-2.7c-0.1-3.1,2.1-3,4.3-3C546.7,172,555,172,563.3,172C563.3,172,563.3,172,563.3,172z"/>
		<path class="st37" d="M563.2,153.9c-8.3,0-16.6,0-24.9,0c-2,0-4.2,0.1-4.2-2.7c0-2.7,2.2-2.8,4.2-2.8c16.8-0.1,33.6-0.1,50.4-0.2
			c2.1,0,3.6,0.6,3.5,3.1c0,2.4-1.6,2.6-3.5,2.6C580.3,153.9,571.7,153.9,563.2,153.9C563.2,153.9,563.2,153.9,563.2,153.9z"/>
		<path class="st111" d="M563.4,166.4c-8.4,0-16.8,0-25.2,0c-1.9,0-3.9,0-3.9-2.6c-0.1-2.9,2-2.8,4.1-2.8c16.7,0,33.4,0,50.1-0.1
			c2.1,0,4.1,0.1,4,2.9c0,2.9-2.2,2.7-4.2,2.7c-8.3,0-16.6,0-24.9,0C563.4,166.5,563.4,166.5,563.4,166.4z"/>
		<path class="st39" d="M457.3,157.4c3.4,0,6,2.7,5.9,6c-0.1,3.1-2.5,5.3-5.7,5.4c-3.4,0-5.8-2.3-5.8-5.6
			C451.7,159.7,454,157.3,457.3,157.4z"/>
		<path class="st37" d="M474.2,168.7c-3.1-0.1-5.5-2.5-5.5-5.6c0-3.3,2.5-5.8,5.8-5.8c3.3,0,5.7,2.5,5.7,5.8
			C480.2,166.3,477.5,168.8,474.2,168.7z"/>
		<path class="st39" d="M440.5,157.4c3.3,0.1,5.6,2.6,5.5,6c-0.1,3.3-2.6,5.5-6.1,5.3c-3.2-0.1-5.4-2.6-5.3-5.8
			C434.6,159.5,437,157.3,440.5,157.4z"/>
		<path class="st111" d="M551,23.6l-0.5,0c-19.5,0.2-35.2,16.3-35,35.9c0.2,19.4,16.2,34.6,36.3,34.6l0.4,0
			c8.9-0.1,17.7-4,24.2-10.6c6.5-6.7,10.2-15.7,10.1-24.7C586.3,39,570.7,23.6,551,23.6z"/>
		<path class="st15" d="M580.2,59.2c-0.9,16-11.1,28.4-29.1,28.4c-16.1,0.1-29.4-13.2-29.1-29.3c0.3-15.4,11.6-28.8,29.5-28.5
			C567.6,30.1,580.2,43,580.2,59.2z"/>
		<path class="st111" d="M546.1,73.6c-0.9,0.1-1.8-0.5-2.5-1.3c-4-4-8-8.1-12-12.2c-1.9-1.9-0.5-3.3,0.9-4.7
			c1.8-1.8,3.7-2.1,5.3-0.6c2.5,2.3,4.8,4.7,7.1,7.2c1.1,1.2,1.8,1.2,3,0c5.2-5.5,10.5-10.9,15.7-16.3c2.9-3,6-2.4,7.8,1.4
			c0.8,1.7-0.4,2.7-1.4,3.8c-6.1,6.4-12.3,12.7-18.4,19.1c-0.7,0.8-1.4,1.6-2.1,2.3C548.5,73.1,547.6,73.6,546.1,73.6z"/>
	</g>
	<g>
		<path class="st3" d="M420.3,371.2c-0.5,0.3-0.9,0.8-1.4,1.1C419.4,372.1,419.9,371.6,420.3,371.2
			C420.3,371.2,420.3,371.2,420.3,371.2z"/>
		<path d="M459.7,314.5c-0.7-1-2-1.5-2.9-2.3c-0.1-0.1-0.4-0.4-0.7-0.6c-0.1,0-0.3,0-0.4,0c-2.6,0.5-5.2,0.7-7.7,1.4
			c-5.9,1.7-11.6,3.9-17.8,4.8c-1.1,0.1-2.2,0-3-0.5c-3.5,0.5-7,1-10.4,1.5h0c-0.1,0-0.3,0-0.4,0c-2.3,0.3-4.6,0.6-6.9,0.9
			c-4.2,0.5-8.1,1.4-11.7,3.5c-9.5,5.5-19,11-28.6,16.3c-3.6,2-7.5,3.2-11.4,4.8c-0.4,0.2-1,0.1-1.5-0.1c-5.1-2.1-10.2-2.3-15.4-0.8
			c-1.5-2.7-2.6-5.4-4.3-7.7c-1.5-2.1-3.7-3.7-5.4-5.7c-0.8-1-1.4-2.4-1.6-3.7c-0.5-3.8-1.5-7.2-3.9-10.5c-1.2-1.6-1.1-4.3-1.3-6.6
			c-1.4-14.1-5.5-27.4-12.7-39.6c-4.9-8.4-11.9-14.7-20.2-19.7c-1.5-0.9-2.3-1.9-2.3-3.7c-0.1-6.6-4-11.2-8.5-15.5
			c-0.8-0.7-1.5-1.4-2.4-2.3c4.4-3.1,6.3-7.7,8.7-12.1c2.4-4.5,5.1-8.8,7.7-13.2c5.4-9.4,8.5-19.4,8.1-30.4
			c-0.2-5.2,0.7-9.9,4.1-14.3c2.1-2.7,3-6.4,4.7-10.3c0.6,3.4,1.1,6.5,1.6,9.6c2.5-1,5.6-6.2,5.9-11.6c0.2-4.5-0.6-9.1-1-13.6
			c4.4,2.5,7.8,6.6,10.2,11.6c3-12.6-0.3-22.9-11.3-31c8.1-1.1,14.5-4.1,18.1-12c-10.5,2.3-20.3,0.5-30-2.6c2.8-1.9,5.7-3.5,8.2-5.5
			c2.6-2,4.3-4.7,4.9-8.4c-13.5,6.4-26.7,3.8-40.2,1.1c4.1-4.4,9.1-6.3,14.6-7.8c-4-2-12.8-3.4-20.3-2.4c-6.8,0.9-13.8,1.9-20.4,4
			c-6.4,2-12.4,5.4-18.3,8c2.4-5.7,7.8-8.6,13.7-11.2c-6.2-2.6-21.4,2.3-27.8,13.9c-0.7-2.8-0.2-4,4.4-11.1
			c-8.1,0.2-16.4,9.4-17.9,20.2c-7.3-1.1-13.9,0.6-19.4,5.7c-1.8,1.7-3.1,4-4.3,6.3c3.9-3.5,8.6-4.6,13.7-4.9c-3,2-5.9,3.6-8.4,5.7
			c-9,7.2-12.1,19.3-8,30c0.6,1.5,1.8,2.7,2.7,4.1c0,0.1,0.2,0.1,0.2,0.2c1.4,4.9,4,9.9,3.9,14.8c-0.1,9,2.5,16.5,8,23.3
			c0.9,1.2,1.2,2.9,2,5.1c-4.5-0.8-8.1-1.7-11.8-2.2c-8.9-1.1-17.8-2.9-26.7-3c-15.1-0.2-27.2,5.7-34.2,19.9c-2,4.1-5.2,7-8.5,9.9
			c-4.5,3.9-8.8,8.2-11.3,13.8c-1.6,3.5-2.5,7-2.7,10.6c-0.2,3.9,0.5,7.8,2.4,11.8c-1.5,1.1-3.2,2.2-4.7,3.5
			c-9.6,7.8-16.4,17.5-20.8,29c-5,13-8.2,26.3-10.5,39.9c0.1,0.1,0.2,0.2,0.3,0.3c1.3,1.3,2.7,2.6,4,3.8c2.6,2.5,5.2,4.9,7.8,7.3
			c6.7,6.2,13.5,12.3,20.4,18.3c1,0.8,1.9,1.6,2.8,2.4c8.9,7.6,17.9,15.1,27,22.3c2.3,1.9,4.7,3.7,7,5.5c0.4,0.3,0.8,0.7,1.2,1
			c0.5,0.4,1,0.8,1.5,1.1c1.2,0.9,2.4,1.8,3.6,2.7c0.1,0.1,0.3,0.2,0.4,0.3c2,1.5,4,3,5.9,4.4c2.1,1.6,4.2,3.1,6.3,4.7c0,0,0,0,0,0
			c1.2,0.9,2.5,1.8,3.7,2.7c-0.1,0-0.2,0-0.3,0c0.1,0,0.2,0,0.3,0c1.3,1,2.7,1.9,4,2.9c0.3,0.2,0.6,0.4,0.9,0.6l0,0
			c1.7,1.2,3.5,2.5,5.2,3.7c0.5,0.3,0.9,0.7,1.4,1c5,3.5,10.1,6.9,15.2,10.3c2.1,1.4,4.2,2.8,6.4,4.2c1.4,0.9,2.8,1.8,4.2,2.7
			c4.8,3.1,9.7,6.1,14.5,9.1c0.8,0.5,1.5,0.9,2.3,1.4h0c1.1,0.7,2.2,1.4,3.4,2c10.2,6.1,20.6,12,31.2,17.4c-0.1,0.5-0.3,0.9-0.5,1.4
			c0.2-0.5,0.3-0.9,0.5-1.4c0.9,0.5,1.8,0.9,2.8,1.4c1.2,0.6,2.3,1.2,3.5,1.8c0.9-1.8,1.8-3.4,2.6-5.1c3.7-7.9,3.7-16.2,2.8-24.6
			c-1.1-10.5,0.8-20.3,5.7-29.6c0.4-0.8,1-1.6,1.3-2.1c4.6,5.4,8.8,11,13.7,15.8c12.9,12.9,28.1,17.6,45.3,14.2
			c1.6-0.3,3.2-0.7,4.8-1.2c8.7-2.4,17.3-5.2,24.2-11.2c3.1-2.6,6.4-4.2,10-5.8c9.8-4.4,16.5-13.3,15.6-25.7c-0.3-3.8,2.5-6,6.1-5.1
			c2.6,0.6,2.8-1.3,3.6-3c0.5-0.9,1.1-1.7,2.4-2.1l5.8-1.1l7.9,1.1l17.4,0.7c0.2-1.5,1.1-2.9,2.7-3.2v-6.4h0.3v-0.6h1v-1.1h1.5
			c1-1.1,2-2.3,3.1-3.5v-1.2h2.8c1-1.3,1.9-2.7,2.7-4.1v-0.8h0.5c0.2-0.5,0.5-0.9,0.7-1.4v-7.7h-0.1v-1.8H439v-1.9
			c-0.1,0-0.2,0-0.3,0h0c-1.8,0-2.9-1.1-3.4-2.4c-0.4-0.4-0.7-0.8-1-1.3c-0.6-0.6-1-1.4-1.1-2.2c-0.2-0.8-0.1-1.6,0.2-2.4
			c0.4-0.9,1.2-1.7,2.4-2c2.9-0.8,5.8-0.8,8.7-1.7c3-1,6-1.7,8.7-3.3c2.1-1.2,5.3-2.9,6.6-5.1C460.6,318.4,460.7,315.7,459.7,314.5z
			 M264.6,463.2c4.7,2.1,9.5,4.2,14.3,6.1c13.7,5.5,27.7,10.3,42.9,11c0.9-0.1,1.8-0.1,2.8-0.2C304.3,475.6,284.3,470.1,264.6,463.2
			z M213.5,335.4v5.8c0.2,0,0.4,0,0.6,0c0.1-1.9,0.2-3.9,0.3-5.8C214.1,335.4,213.8,335.4,213.5,335.4z M216.6,316.2
			c-0.1-6.6-0.1-13.2-0.2-19.8c0-6.4-0.1-12.8-0.2-19.2c0-0.9,0-2-0.4-2.5c-0.9-0.9-2.1-1.5-3.3-2.2c-0.4,1-1,2.1-1,3.1
			c-0.1,8.5,0,17,0,25.6h-0.2v28.4c0,0.1,0,0.2,0,0.3c0,0.2,0,0.3,0,0.4c0,0.2,0,0.3,0,0.5c0,0.1,0,0.2,0,0.3
			c0.1,0.4,0.2,0.8,0.4,1.1c0,0.1,0.1,0.1,0.1,0.2c0.2,0.3,0.5,0.6,0.9,0.8c0.1,0,0.1,0,0.2,0.1c0.1,0.1,0.3,0.1,0.5,0.1
			c0,0,0.1,0,0.1,0c0.1,0,0.3,0,0.4,0c0.1,0,0.2,0,0.4,0c0,0,0.1,0,0.1,0c0.1,0,0.2,0,0.2-0.1c0,0,0.1,0,0.1,0
			c0.3-0.1,0.6-0.2,0.8-0.4c0,0,0.1-0.1,0.1-0.1c0.1-0.1,0.2-0.1,0.2-0.2c0,0,0.1-0.1,0.1-0.1c0.1-0.1,0.1-0.2,0.2-0.2
			c0.1-0.1,0.1-0.2,0.2-0.3s0.1-0.2,0.1-0.3c0.1-0.2,0.1-0.3,0.2-0.5c0-0.1,0.1-0.3,0.1-0.4c0-0.1,0-0.3,0.1-0.4c0-0.4,0-0.8,0-1.1
			C216.6,324.8,216.6,320.5,216.6,316.2z M264.3,277.4c0-1.2,0.6-3.3-1.6-3.2c-2,0.1-2.9,1.5-2.9,3.7c0.1,8.8,0,17.6,0,26.4h-0.4
			c0,8.3,0,16.5,0,24.8v0.9c0,0.2,0,0.3,0,0.4c0,1.5,0.4,3,2.2,3c0.2,0,0.4,0,0.6-0.1c0.2,0,0.3-0.1,0.5-0.1c0.1,0,0.1,0,0.2-0.1
			c0.4-0.2,0.8-0.5,1-0.9c0,0,0.1-0.1,0.1-0.2c0.1-0.1,0.1-0.2,0.1-0.3c0-0.1,0.1-0.2,0.1-0.3c0-0.1,0.1-0.2,0.1-0.3
			c0-0.1,0-0.2,0-0.4c0-0.1,0-0.2,0-0.3c0-2,0-3.9,0.1-5.9c0-2.5,0-5,0-7.6C264.4,303.7,264.4,290.6,264.3,277.4z M336.2,342.4
			c-1.3-2.5-2.9-5.1-4.9-7c-3-2.8-5.1-5.7-5.8-9.7c-0.3-1.9-1.8-3.6-2.2-5.5c-0.3-1.3-0.6-2.6-0.8-3.9c-0.8-3.9-1.5-7.9-2.2-11.8
			c-1.8-10.5-5.3-20.4-9.9-29.9c-0.3-0.6-0.8-1.1-1.4-1.8c-0.3-0.3-0.6-0.6-0.9-0.9c-0.1-0.1-0.2-0.2-0.3-0.3c0-0.1-0.1-0.2-0.1-0.3
			c-0.1-0.2-0.1-0.5-0.2-0.7c-0.1-0.3-0.2-0.6-0.3-0.9c-0.2-0.5-0.4-0.9-0.7-1.4c-4.4-6.6-10.4-11.3-17-15.2
			c-0.5,0.8-0.9,1.6-1.3,2.4c-0.4,0.8-0.8,1.6-1.3,2.4c-0.8,1.6-1.7,3.1-2.7,4.5c-4,5.8-8.9,10.7-15,14.3c-0.1,0.1-0.2,0.1-0.3,0.2
			c-0.2,0.1-0.4,0.2-0.5,0.4c-0.1,0.1-0.2,0.1-0.2,0.2c-0.9,0.8-1.2,1.8-1.2,3.2c0.1,15.6,0,31.3,0,47c0,2.9-0.5,5.5-2.7,7.7
			c-0.8,0.8-0.8,2.6-0.9,3.9c-0.1,1.1,0,2.3-0.2,3.4c0,0.1,0,0.2-0.1,0.3c0,0.1-0.1,0.2-0.1,0.3c0,0.1-0.1,0.2-0.2,0.3
			c-0.1,0.1-0.1,0.2-0.2,0.3c-0.1,0.1-0.2,0.2-0.3,0.3c-0.2,0.2-0.4,0.4-0.6,0.5c-0.3,0.2-0.7,0.4-1.1,0.5c-0.5,0.1-1.5-1.2-1.9-2.1
			c-0.3-0.8-0.2-1.9-0.1-2.9c0.1-2.3,0.3-4.4-1.3-6.4c-0.8-1.1-0.6-3-0.6-4.6c0.1-14.8,0.3-29.7,0.5-44.6c0-0.2-0.1-0.5-0.2-0.8
			c-4.2,1-8.3,2-12.5,3.1c-0.1-0.2-0.1-0.3-0.2-0.5c2.5-1.2,5-2.5,7.4-3.8c0.7-0.3,1.3-0.7,2-1.1c0.5-0.3,1-0.6,1.4-0.9
			c0.1-0.1,0.3-0.2,0.4-0.3c0.1-0.1,0.2-0.1,0.3-0.2c0.6-0.6,1.1-1.4,1.2-2.2c0.1-0.6,0.3-1.2,0.7-1.7c0.2-0.4,0.5-0.8,0.9-1.2
			c1.1-1.2,2.5-2,3.9-1.9c1.2,0.1,2.3,0.8,3.9,1.5c1.8-1.3,3.6-2.7,5.3-4.1c1.7-1.4,3.4-2.9,5-4.6c3.1-3.3,5.9-7,7.7-11.5
			c2.5-6.1,2.1-11.9-2.5-17c-1.4-1.6-2.9-3.1-4.4-4.6c-0.2-0.2-0.5-0.5-0.8-0.7c-0.2-0.2-0.5-0.5-0.8-0.7v0
			c-0.1-0.1-0.2-0.2-0.4-0.2c-0.4-0.2-1-0.2-1.5-0.3c-0.1,0.6-0.3,1.3-0.2,1.8c0.1,0.5,0.3,1.1,0.4,1.6c0.2,0.8,0.5,1.6,0.7,2.4
			c0.2,0.8,0.4,1.6,0.6,2.4c0.1,0.7,0.4,1.5,0.5,2.2c0.1,0.5,0.2,1.1,0.1,1.6c0,0.3,0,0.5-0.1,0.8c-0.1,0.2-0.1,0.4-0.2,0.6
			c-0.1,0.1-0.1,0.2-0.2,0.3c0,0.1-0.1,0.1-0.2,0.2c-0.3,0.3-0.6,0.5-1.1,0.7c-0.4-1.9-0.8-3.8-1.2-5.7c-0.3-1.5-0.6-2.9-1-4.4
			c-0.1-0.5-0.2-1-0.3-1.5c-0.2-1.1-0.7-1.8-1.4-2c-0.1-0.1-0.3-0.1-0.4-0.1c-0.3-0.1-0.7-0.1-1.1,0c-0.7,0.1-1.5,0-2.2-0.1
			c-0.5,0-1,0-1.4,0.1c-0.1,0-0.2,0.1-0.3,0.1c-0.2,0.1-0.3,0.2-0.5,0.3c-0.5,0.4-1,0.9-1.3,1.4c-0.2,0.4,0.1,1.5,0.5,1.9
			c0.4,0.4,0.8,0.8,1.2,1.2c0.2,0.3,0.5,0.6,0.7,0.8c0.6,0.8,1.2,1.7,1.6,2.7c0.1,0.3,0.3,0.6,0.4,0.9c0.4,1.1,0.8,2.2,1,3.4
			c0.4,2,0.7,4.1,0.9,6.1c0.2,1.8-0.8,4-1.8,5.6c-3.8,6.1-8.9,11.1-15.1,14.8c-3.8,2.2-7.6,4.4-11.2,6.8c-0.7,0.4-0.9,1.6-1.8,3.4
			c-3.9-4.2-7.5-8.2-11.3-12.1c-12.6-12.7-26.6-23.9-40.9-34.5c-4.1-3.1-8.3-6.1-12.5-9.1c-2.8-2-5.6-4-8.5-6c-1.4-1-2.8-2-4.2-3
			c-2.8-2-5.6-4-8.4-6c-0.1-0.1-0.1-0.1-0.2-0.2c-0.1-0.1-0.2-0.1-0.2-0.2c-0.1-0.1-0.3-0.2-0.4-0.3c-0.3-0.2-0.6-0.5-0.9-0.8
			l-0.5-0.5c-0.7-0.7-1.4-1.5-2-2.3c-2.5-3.5-1.6-7.2,2.5-8.4c3.6-1.2,7.6-2.2,11.3-2c8.3,0.4,16.6,1.7,24.9,2.6
			c2.4,0.3,4.8,0.6,7.6,1c0.1-1.1,0.1-2,0.2-3c0-0.7,0.1-1.4,0.2-2.1c0-0.3,0-0.5,0.1-0.8v0c-1.1-0.2-2.1-0.4-3.2-0.6
			c-0.5-0.1-1-0.2-1.6-0.3c-1-0.2-2.1-0.4-3.1-0.6c-1.5-0.3-3.1-0.6-4.6-0.8c-7.9-1-15.9-2.1-23.8-2.5c-4.7-0.2-9.5,0.7-14.1,1.7
			c-4.7,1-8.6,3.2-11.8,6.4c-0.3,0.3-0.6,0.6-0.9,1c-1.5,1.7-2.9,3.6-4,5.6c-3.3,5.9-7.6,10.9-12.7,15.3
			c-6.6,5.6-10.9,12.6-11.1,21.6v0.8c0,1.1,0.1,2.3,0.3,3.4c0.7,3.7,1.6,4.2,5.3,3.4c1.8-0.4,3.6-0.6,5.4-0.7
			c5.7-0.2,11.3,0.9,16.7,2.6c13.6,4.1,27.1,8.7,40.5,13.5c11.1,4,21.9,8.6,32.9,12.9c0.6,0.2,1.3,0.4,2.3,0.7
			c-0.2-1-0.5-1.9-0.9-2.7c-0.5-1-1.1-1.8-1.9-2.5c-0.6-0.6-1.3-1.2-2.1-1.7c-6.1-4-12.1-8.1-18.3-12c-7.1-4.4-14.3-8.7-21.7-12.5
			c-1.7-0.9-3.3-1.7-5-2.5c-0.8-0.4-1.7-0.8-2.5-1.2c-1.7-0.8-3.4-1.5-5.1-2.2c0,0,0,0,0,0c-1.7-0.7-3.4-1.4-5.2-2.1
			c-1-0.4-1.9-0.7-2.8-1c-2.9-1-5.8-1.8-8.7-2.5c-3.9-0.8-8-1.1-11.9-1.6c0.5-0.1,1.3-0.6,2.1-0.6c5.3,0.6,10.7,0.8,15.8,2.2
			c9.5,2.6,18.4,6.9,27,11.7c2.9,1.6,5.7,3.3,8.5,4.9c2.7,1.6,5.3,3.2,8,4.9c8,4.9,15.9,9.9,23.8,14.8c1,0.6,2.4,0.7,3.6,0.5
			c2-0.4,4.2,0.7,5.7,2.2c0.3,0.3,0.6,0.6,0.8,1c0.5,0.7,0.8,1.4,1,2.2c0,0.2,0.1,0.4,0.1,0.6c0,0.4,0.2,0.9,0.6,1.4
			c0.4,0.6,1,1.1,1.5,1.4c4.8,2.4,9.7,4.6,14.4,7.3c-3.9-0.9-7.8-1.7-11.9-2.6c-1.3-0.3-2.7-0.6-4.1-0.9v30.4c0,1.6,0,3.3,0,4.9
			c0,3,0,5.9,0,8.9v0.5c0,0.5,0,1.1-0.1,1.6c0,0.4-0.1,0.7-0.1,1.1c0,0.3-0.1,0.7-0.2,1c-0.4,1.3-1.1,2.6-2.4,3.6
			c-0.5,0.4-0.6,1.6-0.7,2.4c-0.1,1.8,0.1,3.7-0.3,5.5c-0.2,0.8-1.5,2-2.3,2c-0.5,0-1-0.5-1.5-1.1c-0.2-0.2-0.3-0.5-0.5-0.7
			c-0.1-0.1-0.1-0.2-0.2-0.3l0,0c-0.1-0.3-0.2-0.6-0.2-1c0-0.6,0-1.2,0-1.8c0-2.3,0.3-4.6-1.5-6.7c-0.8-0.9-0.7-2.7-0.7-4
			c0-6.4,0-12.9,0-19.3c0-5.8,0-11.6,0-17.3c0-2.8-0.4-5.6-0.3-8.4c0.1-1.5-0.2-2.5-0.9-3.3c-0.1-0.1-0.1-0.2-0.2-0.2
			c-0.5-0.4-1.1-0.8-2-1.1c-8.5-3.1-16.9-6.5-25.4-9.6c-14.6-5.2-29.3-10.3-44.1-15.1c-3.2-1.1-6.6-1.7-10-2.2
			c-1.6-0.3-3.3-0.5-4.9-0.7c-9.3-1.3-16.7,2.5-23.2,8.9c-9.1,8.9-14.8,19.7-18.2,31.9c-3.2,11.4-5.6,22.9-7.3,34.6
			c2.6,2.5,5.2,4.9,7.8,7.3c6.7,6.2,13.5,12.3,20.4,18.3c1,0.8,1.9,1.6,2.8,2.4c8.9,7.6,17.9,15.1,27,22.3c2.3,1.9,4.7,3.7,7,5.5
			c0.4,0.3,0.8,0.7,1.2,1c0.5,0.4,1,0.8,1.5,1.1c1.2,0.9,2.4,1.8,3.6,2.7c0.1,0.1,0.3,0.2,0.4,0.3c2,1.5,4,3,5.9,4.4
			c2.1,1.6,4.2,3.1,6.3,4.7c0,0,0,0,0,0c1.2,0.9,2.5,1.8,3.7,2.7c0.2,0,0.4-0.1,0.6-0.1c0.2-0.1,0.5-0.2,0.7-0.3
			c0.2-0.1,0.4-0.3,0.5-0.4c0.3-0.3,0.6-0.8,0.8-1.3c0.1-0.3,0.2-0.6,0.2-0.9v0c0.1-0.3,0.1-0.7,0.1-1c0-0.2,0-0.4,0-0.6
			c0-0.1,0-0.3,0-0.4c0-0.5,0-1,0-1.5c0-0.2,0-0.3,0-0.5c0-0.7-0.1-1.3-0.3-2c0-0.2-0.1-0.4-0.1-0.6c0-0.1-0.1-0.3-0.1-0.4
			c-0.3-1-0.6-2-1.2-2.8c-3.4-5.8-7.5-11.3-11.4-16.8c-9-12.6-17-25.7-22.8-40c-0.2-0.5-0.4-1.1-0.6-1.6c-0.2-0.4-0.3-0.8-0.5-1.2
			c7.3,16.1,18.9,29.2,29.8,43.5c0.3-11.5,0.3-22.7-1.6-33.7c-1.8-11-4.3-21.8-6.5-32.5c0.7,1.6,1.4,3.3,2.1,5
			c0.5,1.3,1.1,2.6,1.6,3.9c0.2,0.5,0.3,0.9,0.5,1.3c0.8,2.1,1.5,4.2,2.1,6.3c0.2,0.7,0.4,1.4,0.6,2.1c0.3,0.9,0.5,1.9,0.8,2.9
			c0.2,0.9,0.5,1.9,0.7,2.8c0.5,1.9,0.9,3.8,1.3,5.7c0.2,0.9,0.4,1.9,0.6,2.8c0.8,3.9,1.3,7.8,2.1,12.3c3.4-9.5,4.7-19,5.3-28.7
			c0.1-1.6,0.2-3.2,0.2-4.9c0.1-1.6,0.1-3.3,0.2-4.9c0,0.1,0.1,0.2,0.1,0.2c0.1,0.3,0.3,0.5,0.3,0.7c0,0.1,0.1,0.2,0.1,0.2
			c0,0.1,0,0.1,0,0.2c0.1,0.4,0.1,0.9,0.2,1.3c0.8,10.4,0.6,20.8-0.7,31c-0.2,1.5-0.4,3.1-0.7,4.6c0,0,0,0,0,0
			c-0.2,1.1-0.4,2.3-0.6,3.5c-0.2,1.2-0.4,2.3-0.7,3.5c-0.2,0.8-0.3,1.5-0.5,2.3c-0.4,1.5-0.7,3.1-1.1,4.6c-0.1,0.2-0.1,0.5-0.2,0.7
			c-0.1,0.2-0.1,0.5-0.2,0.7c-0.1,0.5-0.2,0.9-0.3,1.4c-0.7,3.5-0.8,6.9-0.7,10.4c0,0.9,0.5,1.8,0.9,2.6c0.2,0.3,0.3,0.5,0.5,0.8
			c0.3,0.5,0.6,1.1,0.9,1.6c0.5,0.8,0.9,1.6,1.3,2.5c0.7,1.4,1.3,2.8,1.8,4.2v0c0.5,1.8,0.8,3.6,0.7,5.5c-0.2,2.4-0.9,4.8-1.7,7.4
			c-0.2,0.7-0.4,1.4-0.6,2.1l0,0c1.7,1.2,3.5,2.5,5.2,3.7c0.5,0.3,0.9,0.7,1.4,1c5,3.5,10.1,6.9,15.2,10.3c2.1,1.4,4.2,2.8,6.4,4.2
			c15.2-1.9,29.3-7.4,42.5-16.1c1.5-1,3-2,4.4-3.1c1.2-0.9,2.4-1.8,3.5-2.7c1.1-0.9,2.3-1.8,3.3-2.7c0.7-0.6,1.4-1.2,2.1-1.7
			c0.9-0.7,1.8-1.4,2.7-2.1c-7.5,13.2-18.9,24.3-34.7,30.5c0.4-0.1,0.8-0.1,1.2-0.2c1.2-0.2,2.4-0.6,3.6-1c3.9-1.3,7.4-3.3,10.8-5.5
			c0.4-0.2,0.7-0.4,1-0.6c0.3-0.2,0.7-0.4,1-0.7v0c0.2,0.2,0.4,0.5,0.6,0.7l0,0c-2,1.8-3.9,3.7-5.9,5.5c-3.3,3.1-6.5,6.1-10,8.9
			c-1.7,1.4-3.4,2.7-5.2,4c1.1,0.7,2.2,1.4,3.4,2c1.2-0.7,2.5-1.4,3.7-2.1c3.7-2.3,7.2-4.7,10.5-7.4c4.2-3.3,8.1-6.9,11.8-10.6
			c5.2-5.3,10.1-11,14.6-16.9c7.5-9.8,13.7-20.3,19-31.2c5.2-10.6,9.6-21.7,13.6-32.9c2.1-5.9,3.6-11.8,4.8-17.9
			c0.4-2,0.7-4,1.1-6.1c0.1-0.7,0.2-1.4,0.3-2c0.3-2,0.5-4.1,0.8-6.1c0-0.1,0-0.2,0-0.2c0-0.2,0.1-0.5,0.1-0.7c0.3,0,0.5,0,0.8,0.1
			c-0.7,8.7-1.3,17.3-2,26.6c4-7.5,6-15.2,7.4-22.9c1.4-7.8,2.2-15.6,3.4-23.5c-0.4,6.9-0.5,13.9-1.1,20.8c-0.2,2-0.4,3.9-0.7,5.8
			c-0.3,1.9-0.6,3.8-1,5.7c-0.2,1.1-0.4,2.1-0.7,3.2c-0.1,0.5-0.2,1-0.4,1.6c-0.2,1-0.5,2.1-0.8,3.1c-0.6,2.1-1.2,4.1-1.9,6.2
			c-1.2,3.6-2.6,7.1-4.2,10.6c-1.2,2.6-2.5,5.2-4,7.8c-2.5,4.4-4.3,9.2-6.5,14c4.4-1.3,13.9-7.5,17.8-12.6c1.7-2.1,3.3-4.3,4.9-6.5
			c1-1.5,2.1-2.9,3.1-4.4c0.5-0.7,1-1.5,1.5-2.2c1-1.4,2-2.8,3-4.2c0,0,0,0,0,0c-0.5,1.1-1,2.2-1.6,3.3c-1.6,3.4-3.4,7.1-5.3,11
			c0.2-0.1,0.4-0.2,0.5-0.2c0.3-0.2,0.7-0.3,1-0.4c0.2-0.1,0.3-0.1,0.5-0.2c0.2-0.1,0.4-0.2,0.6-0.3c0.3-0.1,0.5-0.2,0.8-0.4
			c-4.1,4.1-8.4,8-12.3,12.4c-3.1,3.5-6,7.2-8.4,11.1c-0.4,0.7-0.9,1.5-1.3,2.3c-0.3,0.5-0.5,1-0.8,1.6c-0.1,0.3-0.2,0.5-0.4,0.8
			c-0.2,0.5-0.5,1.1-0.7,1.6c-0.5,1.4-1,2.7-1.4,4.2c-0.1,0.3-0.2,0.6-0.2,0.9v0c-0.1,0.3-0.1,0.6-0.2,0.9c-0.1,0.3-0.1,0.6-0.2,0.9
			c-0.6,3.4-0.3,7-0.3,10.5c0,0.5,0.4,1.1,0.7,2c0.7-3.8,1.8-7.5,3.1-10.9c2.3-6.1,5.6-11.6,9.8-16.8c-2.5,7.4-5,14.7-4.4,22.6
			c0,0.1,0,0.2,0,0.3c0.1,0.9,0.2,1.8,0.4,2.7v0c0.2-0.7,0.3-1.4,0.5-2.1c0.2-0.9,0.4-1.7,0.6-2.6c1.8-8.2,4.2-16.3,9.4-23
			c3.8-4.9,7.9-9.5,12.9-13c0.9-0.6,1.9-1.2,2.9-1.8c1-0.6,2-1.1,3-1.5c0.5-0.2,1.1-0.5,1.6-0.7c0.5-0.2,1.1-0.4,1.6-0.5
			c1.6-0.5,3.3-0.8,5-1.1C336.7,345.7,337.4,344.8,336.2,342.4z M254.5,428.6h-0.7c-0.2,1-0.4,2.1-0.6,3.1c-0.2,0.9-0.3,1.7-0.5,2.6
			c-0.1,0.4-0.1,0.7-0.2,1.1c-0.2,1.1-0.4,2.1-0.5,3.2c-0.1,0.5-0.1,0.9-0.2,1.4c-0.2,2.3-0.6,4.6-1,6.9c-0.3,1.7-0.7,3.4-1.2,5
			c-0.2,0.6-0.3,1.1-0.5,1.7c-0.1,0.5-0.3,0.9-0.4,1.4c-0.1,0.2-0.1,0.5-0.2,0.7c-0.1,0.5-0.3,0.9-0.5,1.4c0.2-0.5,0.3-0.9,0.5-1.4
			c0.9,0.5,1.8,0.9,2.8,1.4C255.9,448.2,257.5,439,254.5,428.6z M343.6,414.2c-0.4-0.2-0.8-0.3-1.2-0.5c-0.4-0.2-0.8-0.3-1.2-0.5
			c-1.5-0.7-3-1.5-4.4-2.3c-0.7-0.4-1.4-0.9-2-1.3c-0.4-0.3-0.8-0.6-1.2-0.9s-0.8-0.6-1.2-0.9c-0.5-0.4-1-0.9-1.5-1.3
			c-0.2-0.1-0.3-0.3-0.5-0.4c-0.2-0.2-0.5-0.5-0.7-0.7c-0.2-0.2-0.3-0.3-0.5-0.5c-0.3-0.3-0.6-0.6-0.9-1c-0.1-0.1-0.1-0.2-0.2-0.2
			c-0.3-0.3-0.5-0.7-0.8-1c-0.1-0.2-0.3-0.4-0.4-0.6c-0.3-0.3-0.5-0.7-0.7-1c-0.2-0.2-0.3-0.4-0.5-0.7c-0.4-0.6-0.8-1.2-1.1-1.8
			c-0.2-0.3-0.4-0.7-0.6-1c-0.3-0.5-0.5-1-0.8-1.6c-0.2-0.5-0.4-1-0.6-1.5c-0.3-0.8-0.6-1.7-0.9-2.5c-0.1-0.3-0.2-0.6-0.3-0.9
			c-0.1-0.5-0.3-0.9-0.4-1.4c-0.2-0.8-0.4-1.6-0.6-2.5c-0.1-0.4-0.2-0.9-0.2-1.3c-2.3-13.6,1.2-25.6,11.3-35.4
			c-0.2-0.2-0.3-0.4-0.5-0.6c-2,0.6-4.2,0.9-6.1,1.7c-4.3,1.7-7.7,4.6-10.2,8.5c-7.8,11.8-10.8,24.5-5.7,38.1
			c0.3,0.8,0.6,1.5,0.9,2.2c0,0,0,0.1,0,0.1c0.1,0.3,0.2,0.5,0.4,0.8c0.1,0.2,0.2,0.5,0.4,0.7c0.1,0.2,0.2,0.5,0.4,0.7
			c0.2,0.3,0.4,0.7,0.6,1c0.2,0.4,0.4,0.7,0.7,1c0.3,0.4,0.5,0.8,0.8,1.2c0.1,0.2,0.2,0.3,0.4,0.5c0.2,0.2,0.3,0.4,0.5,0.6
			c0.2,0.2,0.4,0.5,0.6,0.7c0.1,0.1,0.2,0.3,0.4,0.4c0.1,0.1,0.2,0.3,0.4,0.4c0.1,0.1,0.3,0.3,0.4,0.4c0.2,0.2,0.3,0.3,0.5,0.5
			c0.4,0.4,0.8,0.7,1.2,1.1c0.2,0.2,0.4,0.3,0.6,0.5c0.2,0.2,0.4,0.3,0.6,0.4c0.2,0.2,0.4,0.3,0.6,0.4c0.4,0.3,0.9,0.6,1.3,0.8
			c0.1,0.1,0.3,0.2,0.5,0.3c0.5,0.2,0.9,0.5,1.4,0.7c0.1,0,0.1,0.1,0.2,0.1c0.5,0.2,0.9,0.4,1.4,0.6c0.4,0.1,0.8,0.3,1.1,0.4
			c0.5,0.2,1,0.3,1.6,0.5c0.3,0.1,0.6,0.1,0.8,0.2c0.3,0.1,0.6,0.1,0.9,0.2c0.3,0.1,0.6,0.1,0.8,0.1c0.3,0,0.6,0.1,0.9,0.1
			c0.4,0.1,0.8,0.1,1.2,0.1c0.4,0,0.8,0,1.3,0.1c0,0,0,0,0.1,0c0,0,0,0,0,0c1,0,2,0,3-0.1c0.4,0,0.8-0.1,1.1-0.1
			c0.4,0,0.7-0.1,1.1-0.1c0.3,0,0.7-0.1,1-0.1c0.3,0,0.5-0.1,0.8-0.2c0.2,0,0.5-0.1,0.8-0.2c0,0,0.1,0,0.1,0c0.2,0,0.4-0.1,0.6-0.1
			c0.3-0.1,0.7-0.2,1-0.2C342.8,414.4,343.2,414.3,343.6,414.2L343.6,414.2z M377.8,384.7C377.8,384.7,377.8,384.7,377.8,384.7
			c0,0.1-0.1,0.1-0.1,0.2c-0.1,0.1-0.1,0.2-0.2,0.3c-0.1,0.2-0.2,0.3-0.3,0.5c0,0.1,0,0.1-0.1,0.2c-4.4,14.6-16.9,14-25.4,9.2
			c-0.5-0.3-1-0.6-1.4-0.9c-0.2-0.1-0.4-0.2-0.5-0.4c-0.2-0.1-0.3-0.2-0.5-0.4c-0.2-0.1-0.3-0.2-0.5-0.4c-0.3-0.2-0.6-0.5-0.9-0.7
			c-0.5-0.4-0.9-0.8-1.4-1.3c-0.3-0.3-0.6-0.6-0.9-1c-0.2-0.2-0.4-0.5-0.6-0.7c-0.2-0.2-0.4-0.5-0.6-0.8c-0.2-0.2-0.4-0.5-0.6-0.8
			s-0.4-0.5-0.6-0.8c-0.1-0.2-0.2-0.3-0.3-0.5c-0.1-0.2-0.2-0.3-0.3-0.5c-0.1-0.2-0.2-0.4-0.3-0.6c0,0-0.1-0.1-0.1-0.2
			c-0.1-0.2-0.2-0.4-0.4-0.6s-0.2-0.4-0.3-0.6c-0.2-0.5-0.5-0.9-0.7-1.4c-0.4-0.9-0.8-1.9-1.2-2.9c-0.1-0.2-0.2-0.5-0.2-0.7
			c-0.1-0.2-0.2-0.4-0.2-0.7c-0.1-0.4-0.2-0.8-0.3-1.1c-0.1-0.2-0.1-0.4-0.2-0.7c-0.1-0.3-0.2-0.6-0.2-1c-0.1-0.5-0.2-0.9-0.3-1.4
			c-0.1-0.6-0.2-1.3-0.2-1.9c0-0.3,0-0.6-0.1-1c0-0.3,0-0.6,0-0.9c0-1,0-1.9,0-2.9c0-0.6,0.1-1.2,0.2-1.8c0.1-1.2,0.4-2.4,0.7-3.6
			c0,0,0,0,0,0c0.3-1.2,0.7-2.3,1.1-3.4c0,0,0,0,0,0c0.3-0.8,0.7-1.6,1.2-2.4c0,0,0,0,0,0c0.1-0.3,0.3-0.5,0.4-0.8l0.2-0.3
			c0-0.1,0.1-0.1,0.1-0.2c0.1-0.1,0.1-0.2,0.2-0.3c0-0.1,0.1-0.1,0.1-0.1c0.1-0.2,0.2-0.3,0.3-0.5c0.1-0.2,0.3-0.4,0.4-0.6
			c0,0,0,0,0,0c0.2-0.3,0.5-0.6,0.8-0.9c0.1-0.2,0.3-0.3,0.4-0.4c0.3-0.3,0.6-0.6,0.9-0.9c0.1-0.1,0.3-0.3,0.4-0.4
			c0.1-0.1,0.2-0.2,0.4-0.3c0.1-0.1,0.2-0.2,0.4-0.3c0.1-0.1,0.2-0.2,0.4-0.3c0.3-0.2,0.6-0.5,1-0.7c0.1-0.1,0.3-0.2,0.4-0.3
			c0.2-0.1,0.3-0.2,0.4-0.3c0.4-0.2,0.7-0.4,1.1-0.6c0.2-0.1,0.4-0.2,0.7-0.3c0.2-0.1,0.4-0.2,0.6-0.2s0.4-0.2,0.6-0.2
			c0.6-0.2,1.1-0.5,1.7-0.7c0,0,0-0.2,0.1-0.5c-0.5-0.1-1-0.2-1.5-0.3c-0.5-0.1-1-0.2-1.5-0.2c-0.1,0-0.3,0-0.4-0.1
			c-0.2,0-0.3-0.1-0.5-0.1c-0.5,0-1-0.1-1.4-0.1c-0.4,0-0.9,0-1.3,0c-0.4,0-0.7,0-1.1,0.1c-0.3,0-0.7,0.1-1,0.1
			c-0.1,0-0.3,0-0.4,0.1c-0.1,0-0.2,0-0.3,0.1c-0.2,0-0.3,0.1-0.5,0.1c-0.2,0-0.4,0.1-0.5,0.1c-0.3,0.1-0.7,0.2-1,0.3
			c-0.2,0.1-0.3,0.1-0.5,0.2c-0.2,0.1-0.4,0.1-0.5,0.2c-1.1,0.4-2.1,0.9-3.1,1.4c-0.3,0.1-0.5,0.3-0.8,0.4c-0.1,0.1-0.3,0.1-0.4,0.2
			c-0.1,0.1-0.2,0.2-0.4,0.2c-0.2,0.1-0.5,0.3-0.7,0.4c-0.2,0.1-0.3,0.2-0.5,0.3c-0.6,0.4-1.2,0.8-1.8,1.3c-0.3,0.3-0.7,0.5-1,0.8
			c-0.5,0.4-0.9,0.8-1.4,1.2c-0.3,0.3-0.5,0.5-0.8,0.8c-0.3,0.4-0.7,0.7-1,1.1c-0.3,0.4-0.7,0.8-1,1.2c-0.3,0.4-0.6,0.8-0.9,1.2
			c-0.9,1.2-1.7,2.6-2.4,3.9c-0.2,0.3-0.3,0.7-0.5,1c-0.2,0.3-0.3,0.7-0.5,1c-0.1,0.2-0.2,0.5-0.3,0.7c-0.1,0.2-0.1,0.4-0.2,0.5
			c-0.1,0.3-0.2,0.6-0.3,0.9c-0.1,0.3-0.2,0.7-0.3,1.1c-0.1,0.2-0.2,0.5-0.2,0.8c-0.1,0.3-0.2,0.6-0.2,0.9c-0.1,0.3-0.1,0.5-0.2,0.8
			c0,0,0,0.1,0,0.1c0,0.2-0.1,0.4-0.1,0.6c0,0,0,0,0,0.1c0,0.2-0.1,0.3-0.1,0.5c0,0.1,0,0.1,0,0.2c-0.1,0.6-0.2,1.2-0.3,1.9
			c0,0.3-0.1,0.6-0.1,0.9c0,0,0,0.1,0,0.1c0,0.3,0,0.7-0.1,1c0,0.2,0,0.4,0,0.6c0,0.3,0,0.7,0,1.1c0,0.7,0,1.3,0.1,2
			c0.1,1,0.2,1.9,0.3,2.9c0,0.3,0.1,0.5,0.1,0.8c0,0.3,0.1,0.6,0.2,0.8c0,0.2,0.1,0.5,0.1,0.7c0.1,0.4,0.2,0.7,0.2,1.1
			c3.5,14.4,13.6,23.3,27.9,24.2c0.4,0,0.8,0,1.1,0c0.4,0,0.8,0,1.2,0s0.8,0,1.2-0.1c1.3-0.1,2.7-0.3,4-0.4c0-0.4,0.1-0.8,0.1-1.3
			c-1.4-0.4-2.8-0.9-4.2-1.3c-0.6-0.2-1.2-0.4-1.8-0.6c-0.3-0.1-0.5-0.2-0.8-0.3c-0.5-0.2-1.1-0.4-1.6-0.5c-0.4-0.1-0.8-0.3-1.2-0.4
			c-0.4-0.2-0.9-0.3-1.3-0.5c-0.1,0-0.1,0-0.2-0.1c-0.3-0.1-0.5-0.2-0.8-0.4c-0.1,0-0.2-0.1-0.3-0.1c-0.4-0.2-0.8-0.4-1.2-0.6
			c-0.4-0.2-0.8-0.4-1.2-0.7c-0.2-0.1-0.3-0.2-0.5-0.3c-0.3-0.2-0.7-0.4-1-0.7c0,0,0,0-0.1-0.1c-0.3-0.2-0.6-0.4-0.9-0.7
			c-0.3-0.2-0.7-0.5-1-0.8c-0.4-0.3-0.8-0.7-1.2-1.1c-0.2-0.2-0.4-0.4-0.6-0.6c-0.4-0.4-0.7-0.8-1.1-1.2c-0.2-0.2-0.4-0.4-0.5-0.7
			c-0.2-0.2-0.3-0.5-0.5-0.7h0c0,0,0.1,0,0.1,0c0.1,0,0.3-0.1,0.3-0.1c6.8,6.8,15.1,9,24.3,7.6c0.5-0.1,0.9-0.2,1.3-0.2
			c0.9-0.2,1.8-0.4,2.7-0.7c0.5-0.1,0.9-0.3,1.3-0.4c0.9-0.3,1.7-0.6,2.6-1c0,0,0,0,0,0c0.9-0.3,1.7-0.7,2.5-1.2
			c0.6-0.3,1.1-0.6,1.6-1c0.2-0.2,0.4-0.3,0.6-0.5c0.2-0.2,0.4-0.3,0.6-0.5c0.1-0.1,0.1-0.1,0.2-0.2c0.1-0.1,0.1-0.1,0.2-0.2
			c0.2-0.2,0.3-0.3,0.5-0.5c0.2-0.2,0.4-0.5,0.6-0.7c0.2-0.2,0.3-0.4,0.4-0.6c0.1-0.1,0.1-0.2,0.2-0.3c0.2-0.2,0.3-0.5,0.4-0.7
			c0.1-0.2,0.3-0.5,0.4-0.8c0.1-0.3,0.3-0.6,0.4-0.9c0.2-0.5,0.4-1.1,0.6-1.7c0,0,0,0,0-0.1c0-0.2,0.1-0.4,0.1-0.6c0,0,0-0.1,0-0.1
			c0-0.1,0.1-0.2,0.1-0.4c0.1-0.6,0.2-1.1,0.2-1.7c0,0,0,0,0,0C378,386.6,378,385.6,377.8,384.7z M457.6,313.3
			C457.6,313.3,457.6,313.3,457.6,313.3c-0.1-0.2-0.3-0.2-0.5-0.2c-0.4-0.1-0.9-0.1-1.4-0.1c-0.1,0-0.2,0-0.4,0
			c-0.4,0-0.8,0.1-1,0.2c-1.1,0.4-2.1,0.8-3.2,1.2c-0.4,0.1-0.8,0.3-1.2,0.4c-0.4,0.1-0.8,0.3-1.2,0.4c-0.4,0.1-0.8,0.2-1.2,0.4
			c-0.4,0.1-0.8,0.2-1.2,0.3c-1.1,0.3-2.2,0.6-3.3,0.8c-1.7,0.4-3.3,0.8-5,1.1c-0.8,0.2-1.7,0.3-2.5,0.5c-0.8,0.2-1.7,0.3-2.5,0.5
			c-1.7,0.3-3.3,0.6-5,0.9c-6.9,1.2-13.9,2-20.8,3.3c-2.8,0.5-5.6,1.5-8.1,2.9c-10.4,5.8-20.6,12.1-31.1,17.8
			c-0.6,0.3-1.2,0.6-1.8,0.9c-0.1,0.1-0.2,0.1-0.3,0.2c-0.5,0.2-1,0.4-1.4,0.6c-0.2,0.1-0.4,0.2-0.6,0.3c-0.5,0.2-0.9,0.4-1.4,0.6
			c-0.1,0-0.1,0.1-0.2,0.1c-0.6,0.2-1.2,0.5-1.9,0.7c-0.7,0.3-1.4,0.5-2.1,0.8c-0.7,0.2-1.3,0.5-2,0.8c0,0,0,0,0,0
			c-0.6,0.2-1.3,0.5-1.9,0.8c-0.6,0.3-1.3,0.6-1.9,0.9c-0.3,0.2-0.6,0.3-1,0.5c-0.4,0.2-0.8,0.5-1.2,0.7c-0.3,0.2-0.6,0.4-0.9,0.6
			c-0.1,0-0.2,0.1-0.2,0.2c-0.2,0.2-0.4,0.3-0.6,0.5c-0.6,0.4-1.1,0.9-1.6,1.4c-0.1,0.1-0.2,0.2-0.3,0.4c-0.2,0.2-0.5,0.5-0.7,0.7
			c-0.2,0.2-0.4,0.5-0.6,0.8c-0.1,0.2-0.3,0.3-0.4,0.5c-0.2,0.2-0.3,0.4-0.5,0.7c-0.5,0.8-1,1.6-1.3,2.4c-0.2,0.4-0.3,0.8-0.5,1.2
			c-0.1,0.2-0.1,0.4-0.2,0.6c-0.1,0.4-0.3,0.8-0.4,1.2c-0.1,0.2-0.1,0.5-0.2,0.7c0,0.2-0.1,0.4-0.1,0.6c0,0.2-0.1,0.4-0.1,0.6
			c0,0.3-0.1,0.5-0.1,0.8c0,0,0,0.1,0,0.1c0,0.1,0,0.2,0,0.4c0,0.2,0,0.4,0,0.5c0,0.2,0,0.5,0,0.8c0,0.3,0,0.7,0,1
			c0,0.3,0,0.5,0.1,0.8c0,0.2,0,0.4,0.1,0.6c0.1,0.6,0.2,1.2,0.3,1.8c0.1,0.2,0.1,0.5,0.2,0.7c0,0.1,0.1,0.2,0.1,0.4
			c0,0.2,0.1,0.4,0.2,0.6c0.1,0.2,0.2,0.5,0.2,0.7c0.1,0.3,0.2,0.5,0.3,0.8s0.2,0.5,0.3,0.8c0.1,0.1,0.1,0.3,0.2,0.4
			c0.1,0.1,0.1,0.2,0.2,0.4c0.2,0.3,0.4,0.7,0.6,1.1c4.1,6.8,9.7,12.1,18.3,12.7c0.6,0,1.2,0,1.7,0c0.2,0,0.4,0,0.6-0.1
			c0.2,0,0.4-0.1,0.6-0.1c0.2,0,0.4-0.1,0.6-0.1c0.1,0,0.3-0.1,0.4-0.2c0.1,0,0.2-0.1,0.2-0.1c0.1-0.1,0.3-0.1,0.4-0.2
			c0.1,0,0.1-0.1,0.2-0.1c0.3-0.1,0.5-0.3,0.8-0.5c0.1-0.1,0.3-0.2,0.4-0.3c0.1-0.1,0.2-0.2,0.3-0.3c0.1-0.1,0.2-0.2,0.3-0.3
			c2.6-2.8,5.1-5.6,7.6-8.5c0.8-0.9,1.7-1.9,2.5-2.8h0v0c-0.2-0.1-0.4-0.2-0.6-0.3c-0.8-0.4-1.7-0.8-2.5-1.2
			c-0.3-0.1-0.5-0.3-0.8-0.5c-1-0.7-2-1.5-2.7-2.7c-1.6-2.6-4.5-2.5-7.3-2.7c1.3-0.5,2.5-1.1,3.9-1.6c3.3,1.5,6.9,3.3,10.7,4.8
			c0.2,0.1,0.5,0.2,0.7,0.3c0.2,0.1,0.3,0.1,0.5,0.2c0.2,0.1,0.4,0.1,0.6,0.2c0.4,0.1,0.8,0.2,1.1,0.3c0.2,0,0.3,0.1,0.5,0.1
			c0.2,0,0.3,0.1,0.5,0.1c0.2,0,0.3,0.1,0.5,0.1c0.3,0,0.7,0.1,1,0.1c0.7,0,1.4,0,2.2,0c0.2,0,0.3,0,0.5,0c0.4,0,0.8-0.1,1.1-0.2
			c0.1,0,0.2,0,0.4-0.1c0.9-0.2,1.8-0.4,2.8-0.8c5.1-2,10.1-1.4,15.3-0.6c1.4,0.2,2.7,0.4,4.1,0.5c0.9,0.1,1.8,0.2,2.8,0.2
			c0.5,0,0.9,0.1,1.4,0.1c0.9,0.1,1.8,0.1,2.8,0.2h0.1c0.1,0,0.1,0,0.2,0c0.1,0,0.1,0,0.2-0.1c0.1,0,0.1-0.1,0.2-0.1
			c0,0,0.1-0.1,0.1-0.1c0.1-0.1,0.2-0.2,0.3-0.2c0.1-0.1,0.3-0.2,0.5-0.4c0.1-0.1,0.2-0.2,0.3-0.3c0,0,0,0,0,0
			c1.6,1,3.4,1.8,4.9-0.1c1.5-1.7,1.5-3.7,0.2-5.6c-0.1-0.2-0.3-0.4-0.5-0.6c-0.1-0.2-0.3-0.3-0.4-0.5c-0.3-0.3-0.5-0.6-0.8-0.9
			c-0.2-0.2-0.5-0.5-0.7-0.7c0,0-0.1-0.1-0.2-0.1c-0.2-0.1-0.3-0.3-0.5-0.4c-0.2-0.1-0.4-0.3-0.6-0.4c-0.2-0.1-0.4-0.2-0.6-0.4l0,0
			c-0.2-0.1-0.3-0.2-0.5-0.3c-0.2-0.1-0.3-0.2-0.5-0.2c-0.1,0-0.1-0.1-0.2-0.1c-0.2-0.1-0.3-0.2-0.5-0.2c-0.1,0-0.2-0.1-0.2-0.1
			c-0.1,0-0.2-0.1-0.2-0.1l-0.1,0l-0.1,0c-0.1,0-0.1,0-0.2-0.1c-0.3-0.1-0.5-0.2-0.8-0.3c-0.2-0.1-0.5-0.1-0.7-0.2
			c-0.2-0.1-0.5-0.1-0.8-0.2c-0.3-0.1-0.5-0.1-0.8-0.2c-0.3-0.1-0.6-0.1-1-0.2c-0.5-0.1-1-0.2-1.5-0.2c-0.5-0.1-1-0.2-1.5-0.2
			c-1.1-0.1-2.2-0.3-3.2-0.6c-0.2,0-0.4-0.1-0.6-0.1c-0.3-0.1-0.6-0.2-0.9-0.2c-0.1,0-0.2-0.1-0.3-0.1c-0.3-0.1-0.6-0.2-0.9-0.3
			c-0.2-0.1-0.4-0.2-0.6-0.2c-0.2-0.1-0.5-0.2-0.7-0.3c0,0-0.1,0-0.1-0.1c-0.2-0.1-0.3-0.2-0.5-0.2c-0.2-0.1-0.4-0.2-0.6-0.3
			c-0.5-0.3-1-0.6-1.5-0.9c-0.2-0.2-0.5-0.3-0.7-0.5c-0.1-0.1-0.3-0.2-0.4-0.3c-0.1,0-0.1-0.1-0.1-0.1c0,0,0,0,0,0
			c-0.2-0.1-0.4-0.3-0.5-0.5c-0.2-0.1-0.3-0.3-0.5-0.5c-0.2-0.2-0.3-0.3-0.5-0.5v0c-0.1-0.1-0.3-0.3-0.4-0.4
			c-0.8-0.7-1.6-1.4-2.3-2.2c-0.1-0.1-0.2-0.2-0.3-0.4c0,0,0,0,0,0c-0.1-0.2-0.3-0.4-0.4-0.6c2.2,1.3,4.4,2.7,7,4.3
			c0.9-5.2,1.8-10.2,2.7-15.1c0.6,1,1.3,2.3,2.2,3.7c3.3-2.1,6.7-4.2,10.3-6.5c-1.1-1.2-1.9-2.1-2.6-2.8c2.8,0,5.8,0.4,8.7-0.1
			c2.7-0.5,5.8-1.2,7.5-4.2c3.9,1.1,7.5-0.8,11-2.5c0.2-0.1,0.3-0.1,0.5-0.2c0.2-0.1,0.3-0.2,0.5-0.2c0.3-0.1,0.6-0.2,0.9-0.3
			c4.7-0.3,8.6-2.3,12.1-5.3c0.2-0.2,0.5-0.4,0.7-0.6c0.2-0.2,0.5-0.5,0.6-0.7c0.4-0.5,0.7-1,0.8-1.6
			C458.4,316.1,458.2,314.5,457.6,313.3z M379.2,376C379.2,376,379.2,376,379.2,376c0.2,0.2,0.5,0.4,0.7,0.5c0,0,0,0,0.1,0
			C379.7,376.3,379.5,376.1,379.2,376z M436.6,341.7c-1-1-1.9-2-2.9-3c-0.2-0.2-0.5-0.5-0.7-0.8c-0.7-0.8-1.5-1.8-2.2-2.3
			c-0.2-0.1-0.3-0.2-0.4-0.3c-0.1-0.1-0.3-0.1-0.4-0.1c0,0-0.1,0-0.1,0c-2.5,0.5-5.1,1.9-7.2,3.6c-2.7,2.2-2.1,5.1,1.3,8.2
			c1.3-1,2.5-2,4-3c-2.1,3.5-4.1,6.7-6.2,9.9c-0.2,0.3-1,0.3-1.6,0.4c-1.4,0.4-2.8,0.8-4.1,1.2c0,0.2,0.1,0.5,0.2,0.7
			c0.9,0.4,1.9,0.9,2.8,1.3c0.3,0.1,0.6,0.3,0.9,0.4c0.1,0,0.1,0.1,0.2,0.1c0.7,0.3,1.3,0.7,2,1c0.2,0.1,0.3,0.2,0.5,0.2
			c0,0,0,0,0,0c1.2,0.5,2.3,1.1,3.5,1.7c0.5,0.2,1,0.5,1.5,0.7c0.6-0.4,1.1-0.8,1.7-1.2c0.2-0.2,0.4-0.4,0.6-0.5
			c0.1-0.1,0.2-0.2,0.4-0.3c0.2-0.2,0.5-0.4,0.7-0.6c0.7-0.6,1.3-1.3,1.9-2c0.2-0.2,0.4-0.5,0.5-0.7c0.2-0.2,0.3-0.5,0.5-0.7
			c0.2-0.2,0.3-0.4,0.5-0.7c1-1.5,1.9-3.1,2.7-4.7c0.1-0.3,0.3-0.6,0.4-0.9c0.1-0.3,0.3-0.6,0.4-0.9
			C439,346,438.6,343.7,436.6,341.7z M421.1,337c-0.2,0-0.3,0-0.5,0c-0.1,0-0.3,0-0.4,0c-0.1,0-0.2,0-0.4,0c0,0,0,0,0,0l0,0
			c-0.1,0-0.3,0-0.4,0.1c-0.1,0-0.2,0.1-0.3,0.1c-0.4,0.3-0.8,0.5-1.3,0.8c-0.9,0.5-1.7,1.1-2.6,1.6c-0.8,0.5-1.7,1.1-2.5,1.7
			c-0.3,0.2-0.6,0.4-0.9,0.6c-0.2,0.2-0.5,0.4-0.8,0.5c-0.3,0.2-0.5,0.4-0.8,0.6c-0.4,0.3-0.8,0.6-1.2,0.9c-0.3,0.2-0.5,0.5-0.8,0.8
			c-0.1,0.1-0.2,0.3-0.3,0.5c-0.1,0.1-0.1,0.2-0.2,0.4c-0.3,0.6-0.6,1.3-0.9,2c0,0.1,0,0.1-0.1,0.2c-0.1,0.2-0.2,0.3-0.2,0.5
			c0.3,0.2,0.6,0.4,0.9,0.6c1-0.1,1.9-0.2,2.7-0.4c0.2-0.1,0.4-0.1,0.7-0.2c0.2-0.1,0.4-0.1,0.6-0.2c0.2-0.1,0.4-0.1,0.7-0.2
			c0.2-0.1,0.4-0.2,0.6-0.2c0.2-0.1,0.3-0.1,0.5-0.2c0.2-0.1,0.4-0.2,0.6-0.3c0.4-0.2,0.8-0.5,1.2-0.7c0.2-0.1,0.4-0.3,0.6-0.4
			c0.2-0.1,0.4-0.3,0.6-0.5c0.1-0.1,0.1-0.1,0.2-0.2c0,0,0.1-0.1,0.1-0.1c0.2-0.2,0.4-0.3,0.5-0.5c0.1,0,0.1-0.1,0.1-0.1
			c0.2-0.2,0.4-0.5,0.6-0.7c0.2-0.2,0.3-0.4,0.5-0.6v0c0-0.1,0.1-0.1,0.1-0.2c0.1-0.1,0.2-0.3,0.3-0.4c0.2-0.2,0.3-0.5,0.5-0.8
			c0.1-0.1,0.2-0.3,0.2-0.4c0.2-0.3,0.3-0.6,0.5-0.9c0.4-0.7,0.7-1.5,1-2.3c0.2-0.4,0.3-0.9,0.5-1.3C421.4,337,421.3,337,421.1,337z
			 M420.9,349.6c-0.1-0.1-0.3-0.2-0.5-0.3c-0.1-0.1-0.1-0.1-0.2-0.2c-0.2-0.2-0.5-0.4-0.7-0.5c-0.2-0.1-0.4-0.3-0.6-0.4
			c0,0-0.1-0.1-0.1-0.1c-0.1-0.1-0.2-0.1-0.4-0.2c-0.1-0.1-0.2-0.1-0.3-0.2c-0.1,0-0.2-0.1-0.4-0.1c-0.1,0-0.2-0.1-0.4-0.1
			c-0.1,0-0.2,0-0.2,0c-1.2-0.1-2.5,0.9-4.2,1.6c1.3,1.1,2.3,1.9,3.2,2.7c0.1,0.1,0.1,0.1,0.2,0.2c0,0,0.1,0.1,0.1,0.1
			c0,0,0.1,0.1,0.1,0.1c0,0,0.1,0.1,0.2,0.1c0.1,0,0.1,0.1,0.2,0.1c0.2,0.1,0.4,0.1,0.6,0.2s0.4,0,0.5,0c0.1,0,0.2,0,0.3-0.1
			c0.1,0,0.1,0,0.2-0.1c0.1,0,0.2-0.1,0.3-0.1c0.1-0.1,0.2-0.1,0.3-0.2c0,0,0,0,0,0c0,0,0,0,0,0c0,0,0.1,0,0.1-0.1
			c0.2-0.1,0.3-0.2,0.5-0.3c0.1-0.1,0.3-0.2,0.4-0.3c0.2-0.1,0.3-0.4,0.5-0.7c0-0.1,0.1-0.2,0.2-0.4c0,0,0,0,0,0
			c0-0.1,0.1-0.2,0.1-0.3C420.9,349.7,420.9,349.6,420.9,349.6z M267.5,249.9c0-0.1,0-0.2,0-0.3c0-0.2,0-0.3,0-0.4
			c0-0.1,0-0.2-0.1-0.4c0-0.1,0-0.1,0-0.2c-0.1-0.4-0.2-0.8-0.3-1.2c0-0.1,0-0.1-0.1-0.2c-0.2-0.5-0.4-1.1-0.7-1.6
			c0-0.1-0.1-0.2-0.2-0.3c-0.1-0.2-0.2-0.3-0.3-0.5c-0.1-0.2-0.2-0.3-0.4-0.5c-0.1-0.1-0.2-0.3-0.4-0.4c-0.1-0.2-0.3-0.3-0.4-0.4
			c-0.7-0.7-1.5-1.3-2.4-1.9c0,5.4,1.1,10.5-1.7,15c-0.6,1-1.3,2.1-1.9,3.1c-0.9,1.6-1.9,3.1-2.8,4.6c-0.4,0.6-0.8,1.3-1.2,1.9
			c-0.4,0.6-0.8,1.2-1.1,1.9c0,0.1-0.1,0.1-0.1,0.2c-0.1,0.1-0.2,0.3-0.2,0.4h0c0.1-0.1,0.3-0.1,0.4-0.2c0.1-0.1,0.3-0.1,0.4-0.2
			c0.2-0.1,0.4-0.2,0.6-0.3c0.2-0.1,0.4-0.2,0.7-0.4c0.2-0.1,0.3-0.2,0.5-0.3c0.2-0.2,0.5-0.3,0.7-0.5c0.3-0.2,0.5-0.4,0.8-0.6
			c0.3-0.2,0.6-0.4,0.9-0.7c0.4-0.3,0.8-0.6,1.2-1c0.2-0.2,0.4-0.4,0.6-0.6c0.2-0.2,0.4-0.4,0.6-0.6c0.2-0.2,0.5-0.5,0.7-0.7
			s0.5-0.5,0.7-0.7c0.5-0.5,0.9-1,1.3-1.5c0.2-0.3,0.5-0.6,0.7-0.9c0.2-0.2,0.3-0.5,0.5-0.7c0.1-0.2,0.3-0.4,0.4-0.6
			c0.1-0.2,0.3-0.4,0.4-0.6c0.1-0.2,0.3-0.4,0.4-0.6c0.1-0.2,0.2-0.3,0.3-0.5c0.4-0.8,0.8-1.5,1-2.2c0.1-0.2,0.2-0.5,0.2-0.7
			c0-0.2,0.1-0.3,0.1-0.5c0.1-0.2,0.1-0.4,0.1-0.6c0-0.1,0-0.2,0-0.3c0-0.3,0.1-0.5,0.1-0.8c0-0.3,0-0.5,0-0.8
			C267.5,250.4,267.5,250.1,267.5,249.9z M185,217.7c-0.8,0.3-1.7,0.5-2.5,0.8c1.4,1.2,2.7,2.4,3.9,3.5c0.6,0.6,1.2,1.1,1.8,1.6
			c0.6,0.5,1.1,1,1.7,1.5c0.6-3.2,1.3-6.5,2-9.7C189.8,216.1,187.5,216.9,185,217.7z M196.9,237.3c-0.1-0.1-0.1-0.2-0.2-0.3
			c-0.1-0.2-0.2-0.4-0.4-0.6c-0.1-0.1-0.1-0.2-0.2-0.2c-0.1-0.1-0.2-0.3-0.3-0.4l-0.3-0.3c-1.9-1.8-3.9-3.6-5.8-5.4
			c-2-1.8-3.9-3.6-5.9-5.4c-2-1.8-3.9-3.6-5.9-5.4c-2-1.8-4-3.6-5.9-5.3c-0.3-0.2-0.5-0.4-0.8-0.7c-0.2-0.2-0.5-0.4-0.7-0.5
			c-0.1-0.1-0.3-0.2-0.4-0.3c0,0,0,0-0.1,0c-0.1-0.1-0.3-0.2-0.4-0.3c-0.4-0.2-0.8-0.5-1.3-0.7c-0.3-0.2-0.6-0.3-0.9-0.4
			c-0.4-0.2-0.8-0.3-1.1-0.5c-0.2-0.1-0.4-0.1-0.7-0.2c-0.2-0.1-0.3-0.1-0.5-0.2c-0.5-0.2-1-0.3-1.5-0.4c-0.2,0-0.4-0.1-0.5-0.1
			c-0.2-0.1-0.4-0.1-0.6-0.1c-0.2,0-0.4-0.1-0.6-0.1c-0.4-0.1-0.9-0.1-1.4-0.2c-0.2,0-0.5,0-0.7-0.1c-0.2,0-0.5,0-0.7-0.1
			c-0.7-0.1-1.5-0.1-2.2-0.1v0h0c1.6,1.4,3.2,2.7,4.8,4.1c1.6,1.4,3.2,2.7,4.8,4s3.2,2.6,4.8,3.9c1.3,1,2.6,2,4,3
			c0.6,0.5,1.2,0.9,1.8,1.3c0.6,0.4,1.2,0.9,1.8,1.3c0.1,0.1,0.3,0.2,0.4,0.3c0.6,0.5,1.3,0.9,1.9,1.3c0.5,0.4,1.1,0.7,1.6,1.1
			c0.6,0.4,1.1,0.8,1.7,1.1c0.7,0.5,1.5,0.9,2.2,1.4c0.8,0.5,1.5,0.9,2.3,1.4c0.6,0.4,1.3,0.8,1.9,1.1c0.3,0.2,0.7,0.4,1,0.6
			c0.7,0.4,1.5,0.8,2.2,1.2c0.1,0.1,0.3,0.2,0.4,0.2c0.9,0.5,1.7,0.9,2.6,1.3C197.2,237.7,197.1,237.5,196.9,237.3z M302.4,148.9
			c0.4,0.4,0.8,0.9,1.2,1.4c2.2-5,1.1-9.3-3.7-14c-0.2-0.2-0.3-0.3-0.5-0.5s-0.3-0.3-0.5-0.5c-0.4-0.3-0.7-0.7-1.1-1
			c-0.2-0.2-0.4-0.3-0.6-0.5c-0.6-0.5-1.3-1-2-1.5c-0.2-0.2-0.5-0.3-0.7-0.5c-0.7-0.5-1.5-1-2.3-1.6v0c0.1,0.5,0.3,0.9,0.4,1.3
			c0.1,0.4,0.2,0.7,0.4,1.1c0.3,0.9,0.5,1.6,0.7,2.5c0.3,1.5,0.2,3.1,0.3,4.8c-6.1-5.6-11.9-11-17.8-16.4c-0.4,0.3-0.7,0.5-1.1,0.8
			c0.8,1.2,1.6,2.4,2.4,3.6c0.8,1.2,1.6,2.4,2.4,3.7c1.6,2.5,3.2,5,4.9,7.6c-1-0.1-1.8-0.1-2.6-0.2c-11.2-2.3-21.1-7-28.5-16.2
			c-0.6-0.7-1.7-1.3-2.6-1.4c-2.8-0.3-5.7-0.4-8.9-0.7c0.1,5.6-0.7,10.6-3.7,14.9c-0.7,1-1.5,2.1-2.2,3.1c-1.1,1.5-2.2,3.1-3.4,4.6
			c-1.2,1.6-2.3,3.2-3.5,4.8c-0.2-0.3-0.3-0.7-0.4-0.9c-0.1-0.2-0.1-0.4-0.2-0.5c-0.1-0.1-0.1-0.2-0.1-0.3c0-0.1-0.1-0.2-0.1-0.3
			c-1.5,0.9-2.8,1.8-3.8,2.9c-0.1,0.1-0.2,0.2-0.2,0.2c-0.4,0.4-0.8,0.9-1.1,1.4c-0.2,0.3-0.3,0.5-0.5,0.8c-2.9,4.9-2.3,11.1-2.2,17
			c-4.7,0.2-6.3-0.7-7.8-4.8c-1.2-3.2-2.4-6.3-4.9-8.6c-0.4-0.4-0.8-0.7-1.2-1c-0.2-0.2-0.4-0.3-0.7-0.5c-4.2-2.7-9-2.1-12.1,1.2
			c-0.2,0.2-0.3,0.3-0.5,0.5c-0.2,0.3-0.4,0.5-0.6,0.8c-0.2,0.3-0.4,0.6-0.6,0.9c-0.2,0.3-0.3,0.6-0.5,0.9c-1.1,2.3-1.6,4.8-1.5,7.3
			c0,0.6,0.1,1.2,0.2,1.9c0,0,0,0.1,0,0.1c1,6,3.2,11.2,7.2,15.4c0.7,0.7,1.4,1.4,2.1,2c0.8,0.6,1.6,1.2,2.4,1.8
			c3.7,2.4,7.7,4,12.6,1c1.1,2.5,2.1,5,3.2,7.6c-0.5,0.1-0.7,0.2-0.8,0.2c-0.4-0.6-0.8-1.1-1.3-1.5c-0.2-0.2-0.4-0.3-0.5-0.4
			c-0.1-0.1-0.2-0.1-0.3-0.2c-0.2-0.1-0.4-0.2-0.6-0.3c0,0,0,0,0,0c-0.2-0.1-0.3-0.1-0.5-0.2c-0.2-0.1-0.5-0.1-0.7-0.2
			c-1-0.2-2.1,0-3.4,0.4c-0.2,0.1-0.4,0.1-0.6,0.2c0,0,0,0,0,0c-0.8,0.1-1.7,0-2.3-0.1c-0.3-0.1-0.5-0.1-0.7-0.1c0,0,0,0,0,0
			c-0.5,0.8-0.9,1.6-1.3,2.4c-0.9,1.5-1.7,3-2.5,4.5c-0.4,0.7-0.8,1.5-1.2,2.2c-0.5,0.9-0.6,2-1.1,2.9c-2,4.3-3.8,8.8-6.3,12.7
			c-3,4.7-2,8.6,0.9,12.6c2.1,2.8,4.4,5.6,6.7,8.3c2.3,2.7,4.8,5.3,7.3,7.8c0.8,0.8,1.7,1.6,2.6,2.4c0,0,0,0,0,0
			c0.9,0.8,1.8,1.6,2.7,2.4c5.9,5.1,11.5,10.6,17.3,15.8c2.4,2.2,5.1,3.9,8.5,3.5c3-0.3,6-2.3,8.5-5.2c0.3-0.4,0.7-0.8,1-1.3
			c3.5-4.6,5.4-10.8,3.7-15.1c-0.2-0.4-0.4-0.7-0.8-1.4c-1.9,2.8-3.7,5.4-5.5,7.9c-0.2-0.1-0.4-0.2-0.6-0.3c1-2.4,1.8-4.9,3.1-7.2
			c1-1.7,1.4-3.1,1.1-4.6c0-0.2-0.1-0.3-0.1-0.5c0-0.2-0.1-0.3-0.2-0.5v0c-0.1-0.3-0.3-0.7-0.5-1c-0.1-0.2-0.2-0.4-0.3-0.5
			c-0.1-0.1-0.1-0.2-0.2-0.3c0-0.1-0.1-0.1-0.1-0.1c0-0.1-0.1-0.1-0.1-0.2c-1-1.4-2.1-2.8-3.1-4.1c-7.3-9.7-14.3-19.7-21.4-29.5
			c-0.8-1.2-1.5-2.5-2.1-3.8c9.4,8,19.7,14.4,30.2,20.5c1.4,0.8,2.9,1.6,4.4,2.2c0.5,0.2,1.1,0.4,1.6,0.6c0.3,0.1,0.7,0.2,1,0.3
			c0.7,0.2,1.4,0.4,2.1,0.5c0.4,0.1,0.7,0.2,1.1,0.2c0.2,0,0.4,0.1,0.6,0.1c2.2,0.4,4.5,0.6,6.9,0.5c4.8-0.1,8.6-2.1,11-6.2
			c4.4-7.4,8.6-14.9,12.6-22.5c3.9-7.4,6.2-15.3,5.9-23.8c-0.2-7,0.9-13.6,4.3-19.6c-4.5-5-9.7-5.3-15.2-3.7
			c-1.5-1.7-0.7-2.8,0.5-3.9c0.4-0.3,0.8-0.6,1.2-0.9c0.2-0.1,0.3-0.2,0.5-0.3c0.2-0.1,0.3-0.2,0.5-0.2c0,0,0.1,0,0.1,0
			c0.1-0.1,0.3-0.1,0.4-0.2c0,0,0.1,0,0.1,0c0.4-0.1,0.7-0.2,1.1-0.3c0.2,0,0.3-0.1,0.5-0.1c0.1,0,0.1,0,0.2,0c0.2,0,0.3,0,0.5,0
			c1.8-0.1,3.7,0.3,5.5,1.1c0.5,0.2,0.9,0.5,1.3,0.8c0.4,0.3,0.8,0.6,1.2,1v0C302.1,148.7,302.3,148.8,302.4,148.9z"/>
		<path d="M323.7,116.4c1.9-0.4,3.7-0.8,6-1.3C328.1,118.2,325.5,118.8,323.7,116.4z"/>
		<path class="st7" d="M336.2,342.4c-1.3-2.5-2.9-5.1-4.9-7c-3-2.8-5.1-5.7-5.8-9.7c-0.3-1.9-1.8-3.6-2.2-5.5
			c-0.3-1.3-0.6-2.6-0.8-3.9c-0.8-3.9-1.5-7.9-2.2-11.8c-1.8-10.5-5.3-20.4-9.9-29.9c-0.3-0.6-0.8-1.1-1.4-1.8
			c-0.3-0.3-0.6-0.6-0.9-0.9c-0.1-0.1-0.2-0.2-0.3-0.3c0-0.1-0.1-0.2-0.1-0.3c-0.1-0.2-0.1-0.5-0.2-0.7c-0.1-0.3-0.2-0.6-0.3-0.9
			c-0.2-0.5-0.4-0.9-0.7-1.4c-4.4-6.6-10.4-11.3-17-15.2c-0.5,0.8-0.9,1.6-1.3,2.4c-0.4,0.8-0.8,1.6-1.3,2.4
			c-0.8,1.6-1.7,3.1-2.7,4.5c-4,5.8-8.9,10.7-15,14.3c-0.1,0.1-0.2,0.1-0.3,0.2c-0.2,0.1-0.4,0.2-0.5,0.4c-0.1,0.1-0.2,0.1-0.2,0.2
			c-0.9,0.8-1.2,1.8-1.2,3.2c0.1,15.6,0,31.3,0,47c0,2.9-0.5,5.5-2.7,7.7c-0.8,0.8-0.8,2.6-0.9,3.9c-0.1,1.1,0,2.3-0.2,3.4
			c0,0.1,0,0.2-0.1,0.3c0,0.1,0,0.2-0.1,0.3c0,0.1-0.1,0.2-0.2,0.3c-0.1,0.1-0.1,0.2-0.2,0.3c-0.1,0.1-0.2,0.2-0.3,0.3
			c-0.2,0.2-0.4,0.4-0.6,0.5c-0.3,0.2-0.7,0.4-1.1,0.5c-0.5,0.1-1.5-1.2-1.9-2.1c-0.3-0.8-0.2-1.9-0.1-2.9c0.1-2.3,0.3-4.4-1.3-6.4
			c-0.8-1.1-0.6-3-0.6-4.6c0.1-14.8,0.3-29.7,0.5-44.6c0-0.2-0.1-0.5-0.2-0.8c-4.2,1-8.3,2-12.5,3.1c-0.1-0.2-0.1-0.3-0.2-0.5
			c2.5-1.2,5-2.5,7.4-3.8c0.7-0.3,1.3-0.7,2-1.1c0.5-0.3,1-0.6,1.4-0.9c0.1-0.1,0.3-0.2,0.4-0.3c0.1-0.1,0.2-0.1,0.3-0.2
			c0.6-0.6,1.1-1.4,1.2-2.2c0.1-0.6,0.3-1.2,0.7-1.7c0.2-0.4,0.5-0.8,0.9-1.2c1.1-1.2,2.5-2,3.9-1.9c1.2,0.1,2.3,0.8,3.9,1.5
			c1.8-1.3,3.6-2.7,5.3-4.1c1.7-1.4,3.4-2.9,5-4.6c3.1-3.3,5.9-7,7.7-11.5c2.5-6.1,2.1-11.9-2.5-17c-1.4-1.6-2.9-3.1-4.4-4.6
			c-0.2-0.2-0.5-0.5-0.8-0.7c-0.2-0.2-0.5-0.5-0.8-0.7c-0.1-0.1-0.2-0.2-0.4-0.2c-0.4-0.2-1-0.2-1.5-0.3c-0.1,0.6-0.3,1.3-0.2,1.8
			c0.1,0.5,0.3,1.1,0.4,1.6c0.2,0.8,0.5,1.6,0.7,2.4c0.2,0.8,0.4,1.6,0.6,2.4c0.1,0.7,0.4,1.5,0.5,2.2c0.1,0.5,0.2,1.1,0.1,1.6
			c0,0.3,0,0.5-0.1,0.8c-0.1,0.2-0.1,0.4-0.2,0.6c-0.1,0.1-0.1,0.2-0.2,0.3c0,0.1-0.1,0.1-0.2,0.2c-0.3,0.3-0.6,0.5-1.1,0.7
			c-0.4-1.9-0.8-3.8-1.2-5.7c-0.3-1.5-0.6-2.9-1-4.4c-0.1-0.5-0.2-1-0.3-1.5c-0.2-1.1-0.7-1.8-1.4-2c-0.1-0.1-0.3-0.1-0.4-0.1
			c-0.3-0.1-0.7-0.1-1.1,0c-0.7,0.1-1.5,0-2.2-0.1c-0.5,0-1,0-1.4,0.1c-0.1,0-0.2,0.1-0.3,0.1c-0.2,0.1-0.3,0.2-0.5,0.3
			c-0.5,0.4-1,0.9-1.3,1.4c-0.2,0.4,0.1,1.5,0.5,1.9c0.4,0.4,0.8,0.8,1.2,1.2c0.2,0.3,0.5,0.6,0.7,0.8c0.6,0.8,1.2,1.7,1.6,2.7
			c0.1,0.3,0.3,0.6,0.4,0.9c0.4,1.1,0.8,2.2,1,3.4c0.4,2,0.7,4.1,0.9,6.1c0.2,1.8-0.8,4-1.8,5.6c-3.8,6.1-8.9,11.1-15.1,14.8
			c-3.8,2.2-7.6,4.4-11.2,6.8c-0.7,0.4-0.9,1.6-1.8,3.4c-3.9-4.2-7.5-8.2-11.3-12.1c-12.6-12.7-26.6-23.9-40.9-34.5
			c-4.1-3.1-8.3-6.1-12.5-9.1c-2.8-2-5.6-4-8.5-6c-1.4-1-2.8-2-4.2-3c-2.8-2-5.6-4-8.4-6c-0.1-0.1-0.1-0.1-0.2-0.2
			c-0.1-0.1-0.2-0.1-0.2-0.2c-0.1-0.1-0.3-0.2-0.4-0.3c-0.3-0.2-0.6-0.5-0.9-0.8l-0.5-0.5c-0.7-0.7-1.4-1.5-2-2.3
			c-2.5-3.5-1.6-7.2,2.5-8.4c3.6-1.2,7.6-2.2,11.3-2c8.3,0.4,16.6,1.7,24.9,2.6c2.4,0.3,4.8,0.6,7.6,1c0.1-1.1,0.1-2,0.2-3
			c0-0.7,0.1-1.4,0.2-2.1c0-0.3,0-0.5,0.1-0.8c-1.1-0.2-2.1-0.4-3.2-0.6c-0.5-0.1-1-0.2-1.6-0.3c-1-0.2-2.1-0.4-3.1-0.6
			c-1.5-0.3-3.1-0.6-4.6-0.8c-7.9-1-15.9-2.1-23.8-2.5c-4.7-0.2-9.5,0.7-14.1,1.7c-4.7,1-8.6,3.2-11.8,6.4c-0.3,0.3-0.6,0.6-0.9,1
			c-1.5,1.7-2.9,3.6-4,5.6c-3.3,5.9-7.6,10.9-12.7,15.3c-6.6,5.6-10.9,12.6-11.1,21.6v0.8c0,1.1,0.1,2.3,0.3,3.4
			c0.7,3.7,1.6,4.2,5.3,3.4c1.8-0.4,3.6-0.6,5.4-0.7c5.7-0.2,11.3,0.9,16.7,2.6c13.6,4.1,27.1,8.7,40.5,13.5
			c11.1,4,21.9,8.6,32.9,12.9c0.6,0.2,1.3,0.4,2.3,0.7c-0.2-1-0.5-1.9-0.9-2.7c-0.5-1-1.1-1.8-1.9-2.5c-0.6-0.6-1.3-1.2-2.1-1.7
			c-6.1-4-12.1-8.1-18.3-12c-7.1-4.4-14.3-8.7-21.7-12.5c-1.7-0.9-3.3-1.7-5-2.5c-0.8-0.4-1.7-0.8-2.5-1.2c-1.7-0.8-3.4-1.5-5.1-2.2
			c0,0,0,0,0,0c-1.7-0.7-3.4-1.4-5.2-2.1c-1-0.4-1.9-0.7-2.8-1c-2.9-1-5.8-1.8-8.7-2.5c-3.9-0.8-8-1.1-11.9-1.6
			c0.5-0.1,1.3-0.6,2.1-0.6c5.3,0.6,10.7,0.8,15.8,2.2c9.5,2.6,18.4,6.9,27,11.7c2.9,1.6,5.7,3.3,8.5,4.9c2.7,1.6,5.3,3.2,8,4.9
			c8,4.9,15.9,9.9,23.8,14.8c1,0.6,2.4,0.7,3.6,0.5c2-0.4,4.2,0.7,5.7,2.2c0.3,0.3,0.6,0.6,0.8,1c0.5,0.7,0.8,1.4,1,2.2
			c0,0.2,0.1,0.4,0.1,0.6c0,0.4,0.2,0.9,0.6,1.4c0.4,0.6,1,1.1,1.5,1.4c4.8,2.4,9.7,4.6,14.4,7.3c-3.9-0.9-7.8-1.7-11.9-2.6
			c-1.3-0.3-2.7-0.6-4.1-0.9v44.2c0,0.2,0,0.4,0,0.5c0,0.5,0,1.1-0.1,1.6c0,0.4-0.1,0.7-0.1,1.1c0,0.3-0.1,0.7-0.2,1
			c-0.4,1.3-1.1,2.6-2.4,3.6c-0.5,0.4-0.6,1.6-0.7,2.4c-0.1,1.8,0.1,3.7-0.3,5.5c-0.2,0.8-1.5,2-2.3,2c-0.5,0-1-0.5-1.5-1.1
			c-0.2-0.2-0.3-0.5-0.5-0.7c-0.1-0.1-0.1-0.2-0.2-0.3l0,0c-0.1-0.3-0.2-0.6-0.2-1c0-0.6,0-1.2,0-1.8c0-2.3,0.3-4.6-1.5-6.7
			c-0.8-0.9-0.7-2.7-0.7-4c0-6.4,0-12.9,0-19.3c0-5.8,0-11.6,0-17.3c0-2.8-0.4-5.6-0.3-8.4c0.1-1.5-0.2-2.5-0.9-3.3
			c-0.1-0.1-0.1-0.2-0.2-0.2c-0.5-0.4-1.1-0.8-2-1.1c-8.5-3.1-16.9-6.5-25.4-9.6c-14.6-5.2-29.3-10.3-44.1-15.1
			c-3.2-1.1-6.6-1.7-10-2.2c-1.6-0.3-3.3-0.5-4.9-0.7c-9.3-1.3-16.7,2.5-23.2,8.9c-9.1,8.9-14.8,19.7-18.2,31.9
			c-3.2,11.4-5.6,22.9-7.3,34.6c2.6,2.5,5.2,4.9,7.8,7.3c6.7,6.2,13.5,12.3,20.4,18.3c1,0.8,1.9,1.6,2.8,2.4
			c8.9,7.6,17.9,15.1,27,22.3c2.3,1.9,4.7,3.7,7,5.5c0.4,0.3,0.8,0.7,1.2,1c0.5,0.4,1,0.8,1.5,1.1c1.2,0.9,2.4,1.8,3.6,2.7
			c0.1,0.1,0.3,0.2,0.4,0.3c2,1.5,4,3,5.9,4.4c2.1,1.6,4.2,3.1,6.3,4.7c0,0,0,0,0,0c1.2,0.9,2.5,1.8,3.7,2.7c-0.1,0-0.2,0-0.3,0
			c0.1,0,0.2,0,0.3,0c0.2,0,0.4-0.1,0.5-0.1c0.2-0.1,0.5-0.2,0.7-0.3c0.2-0.1,0.4-0.3,0.5-0.4c0.3-0.3,0.6-0.8,0.8-1.3
			c0.1-0.3,0.2-0.6,0.2-0.9v0c0.1-0.3,0.1-0.7,0.1-1c0-0.2,0-0.4,0-0.6V395c0-0.5,0-1,0-1.5c0-0.2,0-0.3,0-0.5c0-0.7-0.1-1.3-0.3-2
			c0-0.2-0.1-0.4-0.1-0.6c0-0.1-0.1-0.3-0.1-0.4c-0.3-1-0.6-2-1.2-2.8c-3.4-5.8-7.5-11.3-11.4-16.8c-9-12.6-17-25.7-22.8-40
			c-0.2-0.5-0.4-1.1-0.6-1.6c-0.2-0.4-0.3-0.8-0.5-1.3c0,0,0,0,0,0.1c7.3,16.1,18.9,29.2,29.8,43.5c0.3-11.5,0.3-22.7-1.6-33.7
			c-1.8-11-4.3-21.8-6.5-32.5c0.7,1.6,1.4,3.3,2.1,5c0.5,1.3,1.1,2.6,1.6,3.9c0.2,0.5,0.3,0.9,0.5,1.3c0.8,2.1,1.5,4.2,2.1,6.3
			c0.2,0.7,0.4,1.4,0.6,2.1c0.3,0.9,0.5,1.9,0.8,2.9c0.2,0.9,0.5,1.9,0.7,2.8c0.5,1.9,0.9,3.8,1.3,5.7c0.2,0.9,0.4,1.9,0.6,2.8
			c0.8,3.9,1.3,7.8,2.1,12.3c3.4-9.5,4.7-19,5.3-28.7c0.1-1.6,0.2-3.2,0.2-4.9c0.1-1.6,0.1-3.3,0.2-4.9c0,0.1,0.1,0.2,0.1,0.2
			c0.1,0.3,0.3,0.5,0.3,0.7c0,0.1,0.1,0.2,0.1,0.2c0,0.1,0,0.1,0,0.2c0.1,0.4,0.1,0.9,0.2,1.3c0.8,10.4,0.6,20.8-0.7,31
			c-0.2,1.5-0.4,3.1-0.7,4.6c0,0,0,0,0,0c-0.2,1.1-0.4,2.3-0.6,3.5c-0.2,1.2-0.4,2.3-0.7,3.5c-0.2,0.8-0.3,1.5-0.5,2.3
			c-0.3,1.5-0.7,3.1-1.1,4.6c-0.1,0.2-0.1,0.5-0.2,0.7c-0.1,0.2-0.1,0.5-0.2,0.7c-0.1,0.5-0.2,0.9-0.3,1.4
			c-0.7,3.5-0.8,6.9-0.7,10.4c0,0.9,0.5,1.8,0.9,2.6c0.2,0.3,0.3,0.5,0.5,0.8c0.3,0.5,0.6,1.1,0.9,1.6c0.5,0.8,0.9,1.6,1.3,2.5
			c0.7,1.4,1.4,2.8,1.8,4.2v0c0.5,1.8,0.8,3.6,0.7,5.5c-0.2,2.4-0.9,4.8-1.7,7.4c-0.2,0.7-0.4,1.4-0.6,2.2c1.7,1.2,3.5,2.5,5.2,3.7
			c0.5,0.3,0.9,0.7,1.4,1c5,3.5,10.1,6.9,15.2,10.3c2.1,1.4,4.2,2.8,6.4,4.2c15.2-1.9,29.3-7.4,42.5-16.1c1.5-1,3-2,4.4-3.1
			c1.2-0.9,2.4-1.8,3.5-2.7c1.1-0.9,2.3-1.8,3.3-2.7c0.7-0.6,1.4-1.2,2.1-1.7c0.9-0.7,1.8-1.4,2.7-2.1
			c-7.5,13.2-18.9,24.3-34.7,30.5c0.4-0.1,0.8-0.1,1.2-0.2c1.2-0.2,2.4-0.6,3.6-1c3.9-1.3,7.4-3.3,10.8-5.5c0.4-0.2,0.7-0.4,1-0.6
			c0.3-0.2,0.7-0.4,1-0.7c0.2,0.2,0.4,0.5,0.6,0.7c-2,1.8-3.9,3.7-5.9,5.5c-3.3,3.1-6.5,6.1-10,8.9c-1.7,1.4-3.4,2.7-5.2,4
			c1.1,0.7,2.2,1.4,3.4,2c1.2-0.7,2.5-1.4,3.7-2.1c3.7-2.3,7.2-4.7,10.5-7.4c4.2-3.3,8.1-6.9,11.8-10.6c5.2-5.3,10.1-11,14.6-16.9
			c7.5-9.8,13.7-20.3,19-31.2c5.2-10.6,9.6-21.7,13.6-32.9c2.1-5.9,3.6-11.8,4.8-17.9c0.4-2,0.7-4,1.1-6.1c0.1-0.7,0.2-1.4,0.3-2
			c0.3-2,0.5-4.1,0.8-6.1c0-0.1,0-0.2,0-0.2c0-0.2,0.1-0.5,0.1-0.7c0.3,0,0.5,0,0.8,0.1c-0.7,8.7-1.3,17.3-2,26.6
			c4-7.5,6-15.2,7.4-22.9c1.4-7.8,2.2-15.6,3.4-23.5c-0.4,6.9-0.5,13.9-1.1,20.8c-0.2,2-0.4,3.9-0.7,5.8c-0.3,1.9-0.6,3.8-1,5.7
			c-0.2,1.1-0.4,2.1-0.7,3.2c-0.1,0.5-0.2,1-0.4,1.6c-0.2,1-0.5,2.1-0.8,3.1c-0.6,2.1-1.2,4.1-1.9,6.2c-1.2,3.6-2.6,7.1-4.2,10.6
			c-1.2,2.6-2.5,5.2-4,7.8c-2.5,4.4-4.3,9.2-6.5,14c4.4-1.3,13.9-7.5,17.8-12.6c1.7-2.1,3.3-4.3,4.9-6.5c1-1.5,2.1-2.9,3.1-4.4
			c0.5-0.7,1-1.5,1.5-2.2c1-1.4,2-2.8,3-4.2c-0.5,1.1-1,2.1-1.6,3.3c-1.6,3.4-3.4,7.1-5.3,11c0.2-0.1,0.4-0.2,0.5-0.2
			c0.3-0.2,0.7-0.3,1-0.4c0.2-0.1,0.3-0.1,0.5-0.2c0.2-0.1,0.4-0.2,0.6-0.3c0.3-0.1,0.5-0.2,0.8-0.4l0.6-0.6
			c0.1,0.1,0.2,0.2,0.3,0.2c-0.3,0.1-0.6,0.3-0.9,0.4c-4.1,4.1-8.4,8-12.3,12.4c-3.1,3.5-6,7.2-8.4,11.1c-0.4,0.7-0.9,1.5-1.3,2.3
			c-0.3,0.5-0.5,1-0.8,1.6c-0.1,0.3-0.2,0.5-0.4,0.8c-0.2,0.5-0.5,1.1-0.7,1.6c-0.5,1.4-1,2.7-1.4,4.2c-0.1,0.3-0.2,0.6-0.2,0.9
			c-0.1,0.3-0.1,0.6-0.2,0.9c-0.1,0.3-0.1,0.6-0.2,0.9c-0.6,3.4-0.3,7-0.3,10.5c0,0.5,0.4,1.1,0.7,2c0.7-3.8,1.8-7.5,3.1-10.9
			c2.3-6.1,5.6-11.6,9.8-16.8c-2.5,7.4-5,14.7-4.4,22.6c0,0.1,0,0.2,0,0.3c0.1,0.9,0.2,1.8,0.3,2.7c0,0,0,0,0,0
			c0.2-0.7,0.3-1.4,0.5-2.1c0.2-0.9,0.4-1.7,0.6-2.6c1.8-8.2,4.2-16.3,9.4-23c3.8-4.9,7.9-9.5,12.9-13c0.9-0.6,1.9-1.2,2.9-1.8
			c1-0.6,2-1.1,3-1.5c0.5-0.2,1.1-0.4,1.6-0.6c0.5-0.2,1.1-0.4,1.6-0.5c1.6-0.5,3.3-0.8,5-1.1C336.7,345.7,337.4,344.8,336.2,342.4z
			 M92.5,269.2c0-0.2-0.1-0.4-0.1-0.6c3.7-0.3,7.4-0.6,11-1c0,0.2,0,0.4,0,0.7C99.8,268.6,96.1,268.9,92.5,269.2z M116.9,272
			c13.2,6.3,22.6,16.2,28.6,29.4C138,289.5,129.6,278.7,116.9,272z"/>
		<path class="st2" d="M313.8,345.3c-0.3,0.1-0.6,0.3-0.9,0.4c0.2-0.2,0.4-0.4,0.6-0.6C313.6,345.2,313.7,345.2,313.8,345.3z"/>
		<path class="st2" d="M288.9,147.7c0.4-0.3,0.8-0.6,1.2-0.9c0.2-0.1,0.3-0.2,0.5-0.3c0.2-0.1,0.3-0.2,0.5-0.2c0,0,0.1,0,0.1,0
			c0.1,0,0.2-0.1,0.3-0.1c0,0,0.1,0,0.1,0c0,0,0.1,0,0.1,0c0.4-0.1,0.7-0.2,1.1-0.3c0.2,0,0.3-0.1,0.5-0.1c0.1,0,0.1,0,0.2,0
			c0.2,0,0.3,0,0.5,0c1.8-0.1,3.7,0.3,5.5,1.1c0.5,0.2,0.9,0.5,1.3,0.8c0.4,0.3,0.8,0.6,1.2,1c0.1,0.1,0.3,0.3,0.4,0.4
			c0.4,0.4,0.8,0.9,1.2,1.4c2.2-5,1.1-9.3-3.7-14c-0.2-0.2-0.3-0.3-0.5-0.5s-0.3-0.3-0.5-0.5c-0.4-0.3-0.7-0.6-1.1-1
			c-0.2-0.2-0.4-0.3-0.6-0.5c-0.6-0.5-1.3-1-2-1.5c-0.2-0.2-0.5-0.3-0.7-0.5c-0.7-0.5-1.5-1-2.3-1.6c0.1,0.5,0.3,0.9,0.4,1.3
			c0.1,0.4,0.2,0.7,0.4,1.1c0.3,0.9,0.5,1.6,0.7,2.5c0.3,1.5,0.2,3.1,0.3,4.8c-6.1-5.6-11.9-11-17.8-16.4c-0.4,0.3-0.7,0.5-1.1,0.8
			h0c0.8,1.2,1.6,2.4,2.4,3.6c0.8,1.2,1.6,2.4,2.4,3.7c1.6,2.5,3.2,5,4.9,7.6c-1-0.1-1.8-0.1-2.6-0.2c-11.2-2.3-21.1-7-28.5-16.2
			c-0.6-0.7-1.7-1.3-2.6-1.4c-2.8-0.3-5.7-0.4-8.9-0.7c0.1,5.6-0.7,10.6-3.7,14.9c-0.7,1-1.5,2.1-2.2,3.1c-1.1,1.5-2.2,3.1-3.4,4.6
			c-1.2,1.6-2.3,3.2-3.5,4.8c-0.2-0.3-0.3-0.7-0.4-0.9c-0.1-0.2-0.1-0.4-0.2-0.5c-0.1-0.1-0.1-0.2-0.1-0.3c0-0.1-0.1-0.2-0.1-0.3
			c0,0,0,0,0,0c-1.5,0.9-2.8,1.8-3.8,2.9c-0.1,0.1-0.2,0.2-0.2,0.2c-0.4,0.4-0.8,0.9-1.1,1.4c-0.2,0.3-0.3,0.5-0.5,0.8
			c-2.9,4.9-2.3,11.1-2.2,17c-4.7,0.2-6.3-0.7-7.8-4.8c-1.2-3.2-2.4-6.3-4.9-8.6c-0.4-0.4-0.8-0.7-1.2-1c-0.2-0.2-0.4-0.3-0.7-0.5
			c-4.2-2.7-9-2.1-12.1,1.2c-0.2,0.2-0.3,0.3-0.5,0.5c-0.2,0.3-0.4,0.5-0.6,0.8c-0.2,0.3-0.4,0.6-0.6,0.9c-0.2,0.3-0.3,0.6-0.5,0.9
			c-1.1,2.3-1.6,4.8-1.5,7.3c0,0.6,0.1,1.2,0.2,1.9c0,0,0,0.1,0,0.1c1,6,3.2,11.2,7.2,15.4c0.7,0.7,1.4,1.4,2.1,2
			c0.8,0.6,1.6,1.2,2.4,1.8c3.7,2.4,7.7,4,12.6,1c1.1,2.5,2.1,5,3.2,7.6c-0.5,0.1-0.7,0.2-0.8,0.2c-0.4-0.6-0.8-1.1-1.3-1.5
			c-0.2-0.2-0.4-0.3-0.5-0.4c-0.1-0.1-0.2-0.1-0.3-0.2c-0.2-0.1-0.4-0.2-0.6-0.3c0,0,0,0,0,0c-0.2-0.1-0.3-0.1-0.5-0.2
			c-0.2-0.1-0.5-0.1-0.7-0.2c-1-0.2-2.1,0-3.4,0.5c-0.2,0.1-0.4,0.1-0.6,0.1c0,0,0,0,0,0c-0.8,0.1-1.7,0-2.3-0.1
			c-0.3-0.1-0.5-0.1-0.8-0.1c-0.5,0.8-0.9,1.6-1.3,2.4c-0.9,1.5-1.7,3-2.5,4.5c-0.4,0.7-0.8,1.5-1.2,2.2c-0.5,0.9-0.6,2-1.1,2.9
			c-2,4.3-3.8,8.8-6.3,12.7c-3,4.7-2,8.6,0.9,12.6c2.1,2.8,4.4,5.6,6.7,8.3c2.3,2.7,4.8,5.3,7.3,7.8c0.8,0.8,1.7,1.6,2.6,2.4
			c0,0,0,0,0,0c0.9,0.8,1.8,1.6,2.7,2.4c5.9,5.1,11.5,10.6,17.3,15.8c2.4,2.2,5.1,3.9,8.5,3.5c3-0.3,6-2.3,8.5-5.2
			c0.3-0.4,0.7-0.8,1-1.3c3.5-4.6,5.4-10.8,3.7-15.1c-0.2-0.4-0.4-0.7-0.8-1.4c-1.9,2.8-3.7,5.4-5.5,7.9c-0.2-0.1-0.4-0.2-0.6-0.3
			c1-2.4,1.8-4.9,3.1-7.2c1-1.7,1.4-3.1,1.1-4.6c0-0.2-0.1-0.3-0.1-0.5c0-0.2-0.1-0.3-0.2-0.5v0c-0.1-0.3-0.3-0.7-0.5-1
			c-0.1-0.2-0.2-0.4-0.3-0.5c-0.1-0.1-0.1-0.2-0.2-0.3c0-0.1-0.1-0.1-0.1-0.1c0-0.1-0.1-0.1-0.1-0.2c-1.1-1.4-2.1-2.8-3.1-4.1
			c-7.3-9.7-14.3-19.7-21.4-29.5c-0.8-1.2-1.5-2.5-2.1-3.8c9.4,8,19.7,14.4,30.2,20.5c1.4,0.8,2.9,1.6,4.4,2.2
			c0.5,0.2,1.1,0.4,1.6,0.6c0.3,0.1,0.7,0.2,1,0.3c0.7,0.2,1.4,0.4,2.1,0.5c0.4,0.1,0.7,0.2,1.1,0.2c0.2,0,0.4,0.1,0.6,0.1
			c2.2,0.4,4.5,0.6,6.9,0.5c4.8-0.1,8.6-2.1,11-6.2c4.4-7.4,8.6-14.9,12.6-22.5c3.9-7.4,6.2-15.3,5.9-23.8c-0.2-7,0.9-13.6,4.3-19.6
			c-4.5-5-9.7-5.3-15.2-3.7C286.9,149.9,287.8,148.8,288.9,147.7z M208.7,178.5c-1.5-1.1-2.9-2.3-4.2-3.6c-3.3-3.3-3.4-6.4-0.1-10.6
			c-1.7-1.2-3.2-3.1-4.9-3.2c-1.4-0.1-2.9,2-4.3,3c0-3.2,1.4-5.3,3.9-5.7c4.5-0.7,11.1,6.2,9.8,10.5c-1,3.2-0.6,5.6,1.5,8
			c0.3,0.4,0.2,1.2,0.2,1.8C209.9,178.7,209.1,178.8,208.7,178.5z M240.4,143.3c7.3-8.7,19.1-8.6,27.1-4.2c0.9,0.5,2.1,2.1,1.9,2.8
			c-0.3,1-1.6,2-2.7,2.5c-0.8,0.4-2.1,0.2-3-0.1c-7.9-2.8-15.8-3.6-23.8,0.3C240,144.1,240.1,143.6,240.4,143.3z M261,152.2
			c-4.2-3-8.6-2.1-13.7-0.2C252.2,148.4,257.4,148.6,261,152.2z M249.7,164.1c-3.8-1.4-2.6-4.8-2.8-7.6c-1.5,0.7-2.8,1.3-4.1,1.9
			c5.3-5.8,10.8-7.5,15.5-5.6c3.1,1.3,4.4,3.9,5.1,7c-2.2-1.9-3.4-5-7.3-4.7c1.1,3.1,1.7,5.9-1,8.4
			C253.4,165.1,251.6,164.8,249.7,164.1z M273.7,207.2h-6.2c0-0.2,0-0.3,0.1-0.5h6.1V207.2z M283.4,198.4c-6,2.6-12.2,3-18.3,0.7
			c-3.8-1.4-7.3-3.7-10.8-5.7c-0.4-0.2-0.8-1.3-0.7-1.7c0.2-0.5,1-0.8,1.7-1c0.2-0.1,0.6,0.8,0.9,1.1c0.7,0.7,1.3,1.8,2.2,2.1
			c4.3,1.7,8.6,3.7,13.1,4.5c3.1,0.6,6.4-0.6,9.7-0.9c0.8-0.1,1.6,0.1,2.4,0.1C283.4,197.8,283.4,198.1,283.4,198.4z M280.7,186.1
			c0.2-0.4,0.7-0.5,1-0.8c3.2-3.1,3.3-4.5,1.6-8.6c-1-2.3-1.9-4.8-2.5-7.2c-0.8-3.5-1.1-7.1,1.1-11c-0.1,2-0.4,3.7-0.3,5.3
			c0.1,1.7,0.5,3.5,1,5.1c1,3.2,2.3,6.2,3.5,9.4C287.8,182.6,285.6,185.9,280.7,186.1z M292,158.4c2.9,0.2,5.2,1.5,6.5,4.2
			c0.2,0.4-0.1,1-0.2,1.5c-1.9-1.3-3.5-2.5-5.1-3.6c-0.2,0.2-0.4,0.4-0.6,0.6c0.2,0.5,0.2,1,0.5,1.4c1.3,2.4,0.3,4.3-1.5,5.8
			c-1.8,1.5-3.8,0.7-5.2-0.7c-1.6-1.6-2.1-3.7-1-5.8C286.8,159.3,289.1,158.2,292,158.4z"/>
		<path class="st2" d="M380,376.5c-0.3-0.1-0.6-0.3-0.9-0.4c0,0,0-0.1,0.1-0.1C379.5,376.1,379.7,376.3,380,376.5z"/>
		<polygon class="st2" points="420.3,371.2 420.3,371.2 420.3,371.2 		"/>
		<path class="st7" d="M322.1,384.5c-3.9-16.2,3.6-31.6,18.4-37.7c4.1-1.7,8.3-1.5,12.5-0.4c0,0.3,0,0.5-0.1,0.5
			c-0.5,0.3-1.1,0.5-1.7,0.7c-4.2,1.5-7.5,4.3-9.8,8.1c-7.7,12.8-2.8,32,10.2,39.3c8.5,4.8,21,5.4,25.4-9.2c0.1-0.3,0.4-0.6,0.7-1.2
			c0.8,5.7-1.9,11.7-7,14.3c-3.2,1.7-6.8,2.9-10.4,3.4c-9.2,1.4-17.6-0.8-24.3-7.6c-0.1-0.1-0.3,0-0.4,0.1
			c5.2,7.7,13.8,9.5,21.9,12.1c0,0.4,0,0.8-0.1,1.3c-2.5,0.2-5.1,0.6-7.6,0.4C335.7,407.8,325.5,398.9,322.1,384.5z"/>
		<path class="st7" d="M324.9,351.4c2-0.8,4.1-1.2,6.1-1.7c0.2,0.2,0.4,0.4,0.5,0.6c-10.1,9.9-13.6,21.9-11.3,35.4
			c2.3,13.8,10.3,23.3,23.3,28.4c-13.6,4.2-28.3,0-34.5-16.2c-5.1-13.5-2.1-26.3,5.7-38.1C317.3,356,320.6,353.1,324.9,351.4z"/>
		<g>
			<path d="M363.5,392.3c3,0,5.5-1.1,7.5-3.2c2.5-2.7,4.9-5.4,7.3-8.1c1-1.1,1.9-2.1,2.9-3.2c0.5-0.6,0.8-1.4,0.6-2.2
				c0-0.1-0.1-0.3-0.1-0.4c1.5,0.4,3.1,0.6,4.7,0.6c2.4,0,4.7-0.4,6.9-1.3c2-0.8,4.2-1.2,6.6-1.2c2.5,0,5.1,0.4,7.3,0.7
				c3.7,0.6,7.5,0.8,11.1,1l0.2,0c0.1,0,0.1,0,0.2,0c0.5,0,1.1-0.1,1.6-0.4c0.2-0.1,0.3-0.2,0.5-0.3c0.8,0.3,1.6,0.5,2.5,0.5
				c1.1,0,2.7-0.4,4.1-2c2.2-2.6,2.3-5.9,0.4-8.8c-4-5.9-10.2-7.1-15.6-7.8c-2.9-0.4-5.3-1-7.2-1.9c0,0,1.7-9.3,1.7-9.3c0,0,0,0,0,0
				c0.2,0.1,0.4,0.1,0.6,0.1c0.5,0,1-0.1,1.4-0.4l10.3-6.5c0.7-0.4,1.1-1.1,1.2-1.9c0-0.1,0-0.2,0-0.3c0,0,0,0,0.1,0
				c1.5,0,2.7-0.1,3.9-0.3c2.3-0.5,5.7-1.1,8.1-3.9c0.4,0,0.8,0.1,1.2,0.1c3.4,0,6.3-1.4,9.2-2.8l0.6-0.3c0.2-0.1,0.3-0.2,0.5-0.3
				c0.1-0.1,0.3-0.2,0.5-0.2c4.8-0.3,9.2-2.3,13.5-5.9c1.7-1.4,2.7-2.9,3-4.4c0.4-1.9,0.2-4.1-0.6-5.8c-0.6-1.2-1.8-1.8-3.7-1.8
				c-0.5,0-1.8,0-2.9,0.5c-8,3.1-16.6,4.6-25,6.1l-1,0.2c-3.1,0.5-6.2,1-9.2,1.5c-3.8,0.6-7.7,1.2-11.6,1.9
				c-3.2,0.6-6.2,1.7-8.9,3.2c-4.5,2.5-9,5.1-13.3,7.7c-5.8,3.4-11.8,6.9-17.8,10.1c-2.5,1.4-5.3,2.4-8.2,3.5
				c-2.4,0.9-4.8,1.8-7.2,2.9c-5.7,2.8-9.8,7.4-11.6,13.2c-1.7,5.7-0.9,11.8,2.3,17.2c5.2,8.8,11.9,13.3,20.3,14
				C362.8,392.3,363.1,392.3,363.5,392.3z"/>
			<path class="st2" d="M352.5,350.3c5-2.4,10.6-3.8,15.4-6.5c10.5-5.7,20.7-12,31.1-17.8c2.5-1.4,5.3-2.4,8.1-2.9
				c6.9-1.3,13.9-2.1,20.8-3.3c9-1.6,17.9-3.1,26.5-6.4c1-0.4,3-0.4,3.3,0c0.6,1.2,0.7,2.8,0.4,4.1c-0.2,1.1-1.2,2.1-2.1,2.9
				c-3.5,2.9-7.4,5-12.1,5.3c-0.6,0-1.2,0.4-1.8,0.7c-3.6,1.7-7.1,3.6-11,2.5c-1.7,3-4.8,3.6-7.5,4.2c-2.8,0.6-5.8,0.1-8.6,0.1
				c0.6,0.7,1.5,1.6,2.6,2.8c-3.6,2.3-7,4.4-10.3,6.5c-0.9-1.5-1.6-2.8-2.2-3.7c-0.9,5-1.8,9.9-2.7,15.1c-2.6-1.6-4.8-3-7-4.3
				c1,1.6,2.4,2.5,3.5,3.6c3.5,3.7,8,5.1,12.9,5.7c5.3,0.7,10.4,1.9,13.7,6.7c1.3,1.9,1.3,3.9-0.2,5.6c-1.5,1.8-3.2,1.1-4.9,0.1
				c0,0,0,0,0,0l0,0c0,0,0,0,0,0c0,0,0,0,0,0c-1.2-0.7-3.2-1.4-3.3-2.3c-0.2-1.5,0.9-3.1,1.3-4.4c-1.3,0.4-2.6,2.5-2.1,4.6
				c0.6,2.1,2.1,2.5,4.1,2.1c0,0,0,0,0,0c-0.5,0.3-0.9,0.8-1.4,1.1c-0.2,0.1-0.3,0.1-0.4,0.1c-3.7-0.2-7.4-0.4-11-1
				c-5.2-0.8-10.2-1.4-15.3,0.6c-4,1.6-8.3,1.4-12.4-0.2c-3.7-1.5-7.3-3.3-10.7-4.8c-1.3,0.6-2.6,1.1-3.9,1.6c2.8,0.1,5.7,0,7.3,2.7
				c1.4,2.4,3.7,3.3,6,4.4c0.2,0.1,0.4,0.2,0.6,0.3c-3.4,3.8-6.7,7.6-10.1,11.3c-1.7,1.9-3.9,2.5-6.4,2.3
				c-8.6-0.7-14.2-5.9-18.3-12.7C338.4,367,342.1,355.2,352.5,350.3z"/>
			<path d="M413.4,356.2l0.1,0.2l0.1,0.5c0.2,0.8,0.7,1.4,1.4,1.7l3.8,1.8l2.3,1.1l5.3,2.5c0.1,0.1,0.3,0.1,0.4,0.2
				c0.2,0.1,0.5,0.1,0.7,0.1c0.1,0,0.1,0,0.2,0c0.4,0,0.8-0.2,1.2-0.4c2.4-1.6,4.6-3.7,6.5-6.2c1-1.3,1.9-2.6,2.7-4.1
				c0.2-0.3,0.3-0.5,0.5-0.8c0.2-0.4,0.5-0.9,0.7-1.4c0.3-0.6,0.6-1.3,0.9-2c1.4-3.3,0.9-6.5-1.3-9.1c-0.1-0.1-0.2-0.2-0.3-0.4
				c-0.1-0.1-0.1-0.2-0.2-0.2c-0.4-0.4-0.8-0.8-1.2-1.2c-0.6-0.6-1.2-1.2-1.8-1.9c-0.3-0.3-0.6-0.7-1-1.1c-0.4-0.5-0.9-1-1.3-1.4
				c-0.6-0.6-1.3-1.2-2.1-1.4c-0.4-0.1-0.8-0.2-1.2-0.2c-0.2,0-0.4,0-0.7,0.1c-2.4,0.5-4.9,1.6-7.2,3.3c-0.4,0.3-0.7,0.5-1.1,0.8
				c-0.1,0.1-0.2,0.2-0.3,0.2c-1.9,1.6-2.3,3.4-2.4,4.7c0,0.5,0,1,0.1,1.6c0.4,1.8,1.5,3.6,3.4,5.5c-0.6,1-1.3,2-1.9,3
				c-0.2,0-0.4,0.1-0.6,0.1c-0.1,0-0.1,0-0.2,0.1c-0.6,0.2-1.2,0.3-1.7,0.5c-0.4,0.1-0.7,0.2-1.1,0.3l-1.1,0.3
				C413.9,353.5,413.1,354.9,413.4,356.2z"/>
			<path class="st2" d="M416,355.6c1.4-0.4,2.8-0.8,4.1-1.2c0.5-0.2,1.3-0.1,1.6-0.5c2.1-3.2,4-6.5,6.2-9.9c-1.4,1.1-2.6,2-3.9,3
				c-3.4-3.2-4-6.1-1.3-8.2c2.1-1.7,4.6-3,7.2-3.6c1-0.2,2.6,2.2,3.9,3.4c1,1,1.9,2,2.9,3c1.9,2,2.4,4.3,1.3,6.8
				c-2.3,5.5-5.7,10.2-10.3,13.3c-4-1.9-7.7-3.7-11.4-5.5C416.1,356.1,416,355.8,416,355.6z"/>
		</g>
		<path class="st7" d="M211.2,329.5c0-9.5,0-19,0-28.4c0.1,0,0.1,0,0.2,0c0-8.5,0-17,0-25.6c0-1,0.7-2.1,1-3.1
			c1.1,0.7,2.4,1.3,3.3,2.2c0.5,0.5,0.4,1.7,0.4,2.5c0.1,6.4,0.1,12.8,0.2,19.2c0.1,10.9,0.2,21.8,0.3,32.7c0,2.1-0.4,4.2-2.9,4.3
			C211.6,333.4,211.2,331.4,211.2,329.5z"/>
		<path class="st7" d="M264.3,330.4c0,1.7-1,2.9-2.7,3c-1.8,0-2.2-1.5-2.2-3c0-0.4,0-0.9,0-1.3c0-8.3,0-16.5,0-24.8
			c0.1,0,0.3,0,0.4,0c0-8.8,0-17.6,0-26.4c0-2.2,0.9-3.6,2.9-3.7c2.2-0.1,1.6,1.9,1.6,3.2c0.1,13.2,0.1,26.4,0.2,39.6
			C264.4,321.4,264.4,325.9,264.3,330.4z"/>
		<path class="st7" d="M197.4,237.9c-15-7.4-27.6-17.8-40.4-28.8c5.9,0,11.4,1.5,15.1,4.8c8,7,15.7,14.3,23.5,21.5
			C196.3,236.1,196.8,237.1,197.4,237.9z"/>
		<path class="st7" d="M267.4,252.5c-1,6.1-9.4,14.5-14.3,16.2c2.3-3.8,4.9-7.9,7.4-12.1c2.7-4.5,1.7-9.6,1.7-15
			C266.4,244.4,268.1,248.2,267.4,252.5z"/>
		<path class="st2" d="M406.7,348.3c0.8-1.5,1.3-3.4,2.5-4.3c3.2-2.5,6.6-4.6,10-6.7c0.6-0.4,1.5-0.2,2.4-0.3
			c-2.4,7.3-6.8,11.3-14,11.9C407.3,348.7,407,348.5,406.7,348.3z"/>
		<path class="st7" d="M191.9,215.5c-0.7,3.3-1.3,6.6-2,9.7c-2.1-1.9-4.7-4.2-7.4-6.7C185.9,217.4,189.1,216.4,191.9,215.5z"/>
		<path class="st2" d="M420.2,351.2c-1.2,0.9-2.6,2-4.2,0.5c-0.9-0.8-1.9-1.6-3.2-2.7c1.7-0.7,3-1.8,4.2-1.6
			c1.4,0.1,2.6,1.3,3.9,2.2C421,349.6,420.6,350.9,420.2,351.2z"/>
		<path class="st2" d="M214,341.2c-0.2,0-0.4,0-0.6,0c0-1.9,0-3.9,0-5.8c0.3,0,0.6,0,0.9,0C214.3,337.4,214.2,339.3,214,341.2z"/>
		<path d="M145.4,301.4c-7.4-11.9-15.8-22.8-28.6-29.4C130.1,278.3,139.5,288.2,145.4,301.4z"/>
		<path d="M103.4,268.3c-3.6,0.3-7.3,0.6-10.9,0.9c0-0.2-0.1-0.4-0.1-0.6c3.7-0.3,7.3-0.6,11-1C103.4,267.9,103.4,268.1,103.4,268.3
			z"/>
		<path d="M266.7,144.4c-0.8,0.4-2.1,0.2-3-0.1c-7.9-2.8-15.7-3.6-23.8,0.3c0.2-0.4,0.3-1,0.6-1.3c7.3-8.7,19.1-8.6,27.1-4.2
			c0.9,0.5,2.1,2.1,1.9,2.8C269.2,142.9,267.9,143.9,266.7,144.4z"/>
		<path d="M242.8,158.5c5.3-5.7,10.9-7.5,15.5-5.5c3,1.3,4.4,3.9,5.1,7c-2.2-1.9-3.4-5-7.3-4.7c1.1,3.1,1.7,5.9-1,8.4
			c-1.7,1.5-3.5,1.3-5.4,0.6c-3.8-1.4-2.6-4.8-2.8-7.6C245.4,157.2,244.1,157.9,242.8,158.5z"/>
		<path d="M208.7,178.5c-1.5-1.1-2.9-2.3-4.2-3.6c-3.3-3.3-3.4-6.4-0.1-10.6c-1.7-1.2-3.2-3.1-4.9-3.2c-1.4-0.1-2.9,2-4.3,3
			c0-3.2,1.4-5.3,3.9-5.7c4.5-0.7,11.1,6.2,9.8,10.5c-1,3.2-0.6,5.6,1.4,8c0.3,0.4,0.2,1.2,0.2,1.8
			C209.9,178.7,209.1,178.8,208.7,178.5z"/>
		<path d="M285.4,161.8c1.4-2.5,3.7-3.7,6.6-3.5c2.9,0.2,5.2,1.5,6.5,4.2c0.2,0.4-0.1,1-0.2,1.4c-1.9-1.3-3.5-2.5-5.1-3.6
			c-0.2,0.2-0.4,0.4-0.5,0.6c0.2,0.5,0.2,1,0.5,1.4c1.3,2.4,0.3,4.3-1.5,5.8c-1.8,1.5-3.8,0.7-5.2-0.7
			C284.8,166,284.3,163.9,285.4,161.8z"/>
		<path d="M265.1,199.1c-3.8-1.4-7.3-3.7-10.8-5.7c-0.4-0.2-0.8-1.3-0.7-1.7c0.2-0.5,1-0.8,1.7-1c0.2,0,0.6,0.8,0.9,1.1
			c0.7,0.7,1.3,1.7,2.2,2.1c4.3,1.7,8.6,3.7,13.1,4.5c3.1,0.6,6.4-0.6,9.7-0.9c0.8-0.1,1.6,0.1,2.4,0.1c0,0.3,0,0.6-0.1,0.9
			C277.4,201,271.2,201.4,265.1,199.1z"/>
		<path d="M281.7,185.3c3.2-3.1,3.3-4.5,1.6-8.6c-1-2.3-1.9-4.8-2.4-7.2c-0.8-3.5-1.1-7.1,1.1-11c-0.1,2-0.4,3.7-0.3,5.3
			c0.1,1.7,0.5,3.5,1,5.2c1,3.2,2.3,6.3,3.5,9.4c1.6,4.3-0.5,7.6-5.4,7.8C280.9,185.8,281.4,185.6,281.7,185.3z"/>
		<path d="M247.2,151.9c4.9-3.6,10.2-3.4,13.7,0.2C256.7,149.2,252.3,150.1,247.2,151.9z"/>
		<path d="M267.5,206.6c2,0,4.1,0,6.1,0c0,0.2,0,0.3,0,0.5c-2.1,0-4.1,0-6.2,0C267.5,207,267.5,206.8,267.5,206.6z"/>
		<path d="M416.3,369.2c-0.5-2.1,0.7-4.2,2.1-4.6c-0.4,1.3-1.5,2.9-1.3,4.4c0.1,0.9,2.1,1.5,3.3,2.3
			C418.4,371.7,416.8,371.3,416.3,369.2z"/>
		<polygon points="420.3,371.2 420.3,371.2 420.3,371.2 		"/>
	</g>
</g>
</svg>
