<?xml version="1.0" encoding="utf-8"?>
<!-- Generator: Adobe Illustrator 24.3.0, SVG Export Plug-In . SVG Version: 6.00 Build 0)  -->
<svg version="1.1" id="Layer_1" xmlns="http://www.w3.org/2000/svg" xmlns:xlink="http://www.w3.org/1999/xlink" x="0px" y="0px"
	 width="577.1px" height="572.1px" viewBox="0 0 577.1 572.1" style="enable-background:new 0 0 577.1 572.1;" xml:space="preserve"
	>
<style type="text/css">
	.st0{fill:#00B0FB;}
	.st1{fill:#00B0FB;fill-opacity:0.4;}
	.st2{fill:#FFFFFF;}
	.st3{fill:none;}
	.st4{fill:#001135;}
	.st5{fill:#3C7CFF;}
	.st6{fill:#3C7CFF;stroke:#001135;stroke-width:0.7602;stroke-miterlimit:10;}
	.st7{fill:#DBDBDB;}
	.st8{fill:#B9B9B9;}
	.st9{fill:#080808;}
	.st10{fill:#060606;}
	.st11{fill:#070707;}
	.st12{fill:#121212;}
	.st13{fill:#111111;}
	.st14{fill:#090909;}
	.st15{fill:#FDFDFD;}
	.st16{fill:#F9F9F9;}
	.st17{fill:#F3F2F3;}
	.st18{fill:#FAFAFA;}
	.st19{fill:#0A0A0A;}
	.st20{fill:#EEEEEE;}
	.st21{fill:#0D0D0D;}
	.st22{fill:#0C0C0C;}
	.st23{fill:#0E0E0E;}
	.st24{fill:#050505;}
	.st25{fill:#3A3A3A;}
	.st26{fill:#525252;}
	.st27{fill:#474747;}
	.st28{fill:#1E1E1E;}
	.st29{fill:#1D1D1D;}
	.st30{fill:#222222;}
	.st31{fill:#494949;}
	.st32{fill:#585858;}
	.st33{fill:#EDEDED;}
	.st34{fill:#F0F0F0;}
	.st35{fill:#EAEAEA;}
	.st36{fill:#EAE9EA;}
	.st37{fill:#040404;}
	.st38{fill:#F4F3F4;}
	.st39{fill:#030303;}
	.st40{fill:#E8E8E8;}
	.st41{fill:#0C0C0B;}
	.st42{fill:#0D0D0C;}
	.st43{fill:#919191;}
	.st44{fill:#909090;}
	.st45{fill:#0E0E0D;}
	.st46{fill:#0C0D0C;}
	.st47{fill:#090908;}
	.st48{fill:#141414;}
	.st49{fill:#4C4D4D;}
	.st50{fill:#737474;}
	.st51{fill:#242424;}
	.st52{fill:#202020;}
	.st53{fill:#101010;}
	.st54{fill:#0D0E0D;}
	.st55{fill:#111212;}
	.st56{fill:#0B0B0B;}
	.st57{fill:#0D0C0C;}
	.st58{fill:#E7E7E7;}
	.st59{fill:#272727;}
	.st60{fill:#2E2E2E;}
	.st61{fill:#1F1E1E;}
	.st62{fill:#1B1A1A;}
	.st63{fill:#E6E6E6;}
	.st64{fill:#0F0E0E;}
	.st65{fill:#F2F2F2;}
	.st66{fill:#F4F3F3;}
	.st67{fill:#F9F8F8;}
	.st68{fill:#F1F1F0;}
	.st69{fill:#F6F6F6;}
	.st70{fill:#F5F6F6;}
	.st71{fill:#F5F5F5;}
	.st72{fill:#2C2C2C;}
	.st73{fill:#252625;}
	.st74{fill:#303030;}
	.st75{fill:#2D2D2C;}
	.st76{fill:#2D2D2D;}
	.st77{fill:#262727;}
	.st78{fill:#191919;}
	.st79{fill:#1B1B1B;}
	.st80{fill:#F7F7F7;}
	.st81{fill:#F6F7F7;}
	.st82{fill:#F9F9FA;}
	.st83{fill:#F4F4F4;}
	.st84{fill:#F8F8F8;}
	.st85{fill:#FCFCFC;}
	.st86{fill:#FBFBFB;}
	.st87{fill:#E2E1E2;}
	.st88{fill:#D8D7D8;}
	.st89{fill:#0F0F0F;}
	.st90{fill:#161616;}
	.st91{fill:#181818;}
	.st92{fill:#131313;}
	.st93{fill-rule:evenodd;clip-rule:evenodd;fill:#00B0FB;}
	.st94{fill:#030302;}
	.st95{fill:#D2D3D3;}
	.st96{fill:#1F1F1F;}
	.st97{fill:#0E0D0E;}
	.st98{fill:#BABBBB;}
	.st99{fill:#8A8A8A;}
	.st100{fill:#8E8F8F;}
	.st101{fill:#464746;}
	.st102{fill:#5F5E5E;}
	.st103{fill:#151414;}
	.st104{fill:#282828;}
	.st105{fill:#030202;}
	.st106{fill:#040403;}
	.st107{fill:#040303;}
	.st108{fill:#202021;}
	.st109{fill:#020202;}
	.st110{fill:#050506;}
	.st111{fill:#010101;}
	.st112{fill:#F3F3F3;}
	.st113{fill:#F1F1F1;}
	.st114{fill:#FAFAF9;}
	.st115{fill:#040504;}
	.st116{fill:#070708;}
	.st117{fill:#131212;}
	.st118{fill:#070808;}
	.st119{fill:#3C3C3C;}
</style>
<g>
	<path class="st2" d="M208.7,417.8c0-0.4,0-0.8,0-1.2c0-43.7,0-108.4,0-136.1c0-6.2,0-12.4,0-18.7l0-5.6c0-16,0-31.9,0.1-47.9
		c0-3.7-1.3-4.2-4.4-4.2c-39.5,0.1-78.9,0-118.4,0c-24.3,0-48.7,0.2-73-0.1c-4.9-0.1-5.5,1.7-5.5,5.8c0,84.4-0.2,168.8-0.4,253.2
		c0,13.8,0.1,27.7-0.2,41.5c-0.1,3.3,1,4,4.1,4c64.7-0.1,129.4-0.1,194,0c3.4,0,3.6-1.4,3.6-4.1c-0.1-27.7-0.1-55.3-0.1-83
		C208.7,420.4,208.7,419.1,208.7,417.8z"/>
	<path class="st7" d="M326.6,219.2C326.6,219.2,326.6,219.2,326.6,219.2c0-16.9,0-33.8,0-50.7c0-0.7-0.3-1.6,0-2.2c0-25,0-17,0-21.8
		c0-3.8-0.2-4.1-3.9-4.1l-43.9-0.2c-14.6,0-29.1,0-43.7,0c-4,0-4.2,0.2-4.2,4.3c0,24.6,0,38.7,0,67.9c0.1,0.5,0,1,0,1.5
		c0,18,0,3.6,0,21.6l-0.4,5.4c29.7,0,63.8,0.2,93.5,0.3c2.5,0,2.7-1.3,2.7-3.2C326.6,220.8,326.6,236.2,326.6,219.2z M278.7,172.8
		c8.2,0,15.7,3,21.4,8l-12.9,12.9c-2.4-1.7-5.3-2.7-8.5-2.7c-0.5,0-1,0-1.5,0.1l-4.7-17.7C274.5,173,276.6,172.8,278.7,172.8z
		 M264.2,205.4H246c0-5.1,1.2-10,3.3-14.3l15.8,9.2C264.6,201.9,264.2,203.6,264.2,205.4z M267.5,196.3l-15.8-9.1c0,0,0,0,0,0v0l0,0
		c3.9-5.8,9.7-10.3,16.4-12.6l4.7,17.7C270.7,193.2,268.9,194.6,267.5,196.3z M278.7,208.8c-1.9,0-3.4-1.5-3.4-3.4
		c0-1.9,1.5-3.4,3.4-3.4c1.2,0,2.2,0.6,2.8,1.5l22-5.9c0.6-0.2,1.2,0.2,1.3,0.8v0c0.2,0.6-0.2,1.2-0.8,1.3l-22,5.9
		C282,207.4,280.6,208.8,278.7,208.8z M293.1,205.4c0-0.2,0-0.4,0-0.6l11.5-3.1c1.7-0.4,2.7-2.2,2.2-3.8c-0.4-1.7-2.2-2.7-3.8-2.2
		l-11.5,3.1c-0.3-0.6-0.7-1.2-1.1-1.8l12.9-12.9c5,5.7,8,13.2,8,21.4H293.1z"/>
	<path class="st111" d="M278.7,191c3.2,0,6.1,1,8.5,2.7l12.9-12.9c-5.7-5-13.2-8-21.4-8c-2.1,0-4.2,0.2-6.2,0.6l4.7,17.7
		C277.7,191,278.2,191,278.7,191z"/>
	<path class="st111" d="M291.5,198.7l11.5-3.1c1.7-0.4,3.4,0.6,3.8,2.2c0.4,1.7-0.6,3.4-2.2,3.8l-11.5,3.1c0,0.2,0,0.4,0,0.6h18.2
		c0-8.2-3-15.7-8-21.4L290.4,197C290.8,197.5,291.2,198.1,291.5,198.7z"/>
	<path class="st111" d="M265.2,200.3l-15.8-9.2c-2.1,4.3-3.3,9.2-3.3,14.3h18.2C264.2,203.6,264.6,201.9,265.2,200.3z"/>
	<polygon class="st111" points="251.6,187.1 251.6,187.1 251.6,187.1 	"/>
	<path class="st111" d="M272.7,192.2l-4.7-17.7c-6.7,2.3-12.5,6.8-16.4,12.6l15.8,9.1C268.9,194.6,270.7,193.2,272.7,192.2z"/>
	<path class="st111" d="M304.8,198.4L304.8,198.4c-0.2-0.6-0.8-0.9-1.3-0.8l-22,5.9c-0.6-0.9-1.7-1.5-2.8-1.5
		c-1.9,0-3.4,1.5-3.4,3.4c0,1.9,1.5,3.4,3.4,3.4c1.9,0,3.3-1.4,3.4-3.2l22-5.9C304.6,199.6,305,199,304.8,198.4z"/>
	<path class="st111" d="M156.1,270.4c-2.9-0.2-4-1.1-4.5-3.8c-0.6-3.5-2-6.9-3.7-10.1c-8.4-14.7-21-22.1-37.9-21.8
		c-16.8,0.4-28.8,8.7-36.7,23.2c-0.9,1.7-1,3.9-4.3,3.5c-11.1-1.5-19.1,3.3-23.1,13.6c-0.9,2.3-2.3,3.3-4.4,4.2
		c-8.6,3.7-13.9,14-12.1,23.1c2.3,11.5,10.9,18.7,22.9,18.7c16.3,0.1,32.5,0.1,48.8-0.1c3,0,4,0.8,3.8,3.8
		c-0.2,3.3-0.2,10.7-0.1,16.5c-4.4,1.1-7.5,4.1-8.8,8.5H72.9c-1.6-5.1-6.2-8.9-11.7-8.9c-7.9-0.1-13.1,5.2-13.3,13.3
		c-0.1,7.1,5.3,12.4,12.6,12.4c6,0,10.8-3.6,12.4-8.9h23c1.4,5.3,6.1,8.9,12.2,8.9c6,0,10.8-3.6,12.4-8.9h23
		c1.4,5.3,6.1,8.9,12.2,8.9c7.3,0,12.9-5.4,12.9-12.7c0.1-7.1-5.5-12.9-12.3-13c-6.3-0.1-11,3.4-12.6,8.9h-23.2
		c-1.3-4.1-4.5-7.4-8.6-8.5c0.1-5.9,0.1-13.3-0.1-16.6c-0.1-3.1,0.9-3.8,3.8-3.8c15.6,0.2,31.1,0.2,46.7,0.1
		c13.1,0,22.5-10.2,21.6-23.2C182.9,283,171.2,271.3,156.1,270.4z M177.2,302.7c-1.7,7.7-7,11.9-15.2,12c-18.3,0-36.6,0-54.8,0
		c0,0,0,0,0,0.1c-18.3,0-36.6,0-54.8,0c-8.4,0-15.3-5.5-16.6-13.5c-1.3-7.6,3.1-14.5,11.3-17.1c2.7-0.8,3.4-2.4,4.1-4.7
		c2.6-9.5,10.3-14,19.5-11c4.2,1.4,5.4,0.1,6.9-3.7c4.7-12.2,13.3-20.5,26.4-22.9c13.9-2.5,25.9,1.5,35,12.7
		c4.3,5.3,6.6,11.5,7.3,18.2c0.3,3.5,1.7,3.9,4.6,3.7c4.5-0.3,8.9,0.5,13,2.3C173,282.9,179.1,293.8,177.2,302.7z"/>
	<path class="st111" d="M215.8,249.6c0-15.5,0-29.6,0-41.3c0-4.3,0.6-8.8-4.7-11c-0.5-0.2-0.6-1.2-0.8-1.9
		c-3.6-9.3-8.8-12.9-18.7-12.9c-27.2,0-54.5,0.1-81.7,0.1c-28.7,0-57.3-0.1-86-0.1c-9,0-14.7,4-17.7,12.4c-0.4,1.1-0.7,2.1-1.8,2.7
		c-3.3,1.8-4,4.9-4,8.4c0.1,50.1,0,100.3,0,150.4c-0.2,0-0.4,0-0.5,0C0,406.7,0,456.8,0,507c0,6.7,2.1,8.9,8.6,8.9
		c66.3,0,132.5,0,198.8-0.1c6.4,0,8.4-2,8.4-8.6c0-16.7,0-33.4,0-50.1c0-13.1-0.1-26.2,0-39.3c0-0.4,0-0.7,0-1
		c0-46.6,0-110.7,0-161.3C215.8,253.5,215.8,251.5,215.8,249.6z M24.7,189.7c23,0,46.1,0,69.1,0c32.4,0,64.8,0,97.2-0.1
		c3.8,0,7.1,0.7,9.9,3.4c0.9,0.9,2.2,1.9,1.7,3.2c-0.5,1.6-2.3,0.8-3.4,0.8c-21,0.1-42,0.1-63.1,0.1c-39.5,0-78.9-0.1-118.4-0.1
		c-1.4,0-2.8-0.1-4.5-0.2C15.5,191.3,19.5,189.7,24.7,189.7z M205.2,508.7c-64.7-0.1-129.4-0.1-194,0c-3.2,0-4.2-0.7-4.1-4
		c0.2-13.8,0.1-27.7,0.2-41.5C7.3,378.8,7.5,294.4,7.5,210c0-4.2,0.6-5.9,5.5-5.8c24.3,0.3,48.7,0.1,73,0.1c39.5,0,78.9,0,118.4,0
		c3.1,0,4.4,0.5,4.4,4.2c-0.1,16-0.1,31.9-0.1,47.9c0,1.9,0,3.7,0,5.6c0,6.2,0,12.4,0,18.7c0,27.6,0,92.3,0,136.1
		c0,0.4-0.1,0.8,0,1.2c0.1,1.3,0,2.6,0,3.9c0,27.7,0,55.3,0.1,83C208.8,507.3,208.6,508.7,205.2,508.7z"/>
	<path d="M110.3,406c-24.9-0.2-45.3,19.8-45.4,44.6c-0.1,24.2,20.1,44.4,44.6,44.4c25.2,0.1,45.3-19.7,45.4-44.6
		C155,426.3,134.9,406.3,110.3,406z M133.7,440.4c-9.4,9.3-18.8,18.6-28.2,27.9c-1.9,1.9-4,1.9-5.9,0.1c-4.6-4.5-9.1-9.1-13.7-13.6
		c-1-1-1.6-2.2-1.5-3.6c0-2.2,1.1-3.8,3-4.7c2.1-1,4.2-0.6,5.8,0.9c2.5,2.3,5.1,4.7,7.4,7.2c1.5,1.6,2.4,1.4,3.9-0.1
		c6.1-6.3,12.4-12.4,18.6-18.6c1-1,2-2.2,3.1-3.1c2.5-2.1,5-1.7,7.3,0.4C135.8,435.2,135.9,438.3,133.7,440.4z"/>
	<path class="st7" d="M136.1,197.2c21,0,42,0,63.1-0.1c1.1,0,2.9,0.8,3.4-0.8c0.4-1.3-0.8-2.3-1.7-3.2c-2.7-2.7-6.1-3.4-9.9-3.4
		c-32.4,0.1-64.8,0.1-97.2,0.1c-23,0-46.1,0-69.1,0c-5.2,0-9.2,1.6-11.4,7.1c1.7,0.1,3.1,0.2,4.5,0.2
		C57.2,197.1,96.7,197.1,136.1,197.2z"/>
	<path class="st15" d="M126.3,432.8c-1.1,0.9-2.1,2.1-3.1,3.1c-6.2,6.2-12.5,12.3-18.6,18.6c-1.4,1.5-2.4,1.6-3.9,0.1
		c-2.4-2.5-4.9-4.9-7.4-7.2c-1.7-1.6-3.7-1.9-5.8-0.9c-1.9,0.9-3,2.5-3,4.7c-0.1,1.4,0.4,2.6,1.5,3.6c4.6,4.5,9.1,9.1,13.7,13.6
		c1.9,1.9,4,1.8,5.9-0.1c9.4-9.3,18.8-18.5,28.2-27.9c2.2-2.2,2.1-5.3-0.1-7.2C131.4,431.1,128.8,430.7,126.3,432.8z"/>
	<path class="st7" d="M163.8,278.8c-4.2-1.8-8.5-2.7-13-2.3c-2.9,0.2-4.3-0.3-4.6-3.7c-0.7-6.7-3-12.9-7.3-18.2
		c-9.1-11.2-21.1-15.2-35-12.7c-13.1,2.4-21.7,10.7-26.4,22.9c-1.4,3.7-2.7,5-6.9,3.7c-9.1-3-16.9,1.6-19.5,11
		c-0.6,2.3-1.4,3.9-4.1,4.7c-8.2,2.6-12.5,9.5-11.3,17.1c1.3,7.9,8.2,13.5,16.6,13.5c18.3,0,36.6,0,54.8,0c0,0,0,0,0-0.1
		c18.3,0,36.6,0,54.8,0c8.1,0,13.5-4.3,15.2-12C179.1,293.8,173,282.9,163.8,278.8z"/>
	<path class="st111" d="M196.7,162.2c-0.7-0.7-1.7-0.8-2.8-0.8c0,0-0.2,0-0.2,0c-0.4,0-0.8,0-1.2,0c-0.4,0-0.8,0-1.3,0
		c-0.8,0-1.8,0-2.8,0.1c-0.2,0-0.5,0-0.6,0c-0.7,0-0.9-0.2-1-0.3c-0.3-0.3-0.4-1.3-0.4-2c0.1-45.4,0.1-91.6,0.1-136.2l0-13.6
		c0-7.2-2.2-9.4-9.4-9.4c-26.1,0-52.2,0-78.4,0L84.8,0C72,0,59.1,0,46.3,0c-5.6,0-8.4,2.8-8.4,8.2c0,6.4,0,12.9,0,19.3l0,32.4
		c0,32.6,0,66.4,0.1,99.6c0,0.9-0.1,1.5-0.4,1.8c-0.2,0.2-0.7,0.3-1.5,0.3c-0.1,0-0.2,0-0.3,0c-1.6-0.1-3.4-0.1-5.4-0.1
		c-1.8,0-3.6,0-5.5,0c-1,0-2.1,0-3.1,0c-1.4,0-2.3,0.4-2.8,1.1c-0.4,0.6-0.5,1.4-0.1,2.3c0.6,1.5,2.1,1.5,2.6,1.5c0.2,0,0.4,0,0.6,0
		c0.2,0,0.4,0,0.5,0l85.5,0c0.1,0,0.2,0,0.3-0.1l34.8,0c8.3,0,16.7,0,25,0c5.2,0,10.5,0,15.7,0.1c3.3,0,6.6,0,10,0l0.2,0
		c0.9,0,3.2,0,3.2-2.5C197.3,163.3,197.1,162.7,196.7,162.2z"/>
	<path class="st7" d="M45.6,161.9c44.3-0.1,88.5-0.1,132.8,0c2.3,0,3.1-0.4,3.1-2.9c-0.1-50.1-0.1-100.3,0-150.4
		c0-2.6-0.8-3.5-3.4-3.5c-43.8,0.1-87.6,0.1-131.4,0C43.8,5.1,43,6,43,8.8c0.1,25,0.1,50,0.1,74.9c0,0,0,0,0,0
		c0,25.2,0,50.3-0.1,75.5C42.9,161.4,43.5,161.9,45.6,161.9z M74.4,56c0-3.9,0.1-4.1,4-4.1c19.3,0,38.6,0,57.8,0c3.5,0,7,0,10.5,0
		c2,0,3,0.9,2.9,2.9c0,4.3-0.1,8.5,0,12.8c0.1,2.5-1.1,3.3-3.4,3.3c-11.5-0.1-23,0-34.5,0c0,0,0,0,0-0.1c-11.2,0-22.4,0-33.6,0
		c-3.5,0-3.8-0.3-3.8-3.7C74.4,63.4,74.4,59.7,74.4,56z M77.5,73.9c23.1,0,46.1-0.1,69.2-0.1c2.2,0,3.1,0.9,3,3.1
		c-0.1,4.3-0.1,8.5,0,12.8c0,2.5-1,3.3-3.4,3.3c-11.5-0.1-23,0-34.5,0c0,0,0,0,0,0c-11.2,0-22.4,0-33.6,0c-3.4,0-3.7-0.4-3.7-3.8
		c0-4,0-8-0.1-12C74.3,74.9,75,73.9,77.5,73.9z M77.6,95.8c11.5,0.1,23,0,34.4,0c0,0,0,0,0,0c11.3,0,22.6,0,33.9,0
		c3.5,0,3.8,0.3,3.8,3.7c0,4.1-0.1,8.2,0,12.2c0,2.2-0.9,3.1-3.1,3.1c-23.1,0-46.1,0-69.2,0c-2.1,0-3.1-0.8-3.1-3
		c0.1-4.3,0.1-8.5,0-12.8C74.3,96.5,75.3,95.8,77.6,95.8z"/>
	<path d="M74.5,89.2c0,3.4,0.4,3.8,3.7,3.8c11.2,0,22.4,0,33.6,0c0,0,0,0,0,0c11.5,0,23,0,34.5,0c2.4,0,3.5-0.9,3.4-3.3
		c-0.1-4.3-0.1-8.5,0-12.8c0-2.2-0.9-3.1-3-3.1c-23.1,0.1-46.1,0.1-69.2,0.1c-2.4,0-3.1,1-3.1,3.3C74.5,81.2,74.4,85.2,74.5,89.2z
		 M139.4,80.9c1.5,0.1,2.4,0.9,2.4,2.5c0,1.6-1.1,2.5-2.6,2.4c-1.6,0-2.7-1-2.6-2.7C136.7,81.6,137.8,81,139.4,80.9z M130,81
		c1.6,0,2.3,1,2.5,2.5c-0.3,1.6-1.2,2.6-2.9,2.5c-1.5-0.1-2.4-1-2.4-2.6C127.2,81.6,128.3,80.9,130,81z M120.5,81
		c1.6,0.1,2.4,0.9,2.5,2.5c-0.2,1.6-1.1,2.5-2.6,2.5c-1.7,0-2.7-1-2.6-2.7C117.9,81.7,119,80.9,120.5,81z M85,80.9
		c1.7,0.1,2.7,0.8,2.7,2.4c0.1,1.6-0.9,2.5-2.4,2.6c-1.6,0.1-2.8-0.9-2.8-2.5C82.6,81.9,83.6,81,85,80.9z"/>
	<path d="M78.2,70.8c11.2,0,22.4,0,33.6,0c0,0,0,0,0,0.1c11.5,0,23,0,34.5,0c2.4,0,3.5-0.7,3.4-3.3c-0.1-4.3-0.1-8.5,0-12.8
		c0-2.1-0.9-2.9-2.9-2.9c-3.5,0-7,0-10.5,0c-19.3,0-38.6,0-57.8,0c-3.8,0-4,0.2-4,4.1c0,3.7,0,7.4,0,11.1
		C74.4,70.5,74.7,70.8,78.2,70.8z M139.2,58.9c1.6-0.1,2.4,0.9,2.5,2.4c-0.1,1.5-0.8,2.6-2.4,2.7c-1.7,0.1-2.7-0.9-2.7-2.6
		C136.7,59.9,137.7,59,139.2,58.9z M129.8,58.8c1.7,0.2,2.7,1.1,2.6,2.8c-0.1,1.5-1,2.5-2.6,2.4c-1.8,0-2.5-1-2.5-2.7
		C127.3,59.7,128.3,59,129.8,58.8z M120.2,58.9c1.6,0,2.7,0.8,2.7,2.6c0,1.6-0.8,2.4-2.3,2.6c-1.8,0-2.8-0.8-2.8-2.6
		C117.8,59.9,118.7,58.9,120.2,58.9z M85.2,58.9c1.6,0,2.4,0.9,2.5,2.4c-0.1,1.6-0.8,2.6-2.4,2.6c-1.7,0-2.7-1-2.7-2.6
		C82.6,59.9,83.7,58.9,85.2,58.9z"/>
	<path d="M74.4,111.7c0,2.2,0.9,3,3.1,3c23.1,0,46.1,0,69.2,0c2.2,0,3.1-0.9,3.1-3.1c-0.1-4.1,0-8.2,0-12.2c0-3.4-0.3-3.7-3.8-3.7
		c-11.3,0-22.6,0-33.9,0c0,0,0,0,0,0c-11.5,0-23,0-34.4,0c-2.3,0-3.3,0.7-3.2,3.1C74.5,103.2,74.5,107.4,74.4,111.7z M139.2,102.8
		c1.5,0,2.4,0.9,2.6,2.4c-0.1,1.5-0.8,2.5-2.4,2.7c-1.7,0.1-2.7-0.8-2.8-2.4C136.5,103.7,137.6,102.8,139.2,102.8z M129.7,102.7
		c1.7,0.3,2.9,1.1,2.8,2.8c-0.1,1.5-1,2.4-2.6,2.4c-1.8,0-2.6-1.1-2.6-2.7C127.2,103.5,128.4,103,129.7,102.7z M120.3,102.7
		c1.7-0.1,2.5,1,2.9,2.5c-0.2,1.7-1,2.8-2.7,2.8c-1.6,0-2.5-0.9-2.6-2.4C117.7,103.9,118.5,102.8,120.3,102.7z M85.1,102.8
		c1.6,0,2.7,0.9,2.6,2.7c-0.1,1.6-1.1,2.3-2.5,2.4c-1.7-0.1-2.6-1.1-2.6-2.5C82.6,103.8,83.5,102.8,85.1,102.8z"/>
	<path class="st112" d="M120.4,86c1.5,0,2.4-0.9,2.6-2.5c-0.1-1.5-0.9-2.4-2.5-2.5c-1.5-0.1-2.6,0.7-2.7,2.3
		C117.8,84.9,118.7,86,120.4,86z"/>
	<path class="st83" d="M129.6,86c1.6,0.1,2.6-0.9,2.9-2.5c-0.2-1.5-0.9-2.4-2.5-2.5c-1.6,0-2.8,0.7-2.8,2.4
		C127.2,84.9,128.1,85.9,129.6,86z"/>
	<path class="st113" d="M85.3,85.9c1.5-0.1,2.4-1,2.4-2.6c-0.1-1.6-1-2.3-2.7-2.4c-1.4,0.1-2.4,0.9-2.4,2.5
		C82.6,85.1,83.7,86,85.3,85.9z"/>
	<path class="st84" d="M139.2,85.9c1.5,0,2.5-0.8,2.6-2.4c0-1.6-0.8-2.4-2.4-2.5c-1.5,0-2.7,0.7-2.8,2.2
		C136.5,84.9,137.5,85.8,139.2,85.9z"/>
	<path class="st83" d="M129.8,64.1c1.6,0,2.5-0.9,2.6-2.4c0.1-1.7-0.9-2.6-2.6-2.8c-1.4,0.2-2.4,0.8-2.5,2.5
		C127.3,63,128,64,129.8,64.1z"/>
	<path class="st83" d="M120.6,64c1.5-0.1,2.3-1,2.3-2.6c0-1.8-1.1-2.6-2.7-2.6c-1.6,0-2.4,1-2.4,2.6C117.8,63.2,118.8,64,120.6,64z"
		/>
	<path class="st113" d="M139.4,64c1.6-0.1,2.2-1.1,2.4-2.7c-0.2-1.5-1-2.4-2.5-2.4c-1.5,0.1-2.5,0.9-2.5,2.5
		C136.7,63.1,137.7,64,139.4,64z"/>
	<path class="st65" d="M85.3,64c1.6,0,2.3-1,2.4-2.6c-0.1-1.5-0.9-2.4-2.5-2.4c-1.5,0-2.6,0.9-2.6,2.4C82.6,63,83.5,64,85.3,64z"/>
	<path class="st83" d="M120.4,108c1.8,0,2.5-1,2.7-2.8c-0.3-1.5-1.2-2.5-2.9-2.5c-1.8,0.1-2.6,1.2-2.5,2.8
		C117.9,107.1,118.8,108,120.4,108z"/>
	<path class="st112" d="M139.4,107.9c1.6-0.1,2.3-1.1,2.4-2.7c-0.2-1.5-1.1-2.4-2.6-2.4c-1.6,0-2.7,0.9-2.6,2.6
		C136.7,107.1,137.7,108,139.4,107.9z"/>
	<path class="st69" d="M129.8,107.9c1.6,0,2.5-0.9,2.6-2.4c0.1-1.7-1-2.5-2.8-2.8c-1.3,0.3-2.5,0.8-2.5,2.5
		C127.2,106.8,128,107.9,129.8,107.9z"/>
	<path class="st71" d="M85.2,107.8c1.4-0.1,2.4-0.8,2.5-2.4c0.1-1.7-1-2.6-2.6-2.7c-1.6,0-2.5,1-2.5,2.5
		C82.6,106.8,83.5,107.8,85.2,107.8z"/>
	<path d="M577.1,316.1c-0.2,5.3-1.9,10.2-3.9,15c-5.5,12.7-13.3,24-21.8,34.8c-4.9,6.3-10,12.4-15.2,18.3c-1.5,1.7-3.1,3.5-4.6,5.2
		c-2.4,2.6-4.8,5.2-7.2,7.7c-1.7,1.8-3.5,3.6-5.3,5.5c-6,6.1-12.2,12.1-18.5,18c-0.9,0.8-1.8,1.7-2.7,2.5c-0.7,0.6-1.4,1.3-2.1,1.9
		c-4.1,3.8-8.3,7.6-12.5,11.3c-0.3,0.2-0.5,0.5-0.8,0.7c-4.2,3.8-8.5,7.5-12.8,11.1c-0.6,0.5-1.2,1-1.8,1.5c-0.6,0.5-1.2,1-1.7,1.5
		c-0.2,0.1-0.3,0.3-0.5,0.4c-10.5,8.8-21.2,17.4-32.1,25.7c-1.1,0.8-2.1,1.6-3.2,2.4c-0.2,0.1-0.3,0.2-0.4,0.3
		c-3.5,2.6-7,5.2-10.5,7.8c-3.2,2.4-6.5,4.7-9.7,7c-1.2,0.8-2.4,1.7-3.5,2.5c-11.5,8.1-23.3,15.8-35.2,23.3
		c-1.8,1.1-3.7,2.3-5.5,3.4c-1.1,0.7-2.2,1.4-3.4,2.1c-5.7,3.5-11.5,6.9-17.4,10.2c-1.5,0.9-3.1,1.8-4.6,2.6
		c-14.9,8.3-30.3,15.8-46.2,22.2c-14,5.5-28.1,10.4-43.6,11c-2.2-0.2-4.6-0.2-6.9-0.5c-8.8-1.4-13.6-7-13.4-15.8
		c0-4.8,1.4-9.3,3.1-13.7c4.6-11.6,11.4-21.9,18.7-31.8c9.2-12.3,19.1-23.9,29.6-35c1.4-1.5,2.9-3,4.3-4.5c1-1,2-2.1,3-3.1
		c1-1,1.9-2,2.9-3c1.8-1.8,3.5-3.5,5.3-5.2c0,0,0.1-0.1,0.1-0.1c0.9-0.9,1.9-1.9,2.8-2.8c0.2-0.2,0.4-0.4,0.6-0.6c0,0,0,0,0,0
		c0.1-0.1,0.2-0.2,0.4-0.3c2.9-2.8,5.8-5.5,8.7-8.2c1-1,2.1-1.9,3.1-2.9c0.7-0.7,1.4-1.3,2.2-2c0.7-0.6,1.4-1.3,2.1-1.9
		c0.5-0.5,1.1-1,1.6-1.5c0.6-0.5,1.1-1,1.7-1.5c2.3-2,4.5-4.1,6.8-6.1c0.3-0.2,0.6-0.5,0.8-0.7c0.1-0.1,0.2-0.2,0.3-0.3
		c0.6-0.5,1.2-1,1.7-1.5c0.3-0.2,0.5-0.5,0.8-0.7c2.8-2.4,5.6-4.8,8.4-7.2c1.1-1,2.3-1.9,3.4-2.9c1.1-0.9,2.1-1.8,3.2-2.6
		c2.2-1.8,4.4-3.7,6.7-5.5c0,0,0,0,0,0c2.2-1.8,4.4-3.5,6.6-5.2c0.2-0.2,0.4-0.3,0.6-0.5c0.9-0.7,1.9-1.5,2.8-2.2
		c0.9-0.7,1.8-1.4,2.8-2.1c1.2-1,2.4-1.9,3.6-2.8c3.8-2.9,7.5-5.8,11.4-8.6c0.8-0.6,1.6-1.2,2.4-1.8c1.8-1.3,3.5-2.6,5.3-3.9
		c1-0.8,2.1-1.5,3.1-2.2c2.6-1.9,5.2-3.7,7.7-5.5c0,0,0.1-0.1,0.1-0.1c0.1-0.1,0.3-0.2,0.4-0.3c0.8-0.6,1.7-1.2,2.5-1.8
		c0.2-0.1,0.3-0.2,0.5-0.3c0.1-0.1,0.2-0.1,0.3-0.2c3.6-2.5,7.2-5,10.9-7.5c2.5-1.7,5-3.3,7.4-5c1-0.7,2-1.3,3-2
		c0.3-0.2,0.5-0.3,0.8-0.5c0.9-0.6,1.8-1.2,2.7-1.8c1.1-0.7,2.1-1.4,3.2-2c4.6-2.9,9.3-5.8,13.9-8.7c1.1-0.7,2.1-1.3,3.2-1.9
		c0.8-0.5,1.6-0.9,2.4-1.4c1.1-0.6,2.1-1.3,3.2-1.9c6.4-3.8,12.9-7.4,19.5-10.9c3.8-2,7.6-4,11.5-6c1-0.5,2-1,2.9-1.5
		c3-1.5,6-3,9.1-4.4v0c1.3-0.6,2.7-1.2,4-1.8c2.3-1,4.6-2,6.9-3c9.4-4,19-7.5,29-10.1c8.6-2.3,17.4-4,26.4-2.8
		C572.4,300.6,577.4,306.4,577.1,316.1z"/>
	<g>
		<path class="st40" d="M410.7,257.4c-3.9-5.4-7.3-11.1-9.4-17.7C398,248.2,402.5,256.5,410.7,257.4z"/>
		<path class="st2" d="M406.2,497.2c-11.5,8.1-23.3,15.8-35.2,23.3c-3.1-1.7-6.2-3.6-9.1-5.7c-17.4-12.2-33.7-25.7-49.8-39.6
			c-4.6-4-9.3-5.9-15.1-4.9c-3.9,0.7-7.6,0.8-11.2,0.3c-6.9-0.8-13.3-3.6-19.5-7.7c-5.3-3.5-12.3-2.5-17.9,2.4
			c3.2,1.3,5.6-0.9,8.4-0.7c-5.9,4.5-11.2,4.4-16-0.1c-3.2-3-3-5.5,0.6-7.9c3.6-2.3,7.3-4.4,11-6.6c1.1-0.6,2.2-1.3,3.1-2.1
			c1.3-1.1,3.4-2.5,1.9-4.2c-1.5-1.6-2.3,1-3.3,1.8c-5.3,4.5-11.7,7.2-17.6,10.9c-2.3,1.4-3.9-0.8-5.1-2.6c-1.4-2.1-1.5-4.2,0.7-6
			c4.1-3.2,8.8-5.4,13.1-8.1c2.1-1.3,4.4-2.4,5.8-4.7c0.5-0.8,1.2-1.9,0.4-2.7c-0.9-0.8-1.5,0.4-2.1,0.9
			c-5.4,4.6-11.8,7.6-17.9,11.1c-2.4,1.4-4.3,1.1-5.7-1.4c-1.3-2.4-1.8-4.9,1-6.6c4.9-3,10-5.8,15-8.7c1.6-0.9,3.4-1.8,4.5-3.3
			c1.2-1.7,1.1-3.6-1.2-3.4c-4.8,0.4-9.2-1.3-13.7-2.2c-7.5-1.6-15.2-1.7-22.8-3c-2.7-0.5-5.4-1-7.7-2.8c-1.3-1-2.6-2.4-2.1-4.1
			c0.5-1.9,2.5-1.4,3.9-1.4c11.8,0.1,23.6,0.7,35.3,2.5c5.6,0.9,11.2,1.3,16.8,1.9c5.4,0.6,9.9,3.4,14.6,5.8
			c15.3,7.8,30.3,16.2,45.4,24.6c19.1,10.6,38.1,21.3,57.7,31c7.5,3.7,15,7.6,22.9,10.6C401.6,486.6,404.7,491.5,406.2,497.2z"/>
		<path class="st7" d="M505.7,379.5c3.1-1.6,6.1-3.4,8.7-5.8c-0.6-0.8-1.2-0.4-1.7-0.1c-13.8,8.8-29.4,12.6-45.2,16
			c-13,2.8-25,7.6-36.9,13.5c-7.1,3.6-14.2,7.3-21.6,10.5c-1,0.4-2.2,0.6-2.7,1.9c2.3,0,4.5,0.1,6.7,0c2.4-0.2,3.5,0.5,3.1,3.2
			c-1.8,11.6-1.9,23.2-1.6,34.9c0.1,3.2,0,6.2,2.1,8.9c1.3,1.6,1,3.8,1,5.8c0.1,1.7,0.2,3.4,2.5,3.5c2.1,0.1,2.9-1.4,2.9-3.2
			c0-3.5,0.7-6.5,2.6-9.6c1.4-2.4,0.6-5.4,0.2-8.2c-1.4-11.3,0-22.3,2.5-33.2c0.7-2.8,1.8-5.1,5-5.9c22.3-5.3,44.2-12.5,67.4-13.7
			c7-0.4,13.1,1.2,18.5,4.5c-6,6.1-12.2,12.1-18.5,18c-0.9,0.8-1.8,1.7-2.7,2.5c-0.7,0.6-1.4,1.3-2.1,1.9
			c-4.1,3.8-8.3,7.6-12.5,11.3c-0.3,0.2-0.5,0.5-0.8,0.7c-4.2,3.8-8.5,7.5-12.8,11.1c0.4-3.5,1.7-6.9,1.2-11.1
			c-1.4,4-2.5,6.8-3.5,9.8c-0.5,1.6-1.1,3.1-1.7,4.7c-10.5,8.8-21.2,17.4-32.1,25.7c-1.1,0.8-2.1,1.6-3.2,2.4
			c-1.6,0.1-3.2,0.5-4.8,1.2c-4.4,2-8.6,1.4-12.8-0.3c-7-2.8-14.2-5.1-21.9-4.8c-2.5,0.1-4.7-0.9-6.8-1.9c-12.9-5.9-25.7-12-38.1-19
			c-5.9-3.3-5.8-3.5-4.8-10.1c1-6.8,3-13.4,4.1-20.2c-3.6,5.9-5.1,12.7-8,19.4c-2.5-4.3-1.9-8.8-2.9-14c-1.2,5.4-1.2,9.9-1.4,14.3
			c-0.1,2.1-0.8,2.8-2.7,1.4c-0.1-0.1-0.2-0.1-0.3-0.2c-6.6-3.4-9.2-4.8-9.8-8c-0.4-2.1,0.1-5,1-9.9c1.5-8.5,3.8-16.9,6.7-25
			c1.2-3.6,3.3-6.8,6-9.5c4.8-4.7,10.1-8.7,15.8-12.1c1.7-1,3-1.4,3.9,1.2c2.3,7.1,6.2,13,11.6,17.8c1.7,1.6,3.6,3,5.6,4.4
			c3.2,2.2,4.2,5,3.8,8.7c-1.6,11.7-1.3,23.5-1.4,35.4c0,2.8,0.4,5.5,2.4,7.7c1.4,1.5,1.3,3.5,1.4,5.3c0.1,1.7,0.8,3,2.6,3.1
			c2.2,0.1,2.2-1.7,2.2-3.2c0.2-2.6,0.4-5.2,1.9-7.5c1.2-1.8,0.6-4.2,0.4-6.3c-1.1-10.4-0.9-20.8,0.9-31.1c0.5-3,1.4-4,4.3-2.8
			c1.4,0.6,2.9,0.9,4.6,0.3c-5.6-2.8-9.7-7.6-15.3-10.2c-3.7-1.8-7-4-9.9-6.5c-8.3-7.4-12.8-17.8-12.2-29
			c0.5-10.2,9.7-21.1,19.6-23.3c3.2-0.7,4.1,0.1,3.1,3.3c-0.9,2.8-2.4,5.5-3.6,8.3c-4.4,10.3-5.4,20.6-0.4,31
			c0.2,0.4,0.4,0.8,0.9,1.1c-0.7-4.2-1.6-8.3-1.7-12.5c-0.3-10.4,3.2-19,12.3-24.6c1.6-1,3.6-2.6,5.2,0c1.4,2.4,2.4,4.7-0.9,6.7
			c-8.9,5.2-11.4,17.9-8.4,28.8c0.1,0.5,0.3,1,0.4,1.4c2.9,8.9,8.4,16.2,14.5,23.1c1.5,1.8,2.9,1.6,4.4,0.2c2.7-2.4,5.5-4.8,8.2-7.2
			c15.4-13.7,33.2-23.8,51.4-33.3c8.7-4.5,17.5-8.8,25.8-14c2.7-1.7,6.3-3.5,5.4-7.3c-1-4.3-5.2-4.5-8.6-4.5
			c-6.6-0.1-13.3,0.4-19.9,0.5c-3.4,0.1-6.5-0.6-8.6-3.6c-0.7-0.9-1.6-2.1,0.6-2.3c13.6-1.1,27.1-3.9,40.9-1.4
			c5.4,1,9.3,4.1,11.1,9.1c3,8.6,8.3,15.7,13.9,22.6c4.6,5.7,8.7,11.7,9.6,19c-2.4,2.6-4.8,5.2-7.2,7.7c-6.3-4.3-13.6-5.2-21.5-4.7
			c-19.2,1.1-37.7,5.6-56.2,10.4c-4.8,1.2-9.6,2.6-14.6,3.5c3-3.6,6.9-5.8,11.1-7.7c11.6-5.4,24.2-7.2,36.5-10.3
			C488.6,386,497.5,383.7,505.7,379.5z"/>
		<path class="st2" d="M460.3,360.9c-3.1-2.6-5.6-5.7-7.9-9c-1.9-2.8-3.4-5.6-4.6-8.5c-3.9-9.6-4.4-19.9-3.5-30.4
			c0.3-4.1-0.8-5.9-5-5.7c0.6-2.4,1.6-3.5,4.1-2.8c11.4,3.2,26.9-12.5,22.4-26.1c-1.6-4.8-5.5-7.4-10.5-6.2
			c-5.7,1.4-10.1,4.7-11.8,10.5c-1,3.8-3.4,5.5-6.8,6.6c0-1.5-0.1-2.7,0-4c0.2-4.8-0.4-9.3-3.4-13.2c-2.8-3.6-5.5-7.1-10.7-6.9
			c-0.7,0-1.6-0.3-2.1-0.8c-3.8-3.2-8.9-2.2-13.1-4.1c-0.4-0.2-1-0.3-1.5-0.2c-4.5,1.5-8.6-1.9-13.1-0.9c-1,0.2-2.2-0.7-2.2-2.1
			c-0.1-1.4,1.1-1.9,2.2-2.3c1.2-0.5,2.8,0.1,3.8-1.1c-7.2-12.6-7.2-12.6-6.8-27.3c0.1-2.2-0.8-1.9-2.2-1.4
			c-5.1,1.7-9.6,4.4-13.6,7.8c-4.6,3.9-8.4,8.3-10.2,14.2c-0.7,2.4-1,4.4,2.7,4.1c2.2-0.2,4.5,0.6,6.3,2.2c0.9,0.8,1.6,1.8,1,3
			c-0.7,1.4-2,0.9-3,0.4c-1.8-0.8-3.7-1.7-5.8-1.4c-3.9,0.6-2,3.7-2.2,5.7c-0.1,1.8,0.5,3.2,3,2.4c2.7-0.9,5.3-0.7,7,2
			c1.8,3,1.5,6-0.1,9c-0.8,1.4-2,2.4-3.7,2.2c-1.7-0.2-2.5-1.5-3.1-2.9c-0.6-1.5-0.4-3.2-0.2-4.8c0.1-0.9,0.1-1.7-1.2-1.9
			c-1.4-0.2-1.8,0.5-1.8,1.7c-0.2,4.2-1.6,8.1-2.7,12.1c-1.8,6.6-1.7,13.1,0.2,19.7c2.5,8.8,6.7,17,9.9,25.6c2,5.2,5.7,7.8,10.9,8.5
			c2.9,0.4,5.8,0.4,8.6-0.1c13.9-2.5,26.6-8.1,38.4-15.6c0.7-0.5,1.3-1.6,2.6-1c-1.6,3-3.8,5.4-6,7.8c-7.2,8.1-14,16.9-24.4,21.4
			c-1.6,0.7-1.3,2-1.1,3.2c0.8,3.4,1.6,6.9,2.4,10.3c0.9,4.1,1.6,8.3,0.9,12.5c-0.1,0.8-0.3,1.6-0.6,2.4c-0.3,1.1-0.2,3.1-1.8,2.8
			c-1.1-0.2-1.1-1.5-1.1-2.7c0-0.2,0-0.4,0-0.6c-0.1-1.5-0.1-3-0.3-4.5c-0.1-1.2-0.7-1.6-2.1-1.4c-4.1,0.7-7.3,3.6-8.3,7.7
			c-0.5,2-0.5,4.2-0.2,6.6c1.1,7.3,6,15.3,12.1,18.4c2.3,1.2,3.9,1.1,6-0.7c10.6-9.3,22.3-17.1,34.5-24.1c6.4-3.7,12.9-7.3,19.3-11
			C463.5,363.6,463.4,363.5,460.3,360.9z M446.7,292.7c1.8-1.7,1.7-3.7,1.5-5.9c-0.4-5.1,4.7-9.4,9.7-8.3c2.5,0.6,4.4,1.9,3.2,5.2
			c-1-0.6-1.9-1.1-2.8-1.5c-1.8-0.8-3.1,0.4-4.5,1.3c-1.4,0.9-0.5,1.9-0.2,3c1.1,4.2-1,7.6-5.1,8.6c-0.9,0.2-1.8,0.3-2.4-0.5
			C445.6,293.9,446.1,293.2,446.7,292.7z M367.4,290.6c-1.1-2.5,0.3-4.3,2.1-5.8c3.6-3.2,5.8-7.4,8.7-11.2c0.1,4-2.2,7-4.5,9.9
			c-3.7,4.7-3.7,4.7-0.3,9.6c0.3,0.4,0.4,0.9,0.7,1.7C370.8,294.6,368.5,293.4,367.4,290.6z M397.8,304.9c-5.2,3.5-11,4.6-17.4,4.8
			c-3.4-0.1-6.9-0.9-9.8-3.4c-0.5-0.5-1.4-0.9-0.9-1.8c0.4-0.8,1.2-0.8,2-0.6c8.6,2.5,17,1.8,25.3-1.5c0.7-0.3,1.5-0.5,1.9,0.5
			C399.4,304,398.6,304.4,397.8,304.9z M404.8,271.9c-0.3,1.6-0.3,3.3-0.9,4.8c-0.8,2.2-2.3,4-5,3.7c-2.6-0.3-3.7-2.2-4.2-4.6
			c-0.4-1.9,1.3-4.4-1.7-5.7c-0.3-0.1,0.5-1,1-1.3c3.1-2.5,6.6-2.8,10.2-1.2c3,1.4,5.5,3.5,8,5.8
			C409.2,275.7,407.5,272.3,404.8,271.9z"/>
		<path class="st40" d="M419.5,487.8c-3.2,2.4-6.5,4.7-9.7,7c-0.2-0.6-0.4-1.1-0.6-1.7c-2.1-5.6-6-9.8-11.7-12.1
			c-0.5-0.2-0.9-0.4-1.3-0.7c-0.2-0.1-0.2-0.4-0.4-0.7c0.4-0.1,0.8-0.3,1.1-0.2C404.5,481.8,412.3,484.3,419.5,487.8z"/>
		<path class="st40" d="M427.1,410c0.3-0.9,0.8-2-0.3-2.7c-0.9-0.5-2-0.2-2.9,0.3c-3,1.6-3.9,4.5-4.6,7.4
			c-2.4,9.2-3.3,18.5-3.3,27.9c0.3,4.3,0.5,8.5,0.8,12.8c0.2,2.1,0.7,4.2,3.4,4.1c2.9-0.2,3.1-2.5,2.8-4.8c-0.4-3.5-0.8-7-0.6-10.5
			C423.1,432.9,423.2,421.2,427.1,410z"/>
		<path class="st40" d="M382.9,411.6c0-2.1-1-4-3-4.2c-2.4-0.3-2.5,2.1-2.7,3.7c-1.3,8.2-1.8,16.4-2.4,24.9c0.3,4.4,0.5,9.1,1,13.7
			c0.2,2.1,0.6,4.6,3.6,4.2c2.9-0.4,2.4-2.8,2.3-4.7c-0.5-10.3-0.5-20.6,0.7-30.8C382.6,416.1,382.8,413.9,382.9,411.6z"/>
		<path class="st19" d="M530.3,373.2c-4.1-6-8.4-11.9-12.5-17.9c-1.2-1.8-1.8-3.6-1.2-6c3-11.9,1.1-22.9-6.2-32.8
			c-1-1.4-2-2.8-3-4.2c-1.7-2.4-3.5-4.7-5.3-7c-6.8-8.2-9.6-17.7-9.8-28.2c-0.1-5.5-0.3-11-0.7-16.5c-1.6-20.1-8.1-37.9-24.4-51.1
			c-12.9-10.5-26.9-18-44.2-17.1c-15.9,0.8-31.4,3.7-46.3,9.2c-10.8,4-20.7,9.7-27.3,19.7c-7.2,10.8-6.7,26.1,1.3,35.4
			c0-5.2-1-10.4,2.2-15.6c-0.2,12.3-0.1,14.5,3.4,20.4c2.4,4.2,2.9,8.2,1.2,12.6c-4.8,12.6-3.7,24.9,1.8,36.9c3,6.6,3.4,13.2,1,20.1
			c-1.7,4.9-1.7,9.9,0.1,14.8c0.9,2.4,0.3,4-1.3,5.7c-4.6,4.9-7.1,10.6-6.9,17.4c0.1,3.4-2.9,5.1-5.4,6.8c-6.3,4.3-12.4,9-17.3,14.8
			c-5.1,5.9-8.6,13-11,20.5c-2.4,7.4-3.7,15.1-4.5,22.8c-0.3,2.7-0.8,3.5-3.5,2c-10.5-5.9-21.1-11.7-31.7-17.4
			c-9.7-5.2-18.9-12.1-30.9-11.2c-2.1,0.2-4.2-0.3-6.4-0.7c-13.3-2-26.7-3-40.1-2.6c-6.2,0.2-8.5,4.7-5.4,10.1
			c1.2,2.2,3.3,3.4,5.6,4.3c6.5,2.6,13.4,3,20.3,3.8c4.4,0.5,8.9,0.9,13.8,3.1c-4.9,2.6-8.7,5.2-12.4,8c-2.7,2.1-3.5,4.7-2.9,8
			c0.5,2.7,1.8,4.9,3.6,6.9c0.9,1,1.6,2,2.1,3.4c3.1,9.3,10.3,15.2,18,20.7c0.5,0.3,1.2,0.3,1.8,0.4c5.3,1.2,9.8-1.4,14.4-3.3
			c1.9-0.8,3.5-1.2,5.3-0.1c5.2,3,10.6,5,16.2,6c5.4,1,11.1,1.2,16.8,0.8c3.7-0.3,6.9,1,9.7,3.4c5.5,4.6,10.8,9.4,16.5,13.7
			c2.6,2,3.8,4.4,4.3,7.5c1.7,10.4,4.7,20.6,6.6,30.9c0.7,3.7,2.4,5.8,4.8,7.3c1.6-0.9,3.1-1.7,4.6-2.6c-3.5-10.6-7-20.8-7.6-31.8
			c0.6,0.1,0.9,0.1,1,0.2c8.9,6.7,17.8,13.5,27.3,19.3c1.8-1.1,3.7-2.3,5.5-3.4c-3.1-1.7-6.2-3.6-9.1-5.7
			c-17.4-12.2-33.7-25.7-49.8-39.6c-4.6-4-9.3-5.9-15.1-4.9c-3.9,0.7-7.6,0.8-11.2,0.3c-6.9-0.8-13.3-3.6-19.5-7.7
			c-5.3-3.5-12.3-2.5-17.9,2.4c3.2,1.3,5.6-0.9,8.4-0.7c-5.9,4.5-11.2,4.4-16-0.1c-3.2-3-3-5.5,0.6-7.9c3.6-2.3,7.3-4.4,11-6.6
			c1.1-0.6,2.2-1.3,3.1-2.1c1.3-1.1,3.4-2.5,1.9-4.2c-1.5-1.6-2.3,1-3.3,1.8c-5.3,4.5-11.7,7.2-17.6,10.9c-2.3,1.4-3.9-0.8-5.1-2.6
			c-1.4-2.1-1.5-4.2,0.7-6c4.1-3.2,8.8-5.4,13.1-8.1c2.1-1.3,4.4-2.4,5.8-4.7c0.5-0.8,1.2-1.9,0.4-2.7c-0.9-0.8-1.5,0.4-2.1,0.9
			c-5.4,4.6-11.8,7.6-17.9,11.1c-2.4,1.4-4.3,1.1-5.7-1.4c-1.3-2.4-1.8-4.9,1-6.6c4.9-3,10-5.8,15-8.7c1.6-0.9,3.4-1.8,4.5-3.3
			c1.2-1.7,1.1-3.6-1.2-3.4c-4.8,0.4-9.2-1.3-13.7-2.2c-7.5-1.6-15.2-1.7-22.8-3c-2.7-0.5-5.4-1-7.7-2.8c-1.3-1-2.6-2.4-2.1-4.1
			c0.5-1.9,2.5-1.4,3.9-1.4c11.8,0.1,23.6,0.7,35.3,2.5c5.6,0.9,11.2,1.3,16.8,1.9c5.4,0.6,9.9,3.4,14.6,5.8
			c15.3,7.8,30.3,16.2,45.4,24.6c19.1,10.6,38.1,21.3,57.7,31c7.5,3.7,15,7.6,22.9,10.6c6.2,2.4,9.2,7.3,10.8,13.1
			c1.2-0.8,2.4-1.7,3.5-2.5c-0.2-0.6-0.4-1.1-0.6-1.7c-2.1-5.6-6-9.8-11.7-12.1c-0.5-0.2-0.9-0.4-1.3-0.7c-0.2-0.1-0.2-0.4-0.4-0.7
			c0.4-0.1,0.8-0.3,1.1-0.2c7.7,2.3,15.4,4.8,22.7,8.3c3.5-2.6,7-5.1,10.5-7.8c0.1-0.1,0.3-0.2,0.4-0.3c-1.6,0.1-3.2,0.5-4.8,1.2
			c-4.4,2-8.6,1.4-12.8-0.3c-7-2.8-14.2-5.1-21.9-4.8c-2.5,0.1-4.7-0.9-6.8-1.9c-12.9-5.9-25.7-12-38.1-19
			c-5.9-3.3-5.8-3.5-4.8-10.1c1-6.8,3-13.4,4.1-20.2c-3.6,5.9-5.1,12.7-8,19.4c-2.5-4.3-1.9-8.8-2.9-14c-1.2,5.4-1.2,9.9-1.4,14.3
			c-0.1,2.1-0.8,2.8-2.7,1.4c-0.1-0.1-0.2-0.1-0.3-0.2c-6.6-3.4-9.2-4.8-9.8-8c-0.4-2.1,0.1-5,1-9.9c1.5-8.5,3.8-16.9,6.7-25
			c1.2-3.6,3.3-6.8,6-9.5c4.8-4.7,10.1-8.7,15.8-12.1c1.7-1,3-1.4,3.9,1.2c2.3,7.1,6.2,13,11.6,17.8c1.7,1.6,3.6,3,5.6,4.4
			c3.2,2.2,4.2,5,3.8,8.7c-1.6,11.7-1.3,23.5-1.4,35.4c0,2.8,0.4,5.5,2.4,7.7c1.4,1.5,1.3,3.5,1.4,5.3c0.1,1.7,0.8,3,2.6,3.1
			c2.2,0.1,2.2-1.7,2.2-3.2c0.2-2.6,0.4-5.2,1.9-7.5c1.2-1.8,0.6-4.2,0.4-6.3c-1.1-10.4-0.9-20.8,0.9-31.1c0.5-3,1.4-4,4.3-2.8
			c1.4,0.6,2.9,0.9,4.6,0.3c-5.6-2.8-9.7-7.6-15.3-10.2c-3.7-1.8-7-4-9.9-6.5c-8.3-7.4-12.8-17.8-12.2-29
			c0.5-10.2,9.7-21.1,19.6-23.3c3.2-0.7,4.1,0.1,3.1,3.3c-0.9,2.8-2.4,5.5-3.6,8.3c-4.4,10.3-5.4,20.6-0.4,31
			c0.2,0.4,0.4,0.8,0.9,1.1c-0.7-4.2-1.6-8.3-1.7-12.5c-0.3-10.4,3.2-19,12.3-24.6c1.6-1,3.6-2.6,5.2,0c1.4,2.4,2.4,4.7-0.9,6.7
			c-8.9,5.2-11.4,17.9-8.4,28.8c0.1,0.5,0.3,1,0.4,1.4c2.9,8.9,8.4,16.2,14.5,23.1c1.5,1.8,2.9,1.6,4.4,0.2c2.7-2.4,5.5-4.8,8.2-7.2
			c15.4-13.7,33.2-23.8,51.4-33.3c8.7-4.5,17.5-8.8,25.8-14c2.7-1.7,6.3-3.5,5.4-7.3c-1-4.3-5.2-4.5-8.6-4.5
			c-6.6-0.1-13.3,0.4-19.9,0.5c-3.4,0.1-6.5-0.6-8.6-3.6c-0.7-0.9-1.6-2.1,0.6-2.3c13.6-1.1,27.1-3.9,40.9-1.4
			c5.4,1,9.3,4.1,11.1,9.1c3,8.6,8.3,15.7,13.9,22.6c4.6,5.7,8.7,11.7,9.6,19c1.6-1.7,3.1-3.4,4.6-5.2
			C534.8,380.5,532.8,376.8,530.3,373.2z M377.1,411.1c0.3-1.6,0.3-4,2.7-3.7c2.1,0.2,3,2.2,3,4.2c0,2.2-0.3,4.5-0.5,6.7
			c-1.2,10.3-1.2,20.5-0.7,30.8c0.1,1.9,0.7,4.4-2.3,4.7c-3,0.4-3.4-2.1-3.6-4.2c-0.5-4.6-0.7-9.2-1-13.7
			C375.3,427.6,375.8,419.3,377.1,411.1z M401.4,239.7c2.1,6.6,5.4,12.2,9.4,17.7C402.5,256.5,398,248.2,401.4,239.7z M460.3,360.9
			c3.2,2.6,3.2,2.7-0.5,4.9c-6.4,3.7-12.8,7.3-19.3,11c-12.2,7-23.9,14.8-34.5,24.1c-2.1,1.8-3.7,1.9-6,0.7
			c-6.1-3.1-11-11-12.1-18.4c-0.4-2.3-0.3-4.5,0.2-6.6c1-4.2,4.2-7,8.3-7.7c1.3-0.2,1.9,0.2,2.1,1.4c0.1,1.5,0.2,3,0.3,4.5
			c0,0.2,0,0.4,0,0.6c0,1.2,0,2.5,1.1,2.7c1.6,0.3,1.5-1.7,1.8-2.8c0.3-0.8,0.5-1.6,0.6-2.4c0.8-4.2,0-8.3-0.9-12.5
			c-0.8-3.4-1.6-6.8-2.4-10.3c-0.3-1.2-0.6-2.5,1.1-3.2c10.4-4.5,17.2-13.2,24.4-21.4c2.2-2.4,4.4-4.8,6-7.8c-1.3-0.6-1.8,0.5-2.6,1
			c-11.9,7.5-24.5,13.1-38.4,15.6c-2.9,0.5-5.8,0.6-8.6,0.1c-5.2-0.8-9-3.4-10.9-8.5c-3.2-8.6-7.4-16.7-9.9-25.6
			c-1.9-6.6-2-13.1-0.2-19.7c1.1-4,2.5-7.9,2.7-12.1c0.1-1.2,0.4-1.9,1.8-1.7c1.3,0.2,1.2,1,1.2,1.9c-0.1,1.6-0.4,3.3,0.2,4.8
			c0.6,1.4,1.4,2.8,3.1,2.9c1.7,0.2,2.9-0.8,3.7-2.2c1.6-2.9,2-6,0.1-9c-1.7-2.7-4.3-2.8-7-2c-2.4,0.8-3.1-0.6-3-2.4
			c0.2-2-1.7-5.1,2.2-5.7c2.1-0.3,3.9,0.6,5.8,1.4c1,0.4,2.3,1,3-0.4c0.6-1.2-0.1-2.2-1-3c-1.8-1.5-4-2.3-6.3-2.2
			c-3.7,0.3-3.5-1.7-2.7-4.1c1.8-5.9,5.6-10.3,10.2-14.2c4-3.4,8.5-6.2,13.6-7.8c1.4-0.4,2.3-0.8,2.2,1.4
			c-0.4,14.8-0.4,14.8,6.8,27.3c-1.1,1.1-2.6,0.6-3.8,1.1c-1.1,0.4-2.2,0.9-2.2,2.3c0.1,1.3,1.2,2.3,2.2,2.1
			c4.5-1.1,8.6,2.4,13.1,0.9c0.4-0.1,1,0,1.5,0.2c4.2,1.9,9.3,0.9,13.1,4.1c0.5,0.5,1.4,0.8,2.1,0.8c5.2-0.2,8,3.4,10.7,6.9
			c3,3.9,3.7,8.4,3.4,13.2c-0.1,1.2,0,2.5,0,4c3.4-1.1,5.8-2.9,6.8-6.6c1.6-5.8,6-9.1,11.8-10.5c4.9-1.2,8.9,1.4,10.5,6.2
			c4.5,13.6-11,29.3-22.4,26.1c-2.4-0.7-3.4,0.4-4.1,2.8c4.2-0.3,5.3,1.6,5,5.7c-0.9,10.5-0.4,20.9,3.5,30.4
			c1.2,2.9,2.7,5.8,4.6,8.5C454.7,355.1,457.2,358.3,460.3,360.9z M502.9,392.4c-19.2,1.1-37.7,5.6-56.2,10.4
			c-4.8,1.2-9.6,2.6-14.6,3.5c3-3.6,6.9-5.8,11.1-7.7c11.6-5.4,24.2-7.2,36.5-10.3c8.9-2.2,17.7-4.6,26-8.8c3.1-1.6,6.1-3.4,8.7-5.8
			c-0.6-0.8-1.2-0.4-1.7-0.1c-13.8,8.8-29.4,12.6-45.2,16c-13,2.8-25,7.6-36.9,13.5c-7.1,3.6-14.2,7.3-21.6,10.5
			c-1,0.4-2.2,0.6-2.7,1.9c2.3,0,4.5,0.1,6.7,0c2.4-0.2,3.5,0.5,3.1,3.2c-1.8,11.6-1.9,23.2-1.6,34.9c0.1,3.2,0,6.2,2.1,8.9
			c1.3,1.6,1,3.8,1,5.8c0.1,1.7,0.2,3.4,2.5,3.5c2.1,0.1,2.9-1.4,2.9-3.2c0-3.5,0.7-6.5,2.6-9.6c1.4-2.4,0.6-5.4,0.2-8.2
			c-1.4-11.3,0-22.3,2.5-33.2c0.7-2.8,1.8-5.1,5-5.9c22.3-5.3,44.2-12.5,67.4-13.7c7-0.4,13.1,1.2,18.5,4.5c1.8-1.8,3.5-3.6,5.3-5.5
			C518.1,392.9,510.8,392,502.9,392.4z M427.1,410c-3.9,11.2-4,22.9-4.7,34.5c-0.2,3.5,0.2,7,0.6,10.5c0.2,2.2,0.1,4.6-2.9,4.8
			c-2.7,0.2-3.2-2-3.4-4.1c-0.3-4.2-0.5-8.5-0.8-12.8c0-9.5,0.9-18.8,3.3-27.9c0.8-2.9,1.6-5.9,4.6-7.4c0.9-0.5,2-0.8,2.9-0.3
			C427.9,407.9,427.4,409.1,427.1,410z M471,437c-1.4,4-2.5,6.8-3.5,9.8c-0.5,1.6-1.1,3.1-1.7,4.7c0.2-0.1,0.4-0.3,0.5-0.4
			c0.6-0.5,1.2-1,1.7-1.5c0.6-0.5,1.2-1,1.8-1.5C470.3,444.6,471.5,441.2,471,437z"/>
		<path d="M394.8,275.8c0.5,2.4,1.6,4.3,4.2,4.6c2.7,0.3,4.2-1.5,5-3.7c0.6-1.5,0.6-3.1,0.9-4.8c2.7,0.5,4.4,3.8,7.5,1.5
			c-2.5-2.3-5-4.4-8-5.8c-3.6-1.7-7-1.3-10.2,1.2c-0.5,0.4-1.3,1.2-1,1.4C396.1,271.3,394.4,273.9,394.8,275.8z"/>
		<path d="M448.6,295.2c4.1-1,6.2-4.4,5.1-8.6c-0.3-1.1-1.2-2.1,0.2-3c1.3-0.9,2.6-2.1,4.5-1.3c0.9,0.4,1.7,0.9,2.8,1.5
			c1.1-3.3-0.7-4.6-3.3-5.2c-5-1.2-10.1,3.1-9.7,8.3c0.2,2.2,0.3,4.2-1.5,5.9c-0.5,0.5-1.1,1.2-0.4,2
			C446.9,295.4,447.7,295.4,448.6,295.2z"/>
		<path d="M370.7,306.4c2.9,2.5,6.4,3.3,9.8,3.4c6.4-0.2,12.2-1.3,17.4-4.8c0.8-0.5,1.6-0.9,1.1-2c-0.4-0.9-1.2-0.7-1.9-0.5
			c-8.3,3.3-16.7,4-25.3,1.5c-0.8-0.2-1.6-0.2-2,0.6C369.3,305.5,370.2,305.9,370.7,306.4z"/>
		<path d="M373.4,293.2c-3.4-5-3.3-5,0.3-9.7c2.3-2.9,4.5-5.9,4.5-9.9c-2.8,3.8-5.1,8-8.7,11.2c-1.8,1.6-3.1,3.3-2.1,5.9
			c1.2,2.8,3.5,3.9,6.7,4.3C373.7,294,373.6,293.5,373.4,293.2z"/>
	</g>
	<path class="st111" d="M331,213.8c0-0.1,0-0.2,0-0.3l0-16c0-10.4,0-19.2,0-28.2c0-0.1,0-0.1,0-0.2c0-8.2,0-16.5,0-26.2
		c0-4.5-2.2-6.8-6.7-6.8c-10.4,0-20.7,0-31.1,0c-4.8,0-9.7,0-14.5,0c-4.8,0-9.7,0-14.5,0c-10.4,0-20.7,0-31.1,0
		c-4.4,0-6.7,2.3-6.7,6.8c0,9.7,0,18,0,26.2c0,0.1,0,0.1,0,0.2c0,9,0,17.8,0,28.2l0,16c0,0.1,0,0.2,0,0.3c0,9.7,0,11.5,0,13.2
		c0,2.4,0,4.8,0,7.2c0,2.3-0.1,4.7,0.3,6.9c0.7,3.2,3,4.5,6.2,4.5c0.2,0,0.3,0,0.5,0c0,0,0,0,0,0c1.4,0,2.9,0,4.3,0l24.6,0
		c5.4,0,10.9,0,16.3,0c5.4,0,10.9,0,16.3,0l24.6,0c1.4,0,2.9,0,4.3,0c0,0,0,0,0,0c0.2,0,0.3,0,0.5,0c2.3,0,4.5-0.6,5.6-2.8
		c1.4-2.8,1-6.2,0.9-9.2c-0.1-2.2,0-4.4,0-6.7C330.9,225.3,330.9,223.5,331,213.8z M325.4,239.8c-1,1.2-3.4,0.5-4.6,0.5
		c-1.3,0-2.7,0-4,0c-2.7,0-5.3,0-8,0c-5.3,0-10.6,0-16,0c-2.6,0-5.1,0-7.7,0c-2.2,0-4.4,0-6.5,0c-2.2,0-4.4,0-6.5,0
		c-8,0-15.9,0-23.9,0c-2.6,0-5.2,0-7.8,0c-2.5,0-5.1,0.2-7.6,0c-0.3,0-0.6-0.1-0.9-0.3c-0.4-0.3-0.6-0.9-0.6-1.4
		c0-7.8,0.1-15.7,0.1-23.5c0-3.4,0-6.9,0-10.3c0-4,0-8,0-12c0-4.3,0-8.6,0-12.9c0-3.2,0-6.5,0-9.7c0-0.9,0-1.8,0-2.7
		c0-0.2,0-0.5,0-0.7l0-22.3c0-1.5,0-2.4,0.3-2.9c0.4-0.4,1.2-0.4,2.7-0.4l43.9-0.2h0.1h0.1l43.9,0.2c1.5,0,2.3,0,2.7,0.4
		c0.3,0.5,0.3,1.3,0.3,2.9l0,22.3c0,0.2,0,0.5,0,0.7l0,44.9c-0.1,0.4-0.1,0.8,0,1.2c0,0,0,0.3,0,0.3c0,3,0,6.1,0,9.1
		c0,2.6,0,5.3,0,7.9c0,1.3,0,2.6,0.1,4c0,1.2,0.2,2.6,0,3.8c0,0.3-0.1,0.7-0.3,0.9C325.5,239.7,325.4,239.7,325.4,239.8z"/>
	<path class="st111" d="M235.9,233.6c-1,0.1-1.9,0.1-2.9,0.2c-1.3,0.1-2.7,0.3-4,0.4c-2.3,0.3-4.7,0.6-7,0.9c-1,0.1-1.9,0.7-1.9,1.9
		c0,1.1,0.8,1.8,1.7,2.1c1.3,0.5,2.6,0.8,4,1.2c-0.3,1.1-1.2,1.4-1.8,2c-2.5,2.2-5,4.4-7.5,6.7c-2.6,2.4-5.2,4.8-7.8,7.3
		c-0.7,0.6-1.3,1.3-2,1.9c-6.2,6.1-12.1,12.6-18,19c-0.8,0.9-1.5,1.9-0.4,3c1,1,2.1,0.6,3.1-0.3c0.5-0.4,0.9-0.9,1.3-1.3
		c5.2-5.6,10.5-11,16.1-16.2c2-1.9,4.1-3.8,6.2-5.6c0.5-0.5,1.1-0.9,1.6-1.4c4-3.6,8.1-7.2,12.6-10.3c0.9,1.7,0.4,3.3,0.8,4.8
		c0.2,0.8,0.5,1.5,1.5,1.6c1,0.1,1.8-0.3,2.1-1.3c0.8-2.2,1.6-4.4,2.4-6.7c0.5-1.4,1-2.7,1.4-4.1c0.3-0.9,0.6-1.8,0.9-2.7
		C238.8,235,237.8,233.5,235.9,233.6z"/>
</g>
</svg>
