<?xml version="1.0" encoding="utf-8"?>
<!-- Generator: Adobe Illustrator 24.3.0, SVG Export Plug-In . SVG Version: 6.00 Build 0)  -->
<svg version="1.1" id="Layer_1" xmlns="http://www.w3.org/2000/svg" xmlns:xlink="http://www.w3.org/1999/xlink" x="0px" y="0px"
	 viewBox="0 0 197.22 165" style="enable-background:new 0 0 197.22 165;" xml:space="preserve">
<style type="text/css">
	.st0{fill:#00B0FB;}
	.st1{fill:#FFFFFF;}
	.st2{fill:#00B0FB;fill-opacity:0.4;}
</style>
<g>
	<path class="st1" d="M154.93,97.5c18.55,6.24,25.17,22.16,24.05,34.38c-1.47,16.11-12.35,27.88-27.77,30.6
		c-8.33,1.47-16.09-0.27-23.2-4.72c-7.12-4.45-11.76-10.91-14.31-18.93c-1.41,0.35-2.73,0.49-3.86,1.01
		c-0.63,0.29-1.24,1.18-1.38,1.89c-0.62,3.25-1.05,6.54-1.6,9.8c-0.53,3.17-2.69,5.24-5.92,5.38c-3.47,0.15-6.96,0.16-10.43,0.01
		c-3.33-0.14-5.47-2.21-6.03-5.57c-0.52-3.11-0.86-6.24-1.44-9.34c-0.15-0.8-0.76-2-1.38-2.15c-6.98-1.67-13.45-4.5-19.57-8.33
		c-2.99,2.19-5.91,4.35-8.86,6.47c-3.43,2.46-6.3,2.24-9.32-0.71c-2.03-1.97-4.03-3.98-6.01-6c-2.83-2.89-3.08-5.86-0.74-9.14
		c1.83-2.56,3.68-5.12,5.6-7.62c0.73-0.95,0.88-1.63,0.18-2.75c-3.42-5.44-5.85-11.32-7.33-17.57c-0.32-1.36-0.95-1.83-2.25-2.01
		c-3.12-0.41-6.22-0.95-9.33-1.46c-3.51-0.57-5.7-2.86-5.84-6.35c-0.12-3.23-0.12-6.47,0-9.7c0.13-3.37,2.3-5.77,5.6-6.34
		c3.02-0.52,6.06-1.01,9.11-1.34c1.57-0.17,2.38-0.64,2.78-2.34c1.43-6.18,3.89-11.97,7.24-17.35c0.7-1.12,0.57-1.79-0.16-2.75
		c-1.96-2.57-3.88-5.17-5.72-7.83c-2.19-3.15-1.95-6.02,0.68-8.75c2.13-2.21,4.3-4.4,6.52-6.51c2.65-2.52,5.54-2.73,8.56-0.62
		c3.11,2.17,6.14,4.44,9.29,6.72c6.11-3.83,12.59-6.63,19.55-8.34c0.62-0.15,1.24-1.35,1.39-2.16c0.57-3.01,0.91-6.07,1.4-9.1
		c0.59-3.65,2.93-5.83,6.54-5.95c3.15-0.11,6.31-0.11,9.46,0c3.52,0.12,5.86,2.27,6.44,5.74c0.53,3.19,0.92,6.4,1.59,9.55
		c0.17,0.78,1.07,1.8,1.83,2.01c6.28,1.7,12.22,4.13,17.82,7.44c0.6,0.35,1.84,0.23,2.45-0.18c2.69-1.79,5.23-3.79,7.86-5.67
		c3.08-2.2,6.05-2.01,8.76,0.59c2.22,2.12,4.39,4.3,6.51,6.52c2.59,2.71,2.81,5.68,0.63,8.77c-1.81,2.58-3.68,5.12-5.63,7.59
		c-0.9,1.14-0.85,2-0.1,3.19c3.39,5.37,5.74,11.2,7.17,17.37c0.33,1.41,1.02,1.81,2.27,1.97c3.04,0.39,6.08,0.84,9.11,1.33
		c3.89,0.63,5.84,2.79,5.94,6.73c0.08,3.15,0.1,6.31-0.02,9.46c-0.14,3.52-2.12,5.67-5.57,6.26c-2.86,0.5-5.72,1.14-8.61,1.35
		c-2.2,0.16-3.19,1.06-3.38,3.16C155.47,95.97,155.17,96.65,154.93,97.5z M151.02,96.51c0.42-1.58,1.02-3.18,1.24-4.83
		c0.3-2.19,1.52-2.93,3.55-3.17c3.53-0.42,7.03-1.07,10.55-1.54c1.97-0.26,2.81-1.3,2.77-3.25c-0.06-2.75-0.05-5.5,0-8.25
		c0.04-1.94-0.74-2.94-2.76-3.21c-3.76-0.49-7.49-1.26-11.25-1.77c-1.62-0.22-2.37-0.9-2.71-2.51c-1.56-7.25-4.24-14.06-8.43-20.21
		c-1-1.47-0.77-2.61,0.25-3.93c2.22-2.88,4.3-5.86,6.5-8.76c1.28-1.69,1.31-3.18-0.3-4.69c-1.82-1.72-3.62-3.47-5.31-5.32
		c-1.6-1.75-3.08-1.96-5.01-0.42c-2.77,2.22-5.75,4.19-8.56,6.36c-1.41,1.09-2.6,1.24-4.15,0.21c-6.05-4.02-12.66-6.79-19.79-8.21
		c-1.94-0.38-2.69-1.38-2.93-3.23c-0.47-3.68-1.1-7.35-1.64-11.02c-0.25-1.7-1.11-2.59-2.9-2.57c-2.91,0.04-5.82,0.04-8.73,0
		c-1.87-0.03-2.77,0.8-3.03,2.68c-0.51,3.68-1.32,7.32-1.71,11.01c-0.23,2.14-1.33,2.87-3.2,3.23c-6.9,1.36-13.28,4.05-19.12,7.92
		c-1.8,1.19-3.13,1.07-4.77-0.22c-2.85-2.25-5.87-4.3-8.77-6.49c-1.5-1.14-2.77-1.01-4.06,0.31c-1.92,1.97-3.84,3.94-5.84,5.82
		c-1.5,1.42-1.64,2.77-0.36,4.44c2.31,3.01,4.62,6.04,6.68,9.22c0.56,0.86,0.73,2.63,0.21,3.44c-4.07,6.33-6.93,13.12-8.42,20.49
		c-0.3,1.46-1.01,2.21-2.55,2.42c-3.84,0.53-7.65,1.28-11.49,1.81c-1.87,0.26-2.72,1.14-2.69,3.02c0.04,2.83,0.06,5.66-0.01,8.49
		c-0.04,1.99,0.85,2.93,2.81,3.19c3.68,0.49,7.34,1.18,11.02,1.65c1.82,0.23,2.64,1.1,3,2.87c1.42,7.13,4.19,13.73,8.21,19.79
		c1.03,1.55,0.89,2.74-0.2,4.15c-2.22,2.88-4.26,5.89-6.5,8.76c-1.37,1.76-1.2,3.15,0.38,4.63c1.88,1.77,3.71,3.61,5.49,5.49
		c1.52,1.61,3,1.59,4.69,0.31c2.9-2.19,5.88-4.28,8.76-6.5c1.32-1.01,2.45-1.26,3.93-0.26c6.22,4.23,13.13,6.84,20.43,8.59
		c0.88,0.21,1.97,1.41,2.17,2.33c0.82,3.87,1.39,7.79,1.95,11.71c0.26,1.79,1.2,2.53,2.92,2.52c2.91-0.02,5.82-0.02,8.73,0
		c1.89,0.02,2.76-0.94,3.01-2.75c0.53-3.76,1.18-7.5,1.7-11.26c0.22-1.59,0.93-2.42,2.55-2.71c1.81-0.32,3.56-0.91,5.29-1.37
		c0-3.63,0-7.07,0-10.7c-11.31,3.97-22.58,4.15-33.74-0.08c-11.18-4.24-19.62-11.75-25.26-22.26c-9.91-18.46-6.36-41.21,8.61-56.09
		c14.75-14.66,37.4-17.95,55.77-8.33c15.76,8.26,32.07,30.23,22.5,59.06C143.95,96.51,147.39,96.51,151.02,96.51z M122.89,73.73
		c-5.21,3.11-10.03,5.89-14.74,8.84c-1.81,1.13-3.49,2.54-5.01,4.04c-2.92,2.9-7.4,3.99-11.18,2.47c-3.92-1.57-6.51-5.45-6.47-9.66
		c0.05-4.11,2.62-8.03,6.57-9.28c2.02-0.63,4.35-0.24,6.4-0.82c6.55-1.83,13.04-3.89,19.63-5.89c-5.66-8.86-18.45-13.64-28.79-10.95
		c-11.93,3.11-20.68,13.33-21.23,24.78c-0.2,4.24-0.26,4.3-4.52,4.3c-3.76,0-7.53,0-11.4,0c0.29,6.36,1.86,11.98,4.46,17.34
		c9.75,20.15,34.49,29.71,55.13,21.21c1.19-0.49,2.5-1.6,2.99-2.74c3.82-8.81,10.05-15.07,18.91-18.8c0.92-0.39,1.97-1.31,2.24-2.2
		c1.44-4.74,2.66-9.55,4.08-14.81c-4.84,0-8.86,0-12.88,0c-3.16,0-3.46-0.32-3.65-3.4C123.36,76.82,123.11,75.48,122.89,73.73z
		 M145.79,158.9c16.22-0.02,29.24-13.06,29.23-29.27c-0.01-16.19-13.09-29.26-29.27-29.25c-16.16,0.01-29.26,13.13-29.25,29.29
		C116.51,145.83,129.62,158.92,145.79,158.9z M97.82,36.16c0,3.91,0,7.67,0,11.62c7.13,0.7,13.43,3.32,18.7,7.72
		c2.9-2.79,5.62-5.42,8.33-8.04C119.53,41.36,106.69,35.94,97.82,36.16z M74.88,55.54c5.38-4.58,11.75-7.07,18.72-7.78
		c0-4.03,0-7.79,0-11.76c-10.49,0.67-19.45,4.4-26.98,11.13C69.47,50.03,72.11,52.72,74.88,55.54z M52.12,77.5
		c4.11,0,7.86,0,11.79,0c0.64-7.18,3.34-13.45,7.74-18.81c-2.84-2.9-5.49-5.6-8.22-8.39C56.51,58.03,52.79,66.98,52.12,77.5z
		 M139.25,77.51c-0.59-10.46-4.3-19.43-11.13-27.04c-2.85,2.84-5.53,5.49-8.23,8.18c1.78,3.07,1.78,3.08,5.08,2.93
		c2.38-0.11,4.06,0.92,4.96,3.09c0.87,2.09,0.12,4.24-1.71,5.85c-0.63,0.55-1.35,1.42-1.36,2.16c-0.03,1.57,0.39,3.15,0.63,4.83
		C131.43,77.51,135.26,77.51,139.25,77.51z M89.51,79.62c0.01,3.34,2.84,6.19,6.18,6.22c3.28,0.02,6.21-2.86,6.28-6.16
		c0.07-3.39-2.91-6.34-6.34-6.29C92.24,73.44,89.49,76.24,89.51,79.62z M106.36,78.92c6.18-3.69,12.43-7.39,18.64-11.16
		c0.52-0.31,0.77-1.06,1.14-1.6c-0.71-0.11-1.48-0.45-2.12-0.28c-2.88,0.77-5.74,1.66-8.59,2.54c-4.07,1.25-8.12,2.53-12.06,3.75
		C104.4,74.48,105.33,76.59,106.36,78.92z"/>
	<path class="st0" d="M151.02,96.51c-3.63,0-7.07,0-10.53,0c9.57-28.84-6.74-50.8-22.5-59.06c-18.37-9.62-41.02-6.33-55.77,8.33
		c-14.97,14.88-18.52,37.63-8.61,56.09c5.64,10.51,14.09,18.03,25.26,22.26c11.16,4.23,22.43,4.05,33.74,0.08c0,3.64,0,7.08,0,10.7
		c-1.73,0.46-3.49,1.05-5.29,1.37c-1.63,0.29-2.34,1.12-2.55,2.71c-0.51,3.76-1.17,7.5-1.7,11.26c-0.25,1.81-1.12,2.77-3.01,2.75
		c-2.91-0.02-5.82-0.02-8.73,0c-1.73,0.01-2.67-0.74-2.92-2.52c-0.56-3.92-1.13-7.84-1.95-11.71c-0.19-0.91-1.28-2.12-2.17-2.33
		c-7.29-1.75-14.2-4.35-20.43-8.59c-1.48-1-2.61-0.75-3.93,0.26c-2.88,2.22-5.86,4.3-8.76,6.5c-1.7,1.28-3.18,1.3-4.69-0.31
		c-1.77-1.88-3.6-3.72-5.49-5.49c-1.57-1.48-1.75-2.87-0.38-4.63c2.24-2.87,4.28-5.88,6.5-8.76c1.09-1.41,1.23-2.6,0.2-4.15
		c-4.01-6.05-6.78-12.66-8.21-19.79c-0.35-1.77-1.18-2.64-3-2.87c-3.68-0.47-7.34-1.16-11.02-1.65c-1.96-0.26-2.85-1.2-2.81-3.19
		c0.06-2.83,0.04-5.66,0.01-8.49c-0.03-1.87,0.82-2.76,2.69-3.02c3.84-0.53,7.65-1.27,11.49-1.81c1.54-0.21,2.26-0.96,2.55-2.42
		c1.49-7.37,4.35-14.16,8.42-20.49c0.51-0.8,0.35-2.57-0.21-3.44c-2.06-3.18-4.37-6.21-6.68-9.22c-1.28-1.67-1.14-3.02,0.36-4.44
		c2-1.89,3.92-3.85,5.84-5.82c1.29-1.32,2.55-1.45,4.06-0.31c2.9,2.19,5.91,4.24,8.77,6.49c1.64,1.29,2.97,1.41,4.77,0.22
		c5.84-3.87,12.22-6.56,19.12-7.92c1.87-0.37,2.97-1.09,3.2-3.23c0.4-3.69,1.21-7.33,1.71-11.01c0.26-1.88,1.15-2.71,3.03-2.68
		c2.91,0.04,5.82,0.04,8.73,0c1.79-0.02,2.65,0.87,2.9,2.57c0.54,3.68,1.17,7.34,1.64,11.02c0.24,1.85,0.99,2.84,2.93,3.23
		c7.13,1.41,13.74,4.19,19.79,8.21c1.55,1.03,2.74,0.88,4.15-0.21c2.81-2.17,5.78-4.14,8.56-6.36c1.93-1.54,3.41-1.33,5.01,0.42
		c1.69,1.85,3.49,3.6,5.31,5.32c1.61,1.52,1.58,3,0.3,4.69c-2.2,2.9-4.28,5.88-6.5,8.76c-1.02,1.32-1.25,2.45-0.25,3.93
		c4.19,6.15,6.87,12.97,8.43,20.21c0.35,1.61,1.09,2.29,2.71,2.51c3.76,0.51,7.48,1.28,11.25,1.77c2.03,0.27,2.8,1.27,2.76,3.21
		c-0.05,2.75-0.05,5.5,0,8.25c0.04,1.96-0.8,2.99-2.77,3.25c-3.52,0.47-7.02,1.12-10.55,1.54c-2.03,0.24-3.26,0.98-3.55,3.17
		C152.04,93.33,151.44,94.93,151.02,96.51z"/>
	<path class="st2" d="M97.82,36.16c8.86-0.21,21.71,5.2,27.03,11.29c-2.72,2.62-5.44,5.25-8.33,8.04
		c-5.26-4.39-11.57-7.01-18.7-7.72C97.82,43.83,97.82,40.07,97.82,36.16z"/>
	<path class="st2" d="M74.88,55.54c-2.77-2.82-5.41-5.51-8.26-8.41C74.16,40.4,83.11,36.67,93.6,36c0,3.97,0,7.73,0,11.76
		C86.63,48.47,80.27,50.96,74.88,55.54z"/>
	<path class="st2" d="M52.12,77.5c0.68-10.52,4.39-19.47,11.31-27.21c2.74,2.8,5.38,5.49,8.22,8.39c-4.4,5.36-7.1,11.63-7.74,18.81
		C59.98,77.5,56.23,77.5,52.12,77.5z"/>
	<path class="st2" d="M139.25,77.51c-3.99,0-7.82,0-11.76,0c-0.25-1.68-0.66-3.26-0.63-4.83c0.01-0.74,0.74-1.61,1.36-2.16
		c1.83-1.6,2.58-3.75,1.71-5.85c-0.9-2.17-2.58-3.2-4.96-3.09c-3.3,0.15-3.3,0.13-5.08-2.93c2.7-2.69,5.38-5.34,8.23-8.18
		C134.96,58.08,138.66,67.04,139.25,77.51z"/>
	<path class="st0" d="M89.51,79.62c-0.01-3.38,2.73-6.18,6.11-6.24c3.44-0.05,6.41,2.9,6.34,6.29c-0.07,3.31-3,6.19-6.28,6.16
		C92.35,85.82,89.52,82.97,89.51,79.62z"/>
	<path class="st0" d="M106.36,78.92c-1.03-2.33-1.96-4.43-2.99-6.75c3.94-1.23,7.99-2.5,12.06-3.75c2.85-0.88,5.71-1.77,8.59-2.54
		c0.64-0.17,1.41,0.17,2.12,0.28c-0.37,0.54-0.63,1.29-1.14,1.6C118.79,71.52,112.55,75.23,106.36,78.92z"/>
	<path class="st1" d="M145.01,143.26c-9.15-0.15-16.61-4.75-22.77-11.92c-1.02-1.19-0.94-2.26,0.05-3.44
		c13.07-15.63,33.37-16.04,46.87-0.15c1.05,1.24,1.21,2.4,0.11,3.66C163,138.61,155.47,143.25,145.01,143.26z M165.28,129.63
		c-11.91-13.98-30.06-11.57-38.95,0.18C136.77,142.37,155.4,142.35,165.28,129.63z"/>
	<path class="st2" d="M165.28,129.63c-9.88,12.72-28.51,12.75-38.95,0.18C135.22,118.06,153.37,115.65,165.28,129.63z M145.8,137.75
		c4.49-0.02,8.13-3.73,8.07-8.21c-0.06-4.38-3.66-7.98-8.03-8.03c-4.44-0.05-8.19,3.65-8.21,8.1
		C137.62,134.08,141.33,137.77,145.8,137.75z"/>
	<path class="st1" d="M145.8,137.75c-4.47,0.02-8.18-3.68-8.16-8.13c0.02-4.45,3.76-8.15,8.21-8.1c4.37,0.05,7.97,3.65,8.03,8.03
		C153.94,134.03,150.29,137.74,145.8,137.75z M145.75,125.65c-2.46,0.01-4.04,1.66-3.98,4.14c0.06,2.28,1.75,3.94,4.02,3.93
		c2.23-0.01,3.99-1.73,4.05-3.96C149.9,127.4,148.14,125.64,145.75,125.65z"/>
	<path class="st0" d="M145.75,125.65c2.39-0.01,4.14,1.76,4.08,4.1c-0.06,2.23-1.82,3.95-4.05,3.96c-2.26,0.01-3.96-1.65-4.02-3.93
		C141.71,127.3,143.29,125.66,145.75,125.65z"/>
</g>
</svg>
