<?xml version="1.0" encoding="utf-8"?>
<!-- Generator: Adobe Illustrator 25.0.0, SVG Export Plug-In . SVG Version: 6.00 Build 0)  -->
<svg version="1.1" id="Layer_1" xmlns="http://www.w3.org/2000/svg" xmlns:xlink="http://www.w3.org/1999/xlink" x="0px" y="0px"
	 viewBox="0 0 564.27 478" style="enable-background:new 0 0 564.27 478;" xml:space="preserve">
<style type="text/css">
	.st0{fill:#185AE9;}
	.st1{fill:#00B0FB;}
	.st2{fill:#00B0FB;fill-opacity:0.4;}
	.st3{fill:#FFFFFF;}
	.st4{fill:#3C7CFF;}
	.st5{fill:#001135;}
	.st6{fill:#FDFDFD;}
	.st7{fill:#DBDBDB;}
	.st8{fill:none;}
	.st9{fill:#040404;}
	.st10{fill:#030303;}
	.st11{fill:#060606;}
</style>
<g>
	<g>
		<path d="M347.06,460.92c-0.17-5.26-1.86-10.17-3.9-14.98c-5.48-12.72-13.33-23.95-21.76-34.8c-4.88-6.28-9.96-12.38-15.2-18.33
			c-1.52-1.73-3.06-3.45-4.61-5.15c-2.36-2.61-4.77-5.19-7.2-7.74c-1.74-1.83-3.49-3.65-5.26-5.45
			c-6.01-6.14-12.18-12.14-18.46-18.02c-0.89-0.84-1.79-1.67-2.7-2.51c-0.68-0.64-1.37-1.28-2.06-1.91
			c-4.12-3.8-8.29-7.56-12.48-11.27c-0.26-0.24-0.52-0.47-0.79-0.7c-4.23-3.75-8.5-7.46-12.81-11.12c-0.59-0.5-1.19-1.01-1.79-1.51
			c-0.57-0.49-1.15-0.98-1.74-1.46c-0.17-0.15-0.35-0.29-0.52-0.43c-10.51-8.84-21.23-17.43-32.15-25.73
			c-1.07-0.81-2.14-1.62-3.22-2.44c-0.15-0.11-0.3-0.23-0.45-0.34c-3.47-2.62-6.97-5.2-10.48-7.77c-3.23-2.35-6.47-4.68-9.73-6.97
			c-1.17-0.84-2.35-1.67-3.53-2.49c-11.53-8.07-23.28-15.85-35.24-23.33c-1.83-1.15-3.67-2.29-5.51-3.42
			c-1.12-0.69-2.24-1.38-3.36-2.06c-5.73-3.49-11.51-6.91-17.35-10.22c-1.54-0.88-3.09-1.75-4.65-2.61
			c-14.94-8.3-30.27-15.85-46.2-22.2c-13.97-5.54-28.14-10.4-43.57-11.02c-2.2,0.23-4.58,0.17-6.9,0.51
			C4.63,206.86-0.12,212.4,0,221.27c0.04,4.81,1.36,9.27,3.11,13.67c4.57,11.59,11.35,21.88,18.7,31.77
			c9.17,12.33,19.13,23.93,29.64,35.03c1.43,1.52,2.88,3.02,4.33,4.52c1,1.04,2.02,2.07,3.03,3.1c0.97,1,1.95,1.98,2.93,2.96
			c1.76,1.76,3.53,3.5,5.31,5.25c0.03,0.03,0.07,0.07,0.11,0.1c0.94,0.93,1.9,1.85,2.85,2.76c0.2,0.2,0.4,0.39,0.6,0.57
			c0,0.03,0.01,0.03,0.01,0.03c0.12,0.11,0.23,0.22,0.35,0.33c2.87,2.77,5.78,5.52,8.71,8.24c1.03,0.96,2.07,1.91,3.1,2.86
			c0.71,0.67,1.43,1.33,2.15,1.99c0.7,0.64,1.41,1.28,2.12,1.92c0.53,0.48,1.06,0.98,1.61,1.46c0.56,0.51,1.12,1.01,1.68,1.5
			c2.26,2.05,4.54,4.07,6.83,6.08c0.28,0.23,0.55,0.48,0.82,0.71c0.1,0.09,0.19,0.18,0.29,0.26c0.58,0.5,1.15,1,1.73,1.5
			c0.27,0.24,0.54,0.48,0.8,0.69c2.78,2.42,5.57,4.81,8.38,7.17c1.14,0.97,2.27,1.92,3.41,2.87c1.06,0.89,2.12,1.76,3.19,2.64
			c2.21,1.83,4.45,3.66,6.69,5.47c0.01,0,0.01,0,0.01,0.01c2.18,1.76,4.36,3.51,6.55,5.24c0.2,0.16,0.41,0.32,0.61,0.48
			c0.93,0.74,1.86,1.48,2.8,2.21c0.92,0.72,1.84,1.43,2.76,2.14c1.2,0.95,2.41,1.88,3.63,2.81c3.76,2.89,7.54,5.76,11.35,8.58
			c0.81,0.61,1.62,1.22,2.43,1.82c1.77,1.31,3.54,2.61,5.32,3.9c1.03,0.75,2.06,1.49,3.09,2.23c2.56,1.87,5.15,3.71,7.74,5.54
			c0.05,0.03,0.09,0.07,0.14,0.1c0.15,0.11,0.29,0.2,0.44,0.31c0.84,0.59,1.66,1.17,2.51,1.75c0.16,0.11,0.32,0.22,0.48,0.33
			c0.09,0.07,0.19,0.14,0.29,0.2c3.62,2.55,7.25,5.05,10.92,7.52c2.47,1.69,4.95,3.35,7.44,4.99c1,0.67,2,1.34,3.02,1.98
			c0.26,0.17,0.5,0.33,0.76,0.5c0.89,0.59,1.78,1.17,2.68,1.76c1.06,0.67,2.11,1.36,3.17,2.04c4.61,2.94,9.26,5.84,13.95,8.67
			c1.07,0.66,2.14,1.3,3.21,1.94c0.8,0.48,1.59,0.95,2.38,1.42c1.06,0.63,2.13,1.26,3.2,1.89c6.44,3.76,12.94,7.41,19.54,10.93
			c3.81,2.03,7.64,4.02,11.5,5.95c0.98,0.51,1.96,0.99,2.94,1.49c3.01,1.49,6.03,2.95,9.06,4.37v0.01c1.34,0.62,2.67,1.24,4.01,1.84
			c2.28,1.04,4.58,2.05,6.89,3.03c9.41,3.99,19.04,7.48,29.02,10.12c8.64,2.26,17.35,3.95,26.38,2.82
			C342.37,476.4,347.4,470.64,347.06,460.92z"/>
		<path d="M341.91,464.26c-0.72,5.01-3.85,7.64-9.84,8.42c-1.69,0.21-3.47,0.32-5.27,0.32c-6.76,0-13.51-1.53-19.21-3.02
			c-8.97-2.37-18.24-5.61-28.33-9.88c-2.32-0.99-4.59-1.99-6.77-2.98c-1.08-0.48-2.12-0.96-3.17-1.45l-0.54-0.25
			c-0.08-0.04-0.17-0.09-0.25-0.13c-2.87-1.34-5.89-2.8-8.97-4.32l-1.15-0.59c-0.57-0.28-1.13-0.56-1.7-0.86
			c-3.69-1.84-7.41-3.77-11.45-5.92c-6.33-3.38-12.66-6.92-19.37-10.84c0,0-2.32-1.36-3.17-1.87c-0.78-0.46-1.57-0.93-2.36-1.41
			c-1.06-0.63-2.11-1.26-3.16-1.91c-4.45-2.68-8.98-5.5-13.88-8.63l-1.22-0.78c-0.66-0.43-1.31-0.85-1.97-1.27l-3.38-2.22
			c-1.05-0.66-2.01-1.3-2.97-1.94c-2.7-1.78-5.11-3.4-7.4-4.97c-3.64-2.44-7.28-4.95-10.87-7.48c-0.06-0.04-0.82-0.57-0.82-0.57
			c-0.7-0.47-1.37-0.95-2.05-1.43c0,0-0.95-0.66-1-0.7c-2.45-1.73-5.08-3.6-7.66-5.48l-0.24-0.18c-0.95-0.68-1.9-1.36-2.85-2.05
			c-1.78-1.29-3.53-2.58-5.29-3.88c-0.8-0.59-1.6-1.19-2.4-1.79c-3.42-2.54-7.11-5.32-11.31-8.55c-1.21-0.93-2.39-1.84-3.57-2.77
			c-0.97-0.75-1.87-1.45-2.78-2.16c-0.9-0.7-1.78-1.39-2.65-2.09l-0.72-0.56c-2.18-1.73-4.33-3.45-6.48-5.19
			c-0.02-0.01-0.04-0.03-0.06-0.05c-2.22-1.8-4.45-3.61-6.64-5.43l-0.16-0.13c-1.01-0.83-2.01-1.65-3.01-2.49
			c-1.14-0.95-2.26-1.89-3.38-2.85c-2.73-2.28-5.45-4.61-8.34-7.13c-0.05-0.04-0.09-0.08-0.14-0.12c-0.2-0.16-0.41-0.35-0.62-0.53
			c0,0-1.82-1.58-1.84-1.6l-0.53-0.47c-0.18-0.16-0.36-0.32-0.55-0.48c-2.65-2.32-4.78-4.22-6.71-5.97
			c-0.61-0.53-1.14-1.01-1.68-1.5c-0.02-0.02-0.05-0.04-0.08-0.07c-0.32-0.28-0.64-0.57-0.95-0.86l-0.79-0.72
			c-0.64-0.57-1.27-1.15-1.9-1.72c-0.7-0.64-1.4-1.29-2.1-1.94l-1.11-1.02c-0.67-0.62-1.34-1.24-2.01-1.86
			c-2.98-2.77-5.89-5.52-8.64-8.18c-0.04-0.03-0.13-0.12-0.13-0.12c-0.11-0.12-0.23-0.24-0.35-0.34c-0.14-0.13-0.28-0.26-0.42-0.41
			c-0.02-0.02-0.05-0.05-0.08-0.07c-0.93-0.89-1.87-1.79-2.79-2.7l-0.18-0.18c-1.75-1.72-3.49-3.43-5.22-5.15
			c-0.96-0.97-1.92-1.93-2.87-2.91l-0.77-0.78c-0.75-0.77-1.51-1.53-2.25-2.31l-0.11-0.11c-1.4-1.45-2.8-2.9-4.18-4.37
			c-11.13-11.75-20.7-23.06-29.27-34.58c-6.31-8.49-13.39-18.77-18.06-30.62c-1.88-4.74-2.73-8.4-2.76-11.88
			c-0.05-3.63,0.88-6.3,2.86-8.12c-0.86-1.53-1.44-3.22-1.69-4.99c-4.11,2.71-6.25,7.17-6.17,13.16c0.04,4.81,1.36,9.27,3.11,13.67
			c4.57,11.59,11.35,21.88,18.7,31.77c9.17,12.33,19.13,23.93,29.64,35.03c1.43,1.52,2.88,3.02,4.33,4.52c1,1.04,2.02,2.07,3.03,3.1
			c0.97,1,1.95,1.98,2.93,2.96c1.76,1.76,3.53,3.5,5.31,5.25c0.03,0.03,0.07,0.07,0.11,0.1c0.94,0.93,1.9,1.85,2.85,2.76
			c0.2,0.2,0.4,0.39,0.6,0.57c0,0.03,0.01,0.03,0.01,0.03c0.12,0.11,0.23,0.22,0.35,0.33c2.87,2.77,5.78,5.52,8.71,8.24
			c1.03,0.96,2.07,1.91,3.1,2.86c0.71,0.67,1.43,1.33,2.15,1.99c0.7,0.64,1.41,1.28,2.12,1.92c0.53,0.48,1.06,0.98,1.61,1.46
			c0.56,0.51,1.12,1.01,1.68,1.5c2.26,2.05,4.54,4.07,6.83,6.08c0.28,0.23,0.55,0.48,0.82,0.71c0.1,0.09,0.19,0.18,0.29,0.26
			c0.58,0.5,1.15,1,1.73,1.5c0.27,0.24,0.54,0.48,0.8,0.69c2.78,2.42,5.57,4.81,8.38,7.17c1.14,0.97,2.27,1.92,3.41,2.87
			c1.06,0.89,2.12,1.76,3.19,2.64c2.21,1.83,4.45,3.66,6.69,5.47c0.01,0,0.01,0,0.01,0.01c2.18,1.76,4.36,3.51,6.55,5.24
			c0.2,0.16,0.41,0.32,0.61,0.48c0.93,0.74,1.86,1.48,2.8,2.21c0.92,0.72,1.84,1.43,2.76,2.14c1.2,0.95,2.41,1.88,3.63,2.81
			c3.76,2.89,7.54,5.76,11.35,8.58c0.81,0.61,1.62,1.22,2.43,1.82c1.77,1.31,3.54,2.61,5.32,3.9c1.03,0.75,2.06,1.49,3.09,2.23
			c2.56,1.87,5.15,3.71,7.74,5.54c0.05,0.03,0.09,0.07,0.14,0.1c0.15,0.11,0.29,0.2,0.44,0.31c0.84,0.59,1.66,1.17,2.51,1.75
			c0.16,0.11,0.32,0.22,0.48,0.33c0.09,0.07,0.19,0.14,0.29,0.2c3.62,2.55,7.25,5.05,10.92,7.52c2.47,1.69,4.95,3.35,7.44,4.99
			c1,0.67,2,1.34,3.02,1.98c0.26,0.17,0.5,0.33,0.76,0.5c0.89,0.59,1.78,1.17,2.68,1.76c1.06,0.67,2.11,1.36,3.17,2.04
			c4.61,2.94,9.26,5.84,13.95,8.67c1.07,0.66,2.14,1.3,3.21,1.94c0.8,0.48,1.59,0.95,2.38,1.42c1.06,0.63,2.13,1.26,3.2,1.89
			c6.44,3.76,12.94,7.41,19.54,10.93c3.81,2.03,7.64,4.02,11.5,5.95c0.98,0.51,1.96,0.99,2.94,1.49c3.01,1.49,6.03,2.95,9.06,4.37
			v0.01c1.34,0.62,2.67,1.24,4.01,1.84c2.28,1.04,4.58,2.05,6.89,3.03c9.41,3.99,19.04,7.48,29.02,10.12
			c8.64,2.26,17.35,3.95,26.38,2.82c8.55-1.1,13.47-5.74,14.26-13.52C345.3,464.46,343.59,464.51,341.91,464.26z"/>
	</g>
	<g>
		<path class="st9" d="M327.44,245.87c-21.53-2.7-42.85,2.51-64.46-0.71c-1.57-6.23-3.11-12.96-4.98-19.6
			c-2.09-7.4-3.24-14.83-3.22-22.56c0.03-9.03-1.03-17.99-3.76-26.68c-2.26-7.18-5.93-12.96-13.29-16.01
			c-5.49-2.28-10.73-5.16-16.08-7.79c-7.98-3.92-15.94-7.88-20.15-16.42c-0.11-0.21-0.18-0.44-0.35-0.84
			c4.04-1.35,5.92-4.28,6.11-8.46c0.06-1.37,0.42-2.7,1.29-3.89c2.07-2.8,3.79-5.79,4.13-9.36c0.13-1.34,1.13-1.91,2.11-2.35
			c2.83-1.28,3.27-3.54,2.73-6.22c-0.66-3.27-0.94-6.54-0.6-9.46c1.17-1.37,2.65,0.25,3.54-0.83c0.2-1.68-1.71-1.9-1.84-3.3
			c3.99-0.88,6.07-3.18,6.23-7.47c0.16-4.29,1.03-8.54,1.29-12.83c0.15-2.51,0.57-4.27,3.11-5.65c3.51-1.91,4.75-5.5,5.26-9.27
			c-1.81,0.88-2.16,3.01-4.08,3.95c4.62-9.12,4.73-10.24,1.61-16.12c-0.76,1.35,0.32,2.98-0.81,4.62c-0.71-1.31-1.29-2.52-1.99-3.64
			c-2.35-3.74-5.35-7.69-9.7-7.8c-4.41-0.11-7.64-2.29-11.41-3.5c-2.8-0.9-5.33-3.04-8.59-2.1c0.64,0.07,1.29,0.12,1.59,0.9
			c-0.73,1.13-1.5,0.18-2.25,0c-0.4-0.07-0.81-0.12-1.21-0.22c-13.92-3.42-27.47-3.81-39.89,4.9c-0.38,0.27-1,0.49-0.89,1.17
			c1.11,0.37,2.34-1.29,3.56,0.45c-1.75,1.09-3.51,2.12-5.21,3.24c-3.58,2.35-6.77,5.29-7.52,9.57c-1.07,6.13-2.29,12.27-2.5,18.53
			c-0.27,7.88,1.58,15.42,3.8,22.86c2.12,7.11,1.88,13.89-1.82,20.47c-2.14,0.16-4.3,0.42-5.84,1.93
			c-4.07,3.99-7.89,8.27-10.83,13.12c-1.01,1.67-1.95,2.75-3.6,3.5c-7.32,3.31-14.64,6.61-21.93,9.98
			c-9.56,4.42-19.2,8.66-28.31,13.98c-5.29,3.08-8.79,7.32-10.08,13.53c-1.8,8.7-3.42,17.41-4.51,26.23
			c-2.07,16.67-3.95,33.35-4.43,50.15c-0.12,4.1-0.72,7.95-2.35,11.72c-1.74,4.03-2.26,8.18-1.23,12.59
			c1.16,4.96,2.49,9.95,1.7,15.16c-0.26,1.73,0.56,3.16,1.54,4.6c4.4,6.48,10.41,10.99,17.33,14.42c1.8,0.89,3.7,1.08,5.67,1.03
			c2.94-0.07,5.73-1.01,8.61-1.4c7.1-0.97,13.24-5.73,21.12-5.03c-0.2,6.72-0.71,13.97,7.33,17.24c-0.09,1.14-0.09,1.83-0.2,2.5
			c-1.6,10.43-3.79,20.76-5.7,31.14h14.61c1.15-5.14,2.12-10.33,2.98-15.54c-3.08-1.97-6.74-2.13-9.42-4.67
			c4.17,1.12,8.34,2.24,13.28,3.57c-2.97,0.97-2.55,2.92-2.63,4.6c-0.21,4.12-0.74,8.13-1.55,12.05h22.51v21.83h46.76
			c0.9-8.43,1.81-16.98,2.77-25.95c1.57,5.3,1.22,16.65-0.3,25.95h44.82c-0.53-3.96-1.09-7.93-1.69-11.89
			c-1.83-12.03-5.24-23.83-4.64-36.21c0.18-3.66,1.38-6.79,2.29-10.61c10.57,6.84,19.76,3.47,28.22-3.26
			c4.34-3.45,9.32-5.72,13.89-8.71c2.07-1.35,3.91-2.52,4.72-4.89c0.4-1.18,0.74-2.4,1.6-3.35c1.45-1.6,2.53-3.5,3.31-5.51
			c0.91-2.33,1.46-4.79,2.03-7.22c0.36-1.51,0.59-3.06,1.23-4.49c0.81-1.82,2.26-3.19,3.81-4.39c1.46-1.13,3.07-2.05,4.61-3.07
			c7.68-4.96,15.38-9.9,23.1-14.86C327.9,250.67,327.98,248.22,327.44,245.87z M209.85,150.94c10.57,5.66,20.71,10.79,30.89,15.85
			c3.03,1.51,4.09,4.81,5.2,7.76c3.26,8.66,4.66,17.65,4.51,26.9c-0.07,4.32-0.44,8.55-1.79,12.71c-0.72,2.2-1.27,4.54-0.97,7.32
			c2.03-1.1,2-3.69,3.94-4.66c2.54,9.6,5.05,19.1,7.62,28.83c-3.39,1.11-6.82,1.07-10.21,1.07c-3.81,0-6.08,2.93-9.51,4.63
			c-0.51-7.4,2.39-13.93,3.6-20.72c-0.22-0.17-0.43-0.34-0.64-0.53c-1.75,1.31-2.02,3.84-4.6,5.35c0.74-15.17,3.99-29.44,7.26-43.76
			c-2.42,2.02-2.55,5.16-4.57,7.8c-0.86-6.28-1.68-12.17-2.49-18.08c-1.48,0.05-0.87,1.16-0.88,1.81
			c-0.1,7.49-0.37,14.99-0.14,22.48c0.21,7.01-0.61,13.87-2.17,20.63c-2.22,9.67-3.65,19.35-2.16,29.47
			c-1.91,1.2-3.74,2.35-5.58,3.5c-4.05-3-5.37-7.88-8.74-11.14c3.43-3.67,3.56-9.33,0.19-12.64c-2.22-2.18-3.22-5.15-5.31-7.42
			c-1.44-1.56-2.85-2.36-5.02-2.25c-4.57,0.23-9.15,0.26-13.73,0.32c-4.02,0.05-4.91-1.06-5.34-5.07
			c-0.97-9.1-1.96-18.21-3.32-27.25c-0.98-6.53,1.33-11.65,5.55-16.25c1.41-1.53,2.73-3.17,4.29-4.54c3.87-3.4,6.7-7.09,4.03-12.85
			c5.08-0.1,7.8,3.73,11.91,5.24C212.69,160.46,211.34,156.01,209.85,150.94z M199.98,276.57c-0.53,1.1-1.47,1.25-2.87,1.54
			c-0.21-3.1-1.52-5.86-0.87-9.05c3.56-2.28,8.25-1.02,11.67-3.74c3.34-2.67,4.59-6.83,7.38-10.14c3.69,0.95,6.69,3.02,9.83,5.28
			c-7.46,5.12-14.74,10.06-22.68,14.55c-1.21-0.42-1.73-2.23-3.26-1.18C198.32,275.06,199.96,275.63,199.98,276.57z M216.66,249.82
			c1.36,1.58,3,1.93,2.59,3.72C217.43,253.4,216.8,252.34,216.66,249.82z M219.31,253.56c0.18-0.19,0.37-0.21,0.48,0.01
			c0.06,0.12-0.06,0.33-0.11,0.5C219.56,253.9,219.44,253.73,219.31,253.56z M205.83,149.57c-4.59,1.58-6.56,5.24-8.98,8.36
			c-1.25,1.61,0.02,3.47,0.3,5.19c0.24,1.53,0.73,3.03-0.6,4.27c-3.22,3.04-5.59,6.8-8.96,10.01c1.12-4.39,2.23-8.78,3.37-13.16
			c1.21-4.68,2.55-9.33,2.49-14.24c-0.06-4.69-0.01-9.38-0.01-14.3c2.85-0.48,4.71,0.38,6.09,3.17
			C201.29,142.44,203.56,145.76,205.83,149.57z M224.31,54.28c-0.17-4.1-1.44-7.83-4.48-11.51
			C224.81,45.43,225.92,48.45,224.31,54.28z M218.04,57.39c-1.73-10.81-10.2-14.72-19.67-18.72
			C212.29,40.27,221.9,49.76,218.04,57.39z M199.47,47.29c4.39,0.31,8.03,2.03,10.47,5.86c0.21,0.26,0.42,0.52,0.63,0.79
			c0.63,0.89,1.47,1.7,1.07,2.94c-0.52-0.83-1.03-1.66-1.54-2.49c-0.52,0.01-0.81-0.26-0.9-0.76c-4.74-3.27-10.1-4.39-15.74-4.34
			c-2.61,0.02-5.08-0.47-7.53-1.38C190.47,48.05,194.94,46.98,199.47,47.29z M194.21,54.26c-6.94,2.28-13.58,2.16-19.44-3.04
			C181.01,53.9,187.57,54.16,194.21,54.26z M184.13,58.9c-2.47,0.65-5,0.62-7.53,0.15C179.07,58.26,181.57,58.49,184.13,58.9z
			 M154.71,76.85c2.29-4.79,6.16-5.46,9.91-1.69c2.61,2.62,3.46,5.34,3.78,12.46c2.2,0.7,4.27,1.37,6.32,2.02
			c1.26-1.36,1.09-2.97,1.31-4.43c0.81-5.29,3.22-9.25,8.39-11.47c3.61-1.55,4.45-3.55,3.17-7.48c-0.45-1.37,0.67-1.18,0.79-1.82
			c0.13-0.65,0.22-0.63-1.34-2.09c1.59-1.49,4.47-0.95,5.44-3.36c0.06-0.15,0.57-0.28,0.77-0.19c4.9,2.2,10.83-1,15.42,3.04
			c1.33,1.16,3.08,1.84,4.65,2.73c4.01,2.25,4.01,2.25,9.93,2.76c0.47,5.67-0.91,11.24-1.3,16.86c-0.11,1.59-1.51,2.23-2.77,2.84
			c-4.15,2.01-5.95,5.11-5.06,9.8c0.54,2.85,0.74,5.77,0.96,8.67c0.23,2.93-1.52,4.53-4.2,3.71c-0.91-0.28-1.76-0.71-2.75-0.66
			c-1.04,0.05-2.07,0.11-3.43,0.18c1.72,1.06,3.33,1.3,5.39,1.65c-1.32,1.68-0.38,3.65-1.13,5.67c-4.31-0.89-8.57-0.64-13.22-1.01
			c1.62,2.28,3.88,1.58,5.65,2.17c1.94,0.65,4.19,0.16,6.23,1.77c-1.08,4.09-4.74,0.88-6.65,2.25c0.44,1.61,2.54,0.97,3.21,2.54
			c0,1.01,0.04,2.26-0.01,3.5c-0.11,2.82-1.79,4.25-4.42,4.68c-3.42,0.55-6.66-0.12-9.59-1.91c-7.6-4.65-14.38-10.39-21.27-15.99
			c-2.26-1.83-2.7-4.5-2.85-7.13c-0.18-3.31-0.04-6.64-0.04-10.57c-5.71,1.3-8.34-1.9-10.41-5.93
			C153.35,86.01,152.46,81.55,154.71,76.85z M157.58,98.73c2.02,0.54,4.03,0.78,6.03,0.8c1.09,16.9,9.74,31.84,23.43,40.4
			c-1.13,3.48-2.19,6.75-3.31,10.2c1.6-0.5,1.52-2.39,3.17-2.77c4.63,10.03-0.85,19.01-2.87,29.18c-3.33-5.58-7.2-9.69-11.54-13.36
			c-1.32-1.11-1.63-2.55-1.4-4.13c0.82-5.59-1.59-9.85-5.25-13.81c-5.46-5.91-10.94-11.81-15.32-18.63
			c-1.12-1.75-2.39-3.41-3.08-5.83C151.75,114.14,153.14,105.86,157.58,98.73z M135.59,127.39c2.61-2.79,4.95-5.84,7.89-8.48
			c4.34,12.1,12.96,20.91,20.96,30.33c-4.16-1.73-7.31,0.29-10.47,2.3c-4.08,2.6-7.26,6.4-11.52,8.78
			c-1.22-0.62-1.26-1.79-1.57-2.79c-2.33-7.38-4.64-14.76-6.98-22.14C132.94,132.38,133.34,129.8,135.59,127.39z M58.46,262.49
			c4.91-10.74,4.09-22.25,4.72-33.52c0.49-8.65,4.35-16.26,6.39-24.42c0.2-0.78,0.78-1.48,0.34-2.7c-1.9,1.21-2.1,3.6-4.06,5.5
			c0-1.78-0.09-2.94,0.01-4.08c1.07-11.45,2.13-22.89,4.96-34.1c1.11-4.42,3.59-7.34,7.43-9.44c11.54-6.34,23.51-11.78,35.56-17.06
			c5.55-2.44,10.87-5.4,16.76-7.39c3.67,9.62,5.6,19.62,10.04,28.99c2.4-0.12,4.22-1.67,6.2-2.78c6.38-3.56,9.21-3.03,13.27,2.94
			c2.26,3.32,5.26,5.61,8.62,7.64c2.43,1.47,4.89,2.97,6.86,5.09c0.69-0.94-0.03-1.53-0.57-2.12c-1.89-2.03-3.59-4.32-5.76-6
			c-4.82-3.75-5.76-8.58-4.5-14.12c0.35-1.52,0.2-3.02,0.37-4.76c3.2,2.26,2.87,5.74,2.97,8.65c0.13,4.12,1.67,7.12,4.7,9.7
			c1.68,1.43,3.09,3.18,4.64,4.77c3.83,3.93,5.66,8.25,5.5,14.1c-0.26,9.42,2.21,18.68,3.4,28.03c0.24,1.86,0.39,3.74,0.68,6.66
			c-7.26-6.62-13.76-12.54-19.9-18.13c-1.43-0.54-2.14,0.09-2.79,0.5c-3.14,1.98-3.26,3.48-0.71,6.21
			c5.6,5.99,11.88,11.25,18.05,16.62c0.52,0.45,1.19,0.72,1.72,1.04c-4.51,5.39-8.61,10.24-12.66,15.14
			c-3.3,3.99-7.32,6.42-12.57,7.36c-9.26,1.67-18.45,3.76-28.19,4.68c-3.78-9.6-7.8-18.99-9.83-29.05c-0.61-3.01,0.1-6.08,0.4-9.12
			c1.01-10.45,0.58-20.73-4.17-30.43c0.45,7.57,1.22,15.14-0.78,22.66c-1.12-20.51-6.37-38.88-25.28-50.42
			c19.82,17.98,23.84,40.59,19.79,66.3c-6.23-5.67-10.7-12.02-15.59-18l0.05-0.13c-1.33,1.64,0.29,2.76,0.92,3.81
			c3.33,5.6,6.73,11.15,10.33,16.57c3.82,5.76,5.25,11.59,1.19,18.24c-8.18-8.98-17.09-4.84-25.98-1.16
			c13.06-1.56,14.09-1.44,19.97,2.94c-19.02-0.66-33.97,4.91-41.11,23.66C58.18,268.69,57.2,265.24,58.46,262.49z M186.15,225.61
			c-0.03-0.03-0.06-0.05-0.09-0.08c0.16-0.03,0.31-0.06,0.47-0.09C186.6,225.82,186.44,225.91,186.15,225.61z M185.55,225.61
			C185.55,225.61,185.55,225.61,185.55,225.61c-0.08-0.38-0.16-0.75-0.24-1.13C185.82,224.72,185.76,225.14,185.55,225.61z
			 M184.25,223.42c-0.34-0.14-0.35-0.46-0.37-0.77C184,222.9,184.12,223.16,184.25,223.42z M174,214.78
			c-2.57-0.92-4.89-2.12-6.39-5.61C171.18,210.27,172.78,212.31,174,214.78z M167.02,208.17c-0.04,0.2-0.62,0.48-0.91,0.43
			c-0.57-0.08-0.88-0.57-0.66-1.13c0.11-0.27,0.54-0.4,0.76-0.55C166.95,207.16,167.11,207.69,167.02,208.17z M86.72,300.08
			c-10.06,1.72-11.14,0.86-13.44-9.27c-1.17-5.18-0.76-10.15,0.56-15.19c0.51-1.95,1.35-3.91,1-6.87
			c-4.33,8.59-5.93,17.01-6.11,26.22c-3.69-2.64-6.38-5.83-8.6-9.45c-0.61-0.99-0.55-2.04-0.24-3.19
			c2.13-7.82,5.28-15.26,10.01-21.77c3.14-4.33,8.27-6.41,13.39-7.95c6.11-1.83,12.23-2.27,18.38-0.02
			c1.45,0.53,2.85,1.03,4.08,2.51c-17.98,0.9-31.33,27.94-18.2,44.23C87.48,299.82,87.15,300.01,86.72,300.08z M100.8,292.8
			c-3.03,0.31-6.07,0.56-9.09,0.94c-2.5,0.31-3.67-0.65-3.46-3.43c6.13-1.44,12.64-1.55,18.56-4.56
			c-6.33,0.89-12.65,1.78-19.24,2.71c-1.2-1.06-0.69-2.83-0.8-4.44c-0.44-6.34,1.42-12,4.93-17.25c3.75-5.6,8.77-8.12,15.56-7.49
			c7.59,0.71,15.21,1.17,22.82,0.25c10.88-1.31,21.69-3.04,32.27-5.98c4.21-1.17,7.38-3.74,10.09-6.98
			c3.83-4.57,7.74-9.09,11.32-13.86c2.44-3.26,5.41-4.37,9.34-4.15c4.57,0.25,9.17,0.27,13.74,0.07c2.72-0.12,4.41,0.96,5.86,3.08
			c1.56,2.27,2.71,4.79,4.77,6.77c1.66,1.6,0.11,3.58,0.17,5.51c-2.12-0.42-2.53-2.07-3.37-3.25c-2.46-3.46-5.4-5.83-10-5.57
			c-3.31,0.18-6.63-0.24-10.15-0.83c0.57,2.12,2.16,2.36,3.52,2.7c2.41,0.62,4.86,1.1,7.32,1.55c7.87,1.46,9.18,3.24,8.05,12.23
			c-1.22-4.24-4.32-4.58-7.14-5.22c-3.63-0.83-7.31-1.43-11.41-2.22c1.02,2.76,3.19,2.9,5.02,3.42c2.8,0.79,5.67,1.35,8.46,2.15
			c3.98,1.14,4.33,1.87,3.09,5.95c-0.28,0.92-0.68,1.79-1.05,2.73c-4.15-3.48-9.13-3.21-13.91-3.82c3.13,3.67,8.53,2.71,11.85,5.82
			c-1.64,4.33-2.97,5.26-6.81,4.31c-4.04-1-7.2-0.49-10.5,2.61c-4.49,4.22-10.46,6.15-16.56,5.31c-6.66-0.92-12.24,1.58-17.87,4.09
			C138.42,283.9,120.36,290.79,100.8,292.8z M117.21,309.83c7.73-0.04,14.93,1.99,22.34,2.38c-6.49-2.78-13.02-5.39-20.11-6.48
			c0.55-1.61,1.89-1.15,2.86-1.45c2.64-0.83,5.56-1.18,7.88-2.55c5.73-3.4,10.85-2.41,16.3,0.7c3.41,1.95,7.04,3.93,11.81,3.65
			c-5.15-4.47-10.91-7.55-15.19-12.6c2.86-2.2,5.94-3.01,8.88-4.15c5.29-2.05,10.64-3.97,15.2-7.55c3.19-2.5,6.9-3.13,10.62-1.68
			c4.32,1.68,8.05,1.15,11.67-1.65c1.28-0.99,2.61-2.07,4.51-2.46c0.27,1.34,0.53,2.64,0.86,4.3c-6.43,4.05-12.84,8.1-19.35,12.2
			c0.19,2.25,0.9,4.3,1.7,6.56h20c1.76,7.52-1.11,14.59-1.3,22c-5.43,0.48-10.7,0.73-16.03,0.23c-2.93-0.28-4.75-2.26-6.73-3.85
			c-3.38-2.71-6.82-4.89-11.33-4.73c-0.13,0.16-0.25,0.32-0.37,0.48c2.79,3.1,7.59,3.26,10.35,6.89
			C140.33,316.24,119.7,312.46,117.21,309.83z M141.93,335.47c4.83,0.31,9.56,1.53,14.63,1.55c1.98-4.84,1.29-10.27,3.49-15.15
			c1.54,5.14-0.43,10.32,0.15,15.64c9.4,1.58,18.97,2.29,28.46,3.56C182.57,342.77,166.46,340.8,141.93,335.47z M193.22,342.49
			c-0.75-6.56,0.16-12.31,0.31-17.91c0.97-0.67,1.81-0.67,2.64-0.59c6.2,0.55,12.46-0.19,18.68,0.93c-5.83,2.21-12.09,0.56-18,1.95
			c-1.21,4.74-1.12,4.97,2.29,6.14c-0.44,1.41-2.08,0.4-2.73,1.37c-0.61,0.87-0.27,1.86-0.31,2.81c-0.04,0.81,0.06,1.63,0.1,2.67
			c6.28,0.77,12.5,0.22,18.7,0.91C207.9,342.71,200.74,342.43,193.22,342.49z M227.77,338.87v-14.25
			C229.6,327.26,229.76,335.75,227.77,338.87z M229.32,319.66c-0.65-2.35,1.46-4.51,0.47-6.99c-0.16,0.44-0.33,0.77-0.4,1.11
			c-1.16,5.92-2.3,7.13-8.06,7.14c-5.65,0-11.33,0.93-16.97-0.48c-1.25-0.31-2.69,0.15-4.76,0.31c0.41-7.53,1.09-14.64,0.64-22.22
			h33.18c1.07,4.35,2.37,8.73,3.18,13.2C237.46,316.41,235.38,318.51,229.32,319.66z M216.71,272.31
			c-11.85,7.43-23.7,14.87-35.55,22.31c-0.46,0.29-0.94,0.54-1.51,0.87c-1.34-2.51,0.96-2.93,2.08-3.67
			c7.64-5.02,15.33-9.97,23.05-14.87c12.99-8.24,26.01-16.44,39.03-24.64c1.09-0.69,2.03-2.09,3.68-1c0.16,2.37-1.92,2.88-3.31,3.77
			C235.05,260.88,225.87,266.57,216.71,272.31z M287.3,290.46c-3.12,4.88-7.2,7.69-11.37,10.98c-5.42,4.28-15.54,3.78-20.37-1.18
			c-2.42-2.48-5.01-4.8-7.48-7.23c-0.98-0.97-1.96-1.98-2.76-3.09c-0.78-1.08-1.85-2.31-0.35-3.64c1.37-1.2,2.63-0.48,3.69,0.47
			c3.82,3.42,7.58,6.91,11.78,9.87c1.67,1.17,3.28,2.43,5.61,2.57c-4.79-6.08-10.65-11.27-14.62-17.65
			c0.62-1.92,1.89-2.47,3.34-3.08c7.64,4.57,12.96,12.16,20.83,16.67c-1.52-3.85-4.15-6.84-6.77-9.87c-2.72-3.13-5.3-6.37-8.03-9.67
			c1.76-2.76,3.51-2.94,5.87-1.59c3.92,2.23,7.02,5.37,10.15,8.51c1.83,1.83,3.46,3.87,5.65,5.35c2.76-4.27,2.86-8.3,0.29-12.5
			c-0.84-1.37-1.72-2.86-1.9-4.57c-0.13-1.22,0.24-2.21,1.32-2.82c0.97-0.55,1.73-0.2,2.59,0.5
			C292.4,274.67,292.46,282.4,287.3,290.46z M247.97,250.37c4.2-0.9,7.67-1.5,11.27-1.17c1.6,0.14,2.92,0.68,4.49-0.89
			c0.95-0.95,3.5-1.58,4.89,0.66c0.5,0.8,1.32,0.94,2.2,0.62c4.71-1.76,9.61-0.82,14.42-0.98c6.37-0.21,12.76-0.09,19.14-0.11
			c0.96,0,2.01,0.26,2.85-0.32c3.94-2.73,7.08,0.34,11.13,1.03c2.51-1.37,3.84-1.34,6.03,0.53
			C319.77,251.52,251.75,252.56,247.97,250.37z"/>
		<path class="st9" d="M184.51,223.76c0.13,0.13,0.26,0.26,0.39,0.38C184.73,224.06,184.59,223.95,184.51,223.76z"/>
		<path class="st9" d="M211.89,56.94l-0.16,0.1c-0.02-0.03-0.04-0.06-0.06-0.09L211.89,56.94z"/>
		<path class="st9" d="M181.06,220.99l-0.23-0.01l0.19-0.08C181.03,220.94,181.04,220.96,181.06,220.99z"/>
		<polygon class="st9" points="229.4,61.37 229.38,61.43 229.06,61.35 		"/>
		<path class="st7" d="M94.52,207.29c-1.33,1.64,0.29,2.76,0.92,3.81c3.33,5.6,6.73,11.15,10.33,16.57
			c3.82,5.76,5.25,11.59,1.19,18.24c-8.18-8.98-17.09-4.84-25.98-1.16c13.06-1.56,14.09-1.44,19.97,2.94
			c-19.02-0.66-33.97,4.91-41.12,23.66c-1.66-2.65-2.64-6.11-1.38-8.85c4.91-10.74,4.09-22.25,4.72-33.52
			c0.49-8.65,4.35-16.26,6.39-24.42c0.2-0.78,0.78-1.48,0.34-2.7c-1.9,1.21-2.1,3.6-4.06,5.5c0-1.78-0.09-2.94,0.01-4.08
			c1.07-11.45,2.13-22.89,4.96-34.1c1.11-4.42,3.59-7.34,7.43-9.44c11.54-6.34,23.51-11.78,35.56-17.06
			c5.55-2.44,10.87-5.4,16.76-7.39c3.67,9.62,5.6,19.62,10.04,28.99c2.4-0.12,4.22-1.67,6.2-2.78c6.38-3.56,9.21-3.03,13.27,2.94
			c2.26,3.32,5.26,5.61,8.62,7.64c2.46,1.49,4.96,3,6.94,5.17l0.1-0.11l-0.18,0.03c0.7-0.94-0.02-1.54-0.57-2.12
			c-1.89-2.03-3.59-4.32-5.76-6c-4.82-3.75-5.76-8.58-4.5-14.12c0.35-1.52,0.2-3.02,0.37-4.76c3.2,2.26,2.87,5.74,2.97,8.65
			c0.13,4.12,1.67,7.12,4.7,9.7c1.68,1.43,3.09,3.18,4.64,4.77c3.83,3.93,5.66,8.25,5.5,14.1c-0.26,9.42,2.21,18.68,3.4,28.03
			c0.24,1.86,0.39,3.74,0.68,6.66c-7.26-6.62-13.76-12.54-19.9-18.13c-1.43-0.54-2.14,0.09-2.79,0.5c-3.14,1.98-3.26,3.48-0.71,6.21
			c5.6,5.99,11.88,11.25,18.05,16.62c0.52,0.45,1.19,0.72,1.72,1.04c-4.51,5.39-8.61,10.24-12.66,15.14
			c-3.3,3.99-7.32,6.42-12.57,7.36c-9.26,1.67-18.45,3.76-28.19,4.68c-3.78-9.6-7.8-18.99-9.83-29.05c-0.61-3.01,0.1-6.08,0.4-9.12
			c1.01-10.45,0.58-20.73-4.17-30.43c0.45,7.57,1.22,15.14-0.78,22.66c-1.12-20.51-6.37-38.88-25.28-50.42
			c19.82,17.98,23.84,40.59,19.79,66.3c-6.23-5.67-10.7-12.02-15.59-18c-0.29-0.16-0.59-0.42-0.85,0.01
			c-0.04,0.07,0.04,0.3,0.11,0.33C94.17,207.93,94.4,207.69,94.52,207.29z"/>
		<path class="st7" d="M242.48,230.09c-1.75,1.31-2.02,3.84-4.6,5.35c0.74-15.17,3.99-29.44,7.26-43.76
			c-2.42,2.02-2.55,5.16-4.57,7.8c-0.86-6.28-1.68-12.17-2.49-18.08c-1.48,0.05-0.87,1.16-0.88,1.81
			c-0.1,7.49-0.37,14.99-0.14,22.48c0.21,7.01-0.61,13.87-2.17,20.63c-2.22,9.67-3.65,19.35-2.16,29.47
			c-1.91,1.2-3.74,2.35-5.58,3.5c-4.05-3-5.37-7.88-8.74-11.14c3.43-3.67,3.56-9.33,0.19-12.64c-2.22-2.18-3.22-5.15-5.31-7.42
			c-1.44-1.56-2.85-2.36-5.02-2.25c-4.57,0.23-9.15,0.26-13.73,0.32c-4.02,0.05-4.91-1.06-5.34-5.07
			c-0.97-9.1-1.96-18.21-3.32-27.25c-0.98-6.53,1.33-11.65,5.55-16.25c1.41-1.53,2.73-3.17,4.29-4.54c3.87-3.4,6.7-7.09,4.03-12.85
			c5.08-0.1,7.8,3.73,11.91,5.24c1.02-4.99-0.33-9.44-1.82-14.51c10.57,5.66,20.71,10.79,30.89,15.85c3.03,1.51,4.09,4.81,5.2,7.76
			c3.26,8.66,4.66,17.65,4.51,26.9c-0.07,4.32-0.44,8.55-1.79,12.71c-0.72,2.2-1.27,4.54-0.97,7.32c2.03-1.1,2-3.69,3.94-4.66
			c2.54,9.6,5.05,19.1,7.62,28.83c-3.39,1.11-6.82,1.07-10.21,1.07c-3.81,0-6.08,2.93-9.51,4.63c-0.51-7.4,2.39-13.93,3.6-20.72
			c0.32-0.62,0.59-1.25,0.06-1.9C242.63,229.04,242.53,229.55,242.48,230.09z M191.66,189.85c-0.44-0.93-0.87-2.04-2.19-2.07
			c-1.29-0.03-2.16,0.88-2.19,2.05c-0.04,1.2,0.83,2.05,2.1,2.15C190.78,192.1,191.25,191.07,191.66,189.85z M190.79,221.1
			c1.07,1.44,2.07,2.59,3.79,1.55c1.02-0.62,0.78-1.73,0.07-2.46C193.28,218.76,192.04,219.13,190.79,221.1z"/>
		<path class="st6" d="M207.91,259.65c-1.64,4.33-2.97,5.26-6.81,4.31c-4.04-1-7.2-0.49-10.5,2.61c-4.49,4.22-10.46,6.15-16.56,5.31
			c-6.66-0.92-12.24,1.58-17.87,4.09c-17.77,7.93-35.83,14.82-55.39,16.83c-3.03,0.31-6.07,0.56-9.09,0.94
			c-2.5,0.31-3.67-0.65-3.46-3.43c6.13-1.44,12.64-1.55,18.56-4.56c-6.33,0.89-12.65,1.78-19.24,2.71c-1.2-1.06-0.69-2.83-0.8-4.44
			c-0.44-6.34,1.42-12,4.93-17.25c3.75-5.6,8.77-8.12,15.56-7.49c7.59,0.71,15.21,1.17,22.82,0.25c10.88-1.31,21.69-3.04,32.27-5.98
			c4.21-1.17,7.38-3.74,10.09-6.98c3.83-4.57,7.74-9.09,11.32-13.86c2.44-3.26,5.41-4.37,9.34-4.15c4.57,0.25,9.17,0.27,13.74,0.07
			c2.72-0.12,4.41,0.96,5.86,3.08c1.56,2.27,2.71,4.79,4.77,6.77c1.66,1.6,0.11,3.58,0.17,5.51c-2.12-0.42-2.53-2.07-3.37-3.25
			c-2.46-3.46-5.4-5.83-10-5.57c-3.31,0.18-6.63-0.24-10.15-0.83c0.57,2.12,2.16,2.36,3.52,2.7c2.41,0.62,4.86,1.1,7.32,1.55
			c7.87,1.46,9.18,3.24,8.05,12.23c-1.22-4.24-4.32-4.58-7.14-5.22c-3.63-0.83-7.31-1.44-11.41-2.22c1.02,2.76,3.19,2.9,5.02,3.42
			c2.8,0.79,5.67,1.35,8.46,2.15c3.98,1.14,4.33,1.87,3.09,5.95c-0.28,0.92-0.68,1.79-1.05,2.73c-4.15-3.48-9.13-3.21-13.91-3.82
			C199.2,257.5,204.6,256.53,207.91,259.65z"/>
		<path class="st6" d="M168.4,87.62c2.2,0.7,4.27,1.37,6.32,2.02c1.26-1.36,1.09-2.97,1.31-4.43c0.81-5.29,3.22-9.25,8.39-11.47
			c3.61-1.55,4.45-3.55,3.17-7.48c-0.45-1.37,0.67-1.18,0.79-1.82c0.13-0.65,0.22-0.63-1.34-2.09c1.59-1.49,4.47-0.95,5.44-3.36
			c0.06-0.15,0.57-0.28,0.77-0.19c4.9,2.2,10.83-1,15.42,3.04c1.33,1.16,3.08,1.84,4.65,2.73c4.01,2.25,4.01,2.25,9.93,2.76
			c0.47,5.67-0.91,11.24-1.3,16.86c-0.11,1.59-1.51,2.23-2.77,2.84c-4.15,2.01-5.95,5.11-5.06,9.8c0.54,2.85,0.74,5.77,0.96,8.67
			c0.23,2.93-1.52,4.53-4.2,3.71c-0.91-0.28-1.76-0.71-2.75-0.66c-1.04,0.05-2.07,0.11-3.43,0.18c1.72,1.06,3.33,1.3,5.39,1.65
			c-1.32,1.68-0.38,3.65-1.13,5.67c-4.31-0.89-8.57-0.64-13.22-1.01c1.62,2.28,3.88,1.58,5.65,2.17c1.94,0.65,4.19,0.16,6.23,1.77
			c-1.08,4.09-4.74,0.88-6.65,2.25c0.44,1.61,2.54,0.97,3.21,2.54c0,1.01,0.04,2.26-0.01,3.5c-0.11,2.82-1.79,4.25-4.42,4.68
			c-3.42,0.55-6.66-0.12-9.59-1.91c-7.6-4.65-14.38-10.39-21.27-15.99c-2.26-1.83-2.7-4.5-2.85-7.13
			c-0.18-3.31-0.04-6.64-0.04-10.57c-5.71,1.3-8.34-1.9-10.41-5.93c-2.25-4.39-3.14-8.85-0.89-13.55c2.29-4.79,6.16-5.46,9.91-1.69
			C167.24,77.78,168.09,80.5,168.4,87.62z M192.95,88.68c5.03,5.32,10.79,5.67,12.76,1.29c4.81,0.12,4.81,0.12,6.28-2.91
			c-1.64-0.66-3.29-1.29-4.91-1.99c-1.65-0.71-3.25-1.54-4.91-2.23c-4.39-1.84-6.9-1.71-12.04,0.75c4.83,1.47,9.96,1.48,13.63,5.98
			C200.06,89.46,196.82,89.51,192.95,88.68z M155.77,80.1c4.02-3.6,4.44-3.51,6.28,0.81c-4.34,4.67-3.82,8.04,1.7,10.23
			c0.46-1.73-1.22-3.66,0.11-5.1c2.59-2.8,1.12-5.37-0.19-7.9c-0.99-1.92-2.54-3.42-4.94-2.98
			C156.53,75.56,156.42,77.57,155.77,80.1z M174.43,92.12c1.27,2.7,2.93,5.06,5.56,6.57C179.02,95.78,178.35,92.63,174.43,92.12z
			 M180.63,100.08c0.12-0.11,0.21-0.2,0.3-0.29c-0.18-0.09-0.35-0.22-0.54-0.26c-0.06-0.02-0.18,0.17-0.27,0.26
			C180.3,99.89,180.48,99.99,180.63,100.08z M194.96,114.72c-0.1-0.05-0.22-0.16-0.29-0.13c-0.12,0.04-0.31,0.22-0.29,0.26
			c0.17,0.35,0.39,0.4,0.57,0.15C194.99,114.94,194.95,114.81,194.96,114.72z"/>
		<path class="st7" d="M161.45,313.17c2.79,3.1,7.59,3.26,10.35,6.89c-31.46-3.83-52.1-7.61-54.58-10.24
			c7.73-0.04,14.93,1.99,22.34,2.38c-6.49-2.78-13.02-5.39-20.11-6.48c0.55-1.61,1.89-1.15,2.86-1.45c2.64-0.83,5.56-1.18,7.88-2.55
			c5.73-3.4,10.85-2.41,16.3,0.7c3.41,1.95,7.04,3.93,11.81,3.65c-5.15-4.47-10.91-7.55-15.19-12.6c2.86-2.2,5.94-3.01,8.88-4.15
			c5.29-2.05,10.64-3.97,15.2-7.55c3.19-2.5,6.9-3.13,10.62-1.68c4.32,1.68,8.05,1.15,11.67-1.65c1.28-0.99,2.61-2.07,4.51-2.46
			c0.27,1.34,0.53,2.64,0.86,4.3c-6.43,4.05-12.84,8.1-19.35,12.2c0.19,2.25,0.9,4.3,1.7,6.56c6.59,0,13.2,0,20,0
			c1.76,7.52-1.11,14.59-1.3,22c-5.43,0.48-10.7,0.73-16.03,0.23c-2.93-0.28-4.75-2.26-6.73-3.85c-3.38-2.71-6.82-4.89-11.33-4.73
			c-0.1-0.74-0.77-0.94-1.09-0.53C160.3,312.69,161.15,312.85,161.45,313.17z"/>
		<path class="st6" d="M187.03,139.93c-1.13,3.48-2.19,6.75-3.31,10.2c1.6-0.5,1.52-2.39,3.17-2.77
			c4.63,10.03-0.85,19.01-2.87,29.18c-3.33-5.58-7.2-9.69-11.54-13.36c-1.32-1.11-1.63-2.55-1.4-4.13
			c0.82-5.59-1.59-9.85-5.25-13.81c-5.46-5.91-10.94-11.81-15.32-18.63c-1.12-1.75-2.39-3.41-3.08-5.83
			c4.31-6.64,5.71-14.91,10.14-22.05c2.02,0.54,4.03,0.78,6.03,0.8C164.69,116.42,173.34,131.36,187.03,139.93z"/>
		<path class="st7" d="M105.73,255.11c-17.98,0.9-31.33,27.94-18.2,44.23c-0.05,0.49-0.39,0.68-0.81,0.75
			c-10.06,1.72-11.14,0.86-13.44-9.27c-1.17-5.18-0.76-10.15,0.56-15.19c0.51-1.95,1.35-3.91,1-6.87
			c-4.33,8.59-5.93,17.01-6.11,26.22c-3.69-2.64-6.38-5.83-8.6-9.45c-0.61-0.99-0.55-2.04-0.24-3.19
			c2.13-7.82,5.28-15.26,10.01-21.77c3.14-4.33,8.27-6.41,13.39-7.95c6.11-1.83,12.23-2.27,18.38-0.02
			C103.1,253.13,104.5,253.63,105.73,255.11z M78.96,285.58c0-2.94,0-5.62,0-8.3C77.31,280.05,76.89,282.75,78.96,285.58z"/>
		<path class="st6" d="M260.8,275.63c1.76-2.76,3.51-2.94,5.87-1.59c3.92,2.23,7.02,5.37,10.15,8.51c1.83,1.83,3.46,3.87,5.65,5.35
			c2.76-4.27,2.86-8.3,0.29-12.5c-0.84-1.37-1.72-2.86-1.9-4.57c-0.13-1.22,0.24-2.21,1.32-2.82c0.97-0.55,1.73-0.2,2.59,0.5
			c7.63,6.18,7.69,13.9,2.53,21.96c-3.12,4.88-7.2,7.69-11.37,10.98c-5.42,4.28-15.54,3.78-20.37-1.18
			c-2.42-2.48-5.01-4.8-7.48-7.23c-0.98-0.97-1.96-1.98-2.76-3.09c-0.78-1.08-1.85-2.31-0.35-3.64c1.37-1.2,2.63-0.48,3.69,0.47
			c3.82,3.42,7.58,6.91,11.78,9.87c1.67,1.17,3.28,2.43,5.61,2.57c-4.79-6.08-10.65-11.27-14.62-17.65
			c0.62-1.92,1.89-2.47,3.34-3.08c7.64,4.57,12.96,12.16,20.83,16.67c-1.52-3.85-4.15-6.84-6.77-9.87
			C266.11,282.17,263.53,278.93,260.8,275.63z"/>
		<path class="st7" d="M199.6,320.75c0.41-7.53,1.09-14.64,0.64-22.22c11.22,0,22.09,0,33.18,0c1.07,4.35,2.37,8.73,3.18,13.2
			c0.85,4.7-1.23,6.79-7.29,7.94c-0.65-2.35,1.46-4.51,0.47-6.99c-0.16,0.44-0.33,0.77-0.4,1.11c-1.16,5.92-2.3,7.13-8.06,7.14
			c-5.65,0-11.33,0.93-16.97-0.48C203.12,320.13,201.68,320.59,199.6,320.75z M206.82,304.26c0.01-1.43-0.55-2.44-2.09-2.5
			c-1.48-0.06-2.37,0.85-2.46,2.23c-0.1,1.53,0.65,2.81,2.33,2.73C205.9,306.67,206.82,305.75,206.82,304.26z"/>
		<path class="st7" d="M143.48,118.91c4.34,12.1,12.96,20.91,20.96,30.33c-4.16-1.73-7.31,0.29-10.47,2.3
			c-4.08,2.6-7.26,6.4-11.52,8.78c-1.22-0.62-1.26-1.79-1.57-2.79c-2.33-7.38-4.64-14.76-6.98-22.14c-0.96-3.01-0.57-5.6,1.69-8.01
			C138.21,124.6,140.55,121.55,143.48,118.91z"/>
		<path class="st7" d="M205.83,149.57c-4.59,1.58-6.56,5.24-8.98,8.36c-1.25,1.61,0.02,3.47,0.3,5.19c0.24,1.53,0.73,3.03-0.6,4.27
			c-3.22,3.04-5.59,6.8-8.96,10.01c1.12-4.39,2.23-8.78,3.37-13.16c1.21-4.68,2.55-9.33,2.49-14.24c-0.06-4.69-0.01-9.38-0.01-14.3
			c2.85-0.48,4.71,0.38,6.09,3.17C201.29,142.44,203.56,145.76,205.83,149.57z"/>
		<path class="st7" d="M247.97,250.37c4.2-0.9,7.67-1.5,11.27-1.17c1.6,0.14,2.92,0.68,4.49-0.89c0.95-0.95,3.5-1.58,4.89,0.66
			c0.5,0.8,1.32,0.94,2.2,0.62c4.71-1.76,9.61-0.82,14.42-0.98c6.37-0.21,12.76-0.09,19.14-0.11c0.96,0,2.01,0.26,2.85-0.32
			c3.94-2.73,7.08,0.34,11.13,1.03c2.51-1.37,3.84-1.34,6.03,0.53C319.77,251.52,251.75,252.56,247.97,250.37z"/>
		<path class="st7" d="M247.48,251.31c0.16,2.37-1.92,2.88-3.31,3.77c-9.12,5.8-18.3,11.49-27.45,17.23
			c-11.85,7.43-23.7,14.87-35.55,22.31c-0.46,0.29-0.94,0.54-1.51,0.87c-1.34-2.51,0.96-2.93,2.08-3.67
			c7.64-5.02,15.33-9.97,23.05-14.87c12.99-8.24,26.01-16.44,39.03-24.64C244.89,251.63,245.83,250.22,247.48,251.31z"/>
		<path class="st6" d="M202.43,275c-1.21-0.42-1.73-2.23-3.26-1.18c-0.86,1.24,0.78,1.81,0.8,2.75c-0.53,1.1-1.47,1.25-2.87,1.54
			c-0.21-3.1-1.52-5.86-0.87-9.05c3.56-2.28,8.25-1.02,11.67-3.74c3.34-2.67,4.59-6.83,7.38-10.14c3.69,0.95,6.69,3.02,9.83,5.28
			C217.65,265.57,210.37,270.51,202.43,275z"/>
		<path class="st7" d="M193.22,342.49c-0.75-6.56,0.16-12.31,0.31-17.91c0.97-0.67,1.81-0.67,2.64-0.59
			c6.2,0.55,12.46-0.19,18.68,0.93c-5.83,2.21-12.09,0.56-18,1.95c-1.21,4.74-1.12,4.97,2.29,6.14c-0.44,1.41-2.08,0.4-2.74,1.37
			c-0.61,0.87-0.27,1.86-0.31,2.81c-0.04,0.81,0.06,1.63,0.1,2.67c6.28,0.77,12.5,0.22,18.7,0.91
			C207.9,342.71,200.74,342.43,193.22,342.49z"/>
		<path class="st7" d="M141.93,335.47c4.83,0.31,9.56,1.53,14.63,1.55c1.98-4.84,1.29-10.27,3.49-15.15
			c1.54,5.14-0.43,10.32,0.15,15.64c9.4,1.58,18.97,2.29,28.46,3.56C182.57,342.77,166.46,340.8,141.93,335.47z"/>
		<path class="st6" d="M198.37,38.67c13.92,1.6,23.53,11.09,19.67,18.72C216.31,46.58,207.83,42.67,198.37,38.67z"/>
		<path class="st6" d="M209.18,53.64c-4.74-3.27-10.1-4.39-15.74-4.34c-2.61,0.02-5.08-0.47-7.53-1.38
			c4.56,0.13,9.04-0.94,13.57-0.62c4.39,0.31,8.03,2.03,10.47,5.86C209.68,53.32,209.43,53.48,209.18,53.64z"/>
		<path class="st6" d="M194.21,54.26c-6.94,2.28-13.59,2.16-19.44-3.04C181.01,53.9,187.57,54.16,194.21,54.26z"/>
		<path class="st6" d="M224.31,54.28c-0.17-4.1-1.44-7.83-4.48-11.51C224.81,45.43,225.92,48.45,224.31,54.28z"/>
		<path class="st7" d="M227.77,338.87c0-5.01,0-9.63,0-14.25C229.6,327.26,229.76,335.75,227.77,338.87z"/>
		<path class="st6" d="M167.61,209.16c3.57,1.11,5.16,3.15,6.39,5.61C171.44,213.85,169.11,212.65,167.61,209.16z"/>
		<path class="st6" d="M184.13,58.9c-2.47,0.65-5,0.62-7.53,0.15C179.07,58.26,181.57,58.49,184.13,58.9z"/>
		<path class="st6" d="M219.3,253.55c-1.86-0.12-2.5-1.18-2.64-3.73c1.39,1.62,3.09,1.93,2.57,3.83L219.3,253.55z"/>
		<path class="st6" d="M166.21,206.93c0.74,0.23,0.9,0.76,0.82,1.24c-0.04,0.2-0.62,0.48-0.91,0.43c-0.57-0.08-0.88-0.57-0.66-1.13
			C165.56,207.21,165.99,207.08,166.21,206.93z"/>
		<path class="st6" d="M211.72,57.04c-0.55-0.88-1.09-1.76-1.64-2.64c0.16-0.15,0.32-0.3,0.48-0.46c0.64,0.9,1.51,1.73,1.05,3.01
			L211.72,57.04z"/>
		<path class="st6" d="M185.54,225.63c0.33-0.06,0.66-0.13,0.99-0.19c0.07,0.39-0.09,0.47-0.37,0.17c-0.23-0.24-0.39-0.28-0.61,0
			C185.55,225.61,185.54,225.63,185.54,225.63z"/>
		<path class="st6" d="M182.88,221.53c-0.59-0.18-1.18-0.36-1.76-0.54l-0.1-0.09c0.38,0.87,1,1.12,1.86,0.7L182.88,221.53z"/>
		<path class="st6" d="M185.17,224.41c0.68,0.24,0.61,0.7,0.37,1.22l0.01-0.02c-0.09-0.43-0.18-0.87-0.27-1.3L185.17,224.41z"/>
		<path class="st6" d="M185.28,224.31c-0.4-0.16-0.83-0.29-0.83-0.84l-0.12,0.11c0.28,0.28,0.56,0.55,0.84,0.83L185.28,224.31z"/>
		<path class="st6" d="M183.77,222.44c0.18,0.38,0.37,0.76,0.55,1.14l0.12-0.11c-0.63-0.1-0.53-0.61-0.59-1.03L183.77,222.44z"/>
		<path class="st6" d="M209.93,53.16c0.21,0.26,0.42,0.52,0.63,0.79c-0.15,0.16-0.31,0.31-0.48,0.46c-0.52,0.01-0.81-0.26-0.9-0.76
			C209.43,53.48,209.68,53.32,209.93,53.16z"/>
		<path class="st6" d="M182.87,221.6c-0.09,0.69,0.26,0.93,0.9,0.84l0.08,0c-0.61,0-1.03-0.2-0.97-0.91L182.87,221.6z"/>
		<path class="st6" d="M219.23,253.65c0.2-0.28,0.44-0.33,0.56-0.08c0.06,0.12-0.06,0.33-0.11,0.5c-0.13-0.18-0.26-0.35-0.39-0.53
			L219.23,253.65z"/>
		<polygon class="st6" points="181.12,220.99 180.83,220.98 181.01,220.91 		"/>
		<polygon class="st9" points="175.55,177.16 175.73,177.13 175.64,177.24 		"/>
		<path class="st9" d="M94.52,207.29c-0.12,0.4-0.35,0.64-0.79,0.47c-0.07-0.03-0.16-0.26-0.11-0.33c0.26-0.43,0.56-0.17,0.85-0.01
			L94.52,207.29z"/>
		<path class="st9" d="M191.66,189.85c-0.41,1.23-0.89,2.25-2.28,2.14c-1.27-0.1-2.14-0.96-2.1-2.15c0.04-1.18,0.9-2.08,2.19-2.05
			C190.79,187.81,191.22,188.91,191.66,189.85z"/>
		<path class="st9" d="M190.79,221.1c1.25-1.96,2.49-2.34,3.86-0.92c0.71,0.73,0.95,1.84-0.07,2.46
			C192.87,223.69,191.86,222.54,190.79,221.1z"/>
		<path class="st9" d="M242.48,230.09c0.05-0.54,0.16-1.06,0.7-1.37c0.53,0.65,0.26,1.28-0.06,1.9
			C242.89,230.46,242.68,230.28,242.48,230.09z"/>
		<path class="st9" d="M192.95,88.68c3.87,0.83,7.11,0.78,10.83,0.89c-3.67-4.5-8.8-4.5-13.63-5.98c5.14-2.46,7.65-2.59,12.04-0.75
			c1.66,0.69,3.26,1.52,4.91,2.23c1.62,0.7,3.27,1.33,4.91,1.99c-1.47,3.03-1.47,3.03-6.28,2.91
			C203.75,94.34,197.99,94,192.95,88.68z"/>
		<path class="st9" d="M155.77,80.1c0.66-2.54,0.77-4.55,2.96-4.95c2.39-0.44,3.95,1.07,4.94,2.98c1.31,2.54,2.79,5.1,0.19,7.9
			c-1.33,1.44,0.35,3.37-0.11,5.1c-5.52-2.19-6.04-5.56-1.7-10.23C160.2,76.59,159.79,76.5,155.77,80.1z"/>
		<path class="st9" d="M174.43,92.12c3.92,0.51,4.59,3.65,5.56,6.57C177.36,97.18,175.7,94.83,174.43,92.12z"/>
		<path class="st9" d="M180.63,100.08c-0.15-0.09-0.33-0.19-0.5-0.29c0.09-0.09,0.2-0.27,0.27-0.26c0.19,0.05,0.36,0.17,0.54,0.26
			C180.84,99.88,180.75,99.97,180.63,100.08z"/>
		<path class="st9" d="M194.96,114.72c0,0.1,0.04,0.22-0.01,0.28c-0.18,0.25-0.4,0.2-0.57-0.15c-0.02-0.04,0.17-0.22,0.29-0.26
			C194.74,114.56,194.86,114.67,194.96,114.72z"/>
		<path class="st9" d="M161.45,313.17c-0.3-0.32-1.15-0.48-0.72-1.01c0.32-0.41,0.99-0.21,1.09,0.53
			C161.69,312.85,161.57,313.01,161.45,313.17z"/>
		<path class="st9" d="M78.96,285.58c-2.08-2.83-1.65-5.54,0-8.3C78.96,279.96,78.96,282.64,78.96,285.58z"/>
		<path class="st9" d="M206.82,304.26c0,1.49-0.91,2.4-2.22,2.46c-1.68,0.07-2.43-1.2-2.33-2.73c0.09-1.38,0.98-2.29,2.46-2.23
			C206.27,301.82,206.82,302.83,206.82,304.26z"/>
	</g>
	<g>
		<path class="st7" d="M558.37,5.93H311.66v175.88h246.72V5.93z M423.99,18.58c6.08-4.07,14.49-2.88,19.26,2.57
			c4.9,5.6,4.92,14.05-0.05,19.63c-1.94,2.18-3.17,4.55-3.19,7.52c-0.01,1.38-0.68,2-2.2,2.08c-1.42,0.07-2.84,0.01-4.26,0.01
			c-0.55,0-1.1,0-1.65,0c0,0.01,0,0.02,0,0.03c-1.84,0-3.67,0.03-5.51-0.01c-1.45-0.03-2.11-0.68-2.12-2.12
			c-0.02-2.81-1.09-5.13-2.99-7.16c-2.08-2.23-3.46-4.86-3.88-7.89C416.55,27,418.79,22.06,423.99,18.58z M435.86,56.47
			c-1.24,0-2.47,0-3.71,0c0,0.01,0,0.01,0,0.02c-1.56,0-3.11,0-4.67,0c-0.27,0-0.55,0.03-0.82,0c-0.66-0.07-1.22-0.39-1.16-1.09
			c0.06-0.67,0.61-0.97,1.3-0.92c2.61,0.21,5.22,0.02,7.82,0.08c0.96,0.02,1.93,0.07,2.87-0.08c0.8-0.12,1.32,0.08,1.39,0.85
			c0.07,0.78-0.53,1.12-1.24,1.16C437.05,56.52,436.45,56.47,435.86,56.47z M436.4,57.48c0.14,1.69-1.09,3.16-2.73,3.26
			c-0.96,0.06-1.92,0.07-2.88,0.02c-1.59-0.08-2.86-1.53-2.86-3.28C430.76,57.48,433.58,57.48,436.4,57.48z M437.9,53.51
			c-1.83-0.18-3.67-0.07-5.5,0.01c-1.88,0-3.76-0.03-5.64,0.01c-0.73,0.02-1.2-0.27-1.28-0.94c-0.07-0.63,0.39-1,1-1.1
			c0.4-0.06,0.82-0.06,1.23-0.06c3.17-0.01,6.33-0.02,9.5-0.03c0.32,0,0.65-0.02,0.96,0.06c0.59,0.16,1,0.58,0.93,1.19
			C439.02,53.26,438.55,53.57,437.9,53.51z M448.71,157.4c0.33,0.77,0.23,1.14-0.6,1.11c-1.05-0.03-2.11-0.01-3.28-0.01
			c0,2.47,0,4.87,0,7.33c1.29,0.45,2.75-0.31,4.03,0.42c0.06,0.03,0.01,0.25,0.01,0.54c-1.32,0-2.63,0-4.05,0
			c-0.23,1.65,0.01,3.28-0.21,4.81c-0.25-0.04-0.51-0.08-0.76-0.12c0-1.49,0-2.98,0-4.55c-2.48,0-4.8,0-7.24,0
			c-0.26,1.46-0.06,2.97-0.16,4.45c-0.24,0.25-0.49,0.19-0.86,0.05c0-1.42,0-2.87,0-4.49c-2.45-0.14-4.79-0.11-7.2-0.04
			c-0.25,1.57-0.07,3.08-0.17,4.55c-0.71,0.33-0.87,0.03-0.87-0.57c0.01-1.28,0-2.57,0-3.98c-2.54,0-4.91,0-7.44,0
			c0,1.6,0,3.13,0,4.71c-0.86-0.29-0.86-0.29-0.87-2.09c0-0.82,0-1.65,0-2.49c-1.28-0.52-2.66,0.29-3.82-0.5
			c-0.06-0.04,0.01-0.26,0.02-0.53c1.22,0,2.43,0,3.71,0c0-2.54,0-4.96,0-7.36c-3.63-0.52-3.63-0.52-3.71-1.03
			c1.2-0.3,2.44,0,3.71-0.2c0-2.44,0-4.85,0-7.42c-1.28,0-2.5,0-3.81,0c0.22-1.36,1.16-0.71,1.73-0.84
			c0.66-0.15,1.37,0.07,2.16-0.18c0-0.88,0-1.78,0-2.68c0.73,0.03,0.73,0.03,1.03,2.74c2.34,0,4.7,0,7.14,0
			c0.32-0.87,0-1.85,0.25-2.77c0.47,0.09,0.49,0.15,0.94,2.82c2.32,0,4.64,0,7.1,0c0.05-0.96,0.09-1.9,0.13-2.86
			c1.14-0.13,0.76,0.69,0.83,1.16c0.08,0.54-0.08,1.1,0.16,1.7c2.31,0,4.63,0,7.02,0c0.36-0.89,0.03-1.88,0.25-2.79
			c0.79,0.1,0.79,0.1,0.8,1.07c0.01,0.54,0,1.09,0,1.65c1.43,0.35,2.82-0.16,4.12,0.34c0.07,0.03,0.04,0.33,0.06,0.63
			c-1.37,0-2.68,0-4.09,0c0,2.52,0,4.92,0,7.45C446.09,157.4,447.4,157.4,448.71,157.4z M516.3,134.97
			c-53.88,0.38-107.77,0.05-161.65,0.16c-0.34,0-0.73,0.13-1.11-0.31c1.1-0.45,161.3-0.52,162.78-0.1c0.01,0.04,0.02,0.09,0.01,0.13
			C516.32,134.88,516.31,134.97,516.3,134.97z M367.78,111.39c-1.32,3.16-4.08,4.81-7.47,4.43c-2.99-0.34-5.57-2.61-5.96-5.45
			c-0.46-3.33,0.69-6.01,4.74-7.76C361.98,105.52,364.87,108.44,367.78,111.39z M359.95,99.24c3-3.37,6.23-6.43,9.44-9.84
			c0.23-0.25,0.64-0.09,0.64,0.25v9.83c0,0.09-0.03,0.17-0.08,0.23c-0.07,0.09-0.18,0.14-0.29,0.14h-9.43
			C359.91,99.86,359.74,99.48,359.95,99.24z M372.3,107.75c1.58-0.22,3.21-0.19,4.8-0.18c2.99,0.02,5.99,0.07,8.97,0.11
			c0.29,0,2.45-0.1,2.23,0.49c-0.04,0.1-0.16,0.14-0.27,0.16c-0.52,0.1-1.01-0.01-1.53-0.02c-0.8-0.02-1.61-0.01-2.41,0.02
			c-0.07,0-0.16,0.01-0.21,0.06c-0.04,0.04-0.06,0.11-0.07,0.17c-0.1,0.62-0.02,1.32-0.02,1.95c0,0.72,0,1.45,0,2.17
			c0,1.4,0,2.8,0,4.21c0,1.19,0,2.38,0,3.57c0,0.16-0.13,0.28-0.28,0.28h-13c-0.15,0-0.28-0.13-0.28-0.28c0-2.17,0-4.35,0-6.52
			c0-1.27-0.16-2.58,0.02-3.85C370.41,108.97,371.13,107.91,372.3,107.75z M370.75,88.43c0.03-0.23,0.3-0.32,0.47-0.16
			c3.06,3,6.13,6.01,9.11,8.93c0.11,0.11,0.11,0.28,0,0.39c-3.04,3.14-6.05,6.24-9.21,9.49c-0.16,0.17-0.45,0.07-0.47-0.16
			C370.28,103,370.39,91.12,370.75,88.43z M387.63,100.74c-0.1-0.06-0.19-0.02-0.24,0.07c-0.04,0.07-0.09,0.12-0.16,0.16
			c-0.5,0.26-1.01,0.53-1.57,0.82c-0.19,0.1-0.42,0.04-0.55-0.13c-1.08-1.49-2.16-2.98-3.3-4.54c-0.21-0.29,0-0.69,0.35-0.69h7.98
			c0.24,0,0.43,0.19,0.43,0.43v9.63c0,0.35-0.39,0.55-0.67,0.36c-1.94-1.28-2.91-3.66-2.31-5.72c0.01-0.05,0.04-0.09,0.07-0.13
			C387.72,100.91,387.75,100.81,387.63,100.74z M410.94,108.61c0.09,0.78,0.18,1.31-0.09,1.9c-1.72,0-3.45,0-5.29,0
			c0-3.91,0-7.82,0-11.8c0.63-0.09,1.25-0.09,1.98,0.02c0,3.27,0,6.5,0,9.88C408.71,108.61,409.78,108.61,410.94,108.61z
			 M411.95,101.51c0.06-1.71,1.51-3.01,3.3-3.01c1.75-0.01,3.13,1.22,3.18,2.95c0.06,2.06,0.06,4.13,0,6.2
			c-0.06,1.94-1.37,3.08-3.35,3.03c-1.94-0.05-3.12-1.27-3.13-3.24c-0.01-0.96,0-1.93,0-2.89
			C411.94,103.53,411.91,102.52,411.95,101.51z M424.05,101.42c-0.06-0.66-0.42-1.01-1.05-1.04c-0.6-0.03-0.98,0.35-1,0.91
			c-0.06,2.2-0.1,4.4-0.07,6.59c0.01,0.64,0.56,0.92,1.18,0.87c0.57-0.04,0.94-0.35,0.97-0.96c0.02-0.59,0-1.18,0-1.68
			c-0.28-0.48-0.81-0.1-1.1-0.74c-0.06-0.24-0.02-0.74,0.05-1.3c1.02-0.26,2.05-0.1,3.16-0.1c0.17,1.41,0.19,2.78,0.04,4.13
			c-0.18,1.66-1.61,2.63-3.5,2.54c-1.8-0.09-2.82-1.06-2.86-2.84c-0.05-2.11-0.05-4.22-0.02-6.32c0.02-1.83,1.32-3,3.22-2.98
			c1.74,0.02,3.1,1.27,3.19,2.94c0.02,0.36,0,0.72,0,1.17c-0.8,0.08-1.43,0.12-2.06,0.01C423.92,102.23,424.09,101.81,424.05,101.42
			z M434.03,107.62c-0.04,1.89-1.34,3.1-3.3,3.09c-1.83-0.01-3.12-1.25-3.15-3.1c-0.03-2.02-0.04-4.03-0.01-6.05
			c0.03-1.85,1.41-3.09,3.34-3.07c1.92,0.02,3.08,1.14,3.13,3.07c0.03,1.01,0,2.02,0,3.03c0,0-0.01,0-0.01,0
			C434.03,105.6,434.05,106.61,434.03,107.62z M441.26,100.32c-0.63,0.42-1.31,0.17-2.07,0.4c0,3.17,0,6.4,0,9.63
			c-0.74,0.32-1.37,0.18-2.17,0.19c0-3.29,0-6.56,0-9.87c-0.8-0.04-1.42-0.07-2.1-0.1c-0.09-0.64-0.08-1.21,0.04-1.83
			c2.08-0.19,4.13-0.02,6.17-0.05C441.41,99.28,441.21,99.81,441.26,100.32z M446.98,110.41c-0.85,0.23-1.47,0.16-2.15,0.1
			c-0.39-1.99,0.27-4.04-0.54-5.97c-0.78-1.85-1.44-3.75-2.23-5.82c0.84,0,1.51,0,2.26,0c0.63,1.05,0.68,2.4,1.41,3.6
			c0.93-1.09,0.88-2.52,1.54-3.63c0.7-0.07,1.37-0.1,2.25,0.04C448.09,102.54,446.1,106.18,446.98,110.41z M450.63,110.51
			c0-3.92,0-7.8,0-11.86c1.36,0.02,2.77-0.14,4.16,0.14c1.48,0.29,2.26,1.32,2.3,2.83c0.01,0.37,0,0.73,0,1.1
			c-0.01,1.94-0.99,3.08-2.91,3.35c-0.44,0.06-0.9,0.08-1.45,0.12c0,1.45,0,2.86,0,4.32C451.99,110.51,451.37,110.51,450.63,110.51z
			 M460.62,102.79c0,0.22,0.03,0.45,0.05,0.72c0.89,0.25,1.77,0.04,2.65,0.18c0.22,0.54,0.04,1.08,0.13,1.65
			c-0.93,0.36-1.86,0.09-2.83,0.28c-0.11,0.98-0.08,1.93-0.01,2.93c1.15,0.32,2.35-0.05,3.57,0.22c0,0.56,0,1.09,0,1.71
			c-1.87,0-3.73,0-5.68,0c0-3.86,0-7.75,0-11.72c1.88,0,3.77,0,5.72,0c0,0.55,0,1.09,0,1.67c-1.16,0.3-2.31,0.02-3.59,0.2
			C460.62,101.43,460.61,102.11,460.62,102.79z M514.99,120.52c-11.2-0.07-22.29,0.22-33.36-0.7c2.34-0.47,4.69-0.94,7.06-1.01
			c8.62-0.24,17.23-0.09,25.85-0.13c0.09,0,0.18,0.04,0.32,0.07C515.13,119.3,514.92,119.87,514.99,120.52z M500.98,103.27
			c2.42-1.2,5.08-1.72,7.7-3.06c-0.25,3.31-0.78,6.35-1.2,9.6c-0.74-0.55-1.12-1.21-1.81-1.59c-1.47,1.25-2.81,2.63-4.17,3.99
			c-1.3,1.3-2.6,2.6-3.92,3.87c-1.58,1.53-3.46,1.44-4.92-0.24c-0.99-1.13-1.9-2.35-3.1-3.43c-4.01,2.86-7.49,6.44-12.09,8.53
			c-0.43-0.91-0.26-1.56,0.29-2.14c3.35-3.53,6.65-7.1,10.12-10.52c1.21-1.19,3.7-1.18,4.7,0.42c0.57,0.92,1.44,1.66,2.19,2.47
			c0.15,0.16,0.34,0.28,0.5,0.4c2.37-2.3,4.7-4.57,6.99-6.79C501.97,104.05,501.31,103.86,500.98,103.27z M512.91,112.22
			c-1.29,0.92-2.34,2.16-3.62,3.37c-0.08-1.72-0.72-3.34-0.48-5.09c0.48-3.45,0.96-6.91,1.42-10.36c0.08-0.59,0.07-1.18,0.12-1.95
			c-2.14,0.86-4.09,1.64-6.02,2.41c-5.8-7.1-12.33-6.68-16.7-4.41c-5.98,3.1-8.07,8.54-6.37,16.66c-0.98,0.94-2,1.92-3.08,2.96
			c-2.41-5.29-2.66-10.62-0.05-15.85c3.56-7.15,10.64-10.93,18.65-10.38c9.9,0.69,16.42,7.42,18.09,16.03
			c0.04,0.22,0.05,0.46,0.11,0.68C515.67,108.73,515.08,110.67,512.91,112.22z M515.09,73.23c-4.5,0.03-9,0.03-13.5,0.03
			c-27.51,0-55.02-0.02-82.52-0.02c-21.03,0-42.07,0.02-63.1,0.02c-0.79,0-1.63,0.2-2.42-0.28c0.99-0.48,161.42-0.59,162.87-0.12
			C516.08,73.45,515.52,73.23,515.09,73.23z"/>
		<path class="st9" d="M514.97,106.27c-0.06-0.22-0.07-0.45-0.11-0.68c-1.67-8.61-8.19-15.34-18.09-16.03
			c-8.01-0.55-15.09,3.23-18.65,10.38c-2.61,5.23-2.35,10.56,0.05,15.85c1.09-1.04,2.1-2.02,3.08-2.96
			c-1.69-8.12,0.39-13.56,6.37-16.66c4.37-2.26,10.91-2.69,16.7,4.41c1.94-0.78,3.88-1.55,6.02-2.41c-0.04,0.76-0.04,1.36-0.12,1.95
			c-0.46,3.46-0.94,6.91-1.42,10.36c-0.24,1.75,0.4,3.38,0.48,5.09c1.28-1.21,2.34-2.45,3.62-3.37
			C515.08,110.67,515.67,108.73,514.97,106.27z"/>
		<path class="st9" d="M448.91,149.95c-0.03-0.29,0.01-0.6-0.06-0.63c-1.3-0.5-2.69,0.02-4.12-0.34c0-0.56,0.01-1.1,0-1.65
			c-0.01-0.97-0.02-0.97-0.8-1.07c-0.23,0.91,0.1,1.9-0.25,2.79c-2.39,0-4.72,0-7.02,0c-0.24-0.6-0.08-1.16-0.16-1.7
			c-0.07-0.47,0.31-1.29-0.83-1.16c-0.05,0.96-0.09,1.9-0.13,2.86c-2.46,0-4.78,0-7.1,0c-0.46-2.67-0.48-2.73-0.94-2.82
			c-0.25,0.92,0.07,1.9-0.25,2.77c-2.44,0-4.8,0-7.14,0c-0.3-2.71-0.3-2.71-1.03-2.74c0,0.9,0,1.8,0,2.68
			c-0.79,0.25-1.5,0.03-2.16,0.18c-0.56,0.13-1.5-0.52-1.73,0.84c1.32,0,2.53,0,3.81,0c0,2.57,0,4.98,0,7.42
			c-1.27,0.19-2.51-0.1-3.71,0.2c0.08,0.51,0.08,0.51,3.71,1.03c0,2.41,0,4.82,0,7.36c-1.28,0-2.5,0-3.71,0
			c-0.02,0.27-0.08,0.49-0.02,0.53c1.16,0.78,2.54-0.03,3.82,0.5c0,0.85,0,1.67,0,2.49c0,1.8,0,1.8,0.87,2.09c0-1.58,0-3.11,0-4.71
			c2.54,0,4.9,0,7.44,0c0,1.41,0.01,2.7,0,3.98c-0.01,0.59,0.16,0.89,0.87,0.57c0.1-1.47-0.08-2.98,0.17-4.55
			c2.41-0.07,4.75-0.1,7.2,0.04c0,1.62,0,3.07,0,4.49c0.37,0.15,0.62,0.2,0.86-0.05c0.1-1.48-0.1-2.99,0.16-4.45
			c2.44,0,4.76,0,7.24,0c0,1.57,0,3.06,0,4.55c0.25,0.04,0.51,0.08,0.76,0.12c0.22-1.53-0.03-3.16,0.21-4.81c1.42,0,2.73,0,4.05,0
			c0-0.28,0.05-0.5-0.01-0.54c-1.29-0.73-2.75,0.04-4.03-0.42c0-2.45,0-4.86,0-7.33c1.17,0,2.23-0.02,3.28,0.01
			c0.83,0.02,0.93-0.34,0.6-1.11c-1.3,0-2.61,0-3.89,0c0-2.53,0-4.93,0-7.45C446.23,149.95,447.54,149.95,448.91,149.95z
			 M427.24,165.87c-2.32,0-4.72,0-7.24,0c0-2.45,0-4.82,0-7.26c2.41,0,4.77,0,7.24,0C427.24,160.97,427.24,163.37,427.24,165.87z
			 M427.25,157.44c-2.41,0-4.78,0-7.23,0c0-2.46,0-4.87,0-7.37c2.41,0,4.77,0,7.23,0C427.25,152.47,427.25,154.88,427.25,157.44z
			 M428.39,150.08c2.34,0,4.66,0,7.09,0c0,2.41,0,4.81,0,7.31c-2.32,0-4.67,0-7.09,0C428.39,154.98,428.39,152.57,428.39,150.08z
			 M435.51,165.88c-2.33,0-4.68,0-7.18,0c0.01-2.42-0.15-4.83,0.02-7.29c2.43,0,4.75,0,7.16,0
			C435.51,161.03,435.51,163.4,435.51,165.88z M443.71,165.88c-2.31,0-4.67,0-7.09,0c0-2.46,0-4.87,0-7.32c2.38,0,4.67,0,7.09,0
			C443.71,160.99,443.71,163.39,443.71,165.88z M443.76,157.41c-2.38,0-4.7,0-7.19,0c0-2.45,0-4.82,0-7.31c2.39,0,4.74,0,7.19,0
			C443.76,152.52,443.76,154.93,443.76,157.41z"/>
		<path class="st9" d="M494.76,111.17c-0.75-0.81-1.61-1.55-2.19-2.47c-1-1.6-3.49-1.61-4.7-0.42c-3.47,3.42-6.77,6.99-10.12,10.52
			c-0.55,0.58-0.72,1.23-0.29,2.14c4.6-2.09,8.09-5.67,12.09-8.53c1.2,1.08,2.11,2.29,3.1,3.43c1.47,1.67,3.34,1.76,4.92,0.24
			c1.32-1.27,2.62-2.57,3.92-3.87c1.36-1.36,2.7-2.74,4.17-3.99c0.69,0.38,1.07,1.04,1.81,1.59c0.42-3.25,0.96-6.29,1.2-9.6
			c-2.62,1.34-5.28,1.86-7.7,3.06c0.33,0.59,0.99,0.78,1.27,1.51c-2.29,2.23-4.63,4.5-6.99,6.79
			C495.1,111.45,494.9,111.33,494.76,111.17z"/>
		<path class="st9" d="M370.25,113.93c0,2.17,0,4.35,0,6.52c0,0.16,0.13,0.28,0.28,0.28h13c0.16,0,0.28-0.13,0.28-0.28
			c0-1.19,0-2.38,0-3.57c0-1.4,0-2.8,0-4.21c0-0.72,0-1.45,0-2.17c0-0.63-0.08-1.33,0.02-1.95c0.01-0.06,0.02-0.12,0.07-0.17
			c0.05-0.05,0.14-0.06,0.21-0.06c0.8-0.03,1.61-0.04,2.41-0.02c0.52,0.01,1.01,0.12,1.53,0.02c0.11-0.02,0.23-0.06,0.27-0.16
			c0.22-0.58-1.94-0.48-2.23-0.49c-2.99-0.04-5.98-0.09-8.97-0.11c-1.59-0.01-3.22-0.04-4.8,0.18c-1.17,0.16-1.89,1.22-2.04,2.33
			C370.09,111.35,370.25,112.66,370.25,113.93z"/>
		<path class="st9" d="M421.29,41.12c1.9,2.03,2.97,4.35,2.99,7.16c0.01,1.44,0.67,2.09,2.12,2.12c1.83,0.04,3.67,0.01,5.51,0.01
			c0-0.01,0-0.02,0-0.03c0.55,0,1.1,0,1.65,0c1.42,0,2.85,0.06,4.26-0.01c1.52-0.08,2.19-0.7,2.2-2.08
			c0.01-2.97,1.25-5.34,3.19-7.52c4.97-5.57,4.95-14.02,0.05-19.63c-4.77-5.45-13.18-6.64-19.26-2.57
			c-5.2,3.48-7.44,8.42-6.58,14.65C417.83,36.26,419.21,38.9,421.29,41.12z M423.54,20.65c6.73-5.48,16.57-3.44,20.54,4.27
			c2.27,4.41,2,8.85-0.61,13.09c-0.6,0.97-1.32,1.88-2.05,2.76c-1.77,2.11-2.86,4.46-2.84,7.26c0,0.22-0.06,0.45-0.12,0.86
			c-2.11,0-4.2,0-6.29,0c-2.06,0-4.13,0-6.34,0c-0.19-1.39-0.17-2.63-0.51-3.82c-0.56-1.95-1.73-3.5-3.05-5
			c-1.92-2.18-3.21-4.68-3.53-7.61C418.21,27.67,419.83,23.67,423.54,20.65z"/>
		<path class="st9" d="M353.53,134.81c0.38,0.45,0.78,0.31,1.11,0.31c53.88-0.11,107.77,0.22,161.65-0.16
			c0.01,0,0.03-0.08,0.03-0.13c0-0.04-0.01-0.09-0.01-0.13C514.83,134.29,354.63,134.36,353.53,134.81z"/>
		<path class="st9" d="M353.54,72.98c0.8,0.49,1.64,0.28,2.42,0.28c21.03,0,42.07-0.02,63.1-0.02c27.51,0,55.02,0.01,82.52,0.02
			c4.5,0,9,0,13.5-0.03c0.43,0,0.99,0.22,1.32-0.38C514.97,72.39,354.53,72.5,353.54,72.98z"/>
		<path class="st9" d="M354.35,110.36c0.39,2.84,2.96,5.11,5.96,5.45c3.39,0.39,6.15-1.27,7.47-4.43c-2.91-2.95-5.8-5.87-8.69-8.78
			C355.05,104.35,353.9,107.03,354.35,110.36z"/>
		<path class="st9" d="M371.12,107.09c3.15-3.25,6.16-6.36,9.21-9.49c0.11-0.11,0.1-0.28,0-0.39c-2.98-2.93-6.05-5.93-9.11-8.93
			c-0.16-0.16-0.44-0.07-0.47,0.16c-0.36,2.69-0.47,14.57-0.1,18.49C370.67,107.16,370.96,107.26,371.12,107.09z"/>
		<path class="st9" d="M369.66,99.86c0.11,0,0.22-0.05,0.29-0.14c0.05-0.07,0.08-0.15,0.08-0.23v-9.83c0-0.34-0.41-0.5-0.64-0.25
			c-3.2,3.41-6.44,6.46-9.44,9.84c-0.21,0.24-0.04,0.62,0.28,0.62H369.66z"/>
		<path class="st9" d="M514.87,118.75c-0.15-0.03-0.23-0.07-0.32-0.07c-8.62,0.04-17.24-0.11-25.85,0.13
			c-2.37,0.07-4.72,0.53-7.06,1.01c11.07,0.93,22.16,0.64,33.36,0.7C514.92,119.87,515.13,119.3,514.87,118.75z"/>
		<path class="st9" d="M424.19,102.62c0.63,0.1,1.26,0.07,2.06-0.01c0-0.45,0.02-0.81,0-1.17c-0.09-1.67-1.44-2.92-3.19-2.94
			c-1.89-0.02-3.19,1.15-3.22,2.98c-0.03,2.11-0.02,4.22,0.02,6.32c0.04,1.78,1.06,2.75,2.86,2.84c1.89,0.09,3.32-0.88,3.5-2.54
			c0.15-1.35,0.13-2.71-0.04-4.13c-1.11,0.01-2.14-0.15-3.16,0.1c-0.07,0.57-0.11,1.06-0.05,1.3c0.29,0.64,0.82,0.26,1.1,0.74
			c0,0.5,0.02,1.09,0,1.68c-0.02,0.61-0.39,0.92-0.97,0.96c-0.63,0.05-1.18-0.23-1.18-0.87c-0.03-2.2,0.01-4.4,0.07-6.59
			c0.02-0.56,0.4-0.93,1-0.91c0.64,0.03,0.99,0.38,1.05,1.04C424.09,101.81,423.92,102.23,424.19,102.62z"/>
		<path class="st9" d="M415.08,110.67c1.97,0.05,3.29-1.09,3.35-3.03c0.06-2.06,0.06-4.13,0-6.2c-0.05-1.73-1.43-2.96-3.18-2.95
			c-1.8,0.01-3.24,1.31-3.3,3.01c-0.04,1.01-0.01,2.02-0.01,3.03c0,0.96,0,1.93,0,2.89C411.96,109.4,413.14,110.62,415.08,110.67z
			 M415.18,100.4c0.79-0.01,1.1,0.52,1.1,1.27c-0.01,0.96,0,1.92,0,2.88c-0.01,0-0.01,0-0.02,0c0,0.96,0.01,1.92,0,2.88
			c-0.01,0.74-0.31,1.25-1.11,1.27c-0.86,0.02-1.05-0.54-1.05-1.27c0.01-1.92,0.01-3.84-0.01-5.75
			C414.08,100.91,414.4,100.41,415.18,100.4z"/>
		<path class="st9" d="M387.58,101.14c-0.6,2.06,0.38,4.43,2.31,5.72c0.29,0.19,0.67-0.01,0.67-0.36v-9.63
			c0-0.24-0.19-0.43-0.43-0.43h-7.98c-0.35,0-0.56,0.4-0.35,0.69c1.14,1.56,2.22,3.05,3.3,4.54c0.13,0.17,0.36,0.23,0.55,0.13
			c0.56-0.29,1.07-0.56,1.57-0.82c0.07-0.04,0.12-0.09,0.16-0.16c0.05-0.09,0.13-0.13,0.24-0.07c0.12,0.07,0.08,0.18,0.02,0.27
			C387.62,101.05,387.6,101.09,387.58,101.14z"/>
		<path class="st9" d="M434.04,101.57c-0.05-1.93-1.21-3.05-3.13-3.07c-1.92-0.02-3.31,1.22-3.34,3.07
			c-0.03,2.02-0.02,4.03,0.01,6.05c0.03,1.85,1.32,3.09,3.15,3.1c1.96,0.01,3.26-1.2,3.3-3.09c0.02-1.01,0-2.02,0-3.03
			c0,0,0.01,0,0.01,0C434.05,103.59,434.07,102.58,434.04,101.57z M430.82,108.73c-0.89,0.02-1.2-0.52-1.19-1.32
			c0.03-1.92,0.07-3.83,0.1-5.75c0.01-0.75,0.32-1.27,1.12-1.25c0.8,0.02,1.07,0.57,1.07,1.31c0,0.96,0,1.92,0,2.87
			c0,0.96,0,1.92,0,2.87C431.92,108.21,431.64,108.72,430.82,108.73z"/>
		<path class="st9" d="M464.21,100.43c0-0.58,0-1.12,0-1.67c-1.94,0-3.84,0-5.72,0c0,3.98,0,7.86,0,11.72c1.95,0,3.82,0,5.68,0
			c0-0.62,0-1.15,0-1.71c-1.22-0.27-2.42,0.1-3.57-0.22c-0.07-1-0.1-1.95,0.01-2.93c0.97-0.19,1.9,0.08,2.83-0.28
			c-0.09-0.57,0.09-1.11-0.13-1.65c-0.88-0.13-1.76,0.08-2.65-0.18c-0.02-0.27-0.04-0.49-0.05-0.72c-0.01-0.68,0-1.37,0-2.16
			C461.9,100.45,463.05,100.73,464.21,100.43z"/>
		<path class="st9" d="M454.18,106.07c1.91-0.27,2.9-1.41,2.91-3.35c0-0.37,0.01-0.73,0-1.1c-0.04-1.51-0.82-2.53-2.3-2.83
			c-1.39-0.28-2.8-0.12-4.16-0.14c0,4.06,0,7.94,0,11.86c0.73,0,1.35,0,2.09,0c0-1.46,0-2.86,0-4.32
			C453.28,106.15,453.73,106.13,454.18,106.07z M452.79,100.72c1.89-0.18,2.1,0,2.12,1.64c0.02,1.74-0.18,1.92-2.07,1.79
			C452.61,103.05,452.78,101.93,452.79,100.72z"/>
		<path class="st9" d="M447.27,98.7c-0.66,1.11-0.61,2.53-1.54,3.63c-0.73-1.2-0.78-2.54-1.41-3.6c-0.75,0-1.42,0-2.26,0
			c0.78,2.06,1.45,3.96,2.23,5.82c0.81,1.93,0.15,3.98,0.54,5.97c0.68,0.06,1.3,0.12,2.15-0.1c-0.88-4.23,1.1-7.88,2.53-11.67
			C448.64,98.6,447.96,98.63,447.27,98.7z"/>
		<path class="st9" d="M441.14,98.68c-2.04,0.03-4.09-0.13-6.17,0.05c-0.12,0.62-0.14,1.19-0.04,1.83c0.68,0.03,1.31,0.06,2.1,0.1
			c0,3.31,0,6.58,0,9.87c0.8-0.01,1.43,0.13,2.17-0.19c0-3.23,0-6.46,0-9.63c0.75-0.23,1.43,0.03,2.07-0.4
			C441.21,99.81,441.41,99.28,441.14,98.68z"/>
		<path class="st9" d="M405.56,98.71c0,3.98,0,7.88,0,11.8c1.85,0,3.57,0,5.29,0c0.27-0.59,0.18-1.13,0.09-1.9c-1.16,0-2.23,0-3.4,0
			c0-3.38,0-6.61,0-9.88C406.81,98.62,406.19,98.62,405.56,98.71z"/>
		<path class="st9" d="M438.17,51.46c-0.3-0.08-0.64-0.06-0.96-0.06c-3.17,0.01-6.33,0.02-9.5,0.03c-0.41,0-0.83,0-1.23,0.06
			c-0.61,0.1-1.07,0.47-1,1.1c0.08,0.67,0.55,0.95,1.28,0.94c1.88-0.04,3.76-0.01,5.64-0.01c1.83-0.08,3.67-0.19,5.5-0.01
			c0.65,0.06,1.12-0.24,1.2-0.86C439.17,52.04,438.75,51.62,438.17,51.46z"/>
		<path class="st9" d="M437.64,56.49c0.71-0.04,1.31-0.37,1.24-1.16c-0.07-0.77-0.58-0.98-1.39-0.85c-0.94,0.14-1.92,0.1-2.87,0.08
			c-2.61-0.06-5.22,0.13-7.82-0.08c-0.7-0.06-1.24,0.24-1.3,0.92c-0.06,0.7,0.5,1.03,1.16,1.09c0.27,0.03,0.55,0,0.82,0
			c1.56,0,3.11,0,4.67,0c0-0.01,0-0.01,0-0.02c1.24,0,2.47,0,3.71,0C436.45,56.47,437.05,56.52,437.64,56.49z"/>
		<path class="st9" d="M430.79,60.76c0.96,0.05,1.92,0.04,2.88-0.02c1.64-0.1,2.87-1.57,2.73-3.26c-2.82,0-5.64,0-8.47,0
			C427.94,59.23,429.21,60.69,430.79,60.76z"/>
		<path class="st7" d="M419.99,165.87c2.53,0,4.92,0,7.24,0c0-2.51,0-4.91,0-7.26c-2.47,0-4.83,0-7.24,0
			C419.99,161.06,419.99,163.42,419.99,165.87z"/>
		<path class="st7" d="M420.02,157.44c2.45,0,4.82,0,7.23,0c0-2.57,0-4.98,0-7.37c-2.46,0-4.82,0-7.23,0
			C420.02,152.57,420.02,154.98,420.02,157.44z"/>
		<path class="st7" d="M436.57,157.41c2.49,0,4.81,0,7.19,0c0-2.48,0-4.89,0-7.31c-2.45,0-4.8,0-7.19,0
			C436.57,152.59,436.57,154.96,436.57,157.41z"/>
		<path class="st7" d="M436.62,165.88c2.43,0,4.78,0,7.09,0c0-2.49,0-4.9,0-7.32c-2.42,0-4.71,0-7.09,0
			C436.62,161.01,436.62,163.42,436.62,165.88z"/>
		<path class="st7" d="M428.33,165.88c2.5,0,4.85,0,7.18,0c0-2.47,0-4.85,0-7.29c-2.41,0-4.73,0-7.16,0
			C428.18,161.05,428.34,163.45,428.33,165.88z"/>
		<path class="st7" d="M435.48,150.08c-2.43,0-4.75,0-7.09,0c0,2.49,0,4.89,0,7.31c2.42,0,4.78,0,7.09,0
			C435.48,154.89,435.48,152.49,435.48,150.08z"/>
		<path class="st6" d="M422.26,40.07c1.32,1.49,2.49,3.05,3.05,5c0.34,1.19,0.32,2.44,0.51,3.82c2.22,0,4.28,0,6.34,0
			c2.09,0,4.18,0,6.29,0c0.06-0.41,0.12-0.63,0.12-0.86c-0.02-2.8,1.07-5.16,2.84-7.26c0.74-0.88,1.45-1.78,2.05-2.76
			c2.61-4.24,2.89-8.68,0.61-13.09c-3.97-7.71-13.8-9.75-20.54-4.27c-3.71,3.01-5.33,7.02-4.8,11.81
			C419.05,35.39,420.34,37.9,422.26,40.07z M433.9,46.66c0.52-2.23,1.02-4.42,1.54-6.61c0.29-1.2,0.61-2.4,0.91-3.6
			c0.12-0.47,0.3-0.96,0.89-0.79c0.56,0.16,0.51,0.63,0.39,1.13c-0.77,3.3-1.76,6.55-2.34,9.9c-0.09,0.49-0.36,0.89-0.93,0.8
			C433.89,47.41,433.88,46.99,433.9,46.66z M427.16,35.72c0.69-0.21,0.85,0.36,0.98,0.86c0.82,3.24,1.63,6.48,2.44,9.72
			c0.03,0.13,0.06,0.27,0.08,0.37c0.04,0.46-0.09,0.78-0.55,0.83c-0.56,0.06-0.67-0.41-0.77-0.8c-0.59-2.26-1.17-4.52-1.75-6.78
			c-0.26-1.02-0.54-2.04-0.81-3.06C426.66,36.4,426.57,35.9,427.16,35.72z"/>
		<path class="st7" d="M415.15,108.69c0.8-0.02,1.11-0.53,1.11-1.27c0.01-0.96,0-1.92,0-2.88c0.01,0,0.01,0,0.02,0
			c0-0.96,0-1.92,0-2.88c0-0.75-0.3-1.27-1.1-1.27c-0.78,0.01-1.1,0.51-1.09,1.27c0.01,1.92,0.01,3.84,0.01,5.75
			C414.09,108.16,414.29,108.72,415.15,108.69z"/>
		<path class="st7" d="M431.91,101.72c0-0.73-0.26-1.29-1.07-1.31c-0.79-0.01-1.11,0.5-1.12,1.25c-0.03,1.92-0.07,3.83-0.1,5.75
			c-0.01,0.8,0.3,1.34,1.19,1.32c0.82-0.02,1.1-0.52,1.1-1.26c0-0.96,0-1.92,0-2.87C431.91,103.64,431.91,102.68,431.91,101.72z"/>
		<path class="st6" d="M431.91,101.72c0,0.96,0,1.92,0,2.87c0,0.96,0,1.92,0,2.87c0-0.96,0-1.92,0-2.87
			C431.91,103.64,431.91,102.68,431.91,101.72z"/>
		<path class="st7" d="M454.9,102.36c-0.02-1.64-0.23-1.82-2.12-1.64c-0.01,1.21-0.18,2.33,0.05,3.43
			C454.73,104.28,454.92,104.1,454.9,102.36z"/>
		<path class="st9" d="M434.35,47.48c0.57,0.1,0.85-0.31,0.93-0.8c0.59-3.35,1.57-6.6,2.34-9.9c0.12-0.5,0.17-0.97-0.39-1.13
			c-0.59-0.17-0.77,0.32-0.89,0.79c-0.3,1.2-0.62,2.4-0.91,3.6c-0.52,2.19-1.02,4.37-1.54,6.61
			C433.88,46.99,433.89,47.41,434.35,47.48z"/>
		<path class="st9" d="M427.59,39.92c0.58,2.26,1.15,4.52,1.75,6.78c0.1,0.39,0.21,0.85,0.77,0.8c0.46-0.05,0.59-0.38,0.55-0.83
			c-0.02-0.1-0.05-0.23-0.08-0.37c-0.81-3.24-1.62-6.48-2.44-9.72c-0.13-0.5-0.28-1.06-0.98-0.86c-0.59,0.17-0.5,0.68-0.38,1.15
			C427.05,37.89,427.32,38.9,427.59,39.92z"/>
		<path class="st10" d="M305.67,187.77h258.61V0H305.67V187.77z M311.66,5.93h246.72v175.88H311.66V5.93z"/>
	</g>
</g>
</svg>
