<?xml version="1.0" encoding="utf-8"?>
<!-- Generator: Adobe Illustrator 25.0.0, SVG Export Plug-In . SVG Version: 6.00 Build 0)  -->
<svg version="1.1" id="Layer_1" xmlns="http://www.w3.org/2000/svg" xmlns:xlink="http://www.w3.org/1999/xlink" x="0px" y="0px"
	 viewBox="0 0 177.61 164" style="enable-background:new 0 0 177.61 164;" xml:space="preserve">
<style type="text/css">
	.st0{fill:#185AE9;}
	.st1{fill:#00B0FB;}
	.st2{fill:#00B0FB;fill-opacity:0.4;}
	.st3{fill:#FFFFFF;}
	.st4{fill:#00769D;}
	.st5{fill:#8DB849;}
	.st6{fill:#5A863E;}
	.st7{fill:#FFFFFE;}
	.st8{fill:#F26322;}
	.st9{fill:#009CDE;}
	.st10{fill-rule:evenodd;clip-rule:evenodd;fill:#7FC728;}
	.st11{fill:#00D8FF;}
	.st12{fill:#3C7CFF;}
	.st13{fill:#001135;}
	.st14{fill:#DBDBDB;}
	.st15{fill:#FDFDFD;}
	.st16{fill:#020202;}
	.st17{fill:#030303;}
	.st18{fill:#FBFBFB;}
	.st19{fill:#060606;}
	.st20{fill:#050505;}
	.st21{fill:#0A0A0A;}
	.st22{fill:#0E0E0E;}
	.st23{fill:#0D0D0D;}
	.st24{fill:#101010;}
	.st25{fill:#070707;}
	.st26{fill:#0C0C0C;}
	.st27{fill:#FCFCFC;}
	.st28{fill:#D2D3D3;}
	.st29{fill:#F6F6F6;}
	.st30{fill:#BABBBB;}
	.st31{fill:#8A8A8A;}
	.st32{fill:#8E8F8F;}
	.st33{fill:#5F5E5E;}
	.st34{fill:#FEFDFE;}
	.st35{fill-rule:evenodd;clip-rule:evenodd;fill:#00B0FB;}
	.st36{fill:none;}
</style>
<g>
	<g>
		<path class="st1" d="M176,61.83c-0.45-0.91-0.82-1.87-1.07-2.87c-0.95-1.84-1.49-3.9-1.61-6h-2.6l1.49,2.76
			c0.43,0.9,0.75,1.77,0.94,2.6c0.14,0.68,0.22,1.39,0.23,2.14c0,0.24-0.01,0.46-0.02,0.7c-0.13,2.79-1.06,5.48-2.69,7.77
			c-2.2,3.03-5.52,5.13-9.35,5.93c-1.02,0.16-2.34,0.25-3.92,0.25c-0.38,0-0.75-0.01-1.09-0.01c-8.07,0-14.63-6.57-14.63-14.63
			c0-1.94-0.78-3.75-1.01-5.7l-1-2l-2.88,0.19l0.32,2.23c0.22,1.82,0.34,3.6,0.34,5.28c0,0.16-0.01,0.32-0.01,0.48
			c0,0-0.01,0.1-0.01,0.11c0,0.16-0.03,0.6-0.03,0.6c-0.26,3.08-1.52,6.07-3.56,8.42l-0.3,0.33l-0.45,0.46
			c-2.76,2.72-6.4,4.23-10.27,4.23c-8.07,0-14.63-6.57-14.63-14.63v-7.51h-4.93v7.51c0,7.96-6.48,14.52-14.46,14.62
			c-7.97-0.1-14.45-6.66-14.45-14.62v-7.51h-4.93v7.51c0,8.06-6.56,14.63-14.63,14.63c-3.86,0-7.51-1.51-10.27-4.23l-0.43-0.44
			l-0.31-0.35c-2.04-2.35-3.31-5.34-3.56-8.42l-0.01-0.12c-0.01-0.16-0.02-0.32-0.03-0.48c0-0.01,0-0.11,0-0.11
			c-0.01-0.16-0.01-0.32-0.01-0.48c0-1.68,0.11-3.46,0.33-5.29l0.32-2.22l-3.15-0.19v2c-0.22,1.92-1,4.07-1,6
			c0,8.06-7.3,14.33-15.35,14.33c-0.35,0-0.72,0.01-1.11,0.01c-1.58,0-2.9-0.09-3.94-0.25c-3.81-0.8-7.12-2.9-9.33-5.93
			c-1.63-2.29-2.56-4.98-2.69-7.78c-0.01-0.23-0.01-0.45-0.01-0.74c0-0.23,0.02-0.46,0.04-0.69c-0.6,0.01-1.18-0.04-1.76-0.12
			c-0.37,1.21-0.89,2.38-1.57,3.44c2.02,1.94,3.46,4.48,4.06,7.31c0.14,0.17,0.31,0.38,0.53,0.66c0.95,1.21,1.89,2.43,2.82,3.65
			c0.16,0.09,0.36,0.21,0.61,0.36c-0.2-0.08-0.35-0.14-0.48-0.19c0.01,0.01,0.01,0.02,0.02,0.03c0.2,0.08,0.44,0.18,0.77,0.31
			c1.43,0.59,2.41,1,2.96,1.23c0.61,0.23,1.21,0.44,1.83,0.62c3.59,1.09,5.56,1.32,9.78,1.18c1.74-0.11,2.03-0.13,0.87-0.07
			c1.61-0.48,1.9-0.57,0.86-0.29c1.76-0.83,3.41-1.97,5.12-2.9c1.36-0.74,2.8-1.23,4.27-1.5c1-1.05,1.9-2.22,2.65-3.51
			c0.09-0.16,0.25-0.25,0.43-0.25s0.34,0.09,0.43,0.25c0.54,0.91,1.16,1.8,1.9,2.68c0.13,0.16,0.27,0.32,0.41,0.48l0.15,0.16
			c0.11,0.12,0.22,0.24,0.34,0.36l0.13,0.12c2.57,0.73,4.91,2.2,6.68,4.36c0.24-0.01,0.47-0.04,0.72-0.03
			c3.58,0.03,7.17,0.23,10.74-0.01c0.13-0.01,0.24-0.02,0.33-0.03c0.72-0.15,1.43-0.32,2.13-0.54c0.17-0.09,0.36-0.19,0.6-0.32
			c0.86-0.51,1.67-1.08,2.44-1.71c1.17-0.9,2.49-1.45,3.86-1.75c0.96-0.98,1.82-2.05,2.56-3.22c0.09-0.14,0.25-0.23,0.42-0.23
			c0.18,0,0.34,0.09,0.43,0.23c0.82,1.31,1.79,2.5,2.87,3.55c2.2,0.65,4.26,1.81,5.93,3.28c2.93,0.12,5.86,0.23,8.8,0.24
			c1.77,0.01,3.43,0.36,4.94,0.96c4.27-1.3,7.99-4.1,10.46-8.03c0.09-0.14,0.25-0.23,0.42-0.23s0.33,0.09,0.42,0.23
			c2.23,3.55,5.59,6.29,9.49,7.72c0.22,0.08,0.46,0.12,0.71,0.12c0.07,0,0.13,0,0.2-0.01h0.05c0.05,0,0.11,0.01,0.16,0.03
			c0.6,0.2,1.21,0.36,1.82,0.51c0.1,0,0.2-0.02,0.3-0.02c2.1-0.03,4.19,0.16,6.28,0.35c1.37-0.17,2.71-0.48,4.01-0.95l0.13-0.04
			l0.34-0.13c2.07-0.8,3.97-1.96,5.69-3.48c0.13-0.12,0.27-0.25,0.4-0.37l0.12-0.12c0.17-0.16,0.33-0.32,0.49-0.48
			c0.11-0.12,0.22-0.23,0.33-0.36l0.15-0.16c0.14-0.16,0.28-0.32,0.46-0.53c0.7-0.83,1.32-1.72,1.85-2.63
			c0.09-0.16,0.25-0.25,0.43-0.25s0.35,0.09,0.43,0.25c3.38,5.8,9.63,9.41,16.32,9.41l2.04-0.01c0.02-0.01,0.05-0.02,0.07-0.02
			c1.75-0.55,3.5-0.63,5.25-0.27c0.01-0.21,0.14-0.39,0.35-0.46c6.18-1.8,10.9-6.66,12.74-12.66C176.32,64.6,176.07,63.22,176,61.83
			z"/>
		<path class="st2" d="M147.58,4.24H30.03c-6.53,0-11.84,5.31-11.84,11.83V30.9c0,0.28,0.23,0.5,0.5,0.5h140.23
			c0.28,0,0.5-0.22,0.5-0.5V16.07C159.42,9.55,154.11,4.24,147.58,4.24z M32.03,24.78c-3.88,0-7.04-3.16-7.04-7.05
			c0-3.89,3.16-7.05,7.04-7.05c3.89,0,7.05,3.16,7.05,7.05C39.08,21.62,35.92,24.78,32.03,24.78z M52.7,24.87
			c-3.88,0-7.05-3.17-7.05-7.05c0-3.89,3.17-7.05,7.05-7.05c3.89,0,7.05,3.16,7.05,7.05C59.75,21.7,56.59,24.87,52.7,24.87z
			 M73.28,24.87c-3.88,0-7.04-3.17-7.04-7.05c0-3.89,3.16-7.05,7.04-7.05c3.89,0,7.05,3.16,7.05,7.05
			C80.33,21.7,77.17,24.87,73.28,24.87z M145.84,24.87H99.45c-3.89,0-7.05-3.17-7.05-7.05c0-3.89,3.16-7.05,7.05-7.05h46.39
			c3.89,0,7.05,3.16,7.05,7.05C152.89,21.7,149.73,24.87,145.84,24.87z"/>
		<path class="st1" d="M98.93,101.26H81.13c-0.23,0-0.45,0.1-0.6,0.27c-0.15,0.17-0.22,0.4-0.19,0.63l1.09,8.72
			c0.05,0.4,0.39,0.7,0.79,0.7h15.61c0.4,0,0.74-0.3,0.79-0.7l1.09-8.72c0.03-0.23-0.04-0.46-0.19-0.63
			C99.37,101.36,99.16,101.26,98.93,101.26z"/>
		<path class="st1" d="M104.33,147.86c1.88,0,3.42-1.53,3.42-3.42s-1.53-3.42-3.42-3.42s-3.42,1.53-3.42,3.42
			S102.45,147.86,104.33,147.86z"/>
		<path class="st1" d="M97.18,115.22H82.88c-0.23,0-0.45,0.1-0.6,0.27c-0.15,0.17-0.22,0.4-0.19,0.63l1.09,8.72
			c0.05,0.4,0.39,0.7,0.79,0.7h12.12c0.4,0,0.74-0.3,0.79-0.7l1.09-8.72c0.03-0.23-0.04-0.46-0.19-0.63
			C97.63,115.31,97.41,115.22,97.18,115.22z"/>
		<path class="st1" d="M114.37,115.22h-11.91c-0.4,0-0.74,0.3-0.79,0.7l-1.09,8.72c-0.03,0.23,0.04,0.46,0.19,0.63
			c0.15,0.17,0.37,0.27,0.6,0.27h11.24c0.38,0,0.71-0.27,0.78-0.64l1.76-8.72c0.05-0.24-0.01-0.48-0.17-0.67
			C114.83,115.32,114.61,115.22,114.37,115.22z"/>
		<path class="st1" d="M77.6,115.22H65.47c-0.24,0-0.47,0.11-0.62,0.3c-0.15,0.19-0.21,0.43-0.16,0.67l1.85,8.72
			c0.08,0.37,0.41,0.63,0.78,0.63h11.38c0.23,0,0.45-0.1,0.6-0.27c0.15-0.17,0.22-0.4,0.19-0.63l-1.09-8.72
			C78.35,115.52,78.01,115.22,77.6,115.22z"/>
		<path class="st1" d="M77.82,147.86c1.88,0,3.42-1.53,3.42-3.42s-1.53-3.42-3.42-3.42s-3.42,1.53-3.42,3.42
			S75.94,147.86,77.82,147.86z"/>
		<path class="st1" d="M77.55,111.31c0.15-0.17,0.22-0.4,0.19-0.63l-1.09-8.72c-0.05-0.4-0.39-0.7-0.79-0.7H62.51
			c-0.24,0-0.47,0.11-0.62,0.3c-0.15,0.19-0.21,0.43-0.16,0.67l1.85,8.72c0.08,0.37,0.41,0.63,0.78,0.63h12.59
			C77.18,111.58,77.4,111.48,77.55,111.31z"/>
		<path class="st1" d="M117.18,101.26H104.2c-0.4,0-0.74,0.3-0.79,0.7l-1.09,8.72c-0.03,0.23,0.04,0.46,0.19,0.63
			c0.15,0.17,0.37,0.27,0.6,0.27h12.31c0.38,0,0.71-0.27,0.78-0.64l1.76-8.72c0.05-0.24-0.01-0.48-0.17-0.67
			C117.65,101.37,117.42,101.26,117.18,101.26z"/>
		<path d="M52.7,10.77c-3.88,0-7.05,3.16-7.05,7.05c0,3.88,3.17,7.05,7.05,7.05c3.89,0,7.05-3.17,7.05-7.05
			C59.75,13.93,56.59,10.77,52.7,10.77z M52.7,21.23c-1.88,0-3.41-1.53-3.41-3.41c0-1.89,1.53-3.42,3.41-3.42
			c1.89,0,3.42,1.53,3.42,3.42C56.12,19.7,54.59,21.23,52.7,21.23z"/>
		<path d="M32.03,10.68c-3.88,0-7.04,3.16-7.04,7.05c0,3.89,3.16,7.05,7.04,7.05c3.89,0,7.05-3.16,7.05-7.05
			C39.08,13.84,35.92,10.68,32.03,10.68z M32.03,21.15c-1.88,0-3.41-1.54-3.41-3.42s1.53-3.42,3.41-3.42c1.89,0,3.42,1.54,3.42,3.42
			S33.92,21.15,32.03,21.15z"/>
		<path d="M145.84,10.77H99.45c-3.89,0-7.05,3.16-7.05,7.05c0,3.88,3.16,7.05,7.05,7.05h46.39c3.89,0,7.05-3.17,7.05-7.05
			C152.89,13.93,149.73,10.77,145.84,10.77z M145.84,21.23H99.45c-1.89,0-3.42-1.53-3.42-3.41c0-1.89,1.53-3.42,3.42-3.42h46.39
			c1.89,0,3.42,1.53,3.42,3.42C149.26,19.7,147.73,21.23,145.84,21.23z"/>
		<path d="M73.28,10.77c-3.88,0-7.04,3.16-7.04,7.05c0,3.88,3.16,7.05,7.04,7.05c3.89,0,7.05-3.17,7.05-7.05
			C80.33,13.93,77.17,10.77,73.28,10.77z M73.28,21.23c-1.88,0-3.41-1.53-3.41-3.41c0-1.89,1.53-3.42,3.41-3.42
			c1.89,0,3.42,1.53,3.42,3.42C76.7,19.7,75.17,21.23,73.28,21.23z"/>
		<path d="M177.3,59.49c-0.24-1.13-0.6-2.22-1.08-3.24l-0.19-0.37c-0.28-0.58-0.59-1.15-0.93-1.72l-11.38-21.07
			c-0.04-0.07-0.06-0.15-0.06-0.24V16.07c0-8.86-7.21-16.07-16.08-16.07H30.03c-8.86,0-16.07,7.21-16.07,16.07v16.78
			c0,0.09-0.02,0.17-0.06,0.24L2.5,54.18c-0.33,0.56-0.64,1.13-0.92,1.72l-0.19,0.35c-0.48,1.02-0.84,2.11-1.07,3.24
			C0.1,60.47-0.01,61.44,0,62.47c0,8.33,5.59,15.77,13.6,18.1c0.21,0.07,0.36,0.26,0.36,0.48v66.88c0,8.86,7.21,16.07,16.07,16.07
			h117.56c8.86,0,16.07-7.21,16.07-16.07V81.05c0-0.22,0.14-0.41,0.36-0.48c8-2.33,13.59-9.77,13.59-18.2
			C177.62,61.44,177.51,60.47,177.3,59.49z M18.19,16.07c0-6.52,5.31-11.83,11.84-11.83h117.55c6.53,0,11.84,5.31,11.84,11.83V30.9
			c0,0.28-0.22,0.5-0.5,0.5H18.69c-0.27,0-0.5-0.22-0.5-0.5V16.07z M137.45,62.47c0,0.16-0.01,0.32-0.01,0.48
			c0,0-0.01,0.1-0.01,0.11c0,0.16-0.03,0.6-0.03,0.6c-0.26,3.08-1.52,6.07-3.56,8.42l-0.3,0.33l-0.45,0.46
			c-2.76,2.72-6.4,4.23-10.27,4.23c-8.07,0-14.63-6.57-14.63-14.63V36.13c0-0.28,0.23-0.5,0.5-0.5h24.85c0.25,0,0.46,0.18,0.49,0.43
			l3.08,21.13C137.33,59.01,137.45,60.79,137.45,62.47z M103.26,36.13v26.34c0,7.96-6.48,14.52-14.46,14.62
			c-7.97-0.1-14.45-6.66-14.45-14.62V36.13c0-0.28,0.23-0.5,0.5-0.5h27.91C103.04,35.63,103.26,35.85,103.26,36.13z M40.17,62.47
			c0-1.68,0.11-3.46,0.33-5.29l3.08-21.12c0.04-0.25,0.25-0.43,0.49-0.43h24.85c0.28,0,0.5,0.22,0.5,0.5v26.34
			c0,8.06-6.56,14.63-14.63,14.63c-3.86,0-7.51-1.51-10.27-4.23l-0.43-0.44l-0.31-0.35c-2.04-2.35-3.31-5.34-3.56-8.42l-0.01-0.12
			c-0.01-0.16-0.02-0.32-0.03-0.48c0-0.01,0-0.11,0-0.11C40.17,62.79,40.17,62.63,40.17,62.47z M6.94,70.93
			c-1.63-2.29-2.56-4.98-2.69-7.78c-0.01-0.23-0.01-0.45-0.01-0.74c0-0.7,0.08-1.4,0.23-2.1c0.19-0.82,0.51-1.69,0.95-2.61
			L17.2,35.89c0.08-0.16,0.25-0.26,0.44-0.26h20.84c0.14,0,0.28,0.06,0.37,0.17c0.1,0.11,0.14,0.25,0.12,0.4l-2.7,20.46
			c-0.22,1.92-0.34,3.88-0.34,5.81c0,8.06-6.56,14.63-14.61,14.63c-0.35,0-0.72,0.01-1.11,0.01c-1.58,0-2.9-0.09-3.94-0.25
			C12.46,76.06,9.15,73.96,6.94,70.93z M159.42,147.93c0,6.53-5.31,11.84-11.84,11.84H30.03c-6.53,0-11.84-5.31-11.84-11.84V81.82
			c0-0.13,0.06-0.26,0.15-0.35c0.09-0.09,0.22-0.15,0.35-0.15c0,0,2.6,0.01,2.62,0.01c6.68,0,12.93-3.61,16.31-9.41
			c0.09-0.16,0.25-0.25,0.43-0.25s0.34,0.09,0.43,0.25c0.54,0.91,1.16,1.8,1.9,2.68c0.13,0.16,0.27,0.32,0.41,0.48l0.15,0.16
			c0.11,0.12,0.22,0.24,0.34,0.36l0.48,0.48c0.01,0,0.12,0.12,0.12,0.12c0.13,0.12,0.27,0.25,0.46,0.42
			c1.67,1.47,3.56,2.63,5.69,3.45l0.28,0.11l0.13,0.04c2.04,0.74,4.18,1.11,6.35,1.11c2.07,0,4.11-0.34,6.07-1
			c0.05-0.02,0.1-0.03,0.16-0.03h0.04c0.07,0.01,0.14,0.01,0.21,0.01c0.24,0,0.48-0.04,0.71-0.13c3.89-1.42,7.26-4.16,9.48-7.71
			c0.09-0.14,0.25-0.23,0.42-0.23c0.18,0,0.34,0.09,0.43,0.23c3.48,5.55,9.45,8.86,15.97,8.86h1.05c6.52,0,12.49-3.31,15.98-8.86
			c0.09-0.14,0.25-0.23,0.42-0.23s0.33,0.09,0.42,0.23c2.23,3.55,5.59,6.29,9.49,7.72c0.22,0.08,0.46,0.12,0.71,0.12
			c0.07,0,0.13,0,0.2-0.01h0.05c0.05,0,0.11,0.01,0.16,0.03c1.95,0.66,3.99,1,6.06,1c2.18,0,4.31-0.37,6.35-1.11l0.13-0.04
			l0.34-0.13c2.07-0.8,3.97-1.96,5.69-3.48c0.13-0.12,0.27-0.25,0.4-0.37l0.12-0.12c0.17-0.16,0.33-0.32,0.49-0.48
			c0.11-0.12,0.22-0.23,0.33-0.36l0.15-0.16c0.14-0.16,0.28-0.32,0.46-0.53c0.7-0.83,1.32-1.72,1.85-2.63
			c0.09-0.16,0.25-0.25,0.43-0.25s0.35,0.09,0.43,0.25c3.38,5.8,9.63,9.41,16.32,9.41l2.61-0.01c0.13,0,0.26,0.06,0.35,0.15
			c0.1,0.09,0.15,0.22,0.15,0.35V147.93z M173.36,63.16c-0.13,2.79-1.06,5.48-2.69,7.77c-2.2,3.03-5.52,5.13-9.35,5.93
			c-1.02,0.16-2.34,0.25-3.92,0.25c-0.38,0-0.75-0.01-1.09-0.01c-8.07,0-14.63-6.57-14.63-14.63c0-1.94-0.11-3.89-0.34-5.84
			l-2.7-20.43c-0.02-0.15,0.03-0.29,0.12-0.4c0.1-0.11,0.23-0.17,0.38-0.17h20.84c0.18,0,0.35,0.1,0.44,0.26l11.79,21.83
			c0.43,0.9,0.75,1.77,0.94,2.6c0.14,0.68,0.22,1.39,0.23,2.14C173.38,62.7,173.37,62.92,173.36,63.16z"/>
		<path d="M121.79,98.32c-0.35-0.45-0.85-0.69-1.41-0.69H61.41c-0.4,0-0.73-0.28-0.79-0.67c-0.71-4.19-4.45-7.35-8.69-7.35h-4.46
			c-1,0-1.82,0.81-1.82,1.81s0.82,1.82,1.82,1.82h4.46c2.43,0,4.55,1.72,5.05,4.09l7.78,36.73c0.66,3.12,2.98,5.64,6.06,6.58
			c0.21,0.07,0.39,0.22,0.49,0.43c0.09,0.2,0.1,0.44,0.01,0.65c-0.37,0.86-0.55,1.78-0.55,2.73c0,3.88,3.16,7.04,7.05,7.04
			c3.89,0,7.05-3.16,7.05-7.04c0-0.81-0.14-1.6-0.41-2.36c-0.08-0.24-0.04-0.51,0.11-0.72c0.15-0.22,0.39-0.34,0.65-0.34h11.71
			c0.26,0,0.51,0.13,0.65,0.34c0.15,0.21,0.19,0.48,0.11,0.73c-0.27,0.75-0.41,1.54-0.41,2.35c0,3.88,3.16,7.04,7.05,7.04
			c3.89,0,7.05-3.16,7.05-7.04c0-0.81-0.14-1.6-0.4-2.36c-0.09-0.24-0.05-0.51,0.1-0.72c0.15-0.22,0.39-0.34,0.65-0.34h0.62
			c1.01,0,1.82-0.82,1.82-1.82s-0.81-1.81-1.82-1.81H73.36c-2.43,0-4.55-1.72-5.05-4.1l-0.67-3.17c-0.05-0.23,0.01-0.48,0.16-0.67
			c0.15-0.18,0.38-0.29,0.62-0.29h46.33c0.86,0,1.61-0.62,1.78-1.46l5.63-27.93C122.27,99.29,122.14,98.76,121.79,98.32z
			 M104.33,141.03c1.89,0,3.42,1.53,3.42,3.42c0,1.88-1.53,3.41-3.42,3.41c-1.88,0-3.41-1.53-3.41-3.41
			C100.92,142.56,102.45,141.03,104.33,141.03z M77.82,141.03c1.88,0,3.42,1.53,3.42,3.42c0,1.88-1.54,3.41-3.42,3.41
			s-3.42-1.53-3.42-3.41C74.4,142.56,75.94,141.03,77.82,141.03z M63.58,110.95l-1.85-8.72c-0.05-0.24,0.01-0.48,0.16-0.67
			c0.16-0.19,0.38-0.3,0.62-0.3h13.35c0.4,0,0.74,0.3,0.79,0.7l1.09,8.72c0.03,0.23-0.04,0.46-0.19,0.63s-0.37,0.27-0.6,0.27H64.36
			C63.98,111.58,63.65,111.32,63.58,110.95z M79.29,125.27c-0.15,0.17-0.37,0.27-0.6,0.27H67.31c-0.37,0-0.7-0.27-0.78-0.64
			l-1.85-8.72c-0.05-0.24,0.01-0.48,0.17-0.67c0.15-0.19,0.38-0.29,0.62-0.29H77.6c0.41,0,0.75,0.3,0.8,0.7l1.09,8.71
			C79.52,124.86,79.45,125.09,79.29,125.27z M96.89,124.84c-0.06,0.39-0.4,0.7-0.8,0.7H83.97c-0.41,0-0.75-0.31-0.8-0.7l-1.09-8.72
			c-0.03-0.23,0.04-0.46,0.2-0.64c0.15-0.17,0.37-0.26,0.6-0.26h14.3c0.23,0,0.45,0.09,0.6,0.27c0.15,0.17,0.22,0.4,0.2,0.62
			L96.89,124.84z M98.63,110.88c-0.05,0.4-0.39,0.7-0.79,0.7H82.22c-0.4,0-0.74-0.3-0.79-0.7l-1.09-8.72
			c-0.03-0.23,0.04-0.46,0.19-0.63c0.15-0.17,0.37-0.27,0.6-0.27h17.8c0.22,0,0.44,0.1,0.6,0.27c0.15,0.17,0.22,0.4,0.19,0.63
			L98.63,110.88z M113.39,124.89c-0.08,0.38-0.41,0.65-0.78,0.65h-11.25c-0.22,0-0.44-0.1-0.6-0.28c-0.15-0.17-0.22-0.4-0.19-0.62
			l1.09-8.72c0.05-0.4,0.39-0.7,0.79-0.7h11.92c0.24,0,0.46,0.1,0.61,0.29c0.16,0.19,0.22,0.43,0.17,0.66L113.39,124.89z
			 M116.21,110.94c-0.08,0.37-0.41,0.64-0.79,0.64h-12.31c-0.23,0-0.45-0.1-0.6-0.27c-0.15-0.17-0.22-0.4-0.2-0.63l1.1-8.72
			c0.05-0.4,0.39-0.7,0.79-0.7h12.98c0.24,0,0.47,0.11,0.62,0.29c0.15,0.19,0.21,0.43,0.17,0.67L116.21,110.94z"/>
	</g>
</g>
</svg>
