<?xml version="1.0" encoding="utf-8"?>
<!-- Generator: Adobe Illustrator 24.3.0, SVG Export Plug-In . SVG Version: 6.00 Build 0)  -->
<svg version="1.1" id="Layer_1" xmlns="http://www.w3.org/2000/svg" xmlns:xlink="http://www.w3.org/1999/xlink" x="0px" y="0px"
	 viewBox="0 0 135.8 107.7" style="enable-background:new 0 0 135.8 107.7;" xml:space="preserve">
<style type="text/css">
	.st0{fill:#00B0FB;}
	.st1{fill:#FFFFFF;}
	.st2{fill:#00B0FB;fill-opacity:0.4;}
</style>
<g>
	<g>
		<path class="st0" d="M120.53,0.78H31.69c-5.43,0-7.29,1.84-7.29,7.22c-0.01,15.47-0.01,30.94-0.01,46.41v2.57
			c-2.24,0-4.16,0.03-6.08-0.01c-1.69-0.05-2.52,0.66-2.71,2.38c-0.31,2.79-1.99,4.44-4.72,4.92c-2.29,0.41-2.52,0.69-2.54,3.07
			c0,6.93-0.14,13.85,0.05,20.77c0.17,6.53,2.97,11.83,8.51,15.46c4.7,3.08,10,3.66,15.44,3.21c11.78-0.98,18.76-8.49,18.77-20.24
			c0.01-1.71,0.65-1.92,2.11-1.92c22.52,0.03,45.03,0.03,67.55,0.02c4.78,0,6.77-2,6.77-6.82V7.78
			C127.52,2.74,125.56,0.78,120.53,0.78z M47.12,88.62c-0.2,6.58-4.64,11.89-11.05,13.52c-5.14,1.3-10.26,1.26-15.18-0.93
			c-5.13-2.27-8.1-6.42-8.46-11.86c-0.43-6.41-0.12-12.86-0.13-19.3v-1.97c3.44-0.99,5.76-3.04,6.91-6.37
			c0.13-0.35,0.79-0.72,1.2-0.72c6.2-0.05,12.39-0.06,18.59,0.01c0.48,0,1.21,0.54,1.37,0.99c1.06,2.84,3.02,4.68,5.79,5.8
			c0.44,0.17,0.97,0.88,0.97,1.36C47.19,75.64,47.32,82.13,47.12,88.62z M123.54,77.7c0,2.76-0.22,2.99-2.98,2.99h-69.3
			c-0.05-0.76-0.1-1.4-0.1-2.02c-0.01-3.85-0.02-7.7,0-11.55c0.01-1.69-0.49-2.68-2.41-2.87c-2.81-0.28-4.58-2.08-4.9-4.93
			c-0.2-1.81-1.07-2.35-2.72-2.34c-4.14,0.03-8.29,0.01-12.61,0.01V24.89h95.02V77.7z M123.54,20.66H28.36v-5.59
			c0-2.59-0.01-5.18,0.01-7.77c0.02-2.13,0.43-2.54,2.55-2.54c5.71-0.01,11.42,0,17.15,0h72.37c2.84,0,3.11,0.27,3.11,3.07V20.66z"
			/>
		<path class="st0" d="M59.51,10.16c-1.98,0-3.59,1.61-3.59,3.59c0,1.99,1.62,3.61,3.59,3.61c1.99,0,3.61-1.62,3.61-3.61
			C63.12,11.77,61.5,10.16,59.51,10.16z M48.36,10.12c-1.99,0-3.61,1.62-3.61,3.61s1.62,3.59,3.61,3.59c1.99,0,3.59-1.61,3.59-3.59
			S50.35,10.12,48.36,10.12z M37.47,10.12c-1.99,0-3.59,1.62-3.59,3.61s1.61,3.59,3.59,3.59s3.61-1.61,3.61-3.59
			S39.46,10.12,37.47,10.12z"/>
		<path class="st0" d="M112.6,29.97c-24.44-0.01-48.88-0.01-73.31,0c-2.26,0-2.79,0.54-2.79,2.74c-0.01,5.65-0.01,11.32-0.01,16.97
			c0.01,2.79,0.34,3.14,3.09,3.14h72.77c2.69,0,3.12-0.43,3.12-3.16c0.01-5.61,0.02-11.2,0-16.8
			C115.45,30.52,114.9,29.97,112.6,29.97z M111.41,48.71H40.58V34.07h70.84V48.71z"/>
		<path class="st0" d="M40.68,68.8c-1.57,0.01-3.13,0.05-4.7-0.01c-1.67-0.06-2.7,0.5-3.11,2.28c-0.14,0.6-1.14,1.49-1.65,1.43
			c-0.67-0.08-1.68-0.87-1.79-1.51c-0.35-1.78-1.41-2.22-2.97-2.19c-0.84,0.01-1.69,0-2.52,0c-4.84,0-4.86,0-4.84,4.87
			c0.01,1.09-0.21,1.79-1.23,2.47c-3.36,2.2-3.68,6.87-0.48,9.18c1.55,1.1,1.85,2.26,1.7,3.86c-0.03,0.42-0.01,0.85,0,1.27
			c0.05,1.97,0.6,2.57,2.61,2.59c3.13,0.03,6.26,0.01,9.39,0.01c3.19,0,6.37-0.01,9.56,0.01c1.69,0.01,2.63-0.74,2.64-2.47
			c0.01-6.43,0.01-12.88,0-19.31C43.29,69.57,42.35,68.79,40.68,68.8z"/>
	</g>
	<path class="st0" d="M41.08,13.72c0,1.99-1.62,3.59-3.61,3.59s-3.59-1.61-3.59-3.59s1.61-3.61,3.59-3.61S41.08,11.73,41.08,13.72z"
		/>
	<path class="st0" d="M51.95,13.72c0,1.99-1.61,3.59-3.59,3.59c-1.99,0-3.61-1.61-3.61-3.59s1.62-3.61,3.61-3.61
		C50.35,10.12,51.95,11.73,51.95,13.72z"/>
	<path class="st0" d="M63.12,13.76c0,1.99-1.62,3.61-3.61,3.61c-1.98,0-3.59-1.62-3.59-3.61c0-1.99,1.62-3.59,3.59-3.59
		C61.5,10.16,63.12,11.77,63.12,13.76z"/>
</g>
</svg>
