<?xml version="1.0" encoding="utf-8"?>
<!-- Generator: Adobe Illustrator 24.3.0, SVG Export Plug-In . SVG Version: 6.00 Build 0)  -->
<svg version="1.1" id="Layer_1" xmlns="http://www.w3.org/2000/svg" xmlns:xlink="http://www.w3.org/1999/xlink" x="0px" y="0px"
	 viewBox="0 0 135.8 107.7" style="enable-background:new 0 0 135.8 107.7;" xml:space="preserve">
<style type="text/css">
	.st0{fill:#00B0FB;}
	.st1{fill:#FFFFFF;}
	.st2{fill:#00B0FB;fill-opacity:0.4;}
</style>
<g>
	<path class="st0" d="M118.26,36.67c-1.56-3.4-5.02-3.1-7.9-2.87c-1.28-3.09-2.46-5.93-3.63-8.77c1.14-1.31,2.92-2.52,3.4-4.13
		c0.48-1.59,1.05-3.86-0.71-5.34c-1.61-1.36-2.55-3.52-4.87-4.05c-3.59-0.8-5.77,1.33-7.58,3.66c-3.05-1.26-5.88-2.44-8.92-3.7
		c0.27-3.75,0.3-7.82-4.93-8.48c-1.92-0.24-4.06-0.67-5.99,0.54c-3.15,1.97-3.04,5.06-2.77,7.93c-3.06,1.28-5.9,2.46-8.79,3.66
		c-1.22-1.11-2.36-2.85-3.91-3.38c-1.56-0.54-3.77-0.96-5.28,0.46c-1.57,1.48-3.44,3.04-4.17,4.95c-1.33,3.52,1.24,5.89,3.52,7.74
		c-1.29,3.11-2.46,5.94-3.71,8.96c-3.64-0.52-7.31-0.19-8.41,4.21c-0.51,2.01-0.37,4.59,0.48,6.45c1.55,3.38,5.02,3.34,8.13,2.97
		c0.52,1.51,0.77,2.88,1.43,4.02c1.1,1.87,0.53,3.92,0.91,5.85c0.04,0.21-0.09,0.53-0.25,0.69c-2.12,2.21-4.26,4.4-6.46,6.65
		c-2.23-2.25-4.26-4.23-6.2-6.3c-0.35-0.37-0.54-1.09-0.49-1.62c0.32-3.53-0.6-6.67-2.93-9.31c-3.17-3.6-7.23-4.78-11.88-3.88
		c-0.67,0.13-1.58,0.65-1.76,1.19c-0.16,0.5,0.4,1.35,0.82,1.92c0.52,0.7,1.15,1.35,1.85,1.86c2.08,1.52,2.75,3.47,1.94,5.89
		c-0.14,0.44-0.63,0.95-1.07,1.09c-2.37,0.72-4.4,0.27-5.9-1.9c-0.49-0.7-1.16-1.33-1.86-1.85c-0.57-0.42-1.41-0.98-1.94-0.82
		c-0.52,0.15-1.04,1.07-1.18,1.74c-1.76,8.41,4.76,15.6,13.33,14.78c0.4-0.04,0.96,0.04,1.23,0.3c2.16,2.05,4.26,4.17,6.55,6.43
		c-1.89,1.83-3.73,3.48-5.41,5.28c-0.96,1.02-1.9,1.41-3.34,1.32c-8.16-0.48-14.38,7.23-12.31,15.12c0.48,1.82,1.48,2.11,2.85,0.8
		c1.05-1,2.06-2.03,3.08-3.05c1.21-1.21,4.04-1.66,5.48-0.86c0.13,0.08,0.27,0.16,0.36,0.28c0.7,0.95,0.43,4.34-0.41,5.18
		c-1.12,1.14-2.31,2.22-3.36,3.42c-0.42,0.48-0.87,1.32-0.72,1.8c0.17,0.51,1,1,1.62,1.14c8.38,1.88,15.69-4.59,14.93-13.14
		c-0.04-0.43-0.04-1.03,0.21-1.29c2.06-2.21,4.19-4.36,6.4-6.64c2.29,2.31,4.37,4.38,6.39,6.5c0.29,0.3,0.39,0.93,0.34,1.38
		c-0.89,8.52,6.69,15.21,15.02,13.17c0.58-0.14,1.4-0.61,1.5-1.07c0.12-0.54-0.26-1.36-0.68-1.83c-1.16-1.31-2.45-2.5-3.68-3.75
		c-0.59-0.6-0.61-4.4-0.06-4.98c0.57-0.61,4.48-0.62,5.11,0c1.29,1.27,2.54,2.57,3.84,3.82c1.24,1.2,2.44,0.99,2.65-0.69
		c0.27-2.15,0.5-4.49-0.05-6.53c-1.57-5.83-6.54-9.1-12.57-8.8c-0.66,0.03-1.53-0.05-1.96-0.45c-2.13-1.94-4.14-4.01-6.33-6.17
		c2.26-2.23,4.41-4.36,6.59-6.47c0.19-0.19,0.54-0.25,0.82-0.28c3.44-0.31,6.49,1.08,9.48,2.13c0.19,1.99-0.12,4.13,0.7,5.66
		c0.78,1.46,2.04,3.4,4.37,3.13c2.05-0.24,4.17,0.64,6.15-0.66c3.07-2.01,2.92-5.02,2.64-7.88c3.08-1.28,5.95-2.48,8.81-3.67
		c1.3,1.17,2.46,2.89,4.02,3.42c1.57,0.52,3.76,0.95,5.28-0.54c1.52-1.48,3.39-2.98,4.08-4.85c1.3-3.51-1.14-5.93-3.54-7.77
		c1.28-3.09,2.46-5.92,3.63-8.75c1.75-0.12,3.83,0.24,5.34-0.53c1.45-0.74,3.32-1.98,3.27-4.15
		C118.86,40.84,119.1,38.49,118.26,36.67z M39.44,88.18c-1.04,0.94-1.31,1.88-1.08,3.26c0.94,5.84-3.68,11.06-9.69,10.72
		c1.05-1.06,2.03-1.93,2.85-2.93c0.42-0.5,0.8-1.25,0.77-1.87c-0.1-1.95-0.33-3.9-0.69-5.82c-0.09-0.49-0.77-1.06-1.3-1.23
		c-0.92-0.3-1.95-0.21-2.89-0.47c-2.76-0.77-4.9,0.03-6.54,2.34c-0.21,0.29-0.5,0.52-0.76,0.76c-0.07,0.06-0.19,0.06-0.4,0.12
		c-0.2-5.67,4.8-10.31,10.33-9.52c1.72,0.25,2.9-0.09,4.06-1.37c1.9-2.09,3.95-4.03,5.85-5.94c1.96,1.94,3.81,3.77,5.88,5.81
		C43.73,84.07,41.64,86.19,39.44,88.18z M61.66,82.34c1.1,1.11,2.13,1.45,3.67,1.22c5.67-0.85,10.71,3.69,10.53,9.7
		c-1.04-1.01-1.99-1.82-2.8-2.74c-0.73-0.83-1.55-1.07-2.61-0.92c-1.63,0.24-3.26,0.43-4.9,0.62c-1.01,0.11-1.63,0.58-1.67,1.66
		c-0.01,0.3-0.05,0.61-0.12,0.91c-0.8,3.43-0.86,6.63,2.59,8.8c0.12,0.08,0.2,0.23,0.29,0.36c0.02,0.03,0,0.1,0,0.15
		c-3.83,0.6-8.26-2.57-9.19-6.76c-0.31-1.37-0.25-2.85-0.13-4.27c0.08-1-0.03-1.75-0.78-2.49c-7.75-7.71-15.47-15.44-23.18-23.18
		c-0.74-0.74-1.45-0.93-2.49-0.75c-6.08,1.07-11.65-3.67-11.1-9.55c0.26,0.21,0.42,0.28,0.5,0.4c2.6,4.26,6.51,3.12,10.27,2.43
		c0.42-0.08,0.91-0.67,1.07-1.13c0.26-0.76,0.2-1.63,0.41-2.42c0.83-3.11,0.12-5.64-2.6-7.51c-0.24-0.16-0.39-0.43-0.62-0.7
		c4.66-0.67,9.35,3.54,9.67,8.56c0.03,0.47,0.12,0.97-0.02,1.39c-0.72,2.11,0.38,3.41,1.78,4.79C47.43,68,54.57,75.15,61.66,82.34z
		 M64.94,64.68c-1.29-0.21-2.12,0.06-2.98,0.98c-2.07,2.22-4.22,4.35-6.31,6.49c-2-1.99-3.85-3.83-5.93-5.89
		c2.14-2.06,4.27-4.2,6.5-6.25c0.99-0.9,1.26-1.79,1.02-3.12c-1.05-5.76,3.99-11.46,9.92-10.69c-1.17,1.05-2.22,1.81-3.01,2.78
		c-0.5,0.6-0.85,1.52-0.83,2.29c0.05,1.74,0.26,3.5,0.63,5.2c0.12,0.58,0.83,1.36,1.39,1.47c1.9,0.4,3.86,0.61,5.81,0.75
		c0.52,0.03,1.19-0.31,1.6-0.69c0.97-0.91,1.82-1.94,2.72-2.92C76.27,60.97,70.87,65.67,64.94,64.68z M69.48,43.67
		c-1.85-0.33-3.76-0.3-5.68-0.43c-1.66-6.04,2.08-14.07,8.41-17.88c6.67-4.02,15.41-3.02,21.16,2.41c5.82,5.5,7.2,14.08,3.41,21.27
		c-3.41,6.48-11.39,10.47-18.09,9.05c-0.1-1.85-0.1-3.6-0.33-5.32c-0.09-0.67-0.61-1.68-1.11-1.8c-0.6-0.14-1.46,0.4-2.07,0.84
		c-0.77,0.58-1.51,1.28-2.08,2.06c-1.32,1.79-2.96,2.39-5.09,1.75c-0.43-0.13-0.91-0.11-1.56-0.18c-0.13-1.36-0.32-2.72-0.36-4.09
		c-0.02-0.38,0.34-0.83,0.63-1.15c1.18-1.23,2.41-2.4,3.6-3.62C71.69,45.18,71.43,44.02,69.48,43.67z M115.46,43.62
		c-0.42,0.99-1.46,1.25-2.61,1.2c-1.48-0.07-3.33-0.42-4.36,0.29c-0.99,0.69-1.08,2.61-1.67,3.94c-0.9,2.02-1.82,4.03-2.87,5.97
		c-0.57,1.07-0.65,1.88,0.29,2.74c0.8,0.72,1.54,1.52,2.3,2.29c1.56,1.56,1.55,3.17-0.04,4.77c-0.47,0.47-0.95,0.95-1.43,1.41
		c-1.18,1.16-3,1.13-4.21-0.05c-0.85-0.83-1.72-1.64-2.52-2.51c-0.85-0.94-1.64-0.81-2.73-0.3c-2.79,1.29-5.62,2.5-8.52,3.52
		c-1.25,0.44-1.8,1-1.73,2.28c0.05,1.03,0.01,2.06,0.01,3.1c-0.01,2.24-1.11,3.39-3.38,3.31c-1.42-0.05-3.07,0.61-4.1-0.97
		c-0.4-0.6-0.57-1.34-0.84-2.02c-0.02-0.05,0-0.1-0.01-0.16c-0.05-1.54,0.39-3.38-0.32-4.52c-0.63-1.02-2.52-1.26-3.67-1.77
		c1.35-1.61,2.72-3.3,4.17-4.93c0.23-0.26,0.8-0.38,1.19-0.34c10.43,1.29,20.37-5.4,22.58-15.22c2.44-10.79-3.16-20.97-13.46-24.47
		c-14.05-4.77-28.82,7.52-26.6,22.16c0.13,0.82,0,1.2-0.7,1.74c-1.57,1.2-2.99,2.61-4.58,4.05c-0.23-0.82-0.56-1.79-0.77-2.8
		c-0.24-1.08-0.82-1.58-1.94-1.55c-1.13,0.04-2.27,0.01-3.4,0.01c-2.18-0.01-3.35-1.11-3.27-3.27c0.06-1.46-0.64-3.18,0.99-4.24
		c0.6-0.4,1.33-0.74,2.02-0.81c1.58-0.17,3.52,0.37,4.67-0.38c1.02-0.66,1.1-2.69,1.71-4.07c0.88-1.97,1.78-3.93,2.81-5.82
		c0.6-1.09,0.61-1.89-0.33-2.73c-0.76-0.69-1.46-1.46-2.19-2.18c-1.64-1.64-1.64-3.23-0.01-4.89c0.4-0.4,0.8-0.8,1.21-1.2
		c1.41-1.41,3.14-1.41,4.56,0.01c3.38,3.37,3.34,3.29,7.55,1.3c1.98-0.94,4.12-1.56,6.23-2.2c1.05-0.32,1.62-0.83,1.58-1.94
		c-0.02-0.52,0.03-1.03-0.01-1.55c-0.3-4.36,0.73-5.45,5.12-5.19c0.99,0.06,1.88,0.15,2.37,1.05c0.4,0.71,0.71,1.53,0.81,2.33
		c0.17,1.48-0.36,3.33,0.36,4.36c0.69,0.98,2.62,1.06,3.95,1.65c2.02,0.89,4.04,1.8,5.97,2.87c1.09,0.6,1.87,0.62,2.71-0.31
		c0.73-0.81,1.53-1.54,2.3-2.3c1.52-1.51,3.2-1.58,4.63-0.01c0.9,0.97,2.34,1.56,2.35,3.25c0.01,1.1-0.26,1.92-1.08,2.72
		c-3.33,3.24-3.22,3.24-1.24,7.43c0.94,1.98,1.57,4.12,2.21,6.23c0.32,1.06,0.82,1.59,1.95,1.54c0.97-0.04,1.95-0.01,2.93-0.01
		c2.79,0,3.84,0.99,3.75,3.73C116.11,41.33,115.92,42.56,115.46,43.62z"/>
	<path class="st0" d="M82.53,30.98c0-0.9-0.37-1.53-1.34-1.53c-0.97,0-1.34,0.63-1.34,1.53c0,1.55,0,3.09,0,4.64c0,0,0,0-0.01,0
		c0,1.24,0.07,2.48-0.02,3.71c-0.09,1.28,0.31,2.24,1.26,3.13c2.18,2.05,4.26,4.2,6.36,6.33c0.74,0.74,1.56,1.46,2.48,0.5
		c0.84-0.88,0.18-1.69-0.52-2.39c-2.01-1.99-4.05-3.97-6-6.03c-0.47-0.5-0.81-1.31-0.83-2C82.48,36.24,82.53,33.61,82.53,30.98z"/>
	<circle class="st0" cx="80.92" cy="25.54" r="1.7"/>
	<circle class="st0" cx="91.72" cy="30.8" r="1.7"/>
	<path class="st0" d="M95.77,42.84c0.94,0,1.7-0.76,1.7-1.7c0-0.94-0.76-1.7-1.7-1.7s-1.7,0.76-1.7,1.7
		C94.07,42.08,94.83,42.84,95.77,42.84z"/>
	<path class="st0" d="M91.43,49.35c-0.94,0-1.7,0.76-1.7,1.7c0,0.94,0.76,1.7,1.7,1.7c0.94,0,1.7-0.76,1.7-1.7
		C93.13,50.11,92.37,49.35,91.43,49.35z"/>
	<path class="st0" d="M81.16,53.45c-0.94,0-1.7,0.76-1.7,1.7c0,0.94,0.76,1.7,1.7,1.7c0.94,0,1.7-0.76,1.7-1.7
		C82.86,54.21,82.1,53.45,81.16,53.45z"/>
	<circle class="st0" cx="71.21" cy="50.83" r="1.7"/>
	<circle class="st0" cx="66.7" cy="40.64" r="1.7"/>
	<path class="st0" d="M72.6,30.33c0-0.94-0.76-1.7-1.7-1.7s-1.7,0.76-1.7,1.7c0,0.94,0.76,1.7,1.7,1.7S72.6,31.27,72.6,30.33z"/>
</g>
</svg>
