<?xml version="1.0" encoding="utf-8"?>
<!-- Generator: Adobe Illustrator 24.3.0, SVG Export Plug-In . SVG Version: 6.00 Build 0)  -->
<svg version="1.1" id="Layer_1" xmlns="http://www.w3.org/2000/svg" xmlns:xlink="http://www.w3.org/1999/xlink" x="0px" y="0px"
	 width="169px" height="169px" viewBox="0 0 169 169" style="enable-background:new 0 0 169 169;" xml:space="preserve">
<style type="text/css">
	.st0{fill:#00B0FB;}
	.st1{fill:#00B0FB;fill-opacity:0.4;}
	.st2{fill:#FFFFFF;}
	.st3{fill:none;}
	.st4{fill:#001135;}
	.st5{fill:#3C7CFF;}
	.st6{fill:#3C7CFF;stroke:#001135;stroke-width:0.7602;stroke-miterlimit:10;}
	.st7{fill:#DBDBDB;}
	.st8{fill:#B9B9B9;}
	.st9{fill:#080808;}
	.st10{fill:#060606;}
	.st11{fill:#070707;}
	.st12{fill:#121212;}
	.st13{fill:#111111;}
	.st14{fill:#090909;}
	.st15{fill:#FDFDFD;}
	.st16{fill:#F9F9F9;}
	.st17{fill:#F3F2F3;}
	.st18{fill:#FAFAFA;}
	.st19{fill:#0A0A0A;}
	.st20{fill:#EEEEEE;}
	.st21{fill:#0D0D0D;}
	.st22{fill:#0C0C0C;}
	.st23{fill:#0E0E0E;}
	.st24{fill:#050505;}
	.st25{fill:#3A3A3A;}
	.st26{fill:#525252;}
	.st27{fill:#474747;}
	.st28{fill:#1E1E1E;}
	.st29{fill:#1D1D1D;}
	.st30{fill:#222222;}
	.st31{fill:#494949;}
	.st32{fill:#585858;}
	.st33{fill:#EDEDED;}
	.st34{fill:#F0F0F0;}
	.st35{fill:#EAEAEA;}
	.st36{fill:#EAE9EA;}
	.st37{fill:#040404;}
	.st38{fill:#F4F3F4;}
	.st39{fill:#030303;}
	.st40{fill:#E8E8E8;}
	.st41{fill:#0C0C0B;}
	.st42{fill:#0D0D0C;}
	.st43{fill:#919191;}
	.st44{fill:#909090;}
	.st45{fill:#0E0E0D;}
	.st46{fill:#0C0D0C;}
	.st47{fill:#090908;}
	.st48{fill:#141414;}
	.st49{fill:#4C4D4D;}
	.st50{fill:#737474;}
	.st51{fill:#242424;}
	.st52{fill:#202020;}
	.st53{fill:#101010;}
	.st54{fill:#0D0E0D;}
	.st55{fill:#111212;}
	.st56{fill:#0B0B0B;}
	.st57{fill:#0D0C0C;}
	.st58{fill:#E7E7E7;}
	.st59{fill:#272727;}
	.st60{fill:#2E2E2E;}
	.st61{fill:#1F1E1E;}
	.st62{fill:#1B1A1A;}
	.st63{fill:#E6E6E6;}
	.st64{fill:#0F0E0E;}
	.st65{fill:#F2F2F2;}
	.st66{fill:#F4F3F3;}
	.st67{fill:#F9F8F8;}
	.st68{fill:#F1F1F0;}
	.st69{fill:#F6F6F6;}
	.st70{fill:#F5F6F6;}
	.st71{fill:#F5F5F5;}
	.st72{fill:#2C2C2C;}
	.st73{fill:#252625;}
	.st74{fill:#303030;}
	.st75{fill:#2D2D2C;}
	.st76{fill:#2D2D2D;}
	.st77{fill:#262727;}
	.st78{fill:#191919;}
	.st79{fill:#1B1B1B;}
	.st80{fill:#F7F7F7;}
	.st81{fill:#F6F7F7;}
	.st82{fill:#F9F9FA;}
	.st83{fill:#F4F4F4;}
	.st84{fill:#F8F8F8;}
	.st85{fill:#FCFCFC;}
	.st86{fill:#FBFBFB;}
	.st87{fill:#E2E1E2;}
	.st88{fill:#D8D7D8;}
	.st89{fill:#0F0F0F;}
	.st90{fill:#161616;}
	.st91{fill:#181818;}
	.st92{fill:#131313;}
	.st93{fill-rule:evenodd;clip-rule:evenodd;fill:#00B0FB;}
	.st94{fill:#030302;}
	.st95{fill:#D2D3D3;}
	.st96{fill:#1F1F1F;}
	.st97{fill:#0E0D0E;}
	.st98{fill:#BABBBB;}
	.st99{fill:#8A8A8A;}
	.st100{fill:#8E8F8F;}
	.st101{fill:#464746;}
	.st102{fill:#5F5E5E;}
	.st103{fill:#151414;}
	.st104{fill:#282828;}
	.st105{fill:#030202;}
	.st106{fill:#040403;}
	.st107{fill:#040303;}
	.st108{fill:#202021;}
	.st109{fill:#020202;}
	.st110{fill:#050506;}
	.st111{fill:#010101;}
	.st112{fill:#F3F3F3;}
	.st113{fill:#F1F1F1;}
	.st114{fill:#FAFAF9;}
	.st115{fill:#040504;}
	.st116{fill:#070708;}
	.st117{fill:#131212;}
	.st118{fill:#070808;}
	.st119{fill:#3C3C3C;}
	.st120{fill:#FEFEFE;}
</style>
<g>
	<g>
		<path class="st0" d="M158.6,27.6v1.2h3.2v103.9c0,0.7-0.3,1.3-0.8,1.7c-0.4,0.5-1,0.8-1.8,0.8h-8.4v5.3h8.4c2.1,0,4-0.8,5.5-2.3
			c1.4-1.4,2.3-3.3,2.3-5.5V27.6H158.6z"/>
		<path class="st0" d="M135.2,49.3c-2.5-1.9-6.9-0.7-11.5,1.8c-7,3.7-14.2,10.3-17.6,15l-46.7,82.1l0,0.1c-0.3,0.6-0.3,1.2-0.1,1.9
			c0.3,0.9,1,1.8,1.9,2.4c0.9,0.6,1.9,1,2.9,1c0.6,0,1.2-0.2,1.6-0.6l0.1-0.1l62.9-70.7c3.3-4.7,7.1-13.5,8.5-21.3
			C137.9,55.6,137.6,51,135.2,49.3z M127.7,68.4c-1.2,0.9-2.8,0.7-3.7-0.4c-0.4-0.5-0.8-0.9-1.4-1.2c-0.5-0.3-1.1-0.5-1.7-0.6
			c-1.5-0.2-2.5-1.5-2.3-3c0.2-1.4,1.5-2.4,3-2.3c1.3,0.2,2.6,0.6,3.7,1.2c1.1,0.6,2.1,1.5,2.9,2.6C129,65.8,128.8,67.5,127.7,68.4z
			"/>
		<polygon class="st0" points="31.1,81.6 79,102.2 89.5,84.2 37.3,77 		"/>
		<polygon class="st0" points="72.2,153.5 78.6,162.1 83.9,155.7 81,143.6 		"/>
		<polygon class="st0" points="50.7,131.9 46.4,139 56.6,142.3 63.2,130.8 		"/>
		<path class="st1" d="M163,6c-0.5-0.5-1.1-0.7-1.8-0.8H7.7C7.1,5.3,6.5,5.6,6,6S5.3,7.1,5.3,7.7v15.8h158.5V7.7
			C163.7,7.1,163.4,6.5,163,6z M15.7,17c-1.4,0-2.5-1.2-2.5-2.6c0-1.4,1.1-2.6,2.5-2.6c1.4,0,2.5,1.1,2.5,2.6
			C18.3,15.8,17.1,17,15.7,17z M26.9,17c-1.4,0-2.6-1.2-2.6-2.6c0-1.4,1.2-2.6,2.6-2.6c1.4,0,2.5,1.1,2.5,2.6
			C29.4,15.8,28.3,17,26.9,17z M38,17c-1.4,0-2.6-1.2-2.6-2.6c0-1.4,1.2-2.6,2.6-2.6c1.4,0,2.6,1.1,2.6,2.6C40.6,15.8,39.4,17,38,17
			z"/>
		<polygon class="st0" points="103,119.5 137.8,158.2 140.2,150.8 116.7,103.7 		"/>
		<path d="M166.7,2.3c-1.4-1.4-3.4-2.3-5.5-2.3H7.7c-2.1,0-4,0.9-5.5,2.3C0.9,3.7,0,5.6,0,7.7v125c0,2.1,0.8,4,2.3,5.5
			c1.4,1.5,3.4,2.3,5.5,2.3h32c0,1.2,0.7,2.2,1.8,2.6l12.5,4c-0.5,1.6-0.5,3.3,0,4.8c0.7,2,2.1,3.8,3.8,5.1v0c1.7,1.2,3.9,2,6,2
			c1.6,0,3.2-0.5,4.6-1.5l7.7,10.5c1,1.4,3,1.5,4.2,0.2l8.4-10c0.5-0.6,0.8-1.5,0.6-2.3l-4.1-17l13.9-15.6l37.8,41.9
			c1.4,1.5,3.9,0.9,4.5-1l4.1-12.6c0.3-0.8,0.1-1.5-0.2-2.2l-4.4-8.8h20.3c2.1,0,4-0.8,5.5-2.3c1.4-1.4,2.3-3.3,2.3-5.5V7.7
			C169,5.6,168.1,3.7,166.7,2.3z M56.6,142.2L46.4,139l4.3-7.1l12.5-1.1L56.6,142.2z M78.6,162.1l-6.3-8.6l8.8-9.9l2.9,12.1
			L78.6,162.1z M65.6,152.9L65.6,152.9c-0.5,0.5-1,0.6-1.7,0.7c-1,0-2.1-0.4-2.9-1c-0.8-0.6-1.5-1.5-1.9-2.4
			c-0.2-0.6-0.2-1.3,0.1-1.9l0-0.1l46.7-82.1c3.4-4.7,10.6-11.3,17.6-15c4.6-2.5,9-3.6,11.5-1.8c2.5,1.7,2.7,6.3,1.9,11.6
			c-1.3,7.8-5.1,16.7-8.5,21.3L65.6,152.9z M79,102.2L31.1,81.6l6.2-4.6l52.2,7.2L79,102.2z M137.8,158.2L103,119.5l13.7-15.7
			l23.5,47.1L137.8,158.2z M163.7,132.7c0,0.7-0.3,1.3-0.8,1.7c-0.4,0.5-1,0.8-1.8,0.8h-22.9l-17.9-35.8l12.1-13.7
			c0.1-0.1,0.2-0.2,0.3-0.3c3.7-5.2,8-15,9.4-23.7c1.2-7.1,0.4-13.5-4-16.7c-4.5-3.2-10.8-1.9-17.1,1.4
			c-7.8,4.1-15.7,11.5-19.4,16.7c0,0.1-0.1,0.1-0.1,0.2l-9.1,16L37,71.6c-0.7-0.1-1.4,0.1-1.9,0.5L24.5,80c-0.4,0.3-0.8,0.7-1,1.2
			c-0.6,1.3,0,2.9,1.4,3.4L76.7,107l-10.3,18.2l-17.5,1.6c-0.8,0.1-1.6,0.5-2,1.2l-4.3,7.2H7.7c-0.7,0-1.3-0.3-1.7-0.8
			s-0.8-1-0.8-1.7V28.8h158.5V132.7z M163.7,23.5H5.3V7.7C5.3,7.1,5.6,6.5,6,6s1.1-0.8,1.7-0.8h153.5c0.7,0,1.3,0.3,1.8,0.8
			c0.5,0.4,0.8,1.1,0.8,1.7V23.5z"/>
		<path d="M38,11.8c-1.4,0-2.6,1.2-2.6,2.5c0,1.4,1.2,2.6,2.6,2.6c1.4,0,2.5-1.2,2.5-2.6C40.6,13,39.4,11.8,38,11.8z"/>
		<path d="M26.9,11.8c-1.4,0-2.6,1.2-2.6,2.5c0,1.4,1.2,2.6,2.6,2.6s2.5-1.2,2.5-2.6C29.4,13,28.3,11.8,26.9,11.8z"/>
		<path d="M15.7,11.8c-1.4,0-2.5,1.1-2.5,2.5c0,1.4,1.1,2.6,2.5,2.6c1.4,0,2.5-1.2,2.5-2.6C18.3,13,17.1,11.8,15.7,11.8z"/>
		<path d="M128.1,64.7c-0.8-1-1.8-1.9-2.9-2.6c-1.1-0.6-2.4-1-3.7-1.2c-1.5-0.2-2.8,0.9-3,2.3c-0.2,1.4,0.8,2.8,2.3,3
			c0.6,0.1,1.2,0.3,1.7,0.6c0.6,0.3,1,0.7,1.4,1.2c0.9,1.1,2.6,1.3,3.7,0.4C128.8,67.5,129,65.8,128.1,64.7z"/>
		<path d="M88.2,54.2c0,1.5-1.2,2.7-2.6,2.7H29.8c-1.5,0-2.6-1.2-2.6-2.7c0-1.5,1.2-2.6,2.6-2.6h55.7C87,51.6,88.2,52.8,88.2,54.2z"
			/>
		<path d="M73.8,40.1c0,1.5-1.2,2.6-2.6,2.6H29.8c-1.5,0-2.6-1.2-2.6-2.6c0-1.5,1.2-2.6,2.6-2.6h41.3C72.6,37.5,73.8,38.7,73.8,40.1
			z"/>
	</g>
</g>
</svg>
