<?xml version="1.0" encoding="utf-8"?>
<!-- Generator: Adobe Illustrator 24.3.0, SVG Export Plug-In . SVG Version: 6.00 Build 0)  -->
<svg version="1.1" id="Layer_1" xmlns="http://www.w3.org/2000/svg" xmlns:xlink="http://www.w3.org/1999/xlink" x="0px" y="0px"
	 width="158.1px" height="163px" viewBox="0 0 158.1 163" style="enable-background:new 0 0 158.1 163;" xml:space="preserve">
<style type="text/css">
	.st0{fill:#00B0FB;}
	.st1{fill:#00B0FB;fill-opacity:0.4;}
	.st2{fill:#FFFFFF;}
	.st3{fill:none;}
	.st4{fill:#001135;}
	.st5{fill:#3C7CFF;}
	.st6{fill:#3C7CFF;stroke:#001135;stroke-width:0.7602;stroke-miterlimit:10;}
	.st7{fill:#DBDBDB;}
	.st8{fill:#B9B9B9;}
	.st9{fill:#080808;}
	.st10{fill:#060606;}
	.st11{fill:#070707;}
	.st12{fill:#121212;}
	.st13{fill:#111111;}
	.st14{fill:#090909;}
	.st15{fill:#FDFDFD;}
	.st16{fill:#F9F9F9;}
	.st17{fill:#F3F2F3;}
	.st18{fill:#FAFAFA;}
	.st19{fill:#0A0A0A;}
	.st20{fill:#EEEEEE;}
	.st21{fill:#0D0D0D;}
	.st22{fill:#0C0C0C;}
	.st23{fill:#0E0E0E;}
	.st24{fill:#050505;}
	.st25{fill:#3A3A3A;}
	.st26{fill:#525252;}
	.st27{fill:#474747;}
	.st28{fill:#1E1E1E;}
	.st29{fill:#1D1D1D;}
	.st30{fill:#222222;}
	.st31{fill:#494949;}
	.st32{fill:#585858;}
	.st33{fill:#EDEDED;}
	.st34{fill:#F0F0F0;}
	.st35{fill:#EAEAEA;}
	.st36{fill:#EAE9EA;}
	.st37{fill:#040404;}
	.st38{fill:#F4F3F4;}
	.st39{fill:#030303;}
	.st40{fill:#E8E8E8;}
	.st41{fill:#0C0C0B;}
	.st42{fill:#0D0D0C;}
	.st43{fill:#919191;}
	.st44{fill:#909090;}
	.st45{fill:#0E0E0D;}
	.st46{fill:#0C0D0C;}
	.st47{fill:#090908;}
	.st48{fill:#141414;}
	.st49{fill:#4C4D4D;}
	.st50{fill:#737474;}
	.st51{fill:#242424;}
	.st52{fill:#202020;}
	.st53{fill:#101010;}
	.st54{fill:#0D0E0D;}
	.st55{fill:#111212;}
	.st56{fill:#0B0B0B;}
	.st57{fill:#0D0C0C;}
	.st58{fill:#E7E7E7;}
	.st59{fill:#272727;}
	.st60{fill:#2E2E2E;}
	.st61{fill:#1F1E1E;}
	.st62{fill:#1B1A1A;}
	.st63{fill:#E6E6E6;}
	.st64{fill:#0F0E0E;}
	.st65{fill:#F2F2F2;}
	.st66{fill:#F4F3F3;}
	.st67{fill:#F9F8F8;}
	.st68{fill:#F1F1F0;}
	.st69{fill:#F6F6F6;}
	.st70{fill:#F5F6F6;}
	.st71{fill:#F5F5F5;}
	.st72{fill:#2C2C2C;}
	.st73{fill:#252625;}
	.st74{fill:#303030;}
	.st75{fill:#2D2D2C;}
	.st76{fill:#2D2D2D;}
	.st77{fill:#262727;}
	.st78{fill:#191919;}
	.st79{fill:#1B1B1B;}
	.st80{fill:#F7F7F7;}
	.st81{fill:#F6F7F7;}
	.st82{fill:#F9F9FA;}
	.st83{fill:#F4F4F4;}
	.st84{fill:#F8F8F8;}
	.st85{fill:#FCFCFC;}
	.st86{fill:#FBFBFB;}
	.st87{fill:#E2E1E2;}
	.st88{fill:#D8D7D8;}
	.st89{fill:#0F0F0F;}
	.st90{fill:#161616;}
	.st91{fill:#181818;}
	.st92{fill:#131313;}
	.st93{fill-rule:evenodd;clip-rule:evenodd;fill:#00B0FB;}
	.st94{fill:#030302;}
	.st95{fill:#D2D3D3;}
	.st96{fill:#1F1F1F;}
	.st97{fill:#0E0D0E;}
	.st98{fill:#BABBBB;}
	.st99{fill:#8A8A8A;}
	.st100{fill:#8E8F8F;}
	.st101{fill:#464746;}
	.st102{fill:#5F5E5E;}
	.st103{fill:#151414;}
	.st104{fill:#282828;}
	.st105{fill:#030202;}
	.st106{fill:#040403;}
	.st107{fill:#040303;}
	.st108{fill:#202021;}
	.st109{fill:#020202;}
	.st110{fill:#050506;}
	.st111{fill:#010101;}
	.st112{fill:#F3F3F3;}
	.st113{fill:#F1F1F1;}
	.st114{fill:#FAFAF9;}
	.st115{fill:#040504;}
	.st116{fill:#070708;}
	.st117{fill:#131212;}
	.st118{fill:#070808;}
	.st119{fill:#3C3C3C;}
	.st120{fill:#FEFEFE;}
</style>
<g>
	<g>
		<path class="st0" d="M153.8,110.1v3c0,5.3-4.3,9.7-9.7,9.7H14c-5.3,0-9.7-4.3-9.7-9.7v-3H0v3c0,7.7,6.3,14,14,14h38.3
			c0.3,0,0.5,0.2,0.5,0.5c0.6-0.1,1.1-0.1,1.7-0.1c0.9,0,1.8,0.1,2.6,0.2v-0.1c0-0.3,0.2-0.5,0.5-0.5h43c0.3,0,0.5,0.2,0.5,0.5v0.2
			c0.5-0.1,1-0.1,1.6-0.1c1,0,1.9,0.1,2.7,0.3v-0.4c0-0.3,0.2-0.5,0.5-0.5h38.3c7.7,0,14-6.3,14-14v-3H153.8z"/>
		<path class="st1" d="M74.6,92.3c0,2.5,2,4.5,4.5,4.5s4.5-2,4.5-4.5s-2-4.5-4.5-4.5S74.6,89.8,74.6,92.3z"/>
		<path class="st0" d="M116.8,32.2c-0.9-0.2-1.5-1-1.6-1.8C114,19.1,104.4,10.5,93,10.5c-2.6,0-5.1,0.4-7.5,1.3
			c-0.2,0.1-0.5,0.1-0.7,0.1c-0.6,0-1.1-0.2-1.5-0.6c-4.7-4.5-10.8-7-17.4-7c-13.8,0-25,11.2-25,25c0,0.5,0,1,0,1.4
			c0.1,0.9-0.5,1.8-1.3,2.1c-5.6,2.3-9.2,7.7-9.2,13.7c0,8.2,6.6,14.8,14.8,14.8h67.7c8.2,0,14.8-6.7,14.8-14.8
			C127.7,39.9,123.2,34,116.8,32.2z M65.9,14.5c-8.1,0-14.7,6.6-14.7,14.7c0,1.2-1,2.1-2.2,2.1c-1.2,0-2.1-1-2.1-2.1
			c0-10.5,8.5-19,19-19c1.2,0,2.1,1,2.1,2.1S67,14.5,65.9,14.5z"/>
		<circle class="st1" cx="47" cy="83.2" r="4.5"/>
		<circle class="st1" cx="111.1" cy="83.2" r="4.5"/>
		<path class="st1" d="M28.9,152.8v5.4c0,0.3,0.2,0.5,0.5,0.5h99.2c0.3,0,0.5-0.2,0.5-0.5v-5.4c0-3.2-3.6-5.9-7.9-5.9H36.9
			C32.6,146.8,28.9,149.6,28.9,152.8z"/>
		<path d="M49,31.4c1.2,0,2.1-1,2.1-2.1c0-8.1,6.6-14.7,14.7-14.7c1.2,0,2.1-1,2.1-2.1s-1-2.1-2.1-2.1c-10.5,0-19,8.5-19,19
			C46.8,30.4,47.8,31.4,49,31.4z"/>
		<path d="M144.1,18.8h-28.2c-0.2,0-0.3-0.1-0.4-0.2C110.6,10.8,102.2,6.2,93,6.2c-2.5,0-5,0.4-7.5,1.1c0,0-0.1,0-0.1,0
			c-0.1,0-0.2,0-0.3-0.1C79.7,2.5,72.9,0,65.9,0C53.8,0,43.1,7.3,38.6,18.5c-0.1,0.2-0.3,0.3-0.5,0.3H14c-7.7,0-14,6.3-14,14v81.3
			c0,7.7,6.3,14,14,14h38.3c0.3,0,0.5,0.2,0.5,0.5v13.5c0,0.3-0.2,0.5-0.5,0.5H36.9c-6.7,0-12.2,4.6-12.2,10.2v8.1
			c0,1.2,1,2.1,2.1,2.1h104.5c1.2,0,2.1-1,2.1-2.1v-8.1c0-5.6-5.5-10.2-12.2-10.2h-15.3c-0.3,0-0.5-0.2-0.5-0.5v-13.5
			c0-0.3,0.2-0.5,0.5-0.5h38.3c7.7,0,14-6.3,14-14V32.8C158.1,25.1,151.8,18.8,144.1,18.8z M39.6,32.8c0.8-0.4,1.4-1.2,1.3-2.1
			c0-0.5,0-1,0-1.4c0-13.8,11.2-25,25-25c6.5,0,12.7,2.5,17.4,7c0.4,0.4,0.9,0.6,1.5,0.6c0.2,0,0.5,0,0.7-0.1c2.4-0.9,5-1.3,7.5-1.3
			c11.4,0,21,8.6,22.2,19.9c0.1,0.9,0.7,1.6,1.6,1.8c6.5,1.8,11,7.6,11,14.3c0,8.2-6.7,14.8-14.8,14.8H45.2
			c-8.2,0-14.8-6.7-14.8-14.8C30.3,40.5,34,35.1,39.6,32.8z M47,74.4c-4.8,0-8.8,3.9-8.8,8.8s3.9,8.8,8.8,8.8c3.8,0,7.3-2.6,8.4-6.3
			c0.1-0.2,0.3-0.3,0.5-0.3h10.7c1.2,0,2.2-1,2.2-2.2v-17c0-0.3,0.2-0.5,0.5-0.5h7.2c0.3,0,0.5,0.2,0.5,0.5v17.2
			c0,0.2-0.2,0.4-0.4,0.5c-3.7,1.1-6.3,4.6-6.3,8.4c0,4.8,3.9,8.8,8.8,8.8c4.8,0,8.8-3.9,8.8-8.8c0-3.8-2.6-7.3-6.3-8.4
			c-0.2-0.1-0.3-0.3-0.3-0.5V66.2c0-0.3,0.2-0.5,0.5-0.5h7.2c0.3,0,0.5,0.2,0.5,0.5v17c0,1.2,1,2.2,2.1,2.2h10.7
			c0.2,0,0.4,0.1,0.5,0.3c1.1,3.7,4.6,6.3,8.4,6.3c4.8,0,8.8-3.9,8.8-8.8s-3.9-8.8-8.8-8.8c-3.8,0-7.3,2.6-8.4,6.2
			c-0.1,0.2-0.3,0.4-0.5,0.4h-8c-0.3,0-0.5-0.2-0.5-0.5V66.2c0-0.3,0.2-0.5,0.5-0.5h18.7c10.5,0,19.1-8.6,19.1-19.1
			c0-4.7-1.7-9.2-4.9-12.7c-0.1-0.2-0.2-0.4-0.1-0.5s0.3-0.3,0.5-0.3h15.9c0.3,0,0.5,0.2,0.5,0.5v69.9c0,0.3-0.2,0.5-0.5,0.5H14.7
			c-0.3,0-0.5-0.2-0.5-0.5V33.5c0-0.3,0.2-0.5,0.5-0.5h15.9c0.2,0,0.4,0.1,0.5,0.3s0.1,0.4-0.1,0.5c-3.1,3.5-4.9,8-4.9,12.7
			c0,10.5,8.6,19.1,19.1,19.1h18.7c0.3,0,0.5,0.2,0.5,0.5v14.4c0,0.3-0.2,0.5-0.5,0.5h-8c-0.2,0-0.4-0.2-0.5-0.4
			C54.3,77,50.8,74.4,47,74.4z M51.5,83.2c0,2.5-2,4.5-4.5,4.5s-4.5-2-4.5-4.5c0-2.5,2-4.5,4.5-4.5S51.5,80.7,51.5,83.2z M79,87.8
			c2.5,0,4.5,2,4.5,4.5c0,2.5-2,4.5-4.5,4.5s-4.5-2-4.5-4.5C74.6,89.8,76.6,87.8,79,87.8z M106.6,83.2c0-2.5,2-4.5,4.5-4.5
			s4.5,2,4.5,4.5c0,2.5-2,4.5-4.5,4.5S106.6,85.6,106.6,83.2z M121.2,146.9c4.3,0,7.9,2.7,7.9,5.9v5.4c0,0.3-0.2,0.5-0.5,0.5H29.4
			c-0.3,0-0.5-0.2-0.5-0.5v-5.4c0-3.2,3.6-5.9,7.9-5.9H121.2z M57,142.1v-13.5c0-0.3,0.2-0.5,0.5-0.5h43c0.3,0,0.5,0.2,0.5,0.5v13.5
			c0,0.3-0.2,0.5-0.5,0.5h-43C57.2,142.6,57,142.3,57,142.1z M153.8,114.1c0,5.3-4.3,9.7-9.7,9.7H14c-5.3,0-9.7-4.3-9.7-9.7V32.8
			c0-5.3,4.3-9.7,9.7-9.7h22.7c0.1,0,0.3,0.1,0.4,0.2c0.1,0.1,0.1,0.3,0.1,0.4c-0.3,1.5-0.5,3-0.5,4.5c0,0.3-0.2,0.5-0.5,0.5H13.7
			c-2.1,0-3.8,1.7-3.8,3.8V106c0,1.2,1,2.1,2.1,2.1h134c1.2,0,2.2-1,2.2-2.1V32.5c0-2.1-1.7-3.8-3.8-3.8h-24.6c-0.1,0-0.2,0-0.2-0.1
			c-0.2-0.1-0.3-0.2-0.3-0.4c-0.3-1.5-0.7-3-1.2-4.5c-0.1-0.1,0-0.3,0.1-0.5c0.1-0.1,0.2-0.2,0.4-0.2h25.6c5.3,0,9.7,4.3,9.7,9.7
			V114.1z"/>
	</g>
</g>
</svg>
