<?xml version="1.0" encoding="utf-8"?>
<!-- Generator: Adobe Illustrator 24.3.0, SVG Export Plug-In . SVG Version: 6.00 Build 0)  -->
<svg version="1.1" id="Layer_1" xmlns="http://www.w3.org/2000/svg" xmlns:xlink="http://www.w3.org/1999/xlink" x="0px" y="0px"
	 width="1060.8px" height="597.7px" viewBox="0 0 1060.8 597.7" style="enable-background:new 0 0 1060.8 597.7;"
	 xml:space="preserve">
<style type="text/css">
	.st0{fill:#FF6E6E;}
	.st1{fill:#00C8FF;}
	.st2{fill-rule:evenodd;clip-rule:evenodd;fill:#00C8FF;}
	.st3{fill:#185AE9;}
	.st4{fill:#FFFFFF;}
	.st5{fill-rule:evenodd;clip-rule:evenodd;fill:#FFFFFF;}
	.st6{fill:#00B0FB;}
	.st7{fill:#00B0FB;fill-opacity:0.4;}
	.st8{fill:#E4ECF4;}
	.st9{fill:#FFE8A0;}
	.st10{fill:none;}
	.st11{fill:#0D0D0D;}
	.st12{fill-rule:evenodd;clip-rule:evenodd;fill:#00B0FB;}
	.st13{fill:#FAFBFF;}
	.st14{fill:#070707;}
	.st15{fill:#D9D9D9;filter:url(#Adobe_OpacityMaskFilter);}
	.st16{mask:url(#mask0_103_2708_1_);}
	.st17{fill-rule:evenodd;clip-rule:evenodd;fill:#DAB6E4;}
	.st18{stroke:#FFFFFF;stroke-width:2;}
	.st19{fill:#FFFFFF;stroke:#000000;stroke-width:2;}
	.st20{fill-rule:evenodd;clip-rule:evenodd;}
	.st21{stroke:#FFFFFF;}
	.st22{fill:#FFFFFF;filter:url(#Adobe_OpacityMaskFilter_1_);}
	.st23{mask:url(#path-22-inside-1_103_2708_1_);fill:#FFFFFF;}
	.st24{fill-rule:evenodd;clip-rule:evenodd;fill:#263238;}
	.st25{fill:#EFEFEF;}
	
		.st26{fill:none;stroke:#000000;stroke-width:10.01;stroke-linecap:round;stroke-linejoin:round;stroke-miterlimit:3.08;stroke-dasharray:70.84,70.84;}
	.st27{fill:#010000;}
	.st28{opacity:0.64;}
	.st29{fill:#F9F7F5;}
	.st30{fill:#D9D9D9;filter:url(#Adobe_OpacityMaskFilter_2_);}
	.st31{mask:url(#mask0_103_2310_1_);}
	.st32{fill:#FFFFFF;filter:url(#Adobe_OpacityMaskFilter_3_);}
	.st33{mask:url(#mask1_103_2310_1_);}
	.st34{fill:#E6E6E6;}
	.st35{fill:#FFFFFF;filter:url(#Adobe_OpacityMaskFilter_4_);}
	.st36{mask:url(#mask2_103_2310_1_);}
	.st37{fill:none;stroke:#000000;stroke-width:1.5;stroke-linecap:round;stroke-linejoin:round;stroke-miterlimit:10;}
	.st38{fill:#FFFFFF;filter:url(#Adobe_OpacityMaskFilter_5_);}
	.st39{mask:url(#mask3_103_2310_1_);}
	.st40{fill:#FFFFFF;filter:url(#Adobe_OpacityMaskFilter_6_);}
	.st41{mask:url(#mask4_103_2310_1_);}
	.st42{fill:#FFFFFF;filter:url(#Adobe_OpacityMaskFilter_7_);}
	.st43{mask:url(#mask5_103_2310_1_);}
	.st44{fill:#FFFFFF;filter:url(#Adobe_OpacityMaskFilter_8_);}
	.st45{mask:url(#mask6_103_2310_1_);}
	.st46{fill:#DBDBDB;}
	.st47{fill:#FFFFFF;filter:url(#Adobe_OpacityMaskFilter_9_);}
	.st48{mask:url(#mask7_103_2310_1_);}
	.st49{fill:#FFFFFF;filter:url(#Adobe_OpacityMaskFilter_10_);}
	.st50{mask:url(#mask8_103_2310_1_);}
	.st51{fill:#FFFFFF;filter:url(#Adobe_OpacityMaskFilter_11_);}
	.st52{mask:url(#mask9_103_2310_1_);}
	.st53{fill:#FFFFFF;filter:url(#Adobe_OpacityMaskFilter_12_);}
	.st54{mask:url(#mask10_103_2310_1_);}
	.st55{fill:#FFFFFF;filter:url(#Adobe_OpacityMaskFilter_13_);}
	.st56{mask:url(#mask11_103_2310_1_);}
	.st57{fill:#FFFFFF;filter:url(#Adobe_OpacityMaskFilter_14_);}
	.st58{mask:url(#mask12_103_2310_1_);}
	.st59{fill:#FFFFFF;stroke:#000000;}
	.st60{fill:#FFFFFF;filter:url(#Adobe_OpacityMaskFilter_15_);stroke:#FFFFFF;}
	.st61{mask:url(#mask13_103_2310_1_);}
	.st62{fill:#FFFFFF;filter:url(#Adobe_OpacityMaskFilter_16_);}
	.st63{mask:url(#path-55-inside-1_103_2310_1_);}
	.st64{fill:#FFFFFF;filter:url(#Adobe_OpacityMaskFilter_17_);}
	.st65{mask:url(#path-59-inside-2_103_2310_1_);fill:#FFFFFF;}
	.st66{fill:none;stroke:#FFFFFF;stroke-width:1.5;stroke-linecap:round;stroke-linejoin:round;stroke-miterlimit:10;}
	.st67{fill:#181818;}
	.st68{fill:#BEBEBE;}
	.st69{fill:#FEFEFE;}
	.st70{fill:none;stroke:#000000;stroke-width:2.1125;stroke-miterlimit:6.5;}
	.st71{fill:#3C7CFF;stroke:#001135;stroke-width:0.7602;stroke-miterlimit:10;}
	.st72{fill:#001135;}
	.st73{fill:#3C7CFF;}
	.st74{clip-path:url(#SVGID_1_);}
	.st75{fill:#FFFFFF;stroke:#001135;stroke-width:0.7602;stroke-miterlimit:10;}
	.st76{fill:none;stroke:#001135;stroke-width:0.7602;stroke-miterlimit:10;}
	.st77{fill:#001135;stroke:#001135;stroke-width:0.7602;stroke-miterlimit:10;}
	.st78{fill:#0F0D0E;}
	.st79{fill:#161415;}
	.st80{fill:#FCFCFC;}
	.st81{fill:#FBFBFB;}
	.st82{fill:#FAFAFA;}
	.st83{fill:#C1C1C1;}
	.st84{fill:#0E0E0E;}
	.st85{fill:#EFEEEE;}
	.st86{fill:#A8A8A8;}
	.st87{fill:#9A9A9B;}
	.st88{fill:#404040;}
	.st89{fill:#EDEDED;}
	.st90{fill:#E7E7E7;}
	.st91{fill:#9A9999;}
	.st92{fill:#D2D2D2;}
	.st93{fill:#AEAEAE;}
	.st94{fill:#8D8D8C;}
	.st95{fill:#B9BABC;}
	.st96{fill:#61605F;}
	.st97{fill:#A5A5A5;}
	.st98{fill:#B5B6B6;}
	.st99{fill:#1B1C1C;}
	.st100{fill:#171616;}
	.st101{fill:#161616;}
	.st102{fill:#0F0F0F;}
	.st103{fill:#F0F0F0;}
	.st104{fill:#EDEDEC;}
	.st105{fill:#EBEBEB;}
	.st106{fill:#EBEBEA;}
	.st107{fill:#ECECEC;}
	.st108{fill:#E9E9E9;}
	.st109{fill:#EBEAEA;}
	.st110{fill:#B9BAB9;}
	.st111{fill:#EDECEC;}
	.st112{fill:#EAEAEA;}
	.st113{fill:#1F1F1E;}
	.st114{fill:#1E1E1D;}
	.st115{fill:#202020;}
	.st116{fill:#1B1A1A;}
	.st117{fill:#1F1F20;}
	.st118{fill:#252424;}
	.st119{fill:#1F1E1E;}
	.st120{fill:#222121;}
	.st121{fill:#2B2B2B;}
	.st122{fill:#1E1E1E;}
	.st123{fill:#1F1F1F;}
	.st124{fill:#434242;}
	.st125{fill:#2C2C2C;}
	.st126{fill:#484848;}
	.st127{fill:#FDFDFD;}
	.st128{fill:#F4F4F3;}
	.st129{fill:#F2F2F2;}
	.st130{fill:#F3F3F3;}
	.st131{fill:#F1F1F1;}
	.st132{fill:#191918;}
	.st133{fill:#1A1A19;}
	.st134{fill:#1D1C1D;}
	.st135{fill:#1C1A1B;}
	.st136{fill:#1E1D1E;}
	.st137{fill:#212021;}
	.st138{fill:#1D1D1D;}
	.st139{fill:#1D1B1B;}
	.st140{fill:#1F1D1E;}
	.st141{fill:#1E1D1D;}
	.st142{fill:#FCFBFB;}
	.st143{fill:#080808;}
	.st144{fill:#020202;}
	.st145{fill:#030303;}
	.st146{fill:#060606;}
	.st147{fill:#040304;}
	.st148{fill:#040404;}
	.st149{fill:#050404;}
	.st150{fill:#030302;}
	.st151{fill:#0A0A0A;}
	.st152{fill:#020102;}
	.st153{fill:#090909;}
	.st154{fill:#0B0B0B;}
	.st155{fill:#010101;}
	.st156{fill:#030304;}
	.st157{fill:#F8F9F9;}
	.st158{fill:#F9F9F9;}
	.st159{fill:#F8F8F8;}
	.st160{fill:#F7F7F7;}
	.st161{fill:#F5F5F5;}
	.st162{fill:#E4E5E4;}
	.st163{fill:#D4D4D5;}
	.st164{fill:#A5A5A6;}
	.st165{fill:#222222;}
	.st166{fill:#161615;}
	.st167{fill:#C7C7C7;}
	.st168{fill:#626261;}
	.st169{fill:#D5D3D6;}
	.st170{fill:#090908;}
	.st171{fill:#F6F6F6;}
	.st172{fill:#232323;}
	.st173{fill:#5F5E5E;}
	.st174{fill:#080807;}
	.st175{fill:#C3C3C3;}
	.st176{fill:#050505;}
	.st177{fill:#191919;}
	.st178{fill:#1A1A1A;}
	.st179{fill:#151615;}
	.st180{fill:#0F0F0E;}
	.st181{fill:#1D1C1C;}
	.st182{fill:#1A1919;}
	.st183{fill:#1C1C1C;}
	.st184{fill:#201F20;}
	.st185{fill:#151616;}
	.st186{fill:#201F1F;}
	.st187{fill:#232424;}
	.st188{fill:#1E1F1F;}
	.st189{fill:#1E1E1F;}
	.st190{fill:#1B1B1B;}
	.st191{fill:#1B1A1C;}
	.st192{fill:#2A2A2A;}
	.st193{fill:#1C1B1D;}
	.st194{fill:#242324;}
	.st195{fill:#1B1A1B;}
	.st196{fill:#212121;}
	.st197{fill:#2A2A2B;}
	.st198{fill:#2B2A2B;}
	.st199{fill:#202021;}
	.st200{fill:#202121;}
	.st201{fill:#242424;}
	.st202{fill:#1D1D1E;}
	.st203{fill:#272728;}
	.st204{fill:#222122;}
	.st205{fill:#242323;}
	.st206{fill:#222223;}
	.st207{fill:#252526;}
	.st208{fill:#282828;}
	.st209{fill:#292829;}
	.st210{fill:#171817;}
	.st211{fill:#282829;}
	.st212{fill:#2A2B2B;}
	.st213{fill:#363536;}
	.st214{fill:#212122;}
	.st215{fill:#272727;}
	.st216{fill:#252525;}
	.st217{fill:#29292A;}
	.st218{fill:#1F1E1F;}
	.st219{fill:#2E2D2D;}
	.st220{fill:#313030;}
	.st221{fill:#404141;}
	.st222{fill:#2E2F2E;}
	.st223{fill:#242525;}
	.st224{fill:#2D2C2C;}
	.st225{fill:#2B2B2C;}
	.st226{fill:#4B4B4B;}
	.st227{fill:#2E2E2E;}
	.st228{fill:#2E2D2E;}
	.st229{fill:#2E2E2F;}
	.st230{fill:#2C2B2B;}
	.st231{fill:#272627;}
	.st232{fill:#323131;}
	.st233{fill:#282928;}
	.st234{fill:#323232;}
	.st235{fill:#262627;}
	.st236{fill:#2D2C2D;}
	.st237{fill:#333333;}
	.st238{fill:#2A292A;}
	.st239{fill:#141414;}
	.st240{fill:#303030;}
	.st241{fill:#2E2E2D;}
	.st242{fill:#363635;}
	.st243{fill:#4D4D4D;}
	.st244{fill:#373636;}
	.st245{fill:#292929;}
	.st246{fill:#3C3B3C;}
	.st247{fill:#161516;}
	.st248{fill:#393939;}
	.st249{fill:#373737;}
	.st250{fill:#252425;}
	.st251{fill:#383839;}
	.st252{fill:#313232;}
	.st253{fill:#323233;}
	.st254{fill:#2B2C2C;}
	.st255{fill:#343333;}
	.st256{fill:#2C2C2D;}
	.st257{fill:#3C3C3C;}
	.st258{fill:#070606;}
	.st259{fill:#454545;}
	.st260{fill:#3B3B3C;}
	.st261{fill:#30302F;}
	.st262{fill:#3C3C3D;}
	.st263{fill:#232223;}
	.st264{fill:#333433;}
	.st265{fill:#050405;}
	.st266{fill:#373637;}
	.st267{fill:#414141;}
	.st268{fill:#3C3B3D;}
	.st269{fill:#3D3C3D;}
	.st270{fill:#2F2E2E;}
	.st271{fill:#2B2A2A;}
	.st272{fill:#040303;}
	.st273{fill:#2C2A2B;}
	.st274{fill:#191A1A;}
	.st275{fill:#313130;}
	.st276{fill:#19191A;}
	.st277{fill:#444443;}
	.st278{fill:#303031;}
	.st279{fill:#4A4A4B;}
	.st280{fill:#353635;}
	.st281{fill:#030202;}
	.st282{fill:#010001;}
	.st283{fill:#343434;}
	.st284{fill:#060505;}
	.st285{fill:#151514;}
	.st286{fill:#040302;}
	.st287{fill:#111010;}
	.st288{fill:#5D5C5D;}
	.st289{fill:#353535;}
	.st290{fill:#262524;}
	.st291{fill:#020203;}
	.st292{fill:#030203;}
	.st293{fill:#3D3E3E;}
	.st294{fill:#222323;}
	.st295{fill:#272928;}
	.st296{fill:#343433;}
	.st297{fill:#131212;}
	.st298{fill:#111111;}
	.st299{fill:#0B0C0C;}
	.st300{fill:#121212;}
	.st301{fill:#949597;}
	.st302{fill:#494749;}
	.st303{fill:#F9F8F9;}
	.st304{fill:#E4E5E5;}
	.st305{fill:#C8C5C6;}
	.st306{fill:#E5E5E5;}
	.st307{fill:#B7B6B8;}
	.st308{fill:#D0D0D1;}
	.st309{fill:#E6E6E7;}
	.st310{fill:#D1D0D3;}
	.st311{fill:#F6F7F7;}
	.st312{fill:#CBCACC;}
	.st313{fill:none;stroke:#000000;stroke-width:2;stroke-miterlimit:10;}
	.st314{fill:none;stroke:#000000;stroke-width:2;stroke-miterlimit:10;stroke-dasharray:12.1617,12.1617;}
	.st315{fill:none;stroke:#000000;stroke-width:2;stroke-miterlimit:10;stroke-dasharray:12;}
	.st316{fill:none;stroke:#222122;stroke-width:2;stroke-miterlimit:10;stroke-dasharray:12;}
	.st317{fill:none;stroke:#000000;stroke-width:2;stroke-miterlimit:10;stroke-dasharray:12.0927,12.0927;}
	.st318{fill:none;stroke:#000000;stroke-width:0;stroke-linecap:round;stroke-linejoin:round;}
	.st319{fill:#535353;}
	.st320{fill:#414041;}
	.st321{fill:#4D4C4D;}
	.st322{fill:#0A0A0B;}
	.st323{fill:#181718;}
	.st324{fill:#2F2E2F;}
	.st325{fill:#494A4A;}
	.st326{fill:#585959;}
	.st327{fill:#3A3A3A;}
	.st328{fill:#989898;}
	.st329{fill:#908F90;}
	.st330{fill:#0D0C0C;}
	.st331{fill:#0C0C0B;}
	.st332{fill:#232322;}
	.st333{fill:#474847;}
	.st334{fill:#8E8E8E;}
	.st335{fill:#DDDDDD;}
	.st336{fill:#DCDCDC;}
	.st337{fill:#E2E2E2;}
	.st338{fill:#E1E1E1;}
	.st339{fill:#131313;}
	.st340{fill:#0C0C0C;}
	.st341{fill:#101010;}
	.st342{fill:#F4F4F4;}
	.st343{fill:#F8F7F8;}
	.st344{fill:#F7F6F7;}
	.st345{fill:#0E0D0E;}
	.st346{fill:#121112;}
	.st347{fill:#0B0B0A;}
	.st348{fill:#090808;}
	.st349{fill:#EDEDEE;}
	.st350{fill:#E7E8E8;}
	.st351{fill:#3C3D3D;}
	.st352{fill:#1B1C1B;}
</style>
<g>
	<path d="M371.9,580.1c0.1,9.6-5,15.5-14.4,17.1c-2.5,0.4-5.1,0.4-7.4,0.6c-16.5-0.7-31.7-5.9-46.7-11.9
		c-25.5-10.2-49.6-23.4-73.1-37.8c-5.3-3.2-10.6-6.6-15.8-9.9c-3.9-2.4-7.7-5-11.5-7.5c-5.6-3.7-11.1-7.4-16.5-11.2
		c-2.7-1.9-5.5-3.8-8.2-5.8c-2.8-2-5.7-4-8.4-6.1c-2.3-1.7-4.6-3.4-6.9-5.1c-2.3-1.7-4.6-3.4-6.9-5.2c-1.3-1-2.6-1.9-3.9-2.9
		c-0.5-0.4-1.1-0.8-1.6-1.2c-3-2.3-6-4.7-9-7.1c-10-7.9-19.7-16-29.4-24.3c-1-0.9-2-1.7-3.1-2.6c-7.5-6.5-14.9-13.1-22.2-19.9
		c-21.4-19.8-41.6-40.6-59.5-63.8c-9-11.7-17.5-23.8-23.3-37.6c-2.2-5.1-4-10.4-4.2-16.1c-0.4-10.5,5-16.7,15.4-18
		c9.7-1.2,19,0.6,28.3,3c19.5,5.2,37.7,13.4,55.6,22.5c25.1,12.7,49.2,27.3,72.5,43.1c2.6,1.7,5.1,3.4,7.6,5.2c0,0,0,0,0.1,0
		c1.1,0.7,2.1,1.5,3.2,2.2c0.3,0.2,0.7,0.5,1,0.7c1.5,1,3,2.1,4.6,3.2c0.5,0.3,0.9,0.6,1.4,1c0.2,0.1,0.4,0.3,0.6,0.4
		c1.5,1,2.9,2.1,4.4,3.1c1.6,1.1,3.2,2.3,4.7,3.4c0.8,0.6,1.6,1.2,2.4,1.8c2,1.4,4,2.9,5.9,4.3c2.8,2.1,5.7,4.2,8.5,6.4
		c7.7,5.9,15.4,11.9,22.9,18c6.9,5.6,13.8,11.4,20.6,17.2c4.3,3.6,8.5,7.3,12.6,11.1c1,0.9,2.1,1.9,3.2,2.8
		c3.6,3.3,7.2,6.6,10.8,9.9c22.4,21,43.7,43,62,67.8c7.9,10.7,15.1,21.7,20,34.2C370.4,570,371.9,574.9,371.9,580.1z"/>
	<path class="st341" d="M511.3,124.9c-2.2,6.3-6.2,11.1-12.3,15.5c3.1-7.4,5.1-14.1,0.9-21.7c-0.4,2.2-0.9,3.6-1,5
		c-0.4,6.7-3.1,12.3-7.5,17.2c-3.5,3.9-7.2,7.7-7.9,13.3l0,0l0,0c-1.7-0.7-2.2-2.2-2.8-3.7c-0.1-0.2-0.1-0.4-0.2-0.6
		c0-0.1-0.1-0.2-0.1-0.3c-0.3-1.4,0.1-2.7,0.5-4.1c1.4-5,0.8-6.3-3.8-8.4c-0.8-0.4-1.8-0.6-2.6-1c-1.5-0.7-2.8-1.7-2.4-3.6
		c0.4-1.8,2-2.2,3.6-2.5c1.1-0.2,2.2-0.2,3.2,0.2c3.7,1.3,4.9-0.3,4.6-3.7c-1-11.7-4.8-22.1-14.1-30c-2.4-2-3.7-2-5.2,0.9
		c-3.4,6.7-8.4,12.3-14.1,17.2c-1.9,1.6-2.7,2.7,0.1,4.4c2.2,1.3,3.3,3.5,1.8,6c-1.4,2.3-3.6,1.5-5.4,0.5c-4.8-2.6-9.5-2.2-14.2,0.3
		c-1.5,0.8-3.4,1.2-4.5-0.9c-0.9-1.8,0-3.4,1.5-4.4c3-2.2,6.3-4,8.3-7.4c1.9-3.2,2.9-6.8,4.9-10.3c-7.5,9.2-16.8,15.3-27.4,19.3
		c-0.9,0.3-1.7,0.8-2.6,1c-1.2,0.3-2.6,0.7-3.6-0.3c-1.3-1.3,0-2.6,0.5-3.8c0.3-0.7,0.7-1.3,0.5-1.1c-5.1,3.3-8.4,8.9-9.7,15.8
		c-0.6,3.2-2.6,5.2-6.1,5.4c-3.6,0.2-6-1.3-7.1-4.7c-2.4-7.2-7.6-11.1-15-12.3c-5.4-0.8-9.8,1.4-12.4,6.2
		c-5.7,10.8,0.3,27.1,11.7,31.5c2.3,0.9,4.6,0.7,6.9,0.7c1.4,0.1,2.9,0.3,3.3,2c0.4,1.8-0.7,2.9-2.1,3.8c-0.5,0.3-1.2,0.8-1.7,0.7
		c-5.4-0.8-8,3-11.1,6.2c-2.5,2.6-4.9,5.3-8.3,6.7c-1.8,0.7-4,2.1-5.6,0.1c0,0-0.1-0.1-0.1-0.1c-0.1-0.1-0.1-0.2-0.2-0.3
		c-1-1.7,0.9-3.1,1.8-4.4c0.3-0.5,0.8-1,1.2-1.5c-4.2,3.7-8.7,6.8-13.6,9.3c-3.2,1.6-3.9,2.4-2.6,4.5c0.3,0.5,0.7,1.1,1.2,1.8
		c9.5,12.8,17.4,26.5,24.2,40.9c0.9,1.8,2,3.6,1.5,5.7c0,0.1,0,0.1-0.1,0.2c0,0.1-0.1,0.3-0.2,0.4c-0.6,1.4-1.5,2.4-3,2.7l0,0
		c0,0-0.1,0-0.1,0c0,0-0.1,0-0.1,0c-2.7-0.7-3.2-3.2-4.2-5.3c-6.5-12.9-13.4-25.7-22.1-37.4c-7.7-10.3-17.3-18.2-29-23.7
		c-3.1-1.4-6.2-3-8.9-5.1c-2-1.6-3.7-3.5-2.8-6.4c0.9-2.7,3-3.8,5.6-4.2c8.4-1.3,16.8-0.6,25.2,0.2c3,0.3,5.8,0.2,8.4-1.5
		c-0.6-1.9-2-1.7-3.1-1.9c-17.4-2.7-34.8-5.2-52.5-5.3c-5.9,0-11.8,0.4-17.7,1.5c-11.1,2.1-18.9,9.1-25.3,17.9
		c-4.4,6-8.4,12.4-11.5,19.2c-1.4,3.1-2.5,6.4-2.4,9.9c0.1,3.4,1.9,4.7,5.3,3.9c2.3-0.5,4.4-1.6,6.5-2.6c17.5-7.6,35-7.3,52.8-0.9
		c19.1,6.9,32.8,20.5,44.8,36.2c3.3,4.3,6.4,8.8,9.6,13.3c3.3,4.6,7,8.8,12.4,11.1c3.1,1.3,4.2,3.9,4.5,7.1c0.7,9-1.1,17.7-2.4,26.5
		c-1.5,10.3-3.6,20.6-6.1,30.7c4.4-16.4,7.8-33,9-49.9c0.1-1.5,0.2-3.1,0.5-4.6c0.9-4.2,2.3-5.2,6.6-4.5c2,0.4,4,0.8,5.9,1.5
		c1.7,0.6,4,1,3.4,3.6c-0.5,2-2.4,2.2-4.1,2.2c-0.3,0-0.6,0-0.9-0.1c-3.8-0.8-4.9,1.4-5.1,4.7c-0.2,5.3-1.2,10.5-1.9,15.8
		c-1.5,12.1-4.2,23.9-7.2,35.7c-0.8,3.2-2.2,5.8-6.1,6.1c-6.3,0.4-9.4-3.1-7.7-9.2c4.8-17,7.9-34.3,9.7-51.9c0.4-4-0.5-6.8-4.2-9
		c-5.6-3.3-9.7-8.2-13.3-13.6c-7.6-11.3-15.7-22.2-26-31.1c-26.3-22.7-61.4-25.2-88.1-1.8c-11.9,10.4-21.3,23.1-30.8,35.7
		c-9.4,12.6-19,25.1-27.3,38.5c-12.4,20-22.7,41.2-33.8,61.9c-10.6,19.8-20.5,39.9-32.9,58.7c-1.3,2-2.8,3.8-4.2,5.6
		c-2.9,3.9-3.1,6.3,0.1,10.1c10.8,13,22.7,24.8,36.2,35c13.5,10.2,27.4,19.7,43,26.2c33.6,14.2,65.9,12.4,95.9-9.8
		c1.3-0.9,2.5-1.9,3.6-3c0.8-0.7,1.6-1.4,2.5-2.7c-7.5,0.3-14.5,2-21.7,3c-19.3,2.7-38.7,4.7-58.1,1.3c-13.1-2.3-24.9-7.9-36-15
		c-1.5-1-3.8-2.1-2.6-4.3c0,0,0.1-0.1,0.1-0.1c0-0.1,0.1-0.1,0.1-0.2c1.3-1.8,3.5-0.6,5.2,0.2c8.5,4.4,17.3,7.8,26.7,9.9
		c23.6,5.1,45.4,0,66.3-11.1c2.2-1.2,3.9-2.8,1.1-4.9c-12.9-9.7-18-24.4-24.5-38.1c-7.4-15.6-14-31.6-19.3-48.1
		c-1.3-4.1-4.5-5.8-8.2-6.8c-7.4-1.9-14.9-3.6-21.9-6.8c-2.8-1.3-5.7-2.6-8.2-4.5c-1-0.7-2.1-1.7-1.1-3.1c0.9-1.3,2.2-1,3.4-0.6
		c4.3,1.4,8.4,3.2,12.8,4.4c4.2,1.1,8.4,2.3,12.8,2.2c1.5-0.1,3.3,0,4.1-1.6c0.8-1.7-0.5-3-1.4-4.1c-2.9-3.5-6.5-6.3-9.6-9.6
		c-5.6-6.1-10.9-12.5-15-19.7c-1.1-2-3.2-4.8-1-6.4l0,0c0.1-0.1,0.1-0.1,0.2-0.2c0,0,0,0,0,0c2.6-1.6,3.7,2,4.9,3.7
		c4,5.4,7.9,10.8,12.4,15.8c1.1,1.2,2.4,3.2,4.1,2.3c1.7-0.9,0.7-3.1,0.3-4.7c-3.6-17.5-5.5-35.1-2.1-52.9c1-5.1,2.4-10,4.7-14.7
		c0.6-1.2,1.5-2.7,2.8-2.6c0.2,0,0.4,0,0.5,0.1c0,0,0.1,0,0.1,0c1.5,0.6,0.8,2.5,0.5,3.8c-5.5,21.2-1.7,41.8,4.7,62
		c6.8,21.6,15.8,42.3,26.9,62.1c0.9,1.6,1.5,3.4,2.2,5.1c-6-22.8-16.2-44.5-19-68.2c-0.5-4-1.6-7.9-2.4-11.9c-0.4-2-1.4-4.9,1.3-5.7
		c2.8-0.8,3.4,2.1,4.1,4.1c2.7,7.8,3.7,16.1,5.2,24.2c1.7,9.2,4,18.2,7.5,26.9c5.9,14.8,9.2,30.4,13.7,45.7
		c3.8,12.8,10.9,23,22.8,29.4c1.4,0.8,2.9,2.6,4.6,1.5c1.5-1,0.9-3.2,0.9-4.8c0.8-18.6,8.7-33.1,24.1-43.6c1.7-1.1,3.4-2.2,5.5-2.4
		c1.3-0.1,2.6,0,3.2,1.4c0.5,1.2-0.2,2.1-1,2.9c-1.1,1.1-2.5,1.9-3.8,2.7c-13.2,8.6-19.8,21.2-20.3,36.5
		c-0.5,13.9,7.1,23.8,18.9,30.6c8.1,4.7,16.9,6.9,25.8,5.3c-15.7-2.6-23.9-16.5-20.2-33.1c2.9-13.2,10.1-23.2,22.3-29.6
		c10.6-5.6,24.8-4.2,34,3.4c0.2,0.2,0.4,0.3,0.6,0.5c0.8,0.7,1.4,1.6,2.4,2l0,0c0.2,0.1,0.4,0.1,0.6,0.1c2.7,3.8,2.3,5.8-1.2,6.4
		c-0.2,0-0.4,0.1-0.6,0.1c-0.2,0-0.4,0.1-0.6,0.1c-2.1-0.7-3.9-1.7-5.7-2.8c0,0,0,0,0,0c-1.1-0.6-2.2-1.3-3.3-1.9
		c-10-5.1-19.5-4-27.8,3c-8.7,7.4-13.7,16.7-12.4,28.7c0.5,5.3,2.9,9,7.3,11.7c2.1,1.3,4.2,2.5,6.4,3.5c3.5,1.8,7,3.3,10.6,4.7
		c4.1,1.6,8.3,3.1,12.4,4.6c11.1,4,22.5,7.4,33.6,11.2c10.2,3.5,19.1,9.6,28.6,14.7c1,0.5,1.7,1.4,2.2,2.4c0.1,0.3,0.2,0.5,0.3,0.8
		c0,0.1,0.1,0.2,0.1,0.3c1.1,3,2.6,5.7,5.6,7.3c0.8,0.5,1.5,1.2,1,2.3c-2.2-2.1-5.5-2.9-6.5-6.2c-0.4-1.2-1.7-2.2-0.6-3.7
		c-13.5-9.1-27.8-16.2-43.5-20.8c-11.1-3.2-22-6.9-32.7-11.2c0,0.2,0.1,0.4,0.1,0.7c0.3,3.1-1.6,5.9-4.6,6.9
		c-3.9,1.2-7.5,1.9-11,2.2c-4.5,0.4-8.8,0-13.1-1c-16-3.8-28.3-14.1-33.6-27.1c-0.6,0.2-1.3,0.3-2.1,0.4c-2.7,0.2-5.1-1-7.8-2.4
		c-13.7-7.1-23-18-27.8-32.4c-1.2-3.6-2.2-7.1-3.2-10.7c-2.2-0.1-4.3-1.3-5.5-3.3c-0.5-0.9-1-1.8-1.6-2.7c-1.2-2-2.4-4.1-3.6-6.2
		c-5.4-10.2-11.4-22-16.9-35.1c-0.1,0.4-0.3,0.8-0.5,1.3c-0.3,0.7-0.8,1.5-1.5,2.2c4.5,3.6,7.6,8.8,9.8,15.9
		c6,19.8,15.4,39,24.5,57.5l0.9,1.9c3.1,6.3,7.8,11.8,13.9,16.3c1.4,1,5.1,3.8,4.8,8.4c-0.3,4.6-4.4,6.9-5.7,7.6
		c-4.3,2.4-8.6,4.5-12.8,6.4c9.8-1.3,19.7-3,29.7-4.7c0.2,0,0.4-0.1,0.6-0.1c2.5-0.2,4.9,1,6.2,3.2c1.4,2.4,1.2,5.3-0.6,7.4
		c-5.6,6.9-12.2,12.5-20.3,17c-13.8,7.8-28.1,12.3-42.5,13.5c-17.7,1.5-35.8-2.1-53.9-10.5c-29.1-13.6-55.5-34-78.5-60.7
		c-7.9-9.2-7.1-13.9-0.8-22.6c10.4-14.3,18.8-30.4,27-45.9c2.1-4.1,4.4-8.3,6.6-12.4c3.6-6.7,7.2-13.7,10.6-20.4
		c8.4-16.3,17-33.2,27.4-48.9c10-15.1,20.6-30.7,32.6-45.6c0,0,0,0,0,0c0.6-0.6,1.2-1.4,2-2.3c1.9-2.3,3.8-4.6,5.7-6.8
		c0.1-0.1,0.2-0.3,0.3-0.4c5.6-6.7,11.4-13.1,17.9-19c1-0.9,1.6-1.9,1.8-2.9c0.3-1.3,0.1-2.6-0.4-3.9c-1.8-4.7-1.1-9.4,0.6-13.7
		c5.1-13,12.6-24.7,22.6-34.5c10.5-10.3,24.1-11.6,37.8-11.5c18.8,0.1,37.4,2.8,56,5.9c3.4,0.6,5.1,0.3,5.7-1.5
		c0.3-0.9,0.3-2.1,0.2-3.8c-0.9-11.4-1.2-22.6,1.9-33.8c8.3-29.3,27.6-47.4,56.8-54.8c20.5-5.2,40.8-3.9,58.8,8.1
		c6.5,4.3,12.4,6.3,20,6.9c18.1,1.4,32.2,16.1,34.9,34.2C513.2,111.2,513.6,118,511.3,124.9z"/>
	<path class="st151" d="M721.5,562.4c-1.9-22.5-3.7-45-5.6-67.6c-1.8-22.4-3.7-44.7-5.5-67.1c-1.3-15.9-8.6-23.1-24.5-23.2
		c-15.9-0.1-31.8,0.3-47.7,0.5c-29.4,0.3-58.9,0.5-88.3,1c-11.8,0.2-23.7-0.7-35.4,1.3c-9.3,1.6-13.5,6.9-13,16.4
		c0.1,2,0.2,4.1,0.2,6.1c0.1,3.9,0.3,7.8,0.4,11.7c0,0.2,0,0.4,0,0.6c0.1,1.9,0.2,3.9,0.3,5.8c0.1,1.4,0.1,2.9,0.2,4.4
		c0,0.7,0.1,1.4,0.1,2.1c0.1,0.9,0.1,1.9,0.2,2.8c0.1,1,0.1,1.9,0.2,2.8c0.1,0.8,0.1,1.5,0.2,2.2c0,0.6,0.1,1.1,0.1,1.7
		c0.1,0.8,0.1,1.5,0.2,2.3c0.1,0.8,0.2,1.6,0.3,2.4c0,0.1,0,0.2,0,0.3c0,0.4,0.1,0.8,0.1,1.3c0,0.2,0.1,0.5,0.1,0.7
		c0.1,0.4,0.1,0.9,0.2,1.3c0.8,6.1,2,11.7,1.5,18.2c0,0.1,0,0.1,0,0.2c-0.1,0.5-0.1,0.9-0.1,1.4c0,0.6-0.1,1.3-0.1,1.9
		c0,1.1,0,2.2,0,3.3c0,1,0.1,2,0.1,3c0.1,1.4,0.2,2.9,0.3,4.3c0,0.1,0,0.1,0,0.2c0.1,1.2,0.2,2.3,0.3,3.5c0.1,1.2,0.2,2.4,0.4,3.7
		c0.1,0.5,0.1,1,0.1,1.5c0,0.5,0.1,1,0.1,1.5c0,0.3,0.1,0.5,0.1,0.8c0.1,1.2,0.2,2.4,0.3,3.6c0,0.2,0,0.3,0,0.5
		c0.1,2.5,1.1,3.8,3.4,4.8c3.1,1.4,6.1,3.2,8.8,5.2c3.3,2.4,4.7,6,3.5,9.9c-1.1,3.9-4.6,4.8-8.2,4.8c-0.9,0-1.9,0.2-2.8,0.1
		c-0.2,0-0.4,0-0.6,0c-0.1,0-0.3,0-0.4,0c-0.2,0-0.3,0-0.5,0.1c0,0,0,0,0,0c-0.2,0-0.3,0.1-0.4,0.2c-0.1,0.1-0.2,0.1-0.3,0.2
		c-0.1,0-0.1,0.1-0.2,0.1c-0.1,0.1-0.2,0.2-0.2,0.3c0,0.1-0.1,0.1-0.1,0.2c-0.1,0.3-0.2,0.6-0.2,0.9c0,0.3,0,0.7,0,1.1
		c0,0,0,0.1,0,0.1c0.5,5,0.5,10,1,14.9c1.1,10.4,9.2,18.2,19.3,18c15.9-0.4,31.8-0.4,47.6-0.4c32.9,0.2,65.7,0.2,98.6,0.2
		c9.8,0,19.6,0.2,29.4-0.2C715.7,580.2,722.3,572.5,721.5,562.4z M799,239.6c-4.6-2.4-9.4-4.1-14.3-5.6c-2.5-0.7-5.4-1.1-7.4-3.5
		c1.7-0.5,3.1-0.8,4.3-1.3c5.2-2,7.5-5,6.5-8.8c-1.2-4.7-5-5.5-9.1-5.4c-13.2,0.3-26.4-0.4-39.5,2.2c-16.9,3.4-33.3,7.5-47.9,17.4
		c-14.7,10-30.3,18-47.9,22.4c-10.9,2.7-21.6,5.7-32.6,7c-5.8,0.7-11.8,0.9-17.8,0.4c-8.4-0.7-17.1-0.1-25.2,3.4
		c-2.2,0.9-4.6,0.8-7,0.3c-0.1,0-0.2-0.1-0.3-0.1c-0.2,0-0.4-0.1-0.6-0.1c-13.1-2.5-26.2-5.2-39-9c-26.9-7.9-50.1-23.6-74.9-35.7
		c-1.3-0.6-1.4-1.2-0.8-1.9c0.2-0.2,0.5-0.5,0.9-0.7c6.3-4.3,11.7-9.8,16.9-15.3c8.3-8.7,16.6-17.4,19.5-29.7
		c1.7-7.1,1-14.2,0.7-21.4v0c-0.8-1.6-1.5-3.1-2.2-4.7v0c-0.3,0.1-0.5,0.2-0.7,0.4c-1.6,1.1-1.7,3-1.9,4.7c-0.3,3.1-0.6,6.2-0.5,9.3
		c0.2,7.8-1.6,14.9-5.9,21.7c-6.1,9.6-14.5,17-22.4,24.9c-6.6,6.6-14.2,7.8-22.7,4.3c-11.6-4.8-22.3-11.1-30.9-20.5
		c-1.2-1.3-2.4-3.6-4.4-2.4c-1.8,1-1.2,3.4-0.8,5.2c2,9.2,4,18.4,12.3,24.3c1.5,1.1,1.5,2.3,0.4,3.6c-4.2,4.6-4.7,10.3-4.6,16.2
		c0.1,1.9-0.2,3.8-1,5.4c-0.3,0.7-0.8,1.4-1.4,2c-4,3.9-8.4,7.4-13.1,10.5c-0.7,0.5-1.4,0.8-2.1,0.9c-0.6,0.1-1.2,0.1-1.7-0.2
		c-0.9-0.4-1.6-1.2-2.3-2.5c-2.6-5.1-4.9-10.4-7.6-15.5c-1.1-2-1.8-4.3-4-5.5c-0.2-0.1-0.3-0.2-0.5-0.2c-0.9,1.1-1.8,2.2-2.7,3.3
		c0,0-0.1,0.1-0.1,0.1c-1.1,1.9,0.1,3.5,0.8,5.1c2.7,5.6,5.7,11.1,8.3,16.8c3.1,7,7.7,11.6,15.7,12c3,0.1,3.9,1.8,3.6,4.7
		c-0.5,5.3-1.1,10.5-1.9,15.8c-1.8,12-4.7,23.8-7.8,35.6c-1.2,4.5,0.3,6.9,4.7,7.9c4.8,1.1,7.1-0.4,8.5-5.5
		c4.5-17.4,8.4-34.9,9.7-52.8c0.3-4.1,1.7-6.8,5.2-9.2c12-8.4,17.2-21,20.1-34.7c0.4-1.9,0.2-3.9-2.1-4.5c-2.4-0.7-3.4,1.1-4,2.9
		c-1,2.9-1.6,6-2.7,8.9c-3.3,8.6-7.8,16.5-16.2,20.9c-4.2,2.2-5.9,4.9-6.2,9.4c-1.2,18.3-4.4,36.4-9.2,54.1c0.1-0.5,0.1-1,0.2-1.4
		c4.5-16.6,7.2-33.4,8.5-50.6c0.5-7.1-0.6-8.4-7.3-8.6c-1.1,0-2.2,0.2-3.2-0.6c1-1.5,2.6-2.2,4-3.2c6.4-4.8,12.6-9.7,17.6-15.9
		c4.8-6,8.3-12.4,7.6-20.5c-0.5-4.8,1.3-6.3,5.9-4.8c3.4,1.1,6.4,3.2,9.9,4.1c11.9,3,22.8,8.3,33.4,14.4
		c11.1,6.4,22.4,12.3,34.1,17.4c15.1,6.6,30.8,10.9,47,13.7c2.9,0.5,5.8,1.3,8,3.5c4.3,4.2,4.6,4.2,9.9,1.2
		c8.3-4.7,17.2-7.1,26.8-6.4c2.8,0.2,5.7,0,8-0.3c-7.7,1.3-13.7,6.2-17.1,14.7c-4.9,12.1,0.1,30.8,10.4,38.8
		c4.6,3.6,9.9,5.2,15.8,3.4c0,0,0,0,0,0c0.2-0.1,0.5-0.2,0.8-0.3c0.8-0.3,1.6-0.6,2.3-1c0.9-0.5,2-1,3-1.6c-1.5,1.2-3.2,2.2-4.9,3.2
		h0c-0.2,0.1-0.4,0.2-0.6,0.4c0,0-0.1,0.1-0.1,0.1c-5.1,3-10.6,4.9-16.4,5.9c-5.9,1.1-11.8,2.2-17.3,5.1c-7.6,4-16,6-24.6,6.7
		c-17,1.3-33.9-0.2-50.8-2.6c-22-3.1-43.4-8.6-64.1-16.8c-1.5-0.6-3.8-0.9-3.6-3c0.1-1.8,2.3-1.9,3.7-2.4c9.8-3.3,19-8,27.2-14.3
		c2.3-1.8,5.9-3.7,3.4-6.9c-2.5-3.3-5.3-0.2-7.6,1.5c-7.9,5.8-16.6,9.9-26,12.4c-1.7,0.5-3.9,1.6-5.3,0c-1.2-1.5,0.4-3.2,1.1-4.7
		c5-10.7,10-21.5,14.3-32.5c0.6-1.5,1.2-2.9,1.4-4.5c0.2-1.8-0.2-3.5-2.1-4.2c-1.8-0.7-3,0.5-3.9,1.8c-1,1.4-1.6,3-2.2,4.6
		c-12.5,30.2-28.2,58.7-46.6,85.7c-7.1,10.4-15.2,19.7-24.4,28.2c-1.8,1.6-3.6,3.1-6.2,1.9c-4.7-2-8.8-4.7-11.2-9.4
		c-2.4-4.4-3.9-9.1-4.8-14.1c-1.5-8-4.3-15.3-10.6-20.9c-2.4-2.1-3.5-5-4-8.2c-2.3-15.1-3.5-30.3-6.6-45.2
		c-3.1-14.5-6.3-29-14.2-41.8c-8.1-13.3-19.5-22.5-34.2-27.6c-2.1-0.7-5.2-1.9-6.3,0.7c-1.2,2.9,2.2,3.7,4.2,4.5
		c17.9,7.1,28.7,20.8,35.4,38.3c7.1,18.3,9.3,37.7,12.2,57c0.3,2.2,0.4,4.4,0.5,6.5c0.2,3-1.1,3.2-3.3,1.9c-3.5-2.2-6.4-4.9-9.4-7.7
		c-2-1.9-4.4-5.7-7.1-2.7c-2.6,2.7,0.9,5.3,3,7.2c5.3,4.8,11,9.2,16.3,14c4.9,4.3,9.5,9,12.4,15.1c0.8,1.8,2.7,4,1.2,5.6
		c-1.7,1.7-3.6-0.7-5.3-1.5c-15.8-7.4-31.1-6.4-46,2.3c-1.8,1-3.7,2.5-2.6,4.8c1.1,2.6,3.4,1.3,5.3,0.7c1.6-0.5,3.2-1.2,4.8-1.9
		c5.6-2.3,11.3-3.4,17.3-3.5c11.8-0.2,21.3,5.1,29.7,12.8c0.9,0.8,2.1,1.9,1.6,3.2c-0.6,1.7-2.4,0.9-3.7,0.8
		c-3.8-0.1-7.5,0.3-11.2,0.7c-2.4,0.3-5.9,0.2-5.6,3.4c0.3,3.2,3.6,2,5.8,2c17.4,0.1,32.6,5,43.8,19c0,0,0,0,0,0.1
		c0.1,0.1,0.1,0.1,0.2,0.2c0.9,1.1,1.6,2.3,3.1,2.7c1,2.3,2.4,4.7-1.5,5.7c0,0.2-0.1,0.4-0.1,0.5c-0.1,0.9,0.4,1.4,0.9,1.9
		c0.5,0.4,1.1,0.7,1.5,1.1c10,7.7,20.6,14.5,31.8,20.5c13.7,7.4,27.6,12.4,43.7,10.6c8.6-1,16.8,2.1,23.6,8.3
		c8.9,8.3,18.3,16,29.6,21c0.6,0.3,1.1,0.6,1.6,1c3,2.3,3,4.6-0.3,6.5c-2.7,1.6-5.7,2.3-9,2c-7.4-0.7-14.2-3.3-20.6-7
		c-5-2.9-10.4-4.9-16.2-5.8c-1.4-0.2-2.9-0.2-3.7,1.3c-0.6,1.2,0.1,2.2,1.1,2.7c5,2.6,6,7.6,8,12.1c5.6,12.7,14,22.7,26.5,29
		c6.4,3.2,13.2,5.5,19.8,8.3c3.7,1.6,7.4,3.3,10.6,5.9c1.4,1.1,2.2,2.7,1.6,4.6c-0.7,1.9-2.3,2.4-4.1,2.6c-1.1,0.1-2.2,0-3.3-0.2
		c-13.4-1.8-26.4-4.9-38.5-11c-17.3-8.7-32.7-20.3-48.1-32c-1.6-1.2-2.9-3.1-5.2-2.9c-0.1,0-0.3,0-0.4,0c-1.1,1.5,0.3,2.5,0.6,3.7
		c1,3.3,4.3,4.2,6.5,6.2c0.5-1.1-0.2-1.8-1-2.3c-3-1.7-4.5-4.4-5.6-7.3c3.2,1.8,5.3,5.1,8.4,7c8.3,5.1,16.1,11.1,24,16.7
		c15.6,11.1,32.5,18.2,51,22c4.1,0.8,8.3,1.6,12.5,1.2c2.1-0.2,4-0.9,4.8-3.1c0.7-2.2-0.1-4.1-1.6-5.5c-1.5-1.3-3.1-2.7-4.9-3.5
		c-6.4-2.9-12.7-6-19.2-8.3c-18-6.3-29-19.1-35.1-36.7c-1.2-3.4-3.1-6-6.6-7.4c-0.8-0.3-1.9-0.5-1.3-2c3-0.6,5.8,0.4,8.6,1.3
		c4.2,1.3,8,3.4,11.8,5.4c7.9,4.1,16.1,7.6,25.4,5.7c3.3-0.7,6.8-1.9,7.4-5.5c0.7-3.8-3.1-5-5.8-6.4c-9.3-4.5-17.8-10.1-25.1-17.6
		c-8.8-9.1-19.6-12.7-32.2-11.6c-6.9,0.6-13.7,0.5-20.3-2c-18.3-7.2-35-17-50.5-29.1c1.5-0.4,3-1.3,4.1-3c-0.7-1.1-1.3-2.3-1.9-3.6
		c-0.3-0.8-0.6-1.7-0.9-2.6c-0.6-2.2-1.8-4.4-3.1-6.2c-1.5-2-1.1-3.4,0-4.8c0.3-0.4,0.7-0.7,1.1-1.1c4.9-4.5,9.5-9.4,13.9-14.4
		c11.5-13.1,20.3-27.9,28.7-43c0.3-0.6,0.6-1.1,0.9-1.6c0.2-0.5,0.5-0.8,0.8-1.2c0,0,0,0,0,0c1.3-1.7,2.7-1.9,5.1-1.2
		c8.6,2.8,17.2,5.5,25.9,7.8c27.1,7.1,54.4,11.4,82.4,12.1c4.4,0.1,8.7,0.1,13.1,0c13.3-0.2,25.5-2.8,37.2-8.9
		c5.2-2.7,10.2-5.5,16.3-6.6c8.1-1.4,15.7-4,21.9-9.1c2.3-1.9,4.4-4.1,6.3-6.7c1.3-1.8,3.4-2.6,5.5-3.5
		c12.1-5.1,23.7-11.1,35.3-17.1c7.3-3.8,14.8-6.3,23.1-6.4c16.2-0.2,31.3-4.2,45.1-13c7.5-4.8,15.8-5.3,24.2-2.1
		c3.5,1.3,7.1,2.4,10.8,2.7c7,0.5,9.5-1.9,9.5-8.7c3.8,0.7,7.5,2.1,11.5,1.5c2.3-0.3,4.2-1.3,5.1-3.6c1-2.4-0.1-4.4-1.8-5.9
		c-2.5-2.3-5.2-4.4-7.9-6.5c-3.5-2.7-7.8-4.3-10.9-8.3c4.8-0.3,9,0.8,13.2,1.8c4.1,0.9,8.3,1.9,12.5,0.7c3-0.8,6.3-2.1,6.5-5.8
		C804.2,243.4,801.9,241.1,799,239.6z M769.1,275.1c-0.2,1.1-1.4,1.2-2.2,1.2c-3,0.2-5.9-0.7-8.7-1.6c-12.3-3.9-23.9-2.7-34.9,4.3
		c-6.5,4.1-13.5,6.9-21.1,8.6c-8.1,1.8-16.4,1.8-24.6,2.7c-3.9,0.4-7.6,1.3-11.2,3.1c-14.5,7.2-28.9,14.6-43.9,20.9
		c-1.7,0.7-3.8,1.5-4.4,3.3c-0.6,1.6-1.4,2.9-2.5,4c0.3-0.5,0.4-1.1,0.2-1.9c0-0.1-0.1-0.2-0.1-0.2c0-0.1-0.1-0.1-0.1-0.2
		c-0.8-1.3-2.6-0.9-4.2-0.5c-0.5,0.1-1,0.3-1.5,0.4c-4.9,0.9-9.8,1.2-13.6-2.6c-7.7-7.6-10.2-17-8.4-27.4
		c1.6-9.8,8.8-14.1,17.4-16.8c2.3-0.7,4.7-1.4,7.1-2.1c8-2.3,16-4.5,24-6.6c10.3-2.7,20.5-5.6,30.4-9.2c8.7-3.3,16.7-8.5,24.4-13.8
		c23.7-16.3,50.5-21.1,78.5-21.1c3.4,0,6.9-0.2,10.3,0.5c1.2,0.2,2.8,0.3,2.9,1.9c0.1,1.4-1.2,2.1-2.3,2.7c-3,1.6-6.3,2.2-9.5,1.8
		c-7.6-0.9-14.5,1.3-21.3,4.2c-2.9,1.2-5.9,1.9-9,2.6c-2.8,0.7-5.3,2-6.4,4.9c-2,5.2-6.2,7.1-11.2,8.1c-3.5,0.7-7.1,0.9-10.7,0.2
		c-1.8-0.3-3.6,0-4.1,2.1c-0.6,2.3,0.8,3.5,2.7,4.2c2.4,1,4.9,0.7,7.4,0.6c6.6-0.1,12.9-2.1,19.4-2.4c2.6-0.1,5.1,0.5,6.1,3.4
		c0.9,2.9-0.9,4.7-3,6.2c-4.2,3-9,4.2-14.1,4.3c-7.2,0.1-13.3,2.5-18.8,7.1c-5.4,4.5-11.8,6.8-18.9,7.4c-5.2,0.4-10.2,0.3-15.3-0.7
		c-1.6-0.3-3.2,0-3.8,1.8c-0.6,2,1,2.7,2.3,3.5c1.5,0.8,3.1,1.4,4.8,1.7c14.6,2.6,28.9,1.3,41.3-7c6.4-4.3,12.6-8.1,20.2-9.4
		c2.4-0.4,4.4-2.8,6.9-2.5c7.8,0.9,15.3,2.7,22.1,6.8C768.5,273.7,769.3,274.2,769.1,275.1z"/>
	<path class="st341" d="M734.5,573.2c-3.6-44.1-7.3-88.2-10.9-132.3c-0.5-6.2-2.6-11.5-7.1-15.7c-1.2-1.1-1.8-2.3-2-4
		c-0.9-7.9-5.3-13.4-12.4-16.8c-8.1-4-16.8-3.9-25.6-3.6c-13.4,0.4-26.8,0.9-40.1,1.1c-20.5,0.3-41.1,0.4-61.6,0.6
		c-14.6,0.1-29.2,0-43.8,0.3c-6.3,0.1-12.7-0.3-19,1.1c-9.6,2.1-14.3,7.5-14.4,17.2c-0.1,15.3,2.2,30.4,2.2,45.7c0,0.8,0,1.4,0,1.9
		c-0.1,3.4-0.7,3.2-4.9,1.2c-7.1-3.5-13.3-8.4-18.5-14.1c-9.8-10.6-21.8-14.4-35.8-13.2c-8,0.7-15.8-0.6-23.2-3.8
		c-10.9-4.7-21.2-10.5-31.3-16.6c-4.6-2.8-8.7-5.8-11.5-10.1c-1,1.7-2.6,2.7-4.1,3c15.4,12,32.2,21.9,50.5,29.1
		c6.6,2.6,13.4,2.7,20.3,2c12.6-1.2,23.4,2.5,32.2,11.6c7.3,7.5,15.8,13.1,25.1,17.6c2.8,1.3,6.5,2.6,5.8,6.4
		c-0.6,3.5-4.1,4.8-7.4,5.5c-9.3,1.9-17.5-1.6-25.4-5.7c-3.9-2-7.7-4.2-11.8-5.4c-2.8-0.8-5.6-1.9-8.6-1.3c-0.6,1.5,0.6,1.7,1.3,2
		c3.5,1.4,5.4,4,6.6,7.4c6.2,17.5,17.1,30.4,35.1,36.7c6.6,2.3,12.9,5.4,19.2,8.3c1.8,0.8,3.4,2.2,4.9,3.5c1.6,1.4,2.4,3.3,1.6,5.5
		c-0.8,2.2-2.7,3-4.8,3.1c-4.2,0.3-8.4-0.4-12.5-1.2c-18.5-3.8-35.4-10.9-51-22c-7.9-5.6-15.7-11.6-24-16.7c-3.1-1.9-5.1-5.2-8.4-7
		c1.1,3,2.6,5.7,5.6,7.3c0.8,0.4,1.5,1.2,1,2.3c21.6,19.1,45.9,33,74.4,38.9c3.1,0.6,4.9,1.7,5.3,4.4c0.1,0.5,0.1,1,0.1,1.5
		c0,4.8,0.4,9.7,1,14.4c1.3,9.8,5.9,17.3,15.5,20.9c1.2,0.4,2.2,1,3.1,2c3.8,4.7,9.1,6.4,14.8,6.8c4.3,0.3,8.7,0,13.1,0
		c32.2,0.1,64.3,0.2,96.5,0.2c22.1,0,44.2,0.2,66.2-0.2C726.8,592.9,735.5,585.4,734.5,573.2z M503.2,517.7c-0.1,2.3-0.3,3-2.8,2.1
		c-13.2-4.4-24.3-11.6-32.1-23.4c-2.8-4.2-4.9-8.6-4.8-14.6c4.4,2.1,8.1,3.7,11.7,5.5c7.3,3.6,14.9,5.1,23,3.2
		c2-0.5,3.5-0.3,3.7,2.1c0,0.1,0,0.2,0,0.4c0.4,8.1,1.6,16.2,1.3,24.4C503.2,517.5,503.2,517.6,503.2,517.7z M705.2,580.6
		c-9.8,0.3-19.6,0.2-29.4,0.2c-32.9,0-65.7,0-98.6-0.2c-15.9-0.1-31.8-0.1-47.6,0.4c-10.1,0.3-18.2-7.6-19.3-18
		c-0.5-5-0.6-10-1-14.9c0,0,0-0.1,0-0.1c0-0.4,0-0.8,0-1.1c0-0.3,0.1-0.7,0.2-0.9c0-0.1,0.1-0.1,0.1-0.2c0.1-0.1,0.2-0.2,0.2-0.3
		c0.1-0.1,0.1-0.1,0.2-0.1c0.1-0.1,0.2-0.2,0.3-0.2c0.1-0.1,0.3-0.1,0.4-0.2c0,0,0,0,0,0c0.2-0.1,0.4-0.1,0.7-0.1c0.2,0,0.5,0,0.8,0
		c0.9,0.1,1.9-0.1,2.8-0.1c3.7-0.1,7.1-1,8.2-4.8c1.2-3.9-0.2-7.5-3.5-9.9c-2.7-2-5.7-3.8-8.8-5.2c-2.3-1-3.3-2.3-3.4-4.8
		c0-0.2,0-0.3,0-0.5c-0.1-1.2-0.2-2.4-0.3-3.6c0-0.3,0-0.5-0.1-0.8c0-0.5-0.1-1-0.1-1.5c0-0.5-0.1-1-0.1-1.5
		c-0.1-1.2-0.2-2.5-0.4-3.7c-0.1-1.2-0.2-2.3-0.3-3.5c0-0.1,0-0.1,0-0.2c-0.1-1.5-0.2-2.9-0.3-4.3c-0.1-1-0.1-2-0.1-3
		c0-1.1,0-2.2,0-3.3c0-0.6,0.1-1.3,0.1-1.9c0-0.5,0.1-0.9,0.1-1.4c0-0.1,0-0.1,0-0.2c0.6-6.5-0.6-12.1-1.5-18.2
		c-0.1-0.4-0.1-0.8-0.2-1.3c0-0.2-0.1-0.5-0.1-0.7c-0.1-0.4-0.1-0.8-0.1-1.3c0-0.1,0-0.2,0-0.3c-0.1-0.8-0.2-1.6-0.3-2.4
		c-0.1-0.8-0.2-1.5-0.2-2.3c-0.1-0.5-0.1-1.1-0.1-1.7c-0.1-0.8-0.1-1.5-0.2-2.2c0-0.1,0-0.3,0-0.4c-0.1-0.8-0.1-1.6-0.2-2.4
		c-0.1-0.9-0.1-1.9-0.2-2.8c0-0.7-0.1-1.4-0.1-2.1c-0.1-1.4-0.2-2.9-0.2-4.4c-0.1-1.9-0.2-3.9-0.3-5.8c0-0.2,0-0.4,0-0.6
		c-0.2-3.9-0.3-7.8-0.4-11.7c-0.1-2-0.2-4.1-0.2-6.1c-0.4-9.4,3.8-14.8,13-16.4c11.7-2,23.6-1.2,35.4-1.3c29.4-0.5,58.9-0.7,88.3-1
		c15.9-0.2,31.8-0.6,47.7-0.5c15.9,0.1,23.2,7.3,24.5,23.2c1.9,22.4,3.7,44.7,5.5,67.1c1.9,22.5,3.7,45,5.6,67.6
		C722.3,572.5,715.7,580.2,705.2,580.6z"/>
	<path class="st341" d="M588.3,296.1c0.5,7.3,3,13.3,7.6,18.4c3.6,3.9,6.4,4.1,8.2,4c0.6-0.1,1.3-0.2,2-0.4c0.4-0.1,0.8-0.2,1.2-0.2
		c1-0.1,2.1,0.1,3,0.5c0.3,0.1,0.7,0.3,1,0.5c1.8,1,3,2.2,3.6,3.4c0,0,0,0,0,0.1c0.2,0.4,0.4,0.8,0.6,1.2c0.4,1,0.7,2.5,0.4,4.2
		c-0.1,0.9-0.4,1.8-0.9,2.8c-0.5,1-1.2,1.9-2.1,2.5c-7.9,5.5-16.8,6.9-24.7,8.1l-1.8,0.3c-1.9,0.3-3.4,0.8-4.7,1.6
		c-9.3,5.3-19.6,8.3-31.6,9.3c-3,0.2-6.2,0.4-9.5,0.4c-4.4,0-8.8-0.1-13.1-0.3c-32.2-1.5-63.5-8-93.2-19.4c-0.4-0.2-1-0.3-1.6-0.5
		c-3-0.9-10.1-3-10.1-10.1c0-0.8,0.1-1.6,0.3-2.3c-0.3-0.1-0.5-0.3-0.8-0.4c-2.6,4.8-5.2,9.5-8,14.2c0,0,0,0,0,0
		c-0.5,0.9-1.1,1.9-1.7,2.8c-6.6,11.1-13.8,22-21.4,32.5c-6.4,8.9-14.1,17.3-22.7,24.8c-0.1,0.1-0.2,0.2-0.4,0.3
		c0.3,0.3,0.5,0.6,0.8,0.9c1.9,2.3,3.4,4.7,4.8,6.9c0.4,0.6,0.8,1.3,1.2,1.9c0.6,1,1,2.2,1,3.4c0,0.5,0.1,1.5-0.2,2.6
		c-0.2,0.9-0.6,1.7-1,2.3c-1,1.7-2.6,2.7-4,3c-0.4,0.1-0.8,0.2-1.2,0.2c-0.2,0-0.5,0-0.8,0c-1.6,0-3.6-0.6-5.3-2.8
		c-0.6-0.7-1.2-1.3-1.9-1.8c0,0,0,0,0,0c-4.7-4-10.4-5.9-16.4-5.4c-7.4,0.6-14.6,4.7-20.3,11.4c-5.5,6.6-8.2,14.5-7.9,23.7
		c0.3,9.5,7.9,13.6,14.7,15.4c2,0.5,3.8,0.8,5.5,1c2.3,0.3,4.2,1.7,5.1,3.7c0.2,0.5,0.4,1,0.5,1.5c0,0.2,0.1,0.4,0.1,0.7
		c0.3,3.1-1.6,5.9-4.6,6.9c-3.9,1.2-7.5,1.9-11,2.2c-4.5,0.4-8.8,0-13.1-1c-16-3.8-28.3-14.1-33.6-27.1c-0.6,0.2-1.3,0.3-2.1,0.4
		c-2.7,0.2-5.1-1-7.8-2.4c-13.7-7.1-23-18-27.8-32.4c-1.2-3.6-2.2-7.1-3.2-10.7c-2.2-0.1-4.3-1.3-5.5-3.3c-0.5-0.9-1-1.8-1.6-2.7
		c-1.2-2-2.4-4.1-3.6-6.2c-5.4-10.2-11.4-22-16.9-35.1c-0.1,0.4-0.3,0.8-0.5,1.3c-0.3,0.7-0.8,1.5-1.5,2.2c4.5,3.6,7.6,8.8,9.8,15.9
		c6,19.8,15.4,39,24.5,57.5l0.9,1.9c3.1,6.3,7.8,11.8,13.9,16.3c1.4,1,5.1,3.8,4.8,8.4c-0.3,4.6-4.4,6.9-5.7,7.6
		c-4.3,2.4-8.6,4.5-12.8,6.4c9.8-1.3,19.7-3,29.7-4.7c0.2,0,0.4-0.1,0.6-0.1c2.5-0.2,4.9,1,6.2,3.2c1.4,2.4,1.2,5.3-0.6,7.4
		c-5.6,6.9-12.2,12.5-20.3,17c-13.8,7.8-28.1,12.3-42.5,13.5c-17.7,1.5-35.8-2.1-53.9-10.5c-29.1-13.6-55.5-34-78.5-60.7
		c-7.9-9.2-7.1-13.9-0.8-22.6c10.4-14.3,18.8-30.4,27-45.9c2.1-4.1,4.4-8.3,6.6-12.4c3.6-6.7,7.2-13.7,10.6-20.4
		c8.4-16.3,17-33.2,27.4-48.9c10-15.1,20.6-30.7,32.6-45.6c0,0,0,0,0,0c2.5-3.1,5-6.1,7.6-9.1c0.1-0.1,0.2-0.3,0.3-0.4
		c4.3-4.9,8.8-9.8,13.5-14.4c2.3-2.3,4.8-4.5,7.3-6.5c-0.3-0.3-0.7-0.6-1.1-1c-2.6-2.7-5.3-7.8-2.2-16.2c7.1-19.5,16.8-33,30.5-42.3
		c7.1-4.9,14.9-6.1,21.7-6.6c1.3-0.1,2.6-0.2,4-0.3c22.1-1.2,43.1,2.1,65.3,5.7l3,0.5l0.1,0c2.2,0.4,4,1.8,4.9,3.8
		c0.9,2,0.7,4.3-0.4,6.2c-3.1,4.9-7.7,7.6-13.5,8.1c-1.4,0.1-2.9,0.1-4.6,0c-1.7-0.1-3.5-0.3-5.2-0.5c-4.6-0.4-8.9-0.8-13.2-0.7
		c-0.1,0-0.3,0-0.4,0c0.5,0.2,0.9,0.5,1.4,0.7c10.4,4.4,19.5,10.8,27.6,19.5c0.9,0.9,1.7,1.9,2.6,2.9c4.5,5.2,8.7,11.2,12.5,17.9
		c4.1,7,8,14.3,11.8,21.2c1.7,3.2,3.4,6.3,5.1,9.4c0.1,0.2,0.2,0.4,0.3,0.6c3.2,7.7,7.2,15.4,11.1,22.9c0,0,0,0,0,0
		c0.2,0.3,0.4,0.7,0.5,1l1.1-0.9l6.2-4.6c4.1-3,7.5-5.9,10.4-8.7c0.8-0.8,1.5-1.5,2.2-2.3c2.2-2.4,4.1-4.9,5.7-7.4
		c2.4-3.7,3.1-7.1,2.2-10.5c-0.9-3.5-0.2-7,1.7-9.8c1.8-2.5,4.6-4.1,7.6-4.3c0.2,0,0.5,0,0.7,0c1.7,0,3.3,0.3,5,1.1
		c4.2,1.9,8.5,3.4,13,4.9c0,0,0,0,0,0c0.8,0.3,1.6,0.5,2.5,0.8c2.2,0.7,4.5,1.5,6.7,2.3c5.5,2,11.1,4.2,16.5,7.3
		c16.8,9.6,32.1,18.1,48.7,24.4c12.4,4.7,25.1,7.6,35.8,9.7c0.6,0.1,1.3,0.2,2.1,0.3c3,0.4,8,1.2,11.6,4.9c0.2,0.1,0.3,0.3,0.4,0.5
		c0.2-0.1,0.3-0.2,0.5-0.3c6.4-3.7,13.6-5.8,22.3-6.5c6.2-0.5,12.5-0.3,18.6,0c1.5,0.1,3,0.1,4.4,0.2c1.9,0.1,3.5,0.9,4.7,2.2
		c0.9,1,1.4,2.2,1.6,3.5c0.1,1,0,1.9-0.3,2.8c-0.6,2-2.2,3.6-4.3,4.3c-0.3,0.1-0.6,0.2-1,0.3c-1.1,0.4-2.4,0.8-4,1
		C593.1,277.1,587.6,284.7,588.3,296.1z"/>
	<path class="st46" d="M362.6,239.2c3.9,9.5,8.8,18.5,13.5,27.6c2.1,4.1,6.6,4.7,10.6,4.8c5.2,0.2,6.2,2.3,5.7,7.1
		c-1.7,16.8-5,33.2-9.3,49.4c-0.8,3-3.2,6.3,2.3,7.5c6,1.4,6.6,1.2,8-4.6c4.7-18.7,8.9-37.5,9.7-56.9c0.1-2.1,1.2-3,2.7-3.9
		c14-8.1,19.4-21.6,22.5-36.5c0.3-1.3,0.3-2.7-1.2-3.1c-1.9-0.5-2.4,1.2-2.7,2.5c-1.4,6.2-3.1,12.4-6.4,17.9
		c-3.8,6.5-8.5,12-15.8,14.6c-2.6,0.9-2.5,2.8-2.6,4.8c-1.3,19.2-4.5,38-9.4,56.5c-0.2,0.9-0.4,1.8-0.7,2.7
		c-0.3,0.8-0.5,2.1-1.8,1.6c-1-0.4-0.8-1.6-0.6-2.5c0.4-2,0.8-4,1.3-5.9c4.2-16.3,7-32.9,7.9-49.7c0.3-6,0.3-6-5.8-5.9
		c-2.3,0-4.7-0.2-8-0.4c3.5-2.6,6.2-4.6,9-6.7c7.7-5.7,14.7-12,19.9-20.1c3-4.8,4.5-9.9,3.1-15.6c-1-4,2.1-7.3,6-5.5
		c12.5,5.7,26.1,8.2,38.1,15c16.1,9.2,32.2,18.3,49.6,24.8c12,4.5,24.3,7.5,36.9,10c4.6,0.9,10.2,0.5,12.3,6.7
		c0.6,1.8,2.6,0.8,3.6,0.1c13.7-9.9,29.5-8.1,45.1-7.6c-1.3,0.4-2.6,1-3.9,1.1c-13.1,1.7-21.4,12.1-20.4,27.2
		c0.5,8.5,3.5,16.1,9.3,22.4c4.5,4.9,10,7.3,16.8,5.5c1.5,0.6,2.2,1.6,1.4,3.1c-7.2,5-15.6,6-23.8,7.3c-2.5,0.4-4.7,1.1-7,2.3
		c-11.7,6.7-24.5,8.8-37.8,8.8c-35.9-0.1-70.6-6.4-104.1-19.3c-2.8-1.1-7.5-1.6-7.5-4.5c0-3.4,4.8-3.7,7.8-4.7
		c9.2-3.2,17.6-7.7,25.4-13.6c1.1-0.8,2.1-1.8,3.1-2.8c0.7-0.7,0.9-1.7,0.1-2.5c-0.7-0.8-1.6-1-2.5-0.4c-1,0.7-2.1,1.3-3.1,2.1
		c-8,6.2-16.9,10.4-26.6,13.1c-0.4,0.1-0.9,0.3-1.3,0.4c-2.5,0.4-5.5,1.4-7.1-0.4c-1.3-1.5,0.9-3.9,1.8-5.8
		c5.7-11.6,10.6-23.5,15.6-35.5c0.1-0.3,0.2-0.6,0.3-0.9c0.8-1.6,1.5-3.5-0.7-4.4c-2.2-0.8-2.8,1.3-3.5,2.8c-2.7,6-5.3,11.9-8,17.9
		c-12.2,27.4-27.2,53.2-44.7,77.5c-6.3,8.7-13.6,16.6-21.7,23.7c-1.9,1.7-3.3,2-6,1c-10.3-4.1-14.4-12.5-16.3-22.3
		c-1.8-9.3-4.6-17.8-12.2-24c-2.4-2-2.4-4.9-2.9-7.7c-2.7-17.1-4.1-34.4-8-51.2c-3.7-15.7-8-31-18.7-43.7
		c-7.9-9.3-17.9-15.3-29.3-19.2c-1.2-0.4-2.7-1.1-3.4,0.2c-0.7,1.3,0.7,1.9,1.7,2.2c25.5,9.2,37,29.6,43.1,54.1
		c4.2,16.8,7,33.9,8.4,51.1c0.1,1.3,1.1,3.1-0.6,3.7c-0.8,0.3-2.3-0.6-3.3-1.2c-5-3-9.2-6.9-13.3-11c-1.1-1-2.2-3-3.8-1.6
		c-1.6,1.4,0.1,2.8,1.1,3.9c3.1,3.5,6.8,6.4,10.4,9.3c6.6,5.3,13.1,10.6,18.1,17.5c2.3,3.2,4.3,6.5,5,10.4c0.2,1.2,0.8,2.6-0.2,3.6
		c-1.2,1.1-2.3-0.2-3.4-0.6c-1.2-0.4-2.2-1.2-3.3-1.8c-15.2-7.9-30.3-6.9-45.1,1.2c-0.8,0.4-1.6,0.9-2.4,1.5c-1,0.8-2.1,1.7-1.1,3.1
		c0.8,1.1,2,0.3,3-0.2c6.6-3.2,13.4-5.6,20.9-6.2c14.2-1,25.4,4.8,35,14.5c1.3,1.3,3.1,3,2.2,4.8c-0.9,1.6-3.2,0.6-4.8,0.4
		c-5-0.6-10-0.2-14.9,0.5c-1.4,0.2-3.3,0.2-3,2.1c0.3,1.7,2.1,0.9,3.2,0.8c14.8-1.6,27.5,3.8,39.6,11.4c4.6,2.9,6.9,7.5,9.6,11.8
		c0,0.3,0.1,0.6,0,0.9c-0.3,1.3-0.7,0.4-1.1,0c-13.3-14.3-34.6-12.3-48.6,4.3c-6.8,8-9.8,17.7-9.4,28.2c0.4,12.4,9.8,20.7,26,22.6
		c-7.5,2.3-14,2.7-20.7,1.1c-18.7-4.5-32-19.2-31.6-36.2c0.4-16.6,7.7-29.9,22-39c1.6-1,5.2-1.7,4-3.9c-1-1.8-4,0.2-5.7,1.3
		c-16.9,10.7-25.1,26.2-25.3,46.1c0,5.7-0.2,5.9-5.4,3.2c-12-6.2-20.3-15.7-24.6-28.6c-4.7-14.3-7.2-29.4-13-43.4
		c-7.1-17.2-9.5-35.4-13.5-53.3c-0.4-1.7-1-3.3-1.5-4.9c-0.3-1-0.7-2.4-2.1-2c-1.5,0.4-0.8,1.8-0.6,2.8c1.8,9.2,3.8,18.3,5.4,27.5
		c3.3,18.2,11.7,34.8,15.6,52.8c0.4,1.7,0.8,3.3,0.5,5.4c-1.7-2.9-3.5-5.7-5-8.7c-13.3-25.1-24.9-50.9-31-78.8
		c-3.5-15.8-4.5-31.8,0.8-47.5c0.1-0.4-0.1-0.9-0.2-2.1c-4.8,8.6-6.9,17.3-7.8,26.3c-1.6,14.9,0.4,29.5,3.2,44.1
		c0.5,2.5,2.6,6.2-0.3,7.6c-2.7,1.4-4.8-2.2-6.6-4.1c-4.9-5-8.9-10.8-12.9-16.6c-0.9-1.3-1.3-3.3-3.5-3.5c-0.8,2.1,0.7,3.6,1.6,5.1
		c5.6,10,12.9,18.6,21.5,26.3c2,1.8,3.9,3.6,5.3,5.9c1.9,3.2,1.2,5-2.5,5.6c-5.7,0.9-11.2-0.3-16.5-2.1c-3.8-1.3-7.6-2.8-11.4-4.1
		c-1.3-0.5-2.7-1.7-4.6-0.1c7.8,5.4,16.3,9.1,25.2,10.3c10.6,1.5,15.5,6.8,18.5,16.9c6.3,21,16.2,40.7,25.9,60.4
		c3.7,7.5,9.2,13.7,15.9,18.7c2.7,2,3.1,3.2-0.2,5c-30.4,17-61.4,19.8-93.3,4.1c-2.4-1.2-4.5-3.2-8.1-3c0.9,2.6,3,3.3,4.7,4.4
		c19.1,12.4,40.2,16.7,62.8,15.4c18.2-1,36.2-4,55-7.2c-5.4,6.7-11.6,11.6-18.4,15.5c-29.6,16.7-60,16.9-90.4,2.7
		c-29.8-13.9-54.9-34.2-76.3-59c-5.5-6.4-5.3-7.7-0.4-14.5c13.4-18.5,23.2-39,34-59c12.4-23,23.3-46.9,37.8-68.7
		c16-24.2,32.6-48.1,53.2-68.6c25.7-25.5,62.5-26.6,90.5-3.6c10.7,8.8,19.2,19.6,27,30.8c4.9,7.1,10,14,18,17.9
		c2.9,1.5,2,4.1,1.8,6.2c-1.7,18.3-4.6,36.4-10,54.1c-1,3.4-1.6,6,2.9,7.1c5.9,1.5,6.9,1.1,8.2-3.9c4.7-18,8.2-36.1,9.4-54.7
		c0.2-3.3,1.2-3.8,4.2-3.6c2.2,0.2,5.9,2.3,6.5-0.9c0.4-2.3-3.7-2-5.8-2.5c-7.7-1.9-7.8-1.9-8.4,6.3c-1.4,17.1-4.5,33.9-8.9,50.5
		c-0.3,1.2-0.7,2.4-1.1,3.6c-0.2,0.6-0.6,1.1-1.3,1.1c-1-0.1-1.2-0.9-1.1-1.7c0.2-1.7,0.5-3.4,0.9-5c3.9-15.9,6.8-32,8.3-48.3
		c0.1-1.2,0.1-2.5,0.2-3.7c0.4-4.5-0.6-7.8-5.5-9.7c-5-1.9-8.3-6.4-11.4-10.7c-9.3-13.3-18.7-26.6-31.8-36.5
		c-23.6-17.8-49-22.6-76.8-10.4c-2.7,1.2-5.6,3.9-8.6,1.6c-3.3-2.6-2.7-6.7-1.5-10c5.7-15.6,14-29.6,28.1-39.2
		c6.6-4.5,14.5-5.3,22.3-5.8c22.4-1.3,44.4,2.5,67,6.1c-3.1,4.9-7.4,5.4-12,5.1c-6.4-0.5-12.7-1.4-19.1-1.2
		c-1.7,0.1-3.4,0.1-5.1,0.4c-2.6,0.5-5.6,0.5-6.3,3.8c-0.6,3.2,2,4.6,4.3,6c1.9,1.1,3.8,2.2,5.8,3c17.9,7.6,30.2,21.1,39.6,37.5
		C351.6,218.7,357,229,362.6,239.2z"/>
	<path class="st127" d="M481.2,149.4c-1.9,3.4-2.1,7.3-1.7,10.9c1.8,16.6-6.6,28.6-17.2,39.7c-3.5,3.7-7.3,7.2-11,10.8
		c-7.7,7.6-15.5,9.3-25.5,4.9c-12.6-5.6-24.2-12.7-33.2-23.7c-2.2,9.6,4.9,24.2,15,30.6c-6.8,4.7-7.7,11.7-7.2,19
		c0.2,3.3-0.9,6-3.4,8.3c-4.6,4.2-9.4,8.1-14.9,11.2c-2.4,1.4-3.5,0.9-4.7-1.4c-4-8-8.1-15.9-12.1-23.9c-4.4-11.5-10.7-22-17.1-32.5
		c-3.3-5.4-7.2-10.5-11-15.6c-1.4-1.9-2.1-3.1,0.8-4.4c7.1-3.5,13.8-7.7,20.2-14.3c-0.9,5.1-4.1,7.4-6.1,10.8
		c3.3,0.6,5.7-0.7,7.8-2.4c2.2-1.7,4.4-3.6,6.2-5.7c2.9-3.4,5.2-7.2,10.8-5.8c1.6,0.4,4.1-0.9,3.8-3.2c-0.3-2.2-2.6-1-3.9-0.9
		c-7.7,0.4-15.8-6-19.3-15.7c-1.1-2.9-1.7-6-1.6-9.1c0.5-9.1,5.4-15.7,12.3-16.5c8.3-1,17.3,4.5,19.8,12.5c1.1,3.5,2.5,5.3,6.5,4.9
		c2.6-0.3,4.1-1.1,4.5-3.7c1.2-9.7,7-15.9,15.6-20.1c-1.9,2.6-3.8,5.1-5.8,7.7c14.2-3,25.4-10.4,34.7-21.3
		c-1.8,7.5-3.6,14.9-10.9,19.3c-1.2,0.7-2.4,1.4-3.5,2.3c-0.8,0.6-1.1,1.5-0.6,2.5c0.6,1,1.5,1.1,2.4,0.6c6-3.7,12-3.8,18,0.1
		c1,0.6,2.2,0.6,2.9-0.5c0.8-1.2,0.4-2.5-0.5-3.4c-1.7-1.8-4-2.8-7.2-3.5c9.6-7.1,16.9-15.3,21.4-25.5c13.1,7.2,21.3,25,18.7,40.8
		c-2.7-0.4-5.1-2.2-8-2.1c-1.4,0-3.1-0.2-3.3,1.6c-0.2,1.4,0.9,2.2,2.3,2.5c0.2,0,0.3,0.1,0.5,0.1c8.9,3.7,8.9,3.7,6,12.9
		C481.3,148.5,481.3,149,481.2,149.4z"/>
	<path class="st341" d="M526.1,540.4c-0.7,2.1-3.1,7-10.4,7.6c0,0-0.1,0-0.1,0c-2.2,0.2-4.3,0.1-6.4-0.1c-1.3-0.1-2.5-0.3-3.7-0.5
		c-1.4-0.2-2.8-0.5-4.2-0.8c-20-4.1-37.5-11.6-53.5-23.1c-2-1.4-3.9-2.8-5.9-4.3c-5.7-4.2-11.7-8.5-17.7-12.2
		c-2.2-1.3-3.8-2.9-5.2-4.3c-1.1-1.1-2.1-2.1-3-2.6c-0.1,0-0.1-0.1-0.2-0.1c-0.3-0.1-0.5-0.3-0.8-0.5c-13.6-9.2-27.2-15.7-41.7-20
		c-11.9-3.5-22.7-7.2-32.9-11.3c-0.1,0-0.2-0.1-0.3-0.1c-2.9-1.2-5.7-2.4-8.6-3.6c-0.4-0.2-0.7-0.3-1.1-0.5
		c-0.3-0.1-0.6-0.3-0.9-0.4c-0.1-0.1-0.2-0.1-0.3-0.2l0,0h0c-0.6-0.3-1.2-0.6-1.8-0.9c-0.7-0.4-1.3-0.7-2-1
		c-14.5-6.8-19.2-18.2-14.1-35.1c4.8-16,17.7-27.2,33-28.5c0.3,0,0.6-0.1,1-0.1c5.5-0.3,11.1,1,16.4,3.9c1.4,0.8,2.9,1.6,4.2,2.4
		c0,0,0.1,0,0.1,0.1c0.8,0.4,1.5,0.9,2.2,1.3c0,0,0.1,0,0.1,0l0,0c0.9,0.6,1.9,1.1,2.8,1.7c0.3,0.2,0.5,0.3,0.8,0.5l0.3,0.2
		c0.1,0.1,0.2,0.1,0.3,0.2c0.1,0.1,0.2,0.2,0.3,0.2c0.6,0.5,1.2,1,1.8,1.5c0.2,0.2,0.5,0.4,0.8,0.6c15.2,11.7,31.4,21,48.1,27.5
		c4.4,1.7,9.5,2.2,16.4,1.7l1.4-0.1c14.6-1.2,27.1,3.4,37,13.6c5.8,6,12.9,11.1,21.6,15.4c0.5,0.3,1.1,0.5,1.6,0.8
		c0.3,0.1,0.5,0.2,0.8,0.4c0.6,0.2,1.3,0.6,2.1,1c3.2,1.8,7.7,5.3,6.5,12c-0.6,3.2-2.2,5.8-4.9,7.7c-1.2,0.8-2.5,1.5-4,2
		c-0.2-2.4-1.7-2.6-3.7-2.1c-8.1,1.9-15.7,0.4-23-3.2c-3.6-1.8-7.2-3.4-11.7-5.5c-0.1,6,2,10.4,4.8,14.6c7.8,11.8,18.8,19,32.1,23.4
		c2.5,0.8,2.7,0.2,2.8-2.1c0-0.1,0-0.2,0-0.3c1.4,0.6,2.8,1.2,4.2,1.8c1.8,0.8,3.6,1.7,5.4,2.5c1.1,0.5,2.1,1,3.2,1.5
		c2.6,1.2,4.8,3,6.6,4.6C526.3,531.3,527.5,535.9,526.1,540.4z"/>
	<path class="st127" d="M519.9,538.3c-0.8,2.3-2.7,3-4.8,3.1c-4.2,0.3-8.4-0.4-12.5-1.2c-18.5-3.8-35.4-10.9-51-22
		c-7.9-5.6-15.7-11.6-24-16.7c-3.1-1.9-5.2-5.2-8.4-7c-0.2-0.1-0.4-0.2-0.5-0.3c-13.5-9.1-27.8-16.2-43.5-20.8
		c-11.1-3.2-22-6.9-32.7-11.2c-3.2-1.3-6.3-2.6-9.4-4c-1.7-0.8-3.3-1.7-5-2.5c-11.7-5.5-14.6-13.9-10.6-27.2
		c4.2-14.1,15.3-23.2,28-23.9c4.6-0.3,9,0.9,13,3.1c3.1,1.7,6.2,3.6,9.2,5.4c0.2,0.1,0.4,0.3,0.6,0.4c0.7,0.6,1.5,1.2,2.3,1.8
		c15.4,12,32.2,21.9,50.5,29.1c6.6,2.6,13.4,2.7,20.3,2c12.6-1.2,23.4,2.5,32.2,11.6c7.3,7.5,15.8,13.1,25.1,17.6
		c2.7,1.3,6.5,2.6,5.8,6.4c-0.6,3.5-4.1,4.8-7.4,5.5c-9.3,1.9-17.5-1.6-25.4-5.7c-3.9-2-7.7-4.2-11.9-5.4c-2.8-0.8-5.6-1.9-8.6-1.3
		c-0.6,1.5,0.6,1.7,1.3,2c3.4,1.4,5.4,4,6.6,7.4c6.2,17.5,17.1,30.3,35.1,36.6c6.6,2.3,12.9,5.4,19.2,8.3c1.8,0.8,3.4,2.2,4.9,3.5
		C519.8,534.2,520.6,536.1,519.9,538.3z"/>
	<path class="st46" d="M721.5,562.4c0.8,10.1-5.7,17.8-16.3,18.1c-9.8,0.3-19.6,0.2-29.4,0.2c-32.9,0-65.7,0-98.6-0.2
		c-15.9-0.1-31.8,0-47.6,0.4c-10.1,0.3-18.2-7.6-19.3-18c-0.5-5-0.6-10-1-14.9c-0.2-2.4,0.4-3.5,2.9-3.3c0.9,0.1,1.9-0.1,2.8-0.1
		c3.7-0.1,7.1-1,8.2-4.8c1.2-3.9-0.3-7.5-3.5-9.9c-2.7-2-5.7-3.8-8.8-5.2c-2.3-1-3.3-2.3-3.4-4.8c-0.5-9.8-2.4-19.7-1.5-29.4
		c0.6-6.5-0.6-12.1-1.4-18.2c-2.1-16-2.3-32.3-3-48.5c-0.4-9.4,3.8-14.8,13-16.4c11.7-2,23.6-1.2,35.4-1.4c29.4-0.5,58.9-0.7,88.3-1
		c15.9-0.2,31.8-0.6,47.7-0.5c15.9,0.1,23.2,7.3,24.5,23.2c1.9,22.4,3.7,44.7,5.5,67.1C717.8,517.4,719.6,539.9,721.5,562.4z"/>
	<path class="st127" d="M609.3,327.6c-0.5-1-0.9-2.1-1.4-3.1c2.6-1.4,5.8-1.8,8-5.2c-3,0.7-5.4,1.3-7.8,1.7
		c-6.5,1.3-11.5-1.1-15.5-6.2c-5.4-6.9-7.3-14.8-6.6-23.2c0.7-9,5.2-15.4,13.9-18.6c14.3-5.3,29.1-9,43.9-12.8
		c16.6-4.3,32.3-10.6,46.2-20.6c15.7-11.3,33.7-16.1,52.4-19.6c12.7-2.4,25.4-1.9,38.1-1.4c1.9,0.1,4,0.2,4.5,2.5
		c0.5,2.4-1.3,3.7-3.1,4.7c-4.1,2.3-8.8,2.4-13.2,2.1c-5.2-0.4-9.9,0.6-14.5,2.5c-2.3,0.9-4.6,2-7,2.6c-6,1.5-10.7,3.3-14.3,9.7
		c-3.9,6.9-12.7,5.8-20,5.3c-1.4-0.1-3.3-1.6-3.9,0.7c-0.6,2.5,1.6,3,3.5,3.2c6,0.8,11.8-0.5,17.6-1.3c2.9-0.4,5.9-1,8.8-1.1
		c2.9-0.1,5.7,0.9,6.8,3.9c1.2,3.2-0.4,5.8-2.9,7.7c-5.4,4.2-11.9,5.4-18.5,5.6c-5.6,0.2-10.2,2-14.5,5.5
		c-10.4,8.5-22.2,10.5-35.2,7.8c-1.3-0.3-3.4-1.8-4.1,0.4c-0.7,2.2,1.7,2.5,3.2,2.9c16.4,4.3,32.3,2.8,45.8-7.3
		c5.5-4.1,10.6-6.7,17-7.7c0.5-0.1,1-0.1,1.4-0.3c12.2-6.7,22,0.9,32.4,5.3c1.1,0.5,2.2,1.4,1.7,2.9c-0.4,1.2-1.5,1.4-2.6,1.7
		c-3.8,0.7-7.4-0.2-11-1.4c-12.4-4.2-24-3.3-35.1,4.3c-8.4,5.8-18,8.4-28,9.5c-0.5,0.1-0.9,0.1-1.4,0.1
		c-15.4-0.3-29.2,4.4-42.5,11.9c-9.4,5.3-19.6,9.4-29.5,13.9c-1.9,0.9-3.2,1.7-3.9,4C616.9,324.1,612.8,325.7,609.3,327.6z"/>
	<path class="st82" d="M737.6,245.3c0.2-5,2.5-7.6,7.6-7.8c2-0.1,4-0.6,5.9-1.4c11.3-4.6,22.2-2.7,33.1,1.3c4.5,1.6,9.1,3.2,13.5,5
		c1.6,0.6,3.2,1.7,2.9,3.7c-0.3,2-2.1,2.6-3.8,3c-3.9,0.8-7.8,0.3-11.5-0.7c-10.5-2.6-20.9-4.5-31.7-1.5
		C748.2,248.5,742.9,246.3,737.6,245.3z"/>
	<path class="st81" d="M758.1,251.3c4.2-1.1,8.7,0.8,12.9,3.6c5.3,3.5,10.7,6.9,15.9,10.5c1.4,0.9,3,2.2,2.3,4.2
		c-0.8,2.1-3,1.9-4.8,1.7c-4.7-0.6-8.9-2.7-13-4.9c-5.4-2.8-10.7-5.4-17.1-5c-1.5,0.1-5.2,1.4-4.6-2.3c0.4-3-2-8.7,5-7.6
		C755.4,251.6,756.2,251.4,758.1,251.3z"/>
	<g>
		<path class="st102" d="M605.3,115.3c-4.2-1-5.9-3.7-6.3-8c-2-24.7-4.1-49.3-6.2-74c-0.7-8,2.3-12.4,9.6-15.6
			c9.2-4,19.1-6.4,27.8-11.9c2.8-1.7,6.4-0.8,9.7-1c9.9-0.4,19.9-0.4,29.8-0.9c15.4-0.7,30.7-2,46.1-2.5c9.2-0.3,18.3-1,27.5-1.4
			c9.7-0.5,16.8,5.6,17.7,15.3c0.6,6.7,1.1,13.3,1.7,20c0.3,3.6,0.2,7.2-2.4,10.1c-0.5,0.5-1.4,1.5-0.6,1.9
			c6.4,3.2,3.9,9.7,4.8,14.6c1.4,6.8,1.2,13.9,1.9,20.8c0.7,6.1-3.5,9.5-8.2,12.4c-0.5,1.8-2,2.7-3.5,3.6c-4.7,2.8-9.1,6-13.6,9.1
			c-5.7,3.9-12.1,5.6-18.9,5.5c-6.8-0.1-13.7,0.4-20.5,0.7c-16.6,0.7-33.2,1.3-49.9,1.9c-13.2,0.5-26.4,0.8-39.6,1.4
			C609.8,117.4,607.4,116.9,605.3,115.3z"/>
		<path class="st341" d="M764.5,94.9c2.6-0.2,2.6,1.6,2.8,3.3c0.9,11.5,1.8,23,2.8,34.5c0.4,5.4-2.6,8.8-6.6,11.5
			c-7.4,4.9-14.9,9.7-22.4,14.4c-4.9,3.1-10.1,4.7-16.3,4.5c-11-0.3-22.1,0.3-33.1,0.6c-25,0.7-50,1.5-75.1,2.2
			c-7.9,0.2-12.5-3.5-13.6-11.8c-1.3-10.5-2-21.1-2.7-31.7c-0.3-4.4,1.5-5.6,5.2-4.1c1.7,8.9,1.6,17.9,2.6,26.9
			c0.3,2.7,0.3,5.5,1.3,8.2c-0.5-7-1.1-14-1.6-21c-0.5-7.6,3.4-11.4,11.1-11.7c15.1-0.6,30.2-0.8,45.2-1.3c18.3-0.6,36.7-1.1,55-1.7
			c7.1-0.3,10.6,3,11.3,10.2c0.6,5.7,0.9,11.5,1.5,17.2c0.2,1.6-0.2,3.4,1.4,5.1c2.2-2.3,2.1-5.1,1.9-7.8
			c-0.5-7.1-1.1-14.3-1.8-21.4c-0.4-4.2,1-7.1,4.4-9.5C746.6,105.5,755,99.3,764.5,94.9z"/>
		<path class="st160" d="M764.5,94.9c-0.1,2.1-2,2.2-3.3,2.9c-8.3,4.9-16.2,10.5-24,16.1c-1.9,1.4-2.4,2.6-2.1,5
			c0.9,8,1.4,16.1,2,24.2c0.2,3.5-0.1,6.9-2.8,9.5c-0.6,0.6-1.3,1.5-2.4,1c-0.9-0.4-0.6-1.3-0.7-2.1c-0.7-7.8-1.3-15.5-2-23.3
			c-0.6-7-2.8-9.2-9.7-9c-33.9,1-67.9,2-101.8,3.1c-6.4,0.2-8.9,3.2-8.4,9.5c0.7,8.6,1.4,17.3,2.2,26.6c-3.3-2.2-4.6-4.7-4.8-7.7
			c-0.8-9.5-1.4-19-2.1-28.4c-0.1-1.5,0.2-2.8,0.9-4c0.3-1.9,0.3-1.9-2.6-2.4c0.9-0.3,1.6-0.5,2.3-0.7c8.1,1.1,16.2-0.1,24.2-0.3
			c31.5-0.9,63.1-2.1,94.6-3.2c6.2-0.2,11.8-1.9,17-5.7c5.5-4.1,11-8.2,17.2-11C760.4,95.1,762.5,95,764.5,94.9z"/>
		<path class="st160" d="M759.5,50.4c-6.9,4.4-13,9-19.7,12.5c-6.8,3.6-9.4,7.9-7.4,15.7c1.5,5.8,1.3,12.1,1.6,18.1
			c0.2,4.2-0.9,7.9-5.5,10c-0.7-8.5-1.4-16.5-2-24.6c-0.6-7.7-4.3-10.9-11.8-10.6c-32.7,1.2-65.4,2.4-98,3.6
			c-8.9,0.3-11.3,3.1-10.3,11.9c1,8.6,1,17.4,3,26.2c-3.3-0.5-5.3-2.3-5.8-5.6c-0.5-3.1-0.8-6.2-0.8-9.3c-0.2-21-5-41.4-6.6-62.2
			c-0.7-9.4,1-14.4,10.4-16.8c7.9-2.1,15.3-5.5,23.4-7.4c13.8-3.4,27.7-2.3,41.5-3.2c23.5-1.4,47-2.2,70.4-4
			c1.2-0.1,2.5-0.2,3.7-0.1c2.8,0.2,5.8,1.2,6.4,3.8c0.5,1.9-2.7,2.5-4.3,3.5c-5.7,3.4-11.5,6.8-17.4,10c-2.1,1.2-2.9,2.3-2.5,5.1
			c1.1,8.5,1.5,17.1,2.1,25.6c0.2,3.7-1.1,6.6-5.3,8.2c0.5-8.7-0.8-17-1.3-25.3c-0.5-8-4.5-11.3-12.5-11
			c-33.1,1.2-66.3,2.4-99.4,3.6c-6,0.2-9.1,3.7-8.6,9.6c0.5,6.1,1,12.1,1.5,18.2c0.8,8.4,4.1,11.2,12.4,10.9c31-0.9,62-2.3,92.9-2.3
			c15.6,0,28.9-4.5,41-13.7C753.2,48.8,755.7,48,759.5,50.4z"/>
		<path class="st342" d="M671.4,46.2c0.1,3.3-1.6,5.4-4.8,5.7c-3.3,0.3-5.3-1.7-5.7-4.8c-0.4-3.2,1.3-5.5,4.5-5.9
			C668.8,40.8,670.7,42.9,671.4,46.2z"/>
		<path class="st130" d="M707,86.9c3.4,0,5.4,1.7,5.7,4.9c0.3,3.2-1.4,5.5-4.8,5.7c-3.3,0.2-5.4-1.7-5.7-4.9
			C701.9,89.3,703.8,87.4,707,86.9z"/>
		<path class="st160" d="M702.7,39.4c3.2,0.1,5.4,1.4,5.7,4.8c0.3,3.3-1.2,5.5-4.5,5.8c-3.5,0.4-5.6-1.5-6-5
			C697.5,41.7,699.6,40,702.7,39.4z"/>
		<path class="st131" d="M689.8,98.4c-3.9,0.3-5.9-1.6-6.3-4.7c-0.4-3.2,1.3-5.4,4.6-5.8c3.3-0.4,5.5,1.6,5.9,4.6
			C694.3,95.6,692.5,97.7,689.8,98.4z"/>
		<path class="st130" d="M670.2,99.2c-3.4-0.3-5.4-2.1-5.4-5.3c0-3.2,1.9-5.3,5.3-5.3c3.4,0,5.2,2.1,5.3,5.3
			C675.3,97,673.4,99,670.2,99.2z"/>
		<path class="st342" d="M684.5,50.7c-2.8-0.2-4.8-1.9-5-5.1c-0.1-3,1.5-5,4.7-5.2c3.1-0.3,5.8,2.2,5.8,5.3
			C689.9,48.4,687.7,50.6,684.5,50.7z"/>
		<path class="st159" d="M715.6,139.4c0,3.4-1.4,5.6-4.8,5.8c-3.5,0.2-5.7-1.7-5.8-5.2c-0.1-3.3,1.8-5.3,5-5.5
			C713.4,134.3,715.1,136.3,715.6,139.4z"/>
		<path class="st343" d="M672.7,147c-3.1-0.2-5.2-1.7-5.4-5.1c-0.1-3.6,1.8-5.6,5.3-5.6c3.3-0.1,5.2,1.9,5.2,5.2
			C678,144.9,676,146.5,672.7,147z"/>
		<path class="st344" d="M691.9,145.7c-3.2,0-5.3-1.7-5.6-4.9c-0.3-3.4,1.6-5.3,4.8-5.6c3.3-0.3,5.3,1.5,5.6,4.8
			C697,143.3,695.1,145.1,691.9,145.7z"/>
	</g>
	<path class="st345" d="M553.4,281.2c1.4,0,2.1,0.8,1.4,2.3c-0.8,1.7-1.8,3.3-2.6,4.9c-5.6,11.7-3.4,28.1,5.1,37.7
		c2.4,2.7,5.3,4.7,8.5,6.4c1.1,0.6,2.4,1.2,1.6,2.8c-0.8,1.5-2.1,1-3.3,0.6c-6.5-2.6-11.3-7-14.6-13.1c-6.5-12.3-6.5-24.7-0.4-37.1
		C550.5,283,552.2,281.4,553.4,281.2z"/>
	<path class="st84" d="M512.6,314.9c0.3-9.7,3.6-18.3,9.7-25.7c3.9-4.7,8.6-8.5,13.7-11.8c1.2-0.8,2.7-2.6,4-0.8
		c1.5,1.9-0.4,3.1-1.8,4c-4.4,2.9-8.4,6.3-11.9,10.3c-5.5,6.3-8.3,13.7-9.2,22c-0.1,0.8,0,1.6-0.2,2.3c-0.3,1.4-0.8,3-2.5,2.9
		C512.8,318,512.6,316.4,512.6,314.9z"/>
	<path class="st84" d="M288.2,158.2c-0.1,0.3-0.2,0.7-0.5,0.8c-6.9,3.4-7.2,6-1,11c5.1,4.1,10.8,7.3,16.4,10.6
		c1.3,0.8,3.4,1.6,2.4,3.4c-1.1,2.1-2.7,0.2-3.9-0.5c-6.4-3.5-13-6.7-18.6-11.5c-1.8-1.5-3.4-3.2-4.4-5.4c-1.2-2.6-1.3-5.1,0.7-7.4
		C281.5,157,285.1,156.7,288.2,158.2z"/>
	<path class="st298" d="M487.8,324.2c-1.9-0.4-2.7-1.6-2-3.3c3.1-7.1,6.3-14.1,9.6-21.1c0.4-1,1.4-1.9,2.6-1.4
		c1.6,0.6,1.3,2,0.8,3.1c-2.9,6.8-5.8,13.7-8.8,20.5C489.6,322.9,489,323.8,487.8,324.2z"/>
	<path class="st201" d="M580.9,331.1c-1.9-0.4-5.2,1.7-5.6-1.1c-0.5-3,3.2-1.9,5-2.5c1.5-0.5,3.1-0.5,4.6-0.7c1.2-0.2,2.4,0,2.6,1.3
		c0.2,1.3-0.8,2-1.9,2.2C584.1,330.6,582.6,330.8,580.9,331.1z"/>
	<path class="st11" d="M460.6,168.7c7.1,0,7.2-0.1,4.6-6.9c-1.4-3.7-1.7-7.5-1.9-11.4c-0.1-1.1,0.2-2.3,1.4-2.5
		c1.5-0.2,1.7,1.2,1.8,2.2c0.8,5.5,2.5,10.8,4,16.2c1,3.4-0.7,5.3-4,5.9c-3.4,0.6-6.8-0.6-10.2,0.3c-0.7,0.2-1.5-0.4-1.7-1.3
		c-0.2-1.1,0.3-1.9,1.3-2.1C457.5,168.8,459,168.8,460.6,168.7z"/>
	<path class="st102" d="M365.6,131.5c3.4-3.8,6.7-3.1,9.8-1.7c3.4,1.5,5.4,4.1,5.6,7.9c0.1,2-1.6,2.4-3,3c-3.8,1.6-4.2,3.7-1.4,6.7
		c0.7,0.8,2.6,1.5,1.3,2.8c-1.2,1.3-2.6,0.1-3.7-0.8c-4.6-3.8-4.4-8.5,0.6-11.6c2.4-1.5,1.4-2.6,0.2-4
		C372.7,131.3,369.4,132,365.6,131.5z"/>
	<path class="st102" d="M444.6,140.3c0.4,4.6-1.9,8.6-4.9,8.7c-3.6,0.1-4.7-2.5-5-5.5c-0.4-3.9,2.1-8.1,5.1-8.3
		C443.6,135,444,138,444.6,140.3z"/>
	<path class="st346" d="M448.7,191c-8.8,0.3-14.6-3.7-18.7-10.6c-0.8-1.4-1.7-3,0.2-4c1.8-0.8,2.1,1,2.8,2.2
		c3.3,6.2,8.5,9.2,15.6,8.9c1.7-0.1,4.5-1.3,4.6,1.2C453.3,191.4,450,190.3,448.7,191z"/>
	<path class="st180" d="M468.6,150.6c0.2-2.7,0.7-5.7,4.2-6c2.4-0.2,3.3,2.1,3.3,4.2c0,2.8-0.3,5.9-4.1,6.1
		C469.3,155.1,468.9,152.9,468.6,150.6z"/>
	<path class="st203" d="M484.6,473.9c-0.8,1.6-1.2,3.9-3.6,4.5c-0.9,0.2-1.9-0.6-1.7-1.6c0.4-2.1,2.1-3.3,3.8-4.3
		C484,471.9,484.3,472.9,484.6,473.9z"/>
	<path class="st197" d="M445.1,511.8c-2.5-1.8-4-4-5.3-6.3c-0.4-0.6-1-1.3-0.1-2c0.9-0.7,1.5,0,1.9,0.6
		C443.1,506.4,444.8,508.6,445.1,511.8z"/>
	<path class="st247" d="M492,481.5c-2.1,0.4-4.2,0.9-5.5-1.1c-0.4-0.6,0.2-1.2,0.8-1.4C489.7,478.1,490.4,480.7,492,481.5z"/>
	<path class="st153" d="M591.9,428.4c30.3-2.4,54.5,9.6,73.1,32.6c20.2,24.9,26.5,53,15.2,83.9c-1.9,5.3-6,6.7-10.1,3.7
		c-2.8-2.1-3-4.7-1.9-7.9c2.8-8.1,4.6-16.4,4.6-25.1c0-3.7-1.5-5.1-5-4.9c-2.8,0.2-5.6,0.2-8.4,0.5c-2.6,0.3-4.6-0.6-4.9-3.1
		c-0.3-2.8,1.8-4.1,4.4-4.2c2.6-0.1,5.3-0.2,7.9-0.3c3.2-0.2,4.8-1.2,3.7-5c-3.5-12.5-9.6-23.5-18.2-33.2c-1.5-1.6-2.6-1.8-4.1-0.2
		c-2.1,2.3-4.4,4.4-6.7,6.6c-1.7,1.6-3.6,1.9-5.4,0.3c-1.9-1.7-1.6-3.6-0.1-5.4c2-2.4,4-4.8,6.1-7.1c1.4-1.5,1.1-2.4-0.5-3.6
		c-9.9-7.7-21-12.6-33.4-14.7c-3.3-0.6-5,0.1-4.6,3.9c0.3,2.8,0.1,5.6,0.1,8.4c0,2.6-1.3,4.3-3.9,4.3c-2.4,0-3.6-1.5-3.7-3.9
		c-0.2-3.3-0.5-6.5-0.6-9.8c-0.1-2.5-1-3.6-3.7-3.4c-12,1.1-23.1,4.7-33.1,11.5c-1.9,1.3-2.2,2.4-0.6,4c2.1,2.1,4.1,4.2,6.2,6.4
		c1.6,1.7,2.9,3.6,0.8,5.6c-1.9,1.9-4.2,1.8-6.3-0.1c-2.1-1.9-4.2-3.8-6.2-5.7c-1.6-1.6-2.9-1.8-4.5,0.2
		c-7.5,9.4-12.1,19.8-13.3,31.8c-0.4,3.8,1.2,5.1,4.8,4.9c2.8-0.2,5.6-0.3,8.4-0.3c2.7-0.1,4.1,1.4,4.2,4c0.1,2.7-1.8,3.3-4.1,3.3
		c-3,0-5.9,0.3-8.9,0.3c-3.1,0-4,1.4-3.5,4.4c1.2,8.6,4.9,16.3,8.7,24c2.3,4.6,1.4,7-3.2,9.3c-3.3,1.7-5.6,0.8-7.3-2.3
		c-11.9-21.7-16.6-44.4-7.1-68.1c9.1-22.7,26.2-36.9,49.8-43.3c2.2-0.6,4.5-1.1,6.8-1.4C586.3,428.7,589.2,428.6,591.9,428.4z"/>
	<path class="st170" d="M640.3,541.1c-13.7-0.6-25.9-1.2-38.2-1.8c-2.3-0.1-3.6-1.6-4.6-3.4c-9.2-16.9-18.3-33.9-27.5-50.8
		c-0.4-0.7-0.7-1.4-1-2.1c-0.6-1.4-1.5-2.9-0.1-4.3c1.5-1.5,2.9-0.3,4.2,0.4c9.2,5.1,18.4,10.3,27.7,15.5c1.1,0.6,2.1,1.4,3.2,1.9
		c18.9,7.2,27,24.8,37.9,39.6C644,539,642.6,541.1,640.3,541.1z"/>
	<path class="st82" d="M606,506.5c6.4-0.4,12,4.4,12.4,10.8c0.4,6.1-4.5,11.5-10.8,11.8c-6,0.3-12-5.1-12.3-11.1
		C595.1,512.1,600,506.9,606,506.5z"/>
	<g>
		<path class="st153" d="M1054.7,151.6c1.9,23.1,3.3,46.3,5.9,69.4c1.8,16-8.5,24.3-21.2,25.8c-14.5,1.7-29.1,3.1-43.6,4.8
			c-34.9,4.1-69.9,8.1-104.7,12.7c-9.7,1.3-19.5,2-29.2,3.6c-6.6,1-13.4-0.4-18.1-6.2c-0.7-0.9-1.4-1.6-2.6-1.9
			c-11.6-2.4-15.8-10.7-16.7-21.3c-3.4-39.1-6.6-78.2-9.9-117.4c-0.6-7.1-0.8-14.3-1.8-21.4c-2.5-16.8,6.5-25.8,21.9-28
			c18.8-2.7,37.6-5,56.4-7.7c27.4-3.9,54.7-8.1,82.1-12.1c13.1-1.9,26.2-3.8,39.3-5.2c12.1-1.4,21.6,4.6,26.1,15.9
			c0.5,1.2,1,2.1,2.1,2.9c5.3,3.5,7.6,8.6,8.1,15C1050.7,104.1,1052.8,127.9,1054.7,151.6C1054.7,151.6,1054.7,151.6,1054.7,151.6z"
			/>
		<path class="st46" d="M1041.5,139.3c2,23.9,4,47.8,5.9,71.7c1.1,13.4-6,21.5-19.3,23.1c-43.4,5.2-86.8,10.6-130.2,15.9
			c-15.9,2-31.8,4-47.7,5.8c-13.6,1.6-20.7-4.1-21.9-17.8c-3.7-40.6-7.2-81.3-10.8-122c-0.5-6.2-1.2-12.4-1.8-18.6
			c-1.2-11.6,5.6-20.3,17.2-22c43.5-6.2,86.9-12.3,130.4-18.5c16.2-2.3,32.3-4.8,48.5-7c6.4-0.9,12.5,0.1,17.7,4.1
			c3.6,2.8,5.6,6.4,5.9,11.2C1037.4,89.9,1039.4,114.6,1041.5,139.3C1041.5,139.3,1041.5,139.3,1041.5,139.3z"/>
		<path class="st347" d="M848,217.6c-0.9-8.2-0.1-8.8,8.1-9.9c38.4-5,76.8-10.1,115.3-15.1c13.7-1.8,27.5-3.6,41.2-5.4
			c7.6-1,9.4,0.6,10.1,8.2c0.2,2,0.5,4.1,0.3,6c-0.4,3.8-3.1,5.1-6.5,5.5c-26.3,3.3-52.5,6.6-78.8,9.9c-25.9,3.3-51.9,6.6-77.8,10
			C849.9,228.2,849.1,227.7,848,217.6z"/>
		<path class="st151" d="M979.1,124.9c0.6,3.7,0.4,6.7-3.8,7.4c-4.1,0.7-6.3-1.3-6.8-5.1c-3.9-29.4-37.5-45.4-66.2-24.5
			c-0.9,0.6-1.7,1.3-2.5,2.1c-7.5,7-6.7,6,0,11.4c0.8,0.7,2,1.2,1.8,2.5c-0.2,1.3-1.3,1.6-2.3,1.9c-7.3,1.7-14.6,3.3-21.8,5
			c-3.2,0.8-3.8,0-3.1-3.3c1.4-5.9,2.3-11.9,3.4-17.9c0.8-4.5,1.8-5.1,5.2-2.3c2.6,2.2,3.9,0.8,5.6-1c14.3-14.8,31.5-21.5,52-17.7
			C960.9,87.2,976.7,104.8,979.1,124.9z"/>
		<path class="st151" d="M977.8,137.5c1.3-0.3,2.8-0.5,2.1,2.7c-1.4,6.4-2.4,12.8-3.6,19.2c-0.6,3.4-2.5,4.5-5,1.9
			c-2.2-2.3-3.2-0.9-4.7,0.6c-11.6,11.9-25.3,19.1-42.4,19.6c-24.3,0.7-47.1-19.3-48.9-43.5c-0.3-3.4,1.3-5.4,4.6-5.8
			c3.7-0.4,5.8,1.1,6.4,5c2.7,17.5,14.7,30.2,31.6,33c16.3,2.6,29.5-3.5,40.5-15.3c2.3-2.5,2.1-4.2-0.5-6.3
			c-1.8-1.5-5.4-2.6-4.7-5.1c0.8-2.6,4.5-2,7-2.6C965.7,139.8,971.4,138.8,977.8,137.5z"/>
		<path class="st81" d="M920,207.6c-1.5-4.1,0.8-5.1,5.3-5.6c28.7-3.6,57.4-7.5,86.1-11.3c2.5-0.3,5.3-1.3,6.7,1.4
			c1.5,2.7,1.7,6,1,9.1c-0.5,2-2.5,2.1-4.2,2.3c-19.5,2.4-38.9,4.7-58.4,7.2c-9.4,1.2-18.8,2.5-28.2,3.9
			C920.7,215.6,920.7,215.7,920,207.6z"/>
	</g>
	<g>
		<path class="st348" d="M987.8,379.9c1.3,16,3.1,32,3.8,48c0.8,18.2,2.2,36.4,4.1,54.5c1.3,12.4-6.8,22.6-19.1,23.7
			c-16.6,1.5-33.2,1.7-49.9,2c-8.6,0.2-17.1,0.9-25.6,1c-17.4,0.3-34.8,1.4-52.3,2c-16,0.6-32,1-48,1.3c-5,0.1-9.5-1.8-12.9-5.6
			c-1.3-1.4-2.9-2.3-4.6-3c-9-4-14.2-10.7-14.9-20.8c-2.3-34.2-5.1-68.4-7.1-102.6c-1-17-2.4-33.9-3.6-50.8
			c-0.6-8.3,3.3-15.5,10.8-19c5.4-2.5,10.9-4.7,17.1-3.7c1.1,0.2,2.2-0.1,3.3-0.2c21.8-1.4,43.5-3,65.3-4.1c20.1-1,40.1-2.1,60.2-3
			c11.1-0.5,22.1-1.5,33.1-2c11.9-0.5,25.4,5.2,27.9,18.9c0.3,1.4,1.1,2.1,2.1,2.9c4.3,3.3,6.5,7.7,6.9,13.2
			c1.1,15.7,2.5,31.4,3.8,47.1C988,379.9,987.9,379.9,987.8,379.9z"/>
		<path class="st159" d="M869,306c23.9-1.2,51.5-2.7,79-3.9c14.4-0.6,22,6.3,23.1,20.8c3.8,50.8,7.6,101.6,11.4,152.4
			c0.8,10.7-7.3,18.8-19.4,19.3c-13.1,0.5-26.2,0.9-39.2,1.4c-39.1,1.5-78.1,3.1-117.2,4.7c-4,0.2-8.1,0.2-12.1,0.4
			c-12.8,0.6-21.8-7.3-22.7-20.2c-2.9-42.3-5.7-84.6-8.5-126.9c-0.5-6.7-0.9-13.4-1.4-20c-1-12.2,4.7-19.9,16.8-22.4
			c5.7-1.2,11.5-1.1,17.2-1.5C819.1,308.7,842.3,307.5,869,306z"/>
		<path class="st143" d="M812.8,360.3c-0.5-6.4-1-12.7-1.6-19.1c-0.4-4.3,1.4-6.3,5.7-6.7c14.7-1.3,28.3-5.9,40.4-14.3
			c3.7-2.5,6.7-2.6,10.6-0.5c13.3,7,27.6,10.4,42.5,11.2c3.8,0.2,5.2,2.1,5.4,5.6c0.1,4.7,0.4,9.3,0.5,14c0.1,2.2,0.4,3.3,3.2,2.6
			c7.3-1.6,17.9,4.6,20.1,11.7c1.4,4.4,0.9,8.6-2.6,12.1c-2.8,2.9-7.5,5.9-7.5,8.9c-0.1,3.2,5.3,5.5,8.3,8.1
			c5.3,4.6,5.8,10.1,1.3,15.6c-1.5,1.8-3.1,3.5-4.8,5.1c-5.9,5.6-12,5.8-18.4,0.7c-6.9-5.5-6.9-5.5-12.5,1.3
			c-8.3,10.1-18.9,16.9-31.1,21.5c-2.1,0.8-3.9,0.5-5.9-0.1c-31.4-9.8-49.8-32.5-52.9-65.2C813.4,368.7,813.1,364.5,812.8,360.3
			C812.7,360.3,812.8,360.3,812.8,360.3z"/>
		<path class="st153" d="M855.8,450.7c33.1-1.4,66.3-2.9,99.4-4.3c3.6-0.2,5.2,1.4,5.4,4.8c0.2,4,0.4,8.1,0.7,12.1
			c0.2,3.6-1.7,5-5,5.2c-50.9,1.9-101.7,3.9-152.6,5.8c-10.7,0.4-10.7,0.4-11.5-10.5c-0.8-9.9-0.8-10,9.1-10.5
			c18.2-0.9,36.4-1.7,54.6-2.5C855.8,450.9,855.8,450.8,855.8,450.7z"/>
		<path class="st82" d="M885.9,420.8c-4.8,4-10.2,6.6-15.6,9.3c-1.6,0.8-3-0.1-4.5-0.5c-24.1-7.3-41.2-28.9-43.4-55.3
			c-0.8-9.5-0.9-19-1.5-28.4c-0.2-2.5,0.7-3.8,3.2-4.1c13.3-1.8,25.7-6.1,37.1-13.2c1.4-0.9,2.8-0.9,4.4-0.1
			c11.9,5.9,24.5,9,37.7,9.7c2.6,0.1,3.9,1.3,3.9,4.1c0.1,5.9,0.4,11.8,0.5,17.7c0.1,2.1-0.2,4.7-2.6,4.6c-2.1,0-3.9-2-4.1-4.5
			c-0.4-4-0.6-8.1-0.7-12.1c0-2.7-0.9-3.7-3.8-3.9c-10.5-0.8-20.5-3.6-30.2-7.6c-1.6-0.7-2.9-1.1-4.8-0.1
			c-9.7,5.4-20.2,8.9-31.1,11.1c-1.3,0.3-3,0.1-2.8,2.2c1.2,13.4,0.1,27.2,4.9,40.2c5.6,15.1,16,25.6,30.9,31.7
			c4.9,2,9,0.9,12.6-1.9C879.8,416.8,882.7,417.1,885.9,420.8z"/>
		<path class="st81" d="M874.3,371c0.3-5.9,4.2-9.6,8.6-12.5c3.9-2.5,7.4-0.2,10.5,2.5c13.4,11.8,26.7,23.8,40.6,35.2
			c5.4,4.4,5.3,7.8,0.4,12.9c-1.3,1.3-2.6,2.8-4,3.9c-3.3,2.6-6.8,3.1-10.2,0.3c-14.6-12.4-29.1-24.9-43.7-37.3
			C875,374.7,874.5,373,874.3,371z"/>
		<path class="st81" d="M896.5,403.1c1.5,0,2.8-2.4,5-0.3c2.2,2.1,2.8,3.5,0.3,5.7c-2.6,2.3-4.9,4.8-7.4,7.1c-3,2.8-6.1,2.5-9.2,0
			c-0.1-0.1-0.2-0.2-0.4-0.3c-11.5-8.8-10.9-16.3,1.8-23.7c1.6-0.9,2,0.1,2.5,0.8c0.7,0.9,2.8,1.6,0.8,3.2c-1,0.8-1.3,1.7-0.3,2.8
			c0.6,0.6,1.4,0.9,2.1,0.3c1.4-1.2,2.2-2.4,4.6-0.8C899.1,400,895.1,401.4,896.5,403.1z"/>
		<path class="st82" d="M920.3,377.9c-1.9-0.5-3.1-2-4.2-3.5c-0.3-0.5-1.6-0.9-0.4-1.7c0.8-0.6,2.4-0.8,1.1-2.1
			c-0.8-0.8-1.5,0.3-2.3,0.8c-2.3,1.6-2.9-1.2-4.3-1.9c-1.7-0.9-0.7-2,0.1-3c2.6-2.7,5-5.5,7.7-8.1c2-2,4.7-2.6,7.4-1.5
			c4.5,1.7,7.8,5,10.4,9c1.4,2.1,1,4.7-0.6,6.6c-2.7,3.2-5.4,6.6-8.8,8.9c-3.2,2.2-4.2-2.2-6.2-3.6c1.8-1.8,4.2-3.1,4.9-5.8
			C923.2,373.7,922.3,376.3,920.3,377.9z"/>
		<path class="st81" d="M928.5,464.9c-23.6,1-47.3,2-70.9,3.2c-4.1,0.2-5.7-0.6-5.8-5c-0.1-7.8-0.4-7.8,7.4-8.1
			c30.5-1.3,61-2.5,91.5-3.8c3.2-0.1,4.7,0.9,4.8,4c0,1.4,0.1,2.8,0.3,4.2c0.5,3.5-1.1,4.8-4.4,4.9c-7.6,0.2-15.3,0.5-22.9,0.8
			C928.6,465,928.6,464.9,928.5,464.9z"/>
		<path class="st130" d="M807.1,468c-2.8,0-4.6-1.4-4.8-4.3c-0.2-2.9,1.6-4.3,4.2-4.4c2.9-0.2,4.9,1.4,5,4.3
			C811.7,466.2,810.1,467.8,807.1,468z"/>
		<path class="st349" d="M821.6,467.3c-2.5-0.1-4.5-1.1-4.9-3.8c-0.4-2.7,1.1-4.5,3.7-4.8c2.6-0.3,4.5,1.1,5,3.7
			C825.8,465.1,824.2,466.7,821.6,467.3z"/>
		<path class="st342" d="M836.7,462.5c-0.3,2-1.2,3.4-3.3,3.4c-2.5-0.1-3.8-1.6-3.6-3.9c0.1-1.9,1.5-3.1,3.5-3
			C835.5,459,836.5,460.5,836.7,462.5z"/>
		<path class="st350" d="M842.8,460.1c1.1,0.1,1.9,0.5,1.9,1.6c0,1.3-0.8,2-2,2.1c-1,0-1.8-0.6-1.9-1.7
			C840.8,460.9,841.7,460.3,842.8,460.1z"/>
		<path class="st216" d="M910.5,395.1c1.8-1.2,3,0.5,4.7-0.1c-0.1-0.8-0.3-1.7-0.2-2.5c0.1-1.2,0.8-2.1,2.2-1.8
			c1.4,0.4,3.3,1.6,2.5,2.7c-1.4,2-3.4,4.1-5.6,5C912.2,399.2,911.1,397,910.5,395.1z"/>
		<path class="st190" d="M927.4,399.7c-0.3,1.6-1.4,2.3-2.9,2.3c-1.5,0.1-1.8-1-1.8-2.1c0-1.5,0.5-2.8,2.4-2.6
			C926.3,397.5,927.2,398.3,927.4,399.7z"/>
		<path class="st227" d="M900.3,375.4c-0.1,1.3-0.8,2-1.9,2.2c-1.4,0.3-2.5-0.3-2.5-1.8c0-1.1,0.4-2.3,1.7-2.3
			C898.8,373.4,899.7,374.2,900.3,375.4z"/>
		<path class="st165" d="M893.7,377.3c1.2,0.2,2.3,0.3,2.4,1.7c0.1,1.2-0.4,2.2-1.6,2.4c-1.5,0.2-2.3-0.8-2.6-2.1
			C891.6,377.9,892.7,377.5,893.7,377.3z"/>
		<path class="st351" d="M890.5,367.3c1.3,0.2,2.5,0.7,2.5,2.2c0,1.2-0.9,2.1-2.1,2c-1.1-0.1-2.2-0.7-2.3-2
			C888.5,368.3,889.3,367.6,890.5,367.3z"/>
		<path class="st181" d="M888.5,374.3c-0.1,1.1-0.8,1.7-1.8,1.7c-1.4,0-2.2-0.9-2.4-2.2c-0.1-1,0.3-1.9,1.4-1.9
			C887.1,371.9,888.1,372.8,888.5,374.3z"/>
		<path class="st239" d="M887.8,403.1c-1.6,0.1-2.1-0.8-2.4-1.9c-0.3-1.4,0.5-2,1.7-2.2c1-0.2,1.9,0.2,2.1,1.3
			C889.7,401.7,888.7,402.5,887.8,403.1z"/>
		<path class="st208" d="M895.1,405.9c-0.3,0.9-1,1.8-2.4,1.9c-0.9,0-1.3-0.7-1.3-1.5c-0.1-1.7,1-2,2.4-1.9
			C894.5,404.4,895.3,404.5,895.1,405.9z"/>
		<path class="st143" d="M920.3,377.9c0.1-2.8,3.2-4.3,3.1-7.4c0-1.2,1.5-1.9,2.9-1c1.4,0.9,1.8,2.9,0.8,3.6
			c-2.3,1.6-3.6,4.6-6.9,4.7C920.2,377.8,920.3,377.9,920.3,377.9z"/>
		<path class="st352" d="M922.5,367.9c-0.3,1.7-1.3,2.3-2.6,2.3c-1.3,0-2.2-0.7-1.9-2c0.3-1.4,1.4-2,2.8-1.9
			C921.9,366.4,922.4,367.1,922.5,367.9z"/>
	</g>
</g>
</svg>
