<?xml version="1.0" encoding="utf-8"?>
<!-- Generator: Adobe Illustrator 24.3.0, SVG Export Plug-In . SVG Version: 6.00 Build 0)  -->
<svg version="1.1" id="Layer_1" xmlns="http://www.w3.org/2000/svg" xmlns:xlink="http://www.w3.org/1999/xlink" x="0px" y="0px"
	 width="110.2px" height="121px" viewBox="0 0 110.2 121" style="enable-background:new 0 0 110.2 121;" xml:space="preserve">
<style type="text/css">
	.st0{fill:#00C8FF;}
	.st1{fill-rule:evenodd;clip-rule:evenodd;fill:#00C8FF;}
	.st2{fill:#185AE9;}
	.st3{fill:#FFFFFF;}
	.st4{fill-rule:evenodd;clip-rule:evenodd;fill:#FFFFFF;}
	.st5{fill:#00B0FB;}
	.st6{fill:#00B0FB;fill-opacity:0.4;}
	.st7{fill:#E4ECF4;}
	.st8{fill:#FFE8A0;}
	.st9{fill:none;}
	.st10{fill:#0D0D0D;}
	.st11{fill-rule:evenodd;clip-rule:evenodd;fill:#00B0FB;}
	.st12{fill:#FAFBFF;}
	.st13{fill:#070707;}
	.st14{fill:#D9D9D9;filter:url(#Adobe_OpacityMaskFilter);}
	.st15{mask:url(#mask0_103_2708_1_);}
	.st16{fill-rule:evenodd;clip-rule:evenodd;fill:#DAB6E4;}
	.st17{stroke:#FFFFFF;stroke-width:2;}
	.st18{fill:#FFFFFF;stroke:#000000;stroke-width:2;}
	.st19{fill-rule:evenodd;clip-rule:evenodd;}
	.st20{stroke:#FFFFFF;}
	.st21{fill:#FFFFFF;filter:url(#Adobe_OpacityMaskFilter_1_);}
	.st22{mask:url(#path-22-inside-1_103_2708_1_);fill:#FFFFFF;}
	.st23{fill-rule:evenodd;clip-rule:evenodd;fill:#263238;}
	.st24{fill:#EFEFEF;}
	
		.st25{fill:none;stroke:#000000;stroke-width:10.01;stroke-linecap:round;stroke-linejoin:round;stroke-miterlimit:3.08;stroke-dasharray:70.84,70.84;}
	.st26{fill:#010000;}
	.st27{opacity:0.64;}
	.st28{fill:#F9F7F5;}
	.st29{fill:#D9D9D9;filter:url(#Adobe_OpacityMaskFilter_2_);}
	.st30{mask:url(#mask0_103_2310_1_);}
	.st31{fill:#FFFFFF;filter:url(#Adobe_OpacityMaskFilter_3_);}
	.st32{mask:url(#mask1_103_2310_1_);}
	.st33{fill:#E6E6E6;}
	.st34{fill:#FFFFFF;filter:url(#Adobe_OpacityMaskFilter_4_);}
	.st35{mask:url(#mask2_103_2310_1_);}
	.st36{fill:none;stroke:#000000;stroke-width:1.5;stroke-linecap:round;stroke-linejoin:round;stroke-miterlimit:10;}
	.st37{fill:#FFFFFF;filter:url(#Adobe_OpacityMaskFilter_5_);}
	.st38{mask:url(#mask3_103_2310_1_);}
	.st39{fill:#FFFFFF;filter:url(#Adobe_OpacityMaskFilter_6_);}
	.st40{mask:url(#mask4_103_2310_1_);}
	.st41{fill:#FFFFFF;filter:url(#Adobe_OpacityMaskFilter_7_);}
	.st42{mask:url(#mask5_103_2310_1_);}
	.st43{fill:#FFFFFF;filter:url(#Adobe_OpacityMaskFilter_8_);}
	.st44{mask:url(#mask6_103_2310_1_);}
	.st45{fill:#DBDBDB;}
	.st46{fill:#FFFFFF;filter:url(#Adobe_OpacityMaskFilter_9_);}
	.st47{mask:url(#mask7_103_2310_1_);}
	.st48{fill:#FFFFFF;filter:url(#Adobe_OpacityMaskFilter_10_);}
	.st49{mask:url(#mask8_103_2310_1_);}
	.st50{fill:#FFFFFF;filter:url(#Adobe_OpacityMaskFilter_11_);}
	.st51{mask:url(#mask9_103_2310_1_);}
	.st52{fill:#FFFFFF;filter:url(#Adobe_OpacityMaskFilter_12_);}
	.st53{mask:url(#mask10_103_2310_1_);}
	.st54{fill:#FFFFFF;filter:url(#Adobe_OpacityMaskFilter_13_);}
	.st55{mask:url(#mask11_103_2310_1_);}
	.st56{fill:#FFFFFF;filter:url(#Adobe_OpacityMaskFilter_14_);}
	.st57{mask:url(#mask12_103_2310_1_);}
	.st58{fill:#FFFFFF;stroke:#000000;}
	.st59{fill:#FFFFFF;filter:url(#Adobe_OpacityMaskFilter_15_);stroke:#FFFFFF;}
	.st60{mask:url(#mask13_103_2310_1_);}
	.st61{fill:#FFFFFF;filter:url(#Adobe_OpacityMaskFilter_16_);}
	.st62{mask:url(#path-55-inside-1_103_2310_1_);}
	.st63{fill:#FFFFFF;filter:url(#Adobe_OpacityMaskFilter_17_);}
	.st64{mask:url(#path-59-inside-2_103_2310_1_);fill:#FFFFFF;}
	.st65{fill:none;stroke:#FFFFFF;stroke-width:1.5;stroke-linecap:round;stroke-linejoin:round;stroke-miterlimit:10;}
	.st66{fill:#181818;}
	.st67{fill:#BEBEBE;}
	.st68{fill:#FEFEFE;}
	.st69{fill:none;stroke:#000000;stroke-width:2.1125;stroke-miterlimit:6.5;}
	.st70{fill:#3C7CFF;stroke:#001135;stroke-width:0.7602;stroke-miterlimit:10;}
	.st71{fill:#001135;}
	.st72{fill:#3C7CFF;}
	.st73{clip-path:url(#SVGID_1_);}
	.st74{fill:#FFFFFF;stroke:#001135;stroke-width:0.7602;stroke-miterlimit:10;}
	.st75{fill:none;stroke:#001135;stroke-width:0.7602;stroke-miterlimit:10;}
	.st76{fill:#001135;stroke:#001135;stroke-width:0.7602;stroke-miterlimit:10;}
	.st77{fill:#0F0D0E;}
	.st78{fill:#161415;}
	.st79{fill:#FCFCFC;}
	.st80{fill:#FBFBFB;}
	.st81{fill:#FAFAFA;}
	.st82{fill:#C1C1C1;}
	.st83{fill:#0E0E0E;}
	.st84{fill:#EFEEEE;}
	.st85{fill:#A8A8A8;}
	.st86{fill:#9A9A9B;}
	.st87{fill:#404040;}
	.st88{fill:#EDEDED;}
	.st89{fill:#E7E7E7;}
	.st90{fill:#9A9999;}
	.st91{fill:#D2D2D2;}
	.st92{fill:#AEAEAE;}
	.st93{fill:#8D8D8C;}
	.st94{fill:#B9BABC;}
	.st95{fill:#61605F;}
	.st96{fill:#A5A5A5;}
	.st97{fill:#B5B6B6;}
	.st98{fill:#1B1C1C;}
	.st99{fill:#171616;}
	.st100{fill:#161616;}
	.st101{fill:#0F0F0F;}
	.st102{fill:#F0F0F0;}
	.st103{fill:#EDEDEC;}
	.st104{fill:#EBEBEB;}
	.st105{fill:#EBEBEA;}
	.st106{fill:#ECECEC;}
	.st107{fill:#E9E9E9;}
	.st108{fill:#EBEAEA;}
	.st109{fill:#B9BAB9;}
	.st110{fill:#EDECEC;}
	.st111{fill:#EAEAEA;}
	.st112{fill:#1F1F1E;}
	.st113{fill:#1E1E1D;}
	.st114{fill:#202020;}
	.st115{fill:#1B1A1A;}
	.st116{fill:#1F1F20;}
	.st117{fill:#252424;}
	.st118{fill:#1F1E1E;}
	.st119{fill:#222121;}
	.st120{fill:#2B2B2B;}
	.st121{fill:#1E1E1E;}
	.st122{fill:#1F1F1F;}
	.st123{fill:#434242;}
	.st124{fill:#2C2C2C;}
	.st125{fill:#484848;}
	.st126{fill:#FDFDFD;}
	.st127{fill:#F4F4F3;}
	.st128{fill:#F2F2F2;}
	.st129{fill:#F3F3F3;}
	.st130{fill:#F1F1F1;}
	.st131{fill:#191918;}
	.st132{fill:#1A1A19;}
	.st133{fill:#1D1C1D;}
	.st134{fill:#1C1A1B;}
	.st135{fill:#1E1D1E;}
	.st136{fill:#212021;}
	.st137{fill:#1D1D1D;}
	.st138{fill:#1D1B1B;}
	.st139{fill:#1F1D1E;}
	.st140{fill:#1E1D1D;}
	.st141{fill:#FCFBFB;}
	.st142{fill:#080808;}
	.st143{fill:#020202;}
	.st144{fill:#030303;}
	.st145{fill:#060606;}
	.st146{fill:#040304;}
	.st147{fill:#040404;}
	.st148{fill:#050404;}
	.st149{fill:#030302;}
	.st150{fill:#0A0A0A;}
	.st151{fill:#020102;}
	.st152{fill:#090909;}
	.st153{fill:#0B0B0B;}
	.st154{fill:#010101;}
	.st155{fill:#030304;}
	.st156{fill:#F8F9F9;}
	.st157{fill:#F9F9F9;}
	.st158{fill:#F8F8F8;}
	.st159{fill:#F7F7F7;}
	.st160{fill:#F5F5F5;}
	.st161{fill:#E4E5E4;}
	.st162{fill:#D4D4D5;}
	.st163{fill:#A5A5A6;}
	.st164{fill:#222222;}
	.st165{fill:#161615;}
	.st166{fill:#C7C7C7;}
	.st167{fill:#626261;}
	.st168{fill:#D5D3D6;}
	.st169{fill:#090908;}
	.st170{fill:#F6F6F6;}
	.st171{fill:#232323;}
	.st172{fill:#5F5E5E;}
	.st173{fill:#080807;}
	.st174{fill:#C3C3C3;}
	.st175{fill:#050505;}
	.st176{fill:#191919;}
	.st177{fill:#1A1A1A;}
	.st178{fill:#151615;}
	.st179{fill:#0F0F0E;}
	.st180{fill:#1D1C1C;}
	.st181{fill:#1A1919;}
	.st182{fill:#1C1C1C;}
	.st183{fill:#201F20;}
	.st184{fill:#151616;}
	.st185{fill:#201F1F;}
	.st186{fill:#232424;}
	.st187{fill:#1E1F1F;}
	.st188{fill:#1E1E1F;}
	.st189{fill:#1B1B1B;}
	.st190{fill:#1B1A1C;}
	.st191{fill:#2A2A2A;}
	.st192{fill:#1C1B1D;}
	.st193{fill:#242324;}
	.st194{fill:#1B1A1B;}
	.st195{fill:#212121;}
	.st196{fill:#2A2A2B;}
	.st197{fill:#2B2A2B;}
	.st198{fill:#202021;}
	.st199{fill:#202121;}
	.st200{fill:#242424;}
	.st201{fill:#1D1D1E;}
	.st202{fill:#272728;}
	.st203{fill:#222122;}
	.st204{fill:#242323;}
	.st205{fill:#222223;}
	.st206{fill:#252526;}
	.st207{fill:#282828;}
	.st208{fill:#292829;}
	.st209{fill:#171817;}
	.st210{fill:#282829;}
	.st211{fill:#2A2B2B;}
	.st212{fill:#363536;}
	.st213{fill:#212122;}
	.st214{fill:#272727;}
	.st215{fill:#252525;}
	.st216{fill:#29292A;}
	.st217{fill:#1F1E1F;}
	.st218{fill:#2E2D2D;}
	.st219{fill:#313030;}
	.st220{fill:#404141;}
	.st221{fill:#2E2F2E;}
	.st222{fill:#242525;}
	.st223{fill:#2D2C2C;}
	.st224{fill:#2B2B2C;}
	.st225{fill:#4B4B4B;}
	.st226{fill:#2E2E2E;}
	.st227{fill:#2E2D2E;}
	.st228{fill:#2E2E2F;}
	.st229{fill:#2C2B2B;}
	.st230{fill:#272627;}
	.st231{fill:#323131;}
	.st232{fill:#282928;}
	.st233{fill:#323232;}
	.st234{fill:#262627;}
	.st235{fill:#2D2C2D;}
	.st236{fill:#333333;}
	.st237{fill:#2A292A;}
	.st238{fill:#141414;}
	.st239{fill:#303030;}
	.st240{fill:#2E2E2D;}
	.st241{fill:#363635;}
	.st242{fill:#4D4D4D;}
	.st243{fill:#373636;}
	.st244{fill:#292929;}
	.st245{fill:#3C3B3C;}
	.st246{fill:#161516;}
	.st247{fill:#393939;}
	.st248{fill:#373737;}
	.st249{fill:#252425;}
	.st250{fill:#383839;}
	.st251{fill:#313232;}
	.st252{fill:#323233;}
	.st253{fill:#2B2C2C;}
	.st254{fill:#343333;}
	.st255{fill:#2C2C2D;}
	.st256{fill:#3C3C3C;}
	.st257{fill:#070606;}
	.st258{fill:#454545;}
	.st259{fill:#3B3B3C;}
	.st260{fill:#30302F;}
	.st261{fill:#3C3C3D;}
	.st262{fill:#232223;}
	.st263{fill:#333433;}
	.st264{fill:#050405;}
	.st265{fill:#373637;}
	.st266{fill:#414141;}
	.st267{fill:#3C3B3D;}
	.st268{fill:#3D3C3D;}
	.st269{fill:#2F2E2E;}
	.st270{fill:#2B2A2A;}
	.st271{fill:#040303;}
	.st272{fill:#2C2A2B;}
	.st273{fill:#191A1A;}
	.st274{fill:#313130;}
	.st275{fill:#19191A;}
	.st276{fill:#444443;}
	.st277{fill:#303031;}
	.st278{fill:#4A4A4B;}
	.st279{fill:#353635;}
	.st280{fill:#030202;}
	.st281{fill:#010001;}
	.st282{fill:#343434;}
	.st283{fill:#060505;}
	.st284{fill:#151514;}
	.st285{fill:#040302;}
	.st286{fill:#111010;}
	.st287{fill:#5D5C5D;}
	.st288{fill:#353535;}
	.st289{fill:#262524;}
	.st290{fill:#020203;}
	.st291{fill:#030203;}
	.st292{fill:#3D3E3E;}
	.st293{fill:#222323;}
	.st294{fill:#272928;}
	.st295{fill:#343433;}
	.st296{fill:#131212;}
	.st297{fill:#111111;}
	.st298{fill:#0B0C0C;}
	.st299{fill:#121212;}
	.st300{fill:#949597;}
	.st301{fill:#494749;}
	.st302{fill:#F9F8F9;}
	.st303{fill:#E4E5E5;}
	.st304{fill:#C8C5C6;}
	.st305{fill:#E5E5E5;}
	.st306{fill:#B7B6B8;}
	.st307{fill:#D0D0D1;}
	.st308{fill:#E6E6E7;}
	.st309{fill:#D1D0D3;}
	.st310{fill:#F6F7F7;}
	.st311{fill:#CBCACC;}
	.st312{fill:none;stroke:#000000;stroke-width:2;stroke-miterlimit:10;}
	.st313{fill:none;stroke:#000000;stroke-width:2;stroke-miterlimit:10;stroke-dasharray:12.1617,12.1617;}
	.st314{fill:none;stroke:#000000;stroke-width:2;stroke-miterlimit:10;stroke-dasharray:12;}
	.st315{fill:none;stroke:#222122;stroke-width:2;stroke-miterlimit:10;stroke-dasharray:12;}
	.st316{fill:none;stroke:#000000;stroke-width:2;stroke-miterlimit:10;stroke-dasharray:12.0927,12.0927;}
	.st317{fill:none;stroke:#000000;stroke-width:0;stroke-linecap:round;stroke-linejoin:round;}
	.st318{fill:#535353;}
	.st319{fill:#414041;}
	.st320{fill:#4D4C4D;}
	.st321{fill:#0A0A0B;}
	.st322{fill:#181718;}
	.st323{fill:#2F2E2F;}
	.st324{fill:#494A4A;}
	.st325{fill:#585959;}
	.st326{fill:#3A3A3A;}
	.st327{fill:#989898;}
	.st328{fill:#908F90;}
	.st329{fill:#0D0C0C;}
	.st330{fill:#0C0C0B;}
	.st331{fill:#232322;}
	.st332{fill:#474847;}
</style>
<g>
	<path class="st5" d="M80.4,43.5C79,48,64.8,53.7,42.2,53.7c-20,0-33.5-4.5-37.3-8.6H0v9.1h3.9v-4.8c2.2,1.7,5.3,3.1,9.2,4.4
		c7.8,2.5,18.1,3.8,29.1,3.8c11,0,21.3-1.4,29.1-3.8c4-1.3,7.1-2.7,9.2-4.4v7.3h3.9V43.5H80.4z"/>
	<path class="st5" d="M79,62.4c-15.1,0-27.4,12.3-27.4,27.4c0,15.1,12.3,27.4,27.4,27.4c15.1,0,27.4-12.3,27.4-27.4
		C106.3,74.6,94.1,62.4,79,62.4z M92.4,103.4l-2.9,6.7c-0.3,0.7-1,1.2-1.8,1.2c-0.3,0-0.5-0.1-0.8-0.2c-0.7-0.3-1.2-1-1.2-1.8
		c0-0.3,0-0.5,0.2-0.8l0.4-0.9c-1.7,0.7-3.5,1.2-5.3,1.3c-0.7,0.1-1.4,0.1-2.1,0.1c-4.4,0-8.7-1.5-12.1-4.3c-4-3.2-6.5-7.9-7.1-13
		c-0.3-3.2,0.1-6.4,1.3-9.4c0.3-0.8,1-1.2,1.8-1.2c0.2,0,0.5,0,0.8,0.1c1,0.4,1.5,1.5,1.1,2.5c-1,2.3-1.3,4.9-1.1,7.5
		c0.4,4.1,2.4,7.8,5.6,10.4c3.2,2.6,7.2,3.8,11.3,3.4c1.7-0.2,3.4-0.6,4.9-1.4l-2.4-0.4c-1.1-0.2-1.8-1.2-1.6-2.2
		c0.2-1.1,1.2-1.8,2.2-1.6h0l7.2,1.2c0.6,0.1,1.1,0.5,1.4,1C92.6,102.2,92.7,102.8,92.4,103.4z M96.9,96.8c-0.3,0.8-1,1.2-1.8,1.2
		c-1.1,0-1.9-0.9-1.9-2c0-0.2,0-0.5,0.1-0.7c0.9-2.3,1.2-4.8,1-7.3c-0.4-4.1-2.4-7.8-5.6-10.4c-3.2-2.6-7.2-3.8-11.3-3.4
		c-1.6,0.2-3.2,0.6-4.7,1.3l2.1,0.4c1.1,0.2,1.8,1.2,1.6,2.2s-1.2,1.8-2.2,1.6L67,78.6c-1.1-0.2-1.8-1.2-1.6-2.3
		c0-0.2,0.1-0.3,0.1-0.5l2.9-6.7c0.4-1,1.6-1.4,2.6-1c0.7,0.3,1.2,1,1.2,1.8c0,0.3-0.1,0.5-0.2,0.8l-0.5,1.1
		c1.7-0.7,3.5-1.2,5.4-1.4c5.1-0.5,10.2,1,14.2,4.2c4,3.2,6.5,7.9,7.1,13C98.5,90.8,98.1,94,96.9,96.8z"/>
	<ellipse class="st6" cx="42.2" cy="14.8" rx="38.3" ry="10.9"/>
	<path class="st3" d="M91,100.7l-7.2-1.2c0,0,0,0,0,0c-1.1-0.2-2.1,0.5-2.2,1.6c-0.2,1.1,0.5,2.1,1.6,2.2l2.4,0.4
		c-1.6,0.7-3.2,1.2-4.9,1.4c-4.1,0.4-8.1-0.8-11.3-3.3c-3.2-2.6-5.2-6.3-5.6-10.4c-0.3-2.5,0.1-5.1,1.1-7.5c0.4-1-0.1-2.1-1.1-2.5
		c0,0,0,0,0,0c-1-0.4-2.1,0.1-2.5,1.1c-1.2,2.9-1.7,6.2-1.3,9.3c0.5,5.1,3,9.7,7.1,13c3.5,2.8,7.7,4.3,12.1,4.3c0.7,0,1.4,0,2.1-0.1
		c1.8-0.2,3.6-0.6,5.3-1.3l-0.4,0.9c0,0,0,0,0,0c-0.4,1,0,2.1,1,2.6c0.2,0.1,0.5,0.2,0.8,0.2c0.8,0,1.5-0.5,1.8-1.2l2.9-6.7
		c0.2-0.5,0.2-1.2-0.1-1.7C92.1,101.2,91.6,100.8,91,100.7z"/>
	<path class="st3" d="M91.1,74.7c-4-3.2-9-4.7-14.2-4.2c-1.9,0.2-3.7,0.7-5.4,1.4l0.5-1.1c0,0,0,0,0,0c0.4-1,0-2.1-1-2.6
		c-1-0.4-2.1,0-2.6,1l-2.9,6.7c-0.1,0.1-0.1,0.3-0.1,0.5c-0.2,1.1,0.5,2.1,1.6,2.3l7.2,1.2c1.1,0.2,2.1-0.5,2.3-1.6
		c0.2-1.1-0.5-2.1-1.6-2.3l-2.1-0.4c1.5-0.7,3.1-1.1,4.7-1.3c4.1-0.4,8.1,0.8,11.3,3.3c3.2,2.6,5.2,6.3,5.6,10.4
		c0.3,2.5-0.1,4.9-1,7.3c-0.1,0.2-0.1,0.5-0.1,0.7c0,1.1,0.9,2,2,2c0.8,0,1.5-0.5,1.8-1.2c1.1-2.9,1.6-6,1.2-9.1
		C97.7,82.6,95.1,78,91.1,74.7z"/>
	<path class="st3" d="M84.5,59V14.8c0-4.4-4.6-8.2-13.2-10.9C63.5,1.4,53.2,0,42.2,0c-11,0-21.3,1.4-29.1,3.8C4.5,6.6,0,10.4,0,14.8
		v78.2c0,4.4,4.5,8.2,13.2,10.9c7.8,2.5,18.1,3.8,29.1,3.8c3.7,0,7.3-0.2,10.9-0.5C58.7,115.5,68.2,121,79,121
		c17.2,0,31.3-14,31.3-31.3C110.2,74.4,99.1,61.5,84.5,59z M42.2,3.9c23.8,0,38.3,6.3,38.3,10.9c0,4.5-14.6,10.9-38.3,10.9
		c-23.7,0-38.3-6.3-38.3-10.9C3.9,10.2,18.5,3.9,42.2,3.9z M3.9,21.3c2.2,1.7,5.3,3.1,9.3,4.4c7.8,2.5,18.1,3.8,29.1,3.8
		c11,0,21.3-1.4,29.1-3.8c4-1.3,7.1-2.7,9.2-4.4v19.5c0,4.5-14.6,10.9-38.3,10.9c-23.7,0-38.3-6.3-38.3-10.9V21.3z M80.6,47.3v11.2
		c-0.5,0-1,0-1.6,0c-12.9,0-24,7.9-28.8,19c-2.7,0.2-5.3,0.3-8,0.3c-23.7,0-38.3-6.3-38.3-10.9V47.3c2.2,1.7,5.3,3.1,9.2,4.4
		c7.8,2.5,18.1,3.8,29.1,3.8c11,0,21.3-1.4,29.1-3.8C75.3,50.5,78.4,49,80.6,47.3z M42.2,103.8c-23.7,0-38.3-6.3-38.3-10.9V73.4
		c2.2,1.7,5.3,3.2,9.3,4.4c7.8,2.5,18.1,3.8,29.1,3.8c2.2,0,4.4-0.1,6.6-0.2c-0.7,2.7-1.1,5.5-1.1,8.2c0,4.9,1.2,9.6,3.2,13.8
		C48,103.7,45.1,103.8,42.2,103.8z M79,117.1c-15.1,0-27.4-12.3-27.4-27.4c0-15.1,12.3-27.4,27.4-27.4c15.1,0,27.4,12.3,27.4,27.4
		C106.3,104.8,94.1,117.1,79,117.1z"/>
</g>
</svg>
