<?xml version="1.0" encoding="utf-8"?>
<!-- Generator: Adobe Illustrator 24.3.0, SVG Export Plug-In . SVG Version: 6.00 Build 0)  -->
<svg version="1.1" id="Layer_1" xmlns="http://www.w3.org/2000/svg" xmlns:xlink="http://www.w3.org/1999/xlink" x="0px" y="0px"
	 width="127.9px" height="127.9px" viewBox="0 0 127.9 127.9" style="enable-background:new 0 0 127.9 127.9;" xml:space="preserve"
	>
<style type="text/css">
	.st0{fill:#00C8FF;}
	.st1{fill-rule:evenodd;clip-rule:evenodd;fill:#00C8FF;}
	.st2{fill:#185AE9;}
	.st3{fill:#FFFFFF;}
	.st4{fill-rule:evenodd;clip-rule:evenodd;fill:#FFFFFF;}
	.st5{fill:#00B0FB;}
	.st6{fill:#00B0FB;fill-opacity:0.4;}
	.st7{fill:#E4ECF4;}
	.st8{fill:#FFE8A0;}
	.st9{fill:none;}
</style>
<g>
	<g>
		<path class="st5" d="M117.4,113.2v-8.5h-2c0,1.2,0,2.5-0.3,3.8c-1.5,7.7-8.3,13.3-16.2,13.3H28.9c-9.1,0-16.5-7.4-16.5-16.5
			c0-0.2,0-0.4,0-0.6h-2.2v6.4H9.1c2.5,8.7,10.6,14.8,19.8,14.9H99c8.4,0,15.9-5.1,19-12.7H117.4z"/>
	</g>
	<g>
		<path class="st5" d="M10.3,10.3H8.3v2.1C8.3,11.2,9.2,10.3,10.3,10.3z"/>
		<path class="st5" d="M66,12.4v-2.1H64C65.1,10.3,66,11.2,66,12.4z"/>
		<path class="st5" d="M8.3,12.4v2.1h2.1C9.2,14.4,8.3,13.5,8.3,12.4z"/>
		<path class="st5" d="M64,14.4H66v-2.1C66,13.5,65.1,14.4,64,14.4z"/>
		<path class="st6" d="M70.1,58.7V45.4c0-1.1,0.9-2.1,2.1-2.1h3.3L64,31.8L52.4,43.3h3.3c1.1,0,2.1,0.9,2.1,2.1v13.3
			C61.8,57.4,66.1,57.4,70.1,58.7z"/>
		<path class="st5" d="M117.6,4.1H10.3c-3.4,0-6.2,2.8-6.2,6.2v10.3h119.7V10.3C123.8,6.9,121,4.1,117.6,4.1z M66,14.4H8.2v-4.1H66
			V14.4z M90.8,16.5c-2.3,0-4.1-1.8-4.1-4.1c0-2.3,1.8-4.1,4.1-4.1c2.3,0,4.1,1.9,4.1,4.1C94.9,14.7,93,16.5,90.8,16.5z M103.1,16.5
			c-2.3,0-4.1-1.8-4.1-4.1c0-2.3,1.9-4.1,4.1-4.1c2.3,0,4.1,1.9,4.1,4.1C107.3,14.7,105.4,16.5,103.1,16.5z M115.5,16.5
			c-2.3,0-4.1-1.8-4.1-4.1c0-2.3,1.9-4.1,4.1-4.1c2.3,0,4.1,1.9,4.1,4.1C119.6,14.7,117.8,16.5,115.5,16.5z"/>
		<path d="M117.6,0H10.3C4.6,0,0,4.6,0,10.3v90.8c0,5,3.7,9.3,8.6,10.2c1.9,9.7,10.4,16.7,20.2,16.7H99c9.9,0,18.3-7,20.2-16.7
			c5-0.8,8.6-5.1,8.6-10.2V10.3C127.9,4.6,123.3,0,117.6,0z M115.2,110.5c-1.5,7.7-8.3,13.3-16.2,13.3H28.9
			c-9.1,0-16.5-7.4-16.5-16.5c0-7.9,5.6-14.6,13.3-16.2c1.1-0.2,1.9-1.3,1.6-2.4c0,0,0-0.1,0-0.1c-2.2-8.8,3.1-17.8,11.9-20
			c3.1-0.8,6.4-0.6,9.4,0.4c0.8,0.3,1.8,0,2.3-0.7c5.6-7.2,15.9-8.5,23.1-3c1.1,0.9,2.1,1.9,3,3c0.5,0.7,1.5,1,2.3,0.7
			c8.6-3,18,1.6,20.9,10.2c1,3,1.2,6.3,0.4,9.4c-0.3,1.1,0.4,2.2,1.5,2.5c0,0,0.1,0,0.1,0C111.1,92.8,117,101.5,115.2,110.5z
			 M22.9,87.5c-0.8,0.2-1.5,0.5-2.3,0.9V53.6c0-1.1-0.9-2.1-2.1-2.1h-3.3L26.8,40l11.5,11.5h-3.3c-1.1,0-2.1,0.9-2.1,2.1v13.1
			c-6.4,3.7-10.3,10.5-10.3,17.8C22.7,85.6,22.8,86.5,22.9,87.5z M55.7,43.3h-3.3L64,31.8l11.5,11.5h-3.3c-1.1,0-2.1,0.9-2.1,2.1
			v13.3c-4-1.3-8.4-1.3-12.4,0V45.4C57.8,44.2,56.8,43.3,55.7,43.3z M94.9,66.7V53.6c0-1.1-0.9-2.1-2.1-2.1h-3.3L101.1,40l11.5,11.5
			h-3.3c-1.1,0-2.1,0.9-2.1,2.1v34.8c-0.7-0.3-1.5-0.6-2.3-0.9c0.2-1,0.2-2,0.2-3C105.2,77.2,101.3,70.4,94.9,66.7z M123.8,101.1
			c0,2.6-1.7,5-4.1,5.8c-0.1-6.4-3.2-12.3-8.2-16.1V55.7h6.2c1.1,0,2.1-0.9,2.1-2.1c0-0.5-0.2-1.1-0.6-1.5l-16.5-16.5
			c-0.8-0.8-2.1-0.8-2.9,0L83.1,52.2c-0.8,0.8-0.8,2.1,0,2.9c0.4,0.4,0.9,0.6,1.5,0.6h6.2v9.2c-3.7-1.2-7.7-1.3-11.5-0.2
			c-1.5-1.6-3.2-3-5-4.1V47.5h6.2c1.1,0,2.1-0.9,2.1-2.1c0-0.5-0.2-1.1-0.6-1.5L65.4,27.4c-0.8-0.8-2.1-0.8-2.9,0L46,43.9
			c-0.8,0.8-0.8,2.1,0,2.9c0.4,0.4,0.9,0.6,1.5,0.6h6.2v13.1c-1.9,1.1-3.6,2.5-5.1,4.1c-3.8-1-7.7-0.9-11.5,0.2v-9.2h6.2
			c1.1,0,2.1-0.9,2.1-2.1c0-0.5-0.2-1.1-0.6-1.5L28.3,35.7c-0.8-0.8-2.1-0.8-2.9,0L8.9,52.2C8,53,8,54.3,8.9,55.1
			c0.4,0.4,0.9,0.6,1.5,0.6h6.2v35.1c-5.1,3.8-8.1,9.8-8.2,16.1c-2.5-0.9-4.1-3.2-4.1-5.8V24.8h119.7V101.1z M123.8,20.6H4.1V10.3
			c0-3.4,2.8-6.2,6.2-6.2h107.3c3.4,0,6.2,2.8,6.2,6.2V20.6z"/>
		<path d="M64,10.3H10.3c-1.1,0-2.1,0.9-2.1,2.1s0.9,2.1,2.1,2.1H64c1.1,0,2.1-0.9,2.1-2.1S65.1,10.3,64,10.3z"/>
		<circle cx="115.5" cy="12.4" r="4.1"/>
		<circle cx="103.1" cy="12.4" r="4.1"/>
		<circle cx="90.8" cy="12.4" r="4.1"/>
		<path d="M49.5,94.9v-4.1c0-1.1-0.9-2.1-2.1-2.1h-4.1c-1.1,0-2.1,0.9-2.1,2.1v4.1c0,1.1,0.9,2.1,2.1,2.1h4.1c3.4,0,6.2,2.8,6.2,6.2
			v4.1c0,3.4-2.8,6.2-6.2,6.2h-4.1c-3.4,0-6.2-2.8-6.2-6.2v-4.1h4.1v4.1c0,1.1,0.9,2.1,2.1,2.1h4.1c1.1,0,2.1-0.9,2.1-2.1v-4.1
			c0-1.1-0.9-2.1-2.1-2.1h-4.1c-3.4,0-6.2-2.8-6.2-6.2v-4.1c0-3.4,2.8-6.2,6.2-6.2h4.1c3.4,0,6.2,2.8,6.2,6.2v4.1H49.5z"/>
		<path d="M59.8,88.7V97h10.3v4.1H59.8v8.3h10.3v4.1H57.8c-1.1,0-2.1-0.9-2.1-2.1V86.6c0-1.1,0.9-2.1,2.1-2.1h12.4v4.1H59.8z"/>
		<path d="M84.6,84.6h-6.2c-3.4,0-6.2,2.8-6.2,6.2v16.5c0,3.4,2.8,6.2,6.2,6.2h6.2c3.4,0,6.2-2.8,6.2-6.2V90.8
			C90.8,87.4,88,84.6,84.6,84.6z M86.6,107.3c0,1.1-0.9,2.1-2.1,2.1h-6.2c-1.1,0-2.1-0.9-2.1-2.1V90.8c0-1.1,0.9-2.1,2.1-2.1h6.2
			c1.1,0,2.1,0.9,2.1,2.1V107.3z"/>
	</g>
</g>
</svg>
