<?xml version="1.0" encoding="utf-8"?>
<!-- Generator: Adobe Illustrator 24.3.0, SVG Export Plug-In . SVG Version: 6.00 Build 0)  -->
<svg version="1.1" id="Layer_1" xmlns="http://www.w3.org/2000/svg" xmlns:xlink="http://www.w3.org/1999/xlink" x="0px" y="0px"
	 width="117.9px" height="118px" viewBox="0 0 117.9 118" style="enable-background:new 0 0 117.9 118;" xml:space="preserve">
<style type="text/css">
	.st0{fill:#185AE9;}
	.st1{fill:#00B0FB;}
	.st2{fill:#FFFFFF;}
	.st3{fill:#00B0FB;fill-opacity:0.4;}
</style>
<g>
	<path class="st1" d="M18.9,73h-1.6v-1.3l-9.7,3.7c-0.4,0.1-0.7,0.3-1,0.5c-0.2,0.6-0.6,1.1-1.2,1.6c-0.7,0.5-1.6,1-2.1,1.8
		c-0.5,0.7-0.7,1.5-1.3,2.2c-0.3,0.3-0.8,0.9-1.2,1.1C1,83,1.2,84.1,1.3,84.3c0.2,0.6,0.2,1.1,0,1.7h1.1c0.1-1.1,0.3-2.3,0.8-3.3
		c1-2.3,2.9-4.1,5.3-5l10.6-4C18.9,73.4,18.9,73.2,18.9,73z"/>
	<path class="st1" d="M53.9,73.9c0.1,0.1,0.2,0.3,0.3,0.3c0,0,0.1,0,0.1,0c0.1,0,0.2,0,0.3-0.1c1.8-1.4,2.5-3.8,1.6-5.9
		c-0.8-2-2.7-3.3-4.8-3.3c-0.1,0-0.2,0-0.4,0c-0.2,0-0.3,0.1-0.4,0.2c-0.1,0.1-0.1,0.3,0,0.4L53.9,73.9z"/>
	<path class="st3" d="M46.3,2.1C36.2,2.1,28,10.3,28,20.4c0,10.1,8.2,18.2,18.2,18.2c10,0,18.2-8.2,18.2-18.2
		C64.5,10.3,56.3,2.1,46.3,2.1z M52.7,24.2l-7.4,4.2c-0.7,0.4-1.4,0.6-2.2,0.6c-0.7,0-1.5-0.2-2.2-0.6c-1.4-0.8-2.2-2.2-2.2-3.7
		v-8.5c0-1.6,0.8-3,2.2-3.8c1.3-0.8,3-0.8,4.3,0l7.4,4.2v0c1.3,0.8,2.2,2.2,2.2,3.8S54,23.4,52.7,24.2z"/>
	<path class="st1" d="M25.2,93.1c-0.1,0-0.1,0-0.2,0l-4.3,1.6c-0.1,0-0.2,0.1-0.3,0.3c-0.1,0.1-0.1,0.3,0,0.4l4.3,11.2
		c0.7,1.8,2.5,3,4.4,3c0.6,0,1.1-0.1,1.7-0.3l0.4-0.1c0.3-0.1,0.4-0.4,0.3-0.6l-5.8-15.1C25.5,93.2,25.4,93.1,25.2,93.1z"/>
	<path class="st1" d="M35.7,57.4c-0.1-0.2-0.2-0.3-0.4-0.3c0,0-0.1,0-0.1,0c-0.1,0-0.3,0.1-0.4,0.2c-4.3,5.3-9.1,10.7-14.7,14.5
		c-0.2,0.1-0.3,0.4-0.2,0.6l6.7,17.4c0.1,0.2,0.3,0.3,0.5,0.3c0,0,0.1,0,0.1,0c2.6-0.4,5.3-0.7,8.2-0.7c3.7,0,7.6,0.3,12.2,1.1
		c0,0,0.1,0,0.1,0c0.2,0,0.3-0.1,0.4-0.2c0.1-0.1,0.1-0.3,0.1-0.5L35.7,57.4z"/>
	<path class="st3" d="M97.6,25.9c-10,0-18.2,8.2-18.2,18.2c0,10.1,8.2,18.2,18.2,18.2s18.2-8.2,18.2-18.2
		C115.8,34.1,107.6,25.9,97.6,25.9z M102.8,35.5h-1.7c-1.6,0-2.9,1.3-2.9,2.9v2.5h3.1c0.8,0,1.4,0.6,1.4,1.4c0,0.8-0.6,1.4-1.4,1.4
		h-3.1v10.5c0,0.8-0.6,1.4-1.4,1.4c-0.8,0-1.4-0.6-1.4-1.4V43.7h-3.1c-0.8,0-1.4-0.6-1.4-1.4c0-0.8,0.6-1.4,1.4-1.4h3.1v-2.5
		c0-3.1,2.5-5.6,5.6-5.6h1.7c0.8,0,1.4,0.6,1.4,1.4C104.2,34.9,103.5,35.5,102.8,35.5z"/>
	<path class="st3" d="M101.5,89.8H89.2c-0.9,0-1.7,0.8-1.7,1.7v12.3c0,0.9,0.8,1.7,1.7,1.7h12.3c0.9,0,1.7-0.8,1.7-1.7V91.5
		C103.2,90.5,102.4,89.8,101.5,89.8z M95.3,101.7c-2.2,0-4-1.8-4-4c0-2.2,1.8-4,4-4c2.2,0,4,1.8,4,4
		C99.4,99.8,97.6,101.7,95.3,101.7z"/>
	<path class="st2" d="M52.7,16.7L52.7,16.7l-7.4-4.3c-1.3-0.8-3-0.8-4.3,0c-1.4,0.8-2.2,2.2-2.2,3.8v8.5c0,1.6,0.8,3,2.2,3.7
		c0.7,0.4,1.4,0.6,2.2,0.6c0.7,0,1.5-0.2,2.2-0.6l7.4-4.2c1.3-0.8,2.2-2.2,2.2-3.8S54,17.4,52.7,16.7z M51.3,21.7L51.3,21.7L43.9,26
		c-0.7,0.4-1.3,0.1-1.6,0c-0.2-0.1-0.8-0.5-0.8-1.3v-8.5c0-0.8,0.5-1.2,0.8-1.3c0.1-0.1,0.4-0.2,0.8-0.2c0.2,0,0.5,0.1,0.8,0.2
		l7.4,4.2c0.7,0.4,0.8,1.1,0.8,1.4C52.1,20.6,52,21.3,51.3,21.7z"/>
	<path class="st2" d="M95.3,77.2c-11.2,0-20.4,9.1-20.4,20.4c0,11.2,9.1,20.4,20.4,20.4c11.2,0,20.4-9.1,20.4-20.4
		C115.7,86.4,106.6,77.2,95.3,77.2z M95.3,115.9c-10.1,0-18.2-8.2-18.2-18.2c0-10.1,8.2-18.2,18.2-18.2c10.1,0,18.2,8.2,18.2,18.2
		C113.6,107.7,105.4,115.9,95.3,115.9z"/>
	<path class="st2" d="M101.5,87.6H89.2c-2.1,0-3.8,1.7-3.8,3.8v12.3c0,2.1,1.7,3.8,3.8,3.8h12.3c2.1,0,3.8-1.7,3.8-3.8V91.5
		C105.3,89.4,103.6,87.6,101.5,87.6z M103.2,103.8c0,0.9-0.8,1.7-1.7,1.7H89.2c-0.9,0-1.7-0.8-1.7-1.7V91.5c0-0.9,0.8-1.7,1.7-1.7
		h12.3c0.9,0,1.7,0.8,1.7,1.7V103.8z"/>
	<path class="st2" d="M46.3,0C35,0,25.9,9.1,25.9,20.4c0,11.2,9.2,20.4,20.4,20.4c11.2,0,20.4-9.1,20.4-20.4C66.6,9.1,57.5,0,46.3,0
		z M46.3,38.6C36.2,38.6,28,30.4,28,20.4c0-10,8.2-18.2,18.2-18.2c10,0,18.2,8.2,18.2,18.2C64.5,30.4,56.3,38.6,46.3,38.6z"/>
	<path class="st2" d="M97.6,23.8c-11.2,0-20.4,9.1-20.4,20.4c0,11.2,9.2,20.4,20.4,20.4s20.4-9.2,20.4-20.4
		C117.9,32.9,108.8,23.8,97.6,23.8z M97.6,62.4c-10,0-18.2-8.2-18.2-18.2c0-10,8.2-18.2,18.2-18.2s18.2,8.2,18.2,18.2
		C115.8,54.2,107.6,62.4,97.6,62.4z"/>
	<path class="st2" d="M102.8,32.7h-1.7c-3.1,0-5.6,2.5-5.6,5.6v2.5h-3.1c-0.8,0-1.4,0.6-1.4,1.4c0,0.8,0.6,1.4,1.4,1.4h3.1v10.5
		c0,0.8,0.6,1.4,1.4,1.4s1.4-0.6,1.4-1.4V43.7h3.1c0.8,0,1.4-0.6,1.4-1.4c0-0.8-0.6-1.4-1.4-1.4h-3.1v-2.5c0-1.6,1.3-2.9,2.9-2.9
		h1.7c0.8,0,1.4-0.6,1.4-1.4C104.2,33.4,103.5,32.7,102.8,32.7z"/>
	<path class="st2" d="M95.3,93.6c-2.2,0-4,1.8-4,4c0,2.2,1.8,4,4,4c2.2,0,4-1.8,4-4C99.4,95.4,97.6,93.6,95.3,93.6z M95.3,99.5
		c-1,0-1.9-0.9-1.9-1.9c0-1.1,0.8-1.9,1.9-1.9c1,0,1.9,0.8,1.9,1.9C97.2,98.7,96.4,99.5,95.3,99.5z"/>
	<path class="st2" d="M59.3,88.2l-4.3-11.1c-0.1-0.2,0-0.5,0.2-0.6c3.1-1.9,4.5-5.7,3.2-9.1c-1.1-2.9-3.9-4.8-7-4.8
		c-0.5,0-1,0.1-1.5,0.1c0,0-0.1,0-0.1,0c-0.2,0-0.4-0.1-0.5-0.3l-4.3-11.1c-0.6-1.5-1.8-2.5-3.4-2.8c-0.3,0-0.5-0.1-0.8-0.1
		c-1.3,0-2.5,0.6-3.3,1.6c0,0,0,0,0,0c-0.5,0.6-1,1.2-1.5,1.9l-1.3,1.7C30.3,59.2,24.8,66.1,18,70.5c0,0-0.1,0-0.1,0.1L7.6,74.5
		c-6.1,2.3-9.1,9.2-6.8,15.3c1.7,4.5,6.2,7.6,11.1,7.6c1.4,0,2.9-0.3,4.2-0.8l1.5-0.6c0.1,0,0.1,0,0.2,0c0.1,0,0.1,0,0.2,0
		c0.1,0.1,0.2,0.2,0.3,0.3l4.3,11.2c1,2.7,3.7,4.5,6.6,4.5c0.8,0,1.7-0.2,2.5-0.5l1.9-0.7c0.3-0.1,0.5-0.3,0.6-0.6
		c0.1-0.3,0.1-0.6,0-0.9l-6.2-16.3c0-0.1,0-0.3,0-0.4c0.1-0.1,0.2-0.2,0.4-0.2c2.3-0.4,4.7-0.5,7.2-0.5c5.8,0,11.4,0.9,16.7,1.9
		l2.2,0.4c0.3,0.1,0.6,0.1,0.9,0.1c1.3,0,2.5-0.6,3.3-1.6C59.7,91.4,59.9,89.8,59.3,88.2z M50.7,65.2c0.1-0.1,0.2-0.2,0.4-0.2
		c0.1,0,0.2,0,0.4,0c2.1,0,4,1.3,4.8,3.3c0.8,2.1,0.2,4.5-1.7,5.9c-0.1,0.1-0.2,0.1-0.3,0.1c0,0-0.1,0-0.1,0c-0.2,0-0.3-0.2-0.3-0.3
		l-3.2-8.3C50.6,65.5,50.6,65.3,50.7,65.2z M15.2,94.4C14.1,94.8,13,95,11.8,95c-2,0-3.8-0.6-5.4-1.7c-1.6-1.1-2.8-2.6-3.5-4.4
		C2,86.6,2.1,84,3.1,81.6c1-2.3,2.9-4.1,5.3-5l8.9-3.4c0.1,0,0.1,0,0.2,0c0.2,0,0.4,0.1,0.5,0.3l6.5,16.8c0.1,0.3,0,0.6-0.3,0.6
		L15.2,94.4z M31.4,108.5c0.1,0.3,0,0.6-0.3,0.6l-0.4,0.1c-0.5,0.2-1.1,0.3-1.7,0.3c-1.9,0-3.7-1.2-4.4-3l-4.3-11.1
		c-0.1-0.1,0-0.3,0-0.4c0.1-0.1,0.2-0.2,0.3-0.3l4.3-1.6c0.1,0,0.1,0,0.2,0c0.2,0,0.4,0.1,0.5,0.3L31.4,108.5z M48.1,90.3
		c-0.1,0.1-0.2,0.2-0.4,0.2c0,0-0.1,0-0.1,0c-4.6-0.8-8.5-1.1-12.2-1.1c-2.9,0-5.6,0.2-8.2,0.7h-0.1c-0.2,0-0.4-0.1-0.5-0.3L20,72.4
		c-0.1-0.2,0-0.5,0.2-0.6c5.5-3.8,10.3-9.2,14.7-14.5c0.1-0.1,0.2-0.2,0.4-0.2c0,0,0,0,0.1,0c0.2,0,0.3,0.1,0.4,0.3l12.4,32.5
		C48.2,90,48.2,90.2,48.1,90.3z M56.8,91.1c-0.4,0.5-1,0.8-1.6,0.8c-0.1,0-0.3,0-0.4,0c-0.6-0.1-1.2-0.2-1.8-0.4l-1.6-0.3
		c-0.2,0-0.3-0.1-0.4-0.3L37.2,54.8c-0.1-0.2,0-0.4,0.1-0.5c0.7-0.9,1.5-1.8,2.2-2.7c0.4-0.5,1-0.8,1.6-0.8c0.1,0,0.2,0,0.4,0
		c0.8,0.1,1.3,0.6,1.6,1.3l14.2,36.9C57.5,89.8,57.3,90.6,56.8,91.1z"/>
	<path class="st2" d="M60.2,50.2c-0.1-0.1-0.3-0.1-0.5-0.1c-0.5,0-0.9,0.3-1.1,0.7l-2.5,5.6c-0.3,0.6,0,1.3,0.6,1.5
		c0.1,0.1,0.3,0.1,0.5,0.1c0.5,0,0.9-0.3,1.1-0.7l2.5-5.6C61,51.1,60.7,50.4,60.2,50.2z"/>
	<path class="st2" d="M70.6,61.6c-0.1,0-0.3,0-0.4,0.1l-5.7,2.2c-0.6,0.2-0.9,0.9-0.7,1.5c0.2,0.4,0.6,0.7,1.1,0.7
		c0.1,0,0.3,0,0.4-0.1l5.7-2.2c0.6-0.2,0.9-0.9,0.7-1.5C71.5,61.9,71.1,61.6,70.6,61.6z"/>
	<path class="st2" d="M70.7,77.6l-5.6-2.5c-0.1-0.1-0.3-0.1-0.5-0.1c-0.5,0-0.9,0.3-1.1,0.7c-0.3,0.6,0,1.3,0.6,1.5l5.6,2.5
		c0.1,0.1,0.3,0.1,0.5,0.1c0.5,0,0.9-0.3,1.1-0.7c0.1-0.3,0.1-0.6,0-0.9C71.1,78,70.9,77.8,70.7,77.6z"/>
</g>
</svg>
