<?xml version="1.0" encoding="utf-8"?>
<!-- Generator: Adobe Illustrator 24.3.0, SVG Export Plug-In . SVG Version: 6.00 Build 0)  -->
<svg version="1.1" id="Layer_1" xmlns="http://www.w3.org/2000/svg" xmlns:xlink="http://www.w3.org/1999/xlink" x="0px" y="0px"
	 width="157.9px" height="118px" viewBox="0 0 157.9 118" style="enable-background:new 0 0 157.9 118;" xml:space="preserve">
<style type="text/css">
	.st0{fill:#185AE9;}
	.st1{fill:#00B0FB;}
	.st2{fill:#FFFFFF;}
	.st3{fill:#00B0FB;fill-opacity:0.4;}
</style>
<g>
	<path class="st1" d="M143.6,11.7h0.6V7.1h1.4c-1.2-3.4-4.2-5.7-8.2-6c-2-0.2-4-0.1-6.1-0.1c-36,0-72,0-108,0
		c-1.3,0-2.6-0.1-3.9,0.2c-2.3,0.5-4.3,1.8-5.6,3.6v10.9h0.8c0-1.9,0-3.4,0-4.4c-0.1-4.5,3.5-7.7,7.7-7.7c24.6,0.1,49.2,0,73.7,0
		c13.5,0,27,0,40.5,0c4,0,7.1,3.1,7.1,7C143.6,11,143.6,11.4,143.6,11.7z"/>
	<path class="st2" d="M157.9,98.5c-0.1-3.3-1.9-5.1-5.1-5.2c-1.9,0-3.8,0-5.7,0c-0.6,0-0.8-0.1-0.8-0.8c0-4.4,0-8.9,0-13.3
		c0-0.6,0.2-0.8,0.7-1c2.3-0.7,4.6-1.5,7-2.2c1.9-0.6,3.4-1.8,3.7-3.9c0.5-2.8-0.9-4.9-3.8-5.9c-2.2-0.8-4.5-1.6-6.7-2.4
		c-0.7-0.2-0.9-0.5-0.9-1.2c0-9.6,0-19.1,0-28.7c0-8.1,0-16.1,0-24.2c0-5.2-3.6-9.2-8.8-9.6c-2-0.2-4-0.1-6.1-0.1c-36,0-72,0-108,0
		c-1.3,0-2.6-0.1-3.9,0.2c-4.4,1-7.5,4.8-7.5,9.3c0,5.5,0,28.9,0,43.4c0,0,0,0.1,0,0.1c-0.1,0.3-0.1,0.7-0.1,1.1
		c0,12.8,0,25.5,0,38.3c0,0.7-0.2,0.9-0.9,0.9c-2,0-4-0.1-6.1,0C1.9,93.5,0,95.5,0,98.4c0,0.6,0,1.1,0,1.7
		C0.2,110.3,7.9,118,18.1,118c20.3,0,40.5,0,60.8,0c20.3,0,40.6,0,60.9,0c0.9,0,1.9,0,2.8-0.2c5.3-0.8,9.6-3.4,12.5-8
		C157.3,106.4,158,102.6,157.9,98.5z M152.9,68.6c1.3,0.5,2.1,1.3,2.1,2.5c0,1.1-0.7,2-2.1,2.4c-4.7,1.5-9.4,3-14.1,4.5
		c-1.8,0.6-2.9,1.7-3.2,3.6c-0.9,4.6-2,9.1-3,13.6c-0.3,1.4-1.2,2.3-2.4,2.3c-1,0.1-2-0.7-2.4-2c-2.7-7.6-5.4-15.3-8.1-22.9
		c-1.5-4.1-3-8.2-4.4-12.3c-0.2-0.6-0.5-1.3-0.5-1.9c0-1.8,1.6-2.8,3.5-2.2c1.9,0.7,3.7,1.3,5.6,2C133.4,61.7,143.2,65.1,152.9,68.6
		z M143.6,86.4c0,2.1,0,4.1,0,6.2c0,0.6-0.1,0.8-0.8,0.8c-2.1,0-4.3,0-6.4,0c-0.6,0-0.7-0.1-0.6-0.7c0.8-3.4,1.5-6.7,2.2-10.1
		c0.2-1.1,0.8-1.8,1.9-2.1c1-0.3,1.9-0.6,2.9-0.9c0.6-0.2,0.8-0.1,0.8,0.5C143.6,82.1,143.6,84.3,143.6,86.4z M22.2,2.6
		c24.6,0.1,49.2,0,73.7,0c13.5,0,27,0,40.5,0c4,0,7.1,3.1,7.1,7c0,10.6,0,21.2,0,31.8c0,6.6,0,13.2,0,19.8c0,1.2,0,1.2-1.2,0.8
		c-3.3-1.2-6.6-2.4-9.9-3.5c-4.6-1.6-9.1-3.3-13.7-4.9c-2.1-0.7-3.9-0.4-5.5,1.2c-1.6,1.5-1.8,3.3-1.1,5.3
		c3.8,10.7,7.7,21.4,11.5,32.2c0.4,1,0.4,1-0.7,1c-18.4,0-36.9,0-55.3,0c-17.5,0-34.9,0-52.4,0c-0.7,0-0.9-0.3-0.9-0.9
		c0-9.2,0-18.4,0-27.7c0.1-0.4,0.1-0.7,0.1-1.1c0-7.1,0.1-46.2,0-53.3C14.4,5.9,18,2.6,22.2,2.6z M109.3,99.1c0,2.7-2.1,4.8-4.8,4.8
		c-7.1,0-14.3,0-21.4,0c-9.7,0-19.4,0-29.1,0c-3.4,0-5.3-1.9-5.3-5.2c0-0.5,0-1,0-1.5c0-1,0.2-1.2,1.2-1.2c1.6,0,3.2,0,4.8,0
		c8.1,0,16.2,0,24.3,0c0,0,0,0,0,0c9.5,0,19.1,0,28.6,0c0.3,0,0.6,0,0.8,0c0.5,0.1,0.8,0.3,0.8,1C109.2,97.7,109.3,98.4,109.3,99.1z
		 M148.3,112.9c-2.7,1.7-5.6,2.5-8.8,2.5c-20.1,0-40.3,0-60.4,0c-20.3,0-40.6,0-60.9,0c-7.6,0-13.7-5.1-15.2-12.5
		c-0.3-1.4-0.3-2.9-0.3-4.4c0.1-1.4,0.9-2.2,2.2-2.5c0.4-0.1,0.8-0.1,1.2-0.1c13,0,25.9,0,38.9,0c0.8,0,1,0.2,1,1
		c0,1.9-0.2,3.8,0.8,5.5c1.4,2.6,3.6,4.1,6.6,4.1c16.9,0,33.8-0.1,50.7,0c4.8,0,8.3-3.8,7.9-8.1c-0.1-0.6,0-1.2,0-1.9
		c-0.1-0.7,0.2-0.8,0.8-0.8c3.8,0,7.7,0,11.5,0c0.5,0,0.7,0.2,0.9,0.7c0.5,1.4,1.2,2.6,2.7,3.2c2.8,1.2,5.9-0.1,6.9-3
		c0.2-0.6,0.4-0.9,1.2-0.8c5.2,0,10.4,0,15.7,0c0.4,0,0.9,0,1.3,0.1c1.3,0.3,2.2,1.1,2.2,2.4C155.3,104.4,153.6,109.5,148.3,112.9z"
		/>
	<path class="st2" d="M65.6,53.8c-1.4,2.3-2.6,4.4-4,6.6c-3.3,5.3-6.4,10.6-9,16.3c-1.1,2.3-2.6,4.3-4.7,5.7
		c-9.1,6.5-21.3,1.2-23.3-8.8c-0.6-3.2-0.1-6.2,1.3-9.2c1.3-2.7,2.8-5.2,4.4-7.8c3.8-6.3,7.6-12.7,11.4-19.1
		c3.4-5.7,7-11.4,10.1-17.3c1.2-2.2,2.6-4.2,4.7-5.8c6.4-4.7,15.5-3,19.7,3.9c6.3,10.5,12.6,21,18.9,31.5c3,5.1,6.1,10.1,9.1,15.1
		c4.1,6.9,0.7,15.8-6.9,18.6c-5.8,2.1-11.7,0.7-15.7-3.7c-1.8-2.1-3.1-4.6-4.5-7C73.3,66.7,69.5,60.3,65.6,53.8z M64.7,14.6
		c-0.7,0-1.4,0.1-2.1,0.2c-7.4,1.4-11.3,9.6-7.6,16c1.6,2.8,3.3,5.5,5,8.3c3.8,6.4,7.7,12.9,11.5,19.3c3.6,6.1,7.2,12.2,11,18.2
		c1.9,3.1,4.7,5,8.3,5.3c4.5,0.4,8.3-1.2,10.8-5c2.4-3.6,2.1-7.5-0.1-11.1C94.7,54.5,87.9,43.3,81.2,32c-2.5-4.2-4.8-8.5-7.5-12.6
		C71.6,16.2,68.5,14.7,64.7,14.6z M51.1,27.7c-0.8,1-18,29.8-18.2,30.3c9-3.8,18.8,1.4,20.8,10.3c0.2-0.3,0.3-0.5,0.5-0.7
		c1.2-2,2.4-3.9,3.6-5.9c2-3.3,4-6.7,6-10c0.2-0.3,0.3-0.6,0.1-1.1c-3.5-5.8-7-11.6-10.5-17.4C52.3,31.5,51.3,29.8,51.1,27.7z
		 M51.2,71c0-0.5-0.1-1.1-0.1-1.6c-1-6-6-10.1-12.2-9.9c-7.5,0.1-13,7-11.3,14.1c1.4,6.1,7.8,10,14.1,8.8
		C47.2,81.2,51.2,76.4,51.2,71z"/>
	<path class="st2" d="M116.5,39.4c-5.4,0-10.8,0-16.2,0c-0.3,0-0.7,0-1-0.1c-0.5-0.2-0.7-0.6-0.8-1.1c0-0.6,0.2-1,0.7-1.2
		c0.4-0.2,0.8-0.2,1.2-0.2c10.8,0,21.6,0,32.3,0c1.4,0,2.1,0.8,1.6,1.9c-0.3,0.7-0.9,0.8-1.5,0.8c-4.4,0-8.8,0-13.2,0
		C118.6,39.4,117.5,39.4,116.5,39.4C116.5,39.4,116.5,39.4,116.5,39.4z"/>
	<path class="st2" d="M116.5,19.4c-5.4,0-10.8,0-16.3,0c-1.1,0-1.7-0.4-1.7-1.3c0-0.7,0.3-1.1,1-1.2c0.4-0.1,0.8-0.1,1.3-0.1
		c10.5,0,21,0,31.4,0c0.3,0,0.7,0,1,0c0.8,0.1,1.2,0.6,1.2,1.4c0,0.7-0.5,1.2-1.3,1.3c-1.1,0-2.2,0-3.4,0
		C125.4,19.4,120.9,19.4,116.5,19.4C116.5,19.4,116.5,19.4,116.5,19.4z"/>
	<path class="st2" d="M108.5,26.6c2.7,0,5.4,0,8.2,0c1.2,0,1.8,0.5,1.8,1.4c0,0.9-0.7,1.3-1.8,1.3c-5.5,0-10.9,0-16.4,0
		c-1.1,0-1.7-0.4-1.7-1.3c0-0.9,0.6-1.4,1.7-1.4C103,26.6,105.8,26.6,108.5,26.6C108.5,26.6,108.5,26.6,108.5,26.6z"/>
	<path class="st3" d="M79.1,115.4c-20.3,0-40.6,0-60.9,0c-7.6,0-13.7-5.1-15.2-12.5c-0.3-1.4-0.3-2.9-0.3-4.4
		c0.1-1.4,0.9-2.2,2.2-2.5c0.4-0.1,0.8-0.1,1.2-0.1c13,0,25.9,0,38.9,0c0.8,0,1,0.2,1,1c0,1.9-0.2,3.8,0.8,5.5
		c1.4,2.6,3.6,4.1,6.6,4.1c16.9,0,33.8-0.1,50.7,0c4.8,0,8.3-3.8,7.9-8.1c-0.1-0.6,0-1.2,0-1.9c-0.1-0.7,0.2-0.8,0.8-0.8
		c3.8,0,7.7,0,11.5,0c0.5,0,0.7,0.2,0.9,0.7c0.5,1.4,1.2,2.6,2.7,3.2c2.8,1.2,5.9-0.1,6.9-3c0.2-0.6,0.4-0.9,1.2-0.8
		c5.2,0,10.4,0,15.7,0c0.4,0,0.9,0,1.3,0.1c1.3,0.3,2.2,1.1,2.2,2.4c0.1,5.9-1.6,11.1-6.9,14.5c-2.7,1.7-5.6,2.5-8.8,2.5
		C119.4,115.4,99.2,115.4,79.1,115.4z"/>
	<path class="st3" d="M114.6,58.4c0-1.8,1.6-2.8,3.5-2.2c1.9,0.7,3.7,1.3,5.6,2c9.7,3.5,19.5,7,29.2,10.4c1.3,0.5,2.1,1.3,2.1,2.5
		c0,1.1-0.7,2-2.1,2.4c-4.7,1.5-9.4,3-14.1,4.5c-1.8,0.6-2.9,1.7-3.2,3.6c-0.9,4.6-2,9.1-3,13.6c-0.3,1.4-1.2,2.3-2.4,2.3
		c-1,0.1-2-0.7-2.4-2c-2.7-7.6-5.4-15.3-8.1-22.9c-1.5-4.1-3-8.2-4.4-12.3C114.9,59.7,114.6,59.1,114.6,58.4z"/>
	<path class="st1" d="M64.7,14.6c3.8,0.1,6.8,1.6,8.9,4.8c2.7,4.1,5,8.4,7.5,12.6c6.8,11.3,13.6,22.5,20.3,33.8
		c2.2,3.7,2.5,7.5,0.1,11.1c-2.5,3.9-6.3,5.4-10.8,5c-3.7-0.3-6.4-2.3-8.3-5.3c-3.7-6-7.3-12.1-11-18.2C67.7,52,63.9,45.5,60,39.1
		c-1.7-2.8-3.4-5.5-5-8.3c-3.7-6.4,0.2-14.6,7.6-16C63.3,14.7,64,14.6,64.7,14.6z"/>
	<path class="st1" d="M51.1,27.7c0.3,2.1,1.2,3.9,2.3,5.6c3.5,5.8,7,11.6,10.5,17.4c0.3,0.4,0.1,0.7-0.1,1.1c-2,3.3-4,6.7-6,10
		c-1.2,2-2.4,3.9-3.6,5.9c-0.1,0.2-0.3,0.4-0.5,0.7C51.7,59.4,41.9,54.1,32.9,58C33.1,57.4,50.3,28.6,51.1,27.7z"/>
	<path class="st1" d="M51.2,71c0,5.5-4,10.2-9.6,11.3c-6.4,1.2-12.7-2.7-14.1-8.8c-1.6-7.1,3.9-14,11.3-14.1
		C45,59.3,50,63.4,51,69.4C51.1,69.9,51.1,70.4,51.2,71z"/>
</g>
</svg>
