<?xml version="1.0" encoding="utf-8"?>
<!-- Generator: Adobe Illustrator 24.3.0, SVG Export Plug-In . SVG Version: 6.00 Build 0)  -->
<svg version="1.1" id="Layer_1" xmlns="http://www.w3.org/2000/svg" xmlns:xlink="http://www.w3.org/1999/xlink" x="0px" y="0px"
	 viewBox="0 0 551.28 448.99" style="enable-background:new 0 0 551.28 448.99;" xml:space="preserve">
<style type="text/css">
	.st0{fill:#FFFFFF;}
	.st1{fill:#DBDBDB;}
</style>
<g>
	<path class="st0" d="M101.69,119.63l-9.35-9.79l-3.14-10.83c0,0,3.46-15.79,4.03-16.32c0.57-0.53,18.05-20.92,18.05-20.92
		l21.85-2.91c0,0,19.3-2.58,22.76-0.56s12.2,2.02,12.2,2.02l-0.14,12.77l4.43,14.6l-2.83,23.61l-0.43,8.33l-6.25,14.54l-4.99,7.3
		l-4.96,6.95l-13.96,2.2l9.14,12.62l5.04,14.53l-2.53,18l-38.54-15.14l-18.83-26.87l7.85-8.96l1.46-10.2L101.69,119.63z"/>
	<g>
		<path d="M112.57,132.23c0.57,0.54,1.17,1.06,1.72,1.62c6.2,6.37,13.3,11.52,21.8,14.15c3.68,1.13,7.86,1.08,11.77,0.83
			c1.79-0.12,3.98-1.66,5.08-3.2c3.48-4.84,6.74-9.86,9.68-15.04c3.74-6.6,5.6-13.74,5.24-21.45c-0.14-3.04,0.35-6.15,0.87-9.17
			c0.61-3.58-0.73-5.66-4.39-5.9c-1.46-0.09-2.95,0.34-4.43,0.31c-0.93-0.01-1.86-0.42-2.79-0.65c0.73-0.81,1.34-2.16,2.2-2.34
			c3.66-0.75,7.37-1.06,10.61,2.76c1.1-7.74,0.69-14.61-1.98-21.06c4.34-1.91,8.79-3.37,12.69-5.73c4.09-2.48,5.8-6.9,6.56-11.92
			c2.54,5.27,0.07,11.94-6.02,17.02c2.07,8.04-0.37,14.78-6.36,20.41c-0.35,0.33-0.77,0.74-0.86,1.17
			c-0.87,4.27-2.64,8.62-2.34,12.81c0.95,13-3.72,23.96-10.73,34.33c-0.5,0.74-1.04,1.46-1.49,2.23c-2.77,4.64-5.39,9.45-11.23,9.46
			c4.76,5.29,9.49,10.57,14.24,15.82c0.39,0.43,0.9,0.8,1.42,1.07c8.74,4.53,17.37,9.29,26.26,13.49
			c11.81,5.57,17.98,15.51,21.29,27.35c2.97,10.61,4.91,21.51,7.34,32.27c1.12,4.96-0.01,4.49,5.42,4.54
			c25.68,0.26,51.37,0.43,77.05,0.64c7.43,0.06,9.95,3.73,7.23,10.56c-9.23,23.2-18.62,46.33-27.55,69.64
			c-1.33,3.47-1.7,7.24-4.56,9.98c-0.43,0.41-0.68,1.21-1.15,1.33c-3.8,0.99-4.9,4.64-7.32,6.96c-1.99,1.91-5.23,2.51-7.93,3.68
			c-1.44,0.62-2.85,1.42-4.35,1.77c-2.66,0.61-5.38,1.06-8.09,1.35c-2.19,0.24-4.46-0.11-6.62,0.25c-5.49,0.91-9.74-1.72-14.09-4.38
			c-1.41-0.86-3.09-1.48-4.73-1.71c-4.69-0.68-9.41-1.1-14.12-1.63c-1.06-0.12-2.12-0.28-3.62-0.48c0.76,5.81,1.54,11.27,2.17,16.76
			c2,17.5,3.98,35,5.81,52.51c0.14,1.34-0.89,2.89-1.63,4.2c-0.41,0.72-1.28,1.38-2.08,1.65c-5.51,1.81-5.73,5.99-5.41,10.83
			c0.35,5.23,0.08,10.5,0.08,16c-17.23,0-34.49,0-52.08,0c0.76-6.66,1.5-13.13,2.24-19.59c-2.32-0.87-2.58,0.35-2.81,1.91
			c-0.77,5.21-1.68,10.41-2.47,15.62c-0.25,1.65-0.95,2.32-2.73,2.31c-29.57-0.1-59.13-0.13-88.7-0.19c-0.09,0-0.19-0.06-0.54-0.19
			c-0.05-0.63-0.17-1.38-0.16-2.13c0.07-7.37,0.07-14.74,0.31-22.1c0.07-2.1-0.53-3.12-2.56-3.5c-1.06-0.2-2.08-0.68-3.09-1.09
			c-3.93-1.6-4.94-2.99-4.66-7.27c1.1-16.58,2.31-33.15,3.46-49.73c0.24-3.47,0.43-6.94,0.67-10.79c-0.95-0.09-1.89-0.21-2.82-0.26
			c-4.14-0.23-7.8-1.35-10.36-4.97c-0.49-0.69-1.61-0.99-2.49-1.35c-3.66-1.52-7.61-2.55-10.97-4.57
			c-9.84-5.92-13.34-15.57-13.76-26.35c-1.05-26.91,0.13-53.75,4.54-80.35c1.74-10.48,4.34-20.81,6.69-31.18
			c2.12-9.35,8.29-15.64,16.11-20.58c12.34-7.8,25.81-13.26,39.22-18.83c2.25-0.94,4.26-1.84,5.8-4.18
			c2.61-3.97,5.81-7.59,9.12-11.02c1.42-1.47,3.62-2.44,5.65-2.97c1.67-0.44,2.36-1.02,2.42-2.67c0.2-5.74,0.56-11.48,0.65-17.23
			c0.04-2.75-1.39-4.7-3.85-6.21c-6.94-4.27-11.05-17.45-8.17-25.1c0.41-1.08,0.36-2.5,0.07-3.65c-1.92-7.6-3.13-15.28-1.27-23.02
			c2.3-9.54,7.65-16.51,17.55-19.25c0.55-0.15,1.16-0.38,1.56-0.77c11.78-11.17,25.88-13.79,41.24-10.72
			c6.98,1.4,13.72,4,20.63,5.81c3.46,0.91,7.06,1.07,10.47-0.57c1.03,4.57-1.02,7.94-7.16,11.66c3.62,1.39,9.14,0.36,14.36-2.76
			c0.16,0.57,0.4,1.08,0.43,1.6c0.43,7.68-3.21,13.7-10.17,16.95c-11.72,5.48-23.38,5.84-34.98-0.37c-0.61-0.33-1.24-0.63-1.86-0.94
			c-0.08-0.04-0.2-0.02-0.3-0.03c-2.44,6.63-9.61,6.98-15.11,4.08c-0.61,3.03-0.99,6.06-1.89,8.92c-0.53,1.67-1.57,3.55-2.95,4.51
			c-4.92,3.43-7.96,7.75-7.87,13.9c0.03,2.02-1.22,2.8-2.8,2.61c-0.98-0.12-2.15-1.02-2.69-1.91c-1.38-2.27-2.05-5.1-3.79-6.98
			c-1.35-1.45-4-2.63-5.87-2.38c-1.46,0.19-3.19,2.55-3.81,4.29c-2.34,6.58,0.77,16.35,6.26,20.87c1.64,1.35,3.38,2.11,5.49,1.14
			c1.45-0.67,2.22-0.23,2.52,1.36c0.33,1.75,0.81,3.47,1.32,5.62c-0.89-0.62-1.5-1.03-2.33-1.61c-0.25,5.42-0.25,10.58-0.79,15.68
			c-0.5,4.73-1.68,9.39-2.35,14.11c-0.19,1.35-0.14,3.13,0.58,4.16c4.26,6.11,8.73,12.09,13.21,18.05c0.49,0.65,1.45,1.02,2.25,1.37
			c5.28,2.33,10.58,4.6,15.86,6.94c3.88,1.72,11.75-0.01,14.23-3.36c0.42-0.57,0.42-1.82,0.1-2.51c-0.9-1.93-2.08-3.74-3.15-5.59
			c-0.29,0.04-0.59,0.09-0.88,0.13c-0.17,1.28-0.5,2.56-0.48,3.84c0.02,1.18,0.4,2.36,0.2,3.61c-3.72-4.6-1.64-10.08-2.14-15.38
			c-8.99-2.95-15.97-8.76-21.48-16.3c-3.03-4.15-5.55-8.69-8.29-13.05C112.04,132.64,112.31,132.44,112.57,132.23z M77.53,238.76
			c0.33,0.03,0.67,0.06,1,0.09c0.17,1.08,0.63,2.2,0.46,3.22c-1.15,6.74-1.6,13.77-3.88,20.12c-3.33,9.28-3.72,18.39-2,27.87
			c0.4,2.19,1.2,3.56,3.44,4.24c3.39,1.02,6.1,3.12,7.28,6.54c0.61,1.75,1.56,2.24,3.21,2.38c8.91,0.77,17.83,1.48,26.71,2.49
			c5.27,0.6,10.24,0,15.15-1.96c2.05-0.82,2.8-1.9,2.74-4.17c-0.53-20.1-0.5-40.22-1.52-60.29c-0.67-13.19-2.74-26.31-4.31-39.44
			c-0.16-1.32-0.89-3.01-1.92-3.72c-3.84-2.65-7.98-4.85-11.86-7.44c-1.6-1.07-2.54-0.94-3.79,0.4c-2.5,2.7-5.08,5.33-7.74,7.88
			c-2.15,2.07-4.1,1.79-5.59-0.75c-0.9-1.54-1.66-3.17-2.37-4.81c-3.8-8.73-7.56-17.47-11.36-26.26c-0.23,0-0.56-0.09-0.81,0.01
			c-14.2,6.01-28.54,11.73-41.64,19.99c-2.6,1.64-4.81,3.9-7.19,5.88c0.1,0.24,0.21,0.48,0.31,0.72c6.14-1,11.47,0.86,16.23,4.48
			c5.94,4.52,9.98,10.57,12.85,17.32c6.44,15.2,10.02,31.01,9.06,47.64c-0.04,0.65,0,1.3,0,1.94c0.27,0.06,0.54,0.13,0.82,0.19
			C74.92,255.74,76.19,247.24,77.53,238.76z M62.04,369.85c-0.14-0.03-0.29-0.06-0.43-0.1c0.17-1.96,0.46-3.92,0.46-5.88
			c0-0.74-0.7-1.48-1.08-2.21c-0.61,0.42-1.36,0.73-1.8,1.28c-2.95,3.73-5.02,7.86-5.45,12.7c-1.02,11.48-1.94,22.98-3.17,34.44
			c-0.32,3.02,0.88,4,3.42,4.71c11.01,3.08,21.96,6.36,32.97,9.41c10,2.77,20.17,4.63,30.61,4.49c4.69-0.06,5.9-0.95,6.32-5.65
			c2.11-23.58,4.07-47.18,6.16-70.77c0.19-2.09-0.63-2.82-2.52-3.16c-4.11-0.73-8.26-1.38-12.26-2.52
			c-1.84-0.52-4.03-1.77-4.88-3.33c-1.22-2.22-2.5-2.24-4.3-1.5c-9.01,3.68-18.13,7.12-26.96,11.2c-6.41,2.96-11.54,7.74-15.23,13.9
			C63.29,367.87,62.66,368.86,62.04,369.85z M64.26,271.18c0.28-0.06,0.57-0.12,0.85-0.17c0.27-0.84,0.57-1.68,0.82-2.53
			c0.22-0.76,0.42-1.53,0.55-2.32c2.27-14.28,0.32-28.17-4.07-41.78c-2.7-8.39-6.36-16.32-12.47-22.88
			c-4.7-5.04-10.34-7.94-17.44-7.61c-2.74,0.13-4.59,1.2-5.31,3.88c-2.33,8.63-5.1,17.17-6.82,25.92
			c-3.63,18.49-5.13,37.26-5.81,56.06c-0.45,12.4-1.64,24.83,0.38,37.24c0.95,5.84,2.78,11.21,6.93,15.54
			c3.32,3.45,7.49,5.18,12.59,6.08c-4.31-15.2-0.48-27.97,8.91-39.5c-7.06,3.25-12.32,8.53-16.99,15.52c0-1.33-0.09-1.82,0.01-2.26
			c1.69-7.05,12.18-16.52,19.25-17.68c3.14-0.52,6.18-1.56,9.27-2.36c0.02-0.27,0.03-0.53,0.05-0.8c-0.92-0.48-1.8-1.05-2.75-1.42
			c-9.44-3.65-18.32-2.2-26.82,2.92c-0.84,0.51-1.88,0.67-2.83,0.99c-0.1-0.31-0.21-0.62-0.31-0.93c3.51-3.9,8.06-6.16,13.07-7.16
			c8.34-1.67,16.43-1.31,23.33,4.7c1.22,1.06,3.68,0.23,3.88-1.46c0.39-3.31,1.02-6.79,0.41-9.98c-1.32-6.82-3.39-13.49-5.1-20.24
			c-0.78-3.08-1.52-6.19-2.09-9.32c-0.57-3.13-1.06-6.29-1.29-9.46c-0.22-3.04-0.05-6.12-0.05-8.73
			C57.65,244.45,60.96,257.82,64.26,271.18z M201,247.2c4.7,0,9.1,0,13.8,0c-0.73-3.68-1.28-7.09-2.1-10.45
			c-2.52-10.32-4.93-20.67-7.84-30.88c-0.99-3.49-3.32-6.59-5.04-9.87c-0.23,0.12-0.47,0.25-0.7,0.37
			c1.48,11.65,2.66,23.29-0.14,34.91c-0.38-0.64-0.37-1.29-0.38-1.93c-0.23-11.33,0.29-22.68-1.81-33.93
			c-0.47-2.54-1.55-4.26-3.65-5.4c-6.65-3.58-13.35-7.08-20.03-10.6c-1.86-0.98-3.74-1.93-5.49-2.83c2.38,5.16,4.8,10.15,6.94,15.25
			c0.39,0.92-0.34,2.3-0.55,3.46c-1.08-0.22-2.39-0.14-3.2-0.73c-3.12-2.27-6.09-4.75-9.17-7.2c-1.51,2.65-3.07,5.19-4.4,7.84
			c-0.51,1.01-0.87,2.35-0.67,3.43c3.04,16.73,6.59,33.37,9.16,50.16c2.13,13.95,3.11,28.07,4.67,42.11
			c0.11,1.01,0.61,2.44,1.37,2.83c2.04,1.06,4.32,1.68,6.52,2.47c0.02-0.03,0.11-0.1,0.14-0.19c5.16-14.29,10.33-28.58,15.44-42.9
			c0.28-0.79,0.21-1.78,0.08-2.64c-1.8-11.48-3.64-22.96-5.47-34.43c-0.25-1.58-0.52-3.16-0.79-4.73c0.32-0.07,0.64-0.13,0.96-0.2
			c3.94,10.98,7.02,22.2,8.58,33.85c0.33,0.02,0.66,0.03,0.99,0.05c1.06-6.05,2.12-12.09,3.17-18.14c0.29,0.04,0.57,0.08,0.86,0.11
			C203.55,233.67,201.89,240.24,201,247.2z M175.44,304.53c2.14-4.39,1.96-4.87-2.57-6.24c-3.8-1.16-7.68-2.09-11.41-3.45
			c-2.89-1.05-5.35-0.68-7.95,0.77c-6.35,3.52-12.77,6.91-19.19,10.31c-5.74,3.04-11.78,4.75-18.36,4.11
			c-12.76-1.23-25.55-2.29-38.29-3.68c-3.66-0.4-6.65-0.1-8.98,3.02c-6.2,8.32-7.24,17.41-4.27,27.17c0.66,2.16,1.98,2.99,4.24,2.74
			c2.67-0.29,5.43-0.03,8.03-0.58c14-2.97,27.95-6.16,41.93-9.17c1.67-0.36,3.59-0.49,5.19-0.02c8.52,2.5,15.86-0.07,22.78-4.86
			c0.85-0.59,1.87-1.1,2.88-1.24c5.04-0.74,9.38,0.79,13.05,4.31c1.03,0.99,2.1,1.95,3.19,2.95c3.41-4.79,2.95-7.64-1.65-10.27
			c-2.58-1.47-5.42-2.49-8.05-3.86c-1.12-0.59-2.04-1.57-3.37-2.64c2.66-0.63,11.45,3.34,16.92,7.21c0.78-2.06,1.54-4.06,2.44-6.46
			c-4.77-2.38-9.43-4.7-14.09-7.02c0.19-0.4,0.38-0.8,0.57-1.21c4.67,1.96,9.34,3.92,14.12,5.93c0.29-0.64,0.59-1.26,0.85-1.89
			c1.53-3.73,1.37-4.04-2.54-5.4c-2.91-1.01-5.83-1.99-8.69-3.14c-1.19-0.48-2.24-1.34-3.35-2.02c0.16-0.34,0.31-0.68,0.47-1.02
			C164.62,300.73,169.93,302.6,175.44,304.53z M176.96,350.78c0,1.07-0.06,1.76,0.01,2.44c2.36,22.33,4.72,44.66,7.13,66.98
			c0.44,4.04,2.33,5.49,6.08,4.04c5.07-1.96,9.92-4.5,14.86-6.81c1.93-0.9,2.62-2.3,2.36-4.55c-2.07-17.96-4-35.94-6.05-53.91
			c-0.09-0.75-0.68-1.75-1.31-2.07C192.88,353.25,185.28,351.19,176.96,350.78z M78.67,302.02c0.1-0.28,0.21-0.56,0.31-0.84
			c-1.22-0.72-2.35-1.76-3.67-2.1c-5.18-1.36-10.38-2.76-15.65-3.6c-2.29-0.36-5.06,0.05-7.16,1.05
			c-12.97,6.19-20.43,26.74-14.66,39.92c0.45,1.03,1.26,2.22,2.21,2.66c6.71,3.11,13.7,4.48,21.22,2.72
			c-0.39-1.11-0.74-2.03-1.03-2.96c-3.72-11.67-2.54-22.6,5.32-32.31C68.85,302.47,72.99,299.93,78.67,302.02z M305.34,254.75
			c-0.57-2.74-2.43-2.35-4.02-2.36c-32.35-0.21-64.7-0.4-97.04-0.6c-4.14-0.02-5.89,1.25-7.29,5.17
			c-8.43,23.59-16.88,47.18-25.27,70.79c-0.58,1.62-2.23,4.03,0.25,4.91c2.24,0.79,2.51-2.04,3.08-3.57
			c8.59-23.11,17.15-46.24,25.63-69.39c1.11-3.03,3.08-4.11,6.1-4.13c31.65-0.2,63.3-0.43,94.95-0.65
			C302.86,254.91,304,254.81,305.34,254.75z M97.85,193.95c0.92-0.78,1.57-1.22,2.09-1.79c2.15-2.34,4.18-4.8,6.42-7.05
			c3.5-3.52,5.06-3.62,8.92-0.57c2.43,1.92,4.69,4.06,7.02,6.1c0.24-0.2,0.48-0.4,0.72-0.59c-3.58-4.81-7.17-9.62-10.74-14.44
			c-4.84-6.54-9.74-13.04-14.48-19.65c-1.59-2.21-2.68-4.7-0.4-7.54c-1.64,0.58-3.15,1.24-4.13,2.37c-2.28,2.61-4.17,5.58-6.49,8.15
			c-2.01,2.23-2.24,4.42-1.09,7.04C89.71,175.16,93.68,184.35,97.85,193.95z M238.13,336.86c-1.13-0.07-2.08-0.18-3.03-0.18
			c-25.26-0.09-50.51-0.19-75.77-0.24c-14.52-0.03-29.05,0.01-43.57,0.13c-0.94,0.01-1.88,0.95-2.82,1.45
			c0.88,0.73,1.66,1.73,2.67,2.12c0.96,0.37,2.16,0.1,3.25,0.1c38.4-0.16,76.8-0.34,115.2-0.44
			C236.2,339.79,237.34,339.03,238.13,336.86z M176.98,395.12c-7.95,1.45-15.48,3.37-23.13,4.07c-7.64,0.69-15.39,0.15-23.32,0.15
			c-0.11,1.74-0.21,3.19-0.32,4.95c16.27,2.36,31.91,0.8,47.35-4.5C177.35,398.07,177.17,396.61,176.98,395.12z M169.36,189.15
			c0.2-0.19,0.4-0.39,0.59-0.58c-6.46-11.43-13.27-22.6-24.16-30.77c4.55,10.53,8.72,21.02,9.45,32.61c1.3-1.85,2.19-3.72,3.21-5.51
			c1.73-3.04,2.65-3.23,5.26-1C165.66,185.57,167.48,187.39,169.36,189.15z M241.04,300.28c4.33,0.06,8.28-3.72,8.4-8.04
			c0.1-3.42-2.06-5.85-5.28-5.94c-4.25-0.11-8.62,4.03-8.68,8.22C235.44,297.76,237.83,300.24,241.04,300.28z M227.5,344.03
			c-0.11,0.44-0.23,0.87-0.34,1.31c3.26,3.15,7.49,4.14,11.82,4.38c4.21,0.23,6.51-2.35,6.78-6.58c0.11-1.62,0.45-3.27,0.97-4.82
			c0.6-1.79-0.16-2.74-1.7-2.42c-1.29,0.27-2.77,1.18-3.5,2.25c-1.7,2.5-3,5.27-4.02,7.12C233.83,344.81,230.67,344.42,227.5,344.03
			z M247.27,348.62c2.4,1.55,4.81,1.13,7.05-0.46c0.89-0.63,2.04-1.67,2.08-2.57c0.12-2.93-0.14-5.88-0.39-8.81
			c-0.2-2.26-2.82-3.41-4.35-1.79c-1.16,1.22-1.97,2.95-2.45,4.59C248.4,342.42,247.95,345.35,247.27,348.62z M149.42,183.07
			c-0.22-0.43-0.45-0.85-0.67-1.28c-9.9,7.74-18.76,2.09-28.02-1.16c1.84,2.07,3.69,4.57,6.05,5.25c4.79,1.37,9.85,1.96,14.84,2.43
			c1.72,0.16,3.75-0.68,5.28-1.64C148.04,185.95,148.6,184.3,149.42,183.07z M266.55,340.09c0-3.01-1.49-5.63-3.25-5.72
			c-2.22-0.11-4.49,3.11-4.54,6.42c-0.04,2.77,1.3,4.27,3.77,4.23C264.8,344.98,266.55,342.84,266.55,340.09z M72.97,343.71
			c-2.83,1.01-5.5,1.96-7.88,2.81C67.8,349.13,70.77,348.44,72.97,343.71z"/>
		<path d="M432,380.77c-33.74,0-67.48,0.01-101.22-0.01c-6.2,0-8.64-2.48-8.64-8.7c0-37.62,0.01-75.24,0.01-112.86
			c0-6.04,2.67-8.76,8.7-8.76c60.71,0.01,121.42,0.03,182.13,0.04c7.07,0,14.13-0.05,21.2,0c5.11,0.03,7.73,2.66,7.74,7.74
			c0.01,38.12,0,76.24-0.01,114.36c0,5.34-2.9,8.17-8.39,8.17c-33.84,0.01-67.68,0.01-101.52,0.01C432,380.76,432,380.76,432,380.77
			z M479,253.82c-1.09-0.07-1.97-0.18-2.84-0.18c-48.49,0-96.97,0-145.46,0.01c-3.7,0-5.07,1.37-5.07,5.01
			c0,23.3,0.01,46.6,0.03,69.89c0,0.96,0.12,1.93,0.19,3.05c51.14,0,102.06,0,153.15,0C479,305.66,479,279.92,479,253.82z
			 M431.64,377.13c0-14.5,0-28.67,0-42.8c-35.44,0-70.62,0-106.02,0c0,1.32,0,2.4,0,3.48c0.01,11.25,0.03,22.5,0.04,33.75
			c0,4.8,0.89,5.69,5.76,5.69c32.56,0,65.11,0,97.67,0C429.87,377.25,430.66,377.18,431.64,377.13z M537.98,331.65
			c0.08-0.85,0.17-1.34,0.17-1.82c0.03-23.77,0.06-47.54,0.05-71.31c0-3.46-1.55-4.84-5.29-4.85c-16.21-0.03-32.42-0.03-48.63-0.03
			c-0.84,0-1.69,0.15-2.33,0.21c0,26.14,0,51.93,0,77.8C500.77,331.65,519.24,331.65,537.98,331.65z"/>
		<path d="M387.54,1.46c41.41,0,82.83,0,124.24,0c6.42,0,8.9,2.33,8.9,8.78c0.03,39.72,0.01,79.44,0.01,119.16
			c0,6.47,0,12.94-0.01,19.41c-0.01,5.84-2.49,8.34-8.36,8.33c-48.48-0.02-96.96-0.06-145.44-0.08
			c-34.34-0.01-68.68,0.02-103.03-0.04c-2.02,0-4.19-0.33-6.02-1.14c-2.38-1.05-3.14-3.35-3.14-5.96
			c0.04-38.92,0.05-77.85,0.06-116.77c0-7.96-0.05-15.93-0.02-23.89c0.02-5.23,2.72-7.83,7.97-7.83c41.61,0,83.22,0,124.83,0
			C387.54,1.44,387.54,1.45,387.54,1.46z M515.57,17.19c-85.53,0-170.67,0-255.94,0c-0.07,1.11-0.17,1.99-0.17,2.87
			c0.03,42.8,0.06,85.6,0.11,128.4c0,4.13,0.05,4.15,4.35,4.15c82.81,0.02,165.63,0.03,248.44,0.11c2.67,0,3.32-0.76,3.32-3.37
			c-0.1-42.6-0.09-85.2-0.11-127.8C515.57,20.17,515.57,18.79,515.57,17.19z M266.12,6.33c-1.03,1.78-2.08,2.8-2.01,3.74
			c0.06,0.78,1.61,2.18,2.19,2.03c0.97-0.24,2.27-1.43,2.35-2.32C268.72,8.94,267.4,7.97,266.12,6.33z M276.29,6.31
			c-1.08,1.75-2.16,2.74-2.11,3.66c0.05,0.8,1.53,2.24,2.12,2.12c0.96-0.2,2.29-1.37,2.39-2.25C278.79,9.01,277.52,8.01,276.29,6.31
			z M286.38,6.35c-1.11,1.62-2.23,2.54-2.16,3.34c0.08,0.86,1.25,2.18,2.03,2.24c0.76,0.06,2.24-1.2,2.27-1.93
			C288.56,9.07,287.47,8.08,286.38,6.35z"/>
		<path d="M462.13,239.89c-24.29,0-48.58,0-72.87,0c-5.54,0-7.1-1.49-7.1-7.08c-0.01-18.32,0.04-36.63,0.09-54.95
			c0.01-4.03,2.06-6.06,6.05-6.06c49.17-0.01,98.35-0.01,147.52,0c4.21,0,6.09,1.77,6.09,5.91c0.01,18.71-0.01,37.43-0.07,56.14
			c-0.01,4.42-1.75,6.02-6.25,6.02c-24.49,0.01-48.98,0-73.46,0C462.13,239.88,462.13,239.88,462.13,239.89z M386.83,185.9
			c-0.07,1.17-0.17,2.04-0.17,2.91c0.01,14.33,0.12,28.67-0.02,43c-0.03,3.09,0.94,3.81,3.9,3.81c47.77-0.09,95.55-0.08,143.32-0.09
			c1.06,0,2.11-0.09,3.17-0.14c0-16.69,0-33.05,0-49.48C486.83,185.9,436.92,185.9,386.83,185.9z M403.68,175.96
			c-1.24,1.48-2.02,2.41-2.81,3.35c0.91,0.73,1.89,2.1,2.72,2.02c1.01-0.1,1.91-1.42,2.86-2.21
			C405.69,178.26,404.93,177.39,403.68,175.96z M415.11,175.88c-1.06,1.47-2.24,2.4-2.16,3.2c0.08,0.81,1.42,2.1,2.18,2.08
			c0.81-0.02,2.15-1.27,2.23-2.08C417.43,178.28,416.21,177.35,415.11,175.88z M395.93,179.29c-1.53-1.09-2.42-2.21-3.26-2.17
			c-0.85,0.04-1.64,1.22-2.46,1.91c0.78,0.81,1.47,2.1,2.38,2.29C393.33,181.46,394.35,180.31,395.93,179.29z"/>
		<path d="M431.36,420.24c-33.04,0-66.08,0-99.12,0c-6.01,0-10.21-3.81-10.19-9.27c0.02-5.37,4.34-9.4,10.22-9.4
			c24.78,0,49.56,0.06,74.34,0.06c41.1,0.01,82.2-0.02,123.3-0.01c1.48,0,3.02,0,4.43,0.38c4.78,1.3,7.57,5.46,6.97,10.09
			c-0.59,4.56-4.92,8.17-9.94,8.17c-26.07,0.02-52.15,0.01-78.22,0c-7.26,0-14.53,0-21.79,0
			C431.36,420.26,431.36,420.25,431.36,420.24z M404.76,416.06c1.33,0,2.12,0,2.91,0c24.27,0.01,48.55,0.02,72.82,0.01
			c6.57,0,5.8,0.85,5.85-5.9c0.03-4.72,0.02-4.74-4.81-4.74c-25.67-0.02-51.33-0.03-77-0.04c-7.96,0-15.92-0.05-23.87,0.03
			c-0.75,0.01-1.5,0.8-2.25,1.23c0.71,0.36,1.41,1,2.14,1.04c2.13,0.14,4.28,0.05,6.48,0.05c-1.23,4.49,0.09,7.92,3.42,8.28
			c3.46,0.37,6.99,0.08,10.98,0.08c-3.92-3.36-4.44-5.72-2.21-8.14c2.01-2.18,5.78-2.27,7.76-0.2
			C409.28,410.15,408.7,412.72,404.76,416.06z M328.03,406.25c0.08,0.36,0.15,0.73,0.23,1.09c0.73,0.15,1.46,0.42,2.19,0.42
			c14.32,0.03,28.64,0.05,42.96-0.01c0.76,0,1.52-0.79,2.27-1.22c-0.76-0.42-1.52-1.19-2.28-1.19c-14.22-0.05-28.44-0.02-42.66,0.06
			C329.83,405.4,328.93,405.95,328.03,406.25z"/>
		<path d="M156.24,128.09c-6.19,7.03-18.25,4.47-22.88-1.26c-0.33-0.4-0.04-1.3-0.03-1.97c0.66,0.07,1.55-0.1,1.95,0.26
			c4.91,4.49,10.45,5.59,16.74,3.49C153.2,128.21,154.55,128.28,156.24,128.09z"/>
		<path d="M100.09,99.33c-2.22-4.38-3.49-4.88-6.85-2.8c0.76-1.2,1.27-2.92,2.36-3.44c0.82-0.39,2.82,0.4,3.5,1.28
			c1.47,1.92,2.46,4.22,3.56,6.4c0.16,0.32-0.01,1.11-0.29,1.3c-3.11,2.07-1.28,3.99,0.11,5.94c0.26,0.37,0.52,0.74,0.92,1.31
			c-2.8,0.86-4.14-0.81-5.28-2.48C96.56,104.59,97.14,102.69,100.09,99.33z"/>
		<path d="M124.82,92.45c1.08-3.2,3.54-4.73,6.27-4.76c3.48-0.04,6.99,0.74,10.45,1.41c0.63,0.12,1.06,1.35,1.58,2.07
			c-0.84,0.4-1.66,0.83-2.51,1.17c-0.23,0.09-0.6-0.02-0.86-0.14C134.78,89.94,129.86,89.75,124.82,92.45z"/>
		<path d="M154.41,97.24c-3.1,6.32-0.58,12.23,1.14,18.16c1.22,4.18-1,6.8-5.61,6.06c0.68-0.62,1.18-1.13,1.73-1.58
			c1.63-1.32,2.08-2.79,1.5-4.96c-0.92-3.42-1.42-6.96-1.98-10.47C150.71,101.44,152.39,99.26,154.41,97.24z"/>
		<path d="M137.49,99.74c-0.61,3.06-2.52,6.13-3.68,5.42c-1.23-0.76-2.29-2.6-2.44-4.08c-0.21-2.12,0.35-4.77,3.07-4.83
			C135.43,96.24,136.47,98.52,137.49,99.74z"/>
		<path d="M157.04,103.78c1.49-1.9,2.61-3.33,3.73-4.76c0.75,1.2,2.26,2.53,2.08,3.57c-0.28,1.68-1.67,3.16-2.6,4.73
			C159.31,106.29,158.38,105.25,157.04,103.78z"/>
		<path class="st1" d="M77.53,238.76c-1.34,8.48-2.62,16.98-6.73,24.56c-0.27-0.06-0.54-0.13-0.82-0.19c0-0.65-0.03-1.3,0-1.94
			c0.96-16.64-2.61-32.44-9.06-47.64c-2.86-6.75-6.9-12.8-12.85-17.32c-4.76-3.62-10.09-5.48-16.23-4.48
			c-0.1-0.24-0.21-0.48-0.31-0.72c2.39-1.98,4.59-4.24,7.19-5.88c13.1-8.26,27.44-13.98,41.64-19.99c0.25-0.1,0.57-0.01,0.81-0.01
			c3.8,8.79,7.56,17.53,11.36,26.26c0.71,1.64,1.47,3.27,2.37,4.81c1.49,2.54,3.44,2.82,5.59,0.75c2.65-2.55,5.24-5.18,7.74-7.88
			c1.24-1.34,2.19-1.47,3.79-0.4c3.88,2.59,8.02,4.79,11.86,7.44c1.03,0.71,1.76,2.39,1.92,3.72c1.57,13.13,3.64,26.25,4.31,39.44
			c1.01,20.07,0.99,40.19,1.52,60.29c0.06,2.27-0.69,3.35-2.74,4.17c-4.91,1.96-9.88,2.56-15.15,1.96c-8.89-1-17.8-1.72-26.71-2.49
			c-1.65-0.14-2.6-0.63-3.21-2.38c-1.18-3.42-3.9-5.52-7.28-6.54c-2.25-0.68-3.05-2.04-3.44-4.24c-1.72-9.48-1.33-18.59,2-27.87
			c2.28-6.36,2.73-13.38,3.88-20.12c0.17-1.02-0.29-2.14-0.46-3.22C78.2,238.82,77.87,238.79,77.53,238.76z M125.07,265.95
			c-3.19,0.12-4.17,1.69-3.85,3.41c0.26,1.37,1.45,3.36,2.57,3.62c1.99,0.45,3.44-1.41,3.28-3.3
			C126.95,268.26,125.64,266.93,125.07,265.95z M122.6,203.49c-1.88-1.62-2.95-3.15-4.29-3.44c-0.72-0.15-2.55,1.74-2.72,2.89
			c-0.31,2.05,1.11,3.74,3.3,3.56C119.93,206.41,120.86,204.97,122.6,203.49z"/>
		<path class="st1" d="M62.04,369.85c0.62-1,1.25-1.98,1.85-2.99c3.69-6.16,8.82-10.93,15.23-13.9c8.82-4.08,17.95-7.52,26.96-11.2
			c1.8-0.73,3.08-0.72,4.3,1.5c0.85,1.56,3.04,2.8,4.88,3.33c4,1.14,8.15,1.79,12.26,2.52c1.89,0.33,2.71,1.07,2.52,3.16
			c-2.09,23.59-4.05,47.18-6.16,70.77c-0.42,4.7-1.62,5.59-6.32,5.65c-10.44,0.14-20.6-1.71-30.61-4.49
			c-11.01-3.06-21.96-6.33-32.97-9.41c-2.54-0.71-3.74-1.69-3.42-4.71c1.23-11.46,2.15-22.96,3.17-34.44
			c0.43-4.83,2.5-8.96,5.45-12.7c0.44-0.56,1.19-0.86,1.8-1.28c0.38,0.74,1.07,1.47,1.08,2.21c0.01,1.96-0.28,3.92-0.46,5.88
			C61.76,369.79,61.9,369.82,62.04,369.85z M123.01,380.89c0.08-2.24-1.65-4.27-3.7-4.19c-2.42,0.1-3.48,1.71-3.72,3.87
			c-0.24,2.2,1.54,4.28,3.53,4.36C121.19,385.01,122.94,383.2,123.01,380.89z"/>
		<path class="st1" d="M64.26,271.18c-3.3-13.36-6.61-26.73-9.83-39.75c0,2.62-0.17,5.69,0.05,8.73c0.22,3.17,0.72,6.33,1.29,9.46
			c0.57,3.13,1.31,6.23,2.09,9.32c1.7,6.75,3.78,13.42,5.1,20.24c0.62,3.19-0.01,6.67-0.41,9.98c-0.2,1.69-2.67,2.52-3.88,1.46
			c-6.9-6.01-14.99-6.37-23.33-4.7c-5,1-9.56,3.27-13.07,7.16c0.1,0.31,0.21,0.62,0.31,0.93c0.95-0.32,1.99-0.49,2.83-0.99
			c8.5-5.12,17.39-6.56,26.82-2.92c0.96,0.37,1.84,0.94,2.75,1.42c-0.02,0.27-0.03,0.53-0.05,0.8c-3.09,0.8-6.14,1.85-9.27,2.36
			c-7.07,1.16-17.56,10.63-19.25,17.68c-0.11,0.44-0.01,0.93-0.01,2.26c4.67-6.99,9.93-12.27,16.99-15.52
			c-9.39,11.54-13.22,24.3-8.91,39.5c-5.09-0.9-9.27-2.62-12.59-6.08c-4.15-4.33-5.98-9.7-6.93-15.54
			c-2.03-12.4-0.83-24.84-0.38-37.24c0.68-18.8,2.18-37.58,5.81-56.06c1.72-8.75,4.49-17.29,6.82-25.92
			c0.72-2.68,2.57-3.75,5.31-3.88c7.1-0.33,12.74,2.57,17.44,7.61c6.11,6.55,9.76,14.48,12.47,22.88
			c4.38,13.62,6.34,27.5,4.07,41.78c-0.12,0.78-0.33,1.55-0.55,2.32c-0.24,0.85-0.54,1.69-0.82,2.53
			C64.83,271.07,64.54,271.12,64.26,271.18z"/>
		<path class="st1" d="M201,247.2c0.89-6.96,2.55-13.53,1.24-20.2c-0.29-0.04-0.57-0.08-0.86-0.11c-1.06,6.05-2.12,12.09-3.17,18.14
			c-0.33-0.02-0.66-0.03-0.99-0.05c-1.57-11.65-4.65-22.87-8.58-33.85c-0.32,0.07-0.64,0.13-0.96,0.2c0.26,1.58,0.53,3.15,0.79,4.73
			c1.83,11.48,3.67,22.95,5.47,34.43c0.14,0.86,0.21,1.85-0.08,2.64c-5.11,14.31-10.28,28.6-15.44,42.9
			c-0.03,0.09-0.12,0.16-0.14,0.19c-2.2-0.8-4.48-1.41-6.52-2.47c-0.76-0.39-1.26-1.82-1.37-2.83c-1.56-14.04-2.54-28.16-4.67-42.11
			c-2.57-16.8-6.13-33.44-9.16-50.16c-0.2-1.08,0.17-2.42,0.67-3.43c1.33-2.65,2.89-5.19,4.4-7.84c3.09,2.45,6.05,4.94,9.17,7.2
			c0.81,0.59,2.12,0.5,3.2,0.73c0.21-1.17,0.93-2.55,0.55-3.46c-2.14-5.1-4.56-10.09-6.94-15.25c1.75,0.9,3.63,1.85,5.49,2.83
			c6.68,3.52,13.38,7.02,20.03,10.6c2.1,1.13,3.18,2.85,3.65,5.4c2.1,11.25,1.58,22.6,1.81,33.93c0.01,0.64,0,1.29,0.38,1.93
			c2.8-11.62,1.62-23.27,0.14-34.91c0.23-0.12,0.47-0.25,0.7-0.37c1.72,3.28,4.05,6.39,5.04,9.87c2.91,10.21,5.32,20.56,7.84,30.88
			c0.82,3.35,1.37,6.77,2.1,10.45C210.1,247.2,205.7,247.2,201,247.2z M177.4,266.97c-1.54-1.34-2.43-2.11-3.32-2.89
			c-0.78,0.97-2.24,1.99-2.17,2.89c0.09,1.13,1.43,2.16,2.23,3.24C175.04,269.32,175.94,268.42,177.4,266.97z"/>
		<path class="st0" d="M175.44,304.53c-5.5-1.93-10.81-3.8-16.12-5.67c-0.16,0.34-0.31,0.68-0.47,1.02
			c1.11,0.69,2.15,1.55,3.35,2.02c2.86,1.14,5.78,2.13,8.69,3.14c3.91,1.36,4.07,1.67,2.54,5.4c-0.26,0.63-0.56,1.25-0.85,1.89
			c-4.78-2.01-9.45-3.97-14.12-5.93c-0.19,0.4-0.38,0.8-0.57,1.21c4.66,2.32,9.32,4.65,14.09,7.02c-0.91,2.4-1.66,4.4-2.44,6.46
			c-5.47-3.87-14.26-7.84-16.92-7.21c1.34,1.07,2.25,2.05,3.37,2.64c2.64,1.38,5.47,2.39,8.05,3.86c4.6,2.62,5.06,5.47,1.65,10.27
			c-1.08-1-2.15-1.96-3.19-2.95c-3.66-3.53-8-5.06-13.05-4.31c-1,0.15-2.03,0.66-2.88,1.24c-6.93,4.79-14.26,7.36-22.78,4.86
			c-1.6-0.47-3.52-0.33-5.19,0.02c-13.99,3.01-27.94,6.2-41.93,9.17c-2.6,0.55-5.36,0.29-8.03,0.58c-2.26,0.25-3.58-0.58-4.24-2.74
			c-2.97-9.75-1.93-18.85,4.27-27.17c2.33-3.12,5.32-3.42,8.98-3.02c12.75,1.39,25.53,2.45,38.29,3.68
			c6.58,0.63,12.62-1.08,18.36-4.11c6.42-3.4,12.84-6.79,19.19-10.31c2.61-1.45,5.07-1.82,7.95-0.77c3.73,1.36,7.61,2.29,11.41,3.45
			C177.39,299.67,177.58,300.15,175.44,304.53z"/>
		<path class="st1" d="M176.96,350.78c8.32,0.41,15.92,2.47,23.08,6.12c0.64,0.33,1.23,1.33,1.31,2.07
			c2.05,17.97,3.98,35.94,6.05,53.91c0.26,2.25-0.43,3.65-2.36,4.55c-4.94,2.31-9.79,4.85-14.86,6.81c-3.75,1.45-5.64,0-6.08-4.04
			c-2.41-22.32-4.77-44.65-7.13-66.98C176.89,352.55,176.96,351.86,176.96,350.78z M186.33,382.27c1.06-1.52,2.22-2.44,2.15-3.25
			c-0.09-1.01-1.2-1.92-1.88-2.87c-0.82,0.8-2.22,1.53-2.32,2.4C184.18,379.49,185.32,380.55,186.33,382.27z"/>
		<path class="st1" d="M78.67,302.02c-5.68-2.09-9.82,0.45-13.12,4.53c-7.86,9.71-9.04,20.64-5.32,32.31
			c0.3,0.94,0.65,1.85,1.03,2.96c-7.52,1.76-14.5,0.39-21.22-2.72c-0.95-0.44-1.76-1.63-2.21-2.66
			c-5.77-13.19,1.7-33.74,14.66-39.92c2.1-1,4.87-1.41,7.16-1.05c5.28,0.84,10.47,2.24,15.65,3.6c1.32,0.35,2.45,1.38,3.67,2.1
			C78.88,301.45,78.78,301.74,78.67,302.02z"/>
		<path class="st0" d="M305.34,254.75c-1.34,0.06-2.48,0.15-3.63,0.16c-31.65,0.23-63.3,0.45-94.95,0.65
			c-3.01,0.02-4.99,1.1-6.1,4.13c-8.47,23.16-17.03,46.28-25.63,69.39c-0.57,1.53-0.83,4.36-3.08,3.57
			c-2.48-0.87-0.83-3.28-0.25-4.91c8.39-23.61,16.84-47.2,25.27-70.79c1.4-3.92,3.15-5.2,7.29-5.17c32.35,0.19,64.7,0.39,97.04,0.6
			C302.91,252.4,304.78,252.02,305.34,254.75z"/>
		<path class="st1" d="M97.85,193.95c-4.17-9.6-8.14-18.8-12.16-27.97c-1.15-2.63-0.92-4.82,1.09-7.04c2.32-2.57,4.2-5.54,6.49-8.15
			c0.98-1.13,2.5-1.79,4.13-2.37c-2.28,2.84-1.18,5.33,0.4,7.54c4.75,6.61,9.64,13.11,14.48,19.65c3.57,4.82,7.16,9.63,10.74,14.44
			c-0.24,0.2-0.48,0.4-0.72,0.59c-2.33-2.04-4.59-4.18-7.02-6.1c-3.86-3.05-5.43-2.95-8.92,0.57c-2.24,2.25-4.26,4.72-6.42,7.05
			C99.42,192.73,98.77,193.17,97.85,193.95z"/>
		<path class="st0" d="M238.13,336.86c-0.79,2.17-1.92,2.93-4.06,2.94c-38.4,0.1-76.8,0.28-115.2,0.44c-1.09,0-2.3,0.27-3.25-0.1
			c-1.01-0.39-1.79-1.39-2.67-2.12c0.94-0.51,1.87-1.45,2.82-1.45c14.52-0.12,29.05-0.16,43.57-0.13
			c25.26,0.05,50.51,0.15,75.77,0.24C236.05,336.67,237,336.78,238.13,336.86z"/>
		<path class="st0" d="M176.98,395.12c0.19,1.49,0.37,2.95,0.58,4.66c-15.44,5.31-31.08,6.86-47.35,4.5
			c0.12-1.76,0.21-3.2,0.32-4.95c7.93,0,15.68,0.54,23.32-0.15C161.49,398.49,169.03,396.57,176.98,395.12z"/>
		<path class="st1" d="M169.36,189.15c-1.88-1.76-3.7-3.58-5.65-5.25c-2.61-2.24-3.52-2.05-5.26,1c-1.02,1.79-1.91,3.65-3.21,5.51
			c-0.73-11.58-4.9-22.08-9.45-32.61c10.89,8.17,17.69,19.34,24.16,30.77C169.75,188.77,169.55,188.96,169.36,189.15z"/>
		<path class="st0" d="M241.04,300.28c-3.2-0.04-5.59-2.52-5.55-5.76c0.05-4.18,4.43-8.33,8.68-8.22c3.22,0.09,5.37,2.52,5.28,5.94
			C249.31,296.56,245.37,300.34,241.04,300.28z"/>
		<path class="st0" d="M227.5,344.03c3.17,0.39,6.34,0.78,10.01,1.24c1.02-1.85,2.32-4.62,4.02-7.12c0.73-1.08,2.21-1.98,3.5-2.25
			c1.54-0.32,2.3,0.63,1.7,2.42c-0.52,1.54-0.86,3.19-0.97,4.82c-0.28,4.24-2.58,6.82-6.78,6.58c-4.33-0.24-8.56-1.23-11.82-4.38
			C227.27,344.9,227.39,344.46,227.5,344.03z"/>
		<path class="st0" d="M247.27,348.62c0.68-3.27,1.12-6.21,1.94-9.03c0.48-1.64,1.29-3.37,2.45-4.59c1.53-1.62,4.15-0.47,4.35,1.79
			c0.26,2.93,0.52,5.88,0.39,8.81c-0.04,0.9-1.19,1.94-2.08,2.57C252.09,349.75,249.67,350.18,247.27,348.62z"/>
		<path class="st1" d="M149.42,183.07c-0.82,1.23-1.38,2.87-2.52,3.59c-1.53,0.96-3.56,1.8-5.28,1.64
			c-4.99-0.47-10.04-1.06-14.84-2.43c-2.37-0.68-4.22-3.18-6.05-5.25c9.26,3.25,18.12,8.9,28.02,1.16
			C148.97,182.22,149.19,182.65,149.42,183.07z"/>
		<path class="st0" d="M266.55,340.09c0,2.75-1.75,4.89-4.03,4.93c-2.47,0.04-3.81-1.47-3.77-4.23c0.05-3.31,2.33-6.53,4.54-6.42
			C265.06,334.45,266.55,337.08,266.55,340.09z"/>
		<path class="st1" d="M72.97,343.71c-2.2,4.73-5.17,5.43-7.88,2.81C67.47,345.67,70.14,344.71,72.97,343.71z"/>
		<path class="st0" d="M479,253.82c0,26.1,0,51.84,0,77.78c-51.1,0-102.01,0-153.15,0c-0.07-1.13-0.19-2.09-0.19-3.05
			c-0.02-23.3-0.03-46.6-0.03-69.89c0-3.64,1.37-5.01,5.07-5.01c48.49-0.01,96.97-0.02,145.46-0.01
			C477.03,253.64,477.91,253.75,479,253.82z M359.09,274.39c0-2.58-0.03-5.16,0.01-7.74c0.03-2.11-0.9-3.07-3.05-3.05
			c-5.16,0.05-10.33,0.05-15.49-0.02c-2.27-0.03-3.3,1.02-3.3,3.21c0.01,5.06,0.02,10.13,0.03,15.19c0,2.19,1.06,3.27,3.3,3.26
			c5.16-0.04,10.33-0.05,15.49-0.01c2.15,0.01,3.07-0.98,3.03-3.09C359.06,279.56,359.1,276.98,359.09,274.39z M404.13,263.57
			c0,0.01,0,0.03,0,0.04c-2.79,0-5.57,0.02-8.36-0.01c-1.86-0.02-2.74,0.87-2.73,2.72c0.02,5.27,0.02,10.55-0.01,15.82
			c-0.01,2.15,1.04,3.06,3.11,3.06c5.27-0.02,10.55-0.01,15.82,0.01c2.01,0.01,2.84-0.96,2.82-2.95
			c-0.05-5.27-0.03-10.54-0.02-15.82c0-1.95-0.81-2.95-2.87-2.89C409.3,263.62,406.71,263.57,404.13,263.57z M386.41,274.54
			c-0.02,0-0.04,0-0.07,0c0-2.48-0.04-4.96,0.01-7.44c0.05-2.12-0.91-3.09-3.04-3.08c-4.86,0.04-9.73,0.03-14.59,0
			c-2.06-0.01-3.12,0.78-3.08,2.99c0.09,4.86,0.09,9.73,0.05,14.59c-0.02,1.99,0.79,2.94,2.8,2.94c5.06-0.01,10.12,0,15.18,0.06
			c2.03,0.02,2.84-0.9,2.76-2.92C386.33,279.3,386.41,276.92,386.41,274.54z M430.46,301.95c0,0.01,0,0.01,0,0.02
			c9.44,0,18.89,0.05,28.33-0.06c1.25-0.02,2.49-0.89,3.73-1.37c-1.25-0.48-2.5-1.38-3.76-1.38c-18.69-0.08-37.37-0.05-56.06-0.04
			c-0.79,0-1.64-0.1-2.37,0.14c-0.54,0.18-0.93,0.84-1.39,1.28c0.46,0.46,0.86,1.13,1.41,1.32c0.72,0.24,1.57,0.1,2.37,0.1
			C411.97,301.95,421.21,301.95,430.46,301.95z M430.94,308.89c0,0,0-0.01,0-0.01c-9.45,0-18.9,0-28.35,0.01
			c-0.89,0-1.82-0.02-2.65,0.23c-0.43,0.13-0.97,0.84-0.96,1.26c0.02,0.43,0.6,1.02,1.06,1.19c0.62,0.22,1.37,0.13,2.06,0.13
			c19,0.01,37.99,0.02,56.99,0.01c0.79,0,1.63,0.04,2.34-0.21c0.43-0.15,0.95-0.84,0.94-1.28c-0.01-0.42-0.59-1.05-1.04-1.19
			c-0.74-0.22-1.57-0.14-2.36-0.14C449.64,308.88,440.29,308.89,430.94,308.89z M365.7,321.57c7.25,0,14.5,0.05,21.74-0.06
			c0.97-0.01,1.92-0.85,2.88-1.3c-0.89-0.51-1.78-1.47-2.68-1.47c-14.49-0.08-28.99-0.06-43.48,0.03c-0.98,0.01-1.96,0.83-2.94,1.28
			c1.01,0.51,2.02,1.44,3.04,1.46C351.4,321.64,358.55,321.58,365.7,321.57z M365.96,301.99c0-0.01,0-0.02,0-0.03
			c1.99,0,3.98,0,5.97,0c5.37,0,10.74,0.06,16.1-0.05c0.73-0.02,1.45-0.89,2.18-1.36c-0.74-0.48-1.47-1-2.24-1.43
			c-0.23-0.13-0.59-0.01-0.88-0.01c-14.02,0-28.04-0.01-42.05-0.01c-0.79,0-1.65-0.11-2.36,0.14c-0.55,0.19-0.92,0.86-1.37,1.32
			c0.47,0.46,0.87,1.1,1.43,1.32c0.61,0.24,1.37,0.11,2.06,0.11C351.85,301.99,358.91,301.99,365.96,301.99z M365.75,308.78
			c0,0.05,0,0.11,0,0.16c-2.29,0-4.58,0.01-6.87,0c-4.98-0.02-9.96-0.14-14.93-0.02c-0.93,0.02-1.83,0.97-2.74,1.5
			c0.95,0.5,1.88,1.03,2.85,1.49c0.24,0.12,0.59,0.01,0.89,0.01c10.95-0.07,21.9-0.16,32.85-0.22c3.38-0.02,6.77,0.13,10.15-0.01
			c0.83-0.04,1.62-0.95,2.42-1.46c-0.84-0.49-1.67-0.98-2.53-1.44c-0.15-0.08-0.39-0.01-0.59-0.01
			C380.08,308.78,372.91,308.78,365.75,308.78z M417.61,318.69c0,0,0-0.01,0-0.01c-5.36,0-10.72-0.06-16.07,0.06
			c-0.9,0.02-1.79,0.8-2.69,1.23c0.89,0.54,1.77,1.54,2.67,1.55c10.81,0.09,21.63,0.08,32.44-0.04c0.9-0.01,1.79-1,2.68-1.53
			c-0.89-0.42-1.77-1.18-2.66-1.2C428.53,318.63,423.07,318.69,417.61,318.69z M449.09,281.44c0.02,3.13,0.26,3.29,4.23,3.01
			C452.09,283.57,450.51,282.45,449.09,281.44z"/>
		<path class="st0" d="M431.64,377.13c-0.98,0.05-1.76,0.12-2.55,0.12c-32.56,0.01-65.11,0.01-97.67,0c-4.87,0-5.76-0.9-5.76-5.69
			c-0.01-11.25-0.02-22.5-0.04-33.75c0-1.08,0-2.16,0-3.48c35.39,0,70.58,0,106.02,0C431.64,348.47,431.64,362.63,431.64,377.13z
			 M377.91,354.07c0-2.02,0.17-3.72-0.08-5.36c-0.1-0.67-1.03-1.47-1.73-1.67c-0.36-0.1-1.53,0.96-1.55,1.51
			c-0.12,5.07-0.12,10.15,0.01,15.22c0.01,0.57,0.99,1.11,1.53,1.66c0.58-0.59,1.59-1.14,1.66-1.79c0.22-1.94,0.08-3.91,0.08-5.95
			c2.94,0,5.47,0,8.29,0c0,2.07-0.15,3.96,0.08,5.8c0.08,0.69,1.04,1.28,1.59,1.92c0.59-0.6,1.67-1.18,1.69-1.79
			c0.14-4.97,0.14-9.95,0-14.92c-0.02-0.61-1.11-1.2-1.71-1.79c-0.58,0.63-1.55,1.2-1.65,1.9c-0.24,1.71-0.08,3.47-0.08,5.27
			C383.14,354.07,380.78,354.07,377.91,354.07z M404.04,350.3c0.87-0.17,1.65-0.13,2.17-0.47c0.48-0.31,0.99-1.08,0.92-1.57
			c-0.06-0.48-0.83-1.2-1.31-1.22c-2.47-0.11-4.96-0.1-7.44,0.04c-0.47,0.03-1.29,0.85-1.25,1.24c0.06,0.6,0.62,1.28,1.16,1.66
			c0.5,0.35,1.25,0.35,1.77,0.48c0,4.03,0,7.85,0,11.62c-3.3,0.5-3.3,0.5-2.44,3.24c2.53,0,5.11,0.08,7.68-0.05
			c0.68-0.04,1.32-0.73,1.98-1.13c-0.6-0.6-1.16-1.25-1.83-1.76c-0.34-0.26-0.89-0.23-1.42-0.35
			C404.04,358.12,404.04,354.36,404.04,350.3z M355.33,357.57c0,0.01,0,0.02,0,0.03c2.38,0,4.78,0.12,7.14-0.07
			c0.76-0.06,1.45-0.92,2.17-1.42c-0.71-0.51-1.42-1.44-2.15-1.46c-4.76-0.12-9.53-0.11-14.3,0.02c-0.76,0.02-1.5,0.89-2.25,1.37
			c0.74,0.51,1.45,1.39,2.23,1.45C350.55,357.7,352.95,357.57,355.33,357.57z M355.49,349.59c0,0.01,0,0.02,0,0.03
			c2.38,0,4.77,0.11,7.13-0.07c0.66-0.05,1.26-0.93,1.89-1.42c-0.65-0.46-1.29-1.3-1.95-1.31c-4.86-0.1-9.72-0.08-14.57,0.04
			c-0.69,0.02-1.36,0.77-2.05,1.19c0.7,0.52,1.37,1.43,2.11,1.48C350.52,349.71,353.01,349.59,355.49,349.59z M355.4,362.75
			c0-0.01,0-0.01,0-0.02c-2.37,0-4.75-0.11-7.11,0.06c-0.78,0.06-1.5,0.87-2.25,1.33c0.72,0.5,1.44,1.41,2.17,1.43
			c4.74,0.12,9.49,0.12,14.23-0.02c0.7-0.02,1.37-0.96,2.06-1.47c-0.66-0.44-1.3-1.21-1.98-1.25
			C360.15,362.65,357.77,362.75,355.4,362.75z"/>
		<path class="st0" d="M537.98,331.65c-18.74,0-37.21,0-56.03,0c0-25.86,0-51.66,0-77.8c0.64-0.06,1.48-0.21,2.33-0.21
			c16.21,0,32.42,0,48.63,0.03c3.75,0.01,5.29,1.39,5.29,4.85c0,23.77-0.03,47.54-0.05,71.31
			C538.15,330.31,538.06,330.8,537.98,331.65z M519.19,276.78c-4.17,3.17-4.64,2.9-6.62-1.61c-0.38-0.86-2.53-1.04-3.91-1.33
			c-1.63-0.34-2.23,0.63-2.5,2.15c-0.52,2.95-2.03,3.7-4.36,2.12c-1.45-0.98-2.47-0.87-3.62,0.36c-1.11,1.18-2.25,2.09-1.09,4.04
			c1.54,2.59,0.73,4.19-2.26,4.7c-1.85,0.32-2.27,1.27-2.08,2.88c0.17,1.44-0.6,3.17,1.92,3.62c3.26,0.59,3.97,2.12,2.36,4.89
			c-1.08,1.86-0.01,2.69,1.07,3.75c1.04,1.03,1.91,1.8,3.54,0.67c2.44-1.69,4.48-0.83,4.71,2.07c0.2,2.44,1.63,2.26,3.27,2.28
			c1.64,0.01,3.13,0.17,3.43-2.18c0.35-2.72,2.07-3.54,4.19-2.05c1.45,1.02,2.51,0.98,3.56-0.35c0.97-1.24,2.67-2.1,1.33-4.27
			c-1.69-2.74-0.93-3.87,2.34-4.9c0.83-0.26,1.65-1.41,1.93-2.32c0.33-1.07,0.08-2.32,0.08-3.39c-0.72-0.28-1.08-0.45-1.46-0.56
			c-3.77-1.02-4.13-1.89-2.6-5.55c0.26-0.63,0.06-1.74-0.36-2.31C521.31,278.49,520.23,277.73,519.19,276.78z"/>
		<path class="st0" d="M515.57,17.19c0,1.6,0,2.98,0,4.36c0.02,42.6,0.01,85.2,0.11,127.8c0.01,2.61-0.65,3.37-3.32,3.37
			c-82.81-0.09-165.63-0.09-248.44-0.11c-4.31,0-4.35-0.02-4.35-4.15c-0.05-42.8-0.08-85.6-0.11-128.4c0-0.88,0.1-1.75,0.17-2.87
			C344.91,17.19,430.04,17.19,515.57,17.19z M406.28,103.34c0,0.06,0,0.12,0,0.18c-8.16,0-16.33,0.05-24.49-0.03
			c-2.17-0.02-3.02,0.73-3,2.95c0.08,9.56,0.11,19.12,0,28.67c-0.03,2.78,1.06,3.6,3.72,3.59c16.13-0.08,32.26-0.07,48.38-0.02
			c2.36,0.01,3.47-0.74,3.45-3.26c-0.09-9.56-0.11-19.12-0.03-28.67c0.02-2.59-0.94-3.49-3.54-3.46
			C422.61,103.41,414.45,103.34,406.28,103.34z M438.75,94.2c0-0.01,0-0.01,0-0.02c19.01,0,38.03-0.04,57.04,0.04
			c2.63,0.01,3.74-0.67,3.71-3.53c-0.13-12.04-0.13-24.09-0.02-36.13c0.02-2.71-0.86-3.68-3.61-3.67
			c-38.03,0.06-76.05,0.06-114.08-0.01c-2.94-0.01-3.71,1.07-3.68,3.88c0.12,11.94,0.11,23.89-0.01,35.83
			c-0.03,2.73,0.87,3.66,3.61,3.65C400.73,94.16,419.74,94.2,438.75,94.2z M364.02,57.65C364,38.54,347.64,22.37,328.4,22.45
			c-19.2,0.09-35.4,15.96-35.46,34.75c-0.07,19.32,16.43,35.89,36.01,35.38C347.88,92.08,363.7,78.21,364.02,57.65z M322.26,122.79
			c0,0.01,0,0.01,0,0.02c12.03,0,24.06,0,36.08,0c0.69,0,1.47,0.14,2.06-0.11c0.53-0.22,1.19-0.9,1.19-1.38
			c0-0.53-0.59-1.26-1.11-1.52c-0.57-0.28-1.36-0.14-2.05-0.14c-23.96,0.01-47.91,0.02-71.87,0.03c-0.79,0-1.66-0.16-2.36,0.1
			c-0.63,0.23-1.08,0.94-1.6,1.43c0.5,0.52,0.91,1.22,1.52,1.49c0.58,0.26,1.37,0.08,2.06,0.08
			C298.2,122.8,310.23,122.79,322.26,122.79z M322.05,108.39c0,0,0,0.01,0,0.01c-11.94,0-23.88,0-35.81,0
			c-0.7,0-1.48-0.18-2.06,0.08c-0.6,0.26-1.02,0.95-1.52,1.46c0.47,0.44,0.86,1.08,1.42,1.28c0.61,0.23,1.37,0.09,2.07,0.09
			c24.07-0.01,48.15-0.02,72.22-0.03c0.69,0,1.44,0.09,2.06-0.15c0.46-0.17,1.01-0.8,1.03-1.23c0.01-0.45-0.5-1.19-0.93-1.31
			c-0.83-0.24-1.76-0.19-2.65-0.19C345.92,108.39,333.98,108.39,322.05,108.39z M322.03,131.17c0,0.01,0,0.02,0,0.03
			c-12.04,0-24.08,0-36.11,0c-0.6,0-1.26-0.15-1.77,0.06c-0.56,0.23-0.98,0.79-1.46,1.21c0.49,0.52,0.9,1.23,1.51,1.51
			c0.58,0.26,1.37,0.09,2.06,0.09c23.88-0.01,47.75-0.02,71.63-0.04c0.79,0,1.65,0.13,2.36-0.12c0.54-0.19,1.22-0.89,1.23-1.38
			c0.01-0.44-0.73-1.1-1.27-1.31c-0.61-0.23-1.37-0.05-2.07-0.05C346.11,131.17,334.07,131.17,322.03,131.17z M471.11,137.08
			c0-0.01,0-0.02,0-0.04c8.24,0,16.49,0.05,24.73-0.07c0.99-0.01,1.97-0.97,2.96-1.49c-0.96-0.45-1.92-1.29-2.88-1.29
			c-16.48-0.07-32.97-0.07-49.45,0.02c-1.05,0.01-2.09,0.89-3.13,1.36c1.02,0.5,2.03,1.42,3.05,1.43
			C454.63,137.13,462.87,137.08,471.11,137.08z M471.08,126.92c0-0.01,0-0.01,0-0.02c5.17,0,10.34,0,15.51,0
			c3.48,0,6.96,0.08,10.44-0.05c0.62-0.02,1.21-0.92,1.82-1.42c-0.56-0.45-1.08-0.99-1.71-1.31c-0.4-0.2-0.98-0.05-1.47-0.05
			c-16.41,0.01-32.81-0.01-49.22,0.09c-1.02,0.01-2.02,0.95-3.04,1.46c1.07,0.44,2.13,1.23,3.21,1.25
			C454.78,126.97,462.93,126.92,471.08,126.92z M471.38,113.91c0,0,0,0.01,0,0.01c-8.36,0-16.73-0.04-25.09,0.06
			c-0.96,0.01-1.91,0.86-2.86,1.31c0.94,0.49,1.88,1.41,2.82,1.41c16.53,0.07,33.05,0.06,49.58-0.05c0.99-0.01,1.98-0.97,2.97-1.49
			c-0.98-0.42-1.95-1.2-2.93-1.21C487.71,113.87,479.55,113.91,471.38,113.91z M471.09,103.79c0-0.01,0-0.02,0-0.02
			c-8.15,0-16.3-0.05-24.44,0.07c-1.03,0.01-2.05,0.93-3.07,1.42c0.96,0.47,1.91,1.33,2.87,1.34c16.49,0.07,32.99,0.05,49.48-0.04
			c0.96-0.01,1.92-0.83,2.89-1.27c-0.99-0.5-1.98-1.41-2.98-1.43C487.59,103.74,479.34,103.79,471.09,103.79z M480.1,37.35
			c0,0,0,0.01,0,0.01c4.97,0,9.95,0.08,14.92-0.08c0.82-0.03,1.62-1.05,2.42-1.62c-0.76-0.75-1.46-1.57-2.3-2.21
			c-0.32-0.24-0.97-0.06-1.46-0.06c-9.05-0.01-18.11,0-27.16-0.04c-1.63-0.01-3.3,0.16-3.25,2.1c0.05,2.02,1.87,1.91,3.4,1.9
			C471.15,37.34,475.62,37.35,480.1,37.35z M444.06,37.4c0-0.01,0-0.01,0-0.02c2.18,0,4.38,0.14,6.54-0.08
			c0.75-0.07,1.41-1.02,2.12-1.57c-0.65-0.62-1.28-1.75-1.95-1.76c-4.46-0.11-8.93-0.06-13.39,0.15c-0.65,0.03-1.24,1.21-1.85,1.86
			c0.66,0.47,1.29,1.3,1.98,1.35C439.68,37.51,441.88,37.4,444.06,37.4z M388.22,37.39c0-0.01,0-0.01,0-0.02
			c2.08,0,4.18,0.14,6.24-0.08c0.73-0.08,1.38-1.03,2.06-1.59c-0.67-0.6-1.33-1.7-2.03-1.73c-4.06-0.15-8.13-0.14-12.19,0.07
			c-0.78,0.04-1.49,1.2-2.24,1.84c0.74,0.5,1.43,1.35,2.21,1.44C384.24,37.53,386.24,37.39,388.22,37.39z M415.97,34.18
			c0,0.01,0,0.01,0,0.02c-2.29,0-4.59-0.11-6.86,0.06c-0.7,0.05-1.33,0.87-2,1.34c0.67,0.57,1.31,1.62,2,1.65
			c4.47,0.16,8.95,0.16,13.43,0.02c0.73-0.02,1.43-0.99,2.14-1.52c-0.71-0.52-1.39-1.43-2.15-1.5
			C420.36,34.05,418.16,34.18,415.97,34.18z"/>
		<path class="st0" d="M266.12,6.33c1.28,1.65,2.6,2.61,2.53,3.45c-0.08,0.89-1.38,2.08-2.35,2.32c-0.58,0.14-2.13-1.25-2.19-2.03
			C264.04,9.13,265.1,8.11,266.12,6.33z"/>
		<path class="st0" d="M276.29,6.31c1.22,1.7,2.5,2.7,2.4,3.54c-0.1,0.88-1.43,2.05-2.39,2.25c-0.59,0.12-2.07-1.32-2.12-2.12
			C274.13,9.05,275.22,8.06,276.29,6.31z"/>
		<path class="st0" d="M286.38,6.35c1.09,1.73,2.18,2.71,2.14,3.65c-0.03,0.73-1.51,1.99-2.27,1.93c-0.78-0.06-1.95-1.38-2.03-2.24
			C284.14,8.89,285.27,7.97,286.38,6.35z"/>
		<path class="st0" d="M386.83,185.9c50.09,0,100,0,150.2,0c0,16.43,0,32.78,0,49.48c-1.06,0.05-2.11,0.14-3.17,0.14
			c-47.77,0.02-95.55,0-143.32,0.09c-2.96,0.01-3.93-0.72-3.9-3.81c0.14-14.33,0.03-28.66,0.02-43
			C386.65,187.94,386.76,187.07,386.83,185.9z M455.48,228.65c1.18-1.44,2.08-2.19,2.53-3.15c1.96-4.24,3.83-8.52,5.66-12.82
			c2.06-4.85,4.09-9.71,5.99-14.62c0.26-0.68-0.29-1.67-0.46-2.52c-0.95,0.26-2.22,0.23-2.78,0.85c-0.82,0.92-1.16,2.28-1.67,3.47
			c-3.3,7.77-6.6,15.55-9.89,23.33c-0.35,0.82-0.89,1.68-0.85,2.51C454.04,226.46,454.72,227.2,455.48,228.65z M489.28,212.64
			c-3.87,2.19-7.35,4.04-10.68,6.13c-0.68,0.43-0.8,1.73-1.18,2.63c0.94,0.22,2.12,0.91,2.77,0.58c4.48-2.35,8.87-4.87,13.22-7.43
			c1.67-0.98,1.81-2.71,0.28-3.65c-4.56-2.79-9.29-5.32-14.01-7.84c-0.49-0.26-1.84,0.08-2,0.47c-0.28,0.68-0.25,1.89,0.2,2.38
			c0.84,0.92,2.02,1.57,3.13,2.2C483.59,209.58,486.2,210.96,489.28,212.64z M434.63,212.6c3.56-1.99,6.91-3.7,10.04-5.73
			c0.88-0.57,1.14-2.11,1.69-3.21c-1.11,0.01-2.42-0.36-3.31,0.09c-3.89,1.97-7.66,4.18-11.47,6.31c-2.83,1.59-2.92,3.3-0.11,5.01
			c3.64,2.22,7.33,4.38,11.12,6.33c0.99,0.51,3.1,0.65,3.53,0.08c1.2-1.57-0.17-2.62-1.59-3.4
			C441.33,216.34,438.15,214.55,434.63,212.6z"/>
		<path class="st0" d="M403.68,175.96c1.25,1.43,2.01,2.29,2.77,3.16c-0.95,0.79-1.84,2.12-2.86,2.21
			c-0.83,0.08-1.81-1.29-2.72-2.02C401.66,178.38,402.45,177.44,403.68,175.96z"/>
		<path class="st0" d="M415.11,175.88c1.11,1.48,2.33,2.4,2.25,3.19c-0.08,0.81-1.42,2.06-2.23,2.08c-0.76,0.02-2.1-1.27-2.18-2.08
			C412.86,178.28,414.04,177.35,415.11,175.88z"/>
		<path class="st0" d="M395.93,179.29c-1.58,1.02-2.6,2.18-3.34,2.02c-0.91-0.19-1.6-1.48-2.38-2.29c0.82-0.68,1.61-1.87,2.46-1.91
			C393.51,177.08,394.4,178.2,395.93,179.29z"/>
		<path class="st0" d="M404.76,416.06c3.93-3.34,4.51-5.92,2.23-8.3c-1.98-2.07-5.75-1.98-7.76,0.2c-2.23,2.42-1.71,4.78,2.21,8.14
			c-3.99,0-7.52,0.29-10.98-0.08c-3.33-0.35-4.65-3.79-3.42-8.28c-2.2,0-4.35,0.09-6.48-0.05c-0.73-0.05-1.43-0.68-2.14-1.04
			c0.75-0.43,1.5-1.22,2.25-1.23c7.96-0.08,15.92-0.03,23.87-0.03c25.67,0.01,51.33,0.02,77,0.04c4.82,0,4.84,0.02,4.81,4.74
			c-0.05,6.75,0.73,5.9-5.85,5.9c-24.27,0.01-48.55-0.01-72.82-0.01C406.88,416.06,406.09,416.06,404.76,416.06z"/>
		<path class="st0" d="M328.03,406.25c0.9-0.3,1.8-0.85,2.71-0.86c14.22-0.08,28.44-0.11,42.66-0.06c0.76,0,1.52,0.78,2.28,1.19
			c-0.76,0.42-1.51,1.22-2.27,1.22c-14.32,0.07-28.64,0.05-42.96,0.01c-0.73,0-1.46-0.27-2.19-0.42
			C328.19,406.98,328.11,406.61,328.03,406.25z"/>
		<path d="M125.07,265.95c0.56,0.98,1.87,2.3,1.99,3.73c0.16,1.89-1.29,3.75-3.28,3.3c-1.11-0.25-2.31-2.24-2.57-3.62
			C120.91,267.64,121.89,266.07,125.07,265.95z"/>
		<path d="M122.6,203.49c-1.74,1.48-2.67,2.92-3.71,3.01c-2.19,0.18-3.61-1.51-3.3-3.56c0.17-1.15,2-3.04,2.72-2.89
			C119.65,200.34,120.72,201.88,122.6,203.49z"/>
		<path d="M123.01,380.89c-0.08,2.31-1.82,4.12-3.88,4.04c-1.99-0.08-3.78-2.16-3.53-4.36c0.24-2.16,1.3-3.77,3.72-3.87
			C121.36,376.62,123.09,378.65,123.01,380.89z"/>
		<path d="M177.4,266.97c-1.46,1.45-2.36,2.34-3.26,3.24c-0.8-1.07-2.15-2.11-2.23-3.24c-0.07-0.9,1.39-1.92,2.17-2.89
			C174.97,264.86,175.86,265.63,177.4,266.97z"/>
		<path d="M186.33,382.27c-1.01-1.72-2.15-2.78-2.05-3.71c0.09-0.87,1.49-1.61,2.32-2.4c0.67,0.95,1.78,1.86,1.88,2.87
			C188.55,379.83,187.39,380.75,186.33,382.27z"/>
		<path d="M359.1,274.39c0,2.58-0.03,5.16,0.01,7.74c0.04,2.1-0.88,3.1-3.03,3.09c-5.16-0.04-10.32-0.02-15.49,0.01
			c-2.24,0.02-3.29-1.07-3.3-3.26c-0.01-5.06-0.02-10.13-0.03-15.19c0-2.19,1.02-3.24,3.3-3.21c5.16,0.07,10.33,0.07,15.49,0.02
			c2.15-0.02,3.08,0.94,3.05,3.05C359.06,269.23,359.09,271.81,359.1,274.39z"/>
		<path d="M404.13,263.57c2.59,0,5.17,0.05,7.76-0.02c2.06-0.06,2.88,0.94,2.87,2.89c-0.01,5.27-0.03,10.55,0.02,15.82
			c0.02,1.99-0.8,2.96-2.82,2.95c-5.27-0.02-10.55-0.02-15.82-0.01c-2.08,0.01-3.13-0.91-3.11-3.06c0.03-5.27,0.02-10.55,0.01-15.82
			c-0.01-1.86,0.87-2.74,2.73-2.72c2.79,0.02,5.57,0.01,8.36,0.01C404.13,263.6,404.13,263.59,404.13,263.57z"/>
		<path d="M386.41,274.54c0,2.38-0.08,4.77,0.02,7.14c0.09,2.02-0.72,2.94-2.76,2.92c-5.06-0.05-10.12-0.06-15.18-0.06
			c-2.01,0-2.82-0.95-2.8-2.94c0.05-4.86,0.04-9.73-0.05-14.59c-0.04-2.22,1.02-3.01,3.08-2.99c4.86,0.03,9.73,0.03,14.59,0
			c2.13-0.02,3.08,0.95,3.04,3.08c-0.05,2.48-0.01,4.96-0.01,7.44C386.37,274.54,386.39,274.54,386.41,274.54z"/>
		<path d="M430.46,301.95c-9.24,0-18.49,0-27.73,0c-0.79,0-1.64,0.14-2.37-0.1c-0.56-0.18-0.95-0.86-1.41-1.32
			c0.46-0.44,0.84-1.1,1.39-1.28c0.72-0.24,1.57-0.14,2.37-0.14c18.69-0.01,37.38-0.04,56.06,0.04c1.25,0.01,2.5,0.9,3.76,1.38
			c-1.24,0.48-2.48,1.35-3.73,1.37c-9.44,0.12-18.89,0.06-28.33,0.06C430.46,301.97,430.46,301.96,430.46,301.95z"/>
		<path d="M430.94,308.89c9.35,0,18.7,0,28.05,0c0.79,0,1.63-0.08,2.36,0.14c0.45,0.13,1.02,0.76,1.04,1.19
			c0.01,0.43-0.5,1.12-0.94,1.28c-0.72,0.25-1.56,0.21-2.34,0.21c-19,0-37.99,0-56.99-0.01c-0.69,0-1.44,0.09-2.06-0.13
			c-0.46-0.17-1.04-0.76-1.06-1.19c-0.02-0.42,0.52-1.13,0.96-1.26c0.83-0.25,1.76-0.23,2.65-0.23c9.45-0.01,18.9-0.01,28.35-0.01
			C430.94,308.88,430.94,308.88,430.94,308.89z"/>
		<path d="M365.7,321.57c-7.15,0-14.3,0.06-21.44-0.07c-1.02-0.02-2.03-0.95-3.04-1.46c0.98-0.45,1.96-1.27,2.94-1.28
			c14.49-0.1,28.99-0.11,43.48-0.03c0.9,0,1.79,0.96,2.68,1.47c-0.96,0.45-1.92,1.28-2.88,1.3
			C380.19,321.62,372.95,321.57,365.7,321.57z"/>
		<path d="M365.96,301.99c-7.06,0-14.12,0-21.18,0c-0.69,0-1.46,0.13-2.06-0.11c-0.56-0.22-0.96-0.86-1.43-1.32
			c0.45-0.46,0.83-1.14,1.37-1.32c0.72-0.25,1.57-0.14,2.36-0.14c14.02,0,28.04,0,42.05,0.01c0.3,0,0.66-0.11,0.88,0.01
			c0.77,0.43,1.5,0.95,2.24,1.43c-0.73,0.48-1.44,1.35-2.18,1.36c-5.37,0.11-10.74,0.05-16.1,0.05c-1.99,0-3.98,0-5.97,0
			C365.96,301.97,365.96,301.98,365.96,301.99z"/>
		<path d="M365.75,308.78c7.17,0,14.34,0,21.5,0c0.2,0,0.44-0.08,0.59,0.01c0.85,0.46,1.69,0.96,2.53,1.44
			c-0.81,0.51-1.6,1.42-2.42,1.46c-3.38,0.15-6.77,0-10.15,0.01c-10.95,0.06-21.9,0.14-32.85,0.22c-0.3,0-0.64,0.1-0.89-0.01
			c-0.97-0.46-1.9-0.99-2.85-1.49c0.91-0.52,1.82-1.47,2.74-1.5c4.97-0.12,9.95-0.01,14.93,0.02c2.29,0.01,4.58,0,6.87,0
			C365.75,308.89,365.75,308.84,365.75,308.78z"/>
		<path d="M417.61,318.69c5.46,0,10.92-0.06,16.37,0.06c0.89,0.02,1.77,0.78,2.66,1.2c-0.89,0.53-1.78,1.52-2.68,1.53
			c-10.81,0.12-21.63,0.14-32.44,0.04c-0.89-0.01-1.78-1.01-2.67-1.55c0.9-0.43,1.78-1.21,2.69-1.23
			c5.36-0.12,10.71-0.06,16.07-0.06C417.61,318.68,417.61,318.68,417.61,318.69z"/>
		<path d="M449.09,281.44c1.43,1.01,3,2.13,4.23,3.01C449.35,284.73,449.1,284.56,449.09,281.44z"/>
		<path d="M377.91,354.07c2.87,0,5.23,0,8.13,0c0-1.8-0.16-3.56,0.08-5.27c0.1-0.7,1.07-1.27,1.65-1.9c0.6,0.6,1.69,1.18,1.71,1.79
			c0.14,4.97,0.14,9.95,0,14.92c-0.02,0.61-1.1,1.19-1.69,1.79c-0.56-0.64-1.51-1.22-1.59-1.92c-0.23-1.84-0.08-3.73-0.08-5.8
			c-2.83,0-5.36,0-8.29,0c0,2.04,0.14,4.01-0.08,5.95c-0.08,0.65-1.08,1.19-1.66,1.79c-0.53-0.55-1.51-1.1-1.53-1.66
			c-0.12-5.07-0.13-10.15-0.01-15.22c0.01-0.55,1.18-1.61,1.55-1.51c0.71,0.2,1.63,1.01,1.73,1.67
			C378.08,350.35,377.91,352.05,377.91,354.07z"/>
		<path d="M404.04,350.3c0,4.06,0,7.81,0,11.73c0.53,0.12,1.08,0.1,1.42,0.35c0.67,0.5,1.23,1.16,1.83,1.76
			c-0.66,0.39-1.3,1.09-1.98,1.13c-2.57,0.13-5.15,0.05-7.68,0.05c-0.86-2.74-0.86-2.74,2.44-3.24c0-3.77,0-7.59,0-11.62
			c-0.52-0.13-1.27-0.13-1.77-0.48c-0.54-0.38-1.09-1.06-1.16-1.66c-0.04-0.38,0.78-1.21,1.25-1.24c2.47-0.14,4.96-0.15,7.44-0.04
			c0.48,0.02,1.24,0.75,1.31,1.22c0.07,0.49-0.45,1.26-0.92,1.57C405.68,350.18,404.91,350.14,404.04,350.3z"/>
		<path d="M355.33,357.57c-2.38,0-4.78,0.12-7.14-0.07c-0.78-0.06-1.49-0.94-2.23-1.45c0.75-0.48,1.49-1.35,2.25-1.37
			c4.76-0.14,9.53-0.14,14.3-0.02c0.73,0.02,1.43,0.95,2.15,1.46c-0.72,0.5-1.41,1.36-2.17,1.42c-2.37,0.19-4.76,0.07-7.14,0.07
			C355.33,357.6,355.33,357.59,355.33,357.57z"/>
		<path d="M355.49,349.59c-2.48,0-4.97,0.12-7.43-0.07c-0.74-0.06-1.41-0.96-2.11-1.48c0.68-0.41,1.35-1.17,2.05-1.19
			c4.86-0.12,9.72-0.13,14.57-0.04c0.66,0.01,1.3,0.85,1.95,1.31c-0.63,0.5-1.23,1.37-1.89,1.42c-2.37,0.17-4.75,0.07-7.13,0.07
			C355.49,349.61,355.49,349.6,355.49,349.59z"/>
		<path d="M355.4,362.75c2.37,0,4.75-0.1,7.11,0.06c0.68,0.05,1.32,0.81,1.98,1.25c-0.69,0.51-1.36,1.45-2.06,1.47
			c-4.74,0.14-9.49,0.15-14.23,0.02c-0.74-0.02-1.45-0.93-2.17-1.43c0.75-0.47,1.47-1.27,2.25-1.33c2.36-0.18,4.74-0.06,7.11-0.06
			C355.4,362.74,355.4,362.74,355.4,362.75z"/>
		<path d="M519.19,276.78c1.04,0.95,2.12,1.71,2.87,2.72c0.42,0.57,0.62,1.68,0.36,2.31c-1.53,3.65-1.16,4.53,2.6,5.55
			c0.38,0.1,0.74,0.28,1.46,0.56c0,1.07,0.26,2.32-0.08,3.39c-0.28,0.91-1.11,2.06-1.93,2.32c-3.26,1.03-4.03,2.16-2.34,4.9
			c1.33,2.17-0.36,3.03-1.33,4.27c-1.05,1.33-2.11,1.37-3.56,0.35c-2.12-1.49-3.84-0.67-4.19,2.05c-0.3,2.35-1.79,2.19-3.43,2.18
			c-1.63-0.01-3.07,0.17-3.27-2.28c-0.24-2.9-2.28-3.76-4.71-2.07c-1.63,1.13-2.5,0.36-3.54-0.67c-1.07-1.06-2.14-1.9-1.07-3.75
			c1.61-2.77,0.89-4.3-2.36-4.89c-2.52-0.45-1.75-2.18-1.92-3.62c-0.19-1.6,0.23-2.56,2.08-2.88c2.99-0.51,3.79-2.12,2.26-4.7
			c-1.16-1.95-0.02-2.86,1.09-4.04c1.15-1.22,2.17-1.34,3.62-0.36c2.33,1.58,3.85,0.83,4.36-2.12c0.27-1.52,0.87-2.49,2.5-2.15
			c1.38,0.29,3.54,0.47,3.91,1.33C514.55,279.68,515.02,279.94,519.19,276.78z M502.31,290.62c-0.03,3.95,3.18,7.25,7.1,7.31
			c4.2,0.06,7.5-3.13,7.5-7.24c0-3.81-3.42-7.34-7.16-7.4C505.67,283.23,502.34,286.5,502.31,290.62z"/>
		<path d="M406.28,103.34c8.16,0,16.33,0.08,24.49-0.04c2.59-0.04,3.56,0.86,3.54,3.46c-0.08,9.56-0.06,19.12,0.03,28.67
			c0.02,2.52-1.09,3.27-3.45,3.26c-16.13-0.05-32.26-0.07-48.38,0.02c-2.66,0.01-3.75-0.81-3.72-3.59c0.11-9.56,0.08-19.12,0-28.67
			c-0.02-2.22,0.84-2.97,3-2.95c8.16,0.08,16.33,0.03,24.49,0.03C406.28,103.46,406.28,103.4,406.28,103.34z M398.72,121.87
			c-4.96,4.58-9.78,9.03-14.95,13.8c16.21,0,31.67,0,47.07,0c1.4-8.92,0.77-10.89-5.22-16.85c-1.2-1.19-2.44-2.36-3.5-3.67
			c-1.63-2.03-3.01-1.75-4.6,0.06c-2.42,2.77-4.89,5.51-7.46,8.14c-3.9,4.01-3.93,3.96-8.28,0.63
			C400.92,123.32,399.99,122.74,398.72,121.87z"/>
		<path d="M438.75,94.2c-19.01,0-38.03-0.04-57.04,0.05c-2.75,0.01-3.64-0.92-3.61-3.65c0.12-11.94,0.13-23.89,0.01-35.83
			c-0.03-2.8,0.74-3.88,3.68-3.88c38.03,0.07,76.05,0.07,114.08,0.01c2.75,0,3.63,0.96,3.61,3.67c-0.1,12.04-0.11,24.09,0.02,36.13
			c0.03,2.86-1.08,3.54-3.71,3.53c-19.01-0.08-38.02-0.04-57.04-0.04C438.75,94.19,438.75,94.19,438.75,94.2z M496.35,91.3
			c0-7.17,0-14.07,0-21.05c-0.84-0.05-1.42-0.13-2.01-0.1c-1.49,0.07-2.98,0.13-4.46,0.3c-14.48,1.68-28.43,5.68-42.36,9.76
			c-1.58,0.46-2.52,1.01-2.92,2.79c-0.57,2.52-2.74,3.33-5.09,3.19c-2.33-0.14-4.07-1.17-4.76-3.73c-0.28-1.04-1.24-2.23-2.21-2.7
			c-11.9-5.7-24.29-9.92-37.4-11.73c-4.56-0.63-9.18-0.81-13.86-1.2c0,8.56,0,16.46,0,24.46C419.78,91.3,458.04,91.3,496.35,91.3z
			 M381.43,53.66c-0.17,0.43-0.37,0.7-0.37,0.96c-0.02,2.39,0.11,4.78-0.02,7.16c-0.11,1.88,0.69,2.35,2.42,2.41
			c17.66,0.61,34.25,5.44,50.19,12.85c0.81,0.38,2.12,0.37,2.92-0.02c2.36-1.15,4.47-1.24,6.74,0.24c0.77,0.5,2.07,0.71,2.95,0.45
			c15.91-4.78,31.84-9.4,48.52-10.65c0.62-0.05,1.66-0.93,1.68-1.46c0.14-3.93,0.08-7.88,0.08-11.95
			C457.89,53.66,419.65,53.66,381.43,53.66z M439.77,84.94c1.26-1.69,2.69-2.79,2.56-3.63c-0.16-0.95-1.65-2.16-2.71-2.33
			c-0.68-0.11-2.31,1.44-2.3,2.24C437.33,82.23,438.57,83.23,439.77,84.94z"/>
		<path d="M364.02,57.65c-0.31,20.56-16.13,34.44-35.08,34.93c-19.58,0.51-36.07-16.06-36.01-35.38
			C293,38.41,309.2,22.54,328.4,22.45C347.64,22.37,364,38.54,364.02,57.65z M311.91,29.14c-0.99,1.11-1.75,2.32-2.83,3.11
			c-8.61,6.27-12.94,14.99-12.98,25.32c-0.06,16.17,12.44,29.54,28.61,31.61c21.49,2.76,39.87-16.68,35.53-37.58
			c-1.58-7.61-5.48-13.77-11.54-18.62c-1.23-0.98-2.03-2.57-3.34-3.36c-1.38-0.83-3.18-0.92-4.72-1.53
			c-8.7-3.41-17.28-3.11-25.81,0.64C313.89,29.14,312.74,29.04,311.91,29.14z"/>
		<path d="M322.26,122.79c-12.03,0-24.06,0-36.08,0c-0.7,0-1.48,0.18-2.06-0.08c-0.61-0.27-1.02-0.98-1.52-1.49
			c0.53-0.5,0.98-1.2,1.6-1.43c0.71-0.26,1.57-0.1,2.36-0.1c23.96-0.01,47.91-0.02,71.87-0.03c0.69,0,1.48-0.14,2.05,0.14
			c0.52,0.26,1.11,0.99,1.11,1.52c0,0.48-0.66,1.16-1.19,1.38c-0.6,0.25-1.37,0.11-2.06,0.11c-12.03,0-24.06,0-36.08,0
			C322.26,122.81,322.26,122.8,322.26,122.79z"/>
		<path d="M322.05,108.39c11.94,0,23.88,0,35.81,0.01c0.89,0,1.82-0.05,2.65,0.19c0.43,0.13,0.94,0.86,0.93,1.31
			c-0.01,0.44-0.57,1.06-1.03,1.23c-0.62,0.23-1.37,0.14-2.06,0.15c-24.07,0.01-48.15,0.02-72.22,0.03c-0.7,0-1.46,0.14-2.07-0.09
			c-0.55-0.21-0.95-0.84-1.42-1.28c0.5-0.5,0.91-1.2,1.52-1.46c0.59-0.25,1.37-0.08,2.06-0.08c11.94,0,23.88,0,35.81,0
			C322.05,108.4,322.05,108.4,322.05,108.39z"/>
		<path d="M322.03,131.17c12.04,0,24.08,0,36.11,0c0.7,0,1.46-0.17,2.07,0.05c0.54,0.2,1.28,0.86,1.27,1.31
			c-0.01,0.49-0.69,1.19-1.23,1.38c-0.71,0.25-1.57,0.12-2.36,0.12c-23.88,0.02-47.75,0.03-71.63,0.04c-0.7,0-1.48,0.18-2.06-0.09
			c-0.61-0.28-1.01-0.99-1.51-1.51c0.48-0.42,0.9-0.98,1.46-1.21c0.51-0.21,1.18-0.06,1.77-0.06c12.04,0,24.08,0,36.11,0
			C322.03,131.19,322.03,131.18,322.03,131.17z"/>
		<path d="M471.11,137.08c-8.24,0-16.49,0.05-24.73-0.07c-1.02-0.01-2.04-0.93-3.05-1.43c1.04-0.47,2.08-1.36,3.13-1.36
			c16.48-0.09,32.97-0.1,49.45-0.02c0.96,0,1.92,0.84,2.88,1.29c-0.99,0.52-1.97,1.48-2.96,1.49c-8.24,0.12-16.48,0.07-24.73,0.07
			C471.11,137.05,471.11,137.07,471.11,137.08z"/>
		<path d="M471.08,126.92c-8.15,0-16.31,0.05-24.46-0.06c-1.08-0.01-2.14-0.81-3.21-1.25c1.01-0.51,2.02-1.45,3.04-1.46
			c16.4-0.1,32.81-0.08,49.22-0.09c0.5,0,1.07-0.15,1.47,0.05c0.63,0.31,1.14,0.86,1.71,1.31c-0.6,0.5-1.19,1.39-1.82,1.42
			c-3.47,0.13-6.96,0.05-10.44,0.05c-5.17,0-10.34,0-15.51,0C471.08,126.9,471.08,126.91,471.08,126.92z"/>
		<path d="M471.38,113.91c8.16,0,16.33-0.04,24.49,0.06c0.98,0.01,1.95,0.79,2.93,1.21c-0.99,0.52-1.98,1.48-2.97,1.49
			c-16.53,0.11-33.05,0.12-49.58,0.05c-0.94,0-1.88-0.92-2.82-1.41c0.95-0.46,1.9-1.3,2.86-1.31c8.36-0.1,16.72-0.06,25.09-0.06
			C471.38,113.92,471.38,113.91,471.38,113.91z"/>
		<path d="M471.09,103.79c8.25,0,16.49-0.05,24.74,0.07c1,0.01,1.99,0.93,2.98,1.43c-0.96,0.44-1.92,1.26-2.89,1.27
			c-16.49,0.09-32.99,0.11-49.48,0.04c-0.96,0-1.91-0.87-2.87-1.34c1.02-0.5,2.04-1.41,3.07-1.42c8.15-0.12,16.29-0.07,24.44-0.07
			C471.09,103.77,471.09,103.78,471.09,103.79z"/>
		<path d="M480.1,37.35c-4.48,0-8.95-0.01-13.43,0.01c-1.53,0.01-3.35,0.12-3.4-1.9c-0.05-1.94,1.62-2.11,3.25-2.1
			c9.05,0.05,18.11,0.03,27.16,0.04c0.5,0,1.14-0.18,1.46,0.06c0.84,0.64,1.54,1.46,2.3,2.21c-0.81,0.57-1.6,1.59-2.42,1.62
			c-4.97,0.15-9.95,0.08-14.92,0.08C480.1,37.36,480.1,37.36,480.1,37.35z"/>
		<path d="M444.06,37.4c-2.18,0-4.38,0.11-6.55-0.07c-0.69-0.06-1.33-0.88-1.98-1.35c0.62-0.65,1.21-1.83,1.85-1.86
			c4.46-0.21,8.93-0.26,13.39-0.15c0.66,0.02,1.3,1.15,1.95,1.76c-0.7,0.55-1.37,1.5-2.12,1.57c-2.16,0.21-4.36,0.08-6.54,0.08
			C444.06,37.39,444.06,37.39,444.06,37.4z"/>
		<path d="M388.22,37.39c-1.98,0-3.98,0.14-5.94-0.07c-0.78-0.08-1.48-0.93-2.21-1.44c0.74-0.64,1.46-1.8,2.24-1.84
			c4.05-0.21,8.13-0.21,12.19-0.07c0.7,0.03,1.35,1.12,2.03,1.73c-0.68,0.56-1.32,1.51-2.06,1.59c-2.06,0.22-4.16,0.08-6.24,0.08
			C388.22,37.37,388.22,37.38,388.22,37.39z"/>
		<path d="M415.97,34.18c2.19,0,4.39-0.13,6.56,0.07c0.76,0.07,1.44,0.97,2.15,1.5c-0.71,0.53-1.41,1.5-2.14,1.52
			c-4.47,0.14-8.96,0.13-13.43-0.02c-0.68-0.02-1.33-1.07-2-1.65c0.67-0.47,1.3-1.28,2-1.34c2.28-0.17,4.57-0.06,6.86-0.06
			C415.97,34.2,415.97,34.19,415.97,34.18z"/>
		<path d="M455.48,228.65c-0.76-1.45-1.44-2.19-1.47-2.96c-0.03-0.82,0.51-1.69,0.85-2.51c3.29-7.78,6.59-15.56,9.89-23.33
			c0.51-1.19,0.84-2.55,1.67-3.47c0.55-0.62,1.83-0.59,2.78-0.85c0.17,0.85,0.72,1.84,0.46,2.52c-1.9,4.91-3.93,9.77-5.99,14.62
			c-1.83,4.3-3.69,8.58-5.66,12.82C457.56,226.46,456.66,227.21,455.48,228.65z"/>
		<path d="M489.28,212.64c-3.09-1.68-5.7-3.06-8.27-4.52c-1.11-0.63-2.3-1.28-3.13-2.2c-0.45-0.49-0.48-1.7-0.2-2.38
			c0.16-0.39,1.51-0.73,2-0.47c4.73,2.52,9.45,5.04,14.01,7.84c1.53,0.94,1.38,2.67-0.28,3.65c-4.36,2.56-8.75,5.08-13.22,7.43
			c-0.64,0.34-1.83-0.36-2.77-0.58c0.38-0.9,0.51-2.21,1.18-2.63C481.94,216.68,485.41,214.83,489.28,212.64z"/>
		<path d="M434.63,212.6c3.52,1.95,6.7,3.74,9.9,5.49c1.42,0.78,2.79,1.83,1.59,3.4c-0.44,0.57-2.54,0.43-3.53-0.08
			c-3.79-1.95-7.48-4.11-11.12-6.33c-2.81-1.71-2.72-3.42,0.11-5.01c3.81-2.14,7.58-4.34,11.47-6.31c0.89-0.45,2.19-0.08,3.31-0.09
			c-0.54,1.1-0.8,2.63-1.69,3.21C441.54,208.9,438.19,210.6,434.63,212.6z"/>
		<path class="st0" d="M502.31,290.62c0.03-4.12,3.36-7.39,7.44-7.32c3.74,0.06,7.16,3.59,7.16,7.4c0,4.11-3.3,7.3-7.5,7.24
			C505.49,297.87,502.28,294.57,502.31,290.62z"/>
		<path class="st0" d="M398.72,121.87c1.27,0.87,2.2,1.45,3.06,2.11c4.35,3.33,4.39,3.38,8.28-0.63c2.56-2.64,5.04-5.37,7.46-8.14
			c1.59-1.82,2.97-2.09,4.6-0.06c1.06,1.31,2.3,2.48,3.5,3.67c5.99,5.97,6.62,7.93,5.22,16.85c-15.4,0-30.86,0-47.07,0
			C388.94,130.9,393.76,126.45,398.72,121.87z"/>
		<path class="st0" d="M496.35,91.3c-38.32,0-76.57,0-115.08,0c0-8.01,0-15.9,0-24.46c4.68,0.39,9.3,0.57,13.86,1.2
			c13.11,1.8,25.51,6.02,37.4,11.73c0.97,0.46,1.93,1.66,2.21,2.7c0.69,2.56,2.43,3.6,4.76,3.73c2.34,0.14,4.51-0.67,5.09-3.19
			c0.41-1.78,1.35-2.33,2.92-2.79c13.93-4.08,27.88-8.08,42.36-9.76c1.48-0.17,2.97-0.23,4.46-0.3c0.58-0.03,1.17,0.05,2.01,0.1
			C496.35,77.23,496.35,84.13,496.35,91.3z"/>
		<path class="st0" d="M381.43,53.66c38.22,0,76.46,0,115.1,0c0,4.07,0.06,8.01-0.08,11.95c-0.02,0.52-1.06,1.41-1.68,1.46
			c-16.69,1.25-32.62,5.86-48.52,10.65c-0.88,0.26-2.18,0.05-2.95-0.45c-2.27-1.48-4.38-1.39-6.74-0.24
			c-0.8,0.39-2.11,0.4-2.92,0.02c-15.94-7.41-32.53-12.23-50.19-12.85c-1.73-0.06-2.53-0.54-2.42-2.41
			c0.13-2.38,0.01-4.77,0.02-7.16C381.06,54.36,381.26,54.09,381.43,53.66z"/>
		<path class="st0" d="M439.77,84.94c-1.2-1.71-2.44-2.71-2.45-3.72c-0.01-0.8,1.61-2.35,2.3-2.24c1.06,0.17,2.55,1.37,2.71,2.33
			C442.47,82.15,441.04,83.26,439.77,84.94z"/>
		<path class="st0" d="M311.91,29.14c0.83-0.11,1.98,0,2.91-0.41c8.53-3.75,17.11-4.05,25.81-0.64c1.54,0.6,3.34,0.7,4.72,1.53
			c1.31,0.79,2.11,2.38,3.34,3.36c6.06,4.85,9.96,11.01,11.54,18.62c4.34,20.9-14.04,40.34-35.53,37.58
			c-16.17-2.08-28.68-15.45-28.61-31.61c0.04-10.33,4.37-19.05,12.98-25.32C310.16,31.46,310.92,30.25,311.91,29.14z M342.19,70.19
			c0.27-0.04,0.54-0.08,0.8-0.12c2.64-7.56,5.28-15.12,7.97-22.81c-0.96-0.4-1.48-0.75-2.04-0.83c-2.92-0.43-3.91-2.08-3.68-4.98
			c0.23-2.86,0.05-5.75,0.05-8.57c-1.02-0.43-1.94-0.78-2.83-1.18c-9.77-4.39-19.47-4.17-29.09,0.45c-0.46,0.22-1.1,0.74-1.12,1.13
			c-0.09,3.23-0.05,6.46-0.05,9.56c1.68,0.33,2.76,0.54,3.83,0.75c0.01,0.3,0.03,0.6,0.04,0.9c-0.95,0.21-1.88,0.48-2.84,0.61
			c-1.65,0.23-2.36,1.1-1.73,2.68c3.13,7.88,6.31,15.75,9.77,24.35c1.45-3.79,2.29-7,3.84-9.81c2.82-5.14,2.69-10.01-0.57-14.73
			c-1.04-1.52-2.7-2.61-4.21-4.01c5.79,0,11.62,0,17.46,0c-0.38,0.85-0.83,1.24-1.35,1.37c-3.56,0.85-3.77,1.17-2.48,4.55
			c1.31,3.44,2.67,6.85,4.03,10.27C339.4,63.23,340.8,66.71,342.19,70.19z M339.49,84.37c-3.49-8.65-6.85-17.01-10.48-26
			c-3.49,9.22-6.68,17.65-9.85,26.08c-0.06,0.16,0.03,0.37,0.06,0.75C325.91,87.31,332.53,87.1,339.49,84.37z M302.22,46.5
			c-6.99,14.37-0.24,32.43,15.72,37.77C312.62,71.49,307.42,58.99,302.22,46.5z M340.97,83.79c16.74-6.99,20.83-28.64,12.91-37.12
			C349.54,59.15,345.31,71.32,340.97,83.79z"/>
		<path d="M342.19,70.19c-1.39-3.48-2.79-6.95-4.17-10.43c-1.36-3.42-2.72-6.83-4.03-10.27c-1.29-3.38-1.07-3.7,2.48-4.55
			c0.51-0.12,0.96-0.52,1.35-1.37c-5.84,0-11.67,0-17.46,0c1.5,1.4,3.16,2.49,4.21,4.01c3.25,4.72,3.39,9.59,0.57,14.73
			c-1.55,2.82-2.39,6.03-3.84,9.81c-3.46-8.6-6.64-16.47-9.77-24.35c-0.62-1.57,0.08-2.45,1.73-2.68c0.96-0.13,1.89-0.4,2.84-0.61
			c-0.01-0.3-0.03-0.6-0.04-0.9c-1.08-0.21-2.15-0.42-3.83-0.75c0-3.1-0.04-6.33,0.05-9.56c0.01-0.39,0.65-0.91,1.12-1.13
			c9.62-4.61,19.32-4.83,29.09-0.45c0.89,0.4,1.81,0.76,2.83,1.18c0,2.82,0.18,5.71-0.05,8.57c-0.24,2.9,0.75,4.54,3.68,4.98
			c0.56,0.08,1.08,0.43,2.04,0.83c-2.69,7.69-5.33,15.25-7.97,22.81C342.72,70.1,342.45,70.15,342.19,70.19z"/>
		<path d="M339.49,84.37c-6.95,2.73-13.58,2.94-20.27,0.82c-0.04-0.38-0.12-0.59-0.06-0.75c3.18-8.43,6.37-16.86,9.85-26.08
			C332.63,67.36,336,75.72,339.49,84.37z"/>
		<path d="M302.22,46.5c5.2,12.49,10.4,24.99,15.72,37.77C301.98,78.93,295.23,60.86,302.22,46.5z"/>
		<path d="M340.97,83.79c4.34-12.47,8.57-24.64,12.91-37.12C361.8,55.15,357.71,76.8,340.97,83.79z"/>
	</g>
</g>
</svg>
