<?xml version="1.0" encoding="utf-8"?>
<!-- Generator: Adobe Illustrator 24.3.0, SVG Export Plug-In . SVG Version: 6.00 Build 0)  -->
<svg version="1.1" id="Layer_1" xmlns="http://www.w3.org/2000/svg" xmlns:xlink="http://www.w3.org/1999/xlink" x="0px" y="0px"
	 width="107.9px" height="110.5px" viewBox="0 0 107.9 110.5" style="enable-background:new 0 0 107.9 110.5;" xml:space="preserve"
	>
<style type="text/css">
	.st0{fill:#00B0FB;}
	.st1{fill:#00B0FB;fill-opacity:0.4;}
	.st2{fill:#FFFFFF;}
</style>
<g>
	<path class="st0" d="M34.4,87.7v0.9h-17c-0.1-0.3-0.2-0.6-0.3-0.9h-3.2c0.5,0.7,0.8,1.5,0.8,2.3c0,2.2-1.8,4-4,4c-2.2,0-4-1.8-4-4
		c0-0.9,0.3-1.7,0.8-2.3H4c-0.3,0.7-0.4,1.5-0.4,2.3c0,3.8,3.1,7,7,7c3.3,0,6.1-2.3,6.8-5.5h18.5c0.8,0,1.5-0.7,1.5-1.5v-2.3H34.4z"
		/>
	<path class="st0" d="M92.8,27.9L91,28c-0.6-0.2-1.2-0.3-1.8-0.5c-1.9-0.5-4-0.4-6-0.5c-0.3,0-0.6-0.1-0.9-0.2
		c-0.4-1.8-1.1-3.6-1.9-5.2c0,0,0,0,0,0c-2.2-4.3-5.5-8-9.5-10.9c-9.7-7.1-20.1-8.2-31-3.1c-5.5,2.6-10.4,6.7-13.5,11.9
		c-1.1,1.9-2,3.9-2.7,6c-0.2,0-0.5,0-0.8,0c-3.7-0.1-7.3,0.7-10.5,2.4h-1.6c3.3-1.9,7-2.8,10.9-2.9c0.5,0,0.9,0.1,1.1-0.6
		c3.5-12,11.7-19.1,23.7-21.7C62.1-0.7,77.8,8.3,83,23.3c0.4,1,0.6,2.1,0.9,3.2C87,26.4,90,26.8,92.8,27.9z"/>
	<path class="st0" d="M55.4,98.3V87.7h-2.9v10.7c-2.7,0.7-4.7,3.2-4.7,6c0,3.4,2.8,6.2,6.2,6.2s6.2-2.8,6.2-6.2
		C60.1,101.4,58.1,99,55.4,98.3z M53.9,107.6c-1.8,0-3.2-1.5-3.2-3.2s1.4-3.2,3.2-3.2c1.8,0,3.2,1.5,3.2,3.2S55.7,107.6,53.9,107.6z
		"/>
	<path class="st0" d="M100.5,87.7c0.5,0.7,0.8,1.5,0.8,2.3c0,2.2-1.8,4-4,4c-2.2,0-4-1.8-4-4c0-0.9,0.3-1.7,0.8-2.3h-3.2
		c-0.1,0.3-0.2,0.6-0.3,0.9h-17v-0.9h-2.9V90c0,0.8,0.7,1.5,1.5,1.5h18.5c0.7,3.2,3.5,5.5,6.8,5.5c3.8,0,7-3.1,7-7
		c0-0.8-0.2-1.6-0.4-2.4H100.5z"/>
	<path class="st0" d="M30.3,39.3v12.5h47.2V39.3H30.3z M47.4,47H35.9c-0.4,0-0.8-0.1-1-0.4c-0.3-0.3-0.4-0.6-0.4-1
		c0-0.8,0.6-1.5,1.5-1.5h11.5c0.8,0,1.5,0.7,1.5,1.5C48.8,46.3,48.2,47,47.4,47z M62.4,46.4c0,0.1-0.2,0.3-0.3,0.5
		c-0.2,0.3-0.6,0.4-1,0.4c-0.2,0-0.4,0-0.6-0.1c-0.1,0-0.3-0.2-0.4-0.3c-0.2-0.1-0.3-0.3-0.3-0.5c-0.1-0.1-0.1-0.3-0.1-0.5
		c0-0.4,0.2-0.8,0.4-1c0.1-0.2,0.3-0.2,0.4-0.3c0.2-0.1,0.4-0.1,0.6-0.1c0.4,0,0.8,0.2,1,0.4C62.6,45.2,62.7,45.8,62.4,46.4z
		 M73.7,46.4c0,0.1-0.2,0.3-0.3,0.5c-0.3,0.3-0.6,0.4-1,0.4l0-0.6v0.6c-0.4,0-0.7-0.1-1-0.4c-0.1-0.1-0.2-0.3-0.3-0.5
		c-0.1-0.1-0.1-0.3-0.1-0.6c0-0.1,0-0.4,0.1-0.6c0-0.1,0.2-0.3,0.4-0.5c0.2-0.2,0.6-0.4,1-0.4c0.4,0,0.8,0.2,1,0.4
		c0.1,0.1,0.2,0.3,0.3,0.5c0.1,0.1,0.1,0.4,0.1,0.5C73.9,46.1,73.8,46.2,73.7,46.4z"/>
	<path class="st0" d="M50.7,102.3c0,1.8,1.4,3.2,3.2,3.2c1.8,0,3.2-1.5,3.2-3.2s-1.5-3.2-3.2-3.2C52.1,99.1,50.7,100.5,50.7,102.3z"
		/>
	<path class="st0" d="M97.3,92.1c2.2,0,4-1.8,4-4s-1.8-4-4-4c-2.2,0-4,1.8-4,4S95,92.1,97.3,92.1z"/>
	<path class="st0" d="M10.6,84c-2.2,0-4,1.8-4,4s1.8,4,4,4c2.2,0,4-1.8,4-4S12.8,84,10.6,84z"/>
	<path class="st1" d="M30.3,64.9v12.5h47.2V64.9H30.3z M47.4,72.6H35.9c-0.4,0-0.8-0.2-1-0.4c-0.3-0.3-0.4-0.6-0.4-1
		c0-0.8,0.6-1.5,1.5-1.5h11.5c0.4,0,0.8,0.2,1,0.4c0.3,0.3,0.4,0.6,0.4,1C48.8,71.9,48.2,72.6,47.4,72.6z M62.1,72.5
		c-0.2,0.2-0.6,0.4-1,0.4h0c-0.2,0-0.3,0-0.5-0.1c-0.2-0.1-0.4-0.2-0.5-0.3c-0.3-0.3-0.5-0.7-0.5-1c0-0.2,0-0.4,0.1-0.6
		c0.1-0.2,0.2-0.3,0.3-0.4c0.1-0.1,0.3-0.2,0.4-0.3c0.2-0.1,0.4-0.1,0.6-0.1c0.4,0,0.8,0.2,1,0.4c0.1,0.1,0.3,0.3,0.3,0.5
		c0.1,0.1,0.1,0.4,0.1,0.5C62.6,71.9,62.4,72.3,62.1,72.5z M73.8,72c-0.1,0.2-0.2,0.4-0.3,0.5c-0.3,0.3-0.6,0.4-1,0.4h0
		c-0.4,0-0.7-0.2-1-0.4c-0.1-0.1-0.3-0.3-0.3-0.5c-0.1-0.1-0.1-0.3-0.1-0.5c0-0.1,0-0.4,0.1-0.6c0.2-0.5,0.8-0.8,1.3-0.8
		c0.2,0,0.4,0,0.6,0.1c0.3,0.2,0.6,0.4,0.7,0.8c0.1,0.2,0.1,0.4,0.1,0.6C73.9,71.6,73.8,71.8,73.8,72z"/>
	<path class="st2" d="M47.4,44.1H35.9c-0.8,0-1.5,0.7-1.5,1.5c0,0.4,0.1,0.8,0.4,1c0.3,0.3,0.6,0.4,1,0.4c0,0,11.5,0,11.5,0
		c0.8,0,1.5-0.7,1.5-1.5C48.8,44.7,48.2,44.1,47.4,44.1z"/>
	<path class="st2" d="M61.1,44.4c-0.2,0-0.4,0-0.6,0.1c-0.1,0.1-0.3,0.1-0.4,0.3c-0.3,0.2-0.4,0.6-0.4,1c0,0.2,0,0.4,0.1,0.5
		c0.1,0.2,0.2,0.4,0.3,0.5c0.1,0.2,0.3,0.3,0.4,0.3c0.2,0.1,0.4,0.1,0.6,0.1c0.4,0,0.8-0.2,1-0.4c0.2-0.1,0.3-0.3,0.3-0.5
		c0.2-0.6,0.1-1.2-0.3-1.6C61.8,44.5,61.5,44.4,61.1,44.4z"/>
	<path class="st2" d="M73.4,44.8c-0.3-0.3-0.6-0.4-1-0.4s-0.8,0.2-1,0.4c-0.2,0.1-0.3,0.3-0.4,0.5c-0.1,0.2-0.1,0.4-0.1,0.6
		c0,0.2,0,0.4,0.1,0.6c0.1,0.2,0.2,0.4,0.3,0.5c0.3,0.3,0.6,0.4,1,0.4v-0.6l0,0.6c0.4,0,0.7-0.1,1-0.4c0.2-0.2,0.3-0.3,0.3-0.5
		c0.1-0.2,0.1-0.4,0.1-0.6c0-0.2,0-0.4-0.1-0.5C73.7,45.1,73.6,44.9,73.4,44.8z"/>
	<path class="st2" d="M47.4,69.7H35.9c-0.8,0-1.5,0.7-1.5,1.5c0,0.4,0.1,0.8,0.4,1c0.3,0.3,0.6,0.4,1,0.4c0,0,11.5,0,11.5,0
		c0.8,0,1.5-0.7,1.5-1.5c0-0.4-0.1-0.8-0.4-1C48.1,69.8,47.7,69.7,47.4,69.7z"/>
	<path class="st2" d="M62.1,70.4c-0.3-0.3-0.6-0.4-1-0.4c-0.2,0-0.4,0-0.6,0.1c-0.1,0.1-0.3,0.2-0.4,0.3c-0.1,0.1-0.3,0.3-0.3,0.4
		c-0.1,0.2-0.1,0.4-0.1,0.6c0,0.4,0.2,0.8,0.5,1c0.1,0.1,0.3,0.2,0.5,0.3c0.2,0.1,0.3,0.1,0.5,0.1c0,0,0,0,0,0c0.4,0,0.7-0.2,1-0.4
		c0.3-0.3,0.5-0.6,0.5-1.1c0-0.2,0-0.4-0.1-0.5C62.4,70.7,62.2,70.5,62.1,70.4z"/>
	<path class="st2" d="M73,70.1C72.8,70,72.6,70,72.4,70c-0.6,0-1.1,0.3-1.3,0.8c-0.1,0.2-0.1,0.4-0.1,0.6c0,0.2,0,0.4,0.1,0.5
		c0.1,0.2,0.2,0.4,0.3,0.5c0.3,0.3,0.6,0.4,1,0.4h0c0.4,0,0.7-0.1,1-0.4c0.1-0.1,0.2-0.3,0.3-0.5c0.1-0.2,0.1-0.3,0.1-0.6
		c0-0.2,0-0.4-0.1-0.6C73.6,70.5,73.3,70.3,73,70.1z"/>
	<path class="st2" d="M80.4,21.6c0.5,1.3,0.9,2.8,1.1,4.2c0.1,0.5,0.4,0.8,0.8,1C81.9,25,81.2,23.3,80.4,21.6z M24.9,23.9
		c0.4-1.6,0.9-3,1.5-4.4c-1.1,1.9-2,3.9-2.7,6C24.5,25.4,24.6,25,24.9,23.9z M97.3,81c-3.3,0-6.1,2.3-6.8,5.5h-17v-6.2H79
		c0.8,0,1.4-0.6,1.4-1.5V64.9h7.4c5.1,0,9.6-1.5,13.5-4.8c4.7-4.1,7-9.4,6.4-15.6c-0.9-9.1-6.2-15.1-14.6-18.4
		c-3-1.2-6.1-1.6-9.3-1.5c-0.3-1.2-0.6-2.2-0.9-3.2C77.8,6.3,62.1-2.7,46.4,0.7c-12,2.6-20.2,9.7-23.7,21.7
		c-0.2,0.7-0.6,0.6-1.1,0.6c-4.7,0.1-9,1.3-12.8,4.1c-6.8,5-9.9,11.8-8.5,20.2c1.7,10.2,10.7,17.5,21,17.5h6v14
		c0,0.8,0.7,1.5,1.5,1.5h5.6v6.2h-17c-0.7-3.2-3.5-5.5-6.8-5.5c-3.8,0-7,3.1-7,7c0,3.8,3.1,7,7,7c3.3,0,6.1-2.3,6.8-5.5h18.5
		c0.8,0,1.5-0.7,1.5-1.5v-7.7h15.2v16c-2.7,0.7-4.7,3.2-4.7,6c0,3.4,2.8,6.2,6.2,6.2s6.2-2.8,6.2-6.2c0-2.9-1.9-5.3-4.7-6v-16h15.1
		V88c0,0.8,0.7,1.5,1.5,1.5h18.5c0.7,3.2,3.5,5.5,6.8,5.5c3.8,0,7-3.1,7-7C104.2,84.2,101.1,81,97.3,81z M10.6,92.1
		c-2.2,0-4-1.8-4-4s1.8-4,4-4c2.2,0,4,1.8,4,4S12.8,92.1,10.6,92.1z M27.8,62.4c-2.1,0-4.1,0-6.2,0c-9.1,0-16.8-6.1-18.7-14.8
		c-1.7-7.3,1.8-15.2,8.3-19.1c0.4-0.2,0.7-0.4,1.1-0.6c3.3-1.7,6.8-2.5,10.5-2.4c0.3,0,0.6,0,0.8,0c0.7-0.1,0.9-0.4,1.2-1.6
		c0.4-1.6,0.9-3,1.5-4.4C29,13.3,33.5,8.6,39.9,5.6c10.9-5.1,21.4-4,31,3.1c4.6,3.4,7.7,7.7,9.5,12.9c0,0,0,0,0,0
		c0.5,1.3,0.9,2.8,1.1,4.2c0.1,0.5,0.4,0.8,0.8,1c0.2,0.1,0.5,0.1,0.9,0.2c2,0.1,4.1,0.1,6,0.5c0.6,0.1,1.2,0.3,1.8,0.5
		c6.7,2,11.5,6.2,13.6,13.2c3.3,10.9-4.8,20.4-14.8,21.1c-3.2,0.2-6.5,0.2-9.7,0.1c-0.3-0.3-0.6-0.4-1-0.4h-6.6v-7.3H79
		c0.8,0,1.4-0.6,1.4-1.5V37.8c0-0.8-0.6-1.5-1.4-1.5H28.9c-0.8,0-1.5,0.7-1.5,1.5v15.4c0,0.8,0.7,1.5,1.5,1.5h6.6V62h-6.6
		C28.5,62,28.1,62.1,27.8,62.4z M30.3,51.8V39.3h47.2v12.5H30.3z M69.5,54.7V62H38.3v-7.3H69.5z M57.2,102.3c0,1.8-1.5,3.2-3.2,3.2
		c-1.8,0-3.2-1.5-3.2-3.2s1.4-3.2,3.2-3.2C55.7,99.1,57.2,100.5,57.2,102.3z M30.3,77.4V64.9h47.2v12.5H30.3z M97.3,92.1
		c-2.2,0-4-1.8-4-4s1.8-4,4-4c2.2,0,4,1.8,4,4S99.5,92.1,97.3,92.1z M23.7,25.5c0.7-0.1,0.9-0.4,1.2-1.6c0.4-1.6,0.9-3,1.5-4.4
		C25.3,21.3,24.3,23.4,23.7,25.5z M80.4,21.6c0.5,1.3,0.9,2.8,1.1,4.2c0.1,0.5,0.4,0.8,0.8,1C81.9,25,81.2,23.3,80.4,21.6z"/>
</g>
</svg>
