<?xml version="1.0" encoding="utf-8"?>
<!-- Generator: Adobe Illustrator 24.3.0, SVG Export Plug-In . SVG Version: 6.00 Build 0)  -->
<svg version="1.1" id="Layer_1" xmlns="http://www.w3.org/2000/svg" xmlns:xlink="http://www.w3.org/1999/xlink" x="0px" y="0px"
	 width="106.9px" height="107px" viewBox="0 0 106.9 107" style="enable-background:new 0 0 106.9 107;" xml:space="preserve">
<style type="text/css">
	.st0{fill:#185AE9;}
	.st1{fill:#00B0FB;}
</style>
<g>
	<path class="st1" d="M90.9,59.4c0,4.4,3.5,7.9,7.9,7.9c4.4,0,7.9-3.5,7.9-7.9c0-4.4-3.5-7.9-7.9-7.9C94.5,51.5,90.9,55,90.9,59.4z"
		/>
	<path class="st1" d="M40,27.3c2.3-1.3,4.6-2.6,6.8-3.9c-1.4-3.5-1.4-6.8,0.5-10c1.9-3.2,4.7-5,8.5-5.4c0-1,0-1.9,0-2.9
		c0-1.7,0-3.3,0-5c-0.4,0-0.7,0-1.1,0c-0.1,0-0.3,0.1-0.4,0.1C49.8,0.8,46,2.7,43,6.1C38.2,11.5,37,17.7,39,24.6
		C39.2,25.5,39.7,26.4,40,27.3z"/>
	<path class="st1" d="M57.8,7.3c0,0.4,0.1,0.6,0.5,0.7c3,0.4,5.3,1.8,7.2,4.1c0.2,0.3,0.4,0.3,0.7,0.1c2-1.2,4-2.3,6-3.5
		c0.1-0.1,0.2-0.1,0.3-0.2c-0.1-0.1-0.1-0.2-0.2-0.3C69.8,4.6,66.4,2,62,0.8c-1-0.3-2.1-0.5-3.1-0.7c-0.4,0-0.8,0-1.2,0
		c0,0.2,0,0.4,0,0.7C57.8,2.9,57.8,5.1,57.8,7.3z"/>
	<path class="st1" d="M18,78.9c0-15.8,0-31.6,0-47.5c0-2.5,0-5.1,0-7.6c0-0.9-0.7-1.7-1.7-1.8c-0.9-0.1-1.8,0.5-2,1.4
		c-0.1,0.3-0.1,0.7-0.1,1.1c0,0.6,0,1.3,0,2c-0.3,0-0.4,0-0.6,0c-0.8,0-1.5,0-2.3,0c-1,0-1.8,0.9-1.7,1.9c0,1,0.8,1.8,1.8,1.8
		c0.4,0,0.8,0,1.3,0c0.5,0,1.1,0,1.6,0c0,1.5,0,3,0,4.4c-0.1,0-0.1,0.1-0.1,0.1c-0.9,0-1.9,0-2.8,0c-1.1,0-1.9,1-1.7,2.1
		c0.2,0.9,0.9,1.5,1.8,1.5c0.9,0,1.9,0,2.8,0c0,1.5,0,3,0,4.5c-0.9,0-1.8,0-2.6,0c-0.5,0-0.9,0.2-1.3,0.4c-0.7,0.4-0.9,1.3-0.6,2
		c0.2,0.7,0.9,1.2,1.8,1.2c0.9,0,1.8,0,2.8,0c0,1.5,0,3,0,4.5c-0.2,0-0.4,0-0.6,0c-0.7,0-1.5,0-2.2,0c-0.8,0-1.4,0.5-1.7,1.3
		c-0.2,0.7-0.1,1.6,0.6,2c0.4,0.3,1,0.4,1.5,0.5c0.8,0.1,1.7,0,2.5,0c0,1.5,0,2.9,0,4.3c-0.1,0-0.1,0.1-0.1,0.1c-0.9,0-1.9,0-2.8,0
		c-1,0-1.7,0.9-1.7,1.9c0,1,0.8,1.8,1.7,1.8c0.8,0,1.6,0,2.4,0c0.2,0,0.3,0,0.5,0c0,1.5,0,2.9,0,4.4c-0.5,0-0.9,0-1.3,0
		c-0.6,0-1.2,0-1.7,0.1c-1,0.1-1.7,1-1.6,2c0.1,1,0.8,1.7,1.8,1.7c0.7,0,1.4,0,2.1,0c0.2,0,0.5,0,0.7,0c0,1.5,0,2.9,0,4.4
		c-1,0-1.9,0-2.8,0c-0.9,0-1.6,0.5-1.8,1.3c-0.4,1.3,0.5,2.4,1.8,2.4c0.9,0,1.8,0,2.7,0c0,0.8,0,1.5,0,2.2c0,1.3,0.7,2.2,2.2,2.2
		c24.3,0,48.5,0,72.8,0c0.5,0,1,0,1.5,0c0.2,0,0.5-0.1,0.7-0.2c0.8-0.4,1.2-1.2,1-2.1c-0.2-0.9-0.9-1.4-1.8-1.4c-2,0-3.9,0-5.9,0
		c-0.2,0-0.4,0-0.7,0c0-0.3,0-0.5,0-0.7c0-4.7,0-9.4,0-14.1c0-1.4-0.7-2.1-2.1-2.1c-2.7,0-5.5,0-8.2,0c-1.3,0-2,0.7-2,2
		c0,4.8,0,9.5,0,14.3c0,0.2,0,0.4,0,0.6c-1.4,0-2.7,0-4.1,0c0-0.3,0-0.6,0-0.8c0-6.8,0-13.6,0-20.4c0-1.4-0.7-2.1-2.1-2.1
		c-2.7,0-5.4,0-8.1,0c-1.4,0-2.1,0.7-2.1,2.1c0,6.8,0,13.6,0,20.5c0,0.2,0,0.5,0,0.7c-1.4,0-2.8,0-4.2,0c0-0.3,0-0.6,0-0.9
		c0-11.9,0-23.8,0-35.7c0-1.2-0.7-2.1-1.8-2.1c-2.9,0-5.7,0-8.6,0c-0.9,0-1.6,0.6-1.8,1.5c-0.1,0.3-0.1,0.7-0.1,1
		c0,11.8,0,23.7,0,35.5c0,0.2,0,0.5,0,0.7c-1.4,0-2.7,0-4.1,0c0-0.3,0-0.5,0-0.8c0-9.2,0-18.3,0-27.5c0-1.2-0.6-2-1.8-2
		c-2.9,0-5.8,0-8.7,0c-0.8,0-1.4,0.5-1.7,1.2c-0.1,0.3-0.1,0.7-0.1,1.1c0,9.1,0,18.2,0,27.2c0,0.2,0,0.5,0,0.7c-1.6,0-3.2,0-4.7,0
		C18,79.4,18,79.1,18,78.9z"/>
	<path class="st1" d="M81.5,87.1c-16.5,0-33.1,0-49.6,0c-2.2,0-4.5,0-6.7,0c-0.3,0-0.7,0.1-1,0.2c-0.7,0.4-1.1,1.2-0.8,2.1
		c0.2,0.8,0.9,1.3,1.8,1.3c9.4,0,18.8,0,28.3,0c9.4,0,18.8,0,28.2,0c1.4,0,2.3-1.1,1.9-2.4C83.2,87.5,82.5,87.1,81.5,87.1z"/>
	<path class="st1" d="M48.1,25.4c-0.2-0.3-0.3-0.3-0.7-0.2c-2,1.2-3.9,2.3-5.9,3.4c-0.2,0.1-0.3,0.2-0.5,0.3
		c6.8,10.4,20.8,10.8,28.2,3.7c-1.8-1.8-3.6-3.6-5.5-5.5c0,0-0.1,0-0.1,0.1c-0.1,0.1-0.2,0.1-0.3,0.2c-1.9,1.4-4,2.2-6.4,2.2
		C53.3,29.7,50.4,28.2,48.1,25.4z"/>
	<path class="st1" d="M65.3,25.7c1.9,1.9,3.7,3.7,5.5,5.6c2.9-3.3,4.5-7.2,4.7-11.6c0.2-3.3-0.5-6.4-2.1-9.4
		c-2.3,1.3-4.5,2.6-6.8,3.9C68.6,18.4,67.9,22.2,65.3,25.7z"/>
	<path class="st1" d="M105.1,94.9H1.9c-1,0-1.9,0.8-1.9,1.9v8.3c0,1,0.8,1.9,1.9,1.9h103.2c1,0,1.9-0.8,1.9-1.9v-8.3
		C106.9,95.7,106.1,94.9,105.1,94.9z"/>
	<circle class="st1" cx="9.7" cy="9.8" r="9.6"/>
	<path class="st1" d="M94.4,25.1c6.9,0,12.5-5.6,12.5-12.5S101.3,0,94.4,0c-6.9,0-12.5,5.6-12.5,12.5S87.5,25.1,94.4,25.1z"/>
</g>
</svg>
