<?xml version="1.0" encoding="utf-8"?>
<!-- Generator: Adobe Illustrator 24.3.0, SVG Export Plug-In . SVG Version: 6.00 Build 0)  -->
<svg version="1.1" id="Layer_1" xmlns="http://www.w3.org/2000/svg" xmlns:xlink="http://www.w3.org/1999/xlink" x="0px" y="0px"
	 width="106px" height="106px" viewBox="0 0 106 106" style="enable-background:new 0 0 106 106;" xml:space="preserve">
<style type="text/css">
	.st0{fill:#185AE9;}
	.st1{fill:#00B0FB;}
</style>
<g>
	<path class="st1" d="M44.1,39.9h-0.6v11.8h0.6c3.2,0,5.9-2.6,5.9-5.9C50,42.5,47.3,39.9,44.1,39.9z"/>
	<polygon class="st1" points="25,49.6 28.3,49.6 26.6,44.7 	"/>
	<path class="st1" d="M8.6,65.3c-1.3,0-2.3-1-2.3-2.3V28.5c0-1.3,1-2.3,2.3-2.3h56.2c1.3,0,2.3,1,2.3,2.3v29.7l22.2,6.4V19.9H0v56.6
		c0,1.2,1,2.3,2.3,2.3h59.3l-3.9-13.6H8.6z M24.4,74.3H8.9c-1.3,0-2.3-1-2.3-2.3c0-1.3,1-2.3,2.3-2.3h15.5c1.3,0,2.3,1,2.3,2.3
		C26.7,73.3,25.7,74.3,24.4,74.3z M35,73.6L35,73.6c-0.4,0.4-1,0.7-1.6,0.7c-0.6,0-1.2-0.2-1.6-0.7c-0.4-0.4-0.7-1-0.7-1.6
		c0-0.6,0.2-1.2,0.7-1.6c0.4-0.4,1-0.7,1.6-0.7c0.6,0,1.2,0.2,1.6,0.7c0.4,0.4,0.7,1,0.7,1.6C35.6,72.6,35.4,73.2,35,73.6z"/>
	<path class="st1" d="M89.3,2.3C89.3,1,88.2,0,87,0H2.3C1,0,0,1,0,2.3v13.1h89.3V2.3z M9.6,10L9.6,10c-1.3,0-2.3-1-2.3-2.3
		s1-2.3,2.3-2.3c1.3,0,2.3,1,2.3,2.3S10.9,10,9.6,10z M19.9,10L19.9,10c-1.3,0-2.3-1-2.3-2.3s1-2.3,2.3-2.3c1.3,0,2.3,1,2.3,2.3
		S21.2,10,19.9,10z M30.3,10L30.3,10C29,10,28,9,28,7.7s1-2.3,2.3-2.3c1.3,0,2.3,1,2.3,2.3S31.5,10,30.3,10z M79.5,10H48
		c-1.3,0-2.3-1-2.3-2.3c0-1.3,1-2.3,2.3-2.3h31.5c1.3,0,2.3,1,2.3,2.3C81.8,9,80.8,10,79.5,10z"/>
	<path class="st1" d="M90.6,78.5c-0.9-0.9-0.9-2.3,0-3.2l4.3-4.3l-33.7-9.7l9.7,33.7l4.3-4.3c0.4-0.4,1-0.7,1.6-0.7
		c0.6,0,1.2,0.2,1.6,0.7L93.9,106L106,93.9L90.6,78.5C90.6,78.5,90.6,78.5,90.6,78.5z"/>
	<path class="st1" d="M58.6,55.7l4,1.1V30.8H10.9v29.9h45.5l-0.6-2.2c-0.2-0.8,0-1.6,0.6-2.2C56.9,55.7,57.8,55.5,58.6,55.7z
		 M32.8,56.1c-0.2,0.1-0.5,0.1-0.7,0.1c-1,0-1.8-0.6-2.1-1.5l-0.2-0.5h-6.3l-0.2,0.5c0,0,0,0,0,0.1c-0.4,1.2-1.7,1.8-2.9,1.4
		s-1.8-1.7-1.4-2.9l5.5-16.3c0.2-0.7,0.8-1.2,1.4-1.4c1.2-0.4,2.5,0.2,2.9,1.4l5.5,16.3C34.7,54.4,34,55.7,32.8,56.1z M44.1,56.2
		h-2.8c-1.3,0-2.3-1-2.3-2.3V37.6c0-1.3,1-2.3,2.3-2.3h2.8c5.7,0,10.4,4.7,10.4,10.4C54.5,51.5,49.8,56.2,44.1,56.2z"/>
</g>
</svg>
