<?xml version="1.0" encoding="utf-8"?>
<!-- Generator: Adobe Illustrator 24.3.0, SVG Export Plug-In . SVG Version: 6.00 Build 0)  -->
<svg version="1.1" id="Layer_1" xmlns="http://www.w3.org/2000/svg" xmlns:xlink="http://www.w3.org/1999/xlink" x="0px" y="0px"
	 width="116px" height="112px" viewBox="0 0 116 112" style="enable-background:new 0 0 116 112;" xml:space="preserve">
<style type="text/css">
	.st0{fill:#00B0FB;}
	.st1{fill:#00B0FB;fill-opacity:0.4;}
	.st2{fill:#FFFFFF;}
	.st3{fill:none;}
	.st4{fill:#001135;}
	.st5{fill:#3C7CFF;}
	.st6{fill:#3C7CFF;stroke:#001135;stroke-width:0.7602;stroke-miterlimit:10;}
	.st7{fill:#DBDBDB;}
	.st8{fill:#B9B9B9;}
	.st9{fill:#080808;}
	.st10{fill:#060606;}
	.st11{fill:#070707;}
	.st12{fill:#121212;}
	.st13{fill:#111111;}
	.st14{fill:#090909;}
	.st15{fill:#FDFDFD;}
	.st16{fill:#F9F9F9;}
	.st17{fill:#F3F2F3;}
	.st18{fill:#FAFAFA;}
	.st19{fill:#0A0A0A;}
	.st20{fill:#EEEEEE;}
	.st21{fill:#0D0D0D;}
	.st22{fill:#0C0C0C;}
	.st23{fill:#0E0E0E;}
	.st24{fill:#050505;}
	.st25{fill:#3A3A3A;}
	.st26{fill:#525252;}
	.st27{fill:#474747;}
	.st28{fill:#1E1E1E;}
	.st29{fill:#1D1D1D;}
	.st30{fill:#222222;}
	.st31{fill:#494949;}
	.st32{fill:#585858;}
	.st33{fill:#EDEDED;}
	.st34{fill:#F0F0F0;}
	.st35{fill:#EAEAEA;}
	.st36{fill:#EAE9EA;}
	.st37{fill:#040404;}
	.st38{fill:#F4F3F4;}
	.st39{fill:#030303;}
	.st40{fill:#E8E8E8;}
	.st41{fill:#0C0C0B;}
	.st42{fill:#0D0D0C;}
	.st43{fill:#919191;}
	.st44{fill:#909090;}
	.st45{fill:#0E0E0D;}
	.st46{fill:#0C0D0C;}
	.st47{fill:#090908;}
	.st48{fill:#141414;}
	.st49{fill:#4C4D4D;}
	.st50{fill:#737474;}
	.st51{fill:#242424;}
	.st52{fill:#202020;}
	.st53{fill:#101010;}
	.st54{fill:#0D0E0D;}
	.st55{fill:#111212;}
	.st56{fill:#0B0B0B;}
	.st57{fill:#0D0C0C;}
	.st58{fill:#E7E7E7;}
	.st59{fill:#272727;}
	.st60{fill:#2E2E2E;}
	.st61{fill:#1F1E1E;}
	.st62{fill:#1B1A1A;}
	.st63{fill:#E6E6E6;}
	.st64{fill:#0F0E0E;}
	.st65{fill:#F2F2F2;}
	.st66{fill:#F4F3F3;}
	.st67{fill:#F9F8F8;}
	.st68{fill:#F1F1F0;}
	.st69{fill:#F6F6F6;}
	.st70{fill:#F5F6F6;}
	.st71{fill:#F5F5F5;}
	.st72{fill:#2C2C2C;}
	.st73{fill:#252625;}
	.st74{fill:#303030;}
	.st75{fill:#2D2D2C;}
	.st76{fill:#2D2D2D;}
	.st77{fill:#262727;}
	.st78{fill:#191919;}
	.st79{fill:#1B1B1B;}
	.st80{fill:#F7F7F7;}
	.st81{fill:#F6F7F7;}
	.st82{fill:#F9F9FA;}
	.st83{fill:#F4F4F4;}
	.st84{fill:#F8F8F8;}
	.st85{fill:#FCFCFC;}
	.st86{fill:#FBFBFB;}
	.st87{fill:#E2E1E2;}
	.st88{fill:#D8D7D8;}
	.st89{fill:#0F0F0F;}
	.st90{fill:#161616;}
	.st91{fill:#181818;}
	.st92{fill:#131313;}
	.st93{fill-rule:evenodd;clip-rule:evenodd;fill:#00B0FB;}
</style>
<g>
	<circle class="st5" cx="75.3" cy="71.8" r="2.2"/>
	<path class="st2" d="M92.4,26.4c-1.1,0-2,0-2.9,0.2c-1.1,0.2-2.2-0.5-2.2-1.6c-1.1-12-11.1-21.1-23.1-21.1
		c-10.4,0-19.5,6.7-22.2,16.5c-0.4,1.1-1.6,1.6-2.7,1.1c-8.9-5.1-20.4,1.5-20.4,12c0,0.9,0,1.8,0.2,2.7c0.2,1.1-0.5,2-1.6,2
		C9.6,38.5,3.6,44.7,3.6,52.5c0,7.8,6.4,14.4,14.4,14.4h26.7c1.1-16,14.4-28.7,30.5-28.7c14.5,0,26.7,10.4,29.8,24
		c4.5-3.8,7.3-9.6,7.6-15.5C112.7,35.5,103.6,26.4,92.4,26.4z M12.4,55.8c-1.1,0-1.8-0.9-1.8-1.8c0-0.9,0.7-1.8,1.8-1.8
		c1.1,0,1.8,0.7,1.8,1.8C14.2,54.9,13.5,55.8,12.4,55.8z M21.5,55.8c-1.1,0-1.8-0.9-1.8-1.8c0-0.9,0.7-1.8,1.8-1.8
		c1.1,0,1.8,0.7,1.8,1.8C23.3,54.9,22.5,55.8,21.5,55.8z M30.5,55.8c-1.1,0-1.8-0.9-1.8-1.8c0-0.9,0.7-1.8,1.8-1.8s1.8,0.7,1.8,1.8
		C32.4,54.9,31.6,55.8,30.5,55.8z M64,12.5c-5.6,0-10.5,3.3-12.7,8.5c-0.4,1.1-1.5,1.5-2.4,1.1c-1.1-0.4-1.5-1.5-1.1-2.4
		c2.5-6.7,8.9-10.9,16-10.9c1.1,0,2,0.7,2,1.8C65.8,11.8,65.1,12.5,64,12.5z"/>
	<path class="st4" d="M75.3,41.8c-14.9,0-26.9,12-26.9,26.9c0,14.9,12,26.9,26.9,26.9s26.9-12,26.9-26.9
		C102.2,54,90.2,41.8,75.3,41.8z M90.7,83.6c0,2-1.6,3.6-3.6,3.6H63.5c-2,0-3.6-1.6-3.6-3.6V63.8c0-2,1.6-3.6,3.6-3.6h1.3v-2.7
		c0-5.8,4.7-10.5,10.5-10.5s10.5,4.7,10.5,10.5v2.7h1.3c2,0,3.6,1.6,3.6,3.6V83.6z"/>
	<path class="st5" d="M63.5,83.6h23.6V63.8H63.5V83.6z M75.3,66.2c3.1,0,5.8,2.5,5.8,5.8c0,2.5-1.6,4.7-4,5.5v2
		c0,1.1-0.7,1.8-1.8,1.8s-1.8-0.7-1.8-1.8v-2c-2.4-0.7-4-2.9-4-5.5C69.5,68.7,72,66.2,75.3,66.2z"/>
	<path class="st5" d="M8,88c-2,0-3.6,1.6-3.6,3.6S6,95.3,8,95.3s3.6-1.6,3.6-3.6S10,88,8,88z"/>
	<circle class="st5" cx="45.6" cy="104.7" r="3.6"/>
	<path class="st5" d="M82.2,57.5c0-3.8-3.1-6.9-6.9-6.9s-6.9,3.1-6.9,6.9l-0.2,2.7h14V57.5z"/>
	<path class="st4" d="M92,22.5h-1.6C88.4,9.6,77.3,0,64,0C52.9,0,42.9,6.9,39.1,17.1c-10.9-4.5-23.8,3.5-23.8,16.2v1.5
		C6.5,36,0,43.5,0,52.5c0,10,8.2,18,18,18h6.5v19.1h-9.8c-0.7-3.1-3.6-5.5-7.1-5.5c-4,0-7.3,3.3-7.3,7.3s3.3,7.3,7.3,7.3
		c3.5,0,6.2-2.4,7.1-5.5h11.6c1.1,0,1.8-0.7,1.8-1.8v-3.6h15.5v9.8c-3.1,0.7-5.5,3.6-5.5,7.1c0,4,3.3,7.3,7.3,7.3s7.3-3.3,7.3-7.3
		c0-3.5-2.4-6.2-5.5-7.1V86c0-1.1-0.7-1.8-1.8-1.8H28.2V70.5h16.5c0.9,16,14.2,28.7,30.5,28.7c16.9,0,30.5-13.6,30.5-30.5
		c0-0.9,0-1.6-0.2-2.5c6.5-4.4,10.4-11.8,10.4-19.6C116,33.3,105.3,22.5,92,22.5z M8,95.3c-2,0-3.6-1.6-3.6-3.6S6,88,8,88
		s3.6,1.6,3.6,3.6S10,95.3,8,95.3z M45.6,101.1c2,0,3.6,1.6,3.6,3.6s-1.6,3.6-3.6,3.6s-3.6-1.6-3.6-3.6S43.6,101.1,45.6,101.1z
		 M75.3,95.6c-14.9,0-26.9-12-26.9-26.9c0-14.9,12-26.9,26.9-26.9s26.9,12.2,26.9,26.9C102.2,83.6,90.2,95.6,75.3,95.6z M105.1,62.2
		c-3.1-13.6-15.3-24-29.8-24c-16.2,0-29.5,12.7-30.5,28.7H18c-8,0-14.4-6.5-14.4-14.4c0-7.8,6-14,13.8-14.4c1.1,0,1.8-0.9,1.6-2
		c-0.2-0.9-0.2-1.8-0.2-2.7c0-10.5,11.5-17.1,20.4-12c1.1,0.5,2.4,0,2.7-1.1c2.7-9.8,11.8-16.5,22.2-16.5c12,0,22,9.1,23.1,21.1
		c0,1.1,1.1,1.8,2.2,1.6c0.9-0.2,1.8-0.2,2.9-0.2c11.3,0,20.4,9.1,20.4,20.4C112.4,52.5,109.6,58.4,105.1,62.2z"/>
	<circle class="st5" cx="30.5" cy="54" r="1.8"/>
	<path class="st5" d="M12.4,52.2c-1.1,0-1.8,0.9-1.8,1.8c0,0.9,0.7,1.8,1.8,1.8c1.1,0,1.8-0.9,1.8-1.8
		C14.2,52.9,13.5,52.2,12.4,52.2z"/>
	<path class="st5" d="M21.5,52.2c-1.1,0-1.8,0.9-1.8,1.8c0,0.9,0.7,1.8,1.8,1.8c1.1,0,1.8-0.9,1.8-1.8
		C23.3,52.9,22.5,52.2,21.5,52.2z"/>
	<path class="st4" d="M87.1,60.2h-1.3v-2.7c0-5.8-4.7-10.5-10.5-10.5s-10.5,4.7-10.5,10.5v2.7h-1.3c-2,0-3.6,1.6-3.6,3.6v19.8
		c0,2,1.6,3.6,3.6,3.6h23.6c2,0,3.6-1.6,3.6-3.6V63.8C90.7,61.8,89.1,60.2,87.1,60.2z M68.4,57.5c0-3.8,3.1-6.9,6.9-6.9
		s6.9,3.1,6.9,6.9v2.7h-14L68.4,57.5z M87.1,83.6H63.5V63.8h23.6V83.6z"/>
	<path class="st4" d="M73.5,77.5v2c0,1.1,0.7,1.8,1.8,1.8s1.8-0.7,1.8-1.8v-2c2.4-0.7,4-2.9,4-5.5c0-3.3-2.7-5.8-5.8-5.8
		c-3.3,0-5.8,2.5-5.8,5.8C69.5,74.5,71.1,76.7,73.5,77.5z M75.3,69.6c1.3,0,2.2,0.9,2.2,2.2c0,1.3-1.1,2.2-2.2,2.2s-2.2-0.9-2.2-2.2
		C73.1,70.5,74,69.6,75.3,69.6z"/>
	<path class="st5" d="M63.8,8.9c-7.1,0-13.5,4.2-16,10.9c-0.4,0.9,0,2,1.1,2.4c0.9,0.4,2,0,2.4-1.1c2.2-5.3,7.1-8.5,12.7-8.5
		c1.1,0,1.8-0.7,1.8-1.8C65.8,9.6,64.9,8.9,63.8,8.9z"/>
</g>
</svg>
