<?xml version="1.0" encoding="utf-8"?>
<!-- Generator: Adobe Illustrator 24.3.0, SVG Export Plug-In . SVG Version: 6.00 Build 0)  -->
<svg version="1.1" id="Layer_1" xmlns="http://www.w3.org/2000/svg" xmlns:xlink="http://www.w3.org/1999/xlink" x="0px" y="0px"
	 width="87.1px" height="111px" viewBox="0 0 87.1 111" style="enable-background:new 0 0 87.1 111;" xml:space="preserve">
<style type="text/css">
	.st0{fill:#00B0FB;}
	.st1{fill:#00B0FB;fill-opacity:0.4;}
	.st2{fill:#FFFFFF;}
	.st3{fill:none;}
	.st4{fill:#001135;}
	.st5{fill:#3C7CFF;}
	.st6{fill:#3C7CFF;stroke:#001135;stroke-width:0.7602;stroke-miterlimit:10;}
	.st7{fill:#DBDBDB;}
	.st8{fill:#B9B9B9;}
	.st9{fill:#080808;}
	.st10{fill:#060606;}
	.st11{fill:#070707;}
	.st12{fill:#121212;}
	.st13{fill:#111111;}
	.st14{fill:#090909;}
	.st15{fill:#FDFDFD;}
	.st16{fill:#F9F9F9;}
	.st17{fill:#F3F2F3;}
	.st18{fill:#FAFAFA;}
	.st19{fill:#0A0A0A;}
	.st20{fill:#EEEEEE;}
	.st21{fill:#0D0D0D;}
	.st22{fill:#0C0C0C;}
	.st23{fill:#0E0E0E;}
	.st24{fill:#050505;}
	.st25{fill:#3A3A3A;}
	.st26{fill:#525252;}
	.st27{fill:#474747;}
	.st28{fill:#1E1E1E;}
	.st29{fill:#1D1D1D;}
	.st30{fill:#222222;}
	.st31{fill:#494949;}
	.st32{fill:#585858;}
	.st33{fill:#EDEDED;}
	.st34{fill:#F0F0F0;}
	.st35{fill:#EAEAEA;}
	.st36{fill:#EAE9EA;}
	.st37{fill:#040404;}
	.st38{fill:#F4F3F4;}
	.st39{fill:#030303;}
	.st40{fill:#E8E8E8;}
	.st41{fill:#0C0C0B;}
	.st42{fill:#0D0D0C;}
	.st43{fill:#919191;}
	.st44{fill:#909090;}
	.st45{fill:#0E0E0D;}
	.st46{fill:#0C0D0C;}
	.st47{fill:#090908;}
	.st48{fill:#141414;}
	.st49{fill:#4C4D4D;}
	.st50{fill:#737474;}
	.st51{fill:#242424;}
	.st52{fill:#202020;}
	.st53{fill:#101010;}
	.st54{fill:#0D0E0D;}
	.st55{fill:#111212;}
	.st56{fill:#0B0B0B;}
	.st57{fill:#0D0C0C;}
	.st58{fill:#E7E7E7;}
	.st59{fill:#272727;}
	.st60{fill:#2E2E2E;}
	.st61{fill:#1F1E1E;}
	.st62{fill:#1B1A1A;}
	.st63{fill:#E6E6E6;}
	.st64{fill:#0F0E0E;}
	.st65{fill:#F2F2F2;}
	.st66{fill:#F4F3F3;}
	.st67{fill:#F9F8F8;}
	.st68{fill:#F1F1F0;}
	.st69{fill:#F6F6F6;}
	.st70{fill:#F5F6F6;}
	.st71{fill:#F5F5F5;}
	.st72{fill:#2C2C2C;}
	.st73{fill:#252625;}
	.st74{fill:#303030;}
	.st75{fill:#2D2D2C;}
	.st76{fill:#2D2D2D;}
	.st77{fill:#262727;}
	.st78{fill:#191919;}
	.st79{fill:#1B1B1B;}
	.st80{fill:#F7F7F7;}
	.st81{fill:#F6F7F7;}
	.st82{fill:#F9F9FA;}
	.st83{fill:#F4F4F4;}
	.st84{fill:#F8F8F8;}
	.st85{fill:#FCFCFC;}
	.st86{fill:#FBFBFB;}
	.st87{fill:#E2E1E2;}
	.st88{fill:#D8D7D8;}
	.st89{fill:#0F0F0F;}
	.st90{fill:#161616;}
	.st91{fill:#181818;}
	.st92{fill:#131313;}
	.st93{fill-rule:evenodd;clip-rule:evenodd;fill:#00B0FB;}
</style>
<g>
	<path class="st5" d="M19.5,15h48.1c0.4,0,0.7-0.3,0.7-0.7V3.3H18.8v10.9C18.8,14.7,19.1,15,19.5,15z M27.1,7.5h33
		c0.9,0,1.7,0.7,1.7,1.7s-0.7,1.7-1.7,1.7h-33c-0.9,0-1.7-0.7-1.7-1.7S26.1,7.5,27.1,7.5z"/>
	<path class="st5" d="M67.6,96H19.5c-0.4,0-0.7,0.3-0.7,0.7v10.9h4.9v-5.8c0-0.9,0.7-1.7,1.7-1.7c0.9,0,1.7,0.7,1.7,1.7v5.8h5.8
		v-5.8c0-0.9,0.7-1.7,1.7-1.7c0.9,0,1.7,0.7,1.7,1.7v5.8h5.8v-5.8c0-0.9,0.7-1.7,1.7-1.7s1.7,0.7,1.7,1.7v5.8H51v-5.8
		c0-0.9,0.7-1.7,1.7-1.7c0.9,0,1.7,0.7,1.7,1.7v5.8h5.8v-5.8c0-0.9,0.7-1.7,1.7-1.7c0.9,0,1.7,0.7,1.7,1.7v5.8h4.9V96.8
		C68.4,96.3,68,96,67.6,96z"/>
	<path class="st4" d="M55.6,48.5h-3v14.1h3c2.4,0,4.4-2,4.4-4.4v-5.4C59.9,50.4,58,48.5,55.6,48.5z"/>
	<path class="st2" d="M82.1,111c0.7,0,1.4-0.1,2-0.4C83.4,110.9,82.8,111,82.1,111L82.1,111z"/>
	<path class="st2" d="M82.1,0L82.1,0c0.7,0,1.4,0.1,2,0.4C83.4,0.1,82.8,0,82.1,0z"/>
	<path class="st2" d="M86.7,3.1c0.3,0.6,0.4,1.3,0.4,2V106c0,0.7-0.1,1.4-0.4,2c0.3-0.6,0.4-1.3,0.4-2V5C87.1,4.3,87,3.7,86.7,3.1z"
		/>
	<path class="st2" d="M82.1,3.3H71.7v10.9c0,2.2-1.8,4-4,4H19.5c-2.2,0-4-1.8-4-4V3.3H5c-1,0-1.7,0.8-1.7,1.7V106
		c0,1,0.8,1.7,1.7,1.7h10.4V96.8c0-2.2,1.8-4,4-4h48.1c2.2,0,4,1.8,4,4v10.9h10.4c1,0,1.7-0.8,1.7-1.7V5C83.8,4.1,83,3.3,82.1,3.3z
		 M71.7,78.6c0,2.2-1.8,4-4,4H19.5c-2.2,0-4-1.8-4-4V32.4c0-2.2,1.8-4,4-4h48.1c2.2,0,4,1.8,4,4V78.6z"/>
	<path class="st4" d="M67.6,31.6H19.5c-0.4,0-0.7,0.3-0.7,0.7v46.3c0,0.4,0.3,0.7,0.7,0.7h48.1c0.4,0,0.7-0.3,0.7-0.7V32.4
		C68.4,32,68,31.6,67.6,31.6z M34.3,62.2c0,2-1.6,3.6-3.6,3.6h-5.2c-0.9,0-1.7-0.7-1.7-1.7s0.7-1.7,1.7-1.7h5.2
		c0.2,0,0.3-0.1,0.3-0.3v-4.8c0-0.2-0.1-0.3-0.3-0.3h-3.2c-2,0-3.6-1.6-3.6-3.6v-4.8c0-2,1.6-3.6,3.6-3.6h5.2c0.9,0,1.7,0.7,1.7,1.7
		s-0.7,1.7-1.7,1.7h-5.2c-0.2,0-0.3,0.1-0.3,0.3v4.8c0,0.2,0.1,0.3,0.3,0.3h3.2c2,0,3.6,1.6,3.6,3.6V62.2z M47.1,62.2
		c0,2-1.6,3.6-3.6,3.6h-5.2c-0.9,0-1.7-0.7-1.7-1.7s0.7-1.7,1.7-1.7h5.2c0.2,0,0.3-0.1,0.3-0.3v-4.8c0-0.2-0.1-0.3-0.3-0.3h-3.2
		c-2,0-3.6-1.6-3.6-3.6v-4.8c0-2,1.6-3.6,3.6-3.6h5.2c0.9,0,1.7,0.7,1.7,1.7s-0.7,1.7-1.7,1.7h-5.2c-0.2,0-0.3,0.1-0.3,0.3v4.8
		c0,0.2,0.1,0.3,0.3,0.3h3.2c2,0,3.6,1.6,3.6,3.6V62.2z M63.2,58.2c0,4.2-3.4,7.7-7.7,7.7h-4.6c-0.9,0-1.7-0.7-1.7-1.7V46.8
		c0-0.9,0.7-1.7,1.7-1.7h4.6c4.2,0,7.7,3.4,7.7,7.7V58.2z"/>
	<path class="st4" d="M0.1,4c0.1-0.7,0.4-1.3,0.8-1.8C0.5,2.8,0.2,3.4,0.1,4z"/>
	<path class="st4" d="M0.9,108.8c-0.4-0.5-0.6-1.1-0.8-1.8C0.2,107.6,0.5,108.2,0.9,108.8z"/>
	<path class="st4" d="M87.1,5c0-0.7-0.1-1.4-0.4-2c-0.5-1.2-1.5-2.2-2.7-2.7c-0.6-0.3-1.3-0.4-2-0.4H5C3.3,0,1.8,0.9,0.9,2.2
		C0.5,2.8,0.2,3.4,0.1,4C0,4.4,0,4.7,0,5V106c0,0.3,0,0.7,0.1,1c0.1,0.7,0.4,1.3,0.8,1.8c0.9,1.3,2.4,2.2,4.2,2.2h77
		c0.7,0,1.4-0.1,2-0.4c1.2-0.5,2.2-1.5,2.7-2.7c0.3-0.6,0.4-1.3,0.4-2V5z M18.8,3.3h49.6v10.9c0,0.4-0.3,0.7-0.7,0.7H19.5
		c-0.4,0-0.7-0.3-0.7-0.7V3.3z M68.4,107.7h-4.9v-5.8c0-0.9-0.7-1.7-1.7-1.7c-0.9,0-1.7,0.7-1.7,1.7v5.8h-5.8v-5.8
		c0-0.9-0.7-1.7-1.7-1.7c-0.9,0-1.7,0.7-1.7,1.7v5.8h-5.8v-5.8c0-0.9-0.7-1.7-1.7-1.7s-1.7,0.7-1.7,1.7v5.8h-5.8v-5.8
		c0-0.9-0.7-1.7-1.7-1.7c-0.9,0-1.7,0.7-1.7,1.7v5.8H27v-5.8c0-0.9-0.7-1.7-1.7-1.7c-0.9,0-1.7,0.7-1.7,1.7v5.8h-4.9V96.8
		c0-0.4,0.3-0.7,0.7-0.7h48.1c0.4,0,0.7,0.3,0.7,0.7V107.7z M83.8,106c0,1-0.8,1.7-1.7,1.7H71.7V96.8c0-2.2-1.8-4-4-4H19.5
		c-2.2,0-4,1.8-4,4v10.9H5c-1,0-1.7-0.8-1.7-1.7V5c0-1,0.8-1.7,1.7-1.7h10.4v10.9c0,2.2,1.8,4,4,4h48.1c2.2,0,4-1.8,4-4V3.3h10.4
		c1,0,1.7,0.8,1.7,1.7V106z"/>
	<path class="st4" d="M67.6,28.3H19.5c-2.2,0-4,1.8-4,4v46.3c0,2.2,1.8,4,4,4h48.1c2.2,0,4-1.8,4-4V32.4
		C71.7,30.1,69.9,28.3,67.6,28.3z M68.4,78.6c0,0.4-0.3,0.7-0.7,0.7H19.5c-0.4,0-0.7-0.3-0.7-0.7V32.4c0-0.4,0.3-0.7,0.7-0.7h48.1
		c0.4,0,0.7,0.3,0.7,0.7V78.6z"/>
	<path class="st2" d="M27.1,10.8h33c0.9,0,1.7-0.7,1.7-1.7S61,7.5,60.1,7.5h-33c-0.9,0-1.7,0.7-1.7,1.7S26.1,10.8,27.1,10.8z"/>
	<path class="st2" d="M43.4,53.8h-3.2c-0.2,0-0.3-0.1-0.3-0.3v-4.8c0-0.2,0.1-0.3,0.3-0.3h5.2c0.9,0,1.7-0.7,1.7-1.7
		s-0.7-1.7-1.7-1.7h-5.2c-2,0-3.6,1.6-3.6,3.6v4.8c0,2,1.6,3.6,3.6,3.6h3.2c0.2,0,0.3,0.1,0.3,0.3v4.8c0,0.2-0.1,0.3-0.3,0.3h-5.2
		c-0.9,0-1.7,0.7-1.7,1.7s0.7,1.7,1.7,1.7h5.2c2,0,3.6-1.6,3.6-3.6v-4.8C47.1,55.5,45.4,53.9,43.4,53.8z"/>
	<path class="st2" d="M30.7,53.8h-3.2c-0.2,0-0.3-0.1-0.3-0.3v-4.8c0-0.2,0.1-0.3,0.3-0.3h5.2c0.9,0,1.7-0.7,1.7-1.7
		s-0.7-1.7-1.7-1.7h-5.2c-2,0-3.6,1.6-3.6,3.6v4.8c0,2,1.6,3.6,3.6,3.6h3.2c0.2,0,0.3,0.1,0.3,0.3v4.8c0,0.2-0.1,0.3-0.3,0.3h-5.2
		c-0.9,0-1.7,0.7-1.7,1.7s0.7,1.7,1.7,1.7h5.2c2,0,3.6-1.6,3.6-3.6v-4.8C34.3,55.5,32.7,53.9,30.7,53.8z"/>
	<path class="st2" d="M55.6,45.1h-4.6c-0.9,0-1.7,0.7-1.7,1.7v17.4c0,0.9,0.7,1.7,1.7,1.7h4.6c4.2,0,7.7-3.4,7.7-7.7v-5.4
		C63.2,48.6,59.8,45.2,55.6,45.1z M59.9,58.2c0,2.4-2,4.4-4.4,4.4h-3V48.5h3c2.4,0,4.4,2,4.4,4.4V58.2z"/>
</g>
</svg>
