<?xml version="1.0" encoding="utf-8"?>
<!-- Generator: Adobe Illustrator 25.0.0, SVG Export Plug-In . SVG Version: 6.00 Build 0)  -->
<svg version="1.1" id="Layer_1" xmlns="http://www.w3.org/2000/svg" xmlns:xlink="http://www.w3.org/1999/xlink" x="0px" y="0px"
	 viewBox="0 0 564.27 478" style="enable-background:new 0 0 564.27 478;" xml:space="preserve">
<style type="text/css">
	.st0{fill:#001135;}
	.st1{fill:#FFFFFF;}
	.st2{fill:#3C7CFF;}
	.st3{fill:#185AE9;}
	.st4{fill:#00B0FB;}
	.st5{fill-rule:evenodd;clip-rule:evenodd;fill:#00B0FB;}
	.st6{fill:#061639;}
	.st7{fill:#1429FF;}
	.st8{fill:#663398;}
	.st9{fill:#FEFEFE;}
	.st10{fill:#8DB849;}
	.st11{fill:#5A863E;}
	.st12{fill:#FFFFFE;}
	.st13{fill-rule:evenodd;clip-rule:evenodd;fill:#7FC728;}
	.st14{fill:#B3B3B3;}
	.st15{fill:#A6120D;}
	.st16{fill:#DD1B16;}
	.st17{fill:#F2F2F2;}
	.st18{fill:#8F9ED1;}
	.st19{fill:#030303;}
	.st20{fill:#0E0E0D;}
	.st21{fill:#8F8F90;}
	.st22{fill:#DBDBDB;}
	.st23{fill:#FDFDFD;}
	.st24{fill:#FDFCFD;}
	.st25{fill:#010101;}
	.st26{fill:#FCB415;}
	.st27{opacity:0.2;fill:#FFFFFF;enable-background:new    ;}
	.st28{fill:#68B345;}
	.st29{fill:#0A99D6;}
	.st30{opacity:0.1;fill:#010101;enable-background:new    ;}
	.st31{fill:#EE3325;}
	.st32{fill:url(#SVGID_1_);}
	.st33{fill:#FF2D20;}
	.st34{clip-path:url(#SVGID_2_);fill:#F9C638;}
	.st35{fill:#2A2D2C;}
	.st36{fill:#F9C638;}
	.st37{fill:#833CF7;}
	.st38{fill:none;}
	.st39{fill:#0A0A0A;}
	.st40{fill:#050505;}
	.st41{fill:#2A2A2A;}
	.st42{fill:#000100;}
	.st43{fill:#FBFBFB;}
	.st44{fill:#070707;}
	.st45{fill:#080808;}
	.st46{fill:#F7F7F7;}
	.st47{fill:#0B0B0B;}
	.st48{fill:#F1F0F1;}
	.st49{fill:#F4F4F4;}
	.st50{fill:#0C0C0C;}
	.st51{fill:#ECECEC;}
	.st52{fill:#252525;}
	.st53{fill:#D5D5D5;}
	.st54{fill:#3F3F3F;}
	.st55{fill:#818181;}
	.st56{fill:#A2A2A2;}
	.st57{fill:#040404;}
	.st58{fill:#151515;}
	.st59{fill:#343434;}
	.st60{fill:#4B4B4B;}
	.st61{fill:#0D0D0D;}
	.st62{fill:#00D8FF;}
	.st63{fill:#4DBA87;}
	.st64{fill:#425466;}
	.st65{fill:url(#SVGID_3_);}
	.st66{fill:url(#SVGID_4_);}
	.st67{fill:#14559A;}
	.st68{fill:url(#SVGID_6_);}
	.st69{fill:#3092C4;}
	.st70{fill:#1969BC;}
	.st71{fill:url(#SVGID_7_);}
	.st72{fill:url(#SVGID_8_);}
	.st73{fill:url(#SVGID_9_);}
	.st74{fill:#2B74B1;}
	.st75{fill:#125A9E;}
	.st76{fill:url(#SVGID_10_);}
	.st77{fill:url(#SVGID_11_);}
	.st78{fill:#0D82CA;}
	.st79{fill:url(#SVGID_12_);}
	.st80{fill:#127BCA;}
	.st81{fill:url(#SVGID_13_);}
	.st82{fill:url(#SVGID_14_);}
	.st83{fill:#05A1E6;}
	.st84{fill:url(#SVGID_15_);}
	.st85{fill:url(#SVGID_16_);}
	.st86{fill:url(#SVGID_17_);}
	.st87{fill:#079AE1;}
	.st88{fill:#1E5CB3;}
	.st89{fill:#1D60B5;}
	.st90{fill:#175FAB;}
	.st91{fill:url(#SVGID_18_);}
	.st92{fill:#7DCBEC;}
	.st93{fill:#5EC5ED;}
	.st94{fill:url(#SVGID_19_);}
	.st95{fill:url(#SVGID_20_);}
	.st96{fill:url(#SVGID_21_);}
	.st97{fill:#6EB341;}
	.st98{fill:#F6F6F6;}
	.st99{fill:#060606;}
	.st100{fill:#101010;}
	.st101{fill:url(#SVGID_22_);}
	.st102{fill:url(#SVGID_23_);}
	.st103{fill:url(#SVGID_24_);}
	.st104{fill:url(#SVGID_25_);}
	.st105{fill:url(#SVGID_26_);}
	.st106{fill:url(#SVGID_27_);}
	.st107{fill:url(#SVGID_28_);}
	.st108{fill:url(#SVGID_29_);}
	.st109{fill:url(#SVGID_30_);}
	.st110{fill:url(#SVGID_31_);}
	.st111{fill:url(#SVGID_32_);}
	.st112{fill:url(#SVGID_33_);}
	.st113{fill:url(#SVGID_34_);}
	.st114{fill:url(#SVGID_35_);}
	.st115{fill:url(#SVGID_36_);}
	.st116{fill:url(#SVGID_37_);}
	.st117{fill:url(#SVGID_38_);}
	.st118{fill:url(#SVGID_39_);}
	.st119{fill-rule:evenodd;clip-rule:evenodd;fill:#5382A1;}
	.st120{fill-rule:evenodd;clip-rule:evenodd;fill:#E76F00;}
</style>
<g>
	<g>
		<path d="M0.02,221.78c0.17,5.26,1.86,10.17,3.9,14.98c5.48,12.72,13.33,23.95,21.76,34.8c4.88,6.28,9.96,12.38,15.2,18.33
			c1.52,1.73,3.06,3.45,4.61,5.15c2.36,2.61,4.77,5.19,7.2,7.74c1.74,1.83,3.49,3.65,5.26,5.45c6.01,6.14,12.18,12.14,18.46,18.02
			c0.89,0.84,1.79,1.67,2.7,2.51c0.68,0.64,1.37,1.28,2.06,1.91c4.12,3.8,8.29,7.56,12.48,11.27c0.26,0.24,0.52,0.47,0.79,0.7
			c4.23,3.75,8.5,7.46,12.81,11.12c0.59,0.5,1.19,1.01,1.79,1.51c0.57,0.49,1.15,0.98,1.74,1.46c0.17,0.15,0.35,0.29,0.52,0.43
			c10.51,8.84,21.23,17.43,32.15,25.73c1.07,0.81,2.14,1.62,3.22,2.44c0.15,0.11,0.3,0.23,0.45,0.34c3.47,2.62,6.97,5.2,10.48,7.77
			c3.23,2.35,6.47,4.68,9.73,6.97c1.17,0.84,2.35,1.67,3.53,2.49c11.53,8.07,23.28,15.85,35.24,23.33c1.83,1.15,3.67,2.29,5.51,3.42
			c1.12,0.69,2.24,1.38,3.36,2.06c5.73,3.49,11.51,6.91,17.35,10.22c1.54,0.88,3.09,1.75,4.65,2.61c14.94,8.3,30.27,15.85,46.2,22.2
			c13.97,5.54,28.14,10.4,43.57,11.02c2.2-0.23,4.58-0.17,6.9-0.51c8.81-1.41,13.56-6.95,13.44-15.82
			c-0.04-4.81-1.36-9.27-3.11-13.67c-4.57-11.59-11.35-21.88-18.7-31.77c-9.17-12.33-19.13-23.93-29.64-35.03
			c-1.43-1.52-2.88-3.02-4.33-4.52c-1-1.04-2.02-2.07-3.03-3.1c-0.97-1-1.95-1.98-2.93-2.96c-1.76-1.76-3.53-3.5-5.31-5.25
			c-0.03-0.03-0.07-0.07-0.11-0.1c-0.94-0.93-1.9-1.85-2.85-2.76c-0.2-0.2-0.4-0.39-0.6-0.57c0-0.03-0.01-0.03-0.01-0.03
			c-0.12-0.11-0.23-0.22-0.35-0.33c-2.87-2.77-5.78-5.52-8.71-8.24c-1.03-0.96-2.07-1.91-3.1-2.86c-0.71-0.67-1.43-1.33-2.15-1.99
			c-0.7-0.64-1.41-1.28-2.12-1.92c-0.53-0.48-1.06-0.98-1.61-1.46c-0.56-0.51-1.12-1.01-1.68-1.5c-2.26-2.05-4.54-4.07-6.83-6.08
			c-0.28-0.23-0.55-0.48-0.82-0.71c-0.1-0.09-0.19-0.18-0.29-0.26c-0.58-0.5-1.15-1-1.73-1.5c-0.27-0.24-0.54-0.48-0.8-0.69
			c-2.78-2.42-5.57-4.81-8.38-7.17c-1.14-0.97-2.27-1.92-3.41-2.87c-1.06-0.89-2.12-1.76-3.19-2.64c-2.21-1.83-4.45-3.66-6.69-5.47
			c-0.01,0-0.01,0-0.01-0.01c-2.18-1.76-4.36-3.51-6.55-5.24c-0.2-0.16-0.41-0.32-0.61-0.48c-0.93-0.74-1.86-1.48-2.8-2.21
			c-0.92-0.72-1.84-1.43-2.76-2.14c-1.2-0.95-2.41-1.88-3.63-2.81c-3.76-2.89-7.54-5.76-11.35-8.58c-0.81-0.61-1.62-1.22-2.43-1.82
			c-1.77-1.31-3.54-2.61-5.32-3.9c-1.03-0.75-2.06-1.49-3.09-2.23c-2.56-1.87-5.15-3.71-7.74-5.54c-0.05-0.03-0.09-0.07-0.14-0.1
			c-0.15-0.11-0.29-0.2-0.44-0.31c-0.84-0.59-1.66-1.17-2.51-1.75c-0.16-0.11-0.32-0.22-0.48-0.33c-0.09-0.07-0.19-0.14-0.29-0.2
			c-3.62-2.55-7.25-5.05-10.92-7.52c-2.47-1.69-4.95-3.35-7.44-4.99c-1-0.67-2-1.34-3.02-1.98c-0.26-0.17-0.5-0.33-0.76-0.5
			c-0.89-0.59-1.78-1.17-2.68-1.76c-1.06-0.67-2.11-1.36-3.17-2.04c-4.61-2.94-9.26-5.84-13.95-8.67c-1.07-0.66-2.14-1.3-3.21-1.94
			c-0.8-0.48-1.59-0.95-2.38-1.42c-1.06-0.63-2.13-1.26-3.2-1.89c-6.44-3.76-12.94-7.41-19.54-10.93c-3.81-2.03-7.64-4.02-11.5-5.95
			c-0.98-0.51-1.96-0.99-2.94-1.49c-3.01-1.49-6.03-2.95-9.06-4.37v-0.01c-1.34-0.62-2.67-1.24-4.01-1.84
			c-2.28-1.04-4.58-2.05-6.89-3.03c-9.41-3.99-19.04-7.48-29.02-10.12c-8.64-2.26-17.35-3.95-26.38-2.82
			C4.71,206.3-0.32,212.06,0.02,221.78z"/>
		<g>
			<path class="st22" d="M118.88,250.06c-0.07,2.4,1.01,3.21,3.16,3.83c7.07,2.04,7.13,2.16,4.56,8.75
				c-1.79,4.6-2.17,8.66,1.62,12.73c3.22,3.47,5.77,7.58,8.51,11.48c5.16,7.34,10.76,14.42,13.61,23.14
				c0.35,1.06-0.44,3.55,2.18,2.96c2.25-0.5,3.74-1.42,3.25-4.42c-1.61-9.84-3.82-19.42-7.9-28.61
				c-7.45-16.78-17.18-32.44-23.67-49.49c-7.33,2.73-7.85,7.87-6.08,13.99C118.63,246.22,118.94,248.18,118.88,250.06z"/>
			<path class="st22" d="M199.91,321.43c0.78-2.68,2.8-4.58,4.27-6.83c0.68-1.05,1.7-2.03-0.55-2.54c-3.95-0.89-8.17,1.49-8.55,5.3
				c-0.24,2.41,0.2,4.89,0.36,7.67c1.75-1.36,3.01-2.34,4.27-3.31c-1.72,3.36-5.36,5.57-5.78,9.75
				c18.78-21.6,37.23-43.44,54.42-66.32c-10.87,11.66-21.14,23.83-31.49,35.92C211.11,307.77,206.27,315.24,199.91,321.43z"/>
			<path class="st1" d="M113.87,189.37c-1.39,7-0.75,14.4-4.22,20.99C115.51,204.24,113.91,196.65,113.87,189.37z"/>
			<path class="st1" d="M93.07,216.36c1.22-4.34,4.64-7.46,6.27-11.53c-8.35,7.29-11.82,18.27-7.62,24.41
				C91.37,224.85,91.87,220.6,93.07,216.36z"/>
			<path class="st1" d="M80.03,200.14c-3.9,4.41-5.56,9.79-4.56,14.28c1.19-8.41,6.22-14.34,12.22-19.75
				c3.36-3.03,5.71-6.88,6.72-11.57C91.29,190.19,84.96,194.57,80.03,200.14z"/>
			<path class="st22" d="M203.27,285.66c-1.97-10.44-4.29-20.81-7.29-31c-2.29-7.82-7.3-12.81-15.34-14.82
				c-3.51-0.87-7.21-1.26-10.56-3.08c2.48,3.7,5.9,6.48,8.3,10.15c0.96,1.47,1.83,2.89,0.24,4.34c-2.1,1.93-1.1,3.13,0.66,4.5
				c4.41,3.42,6.54,8.15,7.82,13.48c1.36,5.64,1.64,11.35,1.61,17.06c0,1.71-0.04,3.41-0.08,5.11c1.89,0.28,2.81-1.25,4.14-1.26
				c0.38,0,0.71-0.03,1-0.08c2.17-0.37,2.17-2.03,2-4.23c-0.37-4.95-1.33-9.68-3.68-14.12c-0.62-1.18-1.89-2.47-0.65-4.05
				c0.31,0.09,0.64,0.09,0.8,0.25c0.27,0.28,0.44,0.66,0.63,1.01c2.96,5.45,5.21,11.14,5,17.46c-0.12,3.36,1.92,2.74,3.99,2.7
				C205.1,289,203.51,286.89,203.27,285.66z M191.45,263.49c-0.36,0.01-0.72,0.01-1.08,0.02v-13.77
				C191.89,254.34,192.04,258.91,191.45,263.49z"/>
			<path class="st22" d="M176.95,248.32c-5.52-7.78-11.71-14.92-20.53-18.84c12.12,20.83,22.84,42.17,26,66.75
				c1.58-0.77,3.55-1.44,3.76-3.61c1.49-15.05,0.94-29.53-12.22-39.71C174.67,250.7,179.2,251.49,176.95,248.32z"/>
			<path class="st1" d="M142.38,171.27c4.55-1.64,7.14-4.36,8.52-9.3C148.19,165.9,145.34,168.18,142.38,171.27z"/>
			<path class="st1" d="M181.59,301.11c-3.72,4.25-8.22,8.11-13.7,10.15c-2.75,1.03-2.65,2.69-2.08,4.77
				c1.15,4.19,2.58,8.28,5.15,12.44c-0.73-2.66,1.13-3.21,2.74-3.81c2.81-1.05,5.71-1.84,8.48-2.97c3.88-1.58,8.38-2.51,10.71-6.34
				c2.47-4.06,5.8-5.44,10.26-5.01c0.95,0.09,1.91,0.03,2.86,0.05c0.98,0.02,2,0.06,2.24-1.2c0.2-1.05-0.72-1.35-1.38-1.77
				c-2.14-1.34-4.53-1.76-7-2.02c-1.06-0.11-3.06,0.6-2.9-1.07c0.16-1.68,2.23-1.25,3.47-1.04c2.95,0.5,5.79,1.43,8.49,2.82
				c2.59,1.33,3.01-1.22,3.61-2.61c0.98-2.27-1.31-1.56-2.13-1.69c-5.13-0.85-9.33-4.33-14.58-4.8c2.59-0.73,4.91-0.27,7.21,0.79
				c3.11,1.44,6.46,2.1,9.83,2.6c1.01,0.15,2.34,0.64,2.85-0.76c0.48-1.32-0.89-1.89-1.59-2.57c-1.93-1.87-4.94-1.3-7.35-2.86
				c3.71-0.65,6.75,0.74,9.67,2.04c1.42,0.63,1.59-0.16,2.2-0.78c0.96-0.98,0.67-1.65-0.46-2.15c-0.63-0.28-1.23-0.58-1.05-1.45
				c1.14-1.36,2.29,1.84,3.44,0c-0.13-0.22-0.23-0.59-0.38-0.61c-2.02-0.26-4.05-0.7-6.06-0.66
				C202.28,290.85,190.48,290.95,181.59,301.11z"/>
			<path class="st22" d="M169.24,332.18c-2.81-6.61-5.64-13.25-6.22-20.78c-0.78,0.36-1.37,0.67-1.98,0.92
				c-14.21,5.88-27.98,13.11-43.45,15.29c-6.38,0.89-10.72,4.3-14.3,9.21c-0.53,0.73-0.64,1.87-2.43,2.03
				c1.39-5.51,5.63-8.24,10.37-11.52c-5.42-0.09-9.47,1.5-13.47,3.41c2.54-3.88,6.23-5.7,10.63-5.31c2.88,0.25,3.31-0.51,3.17-3.18
				c-0.74-14.56-0.3-29.13,0.14-43.75c1.35,1.89,1.55,4,1.59,6.15c0.2,12.42,0.49,24.84,0.55,37.26c0.01,2.87,0.51,3.78,3.62,3.14
				c7.92-1.63,15.57-3.95,23.02-7.1c9.67-4.08,9.75-4,4.94-13.63c-4.97-9.96-12.3-18.34-18.85-27.21
				c-3.78-5.13-4.83-9.99-1.61-15.39c2.05-3.45,0.91-4.83-2.53-5.42c-3.67-0.64-5.7-2.36-5.66-6.54c0.04-3.5-0.98-7.01-1.35-10.54
				c-0.24-2.17-0.85-2.65-3.09-1.91c-2.69,0.9-5.58,1.23-8.41,1.62c-14.16,1.94-22.14,8.86-23.6,21.67
				c-2.48,21.77-2.99,43.55-0.97,65.33c6.11,5.65,12.29,11.19,18.55,16.61c0.96,0.83,1.87,1.61,2.83,2.43
				c5.52,4.73,11.07,9.4,16.68,13.99c0.29-0.09,0.57-0.18,0.86-0.28c17.23-5.89,32.96-15.09,49.57-22.35
				C169.95,335.41,170.14,334.3,169.24,332.18z M105.11,260.43c-3.99-5.01-7.47-10.6-14.25-12.33
				C96.94,247.05,104.46,253.46,105.11,260.43z M157.74,333.19c-0.42,1.98-0.5,3.75-2.88,3.54c-1.81-0.17-2.76-1.09-2.43-2.91
				c0.36-2.02,1.88-2.96,3.75-2.93C157.9,330.91,157.74,332.37,157.74,333.19z"/>
			<path class="st1" d="M153.61,148.78c-3.55,10.71-10.98,17.88-21.21,23.07C141.73,171.42,153.41,158.6,153.61,148.78z"/>
			<path class="st1" d="M178.58,187.98c-3.4-4.1-4.67-8.82-4.14-14.12c0.22-2.16,0.15-4.37-0.02-6.54
				c-0.5-6.8-2.57-12.77-8.77-16.65c-5.48-3.43-5.35-3.51-6.77,2.86c-2.64,11.86-8.43,21.52-19.73,27.06
				c-3.16,1.55-6.24,2.44-9.03-1.23c-1.58-2.07-4.25-3.17-6.99-1.98c-2.88,1.24-3.64,3.82-3.61,6.76c0.05,3.49,1.65,6.31,3.85,8.8
				c2.43,2.73,5.24,4.9,9.26,4.08c0.03,1.22-0.66,1.81-1.22,1.71c-4.6-0.82-3.41,1.92-2.96,4.48c0.99,5.68,2.18,11.87-0.17,16.98
				c-3.38,7.33-1.07,12.88,2.54,18.87c1.15,1.9,1.95,2.83,4.33,2.37c3.19-0.6,6.44-0.47,8.8,2.47c-2.61-0.64-5.16-0.77-7.74-0.77
				c-3.16,0-3.11,1.39-1.59,3.44c0.89,1.2,1.82,2.4,2.89,3.44c1.09,1.07,2.21,2.11,3.34,3.13c6.74,6.06,14.14,11.46,21.36,17.83
				c0.09-1.16,0.2-2.31,0.31-3.45c0.78-7.39,1.98-14.36-0.04-21.36c-1.72-5.94-1.85-5.9-7.64-3.37c-0.14,0.06-0.41-0.16-0.7-0.28
				c0.68-2.96,3.59-1.76,5.39-2.83c-1.17-2.81-2.45-5.48-4.84-7.74c-0.85,2.35,0.28,4.35-0.06,6.51c-1.65-1.27-1.51-2.87-1.54-4.32
				c-0.06-4.5-0.16-9.06,1.32-13.37c0.84-2.42,0.3-3.36-2.12-4.02c-4.14-1.13-7.87-3.08-10.89-6.63c1.5-0.36,2.2,0.43,2.94,0.92
				c6.27,4.12,13.39,5.27,20.65,5.72c5.04,0.3,7.16-1.82,6.89-6.71c-0.09-1.62,0.07-2.93,1.24-4.08c0.78-0.78,0.72-1.69,0.24-2.64
				c-0.59-1.15-1.58-0.86-2.5-0.71c-2.26,0.39-4.42,0.53-6.69-2.02c2.92,0,5.05-0.05,7.17,0.02c2.75,0.09,4.64-0.59,3.96-3.93
				c-0.39-1.93,0.43-3.03,2.27-3.7C180.46,191.91,180.35,190.11,178.58,187.98z M164.37,182.53c-1.79-0.24-2.67-2.08-2.7-3.62
				c-0.03-1.76,1.5-2.95,3.25-2.83c2,0.15,1.57,2.15,2.02,3.45C166.6,181.03,166.26,182.78,164.37,182.53z M168.11,171.2
				c-0.17,0.92-0.85,1.4-1.77,1.11c-1.44-0.47-2.91-0.58-4.39-0.39c-1.42,0.19-2.83,0.54-4.94,0.96c2.51-3.22,7.37-4.54,10.06-3.2
				C167.73,170,168.24,170.45,168.11,171.2z"/>
			<path class="st22" d="M183.89,370.95c-8.85,2.46-17.59,2.13-27.01,2.74C163.27,377.11,180.95,375.28,183.89,370.95z"/>
			<path class="st1" d="M246.33,324.87c-0.58-0.72-1.15-0.74-1.62-0.19c-2.13,2.45-4.18,4.96-6.26,7.44
				c2.3-1.68,4.46-2.33,7.28-2.18c1.43,0.08,3.35-0.82,4.68-2.7C248.11,326.96,247.98,326.94,246.33,324.87z"/>
			<path class="st22" d="M234.77,333.16c-12.11-0.12-24.22,0.09-36.34,0.24c-0.77,0.01-1.91-0.52-2.22,0.98
				c-1.23,5.82,2.3,10.33,8.28,10.4c1.63,0.02,3.28-0.04,4.87-0.32c8.1-1.46,15.74-4.21,22.83-8.43c0.55-0.33,1.18-0.51,1.56-0.67
				c1.06,1.2-1.42,1.33-0.19,2.62c3.64-1.27,7.96-1.28,11.07-6.1C240.69,333.31,237.77,333.19,234.77,333.16z"/>
			<path class="st22" d="M280.6,259.82c-4.07-0.73-8.38-0.16-12.59-0.03c-1.06,0.03-1.74,0.8-1.56,1.96c0.2,1.25,1.2,0.77,1.93,0.77
				c3.4-0.01,6.8-0.11,10.2-0.07c1.74,0.02,3.56,0.18,2.5,2.99C282.85,263.14,282.87,260.23,280.6,259.82z"/>
			<path class="st1" d="M263.2,303.1c-2.59-1.21-5.07-2.68-7.73-3.74c-1.7-0.68-3.95-3.18-5.31-0.6c-1.27,2.39,1.89,3.11,3.41,4.12
				c5.6,3.73,5.64,3.66,6.91,6.21c-4.74-1.75-8.7-4.08-12.69-6.33c-1.18-0.66-2.3-1.51-3.76-1.45c-0.99,0.04-2.02,0.18-2.47,1.15
				c-0.59,1.26,0.65,1.66,1.37,2.11c3.48,2.15,7.03,4.17,10.5,6.32c0.88,0.55,2.54,0.64,1.99,2.74c-0.65-0.2-1.29-0.3-1.83-0.58
				c-4.23-2.21-8.47-4.39-12.62-6.74c-1.82-1.03-2.36,0.04-3.04,1.31c-1.05,1.93,0.59,1.39,1.46,2.07
				c3.88,3.05,8.76,4.63,12.41,8.12c-1.06,1.02-1.87,0.66-2.55,0.25c-2.92-1.76-5.78-3.61-8.7-5.37c-0.94-0.57-1.85-2.26-3.07-0.84
				c-1.36,1.58,0.52,2.45,1.36,3.24c3.23,3.08,7.05,5.43,9.54,9.43c1.2,1.93,3.9,1.99,6.23,0.44c5.97-3.97,8.87-10.03,11.11-16.42
				C266.42,306.48,265.62,304.23,263.2,303.1z"/>
			<path class="st22" d="M199.97,413.62c-2.08,1.06-3.62,1.72-4.78,1.87c-1.44,0.2-2.3-0.36-2.91-1.85v-0.01
				c-0.41-1.02-0.7-2.47-0.98-4.41c-3.82-26.75-7.06-53.55-8-80.59c-0.17-5.05-0.21-5.05,5.47-7.18
				c-0.49,10.76-2.78,20.99-2.47,31.35c0.37,0.03,0.74,0.06,1.11,0.1c0.63-5.99,1.3-11.97,1.89-17.96c0.4-4.07,0.7-8.16,1.05-12.24
				c0.11-1.36,0.13-3.19,1.85-3.13c2.16,0.06,1.07,2.09,1.17,3.23c0.2,2.16,0.19,4.31-0.6,6.45c-0.52,1.41-1.27,3.19,0.95,4.21
				c0.91,0.41,0.6,1.43,0.61,2.2c0.36,20.05,4.73,39.51,8.5,59.07c0.59,3.08,1.2,6.15,1.81,9.23
				C205.78,409.76,205.2,410.95,199.97,413.62z"/>
			<path class="st22" d="M156.84,344.01c-2.29,1.22-4.53,2.53-6.83,3.7c-9.75,4.96-19.45,10.07-29.68,13.64
				c2.46,2,4.94,3.98,7.43,5.95c2.33,1.88,4.68,3.71,7.04,5.54c0.41,0.33,0.83,0.66,1.25,0.98c0.46,0.36,0.96,0.78,1.46,1.14
				c1.19,0.92,2.37,1.79,3.56,2.71c0.14,0.11,0.28,0.21,0.42,0.32c1.96,1.49,3.96,2.99,5.91,4.45c1.86,1.38,3.71,2.75,5.6,4.13
				c0.6-3.61,1.15-7.22,1.71-10.83c1.63-10.49,3.17-21,3.49-31.86C157.36,343.95,157.05,343.89,156.84,344.01z M148.95,365
				c-1.38,0.8-1.38-1.37-1.42-2.5c-0.1-2.24,0.04-4.39,2.84-5.02c1.53,0.15,2.76,1.03,2.61,2.51
				C152.73,362.37,150.69,364,148.95,365z"/>
			<path class="st39" d="M297.51,262.25c-0.64-1.24-1.83-0.99-2.89-0.98c-2.73,0.01-5.46,0.08-8.19,0.09
				c-0.92,0-1.97,0.38-2.69-0.46c-5.03-5.91-11.94-3.82-16.79-1.65c-4.07,1.81-7.74,2.38-11.7,2.33c-4.82-0.05-8.23,1.87-11.25,5.43
				c-6,7.08-12.2,13.99-18.38,20.92c-0.79,0.88-1.26,2.46-3.22,1.63c-4.13-1.76-8.56-1.51-12.91-1.35
				c-2.03,0.07-2.71-0.41-3.12-2.54c-1.88-9.77-3.74-19.55-6.39-29.16c-2.93-10.6-8.82-18.02-20.37-19.76
				c-1.89-0.28-3.99-0.4-5.66-1.86c4.48-2.86,4.49-2.98,5.85-5.21c1.03-1.69,1.37-2.48-1.16-3.27c-3.66-1.15-6.84-7.51-5.31-10.4
				c2.08-3.91,0.86-8.43,2.99-12.33c1.95-3.54,0.55-8.55,5.29-11.03c2.22-1.16,1.09-3.3-0.22-4.91c-3.46-4.28-4.64-8.83-1.9-13.99
				c0.7-1.31,1.04-2.82,1.44-4.26c3.1-11.27-1.58-24.31-11.09-29.19c-3.7-1.89-7.42-3.82-11.18-5.59
				c-22.55-10.65-61.81-1.42-66.63,33.03c-1.62,11.55-5.78,21.53-14.92,29.1c-0.32,0.26-0.57,0.59-0.84,0.9
				c-4.49,5.21-6.81,10.61-7.09,16.07c-0.3,5.88,1.77,11.82,6.06,17.61c3.9,5.27,9.02,7.07,15.23,8.88
				c-10.57,5.24-12.81,14.73-14.11,24.73c-0.9,6.91-1.23,13.87-1.24,20.83c-0.02,12.23-0.44,24.48,0.54,36.65
				c0.62,0.58,1.25,1.16,1.87,1.74c0.6,0.56,1.21,1.12,1.82,1.68c-2.02-21.78-1.51-43.56,0.97-65.33
				c1.46-12.81,9.44-19.73,23.6-21.67c2.83-0.39,5.72-0.72,8.41-1.62c2.24-0.74,2.85-0.26,3.09,1.91c0.37,3.53,1.39,7.04,1.35,10.54
				c-0.04,4.18,1.99,5.9,5.66,6.54c3.44,0.59,4.58,1.97,2.53,5.42c-3.22,5.4-2.17,10.26,1.61,15.39
				c6.55,8.87,13.88,17.25,18.85,27.21c4.81,9.63,4.73,9.55-4.94,13.63c-7.45,3.15-15.1,5.47-23.02,7.1
				c-3.11,0.64-3.61-0.27-3.62-3.14c-0.06-12.42-0.35-24.84-0.55-37.26c-0.04-2.15-0.24-4.26-1.59-6.15
				c-0.44,14.62-0.88,29.19-0.14,43.75c0.14,2.67-0.29,3.43-3.17,3.18c-4.4-0.39-8.09,1.43-10.63,5.31c4-1.91,8.05-3.5,13.47-3.41
				c-4.74,3.28-8.98,6.01-10.37,11.52c1.79-0.16,1.9-1.3,2.43-2.03c3.58-4.91,7.92-8.32,14.3-9.21
				c15.47-2.18,29.24-9.41,43.45-15.29c0.61-0.25,1.2-0.56,1.98-0.92c0.58,7.53,3.41,14.17,6.22,20.78c0.9,2.12,0.71,3.23-1.4,4.15
				c-16.61,7.26-32.34,16.46-49.57,22.35c-0.29,0.1-0.57,0.19-0.86,0.28c0.97,0.8,1.94,1.6,2.92,2.39
				c10.23-3.57,19.93-8.68,29.68-13.64c2.3-1.17,4.54-2.48,6.83-3.7c0.21-0.12,0.52-0.06,1.36-0.13
				c-0.32,10.86-1.86,21.37-3.49,31.86c-0.56,3.61-1.11,7.22-1.71,10.83c0.23,0.17,0.47,0.35,0.71,0.52
				c0.01,0.01,0.02,0.01,0.03,0.02c2.55,1.88,5.15,3.76,7.75,5.6c2.03,1.45,4.08,2.9,6.11,4.33c0.47,0.33,0.94,0.66,1.41,0.99
				c5.01,3.48,10.08,6.92,15.17,10.31c2.69,1.76,5.38,3.55,8.1,5.29c-0.41-1.02-0.7-2.47-0.98-4.41c-3.82-26.75-7.06-53.55-8-80.59
				c-0.17-5.05-0.21-5.05,5.47-7.18c-0.49,10.76-2.78,20.99-2.47,31.35c0.37,0.03,0.74,0.06,1.11,0.1
				c0.63-5.99,1.3-11.97,1.89-17.96c0.4-4.07,0.7-8.16,1.05-12.24c0.11-1.36,0.13-3.19,1.85-3.13c2.16,0.06,1.07,2.09,1.17,3.23
				c0.2,2.16,0.19,4.31-0.6,6.45c-0.52,1.41-1.27,3.19,0.95,4.21c0.91,0.41,0.6,1.43,0.61,2.2c0.36,20.05,4.73,39.51,8.5,59.07
				c0.59,3.08,1.2,6.15,1.81,9.23c1.14,5.8,0.56,6.99-4.67,9.66c-2.08,1.06-3.62,1.72-4.78,1.87c1.85,1.19,3.72,2.39,5.6,3.57
				c-0.03-2.16,0.72-3.3,2.69-4.16c4.21-1.85,5.67-5,4.6-9.61c-1.43-6.25-2.53-12.57-3.71-18.87c-2.5-13.37-5.15-26.72-6.73-40.53
				c4.71,2.21,9.39,2.21,13.85,1.03c9.61-2.55,19.1-5.54,28.61-8.42c2.24-0.68,4.28-1.88,5.76-3.76c0.34-0.43,0.7-0.82,1.08-1.19
				c1.17-1.14,2.54-2.01,3.95-2.89c11.28-6.99,19.24-15.84,16.53-30.45c-0.18-1,0.58-1.45,1.09-2.05
				c3.72-4.36,7.44-8.72,11.17-13.08c5.59-6.54,11.19-13.06,16.78-19.6C297.25,264.55,298.24,263.67,297.51,262.25z M180.64,239.84
				c8.04,2.01,13.05,7,15.34,14.82c3,10.19,5.32,20.56,7.29,31c0.24,1.23,1.83,3.34-1.41,3.42c-2.07,0.04-4.11,0.66-3.99-2.7
				c0.21-6.32-2.04-12.01-5-17.46c-0.19-0.35-0.36-0.73-0.63-1.01c-0.16-0.16-0.49-0.16-0.8-0.25c-1.24,1.58,0.03,2.87,0.65,4.05
				c2.35,4.44,3.31,9.17,3.68,14.12c0.17,2.2,0.17,3.86-2,4.23c-0.29,0.05-0.62,0.08-1,0.08c-1.33,0.01-2.25,1.54-4.14,1.26
				c0.04-1.7,0.08-3.4,0.08-5.11c0.03-5.71-0.25-11.42-1.61-17.06c-1.28-5.33-3.41-10.06-7.82-13.48c-1.76-1.37-2.76-2.57-0.66-4.5
				c1.59-1.45,0.72-2.87-0.24-4.34c-2.4-3.67-5.82-6.45-8.3-10.15C173.43,238.58,177.13,238.97,180.64,239.84z M178.92,279.03
				c-0.15-0.52-0.3-1.04-0.45-1.56c-0.16-0.55-0.32-1.09-0.49-1.64c-0.33-1.09-0.68-2.18-1.04-3.26c-0.17-0.52-0.34-1.04-0.52-1.55
				c-0.01-0.05-0.03-0.08-0.04-0.12c-0.01-0.03-0.02-0.06-0.03-0.09c-0.02-0.06-0.04-0.12-0.06-0.18c-0.35-0.98-0.7-1.96-1.05-2.94
				c0,0-0.01-0.01-0.01-0.02c-0.39-1.04-0.78-2.07-1.19-3.11c-0.41-1.02-0.82-2.04-1.24-3.06c-0.04-0.08-0.07-0.17-0.11-0.26
				c-0.38-0.89-0.76-1.81-1.15-2.7c-0.02-0.04-0.03-0.07-0.05-0.11c0-0.01-0.01-0.01-0.01-0.02c-0.04-0.09-0.08-0.18-0.12-0.28
				c-0.33-0.75-0.67-1.5-1.01-2.25c-0.16-0.36-0.33-0.71-0.49-1.06c-0.17-0.35-0.33-0.7-0.5-1.06c-0.01-0.04-0.03-0.08-0.05-0.12
				c-0.37-0.79-0.75-1.59-1.14-2.38c-0.31-0.64-0.62-1.27-0.94-1.91c-0.02-0.04-0.04-0.07-0.05-0.11c-0.39-0.78-0.78-1.56-1.18-2.34
				c-0.41-0.82-0.83-1.63-1.26-2.44c-0.52-1.01-1.06-2.02-1.6-3.02c-0.03-0.06-0.06-0.12-0.09-0.17c-0.51-0.95-1.03-1.9-1.55-2.84
				c-0.55-1-1.1-2-1.67-2.99c-0.38-0.68-0.77-1.37-1.16-2.05c-0.37-0.65-0.74-1.3-1.12-1.95c-0.37-0.65-0.75-1.31-1.13-1.96
				c8.82,3.93,15.01,11.06,20.53,18.84c2.25,3.16-2.28,2.38-2.99,4.58c1.27,0.98,2.42,2,3.46,3.06c0.52,0.52,1.02,1.06,1.49,1.61
				c0.8,0.93,1.52,1.88,2.17,2.86c0.01,0.01,0.01,0.02,0.02,0.03c0,0.01,0.01,0.01,0.01,0.02c0.15,0.21,0.28,0.43,0.42,0.64
				c0.15,0.23,0.29,0.46,0.43,0.7c0.7,1.18,1.3,2.38,1.83,3.62c0.26,0.62,0.5,1.24,0.72,1.87c0.25,0.71,0.48,1.44,0.68,2.17
				c0.16,0.56,0.3,1.12,0.43,1.68c0.15,0.66,0.29,1.32,0.4,1.98c0.12,0.66,0.22,1.33,0.31,2.01c0.08,0.59,0.14,1.18,0.19,1.77
				c0.06,0.58,0.1,1.17,0.14,1.76v0.08c0.03,0.59,0.06,1.18,0.07,1.77c0.02,0.59,0.03,1.19,0.03,1.79c0,0.83-0.01,1.66-0.04,2.49
				v0.11c-0.02,0.59-0.05,1.18-0.08,1.78c-0.02,0.42-0.05,0.84-0.07,1.26c-0.05,0.69-0.1,1.38-0.16,2.08
				c-0.07,0.86-0.14,1.72-0.23,2.58c-0.21,2.17-2.18,2.84-3.76,3.61c-0.1-0.77-0.2-1.53-0.32-2.29c-0.11-0.71-0.22-1.42-0.34-2.13
				c-0.11-0.71-0.24-1.41-0.37-2.12c-0.11-0.59-0.23-1.19-0.35-1.78c-0.08-0.41-0.16-0.82-0.25-1.23c-0.12-0.56-0.24-1.12-0.37-1.68
				c-0.29-1.31-0.61-2.6-0.94-3.89c-0.16-0.62-0.33-1.23-0.5-1.85c-0.01-0.05-0.03-0.09-0.04-0.14
				C178.93,279.09,178.92,279.06,178.92,279.03z M153.61,148.77c-0.2,9.83-11.88,22.65-21.21,23.08
				C142.63,166.65,150.06,159.48,153.61,148.77z M150.9,161.97c-1.38,4.94-3.97,7.65-8.52,9.3
				C145.34,168.18,148.19,165.9,150.9,161.97z M113.87,189.37c0.04,7.28,1.64,14.87-4.22,20.99
				C113.12,203.77,112.48,196.37,113.87,189.37z M80.03,200.14c4.93-5.57,11.26-9.95,14.38-17.04c-1.02,4.7-3.36,8.54-6.73,11.57
				c-6,5.42-11.03,11.34-12.21,19.75C74.47,209.93,76.13,204.55,80.03,200.14z M91.3,228.56c-0.11-0.2-0.22-0.41-0.32-0.62
				c-0.03-0.05-0.05-0.11-0.08-0.16c-0.06-0.14-0.11-0.28-0.17-0.42c0-0.01-0.01-0.02-0.01-0.03c-0.07-0.18-0.14-0.37-0.2-0.56
				c-0.01-0.03-0.02-0.05-0.03-0.08c0,0,0-0.01,0-0.02c-0.04-0.09-0.06-0.19-0.09-0.29s-0.05-0.2-0.08-0.3
				c-0.03-0.09-0.05-0.19-0.07-0.29c-0.04-0.16-0.08-0.32-0.1-0.49c-0.01-0.04-0.02-0.08-0.02-0.13c-0.03-0.13-0.05-0.26-0.07-0.39
				c-0.01-0.09-0.02-0.17-0.03-0.26c-0.03-0.25-0.06-0.5-0.07-0.76c-0.02-0.29-0.03-0.58-0.03-0.88c0-0.26,0.01-0.52,0.02-0.78
				c0.02-0.24,0.04-0.47,0.06-0.71c0.02-0.24,0.05-0.48,0.08-0.72c0.04-0.28,0.08-0.56,0.14-0.84c0.05-0.26,0.1-0.53,0.17-0.8
				c0-0.03,0.01-0.06,0.02-0.1c0.04-0.19,0.09-0.38,0.15-0.58c0.08-0.3,0.17-0.6,0.26-0.9c0.03-0.1,0.06-0.19,0.09-0.28
				c0.08-0.26,0.17-0.51,0.27-0.77c0.24-0.66,0.52-1.31,0.82-1.96c0.13-0.28,0.26-0.55,0.4-0.82c0.06-0.11,0.12-0.22,0.17-0.33
				c0.15-0.28,0.31-0.56,0.47-0.84c0.02-0.03,0.03-0.06,0.05-0.08c0.2-0.35,0.41-0.7,0.63-1.05c0.01-0.01,0.02-0.02,0.02-0.04
				c0.23-0.33,0.45-0.66,0.68-0.99c0.12-0.17,0.24-0.34,0.37-0.51c0.12-0.18,0.25-0.34,0.38-0.51c0.13-0.17,0.26-0.34,0.39-0.5
				c0.14-0.17,0.27-0.33,0.41-0.5c0.28-0.33,0.56-0.66,0.85-0.98c0.3-0.32,0.6-0.64,0.91-0.95c0.17-0.18,0.34-0.35,0.52-0.52
				c0.35-0.33,0.71-0.67,1.08-0.99c-1.64,4.07-5.05,7.19-6.27,11.53c-0.12,0.44-0.24,0.88-0.35,1.32c-0.11,0.44-0.21,0.88-0.3,1.32
				c-0.07,0.31-0.14,0.63-0.19,0.95c-0.06,0.27-0.11,0.55-0.15,0.82c-0.02,0.09-0.03,0.19-0.04,0.28c-0.03,0.16-0.05,0.31-0.07,0.46
				c-0.11,0.73-0.19,1.46-0.25,2.19c-0.02,0.26-0.04,0.51-0.05,0.77c0,0.05-0.01,0.11-0.01,0.16c-0.08,1.52-0.06,3.06,0.06,4.61
				C91.57,229.02,91.43,228.79,91.3,228.56z M152.51,312.95c-2.62,0.59-1.83-1.9-2.18-2.96c-2.85-8.72-8.45-15.8-13.61-23.14
				c-2.74-3.9-5.28-8.01-8.5-11.48c-3.79-4.07-3.42-8.13-1.62-12.73c2.57-6.59,2.51-6.72-4.56-8.75c-2.15-0.62-3.23-1.43-3.16-3.83
				c0.06-1.88-0.25-3.84-0.77-5.65c-0.27-0.94-0.49-1.86-0.63-2.76c-0.05-0.29-0.09-0.57-0.12-0.85s-0.05-0.56-0.07-0.83
				c-0.01-0.05-0.01-0.11-0.01-0.16c-0.02-0.38-0.02-0.76,0-1.13c0.01-0.15,0.02-0.29,0.03-0.44v-0.01c0-0.05,0.01-0.09,0.01-0.14
				c0-0.03,0.01-0.07,0.01-0.1c0.03-0.23,0.06-0.46,0.11-0.68c0-0.01,0-0.01,0-0.02c0.03-0.16,0.07-0.32,0.11-0.48
				c0-0.02,0.01-0.05,0.02-0.07c0.03-0.13,0.07-0.25,0.11-0.38c0-0.02,0-0.04,0.01-0.06s0.01-0.04,0.02-0.06
				c0.02-0.05,0.03-0.1,0.05-0.15c0.01-0.02,0.01-0.03,0.02-0.05c0.02-0.06,0.05-0.12,0.07-0.18c0.03-0.07,0.06-0.13,0.08-0.19
				c0.02-0.07,0.06-0.15,0.1-0.23c0.04-0.09,0.08-0.2,0.14-0.29c0-0.01,0.01-0.01,0.01-0.02c0.04-0.09,0.09-0.18,0.15-0.27
				c0.05-0.11,0.12-0.21,0.19-0.32c0.03-0.07,0.07-0.12,0.12-0.19c0.02-0.01,0.03-0.03,0.04-0.04c0.05-0.1,0.12-0.2,0.2-0.29
				c0.08-0.11,0.17-0.22,0.26-0.32c0.01-0.01,0.01-0.01,0.02-0.02c0.04-0.06,0.08-0.11,0.14-0.16c0.07-0.09,0.15-0.17,0.23-0.25
				l0.04-0.04c0.11-0.12,0.21-0.22,0.33-0.32c0.16-0.15,0.33-0.3,0.51-0.44c0.04-0.04,0.09-0.07,0.13-0.1
				c0.04-0.03,0.07-0.05,0.11-0.08c0.01,0,0.01-0.01,0.02-0.01c0.13-0.11,0.26-0.2,0.4-0.29c0.22-0.15,0.45-0.29,0.68-0.43
				c0.48-0.27,1-0.54,1.56-0.78c0.28-0.13,0.58-0.24,0.88-0.36c0.36,0.95,0.73,1.89,1.11,2.83c0.1,0.26,0.21,0.51,0.31,0.77
				c0.32,0.78,0.65,1.56,0.98,2.33c0.08,0.18,0.16,0.37,0.23,0.55c0.39,0.89,0.78,1.78,1.18,2.66c0.39,0.88,0.79,1.75,1.2,2.62
				c0.23,0.5,0.47,1,0.71,1.49c0.37,0.81,0.76,1.61,1.15,2.41c0.2,0.42,0.41,0.85,0.62,1.27c0.04,0.09,0.09,0.19,0.14,0.28
				c0.05,0.1,0.1,0.19,0.15,0.29c0.57,1.17,1.15,2.33,1.74,3.49c0.65,1.29,1.3,2.57,1.96,3.86c1.57,3.05,3.15,6.1,4.71,9.17
				c0.4,0.78,0.8,1.57,1.2,2.35c0.64,1.26,1.27,2.53,1.89,3.79c1.02,2.06,2.01,4.12,2.97,6.2c0.48,1.04,0.96,2.08,1.42,3.13
				c4.08,9.19,6.3,18.78,7.9,28.62C156.25,311.53,154.75,312.44,152.51,312.95z M162.21,270.97c-7.22-6.37-14.62-11.77-21.36-17.83
				c-1.13-1.02-2.25-2.06-3.34-3.13c-1.07-1.04-2-2.24-2.89-3.44c-1.52-2.05-1.57-3.44,1.59-3.44c2.58,0,5.13,0.13,7.74,0.77
				c-2.36-2.94-5.61-3.07-8.8-2.47c-2.38,0.46-3.18-0.47-4.33-2.37c-3.61-5.99-5.92-11.54-2.54-18.87
				c2.35-5.11,1.16-11.3,0.17-16.98c-0.45-2.56-1.64-5.3,2.96-4.48c0.56,0.1,1.25-0.49,1.22-1.71c-4.02,0.82-6.83-1.35-9.26-4.08
				c-2.2-2.49-3.8-5.31-3.85-8.8c-0.03-2.94,0.73-5.52,3.61-6.76c2.74-1.19,5.41-0.09,6.99,1.98c2.79,3.67,5.87,2.78,9.03,1.23
				c11.3-5.54,17.09-15.2,19.73-27.06c1.42-6.37,1.29-6.29,6.77-2.86c6.2,3.88,8.27,9.85,8.77,16.65c0.17,2.17,0.24,4.38,0.02,6.54
				c-0.53,5.3,0.74,10.02,4.14,14.12c1.77,2.13,1.88,3.93-1.01,5c-1.84,0.67-2.66,1.77-2.27,3.7c0.68,3.34-1.21,4.02-3.96,3.93
				c-2.12-0.07-4.25-0.02-7.17-0.02c2.27,2.55,4.43,2.41,6.69,2.02c0.92-0.15,1.91-0.44,2.5,0.71c0.48,0.95,0.54,1.86-0.24,2.64
				c-1.17,1.15-1.33,2.46-1.24,4.08c0.27,4.89-1.85,7.01-6.89,6.71c-7.26-0.45-14.38-1.6-20.65-5.72c-0.74-0.49-1.44-1.28-2.94-0.92
				c3.02,3.55,6.75,5.5,10.89,6.63c2.42,0.66,2.96,1.6,2.12,4.02c-1.48,4.31-1.38,8.87-1.32,13.37c0.03,1.45-0.11,3.05,1.54,4.32
				c0.34-2.16-0.79-4.16,0.06-6.51c2.39,2.26,3.67,4.93,4.84,7.74c-1.8,1.07-4.71-0.13-5.39,2.83c0.29,0.12,0.56,0.34,0.7,0.28
				c5.79-2.53,5.92-2.57,7.64,3.37c2.02,7,0.82,13.97,0.04,21.36C162.41,268.66,162.3,269.81,162.21,270.97z M183.89,370.95
				c-2.94,4.33-20.62,6.15-27.01,2.74C166.3,373.08,175.04,373.41,183.89,370.95z M192.9,315.35c-2.33,3.83-6.83,4.76-10.71,6.34
				c-2.78,1.13-5.68,1.92-8.49,2.97c-1.6,0.6-3.46,1.14-2.74,3.81c-2.57-4.16-4-8.25-5.15-12.44c-0.57-2.08-0.67-3.74,2.09-4.77
				c5.47-2.04,9.98-5.9,13.69-10.15c0.56-0.64,1.12-1.23,1.7-1.79c0.5-0.48,1-0.93,1.51-1.35c0.21-0.19,0.44-0.37,0.66-0.54
				c0.04-0.03,0.07-0.06,0.11-0.09c0.04-0.03,0.09-0.07,0.13-0.09c0.16-0.13,0.33-0.26,0.49-0.37c0.02-0.02,0.03-0.03,0.05-0.04
				c0.21-0.16,0.43-0.31,0.64-0.45c0.62-0.43,1.24-0.82,1.88-1.17c0.32-0.19,0.64-0.36,0.96-0.52c0.32-0.17,0.64-0.33,0.97-0.48
				c0.71-0.34,1.44-0.64,2.17-0.91c0.27-0.1,0.54-0.2,0.81-0.29c0.34-0.12,0.68-0.22,1.02-0.32c0.34-0.11,0.68-0.21,1.03-0.3
				c0.28-0.08,0.57-0.15,0.86-0.22c0.35-0.09,0.7-0.17,1.05-0.24c0.36-0.08,0.71-0.15,1.07-0.21c0.35-0.07,0.71-0.14,1.07-0.19
				c0.1-0.02,0.19-0.03,0.29-0.05c0.1-0.01,0.2-0.03,0.3-0.04c0.52-0.08,1.04-0.15,1.57-0.22c0.83-0.1,1.66-0.18,2.5-0.25
				c0.29-0.02,0.58-0.05,0.87-0.06c0.12-0.01,0.25-0.02,0.37-0.03c0.08,0,0.15-0.01,0.23-0.01c0.33-0.02,0.66-0.04,0.99-0.06
				c0.1-0.01,0.2-0.01,0.3-0.02c0.47-0.02,0.94-0.05,1.41-0.06c0.37-0.02,0.74-0.03,1.11-0.04c0.89-0.03,1.79-0.05,2.69-0.07
				c0.59-0.02,1.17-0.03,1.75-0.04c2.01-0.04,4.04,0.4,6.06,0.66c0.15,0.02,0.25,0.4,0.38,0.62c-1.15,1.84-2.3-1.37-3.44-0.01
				c-0.17,0.88,0.42,1.18,1.06,1.46c1.13,0.5,1.42,1.17,0.46,2.14c-0.61,0.62-0.78,1.41-2.2,0.78c-2.92-1.3-5.96-2.69-9.67-2.04
				c2.41,1.56,5.42,1,7.35,2.86c0.7,0.68,2.07,1.25,1.59,2.57c-0.51,1.4-1.84,0.91-2.85,0.76c-0.42-0.06-0.84-0.13-1.26-0.2
				c-0.24-0.03-0.49-0.08-0.73-0.12c-0.02,0-0.05-0.01-0.07-0.01c-0.58-0.11-1.14-0.21-1.71-0.33c-0.03-0.01-0.05-0.01-0.08-0.02
				c-0.39-0.08-0.78-0.17-1.17-0.27c-0.37-0.09-0.73-0.19-1.1-0.29c-0.33-0.09-0.65-0.19-0.98-0.3h-0.01
				c-0.27-0.09-0.54-0.18-0.81-0.28c-0.04-0.01-0.08-0.03-0.12-0.04c-0.02-0.01-0.03-0.01-0.05-0.02s-0.03-0.01-0.05-0.02
				c-0.26-0.09-0.51-0.19-0.77-0.3c-0.31-0.12-0.62-0.25-0.92-0.39c-2.31-1.07-4.62-1.53-7.22-0.8c0.25,0.02,0.5,0.05,0.75,0.09
				c0.02,0,0.04,0.01,0.06,0.01c0.1,0.02,0.2,0.03,0.29,0.05c0.05,0.01,0.11,0.02,0.16,0.03c0.2,0.03,0.38,0.06,0.57,0.11
				c0.03,0,0.06,0.01,0.09,0.02c0.01,0,0.02,0,0.02,0c0.31,0.07,0.62,0.15,0.92,0.24c0.27,0.07,0.53,0.15,0.79,0.24
				c0.38,0.13,0.76,0.26,1.13,0.4c0.37,0.14,0.75,0.29,1.11,0.45c0.37,0.15,0.74,0.31,1.11,0.47c0.7,0.31,1.4,0.62,2.1,0.92
				c0.23,0.1,0.45,0.19,0.68,0.29c0.91,0.38,1.84,0.73,2.79,1.01c0.21,0.06,0.42,0.12,0.64,0.17c0.17,0.05,0.35,0.1,0.52,0.13
				c0.28,0.07,0.56,0.12,0.85,0.17c0.82,0.14,3.11-0.58,2.14,1.69c-0.11,0.26-0.22,0.55-0.33,0.85c-0.04,0.12-0.09,0.24-0.14,0.35
				c-0.05,0.12-0.09,0.24-0.15,0.36c-0.02,0.05-0.04,0.09-0.07,0.14c-0.03,0.07-0.07,0.15-0.11,0.22c-0.04,0.08-0.08,0.15-0.13,0.22
				c-0.04,0.07-0.09,0.14-0.15,0.2c-0.04,0.07-0.1,0.13-0.16,0.18c-0.05,0.07-0.11,0.12-0.17,0.16c-0.04,0.04-0.09,0.07-0.14,0.09
				c-0.02,0.02-0.04,0.03-0.06,0.04c-0.05,0.03-0.1,0.06-0.15,0.07h-0.01c-0.1,0.04-0.19,0.07-0.3,0.09
				c-0.08,0.01-0.17,0.02-0.26,0.02c-0.36,0-0.78-0.11-1.29-0.37c-2.7-1.39-5.54-2.32-8.49-2.82c-1.24-0.21-3.31-0.65-3.47,1.04
				c-0.17,1.67,1.84,0.95,2.89,1.07c2.47,0.26,4.87,0.68,7,2.02c0.67,0.41,1.59,0.72,1.39,1.77c-0.24,1.25-1.26,1.22-2.24,1.19
				c-0.95-0.02-1.91,0.05-2.86-0.04C198.7,309.91,195.38,311.29,192.9,315.35z M193.92,331.46c0.42-4.18,4.07-6.38,5.78-9.75
				c-1.26,0.98-2.52,1.96-4.27,3.32c-0.15-2.77-0.6-5.25-0.36-7.67c0.38-3.8,4.6-6.19,8.55-5.29c2.25,0.5,1.24,1.49,0.55,2.53
				c-1.47,2.25-3.48,4.15-4.26,6.83c0.32-0.31,0.63-0.62,0.93-0.93c0.3-0.3,0.59-0.6,0.88-0.91c0.24-0.26,0.49-0.52,0.73-0.78
				c0.24-0.25,0.47-0.51,0.7-0.77c0.06-0.07,0.12-0.14,0.19-0.21c0.55-0.62,1.09-1.25,1.63-1.89c0.6-0.7,1.18-1.42,1.76-2.14
				c0.59-0.72,1.16-1.44,1.73-2.17c0.57-0.73,1.14-1.46,1.71-2.19c0.5-0.65,0.99-1.29,1.49-1.93c0.04-0.05,0.08-0.1,0.12-0.15
				c0.54-0.7,1.08-1.39,1.62-2.08c0.1-0.13,0.2-0.25,0.3-0.38c0.51-0.64,1.03-1.29,1.56-1.93c0.53-0.64,1.05-1.28,1.59-1.91
				c10.36-12.09,20.62-24.26,31.49-35.92c-1.46,1.94-2.92,3.87-4.41,5.8c-0.6,0.8-1.22,1.59-1.83,2.38
				c-0.61,0.8-1.23,1.59-1.84,2.38c-0.68,0.88-1.36,1.75-2.04,2.62c-0.69,0.88-1.37,1.74-2.06,2.61c-0.55,0.71-1.1,1.41-1.66,2.1
				c-0.55,0.7-1.11,1.4-1.67,2.1c-1.83,2.29-3.67,4.57-5.53,6.85c-1.08,1.34-2.17,2.67-3.26,4c-0.02,0.02-0.04,0.05-0.06,0.07
				c-1.09,1.32-2.17,2.64-3.27,3.95c-1.57,1.9-3.15,3.8-4.74,5.69c-0.28,0.33-0.55,0.66-0.83,0.99c-0.78,0.93-1.57,1.86-2.35,2.79
				c-1.44,1.7-2.87,3.4-4.31,5.09c-1.71,2-3.42,4-5.14,5.99c-1.35,1.59-2.71,3.17-4.08,4.74
				C197.49,327.35,195.71,329.41,193.92,331.46z M233.57,337.98c-1.23-1.29,1.25-1.42,0.19-2.62c-0.38,0.16-1.01,0.35-1.56,0.68
				c-7.09,4.21-14.73,6.96-22.83,8.42c-1.59,0.29-3.25,0.35-4.87,0.33c-5.98-0.07-9.51-4.58-8.29-10.41
				c0.32-1.5,1.45-0.97,2.23-0.98c12.11-0.15,24.22-0.35,36.33-0.24c3,0.03,5.92,0.15,9.87-1.28
				C241.53,336.7,237.21,336.71,233.57,337.98z M245.72,329.95c-0.28-0.01-0.55-0.02-0.81-0.02c-0.19,0-0.37,0-0.55,0.01
				c-0.05,0-0.1,0.01-0.15,0.01c-0.09,0.01-0.17,0.01-0.25,0.02c-0.13,0.01-0.27,0.02-0.4,0.04c-0.13,0.01-0.27,0.03-0.39,0.05
				c-0.05,0-0.1,0.01-0.15,0.02c-0.04,0.01-0.08,0.01-0.12,0.02c-0.17,0.03-0.33,0.07-0.5,0.11c-0.6,0.14-1.19,0.35-1.77,0.61
				c-0.17,0.08-0.34,0.16-0.5,0.25c-0.31,0.15-0.6,0.33-0.91,0.53c-0.13,0.07-0.25,0.16-0.37,0.24c-0.13,0.09-0.27,0.19-0.41,0.29
				c0.97-1.17,1.94-2.33,2.91-3.5c1.11-1.33,2.22-2.65,3.35-3.95c0.48-0.55,1.05-0.53,1.63,0.19c1.65,2.07,1.78,2.09,4.07,2.38
				C249.07,329.13,247.15,330.03,245.72,329.95z M265.7,308.55c-2.25,6.39-5.14,12.45-11.12,16.42c-2.33,1.54-5.02,1.49-6.23-0.44
				c-2.48-4-6.31-6.35-9.53-9.43c-0.83-0.8-2.72-1.66-1.36-3.24c1.23-1.42,2.14,0.27,3.08,0.84c2.91,1.76,5.77,3.61,8.69,5.37
				c0.68,0.4,1.48,0.77,2.55-0.26c-3.65-3.49-8.53-5.07-12.41-8.11c-0.86-0.68-2.5-0.14-1.46-2.07c0.69-1.27,1.23-2.34,3.05-1.31
				c4.15,2.34,8.4,4.52,12.62,6.73c0.55,0.29,1.19,0.39,1.84,0.59c0.55-2.11-1.11-2.19-1.99-2.74c-3.47-2.16-7.02-4.18-10.5-6.33
				c-0.72-0.44-1.96-0.85-1.37-2.11c0.45-0.96,1.48-1.1,2.47-1.14c1.46-0.06,2.57,0.78,3.75,1.44c4,2.25,7.96,4.58,12.7,6.33
				c-1.27-2.54-1.32-2.48-6.92-6.2c-1.52-1.02-4.67-1.74-3.4-4.13c1.36-2.58,3.61-0.07,5.31,0.6c2.65,1.06,5.13,2.53,7.72,3.74
				C265.62,304.23,266.42,306.48,265.7,308.55z M281.09,265.45c1.06-2.82-0.77-2.98-2.51-3c-3.39-0.04-6.79,0.06-10.19,0.07
				c-0.73,0-1.74,0.48-1.94-0.77c-0.18-1.16,0.5-1.92,1.56-1.96c4.21-0.13,8.52-0.7,12.59,0.03
				C282.87,260.23,282.85,263.14,281.09,265.45z"/>
			<path d="M105.11,260.43c-0.65-6.97-8.18-13.38-14.25-12.33C97.64,249.83,101.12,255.42,105.11,260.43z"/>
			<path d="M154.87,336.73c2.37,0.21,2.46-1.55,2.88-3.54c0-0.82,0.16-2.28-1.56-2.3c-1.88-0.02-3.39,0.91-3.76,2.93
				C152.1,335.64,153.05,336.57,154.87,336.73z"/>
			<path d="M150.37,357.48c-2.8,0.63-2.94,2.78-2.85,5.03c0.05,1.13,0.04,3.3,1.42,2.5c1.74-1,3.78-2.64,4.03-5.02
				C153.13,358.51,151.9,357.64,150.37,357.48z"/>
			<path d="M164.92,176.08c-1.75-0.13-3.28,1.07-3.25,2.83c0.03,1.53,0.9,3.37,2.69,3.61c1.89,0.25,2.23-1.5,2.57-3
				C166.49,178.23,166.93,176.23,164.92,176.08z"/>
			<path d="M166.34,172.31c0.92,0.3,1.6-0.19,1.76-1.11c0.13-0.75-0.38-1.19-1.04-1.52c-2.68-1.34-7.55-0.02-10.06,3.21
				c2.11-0.42,3.52-0.77,4.94-0.96C163.43,171.73,164.9,171.84,166.34,172.31z"/>
			<path d="M190.37,249.74c0,4.59,0,9.18,0,13.77c0.36,0,0.72-0.01,1.08-0.01C192.04,258.92,191.89,254.34,190.37,249.74z"/>
		</g>
		<path d="M12.18,205.7c-0.31,1.68-0.36,3.44-0.11,5.17c-4.87,1.4-7.14,4.73-7.06,10.34c0.02,3.51,0.87,7.17,2.75,11.89
			c4.68,11.87,11.76,22.15,18.07,30.64c8.57,11.52,18.14,22.83,29.26,34.57c1.39,1.48,2.79,2.93,4.19,4.38l0.1,0.11
			c0.75,0.78,1.5,1.54,2.26,2.31l0.74,0.76c0.98,1,1.94,1.96,2.9,2.92c1.73,1.73,3.47,3.44,5.22,5.16l0.18,0.18
			c0.92,0.91,1.86,1.81,2.79,2.7c0.03,0.02,0.06,0.05,0.08,0.07c0.14,0.15,0.28,0.28,0.42,0.41c0.12,0.1,0.24,0.22,0.35,0.34
			c0,0,0.09,0.09,0.13,0.12c2.75,2.66,5.66,5.41,8.64,8.18c0.67,0.62,1.34,1.24,2.01,1.86l1.08,0.99c0.73,0.68,1.43,1.33,2.13,1.97
			c0.63,0.57,1.26,1.15,1.9,1.72l0.79,0.72c0.31,0.29,0.63,0.58,0.95,0.86c0.03,0.03,0.06,0.05,0.08,0.07
			c0.54,0.49,1.07,0.97,1.61,1.44c1.99,1.81,4.13,3.71,6.78,6.03c0.19,0.16,0.37,0.32,0.55,0.48c0,0,0.34,0.3,0.37,0.33l0.12,0.11
			c0.03,0.02,1.82,1.57,1.82,1.57c0.27,0.24,0.48,0.43,0.68,0.59c0.05,0.04,0.09,0.08,0.14,0.12c2.89,2.52,5.61,4.85,8.31,7.11
			c1.15,0.98,2.27,1.92,3.4,2.86c1.01,0.85,2.01,1.67,3.02,2.5l0.14,0.12c2.21,1.83,4.44,3.64,6.66,5.44c0,0,0.04,0.04,0.06,0.05
			c2.15,1.74,4.3,3.46,6.46,5.17l0.74,0.58c0.87,0.7,1.75,1.39,2.63,2.08c0.93,0.72,1.83,1.42,2.74,2.12
			c1.23,0.98,2.42,1.89,3.62,2.8c4.21,3.25,7.9,6.03,11.29,8.54c0.83,0.63,1.63,1.23,2.43,1.82c1.76,1.3,3.51,2.59,5.28,3.87
			c0.96,0.7,1.91,1.38,2.86,2.06l0.21,0.16c2.62,1.91,5.25,3.78,7.71,5.52c0.08,0.05,0.97,0.68,0.97,0.68
			c0.69,0.48,1.36,0.96,2.05,1.43c0,0,0.77,0.53,0.83,0.57c3.59,2.53,7.23,5.04,10.84,7.46c2.32,1.59,4.73,3.21,7.4,4.97
			c0.99,0.66,1.95,1.3,2.92,1.91l3.53,2.32c0.59,0.37,1.24,0.79,1.9,1.22l1.22,0.79c4.9,3.12,9.42,5.94,13.84,8.6
			c1.09,0.67,2.14,1.3,3.19,1.93c0.8,0.48,1.59,0.95,2.37,1.41c0.85,0.51,3.19,1.88,3.19,1.88c6.69,3.91,13.02,7.45,19.35,10.83
			c4.04,2.15,7.76,4.08,11.38,5.89c0.64,0.33,1.2,0.61,1.77,0.89l1.21,0.62c3.02,1.49,6.04,2.95,8.91,4.29
			c0.08,0.04,0.17,0.09,0.25,0.13l0.54,0.25c1.05,0.49,2.09,0.97,3.14,1.44c2.2,1,4.48,2,6.8,2.99c10.09,4.27,19.36,7.51,28.34,9.89
			c5.69,1.48,12.44,3.01,19.2,3.01c1.8,0,3.58-0.11,5.28-0.32c7.15-0.92,10.24-4.49,9.99-11.59c-0.15-4.71-1.86-9.31-3.51-13.2
			c-5.23-12.12-12.81-22.9-19.77-31.96c1.07-0.6,2.1-1.37,3.07-2.33c0.27-0.27,0.53-0.57,0.77-0.87
			c7.96,10.36,15.33,21.11,20.54,33.21c2.04,4.81,3.73,9.72,3.9,14.98c0.34,9.72-4.69,15.48-14.36,16.72
			c-9.03,1.13-17.74-0.56-26.38-2.82c-9.98-2.64-19.61-6.13-29.02-10.12c-2.31-0.98-4.61-1.99-6.89-3.03
			c-1.34-0.6-2.67-1.22-4.01-1.84v-0.01c-3.03-1.42-6.05-2.88-9.06-4.37c-0.98-0.5-1.96-0.98-2.94-1.49
			c-3.86-1.93-7.69-3.92-11.5-5.95c-6.6-3.52-13.1-7.17-19.54-10.93c-1.07-0.63-2.14-1.26-3.2-1.89c-0.79-0.47-1.58-0.94-2.38-1.42
			c-1.07-0.64-2.14-1.28-3.21-1.94c-4.69-2.83-9.34-5.73-13.95-8.67c-1.06-0.68-2.11-1.37-3.17-2.04c-0.9-0.59-1.79-1.17-2.68-1.76
			c-0.26-0.17-0.5-0.33-0.76-0.5c-1.02-0.64-2.02-1.31-3.02-1.98c-2.49-1.64-4.97-3.3-7.44-4.99c-3.67-2.47-7.3-4.97-10.92-7.52
			c-0.1-0.06-0.2-0.13-0.29-0.2c-0.16-0.11-0.32-0.22-0.48-0.33c-0.85-0.58-1.67-1.16-2.51-1.75c-0.15-0.11-0.29-0.2-0.44-0.31
			c-0.05-0.03-0.09-0.07-0.14-0.1c-2.59-1.83-5.18-3.67-7.74-5.54c-1.03-0.74-2.06-1.48-3.09-2.23c-1.78-1.29-3.55-2.59-5.32-3.9
			c-0.81-0.6-1.62-1.21-2.43-1.82c-3.81-2.82-7.59-5.69-11.35-8.58c-1.22-0.93-2.43-1.86-3.63-2.81c-0.92-0.71-1.84-1.42-2.76-2.14
			c-0.94-0.73-1.87-1.47-2.8-2.21c-0.2-0.16-0.41-0.32-0.61-0.48c-2.19-1.73-4.37-3.48-6.55-5.24c0-0.01,0-0.01-0.01-0.01
			c-2.24-1.81-4.48-3.64-6.69-5.47c-1.07-0.88-2.13-1.75-3.19-2.64c-1.14-0.95-2.27-1.9-3.41-2.87c-2.81-2.36-5.6-4.75-8.38-7.17
			c-0.26-0.21-0.53-0.45-0.8-0.69c-0.58-0.5-1.15-1-1.73-1.5c-0.1-0.08-0.19-0.17-0.29-0.26c-0.27-0.23-0.54-0.48-0.82-0.71
			c-2.29-2.01-4.57-4.03-6.83-6.08c-0.56-0.49-1.12-0.99-1.68-1.5c-0.55-0.48-1.08-0.98-1.61-1.46c-0.71-0.64-1.42-1.28-2.12-1.92
			c-0.72-0.66-1.44-1.32-2.15-1.99c-1.03-0.95-2.07-1.9-3.1-2.86c-2.93-2.72-5.84-5.47-8.71-8.24c-0.12-0.11-0.23-0.22-0.35-0.33
			c0,0-0.01,0-0.01-0.03c-0.2-0.18-0.4-0.37-0.6-0.57c-0.95-0.91-1.91-1.83-2.85-2.76c-0.04-0.03-0.08-0.07-0.11-0.1
			c-1.78-1.75-3.55-3.49-5.31-5.25c-0.98-0.98-1.96-1.96-2.93-2.96c-1.01-1.03-2.03-2.06-3.03-3.1c-1.45-1.5-2.9-3-4.33-4.52
			c-10.51-11.1-20.47-22.7-29.64-35.03c-7.35-9.89-14.13-20.18-18.7-31.77c-1.75-4.4-3.07-8.86-3.11-13.67
			C-0.11,212.84,4.18,207.42,12.18,205.7z"/>
	</g>
	<g>
		<path class="st1" d="M370.09,135.98c-2.37-0.02-3.21,0.67-3.05,3.06c0.19,2.78,0.22,5.6,0,8.37c-0.2,2.51,0.65,3.16,3.13,3.15
			c20.56-0.1,41.12-0.06,61.68-0.06c0,0.01,0,0.01,0,0.02c5.69,0,11.38,0,17.07,0c15.07,0,30.14-0.04,45.21,0.06
			c2.34,0.01,3.18-0.63,2.99-3.03c-0.21-2.68-0.18-5.39-0.01-8.08c0.16-2.54-0.65-3.5-3.36-3.5c-30.04,0.08-60.09,0.05-90.13,0.05
			C392.45,136.03,381.27,136.09,370.09,135.98z M377.55,146.89c-2.42-0.27-3.71-1.57-3.6-3.53c0.11-1.92,1.42-3.24,3.6-3.12
			c2.13,0.12,3.31,1.3,3.24,3.41C380.72,145.84,379.15,146.59,377.55,146.89z M389.76,146.82c-2.28,0.1-3.25-1.64-3.27-3.48
			c-0.01-1.8,1.1-3.11,3.25-3.11c2.07,0,3.1,1.02,3.38,3.01C392.68,145.06,391.93,146.72,389.76,146.82z M404.87,143.27
			c-0.06,2.2-1.2,3.63-3.44,3.53c-2-0.09-3.27-1.33-3.19-3.48c0.08-2.21,1.52-3.02,3.18-3.16
			C403.77,140.23,404.92,141.19,404.87,143.27z"/>
		<path class="st1" d="M390.94,317.08c-0.82-5.36-5.89-9.97-11.57-10.14c-6.28-0.19-11.66,5.19-11.77,11.78
			c-0.1,6.36,4.77,11.35,11.19,11.44c6.15,0.09,11.23-4.17,12.12-9.82c-0.34-0.31-0.54-0.83-0.52-1.73
			C390.42,317.78,390.63,317.33,390.94,317.08z"/>
		<path class="st1" d="M508.52,320.81c-15.16-0.02-39.43-0.01-53.22-0.01c0-0.01,0-0.02,0-0.03c-10.72,0-31.05-0.01-46.93,0
			c-0.08,2.21-0.76,2.38-4.07,2.75c-4.21,0.46-6.38,4.49-3.9,7.82c0.25,0.34,0.46,0.66,0.63,0.98c15.53,0.05,39.67-0.02,51.13-0.03
			c15.4-0.01,41.44-0.03,58.08,0.03c-1.05-2.62-1.68-5.42-1.78-8.32C508.42,322.91,508.44,321.85,508.52,320.81z"/>
		<path class="st1" d="M401.32,261.34c21.84-0.12,43.69-0.07,65.53-0.07c20.45,0,40.89,0,61.34,0c7.21,0,7.1,0,7.23-7.15
			c0.05-2.79-0.68-3.78-3.66-3.77c-42.09,0.09-84.18,0.04-126.27,0.09c-7.79,0.01-7.42-1.56-7.51,7.56
			C397.95,260.52,398.62,261.36,401.32,261.34z"/>
		<path class="st22" d="M493.7,155.73c-20.55,0.11-41.1,0.06-61.66,0.06c0,0.01,0,0.02,0,0.03c-20.45,0-40.91,0.08-61.36-0.09
			c-3.17-0.03-3.7,0.94-3.67,3.83c0.14,16.55,0.07,33.11,0.07,49.67c0,4.69,0.01,4.72,4.66,4.72c40.51,0.01,81.01,0.01,121.52,0.01
			c3.65,0,3.82-0.16,3.82-3.94c0.01-16.96-0.06-33.91,0.07-50.86C497.17,156.37,496.38,155.71,493.7,155.73z M417.46,174.98
			c-3.7,2.33-7.45,4.59-11.16,6.91c-2.71,1.69-2.71,1.73,0.07,3.57c3.41,2.24,6.85,4.42,10.25,6.68c1.33,0.88,2.76,1.68,1.29,3.75
			c-1.27,1.8-2.43,2.39-4.4,1.05c-5.42-3.7-10.94-7.26-16.34-10.98c-3.16-2.18-3.05-3.03,0.13-5c6.17-3.81,12.32-7.68,18.51-11.47
			c0.77-0.47,1.76-1.54,2.62-0.62c0.84,0.9,1.21,2.23,1.74,3.26C419.72,173.67,418.53,174.3,417.46,174.98z M439.11,167.77
			c-3.23,10.22-6.44,20.45-9.7,30.67c-0.86,2.7-2.19,3.11-4.62,1.64c-0.93-0.56-1.34-1.02-0.92-2.34
			c3.28-10.31,6.39-20.68,9.6-31.02c0.8-2.58,3.49-3.19,5.48-1.38c0.41,0.37,0.59,0.78,0.54,1.5
			C439.41,167.04,439.23,167.4,439.11,167.77z M467.96,185.75c-6.13,4.06-12.37,7.94-18.56,11.9c-2.23,1.42-2.81-0.49-3.83-1.78
			c-1.27-1.6-0.51-2.4,0.89-3.24c4.17-2.51,8.31-5.07,12.44-7.64c0.65-0.4,1.46-0.67,1.72-1.53c-0.05-0.82-0.84-0.76-1.29-1.06
			c-4.13-2.76-8.28-5.48-12.44-8.2c-1.73-1.13-2.5-2.25-1.04-4.32c1.49-2.1,2.78-1.27,4.23-0.24c5.75,4.1,11.66,7.94,17.65,11.67
			C470.2,182.84,470.36,184.16,467.96,185.75z"/>
		<path class="st22" d="M421.6,98.38c-0.02-3.41-0.05-6.82,0.05-10.22c0.06-1.89-0.59-2.37-2.4-2.31
			c-3.99,0.12-7.98,0.04-11.97-0.02c-0.82-0.01-1.92,0.41-2.34-0.74c-0.39-1.06,0.12-1.9,0.87-2.66c3.29-3.34,6.51-6.74,9.83-10.05
			c4.65-4.65,9.36-9.24,14.05-13.86c2.49-2.45,3.64-2.55,6-0.18c7.89,7.91,15.73,15.86,23.59,23.79c0.78,0.79,1.73,1.5,1.12,2.78
			c-0.53,1.12-1.64,0.94-2.63,0.94c-3.59,0.01-7.19,0.12-10.77-0.02c-2.11-0.08-2.74,0.65-2.71,2.73c0.04,3.28,0.05,6.57,0.05,9.85
			c23.62,0.04,57.86-0.01,80.81,0.04c3.63,0.01,7.16-0.37,10.55-1.63c8.96-3.35,13.06-13.13,9.22-22.13
			c-3.6-8.43-10.09-13-19.16-14.14c-2.9-0.37-5.8-0.75-8.58,0.17c-2.41,0.81-3.27,0.02-3.91-2.23
			c-2.97-10.52-9.98-17.44-19.85-21.62c-4.87-2.06-10.06-2.42-15.25-1.78c-1.9,0.23-2.72,0.06-3.46-1.97
			C469.57,19.16,453.84,6.91,438.32,6c-14.01-0.83-25.85,3.4-35.66,13.34c-4.63,4.7-7.47,10.52-9.63,16.67
			c-0.84,2.38-1.76,3.28-4.53,2.53c-12.37-3.35-23.56-0.96-32.83,8.08c-8.58,8.37-11.12,18.79-8.13,30.19
			c2.85,10.86,10.68,17.16,21.2,20.27c3.16,0.93,6.43,1.32,9.74,1.32C388.88,98.39,410.41,98.47,421.6,98.38z"/>
		<path class="st1" d="M437.23,288.11c-2.03-0.02-2.99,1.12-2.99,2.89c0,2.07,1.63,3.02,3.39,2.96c1.55-0.05,2.73-1.12,2.6-3.5
			C440.08,289.15,439.21,288.13,437.23,288.11z"/>
		<path class="st22" d="M535.35,295.86c0.06-7.55-0.04-21.9,0.07-27.12c0.04-1.98-0.37-2.77-2.58-2.77
			c-44.2,0.06-88.41,0.05-132.61-0.01c-1.89,0-2.35,0.57-2.33,2.37c0.07,9.27,0.01,18.55-0.01,27.82c0,0.14,0.02,1.03,0.03,2.29
			c0.59,0.59,1.2,1.16,1.84,1.68c2.38,1.91,2.61,3.84,0.76,6.4c-2.54,3.52-1.47,5.77,2.82,6.57c3.97,0.75,4.72,0.98,4.93,3.84
			c30.47-0.03,75.24-0.03,100.82-0.02C511.81,304.18,523.02,295.43,535.35,295.86z M528.81,285.87c-0.24,4.55-4.43,8.67-9,8.8
			c-1.63,0.05-3.24-0.41-4.49-1.38c-1.8-1.39-3.72-1.63-5.87-1.57c-4.09,0.12-8.18-0.03-12.27,0.1c-2.94,0.09-5.8-0.21-8.43-1.47
			c-3.08-1.47-6.05-1.08-8.93,0.27c-3.41,1.6-6.92,2.39-10.68,2.36c-7.18-0.06-14.36,0.03-21.55-0.03c-1.74-0.02-2.86,0.35-3.8,2.06
			c-2.71,4.94-8.58,5.48-12.06,1.09c-1.29-1.63-2.59-2.06-4.5-2.03c-5.29,0.09-10.57-0.03-15.86,0.05
			c-1.96,0.03-2.95-0.54-3.01-2.66c-0.07-2.23,1.07-2.72,2.96-2.68c2.79,0.05,5.59,0.01,8.38,0.01c1.7,0,3.4-0.08,5.09,0.01
			c2.93,0.16,5.27-0.07,7.38-2.93c2.66-3.62,7.6-3.42,10.7-0.13c1.29,1.37,2.57,1.87,4.41,1.8c7.87-0.29,15.75,0.41,23.61-0.43
			c2.48-0.26,4.89-0.84,7.19-1.85c4.35-1.9,8.65-1.56,13.06-0.08c6.22,2.08,12.65,0.82,19,0.84c1.22,0,1.16-1.04,1.36-1.94
			c1.09-5.08,5.04-7.95,9.95-7.32C525.66,277.32,529.04,281.48,528.81,285.87z"/>
		<path class="st1" d="M545.46,311.5c-3.87,3.74-7.63,7.59-11.34,11.49c-1.42,1.5-2.51,2.02-4.12,0.25
			c-1.33-1.47-2.95-2.68-4.43-4.01c-1.85-1.67-3.61-1.5-5.18,0.35c-1.49,1.76-1.7,3.48,0.2,5.21c3.39,3.08,6.71,6.25,10.05,9.38
			c0.44,0.41,0.87,0.83,1.81,0.74c0.35-0.29,0.91-0.69,1.39-1.16c5.88-5.82,11.71-11.7,17.65-17.47c1.53-1.48,1.69-2.71,0.35-4.35
			C549.62,309.17,548.13,308.93,545.46,311.5z"/>
		<path class="st1" d="M520.1,281.69c-1.74-0.26-3.92,1.9-3.83,3.78c0.1,2.27,1.4,3.78,3.68,3.87c2.22,0.09,3.33-1.38,3.51-2.89
			C523.54,283.47,522.37,282.04,520.1,281.69z"/>
		<path d="M369.8,130.93c-6-0.03-8.05,1.7-8.05,7.61c-0.01,23.84-0.02,47.68-0.02,71.52c0,6.9,1.75,8.68,8.64,8.68
			c41.41,0.01,82.82,0.01,124.23,0c5.6,0,7.49-1.89,7.5-7.55c0.02-17.26,0.01-34.51,0-51.77c0-7.38,0.03-14.76-0.06-22.14
			c-0.05-4.39-1.83-6.1-6.22-6.27c-1-0.04-2-0.02-2.99-0.02c-20.26,0-40.51,0-60.77,0c0-0.01,0-0.02,0-0.03
			C411.31,130.96,390.55,131.02,369.8,130.93z M497.07,210.01c0,3.78-0.17,3.94-3.82,3.94c-40.51,0-81.01-0.01-121.52-0.01
			c-4.64,0-4.66-0.02-4.66-4.72c0-16.56,0.07-33.11-0.07-49.67c-0.02-2.89,0.51-3.85,3.67-3.83c20.45,0.17,40.9,0.09,61.36,0.09
			c0-0.01,0-0.02,0-0.03c20.55,0,41.1,0.05,61.66-0.06c2.68-0.01,3.47,0.65,3.45,3.42C497.01,176.1,497.08,193.06,497.07,210.01z
			 M493.76,135.97c2.71-0.01,3.51,0.95,3.36,3.5c-0.17,2.68-0.2,5.4,0.01,8.08c0.19,2.4-0.65,3.04-2.99,3.03
			c-15.07-0.09-30.14-0.05-45.21-0.06c-5.69,0-11.38,0-17.07,0c0-0.01,0-0.01,0-0.02c-20.56,0-41.12-0.04-61.68,0.06
			c-2.49,0.01-3.33-0.63-3.13-3.15c0.22-2.78,0.19-5.59,0-8.37c-0.16-2.39,0.68-3.08,3.05-3.06c11.18,0.11,22.36,0.05,33.54,0.05
			C433.67,136.03,463.71,136.06,493.76,135.97z"/>
		<path d="M421.61,103.76c0.01,3.68,0.04,7.35-0.04,11.03c-0.04,1.71,0.55,2.23,2.23,2.21c5.98-0.09,11.97-0.13,17.95-0.01
			c2.12,0.05,2.69-0.63,2.66-2.7c-0.05-3.5-0.05-7.01-0.06-10.51c13.14-0.09,35.9-0.04,47.91-0.04c12.58,0,25.15,0.15,37.73-0.04
			c16.57-0.25,26.59-15.37,20.58-30.75c-4.55-11.65-14.56-18.28-28.09-18.21c-2.94,0.02-4.35-0.86-5.6-3.47
			c-6.89-14.34-18.49-21.69-34.33-22.31c-2.13-0.08-3.28-0.66-4.41-2.59c-12.23-20.9-31.49-29.49-54.25-25.36
			c-16.85,3.06-28.21,13.55-35.03,29.04c-0.78,1.78-1.42,2.32-3.38,1.86c-4.82-1.12-9.69-0.92-14.53,0.03
			c-18.2,3.58-33.17,20.36-30.04,42.65c2.25,16.03,17.25,28.85,33.57,29.09C386.2,103.85,409.07,103.72,421.61,103.76z
			 M347.54,76.81c-2.99-11.4-0.46-21.82,8.13-30.19c9.27-9.04,20.46-11.43,32.83-8.08c2.77,0.75,3.69-0.14,4.53-2.53
			c2.16-6.14,5-11.97,9.63-16.67C412.47,9.4,424.31,5.17,438.32,6c15.52,0.92,31.25,13.16,36.39,27.11c0.75,2.03,1.57,2.2,3.46,1.97
			c5.19-0.63,10.38-0.28,15.25,1.78c9.87,4.18,16.88,11.11,19.85,21.62c0.64,2.25,1.5,3.04,3.91,2.23c2.77-0.93,5.68-0.54,8.58-0.17
			c9.07,1.14,15.56,5.71,19.16,14.14c3.84,9-0.26,18.78-9.22,22.13c-3.39,1.26-6.92,1.64-10.55,1.63c-22.95-0.05-57.19,0-80.81-0.04
			c0-3.28-0.01-6.57-0.05-9.85c-0.03-2.08,0.61-2.81,2.71-2.73c3.59,0.14,7.18,0.03,10.77,0.02c0.99,0,2.09,0.18,2.63-0.94
			c0.61-1.28-0.34-1.99-1.12-2.78c-7.87-7.93-15.71-15.88-23.59-23.79c-2.36-2.36-3.51-2.27-6,0.18c-4.69,4.62-9.4,9.21-14.05,13.86
			c-3.31,3.31-6.54,6.71-9.83,10.05c-0.76,0.77-1.26,1.61-0.87,2.66c0.43,1.15,1.53,0.73,2.34,0.74c3.99,0.06,7.98,0.14,11.97,0.02
			c1.8-0.05,2.45,0.42,2.4,2.31c-0.1,3.4-0.07,6.81-0.05,10.22c-11.19,0.09-32.72,0-43.11,0.01c-3.31,0-6.59-0.39-9.74-1.32
			C358.23,93.97,350.39,87.67,347.54,76.81z"/>
		<path d="M540.63,296.17c-0.07-11.93-0.01-32.8-0.05-43.29c-0.02-5.62-1.96-7.48-7.61-7.48c-44.1,0.02-88.21,0.05-132.31,0.07
			c-5.9,0-8.32,2.39-8.33,8.31v43.95c-3.71,2.45-6.48,1.14-7.34-3.45c-0.41-2.23-1.43-3.4-3.81-3.14c-0.89,0.1-1.81,0.08-2.69-0.03
			c-2.91-0.38-4.34,0.76-4.89,3.75c-0.77,4.16-4.07,5.25-7.59,2.82c-0.87-0.6-1.75-1.92-2.78-1.43c-2.63,1.27-4.81,3.23-6.27,5.79
			c-1.2,2.11,0.82,3.25,1.79,4.6c1.9,2.64,1.33,4.88-1.66,6.14c-1.14,0.48-2.32,0.56-3.52,0.53c-1.11-0.03-2.19,0.4-2.4,1.41
			c-0.52,2.45-0.63,5.02,0.02,7.41c0.51,1.87,2.7,1.37,4.16,1.75c4.27,1.12,5.57,4.13,2.93,7.59c-1.6,2.1-1.98,3.95,0.19,5.69
			c5.11,4.09,4.54,4.66,7.88,2.11c3.1-2.36,5.89-1.39,6.81,2.34c1.12,4.54,1.12,4.54,5.71,4.54c0.5,0,1-0.05,1.5-0.01
			c2.64,0.2,4.17-0.74,4.22-3.66c0.04-1.99,0.82-3.58,3.01-4.31c2.16-0.73,3.73-0.06,5.01,1.55c1.37,1.73,2.69,1.66,4.2,0.24
			c0.87-0.82,1.84-1.52,2.77-2.29c0.16-0.13,0.31-0.27,0.46-0.4c16.65,0.05,43.18,0.03,56.22,0.04c14.9,0,41.23,0.01,56.66,0
			c5.09,7.47,13.97,12.51,23.71,12.4c15.25-0.17,28.51-13.62,27.63-28.48C563.49,308.63,553.44,298.05,540.63,296.17z
			 M390.92,320.34c-0.9,5.65-5.97,9.91-12.12,9.82c-6.42-0.09-11.29-5.08-11.19-11.44c0.11-6.59,5.49-11.97,11.77-11.78
			c5.67,0.17,10.75,4.78,11.57,10.14c-0.32,0.24-0.53,0.7-0.55,1.53C390.38,319.51,390.58,320.03,390.92,320.34z M405.49,250.44
			c42.09-0.05,84.18,0.01,126.27-0.09c2.99-0.01,3.71,0.98,3.66,3.77c-0.13,7.15-0.02,7.15-7.23,7.15c-20.45,0-40.89,0-61.34,0
			c-21.84,0-43.69-0.05-65.53,0.07c-2.7,0.02-3.37-0.82-3.34-3.34C398.07,248.88,397.7,250.45,405.49,250.44z M452.16,332.28
			c-11.47,0.01-35.6,0.08-51.13,0.03c-0.17-0.31-0.38-0.64-0.63-0.98c-2.48-3.33-0.31-7.36,3.9-7.82c3.31-0.37,3.99-0.53,4.07-2.75
			c15.89-0.01,36.22,0,46.93,0c0,0.01,0,0.02,0,0.03c13.8,0,38.06-0.01,53.22,0.01c-0.08,1.04-0.1,2.1-0.07,3.19
			c0.1,2.9,0.73,5.7,1.78,8.32C493.6,332.25,467.56,332.27,452.16,332.28z M509.08,316.93c-25.57-0.01-70.35-0.01-100.82,0.02
			c-0.21-2.86-0.96-3.09-4.93-3.84c-4.29-0.81-5.36-3.05-2.82-6.57c1.85-2.56,1.62-4.5-0.76-6.4c-0.65-0.52-1.25-1.1-1.84-1.68
			c-0.02-1.26-0.04-2.15-0.03-2.29c0.02-9.27,0.08-18.55,0.01-27.82c-0.01-1.81,0.45-2.38,2.33-2.37
			c44.2,0.06,88.41,0.07,132.61,0.01c2.21,0,2.62,0.79,2.58,2.77c-0.1,5.22-0.01,19.57-0.07,27.12
			C523.02,295.43,511.81,304.18,509.08,316.93z M551.51,316.28c-5.94,5.77-11.77,11.64-17.65,17.47c-0.48,0.48-1.04,0.87-1.39,1.16
			c-0.94,0.09-1.37-0.32-1.81-0.74c-3.35-3.13-6.66-6.3-10.05-9.38c-1.9-1.73-1.7-3.45-0.2-5.21c1.57-1.85,3.33-2.02,5.18-0.35
			c1.48,1.33,3.1,2.54,4.43,4.01c1.61,1.77,2.7,1.25,4.12-0.25c3.7-3.9,7.47-7.76,11.34-11.49c2.66-2.57,4.15-2.33,6.39,0.43
			C553.19,313.58,553.03,314.8,551.51,316.28z"/>
		<path d="M521.42,276.77c-4.91-0.63-8.86,2.24-9.95,7.32c-0.19,0.9-0.14,1.95-1.36,1.94c-6.34-0.02-12.78,1.24-19-0.84
			c-4.42-1.48-8.72-1.82-13.06,0.08c-2.29,1-4.71,1.58-7.19,1.85c-7.85,0.84-15.74,0.14-23.61,0.43c-1.84,0.07-3.12-0.43-4.41-1.8
			c-3.1-3.29-8.04-3.49-10.7,0.13c-2.1,2.86-4.45,3.09-7.38,2.93c-1.69-0.09-3.39-0.02-5.09-0.01c-2.79,0-5.59,0.04-8.38-0.01
			c-1.89-0.04-3.03,0.45-2.96,2.68c0.07,2.12,1.05,2.69,3.01,2.66c5.29-0.08,10.57,0.04,15.86-0.05c1.91-0.03,3.21,0.4,4.5,2.03
			c3.48,4.4,9.35,3.85,12.06-1.09c0.94-1.71,2.05-2.08,3.8-2.06c7.18,0.06,14.36-0.03,21.55,0.03c3.76,0.03,7.27-0.76,10.68-2.36
			c2.88-1.35,5.85-1.75,8.93-0.27c2.64,1.26,5.49,1.56,8.43,1.47c4.09-0.13,8.18,0.02,12.27-0.1c2.16-0.06,4.07,0.18,5.87,1.57
			c1.25,0.96,2.86,1.42,4.49,1.38c4.57-0.13,8.75-4.25,9-8.8C529.04,281.48,525.66,277.32,521.42,276.77z M437.63,293.97
			c-1.76,0.06-3.39-0.89-3.39-2.96c0-1.77,0.96-2.91,2.99-2.89c1.99,0.02,2.85,1.05,3,2.36
			C440.36,292.84,439.18,293.91,437.63,293.97z M523.46,286.46c-0.18,1.51-1.29,2.98-3.51,2.89c-2.28-0.09-3.57-1.6-3.68-3.87
			c-0.09-1.89,2.1-4.05,3.83-3.78C522.37,282.04,523.54,283.47,523.46,286.46z"/>
		<path d="M467.73,181.3c-5.99-3.73-11.9-7.57-17.65-11.67c-1.45-1.03-2.74-1.86-4.23,0.24c-1.47,2.07-0.7,3.19,1.04,4.32
			c4.16,2.71,8.31,5.44,12.44,8.2c0.45,0.3,1.24,0.24,1.29,1.06c-0.26,0.86-1.07,1.13-1.72,1.53c-4.13,2.57-8.27,5.13-12.44,7.64
			c-1.4,0.84-2.16,1.64-0.89,3.24c1.02,1.29,1.6,3.2,3.83,1.78c6.19-3.96,12.44-7.84,18.56-11.9
			C470.36,184.16,470.2,182.84,467.73,181.3z"/>
		<path d="M415.81,169.49c-6.19,3.79-12.33,7.65-18.51,11.47c-3.18,1.96-3.29,2.82-0.13,5c5.4,3.73,10.92,7.28,16.34,10.98
			c1.97,1.34,3.12,0.75,4.4-1.05c1.46-2.07,0.04-2.87-1.29-3.75c-3.4-2.25-6.85-4.43-10.25-6.68c-2.78-1.83-2.78-1.88-0.07-3.57
			c3.71-2.32,7.46-4.58,11.16-6.91c1.08-0.68,2.27-1.31,2.72-2.85c-0.52-1.03-0.9-2.37-1.74-3.26
			C417.57,167.95,416.58,169.02,415.81,169.49z"/>
		<path d="M433.48,166.73c-3.22,10.33-6.33,20.7-9.6,31.02c-0.42,1.32-0.01,1.77,0.92,2.34c2.43,1.47,3.76,1.06,4.62-1.64
			c3.25-10.22,6.46-20.45,9.7-30.67c0.12-0.37,0.3-0.73,0.38-0.93c0.05-0.72-0.13-1.13-0.54-1.5
			C436.97,163.54,434.28,164.15,433.48,166.73z"/>
		<path d="M377.56,140.25c-2.18-0.12-3.49,1.19-3.6,3.12c-0.11,1.96,1.18,3.26,3.6,3.53c1.6-0.3,3.17-1.05,3.25-3.23
			C380.87,141.55,379.69,140.37,377.56,140.25z"/>
		<path d="M398.24,143.32c-0.08,2.15,1.19,3.39,3.19,3.48c2.24,0.1,3.38-1.33,3.44-3.53c0.05-2.08-1.1-3.04-3.45-3.11
			C399.76,140.3,398.32,141.11,398.24,143.32z"/>
		<path d="M389.74,140.22c-2.15,0-3.26,1.31-3.25,3.11c0.01,1.85,0.99,3.58,3.27,3.48c2.17-0.09,2.92-1.75,3.36-3.59
			C392.84,141.24,391.82,140.22,389.74,140.22z"/>
	</g>
</g>
</svg>
