<?xml version="1.0" encoding="utf-8"?>
<!-- Generator: Adobe Illustrator 25.0.0, SVG Export Plug-In . SVG Version: 6.00 Build 0)  -->
<svg version="1.1" id="Layer_1" xmlns="http://www.w3.org/2000/svg" xmlns:xlink="http://www.w3.org/1999/xlink" x="0px" y="0px"
	 viewBox="0 0 564.27 478" style="enable-background:new 0 0 564.27 478;" xml:space="preserve">
<style type="text/css">
	.st0{fill:#001135;}
	.st1{fill:#FFFFFF;}
	.st2{fill:#3C7CFF;}
	.st3{fill:#185AE9;}
	.st4{fill:#00B0FB;}
	.st5{fill-rule:evenodd;clip-rule:evenodd;fill:#00B0FB;}
	.st6{fill:#061639;}
	.st7{fill:#1429FF;}
	.st8{fill:#663398;}
	.st9{fill:#FEFEFE;}
	.st10{fill:#8DB849;}
	.st11{fill:#5A863E;}
	.st12{fill:#FFFFFE;}
	.st13{fill-rule:evenodd;clip-rule:evenodd;fill:#7FC728;}
	.st14{fill:#B3B3B3;}
	.st15{fill:#A6120D;}
	.st16{fill:#DD1B16;}
	.st17{fill:#F2F2F2;}
	.st18{fill:#8F9ED1;}
	.st19{fill:#030303;}
	.st20{fill:#0E0E0D;}
	.st21{fill:#8F8F90;}
	.st22{fill:#DBDBDB;}
	.st23{fill:#FDFDFD;}
	.st24{fill:#FDFCFD;}
	.st25{fill:#010101;}
	.st26{fill:#FCB415;}
	.st27{opacity:0.2;fill:#FFFFFF;enable-background:new    ;}
	.st28{fill:#68B345;}
	.st29{fill:#0A99D6;}
	.st30{opacity:0.1;fill:#010101;enable-background:new    ;}
	.st31{fill:#EE3325;}
	.st32{fill:url(#SVGID_1_);}
	.st33{fill:#FF2D20;}
	.st34{clip-path:url(#SVGID_2_);fill:#F9C638;}
	.st35{fill:#2A2D2C;}
	.st36{fill:#F9C638;}
	.st37{fill:#833CF7;}
	.st38{fill:none;}
	.st39{fill:#0A0A0A;}
	.st40{fill:#050505;}
	.st41{fill:#2A2A2A;}
	.st42{fill:#000100;}
	.st43{fill:#FBFBFB;}
	.st44{fill:#070707;}
	.st45{fill:#080808;}
	.st46{fill:#F7F7F7;}
	.st47{fill:#0B0B0B;}
	.st48{fill:#F1F0F1;}
	.st49{fill:#F4F4F4;}
	.st50{fill:#0C0C0C;}
	.st51{fill:#ECECEC;}
	.st52{fill:#252525;}
	.st53{fill:#D5D5D5;}
	.st54{fill:#3F3F3F;}
	.st55{fill:#818181;}
	.st56{fill:#A2A2A2;}
	.st57{fill:#040404;}
	.st58{fill:#151515;}
	.st59{fill:#343434;}
	.st60{fill:#4B4B4B;}
	.st61{fill:#0D0D0D;}
	.st62{fill:#00D8FF;}
	.st63{fill:#4DBA87;}
	.st64{fill:#425466;}
	.st65{fill:url(#SVGID_3_);}
	.st66{fill:url(#SVGID_4_);}
	.st67{fill:#14559A;}
	.st68{fill:url(#SVGID_6_);}
	.st69{fill:#3092C4;}
	.st70{fill:#1969BC;}
	.st71{fill:url(#SVGID_7_);}
	.st72{fill:url(#SVGID_8_);}
	.st73{fill:url(#SVGID_9_);}
	.st74{fill:#2B74B1;}
	.st75{fill:#125A9E;}
	.st76{fill:url(#SVGID_10_);}
	.st77{fill:url(#SVGID_11_);}
	.st78{fill:#0D82CA;}
	.st79{fill:url(#SVGID_12_);}
	.st80{fill:#127BCA;}
	.st81{fill:url(#SVGID_13_);}
	.st82{fill:url(#SVGID_14_);}
	.st83{fill:#05A1E6;}
	.st84{fill:url(#SVGID_15_);}
	.st85{fill:url(#SVGID_16_);}
	.st86{fill:url(#SVGID_17_);}
	.st87{fill:#079AE1;}
	.st88{fill:#1E5CB3;}
	.st89{fill:#1D60B5;}
	.st90{fill:#175FAB;}
	.st91{fill:url(#SVGID_18_);}
	.st92{fill:#7DCBEC;}
	.st93{fill:#5EC5ED;}
	.st94{fill:url(#SVGID_19_);}
	.st95{fill:url(#SVGID_20_);}
	.st96{fill:url(#SVGID_21_);}
	.st97{fill:#6EB341;}
	.st98{fill:#F6F6F6;}
	.st99{fill:#060606;}
	.st100{fill:#101010;}
	.st101{fill:url(#SVGID_22_);}
	.st102{fill:url(#SVGID_23_);}
	.st103{fill:url(#SVGID_24_);}
	.st104{fill:url(#SVGID_25_);}
	.st105{fill:url(#SVGID_26_);}
	.st106{fill:url(#SVGID_27_);}
	.st107{fill:url(#SVGID_28_);}
	.st108{fill:url(#SVGID_29_);}
	.st109{fill:url(#SVGID_30_);}
	.st110{fill:url(#SVGID_31_);}
	.st111{fill:url(#SVGID_32_);}
	.st112{fill:url(#SVGID_33_);}
	.st113{fill:url(#SVGID_34_);}
	.st114{fill:url(#SVGID_35_);}
	.st115{fill:url(#SVGID_36_);}
	.st116{fill:url(#SVGID_37_);}
	.st117{fill:url(#SVGID_38_);}
	.st118{fill:url(#SVGID_39_);}
	.st119{fill-rule:evenodd;clip-rule:evenodd;fill:#5382A1;}
	.st120{fill-rule:evenodd;clip-rule:evenodd;fill:#E76F00;}
</style>
<g>
	<g>
		<g>
			<g>
				<path d="M217.21,460.92c0.17-5.26,1.86-10.17,3.9-14.98c5.48-12.72,13.33-23.95,21.76-34.8c4.88-6.28,9.96-12.38,15.2-18.33
					c1.52-1.73,3.06-3.45,4.61-5.15c2.36-2.61,4.77-5.19,7.2-7.74c1.74-1.83,3.49-3.65,5.26-5.45c6.01-6.14,12.18-12.14,18.46-18.02
					c0.89-0.84,1.79-1.67,2.7-2.51c0.68-0.64,1.37-1.28,2.06-1.91c4.12-3.8,8.29-7.56,12.48-11.27c0.26-0.24,0.52-0.47,0.79-0.7
					c4.23-3.75,8.5-7.46,12.81-11.12c0.59-0.5,1.19-1.01,1.79-1.51c0.57-0.49,1.15-0.98,1.74-1.46c0.17-0.15,0.35-0.29,0.52-0.43
					c10.51-8.84,21.23-17.43,32.15-25.73c1.07-0.81,2.14-1.62,3.22-2.44c0.15-0.11,0.3-0.23,0.45-0.34
					c3.47-2.62,6.97-5.2,10.48-7.77c3.23-2.35,6.47-4.68,9.73-6.97c1.17-0.84,2.35-1.67,3.53-2.49
					c11.53-8.07,23.28-15.85,35.24-23.33c1.83-1.15,3.67-2.29,5.51-3.42c1.12-0.69,2.24-1.38,3.36-2.06
					c5.73-3.49,11.51-6.91,17.35-10.22c1.54-0.88,3.09-1.75,4.65-2.61c14.94-8.3,30.27-15.85,46.2-22.2
					c13.97-5.54,28.14-10.4,43.57-11.02c2.2,0.23,4.58,0.17,6.9,0.51c8.81,1.41,13.56,6.95,13.44,15.82
					c-0.04,4.81-1.36,9.27-3.11,13.67c-4.57,11.59-11.35,21.88-18.7,31.77c-9.17,12.33-19.13,23.93-29.64,35.03
					c-1.43,1.52-2.88,3.02-4.33,4.52c-1,1.04-2.02,2.07-3.03,3.1c-0.97,1-1.95,1.98-2.93,2.96c-1.76,1.76-3.53,3.5-5.31,5.25
					c-0.03,0.03-0.07,0.07-0.11,0.1c-0.94,0.93-1.9,1.85-2.85,2.76c-0.2,0.2-0.4,0.39-0.6,0.57c0,0.03-0.01,0.03-0.01,0.03
					c-0.12,0.11-0.23,0.22-0.35,0.33c-2.87,2.77-5.78,5.52-8.71,8.24c-1.03,0.96-2.07,1.91-3.1,2.86c-0.71,0.67-1.43,1.33-2.15,1.99
					c-0.7,0.64-1.41,1.28-2.12,1.92c-0.53,0.48-1.06,0.98-1.61,1.46c-0.56,0.51-1.12,1.01-1.68,1.5c-2.26,2.05-4.54,4.07-6.83,6.08
					c-0.28,0.23-0.55,0.48-0.82,0.71c-0.1,0.09-0.19,0.18-0.29,0.26c-0.58,0.5-1.15,1-1.73,1.5c-0.27,0.24-0.54,0.48-0.8,0.69
					c-2.78,2.42-5.57,4.81-8.38,7.17c-1.14,0.97-2.27,1.92-3.41,2.87c-1.06,0.89-2.12,1.76-3.19,2.64
					c-2.21,1.83-4.45,3.66-6.69,5.47c-0.01,0-0.01,0-0.01,0.01c-2.18,1.76-4.36,3.51-6.55,5.24c-0.2,0.16-0.41,0.32-0.61,0.48
					c-0.93,0.74-1.86,1.48-2.8,2.21c-0.92,0.72-1.84,1.43-2.76,2.14c-1.2,0.95-2.41,1.88-3.63,2.81c-3.76,2.89-7.54,5.76-11.35,8.58
					c-0.81,0.61-1.62,1.22-2.43,1.82c-1.77,1.31-3.54,2.61-5.32,3.9c-1.03,0.75-2.06,1.49-3.09,2.23c-2.56,1.87-5.15,3.71-7.74,5.54
					c-0.05,0.03-0.09,0.07-0.14,0.1c-0.15,0.11-0.29,0.2-0.44,0.31c-0.84,0.59-1.66,1.17-2.51,1.75c-0.16,0.11-0.32,0.22-0.48,0.33
					c-0.09,0.07-0.19,0.14-0.29,0.2c-3.62,2.55-7.25,5.05-10.92,7.52c-2.47,1.69-4.95,3.35-7.44,4.99c-1,0.67-2,1.34-3.02,1.98
					c-0.26,0.17-0.5,0.33-0.76,0.5c-0.89,0.59-1.78,1.17-2.68,1.76c-1.06,0.67-2.11,1.36-3.17,2.04c-4.61,2.94-9.26,5.84-13.95,8.67
					c-1.07,0.66-2.14,1.3-3.21,1.94c-0.8,0.48-1.59,0.95-2.38,1.42c-1.06,0.63-2.13,1.26-3.2,1.89
					c-6.44,3.76-12.94,7.41-19.54,10.93c-3.81,2.03-7.64,4.02-11.5,5.95c-0.98,0.51-1.96,0.99-2.94,1.49
					c-3.01,1.49-6.03,2.95-9.06,4.37v0.01c-1.34,0.62-2.67,1.24-4.01,1.84c-2.28,1.04-4.58,2.05-6.89,3.03
					c-9.41,3.99-19.04,7.48-29.02,10.12c-8.64,2.26-17.35,3.95-26.38,2.82C221.9,476.4,216.87,470.64,217.21,460.92z"/>
				<g>
					<path class="st1" d="M438.56,288.64c-1.71-0.03-3.42-0.17-5.13-0.29c-0.85-0.06-1.95-0.11-1.85-1.27c0.1-1.12,1.2-0.99,2.05-1
						c1.5-0.01,3-0.02,4.5-0.02c4.05,0,8.11,0,12.11,0c0.65-2.53,1.09-4.48,1.65-6.39c3.41-11.7,6.86-23.4,10.27-35.1
						c1.06-3.61-0.08-5.06-3.88-5.09c-20.58-0.17-41.16-0.33-61.73-0.5c-4.61-0.04-5.87,1.01-7.01,5.44
						c-1.58,6.14-3.31,12.25-5.45,18.23c-0.72,2.03-1.88,2.11-3.61,1.58c0.04-0.46,0.03-0.82,0.11-1.16
						c1.87-7.77,3.71-15.54,5.66-23.29c0.77-3.05,3.88-5.24,7.1-5.2c22.07,0.3,44.15,0.61,66.22,0.94c5.01,0.07,7.34,3.19,5.88,7.96
						c-3.87,12.61-7.8,25.21-11.71,37.81c-0.41,1.31-1.22,2.51-1.22,4.03c4.6-0.19,9.06-0.19,13.24-2.28
						c2.23-1.11,4.74-1.62,7.23-1.86c3.58-0.34,7.15-0.33,10.5,1.33c-1.63,0.19-3.26,0.11-4.87,0.21c-1.56,0.1-3.13,0.33-4.66,0.63
						c-1.51,0.29-3.08,0.49-4.69,1.39c8.44,1.52,15.39,5.11,20.83,11.44c0.12,0.19,0.58,0.28,0.32,0.57
						c-0.18,0.2-0.52,0.11-0.62-0.25c-0.25-0.12-0.52-0.22-0.76-0.37c-9.24-5.98-19.13-9.34-30.36-8.28
						C452,288.46,445.28,288.78,438.56,288.64z"/>
					<path class="st22" d="M338.93,227.83c1.21-5.11,2.23-10.27,3.39-15.64c1.55,1.18,2.87,2.15,4.16,3.15
						c3.17,2.46,6.53,4.58,10.25,6.13c1.81,0.75,3.53,0.87,5.4,0.22c3.44-1.19,6.82-2.52,10.16-3.96c4.36-1.87,8.53-4.14,13.16-6.48
						c-0.37,1.07-0.59,1.72-0.83,2.36c-2.52,6.82-5.17,13.6-7.55,20.47c-4.1,11.81-5.64,24.15-7.2,36.47
						c-0.14,1.12-0.5,1.89-1.42,2.65c-2.2,1.84-3.38,4.32-2.89,7.21c0.27,1.55-0.16,2.8-0.47,4.24c-0.74,3.46-0.78,7.04-1.63,10.51
						c-0.23,0.91,0.63,1.89,0.25,2.92c-1.07,2.98-0.34,5.63,1.62,7.99c0.72,0.86,0.85,1.69,0.55,2.75
						c-0.74,2.61-1.39,5.23-2.07,7.86c-1.48,5.71,2.44,10.82,8.4,10.94c0.91,0.02,1.83,0,2.8,0c0.1,0.72,0.22,1.27,0.26,1.84
						c0.66,9.05,1.65,18.06,3.08,27.02c1.25,7.81,2.48,15.64,5.23,23.13c2.15,5.85,6.29,9.15,12.29,10.37
						c2.24,0.46,4.49,0.73,6.76,1.08c-3.59,0.61-7.16,0.4-10.72-0.33c-5.12-1.06-8.75-3.94-10.92-8.72
						c-1.48-3.26-2.59-6.64-3.46-10.1c-2.37-9.45-3.51-19.08-4.36-28.76c-0.17-1.91-0.68-3.03-2.67-3.66
						c-2.98-0.94-5.8-2.4-8.75-3.45c-5.3-1.89-10.4-4.33-15.82-5.89c-0.16-0.05-0.42-0.17-0.46-0.12c-0.16,0.21,0.03,0.3,0.21,0.37
						c0.08-0.08,0.16-0.16,0.25-0.25c-0.08,0.08-0.16,0.16-0.25,0.25c2.25,2.14,4.92,3.58,7.65,4.97c2.13,1.08,4.29,2.12,6.31,3.42
						c-7.23,0-14.27,0-21.37,0c-0.06-0.72-0.13-1.2-0.14-1.69c-0.03-11.07-0.13-22.15-0.47-33.22c-0.4-13.5-0.54-27-1.15-40.49
						C335.98,251.42,336.16,239.56,338.93,227.83z"/>
					<path class="st1" d="M385.35,69.65c-8.63-8.03-17.2-16.09-28.58-20.15C370.37,50.38,378.32,59.38,385.35,69.65z"/>
					<path class="st1" d="M412.25,73.11c-3.34-8.91-12.33-22.16-26.42-28.57c-0.16-0.05-0.45-0.18-0.46-0.15
						c-0.13,0.23,0.01,0.33,0.24,0.36c2.73,2.82,5.65,5.47,7.81,8.92c-1.06,0.46-1.41-0.26-1.84-0.62
						c-4.09-3.36-8.48-6.27-13.27-8.54c-5.62-2.68-11.45-3.91-17.65-2.4c-0.67,0.16-1.34,0.28-2.01,0.8
						c13.28-0.78,23.61,5.37,33.12,13.42c4.77,4.02,8.63,8.9,12.69,14.05c-1.35-5.13-4.02-9.33-5.93-13.92
						C404.09,61.21,408.15,67.18,412.25,73.11z M393.57,54.59c-0.05-0.05-0.14-0.1-0.13-0.14c0.02-0.1,0.08-0.19,0.13-0.29
						c0.05,0.05,0.09,0.1,0.15,0.16C393.67,54.41,393.62,54.5,393.57,54.59z M397.86,56.12c-0.13-0.19-0.43-0.39-0.18-0.62
						c0.31-0.28,0.37,0.11,0.5,0.27c0.2,0.14,0.59,0.24,0.29,0.57C398.2,56.65,398.01,56.36,397.86,56.12z"/>
					<path class="st1" d="M421.91,105.71c1.18-13.28-1.11-26.06-5.77-38.51C423.96,79.18,425.61,92.05,421.91,105.71z"/>
					<path class="st1" d="M397.06,277.31c-1.26,0.16-2.35,0.03-3.46-0.67c-1.85-1.15-3.92-1.65-6.12-1.64
						c-3.24,0.02-6.44-0.33-9.36-1.84c-2.32-1.2-3.77-3.12-4.29-5.77c1.27-0.41,2.37-0.25,3.35,0.04c2.74,0.8,5.48,0.59,8.27,0.47
						c12.09-0.5,22.64,2.84,29.28,13.63c3.23,5.26,7.65,7.72,13.33,8.4c3.19,0.38,4.42,1.91,4.92,4.93
						c1.44,8.75,0.76,17.35-1.19,25.93c-1.21,5.33-1.15,5.34-6.49,6.37c-0.37,0.07-0.74,0.13-1.2,0.21l-0.3-0.8
						c0.15-0.01,0.3-0.02,0.47-0.05c5.53-0.91,5.66-0.97,6.86-6.49c0.3-1.38,0.59-2.77,0.92-4.36c-6.55-1.37-12.79-3.53-19.31-4.13
						c-4.11-0.38-8.22,0.81-12.31,1.38c-5.04,0.69-10.09,0.92-15.16,1.07c-0.42,0.01-0.88,0.01-1.27-0.14
						c-6.05-2.2-11.36-5.61-16.09-9.93c-1.09-0.99-1.17-1.84-1.02-3.74c4.39,2.96,8.94,5.43,13.58,7.74
						c1.13,0.56,2.32,1.16,3.52,0.13c0.07-0.98-0.74-1.01-1.23-1.32c-4.01-2.46-8.05-4.89-12.03-7.4c-1.01-0.64-1.92-1.48-2.77-2.35
						c-1.33-1.36-1.49-2.85-0.11-4.48c4.68,2.75,9.55,5.09,14.43,7.43c1.22,0.58,2.45,1.15,3.96-0.13c-2.08-1.2-4.03-2.32-5.97-3.44
						c-3.46-1.99-7.11-3.66-10.34-6.04c-2.32-1.71-2.54-3.35-0.83-5.81c6.29,2.34,12.22,5.76,19.02,6.63
						c-0.34-1.48-1.48-1.75-2.46-2.19c-4.81-2.17-9.66-4.24-14.43-6.49c-2.87-1.35-3.23-3.57-1.21-6.02
						c1.03-1.25,2.17-1.43,3.77-0.83c5.14,1.92,10.34,3.71,15.8,4.51c3.88,0.57,7.39-0.88,11.13-2.05
						C399.33,277.09,399.23,277.03,397.06,277.31z"/>
					<path class="st1" d="M372.4,323.82c-2.76,0.09-4.88-2-4.81-4.63c0.07-2.53,0.92-4.89,1.91-7.19c0.21-0.5,0.51-1.13,1.23-0.96
						c0.85,0.19,0.78,0.93,0.71,1.56c-0.14,1.35-0.36,2.68-0.51,4.03c-0.32,2.83,1.05,4.36,3.85,4.34c2.86-0.03,5.71-0.06,8.57-0.07
						c9.21-0.04,18.42-0.08,27.64-0.07c0.78,0,1.68-0.14,2.38,0.47c-0.34,0.57-0.81,0.43-1.2,0.49c-4.53,0.69-9.1,0.76-13.66,0.98
						C389.81,323.19,381.1,323.53,372.4,323.82z"/>
					<path class="st1" d="M425.19,196.22c-1.63,3.38-3.21,6.71-4.84,10c-3.42,6.9-6.84,13.81-10.34,20.67
						c-0.79,1.55-1.35,3.36-3.16,4.17c-0.18,0.13-0.38,0.21-0.51-0.03c-0.02-0.03,0.01-0.08,0.05-0.14
						c0.04-0.06,0.09-0.13,0.12-0.18h0c0.8-3.98,3.04-7.36,4.68-10.98c3.46-7.65,7.13-15.2,10.76-22.89
						c-4.45-3.31-8.9-6.62-13.77-10.25c5.43-1.63,10.44-3.13,15.67-4.69c-0.2-3.32-1.05-6.56-1.56-9.84
						c-0.34-2.18-0.91-4.34-1.1-6.53c-0.09-0.98-0.25-1.92-0.48-2.82l2.41,0.75c1.23,6.83,2.42,13.41,3.64,20.14
						c-4.38,1.25-8.66,2.48-13.36,3.82C417.46,190.44,421.24,193.27,425.19,196.22z"/>
					<path class="st1" d="M400.32,95.42c-1.79-6.17-10.17-10.11-15.53-8.1c-2.66,1-5.17,2.4-7.77,3.56
						c-1.1,0.49-2.26,0.88-3.41,1.25c-1.17,0.39-2.06,0.24-2.42-1.2c-0.32-1.25-0.08-1.95,1.25-2.42c3.09-1.08,6.14-2.3,9.19-3.52
						c1.74-0.7,3.53-0.94,5.47-1.03c-2.41-0.9-4.84-1.76-7.25-2.64c-0.69-0.25-1.38-0.5-2.06-0.76c-0.35-0.13-0.69-0.26-1.03-0.39
						c-0.68-0.26-1.37-0.53-2.04-0.8c-0.34-0.14-0.68-0.28-1.02-0.42c-6.4-2.66-12.45-5.96-17.4-11.31
						c-0.22-0.21-0.44-0.42-0.66-0.63c-0.03-0.18-0.07-0.4-0.31-0.25c-0.01,0-0.02,0.03-0.02,0.06c0.01,0.11,0.06,0.3,0.08,0.43
						c0.2,0.23,0.39,0.47,0.59,0.7c0.73,1.32,1.55,2.54,2.46,3.68c2.71,3.39,6.17,6,10.14,8.05c-2.12,0.25-6.76-1.43-10.49-3.59
						c-0.57-0.33-1.12-0.67-1.64-1.02c-0.26-0.17-0.51-0.35-0.75-0.52c-3.95-2.88-6.58-6.8-8.99-11.23
						c-3.31,4.8-5.52,9.85-6.81,15.29c-0.79,3.32-1.51,6.68-1.46,10.13c0,0.11-0.06,0.29-0.11,0.46c-0.02,0.07-0.04,0.14-0.05,0.21
						c-0.01,0.07-0.01,0.13,0,0.19c0.01,0.07,0.05,0.13,0.12,0.17c0.03,0.02,0.07,0.04,0.13,0.05c0.12,0.02,0.29,0,0.53-0.06
						c2.99-3.68,4.42-4.16,8.89-2.82c2.11,0.63,4.21,1.34,6.29,2.09c0.86,0.31,1.76,0.68,2.45,1.26c0.81,0.67,1.63,1.7,1.07,2.76
						c-0.53,0.99-1.69,0.55-2.53,0.23c-2.67-1.02-5.35-2.01-7.92-3.22c-2.73-1.28-5.3-1.49-7.88,0.23
						c-0.49,0.46-1.13,0.73-1.09,1.65c0.37,8.41,0.17,16.89,2.35,25.11c2.43,9.19,7.39,16.95,14.04,23.67
						c1.31,1.32,2.68,2.58,3.96,3.92c3.71,3.87,8.45,5.17,13.16,3.33c14.38-5.61,25.84-14.44,29.41-30.5
						C402.9,110.11,402.41,102.64,400.32,95.42z M367.13,117.3c0.88-0.78,2-0.56,3.09,0.56c-0.1,0.1-0.19,0.27-0.29,0.28
						c-1.11,0.1-2.22,0.17-3.58,0.27C366.58,117.92,366.84,117.55,367.13,117.3z M358.27,114.58c2.18-6.14,3-12.29,1.12-18.66
						c1.28,1.6,2.15,3.28,2.34,5.24c0.39,4.08,0.18,8.13-1.02,12.06c-0.5,1.64-0.2,2.87,0.9,4.09c0.68,0.75,1.6,1.37,1.81,2.52
						C360,120.08,357.27,117.39,358.27,114.58z M350.18,102.2c-3.09,0.25-4.07-1.87-4.48-4.53c-1.41,1.44-1.41,1.44-1.48,2.67
						c-2.78-1.33-3.03-1.56-4.32-4.27c1.98,0.46,2.97-1.05,4.34-1.67c6.45-2.9,11.11-0.19,13.15,6.73
						c-1.22-1.09-2.26-2.01-3.43-3.05C353.65,100.51,352.53,102.02,350.18,102.2z M379.37,126.83c-0.6,0.78-1.45,1.19-2.37,1.34
						c-4.9,0.82-9.75,2.07-14.8,1.55c-1.3-0.13-2.62-0.02-3.93-0.02c5,4.34,10.35,3.32,16.07,1.15c-3.79,5.91-12.06,6.59-15.68,0.92
						c-1.01-1.58-2.12-2.94-3.76-3.88c-0.56-0.32-0.99-0.85-0.34-1.74c1.27,0.72,2.62,0.76,3.99,0.1c1.94-0.92,3.95-1.24,5.99-0.39
						c0.7,0.28,1.24,0.08,1.82-0.22c1.39-0.73,2.84-0.64,4.37-0.51c2.63,0.21,5.21,1.83,7.92,0.35c0.38-0.2,0.68,0.03,0.88,0.37
						C379.74,126.21,379.6,126.53,379.37,126.83z M388.62,98.97c0.84-2.41,0.61-2.76-1.73-3.11c-0.03,2.81-0.86,4.27-2.74,4.63
						c-0.98,0.18-1.98,0.14-2.94-0.26c-1.59-0.67-2-2.21-2.57-3.68c-1.58,1.08-2.61,2.57-4.04,3.61c0.34-2.3,1.85-3.86,2.94-5.64
						c0.23-0.06,0.47-0.12,0.79-0.2c-0.41-0.36-0.73-0.23-1.04-0.08c-0.23,0.08-0.45,0.17-0.85,0.33c-0.13,0.05-0.28,0.11-0.45,0.18
						c0.78-1.5,1.82-2.04,2.94-2.38c3.23-0.98,6.47-1.01,9.63,0.26c1.76,0.71,3.5,1.37,5.73,0.9
						C392.81,95.98,390.86,97.41,388.62,98.97z"/>
					<path class="st1" d="M399.38,174.97c-0.53,1.57-1.27,2.25-2.99,2.35c-4.63,0.27-9.25,0.73-13.87,1.19
						c-4.12,0.41-6.73,2.81-7.09,6.74c6.55-5.45,14.67-4.25,21.98-6.29c0.08,0.41,0.17,0.56,0.13,0.67
						c-3.33,8.65-6.67,17.3-10.01,25.95c-0.21,0.53-0.47,0.97-1.02,1.3c-8.05,4.64-16.25,8.92-25.18,11.66
						c-1.32,0.41-2.49,0.31-3.73-0.23c-5.11-2.19-9.52-5.45-13.71-9.03c-0.54-0.46-0.79-0.91-0.6-1.66
						c2.1-8.08,3.88-16.23,6.54-24.16c0.4-1.21,0.95-1.68,2.28-1.58c3.36,0.24,6.78-0.14,10.01,1.39
						c-1.95-5.49-7.04-2.99-10.64-4.33c2.18-5.76,4.42-11.3,8.38-16.5c0.15,4.28-0.08,8.01-0.29,11.75
						c3.72-5.85,3.56-12.35,3.06-19.19c5.07,2.36,9.57,1.31,13.86-1.34c5.81-3.58,11.1-7.85,15.62-12.94
						c1.92-2.16,3.92-3.28,6.94-3.09c0.08,1.81,0.19,3.65,0.25,5.49c0.18,5.61,1.2,10.95,4.97,15.38c0.78,0.92,0.38,1.77,0.09,2.59
						C402.72,165.72,400.96,170.31,399.38,174.97z"/>
					<path class="st1" d="M241.32,232.58c3.54-1.2,3.81-1.56,3.87-5.2c0.01-0.48,0.12-0.86,0.45-1.14c0.87-0.75,1.17-1.76,1.42-2.81
						c0.11-0.48,0.06-1.07,0.74-1.12c0.77-0.06,0.88,0.56,1.05,1.11c0.58,1.83,1.06,3.71,1.79,5.48c1.93,4.67,5.49,7.26,11.07,8.05
						c-6.5-3.93-9.97-9-9.66-16.33c0.6-0.03,0.89-0.01,1.16-0.07c0.69-0.15,1.76,0.5,1.98-0.65c0.21-1.1-0.94-1.16-1.59-1.37
						c-2.71-0.89-5.42-1.77-8.3-1.98c-2.5-0.18-4.96-0.65-7.18-1.92c-1.12-0.64-2.22-1.33-2.11-3.27c4.49-0.16,8.58-2.75,13.29-1.93
						c2.88,0.5,5.79,0.85,8.69,1.21c1.81,0.23,3.32,0.96,4.27,2.52c3.11,5.06,5.99,10.32,7.45,16.05c1.22,4.79,3.19,9.11,5.59,13.32
						c0.61,1.08,0.76,2.06,0.39,3.25c-1.96,6.35-4.81,12.2-9.41,17.09c-3.17,3.37-6.75,6.07-11.39,6.99
						c2.55-1.25,5.09-2.46,7.37-4.47c-2.45-5.05-4.9-10.08-7.33-15.09c0.65-0.57,1.8-0.55,1.69-1.87
						c-8.42-0.14-14.04-5.5-20.26-10.76C239.6,237.04,241.64,235.75,241.32,232.58z"/>
					<path class="st1" d="M241.08,226.75c0.74,0.38,1.65,0.8,1.26,1.91c-0.37,1.05-1.35,0.98-2.17,0.87
						c-5.44-0.78-10.21-3.05-14.15-6.87c-1.96-1.9-1.65-3.99,0.73-6C230.93,220.99,235.86,224.07,241.08,226.75z"/>
					<path class="st1" d="M320.53,198.7c0.08-1.08,0.5-1.6,1.42-2.09c3.45-1.83,6.86-3.76,10.53-5.78
						c-2.47-1.52-4.69-2.89-7.12-4.39c4.47-5.64,8.9-11.22,13.32-16.78h1.96l0,0c-0.49,0.63-0.98,1.27-1.47,1.91
						c-3.54,4.64-6.97,9.37-10.53,14.16c2.68,1.57,5.38,3.04,7.98,5.16c-4.19,2.36-8.25,4.68-12.35,6.92
						c-0.95,0.52-1.53,1.03-1.6,2.22c-0.69,10.91-1.52,21.8-1.41,32.75c0.1,10.92,2.82,21.33,5.78,31.7c0.83,2.92,1.78,5.8,2.7,8.8
						c-1.03,0.08-1.05-0.78-1.31-1.34c-7.25-15.94-10.87-32.54-9.52-50.15C319.51,214.09,319.93,206.39,320.53,198.7z"/>
					<path class="st1" d="M328.13,381.65c0.99-2.76,1.66-5.6,2.17-8.48c1.9-10.69,2.88-21.48,3.82-32.28
						c0.09-1.06,0.1-2.15,1.22-2.75c0.97,1.14,0.98,1.14,0.95,2.84c-0.2,9.43-0.79,18.83-2.22,28.15c-0.86,5.63-1.76,11.3-4.82,16.3
						c-2.2,3.6-4.48,4.58-8.86,3.75C325.04,388.73,326.78,385.41,328.13,381.65z"/>
					<path class="st1" d="M236.75,231.67c0.73,0.24,1.68,0.51,1.55,1.48c-0.13,1.02-1.08,1.17-1.98,1.26
						c-3.63,0.35-6.92-0.72-9.94-2.59c-2.35-1.45-2.51-2.96-0.6-5.55C229.3,228.51,232.88,230.39,236.75,231.67z"/>
					<path class="st1" d="M223.27,186.08c7.75,4.13,14.93,9.19,22.42,13.74c3.6,2.19,6.8,4.85,10.23,7.79
						c-5.02-0.16-9.67-2.85-14.52,0.27c-0.8-2.24-2.26-3.5-3.64-4.84c-3.51-3.38-7.58-6.05-11.35-9.1c-1.99-1.61-4.12-3.1-5.46-5.37
						c-0.57-0.97-0.99-2.1-0.16-2.98C221.64,184.69,222.52,185.68,223.27,186.08z"/>
					<path class="st1" d="M236.99,208.04c-1.16,0.79-2.54,0.24-3.75,0.67c-0.18,0.82,0.23,1.54,0.14,2.33
						c-0.4,3.26,0.67,5.09,3.65,6.41c1.36,0.6,2.79,1.07,4.2,1.57c1.56,0.55,2.43,1.75,2.82,3.25c0.35,1.36-0.7,2.45-1.83,1.9
						c-5.68-2.75-11.04-5.98-14.91-11.14c-1.8-2.41-1.04-4.79,1.8-5.7c2.29-0.74,4.69-1,7.05-1.24
						C236.55,206.77,237.04,207.3,236.99,208.04z"/>
					<path class="st1" d="M447.75,226.47c-0.22,1.26-0.14,2.71-1.4,3.66c-4.57-9.54,10.11-44.29,19.4-45.96
						c-3.14,4.37-6,8.86-8.42,13.61C452.7,206.86,449.51,216.42,447.75,226.47z"/>
					<path class="st1" d="M415.43,107.19c-0.34,9.62-3.76,16.78-10,21.22c-0.06,0.17-0.13,0.41-0.35,0.25
						c-0.08-0.06-0.01-0.34-0.01-0.52C409.35,121.57,412.87,114.62,415.43,107.19z"/>
					<path class="st1" d="M418,317.69c1.31,2.61,2.71,5.18,4.05,7.78c0.17,0.33,0.35,0.58,0.57,0.76l0.8,1.27
						c1.19,1.52,2.01,2.87,4.1,2.88c5.24,0.05,10.48-0.03,15.7-0.23c0.11,0.83,0.29,1.93,0.44,2.83
						c-5.44,0.43-10.93,0.51-16.43,0.32c-2.17-0.07-3.79-0.89-5.14-2.57c-3.4-4.25-5.53-9.1-7.14-14.27
						C416.55,315.82,417.37,316.43,418,317.69z"/>
					<path class="st1" d="M393.69,246.76c-0.03-1.37,0.84-2.01,2.07-2.22c1.21,0.11,1.91,0.73,1.86,1.92c-0.05,1.23-0.8,2.02-2,2.1
						C394.47,248.63,393.72,247.95,393.69,246.76z"/>
					<path d="M500.71,285.34c-4.5-21.22-9.32-42.36-14.24-63.48c-2.18-9.32-4.37-18.64-6.57-27.95c-1.14-4.86-2.63-9.63-5.1-14.03
						c-0.87-1.54-2-2.68-3.63-3.47c-8.99-4.36-18.65-6.66-28.16-9.45c-6.61-1.94-13.26-3.74-20.27-5.71l-3.09-1.42
						c-0.73-1.46-1.71-2.82-2.96-4.09c-2.34-2.38-4.31-5.14-6.39-7.77c-1.96-2.47-4.3-4.37-7.37-5.11
						c-0.08-0.21-0.16-0.34-0.17-0.48c-0.61-5.36-0.62-5.37,4.23-7.61c1.82-0.85,3.44-2.02,4.99-3.14c0.61,0.22,0.12,0.69,0.57,1.04
						c10.95-5.77,17.35-15.04,20.06-27.64c0.81,1.47,0.04,2.25,0.05,3.06c0.01,0.91-0.25,1.83-0.42,2.74
						c-0.48,2.46-1.24,4.83-2.06,7.19c-0.22,0.63-0.68,1.24-0.26,1.93c-0.08-0.13-0.18-0.21-0.37-0.09c-0.02,0.01,0,0.08,0,0.13
						c0.12,0,0.25-0.01,0.38-0.01c0.01,0.02,0.02,0.04,0.03,0.06l-0.01-0.05c2.84-4.22,5.24-8.64,6.3-13.69
						c1.36-6.49,0.93-12.94-0.49-19.33c-3.05-13.73-8.5-26.31-18.05-36.85c-8.6-9.49-19.54-14.29-32.12-15.69
						c-6.58-0.73-13.08-0.65-19.54,1.14c-6.44,1.79-11.88,5.16-16.52,9.85c-1.27,1.29-2.63,2.31-4.19,3.22
						c-8.3,4.85-13.24,12.42-16.38,21.23c-3.98,11.19-4.89,22.83-4.41,34.62c0.3,7.22,1.19,14.35,3.17,21.33
						c1.05,3.65,2.55,7.11,4.37,10.43c0.32,0.58,0.45,1.4,1.57,1.57c-2.48-5.73-3.83-11.59-4.14-17.71
						c3.09,7.45,5.66,15.23,13.93,18.87c-0.49-0.77-0.99-1.53-1.48-2.29c-0.1-0.14-0.21-0.28-0.31-0.42
						c-0.01-0.12-0.07-0.3-0.07-0.4c0-0.04,0.01-0.07,0.03-0.08c0.2-0.16,0.28,0.05,0.33,0.22c0.17,0.12,0.34,0.23,0.51,0.35
						c2.07,1.09,3.97,2.55,6.38,2.9c0.63,0.09,0.89,0.65,1.29,1.06c2.35,2.39,4.68,4.81,7.11,7.12c1.83,1.75,1.84,3.44-0.12,4.93
						c-4.88,3.71-9.03,8.1-12.89,12.76l-3.2,0.93c-0.02-0.03-0.04-0.06-0.06-0.08c-6.29,2.45-12.58,4.87-18.86,7.35
						c-4.04,1.6-8,3.44-12.09,4.91c-6.38,2.28-9.37,7.15-10.64,13.38c-2.16,10.55-4.2,21.13-6.34,31.69
						c-1.75,8.6-3.52,17.2-5.4,25.77c-0.36,1.6-0.11,2.83,0.72,4.18c3.53,5.7,7.06,11.41,10.45,17.2c1.53,2.62,3.05,5.34,2.69,8.74
						c-1.66-0.35-2.12-1.72-2.76-2.81c-6.5-11-12.4-22.32-18.14-33.73c-1.22-2.43-2.42-4.79-4.78-6.45
						c-1.36-0.96-1.69-2.8-2.04-4.38c-1.46-6.48-4.37-12.35-7.43-18.17c-1.39-2.64-3.3-4.75-5.92-6.31c-1.5-0.9-2.72-2.29-4-3.53
						c-4.29-4.18-9.56-6.97-14.54-10.15c-5.89-3.76-11.74-7.6-17.99-10.77c-1.84-0.93-3.61-1.43-5.33,0.18
						c-1.54,1.44-1.92,3.7-0.97,5.94c0.88,2.1,2.38,3.71,4.12,5.11c1.83,1.48,3.7,2.93,5.55,4.38c1.79,1.41,3.59,2.8,5.67,4.43
						c-1.66,0.47-3,0.81-4.32,1.24c-4.58,1.49-6.17,4.5-4.74,9.1c0.28,0.89,0.09,1.42-0.45,2.08c-1.96,2.37-2.4,5.01-0.98,7.77
						c0.48,0.94,0.16,1.6-0.19,2.39c-1.95,4.49-0.99,7.23,3.33,9.57c0.06,0.03,0.12,0.07,0.19,0.09c4.71,1.13,7.93,4.47,11.43,7.49
						c3.92,3.39,8.15,6.42,13.2,8.05c1.82,0.59,2.49,2.45,1.71,4.24c-1.95,4.42-3.52,8.9-2.98,13.85c0.16,1.53,0.62,2.93,1.3,4.27
						c6.41,12.69,13.39,25.04,21.4,36.8c7.49,11,18.97,13.06,29.88,5.37c7.32-5.16,7.37-5.16,7.38-14.03
						c0.01-6.99,0.52-14.05-1.16-20.92c-1.17-4.77-2.72-9.45-4.14-14.16c-3.7-12.26-3.79-24.57-0.79-37
						c1.28-5.33,2.23-10.75,3.34-16.13c0.14-0.66,0.15-1.4,0.94-1.96c0.82,1.06,0.74,2.28,0.79,3.44c0.23,4.78-0.89,9.37-2.15,13.91
						c-3.74,13.42-2.7,26.64,1.86,39.59c4.12,11.7,4.9,23.69,4.26,35.9c-0.61,11.63-1.38,23.25-3.73,34.68
						c-0.37,1.82-0.75,3.64-1.13,5.45c-2.57,12.37-5.27,24.7-7.89,37.05c-0.13,0.61-0.21,1.24-0.31,1.88
						c2.26,1.34,4.63,2.13,6.98,2.94c1.17,0.4,1.65,1.03,1.61,2.33c-0.09,3.49-0.03,6.99-0.03,10.64h91.91
						c1.27-0.9,2.53-1.8,3.78-2.72c1.03-0.74,2.06-1.48,3.09-2.23c1.78-1.29,3.55-2.59,5.32-3.9c0.81-0.6,1.62-1.21,2.43-1.82
						c3.81-2.82,7.59-5.69,11.35-8.58c1.22-0.93,2.43-1.86,3.63-2.81c0.92-0.71,1.84-1.42,2.76-2.14c0.94-0.73,1.87-1.47,2.8-2.21
						c0.2-0.16,0.41-0.32,0.61-0.48c2.19-1.73,4.37-3.48,6.55-5.24c0-0.01,0-0.01,0.01-0.01c2.24-1.81,4.48-3.64,6.69-5.47
						c1.07-0.88,2.13-1.75,3.19-2.64c0.85-0.71,1.7-1.43,2.56-2.15c-3.23-10.27-6.75-20.4-8.47-23.67l-0.68-2.72
						c14.05-0.6,28.03-2.07,41.94-4.42c0.81-0.14,1.58-0.3,2.31-0.49c1.33-1.26,2.65-2.53,3.97-3.8c0.12-0.11,0.23-0.22,0.35-0.33
						c0,0,0.01,0,0.01-0.03c0.2-0.18,0.4-0.37,0.6-0.57c0.95-0.91,1.91-1.83,2.85-2.76c0.04-0.03,0.08-0.07,0.11-0.1
						c1.49-1.46,2.97-2.92,4.44-4.39c0.45-1.49,0.78-3.12,1.02-4.9C503.71,300.53,502.31,292.89,500.71,285.34z M421.91,105.71
						c1.18-13.27-1.12-26.06-5.77-38.51C423.96,79.18,425.61,92.05,421.91,105.71z M226.41,193.94c-1.99-1.61-4.12-3.1-5.46-5.38
						c-0.57-0.96-0.99-2.1-0.15-2.98c0.84-0.89,1.72,0.1,2.47,0.5c7.75,4.12,14.93,9.19,22.42,13.74c3.6,2.19,6.8,4.86,10.23,7.79
						c-5.01-0.16-9.67-2.85-14.51,0.27c-0.8-2.24-2.26-3.51-3.65-4.85C234.26,199.65,230.18,196.98,226.41,193.94z M229.1,207.32
						c2.29-0.74,4.68-0.99,7.05-1.24c0.4,0.69,0.89,1.22,0.85,1.96c-1.16,0.78-2.54,0.24-3.76,0.67c-0.18,0.82,0.24,1.54,0.14,2.33
						c-0.4,3.26,0.67,5.1,3.65,6.41c1.37,0.6,2.79,1.07,4.2,1.57c1.56,0.55,2.42,1.75,2.81,3.25c0.36,1.36-0.7,2.45-1.83,1.9
						c-5.68-2.75-11.05-5.98-14.91-11.14C225.49,210.62,226.26,208.24,229.1,207.32z M226.75,216.66
						c4.18,4.33,9.11,7.41,14.33,10.09c0.74,0.38,1.65,0.8,1.25,1.91c-0.36,1.05-1.34,0.98-2.17,0.87
						c-5.44-0.78-10.21-3.05-14.15-6.87C224.05,220.76,224.36,218.67,226.75,216.66z M226.38,231.82c-2.35-1.45-2.51-2.96-0.6-5.55
						c3.53,2.24,7.1,4.12,10.97,5.4c0.73,0.24,1.68,0.51,1.55,1.48c-0.13,1.02-1.08,1.17-1.98,1.26
						C232.69,234.76,229.41,233.69,226.38,231.82z M275.71,245.79c-1.96,6.35-4.81,12.19-9.41,17.09
						c-3.17,3.37-6.75,6.06-11.39,6.99c2.55-1.25,5.09-2.46,7.37-4.47c-2.45-5.05-4.89-10.08-7.33-15.1c0.65-0.56,1.8-0.54,1.7-1.86
						c-8.42-0.15-14.05-5.51-20.27-10.77c3.22-0.63,5.26-1.92,4.94-5.09c3.54-1.21,3.81-1.56,3.87-5.2
						c0.01-0.48,0.12-0.86,0.45-1.14c0.87-0.75,1.17-1.76,1.42-2.81c0.11-0.48,0.06-1.07,0.74-1.13c0.77-0.06,0.88,0.56,1.05,1.11
						c0.59,1.84,1.06,3.71,1.79,5.49c1.93,4.67,5.5,7.25,11.08,8.05c-6.5-3.93-9.97-9-9.66-16.33c0.6-0.03,0.89-0.01,1.16-0.07
						c0.69-0.15,1.76,0.49,1.98-0.65c0.21-1.1-0.94-1.16-1.59-1.37c-2.71-0.89-5.42-1.77-8.3-1.98c-2.51-0.18-4.96-0.65-7.18-1.92
						c-1.12-0.63-2.22-1.33-2.11-3.26c4.48-0.16,8.57-2.75,13.29-1.93c2.88,0.5,5.79,0.85,8.69,1.21c1.81,0.22,3.32,0.96,4.28,2.51
						c3.1,5.07,5.99,10.33,7.44,16.06c1.22,4.79,3.2,9.11,5.6,13.32C275.93,243.62,276.07,244.61,275.71,245.79z M465.74,184.17
						c-3.14,4.37-5.99,8.86-8.41,13.61c-4.63,9.08-7.82,18.64-9.58,28.69c-0.22,1.26-0.15,2.71-1.4,3.66
						C441.78,220.59,456.45,185.84,465.74,184.17z M406.4,230.89c0.04-0.06,0.09-0.13,0.12-0.19c0.4-1.99,1.16-3.83,2.03-5.62
						c0.87-1.79,1.83-3.54,2.65-5.35c3.46-7.65,7.13-15.2,10.77-22.89c-4.46-3.32-8.91-6.63-13.78-10.25
						c5.43-1.63,10.44-3.13,15.67-4.7c-0.2-3.32-1.05-6.55-1.56-9.83c-0.33-2.18-0.91-4.34-1.1-6.54c-0.08-0.98-0.24-1.91-0.48-2.81
						l2.42,0.75c1.23,6.83,2.42,13.41,3.63,20.14c-4.37,1.25-8.66,2.48-13.35,3.82c4.04,3.02,7.82,5.85,11.77,8.8
						c-1.63,3.38-3.2,6.71-4.84,10c-3.42,6.91-6.84,13.81-10.33,20.67c-0.79,1.55-1.35,3.36-3.16,4.17
						c-0.18,0.13-0.38,0.22-0.51-0.03C406.33,231,406.36,230.95,406.4,230.89z M405.43,128.41c-0.07,0.17-0.14,0.41-0.36,0.25
						c-0.08-0.06-0.01-0.34-0.01-0.52c4.29-6.57,7.81-13.52,10.37-20.95C415.09,116.81,411.67,123.97,405.43,128.41z M360.66,42.11
						c6.2-1.51,12.03-0.28,17.65,2.4c4.79,2.27,9.18,5.18,13.27,8.54c0.43,0.36,0.78,1.08,1.84,0.62c-2.16-3.45-5.08-6.1-7.81-8.92
						c-0.23-0.03-0.37-0.13-0.24-0.36c0.01-0.03,0.3,0.1,0.46,0.15c14.09,6.41,23.08,19.66,26.42,28.57
						c-4.1-5.93-8.16-11.9-13.72-16.65c1.91,4.59,4.58,8.79,5.93,13.92c-4.06-5.15-7.92-10.03-12.69-14.05
						c-9.51-8.05-19.84-14.2-33.12-13.42C359.32,42.39,359.99,42.27,360.66,42.11z M385.35,69.65c-8.63-8.03-17.2-16.09-28.58-20.14
						C370.37,50.38,378.32,59.38,385.35,69.65z M354.73,140.72c-6.65-6.72-11.61-14.48-14.04-23.67c-2.18-8.22-1.98-16.7-2.35-25.11
						c-0.04-0.92,0.6-1.19,1.09-1.65c2.58-1.72,5.15-1.51,7.88-0.23c2.57,1.21,5.25,2.2,7.92,3.22c0.84,0.32,2,0.76,2.53-0.23
						c0.56-1.06-0.26-2.09-1.07-2.76c-0.69-0.58-1.59-0.95-2.45-1.26c-2.08-0.75-4.18-1.46-6.29-2.09c-4.47-1.34-5.9-0.86-8.89,2.82
						c-0.24,0.06-0.41,0.08-0.53,0.06c-0.06-0.01-0.1-0.03-0.13-0.05c-0.07-0.04-0.11-0.1-0.12-0.17c-0.01-0.06-0.01-0.12,0-0.19
						c0.01-0.07,0.03-0.14,0.05-0.21c0.05-0.17,0.11-0.35,0.11-0.46c-0.05-3.45,0.67-6.81,1.46-10.13
						c1.29-5.44,3.5-10.49,6.81-15.29c2.41,4.43,5.04,8.35,8.99,11.23c0.24,0.17,0.49,0.35,0.75,0.52c0.52,0.35,1.07,0.69,1.64,1.02
						c3.73,2.16,8.37,3.84,10.49,3.59c-3.97-2.05-7.43-4.66-10.14-8.05c-0.91-1.14-1.73-2.36-2.46-3.68
						c-0.2-0.23-0.39-0.47-0.59-0.7c-0.02-0.13-0.07-0.32-0.08-0.43c0-0.03,0.01-0.06,0.02-0.06c0.24-0.15,0.28,0.07,0.31,0.25
						c0.22,0.21,0.44,0.42,0.66,0.63c4.95,5.35,11,8.65,17.4,11.31c0.34,0.14,0.68,0.28,1.02,0.42c0.67,0.27,1.36,0.54,2.04,0.8
						c0.34,0.13,0.68,0.26,1.03,0.39c0.68,0.26,1.37,0.51,2.06,0.76c2.41,0.88,4.84,1.74,7.25,2.64c-1.94,0.09-3.73,0.33-5.47,1.03
						c-3.05,1.22-6.1,2.44-9.19,3.52c-1.33,0.47-1.57,1.17-1.25,2.42c0.36,1.44,1.25,1.59,2.42,1.2c1.15-0.37,2.31-0.76,3.41-1.25
						c2.6-1.16,5.11-2.56,7.77-3.56c5.36-2.01,13.74,1.93,15.53,8.1c2.09,7.22,2.58,14.69,0.94,22.05
						c-3.57,16.06-15.03,24.89-29.41,30.5c-4.71,1.84-9.45,0.54-13.16-3.33C357.41,143.3,356.04,142.04,354.73,140.72z
						 M343.29,207.62c2.1-8.07,3.89-16.23,6.54-24.16c0.4-1.21,0.95-1.68,2.28-1.59c3.36,0.25,6.78-0.14,10.01,1.39
						c-1.95-5.49-7.04-2.99-10.64-4.33c2.18-5.76,4.42-11.3,8.38-16.5c0.15,4.28-0.08,8-0.29,11.75c3.72-5.86,3.56-12.35,3.06-19.19
						c5.07,2.36,9.57,1.31,13.86-1.34c5.81-3.58,11.1-7.85,15.63-12.94c1.91-2.15,3.92-3.28,6.94-3.09
						c0.08,1.81,0.19,3.65,0.25,5.49c0.18,5.61,1.2,10.95,4.97,15.38c0.79,0.92,0.38,1.77,0.09,2.59
						c-1.65,4.64-3.41,9.23-4.99,13.89c-0.53,1.57-1.27,2.25-2.99,2.36c-4.63,0.27-9.25,0.73-13.87,1.18
						c-4.12,0.41-6.73,2.81-7.09,6.74c6.55-5.45,14.67-4.25,21.98-6.29c0.08,0.41,0.17,0.56,0.13,0.67
						c-3.33,8.65-6.67,17.3-10.01,25.94c-0.21,0.54-0.46,0.98-1.02,1.3c-8.05,4.64-16.25,8.92-25.18,11.66
						c-1.32,0.41-2.49,0.31-3.73-0.22c-5.11-2.19-9.51-5.45-13.71-9.03C343.35,208.82,343.1,208.37,343.29,207.62z M318.92,221.78
						c0.59-7.69,1.01-15.39,1.61-23.08c0.08-1.09,0.5-1.61,1.42-2.1c3.45-1.83,6.85-3.75,10.52-5.78c-2.46-1.53-4.68-2.9-7.11-4.39
						c4.47-5.64,8.9-11.22,13.31-16.79h1.96c-0.49,0.64-0.98,1.27-1.47,1.91c-3.54,4.64-6.97,9.37-10.52,14.16
						c2.68,1.57,5.38,3.03,7.98,5.16c-4.19,2.36-8.25,4.68-12.35,6.91c-0.95,0.53-1.52,1.03-1.6,2.23
						c-0.69,10.91-1.51,21.8-1.41,32.75c0.1,10.92,2.82,21.33,5.78,31.7c0.83,2.92,1.78,5.8,2.7,8.8c-1.03,0.08-1.05-0.78-1.3-1.34
						C321.19,255.98,317.56,239.38,318.92,221.78z M336.3,340.98c-0.2,9.42-0.79,18.83-2.23,28.15c-0.86,5.63-1.76,11.3-4.82,16.3
						c-2.2,3.6-4.47,4.58-8.86,3.75c4.65-0.45,6.39-3.77,7.74-7.53c0.99-2.76,1.67-5.61,2.18-8.48c1.89-10.68,2.87-21.48,3.82-32.28
						c0.09-1.06,0.1-2.15,1.22-2.75C336.32,339.28,336.33,339.28,336.3,340.98z M391.9,390.74c-5.12-1.07-8.75-3.94-10.92-8.73
						c-1.48-3.26-2.59-6.64-3.46-10.1c-2.37-9.45-3.5-19.09-4.36-28.76c-0.17-1.91-0.68-3.03-2.67-3.66
						c-2.98-0.94-5.79-2.4-8.74-3.45c-5.31-1.89-10.4-4.34-15.83-5.89c-0.08,0.08-0.16,0.16-0.24,0.24
						c2.24,2.14,4.92,3.58,7.65,4.97c2.13,1.08,4.29,2.12,6.31,3.42h-21.37c-0.06-0.72-0.14-1.2-0.14-1.69
						c-0.01-1.62-0.01-3.23-0.02-4.85s-0.02-3.25-0.03-4.87c-0.01-1.61-0.03-3.22-0.05-4.83c-0.01-1.58-0.03-3.15-0.06-4.73v-0.12
						c-0.01-0.46-0.01-0.91-0.02-1.37c-0.03-1.67-0.06-3.35-0.09-5.02c-0.05-2.48-0.11-4.95-0.19-7.43
						c-0.41-13.49-0.54-27-1.15-40.49c-0.54-11.96-0.36-23.82,2.41-35.55c1.2-5.11,2.23-10.27,3.39-15.64
						c1.55,1.17,2.86,2.15,4.15,3.15c3.17,2.46,6.53,4.58,10.25,6.13c1.81,0.75,3.53,0.87,5.4,0.23c3.44-1.19,6.82-2.53,10.16-3.96
						c4.36-1.87,8.53-4.14,13.16-6.48c-0.37,1.06-0.59,1.71-0.82,2.36c-2.53,6.82-5.17,13.6-7.56,20.46
						c-4.1,11.81-5.64,24.15-7.2,36.47c-0.14,1.13-0.5,1.89-1.42,2.66c-2.2,1.84-3.38,4.32-2.89,7.21c0.27,1.55-0.16,2.8-0.47,4.24
						c-0.74,3.46-0.77,7.04-1.63,10.51c-0.13,0.56,0.14,1.14,0.27,1.75c0.01,0.07,0.02,0.13,0.04,0.19c0.01,0.1,0.03,0.21,0.03,0.31
						c0.01,0.06,0.01,0.12,0,0.18c0.01,0.07,0,0.15-0.02,0.22c-0.01,0.09-0.04,0.18-0.07,0.27c-1.07,2.99-0.34,5.64,1.62,7.99
						c0.72,0.86,0.85,1.69,0.55,2.75c-0.73,2.6-1.39,5.23-2.07,7.85c-1.47,5.72,2.44,10.82,8.4,10.95c0.91,0.01,1.83,0,2.8,0
						c0.1,0.72,0.22,1.27,0.26,1.83c0.66,9.05,1.65,18.07,3.08,27.02c1.25,7.81,2.48,15.64,5.23,23.14
						c2.14,5.85,6.29,9.15,12.28,10.37c2.24,0.45,4.5,0.73,6.76,1.08C399.02,391.68,395.46,391.47,391.9,390.74z M412.17,321.78
						c-4.52,0.69-9.1,0.77-13.66,0.99c-8.7,0.42-17.41,0.76-26.11,1.05c-2.77,0.1-4.88-2-4.81-4.63c0.06-2.53,0.91-4.89,1.9-7.19
						c0.21-0.5,0.51-1.13,1.24-0.97c0.85,0.2,0.78,0.93,0.71,1.57c-0.14,1.34-0.36,2.68-0.51,4.03c-0.33,2.83,1.05,4.36,3.85,4.33
						c2.86-0.03,5.72-0.05,8.57-0.07c9.22-0.03,18.43-0.07,27.64-0.06c0.78,0,1.68-0.14,2.38,0.47
						C413.03,321.87,412.56,321.73,412.17,321.78z M412.74,311.55c-4.11-0.37-8.22,0.81-12.31,1.38
						c-5.04,0.69-10.09,0.92-15.16,1.07c-0.43,0.01-0.88,0.01-1.27-0.14c-6.05-2.19-11.37-5.61-16.1-9.93
						c-1.08-0.99-1.16-1.84-1.01-3.74c4.39,2.96,8.94,5.43,13.57,7.74c1.13,0.56,2.32,1.16,3.52,0.13c0.07-0.98-0.74-1.01-1.23-1.31
						c-4.01-2.47-8.05-4.89-12.03-7.4c-1.02-0.64-1.93-1.48-2.77-2.34c-0.23-0.23-0.42-0.47-0.58-0.71
						c-0.05-0.07-0.09-0.15-0.13-0.23c-0.09-0.14-0.15-0.29-0.21-0.44c-0.06-0.18-0.1-0.36-0.12-0.54
						c-0.02-0.11-0.03-0.23-0.03-0.33c0-0.72,0.3-1.46,0.96-2.24c0.47,0.28,0.95,0.55,1.42,0.82c0.72,0.41,1.44,0.81,2.17,1.2
						c0.58,0.31,1.16,0.62,1.75,0.92c3,1.57,6.04,3.03,9.09,4.49c1.22,0.58,2.45,1.15,3.96-0.13c-2.08-1.2-4.03-2.32-5.97-3.44
						c-1.81-1.04-3.68-1.99-5.5-3c-0.36-0.2-0.71-0.4-1.07-0.61c-0.34-0.19-0.67-0.39-1.01-0.6c-0.28-0.16-0.56-0.34-0.84-0.52
						c-0.05-0.03-0.11-0.07-0.16-0.1c-0.6-0.38-1.19-0.79-1.77-1.21c-2.32-1.71-2.54-3.35-0.83-5.82c0.58,0.22,1.15,0.44,1.72,0.68
						c0.22,0.08,0.43,0.17,0.64,0.26c0.77,0.32,1.54,0.64,2.31,0.97c1.04,0.45,2.08,0.9,3.12,1.33c1.28,0.54,2.58,1.06,3.88,1.53
						c0.4,0.14,0.8,0.28,1.19,0.41c0.32,0.11,0.63,0.21,0.95,0.3c0.16,0.06,0.32,0.1,0.49,0.15c0.26,0.08,0.52,0.15,0.78,0.21
						c0.14,0.05,0.28,0.08,0.42,0.11c0.29,0.08,0.58,0.15,0.87,0.22c0.41,0.09,0.82,0.17,1.23,0.25c0.47,0.08,0.94,0.16,1.42,0.22
						c-0.34-1.48-1.48-1.75-2.46-2.19c-2.15-0.97-4.31-1.92-6.47-2.88h-0.01c-1.33-0.59-2.65-1.18-3.98-1.78
						c-1.32-0.6-2.65-1.21-3.97-1.83c-2.87-1.35-3.23-3.57-1.21-6.02c1.04-1.24,2.17-1.43,3.78-0.83c0.71,0.26,1.41,0.52,2.12,0.78
						c0.58,0.21,1.17,0.42,1.75,0.62c0.6,0.21,1.2,0.41,1.8,0.61c1.35,0.45,2.71,0.86,4.09,1.22c0.46,0.13,0.93,0.25,1.39,0.36
						c0.4,0.1,0.8,0.19,1.2,0.28c0.47,0.11,0.94,0.2,1.41,0.29c0.14,0.03,0.27,0.05,0.41,0.08c0.06,0.01,0.12,0.02,0.18,0.03
						c0.48,0.09,0.96,0.17,1.45,0.24c3.88,0.58,7.39-0.87,11.13-2.05c-1.38-1-1.48-1.06-3.65-0.78c-1.25,0.16-2.34,0.03-3.46-0.67
						c-0.18-0.11-0.36-0.22-0.55-0.31c-0.21-0.11-0.42-0.22-0.64-0.32c-0.17-0.08-0.34-0.15-0.51-0.22
						c-0.11-0.05-0.23-0.09-0.35-0.13c-0.07-0.03-0.13-0.05-0.2-0.07c-0.15-0.06-0.31-0.1-0.47-0.14c-0.13-0.04-0.26-0.08-0.39-0.11
						c-0.21-0.05-0.43-0.1-0.65-0.13c-0.2-0.04-0.4-0.08-0.6-0.1c-0.18-0.03-0.36-0.05-0.54-0.05c-0.14-0.02-0.28-0.03-0.42-0.04
						c-0.26-0.02-0.53-0.02-0.8-0.02c-3.24,0.02-6.43-0.33-9.35-1.84c-2.32-1.21-3.77-3.12-4.3-5.77c1.27-0.42,2.37-0.25,3.35,0.04
						c2.74,0.8,5.48,0.58,8.28,0.47c1.42-0.06,2.81-0.07,4.18-0.01c0.2,0,0.4,0.01,0.6,0.03c0.2,0,0.39,0.01,0.58,0.03
						c0.3,0.02,0.6,0.04,0.9,0.06c0.23,0.02,0.46,0.04,0.69,0.07c0.25,0.02,0.5,0.05,0.75,0.08c0.22,0.03,0.44,0.06,0.66,0.09
						c0.27,0.03,0.53,0.07,0.79,0.11c0.46,0.08,0.91,0.16,1.36,0.25c0.3,0.06,0.58,0.12,0.87,0.18c0.58,0.13,1.15,0.27,1.71,0.44
						c0.28,0.07,0.56,0.16,0.84,0.24c0.28,0.09,0.55,0.18,0.83,0.28c0.27,0.09,0.54,0.19,0.81,0.29c0.27,0.1,0.54,0.21,0.81,0.32
						c0.32,0.13,0.64,0.27,0.95,0.41c0.32,0.14,0.63,0.29,0.93,0.45c0.3,0.15,0.6,0.3,0.89,0.47c1.44,0.79,2.82,1.72,4.12,2.8
						c0.22,0.19,0.44,0.38,0.66,0.58c0.03,0.02,0.06,0.05,0.1,0.09c0.2,0.17,0.4,0.36,0.59,0.55c0.06,0.05,0.12,0.11,0.18,0.17
						c0.17,0.16,0.34,0.33,0.51,0.51c0.07,0.07,0.15,0.15,0.22,0.23c0.17,0.18,0.34,0.36,0.51,0.55c0.17,0.2,0.35,0.4,0.52,0.6
						c0.19,0.23,0.39,0.46,0.57,0.7c0.52,0.65,1.02,1.33,1.5,2.05c0.22,0.33,0.44,0.67,0.65,1.01c3.23,5.26,7.65,7.72,13.32,8.4
						c3.19,0.38,4.42,1.9,4.92,4.93c1.44,8.75,0.76,17.35-1.2,25.93c-1.21,5.32-1.14,5.34-6.48,6.37c-0.37,0.07-0.74,0.13-1.21,0.21
						l-0.29-0.79c0.14-0.01,0.3-0.02,0.47-0.05c5.53-0.91,5.66-0.97,6.86-6.49c0.3-1.38,0.59-2.77,0.92-4.36
						C425.5,314.31,419.26,312.15,412.74,311.55z M393.69,246.76c-0.02-1.37,0.84-2.01,2.07-2.22c1.22,0.11,1.91,0.73,1.86,1.92
						c-0.05,1.23-0.8,2.02-2,2.1C394.47,248.63,393.72,247.95,393.69,246.76z M427.24,333.29c-2.17-0.07-3.79-0.88-5.14-2.57
						c-3.4-4.25-5.53-9.1-7.14-14.27c1.59-0.63,2.41-0.02,3.04,1.24c1.32,2.61,2.71,5.18,4.06,7.78c0.17,0.32,0.35,0.57,0.56,0.75
						l0.8,1.27c1.19,1.52,2.02,2.87,4.11,2.88c5.24,0.05,10.47-0.03,15.7-0.22c0.11,0.83,0.29,1.92,0.44,2.82
						C438.23,333.4,432.74,333.48,427.24,333.29z M490.41,296.74c-0.18,0.2-0.52,0.11-0.62-0.26c-0.25-0.12-0.52-0.22-0.76-0.37
						c-9.24-5.98-19.13-9.34-30.35-8.28c-6.68,0.63-13.4,0.95-20.12,0.81c-1.71-0.03-3.42-0.16-5.13-0.29
						c-0.85-0.06-1.95-0.11-1.85-1.27c0.11-1.13,1.21-0.99,2.05-1c1.51-0.02,3.01-0.02,4.51-0.02h12.11
						c0.65-2.53,1.09-4.48,1.65-6.39c3.41-11.7,6.85-23.39,10.27-35.1c1.05-3.61-0.08-5.06-3.89-5.09
						c-2.13-0.02-4.25-0.03-6.38-0.05c-18.44-0.15-36.9-0.3-55.35-0.45c-4.61-0.04-5.87,1-7.01,5.44
						c-1.58,6.14-3.32,12.24-5.45,18.23c-0.72,2.03-1.88,2.11-3.61,1.58c0.04-0.46,0.03-0.82,0.11-1.16
						c1.87-7.76,3.71-15.54,5.66-23.28c0.77-3.05,3.88-5.25,7.1-5.2c21.88,0.29,43.76,0.59,65.64,0.92c0.19,0,0.39,0.01,0.58,0.01
						c5.01,0.08,7.34,3.19,5.88,7.96c-3.86,12.61-7.8,25.21-11.7,37.81c-0.41,1.31-1.23,2.51-1.22,4.03
						c4.6-0.19,9.05-0.2,13.24-2.29c2.22-1.11,4.73-1.62,7.22-1.86c3.58-0.33,7.16-0.33,10.5,1.33c-1.63,0.19-3.25,0.11-4.86,0.21
						c-1.57,0.11-3.13,0.34-4.67,0.63c-1.51,0.29-3.07,0.49-4.69,1.39c8.44,1.52,15.39,5.1,20.83,11.44
						C490.22,296.36,490.68,296.45,490.41,296.74z"/>
					<path d="M345.46,330.02c0.04-0.05,0.3,0.08,0.46,0.12c-0.08,0.08-0.16,0.16-0.25,0.25C345.5,330.32,345.3,330.24,345.46,330.02
						z"/>
					<path d="M370.73,125.13c2.63,0.22,5.21,1.84,7.93,0.36c0.38-0.2,0.68,0.03,0.87,0.37c0.21,0.36,0.07,0.68-0.16,0.98
						c-0.6,0.78-1.45,1.19-2.37,1.34c-4.9,0.82-9.75,2.07-14.8,1.55c-1.3-0.13-2.62-0.02-3.93-0.02c5,4.34,10.35,3.32,16.06,1.14
						c-3.79,5.91-12.06,6.59-15.68,0.92c-1.01-1.58-2.12-2.94-3.75-3.87c-0.56-0.32-0.99-0.85-0.34-1.74
						c1.27,0.72,2.62,0.75,3.98,0.1c1.94-0.92,3.95-1.24,6-0.4c0.69,0.29,1.23,0.09,1.81-0.22
						C367.75,124.91,369.2,125,370.73,125.13z"/>
					<path d="M374.6,100.16c0.34-2.3,1.84-3.86,2.94-5.64c0.24-0.06,0.48-0.12,0.79-0.2c-0.41-0.35-0.72-0.23-1.04-0.08c0,0,0,0,0,0
						c-0.23,0.09-0.45,0.18-0.85,0.33c-0.13,0.05-0.28,0.11-0.45,0.18c0.79-1.5,1.82-2.04,2.94-2.38c3.23-0.97,6.46-1.01,9.63,0.26
						c1.76,0.71,3.51,1.37,5.73,0.9c-1.48,2.45-3.43,3.89-5.67,5.44c0.84-2.41,0.61-2.76-1.73-3.11c-0.03,2.81-0.87,4.28-2.75,4.63
						c-0.98,0.19-1.98,0.14-2.93-0.26c-1.59-0.67-2-2.21-2.57-3.67C377.06,97.63,376.03,99.12,374.6,100.16z"/>
					<path d="M350.18,102.2c-3.09,0.24-4.07-1.87-4.48-4.54c-1.41,1.44-1.41,1.44-1.48,2.67c-2.78-1.32-3.03-1.56-4.32-4.27
						c1.98,0.46,2.97-1.05,4.34-1.67c6.45-2.9,11.11-0.19,13.15,6.72c-1.22-1.08-2.26-2-3.43-3.04
						C353.65,100.51,352.53,102.02,350.18,102.2z"/>
					<path d="M358.27,114.58c2.18-6.14,3-12.29,1.12-18.66c1.28,1.6,2.16,3.28,2.34,5.24c0.39,4.08,0.18,8.13-1.02,12.06
						c-0.5,1.65-0.2,2.87,0.9,4.09c0.68,0.75,1.61,1.37,1.81,2.53C360,120.08,357.27,117.39,358.27,114.58z"/>
					<path d="M370.22,117.86c-0.1,0.1-0.19,0.27-0.29,0.28c-1.11,0.1-2.22,0.17-3.58,0.27c0.23-0.48,0.49-0.85,0.78-1.11
						C368.01,116.52,369.13,116.74,370.22,117.86C370.22,117.86,370.22,117.86,370.22,117.86z"/>
					<path d="M398.18,55.77c0.2,0.14,0.6,0.24,0.29,0.57c-0.28,0.3-0.46,0.01-0.61-0.22c-0.13-0.19-0.43-0.39-0.18-0.63
						C397.99,55.22,398.05,55.61,398.18,55.77z"/>
					<path d="M393.43,54.45c0.02-0.1,0.09-0.19,0.13-0.29c0.05,0.05,0.1,0.1,0.15,0.15c-0.05,0.09-0.1,0.18-0.15,0.28
						C393.52,54.54,393.43,54.49,393.43,54.45z"/>
				</g>
				<path d="M552.09,205.7c0.31,1.68,0.36,3.44,0.11,5.17c4.87,1.4,7.14,4.73,7.06,10.34c-0.02,3.51-0.87,7.17-2.75,11.89
					c-4.68,11.87-11.76,22.15-18.07,30.64c-8.57,11.52-18.14,22.83-29.26,34.57c-1.39,1.48-2.79,2.93-4.19,4.38l-0.1,0.11
					c-0.75,0.78-1.5,1.54-2.26,2.31l-0.74,0.76c-0.98,1-1.94,1.96-2.9,2.92c-1.73,1.73-3.47,3.44-5.22,5.16l-0.18,0.18
					c-0.92,0.91-1.86,1.81-2.79,2.7c-0.03,0.02-0.06,0.05-0.08,0.07c-0.14,0.15-0.28,0.28-0.42,0.41c-0.12,0.1-0.24,0.22-0.35,0.34
					c0,0-0.09,0.09-0.13,0.12c-2.75,2.66-5.66,5.41-8.64,8.18c-0.67,0.62-1.34,1.24-2.01,1.86l-1.08,0.99
					c-0.73,0.68-1.43,1.33-2.13,1.97c-0.63,0.57-1.26,1.15-1.9,1.72l-0.79,0.72c-0.31,0.29-0.63,0.58-0.95,0.86
					c-0.03,0.03-0.06,0.05-0.08,0.07c-0.54,0.49-1.07,0.97-1.61,1.44c-1.99,1.81-4.13,3.71-6.78,6.03
					c-0.19,0.16-0.37,0.32-0.55,0.48c0,0-0.34,0.3-0.37,0.33l-0.12,0.11c-0.03,0.02-1.82,1.57-1.82,1.57
					c-0.27,0.24-0.48,0.43-0.68,0.59c-0.05,0.04-0.09,0.08-0.14,0.12c-2.89,2.52-5.61,4.85-8.31,7.11c-1.15,0.98-2.27,1.92-3.4,2.86
					c-1.01,0.85-2.01,1.67-3.02,2.5l-0.14,0.12c-2.21,1.83-4.44,3.64-6.66,5.44c0,0-0.04,0.04-0.06,0.05
					c-2.15,1.74-4.3,3.46-6.46,5.17l-0.74,0.58c-0.87,0.7-1.75,1.39-2.63,2.08c-0.93,0.72-1.83,1.42-2.74,2.12
					c-1.23,0.98-2.42,1.89-3.62,2.8c-4.21,3.25-7.9,6.03-11.29,8.54c-0.83,0.63-1.63,1.23-2.43,1.82c-1.76,1.3-3.51,2.59-5.28,3.87
					c-0.96,0.7-1.91,1.38-2.86,2.06l-0.21,0.16c-2.62,1.91-5.25,3.78-7.71,5.52c-0.08,0.05-0.97,0.68-0.97,0.68
					c-0.69,0.48-1.36,0.96-2.05,1.43c0,0-0.77,0.53-0.83,0.57c-3.59,2.53-7.23,5.04-10.84,7.46c-2.32,1.59-4.73,3.21-7.4,4.97
					c-0.99,0.66-1.95,1.3-2.92,1.91l-3.53,2.32c-0.59,0.37-1.24,0.79-1.9,1.22l-1.22,0.79c-4.9,3.12-9.42,5.94-13.84,8.6
					c-1.09,0.67-2.14,1.3-3.19,1.93c-0.8,0.48-1.59,0.95-2.37,1.41c-0.85,0.51-3.19,1.88-3.19,1.88
					c-6.69,3.91-13.02,7.45-19.35,10.83c-4.04,2.15-7.76,4.08-11.38,5.89c-0.64,0.33-1.2,0.61-1.77,0.89l-1.21,0.62
					c-3.02,1.49-6.04,2.95-8.91,4.29c-0.08,0.04-0.17,0.09-0.25,0.13l-0.54,0.25c-1.05,0.49-2.09,0.97-3.14,1.44
					c-2.2,1-4.48,2-6.8,2.99c-10.09,4.27-19.36,7.51-28.34,9.89c-5.69,1.48-12.44,3.01-19.2,3.01c-1.8,0-3.58-0.11-5.28-0.32
					c-7.15-0.92-10.24-4.49-9.99-11.59c0.15-4.71,1.86-9.31,3.51-13.2c5.23-12.12,12.81-22.9,19.77-31.96
					c-1.07-0.6-2.1-1.37-3.07-2.33c-0.27-0.27-0.53-0.57-0.77-0.87c-7.96,10.36-15.33,21.11-20.54,33.21
					c-2.04,4.81-3.73,9.72-3.9,14.98c-0.34,9.72,4.69,15.48,14.36,16.72c9.03,1.13,17.74-0.56,26.38-2.82
					c9.98-2.64,19.61-6.13,29.02-10.12c2.31-0.98,4.61-1.99,6.89-3.03c1.34-0.6,2.67-1.22,4.01-1.84v-0.01
					c3.03-1.42,6.05-2.88,9.06-4.37c0.98-0.5,1.96-0.98,2.94-1.49c3.86-1.93,7.69-3.92,11.5-5.95c6.6-3.52,13.1-7.17,19.54-10.93
					c1.07-0.63,2.14-1.26,3.2-1.89c0.79-0.47,1.58-0.94,2.38-1.42c1.07-0.64,2.14-1.28,3.21-1.94c4.69-2.83,9.34-5.73,13.95-8.67
					c1.06-0.68,2.11-1.37,3.17-2.04c0.9-0.59,1.79-1.17,2.68-1.76c0.26-0.17,0.5-0.33,0.76-0.5c1.02-0.64,2.02-1.31,3.02-1.98
					c2.49-1.64,4.97-3.3,7.44-4.99c3.67-2.47,7.3-4.97,10.92-7.52c0.1-0.06,0.2-0.13,0.29-0.2c0.16-0.11,0.32-0.22,0.48-0.33
					c0.85-0.58,1.67-1.16,2.51-1.75c0.15-0.11,0.29-0.2,0.44-0.31c0.05-0.03,0.09-0.07,0.14-0.1c2.59-1.83,5.18-3.67,7.74-5.54
					c1.03-0.74,2.06-1.48,3.09-2.23c1.78-1.29,3.55-2.59,5.32-3.9c0.81-0.6,1.62-1.21,2.43-1.82c3.81-2.82,7.59-5.69,11.35-8.58
					c1.22-0.93,2.43-1.86,3.63-2.81c0.92-0.71,1.84-1.42,2.76-2.14c0.94-0.73,1.87-1.47,2.8-2.21c0.2-0.16,0.41-0.32,0.61-0.48
					c2.19-1.73,4.37-3.48,6.55-5.24c0-0.01,0-0.01,0.01-0.01c2.24-1.81,4.48-3.64,6.69-5.47c1.07-0.88,2.13-1.75,3.19-2.64
					c1.14-0.95,2.27-1.9,3.41-2.87c2.81-2.36,5.6-4.75,8.38-7.17c0.26-0.21,0.53-0.45,0.8-0.69c0.58-0.5,1.15-1,1.73-1.5
					c0.1-0.08,0.19-0.17,0.29-0.26c0.27-0.23,0.54-0.48,0.82-0.71c2.29-2.01,4.57-4.03,6.83-6.08c0.56-0.49,1.12-0.99,1.68-1.5
					c0.55-0.48,1.08-0.98,1.61-1.46c0.71-0.64,1.42-1.28,2.12-1.92c0.72-0.66,1.44-1.32,2.15-1.99c1.03-0.95,2.07-1.9,3.1-2.86
					c2.93-2.72,5.84-5.47,8.71-8.24c0.12-0.11,0.23-0.22,0.35-0.33c0,0,0.01,0,0.01-0.03c0.2-0.18,0.4-0.37,0.6-0.57
					c0.95-0.91,1.91-1.83,2.85-2.76c0.04-0.03,0.08-0.07,0.11-0.1c1.78-1.75,3.55-3.49,5.31-5.25c0.98-0.98,1.96-1.96,2.93-2.96
					c1.01-1.03,2.03-2.06,3.03-3.1c1.45-1.5,2.9-3,4.33-4.52c10.51-11.1,20.47-22.7,29.64-35.03c7.35-9.89,14.13-20.18,18.7-31.77
					c1.75-4.4,3.07-8.86,3.11-13.67C564.38,212.84,560.08,207.42,552.09,205.7z"/>
			</g>
		</g>
	</g>
	<g>
		<path class="st1" d="M193.66,111.9c7.41-0.12,13.59-6.18,13.53-13.29c-0.06-7.38-6.24-13.5-13.59-13.46
			c-7.26,0.04-13.49,6.4-13.41,13.68C180.25,105.94,186.52,112.01,193.66,111.9z M193.73,88.19c5.97,0.1,10.55,4.78,10.47,10.71
			c-0.07,5.51-4.78,10.02-10.44,10.01c-5.86-0.01-10.7-4.71-10.63-10.31C183.21,92.87,188.08,88.09,193.73,88.19z"/>
		<path class="st1" d="M11.12,10.9c1.41,0.02,2.19-0.79,2.37-2.17c-0.09-1.49-0.82-2.47-2.32-2.52C9.76,6.16,8.9,7.06,8.85,8.43
			C8.79,9.89,9.56,10.88,11.12,10.9z"/>
		<path class="st1" d="M20.57,10.86c1.53,0.1,2.42-0.88,2.45-2.32c0.03-1.36-0.87-2.17-2.34-2.34c-1.26,0.19-2.2,0.86-2.26,2.27
			C18.36,9.89,19.2,10.77,20.57,10.86z"/>
		<path class="st1" d="M30.57,10.86c1.36-0.1,2.14-0.97,2.17-2.31c-0.12-1.55-1.01-2.31-2.36-2.32c-1.41-0.01-2.24,0.91-2.23,2.3
			C28.17,10.04,29.04,10.98,30.57,10.86z"/>
		<path class="st1" d="M58.26,119.59c-10.97,0-21.79,0-32.71,0c0,6.69,0,13.28,0,19.85c10.97,0,21.79,0,32.71,0
			C58.26,132.78,58.26,126.24,58.26,119.59z"/>
		<path class="st1" d="M71.6,250.51c-2.01-0.27-2.76,0.41-2.68,2.54c0.06,1.8,0.46,2.7,2.4,2.42c0.56-0.08,1.13-0.01,1.7-0.01
			c0,0,0-0.01,0-0.01c0.85,0,1.71-0.02,2.56,0.01c0.72,0.02,1.21-0.19,1.44-0.95c0.82-2.69-0.1-3.98-2.86-3.98
			C73.31,250.53,72.44,250.62,71.6,250.51z"/>
		<path class="st22" d="M86.1,264.75c-21.19,0-42.24,0-63.31,0c-0.25,0.94-0.31,1.75,0.06,2.62c21.07,0,42.11,0,63.25,0
			C86.1,266.5,86.1,265.74,86.1,264.75z"/>
		<path class="st1" d="M86.71,275.22c-1,0-2.01,0.1-2.99-0.02c-1.96-0.23-2.37,0.63-2.37,2.46c0,2.01,0.55,2.95,2.66,2.62
			c0.49-0.08,1-0.01,1.5-0.01c3.76,0.02,4,0.03,4.04-1.82c0-0.12,0-0.25,0.01-0.39C89.59,275.23,89.58,275.22,86.71,275.22z"/>
		<path class="st1" d="M100.4,178.54c11,0,21.89,0,32.88,0c0-6.58,0-13.04,0-19.87c-11.01,0-21.88,0-32.88,0
			C100.4,165.37,100.4,171.91,100.4,178.54z"/>
		<path class="st22" d="M115.3,155.38c0-7.4,0-14.58,0-21.92c-17.87,0-35.62,0-53.6,0c0,1.13-0.02,2.11,0,3.09
			c0.14,6.77-0.35,6.21-6.49,6.26c-3.69,0.03-7.38,0.01-11.15,0.01c0,4.36,0,8.46,0,12.68c4.97,0,9.82,0,14.67,0
			c2.61,0,3.23,0.64,3.23,3.31c0,2.9,0,5.8,0,8.79c11.79,0,23.33,0,35.05,0c0-2.97,0-5.81,0-8.65c0-3.09,0.46-3.56,3.63-3.56
			C105.49,155.37,110.33,155.38,115.3,155.38z"/>
		<path class="st1" d="M74.48,275.24c-0.99,0.1-2.01,0.11-2.99-0.01c-1.86-0.23-2.46,0.44-2.51,2.36c-0.05,2.2,0.69,3.03,2.83,2.71
			c0.42-0.06,0.85-0.01,1.28-0.01c3.41,0.01,3.85,0,4.01-1.46c0.03-0.27,0.05-0.59,0.08-0.97
			C77.36,275.68,76.47,275.03,74.48,275.24z"/>
		<path class="st22" d="M126.96,84.89c0-20.09,0-40.17,0-60.26c0-2.56,0-5.12,0-7.88c-41.16,0-82,0-122.91,0
			C4,17.11,3.91,17.38,3.91,17.65C3.89,40.38,3.87,63.11,3.89,85.84c0,2.33,1.11,3.26,3.54,3.26c38.45,0,76.91,0,115.36-0.01
			C126.09,89.09,126.96,88.2,126.96,84.89z M35.52,82.28c-6.91,0-13.83,0.02-20.74,0.01c-0.97,0-2.21,0.15-2.19-1.34
			c0.03-1.48,1.27-1.27,2.24-1.28c3.49-0.02,6.99-0.01,10.48-0.01c0-0.01,0-0.03,0-0.04c3.35,0,6.7,0.01,10.05,0
			c1.02,0,2.17-0.12,2.16,1.34C37.52,82.23,36.52,82.28,35.52,82.28z M35.89,71.68c0.92,0,1.59,0.25,1.6,1.26
			c0.01,1.12-0.71,1.4-1.71,1.39c-3.57-0.03-7.15-0.01-10.72-0.01c0,0,0-0.01,0-0.01c-3.5,0-7.01-0.02-10.51,0.01
			c-1.04,0.01-1.91-0.14-1.91-1.42c0-1.24,0.92-1.24,1.81-1.24C21.59,71.67,28.74,71.69,35.89,71.68z M14.86,64.48
			c0-4.55,0-9.02,0-13.6c2.61,0,5.15,0,7.83,0c0,4.51,0,8.97,0,13.6C19.97,64.48,17.48,64.48,14.86,64.48z M26.28,64.44
			c0-7.74,0-15.28,0-22.97c2.62,0,5.15,0,7.85,0c0,7.56,0,15.21,0,22.97C31.53,64.44,29,64.44,26.28,64.44z M44.93,64.39
			c-2.48,0-5.01,0-7.79,0c0-3.91,0-7.66,0-11.55c2.56,0,5.1,0,7.79,0C44.93,56.63,44.93,60.43,44.93,64.39z M78.31,71.65
			c1.03,0,2.16-0.08,2.1,1.4c-0.05,1.28-1.05,1.29-2.03,1.28c-5.21-0.01-10.41-0.01-15.62-0.01c0,0.01,0,0.01,0,0.02
			c-5.13,0-10.27-0.01-15.4,0.01c-1.06,0-2.13,0.01-2.1-1.43c0.03-1.35,1.09-1.24,2.03-1.24C57.63,71.67,67.97,71.66,78.31,71.65z
			 M48.06,64.41c0-6.26,0-12.5,0-18.86c2.53,0,5,0,7.7,0c0,6.33,0,12.52,0,18.86C53.22,64.41,50.7,64.41,48.06,64.41z M59.29,64.46
			c0-10.39,0-20.68,0-31.09c2.57,0,5.04,0,7.72,0c0,10.26,0,20.54,0,31.09C64.35,64.46,61.88,64.46,59.29,64.46z M78.35,82.31
			C68,82.3,57.64,82.28,47.29,82.27c-0.95,0-1.99,0.1-2.02-1.26c-0.03-1.33,0.97-1.36,1.95-1.36c5.28,0.01,10.57,0,15.85,0
			c0-0.01,0-0.01,0-0.02c5.07,0,10.14,0,15.21,0c0.99,0,2.22-0.18,2.24,1.27C80.55,82.32,79.38,82.31,78.35,82.31z M79.91,43.87
			c2.05-7.56,9.2-13.8,16.56-14.17c0,6.41,0.04,12.68-0.03,18.96c-0.02,1.48,0.44,2.46,1.51,3.5c4.19,4.06,8.25,8.26,12.37,12.41
			c-6.08,4.71-15.55,4.8-22.35,0.27C81.04,60.23,77.78,51.75,79.91,43.87z M113.11,63.27c-4.14-4.17-8.19-8.23-12.44-12.5
			c6.16,0,12.06,0,18.2,0C118.61,55.76,116.57,59.78,113.11,63.27z M119.29,73.04c-0.04,1.37-1.08,1.29-2.01,1.29
			c-4.35,0.01-8.7,0-13.05,0c0,0,0,0.01,0,0.01c-4.35,0-8.7,0-13.05,0c-1.01,0-2.2,0.12-2.26-1.29c-0.06-1.47,1.16-1.35,2.16-1.35
			c8.77,0,17.55,0,26.32-0.01C118.37,71.69,119.34,71.66,119.29,73.04z M109.06,47.84c-3.13,0-6.26,0-9.5,0c0-6.26,0-12.37,0-18.59
			c10.54,0.07,19.05,8.46,18.85,18.59C115.31,47.84,112.19,47.84,109.06,47.84z M117.37,82.29c-8.86-0.01-17.71-0.02-26.57-0.03
			c-0.92,0-1.84-0.14-1.89-1.25c-0.05-1.21,0.94-1.23,1.83-1.24c4.5,0,9,0,13.5,0c0-0.04,0-0.08,0-0.11c4.36,0,8.71,0,13.07,0
			c0.95,0,1.99-0.08,2.01,1.28C119.35,82.29,118.32,82.29,117.37,82.29z M119.72,23.59c-36.57,0-73.17,0-109.76,0
			c-0.69-0.64-0.3-1.34-0.35-2.18c36.74,0,73.36,0,110.08,0C119.95,22.18,119.97,22.8,119.72,23.59z"/>
		<path class="st22" d="M193.44,105.9c3.97,0.06,7.57-3.28,7.68-7.13c0.11-3.98-3.33-7.45-7.47-7.55c-3.83-0.09-7.4,3.45-7.44,7.38
			C186.16,102.35,189.62,105.84,193.44,105.9z"/>
		<path class="st1" d="M87.79,250.52c-1.63,0.06-3.27,0.01-4.9,0.02c-0.67,0-1.23,0.13-1.46,0.92c-0.8,2.75,0.08,4,2.89,3.98
			c0.36,0,0.71,0,1.07,0c0.59,0,1.17-0.02,1.76-0.01c0.2,0,0.39,0.01,0.59,0.02c2.14,0.11,1.63-1.48,1.72-2.66
			C89.54,251.58,89.53,250.45,87.79,250.52z"/>
		<path class="st22" d="M86.09,242.27c0.11-0.93,0.3-1.7-0.12-2.45c-21.11,0-42.21,0-63.26,0c-0.23,0.88-0.28,1.58-0.03,2.45
			C43.9,242.27,64.99,242.27,86.09,242.27z"/>
		<path class="st1" d="M84.39,230.52c0.29,0,0.57,0,0.86,0c4.39,0,4.36,0,4.11-3.47c-0.08-1.06-0.43-1.58-1.52-1.57
			c-1.64,0.02-3.29-0.02-4.93,0c-0.65,0.01-1.24,0.09-1.48,0.91C80.59,229.22,81.5,230.52,84.39,230.52z"/>
		<path class="st1" d="M72.08,230.51c0.29,0,0.57,0,0.86,0c0.71,0,1.43-0.05,2.14,0.01c1.34,0.11,1.93-0.39,1.98-1.8
			c0.12-3.14,0.08-3.24-3.08-3.24c-1.21,0-2.42-0.02-3.64,0.01c-0.68,0.01-1.18,0.23-1.37,1.04C68.29,229.57,69,230.51,72.08,230.51
			z"/>
		<path d="M93.49,264.67c2.76-0.04,4.04-1.29,4.07-4.08c0.05-4.71,0.07-9.43,0.08-14.15c0-2.76-1.24-3.94-4.07-4.05
			c-1.27-0.05-2.56,0.2-3.89-0.24c-0.01-0.78-0.25-1.55,0.26-2.48c1.11,0,2.31,0.01,3.51,0c2.94-0.03,4.14-1.23,4.15-4.18
			c0.01-4.5,0.01-9,0.01-13.5c0-3.45-1.13-4.57-4.6-4.58c-8.22-0.01-16.43,0-24.65,0.01c-17.15,0.01-34.3,0.01-51.44,0.03
			c-4.14,0-4.98,0.86-4.97,5.05c0,4.43,0.01,8.86,0.02,13.29c0.01,2.59,1.12,3.74,3.72,3.95c1.11,0.09,2.27-0.25,3.39,0.32
			c-0.01,0.73,0.2,1.43-0.24,2.37c-0.98,0-1.9-0.02-2.82,0c-3.02,0.08-4.06,1.16-4.06,4.21c0,4.72,0,9.43,0.01,14.15
			c0.01,2.55,1.18,3.76,3.74,3.92c1.11,0.07,2.26-0.23,3.34,0.24c0.04,0.83,0.24,1.61-0.25,2.49c-0.87,0-1.78-0.02-2.69,0
			c-2.88,0.06-4.11,1.32-4.12,4.22c0,4.64-0.02,9.29,0,13.93c0.01,2.96,1.19,4.13,4.17,4.13c25.79,0.01,51.59,0.01,77.38-0.01
			c2.72,0,3.99-1.2,4.01-3.86c0.04-4.93,0.03-9.86-0.01-14.79c-0.02-2.25-1.36-3.52-3.64-3.56c-1.4-0.03-2.8-0.01-4.2-0.01
			c-0.11-1.1-0.32-1.93,0.18-2.83C91.07,264.67,92.28,264.69,93.49,264.67z M87.72,255.45c-0.19-0.01-0.39-0.02-0.59-0.02
			c-0.59-0.01-1.17,0.01-1.76,0.01c-0.36,0-0.71,0-1.07,0c-2.81,0.02-3.69-1.23-2.89-3.98c0.23-0.8,0.79-0.92,1.46-0.92
			c1.64-0.01,3.27,0.04,4.9-0.02c1.74-0.06,1.75,1.06,1.65,2.27C89.35,253.97,89.87,255.57,87.72,255.45z M81.43,226.39
			c0.24-0.82,0.83-0.91,1.48-0.91c1.64-0.01,3.29,0.02,4.93,0c1.1-0.01,1.45,0.51,1.52,1.57c0.25,3.47,0.28,3.47-4.11,3.47
			c-0.29,0-0.57,0-0.86,0C81.5,230.52,80.59,229.22,81.43,226.39z M68.97,226.52c0.18-0.81,0.68-1.03,1.37-1.04
			c1.21-0.02,2.42-0.01,3.64-0.01c3.15,0,3.2,0.11,3.08,3.24c-0.05,1.41-0.65,1.91-1.98,1.8c-0.71-0.06-1.43-0.01-2.14-0.01
			c-0.29,0-0.57,0-0.86,0C69,230.51,68.29,229.57,68.97,226.52z M22.71,239.82c21.06,0,42.15,0,63.26,0
			c0.42,0.76,0.23,1.52,0.12,2.45c-21.1,0-42.19,0-63.41,0C22.43,241.4,22.48,240.7,22.71,239.82z M77.02,254.51
			c-0.23,0.76-0.72,0.97-1.44,0.95c-0.85-0.02-1.71-0.01-2.56-0.01c0,0,0,0.01,0,0.01c-0.57,0-1.15-0.07-1.7,0.01
			c-1.94,0.28-2.34-0.62-2.4-2.42c-0.07-2.13,0.68-2.81,2.68-2.54c0.84,0.11,1.7,0.02,2.56,0.02
			C76.93,250.53,77.84,251.82,77.02,254.51z M22.79,264.75c21.07,0,42.12,0,63.31,0c0,0.99,0,1.75,0,2.62c-21.14,0-42.18,0-63.25,0
			C22.48,266.5,22.54,265.69,22.79,264.75z M77.19,277.85c-0.03,0.38-0.05,0.7-0.08,0.97c-0.17,1.46-0.6,1.47-4.01,1.46
			c-0.43,0-0.86-0.06-1.28,0.01c-2.14,0.32-2.88-0.51-2.83-2.71c0.04-1.91,0.64-2.59,2.51-2.36c0.98,0.12,2,0.11,2.99,0.01
			C76.47,275.03,77.36,275.68,77.19,277.85z M89.55,278.06c0,0.14,0,0.27-0.01,0.39c-0.04,1.85-0.28,1.84-4.04,1.82
			c-0.5,0-1.01-0.07-1.5,0.01c-2.11,0.33-2.65-0.61-2.66-2.62c0-1.83,0.41-2.69,2.37-2.46c0.98,0.12,2,0.02,2.99,0.02
			C89.58,275.22,89.59,275.23,89.55,278.06z"/>
		<path d="M132.82,155.33c-4.62,0-9.24,0-13.76,0c-0.55-0.94-0.35-1.74-0.34-2.51c0.01-6.43,0.05-12.86,0.06-19.3
			c0-2.81-0.59-3.4-3.39-3.4c-8.15-0.01-16.3,0-24.44,0c-9.64,0-19.28,0-29.28,0c0-3.66,0.02-7.08-0.01-10.5
			c-0.02-2.45-0.79-3.27-3.16-3.28c-11.08-0.02-22.16-0.02-33.23,0c-2.37,0-3.18,0.87-3.19,3.25c-0.01,6.36-0.01,12.72-0.01,19.08
			c0,3.55,0.52,4.09,4.07,4.11c4.77,0.02,9.53,0.01,14.4,0.01c0,4.35,0,8.45,0,12.75c-5.1,0-10.09-0.01-15.07,0
			c-2.51,0.01-3.31,0.83-3.31,3.34c-0.01,6.36-0.01,12.72-0.01,19.08c0,2.53,0.66,3.26,3.09,3.26c11.29,0.02,22.59-0.01,33.88,0.04
			c2,0.01,2.9-0.79,2.85-2.79c-0.05-2.41-0.01-4.83-0.01-7.35c11.74,0,23.27,0,35.07,0c0,2.63,0,5.11,0,7.6
			c0,2.36,0.65,3.12,3.02,3.13c11.15,0.05,22.3,0.06,33.45,0.04c2.43,0,3.19-0.86,3.2-3.27c0.03-6.5,0.04-13.01,0.05-19.51
			C136.72,155.83,136.19,155.32,132.82,155.33z M25.55,139.44c0-6.58,0-13.16,0-19.85c10.92,0,21.74,0,32.71,0
			c0,6.65,0,13.19,0,19.85C47.34,139.44,36.52,139.44,25.55,139.44z M97.02,158.94c0,2.84,0,5.68,0,8.65c-11.72,0-23.27,0-35.05,0
			c0-2.99,0-5.89,0-8.79c0-2.67-0.62-3.31-3.23-3.31c-4.85,0-9.7,0-14.67,0c0-4.22,0-8.32,0-12.68c3.77,0,7.46,0.02,11.15-0.01
			c6.14-0.05,6.63,0.51,6.49-6.26c-0.02-0.98,0-1.96,0-3.09c17.99,0,35.74,0,53.6,0c0,7.34,0,14.52,0,21.92
			c-4.97,0-9.81-0.01-14.65,0C97.48,155.39,97.02,155.86,97.02,158.94z M133.28,178.54c-10.99,0-21.88,0-32.88,0
			c0-6.64,0-13.17,0-19.87c11,0,21.87,0,32.88,0C133.28,165.5,133.28,171.97,133.28,178.54z"/>
		<path d="M186.76,224.89c-0.61-0.17-1.04-0.34-1.5,0.24c-0.63,0.79-1.62,1.26-2.03,2.23c8.65,14.14,4.56,29.72-6.44,38.19
			c-11.35,8.73-27.83,7.99-38.22-1.83c-10.28-9.72-12.02-24.92-4.14-36.32c3.99-5.77,9.41-9.59,16.14-11.47
			c9.34-2.6,17.88-0.48,25.78,4.76c0.61-0.69,1.65-1.04,1.07-2.12c-0.99-1.85-0.98-3.81-0.69-5.77c-0.2-0.17-0.33-0.31-0.49-0.41
			c-0.33-0.2-0.67-0.38-1.01-0.56c-7.38-3.89-15.19-4.85-23.37-3.56c-21.9,3.47-35.23,26.13-27.59,46.91
			c6.57,17.84,26.32,27.52,45.13,22.11c19.75-5.68,30.65-26.48,24.02-45.68C192.25,228.22,190.29,225.85,186.76,224.89z"/>
		<path d="M169.41,227.39c0.75-0.66,1.54-1.27,2.37-1.95c-9.51-6.89-23.18-5.21-30.46,3.38c-7.71,9.1-7.16,21.78,1.3,30.12
			c8.3,8.17,22.25,8.53,31.1,0.97c9.99-8.54,9.07-22.08,4.13-28.68c-0.97,1.28-1.75,2.58-2.79,3.62c-0.92,0.92-1.18,1.65-0.77,2.96
			c3.8,12.2-5.74,23.1-18.4,21.09c-7.44-1.18-12.83-6.9-13.57-14.41c-0.69-7.01,3.61-13.64,10.51-16.21
			c4.89-1.82,9.57-1.16,14.22,1.34C167.91,228.79,168.64,228.07,169.41,227.39z"/>
		<path d="M194.4,200.74c-3.55,3.38-6.75,6.34-9.85,9.4c-3.36,3.33-3.31,3.37-0.99,7.72c-0.26,0.29-0.42,0.48-0.59,0.66
			c-5.93,6.32-12.39,12.12-18.51,18.26c-1.72,1.73-3.39,3.5-5.06,5.29c-0.54,0.57-0.67,1.26-0.06,1.89c0.61,0.63,1.26,0.5,1.87-0.03
			c0.49-0.42,0.99-0.82,1.45-1.27c6.49-6.31,12.97-12.64,19.45-18.95c1.19-1.16,2.42-2.27,3.54-3.32c1.29,0.51,2.37,0.89,3.43,1.36
			c1.46,0.64,2.59,0.4,3.72-0.84c1.76-1.95,3.7-3.74,5.57-5.6c1.62-1.61,3.25-3.22,5.15-5.1c-3.13-0.83-6.04-0.15-9.12-0.78
			C194.4,206.68,194.4,203.93,194.4,200.74z"/>
		<path d="M162.51,234.93c-4.87-1.94-9.5-0.5-11.89,3.18c-2.44,3.75-1.91,8.5,1.31,11.62c3.34,3.25,8.63,3.64,12.59,0.92
			c2.93-2.01,4.47-6.07,3.3-8.78c-1.58,1.41-3.09,2.89-4.72,4.21c-2.17,1.74-4.85,1.65-6.44-0.09c-1.68-1.83-1.62-3.97,0.46-6.15
			C158.68,238.18,160.49,236.74,162.51,234.93z"/>
		<path d="M65.49,92.86c19.01,0,38.03,0,57.04,0c5.59,0,8.3-2.67,8.3-8.21c0.01-25.52,0-51.04,0.05-76.56
			c0.01-5.06-3.38-8.16-8.15-8.09c-13.29,0.18-26.59,0.06-39.89,0.06c-25.09,0-50.18,0-75.27,0.02C2.83,0.08,0,2.76,0,7.16
			c0.01,25.81,0.01,51.61,0.02,77.42c0,5.69,2.56,8.27,8.21,8.27C27.32,92.86,46.4,92.85,65.49,92.86
			C65.49,92.86,65.49,92.86,65.49,92.86z M30.39,6.24c1.35,0.01,2.23,0.77,2.36,2.32c-0.03,1.34-0.81,2.2-2.17,2.31
			c-1.53,0.12-2.4-0.82-2.41-2.32C28.15,7.15,28.98,6.23,30.39,6.24z M20.68,6.2c1.47,0.18,2.37,0.99,2.34,2.34
			c-0.03,1.43-0.93,2.42-2.45,2.32c-1.37-0.09-2.2-0.98-2.15-2.39C18.48,7.06,19.42,6.39,20.68,6.2z M11.17,6.21
			c1.5,0.06,2.23,1.03,2.32,2.52c-0.19,1.37-0.96,2.19-2.37,2.17c-1.55-0.03-2.32-1.02-2.27-2.47C8.9,7.06,9.76,6.16,11.17,6.21z
			 M7.44,89.1c-2.43,0-3.54-0.94-3.54-3.26c-0.02-22.73,0-45.46,0.02-68.19c0-0.27,0.09-0.54,0.15-0.89c40.91,0,81.75,0,122.91,0
			c0,2.76,0,5.32,0,7.88c0,20.09,0,40.17,0,60.26c0,3.31-0.87,4.2-4.16,4.2C84.35,89.1,45.89,89.1,7.44,89.1z"/>
		<path d="M110.32,64.57c-4.12-4.15-8.17-8.35-12.37-12.41c-1.08-1.04-1.53-2.03-1.51-3.5c0.07-6.28,0.03-12.56,0.03-18.96
			c-7.36,0.38-14.51,6.61-16.56,14.17c-2.14,7.88,1.12,16.37,8.05,20.97C94.77,69.36,104.24,69.28,110.32,64.57z"/>
		<path d="M9.62,21.41c0.05,0.84-0.35,1.54,0.35,2.18c36.58,0,73.19,0,109.76,0c0.25-0.78,0.23-1.41-0.02-2.18
			C82.98,21.41,46.36,21.41,9.62,21.41z"/>
		<path d="M99.57,29.25c0,6.23,0,12.33,0,18.59c3.24,0,6.37,0,9.5,0c3.12,0,6.24,0,9.36,0C118.62,37.71,110.11,29.32,99.57,29.25z"
			/>
		<path d="M59.29,33.37c0,10.4,0,20.7,0,31.09c2.59,0,5.06,0,7.72,0c0-10.54,0-20.83,0-31.09C64.33,33.37,61.86,33.37,59.29,33.37z"
			/>
		<path d="M26.28,41.46c0,7.7,0,15.23,0,22.97c2.72,0,5.24,0,7.85,0c0-7.77,0-15.42,0-22.97C31.44,41.46,28.91,41.46,26.28,41.46z"
			/>
		<path d="M48.06,45.54c0,6.36,0,12.6,0,18.86c2.64,0,5.16,0,7.7,0c0-6.34,0-12.53,0-18.86C53.06,45.54,50.59,45.54,48.06,45.54z"/>
		<path d="M113.11,63.27c3.46-3.5,5.5-7.52,5.77-12.5c-6.14,0-12.04,0-18.2,0C104.92,55.04,108.97,59.11,113.11,63.27z"/>
		<path d="M14.86,50.88c0,4.58,0,9.05,0,13.6c2.62,0,5.1,0,7.83,0c0-4.63,0-9.08,0-13.6C20.01,50.88,17.48,50.88,14.86,50.88z"/>
		<path d="M78.28,79.65c-5.07,0-10.14,0-15.21,0c0,0.01,0,0.01,0,0.02c-5.28,0-10.57,0-15.85,0c-0.98,0-1.97,0.02-1.95,1.36
			c0.03,1.36,1.07,1.26,2.02,1.26C57.64,82.28,68,82.3,78.35,82.31c1.03,0,2.2,0.01,2.17-1.39C80.5,79.46,79.27,79.65,78.28,79.65z"
			/>
		<path d="M37.14,64.39c2.79,0,5.31,0,7.79,0c0-3.96,0-7.76,0-11.55c-2.69,0-5.23,0-7.79,0C37.14,56.73,37.14,60.48,37.14,64.39z"/>
		<path d="M117.31,79.65c-4.36,0-8.71,0-13.07,0c0,0.04,0,0.08,0,0.11c-4.5,0-9,0-13.5,0c-0.89,0-1.88,0.03-1.83,1.24
			c0.04,1.12,0.97,1.25,1.89,1.25c8.86,0.01,17.71,0.03,26.57,0.03c0.95,0,1.98,0,1.96-1.36C119.3,79.57,118.26,79.65,117.31,79.65z
			"/>
		<path d="M45.26,72.92c-0.03,1.44,1.04,1.43,2.1,1.43c5.13-0.02,10.27-0.01,15.4-0.01c0-0.01,0-0.01,0-0.02
			c5.21,0,10.41-0.01,15.62,0.01c0.98,0,1.99,0,2.03-1.28c0.05-1.47-1.07-1.4-2.1-1.4c-10.34,0.01-20.68,0.02-31.02,0.03
			C46.35,71.68,45.29,71.57,45.26,72.92z"/>
		<path d="M91.07,71.7c-1,0-2.22-0.12-2.16,1.35c0.06,1.41,1.25,1.29,2.26,1.29c4.35,0,8.7,0,13.05,0c0,0,0-0.01,0-0.01
			c4.35,0,8.7,0,13.05,0c0.93,0,1.96,0.09,2.01-1.29c0.04-1.38-0.92-1.35-1.9-1.35C108.62,71.7,99.84,71.7,91.07,71.7z"/>
		<path d="M35.37,79.62c-3.35,0.01-6.7,0-10.05,0c0,0.01,0,0.03,0,0.04c-3.49,0-6.99-0.01-10.48,0.01c-0.97,0.01-2.21-0.2-2.24,1.28
			c-0.03,1.49,1.22,1.34,2.19,1.34c6.91,0.01,13.83-0.02,20.74-0.01c0.99,0,2-0.04,2-1.32C37.54,79.5,36.39,79.61,35.37,79.62z"/>
		<path d="M12.63,72.9c0,1.28,0.87,1.43,1.91,1.42c3.5-0.03,7.01-0.01,10.51-0.01c0,0,0,0.01,0,0.01c3.57,0,7.15-0.02,10.72,0.01
			c1,0.01,1.72-0.27,1.71-1.39c-0.01-1.01-0.68-1.26-1.6-1.26c-7.15,0.01-14.3,0-21.45-0.02C13.55,71.66,12.63,71.66,12.63,72.9z"/>
		<path d="M163.84,100.15c-0.02,3.43-0.03,3.43,3.35,3.85c3.46,0.42,5.88,2.79,5.85,5.71c-0.09,1.08-0.86,1.77-1.49,2.53
			c-3,3.62-3.01,3.62,0.41,6.79c0.05,0.05,0.11,0.09,0.16,0.14c4.1,3.83,4.13,3.86,8.48,0.42c1.11-0.88,2.06-1.09,3.26-0.33
			c0.6,0.38,1.27,0.67,1.95,0.86c1.11,0.31,1.54,0.96,1.71,2.12c0.8,5.7,0.84,5.71,6.61,5.7c5.4-0.01,4.77,0.72,5.38-4.83
			c0.15-1.4,0.66-2.27,2.08-3.07c2.9-1.64,5.04-1.17,7.02,1.28c0.22,0.27,0.54,0.47,0.79,0.72c1.11,1.09,2.12,0.88,3.15-0.15
			c1.56-1.56,3.14-3.11,4.75-4.64c1.07-1.02,1.21-2.04,0.21-3.17c-0.61-0.7-1.26-1.37-1.83-2.1c-0.65-0.83-1.42-1.63-1.22-2.85
			c0.61-3.7,1.78-4.79,5.57-5.16c0.43-0.04,0.85-0.06,1.28-0.1c1.54-0.12,2.31-0.82,2.15-2.49c-0.12-1.27-0.01-2.57-0.01-3.86
			c-0.02-5.52,0.56-4.7-4.72-5.15c-3.49-0.3-5.55-4.39-3.59-7.25c3.41-4.98,3.35-3.8-0.81-7.81c-3.25-3.13-2.8-4.33-7.25-0.27
			c-0.77,0.7-1.55,1.5-2.83,1.04c-2.77-0.99-5.4-2.05-4.9-5.8c0.05-0.34-0.12-0.7-0.14-1.06c-0.08-1.4-0.78-2.02-2.21-1.98
			c-2.14,0.07-4.29,0.11-6.43,0c-1.75-0.09-2.47,0.61-2.51,2.33c-0.03,1.06-0.29,2.12-0.52,3.17c-0.55,2.41-4.96,3.9-6.82,2.34
			c-4.17-3.49-4.11-3.43-8.17,0.32c-4.09,3.78-4,3.33-0.58,7.56c0.64,0.79,1.41,1.52,1.05,2.83c-1.06,3.83-1.45,4.25-5.36,4.73
			c-0.64,0.08-1.28,0.19-1.92,0.16c-1.54-0.09-1.99,0.67-1.92,2.1C163.9,96.58,163.85,98.36,163.84,100.15z M193.6,85.15
			c7.35-0.04,13.53,6.08,13.59,13.46c0.06,7.1-6.12,13.17-13.53,13.29c-7.14,0.11-13.4-5.96-13.47-13.06
			C180.11,91.55,186.34,85.2,193.6,85.15z"/>
		<path d="M193.76,108.9c5.66,0.01,10.37-4.5,10.44-10.01c0.07-5.92-4.5-10.6-10.47-10.71c-5.65-0.1-10.52,4.68-10.6,10.4
			C183.06,104.18,187.9,108.88,193.76,108.9z M193.64,91.22c4.14,0.09,7.59,3.57,7.47,7.55c-0.11,3.85-3.71,7.19-7.68,7.13
			c-3.82-0.06-7.28-3.55-7.24-7.3C186.25,94.67,189.82,91.13,193.64,91.22z"/>
	</g>
</g>
</svg>
