<?xml version="1.0" encoding="utf-8"?>
<!-- Generator: Adobe Illustrator 24.3.0, SVG Export Plug-In . SVG Version: 6.00 Build 0)  -->
<svg version="1.1" id="Layer_1" xmlns="http://www.w3.org/2000/svg" xmlns:xlink="http://www.w3.org/1999/xlink" x="0px" y="0px"
	 width="116.4px" height="112px" viewBox="0 0 116.4 112" style="enable-background:new 0 0 116.4 112;" xml:space="preserve">
<style type="text/css">
	.st0{fill:#185AE9;}
	.st1{fill:#00B0FB;}
	.st2{fill-rule:evenodd;clip-rule:evenodd;fill:#00B0FB;}
	.st3{fill:#00B0FB;fill-opacity:0.4;}
	.st4{fill:#FFFFFF;}
	.st5{fill:none;}
	.st6{fill:#001135;}
	.st7{fill:#3C7CFF;}
</style>
<g>
	<circle class="st6" cx="58.2" cy="59.1" r="14.9"/>
	<path class="st4" d="M13.9,35.2c0.3,0.3,0.5,0.7,0.4,1.2l-0.6,3.3c-0.1,0.4,0.1,0.8,0.4,1c0.2,0.1,0.4,0.2,0.6,0.2
		c0.2,0,0.3,0,0.5-0.1l3-1.6c0.2-0.1,0.4-0.2,0.6-0.2c0.2,0,0.4,0.1,0.6,0.2l3,1.6c0.1,0.1,0.3,0.1,0.5,0.1c0.2,0,0.4-0.1,0.6-0.2
		c0.3-0.2,0.5-0.6,0.4-1l-0.6-3.3c-0.1-0.4,0.1-0.9,0.4-1.2l2.4-2.3c0.3-0.3,0.4-0.7,0.3-1c-0.1-0.4-0.4-0.6-0.8-0.7l-3.3-0.5
		c-0.4-0.1-0.8-0.3-1-0.7l-1.5-3c-0.2-0.3-0.5-0.6-0.9-0.6c0,0,0,0,0,0c-0.4,0-0.7,0.2-0.9,0.6l-1.5,3c-0.2,0.4-0.6,0.7-1,0.7
		L12,31.1c-0.4,0.1-0.7,0.3-0.8,0.7c-0.1,0.4,0,0.8,0.3,1L13.9,35.2z"/>
	<path class="st4" d="M50.9,20.1c0.3,0.3,0.5,0.7,0.4,1.2l-1.1,6.5c-0.1,0.4,0.1,0.8,0.4,1c0.2,0.1,0.4,0.2,0.6,0.2
		c0.2,0,0.3,0,0.5-0.1l5.9-3.1c0.2-0.1,0.4-0.2,0.6-0.2c0.2,0,0.4,0.1,0.6,0.2l5.9,3.1c0.1,0.1,0.3,0.1,0.5,0.1
		c0.2,0,0.4-0.1,0.6-0.2c0.3-0.2,0.5-0.6,0.4-1l-1.1-6.5c-0.1-0.4,0.1-0.9,0.4-1.2l4.7-4.6c0.3-0.3,0.4-0.7,0.3-1
		c-0.1-0.4-0.4-0.6-0.8-0.7l-6.5-1c-0.4-0.1-0.8-0.3-1-0.7l-2.9-6c-0.2-0.3-0.5-0.6-0.9-0.6s-0.7,0.2-0.9,0.6l-2.9,6
		c-0.2,0.4-0.6,0.7-1,0.7l-6.5,1c-0.4,0.1-0.7,0.3-0.8,0.7c-0.1,0.4,0,0.8,0.3,1L50.9,20.1z"/>
	<path class="st4" d="M92.5,35.2c0.3,0.3,0.5,0.7,0.4,1.2l-0.6,3.3c-0.1,0.4,0.1,0.8,0.4,1c0.2,0.1,0.4,0.2,0.6,0.2
		c0.2,0,0.3,0,0.5-0.1l3-1.6c0.2-0.1,0.4-0.2,0.6-0.2c0.2,0,0.4,0.1,0.6,0.2l3,1.6c0.1,0.1,0.3,0.1,0.5,0.1c0.2,0,0.4-0.1,0.6-0.2
		c0.3-0.2,0.5-0.6,0.4-1l-0.6-3.3c-0.1-0.4,0.1-0.9,0.4-1.2l2.4-2.3c0.3-0.3,0.4-0.7,0.3-1c-0.1-0.4-0.4-0.6-0.8-0.7l-3.3-0.5
		c-0.4-0.1-0.8-0.3-1-0.7l-1.5-3c-0.2-0.3-0.5-0.6-0.9-0.6c0,0,0,0,0,0c-0.4,0-0.7,0.2-0.9,0.6l-1.5,3c-0.2,0.4-0.6,0.7-1,0.7
		l-3.3,0.5c-0.4,0.1-0.7,0.3-0.8,0.7c-0.1,0.4,0,0.8,0.3,1L92.5,35.2z"/>
	<circle class="st7" cx="95.9" cy="68.4" r="10.2"/>
	<circle class="st7" cx="20.5" cy="68.4" r="10.2"/>
	<path class="st6" d="M75.3,91.3c-4.6-4.6-10.6-7.1-17.1-7.1c-8.5,0-16.4,4.5-20.8,11.8c-2.2,3.7-3.4,8-3.4,12.3c0,0.6,0.4,1,1,1
		h46.2c0.6,0,1-0.4,1-1c0-4.3-1.2-8.6-3.4-12.3C77.9,94.3,76.7,92.7,75.3,91.3z M58.2,93.5c-0.7,0-1.3-0.6-1.3-1.3s0.6-1.3,1.3-1.3
		s1.3,0.6,1.3,1.3S58.9,93.5,58.2,93.5z M73.4,102.6c-0.2,0.1-0.4,0.1-0.6,0.1c-0.5,0-1-0.3-1.2-0.7c-1.2-2.5-3-4.6-5.3-6.1
		c-0.6-0.4-0.8-1.2-0.4-1.8c0.2-0.4,0.7-0.6,1.1-0.6c0.3,0,0.5,0.1,0.7,0.2c2.7,1.8,4.8,4.2,6.2,7.1C74.3,101.5,74,102.3,73.4,102.6
		z"/>
	<path class="st7" d="M34.3,95c-3.3-3.8-8.6-6.1-13.8-6.1c-9.7,0-17.9,7.9-17.9,17.2v2.3c0,0.6,0.4,1,1,1h26.8c0.6,0,1-0.4,1-1
		c0-4.3,1-8.5,3-12.3C34.6,95.7,34.6,95.3,34.3,95z"/>
	<path class="st7" d="M95.9,88.9c-5.2,0-10.5,2.3-13.8,6.1c-0.3,0.3-0.3,0.8-0.1,1.1c2,3.8,3,8,3,12.3c0,0.6,0.4,1,1,1h26.8
		c0.6,0,1-0.4,1-1v-2.3C113.8,96.7,105.6,88.9,95.9,88.9z"/>
	<g>
		<circle class="st6" cx="58.2" cy="92.2" r="1.3"/>
		<path class="st6" d="M95.9,81.3c7.1,0,12.9-5.8,12.9-12.9S103,55.5,95.9,55.5S83,61.3,83,68.4S88.8,81.3,95.9,81.3z M95.9,58.1
			c5.7,0,10.2,4.6,10.2,10.3s-4.6,10.2-10.2,10.2S85.6,74,85.6,68.4S90.2,58.1,95.9,58.1z"/>
		<path class="st6" d="M95.9,86.3c-5.5,0-11.1,2.3-14.9,6.1c-0.2,0.2-0.4,0.3-0.7,0.3c0,0,0,0-0.1,0c-0.3,0-0.6-0.2-0.7-0.4
			c-0.7-1-1.5-1.9-2.4-2.7c-5-5.1-11.8-7.8-18.9-7.8c-4.7,0-9.4,1.2-13.4,3.6c-3.1,1.8-5.7,4.1-7.9,7c-0.2,0.2-0.4,0.4-0.7,0.4
			c0,0,0,0-0.1,0c-0.3,0-0.5-0.1-0.7-0.3c-3.8-3.8-9.4-6.1-14.9-6.1C9.4,86.3,0,95.3,0,106.1v4.6c0,0.7,0.6,1.3,1.3,1.3h113.8
			c0.7,0,1.3-0.6,1.3-1.3v-4.6C116.4,95.3,107,86.3,95.9,86.3z M30.5,109.4H3.6c-0.6,0-1-0.4-1-1v-2.3c0-9.3,8.2-17.2,17.9-17.2
			c5.2,0,10.5,2.3,13.8,6.1c0.3,0.3,0.3,0.8,0.1,1.1c-2,3.8-3,8-3,12.3C31.5,108.9,31,109.4,30.5,109.4z M81.3,109.4H35.1
			c-0.6,0-1-0.4-1-1c0-4.3,1.2-8.6,3.4-12.3c4.3-7.3,12.3-11.8,20.8-11.8c6.4,0,12.5,2.5,17.1,7.1c1.4,1.4,2.7,3,3.7,4.8
			c2.2,3.7,3.4,8,3.4,12.3C82.3,108.9,81.9,109.4,81.3,109.4z M113.8,108.4c0,0.6-0.4,1-1,1H86c-0.6,0-1-0.4-1-1c0-4.3-1-8.5-3-12.3
			c-0.2-0.4-0.1-0.8,0.1-1.1c3.3-3.8,8.6-6.1,13.8-6.1c9.7,0,17.9,7.9,17.9,17.2V108.4z"/>
		<path class="st6" d="M20.5,55.5c-7.1,0-12.9,5.8-12.9,12.9s5.8,12.9,12.9,12.9s12.9-5.8,12.9-12.9S27.6,55.5,20.5,55.5z
			 M20.5,78.6c-5.7,0-10.2-4.6-10.2-10.2s4.6-10.3,10.2-10.3s10.2,4.6,10.2,10.3S26.2,78.6,20.5,78.6z"/>
		<path class="st6" d="M58.2,41.6c-9.6,0-17.5,7.9-17.5,17.5s7.9,17.5,17.5,17.5s17.5-7.9,17.5-17.5S67.8,41.6,58.2,41.6z M58.2,74
			c-8.2,0-14.9-6.7-14.9-14.9S50,44.3,58.2,44.3s14.9,6.7,14.9,14.9S66.4,74,58.2,74z"/>
		<path class="st6" d="M48.2,21.1c0.2,0.2,0.3,0.6,0.3,0.9L46.8,32c-0.1,0.5,0.1,1,0.5,1.3c0.2,0.2,0.5,0.2,0.8,0.2
			c0.2,0,0.4-0.1,0.6-0.2l8.9-4.7c0.1-0.1,0.3-0.1,0.5-0.1s0.3,0,0.5,0.1l8.9,4.7c0.2,0.1,0.4,0.2,0.6,0.2c0.3,0,0.5-0.1,0.8-0.2
			c0.4-0.3,0.6-0.8,0.5-1.3L67.7,22c-0.1-0.3,0.1-0.7,0.3-0.9l7.2-7c0.4-0.4,0.5-0.9,0.3-1.3c-0.2-0.5-0.6-0.8-1.1-0.9l-10-1.4
			c-0.3,0-0.6-0.3-0.8-0.5l-4.5-9.1C59.1,0.3,58.6,0,58.1,0s-1,0.3-1.2,0.7l-4.5,9.1c-0.1,0.3-0.4,0.5-0.8,0.5l-10,1.4
			c-0.5,0.1-0.9,0.4-1.1,0.9c-0.2,0.5,0,1,0.3,1.3L48.2,21.1z M46,14.5c0.1-0.4,0.4-0.6,0.8-0.7l6.5-1c0.4-0.1,0.8-0.3,1-0.7l2.9-6
			c0.2-0.3,0.5-0.6,0.9-0.6s0.7,0.2,0.9,0.6l2.9,6c0.2,0.4,0.6,0.7,1,0.7l6.5,1c0.4,0.1,0.7,0.3,0.8,0.7c0.1,0.4,0,0.8-0.3,1
			l-4.7,4.6c-0.3,0.3-0.5,0.7-0.4,1.2l1.1,6.5c0.1,0.4-0.1,0.8-0.4,1C65.5,28.9,65.3,29,65,29c-0.2,0-0.3,0-0.5-0.1l-5.9-3.1
			c-0.2-0.1-0.4-0.2-0.6-0.2c-0.2,0-0.4,0.1-0.6,0.2l-5.9,3.1c-0.1,0.1-0.3,0.1-0.5,0.1c-0.2,0-0.4-0.1-0.6-0.2
			c-0.3-0.2-0.5-0.6-0.4-1l1.1-6.5c0.1-0.4-0.1-0.9-0.4-1.2l-4.7-4.6C45.9,15.2,45.8,14.8,46,14.5z"/>
		<path class="st6" d="M89.8,36.2c0.2,0.2,0.3,0.6,0.3,0.9l-1.2,6.7c-0.1,0.5,0.1,1,0.5,1.3c0.2,0.2,0.5,0.2,0.8,0.2
			c0.2,0,0.4-0.1,0.6-0.1l6-3.2c0.1-0.1,0.3-0.1,0.5-0.1s0.3,0,0.5,0.1l6,3.2c0.2,0.1,0.4,0.2,0.6,0.2c0.3,0,0.5-0.1,0.8-0.3
			c0.4-0.3,0.6-0.8,0.5-1.3l-1.2-6.7c-0.1-0.3,0.1-0.7,0.3-0.9l4.9-4.8c0.4-0.4,0.5-0.9,0.3-1.3c-0.2-0.5-0.6-0.8-1.1-0.9l-6.8-1
			c-0.3,0-0.6-0.3-0.8-0.5l-3-6.1c-0.2-0.4-0.7-0.7-1.2-0.7c-0.5,0-1,0.3-1.2,0.7l-3,6.1c-0.1,0.3-0.4,0.5-0.8,0.5l-6.8,1
			c-0.5,0.1-0.9,0.4-1.1,0.9c-0.2,0.5,0,1,0.3,1.3L89.8,36.2z M89.8,31.8c0.1-0.4,0.4-0.6,0.8-0.7l3.3-0.5c0.4-0.1,0.8-0.3,1-0.7
			l1.5-3c0.2-0.3,0.5-0.6,0.9-0.6c0,0,0,0,0,0c0.4,0,0.7,0.2,0.9,0.6l1.5,3c0.2,0.4,0.6,0.7,1,0.7l3.3,0.5c0.4,0.1,0.7,0.3,0.8,0.7
			c0.1,0.4,0,0.8-0.3,1l-2.4,2.3c-0.3,0.3-0.5,0.7-0.4,1.2l0.6,3.3c0.1,0.4-0.1,0.8-0.4,1c-0.2,0.1-0.4,0.2-0.6,0.2
			c-0.2,0-0.3,0-0.5-0.1l-3-1.6C97.8,39,97.6,39,97.3,39c-0.2,0-0.4,0.1-0.6,0.2l-3,1.6c-0.1,0.1-0.3,0.1-0.5,0.1
			c-0.2,0-0.4-0.1-0.6-0.2c-0.3-0.2-0.5-0.6-0.4-1l0.6-3.3c0.1-0.4-0.1-0.9-0.4-1.2l-2.4-2.3C89.8,32.6,89.7,32.2,89.8,31.8z"/>
		<path class="st6" d="M11.2,36.2c0.2,0.2,0.3,0.6,0.3,0.9l-1.2,6.7c-0.1,0.5,0.1,1,0.5,1.3c0.2,0.2,0.5,0.2,0.8,0.2
			c0.2,0,0.4-0.1,0.6-0.1l6-3.2c0.1-0.1,0.3-0.1,0.5-0.1s0.3,0,0.5,0.1l6,3.2c0.2,0.1,0.4,0.2,0.6,0.2c0.3,0,0.5-0.1,0.8-0.3
			c0.4-0.3,0.6-0.8,0.5-1.3L26,37.1c-0.1-0.3,0.1-0.7,0.3-0.9l4.9-4.8c0.4-0.4,0.5-0.9,0.3-1.3c-0.2-0.5-0.6-0.8-1.1-0.9l-6.8-1
			c-0.3,0-0.6-0.3-0.8-0.5l-3-6.1c-0.2-0.4-0.7-0.7-1.2-0.7c-0.5,0-1,0.3-1.2,0.7l-3,6.1c-0.1,0.3-0.4,0.5-0.8,0.5l-6.8,1
			c-0.5,0.1-0.9,0.4-1.1,0.9c-0.2,0.5,0,1,0.3,1.3L11.2,36.2z M11.2,31.8c0.1-0.4,0.4-0.6,0.8-0.7l3.3-0.5c0.4-0.1,0.8-0.3,1-0.7
			l1.5-3c0.2-0.3,0.5-0.6,0.9-0.6c0,0,0,0,0,0c0.4,0,0.7,0.2,0.9,0.6l1.5,3c0.2,0.4,0.6,0.7,1,0.7l3.3,0.5c0.4,0.1,0.7,0.3,0.8,0.7
			c0.1,0.4,0,0.8-0.3,1l-2.4,2.3c-0.3,0.3-0.5,0.7-0.4,1.2l0.6,3.3c0.1,0.4-0.1,0.8-0.4,1c-0.2,0.1-0.4,0.2-0.6,0.2
			c-0.2,0-0.3,0-0.5-0.1l-3-1.6C19.1,39,18.9,39,18.7,39c-0.2,0-0.4,0.1-0.6,0.2l-3,1.6c-0.1,0.1-0.3,0.1-0.5,0.1
			c-0.2,0-0.4-0.1-0.6-0.2c-0.3-0.2-0.5-0.6-0.4-1l0.6-3.3c0.1-0.4-0.1-0.9-0.4-1.2l-2.4-2.3C11.2,32.6,11.1,32.2,11.2,31.8z"/>
		<path class="st6" d="M67.8,93.7c-0.2-0.1-0.5-0.2-0.7-0.2c-0.4,0-0.9,0.2-1.1,0.6c-0.4,0.6-0.2,1.4,0.4,1.8
			c2.3,1.5,4.1,3.6,5.3,6.1c0.2,0.5,0.7,0.7,1.2,0.7c0.2,0,0.4,0,0.6-0.1c0.7-0.3,0.9-1.1,0.6-1.7C72.6,98,70.5,95.5,67.8,93.7z"/>
	</g>
	<circle class="st4" cx="58.2" cy="92.2" r="1.3"/>
	<path class="st6" d="M95.9,81.2c7.1,0,12.9-5.8,12.9-12.9S103,55.5,95.9,55.5S83,61.3,83,68.4S88.8,81.2,95.9,81.2z M95.9,58.1
		c5.7,0,10.2,4.6,10.2,10.2s-4.6,10.2-10.2,10.2S85.6,74,85.6,68.4S90.2,58.1,95.9,58.1z"/>
	<path class="st6" d="M95.9,86.2c-5.5,0-11.1,2.3-14.9,6.1c-0.2,0.2-0.4,0.3-0.7,0.3c0,0,0,0-0.1,0c-0.3,0-0.6-0.2-0.7-0.4
		c-0.7-1-1.5-1.9-2.4-2.7c-5-5.1-11.8-7.8-18.9-7.8c-4.7,0-9.4,1.2-13.4,3.6c-3.1,1.8-5.7,4.1-7.9,7c-0.2,0.2-0.4,0.4-0.7,0.4
		c0,0,0,0-0.1,0c-0.3,0-0.5-0.1-0.7-0.3c-3.8-3.8-9.4-6.1-14.9-6.1C9.4,86.2,0,95.3,0,106.1v4.6c0,0.7,0.6,1.3,1.3,1.3h113.8
		c0.7,0,1.3-0.6,1.3-1.3v-4.6C116.4,95.3,107,86.2,95.9,86.2z M30.5,109.4H3.6c-0.6,0-1-0.4-1-1v-2.3c0-9.3,8.2-17.2,17.9-17.2
		c5.2,0,10.5,2.3,13.8,6.1c0.3,0.3,0.3,0.8,0.1,1.1c-2,3.8-3,8-3,12.3C31.5,108.9,31,109.4,30.5,109.4z M81.3,109.4H35.1
		c-0.6,0-1-0.4-1-1c0-4.3,1.2-8.6,3.4-12.3c4.3-7.3,12.3-11.8,20.8-11.8c6.4,0,12.5,2.5,17.1,7.1c1.4,1.4,2.7,3,3.7,4.8
		c2.2,3.7,3.4,8,3.4,12.3C82.3,108.9,81.9,109.4,81.3,109.4z M113.8,108.4c0,0.6-0.4,1-1,1H86c-0.6,0-1-0.4-1-1c0-4.3-1-8.5-3-12.3
		c-0.2-0.4-0.1-0.8,0.1-1.1c3.3-3.8,8.6-6.1,13.8-6.1c9.7,0,17.9,7.9,17.9,17.2V108.4z"/>
	<path class="st6" d="M20.5,55.5c-7.1,0-12.9,5.8-12.9,12.9s5.8,12.9,12.9,12.9s12.9-5.8,12.9-12.9S27.6,55.5,20.5,55.5z M20.5,78.6
		c-5.7,0-10.2-4.6-10.2-10.2s4.6-10.2,10.2-10.2s10.2,4.6,10.2,10.2S26.2,78.6,20.5,78.6z"/>
	<path class="st6" d="M58.2,41.6c-9.6,0-17.5,7.9-17.5,17.5s7.9,17.5,17.5,17.5s17.5-7.9,17.5-17.5S67.8,41.6,58.2,41.6z M58.2,74
		c-8.2,0-14.9-6.7-14.9-14.9S50,44.2,58.2,44.2s14.9,6.7,14.9,14.9S66.4,74,58.2,74z"/>
	<path class="st6" d="M48.2,21.1c0.2,0.2,0.3,0.6,0.3,0.9L46.8,32c-0.1,0.5,0.1,1,0.5,1.3c0.2,0.2,0.5,0.2,0.8,0.2
		c0.2,0,0.4-0.1,0.6-0.2l8.9-4.7c0.1-0.1,0.3-0.1,0.5-0.1s0.3,0,0.5,0.1l8.9,4.7c0.2,0.1,0.4,0.2,0.6,0.2c0.3,0,0.5-0.1,0.8-0.2
		c0.4-0.3,0.6-0.8,0.5-1.3L67.7,22c-0.1-0.3,0.1-0.7,0.3-0.9l7.2-7c0.4-0.4,0.5-0.9,0.3-1.3c-0.2-0.5-0.6-0.8-1.1-0.9l-10-1.4
		c-0.3,0-0.6-0.3-0.8-0.5l-4.5-9.1C59.1,0.3,58.6,0,58.1,0s-1,0.3-1.2,0.7l-4.5,9.1c-0.1,0.3-0.4,0.5-0.8,0.5l-10,1.4
		c-0.5,0.1-0.9,0.4-1.1,0.9c-0.2,0.5,0,1,0.3,1.3L48.2,21.1z M46,14.5c0.1-0.4,0.4-0.6,0.8-0.7l6.5-1c0.4-0.1,0.8-0.3,1-0.7l2.9-6
		c0.2-0.3,0.5-0.6,0.9-0.6s0.7,0.2,0.9,0.6l2.9,6c0.2,0.4,0.6,0.7,1,0.7l6.5,1c0.4,0.1,0.7,0.3,0.8,0.7c0.1,0.4,0,0.8-0.3,1
		l-4.7,4.6c-0.3,0.3-0.5,0.7-0.4,1.2l1.1,6.5c0.1,0.4-0.1,0.8-0.4,1C65.5,28.9,65.3,29,65,29c-0.2,0-0.3,0-0.5-0.1l-5.9-3.1
		c-0.2-0.1-0.4-0.2-0.6-0.2c-0.2,0-0.4,0.1-0.6,0.2l-5.9,3.1c-0.1,0.1-0.3,0.1-0.5,0.1c-0.2,0-0.4-0.1-0.6-0.2
		c-0.3-0.2-0.5-0.6-0.4-1l1.1-6.5c0.1-0.4-0.1-0.9-0.4-1.2l-4.7-4.6C45.9,15.2,45.8,14.8,46,14.5z"/>
	<path class="st6" d="M89.8,36.2c0.2,0.2,0.3,0.6,0.3,0.9l-1.2,6.7c-0.1,0.5,0.1,1,0.5,1.3c0.2,0.2,0.5,0.2,0.8,0.2
		c0.2,0,0.4-0.1,0.6-0.1l6-3.2c0.1-0.1,0.3-0.1,0.5-0.1s0.3,0,0.5,0.1l6,3.2c0.2,0.1,0.4,0.2,0.6,0.2c0.3,0,0.5-0.1,0.8-0.3
		c0.4-0.3,0.6-0.8,0.5-1.3l-1.2-6.7c-0.1-0.3,0.1-0.7,0.3-0.9l4.9-4.8c0.4-0.4,0.5-0.9,0.3-1.3c-0.2-0.5-0.6-0.8-1.1-0.9l-6.8-1
		c-0.3,0-0.6-0.3-0.8-0.5l-3-6.1c-0.2-0.4-0.7-0.7-1.2-0.7c-0.5,0-1,0.3-1.2,0.7l-3,6.1c-0.1,0.3-0.4,0.5-0.8,0.5l-6.8,1
		c-0.5,0.1-0.9,0.4-1.1,0.9c-0.2,0.5,0,1,0.3,1.3L89.8,36.2z M89.8,31.8c0.1-0.4,0.4-0.6,0.8-0.7l3.3-0.5c0.4-0.1,0.8-0.3,1-0.7
		l1.5-3c0.2-0.3,0.5-0.6,0.9-0.6c0,0,0,0,0,0c0.4,0,0.7,0.2,0.9,0.6l1.5,3c0.2,0.4,0.6,0.7,1,0.7l3.3,0.5c0.4,0.1,0.7,0.3,0.8,0.7
		c0.1,0.4,0,0.8-0.3,1l-2.4,2.3c-0.3,0.3-0.5,0.7-0.4,1.2l0.6,3.3c0.1,0.4-0.1,0.8-0.4,1c-0.2,0.1-0.4,0.2-0.6,0.2
		c-0.2,0-0.3,0-0.5-0.1l-3-1.6C97.8,39,97.6,39,97.3,39c-0.2,0-0.4,0.1-0.6,0.2l-3,1.6c-0.1,0.1-0.3,0.1-0.5,0.1
		c-0.2,0-0.4-0.1-0.6-0.2c-0.3-0.2-0.5-0.6-0.4-1l0.6-3.3c0.1-0.4-0.1-0.9-0.4-1.2l-2.4-2.3C89.8,32.6,89.7,32.2,89.8,31.8z"/>
	<path class="st6" d="M11.2,36.2c0.2,0.2,0.3,0.6,0.3,0.9l-1.2,6.7c-0.1,0.5,0.1,1,0.5,1.3c0.2,0.2,0.5,0.2,0.8,0.2
		c0.2,0,0.4-0.1,0.6-0.1l6-3.2c0.1-0.1,0.3-0.1,0.5-0.1s0.3,0,0.5,0.1l6,3.2c0.2,0.1,0.4,0.2,0.6,0.2c0.3,0,0.5-0.1,0.8-0.3
		c0.4-0.3,0.6-0.8,0.5-1.3L26,37.1c-0.1-0.3,0.1-0.7,0.3-0.9l4.9-4.8c0.4-0.4,0.5-0.9,0.3-1.3c-0.2-0.5-0.6-0.8-1.1-0.9l-6.8-1
		c-0.3,0-0.6-0.3-0.8-0.5l-3-6.1c-0.2-0.4-0.7-0.7-1.2-0.7c-0.5,0-1,0.3-1.2,0.7l-3,6.1c-0.1,0.3-0.4,0.5-0.8,0.5l-6.8,1
		c-0.5,0.1-0.9,0.4-1.1,0.9c-0.2,0.5,0,1,0.3,1.3L11.2,36.2z M11.2,31.8c0.1-0.4,0.4-0.6,0.8-0.7l3.3-0.5c0.4-0.1,0.8-0.3,1-0.7
		l1.5-3c0.2-0.3,0.5-0.6,0.9-0.6c0,0,0,0,0,0c0.4,0,0.7,0.2,0.9,0.6l1.5,3c0.2,0.4,0.6,0.7,1,0.7l3.3,0.5c0.4,0.1,0.7,0.3,0.8,0.7
		c0.1,0.4,0,0.8-0.3,1l-2.4,2.3c-0.3,0.3-0.5,0.7-0.4,1.2l0.6,3.3c0.1,0.4-0.1,0.8-0.4,1c-0.2,0.1-0.4,0.2-0.6,0.2
		c-0.2,0-0.3,0-0.5-0.1l-3-1.6C19.1,39,18.9,39,18.7,39c-0.2,0-0.4,0.1-0.6,0.2l-3,1.6c-0.1,0.1-0.3,0.1-0.5,0.1
		c-0.2,0-0.4-0.1-0.6-0.2c-0.3-0.2-0.5-0.6-0.4-1l0.6-3.3c0.1-0.4-0.1-0.9-0.4-1.2l-2.4-2.3C11.2,32.6,11.1,32.2,11.2,31.8z"/>
	<path class="st4" d="M67.8,93.7c-0.2-0.1-0.5-0.2-0.7-0.2c-0.4,0-0.9,0.2-1.1,0.6c-0.4,0.6-0.2,1.4,0.4,1.8
		c2.3,1.5,4.1,3.6,5.3,6.1c0.2,0.5,0.7,0.7,1.2,0.7c0.2,0,0.4,0,0.6-0.1c0.7-0.3,0.9-1.1,0.6-1.7C72.6,98,70.5,95.5,67.8,93.7z"/>
</g>
</svg>
