<?xml version="1.0" encoding="utf-8"?>
<!-- Generator: Adobe Illustrator 24.3.0, SVG Export Plug-In . SVG Version: 6.00 Build 0)  -->
<svg version="1.1" id="Layer_1" xmlns="http://www.w3.org/2000/svg" xmlns:xlink="http://www.w3.org/1999/xlink" x="0px" y="0px"
	 width="124.6px" height="116px" viewBox="0 0 124.6 116" style="enable-background:new 0 0 124.6 116;" xml:space="preserve">
<style type="text/css">
	.st0{fill:#185AE9;}
	.st1{fill:#00B0FB;}
	.st2{fill-rule:evenodd;clip-rule:evenodd;fill:#00B0FB;}
	.st3{fill:#00B0FB;fill-opacity:0.4;}
	.st4{fill:#FFFFFF;}
	.st5{fill:none;}
	.st6{fill:#001135;}
	.st7{fill:#3C7CFF;}
</style>
<g>
	<path class="st4" d="M77.2,58.5c0.2,0.4,0.7,0.6,1.1,0.6c0.5,0,0.9-0.2,1.1-0.6l11.6-17.9c0.3-0.4,0.3-0.9,0.1-1.4
		c-0.2-0.4-0.7-0.7-1.2-0.7H66.8c-0.5,0-0.9,0.3-1.2,0.7c-0.2,0.4-0.2,1,0.1,1.4L77.2,58.5z"/>
	<path class="st7" d="M45.7,64.4c-0.2-0.6-0.7-1-1.3-1H19.5c-0.5,0-1,0.3-1.2,0.8c-0.2,0.5-0.1,1.1,0.2,1.5l38.1,42.7
		c0.3,0.3,0.6,0.5,1,0.5c0.2,0,0.5-0.1,0.7-0.2c0.5-0.3,0.8-1,0.6-1.6L45.7,64.4z"/>
	<path class="st6" d="M49.6,60.5c0.2,0.4,0.7,0.7,1.2,0.7h23c0.5,0,0.9-0.3,1.2-0.7c0.2-0.4,0.2-1-0.1-1.4L63.4,41.3
		c-0.2-0.4-0.7-0.6-1.1-0.6c-0.5,0-0.9,0.2-1.1,0.6L49.7,59.1C49.4,59.5,49.4,60,49.6,60.5z"/>
	<path class="st4" d="M45.2,58.4c0.2,0.4,0.7,0.6,1.1,0.6c0.5,0,0.9-0.2,1.1-0.6L59,40.6c0.3-0.4,0.3-0.9,0.1-1.4
		c-0.2-0.4-0.7-0.7-1.2-0.7H34.7c-0.5,0-0.9,0.3-1.2,0.7c-0.2,0.4-0.2,1,0.1,1.4L45.2,58.4z"/>
	<path class="st7" d="M76.1,64c-0.3-0.3-0.7-0.5-1.1-0.5H49.6c-0.4,0-0.8,0.2-1.1,0.5c-0.3,0.3-0.3,0.8-0.2,1.2L61,106.4
		c0.2,0.6,0.7,1,1.3,1c0.6,0,1.1-0.4,1.3-1l12.7-41.2C76.4,64.8,76.3,64.3,76.1,64z"/>
	<path class="st6" d="M41.8,61.2c0.5,0,0.9-0.3,1.2-0.7c0.2-0.4,0.2-1-0.1-1.4l-11.6-18c-0.2-0.4-0.7-0.6-1.1-0.6h0
		c-0.5,0-0.9,0.2-1.1,0.6l-11.7,18c-0.3,0.4-0.3,0.9-0.1,1.4c0.2,0.4,0.7,0.7,1.2,0.7H41.8z"/>
	<path class="st7" d="M105.1,63.4H80.2c-0.6,0-1.1,0.4-1.3,1l-13.2,42.7c-0.2,0.6,0.1,1.3,0.6,1.6c0.2,0.1,0.4,0.2,0.7,0.2
		c0.4,0,0.8-0.2,1-0.5l38.1-42.7c0.4-0.4,0.4-1,0.2-1.5C106.1,63.8,105.6,63.4,105.1,63.4z"/>
	<path class="st6" d="M95.7,41.1c-0.3-0.4-0.7-0.6-1.1-0.6c-0.5,0-0.9,0.2-1.1,0.6l-11.6,18c-0.3,0.4-0.3,0.9-0.1,1.4
		c0.2,0.4,0.7,0.7,1.2,0.7h23.2c0.5,0,1-0.3,1.2-0.7c0.2-0.4,0.2-1-0.1-1.4L95.7,41.1z"/>
	<g>
		<path class="st6" d="M97.2,28.9L97.2,28.9c0.4,0,0.7-0.1,1-0.4l8.2-8.2c0.6-0.6,0.6-1.5,0-2c-0.3-0.3-0.6-0.4-1-0.4
			c-0.4,0-0.7,0.2-1,0.4l-8.2,8.2c-0.3,0.3-0.4,0.6-0.4,1c0,0.4,0.1,0.7,0.4,1C96.4,28.8,96.8,28.9,97.2,28.9z"/>
		<path class="st6" d="M26.5,28.5c0.3,0.3,0.6,0.4,1,0.4h0c0.4,0,0.7-0.1,1-0.4c0.6-0.6,0.6-1.5,0-2l-8.2-8.2
			c-0.3-0.3-0.6-0.4-1-0.4c-0.4,0-0.7,0.2-1,0.4c-0.6,0.6-0.6,1.5,0,2L26.5,28.5z"/>
		<path class="st6" d="M62.4,19c0.8,0,1.4-0.6,1.4-1.4V1.4c0-0.8-0.6-1.4-1.4-1.4s-1.4,0.6-1.4,1.4v16.1C60.9,18.4,61.6,19,62.4,19z
			"/>
		<path class="st6" d="M62.4,27.4c0.4,0,0.7-0.2,1-0.4c0.3-0.3,0.4-0.6,0.4-1s-0.2-0.7-0.4-1c-0.3-0.3-0.6-0.4-1-0.4
			c-0.4,0-0.7,0.2-1,0.4c-0.3,0.3-0.4,0.6-0.4,1c0,0.4,0.2,0.7,0.4,1C61.6,27.2,62,27.4,62.4,27.4z"/>
		<path class="st6" d="M96.5,38.2c-0.8-1.3-2.2-2-3.7-2H31.9c-1.5,0-2.9,0.8-3.7,2L14.4,59.5c-1.1,1.7-0.9,3.9,0.4,5.4L59,114.5
			c0.8,0.9,2,1.5,3.3,1.5c1.3,0,2.5-0.5,3.3-1.5l44.2-49.6c1.3-1.5,1.5-3.7,0.4-5.3L96.5,38.2z M65.6,39.2c0.2-0.4,0.7-0.7,1.2-0.7
			h23.2c0.5,0,0.9,0.3,1.2,0.7c0.2,0.4,0.2,1-0.1,1.4L79.5,58.5c-0.2,0.4-0.7,0.6-1.1,0.6c-0.5,0-0.9-0.2-1.1-0.6L65.6,40.6
			C65.4,40.1,65.3,39.6,65.6,39.2z M62.3,40.7c0.5,0,0.9,0.2,1.1,0.6l11.5,17.8c0.3,0.4,0.3,0.9,0.1,1.4c-0.2,0.4-0.7,0.7-1.2,0.7
			h-23c-0.5,0-0.9-0.3-1.2-0.7c-0.2-0.4-0.2-1,0.1-1.4l11.5-17.8C61.4,40.9,61.8,40.7,62.3,40.7z M33.5,39.2
			c0.2-0.4,0.7-0.7,1.2-0.7h23.1c0.5,0,0.9,0.3,1.2,0.7c0.2,0.4,0.2,1-0.1,1.4L47.4,58.4c-0.2,0.4-0.7,0.6-1.1,0.6
			c-0.5,0-0.9-0.2-1.1-0.6L33.6,40.6C33.3,40.1,33.3,39.6,33.5,39.2z M17.3,60.5c-0.2-0.4-0.2-1,0.1-1.4l11.7-18
			c0.2-0.4,0.7-0.6,1.1-0.6h0c0.5,0,0.9,0.2,1.1,0.6l11.6,18c0.3,0.4,0.3,0.9,0.1,1.4c-0.2,0.4-0.7,0.7-1.2,0.7H18.5
			C18,61.2,17.5,60.9,17.3,60.5z M58.3,108.7c-0.2,0.1-0.4,0.2-0.7,0.2c-0.4,0-0.8-0.2-1-0.5L18.5,65.7c-0.4-0.4-0.4-1-0.2-1.5
			c0.2-0.5,0.7-0.8,1.2-0.8h24.9c0.6,0,1.1,0.4,1.3,1l13.2,42.7C59.1,107.7,58.8,108.4,58.3,108.7z M63.6,106.4
			c-0.2,0.6-0.7,1-1.3,1s-1.1-0.4-1.3-1L48.3,65.2c-0.1-0.4,0-0.9,0.2-1.2c0.3-0.3,0.7-0.5,1.1-0.5H75c0.4,0,0.8,0.2,1.1,0.5
			c0.3,0.3,0.3,0.8,0.2,1.2L63.6,106.4z M106.1,65.7L68,108.4c-0.3,0.3-0.6,0.5-1,0.5c-0.2,0-0.5-0.1-0.7-0.2
			c-0.5-0.3-0.8-1-0.6-1.6l13.2-42.7c0.2-0.6,0.7-1,1.3-1h24.9c0.5,0,1,0.3,1.2,0.8C106.5,64.7,106.5,65.3,106.1,65.7z M107.3,60.5
			c-0.2,0.4-0.7,0.7-1.2,0.7H82.9c-0.5,0-0.9-0.3-1.2-0.7c-0.2-0.4-0.2-1,0.1-1.4l11.6-18c0.2-0.4,0.7-0.6,1.1-0.6
			c0.5,0,0.9,0.2,1.1,0.6l11.6,18C107.5,59.5,107.6,60,107.3,60.5z"/>
		<path class="st6" d="M6.5,60.9h-5c-0.8,0-1.4,0.6-1.4,1.4s0.6,1.4,1.4,1.4h5c0.8,0,1.4-0.6,1.4-1.4S7.3,60.9,6.5,60.9z"/>
		<path class="st6" d="M123.2,60.9h-5c-0.8,0-1.4,0.6-1.4,1.4s0.6,1.4,1.4,1.4h5c0.8,0,1.4-0.6,1.4-1.4S124,60.9,123.2,60.9z"/>
	</g>
	<path class="st6" d="M97.2,28.9L97.2,28.9c0.4,0,0.7-0.1,1-0.4l8.2-8.2c0.6-0.6,0.6-1.5,0-2c-0.3-0.3-0.6-0.4-1-0.4
		c-0.4,0-0.7,0.2-1,0.4l-8.2,8.2c-0.3,0.3-0.4,0.6-0.4,1s0.1,0.7,0.4,1C96.4,28.8,96.8,28.9,97.2,28.9z"/>
	<path class="st6" d="M26.5,28.5c0.3,0.3,0.6,0.4,1,0.4h0c0.4,0,0.7-0.1,1-0.4c0.6-0.6,0.6-1.5,0-2l-8.2-8.2c-0.3-0.3-0.6-0.4-1-0.4
		c-0.4,0-0.7,0.2-1,0.4c-0.6,0.6-0.6,1.5,0,2L26.5,28.5z"/>
	<path class="st6" d="M62.4,19c0.8,0,1.4-0.6,1.4-1.4V1.4c0-0.8-0.6-1.4-1.4-1.4s-1.4,0.6-1.4,1.4v16.1C60.9,18.4,61.6,19,62.4,19z"
		/>
	<path class="st6" d="M62.4,27.4c0.4,0,0.7-0.2,1-0.4c0.3-0.3,0.4-0.6,0.4-1c0-0.4-0.2-0.7-0.4-1c-0.3-0.3-0.6-0.4-1-0.4
		c-0.4,0-0.7,0.2-1,0.4c-0.3,0.3-0.4,0.6-0.4,1c0,0.4,0.2,0.7,0.4,1C61.6,27.2,62,27.4,62.4,27.4z"/>
	<path class="st6" d="M96.5,38.2c-0.8-1.3-2.2-2-3.7-2H31.9c-1.5,0-2.9,0.8-3.7,2L14.4,59.5c-1.1,1.7-0.9,3.9,0.4,5.4L59,114.5
		c0.8,0.9,2,1.5,3.3,1.5c1.3,0,2.5-0.5,3.3-1.5l44.2-49.6c1.3-1.5,1.5-3.7,0.4-5.3L96.5,38.2z M65.6,39.2c0.2-0.4,0.7-0.7,1.2-0.7
		h23.2c0.5,0,0.9,0.3,1.2,0.7c0.2,0.4,0.2,1-0.1,1.4L79.5,58.5c-0.2,0.4-0.7,0.6-1.1,0.6c-0.5,0-0.9-0.2-1.1-0.6L65.6,40.6
		C65.4,40.1,65.3,39.6,65.6,39.2z M62.3,40.7c0.5,0,0.9,0.2,1.1,0.6l11.5,17.8c0.3,0.4,0.3,0.9,0.1,1.4c-0.2,0.4-0.7,0.7-1.2,0.7
		h-23c-0.5,0-0.9-0.3-1.2-0.7c-0.2-0.4-0.2-1,0.1-1.4l11.5-17.8C61.4,40.9,61.8,40.7,62.3,40.7z M33.5,39.2c0.2-0.4,0.7-0.7,1.2-0.7
		h23.1c0.5,0,0.9,0.3,1.2,0.7c0.2,0.4,0.2,1-0.1,1.4L47.4,58.4c-0.2,0.4-0.7,0.6-1.1,0.6c-0.5,0-0.9-0.2-1.1-0.6L33.6,40.6
		C33.3,40.1,33.3,39.6,33.5,39.2z M17.3,60.5c-0.2-0.4-0.2-1,0.1-1.4l11.7-18c0.2-0.4,0.7-0.6,1.1-0.6h0c0.5,0,0.9,0.2,1.1,0.6
		l11.6,18c0.3,0.4,0.3,0.9,0.1,1.4c-0.2,0.4-0.7,0.7-1.2,0.7H18.5C18,61.2,17.5,60.9,17.3,60.5z M58.3,108.7
		c-0.2,0.1-0.4,0.2-0.7,0.2c-0.4,0-0.8-0.2-1-0.5L18.5,65.7c-0.4-0.4-0.4-1-0.2-1.5c0.2-0.5,0.7-0.8,1.2-0.8h24.9
		c0.6,0,1.1,0.4,1.3,1l13.2,42.7C59.1,107.7,58.8,108.4,58.3,108.7z M63.6,106.4c-0.2,0.6-0.7,1-1.3,1c-0.6,0-1.1-0.4-1.3-1
		L48.3,65.2c-0.1-0.4,0-0.9,0.2-1.2c0.3-0.3,0.7-0.5,1.1-0.5H75c0.4,0,0.8,0.2,1.1,0.5c0.3,0.3,0.3,0.8,0.2,1.2L63.6,106.4z
		 M106.1,65.7L68,108.4c-0.3,0.3-0.6,0.5-1,0.5c-0.2,0-0.5-0.1-0.7-0.2c-0.5-0.3-0.8-1-0.6-1.6l13.2-42.7c0.2-0.6,0.7-1,1.3-1h24.9
		c0.5,0,1,0.3,1.2,0.8C106.5,64.7,106.5,65.3,106.1,65.7z M107.3,60.5c-0.2,0.4-0.7,0.7-1.2,0.7H82.9c-0.5,0-0.9-0.3-1.2-0.7
		c-0.2-0.4-0.2-1,0.1-1.4l11.6-18c0.2-0.4,0.7-0.6,1.1-0.6c0.5,0,0.9,0.2,1.1,0.6l11.6,18C107.5,59.5,107.6,60,107.3,60.5z"/>
	<path class="st6" d="M6.5,60.9h-5c-0.8,0-1.4,0.6-1.4,1.4s0.6,1.4,1.4,1.4h5c0.8,0,1.4-0.6,1.4-1.4S7.3,60.9,6.5,60.9z"/>
	<path class="st6" d="M123.2,60.9h-5c-0.8,0-1.4,0.6-1.4,1.4s0.6,1.4,1.4,1.4h5c0.8,0,1.4-0.6,1.4-1.4S124,60.9,123.2,60.9z"/>
</g>
</svg>
