<?xml version="1.0" encoding="utf-8"?>
<!-- Generator: Adobe Illustrator 24.3.0, SVG Export Plug-In . SVG Version: 6.00 Build 0)  -->
<svg version="1.1" id="Layer_1" xmlns="http://www.w3.org/2000/svg" xmlns:xlink="http://www.w3.org/1999/xlink" x="0px" y="0px"
	 width="564.3px" height="478px" viewBox="0 0 564.3 478" style="enable-background:new 0 0 564.3 478;" xml:space="preserve">
<style type="text/css">
	.st0{fill:#185AE9;}
	.st1{fill:#00B0FB;}
	.st2{fill:#00B0FB;fill-opacity:0.4;}
	.st3{fill:#FFFFFF;}
	.st4{fill:#3C7CFF;}
	.st5{fill:#001135;}
	.st6{fill:#DBDBDB;}
	.st7{fill:#FDFDFD;}
	.st8{fill:none;}
</style>
<g>
	<path d="M217.2,460.9c0.2-5.3,1.9-10.2,3.9-15c5.5-12.7,13.3-24,21.8-34.8c4.9-6.3,10-12.4,15.2-18.3c1.5-1.7,3.1-3.5,4.6-5.2
		c2.4-2.6,4.8-5.2,7.2-7.7c1.7-1.8,3.5-3.6,5.3-5.5c6-6.1,12.2-12.1,18.5-18c0.9-0.8,1.8-1.7,2.7-2.5c0.7-0.6,1.4-1.3,2.1-1.9
		c4.1-3.8,8.3-7.6,12.5-11.3c0.3-0.2,0.5-0.5,0.8-0.7c4.2-3.8,8.5-7.5,12.8-11.1c0.6-0.5,1.2-1,1.8-1.5c0.6-0.5,1.2-1,1.7-1.5
		c0.2-0.1,0.3-0.3,0.5-0.4c10.5-8.8,21.2-17.4,32.1-25.7c1.1-0.8,2.1-1.6,3.2-2.4c0.2-0.1,0.3-0.2,0.4-0.3c3.5-2.6,7-5.2,10.5-7.8
		c3.2-2.4,6.5-4.7,9.7-7c1.2-0.8,2.4-1.7,3.5-2.5c11.5-8.1,23.3-15.8,35.2-23.3c1.8-1.1,3.7-2.3,5.5-3.4c1.1-0.7,2.2-1.4,3.4-2.1
		c5.7-3.5,11.5-6.9,17.4-10.2c1.5-0.9,3.1-1.8,4.6-2.6c14.9-8.3,30.3-15.8,46.2-22.2c14-5.5,28.1-10.4,43.6-11
		c2.2,0.2,4.6,0.2,6.9,0.5c8.8,1.4,13.6,7,13.4,15.8c0,4.8-1.4,9.3-3.1,13.7c-4.6,11.6-11.4,21.9-18.7,31.8
		c-9.2,12.3-19.1,23.9-29.6,35c-1.4,1.5-2.9,3-4.3,4.5c-1,1-2,2.1-3,3.1c-1,1-1.9,2-2.9,3c-1.8,1.8-3.5,3.5-5.3,5.2
		c0,0-0.1,0.1-0.1,0.1c-0.9,0.9-1.9,1.9-2.8,2.8c-0.2,0.2-0.4,0.4-0.6,0.6c0,0,0,0,0,0c-0.1,0.1-0.2,0.2-0.4,0.3
		c-2.9,2.8-5.8,5.5-8.7,8.2c-1,1-2.1,1.9-3.1,2.9c-0.7,0.7-1.4,1.3-2.2,2c-0.7,0.6-1.4,1.3-2.1,1.9c-0.5,0.5-1.1,1-1.6,1.5
		c-0.6,0.5-1.1,1-1.7,1.5c-2.3,2-4.5,4.1-6.8,6.1c-0.3,0.2-0.6,0.5-0.8,0.7c-0.1,0.1-0.2,0.2-0.3,0.3c-0.6,0.5-1.2,1-1.7,1.5
		c-0.3,0.2-0.5,0.5-0.8,0.7c-2.8,2.4-5.6,4.8-8.4,7.2c-1.1,1-2.3,1.9-3.4,2.9c-1.1,0.9-2.1,1.8-3.2,2.6c-2.2,1.8-4.4,3.7-6.7,5.5
		c0,0,0,0,0,0c-2.2,1.8-4.4,3.5-6.6,5.2c-0.2,0.2-0.4,0.3-0.6,0.5c-0.9,0.7-1.9,1.5-2.8,2.2c-0.9,0.7-1.8,1.4-2.8,2.1
		c-1.2,1-2.4,1.9-3.6,2.8c-3.8,2.9-7.5,5.8-11.4,8.6c-0.8,0.6-1.6,1.2-2.4,1.8c-1.8,1.3-3.5,2.6-5.3,3.9c-1,0.8-2.1,1.5-3.1,2.2
		c-2.6,1.9-5.2,3.7-7.7,5.5c0,0-0.1,0.1-0.1,0.1c-0.1,0.1-0.3,0.2-0.4,0.3c-0.8,0.6-1.7,1.2-2.5,1.8c-0.2,0.1-0.3,0.2-0.5,0.3
		c-0.1,0.1-0.2,0.1-0.3,0.2c-3.6,2.5-7.2,5-10.9,7.5c-2.5,1.7-5,3.3-7.4,5c-1,0.7-2,1.3-3,2c-0.3,0.2-0.5,0.3-0.8,0.5
		c-0.9,0.6-1.8,1.2-2.7,1.8c-1.1,0.7-2.1,1.4-3.2,2c-4.6,2.9-9.3,5.8-13.9,8.7c-1.1,0.7-2.1,1.3-3.2,1.9c-0.8,0.5-1.6,0.9-2.4,1.4
		c-1.1,0.6-2.1,1.3-3.2,1.9c-6.4,3.8-12.9,7.4-19.5,10.9c-3.8,2-7.6,4-11.5,6c-1,0.5-2,1-2.9,1.5c-3,1.5-6,3-9.1,4.4v0
		c-1.3,0.6-2.7,1.2-4,1.8c-2.3,1-4.6,2-6.9,3c-9.4,4-19,7.5-29,10.1c-8.6,2.3-17.4,4-26.4,2.8C221.9,476.4,216.9,470.6,217.2,460.9z
		"/>
	<g>
		<path d="M464.3,296.6c-2.7-19.8-5.1-39.6-8.7-59.2c-1-5.5-2.1-11-3.3-16.4c-1.5-6.9-2.9-13.9-6.6-20.1c-2.6-4.3-6-7.5-10.7-9.4
			c-5.4-2.2-10.8-4.5-16.6-6.9c13.3-9.6,12.3-22,8-35.2c-2.7-8.3-7.2-15.9-9.9-24.3c-2.2-7.1-3-14.5-4-21.8
			c-3.5-24-22.4-39.1-46.6-37c-8.3,0.7-16.5,2.5-23.9,6.5c-2.3,1.2-4.9,1.4-7.3,2.2c-8.4,2.7-12.3,7.7-13,16.6
			c-0.4,5.7,0.6,11.2,2.3,16.5c2.1,6.7,1.2,12.3-3.3,17.7c-3.9,4.7-3.6,6.2,1,10.2c1,0.9,1.7,1.6,1.6,3c-0.4,6.5,2.2,12.5,2.9,18.8
			c0.2,2.3,1.4,4.3,2.8,6.1c5.3,7,2.6,15.8-5.9,18.3c1.5,1.9,3.7,1.8,5.9,2.4c-2.4,2.7-5.8,3.4-8.6,4.8c-4,2-8.3,3.7-12.4,5.5
			c-10.5,4.8-16.1,13.3-18.1,24.4c-0.4,2.1-0.6,4.2-1.1,6.3c-0.8,3.5-2.8,5.5-6.6,5.6c-3.7,0-7.8-0.9-9,4.4
			c-0.3,1.4-2.1,0.9-3.2,0.9c-4.1,0-8.2-0.2-12.2-0.1c-4.2,0.1-4.7,1.2-2.8,4.9c6.8,13.1,13.6,26.3,20.6,39.3
			c1.3,2.5,1.3,4.3-0.7,6.4c-4.9,5.1-7.1,10.8-3.1,17.6c1.2,2.1-0.5,4-1,6c-4.7,19.1,8.8,31.9,25.5,29.9c3.3-0.4,6.3-2.1,8.8-3.3
			c1.8,2,2.8,4,3.3,6c1.5,5.4-0.4,10.9-1.6,16.5c-5.1,23.5-6.3,47.2-4.6,71.2c0.6,8.7,1.4,17.3,2.4,25.9c0.7-0.3,1.5-0.7,2.2-1.1
			c1-0.5,2-1,2.9-1.5c3.9-1.9,7.7-3.9,11.5-6c6.6-3.5,13.1-7.2,19.5-10.9c1.1-0.6,2.1-1.3,3.2-1.9c0.8-0.5,1.6-0.9,2.4-1.4
			c1.1-0.6,2.1-1.3,3.2-1.9c2.9-1.7,5.7-3.5,8.6-5.3c-1.1-2.8-3.2-4.8-6-6.3c-4.9-2.7-9.7-5.5-14.5-8.5c-2.2-1.4-4.5-3.1-4.2-7.1
			c3.4,5,7.9,7.5,13.3,10c-3-14-4.8-27.8-4-42.6c2.7,1.8,2,3.6,2,5c0.2,12,1.2,23.8,3.9,35.6c0.6,2.5,1.6,4,3.9,5
			c3.6,1.7,6,4.1,7.5,7.7c1.2-0.7,2.3-1.5,3.5-2.2c1.1-0.7,2.1-1.4,3.2-2c0.9-0.6,1.8-1.2,2.7-1.8c0.3-0.2,0.5-0.3,0.8-0.5
			c1-0.6,2-1.3,3-2c2.5-1.6,5-3.3,7.4-5c3.7-2.5,7.3-5,10.9-7.5c0.1-0.1,0.2-0.1,0.3-0.2c0.2-0.1,0.3-0.2,0.5-0.3
			c0.8-0.6,1.7-1.2,2.5-1.8c0.2-0.1,0.3-0.2,0.4-0.3c0,0,0.1-0.1,0.1-0.1c2.6-1.8,5.2-3.7,7.7-5.5c0.9-0.7,1.8-1.3,2.8-2
			c-6.8-5-12.1-13.1-11.8-20.5c2.3,8.9,7,15.2,13.5,19.3c1.3-1,2.6-1.9,3.9-2.9c0.8-0.6,1.6-1.2,2.4-1.8c3.8-2.8,7.6-5.7,11.3-8.6
			c1.1-0.8,2.1-1.6,3.2-2.5c-1-4-2.2-8-3.5-11.9c-1.8-5.1-3.7-10.2-5.8-15.2c-0.6-1.6-1-2.8,0.4-4.1c3.4-3.1,3.4-6.8,2.1-10.8
			c0-0.3-0.1-0.7-0.2-1c0.3,0.1,0.5,0.3,0.8,0.4c2.8,1,5.7,1.9,8.5,2.9c2.5,0.9,5,1,7.5,0c1.7-0.7,3.4-0.6,5.3-0.4
			c9.4,1.4,15.6-2.5,19.2-11.4C466.9,316.1,465.6,306.4,464.3,296.6z M416.3,162.4c2.5,7.1,2.4,14-0.8,20.8c-1.9,0-3.2-0.9-4.8-2
			C414.8,175.6,416.4,169.3,416.3,162.4z M386.2,169.7c3.4,6.6,3.4,6.8-2.9,20.3c5,0.8,9.8-0.5,14.7-1.5c-1.6,6.4-3.1,12.5-4.6,18.8
			c-5.9-5-10.8-10.4-18.2-13.6C383.4,187.5,387.7,179.9,386.2,169.7z M330.5,154.5c0-2.7-0.9-5.1-1.6-7.9c4.5,0.1,8.7,0.3,12.1-3.8
			c-4.8,0.4-8.9,1.2-13.4,0c1.3-5.3-0.8-9.1-6-11.9c7.9-7.3,8.5-15.7,7.1-25.3c-1.2-8.2,2.4-15.6,9.7-20.8
			c5.5,14,14.9,23.9,28.5,29.1c3.8,1.5,5.8,3.1,5.6,7.3c-0.1,1.6-0.3,3.6,2.1,3.8c2,0.2,3.5-0.6,4.2-2.6c0.3-0.8,0.8-1.6,1.4-2.3
			c2-2.6,4.2-5.2,7.9-3.9c3.6,1.3,4.5,4.6,4.4,8.2c-0.2,8-5.7,13.4-14.9,14.5c-1,13.2-2.8,26.4-6.5,39.2c0.2,0.1,0.4,0.3,0.5,0.5
			c3.9-1.6,5.2-5.8,8.8-9.1c-0.2,7,1.5,13.3-4.4,18c-2,1.6-3.7,3.6-5.7,5.2c-2.7,2.2-4.3,4.8-5,8.3c-1.2,5.7-4.2,10.7-7.3,15.9
			c-3.2-6.4-5.9-12.5-9.2-18.2c-2.1-3.7-2.5-7.1-0.5-10.7c3-5.4,2.9-11,2.1-16.8c-0.3-2.2-0.7-4.4-1-6.6c7.5-3.2,15.1-5.8,19.6-12.8
			c-1.4,0.3-2.6,0.9-3.7,1.6c-7.9,4.7-16.5,7.5-25.5,8.8C333,163.1,330.5,160.9,330.5,154.5z M346.9,178.6
			c-2.2,5.9-4.8,11.6-3.4,18.1c-6.6-0.9-8.9,4.5-12.5,7.8C330.4,192.2,336.8,184.4,346.9,178.6z M305.4,202.1
			c7.2-4.7,15.4-7.9,23.9-11.6c-2.3,8.1-3.8,15.7-3.7,23.8c3.2-0.3,4.6-2,6-3.5c2.2-2.5,4.3-5,6.5-7.5c3.3-3.8,5.3-3.7,8.1,0.5
			c6.4,10,12.2,20.3,6.5,32.8c-0.6,1.3-0.8,2.9-0.9,4.4c-0.2,2.3-1.2,3.5-3.7,3.5c-1.9,0-4.2,0-4.7,2.5c-0.6,2.6,0.4,4.7,3,5.9
			c0.4,0.2,0.8,0.3,0.5,1.1c-0.7,0.5-1.6,1-3.1,1.9c-2.9-5.7-5.6-10.9-8.1-16.2c-1.2-2.5-2.8-3.6-5.6-3.5c-3.8,0.1-7.6,0-11.3-0.1
			c-1.1,0-2.8,0.5-3.2-1c-1.1-4.9-4.7-4.4-8.2-4.1c-2.6,0.2-3.9-0.6-4-3.4c-0.1-2.7-0.7-5.3-1.2-8.8c-2,3.4-0.3,6.2-1.4,8.9
			c-2.2-0.7-4.2-1.4-6.3-2C294.9,216,297.2,207.4,305.4,202.1z M282.3,234c3.2-0.2,6.3,0.4,8.6-3.3c1.4-2.3,4.6-2,6.4,0
			c2.9,3.3,6.5,3.2,10.3,3c1.9-0.1,4.1-0.4,4.1,3.1h-34.8C278,233.4,280.4,234.1,282.3,234z M289.1,335.6
			c-11.3-2.4-16.8-12.4-13.1-24.6c3.2,6.5,3.9,14.1,10.6,17.7c6.9,3.8,13.3,1.6,19.6-2.7C305.2,333.1,297.2,337.3,289.1,335.6z
			 M285.8,322.8c4.9,2.4,8.9,3.3,12.1-0.8c2.1,0.8,3.8,1.4,5.5,2.1C290,327.2,290,327.2,285.8,322.8z M304.5,308.2
			c-3.3,3.2-7.6,5.3-8.5,10.6c-0.4,2.6-3.6,3.1-6.1,1.8c-2.3-1.1-4.4-2.6-5.8-4.9c-2.7-4.6-5.7-8.9-8.3-13.5c-1.8-3-3.2-6.5-0.4-9.6
			c6-6.8,13-12.2,22.2-14c1.9-0.4,3.9-0.8,5.1,2.3c-6.6,5-15.8,6.8-20.3,14.9c2.1-0.5,4-1.4,5.8-2.4c6-3.2,11.9-6.6,18.5-8.4
			c1.6-0.4,3.8-2,4.8,0.3c1,2.2-1.4,3-2.9,3.8c-5,2.8-10.1,5.5-15,8.4c-1.7,1-4.1,1.8-4.5,5.2c8.7-3.6,16.1-9,25-10.7
			c-5.9,7.6-15.6,10.3-21.3,18.1c6.3-3.5,12.6-6.9,19.9-10.9C310.4,304,307,305.7,304.5,308.2z M311.6,359.2c3.6,0.7,7.3,1.3,11.1,2
			c0.3-3,0.5-5.6,0.7-8.3c0.1-1.1,0.5-2.1,1.9-1.9c1.4,0.3,1.4,1.1,1.1,2.4c-0.6,2.6-1,5.3-1.4,7.6c0.8,1.7,3.2,1,3.4,3.6
			C322.4,364,316.5,363.3,311.6,359.2z M314.5,343.7c-0.2,0-0.3-0.1-0.4-0.2c-0.1-0.1-0.3-0.1-0.4-0.2c-0.2-0.1-0.3-0.2-0.5-0.3
			c-0.1-0.1-0.1-0.1-0.2-0.2c-0.1-0.1-0.1-0.1-0.2-0.2c-0.3-0.4-0.6-0.8-0.8-1.2c-0.2-0.4-0.3-0.8-0.4-1.2c0,0,0-0.1,0-0.1
			c-1.4-5.6-0.8-11.2-0.6-16.9h33.3c0,4.3-0.1,8.4,0,12.4c0.2,4.2,0.6,8.3,1,12.9C334.6,348.6,324.5,346.5,314.5,343.7z
			 M361.1,361.6c-0.4,4-2.6,5.9-6.7,5.7c-4.8-0.2-9.7-0.2-14.5-0.6c-3.9-0.3-5.9-2.7-5.6-6.7c0.3-3.9,2.9-6.3,6.8-6.4
			c2.1-0.1,4.2,0,6.3,0v0.1c1.2,0,2.4,0,3.6,0c1.4,0,2.7-0.1,4.1,0.1C358.9,354.3,361.5,357.7,361.1,361.6z M371.3,366.8
			c0.1-4.2-1.2-8.6,0.7-12.9c2.2,3.3,1,7,2,10.8c14.6-0.6,28.8-3,43.1-4C402.2,364.7,387.1,366.7,371.3,366.8z M413.2,343.8
			c-9,1.4-17.9,2.9-26.9,4.1c-12.6,1.7-25.2,2-38,0.4c-0.6-8.5-1.7-16.7-1.1-25.4c8,0,15.9,0,23.7,0c5.2,0,5.5-0.5,3.3-5
			c-3.4-6.9-6.8-13.7-10.2-20.6c-5.3-10.6-10.5-21.1-15.7-31.7c-0.5-1-1.5-1.9-0.9-3.7c2.2,0.6,3.8-2,6.1-1.2
			c0.9,1.3,0.5,2.6,0.3,3.7c-1.5,6.1,1.3,12.3,4.9,15.1c0.6,0.5,1.1,0.9,1.7,1.4c0.1,0.1,0.2,0.2,0.4,0.3c0.5,0.4,0.9,0.8,1.4,1.2
			c0.5,0.5,1.1,0.9,1.6,1.4c0.6,0.6,1.3,1.2,1.9,1.8c0.9,0.9,1.9,1.8,2.8,2.8c0.6,0.6,1.2,1.2,1.9,1.8c0.5,0.5,0.9,0.9,1.4,1.4
			c0.8,0.8,1.6,1.5,2.3,2.2c0.5,0.5,1.3,0.9,2,1c5.5,1.5,9.3,5.3,13.5,8.8c6.8,5.8,13.8,11.3,20.7,17c0.9,0.7,2.1,1.1,2.3,2.6
			c0.5,4.6,3,8.5,4.8,12.6C419.4,340.7,418.2,343,413.2,343.8z M416.3,319.3c-1.2-0.7-2.3-1.5-3.4-2.3c-9-6.6-17.6-13.8-26.1-21
			c-1.4-1.2-2.7-2.6-4.5-3c-0.4-0.1-0.8-0.2-1.2-0.3c-0.3-0.1-0.7-0.2-1-0.3c-0.1-0.1-0.3-0.1-0.4-0.1c-0.1,0-0.1,0-0.2-0.1
			c-0.2-0.1-0.5-0.2-0.7-0.3c-0.1,0-0.2-0.1-0.3-0.1c-0.2-0.1-0.4-0.2-0.6-0.3c0,0,0,0-0.1,0c-0.2-0.1-0.3-0.1-0.4-0.2c0,0,0,0,0,0
			c0,0,0,0,0,0c-0.2-0.1-0.3-0.2-0.5-0.3c-0.1-0.1-0.2-0.2-0.4-0.2c-0.2-0.1-0.3-0.2-0.5-0.3c-0.1-0.1-0.2-0.1-0.3-0.2c0,0,0,0,0,0
			c-0.1-0.1-0.2-0.1-0.2-0.2c0,0,0,0,0,0c0,0,0,0-0.1,0c-0.2-0.2-0.5-0.4-0.7-0.7c-0.2-0.2-0.4-0.4-0.6-0.6c0,0,0,0,0,0
			c-0.1-0.1-0.3-0.3-0.4-0.4c0,0,0,0,0,0c-0.1-0.1-0.2-0.2-0.3-0.3c-0.1-0.1-0.2-0.3-0.3-0.4c-0.1-0.1-0.1-0.2-0.2-0.3
			c-0.1-0.2-0.3-0.4-0.4-0.6c-0.1-0.1-0.1-0.2-0.2-0.4c-0.9-1.5-1.6-3.3-2.1-5.2c-1.4-5.3-4-5.9-8.2-2.5c-1.3-0.6-2.4-1.5-2.2-3
			c0.7-5.3,6.6-3.6,9.8-6.7c-4.5-1.1-8,0.5-11.5,1.6c-0.7-1.5-0.8-2.9-0.1-3.8c3.3-4.8,9.4-2.5,14.4-5.5c-6-1.4-10.8,0.1-15.7,1.8
			c-0.4-5.1,2.8-6.2,6.4-6.6c3.3-0.4,6.7-0.5,10-0.6c-8.7-3.7-18-3.6-27.3-5.4c0.8-2.1,1.5-2.4,2.5-2.6c10.7-1.9,20.7,0.5,30.4,4.6
			c2.9,1.2,4.5,3.4,5.3,6.3c1.3,4.6,2.6,9.3,4.1,13.9c0.1,0.2,0.1,0.4,0.2,0.6c0.1,0.2,0.1,0.4,0.2,0.6c0.1,0.2,0.1,0.3,0.2,0.5
			c0.1,0.2,0.2,0.4,0.2,0.6c0.1,0.2,0.2,0.4,0.3,0.6c0.1,0.2,0.2,0.4,0.3,0.6c0.1,0.2,0.3,0.5,0.4,0.7c0.1,0.2,0.2,0.3,0.3,0.5
			c0.2,0.2,0.4,0.5,0.6,0.7c0.1,0.1,0.2,0.2,0.3,0.3c0.1,0.1,0.2,0.3,0.4,0.4c0.1,0.1,0.2,0.2,0.4,0.4c0.5,0.4,0.9,0.8,1.5,1.2
			c0.2,0.2,0.5,0.3,0.7,0.5c0.2,0.1,0.4,0.2,0.6,0.3c0.2,0.1,0.3,0.2,0.5,0.3c0.4,0.2,0.9,0.4,1.3,0.6c7.8,3.2,15.2,7.7,23.2,10.1
			c7.8,2.4,9.2,7.7,9.5,14.3c0.1,2.5-0.2,5.1-0.7,7.6C427.1,322.1,423.5,323.7,416.3,319.3z M437.7,332.6c-1.1,0.6-2.2,1.2-3.4,0.9
			c-4.9-1.1-9.5-2.9-14-5.9c12.6-3.4,16.6-16.1,11-35c4.6,2.1,9.7,1.6,12.5,4.8C452.1,306.6,448.4,326.5,437.7,332.6z M456.8,327.1
			c-2.5,4.4-5.6,5.9-11.1,4.9c7.5-9.7,9.1-20.2,4.7-31.6c-0.2-0.3-0.4-0.5-0.6-0.8c0,0,0.2-0.2,0.3-0.3c0.2,0.3,0.4,0.6,0.6,0.9
			c1.6,0.1,2.1,2.8,4.4,1.6c-5.6-11.9-17.1-12.3-27.8-14.1c-1.8-10.2-3.5-20.2-5.1-30.4c-0.9-6-1.8-12.1-2.5-18.3
			c-2.9,1.4-3,3.3-3.2,4.8c-0.6,4.4-0.6,9.1,0.9,13c0.4,1,0.7,1.9,0.9,2.9c2.1,8.8-2,16.7-3.4,25.2c-6-2.8-11.6-5.5-17.2-8
			c-1.1-0.5-2-1.1-2.8-1.8c-1.4-1.3-2.3-2.9-2.9-4.8c-1.9-6.2-3.6-12.4-5.6-19c5.3-0.6,8.7-3.5,11.5-7.6c0.9-1.3,1.4-2.3,0.6-3.6
			c-0.9-1.5-2.1-3-4-2.2c-6.3,2.5-13.4,2.7-19.1,6.7c-1.3,0.9-2.7,1.5-4.3,1.1c-5.4-1.3-10.8-2.1-16.4-1.8
			c1.9-11.6,4-22.7,10.9-32.2c1.9-2.6,3.2-5.9,4-9.1c1-4.4,3.5-4.4,6.7-3c1.8,0.8,3.5,1.9,5,3.1c3.9,3.1,7.7,6.4,11.6,9.5
			c1.1,0.9,2.3,2.4,4,1.7c1.8-0.7,1.1-2.6,1.2-4c0.1-6.7,1.3-13.2,3.3-19.6c1.1-3.5,4.7-5.7,7.4-4.6c8.1,3.4,16.2,6.7,24.2,10.2
			c5.4,2.4,8.8,6.5,10.8,12.1c3.6,10.4,5.8,21.2,7.6,32c0.4,2.5,0.8,4.9,1.2,7.3c3.1,18.9,5.4,38,8.2,57
			C461.5,312.2,460.8,319.9,456.8,327.1z"/>
		<path class="st6" d="M460.4,304.2c-2.7-19-5.1-38-8.2-57c-0.4-2.4-0.8-4.9-1.2-7.3c-1.8-10.8-4-21.5-7.6-32
			c-2-5.6-5.4-9.8-10.8-12.1c-8-3.5-16.1-6.9-24.2-10.2c-2.7-1.1-6.3,1.1-7.4,4.6c-2,6.4-3.2,12.9-3.3,19.6c0,1.4,0.6,3.3-1.2,4
			c-1.6,0.7-2.8-0.8-4-1.7c-3.9-3.1-7.7-6.4-11.6-9.5c-1.5-1.2-3.2-2.3-5-3.1c-3.2-1.4-5.7-1.4-6.7,3c-0.7,3.2-2.1,6.4-4,9.1
			c-6.8,9.5-9,20.6-10.9,32.2c5.6-0.4,11,0.5,16.4,1.8c1.6,0.4,3-0.2,4.3-1.1c5.8-4,12.8-4.2,19.1-6.7c1.9-0.8,3.1,0.8,4,2.2
			c0.8,1.3,0.3,2.3-0.6,3.6c-2.8,4.1-6.2,7-11.5,7.6c1.9,6.7,3.7,12.9,5.6,19c0.6,1.9,1.5,3.5,2.9,4.8c0.8,0.7,1.7,1.3,2.8,1.8
			c5.7,2.5,11.2,5.2,17.2,8c1.3-8.6,5.4-16.5,3.4-25.2c-0.2-1-0.5-1.9-0.9-2.9c-1.6-3.9-1.5-8.6-0.9-13c0.2-1.5,0.3-3.4,3.2-4.8
			c0.7,6.1,1.6,12.2,2.5,18.3c1.6,10.1,3.3,20.2,5.1,30.4c10.7,1.9,22.2,2.2,27.8,14.1c-2.3,1.3-2.8-1.5-4.4-1.6l-0.2,0.2
			c4.4,11.3,2.8,21.9-4.7,31.6c5.5,1,8.7-0.4,11.1-4.9C460.8,319.9,461.5,312.2,460.4,304.2z M421.9,232.9c-1-5.8,3.3-16,8.5-20.6
			C428.8,219.2,426,225.7,421.9,232.9z"/>
		<path class="st7" d="M388.1,116.2c-3.7-1.4-5.9,1.3-7.9,3.9c-0.6,0.7-1.1,1.5-1.4,2.3c-0.8,2-2.2,2.8-4.2,2.6
			c-2.4-0.3-2.2-2.3-2.1-3.8c0.2-4.2-1.8-5.8-5.6-7.3c-13.7-5.3-23-15.2-28.5-29.1c-7.3,5.2-10.8,12.6-9.7,20.8
			c1.4,9.6,0.8,18-7.1,25.3c5.3,2.8,7.3,6.6,6,11.9c4.4,1.2,8.6,0.4,13.4,0c-3.4,4.1-7.6,4-12.1,3.8c0.7,2.7,1.6,5.2,1.6,7.9
			c0,6.4,2.5,8.6,9.1,7.6c9-1.4,17.6-4.1,25.5-8.8c1.1-0.7,2.3-1.4,3.7-1.6c-4.5,7-12.1,9.6-19.6,12.8c0.4,2.2,0.7,4.4,1,6.6
			c0.8,5.8,0.9,11.4-2.1,16.8c-2,3.6-1.5,7.1,0.5,10.7c3.2,5.8,6,11.8,9.2,18.2c3.2-5.1,6.1-10.1,7.3-15.9c0.7-3.5,2.3-6.1,5-8.3
			c2-1.6,3.7-3.6,5.7-5.2c5.9-4.7,4.2-11.1,4.4-18c-3.6,3.3-4.9,7.5-8.8,9.1c-0.2,0.2-0.3,0.4-0.5,0.6c0-0.4,0-0.8-0.1-1.1
			c3.7-12.8,5.5-26,6.5-39.2c9.2-1.1,14.6-6.5,14.9-14.5C392.6,120.9,391.7,117.6,388.1,116.2z M344.4,117c-0.3,0.5-0.6,0.9-0.9,1.4
			c-0.8,1.6-2.1,3-3.9,1.9c-1.5-0.9-3.6-2.1-2.9-4.5c0.6-1.9,2.2-3,4.2-2.7c3.5,0.6,6.7,1.8,8.7,5.2
			C348,117.9,346.3,117.5,344.4,117z M335.3,108.1c1.9-3.4,5.1-3.1,8.1-2.9c3.5,0.3,6.9,1.2,8.5,5.2
			C346.5,107.9,340.9,108.6,335.3,108.1z M381.3,129.9c0.1-7.4,1.2-8.9,6.4-8.9C382.8,121.9,385,127.9,381.3,129.9z"/>
		<path class="st6" d="M347.2,322.9c-0.6,8.7,0.5,16.9,1.1,25.4c12.8,1.6,25.4,1.3,38-0.4c9-1.2,17.9-2.7,26.9-4.1
			c5.1-0.8,6.2-3.1,4-7.9c-1.9-4.1-4.3-8-4.8-12.6c-0.2-1.5-1.4-1.8-2.3-2.6c-6.9-5.6-13.9-11.2-20.7-17c-4.2-3.5-8-7.4-13.5-8.8
			c-0.7-0.2-1.5-0.5-2-1c-5.1-4.8-9.7-10-15.3-14.4c-3.6-2.8-6.4-9-4.9-15.1c0.3-1.1,0.7-2.4-0.3-3.7c-2.3-0.7-3.9,1.9-6.1,1.2
			c-0.7,1.7,0.4,2.7,0.9,3.7c8.6,17.4,17.3,34.9,26,52.3c2.2,4.5,1.9,5-3.3,5C363,322.9,355.2,322.9,347.2,322.9z"/>
		<path class="st7" d="M345.9,250c9.3,1.8,18.6,1.7,27.3,5.4c-3.3,0.2-6.7,0.3-10,0.6c-3.7,0.4-6.8,1.5-6.4,6.6
			c4.9-1.7,9.7-3.2,15.7-1.8c-5.1,3-11.2,0.8-14.5,5.5c-0.6,0.9-0.6,2.3,0.1,3.8c3.5-1.1,7-2.7,11.5-1.6c-3.2,3.2-9.1,1.4-9.8,6.7
			c-0.2,1.5,0.9,2.4,2.2,3c4.3-3.4,6.8-2.8,8.2,2.5c1.7,6.4,5.3,10.7,12,12.1c1.8,0.4,3.1,1.8,4.5,2.9c8.5,7.3,17.1,14.4,26.1,21.1
			c1.1,0.8,2.2,1.6,3.4,2.3c7.1,4.5,10.8,2.8,12.4-5.6c0.5-2.5,0.8-5.1,0.7-7.6c-0.3-6.6-1.7-11.9-9.5-14.3
			c-8-2.4-15.4-6.9-23.2-10.1c-4.4-1.8-7.1-5-8.5-9.3c-1.5-4.6-2.8-9.2-4.1-13.9c-0.8-3-2.5-5.1-5.3-6.3c-9.7-4.2-19.8-6.5-30.4-4.6
			C347.5,247.6,346.7,247.9,345.9,250z"/>
		<path class="st6" d="M343.6,255.9c1.5-0.9,2.4-1.5,3.1-1.9c0.4-0.8-0.1-0.9-0.4-1.1c-2.6-1.2-3.5-3.3-3-5.9
			c0.5-2.5,2.8-2.5,4.7-2.5c2.5,0,3.5-1.2,3.7-3.5c0.1-1.5,0.3-3.1,0.9-4.4c5.7-12.5,0-22.7-6.5-32.7c-2.7-4.3-4.8-4.3-8.1-0.5
			c-2.2,2.5-4.3,5.1-6.5,7.5c-1.4,1.5-2.8,3.1-6,3.5c-0.1-8.1,1.4-15.7,3.7-23.8c-8.6,3.8-16.7,6.9-23.9,11.6
			c-8.2,5.3-10.5,13.9-11.1,23.5c2.1,0.7,4.2,1.3,6.3,2c1-2.6-0.6-5.5,1.4-8.9c0.5,3.5,1.1,6.2,1.2,8.8c0.1,2.8,1.4,3.6,4,3.4
			c3.4-0.2,7.1-0.7,8.2,4.1c0.3,1.5,2.1,0.9,3.2,1c3.8,0.1,7.6,0.3,11.3,0.2c2.8-0.1,4.4,1,5.6,3.5
			C337.9,245,340.7,250.2,343.6,255.9z"/>
		<path class="st7" d="M314,292.2c-8.9,1.7-16.2,7.1-25,10.7c0.4-3.4,2.8-4.2,4.5-5.2c4.9-3,10-5.6,15-8.4c1.5-0.9,3.9-1.6,2.9-3.8
			c-1-2.4-3.2-0.8-4.8-0.3c-6.6,1.8-12.5,5.1-18.5,8.4c-1.8,1-3.7,1.8-5.8,2.4c4.5-8,13.7-9.8,20.3-14.9c-1.2-3.1-3.2-2.7-5.1-2.3
			c-9.2,1.8-16.2,7.2-22.2,14c-2.8,3.2-1.3,6.6,0.4,9.6c2.6,4.6,5.6,8.9,8.3,13.5c1.4,2.3,3.5,3.8,5.8,4.9c2.5,1.3,5.7,0.8,6.1-1.8
			c0.9-5.4,5.2-7.5,8.5-10.6c2.6-2.5,6-4.1,8.2-8.8c-7.3,4-13.6,7.5-19.9,10.9C298.4,302.5,308.1,299.8,314,292.2z M288.3,302.8
			l-0.3-0.3c0.2-0.1,0.4-0.2,0.6-0.3c0.1,0,0.2,0.2,0.3,0.3C288.7,302.5,288.5,302.6,288.3,302.8z"/>
		<path class="st6" d="M345.2,348.5c-0.4-4.6-0.8-8.7-1-12.9c-0.2-4,0-8.1,0-12.4c-11.3,0-22,0-33.4,0c-0.2,5.6-0.8,11.2,0.6,16.9
			c0.4,1.7,1.3,3.2,3,3.7C324.5,346.4,334.6,348.6,345.2,348.5z"/>
		<path class="st6" d="M431.3,292.6c5.6,18.9,1.6,31.7-11,35c4.5,3,9.1,4.8,14,5.9c1.2,0.3,2.3-0.3,3.4-0.9
			c10.7-6.1,14.4-26,6.1-35.2C440.9,294.2,435.9,294.7,431.3,292.6z"/>
		<path class="st6" d="M347.5,353.6c-2.1,0-4.2,0-6.3,0c-3.9,0.1-6.4,2.5-6.7,6.4c-0.3,4,1.7,6.4,5.6,6.7c4.8,0.4,9.7,0.3,14.5,0.6
			c4.1,0.2,6.3-1.7,6.7-5.7c0.4-3.9-2.2-7.3-6-7.8c-1.3-0.2-2.7-0.1-4.1-0.1c-1.2,0-2.4,0-3.6,0
			C347.5,353.7,347.5,353.6,347.5,353.6z"/>
		<path class="st6" d="M398,188.6c-4.9,1-9.6,2.2-14.7,1.5c6.3-13.5,6.3-13.8,2.9-20.3c1.4,10.2-2.8,17.8-11.1,24.1
			c7.4,3.2,12.3,8.7,18.2,13.6C394.9,201,396.4,195,398,188.6z"/>
		<path class="st6" d="M276,311c-3.7,12.3,1.9,22.3,13.1,24.6c8.1,1.7,16.1-2.6,17-9.6c-6.3,4.3-12.7,6.5-19.6,2.7
			C279.9,325.1,279.1,317.5,276,311z"/>
		<path class="st6" d="M331,204.4c3.6-3.3,5.9-8.7,12.5-7.8c-1.3-6.5,1.3-12.1,3.4-18.1C336.8,184.4,330.4,192.2,331,204.4z"/>
		<path class="st7" d="M276.8,236.8c12,0,23.4,0,34.8,0c0-3.4-2.2-3.1-4.1-3.1c-3.8,0.1-7.4,0.3-10.3-3c-1.7-2-4.9-2.3-6.4,0
			c-2.2,3.6-5.3,3.1-8.5,3.3C280.4,234.1,278,233.4,276.8,236.8z"/>
		<path class="st6" d="M374,364.7c-1-3.8,0.2-7.5-2-10.8c-1.9,4.3-0.6,8.6-0.7,12.9c15.8-0.2,30.9-2.1,45.9-6.1
			C402.8,361.8,388.6,364.1,374,364.7z"/>
		<path class="st6" d="M325.1,361.1c0.4-2.3,0.7-5,1.4-7.6c0.3-1.3,0.3-2.1-1.1-2.4c-1.4-0.3-1.8,0.7-1.9,1.9
			c-0.3,2.6-0.5,5.3-0.7,8.3c-3.9-0.7-7.5-1.4-11.1-2c5,4,10.8,4.7,17,5.4C328.2,362.1,325.8,362.9,325.1,361.1z"/>
		<path class="st7" d="M410.7,181.2c1.6,1.1,2.9,1.9,4.8,2c3.1-6.8,3.3-13.7,0.8-20.8C416.4,169.3,414.8,175.6,410.7,181.2z"/>
		<path class="st6" d="M297.9,322.1c-3.2,4-7.2,3.2-12.1,0.8c4.2,4.3,4.2,4.3,17.6,1.3C301.7,323.5,300,322.9,297.9,322.1z"/>
		<path class="st7" d="M422.5,334.5c-0.3-0.1-0.5-0.3-0.8-0.4c0,0.3,0.1,0.7,0.1,1C422.1,334.9,422.3,334.7,422.5,334.5z"/>
		<path class="st7" d="M450.6,300.1c-0.2-0.3-0.4-0.6-0.6-0.8c-0.1,0.1-0.3,0.3-0.3,0.3c0.2,0.3,0.4,0.5,0.6,0.8
			C450.4,300.4,450.6,300.1,450.6,300.1z"/>
		<path d="M421.9,232.9c4.1-7.2,6.9-13.7,8.5-20.6C425.2,216.9,420.9,227.1,421.9,232.9z"/>
		<path d="M344.4,117c1.9,0.5,3.6,0.9,5.3,1.3c-2-3.4-5.3-4.6-8.7-5.2c-2-0.4-3.6,0.8-4.2,2.7c-0.7,2.4,1.4,3.6,2.9,4.5
			c1.8,1.1,3-0.3,3.9-1.9C343.8,118,344.1,117.5,344.4,117z"/>
		<path d="M335.3,108.1c5.6,0.5,11.2-0.2,16.5,2.3c-1.6-4-5-4.9-8.5-5.2C340.4,105,337.3,104.7,335.3,108.1z"/>
		<path d="M387.7,121.1c-5.2,0-6.3,1.5-6.4,8.9C385,127.9,382.8,121.9,387.7,121.1z"/>
		<path d="M371.1,178c0,0.4,0,0.8,0.1,1.1c0.2-0.2,0.3-0.4,0.5-0.6C371.4,178.4,371.3,178.2,371.1,178z"/>
		<path d="M288.3,302.8c0.2-0.1,0.4-0.2,0.6-0.3c-0.1-0.1-0.2-0.3-0.3-0.3c-0.2,0-0.4,0.2-0.6,0.3
			C288.1,302.5,288.2,302.6,288.3,302.8z"/>
	</g>
	<g>
		<path d="M32.5,306.8c0-26.6,0-53.2,0-79.8c0-5.7,2.2-8,7.9-8c43.3,0,86.6,0,129.8,0c5.2,0,7.6,2.4,7.6,7.5c0,53.1,0,106.2,0,159.3
			c0,0.7,0,1.3,0,2c-0.1,3.8-2.5,6.1-6.2,6.1c-44.2,0-88.4,0-132.6,0c-4.5,0-6.6-2.1-6.6-6.7C32.5,360.4,32.5,333.6,32.5,306.8
			C32.5,306.8,32.5,306.8,32.5,306.8z M42.3,359.4c41.9,0,83.4,0,125,0c0-26,0-51.9,0-77.7c-41.8,0-83.3,0-125,0
			C42.3,307.6,42.3,333.4,42.3,359.4z M174.9,270.5c0-1,0-1.9,0-2.7c0-13.7,0-27.4,0-41.1c0-3.9-0.9-4.7-4.8-4.7
			c-43.3,0-86.6,0-129.8,0c-3.6,0-4.6,1-4.6,4.5c0,14,0,27.9,0,41.9c0,0.7-0.3,1.5,0.4,2.1C82.1,270.5,128.3,270.5,174.9,270.5z
			 M112,383.1c3.7-2.3,4.1-2.9,4.1-7.2c0-1.2,0-2.3,0-3.5c-0.1-3.2-1.6-4.9-4.8-5.1c-3.9-0.1-7.8-0.1-11.6,0c-3.2,0.1-5,2-5.1,5.2
			c-0.1,1.8-0.1,3.6,0,5.4c0.1,3,1.9,5,4.8,4.9c5-0.2,9.7,0,13.7,3.6C112.6,385.5,112.3,384.4,112,383.1z M62,385.1
			c2.9-2.7,5.7-5,8.2-7.6c1.7-1.7,2.4-3.9,1.5-6.4c-0.8-2.1-2.4-3.3-4.6-3.6c-2.2-0.4-3.7,1-5.2,2.3c-3.6-2.8-6.6-2.9-8.8-0.5
			c-2.2,2.6-1.7,6.3,1.5,9.2C57,380.7,59.4,382.8,62,385.1z M151.5,370.7c-8.4,2.3-12.9,7.4-11.6,13.5c3-3.9,6.5-6.4,11.6-5.4
			c0.1,0.8,0.1,1.5,0.4,2.2c0.4,1.3,1.5,1.7,2.5,0.9c2.6-2.1,5.1-4.3,7.2-7c-1.7-2.3-3.7-3.9-5.6-5.6c-0.9-0.9-1.7-2.4-3.2-2.1
			C151.2,367.8,152.1,369.7,151.5,370.7z"/>
		<path class="st6" d="M42.3,359.4c0-26,0-51.7,0-77.7c41.7,0,83.3,0,125,0c0,25.8,0,51.7,0,77.7C125.8,359.4,84.2,359.4,42.3,359.4
			z M104,300.6C104,300.6,104,300.6,104,300.6c-15.4,0-30.9,0-46.3,0c-1.3,0-3.5-0.8-3.6,1.4c0,2.3,2.2,1.4,3.5,1.4
			c30.6,0.1,61.1,0.1,91.7,0.1c1,0,2-0.1,3-0.1c1.1,0,1.5-0.5,1.5-1.5c0-0.9-0.5-1.3-1.4-1.3c-0.9,0-1.8,0-2.7,0
			C134.4,300.6,119.2,300.6,104,300.6z M104.1,332.2c11.7,0,23.5,0,35.2,0c4.2,0,8.4,0,12.6,0c1,0,1.9,0,1.9-1.3
			c0-1.3-0.8-1.7-2-1.6c-0.3,0-0.7,0-1,0c-30,0-60,0-89.9,0c-1.8,0-3.6,0-5.4,0.1c-0.9,0-1.4,0.6-1.4,1.4c0,0.8,0.5,1.4,1.4,1.4
			c0.7,0,1.3,0,2,0C73,332.2,88.5,332.2,104.1,332.2z M93.4,319.2C93.4,319.2,93.4,319.2,93.4,319.2c10.9,0,21.8,0,32.7,0
			c1.7,0,3.5,0,5.2,0c0.9,0,1.4-0.4,1.5-1.3c0-1-0.4-1.6-1.5-1.6c-0.3,0-0.7,0-1,0c-24.5,0-49.1,0-73.6,0c-0.4,0-0.8,0-1.2,0
			c-0.9,0-1.4,0.6-1.4,1.4c0,0.8,0.4,1.4,1.4,1.4c0.7,0,1.3,0,2,0C69.4,319.2,81.4,319.2,93.4,319.2z"/>
		<path class="st7" d="M174.9,270.5c-46.6,0-92.7,0-138.9,0c-0.7-0.6-0.4-1.4-0.4-2.1c0-14,0-27.9,0-41.9c0-3.5,1-4.5,4.6-4.5
			c43.3,0,86.6,0,129.8,0c4,0,4.8,0.9,4.8,4.7c0,13.7,0,27.4,0,41.1C174.9,268.6,174.9,269.4,174.9,270.5z M78.8,247.3
			c-0.1-9.8-7.8-17.4-17.7-17.3c-9.6,0.1-17.6,8-17.5,17.4c0.1,9.7,7.9,17.3,17.7,17.1C71.3,264.4,78.9,257,78.8,247.3z
			 M113.2,236.3C113.2,236.3,113.2,236.3,113.2,236.3c-8.4,0-16.8,0.1-25.2,0c-1.8,0-2.3,0.6-2.3,2.3c0,1.7,0.4,2.3,2.2,2.3
			c16.7,0,33.5,0,50.2,0c1.8,0,2.5-0.5,2.5-2.4c0-1.9-0.7-2.4-2.5-2.3C129.8,236.4,121.5,236.3,113.2,236.3z M102.3,251.7
			C102.3,251.7,102.3,251.7,102.3,251.7c4.9,0,9.7,0,14.6,0.1c1.8,0,2-0.8,2-2.3c0-1.4,0.1-2.6-2-2.6c-9.7,0.1-19.3,0.1-29,0.1
			c-1.7,0-2.3,0.6-2.2,2.4c0.1,1.6,0.3,2.5,2.2,2.4C92.7,251.7,97.5,251.7,102.3,251.7z"/>
		<path class="st7" d="M112,383.1c0.4,1.3,0.7,2.3,1,3.4c-4-3.6-8.7-3.8-13.7-3.6c-2.9,0.1-4.6-2-4.8-4.9c-0.1-1.8,0-3.6,0-5.4
			c0.1-3.2,1.8-5.1,5.1-5.2c3.9-0.1,7.8-0.1,11.6,0c3.2,0.1,4.7,1.8,4.8,5.1c0,1.2,0,2.3,0,3.5C116,380.2,115.7,380.8,112,383.1z"/>
		<path class="st7" d="M62,385.1c-2.6-2.4-5-4.5-7.4-6.7c-3.1-2.9-3.7-6.6-1.5-9.2c2.1-2.4,5.1-2.3,8.8,0.5c1.5-1.3,3-2.6,5.2-2.3
			c2.2,0.4,3.8,1.5,4.6,3.6c0.9,2.4,0.1,4.7-1.5,6.4C67.7,380.1,65,382.4,62,385.1z"/>
		<path class="st7" d="M151.5,370.7c0.6-1.1-0.3-3,1.4-3.4c1.5-0.4,2.2,1.2,3.2,2.1c1.9,1.7,3.9,3.3,5.6,5.6c-2.1,2.6-4.6,4.9-7.2,7
			c-1,0.8-2.1,0.4-2.5-0.9c-0.2-0.7-0.2-1.4-0.4-2.2c-5.1-1-8.6,1.6-11.6,5.4C138.6,378.2,143.1,373,151.5,370.7z"/>
		<path d="M104,300.6c15.2,0,30.4,0,45.6,0c0.9,0,1.8,0,2.7,0c0.9,0,1.4,0.4,1.4,1.3c0,1-0.4,1.5-1.5,1.5c-1,0-2,0.1-3,0.1
			c-30.6,0-61.1,0-91.7-0.1c-1.3,0-3.5,0.8-3.5-1.4c0-2.2,2.3-1.4,3.6-1.4C73.1,300.6,88.5,300.6,104,300.6
			C104,300.6,104,300.6,104,300.6z"/>
		<path d="M104.1,332.2c-15.5,0-31.1,0-46.6,0c-0.7,0-1.3,0-2,0c-0.9,0-1.4-0.5-1.4-1.4c0-0.9,0.5-1.4,1.4-1.4
			c1.8-0.1,3.6-0.1,5.4-0.1c30,0,60,0,89.9,0c0.3,0,0.7,0,1,0c1.2-0.1,1.9,0.3,2,1.6c0,1.3-0.9,1.3-1.9,1.3c-4.2,0-8.4,0-12.6,0
			C127.5,332.2,115.8,332.2,104.1,332.2z"/>
		<path d="M93.4,319.2c-12,0-23.9,0-35.9,0c-0.7,0-1.3,0-2,0c-1,0-1.3-0.6-1.4-1.4c0-0.8,0.5-1.4,1.4-1.4c0.4,0,0.8,0,1.2,0
			c24.5,0,49.1,0,73.6,0c0.3,0,0.7,0,1,0c1,0,1.5,0.6,1.5,1.6c0,0.9-0.6,1.3-1.5,1.3c-1.7,0-3.5,0-5.2,0
			C115.2,319.2,104.3,319.2,93.4,319.2C93.4,319.2,93.4,319.2,93.4,319.2z"/>
		<path d="M78.8,247.3c0.1,9.7-7.5,17.1-17.6,17.2c-9.8,0.1-17.7-7.5-17.7-17.1c-0.1-9.4,8-17.4,17.5-17.4
			C71,229.9,78.7,237.5,78.8,247.3z M61.3,252.4c-1.6,0.1-3.3,0.2-4.9,0.5c-2.2,0.4-4.3,1-5.6,3.1c-1.1,1.7-0.9,2.7,0.8,3.9
			c5.3,3.8,13.6,3.8,19.1,0c2.1-1.5,2.3-2.9,0.5-4.7c-0.9-1-2.2-1.5-3.5-1.8C65.6,252.8,63.5,252.3,61.3,252.4z M55.3,244.7
			c0,3.8,2.6,6.7,5.8,6.6c3.6-0.1,6.2-3,6.1-7c-0.1-3.6-2.7-6.3-5.9-6.3C57.7,237.9,55.2,240.7,55.3,244.7z"/>
		<path d="M113.2,236.3c8.3,0,16.7,0,25,0c1.8,0,2.5,0.4,2.5,2.3c0,1.9-0.7,2.4-2.5,2.4c-16.7-0.1-33.5-0.1-50.2,0
			c-1.8,0-2.2-0.7-2.2-2.3c0-1.7,0.5-2.3,2.3-2.3C96.3,236.4,104.8,236.4,113.2,236.3C113.2,236.3,113.2,236.3,113.2,236.3z"/>
		<path d="M102.3,251.7c-4.8,0-9.6-0.1-14.4,0c-1.9,0-2.1-0.9-2.2-2.4c-0.1-1.7,0.5-2.4,2.2-2.4c9.7,0,19.3,0,29-0.1
			c2,0,1.9,1.2,2,2.6c0,1.4-0.2,2.3-2,2.3C112,251.7,107.2,251.8,102.3,251.7C102.3,251.7,102.3,251.7,102.3,251.7z"/>
		<path class="st7" d="M61.3,252.4c2.2-0.1,4.3,0.4,6.3,1c1.3,0.3,2.5,0.8,3.5,1.8c1.8,1.9,1.7,3.3-0.5,4.7
			c-5.5,3.8-13.8,3.7-19.1,0c-1.6-1.1-1.8-2.2-0.8-3.9c1.3-2.1,3.4-2.7,5.6-3.1C58,252.5,59.7,252.5,61.3,252.4z"/>
		<path class="st7" d="M55.3,244.7c0-3.9,2.4-6.7,6-6.7c3.3,0,5.8,2.8,5.9,6.3c0.1,4-2.5,6.9-6.1,7
			C57.9,251.4,55.3,248.5,55.3,244.7z"/>
	</g>
	<g>
		<path d="M185,17.9c4.6,0,8.8,0,12.9,0c1.5,0,1.5,1.1,1.5,2.1c0,3.1,0,6.1,0,9.2c0,20.3-0.1,40.7-0.1,61c0,0.8,0,1.6,0,2.7
			c2.6,0,5,0,7.4,0c0.8,0,2.2-0.4,2.3,0.9c0.1,1.6-1.4,1.1-2.3,1.1c-16,0-31.9,0-47.9,0c-12.5,0-25.1,0-37.6,0c-0.6,0-1.1,0-1.7,0
			c-0.8-0.1-1.9,0.3-1.8-1c0-1.1,1-0.9,1.7-0.9c1.7,0,3.3,0,4.9,0c0.7-1.4,0.5-2.7,0.5-4c0-7.7,0-15.4-0.1-23.1
			c0-1.7,0.4-2.3,2.2-2.3c3.2,0.1,6.3,0.1,9.5-0.1c2.1-0.1,2.7,0.6,2.7,2.7c-0.1,7.4-0.1,14.8-0.1,22.3c0,1.4,0,2.8,0,4.2
			c2,0.6,3.7,0.2,5.8,0.3c0-14.7,0-29.3,0-44.4c4.7,0,9-0.1,13.3,0c1.7,0,1.2,1.6,1.2,2.6c0,9.3,0,18.6,0,27.8c0,4.5,0,9.1,0,13.7
			c2,0,3.7,0,5.7,0c0-19.7,0-39.2,0-59.1c4.6,0,8.8,0,13,0c0.9,0,1.3,0.6,1.3,1.5c0,0.7,0,1.5,0,2.2c0,17.5,0,35.1,0,52.6
			c0,0.9,0,1.8,0,2.9c1.9,0,3.6,0,5.6,0C185,67.9,185,43.1,185,17.9z"/>
		<path d="M61.8,114.6c-8.9-9.4-23.5-10.8-34.2-2.9c-9.9,7.3-13.7,20.7-6.7,33.1C15.2,151,9.8,157.1,4,162.9
			c-5.4,5.4-5.5,5.7,0.2,10.6c1.8,1.5,3.5,1.6,5.2,0c1.8-1.7,3.5-3.5,5.3-5.3c4.9-4.8,9.7-9.6,14.6-14.4c11.9,6.7,26.3,4.2,34.1-6
			C71.2,137.7,70.5,123.7,61.8,114.6z"/>
		<path d="M97.2,92.6c0-1.4,0-2.7,0-4.1c0-9.2,0-18.4,0.1-27.5c0-2-0.6-2.6-2.5-2.6c-3.3,0.1-6.7,0.2-10,0.1
			c-2.1-0.1-2.7,0.6-2.7,2.7c0.1,9.7,0.1,19.5,0.1,29.2c0,0.8,0.3,1.7-0.3,2.4c-1.8,0-3.6,0-5.7,0c0-4.9,0-9.6,0-14.3
			c0-0.9,0-1.8,0-2.7c0-0.5-0.1-1.1-0.4-1.5c-0.6-0.9-2.1-1-3-1c-2.9-0.2-5.9-0.1-8.8,0.1c-0.7,0-1.5,0-2,0.6
			c-0.1,0.1-0.1,0.1-0.2,0.2c-0.4,0.7-0.4,1.6-0.4,2.4c0.2,5.3,0.1,10.7,0.1,16.2c-2.1,0-3.9,0-5.9,0c0-3.1-0.1-5.9,0-8.8
			c0-1.6-0.5-2.1-2.1-2.1c-3.3,0.1-6.7,0.1-10,0c-2.3-0.1-2.9,0.8-2.8,2.9c0.1,2.7,0.4,5.5-0.2,8.2c-3.7,0-7-0.1-10.3,0
			c-3.3,0.1-6.6-0.4-10.4,0.5c2.3,1.8,82.7,1.8,84.9,0.4C102.3,92.1,99.6,93.6,97.2,92.6z"/>
		<path d="M64.8,56.4c7-9.5,14-18.8,20.9-28.2c-1.3-2.1-4-2.2-5.1-4.2c0.5-1.1,1.5-1.3,2.3-1.6c4.1-1.5,8.2-2.9,12.3-4.5
			c1.7-0.7,2.6-0.5,2.6,1.6c-0.1,4.4-0.1,8.7-0.3,13.1c-0.1,2.5-0.8,2.8-2.9,1.3c-1.2-0.8-2.4-1.7-3.7-2.5c-1.9,1.4-2.9,3.3-4.2,5
			c-6.3,8.5-12.6,17-18.8,25.5c-1.3,1.8-2.5,2.3-4.5,0.7c-2.5-2.1-5.3-3.7-7.9-5.6c-1.5-1.1-2.7-1-4.1,0.3
			C42.6,64.8,33.8,72.2,25,79.6c-0.4,0.3-0.7,0.6-1,0.9c-1,0.8-2.1,1.1-2.9,0c-0.8-1.1,0.2-1.7,0.9-2.3c9.9-9.5,19.8-19,29.7-28.6
			c1.2-1.1,2.1-1.1,3.4-0.2C58.1,51.7,61.3,53.9,64.8,56.4z"/>
		<path d="M20.2,1.1c0.8-1.5,2-1,3.1-1c41,0,82-0.1,123-0.1c20.3,0,40.6,0,61,0c0.6,0,1.3,0,1.9,0c0.6,0,1.1,0.2,1.1,0.9
			c0,0.7-0.4,1-1,1c-0.6,0-1.1,0-1.7,0C146.2,2,84.8,2,23.4,1.9C22.4,1.9,21.1,2.4,20.2,1.1z"/>
		<path d="M110.6,10.9c1.4,0.4,1.1,1.4,1.1,2.3c0,26.6,0,53.3-0.1,79.9c0,0.8,0.4,2.2-0.9,2.2c-1.4,0-0.9-1.4-0.9-2.2
			c0-26.6,0-53.3,0-79.9C109.8,12.4,109.5,11.5,110.6,10.9z"/>
		<path class="st6" d="M62.1,132.3c0,9.9-8.9,18.7-19,18.7c-10.2,0-18.7-8.6-18.8-18.8c-0.1-10,8.6-18.7,18.6-18.7
			C53.6,113.4,62,121.6,62.1,132.3z"/>
		<g>
			<path class="st8" d="M207.8,142.3c0-8.8,0-17.6,0-26.4c0-0.5,0-0.9-0.1-1.3c0,0.4,0.1,0.8,0.1,1.3
				C207.8,124.7,207.8,133.5,207.8,142.3z"/>
			<path class="st8" d="M144.7,111.3c-4.3,0-8.6,0-12.9,0C136.1,111.3,140.4,111.3,144.7,111.3L144.7,111.3z"/>
			<path class="st8" d="M184.2,111.3c-12.4,0-24.8,0-37.2,0l0,0C159.4,111.3,171.8,111.3,184.2,111.3z"/>
			<path class="st8" d="M84.7,112.1c0.2-0.2,0.4-0.3,0.6-0.4C85.1,111.8,84.9,112,84.7,112.1z"/>
			<path class="st8" d="M207.9,168.8L207.9,168.8c0,0.9-0.1,1.7-0.2,2.3C207.8,170.5,207.9,169.7,207.9,168.8z"/>
			<path class="st8" d="M83.8,168.8L83.8,168.8c0-5.8,0-11.7,0-17.5C83.8,157.1,83.8,163,83.8,168.8z"/>
			<path class="st8" d="M203,173.6c-18.7,0-37.4,0-56.1,0l0,0C165.6,173.6,184.3,173.6,203,173.6c2.3,0,3.6-0.4,4.3-1.7
				C206.7,173.2,205.4,173.6,203,173.6z"/>
			<path d="M203.1,108.8c-19.1,0-38.2,0-57.3,0c-19.2,0-38.4,0-57.6,0c-5.1,0-6.8,1.7-6.8,6.9c0,17.5,0,35.1,0.1,52.6
				c0,6.4,1.5,7.9,7.9,7.9c37.9,0,75.7,0,113.6,0c5.6,0,7.4-1.9,7.4-7.5c0-17.5,0-35.1,0-52.6C210.3,110.7,208.4,108.8,203.1,108.8z
				 M207.9,168.8c0,0.9-0.1,1.7-0.2,2.3c-0.1,0.3-0.2,0.6-0.3,0.8c-0.6,1.2-2,1.7-4.3,1.7c-18.7,0-37.4,0-56.1,0v0.8
				c0,0.6-0.5,1.1-1.1,1.1h-0.1c-0.6,0-1.1-0.5-1.1-1.1v-0.8c-18.7,0-37.3,0-56,0c-2,0-3.3-0.2-4-1c-0.5-0.5-0.7-1.1-0.8-2
				c-0.1-0.5-0.1-1.2-0.1-1.9l0,0l0,0c0-5.8,0-11.7,0-17.5c0-11.7,0-23.4,0-35.1c0-1.1,0-1.9,0.2-2.6c0.1-0.7,0.4-1.2,0.7-1.5
				c0.2-0.2,0.4-0.3,0.6-0.4c0.1-0.1,0.3-0.1,0.4-0.2c0.7-0.2,1.7-0.3,3.1-0.3c14.3,0,28.7,0,43,0c4.3,0,8.6,0,12.9,0v-0.9
				c0-0.6,0.5-1.1,1.1-1.1h0.1c0.6,0,1.1,0.5,1.1,1.1v0.9c12.4,0,24.8,0,37.2,0c6.3,0,12.7,0,19,0c0.2,0,0.4,0,0.6,0
				c0.4,0,0.8,0,1.1,0.1c1.7,0.3,2.4,1,2.7,2.7c0,0.2,0,0.3,0.1,0.5c0,0.4,0.1,0.8,0.1,1.3c0,8.8,0,17.6,0,26.4
				C207.8,151.2,207.9,160,207.9,168.8L207.9,168.8L207.9,168.8z"/>
			<path class="st7" d="M145.3,146.3c0.5-0.5,1.1-1.1,1.6-1.6v0c0,0,0,0,0,0c1.4-1.4,2.8-2.8,4.2-4.2c0.7-0.7,0.8-1.4,0.2-1.9
				c-0.7-0.6-1.3-0.4-1.9,0.3c-0.8,0.9-1.7,1.7-2.5,2.5c-0.6,0.6-1.2,1.2-1.9,1.9c-0.1,0.1-0.3,0.2-0.4,0.3c-0.3,0.2-0.6,0.1-1-0.3
				c-0.6-0.6-1.2-1.2-1.9-1.8c-0.3-0.3-0.8-0.4-1.2-0.2c-0.4,0.2-0.7,0.5-0.7,1.2c0,0.3,0.2,0.6,0.4,0.8c1.1,1.1,2.1,2.1,3.2,3.2
				c0.4,0.4,0.8,0.5,1.1,0.4v0C144.9,146.7,145.1,146.5,145.3,146.3z"/>
			<path class="st7" d="M144.7,173.6V152c-4.8-0.5-8.6-4.7-8.6-9.7c0-4.8,3.8-8.9,8.6-9.5v-21.6c-4.3,0-8.6,0-12.9,0
				c-14.3,0-28.7,0-43,0c-1.3,0-2.3,0.1-3.1,0.3c-0.1,0-0.3,0.1-0.4,0.2c-0.3,0.1-0.5,0.3-0.6,0.4c-0.4,0.4-0.6,0.8-0.7,1.5
				s-0.2,1.5-0.2,2.6c0,11.7,0,23.4,0,35.1c0,5.8,0,11.7,0,17.5c0,0.7,0,1.4,0.1,1.9c0.1,0.9,0.4,1.5,0.8,2c0.7,0.7,2,1,4,1
				C107.4,173.7,126,173.7,144.7,173.6z M91.9,154.9c0.6-3.2,2.5-5.3,5.6-6.3c2.3-0.7,4.7-1.2,6.9-2c2.8-1,3.1-2.6,1-4.5
				c-4.8-4.2-6.1-13.6-2.5-18.9c2.5-3.7,6.3-4.8,10.5-4.2c4.2,0.6,7.4,2.8,8.3,7.1c1.4,6.1,1,11.8-4.2,16.3
				c-1.5,1.3-1.2,3.2,0.7,3.9c1.9,0.7,3.9,1.2,5.8,1.7c5.8,1.7,7.7,4.1,8,10.1c0.1,2.1,0,4.2,0,6.5c-13.6,0-26.8,0-40.3,0
				C91.4,161.2,91.3,158,91.9,154.9z"/>
			<path class="st6" d="M207.8,115.9c0-0.5,0-0.9-0.1-1.3c0-0.2,0-0.4-0.1-0.5c-0.3-1.7-1-2.5-2.7-2.7c-0.3-0.1-0.7-0.1-1.1-0.1
				c-0.2,0-0.4,0-0.6,0c-6.3,0-12.7,0-19,0c-12.4,0-24.8,0-37.2,0v21.6c0,0,0,0,0,0c4.7,0.5,8.7,4.8,8.6,9.7
				c-0.1,4.7-3.6,8.9-8.6,9.5c0,0,0,0,0,0v21.6c18.7,0,37.4,0,56.1,0c2.3,0,3.6-0.4,4.3-1.7c0.1-0.2,0.2-0.5,0.3-0.8
				c0.2-0.6,0.2-1.4,0.2-2.3c0-8.8,0-17.6,0-26.4C207.8,133.5,207.8,124.7,207.8,115.9z M197.9,164.5c-13.5,0-26.6,0-40.1,0
				c0-3.7-0.5-7.4,0.5-11c0.7-2.4,2.3-4,4.7-4.7c2.5-0.8,5-1.4,7.4-2.2c3-1,3.3-2.7,1.1-4.8c-4.7-4.3-5.9-13.3-2.5-18.7
				c2.2-3.4,6.7-5,11.3-4c4.4,1,7.5,4.1,7.9,8.5c0.5,5.6,0.2,11-4.8,14.8c-1.4,1.1-0.9,3.1,1.1,3.9c1.9,0.8,3.9,1.2,5.8,1.8
				c5.5,1.7,7.4,4.2,7.5,9.8C198,160.1,197.9,162.2,197.9,164.5z"/>
			<path class="st7" d="M207.8,142.3c0,8.8,0,17.6,0,26.4l0,0C207.9,160,207.8,151.2,207.8,142.3z"/>
			<path class="st7" d="M203.8,111.3c-0.2,0-0.4,0-0.6,0c-6.3,0-12.7,0-19,0c6.3,0,12.7,0,19,0C203.4,111.3,203.6,111.3,203.8,111.3
				z"/>
			<path class="st7" d="M207.7,114.1c-0.3-1.7-1-2.5-2.7-2.7C206.6,111.6,207.4,112.4,207.7,114.1z"/>
			<path class="st7" d="M83.8,168.8c0,0.7,0,1.4,0.1,1.9C83.8,170.2,83.8,169.6,83.8,168.8L83.8,168.8z"/>
			<path class="st7" d="M131.8,111.3c-14.3,0-28.7,0-43,0c-1.3,0-2.3,0.1-3.1,0.3c0.7-0.2,1.7-0.3,3.1-0.3
				C103.2,111.3,117.5,111.3,131.8,111.3z"/>
			<path class="st7" d="M88.7,173.7c-2,0-3.3-0.2-4-1C85.4,173.5,86.7,173.7,88.7,173.7c18.7,0,37.3,0,56,0l0,0
				C126,173.7,107.4,173.7,88.7,173.7z"/>
			<path class="st7" d="M84,113.7c-0.1,0.7-0.2,1.5-0.2,2.6c0,11.7,0,23.4,0,35.1c0-11.7,0-23.4,0-35.1
				C83.8,115.2,83.9,114.3,84,113.7z"/>
			<path d="M131.9,164.5c0-2.3,0.1-4.4,0-6.5c-0.3-6-2.2-8.4-8-10.1c-2-0.6-4-1-5.8-1.7c-1.9-0.8-2.2-2.6-0.7-3.9
				c5.2-4.5,5.6-10.2,4.2-16.3c-1-4.3-4.1-6.5-8.3-7.1c-4.2-0.6-8,0.5-10.5,4.2c-3.6,5.3-2.2,14.7,2.5,18.9c2.2,1.9,1.9,3.5-1,4.5
				c-2.3,0.8-4.6,1.3-6.9,2c-3.1,0.9-5,3.1-5.6,6.3c-0.6,3.2-0.4,6.4-0.2,9.7C105.1,164.5,118.3,164.5,131.9,164.5z"/>
			<path d="M190.4,148.2c-1.9-0.6-4-1-5.8-1.8c-2-0.8-2.5-2.8-1.1-3.9c5-3.9,5.3-9.3,4.8-14.8c-0.4-4.4-3.5-7.6-7.9-8.5
				c-4.6-1-9.1,0.6-11.3,4c-3.4,5.4-2.2,14.4,2.5,18.7c2.3,2.1,1.9,3.8-1.1,4.8c-2.4,0.8-5,1.4-7.4,2.2c-2.4,0.7-4,2.4-4.7,4.7
				c-1,3.6-0.5,7.3-0.5,11c13.5,0,26.6,0,40.1,0c0-2.3,0-4.4,0-6.5C197.8,152.3,195.9,149.8,190.4,148.2z"/>
			<path d="M145.1,143.2c-0.1,0.1-0.3,0.2-0.4,0.3v-10.6c-4.8,0.6-8.6,4.7-8.6,9.5c0,5,3.8,9.2,8.6,9.7v-5.3c-0.4,0.1-0.7,0-1.1-0.4
				c-1.1-1.1-2.1-2.1-3.2-3.2c-0.3-0.3-0.5-0.6-0.4-0.8c0.1-0.6,0.3-1,0.7-1.2c0.4-0.2,0.9-0.1,1.2,0.2c0.6,0.6,1.3,1.2,1.9,1.8
				c0.3,0.4,0.6,0.4,1,0.3C144.8,143.4,145,143.3,145.1,143.2c0.6-0.6,1.2-1.2,1.9-1.9c0.8-0.8,1.7-1.7,2.5-2.5
				c0.6-0.6,1.2-0.9,1.9-0.3c0.6,0.5,0.5,1.2-0.2,1.9c-1.4,1.4-2.8,2.8-4.2,4.2c0,0,0,0,0,0v7.3c0,0,0,0,0,0c5-0.6,8.5-4.7,8.6-9.5
				c0.1-4.9-3.9-9.2-8.6-9.7c0,0,0,0,0,0v8.5C146.3,141.9,145.7,142.6,145.1,143.2z"/>
			<path d="M146.2,111.3C146.2,111.3,146.2,111.3,146.2,111.3c0.3,0,0.5,0,0.8,0v-0.9c0-0.6-0.5-1.1-1.1-1.1h-0.1
				c-0.6,0-1.1,0.5-1.1,1.1v0.9C145.2,111.3,145.7,111.3,146.2,111.3L146.2,111.3z"/>
			<path d="M146.2,111.3C146.2,111.3,146.2,111.3,146.2,111.3c-0.5,0-1,0-1.5,0v21.6c0,0,0,0,0,0c0.4-0.1,0.9-0.1,1.3-0.1
				c0.3,0,0.6,0,0.9,0.1v-21.6C146.7,111.3,146.4,111.3,146.2,111.3L146.2,111.3z"/>
			<path d="M144.7,132.9C144.7,132.9,144.7,132.9,144.7,132.9l0,10.6c0.1-0.1,0.2-0.2,0.4-0.3c0.6-0.6,1.2-1.2,1.9-1.9v-8.5
				c-0.3,0-0.6-0.1-0.9-0.1C145.6,132.8,145.1,132.8,144.7,132.9z"/>
			<path d="M145.9,173.6c0.4,0,0.7,0,1.1,0l0,0C146.6,173.6,146.2,173.6,145.9,173.6z"/>
			<path d="M144.7,173.6v0.8c0,0.6,0.5,1.1,1.1,1.1h0.1c0.6,0,1.1-0.5,1.1-1.1v-0.8c-0.4,0-0.7,0-1.1,0
				C145.5,173.6,145.1,173.6,144.7,173.6z"/>
			<path d="M145.3,146.3c0.5-0.5,1.1-1.1,1.6-1.6v0C146.4,145.2,145.9,145.8,145.3,146.3c-0.2,0.2-0.4,0.3-0.6,0.4v0c0,0,0,0,0,0
				C144.9,146.7,145.1,146.5,145.3,146.3z"/>
			<path d="M144.7,152C144.7,152,144.7,152,144.7,152l0,21.6c0.4,0,0.8,0,1.2,0c0.4,0,0.7,0,1.1,0V152c-0.4,0.1-0.9,0.1-1.3,0.1
				C145.3,152.1,145,152.1,144.7,152z"/>
			<path d="M144.7,173.6L144.7,173.6c0.4,0,0.8,0,1.2,0C145.5,173.6,145.1,173.6,144.7,173.6z"/>
			<path d="M145.3,146.3c-0.2,0.2-0.4,0.3-0.6,0.4c0,0,0,0,0,0v5.3c0,0,0,0,0,0c0.3,0,0.6,0.1,0.9,0.1c0.5,0,0.9,0,1.3-0.1v-7.3
				C146.4,145.2,145.9,145.8,145.3,146.3z"/>
		</g>
	</g>
</g>
</svg>
