<?xml version="1.0" encoding="utf-8"?>
<!-- Generator: Adobe Illustrator 25.0.0, SVG Export Plug-In . SVG Version: 6.00 Build 0)  -->
<svg version="1.1" id="Layer_1" xmlns="http://www.w3.org/2000/svg" xmlns:xlink="http://www.w3.org/1999/xlink" x="0px" y="0px"
	 viewBox="0 0 109.52 109" style="enable-background:new 0 0 109.52 109;" xml:space="preserve">
<style type="text/css">
	.st0{fill:#185AE9;}
	.st1{fill:#00B0FB;}
	.st2{fill-rule:evenodd;clip-rule:evenodd;fill:#00B0FB;}
	.st3{fill:none;}
	.st4{fill:#00B0FB;fill-opacity:0.4;}
	.st5{fill:#FFFFFF;}
	.st6{fill:#3C7CFF;}
	.st7{fill:#001135;}
	.st8{fill:#8DB849;}
	.st9{fill:#5A863E;}
	.st10{fill:#FFFFFE;}
	.st11{fill:#009CDE;}
	.st12{fill:#FCB415;}
	.st13{opacity:0.2;fill:#FFFFFF;enable-background:new    ;}
	.st14{fill:#68B345;}
	.st15{fill:#0A99D6;}
	.st16{opacity:0.1;fill:#010101;enable-background:new    ;}
	.st17{fill:#EE3325;}
	.st18{fill:url(#SVGID_1_);}
	.st19{fill:#B3B3B3;}
	.st20{fill:#A6120D;}
	.st21{fill:#DD1B16;}
	.st22{fill:#F2F2F2;}
	.st23{fill:#FF2D20;}
	.st24{clip-path:url(#SVGID_2_);fill:#F9C638;}
	.st25{fill:#2A2D2C;}
	.st26{fill:#F9C638;}
	.st27{fill:#FDFDFD;}
	.st28{fill:#DBDBDB;}
	.st29{fill:#FBFBFB;}
	.st30{fill:#121212;}
	.st31{fill:#FCFCFC;}
	.st32{fill:#D2D3D3;}
	.st33{fill:#F6F6F6;}
	.st34{fill:#BABBBB;}
	.st35{fill:#8A8A8A;}
	.st36{fill:#8E8F8F;}
	.st37{fill:#5F5E5E;}
</style>
<g>
	<path class="st2" d="M61.28,100.11c-0.08,0.99-0.36,1.96-0.83,2.83l-1.85,3.45c0.67,0.39,1.36,0.79,2.03,1.16
		c1.6,0.88,3.63,0.21,4.5-1.37c0.9-1.64,0.29-3.69-1.34-4.6C62.97,101.11,62.13,100.59,61.28,100.11L61.28,100.11z M38.34,65.05
		c5.03,5.39,10.84,3.04,16.37,0.8c5.05-2.04,9.9-4.01,14.51-1.37L87.2,74.72c0.74,0.42,1.4,0.97,1.94,1.62l2.67-1.12l-9.17-23.64
		c-4.08,2.18-7.05,0.93-11.06-0.71c-4.38-1.79-9.51-3.89-16.5,0.9c-3.82,2.61-6.88,6.32-10.73,9.21
		C42.45,62.43,40.44,63.78,38.34,65.05L38.34,65.05z M39.18,83.44c-1.46-0.78-3.14-1.03-4.76-0.71c-0.29-2.31-1.67-4.35-3.73-5.45
		c-2.81-1.5-6.29-0.95-8.51,1.32c-0.44-2.29-1.06-4.52-3.64-5.52c-0.15-0.06-0.41-0.17-0.75-0.31L28.1,49.42l1.19,0.55
		c3.61,2,6.96,1.22,10.6,0.37c3.27-0.77,6.83-1.6,10.85,0.18c-2.94,2.45-5.49,5.26-8.56,7.57c-2.11,1.58-4.42,3.1-6.91,4.55
		c-1.27,0.74-1.6,2.45-0.7,3.61c6.91,8.9,14.41,5.86,21.51,2.99c4.22-1.71,8.26-3.35,11.35-1.59L85.4,77.89
		c1.6,0.91,2.25,2.94,1.36,4.59c-0.92,1.6-2.89,2.26-4.54,1.37c-4.11-2.35-8.27-4.64-12.39-6.99c-0.87-0.5-1.99-0.2-2.49,0.68
		c0,0,0,0,0,0c-0.5,0.87-0.2,1.99,0.68,2.49c0,0,0,0,0,0c4.11,2.35,8.25,4.67,12.38,6.99c1.62,0.91,2.24,2.95,1.34,4.59
		c-0.87,1.58-2.98,2.25-4.57,1.34l-16.28-9.16c-0.88-0.49-1.99-0.18-2.48,0.69c-0.49,0.88-0.18,1.99,0.69,2.48c0,0,0.01,0,0.01,0
		c4.43,2.49,8.85,5.02,13.28,7.51c1.63,0.92,2.24,2.96,1.33,4.61c-0.9,1.61-2.95,2.2-4.57,1.31l-9.46-5.36
		c-0.6-0.73-1.34-1.34-2.17-1.78c-1.73-0.93-3.77-1.1-5.63-0.48c-0.52-1.9-1.79-3.49-3.53-4.42c-1.73-0.93-3.77-1.1-5.63-0.48
		C42.19,85.96,40.93,84.37,39.18,83.44L39.18,83.44z M47.5,104.85c-0.26,1.49,0.47,3.02,1.81,3.73c1.71,0.91,3.86,0.26,4.77-1.45
		l3.16-5.92c0.91-1.71,0.25-3.87-1.45-4.77c-1.42-0.76-3.21-0.44-4.29,0.76L47.5,104.85z M48.38,95.54c0.4-1.56-0.33-3.23-1.75-3.99
		c-1.42-0.76-3.21-0.44-4.29,0.76l-4.47,8.58c-0.22,1.47,0.51,2.94,1.82,3.64c1.55,0.83,3.51,0.37,4.53-1.06L48.38,95.54z
		 M39.22,90.64c0.4-1.56-0.33-3.23-1.75-3.99c-1.32-0.7-2.96-0.49-4.06,0.52l-5.19,9.29c-0.91,1.71-0.26,3.86,1.45,4.77
		c1.73,0.92,3.86,0.25,4.78-1.47L39.22,90.64z M30.52,85.07c0.76-1.68,0.08-3.7-1.54-4.57c-1.71-0.91-3.86-0.26-4.77,1.45l-3.3,6.17
		c-0.91,1.71-0.26,3.86,1.45,4.77c1.31,0.7,2.94,0.49,4.04-0.5L30.52,85.07z M54.76,0l23.99,10.28v19.4
		c0,6.82-2.34,12.89-6.29,17.63c-1.47-0.6-3.02-1.21-4.68-1.63c0.4-0.41,0.79-0.84,1.16-1.29c3.29-3.95,5.24-9,5.24-14.71V14.49
		c0-0.78-0.49-1.47-1.23-1.73L55.47,5.28c-0.46-0.19-0.97-0.19-1.43,0l-17.6,7.54c-0.67,0.29-1.11,0.95-1.11,1.68l0,15.19
		c0,5.71,1.95,10.76,5.24,14.71c0.5,0.6,1.03,1.18,1.59,1.72c-1.07,0.19-2.1,0.43-3.11,0.67c-0.7,0.16-1.38,0.32-2.05,0.46
		c-3.92-4.73-6.23-10.78-6.23-17.56v-19.4L54.76,0z M54.76,8.93l-15.78,6.76v13.99c0,4.83,1.63,9.08,4.39,12.39
		c1.21,1.45,2.64,2.73,4.25,3.8c2,0.23,4.13,0.89,6.42,2.25c3.31-2.07,6.24-2.88,8.9-2.99c1.18-0.89,2.26-1.92,3.21-3.06
		c2.76-3.31,4.39-7.56,4.39-12.39V15.69L54.76,8.93z M65.92,24.82c-3.89,3.93-7.76,7.89-11.68,11.8c-1.14,1.14-3,1.14-4.14,0
		l-6.49-6.49c-1.14-1.14-1.14-3,0-4.14c1.14-1.14,3-1.14,4.14,0l4.41,4.41l9.6-9.7c1.14-1.15,2.99-1.15,4.14-0.01
		C67.05,21.82,67.06,23.67,65.92,24.82L65.92,24.82z M109.31,73.38L96.23,39.65c-0.63-1.63-2.48-2.45-4.12-1.82l-6.49,2.52
		c-1.63,0.63-2.45,2.48-1.82,4.12L96.88,78.2c0.63,1.63,2.48,2.45,4.12,1.82l6.49-2.52C109.12,76.87,109.94,75.01,109.31,73.38
		L109.31,73.38z M91.24,47.38c-1.2,0-2.16-0.97-2.16-2.16s0.97-2.16,2.16-2.16c1.2,0,2.16,0.97,2.16,2.16S92.44,47.38,91.24,47.38z
		 M25.46,38.49l-6.37-2.82c-1.6-0.71-3.49,0.02-4.2,1.62L0.27,70.39c-0.71,1.6,0.02,3.49,1.62,4.2l6.37,2.82
		c1.6,0.71,3.49-0.02,4.19-1.62l14.63-33.09C27.79,41.09,27.06,39.2,25.46,38.49L25.46,38.49z M19.52,45.26
		c-1.19-0.06-2.12-1.07-2.06-2.26c0.06-1.19,1.07-2.12,2.26-2.06c1.19,0.06,2.12,1.07,2.06,2.26
		C21.73,44.39,20.71,45.31,19.52,45.26z"/>
</g>
</svg>
