<?xml version="1.0" encoding="utf-8"?>
<!-- Generator: Adobe Illustrator 25.0.0, SVG Export Plug-In . SVG Version: 6.00 Build 0)  -->
<svg version="1.1" id="Layer_1" xmlns="http://www.w3.org/2000/svg" xmlns:xlink="http://www.w3.org/1999/xlink" x="0px" y="0px"
	 viewBox="0 0 170.32 192" style="enable-background:new 0 0 170.32 192;" xml:space="preserve">
<style type="text/css">
	.st0{fill:#001135;}
	.st1{fill:#FFFFFF;}
	.st2{fill:#3C7CFF;}
	.st3{fill:#185AE9;}
	.st4{fill:#00B0FB;}
	.st5{fill-rule:evenodd;clip-rule:evenodd;fill:#00B0FB;}
	.st6{fill:#061639;}
	.st7{fill:#1429FF;}
	.st8{fill:#663398;}
	.st9{fill:#FEFEFE;}
	.st10{fill:#8DB849;}
	.st11{fill:#5A863E;}
	.st12{fill:#FFFFFE;}
	.st13{fill-rule:evenodd;clip-rule:evenodd;fill:#7FC728;}
	.st14{fill:#B3B3B3;}
	.st15{fill:#A6120D;}
	.st16{fill:#DD1B16;}
	.st17{fill:#F2F2F2;}
	.st18{fill:#8F9ED1;}
	.st19{fill:#030303;}
	.st20{fill:#0E0E0D;}
	.st21{fill:#8F8F90;}
	.st22{fill:#DBDBDB;}
	.st23{fill:#FDFDFD;}
	.st24{fill:#FDFCFD;}
	.st25{fill:#010101;}
	.st26{fill:#FCB415;}
	.st27{opacity:0.2;fill:#FFFFFF;enable-background:new    ;}
	.st28{fill:#68B345;}
	.st29{fill:#0A99D6;}
	.st30{opacity:0.1;fill:#010101;enable-background:new    ;}
	.st31{fill:#EE3325;}
	.st32{fill:url(#SVGID_1_);}
	.st33{fill:#FF2D20;}
	.st34{clip-path:url(#SVGID_2_);fill:#F9C638;}
	.st35{fill:#2A2D2C;}
	.st36{fill:#F9C638;}
	.st37{fill:#833CF7;}
	.st38{fill:none;}
	.st39{fill:#0A0A0A;}
	.st40{fill:#050505;}
	.st41{fill:#2A2A2A;}
	.st42{fill:#000100;}
	.st43{fill:#FBFBFB;}
	.st44{fill:#070707;}
	.st45{fill:#080808;}
	.st46{fill:#F7F7F7;}
	.st47{fill:#0B0B0B;}
	.st48{fill:#F1F0F1;}
	.st49{fill:#F4F4F4;}
	.st50{fill:#0C0C0C;}
	.st51{fill:#ECECEC;}
	.st52{fill:#252525;}
	.st53{fill:#D5D5D5;}
	.st54{fill:#3F3F3F;}
	.st55{fill:#818181;}
	.st56{fill:#A2A2A2;}
	.st57{fill:#040404;}
	.st58{fill:#151515;}
	.st59{fill:#343434;}
	.st60{fill:#4B4B4B;}
	.st61{fill:#0D0D0D;}
	.st62{fill:#00D8FF;}
	.st63{fill:#4DBA87;}
	.st64{fill:#425466;}
	.st65{fill:url(#SVGID_3_);}
	.st66{fill:url(#SVGID_4_);}
	.st67{fill:#14559A;}
	.st68{fill:url(#SVGID_6_);}
	.st69{fill:#3092C4;}
	.st70{fill:#1969BC;}
	.st71{fill:url(#SVGID_7_);}
	.st72{fill:url(#SVGID_8_);}
	.st73{fill:url(#SVGID_9_);}
	.st74{fill:#2B74B1;}
	.st75{fill:#125A9E;}
	.st76{fill:url(#SVGID_10_);}
	.st77{fill:url(#SVGID_11_);}
	.st78{fill:#0D82CA;}
	.st79{fill:url(#SVGID_12_);}
	.st80{fill:#127BCA;}
	.st81{fill:url(#SVGID_13_);}
	.st82{fill:url(#SVGID_14_);}
	.st83{fill:#05A1E6;}
	.st84{fill:url(#SVGID_15_);}
	.st85{fill:url(#SVGID_16_);}
	.st86{fill:url(#SVGID_17_);}
	.st87{fill:#079AE1;}
	.st88{fill:#1E5CB3;}
	.st89{fill:#1D60B5;}
	.st90{fill:#175FAB;}
	.st91{fill:url(#SVGID_18_);}
	.st92{fill:#7DCBEC;}
	.st93{fill:#5EC5ED;}
	.st94{fill:url(#SVGID_19_);}
	.st95{fill:url(#SVGID_20_);}
	.st96{fill:url(#SVGID_21_);}
	.st97{fill:#6EB341;}
	.st98{fill:#F6F6F6;}
</style>
<g>
	<path class="st13" d="M106.92,136.06c-30.78,0-37.24-14.13-37.24-25.98c0-1.13,0.91-2.03,2.03-2.03h9.09c1,0,1.84,0.73,2,1.72
		c1.38,9.27,5.45,13.94,24.08,13.94c14.83,0,21.13-3.34,21.13-11.22c0-4.53-1.8-7.89-24.83-10.14
		c-19.27-1.91-31.17-6.14-31.17-21.56c0-14.19,11.97-22.64,32.03-22.64c22.53,0,33.69,7.81,35.09,24.63
		c0.05,0.58-0.16,1.14-0.55,1.56c-0.39,0.41-0.94,0.66-1.5,0.66h-9.13c-0.95,0-1.78-0.67-1.97-1.58
		c-2.2-9.73-7.52-12.86-21.98-12.86c-16.19,0-18.06,5.64-18.06,9.86c0,5.13,2.22,6.63,24.06,9.52c21.63,2.88,31.89,6.92,31.89,22.13
		c0,15.33-12.78,24.11-35.08,24.11L106.92,136.06L106.92,136.06z M85.19,192c-2.58,0-5.13-0.67-7.38-1.97l-23.48-13.91
		c-3.52-1.97-1.8-2.66-0.64-3.06c4.67-1.64,5.63-2,10.63-4.84c0.53-0.3,1.22-0.19,1.75,0.12l18.05,10.7c0.66,0.36,1.58,0.36,2.19,0
		l70.36-40.61c0.66-0.38,1.08-1.13,1.08-1.91V55.36c0-0.81-0.42-1.53-1.09-1.94L86.3,12.84c-0.66-0.39-1.52-0.39-2.17,0L13.81,53.42
		c-0.69,0.39-1.11,1.14-1.11,1.92v81.19c0,0.78,0.42,1.52,1.09,1.89l19.27,11.13c10.45,5.23,16.86-0.94,16.86-7.13V62.28
		c0-1.14,0.89-2.03,2.05-2.03h8.91c1.11,0,2.03,0.88,2.03,2.03v80.17c0,13.95-7.61,21.95-20.83,21.95c-4.06,0-7.28,0-16.22-4.41
		L7.38,149.36C2.81,146.72,0,141.8,0,136.53V55.34c0-5.28,2.81-10.22,7.38-12.83L77.8,1.89c4.45-2.52,10.38-2.52,14.8,0l70.35,40.64
		c4.55,2.63,7.38,7.53,7.38,12.83v81.19c0,5.27-2.83,10.17-7.38,12.83L92.6,190c-2.25,1.3-4.81,1.97-7.41,1.97V192L85.19,192z
		 M85.19,192L85.19,192L85.19,192L85.19,192z"/>
</g>
</svg>
