<?xml version="1.0" encoding="utf-8"?>
<!-- Generator: Adobe Illustrator 24.3.0, SVG Export Plug-In . SVG Version: 6.00 Build 0)  -->
<svg version="1.1" id="Layer_1" xmlns="http://www.w3.org/2000/svg" xmlns:xlink="http://www.w3.org/1999/xlink" x="0px" y="0px"
	 width="118.1px" height="115px" viewBox="0 0 118.1 115" style="enable-background:new 0 0 118.1 115;" xml:space="preserve">
<style type="text/css">
	.st0{fill:#00C8FF;}
	.st1{fill-rule:evenodd;clip-rule:evenodd;fill:#00C8FF;}
	.st2{fill:#185AE9;}
	.st3{fill:#FFFFFF;}
	.st4{fill-rule:evenodd;clip-rule:evenodd;fill:#FFFFFF;}
	.st5{fill:#00B0FB;}
	.st6{fill:#00B0FB;fill-opacity:0.4;}
	.st7{fill:#E4ECF4;}
	.st8{fill:#FFE8A0;}
	.st9{fill:none;}
	.st10{fill:#0D0D0D;}
	.st11{fill-rule:evenodd;clip-rule:evenodd;fill:#00B0FB;}
	.st12{fill:#FAFBFF;}
	.st13{fill:#070707;}
	.st14{fill:#D9D9D9;filter:url(#Adobe_OpacityMaskFilter);}
	.st15{mask:url(#mask0_103_2708_1_);}
	.st16{fill-rule:evenodd;clip-rule:evenodd;fill:#DAB6E4;}
	.st17{stroke:#FFFFFF;stroke-width:2;}
	.st18{fill:#FFFFFF;stroke:#000000;stroke-width:2;}
	.st19{fill-rule:evenodd;clip-rule:evenodd;}
	.st20{stroke:#FFFFFF;}
	.st21{fill:#FFFFFF;filter:url(#Adobe_OpacityMaskFilter_1_);}
	.st22{mask:url(#path-22-inside-1_103_2708_1_);fill:#FFFFFF;}
	.st23{fill-rule:evenodd;clip-rule:evenodd;fill:#263238;}
	.st24{fill:#EFEFEF;}
	
		.st25{fill:none;stroke:#000000;stroke-width:10.01;stroke-linecap:round;stroke-linejoin:round;stroke-miterlimit:3.08;stroke-dasharray:70.84,70.84;}
	.st26{fill:#010000;}
	.st27{opacity:0.64;}
	.st28{fill:#F9F7F5;}
	.st29{fill:#D9D9D9;filter:url(#Adobe_OpacityMaskFilter_2_);}
	.st30{mask:url(#mask0_103_2310_1_);}
	.st31{fill:#FFFFFF;filter:url(#Adobe_OpacityMaskFilter_3_);}
	.st32{mask:url(#mask1_103_2310_1_);}
	.st33{fill:#E6E6E6;}
	.st34{fill:#FFFFFF;filter:url(#Adobe_OpacityMaskFilter_4_);}
	.st35{mask:url(#mask2_103_2310_1_);}
	.st36{fill:none;stroke:#000000;stroke-width:1.5;stroke-linecap:round;stroke-linejoin:round;stroke-miterlimit:10;}
	.st37{fill:#FFFFFF;filter:url(#Adobe_OpacityMaskFilter_5_);}
	.st38{mask:url(#mask3_103_2310_1_);}
	.st39{fill:#FFFFFF;filter:url(#Adobe_OpacityMaskFilter_6_);}
	.st40{mask:url(#mask4_103_2310_1_);}
	.st41{fill:#FFFFFF;filter:url(#Adobe_OpacityMaskFilter_7_);}
	.st42{mask:url(#mask5_103_2310_1_);}
	.st43{fill:#FFFFFF;filter:url(#Adobe_OpacityMaskFilter_8_);}
	.st44{mask:url(#mask6_103_2310_1_);}
	.st45{fill:#DBDBDB;}
	.st46{fill:#FFFFFF;filter:url(#Adobe_OpacityMaskFilter_9_);}
	.st47{mask:url(#mask7_103_2310_1_);}
	.st48{fill:#FFFFFF;filter:url(#Adobe_OpacityMaskFilter_10_);}
	.st49{mask:url(#mask8_103_2310_1_);}
	.st50{fill:#FFFFFF;filter:url(#Adobe_OpacityMaskFilter_11_);}
	.st51{mask:url(#mask9_103_2310_1_);}
	.st52{fill:#FFFFFF;filter:url(#Adobe_OpacityMaskFilter_12_);}
	.st53{mask:url(#mask10_103_2310_1_);}
	.st54{fill:#FFFFFF;filter:url(#Adobe_OpacityMaskFilter_13_);}
	.st55{mask:url(#mask11_103_2310_1_);}
	.st56{fill:#FFFFFF;filter:url(#Adobe_OpacityMaskFilter_14_);}
	.st57{mask:url(#mask12_103_2310_1_);}
	.st58{fill:#FFFFFF;stroke:#000000;}
	.st59{fill:#FFFFFF;filter:url(#Adobe_OpacityMaskFilter_15_);stroke:#FFFFFF;}
	.st60{mask:url(#mask13_103_2310_1_);}
	.st61{fill:#FFFFFF;filter:url(#Adobe_OpacityMaskFilter_16_);}
	.st62{mask:url(#path-55-inside-1_103_2310_1_);}
	.st63{fill:#FFFFFF;filter:url(#Adobe_OpacityMaskFilter_17_);}
	.st64{mask:url(#path-59-inside-2_103_2310_1_);fill:#FFFFFF;}
	.st65{fill:none;stroke:#FFFFFF;stroke-width:1.5;stroke-linecap:round;stroke-linejoin:round;stroke-miterlimit:10;}
	.st66{fill:#181818;}
	.st67{fill:#BEBEBE;}
	.st68{fill:#FEFEFE;}
	.st69{fill:none;stroke:#000000;stroke-width:2.1125;stroke-miterlimit:6.5;}
	.st70{fill:#3C7CFF;stroke:#001135;stroke-width:0.7602;stroke-miterlimit:10;}
	.st71{fill:#001135;}
	.st72{fill:#3C7CFF;}
	.st73{clip-path:url(#SVGID_1_);}
	.st74{fill:#FFFFFF;stroke:#001135;stroke-width:0.7602;stroke-miterlimit:10;}
	.st75{fill:none;stroke:#001135;stroke-width:0.7602;stroke-miterlimit:10;}
	.st76{fill:#001135;stroke:#001135;stroke-width:0.7602;stroke-miterlimit:10;}
	.st77{fill:#0F0D0E;}
	.st78{fill:#161415;}
	.st79{fill:#FCFCFC;}
	.st80{fill:#FBFBFB;}
	.st81{fill:#FAFAFA;}
	.st82{fill:#C1C1C1;}
	.st83{fill:#0E0E0E;}
	.st84{fill:#EFEEEE;}
	.st85{fill:#A8A8A8;}
	.st86{fill:#9A9A9B;}
	.st87{fill:#404040;}
	.st88{fill:#EDEDED;}
	.st89{fill:#E7E7E7;}
	.st90{fill:#9A9999;}
	.st91{fill:#D2D2D2;}
	.st92{fill:#AEAEAE;}
	.st93{fill:#8D8D8C;}
	.st94{fill:#B9BABC;}
	.st95{fill:#61605F;}
	.st96{fill:#A5A5A5;}
	.st97{fill:#B5B6B6;}
	.st98{fill:#1B1C1C;}
	.st99{fill:#171616;}
	.st100{fill:#161616;}
	.st101{fill:#0F0F0F;}
	.st102{fill:#F0F0F0;}
	.st103{fill:#EDEDEC;}
	.st104{fill:#EBEBEB;}
	.st105{fill:#EBEBEA;}
	.st106{fill:#ECECEC;}
	.st107{fill:#E9E9E9;}
	.st108{fill:#EBEAEA;}
	.st109{fill:#B9BAB9;}
	.st110{fill:#EDECEC;}
	.st111{fill:#EAEAEA;}
	.st112{fill:#1F1F1E;}
	.st113{fill:#1E1E1D;}
	.st114{fill:#202020;}
	.st115{fill:#1B1A1A;}
	.st116{fill:#1F1F20;}
	.st117{fill:#252424;}
	.st118{fill:#1F1E1E;}
	.st119{fill:#222121;}
	.st120{fill:#2B2B2B;}
	.st121{fill:#1E1E1E;}
	.st122{fill:#1F1F1F;}
	.st123{fill:#434242;}
	.st124{fill:#2C2C2C;}
	.st125{fill:#484848;}
	.st126{fill:#FDFDFD;}
	.st127{fill:#F4F4F3;}
	.st128{fill:#F2F2F2;}
	.st129{fill:#F3F3F3;}
	.st130{fill:#F1F1F1;}
	.st131{fill:#191918;}
	.st132{fill:#1A1A19;}
	.st133{fill:#1D1C1D;}
	.st134{fill:#1C1A1B;}
	.st135{fill:#1E1D1E;}
	.st136{fill:#212021;}
	.st137{fill:#1D1D1D;}
	.st138{fill:#1D1B1B;}
	.st139{fill:#1F1D1E;}
	.st140{fill:#1E1D1D;}
	.st141{fill:#FCFBFB;}
</style>
<g>
	<path class="st3" d="M62.6,112h49.9c1.4,0,2.5-1.1,2.5-2.5V88.6c0-1.4-1.1-2.5-2.5-2.5H62.6c0,0,0,0,0,0c-1.4,0-2.5,1.1-2.5,2.5
		v20.9C60.1,110.9,61.2,112,62.6,112z M101,96.1c1.6,0,2.9,1.3,2.9,2.9c0,0.8-0.3,1.5-0.8,2c-0.5,0.5-1.3,0.8-2,0.8
		c-1.6,0-2.9-1.3-2.9-2.9C98.2,97.4,99.5,96.1,101,96.1z M87.6,96.1c1.6,0,2.9,1.3,2.9,2.9c0,1.6-1.3,2.9-2.9,2.9
		c-1.6,0-2.9-1.3-2.9-2.9C84.7,97.4,86,96.1,87.6,96.1z M74.1,96.1c1.6,0,2.9,1.3,2.9,2.9s-1.3,2.9-2.9,2.9s-2.9-1.3-2.9-2.9
		S72.6,96.1,74.1,96.1z"/>
	<path class="st70" d="M112.5,47.4H62.6c0,0,0,0,0,0c-1.4,0-2.5,1.1-2.5,2.5v20.9c0,1.4,1.1,2.5,2.5,2.5h49.9c1.4,0,2.5-1.1,2.5-2.5
		V49.9C115.1,48.5,113.9,47.4,112.5,47.4z M74.1,63.2c-1.6,0-2.9-1.3-2.9-2.9c0-1.6,1.3-2.9,2.9-2.9c1.6,0,2.9,1.3,2.9,2.9
		S75.7,63.2,74.1,63.2z M87.6,63.2c-1.6,0-2.9-1.3-2.9-2.9s1.3-2.9,2.9-2.9s2.9,1.3,2.9,2.9S89.2,63.2,87.6,63.2z M101,63.2
		c-1.6,0-2.9-1.3-2.9-2.9s1.3-2.9,2.9-2.9s2.9,1.3,2.9,2.9S102.6,63.2,101,63.2z"/>
	<path class="st71" d="M25.7,37.4c0,0.3,0.2,0.5,0.5,0.5c0,0,79.9,0,79.9,0c0.1,0,0.2,0,0.3,0c0.4-0.1,0.7-0.3,1-0.5
		c0.2-0.3,0.4-0.7,0.4-1c0,0,0-0.1,0-0.1c0-0.1,0-0.1,0-0.2c-1.5-8.8-8.8-15.4-17.7-16.1c0,0,0,0-0.1,0c-0.7-0.1-1.2-0.5-1.3-1.2
		C86.7,9.6,78.7,3,69.4,3c-1.3,0-2.7,0.1-4,0.4c-5,1-9.3,3.9-12.2,8.1c-0.2,0.2-0.1,0.5,0.1,0.7c2.7,2.1,4.6,4.9,5.5,8.2
		c0.2,0.8-0.2,1.6-1,1.9c-0.1,0-0.3,0.1-0.4,0.1c-0.7,0-1.3-0.4-1.4-1.1c-1.6-5.5-6.7-9.4-12.4-9.4c-1.2,0-2.4,0.2-3.6,0.5
		c-4.3,1.2-7.6,4.5-8.8,8.8c0,0,0,0,0,0c-0.2,0.6-0.6,1-1.2,1.1c-2.4,0.4-4.5,1.4-6.3,3c-0.2,0.1-0.2,0.3-0.1,0.5
		C24.8,29.5,25.6,33.4,25.7,37.4z"/>
	<path class="st3" d="M14.7,61.5c0.1,0,0.1,0,0.2,0c0.1,0,0.3-0.1,0.4-0.2c1.9-2.2,3.4-4.6,4.6-7.3c1.9-4.4,2.9-9.5,2.9-14.8
		c0-4.7-0.8-9.3-2.5-13.7c0,0,0-0.1-0.1-0.1c-0.1-0.3-0.2-0.6-0.4-0.9c-1.7-3.8-4-7-6.6-9.2c-0.1-0.1-0.2-0.1-0.3-0.1
		s-0.2,0-0.3,0.1c-2.7,2.2-5,5.4-6.6,9.2C4,29,3,34.1,3,39.4c0,0,0,0.1,0,0.1c0,5.2,1,10.3,2.9,14.7c1.1,2.7,2.7,5.1,4.6,7.3
		c0.1,0.1,0.2,0.2,0.4,0.2c0.1,0,0.1,0,0.2,0c0.2-0.1,0.3-0.3,0.3-0.5V39.4c0-0.8,0.7-1.5,1.5-1.5s1.5,0.7,1.5,1.5v21.7
		C14.4,61.3,14.5,61.5,14.7,61.5z"/>
	<path class="st71" d="M87.6,101.9c1.6,0,2.9-1.3,2.9-2.9c0-1.6-1.3-2.9-2.9-2.9c-1.6,0-2.9,1.3-2.9,2.9
		C84.7,100.6,86,101.9,87.6,101.9z"/>
	<path class="st3" d="M74.1,57.5c-1.6,0-2.9,1.3-2.9,2.9c0,1.6,1.3,2.9,2.9,2.9c1.6,0,2.9-1.3,2.9-2.9S75.7,57.5,74.1,57.5z"/>
	<path class="st71" d="M112.5,44.4H62.6c-3,0-5.5,2.5-5.5,5.5v8.5c0,0.3-0.2,0.5-0.5,0.5h-2.8c-8.8,0-16,7.2-16,16v2.8
		c0,0.3-0.2,0.5-0.5,0.5h-9.9c-6.7,0-12.2-5-12.9-11.7c0-0.2,0.1-0.3,0.2-0.4c3.2-2.6,6-6.3,7.9-10.7c1.9-4.4,3-9.2,3.2-14
		c0-0.3,0.2-0.5,0.5-0.5h79.9c0.3,0,0.5,0,0.8-0.1c2.2-0.4,3.8-2.3,3.8-4.5c0,0,0-0.1,0-0.1c0-0.2,0-0.5-0.1-0.7
		c-1.7-9.6-9.3-17.1-19-18.5c-0.2,0-0.4-0.2-0.4-0.4c-0.5-1.9-1.3-3.7-2.3-5.4C84.9,4.3,77.4,0,69.4,0c-4,0-7.9,1.1-11.4,3.1
		c-2.9,1.7-5.4,4.1-7.3,6.9c-0.1,0.1-0.3,0.2-0.4,0.2c-0.1,0-0.1,0-0.2,0c-1.9-0.9-3.9-1.3-6-1.4l-0.4,0C37,8.8,31,12.9,28.7,19.1
		c-0.1,0.2-0.2,0.3-0.3,0.3c-2.1,0.5-4,1.4-5.7,2.7c-0.1,0.1-0.2,0.1-0.3,0.1c0,0-0.1,0-0.1,0c-0.1,0-0.3-0.1-0.3-0.3
		c-2.1-4.2-4.9-7.6-8.1-9.9c-0.3-0.2-0.6-0.3-0.9-0.3c-0.3,0-0.6,0.1-0.9,0.3c-3.6,2.6-6.7,6.5-8.8,11.4C1.1,28.2,0,33.7,0,39.4
		c0,0,0,0.1,0,0.1c0,5.6,1.1,11.1,3.2,15.9c2,4.5,4.8,8.3,8.1,10.8c0.1,0.1,0.2,0.2,0.2,0.4c0.7,8.3,7.6,14.6,15.9,14.7h9.9
		c0.3,0,0.5,0.2,0.5,0.5v2.8c0,8.8,7.2,16,16,16h2.8c0.3,0,0.5,0.2,0.5,0.5v8.5c0,3,2.5,5.5,5.5,5.5h49.9c3,0,5.5-2.5,5.5-5.5V88.6
		c0-3-2.5-5.5-5.5-5.5H62.6c-3,0-5.5,2.5-5.5,5.5V97c0,0.3-0.2,0.5-0.5,0.5h-2.8c-7.2,0-13-5.8-13-13v-9.7c0-7.2,5.8-13,13-13h2.8
		c0.3,0,0.5,0.2,0.5,0.5v8.5c0,3,2.5,5.5,5.5,5.5h49.9c3,0,5.5-2.5,5.5-5.5V49.9C118.1,46.9,115.6,44.4,112.5,44.4z M23.6,25.2
		c1.8-1.6,4-2.6,6.3-3c0.6-0.1,1-0.5,1.2-1.1c0,0,0,0,0,0c1.2-4.3,4.5-7.6,8.8-8.8c1.2-0.3,2.4-0.5,3.6-0.5c5.7,0,10.8,3.8,12.4,9.4
		c0.2,0.6,0.8,1.1,1.4,1.1c0.1,0,0.3,0,0.4-0.1c0.8-0.2,1.2-1.1,1-1.9c-0.9-3.3-2.8-6.1-5.5-8.2c-0.2-0.2-0.3-0.5-0.1-0.7
		c2.9-4.2,7.2-7,12.2-8.1c1.3-0.3,2.6-0.4,4-0.4c9.3,0,17.3,6.6,19.2,15.7c0.1,0.6,0.7,1.1,1.3,1.2c0,0,0,0,0.1,0
		c8.9,0.7,16.1,7.4,17.7,16.1c0,0.1,0,0.1,0,0.2c0,0,0,0.1,0,0.1c0,0.4-0.1,0.7-0.4,1c-0.2,0.3-0.6,0.5-1,0.5c-0.1,0-0.2,0-0.3,0
		c0,0-79.9,0-79.9,0c-0.3,0-0.5-0.2-0.5-0.5c-0.2-4-0.9-7.9-2.2-11.7C23.4,25.5,23.5,25.3,23.6,25.2z M12.9,37.9
		c-0.8,0-1.5,0.7-1.5,1.5v21.7c0,0.2-0.1,0.4-0.3,0.5c-0.1,0-0.1,0-0.2,0c-0.1,0-0.3-0.1-0.4-0.2c-1.9-2.2-3.4-4.6-4.6-7.3
		C4,49.8,3,44.7,3,39.5c0,0,0-0.1,0-0.1C3,34.1,4,29,5.9,24.6c1.7-3.8,3.9-7,6.6-9.2c0.1-0.1,0.2-0.1,0.3-0.1s0.2,0,0.3,0.1
		c2.7,2.2,5,5.4,6.6,9.2c0.1,0.3,0.3,0.6,0.4,0.9c0,0,0,0.1,0.1,0.1c1.7,4.4,2.5,9,2.5,13.7c0,5.3-1,10.4-2.9,14.8
		c-1.1,2.7-2.7,5.1-4.6,7.3c-0.1,0.1-0.2,0.2-0.4,0.2c-0.1,0-0.1,0-0.2,0c-0.2-0.1-0.3-0.3-0.3-0.5V39.4
		C14.4,38.6,13.7,37.9,12.9,37.9z M60.1,88.5c0-1.4,1.1-2.5,2.5-2.5c0,0,0,0,0,0h49.9c1.4,0,2.5,1.1,2.5,2.5v20.9
		c0,1.4-1.1,2.5-2.5,2.5H62.6c-1.4,0-2.5-1.1-2.5-2.5V88.5z M115.1,70.8c0,1.4-1.1,2.5-2.5,2.5H62.6c-1.4,0-2.5-1.1-2.5-2.5V49.9
		c0-1.4,1.1-2.5,2.5-2.5c0,0,0,0,0,0h49.9c1.4,0,2.5,1.1,2.5,2.5V70.8z"/>
	<path class="st71" d="M74.1,101.9c1.6,0,2.9-1.3,2.9-2.9s-1.3-2.9-2.9-2.9s-2.9,1.3-2.9,2.9S72.6,101.9,74.1,101.9z"/>
	<path class="st3" d="M101,57.5c-1.6,0-2.9,1.3-2.9,2.9s1.3,2.9,2.9,2.9s2.9-1.3,2.9-2.9S102.6,57.5,101,57.5z"/>
	<path class="st3" d="M87.6,57.5c-1.6,0-2.9,1.3-2.9,2.9s1.3,2.9,2.9,2.9s2.9-1.3,2.9-2.9S89.2,57.5,87.6,57.5z"/>
	<path class="st71" d="M101,101.9c0.8,0,1.5-0.3,2-0.8c0.5-0.5,0.8-1.3,0.8-2c0-1.6-1.3-2.9-2.9-2.9c-1.6,0-2.9,1.3-2.9,2.9
		C98.2,100.6,99.5,101.9,101,101.9z"/>
</g>
</svg>
