<?xml version="1.0" encoding="utf-8"?>
<!-- Generator: Adobe Illustrator 24.3.0, SVG Export Plug-In . SVG Version: 6.00 Build 0)  -->
<svg version="1.1" id="Layer_1" xmlns="http://www.w3.org/2000/svg" xmlns:xlink="http://www.w3.org/1999/xlink" x="0px" y="0px"
	 width="172.6px" height="117px" viewBox="0 0 172.6 117" style="enable-background:new 0 0 172.6 117;" xml:space="preserve">
<style type="text/css">
	.st0{fill:#00C8FF;}
	.st1{fill-rule:evenodd;clip-rule:evenodd;fill:#00C8FF;}
	.st2{fill:#185AE9;}
	.st3{fill:#FFFFFF;}
	.st4{fill-rule:evenodd;clip-rule:evenodd;fill:#FFFFFF;}
	.st5{fill:#00B0FB;}
	.st6{fill:#00B0FB;fill-opacity:0.4;}
	.st7{fill:#E4ECF4;}
	.st8{fill:#FFE8A0;}
	.st9{fill:none;}
	.st10{fill:#0D0D0D;}
	.st11{fill-rule:evenodd;clip-rule:evenodd;fill:#00B0FB;}
	.st12{fill:#FAFBFF;}
	.st13{fill:#070707;}
	.st14{fill:#D9D9D9;filter:url(#Adobe_OpacityMaskFilter);}
	.st15{mask:url(#mask0_103_2708_1_);}
	.st16{fill-rule:evenodd;clip-rule:evenodd;fill:#DAB6E4;}
	.st17{stroke:#FFFFFF;stroke-width:2;}
	.st18{fill:#FFFFFF;stroke:#000000;stroke-width:2;}
	.st19{fill-rule:evenodd;clip-rule:evenodd;}
	.st20{stroke:#FFFFFF;}
	.st21{fill:#FFFFFF;filter:url(#Adobe_OpacityMaskFilter_1_);}
	.st22{mask:url(#path-22-inside-1_103_2708_1_);fill:#FFFFFF;}
	.st23{fill-rule:evenodd;clip-rule:evenodd;fill:#263238;}
	.st24{fill:#EFEFEF;}
	
		.st25{fill:none;stroke:#000000;stroke-width:10.01;stroke-linecap:round;stroke-linejoin:round;stroke-miterlimit:3.08;stroke-dasharray:70.84,70.84;}
	.st26{fill:#010000;}
	.st27{opacity:0.64;}
	.st28{fill:#F9F7F5;}
	.st29{fill:#D9D9D9;filter:url(#Adobe_OpacityMaskFilter_2_);}
	.st30{mask:url(#mask0_103_2310_1_);}
	.st31{fill:#FFFFFF;filter:url(#Adobe_OpacityMaskFilter_3_);}
	.st32{mask:url(#mask1_103_2310_1_);}
	.st33{fill:#E6E6E6;}
	.st34{fill:#FFFFFF;filter:url(#Adobe_OpacityMaskFilter_4_);}
	.st35{mask:url(#mask2_103_2310_1_);}
	.st36{fill:none;stroke:#000000;stroke-width:1.5;stroke-linecap:round;stroke-linejoin:round;stroke-miterlimit:10;}
	.st37{fill:#FFFFFF;filter:url(#Adobe_OpacityMaskFilter_5_);}
	.st38{mask:url(#mask3_103_2310_1_);}
	.st39{fill:#FFFFFF;filter:url(#Adobe_OpacityMaskFilter_6_);}
	.st40{mask:url(#mask4_103_2310_1_);}
	.st41{fill:#FFFFFF;filter:url(#Adobe_OpacityMaskFilter_7_);}
	.st42{mask:url(#mask5_103_2310_1_);}
	.st43{fill:#FFFFFF;filter:url(#Adobe_OpacityMaskFilter_8_);}
	.st44{mask:url(#mask6_103_2310_1_);}
	.st45{fill:#DBDBDB;}
	.st46{fill:#FFFFFF;filter:url(#Adobe_OpacityMaskFilter_9_);}
	.st47{mask:url(#mask7_103_2310_1_);}
	.st48{fill:#FFFFFF;filter:url(#Adobe_OpacityMaskFilter_10_);}
	.st49{mask:url(#mask8_103_2310_1_);}
	.st50{fill:#FFFFFF;filter:url(#Adobe_OpacityMaskFilter_11_);}
	.st51{mask:url(#mask9_103_2310_1_);}
	.st52{fill:#FFFFFF;filter:url(#Adobe_OpacityMaskFilter_12_);}
	.st53{mask:url(#mask10_103_2310_1_);}
	.st54{fill:#FFFFFF;filter:url(#Adobe_OpacityMaskFilter_13_);}
	.st55{mask:url(#mask11_103_2310_1_);}
	.st56{fill:#FFFFFF;filter:url(#Adobe_OpacityMaskFilter_14_);}
	.st57{mask:url(#mask12_103_2310_1_);}
	.st58{fill:#FFFFFF;stroke:#000000;}
	.st59{fill:#FFFFFF;filter:url(#Adobe_OpacityMaskFilter_15_);stroke:#FFFFFF;}
	.st60{mask:url(#mask13_103_2310_1_);}
	.st61{fill:#FFFFFF;filter:url(#Adobe_OpacityMaskFilter_16_);}
	.st62{mask:url(#path-55-inside-1_103_2310_1_);}
	.st63{fill:#FFFFFF;filter:url(#Adobe_OpacityMaskFilter_17_);}
	.st64{mask:url(#path-59-inside-2_103_2310_1_);fill:#FFFFFF;}
	.st65{fill:none;stroke:#FFFFFF;stroke-width:1.5;stroke-linecap:round;stroke-linejoin:round;stroke-miterlimit:10;}
	.st66{fill:#181818;}
	.st67{fill:#BEBEBE;}
	.st68{fill:#FEFEFE;}
	.st69{fill:none;stroke:#000000;stroke-width:2.1125;stroke-miterlimit:6.5;}
	.st70{fill:#3C7CFF;stroke:#001135;stroke-width:0.7602;stroke-miterlimit:10;}
	.st71{fill:#001135;}
	.st72{fill:#3C7CFF;}
	.st73{clip-path:url(#SVGID_1_);}
	.st74{fill:#FFFFFF;stroke:#001135;stroke-width:0.7602;stroke-miterlimit:10;}
	.st75{fill:none;stroke:#001135;stroke-width:0.7602;stroke-miterlimit:10;}
	.st76{fill:#001135;stroke:#001135;stroke-width:0.7602;stroke-miterlimit:10;}
	.st77{fill:#0F0D0E;}
	.st78{fill:#161415;}
	.st79{fill:#FCFCFC;}
	.st80{fill:#FBFBFB;}
	.st81{fill:#FAFAFA;}
	.st82{fill:#C1C1C1;}
	.st83{fill:#0E0E0E;}
	.st84{fill:#EFEEEE;}
	.st85{fill:#A8A8A8;}
	.st86{fill:#9A9A9B;}
	.st87{fill:#404040;}
	.st88{fill:#EDEDED;}
	.st89{fill:#E7E7E7;}
	.st90{fill:#9A9999;}
	.st91{fill:#D2D2D2;}
	.st92{fill:#AEAEAE;}
	.st93{fill:#8D8D8C;}
	.st94{fill:#B9BABC;}
	.st95{fill:#61605F;}
	.st96{fill:#A5A5A5;}
	.st97{fill:#B5B6B6;}
	.st98{fill:#1B1C1C;}
	.st99{fill:#171616;}
	.st100{fill:#161616;}
	.st101{fill:#0F0F0F;}
	.st102{fill:#F0F0F0;}
	.st103{fill:#EDEDEC;}
	.st104{fill:#EBEBEB;}
	.st105{fill:#EBEBEA;}
	.st106{fill:#ECECEC;}
	.st107{fill:#E9E9E9;}
	.st108{fill:#EBEAEA;}
	.st109{fill:#B9BAB9;}
	.st110{fill:#EDECEC;}
	.st111{fill:#EAEAEA;}
	.st112{fill:#1F1F1E;}
	.st113{fill:#1E1E1D;}
	.st114{fill:#202020;}
	.st115{fill:#1B1A1A;}
	.st116{fill:#1F1F20;}
	.st117{fill:#252424;}
	.st118{fill:#1F1E1E;}
	.st119{fill:#222121;}
	.st120{fill:#2B2B2B;}
	.st121{fill:#1E1E1E;}
	.st122{fill:#1F1F1F;}
	.st123{fill:#434242;}
	.st124{fill:#2C2C2C;}
	.st125{fill:#484848;}
	.st126{fill:#FDFDFD;}
	.st127{fill:#F4F4F3;}
	.st128{fill:#F2F2F2;}
	.st129{fill:#F3F3F3;}
	.st130{fill:#F1F1F1;}
	.st131{fill:#191918;}
	.st132{fill:#1A1A19;}
	.st133{fill:#1D1C1D;}
	.st134{fill:#1C1A1B;}
	.st135{fill:#1E1D1E;}
	.st136{fill:#212021;}
	.st137{fill:#1D1D1D;}
	.st138{fill:#1D1B1B;}
	.st139{fill:#1F1D1E;}
	.st140{fill:#1E1D1D;}
	.st141{fill:#FCFBFB;}
</style>
<g>
	<path class="st70" d="M74.9,14.7c1.8,0,3.5,0,5.2,0l5.9,0c0,0,0.2,0,0.2,0l5.7,0c1.7,0,3.5,0,5.2,0c0.5,0,1.1-0.1,1.6-0.5
		c0.5-0.5,0.5-1.1,0.5-1.6c0-2.5-0.1-5.1,0-7.9c0-0.5,0-1-0.5-1.4c-0.5-0.5-1.1-0.5-1.3-0.5c-3.2,0-6.4,0-9.5,0l-4.4,0
		c-2.2,0-4.5,0-6.7,0c-2.3,0-3.7,1.4-3.7,3.7c0,0.7,0,1.4,0,2.2l0,0.3c0,1.2,0,2.4,0,3.6c0,0.3,0,1,0.5,1.6
		C73.9,14.7,74.7,14.7,74.9,14.7z M92.3,6.7c1.1,0,2.1,1,2.1,2.1c0,0.5-0.2,1.1-0.6,1.5c-0.4,0.4-0.9,0.6-1.5,0.6c0,0,0,0,0,0
		c-1.1,0-2-0.9-2.1-2C90.3,7.6,91.2,6.7,92.3,6.7z M85.8,6.7c1.1,0,2.1,1,2.1,2c0,0.6-0.2,1.1-0.6,1.5c-0.4,0.4-0.9,0.6-1.5,0.6h0
		c-1.1,0-2-0.9-2-2C83.8,7.7,84.7,6.7,85.8,6.7z M77.9,7.3c0.4-0.4,0.9-0.6,1.4-0.7c1.1,0,2.1,0.8,2.1,1.9c0,0.6-0.2,1.2-0.5,1.6
		c-0.3,0.4-0.8,0.6-1.4,0.6c0,0-0.1,0-0.1,0c-1.1,0-2-0.9-2.1-2C77.3,8.3,77.5,7.8,77.9,7.3z"/>
	<path class="st3" d="M46.9,74.9c-0.6,0-1.2,0.3-1.6,0.7c-0.4,0.4-0.6,1-0.6,1.6c0.1,1.2,0.9,2,2.1,2c1.3,0,2.1-0.9,2.2-2.1
		c0-0.6-0.2-1.1-0.6-1.5C48.1,75.1,47.5,74.9,46.9,74.9z"/>
	<path class="st3" d="M46.9,97l-0.2,0c-1.2,0.1-2,1-2,2.2c0,1.2,0.8,2.1,2.1,2.1c0.6,0,1.2-0.2,1.6-0.6c0.4-0.4,0.6-1,0.6-1.6
		C49,97.9,48.1,97,46.9,97z"/>
	<path class="st71" d="M102.5,57H88.3c-0.6,0-1,0.4-1,1v10.7c0,0.6,0.4,1,1,1h14.2c0.6,0,1-0.4,1-1V58C103.5,57.4,103,57,102.5,57z"
		/>
	<path class="st70" d="M3.8,67.3c-0.6,0-1,0.4-1,1v17.5c0,0.6,0.4,1,1,1h53c0.6,0,1-0.4,1-1V68.3c0-0.6-0.4-1-1-1H3.8z M46.9,82
		L46.9,82c-2.9,0-5-2.2-5-5c0-2.8,2.2-4.9,5-4.9c2.8,0,4.9,2.2,4.9,5C51.8,79.9,49.7,82,46.9,82z"/>
	<path class="st3" d="M57.9,105.3l0-1.3c0-3.8,0-8.2,0-12.4c0-0.4,0-1.1-0.5-1.5c-0.4-0.4-1-0.5-1.4-0.5l-0.1,0c-0.9,0-1.7,0-2.6,0
		l-2.9,0l-46.5,0c-0.6,0-1,0.4-1,1v17.6c0,0.6,0.4,1,1,1l25.9,0c7,0,14,0,20.9,0c2.1,0,3.8,0,5.4,0.1l0.2,0c0.7,0,1.2-0.2,1.5-0.6
		c0.5-0.6,0.4-1.4,0.4-1.6C58,106.5,57.9,105.9,57.9,105.3z M46.9,104.1C46.9,104.1,46.9,104.1,46.9,104.1c-2.8,0-5-2.2-5-4.9
		c0-1.3,0.5-2.5,1.4-3.5c0.9-0.9,2.2-1.5,3.5-1.5c2.8,0,5,2.1,5,4.9C51.9,101.9,49.7,104.1,46.9,104.1z"/>
	<path class="st71" d="M154.4,27.8H88.3c-0.6,0-1,0.4-1,1v16c0,0.6,0.4,1,1,1h66.1c0.6,0,1-0.4,1-1v-16
		C155.4,28.2,155,27.8,154.4,27.8z"/>
	<path class="st3" d="M169.9,19.5c0-0.3,0-0.5,0-0.8l0-0.3c0-0.5-0.5-0.9-1-0.9h-95c-0.6,0-1,0.4-1,1v33.2c0,8.3,0,16.6,0,24.9
		c0,0.9,0.1,1.6,0.4,2.2c0.8,1.8,2.5,2.1,3.9,2.1c8.8,0,17.6,0,26.4,0l62.1,0c1.5,0,2.5-0.4,3.3-1.1c0.7-0.7,1.1-1.8,1.1-3.3
		c0-5.5,0-10.9,0-16.4L169.9,19.5z M105.8,72c-0.3,0.3-0.7,0.4-1.2,0.4l-9.2,0l-9.2,0c-1,0-1.6-0.5-1.6-1.5c0-5,0-10.1,0-15.1
		c0-1.1,0.5-1.5,1.6-1.5c1.3,0,6.6,0,6.6,0l11.9,0c1.2,0,1.5,0.3,1.5,1.5c0.1,5,0.1,10.1,0.1,15.1C106.2,71.3,106.1,71.7,105.8,72z
		 M158,71.5c-0.2,0.6-0.7,0.9-1.2,0.9c-1,0-2.1,0-3.1,0l-18,0l-21,0c-0.8,0-1.4-0.4-1.5-1c-0.1-0.4,0-0.8,0.2-1.2
		c0.2-0.3,0.6-0.5,1.1-0.5c0.3,0,0.5,0,0.8,0h17.6c7.8,0,15.5,0,23.3,0c0.6,0,1.1,0.1,1.5,0.4C158.1,70.3,158.2,71,158,71.5z
		 M114.1,62c0.1,0,0.3-0.1,0.4-0.1c0.8,0,20,0,20,0l21.6,0c1.9,0,2,1,2,1.4c0,0.7-0.5,1.3-1.2,1.3c-0.3,0-0.6,0-0.9,0l-0.8,0h-29.8
		c-3.6,0-7.3,0-10.9,0c-0.8,0-1.3-0.4-1.4-1C113.1,63,113.6,62.1,114.1,62z M157.8,56.4c-0.2,0.3-0.5,0.5-1.3,0.5c0,0-31.5,0-34.6,0
		c-2.5,0-4.9,0-7.4-0.1c-0.9,0-1.1-0.3-1.2-0.6c-0.2-0.5-0.1-1,0.3-1.6c0.2-0.3,0.4-0.4,1.2-0.4l30.9,0c3.6,0,7.2,0,10.8,0
		c0.9,0,1.2,0.3,1.4,0.7C158.2,55.4,158.2,55.9,157.8,56.4z M157.8,48.2c-0.3,0.3-0.8,0.4-1.6,0.4l-66.8,0l-3,0
		c-1.4,0-1.9-0.4-1.9-1.8c0-6.7,0-13.3,0-20c0-1.3,0.4-1.7,1.8-1.7l69.9,0c1.6,0,1.9,0.3,1.9,1.9l0,19.8
		C158.2,47.5,158,48,157.8,48.2z"/>
	<path class="st3" d="M103,14.6h65.8c0.6,0,1-0.4,1-1v-1c0-0.5,0-1,0-1.6l0-0.1c0-1.2,0-2.5,0.1-3.6c0.1-1.4-0.1-2.5-0.8-3.3
		c-0.6-0.7-1.5-1.2-2.6-1.3c-0.5,0-1-0.1-1.5-0.1c-0.4,0-0.8,0-1.1,0c-0.4,0-0.7,0-1.1,0l-59.6,0c-0.6,0-1,0.4-1,1v9.8
		C102,14.2,102.5,14.6,103,14.6z"/>
	<path class="st3" d="M46.8,57c0.7,0,1.3-0.2,1.7-0.7c0.4-0.4,0.6-1,0.5-1.5c-0.1-1.2-0.9-2-2.1-2l-0.1,0c-0.6,0-1.1,0.2-1.5,0.7
		c-0.4,0.4-0.6,1-0.6,1.6C44.8,56.2,45.6,57,46.8,57z"/>
	<path class="st3" d="M3.8,64.5l35.2,0c5.6,0,11.3,0,16.9,0c0.5,0,1.1-0.1,1.5-0.5c0.4-0.5,0.5-1.1,0.5-1.5c0-1.3,0-2.6,0-3.9l0-1.5
		l0-2.5c0-2.6,0-5.2,0-7.8c0-0.2,0-0.9-0.5-1.4c-0.4-0.4-1-0.5-1.4-0.5l-2.9,0c-2,0-12.5,0-12.5,0c-8.3,0-16.6,0-24.9,0l-11.9,0
		c-0.6,0-1,0.4-1,1v17.6C2.8,64,3.2,64.5,3.8,64.5z M46.9,49.9c2.8,0,4.9,2.2,4.9,5c0,1.3-0.5,2.6-1.4,3.5c-0.9,0.9-2.2,1.4-3.5,1.4
		h0c-2.7,0-4.9-2.2-4.9-5C41.9,52.1,44.2,49.9,46.9,49.9z M24.3,51.6c0-1,0.6-1.7,1.4-1.7c0.8,0,1.4,0.7,1.4,1.7c0,0.9,0,1.7,0,2.6
		l0,4.8c0,1-0.5,1.7-1.4,1.7h0c-0.8,0-1.4-0.7-1.4-1.7C24.3,56.6,24.3,54.1,24.3,51.6z M17.4,49.9c0.8,0,1.4,0.7,1.4,1.6
		c0,0.9,0,1.8,0,2.7l0,2.4c0,0.9,0,1.8,0,2.6c0,1-0.6,1.6-1.4,1.6l0,0c-0.8,0-1.4-0.7-1.4-1.6c0-2.6,0-5.1,0-7.7
		C16,50.6,16.6,49.9,17.4,49.9z M7.8,51.6c0-1,0.6-1.7,1.4-1.7c0.8,0,1.4,0.7,1.4,1.7c0,0.4,0,0.9,0,1.3l0,3.6c0,0.9,0,1.8,0,2.7
		c0,0.8-0.4,1.3-1,1.5c-0.1,0-0.3,0.1-0.4,0.1c-0.6,0-1-0.4-1.1-0.9c-0.1-0.6-0.2-1.2-0.2-1.7c0-2,0-3.9,0-5.9L7.8,51.6z"/>
	<path class="st71" d="M60.6,66.8l0-0.8c0-3.9,0-7.9,0-11.8c0-1.9,0-3.9,0-5.8l0-0.6c0-1.2,0-2.4,0-3.5c0-0.8-0.1-1.3-0.4-1.6
		c-0.3-0.3-0.8-0.4-1.6-0.4l-56.9,0c-0.7,0-1.2,0.1-1.5,0.4C0.1,42.8,0,43.3,0,44c0,1.5,0,3.1,0,4.6c0,2.3,0.1,4.6,0.1,6.9
		c0,1.5,0,3-0.1,4.5c0,1.4,0,2.7-0.1,4.1c0,3.2,0,6.3,0,9.5c0,2.8,0,5.5,0,8.3c0,5,0,10,0,15l0,13.2c0,0.2,0,0.5,0,0.7
		c0.1,0.5,0.7,1,1.1,1c1.2,0,2.3,0,3.5,0c0,0,20.1,0,24.6,0l30,0c0.8,0,1.5-0.7,1.5-1.5V98.1c0-6.8,0-13.6,0-20.3
		C60.7,74.1,60.6,70.5,60.6,66.8z M2.8,45.9c0-0.6,0.4-1,1-1l11.9,0c8.3,0,16.6,0,24.9,0c0,0,10.5,0,12.5,0l2.9,0
		c0.5,0,1,0.1,1.4,0.5c0.5,0.5,0.5,1.2,0.5,1.4c0,2.6,0,5.2,0,7.8l0,2.5l0,1.5c0,1.3,0,2.6,0,3.9c0,0.4,0,1-0.5,1.5
		c-0.4,0.5-1.1,0.5-1.5,0.5c-5.6,0-11.3,0-16.9,0l-35.2,0c-0.6,0-1-0.4-1-1V45.9z M57.8,68.3v17.5c0,0.6-0.4,1-1,1h-53
		c-0.6,0-1-0.4-1-1V68.3c0-0.6,0.4-1,1-1h53C57.4,67.3,57.8,67.7,57.8,68.3z M57.6,108.7c-0.3,0.4-0.8,0.6-1.5,0.6l-0.2,0
		c-1.6-0.1-3.3-0.1-5.4-0.1c-7,0-14,0-20.9,0l-25.9,0c-0.6,0-1-0.4-1-1V90.6c0-0.6,0.4-1,1-1l46.5,0l2.9,0c0.9,0,1.7,0,2.6,0l0.1,0
		c0.4,0,1,0.1,1.4,0.5c0.5,0.5,0.5,1.1,0.5,1.5c0,4.2,0,8.6,0,12.4l0,1.3c0,0.6,0.1,1.1,0.1,1.7C58.1,107.3,58.2,108.1,57.6,108.7z"
		/>
	<path class="st71" d="M53.8,6.5c-0.2-0.2-0.6-0.3-1-0.3c-0.3,0-0.5,0.1-0.6,0.2c-0.3,0.2-0.5,0.5-0.6,0.9c0,0.5,0.1,0.9,0.5,1.3
		c1,0.9,1.9,1.8,2.8,2.8l1.2,1.2c0.3,0.3,0.4,0.8,0.2,1.2l-0.1,0.2c-0.2,0.3-0.5,0.5-0.9,0.5l-22.1-0.1c-1.2,0-1.6,0.4-1.7,1.6
		c0,0.3,0,0.6,0,0.9c0,5.4,0,10.8,0,16.2c0,0.2,0,0.5,0,0.7c0.1,0.7,0.6,1.1,1.3,1.1l0.1,0c0.7,0,1.1-0.5,1.2-1.2c0-0.3,0-0.6,0-0.9
		V18.2c0-0.6,0.4-1,1-1h20.5c0.4,0,0.7,0.2,0.9,0.5l0.1,0.2c0.2,0.4,0.1,0.9-0.2,1.2l-1.4,1.3c-1,1-2,2-3,2.9
		c-0.6,0.6-0.7,1.4-0.2,2c0.3,0.3,0.6,0.5,1,0.5c0.4,0,0.7-0.2,1-0.5c2.7-2.7,5.5-5.5,8.4-8.4c0.4-0.4,0.8-1.1,0-1.9
		C59.6,12.1,56.6,9.2,53.8,6.5z"/>
	<path class="st71" d="M98.9,88.2c-0.1,0-0.3,0-0.4,0c-0.8,0-1.3,0.6-1.3,1.6c0,2.9,0,5.8,0,8.7l0,6.5c0,0.6-0.4,1-1,1H75.5
		c-0.4,0-0.8-0.2-0.9-0.6c-0.2-0.4-0.1-0.8,0.2-1.1l1.4-1.4c1-1,2-2,3-3c0.3-0.3,0.5-0.8,0.5-1.2c0-0.4-0.1-0.7-0.4-1
		c-0.2-0.2-0.5-0.3-0.9-0.3c-0.4,0-0.8,0.2-1.2,0.5c-0.2,0.2-0.4,0.4-0.7,0.7l-2.5,2.4c-1.7,1.7-3.4,3.3-5,5c-0.8,0.8-0.8,1.4,0,2.2
		c2.8,2.8,5.6,5.7,8.4,8.5c0.2,0.2,0.6,0.4,1,0.4c0.3,0,0.6-0.1,0.8-0.2c0.5-0.3,0.7-1.1,0.5-1.6c-0.1-0.3-0.4-0.6-0.7-0.9
		c-0.9-0.9-1.8-1.8-2.7-2.6l-1.1-1c-0.3-0.3-0.4-0.8-0.2-1.2l0.2-0.3c0.2-0.3,0.5-0.5,0.9-0.5l22,0.1c1.4,0,1.8-0.4,1.8-1.8
		c0-2.4,0-4.8,0-7.2l0-5.3c0-1.5,0-3,0-4.5C99.9,88.4,99.3,88.3,98.9,88.2z"/>
	<path class="st71" d="M157.7,70.1c-0.4-0.2-0.9-0.4-1.5-0.4c-7.8,0-15.5,0-23.3,0h-17.6c-0.3,0-0.5,0-0.8,0c-0.4,0-0.8,0.2-1.1,0.5
		c-0.2,0.3-0.3,0.7-0.2,1.2c0.1,0.6,0.7,1,1.5,1l21,0l18,0c1,0,2.1,0,3.1,0c0.6,0,1.1-0.4,1.2-0.9C158.2,71,158.1,70.3,157.7,70.1z"
		/>
	<path class="st71" d="M114.6,64.6c3.6,0,7.3,0,10.9,0h29.8l0.8,0c0.3,0,0.6,0,0.9,0c0.7-0.1,1.2-0.6,1.2-1.3c0-0.4,0-1.4-2-1.4
		l-21.6,0c0,0-19.2,0-20,0c-0.2,0-0.3,0-0.4,0.1c-0.5,0.2-1.1,1-1,1.6C113.3,64.2,113.8,64.6,114.6,64.6z"/>
	<path class="st71" d="M168.3,0.4C167.2,0,166,0,165.1,0c-0.5,0-0.9,0-1.4,0c-0.5,0-1,0-1.6,0c-8.4,0-16.7,0-25.1,0L104,0
		c0,0-21.6,0-27.4,0c-3.7,0-6.4,2.7-6.5,6.3l0,41.7c0,2.8,0,5.6,0,8.4c0,6.6,0,13.4-0.1,20.1c0,1.9,0.7,3.6,1.9,4.9c1.3,1.3,3,2,5,2
		l0.1,0c5.7-0.1,12-0.1,19.6-0.1c3.8,0,7.7,0,11.5,0l0.8,0c4.1,0,8.2,0,12.3,0l44.5,0c4.3,0,6.8-2.5,6.8-6.8c0-6,0-37.7,0-37.7
		c0-7,0-14,0-21c0,0,0-7.6,0-10.4c0-1.8-0.2-3.1-0.8-4.2C171.1,1.8,170,0.9,168.3,0.4z M102,3.8c0-0.6,0.4-1,1-1l59.6,0
		c0.4,0,0.7,0,1.1,0c0.4,0,0.8,0,1.1,0c0.5,0,1,0,1.5,0.1c1.1,0.1,2,0.5,2.6,1.3c0.7,0.8,0.9,1.9,0.8,3.3c-0.1,1.2-0.1,2.4-0.1,3.6
		l0,0.1c0,0.5,0,1,0,1.6v1c0,0.6-0.4,1-1,1H103c-0.6,0-1-0.4-1-1V3.8z M72.9,8.9l0-0.3c0-0.7,0-1.4,0-2.2c0-2.3,1.5-3.7,3.7-3.7
		c2.2,0,4.5,0,6.7,0l4.4,0c3.2,0,6.3,0,9.5,0c0.2,0,0.9,0,1.3,0.5c0.4,0.4,0.5,1,0.5,1.4c0,2.8,0,5.4,0,7.9c0,0.4,0,1.1-0.5,1.6
		c-0.5,0.5-1.1,0.5-1.6,0.5c-1.7,0-3.5,0-5.2,0l-5.7,0c0,0-0.2,0-0.2,0l-5.9,0c-1.7,0-3.4,0-5.2,0c-0.2,0-1,0-1.5-0.5
		c-0.5-0.5-0.5-1.3-0.5-1.6C72.9,11.4,72.9,10.2,72.9,8.9z M168.9,79.7c-0.7,0.7-1.8,1.1-3.3,1.1l-62.1,0c-8.8,0-17.6,0-26.4,0
		c-1.4,0-3.1-0.2-3.9-2.1c-0.3-0.6-0.4-1.4-0.4-2.2c0-8.3,0-16.6,0-24.9V18.5c0-0.6,0.4-1,1-1h95c0.5,0,1,0.4,1,0.9l0,0.3
		c0,0.3,0,0.5,0,0.8l0,40.6c0,5.5,0,10.9,0,16.4C169.9,77.9,169.6,79,168.9,79.7z"/>
	<path class="st71" d="M156.2,25.1l-69.9,0c-1.3,0-1.8,0.4-1.8,1.7c0,6.7,0,13.3,0,20c0,1.4,0.4,1.8,1.9,1.8l3,0l66.8,0
		c0.8,0,1.3-0.1,1.6-0.4c0.3-0.2,0.4-0.7,0.4-1.4l0-19.8C158.1,25.4,157.8,25.1,156.2,25.1z M155.4,44.8c0,0.6-0.4,1-1,1H88.3
		c-0.6,0-1-0.4-1-1v-16c0-0.6,0.4-1,1-1h66.1c0.6,0,1,0.4,1,1V44.8z"/>
	<path class="st71" d="M104.6,54.2l-11.9,0c0,0-5.3,0-6.6,0c-1.1,0-1.6,0.5-1.6,1.5c0,5,0,10.1,0,15.1c0,1,0.6,1.5,1.6,1.5l9.2,0
		l9.2,0c0.6,0,1-0.1,1.2-0.4c0.3-0.3,0.4-0.7,0.4-1.2c0-5-0.1-10.1-0.1-15.1C106.1,54.5,105.8,54.2,104.6,54.2z M103.5,68.6
		c0,0.6-0.4,1-1,1H88.3c-0.6,0-1-0.4-1-1V58c0-0.6,0.4-1,1-1h14.2c0.6,0,1,0.4,1,1V68.6z"/>
	<path class="st71" d="M156.5,54.2c-3.6,0-7.2,0-10.8,0l-30.9,0c-0.8,0-1,0.1-1.2,0.4c-0.4,0.6-0.5,1.1-0.3,1.6
		c0.1,0.3,0.3,0.6,1.2,0.6c2.5,0,4.9,0.1,7.4,0.1c3.2,0,34.6,0,34.6,0c0.8,0,1.1-0.2,1.3-0.5c0.3-0.5,0.4-1,0.1-1.5
		C157.8,54.5,157.5,54.2,156.5,54.2z"/>
	<path class="st3" d="M92.3,10.8C92.3,10.8,92.4,10.8,92.3,10.8c0.6,0,1.1-0.2,1.5-0.6c0.4-0.4,0.6-0.9,0.6-1.5c0-1.1-1-2.1-2.1-2.1
		c-1.1,0-2,0.9-2,2.1C90.3,9.9,91.2,10.8,92.3,10.8z"/>
	<path class="st3" d="M85.8,10.8L85.8,10.8c0.6,0,1.1-0.2,1.5-0.6c0.4-0.4,0.6-0.9,0.6-1.5c0-1.1-1-2-2.1-2c-1.1,0-2,1-2,2.1
		C83.8,9.9,84.7,10.8,85.8,10.8z"/>
	<path class="st3" d="M79.4,10.8c0,0,0.1,0,0.1,0c0.5,0,1-0.3,1.4-0.6c0.4-0.4,0.6-1,0.5-1.6c-0.1-1.1-1-1.9-2.1-1.9
		c-0.5,0-1,0.3-1.4,0.7c-0.4,0.4-0.6,0.9-0.6,1.4C77.4,10,78.3,10.8,79.4,10.8z"/>
	<path class="st71" d="M46.8,94.2c-1.3,0-2.5,0.5-3.5,1.5c-0.9,0.9-1.4,2.2-1.4,3.5c0,2.8,2.2,4.9,4.9,4.9c0,0,0.1,0,0.1,0
		c2.8,0,4.9-2.2,4.9-5C51.8,96.3,49.7,94.2,46.8,94.2z M48.4,100.7c-0.4,0.4-1,0.6-1.6,0.6c-1.2,0-2.1-0.9-2.1-2.1
		c0-1.2,0.8-2.1,2-2.2l0.2,0c1.2,0,2.1,0.9,2.1,2.1C49.1,99.7,48.8,100.3,48.4,100.7z"/>
	<path class="st71" d="M47,72.1c-2.9,0-5,2.1-5,4.9c0,2.8,2.1,4.9,5,5h0c2.8,0,4.9-2.1,4.9-4.9C51.9,74.3,49.8,72.1,47,72.1z
		 M46.9,79.2c-1.2,0-2-0.8-2.1-2c0-0.6,0.2-1.1,0.6-1.6c0.4-0.4,1-0.7,1.6-0.7c0.6,0,1.1,0.2,1.6,0.7c0.4,0.4,0.6,1,0.6,1.5
		C49,78.3,48.1,79.2,46.9,79.2z"/>
	<path class="st71" d="M46.8,59.8L46.8,59.8c1.4,0,2.6-0.5,3.6-1.4c0.9-0.9,1.4-2.2,1.4-3.5c0-2.8-2.2-5-4.9-5c-2.7,0-5,2.2-5,5
		C41.9,57.6,44.1,59.8,46.8,59.8z M45.3,53.4c0.4-0.4,1-0.7,1.5-0.7l0.1,0c1.2,0.1,2,0.9,2.1,2c0,0.6-0.2,1.1-0.5,1.5
		c-0.4,0.5-1,0.7-1.7,0.7c-1.1-0.1-1.9-0.9-2-2C44.7,54.4,44.9,53.9,45.3,53.4z"/>
	<path class="st71" d="M17.4,60.8L17.4,60.8c0.9,0,1.4-0.6,1.4-1.6c0-0.9,0-1.8,0-2.6l0-2.4c0-0.9,0-1.8,0-2.7
		c0-0.9-0.6-1.6-1.4-1.6c-0.8,0-1.4,0.7-1.4,1.6c0,2.6,0,5.1,0,7.7C16,60.1,16.6,60.8,17.4,60.8z"/>
	<path class="st71" d="M25.7,60.8L25.7,60.8c0.9,0,1.4-0.7,1.4-1.7l0-4.8c0-0.9,0-1.7,0-2.6c0-1-0.6-1.7-1.4-1.7
		c-0.8,0-1.4,0.7-1.4,1.7c0,2.5,0,5,0,7.5C24.3,60.1,24.8,60.8,25.7,60.8z"/>
	<path class="st71" d="M8,59.9c0.1,0.6,0.6,0.9,1.1,0.9c0.1,0,0.3,0,0.4-0.1c0.6-0.2,1-0.7,1-1.5c0-0.9,0-1.8,0-2.7l0-3.6
		c0-0.4,0-0.9,0-1.3c0-1-0.6-1.7-1.4-1.7c-0.8,0-1.4,0.7-1.4,1.7l0,0.6c0,2,0,3.9,0,5.9C7.8,58.7,7.9,59.3,8,59.9z"/>
</g>
</svg>
