<?xml version="1.0" encoding="utf-8"?>
<!-- Generator: Adobe Illustrator 24.3.0, SVG Export Plug-In . SVG Version: 6.00 Build 0)  -->
<svg version="1.1" id="Layer_1" xmlns="http://www.w3.org/2000/svg" xmlns:xlink="http://www.w3.org/1999/xlink" x="0px" y="0px"
	 width="127px" height="127px" viewBox="0 0 127 127" style="enable-background:new 0 0 127 127;" xml:space="preserve">
<style type="text/css">
	.st0{fill:#00C8FF;}
	.st1{fill-rule:evenodd;clip-rule:evenodd;fill:#00C8FF;}
	.st2{fill:#185AE9;}
	.st3{fill:#FFFFFF;}
	.st4{fill-rule:evenodd;clip-rule:evenodd;fill:#FFFFFF;}
	.st5{fill:#00B0FB;}
	.st6{fill:#00B0FB;fill-opacity:0.4;}
	.st7{fill:#E4ECF4;}
	.st8{fill:#FFE8A0;}
	.st9{fill:none;}
	.st10{fill:#0D0D0D;}
	.st11{fill-rule:evenodd;clip-rule:evenodd;fill:#00B0FB;}
	.st12{fill:#FAFBFF;}
	.st13{fill:#070707;}
	.st14{fill:#D9D9D9;filter:url(#Adobe_OpacityMaskFilter);}
	.st15{mask:url(#mask0_103_2708_1_);}
	.st16{fill-rule:evenodd;clip-rule:evenodd;fill:#DAB6E4;}
	.st17{stroke:#FFFFFF;stroke-width:2;}
	.st18{fill:#FFFFFF;stroke:#000000;stroke-width:2;}
	.st19{fill-rule:evenodd;clip-rule:evenodd;}
	.st20{stroke:#FFFFFF;}
	.st21{fill:#FFFFFF;filter:url(#Adobe_OpacityMaskFilter_1_);}
	.st22{mask:url(#path-22-inside-1_103_2708_1_);fill:#FFFFFF;}
	.st23{fill-rule:evenodd;clip-rule:evenodd;fill:#263238;}
	.st24{fill:#EFEFEF;}
	
		.st25{fill:none;stroke:#000000;stroke-width:10.01;stroke-linecap:round;stroke-linejoin:round;stroke-miterlimit:3.08;stroke-dasharray:70.84,70.84;}
	.st26{fill:#010000;}
	.st27{opacity:0.64;}
	.st28{fill:#F9F7F5;}
	.st29{fill:#D9D9D9;filter:url(#Adobe_OpacityMaskFilter_2_);}
	.st30{mask:url(#mask0_103_2310_1_);}
	.st31{fill:#FFFFFF;filter:url(#Adobe_OpacityMaskFilter_3_);}
	.st32{mask:url(#mask1_103_2310_1_);}
	.st33{fill:#E6E6E6;}
	.st34{fill:#FFFFFF;filter:url(#Adobe_OpacityMaskFilter_4_);}
	.st35{mask:url(#mask2_103_2310_1_);}
	.st36{fill:none;stroke:#000000;stroke-width:1.5;stroke-linecap:round;stroke-linejoin:round;stroke-miterlimit:10;}
	.st37{fill:#FFFFFF;filter:url(#Adobe_OpacityMaskFilter_5_);}
	.st38{mask:url(#mask3_103_2310_1_);}
	.st39{fill:#FFFFFF;filter:url(#Adobe_OpacityMaskFilter_6_);}
	.st40{mask:url(#mask4_103_2310_1_);}
	.st41{fill:#FFFFFF;filter:url(#Adobe_OpacityMaskFilter_7_);}
	.st42{mask:url(#mask5_103_2310_1_);}
	.st43{fill:#FFFFFF;filter:url(#Adobe_OpacityMaskFilter_8_);}
	.st44{mask:url(#mask6_103_2310_1_);}
	.st45{fill:#DBDBDB;}
	.st46{fill:#FFFFFF;filter:url(#Adobe_OpacityMaskFilter_9_);}
	.st47{mask:url(#mask7_103_2310_1_);}
	.st48{fill:#FFFFFF;filter:url(#Adobe_OpacityMaskFilter_10_);}
	.st49{mask:url(#mask8_103_2310_1_);}
	.st50{fill:#FFFFFF;filter:url(#Adobe_OpacityMaskFilter_11_);}
	.st51{mask:url(#mask9_103_2310_1_);}
	.st52{fill:#FFFFFF;filter:url(#Adobe_OpacityMaskFilter_12_);}
	.st53{mask:url(#mask10_103_2310_1_);}
	.st54{fill:#FFFFFF;filter:url(#Adobe_OpacityMaskFilter_13_);}
	.st55{mask:url(#mask11_103_2310_1_);}
	.st56{fill:#FFFFFF;filter:url(#Adobe_OpacityMaskFilter_14_);}
	.st57{mask:url(#mask12_103_2310_1_);}
	.st58{fill:#FFFFFF;stroke:#000000;}
	.st59{fill:#FFFFFF;filter:url(#Adobe_OpacityMaskFilter_15_);stroke:#FFFFFF;}
	.st60{mask:url(#mask13_103_2310_1_);}
	.st61{fill:#FFFFFF;filter:url(#Adobe_OpacityMaskFilter_16_);}
	.st62{mask:url(#path-55-inside-1_103_2310_1_);}
	.st63{fill:#FFFFFF;filter:url(#Adobe_OpacityMaskFilter_17_);}
	.st64{mask:url(#path-59-inside-2_103_2310_1_);fill:#FFFFFF;}
	.st65{fill:none;stroke:#FFFFFF;stroke-width:1.5;stroke-linecap:round;stroke-linejoin:round;stroke-miterlimit:10;}
	.st66{fill:#181818;}
	.st67{fill:#BEBEBE;}
	.st68{fill:#FEFEFE;}
	.st69{fill:none;stroke:#000000;stroke-width:2.1125;stroke-miterlimit:6.5;}
	.st70{fill:#3C7CFF;stroke:#001135;stroke-width:0.7602;stroke-miterlimit:10;}
	.st71{fill:#001135;}
	.st72{fill:#3C7CFF;}
	.st73{clip-path:url(#SVGID_1_);}
	.st74{fill:#FFFFFF;stroke:#001135;stroke-width:0.7602;stroke-miterlimit:10;}
	.st75{fill:none;stroke:#001135;stroke-width:0.7602;stroke-miterlimit:10;}
	.st76{fill:#001135;stroke:#001135;stroke-width:0.7602;stroke-miterlimit:10;}
	.st77{fill:#0F0D0E;}
	.st78{fill:#161415;}
	.st79{fill:#FCFCFC;}
	.st80{fill:#FBFBFB;}
	.st81{fill:#FAFAFA;}
	.st82{fill:#C1C1C1;}
	.st83{fill:#0E0E0E;}
	.st84{fill:#EFEEEE;}
	.st85{fill:#A8A8A8;}
	.st86{fill:#9A9A9B;}
	.st87{fill:#404040;}
	.st88{fill:#EDEDED;}
	.st89{fill:#E7E7E7;}
	.st90{fill:#9A9999;}
	.st91{fill:#D2D2D2;}
	.st92{fill:#AEAEAE;}
	.st93{fill:#8D8D8C;}
	.st94{fill:#B9BABC;}
	.st95{fill:#61605F;}
	.st96{fill:#A5A5A5;}
	.st97{fill:#B5B6B6;}
	.st98{fill:#1B1C1C;}
	.st99{fill:#171616;}
	.st100{fill:#161616;}
	.st101{fill:#0F0F0F;}
	.st102{fill:#F0F0F0;}
	.st103{fill:#EDEDEC;}
	.st104{fill:#EBEBEB;}
	.st105{fill:#EBEBEA;}
	.st106{fill:#ECECEC;}
	.st107{fill:#E9E9E9;}
	.st108{fill:#EBEAEA;}
	.st109{fill:#B9BAB9;}
	.st110{fill:#EDECEC;}
	.st111{fill:#EAEAEA;}
	.st112{fill:#1F1F1E;}
	.st113{fill:#1E1E1D;}
	.st114{fill:#202020;}
	.st115{fill:#1B1A1A;}
	.st116{fill:#1F1F20;}
	.st117{fill:#252424;}
	.st118{fill:#1F1E1E;}
	.st119{fill:#222121;}
	.st120{fill:#2B2B2B;}
	.st121{fill:#1E1E1E;}
	.st122{fill:#1F1F1F;}
	.st123{fill:#434242;}
	.st124{fill:#2C2C2C;}
	.st125{fill:#484848;}
	.st126{fill:#FDFDFD;}
	.st127{fill:#F4F4F3;}
	.st128{fill:#F2F2F2;}
	.st129{fill:#F3F3F3;}
	.st130{fill:#F1F1F1;}
	.st131{fill:#191918;}
	.st132{fill:#1A1A19;}
	.st133{fill:#1D1C1D;}
	.st134{fill:#1C1A1B;}
	.st135{fill:#1E1D1E;}
	.st136{fill:#212021;}
	.st137{fill:#1D1D1D;}
	.st138{fill:#1D1B1B;}
	.st139{fill:#1F1D1E;}
	.st140{fill:#1E1D1D;}
	.st141{fill:#FCFBFB;}
</style>
<g>
	<path class="st71" d="M12.9,44.2h16.4c0.2,0,0.4-0.1,0.5-0.3c2.7-8,6.6-14.6,11.3-19c0.2-0.2,0.2-0.4,0.1-0.6
		C41,24.1,40.9,24,40.7,24c0,0-0.1,0-0.1,0c-11.2,3-21.2,9.9-28.1,19.4c-0.1,0.2-0.1,0.4,0,0.5C12.5,44.1,12.7,44.2,12.9,44.2z"/>
	<path class="st3" d="M74.7,102.2c-0.1-0.1-0.2-0.2-0.4-0.2H55.9c-0.3,0-0.5,0.2-0.5,0.5v20.8c0,0.1,0.1,0.3,0.2,0.4
		c0.1,0.1,0.2,0.1,0.3,0.1c0,0,0.1,0,0.1,0c7.5-1.2,14.3-8.9,18.8-21.1C74.8,102.5,74.8,102.3,74.7,102.2z"/>
	<path class="st3" d="M104.1,74.6H83.3c-0.3,0-0.5,0.2-0.5,0.5c-0.2,8-1.4,16-3.4,23.3c0,0.2,0,0.3,0.1,0.4c0.1,0.1,0.2,0.2,0.4,0.2
		h17.4c0.2,0,0.3-0.1,0.4-0.2c4.3-7.2,6.7-15.3,6.9-23.6c0-0.1,0-0.3-0.1-0.4C104.4,74.7,104.2,74.6,104.1,74.6z"/>
	<path class="st71" d="M51.9,47.4h-20c-0.2,0-0.4,0.1-0.5,0.4c-2,7.3-3.2,15.5-3.4,23.5c0,0.1,0,0.3,0.1,0.4
		c0.1,0.1,0.2,0.2,0.4,0.2h23.4c0.3,0,0.5-0.2,0.5-0.5V47.9C52.4,47.6,52.2,47.4,51.9,47.4z"/>
	<path class="st71" d="M94.7,102H78.5c-0.2,0-0.4,0.1-0.5,0.3c-2.7,8.2-6.6,14.8-11.3,19c-0.2,0.2-0.2,0.4-0.1,0.6
		c0.1,0.2,0.3,0.3,0.4,0.3c0,0,0.1,0,0.1,0c11.4-3.1,21.1-9.8,27.9-19.4c0.1-0.2,0.1-0.4,0-0.5S94.9,102,94.7,102z"/>
	<path class="st3" d="M55.9,71.8h23.4c0.1,0,0.3-0.1,0.4-0.2s0.1-0.2,0.1-0.4c-0.2-2.8-0.4-5.6-0.6-8.2c0-0.3-0.2-0.5-0.5-0.5h-9.8
		c-4,0-7.3-3.3-7.3-7.3v-8.4c0-2.1,0.9-4.1,2.4-5.4c0.1-0.1,0.2-0.2,0.2-0.4s-0.1-0.3-0.2-0.4c-1.5-1.4-2.4-3.3-2.4-5.2v-8.4
		c0-1.1,0.4-2.4,0.9-3.3c0.1-0.1,0.1-0.3,0-0.5c-0.1-0.1-0.2-0.3-0.4-0.3c-2-0.4-4.2-0.6-6.3-0.6c-0.3,0-0.5,0.2-0.5,0.5v48.4
		C55.4,71.6,55.6,71.8,55.9,71.8z"/>
	<path class="st3" d="M51.9,22.4C51.9,22.4,51.8,22.4,51.9,22.4c-7.7,1.2-14.6,8.9-19.1,21.1c-0.1,0.2,0,0.3,0.1,0.5
		c0.1,0.1,0.2,0.2,0.4,0.2h18.6c0.3,0,0.5-0.2,0.5-0.5V22.9c0-0.1-0.1-0.3-0.2-0.4C52.1,22.4,52,22.4,51.9,22.4z"/>
	<path class="st71" d="M55.9,99h19.8c0.2,0,0.4-0.1,0.5-0.4c2-7.1,3.2-15.3,3.4-23.5c0-0.1,0-0.3-0.1-0.4c-0.1-0.1-0.2-0.2-0.4-0.2
		H55.9c-0.3,0-0.5,0.2-0.5,0.5v23.4C55.4,98.8,55.6,99,55.9,99z"/>
	<path class="st3" d="M103.3,62.4H82.7c-0.1,0-0.3,0.1-0.4,0.2s-0.1,0.2-0.1,0.4l0,0.5c0.2,2.6,0.4,5,0.4,7.6c0,0.3,0.2,0.5,0.5,0.5
		h21c0.3,0,0.5-0.2,0.5-0.5c0-2.6-0.4-5.5-0.8-8.3C103.8,62.6,103.5,62.4,103.3,62.4z"/>
	<path class="st70" d="M119.9,3h-51c-2.4,0-4.3,1.9-4.3,4.3v8.2c0,2.4,1.9,4.3,4.3,4.3h51c2.4,0,4.3-1.9,4.3-4.3V7.3
		C124.2,4.9,122.3,3,119.9,3z M76.2,12.1C76,12.7,75.5,13,74.9,13c-0.9,0-1.5-0.8-1.5-1.5c0-1,0.7-1.5,1.4-1.5
		c0.4,0,0.8,0.2,1.1,0.5C76.4,10.9,76.5,11.5,76.2,12.1z M85.3,12.3c-0.3,0.3-0.7,0.5-1.1,0.5c-0.6,0-1-0.3-1.3-0.9
		c-0.3-0.6-0.1-1.1,0.1-1.3c0.3-0.4,0.8-0.7,1.3-0.7c0.4,0,0.7,0.1,1.1,0.4C86,10.9,86,11.7,85.3,12.3z M114.9,13H98.7
		c-0.9,0-1.5-0.6-1.5-1.5s0.6-1.5,1.5-1.5h16.2c0.9,0,1.5,0.6,1.5,1.5S115.8,13,114.9,13z"/>
	<path class="st70" d="M119.9,42.6h-51c-2.4,0-4.3,1.9-4.3,4.3v8.4c0,2.4,1.9,4.3,4.3,4.3h50.8c2.4,0,4.3-1.9,4.3-4.3v-8.4
		C124,44.6,122.1,42.6,119.9,42.6z M75.9,52.1c-0.3,0.3-0.7,0.5-1.1,0.5c-0.4,0-0.7-0.1-0.9-0.4c-0.3-0.3-0.5-0.7-0.5-1.1
		s0.2-0.8,0.5-1c0.2-0.3,0.6-0.5,1-0.5c0.4,0,0.8,0.2,1.1,0.5c0.3,0.3,0.5,0.7,0.5,1S76.2,51.9,75.9,52.1z M85.3,52.2
		c-0.3,0.3-0.7,0.4-1.1,0.4c-0.3,0-0.7-0.1-1-0.4c-0.3-0.3-0.5-0.7-0.5-1s0.2-0.8,0.5-1c0.3-0.3,0.7-0.5,1-0.5c0.4,0,0.8,0.2,1,0.5
		c0.3,0.3,0.5,0.6,0.5,1C85.8,51.6,85.5,52,85.3,52.2z M114.3,52.6H98.1c-0.7,0-1.5-0.8-1.5-1.5c0-0.9,0.6-1.5,1.5-1.5h16.2
		c0.9,0,1.5,0.6,1.5,1.5S115.2,52.6,114.3,52.6z"/>
	<path class="st3" d="M119.9,22.8h-51c-2.4,0-4.3,1.9-4.3,4.3v8.4c0,2.4,1.9,4.3,4.3,4.3h50.8c2.4,0,4.3-1.9,4.3-4.3v-8.4
		C124,24.6,122.2,22.8,119.9,22.8z M75.9,32.3c-0.3,0.2-0.7,0.4-1.2,0.4c-0.4,0-0.7-0.1-0.9-0.4c-0.4-0.4-0.5-0.9-0.4-1.4
		c0.1-0.5,0.4-0.8,0.8-0.9c0.3-0.1,0.5-0.2,0.7-0.2c0.4,0,0.7,0.2,1,0.5c0.3,0.3,0.5,0.7,0.5,1C76.4,31.7,76.2,32.1,75.9,32.3z
		 M85.3,32.3c-0.3,0.3-0.7,0.5-1,0.5c-0.4,0-0.8-0.2-1-0.5c-0.6-0.6-0.6-1.5,0-2.1c0.3-0.3,0.7-0.5,1-0.5c0.4,0,0.8,0.2,1,0.5
		C86,30.9,86,31.7,85.3,32.3z M114.9,32.8H98.7c-0.7,0-1.5-0.8-1.5-1.5c0-0.9,0.6-1.5,1.5-1.5h16.2c0.9,0,1.5,0.6,1.5,1.5
		S115.8,32.8,114.9,32.8z"/>
	<path class="st3" d="M29.8,102.3c-0.1-0.2-0.3-0.3-0.5-0.3H13.1c-0.2,0-0.4,0.1-0.4,0.3s-0.1,0.4,0,0.5
		c6.8,9.6,16.5,16.3,27.9,19.4c0,0,0.1,0,0.1,0c0.2,0,0.3-0.1,0.4-0.3c0.1-0.2,0.1-0.4-0.1-0.6C36.4,116.9,32.5,110.3,29.8,102.3z"
		/>
	<path class="st3" d="M3.5,71.8h21c0.3,0,0.5-0.2,0.5-0.5c0.2-8,1.4-16,3.4-23.3c0-0.2,0-0.3-0.1-0.4c-0.1-0.1-0.2-0.2-0.4-0.2H10.3
		c-0.2,0-0.3,0.1-0.4,0.3C5.8,54.8,3.4,63,3,71.3c0,0.1,0,0.3,0.1,0.4C3.2,71.7,3.4,71.8,3.5,71.8z"/>
	<path class="st3" d="M51.9,102H33.5c-0.2,0-0.3,0.1-0.4,0.2c-0.1,0.1-0.1,0.3-0.1,0.5c4.5,12.4,11.2,19.9,18.8,21.1
		c0,0,0.1,0,0.1,0c0.1,0,0.2,0,0.3-0.1c0.1-0.1,0.2-0.2,0.2-0.4v-20.8C52.4,102.2,52.2,102,51.9,102z"/>
	<path class="st3" d="M28.3,98.8c0.1-0.1,0.1-0.3,0.1-0.4c-2-7.3-3.2-15.3-3.4-23.3c0-0.3-0.2-0.5-0.5-0.5h-21
		c-0.1,0-0.3,0.1-0.4,0.2C3,74.9,3,75,3,75.1c0.4,8.4,2.8,16.6,7.1,23.6c0.1,0.2,0.3,0.2,0.4,0.2h17.4C28.1,99,28.2,98.9,28.3,98.8z
		"/>
	<path class="st3" d="M31.9,99h19.8c0.3,0,0.5-0.2,0.5-0.5V75.1c0-0.3-0.2-0.5-0.5-0.5H28.5c-0.1,0-0.3,0.1-0.4,0.2
		C28,74.8,28,75,28,75.1c0.2,8.2,1.4,16.4,3.4,23.5C31.5,98.9,31.7,99,31.9,99z"/>
	<path class="st71" d="M119.7,0H68.9c-4,0-7.3,3.3-7.3,7.3v8.2c0,1.2,0.3,2.3,0.9,3.6c0.1,0.2,0.1,0.4,0,0.5
		c-0.1,0.1-0.2,0.2-0.4,0.2c0,0-0.1,0-0.1,0c-2.6-0.4-5.6-0.7-7.7-0.7c-0.6,0-1.2,0-1.6,0.1c-14.3,0.3-27.6,6.1-37.5,16.3
		C5.4,45.7,0,59,0,73.1c0,10,2.7,19.8,7.9,28.1c10,16.1,27.1,25.8,46,25.8c18.8,0,35.9-9.6,45.8-25.6c5.2-8.6,7.9-18.3,7.9-28.1
		c0-3-0.3-6.3-1-10.1c0-0.1,0-0.3,0.1-0.4c0.1-0.1,0.2-0.2,0.4-0.2h12.4c4,0,7.3-3.3,7.3-7.3v-8.4c0-2-0.9-4.1-2.4-5.4
		c-0.1-0.1-0.2-0.2-0.2-0.4s0.1-0.3,0.2-0.4c1.6-1.4,2.4-3.3,2.4-5.4v-8.4c0-2-0.9-4.1-2.4-5.4c-0.1-0.1-0.2-0.3-0.2-0.4
		c0-0.2,0.1-0.3,0.2-0.4c1.7-1.1,2.6-2.9,2.6-5.2V7.3C127,3.2,123.8,0,119.7,0z M12.5,43.4C19.4,33.9,29.3,27,40.6,24
		c0,0,0.1,0,0.1,0c0.2,0,0.3,0.1,0.4,0.3c0.1,0.2,0.1,0.4-0.1,0.6c-4.6,4.4-8.5,11-11.3,19c-0.1,0.2-0.3,0.3-0.5,0.3H12.9
		c-0.2,0-0.4-0.1-0.4-0.3C12.4,43.8,12.4,43.6,12.5,43.4z M9.9,47.7c0.1-0.2,0.3-0.3,0.4-0.3h17.6c0.2,0,0.3,0.1,0.4,0.2
		c0.1,0.1,0.1,0.3,0.1,0.4c-2,7.3-3.2,15.3-3.4,23.3c0,0.3-0.2,0.5-0.5,0.5h-21c-0.1,0-0.3-0.1-0.4-0.2C3,71.5,3,71.4,3,71.3
		C3.4,63,5.8,54.8,9.9,47.7z M10.1,98.8c-4.2-7-6.7-15.2-7.1-23.6c0-0.1,0-0.3,0.1-0.4c0.1-0.1,0.2-0.2,0.4-0.2h21
		c0.3,0,0.5,0.2,0.5,0.5c0.2,8,1.4,16,3.4,23.3c0,0.2,0,0.3-0.1,0.4c-0.1,0.1-0.2,0.2-0.4,0.2H10.5C10.3,99,10.2,98.9,10.1,98.8z
		 M28,75.1c0-0.1,0-0.3,0.1-0.4c0.1-0.1,0.2-0.2,0.4-0.2h23.2c0.3,0,0.5,0.2,0.5,0.5v23.4c0,0.3-0.2,0.5-0.5,0.5H31.9
		c-0.2,0-0.4-0.1-0.5-0.4C29.4,91.5,28.2,83.4,28,75.1z M41.1,121.9c-0.1,0.2-0.3,0.3-0.4,0.3c0,0-0.1,0-0.1,0
		c-11.4-3.1-21.1-9.8-27.9-19.4c-0.1-0.2-0.1-0.4,0-0.5s0.3-0.3,0.4-0.3h16.2c0.2,0,0.4,0.1,0.5,0.3c2.7,8,6.6,14.6,11.3,19
		C41.2,121.5,41.2,121.7,41.1,121.9z M52.4,123.3c0,0.1-0.1,0.3-0.2,0.4c-0.1,0.1-0.2,0.1-0.3,0.1c0,0-0.1,0-0.1,0
		c-7.6-1.2-14.2-8.7-18.8-21.1c-0.1-0.2,0-0.3,0.1-0.5c0.1-0.1,0.2-0.2,0.4-0.2h18.4c0.3,0,0.5,0.2,0.5,0.5V123.3z M52.4,71.3
		c0,0.3-0.2,0.5-0.5,0.5H28.5c-0.1,0-0.3-0.1-0.4-0.2C28,71.6,28,71.4,28,71.3c0.2-8,1.4-16.2,3.4-23.5c0.1-0.2,0.3-0.4,0.5-0.4h20
		c0.3,0,0.5,0.2,0.5,0.5V71.3z M52.4,43.7c0,0.3-0.2,0.5-0.5,0.5H33.3c-0.2,0-0.3-0.1-0.4-0.2c-0.1-0.1-0.1-0.3-0.1-0.5
		c4.5-12.2,11.4-19.9,19-21.1c0,0,0.1,0,0.1,0c0.1,0,0.2,0,0.3,0.1c0.1,0.1,0.2,0.2,0.2,0.4V43.7z M55.4,22.9c0-0.3,0.2-0.5,0.5-0.5
		c2.1,0,4.3,0.2,6.3,0.6c0.2,0,0.3,0.1,0.4,0.3c0.1,0.1,0.1,0.3,0,0.5c-0.6,0.9-0.9,2.3-0.9,3.3v8.4c0,2,0.9,3.9,2.4,5.2
		c0.1,0.1,0.2,0.2,0.2,0.4s-0.1,0.3-0.2,0.4c-1.6,1.4-2.4,3.3-2.4,5.4v8.4c0,4,3.3,7.3,7.3,7.3h9.8c0.3,0,0.5,0.2,0.5,0.5
		c0.2,2.6,0.4,5.4,0.6,8.2c0,0.1,0,0.3-0.1,0.4s-0.2,0.2-0.4,0.2H55.9c-0.3,0-0.5-0.2-0.5-0.5V22.9z M55.4,75.1
		c0-0.3,0.2-0.5,0.5-0.5h23.2c0.1,0,0.3,0.1,0.4,0.2c0.1,0.1,0.1,0.2,0.1,0.4c-0.2,8.2-1.4,16.4-3.4,23.5c-0.1,0.2-0.3,0.4-0.5,0.4
		H55.9c-0.3,0-0.5-0.2-0.5-0.5V75.1z M56,123.8C56,123.8,55.9,123.8,56,123.8c-0.2,0-0.3,0-0.4-0.1c-0.1-0.1-0.2-0.2-0.2-0.4v-20.8
		c0-0.3,0.2-0.5,0.5-0.5h18.4c0.2,0,0.3,0.1,0.4,0.2c0.1,0.1,0.1,0.3,0.1,0.5C70.3,114.8,63.5,122.5,56,123.8z M95.1,102.8
		c-6.8,9.6-16.5,16.3-27.9,19.4c0,0-0.1,0-0.1,0c-0.2,0-0.3-0.1-0.4-0.3c-0.1-0.2-0.1-0.5,0.1-0.6c4.6-4.2,8.5-10.8,11.3-19
		c0.1-0.2,0.3-0.3,0.5-0.3h16.2c0.2,0,0.4,0.1,0.4,0.3S95.2,102.6,95.1,102.8z M97.7,98.8c-0.1,0.2-0.3,0.2-0.4,0.2H79.9
		c-0.2,0-0.3-0.1-0.4-0.2c-0.1-0.1-0.1-0.3-0.1-0.4c2-7.3,3.2-15.3,3.4-23.3c0-0.3,0.2-0.5,0.5-0.5h20.8c0.1,0,0.3,0.1,0.4,0.2
		c0.1,0.1,0.1,0.2,0.1,0.4C104.4,83.4,102,91.6,97.7,98.8z M104.1,71.6h-21c-0.3,0-0.5-0.2-0.5-0.5c0-2.6-0.2-5-0.4-7.6l0-0.5
		c0-0.1,0-0.3,0.1-0.4s0.2-0.2,0.4-0.2h20.6c0.2,0,0.5,0.2,0.5,0.4c0.4,2.8,0.8,5.6,0.8,8.3C104.6,71.4,104.4,71.6,104.1,71.6z
		 M124,55.3c0,2.4-1.9,4.3-4.3,4.3H68.9c-2.4,0-4.3-1.9-4.3-4.3v-8.4c0-2.4,1.9-4.3,4.3-4.3h51c2.2,0,4.1,2,4.1,4.3V55.3z M124,35.5
		c0,2.4-1.9,4.3-4.3,4.3H68.9c-2.4,0-4.3-1.9-4.3-4.3v-8.4c0-2.4,1.9-4.3,4.3-4.3h51c2.3,0,4.1,1.8,4.1,4.3V35.5z M124.2,15.5
		c0,2.4-1.9,4.3-4.3,4.3h-51c-2.4,0-4.3-1.9-4.3-4.3V7.3c0-2.4,1.9-4.3,4.3-4.3h51c2.4,0,4.3,1.9,4.3,4.3V15.5z"/>
	<path class="st3" d="M84.3,49.6c-0.4,0-0.8,0.2-1,0.5c-0.3,0.3-0.5,0.7-0.5,1s0.2,0.8,0.5,1c0.4,0.4,0.8,0.4,1,0.4
		c0.4,0,0.8-0.1,1.1-0.4c0.2-0.2,0.5-0.5,0.5-1.1c0-0.4-0.1-0.7-0.5-1C85.1,49.8,84.7,49.6,84.3,49.6z"/>
	<path class="st3" d="M74.8,49.6c-0.4,0-0.7,0.1-1,0.5c-0.3,0.3-0.5,0.7-0.5,1s0.2,0.8,0.5,1.1c0.2,0.3,0.5,0.4,0.9,0.4
		c0.4,0,0.8-0.2,1.1-0.5c0.3-0.3,0.5-0.7,0.5-1s-0.2-0.8-0.5-1C75.7,49.8,75.2,49.6,74.8,49.6z"/>
	<path class="st3" d="M114.3,49.6H98.1c-0.9,0-1.5,0.6-1.5,1.5c0,0.7,0.8,1.5,1.5,1.5h16.2c0.9,0,1.5-0.6,1.5-1.5
		S115.2,49.6,114.3,49.6z"/>
	<path class="st3" d="M74.8,10c-0.7,0-1.4,0.5-1.4,1.5c0,0.7,0.6,1.5,1.5,1.5c0.6,0,1.1-0.3,1.3-0.9c0.2-0.6,0.1-1.2-0.3-1.6
		C75.6,10.2,75.2,10,74.8,10z"/>
	<path class="st71" d="M114.9,29.8H98.7c-0.9,0-1.5,0.6-1.5,1.5c0,0.7,0.8,1.5,1.5,1.5h16.2c0.9,0,1.5-0.6,1.5-1.5
		S115.8,29.8,114.9,29.8z"/>
	<path class="st3" d="M84.3,9.9c-0.5,0-1,0.3-1.3,0.7c-0.1,0.2-0.4,0.7-0.1,1.3c0.2,0.6,0.7,0.9,1.3,0.9c0.4,0,0.8-0.2,1.1-0.5
		c0.6-0.6,0.6-1.5,0-2.1C85.1,10,84.7,9.9,84.3,9.9z"/>
	<path class="st3" d="M114.9,10H98.7c-0.9,0-1.5,0.6-1.5,1.5s0.6,1.5,1.5,1.5h16.2c0.9,0,1.5-0.6,1.5-1.5S115.8,10,114.9,10z"/>
	<path class="st71" d="M84.3,29.8c-0.4,0-0.8,0.2-1,0.5c-0.6,0.6-0.6,1.5,0,2.1c0.3,0.3,0.7,0.5,1,0.5c0.4,0,0.8-0.2,1-0.5
		c0.6-0.6,0.6-1.5,0-2.1C85.1,30,84.7,29.8,84.3,29.8z"/>
	<path class="st71" d="M74.9,29.8c-0.2,0-0.4,0.1-0.7,0.2c-0.4,0.1-0.7,0.5-0.8,0.9c-0.1,0.5,0,1.1,0.4,1.4c0.3,0.3,0.6,0.4,0.9,0.4
		c0.4,0,0.8-0.2,1.2-0.4c0.3-0.3,0.5-0.7,0.5-1c0-0.4-0.2-0.8-0.5-1C75.6,30,75.3,29.8,74.9,29.8z"/>
</g>
</svg>
