<?xml version="1.0" encoding="utf-8"?>
<!-- Generator: Adobe Illustrator 25.0.0, SVG Export Plug-In . SVG Version: 6.00 Build 0)  -->
<svg version="1.1" id="Layer_1" xmlns="http://www.w3.org/2000/svg" xmlns:xlink="http://www.w3.org/1999/xlink" x="0px" y="0px"
	 viewBox="0 0 564.27 478" style="enable-background:new 0 0 564.27 478;" xml:space="preserve">
<style type="text/css">
	.st0{fill:#185AE9;}
	.st1{fill:#00B0FB;}
	.st2{fill-rule:evenodd;clip-rule:evenodd;fill:#00B0FB;}
	.st3{fill:#00B0FB;fill-opacity:0.4;}
	.st4{fill:#FFFFFF;}
	.st5{fill:none;}
	.st6{fill:#001135;}
	.st7{fill:#3C7CFF;}
	.st8{fill:#3C7CFF;stroke:#001135;stroke-width:0.7602;stroke-miterlimit:10;}
	.st9{fill:#FCFCFC;}
	.st10{fill:#DBDBDB;}
	.st11{fill:#FEFEFE;}
	.st12{fill:#FDFDFD;}
	.st13{fill:#FBFBFB;}
	.st14{fill:#F6F6F6;}
	.st15{fill:#F4F4F4;}
	.st16{fill:#F1F1F1;}
	.st17{fill:#F6F5F6;}
	.st18{fill:#FAFAFA;}
	.st19{fill:#EBEBEB;}
	.st20{fill:#E5E5E5;}
	.st21{fill:#7E7E7E;}
	.st22{fill:#939393;}
	.st23{fill:#787878;}
	.st24{fill:#090909;}
	.st25{fill:#040404;}
</style>
<g>
	<path d="M217.21,460.92c0.17-5.26,1.86-10.17,3.9-14.98c5.48-12.72,13.33-23.95,21.76-34.8c4.88-6.28,9.96-12.38,15.2-18.33
		c1.52-1.73,3.06-3.45,4.61-5.15c2.36-2.61,4.77-5.19,7.2-7.74c1.74-1.83,3.49-3.65,5.26-5.45c6.01-6.14,12.18-12.14,18.46-18.02
		c0.89-0.84,1.79-1.67,2.7-2.51c0.68-0.64,1.37-1.28,2.06-1.91c4.12-3.8,8.29-7.56,12.48-11.27c0.26-0.24,0.52-0.47,0.79-0.7
		c4.23-3.75,8.5-7.46,12.81-11.12c0.59-0.5,1.19-1.01,1.79-1.51c0.57-0.49,1.15-0.98,1.74-1.46c0.17-0.15,0.35-0.29,0.52-0.43
		c10.51-8.84,21.23-17.43,32.15-25.73c1.07-0.81,2.14-1.62,3.22-2.44c0.15-0.11,0.3-0.23,0.45-0.34c3.47-2.62,6.97-5.2,10.48-7.77
		c3.23-2.35,6.47-4.68,9.73-6.97c1.17-0.84,2.35-1.67,3.53-2.49c11.53-8.07,23.28-15.85,35.24-23.33c1.83-1.15,3.67-2.29,5.51-3.42
		c1.12-0.69,2.24-1.38,3.36-2.06c5.73-3.49,11.51-6.91,17.35-10.22c1.54-0.88,3.09-1.75,4.65-2.61c14.94-8.3,30.27-15.85,46.2-22.2
		c13.97-5.54,28.14-10.4,43.57-11.02c2.2,0.23,4.58,0.17,6.9,0.51c8.81,1.41,13.56,6.95,13.44,15.82
		c-0.04,4.81-1.36,9.27-3.11,13.67c-4.57,11.59-11.35,21.88-18.7,31.77c-9.17,12.33-19.13,23.93-29.64,35.03
		c-1.43,1.52-2.88,3.02-4.33,4.52c-1,1.04-2.02,2.07-3.03,3.1c-0.97,1-1.95,1.98-2.93,2.96c-1.76,1.76-3.53,3.5-5.31,5.25
		c-0.03,0.03-0.07,0.07-0.11,0.1c-0.94,0.93-1.9,1.85-2.85,2.76c-0.2,0.2-0.4,0.39-0.6,0.57c0,0.03-0.01,0.03-0.01,0.03
		c-0.12,0.11-0.23,0.22-0.35,0.33c-2.87,2.77-5.78,5.52-8.71,8.24c-1.03,0.96-2.07,1.91-3.1,2.86c-0.71,0.67-1.43,1.33-2.15,1.99
		c-0.7,0.64-1.41,1.28-2.12,1.92c-0.53,0.48-1.06,0.98-1.61,1.46c-0.56,0.51-1.12,1.01-1.68,1.5c-2.26,2.05-4.54,4.07-6.83,6.08
		c-0.28,0.23-0.55,0.48-0.82,0.71c-0.1,0.09-0.19,0.18-0.29,0.26c-0.58,0.5-1.15,1-1.73,1.5c-0.27,0.24-0.54,0.48-0.8,0.69
		c-2.78,2.42-5.57,4.81-8.38,7.17c-1.14,0.97-2.27,1.92-3.41,2.87c-1.06,0.89-2.12,1.76-3.19,2.64c-2.21,1.83-4.45,3.66-6.69,5.47
		c-0.01,0-0.01,0-0.01,0.01c-2.18,1.76-4.36,3.51-6.55,5.24c-0.2,0.16-0.41,0.32-0.61,0.48c-0.93,0.74-1.86,1.48-2.8,2.21
		c-0.92,0.72-1.84,1.43-2.76,2.14c-1.2,0.95-2.41,1.88-3.63,2.81c-3.76,2.89-7.54,5.76-11.35,8.58c-0.81,0.61-1.62,1.22-2.43,1.82
		c-1.77,1.31-3.54,2.61-5.32,3.9c-1.03,0.75-2.06,1.49-3.09,2.23c-2.56,1.87-5.15,3.71-7.74,5.54c-0.05,0.03-0.09,0.07-0.14,0.1
		c-0.15,0.11-0.29,0.2-0.44,0.31c-0.84,0.59-1.66,1.17-2.51,1.75c-0.16,0.11-0.32,0.22-0.48,0.33c-0.09,0.07-0.19,0.14-0.29,0.2
		c-3.62,2.55-7.25,5.05-10.92,7.52c-2.47,1.69-4.95,3.35-7.44,4.99c-1,0.67-2,1.34-3.02,1.98c-0.26,0.17-0.5,0.33-0.76,0.5
		c-0.89,0.59-1.78,1.17-2.68,1.76c-1.06,0.67-2.11,1.36-3.17,2.04c-4.61,2.94-9.26,5.84-13.95,8.67c-1.07,0.66-2.14,1.3-3.21,1.94
		c-0.8,0.48-1.59,0.95-2.38,1.42c-1.06,0.63-2.13,1.26-3.2,1.89c-6.44,3.76-12.94,7.41-19.54,10.93c-3.81,2.03-7.64,4.02-11.5,5.95
		c-0.98,0.51-1.96,0.99-2.94,1.49c-3.01,1.49-6.03,2.95-9.06,4.37v0.01c-1.34,0.62-2.67,1.24-4.01,1.84
		c-2.28,1.04-4.58,2.05-6.89,3.03c-9.41,3.99-19.04,7.48-29.02,10.12c-8.64,2.26-17.35,3.95-26.38,2.82
		C221.9,476.4,216.87,470.64,217.21,460.92z"/>
	<g>
		<path d="M134.43,388.53c-1.18,1.1-2.24,2.08-3.39,3.14c-0.83-0.74-1.63-1.37-2.32-2.1c-2.65-2.78-5.26-5.59-7.92-8.42
			c1.03-1.34,2.46-2.11,3.11-3.53c-12.72-18.69-8.81-43.22,8.51-56.69c16.87-13.12,41.44-11.64,56.62,3.6
			c14.74,14.79,16.11,38.74,3.38,55.31C180.04,395.94,155.37,402.65,134.43,388.53z M158.28,316c-20.54,0.12-37.44,16.93-37.29,37.1
			c0.14,19.4,17.5,36.53,37.02,36.51c21.12-0.02,37.69-16.56,37.58-37.49C195.49,332.32,178.5,315.87,158.28,316z"/>
		<path d="M129.88,394.64c-7.18,6.89-14.27,13.62-21.27,20.44c-1.86,1.81-3.48,3.83-6.52,3.15c-0.66-0.15-1.33-0.09-1.85-0.67
			c-2.37-2.6-4.77-5.17-7.13-7.77c-0.75-0.83-1.1-1.67-0.07-2.65c8.36-8.01,16.69-16.04,25.19-24.23
			C122.13,386.81,126.25,390.4,129.88,394.64z M98.65,410.34c6.61-6.84,12.96-13.4,19.35-20.02c-0.12-0.15-0.35-0.85-1.15-0.84
			c-6.55,6.31-13.07,12.58-19.68,18.95C97.56,408.95,98.01,409.52,98.65,410.34z"/>
		<path class="st9" d="M158.28,316c20.22-0.12,37.21,16.32,37.31,36.13c0.11,20.93-16.47,37.47-37.58,37.49
			c-19.52,0.02-36.88-17.11-37.02-36.51C120.84,332.93,137.73,316.12,158.28,316z M158.6,318.65c-19.05,0.01-34.63,15.19-34.68,33.8
			c-0.05,19.13,15.38,34.31,34.9,34.32c18.75,0.01,34.17-15.48,34.16-34.31C192.96,333.89,177.46,318.65,158.6,318.65z"/>
		<path class="st9" d="M98.65,410.34c-0.64-0.82-1.09-1.4-1.49-1.91c6.62-6.37,13.13-12.64,19.68-18.95
			c0.8-0.01,1.03,0.69,1.15,0.84C111.61,396.94,105.26,403.51,98.65,410.34z"/>
		<path d="M158.6,318.65c18.86-0.01,34.36,15.24,34.37,33.81c0.01,18.83-15.41,34.32-34.16,34.31
			c-19.52-0.01-34.95-15.19-34.9-34.32C123.97,333.84,139.55,318.66,158.6,318.65z M138.87,375.45l-0.08-0.08
			c0.16,0.27,0.25,0.61,0.48,0.8c12.62,10.35,34.81,10.94,46.13-9.39c10.54-18.93-2.67-42.52-24.27-44.33
			c-20.79-1.74-37.25,17.33-32.28,37.55C130.38,366.22,133.28,371.75,138.87,375.45z"/>
		<path class="st10" d="M138.87,375.45c-5.58-3.7-8.49-9.22-10.02-15.46c-4.98-20.21,11.48-39.29,32.28-37.55
			c21.6,1.81,34.81,25.4,24.27,44.33c-11.32,20.33-33.51,19.75-46.13,9.39c-0.23-0.18-0.32-0.53-0.47-0.8
			c3.69,2.76,7.82,3.32,12.5,2.41c0-5.8-0.01-11.6,0.01-17.4c0.01-1.57-0.98-1.8-2.21-1.8c-2.57,0-5.14,0.06-7.7-0.02
			c-1.84-0.06-2.56,0.55-2.51,2.52C139,365.86,138.88,370.66,138.87,375.45z M169.24,377.84c2.84,0.34,5.16,0.38,6.97-2
			c1.18-1.55,2.7-2.87,4.18-4.16c1.01-0.88,1.29-1.81,1.28-3.12c-0.05-7.72,0.03-15.44-0.02-23.15c-0.02-2.38,1.03-5.43-0.47-6.96
			c-1.61-1.65-4.72-0.52-7.16-0.53c-5.38-0.02-4.78-0.82-4.78,4.73C169.24,354.3,169.24,365.95,169.24,377.84z M166.41,378
			c0-8.9,0.01-17.52-0.01-26.15c0-1.24-0.86-1.52-1.92-1.52c-2.48,0-4.97,0.1-7.45-0.06c-2.31-0.14-3.2,0.59-3.11,3.04
			c0.21,5.9,0.16,11.81,0.2,17.72c0.02,2.28,0,4.56,0,6.96C158.28,378,162.09,378,166.41,378z"/>
		<path d="M169.24,377.84c0-11.89-0.01-23.54,0-35.19c0-5.55-0.6-4.76,4.78-4.73c2.45,0.01,5.55-1.11,7.16,0.53
			c1.49,1.52,0.45,4.58,0.47,6.96c0.05,7.72-0.04,15.44,0.02,23.15c0.01,1.3-0.27,2.24-1.28,3.12c-1.48,1.29-3,2.61-4.18,4.16
			C174.41,378.22,172.08,378.18,169.24,377.84z"/>
		<path d="M166.41,378c-4.32,0-8.13,0-12.29,0c0-2.4,0.01-4.68,0-6.96c-0.04-5.91,0.01-11.82-0.2-17.72
			c-0.09-2.46,0.8-3.19,3.11-3.04c2.47,0.15,4.96,0.06,7.45,0.06c1.06,0,1.92,0.28,1.92,1.52C166.42,360.48,166.41,369.1,166.41,378
			z"/>
		<path d="M138.87,375.45c0.02-4.79,0.13-9.58,0.01-14.37c-0.05-1.97,0.66-2.58,2.51-2.52c2.57,0.09,5.14,0.03,7.7,0.02
			c1.23,0,2.21,0.23,2.21,1.8c-0.02,5.8-0.01,11.6-0.01,17.4c-4.68,0.91-8.81,0.35-12.5-2.41
			C138.78,375.36,138.87,375.45,138.87,375.45z"/>
	</g>
	<g>
		<path d="M108.5,240.61c-3.34,1.56-6.67,1.43-9.98-0.11c-0.57-0.27-1.14-0.45-1.79-0.31c-7.41,1.51-12.57,5.6-14.85,12.98
			c-1.25,4.06-1.21,8.24-1.22,12.42c0,1.12,0.65,1.23,1.55,1.26c7.11,0.18,14.23,0.3,21.35,0.24c3.56,0,7.12,0.04,10.67-0.01
			c3.56-0.05,7.11-0.22,10.67-0.24c1.4-0.01,1.91-0.51,1.82-1.89c-0.16-2.48-0.13-4.97-0.34-7.44c-0.73-8.59-6.41-15.1-14.77-17.08
			C110.51,240.14,109.53,240.13,108.5,240.61z"/>
		<path d="M112.46,234.7c2.11-2.67,3.08-5.72,3.1-9.62c0.03-0.73-0.17-1.96-0.45-3.17c-1.2-5.22-5.61-9.04-10.83-9.41
			c-4.96-0.35-9.65,2.7-11.58,7.69c-2.09,5.42-1.23,10.44,2.48,14.87C99.52,240.24,108.28,240,112.46,234.7z"/>
		<path d="M79.38,240.73c5.13,0.11,9.54-4.41,9.71-9.94c0.18-5.62-4.09-10.29-9.54-10.43c-5.44-0.14-9.76,4.24-9.91,10.04
			C69.5,235.82,74.02,240.62,79.38,240.73z"/>
		<path d="M128.27,240.68c5.3,0.14,9.7-4.37,9.79-10.03c0.09-5.79-3.97-10.22-9.42-10.28c-5.58-0.06-9.99,4.44-10,10.2
			C118.64,235.95,123.01,240.54,128.27,240.68z"/>
		<path d="M174.64,265.76c0-0.06,0-0.13,0-0.2c-0.01-0.33-0.05-0.66-0.23-0.94c-0.28-0.41-0.8-0.56-1.29-0.68
			c-8.71-2.13-17.44-4.17-26.18-6.13c-0.04-1.06-0.11-2.11-0.22-3.17c-0.67-6.39-5.19-11.45-11.46-12.92
			c-1.02-0.24-1.97-0.32-2.97,0.09c-2.5,1.03-5.05,1.04-7.62,0.26c-0.81-0.25-1.62-0.5-2.75,0.06c2.55,2.43,4.58,5.01,5.84,8.17
			c1.36,3.41,1.76,6.99,2.08,10.58c0.11,1.17,0.47,1.62,1.74,1.59c4.46-0.09,8.92-0.1,13.38-0.03c1.44,0.02,2.04-0.39,2.03-1.89
			c0-0.33-0.01-0.66-0.01-0.99c7.83,1.85,15.66,3.7,23.48,5.55c-3.53,0.71-7.07,1.43-10.6,2.14c-3.53,0.71-7.07,1.43-10.6,2.14
			c-3.53,0.71-7.07,1.43-10.6,2.14c-3.53,0.71-7.07,1.43-10.6,2.14c-3.53,0.71-7.07,1.43-10.6,2.14c-1.41,0.29-2.83,0.57-4.24,0.86
			c-1.38,0.28-2.81,0.46-4.16,0.91c-0.38,0.13-0.76,0.37-0.9,0.75c-0.11,0.31-0.01,0.65,0.02,0.97c0.03,0.37,0.06,0.74,0.09,1.11
			c0.05,0.74,0.07,1.49,0.08,2.23c0,0.94-0.02,1.89-0.09,2.83c-0.03,0.48-0.09,0.96-0.12,1.44c-0.03,0.36,0.01,0.79-0.32,1.04
			c-0.23,0.18-0.6,0.15-0.8-0.06c-0.2-0.21-0.22-0.53-0.23-0.82c-0.07-2.67-0.03-5.34,0.06-8.01c0.02-0.48-0.02-1.01-0.42-1.33
			c-0.25-0.2-0.59-0.28-0.9-0.33c-2.34-0.37-4.68-0.78-7.01-1.19c-18.4-3.24-36.8-6.49-55.19-9.73c-2.3-0.41-4.6-0.82-6.9-1.23
			c0.01-0.11,0.03-0.22,0.04-0.34c0.71-0.16,1.43-0.3,2.14-0.46c5.51-1.27,11.02-2.54,16.54-3.81l5.84-1.29
			c-0.01,0.37-0.02,0.74-0.03,1.1c-0.05,1.48,0.38,1.98,1.88,1.96c4.29-0.06,8.58-0.05,12.87,0.05c1.29,0.03,1.66-0.47,1.76-1.61
			c0.24-2.75,0.55-5.5,1.29-8.18c1.15-4.15,3.23-7.76,6.51-10.75c-0.33-0.13-0.48-0.24-0.62-0.23c-0.39,0.04-0.79,0.08-1.16,0.19
			c-2.83,0.86-5.64,1.06-8.42-0.21c-0.48-0.22-0.97-0.27-1.48-0.17c-5.73,1.13-9.7,4.35-11.64,9.9c-0.7,2-0.85,4.08-0.91,6.17
			l-4.61,1.07l-1.09,0.25l-0.01,0c0,0-0.73,0.17-0.73,0.17c-7.06,1.58-14.11,3.21-21.17,4.8c-1.05,0.23-1.5,0.73-1.49,1.83
			c0.04,3.16,0.04,6.33-0.02,9.49c-0.02,1.08,0.55,1.3,1.42,1.45c7.56,1.35,15.11,2.72,22.66,4.09c16.77,3.02,33.54,6.04,50.31,9.06
			c0.35,0.06,0.73,0.13,1.08,0.14c0.4,0.02,0.85-0.15,1.24-0.23c0.88-0.18,1.77-0.36,2.65-0.54c1.77-0.36,3.54-0.71,5.3-1.07
			c3.54-0.71,7.07-1.43,10.61-2.14c3.54-0.71,7.07-1.43,10.61-2.14c3.54-0.71,7.07-1.43,10.61-2.14c3.54-0.71,7.07-1.43,10.61-2.14
			c3.54-0.71,7.07-1.43,10.61-2.14c1.18-0.24,2.37-0.48,3.55-0.72c0.51-0.1,1.07-0.24,1.35-0.68c0.21-0.32,0.21-0.73,0.21-1.11
			C174.71,271.88,174.68,268.82,174.64,265.76z"/>
	</g>
	<g>
		<path class="st11" d="M347.09,145.07c8.04-2.07,15.47-5.91,22.62-10.11c5.71-3.36,6.54-10.01,9.56-15.41
			c6.59,3.94,9.89-1.43,13.33-5.05c4.15-4.37,5.21-9.95,2.59-15.55c-2.06-4.41-8.01-3.52-11.2,1.67c-1.16,1.9-1.67,4.21-2.42,6.35
			c-0.98,2.79-3.19,1.9-5.12,1.72c-2.17-0.2-1.54-1.83-1.36-3.07c1.03-6.95,1.39-13.58-4.8-18.84c-2.01-1.7-1.68-4.72-1.22-7.25
			c0.8-4.45,2.99-9.17-4.04-12c7.95-1.26,15.14-1.41,22.85-6.26c-9.68,2.12-17.75,3.79-25.76,5.71c-2.62,0.63-5.2,1.21-7.7,0.17
			c-4.76-1.98-9.34-1.99-13.87,0.56c-2.11,1.18-3.92-0.09-5.81-0.72c-5.76-1.91-9.81,0.2-11.46,5.78
			c-1.35,4.58-1.74,9.44-2.53,14.02c4.4,1.76,10.4-0.87,11.9,5.79c3.46,3.74,1.96,7.84,0.94,11.96c-1.14,4.56-5.98,9.65,1.95,13.24
			c-4.38-0.86-8.05-2.07-6.06-7.43c1.33-3.59,2.73-7.14,3.2-10.85c-1.57-0.53-2.32-0.78-3.16-1.06c-0.71,1.23-1.16,2.84-3.12,2.71
			c-1.76-0.11-2.4-1.33-2.89-2.8c-1.11,0.29-1.58,0.91-1.77,2.06c-2.36,14.71,2.37,28.07,8.73,40.75
			C333.83,147.89,341.13,146.6,347.09,145.07z M384.45,110.08c0.15-0.95-0.17-1.96-0.17-2.94c-0.01-3.5,2.55-5.29,4.93-7.13
			c1.24-0.95,2.77-1.04,3.96,0.1c1.97,1.9,1.23,4.13,0.46,6.93c-0.6-2.37-0.1-4.86-2.14-5.45c-1.48-0.43-2.67,1.26-3.44,2.53
			c0.83,1.05,1.54,1.95,2.51,3.17c-1.29,0-1.99,0-2.67,0c0,0.76-0.03,1.35,0,1.94c0.12,2.3-0.92,3.93-3,4.78
			c-0.58,0.24-1.78,0.21-1.99-0.13C381.79,112.04,384.24,111.46,384.45,110.08z M333.13,130.83c3.15,0.18,5.48,0.32,9.24,0.54
			C338.49,132.96,336.09,133.6,333.13,130.83z M354.51,98.38c-0.4,1.57-0.4,3.28-2.47,3.46c-2.27,0.2-2.89-1.6-3.64-3.01
			c-0.84,0.35-1.57,0.65-2.79,1.16c0.97-2.52,2.27-4.09,4.45-4.2c3.84-0.2,7.31,0.96,11.48,4.43
			C358.25,99.36,356.42,98.88,354.51,98.38z M342.83,89.3c5.34-3.63,18.32-1.49,22.42,4.35c-7-3.61-13.42-1.91-19.85-0.41
			c-1.38,0.32-2.56,0.08-3.07-1.46C342.04,90.88,341.8,89.99,342.83,89.3z M341.96,116.21c-2.39,0-3.73,0-5.72,0
			C338.21,114.51,339.56,114.62,341.96,116.21z M328.83,123.78c0.65-1.15,1.28-0.36,2.02,0.1c3.97,2.45,16.91,1.32,19.08-1.66
			c1.54,0.8,2.01,2.09,1.89,3.56c-1.67,0.34-3.18,0.77-4.73,0.95c-5.78,0.67-11.59,1.49-17.17-1.09
			C329.16,125.3,328.22,124.86,328.83,123.78z"/>
		<path class="st10" d="M276.04,179.84c-4.83,3.97-5.3,38.05-0.33,43.57C275.18,208.5,273.67,194.32,276.04,179.84z"/>
		<path class="st11" d="M386.12,67.52c-4.73,0.89-8.83,1.66-14.48,2.73C377.67,71.2,381.82,70.58,386.12,67.52z"/>
		<path class="st11" d="M363.25,164.64c1.47-0.81,2.64-2.15,4.11-2.95c14.71-8.02,14.65-22.1,14.83-36.06
			c0.01-0.51-0.94-1.29-1.57-1.46c-0.41-0.11-1.33,0.56-1.55,1.08c-6.31,15.04-19.87,21.76-33.31,28.12
			c-7.39,3.5-10.18,8.57-6.41,16.42c2.95,6.13,6.86,11.6,11.46,16.67c2.18-2.33,4.19-4.84,4.14-8.12
			C354.86,171.94,357.83,167.63,363.25,164.64z"/>
		<path class="st10" d="M363.02,168.83c-2.63,1.9-4.34,4.06-4.52,7.46c-0.26,4.73-3.1,8.26-5.38,12.24
			c-1.89,3.29-0.68,8.26-1.27,12.42c-2.57,17.91-5.63,35.76-6.66,54.48c6.71-3.92,13.22-6.55,20.66-5.74
			c1.7,0.19,1.93-1.21,2.19-2.53c3.45-17.43,7.09-34.82,10.3-52.29c1.18-6.38-5.01-9.38-7.82-13.92c-0.08-0.12-1.34,0.35-1.95,0.72
			c-3.01,1.83-5.98,3.72-10.23,4.34c2.85-2.53,5.74-5.03,8.53-7.62c2.92-2.7,0.96-4.67-5.94-5.96c3.09-3.84,6-2.96,10.63,3.45
			c2.66,3.69,5.13,7.53,8.35,12.29c2.65-15.31,11.4-28.75,6.15-46.4C381.87,155.61,372.3,162.11,363.02,168.83z"/>
		<path class="st11" d="M346.4,57.88c-4.99-3.4-10.34-3.36-15.85-1.63C335.9,56.12,341.23,56.23,346.4,57.88z"/>
		<path class="st10" d="M333.9,263.56c-2.99-8.54-5.92-17.11-9.08-25.59c-0.34-0.9-2.08-1.86-3.14-1.82
			c-6.79,0.21-13.57,0.68-20.43,1.07c0.39,1.92,1.45,1.64,2.33,1.59c5.07-0.29,10.15-0.45,15.19-0.98c3.3-0.34,5,0.93,6.01,3.96
			c2.48,7.45,5.13,14.84,7.71,22.25C332.96,263.88,333.43,263.72,333.9,263.56z"/>
		<path class="st10" d="M310,231.96c-3.47-0.29-7.03,0.45-10.61,0.72c0.47,1.94,1.73,1.52,2.76,1.45c6.25-0.41,12.5-0.92,18.76-1.26
			c3.94-0.21,6.61,1.65,7.91,5.43c1.92,5.6,4.21,11.1,5.63,16.81c0.78,3.13,3.06,4.28,5.04,4.06c2.46-0.27,3.43-2.75,3.59-5.59
			c1.05-17.94,3.86-35.67,6.77-53.38c0.99-6.03-0.82-10.77-4.68-15.34c-8.23-9.76-14.32-20.39-11.38-33.97
			c0.11-0.52,0.01-1.09,0.01-3.23c-8.88,10.85-8.85,22.68-10.19,35.72c1.25-2.78,1.92-4.2,2.53-5.64c0.66-1.55,1.22-3.15,1.92-4.69
			c0.62-1.38,1.2-2.85,3.14-2.87c2.01-0.02,3.54,0.9,4.26,2.66c1.78,4.35,3.37,8.77,5.25,13.74c-4.73-3.45-5.96-8.62-8.78-12.25
			c-10.4,12.48-9.32,27.85-10.77,42.58c-0.15,1.52-0.51,3.1-0.25,4.56C322.46,230.48,317.86,232.62,310,231.96z M344.64,192.72
			c1.5,0.01,2.28,1.06,2.32,2.45c0.05,1.47-0.91,2.38-2.31,2.48c-1.48,0.11-2.26-0.86-2.46-2.38
			C342.4,193.9,342.98,192.7,344.64,192.72z M340.01,223.14c1.58-0.02,2.3,0.99,2.37,2.37c0.07,1.56-0.87,2.6-2.42,2.65
			c-1.47,0.04-2.15-1.08-2.45-2.43C337.72,224.26,338.32,223.16,340.01,223.14z"/>
		<path class="st10" d="M303.03,228.27c-0.64-6.71-1.28-13.42-1.92-20.13c-0.29-3.03-0.15-6.18-0.94-9.07
			c-2.43-8.9,1.27-13.66,9.72-15.81c3.35-0.85,3.96-2.64,0.84-4.82c-2.49-1.74-2.92-3.32-0.46-5.72c2.84-2.75,5.2-5.99,9.29-10.81
			c-6.63,4.57-10.71,8.59-13.68,13.33c-0.16,0.25-0.22,0.48-0.23,0.71c-0.01,1.57,3.32,2.7,3.88,4.71c-0.1,0.14-0.18,0.35-0.3,0.37
			c-13.19,2.42-13.16,11.3-11.13,21.74C299.77,211.24,300.48,219.87,303.03,228.27z"/>
		<path class="st10" d="M334.14,271.79c3.05-0.89,5.98-2.17,8.96-3.3c-0.08-0.29-0.16-0.57-0.24-0.86
			c-2.24,0.58-4.49,1.16-6.87,1.77c0.18-2.09,3.55-1.13,2.88-3.53c-0.07-0.25-0.91-0.57-1.17-0.44c-2.35,1.22-4.68,2.5-6.94,3.88
			c-0.2,0.12-0.07,1.4,0.2,1.53C331.97,271.32,333.24,272.05,334.14,271.79z"/>
		<path class="st11" d="M332.68,99.4c0.26-2.11,0.21-4.26-0.33-6.51c-1.88-0.37-3.77-0.69-5.63-1.13c-1.82-0.43-4.06-1.3-5.26,0.12
			c-0.78,0.92-0.01,3.14,0.08,5.02C325.77,95.04,329.23,95.21,332.68,99.4z"/>
		<path class="st10" d="M341.71,380.53c0.07-1.16,1.58-3.63-1.04-3.54c-9.61,0.34-19.09-0.31-28.37-2.91
			c-1.08,5.38-2.06,10.73-3.1,16.03h31.96C341.32,386.91,341.51,383.72,341.71,380.53z"/>
		<path class="st10" d="M371.87,250.3c4.89,2.11,16.87-3.09,16.85-6.7c0,0,0,0,0,0c-4.78,1.9-9.55,3.8-14.64,5.82
			C373.35,249.72,372.61,250.01,371.87,250.3z"/>
		<path class="st10" d="M431.96,280.54c6.36-5.21,12.75-10.39,19.04-15.67c0.54-0.45,0.92-1.86,0.62-2.39
			c-0.66-1.14-1.67-0.25-2.36,0.27C442.64,267.77,436.41,273.2,431.96,280.54z"/>
		<path class="st10" d="M310.18,370.69c1.09-6.16-0.02-14.56,3.6-17.89c3.27-3.01,11.62-0.52,17.73-0.45c0.08,0,0.17,0.02,0.25,0.03
			c-0.91-1.28-3.12-2.14-1.46-4.25c0.79-1,1.89-1.1,2.95-0.43c2.36,1.49,0.41,3.12,0.1,4.69c5.98,0.69,5.24-3.1,5.33-7.17
			c0.19-8.85-3.42-11.24-12.19-10.33c-12.6,1.31-12.2,0.69-14.65,15.5c-2.21,13.34-4.53,26.69-8.05,39.72h2.8
			C307.96,383.68,309.03,377.17,310.18,370.69z"/>
		<path class="st10" d="M366.98,354.93c-0.66-4.2-1.37-6.95-6.41-6.45c-2.04,0.2-4.17-0.48-6.25-0.76c3.04-1.19,6.02-1.32,9-1.49
			c1.04-0.06,2.36,0.2,2.12-1.64c-2.04-16.05-2.89-32.17-3.04-48.51c-5.09,1.09-7.84-0.66-11.06-4.84c-2.29-2.97-2-8.06-6.63-9.23
			c-0.18-0.11-0.36-0.22-0.53-0.32c-0.03,0.25-0.05,0.5-0.08,0.75c3.6,11.27,7.37,22.5,10.76,33.83
			c5.18,17.33,5.07,17.39-13.29,18.22c-1.79,0.08-2.25,0.56-2.15,2.34c0.29,5.11,2,10.14,0.71,15.33c8.33,0.37,16.4,2.57,24.68-0.41
			c0.26,2.59,0.47,4.6,0.67,6.6c1.36,13.45,1.26,12.89-12.1,15.26c-3.34,0.59-9.59,1.65-9.15,8.94c0.15,2.51,0.23,5.03,0.27,7.55
			h28.85C370.65,378.51,368.83,366.71,366.98,354.93z"/>
		<path class="st11" d="M388.77,243.58c0.01-0.02,0.02-0.03,0.03-0.05c-0.03,0-0.05,0-0.08-0.01c0,0,0.02,0.03,0.04,0.04l-0.04-0.04
			c0,0.02,0,0.05,0,0.07C388.74,243.6,388.75,243.59,388.77,243.58L388.77,243.58z"/>
		<path class="st10" d="M391.19,246.28c0.38,1.6-1.16,1.6-2.05,2.04c-2.54,1.25-5.13,2.43-7.57,3.96c4.27-0.87,8.52-2,11.87-4.9
			c1.43-1.24,0.12-3.05-1.16-4.12c-0.36-0.3-0.74-0.56-1.13-0.72c-0.83-0.34-1.67-0.2-2.36,1h0
			C390.52,243.61,390.89,245.01,391.19,246.28z"/>
		<path class="st10" d="M446.22,180.66c-15.88,4.87-28.99,60.07-22.58,96.97C424.65,243.81,423.72,209.54,446.22,180.66z"/>
		<path class="st10" d="M391.97,235.13c0.36,0.11,0.72,0.22,1.08,0.32c5.66-15.34,11.33-30.68,16.97-46.02
			c0.54-1.47-0.77-1.88-1.62-2.47c-2.89-2.02-5.81-4-8.78-6.03c2.91-1.58,8.07-3.55,7.89-4.41c-1.05-5.09-3.35-9.93-6.24-14.53
			c0.61,2.27,0.83,4.74,1.9,6.76c3.17,5.98,0.52,8.64-5.09,10.04c-0.45,0.11-0.88,0.36-1.29,0.64c-0.21,0.14-0.41,0.29-0.61,0.43
			c-0.1,0.07-0.21,0.15-0.31,0.21c-0.1,0.07-0.21,0.14-0.31,0.2c0.17,0.19,0.34,0.41,0.5,0.62c0.08,0.11,0.16,0.22,0.24,0.33
			c0.16,0.22,0.33,0.43,0.5,0.63c0.26,0.29,0.54,0.54,0.87,0.69c7.52,3.43,9.86,7.81,6.23,16.37
			C398.96,210.57,395.86,223.02,391.97,235.13z"/>
		<polygon class="st11" points="325.23,49.13 325.22,49.14 325.23,49.13 		"/>
		<path class="st10" d="M384.48,310.49c0.17,1.8,0.08,3.47,1.7,4.8C386.95,313.25,388.1,311.3,384.48,310.49z"/>
		<path class="st10" d="M398.74,320.6c-0.36,2.69-2.75-0.06-4.08,1.09c0.57,1.47,1.59,3.06,3.37,3.24c1.84,0.2,1.87-1.88,2.42-3.09
			c4.62-10.25,5.59-20.9,4.11-32.01c-0.74-5.54-4.57-6.39-8.88-7.51c2.81,15.4-1.12,30.71-9.15,33.92c3.16,0.77,5.83,1.28,8.39,2.11
			C396.34,318.82,399.06,318.24,398.74,320.6z"/>
		<path class="st10" d="M396.55,346.08c-0.39-2.47-1.94-4.75-2.95-7.12c0.18,7.26,1.82,14.07,4.9,20.45
			c0.3,0.63,1.78,1.04,2.66,0.98c9.83-0.72,19.42-2.76,28.82-5.68c0.41-0.13,0.73-0.52,2.38-1.76c-7.16,1.05-12.96,1.45-18.52,2.81
			C404.8,357.96,398.23,356.85,396.55,346.08z"/>
		<path class="st10" d="M335.87,273.93c6.01,18.38,12.02,36.76,18.04,55.13c0.44-0.14,0.88-0.28,1.32-0.43
			c-5.99-18.38-11.99-36.77-17.98-55.15C336.78,273.63,336.33,273.78,335.87,273.93z"/>
		<path class="st11" d="M391.28,305.93c4.44-7.53,2.96-15.13,0.6-22.97c-2.04-6.79-3.21-13.84-4.79-20.77
			c-0.8-3.52-2.74-5.87-6.48-6.61c-12.4-2.43-24.8-4.98-35.92,3.98c-1.39,1.12-4.24,1.78-3.11,4.15c1.14,2.38,3.86,1.59,5.68,0.71
			c9.99-4.87,20.34-3.63,32.12-2.14c-5.6,2.12-10.13,1.64-14.51,1.28c-8.79-0.72-14.25,4.15-19.05,10.44
			c-0.97,1.27-1.55,2.76-0.24,4.15c1.43,1.51,2.99,0.69,4.03-0.4c7.86-8.34,17.83-5.7,27.63-5.66c-2.3,1.85-2.79,2.14-11.86,2.02
			c-5.81-0.08-10.29,2.03-14.05,6.26c-1.65,1.85-1.32,3.6-0.04,5.26c1.33,1.71,2.62,0.22,3.74-0.46c4.6-2.82,13.92-4.08,22.85-2.22
			c-4.23,0.68-6.38,1.11-8.56,1.35c-2.36,0.25-4.82-0.02-7.08,0.56c-2.94,0.76-7.3,1.36-6.97,5.13c0.41,4.75,4.59,3.08,7.7,2.66
			c4.45-0.6,8.7-0.04,13.4,2.75h-4.11c1.23,9.5,7.83,12.35,15.88,13.37C390.17,309,390.56,307.14,391.28,305.93z"/>
		<path class="st10" d="M412.95,323.95c1.53-0.07,2.16-1.19,2.19-2.58c0.03-1.36-0.64-2.34-2.08-2.26c-0.21,0.01-0.4,0.05-0.58,0.1
			c-0.45,0.13-0.8,0.36-1.06,0.69c-0.37,0.46-0.56,1.08-0.63,1.78c0.13,1.14,0.58,2.07,1.66,2.24
			C412.6,323.95,412.77,323.96,412.95,323.95z"/>
		<path class="st10" d="M445.25,282.95c-12.91,0.98-25.77,2.74-38.76,0.66c-0.03,2.98,1.39,3.66,3.82,3.73
			c10.27,0.29,20.68-0.15,30.76,1.47c6.11,0.98,11.69,5.21,17.51,7.98c0.14-0.26,0.28-0.51,0.43-0.77
			c-4.57-3.08-9.14-6.16-14.29-9.63c10.7-0.75,18.66,3.99,26.47,10.1C468.5,288.65,456.19,282.11,445.25,282.95z"/>
		<path class="st10" d="M321.19,250.11c-0.37-1.14-0.89-2.4-1.97-3.04c-0.35,0-0.89-0.37-1.28-0.42c-0.5-0.07-1.01-0.05-1.51,0
			c-3.3,0.32-6.6,0.58-9.91,0.83c-10.58,0.79-21.17,1.6-31.77,2.17c-5.19,0-10.44,0.59-15.62,0.85c-5.06,0.26-10.12,0.49-15.18,0.78
			c0.52,1.39,1.05,2.79,1.57,4.18c3.47,9.24,6.4,18.8,11.61,27.27c2.22,3.61,4.91,6.86,6.61,11.05c0.49,1.21,5.6,0.46,8.58,0.76
			c6.09,0.62,9.12,8.89,7.79,14.75c-0.57,2.5-0.87,5.04-1.93,7.4c-0.99,2.21-2.42,4.23-4.21,5.86c-0.36,0.33-0.76,0.68-0.88,1.16
			c-0.07,0.3-0.03,0.61,0.04,0.9c0.24,1.08,0.8,2.14,1.75,2.71c0.44,0.27,0.91,0.41,1.4,0.48c1.05,0.15,2.18-0.03,3.22-0.01
			c1.65,0.03,3.3,0.06,4.95,0.06c10.38,0.03,20.77,0.04,31.15,0.04c10.63,0,21.25-0.01,31.88-0.01
			c-4.93-14.73-9.06-27.2-13.28-39.64C329.88,275.53,325.38,262.87,321.19,250.11z"/>
		<path class="st10" d="M430.67,322.75c-0.02-0.69-0.31-1.79-1.74-1.81c-1.6-0.02-2.15,1.16-2.24,2.52
			c-0.09,1.28,0.57,2.17,1.9,2.16C430.06,325.61,430.6,324.58,430.67,322.75z"/>
		<path class="st10" d="M422.91,322.39c0.05-1.26-0.45-2.09-1.82-2.18c0,0,0,0,0,0c0,0,0,0,0,0c-1.43,0.07-1.94,0.99-2.12,2.08
			c-0.02,0.16-0.04,0.32-0.06,0.48c-0.09,1.23,0.54,2.19,1.86,2.17C422.34,324.92,422.86,323.78,422.91,322.39z"/>
		<path class="st11" d="M275.6,312.54c-6.51,3.27-13.04,5.96-22.6,6.4c5.13-1.77,8.16-2.76,11.14-3.86c1.9-0.7,3.9-1.34,5.56-2.44
			c3.14-2.09,9.34-3.05,7.21-7.93c-1.31-3.01-5.67,1.15-8.67,1.91c-5.93,1.51-11.73,3.5-18.11,3.09c5.76-1.84,11.59-3.5,17.26-5.59
			c3.08-1.13,8.68-1.65,7.94-5.09c-0.77-3.55-6.35-2.37-9.68-2.03c-5.52,0.55-10.92,2.18-16.39,3.27c-1.31,0.26-2.77,0.94-4.67-0.94
			c4.38-1.53,8.39-2.78,12.26-4.38c1.46-0.6,4.25-0.5,3.56-3.29c-0.72-2.89-1.94-5.64-5.83-4.86c-3.56,0.71-7.24,1.14-10.61,2.39
			c-5.05,1.89-7.47,5.13-3.24,10.22c1.14,1.37,0.66,2.89,0.31,4.36c-0.48,2.01-0.42,3.88,1.25,5.37c3.93,3.5,4.3,9.15,8.07,12.96
			c1.82,1.84,3.04,4.47,5.79,3.82c6.67-1.57,13.17-3.79,18.32-8.67C275.66,316.1,276.34,314.62,275.6,312.54z"/>
		<path class="st10" d="M323.14,355.17c-3.79-0.16-4.94,0.79-5.02,4.64c-0.25,13.29-0.4,13.28,12.82,14.11
			c1.52,0.09,3.04,0.21,4.14,0.29c17.55-0.7,13.34,2.19,14.17-13.59c0.26-4.93-1.36-6.19-6.08-5.81
			C336.53,355.36,329.81,355.46,323.14,355.17z M342.28,357.31c2.93-0.11,3.59,0.84,3.33,3.51c-0.25,2.53-0.17,5.11-0.03,7.65
			c0.11,1.9-0.5,2.69-2.47,2.91c-6.59,0.73-13.16,0.93-19.77,0.34c-1.36-0.12-2.19-0.48-2.16-2.1c0.08-4.13,0.03-8.27,0.03-12.23
			C328.42,357.39,335.36,357.56,342.28,357.31z"/>
		<path class="st10" d="M265.96,243.82c10.12-1.38,20.4-1.58,30.61-2.34c0.61-0.04,1.61-0.5,1.7-0.91
			c1.1-5.14-6.26-13.34-11.45-12.94c-8.15,0.64-16.3,1.22-25.28,1.89c4.66,6.51,0.69,6.92-4.08,6.82
			C258.99,240.68,259.45,244.71,265.96,243.82z M267.82,231.91c7-0.54,14-1.08,21.01-1.61c1.41-0.11,2.41,0.61,2.56,1.92
			c0.13,1.21-0.82,1.65-2.01,1.73c-6.76,0.48-13.51,1.01-20.38,1.53c-1.13-0.26-2.97,0.8-3.21-1.58
			C265.63,232.39,266.61,232.01,267.82,231.91z"/>
		<path class="st10" d="M280.88,356.08c-0.42,0.13-0.96,1.25-0.8,1.5c0.37,0.57,1.19,1.29,1.72,1.21c0.75-0.1,1.81-0.73,2.04-1.38
			c2.1-5.97,3.82-12.04,3.71-18.62c-1.57,4.75-3.09,9.52-4.75,14.24C282.42,354.12,282.45,355.57,280.88,356.08z"/>
		<path class="st10" d="M254.85,240.28l-21.7,1.19c0.03,0.58,0.05,1.15,0.08,1.73c7.24-0.5,14.47-1,21.71-1.5
			C254.91,241.23,254.88,240.76,254.85,240.28z"/>
		<path d="M388.72,243.53l0.04,0.04C388.75,243.56,388.72,243.53,388.72,243.53z"/>
		<path d="M478.05,302.12c-5.27-33.51-7.87-67.43-15.51-100.57c-1.16-5.03-2.54-10-3.7-15.02c-1.44-6.19-5.74-9.48-11.3-11.68
			c-13.98-5.53-27.92-11.19-41.92-16.66c-9.94-3.88-15.26-12.48-19.51-21.07c-2.23-4.5-0.8-11.42,3.95-15.58
			c6.35-5.56,10.69-11.41,9.79-20.74c-0.41-4.21,3.16-8.65,3.96-13.16c2.09-11.75-0.66-21.03-9.65-30.58
			c-8.02-8.52-16.09-14.47-27.06-16.26c-14.81-2.41-28.88,0.58-41.84,8.31c5.56-0.08,11-2.02,16.67-0.89
			c4.25,0.84,8.34,1.88,11.9,4.46c0.37,0.14,0.74,0.28,2.3,0.86c-1.75-0.24-2.23-0.3-2.71-0.36c-7.67-3-15.52-4.18-23.63-2.18
			c-6.7,1.65-11.35,5.44-12.42,13.63c-1-5.13,0.46-8.74,2.71-12.27c-7.78,2.67-9.6,13.85-3.44,21.04c1.74,2.03,2.21,3.84,2.03,6.54
			c-1.48,21.5-2.06,43.08,8.61,62.72c3.76,6.91-0.6,9.67-4.33,12.33c-12.62,9.01-27.65,12.93-41.91,18.37
			c-8.02,3.05-12.74,8.23-14.51,16.39c-2.86,13.14-5.73,26.28-8.48,39.44c-0.43,2.04-0.32,3.8-3.29,3.87
			c-2.12,0.05-1.59,2.1-1.03,3.82c-6.55,0.42-12.77,0.86-19.01,1.2c-5.38,0.29-6.9,3.11-5.04,7.84c3.65,9.28,7.37,18.54,11.31,27.7
			c1.12,2.61,0.77,4.31-0.92,6.51c-10.53,13.7-7.02,45.53,6.15,56.79c5.49,4.69,11.76,5.1,17.75,1.83c4.54-2.48,9.03-2.09,13.52-2.1
			c-2.39,17.84-4.6,35.67-7.09,53.44h33.4c3.52-13.03,5.84-26.37,8.05-39.72c2.45-14.81,2.05-14.19,14.65-15.5
			c8.77-0.91,12.38,1.48,12.19,10.33c-0.09,4.08,0.64,7.86-5.33,7.17c0.3-1.57,2.26-3.21-0.1-4.69c-1.06-0.67-2.16-0.57-2.95,0.43
			c-1.66,2.11,0.56,2.98,1.46,4.25c-0.08-0.01-0.17-0.03-0.25-0.03c-6.11-0.07-14.46-2.56-17.73,0.45
			c-3.62,3.34-2.51,11.73-3.6,17.89c-1.15,6.48-2.22,12.99-3.59,19.42h2.61c1.04-5.3,2.02-10.65,3.1-16.04
			c9.27,2.6,18.75,3.25,28.37,2.91c2.61-0.09,1.11,2.39,1.04,3.54c-0.21,3.19-0.4,6.39-0.55,9.58h3.34
			c-0.04-2.52-0.11-5.03-0.27-7.55c-0.44-7.29,5.81-8.35,9.15-8.94c13.36-2.37,13.46-1.81,12.1-15.26c-0.2-2-0.41-4.01-0.67-6.6
			c-8.27,2.98-16.35,0.78-24.68,0.41c1.29-5.18-0.43-10.21-0.71-15.33c-0.1-1.78,0.36-2.26,2.15-2.34
			c18.35-0.82,18.46-0.88,13.29-18.22c-3.39-11.34-7.16-22.56-10.76-33.83c0.03-0.25,0.05-0.5,0.08-0.75
			c0.18,0.11,0.36,0.22,0.53,0.32c4.63,1.17,4.34,6.25,6.63,9.23c3.22,4.18,5.97,5.93,11.06,4.84c0.15,16.33,1,32.46,3.04,48.51
			c0.23,1.84-1.08,1.58-2.12,1.64c-2.98,0.17-5.96,0.3-9,1.49c2.09,0.28,4.21,0.96,6.25,0.76c5.04-0.5,5.75,2.25,6.41,6.45
			c1.85,11.78,3.67,23.58,6.37,35.18h20.85c1.32-1.75,2.94-3.27,4.82-4.4c2.59-1.56,4.96-3.49,7.64-4.91
			c2.84-1.51,5.92-2.56,8.91-3.75c-1.14,0.42,0.47-0.41,1.52-0.96c0.31-0.27,1.02-0.84,1.47-1.25c2.83-2.6,5.76-4.97,8.81-7.32
			c1.29-1,2.7-1.67,4.16-2.09c2.27-1.44,4.84-2.38,7.49-2.66c-1.23-9.95-2.45-19.88-3.68-29.77c6.06,0,12.39,0.05,18.71-0.01
			C469.12,332.84,480.7,318.98,478.05,302.12z M449.26,262.75c0.69-0.52,1.7-1.41,2.36-0.27c0.3,0.52-0.08,1.94-0.62,2.39
			c-6.3,5.29-12.68,10.47-19.04,15.67C436.41,273.2,442.64,267.77,449.26,262.75z M446.22,180.66
			c-22.5,28.87-21.57,63.14-22.58,96.97C417.22,240.73,430.34,185.54,446.22,180.66z M397.68,182.54c-0.33-0.15-0.61-0.4-0.87-0.69
			c-0.17-0.19-0.34-0.41-0.5-0.63c-0.08-0.11-0.16-0.22-0.24-0.33c-0.16-0.22-0.33-0.43-0.5-0.62c0.1-0.06,0.21-0.13,0.31-0.2
			c0.1-0.07,0.21-0.14,0.31-0.21c0.2-0.15,0.41-0.29,0.61-0.44c0.41-0.28,0.83-0.52,1.29-0.64c5.62-1.4,8.27-4.06,5.09-10.04
			c-1.07-2.02-1.29-4.5-1.9-6.76c2.89,4.6,5.18,9.44,6.24,14.53c0.18,0.87-4.97,2.83-7.89,4.42c2.97,2.04,5.89,4.01,8.78,6.03
			c0.84,0.59,2.16,1,1.62,2.47c-5.65,15.35-11.31,30.68-16.97,46.02c-0.36-0.11-0.72-0.22-1.08-0.32
			c3.89-12.11,6.99-24.56,11.94-36.23C407.54,190.35,405.2,185.97,397.68,182.54z M388.72,243.53c0.03,0,0.05,0,0.08,0.01
			c0.69-1.2,1.53-1.34,2.36-1c0.38,0.16,0.76,0.42,1.13,0.72c1.27,1.07,2.59,2.88,1.16,4.12c-3.35,2.9-7.6,4.04-11.87,4.9
			c2.44-1.52,5.02-2.7,7.57-3.96c0.89-0.44,2.43-0.45,2.05-2.04c-0.3-1.27-0.67-2.66-2.39-2.74h0c-0.01,0.02-0.02,0.03-0.03,0.05
			l0,0c-0.02,0.01-0.03,0.01-0.05,0.02l0,0c0.02,3.61-11.96,8.81-16.85,6.7c0.74-0.3,1.48-0.59,2.21-0.88
			c5.09-2.02,9.87-3.92,14.64-5.82C388.72,243.58,388.73,243.55,388.72,243.53z M386.04,141.76c5.26,17.65-3.49,31.09-6.15,46.4
			c-3.22-4.76-5.69-8.6-8.35-12.29c-4.62-6.4-7.53-7.29-10.63-3.45c6.9,1.29,8.86,3.26,5.94,5.96c-2.8,2.59-5.69,5.08-8.53,7.62
			c4.26-0.62,7.23-2.51,10.23-4.34c0.61-0.37,1.87-0.84,1.95-0.72c2.81,4.54,8.99,7.54,7.82,13.92
			c-3.22,17.47-6.86,34.86-10.3,52.29c-0.26,1.32-0.49,2.72-2.19,2.53c-7.43-0.81-13.94,1.82-20.66,5.74
			c1.03-18.72,4.09-36.57,6.66-54.48c0.6-4.16-0.62-9.13,1.27-12.42c2.28-3.97,5.12-7.51,5.38-12.24c0.19-3.4,1.9-5.56,4.52-7.46
			C372.3,162.11,381.87,155.61,386.04,141.76z M350.81,186.46c-4.6-5.07-8.51-10.54-11.46-16.67c-3.77-7.85-0.98-12.92,6.41-16.42
			c13.44-6.36,27-13.08,33.31-28.12c0.22-0.52,1.14-1.19,1.55-1.08c0.63,0.17,1.58,0.95,1.57,1.46
			c-0.18,13.96-0.12,28.04-14.83,36.06c-1.47,0.8-2.65,2.14-4.11,2.96c-5.42,2.99-8.39,7.3-8.3,13.69
			C355,181.62,352.99,184.13,350.81,186.46z M346.4,57.88c-5.17-1.65-10.5-1.76-15.85-1.63C336.06,54.52,341.41,54.49,346.4,57.88z
			 M321.73,100.42c0.18-1.15,0.66-1.77,1.77-2.06c0.49,1.47,1.13,2.69,2.89,2.8c1.96,0.12,2.41-1.48,3.12-2.71
			c0.84,0.28,1.58,0.53,3.16,1.06c-0.47,3.71-1.87,7.26-3.2,10.85c-1.99,5.36,1.69,6.57,6.06,7.43c-7.93-3.59-3.09-8.68-1.95-13.24
			c1.02-4.11,2.52-8.22-0.94-11.96c-1.5-6.66-7.49-4.03-11.9-5.79c0.79-4.58,1.18-9.44,2.53-14.02c1.64-5.58,5.7-7.69,11.46-5.78
			c1.89,0.62,3.7,1.9,5.81,0.72c4.53-2.54,9.11-2.54,13.87-0.56c2.5,1.04,5.08,0.45,7.7-0.17c8.01-1.91,16.09-3.59,25.76-5.71
			c-7.71,4.86-14.9,5-22.85,6.26c7.02,2.82,4.84,7.55,4.04,12c-0.46,2.54-0.79,5.55,1.22,7.25c6.19,5.25,5.83,11.89,4.8,18.84
			c-0.18,1.25-0.81,2.87,1.36,3.07c1.93,0.18,4.14,1.07,5.12-1.72c0.75-2.14,1.25-4.45,2.42-6.35c3.19-5.2,9.13-6.08,11.2-1.67
			c2.62,5.6,1.56,11.19-2.59,15.55c-3.44,3.63-6.74,8.99-13.33,5.05c-3.02,5.4-3.85,12.05-9.56,15.41
			c-7.15,4.21-14.58,8.04-22.62,10.11c-5.96,1.53-13.26,2.82-16.63-3.9C324.11,128.49,319.37,115.13,321.73,100.42z M321.46,91.89
			c1.2-1.42,3.44-0.56,5.26-0.12c1.86,0.44,3.75,0.76,5.63,1.13c0.54,2.24,0.58,4.4,0.33,6.51c-3.45-4.19-6.91-4.36-11.14-2.49
			C321.45,95.03,320.68,92.8,321.46,91.89z M386.12,67.52c-4.3,3.06-8.45,3.68-14.48,2.73C377.29,69.18,381.38,68.41,386.12,67.52z
			 M320.89,221.49c-0.25-1.46,0.1-3.04,0.25-4.56c1.45-14.74,0.37-30.1,10.77-42.58c2.82,3.63,4.04,8.8,8.78,12.25
			c-1.88-4.96-3.47-9.39-5.25-13.74c-0.72-1.76-2.25-2.68-4.26-2.66c-1.94,0.02-2.51,1.49-3.14,2.87c-0.69,1.54-1.26,3.13-1.92,4.69
			c-0.61,1.44-1.28,2.86-2.53,5.64c1.34-13.04,1.31-24.87,10.19-35.72c0,2.13,0.1,2.7-0.01,3.23c-2.94,13.58,3.15,24.21,11.38,33.97
			c3.86,4.58,5.67,9.31,4.68,15.34c-2.9,17.71-5.72,35.44-6.77,53.38c-0.17,2.83-1.13,5.32-3.59,5.59
			c-1.98,0.21-4.26-0.94-5.04-4.06c-1.42-5.72-3.72-11.22-5.63-16.81c-1.29-3.78-3.97-5.64-7.91-5.43
			c-6.26,0.34-12.5,0.85-18.76,1.26c-1.03,0.07-2.29,0.49-2.76-1.45c3.59-0.28,7.14-1.02,10.61-0.72
			C317.86,232.62,322.46,230.48,320.89,221.49z M330.77,269.31c2.26-1.38,4.59-2.66,6.94-3.88c0.26-0.14,1.1,0.19,1.17,0.44
			c0.67,2.4-2.7,1.44-2.88,3.53c2.38-0.61,4.62-1.19,6.87-1.77c0.08,0.29,0.16,0.57,0.24,0.86c-2.98,1.13-5.91,2.41-8.96,3.3
			c-0.91,0.27-2.18-0.47-3.18-0.95C330.69,270.71,330.57,269.43,330.77,269.31z M324.77,241.8c-1.01-3.04-2.71-4.31-6.01-3.96
			c-5.04,0.53-10.12,0.69-15.19,0.98c-0.88,0.05-1.94,0.34-2.33-1.59c6.86-0.39,13.64-0.87,20.43-1.07
			c1.06-0.03,2.81,0.92,3.14,1.82c3.16,8.48,6.09,17.05,9.08,25.59c-0.47,0.16-0.95,0.32-1.42,0.48
			C329.9,256.63,327.25,249.24,324.77,241.8z M309.25,181.03c0.12-0.02,0.2-0.24,0.3-0.37c-0.57-2.01-3.89-3.14-3.88-4.71
			c0-0.23,0.07-0.46,0.23-0.71c2.97-4.73,7.05-8.76,13.68-13.33c-4.09,4.81-6.45,8.05-9.29,10.81c-2.47,2.39-2.03,3.98,0.46,5.72
			c3.12,2.18,2.51,3.97-0.84,4.82c-8.45,2.15-12.15,6.9-9.72,15.81c0.79,2.89,0.65,6.04,0.94,9.08c0.64,6.71,1.28,13.42,1.92,20.13
			c-2.55-8.4-3.26-17.04-4.91-25.49C296.09,192.34,296.06,183.45,309.25,181.03z M276.04,179.84c-2.37,14.48-0.86,28.66-0.33,43.57
			C270.74,217.89,271.21,183.81,276.04,179.84z M261.54,229.52c8.97-0.67,17.13-1.25,25.28-1.89c5.19-0.41,12.54,7.8,11.45,12.94
			c-0.09,0.42-1.09,0.87-1.7,0.91c-10.21,0.76-20.49,0.95-30.61,2.34c-6.51,0.89-6.97-3.14-8.49-7.48
			C262.23,236.44,266.21,236.02,261.54,229.52z M233.23,243.2c-0.03-0.58-0.05-1.15-0.08-1.73l21.7-1.19
			c0.03,0.47,0.06,0.95,0.09,1.42C247.7,242.2,240.47,242.7,233.23,243.2z M256.14,325.91c-2.75,0.65-3.97-1.98-5.79-3.82
			c-3.77-3.81-4.13-9.46-8.07-12.96c-1.67-1.49-1.72-3.36-1.25-5.37c0.35-1.47,0.82-3-0.31-4.36c-4.23-5.09-1.81-8.33,3.24-10.22
			c3.36-1.26,7.05-1.68,10.61-2.39c3.89-0.78,5.11,1.98,5.83,4.86c0.69,2.79-2.1,2.69-3.56,3.29c-3.87,1.6-7.88,2.84-12.26,4.38
			c1.9,1.88,3.36,1.2,4.67,0.94c5.47-1.09,10.88-2.72,16.39-3.27c3.33-0.33,8.91-1.52,9.68,2.03c0.74,3.44-4.86,3.95-7.94,5.09
			c-5.67,2.09-11.5,3.75-17.26,5.59c6.38,0.41,12.18-1.59,18.11-3.09c3-0.76,7.36-4.92,8.67-1.91c2.13,4.89-4.07,5.84-7.21,7.93
			c-1.66,1.11-3.66,1.74-5.56,2.44c-2.98,1.11-6.01,2.09-11.14,3.86c9.57-0.43,16.09-3.12,22.6-6.4c0.73,2.08,0.06,3.56-1.14,4.7
			C269.32,322.12,262.82,324.34,256.14,325.91z M283.84,357.41c-0.23,0.65-1.29,1.27-2.04,1.38c-0.54,0.07-1.36-0.64-1.72-1.21
			c-0.16-0.25,0.39-1.37,0.8-1.5c1.57-0.51,1.54-1.96,1.92-3.05c1.66-4.72,3.18-9.49,4.75-14.24
			C287.66,345.37,285.94,351.44,283.84,357.41z M343.18,354.82c4.72-0.38,6.34,0.88,6.08,5.81c-0.83,15.77,3.38,12.89-14.17,13.59
			c-1.1-0.08-2.62-0.2-4.14-0.29c-13.21-0.82-13.07-0.82-12.82-14.11c0.07-3.85,1.22-4.81,5.02-4.64
			C329.81,355.46,336.53,355.35,343.18,354.82z M315.59,327.91c-10.38,0-20.77-0.01-31.15-0.04c-1.65,0-3.3-0.03-4.95-0.06
			c-1.04-0.02-2.17,0.16-3.22,0.01c-0.49-0.07-0.96-0.21-1.4-0.48c-0.95-0.57-1.51-1.63-1.75-2.71c-0.07-0.3-0.11-0.61-0.04-0.9
			c0.12-0.48,0.52-0.83,0.88-1.16c1.79-1.63,3.22-3.65,4.21-5.86c1.06-2.37,1.36-4.9,1.93-7.4c1.33-5.86-1.7-14.13-7.79-14.75
			c-2.98-0.3-8.09,0.44-8.58-0.76c-1.69-4.19-4.39-7.44-6.61-11.05c-5.21-8.47-8.14-18.03-11.61-27.27
			c-0.52-1.39-1.05-2.79-1.57-4.18c5.06-0.3,10.12-0.52,15.18-0.78c5.18-0.27,10.44-0.85,15.62-0.85
			c10.6-0.58,21.19-1.38,31.77-2.17c3.31-0.25,6.61-0.51,9.91-0.83c0.5-0.05,1.01-0.07,1.51,0c0.39,0.06,0.93,0.42,1.28,0.42
			c1.08,0.64,1.6,1.91,1.97,3.04c4.19,12.76,8.69,25.42,13.01,38.14c4.22,12.44,8.35,24.91,13.28,39.64
			C336.84,327.9,326.22,327.91,315.59,327.91z M355.22,328.63c-0.44,0.14-0.88,0.28-1.32,0.42c-6.01-18.38-12.03-36.76-18.04-55.13
			c0.46-0.15,0.91-0.3,1.37-0.44C343.23,291.87,349.23,310.25,355.22,328.63z M372.27,295.37h4.11c-4.7-2.78-8.95-3.34-13.4-2.75
			c-3.1,0.42-7.29,2.09-7.7-2.66c-0.33-3.77,4.03-4.37,6.97-5.13c2.25-0.59,4.72-0.31,7.08-0.56c2.18-0.24,4.33-0.67,8.56-1.35
			c-8.93-1.86-18.25-0.59-22.85,2.22c-1.12,0.69-2.42,2.17-3.74,0.46c-1.28-1.65-1.61-3.4,0.04-5.26c3.76-4.24,8.24-6.34,14.05-6.26
			c9.07,0.12,9.56-0.17,11.86-2.02c-9.8-0.04-19.77-2.68-27.63,5.66c-1.03,1.1-2.6,1.91-4.03,0.4c-1.32-1.39-0.73-2.87,0.24-4.15
			c4.8-6.28,10.26-11.16,19.05-10.44c4.38,0.36,8.91,0.84,14.51-1.28c-11.78-1.49-22.13-2.73-32.12,2.14
			c-1.82,0.89-4.54,1.67-5.68-0.71c-1.13-2.37,1.72-3.03,3.11-4.15c11.12-8.96,23.52-6.41,35.92-3.98c3.74,0.73,5.68,3.09,6.48,6.61
			c1.58,6.93,2.74,13.98,4.79,20.77c2.36,7.84,3.85,15.44-0.6,22.97c-0.72,1.21-1.11,3.07-3.13,2.81
			C380.09,307.72,373.5,304.87,372.27,295.37z M384.48,310.49c3.62,0.81,2.47,2.76,1.7,4.79
			C384.56,313.97,384.66,312.29,384.48,310.49z M395.68,282.33c4.32,1.12,8.15,1.97,8.88,7.51c1.48,11.11,0.51,21.76-4.11,32.01
			c-0.55,1.21-0.58,3.29-2.42,3.09c-1.78-0.19-2.8-1.78-3.37-3.25c1.33-1.15,3.72,1.6,4.08-1.09c0.32-2.36-2.4-1.78-3.82-2.25
			c-2.56-0.84-5.23-1.34-8.39-2.11C394.56,313.04,398.49,297.73,395.68,282.33z M429.98,354.7c-9.4,2.92-18.99,4.97-28.82,5.68
			c-0.89,0.06-2.36-0.35-2.66-0.98c-3.08-6.38-4.72-13.19-4.9-20.45c1.02,2.37,2.57,4.65,2.95,7.12
			c1.69,10.77,8.25,11.88,17.29,9.68c5.56-1.36,11.36-1.76,18.52-2.81C430.71,354.18,430.38,354.58,429.98,354.7z M410.78,321.68
			c0.07-0.71,0.27-1.33,0.63-1.78c0.26-0.33,0.61-0.56,1.06-0.69c0.18-0.05,0.37-0.09,0.58-0.1c1.44-0.08,2.12,0.9,2.08,2.26
			c-0.03,1.4-0.66,2.51-2.19,2.58c-0.18,0.01-0.35,0-0.5-0.03C411.37,323.76,410.92,322.82,410.78,321.68z M418.91,322.77
			c0.01-0.16,0.03-0.32,0.06-0.48c0.17-1.1,0.69-2.01,2.12-2.08c0,0,0,0,0,0c0,0,0,0,0,0c1.37,0.09,1.87,0.92,1.82,2.18
			c-0.06,1.39-0.58,2.53-2.14,2.55C419.46,324.96,418.82,324,418.91,322.77z M426.7,323.47c0.1-1.36,0.64-2.55,2.24-2.52
			c1.42,0.02,1.71,1.12,1.74,1.81c-0.07,1.83-0.62,2.86-2.08,2.87C427.27,325.63,426.61,324.75,426.7,323.47z M444.72,286.38
			c5.15,3.47,9.72,6.55,14.29,9.63c-0.14,0.26-0.28,0.51-0.43,0.77c-5.82-2.77-11.41-7.01-17.51-7.98
			c-10.07-1.61-20.48-1.17-30.76-1.46c-2.42-0.07-3.85-0.75-3.82-3.73c13,2.08,25.86,0.32,38.76-0.66
			c10.94-0.83,23.24,5.7,25.93,13.53C463.37,290.37,455.42,285.63,444.72,286.38z"/>
		<path d="M325.23,49.13C325.23,49.13,325.23,49.13,325.23,49.13C325.23,49.13,325.23,49.13,325.23,49.13
			C325.23,49.13,325.23,49.13,325.23,49.13l0,0.02C325.23,49.14,325.23,49.14,325.23,49.13c0.19,0.15,0.11,0.09,0.01,0.01
			c0.01,0,0.01-0.01,0.02-0.01C325.25,49.12,325.24,49.12,325.23,49.13L325.23,49.13z"/>
		<path d="M325.01,48.95c0.1,0.08,0.16,0.14,0.21,0.19c0,0,0-0.01,0-0.02C325.18,49.09,325.11,49.03,325.01,48.95z"/>
		<path d="M325.29,49.2C325.35,49.26,325.34,49.24,325.29,49.2L325.29,49.2z"/>
		<path d="M345.4,93.23c6.43-1.49,12.85-3.2,19.85,0.41c-4.1-5.84-17.08-7.98-22.42-4.35c-1.02,0.69-0.79,1.58-0.49,2.48
			C342.84,93.31,344.03,93.55,345.4,93.23z"/>
		<path d="M384.91,114.01c2.08-0.85,3.12-2.48,3-4.78c-0.03-0.59,0-1.18,0-1.94c0.67,0,1.37,0,2.67,0
			c-0.97-1.23-1.68-2.13-2.51-3.17c0.76-1.27,1.96-2.96,3.44-2.53c2.03,0.6,1.53,3.08,2.14,5.45c0.77-2.8,1.52-5.03-0.46-6.93
			c-1.19-1.14-2.73-1.05-3.96-0.1c-2.38,1.83-4.94,3.63-4.93,7.13c0,0.98,0.31,1.99,0.17,2.94c-0.21,1.38-2.66,1.96-1.53,3.8
			C383.13,114.23,384.34,114.25,384.91,114.01z"/>
		<path d="M347.09,126.73c1.54-0.18,3.05-0.61,4.73-0.95c0.12-1.46-0.35-2.76-1.89-3.56c-2.18,2.98-15.11,4.12-19.08,1.66
			c-0.74-0.46-1.37-1.26-2.02-0.1c-0.61,1.08,0.34,1.51,1.1,1.86C335.5,128.22,341.31,127.4,347.09,126.73z"/>
		<path d="M350.07,95.78c-2.19,0.11-3.49,1.68-4.45,4.2c1.21-0.5,1.95-0.81,2.79-1.16c0.75,1.41,1.37,3.21,3.64,3.01
			c2.07-0.18,2.06-1.89,2.47-3.46c1.91,0.5,3.74,0.98,7.04,1.83C357.38,96.74,353.91,95.58,350.07,95.78z"/>
		<path d="M342.37,131.37c-3.76-0.22-6.1-0.36-9.24-0.54C336.09,133.6,338.49,132.96,342.37,131.37z"/>
		<path d="M336.24,116.21c1.98,0,3.32,0,5.72,0C339.56,114.62,338.21,114.51,336.24,116.21z"/>
		<path d="M339.96,228.16c1.54-0.04,2.49-1.09,2.42-2.65c-0.06-1.38-0.78-2.39-2.37-2.37c-1.69,0.02-2.29,1.12-2.5,2.59
			C337.8,227.08,338.48,228.2,339.96,228.16z"/>
		<path d="M344.65,197.65c1.4-0.1,2.36-1.01,2.31-2.48c-0.04-1.39-0.82-2.44-2.32-2.45c-1.66-0.01-2.24,1.18-2.45,2.55
			C342.39,196.79,343.16,197.76,344.65,197.65z"/>
		<path d="M268.99,235.48c6.87-0.52,13.62-1.05,20.38-1.53c1.18-0.08,2.14-0.53,2.01-1.73c-0.15-1.31-1.15-2.02-2.56-1.92
			c-7,0.53-14.01,1.07-21.01,1.61c-1.21,0.09-2.18,0.48-2.03,1.99C266.03,236.28,267.87,235.22,268.99,235.48z"/>
		<path d="M321.19,369.61c-0.03,1.62,0.8,1.98,2.16,2.1c6.6,0.59,13.18,0.39,19.77-0.34c1.97-0.22,2.57-1.01,2.47-2.91
			c-0.14-2.54-0.21-5.12,0.03-7.65c0.26-2.67-0.4-3.62-3.33-3.51c-6.92,0.26-13.86,0.08-21.07,0.08
			C321.22,361.35,321.27,365.48,321.19,369.61z"/>
	</g>
	<g>
		<path class="st9" d="M178.04,50.27c0.13-3.37-2.89-2.94-5.47-2.91v5.69C175,53.05,177.91,53.44,178.04,50.27z"/>
		<path class="st9" d="M177.38,40.51c-0.21-2.56-2.73-2.14-4.8-2.16v4.85C174.86,42.82,177.62,43.39,177.38,40.51z"/>
		<path class="st10" d="M103.67,30.13c1.41-0.07,3.1,0.64,3.8-1.54c2.1-6.59,4.31-13.15,6.48-19.75c-5.43-1.05-5.52-0.99-6.68,3.87
			c-0.9,3.75-1.6,7.57-3.3,11.7c-1.61-5.66-2.68-10.74-4.75-15.98c-1.75,0.23-3.39-0.37-5.23,0.63c2.12,6.49,4.29,12.95,6.32,19.44
			C100.91,30.45,102.3,30.2,103.67,30.13z"/>
		<path class="st10" d="M120.46,19.72c1.33,0.76,2.77,1.32,4.16,1.97c1.16,0.54,2.63,1.03,2.25,2.58c-0.29,1.19-1.47,1.95-2.69,1.88
			c-2.01-0.12-3.98-0.34-6.22-0.54c0.03,1.3-0.67,2.37-0.12,3.79c3.05,1.3,6.28,1.36,9.54,0.42c2.63-0.76,4.24-2.51,4.55-5.29
			c0.32-2.9-0.8-5.09-3.42-6.42c-1.47-0.75-3.03-1.33-4.5-2.06c-0.83-0.42-1.78-0.94-1.53-2.09c0.23-1.06,1.2-1.41,2.16-1.58
			c1.88-0.32,3.7,0.29,5.61,0.54c0.34-1.3,1.06-2.39,0.78-3.81c-3.01-1.19-6.03-1.28-9.07-0.45c-2.64,0.72-4.35,2.47-4.69,5.2
			C116.94,16.47,118.24,18.44,120.46,19.72z"/>
		<path class="st10" d="M163.66,158.37c-25.3,0.07-50.61,0.06-75.91,0.05v0.11c-7.62,0.02-15.22-0.01-22.8-0.16
			c-3-0.01-4.55,0.8-5,3.87c-0.69,4.66-1.62,9.29-2.51,14.33h26.35h3.97h83.43c-0.9-5.03-1.83-9.66-2.51-14.33
			C168.21,159.17,166.67,158.36,163.66,158.37z"/>
		<path class="st9" d="M56.76,47.01c-0.62-2.39-1.19-4.63-2.01-7.78c-0.76,3.22-1.3,5.49-1.85,7.81
			C54.3,47.55,55.47,47.66,56.76,47.01z"/>
		<path class="st9" d="M146.88,30.3c-0.04,4.97-2.22,7.27-7.08,7.27c-17.66,0.01-35.31,0-52.97-0.05c-4.46-0.01-6.66-2.3-6.73-6.84
			c-0.05-3.18-0.01-6.36-0.01-9.47c-0.12-0.07-0.24-0.13-0.36-0.19H10.82v125.25h72.96h3.97h130.04V21.02h-70.91
			C146.89,24.01,146.9,27.15,146.88,30.3z M75.35,66.72c5.62,0,11.15,0,16.67,0c1.43,0,1.77,0.91,1.77,2.1c0,18.08,0,36.16,0,54.69
			H75.35V66.72z M70.15,88.74c-0.03,11.47-0.01,22.94-0.01,34.98c-6.12,0-11.88,0.01-17.63-0.01c-1.02,0-1.45-0.73-1.45-1.66
			c-0.01-11.69-0.01-23.39-0.01-35.53c6,0,11.32,0.01,16.65-0.01C69.22,86.51,70.15,86.99,70.15,88.74z M51.52,34.56h7.16
			c2.21,7.34,4.43,14.73,6.71,22.32c-3.44,0.42-6.56,1.28-7.18-3.33c-0.31-2.33-2.28-1.52-3.68-1.62c-1.26-0.09-2.76-0.33-2.98,1.57
			c-0.51,4.5-3.44,4.16-6.99,3.38C46.9,49.39,49.2,42.01,51.52,34.56z M30.99,100.29c3.43,0.68,6.96,0.63,10.39,0
			c3.05-0.56,4.62-0.35,4.61,2.01c-0.03,6.94-0.01,13.88-0.01,21.52c-5.83,0-11.13-0.04-16.42,0.02c-2.13,0.03-2.65-1-2.43-3.41
			c0.53-5.85,0.5-11.72-0.08-17.56C26.8,100.31,27.7,99.64,30.99,100.29z M97.82,132.1c-1.28,0.18-2.59,0.21-3.89,0.22
			c-11.13,0.01-22.26,0.01-33.39,0.01c0-0.03,0-0.06,0-0.08c-11.25,0-22.5,0-33.74,0c-0.95,0-1.9,0.03-2.84-0.09
			c-1.09-0.14-1.68-0.89-1.64-1.97c0.05-1.06,0.62-1.79,1.77-1.82c2.01-0.05,4.02-0.07,6.04-0.07c21.67-0.01,43.33-0.01,65-0.02
			c0.83,0,1.66-0.03,2.48,0.06c1.12,0.13,1.63,0.93,1.63,1.97C99.24,131.2,98.73,131.97,97.82,132.1z M116.03,54.07
			c-0.05,25.43-0.11,50.87-0.21,76.3c0,1.3,0.56,3.21-1.56,3.35c-2.34,0.16-2.07-1.78-2.07-3.28c-0.02-12.78-0.01-25.55-0.01-38.33
			c-0.03,0-0.07,0-0.1,0c0-12.66,0-25.32,0-37.97c0-1.62-0.42-3.7,2.09-3.62C116.39,50.59,116.04,52.59,116.03,54.07z M205.45,130.3
			c-0.04,2.11-1.99,1.95-3.53,1.95c-23.33,0.01-46.66,0.02-69.98,0.02c-1.53,0-3.48,0.17-3.44-2.02c0.04-2.16,1.99-1.93,3.51-1.94
			c11.72-0.01,23.45,0,35.17,0c0,0.01,0,0.03,0,0.04c11.6,0,23.21,0,34.81,0C203.52,128.35,205.49,128.1,205.45,130.3z M196.16,66.8
			c2.53-0.22,3.84,0.07,3.82,2.54c-0.1,17.39-0.13,34.79-0.19,52.18c0,0.56-0.18,1.13-0.32,1.93h-17.7c-0.89-0.74-0.6-1.76-0.6-2.66
			c-0.01-16.8,0.06-33.61-0.04-50.41c-0.02-2.88,0.79-3.9,4-3.62C188.81,67.07,192.49,67.12,196.16,66.8z M166.68,34.92
			c3.57-0.65,7.04-0.92,10.56-0.46c2.58,0.34,4.92,1.2,5.88,3.85c0.99,2.74-0.38,4.78-2.79,6.54c2.79,1.65,4.54,3.84,3.64,7.12
			c-0.9,3.3-3.62,4.45-6.64,5.03c-3.49,0.68-6.99,0.39-10.66,0.08V34.92z M160.69,86.57c3.91,0.46,7.87,0.58,11.78,0.05
			c2.75-0.38,3.73,0.25,3.72,2.43c-0.04,10.77-0.02,21.54,0,32.31c0,1.33-0.22,2.35-1.87,2.34c-5.52-0.01-11.05-0.01-16.93-0.01
			c0-7.97,0-15.51,0-23.05c0-3.79,0.06-7.58-0.06-11.36C157.27,87.18,157.78,86.24,160.69,86.57z M152.48,102.55
			c-0.05,6.26-0.1,12.51-0.1,18.77c0,1.54-0.4,2.44-2.19,2.42c-5.41-0.06-10.82-0.02-16.65-0.02v-23.69
			c5.74,0,11.46-0.03,17.19,0.02C152.37,100.05,152.49,101.28,152.48,102.55z"/>
		<path d="M225.44,147.24c-1.95-0.92-1.72-2.26-1.72-3.76c0.01-16.23,0.04-32.47,0.04-48.7c0.01-24.17,0.01-48.35-0.02-72.52
			c-0.01-5.26-2.28-7.55-7.53-7.76c-1.89-0.08-3.79-0.06-5.69-0.06c-19.43-0.03-38.86-0.05-58.3-0.08c-1.72,0-3.44,0-5.31,0
			c0-2.95,0.04-5.3-0.01-7.65c-0.08-4-2.36-6.65-6.28-6.66c-17.63-0.08-35.26-0.06-52.88,0.05V0.06c-0.17,0.01-0.34,0.02-0.5,0.04
			c-0.22,0-0.43,0-0.65,0c-4.36,0.03-6.48,2.62-6.57,7.11c-0.05,2.3,0.42,4.64-0.34,7.16c-22.45,0.05-44.84-0.03-67.29,0.14
			c-5.25,0.21-7.52,2.5-7.53,7.76c-0.05,40.41-0.02,80.81,0.02,121.22c0,1.5,0.23,2.84-1.72,3.76c-5.88,2.54-2.91,11.81,3.38,11.16
			c12.52-0.04,25.19,0,37.73-0.01c-1.34,6.27-2.61,12.22-3.92,18.35c-9.45,0-18.74,0-28.15-0.01c-1.15,0-2.08,0.93-2.08,2.07
			s0.93,2.07,2.07,2.07h71.57h3.97H216.4c1.14,0,2.07-0.93,2.07-2.07s-0.93-2.07-2.07-2.07c-7.23,0-14.45,0.01-21.68,0.01
			c-2.12,0-4.23,0-6.47,0c-1.31-6.13-2.58-12.08-3.92-18.35h6.44c10.43,0,20.85-0.02,31.28,0.01c3.29,0.01,5.5-1.53,6.35-4.61
			C229.19,150.94,228.03,148.46,225.44,147.24z M117.27,13.86c0.34-2.73,2.05-4.48,4.69-5.2c3.04-0.83,6.06-0.74,9.07,0.45
			c0.28,1.42-0.44,2.51-0.78,3.81c-1.91-0.25-3.74-0.85-5.61-0.54c-0.96,0.16-1.93,0.52-2.16,1.58c-0.25,1.15,0.7,1.67,1.53,2.09
			c1.48,0.74,3.03,1.32,4.5,2.06c2.61,1.33,3.74,3.52,3.42,6.42c-0.31,2.78-1.93,4.53-4.55,5.29c-3.26,0.94-6.49,0.88-9.54-0.42
			c-0.55-1.42,0.16-2.49,0.12-3.79c2.25,0.2,4.22,0.43,6.22,0.54c1.22,0.07,2.39-0.69,2.69-1.88c0.39-1.55-1.09-2.05-2.25-2.58
			c-1.39-0.65-2.83-1.21-4.16-1.97C118.24,18.44,116.94,16.47,117.27,13.86z M99.21,8.43c2.07,5.24,3.14,10.32,4.75,15.98
			c1.7-4.14,2.4-7.95,3.3-11.7c1.16-4.86,1.26-4.91,6.68-3.87c-2.17,6.6-4.38,13.16-6.48,19.75c-0.69,2.17-2.39,1.46-3.8,1.54
			c-1.37,0.07-2.76,0.32-3.37-1.63c-2.03-6.5-4.2-12.95-6.32-19.44C95.82,8.06,97.46,8.66,99.21,8.43z M87.75,176.56h-3.97H57.43
			c0.9-5.03,1.83-9.66,2.51-14.33c0.45-3.06,2-3.87,5-3.87c7.58,0.15,15.18,0.18,22.8,0.16v-0.11c25.3,0.01,50.61,0.02,75.91-0.05
			c3-0.01,4.55,0.8,5,3.86c0.69,4.66,1.62,9.29,2.51,14.33H87.75z M217.79,146.27H87.75h-3.97H10.82V21.02h68.92
			c0.12,0.06,0.24,0.12,0.36,0.19c0,3.11-0.04,6.29,0.01,9.47c0.07,4.55,2.27,6.83,6.73,6.84c17.66,0.05,35.31,0.06,52.97,0.05
			c4.86,0,7.04-2.3,7.08-7.27c0.02-3.14,0-6.28,0-9.28h70.91V146.27z"/>
		<path d="M181.14,70.38c0.1,16.8,0.03,33.61,0.04,50.41c0,0.9-0.29,1.91,0.6,2.66h17.7c0.14-0.8,0.32-1.37,0.32-1.93
			c0.06-17.39,0.09-34.79,0.19-52.18c0.01-2.46-1.3-2.76-3.82-2.54c-3.67,0.32-7.35,0.27-11.02-0.04
			C181.93,66.48,181.12,67.5,181.14,70.38z"/>
		<path d="M93.79,68.83c0-1.2-0.34-2.1-1.77-2.1c-5.52,0-11.05,0-16.67,0v56.79h18.44C93.79,104.98,93.79,86.91,93.79,68.83z"/>
		<path d="M51.04,86.53c0,12.15,0,23.84,0.01,35.53c0,0.93,0.43,1.65,1.45,1.66c5.75,0.02,11.51,0.01,17.63,0.01
			c0-12.04-0.01-23.51,0.01-34.98c0-1.76-0.93-2.23-2.46-2.22C62.36,86.54,57.04,86.53,51.04,86.53z"/>
		<path d="M157.39,100.65c0,7.54,0,15.08,0,23.05c5.88,0,11.41-0.01,16.93,0.01c1.65,0,1.88-1.01,1.87-2.34
			c-0.02-10.77-0.04-21.54,0-32.31c0.01-2.18-0.97-2.8-3.72-2.43c-3.9,0.53-7.86,0.41-11.78-0.05c-2.91-0.34-3.43,0.61-3.36,2.71
			C157.44,93.07,157.38,96.86,157.39,100.65z"/>
		<path d="M133.55,100.02v23.69c5.83,0,11.24-0.04,16.65,0.02c1.78,0.02,2.19-0.88,2.19-2.42c0-6.26,0.06-12.51,0.1-18.77
			c0.01-1.27-0.11-2.5-1.75-2.51C145.01,100,139.28,100.02,133.55,100.02z"/>
		<path d="M27.12,120.43c-0.22,2.41,0.3,3.44,2.43,3.41c5.3-0.07,10.6-0.02,16.42-0.02c0-7.64-0.02-14.58,0.01-21.52
			c0.01-2.36-1.56-2.57-4.61-2.01c-3.44,0.63-6.97,0.69-10.39,0c-3.29-0.66-4.19,0.01-3.94,2.58
			C27.62,108.71,27.65,114.59,27.12,120.43z"/>
		<path d="M114.17,50.52c-2.5-0.08-2.09,2-2.09,3.62c0,12.66,0,25.32,0,37.97c0.03,0,0.07,0,0.1,0c0,12.78-0.01,25.55,0.01,38.33
			c0,1.5-0.27,3.45,2.07,3.28c2.12-0.15,1.56-2.06,1.56-3.35c0.1-25.43,0.16-50.87,0.21-76.3
			C116.04,52.59,116.39,50.59,114.17,50.52z"/>
		<path d="M177.35,57c3.02-0.59,5.73-1.73,6.64-5.03c0.9-3.28-0.85-5.47-3.64-7.12c2.41-1.76,3.78-3.79,2.79-6.54
			c-0.96-2.64-3.3-3.51-5.88-3.85c-3.52-0.46-7-0.19-10.56,0.46v22.16C170.36,57.38,173.86,57.67,177.35,57z M172.58,38.35
			c2.07,0.02,4.59-0.4,4.8,2.16c0.24,2.87-2.52,2.31-4.8,2.69V38.35z M172.57,47.36c2.59-0.04,5.61-0.46,5.47,2.91
			c-0.13,3.17-3.04,2.79-5.47,2.78V47.36z"/>
		<path d="M51.56,53.5c0.21-1.9,1.71-1.67,2.98-1.57c1.39,0.1,3.36-0.71,3.68,1.62c0.62,4.61,3.74,3.75,7.18,3.33
			c-2.28-7.6-4.51-14.99-6.71-22.32h-7.16c-2.32,7.45-4.62,14.82-6.95,22.32C48.13,57.66,51.06,58,51.56,53.5z M54.75,39.23
			c0.81,3.15,1.39,5.39,2.01,7.78c-1.29,0.65-2.46,0.54-3.86,0.03C53.45,44.72,53.99,42.45,54.75,39.23z"/>
		<path d="M167.18,128.31c-11.72,0-23.45,0-35.17,0c-1.53,0-3.47-0.22-3.51,1.94c-0.04,2.18,1.91,2.02,3.44,2.02
			c23.33,0,46.66-0.01,69.98-0.02c1.55,0,3.49,0.16,3.53-1.95c0.04-2.19-1.93-1.94-3.46-1.94c-11.6,0-23.21,0-34.81,0
			C167.18,128.34,167.18,128.32,167.18,128.31z"/>
		<path d="M97.62,128.34c-0.82-0.09-1.65-0.06-2.48-0.06c-21.67,0-43.33,0.01-65,0.02c-2.01,0-4.03,0.02-6.04,0.07
			c-1.15,0.03-1.72,0.76-1.77,1.82c-0.05,1.08,0.55,1.83,1.64,1.97c0.93,0.12,1.89,0.09,2.84,0.09c11.25,0,22.5,0,33.74,0
			c0,0.03,0,0.06,0,0.08c11.13,0,22.26,0.01,33.39-0.01c1.3,0,2.61-0.03,3.89-0.22c0.91-0.13,1.42-0.9,1.42-1.79
			C99.25,129.27,98.74,128.47,97.62,128.34z"/>
	</g>
</g>
</svg>
