<?xml version="1.0" encoding="utf-8"?>
<!-- Generator: Adobe Illustrator 25.0.0, SVG Export Plug-In . SVG Version: 6.00 Build 0)  -->
<svg version="1.1" id="Layer_1" xmlns="http://www.w3.org/2000/svg" xmlns:xlink="http://www.w3.org/1999/xlink" x="0px" y="0px"
	 viewBox="0 0 564.27 478" style="enable-background:new 0 0 564.27 478;" xml:space="preserve">
<style type="text/css">
	.st0{fill:#185AE9;}
	.st1{fill:#00B0FB;}
	.st2{fill-rule:evenodd;clip-rule:evenodd;fill:#00B0FB;}
	.st3{fill:#00B0FB;fill-opacity:0.4;}
	.st4{fill:#FFFFFF;}
	.st5{fill:none;}
	.st6{fill:#001135;}
	.st7{fill:#3C7CFF;}
	.st8{fill:#3C7CFF;stroke:#001135;stroke-width:0.7602;stroke-miterlimit:10;}
	.st9{fill:#FCFCFC;}
	.st10{fill:#DBDBDB;}
	.st11{fill:#FEFEFE;}
	.st12{fill:#FDFDFD;}
	.st13{fill:#FBFBFB;}
	.st14{fill:#F6F6F6;}
	.st15{fill:#F4F4F4;}
	.st16{fill:#F1F1F1;}
	.st17{fill:#F6F5F6;}
	.st18{fill:#FAFAFA;}
	.st19{fill:#EBEBEB;}
	.st20{fill:#E5E5E5;}
	.st21{fill:#7E7E7E;}
	.st22{fill:#939393;}
	.st23{fill:#787878;}
	.st24{fill:#090909;}
	.st25{fill:#040404;}
</style>
<g>
	<path d="M347.06,460.92c-0.17-5.26-1.86-10.17-3.9-14.98c-5.48-12.72-13.33-23.95-21.76-34.8c-4.88-6.28-9.96-12.38-15.2-18.33
		c-1.52-1.73-3.06-3.45-4.61-5.15c-2.36-2.61-4.77-5.19-7.2-7.74c-1.74-1.83-3.49-3.65-5.26-5.45
		c-6.01-6.14-12.18-12.14-18.46-18.02c-0.89-0.84-1.79-1.67-2.7-2.51c-0.68-0.64-1.37-1.28-2.06-1.91
		c-4.12-3.8-8.29-7.56-12.48-11.27c-0.26-0.24-0.52-0.47-0.79-0.7c-4.23-3.75-8.5-7.46-12.81-11.12c-0.59-0.5-1.19-1.01-1.79-1.51
		c-0.57-0.49-1.15-0.98-1.74-1.46c-0.17-0.15-0.35-0.29-0.52-0.43c-10.51-8.84-21.23-17.43-32.15-25.73
		c-1.07-0.81-2.14-1.62-3.22-2.44c-0.15-0.11-0.3-0.23-0.45-0.34c-3.47-2.62-6.97-5.2-10.48-7.77c-3.23-2.35-6.47-4.68-9.73-6.97
		c-1.17-0.84-2.35-1.67-3.53-2.49c-11.53-8.07-23.28-15.85-35.24-23.33c-1.83-1.15-3.67-2.29-5.51-3.42
		c-1.12-0.69-2.24-1.38-3.36-2.06c-5.73-3.49-11.51-6.91-17.35-10.22c-1.54-0.88-3.09-1.75-4.65-2.61
		c-14.94-8.3-30.27-15.85-46.2-22.2c-13.97-5.54-28.14-10.4-43.57-11.02c-2.2,0.23-4.58,0.17-6.9,0.51
		C4.63,206.86-0.12,212.4,0,221.27c0.04,4.81,1.36,9.27,3.11,13.67c4.57,11.59,11.35,21.88,18.7,31.77
		c9.17,12.33,19.13,23.93,29.64,35.03c1.43,1.52,2.88,3.02,4.33,4.52c1,1.04,2.02,2.07,3.03,3.1c0.97,1,1.95,1.98,2.93,2.96
		c1.76,1.76,3.53,3.5,5.31,5.25c0.03,0.03,0.07,0.07,0.11,0.1c0.94,0.93,1.9,1.85,2.85,2.76c0.2,0.2,0.4,0.39,0.6,0.57
		c0,0.03,0.01,0.03,0.01,0.03c0.12,0.11,0.23,0.22,0.35,0.33c2.87,2.77,5.78,5.52,8.71,8.24c1.03,0.96,2.07,1.91,3.1,2.86
		c0.71,0.67,1.43,1.33,2.15,1.99c0.7,0.64,1.41,1.28,2.12,1.92c0.53,0.48,1.06,0.98,1.61,1.46c0.56,0.51,1.12,1.01,1.68,1.5
		c2.26,2.05,4.54,4.07,6.83,6.08c0.28,0.23,0.55,0.48,0.82,0.71c0.1,0.09,0.19,0.18,0.29,0.26c0.58,0.5,1.15,1,1.73,1.5
		c0.27,0.24,0.54,0.48,0.8,0.69c2.78,2.42,5.57,4.81,8.38,7.17c1.14,0.97,2.27,1.92,3.41,2.87c1.06,0.89,2.12,1.76,3.19,2.64
		c2.21,1.83,4.45,3.66,6.69,5.47c0.01,0,0.01,0,0.01,0.01c2.18,1.76,4.36,3.51,6.55,5.24c0.2,0.16,0.41,0.32,0.61,0.48
		c0.93,0.74,1.86,1.48,2.8,2.21c0.92,0.72,1.84,1.43,2.76,2.14c1.2,0.95,2.41,1.88,3.63,2.81c3.76,2.89,7.54,5.76,11.35,8.58
		c0.81,0.61,1.62,1.22,2.43,1.82c1.77,1.31,3.54,2.61,5.32,3.9c1.03,0.75,2.06,1.49,3.09,2.23c2.56,1.87,5.15,3.71,7.74,5.54
		c0.05,0.03,0.09,0.07,0.14,0.1c0.15,0.11,0.29,0.2,0.44,0.31c0.84,0.59,1.66,1.17,2.51,1.75c0.16,0.11,0.32,0.22,0.48,0.33
		c0.09,0.07,0.19,0.14,0.29,0.2c3.62,2.55,7.25,5.05,10.92,7.52c2.47,1.69,4.95,3.35,7.44,4.99c1,0.67,2,1.34,3.02,1.98
		c0.26,0.17,0.5,0.33,0.76,0.5c0.89,0.59,1.78,1.17,2.68,1.76c1.06,0.67,2.11,1.36,3.17,2.04c4.61,2.94,9.26,5.84,13.95,8.67
		c1.07,0.66,2.14,1.3,3.21,1.94c0.8,0.48,1.59,0.95,2.38,1.42c1.06,0.63,2.13,1.26,3.2,1.89c6.44,3.76,12.94,7.41,19.54,10.93
		c3.81,2.03,7.64,4.02,11.5,5.95c0.98,0.51,1.96,0.99,2.94,1.49c3.01,1.49,6.03,2.95,9.06,4.37v0.01c1.34,0.62,2.67,1.24,4.01,1.84
		c2.28,1.04,4.58,2.05,6.89,3.03c9.41,3.99,19.04,7.48,29.02,10.12c8.64,2.26,17.35,3.95,26.38,2.82
		C342.37,476.4,347.4,470.64,347.06,460.92z"/>
	<g>
		<path class="st12" d="M123.84,73.04c-0.02,0.02-0.03,0.04-0.05,0.06C123.81,73.08,123.83,73.06,123.84,73.04L123.84,73.04z"/>
		<path class="st10" d="M352.45,197.66c-27.15,6.62-53.56,12.88-80.6,15.83c-27.23,2.97-54.47,1.37-81.9-0.01
			c-2.76,12.37-5.5,24.65-8.29,37.11c2.57,0.48,4.71,1.49,6.74,2.75c0.02,0.05,0.04,0.1,0.06,0.14c0.4,0.25,0.79,0.5,1.19,0.78
			c3.73,2.62,8.02,5.87,11.62,10.1c0.87,1.02,1.05,2.45,0.47,3.65c-0.86,1.79-1.96,2.73-2.99,3.21c0.55,0.52,1.09,1.05,1.64,1.59
			c1.25,1.22,1.84,2.75,1.67,4.32c-0.16,1.46-0.92,2.76-2.29,3.88c0.65,0.76,0.93,1.77,0.76,2.76c-0.52,2.99-2.31,4.13-4,4.85
			c-0.09,0.04-0.18,0.07-0.27,0.1c-0.16,0.8-0.61,1.52-1.28,2.02c-2,1.51-4.3,2.27-6.83,2.27c-1.79,0-3.46-0.36-5.15-0.77
			c-3.14-0.75-5.77-1.25-8.34-1.28c-0.48,0.06-0.96,0.15-1.45,0.29c-1.98,9.18-3.96,18.34-5.97,27.62c0.57,0.09,1.03,0.19,1.49,0.23
			c19.05,1.61,38.12,2.45,57.24,2.28c9.03-0.08,18.08-0.02,27.04-1.16c16.87-2.15,33.54-5.42,50.1-9.28c8.2-1.92,16.37-3.98,24.63-6
			c2.04-9.3,4.03-18.35,6.03-27.47c-1.93-0.58-3.83-1.46-5.63-2.83c-1.12-0.85-1.6-2.3-1.2-3.65l0.39-1.3
			c-1.58-0.68-3.14-2.01-3.63-4.7c-0.11-0.62-0.05-1.26,0.18-1.85c0.39-0.99,0.93-1.72,1.53-2.26c-1.39-1.72-1.38-3.58-1.05-4.97
			c0.09-0.38,0.25-0.74,0.46-1.06c1.01-1.54,2.36-2.35,3.67-2.84c-0.78-1.17-1.17-2.79-0.59-5c0.23-0.89,0.82-1.65,1.63-2.09
			c3.89-2.16,7.87-3.69,11.89-4.62c0.32-0.11,0.64-0.22,0.96-0.34C345.68,226.2,348.97,212.34,352.45,197.66z M267.05,265.99
			l-0.15-0.02c0.05-0.01,0.11-0.02,0.16-0.03L267.05,265.99z"/>
		<path d="M264.9,209.2c-0.65-1.7-1.27-3.3-1.86-4.9c-2.76-7.69-5.79-15.25-9.97-22.31c-2.55-4.31-6.06-7.18-10.87-8.6
			c-6.92-2.04-13.74-4.4-20.37-7.26c-2.99-1.29-6.27-2.17-8.22-5.29c-2.93-4.68-6.3-9.02-11.55-11.69c5.2-0.5,8.21-3.84,10.93-7.6
			c2.23-3.08,4.55-6.09,6.7-9.23c5.88-8.59,9.12-17.95,7.54-28.49c-1.16-7.77-0.08-15.31,1.54-22.87c1.24-5.8,0.97-11.55-1.49-17.05
			c-1.37-3.08-2.89-6-2.61-9.67c0.19-2.41-1.29-4.72-2.78-6.74c-2.16-2.95-4.88-5.29-7.99-7.21c-13.99-8.71-29.12-11.1-45.17-7.99
			c-10.81,2.09-20.83,5.82-28.51,14.29c-3.29,3.62-5.62,7.79-7.54,12.25c-4.18-0.18-8.16,0.03-11.99,1.33
			c-11.11,3.76-18.64,14.61-19.09,27.17c-0.28,7.91,1.51,15.45,3.58,22.98c1.59,5.76,3.25,11.58,2.08,17.66
			c-0.88,4.57-2.69,8.51-7.57,10.2c-2.22,0.77-4.28-0.18-6.63-0.52c2.82,4.55,6.78,6.18,11.59,5.64
			c7.23-0.82,10.61-5.85,12.83-12.14c0.34,4.36-0.83,8.24-3.48,11.62c-2.72,3.49-6.48,4.92-11.63,4.79
			c8.32,5.32,16.43,6.11,24.54,2.41c12.29-5.62,15.39-16.53,15.37-29.57c1.88,6.57,1.18,12.38-0.7,18.17
			c5.59-5.55,6.35-12.5,5.53-20.08c2.56,1.31,4.85,2.2,5.65,4.72c1.99,6.33,1.37,12.68,0.41,18.98c-5.1,1.04-5.89,1.16-8.07,5.83
			c-4.15,8.93-10.84,14.14-20.35,16.5c-6.61,1.63-13.15,3.79-19.31,6.78c-6.31,3.05-12.12,6.73-15.35,13.41
			c-4.73,9.74-7.18,20.19-9.59,30.64c-0.68,2.9-1.32,5.82-1.96,8.72c-2.15,9.79-4.32,19.58-7.53,29.1c-1.69,5-2.63,10.53-7.28,14.11
			c-0.62,0.47-0.97,1.43-1.2,2.23c-2.14,7.24-3.61,14.64-2.97,22.2c0.68,7.88,1.83,15.78,10.96,18.55c0.3,0.64,0.56,1.06,0.7,1.51
			c1.25,4.32,4.07,6.01,8.59,6.36c10.55,0.83,20.89-0.33,31.18-2.27c8.19-1.54,16.19-3.93,24.13-6.47c1.02,1.73,0.5,3.24-0.17,4.74
			c-3.06,6.96-5.91,13.99-7.91,21.34c-0.59,2.13-1.3,4.34-1.04,6.48c0.67,0.62,1.33,1.22,1.93,1.68c1.45,1.12,2.96,1.96,4.54,2.44
			c0.16,0.05,0.32,0.11,0.48,0.17c0.06-0.06,0.11-0.12,0.18-0.17c5.27,1.77,10.49,3.48,15.68,5.27c7.69,2.65,15.39,5.25,23.14,7.7
			h33.97c1.49-2.49,2.9-5.02,4.16-7.64c1.53-3.14,3.04-6.28,4.64-9.6c3.57,5.72,6.5,11.67,10.01,17.24h15.53
			c6.26-4.36,12.21-9.02,18.81-12.7c0.06-0.03,0.1-0.06,0.16-0.09c0.14-7.61-2.78-14.29-5.02-21.33
			c26.39-3.53,52.1-9.26,77.61-16.13c1.77-7.93,3.48-15.61,5.19-23.3l1.33-7.09c-1.51-0.17-3.03-0.43-4.54-0.89
			c-2,9.12-3.99,18.17-6.03,27.47c-8.26,2.02-16.43,4.09-24.63,6c-16.55,3.86-33.23,7.13-50.1,9.28
			c-8.96,1.14-18.01,1.08-27.04,1.16c-19.12,0.16-38.19-0.67-57.24-2.28c-0.46-0.04-0.92-0.14-1.49-0.23
			c2-9.27,3.98-18.44,5.97-27.62c0.49-0.14,0.97-0.22,1.45-0.29c-0.06,0-0.12-0.01-0.18-0.01c-1.24,0-2.38,0.11-3.51,0.35
			c-1.27,0.27-1.42,0.54-1.6,0.86c-3.53,6.45-6.58,11.02-13.64,11.02c0,0,0,0,0,0c-1.32,0-2.83-0.15-4.82-0.47
			c-21.57,7.52-41.99,14.54-63.87,14.54c-3.15,0-6.3-0.15-9.37-0.45c-0.51-0.05-1.01-0.22-1.45-0.49c-2.6-1.6-3.39-3.64-3.76-5.03
			c-3.71-13.93-1.51-20.91,9.07-28.72c5.61-4.14,12.41-6.16,20.8-6.16c1.34,0,2.76,0.05,4.23,0.15c6.4,0.43,12.28,0.64,17.98,0.64
			c6.71,0,12.94-0.29,19.06-0.89c0.31-0.03,0.62-0.04,0.93-0.04c0.2,0,0.99,0.02,1.2,0.02c0.31,0,0.61,0.04,0.89,0.12
			c3.41-6.21,6.89-12.59,10.22-18.91c2.2-4.18,5.41-6.21,9.84-6.21c0.01,0,0.5,0,0.5,0c3.05,0,6.21-0.31,9.17-0.64
			c0.71-0.08,1.43-0.12,2.13-0.12c3.5,0,6.77,0.97,9.96,2.95c-0.02-0.05-0.04-0.1-0.06-0.14c-2.03-1.26-4.17-2.27-6.74-2.75
			c2.78-12.46,5.52-24.75,8.29-37.11c27.43,1.38,54.67,2.98,81.9,0.01c27.03-2.95,53.45-9.21,80.6-15.83
			c-3.49,14.68-6.78,28.54-10.05,42.32c-0.33,0.11-0.64,0.22-0.96,0.34c2-0.46,4.01-0.78,6.03-0.93l0.1-0.65
			c3.73-15.49,7.42-30.8,11.24-46.7C327.04,197.76,296.67,207.2,264.9,209.2z M123.87,73.07c-0.03,0.01-0.05,0.02-0.08,0.03
			c-1.3,1.51-2.6,3.02-3.9,4.53c-4.39,7.55-3.77,15.66-2.59,23.8c0.68,4.66,2.27,9.11,3.57,13.63c-7.1-13.24-9.5-26.8-1.51-37.95
			c1.1-1.76,2.33-3.38,4.44-4c0.02-0.02,0.03-0.04,0.05-0.06h0c0.03-0.05,0.07-0.1,0.1-0.15C123.92,72.95,123.9,73.01,123.87,73.07z
			 M107.66,101.3c-2.05-7.6-1.99-14.23,0.19-21.04c2.91-9.1,11.19-15.72,20.18-15.67C112.27,69.68,106.07,82.97,107.66,101.3z
			 M132.25,63.26c-0.79,7.72-0.95,15.43,0.63,23.1C129.82,78.76,129.29,71.07,132.25,63.26z M210.32,326.05h6.24
			c1.86,2.45,1.8,4.05-0.1,5.76c-1.78,1.61-4.46,1.62-6.19,0.03C208.47,330.2,208.46,328.46,210.32,326.05z M139.72,308.26
			c7.06,3.03,14.04,5.54,20.08,9.99c-6.99-1.39-13.22-4.99-20.57-6.09C139.39,310.85,139.53,309.75,139.72,308.26z M116.25,275.58
			c-4.4,0-8.65,0.01-12.9,0c-14.22-0.05-25.36,5.46-32.57,18.05c-0.09,0.15-0.27,0.24-0.55,0.47c-0.79-2.51,0.1-4.88,0.25-7.33
			c-2.93,4.39-4.08,9.83-0.41,18c-2.63-0.24-3.5-2.2-4.24-4.04c-2.52-6.26-2.57-12.78-1.68-19.34c0.35-2.62,1-5.21,1.45-7.82
			c0.46-2.66,1.88-4.65,4.38-5.52c13.33-4.62,26.68-6.87,39.93,0.3c2.25,1.22,4.41,2.59,6.47,4.58
			C116.33,273.85,116.29,274.68,116.25,275.58z M120.58,276.05c0.11-5.22,0.27-10.35,1.93-15.53c1.98,5.1,3.95,10.2,6.02,15.53
			H120.58z M134.09,234.77c-0.89,6.58-3.54,12.31-8.85,17.63c1.69-5.45,3.16-10.13,4.59-14.82c0.56-1.82,0.86-3.67,0.34-5.59
			c-2.54-9.23-4.73-18.58-8.46-27.45c-3.62-8.61-9.19-15.6-17.04-20.7c-0.21,0.18-0.41,0.37-0.62,0.55c0.75,0.6,1.51,1.19,2.24,1.81
			c7.33,6.19,12.17,14,14.81,23.18c2.15,7.47,4.23,14.97,6.36,22.45c0.37,1.3,0.65,2.53-0.06,3.84c-3.39,6.28-5.75,12.99-8.17,19.68
			c-0.16,0.43-0.41,0.82-0.87,1.72c-2.41-9.61-7.36-17.36-13.28-24.59c4.9,10.96,8.86,22.16,10.84,34.64
			c-6.67-4.43-13.44-7.15-20.98-7.49c-7.48-0.34-14.71,1.31-22.33,3.1c0.98-2.91,1.87-5.52,2.73-8.15
			c4.69-14.27,7.36-29.04,10.88-43.6c1.52-6.27,3.4-12.44,5.43-18.57c2.61-7.91,7.93-13.24,15.36-16.65c2.58-1.19,5.19-2.3,8.11-3
			c4.91,3.57,8.1,8.49,10.76,13.76c4.81,9.53,7.15,19.76,8.25,30.32C134.77,222.83,134.9,228.81,134.09,234.77z M199.21,40.49
			c4.13,2.26,7.83,5.01,10.25,9.17c1.32,2.27,1.92,4.7,1.52,8.21c-1.52-8.19-6.48-12.87-12.3-16.88c-1.01-0.48-2.03-0.94-2.96-2.17
			C197.2,39.24,198.29,39.67,199.21,40.49z M204.4,54.67c0.27,0.55,0.74,1.06,0.51,1.75c0.01,0.01,0.02,0.02,0.03,0.04l0,0
			c0,0.02,0.01,0.04,0.01,0.06c0.65,0.05,0.47,0.45,0.18,1.09c-0.08-0.5-0.13-0.8-0.18-1.09c-0.02,0-0.04-0.01-0.07-0.01
			c0.01-0.03,0.02-0.06,0.03-0.09c-3.23-4.02-6.42-8.04-10.73-11.04c-3.65-2.54-7.73-4.22-11.55-6.38
			C191.87,41.42,199.89,45.6,204.4,54.67z M183.61,48.76c4.54,1.66,9.01,3.52,13.13,6.07c0.67,0.42,2.07,0.48,1.69,1.9
			c0,0,0.01,0,0.01,0.01l-0.03,0.07c0,0,0.03-0.07,0.04-0.08c0.01,0,0.02,0,0.02,0c0.26-0.41,0.56-0.35,1.08,0.24
			c-0.52-0.12-0.8-0.19-1.08-0.24c-0.02,0.03-0.04,0.04-0.06,0.08c0.01-0.03,0.01-0.05,0.01-0.08c-7.57-3.57-15.49-6.1-23.61-8.03
			c-8.15-1.94-16.47-2.43-24.81-2.61C161.42,44.27,172.66,44.77,183.61,48.76z M146.11,113.57c-4.49-4.26-7.61-9.23-7.35-15.74
			c0.16-3.93,1.81-6.75,4.48-7.61c2.6-0.84,5.72,0.5,8.06,3.62c0.79,1.05,1.38,2.26,1.94,3.46c0.52,1.11,0.71,2.37,1.66,3.45
			c1.56,0.67,3.32,0.85,5.24,0.77c0.29-4.68-0.23-9.36,1.04-14c5.6-4.41,10.65-9.3,12.62-16.75c-16.6,7.75-19.29,8.57-27.59,8.15
			c10.67-1.63,20.65-4.9,28.99-12.01c0.56,0.52-0.02,0.91,0.01,1.32c0.03,0.35,0.07,0.7,0.1,1.1c1.38-0.25,2.09-1.23,2.8-2.04
			c6.04-6.96,13.74-8.47,22.28-6.52c4.01,0.92,7.81,0.98,11.78-0.06c3.88-1.02,5.52-0.19,7.53,3.27c3.38,5.79,4.89,12.05,4.68,18.85
			c-4.28-1.43-7.87,0.27-11.47,1.71c-1.48,0.59-1.89,1.98-1.52,3.77c4.41,1.05,8.12-4.05,12.76-1.7c0.31,2.7,0.09,5.17-1,7.9
			c-1.88-2.54-4.05-4-7.09-2.89c-2.79,1.01-4.86,2.73-5.62,5.87c1.39,0.07,1.72-1.39,2.93-1.42c0,0.65-0.07,1.29,0.01,1.91
			c0.25,1.97,1.16,3.42,3.3,3.71c2.1,0.29,3.38-0.78,4.26-2.59c0.44-0.91,0.11-2.8,2.09-2.03c3.12,13.17,0.52,25.04-7.94,35.6
			c-1.54,1.93-3,3.93-4.47,5.91c-5.09,6.89-9.83,8.53-18.03,6.06c-8.44-2.54-16.15-6.58-23.32-11.68
			c-4.02-2.86-6.37-6.96-8.43-11.28c-0.97-2.04-1.97-4.06-3.1-6.38C153.04,119.31,149.46,116.75,146.11,113.57z M177.18,167.47
			c-5.61-3.57-11.22-7.16-16.21-11.58c-1.84-1.63-3.53-3.43-5.49-5.36c2.73-8.37,2.84-17.07,2.53-26.17
			c10.38,14.94,22.47,27.31,39.3,34.29c0.39,3.36-0.36,6.83,0.8,10.21c1.03-0.74,0.6-2.04,1.77-3.19
			c3.71,11.68,0.52,22.45-2.6,33.82c-5.3-6.64-10.47-12.8-17.01-17.87c0-2.74-0.11-5.49,0.03-8.23
			C180.44,170.71,179.41,168.88,177.18,167.47z M155.47,188.1c-4.63-9.37-9.47-18.29-13.09-28.1c3.98-4.36,5.07-10.88,10.4-14.2
			c0.25,0.18,0.49,0.36,0.74,0.54c-0.71,0.87-1.43,1.73-2.41,2.93c5.88,8.57,14.43,14.16,22.71,19.85
			C166.12,173.81,161.98,181.89,155.47,188.1z M186.38,208.26c-0.67,2.68-1.3,5.21-2.04,8.15c-7.96-10.34-14.77-20.92-21.41-31.82
			c4.15-4.69,7.45-10.08,13.29-13.71c1.47,4.2,0.17,8.18,0.8,12.37c8.36,7.42,16.5,15.45,22.85,25.81
			C195.07,208.77,190.82,208.52,186.38,208.26z M214.08,209.44h-10.21c-1.31-2.23-2.59-4.42-4.06-6.94c3.29-8.89,3.34-19.04,9.69-28
			C212.01,186.55,214.89,197.71,214.08,209.44z M209.9,170.84c-2.45,1.12-3.52,3.37-5.51,4.99c2.21-8.14-2.86-15.06-3.37-22.85
			c9.76,7.56,14.41,19,21.94,28.25C217.92,178.64,213.74,175.06,209.9,170.84z M249.81,209.66c-3.98-10.99-7.44-22.44-13.12-33.51
			c5.16,1.26,9.55,2.55,12.39,7.22c4.92,8.11,7.83,17.02,11.32,26.28H249.81z"/>
		<path class="st12" d="M160.86,121.65c2.06,4.33,4.41,8.42,8.43,11.28c7.17,5.11,14.87,9.15,23.32,11.68
			c8.21,2.46,12.94,0.83,18.03-6.06c1.47-1.99,2.92-3.98,4.47-5.91c8.46-10.56,11.05-22.42,7.94-35.6
			c-1.98-0.77-1.65,1.12-2.09,2.03c-0.88,1.81-2.16,2.88-4.26,2.59c-2.14-0.29-3.04-1.74-3.3-3.71c-0.08-0.62-0.01-1.26-0.01-1.91
			c-1.21,0.03-1.54,1.48-2.93,1.42c0.76-3.14,2.83-4.86,5.62-5.87c3.04-1.1,5.2,0.35,7.09,2.89c1.08-2.73,1.3-5.2,1-7.9
			c-4.64-2.35-8.35,2.75-12.76,1.7c-0.37-1.79,0.04-3.18,1.52-3.77c3.59-1.43,7.19-3.13,11.47-1.71c0.21-6.81-1.31-13.06-4.68-18.85
			c-2.02-3.45-3.65-4.29-7.53-3.27c-3.97,1.04-7.77,0.98-11.78,0.06c-8.54-1.95-16.23-0.44-22.28,6.52c-0.71,0.82-1.42,1.8-2.8,2.04
			c-0.04-0.39-0.08-0.74-0.1-1.1c-0.03-0.41,0.55-0.8-0.01-1.32c-8.34,7.11-18.32,10.38-28.99,12.01c8.3,0.42,10.99-0.4,27.59-8.15
			c-1.97,7.46-7.02,12.35-12.62,16.75c-1.27,4.63-0.75,9.32-1.04,14c-1.92,0.08-3.68-0.11-5.24-0.77c-0.95-1.08-1.13-2.34-1.66-3.45
			c-0.56-1.19-1.15-2.41-1.94-3.46c-2.34-3.11-5.46-4.45-8.06-3.62c-2.66,0.86-4.32,3.68-4.48,7.61
			c-0.26,6.51,2.86,11.48,7.35,15.74c3.35,3.18,6.92,5.74,11.65,1.7C158.89,117.59,159.89,119.61,160.86,121.65z M184.44,94.21
			c-2.53,1.18-4.84,1.81-6.54,3.59c-1.21-0.83-2.35-1.62-4.27-2.94c2.24,0.19,3.35-0.52,4.47-1.28c2.12-1.43,4.39-2.62,7-2.9
			c5.11-0.55,7.97,1.67,8.87,6.85c-2.31,2.12-4.1,5.81-8.15,3.34C183.46,99.42,183.55,96.97,184.44,94.21z M205.27,132.38
			c-4.31,1.44-9.58-0.82-12.59-5.82c4.86,2.37,9.36,3.91,14.21,1.99C208.48,131.05,206.94,131.82,205.27,132.38z M207.9,113.93
			c0.72-0.99,1.72-1.78,2.17-3.19c-2.13-5.16-4.43-10.48-1.88-16.33c-0.58,4.63,0.94,8.76,2.82,12.85c2.45,5.33,0.64,8.46-5.42,9.45
			C205.92,115.39,207.2,114.89,207.9,113.93z M203.81,114.6c-1.91,0.12-3.1,0.2-4.45,0.29C200.77,113.1,200.86,113.09,203.81,114.6z
			 M210.39,123.62c0.85,0.28,1.4-0.88,2.73-0.31c-2.07,1.58-3.78,3.22-6.34,3.44c-3.11,0.97-6.23,0.71-9.35,0.03
			c0,0.01,0.01,0.01,0.01,0.02c-1.03,0.14-1.98-0.05-2.85-0.62c-0.9,0.1-1.78,0.13-2.52-0.54c-1.85-0.35-3.25-1.98-5.31-1.74
			c-0.19-1.18,0.53-1.81,1.19-2.66c2.92,2.55,6.3,1.86,9.68,1.78C201.89,122.92,206.2,122.46,210.39,123.62z M196.76,85.07
			c0.05,3.07-0.82,3.85-3.63,3.06c-2-0.56-3.95-1.32-5.92-1.97c-5.34-1.74-6.78-1.64-14.85,1.05
			C180.02,80.29,186.85,80.2,196.76,85.07z M147.29,108.03c-1.54-2.25-0.96-5.46,1.5-8.88c-1.05-1.79-2.55-2.89-4.18-3.07
			c-1.44,0.09-1.68,1.07-2.51,1.59c-0.44-1.45-0.54-2.69,0.75-3.63c1.21-0.88,2.52-0.68,3.77-0.09c3.8,1.79,5.33,5.89,3.68,9.83
			c-0.62,1.48-0.38,2.76,0.68,3.93c0.61,0.67,1.51,1.17,1.42,2.43C150.1,110.69,148.48,109.77,147.29,108.03z"/>
		<path class="st12" d="M267.05,265.99l0.01-0.05c-0.05,0.01-0.11,0.02-0.16,0.03L267.05,265.99z"/>
		<path class="st10" d="M94.96,259.65c7.54,0.34,14.31,3.06,20.98,7.49c-1.97-12.49-5.93-23.69-10.84-34.64
			c5.92,7.23,10.86,14.98,13.28,24.59c0.45-0.89,0.71-1.29,0.87-1.72c2.42-6.69,4.77-13.4,8.17-19.68c0.71-1.31,0.43-2.54,0.06-3.84
			c-2.13-7.48-4.21-14.97-6.36-22.45c-2.65-9.18-7.48-16.98-14.81-23.18c-0.73-0.62-1.49-1.21-2.24-1.81
			c0.21-0.18,0.41-0.37,0.62-0.55c7.84,5.09,13.42,12.08,17.04,20.7c3.72,8.87,5.91,18.21,8.46,27.45c0.53,1.92,0.22,3.76-0.34,5.59
			c-1.43,4.69-2.9,9.36-4.59,14.82c5.31-5.32,7.96-11.05,8.85-17.63c0.81-5.96,0.68-11.94,0.06-17.92
			c-1.1-10.56-3.44-20.79-8.25-30.32c-2.66-5.27-5.85-10.19-10.76-13.76c-2.91,0.7-5.53,1.82-8.11,3
			c-7.42,3.41-12.75,8.74-15.36,16.65c-2.02,6.13-3.91,12.29-5.43,18.57c-3.52,14.56-6.19,29.34-10.88,43.6
			c-0.86,2.62-1.75,5.24-2.73,8.15C80.25,260.96,87.48,259.3,94.96,259.65z"/>
		<path d="M187.2,266.45c-0.04-0.02-0.07-0.04-0.11-0.06C187.12,266.4,187.16,266.43,187.2,266.45z"/>
		<path d="M171.77,269.28c0.98,0.04,1.94,0.12,2.9,0.22C173.71,269.39,172.75,269.32,171.77,269.28z"/>
		<path d="M185.94,265.79c-0.06-0.03-0.12-0.06-0.19-0.09C185.81,265.73,185.87,265.76,185.94,265.79z"/>
		<path d="M184.64,265.21c-0.09-0.04-0.18-0.08-0.27-0.12C184.47,265.13,184.55,265.17,184.64,265.21z"/>
		<path d="M168.87,269.26c0.93-0.02,1.85-0.02,2.76,0.02C170.73,269.24,169.8,269.24,168.87,269.26z"/>
		<path d="M180.4,263.91c-0.14-0.03-0.27-0.06-0.42-0.09C180.13,263.84,180.26,263.88,180.4,263.91z"/>
		<path d="M175.19,269.55c0.92,0.11,1.84,0.24,2.74,0.4C177.03,269.79,176.11,269.66,175.19,269.55z"/>
		<path d="M181.9,264.26c-0.14-0.04-0.27-0.08-0.4-0.11C181.63,264.18,181.77,264.22,181.9,264.26z"/>
		<path d="M181.12,270.68c1.9,0.51,3.75,1.15,5.55,1.93C184.87,271.83,183.03,271.19,181.12,270.68z"/>
		<path d="M183.3,264.7c-0.12-0.04-0.23-0.08-0.34-0.12C183.08,264.61,183.19,264.66,183.3,264.7z"/>
		<path d="M188.43,267.17c-0.02-0.01-0.03-0.02-0.05-0.03C188.39,267.15,188.41,267.16,188.43,267.17z"/>
		<path d="M177.99,269.97c0.97,0.18,1.92,0.4,2.87,0.64C179.91,270.36,178.96,270.15,177.99,269.97z"/>
		<path d="M188.17,293.02c2.53,0,4.83-0.76,6.83-2.27c0.67-0.5,1.11-1.22,1.28-2.02c0.09-0.03,0.18-0.06,0.27-0.1
			c1.69-0.72,3.48-1.86,4-4.85c0.17-0.99-0.11-2-0.76-2.76c1.36-1.12,2.13-2.42,2.29-3.88c0.17-1.57-0.42-3.1-1.67-4.32
			c-0.55-0.54-1.1-1.07-1.64-1.59c1.03-0.48,2.13-1.42,2.99-3.21c0.58-1.2,0.39-2.63-0.47-3.65c-3.6-4.23-7.89-7.48-11.62-10.1
			c-0.39-0.28-0.79-0.53-1.19-0.78c0.29,0.79,0.6,1.57,0.98,2.31c-0.23,0.67-0.44,1.35-0.59,2.05c-0.38-0.27-0.76-0.55-1.15-0.82
			c4.02,2.83,7.85,5.84,10.99,9.53c-1.2,2.49-2.68,1.91-4.12,0.92c-2.74-1.89-5.55-3.63-8.5-5.18c0.87,0.46,1.72,0.93,2.57,1.42
			c0.18,1.46,0.51,2.88,0.98,4.24c0,0,0,0,0,0c3.02,2.07,5.73,4.65,8.41,7.27c1.13,1.1,0.94,2.41-1.15,3.72
			c-3.18-2.65-6.57-4.75-10.17-6.31c0.91,0.4,1.82,0.83,2.7,1.3c-0.1,0.42-0.17,0.84-0.24,1.27c-0.06,0.09-0.1,0.2-0.15,0.29
			c-0.6,0.26-1.18,0.56-1.75,0.88c-0.17-0.11-0.35-0.21-0.53-0.33c3.53,2.33,7.46,4.09,10.46,7.15c-0.22,1.29-0.75,1.79-2,2.32
			c-4.3-1.65-8.65-3.53-13.18-4.93c-0.67,0.75-1.29,1.55-1.84,2.39c3.67,1.03,7.22,2.48,10.74,4.06c0.59,0.27,1.16,0.58,2.02,1.02
			c-3.06,2.31-6.2,1.63-9.17,0.91c-1.95-0.47-3.9-0.88-5.85-1.13c-0.29,1-0.49,2.03-0.59,3.08c-0.88-0.08-1.77-0.06-2.68,0.06
			c2.57,0.02,5.2,0.52,8.34,1.28C184.71,292.66,186.38,293.02,188.17,293.02z"/>
		<path d="M172.4,281.53c-0.91-0.07-1.82-0.11-2.75-0.11C170.58,281.42,171.49,281.46,172.4,281.53z"/>
		<path d="M175.06,281.85c-0.24-0.04-0.48-0.05-0.71-0.09C174.58,281.79,174.82,281.81,175.06,281.85z"/>
		<path d="M172.6,287.69c0.48-0.04,0.96-0.07,1.44-0.08C173.56,287.61,173.08,287.64,172.6,287.69z"/>
		<path d="M165.41,278.8c0.72-0.1,1.43-0.16,2.14-0.21C166.84,278.63,166.13,278.7,165.41,278.8z"/>
		<path d="M172.15,287.72c-0.62,0.07-1.23,0.16-1.86,0.29C170.92,287.88,171.54,287.79,172.15,287.72z"/>
		<path d="M177.95,287.83c-0.59-0.08-1.18-0.13-1.77-0.17C176.77,287.7,177.36,287.76,177.95,287.83z"/>
		<path d="M175.98,287.65c-0.52-0.03-1.04-0.04-1.56-0.04C174.94,287.6,175.46,287.62,175.98,287.65z"/>
		<path d="M168.21,278.56c0.48-0.02,0.96-0.04,1.44-0.04C169.17,278.52,168.69,278.54,168.21,278.56z"/>
		<path d="M174.5,278.87c0.44,0.06,0.87,0.12,1.31,0.2C175.37,278.99,174.93,278.93,174.5,278.87z"/>
		<path d="M170.4,278.54c0.44,0.01,0.88,0.02,1.32,0.05C171.28,278.56,170.84,278.55,170.4,278.54z"/>
		<path d="M178.41,279.6c0.47,0.11,0.95,0.23,1.42,0.36C179.36,279.83,178.89,279.71,178.41,279.6z"/>
		<path d="M180.32,280.09c0.51,0.14,1.02,0.29,1.53,0.44C181.34,280.38,180.83,280.23,180.32,280.09z"/>
		<path d="M176.47,279.19c0.45,0.09,0.9,0.18,1.35,0.28C177.37,279.36,176.92,279.27,176.47,279.19z"/>
		<path d="M165.17,269.46c1-0.09,1.99-0.14,2.97-0.18C167.17,269.31,166.18,269.36,165.17,269.46z"/>
		<path d="M172.48,278.64c0.43,0.04,0.86,0.07,1.29,0.12C173.34,278.72,172.91,278.68,172.48,278.64z"/>
		<path d="M177.36,290.92c0.1-1.05,0.3-2.08,0.59-3.08c0,0,0,0,0,0c-0.59-0.08-1.18-0.13-1.77-0.17c-0.07,0-0.14-0.01-0.21-0.01
			c-0.52-0.03-1.04-0.04-1.56-0.04c-0.13,0-0.25,0-0.38,0c-0.48,0.01-0.96,0.04-1.44,0.08c-0.15,0.01-0.3,0.02-0.45,0.03
			c-0.62,0.07-1.23,0.16-1.86,0.29c-1.65,0.34-2.99,0.94-3.87,2.54c-5.01,9.16-7.23,10.21-15.79,8.69
			c-24.53,8.55-47.71,16.61-72.62,14.2c-1.45-0.89-1.97-1.91-2.27-3.02c-3.26-12.25-2.02-17.87,7.82-25.14
			c6.79-5.01,14.66-5.9,22.8-5.36c12.54,0.85,25.07,0.97,37.59-0.25c0.55-0.05,1.1-0.01,1.81-0.01c-0.34,1.81-0.65,3.46-0.96,5.11
			c0.17,0.1,0.33,0.2,0.5,0.3c0.93-1.4,1.96-2.75,2.77-4.22c3.97-7.23,7.95-14.47,11.79-21.78c1.52-2.9,3.54-4.44,6.94-4.41
			c3.32,0.03,6.65-0.29,9.95-0.66c4.1-0.46,7.64,0.69,10.96,3.02c0.39,0.27,0.77,0.55,1.15,0.82c0.15-0.7,0.35-1.38,0.59-2.05
			c-0.38-0.75-0.69-1.52-0.98-2.31c-3.19-1.98-6.46-2.95-9.96-2.95c-0.7,0-1.42,0.04-2.13,0.12c-2.96,0.33-6.12,0.64-9.17,0.64
			c0,0-0.49,0-0.5,0c-4.42,0-7.64,2.03-9.84,6.21c-3.32,6.32-6.81,12.7-10.22,18.91c-0.29-0.08-0.59-0.12-0.89-0.12
			c-0.21,0-1-0.02-1.2-0.02c-0.32,0-0.63,0.01-0.93,0.04c-6.12,0.6-12.35,0.89-19.06,0.89c-5.7,0-11.58-0.21-17.98-0.64
			c-1.47-0.1-2.9-0.15-4.23-0.15c-8.39,0-15.19,2.01-20.8,6.16c-10.58,7.82-12.78,14.79-9.07,28.72c0.37,1.39,1.16,3.42,3.76,5.03
			c0.44,0.27,0.94,0.44,1.45,0.49c3.07,0.3,6.22,0.45,9.37,0.45c21.88,0,42.3-7.02,63.87-14.54c1.99,0.33,3.5,0.47,4.82,0.47
			c0,0,0,0,0,0c7.07,0,10.11-4.57,13.64-11.02c0.17-0.32,0.32-0.59,1.6-0.86c1.12-0.23,2.27-0.35,3.51-0.35
			c0.06,0,0.12,0.01,0.18,0.01C175.59,290.85,176.48,290.84,177.36,290.92z"/>
		<path d="M181.12,270.68c-0.09-0.02-0.18-0.05-0.27-0.07c-0.94-0.25-1.9-0.46-2.87-0.64c-0.02,0-0.04-0.01-0.06-0.01
			c-0.9-0.17-1.82-0.3-2.74-0.4c-0.17-0.02-0.35-0.04-0.52-0.06c-0.95-0.1-1.92-0.18-2.9-0.22c-0.04,0-0.09,0-0.14,0
			c-0.91-0.03-1.83-0.03-2.76-0.02c-0.24,0-0.48,0.01-0.73,0.02c-0.98,0.03-1.97,0.09-2.97,0.18c1.64,2.67,3.92,2.56,6.02,2.73
			c5.41,0.44,10.84,0.75,15.56,3.87c0.17,0.11,0.35,0.22,0.53,0.33c0.57-0.32,1.15-0.62,1.75-0.88c0.05-0.09,0.1-0.2,0.15-0.29
			c0.07-0.43,0.14-0.85,0.24-1.27c-0.89-0.47-1.79-0.9-2.7-1.3c-0.02-0.01-0.03-0.02-0.05-0.02
			C184.88,271.83,183.02,271.19,181.12,270.68z"/>
		<path d="M180.32,280.09c-0.16-0.05-0.33-0.09-0.49-0.13c-0.47-0.13-0.94-0.24-1.42-0.36c-0.2-0.05-0.4-0.09-0.59-0.14
			c-0.45-0.1-0.9-0.19-1.35-0.28c-0.22-0.04-0.44-0.09-0.67-0.12c-0.43-0.07-0.87-0.14-1.31-0.2c-0.24-0.03-0.48-0.07-0.72-0.1
			c-0.43-0.05-0.86-0.09-1.29-0.12c-0.25-0.02-0.5-0.05-0.76-0.06c-0.44-0.03-0.88-0.04-1.32-0.05c-0.25-0.01-0.5-0.02-0.76-0.02
			c-0.48,0-0.96,0.02-1.44,0.04c-0.22,0.01-0.44,0.01-0.67,0.02c-0.71,0.05-1.42,0.11-2.14,0.21c0.7,2.35,2.51,2.62,4.24,2.62
			c0.93,0,1.84,0.04,2.75,0.11c0.65,0.05,1.3,0.14,1.94,0.23c0.24,0.03,0.48,0.05,0.71,0.09c1.75,0.27,3.46,0.66,5.15,1.13
			c0.55-0.84,1.16-1.64,1.84-2.39c-0.06-0.02-0.13-0.04-0.19-0.06C181.34,280.38,180.83,280.23,180.32,280.09z"/>
		<path d="M177.62,260.28c-4.01,0.14-8.02,0.03-12.22,0.03c0.28,1.82,1.8,2.05,3.11,2.23c3.29,0.44,6.61,0.69,9.92,1.05
			c0.53,0.06,1.05,0.13,1.56,0.23c0.14,0.03,0.28,0.06,0.42,0.09c0.37,0.07,0.74,0.15,1.09,0.24c0.14,0.03,0.27,0.08,0.4,0.11
			c0.36,0.1,0.71,0.2,1.06,0.31c0.12,0.04,0.23,0.08,0.34,0.12c0.36,0.13,0.72,0.25,1.07,0.4c0.09,0.04,0.18,0.08,0.27,0.12
			c0.37,0.16,0.74,0.32,1.11,0.49c0.06,0.03,0.12,0.06,0.19,0.09c0.39,0.19,0.77,0.39,1.15,0.59c0.04,0.02,0.08,0.04,0.11,0.06
			c0.4,0.22,0.79,0.45,1.18,0.69c0.02,0.01,0.03,0.02,0.05,0.03c0.41,0.25,0.81,0.52,1.21,0.79c0,0,0,0,0,0
			c-0.47-1.36-0.8-2.78-0.98-4.24c-0.85-0.49-1.7-0.97-2.57-1.42C183.42,260.9,180.67,260.17,177.62,260.28z"/>
		<path class="st12" d="M176.76,254.01c-3.3,0.37-6.63,0.68-9.95,0.66c-3.4-0.03-5.42,1.51-6.94,4.41
			c-3.84,7.31-7.82,14.54-11.79,21.78c-0.81,1.47-1.84,2.82-2.77,4.22c-0.17-0.1-0.33-0.2-0.5-0.3c0.31-1.65,0.62-3.29,0.96-5.11
			c-0.71,0-1.26-0.05-1.81,0.01c-12.52,1.22-25.05,1.1-37.59,0.25c-8.14-0.55-16.01,0.34-22.8,5.36
			c-9.83,7.26-11.08,12.89-7.82,25.14c0.3,1.11,0.82,2.13,2.27,3.02c24.91,2.4,48.09-5.65,72.62-14.2
			c8.56,1.52,10.78,0.46,15.79-8.69c0.88-1.61,2.22-2.2,3.87-2.54c0.62-0.13,1.24-0.22,1.86-0.29c0.15-0.02,0.3-0.02,0.45-0.03
			c0.48-0.04,0.96-0.07,1.44-0.08c0.13,0,0.25,0,0.38,0c0.52,0,1.04,0.01,1.56,0.04c0.07,0,0.14,0.01,0.21,0.01
			c0.59,0.04,1.18,0.1,1.77,0.17c0,0,0,0,0,0l0,0c1.95,0.25,3.9,0.67,5.85,1.13c2.97,0.71,6.1,1.39,9.17-0.91
			c-0.86-0.43-1.43-0.75-2.02-1.02c-3.52-1.58-7.08-3.02-10.74-4.06c0,0,0,0,0,0c-1.69-0.48-3.4-0.87-5.15-1.14
			c-0.24-0.04-0.48-0.05-0.71-0.09c-0.64-0.09-1.29-0.18-1.94-0.23c-0.91-0.07-1.82-0.11-2.75-0.11c-1.73,0-3.54-0.27-4.24-2.62
			c0.72-0.1,1.43-0.16,2.14-0.21c0.22-0.01,0.44-0.01,0.67-0.02c0.48-0.02,0.96-0.04,1.44-0.04c0.25,0,0.5,0.01,0.76,0.02
			c0.44,0.01,0.88,0.02,1.32,0.05c0.25,0.02,0.51,0.04,0.76,0.06c0.43,0.04,0.86,0.07,1.29,0.12c0.24,0.03,0.48,0.06,0.72,0.1
			c0.44,0.06,0.87,0.12,1.31,0.2c0.22,0.04,0.45,0.08,0.67,0.12c0.45,0.09,0.9,0.18,1.35,0.28c0.2,0.04,0.4,0.09,0.59,0.14
			c0.47,0.11,0.95,0.23,1.42,0.36c0.16,0.04,0.33,0.09,0.49,0.13c0.51,0.14,1.02,0.29,1.53,0.44c0.06,0.02,0.13,0.04,0.19,0.06
			c0,0,0,0,0,0c4.53,1.4,8.88,3.28,13.18,4.93c1.25-0.54,1.78-1.03,2-2.32c-3-3.07-6.93-4.83-10.46-7.15
			c-4.72-3.12-10.16-3.43-15.56-3.87c-2.1-0.17-4.38-0.06-6.02-2.73c1-0.09,1.99-0.14,2.97-0.18c0.24-0.01,0.49-0.01,0.73-0.02
			c0.93-0.02,1.85-0.02,2.76,0.02c0.04,0,0.09,0,0.14,0c0.98,0.04,1.94,0.12,2.9,0.22c0.18,0.02,0.35,0.04,0.52,0.06
			c0.92,0.11,1.84,0.24,2.74,0.4c0.02,0,0.04,0.01,0.06,0.01c0.97,0.18,1.92,0.4,2.87,0.64c0.09,0.02,0.18,0.05,0.27,0.07
			c1.9,0.51,3.75,1.15,5.55,1.93c0.02,0.01,0.03,0.02,0.05,0.02c3.6,1.57,6.99,3.67,10.17,6.31c2.09-1.31,2.28-2.62,1.15-3.72
			c-2.68-2.62-5.4-5.2-8.41-7.27c-0.4-0.27-0.8-0.54-1.21-0.79c-0.02-0.01-0.03-0.02-0.05-0.03c-0.39-0.24-0.78-0.47-1.18-0.69
			c-0.04-0.02-0.07-0.04-0.11-0.06c-0.38-0.21-0.76-0.4-1.15-0.59c-0.06-0.03-0.12-0.06-0.19-0.09c-0.36-0.17-0.73-0.33-1.11-0.49
			c-0.09-0.04-0.18-0.08-0.27-0.12c-0.35-0.14-0.71-0.27-1.07-0.4c-0.12-0.04-0.23-0.09-0.34-0.12c-0.35-0.11-0.7-0.21-1.06-0.31
			c-0.14-0.04-0.27-0.08-0.4-0.11c-0.36-0.09-0.73-0.17-1.09-0.24c-0.14-0.03-0.27-0.06-0.42-0.09c-0.51-0.09-1.03-0.17-1.56-0.23
			c-3.3-0.36-6.62-0.61-9.92-1.05c-1.31-0.18-2.82-0.41-3.11-2.23c4.19,0,8.21,0.11,12.22-0.03c3.05-0.11,5.8,0.62,8.46,2.02
			c2.95,1.54,5.76,3.29,8.5,5.18c1.44,1,2.93,1.58,4.12-0.92c-3.14-3.68-6.97-6.7-10.99-9.53
			C184.4,254.7,180.85,253.55,176.76,254.01z"/>
		<path class="st12" d="M174.04,287.6c0.13,0,0.25,0,0.38,0C174.29,287.61,174.17,287.6,174.04,287.6z"/>
		<path class="st12" d="M176.18,287.66c-0.07,0-0.14-0.01-0.21-0.01C176.05,287.65,176.11,287.66,176.18,287.66z"/>
		<path class="st12" d="M172.6,287.69c-0.15,0.01-0.3,0.02-0.45,0.03C172.3,287.7,172.45,287.7,172.6,287.69z"/>
		<path class="st12" d="M177.93,269.96c0.02,0,0.04,0.01,0.06,0.01C177.97,269.96,177.95,269.96,177.93,269.96z"/>
		<path class="st12" d="M174.67,269.49c0.18,0.02,0.35,0.04,0.52,0.06C175.02,269.53,174.84,269.51,174.67,269.49z"/>
		<path class="st12" d="M180.86,270.61c0.09,0.02,0.18,0.05,0.27,0.07C181.03,270.66,180.95,270.63,180.86,270.61z"/>
		<path class="st12" d="M186.72,272.64c-0.02-0.01-0.03-0.02-0.05-0.02C186.69,272.62,186.71,272.63,186.72,272.64z"/>
		<path class="st12" d="M171.64,269.27c0.04,0,0.09,0,0.14,0C171.73,269.28,171.68,269.28,171.64,269.27z"/>
		<path class="st12" d="M168.15,269.28c0.24-0.01,0.49-0.01,0.73-0.02C168.63,269.26,168.39,269.27,168.15,269.28z"/>
		<path class="st12" d="M169.65,278.52c0.25,0,0.5,0.01,0.76,0.02C170.15,278.53,169.9,278.52,169.65,278.52z"/>
		<path class="st12" d="M173.77,278.77c0.24,0.03,0.48,0.06,0.72,0.1C174.25,278.83,174.01,278.8,173.77,278.77z"/>
		<path class="st12" d="M171.72,278.58c0.25,0.02,0.51,0.04,0.76,0.06C172.23,278.62,171.98,278.6,171.72,278.58z"/>
		<path class="st12" d="M175.8,279.07c0.22,0.04,0.45,0.08,0.67,0.12C176.25,279.15,176.02,279.1,175.8,279.07z"/>
		<path class="st12" d="M177.82,279.46c0.2,0.04,0.4,0.09,0.59,0.14C178.21,279.55,178.02,279.51,177.82,279.46z"/>
		<path class="st12" d="M167.54,278.59c0.22-0.01,0.44-0.01,0.67-0.02C167.99,278.57,167.77,278.57,167.54,278.59z"/>
		<path class="st12" d="M179.83,279.96c0.16,0.04,0.33,0.09,0.49,0.13C180.16,280.04,179.99,280,179.83,279.96z"/>
		<path class="st12" d="M180.2,282.98C180.2,282.98,180.2,282.98,180.2,282.98c-1.69-0.48-3.4-0.87-5.15-1.14
			C176.8,282.12,178.51,282.51,180.2,282.98z"/>
		<path class="st12" d="M174.34,281.76c-0.64-0.09-1.29-0.18-1.94-0.23C173.05,281.59,173.7,281.67,174.34,281.76z"/>
		<path class="st12" d="M181.85,280.53c0.06,0.02,0.13,0.04,0.19,0.06c0,0,0,0,0,0C181.98,280.57,181.91,280.55,181.85,280.53z"/>
		<path class="st12" d="M185.75,265.7c-0.36-0.17-0.73-0.33-1.11-0.49C185.02,265.36,185.39,265.52,185.75,265.7z"/>
		<path class="st12" d="M182.96,264.57c-0.35-0.11-0.7-0.21-1.06-0.31C182.26,264.36,182.61,264.46,182.96,264.57z"/>
		<path class="st12" d="M184.37,265.09c-0.35-0.14-0.71-0.27-1.07-0.4C183.66,264.82,184.02,264.95,184.37,265.09z"/>
		<path class="st12" d="M181.5,264.15c-0.36-0.09-0.73-0.17-1.09-0.24C180.77,263.98,181.14,264.06,181.5,264.15z"/>
		<path class="st12" d="M189.63,267.96c-0.4-0.27-0.8-0.54-1.21-0.79C188.83,267.43,189.24,267.69,189.63,267.96z"/>
		<path class="st12" d="M187.08,266.38c-0.38-0.21-0.76-0.4-1.15-0.59C186.32,265.98,186.71,266.17,187.08,266.38z"/>
		<path class="st12" d="M179.99,263.82c-0.51-0.09-1.03-0.17-1.56-0.23C178.96,263.65,179.48,263.73,179.99,263.82z"/>
		<path class="st12" d="M188.38,267.14c-0.39-0.24-0.78-0.47-1.18-0.69C187.6,266.67,187.99,266.9,188.38,267.14z"/>
		<path class="st12" d="M160.97,155.88c4.99,4.43,10.6,8.02,16.21,11.58c2.23,1.42,3.26,3.24,3.12,5.91
			c-0.15,2.74-0.03,5.49-0.03,8.23c6.54,5.07,11.71,11.23,17.01,17.87c3.13-11.36,6.31-22.14,2.6-33.82
			c-1.17,1.16-0.74,2.45-1.77,3.19c-1.16-3.38-0.41-6.84-0.8-10.21c-16.83-6.98-28.92-19.35-39.3-34.29
			c0.31,9.11,0.19,17.8-2.53,26.17C157.45,152.45,159.13,154.25,160.97,155.88z M192.78,182.1c0.93-2.01,2.19-3.62,4.74-4.6
			c-0.64,4.13-3.97,4.71-6.18,6.53c-2.56-0.88-3.94-3.22-6.4-4.6C188.01,179.51,190.18,181.21,192.78,182.1z"/>
		<path class="st10" d="M103.35,275.58c4.25,0.01,8.5,0,12.9,0c0.04-0.9,0.09-1.73,0.13-2.65c-2.06-1.99-4.21-3.36-6.47-4.58
			c-13.25-7.16-26.6-4.92-39.93-0.3c-2.51,0.87-3.92,2.86-4.38,5.52c-0.46,2.61-1.1,5.2-1.45,7.82c-0.89,6.56-0.84,13.09,1.68,19.34
			c0.74,1.84,1.61,3.8,4.24,4.04c-3.67-8.17-2.52-13.62,0.41-18c-0.15,2.45-1.04,4.82-0.25,7.33c0.27-0.23,0.46-0.32,0.55-0.47
			C77.99,281.04,89.13,275.53,103.35,275.58z M108.87,273.99c-7.89-1.99-15.73-4.44-24.65-1.5
			C90.88,268.06,105.62,268.85,108.87,273.99z M68.9,279.04c0.1-6.99,6.06-6.95,10.38-8.9C75.71,272.97,71.98,275.61,68.9,279.04z"
			/>
		<path class="st10" d="M177.02,183.25c-0.63-4.19,0.67-8.17-0.8-12.37c-5.84,3.63-9.14,9.03-13.29,13.71
			c6.63,10.9,13.44,21.48,21.41,31.82c0.74-2.94,1.37-5.47,2.04-8.15c4.44,0.26,8.69,0.52,13.49,0.8
			C193.52,198.7,185.38,190.67,177.02,183.25z"/>
		<path class="st10" d="M173.83,169.12c-8.28-5.7-16.84-11.29-22.71-19.85c0.98-1.19,1.69-2.06,2.41-2.93
			c-0.25-0.18-0.49-0.36-0.74-0.54c-5.33,3.32-6.43,9.83-10.4,14.2c3.62,9.81,8.46,18.72,13.09,28.1
			C161.98,181.89,166.12,173.81,173.83,169.12z"/>
		<path class="st10" d="M199.81,202.5c1.47,2.52,2.75,4.71,4.06,6.94h10.21c0.8-11.73-2.07-22.89-4.58-34.93
			C203.16,183.46,203.11,193.62,199.81,202.5z"/>
		<path class="st10" d="M260.39,209.66c-3.48-9.26-6.4-18.17-11.32-26.28c-2.83-4.67-7.23-5.96-12.39-7.22
			c5.68,11.07,9.14,22.51,13.12,33.51H260.39z M248.03,193.27c-0.38-3.37-1.54-6.58-2-9.94c-0.02-0.03-0.04-0.06-0.06-0.1l0.04-0.04
			c0,0-0.04,0.04-0.04,0.04c0-0.02-0.01-0.04-0.01-0.06c-0.3-0.15-0.53-0.32-0.11-0.71c0.04,0.26,0.08,0.48,0.11,0.71
			c0.02,0.01,0.03,0.02,0.05,0.03c0.01,0.04,0.01,0.09,0.02,0.13C248.14,186.33,248.64,189.68,248.03,193.27z"/>
		<path class="st10" d="M204.39,175.83c1.98-1.62,3.06-3.87,5.51-4.99c3.84,4.22,8.03,7.8,13.06,10.39
			c-7.52-9.24-12.18-20.68-21.94-28.25C201.53,160.77,206.6,167.69,204.39,175.83z"/>
		<path d="M358.32,251.62c-0.6-1.05-1.38-1.88-2.27-2.51c1.35-2.47,1.56-4.93,0.54-6.88c-0.97-1.84-2.86-2.92-5.2-2.97
			c-0.31-0.01-0.61-0.01-0.91-0.01c-1,0-2,0.05-3,0.12l-0.52,3.45c1.43-0.14,2.88-0.22,4.35-0.18c2.76,0.06,3.35,2.5,1.44,5.43
			c-6.96,1.03-13.8,2.04-20.34,3c-1.43-0.79-1.61-1.73-1.23-3.19c2.68-1.49,5.48-2.69,8.38-3.58c-0.89-0.12-1.86-0.05-2.92,0.29
			c-1.05,0.33-2.11,0.59-3.16,0.85c0.63-0.86,1.02-1.81,1.18-2.78c2.29-0.8,4.5-1.56,6.77-2.35c-4.02,0.93-8,2.46-11.89,4.62
			c-0.8,0.45-1.39,1.2-1.63,2.09c-0.58,2.21-0.19,3.82,0.59,5c-1.32,0.49-2.67,1.3-3.67,2.84c-0.21,0.33-0.37,0.68-0.46,1.06
			c-0.33,1.39-0.34,3.25,1.05,4.97c-0.6,0.54-1.14,1.26-1.53,2.26c-0.23,0.59-0.3,1.23-0.18,1.85c0.49,2.69,2.05,4.02,3.63,4.7
			l-0.39,1.3c-0.4,1.35,0.08,2.8,1.2,3.65c1.8,1.36,3.7,2.25,5.63,2.83c0.02-0.08,0.04-0.16,0.05-0.24
			c-1.76-0.57-3.47-1.06-4.82-2.04c0.1-0.69,0.17-1.38,0.24-2.07c0.16,0.05,0.34,0.08,0.5,0.13c0.76,0.47,1.52,0.78,2.32,1
			c0.38,0.4,0.81,0.77,1.29,1.11c1.29,0.91,2.78,1.16,4.3,1.32c0.29,0.03,0.62,0.08,0.96,0.1l-0.3,1.57c1.8,0.2,3.57,0.25,5.27,0.3
			c2.01,0.06,3.9,0.12,5.68,0.39c0.17,0.03,0.34,0.04,0.51,0.04c0.71,0,1.4-0.22,1.98-0.64c3.82-2.77,5.05-5.89,3.69-9.29
			c2.17-1.86,3.84-4.83,1.81-9.25C359.56,257.49,359.96,254.47,358.32,251.62z M349.8,275.72c-6.51-1-13.8,0.63-19.6-3.76
			c0.16-0.55,0.32-1.09,0.49-1.64c7.1,0.19,14.17-0.11,21.26-0.71C353.53,272.38,352.07,274.07,349.8,275.72z M352.78,266.99
			c-7.08,0.09-14.38,0.51-21.67,0.08c-1.8-0.11-3.65-0.37-4.07-2.68c0.75-1.9,2.48-1.6,3.89-1.75c6.41-0.68,12.83-1.25,19.25-1.89
			c1.12-0.11,2.22-0.37,3.43-0.58C355.15,262.71,355.57,264.96,352.78,266.99z M354.18,258.19c-8.68-0.73-17.1,1.56-25.33,1.32
			c-1.18-0.85-1.47-1.69-1.2-2.8c1.01-1.55,2.77-1.81,4.41-2.11c6.15-1.14,12.33-2.13,18.48-3.31c2.18-0.42,3.79,0.2,4.84,2.02
			C356.45,255.13,355.92,256.77,354.18,258.19z"/>
		<path d="M334.67,242.66c-0.16,0.97-0.54,1.92-1.18,2.78c1.05-0.26,2.11-0.52,3.16-0.85c1.06-0.33,2.03-0.41,2.92-0.29
			c2.39-0.73,4.86-1.24,7.39-1.48l0.52-3.45c-2.02,0.15-4.03,0.47-6.03,0.93C339.17,241.1,336.96,241.87,334.67,242.66z"/>
		<path d="M337.67,276.7c-1.53-0.17-3.01-0.42-4.3-1.32c-0.48-0.34-0.91-0.71-1.29-1.11c-0.8-0.22-1.56-0.53-2.32-1
			c-0.16-0.05-0.34-0.08-0.5-0.13c-0.06,0.69-0.14,1.38-0.24,2.07c1.35,0.98,3.06,1.46,4.82,2.04c-0.02,0.08-0.04,0.16-0.05,0.24
			c1.51,0.45,3.03,0.72,4.54,0.89l0.3-1.57C338.3,276.77,337.96,276.73,337.67,276.7z"/>
		<path class="st13" d="M350.55,251.29c-6.14,1.18-12.33,2.17-18.48,3.31c-1.65,0.31-3.4,0.56-4.41,2.11
			c-0.27,1.12,0.02,1.95,1.2,2.8c8.23,0.24,16.64-2.04,25.33-1.32c1.74-1.42,2.26-3.06,1.21-4.89
			C354.34,251.49,352.73,250.87,350.55,251.29z"/>
		<path class="st13" d="M350.18,260.75c-6.42,0.64-12.84,1.22-19.25,1.89c-1.41,0.15-3.14-0.15-3.89,1.75
			c0.42,2.31,2.27,2.57,4.07,2.68c7.3,0.43,14.59,0.01,21.67-0.08c2.79-2.03,2.37-4.27,0.83-6.82
			C352.4,260.38,351.3,260.64,350.18,260.75z"/>
		<path class="st13" d="M339.58,244.31c-0.01,0-0.01,0-0.02,0c-2.9,0.89-5.7,2.09-8.38,3.58c-0.39,1.46-0.2,2.4,1.23,3.19
			c6.54-0.97,13.37-1.97,20.34-3c1.91-2.94,1.31-5.37-1.44-5.43c-1.47-0.03-2.92,0.04-4.35,0.18l0,0
			C344.43,243.07,341.97,243.58,339.58,244.31z"/>
		<path class="st13" d="M339.58,244.31c2.39-0.72,4.84-1.24,7.37-1.48l0,0c-2.53,0.25-5,0.75-7.39,1.48
			C339.57,244.31,339.58,244.3,339.58,244.31z"/>
		<path class="st13" d="M330.69,270.32c-0.16,0.55-0.32,1.09-0.49,1.64c5.8,4.39,13.09,2.76,19.6,3.76
			c2.27-1.65,3.73-3.34,2.15-6.11C344.86,270.21,337.78,270.51,330.69,270.32z"/>
		<path class="st14" d="M198.42,56.74c0.39-1.42-1.01-1.49-1.69-1.9c-4.12-2.55-8.59-4.42-13.13-6.07
			c-10.94-3.99-22.18-4.5-33.61-2.67c8.35,0.18,16.66,0.67,24.81,2.61C182.93,50.64,190.86,53.16,198.42,56.74z"/>
		<path class="st14" d="M198.44,56.74c0,0-0.01,0-0.01-0.01c-0.01,0.03,0,0.05-0.01,0.08L198.44,56.74z"/>
		<path class="st15" d="M107.85,80.26c-2.18,6.8-2.24,13.43-0.19,21.04c-1.59-18.33,4.61-31.62,20.37-36.7
			C119.04,64.54,110.76,71.16,107.85,80.26z"/>
		<path class="st10" d="M120.58,276.05h7.95c-2.07-5.33-4.04-10.43-6.02-15.53C120.85,265.7,120.68,270.83,120.58,276.05z"/>
		<path class="st16" d="M120.87,115.06c-1.3-4.52-2.89-8.96-3.57-13.63c-1.18-8.14-1.8-16.25,2.59-23.8
			c-0.18-0.18-0.36-0.35-0.54-0.53C111.38,88.26,113.77,101.82,120.87,115.06z"/>
		<path class="st17" d="M139.23,312.15c7.35,1.1,13.58,4.7,20.57,6.09c-6.03-4.45-13.02-6.95-20.08-9.99
			C139.53,309.75,139.39,310.85,139.23,312.15z"/>
		<path class="st18" d="M210.32,326.05c-1.86,2.41-1.85,4.15-0.05,5.8c1.73,1.59,4.41,1.58,6.19-0.03c1.9-1.71,1.96-3.32,0.1-5.76
			H210.32z"/>
		<path class="st19" d="M204.92,56.47c0.01-0.01,0.02-0.02,0.02-0.02v0l0,0c-0.01-0.01-0.02-0.02-0.03-0.04
			c-0.01,0.03-0.01,0.06-0.03,0.09C204.88,56.51,204.9,56.49,204.92,56.47z"/>
		<path class="st19" d="M204.91,56.42c0.24-0.69-0.24-1.2-0.51-1.75c-4.51-9.07-12.52-13.24-21.77-15.67
			c3.81,2.17,7.89,3.85,11.55,6.38C198.49,48.38,201.68,52.4,204.91,56.42z"/>
		<path class="st20" d="M132.25,63.26c-2.96,7.81-2.43,15.49,0.63,23.1C131.31,78.69,131.46,70.98,132.25,63.26z"/>
		<path class="st20" d="M210.99,57.87c0.4-3.51-0.2-5.94-1.52-8.21c-2.43-4.16-6.13-6.9-10.25-9.17c-0.17,0.17-0.35,0.33-0.52,0.5
			C204.51,45,209.47,49.68,210.99,57.87z"/>
		<path class="st21" d="M119.36,77.1c0.51-0.16,0.77-0.07,0.54,0.53c1.3-1.51,2.6-3.02,3.9-4.53
			C121.69,73.73,120.46,75.35,119.36,77.1z"/>
		<path class="st21" d="M123.79,73.1c0.03-0.01,0.05-0.02,0.08-0.03c0,0-0.03-0.03-0.03-0.03C123.83,73.06,123.81,73.08,123.79,73.1
			z"/>
		<path class="st21" d="M119.36,77.1c0.18,0.18,0.36,0.35,0.54,0.53C120.13,77.04,119.87,76.94,119.36,77.1z"/>
		<path class="st22" d="M198.69,40.98c-0.13-0.48-0.07-0.78,0.52-0.5c-0.93-0.81-2.02-1.25-3.49-1.67
			C196.66,40.05,197.68,40.5,198.69,40.98z"/>
		<path class="st22" d="M198.69,40.98c0.17-0.17,0.35-0.33,0.52-0.5C198.62,40.21,198.56,40.5,198.69,40.98z"/>
		<path class="st14" d="M198.45,56.73c-0.01,0.01-0.04,0.08-0.04,0.08c0.02-0.04,0.04-0.05,0.06-0.08
			C198.46,56.73,198.45,56.73,198.45,56.73z"/>
		<path class="st14" d="M198.47,56.73c0.28,0.05,0.55,0.12,1.08,0.24C199.03,56.38,198.73,56.32,198.47,56.73z"/>
		<path class="st19" d="M204.88,56.51c0.03,0,0.04,0.01,0.07,0.01c0-0.02-0.01-0.04-0.01-0.06l-0.02,0.02
			C204.9,56.49,204.88,56.51,204.88,56.51z"/>
		<path class="st19" d="M204.95,56.52c0.05,0.29,0.1,0.59,0.18,1.09C205.41,56.97,205.6,56.57,204.95,56.52z"/>
		<path class="st19" d="M204.92,56.47l0.02-0.02v0C204.93,56.45,204.92,56.46,204.92,56.47z"/>
		<path class="st21" d="M123.84,73.04L123.84,73.04L123.84,73.04C123.84,73.04,123.84,73.04,123.84,73.04l0.03,0.03
			c0.02-0.06,0.05-0.12,0.07-0.18C123.91,72.94,123.88,72.99,123.84,73.04L123.84,73.04z"/>
		<polygon class="st21" points="123.84,73.04 123.87,73.07 123.84,73.04 		"/>
		<path d="M193.98,97.54c-0.9-5.18-3.76-7.4-8.87-6.85c-2.61,0.28-4.88,1.47-7,2.9c-1.13,0.76-2.23,1.47-4.47,1.28
			c1.92,1.32,3.06,2.11,4.27,2.94c1.7-1.78,4.01-2.41,6.54-3.59c-0.89,2.76-0.98,5.21,1.39,6.66
			C189.87,103.35,191.66,99.66,193.98,97.54z"/>
		<path d="M187.21,86.15c1.98,0.64,3.92,1.4,5.92,1.97c2.81,0.79,3.68,0.01,3.63-3.06c-9.91-4.87-16.73-4.77-24.4,2.14
			C180.43,84.51,181.87,84.41,187.21,86.15z"/>
		<path d="M187.95,121.23c-0.66,0.85-1.37,1.48-1.19,2.66c2.07-0.24,3.47,1.39,5.31,1.74c0.88-0.01,1.84-0.4,2.52,0.53
			c0.97,0.06,2.07-0.46,2.82,0.6c3.12-0.31,6.24-0.23,9.36-0.01c2.56-0.22,4.27-1.86,6.34-3.44c-1.33-0.56-1.88,0.59-2.73,0.31
			c-4.19-1.17-8.5-0.7-12.75-0.61C194.25,123.09,190.87,123.78,187.95,121.23z"/>
		<path d="M150.96,107.7c-1.06-1.17-1.3-2.45-0.68-3.93c1.65-3.94,0.12-8.04-3.68-9.83c-1.25-0.59-2.56-0.79-3.77,0.09
			c-1.29,0.94-1.19,2.18-0.75,3.63c0.83-0.52,1.07-1.5,2.51-1.59c1.63,0.18,3.14,1.28,4.18,3.07c-2.46,3.42-3.04,6.64-1.5,8.88
			c1.19,1.74,2.81,2.66,5.09,2.09C152.47,108.87,151.57,108.37,150.96,107.7z"/>
		<path d="M211,107.26c-1.88-4.09-3.4-8.23-2.82-12.85c-2.55,5.85-0.25,11.17,1.88,16.33c-0.45,1.42-1.45,2.2-2.17,3.19
			c-0.7,0.97-1.98,1.47-2.32,2.78C211.64,115.72,213.45,112.59,211,107.26z"/>
		<path d="M192.67,126.56c3.01,5,8.29,7.26,12.59,5.82c1.67-0.56,3.21-1.33,1.62-3.82C202.03,130.47,197.54,128.93,192.67,126.56z"
			/>
		<path d="M197.43,126.77C197.43,126.77,197.43,126.77,197.43,126.77c3.12,0.69,6.24,0.95,9.35-0.02
			C203.66,127.06,200.55,127.04,197.43,126.77z"/>
		<path d="M197.42,126.76C197.43,126.76,197.43,126.76,197.42,126.76c3.12,0.28,6.24,0.3,9.36-0.01
			C203.66,126.53,200.54,126.45,197.42,126.76z"/>
		<path d="M199.36,114.89c1.35-0.09,2.54-0.16,4.45-0.29C200.86,113.09,200.77,113.1,199.36,114.89z"/>
		<path d="M197.41,126.76c-0.8-0.83-1.96,0-2.82-0.59c0,0,0,0,0,0c0.87,0.57,1.83,0.76,2.85,0.62l-0.06-0.03
			C197.4,126.76,197.4,126.76,197.41,126.76z"/>
		<path d="M197.45,126.79c0-0.01-0.01-0.01-0.01-0.02c0,0-0.01,0-0.01,0C197.43,126.78,197.44,126.78,197.45,126.79z"/>
		<path d="M197.39,126.76l0.06,0.03c-0.01-0.01-0.02-0.01-0.02-0.02C197.41,126.77,197.4,126.77,197.39,126.76z"/>
		<path d="M194.6,126.17c0.85,0.59,2.02-0.24,2.82,0.59c0,0,0.01,0,0.01,0c-0.75-1.06-1.85-0.54-2.82-0.6c0,0,0.01,0.01,0.01,0.01
			C194.61,126.17,194.6,126.17,194.6,126.17z"/>
		<path d="M197.39,126.76c0.01,0,0.02,0,0.03,0c0,0,0,0-0.01,0C197.4,126.76,197.4,126.76,197.39,126.76z"/>
		<polygon points="197.42,126.77 197.43,126.77 197.43,126.77 197.43,126.77 		"/>
		<polygon points="197.42,126.77 197.43,126.77 197.42,126.76 197.41,126.76 		"/>
		<path d="M197.43,126.77C197.42,126.77,197.42,126.77,197.43,126.77c-0.02-0.01-0.03-0.01-0.04-0.01
			C197.4,126.77,197.41,126.77,197.43,126.77z"/>
		<path d="M194.59,126.16c-0.73-0.67-1.73-0.11-2.52-0.53c0.74,0.67,1.62,0.64,2.52,0.54c-0.01-0.01-0.02-0.01-0.03-0.01
			C194.58,126.16,194.59,126.16,194.59,126.16z"/>
		<path d="M194.59,126.16C194.6,126.16,194.6,126.16,194.59,126.16c-0.67-0.93-1.64-0.54-2.52-0.53
			C192.87,126.04,193.86,125.49,194.59,126.16z"/>
		<path d="M194.57,126.16c0.01,0.01,0.02,0.01,0.03,0.01c0,0,0,0,0,0C194.59,126.16,194.58,126.16,194.57,126.16z"/>
		<path d="M194.59,126.16c-0.01,0-0.02,0-0.02,0l0.04,0.01C194.61,126.16,194.6,126.16,194.59,126.16z"/>
		<path d="M194.57,126.16c0.01,0.01,0.02,0.01,0.03,0.01c0,0,0.01,0,0.01,0L194.57,126.16z"/>
		<path d="M194.61,126.17c0,0-0.01-0.01-0.01-0.01c0,0,0,0-0.01,0C194.6,126.16,194.61,126.16,194.61,126.17z"/>
		<path d="M197.52,177.51c-2.55,0.98-3.81,2.58-4.74,4.6c-2.6-0.9-4.76-2.6-7.84-2.66c2.46,1.37,3.84,3.71,6.4,4.6
			C193.55,182.22,196.88,181.63,197.52,177.51z"/>
		<path d="M108.87,273.99c-3.25-5.15-18-5.94-24.65-1.5C93.15,269.55,100.99,272.01,108.87,273.99z"/>
		<path d="M68.9,279.04c3.07-3.43,6.81-6.06,10.38-8.9C74.96,272.08,69.01,272.05,68.9,279.04z"/>
		<path class="st23" d="M245.96,183.23c0.02,0.03,0.04,0.06,0.06,0.1c-0.01-0.04-0.01-0.09-0.02-0.13L245.96,183.23z"/>
		<path class="st23" d="M248.03,193.27c0.61-3.58,0.11-6.93-2-9.94C246.49,186.68,247.65,189.89,248.03,193.27z"/>
		<path class="st23" d="M245.96,183.23c0,0,0.04-0.04,0.04-0.04c-0.02-0.01-0.03-0.02-0.05-0.03
			C245.96,183.19,245.96,183.21,245.96,183.23z"/>
		<path class="st23" d="M245.95,183.17c-0.04-0.22-0.07-0.45-0.11-0.71C245.42,182.85,245.65,183.02,245.95,183.17z"/>
	</g>
	<g>
		<path d="M454.14,0c35.58,0,71.16,0,106.74,0c2.59,0,3.39,0.78,3.39,3.43c0,47.32,0,94.63-0.01,141.95c0,3.22-0.66,3.84-3.94,3.84
			c-70.79,0-141.58,0-212.37,0c-3.26,0-3.94-0.65-3.94-3.84C344.01,98.07,344,50.75,344,3.44c0-2.65,0.75-3.4,3.4-3.4
			c35.58,0,71.16,0,106.74,0C454.14,0.02,454.14,0.01,454.14,0z"/>
		<path class="st9" d="M347.48,145.5c0-47.32,0-94.49,0-141.82c71.04,0,142.03,0,213.16,0c0,47.22,0,94.44,0,141.82
			C489.61,145.5,418.62,145.5,347.48,145.5z"/>
		<path d="M557.83,6.16c0,45.69,0,91.18,0,136.81c-69.16,0-138.24,0-207.43,0c0-45.58,0-91.13,0-136.81
			C419.53,6.16,488.61,6.16,557.83,6.16z"/>
		<path class="st10" d="M556.61,95.83c-10.56,0-21.04,0-31.52,0c0.05,1.36,0.05,1.39,1.46,1.38c5.99-0.02,11.98-0.06,17.97-0.08
			c4-0.01,8,0,12.11,0c0,14.97,0,29.76,0,44.66c-68.33,0-136.61,0-204.95,0c0-14.87,0-29.66,0-44.39c0.69-0.42,1.33-0.25,1.92-0.25
			c47.69-0.01,95.37-0.01,143.06-0.01c3.71,0,7.41-0.01,11.12-0.03c0.7,0,1.53,0.16,1.69-1.18c-52.61,0-105.13,0-157.78,0
			c0-14.48,0-28.71,0-43.12c68.23,0,136.5,0,204.92,0C556.61,67.06,556.61,81.3,556.61,95.83z"/>
		<path class="st12" d="M556.69,7.43c0,14.51,0,28.88,0,43.41c-68.33,0-136.61,0-205.01,0c0-14.41,0-28.83,0-43.41
			C419.94,7.43,488.22,7.43,556.69,7.43z"/>
		<path d="M366.45,89.28c1.92-1.72,3.06-3.55,3.01-6.03c-1.87-1.71-3.64-3.6-4.6-6.08c-1.8-4.67,0.11-10.17,4.74-13.69
			c8.65-6.6,23.37-6.89,32.25-0.64c1.22,0.86,2.31,1.86,3.27,2.99c4.22,4.96,4.1,10.75-0.31,15.53c-3.79,4.1-8.7,5.9-14.06,6.72
			c-5.57,0.85-10.93,0.02-16.22-2.09C372.16,87.49,369.81,89.2,366.45,89.28z"/>
		<path d="M404.97,121.12c0.06,9.88-8.36,18.09-18.63,18.16c-10.35,0.07-18.87-7.98-18.91-17.86c-0.05-10.54,8.25-18.8,18.95-18.88
			C396.63,102.46,404.91,110.72,404.97,121.12z"/>
		<path d="M517.25,62.5c5.43,0,10.87-0.01,16.3,0c2.35,0,2.86,0.51,2.86,2.78c0,5.87,0,11.73-0.02,17.6
			c-0.01,2.67-0.6,3.29-3.27,3.29c-10.87,0.02-21.74,0.02-32.61,0c-2.1,0-2.63-0.57-2.63-2.62c0-6.11,0.01-12.23,0.01-18.34
			c0-2.25,0.46-2.74,2.68-2.75c5.56-0.01,11.12,0,16.67,0C517.25,62.48,517.25,62.49,517.25,62.5z"/>
		<path d="M454.33,86.28c-5.37,0-10.73,0-16.1,0c-2.45,0-2.99-0.49-3-2.85c-0.01-6.11-0.01-12.21,0-18.32
			c0-1.97,0.57-2.56,2.49-2.56c11.17-0.01,22.33-0.01,33.5,0c1.99,0,2.56,0.56,2.57,2.49c0.01,6.17,0.01,12.34-0.01,18.51
			c-0.01,2.11-0.59,2.69-2.79,2.69c-5.55,0.02-11.1,0.01-16.66,0.01C454.33,86.26,454.33,86.27,454.33,86.28z"/>
		<path d="M535.4,108.18c0.86,0.69,1.02,1.49,1.02,2.4c-0.02,6.11,0,12.23-0.02,18.34c-0.01,2.02-0.64,2.7-2.64,2.7
			c-11.11,0.01-22.23,0-33.34-0.03c-2.01-0.01-2.52-0.57-2.53-2.53c-0.01-6.24,0.02-12.47-0.03-18.71
			c-0.01-1.56,0.63-2.35,2.14-2.35c11.61,0,23.22,0.01,34.82,0.03C535,108.03,535.18,108.12,535.4,108.18z"/>
		<path d="M454.52,131.63c-5.37,0-10.75,0.01-16.12,0c-2.76,0-3.14-0.39-3.14-3.08c0-5.87-0.03-11.74-0.02-17.6
			c0-2.54,0.51-3.01,3.06-3.01c10.62,0.01,21.25,0.01,31.87,0.03c3.36,0,3.63,0.27,3.63,3.54c0,5.62-0.01,11.24-0.01,16.86
			c0,2.85-0.37,3.26-3.16,3.27c-5.37,0.02-10.75,0.01-16.12,0.01C454.52,131.64,454.52,131.64,454.52,131.63z"/>
		<path d="M509.46,96.54c1.93,0,3.27,0,4.8,0c0-2.35,0-4.6,0-6.9c1.78,0,3.35,0,5.1,0c0,2.28,0,4.47,0,6.87c1.55,0,2.93,0,4.65,0
			c-2.49,3.32-4.76,6.33-7.05,9.38C514.48,102.94,512.46,99.7,509.46,96.54z"/>
		<path d="M476.43,76.21c0-1.04,0-1.76,0-2.66c3.27,0,6.5,0,9.91,0c0-1.81,0-3.44,0-5.53c3.23,2.34,6.14,4.45,9.3,6.75
			c-3.06,2.2-5.97,4.29-9.14,6.58c0-1.84,0-3.39,0-5.13C483.09,76.21,479.86,76.21,476.43,76.21z"/>
		<path d="M423.8,73.59c0-1.88,0-3.46,0-5.39c3.23,2.31,6.21,4.43,9.34,6.66c-3.14,2.24-6.11,4.35-9.34,6.66c0-1.94,0-3.51,0-5.27
			c-3.35,0-6.59,0-9.85,0c-0.34-0.93-0.21-1.7-0.18-2.66C417.07,73.59,420.3,73.59,423.8,73.59z"/>
		<path d="M413.77,121.81c0-0.95,0-1.62,0-2.54c3.28,0,6.57,0,10.01,0c0-1.87,0-3.5,0-5.53c3.25,2.34,6.2,4.47,9.34,6.73
			c-3.1,2.18-6.07,4.27-9.32,6.55c0-1.91,0-3.48,0-5.21C420.42,121.81,417.18,121.81,413.77,121.81z"/>
		<path d="M486.41,119.24c0-1.91,0-3.55,0-5.49c3.17,2.25,6.1,4.33,9.31,6.61c-3.15,2.23-6.08,4.3-9.26,6.55c0-1.84,0-3.39,0-5.17
			c-3.41,0-6.65,0-9.85,0c-0.26-0.93-0.25-1.64-0.05-2.5C479.76,119.24,482.95,119.24,486.41,119.24z"/>
		<path d="M371.43,37.32c-0.53-0.03-1.02-0.05-1.5-0.07c-2.78-0.17-3.95-1.41-3.98-4.24c-0.02-1.73-0.05-3.46-0.04-5.19
			c0-2.46,1.3-3.78,3.73-3.84c0.06,0,0.12-0.01,0.19,0c6.15,0.86,11.43-1.17,16.4-4.64c2.72-1.9,5.74-3.36,8.61-5.04
			c1.5-0.88,2.34,0.07,3.05,1.12c1.28,1.87,1.8,4.04,2.26,6.22c1.45,6.95,1.33,13.85-0.79,20.67c-0.22,0.7-0.5,1.39-0.8,2.06
			c-0.87,1.93-2.26,2.9-4.65,1.37c-4.61-2.95-9.56-5.36-14.36-8.01c-0.87-0.48-1.74-0.49-2.8-0.27c-0.08,1.72,0.25,3.39,0.69,5.05
			c0.25,0.93,0.94,1.41,1.73,1.81c1.29,0.64,2.73,1.23,2.19,3.1c-0.33,1.15-2.9,2.07-4.39,1.63c-1.68-0.5-2.71-1.68-3.18-3.33
			C372.98,42.94,372.22,40.16,371.43,37.32z"/>
		<path d="M516.98,42.25c-5.43,0-10.86,0.01-16.28-0.01c-2.44-0.01-2.83-0.41-2.83-2.76c0-6.11,0.04-12.21-0.03-18.32
			c-0.02-1.75,0.71-2.51,2.39-2.51c11.29,0.01,22.58,0.02,33.86,0.02c1.55,0,2.28,0.79,2.28,2.27c0.01,6.35,0.01,12.71-0.03,19.06
			c-0.01,1.61-0.96,2.26-2.52,2.26C528.2,42.24,522.59,42.25,516.98,42.25C516.98,42.25,516.98,42.25,516.98,42.25z"/>
		<path d="M454.49,42.24c-5.5,0-10.99,0.01-16.49,0c-2.21-0.01-2.74-0.55-2.75-2.72c-0.01-6.05-0.02-12.11-0.02-18.16
			c0-2.18,0.54-2.73,2.75-2.74c10.93,0,21.86,0.01,32.8,0.03c2.62,0.01,3.02,0.45,3.02,3.01c0,5.93,0,11.86-0.01,17.79
			c0,2.39-0.39,2.8-2.81,2.81c-5.5,0.02-10.99,0.01-16.49,0.01C454.49,42.27,454.49,42.25,454.49,42.24z"/>
		<path d="M423.75,37.61c0-1.98,0-3.55,0-5.2c-3.35,0-6.55,0-9.7,0c-0.66-0.78-0.2-1.59-0.42-2.5c3.39,0,6.63,0,10.03,0
			c0-1.84,0-3.54,0-5.65c3.3,2.35,6.3,4.5,9.48,6.77C430.03,33.21,427.08,35.28,423.75,37.61z"/>
		<path d="M486.47,32.3c-3.5,0-6.69,0-9.83,0c-0.29-0.84-0.2-1.51-0.1-2.42c3.22,0,6.44,0,9.83,0c0-1.93,0-3.63,0-5.58
			c3.2,2.29,6.17,4.41,9.39,6.7c-3.14,2.19-6.09,4.25-9.29,6.49C486.47,35.7,486.47,34.15,486.47,32.3z"/>
		<path d="M412.2,30.97c-2.85,0-5.41,0-7.89,0c-0.5-0.69-0.34-1.27-0.13-1.96c2.59,0,5.15,0,7.73,0
			C412.48,29.59,412.11,30.25,412.2,30.97z"/>
		<path d="M410.57,18.29c0.09,1.05,0.14,1.65,0.2,2.29c-2.3,1.35-4.38,2.97-6.79,4.05c-0.55-0.29-0.74-0.8-0.97-1.5
			C405.16,21.21,407.86,20.08,410.57,18.29z"/>
		<path d="M410.84,39.46c-0.1,0.57-0.2,1.1-0.34,1.9c-2.62-1.3-5.04-2.59-7.28-4.1c-0.11-0.74,0.15-1.2,0.72-1.73
			C406.36,36.51,408.51,38.08,410.84,39.46z"/>
		<path class="st12" d="M396.36,68.64c0,2.16-0.02,4.44,0.01,6.72c0.02,1.41-0.68,2-2.04,1.99c-3.08-0.02-6.16-0.01-9.17-0.01
			c-1.78,1.28-3.03,2.96-4.66,4.43c-0.45-1.47,0.17-2.95-0.69-4.45c-1.24,0-2.58-0.01-3.93,0c-1.34,0.01-2.09-0.59-2.08-1.99
			c0-1.97,0-3.94-0.01-5.92c-0.01-1.41,0.72-1.98,2.07-1.98c6.16,0.01,12.33,0,18.49-0.02C395.15,67.43,395.79,67.65,396.36,68.64z"
			/>
		<path class="st12" d="M386.08,136.03c-7.95,0.16-15.15-6.66-15.31-14.51c-0.17-8.24,6.63-15.37,14.87-15.57
			c8.69-0.21,15.89,6.46,16.1,14.9C401.93,128.97,394.83,135.85,386.08,136.03z"/>
		<path class="st12" d="M533.86,83.67c-11.21,0-22.3,0-33.53,0c0-6.22,0-12.41,0-18.72c11.16,0,22.29,0,33.53,0
			C533.86,71.18,533.86,77.32,533.86,83.67z"/>
		<path class="st9" d="M437.67,83.72c0-6.3,0-12.4,0-18.65c11.26,0,22.44,0,33.72,0c0,6.24,0,12.39,0,18.65
			C460.14,83.72,448.99,83.72,437.67,83.72z"/>
		<path class="st12" d="M533.95,110.49c0,6.26,0,12.43,0,18.71c-11.22,0-22.36,0-33.63,0c0-6.26,0-12.41,0-18.71
			C511.48,110.49,522.61,110.49,533.95,110.49z"/>
		<path class="st12" d="M437.74,110.41c11.32,0,22.41,0,33.62,0c0,6.25,0,12.44,0,18.76c-11.22,0-22.36,0-33.62,0
			C437.74,122.98,437.74,116.78,437.74,110.41z"/>
		<path class="st12" d="M393.09,17.52c-0.94,4.42-1.54,8.57-1.44,12.77c0.1,4.19,0.47,8.36,1.48,12.82
			c-4.89-2.71-9.49-5.26-14.12-7.82c0-3.2,0-6.35,0-9.65C383.58,23,388.2,20.34,393.09,17.52z"/>
		<path class="st13" d="M394.13,33.92c0-2.36,0-4.6,0-6.85c2.52,0.03,3.68,0.97,3.76,3.02C398,32.65,397.14,33.59,394.13,33.92z"/>
		<path class="st12" d="M533.84,21.18c0,6.22,0,12.37,0,18.61c-11.18,0-22.26,0-33.49,0c0-6.2,0-12.34,0-18.61
			C511.46,21.18,522.55,21.18,533.84,21.18z"/>
		<path class="st12" d="M471.37,39.83c-11.32,0-22.42,0-33.65,0c0-6.21,0-12.35,0-18.64c11.26,0,22.4,0,33.65,0
			C471.37,27.38,471.37,33.51,471.37,39.83z"/>
		<path d="M385.12,119.64c0.71-2.31-0.44-4.88,0.94-7.18c1.22,1.01,1.92,8.59,0.93,9.92c-2.76-0.85-5.96,0.45-9.27-1.32
			C380.25,119.09,382.81,120.37,385.12,119.64z"/>
		<path d="M398.6,119.33c1.13,0.49,1.6,1.26,1.26,2.39c-0.24,0.8-0.83,1.26-1.67,1.16c-0.89-0.11-1.5-0.65-1.53-1.58
			C396.64,120.11,397.38,119.54,398.6,119.33z"/>
		<path d="M374.34,122.78c-0.98-0.09-1.76-0.48-1.76-1.64c-0.01-1.12,0.7-1.72,1.71-1.77c0.97-0.05,1.61,0.56,1.68,1.57
			C376.05,122.03,375.46,122.63,374.34,122.78z"/>
		<path d="M384.5,109.83c0.21-1.13,0.78-1.87,2-1.72c0.83,0.1,1.28,0.7,1.33,1.53c0.05,0.9-0.27,1.63-1.22,1.78
			C385.41,111.62,384.82,110.87,384.5,109.83z"/>
		<path d="M386.36,134.08c-1.04-0.09-1.67-0.62-1.72-1.61c-0.05-1.1,0.61-1.71,1.68-1.72c1.04-0.01,1.54,0.61,1.53,1.63
			C387.85,133.4,387.29,133.92,386.36,134.08z"/>
		<path d="M389.9,31.27c-1.17-0.1-1.82-0.54-1.72-1.51c0.1-0.97,0.75-1.33,1.76-1.04C390.62,29.56,390.46,30.36,389.9,31.27z"/>
	</g>
	<g>
		<g>
			<path d="M496.6,181.6c9.94,0,19.72,0,29.73,0c0,2.17-0.02,4.25,0.01,6.32c0.03,1.95,0.65,2.65,2.59,2.67
				c4.59,0.05,5.77,0.59,5.43-5.05c-0.08-1.3-0.01-2.6-0.01-3.91c2.43,0,4.65-0.14,6.84,0.04c2.31,0.19,3.81,2.12,3.82,4.66
				c0.03,8.35,0.03,16.7,0.04,25.05c0,4.5-0.01,9.01-0.03,13.51c-0.01,3.43-1.8,5.26-5.17,5.27c-18.68,0.01-37.36,0.02-56.04,0.02
				c-4.09,0-5.64-1.57-5.64-5.66c-0.01-12.49-0.01-24.99-0.02-37.48c0-3.95,1.57-5.51,5.58-5.54c1.55-0.01,3.09,0,4.75,0
				c0,2.26-0.02,4.34,0.01,6.42c0.02,2.06,0.65,2.64,2.73,2.63c1.02-0.01,2.04,0,3.06,0.02c1.57,0.03,2.33-0.75,2.33-2.3
				C496.6,186.07,496.6,183.86,496.6,181.6z"/>
			<path d="M489.84,176.8c1.63-0.81,3.3-0.34,5.32-0.51c0.52,4.38,0.19,8.63,0.25,12.99c-1.95,0-3.65,0-5.57,0
				C489.84,185.13,489.84,181.09,489.84,176.8z"/>
			<path d="M527.64,176.78c1.77-0.85,3.49-0.4,5.4-0.31c0,4.35,0,8.45,0,12.73c-1.79,0.3-3.53,0.24-5.4-0.01
				C527.64,184.99,527.64,180.94,527.64,176.78z"/>
			<path class="st10" d="M481.2,194.9c20.3,0,40.34,0,60.29,0c0.54,0.48,0.37,0.99,0.37,1.45c0.02,9.43,0.02,18.87,0.03,28.3
				c0,1.97-0.54,2.44-2.86,2.44c-17.48,0.01-34.97-0.01-52.45,0.02c-5.78,0.01-5.38,0.32-5.37-5.35
				C481.21,212.87,481.2,203.99,481.2,194.9z"/>
			<path d="M522.41,207.72c-2.72,0-5.4,0-8.22,0c0-2.5,0-4.92,0-7.46c2.71,0,5.38,0,8.22,0
				C522.41,202.7,522.41,205.17,522.41,207.72z"/>
			<path d="M527.85,213.06c2.75,0,5.43,0,8.23,0c0,2.44,0,4.86,0,7.43c-2.71,0-5.42,0-8.23,0
				C527.85,218.03,527.85,215.6,527.85,213.06z"/>
			<path d="M536.1,200.24c0,2.56,0,4.98,0,7.48c-2.77,0-5.43,0-8.2,0c0-2.5,0-4.93,0-7.48C530.62,200.24,533.28,200.24,536.1,200.24
				z"/>
			<path d="M500.58,207.65c0-2.49,0-4.87,0-7.38c2.69,0,5.31,0,8.1,0c0,2.39,0,4.81,0,7.38
				C506.07,207.65,503.41,207.65,500.58,207.65z"/>
			<path d="M500.63,213.09c2.71,0,5.37,0,8.13,0c0,2.46,0,4.84,0,7.37c-2.67,0-5.33,0-8.13,0
				C500.63,218.11,500.63,215.69,500.63,213.09z"/>
			<path d="M495.57,211.25c0.65,0.48,0.86,1.04,1.23,1.75c-2.64,2.14-4.97,4.59-6.62,7.96c-1.52-1.71-2.8-3.16-4.09-4.61
				c0.29-0.74,0.89-0.99,1.47-1.26c0.97,0.19,1.43,1.06,2.27,1.67C491.43,214.65,492.99,212.45,495.57,211.25z"/>
			<path d="M517.5,221.04c-1.6-1.87-2.8-3.27-4.03-4.7c0.41-0.64,1-0.9,1.49-1.19c1.03,0.19,1.39,1.05,2.07,1.66
				c1.59-2.11,3.16-4.23,5.64-5.43c0.61,0.27,0.85,0.81,1.26,1.49C521.4,215.11,519.22,217.68,517.5,221.04z"/>
			<path d="M495.3,198.67c0.82,0.28,0.99,0.88,1.37,1.56c-2.64,2.07-4.67,4.7-6.57,7.81c-1.47-1.64-2.76-3.07-4.03-4.48
				c0.38-0.76,0.9-1.12,1.56-1.31c0.92,0.32,1.41,1.09,2.1,1.86C491.33,201.97,492.98,199.88,495.3,198.67z"/>
		</g>
		<g>
			<path d="M447.5,198.01c-3.79,2.47-7.45,4.86-11.21,7.32c1.7,0.54,3.24,1.04,4.85,1.56c-2.74,8.41-6.84,15.83-13.25,21.93
				c0.1,0.26,0.21,0.54,0.33,0.87c9.55-4.18,15.68-11.41,19.21-20.95c1.62,0.56,3.09,1.07,4.84,1.67
				C450.61,206.11,449.07,202.11,447.5,198.01z"/>
			<path d="M426.93,190.86c-1.11,1.2-2.22,2.4-3.35,3.61c6.48,8.65,4.84,19.67-2.24,25.95c-6.92,6.13-18.11,6.5-25.49,0.61
				c-7.59-6.05-9.8-16.39-5.21-24.45c2.33-4.1,5.7-7.03,10.16-8.61c6.87-2.44,13.28-1.35,19.2,2.75c1.18-1.21,2.27-2.32,3.41-3.48
				c-9.04-7.28-24.24-7.97-33.89,2.38c-8.95,9.61-8.24,24.62,1.5,33.86c9.99,9.49,26.31,8.86,35.53-1.2
				C435.06,213.02,434.22,199.2,426.93,190.86z"/>
			<path d="M416.85,193.74c-5.84-4.7-14.74-3.65-19.61,1.02c-5.94,5.7-6.2,15.08-0.67,21.06c5.89,6.36,15.36,6.93,21.86,1.33
				c5.66-4.88,6.59-14.12,1.95-19.81c-1.05,0.96-2.09,1.92-2.96,3c3.28,5.56,1.41,11.17-2.21,13.99
				c-4.54,3.54-10.62,3.32-14.78-0.52c-3.95-3.64-4.8-9.75-1.96-14c2.85-4.28,8.72-6.95,15.65-3.23
				C415.02,195.64,415.94,194.69,416.85,193.74z"/>
			<path d="M408.4,205.57c1.04-0.13,1.98-0.11,2.77-0.91c3.42-3.44,6.9-6.82,10.37-10.21c2.89-2.83,5.72-5.73,8.4-8.76
				c0.65-0.73,1.37-1.28,2.45-0.56c-1.23,1.66-3.1,2.6-4.43,4.24c0.98,0.16,1.82,0.27,2.64,0.44c0.95,0.2,1.66,0,2.37-0.74
				c1.56-1.64,3.24-3.18,4.86-4.77c0.32-0.32,0.75-0.6,0.82-1.25c-1.88-0.2-3.68-0.43-5.49-0.57c-0.78-0.06-1.05-0.37-1.12-1.14
				c-0.14-1.62-0.39-3.24-0.63-5.1c-1.45,1.38-2.69,2.7-4.08,3.83c-1.85,1.5-3.06,3.14-2.26,5.68c0.38,1.2-0.22,2.02-1.1,2.87
				c-4.76,4.61-9.45,9.31-14.17,13.96C408.95,203.4,408.51,204.38,408.4,205.57z"/>
			<path d="M410.73,199.69c-3.34-1.3-7-0.14-8.63,2.66c-1.63,2.8-0.92,6.67,1.6,8.7c2.6,2.09,6.66,2.02,8.97-0.16
				c2.05-1.94,2.69-5.28,1.38-7.18c-1.1,0.95-1.88,2.28-3.24,2.94c-1.29,0.63-3.09,1.37-3.96,0.43c-0.93-1,0.06-2.65,0.8-3.9
				C408.43,201.85,409.67,200.95,410.73,199.69z"/>
		</g>
	</g>
	<g>
		<g>
			<path d="M462.43,263.8c9.46-0.03,17.99,5.61,21.47,14.19c3.28,8.08,1.2,18.48-4.86,24.36c-7.03,6.82-17.07,8.84-25.76,4.93
				c-2.16-0.98-4-1.2-6.15-0.21c-2.14,0.98-4.41,1.71-6.6,2.58c-0.79,0.31-1.53,0.6-2.27-0.12c-0.74-0.72-0.49-1.48-0.13-2.25
				c0.12-0.25,0.19-0.51,0.33-0.75c2.67-4.79,3.24-9.22,1.38-14.98C435.39,277.71,447.18,263.84,462.43,263.8z M455.89,285.79
				c-0.03,0-0.05,0-0.08,0c0,2.46-0.02,4.93,0.01,7.39c0.02,1.91,0.87,2.87,2.76,1.85c4.33-2.32,8.64-4.69,12.89-7.16
				c1.41-0.82,1.52-2.17,0.08-3.06c-4.26-2.63-8.58-5.17-12.93-7.64c-1.78-1.01-2.76-0.32-2.73,1.77
				C455.92,281.23,455.89,283.51,455.89,285.79z"/>
			<path class="st12" d="M455.89,285.79c0-2.28,0.03-4.56-0.01-6.84c-0.03-2.09,0.95-2.77,2.73-1.77c4.36,2.47,8.67,5.01,12.93,7.64
				c1.45,0.89,1.33,2.24-0.08,3.06c-4.25,2.47-8.56,4.84-12.89,7.16c-1.89,1.01-2.73,0.06-2.76-1.85c-0.03-2.46-0.01-4.93-0.01-7.39
				C455.84,285.79,455.87,285.79,455.89,285.79z"/>
		</g>
		<g>
			<path d="M406.15,302.13c-2.9-0.2-6.18-0.54-9.06-2.3c-1.45-0.88-2.83-0.54-3.22,0.65c-1.07,3.28-3.98,4.85-6,7.22
				c-0.41,0.48-0.94,0.87-1.36,1.35c-4.03,4.55-5.5,3.27-9.21-1.09c-1.21-1.42-0.98-3.12,0.56-4.35c2.43-1.95,4.55-4.19,6.62-6.51
				c0.36-0.4,0.77-0.8,1.24-1.06c3.8-2.12,3.79-2.11,2.3-6.3c-2.81-7.88-1.07-14.92,4.88-20.48c5.92-5.53,13.11-6.98,20.78-3.81
				c7.64,3.16,11.72,9.11,12.09,17.31C426.24,293.07,417.13,302.09,406.15,302.13z M420.54,282.86c-0.04-7.63-6.51-14-14.22-14.01
				c-7.89-0.01-14.44,6.57-14.38,14.45c0.06,7.44,6.6,13.74,14.2,13.67C414.11,296.91,420.59,290.57,420.54,282.86z"/>
			<path class="st10" d="M420.54,282.86c0.04,7.7-6.43,14.05-14.41,14.12c-7.6,0.07-14.14-6.24-14.2-13.67
				c-0.06-7.88,6.49-14.46,14.38-14.45C414.04,268.86,420.5,275.23,420.54,282.86z M416.48,282.1c-2.26,7.32-7.42,10.04-14.76,9.55
				c4.19,2.58,8.03,2.03,11.56-0.68C416.14,288.77,417.31,285.79,416.48,282.1z"/>
			<path d="M416.48,282.1c0.83,3.7-0.34,6.68-3.21,8.87c-3.53,2.71-7.37,3.26-11.56,0.68C409.06,292.14,414.22,289.41,416.48,282.1z
				"/>
		</g>
		<g>
			<path d="M546.93,267.72h-45.7c-2.65,0-4.8,2.15-4.8,4.8v28.72c0,2.65,2.15,4.8,4.8,4.8h45.7c2.65,0,4.8-2.15,4.8-4.8v-28.72
				C551.73,269.87,549.58,267.72,546.93,267.72z"/>
			<path class="st12" d="M524.08,287.59c0.57,0,1.14-0.17,1.5-0.45l20.37-15.28h-43.74l20.37,15.28
				C522.95,287.42,523.51,287.6,524.08,287.59z"/>
			<path class="st10" d="M524.08,289.55c-0.94,0-1.89-0.26-2.68-0.84l-20.82-15.62v27.4l10.99-13.58c0.34-0.42,0.96-0.48,1.38-0.14
				c0,0,0,0,0,0c0.42,0.34,0.49,0.96,0.15,1.38L502,301.86c-0.01,0.01-0.02,0.02-0.04,0.04h44.25c-0.01-0.01-0.03-0.02-0.04-0.04
				l-11.1-13.71c-0.34-0.42-0.28-1.04,0.15-1.38c0.42-0.34,1.04-0.28,1.38,0.14l10.99,13.58v-27.4l-20.82,15.62
				C525.98,289.29,525.02,289.55,524.08,289.55z"/>
		</g>
	</g>
</g>
</svg>
