<?xml version="1.0" encoding="utf-8"?>
<!-- Generator: Adobe Illustrator 25.0.0, SVG Export Plug-In . SVG Version: 6.00 Build 0)  -->
<svg version="1.1" id="Layer_1" xmlns="http://www.w3.org/2000/svg" xmlns:xlink="http://www.w3.org/1999/xlink" x="0px" y="0px"
	 viewBox="0 0 156.02 165.4" style="enable-background:new 0 0 156.02 165.4;" xml:space="preserve">
<style type="text/css">
	.st0{fill:#185AE9;}
	.st1{fill:#00B0FB;}
	.st2{fill-rule:evenodd;clip-rule:evenodd;fill:#00B0FB;}
	.st3{fill:none;}
	.st4{fill:#00B0FB;fill-opacity:0.4;}
	.st5{fill:#FFFFFF;}
	.st6{fill:#3C7CFF;}
	.st7{fill:#001135;}
</style>
<g>
	<path class="st6" d="M81.74,151.34c-1.56-1.56-1.56-4.1,0-5.65l2.73-2.73c0.15-0.15,0.23-0.35,0.23-0.57s-0.08-0.42-0.23-0.57
		l-15.11-15.11c-0.16-0.16-0.36-0.23-0.57-0.23c-0.17,0-0.33,0.05-0.47,0.16c-0.7,0.52-1.38,1.1-2.01,1.72l-13.11,13.11
		c-0.31,0.31-0.31,0.82,0,1.13l3.09,3.09c0.76,0.75,1.17,1.76,1.17,2.83c0,1.05-0.42,2.08-1.17,2.83l-1.81,1.81
		c-0.21,0.21-0.28,0.51-0.2,0.79c0.08,0.28,0.31,0.49,0.59,0.56c4.63,1.05,9.38,1.59,14.13,1.59c4.75,0,9.51-0.54,14.13-1.59
		c0.28-0.06,0.51-0.28,0.59-0.56c0.08-0.28,0-0.58-0.2-0.79L81.74,151.34z"/>
	<path class="st5" d="M35.67,72L35.67,72c-1.43,0-2.82,0.58-3.82,1.58c-1.02,1.02-1.58,2.37-1.58,3.82c0,1.44,0.56,2.8,1.58,3.82
		l14.92,14.92c1.01,1.01,2.37,1.57,3.82,1.57c1.42,0,2.75-0.54,3.76-1.51c1.04-1,1.63-2.4,1.64-3.84c0.02-1.44-0.56-2.84-1.58-3.86
		L39.49,73.58C38.47,72.56,37.12,72,35.67,72z"/>
	<path class="st5" d="M28.75,85.01c-1.44,0-2.79,0.56-3.81,1.58c-2.1,2.1-2.1,5.53,0,7.63l7.95,7.95c1.01,1.01,2.37,1.57,3.82,1.57
		c1.42,0,2.75-0.54,3.76-1.51c1.04-1,1.63-2.4,1.64-3.84c0.02-1.43-0.56-2.84-1.58-3.86l-7.95-7.95c-1.02-1.02-2.37-1.58-3.81-1.58
		H28.75z"/>
	<path class="st5" d="M24.36,113.41c0,0.21,0.08,0.42,0.23,0.57l25.16,25.16c0.16,0.16,0.36,0.23,0.57,0.23s0.41-0.08,0.57-0.23
		l13.11-13.11c3.94-3.94,9.4-6.2,14.97-6.2c0.26,0,0.52,0,0.78,0.01l4.66,0.17c0.22,0.01,0.44,0.01,0.65,0.01c0,0,0,0,0,0
		c3,0,5.98-0.77,8.62-2.22c0.06-0.03,0.12-0.08,0.17-0.12l25.85-24.87c2.12-2.12,2.24-5.54,0.27-7.64
		c-1.01-1.08-2.38-1.69-3.86-1.71c0,0-0.1,0-0.1,0c-1.44,0-2.79,0.56-3.81,1.58c-0.31,0.31-0.72,0.48-1.16,0.48
		c-0.44,0-0.85-0.17-1.16-0.48c-0.31-0.31-0.48-0.72-0.48-1.16s0.17-0.85,0.48-1.16c1.02-1.02,1.58-2.37,1.58-3.82
		s-0.56-2.8-1.58-3.82c-1.02-1.02-2.37-1.58-3.82-1.58c-1.43,0-2.82,0.58-3.82,1.58c-0.31,0.31-0.72,0.48-1.16,0.48
		c-0.44,0-0.85-0.17-1.16-0.48c-0.64-0.64-0.64-1.69,0-2.33c2.1-2.11,2.1-5.53,0-7.63c-1.02-1.02-2.37-1.58-3.82-1.58
		s-2.8,0.56-3.82,1.58c-0.31,0.31-0.72,0.48-1.16,0.48c-0.44,0-0.85-0.17-1.16-0.48c-0.64-0.64-0.64-1.69,0-2.33
		c2.1-2.11,2.1-5.53,0-7.63c-1.02-1.02-2.37-1.58-3.82-1.58s-2.8,0.56-3.82,1.58l-7.81,7.81c-0.31,0.31-0.31,0.82,0,1.13l3.58,3.58
		c1.69,1.69,2.6,3.94,2.54,6.34c-0.05,2.39-1.06,4.6-2.83,6.22c-1.36,1.24-3.04,2-4.88,2.19c-0.23,0.02-0.44,0.15-0.57,0.34
		c-0.13,0.19-0.18,0.43-0.12,0.66c0.19,0.74,0.29,1.5,0.28,2.27c-0.02,2.35-0.96,4.54-2.64,6.17c-1.62,1.57-3.77,2.43-6.05,2.43
		c-1.25,0-2.46-0.26-3.59-0.77c-0.1-0.05-0.22-0.07-0.33-0.07c-0.13,0-0.25,0.03-0.36,0.09c-0.22,0.11-0.37,0.31-0.42,0.55
		c-0.35,1.7-1.2,3.25-2.46,4.48c-1.62,1.57-3.77,2.43-6.05,2.43c-1.5,0-2.97-0.38-4.27-1.11c-0.12-0.07-0.26-0.1-0.39-0.1
		c-0.11,0-0.22,0.02-0.32,0.07c-0.23,0.1-0.4,0.3-0.46,0.55c-0.38,1.6-1.21,3.05-2.4,4.2c-1.62,1.57-3.77,2.43-6.05,2.43
		c-1.52,0-3.01-0.39-4.32-1.14c-0.12-0.07-0.26-0.1-0.4-0.1c-0.21,0-0.41,0.08-0.57,0.23l-6.83,6.83
		C24.45,113,24.36,113.2,24.36,113.41z"/>
	<path class="st5" d="M45.64,62.04h-0.01c-1.42,0-2.8,0.58-3.8,1.58c-1.02,1.02-1.58,2.38-1.58,3.82c0,1.44,0.56,2.8,1.58,3.82
		l18.17,18.17c1.01,1.01,2.37,1.57,3.82,1.57c1.42,0,2.75-0.54,3.76-1.51c1.04-1,1.63-2.4,1.64-3.84c0.02-1.44-0.56-2.84-1.58-3.86
		L49.45,63.62C48.43,62.6,47.08,62.04,45.64,62.04z"/>
	<path class="st6" d="M17.45,111.49c-0.16-0.16-0.36-0.23-0.57-0.23s-0.41,0.08-0.57,0.23L3.56,124.25
		c-0.15,0.15-0.23,0.35-0.23,0.57s0.08,0.42,0.23,0.57l36.45,36.45c0.15,0.15,0.35,0.23,0.57,0.23c0.21,0,0.42-0.08,0.57-0.23
		l12.76-12.76c0.31-0.31,0.31-0.82,0-1.13L17.45,111.49z"/>
	<path class="st5" d="M70.56,61.9c0.21,0,0.42-0.08,0.57-0.23l6.97-6.97c0.26-0.26,0.31-0.66,0.12-0.98
		c-0.97-1.61-2.74-2.61-4.62-2.61c0,0-12.58,0-12.58,0c-1.22,0-2.21,0.99-2.21,2.21v1.6c0,3.85,3.14,6.99,6.99,6.99H70.56z"/>
	<path class="st5" d="M55.53,53c0.01-0.25-0.09-0.48-0.27-0.64c-0.15-0.13-0.33-0.2-0.53-0.2c-0.05,0-0.1,0-0.15,0.01
		c-1.06,0.2-2.03,0.71-2.8,1.48c-2.1,2.1-2.1,5.53,0,7.63l16.17,16.17c1.07,1.07,2.54,1.68,4.05,1.68c1.34,0,2.61-0.48,3.56-1.35
		c1.1-1.01,1.73-2.38,1.76-3.87c0.04-1.47-0.54-2.9-1.58-3.94l-4.55-4.55c-0.15-0.15-0.35-0.23-0.57-0.23h-4.83
		c-5.67,0-10.28-4.61-10.28-10.28v-1.6C55.51,53.25,55.53,53,55.53,53z"/>
	<path class="st7" d="M149.27,9.58c-0.06,0-0.12,0.01-0.19,0.02c-0.75,0.18-1.55,0.27-2.36,0.27c-3.46,0-7-1.66-10.43-3.26
		c-3.49-1.64-7.1-3.33-10.63-3.33c-3.52,0-7.13,1.69-10.62,3.32c-3.43,1.6-6.97,3.26-10.43,3.26c-0.81,0-1.6-0.09-2.36-0.27
		c-0.06-0.02-0.13-0.02-0.19-0.02c-0.33,0-0.64,0.21-0.76,0.54c-1.79,5.23-2.7,10.71-2.7,16.29c0,9.28,2.51,17.67,7.46,24.93
		c4.54,6.67,11.01,12.23,19.23,16.54c0.12,0.06,0.24,0.09,0.37,0.09s0.26-0.03,0.37-0.09c8.21-4.31,14.68-9.87,19.23-16.53
		c4.95-7.26,7.46-15.65,7.46-24.94c0-5.57-0.91-11.05-2.7-16.29C149.92,9.79,149.61,9.58,149.27,9.58z M125.28,50.84
		c-10.21,0-18.52-8.31-18.52-18.53s8.31-18.53,18.52-18.53c10.22,0,18.53,8.31,18.53,18.53S135.5,50.84,125.28,50.84z"/>
	<path class="st6" d="M125.28,17.18c-8.34,0-15.12,6.79-15.12,15.13s6.78,15.13,15.12,15.13c8.34,0,15.13-6.79,15.13-15.13
		S133.62,17.18,125.28,17.18z M133.61,30.12l-8.37,8.37c-0.27,0.27-0.62,0.41-0.99,0.41c-0.38,0-0.73-0.15-0.99-0.41l-6.31-6.31
		c-0.54-0.54-0.54-1.43,0-1.98c0.27-0.27,0.62-0.42,1-0.42c0.37,0,0.72,0.14,0.99,0.41l4.75,4.75c0.15,0.15,0.35,0.23,0.57,0.23
		s0.42-0.08,0.57-0.23l6.81-6.81c0.27-0.27,0.62-0.41,0.99-0.41c0.38,0,0.73,0.15,0.99,0.41C134.16,28.68,134.16,29.57,133.61,30.12
		z"/>
	<path class="st5" d="M95.5,120.65c-0.34,0.33-0.71,0.44-0.97,0.47c-0.09,0.01-0.17,0.04-0.25,0.07c-2.86,1.39-6.04,2.12-9.21,2.12
		c-0.26,0-0.53,0-0.79-0.02l-4.66-0.17c-0.22-0.01-0.44-0.01-0.65-0.01c-2,0-3.99,0.34-5.91,1.01c-0.26,0.09-0.45,0.31-0.52,0.58
		c-0.06,0.27,0.02,0.55,0.21,0.74l14.04,14.04c0.15,0.15,0.35,0.23,0.57,0.23s0.42-0.08,0.57-0.23l25.96-25.96
		c0.15-0.15,0.23-0.35,0.23-0.57s-0.08-0.42-0.23-0.57l-4-4c-0.16-0.16-0.36-0.23-0.57-0.23c-0.19,0-0.39,0.07-0.54,0.21
		L95.5,120.65z"/>
	<path class="st6" d="M128.83,70.43c-0.09-0.04-0.19-0.05-0.29-0.05c-0.13,0-0.26,0.03-0.38,0.09c0,0-0.76,0.41-1,0.53
		c-0.46,0.24-0.98,0.36-1.5,0.36c-0.52,0-1.04-0.13-1.5-0.36c-15.9-8.21-25.65-20.79-28.19-36.4c-0.04-0.26-0.21-0.49-0.46-0.6
		c-8.36-3.82-17.27-5.76-26.5-5.76c-35.24,0-63.91,28.67-63.91,63.91c0,7.11,1.17,14.11,3.47,20.79c0.09,0.26,0.31,0.46,0.58,0.52
		c0.06,0.01,0.12,0.02,0.18,0.02c0.21,0,0.41-0.08,0.57-0.23l4.16-4.16c0.75-0.75,1.76-1.17,2.83-1.17c1.07,0,2.07,0.42,2.83,1.17
		l1.42,1.42c0.16,0.16,0.36,0.23,0.57,0.23s0.41-0.08,0.57-0.23l6.59-6.59c0.15-0.15,0.23-0.35,0.23-0.57s-0.08-0.42-0.23-0.57
		l-6.24-6.24c-1.64-1.64-2.54-3.82-2.54-6.15s0.9-4.51,2.54-6.15c1.22-1.23,2.77-2.05,4.47-2.38c0.24-0.05,0.44-0.2,0.55-0.41
		s0.12-0.47,0.03-0.69c-0.45-1.07-0.69-2.21-0.69-3.39c0-2.32,0.9-4.5,2.55-6.15c1.64-1.64,3.82-2.54,6.15-2.54
		c0.15,0,0.3,0,0.44,0.01c0.01,0,0.03,0,0.04,0c0.21,0,0.41-0.08,0.56-0.23c0.16-0.16,0.25-0.38,0.23-0.61
		c-0.01-0.15-0.01-0.3-0.01-0.45c0-2.32,0.9-4.5,2.55-6.15c1.64-1.64,3.82-2.54,6.15-2.54c0.15,0,0.3,0,0.45,0.01
		c0.01,0,0.03,0,0.04,0c0.21,0,0.41-0.08,0.56-0.23c0.16-0.16,0.25-0.38,0.23-0.61c-0.12-2.46,0.8-4.86,2.53-6.59
		c1.63-1.63,3.81-2.53,6.13-2.53c0.55,0,1.11,0.05,1.65,0.16c0.05,0.01,0.1,0.01,0.15,0.01c0.16,0,0.33-0.05,0.46-0.15
		c0.94-0.66,2.03-1.01,3.16-1.01h12.58c2.73,0,5.33,1.31,6.97,3.51c0.16,0.21,0.4,0.32,0.64,0.32c0.14,0,0.29-0.04,0.41-0.12
		c1.35-0.82,2.91-1.25,4.51-1.25c2.32,0,4.5,0.9,6.14,2.54c1.73,1.73,2.66,4.14,2.53,6.59c-0.01,0.23,0.07,0.45,0.23,0.61
		c0.15,0.15,0.35,0.23,0.57,0.23c0.01,0,0.03,0,0.04,0c0.15-0.01,0.3-0.01,0.44-0.01c2.33,0,4.51,0.9,6.15,2.54
		c1.73,1.73,2.65,4.13,2.53,6.59c-0.01,0.23,0.07,0.45,0.23,0.61c0.15,0.15,0.35,0.23,0.57,0.23c0.01,0,0.03,0,0.04,0
		c0.15-0.01,0.3-0.01,0.45-0.01c2.32,0,4.5,0.9,6.15,2.54c1.73,1.73,2.65,4.13,2.53,6.59c-0.01,0.23,0.07,0.45,0.23,0.61
		c0.15,0.15,0.35,0.23,0.57,0.23c0.01,0,0.03,0,0.04,0c0.15-0.01,0.29-0.01,0.44-0.01l0.15,0c2.38,0.04,4.58,1.02,6.21,2.76
		c3.16,3.38,3.01,8.86-0.34,12.21l-9.81,9.81c-0.15,0.15-0.23,0.35-0.23,0.57s0.08,0.42,0.23,0.57l4,4
		c0.15,0.15,0.35,0.23,0.57,0.23s0.42-0.08,0.57-0.23l0.97-0.97c0.75-0.75,1.76-1.17,2.83-1.17c1.07,0,2.07,0.42,2.83,1.17
		l4.16,4.16c0.15,0.15,0.36,0.23,0.57,0.23c0.06,0,0.12-0.01,0.18-0.02c0.27-0.06,0.49-0.26,0.58-0.52
		c2.31-6.68,3.47-13.68,3.47-20.79c0-7.27-1.22-14.42-3.63-21.25C129.22,70.69,129.05,70.52,128.83,70.43z"/>
	<path class="st6" d="M121.15,111.26c-0.21,0-0.42,0.08-0.57,0.23l-36.45,36.45c-0.31,0.31-0.31,0.82,0,1.13l12.76,12.76
		c0.15,0.15,0.35,0.23,0.57,0.23s0.42-0.08,0.57-0.23l36.45-36.45c0.31-0.31,0.31-0.82,0-1.13l-12.76-12.76
		C121.57,111.34,121.37,111.26,121.15,111.26z"/>
	<path class="st7" d="M125.28,13.78c-10.21,0-18.52,8.31-18.52,18.53s8.31,18.53,18.52,18.53c10.22,0,18.53-8.31,18.53-18.53
		S135.5,13.78,125.28,13.78z M125.28,47.44c-8.34,0-15.12-6.79-15.12-15.13s6.78-15.13,15.12-15.13c8.34,0,15.13,6.79,15.13,15.13
		S133.62,47.44,125.28,47.44z"/>
	<path class="st7" d="M149.77,6.11c-0.33,0-0.66,0.05-0.98,0.16c-0.63,0.21-1.33,0.31-2.06,0.31c-2.75,0-5.81-1.43-9.04-2.94
		C134.05,1.93,129.93,0,125.67,0s-8.38,1.93-12.02,3.64c-3.23,1.51-6.29,2.94-9.04,2.94c-0.73,0-1.43-0.1-2.06-0.31
		c-0.32-0.1-0.65-0.16-0.98-0.16c-1.39,0-2.64,0.87-3.1,2.18c-2.09,5.81-3.15,11.91-3.15,18.12c0,0.82,0.02,1.7,0.08,2.7
		c0.01,0.27-0.11,0.54-0.34,0.69c-0.14,0.1-0.3,0.15-0.46,0.15c-0.1,0-0.2-0.02-0.3-0.06c-8.04-3.28-16.55-4.94-25.27-4.94
		c-37.06,0-67.21,30.15-67.21,67.21c0,8.27,1.5,16.37,4.46,24.05c0.11,0.29,0.04,0.63-0.18,0.85l-4.92,4.92
		c-1.56,1.56-1.56,4.1,0,5.66l36.59,36.59c0.75,0.75,1.76,1.17,2.83,1.17c1.07,0,2.07-0.42,2.83-1.17l7.05-7.05
		c0.15-0.15,0.36-0.23,0.57-0.23c0.07,0,0.14,0.01,0.21,0.03c5.78,1.59,11.76,2.39,17.78,2.39c6.02,0,12.01-0.81,17.78-2.39
		c0.07-0.02,0.14-0.03,0.21-0.03c0.21,0,0.41,0.08,0.57,0.23l7.05,7.05c0.75,0.76,1.76,1.17,2.83,1.17c1.07,0,2.07-0.42,2.83-1.17
		l36.59-36.59c0.75-0.74,1.17-1.77,1.17-2.83c0-1.07-0.42-2.07-1.17-2.83l-4.92-4.92c-0.22-0.22-0.29-0.56-0.18-0.85
		c2.96-7.69,4.46-15.78,4.46-24.05c0-7.96-1.39-15.77-4.14-23.21c-0.13-0.35,0-0.75,0.32-0.95c15.23-9.71,23.62-24.47,23.62-41.58
		c0-6.21-1.06-12.31-3.15-18.12C152.4,6.99,151.16,6.11,149.77,6.11z M53.91,149.07l-12.76,12.76c-0.15,0.15-0.35,0.23-0.57,0.23
		c-0.21,0-0.42-0.08-0.57-0.23L3.56,125.38c-0.15-0.15-0.23-0.35-0.23-0.57s0.08-0.42,0.23-0.57l12.76-12.76
		c0.16-0.16,0.36-0.23,0.57-0.23s0.41,0.08,0.57,0.23l36.45,36.45C54.22,148.26,54.22,148.76,53.91,149.07z M65.79,65.19h4.83
		c0.21,0,0.42,0.08,0.57,0.23l4.55,4.55c1.04,1.04,1.62,2.47,1.58,3.94c-0.03,1.49-0.66,2.86-1.76,3.87
		c-0.95,0.87-2.22,1.35-3.56,1.35c-1.51,0-2.98-0.61-4.05-1.68L51.78,61.29c-2.1-2.11-2.1-5.53,0-7.63c0.77-0.77,1.74-1.28,2.8-1.48
		c0.05-0.01,0.1-0.01,0.15-0.01c0.19,0,0.38,0.07,0.53,0.2c0.18,0.16,0.29,0.4,0.27,0.64c0,0-0.02,0.24-0.02,0.3v1.6
		C55.51,60.58,60.12,65.19,65.79,65.19z M58.8,54.91v-1.6c0-1.22,0.99-2.21,2.21-2.21c0,0,12.58,0,12.58,0c1.88,0,3.65,1,4.62,2.61
		c0.19,0.32,0.14,0.72-0.12,0.98l-6.97,6.97c-0.15,0.15-0.35,0.23-0.57,0.23h-4.77C61.94,61.9,58.8,58.76,58.8,54.91z M67.62,81.79
		c1.02,1.01,1.6,2.42,1.58,3.86c-0.01,1.44-0.61,2.84-1.64,3.84C66.56,90.46,65.22,91,63.81,91c-1.45,0-2.8-0.56-3.82-1.57
		L41.82,71.25c-1.02-1.02-1.58-2.38-1.58-3.82c0-1.44,0.56-2.8,1.58-3.82c1-1.01,2.39-1.58,3.8-1.58h0.01c1.44,0,2.8,0.56,3.82,1.58
		L67.62,81.79z M54.41,88.5c1.02,1.02,1.6,2.42,1.58,3.86c-0.01,1.44-0.61,2.84-1.64,3.84c-1.01,0.98-2.34,1.51-3.76,1.51
		c-1.45,0-2.8-0.56-3.82-1.57L31.85,81.22c-1.02-1.02-1.58-2.38-1.58-3.82c0-1.44,0.56-2.8,1.58-3.82c1-1,2.39-1.58,3.81-1.58h0.01
		c1.44,0,2.8,0.56,3.82,1.58L54.41,88.5z M32.57,86.59l7.95,7.95c1.02,1.01,1.6,2.42,1.58,3.86c-0.01,1.44-0.61,2.84-1.64,3.84
		c-1.01,0.98-2.34,1.51-3.76,1.51c-1.45,0-2.8-0.56-3.82-1.57l-7.95-7.95c-2.1-2.1-2.1-5.53,0-7.63c1.02-1.02,2.37-1.58,3.81-1.58
		h0.01C30.2,85.01,31.55,85.57,32.57,86.59z M31.99,105.79c0.13,0,0.27,0.03,0.4,0.1c1.31,0.75,2.8,1.14,4.32,1.14
		c2.28,0,4.43-0.86,6.05-2.43c1.19-1.15,2.02-2.61,2.4-4.2c0.06-0.24,0.23-0.45,0.46-0.55c0.1-0.04,0.21-0.07,0.32-0.07
		c0.13,0,0.27,0.03,0.39,0.1c1.3,0.73,2.77,1.11,4.27,1.11c2.28,0,4.43-0.86,6.05-2.43c1.26-1.22,2.12-2.77,2.46-4.48
		c0.05-0.24,0.2-0.44,0.42-0.55c0.11-0.06,0.24-0.09,0.36-0.09c0.11,0,0.22,0.02,0.33,0.07c1.14,0.51,2.34,0.77,3.59,0.77
		c2.28,0,4.43-0.86,6.05-2.43c1.69-1.63,2.62-3.83,2.64-6.17c0.01-0.77-0.09-1.53-0.28-2.27c-0.06-0.23-0.02-0.46,0.12-0.66
		c0.13-0.19,0.34-0.32,0.57-0.34c1.84-0.19,3.52-0.95,4.88-2.19c1.77-1.62,2.77-3.83,2.83-6.22c0.05-2.39-0.85-4.65-2.54-6.34
		l-3.58-3.58c-0.31-0.31-0.31-0.82,0-1.13l7.81-7.81c1.02-1.02,2.38-1.58,3.82-1.58s2.8,0.56,3.82,1.58c2.1,2.1,2.1,5.52,0,7.63
		c-0.64,0.64-0.64,1.69,0,2.33c0.31,0.31,0.72,0.48,1.16,0.48c0.44,0,0.85-0.17,1.16-0.48c1.02-1.02,2.37-1.58,3.82-1.58
		s2.8,0.56,3.82,1.58c2.1,2.1,2.1,5.52,0,7.63c-0.64,0.64-0.64,1.69,0,2.33c0.31,0.31,0.72,0.48,1.16,0.48
		c0.44,0,0.85-0.17,1.16-0.48c1-1.01,2.39-1.58,3.82-1.58c1.44,0,2.8,0.56,3.82,1.58c1.02,1.02,1.58,2.37,1.58,3.82
		s-0.56,2.8-1.58,3.82c-0.31,0.31-0.48,0.72-0.48,1.16s0.17,0.85,0.48,1.16c0.31,0.31,0.72,0.48,1.16,0.48
		c0.44,0,0.85-0.17,1.16-0.48c1.02-1.02,2.37-1.58,3.81-1.58c0,0,0.1,0,0.1,0c1.48,0.02,2.84,0.63,3.86,1.71
		c1.96,2.1,1.85,5.52-0.27,7.64l-25.85,24.87c-0.05,0.05-0.11,0.09-0.17,0.12c-2.64,1.45-5.62,2.22-8.62,2.22c0,0,0,0,0,0
		c-0.22,0-0.44,0-0.65-0.01l-4.66-0.17c-0.26-0.01-0.52-0.01-0.78-0.01c-5.57,0-11.03,2.26-14.97,6.2l-13.11,13.11
		c-0.16,0.16-0.36,0.23-0.57,0.23s-0.41-0.08-0.57-0.23L24.6,113.98c-0.15-0.15-0.23-0.35-0.23-0.57s0.08-0.42,0.23-0.57l6.83-6.83
		C31.58,105.87,31.78,105.79,31.99,105.79z M109.89,108.39l4,4c0.15,0.15,0.23,0.35,0.23,0.57s-0.08,0.42-0.23,0.57l-25.96,25.96
		c-0.15,0.15-0.35,0.23-0.57,0.23s-0.42-0.08-0.57-0.23l-14.04-14.04c-0.19-0.19-0.28-0.48-0.21-0.74c0.06-0.27,0.26-0.49,0.52-0.58
		c1.92-0.67,3.9-1.01,5.91-1.01c0.22,0,0.44,0,0.65,0.01l4.66,0.17c0.26,0.01,0.53,0.02,0.79,0.02c3.17,0,6.35-0.73,9.21-2.12
		c0.08-0.04,0.16-0.06,0.25-0.07c0.26-0.03,0.63-0.14,0.97-0.47l13.28-12.28c0.15-0.14,0.35-0.21,0.54-0.21
		C109.53,108.16,109.73,108.24,109.89,108.39z M83.75,153.93c-0.08,0.28-0.31,0.49-0.59,0.56c-4.63,1.05-9.38,1.59-14.13,1.59
		c-4.75,0-9.51-0.54-14.13-1.59c-0.28-0.06-0.51-0.28-0.59-0.56c-0.08-0.28,0-0.58,0.2-0.79l1.81-1.81
		c0.75-0.74,1.17-1.77,1.17-2.83c0-1.07-0.42-2.07-1.17-2.83l-3.09-3.09c-0.31-0.31-0.31-0.82,0-1.13l13.11-13.11
		c0.63-0.62,1.3-1.2,2.01-1.72c0.14-0.1,0.31-0.16,0.47-0.16c0.21,0,0.41,0.08,0.57,0.23l15.11,15.11c0.15,0.15,0.23,0.35,0.23,0.57
		s-0.08,0.42-0.23,0.57l-2.73,2.73c-1.56,1.56-1.56,4.09,0,5.65l1.8,1.8C83.75,153.35,83.83,153.65,83.75,153.93z M134.48,124.25
		c0.31,0.31,0.31,0.82,0,1.13l-36.45,36.45c-0.15,0.15-0.35,0.23-0.57,0.23s-0.42-0.08-0.57-0.23l-12.76-12.76
		c-0.31-0.31-0.31-0.82,0-1.13l36.45-36.45c0.15-0.15,0.35-0.23,0.57-0.23s0.42,0.08,0.57,0.23L134.48,124.25z M132.94,92.16
		c0,7.11-1.17,14.11-3.47,20.79c-0.09,0.26-0.31,0.46-0.58,0.52c-0.06,0.01-0.12,0.02-0.18,0.02c-0.21,0-0.41-0.08-0.57-0.23
		l-4.16-4.16c-0.75-0.75-1.76-1.17-2.83-1.17c-1.07,0-2.07,0.42-2.83,1.17l-0.97,0.97c-0.15,0.15-0.35,0.23-0.57,0.23
		s-0.42-0.08-0.57-0.23l-4-4c-0.15-0.15-0.23-0.35-0.23-0.57s0.08-0.42,0.23-0.57l9.81-9.81c3.35-3.35,3.5-8.83,0.34-12.21
		c-1.63-1.74-3.83-2.72-6.21-2.76l-0.15,0c-0.15,0-0.3,0-0.44,0.01c-0.01,0-0.03,0-0.04,0c-0.21,0-0.42-0.08-0.57-0.23
		c-0.16-0.16-0.24-0.38-0.23-0.61c0.12-2.46-0.8-4.86-2.53-6.59c-1.64-1.64-3.82-2.54-6.15-2.54c-0.15,0-0.3,0-0.45,0.01
		c-0.01,0-0.03,0-0.04,0c-0.21,0-0.42-0.08-0.57-0.23c-0.16-0.16-0.24-0.38-0.23-0.61c0.12-2.46-0.8-4.86-2.53-6.59
		c-1.64-1.64-3.82-2.54-6.15-2.54c-0.15,0-0.3,0-0.44,0.01c-0.01,0-0.03,0-0.04,0c-0.21,0-0.42-0.08-0.57-0.23
		c-0.16-0.16-0.24-0.38-0.23-0.61c0.13-2.46-0.8-4.86-2.53-6.59c-1.64-1.64-3.82-2.54-6.14-2.54c-1.6,0-3.15,0.43-4.51,1.25
		c-0.13,0.08-0.27,0.12-0.41,0.12c-0.25,0-0.49-0.11-0.64-0.32c-1.64-2.2-4.24-3.51-6.97-3.51H61.01c-1.14,0-2.23,0.35-3.16,1.01
		c-0.14,0.1-0.3,0.15-0.46,0.15c-0.05,0-0.1,0-0.15-0.01c-0.54-0.1-1.1-0.16-1.65-0.16c-2.32,0-4.5,0.9-6.13,2.53
		c-1.73,1.73-2.65,4.13-2.53,6.59c0.01,0.23-0.07,0.45-0.23,0.61c-0.15,0.15-0.35,0.23-0.56,0.23c-0.01,0-0.03,0-0.04,0
		c-0.15-0.01-0.3-0.01-0.45-0.01c-2.32,0-4.5,0.9-6.15,2.54c-1.64,1.64-2.55,3.83-2.55,6.15c0,0.15,0,0.3,0.01,0.45
		c0.01,0.23-0.07,0.45-0.23,0.61c-0.15,0.15-0.35,0.23-0.56,0.23c-0.01,0-0.03,0-0.04,0c-0.15-0.01-0.3-0.01-0.44-0.01
		c-2.33,0-4.51,0.9-6.15,2.54c-1.64,1.64-2.55,3.83-2.55,6.15c0,1.18,0.23,2.32,0.69,3.39c0.09,0.22,0.08,0.48-0.03,0.69
		s-0.32,0.36-0.55,0.41c-1.7,0.33-3.24,1.15-4.47,2.38c-1.64,1.64-2.54,3.82-2.54,6.15s0.9,4.51,2.54,6.15l6.24,6.24
		c0.15,0.15,0.23,0.35,0.23,0.57s-0.08,0.42-0.23,0.57l-6.59,6.59c-0.16,0.16-0.36,0.23-0.57,0.23s-0.41-0.08-0.57-0.23l-1.42-1.42
		c-0.75-0.75-1.76-1.17-2.83-1.17c-1.07,0-2.07,0.42-2.83,1.17l-4.16,4.16c-0.15,0.15-0.36,0.23-0.57,0.23
		c-0.06,0-0.12-0.01-0.18-0.02c-0.27-0.06-0.49-0.26-0.58-0.52c-2.3-6.68-3.47-13.68-3.47-20.79c0-35.24,28.67-63.91,63.91-63.91
		c9.22,0,18.14,1.94,26.5,5.76c0.24,0.11,0.41,0.34,0.46,0.6c2.55,15.6,12.3,28.19,28.19,36.4c0.46,0.24,0.98,0.36,1.5,0.36
		c0.52,0,1.04-0.13,1.5-0.36c0.23-0.12,1-0.53,1-0.53c0.12-0.06,0.25-0.09,0.38-0.09c0.1,0,0.2,0.02,0.29,0.05
		c0.22,0.08,0.39,0.26,0.47,0.48C131.71,77.74,132.94,84.89,132.94,92.16z M145.27,51.35c-4.55,6.66-11.01,12.23-19.23,16.53
		c-0.12,0.06-0.24,0.09-0.37,0.09s-0.26-0.03-0.37-0.09c-8.21-4.31-14.68-9.87-19.23-16.54c-4.95-7.26-7.46-15.65-7.46-24.93
		c0-5.57,0.91-11.05,2.7-16.29c0.11-0.33,0.42-0.54,0.76-0.54c0.06,0,0.12,0.01,0.19,0.02c0.75,0.18,1.55,0.27,2.36,0.27
		c3.46,0,7-1.66,10.43-3.26c3.49-1.63,7.1-3.32,10.62-3.32c3.52,0,7.13,1.69,10.63,3.33c3.42,1.6,6.96,3.26,10.43,3.26
		c0.81,0,1.6-0.09,2.36-0.27c0.06-0.02,0.13-0.02,0.19-0.02c0.33,0,0.64,0.21,0.76,0.54c1.79,5.23,2.7,10.71,2.7,16.29
		C152.73,35.69,150.22,44.08,145.27,51.35z"/>
	<path class="st5" d="M132.62,27.72c-0.38,0-0.73,0.15-0.99,0.41l-6.81,6.81c-0.15,0.15-0.35,0.23-0.57,0.23s-0.42-0.08-0.57-0.23
		l-4.75-4.75c-0.27-0.26-0.62-0.41-0.99-0.41c-0.38,0-0.73,0.15-1,0.42c-0.54,0.55-0.54,1.43,0,1.98l6.31,6.31
		c0.27,0.27,0.62,0.41,0.99,0.41c0.38,0,0.73-0.15,0.99-0.41l8.37-8.37c0.55-0.55,0.55-1.44,0-1.99
		C133.35,27.87,133,27.72,132.62,27.72z"/>
</g>
</svg>
