<?xml version="1.0" encoding="utf-8"?>
<!-- Generator: Adobe Illustrator 25.0.0, SVG Export Plug-In . SVG Version: 6.00 Build 0)  -->
<svg version="1.1" id="Layer_1" xmlns="http://www.w3.org/2000/svg" xmlns:xlink="http://www.w3.org/1999/xlink" x="0px" y="0px"
	 viewBox="0 0 167.4 167.4" style="enable-background:new 0 0 167.4 167.4;" xml:space="preserve">
<style type="text/css">
	.st0{fill:#185AE9;}
	.st1{fill:#00B0FB;}
	.st2{fill-rule:evenodd;clip-rule:evenodd;fill:#00B0FB;}
	.st3{fill:none;}
	.st4{fill:#00B0FB;fill-opacity:0.4;}
	.st5{fill:#FFFFFF;}
	.st6{fill:#3C7CFF;}
	.st7{fill:#001135;}
</style>
<g>
	<path class="st6" d="M89.37,113.33c0.72,0,1.3-0.58,1.3-1.3V100.7c0-0.72-0.58-1.3-1.3-1.3H61.03c-0.72,0-1.3,0.58-1.3,1.3v11.33
		c0,0.72,0.58,1.3,1.3,1.3H89.37z"/>
	<path class="st5" d="M100.7,116.4H44.03c-0.72,0-1.3,0.58-1.3,1.3v5.67c0,0.72,0.58,1.3,1.3,1.3h56.67c0.72,0,1.3-0.58,1.3-1.3
		v-5.67C102,116.98,101.42,116.4,100.7,116.4z"/>
	<path class="st6" d="M114.87,62.33h31.17c0.72,0,1.3-0.58,1.3-1.3V12.87c-0.01-5.4-4.4-9.79-9.8-9.8c0,0-124.67,0-124.67,0
		c-5.4,0.01-9.79,4.4-9.8,9.8v65.17c0,0.72,0.58,1.3,1.3,1.3h96.33c0.72,0,1.3-0.58,1.3-1.3V75.2
		C102.01,68.11,107.78,62.34,114.87,62.33z M51,11.33h8.73v3.07H51V11.33z M34,11.33h8.73v3.07H34V11.33z M17,11.33h8.73v3.07H17
		V11.33z M82.4,71.07H17V68h65.4V71.07z M93.73,58.2c0,0.85-0.69,1.53-1.53,1.53H18.53c-0.85,0-1.53-0.69-1.53-1.53V46.87
		c0-0.85,0.69-1.53,1.53-1.53H92.2c0.85,0,1.53,0.69,1.53,1.53V58.2z M93.73,35.53c0,0.85-0.69,1.53-1.53,1.53H18.53
		c-0.85,0-1.53-0.69-1.53-1.53V24.2c0-0.85,0.69-1.53,1.53-1.53H92.2c0.85,0,1.53,0.69,1.53,1.53V35.53z M102,29.87
		c0-0.41,0.16-0.79,0.45-1.08l7.58-7.58l2.17,2.17l-2.74,2.74c-0.37,0.37-0.48,0.93-0.28,1.42c0.2,0.49,0.67,0.8,1.2,0.8h10.16
		c7.09,0.01,12.86,5.78,12.87,12.87v7.33c0,0.53,0.31,1,0.8,1.2c0.16,0.07,0.32,0.1,0.5,0.1c0.35,0,0.67-0.13,0.92-0.38l2.74-2.74
		l2.17,2.17l-7.58,7.58c-0.29,0.29-0.68,0.45-1.08,0.45s-0.79-0.16-1.08-0.45l-7.58-7.58l2.17-2.17l2.74,2.74
		c0.25,0.25,0.57,0.38,0.92,0.38c0.17,0,0.34-0.03,0.5-0.1c0.49-0.2,0.8-0.67,0.8-1.2V41.2c-0.01-5.4-4.4-9.79-9.8-9.8h-10.16
		c-0.53,0-1,0.31-1.2,0.8c-0.2,0.49-0.09,1.04,0.28,1.42l2.74,2.74l-2.17,2.17l-7.58-7.58C102.16,30.66,102,30.28,102,29.87z"/>
	<path class="st5" d="M89.37,25.73h-68c-0.72,0-1.3,0.58-1.3,1.3v5.67c0,0.72,0.58,1.3,1.3,1.3h68c0.72,0,1.3-0.58,1.3-1.3v-5.67
		C90.67,26.32,90.08,25.73,89.37,25.73z"/>
	<path class="st5" d="M89.37,48.4h-68c-0.72,0-1.3,0.58-1.3,1.3v5.67c0,0.72,0.58,1.3,1.3,1.3h68c0.72,0,1.3-0.58,1.3-1.3V49.7
		C90.67,48.98,90.08,48.4,89.37,48.4z"/>
	<path class="st5" d="M100.7,99.4h-5.67c-0.72,0-1.3,0.58-1.3,1.3v11.33c0,0.72,0.58,1.3,1.3,1.3h5.67c0.72,0,1.3-0.58,1.3-1.3
		V100.7C102,99.98,101.42,99.4,100.7,99.4z"/>
	<path class="st5" d="M100.7,82.4H4.37c-0.72,0-1.3,0.58-1.3,1.3v2.83c0.01,5.4,4.4,9.79,9.8,9.8h87.83c0.72,0,1.3-0.58,1.3-1.3
		V83.7C102,82.98,101.42,82.4,100.7,82.4z"/>
	<path class="st5" d="M163.03,144.73h-56.67c-0.72,0-1.3,0.58-1.3,1.3v8.5c0.01,5.4,4.4,9.79,9.8,9.8h39.67
		c5.4-0.01,9.79-4.4,9.8-9.8v-8.5C164.33,145.32,163.75,144.73,163.03,144.73z M139.07,156.07h-8.73V153h8.73V156.07z"/>
	<path class="st5" d="M151.7,88.07h-34c-0.72,0-1.3,0.58-1.3,1.3v5.67c0,0.72,0.58,1.3,1.3,1.3h34c0.72,0,1.3-0.58,1.3-1.3v-5.67
		C153,88.65,152.42,88.07,151.7,88.07z"/>
	<path class="st7" d="M154.54,65.4c0,0-39.67,0-39.67,0c-5.4,0.01-9.79,4.4-9.8,9.8v65.17c0,0.72,0.58,1.3,1.3,1.3h56.67
		c0.72,0,1.3-0.58,1.3-1.3V75.2C164.33,69.8,159.93,65.41,154.54,65.4z M136,73.67h3.07v3.07H136V73.67z M124.67,73.67h3.07v3.07
		h-3.07V73.67z M113.33,73.67h3.07v3.07h-3.07V73.67z M156.07,133.4h-42.73v-3.07h42.73V133.4z M156.07,120.53
		c0,0.85-0.69,1.53-1.53,1.53h-39.67c-0.85,0-1.53-0.69-1.53-1.53V109.2c0-0.85,0.69-1.53,1.53-1.53h39.67
		c0.85,0,1.53,0.69,1.53,1.53V120.53z M156.07,97.87c0,0.85-0.69,1.53-1.53,1.53h-39.67c-0.85,0-1.53-0.69-1.53-1.53V86.53
		c0-0.85,0.69-1.53,1.53-1.53h39.67c0.85,0,1.53,0.69,1.53,1.53V97.87z"/>
	<path class="st5" d="M151.7,110.73h-34c-0.72,0-1.3,0.58-1.3,1.3v5.67c0,0.72,0.58,1.3,1.3,1.3h34c0.72,0,1.3-0.58,1.3-1.3v-5.67
		C153,111.32,152.42,110.73,151.7,110.73z"/>
	<path class="st7" d="M92.2,22.67H18.53c-0.85,0-1.53,0.69-1.53,1.53v11.33c0,0.85,0.69,1.53,1.53,1.53H92.2
		c0.85,0,1.53-0.69,1.53-1.53V24.2C93.73,23.35,93.05,22.67,92.2,22.67z M90.67,32.7c0,0.72-0.58,1.3-1.3,1.3h-68
		c-0.72,0-1.3-0.58-1.3-1.3v-5.67c0-0.72,0.58-1.3,1.3-1.3h68c0.72,0,1.3,0.58,1.3,1.3V32.7z"/>
	<path class="st7" d="M112.2,36.36l-2.74-2.74c-0.37-0.37-0.48-0.93-0.28-1.42c0.2-0.49,0.67-0.8,1.2-0.8h10.16
		c5.4,0.01,9.79,4.4,9.8,9.8v7.33c0,0.53-0.31,1-0.8,1.2c-0.16,0.07-0.33,0.1-0.5,0.1c-0.35,0-0.67-0.13-0.92-0.38l-2.74-2.74
		l-2.17,2.17l7.58,7.58c0.29,0.29,0.68,0.45,1.08,0.45s0.79-0.16,1.08-0.45l7.58-7.58l-2.17-2.17l-2.74,2.74
		c-0.25,0.25-0.57,0.38-0.92,0.38c-0.17,0-0.34-0.03-0.5-0.1c-0.49-0.2-0.8-0.67-0.8-1.2V41.2c-0.01-7.09-5.78-12.86-12.87-12.87
		h-10.16c-0.53,0-1-0.31-1.2-0.8c-0.2-0.49-0.09-1.04,0.28-1.42l2.74-2.74l-2.17-2.17l-7.58,7.58c-0.29,0.29-0.45,0.67-0.45,1.08
		c0,0.41,0.16,0.79,0.45,1.08l7.58,7.58L112.2,36.36z"/>
	<path class="st7" d="M92.2,45.33H18.53c-0.85,0-1.53,0.69-1.53,1.53V58.2c0,0.85,0.69,1.53,1.53,1.53H92.2
		c0.85,0,1.53-0.69,1.53-1.53V46.87C93.73,46.02,93.05,45.33,92.2,45.33z M90.67,55.37c0,0.72-0.58,1.3-1.3,1.3h-68
		c-0.72,0-1.3-0.58-1.3-1.3V49.7c0-0.72,0.58-1.3,1.3-1.3h68c0.72,0,1.3,0.58,1.3,1.3V55.37z"/>
	<rect x="17" y="11.33" class="st7" width="8.73" height="3.07"/>
	<rect x="51" y="11.33" class="st7" width="8.73" height="3.07"/>
	<rect x="17" y="68" class="st7" width="65.4" height="3.07"/>
	<path class="st7" d="M77.2,143.04l-2.17,2.17l5.58,5.58c0.37,0.37,0.48,0.93,0.28,1.42c-0.2,0.49-0.67,0.8-1.2,0.8H29.86
		c-5.4-0.01-9.79-4.4-9.8-9.8v-21.49c0-0.53,0.31-1,0.8-1.2c0.16-0.07,0.33-0.1,0.5-0.1c0.35,0,0.67,0.13,0.92,0.38l5.58,5.58
		l2.17-2.17l-10.41-10.41c-0.29-0.29-0.68-0.45-1.08-0.45s-0.79,0.16-1.08,0.45L7.04,124.2l2.17,2.17l5.58-5.58
		c0.25-0.25,0.57-0.38,0.92-0.38c0.17,0,0.34,0.03,0.5,0.1c0.49,0.2,0.8,0.67,0.8,1.2v21.49c0.01,7.09,5.78,12.86,12.87,12.87h49.83
		c0.53,0,1,0.31,1.2,0.8c0.2,0.49,0.09,1.04-0.28,1.42l-5.58,5.58l2.17,2.17l10.41-10.41c0.29-0.29,0.45-0.67,0.45-1.08
		c0-0.41-0.16-0.8-0.45-1.08L77.2,143.04z"/>
	<rect x="34" y="11.33" class="st7" width="8.73" height="3.07"/>
	<path class="st7" d="M154.53,62.33h-2.83c-0.72,0-1.3-0.58-1.3-1.3V12.87C150.39,5.78,144.62,0.01,137.53,0H12.87
		C5.78,0.01,0.01,5.78,0,12.87v73.67c0.01,7.09,5.78,12.86,12.87,12.87h42.5c0.72,0,1.3,0.58,1.3,1.3v11.33c0,0.72-0.58,1.3-1.3,1.3
		H44.04c-2.41,0-4.37,1.96-4.37,4.37v5.67c0,2.41,1.96,4.37,4.37,4.37h56.67c0.72,0,1.3,0.58,1.3,1.3v25.5
		c0.01,7.09,5.78,12.86,12.87,12.87h39.67c7.09-0.01,12.86-5.78,12.87-12.87V75.2C167.39,68.11,161.62,62.34,154.53,62.33z
		 M102,123.37c0,0.72-0.58,1.3-1.3,1.3H44.03c-0.72,0-1.3-0.58-1.3-1.3v-5.67c0-0.72,0.58-1.3,1.3-1.3h56.67
		c0.72,0,1.3,0.58,1.3,1.3V123.37z M59.73,112.03V100.7c0-0.72,0.58-1.3,1.3-1.3h28.33c0.72,0,1.3,0.58,1.3,1.3v11.33
		c0,0.72-0.58,1.3-1.3,1.3H61.03C60.32,113.33,59.73,112.75,59.73,112.03z M102,112.03c0,0.72-0.58,1.3-1.3,1.3h-5.67
		c-0.72,0-1.3-0.58-1.3-1.3V100.7c0-0.72,0.58-1.3,1.3-1.3h5.67c0.72,0,1.3,0.58,1.3,1.3V112.03z M102,95.03
		c0,0.72-0.58,1.3-1.3,1.3H12.87c-5.4-0.01-9.79-4.4-9.8-9.8V83.7c0-0.72,0.58-1.3,1.3-1.3h96.33c0.72,0,1.3,0.58,1.3,1.3V95.03z
		 M102,78.03c0,0.72-0.58,1.3-1.3,1.3H4.37c-0.72,0-1.3-0.58-1.3-1.3V12.87c0.01-5.4,4.4-9.79,9.8-9.8c0,0,124.67,0,124.67,0
		c5.4,0.01,9.79,4.4,9.8,9.8v48.17c0,0.72-0.58,1.3-1.3,1.3h-31.17c-7.09,0.01-12.86,5.78-12.87,12.87V78.03z M164.33,154.53
		c-0.01,5.4-4.4,9.79-9.8,9.8h-39.67c-5.4-0.01-9.79-4.4-9.8-9.8v-8.5c0-0.72,0.58-1.3,1.3-1.3h56.67c0.72,0,1.3,0.58,1.3,1.3
		V154.53z M164.33,140.37c0,0.72-0.58,1.3-1.3,1.3h-56.67c-0.72,0-1.3-0.58-1.3-1.3V75.2c0.01-5.4,4.4-9.79,9.8-9.8
		c0,0,39.67,0,39.67,0c5.4,0.01,9.79,4.4,9.8,9.8V140.37z"/>
	<rect x="136" y="73.67" class="st5" width="3.07" height="3.07"/>
	<path class="st7" d="M154.53,107.67h-39.67c-0.85,0-1.53,0.69-1.53,1.53v11.33c0,0.85,0.69,1.53,1.53,1.53h39.67
		c0.85,0,1.53-0.69,1.53-1.53V109.2C156.07,108.35,155.38,107.67,154.53,107.67z M153,117.7c0,0.72-0.58,1.3-1.3,1.3h-34
		c-0.72,0-1.3-0.58-1.3-1.3v-5.67c0-0.72,0.58-1.3,1.3-1.3h34c0.72,0,1.3,0.58,1.3,1.3V117.7z"/>
	<rect x="124.67" y="73.67" class="st5" width="3.07" height="3.07"/>
	<path class="st7" d="M154.53,85h-39.67c-0.85,0-1.53,0.69-1.53,1.53v11.33c0,0.85,0.69,1.53,1.53,1.53h39.67
		c0.85,0,1.53-0.69,1.53-1.53V86.53C156.07,85.69,155.38,85,154.53,85z M153,95.03c0,0.72-0.58,1.3-1.3,1.3h-34
		c-0.72,0-1.3-0.58-1.3-1.3v-5.67c0-0.72,0.58-1.3,1.3-1.3h34c0.72,0,1.3,0.58,1.3,1.3V95.03z"/>
	<rect x="113.33" y="73.67" class="st5" width="3.07" height="3.07"/>
	<rect x="130.33" y="153" class="st7" width="8.73" height="3.07"/>
	<rect x="113.33" y="130.33" class="st5" width="42.73" height="3.07"/>
</g>
</svg>
