<?xml version="1.0" encoding="utf-8"?>
<!-- Generator: Adobe Illustrator 24.3.0, SVG Export Plug-In . SVG Version: 6.00 Build 0)  -->
<svg version="1.1" id="Layer_1" xmlns="http://www.w3.org/2000/svg" xmlns:xlink="http://www.w3.org/1999/xlink" x="0px" y="0px"
	 width="50.6px" height="55.7px" viewBox="0 0 50.6 55.7" style="enable-background:new 0 0 50.6 55.7;" xml:space="preserve">
<style type="text/css">
	.st0{fill:#00B0FB;}
	.st1{opacity:0.4;fill:#00B0FB;}
	.st2{fill:none;}
	.st3{opacity:0.4;}
</style>
<g>
	<path class="st0" d="M32.9,47.8V30.7c0-1.8-1.2-3.3-2.9-3.7V13.3c0-3.6,2.6-6.5,6-7.1c-0.4-0.5-0.6-1.2-0.5-1.8
		c-1.6,0.3-3.1,1-4.2,2.1C31.2,7.2,30.7,7.8,30,8c-0.1,0.3-0.4,0.7-0.7,0.9c0,0,0.1,0,0.1,0c-0.5,0.8-0.8,1.7-1,2.7
		c-0.1,0-0.2,0-0.4,0v1.8c0.1,0,0.1,0,0.2,0v14.4c0,0.5,0.4,0.9,0.9,0.9c1.1,0,2,0.9,2,2v10.7c0,0.1,0.1,0.1,0.1,0.2
		c0.4,0.6,0.5,1.6,0,2.2c0,0-0.1,0.1-0.1,0.1c0,0.1,0,0.3,0,0.4c0,0.5,0,0.9,0,1.4c0,0.2,0,0.3-0.1,0.5v0.3c0,0,0,0-0.1,0
		c0,0.1,0,0.2-0.1,0.3c0,0.1-0.1,0.2-0.1,0.3c0,0.1,0,0.3,0,0.4c0.1,0.3,0.2,0.5,0.3,0.8c0.1,0.6,0.3,1.1,0.7,1.5
		c0.3,0,0.6,0,0.8,0.1c0.1,0,0.2,0,0.3,0c0.2,0,0.4-0.1,0.6-0.1c0.3,0,0.5-0.1,0.8-0.2c0,0,0,0,0,0c0.1-0.1,0.2-0.1,0.2-0.2
		C33.6,49.5,32.9,48.7,32.9,47.8z"/>
	<path class="st0" d="M16.6,39.3c0.1-0.7,0.3-1.4,0.5-2.1c0-0.2,0.1-0.4,0.1-0.5c0-0.1,0-0.5,0-0.5c0-0.2,0-0.4,0-0.6c0,0,0,0,0,0
		c0-0.1-0.1-0.2-0.1-0.3c-0.3-1.1-0.4-2.2-0.4-3.3c0-0.4,0.1-0.8,0.3-1.1c-0.1-0.1-0.2-0.2-0.3-0.4c-0.2-0.3-0.3-0.7-0.3-1.1
		c0-0.4,0.1-0.8,0.3-1.1c0,0,0,0,0,0c-0.2-0.2-0.3-0.4-0.3-0.6c-0.1-0.3-0.2-0.5-0.2-0.8c0,0,0-0.1,0-0.1c0-0.2,0-0.3,0.1-0.5
		c0-0.1-0.1-0.2-0.1-0.2c-0.1-0.3-0.2-0.5-0.2-0.8v-0.1c0-0.3,0.1-0.7,0.2-1C16,23.6,16,23.2,16,22.9c0,0-0.1,0-0.1,0c0,0,0,0,0,0
		c0,0,0,0,0,0c0,0,0,0,0,0c0,0,0,0,0,0c0,0,0,0,0,0c-0.1-0.1-0.2-0.1-0.3-0.2c0,0-0.1-0.1-0.1-0.1c-0.3-0.3-0.5-0.6-0.6-1
		c0-0.2,0-0.3-0.1-0.5h-0.1V20H12v0.6h-0.4V21h0v0.4h-0.7V22H11v1.5h-0.7v3.1H9.8v4.9h0.8v1.1h0.6v2.2H12v0.9h0.3v0.8h0.4v0.4h0.7
		v1.4h1.1v0.6h1.1v0.3H16.6z"/>
	<path class="st1" d="M41.4,29.4c-0.1-0.1-0.1-0.3-0.2-0.5c-0.3-1.1-0.4-2.2-0.6-3.3c-0.1-0.6-0.2-1.3-0.3-1.9c0-0.1,0-0.1,0-0.1
		c0-0.1-0.1-0.3-0.1-0.4c-0.1-0.2-0.1-0.5-0.2-0.7c-0.2-0.5-0.3-1-0.5-1.5c-0.1-0.2-0.2-0.4-0.3-0.7c-0.1-0.1-0.1-0.3-0.2-0.4
		c0,0,0-0.1,0-0.1c0,0,0,0,0,0c0,0,0,0,0,0c0,0,0-0.1-0.1-0.1l0,0c-0.3-0.3-0.5-0.6-0.7-0.9c-0.2-0.2-0.3-0.5-0.5-0.8
		c0,0-0.1,0-0.1,0c-0.3,0-0.6,0.1-0.9,0.1c0,0,0,0-0.1,0c-0.3,0.1-0.6,0.1-0.9,0v18.9h0.4v0.2c0.3-0.1,0.6-0.2,0.9-0.2
		c0.3,0,0.5,0.1,0.8,0.1c0.1,0,0.3,0,0.4,0c0.1-0.9,0.5-1.6,1.2-2.2c0.1-0.2,0.2-0.5,0.3-0.7c0-0.1,0.1-0.1,0.1-0.2
		c0-0.1,0-0.1,0-0.1c0-0.1,0-0.2,0.1-0.2c0.1-0.3,0.3-0.7,0.4-1c0.1-0.3,0.3-0.5,0.4-0.8c0-0.1,0-0.2,0-0.3c0-0.6,0.1-1.3,0.3-1.8
		C41.1,29.8,41.2,29.6,41.4,29.4z"/>
	<path class="st2" d="M29.9,41.7v-11c0-1.1-0.9-2-2-2c-0.5,0-0.9-0.4-0.9-0.9V13.4c-0.5-0.1-1-0.1-1.6-0.1c-0.2,0-0.3,0-0.4,0v2.2
		c0,1.9-0.6,3.7-1.6,5.1c-1.3,1.8-2.1,4-2.1,6.3l0,14.8c1.3,0.4,2.7,0.6,4.1,0.6C27,42.4,28.5,42.1,29.9,41.7z"/>
	<path class="st2" d="M27.2,11.6c0.2-0.9,0.5-1.8,1-2.7c-0.9-0.1-1.8-0.2-2.7-0.2c-0.1,0-0.3,0-0.4,0v2.8c0.1,0,0.3,0,0.4,0
		C26,11.5,26.6,11.5,27.2,11.6z"/>
	<path class="st2" d="M9.1,27.8c0-3.5,1.1-6.8,3.1-9.5c-0.3-0.9-0.4-1.8-0.4-2.8v-1C8.2,18,6.3,22.8,6.3,27.8
		c0,6.7,3.5,12.9,9.1,16.3l0-3.4C11.4,37.7,9.1,33,9.1,27.8z"/>
	<path class="st2" d="M21.3,43.7v2.8c1.3,0.3,2.7,0.4,4.1,0.4c1.5,0,3-0.2,4.4-0.5v-2.9c-1.4,0.4-2.9,0.6-4.4,0.6
		C24,44.2,22.6,44,21.3,43.7z"/>
	<path class="st2" d="M13,20.2c-1.4,2.3-2.1,4.9-2.1,7.6c0,4.1,1.6,7.8,4.5,10.5l0-11.4c0-2.3-0.7-4.5-2.1-6.3
		C13.2,20.5,13.1,20.4,13,20.2z"/>
	<path class="st2" d="M43.9,22.7c-0.1-0.4-0.2-0.7-0.3-1c-0.6-1.7-1.4-3.3-2.4-4.8c-1.2-1.6-2.6-3.1-4.2-4.3v3.7
		c3.1,3.1,4.8,7.2,4.8,11.6c0,4.4-1.7,8.6-4.8,11.6v3.7c3.7-2.7,6.2-6.8,7.2-11.3c0.3-1.4,0.4-2.8,0.4-4.2c0-1.6-0.2-3.2-0.6-4.7
		C43.9,22.8,43.9,22.8,43.9,22.7z"/>
	<path class="st2" d="M37,36.7c2-2.5,3-5.6,3-8.9c0-3.3-1.1-6.4-3-8.9V36.7z"/>
	<path class="st2" d="M28.8,13.3V27c1.6,0.4,2.9,1.9,2.9,3.7v17.1c0,0.9,0.7,1.7,1.6,1.8c0.9,0,1.7-0.8,1.7-1.7V6.2
		C31.6,6.6,28.8,9.7,28.8,13.3z"/>
	<path d="M45.5,22.2c-0.2-0.9-0.5-1.8-0.9-2.7c-0.1-0.3-0.2-0.5-0.3-0.8c-1.6-3.4-4.2-6.4-7.3-8.4c0,0,0-5.1,0-5.1
		c0-0.5-0.4-0.9-0.9-0.9c-2.6,0-5,1.1-6.7,2.9C28,7,26.8,6.9,25.4,6.9c-0.2,0-0.3,0-0.4,0V5.2c0-0.5-0.4-0.9-0.9-0.9
		c-0.5,0-0.9,0.4-0.9,0.9v10.3c0,1.5-0.5,2.9-1.3,4c-1.6,2.1-2.4,4.7-2.4,7.4l0,21.5c0,0.6-0.5,1.1-1.1,1.1c-0.6,0-1.1-0.5-1.1-1.1
		l0-21.5c0-2.7-0.9-5.3-2.4-7.4c-0.8-1.1-1.3-2.5-1.3-4V5.2c0-0.5-0.4-0.9-0.9-0.9c-0.5,0-0.9,0.4-0.9,0.9V12
		c-4.6,4-7.2,9.7-7.2,15.9c0,7.8,4.2,14.8,10.9,18.4v2.2c0,0.8,0.3,1.5,0.9,2.1c1.1,1.1,3,1.1,4.2,0c0.6-0.6,0.9-1.3,0.9-2.1
		c1.3,0.3,2.7,0.4,4.1,0.4c1.6,0,3-0.2,4.5-0.5c0.3,1.7,1.7,3,3.4,3c1,0,1.9-0.3,2.6-1c0.7-0.7,1.1-1.6,1.1-2.5c0,0,0-2.5,0-2.5
		c0-0.1,1-0.7,1.1-0.8c0.4-0.3,0.8-0.6,1.1-0.9c0.7-0.6,1.4-1.3,2-2C45.8,36.4,47.2,28.9,45.5,22.2z M15.4,44.1
		c-5.6-3.5-9.1-9.6-9.1-16.3c0-5,1.9-9.8,5.4-13.3v1c0,1,0.2,1.9,0.4,2.8c-2,2.8-3.1,6-3.1,9.5c0,5.1,2.3,9.8,6.3,12.9L15.4,44.1z
		 M15.4,38.3c-2.9-2.7-4.5-6.5-4.5-10.5c0-2.8,0.7-5.4,2.1-7.6c0.1,0.1,0.2,0.3,0.3,0.4c1.3,1.8,2.1,4,2.1,6.3L15.4,38.3z M25,8.7
		c0.1,0,0.3,0,0.4,0c0.9,0,1.8,0.1,2.7,0.2c-0.5,0.8-0.8,1.7-1,2.7c-0.6-0.1-1.2-0.1-1.7-0.1c-0.2,0-0.3,0-0.4,0V8.7z M21.3,41.8
		l0-14.8c0-2.3,0.7-4.5,2.1-6.3c1.1-1.4,1.6-3.2,1.6-5.1v-2.2c0.1,0,0.3,0,0.4,0c0.5,0,1,0,1.6,0.1v14.4c0,0.5,0.4,0.9,0.9,0.9
		c1.1,0,2,0.9,2,2v11c-1.4,0.5-2.9,0.7-4.4,0.7C24,42.4,22.6,42.2,21.3,41.8z M29.9,46.5C28.4,46.8,27,47,25.4,47
		c-1.4,0-2.8-0.1-4.1-0.4v-2.8c1.3,0.4,2.7,0.5,4.1,0.5c1.6,0,3-0.2,4.4-0.6V46.5z M35.1,47.8c0,0.9-0.8,1.7-1.7,1.7
		c-0.9,0-1.6-0.8-1.6-1.8V30.7c0-1.8-1.2-3.3-2.9-3.7V13.3c0-3.7,2.7-6.7,6.3-7.1V47.8z M44.1,31.8c-1,4.5-3.5,8.6-7.2,11.3v-3.7
		c3.1-3.1,4.8-7.2,4.8-11.6c0-4.4-1.7-8.6-4.8-11.6v-3.7c1.6,1.2,3,2.7,4.2,4.3c1,1.5,1.8,3.1,2.4,4.8c0.1,0.3,0.2,0.7,0.3,1
		c0,0.1,0,0.2,0.1,0.2c0.4,1.5,0.6,3.1,0.6,4.7C44.6,29.1,44.4,30.5,44.1,31.8z M37,36.7V19c2,2.5,3,5.6,3,8.9
		C40,31.1,38.9,34.2,37,36.7z"/>
	<path d="M20.4,14.7c0.5,0,0.9-0.4,0.9-0.9V5.2c0-0.5-0.4-0.9-0.9-0.9c-0.5,0-0.9,0.4-0.9,0.9v8.6C19.4,14.3,19.9,14.7,20.4,14.7z"
		/>
	<path d="M16.3,14.7c0.5,0,0.9-0.4,0.9-0.9V5.2c0-0.5-0.4-0.9-0.9-0.9c-0.5,0-0.9,0.4-0.9,0.9v8.6C15.4,14.3,15.8,14.7,16.3,14.7z"
		/>
</g>
</svg>
