<?xml version="1.0" encoding="utf-8"?>
<!-- Generator: Adobe Illustrator 25.0.0, SVG Export Plug-In . SVG Version: 6.00 Build 0)  -->
<svg version="1.1" id="Layer_1" xmlns="http://www.w3.org/2000/svg" xmlns:xlink="http://www.w3.org/1999/xlink" x="0px" y="0px"
	 viewBox="0 0 164.4 192" style="enable-background:new 0 0 164.4 192;" xml:space="preserve">
<style type="text/css">
	.st0{fill:#001135;}
	.st1{fill:#FFFFFF;}
	.st2{fill:#3C7CFF;}
	.st3{fill:#185AE9;}
	.st4{fill:#00B0FB;}
	.st5{fill-rule:evenodd;clip-rule:evenodd;fill:#00B0FB;}
	.st6{fill:#061639;}
	.st7{fill:#1429FF;}
	.st8{fill:#663398;}
	.st9{fill:#FEFEFE;}
	.st10{fill:#8DB849;}
	.st11{fill:#5A863E;}
	.st12{fill:#FFFFFE;}
	.st13{fill-rule:evenodd;clip-rule:evenodd;fill:#7FC728;}
	.st14{fill:#B3B3B3;}
	.st15{fill:#A6120D;}
	.st16{fill:#DD1B16;}
	.st17{fill:#F2F2F2;}
	.st18{fill:#8F9ED1;}
	.st19{fill:#030303;}
	.st20{fill:#0E0E0D;}
	.st21{fill:#8F8F90;}
	.st22{fill:#DBDBDB;}
	.st23{fill:#FDFDFD;}
	.st24{fill:#FDFCFD;}
	.st25{fill:#010101;}
	.st26{fill:#FCB415;}
	.st27{opacity:0.2;fill:#FFFFFF;enable-background:new    ;}
	.st28{fill:#68B345;}
	.st29{fill:#0A99D6;}
	.st30{opacity:0.1;fill:#010101;enable-background:new    ;}
	.st31{fill:#EE3325;}
	.st32{fill:url(#SVGID_1_);}
	.st33{fill:#FF2D20;}
	.st34{clip-path:url(#SVGID_2_);fill:#F9C638;}
	.st35{fill:#2A2D2C;}
	.st36{fill:#F9C638;}
	.st37{fill:#833CF7;}
	.st38{fill:none;}
	.st39{fill:#0A0A0A;}
	.st40{fill:#050505;}
	.st41{fill:#2A2A2A;}
	.st42{fill:#000100;}
	.st43{fill:#FBFBFB;}
	.st44{fill:#070707;}
	.st45{fill:#080808;}
	.st46{fill:#F7F7F7;}
	.st47{fill:#0B0B0B;}
	.st48{fill:#F1F0F1;}
	.st49{fill:#F4F4F4;}
	.st50{fill:#0C0C0C;}
	.st51{fill:#ECECEC;}
	.st52{fill:#252525;}
	.st53{fill:#D5D5D5;}
	.st54{fill:#3F3F3F;}
	.st55{fill:#818181;}
	.st56{fill:#A2A2A2;}
	.st57{fill:#040404;}
	.st58{fill:#151515;}
	.st59{fill:#343434;}
	.st60{fill:#4B4B4B;}
	.st61{fill:#0D0D0D;}
	.st62{fill:#00D8FF;}
	.st63{fill:#4DBA87;}
	.st64{fill:#425466;}
	.st65{fill:url(#SVGID_3_);}
	.st66{fill:url(#SVGID_4_);}
	.st67{fill:#14559A;}
	.st68{fill:url(#SVGID_6_);}
	.st69{fill:#3092C4;}
	.st70{fill:#1969BC;}
	.st71{fill:url(#SVGID_7_);}
	.st72{fill:url(#SVGID_8_);}
	.st73{fill:url(#SVGID_9_);}
	.st74{fill:#2B74B1;}
	.st75{fill:#125A9E;}
	.st76{fill:url(#SVGID_10_);}
	.st77{fill:url(#SVGID_11_);}
	.st78{fill:#0D82CA;}
	.st79{fill:url(#SVGID_12_);}
	.st80{fill:#127BCA;}
	.st81{fill:url(#SVGID_13_);}
	.st82{fill:url(#SVGID_14_);}
	.st83{fill:#05A1E6;}
	.st84{fill:url(#SVGID_15_);}
	.st85{fill:url(#SVGID_16_);}
	.st86{fill:url(#SVGID_17_);}
	.st87{fill:#079AE1;}
	.st88{fill:#1E5CB3;}
	.st89{fill:#1D60B5;}
	.st90{fill:#175FAB;}
	.st91{fill:url(#SVGID_18_);}
	.st92{fill:#7DCBEC;}
	.st93{fill:#5EC5ED;}
	.st94{fill:url(#SVGID_19_);}
	.st95{fill:url(#SVGID_20_);}
	.st96{fill:url(#SVGID_21_);}
	.st97{fill:#6EB341;}
	.st98{fill:#F6F6F6;}
	.st99{fill:#060606;}
	.st100{fill:#101010;}
	.st101{fill:url(#SVGID_22_);}
	.st102{fill:url(#SVGID_23_);}
	.st103{fill:url(#SVGID_24_);}
	.st104{fill:url(#SVGID_25_);}
	.st105{fill:url(#SVGID_26_);}
	.st106{fill:url(#SVGID_27_);}
	.st107{fill:url(#SVGID_28_);}
	.st108{fill:url(#SVGID_29_);}
	.st109{fill:url(#SVGID_30_);}
	.st110{fill:url(#SVGID_31_);}
	.st111{fill:url(#SVGID_32_);}
	.st112{fill:url(#SVGID_33_);}
	.st113{fill:url(#SVGID_34_);}
	.st114{fill:url(#SVGID_35_);}
	.st115{fill:url(#SVGID_36_);}
	.st116{fill:url(#SVGID_37_);}
	.st117{fill:url(#SVGID_38_);}
	.st118{fill:url(#SVGID_39_);}
	.st119{fill-rule:evenodd;clip-rule:evenodd;fill:#5382A1;}
	.st120{fill-rule:evenodd;clip-rule:evenodd;fill:#E76F00;}
</style>
<g>
	<path class="st7" d="M164.4,140.04V50.4c0-5.43-4.41-9.84-9.84-9.84h-7.32v99.48H164.4z M91.59,71.46h-1.47
		c-2.7,0-4.86-2.19-4.86-4.89V49.89H79.2v16.68c0,2.7-2.19,4.89-4.86,4.89h-1.47l9.33,11.85L91.59,71.46z"/>
	<path class="st7" d="M82.2,95.34c15.51,0,28.11-12.6,28.11-28.11S97.71,39.12,82.2,39.12s-28.11,12.6-28.11,28.11
		S66.69,95.34,82.2,95.34z M65.01,67.68c0.66-1.35,2.04-2.2,3.54-2.19h4.62V48.36c0-2.46,2.01-4.44,4.44-4.44h9.18
		c2.46,0,4.44,2.01,4.44,4.44v17.13h4.62c1.5,0,2.85,0.84,3.54,2.19c0.66,1.35,0.51,2.94-0.42,4.17c0,0,0,0.03-0.03,0.03L85.29,89.1
		c-0.75,0.96-1.89,1.5-3.09,1.5c-1.2,0-2.34-0.54-3.09-1.5L65.46,71.88C64.5,70.62,64.35,69.03,65.01,67.68L65.01,67.68z
		 M141.24,20.16V7.71c0-4.26-3.45-7.71-7.68-7.71H30.84c-4.23,0-7.68,3.45-7.68,7.71v12.48h118.08V20.16z M59.43,7.17
		c1.76,0,3.18,1.43,3.18,3.18c0,1.76-1.43,3.18-3.18,3.18c-1.76,0-3.18-1.43-3.18-3.18C56.25,8.59,57.67,7.17,59.43,7.17z M48,7.17
		c1.76,0,3.18,1.43,3.18,3.18c0,1.76-1.43,3.18-3.18,3.18c-1.76,0-3.18-1.43-3.18-3.18C44.82,8.59,46.24,7.17,48,7.17z M36.57,7.17
		c1.76,0,3.18,1.42,3.18,3.18s-1.42,3.18-3.18,3.18c-1.74,0-3.18-1.44-3.18-3.18C33.39,8.58,34.83,7.17,36.57,7.17z"/>
	<path class="st7" d="M141.24,26.16H23.16v113.88h118.05V26.16H141.24z M82.2,33.12c18.81,0,34.11,15.3,34.11,34.11
		s-15.3,34.11-34.11,34.11s-34.11-15.3-34.11-34.11S63.39,33.12,82.2,33.12z M129.84,129.39c0,1.65-1.35,3-3,3H37.56
		c-1.65,0-3-1.35-3-3v-17.46c0-1.65,1.35-3,3-3h89.28c1.65,0,3,1.35,3,3V129.39z M17.16,140.04V40.56H9.84
		C4.41,40.56,0,44.97,0,50.4v89.64H17.16z M20.16,146.04H0v6.33c0,5.43,4.41,9.84,9.84,9.84h144.72c5.43,0,9.84-4.41,9.84-9.84
		v-6.33h-20.16H20.16z"/>
	<path class="st7" d="M40.56,114.93h83.28v11.46H40.56V114.93z M63.09,178.86h38.31l-2.67-10.62H65.76L63.09,178.86z M46.2,187.86
		c-1.23,1.17-2.13,2.58-2.64,4.14h78.48c-1.38-4.14-5.52-7.14-10.44-7.14H53.97C51.03,184.86,48.27,185.91,46.2,187.86z"/>
</g>
</svg>
