<?xml version="1.0" encoding="utf-8"?>
<!-- Generator: Adobe Illustrator 25.0.0, SVG Export Plug-In . SVG Version: 6.00 Build 0)  -->
<svg version="1.1" id="Layer_1" xmlns="http://www.w3.org/2000/svg" xmlns:xlink="http://www.w3.org/1999/xlink" x="0px" y="0px"
	 viewBox="0 0 158.9 163.2" style="enable-background:new 0 0 158.9 163.2;" xml:space="preserve">
<style type="text/css">
	.st0{fill:#00B0FB;}
	.st1{fill:#00B0FB;fill-opacity:0.4;}
	.st2{fill:#FFFFFF;}
	.st3{fill:#185AE9;}
	.st4{fill-rule:evenodd;clip-rule:evenodd;fill:#00B0FB;}
	.st5{fill:none;}
	.st6{fill:#3C7CFF;}
	.st7{fill:#001135;}
	.st8{fill:#8DB849;}
	.st9{fill:#5A863E;}
	.st10{fill:#FFFFFE;}
	.st11{fill:#009CDE;}
	.st12{fill:#FCB415;}
	.st13{opacity:0.2;fill:#FFFFFF;enable-background:new    ;}
	.st14{fill:#68B345;}
	.st15{fill:#0A99D6;}
	.st16{opacity:0.1;fill:#010101;enable-background:new    ;}
	.st17{fill:#EE3325;}
	.st18{fill:url(#SVGID_2_);}
	.st19{fill:#B3B3B3;}
	.st20{fill:#A6120D;}
	.st21{fill:#DD1B16;}
	.st22{fill:#F2F2F2;}
	.st23{fill:#FF2D20;}
	.st24{clip-path:url(#SVGID_3_);fill:#F9C638;}
	.st25{fill:#2A2D2C;}
	.st26{fill:#F9C638;}
	.st27{fill:#FDFDFD;}
	.st28{fill:#DBDBDB;}
	.st29{fill:#FBFBFB;}
	.st30{fill:#121212;}
	.st31{fill:#FCFCFC;}
	.st32{fill:#D2D3D3;}
	.st33{fill:#F6F6F6;}
	.st34{fill:#BABBBB;}
	.st35{fill:#8A8A8A;}
	.st36{fill:#8E8F8F;}
	.st37{fill:#5F5E5E;}
	.st38{fill:#00769D;}
	.st39{clip-path:url(#SVGID_4_);fill:#F9C638;}
	.st40{fill:#92003B;}
</style>
<g>
	<g>
		<path class="st0" d="M113.48,82.16c-0.07,0.13-0.19,0.23-0.35,0.23c-0.6-0.01-1.2-0.01-1.79-0.01c-9.43,0-19.1,1.1-28.48,2.17
			c-8.41,0.96-16.34,1.87-23.37,1.87c-9.29,0-17.96-0.67-25.81-1.97c-0.77,0.42-1.57,0.77-2.39,1.07c0.35,1.31,0.59,2.66,0.65,4.05
			c0.02,0.5,0.01,0.99-0.02,1.48c0.83,0.33,1.62,0.71,2.37,1.16c-0.28-1.18-0.54-2.24-0.79-3.17c-0.03-0.13,0-0.27,0.09-0.37
			c0.07-0.08,0.17-0.12,0.34-0.12c0,0,0.01,0,0.02,0c7.8,1.23,16.63,1.87,25.54,1.87c7.26,0,15.31-0.91,23.84-1.89
			c9.23-1.05,18.79-2.15,28.01-2.15l0.38,0.01c0.12,0,0.24,0.06,0.32,0.16c0.07,0.1,0.1,0.23,0.06,0.35
			c-0.21,0.7-0.43,1.53-0.67,2.45c0.3-0.07,0.6-0.12,0.9-0.17c0.74-2.29,2.02-4.39,3.67-6.16
			C115.12,82.79,114.28,82.52,113.48,82.16z"/>
		<path class="st0" d="M112.77,99.39c-2.95,13.91-6.54,33.28-8.42,43.59c-0.43,2.34-1.67,4.47-3.49,5.99
			c-1.83,1.52-4.14,2.36-6.52,2.36c-5.06,0-9.28-3.62-10.05-8.62l-4.87-31.54c-0.35-2.3-1.83-4.27-3.94-5.27
			c-0.93-0.44-1.94-0.66-2.98-0.66c-3.48,0-6.39,2.5-6.92,5.93l-4.87,31.54c-0.37,2.4-1.59,4.59-3.43,6.17
			c-1.84,1.58-4.19,2.45-6.62,2.45c-0.11,0-0.22,0-0.34-0.01c-4.75-0.16-8.83-3.73-9.7-8.51c-0.41-2.27-0.83-4.55-1.25-6.82
			c-1.12-5.93-3.51-18.64-3.91-20.67c-1.2-6.16-2.29-11.52-3.23-15.94c-0.02-0.1-0.09-0.2-0.18-0.26c-1.45-0.89-3.09-1.36-4.74-1.36
			c-1.52,0-3.04,0.4-4.41,1.16l-12.78,7.12c-0.24,0.14-0.4,0.39-0.4,0.67v51.7c0,0.42,0.35,0.77,0.77,0.77h124.02
			c0.42,0,0.77-0.35,0.77-0.77v-29.08c0,0,0-0.01,0-0.01v-22.61c0-0.28-0.15-0.54-0.39-0.67l-12.78-7.12
			c-1.36-0.76-2.89-1.16-4.41-1.16c-1.65,0-3.29,0.47-4.74,1.36C112.86,99.19,112.8,99.28,112.77,99.39z"/>
		<path class="st1" d="M138.98,26.51c-3.03-1.6-5.48-4.05-7.08-7.08c-0.07-0.13-0.2-0.21-0.35-0.21s-0.29,0.08-0.35,0.21
			c-1.6,3.03-4.05,5.48-7.08,7.08c-0.13,0.07-0.21,0.21-0.21,0.35s0.08,0.28,0.21,0.35c3.03,1.6,5.48,4.05,7.08,7.08
			c0.07,0.13,0.2,0.21,0.35,0.21s0.29-0.08,0.35-0.21c1.6-3.03,4.05-5.48,7.08-7.08c0.13-0.07,0.21-0.21,0.21-0.35
			S139.11,26.58,138.98,26.51z"/>
		<path class="st1" d="M13.35,61.3c2.17,2.04,3.87,4.42,5.04,7.1c0.06,0.14,0.21,0.24,0.37,0.24s0.3-0.09,0.37-0.24
			c2.19-4.96,6.12-8.9,11.09-11.09c0.14-0.06,0.24-0.21,0.24-0.37c0-0.16-0.09-0.3-0.24-0.37c-4.96-2.18-8.9-6.12-11.09-11.09
			c-0.06-0.14-0.21-0.24-0.37-0.24s-0.3,0.09-0.37,0.24c-2.19,4.96-6.12,8.9-11.09,11.09c-0.14,0.06-0.24,0.21-0.24,0.37
			s0.09,0.3,0.24,0.37c2.09,0.92,4.01,2.16,5.71,3.68C13.15,61.1,13.26,61.2,13.35,61.3z"/>
		<path class="st2" d="M93.01,44.4c-6.67,1.93-13.58,2.91-20.51,2.91c-6.94,0-13.84-0.98-20.51-2.91c-1.06-0.31-1.67-1.42-1.36-2.48
			c0.24-0.85,1.03-1.45,1.92-1.45c0.19,0,0.37,0.03,0.56,0.08c6.31,1.83,12.84,2.76,19.39,2.76c6.56,0,13.08-0.93,19.4-2.76
			c0.18-0.05,0.37-0.08,0.56-0.08c0.88,0,1.67,0.6,1.92,1.45C94.69,42.98,94.07,44.09,93.01,44.4z"/>
		<path class="st2" d="M30.41,16.99h0.02c1.09,0,1.99-0.89,2-1.98l0.01-1.11c0.01-0.53-0.2-1.04-0.57-1.42
			c-0.38-0.39-0.88-0.59-1.43-0.6c-1.09,0-1.99,0.89-2,1.98l-0.01,1.11c-0.01,0.53,0.2,1.04,0.57,1.42
			C29.38,16.77,29.88,16.98,30.41,16.99z"/>
		<path class="st2" d="M158.56,101.43c-7.63-11.46-18.86-18.08-34.34-20.23c-2.04-0.28-4.11-0.49-6.16-0.62
			c-0.12,0-0.23-0.07-0.3-0.17c-0.07-0.09-0.09-0.22-0.06-0.34l3.75-12.67c0.05-0.17,0.21-0.29,0.41-0.29
			c0.84,0.06,1.53,0.09,2.17,0.09c7.66,0,14.26-2.82,18.59-7.92c3.56-4.21,5.07-9.18,4.38-14.38c-0.6-4.45-2.88-9.07-6.58-13.35
			c-0.08-0.09-0.11-0.21-0.09-0.33s0.09-0.22,0.19-0.28c1.12-0.63,2.32-1.09,3.57-1.36c1.29-0.28,2.18-1.4,2.18-2.71
			c0-1.32-0.89-2.44-2.18-2.72c-4.91-1.06-8.77-4.92-9.83-9.83c-0.28-1.29-1.4-2.18-2.72-2.18c-1.32,0-2.43,0.89-2.71,2.18
			c-0.45,2.07-1.42,4-2.79,5.6c-0.07,0.09-0.19,0.15-0.3,0.15c-0.04,0-0.17-0.04-0.2-0.05c-13.98-7.68-26.63-8.26-37.79-8.78
			C74.88,10.65,63.76,10.13,51.8,0.45C51.45,0.16,51,0,50.54,0c-0.61,0-1.17,0.27-1.56,0.73c-0.33,0.42-0.49,0.94-0.44,1.47
			c0.06,0.54,0.31,1.01,0.74,1.36c12.98,10.51,25.27,11.08,38.28,11.68c10.71,0.5,21.77,1.01,34.15,7.28
			c0.13,0.07,0.22,0.21,0.22,0.36s-0.09,0.29-0.23,0.36c-0.86,0.4-1.77,0.71-2.7,0.91c-1.29,0.28-2.19,1.4-2.19,2.72
			c0,1.31,0.9,2.43,2.19,2.71c4.9,1.07,8.76,4.93,9.83,9.83c0.28,1.29,1.39,2.19,2.71,2.19c1.32,0,2.44-0.9,2.72-2.19
			c0.41-1.89,1.27-3.71,2.5-5.25c0.07-0.09,0.18-0.15,0.31-0.15c0.12,0,0.23,0.05,0.3,0.13c6.86,7.87,7.66,16.09,2.19,22.55
			c-3.6,4.25-8.94,6.5-15.44,6.5c-0.33,0-0.66,0-0.99-0.02c-0.12,0-0.23-0.06-0.3-0.15c-0.08-0.09-0.11-0.21-0.08-0.33
			c2.28-10.85-2.21-21.88-11.43-28.12c-4.47-3.02-9.73-4.62-15.21-4.62c-2.72,0-5.39,0.63-8.05,1.2c-7.46,1.61-15.07,2.4-22.68,1.55
			c-2.94-0.33-5.84-0.92-8.73-1.56c-2.57-0.58-5.1-1.19-7.77-1.19c-10.62,0-20.03,5.94-24.57,15.51c-0.06,0.14-0.2,0.22-0.36,0.23
			c-0.14,0-0.28-0.08-0.35-0.2c-0.87-1.54-1.51-3.2-1.89-4.93c-0.3-1.4-1.52-2.38-2.95-2.38c-1.43,0-2.65,0.98-2.95,2.38
			c-1.46,6.7-6.73,11.97-13.43,13.43C0.98,54.3,0,55.51,0,56.94c0,1.44,0.98,2.65,2.38,2.96c1.95,0.42,3.8,1.17,5.49,2.23
			c0.11,0.06,0.19,0.18,0.19,0.32c0.01,0.13-0.05,0.25-0.15,0.34c-3.01,2.27-4.54,4.79-4.54,7.49c0,5.35,5.98,9.96,17.28,13.33
			c2.49,0.75,5.2,1.42,8.07,2c0.14,0.03,0.26,0.13,0.3,0.27c0.51,1.71,1.17,4.34,1.96,7.83c0.03,0.13-0.01,0.28-0.11,0.37
			c-0.06,0.07-0.15,0.11-0.31,0.11c-0.02,0-0.04-0.01-0.06-0.01c-1.05-0.26-2.12-0.4-3.2-0.4c-2.22,0-4.41,0.58-6.35,1.65
			l-12.78,7.12c-1.51,0.84-2.45,2.44-2.45,4.17v51.7c0,2.64,2.14,4.78,4.77,4.78h124.02c2.63,0,4.77-2.14,4.77-4.78v-51.7
			c0-1.73-0.93-3.33-2.45-4.17l-12.78-7.12c-1.96-1.09-4.15-1.67-6.34-1.67c-1.08,0-2.15,0.14-3.2,0.41l-0.1,0.01
			c-0.1,0-0.2-0.04-0.28-0.11c-0.1-0.1-0.14-0.24-0.11-0.38c0.81-3.57,1.49-6.24,2.01-7.95l0.27-0.93c0.05-0.17,0.21-0.29,0.41-0.29
			c2.44,0.12,4.78,0.34,6.96,0.65c14.28,1.98,24.6,8.03,31.56,18.48c0.37,0.56,0.99,0.89,1.67,0.89c0.53,0,1.03-0.21,1.41-0.59
			c0.38-0.37,0.59-0.88,0.59-1.41C158.9,102.14,158.78,101.76,158.56,101.43z M138.98,27.22c-3.03,1.6-5.48,4.05-7.08,7.08
			c-0.07,0.13-0.21,0.21-0.36,0.21c-0.15,0-0.28-0.08-0.35-0.21c-1.6-3.03-4.05-5.48-7.08-7.08c-0.13-0.07-0.22-0.21-0.22-0.35
			c0-0.15,0.09-0.29,0.22-0.36c3.03-1.6,5.48-4.05,7.08-7.08c0.07-0.13,0.2-0.21,0.35-0.21c0.15,0,0.29,0.08,0.36,0.21
			c1.6,3.03,4.05,5.48,7.08,7.08c0.13,0.07,0.21,0.21,0.21,0.36C139.19,27.01,139.11,27.15,138.98,27.22z M7.31,57.31
			c-0.15-0.06-0.24-0.21-0.24-0.37c0-0.15,0.09-0.3,0.24-0.36c4.96-2.19,8.9-6.13,11.08-11.09c0.07-0.14,0.21-0.24,0.37-0.24
			c0.16,0,0.3,0.1,0.37,0.24c2.18,4.97,6.12,8.9,11.08,11.09c0.15,0.06,0.24,0.21,0.24,0.36c0,0.16-0.09,0.31-0.23,0.37
			c-4.97,2.19-8.91,6.12-11.09,11.09c-0.07,0.14-0.21,0.24-0.37,0.24c-0.16,0-0.3-0.1-0.37-0.24c-1.17-2.68-2.86-5.06-5.04-7.1
			c-0.09-0.1-0.2-0.2-0.34-0.31C11.32,59.47,9.4,58.23,7.31,57.31z M27.38,81.03c-0.07,0.07-0.16,0.12-0.33,0.12H27
			C15.08,78.39,7.37,74.13,7.37,70.28c0-1.57,1.34-3.29,3.87-4.96c0.07-0.04,0.14-0.06,0.22-0.06c0.11,0,0.22,0.05,0.3,0.13
			c2.01,2.26,3.41,5.01,4.05,7.94c0.3,1.4,1.52,2.38,2.95,2.38c1.43,0,2.65-0.98,2.95-2.38c0.33-1.52,0.87-2.99,1.59-4.37
			c0.07-0.13,0.2-0.21,0.39-0.21c0.17,0.01,0.3,0.12,0.35,0.28l3.43,11.61C27.51,80.78,27.48,80.93,27.38,81.03z M117.7,97.77
			c1.52,0,3.04,0.4,4.4,1.16l12.79,7.12c0.24,0.14,0.39,0.4,0.39,0.67v51.7c0,0.43-0.35,0.77-0.77,0.77H10.49
			c-0.42,0-0.77-0.34-0.77-0.77v-51.7c0-0.28,0.16-0.54,0.4-0.67l12.78-7.12c1.37-0.76,2.89-1.16,4.41-1.16
			c1.65,0,3.29,0.47,4.74,1.36c0.09,0.06,0.16,0.15,0.18,0.26c0.94,4.41,2.02,9.77,3.23,15.94c0.39,2.03,2.79,14.74,3.91,20.67
			c0.41,2.27,0.84,4.54,1.25,6.81c0.87,4.78,4.95,8.36,9.7,8.51c0.12,0.01,0.23,0.01,0.34,0.01c2.43,0,4.78-0.87,6.62-2.45
			c1.84-1.58,3.06-3.77,3.43-6.17l4.87-31.54c0.53-3.44,3.44-5.94,6.92-5.94c1.05,0,2.05,0.23,2.98,0.67
			c2.12,0.99,3.59,2.96,3.94,5.27l4.88,31.54c0.76,5,4.99,8.62,10.05,8.62c2.37,0,4.69-0.84,6.51-2.36
			c1.83-1.52,3.07-3.65,3.49-5.99c1.88-10.31,5.47-29.68,8.42-43.59c0.03-0.11,0.09-0.2,0.19-0.26
			C114.4,98.24,116.04,97.77,117.7,97.77z M33.5,87.04c-0.03-0.13,0-0.27,0.09-0.37c0.07-0.08,0.17-0.12,0.34-0.12
			c0,0,0.01,0,0.02,0c7.8,1.23,16.63,1.87,25.54,1.87c7.26,0,15.31-0.91,23.84-1.89c9.23-1.05,18.79-2.15,28.01-2.15l0.38,0.01
			c0.12,0,0.24,0.06,0.32,0.16c0.07,0.1,0.1,0.23,0.06,0.35c-2.93,9.94-9.15,43.43-11.69,57.37c-0.25,1.41-1,2.7-2.11,3.62
			c-1.11,0.93-2.51,1.44-3.95,1.44c-3.07,0-5.63-2.2-6.09-5.23l-4.87-31.54c-0.57-3.63-2.88-6.72-6.2-8.28
			c-1.47-0.7-3.05-1.05-4.69-1.05c-5.47,0-10.04,3.92-10.87,9.33l-4.88,31.54c-0.22,1.45-0.96,2.78-2.08,3.74
			c-1.12,0.96-2.54,1.49-4,1.49l-0.22-0.01c-2.88-0.09-5.36-2.29-5.89-5.22c-0.24-1.32-0.48-2.63-0.72-3.94
			c-0.01-0.05-0.01-0.1-0.02-0.14c-0.08-0.43-0.25-1.34-0.48-2.56c-0.2-1.06-0.39-2.12-0.59-3.18c-0.01-0.06-0.03-0.11-0.04-0.17
			c-1.22-6.44-2.99-15.83-3.32-17.55C36.85,101.54,34.87,92.28,33.5,87.04z M113.52,80.1c-0.05,0.17-0.21,0.29-0.39,0.29
			c-0.6-0.01-1.2-0.01-1.79-0.01c-9.43,0-19.1,1.1-28.48,2.17c-8.41,0.96-16.34,1.87-23.37,1.87c-9.81,0-18.94-0.74-27.14-2.19
			c-0.15-0.03-0.27-0.13-0.32-0.28l-5.14-17.4c-0.05-0.15,0-0.31,0.11-0.41c2.3-2.12,5.11-3.58,8.14-4.24
			c1.4-0.31,2.38-1.52,2.38-2.96c0-1.43-0.98-2.64-2.38-2.95c-2.99-0.65-5.76-2.08-8.03-4.14c-0.12-0.11-0.16-0.28-0.11-0.43
			c3.27-9.25,12.07-15.47,21.88-15.47c2.2,0,4.38,0.31,6.47,0.91c7.28,2.1,14.92,2.78,22.47,2.16c4.66-0.39,9.25-1.3,13.73-2.62
			c1.42-0.42,3.09-0.45,4.57-0.45c4.67,0,9.15,1.36,12.96,3.94c8.44,5.7,12.17,16.08,9.28,25.83L113.52,80.1z"/>
		<path class="st2" d="M147.53,69.28c0.01-0.53-0.2-1.04-0.57-1.42c-0.38-0.38-0.89-0.6-1.43-0.6c-1.09,0-1.99,0.89-2,1.98
			l-0.01,1.11c-0.01,0.53,0.2,1.04,0.57,1.42c0.37,0.38,0.88,0.6,1.41,0.6h0.02c1.09,0,1.99-0.89,2-1.98L147.53,69.28z"/>
		<path class="st2" d="M24.47,21.73l1.14,0.01c1.09,0,1.99-0.89,2-1.98c0-0.53-0.2-1.04-0.57-1.42s-0.88-0.6-1.41-0.6l-1.13-0.01
			c-1.09,0-1.99,0.89-2,1.98C22.48,20.81,23.37,21.72,24.47,21.73z"/>
		<path class="st2" d="M150.25,77.2l1.13,0.01c1.09,0,1.99-0.89,2-1.98c0.01-1.1-0.88-2.01-1.98-2.02l-1.13-0.01
			c-1.09,0-1.99,0.89-2,1.98c-0.01,0.53,0.2,1.04,0.57,1.42C149.21,76.99,149.71,77.2,150.25,77.2z"/>
		<path class="st2" d="M145.44,77.95c-1.09,0-1.99,0.89-2,1.98l-0.01,1.11c-0.01,0.54,0.2,1.04,0.57,1.42
			c0.37,0.38,0.87,0.6,1.41,0.6h0.02c1.09,0,1.99-0.89,2-1.98l0.01-1.11c0.01-0.54-0.2-1.04-0.57-1.42
			C146.49,78.16,145.99,77.95,145.44,77.95z"/>
		<path class="st2" d="M30.32,27.68h0.02c1.09,0,1.99-0.89,2-1.98l0.01-1.11c0-0.53-0.2-1.04-0.58-1.42
			c-0.38-0.38-0.88-0.6-1.43-0.6c-1.09,0-1.99,0.89-2,1.98l-0.01,1.11c-0.01,0.54,0.2,1.04,0.57,1.42
			C29.28,27.46,29.78,27.67,30.32,27.68z"/>
		<path class="st2" d="M35.16,21.82l1.14,0.01c1.09,0,1.99-0.89,2-1.98c0.01-0.53-0.2-1.04-0.57-1.42c-0.38-0.38-0.88-0.6-1.41-0.6
			l-1.13-0.01c-1.09,0-1.99,0.89-2,1.98c0,0.53,0.2,1.04,0.57,1.42C34.13,21.6,34.63,21.81,35.16,21.82z"/>
		<path class="st2" d="M140.71,73.12l-1.13-0.01c-1.09,0-1.99,0.89-2,1.98c-0.01,0.53,0.2,1.04,0.57,1.42
			c0.38,0.38,0.88,0.59,1.41,0.6l1.14,0.01c1.1,0,2-0.89,2-1.99c0-0.53-0.2-1.04-0.58-1.42C141.75,73.33,141.25,73.12,140.71,73.12z
			"/>
	</g>
</g>
</svg>
