<?xml version="1.0" encoding="utf-8"?>
<!-- Generator: Adobe Illustrator 24.3.0, SVG Export Plug-In . SVG Version: 6.00 Build 0)  -->
<svg version="1.1" id="Layer_1" xmlns="http://www.w3.org/2000/svg" xmlns:xlink="http://www.w3.org/1999/xlink" x="0px" y="0px"
	 viewBox="0 0 115.98 129.9" style="enable-background:new 0 0 115.98 129.9;" xml:space="preserve">
<style type="text/css">
	.st0{fill:#001135;}
	.st1{fill:#FFFFFF;}
	.st2{fill:#3C7CFF;}
</style>
<g>
	<g>
		<path class="st0" d="M75.25,60.86c0.23,1.36,0.42,2.54,0.67,4c1.7,0,3.43,0.05,5.16-0.01c6.61-0.25,12.76,1.14,18.11,5.19
			c6.78,5.13,10.48,12,10.67,20.49c0.2,9.07,0.07,18.16,0.04,27.24c-0.01,3.83-2.58,6.89-6.24,6.95
			c-8.95,0.14-26.61-0.32-35.73-0.32c0.78-1.36,1.48-2.59,2.27-3.97c2.23,0,13.3,0.36,15.65,0.36c5.57,0,11.14,0.01,16.71-0.01
			c2.26-0.01,3.35-0.98,3.36-3.12c0.02-9.2,0.2-18.41-0.06-27.6c-0.33-11.57-10.1-20.94-21.69-21.2c-2.36-0.05-5.05-0.69-6.99,0.22
			c-1.92,0.9-3.1,3.4-4.55,5.25c-2.65,3.37-9.62,12.58-12.26,15.98c-1.26-0.53-2.41-1.03-3.77-1.6c1.78-2.3,7.85-10.34,9.57-12.56
			c1.37-1.77,2.74-3.54,4.11-5.31c2.29-2.95,2.29-2.95,1.31-6.78c-9.05,6.46-18.13,6.44-27.18,0.02c-0.98,2.51-0.75,4.53,1.15,6.69
			C48.88,74.57,55.81,84.55,59,88.67c-1.24,0.55-2.37,1.06-3.69,1.65c-0.57-0.7-5.17-7.23-5.75-7.98
			c-3.15-4.06-6.33-8.11-9.42-12.22c-0.74-0.98-1.53-1.31-2.73-1.31c-4.72,0.02-9.46-0.19-13.89,1.89
			c-8.36,3.93-13.08,10.53-13.42,19.73c-0.34,9.01-0.09,18.03-0.07,27.05c0,2.27,1.06,3.28,3.38,3.29
			c7.2,0.02,23.85,0.05,31.05-0.03c1.51-0.02,2.49,0.24,2.99,1.79c0.23,0.71,0.81,1.31,1.34,2.13c-0.64,0.04-1.14,0.11-1.65,0.11
			c-8.05,0.01-25.54,0.01-33.59,0c-4.79-0.01-7.52-2.76-7.53-7.57c-0.01-8.53-0.02-17.07,0-25.6c0.04-15.16,11.66-26.73,26.84-26.76
			c2.35-0.01,4.7,0,7.06,0c0.75-2.66,0.76-4.89-0.73-7.34c-1.54-2.53-2.29-5.54-3.47-8.54c-0.8-0.15-2.03-0.23-3.16-0.6
			c-3.85-1.28-6.57-3.88-7.19-7.9c-0.46-3-0.3-6.14,0-9.18c0.14-1.46,0.97-3.09,1.98-4.17c1.34-1.43,1.61-2.89,1.62-4.71
			c0.03-9.66,5.84-17.74,14.86-20.56c1.93-0.6,4.04-0.84,6.07-0.88c5.2-0.12,10.41-0.05,15.62-0.04
			c12.02,0.02,21.28,9.12,21.43,21.16c0.02,2,0.22,3.68,1.76,5.21c0.92,0.92,1.67,2.4,1.77,3.68c0.26,3.22,0.37,6.51,0.03,9.72
			c-0.28,2.66-1.97,4.82-4.29,6.24c-1.1,0.67-1.47,1.44-1.36,2.64c0.08,0.96,0.03,1.94,0.01,2.9c-0.04,2.86-1.51,4.36-4.38,4.38
			c-5.08,0.03-10.17,0.03-15.25-0.01c-1.06-0.01-1.7,0.21-2.29,1.23c-1.38,2.39-4.12,3.29-6.77,2.48c-2.52-0.76-4.21-3.07-4.2-5.72
			c0.01-2.65,1.7-4.89,4.27-5.66c2.64-0.78,5.26,0.21,6.8,2.52c0.3,0.45,0.77,1.11,1.17,1.12c5.49,0.07,10.98,0.05,16.57,0.05
			c0-1.36,0-2.55,0-3.92c-1.59,0-3.18,0-4.85,0c0-1.31,0-2.44,0-3.56c0-6.11,0.03-12.23-0.01-18.34
			c-0.03-6.28-3.95-10.12-10.26-10.13c-5.33-0.01-10.65-0.02-15.98,0c-5.27,0.02-9.46,3.68-9.6,8.9c-0.19,7.44-0.31,14.9,0.09,22.32
			c0.51,9.5,9.12,17.2,18.4,16.61c2.74-0.17,5.58-1.15,8.04-2.41c1.91-0.97,3.65-1.68,5.76-1.49C73.34,60.93,74.3,60.86,75.25,60.86
			z M33.13,22.95c3.03,0.16,2.98,0.14,4.27-2.43c2.41-4.8,6.37-7.42,11.71-7.57c5.93-0.17,11.87-0.17,17.79,0
			c5.34,0.16,9.28,2.8,11.67,7.61c1.28,2.57,1.23,2.6,4.27,2.36c1.06-8.95-6.84-17.8-16.18-17.98c-5.81-0.11-11.62-0.12-17.43,0.03
			c-1.89,0.05-3.85,0.51-5.64,1.18C36.98,8.66,32.14,16.55,33.13,22.95z M80.08,27.04c0,5.98,0,11.86,0,17.74
			c3.23-0.05,5.99-1.76,6.44-4.65c0.43-2.8,0.41-5.78-0.03-8.58C86.04,28.74,83.21,27.01,80.08,27.04z M35.81,44.77
			c0-6,0-11.87,0-17.73c-3.03-0.03-5.83,1.6-6.29,4.35c-0.48,2.91-0.5,6.01-0.04,8.91C29.94,43.12,32.71,44.75,35.81,44.77z
			 M60.2,55.39c0.01-0.28,0.02-0.56,0.03-0.83c-0.71-0.56-1.36-1.45-2.15-1.59c-1.19-0.21-2.05,0.61-2.06,1.91
			c-0.01,1.21,0.77,2.04,1.9,1.89C58.73,56.66,59.44,55.87,60.2,55.39z"/>
		<path class="st0" d="M64.67,91.37c3.1-1.34,5.61-0.85,7.93,1.43c2.37,2.34,3.32,4.85,1.67,8.15c3.19,1.14,4.64,3.4,4.64,6.74
			c0.01,3.33-1.21,5.74-4.62,6.9c1.78,3.6,0.52,6.32-2.23,8.7c-2.21,1.92-4.56,2.35-7.16,1.03c-4.47,6.22-10.65,6.27-13.92-0.04
			c-3,1.53-5.56,0.77-7.93-1.57c-2.35-2.32-3.1-4.81-1.61-8.04c-3.06-1.18-4.61-3.33-4.6-6.74c0-3.37,1.24-5.71,4.6-6.91
			c-1.73-3.52-0.52-6.24,2.2-8.67c2.28-2.03,4.71-2.14,7.43-1.02c1.19-3.23,3.48-4.57,6.86-4.55C61.25,86.8,63.49,88.12,64.67,91.37
			z M74.89,107.75c-0.01-2.14-0.41-2.74-2.45-2.69c-2.4,0.05-1.94-2.1-2.79-3.23c-0.7-0.94-0.14-1.63,0.55-2.35
			c1.37-1.43,1.29-2.08-0.28-3.64c-1.55-1.54-2.43-1.75-3.63-0.36c-1.52,1.76-2.71,0.16-4.04-0.11c-1.25-0.25-1.51-1.08-1.53-2.27
			c-0.02-1.91-0.67-2.32-3.08-2.28c-2.04,0.03-2.62,0.45-2.54,2.39c0.11,2.51-2.13,2.09-3.37,2.81c-0.46,0.27-1.57-0.12-2.12-0.55
			c-1.52-1.19-2.19-1.21-3.7,0.28c-1.58,1.55-1.8,2.42-0.4,3.63c1.94,1.68,0.15,2.99-0.29,4.35c-0.19,0.58-1.27,1.12-2.01,1.23
			c-2.03,0.3-2.35,0.6-2.32,3.05c0.02,2.01,0.51,2.72,2.35,2.59c2.44-0.17,2.02,1.97,2.83,3.12c0.66,0.94,0.25,1.63-0.47,2.38
			c-1.38,1.43-1.31,2.12,0.21,3.65c1.7,1.71,2.29,1.86,3.73,0.35c1.72-1.8,3.01,0.01,4.4,0.4c0.51,0.14,1,1.22,1.08,1.92
			c0.23,1.91,0.6,2.34,2.64,2.36c2.39,0.03,3.17-0.4,3.04-2.28c-0.17-2.43,1.9-2.09,3.06-2.87c1.02-0.68,1.76-0.18,2.54,0.56
			c1.44,1.36,2.01,1.25,3.75-0.52c1.42-1.44,1.51-2.18,0.16-3.51c-0.89-0.87-1.08-1.65-0.42-2.7c0.28-0.45,0.3-1.11,0.65-1.48
			c0.5-0.54,1.16-1.2,1.81-1.28C74.43,110.44,74.9,110.04,74.89,107.75z"/>
		<path class="st0" d="M47.99,39.82c-0.66,0-1.42,0.21-1.96-0.05c-0.76-0.37-1.68-0.97-1.92-1.69c-0.38-1.14,0.5-2.02,1.61-2.15
			c1.48-0.17,3.01-0.17,4.49-0.01c1.12,0.12,2,0.99,1.62,2.14c-0.23,0.71-1.14,1.33-1.89,1.71C49.42,40.04,48.65,39.82,47.99,39.82z
			"/>
		<path class="st0" d="M67.9,39.82c-0.66,0-1.43,0.22-1.95-0.05c-0.74-0.39-1.77-1.1-1.81-1.73c-0.04-0.67,0.83-1.9,1.47-2.01
			c1.56-0.29,3.25-0.27,4.8,0.04c0.61,0.12,1.36,1.37,1.36,2.09c0,0.56-1.02,1.29-1.73,1.6C69.44,40.03,68.62,39.82,67.9,39.82z"/>
		<path class="st1" d="M33.13,22.95c-1-6.41,3.84-14.3,10.47-16.79c1.78-0.67,3.74-1.13,5.64-1.18c5.81-0.15,11.62-0.15,17.43-0.03
			c9.34,0.18,17.24,9.03,16.18,17.98c-3.05,0.24-3,0.21-4.27-2.36c-2.39-4.81-6.33-7.45-11.67-7.61c-5.93-0.17-11.87-0.17-17.79,0
			c-5.34,0.15-9.3,2.77-11.71,7.57C36.11,23.09,36.16,23.12,33.13,22.95z"/>
		<path class="st1" d="M80.08,27.04c3.13-0.03,5.96,1.7,6.41,4.51c0.44,2.8,0.46,5.78,0.03,8.58c-0.44,2.89-3.2,4.6-6.44,4.65
			C80.08,38.9,80.08,33.02,80.08,27.04z"/>
		<path class="st1" d="M35.81,44.77c-3.1-0.02-5.88-1.65-6.32-4.47c-0.46-2.91-0.44-6.01,0.04-8.91c0.45-2.75,3.26-4.37,6.29-4.35
			C35.81,32.9,35.81,38.76,35.81,44.77z"/>
		<path class="st2" d="M74.89,107.75c0.01,2.29-0.45,2.69-2.65,2.96c-0.65,0.08-1.31,0.75-1.81,1.28c-0.35,0.37-0.37,1.02-0.65,1.48
			c-0.66,1.05-0.46,1.83,0.42,2.7c1.35,1.32,1.26,2.06-0.16,3.51c-1.73,1.77-2.31,1.88-3.75,0.52c-0.78-0.74-1.51-1.24-2.54-0.56
			c-1.17,0.78-3.24,0.43-3.06,2.87c0.13,1.88-0.65,2.31-3.04,2.28c-2.04-0.02-2.41-0.46-2.64-2.36c-0.08-0.7-0.57-1.77-1.08-1.92
			c-1.39-0.39-2.69-2.2-4.4-0.4c-1.44,1.51-2.03,1.36-3.73-0.35c-1.51-1.52-1.59-2.21-0.21-3.65c0.71-0.74,1.13-1.44,0.47-2.38
			c-0.81-1.14-0.39-3.29-2.83-3.12c-1.83,0.13-2.33-0.59-2.35-2.59c-0.03-2.45,0.3-2.75,2.32-3.05c0.74-0.11,1.83-0.65,2.01-1.23
			c0.43-1.36,2.23-2.67,0.29-4.35c-1.4-1.21-1.18-2.08,0.4-3.63c1.51-1.49,2.18-1.46,3.7-0.28c0.55,0.43,1.66,0.82,2.12,0.55
			c1.24-0.72,3.48-0.3,3.37-2.81c-0.08-1.95,0.5-2.36,2.54-2.39c2.4-0.04,3.05,0.37,3.08,2.28c0.01,1.19,0.28,2.01,1.53,2.27
			c1.33,0.27,2.52,1.87,4.04,0.11c1.2-1.39,2.08-1.18,3.63,0.36c1.56,1.56,1.65,2.21,0.28,3.64c-0.69,0.72-1.25,1.41-0.55,2.35
			c0.85,1.13,0.39,3.28,2.79,3.23C74.47,105.01,74.88,105.61,74.89,107.75z M57.95,115.74c4.41-0.02,7.95-3.59,7.92-7.96
			c-0.03-4.35-3.64-7.98-7.98-8c-4.38-0.03-8.03,3.71-7.98,8.15C49.97,112.34,53.48,115.76,57.95,115.74z"/>
		<path class="st0" d="M57.95,115.74c-4.47,0.02-7.99-3.4-8.04-7.82c-0.05-4.44,3.6-8.18,7.98-8.15c4.33,0.03,7.94,3.65,7.98,8
			C65.9,112.16,62.36,115.72,57.95,115.74z M57.87,111.74c2.18,0.01,3.94-1.69,4-3.84c0.06-2.17-1.83-4.12-3.99-4.12
			c-2.18,0-4.01,1.89-3.97,4.11C53.95,110.06,55.67,111.74,57.87,111.74z"/>
		<path class="st1" d="M57.87,111.74c-2.2-0.01-3.92-1.68-3.96-3.86c-0.04-2.22,1.79-4.11,3.97-4.11c2.15,0,4.04,1.96,3.99,4.12
			C61.81,110.06,60.05,111.75,57.87,111.74z"/>
	</g>
	<polygon class="st0" points="75.25,60.86 75.25,55.53 70.66,55.53 70.66,61.9 	"/>
</g>
</svg>
