<?xml version="1.0" encoding="utf-8"?>
<!-- Generator: Adobe Illustrator 25.0.0, SVG Export Plug-In . SVG Version: 6.00 Build 0)  -->
<svg version="1.1" id="Layer_1" xmlns="http://www.w3.org/2000/svg" xmlns:xlink="http://www.w3.org/1999/xlink" x="0px" y="0px"
	 viewBox="0 0 103.96 123.89" style="enable-background:new 0 0 103.96 123.89;" xml:space="preserve">
<style type="text/css">
	.st0{fill:#185AE9;}
	.st1{fill:#00B0FB;}
	.st2{fill-rule:evenodd;clip-rule:evenodd;fill:#00B0FB;}
	.st3{fill:#3C7CFF;}
	.st4{fill:#001135;}
	.st5{fill:#FFFFFF;}
	.st6{fill:#061639;}
	.st7{fill:#1429FF;}
	.st8{fill:#663398;}
	.st9{fill:#FEFEFE;}
	.st10{fill:#8DB849;}
	.st11{fill:#5A863E;}
	.st12{fill:#FFFFFE;}
	.st13{fill-rule:evenodd;clip-rule:evenodd;fill:#7FC728;}
	.st14{fill:#B3B3B3;}
	.st15{fill:#A6120D;}
	.st16{fill:#DD1B16;}
	.st17{fill:#F2F2F2;}
	.st18{fill:#8F9ED1;}
	.st19{fill:#030303;}
	.st20{fill:#0E0E0D;}
	.st21{fill:#8F8F90;}
	.st22{fill:#DBDBDB;}
	.st23{fill:#FDFDFD;}
	.st24{fill:#FDFCFD;}
	.st25{fill:#010101;}
	.st26{fill:#FCB415;}
	.st27{opacity:0.2;fill:#FFFFFF;enable-background:new    ;}
	.st28{fill:#68B345;}
	.st29{fill:#0A99D6;}
	.st30{opacity:0.1;fill:#010101;enable-background:new    ;}
	.st31{fill:#EE3325;}
	.st32{fill:url(#SVGID_1_);}
	.st33{fill:#FF2D20;}
	.st34{clip-path:url(#SVGID_2_);fill:#F9C638;}
	.st35{fill:#2A2D2C;}
	.st36{fill:#F9C638;}
	.st37{fill:#833CF7;}
</style>
<path class="st5" d="M64.04,118.78c1.42-1.44,1.51-2.18,0.16-3.51c-0.89-0.87-1.08-1.65-0.42-2.7c0.28-0.45,0.3-1.11,0.65-1.48
	c0.5-0.54,1.16-1.2,1.81-1.28c2.18-0.26,2.65-0.66,2.64-2.95c-0.01-2.14-0.41-2.74-2.45-2.69c-2.4,0.05-1.94-2.1-2.79-3.23
	c-0.7-0.94-0.14-1.63,0.55-2.35c1.37-1.43,1.29-2.08-0.28-3.64c-1.55-1.54-2.43-1.75-3.63-0.36c-1.52,1.76-2.71,0.16-4.04-0.11
	c-1.25-0.25-1.51-1.08-1.53-2.27c-0.02-1.91-0.67-2.32-3.08-2.28c-2.04,0.03-2.62,0.45-2.54,2.39c0.11,2.51-2.13,2.09-3.37,2.81
	c-0.46,0.27-1.57-0.12-2.12-0.55c-1.52-1.19-2.19-1.21-3.7,0.28c-1.58,1.55-1.8,2.42-0.4,3.63c1.94,1.68,0.15,2.99-0.29,4.35
	c-0.19,0.58-1.27,1.12-2.01,1.23c-2.03,0.3-2.35,0.6-2.32,3.05c0.02,2.01,0.51,2.72,2.35,2.59c2.44-0.17,2.02,1.97,2.83,3.12
	c0.66,0.94,0.25,1.63-0.47,2.38c-1.38,1.43-1.31,2.12,0.21,3.65c1.7,1.71,2.29,1.86,3.73,0.35c1.72-1.8,3.01,0.01,4.4,0.4
	c0.51,0.14,1,1.22,1.08,1.92c0.23,1.91,0.6,2.34,2.64,2.36c2.39,0.03,3.17-0.4,3.04-2.28c-0.17-2.43,1.9-2.09,3.06-2.87
	c1.02-0.68,1.76-0.18,2.54,0.56C61.73,120.66,62.3,120.55,64.04,118.78z M51.94,114.85c-4.47,0.02-7.99-3.4-8.04-7.82
	c-0.05-4.44,3.6-8.18,7.98-8.15c4.33,0.03,7.94,3.65,7.98,8C59.89,111.27,56.35,114.83,51.94,114.85z"/>
<path class="st5" d="M51.87,102.89c-2.18,0-4.01,1.89-3.97,4.11c0.04,2.17,1.76,3.85,3.96,3.85c2.18,0.01,3.94-1.69,4-3.84
	C55.92,104.84,54.03,102.89,51.87,102.89z"/>
<path class="st4" d="M64.19,119.54c0.7,0,2.29,0.04,4.2,0.08c0.92-1.71,1.02-3.64-0.11-5.92c3.41-1.16,4.63-3.57,4.62-6.9
	c0-3.34-1.45-5.6-4.64-6.74c1.65-3.3,0.7-5.81-1.67-8.15c-2.32-2.28-4.83-2.77-7.93-1.43c-0.57-1.58-1.4-2.69-2.47-3.43
	c-0.72,0.94-1.34,1.75-1.83,2.37c-0.88-0.37-1.71-0.72-2.58-1.1c-0.8,0.36-1.6,0.72-2.48,1.11c-0.2-0.25-0.9-1.21-1.75-2.39
	c-1.08,0.74-1.92,1.85-2.49,3.4c-2.72-1.12-5.15-1.01-7.43,1.02c-2.72,2.43-3.93,5.15-2.2,8.67c-3.36,1.2-4.6,3.54-4.6,6.91
	c-0.01,3.41,1.54,5.56,4.6,6.74c-1.08,2.35-0.97,4.31,0.07,6.09c1.09-0.01,2.09-0.01,2.95-0.02c1.51-0.02,2.49,0.24,2.99,1.79
	c0.23,0.71,0.81,1.31,1.34,2.13c-0.64,0.04-1.14,0.11-1.65,0.11c-0.28,0-0.61,0-0.91,0c1.47,0.49,3.04,0.38,4.75-0.49
	c3.27,6.31,9.45,6.26,13.92,0.04c1.97,1,3.8,0.99,5.54,0.09c-0.88-0.01-1.73-0.01-2.51-0.01C62.7,122.15,63.4,120.92,64.19,119.54z
	 M60.29,119.3c-0.78-0.74-1.52-1.24-2.54-0.56c-1.16,0.78-3.23,0.44-3.06,2.87c0.13,1.88-0.65,2.31-3.04,2.28
	c-2.04-0.02-2.41-0.45-2.64-2.36c-0.08-0.7-0.57-1.78-1.08-1.92c-1.39-0.39-2.68-2.2-4.4-0.4c-1.44,1.51-2.03,1.36-3.73-0.35
	c-1.52-1.53-1.59-2.22-0.21-3.65c0.72-0.75,1.13-1.44,0.47-2.38c-0.81-1.15-0.39-3.29-2.83-3.12c-1.84,0.13-2.33-0.58-2.35-2.59
	c-0.03-2.45,0.29-2.75,2.32-3.05c0.74-0.11,1.82-0.65,2.01-1.23c0.44-1.36,2.23-2.67,0.29-4.35c-1.4-1.21-1.18-2.08,0.4-3.63
	c1.51-1.49,2.18-1.47,3.7-0.28c0.55,0.43,1.66,0.82,2.12,0.55c1.24-0.72,3.48-0.3,3.37-2.81c-0.08-1.94,0.5-2.36,2.54-2.39
	c2.41-0.04,3.06,0.37,3.08,2.28c0.02,1.19,0.28,2.02,1.53,2.27c1.33,0.27,2.52,1.87,4.04,0.11c1.2-1.39,2.08-1.18,3.63,0.36
	c1.57,1.56,1.65,2.21,0.28,3.64c-0.69,0.72-1.25,1.41-0.55,2.35c0.85,1.13,0.39,3.28,2.79,3.23c2.04-0.05,2.44,0.55,2.45,2.69
	c0.01,2.29-0.46,2.69-2.64,2.95c-0.65,0.08-1.31,0.74-1.81,1.28c-0.35,0.37-0.37,1.03-0.65,1.48c-0.66,1.05-0.47,1.83,0.42,2.7
	c1.35,1.33,1.26,2.07-0.16,3.51C62.3,120.55,61.73,120.66,60.29,119.3z"/>
<path class="st4" d="M68.39,119.62c-1.91-0.05-3.5-0.08-4.2-0.08c-0.79,1.38-1.49,2.61-2.27,3.97c0.77,0,1.62,0,2.51,0.01
	c0.55-0.29,1.09-0.66,1.62-1.12C67.06,121.53,67.86,120.61,68.39,119.62z"/>
<path class="st4" d="M42.78,123.77c-0.53-0.82-1.11-1.42-1.34-2.13c-0.5-1.55-1.48-1.81-2.99-1.79c-0.86,0.01-1.86,0.02-2.95,0.02
	c0.39,0.67,0.9,1.31,1.54,1.95c1.02,1,2.07,1.69,3.18,2.06c0.31,0,0.63,0,0.91,0C41.64,123.88,42.14,123.81,42.78,123.77z"/>
<path class="st4" d="M51.88,98.88c-4.38-0.03-8.03,3.71-7.98,8.15c0.05,4.42,3.57,7.84,8.04,7.82c4.41-0.02,7.95-3.58,7.92-7.97
	C59.82,102.53,56.21,98.91,51.88,98.88z M51.86,110.85c-2.2,0-3.92-1.68-3.96-3.85c-0.04-2.22,1.79-4.11,3.97-4.11
	c2.16,0,4.05,1.95,3.99,4.12C55.8,109.16,54.04,110.86,51.86,110.85z"/>
<g>
	<path class="st4" d="M52.06,85.9c2.52-3.3,6.71-8.85,8.1-10.64c1.37-1.77,2.74-3.54,4.11-5.31c2.29-2.95,2.29-2.95,1.31-6.78
		c-9.05,6.46-18.13,6.44-27.18,0.02c-0.98,2.51-0.75,4.53,1.15,6.69c2.89,3.31,8.51,11.29,12.03,16.03c0.12,0,0.22-0.02,0.34-0.02
		C51.97,85.89,52.01,85.9,52.06,85.9z"/>
	<path class="st3" d="M59.23,55.95c-1.06-0.01-1.7,0.21-2.29,1.23c-1.38,2.39-4.12,3.29-6.77,2.48c-2.52-0.76-4.21-3.07-4.2-5.72
		c0.01-2.65,1.7-4.89,4.27-5.66c2.64-0.78,5.26,0.21,6.8,2.52c0.3,0.45,0.77,1.11,1.17,1.12c5.49,0.07,10.98,0.05,16.57,0.05
		c0-1.36,0-2.55,0-3.92c-1.59,0-3.18,0-4.85,0c0-1.31,0-2.44,0-3.56c0-6.11,0.03-12.23-0.01-18.34
		c-0.03-6.28-3.95-10.12-10.26-10.13c-5.33-0.01-10.65-0.02-15.98,0c-5.27,0.02-9.46,3.68-9.6,8.9c-0.19,7.44-0.31,14.9,0.09,22.32
		c0.51,9.5,9.12,17.2,18.4,16.61c2.74-0.17,5.58-1.15,8.04-2.41c1.37-0.69,2.65-1.25,4.04-1.44v-4.03
		C62.84,55.97,61.04,55.96,59.23,55.95z M59.6,35.14c1.56-0.29,3.25-0.27,4.8,0.04c0.61,0.12,1.36,1.37,1.36,2.09
		c0,0.56-1.02,1.29-1.73,1.6c-0.6,0.27-1.42,0.06-2.14,0.06c-0.66,0-1.43,0.22-1.95-0.05c-0.74-0.39-1.77-1.1-1.81-1.73
		C58.09,36.48,58.96,35.25,59.6,35.14z M45.82,37.17c-0.23,0.71-1.14,1.33-1.89,1.71c-0.52,0.27-1.29,0.05-1.95,0.05
		c-0.66,0-1.42,0.21-1.96-0.05c-0.76-0.37-1.68-0.97-1.92-1.69c-0.38-1.14,0.5-2.02,1.61-2.15c1.48-0.17,3.01-0.17,4.49-0.01
		C45.32,35.15,46.2,36.02,45.82,37.17z"/>
	<path class="st3" d="M58.66,90.48c3.1-1.34,5.61-0.85,7.93,1.43c2.37,2.34,3.32,4.85,1.67,8.15c3.19,1.14,4.64,3.4,4.64,6.74
		c0.01,3.33-1.21,5.74-4.62,6.9c1.13,2.28,1.03,4.21,0.11,5.92c4.15,0.11,9.84,0.28,11.45,0.28c5.57,0,11.14,0.01,16.71-0.01
		c2.26-0.01,3.35-0.98,3.36-3.12c0.02-9.2,0.2-18.41-0.06-27.6c-0.33-11.57-10.1-20.94-21.69-21.2c-2.36-0.05-5.05-0.69-6.99,0.22
		c-1.92,0.9-3.1,3.4-4.55,5.25c-2.17,2.76-7.22,9.41-10.43,13.61C57.26,87.79,58.09,88.9,58.66,90.48z"/>
	<path class="st3" d="M35.43,113.78c-3.06-1.18-4.61-3.33-4.6-6.74c0-3.37,1.24-5.71,4.6-6.91c-1.73-3.52-0.52-6.24,2.2-8.67
		c2.28-2.03,4.71-2.14,7.43-1.02c0.57-1.56,1.41-2.67,2.49-3.4c-1.56-2.18-3.63-5.1-4-5.59c-3.15-4.06-6.33-8.11-9.42-12.22
		c-0.74-0.98-1.53-1.31-2.73-1.31c-4.72,0.02-9.46-0.19-13.89,1.89C9.15,73.74,4.43,80.34,4.09,89.54
		C3.75,98.55,4,107.57,4.02,116.59c0,2.27,1.06,3.28,3.38,3.29c6.34,0.02,20.01,0.04,28.1-0.01
		C34.46,118.09,34.35,116.13,35.43,113.78z"/>
	<path class="st5" d="M43.1,12.06c5.93-0.17,11.87-0.17,17.79,0c5.34,0.16,9.28,2.8,11.67,7.61c1.28,2.57,1.23,2.6,4.27,2.36
		c1.06-8.95-6.84-17.8-16.18-17.98c-5.81-0.11-11.62-0.12-17.43,0.03c-1.89,0.05-3.85,0.51-5.64,1.18
		c-6.61,2.51-11.45,10.4-10.46,16.8c3.03,0.16,2.98,0.14,4.27-2.43C33.8,14.83,37.76,12.21,43.1,12.06z"/>
	<path class="st4" d="M23.51,30.5c-0.48,2.91-0.5,6.01-0.04,8.91c0.46,2.82,3.23,4.45,6.33,4.47c0-6,0-11.87,0-17.73
		C26.77,26.12,23.97,27.75,23.51,30.5z"/>
	<path class="st5" d="M50.01,53.99c-0.01,1.21,0.77,2.04,1.9,1.89c0.81-0.11,1.52-0.9,2.28-1.38c0.01-0.28,0.02-0.56,0.03-0.83
		c-0.71-0.56-1.36-1.45-2.15-1.59C50.88,51.87,50.02,52.69,50.01,53.99z"/>
	<path class="st4" d="M74.07,43.89c3.23-0.05,5.99-1.76,6.44-4.65c0.43-2.8,0.41-5.78-0.03-8.58c-0.45-2.81-3.28-4.54-6.41-4.51
		C74.07,32.13,74.07,38.01,74.07,43.89z"/>
	<path class="st4" d="M93.18,69.15c-5.35-4.05-11.5-5.44-18.11-5.19c-1.73,0.06-3.46,0.01-5.16,0.01c-0.25-1.46-0.44-2.64-0.67-4
		l-4.59,1.04V60c-1.39,0.19-2.67,0.75-4.04,1.44c-2.46,1.26-5.3,2.24-8.04,2.41c-9.28,0.59-17.89-7.11-18.4-16.61
		c-0.4-7.42-0.28-14.88-0.09-22.32c0.14-5.22,4.33-8.88,9.6-8.9c5.33-0.02,10.65-0.01,15.98,0c6.31,0.01,10.23,3.85,10.26,10.13
		c0.04,6.11,0.01,12.23,0.01,18.34c0,1.12,0,2.25,0,3.56c1.67,0,3.26,0,4.85,0c0,1.37,0,2.56,0,3.92c-5.59,0-11.08,0.02-16.57-0.05
		c-0.4-0.01-0.87-0.67-1.17-1.12c-1.54-2.31-4.16-3.3-6.8-2.52c-2.57,0.77-4.26,3.01-4.27,5.66c-0.01,2.65,1.68,4.96,4.2,5.72
		c2.65,0.81,5.39-0.09,6.77-2.48c0.59-1.02,1.23-1.24,2.29-1.23c1.81,0.01,3.61,0.02,5.42,0.02v-1.33h4.59v1.33
		c1.75,0,3.49,0,5.24-0.01c2.87-0.02,4.34-1.52,4.38-4.38c0.02-0.96,0.07-1.94-0.01-2.9c-0.11-1.2,0.26-1.97,1.36-2.64
		c2.32-1.42,4.01-3.58,4.29-6.24c0.34-3.21,0.23-6.5-0.03-9.72c-0.1-1.28-0.85-2.76-1.77-3.68c-1.54-1.53-1.74-3.21-1.76-5.21
		C80.79,9.15,71.53,0.05,59.51,0.03C54.3,0.02,49.09-0.05,43.89,0.07c-2.03,0.04-4.14,0.28-6.07,0.88
		c-9.02,2.82-14.83,10.9-14.86,20.56c-0.01,1.82-0.28,3.28-1.62,4.71c-1.01,1.08-1.84,2.71-1.98,4.17c-0.3,3.04-0.46,6.18,0,9.18
		c0.62,4.02,3.34,6.62,7.19,7.9c1.13,0.37,2.36,0.45,3.16,0.6c1.18,3,1.93,6.01,3.47,8.54c1.49,2.45,1.48,4.68,0.73,7.34
		c-2.36,0-4.71-0.01-7.06,0c-15.18,0.03-26.8,11.6-26.84,26.76c-0.02,8.53-0.01,17.07,0,25.6c0.01,4.81,2.74,7.56,7.53,7.57
		c7.77,0.01,24.29,0.01,32.68,0c-1.11-0.37-2.16-1.06-3.18-2.06c-0.64-0.63-1.15-1.28-1.54-1.95c-8.09,0.05-21.76,0.02-28.1,0.01
		c-2.32-0.01-3.38-1.02-3.38-3.29C4,107.57,3.75,98.55,4.09,89.54c0.34-9.2,5.06-15.8,13.42-19.73c4.43-2.08,9.17-1.87,13.89-1.89
		c1.2,0,1.99,0.33,2.73,1.31c3.09,4.11,6.27,8.16,9.42,12.22c0.38,0.49,2.44,3.4,4,5.59c1.08-0.74,2.43-1.09,4.02-1.13
		c-3.51-4.73-9.14-12.72-12.03-16.03c-1.9-2.16-2.13-4.18-1.15-6.69c9.05,6.42,18.13,6.44,27.18-0.02c0.98,3.83,0.98,3.83-1.31,6.78
		c-1.37,1.77-2.74,3.54-4.11,5.31c-1.38,1.79-5.58,7.34-8.1,10.64c1.64,0.03,3.02,0.39,4.12,1.15c3.21-4.2,8.27-10.85,10.43-13.61
		c1.45-1.85,2.63-4.35,4.55-5.25c1.94-0.91,4.63-0.27,6.99-0.22c11.59,0.26,21.36,9.63,21.69,21.2c0.26,9.19,0.08,18.4,0.06,27.6
		c-0.01,2.14-1.1,3.11-3.36,3.12c-5.57,0.02-11.14,0.01-16.71,0.01c-1.61,0-7.3-0.17-11.45-0.28c-0.53,0.99-1.33,1.9-2.34,2.78
		c-0.53,0.46-1.07,0.83-1.62,1.12c9.56,0.06,25.03,0.44,33.22,0.31c3.66-0.06,6.23-3.12,6.24-6.95c0.03-9.08,0.16-18.17-0.04-27.24
		C103.66,81.15,99.96,74.28,93.18,69.15z M54.19,54.5c-0.76,0.48-1.47,1.27-2.28,1.38c-1.13,0.15-1.91-0.68-1.9-1.89
		c0.01-1.3,0.87-2.12,2.06-1.91c0.79,0.14,1.44,1.03,2.15,1.59C54.21,53.94,54.2,54.22,54.19,54.5z M80.48,30.66
		c0.44,2.8,0.46,5.78,0.03,8.58c-0.45,2.89-3.21,4.6-6.44,4.65c0-5.88,0-11.76,0-17.74C77.2,26.12,80.03,27.85,80.48,30.66z
		 M29.8,43.88c-3.1-0.02-5.87-1.65-6.33-4.47c-0.46-2.9-0.44-6,0.04-8.91c0.46-2.75,3.26-4.38,6.29-4.35
		C29.8,32.01,29.8,37.88,29.8,43.88z M31.39,19.63c-1.29,2.57-1.24,2.59-4.27,2.43c-0.99-6.4,3.85-14.29,10.46-16.8
		c1.79-0.67,3.75-1.13,5.64-1.18c5.81-0.15,11.62-0.14,17.43-0.03c9.34,0.18,17.24,9.03,16.18,17.98c-3.04,0.24-2.99,0.21-4.27-2.36
		c-2.39-4.81-6.33-7.45-11.67-7.61c-5.92-0.17-11.86-0.17-17.79,0C37.76,12.21,33.8,14.83,31.39,19.63z"/>
	<path class="st4" d="M52.06,85.9c-0.05,0-0.09-0.01-0.14-0.01c-0.12,0-0.23,0.01-0.34,0.02c0.08,0.11,0.16,0.21,0.24,0.32
		C51.9,86.12,51.98,86.01,52.06,85.9z"/>
	<path class="st4" d="M51.78,88.32c-0.38-0.16-0.77-0.33-1.19-0.5c0.3-0.39,0.72-0.94,1.22-1.6c-0.08-0.11-0.16-0.21-0.24-0.32
		c-1.59,0.04-2.94,0.39-4.02,1.13c0.84,1.18,1.54,2.15,1.75,2.39C50.18,89.04,50.98,88.68,51.78,88.32z"/>
	<path class="st4" d="M52.99,87.78c-0.41,0.18-0.81,0.36-1.21,0.54c0.88,0.37,1.71,0.73,2.58,1.1c0.48-0.62,1.11-1.44,1.83-2.37
		c-1.11-0.76-2.48-1.12-4.12-1.15c-0.09,0.11-0.17,0.22-0.25,0.33C52.24,86.8,52.64,87.33,52.99,87.78z"/>
	<path class="st4" d="M51.81,86.22c-0.5,0.65-0.92,1.21-1.22,1.6c0.41,0.17,0.8,0.34,1.19,0.5c0.4-0.18,0.8-0.36,1.21-0.54
		C52.64,87.33,52.24,86.8,51.81,86.22z"/>
	<path class="st4" d="M44.2,35.03c-1.48-0.16-3.01-0.16-4.49,0.01c-1.11,0.13-1.99,1.01-1.61,2.15c0.24,0.72,1.16,1.32,1.92,1.69
		c0.54,0.26,1.3,0.05,1.96,0.05c0.66,0,1.43,0.22,1.95-0.05c0.75-0.38,1.66-1,1.89-1.71C46.2,36.02,45.32,35.15,44.2,35.03z"/>
	<path class="st4" d="M59.94,38.88c0.52,0.27,1.29,0.05,1.95,0.05c0.72,0,1.54,0.21,2.14-0.06c0.71-0.31,1.73-1.04,1.73-1.6
		c0-0.72-0.75-1.97-1.36-2.09c-1.55-0.31-3.24-0.33-4.8-0.04c-0.64,0.11-1.51,1.34-1.47,2.01C58.17,37.78,59.2,38.49,59.94,38.88z"
		/>
	<path class="st4" d="M64.65,55.97V60c0.55-0.08,1.12-0.1,1.72-0.05c0.96,0.09,1.92,0.02,2.87,0.02v-4
		C67.71,55.98,66.18,55.98,64.65,55.97z"/>
	<path class="st4" d="M66.37,59.95c-0.6-0.05-1.17-0.03-1.72,0.05v1.01l4.59-1.04C68.29,59.97,67.33,60.04,66.37,59.95z"/>
	<path class="st4" d="M64.65,54.64v1.33c1.53,0,3.06,0,4.59,0v-1.33H64.65z"/>
</g>
</svg>
