<?xml version="1.0" encoding="utf-8"?>
<!-- Generator: Adobe Illustrator 24.3.0, SVG Export Plug-In . SVG Version: 6.00 Build 0)  -->
<svg version="1.1" id="Layer_1" xmlns="http://www.w3.org/2000/svg" xmlns:xlink="http://www.w3.org/1999/xlink" x="0px" y="0px"
	 viewBox="0 0 115.98 129.9" style="enable-background:new 0 0 115.98 129.9;" xml:space="preserve">
<style type="text/css">
	.st0{fill:#001135;}
	.st1{fill:#FFFFFF;}
	.st2{fill:#3C7CFF;}
</style>
<g>
	<g>
		<path class="st0" d="M84.16,53.98c10.2,3.45,14.88,9.72,13.53,17.94c-1.27,7.74-7.81,13.29-15.55,13.18
			c-7.41-0.1-13.92-5.66-15.13-12.63c-1.25-7.2,2.53-16.19,13.43-18.46c0-0.56,0-1.16,0-1.75c0-13.15,0-26.3,0-39.45
			c0-2.98-0.91-3.92-3.84-3.92c-22.74,0-45.48,0-68.23,0c-2.69,0-3.62,0.9-3.62,3.56c-0.01,35.11-0.01,70.22,0,105.32
			c0,2.48,0.86,3.46,3.13,3.47c13.63,0.02,27.27,0.01,40.9,0.01c0.3,0,0.59-0.06,0.76-0.07c0.78-3.16,1.31-6.31,2.34-9.29
			c4.68-13.53,18.46-22.17,32.77-21.24c13.22,0.86,27.69,10.93,29.99,28.28c0.87,6.59,0.49,5.9-4.93,5.9
			c-33.66,0-67.32-0.01-100.98,0.01c-2.25,0-4.47-0.21-5.89-2.1c-0.86-1.14-1.27-2.64-1.76-4.03c-0.19-0.54-0.05-1.2-0.05-1.8
			c0-34.63,0-69.25,0-103.88c0-5.64,2.36-7.99,8.05-7.99c22.38,0,44.76,0,67.14,0c5.52,0,7.94,2.4,7.94,7.92
			c0.01,12.97,0,25.94,0,38.91C84.16,52.6,84.16,53.32,84.16,53.98z M111.02,121.14c-0.36-13.07-12.02-27.39-29.53-26.81
			c-16.33,0.54-27.37,14.14-27.7,26.81C72.83,121.14,91.85,121.14,111.02,121.14z M70.53,69.72c-0.01,6.59,5.22,11.83,11.8,11.81
			c6.5-0.02,11.76-5.21,11.81-11.66c0.05-6.54-5.19-11.87-11.75-11.94C75.89,57.86,70.55,63.17,70.53,69.72z"/>
		<path class="st0" d="M42.52,68.75C27.73,68.74,15.58,56.6,15.58,41.84c0.01-14.78,12.11-26.73,27.06-26.73
			c14.83,0.01,26.83,12,26.78,26.78C69.37,56.84,57.44,68.77,42.52,68.75z M19.64,43.8c0.44,8.68,6.85,17.96,17.4,20.6
			c10,2.5,20.64-2.1,25.76-11.22c4.6-8.19,3.4-20.05-2.49-25.8c-2.08,2.06-4.16,4.12-6.25,6.19c5.81,9.07,0.97,18.14-6.01,21.2
			C41.42,57.68,31,55,28.57,43.8C25.65,43.8,22.72,43.8,19.64,43.8z M42.45,52.07c5.77,0.04,10.41-4.5,10.42-10.2
			c0.01-5.57-4.57-10.26-10.15-10.39c-5.49-0.13-10.45,4.75-10.47,10.3C32.22,47.35,36.87,52.03,42.45,52.07z M19.64,40
			c2.8,0,5.51,0.04,8.2-0.05c0.37-0.01,0.94-0.65,1.05-1.08c1.45-5.74,5.06-9.27,10.76-10.75c0.39-0.1,0.99-0.48,0.99-0.75
			c0.07-2.84,0.05-5.69,0.05-8.55C28.41,19.94,20.18,30.09,19.64,40z M44.6,18.81c0,3.01,0,5.94,0,8.69
			c2.24,0.96,4.37,1.87,6.7,2.86c1.87-2.03,3.85-4.17,5.9-6.4C53.71,21.03,49.5,19.26,44.6,18.81z"/>
		<path class="st0" d="M41.11,84.35c-7.66,0-15.32,0-22.98,0c-0.6,0-1.34,0.17-1.77-0.11c-0.62-0.4-1.39-1.15-1.39-1.75
			c0-0.61,0.77-1.34,1.38-1.78c0.36-0.26,1.05-0.1,1.59-0.1c15.56,0,31.12,0,46.68,0c0.54,0,1.23-0.17,1.59,0.1
			c0.61,0.44,1.45,1.22,1.39,1.77c-0.07,0.66-0.88,1.43-1.56,1.78c-0.57,0.3-1.42,0.09-2.14,0.09
			C56.31,84.35,48.71,84.35,41.11,84.35z"/>
		<path class="st0" d="M36.36,97.49c-6.09,0-12.18,0-18.27,0c-0.6,0-1.32,0.13-1.77-0.14c-0.59-0.35-1.31-1.02-1.35-1.6
			c-0.04-0.59,0.56-1.4,1.11-1.79c0.47-0.33,1.27-0.25,1.92-0.25c12.36-0.01,24.72-0.01,37.07,0c0.6,0,1.33-0.1,1.75,0.2
			c0.57,0.4,1.24,1.14,1.22,1.72c-0.01,0.59-0.71,1.3-1.29,1.69c-0.44,0.29-1.17,0.17-1.77,0.17
			C48.77,97.49,42.56,97.49,36.36,97.49z"/>
		<path class="st0" d="M31.98,110.66c-4.76,0-9.52,0.01-14.29-0.01c-0.59,0-1.34,0.03-1.72-0.3c-0.52-0.45-1.08-1.27-1-1.86
			c0.07-0.58,0.85-1.14,1.43-1.55c0.29-0.21,0.82-0.09,1.24-0.09c9.58,0,19.17-0.01,28.75,0.02c0.74,0,1.65,0.13,2.15,0.58
			c0.4,0.36,0.64,1.52,0.36,1.9c-0.45,0.62-1.36,1.22-2.1,1.25c-3.25,0.13-6.51,0.06-9.76,0.06
			C35.35,110.66,33.67,110.66,31.98,110.66z"/>
		<path class="st2" d="M111.02,121.14c-19.17,0-38.2,0-57.23,0c0.33-12.67,11.37-26.27,27.7-26.81
			C99.01,93.75,110.67,108.07,111.02,121.14z"/>
		<path class="st2" d="M70.53,69.72c0.01-6.55,5.35-11.86,11.86-11.79c6.56,0.07,11.79,5.4,11.75,11.94
			c-0.05,6.45-5.31,11.64-11.81,11.66C75.75,81.55,70.52,76.31,70.53,69.72z"/>
		<path class="st1" d="M19.64,43.8c3.08,0,6.01,0,8.93,0C31,55,41.42,57.68,48.05,54.77c6.98-3.07,11.82-12.13,6.01-21.2
			c2.09-2.07,4.17-4.13,6.25-6.19c5.89,5.74,7.09,17.61,2.49,25.8C57.67,62.3,47.04,66.9,37.04,64.4
			C26.49,61.76,20.08,52.47,19.64,43.8z"/>
		<path class="st1" d="M19.64,40c0.54-9.91,8.77-20.05,21.06-21.18c0,2.86,0.03,5.71-0.05,8.55c-0.01,0.26-0.61,0.65-0.99,0.75
			c-5.7,1.48-9.31,5.01-10.76,10.75c-0.11,0.44-0.68,1.07-1.05,1.08C25.15,40.04,22.44,40,19.64,40z"/>
		<path class="st1" d="M44.6,18.81c4.9,0.45,9.11,2.22,12.6,5.14c-2.05,2.22-4.03,4.37-5.9,6.4c-2.32-0.99-4.46-1.9-6.7-2.86
			C44.6,24.75,44.6,21.82,44.6,18.81z"/>
	</g>
	<rect x="80.39" y="83.16" class="st0" width="3.62" height="9.41"/>
</g>
</svg>
