<?xml version="1.0" encoding="utf-8"?>
<!-- Generator: Adobe Illustrator 24.3.0, SVG Export Plug-In . SVG Version: 6.00 Build 0)  -->
<svg version="1.1" id="Layer_1" xmlns="http://www.w3.org/2000/svg" xmlns:xlink="http://www.w3.org/1999/xlink" x="0px" y="0px"
	 viewBox="0 0 135.1 165" style="enable-background:new 0 0 135.1 165;" xml:space="preserve">
<style type="text/css">
	.st0{fill:#00B0FB;}
	.st1{fill:#FFFFFF;}
	.st2{fill:#00B0FB;fill-opacity:0.4;}
	.st3{fill:#00B0FB;fill-opacity:0.4;stroke:#FFFFFF;stroke-width:5;stroke-miterlimit:10;}
</style>
<g>
	<path class="st1" d="M128.73,63.83c0,23.71,0,47.44,0,71.38c1.32,0,2.59,0,3.98,0c0,4.3,0,8.4,0,12.61c-42.04,0-84.06,0-126.19,0
		c0-4.14,0-8.19,0-12.44c1.33,0,2.6,0,4.02,0c0-4.29,0-8.38,0-12.65c-2.71,0-5.4,0-8.34,0c0-1.5,0-2.83,0-4.17
		c0-3.4-0.02-6.8,0-10.21c0.03-5.07,2.6-8.7,7.3-10.53c0.51-0.2,1.14-0.95,1.15-1.45c0.07-10.82,0.05-21.64,0.05-32.43
		c-3.84-1.52-4.28-2.18-4.28-6.36c0-2.97,0-5.94,0-8.91c0-4.22,0.42-4.85,4.28-6.4c0-2.06-0.09-4.16,0.05-6.25
		c0.04-0.59,0.63-1.5,1.15-1.66c18.03-5.61,36.08-11.16,54.14-16.68c3.81-1.16,7.42-0.02,11.04,1.11
		c16.5,5.12,33.02,10.21,49.55,15.24c1.59,0.48,2.2,1.17,2.05,2.83c-0.16,1.78-0.04,3.58-0.04,5.55c3.95,0.68,4.39,3.5,4.23,6.81
		c-0.14,2.96-0.03,5.94-0.03,8.91C132.84,61.67,132.16,62.63,128.73,63.83z M124.27,63.71c-0.69-0.03-1.29-0.08-1.89-0.08
		c-10.08,0-20.16,0.03-30.24-0.04c-1.34-0.01-2.05,0.4-2.76,1.54C80.14,80,59.04,79.99,49.87,65.12c-0.66-1.06-1.3-1.53-2.6-1.52
		c-10.14,0.06-20.29,0.03-30.43,0.04c-0.6,0-1.2,0.06-1.8,0.09c-0.08,0.29-0.17,0.46-0.17,0.63c-0.01,10.7-0.03,21.4,0.03,32.1
		c0,0.48,0.69,1.2,1.22,1.41c4.51,1.8,7.08,5.39,7.16,10.26c0.04,2.72,0.01,5.44,0.01,8.16c0,2.08,0,4.16,0,6.45
		c-2.93,0-5.62,0-8.32,0c0,4.26,0,8.31,0,12.4c4.21,0,8.31,0,12.39,0c0-14.05,0-27.95,0-41.97c-1.35-0.06-2.62-0.12-3.97-0.18
		c0-4.17,0-8.22,0-12.35c14.01,0,27.94,0,41.88,0c0,4.2,0,8.25,0,12.51c-1.4,0-2.66,0-3.88,0c0,14.16,0,28.1,0,42.04
		c1.37,0,2.58,0,4.07,0c0-7.04,0-13.97,0-21.04c1.5,0,2.72,0,4.17,0c0-11.24,0-22.34,0-33.53c16.95,0,33.67,0,50.41,0
		c0,9.85,0,19.57,0,29.29c-1.38,0-2.59,0-4.05,0c0-8.42,0-16.73,0-25.02c-14.19,0-28.12,0-42.04,0c0,9.83,0,19.5,0,29.18
		c2.83,0,5.52,0,8.41,0c0-7.01,0-13.9,0-20.85c9.88,0,19.55,0,29.44,0c0,7.02,0,13.91,0,21.03c2.89,0,5.58,0,8.46,0
		c0,7.11,0,14.01,0,20.92c1.47,0,2.72,0,4.01,0C124.27,111.28,124.27,87.55,124.27,63.71z M124.37,42.52c0-0.89-0.09-1.52,0.02-2.12
		c0.34-1.98-0.43-2.84-2.42-3.43c-16.24-4.89-32.44-9.91-48.64-14.92c-2.64-0.82-5.2-0.7-7.82,0.13c-5.76,1.83-11.54,3.6-17.32,5.37
		c-10.73,3.29-21.47,6.57-32.19,9.9c-0.46,0.14-1.05,0.73-1.1,1.16c-0.15,1.25-0.05,2.53-0.05,3.8c0.52,0.05,0.76,0.1,1,0.1
		c10.63,0,21.26-0.02,31.89,0.04c1.21,0.01,1.58-0.66,2.07-1.45c9.38-14.95,30.34-14.94,39.61,0.06c0.63,1.02,1.27,1.39,2.47,1.38
		c9.21-0.06,18.42-0.03,27.63-0.03C121.08,42.52,122.61,42.52,124.37,42.52z M56.95,93.17c-0.68-0.04-1.22-0.1-1.77-0.1
		c-7.17-0.01-14.34,0.04-21.52-0.04c-1.56-0.02-1.97,0.45-1.97,1.98c0.06,12.8,0.03,25.6,0.04,38.4c0,0.59,0.09,1.17,0.13,1.77
		c8.46,0,16.71,0,25.08,0C56.95,121.17,56.95,107.29,56.95,93.17z M128.52,139.57c-39.36,0-78.53,0-117.72,0c0,1.4,0,2.67,0,4.03
		c39.27,0,78.43,0,117.72,0C128.52,142.23,128.52,140.96,128.52,139.57z M88.61,53.11c0.01-10.44-8.6-19.04-19.01-18.99
		C59.18,34.16,50.76,42.59,50.73,53c-0.03,10.52,8.4,19.06,18.86,19.12C79.97,72.17,88.6,63.54,88.61,53.11z M95.02,135.15
		c7.08,0,13.97,0,20.88,0c0-5.61,0-11.07,0-16.6c-1.41,0-2.67,0-4.18,0c0,2.81,0,5.49,0,8.11c-4.34,0-8.44,0-12.7,0
		c0-2.8,0-5.44,0-8.09c-1.43,0-2.68,0-4.01,0C95.02,124.15,95.02,129.57,95.02,135.15z M86.54,126.69c-4.4,0-8.5,0-12.77,0
		c0-2.78,0-5.42,0-8.14c-1.42,0-2.68,0-4.01,0c0,5.6,0,11.06,0,16.62c7,0,13.89,0,20.86,0c0-5.59,0-11.06,0-16.63
		c-1.39,0-2.65,0-4.08,0C86.54,121.29,86.54,123.93,86.54,126.69z M103.27,97.48c0,2.88,0,5.56,0,8.17c-4.28,0-8.32,0-12.53,0
		c0-2.8,0-5.44,0-8.1c-1.5,0-2.81,0-4.14,0c0,5.57,0,10.98,0,16.47c7.03,0,13.96,0,20.86,0c0-5.61,0-11.08,0-16.55
		C106.09,97.48,104.87,97.48,103.27,97.48z M128.55,55.31c-12.05,0-23.87,0-35.77,0c-0.23,1.35-0.45,2.61-0.69,3.95
		c12.21,0,24.32,0,36.46,0C128.55,57.89,128.55,56.68,128.55,55.31z M10.77,59.3c12.22,0,24.24,0,36.39,0
		c-0.09-0.6-0.15-1.07-0.25-1.54c-0.52-2.56-0.52-2.56-3.2-2.56c-10.25,0-20.5,0-30.75,0c-0.71,0-1.43,0-2.19,0
		C10.77,56.71,10.77,57.93,10.77,59.3z M92.78,50.9c12.06,0,23.88,0,35.73,0c0-1.4,0-2.66,0-3.97c-12.22,0-24.29,0-36.43,0
		C92.33,48.34,92.55,49.61,92.78,50.9z M10.84,46.9c0,1.49,0,2.75,0,4c11.98,0,23.81,0,35.69,0c0.21-1.37,0.41-2.62,0.62-4
		C34.97,46.9,22.95,46.9,10.84,46.9z M61.16,84.83c-11.31,0-22.41,0-33.6,0c0,1.37,0,2.63,0,3.93c11.26,0,22.41,0,33.6,0
		C61.16,87.41,61.16,86.19,61.16,84.83z M6.53,118.27c4.19,0,8.27,0,12.4,0c0-2.78,0-5.41,0-8.11c-4.19,0-8.27,0-12.4,0
		C6.53,112.93,6.53,115.56,6.53,118.27z M18.43,105.69c-0.83-2.53-2.94-4.05-5.57-4.1c-2.65-0.05-4.9,1.5-5.82,4.1
		C10.86,105.69,14.63,105.69,18.43,105.69z M78.12,122.51c1.5,0,2.81,0,4.06,0c0-1.42,0-2.68,0-3.98c-1.41,0-2.68,0-4.06,0
		C78.12,119.91,78.12,121.17,78.12,122.51z M95.06,97.49c0,1.38,0,2.63,0,3.98c1.36,0,2.62,0,3.95,0c0-1.37,0-2.62,0-3.98
		C97.7,97.49,96.49,97.49,95.06,97.49z M107.53,118.55c-1.44,0-2.7,0-4.08,0c0,1.39,0,2.65,0,3.99c1.41,0,2.72,0,4.08,0
		C107.53,121.18,107.53,119.96,107.53,118.55z"/>
	<path class="st0" d="M124.37,42.52c-1.76,0-3.29,0-4.83,0c-9.21,0-18.42-0.03-27.63,0.03c-1.2,0.01-1.84-0.36-2.47-1.38
		c-9.27-14.99-30.24-15.01-39.61-0.06c-0.5,0.79-0.87,1.45-2.07,1.45c-10.63-0.07-21.26-0.04-31.89-0.04c-0.24,0-0.48-0.05-1-0.1
		c0-1.27-0.1-2.55,0.05-3.8c0.05-0.43,0.64-1.02,1.1-1.16c10.72-3.33,21.46-6.6,32.19-9.9c5.78-1.77,11.56-3.54,17.32-5.37
		c2.61-0.83,5.18-0.95,7.82-0.13c16.2,5.01,32.4,10.03,48.64,14.92c1.98,0.6,2.75,1.45,2.42,3.43
		C124.28,41,124.37,41.63,124.37,42.52z"/>
	<path class="st0" d="M56.95,93.17c0,14.11,0,28,0,42c-8.36,0-16.62,0-25.08,0c-0.05-0.59-0.13-1.18-0.13-1.77
		c-0.01-12.8,0.02-25.6-0.04-38.4c-0.01-1.53,0.41-1.99,1.97-1.98c7.17,0.08,14.34,0.03,21.52,0.04
		C55.73,93.08,56.27,93.13,56.95,93.17z"/>
	<path class="st0" d="M128.52,139.57c0,1.39,0,2.65,0,4.03c-39.29,0-78.45,0-117.72,0c0-1.35,0-2.62,0-4.03
		C50,139.57,89.16,139.57,128.52,139.57z"/>
	<path class="st0" d="M18.43,105.69c-3.8,0-7.57,0-11.39,0c0.91-2.61,3.17-4.16,5.82-4.1C15.49,101.63,17.6,103.15,18.43,105.69z"/>
	<path class="st2" d="M78.12,122.51c0-1.34,0-2.6,0-3.98c1.38,0,2.65,0,4.06,0c0,1.3,0,2.56,0,3.98
		C80.94,122.51,79.62,122.51,78.12,122.51z"/>
	<path class="st2" d="M95.06,97.49c1.43,0,2.64,0,3.95,0c0,1.35,0,2.61,0,3.98c-1.33,0-2.59,0-3.95,0
		C95.06,100.13,95.06,98.87,95.06,97.49z"/>
	<path class="st2" d="M107.53,118.55c0,1.42,0,2.64,0,3.99c-1.36,0-2.67,0-4.08,0c0-1.34,0-2.6,0-3.99
		C104.83,118.55,106.09,118.55,107.53,118.55z"/>
	<path class="st1" d="M84.2,63.52c-9.73,0-19.39,0-29.18,0c0-6.96,0-13.85,0-20.86c9.69,0,19.35,0,29.18,0
		C84.2,49.56,84.2,56.48,84.2,63.52z M76.21,46.99c-4.55,0-8.62,0-13.12,0c2.38,1.98,4.41,3.67,6.56,5.46
		C71.77,50.68,73.83,48.96,76.21,46.99z M59.15,49.23c0,2.97,0,5.47,0,8.31c1.96-1.3,3.69-2.45,5.57-3.69
		C62.79,52.24,61.1,50.84,59.15,49.23z M80.08,49.27c-2.01,1.68-3.69,3.08-5.51,4.59c1.89,1.25,3.6,2.38,5.51,3.65
		C80.08,54.68,80.08,52.2,80.08,49.27z M75.02,59.26c-1.17-0.8-1.87-1.6-2.69-1.76c-1.62-0.31-3.34-0.49-4.95-0.27
		c-0.97,0.14-1.82,1.15-3.11,2.03C67.99,59.26,71.25,59.26,75.02,59.26z"/>
	<path class="st2" d="M76.21,46.99c-2.37,1.97-4.43,3.69-6.56,5.46c-2.15-1.79-4.18-3.48-6.56-5.46
		C67.59,46.99,71.65,46.99,76.21,46.99z"/>
	<path class="st2" d="M59.15,49.23c1.95,1.62,3.64,3.02,5.57,4.62c-1.88,1.25-3.61,2.4-5.57,3.69C59.15,54.7,59.15,52.2,59.15,49.23
		z"/>
	<path class="st2" d="M80.08,49.27c0,2.93,0,5.42,0,8.24c-1.91-1.26-3.62-2.4-5.51-3.65C76.39,52.35,78.07,50.94,80.08,49.27z"/>
	<path class="st2" d="M75.02,59.26c-3.77,0-7.03,0-10.75,0c1.29-0.88,2.14-1.89,3.11-2.03c1.61-0.23,3.33-0.04,4.95,0.27
		C73.15,57.66,73.85,58.46,75.02,59.26z"/>
</g>
</svg>
