<?xml version="1.0" encoding="utf-8"?>
<!-- Generator: Adobe Illustrator 24.3.0, SVG Export Plug-In . SVG Version: 6.00 Build 0)  -->
<svg version="1.1" id="Layer_1" xmlns="http://www.w3.org/2000/svg" xmlns:xlink="http://www.w3.org/1999/xlink" x="0px" y="0px"
	 width="119.9px" height="120px" viewBox="0 0 119.9 120" style="enable-background:new 0 0 119.9 120;" xml:space="preserve">
<style type="text/css">
	.st0{fill:#185AE9;}
	.st1{fill:#00B0FB;}
	.st2{fill-rule:evenodd;clip-rule:evenodd;fill:#00B0FB;}
	.st3{fill:#00B0FB;fill-opacity:0.4;}
	.st4{fill:#FFFFFF;}
</style>
<g>
	<path class="st1" d="M71.3,26.1c-1-0.5-2.1-0.8-3.3-1.1l-1-0.3c-0.1,0-0.2-0.1-0.2-0.2H53.2c-0.1,0.1-0.2,0.1-0.3,0.2
		c-1.7,0.4-3.2,0.9-4.6,1.5c-5.2,2.4-8.4,5.8-9.8,10.4v12h1.2c0-1.1,0-2.2,0-3.3c0-2.1-0.1-4.4,0.3-6.5c0.7-4.1,3-7.4,6.9-9.7
		c3.6-2.1,7.7-3.1,12.7-3.1c0.9,0,1.8,0,2.7,0.1c5,0.3,8.9,1.6,12.1,4c3.7,2.8,5.6,6.5,5.7,11c0,0.7,0,1.4,0,2.2v2.2
		c0,1,0,2.1,0,3.1c0,0,0,0,0,0.1h1.1V38.2h0.6C80.6,32.6,77.2,28.6,71.3,26.1z"/>
	<path class="st3" d="M47.5,97.7c0.7-0.8,1-1.8,0.9-2.7c-0.1-0.9-0.6-1.7-1.4-2.3c-0.6-0.5-1.4-0.8-2.1-0.8c-1,0-2.1,0.5-2.8,1.4
		c-0.6,0.7-1.2,1.5-1.8,2.3l-2.5,3c-1.6,1.9-3.1,3.9-4.7,5.8c-0.9,1.2-1.1,2.5-0.4,3.9c0.6,1.2,1.6,1.8,3.1,1.9
		c1.2-0.1,2.1-0.5,2.8-1.4l3.1-3.8C43.6,102.6,45.6,100.2,47.5,97.7z"/>
	<path class="st3" d="M70.3,12.3C70.3,6.6,65.7,2,60,2l0-0.1V2c-5.7,0-10.3,4.7-10.3,10.4c0,5.7,4.6,10.3,10.3,10.3
		C65.8,22.7,70.3,18.1,70.3,12.3z"/>
	<path class="st3" d="M55.1,107.8c0,0-0.1,0-0.2,0c-0.7,0-1.3,0.3-1.9,0.8c-1.1,1.1-2,2.2-2.7,3.4c-0.9,1.4-0.4,3.4,1,4.4
		c0.6,0.5,1.4,0.7,2.1,0.7c0.9,0,1.8-0.4,2.4-1c1-1.1,1.8-2,2.4-3c0.7-1,0.7-2.3,0.1-3.4C57.7,108.5,56.5,107.9,55.1,107.8z"/>
	<path class="st3" d="M107.6,46.5c-0.1-0.4-0.3-1.2-1.3-1.2c-0.2,0-0.4,0-0.7,0.1c-2.4,0.7-4.7,1.3-7.1,2L96,48.1
		c-1.7,0.5-1.9,0.7-1.4,2.4l6.8,24.8c1,3.5,1.9,7.1,2.9,10.6c0,0.1,0,0.1,0,0.2c0.1,0.5,0.3,1.1,1,1.1c0.1,0,0.1,0,0.2,0l0.2-0.1
		l2.7-0.8c2.7-0.7,5.3-1.5,8-2.2c0.3-0.1,0.7-0.2,0.9-0.6c0.2-0.4,0.1-0.9,0-1.2C114.6,72.4,111.1,59.4,107.6,46.5z"/>
	<path class="st1" d="M77,77.2l-1.2-1C71,72.1,66.2,68,61.4,63.9c-0.8-0.7-1.6-1-2.5-1c-0.6,0-1.2,0.1-1.8,0.5
		c-2.2,1.1-4.3,2.4-6.3,3.8l-0.5,0.3c-2.2,1.4-4.4,2.9-6.8,3.8c-1.2,0.5-2.5,0.8-3.7,0.9c-0.3,0-0.6,0-0.9,0c-1.8,0-3.3-0.6-4.3-1.7
		c-1.1-1.2-1.5-2.8-1.3-4.9c0.3-3,1.5-5.9,3.7-8.9c1.3-1.7,2.7-3.2,4.2-4.8c0.1-0.1,0.2-0.3,0.1-0.5c0-0.2-0.1-0.3-0.3-0.4
		c-0.2-0.1-0.3-0.1-0.5-0.1c-0.2,0-0.4,0.1-0.5,0.1c-2.7,0.7-5.8,1.6-8.8,1.6c-0.9,0-1.7-0.1-2.5-0.2c-0.2,0-0.4,0-0.5,0
		c-1.1,0-1.4,0.9-1.5,1.5c-1.8,6.6-3.6,13.2-5.4,19.8l-2,7.5c0,0.1-0.1,0.3-0.1,0.4c-0.2,0.5-0.4,1.1-0.2,1.6
		c0.2,0.5,0.6,0.7,1.2,0.7l0.4,0c0.2,0,0.3,0,0.3,0c0.1,0,0.1,0.1,0.2,0.1c3,0.6,5.5,2.4,7.9,5.4c0.3,0.4,0.6,0.7,1,0.7
		c0.5,0,0.8-0.3,1.1-0.7c1.3-1.5,2.8-2.3,4.5-2.3c1.9,0,3.7,1.2,4.9,3.2c0.1,0.2,0.4,0.6,0.9,0.6c0.3,0,0.5-0.1,0.7-0.2
		c0.9-0.6,2-0.9,3-0.9c1.6,0,3.1,0.7,4.1,1.9c1.1,1.2,1.5,2.7,1.3,4.4c-0.1,0.8,0.2,1.3,1,1.5c3.3,0.8,5,3.5,4.3,6.8
		c-0.2,0.7-0.1,1.3,0.9,1.5c1.7,0.5,2.9,1.5,3.6,2.8c0.7,1.3,0.7,3,0.1,4.7c-0.1,0.4-0.4,1,0.3,1.6c0.3,0.3,0.7,0.6,1,0.9
		c0.5,0.5,1.1,0.9,1.7,1.3c0.7,0.5,1.5,0.8,2.4,0.8c1.9,0,3.5-1.3,4-3.2c0.4-1.7-0.1-3.1-1.5-4.4c-1-0.9-2-1.7-3-2.6l-0.4-0.3
		c-1.2-1-2.4-2.1-3.7-3.1c-0.7-0.6-0.5-1.2-0.3-1.5c0.2-0.3,0.4-0.4,0.7-0.4c0.3,0,0.5,0.1,0.8,0.3c0.1,0.1,0.2,0.1,0.2,0.2l2.7,2.3
		c2,1.7,4,3.4,6.1,5.1c0.8,0.6,1.7,1,2.7,1c1.2,0,2.3-0.5,3.1-1.4c1.5-1.7,1.3-4.2-0.4-5.8c-0.6-0.6-1.3-1.1-1.9-1.7l-2.9-2.5
		c-1.7-1.4-3.3-2.8-5-4.2c-0.3-0.3-0.5-0.6-0.6-0.9c0-0.2,0.1-0.4,0.3-0.6c0.2-0.3,0.5-0.4,0.7-0.4c0.2,0,0.5,0.1,0.8,0.4
		c0.3,0.2,0.6,0.5,0.9,0.7l3.2,2.7c2.4,2,4.7,4,7.1,6c1,0.8,2.1,1.3,3.1,1.3c1.2,0,2.2-0.5,3-1.5c0.7-0.9,1.1-1.9,1-2.9
		c-0.1-1.2-0.7-2.3-1.8-3.2c-1.5-1.3-3-2.6-4.6-3.9l-3.8-3.3c-1.1-1-2.3-1.9-3.4-2.9c-0.7-0.6-0.8-1.2-0.4-1.7
		c0.2-0.2,0.4-0.3,0.6-0.3c0.3,0,0.7,0.2,1.1,0.5c0.4,0.3,0.7,0.6,1.1,0.9l4.1,3.5c2.8,2.4,5.7,4.8,8.5,7.2c0.8,0.7,1.8,1.1,2.8,1.1
		c1.2,0,2.3-0.5,3.1-1.4c0.8-0.9,1.1-1.9,1.1-3c-0.1-1.1-0.6-2.2-1.6-3C87.9,86.5,82.5,81.8,77,77.2z"/>
	<path class="st4" d="M119.8,83.8c-3.6-13.3-7.2-26.5-10.8-39.8c-0.3-1.2-0.6-1.3-1.1-1.3c-0.2,0-0.5,0-0.9,0.2
		c-4.5,1.2-9.1,2.5-13.6,3.7c-0.7,0.2-1.3,0.4-1.5,0.7c-0.2,0.3,0,1,0.2,1.6c0.1,0.4,0.2,0.8-0.1,1.1c-0.3,0.4-0.7,0.4-0.9,0.4
		l-0.2,0c-1.9-0.1-4-0.3-6.6-0.6c-1.8-0.3-2-0.5-2-2.3c0-1,0-2,0-3c0-2.2,0.1-4.4-0.3-6.6c-1-6-4.5-10.2-10.6-12.8
		c-1-0.5-2.1-0.8-3.3-1.1l-1-0.3c-0.2-0.1-0.3-0.2-0.3-0.4c0-0.2,0-0.4,0.2-0.5c4.2-3.2,5.3-7,5.4-9.6c0.2-3.6-1.2-7.3-3.7-9.7
		C66.3,1.2,63.2,0,60,0c-3.3,0-6.4,1.3-8.8,3.6c-2.5,2.4-3.8,6-3.5,9.6c0.2,2.6,1.3,6.4,5.5,9.6c0.2,0.1,0.2,0.3,0.2,0.5
		c0,0.2-0.2,0.3-0.4,0.4c-1.7,0.4-3.2,0.9-4.6,1.5c-6.6,3-10,7.7-10.5,14.3c-0.1,2.1-0.1,4.3-0.1,6.4c0,0.8,0,1.6,0,2.4
		c0,0.7-0.2,1.4-1.2,1.6c-2.1,0.5-4,0.7-5.8,0.7c-0.5,0-1,0-1.5-0.1c-0.5,0-1-0.1-1.3-0.5c-0.3-0.4-0.2-1,0-1.4
		c0.2-0.7,0.3-1.1,0.1-1.4c-0.1-0.2-0.6-0.5-1.4-0.7c-4.5-1.2-9.1-2.5-13.6-3.7c-0.5-0.1-0.9-0.2-1.1-0.2c-0.4,0-0.7,0.1-1,1.4
		c0,0-2.3,8.3-2.9,10.4c-2.7,9.7-5.3,19.5-8,29.2c-0.3,1.1,0.2,1.4,0.8,1.6c3.4,1,6.9,1.9,10.3,2.8l4.5,1.2c0.1,0,0.3,0.1,0.4,0.1
		c0.2,0,0.6-0.1,0.9-0.8c0.1-0.2,0.1-0.4,0.2-0.6c0-0.1,0.1-0.3,0.1-0.4c0.3-1.1,0.5-1.9,1.7-1.9c0.3,0,0.7,0.1,1.2,0.2
		c2.5,0.5,4.6,1.9,6.8,4.4c1.6,1.8,1.6,2.1,0.1,4c-1.3,1.6-1.7,3.5-1.2,5.2c0.5,1.7,1.9,3.1,3.8,3.7c0.9,0.3,1.1,0.8,0.8,1.6
		c-0.7,2.2-0.3,4.1,1.3,5.7c1.1,1.1,2.3,1.6,3.7,1.6c0.6,0,1.3-0.1,2-0.3c0.2-0.1,0.4-0.1,0.6-0.1c0.7,0,1,0.6,1.1,0.9
		c1,2.1,2.8,3.3,4.9,3.3c0.8,0,1.7-0.2,2.5-0.6c0.3-0.1,0.5-0.2,0.7-0.2c0.6,0,0.9,0.5,1,0.8c1.1,2,2.9,3.1,4.9,3.1
		c1.6,0,3.2-0.8,4.4-2.1c0.3-0.3,0.6-0.6,1-0.6c0.4,0,0.7,0.3,0.9,0.5c0.4,0.4,0.9,0.8,1.4,1.2l0.4,0.3c1.3,1.1,2.7,1.6,4.1,1.6
		c0.7,0,1.5-0.1,2.2-0.4c2.3-0.8,3.6-2.5,4-5c0.1-0.4,0.2-1.2,1.1-1.2c0.1,0,0.2,0,0.3,0c0.3,0,0.6,0.1,0.9,0.1c3,0,5.5-2.2,6-5.1
		c0.1-1,0.6-1.4,1.5-1.4h0.2c0.1,0,0.3,0,0.5,0c3.4,0,5.6-1.9,6.2-5.5c0-0.3,0.2-1,1-1c0.1,0,0.2,0,0.3,0c0.3,0,0.7,0.1,1,0.1
		c2.1,0,3.8-0.9,5-2.6c1.4-2,1.5-4.2,0.3-6.5c-0.5-1,0-1.5,0.5-1.8c1.2-0.9,2.4-1.6,3.9-2.3c0.4-0.2,0.8-0.3,1-0.3
		c1,0,1.2,1,1.3,1.4c0.2,1,0.6,1.1,0.9,1.1c0.2,0,0.5,0,0.8-0.1c4.8-1.3,9.5-2.6,14.3-3.9C119.9,85.2,120.1,84.8,119.8,83.8z
		 M49.6,12.4C49.6,6.7,54.3,2,60,2V1.9L60,2c5.7,0,10.3,4.6,10.3,10.4c0,5.8-4.6,10.4-10.4,10.4C54.3,22.7,49.6,18.1,49.6,12.4z
		 M40,37.8c0.7-4.1,3-7.4,6.9-9.7c3.6-2.1,7.7-3.1,12.7-3.1c0.9,0,1.8,0,2.7,0.1c5,0.3,8.9,1.6,12.1,4c3.7,2.8,5.6,6.5,5.7,11
		c0,0.7,0,1.4,0,2.2v2.2c0,1,0,2.1,0,3.1c0,0.3,0,0.7-0.3,0.9c-0.2,0.2-0.4,0.2-0.7,0.2c-0.1,0-0.3,0-0.5-0.1
		c-1.6-0.4-3.4-0.7-5.7-1.1c-0.8-0.1-1.2-0.6-1.2-1.4c0-1.1,0-2.2,0-3.3c0-1.6-0.7-1.6-1-1.6h0c-0.5,0-1,0.3-1,1.6l0,0.6
		c0,0.6,0,1.2,0,1.7c0,0.4,0,0.8-0.3,1.2c-0.2,0.2-0.5,0.3-0.8,0.3c-0.2,0-0.3,0-0.5-0.1c-3.5-0.7-7.1-1.3-10.7-1.6
		c-1.8-0.2-3.6-0.2-5.2-0.2h-0.9c-0.3,0-0.8,0-1.1-0.4c-0.3-0.4-0.3-0.9-0.2-1c0-0.2,0-0.4,0-0.7v-0.1c0-0.8-0.4-1.3-1.1-1.3
		c-0.6,0-1,0.5-1,1.4l0,0.3c0,0.6-0.1,1.1,0,1.6c0.1,0.9-0.1,2.2-2,2.8c-1,0.4-2.1,0.6-3.2,0.9c-0.5,0.1-1.1,0.3-1.6,0.4
		c-0.2,0.1-0.4,0.1-0.6,0.1c-0.3,0-0.5-0.1-0.6-0.2c-0.2-0.2-0.3-0.4-0.2-0.8c0-1.1,0-2.3,0-3.4C39.7,42.2,39.7,40,40,37.8z
		 M15.8,85.9c-0.1,0.3-0.3,1.1-1.2,1.1c-0.2,0-0.4,0-0.7-0.1c-3.7-1.1-7.3-2-10.1-2.7c-0.5-0.1-0.9-0.3-1.1-0.7
		c-0.2-0.4-0.1-0.9,0-1.3C4.7,74.5,6.9,66.8,9,59c1.1-4.1,2.3-8.3,3.4-12.4c0-0.1,0-0.1,0-0.2c0-0.3,0.1-1.1,1-1.1h0
		c0,0,0.1,0,0.1,0l0.2,0.1c0.2,0,0.3,0,0.4,0.1l2.9,0.8c2.4,0.7,4.9,1.3,7.3,2c0.4,0.1,0.8,0.3,1.1,0.7c0.2,0.4,0.1,0.9,0,1.3
		C22.3,62,19,74,15.8,85.9z M31.2,101.5c-0.8,0-1.6-0.3-2.2-0.8c-1.5-1.3-1.7-3.4-0.4-5c1.2-1.5,2.5-3.2,4.1-5
		c0.7-0.9,1.7-1.3,2.8-1.3c0.4,0,0.8,0.1,1.2,0.2c1.4,0.5,2.3,1.8,2.3,3.3c0,0.8-0.3,1.6-0.8,2.2L37,96.4c-1,1.3-2,2.5-3.1,3.8
		C33.2,101,32.2,101.5,31.2,101.5z M38.5,108.8c-0.7,0.9-1.6,1.3-2.8,1.4c-1.4-0.1-2.5-0.7-3.1-1.9c-0.7-1.3-0.5-2.7,0.4-3.9
		c1.6-1.9,3.1-3.9,4.7-5.8l2.4-3c0.6-0.8,1.2-1.5,1.9-2.3c0.8-0.9,1.8-1.4,2.8-1.4c0.7,0,1.5,0.3,2.1,0.8c0.8,0.6,1.3,1.4,1.4,2.3
		c0.1,0.9-0.2,1.9-0.8,2.7c-2,2.4-3.9,4.8-5.9,7.2L38.5,108.8z M47.6,111.9l-0.8,0.9c-0.7,0.8-1.6,1.2-2.8,1.2
		c-1.2,0-2.2-0.7-2.8-1.8c-0.7-1.2-0.6-2.6,0.1-3.6c2.4-3.1,4.5-5.6,6.5-8c0.6-0.7,1.5-1.1,2.4-1.1c0.9,0,1.7,0.3,2.3,0.8
		c1.5,1.2,1.7,3.2,0.6,4.7C51.4,107.4,49.5,109.6,47.6,111.9z M58.2,113.1c-0.6,0.9-1.4,1.9-2.4,3c-0.6,0.6-1.5,1-2.4,1
		c-0.8,0-1.5-0.2-2.1-0.7c-1.4-1.1-1.8-3-1-4.4c0.7-1.2,1.6-2.3,2.7-3.4c0.5-0.5,1.2-0.8,1.9-0.8c0.1,0,0.2,0,0.2,0
		c1.4,0,2.6,0.7,3.2,1.9C58.9,110.8,58.9,112,58.2,113.1z M93.9,97.1c-0.8,0.9-1.9,1.4-3.1,1.4c-1,0-2-0.4-2.8-1.1
		c-2.8-2.4-5.7-4.8-8.5-7.2l-4.1-3.5c-0.3-0.3-0.7-0.6-1-0.9c-0.4-0.3-0.8-0.5-1.1-0.5c-0.2,0-0.5,0.1-0.7,0.3
		c-0.4,0.5-0.3,1.1,0.4,1.7c1.1,1,2.3,1.9,3.4,2.9l3.9,3.3c1.5,1.3,3,2.6,4.5,3.9c1,0.9,1.7,2,1.8,3.2c0.1,1.1-0.3,2.1-1,2.9
		c-0.8,1-1.9,1.5-3,1.5c-1.1,0-2.2-0.4-3.1-1.3c-2.4-2-4.7-4-7.1-6L69.1,95c-0.3-0.2-0.6-0.5-0.9-0.8c-0.3-0.2-0.6-0.4-0.8-0.4
		c-0.2,0-0.5,0.1-0.7,0.4c-0.2,0.2-0.3,0.4-0.3,0.6c0,0.3,0.2,0.6,0.5,0.9c1.7,1.4,3.3,2.8,5,4.2l2.9,2.5c0.7,0.5,1.3,1.1,1.9,1.7
		c1.7,1.6,1.9,4.1,0.4,5.8c-0.8,0.9-1.9,1.4-3.1,1.4c-1,0-1.9-0.3-2.7-1c-2-1.7-4.1-3.4-6.1-5.1l-2.7-2.3c-0.1-0.1-0.2-0.1-0.2-0.2
		c-0.3-0.2-0.6-0.3-0.8-0.3c-0.3,0-0.5,0.1-0.7,0.4c-0.3,0.3-0.5,0.9,0.3,1.5c1.2,1.1,2.4,2.1,3.7,3.1l0.4,0.3c1,0.9,2,1.7,3,2.6
		c1.4,1.2,1.9,2.7,1.5,4.4c-0.5,1.9-2.1,3.2-4,3.2c-0.8,0-1.7-0.3-2.4-0.8c-0.6-0.4-1.1-0.9-1.7-1.3c-0.3-0.3-0.7-0.6-1-0.9
		c-0.7-0.5-0.5-1.1-0.3-1.5c0.6-1.7,0.5-3.4-0.1-4.7c-0.7-1.3-1.9-2.3-3.6-2.8c-0.9-0.3-1-0.8-0.9-1.5c0.7-3.3-1-6-4.3-6.8
		c-0.8-0.2-1.1-0.7-1-1.5c0.2-1.6-0.3-3.2-1.3-4.4c-1.1-1.2-2.6-1.9-4.1-1.9c-1,0-2.1,0.3-3,0.9c-0.2,0.1-0.4,0.2-0.7,0.2
		c-0.5,0-0.7-0.4-0.9-0.6c-1.2-2-3-3.2-4.9-3.2c-1.6,0-3.2,0.8-4.5,2.3c-0.3,0.3-0.6,0.7-1.1,0.7c-0.4,0-0.8-0.3-1-0.7
		c-2.5-3.1-5-4.8-7.9-5.4c-0.1,0-0.1,0-0.2-0.1c-0.1,0-0.2,0-0.3,0L20,84c-0.6,0-1-0.2-1.2-0.7c-0.2-0.5,0-1.1,0.2-1.6
		c0.1-0.2,0.1-0.3,0.1-0.4l2-7.5c1.8-6.6,3.6-13.2,5.4-19.8c0.2-0.6,0.4-1.4,1.5-1.4c0.1,0,0.3,0,0.5,0.1c0.8,0.1,1.7,0.2,2.5,0.2
		c3,0,6.1-0.9,8.8-1.6c0.1,0,0.3-0.1,0.5-0.1c0.2,0,0.3,0,0.5,0.1c0.1,0.1,0.3,0.2,0.3,0.4c0,0.2,0,0.3-0.1,0.4
		c-1.5,1.6-3,3.1-4.2,4.8c-2.2,3-3.4,5.8-3.7,8.9c-0.2,2,0.3,3.7,1.3,4.9c1,1.1,2.5,1.7,4.3,1.7c0.3,0,0.6,0,0.9-0.1
		c1.3-0.1,2.5-0.4,3.7-0.9c2.4-1,4.7-2.4,6.8-3.8l0.5-0.3c2-1.3,4.1-2.7,6.3-3.8c0.6-0.3,1.3-0.5,1.8-0.5c0.9,0,1.7,0.3,2.5,1
		c4.8,4.1,9.6,8.2,14.5,12.3l1.2,1c5.4,4.6,10.9,9.3,16.3,13.9c0.9,0.8,1.5,1.8,1.6,3C95,95.2,94.6,96.2,93.9,97.1z M100.4,85.1
		c-1.9,0.7-3.7,1.7-5.3,3c-0.3,0.2-0.6,0.5-1.1,0.5c-0.5,0-0.8-0.3-1.1-0.5c-4.3-3.7-8.6-7.4-13-11.1l-0.6-0.5
		c-5.5-4.7-11-9.3-16.5-14c-1.3-1.1-2.6-1.7-4-1.7c-0.9,0-1.9,0.2-2.9,0.7c-2.2,1.1-4.3,2.4-6.3,3.8c-0.6,0.4-1.2,0.8-1.8,1.2
		c-2,1.3-4.2,2.7-6.9,3.4c-0.8,0.2-1.4,0.3-2.1,0.3c-0.2,0-0.4,0-0.5,0c-2.2-0.2-3.2-1.3-3.2-3.5c0-2.6,0.9-5,2.7-7.7
		c2.3-3.4,5.3-6.1,8.3-8.7c0.2-0.2,0.4-0.3,0.6-0.5c0.4-0.3,0.7-0.6,1-0.9c1.2-1.3,2.7-2,4.2-2c0.3,0,0.6,0,0.9,0.1
		c6.6,0.2,12.7,1.3,17.9,2.4c0.9,0.2,1.9,0.4,2.8,0.6c5.9,1.2,12,2.5,18.2,2.6c1.1,0,1.3,0.8,1.5,1.3L99,74.4
		c0.2,0.9,0.5,1.9,0.8,2.8c0.5,2,1.1,4,1.6,6C101.6,84,101.6,84.7,100.4,85.1z M117.3,83.5c-0.2,0.4-0.6,0.5-0.9,0.6
		c-2.7,0.7-5.4,1.4-8,2.2l-2.7,0.8l-0.2,0.1c0,0-0.1,0-0.2,0c-0.8,0-1-0.6-1-1.1c0,0,0-0.1,0-0.2c-1-3.5-1.9-7.1-2.9-10.6l-6.8-24.8
		c-0.5-1.7-0.3-1.9,1.4-2.4l2.5-0.7c2.4-0.7,4.7-1.3,7.1-2c0.3-0.1,0.5-0.1,0.7-0.1c0.9,0,1.2,0.9,1.3,1.2c3.5,12.9,7,25.9,9.8,35.8
		C117.4,82.6,117.6,83.1,117.3,83.5z"/>
</g>
</svg>
