<?xml version="1.0" encoding="utf-8"?>
<!-- Generator: Adobe Illustrator 24.3.0, SVG Export Plug-In . SVG Version: 6.00 Build 0)  -->
<svg version="1.1" id="Layer_1" xmlns="http://www.w3.org/2000/svg" xmlns:xlink="http://www.w3.org/1999/xlink" x="0px" y="0px"
	 width="165.3px" height="120px" viewBox="0 0 165.3 120" style="enable-background:new 0 0 165.3 120;" xml:space="preserve">
<style type="text/css">
	.st0{fill:#185AE9;}
	.st1{fill:#00B0FB;}
	.st2{fill-rule:evenodd;clip-rule:evenodd;fill:#00B0FB;}
	.st3{fill:#00B0FB;fill-opacity:0.4;}
	.st4{fill:#FFFFFF;}
</style>
<g>
	<g>
		<path class="st1" d="M15.3,20.7V21h-3.9c-1.1,1.1-1.8,2.6-1.8,4.2c0.1,26.8,0,53.6,0,80.4v1c-0.1,0-0.3,0-0.4,0v0.3h3.4v-0.3H12
			v-4.4c0-25.6,0-51.2,0-76.8c0-2.4,1.2-3.6,3.5-3.6c1.1,0,2.4,0,3.7,0v-1.1H15.3z"/>
	</g>
	<g>
		<path class="st3" d="M101.2,16.5c-0.1,0.1-0.2,0.2-0.4,0.3c-0.4,0.2-0.8,0.4-1.1,0.6l0,0c-1.5,0.8-3,1.6-4.5,2.4
			c-1,0.5-1.9,1.1-2.8,1.5c0.6,0.7,1.2,1.3,1.8,1.9l6.7,6.8c2.6,0,5.2,0,7.8,0h0l1.7-7.1c0.1-0.2,0.1-0.5,0.2-0.7
			c0-0.1,0.1-0.2,0.1-0.3l0.8-3.1c0,0,0,0,0,0c-2.8-0.5-5.2-2.2-6.6-4.5c0,0,0,0,0,0L101.2,16.5C101.2,16.5,101.2,16.5,101.2,16.5z"
			/>
		<path class="st3" d="M83.9,21.8c0.8,0.8,1.1,0.9,2.3,0.2c4-2.2,8.1-4.3,12.1-6.5l0.1-0.1l1.1-0.6l0,0c0,0,0.1-0.1,0.1-0.1
			c0,0,0.1,0,0.1,0l0,0l4.1-2.2c0,0,0,0,0,0c-0.3-0.9-0.5-1.9-0.5-3c0-0.1,0-0.2,0-0.2l-6.7-1.1c0,0-0.1,0-0.1,0l0,0
			c-3.3-0.5-6.6-1-9.8-1.5c-6.8-1.1-13.5-2.1-20.3-3.2c-0.1,0-0.2,0-0.4,0C66.1,3.5,66,3.6,66,3.7c0.8,0.7,1.6,1.3,2.3,2.1
			C73.5,11.1,78.7,16.4,83.9,21.8z"/>
		<path class="st3" d="M64.1,4.7c-1.3,8.4-2.5,16.6-3.7,24.9c6.1-3.3,12.2-6.6,18.3-10C73.8,14.6,69,9.7,64.1,4.7z"/>
		<path class="st1" d="M94.1,88.1c0.7,0.3,1.4,0.1,1.9-0.7c1.4-2.6,2.8-5.2,4.2-7.8c0.1-0.2,0.2-0.5,0.3-0.7c0-1.1-1-1.8-1.9-1.4
			c-0.3,0.2-0.6,0.4-0.8,0.7c-1.4,2.6-2.9,5.2-4.3,7.8C93.1,86.8,93.4,87.8,94.1,88.1z"/>
		<path class="st1" d="M90,71.9c-1.2-1.2-2.5-2.4-3.7-3.7c-0.8-0.8-1.5-1.5-2.3-2.3c-1.3-1.3-2.6-2.6-3.9-3.8
			c-0.7-0.7-1.5-1.5-2.2-2.2c-3.4-3.4-6.8-6.7-10.2-10.1c-4.8,9.2-9.7,18.3-14.6,27.5c0.3,0.1,0.5,0.1,0.7,0.2
			c5.4,1,10.7,2.1,16.1,3.1c7,1.4,14.1,2.7,21.1,4c0.2,0,0.7-0.1,0.8-0.3c1.3-2.2,2.5-4.5,3.8-6.8c-1.2-1.1-2.3-2.3-3.5-3.4
			C91.5,73.3,90.7,72.6,90,71.9z"/>
		<path class="st1" d="M70,89.4c1.3,0.2,2.7,0.6,4,0.6c2.8,0.1,4.6-2,4.8-5.3c-4.2-0.8-8.4-1.6-12.5-2.4
			C64.8,85.5,66.5,88.8,70,89.4z"/>
		<path class="st1" d="M66.2,45.2c-0.7-0.4-1.5-0.3-2.1,0.4c-0.2,0.2-0.3,0.5-0.5,0.8c-4.2,7.9-8.3,15.7-12.4,23.6
			c-1.2,2.2-2.3,4.4-3.5,6.6c-0.6,1.2,0,2.4,1.5,2.4c0.2-0.2,0.8-0.5,1.1-0.9c0.7-1.1,1.2-2.2,1.8-3.3c3.8-7.1,7.5-14.2,11.3-21.4
			c1.1-2,2.2-4.1,3.2-6.1C67,46.4,66.8,45.6,66.2,45.2z"/>
		<path class="st3" d="M91.9,24.2c-0.6-0.6-1.1-1.2-1.7-1.8c-1,0.5-1.9,1-2.8,1.5c-2.2,1.2-3.6,1-5.3-0.8c-0.6-0.6-1.2-1.2-1.8-1.8
			c-5.9,3.2-11.9,6.4-17.9,9.7c1.7,0.2,3.1,0.5,4.6,0.7c1.1,0.2,2.2,0.3,3.4,0.5l0,0l7.8,1.1c0.5-2.1,2-3.2,4.5-3.2c5,0,10,0,15,0
			c0,0,0,0,0,0l-4.7-4.8l0,0c0,0-0.1-0.1-0.1-0.1c-0.2-0.2-0.4-0.4-0.6-0.6L91.9,24.2L91.9,24.2L91.9,24.2L91.9,24.2z"/>
		<path class="st3" d="M71.7,109.1c-22.3,0-44.6,0-66.9,0c-0.3,0-0.6,0-0.8,0c-0.7,0.1-1.2,0.5-1.4,1.2c-0.2,0.7-0.1,1.3,0.5,1.8
			c0.8,0.9,1.6,1.8,2.4,2.7c2.4,2.6,1.5,2.6,5.6,2.6c24.2,0,48.4,0,72.6,0c16.9,0,33.7,0,50.6,0c1,0,1.8-0.3,2.5-1
			c1.3-1.5,2.6-2.9,3.9-4.4c0.6-0.7,0.6-1.8-0.2-2.3c-0.5-0.4-1.3-0.6-1.9-0.6C116.1,109.2,93.9,109.2,71.7,109.1L71.7,109.1z"/>
		<rect x="99.8" y="43.8" class="st3" width="11.7" height="10.4"/>
		<path class="st4" d="M148,34.4c-1.5,0-2.9,0-4.4,0c-0.6-3.3-2-4.4-5.3-4.4h-2c-8.4,0-16.9,0-25.3,0l1.2-5c0.1-0.4,0.2-0.8,0.3-1.2
			l0-0.1l1.2-4.7c5-0.2,9.2-4.4,9.2-9.5c0-5.3-4.3-9.5-9.6-9.5c-4.5,0-8.2,2.9-9.4,7l-8.3-1.2C91.8,5.1,88,4.5,84.3,3.9
			c-6.5-1-13-2.1-19.5-3.1c-1.6-0.2-2.4,0.4-2.7,2.1c-0.8,5.5-1.7,11-2.5,16.5c-11.2,0-34,0.1-45.1,0c-3.2,0-5.9,2.6-5.9,5.8
			c0.1,26.8,0,53.6,0,80.4v1c-1.5,0-2.9,0-4.3,0c-1.8,0.1-3.2,0.8-3.9,2.5c-0.8,1.7-0.5,3.2,0.8,4.6c1.2,1.3,2.4,2.6,3.5,4
			c1.3,1.7,3,2.2,5.1,2.2c25.8,0,51.5,0,77.3,0c15.7,0,31.4,0,47.1,0c1.5,0,2.9-0.4,4-1.6c1.4-1.5,2.8-3.1,4.2-4.8
			c1.7-2.1,1.2-5-1.2-6.3c-0.9-0.5-1.9-0.6-2.9-0.7c-1.5-0.1-3,0-4.5,0v-1c0-9.1,0-26.5,0-35.6v0c3.2,0,6.4,0,9.5,0
			c3.5,0,6.4-2.8,6.4-6.2c0-9.3,0-18.6,0-27.8C149.6,34.8,149.2,34.4,148,34.4z M132,32.3c2.3,0,4.7,0,7,0c1.4,0,2.1,0.7,2,2.2h-1.4
			c-5,0-10,0-15.1,0c-11,0-22,0-32.9,0c-1.2,0-1.7,0.4-1.7,1.4v32.7c-1.2-1.2-2.5-2.4-3.7-3.7c0-9.4,0-26.1,0-32c0-0.2,0-0.4,0-0.6
			h1.4C102.5,32.3,117.3,32.3,132,32.3z M91.9,84.4c-0.1,0.2-0.5,0.4-0.8,0.3c-7-1.3-14.1-2.7-21.1-4c-5.4-1-10.7-2.1-16.1-3.1
			c-0.2,0-0.4-0.1-0.7-0.2c4.9-9.2,9.7-18.4,14.6-27.5c3.4,3.4,6.8,6.8,10.2,10.1c0.7,0.7,1.5,1.5,2.2,2.2c1.3,1.3,2.6,2.6,3.9,3.9
			c0.8,0.8,1.5,1.5,2.3,2.2c1.2,1.2,2.5,2.4,3.7,3.7c0.7,0.7,1.5,1.5,2.2,2.2c1.1,1.1,2.3,2.3,3.5,3.4
			C94.4,79.8,93.2,82.1,91.9,84.4z M97.8,78.3c0.2-0.3,0.5-0.5,0.8-0.7c0.9-0.5,1.9,0.2,1.9,1.4c-0.1,0.1-0.1,0.4-0.3,0.6
			c-1.4,2.6-2.8,5.2-4.2,7.8c-0.4,0.8-1.2,1.1-1.9,0.7c-0.7-0.4-1-1.3-0.6-2.1C94.9,83.5,96.4,80.9,97.8,78.3z M78.9,84.6
			c-0.2,3.3-2,5.4-4.8,5.4c-1.3,0-2.7-0.4-4-0.6c-3.5-0.6-5.2-3.8-3.7-7.1C70.5,83,74.6,83.8,78.9,84.6z M52.1,74.7
			c-0.6,1.1-1.1,2.2-1.8,3.3c-0.3,0.5-0.9,0.7-1.1,0.9c-1.5-0.1-2.1-1.2-1.5-2.4c1.1-2.2,2.3-4.4,3.5-6.6
			c4.1-7.9,8.3-15.7,12.4-23.6c0.1-0.3,0.3-0.5,0.5-0.8c0.6-0.7,1.4-0.8,2.1-0.4c0.7,0.4,0.9,1.2,0.4,2.1c-1.1,2-2.2,4.1-3.2,6.1
			C59.6,60.4,55.8,67.6,52.1,74.7z M82.6,30.1c-2.4,0-4,1.2-4.5,3.3l-7.8-1.2c-1.1-0.2-2.2-0.3-3.4-0.5c-1.5-0.2-3-0.4-4.6-0.7
			c6.1-3.3,12-6.5,17.9-9.7c0.6,0.6,1.2,1.2,1.8,1.8c1.7,1.8,3.1,2.1,5.3,0.8c0.9-0.5,1.8-1,2.8-1.5c0.6,0.6,1.2,1.2,1.7,1.8
			l0.2,0.2c0.2,0.2,0.4,0.4,0.6,0.6c0,0,0.1,0.1,0.1,0.1l4.7,4.9C92.6,30.1,87.6,30.1,82.6,30.1z M84,34.3v28.4
			c-1.3-1.3-2.6-2.6-3.9-3.9c0-8,0-20.2,0-23.8c0-0.4,0-0.7,0.1-1.1c0.3-1.1,1.2-1.8,2.3-1.6C83.7,32.4,84,32.8,84,34.3z M113.2,2.2
			c4,0,7.4,3.4,7.4,7.2c0,4.2-3.3,7.4-7.5,7.4c-4.1,0-7.4-3.4-7.3-7.4C105.8,5.5,109.2,2.2,113.2,2.2z M111.5,18.9l-0.8,3.1
			c0,0.1-0.1,0.2-0.1,0.3c0,0.2-0.1,0.4-0.2,0.7l-1.8,7.1h-7.8l-6.7-6.8c-0.6-0.6-1.2-1.3-1.8-1.9c0.9-0.5,1.9-1,2.8-1.6
			c1.5-0.8,3-1.6,4.5-2.4l0,0c0.4-0.2,0.8-0.4,1.1-0.6c0.1-0.1,0.3-0.2,0.4-0.3l3.7-2.1C106.3,16.7,108.6,18.4,111.5,18.9z
			 M66.2,3.4c0.1,0,0.2,0,0.4,0c6.8,1.1,13.5,2.1,20.3,3.2c3.3,0.5,6.6,1,9.8,1.5c0,0,0.1,0,0.1,0l6.7,1.1v0.2c0,1.1,0.2,2.1,0.5,3
			l-4.1,2.2v0c0,0-0.1,0-0.1,0c0,0-0.1,0.1-0.1,0.1h0l-1.1,0.6l-0.1,0.1c-4,2.2-8.1,4.3-12.1,6.5c-1.2,0.7-1.5,0.6-2.4-0.2
			c-5.2-5.3-10.4-10.7-15.6-16C67.6,5,66.7,4.4,66,3.7C66,3.6,66.1,3.5,66.2,3.4z M64.1,4.7c4.9,5,9.7,9.9,14.6,14.9
			c-6.2,3.3-12.2,6.6-18.3,10C61.6,21.3,62.8,13.1,64.1,4.7z M14.5,21.9c11,0,33.4,0,44.7,0c-0.4,2.7-0.8,5.5-1.2,8.2
			c-0.2,1.4,0.5,2.4,1.9,2.7c3.4,0.6,6.9,1.1,10.3,1.7l7.9,1.3c0,4.2,0,13.6,0,20.9c-2.8-2.8-5.7-5.6-8.5-8.5
			c-0.4-0.4-0.4-0.7-0.4-1.2c-0.1-0.9-0.2-1.9-0.6-2.6c-1.3-2.2-5.2-2.5-6.8,0.8c-3.3,6.5-6.8,13-10.2,19.5c-1.9,3.7-3.9,7.3-5.8,11
			c-0.9,1.7-0.4,3.8,1.2,4.9c1.7,1.1,3.7,0.9,5.1-0.6c0.2-0.2,0.6-0.4,0.9-0.3c2,0.3,4,0.8,6,1.1c1.7,0.3,3.5,0.7,5.2,1
			c-0.1,0.5-0.2,0.8-0.3,1.2C62.9,87,65,90.4,69,91.4c1.4,0.4,2.9,0.6,4.3,0.8c3.1,0.3,5.9-1.4,7.1-4.2c0.4-0.9,0.5-1.9,0.8-2.8
			c3,0.6,6,1.2,9.1,1.7c0.5,0.1,0.7,0.3,0.8,0.8c0.3,1.4,1.6,2.6,3,2.8c1.4,0.2,3-0.5,3.7-1.8c1.5-2.8,3-5.6,4.5-8.4
			c0.7-1.3,0.4-3-0.6-4.1c-1.2-1.3-2.6-1.4-4.6-0.5c-1.6-1.6-3.3-3.3-4.9-4.9v-0.8h39.2v0c0,9.1,0,26.5,0,35.7v0.9H11v-4.4
			c0-25.6,0-51.2,0-76.8C11,23.1,12.2,21.9,14.5,21.9z M138.4,109.2c0.6,0,1.4,0.2,1.9,0.6c0.8,0.5,0.8,1.6,0.2,2.4
			c-1.3,1.5-2.6,3-3.9,4.4c-0.6,0.7-1.5,1-2.5,1c-16.8,0-33.7,0-50.5,0c-24.2,0-48.4,0-72.6,0c-4.1,0-3.2,0-5.6-2.6
			c-0.8-0.9-1.6-1.8-2.4-2.7c-0.5-0.5-0.7-1.2-0.5-1.8c0.2-0.7,0.8-1.1,1.5-1.2c0.3,0,0.5,0,0.8,0h66.9v0
			C93.9,109.2,116.1,109.1,138.4,109.2z M142.6,67.8c-14.5,0-35.8,0-50.3,0h-0.1V36.7h55.1v1.1c0,8.4,0,16.8,0,25.3
			C147.4,66.2,145.7,67.8,142.6,67.8z"/>
		<path class="st4" d="M112.1,41.5h-6.4v0c-2.2,0-4.4,0-6.6,0c-1.1,0-1.6,0.4-1.6,1.6c0,4,0,8,0,12c0,1.1,0.5,1.6,1.6,1.6
			c4.3,0,8.7,0,13,0c1.1,0,1.6-0.5,1.6-1.6V43.2C113.8,42,113.3,41.5,112.1,41.5z M111.5,54.3H99.8V43.9h11.7V54.3z"/>
		<path class="st4" d="M142.1,62c0,0.7-0.5,1.1-1.5,1.1c-13.2,0-26.4,0-39.6,0c-0.7,0-1.4,0-2.1,0c-0.9,0-1.3-0.4-1.4-1.1
			c0-0.7,0.5-1.1,1.4-1.1c6.1,0,12.2,0,18.3,0h2.6c0,0,0,0,0,0h20.8C141.5,60.9,142.1,61.3,142.1,62z"/>
		<path class="st4" d="M142,42.6c0,0.7-0.5,1.2-1.5,1.2h-19.5c-0.3,0-0.6,0.1-0.8-0.1c-0.3-0.3-0.8-0.8-0.7-1.1c0-0.4,0.5-0.7,0.9-1
			c0.1-0.1,0.4,0,0.6,0c6.5,0,13,0,19.5,0C141.4,41.5,142,41.9,142,42.6z"/>
		<path class="st4" d="M142,55.5c0,0.7-0.5,1.1-1.5,1.1h-9.8c0,0,0,0,0,0c-3.2,0-6.4,0-9.6,0c-0.2,0-0.6,0.1-0.7,0
			c-0.4-0.3-0.8-0.7-0.9-1c0-0.4,0.4-0.8,0.7-1.1c0.2-0.2,0.6-0.1,1-0.1c6.4,0,12.8,0,19.3,0C141.5,54.4,142,54.8,142,55.5z"/>
		<path class="st4" d="M142,49c0,0.7-0.5,1.1-1.4,1.1c-3.3,0-6.6,0-10,0c0,0,0,0,0,0c-3.2,0-6.5,0-9.7,0c-0.9,0-1.5-0.4-1.5-1.1
			c0-0.7,0.5-1.1,1.4-1.1c6.6,0,13.1,0,19.7,0C141.5,47.9,142,48.3,142,49z"/>
		<path class="st4" d="M46.6,56.6c0,1.1-0.8,1.6-1.6,1.2c-1.4-0.6-2.8-1.2-4.2-1.8c-3.7-1.6-7.4-3.2-11-4.8c-0.8-0.3-1.1-1-0.9-1.6
			c0.3-0.6,0.9-0.8,1.7-0.5c3.3,1.4,6.5,2.8,9.8,4.2c1.8,0.8,3.5,1.6,5.3,2.4C46,55.9,46.4,56.4,46.6,56.6z"/>
		<path class="st4" d="M53.4,45.5c-0.6,0.4-1.3,0.2-1.8-0.6c-1.6-2.6-3.2-5.1-4.8-7.7c-0.2-0.4-0.2-1-0.1-1.5c0.1-0.3,0.6-0.4,1-0.7
			c0.4,0.3,0.8,0.5,1,0.8c1.7,2.6,3.3,5.1,4.9,7.7C54.1,44.4,53.9,45.2,53.4,45.5z"/>
		<path class="st4" d="M41.6,68.6c0.1,0.7-0.4,1.1-1.3,1.2c-3.1,0.3-6.2,0.6-9,1c-1,0.1-1.6-0.4-1.6-1.1c0-0.7,0.4-1.1,1.3-1.2
			c3-0.3,6.1-0.6,9.1-0.9C40.9,67.4,41.5,67.8,41.6,68.6z"/>
		<path class="st4" d="M160,20.4c-0.3-0.3-0.5-0.7-0.8-0.9c-0.6-0.3-1.1-0.1-1.6,0.4c-1.8,1.7-3.5,3.4-5.3,5.1
			c-0.7,0.6-0.8,1.3-0.3,1.9c0.5,0.5,1.2,0.4,1.8-0.2c1.9-1.7,3.7-3.5,5.6-5.2C159.6,21.2,159.8,20.9,160,20.4z"/>
		<path class="st4" d="M144.4,24.2c0.7,0,1.1-0.5,1.1-1.5c0-1.2,0-2.4,0-3.6c0,0,0,0,0,0c0-1.2,0-2.5,0-3.7c0-1-0.7-1.6-1.5-1.3
			c-0.6,0.2-0.8,0.7-0.8,1.3c0,2.4,0,4.9,0,7.3C143.2,23.7,143.6,24.2,144.4,24.2z"/>
		<path class="st4" d="M164,34c-1.2,0-2.4,0-3.7,0c0,0,0,0,0,0c-1.2,0-2.4,0-3.7,0c-0.9,0-1.3,0.4-1.3,1.1c0,0.7,0.5,1.2,1.3,1.2
			c2.4,0,4.9,0,7.3,0c0.8,0,1.3-0.5,1.2-1.2C165.3,34.4,164.8,34,164,34z"/>
		<path class="st4" d="M48.3,49.3c-0.2,0.3-0.4,0.7-0.7,0.9c-0.3,0.1-0.9,0.1-1.1-0.1c-1.3-1.2-2.5-2.4-3.6-3.6
			c-0.2-0.2-0.1-1,0.1-1.3c0.3-0.5,1-0.5,1.5-0.1c1.2,1.1,2.4,2.3,3.6,3.5C48.1,48.6,48.1,48.9,48.3,49.3z"/>
		<path class="st4" d="M40.9,62.1c-0.1,0.6-0.6,1-1.4,0.9c-1.2-0.1-2.4-0.2-3.6-0.3c-1-0.1-1.5-0.5-1.4-1.3c0-0.7,0.5-1,1.7-1
			c1.1,0.1,2.3,0.2,3.6,0.4C40.5,61,41,61.5,40.9,62.1z"/>
		<path class="st4" d="M114.9,6.1c-0.3,1.4-0.5,2.8-0.9,4.1c-0.2,0.8-0.7,1.1-1.4,0.9c-0.7-0.2-0.9-0.7-0.8-1.5
			c0.3-1.3,0.5-2.6,0.8-3.9c0.1-0.6,0.4-1.1,0.8-1.1C114.5,4.7,115.1,5.3,114.9,6.1z"/>
		<path class="st4" d="M113.7,13.6c0,0.6-0.6,1.1-1.2,1.1c-0.6,0-1.2-0.6-1.2-1.2c0-0.6,0.6-1.1,1.3-1.1
			C113.2,12.4,113.7,12.9,113.7,13.6z"/>
	</g>
</g>
</svg>
