<?xml version="1.0" encoding="utf-8"?>
<!-- Generator: Adobe Illustrator 25.0.0, SVG Export Plug-In . SVG Version: 6.00 Build 0)  -->
<svg version="1.1" id="Layer_1" xmlns="http://www.w3.org/2000/svg" xmlns:xlink="http://www.w3.org/1999/xlink" x="0px" y="0px"
	 viewBox="0 0 180.91 177.84" style="enable-background:new 0 0 180.91 177.84;" xml:space="preserve">
<style type="text/css">
	.st0{fill:#001135;}
	.st1{fill:#FFFFFF;}
	.st2{fill:#3C7CFF;}
	.st3{fill:#185AE9;}
	.st4{fill:#00B0FB;}
	.st5{fill-rule:evenodd;clip-rule:evenodd;fill:#00B0FB;}
	.st6{fill:#061639;}
	.st7{fill:#1429FF;}
	.st8{fill:#663398;}
	.st9{fill:#FEFEFE;}
	.st10{fill:#8DB849;}
	.st11{fill:#5A863E;}
	.st12{fill:#FFFFFE;}
	.st13{fill-rule:evenodd;clip-rule:evenodd;fill:#7FC728;}
	.st14{fill:#B3B3B3;}
	.st15{fill:#A6120D;}
	.st16{fill:#DD1B16;}
	.st17{fill:#F2F2F2;}
	.st18{fill:#8F9ED1;}
	.st19{fill:#030303;}
	.st20{fill:#0E0E0D;}
	.st21{fill:#8F8F90;}
	.st22{fill:#DBDBDB;}
	.st23{fill:#FDFDFD;}
	.st24{fill:#FDFCFD;}
	.st25{fill:#010101;}
	.st26{fill:#FCB415;}
	.st27{opacity:0.2;fill:#FFFFFF;enable-background:new    ;}
	.st28{fill:#68B345;}
	.st29{fill:#0A99D6;}
	.st30{opacity:0.1;fill:#010101;enable-background:new    ;}
	.st31{fill:#EE3325;}
	.st32{fill:url(#SVGID_1_);}
	.st33{fill:#FF2D20;}
	.st34{clip-path:url(#SVGID_2_);fill:#F9C638;}
	.st35{fill:#2A2D2C;}
	.st36{fill:#F9C638;}
	.st37{fill:#833CF7;}
	.st38{fill:none;}
	.st39{fill:#0A0A0A;}
	.st40{fill:#050505;}
	.st41{fill:#2A2A2A;}
	.st42{fill:#000100;}
	.st43{fill:#FBFBFB;}
	.st44{fill:#070707;}
	.st45{fill:#080808;}
	.st46{fill:#F7F7F7;}
	.st47{fill:#0B0B0B;}
	.st48{fill:#F1F0F1;}
	.st49{fill:#F4F4F4;}
	.st50{fill:#0C0C0C;}
	.st51{fill:#ECECEC;}
	.st52{fill:#252525;}
	.st53{fill:#D5D5D5;}
	.st54{fill:#3F3F3F;}
	.st55{fill:#818181;}
	.st56{fill:#A2A2A2;}
	.st57{fill:#040404;}
	.st58{fill:#151515;}
	.st59{fill:#343434;}
	.st60{fill:#4B4B4B;}
	.st61{fill:#0D0D0D;}
	.st62{fill:#00D8FF;}
	.st63{fill:#4DBA87;}
	.st64{fill:#425466;}
	.st65{fill:url(#SVGID_3_);}
	.st66{fill:url(#SVGID_4_);}
	.st67{fill:#14559A;}
	.st68{fill:url(#SVGID_6_);}
	.st69{fill:#3092C4;}
	.st70{fill:#1969BC;}
	.st71{fill:url(#SVGID_7_);}
	.st72{fill:url(#SVGID_8_);}
	.st73{fill:url(#SVGID_9_);}
	.st74{fill:#2B74B1;}
	.st75{fill:#125A9E;}
	.st76{fill:url(#SVGID_10_);}
	.st77{fill:url(#SVGID_11_);}
	.st78{fill:#0D82CA;}
	.st79{fill:url(#SVGID_12_);}
	.st80{fill:#127BCA;}
	.st81{fill:url(#SVGID_13_);}
	.st82{fill:url(#SVGID_14_);}
	.st83{fill:#05A1E6;}
	.st84{fill:url(#SVGID_15_);}
	.st85{fill:url(#SVGID_16_);}
	.st86{fill:url(#SVGID_17_);}
	.st87{fill:#079AE1;}
	.st88{fill:#1E5CB3;}
	.st89{fill:#1D60B5;}
	.st90{fill:#175FAB;}
	.st91{fill:url(#SVGID_18_);}
	.st92{fill:#7DCBEC;}
	.st93{fill:#5EC5ED;}
	.st94{fill:url(#SVGID_19_);}
	.st95{fill:url(#SVGID_20_);}
	.st96{fill:url(#SVGID_21_);}
	.st97{fill:#6EB341;}
	.st98{fill:#F6F6F6;}
	.st99{fill:#060606;}
	.st100{fill:#101010;}
	.st101{fill:url(#SVGID_22_);}
	.st102{fill:url(#SVGID_23_);}
	.st103{fill:url(#SVGID_24_);}
	.st104{fill:url(#SVGID_25_);}
	.st105{fill:url(#SVGID_26_);}
	.st106{fill:url(#SVGID_27_);}
	.st107{fill:url(#SVGID_28_);}
	.st108{fill:url(#SVGID_29_);}
	.st109{fill:url(#SVGID_30_);}
	.st110{fill:url(#SVGID_31_);}
	.st111{fill:url(#SVGID_32_);}
	.st112{fill:url(#SVGID_33_);}
	.st113{fill:url(#SVGID_34_);}
	.st114{fill:url(#SVGID_35_);}
	.st115{fill:url(#SVGID_36_);}
	.st116{fill:url(#SVGID_37_);}
	.st117{fill:url(#SVGID_38_);}
	.st118{fill:url(#SVGID_39_);}
	.st119{fill-rule:evenodd;clip-rule:evenodd;fill:#5382A1;}
	.st120{fill-rule:evenodd;clip-rule:evenodd;fill:#E76F00;}
</style>
<g>
	<path class="st7" d="M140.11,108.21H36.13c-0.55,0-1,0.45-1,1v63.78c0,2.67,2.18,4.85,4.85,4.85h96.29c2.67,0,4.85-2.18,4.85-4.85
		l-0.01-63.78C141.11,108.66,140.66,108.21,140.11,108.21z M46.02,159.64l13.08-34.35c0.55-1.35,1.85-2.22,3.31-2.22
		c1.46,0,2.75,0.87,3.34,2.29l12.94,34.29c0.26,0.7,0.24,1.46-0.07,2.13c-0.31,0.68-0.86,1.2-1.56,1.46
		c-0.32,0.12-0.65,0.18-0.98,0.18c-1.15,0-2.2-0.73-2.61-1.81l-2.3-6.09c-0.15-0.39-0.52-0.65-0.94-0.65H54.49
		c-0.42,0-0.79,0.26-0.93,0.64l-2.32,6.1c-0.41,1.08-1.46,1.8-2.61,1.8c-0.34,0-0.67-0.06-0.99-0.18c-0.7-0.26-1.25-0.79-1.55-1.47
		C45.77,161.1,45.75,160.34,46.02,159.64z M87.25,125.48l1.01-0.01c0-0.01,0.02-0.15,0.02-0.15l0.03-0.12l-0.95-0.31v0l0.99,0.16
		l0.05-0.14l-0.92-0.38l0.97,0.26l0.12-0.24l0.08-0.13l-0.85-0.53h0l0.91,0.42l-0.83-0.55l0,0l0,0l0.92,0.44
		c0,0,0.07-0.09,0.07-0.09c0,0,0.18-0.2,0.19-0.21c0.07-0.07,0.13-0.13,0.2-0.18l0.11-0.08c0,0,0.29-0.2,0.3-0.2
		c0.02-0.01,0.08-0.04,0.09-0.04c0.06-0.03,0.13-0.07,0.22-0.1c0.08-0.03,0.15-0.06,0.26-0.09c0.08-0.02,0.15-0.04,0.23-0.06
		c0.01,0,0.22-0.04,0.28-0.04c0.09-0.01,0.18-0.01,0.28-0.01h9.68c7.06,0,12.8,5.65,12.8,12.61s-5.74,12.61-12.8,12.61
		c-1.35,0-3.81,0.01-5.9,0.02c-0.55,0-0.99,0.45-0.99,1v11.34c0,1.54-1.25,2.79-2.79,2.79c-1.54,0-2.79-1.25-2.79-2.79l0-34.71
		c0-0.03,0.01-0.08,0.01-0.11c0-0.08,0-0.16,0.01-0.24L87.25,125.48L87.25,125.48z M122.58,160.64v-34.78
		c0-1.54,1.25-2.79,2.79-2.79s2.79,1.25,2.79,2.79v34.78c0,1.54-1.25,2.79-2.79,2.79S122.58,162.17,122.58,160.64z"/>
	<path class="st7" d="M57.38,149.31h10c0.33,0,0.64-0.16,0.82-0.43c0.19-0.27,0.23-0.61,0.11-0.92l-4.98-13.19
		c-0.15-0.39-0.52-0.65-0.93-0.65c0,0,0,0,0,0c-0.42,0-0.79,0.26-0.93,0.64l-5.02,13.19c-0.12,0.31-0.08,0.65,0.11,0.92
		S57.05,149.31,57.38,149.31z"/>
	<path class="st7" d="M49.38,67.26c-1.18,0-2.36-0.13-3.5-0.4c-0.08-0.02-0.15-0.03-0.23-0.03c-0.44,0-0.83,0.29-0.96,0.72
		c-0.82,2.84-1.36,5.79-1.61,8.75c-0.02,0.28,0.07,0.55,0.26,0.76s0.46,0.32,0.74,0.32h23.73c0.48,0,0.9-0.35,0.98-0.82
		c1.74-9.53,10.04-16.45,19.73-16.45s17.99,6.92,19.73,16.45c0.09,0.47,0.5,0.82,0.98,0.82h23.73c0.28,0,0.55-0.12,0.74-0.32
		s0.28-0.48,0.26-0.76c-0.25-2.96-0.79-5.91-1.61-8.75c-0.13-0.44-0.52-0.72-0.96-0.72c-0.08,0-0.15,0.01-0.23,0.03
		c-1.15,0.27-2.32,0.4-3.51,0.4c-4.99,0-9.71-2.39-12.63-6.4c-3.68-5.06-3.99-11.8-0.77-17.19c0.27-0.46,0.14-1.04-0.3-1.34
		c-3.06-2.07-6.37-3.75-9.83-5.01c-0.11-0.04-0.23-0.06-0.34-0.06c-0.39,0-0.76,0.23-0.92,0.61c-2.45,5.77-8.08,9.5-14.35,9.5
		s-11.9-3.73-14.35-9.5c-0.16-0.38-0.53-0.61-0.92-0.61c-0.11,0-0.23,0.02-0.34,0.06c-3.46,1.25-6.77,2.94-9.83,5.01
		c-0.44,0.3-0.57,0.89-0.3,1.34C66,49.05,65.7,55.8,62.01,60.85C59.09,64.86,54.37,67.26,49.38,67.26z"/>
	<path class="st7" d="M88.53,65.7c-6.38,0-12.09,4.28-13.89,10.41c-0.09,0.3-0.03,0.63,0.16,0.88c0.19,0.25,0.49,0.4,0.8,0.4h25.86
		c0.32,0,0.61-0.15,0.8-0.4c0.19-0.25,0.25-0.58,0.16-0.88C100.62,69.98,94.9,65.7,88.53,65.7z"/>
	<path class="st7" d="M93.86,141.72c0,0.27,0.11,0.52,0.3,0.71c0.19,0.19,0.44,0.29,0.7,0.29c0,0,0,0,0,0
		c2.08-0.01,4.5-0.02,5.84-0.02c3.91,0,7.22-3.22,7.22-7.02s-3.3-7.02-7.22-7.02h-5.88c-0.27,0-0.52,0.11-0.71,0.29
		s-0.29,0.44-0.29,0.71c0.01,2.24,0.01,4.85,0.01,6.02C93.84,137.05,93.85,139.57,93.86,141.72z"/>
	<path class="st7" d="M143.63,28.28c-3.31,0-6.6,0.44-9.78,1.3c-0.24,0.07-0.49,0.1-0.73,0.1c-1.06,0-2.02-0.59-2.49-1.54
		C122.08,11.04,103.52,0,83.33,0c-4.88,0-9.68,0.67-14.26,1.98c-0.02,0-0.16,0.06-0.18,0.06c-4.54,1.41-8.9,3.5-12.95,6.21
		l-0.84,0.57c-12.2,8.52-20.39,22.28-21.91,36.81c-0.15,1.43-1.34,2.5-2.78,2.5c0,0,0,0,0,0c-0.09,0-0.18,0-0.27-0.01
		c-0.96-0.09-1.86-0.14-2.72-0.14c-7.36,0-14.28,2.88-19.47,8.11C2.77,61.32-0.05,68.25,0,75.62c0.11,14.89,12.59,27,27.81,27h0.73
		c0.55,0,1-0.45,1-1v-13.8c0-4.36,2.75-8.29,6.85-9.8l0.36-0.12c0.39-0.13,0.66-0.48,0.68-0.89c0.32-5.19,1.41-10.27,3.26-15.1
		c0.29-0.75,0.89-1.34,1.64-1.62c0.31-0.11,0.63-0.17,0.96-0.17c0.47,0,0.93,0.12,1.34,0.34c1.45,0.79,3.1,1.21,4.76,1.21
		c3.2,0,6.23-1.54,8.1-4.11c2.95-4.04,2.44-9.68-1.17-13.12c-0.58-0.56-0.9-1.33-0.87-2.14c0.03-0.8,0.41-1.55,1.04-2.06
		c5.54-4.45,11.8-7.63,18.62-9.47c0.24-0.06,0.48-0.1,0.73-0.1c0.55,0,1.09,0.16,1.55,0.47c0.67,0.45,1.11,1.16,1.22,1.96
		c0.65,4.95,4.91,8.68,9.91,8.68c5,0,9.26-3.73,9.91-8.68c0.1-0.8,0.55-1.51,1.22-1.96c0.46-0.31,1-0.47,1.55-0.47
		c0.25,0,0.49,0.03,0.73,0.1c6.81,1.84,13.07,5.03,18.61,9.47c0.63,0.5,1.01,1.25,1.04,2.06s-0.28,1.58-0.86,2.14
		c-3.61,3.44-4.12,9.08-1.17,13.12c1.88,2.58,4.9,4.11,8.1,4.11c1.66,0,3.3-0.42,4.76-1.21c0.41-0.22,0.87-0.34,1.34-0.34
		c0.33,0,0.65,0.06,0.96,0.17c0.76,0.28,1.35,0.87,1.64,1.62c1.88,4.91,2.98,10.08,3.28,15.38c0.02,0.38,0.26,0.72,0.62,0.87
		c3.71,1.52,6.24,5.1,6.44,9.13c0,0.1,0.01,1.12,0,14.31c0,0.29,0.12,0.56,0.33,0.75c0.18,0.16,0.42,0.25,0.67,0.25
		c0.04,0,0.08,0,0.12-0.01c18.56-2.18,33.11-18.45,33.11-37.04C180.91,45.7,163.49,28.28,143.63,28.28z"/>
	<path class="st7" d="M38.54,83.19c-2.04,0.64-3.41,2.5-3.41,4.63v13.8c0,0.55,0.45,1,1,1h103.98c0.55,0,1-0.45,1-1v-13.8
		c0-2.13-1.36-3.99-3.43-4.64c-0.12-0.04-0.25-0.07-0.37-0.09l-0.17-0.03c-0.09-0.02-0.18-0.03-0.27-0.04
		c-0.08-0.01-0.17-0.02-0.23-0.02c-0.12-0.01-0.24-0.02-0.37-0.02H39.98C39.49,82.97,39,83.04,38.54,83.19z M44.12,92.74
		c0-0.17,0.02-0.36,0.06-0.54c0.04-0.19,0.09-0.36,0.16-0.53c0.07-0.17,0.15-0.33,0.26-0.49c0.1-0.15,0.21-0.29,0.34-0.42
		c0.13-0.13,0.27-0.24,0.42-0.34c0.16-0.1,0.32-0.19,0.49-0.26c0.16-0.07,0.34-0.12,0.52-0.16c0.18-0.04,0.36-0.05,0.54-0.05
		s0.36,0.02,0.54,0.05c0.19,0.04,0.36,0.09,0.53,0.16c0.17,0.07,0.33,0.15,0.49,0.26c0.15,0.1,0.29,0.21,0.42,0.34
		c0.13,0.13,0.24,0.27,0.35,0.43c0.09,0.13,0.17,0.29,0.25,0.48c0.07,0.17,0.13,0.35,0.16,0.52c0.04,0.17,0.05,0.36,0.05,0.54
		c0,0.73-0.3,1.45-0.82,1.97c-0.13,0.13-0.27,0.25-0.42,0.35c-0.15,0.1-0.31,0.19-0.49,0.26c-0.16,0.07-0.34,0.12-0.52,0.16
		c-0.17,0.03-0.35,0.05-0.54,0.05c-0.19,0-0.37-0.02-0.54-0.05c-0.18-0.04-0.36-0.09-0.53-0.16c-0.17-0.07-0.33-0.16-0.48-0.25
		c-0.15-0.1-0.29-0.22-0.42-0.35c-0.13-0.13-0.25-0.27-0.34-0.42c-0.1-0.16-0.19-0.32-0.26-0.48c-0.07-0.17-0.12-0.35-0.16-0.52
		C44.14,93.09,44.12,92.91,44.12,92.74z M57.88,92.74c0-0.19,0.02-0.37,0.05-0.54c0.04-0.18,0.09-0.36,0.16-0.53
		c0.07-0.17,0.15-0.33,0.26-0.49c0.1-0.15,0.21-0.29,0.34-0.42c0.12-0.12,0.27-0.24,0.41-0.34c0.16-0.11,0.33-0.19,0.49-0.26
		c0.16-0.07,0.34-0.12,0.52-0.16c0.18-0.04,0.36-0.05,0.54-0.05s0.37,0.02,0.54,0.05c0.19,0.04,0.36,0.09,0.52,0.16
		c0.17,0.07,0.33,0.16,0.49,0.26c0.15,0.1,0.29,0.22,0.43,0.35c0.12,0.12,0.23,0.26,0.34,0.42c0.1,0.15,0.19,0.31,0.26,0.49
		c0.07,0.16,0.12,0.33,0.16,0.52c0.03,0.17,0.05,0.35,0.05,0.54c0,0.19-0.02,0.37-0.05,0.54c-0.04,0.19-0.09,0.37-0.16,0.53
		s-0.15,0.33-0.25,0.48c-0.11,0.16-0.22,0.3-0.35,0.43c-0.13,0.13-0.27,0.25-0.41,0.34c-0.16,0.1-0.32,0.19-0.49,0.26
		c-0.17,0.07-0.35,0.13-0.52,0.16c-0.18,0.04-0.36,0.05-0.55,0.05c-0.19,0-0.37-0.02-0.54-0.05c-0.17-0.04-0.35-0.09-0.54-0.17
		c-0.16-0.06-0.32-0.15-0.46-0.24c-0.16-0.11-0.31-0.23-0.43-0.35c-0.13-0.13-0.25-0.27-0.34-0.42c-0.1-0.16-0.19-0.32-0.26-0.48
		c-0.07-0.17-0.12-0.35-0.16-0.52C57.9,93.11,57.88,92.92,57.88,92.74z"/>
</g>
</svg>
