<?xml version="1.0" encoding="utf-8"?>
<!-- Generator: Adobe Illustrator 25.0.0, SVG Export Plug-In . SVG Version: 6.00 Build 0)  -->
<svg version="1.1" id="Layer_1" xmlns="http://www.w3.org/2000/svg" xmlns:xlink="http://www.w3.org/1999/xlink" x="0px" y="0px"
	 viewBox="0 0 308.77 123" style="enable-background:new 0 0 308.77 123;" xml:space="preserve">
<style type="text/css">
	.st0{fill:#001135;}
	.st1{fill:#FFFFFF;}
	.st2{fill:#3C7CFF;}
	.st3{fill:#185AE9;}
	.st4{fill:#00B0FB;}
	.st5{fill-rule:evenodd;clip-rule:evenodd;fill:#00B0FB;}
	.st6{fill:#061639;}
	.st7{fill:#1429FF;}
	.st8{fill:#663398;}
	.st9{fill:#FEFEFE;}
	.st10{fill:#8DB849;}
	.st11{fill:#5A863E;}
	.st12{fill:#FFFFFE;}
	.st13{fill-rule:evenodd;clip-rule:evenodd;fill:#7FC728;}
	.st14{fill:#B3B3B3;}
	.st15{fill:#A6120D;}
	.st16{fill:#DD1B16;}
	.st17{fill:#F2F2F2;}
	.st18{fill:#8F9ED1;}
	.st19{fill:#030303;}
	.st20{fill:#0E0E0D;}
	.st21{fill:#8F8F90;}
	.st22{fill:#DBDBDB;}
	.st23{fill:#FDFDFD;}
	.st24{fill:#FDFCFD;}
	.st25{fill:#010101;}
	.st26{fill:#FCB415;}
	.st27{opacity:0.2;fill:#FFFFFF;enable-background:new    ;}
	.st28{fill:#68B345;}
	.st29{fill:#0A99D6;}
	.st30{opacity:0.1;fill:#010101;enable-background:new    ;}
	.st31{fill:#EE3325;}
	.st32{fill:url(#SVGID_1_);}
	.st33{fill:#FF2D20;}
	.st34{clip-path:url(#SVGID_2_);fill:#F9C638;}
	.st35{fill:#2A2D2C;}
	.st36{fill:#F9C638;}
	.st37{fill:#833CF7;}
	.st38{fill:none;}
	.st39{fill:#0A0A0A;}
	.st40{fill:#050505;}
	.st41{fill:#2A2A2A;}
	.st42{fill:#000100;}
	.st43{fill:#FBFBFB;}
	.st44{fill:#070707;}
	.st45{fill:#080808;}
	.st46{fill:#F7F7F7;}
	.st47{fill:#0B0B0B;}
	.st48{fill:#F1F0F1;}
	.st49{fill:#F4F4F4;}
	.st50{fill:#0C0C0C;}
	.st51{fill:#ECECEC;}
	.st52{fill:#252525;}
	.st53{fill:#D5D5D5;}
	.st54{fill:#3F3F3F;}
	.st55{fill:#818181;}
	.st56{fill:#A2A2A2;}
	.st57{fill:#040404;}
	.st58{fill:#151515;}
	.st59{fill:#343434;}
	.st60{fill:#4B4B4B;}
	.st61{fill:#0D0D0D;}
	.st62{fill:#00D8FF;}
	.st63{fill:#4DBA87;}
	.st64{fill:#425466;}
	.st65{fill:url(#SVGID_3_);}
	.st66{fill:url(#SVGID_4_);}
	.st67{fill:#14559A;}
	.st68{fill:url(#SVGID_6_);}
	.st69{fill:#3092C4;}
	.st70{fill:#1969BC;}
	.st71{fill:url(#SVGID_7_);}
	.st72{fill:url(#SVGID_8_);}
	.st73{fill:url(#SVGID_9_);}
	.st74{fill:#2B74B1;}
	.st75{fill:#125A9E;}
	.st76{fill:url(#SVGID_10_);}
	.st77{fill:url(#SVGID_11_);}
	.st78{fill:#0D82CA;}
	.st79{fill:url(#SVGID_12_);}
	.st80{fill:#127BCA;}
	.st81{fill:url(#SVGID_13_);}
	.st82{fill:url(#SVGID_14_);}
	.st83{fill:#05A1E6;}
	.st84{fill:url(#SVGID_15_);}
	.st85{fill:url(#SVGID_16_);}
	.st86{fill:url(#SVGID_17_);}
	.st87{fill:#079AE1;}
	.st88{fill:#1E5CB3;}
	.st89{fill:#1D60B5;}
	.st90{fill:#175FAB;}
	.st91{fill:url(#SVGID_18_);}
	.st92{fill:#7DCBEC;}
	.st93{fill:#5EC5ED;}
	.st94{fill:url(#SVGID_19_);}
	.st95{fill:url(#SVGID_20_);}
	.st96{fill:url(#SVGID_21_);}
	.st97{fill:#6EB341;}
	.st98{fill:#F6F6F6;}
	.st99{fill:#060606;}
	.st100{fill:#101010;}
	.st101{fill:url(#SVGID_22_);}
	.st102{fill:url(#SVGID_23_);}
	.st103{fill:url(#SVGID_24_);}
	.st104{fill:url(#SVGID_25_);}
	.st105{fill:url(#SVGID_26_);}
	.st106{fill:url(#SVGID_27_);}
	.st107{fill:url(#SVGID_28_);}
	.st108{fill:url(#SVGID_29_);}
	.st109{fill:url(#SVGID_30_);}
	.st110{fill:url(#SVGID_31_);}
	.st111{fill:url(#SVGID_32_);}
	.st112{fill:url(#SVGID_33_);}
	.st113{fill:url(#SVGID_34_);}
	.st114{fill:url(#SVGID_35_);}
	.st115{fill:url(#SVGID_36_);}
	.st116{fill:url(#SVGID_37_);}
	.st117{fill:url(#SVGID_38_);}
	.st118{fill:url(#SVGID_39_);}
	.st119{fill-rule:evenodd;clip-rule:evenodd;fill:#5382A1;}
	.st120{fill-rule:evenodd;clip-rule:evenodd;fill:#E76F00;}
</style>
<g>
	
		<linearGradient id="SVGID_1_" gradientUnits="userSpaceOnUse" x1="609.765" y1="-515.6595" x2="610.7501" y2="-515.6595" gradientTransform="matrix(0 149.735 -149.735 0 -77077.3438 -91301.3594)">
		<stop  offset="0" style="stop-color:#0994DC"/>
		<stop  offset="0.35" style="stop-color:#66CEF5"/>
		<stop  offset="0.35" style="stop-color:#66CEF5"/>
		<stop  offset="0.846" style="stop-color:#127BCA"/>
		<stop  offset="0.846" style="stop-color:#127BCA"/>
		<stop  offset="1" style="stop-color:#127BCA"/>
	</linearGradient>
	<path class="st32" d="M107.24,25.12c11.13,34.03,15.34,94.73,47.88,94.73c2.47,0,4.98-0.24,7.49-0.72
		c-29.58-6.9-33.08-66.94-51.14-98.04C110.07,22.38,108.67,23.72,107.24,25.12"/>
	
		<linearGradient id="SVGID_2_" gradientUnits="userSpaceOnUse" x1="609.6992" y1="-515.7518" x2="610.6817" y2="-515.7518" gradientTransform="matrix(0 153.551 -153.551 0 -79053.6641 -93621.6562)">
		<stop  offset="0" style="stop-color:#0E76BC"/>
		<stop  offset="0.36" style="stop-color:#36AEE8"/>
		<stop  offset="0.36" style="stop-color:#36AEE8"/>
		<stop  offset="0.846" style="stop-color:#00ADEF"/>
		<stop  offset="0.846" style="stop-color:#00ADEF"/>
		<stop  offset="1" style="stop-color:#00ADEF"/>
	</linearGradient>
	<path style="fill:url(#SVGID_2_);" d="M111.48,21.1c18.05,31.09,21.56,91.14,51.14,98.04c2.33-0.43,4.65-1.07,6.99-1.89
		c-26.55-13.01-33.89-71.31-54.39-99.38C113.98,18.89,112.73,19.97,111.48,21.1"/>
	<path class="st67" d="M137.49,2.61c-2.47,0-4.98,0.24-7.5,0.72c-6.58,1.24-13.27,4.08-20.01,8.37c1.84,1.82,3.6,3.9,5.24,6.17
		c6.86-5.69,13.67-9.9,20.46-12.43c2.55-0.94,5.09-1.65,7.63-2.12C141.47,2.85,139.54,2.61,137.49,2.61"/>
	
		<linearGradient id="SVGID_3_" gradientUnits="userSpaceOnUse" x1="603.7767" y1="-524.024" x2="604.7593" y2="-524.024" gradientTransform="matrix(0 -122.178 122.178 0 64195.1172 73884.5)">
		<stop  offset="0" style="stop-color:#1C63B7"/>
		<stop  offset="0.5" style="stop-color:#33BDF2"/>
		<stop  offset="1" style="stop-color:#33BDF2;stop-opacity:0.42"/>
	</linearGradient>
	<path class="st65" d="M190.33,105.25c2.72-2.16,5.44-4.55,8.16-7.16c-11.31-33.87-15.36-95.44-48.12-95.44
		c-2.34,0-4.71,0.22-7.06,0.66C173.16,10.74,176.98,75.67,190.33,105.25"/>
	<path class="st69" d="M143.31,3.31c-1.84-0.47-3.77-0.71-5.82-0.71l12.88,0.05C148.03,2.65,145.67,2.87,143.31,3.31"/>
	<path class="st70" d="M189.76,112.45c-1.28-1.22-2.5-2.56-3.69-3.99c-5.51,3.9-11,6.86-16.46,8.79c1.94,0.95,3.98,1.65,6.14,2.09
		c1.67,0.34,3.41,0.52,5.23,0.52c6.12,0,10.97-0.73,15.08-2.7C193.79,115.92,191.71,114.34,189.76,112.45"/>
	
		<linearGradient id="SVGID_4_" gradientUnits="userSpaceOnUse" x1="609.6049" y1="-515.8902" x2="610.59" y2="-515.8902" gradientTransform="matrix(0 159.425 -159.425 0 -82082.7969 -97203.7812)">
		<stop  offset="0" style="stop-color:#166AB8"/>
		<stop  offset="0.4" style="stop-color:#36AEE8"/>
		<stop  offset="0.4" style="stop-color:#36AEE8"/>
		<stop  offset="0.846" style="stop-color:#0798DD"/>
		<stop  offset="0.846" style="stop-color:#0798DD"/>
		<stop  offset="1" style="stop-color:#0798DD"/>
	</linearGradient>
	<path class="st66" d="M135.68,5.44c26.73,13.98,29.06,77.31,50.39,103.02c1.43-1.01,2.85-2.08,4.26-3.2
		c-13.35-29.58-17.17-94.53-47.01-101.94C140.77,3.79,138.22,4.49,135.68,5.44"/>
	
		<linearGradient id="SVGID_6_" gradientUnits="userSpaceOnUse" x1="609.453" y1="-516.0977" x2="610.4381" y2="-516.0977" gradientTransform="matrix(0 169.528 -169.528 0 -87342.3594 -103335.6328)">
		<stop  offset="0" style="stop-color:#124379"/>
		<stop  offset="0.39" style="stop-color:#1487CB"/>
		<stop  offset="0.39" style="stop-color:#1487CB"/>
		<stop  offset="0.78" style="stop-color:#165197"/>
		<stop  offset="0.78" style="stop-color:#165197"/>
		<stop  offset="1" style="stop-color:#165197"/>
	</linearGradient>
	<path class="st68" d="M115.22,17.86c20.5,28.07,27.84,86.38,54.39,99.39c5.46-1.93,10.95-4.89,16.46-8.79
		c-21.33-25.71-23.66-89.03-50.39-103.02C128.89,7.96,122.08,12.17,115.22,17.86"/>
	
		<linearGradient id="SVGID_7_" gradientUnits="userSpaceOnUse" x1="1426.6646" y1="1649.6848" x2="1432.5026" y2="1649.6848" gradientTransform="matrix(4.038 0 0 4.038 -5678.4688 -6626.6206)">
		<stop  offset="0" style="stop-color:#33BDF2;stop-opacity:0.698"/>
		<stop  offset="1" style="stop-color:#1DACD8"/>
	</linearGradient>
	<path class="st71" d="M94.13,24.3c-3.21,7.26-6.5,16.81-10.46,29.28c7.89-11.12,15.75-20.69,23.57-28.46
		c-1.08-3.31-2.23-6.37-3.48-9.08C100.56,18.48,97.34,21.24,94.13,24.3"/>
	<path class="st74" d="M106.61,13.94c-0.94,0.68-1.89,1.37-2.85,2.1c1.25,2.72,2.4,5.77,3.48,9.09c1.42-1.39,2.83-2.74,4.24-4.02
		C109.97,18.49,108.36,16.09,106.61,13.94"/>
	<path class="st75" d="M109.98,11.69c-1.12,0.71-2.24,1.46-3.37,2.24c1.75,2.15,3.36,4.56,4.88,7.17c1.25-1.13,2.49-2.21,3.73-3.24
		C113.57,15.59,111.82,13.51,109.98,11.69"/>
	
		<linearGradient id="SVGID_8_" gradientUnits="userSpaceOnUse" x1="603.6906" y1="-524.1608" x2="604.6732" y2="-524.1608" gradientTransform="matrix(0 -119.018 119.018 0 62645.293 71963.1953)">
		<stop  offset="0" style="stop-color:#136AB4"/>
		<stop  offset="0.6" style="stop-color:#59CAF5;stop-opacity:0.549"/>
		<stop  offset="1" style="stop-color:#59CAF5;stop-opacity:0.235"/>
	</linearGradient>
	<path class="st72" d="M292.33,0.01c-15.12,58.31-46.7,105.14-73.17,116.95h-0.05l-1.43,0.61l-0.17,0.07l-0.41,0.16l-0.18,0.08
		l-0.66,0.23l-0.27,0.1l-0.33,0.11l-0.32,0.11l-0.28,0.1l-0.56,0.17l-0.24,0.06l-0.38,0.1l-0.26,0.07l-0.42,0.11l-0.51,0.11
		c1.2,0.44,2.44,0.67,3.79,0.67c25.11,0,50.42-44.99,92.31-119.81h-16.45C292.32,0,292.33,0.01,292.33,0.01z"/>
	
		<linearGradient id="SVGID_9_" gradientUnits="userSpaceOnUse" x1="1405.9475" y1="1656.6132" x2="1427.604" y2="1656.6132" gradientTransform="matrix(4.038 0 0 4.038 -5678.4688 -6626.6206)">
		<stop  offset="0" style="stop-color:#05A1E6;stop-opacity:0.247"/>
		<stop  offset="1" style="stop-color:#05A1E6"/>
	</linearGradient>
	<path class="st73" d="M78.21,4.97l0.05-0.04l0.06-0.04h0.03l0.41-0.16l0.08-0.04l0.11-0.04l0.44-0.16h0.02l0.96-0.34l0.14-0.04
		L80.93,4l0.19-0.06l0.42-0.12l0.16-0.04l1.38-0.36l0.19-0.04l0.4-0.08l0.2-0.06l0.41-0.08h0.1L85.2,3h0.17l0.39-0.07l0.22-0.04
		l0.37-0.06l0.2-0.04l0.9-0.08c-0.87-0.08-1.76-0.14-2.67-0.14C56.5,2.58,17.55,55.04,0,122.98h3.38
		C9,112.97,14.04,103.49,18.66,94.6C30.95,46.48,55.98,13.66,78.21,4.97"/>
	<path class="st78" d="M94.13,24.3c3.21-3.06,6.43-5.82,9.63-8.27c-0.73-1.6-1.48-3.08-2.3-4.44C98.88,14.74,96.52,18.88,94.13,24.3
		"/>
	<path class="st78" d="M96.45,5.37c1.85,1.55,3.5,3.68,5.01,6.23c0.48-0.58,0.96-1.13,1.46-1.64C100.83,8,98.56,6.4,96.1,5.18
		l0.3,0.14L96.45,5.37"/>
	
		<linearGradient id="SVGID_10_" gradientUnits="userSpaceOnUse" x1="603.7648" y1="-524.015" x2="604.7474" y2="-524.015" gradientTransform="matrix(0 -121.865 121.865 0 63907.5234 73693.9609)">
		<stop  offset="0" style="stop-color:#318ED5"/>
		<stop  offset="1" style="stop-color:#38A7E4"/>
	</linearGradient>
	<path class="st76" d="M18.66,94.6c25.78-49.68,38-81.12,59.56-89.63C55.98,13.67,30.95,46.49,18.66,94.6"/>
	<path class="st80" d="M102.93,9.96c-0.5,0.51-0.98,1.05-1.46,1.64c0.81,1.36,1.56,2.83,2.3,4.43c0.95-0.73,1.9-1.42,2.84-2.1
		C105.44,12.5,104.21,11.16,102.93,9.96"/>
	
		<linearGradient id="SVGID_11_" gradientUnits="userSpaceOnUse" x1="603.6683" y1="-524.1458" x2="604.6534" y2="-524.1458" gradientTransform="matrix(0 -118.46 118.46 0 62146.293 71627.3516)">
		<stop  offset="0" style="stop-color:#05A1E6"/>
		<stop  offset="1" style="stop-color:#05A1E6;stop-opacity:0.549"/>
	</linearGradient>
	<path class="st77" d="M30.36,122.76l-0.47,0.06h-0.09l-0.4,0.04h-0.07l-0.95,0.06h-0.1c26.09-0.73,38.02-13.79,43.94-32.74
		c4.5-14.36,8.19-26.47,11.43-36.62c-10.93,15.38-21.91,33.72-32.95,54.27c-5.32,9.9-13.42,14.04-20.36,14.92"/>
	
		<linearGradient id="SVGID_12_" gradientUnits="userSpaceOnUse" x1="603.0473" y1="-525.0197" x2="604.0324" y2="-525.0197" gradientTransform="matrix(0 -100.1 100.1 0 52616.7148 60487.9375)">
		<stop  offset="0" style="stop-color:#1959A6"/>
		<stop  offset="0.5" style="stop-color:#05A1E6"/>
		<stop  offset="0.5" style="stop-color:#05A1E6"/>
		<stop  offset="0.918" style="stop-color:#7EC5EA"/>
		<stop  offset="1" style="stop-color:#7EC5EA"/>
	</linearGradient>
	<path class="st79" d="M30.36,122.75c6.94-0.88,15.04-5.02,20.36-14.92c11.04-20.54,22.02-38.88,32.94-54.26
		c3.97-12.47,7.25-22.01,10.47-29.28C72.36,45,50.51,79.45,30.36,122.74"/>
	<path class="st83" d="M18.66,94.6C14.05,103.5,9,112.97,3.38,122.99h9.84C14.52,113.04,16.37,103.56,18.66,94.6"/>
	
		<linearGradient id="SVGID_13_" gradientUnits="userSpaceOnUse" x1="604.3581" y1="-525.0605" x2="605.3406" y2="-525.0605" gradientTransform="matrix(-19.138 -108.537 108.537 -19.138 68620.7109 55662.9258)">
		<stop  offset="0" style="stop-color:#165096"/>
		<stop  offset="1" style="stop-color:#0D82CA"/>
	</linearGradient>
	<path class="st81" d="M86.55,2.82l-0.21,0.04l-0.37,0.05l-0.22,0.04l-0.39,0.07L85.2,3.06l-0.84,0.15h-0.1l-0.41,0.08l-0.2,0.06
		l-0.4,0.08l-0.19,0.05l-1.38,0.36l-0.16,0.05l-0.42,0.12l-0.19,0.05l-0.41,0.12l-0.15,0.04L79.4,4.55L78.96,4.7l-0.18,0.08
		l-0.41,0.15l-0.14,0.07C56.68,13.5,44.47,44.94,18.68,94.62c-2.29,8.95-4.14,18.43-5.44,28.38h1.38l9.46-0.04h4.34l0.94-0.06h0.06
		l0.4-0.04h0.09l0.47-0.06c20.16-43.29,42-77.73,63.77-98.45c2.39-5.42,4.75-9.56,7.33-12.7c-1.51-2.55-3.16-4.69-5.01-6.24
		l-0.05-0.04l-0.31-0.15l-0.3-0.15l-0.29-0.14l-0.35-0.15L94.9,4.66l-0.57-0.24l-0.24-0.09l-0.43-0.17l-0.23-0.08l-0.59-0.2h-0.05
		L92.1,3.69l-0.15-0.05l-0.58-0.16l-0.13-0.04c-0.47-0.13-0.95-0.22-1.43-0.31l-0.15-0.04l-0.62-0.1l-0.12-0.04l-0.74-0.1h-0.13
		l-0.57-0.06l-0.9,0.08"/>
	
		<linearGradient id="SVGID_14_" gradientUnits="userSpaceOnUse" x1="599.9606" y1="-529.3565" x2="600.9431" y2="-529.3565" gradientTransform="matrix(0 -56.721 56.721 0 30266.3184 34086.2461)">
		<stop  offset="0" style="stop-color:#05A1E6"/>
		<stop  offset="0.874" style="stop-color:#0495D6"/>
		<stop  offset="1" style="stop-color:#0495D6"/>
	</linearGradient>
	<path class="st82" d="M233.27,32.29c-4.96,15.89-8.98,29-12.48,39.78c13.61-18.73,27.02-42.29,39.79-69.48
		C245.69,7.27,237.74,17.98,233.27,32.29"/>
	
		<linearGradient id="SVGID_15_" gradientUnits="userSpaceOnUse" x1="610.8018" y1="-515.7604" x2="611.7844" y2="-515.7604" gradientTransform="matrix(-23.063 130.795 -130.795 -23.063 -53105.1133 -91789.2812)">
		<stop  offset="0" style="stop-color:#38A7E4;stop-opacity:0.329"/>
		<stop  offset="0.962" style="stop-color:#0E88D3"/>
		<stop  offset="0.962" style="stop-color:#0E88D3"/>
		<stop  offset="1" style="stop-color:#0E88D3"/>
	</linearGradient>
	<path class="st84" d="M221.23,115.97c-0.69,0.35-1.39,0.69-2.07,0.99c26.47-11.81,58.06-58.64,73.17-116.95h-3.06
		C254.53,62.07,243.35,103.61,221.23,115.97"/>
	<path class="st87" d="M203.94,110.76c5.76-7.03,10.45-18.98,16.86-38.68c-7.39,10.15-14.83,18.88-22.27,25.99l-0.04,0.06
		c1.62,4.86,3.41,9.16,5.44,12.63"/>
	<path class="st70" d="M203.94,110.76c-1.96,2.39-4.04,4.21-6.35,5.57c-0.5,0.29-1.02,0.57-1.54,0.82c2.44,1.32,5.1,2.2,8.08,2.55
		l1.32,0.12h0.08l0.63,0.04h2.15l0.24-0.04l0.48-0.04h0.23l0.52-0.06h0.04l0.16-0.04l0.55-0.09h0.16l0.62-0.1h0.1l1.24-0.26
		c-3.42-1.25-6.28-4.2-8.74-8.4"/>
	<path class="st88" d="M155.13,119.85c2.47,0,4.98-0.24,7.49-0.73c2.33-0.42,4.66-1.07,6.99-1.88c1.94,0.95,3.98,1.65,6.13,2.09
		c1.67,0.34,3.41,0.52,5.23,0.52L155.13,119.85L155.13,119.85z"/>
	<path class="st88" d="M180.97,119.85c6.12,0,10.97-0.73,15.08-2.7c2.44,1.32,5.1,2.2,8.08,2.55l1.32,0.11h0.08l0.63,0.04h0.76
		H180.97z"/>
	<path class="st89" d="M206.93,119.85h1.41l0.24-0.04l0.48-0.04h0.23l0.51-0.06h0.04l0.16-0.04l0.55-0.08l0.17-0.04l0.62-0.1h0.1
		l1.24-0.26c1.2,0.44,2.44,0.67,3.79,0.67l-9.54,0.04C206.93,119.9,206.93,119.85,206.93,119.85z"/>
	<path class="st90" d="M198.5,98.13v-0.04c-2.73,2.61-5.45,5-8.16,7.16c-1.42,1.13-2.83,2.19-4.27,3.2c1.2,1.43,2.42,2.77,3.7,3.99
		c1.94,1.89,4.02,3.48,6.29,4.7c0.52-0.25,1.03-0.53,1.53-0.82c2.31-1.35,4.39-3.17,6.35-5.57c-2.03-3.47-3.81-7.76-5.43-12.63"/>
	
		<linearGradient id="SVGID_16_" gradientUnits="userSpaceOnUse" x1="610.3378" y1="-514.863" x2="611.3203" y2="-514.863" gradientTransform="matrix(0 123.742 -123.742 0 -63463.5898 -75524.6094)">
		<stop  offset="0" style="stop-color:#168CD4"/>
		<stop  offset="0.5" style="stop-color:#1C87CC"/>
		<stop  offset="1" style="stop-color:#154B8D"/>
	</linearGradient>
	<path class="st85" d="M279.56,0.01h-15.42l-2.44,0.12l-1.14,2.43c-12.77,27.19-26.17,50.75-39.78,69.49
		c-6.4,19.7-11.1,31.65-16.85,38.68c2.46,4.2,5.33,7.16,8.73,8.41l0.27-0.06h0.06l0.19-0.04l0.43-0.11l0.25-0.07l0.38-0.1l0.24-0.07
		l0.57-0.17l0.28-0.1l0.32-0.12l0.33-0.1l0.27-0.1l0.67-0.23l0.18-0.07l0.41-0.16l0.17-0.06l1.43-0.61h0.05
		c0.68-0.3,1.38-0.64,2.07-0.99c22.13-12.37,33.31-53.91,68.04-115.96h-9.7C279.55,0.02,279.56,0.01,279.56,0.01z"/>
	<path class="st92" d="M87.45,2.74l0.16,0.04l0.4,0.04h0.14l0.74,0.1l0.12,0.04l0.62,0.1l0.16,0.04l1.43,0.32l0.13,0.04l0.57,0.16
		l0.16,0.05l0.68,0.19l0.05,0.04l0.6,0.2l0.23,0.07l0.43,0.17l0.24,0.09l0.57,0.24l0.28,0.12l0.34,0.15l0.3,0.14l0.3,0.16
		c2.47,1.21,4.73,2.82,6.84,4.78c0.78-0.81,1.58-1.54,2.42-2.2c-4.59-3.26-9.8-5.11-15.8-5.11c-0.7,0-1.39,0.04-2.1,0.09"/>
	<path class="st93" d="M102.93,9.96c1.29,1.2,2.52,2.53,3.68,3.97c1.13-0.78,2.25-1.54,3.37-2.24c-1.47-1.47-3.02-2.79-4.63-3.93
		C104.51,8.42,103.7,9.15,102.93,9.96"/>
	<g transform="matrix(5.048 0 0 -5.048 -9064.26 2270.61)">
		
			<linearGradient id="SVGID_17_" gradientUnits="userSpaceOnUse" x1="2260.9353" y1="508.6943" x2="2261.918" y2="508.6943" gradientTransform="matrix(143.8831 -59.6775 -59.6775 -143.8831 -293140.8438 208570.3594)">
			<stop  offset="0" style="stop-color:#97D6EE"/>
			<stop  offset="0.703" style="stop-color:#55C1EA"/>
			<stop  offset="1" style="stop-color:#55C1EA"/>
		</linearGradient>
		<path class="st86" d="M1812.81,449.23l0.42,0.02c1.19,0,2.22-0.37,3.13-1.01c0.96,0.76,2.12,1.02,3.73,1.02h-7.81L1812.81,449.23"
			/>
	</g>
	<g transform="matrix(5.048 0 0 -5.048 -9064.26 2270.61)">
		
			<linearGradient id="SVGID_18_" gradientUnits="userSpaceOnUse" x1="2260.3254" y1="508.1521" x2="2261.3081" y2="508.1521" gradientTransform="matrix(113.6406 51.5148 51.5148 -113.6406 -281225.5312 -58246.168)">
			<stop  offset="0" style="stop-color:#7ACCEC"/>
			<stop  offset="1" style="stop-color:#3FB7ED"/>
		</linearGradient>
		<path class="st91" d="M1820.08,449.26c-1.61,0-2.77-0.26-3.73-1.02c0.32-0.22,0.62-0.49,0.92-0.78c1.34,0.85,2.66,1.41,3.97,1.66
			c0.5,0.09,1,0.14,1.48,0.14L1820.08,449.26L1820.08,449.26L1820.08,449.26z"/>
	</g>
	
		<linearGradient id="SVGID_19_" gradientUnits="userSpaceOnUse" x1="610.4078" y1="-514.7616" x2="611.3904" y2="-514.7616" gradientTransform="matrix(0 121.032 -121.032 0 -62072.5 -73872.4609)">
		<stop  offset="0" style="stop-color:#1DA7E7"/>
		<stop  offset="1" style="stop-color:#37ABE7;stop-opacity:0"/>
	</linearGradient>
	<path class="st94" d="M220.8,72.09c3.5-10.79,7.51-23.9,12.48-39.79c4.48-14.32,12.41-25.03,27.3-29.7l1.15-2.43
		c-24.28,1.45-35.62,13.8-41.33,32.09c-9.99,31.93-16.04,52.63-21.86,65.81C205.97,90.96,213.41,82.23,220.8,72.09"/>
</g>
</svg>
