<?xml version="1.0" encoding="utf-8"?>
<!-- Generator: Adobe Illustrator 24.3.0, SVG Export Plug-In . SVG Version: 6.00 Build 0)  -->
<svg version="1.1" id="Layer_1" xmlns="http://www.w3.org/2000/svg" xmlns:xlink="http://www.w3.org/1999/xlink" x="0px" y="0px"
	 width="86.5px" height="112px" viewBox="0 0 86.5 112" style="enable-background:new 0 0 86.5 112;" xml:space="preserve">
<style type="text/css">
	.st0{fill:#00B0FB;}
	.st1{fill:#00B0FB;fill-opacity:0.4;}
	.st2{fill:#FFFFFF;}
	.st3{fill:#185AE9;}
	.st4{fill-rule:evenodd;clip-rule:evenodd;fill:#00B0FB;}
	.st5{fill:none;}
	.st6{fill:#001135;}
	.st7{fill:#3C7CFF;}
	.st8{fill:#DBDBDB;}
	.st9{fill:#0A0A0A;}
	.st10{fill:#FEFDFE;}
	.st11{fill:#030302;}
	.st12{fill:#FCFCFC;}
	.st13{fill:#D2D3D3;}
	.st14{fill:#1F1F1F;}
	.st15{fill:#F6F6F6;}
	.st16{fill:#0E0D0E;}
	.st17{fill:#BABBBB;}
	.st18{fill:#8A8A8A;}
	.st19{fill:#8E8F8F;}
	.st20{fill:#464746;}
	.st21{fill:#5F5E5E;}
	.st22{fill:#0B0B0B;}
	.st23{fill:#090909;}
	.st24{fill:#151414;}
	.st25{fill:#101010;}
	.st26{fill:#282828;}
	.st27{fill-rule:evenodd;clip-rule:evenodd;}
</style>
<g>
	<path class="st2" d="M12.3,98.4h62c0.3,0,0.5-0.2,0.5-0.5v-1.8c0-3.3-2.7-6-6-6h-51c-3.3,0-6,2.7-6,6v1.8
		C11.8,98.2,12,98.4,12.3,98.4z"/>
	<path class="st6" d="M76,101.1H10.4c-4.3,0-7.8,3.5-7.8,7.8c0,0.3,0.2,0.5,0.5,0.5h80.2c0.3,0,0.5-0.2,0.5-0.5
		C83.8,104.6,80.3,101.1,76,101.1z"/>
	<path class="st7" d="M19.5,87.5h41.9c7.3,0,13.3-5.9,13.3-13.3V36c0-17.7-13.8-32.3-31.5-33.3c0,0,0,0,0,0c-0.1,0-0.3,0-0.3,0.1
		c-0.1,0.1-0.2,0.2-0.2,0.4v7.3c0,0.4-0.1,0.7-0.4,1L15.7,36.6c-3.9,3.5-4.1,9.5-0.6,13.4c1.8,2,4.3,3.1,7,3.1
		c0.6,0,1.2-0.1,1.9-0.2l19-3.6c0.1,0,0.2,0,0.2,0c0.1,0,0.1,0,0.2,0c5.3-0.2,9.4-4.4,9.4-9.6c0-0.7,0.6-1.3,1.3-1.3
		s1.3,0.6,1.3,1.3c0,6.1-4.5,11.3-10.5,12.1c-0.2,0-0.4,0.2-0.4,0.5v0.2c0,2.7-1.7,5.1-4.2,6C28.2,62.8,19.8,74,19,87
		c0,0.1,0,0.3,0.1,0.4C19.3,87.4,19.4,87.5,19.5,87.5z M48.4,10.9c-0.3-0.1-0.6-0.4-0.7-0.7c-0.1-0.3-0.2-0.7,0-1
		c0.2-0.5,0.7-0.9,1.2-0.9c0.1,0,0.2,0,0.3,0c12.3,3.4,21,14.8,21,27.6v38.3c0,0.7-0.6,1.3-1.3,1.3s-1.3-0.6-1.3-1.3V36
		C67.4,24.3,59.6,14,48.4,10.9z"/>
	<path class="st6" d="M77.8,98.6c-0.2,0-0.4-0.2-0.4-0.5v-2c0-3.8-2.5-7.2-6.2-8.3c-0.2-0.1-0.3-0.2-0.4-0.4c0-0.2,0-0.4,0.2-0.5
		c4-3,6.4-7.7,6.4-12.7V36c0-19.8-16.1-36-36-36c-0.7,0-1.3,0.6-1.3,1.3v8.3c0,0.1-0.1,0.3-0.2,0.4l-26,24.6
		c-2.4,2.2-3.7,5.4-3.8,8.6c0,0.8,0.1,1.6,0.2,2.4c1.1,5.7,6.1,9.9,11.9,9.9c0.7,0,1.5-0.1,2.2-0.2l16.9-3.1c0,0,0.1,0,0.1,0
		c0.1,0,0.2,0,0.3,0.1c0.1,0.1,0.2,0.3,0.2,0.4c-0.1,1.5-1.1,2.7-2.5,3.2c-13.3,4.8-22.3,17.1-23,31.2c0,0.2-0.2,0.4-0.4,0.5
		c-4,0.8-6.9,4.3-6.9,8.4v2c0,0.2-0.2,0.5-0.4,0.5c-5,0.8-8.7,5.2-8.7,10.3v1.8c0,0.7,0.6,1.3,1.3,1.3h83.8c0.7,0,1.3-0.6,1.3-1.3
		v-1.8C86.5,103.7,82.8,99.4,77.8,98.6z M40.4,58.4c2.5-0.9,4.2-3.3,4.2-6v-0.2c0-0.2,0.2-0.5,0.4-0.5c6-0.9,10.5-6.1,10.5-12.1
		c0-0.7-0.6-1.3-1.3-1.3s-1.3,0.6-1.3,1.3c0,5.2-4.1,9.4-9.4,9.6c-0.1,0-0.1,0-0.2,0c-0.1,0-0.2,0-0.2,0l-19,3.6
		C23.4,53,22.7,53,22.1,53c-2.7,0-5.2-1.1-7-3.1c-3.5-3.9-3.2-9.9,0.6-13.4l26.6-25.2c0.3-0.2,0.4-0.6,0.4-1V3.1
		c0-0.1,0.1-0.3,0.2-0.4c0.1-0.1,0.2-0.1,0.3-0.1c0,0,0,0,0,0c17.7,1,31.5,15.6,31.5,33.3v38.3c0,7.3-5.9,13.3-13.3,13.3H19.5
		c-0.1,0-0.3-0.1-0.4-0.2C19.1,87.2,19,87.1,19,87C19.8,74,28.2,62.8,40.4,58.4z M11.8,96.1c0-3.3,2.7-6,6-6h51c3.3,0,6,2.7,6,6v1.8
		c0,0.3-0.2,0.5-0.5,0.5h-62c-0.3,0-0.5-0.2-0.5-0.5V96.1z M83.3,109.4H3.1c-0.3,0-0.5-0.2-0.5-0.5c0-4.3,3.5-7.8,7.8-7.8H76
		c4.3,0,7.8,3.5,7.8,7.8C83.8,109.1,83.6,109.4,83.3,109.4z"/>
	<path class="st2" d="M67.4,36v38.3c0,0.7,0.6,1.3,1.3,1.3s1.3-0.6,1.3-1.3V36c0-12.8-8.6-24.2-21-27.6c-0.1,0-0.2,0-0.3,0
		c-0.6,0-1.1,0.3-1.2,0.9c-0.1,0.3-0.1,0.7,0,1c0.1,0.3,0.4,0.6,0.7,0.7C59.6,14,67.4,24.3,67.4,36z"/>
</g>
</svg>
