<?xml version="1.0" encoding="utf-8"?>
<!-- Generator: Adobe Illustrator 24.3.0, SVG Export Plug-In . SVG Version: 6.00 Build 0)  -->
<svg version="1.1" id="Layer_1" xmlns="http://www.w3.org/2000/svg" xmlns:xlink="http://www.w3.org/1999/xlink" x="0px" y="0px"
	 width="110.9px" height="111px" viewBox="0 0 110.9 111" style="enable-background:new 0 0 110.9 111;" xml:space="preserve">
<style type="text/css">
	.st0{fill:#00B0FB;}
	.st1{fill:#00B0FB;fill-opacity:0.4;}
	.st2{fill:#FFFFFF;}
	.st3{fill:#185AE9;}
	.st4{fill-rule:evenodd;clip-rule:evenodd;fill:#00B0FB;}
	.st5{fill:none;}
	.st6{fill:#001135;}
	.st7{fill:#3C7CFF;}
	.st8{fill:#DBDBDB;}
	.st9{fill:#0A0A0A;}
	.st10{fill:#FEFDFE;}
	.st11{fill:#030302;}
	.st12{fill:#FCFCFC;}
	.st13{fill:#D2D3D3;}
	.st14{fill:#1F1F1F;}
	.st15{fill:#F6F6F6;}
	.st16{fill:#0E0D0E;}
	.st17{fill:#BABBBB;}
	.st18{fill:#8A8A8A;}
	.st19{fill:#8E8F8F;}
	.st20{fill:#464746;}
	.st21{fill:#5F5E5E;}
	.st22{fill:#0B0B0B;}
	.st23{fill:#090909;}
	.st24{fill:#151414;}
	.st25{fill:#101010;}
	.st26{fill:#282828;}
	.st27{fill-rule:evenodd;clip-rule:evenodd;}
</style>
<g>
	<circle class="st2" cx="55.5" cy="47.1" r="8.2"/>
	<path class="st2" d="M76.6,73.5c-3-3-6.6-5.3-10.7-6.8c-0.1,0-0.2-0.1-0.3-0.1c-0.3,0-0.5,0.1-0.7,0.3l-8.3,8.2
		c-0.3,0.3-0.7,0.4-1.1,0.4c-0.4,0-0.8-0.2-1.1-0.4L46.1,67c-0.2-0.2-0.4-0.3-0.7-0.3c-0.1,0-0.2,0-0.3,0.1c-4,1.4-7.7,3.8-10.7,6.8
		c-0.6,0.6-1.1,1.1-1.6,1.6c-0.4,0.4-0.4,1,0,1.4c5.8,6.3,14.1,9.9,22.7,9.9c8.6,0,16.8-3.6,22.7-9.9c0.4-0.4,0.4-1,0-1.4
		C77.7,74.6,77.2,74.1,76.6,73.5z"/>
	<path class="st6" d="M107,47.7h-9.1c-0.7,0-1.3-0.5-1.5-1.2c-1-4.8-2.9-9.3-5.6-13.5c-0.4-0.6-0.3-1.4,0.2-1.9l6.4-6.4
		c0.2-0.2,0.3-0.4,0.3-0.7c0-0.3-0.1-0.5-0.3-0.7l-9.7-9.6c-0.2-0.2-0.4-0.3-0.7-0.3c-0.3,0-0.5,0.1-0.7,0.3L79.9,20
		c-0.3,0.3-0.7,0.4-1.1,0.4c-0.3,0-0.6-0.1-0.8-0.2c-4.1-2.7-8.7-4.5-13.5-5.6c-0.7-0.2-1.2-0.8-1.2-1.5V4.1c0-0.6-0.4-1-1-1H48.7
		c-0.6,0-1,0.4-1,1v9.1c0,0.7-0.5,1.3-1.2,1.5c-4.8,1-9.3,2.9-13.5,5.6c-0.2,0.2-0.5,0.2-0.8,0.2c-0.4,0-0.8-0.2-1.1-0.4l-6.4-6.4
		c-0.2-0.2-0.4-0.3-0.7-0.3c-0.3,0-0.5,0.1-0.7,0.3l-9.7,9.6c-0.2,0.2-0.3,0.4-0.3,0.7c0,0.3,0.1,0.5,0.3,0.7l6.4,6.4
		c0.5,0.5,0.6,1.3,0.2,1.9c-2.6,4.1-4.5,8.7-5.6,13.5c-0.2,0.7-0.8,1.2-1.5,1.2H4.1c-0.6,0-1,0.4-1,1v13.7c0,0.6,0.4,1,1,1h9.1
		c0.7,0,1.3,0.5,1.5,1.2c1,4.8,2.9,9.3,5.6,13.5c0.4,0.6,0.3,1.4-0.2,1.9l-6.4,6.4c-0.2,0.2-0.3,0.4-0.3,0.7c0,0.3,0.1,0.5,0.3,0.7
		l9.7,9.6c0.2,0.2,0.4,0.3,0.7,0.3c0.3,0,0.5-0.1,0.7-0.3l6.4-6.4c0.3-0.3,0.7-0.4,1.1-0.4c0.3,0,0.6,0.1,0.8,0.2
		c4.1,2.6,8.7,4.5,13.5,5.6c0.7,0.2,1.2,0.8,1.2,1.5v9.1c0,0.6,0.4,1,1,1h13.6c0.6,0,1-0.4,1-1v-9.1c0-0.7,0.5-1.3,1.2-1.5
		c4.8-1,9.3-2.9,13.5-5.6c0.2-0.2,0.5-0.2,0.8-0.2c0.4,0,0.8,0.2,1.1,0.4l6.4,6.4c0.2,0.2,0.4,0.3,0.7,0.3c0.3,0,0.5-0.1,0.7-0.3
		l9.7-9.6c0.2-0.2,0.3-0.4,0.3-0.7c0-0.3-0.1-0.5-0.3-0.7L91,79.9c-0.5-0.5-0.6-1.3-0.2-1.9c2.6-4.1,4.5-8.7,5.6-13.5
		c0.2-0.7,0.8-1.2,1.5-1.2h9.1c0.6,0,1-0.4,1-1V48.7C108,48.1,107.5,47.7,107,47.7z M82.2,76.6c-0.1,0.1-0.2,0.2-0.2,0.3
		c-6.6,8-16.2,12.6-26.4,12.6c-10.3,0-19.9-4.6-26.4-12.6c-0.1-0.1-0.2-0.2-0.2-0.3c-4.9-6.1-7.4-13.4-7.4-21.2
		c0-18.8,15.3-34,34-34s34,15.3,34,34C89.5,63.2,87,70.5,82.2,76.6z"/>
	<path class="st7" d="M55.5,24.6c-17.1,0-30.9,13.9-30.9,30.9c0,6,1.7,11.8,5,16.9c0.2,0.3,0.4,0.4,0.7,0.4c0,0,0,0,0,0
		c0.4,0,0.6-0.1,0.8-0.3c0.4-0.4,0.7-0.8,1.2-1.2c3.7-3.7,8.4-6.5,13.4-8c0.2,0,0.3-0.1,0.5-0.1c0.4,0,0.8,0.2,1.1,0.4l7.6,7.6
		c0.2,0.2,0.4,0.3,0.7,0.3c0.3,0,0.5-0.1,0.7-0.3l7.6-7.5c0.3-0.3,0.7-0.4,1.1-0.4c0.2,0,0.3,0,0.5,0.1c5,1.6,9.6,4.3,13.4,8
		c0.4,0.4,0.8,0.8,1.1,1.2c0.2,0.2,0.4,0.3,0.7,0.3c0.4,0,0.7-0.2,0.8-0.5c3.3-5,5-10.9,5-16.9C86.4,38.4,72.6,24.6,55.5,24.6z
		 M55.5,58.4c-6.2,0-11.3-5.1-11.3-11.3s5.1-11.3,11.3-11.3s11.3,5.1,11.3,11.3S61.7,58.4,55.5,58.4z"/>
	<path class="st6" d="M109.4,44.6h-9.6c-0.5,0-0.8-0.3-1-0.7c-1-3.8-2.5-7.4-4.5-10.8c-0.2-0.4-0.2-0.9,0.2-1.2l6.8-6.8
		c0.3-0.3,0.5-0.7,0.5-1.1c0-0.4-0.2-0.8-0.5-1.1L88.1,9.6c-0.3-0.3-0.6-0.4-1.1-0.4c-0.4,0-0.8,0.2-1.1,0.4l-6.8,6.8
		c-0.2,0.2-0.4,0.3-0.7,0.3c-0.2,0-0.4,0-0.5-0.1c-3.3-1.9-7-3.5-10.8-4.5c-0.4-0.1-0.7-0.5-0.7-1V1.5c0-0.8-0.7-1.5-1.5-1.5H46.1
		c-0.8,0-1.5,0.7-1.5,1.5v9.7c0,0.5-0.3,0.8-0.7,1c-3.8,1-7.4,2.5-10.8,4.5c-0.2,0.1-0.3,0.1-0.5,0.1c-0.3,0-0.5-0.1-0.7-0.3L25,9.7
		c-0.3-0.3-0.7-0.5-1.1-0.5c-0.4,0-0.8,0.2-1.1,0.5L9.6,22.9c-0.3,0.3-0.5,0.7-0.5,1.1c0,0.4,0.2,0.8,0.4,1.1l6.8,6.8
		c0.3,0.3,0.4,0.8,0.2,1.2c-1.9,3.3-3.5,7-4.5,10.8c-0.1,0.4-0.5,0.7-1,0.7H1.5c-0.8,0-1.5,0.7-1.5,1.5v18.7c0,0.8,0.7,1.5,1.5,1.5
		h9.7c0.5,0,0.8,0.3,1,0.7c1,3.8,2.5,7.4,4.5,10.8c0.2,0.4,0.2,0.9-0.2,1.2L9.7,86c-0.3,0.3-0.5,0.7-0.5,1.1c0,0.4,0.2,0.8,0.5,1.1
		l13.2,13.2c0.3,0.3,0.7,0.4,1.1,0.4c0.4,0,0.8-0.2,1.1-0.5l6.8-6.8c0.2-0.2,0.4-0.3,0.7-0.3c0.2,0,0.3,0,0.5,0.1
		c3.4,2,7,3.5,10.8,4.5c0.4,0.1,0.7,0.5,0.7,1v9.6c0,0.8,0.7,1.5,1.5,1.5h18.7c0.4,0,0.8-0.2,1.1-0.5c0.3-0.3,0.4-0.6,0.4-1.1v-9.6
		c0-0.5,0.3-0.8,0.7-1c3.8-1,7.4-2.5,10.8-4.5c0.2-0.1,0.3-0.1,0.5-0.1c0.3,0,0.5,0.1,0.7,0.3l6.8,6.8c0.3,0.3,0.7,0.4,1.1,0.4
		c0.4,0,0.8-0.2,1.1-0.5l13.2-13.2c0.3-0.3,0.5-0.7,0.5-1.1c0-0.4-0.2-0.8-0.5-1.1l-6.8-6.8c-0.3-0.3-0.4-0.8-0.2-1.2
		c1.9-3.3,3.5-7,4.5-10.8c0.1-0.4,0.5-0.7,1-0.7h9.6c0.8,0,1.5-0.7,1.5-1.5V46.1C110.9,45.3,110.3,44.6,109.4,44.6z M108,62.3
		c0,0.6-0.4,1-1,1h-9.1c-0.7,0-1.3,0.5-1.5,1.2c-1.1,4.8-3,9.3-5.6,13.5c-0.4,0.6-0.3,1.4,0.2,1.9l6.4,6.4c0.2,0.2,0.3,0.4,0.3,0.7
		c0,0.3-0.1,0.5-0.3,0.7l-9.7,9.6c-0.2,0.2-0.4,0.3-0.7,0.3c-0.3,0-0.5-0.1-0.7-0.3L79.9,91c-0.3-0.3-0.7-0.4-1.1-0.4
		c-0.3,0-0.6,0.1-0.8,0.2c-4.2,2.7-8.7,4.6-13.5,5.6c-0.7,0.2-1.2,0.8-1.2,1.5v9.1c0,0.6-0.4,1-1,1H48.7c-0.6,0-1-0.4-1-1v-9.1
		c0-0.7-0.5-1.3-1.2-1.5c-4.8-1.1-9.3-3-13.5-5.6c-0.2-0.2-0.5-0.2-0.8-0.2c-0.4,0-0.8,0.2-1.1,0.4l-6.4,6.4
		c-0.2,0.2-0.4,0.3-0.7,0.3c-0.3,0-0.5-0.1-0.7-0.3l-9.7-9.6c-0.2-0.2-0.3-0.4-0.3-0.7c0-0.3,0.1-0.5,0.3-0.7l6.4-6.4
		c0.5-0.5,0.6-1.3,0.2-1.9c-2.7-4.2-4.6-8.7-5.6-13.5c-0.2-0.7-0.8-1.2-1.5-1.2H4.1c-0.6,0-1-0.4-1-1V48.7c0-0.6,0.4-1,1-1h9.1
		c0.7,0,1.3-0.5,1.5-1.2c1.1-4.8,2.9-9.3,5.6-13.5c0.4-0.6,0.3-1.4-0.2-1.9l-6.4-6.4c-0.2-0.2-0.3-0.4-0.3-0.7
		c0-0.3,0.1-0.5,0.3-0.7l9.7-9.6c0.2-0.2,0.4-0.3,0.7-0.3c0.3,0,0.5,0.1,0.7,0.3l6.4,6.4c0.3,0.3,0.7,0.4,1.1,0.4
		c0.3,0,0.6-0.1,0.8-0.2c4.2-2.7,8.7-4.6,13.5-5.6c0.7-0.2,1.2-0.8,1.2-1.5V4.1c0-0.6,0.4-1,1-1h13.7c0.6,0,1,0.4,1,1v9.1
		c0,0.7,0.5,1.3,1.2,1.5c4.8,1.1,9.3,2.9,13.5,5.6c0.2,0.2,0.5,0.2,0.8,0.2c0.4,0,0.8-0.2,1.1-0.4l6.4-6.4c0.2-0.2,0.4-0.3,0.7-0.3
		c0.3,0,0.5,0.1,0.7,0.3l9.7,9.6c0.2,0.2,0.3,0.4,0.3,0.7c0,0.3-0.1,0.5-0.3,0.7L91,31.1c-0.5,0.5-0.6,1.3-0.2,1.9
		c2.7,4.2,4.6,8.7,5.6,13.5c0.2,0.7,0.8,1.2,1.5,1.2h9.1c0.6,0,1,0.4,1,1V62.3z"/>
	<path class="st6" d="M55.5,35.8c-6.2,0-11.3,5.1-11.3,11.3s5.1,11.3,11.3,11.3s11.3-5.1,11.3-11.3S61.7,35.8,55.5,35.8z M55.5,55.3
		c-4.5,0-8.2-3.7-8.2-8.2s3.7-8.2,8.2-8.2s8.2,3.7,8.2,8.2S60,55.3,55.5,55.3z"/>
	<path class="st6" d="M55.5,21.5c-18.8,0-34,15.3-34,34c0,7.7,2.6,15.1,7.4,21.2c0.1,0.1,0.1,0.2,0.2,0.3c6.5,8,16.1,12.6,26.4,12.6
		c10.3,0,19.9-4.6,26.4-12.6c0.1-0.1,0.1-0.1,0.2-0.3c4.8-6.1,7.3-13.3,7.3-21.1C89.5,36.8,74.2,21.5,55.5,21.5z M78.2,76.5
		c-5.8,6.3-14.1,9.9-22.7,9.9c-8.6,0-16.8-3.6-22.7-9.9c-0.4-0.4-0.4-1,0-1.4c0.5-0.5,1-1.1,1.6-1.6c3-3,6.7-5.4,10.7-6.8
		c0.1,0,0.2-0.1,0.3-0.1c0.3,0,0.5,0.1,0.7,0.3l8.3,8.2c0.3,0.3,0.7,0.4,1.1,0.4c0.4,0,0.8-0.2,1.1-0.4l8.3-8.2
		c0.2-0.2,0.4-0.3,0.7-0.3c0.1,0,0.2,0,0.3,0.1c4,1.5,7.6,3.8,10.7,6.8c0.6,0.6,1.1,1.1,1.6,1.6C78.5,75.5,78.6,76.1,78.2,76.5z
		 M81.4,72.4c-0.2,0.3-0.4,0.4-0.8,0.5c-0.3,0-0.5-0.1-0.7-0.3c-0.4-0.4-0.7-0.8-1.1-1.2c-3.7-3.7-8.4-6.5-13.4-8
		c-0.1,0-0.3-0.1-0.5-0.1c-0.4,0-0.8,0.2-1.1,0.4l-7.6,7.5c-0.2,0.2-0.4,0.3-0.7,0.3c-0.3,0-0.5-0.1-0.7-0.3l-7.6-7.6
		c-0.3-0.3-0.7-0.4-1.1-0.4c-0.2,0-0.3,0-0.5,0.1c-5,1.5-9.7,4.3-13.4,8c-0.4,0.4-0.8,0.8-1.2,1.2c-0.2,0.2-0.4,0.3-0.8,0.3
		c0,0,0,0,0,0c-0.3,0-0.6-0.2-0.7-0.4c-3.3-5-5-10.9-5-16.9c0-17.1,13.9-30.9,30.9-30.9s30.9,13.9,30.9,30.9
		C86.4,61.5,84.7,67.3,81.4,72.4z"/>
</g>
</svg>
