<?xml version="1.0" encoding="utf-8"?>
<!-- Generator: Adobe Illustrator 24.3.0, SVG Export Plug-In . SVG Version: 6.00 Build 0)  -->
<svg version="1.1" id="Layer_1" xmlns="http://www.w3.org/2000/svg" xmlns:xlink="http://www.w3.org/1999/xlink" x="0px" y="0px"
	 width="103px" height="112px" viewBox="0 0 103 112" style="enable-background:new 0 0 103 112;" xml:space="preserve">
<style type="text/css">
	.st0{fill:#00B0FB;}
	.st1{fill:#00B0FB;fill-opacity:0.4;}
	.st2{fill:#FFFFFF;}
	.st3{fill:#185AE9;}
	.st4{fill-rule:evenodd;clip-rule:evenodd;fill:#00B0FB;}
	.st5{fill:none;}
	.st6{fill:#001135;}
	.st7{fill:#3C7CFF;}
	.st8{fill:#DBDBDB;}
	.st9{fill:#0A0A0A;}
	.st10{fill:#FEFDFE;}
	.st11{fill:#030302;}
	.st12{fill:#FCFCFC;}
	.st13{fill:#D2D3D3;}
	.st14{fill:#1F1F1F;}
	.st15{fill:#F6F6F6;}
	.st16{fill:#0E0D0E;}
	.st17{fill:#BABBBB;}
	.st18{fill:#8A8A8A;}
	.st19{fill:#8E8F8F;}
	.st20{fill:#464746;}
	.st21{fill:#5F5E5E;}
	.st22{fill:#0B0B0B;}
	.st23{fill:#090909;}
	.st24{fill:#151414;}
	.st25{fill:#101010;}
	.st26{fill:#282828;}
	.st27{fill-rule:evenodd;clip-rule:evenodd;}
</style>
<g>
	<path class="st2" d="M43.5,23.3c0.3,0.3,0.5,0.8,0.4,1.2L41.8,34c0,0.2,0,0.4,0.2,0.5c0.1,0.1,0.2,0.1,0.3,0.1c0.1,0,0.2,0,0.3-0.1
		l8.3-4.9c0.2-0.1,0.4-0.2,0.6-0.2s0.4,0.1,0.6,0.2l8.3,4.9c0.1,0,0.2,0.1,0.3,0.1c0.1,0,0.2,0,0.3-0.1c0.2-0.1,0.2-0.3,0.2-0.5
		l-2.1-9.4c-0.1-0.5,0.1-0.9,0.4-1.2l7.3-6.4c0.1-0.1,0.2-0.3,0.1-0.5s-0.2-0.3-0.4-0.3l-9.6-0.9c-0.5,0-0.9-0.3-1-0.8L52,5.5
		c-0.1-0.2-0.3-0.3-0.5-0.3S51.1,5.3,51,5.5l-3.8,8.9c-0.2,0.4-0.6,0.7-1,0.8l-9.6,0.9c-0.2,0-0.4,0.2-0.4,0.3s0,0.4,0.1,0.5
		L43.5,23.3z"/>
	<path class="st2" d="M10,32.4l-1.3,5.8c0,0.2,0,0.4,0.2,0.5c0.1,0.1,0.2,0.1,0.3,0.1c0.1,0,0.2,0,0.3-0.1l5.1-3
		c0.2-0.1,0.4-0.2,0.6-0.2s0.4,0.1,0.6,0.2l5.1,3c0.1,0,0.2,0.1,0.3,0.1c0.1,0,0.2,0,0.3-0.1c0.2-0.1,0.2-0.3,0.2-0.5l-1.3-5.8
		c-0.1-0.5,0.1-0.9,0.4-1.2l4.4-3.9c0.1-0.1,0.2-0.3,0.1-0.5c-0.1-0.2-0.2-0.3-0.4-0.3L19,25.8c-0.5,0-0.9-0.3-1-0.8l-2.3-5.4
		c-0.1-0.2-0.3-0.3-0.5-0.3s-0.4,0.1-0.5,0.3l-2.3,5.4c-0.2,0.4-0.6,0.7-1,0.8l-5.9,0.6c-0.2,0-0.4,0.2-0.4,0.3s0,0.4,0.1,0.5
		l4.4,3.9C10,31.5,10.1,32,10,32.4z"/>
	<path class="st6" d="M25.2,67.9H6.7c0,0,0,0,0,0c-0.3,0-0.6,0.3-0.6,0.6l0,37c0,0.4,0.3,0.6,0.6,0.7h18.6c0.4,0,0.6-0.3,0.7-0.6
		l0-37C25.8,68.2,25.6,67.9,25.2,67.9z M18.9,74.4c0,0.7-0.6,1.3-1.3,1.3s-1.3-0.6-1.3-1.3v-0.2c0-0.7,0.6-1.3,1.3-1.3
		s1.3,0.6,1.3,1.3V74.4z"/>
	<path class="st7" d="M81.1,67.4h-25c-0.2,0-0.4,0-0.6-0.1c-0.3-0.2-0.5-0.4-0.6-0.7c-0.1-0.3-0.1-0.7,0.1-1
		c3.8-7.2,4.2-15.6,1.2-23.2c-0.4-0.7-0.9-1.2-1.5-1.5c-0.6-0.3-1.2-0.5-1.9-0.5c-1.4,0-2.7,0.8-3.4,2c0,0.1-0.1,0.1-0.1,0.2
		l-0.5,7.2c0,0,0,0.1,0,0.1c-0.9,5.2-3.7,9.8-7.9,13c-0.2,0.1-0.3,0.2-0.5,0.2c-0.8,0.2-3.3,1.8-11.5,9.8l-0.3,0.3
		c-0.1,0.1-0.2,0.2-0.2,0.4v28.1c0,0.2,0.2,0.4,0.4,0.5c6.1,1.3,9.3,2.8,13,6.2c0.6,0.6,1.5,1,2.4,1l28.8,0c1.9,0,3.5-1.2,4.1-2.9
		c0.4-1.1,0.3-2.3-0.2-3.3s-1.4-1.8-2.5-2.2l-0.1,0c-0.4-0.1-0.8-0.2-1.3-0.2c-0.7,0-1.3-0.6-1.3-1.3s0.6-1.3,1.3-1.3
		c0.6,0,1.2,0.1,1.8,0.2c0,0,0.1,0,0.1,0c0,0,0,0,0,0c2.4-0.2,4.6-2.4,4.6-4.6c0-1.8-1-3.3-2.7-4L76.7,90c-0.5-0.2-1-0.3-1.5-0.3
		c-0.7,0-1.3-0.6-1.3-1.3s0.6-1.3,1.3-1.3c0.7,0,1.5,0.1,2.1,0.3c0.1,0,0.1,0,0.2,0c0,0,0,0,0,0c2.3-0.2,4.4-2.5,4.4-4.7
		c0-2.4-1.9-4.3-4.3-4.3H75c-0.7,0-1.3-0.6-1.3-1.3S74.3,76,75,76h6.1c2.3,0,4.3-1.9,4.3-4.3c0-1.2-0.4-2.2-1.2-3.1
		C83.4,67.8,82.3,67.4,81.1,67.4z"/>
	<path class="st2" d="M97.6,26.4l-5.9-0.6c-0.5,0-0.9-0.3-1-0.8l-2.3-5.4c-0.1-0.2-0.3-0.3-0.5-0.3c-0.2,0-0.4,0.1-0.5,0.3L85,25.1
		c-0.2,0.4-0.6,0.7-1,0.8l-5.9,0.6c-0.2,0-0.4,0.2-0.4,0.3s0,0.4,0.1,0.5l4.4,3.9c0.3,0.3,0.5,0.8,0.4,1.2l-1.3,5.8
		c0,0.2,0,0.4,0.2,0.5c0.1,0.1,0.2,0.1,0.3,0.1c0.1,0,0.2,0,0.3-0.1l5.1-3c0.2-0.1,0.4-0.2,0.6-0.2s0.4,0.1,0.6,0.2l5.1,3
		c0.1,0,0.2,0.1,0.3,0.1c0.1,0,0.2,0,0.3-0.1c0.2-0.1,0.2-0.3,0.2-0.5L93,32.4c-0.1-0.5,0.1-0.9,0.4-1.2l4.4-3.9
		c0.1-0.1,0.2-0.3,0.1-0.5S97.8,26.4,97.6,26.4z"/>
	<path class="st6" d="M41.1,24.5c0.1,0.1,0.2,0.3,0.2,0.5l-2.8,12.4c-0.1,0.3,0,0.7,0.2,1c0.2,0.3,0.5,0.5,0.8,0.6
		c0.1,0,0.2,0,0.3,0c0.2,0,0.4-0.1,0.6-0.2l10.9-6.5c0.1,0,0.2-0.1,0.3-0.1s0.2,0,0.3,0.1l10.9,6.5c0.2,0.1,0.4,0.2,0.6,0.2
		c0.4,0,0.9-0.2,1.1-0.6c0.2-0.3,0.2-0.6,0.1-0.9L61.8,25c0-0.2,0-0.4,0.2-0.5l9.5-8.4c0.4-0.3,0.5-0.9,0.4-1.3
		c-0.2-0.5-0.6-0.8-1.1-0.9l-12.7-1.2c-0.2,0-0.3-0.1-0.4-0.3l-5-11.7C52.5,0.3,52,0,51.5,0c-0.2,0-0.3,0-0.5,0.1
		c-0.3,0.1-0.5,0.4-0.7,0.7l-5,11.7c-0.1,0.2-0.2,0.3-0.4,0.3l-12.7,1.2c-0.7,0.1-1.2,0.7-1.1,1.4c0,0.3,0.2,0.6,0.4,0.8L41.1,24.5z
		 M36.1,16.4c0.1-0.2,0.2-0.3,0.4-0.3l9.6-0.9c0.5,0,0.9-0.3,1-0.8L51,5.5c0.1-0.2,0.3-0.3,0.5-0.3s0.4,0.1,0.5,0.3l3.8,8.9
		c0.2,0.4,0.6,0.7,1,0.8l9.6,0.9c0.2,0,0.4,0.2,0.4,0.3s0,0.4-0.1,0.5l-7.3,6.4c-0.3,0.3-0.5,0.8-0.4,1.2l2.1,9.4
		c0,0.2,0,0.4-0.2,0.5c-0.1,0.1-0.2,0.1-0.3,0.1c-0.1,0-0.2,0-0.3-0.1l-8.3-4.9c-0.2-0.1-0.4-0.2-0.6-0.2s-0.4,0.1-0.6,0.2l-8.3,4.9
		c-0.1,0-0.2,0.1-0.3,0.1c-0.1,0-0.2,0-0.3-0.1c-0.2-0.1-0.2-0.3-0.2-0.5l2.1-9.4c0.1-0.5-0.1-0.9-0.4-1.2l-7.3-6.4
		C36.1,16.8,36,16.6,36.1,16.4z"/>
	<path class="st6" d="M101.9,24.3l-8.9-0.8c-0.2,0-0.3-0.1-0.4-0.3L89,14.9c-0.2-0.5-0.7-0.8-1.2-0.8c-0.2,0-0.3,0-0.5,0.1
		c-0.3,0.1-0.5,0.4-0.7,0.7l-3.6,8.2c-0.1,0.2-0.2,0.3-0.4,0.3l-8.9,0.8c-0.7,0.1-1.2,0.7-1.1,1.4c0,0.3,0.2,0.6,0.4,0.8l6.7,5.9
		c0.1,0.1,0.2,0.3,0.2,0.5l-2,8.7c-0.2,0.7,0.3,1.4,1,1.5c0.1,0,0.2,0,0.3,0c0.2,0,0.4-0.1,0.6-0.2l7.7-4.6c0.1,0,0.2-0.1,0.3-0.1
		s0.2,0,0.3,0.1l7.7,4.6c0.2,0.1,0.4,0.2,0.6,0.2c0.4,0,0.9-0.2,1.1-0.6c0.2-0.3,0.2-0.6,0.1-0.9l-2-8.7c0-0.2,0-0.4,0.2-0.5
		l6.7-5.9c0.4-0.3,0.5-0.9,0.4-1.3C102.8,24.7,102.4,24.3,101.9,24.3z M97.8,27.3l-4.4,3.9c-0.3,0.3-0.5,0.8-0.4,1.2l1.3,5.8
		c0,0.2,0,0.4-0.2,0.5c-0.1,0.1-0.2,0.1-0.3,0.1c-0.1,0-0.2,0-0.3-0.1l-5.1-3c-0.2-0.1-0.4-0.2-0.6-0.2s-0.4,0.1-0.6,0.2l-5.1,3
		c-0.1,0-0.2,0.1-0.3,0.1c-0.1,0-0.2,0-0.3-0.1c-0.2-0.1-0.2-0.3-0.2-0.5l1.3-5.8c0.1-0.5-0.1-0.9-0.4-1.2l-4.4-3.9
		c-0.1-0.1-0.2-0.3-0.1-0.5s0.2-0.3,0.4-0.3l5.9-0.6c0.5,0,0.9-0.3,1-0.8l2.3-5.4c0.1-0.2,0.3-0.3,0.5-0.3c0.2,0,0.4,0.1,0.5,0.3
		l2.3,5.4c0.2,0.4,0.6,0.7,1,0.8l5.9,0.6c0.2,0,0.4,0.2,0.4,0.3S98,27.1,97.8,27.3z"/>
	<path class="st6" d="M7.3,32.9l-2,8.7c-0.2,0.7,0.3,1.4,1,1.5c0.1,0,0.2,0,0.3,0c0.2,0,0.4-0.1,0.6-0.2l7.7-4.6
		c0.1,0,0.2-0.1,0.3-0.1s0.2,0,0.3,0.1l7.7,4.6c0.2,0.1,0.4,0.2,0.6,0.2c0.4,0,0.9-0.2,1.1-0.6c0.2-0.3,0.2-0.6,0.1-0.9l-2-8.7
		c0-0.2,0-0.4,0.2-0.5l6.7-5.9c0.3-0.2,0.4-0.5,0.4-0.9c0-0.3-0.1-0.7-0.3-0.9c-0.2-0.2-0.5-0.4-0.8-0.4c0,0-8.9-0.8-8.9-0.8
		c-0.2,0-0.3-0.1-0.4-0.3l-3.6-8.2c-0.2-0.5-0.7-0.8-1.2-0.8c-0.2,0-0.3,0-0.5,0.1c-0.3,0.1-0.5,0.4-0.7,0.7l-3.6,8.2
		c-0.1,0.2-0.2,0.3-0.4,0.3l-8.9,0.8C0.5,24.3-0.1,25,0,25.6c0,0.3,0.2,0.6,0.4,0.8l6.7,5.9C7.3,32.5,7.3,32.7,7.3,32.9z M5,26.7
		c0.1-0.2,0.2-0.3,0.4-0.3l5.9-0.6c0.5,0,0.9-0.3,1-0.8l2.3-5.4c0.1-0.2,0.3-0.3,0.5-0.3s0.4,0.1,0.5,0.3l2.3,5.4
		c0.2,0.4,0.6,0.7,1,0.8l5.9,0.6c0.2,0,0.4,0.2,0.4,0.3c0.1,0.2,0,0.4-0.1,0.5l-4.4,3.9c-0.3,0.3-0.5,0.8-0.4,1.2l1.3,5.8
		c0,0.2,0,0.4-0.2,0.5c-0.1,0.1-0.2,0.1-0.3,0.1c-0.1,0-0.2,0-0.3-0.1l-5.1-3c-0.2-0.1-0.4-0.2-0.6-0.2s-0.4,0.1-0.6,0.2l-5.1,3
		c-0.1,0-0.2,0.1-0.3,0.1c-0.1,0-0.2,0-0.3-0.1c-0.2-0.1-0.2-0.3-0.2-0.5l1.3-5.8c0.1-0.5-0.1-0.9-0.4-1.2l-4.4-3.9
		C5,27.1,5,26.9,5,26.7z"/>
	<path class="st6" d="M81.1,64.8H58.9c-0.2,0-0.3-0.1-0.4-0.2s-0.1-0.3,0-0.5c3-7.4,3-15.5,0-22.9c0,0,0-0.1-0.1-0.1
		c-1.1-2-3.3-3.3-5.6-3.3c-1.1,0-2.2,0.3-3.1,0.8c-1.2,0.7-2.2,1.8-2.8,3c-0.1,0.1-0.1,0.3-0.1,0.4l-0.5,7.5
		c-0.8,4.4-3.2,8.4-6.7,11.1c0,0-0.1,0.1-0.1,0.1c-1.7,0.6-4.8,3.1-10.2,8.3c-0.1,0.1-0.2,0.1-0.3,0.1c-0.1,0-0.1,0-0.2,0
		c-0.2-0.1-0.3-0.3-0.3-0.5v-0.2c0-1.8-1.4-3.2-3.2-3.2H6.7c-1.8,0-3.2,1.4-3.2,3.2v37c0,1.8,1.4,3.2,3.2,3.2h18.5
		c1.8,0,3.2-1.4,3.2-3.2v-0.2c0-0.2,0.1-0.3,0.2-0.4c0.1-0.1,0.2-0.1,0.3-0.1c0,0,0.1,0,0.1,0c5.1,1.1,7.9,2.5,11.1,5.5
		c1.1,1.1,2.6,1.6,4.1,1.6c0,0,28.8,0,28.8,0c3.8,0,6.8-3.1,6.8-6.8c0-1.6-0.6-3.1-1.6-4.4c-0.1-0.1-0.1-0.3-0.1-0.4
		c0-0.1,0.1-0.3,0.2-0.3c2.2-1.3,3.7-3.7,3.7-6c0-1.5-0.5-3-1.4-4.2c-0.1-0.1-0.1-0.3-0.1-0.4c0-0.1,0.1-0.3,0.2-0.3
		c2.3-1.4,3.8-3.8,3.8-6.2c0-1.4-0.4-2.8-1.3-4c-0.1-0.1-0.1-0.3-0.1-0.4c0-0.1,0.2-0.3,0.3-0.3c2.7-1,4.5-3.6,4.5-6.4
		C88,67.9,84.9,64.8,81.1,64.8z M25.8,105.6c0,0.3-0.3,0.6-0.7,0.6H6.6c-0.3,0-0.6-0.3-0.6-0.7l0-37c0-0.3,0.3-0.6,0.6-0.6
		c0,0,0,0,0,0h18.6c0.3,0,0.6,0.3,0.6,0.7L25.8,105.6z M81.1,76H75c-0.7,0-1.3,0.6-1.3,1.3s0.6,1.3,1.3,1.3h2.7
		c2.4,0,4.3,1.9,4.3,4.3c0,2.2-2.2,4.5-4.4,4.7c0,0,0,0,0,0c-0.1,0-0.1,0-0.2,0c-0.7-0.2-1.4-0.3-2.1-0.3c-0.7,0-1.3,0.6-1.3,1.3
		s0.6,1.3,1.3,1.3c0.5,0,1,0.1,1.5,0.3l0.1,0.1c1.6,0.7,2.7,2.2,2.7,4c0,2.2-2.2,4.4-4.6,4.6c0,0,0,0,0,0c0,0-0.1,0-0.1,0
		c-0.6-0.2-1.2-0.2-1.8-0.2c-0.7,0-1.3,0.6-1.3,1.3s0.6,1.3,1.3,1.3c0.4,0,0.8,0.1,1.3,0.2l0.1,0c1.1,0.4,2,1.1,2.5,2.2
		s0.6,2.2,0.2,3.3c-0.6,1.8-2.2,2.9-4.1,2.9l-28.8,0c-0.9,0-1.8-0.3-2.4-1c-3.7-3.4-6.9-5-13-6.2c-0.2,0-0.4-0.3-0.4-0.5V73.6
		c0-0.1,0.1-0.3,0.2-0.4l0.3-0.3c8.2-8,10.7-9.5,11.5-9.8c0.2,0,0.4-0.1,0.5-0.2c4.2-3.2,7-7.8,7.9-13c0,0,0-0.1,0-0.1l0.5-7.2
		c0-0.1,0-0.1,0.1-0.2c0.7-1.3,2-2,3.4-2c0.6,0,1.3,0.2,1.9,0.5c0.6,0.3,1.1,0.8,1.5,1.5c3,7.5,2.6,16-1.2,23.2
		c-0.2,0.3-0.2,0.6-0.1,1c0.1,0.3,0.3,0.6,0.6,0.7c0.2,0.1,0.4,0.1,0.6,0.1h25c1.2,0,2.2,0.5,3,1.3c0.8,0.8,1.2,1.9,1.2,3.1
		C85.4,74.1,83.5,76,81.1,76z"/>
	<path class="st2" d="M17.6,72.9c-0.7,0-1.3,0.6-1.3,1.3v0.2c0,0.7,0.6,1.3,1.3,1.3s1.3-0.6,1.3-1.3v-0.2
		C18.9,73.5,18.3,72.9,17.6,72.9z"/>
</g>
</svg>
