<?xml version="1.0" encoding="utf-8"?>
<!-- Generator: Adobe Illustrator 25.0.0, SVG Export Plug-In . SVG Version: 6.00 Build 0)  -->
<svg version="1.1" id="Layer_1" xmlns="http://www.w3.org/2000/svg" xmlns:xlink="http://www.w3.org/1999/xlink" x="0px" y="0px"
	 viewBox="0 0 118.61 105.86" style="enable-background:new 0 0 118.61 105.86;" xml:space="preserve">
<style type="text/css">
	.st0{fill:#185AE9;}
	.st1{fill:#00B0FB;}
	.st2{fill-rule:evenodd;clip-rule:evenodd;fill:#00B0FB;}
	.st3{fill:#00B0FB;fill-opacity:0.4;}
	.st4{fill:#FFFFFF;}
	.st5{fill:#3C7CFF;}
	.st6{fill:#001135;}
	.st7{fill:#00769D;}
	.st8{fill:#8DB849;}
	.st9{fill:#5A863E;}
	.st10{fill:#FFFFFE;}
	.st11{fill:#7F54B3;}
	.st12{fill:#F26322;}
</style>
<g>
	<rect x="10.63" y="10.63" class="st1" width="46.35" height="20.85"/>
	<path class="st1" d="M40.26,105.86c-0.99,0-1.52-0.59-1.75-0.95c-0.34-0.55-0.37-1.24-0.07-1.82l7.06-13.83h27.55l7.06,13.83
		c0.01,0.03,0.03,0.05,0.05,0.06c0.4,0.86,0.02,1.56-0.11,1.76c-0.17,0.29-0.68,0.95-1.74,0.95H40.26z"/>
	<path class="st1" d="M0,71.86V6.18C0,2.77,2.77,0,6.18,0h59.3v71.86H0z M40.18,39.98c-2.45,0-4.45,2-4.45,4.45v17
		c0,2.45,2,4.45,4.45,4.45h17c2.45,0,4.45-2,4.45-4.45v-17c0-2.45-2-4.45-4.45-4.45H40.18z M10.43,39.98c-2.45,0-4.45,2-4.45,4.45
		v17c0,2.45,2,4.45,4.45,4.45h17c2.45,0,4.45-2,4.45-4.45v-17c0-2.45-2-4.45-4.45-4.45H10.43z M10.43,5.98c-2.45,0-4.45,2-4.45,4.45
		v21.25c0,2.45,2,4.45,4.45,4.45h46.75c2.45,0,4.45-2,4.45-4.45V10.43c0-2.45-2-4.45-4.45-4.45H10.43z"/>
	<rect x="40.38" y="44.63" class="st1" width="16.6" height="16.6"/>
	<rect x="10.63" y="44.63" class="st1" width="16.6" height="16.6"/>
	<path class="st1" d="M6.18,84.61C2.77,84.61,0,81.84,0,78.43v-1.93h118.61v1.93c0,3.41-2.77,6.18-6.18,6.18H6.18z"/>
	<path class="st1" d="M70.13,71.86V0h42.3c3.41,0,6.18,2.77,6.18,6.18v65.68H70.13z M78.43,61.23c-1.28,0-2.33,1.04-2.33,2.33
		s1.04,2.33,2.33,2.33h31.88c1.28,0,2.33-1.04,2.33-2.33s-1.04-2.33-2.33-2.33H78.43z M78.43,50.6c-1.28,0-2.33,1.04-2.33,2.33
		s1.04,2.33,2.33,2.33h31.88c1.28,0,2.33-1.04,2.33-2.33s-1.04-2.33-2.33-2.33H78.43z M78.43,39.98c-1.28,0-2.33,1.04-2.33,2.33
		s1.04,2.33,2.33,2.33h31.88c1.28,0,2.33-1.04,2.33-2.33s-1.04-2.33-2.33-2.33H78.43z M95.41,8.1c-1.04,0-1.96,0.71-2.22,1.72
		l-4.26,17.05c-0.15,0.61-0.05,1.24,0.26,1.76c0.32,0.53,0.83,0.9,1.43,1.05c0.19,0.05,0.38,0.07,0.57,0.07
		c1.06,0,1.97-0.71,2.23-1.74l4.26-17.03c0.15-0.6,0.06-1.22-0.26-1.75c-0.32-0.53-0.82-0.91-1.42-1.06
		C95.8,8.12,95.61,8.1,95.41,8.1z M102.07,26.03c-0.37,0.5-0.53,1.11-0.44,1.72c0.09,0.62,0.41,1.16,0.9,1.53
		c0.42,0.31,0.9,0.47,1.4,0.47c0.72,0,1.41-0.35,1.86-0.93l6.38-8.5c0.63-0.82,0.63-1.97,0-2.79l-6.37-8.5
		c-0.44-0.58-1.13-0.93-1.86-0.93c-0.51,0-0.99,0.16-1.39,0.46c-0.5,0.37-0.82,0.92-0.9,1.53c-0.09,0.62,0.07,1.23,0.44,1.72
		l5.33,7.11L102.07,26.03z M82.69,8.1c-0.73,0-1.43,0.35-1.86,0.93l-6.38,8.5c-0.63,0.82-0.63,1.97,0,2.79l6.38,8.5
		c0.45,0.58,1.14,0.93,1.86,0.93c0.49,0,0.97-0.16,1.39-0.46c0.5-0.37,0.82-0.92,0.91-1.53c0.09-0.62-0.07-1.23-0.44-1.72
		l-5.33-7.11l5.33-7.11c0.37-0.5,0.53-1.11,0.44-1.72c-0.09-0.62-0.41-1.16-0.9-1.53C83.67,8.26,83.19,8.1,82.69,8.1z"/>
</g>
</svg>
