<?xml version="1.0" encoding="utf-8"?>
<!-- Generator: Adobe Illustrator 24.3.0, SVG Export Plug-In . SVG Version: 6.00 Build 0)  -->
<svg version="1.1" id="Layer_1" xmlns="http://www.w3.org/2000/svg" xmlns:xlink="http://www.w3.org/1999/xlink" x="0px" y="0px"
	 width="136.2px" height="117.4px" viewBox="0 0 136.2 117.4" style="enable-background:new 0 0 136.2 117.4;" xml:space="preserve"
	>
<style type="text/css">
	.st0{fill:#00C8FF;}
	.st1{fill-rule:evenodd;clip-rule:evenodd;fill:#00C8FF;}
	.st2{fill:#185AE9;}
	.st3{fill:#FFFFFF;}
	.st4{fill-rule:evenodd;clip-rule:evenodd;fill:#FFFFFF;}
	.st5{fill:#00B0FB;}
	.st6{fill:#00B0FB;fill-opacity:0.4;}
	.st7{fill:#E4ECF4;}
	.st8{fill:#FFE8A0;}
	.st9{fill:none;}
	.st10{fill:#0D0D0D;}
	.st11{fill-rule:evenodd;clip-rule:evenodd;fill:#00B0FB;}
	.st12{fill:#FAFBFF;}
	.st13{fill:#070707;}
	.st14{fill:#D9D9D9;filter:url(#Adobe_OpacityMaskFilter);}
	.st15{mask:url(#mask0_103_2708_1_);}
	.st16{fill-rule:evenodd;clip-rule:evenodd;fill:#DAB6E4;}
	.st17{stroke:#FFFFFF;stroke-width:2;}
	.st18{fill:#FFFFFF;stroke:#000000;stroke-width:2;}
	.st19{fill-rule:evenodd;clip-rule:evenodd;}
	.st20{stroke:#FFFFFF;}
	.st21{fill:#FFFFFF;filter:url(#Adobe_OpacityMaskFilter_1_);}
	.st22{mask:url(#path-22-inside-1_103_2708_1_);fill:#FFFFFF;}
	.st23{fill-rule:evenodd;clip-rule:evenodd;fill:#263238;}
	.st24{fill:#EFEFEF;}
	
		.st25{fill:none;stroke:#000000;stroke-width:10.01;stroke-linecap:round;stroke-linejoin:round;stroke-miterlimit:3.08;stroke-dasharray:70.84,70.84;}
	.st26{fill:#010000;}
	.st27{opacity:0.64;}
	.st28{fill:#F9F7F5;}
	.st29{fill:#D9D9D9;filter:url(#Adobe_OpacityMaskFilter_2_);}
	.st30{mask:url(#mask0_103_2310_1_);}
	.st31{fill:#FFFFFF;filter:url(#Adobe_OpacityMaskFilter_3_);}
	.st32{mask:url(#mask1_103_2310_1_);}
	.st33{fill:#E6E6E6;}
	.st34{fill:#FFFFFF;filter:url(#Adobe_OpacityMaskFilter_4_);}
	.st35{mask:url(#mask2_103_2310_1_);}
	.st36{fill:none;stroke:#000000;stroke-width:1.5;stroke-linecap:round;stroke-linejoin:round;stroke-miterlimit:10;}
	.st37{fill:#FFFFFF;filter:url(#Adobe_OpacityMaskFilter_5_);}
	.st38{mask:url(#mask3_103_2310_1_);}
	.st39{fill:#FFFFFF;filter:url(#Adobe_OpacityMaskFilter_6_);}
	.st40{mask:url(#mask4_103_2310_1_);}
	.st41{fill:#FFFFFF;filter:url(#Adobe_OpacityMaskFilter_7_);}
	.st42{mask:url(#mask5_103_2310_1_);}
	.st43{fill:#FFFFFF;filter:url(#Adobe_OpacityMaskFilter_8_);}
	.st44{mask:url(#mask6_103_2310_1_);}
	.st45{fill:#DBDBDB;}
	.st46{fill:#FFFFFF;filter:url(#Adobe_OpacityMaskFilter_9_);}
	.st47{mask:url(#mask7_103_2310_1_);}
	.st48{fill:#FFFFFF;filter:url(#Adobe_OpacityMaskFilter_10_);}
	.st49{mask:url(#mask8_103_2310_1_);}
	.st50{fill:#FFFFFF;filter:url(#Adobe_OpacityMaskFilter_11_);}
	.st51{mask:url(#mask9_103_2310_1_);}
	.st52{fill:#FFFFFF;filter:url(#Adobe_OpacityMaskFilter_12_);}
	.st53{mask:url(#mask10_103_2310_1_);}
	.st54{fill:#FFFFFF;filter:url(#Adobe_OpacityMaskFilter_13_);}
	.st55{mask:url(#mask11_103_2310_1_);}
	.st56{fill:#FFFFFF;filter:url(#Adobe_OpacityMaskFilter_14_);}
	.st57{mask:url(#mask12_103_2310_1_);}
	.st58{fill:#FFFFFF;stroke:#000000;}
	.st59{fill:#FFFFFF;filter:url(#Adobe_OpacityMaskFilter_15_);stroke:#FFFFFF;}
	.st60{mask:url(#mask13_103_2310_1_);}
	.st61{fill:#FFFFFF;filter:url(#Adobe_OpacityMaskFilter_16_);}
	.st62{mask:url(#path-55-inside-1_103_2310_1_);}
	.st63{fill:#FFFFFF;filter:url(#Adobe_OpacityMaskFilter_17_);}
	.st64{mask:url(#path-59-inside-2_103_2310_1_);fill:#FFFFFF;}
	.st65{fill:none;stroke:#FFFFFF;stroke-width:1.5;stroke-linecap:round;stroke-linejoin:round;stroke-miterlimit:10;}
	.st66{fill:#181818;}
	.st67{fill:#BEBEBE;}
	.st68{fill:#FEFEFE;}
	.st69{fill:none;stroke:#000000;stroke-width:2.1125;stroke-miterlimit:6.5;}
	.st70{fill:#3C7CFF;stroke:#001135;stroke-width:0.7602;stroke-miterlimit:10;}
	.st71{fill:#001135;}
	.st72{fill:#3C7CFF;}
	.st73{clip-path:url(#SVGID_1_);}
	.st74{fill:#FFFFFF;stroke:#001135;stroke-width:0.7602;stroke-miterlimit:10;}
	.st75{fill:none;stroke:#001135;stroke-width:0.7602;stroke-miterlimit:10;}
	.st76{fill:#001135;stroke:#001135;stroke-width:0.7602;stroke-miterlimit:10;}
	.st77{fill:#0F0D0E;}
	.st78{fill:#161415;}
	.st79{fill:#FCFCFC;}
	.st80{fill:#FBFBFB;}
	.st81{fill:#FAFAFA;}
	.st82{fill:#C1C1C1;}
	.st83{fill:#0E0E0E;}
	.st84{fill:#EFEEEE;}
	.st85{fill:#A8A8A8;}
	.st86{fill:#9A9A9B;}
	.st87{fill:#404040;}
	.st88{fill:#EDEDED;}
	.st89{fill:#E7E7E7;}
	.st90{fill:#9A9999;}
	.st91{fill:#D2D2D2;}
	.st92{fill:#AEAEAE;}
	.st93{fill:#8D8D8C;}
	.st94{fill:#B9BABC;}
	.st95{fill:#61605F;}
	.st96{fill:#A5A5A5;}
	.st97{fill:#B5B6B6;}
	.st98{fill:#1B1C1C;}
	.st99{fill:#171616;}
	.st100{fill:#161616;}
	.st101{fill:#0F0F0F;}
	.st102{fill:#F0F0F0;}
	.st103{fill:#EDEDEC;}
	.st104{fill:#EBEBEB;}
	.st105{fill:#EBEBEA;}
	.st106{fill:#ECECEC;}
	.st107{fill:#E9E9E9;}
	.st108{fill:#EBEAEA;}
	.st109{fill:#B9BAB9;}
	.st110{fill:#EDECEC;}
	.st111{fill:#EAEAEA;}
	.st112{fill:#1F1F1E;}
	.st113{fill:#1E1E1D;}
	.st114{fill:#202020;}
	.st115{fill:#1B1A1A;}
	.st116{fill:#1F1F20;}
	.st117{fill:#252424;}
	.st118{fill:#1F1E1E;}
	.st119{fill:#222121;}
	.st120{fill:#2B2B2B;}
	.st121{fill:#1E1E1E;}
	.st122{fill:#1F1F1F;}
	.st123{fill:#434242;}
	.st124{fill:#2C2C2C;}
	.st125{fill:#484848;}
	.st126{fill:#FDFDFD;}
	.st127{fill:#F4F4F3;}
	.st128{fill:#F2F2F2;}
	.st129{fill:#F3F3F3;}
	.st130{fill:#F1F1F1;}
	.st131{fill:#191918;}
	.st132{fill:#1A1A19;}
	.st133{fill:#1D1C1D;}
	.st134{fill:#1C1A1B;}
	.st135{fill:#1E1D1E;}
	.st136{fill:#212021;}
	.st137{fill:#1D1D1D;}
	.st138{fill:#1D1B1B;}
	.st139{fill:#1F1D1E;}
	.st140{fill:#1E1D1D;}
	.st141{fill:#FCFBFB;}
</style>
<g>
	<path class="st5" d="M128.4,43.4h-1.1c-0.2,0-0.3-0.1-0.3-0.3v-0.3h-3.4v0.3c0,0.2-0.1,0.3-0.3,0.3H27.6c-0.2,0-0.3-0.1-0.3-0.3
		v-0.4h-3.4v0.4c0,0.2-0.1,0.3-0.3,0.3h-1.9c-4.3,0-7.9,3.5-7.9,7.9v1.4h3.4v-1.4c0-2.5,2-4.5,4.5-4.5h106.7c2.4,0,4.4,2,4.4,4.5
		v3.1h3.4v-3.1C136.2,46.9,132.7,43.4,128.4,43.4z"/>
	<path class="st5" d="M116.9,105.4c2.9,0,5.3-2.4,5.3-5.3s-2.4-5.3-5.3-5.3s-5.3,2.4-5.3,5.3S113.9,105.4,116.9,105.4z"/>
	<path class="st5" d="M75.7,70.3c0,0-0.1,0-0.1,0c-0.1,0-0.1,0-0.2,0.1l-25,19c-0.1,0.1-0.1,0.1-0.1,0.2c0,0.1,0,0.2,0.1,0.2
		l25,20.2c0.1,0,0.1,0.1,0.2,0.1c0,0,0.1,0,0.1,0c0.1,0,0.2-0.2,0.2-0.3V70.6C75.9,70.5,75.8,70.4,75.7,70.3z"/>
	<path class="st5" d="M47.5,91.9c-0.1,0-0.1-0.1-0.2-0.1c-0.1,0-0.1,0-0.2,0.1l-3.4,2.6c-1.2,0.9-2.6,1.4-4.1,1.4s-2.9-0.5-4.1-1.4
		l-3.1-2.4c-0.1,0-0.1-0.1-0.2-0.1c-0.1,0-0.1,0-0.2,0.1L6.7,113.4c-0.1,0.1-0.1,0.2-0.1,0.3c0,0.1,0.1,0.2,0.2,0.2
		c0.2,0,0.4,0.1,0.6,0.1h64.2c0.6,0,1.3-0.1,1.8-0.4c0.1,0,0.2-0.1,0.2-0.2c0-0.1,0-0.2-0.1-0.3L47.5,91.9z"/>
	<path class="st5" d="M37.6,91.7c0.6,0.4,1.3,0.7,2,0.7s1.5-0.2,2-0.7l32.7-24.9c0.1-0.1,0.1-0.1,0.1-0.2c0-0.1,0-0.2-0.1-0.2
		c-0.7-0.6-1.7-0.9-2.6-0.9H7.5c-1,0-1.9,0.3-2.6,0.9c-0.1,0.1-0.1,0.1-0.1,0.2c0,0.1,0,0.2,0.1,0.2L37.6,91.7z"/>
	<path class="st5" d="M116.9,12c-2.9,0-5.3,2.4-5.3,5.3s2.4,5.3,5.3,5.3s5.3-2.4,5.3-5.3S119.8,12,116.9,12z"/>
	<path class="st5" d="M116.9,64c2.9,0,5.3-2.4,5.3-5.3s-2.4-5.3-5.3-5.3s-5.3,2.4-5.3,5.3S113.9,64,116.9,64z"/>
	<path class="st5" d="M29.2,89.8c0-0.1,0-0.2-0.1-0.2L3.9,70.4c-0.1,0-0.1-0.1-0.2-0.1c0,0-0.1,0-0.1,0c-0.1,0.1-0.2,0.2-0.2,0.3
		v39.2c0,0.4,0.1,0.8,0.2,1.2c0,0.1,0.1,0.2,0.2,0.2c0,0,0.1,0,0.1,0c0.1,0,0.1,0,0.2-0.1L29.1,90C29.2,90,29.2,89.9,29.2,89.8z"/>
	<path class="st6" d="M128.4,3.4H21.7c-2.5,0-4.5,2-4.5,4.5v18.9c0,2.5,2,4.5,4.5,4.5h106.7c2.4,0,4.4-2,4.4-4.5V7.9
		C132.8,5.4,130.8,3.4,128.4,3.4z M81.6,24h-56c-0.9,0-1.7-0.8-1.7-1.7c0-0.9,0.8-1.7,1.7-1.7h56c0.9,0,1.7,0.8,1.7,1.7
		C83.3,23.2,82.6,24,81.6,24z M81.6,14.1h-56c-0.9,0-1.7-0.8-1.7-1.7c0-0.9,0.8-1.7,1.7-1.7h56c0.9,0,1.7,0.8,1.7,1.7
		C83.3,13.3,82.6,14.1,81.6,14.1z M116.9,26c-4.8,0-8.7-3.9-8.7-8.7c0-4.8,3.9-8.7,8.7-8.7c4.8,0,8.7,3.9,8.7,8.7
		C125.6,22.1,121.7,26,116.9,26z"/>
	<path class="st3" d="M81.6,10.7h-56c-0.9,0-1.7,0.8-1.7,1.7c0,0.9,0.8,1.7,1.7,1.7h56c0.9,0,1.7-0.8,1.7-1.7
		C83.3,11.5,82.6,10.7,81.6,10.7z"/>
	<path class="st3" d="M81.6,20.6h-56c-0.9,0-1.7,0.8-1.7,1.7c0,0.9,0.8,1.7,1.7,1.7h56c0.9,0,1.7-0.8,1.7-1.7
		C83.3,21.3,82.6,20.6,81.6,20.6z"/>
	<path class="st3" d="M83.3,53.9c0,0.9-0.8,1.7-1.7,1.7h-56c-0.9,0-1.7-0.8-1.7-1.7c0-0.9,0.8-1.7,1.7-1.7h56
		C82.6,52.2,83.3,52.9,83.3,53.9z"/>
	<path class="st3" d="M127.2,34.7h1.1c4.3,0,7.9-3.5,7.9-7.9V7.9c0-4.3-3.5-7.9-7.9-7.9H21.7c-4.3,0-7.9,3.5-7.9,7.9v18.9
		c0,4.3,3.5,7.9,7.9,7.9h1.9c0.2,0,0.3,0.1,0.3,0.3v6.1c0,0.2-0.1,0.3-0.3,0.3h-1.9c-4.3,0-7.9,3.5-7.9,7.9v12.5
		c0,0.2-0.1,0.3-0.3,0.3h-6c-2.9,0-5.4,1.6-6.7,4.2l0,0.1c-0.5,1-0.8,2.1-0.8,3.3v40.2c0,2,0.7,3.8,2.1,5.2c0.1,0.1,0.1,0.1,0.2,0.2
		c1.4,1.4,3.3,2.1,5.2,2.1l55,0c0.1,0,0.2,0,0.3,0h65.5c4.3,0,7.9-3.5,7.9-7.9V90.6c0-4.3-3.5-7.9-7.9-7.9h-1.1
		c-0.2,0-0.3-0.1-0.3-0.3v-6.1c0-0.2,0.1-0.3,0.3-0.3h1.1c4.3,0,7.9-3.5,7.9-7.9V49.2c0-4.3-3.5-7.9-7.9-7.9h-1.1
		c-0.2,0-0.3-0.1-0.3-0.3V35C126.9,34.8,127.1,34.7,127.2,34.7z M4.9,66.4c0.7-0.6,1.7-0.9,2.6-0.9h64.2c1,0,1.9,0.3,2.6,0.9
		c0.1,0.1,0.1,0.1,0.1,0.2c0,0.1,0,0.2-0.1,0.2L41.7,91.7c-0.6,0.4-1.3,0.7-2,0.7s-1.5-0.2-2-0.7L4.9,66.9c-0.1-0.1-0.1-0.1-0.1-0.2
		C4.8,66.5,4.9,66.4,4.9,66.4z M3.9,111.2C3.9,111.2,3.8,111.2,3.9,111.2c-0.2,0-0.3-0.1-0.3-0.2c-0.1-0.4-0.2-0.8-0.2-1.2V70.6
		c0-0.1,0.1-0.2,0.2-0.3c0,0,0.1,0,0.1,0c0.1,0,0.1,0,0.2,0.1l25.2,19.2c0.1,0,0.1,0.1,0.1,0.2c0,0.1,0,0.2-0.1,0.2L4.1,111.2
		C4,111.2,3.9,111.2,3.9,111.2z M73.6,113.5c-0.6,0.3-1.2,0.4-1.8,0.4H7.5c-0.2,0-0.4,0-0.6,0c-0.1,0-0.2-0.1-0.2-0.2
		c0-0.1,0-0.2,0.1-0.3L32,92.1c0,0,0.1-0.1,0.2-0.1c0.1,0,0.1,0,0.2,0.1l3.1,2.4c1.2,0.9,2.6,1.4,4.1,1.4c1.5,0,2.9-0.5,4.1-1.4
		l3.3-2.5c0.1,0,0.1-0.1,0.2-0.1c0.1,0,0.1,0,0.2,0.1L73.7,113c0.1,0.1,0.1,0.2,0.1,0.3C73.8,113.4,73.7,113.5,73.6,113.5z
		 M75.9,109.8c0,0.1-0.1,0.2-0.2,0.3c0,0-0.1,0-0.1,0c-0.1,0-0.1,0-0.2-0.1l-25-20.2c-0.1-0.1-0.1-0.1-0.1-0.2c0-0.1,0-0.2,0.1-0.2
		l25-19c0,0,0.1-0.1,0.2-0.1c0,0,0.1,0,0.1,0c0.1,0,0.2,0.2,0.2,0.3V109.8z M128.4,86.1c2.4,0,4.4,2,4.4,4.5v18.9
		c0,2.5-2,4.5-4.4,4.5H78.6c-0.1,0-0.2-0.1-0.3-0.1c0-0.1,0-0.2,0-0.3c0.7-1.1,1-2.4,1-3.7V86.4c0-0.2,0.1-0.3,0.3-0.3H128.4z
		 M79.3,82.4v-6.1c0-0.2,0.1-0.3,0.3-0.3h43.6c0.2,0,0.3,0.1,0.3,0.3v6.1c0,0.2-0.1,0.3-0.3,0.3H79.6C79.4,82.7,79.3,82.6,79.3,82.4
		z M128.4,44.8c2.4,0,4.4,2,4.4,4.5v18.9c0,2.5-2,4.5-4.4,4.5H79.6c-0.2,0-0.3-0.1-0.3-0.3v-2.8c0-1.2-0.2-2.2-0.8-3.3l0-0.1
		c-1.3-2.6-3.9-4.2-6.7-4.2H17.5c-0.2,0-0.3-0.1-0.3-0.3V49.2c0-2.5,2-4.5,4.5-4.5H128.4z M27.3,41.1V35c0-0.2,0.1-0.3,0.3-0.3h95.6
		c0.2,0,0.3,0.1,0.3,0.3v6.1c0,0.2-0.1,0.3-0.3,0.3H27.6C27.4,41.4,27.3,41.2,27.3,41.1z M21.7,31.3c-2.5,0-4.5-2-4.5-4.5V7.9
		c0-2.5,2-4.5,4.5-4.5h106.7c2.4,0,4.4,2,4.4,4.5v18.9c0,2.5-2,4.5-4.4,4.5H21.7z"/>
	<path class="st3" d="M116.9,8.6c-4.8,0-8.7,3.9-8.7,8.7c0,4.8,3.9,8.7,8.7,8.7c4.8,0,8.7-3.9,8.7-8.7
		C125.6,12.5,121.7,8.6,116.9,8.6z M116.9,22.6c-2.9,0-5.3-2.4-5.3-5.3c0-2.9,2.4-5.3,5.3-5.3c2.9,0,5.3,2.4,5.3,5.3
		C122.2,20.3,119.8,22.6,116.9,22.6z"/>
	<path class="st3" d="M116.9,50c-4.8,0-8.7,3.9-8.7,8.7c0,4.8,3.9,8.7,8.7,8.7c4.8,0,8.7-3.9,8.7-8.7C125.6,53.9,121.7,50,116.9,50z
		 M116.9,64c-2.9,0-5.3-2.4-5.3-5.3c0-2.9,2.4-5.3,5.3-5.3c2.9,0,5.3,2.4,5.3,5.3C122.2,61.6,119.8,64,116.9,64z"/>
	<path class="st3" d="M116.9,91.3c-4.8,0-8.7,3.9-8.7,8.7c0,4.8,3.9,8.7,8.7,8.7c4.8,0,8.7-3.9,8.7-8.7
		C125.6,95.3,121.7,91.3,116.9,91.3z M116.9,105.4c-2.9,0-5.3-2.4-5.3-5.3c0-2.9,2.4-5.3,5.3-5.3c2.9,0,5.3,2.4,5.3,5.3
		C122.2,103,119.8,105.4,116.9,105.4z"/>
</g>
</svg>
