<?xml version="1.0" encoding="utf-8"?>
<!-- Generator: Adobe Illustrator 25.0.0, SVG Export Plug-In . SVG Version: 6.00 Build 0)  -->
<svg version="1.1" id="Layer_1" xmlns="http://www.w3.org/2000/svg" xmlns:xlink="http://www.w3.org/1999/xlink" x="0px" y="0px"
	 viewBox="0 0 87.53 99.23" style="enable-background:new 0 0 87.53 99.23;" xml:space="preserve">
<style type="text/css">
	.st0{fill:#185AE9;}
	.st1{fill:#00B0FB;}
	.st2{fill-rule:evenodd;clip-rule:evenodd;fill:#00B0FB;}
	.st3{fill:#3C7CFF;}
	.st4{fill:#001135;}
	.st5{fill:#FFFFFF;}
	.st6{fill:#061639;}
	.st7{fill:#1429FF;}
	.st8{fill:#663398;}
	.st9{fill:#FEFEFE;}
	.st10{fill:#8DB849;}
	.st11{fill:#5A863E;}
	.st12{fill:#FFFFFE;}
	.st13{fill-rule:evenodd;clip-rule:evenodd;fill:#7FC728;}
	.st14{fill:#B3B3B3;}
	.st15{fill:#A6120D;}
	.st16{fill:#DD1B16;}
	.st17{fill:#F2F2F2;}
	.st18{fill:#8F9ED1;}
	.st19{fill:#030303;}
	.st20{fill:#0E0E0D;}
	.st21{fill:#8F8F90;}
	.st22{fill:#DBDBDB;}
	.st23{fill:#FDFDFD;}
	.st24{fill:#FDFCFD;}
	.st25{fill:#010101;}
</style>
<g>
	<path class="st1" d="M71.35,85.5c-1.03,1.05-1.93,1.14-3.01,0.1c-1.33-1.29-2.7-2.52-4.1-3.72c-0.28-0.24-0.77-0.25-1.16-0.36
		c0.1,0.38,0.07,0.9,0.31,1.13c2.08,1.97,4.2,3.89,6.48,5.98c3.25-3.2,6.36-6.23,9.42-9.31c0.32-0.32,0.37-0.89,0.55-1.35
		c-0.46,0.17-1.04,0.23-1.37,0.54C76.06,80.81,73.68,83.14,71.35,85.5z"/>
	<path class="st1" d="M71.3,66.95c-8.83,0.06-15.97,7.3-15.94,16.16c0.03,8.92,7.29,16.16,16.16,16.11
		c8.89-0.05,16.04-7.32,16.01-16.26C87.5,74.07,80.22,66.89,71.3,66.95z M82.82,79.37c-0.21,0.65-0.65,1.29-1.13,1.78
		c-3.01,3.01-6.04,5.99-9.09,8.96c-1.74,1.68-3.62,1.69-5.45,0.05c-1.95-1.75-3.88-3.5-5.8-5.28c-1.81-1.67-2.02-3.69-0.61-5.29
		c1.45-1.64,3.56-1.65,5.43,0c1.19,1.05,2.35,2.12,3.91,3.53c2.33-2.48,4.57-4.93,6.89-7.31c1.16-1.18,3.12-1.31,4.4-0.48
		C82.67,76.17,83.33,77.81,82.82,79.37z"/>
	<path class="st1" d="M34.81,37.4c1.08-0.46,2.14-1,3.12-1.64c3.91-2.52,6.53-2.27,9.83,1.03c2.97,2.98,5.98,5.91,8.89,8.94
		c0.9,0.94,1.6,0.38,2.29-0.01c0.36-0.21,0.77-0.87,0.7-1.22c-0.98-4.5-2.03-8.97-3.13-13.72c-2.98,1.49-5.42,0.53-7.83-0.98
		c-1.47-0.92-3-1.78-4.56-2.54c-1.77-0.85-3.56-0.79-4.97,0.7c-2.73,2.9-5.35,5.9-8.05,8.89C32.32,37.82,33.56,37.93,34.81,37.4z"/>
	<path class="st1" d="M59.76,31.58c1.04,4.54,2.11,9.07,3.11,13.61c0.25,1.1,0.68,1.4,1.82,1.11c3.45-0.86,3.47-0.81,2.63-4.32
		c-0.06-0.25-0.09-0.51-0.15-0.76c-1.13-4.93-2.25-9.88-3.42-14.81c-0.1-0.44-0.53-0.81-0.74-1.11c-1.21,0.26-2.11,0.49-3.01,0.66
		c-1,0.19-1.4,0.69-1.12,1.72C59.21,28.97,59.46,30.28,59.76,31.58z"/>
	<path class="st1" d="M22.47,44.78c4.13,4.14,8.3,8.24,12.45,12.36c0.7,0.68,1.5,1.04,2.29,0.25c0.77-0.78,0.48-1.58-0.23-2.29
		c-0.91-0.9-1.81-1.82-2.72-2.72c-0.72-0.72-1.18-1.52-0.33-2.4c0.85-0.88,1.66-0.48,2.39,0.25c1.2,1.2,2.4,2.4,3.6,3.6
		c1.09,1.08,2.1,2.27,3.31,3.2c0.45,0.35,1.35,0.11,2.04,0.14c-0.01-0.71,0.07-1.43-0.07-2.11c-0.06-0.33-0.54-0.58-0.83-0.87
		c-1.85-1.86-3.71-3.7-5.54-5.56c-0.67-0.67-0.83-1.43-0.1-2.17c0.72-0.72,1.47-0.59,2.16,0.07c0.34,0.32,0.67,0.64,1,0.97
		c2.54,2.54,5.04,5.12,7.66,7.58c0.42,0.4,1.37,0.47,1.99,0.33c0.29-0.06,0.56-1.01,0.51-1.53c-0.04-0.43-0.54-0.84-0.9-1.2
		c-2.49-2.51-5-5.01-7.51-7.51c-0.75-0.74-1.38-1.59-0.49-2.52c0.95-0.99,1.81-0.37,2.61,0.44c2.45,2.49,4.94,4.94,7.4,7.41
		c0.72,0.72,1.53,1.19,2.38,0.33c0.87-0.87,0.38-1.67-0.34-2.39c-3.42-3.41-6.81-6.84-10.25-10.23c-1.43-1.41-2.85-1.52-4.59-0.47
		c-1.06,0.63-2.08,1.33-3.18,1.88c-3.49,1.73-6.46,1.31-8.88-1.18c-1.28-1.32-1.22-1.87,0.06-3.19c1.88-1.92,3.68-3.91,5.79-6.16
		h-8.78c-1.14,4.86-2.28,9.69-3.36,14.53C21.93,43.96,22.19,44.51,22.47,44.78z"/>
	<path class="st1" d="M14.43,45.71c0.71,0.27,1.51,0.3,2.23,0.56c1.12,0.39,1.66,0.15,1.93-1.1c1.14-5.15,2.45-10.26,3.55-15.42
		c0.8-3.73,1.58-3.25-2.75-4.26c-1.19-0.28-1.54,0.17-1.77,1.2c-0.79,3.55-1.65,7.09-2.46,10.63c-0.56,2.45-1.08,4.9-1.68,7.61
		C13.74,45.16,14.04,45.57,14.43,45.71z"/>
	<path class="st1" d="M42.89,89.58c-1.45,0.67-2.81,0.58-4.29,0.01c-11.03-4.23-20.01-11.15-26.99-20.64
		c-4.56-6.19-7.68-13.04-7.83-20.84C3.59,37.65,3.74,27.17,3.71,16.7c0-1.24,0.52-1.88,1.73-2.11c8.53-1.65,16.27-5.16,23.51-9.89
		c0.67-0.44,1.6-0.67,2.42-0.68c6.16-0.06,12.32-0.07,18.48,0.01c1,0.01,2.13,0.34,2.97,0.88c7.14,4.59,14.75,8.04,23.12,9.65
		c1.4,0.27,1.8,1.03,1.79,2.36c-0.03,10.12,0.1,20.23-0.09,30.34c-0.06,3.18-0.77,6.4-1.56,9.5c-0.64,2.49-1.86,4.84-2.81,7.25
		c1.15,0.22,2.3,0.44,3.66,0.7c2.81-5.47,4.52-11.2,4.52-17.38c-0.01-11.04,0-22.07,0-33.11c0-2.51,0-2.51-2.49-2.92
		C69.74,9.78,61.44,6.05,53.71,0.89C53,0.42,52.04,0.1,51.19,0.09C45.09,0.02,38.97,0.17,32.87,0c-2.68-0.07-4.86,0.61-7.11,2.09
		c-7.36,4.85-15.4,8.13-24.19,9.29C0.3,11.55-0.01,11.94,0,13.16c0.04,11.39,0.03,22.79,0.02,34.18c0,5.11,1.05,10.02,3.23,14.6
		c7.52,15.8,20,26.05,36.26,31.96c0.63,0.23,1.49,0.33,2.08,0.08c3.63-1.5,7.23-3.11,10.82-4.73c0.3-0.14,0.62-0.71,0.58-1.03
		c-0.12-1.03-0.41-2.04-0.6-2.93C49.13,86.76,46,88.15,42.89,89.58z"/>
	<path class="st1" d="M9.25,58.81c6.17,13.39,16.5,22.32,30.01,27.83c1,0.41,1.9,0.52,2.91,0.02c2.84-1.41,5.69-2.79,8.57-4.13
		c1.24-0.58,1.72-1.52,1.96-2.82c1.58-8.3,7.61-14.11,15.98-15.55c0.44-0.08,0.99-0.35,1.2-0.7c2.61-4.42,4.59-9.12,4.73-14.3
		c0.2-7.69,0.12-15.39,0.15-23.09c0.01-2.82,0-5.63,0-8.57c-0.44-0.15-0.72-0.28-1.01-0.34c-8.15-1.84-15.6-5.27-22.59-9.79
		c-0.55-0.35-1.35-0.45-2.03-0.45c-5.6-0.04-11.19-0.05-16.78,0.01c-0.86,0.01-1.77,0.37-2.55,0.78c-3.4,1.78-6.65,3.89-10.16,5.41
		c-4.11,1.78-8.43,3.07-12.82,4.62c-0.01,0.2-0.05,0.65-0.05,1.11c0,9.39,0.03,18.78-0.01,28.17C6.74,51.15,7.54,55.09,9.25,58.81z
		 M10.61,44c1.42-6.19,2.84-12.38,4.27-18.56c0.52-2.25,2.37-3.43,4.61-2.96c1.05,0.22,2.14,0.35,3.14,0.72
		c0.83,0.31,1.95,0.74,2.25,1.41c0.66,1.51,1.74,1.47,3,1.44c1.59-0.04,3.18-0.01,4.77-0.01c2.23,0,4.33,0.11,6.36-1.49
		c1.87-1.47,4.3-1.08,6.43,0.05c2.03,1.08,3.98,2.35,6.07,3.3c0.94,0.43,2.14,0.42,3.21,0.34c0.37-0.02,0.91-0.84,0.97-1.34
		c0.22-1.96,1.16-3.21,3.11-3.72c1.09-0.28,2.2-0.51,3.3-0.73c2-0.4,3.94,0.7,4.4,2.66c1.5,6.33,2.95,12.67,4.35,19.02
		c0.44,1.96-0.55,3.7-2.39,4.29c-1.36,0.44-2.78,0.84-4.19,0.88c-1.14,0.04-2.31-0.47-3.42-0.89c-1.29,0.1-1.92,0.74-2.03,2.27
		c-0.14,1.98-1.67,3.07-3.53,3.56c-0.89,3.99-3.11,5.26-6.82,3.98c-3.42,3.05-4.77,3.11-8.22,0.3c-0.19,0.21-0.38,0.42-0.57,0.63
		c-1.92,2.13-4.57,2.28-6.64,0.28c-3.5-3.4-6.96-6.83-10.4-10.29c-0.5-0.49-0.81-1.18-1.17-1.73c-2.73,2.28-7.14,2.34-9.52,0.43
		C10.72,46.87,10.26,45.56,10.61,44z"/>
</g>
</svg>
