<?xml version="1.0" encoding="utf-8"?>
<!-- Generator: Adobe Illustrator 24.3.0, SVG Export Plug-In . SVG Version: 6.00 Build 0)  -->
<svg version="1.1" id="Layer_1" xmlns="http://www.w3.org/2000/svg" xmlns:xlink="http://www.w3.org/1999/xlink" x="0px" y="0px"
	 viewBox="0 0 108 108" style="enable-background:new 0 0 108 108;" xml:space="preserve">
<style type="text/css">
	.st0{fill:#00B0FB;fill-opacity:0.4;}
	.st1{fill:#FFFFFF;}
	.st2{fill:#00B0FB;}
	.st3{fill:none;stroke:#FFFFFF;stroke-width:4;stroke-miterlimit:10;}
</style>
<g>
	<path class="st2" d="M106.85,87.28c-0.15-3.35-0.06-6.73-0.51-10.04c-0.91-6.61-6.85-11.85-13.69-12.63
		c0-7.91,0.02-19.77-0.11-27.13c-0.05-2.75-2.32-4.63-5.17-4.64C77.3,32.8,61.82,32.8,51.13,32.8c-0.25-3.43-0.5-6.86-0.76-10.29
		c-0.22-2.96-0.45-5.92-0.69-9.04c-3.9,0-7.66,0-11.57,0c0.08-3.21-0.44-6.09-2.5-8.5c-2.06-2.4-4.67-3.68-7.8-3.79
		c-2.41-0.08-4.62,0.63-6.57,2.09c-3.35,2.53-4.47,6.07-4.32,10.25c-4.27,0-8.35,0-12.51,0c-0.07,0.43-0.11,0.58-0.12,0.74
		C3.25,28.28,2.17,42.31,1.19,56.34c-0.42,5.92,3.34,9.88,9.31,9.9c11.03,0.04,22.07,0.04,33.1,0c6.08-0.02,9.73-4.16,9.26-10.26
		c-0.5-6.55-0.98-13.11-1.46-19.66c2.1,0.01,5.75,0.02,6.18,0.02c9.7,0,19.39,0,29.09,0c1.95,0,2.45,0.51,2.45,2.46
		c0.01,6.77,0,13.53,0,20.3c0,0.43,0.03,3.63,0.05,5.5c-6.87,0.76-13.02,5.95-13.68,12.56c-0.61,6.18-0.64,12.47-0.27,18.67
		c0.36,6.02,4.32,10.05,10.02,10.71c3.36,0.39,6.84,0.39,10.21,0.01c6.11-0.7,10.52-5.05,11.14-10.79c0.3-2.79,0.05-5.64,0.05-8.47
		C106.7,87.28,106.77,87.28,106.85,87.28z M23.6,5.92c2.47-1.68,5.13-1.73,7.66-0.14c2.73,1.71,3.57,4.33,3.22,7.62
		c-4.7,0-9.25,0-13.87,0C20.19,10.25,21.01,7.69,23.6,5.92z M43.57,62.72c-11.09,0.03-22.18,0.03-33.26,0
		c-3.65-0.01-5.86-2.39-5.61-6.05c0.85-12.6,1.74-25.2,2.63-37.8c0.04-0.57,0.17-1.13,0.27-1.77c3.1,0,6.11,0,9.3,0l3.69,0.06
		c4.62,0,9.21,0,13.94,0l3.65-0.03c2.78,0,5.47,0,8.31,0c0.23,2.72,0.49,5.41,0.68,8.1c0.73,10.36,1.44,20.73,2.17,31.1
		C49.61,60.19,47.41,62.71,43.57,62.72z M92.71,68.42c5.74,0.11,11,6.96,10.36,13.59c-3.5,0-6.88,0-10.36,0
		C92.71,77.44,92.71,72.93,92.71,68.42z M89.04,68.42c0,4.5,0,9,0,13.58c-3.46,0-6.84,0-10.23,0C77.5,75.15,82.35,68.53,89.04,68.42
		z M103.05,95.47c-0.42,4.39-4.36,7.59-9,7.71c-2.24,0.06-4.47,0.02-6.71,0.01c-4.88-0.02-8-2.72-8.71-7.56
		c-0.08-0.52-0.08-1.06-0.08-1.59c-0.01-2.76,0-5.51,0-8.35c8.22,0,16.3,0,24.56,0C103.11,89.01,103.36,92.27,103.05,95.47z"/>
	<path class="st2" d="M29.4,37.86c0-2.22,0-4.43,0-6.72c2.21,0.15,2.56,1.87,3.04,3.31c1.16,0,2.19,0,3.21,0
		c0.1-3.61-2.07-6.03-6.41-7.09c0-1.09,0-2.14,0-3.22c-1.21,0-2.3,0-3.51,0c0,1.16,0,2.21,0,3.22c-5.39,1.2-6.98,2.84-7,7.16
		c-0.02,4.37,1.47,5.95,6.91,7.27c0,2.24,0,4.48,0,6.82c-1.79-0.21-2.97-1.03-3.74-2.52c-0.19-0.36-0.54-0.85-0.87-0.9
		c-0.87-0.13-1.77-0.04-3.16-0.04c0.6,1.63,0.88,3.06,1.6,4.22c1.38,2.24,3.81,2.68,6.33,2.89c0,1.18,0,2.23,0,3.33
		c1.21,0,2.3,0,3.51,0c0-1.16,0-2.21,0-3.22c4.52-1.22,6.81-3.5,7-6.89C36.51,41.99,34.55,39.84,29.4,37.86z M25.69,37.88
		c-1.83,0.05-3.35-1.36-3.43-3.17c-0.08-1.83,1.39-3.36,3.43-3.47C25.69,33.45,25.69,35.66,25.69,37.88z M29.36,48.47
		c0-2.22,0-4.44,0-6.66c1.92,0.03,3.38,1.42,3.44,3.24C32.86,46.92,31.38,48.42,29.36,48.47z"/>
</g>
</svg>
