<?xml version="1.0" encoding="utf-8"?>
<!-- Generator: Adobe Illustrator 24.3.0, SVG Export Plug-In . SVG Version: 6.00 Build 0)  -->
<svg version="1.1" id="Layer_1" xmlns="http://www.w3.org/2000/svg" xmlns:xlink="http://www.w3.org/1999/xlink" x="0px" y="0px"
	 viewBox="0 0 115.98 129.9" style="enable-background:new 0 0 115.98 129.9;" xml:space="preserve">
<style type="text/css">
	.st0{fill:#001135;}
	.st1{fill:#FFFFFF;}
	.st2{fill:#3C7CFF;}
</style>
<g>
	<g>
		<path class="st0" d="M24.41,36.12c0.34-1.31,0.31-2.77,1.02-3.39c0.6-0.53,2.05-0.08,3.13-0.11c3.09-0.1,5.81-2.08,6.77-4.89
			c1.03-3.02,0.13-6.33-2.48-8.25c-1.33-0.98-1.48-1.8-0.32-2.9c1.63-1.56,3.25-3.13,4.91-4.66c0.92-0.85,1.67-0.66,2.43,0.38
			c2.26,3.08,5.69,4.12,8.85,2.86c2.48-0.99,5.24-3.97,4.45-8.16c-0.22-1.18,0.23-1.81,1.43-1.81c2.54,0.02,5.08,0.03,7.61,0.15
			c1.22,0.06,1.16,0.94,1.02,1.92c-0.6,4.12,1.37,7.33,5.14,8.53c2.86,0.91,5.92-0.01,7.88-2.6c1.01-1.34,1.86-1.36,2.93-0.23
			c1.55,1.64,3.12,3.26,4.66,4.91c0.8,0.86,0.67,1.56-0.33,2.28c-3.31,2.42-4.29,5.63-2.9,9.12c1.2,3.02,4.42,4.8,8.1,4.27
			c2.16-0.31,1.64,1.41,2.13,2.58c4.03,0,8.08,0,12.13,0c4.53,0,6.42,1.91,6.42,6.48c0,20.36,0,40.72,0,61.09c0,0.75,0,1.5,0,2.35
			c0.31,0.08,0.56,0.16,0.82,0.21c3.25,0.55,5.04,2.89,4.73,6.16c-0.68,7-6.19,12.14-13.25,12.26c-3.77,0.07-7.54,0.02-11.31,0.02
			c-25.17,0-50.34,0.01-75.52-0.01c-7.3,0-12.84-4.72-13.77-11.66c-0.54-4.02,1.18-6.28,5.46-6.9c0-0.7,0-1.43,0-2.16
			c0-20.48,0-40.96,0-61.44c0-1.91,0.15-3.88,1.83-5.01c1.13-0.76,2.62-1.28,3.97-1.34C16.35,36.01,20.35,36.12,24.41,36.12z
			 M18.45,96.57c26.37,0,52.66,0,79.01,0c0-16.26,0-32.4,0-48.75c-0.73,0-1.35,0-1.97,0c-4.87,0-9.74-0.02-14.61,0.06
			c-0.35,0.01-0.9,0.66-1.01,1.1c-0.76,3.12,0.13,5.78,2.7,7.69c1.3,0.97,1.31,1.75,0.25,2.78c-1.53,1.49-3.07,2.98-4.61,4.47
			c-1.13,1.1-2.04,1.02-2.93-0.38c-1.04-1.63-2.59-2.64-4.52-2.97c-5.13-0.87-9.11,2.79-8.63,8.1c0.16,1.75-0.5,2.38-2.06,2.35
			c-2.14-0.04-4.27-0.18-6.41-0.22c-1.55-0.03-1.7-0.86-1.59-2.19c0.11-1.29,0.14-2.73-0.31-3.9c-2.11-5.53-9.12-6.48-12.77-1.76
			c-0.88,1.14-1.62,1.4-2.65,0.33c-1.57-1.62-3.13-3.25-4.7-4.87c-1-1.03-0.9-1.8,0.36-2.63c2.24-1.48,3.27-3.68,3.3-6.35
			c0.01-1.08-0.29-1.68-1.61-1.66c-4.7,0.08-9.39,0.03-14.09,0.04c-0.38,0-0.76,0.12-1.16,0.19C18.45,64.23,18.45,80.34,18.45,96.57
			z M81.88,45.65c0.9,0,1.45,0,2,0c4.58,0,9.17,0.06,13.75-0.03c1.72-0.04,2.18,0.6,2.17,2.24c-0.05,16.31-0.05,32.61,0,48.92
			c0.01,1.68-0.54,2.2-2.21,2.19c-26.4-0.04-52.79-0.03-79.19-0.03c-2.17,0-2.24-0.07-2.24-2.27c0-16.25,0-32.49,0-48.74
			c0-0.12,0.01-0.23,0-0.35c-0.15-1.42,0.45-1.97,1.9-1.95c4.64,0.06,9.28,0.02,13.92,0.02c0.56,0,1.11,0,1.61,0
			c0.07-0.24,0.11-0.31,0.09-0.34c-0.08-0.15-0.16-0.31-0.28-0.43c-1.77-1.94-3.97-2.8-6.57-2.39c-1.55,0.24-2.16-0.34-2.17-1.83
			c-0.01-0.73-0.11-1.45-0.19-2.28c-3.94,0-7.7,0-11.47,0c-3.33,0-4.18,0.86-4.18,4.25c0,20.54,0,41.08,0,61.62c0,0.62,0,1.24,0,1.9
			c32.83,0,65.46,0,98.24,0c0-0.66,0-1.23,0-1.8c0-20.6,0-41.2,0-61.8c0-0.52,0.03-1.05-0.04-1.56c-0.22-1.42-1.06-2.49-2.47-2.53
			c-4.57-0.11-9.14-0.04-13.81-0.04c-0.08,1.04-0.13,1.95-0.22,2.86c-0.25,2.48-0.25,2.48-2.71,2.3
			C85.71,43.41,83.73,43.7,81.88,45.65z M54.52,68.73c1.78,0,3.46,0,5.17,0c0.02-4.65,1.8-8.08,6.07-9.8
			c4.41-1.78,8.14-0.42,11.31,3.03c1.29-1.21,2.52-2.37,3.82-3.58c-3.46-3.4-4.49-7.2-2.67-11.44c1.84-4.29,5.5-5.83,10.09-5.79
			c0-1.78,0-3.42,0-5.11c-4.57-0.1-8.11-1.79-9.81-6.05c-1.75-4.39-0.43-8.17,3.29-11.53c-1.32-1.2-2.58-2.34-3.89-3.53
			c-3.25,3.27-7,4.48-11.28,2.61c-4.33-1.88-5.93-5.56-5.88-10.17c-1.8,0-3.45,0-5.17,0c0.06,4.62-1.71,8.07-5.98,9.78
			c-4.39,1.76-8.15,0.44-11.41-3.06c-1.26,1.27-2.45,2.47-3.68,3.71c3.19,3.05,4.31,6.61,2.93,10.59c-1.66,4.77-5.42,6.66-10.4,6.53
			c0,1.79,0,3.43,0,5.12c4.42,0.09,7.87,1.76,9.64,5.79c1.95,4.46,0.64,8.36-3.21,11.97c1.27,1.3,2.44,2.51,3.61,3.7
			c4-3.74,7.32-4.64,11.23-3.09C52.83,60.19,54.78,63.73,54.52,68.73z M58.14,122.42c14.04,0,28.07,0,42.11-0.01
			c0.93,0,1.86-0.02,2.78-0.13c4.8-0.53,8.74-4.26,9.56-9.01c0.58-3.38-0.61-4.85-4.01-4.86c-11.72-0.01-23.43,0.01-35.15-0.02
			c-1.03,0-1.7,0.25-2.27,1.18c-1.17,1.93-2.4,3.84-3.79,5.62c-0.52,0.66-1.54,1.29-2.34,1.31c-4.69,0.12-9.4,0.12-14.09,0
			c-0.81-0.02-1.84-0.64-2.36-1.3c-1.36-1.72-2.57-3.58-3.69-5.47c-0.62-1.04-1.36-1.35-2.53-1.35
			c-11.54,0.04-23.08,0.02-34.62,0.02c-3.93,0-5.2,1.68-4.19,5.52c1.41,5.36,5.55,8.47,11.45,8.48
			C29.37,122.44,43.76,122.42,58.14,122.42z M69.14,108.57c-7.56,0-14.83,0-22.35,0c1.23,1.84,2.28,3.5,3.45,5.07
			c0.28,0.37,0.96,0.61,1.46,0.61c4.17,0.05,8.33,0.04,12.5,0.01c0.47,0,1.15-0.12,1.38-0.44C66.8,112.17,67.9,110.43,69.14,108.57z
			"/>
		<path class="st1" d="M81.88,45.65c1.85-1.95,3.83-2.23,5.95-2.07c2.46,0.18,2.46,0.18,2.71-2.3c0.09-0.91,0.14-1.82,0.22-2.86
			c4.67,0,9.24-0.07,13.81,0.04c1.4,0.03,2.25,1.11,2.47,2.53c0.08,0.51,0.04,1.04,0.04,1.56c0,20.6,0,41.2,0,61.8
			c0,0.57,0,1.14,0,1.8c-32.78,0-65.41,0-98.24,0c0-0.66,0-1.28,0-1.9c0-20.54,0-41.08,0-61.62c0-3.38,0.85-4.25,4.18-4.25
			c3.76,0,7.53,0,11.47,0c0.07,0.83,0.18,1.56,0.19,2.28c0.01,1.49,0.62,2.07,2.17,1.83c2.59-0.41,4.79,0.45,6.57,2.39
			c0.11,0.13,0.19,0.28,0.28,0.43c0.02,0.04-0.02,0.1-0.09,0.34c-0.5,0-1.06,0-1.61,0c-4.64,0-9.28,0.04-13.92-0.02
			c-1.45-0.02-2.05,0.53-1.9,1.95c0.01,0.11,0,0.23,0,0.35c0,16.25,0,32.49,0,48.74c0,2.2,0.07,2.27,2.24,2.27
			c26.4,0,52.79-0.01,79.19,0.03c1.66,0,2.21-0.51,2.21-2.19c-0.05-16.3-0.05-32.61,0-48.92c0-1.64-0.45-2.27-2.17-2.24
			c-4.58,0.1-9.17,0.03-13.75,0.03C83.33,45.65,82.78,45.65,81.88,45.65z"/>
		<path class="st2" d="M54.52,68.73c0.26-4.99-1.68-8.54-6.23-10.34c-3.9-1.54-7.23-0.64-11.23,3.09c-1.16-1.19-2.34-2.4-3.61-3.7
			c3.85-3.61,5.16-7.51,3.21-11.97c-1.77-4.03-5.22-5.7-9.64-5.79c0-1.68,0-3.33,0-5.12c4.97,0.13,8.74-1.77,10.4-6.53
			c1.38-3.98,0.26-7.53-2.93-10.59c1.23-1.24,2.42-2.44,3.68-3.71c3.26,3.5,7.02,4.82,11.41,3.06c4.27-1.71,6.04-5.16,5.98-9.78
			c1.73,0,3.38,0,5.17,0c-0.06,4.61,1.55,8.29,5.88,10.17c4.28,1.86,8.04,0.65,11.28-2.61c1.31,1.19,2.57,2.33,3.89,3.53
			c-3.72,3.36-5.04,7.14-3.29,11.53c1.7,4.26,5.24,5.95,9.81,6.05c0,1.69,0,3.33,0,5.11c-4.59-0.05-8.26,1.49-10.09,5.79
			c-1.82,4.25-0.79,8.05,2.67,11.44c-1.3,1.22-2.53,2.38-3.82,3.58c-3.17-3.46-6.9-4.81-11.31-3.03c-4.26,1.72-6.05,5.15-6.07,9.8
			C57.97,68.73,56.3,68.73,54.52,68.73z M57.7,22.26c-8.8-0.01-15.81,6.95-15.83,15.73c-0.02,8.77,7.02,15.86,15.73,15.86
			c8.88,0,15.75-7.05,15.77-16.17C73.4,29.06,66.49,22.27,57.7,22.26z"/>
		<path class="st1" d="M58.14,122.42c-14.38,0-28.77,0.02-43.15-0.01c-5.9-0.01-10.04-3.11-11.45-8.48
			c-1.01-3.84,0.26-5.52,4.19-5.52c11.54,0,23.08,0.01,34.62-0.02c1.17,0,1.91,0.3,2.53,1.35c1.13,1.89,2.33,3.75,3.69,5.47
			c0.52,0.66,1.54,1.28,2.36,1.3c4.69,0.12,9.4,0.12,14.09,0c0.81-0.02,1.82-0.65,2.34-1.31c1.39-1.78,2.62-3.68,3.79-5.62
			c0.57-0.93,1.24-1.18,2.27-1.18c11.72,0.03,23.43,0.01,35.15,0.02c3.39,0,4.59,1.47,4.01,4.86c-0.82,4.75-4.76,8.48-9.56,9.01
			c-0.92,0.1-1.85,0.12-2.78,0.13C86.21,122.42,72.18,122.42,58.14,122.42z"/>
		<path class="st0" d="M57.8,78.14c7.48,0,14.96,0.02,22.43-0.01c2.54-0.01,4.54,0.91,5.67,3.25c1.86,3.86-0.86,8.11-5.26,8.14
			c-6.67,0.06-13.33,0.02-20,0.02c-8.64,0-17.27,0.02-25.91-0.01c-3.07-0.01-5.25-1.88-5.86-4.9c-0.48-2.36,0.97-5.02,3.44-6
			c0.94-0.37,2.03-0.47,3.05-0.48C42.85,78.12,50.32,78.14,57.8,78.14z M70.58,80.45c-0.73,0-1.36,0-1.99,0
			c-10.48,0-20.96,0-31.44,0c-0.93,0-1.85-0.03-2.78,0.02c-1.86,0.1-3.17,1.39-3.26,3.17c-0.09,1.77,1.1,3.24,2.9,3.53
			c0.57,0.09,1.15,0.09,1.73,0.09c11,0.01,22,0.01,33.01,0c0.61,0,1.22-0.06,1.83-0.09C70.58,84.84,70.58,82.72,70.58,80.45z
			 M72.99,87.19c2.87,0,5.58,0.1,8.27-0.04c1.69-0.08,2.85-1.47,2.97-3.1c0.11-1.52-0.87-3.31-2.33-3.41
			c-2.95-0.2-5.92-0.06-8.91-0.06C72.99,82.83,72.99,84.9,72.99,87.19z"/>
		<path class="st0" d="M57.7,22.26c8.78,0.01,15.7,6.8,15.68,15.41c-0.02,9.12-6.9,16.17-15.77,16.17
			c-8.72,0-15.75-7.09-15.73-15.86C41.89,29.21,48.9,22.25,57.7,22.26z M44.48,36.02c8.83,0,17.56,0,26.29,0
			c0.12-6.01-6.05-11.41-13.01-11.49C50.78,24.44,44.58,29.74,44.48,36.02z M71.67,38.46c-9.61,0-18.53,0-27.99,0
			c0.84,2.33,1.54,4.43,2.38,6.47c0.15,0.37,0.91,0.69,1.38,0.69c6.79,0.04,13.57,0.05,20.36,0c0.53,0,1.35-0.37,1.52-0.78
			C70.17,42.84,70.83,40.78,71.67,38.46z M66.44,47.94c-5.98,0-11.8,0-17.72,0C52.88,52.74,62.78,52.74,66.44,47.94z"/>
		<path class="st1" d="M71.67,38.46c-0.83,2.32-1.5,4.38-2.35,6.37c-0.18,0.41-1,0.78-1.52,0.78c-6.79,0.05-13.57,0.05-20.36,0
			c-0.48,0-1.23-0.32-1.38-0.69c-0.85-2.04-1.54-4.14-2.38-6.47C53.14,38.46,62.05,38.46,71.67,38.46z"/>
	</g>
	<rect x="99.36" y="114.2" class="st2" width="5.22" height="2.78"/>
	<rect x="92.75" y="114.2" class="st2" width="5.22" height="2.78"/>
	<rect x="86.49" y="114.2" class="st2" width="5.22" height="2.78"/>
</g>
</svg>
