<?xml version="1.0" encoding="utf-8"?>
<!-- Generator: Adobe Illustrator 25.0.0, SVG Export Plug-In . SVG Version: 6.00 Build 0)  -->
<svg version="1.1" id="Layer_1" xmlns="http://www.w3.org/2000/svg" xmlns:xlink="http://www.w3.org/1999/xlink" x="0px" y="0px"
	 viewBox="0 0 168.56 168.56" style="enable-background:new 0 0 168.56 168.56;" xml:space="preserve">
<style type="text/css">
	.st0{fill:#00B0FB;}
	.st1{fill:#00B0FB;fill-opacity:0.4;}
	.st2{fill:#FFFFFF;}
	.st3{fill:#185AE9;}
	.st4{fill-rule:evenodd;clip-rule:evenodd;fill:#00B0FB;}
	.st5{fill:none;}
	.st6{fill:#3C7CFF;}
	.st7{fill:#001135;}
	.st8{fill:#8DB849;}
	.st9{fill:#5A863E;}
	.st10{fill:#FFFFFE;}
	.st11{fill:#009CDE;}
	.st12{fill:#FCB415;}
	.st13{opacity:0.2;fill:#FFFFFF;enable-background:new    ;}
	.st14{fill:#68B345;}
	.st15{fill:#0A99D6;}
	.st16{opacity:0.1;fill:#010101;enable-background:new    ;}
	.st17{fill:#EE3325;}
	.st18{fill:url(#SVGID_2_);}
	.st19{fill:#B3B3B3;}
	.st20{fill:#A6120D;}
	.st21{fill:#DD1B16;}
	.st22{fill:#F2F2F2;}
	.st23{fill:#FF2D20;}
	.st24{clip-path:url(#SVGID_3_);fill:#F9C638;}
	.st25{fill:#2A2D2C;}
	.st26{fill:#F9C638;}
	.st27{fill:#FDFDFD;}
	.st28{fill:#DBDBDB;}
	.st29{fill:#FBFBFB;}
	.st30{fill:#121212;}
	.st31{fill:#FCFCFC;}
	.st32{fill:#D2D3D3;}
	.st33{fill:#F6F6F6;}
	.st34{fill:#BABBBB;}
	.st35{fill:#8A8A8A;}
	.st36{fill:#8E8F8F;}
	.st37{fill:#5F5E5E;}
	.st38{fill:#00769D;}
	.st39{clip-path:url(#SVGID_4_);fill:#F9C638;}
	.st40{fill:#92003B;}
</style>
<g>
	<path class="st2" d="M140.25,50.23c-3.34,0-6.05,2.72-6.05,6.05c0,3.34,2.71,6.05,6.05,6.05s6.05-2.72,6.05-6.05
		C146.31,52.94,143.59,50.23,140.25,50.23z"/>
	<circle class="st2" cx="63.75" cy="56.28" r="6.05"/>
	<path class="st2" d="M102.63,89.88c-3.34,0-6.05,2.72-6.05,6.05s2.71,6.05,6.05,6.05s6.05-2.72,6.05-6.05
		S105.97,89.88,102.63,89.88z"/>
	<path class="st6" d="M162.91,28.63H5.99c0,0-0.22-0.01-0.23-0.01c-0.36,0-0.59,0.08-0.78,0.25c-0.21,0.19-0.33,0.47-0.33,0.75
		v104.49c0,3.3,2.68,5.98,5.98,5.98h3.69c0.56,0,1.01-0.45,1.01-1.01v-9.5c0-1.28,1.04-2.32,2.32-2.32h21.32
		c1.28,0,2.32,1.04,2.32,2.32v33.32c0,0.56,0.45,1.01,1.01,1.01h9.33c0.56,0,1.01-0.45,1.01-1.01V92.75c0-1.28,1.04-2.32,2.32-2.32
		h21.32c1.28,0,2.32,1.04,2.32,2.32v70.15c0,0.56,0.45,1.01,1.01,1.01h9.33c0.56,0,1.01-0.45,1.01-1.01v-41.98
		c0-1.28,1.04-2.32,2.32-2.32h21.32c1.28,0,2.32,1.04,2.32,2.32v41.98c0,0.56,0.45,1.01,1.01,1.01h9.33c0.56,0,1.01-0.45,1.01-1.01
		V87.78c0-1.28,1.04-2.32,2.32-2.32h21.32c1.28,0,2.32,1.04,2.32,2.32v51.31c0,0.56,0.45,1.01,1.01,1.01h3.69
		c3.3,0,5.98-2.68,5.98-5.98V29.64C163.92,29.08,163.47,28.63,162.91,28.63z M44.2,42.46c0.49-0.49,1.16-0.76,1.85-0.76
		c0.69,0,1.35,0.27,1.85,0.77c0.48,0.48,0.76,1.15,0.76,1.84c0,0.69-0.28,1.36-0.76,1.84c-0.49,0.49-1.16,0.77-1.84,0.77
		c-0.7,0-1.35-0.28-1.85-0.77c-0.48-0.48-0.76-1.15-0.76-1.84C43.44,43.62,43.72,42.95,44.2,42.46z M17.65,41.7h15.99
		c1.44,0,2.61,1.17,2.61,2.61c0,1.44-1.17,2.61-2.61,2.61H17.65c-1.44,0-2.61-1.17-2.61-2.61C15.04,42.87,16.21,41.7,17.65,41.7z
		 M15.04,60.3c0-1.44,1.17-2.61,2.61-2.61h15.99c1.44,0,2.61,1.17,2.61,2.61c0,1.44-1.17,2.61-2.61,2.61H17.65
		C16.21,62.91,15.04,61.74,15.04,60.3z M140.25,67.54c-1.44,0-2.83-0.27-4.13-0.79c-0.09-0.04-0.18-0.05-0.27-0.05
		c-0.19,0-0.37,0.07-0.51,0.21l-22.72,22.73c-0.23,0.23-0.28,0.58-0.12,0.86c0.93,1.68,1.4,3.51,1.4,5.43
		c0,6.22-5.05,11.28-11.26,11.28c-6.22,0-11.28-5.06-11.28-11.28c0-2.1,0.58-4.14,1.67-5.9c0.18-0.29,0.13-0.66-0.1-0.89
		L70.04,66.27c-0.14-0.14-0.32-0.21-0.51-0.21c-0.12,0-0.24,0.03-0.35,0.09c-1.66,0.91-3.54,1.4-5.43,1.4
		c-1.73,0-3.39-0.38-4.94-1.14c-0.1-0.05-0.21-0.07-0.32-0.07c-0.19,0-0.37,0.07-0.51,0.21L38.07,86.45
		c-0.23,0.23-0.28,0.58-0.12,0.86c0.93,1.67,1.41,3.5,1.41,5.43c0,6.22-5.06,11.28-11.28,11.28c-6.21,0-11.26-5.06-11.26-11.28
		c0-6.21,5.05-11.26,11.26-11.26c1.9,0,3.79,0.48,5.45,1.4c0.11,0.06,0.23,0.09,0.35,0.09c0.19,0,0.37-0.07,0.51-0.21l19.68-19.68
		c0.24-0.24,0.28-0.61,0.1-0.89c-1.11-1.78-1.7-3.82-1.7-5.91c0-6.22,5.06-11.28,11.28-11.28c6.21,0,11.26,5.06,11.26,11.28
		c0.01,1.87-0.47,3.74-1.4,5.43c-0.15,0.28-0.1,0.63,0.12,0.86l23.11,23.11c0.14,0.14,0.32,0.21,0.51,0.21
		c0.11,0,0.22-0.03,0.32-0.08c1.5-0.75,3.21-1.15,4.95-1.15c1.89,0,3.77,0.48,5.44,1.4c0.11,0.06,0.23,0.09,0.35,0.09
		c0.19,0,0.37-0.07,0.51-0.21l22.14-22.12c0.25-0.25,0.28-0.65,0.07-0.94c-1.41-1.94-2.16-4.22-2.16-6.61
		c0-6.22,5.06-11.28,11.28-11.28s11.28,5.06,11.28,11.28C151.53,62.49,146.47,67.54,140.25,67.54z"/>
	<path class="st2" d="M152.91,4.64H15.65c-6.07,0-11.01,4.94-11.01,11.01v7.35c0,0.29,0.12,0.56,0.33,0.75
		c0.18,0.17,0.42,0.26,0.68,0.26c0.2-0.01,0.29-0.02,0.33-0.02h156.92c0.56,0,1.01-0.45,1.01-1.01v-7.33
		C163.92,9.58,158.98,4.64,152.91,4.64z M22.16,16.16c-0.49,0.49-1.16,0.77-1.84,0.77c-0.69,0-1.36-0.28-1.85-0.77
		c-0.49-0.48-0.76-1.16-0.76-1.84c0-0.69,0.28-1.36,0.76-1.85c0.49-0.49,1.16-0.76,1.85-0.76c0.68,0,1.36,0.28,1.84,0.76
		c0.49,0.49,0.77,1.16,0.77,1.85S22.64,15.67,22.16,16.16z M35.48,16.16c-0.49,0.49-1.16,0.77-1.84,0.77
		c-0.69,0-1.36-0.28-1.85-0.77c-0.49-0.48-0.76-1.16-0.76-1.84c0-0.69,0.28-1.36,0.76-1.85c0.49-0.49,1.16-0.76,1.85-0.76
		c0.68,0,1.36,0.28,1.84,0.76c0.49,0.49,0.77,1.16,0.77,1.85S35.97,15.67,35.48,16.16z M48.81,16.16c-0.49,0.49-1.16,0.77-1.84,0.77
		c-0.69,0-1.36-0.28-1.85-0.77c-0.49-0.48-0.76-1.16-0.76-1.84c0-0.69,0.28-1.36,0.76-1.85c0.49-0.49,1.16-0.76,1.85-0.76
		c0.7,0,1.35,0.27,1.85,0.77c0.48,0.49,0.76,1.16,0.76,1.84S49.3,15.67,48.81,16.16z M148.25,16.92H72.97
		c-1.44,0-2.61-1.17-2.61-2.61s1.17-2.61,2.61-2.61h75.27c1.44,0,2.61,1.17,2.61,2.61S149.69,16.92,148.25,16.92z"/>
	<path class="st2" d="M28.08,86.69c-3.34,0-6.05,2.72-6.05,6.05s2.71,6.05,6.05,6.05s6.05-2.71,6.05-6.05S31.42,86.69,28.08,86.69z"
		/>
	<path class="st7" d="M35.64,131.91H20.98c-0.56,0-1.01,0.45-1.01,1.01v29.99c0,0.56,0.45,1.01,1.01,1.01h14.66
		c0.56,0,1.01-0.45,1.01-1.01v-29.99C36.65,132.37,36.2,131.91,35.64,131.91z"/>
	<path class="st7" d="M72.95,95.07H58.29c-0.56,0-1.01,0.45-1.01,1.01v66.82c0,0.56,0.45,1.01,1.01,1.01h14.66
		c0.56,0,1.01-0.45,1.01-1.01V96.09C73.96,95.53,73.51,95.07,72.95,95.07z"/>
	<path class="st7" d="M110.27,123.25H95.61c-0.56,0-1.01,0.45-1.01,1.01v38.65c0,0.56,0.45,1.01,1.01,1.01h14.66
		c0.56,0,1.01-0.45,1.01-1.01v-38.65C111.28,123.7,110.83,123.25,110.27,123.25z"/>
	<path class="st7" d="M147.58,90.1h-14.66c-0.56,0-1.01,0.45-1.01,1.01v71.8c0,0.56,0.45,1.01,1.01,1.01h14.66
		c0.56,0,1.01-0.45,1.01-1.01v-71.8C148.59,90.55,148.14,90.1,147.58,90.1z"/>
	<path class="st7" d="M152.91,0H15.65C7.02,0,0,7.02,0,15.65v118.47c0,5.86,4.76,10.62,10.62,10.62h3.69c0.56,0,1.01,0.45,1.01,1.01
		v17.16c0,0.56-0.45,1.01-1.01,1.01H2.32c-1.28,0-2.32,1.04-2.32,2.32c0,1.28,1.04,2.32,2.32,2.32h163.92
		c1.28,0,2.32-1.04,2.32-2.32c0-1.28-1.04-2.32-2.32-2.32h-11.99c-0.56,0-1.01-0.45-1.01-1.01v-17.16c0-0.56,0.45-1.01,1.01-1.01
		h3.69c5.86,0,10.62-4.77,10.62-10.62V15.65C168.56,7.02,161.54,0,152.91,0z M36.65,162.91c0,0.56-0.45,1.01-1.01,1.01H20.98
		c-0.56,0-1.01-0.45-1.01-1.01v-29.99c0-0.56,0.45-1.01,1.01-1.01h14.66c0.56,0,1.01,0.45,1.01,1.01V162.91z M73.96,162.91
		c0,0.56-0.45,1.01-1.01,1.01H58.29c-0.56,0-1.01-0.45-1.01-1.01V96.09c0-0.56,0.45-1.01,1.01-1.01h14.66
		c0.56,0,1.01,0.45,1.01,1.01V162.91z M111.28,162.91c0,0.56-0.45,1.01-1.01,1.01H95.61c-0.56,0-1.01-0.45-1.01-1.01v-38.65
		c0-0.56,0.45-1.01,1.01-1.01h14.66c0.56,0,1.01,0.45,1.01,1.01V162.91z M148.59,162.91c0,0.56-0.45,1.01-1.01,1.01h-14.66
		c-0.56,0-1.01-0.45-1.01-1.01v-71.8c0-0.56,0.45-1.01,1.01-1.01h14.66c0.56,0,1.01,0.45,1.01,1.01V162.91z M163.92,134.12
		c0,3.3-2.68,5.98-5.98,5.98h-3.69c-0.56,0-1.01-0.45-1.01-1.01V87.78c0-1.28-1.04-2.32-2.32-2.32h-21.32
		c-1.28,0-2.32,1.04-2.32,2.32v75.13c0,0.56-0.45,1.01-1.01,1.01h-9.33c-0.56,0-1.01-0.45-1.01-1.01v-41.98
		c0-1.28-1.04-2.32-2.32-2.32H92.28c-1.28,0-2.32,1.04-2.32,2.32v41.98c0,0.56-0.45,1.01-1.01,1.01h-9.33
		c-0.56,0-1.01-0.45-1.01-1.01V92.75c0-1.28-1.04-2.32-2.32-2.32H54.96c-1.28,0-2.32,1.04-2.32,2.32v70.15
		c0,0.56-0.45,1.01-1.01,1.01H42.3c-0.56,0-1.01-0.45-1.01-1.01v-33.32c0-1.28-1.04-2.32-2.32-2.32H17.65
		c-1.28,0-2.32,1.04-2.32,2.32v9.5c0,0.56-0.45,1.01-1.01,1.01h-3.69c-3.3,0-5.98-2.68-5.98-5.98V29.62c0-0.29,0.12-0.56,0.33-0.75
		c0.19-0.17,0.43-0.25,0.78-0.25c0.01,0,0.23,0.01,0.23,0.01h156.92c0.56,0,1.01,0.45,1.01,1.01V134.12z M163.92,22.98
		c0,0.56-0.45,1.01-1.01,1.01H5.99c-0.05,0-0.14,0.01-0.33,0.02c-0.25,0-0.49-0.09-0.68-0.26c-0.21-0.19-0.33-0.46-0.33-0.75v-7.35
		c0-6.07,4.94-11.01,11.01-11.01h137.27c6.07,0,11.01,4.94,11.01,11.01V22.98z"/>
	<path class="st7" d="M148.25,11.71H72.97c-1.44,0-2.61,1.17-2.61,2.61s1.17,2.61,2.61,2.61h75.27c1.44,0,2.61-1.17,2.61-2.61
		S149.69,11.71,148.25,11.71z"/>
	<path class="st7" d="M33.64,11.71c-0.69,0-1.36,0.28-1.85,0.76c-0.49,0.49-0.76,1.16-0.76,1.85c0,0.69,0.28,1.36,0.76,1.84
		c0.49,0.49,1.16,0.77,1.85,0.77c0.68,0,1.36-0.28,1.84-0.77c0.49-0.49,0.77-1.16,0.77-1.84s-0.28-1.36-0.77-1.85
		C35,11.98,34.32,11.71,33.64,11.71z"/>
	<path class="st7" d="M20.31,11.71c-0.69,0-1.36,0.28-1.85,0.76c-0.49,0.49-0.76,1.16-0.76,1.85c0,0.69,0.28,1.36,0.76,1.84
		c0.49,0.49,1.16,0.77,1.85,0.77c0.68,0,1.36-0.28,1.84-0.77c0.49-0.49,0.77-1.16,0.77-1.84s-0.28-1.36-0.77-1.85
		C21.67,11.98,21,11.71,20.31,11.71z"/>
	<path class="st7" d="M46.97,11.71c-0.69,0-1.36,0.28-1.85,0.76c-0.49,0.49-0.76,1.16-0.76,1.85c0,0.69,0.28,1.36,0.76,1.84
		c0.49,0.49,1.16,0.77,1.85,0.77c0.68,0,1.36-0.28,1.84-0.77c0.49-0.49,0.77-1.16,0.77-1.84s-0.28-1.36-0.76-1.84
		C48.32,11.98,47.66,11.71,46.97,11.71z"/>
	<path class="st7" d="M140.25,45c-6.22,0-11.28,5.06-11.28,11.28c0,2.39,0.75,4.67,2.16,6.61c0.21,0.29,0.18,0.69-0.07,0.94
		l-22.14,22.12c-0.14,0.14-0.32,0.21-0.51,0.21c-0.12,0-0.24-0.03-0.35-0.09c-1.66-0.91-3.54-1.4-5.44-1.4
		c-1.74,0-3.45,0.4-4.95,1.15c-0.1,0.05-0.21,0.08-0.32,0.08c-0.19,0-0.37-0.07-0.51-0.21L73.74,62.57
		c-0.23-0.23-0.28-0.58-0.12-0.86c0.93-1.69,1.41-3.56,1.4-5.43c0-6.22-5.05-11.28-11.26-11.28c-6.22,0-11.28,5.06-11.28,11.28
		c0,2.09,0.59,4.13,1.7,5.91c0.18,0.29,0.14,0.66-0.1,0.89L34.39,82.76c-0.14,0.14-0.32,0.21-0.51,0.21c-0.12,0-0.24-0.03-0.35-0.09
		c-1.66-0.91-3.54-1.4-5.45-1.4c-6.21,0-11.26,5.05-11.26,11.26c0,6.22,5.05,11.28,11.26,11.28c6.22,0,11.28-5.06,11.28-11.28
		c0-1.93-0.47-3.76-1.41-5.43c-0.16-0.28-0.11-0.64,0.12-0.86l19.91-19.91c0.14-0.14,0.32-0.21,0.51-0.21
		c0.11,0,0.22,0.02,0.32,0.07c1.55,0.75,3.21,1.14,4.94,1.14c1.89,0,3.77-0.48,5.43-1.4c0.11-0.06,0.23-0.09,0.35-0.09
		c0.19,0,0.37,0.07,0.51,0.21l22.88,22.88c0.24,0.24,0.28,0.61,0.1,0.89c-1.09,1.76-1.67,3.8-1.67,5.9
		c0,6.22,5.06,11.28,11.28,11.28c6.21,0,11.26-5.06,11.26-11.28c0-1.92-0.47-3.75-1.4-5.43c-0.16-0.28-0.11-0.63,0.12-0.86
		l22.72-22.73c0.14-0.14,0.32-0.21,0.51-0.21c0.09,0,0.18,0.02,0.27,0.05c1.29,0.52,2.68,0.79,4.13,0.79
		c6.22,0,11.28-5.05,11.28-11.26C151.53,50.06,146.47,45,140.25,45z M28.08,98.8c-3.34,0-6.05-2.71-6.05-6.05s2.71-6.05,6.05-6.05
		s6.05,2.72,6.05,6.05S31.42,98.8,28.08,98.8z M63.75,62.33c-3.34,0-6.05-2.72-6.05-6.05c0-3.34,2.72-6.05,6.05-6.05
		s6.05,2.72,6.05,6.05C69.8,59.62,67.09,62.33,63.75,62.33z M102.63,101.99c-3.34,0-6.05-2.72-6.05-6.05s2.71-6.05,6.05-6.05
		s6.05,2.72,6.05,6.05S105.97,101.99,102.63,101.99z M140.25,62.33c-3.34,0-6.05-2.72-6.05-6.05c0-3.34,2.71-6.05,6.05-6.05
		s6.05,2.72,6.05,6.05C146.31,59.62,143.59,62.33,140.25,62.33z"/>
	<path class="st7" d="M46.05,46.92c0.68,0,1.36-0.28,1.84-0.77c0.49-0.49,0.76-1.16,0.76-1.84c0-0.69-0.28-1.36-0.76-1.84
		c-0.5-0.49-1.15-0.76-1.85-0.77c-0.69,0-1.36,0.28-1.85,0.76c-0.48,0.48-0.76,1.16-0.76,1.85c0,0.69,0.28,1.36,0.76,1.84
		C44.7,46.64,45.36,46.91,46.05,46.92z"/>
	<path class="st7" d="M17.65,46.92h15.99c1.44,0,2.61-1.17,2.61-2.61c0-1.44-1.17-2.61-2.61-2.61H17.65c-1.44,0-2.61,1.17-2.61,2.61
		C15.04,45.75,16.21,46.92,17.65,46.92z"/>
	<path class="st7" d="M33.64,62.91c1.44,0,2.61-1.17,2.61-2.61c0-1.44-1.17-2.61-2.61-2.61H17.65c-1.44,0-2.61,1.17-2.61,2.61
		c0,1.44,1.17,2.61,2.61,2.61H33.64z"/>
</g>
</svg>
