<?xml version="1.0" encoding="utf-8"?>
<!-- Generator: Adobe Illustrator 25.0.0, SVG Export Plug-In . SVG Version: 6.00 Build 0)  -->
<svg version="1.1" id="Layer_1" xmlns="http://www.w3.org/2000/svg" xmlns:xlink="http://www.w3.org/1999/xlink" x="0px" y="0px"
	 viewBox="0 0 564.27 478" style="enable-background:new 0 0 564.27 478;" xml:space="preserve">
<style type="text/css">
	.st0{fill:#185AE9;}
	.st1{fill:#00B0FB;}
	.st2{fill:#00B0FB;fill-opacity:0.4;}
	.st3{fill:#FFFFFF;}
	.st4{fill:#3C7CFF;}
	.st5{fill:#3C7CFF;stroke:#001135;stroke-width:0.7602;stroke-miterlimit:10;}
	.st6{fill:#001135;}
	.st7{fill:#0A0A0A;}
	.st8{fill:#DBDBDB;}
	.st9{fill:#FDFDFD;}
	.st10{fill:#030303;}
	.st11{fill:none;}
	.st12{fill:#010101;}
	.st13{fill:#020202;}
	.st14{fill:#181818;}
	.st15{fill:#1C1C1C;}
	.st16{fill:#171717;}
	.st17{fill:#090909;}
	.st18{fill:#060606;}
	.st19{fill:#070707;}
	.st20{fill:#191919;}
	.st21{fill:#FBFBFB;}
	.st22{fill:#FCFCFC;}
	.st23{fill:#050505;}
	.st24{fill:#0B0B0B;}
	.st25{fill:#040404;}
	.st26{fill:#FAFAFA;}
	.st27{fill:#FBFAFB;}
	.st28{fill:#0C0C0C;}
</style>
<g>
	<g>
		<path d="M217.21,460.92c0.17-5.26,1.86-10.17,3.9-14.98c5.48-12.72,13.33-23.95,21.76-34.8c4.88-6.28,9.96-12.38,15.2-18.33
			c1.52-1.73,3.06-3.45,4.61-5.15c2.36-2.61,4.77-5.19,7.2-7.74c1.74-1.83,3.49-3.65,5.26-5.45c6.01-6.14,12.18-12.14,18.46-18.02
			c0.89-0.84,1.79-1.67,2.7-2.51c0.68-0.64,1.37-1.28,2.06-1.91c4.12-3.8,8.29-7.56,12.48-11.27c0.26-0.24,0.52-0.47,0.79-0.7
			c4.23-3.75,8.5-7.46,12.81-11.12c0.59-0.5,1.19-1.01,1.79-1.51c0.57-0.49,1.15-0.98,1.74-1.46c0.17-0.15,0.35-0.29,0.52-0.43
			c10.51-8.84,21.23-17.43,32.15-25.73c1.07-0.81,2.14-1.62,3.22-2.44c0.15-0.11,0.3-0.23,0.45-0.34c3.47-2.62,6.97-5.2,10.48-7.77
			c3.23-2.35,6.47-4.68,9.73-6.97c1.17-0.84,2.35-1.67,3.53-2.49c11.53-8.07,23.28-15.85,35.24-23.33c1.83-1.15,3.67-2.29,5.51-3.42
			c1.12-0.69,2.24-1.38,3.36-2.06c5.73-3.49,11.51-6.91,17.35-10.22c1.54-0.88,3.09-1.75,4.65-2.61c14.94-8.3,30.27-15.85,46.2-22.2
			c13.97-5.54,28.14-10.4,43.57-11.02c2.2,0.23,4.58,0.17,6.9,0.51c8.81,1.41,13.56,6.95,13.44,15.82
			c-0.04,4.81-1.36,9.27-3.11,13.67c-4.57,11.59-11.35,21.88-18.7,31.77c-9.17,12.33-19.13,23.93-29.64,35.03
			c-1.43,1.52-2.88,3.02-4.33,4.52c-1,1.04-2.02,2.07-3.03,3.1c-0.97,1-1.95,1.98-2.93,2.96c-1.76,1.76-3.53,3.5-5.31,5.25
			c-0.03,0.03-0.07,0.07-0.11,0.1c-0.94,0.93-1.9,1.85-2.85,2.76c-0.2,0.2-0.4,0.39-0.6,0.57c0,0.03-0.01,0.03-0.01,0.03
			c-0.12,0.11-0.23,0.22-0.35,0.33c-2.87,2.77-5.78,5.52-8.71,8.24c-1.03,0.96-2.07,1.91-3.1,2.86c-0.71,0.67-1.43,1.33-2.15,1.99
			c-0.7,0.64-1.41,1.28-2.12,1.92c-0.53,0.48-1.06,0.98-1.61,1.46c-0.56,0.51-1.12,1.01-1.68,1.5c-2.26,2.05-4.54,4.07-6.83,6.08
			c-0.28,0.23-0.55,0.48-0.82,0.71c-0.1,0.09-0.19,0.18-0.29,0.26c-0.58,0.5-1.15,1-1.73,1.5c-0.27,0.24-0.54,0.48-0.8,0.69
			c-2.78,2.42-5.57,4.81-8.38,7.17c-1.14,0.97-2.27,1.92-3.41,2.87c-1.06,0.89-2.12,1.76-3.19,2.64c-2.21,1.83-4.45,3.66-6.69,5.47
			c-0.01,0-0.01,0-0.01,0.01c-2.18,1.76-4.36,3.51-6.55,5.24c-0.2,0.16-0.41,0.32-0.61,0.48c-0.93,0.74-1.86,1.48-2.8,2.21
			c-0.92,0.72-1.84,1.43-2.76,2.14c-1.2,0.95-2.41,1.88-3.63,2.81c-3.76,2.89-7.54,5.76-11.35,8.58c-0.81,0.61-1.62,1.22-2.43,1.82
			c-1.77,1.31-3.54,2.61-5.32,3.9c-1.03,0.75-2.06,1.49-3.09,2.23c-2.56,1.87-5.15,3.71-7.74,5.54c-0.05,0.03-0.09,0.07-0.14,0.1
			c-0.15,0.11-0.29,0.2-0.44,0.31c-0.84,0.59-1.66,1.17-2.51,1.75c-0.16,0.11-0.32,0.22-0.48,0.33c-0.09,0.07-0.19,0.14-0.29,0.2
			c-3.62,2.55-7.25,5.05-10.92,7.52c-2.47,1.69-4.95,3.35-7.44,4.99c-1,0.67-2,1.34-3.02,1.98c-0.26,0.17-0.5,0.33-0.76,0.5
			c-0.89,0.59-1.78,1.17-2.68,1.76c-1.06,0.67-2.11,1.36-3.17,2.04c-4.61,2.94-9.26,5.84-13.95,8.67c-1.07,0.66-2.14,1.3-3.21,1.94
			c-0.8,0.48-1.59,0.95-2.38,1.42c-1.06,0.63-2.13,1.26-3.2,1.89c-6.44,3.76-12.94,7.41-19.54,10.93c-3.81,2.03-7.64,4.02-11.5,5.95
			c-0.98,0.51-1.96,0.99-2.94,1.49c-3.01,1.49-6.03,2.95-9.06,4.37v0.01c-1.34,0.62-2.67,1.24-4.01,1.84
			c-2.28,1.04-4.58,2.05-6.89,3.03c-9.41,3.99-19.04,7.48-29.02,10.12c-8.64,2.26-17.35,3.95-26.38,2.82
			C221.9,476.4,216.87,470.64,217.21,460.92z"/>
		<g>
			<path d="M229.93,238.23c3.05,6.28,6.61,12.22,11.42,17.38c4.01,4.29,8.28,8.39,11.17,13.62c1,1.81,2.68,2.91,4.53,3.73
				c3.51,1.54,7,3.11,10.54,4.56c2.74,1.12,4.83,2.76,5.93,5.65c1.29,3.38,2.79,6.68,4.22,10c0.55,1.28,0.54,2.63,0.54,3.98
				c-0.01,4.17,0.77,8.19,2.22,12.09c1.27,3.42,3.13,6.47,6.4,8.23c3.77,2.04,6.79,5.12,10.52,7.22c4.8,2.7,9.57,3.43,14.54,0.58
				c0.73-0.42,1.48-0.82,2.39-0.77c3.33,0.2,6.48-0.52,9.57-2.2c0.25,3.26-0.6,6.22-1.04,9.23c-0.29,1.97-0.57,3.94-0.47,5.94
				c0.18,3.48,1.66,6.34,4.47,8.34c1.26,0.9,1.39,1.83,1.25,3.21c-0.68,6.91-3.14,13.51-3.52,20.48c-0.19,3.45-0.71,6.88-1.1,10.46
				h37.96c-0.19-3.74-0.13-7.4,0.05-11.03c0.83-0.16,1.62-0.17,1.64,0.66c0.08,3.44,0.03,6.89,0.03,10.37h49.2
				c1.09-2.23,2.91-4.27,5.59-5.85c8.67-5.12,16.12-11.29,25.01-15.61c-0.75-3.98-1.47-7.96-1.92-12c0.88-0.8,2.15-0.83,3.26-1.19
				c3.26-1.05,4.61-2.77,4.65-6.25c0.05-3.41,0.02-6.83,0.03-10.24c0-1.14,0.02-2.27,0.46-3.61c3.78,1.69,7.6,3.09,11.54,4.2
				c3.29,0.93,6.61,1.6,10.02,1.97c6.08,0.65,11.03-1.46,14.98-6c1.97-2.26,4.01-4.39,6.47-6.13c2.69-1.91,3.85-4.69,3.86-7.92
				c0-6.68,0.12-13.37,0.52-20.04c0.14-2.43-1.2-4.03-2.77-5.49c-1.18-1.1-1.66-2.19-1.35-3.9c0.48-2.66,0.57-5.44-0.73-7.94
				c-4.05-7.81-5.6-16.32-7.14-24.85c-1.93-10.69-3.54-21.44-6.45-31.93c-0.7-2.53-1.58-5-2.73-7.38c-2.17-4.45-6.16-6.74-10.3-8.86
				c-12.37-6.36-24.75-12.71-37.14-19.02c-0.99-0.5-1.72-1.15-2.36-2.04c-2.68-3.65-4.3-7.83-5.95-11.98
				c-0.99-2.5-2.63-4.23-5.04-5.15c-1.42-0.54-1.61-1.33-1.25-2.59c0.79-2.73,1.67-5.42,2.87-8.01c0.33-0.71,0.88-1.03,1.48-1.43
				c6.7-4.4,9.33-10.94,9.68-18.64c0.03-0.56,0-1.22-0.27-1.66c-1.57-2.52-0.73-4.93,0.04-7.46c1.38-4.52,2-9.16,1.24-13.89
				c-0.59-3.66-2.02-6.94-4.75-9.63c0.51-1.45,1.06-2.93,0.28-4.49c-0.88,0.11-1.04,1.21-2.06,1.26c-0.76-5.21-3.22-9.36-7.96-12.19
				c0.07,0.7,0.13,1.22,0.18,1.73c0,0.06-0.07,0.12-0.33,0.52c-3.88-3.51-8.42-5.78-13.69-7.27c0.32,0.73,0.51,1.16,0.71,1.6
				c0.14,0.19,0.28,0.38,0.42,0.57c-0.33,0.18-0.62,0.17-0.86-0.15c-4.46-1.95-9.07-3.25-14.15-3.23c0.15,0.99,1.08,1.31,1.51,2.24
				c-4.88-0.49-9.65-1.04-14.52-1.14c0.21,1.33,1.44,1.65,2.03,2.71c-4.54,0.27-8.66,2.01-13.2,2.5c0.66,1.31,1.91,1.6,3.02,2.45
				c-3.56,1.02-6.99,1.36-10.74,1.12c0.87,1.8,2.33,2.78,3.78,4.2c-2.07,0.17-3.86,0.05-5.78-0.37c0.4,2.45,1.84,4.09,3.17,5.84
				c-2.69,2.42-2.08,5.24-0.87,8.04c0.48,1.11,0.6,2.08,0.35,3.26c-1.3,6.01-1.9,12.06-0.71,18.19c0.35,1.79-0.26,3.54-0.62,5.26
				c-1.69,7.99,0.35,15.5,2.84,22.96c1.78,5.33,3.92,10.5,6.66,15.41c0.53,0.95,0.33,1.5-0.3,2.22c-2.97,3.35-5.92,6.71-8.84,10.11
				c-0.6,0.7-1.42,0.93-2.19,1.25c-9.06,3.73-18.04,7.65-27.21,11.07c-7.37,2.75-11.69,7.69-13.76,15.22
				c-3.39,12.32-6.11,24.81-9.3,37.18c-1.05,4.05-2.2,8.08-3.35,12.11c-0.73,2.54-3.15,3.75-4.6,5.93
				c-1.35-1.83-2.11-3.62-1.88-5.82c0.69-6.61-1.08-12.49-5.23-17.71c-2.45-3.08-4.12-6.62-5.46-10.31
				c-0.41-1.13-0.9-2.24-1.45-3.31c-1.39-2.72-2.96-3.68-5.32-3.37c-2.6,0.34-4.61,2.26-5.1,5.02c-0.6,3.34,0.19,6.49,1.45,9.55
				c0.56,1.35,1.14,2.69,1.73,4.06c-0.33,0.08-0.48,0.17-0.59,0.14c-8.91-2.5-18.17-4.11-25.6-10.35c-2.3-1.94-5.12-3.05-8.06-3.7
				c-2.26-0.5-4.25-0.09-5.47,2.14c-0.25,0.46-0.55,0.71-1.04,0.95C229.34,234.05,228.67,235.63,229.93,238.23z M384.12,93.63
				c-4.9,2.59-10.61,1.14-15.14-2.58c2.64,1,5.32-0.42,8.28,0.2c-1.13,0.45-2.13,0.26-3.21,1.18
				C377.35,94.23,380.65,93.75,384.12,93.63z M394.25,87.44c-2.77-0.97-5.68-1.02-8.58-1.32c2.08-0.78,4.2-0.75,6.26-0.07
				C392.75,86.33,393.98,86.19,394.25,87.44z M394.76,87.47c-0.14-0.01-0.27-0.01-0.41-0.02c0.12-0.04,0.23-0.09,0.35-0.13
				C394.7,87.33,394.74,87.42,394.76,87.47z M407.87,97.35c-1.37,0.74-2.65,0.45-4.07-0.37c-2.4-1.39-5.25-1.4-8.1-2.13
				C400.4,93.52,404.19,95.47,407.87,97.35z M411.64,110.8c1.71-2.22,3.5-3.99,4.5-6.66C416.39,107.44,415.11,109.33,411.64,110.8z
				 M417.88,112.61c0.36-2.11,1.6-3.97,1.86-6.18C420.45,108.87,419.66,110.89,417.88,112.61z M407.98,153.86
				c0.5,0.92,1.55,0.44,1.88,1.31c-0.54,5.83-0.83,11.73-0.28,17.62c0.11,1.2-0.15,2-0.93,2.83c-2.75,2.89-5.67,5.61-8.86,7.99
				c-6.65,4.96-12.02,10.91-15.59,18.47c-1.3,2.75-2.96,5.33-4.61,8.26c-1.92-5.02-4.21-9.43-6.74-13.7
				c-0.35-0.6-0.72-1.2-0.55-1.99c0.48-2.21-0.02-4.39-0.31-6.56c-0.34-2.52-0.78-5.03-1.17-7.54c2.06,2.4,4.47,2.62,7.16,2.02
				c2.37-0.53,4.63-1.34,6.77-2.48c4.75-2.53,8.83-5.96,12.67-9.66c3.17-3.05,6.37-6.11,8.59-9.98c0.57-0.99,1.3-2.02,0.72-3.76
				c-5.42,6.02-12.18,9.47-19.07,12.72c-5.01,2.36-10.12,4.07-15.83,2.88c-2.69-0.56-4.72-1.77-6.13-4.12
				c-2.01-3.37-3.44-7.02-4.81-10.66c-3.22-8.58-5.64-17.29-3.34-26.61c0.29-1.17,0.56-1.99,1.91-2.06c0.54,1.2,1.19,2.4,2.68,2.39
				c1.68-0.01,2.3-1.41,2.93-2.73c0.96,0.37,1.85,0.71,2.83,1.08c-0.73-3.52-5.16-4.72-10.16-2.84c-0.16-0.97-0.31-1.9-0.46-2.8
				c4.14-1.27,7.5,1.76,11.29,1.69c0.18-3.3-0.35-4.09-3.02-5.02c-2.63-0.92-5.39-1.04-8.27-1.22c0.41-5.29,0.65-10.47,2.64-15.35
				c1.2-2.94,4.82-4.72,7.82-3.81c4.9,1.48,9.75,1.64,14.66,0.01c1.52-0.51,3.14-1.07,4.8-0.69c3.32,0.75,6.61,1.59,9.98,2.41
				c-0.64,0.87-1.87,0.68-2.28,1.78c3.12,1.32,6.38,1.54,9.81,1.47c-0.26,0.62-0.51,1.04-0.63,1.51c-1.04,4.07-2.38,8.31,0.57,12.04
				c2.77,3.5,3.51,7.34,3.14,11.58c-0.21,2.39-0.45,4.78-0.67,7.15c4.07,0.72,4.15,0.76,5.75-2.76c1.14-2.51,2.83-4.37,5.31-5.56
				c3.47-1.67,6.35-0.06,6.26,3.76c-0.13,5.49-2.11,10.24-6.34,13.91c-1.15,0.99-2.5,1.91-3.99,1.85
				C410.2,148.5,409.41,151.54,407.98,153.86z M479.16,293c-6.7-6.7-15.51-6.9-24.3-7.35c4.97-2.77,10.15-4.89,15.92-4.56
				c7.9,0.45,14.81,3.56,21,8.41c0.81,0.64,0.87,1.37,0.84,2.23c-0.16,6.17-0.28,12.34-0.49,18.51c-0.09,2.78-1.19,4.76-2.91,5.77
				C488.94,307,485.48,299.31,479.16,293z M418.63,299.25c0.7-0.58,1.43-1.14,2.11-1.75c0.36-0.32,0.77-0.7,0.43-1.28
				c-0.31-0.52-0.81-0.49-1.32-0.37c-1.11,0.25-2.2,0.56-3.32,0.75c-4.53,0.79-8.34-0.36-10.96-4.33c-1.09-1.65-1.98-3.44-2.94-5.18
				c-0.48-0.88-0.87-1.86-1.79-2.33c-2.93-1.46-6-2.45-9.25-2.58c-1.25,2.69-1.4,2.89-2.45,2.59c-1.31-0.37-2.26-1.19-2.43-2.65
				c-0.37-3.13,2.66-6.6,5.78-6.59c2.99,0.01,5.97,0.09,8.96,0.08c1.01,0,2.15,0.11,2.71-1.04c-0.43-0.91-1.17-0.85-1.87-0.88
				c-1.99-0.08-3.98-0.05-5.96-0.26c-4-0.41-7.84-0.45-10.59,3.21c-0.04,0.06-0.25,0-0.41-0.01c-0.71-0.89-0.87-1.93-0.63-3
				c0.65-2.98,4.53-6.13,7.65-6.14s6.25,0.16,9.38,0.18c1.49,0.01,3.1,0.21,4.19-1.22c-0.55-0.86-1.33-0.68-2-0.71
				c-1.84-0.1-3.73,0.08-5.53-0.24c-5.91-1.05-10.96,0.29-15.03,4.83c-0.09,0.1-0.22,0.18-0.33,0.27c-1.88,1.56-3.9,1.39-5.86-0.68
				c1.78-1.93,3.24-4.03,5.18-5.51c4.06-3.1,8.25-6.04,13.91-5.27c3.09,0.42,6.24,0.38,9.36,0.5c0.89,0.04,1.87,0.1,2.31-0.98
				c-0.38-0.45-0.86-0.58-1.36-0.59c-3.28-0.05-6.52-0.52-9.75-1.02c-4.28-0.66-8.18,0.08-11.74,2.59
				c-1.12,0.78-2.38,1.27-3.79,1.23c-1.13-0.03-2.23-0.33-2.63-1.45c-0.44-1.25,0.74-1.74,1.54-2.23c4.19-2.58,8.7-4.48,13.33-6.1
				c1.87-0.65,3.7-0.7,5.63-0.09c4.27,1.34,8.44,2.92,12.58,4.61c1.65,0.67,2.65,1.84,3.12,3.52c0.66,2.4,1.31,4.79,2.34,7.07
				c0.19,0.42,0.59,0.88-0.02,1.3c-1.06,0.73-0.61,1.65-0.23,2.47c2.14,4.63,4.1,9.36,6.59,13.82c0.47,0.84,0.96,1.76,2.28,1.89
				c1.17-1.72-0.34-3.58,0.23-5.35c0.56,0.24,1.15,0.46,1.72,0.73c11.56,5.57,23.45,9.75,36.56,9.31c3.99-0.13,7.65,1.08,10.86,3.68
				c6.44,5.22,10.44,19.46,5.46,28.19c-2.23,3.91-4.11,5.16-8.58,4.76c-5.2-0.46-10.15-1.91-15.08-3.56
				C442.24,318.48,431.13,307.73,418.63,299.25z M428.95,349.08c1.18-0.44,2.14-0.69,3.42-0.68c0.41,3.22,0.83,6.48,1.24,9.74
				c-1.2,0.56-2.28,0.67-3.52,0.53C429.57,355.42,428.99,352.25,428.95,349.08z M405.44,352.35c1.48-0.04,2.78-0.71,4.28-0.35
				c0.32,3.39,0.63,6.67,0.94,9.89c-1.58,0.49-2.9,0.65-4.53,0.54C405.73,359.04,405.27,355.79,405.44,352.35z M395.88,348
				c-6.75-0.28-13.41-1.48-20.13-2.08c-2.23-0.2-3.25-1.17-3.97-3.08c-1.34-3.57-1.03-7.22-0.71-10.87
				c1.5-17.06,3.05-34.11,4.59-51.16c0.2-2.22,0.49-4.44,0.75-6.79c1.78,0.72,3.36,0.6,4.84,0.64c0.81,1.36,0.38,3.1,1.38,4.27
				c1.21,1.41,0.46,3.19,1.15,4.65c0.33,0.7,0.62,1.45,1.07,2.07c1.94,2.62,5.85,3.21,7.86,1.25c1.9-1.85,2.53-1.88,4.66-0.23
				c-0.13,1.29-1.02,1.96-2.06,2.49c-2.84,1.43-3.63,3.89-3.2,6.79c0.62,4.15,2.8,7.23,6.68,8.99c5.04,2.28,10.09,4.53,15.15,6.79
				c2.62,1.17,5.25,2.32,8.22,3.64c-11.98,7.34-24.28,13.23-36.63,19.04c5-0.76,9.54-2.78,14.06-4.75
				c8.2-3.58,16.09-7.79,23.79-12.36c1.38-0.82,2.57-0.85,3.56,0.42c0.96,1.22,0.56,2.45-0.42,3.45c-1.19,1.22-2.44,2.38-3.73,3.5
				c-5.19,4.54-10.41,9.03-15.59,13.58c-0.76,0.67-1.64,1.34-1.7,2.54c0.98,0.57,1.73,0.01,2.45-0.35c2.55-1.25,5.11-2.49,7.58-3.88
				c5.62-3.17,11.17-6.49,16.8-9.64c2.16-1.2,3.26-0.78,3.89,1.43c1.23,4.32,1.27,8.69-0.14,13c-0.38,1.17-1.1,1.84-2.43,2.03
				c-2.59,0.36-5.16,0.94-7.74,1.41C415.97,346.57,406.04,348.42,395.88,348z M375.94,261.85c-0.23-0.23-0.52-0.44-0.61-0.72
				c-0.83-2.36-2.23-2.32-4.01-1.04c-0.75,0.54-1.56,0.77-2.65-0.04c2.32-1.31,4.78-1.45,7.15-2.95
				C375.4,259.03,375.77,260.44,375.94,261.85z M376.02,261.93c-0.02-0.02-0.03-0.03-0.05-0.05l0.07-0.05L376.02,261.93z
				 M356.76,349.97c8.12,0.34,15.99-0.06,24.09,0.83c0,4.47-0.07,8.58,0.03,12.7c0.04,1.57-0.61,1.94-1.99,1.94
				c-4.19-0.01-8.38,0.16-12.57,0.07c-3.24-0.08-6.5-0.15-9.56-0.88V349.97z M340.62,361.09c-1.06-0.34-2.05-0.25-2.79-1.08
				c0.27-3.47,0.55-6.97,0.85-10.67c1.16-0.09,2.13-0.19,3.19,0.31C341.37,353.43,341.58,357.3,340.62,361.09z M330.51,361.6
				c3.44,0.69,7.46,2.54,8.47,3.84c-0.2,0.09-0.39,0.25-0.57,0.24c-0.7-0.06-1.41-0.15-2.1-0.27c-4.43-0.83-4.38-0.82-5.06,3.58
				c-0.36,2.3-0.54,4.67-1.52,6.85C329.54,371.09,329.9,366.42,330.51,361.6z M323.07,239.72c-0.79-10.5-1.22-21-0.78-31.53
				c0.03-0.68,0.38-1.62-1.32-2.1c-3,16.32-1.36,32.58-0.77,48.87c-1.89-3.28-2.42-7.06-4.21-10.36c-0.77,1.5-0.62,2.97-0.43,4.42
				c0.63,4.81,1.78,9.54,3.57,14.01c2.26,5.65,3.04,11.45,3,17.44c-0.13-0.01-0.3,0.03-0.39-0.04c-6.53-5.14-13.8-8.34-22.19-8.86
				c-1.91-0.12-2.77-2.13-1.74-3.71c0.46-0.71,0.98-1.43,1.64-1.95c1.82-1.45,2.69-3.35,3.3-5.55c3.25-11.77,6.24-23.6,8.94-35.51
				c1.35-5.94,2.69-11.91,5.08-17.57c1.42-3.37,3.54-5.79,7.08-7.16c7.54-2.92,14.98-6.12,22.47-9.18c2.26-0.92,4.4-2.2,6.81-2.63
				c0.37,0.54,0.11,0.95,0.04,1.34c-0.92,5.1-1.85,10.2-2.79,15.29c-0.23,1.27-0.68,2.68,0.72,3.45c1.38,0.77,2.57-0.05,3.64-0.98
				c1.72-1.48,3.4-3.03,5.24-4.36c2.42-1.75,3.84-1.59,6.09,0.37c2.31,2.02,4.36,4.28,6.19,6.74c0.87,1.17,1.8,2.29,2.93,3.72
				c0.26-1.9-0.32-3.2-0.96-4.41c-1.73-3.26-3.55-6.47-5.39-9.67c-0.96-1.66-1.95-3.32-3.28-4.71c-1.99-2.08-3.74-2.01-5.54,0.19
				c-0.49,0.6-0.93,1.26-1.38,1.89c-1.61,2.23-3.02,4.6-5.13,6.52c0.69-4.55,1.51-9.04,2.45-13.52c0.42-2,0.29-4.26,1.55-5.91
				c2.46-3.21,5.19-6.22,7.83-9.28c0.36-0.42,0.73-1.23,1.53-0.56c0.66,0.56,0.04,1.01-0.18,1.48c-2.33,5.14-2.69,10.2,0.21,15.31
				c1.82,3.21,3.33,6.59,5.06,9.85c5.74,10.8,7.46,22.17,5.55,34.26c-0.93,5.87-1.13,11.85-1.66,17.83c1.62,0,2.33-0.55,2.46-2.2
				c0.38-4.81,1.09-9.6,1.44-14.42c0.49-6.78,2.2-13.51,0.88-20.37c-0.18-0.93,0.34-1.64,0.72-2.4c2.92-5.93,6.47-11.5,9.76-17.23
				c1.31-2.28,3.05-4.25,5.14-5.92c5-4,9.77-8.26,14.29-12.79c1.51-1.52,2.88-3.15,3.96-5c1.4-2.41,1.11-3.75-1.18-5.31
				c-0.64-0.44-0.71-0.99-0.97-1.89c2.45,0.31,3.9,1.41,4.68,3.46c1.57,4.11,3.35,8.14,5.5,11.99c0.53,0.95,0.44,1.62-0.1,2.51
				c-2.14,3.52-4.2,7.09-6.3,10.63c-2.57,4.32-5.15,8.64-7.96,13.36c-1.59-3.3-3.03-6.21-4.41-9.14c-0.78-1.67-1.46-3.41-2.65-4.84
				c-1.91-2.3-4.14-2.28-5.78,0.16c-2.09,3.13-4.04,6.35-6.03,9.54c-0.32,0.51-0.82,1.03-0.38,1.77c0.86,0.43,1.48-0.22,2.11-0.59
				c1.83-1.09,3.63-2.23,5.68-2.9c2.8-0.91,3.82-0.62,5.44,1.78c1.11,1.64,2.07,3.39,3.13,5.07c1.85,2.95,4.33,2.98,6.1,0.01
				c3.56-5.98,7.06-11.99,10.59-17.98c1.11-1.88,2.24-3.73,3.43-5.71c1.08,0.56,2.02,1.05,2.96,1.54
				c11.71,6.09,23.33,12.36,35.16,18.21c5.76,2.84,9.16,7.06,10.69,13.18c2.35,9.38,4.23,18.84,5.89,28.35
				c1.78,10.13,3.15,20.39,8.11,29.66c0.31,0.58,0.85,1.4-0.07,2.15c-1.21-0.71-2.41-1.46-3.64-2.12c-1.78-0.95-2.51-1.05-3.95-0.64
				c3.17,2.08,6.96,3.46,7.97,8.26c-12.67-7.8-24.99-7.48-37.23,0.09c-2.11-5.52-3.72-10.66-1.47-16.23
				c1.11-2.76,1.86-5.66,2.87-8.47c1.9-5.28,3.87-10.53,5.05-16.03c0.25-1.16,0.73-2.38-0.15-4.04
				c-3.85,8.78-7.54,17.18-11.25,25.64c-0.99-1.25-0.98-2.56-1.05-3.81c-0.65-11.06,0.68-21.85,4.78-32.2
				c3.23-8.14,7.62-15.42,15.72-19.72c0.15-0.08,0.21-0.3,0.55-0.8c-2.35,0.01-4.05,0.89-5.64,1.99c-3.49,2.43-6.27,5.55-8.51,9.15
				c-5.04,8.1-7.65,17.05-9.14,26.38c-0.68,4.23-0.85,8.51-0.95,13.25c-2.74-3.7-3.37-7.83-5.46-11.3c-0.5,1.37-0.51,2.7-0.3,4
				c0.6,3.72,1.44,7.39,2.6,10.98c0.48,1.49,0.99,3,0.76,4.58c-0.72,4.98-2.29,9.74-3.53,14.43c-7.86-1.97-12.9-6.61-14.82-14.42
				c-0.3-1.23-0.84-2.41-1.25-3.62c-1.18-3.47-2.06-7.08-4.99-9.72c1.07-0.37,1.93-0.72,2.81-0.95c1.81-0.49,2.46-1.48,1.73-3.32
				c-0.5-1.25-0.89-2.55-1.23-3.85c-0.41-1.56-1.19-2.03-2.81-1.55c-4.07,1.23-8.2,2.28-12.28,3.49c-1.16,0.35-2.22,0.75-3.45,0.29
				c-3.06-1.15-5.94-0.55-8.85,0.75c-3.82,1.71-7.49,3.72-11.41,5.24c-6.29,2.44-13.15,3.55-18.54,8.13
				c-1.55,1.32-3.5,2.15-5.23,3.28c-0.84,0.54-1.67,1.21-1.22,2.43c0.43,1.18,1.43,1.22,2.47,1.15c5.08-0.36,10.16-0.62,15.2-1.38
				c0.6-0.09,1.22-0.4,1.95,0.01c-0.03,0.46-0.07,0.94-0.09,1.43c-0.49,9.51-1.5,18.98-2.37,28.47
				c-0.97,10.61-1.93,21.23-2.85,31.85c-0.49,5.6-2.33,11.22,0.33,16.93c-6.34-0.18-11.87-2.3-17.28-4.88
				c-5.32-2.54-10.12-5.95-15.19-8.96c3.76,5.7,9.44,9.12,14.85,12.9c-5.88-0.17-11.7-0.06-17.44-1.18
				c-5.99-1.17-7.96-3.87-7.13-9.9c0.33-2.37,0.97-4.71,1.18-7.09c0.73-8.34,1.39-16.67,1-25.09c-0.47-10.17-1.79-20.23-2.9-30.33
				C325.19,260.79,323.87,250.29,323.07,239.72z M360.39,265.99c-0.36-1.79-0.36-1.79,3.61-4.04c0.34,1.29,0.69,2.58,1.08,4.04
				H360.39z M319.74,318.92c1.92-2.21,3.35-4.52,4.81-7.18C324.47,317.48,323.74,318.58,319.74,318.92z M297.85,319.43
				c6.02-0.04,9.91-3.45,13.03-8.01c4.27-6.23,5.07-13.2,4.46-20.54c-0.35-4.17-1.92-7.36-5.39-9.78c-2.43-1.69-4.6-3.73-6.89-5.62
				c-0.16-0.06-0.42-0.08-0.26-0.32c0.05-0.08,0.34,0,0.52,0.01c6.24,1.25,11.76,4.02,16.74,7.94c1.07,0.84,1.62,1.91,1.87,3.22
				c0.94,4.91,1.09,9.87,0.92,14.85c-0.31,8.81-4.76,15.1-12.02,19.61C306.47,323.48,301.94,322.95,297.85,319.43z M290.83,314.98
				c-0.02-0.08-0.04-0.16-0.06-0.25c0.09,0.03,0.18,0.06,0.27,0.09L290.83,314.98z M282.88,303.55c2.23,3.94,5.03,7.48,7.75,11.07
				C285.72,312.57,284.12,308.19,282.88,303.55z M253.32,246.3c-1.11-4.73-3.37-7.57-9.17-6.32c-1.08-3.74-5.28-4.01-7.78-6.66
				c1.39-0.4,2.45-0.14,3.5,0.23c2.51,0.9,4.64,2.41,6.73,4.02c4.1,3.17,8.91,5.09,13.72,6.57c2.77,0.85,5.75,1.33,8.51,2.41
				c3.27,1.28,6.54,0.92,9.83,0.25c0.63-0.13,1.42-0.32,1.35-1.3c-0.33-0.4-0.77-0.46-1.18-0.4c-1.72,0.25-2.54-0.6-3.12-2.13
				c-0.77-2.05-1.76-4.02-2.62-6.04c-0.71-1.66-0.98-3.4-0.85-5.2c0.12-1.74,0.83-3.09,2.65-3.38c1.76-0.28,2.22,1.18,2.71,2.44
				c2.17,5.57,4.75,10.88,8.21,15.82c3.44,4.9,4.09,10.35,1.6,15.97c-0.6,1.36-0.77,2.67-0.33,4.12c0.8,2.65,0.88,5.3-0.23,7.92
				c-0.26,0.62-0.7,1.34,0.3,1.97c2.56-2.14,3.13-5.23,3.62-8.48c1.93,2.18,3.64,4.16,5.41,6.09c3.88,4.22,8.69,7.3,13.29,10.62
				c1.28,0.92,1.98,1.97,2.23,3.62c0.42,2.84,0.43,5.65,0.41,8.49c-0.04,6.28-3.19,10.57-8.54,13.45c-1.43,0.77-2.97,1.35-4.44,2.04
				c-1.52,0.71-2.72,0.48-3.98-0.75c-5.44-5.33-9.75-11.41-12.95-18.34c-2.3-4.99-3.88-10.33-7.11-14.89
				c2.01-0.43,4.24,0.08,5.94-2.05c-1.31-0.3-2.37-0.62-3.46-0.78c-6.3-0.92-12.26-2.97-18.1-5.42c-3.84-1.61-5.77-4.96-6.59-8.63
				c-0.9-4.04,0.2-8.15,1.18-12.12c2.25-0.02,3.22,0.82,3.39,3.18c0.12,1.69-0.05,3.41-0.09,5.11c-0.09,3.14,2.6,4.91,3.25,7.94
				c1.85-1.55,0.74-3.04,1.02-4.44c2.75,1.78,5.66,2.18,8.81,1.94c3.68-0.29,7.28,0.33,11.08,2.41c-0.98-2.73-2.81-3.29-4.62-3.78
				c-2.65-0.71-5.37-0.51-8.06-0.39c-1.68,0.07-3.22-0.2-4.76-0.86c-4.21-1.81-4.22-1.78-4.12-6.37
				C260.09,248.95,258.46,247.01,253.32,246.3z M245.72,242.66c2.77-0.3,4.32,0.83,4.92,3.53c1.05,4.76,0.03,9.48-0.14,14.53
				C244.75,255.45,246.42,248.8,245.72,242.66z M233.98,238.51c3.8-1.4,6.84-0.02,8.51,3.7c1.57,3.5,1.44,7.29,1.94,11.42
				C239.25,249.31,237.69,243.24,233.98,238.51z"/>
			<path class="st8" d="M417.03,169.09c1.57,4.11,3.35,8.14,5.5,11.99c0.53,0.95,0.44,1.63-0.1,2.51c-2.14,3.52-4.2,7.09-6.3,10.63
				c-2.57,4.32-5.15,8.64-7.96,13.36c-1.59-3.3-3.03-6.21-4.41-9.14c-0.78-1.67-1.46-3.4-2.65-4.84c-1.91-2.3-4.14-2.28-5.78,0.16
				c-2.09,3.13-4.04,6.35-6.03,9.54c-0.32,0.51-0.82,1.03-0.38,1.77c0.86,0.43,1.48-0.22,2.11-0.59c1.83-1.09,3.63-2.23,5.68-2.9
				c2.8-0.91,3.82-0.62,5.44,1.78c1.11,1.64,2.07,3.39,3.13,5.07c1.85,2.95,4.33,2.98,6.1,0.01c3.56-5.98,7.06-11.99,10.59-17.98
				c1.11-1.88,2.24-3.73,3.43-5.71c1.08,0.56,2.02,1.05,2.96,1.54c11.71,6.09,23.33,12.36,35.16,18.2
				c5.76,2.84,9.16,7.06,10.69,13.18c2.35,9.38,4.23,18.84,5.89,28.36c1.78,10.13,3.15,20.39,8.11,29.66
				c0.31,0.58,0.85,1.4-0.07,2.15c-1.21-0.71-2.41-1.46-3.64-2.12c-1.78-0.95-2.51-1.05-3.95-0.64c3.17,2.08,6.96,3.46,7.97,8.26
				c-12.67-7.8-24.99-7.48-37.23,0.09c-2.11-5.52-3.72-10.66-1.47-16.23c1.11-2.76,1.86-5.66,2.87-8.47
				c1.9-5.28,3.87-10.53,5.05-16.03c0.25-1.16,0.73-2.38-0.15-4.04c-3.85,8.78-7.54,17.18-11.25,25.64
				c-0.99-1.25-0.98-2.56-1.05-3.81c-0.65-11.06,0.68-21.85,4.78-32.2c3.23-8.14,7.62-15.42,15.72-19.72
				c0.15-0.08,0.21-0.3,0.55-0.8c-2.35,0.01-4.05,0.89-5.64,1.99c-3.49,2.43-6.27,5.55-8.51,9.15c-5.04,8.1-7.65,17.05-9.14,26.38
				c-0.68,4.23-0.85,8.51-0.95,13.25c-2.74-3.7-3.37-7.83-5.46-11.3c-0.5,1.37-0.51,2.7-0.3,4c0.6,3.72,1.44,7.39,2.6,10.98
				c0.48,1.49,0.99,3,0.76,4.58c-0.72,4.98-2.29,9.74-3.53,14.43c-7.86-1.97-12.9-6.61-14.82-14.42c-0.3-1.23-0.84-2.41-1.25-3.62
				c-1.18-3.47-2.06-7.08-4.99-9.72c1.07-0.37,1.93-0.72,2.81-0.95c1.81-0.49,2.46-1.48,1.73-3.32c-0.5-1.25-0.89-2.55-1.23-3.85
				c-0.41-1.56-1.19-2.03-2.81-1.55c-4.07,1.23-8.2,2.28-12.28,3.49c-1.16,0.35-2.22,0.75-3.45,0.29c-3.06-1.15-5.94-0.55-8.85,0.75
				c-3.82,1.71-7.49,3.72-11.41,5.24c-6.29,2.44-13.15,3.55-18.54,8.13c-1.55,1.32-3.5,2.15-5.23,3.28
				c-0.84,0.54-1.67,1.21-1.22,2.43c0.43,1.18,1.43,1.22,2.47,1.15c5.08-0.36,10.16-0.61,15.2-1.38c0.6-0.09,1.22-0.4,1.95,0.01
				c-0.03,0.46-0.07,0.94-0.09,1.43c-0.49,9.51-1.5,18.98-2.37,28.47c-0.97,10.61-1.93,21.23-2.85,31.85
				c-0.49,5.6-2.33,11.22,0.33,16.93c-6.34-0.18-11.87-2.3-17.28-4.88c-5.32-2.54-10.12-5.95-15.19-8.96
				c3.76,5.7,9.44,9.12,14.85,12.9c-5.88-0.17-11.7-0.06-17.44-1.18c-5.99-1.17-7.96-3.87-7.13-9.9c0.33-2.37,0.97-4.71,1.18-7.09
				c0.73-8.34,1.39-16.67,1-25.09c-0.47-10.17-1.79-20.23-2.9-30.33c-1.16-10.52-2.48-21.03-3.28-31.59
				c-0.79-10.5-1.22-21-0.78-31.53c0.03-0.68,0.38-1.62-1.32-2.1c-3,16.32-1.36,32.58-0.77,48.87c-1.89-3.28-2.42-7.06-4.21-10.36
				c-0.77,1.5-0.62,2.97-0.43,4.42c0.63,4.81,1.78,9.54,3.57,14.01c2.26,5.65,3.04,11.45,3,17.44c-0.13-0.01-0.3,0.03-0.39-0.04
				c-6.53-5.14-13.8-8.34-22.19-8.86c-1.91-0.12-2.77-2.13-1.74-3.71c0.46-0.71,0.98-1.43,1.64-1.95c1.82-1.45,2.69-3.35,3.3-5.55
				c3.25-11.77,6.24-23.6,8.94-35.51c1.35-5.94,2.69-11.91,5.08-17.57c1.42-3.37,3.54-5.79,7.08-7.16
				c7.54-2.92,14.98-6.12,22.47-9.18c2.26-0.92,4.4-2.2,6.81-2.63c0.37,0.54,0.11,0.95,0.04,1.34c-0.92,5.1-1.85,10.2-2.79,15.29
				c-0.23,1.27-0.68,2.68,0.72,3.45c1.38,0.77,2.57-0.05,3.64-0.98c1.72-1.48,3.4-3.03,5.24-4.36c2.42-1.75,3.84-1.59,6.09,0.37
				c2.31,2.02,4.36,4.28,6.19,6.74c0.87,1.17,1.8,2.29,2.93,3.72c0.26-1.9-0.32-3.2-0.96-4.41c-1.73-3.26-3.55-6.47-5.39-9.67
				c-0.96-1.66-1.95-3.32-3.28-4.71c-1.99-2.08-3.74-2.01-5.54,0.19c-0.49,0.6-0.92,1.26-1.38,1.89c-1.61,2.23-3.02,4.6-5.13,6.52
				c0.69-4.55,1.51-9.04,2.45-13.52c0.42-2,0.29-4.26,1.55-5.91c2.46-3.21,5.19-6.22,7.83-9.28c0.36-0.42,0.73-1.23,1.53-0.56
				c0.66,0.56,0.04,1.01-0.18,1.48c-2.33,5.14-2.69,10.2,0.21,15.31c1.82,3.21,3.33,6.59,5.06,9.85c5.74,10.8,7.46,22.17,5.55,34.26
				c-0.93,5.87-1.13,11.85-1.66,17.83c1.62,0,2.33-0.55,2.46-2.2c0.38-4.81,1.09-9.6,1.44-14.42c0.49-6.78,2.2-13.51,0.88-20.37
				c-0.18-0.93,0.34-1.64,0.72-2.4c2.92-5.93,6.47-11.5,9.76-17.23c1.31-2.28,3.05-4.25,5.14-5.92c5-4,9.77-8.26,14.29-12.79
				c1.51-1.52,2.88-3.15,3.96-5c1.4-2.41,1.11-3.75-1.18-5.31c-0.64-0.44-0.71-0.99-0.97-1.89
				C414.8,165.94,416.25,167.04,417.03,169.09z M344.46,321.9c0.97-1.07,0.57-1.92,0.31-2.64c-3.29-9.21-7.04-18.24-10.66-27.32
				c-0.04-0.1-0.22-0.14-1.03-0.61C336.45,301.97,339.46,312.16,344.46,321.9z M455.5,276.03c4.67,0.83,19.29-9.21,20.45-14.05
				C469.59,267.32,462.27,271.27,455.5,276.03z M422.89,193.72c10.48,4.29,20.35,9.09,29.81,14.68
				C447.9,203.25,425.6,192.02,422.89,193.72z M300.86,268.34c2.99,0.95,6.08,0.75,8.94,1.65c2.9,0.91,5.4,2.62,8.19,4.09
				C315.72,268.11,303.91,264.48,300.86,268.34z M366.11,289.65c-1.61,0.29-2.5,1.29-2.36,2.97c0.12,1.44,1.65,2.65,2.99,2.37
				c1.59-0.33,2.41-1.35,2.43-2.81C368.96,290.56,367.52,289.39,366.11,289.65z M360.73,325.62c0.04,1.39,1.43,2.72,2.83,2.57
				c1.6-0.17,2.66-1.13,2.63-2.76c-0.03-1.62-1.04-2.53-2.4-2.66C361.92,322.77,360.68,324.05,360.73,325.62z M371.97,236.09
				c1.58-0.07,2.64-1.02,2.77-2.68c0.11-1.38-1.28-2.71-2.72-2.7c-1.4,0.01-2.63,1.34-2.62,2.82
				C369.62,235.03,370.35,236.17,371.97,236.09z M386.38,214.03c1.71-0.11,2.4-1.32,2.51-2.85c0.11-1.4-0.82-2.2-2.05-2.13
				c-1.68,0.11-2.27,1.43-2.38,2.86C384.51,213.27,385.07,214.11,386.38,214.03z"/>
			<path class="st9" d="M387.67,169.4c-5.01,2.36-10.12,4.07-15.83,2.88c-2.69-0.56-4.72-1.77-6.13-4.12
				c-2.01-3.37-3.44-7.02-4.81-10.66c-3.22-8.58-5.64-17.29-3.34-26.61c0.29-1.16,0.56-1.99,1.91-2.06c0.54,1.2,1.19,2.4,2.68,2.39
				c1.68-0.01,2.3-1.41,2.93-2.73c0.96,0.37,1.85,0.71,2.83,1.09c-0.73-3.52-5.16-4.72-10.16-2.84c-0.16-0.97-0.31-1.9-0.46-2.8
				c4.14-1.27,7.5,1.76,11.29,1.69c0.18-3.3-0.35-4.09-3.02-5.02c-2.63-0.92-5.39-1.04-8.27-1.22c0.41-5.29,0.65-10.47,2.64-15.35
				c1.2-2.94,4.82-4.72,7.82-3.81c4.9,1.48,9.75,1.64,14.66,0.01c1.52-0.51,3.14-1.07,4.8-0.69c3.32,0.75,6.61,1.59,9.98,2.41
				c-0.64,0.87-1.87,0.68-2.28,1.78c3.12,1.32,6.38,1.54,9.81,1.47c-0.26,0.62-0.51,1.04-0.63,1.51c-1.04,4.07-2.38,8.31,0.57,12.04
				c2.77,3.5,3.51,7.34,3.14,11.58c-0.21,2.39-0.45,4.78-0.67,7.15c4.07,0.72,4.15,0.76,5.75-2.76c1.14-2.51,2.83-4.37,5.31-5.56
				c3.47-1.67,6.35-0.06,6.26,3.76c-0.13,5.49-2.11,10.24-6.34,13.91c-1.15,0.99-2.5,1.91-3.99,1.85c-3.91-0.17-4.7,2.86-6.13,5.19
				c0.5,0.92,1.55,0.44,1.88,1.31c-0.54,5.83-0.83,11.73-0.28,17.62c0.11,1.2-0.15,2-0.93,2.83c-2.75,2.89-5.67,5.61-8.86,7.99
				c-6.65,4.96-12.02,10.91-15.59,18.47c-1.3,2.75-2.96,5.33-4.61,8.26c-1.92-5.02-4.21-9.43-6.74-13.7
				c-0.35-0.6-0.72-1.2-0.55-1.99c0.48-2.21-0.02-4.39-0.31-6.56c-0.34-2.52-0.78-5.03-1.17-7.54c2.06,2.4,4.47,2.62,7.16,2.02
				c2.37-0.53,4.63-1.34,6.77-2.48c4.75-2.53,8.83-5.96,12.67-9.66c3.17-3.05,6.37-6.11,8.59-9.98c0.57-0.99,1.3-2.02,0.72-3.76
				C401.32,162.7,394.56,166.15,387.67,169.4z M387.67,119.49c-3.12,0.16-6.19,0.74-9.25,1.4c-1.89,0.41-1.93,1.67-1.67,3.06
				c0.28,1.46,1.29,1.94,2.71,1.6c2.14-0.52,4.28-1.02,6.41-1.55c4.2-1.06,8.12,0.12,12.14,1.39
				C395.46,121.82,392.32,119.25,387.67,119.49z M374.76,143.9c-1.13-0.23-2.23,0.12-3.34,0.39c-2.55,0.61-4.29-1.31-3.53-3.8
				c1.07-3.53,2.25-7.02,2.82-10.68c0.21-1.39,0.14-2.66-0.81-3.85c-0.79,0.36-1.09,0.98-1.14,1.65c-0.36,4.29-1.87,8.27-3.19,12.3
				c-1.16,3.53,0.21,6.67,3.83,7.42c2.9,0.6,5.73-1.09,8.51-1.92c1.22-0.36,1.22-2.22-0.35-3.88
				C377.58,144.01,376.4,144.23,374.76,143.9z M365.21,153.45c5.9,2.24,11.86,1.29,17.81,0.29c0.62-0.1,1.24-0.29,1.86-0.39
				c0.75-0.12,1.42-0.34,1.5-1.21c0.1-1-0.53-1.6-1.33-1.97c-0.9-0.41-1.21,0.16-1.47,0.95c-0.27,0.84-1.17,0.74-1.82,0.83
				c-4.79,0.64-9.58,0.87-14.4,0.17c-1.19-0.17-1.75-1.1-2.61-1.63C363.19,151.91,363.34,152.74,365.21,153.45z M394.63,129.64
				c-2.2-2.68-8.45-4.61-11.35-3.57c-1.43,0.52-2.42,1.55-3.02,3.01c1.11,0.6,1.75-0.4,2.74-0.23c0.55,1.36,1.18,2.97,3.24,2.73
				c1.77-0.2,2.41-1.53,2.72-3.01C391,128.7,392.5,130.49,394.63,129.64z M417.44,138.12c-0.43-2.87,0.84-4.32,3.8-4.33
				c0.27,0,0.54-0.03,0.89-0.05c-0.09-1.8-1.12-2.22-2.57-1.94c-2.64,0.51-5.19,3.92-4.66,6.59c0.37,1.84-1.17,2.93-1.41,4.68
				C416.43,142.94,417.87,141,417.44,138.12z M368.1,157.33c1,2.57,2.82,2.9,4.61,3.14c2.66,0.35,5.41-0.76,6.92-2.93
				C375.65,158.44,372.05,158.89,368.1,157.33z"/>
			<path class="st9" d="M382.36,264.42c4.06-3.1,8.25-6.04,13.91-5.27c3.09,0.42,6.24,0.38,9.36,0.5c0.89,0.04,1.87,0.1,2.31-0.98
				c-0.38-0.45-0.86-0.58-1.36-0.59c-3.28-0.05-6.52-0.52-9.75-1.02c-4.28-0.66-8.18,0.08-11.74,2.59
				c-1.12,0.78-2.38,1.27-3.79,1.23c-1.13-0.03-2.23-0.33-2.63-1.45c-0.44-1.25,0.74-1.74,1.54-2.23c4.19-2.58,8.7-4.48,13.33-6.1
				c1.87-0.65,3.7-0.7,5.63-0.09c4.27,1.34,8.44,2.92,12.58,4.61c1.65,0.67,2.65,1.84,3.12,3.52c0.66,2.4,1.31,4.8,2.34,7.07
				c0.19,0.42,0.59,0.88-0.02,1.3c-1.06,0.73-0.61,1.65-0.23,2.47c2.14,4.63,4.1,9.36,6.59,13.82c0.47,0.84,0.96,1.76,2.28,1.89
				c1.17-1.72-0.34-3.58,0.23-5.35c0.56,0.24,1.15,0.46,1.72,0.73c11.56,5.57,23.45,9.75,36.56,9.31c3.99-0.13,7.65,1.08,10.86,3.68
				c6.44,5.22,10.44,19.46,5.46,28.19c-2.23,3.91-4.11,5.16-8.58,4.76c-5.2-0.46-10.15-1.91-15.08-3.56
				c-14.78-4.97-25.89-15.72-38.39-24.19c0.7-0.58,1.43-1.14,2.11-1.75c0.36-0.32,0.77-0.7,0.43-1.28
				c-0.31-0.52-0.81-0.49-1.32-0.37c-1.11,0.25-2.2,0.56-3.32,0.75c-4.53,0.79-8.34-0.36-10.96-4.33c-1.09-1.65-1.98-3.44-2.94-5.18
				c-0.48-0.88-0.87-1.86-1.79-2.33c-2.93-1.46-6-2.45-9.25-2.58c-1.25,2.69-1.39,2.89-2.45,2.59c-1.31-0.37-2.26-1.19-2.43-2.65
				c-0.37-3.13,2.66-6.6,5.78-6.59c2.99,0.01,5.97,0.09,8.96,0.08c1.01,0,2.15,0.11,2.71-1.04c-0.43-0.91-1.17-0.85-1.87-0.88
				c-1.99-0.08-3.98-0.05-5.96-0.26c-4-0.41-7.84-0.45-10.59,3.21c-0.04,0.06-0.25,0-0.41-0.01c-0.71-0.89-0.87-1.93-0.63-3
				c0.65-2.98,4.53-6.13,7.65-6.14c3.13-0.01,6.25,0.16,9.38,0.18c1.49,0.01,3.1,0.21,4.19-1.22c-0.55-0.86-1.33-0.67-2-0.71
				c-1.84-0.1-3.73,0.08-5.53-0.24c-5.91-1.05-10.96,0.29-15.03,4.83c-0.09,0.1-0.22,0.18-0.33,0.27c-1.88,1.56-3.9,1.39-5.86-0.68
				C378.96,268,380.42,265.9,382.36,264.42z M451.23,313.83c4.99,4.28,10.92,5.56,17.25,5.45
				C462.56,317.97,456.9,315.88,451.23,313.83z"/>
			<path class="st8" d="M405.5,340.77c0.06-1.2,0.94-1.87,1.7-2.54c5.18-4.55,10.4-9.04,15.59-13.58c1.28-1.12,2.54-2.28,3.73-3.5
				c0.98-1,1.37-2.23,0.42-3.45c-0.99-1.27-2.18-1.24-3.56-0.42c-7.7,4.56-15.59,8.78-23.79,12.36c-4.52,1.97-9.05,3.99-14.06,4.75
				c12.35-5.81,24.65-11.7,36.63-19.04c-2.97-1.31-5.6-2.47-8.22-3.64c-5.05-2.26-10.1-4.51-15.14-6.79
				c-3.88-1.75-6.06-4.84-6.68-8.99c-0.43-2.91,0.36-5.36,3.2-6.79c1.05-0.53,1.94-1.2,2.06-2.49c-2.13-1.65-2.77-1.62-4.66,0.23
				c-2.02,1.97-5.93,1.37-7.86-1.25c-0.46-0.62-0.74-1.36-1.07-2.07c-0.69-1.46,0.06-3.25-1.15-4.65c-1.01-1.17-0.57-2.91-1.38-4.27
				c-1.48-0.04-3.05,0.07-4.84-0.64c-0.26,2.35-0.54,4.56-0.75,6.79c-1.54,17.05-3.09,34.1-4.59,51.16
				c-0.32,3.64-0.64,7.3,0.71,10.87c0.72,1.91,1.74,2.88,3.97,3.08c6.72,0.6,13.37,1.81,20.13,2.08c10.17,0.42,20.1-1.43,30.03-3.22
				c2.58-0.47,5.15-1.05,7.74-1.41c1.34-0.19,2.05-0.86,2.44-2.03c1.41-4.32,1.37-8.68,0.14-13c-0.63-2.21-1.73-2.64-3.89-1.43
				c-5.64,3.15-11.18,6.46-16.8,9.64c-2.47,1.39-5.03,2.63-7.58,3.88C407.24,340.78,406.49,341.34,405.5,340.77z"/>
			<path class="st9" d="M281.05,276.41c-1.7,2.13-3.93,1.62-5.94,2.05c3.24,4.56,4.81,9.9,7.11,14.89c3.2,6.93,7.51,13,12.95,18.34
				c1.26,1.23,2.46,1.46,3.98,0.75c1.48-0.69,3.01-1.27,4.44-2.04c5.35-2.87,8.5-7.16,8.54-13.45c0.02-2.84,0.01-5.66-0.41-8.49
				c-0.25-1.66-0.95-2.7-2.23-3.62c-4.61-3.32-9.41-6.4-13.29-10.62c-1.77-1.93-3.48-3.91-5.41-6.09c-0.49,3.25-1.06,6.34-3.62,8.48
				c-1-0.63-0.56-1.35-0.3-1.97c1.1-2.62,1.03-5.27,0.23-7.92c-0.44-1.45-0.28-2.76,0.33-4.12c2.48-5.62,1.84-11.07-1.6-15.97
				c-3.47-4.93-6.05-10.25-8.21-15.82c-0.49-1.27-0.95-2.73-2.71-2.44c-1.82,0.29-2.53,1.64-2.65,3.38
				c-0.13,1.81,0.15,3.55,0.86,5.21c0.86,2.02,1.86,3.99,2.62,6.04c0.57,1.53,1.4,2.38,3.12,2.13c0.41-0.06,0.85,0,1.18,0.4
				c0.07,0.97-0.72,1.17-1.35,1.3c-3.29,0.67-6.57,1.03-9.83-0.25c-2.76-1.08-5.74-1.56-8.51-2.41c-4.81-1.48-9.63-3.4-13.72-6.57
				c-2.09-1.61-4.22-3.13-6.73-4.02c-1.05-0.38-2.11-0.63-3.5-0.23c2.5,2.65,6.7,2.93,7.78,6.66c5.79-1.26,8.06,1.58,9.17,6.32
				c5.14,0.71,6.78,2.65,6.66,7.9c-0.1,4.59-0.09,4.56,4.12,6.37c1.54,0.66,3.07,0.94,4.76,0.86c2.69-0.12,5.41-0.33,8.06,0.39
				c1.81,0.49,3.65,1.05,4.62,3.78c-3.79-2.08-7.4-2.7-11.08-2.41c-3.15,0.25-6.06-0.16-8.81-1.94c-0.28,1.41,0.83,2.89-1.02,4.44
				c-0.65-3.04-3.34-4.8-3.25-7.94c0.05-1.7,0.22-3.42,0.09-5.11c-0.17-2.37-1.14-3.21-3.39-3.18c-0.98,3.97-2.08,8.09-1.18,12.12
				c0.82,3.67,2.75,7.01,6.59,8.63c5.84,2.45,11.8,4.5,18.1,5.42C278.68,275.79,279.74,276.11,281.05,276.41z"/>
			<path class="st8" d="M454.86,285.65c8.79,0.45,17.6,0.66,24.3,7.35c6.32,6.31,9.78,14.01,10.05,23.01
				c1.72-1.01,2.82-2.99,2.91-5.77c0.21-6.17,0.33-12.34,0.49-18.51c0.02-0.87-0.03-1.6-0.84-2.23c-6.19-4.85-13.1-7.96-21-8.41
				C465.01,280.76,459.83,282.87,454.86,285.65z"/>
			<path class="st8" d="M303.31,275.17c6.24,1.25,11.76,4.02,16.74,7.94c1.07,0.84,1.62,1.91,1.87,3.22
				c0.94,4.91,1.09,9.87,0.92,14.85c-0.31,8.81-4.76,15.1-12.02,19.61c-4.34,2.69-8.87,2.16-12.96-1.36
				c6.02-0.05,9.91-3.45,13.03-8.01c4.27-6.23,5.07-13.2,4.46-20.55c-0.35-4.17-1.92-7.36-5.39-9.78c-2.43-1.69-4.6-3.73-6.89-5.62
				C303.15,275.39,303.23,275.29,303.31,275.17z M319.47,300.74c1.24-1.92,1.24-8.25,0.01-10.91
				C319.06,291.61,319.05,298.51,319.47,300.74z"/>
			<path class="st8" d="M380.89,363.49c0.04,1.57-0.61,1.94-1.99,1.94c-4.19-0.01-8.38,0.16-12.57,0.07
				c-3.24-0.08-6.5-0.15-9.57-0.88c0-4.96,0-9.73,0-14.66c8.12,0.34,15.99-0.06,24.09,0.83
				C380.85,355.26,380.79,359.38,380.89,363.49z M376.3,356.02c1.05-1.37,0.51-2.82-1.19-2.9c-4.54-0.21-9.08-0.25-13.63-0.35
				c-0.92-0.02-1.23,0.5-1.23,1.35c0,2.06,0.01,4.12-0.02,6.18c-0.01,0.86,0.33,1.29,1.2,1.41c4.59,0.67,9.21,0.52,13.81,0.31
				c1.45-0.07,1.95-2.53,0.82-3.74c-0.37-0.4-0.87-0.68-1.29-1.01C375.34,356.82,375.93,356.51,376.3,356.02z"/>
			<path class="st9" d="M245.72,242.66c0.7,6.14-0.97,12.79,4.77,18.06c0.18-5.05,1.2-9.78,0.14-14.53
				C250.04,243.49,248.49,242.36,245.72,242.66z"/>
			<path class="st9" d="M244.43,253.63c-0.5-4.13-0.36-7.92-1.94-11.42c-1.67-3.72-4.71-5.1-8.51-3.7
				C237.69,243.24,239.25,249.31,244.43,253.63z"/>
			<path class="st8" d="M406.12,362.43c1.63,0.11,2.95-0.05,4.53-0.54c-0.31-3.22-0.62-6.49-0.94-9.89c-1.49-0.37-2.8,0.3-4.28,0.35
				C405.27,355.79,405.73,359.04,406.12,362.43z"/>
			<path class="st8" d="M432.37,348.4c-1.28-0.01-2.23,0.24-3.42,0.68c0.04,3.18,0.62,6.35,1.14,9.59c1.25,0.14,2.33,0.04,3.52-0.53
				C433.2,354.88,432.78,351.62,432.37,348.4z"/>
			<path class="st8" d="M338.68,349.34c-0.29,3.7-0.57,7.21-0.85,10.67c0.74,0.83,1.72,0.74,2.79,1.08
				c0.96-3.8,0.75-7.66,1.25-11.44C340.81,349.15,339.84,349.25,338.68,349.34z"/>
			<path class="st8" d="M330.51,361.6c-0.6,4.82-0.97,9.49-0.77,14.23c0.99-2.18,1.16-4.54,1.52-6.85c0.68-4.4,0.63-4.41,5.06-3.58
				c0.69,0.13,1.4,0.22,2.1,0.27c0.18,0.01,0.37-0.15,0.57-0.24C337.96,364.14,333.94,362.29,330.51,361.6z"/>
			<path class="st9" d="M374.04,92.44c1.09-0.92,2.08-0.74,3.21-1.18c-2.95-0.62-5.64,0.8-8.28-0.2c4.53,3.72,10.24,5.17,15.14,2.58
				C380.65,93.75,377.35,94.23,374.04,92.44z"/>
			<path class="st8" d="M290.71,314.71c-2.74-3.63-5.57-7.2-7.82-11.17c1.25,4.68,2.86,9.1,7.86,11.13L290.71,314.71z"/>
			<path class="st9" d="M407.87,97.35c-3.68-1.88-7.47-3.83-12.17-2.5c2.85,0.72,5.71,0.74,8.1,2.13
				C405.22,97.8,406.5,98.09,407.87,97.35z"/>
			<path class="st9" d="M360.39,265.99c1.63,0,3.09,0,4.69,0c-0.39-1.46-0.73-2.75-1.08-4.04
				C360.03,264.2,360.03,264.2,360.39,265.99z"/>
			<path class="st8" d="M319.74,318.92c4.01-0.35,4.73-1.44,4.81-7.18C323.08,314.4,321.65,316.71,319.74,318.92z"/>
			<path class="st9" d="M375.95,261.9c-0.17-1.44-0.55-2.85-0.14-4.81c-2.37,1.5-4.83,1.64-7.15,2.95c1.09,0.81,1.9,0.58,2.65,0.04
				c1.78-1.28,3.18-1.32,4.01,1.04c0.11,0.31,0.45,0.53,0.69,0.8L375.95,261.9z"/>
			<path class="st9" d="M411.64,110.8c3.47-1.47,4.76-3.35,4.5-6.66C415.14,106.81,413.35,108.57,411.64,110.8z"/>
			<path class="st9" d="M394.26,87.5c-0.24-1.32-1.49-1.16-2.33-1.44c-2.06-0.68-4.18-0.72-6.26,0.07c2.91,0.3,5.83,0.35,8.61,1.33
				L394.26,87.5z"/>
			<path class="st9" d="M419.74,106.44c-0.25,2.21-1.5,4.06-1.86,6.18C419.66,110.89,420.45,108.87,419.74,106.44z"/>
			<path class="st9" d="M394.28,87.45c0.16,0.01,0.32,0.02,0.48,0.03c-0.02-0.05-0.06-0.15-0.06-0.15c-0.15,0.05-0.29,0.1-0.44,0.16
				C394.26,87.5,394.28,87.45,394.28,87.45z"/>
			<path class="st9" d="M400.65,81.03c0.24,0.31,0.54,0.33,0.86,0.15c-0.14-0.19-0.28-0.38-0.42-0.57
				C400.95,80.75,400.8,80.89,400.65,81.03z"/>
			<path class="st9" d="M303.31,275.17c-0.18-0.01-0.47-0.08-0.52-0.01c-0.15,0.24,0.11,0.26,0.26,0.32
				C303.15,275.39,303.23,275.29,303.31,275.17z"/>
			<path class="st8" d="M290.75,314.67c0.03,0.1,0.05,0.2,0.08,0.31c0.07-0.05,0.14-0.11,0.21-0.16c-0.11-0.04-0.22-0.07-0.33-0.11
				C290.71,314.71,290.75,314.67,290.75,314.67z"/>
			<polygon class="st9" points="376.02,261.93 376.04,261.84 375.95,261.9 			"/>
			<path d="M333.07,291.33c3.38,10.64,6.39,20.84,11.39,30.57c0.97-1.07,0.57-1.92,0.31-2.64c-3.29-9.21-7.04-18.24-10.66-27.32
				C334.06,291.84,333.88,291.8,333.07,291.33z"/>
			<path d="M475.95,261.98c-6.37,5.34-13.69,9.29-20.45,14.05C460.17,276.86,474.79,266.82,475.95,261.98z"/>
			<path d="M452.7,208.4c-4.8-5.15-27.11-16.37-29.81-14.68C433.37,198.01,443.23,202.81,452.7,208.4z"/>
			<path d="M318,274.08c-2.28-5.98-14.09-9.61-17.14-5.74c2.99,0.95,6.08,0.75,8.94,1.65C312.71,270.9,315.2,272.61,318,274.08z"/>
			<path d="M369.17,292.17c-0.21-1.62-1.65-2.78-3.05-2.53c-1.61,0.29-2.5,1.29-2.36,2.97c0.12,1.44,1.65,2.65,2.99,2.37
				C368.33,294.66,369.16,293.64,369.17,292.17z"/>
			<path d="M363.78,322.77c-1.86,0-3.11,1.29-3.05,2.85c0.04,1.39,1.43,2.72,2.83,2.57c1.6-0.17,2.66-1.13,2.63-2.76
				C366.16,323.81,365.14,322.89,363.78,322.77z"/>
			<path d="M369.4,233.53c0.21,1.5,0.94,2.63,2.56,2.56c1.58-0.07,2.64-1.02,2.77-2.68c0.11-1.38-1.28-2.71-2.72-2.7
				C370.63,230.72,369.39,232.05,369.4,233.53z"/>
			<path d="M384.47,211.91c0.04,1.36,0.6,2.2,1.91,2.12c1.71-0.11,2.4-1.32,2.51-2.85c0.11-1.4-0.82-2.2-2.05-2.13
				C385.17,209.16,384.58,210.48,384.47,211.91z"/>
			<path d="M398.02,125.39c-2.56-3.57-5.7-6.14-10.35-5.9c-3.12,0.16-6.19,0.74-9.25,1.4c-1.89,0.41-1.93,1.67-1.67,3.06
				c0.28,1.46,1.29,1.94,2.71,1.6c2.14-0.52,4.28-1.02,6.41-1.55C390.08,122.93,394,124.11,398.02,125.39z"/>
			<path d="M377.55,141.53c0.03,2.49-1.15,2.7-2.79,2.37c-1.13-0.23-2.23,0.12-3.34,0.39c-2.55,0.61-4.29-1.31-3.53-3.8
				c1.07-3.53,2.25-7.02,2.82-10.68c0.21-1.39,0.14-2.66-0.81-3.85c-0.79,0.36-1.09,0.98-1.14,1.65c-0.36,4.29-1.87,8.27-3.19,12.3
				c-1.16,3.53,0.21,6.67,3.83,7.42c2.9,0.6,5.73-1.09,8.51-1.92C379.11,145.04,379.12,143.19,377.55,141.53z"/>
			<path d="M364.75,150.48c-1.56,1.42-1.41,2.26,0.45,2.97c5.9,2.24,11.86,1.29,17.81,0.29c0.62-0.1,1.24-0.29,1.86-0.39
				c0.75-0.12,1.42-0.34,1.5-1.21c0.1-1-0.53-1.6-1.33-1.97c-0.9-0.41-1.21,0.16-1.47,0.95c-0.27,0.84-1.17,0.74-1.82,0.83
				c-4.79,0.64-9.58,0.87-14.4,0.17C366.18,151.95,365.61,151.02,364.75,150.48z"/>
			<path d="M388.96,128.58c2.04,0.13,3.54,1.91,5.67,1.06c-2.2-2.68-8.45-4.61-11.35-3.57c-1.43,0.52-2.42,1.55-3.02,3.01
				c1.11,0.6,1.75-0.4,2.74-0.23c0.55,1.36,1.18,2.97,3.24,2.73C388.01,131.39,388.65,130.06,388.96,128.58z"/>
			<path d="M413.5,143.06c2.93-0.12,4.37-2.07,3.94-4.94c-0.43-2.87,0.84-4.32,3.8-4.33c0.27,0,0.54-0.03,0.89-0.05
				c-0.09-1.8-1.12-2.22-2.57-1.94c-2.64,0.51-5.19,3.92-4.66,6.59C415.27,140.23,413.73,141.32,413.5,143.06z"/>
			<path d="M379.62,157.54c-3.97,0.9-7.58,1.35-11.52-0.21c1,2.57,2.82,2.9,4.61,3.14C375.36,160.82,378.11,159.71,379.62,157.54z"
				/>
			<path d="M468.48,319.27c-5.93-1.3-11.58-3.39-17.25-5.45C456.22,318.1,462.15,319.38,468.48,319.27z"/>
			<path d="M319.48,289.83c-0.42,1.78-0.43,8.68-0.01,10.91C320.7,298.82,320.71,292.49,319.48,289.83z"/>
			<path d="M374.78,357.27c0.56-0.45,1.15-0.77,1.52-1.25c1.05-1.37,0.51-2.82-1.19-2.9c-4.54-0.21-9.08-0.25-13.63-0.35
				c-0.92-0.02-1.23,0.5-1.23,1.35c0,2.06,0.01,4.12-0.02,6.18c-0.01,0.86,0.33,1.29,1.2,1.41c4.59,0.67,9.21,0.52,13.81,0.31
				c1.45-0.07,1.95-2.53,0.82-3.74C375.7,357.88,375.21,357.6,374.78,357.27z"/>
		</g>
		<path d="M222.36,464.26c0.72,5.01,3.85,7.64,9.84,8.42c1.69,0.21,3.47,0.32,5.27,0.32c6.76,0,13.51-1.53,19.21-3.02
			c8.97-2.37,18.24-5.61,28.33-9.88c2.32-0.99,4.59-1.99,6.77-2.98c1.08-0.48,2.12-0.96,3.17-1.45l0.54-0.25
			c0.08-0.04,0.17-0.09,0.25-0.13c2.87-1.34,5.89-2.8,8.97-4.32l1.15-0.59c0.57-0.28,1.13-0.56,1.7-0.86
			c3.69-1.84,7.41-3.77,11.45-5.92c6.33-3.38,12.66-6.92,19.37-10.84c0,0,2.32-1.36,3.17-1.87c0.78-0.46,1.57-0.93,2.36-1.41
			c1.06-0.63,2.11-1.26,3.16-1.91c4.45-2.68,8.98-5.5,13.88-8.63l1.22-0.78c0.66-0.43,1.31-0.85,1.97-1.27l3.38-2.22
			c1.05-0.66,2.01-1.3,2.97-1.94c2.7-1.78,5.11-3.4,7.4-4.97c3.64-2.44,7.28-4.95,10.87-7.48c0.06-0.04,0.82-0.57,0.82-0.57
			c0.7-0.47,1.37-0.95,2.05-1.43c0,0,0.95-0.66,1-0.7c2.45-1.73,5.08-3.6,7.66-5.48l0.24-0.18c0.95-0.68,1.9-1.36,2.85-2.05
			c1.78-1.29,3.53-2.58,5.29-3.88c0.8-0.59,1.6-1.19,2.4-1.79c3.42-2.54,7.11-5.32,11.31-8.55c1.21-0.93,2.39-1.84,3.57-2.77
			c0.97-0.75,1.87-1.45,2.78-2.16c0.9-0.7,1.78-1.39,2.65-2.09l0.72-0.56c2.18-1.73,4.33-3.45,6.48-5.19
			c0.02-0.01,0.04-0.03,0.06-0.05c2.22-1.8,4.45-3.61,6.64-5.43l0.16-0.13c1.01-0.83,2.01-1.65,3.01-2.49
			c1.14-0.95,2.26-1.89,3.38-2.85c2.73-2.28,5.45-4.61,8.34-7.13c0.05-0.04,0.09-0.08,0.14-0.12c0.2-0.16,0.41-0.35,0.62-0.53
			c0,0,1.82-1.58,1.84-1.6l0.53-0.47c0.18-0.16,0.36-0.32,0.55-0.48c2.65-2.32,4.78-4.22,6.71-5.97c0.61-0.53,1.14-1.01,1.68-1.5
			c0.02-0.02,0.05-0.04,0.08-0.07c0.32-0.28,0.64-0.57,0.95-0.86l0.79-0.72c0.64-0.57,1.27-1.15,1.9-1.72
			c0.7-0.64,1.4-1.29,2.1-1.94l1.11-1.02c0.67-0.62,1.34-1.24,2.01-1.86c2.98-2.77,5.89-5.52,8.64-8.18
			c0.04-0.03,0.13-0.12,0.13-0.12c0.11-0.12,0.23-0.24,0.35-0.34c0.14-0.13,0.28-0.26,0.42-0.41c0.02-0.02,0.05-0.05,0.08-0.07
			c0.93-0.89,1.87-1.79,2.79-2.7l0.18-0.18c1.75-1.72,3.49-3.43,5.22-5.15c0.96-0.97,1.92-1.93,2.87-2.91l0.77-0.78
			c0.75-0.77,1.51-1.53,2.25-2.31l0.11-0.11c1.4-1.45,2.8-2.9,4.18-4.37c11.13-11.75,20.7-23.06,29.27-34.58
			c6.31-8.49,13.39-18.77,18.06-30.62c1.88-4.74,2.73-8.4,2.76-11.88c0.05-3.63-0.88-6.3-2.86-8.12c0.86-1.53,1.44-3.22,1.69-4.99
			c4.11,2.71,6.25,7.17,6.17,13.16c-0.04,4.81-1.36,9.27-3.11,13.67c-4.57,11.59-11.35,21.88-18.7,31.77
			c-9.17,12.33-19.13,23.93-29.64,35.03c-1.43,1.52-2.88,3.02-4.33,4.52c-1,1.04-2.02,2.07-3.03,3.1c-0.97,1-1.95,1.98-2.93,2.96
			c-1.76,1.76-3.53,3.5-5.31,5.25c-0.03,0.03-0.07,0.07-0.11,0.1c-0.94,0.93-1.9,1.85-2.85,2.76c-0.2,0.2-0.4,0.39-0.6,0.57
			c0,0.03-0.01,0.03-0.01,0.03c-0.12,0.11-0.23,0.22-0.35,0.33c-2.87,2.77-5.78,5.52-8.71,8.24c-1.03,0.96-2.07,1.91-3.1,2.86
			c-0.71,0.67-1.43,1.33-2.15,1.99c-0.7,0.64-1.41,1.28-2.12,1.92c-0.53,0.48-1.06,0.98-1.61,1.46c-0.56,0.51-1.12,1.01-1.68,1.5
			c-2.26,2.05-4.54,4.07-6.83,6.08c-0.28,0.23-0.55,0.48-0.82,0.71c-0.1,0.09-0.19,0.18-0.29,0.26c-0.58,0.5-1.15,1-1.73,1.5
			c-0.27,0.24-0.54,0.48-0.8,0.69c-2.78,2.42-5.57,4.81-8.38,7.17c-1.14,0.97-2.27,1.92-3.41,2.87c-1.06,0.89-2.12,1.76-3.19,2.64
			c-2.21,1.83-4.45,3.66-6.69,5.47c-0.01,0-0.01,0-0.01,0.01c-2.18,1.76-4.36,3.51-6.55,5.24c-0.2,0.16-0.41,0.32-0.61,0.48
			c-0.93,0.74-1.86,1.48-2.8,2.21c-0.92,0.72-1.84,1.43-2.76,2.14c-1.2,0.95-2.41,1.88-3.63,2.81c-3.76,2.89-7.54,5.76-11.35,8.58
			c-0.81,0.61-1.62,1.22-2.43,1.82c-1.77,1.31-3.54,2.61-5.32,3.9c-1.03,0.75-2.06,1.49-3.09,2.23c-2.56,1.87-5.15,3.71-7.74,5.54
			c-0.05,0.03-0.09,0.07-0.14,0.1c-0.15,0.11-0.29,0.2-0.44,0.31c-0.84,0.59-1.66,1.17-2.51,1.75c-0.16,0.11-0.32,0.22-0.48,0.33
			c-0.09,0.07-0.19,0.14-0.29,0.2c-3.62,2.55-7.25,5.05-10.92,7.52c-2.47,1.69-4.95,3.35-7.44,4.99c-1,0.67-2,1.34-3.02,1.98
			c-0.26,0.17-0.5,0.33-0.76,0.5c-0.89,0.59-1.78,1.17-2.68,1.76c-1.06,0.67-2.11,1.36-3.17,2.04c-4.61,2.94-9.26,5.84-13.95,8.67
			c-1.07,0.66-2.14,1.3-3.21,1.94c-0.8,0.48-1.59,0.95-2.38,1.42c-1.06,0.63-2.13,1.26-3.2,1.89c-6.44,3.76-12.94,7.41-19.54,10.93
			c-3.81,2.03-7.64,4.02-11.5,5.95c-0.98,0.51-1.96,0.99-2.94,1.49c-3.01,1.49-6.03,2.95-9.06,4.37v0.01
			c-1.34,0.62-2.67,1.24-4.01,1.84c-2.28,1.04-4.58,2.05-6.89,3.03c-9.41,3.99-19.04,7.48-29.02,10.12
			c-8.64,2.26-17.35,3.95-26.38,2.82c-8.55-1.1-13.47-5.74-14.26-13.52C218.97,464.46,220.69,464.51,222.36,464.26z"/>
	</g>
	<g>
		<path class="st10" d="M2,195C2,130.56,2,66.34,2,2c89.6,0,179.13,0,268.8,0c0,64.29,0,128.61,0,193C181.22,195,91.69,195,2,195z
			 M268.58,4.22c-88.12,0-176.13,0-264.26,0c0,62.87,0,125.68,0,188.52c88.15,0,176.17,0,264.26,0
			C268.58,129.88,268.58,67.12,268.58,4.22z"/>
		<path class="st8" d="M268.58,4.22c0,62.89,0,125.66,0,188.52c-88.09,0-176.11,0-264.26,0c0-62.84,0-125.65,0-188.52
			C92.45,4.22,180.46,4.22,268.58,4.22z M87.31,161.39c0,7.04,0,13.85,0,20.9c-5.16,0-10.19,0-15.23,0c0,0.9-0.25,1.59,0.22,2.16
			c39.76,0,79.46,0,119.17,0c0.2-0.79,0.28-1.45-0.14-2.29c-5.03,0-10.14,0-15.43,0c0-14.45,0-28.71,0-42.99
			c-7.56,0-14.92,0-22.46,0c0,14.35,0,28.61,0,42.93c-3.58,0-6.99,0-10.57,0c0-10.14,0-20.13,0-30.16c-7.54,0-14.91,0-22.42,0
			c0,10.1,0,20.1,0,30.19c-3.56,0-6.98,0-10.57,0c0-6.94,0-13.8,0-20.74C102.32,161.39,94.95,161.39,87.31,161.39z M152.81,81.52
			c8.66-9.86,11.03-20.91,6.44-32.96c-5.54-14.55-20.58-22.15-36.34-18.91c-16.23,3.33-27.3,20.3-23.71,36.31
			c4.37,19.48,24.23,30.07,42.86,22.67c2.61-1.04,4.37-1.02,6.07,1.13c0.06,0.08,0.22,0.08,0.43,0.15c2.12-1.92,4.28-3.87,6.45-5.82
			c-0.45-0.51-0.78-0.88-1.11-1.26C153.54,82.39,153.19,81.97,152.81,81.52z M254.28,49.36c-0.79,0.66-1.42,1.27-2.14,1.74
			c-0.94,0.62-0.99,1.24-0.66,2.33c3,9.81,0.96,18.54-6.35,25.69c-6.99,6.84-15.52,8.58-24.84,5.89
			c-11.65-3.37-19.36-15.52-17.41-27.13c2.13-12.66,12.98-21.57,25.68-21.21c4.13,0.12,7.98,1.2,11.67,2.97
			c1.09-0.93,2.08-1.78,3.09-2.64c-9.76-6.57-26.2-6.53-36.95,4.85c-9.87,10.44-10.35,26.75-1.22,37.79
			c9.39,11.36,25.69,13.92,38.36,6.02C255.54,78.19,260.3,62.38,254.28,49.36z M242.71,55.4c2.31,8.9-0.18,15.67-7.25,19.72
			c-5.97,3.42-14.29,2.29-19.09-2.61c-5.15-5.25-6.21-12.94-2.66-19c1.87-3.19,4.48-5.55,7.9-6.93c4.73-1.91,9.4-1.43,13.99,0.75
			c0.49-1.37,0.92-2.58,1.34-3.77c-8.55-4.34-19.63-1.86-25.14,5.56c-6.03,8.1-5.53,18.54,1.21,25.62
			c6.65,6.99,17.72,8.44,25.43,3.32c8.1-5.37,11.59-15.6,8.02-23.63C245.22,54.75,243.96,55.07,242.71,55.4z M147.7,93.14
			c5.33,5.55,10.52,10.97,15.75,16.36c2.6,2.69,6.83,2.74,9.47,0.21c2.91-2.8,3.08-6.87,0.4-9.72c-0.99-1.05-1.99-2.08-2.99-3.12
			c-4.19-4.35-8.39-8.71-12.65-13.13C154.58,87.19,151,89.93,147.7,93.14z M15.53,132.52c0.46,0.41,0.58,0.62,0.71,0.62
			c79.95,0.04,159.9,0.07,239.86,0.1c0.3,0,0.64,0.07,0.79-0.32c0.02-0.06,0.04-0.12,0.04-0.18c0-0.06-0.02-0.12-0.03-0.22
			C176.56,132.52,96.23,132.52,15.53,132.52z M54.62,59.43c-9.26,0-18.43,0-27.67,0c0,9.16,0,18.22,0,27.37c9.27,0,18.44,0,27.67,0
			C54.62,77.61,54.62,68.55,54.62,59.43z M25.16,122.87c10.73,0,21.13,0,31.77,0c-5.32-9.24-10.51-18.26-15.86-27.57
			C35.68,104.64,30.48,113.65,25.16,122.87z M236.54,58.48c-2.24,1.7-4.38,3.33-6.53,4.93c-1.06,0.79-2.17,0.84-3.3,0.09
			c-1.84-1.22-2.11-3.33-0.49-4.95c1.97-1.97,4.03-3.84,6.12-5.82c-5.19-2.01-9.79-0.82-12.41,3.05c-2.66,3.93-2.35,8.55,0.78,11.9
			c3.01,3.21,8.05,4.05,11.69,1.94C236.29,67.36,237.95,63.05,236.54,58.48z M256.66,43.96c-2.44-0.6-4.65-1.14-6.82-1.67
			c0-2.5,0-4.88,0-7.51c-3.27,2.82-6.17,5.66-9.49,8.01c-0.3,0.21-0.37,0.47-0.45,0.77c-0.47,1.75-1.05,3.47-1.4,5.24
			c-0.24,1.17-0.77,1.99-1.61,2.82c-2.82,2.76-5.8,5.33-8.78,7.91c-1.17,1.02-1.32,1.85,0.21,2.78c3.25-2.72,6.59-5.36,9.72-8.21
			c1.39-1.26,2.79-1.85,4.64-1.97c1.65-0.11,3.54,0.19,4.91-0.82C250.65,49.04,253.52,46.53,256.66,43.96z M25.94,36.32
			c-0.03,7.91,6.59,14.52,14.64,14.59c8.34,0.08,14.82-6.34,14.83-14.69c0.02-7.87-6.57-14.46-14.47-14.49
			C32.61,21.7,25.97,28.16,25.94,36.32z M78.68,121.62c0.17-0.01,0.34-0.02,0.5-0.02c0-35.18,0-70.35,0-105.53c-0.17,0-0.34,0-0.5,0
			C78.68,51.25,78.68,86.43,78.68,121.62z M186.85,121.86c1.14-0.68,0.75-1.52,0.75-2.19c0.03-33.83,0.03-67.66,0.04-101.49
			c0-0.5,0-1-0.01-1.5c-0.01-0.61-0.35-0.73-0.78-0.59C186.85,51.3,186.85,86.47,186.85,121.86z M243.22,27.15
			c-0.6,2.07-1.17,4.02-1.82,6.24c1.54-1.08,2.86-1.92,4.09-2.88c0.85-0.66,1.55-0.78,2.48-0.09c1.14,0.85,2.39,1.54,3.91,2.49
			c-0.41-1.59-0.6-2.88-1.08-4.06c-0.6-1.47-0.05-2.31,1.12-3.08c1.1-0.72,2.13-1.55,3.37-2.47c-2.3-0.39-4.76,0.66-6.13-0.57
			c-1.31-1.17-1.56-3.53-2.31-5.46c-0.82,1.12-1.07,2.43-1.44,3.64c-0.5,1.67-1.3,2.5-3.15,2.25c-1.25-0.17-2.54-0.03-4.35-0.03
			C239.95,24.69,241.53,25.88,243.22,27.15z"/>
		<path class="st10" d="M87.31,161.39c7.65,0,15.01,0,22.56,0c0,6.94,0,13.8,0,20.74c3.59,0,7.01,0,10.57,0c0-10.09,0-20.09,0-30.19
			c7.51,0,14.88,0,22.42,0c0,10.02,0,20.02,0,30.16c3.58,0,6.99,0,10.57,0c0-14.33,0-28.58,0-42.93c7.54,0,14.91,0,22.46,0
			c0,14.28,0,28.54,0,42.99c5.3,0,10.4,0,15.43,0c0.43,0.84,0.35,1.5,0.14,2.29c-39.7,0-79.41,0-119.17,0
			c-0.46-0.57-0.22-1.26-0.22-2.16c5.04,0,10.07,0,15.23,0C87.31,175.24,87.31,168.43,87.31,161.39z"/>
		<path class="st10" d="M152.81,81.52c0.38,0.45,0.74,0.88,1.1,1.3c0.33,0.38,0.66,0.75,1.11,1.26c-2.17,1.96-4.33,3.91-6.45,5.82
			c-0.22-0.07-0.37-0.08-0.43-0.15c-1.7-2.15-3.46-2.17-6.07-1.13c-18.63,7.41-38.49-3.18-42.86-22.67
			c-3.59-16.01,7.48-32.97,23.71-36.31c15.76-3.24,30.8,4.36,36.34,18.91C163.83,60.61,161.46,71.65,152.81,81.52z M157.7,59.86
			c-0.17-15.35-12.68-27.63-27.93-27.43c-15.19,0.2-27.6,12.67-27.47,27.6c0.13,15.23,12.7,27.52,28.03,27.39
			C145.58,87.3,157.87,74.93,157.7,59.86z"/>
		<path class="st10" d="M254.28,49.36c6.02,13.03,1.26,28.83-10.75,36.32c-12.67,7.89-28.97,5.33-38.36-6.02
			c-9.13-11.04-8.65-27.35,1.22-37.79c10.75-11.38,27.19-11.43,36.95-4.85c-1.01,0.86-2,1.71-3.09,2.64
			c-3.69-1.78-7.54-2.86-11.67-2.97c-12.7-0.36-23.55,8.55-25.68,21.21c-1.95,11.6,5.75,23.76,17.41,27.13
			c9.32,2.69,17.85,0.94,24.84-5.89c7.31-7.15,9.35-15.89,6.35-25.69c-0.33-1.08-0.28-1.71,0.66-2.33
			C252.86,50.63,253.49,50.01,254.28,49.36z"/>
		<path class="st10" d="M242.71,55.4c1.25-0.32,2.51-0.64,3.75-0.96c3.57,8.03,0.08,18.26-8.02,23.63
			c-7.71,5.11-18.78,3.67-25.43-3.32c-6.74-7.09-7.24-17.52-1.21-25.62c5.52-7.42,16.59-9.9,25.14-5.56
			c-0.43,1.2-0.86,2.41-1.34,3.77c-4.6-2.19-9.27-2.66-13.99-0.75c-3.42,1.38-6.03,3.74-7.9,6.93c-3.55,6.06-2.49,13.75,2.66,19
			c4.8,4.89,13.12,6.03,19.09,2.61C242.52,71.06,245.02,64.29,242.71,55.4z"/>
		<path class="st10" d="M147.7,93.14c3.3-3.21,6.89-5.95,9.98-9.4c4.26,4.42,8.45,8.78,12.65,13.13c1,1.04,2,2.07,2.99,3.12
			c2.68,2.85,2.5,6.92-0.4,9.72c-2.63,2.54-6.86,2.48-9.47-0.21C158.22,104.12,153.03,98.69,147.7,93.14z"/>
		<path class="st10" d="M15.53,132.52c80.7,0,161.03,0,241.36,0c0.02,0.09,0.04,0.16,0.03,0.22c0,0.06-0.02,0.12-0.04,0.18
			c-0.15,0.39-0.49,0.32-0.79,0.32c-79.95-0.03-159.9-0.05-239.86-0.1C16.11,133.14,15.99,132.93,15.53,132.52z"/>
		<path class="st10" d="M54.62,59.43c0,9.12,0,18.18,0,27.37c-9.24,0-18.41,0-27.67,0c0-9.15,0-18.2,0-27.37
			C36.19,59.43,45.36,59.43,54.62,59.43z M52.27,84.51c0-7.61,0-15.15,0-22.68c-7.7,0-15.29,0-22.98,0c0,7.63,0,15.11,0,22.68
			C37,84.51,44.6,84.51,52.27,84.51z"/>
		<path class="st10" d="M25.16,122.87c5.32-9.22,10.52-18.24,15.9-27.57c5.35,9.3,10.54,18.32,15.86,27.57
			C46.29,122.87,35.89,122.87,25.16,122.87z M41.02,100.63c-3.86,6.73-7.54,13.12-11.33,19.72c7.79,0,15.18,0,22.76,0
			C48.64,113.78,44.95,107.41,41.02,100.63z"/>
		<path class="st10" d="M236.54,58.48c1.41,4.57-0.25,8.88-4.14,11.14c-3.64,2.11-8.69,1.27-11.69-1.94
			c-3.13-3.35-3.43-7.97-0.78-11.9c2.62-3.87,7.22-5.06,12.41-3.05c-2.09,1.98-4.16,3.85-6.12,5.82c-1.62,1.62-1.35,3.73,0.49,4.95
			c1.14,0.75,2.24,0.7,3.3-0.09C232.16,61.81,234.3,60.18,236.54,58.48z"/>
		<path class="st10" d="M256.66,43.96c-3.15,2.57-6.02,5.08-9.07,7.34c-1.37,1.01-3.26,0.7-4.91,0.82
			c-1.84,0.13-3.25,0.71-4.64,1.97c-3.14,2.85-6.47,5.49-9.72,8.21c-1.53-0.92-1.38-1.76-0.21-2.78c2.97-2.58,5.96-5.16,8.78-7.91
			c0.85-0.83,1.38-1.65,1.61-2.82c0.36-1.77,0.93-3.5,1.4-5.24c0.08-0.3,0.15-0.56,0.45-0.77c3.32-2.35,6.22-5.19,9.49-8.01
			c0,2.63,0,5.01,0,7.51C252.01,42.82,254.22,43.36,256.66,43.96z"/>
		<path class="st10" d="M25.94,36.32c0.03-8.16,6.67-14.62,15-14.59c7.9,0.03,14.49,6.62,14.47,14.49
			c-0.02,8.35-6.5,14.76-14.83,14.69C32.53,50.84,25.9,44.23,25.94,36.32z M40.63,23.89c-7.16,0.1-12.57,5.6-12.48,12.7
			c0.08,6.83,5.83,12.31,12.82,12.21c6.7-0.1,12.39-5.79,12.36-12.36C53.28,29.39,47.63,23.79,40.63,23.89z"/>
		<path class="st10" d="M78.68,121.62c0-35.19,0-70.37,0-105.56c0.17,0,0.34,0,0.5,0c0,35.18,0,70.35,0,105.53
			C79.02,121.6,78.85,121.61,78.68,121.62z"/>
		<path class="st10" d="M186.85,121.86c0-35.38,0-70.56,0-105.77c0.43-0.15,0.77-0.02,0.78,0.59c0.01,0.5,0.01,1,0.01,1.5
			c-0.01,33.83-0.01,67.66-0.04,101.49C187.6,120.33,187.99,121.18,186.85,121.86z"/>
		<path class="st10" d="M243.22,27.15c-1.69-1.27-3.27-2.46-5.32-4c1.8,0,3.1-0.14,4.35,0.03c1.85,0.25,2.65-0.58,3.15-2.25
			c0.36-1.21,0.61-2.52,1.44-3.64c0.76,1.94,1.01,4.29,2.31,5.46c1.37,1.23,3.83,0.18,6.13,0.57c-1.24,0.91-2.27,1.74-3.37,2.47
			c-1.17,0.77-1.72,1.61-1.12,3.08c0.48,1.18,0.67,2.47,1.08,4.06c-1.52-0.96-2.77-1.65-3.91-2.49c-0.92-0.69-1.62-0.57-2.48,0.09
			c-1.23,0.95-2.54,1.8-4.09,2.88C242.05,31.17,242.62,29.22,243.22,27.15z"/>
		<path class="st10" d="M157.7,59.86c0.17,15.06-12.12,27.44-27.37,27.56c-15.33,0.12-27.9-12.16-28.03-27.39
			c-0.13-14.93,12.28-27.4,27.47-27.6C145.02,32.23,157.53,44.52,157.7,59.86z M129.96,84.95c14.2-0.03,25.36-11.03,25.35-24.97
			c-0.01-13.91-11.32-25.13-25.28-25.09c-14.01,0.04-25.46,11.35-25.39,25.08C104.72,73.61,116.23,84.97,129.96,84.95z"/>
		<path class="st10" d="M52.27,84.51c-7.67,0-15.27,0-22.98,0c0-7.58,0-15.06,0-22.68c7.7,0,15.29,0,22.98,0
			C52.27,69.36,52.27,76.9,52.27,84.51z"/>
		<path class="st9" d="M41.02,100.63c3.93,6.78,7.62,13.15,11.43,19.72c-7.58,0-14.96,0-22.76,0
			C33.49,113.76,37.16,107.36,41.02,100.63z"/>
		<path class="st9" d="M40.63,23.89c6.99-0.09,12.65,5.5,12.69,12.55c0.04,6.56-5.65,12.26-12.36,12.36
			c-6.99,0.11-12.74-5.37-12.82-12.21C28.07,29.48,33.48,23.98,40.63,23.89z"/>
		<path class="st10" d="M129.96,84.95c-13.73,0.03-25.25-11.34-25.31-24.99c-0.07-13.73,11.38-25.03,25.39-25.08
			c13.96-0.04,25.27,11.18,25.28,25.09C155.33,73.92,144.16,84.92,129.96,84.95z M130.02,81.98c12.57-0.2,22.46-10.13,22.2-22.38
			c-0.26-12.34-9.92-21.55-22.38-21.58c-12.16-0.03-22.34,10.29-22.12,21.93C107.96,72.1,118.14,82.16,130.02,81.98z"/>
		<path class="st9" d="M130.02,81.98c-11.89,0.19-22.06-9.87-22.29-22.04c-0.22-11.64,9.96-21.96,22.12-21.93
			c12.45,0.03,22.12,9.24,22.38,21.58C152.48,71.84,142.6,81.78,130.02,81.98z"/>
		<g>
			<rect x="6.32" y="6.22" class="st11" width="260.26" height="184.52"/>
			<path class="st10" d="M0,0v197h272.8V0H0z M266.58,190.74H6.32V6.22h260.26V190.74z"/>
		</g>
	</g>
</g>
</svg>
