<?xml version="1.0" encoding="utf-8"?>
<!-- Generator: Adobe Illustrator 25.0.0, SVG Export Plug-In . SVG Version: 6.00 Build 0)  -->
<svg version="1.1" id="Layer_1" xmlns="http://www.w3.org/2000/svg" xmlns:xlink="http://www.w3.org/1999/xlink" x="0px" y="0px"
	 viewBox="0 0 129.98 108" style="enable-background:new 0 0 129.98 108;" xml:space="preserve">
<style type="text/css">
	.st0{fill:#00B0FB;}
	.st1{fill:#00B0FB;fill-opacity:0.4;}
	.st2{fill:#FFFFFF;}
	.st3{fill:#185AE9;}
	.st4{fill:#3C7CFF;}
	.st5{fill:#001135;}
</style>
<g>
	<path class="st2" d="M74.88,24.2c1.15,0,2.23-0.45,3.04-1.26c0.81-0.81,1.26-1.89,1.26-3.04c0-1.15-0.45-2.23-1.26-3.04
		c-0.81-0.81-1.89-1.26-3.04-1.26c-1.15,0-2.23,0.45-3.04,1.26c-1.67,1.68-1.67,4.4,0,6.08C72.65,23.75,73.73,24.2,74.88,24.2z"/>
	<path class="st2" d="M30.87,26.4c1.15,0,2.23-0.45,3.04-1.26c1.66-1.67,1.67-4.38,0.02-6.06c-0.01-0.01-0.01-0.01-0.02-0.02
		c-0.81-0.81-1.89-1.26-3.04-1.26c-1.15,0-2.23,0.45-3.04,1.26c-1.67,1.68-1.67,4.41,0,6.08C28.64,25.95,29.72,26.4,30.87,26.4z"/>
	<path class="st2" d="M53.71,42.74c1.67-1.68,1.67-4.4,0-6.08c-0.82-0.82-1.9-1.26-3.04-1.26c-1.15,0-2.23,0.45-3.04,1.26
		c-0.81,0.81-1.26,1.89-1.26,3.04c0,1.15,0.45,2.23,1.26,3.04c0.81,0.81,1.89,1.26,3.04,1.26C51.82,44,52.9,43.55,53.71,42.74z"/>
	<path class="st4" d="M124.38,2.4h-110c-1.76,0-3.2,1.44-3.2,3.2v29.37c0,0.38,0.22,0.74,0.57,0.9c0.19,0.09,0.38,0.19,0.56,0.3
		c0.16,0.1,0.34,0.15,0.52,0.15c0.24,0,0.48-0.09,0.66-0.25l11.14-9.9c0.33-0.3,0.43-0.78,0.24-1.18c-1.03-2.12-0.85-4.66,0.46-6.62
		c1.25-1.87,3.33-2.99,5.58-2.99c1.32,0,2.6,0.39,3.71,1.12c1.49,0.99,2.5,2.5,2.85,4.26c0.35,1.75,0,3.54-0.99,5.03
		c-0.29,0.43-0.2,1.02,0.21,1.34l8.96,7.07c0.18,0.14,0.4,0.21,0.62,0.21c0.2,0,0.4-0.06,0.57-0.18c1.13-0.79,2.47-1.21,3.85-1.21
		c1.33,0,2.61,0.39,3.72,1.12c0.17,0.11,0.36,0.17,0.55,0.17c0.23,0,0.45-0.08,0.64-0.23l12.77-10.55c0.34-0.28,0.45-0.74,0.29-1.14
		c-0.84-2.09-0.58-4.45,0.71-6.3c1.25-1.8,3.3-2.87,5.49-2.87c1.36,0,2.68,0.41,3.8,1.19c1.46,1.02,2.45,2.54,2.76,4.3
		s-0.07,3.53-1.09,4.99c-1.25,1.8-3.3,2.87-5.49,2.87c-1.36,0-2.68-0.41-3.8-1.19c-0.17-0.12-0.37-0.18-0.57-0.18
		c-0.23,0-0.45,0.08-0.64,0.23l-12.72,10.5c-0.34,0.28-0.46,0.75-0.28,1.16c0.69,1.64,0.71,3.45,0.06,5.1
		c-1.02,2.56-3.46,4.22-6.22,4.22c-0.85,0-1.68-0.16-2.48-0.48c-3.43-1.37-5.11-5.27-3.74-8.7c0.16-0.41,0.04-0.88-0.31-1.16
		l-9.7-7.66c-0.18-0.14-0.4-0.21-0.62-0.21c-0.13,0-0.26,0.02-0.38,0.08c-0.81,0.33-1.67,0.5-2.55,0.5c-1.22,0-2.42-0.33-3.46-0.96
		c-0.16-0.1-0.34-0.14-0.52-0.14c-0.24,0-0.48,0.09-0.66,0.25l-11.13,9.9c-0.34,0.3-0.43,0.79-0.23,1.19
		c0.44,0.89,0.68,1.89,0.68,2.89c-0.01,2.56-1.51,4.92-3.83,6.02c-0.35,0.17-0.57,0.52-0.57,0.9v7.51c0,0.37,0.2,0.7,0.52,0.88
		c0.15,0.08,0.31,0.12,0.48,0.12c0.19,0,0.38-0.05,0.54-0.16c4.46-2.87,9.61-4.38,14.91-4.38c2.9,0,5.77,0.46,8.53,1.36
		c14.45,4.71,22.37,20.29,17.67,34.74c-0.1,0.3-0.05,0.64,0.14,0.9c0.19,0.26,0.49,0.41,0.81,0.41h69.6c1.76,0,3.2-1.44,3.2-3.2V5.6
		C127.57,3.84,126.14,2.4,124.38,2.4z M97.97,13.2h19.8c0.66,0,1.2,0.54,1.2,1.2s-0.54,1.2-1.2,1.2h-19.8c-0.66,0-1.2-0.54-1.2-1.2
		S97.31,13.2,97.97,13.2z M97.97,22h19.8c0.66,0,1.2,0.54,1.2,1.2c0,0.66-0.54,1.2-1.2,1.2h-19.8c-0.66,0-1.2-0.54-1.2-1.2
		C96.77,22.54,97.31,22,97.97,22z M97.97,30.8h19.8c0.66,0,1.2,0.54,1.2,1.2s-0.54,1.2-1.2,1.2h-19.8c-0.66,0-1.2-0.54-1.2-1.2
		S97.31,30.8,97.97,30.8z M91.37,13.2c0.66,0,1.2,0.54,1.2,1.2s-0.54,1.2-1.2,1.2s-1.2-0.54-1.2-1.2S90.71,13.2,91.37,13.2z
		 M91.37,22c0.66,0,1.2,0.54,1.2,1.2c0,0.66-0.54,1.2-1.2,1.2s-1.2-0.54-1.2-1.2C90.17,22.54,90.71,22,91.37,22z M91.37,30.8
		c0.66,0,1.2,0.54,1.2,1.2s-0.54,1.2-1.2,1.2s-1.2-0.54-1.2-1.2S90.71,30.8,91.37,30.8z M119.98,83.8h-48.4
		c-3.08,0-5.6-2.52-5.6-5.6V43c0-0.66,0.54-1.2,1.2-1.2s1.2,0.54,1.2,1.2v35.2c0,1.76,1.44,3.2,3.2,3.2c0,0,0,0,0,0
		c0.27,0,0.52-0.11,0.71-0.29c0.19-0.19,0.29-0.44,0.29-0.71V56.2c0-1.87,1.53-3.4,3.4-3.4h4.4c1.88,0,3.4,1.53,3.4,3.4v24.2
		c0,0.55,0.45,1,1,1h2.2c0.55,0,1-0.45,1-1V49.6c0-1.88,1.53-3.4,3.4-3.4h4.4c1.88,0,3.4,1.53,3.4,3.4v30.8c0,0.55,0.45,1,1,1h2.2
		c0.55,0,1-0.45,1-1V62.8c0-1.88,1.53-3.4,3.4-3.4h4.4c1.87,0,3.4,1.53,3.4,3.4v17.6c0,0.55,0.45,1,1,1h4.4c0.66,0,1.2,0.54,1.2,1.2
		S120.64,83.8,119.98,83.8z"/>
	<path class="st5" d="M111.18,61.8h-4.4c-0.27,0-0.52,0.11-0.71,0.29s-0.29,0.44-0.29,0.71l0,17.6c0,0.55,0.45,1,1,1h4.4
		c0.55,0,1-0.45,1-1V62.8C112.18,62.25,111.73,61.8,111.18,61.8z"/>
	<path class="st5" d="M95.77,48.6h-4.4c-0.27,0-0.52,0.11-0.71,0.29s-0.29,0.44-0.29,0.71l0,30.8c0,0.55,0.45,1,1,1h4.4
		c0.55,0,1-0.45,1-1V49.6C96.77,49.05,96.33,48.6,95.77,48.6z"/>
	<path class="st2" d="M29.87,55.32c-0.03,0-0.06,0-0.09,0c-0.25,0-0.49,0.09-0.67,0.26c-0.21,0.19-0.33,0.46-0.33,0.74V78.2
		c0,0.55,0.45,1,1,1h21.89c0.28,0,0.55-0.12,0.74-0.33s0.28-0.49,0.26-0.77C51.54,66.02,41.95,56.43,29.87,55.32z"/>
	<path class="st5" d="M80.37,55.2h-4.4c-0.27,0-0.52,0.11-0.71,0.29s-0.29,0.44-0.29,0.71l0,24.2c0,0.55,0.45,1,1,1h4.4
		c0.55,0,1-0.45,1-1V56.2C81.37,55.65,80.93,55.2,80.37,55.2z"/>
	<path class="st2" d="M51.66,81.6H28.13c-0.17,0-0.33,0.04-0.47,0.12L6.94,92.88c-0.25,0.13-0.43,0.36-0.5,0.64s-0.02,0.56,0.14,0.8
		c4.67,7.07,12.52,11.29,21,11.29c13.1-0.02,23.88-9.87,25.08-22.91c0.03-0.28-0.07-0.56-0.26-0.77S51.94,81.6,51.66,81.6z"/>
	<path class="st2" d="M13.17,41.9c0-2.37-1.93-4.3-4.3-4.3s-4.3,1.93-4.3,4.3c0,2.37,1.93,4.3,4.3,4.3
		C11.24,46.2,13.17,44.27,13.17,41.9z"/>
	<path class="st5" d="M26.37,79.09V56.31c0-0.28-0.12-0.55-0.33-0.74c-0.19-0.17-0.43-0.26-0.67-0.26c-0.03,0-0.06,0-0.09,0
		c-2.63,0.24-5.19,0.88-7.62,1.92c-6.19,2.64-10.97,7.53-13.48,13.77C1.68,77.25,1.75,84.1,4.39,90.28
		c0.11,0.26,0.32,0.46,0.59,0.55c0.11,0.04,0.22,0.06,0.33,0.06c0.16,0,0.33-0.04,0.47-0.12l20.06-10.8
		C26.17,79.79,26.37,79.46,26.37,79.09z"/>
	<path class="st5" d="M124.38,0h-110c-3.08,0-5.6,2.52-5.6,5.6v28.71c0,0.5-0.37,0.92-0.86,0.99c-3.64,0.51-6.19,3.88-5.68,7.51
		c0.41,2.94,2.74,5.28,5.68,5.69c0.49,0.07,0.86,0.49,0.86,0.99v10.32c0,0.27-0.11,0.53-0.31,0.72C-2.5,71.06-2.86,88.55,7.67,99.52
		c5.25,5.47,12.31,8.48,19.9,8.48c7.15,0,13.93-2.73,19.1-7.68c2.17-2.09,3.98-4.5,5.37-7.17c0.17-0.33,0.51-0.54,0.89-0.54h71.46
		c3.09,0,5.6-2.52,5.6-5.6V5.6C129.97,2.52,127.46,0,124.38,0z M4.57,41.9c0-2.37,1.93-4.3,4.3-4.3s4.3,1.93,4.3,4.3
		s-1.93,4.3-4.3,4.3C6.5,46.2,4.57,44.27,4.57,41.9z M5.31,90.89c-0.11,0-0.22-0.02-0.33-0.06c-0.27-0.09-0.48-0.29-0.59-0.55
		C1.75,84.1,1.68,77.25,4.18,71.01c2.51-6.24,7.29-11.13,13.48-13.77c2.43-1.04,4.99-1.68,7.62-1.92c0.03,0,0.06,0,0.09,0
		c0.25,0,0.49,0.09,0.67,0.26c0.21,0.19,0.33,0.46,0.33,0.74v22.78c0,0.37-0.2,0.71-0.53,0.88L5.79,90.77
		C5.64,90.85,5.48,90.89,5.31,90.89z M27.57,105.6c-8.47-0.01-16.32-4.23-21-11.29c-0.16-0.23-0.2-0.52-0.14-0.8s0.25-0.5,0.5-0.64
		l20.72-11.15c0.15-0.08,0.31-0.12,0.47-0.12h23.53c0.28,0,0.55,0.12,0.74,0.33s0.28,0.49,0.26,0.77
		C51.45,95.74,40.67,105.58,27.57,105.6z M52.4,78.88c-0.19,0.21-0.46,0.33-0.74,0.33H29.77c-0.55,0-1-0.45-1-1V56.31
		c0-0.28,0.12-0.55,0.33-0.74c0.19-0.17,0.43-0.26,0.67-0.26c0.03,0,0.06,0,0.09,0c12.09,1.12,21.68,10.71,22.79,22.79
		C52.69,78.39,52.59,78.67,52.4,78.88z M127.58,87c0,1.76-1.44,3.2-3.2,3.2h-69.6c-0.32,0-0.62-0.15-0.81-0.41
		c-0.19-0.26-0.24-0.59-0.14-0.9c4.71-14.45-3.22-30.03-17.67-34.74c-2.76-0.9-5.63-1.36-8.53-1.36c-5.3,0-10.46,1.51-14.91,4.38
		c-0.16,0.11-0.35,0.16-0.54,0.16c-0.16,0-0.33-0.04-0.48-0.12c-0.32-0.18-0.52-0.51-0.52-0.88v-7.51c0-0.39,0.22-0.74,0.57-0.9
		c2.32-1.1,3.82-3.46,3.83-6.02c-0.01-1-0.24-1.99-0.68-2.89c-0.2-0.4-0.1-0.89,0.23-1.19l11.13-9.9c0.19-0.17,0.43-0.25,0.66-0.25
		c0.18,0,0.36,0.05,0.52,0.14c1.04,0.63,2.24,0.96,3.46,0.96c0.88,0,1.74-0.17,2.55-0.5c0.12-0.05,0.25-0.08,0.38-0.08
		c0.22,0,0.44,0.07,0.62,0.21l9.7,7.66c0.35,0.27,0.47,0.74,0.31,1.16c-1.37,3.43,0.31,7.33,3.74,8.7c0.8,0.32,1.63,0.48,2.48,0.48
		c2.76,0,5.2-1.66,6.22-4.22c0.66-1.65,0.64-3.46-0.06-5.1c-0.17-0.41-0.06-0.88,0.28-1.16l12.72-10.5
		c0.18-0.15,0.41-0.23,0.64-0.23c0.2,0,0.4,0.06,0.57,0.18c1.12,0.78,2.44,1.19,3.8,1.19c2.19,0,4.24-1.07,5.49-2.87
		c1.02-1.46,1.4-3.24,1.09-4.99s-1.3-3.28-2.76-4.3c-1.12-0.78-2.44-1.19-3.8-1.19c-2.19,0-4.24,1.07-5.49,2.87
		c-1.29,1.85-1.55,4.21-0.71,6.3c0.16,0.4,0.04,0.87-0.29,1.14L55.59,34.08c-0.18,0.15-0.41,0.23-0.64,0.23
		c-0.19,0-0.39-0.06-0.55-0.17c-1.1-0.74-2.39-1.12-3.72-1.12c-1.38,0-2.72,0.42-3.85,1.21c-0.17,0.12-0.37,0.18-0.57,0.18
		c-0.22,0-0.44-0.07-0.62-0.21l-8.96-7.07c-0.41-0.32-0.5-0.91-0.21-1.34c0.99-1.49,1.34-3.27,0.99-5.03
		c-0.35-1.75-1.37-3.27-2.85-4.26c-1.1-0.73-2.39-1.12-3.71-1.12c-2.25,0-4.34,1.12-5.58,2.99c-1.31,1.96-1.48,4.5-0.46,6.62
		c0.19,0.4,0.1,0.89-0.24,1.18l-11.14,9.9c-0.19,0.17-0.43,0.25-0.66,0.25c-0.18,0-0.36-0.05-0.52-0.15
		c-0.18-0.11-0.37-0.21-0.56-0.3c-0.35-0.17-0.57-0.52-0.57-0.9V5.6c0-1.76,1.44-3.2,3.2-3.2h110c1.76,0,3.2,1.44,3.2,3.2V87z
		 M27.83,19.06c0.81-0.81,1.89-1.26,3.04-1.26c1.15,0,2.23,0.45,3.04,1.26c0.01,0.01,0.01,0.01,0.02,0.02
		c1.65,1.68,1.65,4.39-0.02,6.06c-0.81,0.81-1.89,1.26-3.04,1.26c-1.15,0-2.23-0.45-3.04-1.26C26.15,23.47,26.15,20.74,27.83,19.06z
		 M46.37,39.7c0-1.15,0.45-2.23,1.26-3.04c0.81-0.81,1.89-1.26,3.04-1.26c1.15,0,2.23,0.45,3.04,1.26c1.67,1.68,1.67,4.4,0,6.08
		C52.9,43.55,51.82,44,50.67,44c-1.15,0-2.23-0.45-3.04-1.26C46.82,41.93,46.37,40.85,46.37,39.7z M71.83,16.86
		c0.81-0.81,1.89-1.26,3.04-1.26c1.15,0,2.23,0.45,3.04,1.26c0.81,0.81,1.26,1.89,1.26,3.04c0,1.15-0.45,2.23-1.26,3.04
		c-0.81,0.81-1.89,1.26-3.04,1.26c-1.15,0-2.23-0.45-3.04-1.26C70.17,21.26,70.16,18.54,71.83,16.86z"/>
	<path class="st5" d="M97.97,15.6h19.8c0.66,0,1.2-0.54,1.2-1.2s-0.54-1.2-1.2-1.2h-19.8c-0.66,0-1.2,0.54-1.2,1.2
		S97.31,15.6,97.97,15.6z"/>
	<path class="st5" d="M119.98,81.4h-4.4c-0.55,0-1-0.45-1-1V62.8c0-1.88-1.53-3.4-3.4-3.4h-4.4c-1.87,0-3.4,1.53-3.4,3.4v17.6
		c0,0.55-0.45,1-1,1h-2.2c-0.55,0-1-0.45-1-1V49.6c0-1.88-1.53-3.4-3.4-3.4h-4.4c-1.88,0-3.4,1.53-3.4,3.4v30.8c0,0.55-0.45,1-1,1
		h-2.2c-0.55,0-1-0.45-1-1V56.2c0-1.87-1.53-3.4-3.4-3.4h-4.4c-1.88,0-3.4,1.53-3.4,3.4v24.2c0,0.27-0.11,0.52-0.29,0.71
		c-0.19,0.19-0.44,0.29-0.71,0.29c0,0,0,0,0,0c-1.76,0-3.2-1.44-3.2-3.2V43c0-0.66-0.54-1.2-1.2-1.2s-1.2,0.54-1.2,1.2v35.2
		c0,3.08,2.52,5.6,5.6,5.6h48.4c0.66,0,1.2-0.54,1.2-1.2S120.64,81.4,119.98,81.4z M81.37,80.4c0,0.55-0.45,1-1,1h-4.4
		c-0.55,0-1-0.45-1-1l0-24.2c0-0.26,0.11-0.52,0.29-0.71s0.44-0.29,0.71-0.29h4.4c0.55,0,1,0.45,1,1V80.4z M96.77,80.4
		c0,0.55-0.45,1-1,1h-4.4c-0.55,0-1-0.45-1-1l0-30.8c0-0.27,0.11-0.52,0.29-0.71s0.44-0.29,0.71-0.29h4.4c0.55,0,1,0.45,1,1V80.4z
		 M112.18,80.4c0,0.55-0.45,1-1,1h-4.4c-0.55,0-1-0.45-1-1l0-17.6c0-0.26,0.11-0.52,0.29-0.71s0.44-0.29,0.71-0.29h4.4
		c0.55,0,1,0.45,1,1V80.4z"/>
	<path class="st5" d="M91.37,24.4c0.66,0,1.2-0.54,1.2-1.2c0-0.66-0.54-1.2-1.2-1.2s-1.2,0.54-1.2,1.2
		C90.17,23.86,90.71,24.4,91.37,24.4z"/>
	<circle class="st5" cx="91.37" cy="32" r="1.2"/>
	<path class="st5" d="M97.97,24.4h19.8c0.66,0,1.2-0.54,1.2-1.2c0-0.66-0.54-1.2-1.2-1.2h-19.8c-0.66,0-1.2,0.54-1.2,1.2
		C96.77,23.86,97.31,24.4,97.97,24.4z"/>
	<circle class="st5" cx="91.37" cy="14.4" r="1.2"/>
	<path class="st5" d="M97.97,33.2h19.8c0.66,0,1.2-0.54,1.2-1.2s-0.54-1.2-1.2-1.2h-19.8c-0.66,0-1.2,0.54-1.2,1.2
		S97.31,33.2,97.97,33.2z"/>
</g>
</svg>
