<?xml version="1.0" encoding="utf-8"?>
<!-- Generator: Adobe Illustrator 25.0.0, SVG Export Plug-In . SVG Version: 6.00 Build 0)  -->
<svg version="1.1" id="Layer_1" xmlns="http://www.w3.org/2000/svg" xmlns:xlink="http://www.w3.org/1999/xlink" x="0px" y="0px"
	 viewBox="0 0 166.87 165" style="enable-background:new 0 0 166.87 165;" xml:space="preserve">
<style type="text/css">
	.st0{fill:#00B0FB;}
	.st1{fill:#00B0FB;fill-opacity:0.4;}
	.st2{fill:#FFFFFF;}
	.st3{fill:#185AE9;}
	.st4{fill-rule:evenodd;clip-rule:evenodd;fill:#00B0FB;}
	.st5{fill:#00769D;}
	.st6{fill:#8DB849;}
	.st7{fill:#5A863E;}
	.st8{fill:#FFFFFE;}
	.st9{clip-path:url(#SVGID_2_);fill:#F9C638;}
	.st10{fill:#2A2D2C;}
	.st11{fill:#F9C638;}
	.st12{fill:#009CDE;}
	.st13{fill:#92003B;}
	.st14{fill:#001135;}
	.st15{fill:#3C7CFF;}
	.st16{fill:#DBDBDB;}
	.st17{fill:#FDFDFD;}
	.st18{fill:#FBFBFB;}
	.st19{fill:#FCFCFC;}
	.st20{fill:#E7E7E7;}
	.st21{fill:#FEFEFE;}
	.st22{fill:#EAEAEA;}
	.st23{fill:#E8E8E8;}
	.st24{fill:#E4E4E4;}
	.st25{fill:#D0CFD0;}
	.st26{fill:#E4E3E4;}
	.st27{fill:#C6C5C6;}
	.st28{fill:#BDBDBD;}
	.st29{fill:#CDCDCD;}
	.st30{fill:#C7C7C7;}
	.st31{fill:#D9D9D9;}
	.st32{opacity:0.28;}
	.st33{fill:#1429FF;}
</style>
<g>
	<path class="st33" d="M100.77,146.79H65.71c0.52,5.53,0.18,11.92-0.96,18.21h37.15C100.66,158.67,100.26,152.28,100.77,146.79z"/>
	<polygon class="st33" points="42.92,84.9 53.7,78.68 42.92,72.45 	"/>
	<path class="st33" d="M94.48,13.22c2.43-4.21,0.98-9.61-3.23-12.04C87.05-1.25,81.65,0.2,79.22,4.4l-2.5,4.34l15.26,8.81
		L94.48,13.22z"/>
	<rect x="37.36" y="35.54" transform="matrix(0.5 -0.866 0.866 0.5 -5.2489 79.6219)" class="st33" width="57.93" height="17.62"/>
	<path class="st33" d="M0,130.77c0,4.94,4.02,8.95,8.95,8.95h148.96c4.94,0,8.95-4.02,8.95-8.95v-8.82H0V130.77z"/>
	<path class="st33" d="M161.23,21.98H97.59L63.83,80.45c-0.31,0.54-0.76,0.98-1.29,1.29l-9.96,5.75h74.9c1.95,0,3.54,1.58,3.54,3.54
		c0,1.95-1.58,3.54-3.54,3.54h-88.1c-1.95,0-3.54-1.58-3.54-3.54v-24.7c0-0.62,0.16-1.23,0.47-1.77l24.59-42.59H8.95
		C4.02,21.98,0,25.99,0,30.93v83.96h166.87V27.61C166.87,24.5,164.34,21.98,161.23,21.98z M127.48,73.17H90.86
		c-1.95,0-3.54-1.58-3.54-3.54c0-1.95,1.58-3.54,3.54-3.54h36.62c1.95,0,3.54,1.58,3.54,3.54
		C131.02,71.59,129.43,73.17,127.48,73.17z"/>
</g>
</svg>
