<?xml version="1.0" encoding="utf-8"?>
<!-- Generator: Adobe Illustrator 25.0.0, SVG Export Plug-In . SVG Version: 6.00 Build 0)  -->
<svg version="1.1" id="Layer_1" xmlns="http://www.w3.org/2000/svg" xmlns:xlink="http://www.w3.org/1999/xlink" x="0px" y="0px"
	 viewBox="0 0 164.99 165" style="enable-background:new 0 0 164.99 165;" xml:space="preserve">
<style type="text/css">
	.st0{fill:#00B0FB;}
	.st1{fill:#00B0FB;fill-opacity:0.4;}
	.st2{fill:#FFFFFF;}
	.st3{fill:#185AE9;}
	.st4{fill-rule:evenodd;clip-rule:evenodd;fill:#00B0FB;}
	.st5{fill:#00769D;}
	.st6{fill:#8DB849;}
	.st7{fill:#5A863E;}
	.st8{fill:#FFFFFE;}
	.st9{clip-path:url(#SVGID_2_);fill:#F9C638;}
	.st10{fill:#2A2D2C;}
	.st11{fill:#F9C638;}
	.st12{fill:#009CDE;}
	.st13{fill:#92003B;}
	.st14{fill:#001135;}
	.st15{fill:#3C7CFF;}
	.st16{fill:#DBDBDB;}
	.st17{fill:#FDFDFD;}
	.st18{fill:#FBFBFB;}
	.st19{fill:#FCFCFC;}
	.st20{fill:#E7E7E7;}
	.st21{fill:#FEFEFE;}
	.st22{fill:#EAEAEA;}
	.st23{fill:#E8E8E8;}
	.st24{fill:#E4E4E4;}
	.st25{fill:#D0CFD0;}
	.st26{fill:#E4E3E4;}
	.st27{fill:#C6C5C6;}
	.st28{fill:#BDBDBD;}
	.st29{fill:#CDCDCD;}
	.st30{fill:#C7C7C7;}
	.st31{fill:#D9D9D9;}
	.st32{opacity:0.28;}
	.st33{fill:#1429FF;}
</style>
<g>
	<polygon class="st33" points="116.63,145.18 123.08,158.07 158.04,123.1 145.15,116.66 	"/>
	<path class="st33" d="M107.88,117.92c5.53,0.01,10.02-4.47,10.03-10c0.01-5.53-4.47-10.02-10-10.03c-2.66,0-5.21,1.05-7.09,2.93
		c-1.88,1.87-2.94,4.42-2.94,7.07C97.87,113.42,102.35,117.91,107.88,117.92z"/>
	<path class="st33" d="M131.49,86.52L67.35,60.86l-1.42,1.43l33.24,33.24c5.24-3.7,12.25-3.7,17.49,0
		c6.84,4.83,8.48,14.29,3.65,21.14c-4.83,6.84-14.29,8.48-21.14,3.65c-6.84-4.83-8.48-14.29-3.65-21.14L62.29,65.93l-1.43,1.42
		l25.66,64.14l26.32,10.12l28.78-28.78L131.49,86.52z"/>
	<path class="st33" d="M145.15,116.66l-28.52,28.52l6.44,12.89l34.96-34.96L145.15,116.66z M107.91,97.89
		c-2.66,0-5.21,1.05-7.09,2.93c-1.88,1.88-2.94,4.42-2.94,7.08c-0.01,5.53,4.47,10.02,10,10.03c5.53,0.01,10.02-4.47,10.03-10
		C117.92,102.39,113.44,97.9,107.91,97.89z M131.49,86.51L67.35,60.86l-1.42,1.43l33.24,33.24c5.24-3.7,12.25-3.7,17.49,0
		c6.84,4.83,8.48,14.3,3.65,21.14c-4.83,6.84-14.3,8.48-21.14,3.65c-6.85-4.83-8.48-14.3-3.65-21.14L62.29,65.93l-1.43,1.42
		l25.66,64.14l26.32,10.12l28.78-28.78L131.49,86.51z"/>
	<path class="st33" d="M164.24,45.66C164.24,45.66,164.24,45.66,164.24,45.66l-11.3-11.31c-1.01-1-2.63-1-3.63,0l-4.37,4.34
		c-21.92-16.5-51.04-19.88-76.17-8.85l14.86-14.82c3.93,1.88,8.65,0.22,10.53-3.72c1.88-3.94,0.22-8.65-3.72-10.53
		C86.5-1.11,81.79,0.56,79.9,4.5c-1.04,2.18-1.03,4.72,0.04,6.89L54.86,36.5c-6.07-4.07-14.3-2.45-18.36,3.62
		c-2.99,4.46-2.99,10.29,0,14.75L11.38,79.94c-3.93-1.91-8.67-0.28-10.58,3.65c-1.91,3.93-0.28,8.67,3.65,10.58
		c3.93,1.91,8.66,0.28,10.58-3.65c1.06-2.19,1.06-4.75,0-6.93l14.86-14.82c-11.04,25.12-7.67,54.24,8.82,76.17l-4.36,4.37
		c-1,1.01-1,2.63,0,3.63l11.3,11.3c0.48,0.49,1.13,0.76,1.82,0.76c0.69,0,1.34-0.27,1.83-0.76l11.32-11.3c1-1.01,1-2.63,0-3.63
		l-11.28-11.37c-1.02-0.97-2.63-0.97-3.65,0l-3.27,3.27c-17.91-24.3-18.43-57.29-1.29-82.15c6.4,3.52,14.44,1.19,17.96-5.21
		c2.17-3.95,2.18-8.73,0.03-12.69c24.85-17.13,57.84-16.62,82.15,1.29l-3.32,3.23c-0.48,0.48-0.75,1.14-0.75,1.82
		c-0.01,0.69,0.26,1.34,0.75,1.83l11.37,11.28c1.01,1,2.63,1,3.63,0l11.3-11.3C165.25,48.3,165.25,46.67,164.24,45.66z M85.1,6.01
		C85.1,6.01,85.1,6.01,85.1,6.01c1.07-1.08,2.81-1.09,3.89-0.02c1.08,1.07,1.08,2.81,0.01,3.88c-1.07,1.08-2.8,1.09-3.88,0.02
		c-0.01,0-0.01-0.01-0.02-0.02C84.03,8.81,84.03,7.08,85.1,6.01z M9.89,88.96c-1.17,0.97-2.9,0.82-3.87-0.35
		c-0.85-1.02-0.85-2.5,0-3.52c1.07-1.05,2.79-1.05,3.87,0C10.95,86.16,10.95,87.89,9.89,88.96z M47.51,143.41l7.66,7.66l-7.66,7.66
		l-7.66-7.66L47.51,143.41z M53.22,53.22c-3.15,3.16-8.27,3.16-11.42,0.01c-3.16-3.15-3.16-8.27-0.01-11.43c0,0,0.01-0.01,0.01-0.01
		c3.14-3.15,8.24-3.16,11.39-0.03c0.01,0.01,0.02,0.02,0.03,0.03C56.37,44.95,56.38,50.07,53.22,53.22z M151.15,55.11l-7.66-7.66
		l7.66-7.66l7.66,7.66L151.15,55.11z"/>
</g>
</svg>
