<?xml version="1.0" encoding="utf-8"?>
<!-- Generator: Adobe Illustrator 25.0.0, SVG Export Plug-In . SVG Version: 6.00 Build 0)  -->
<svg version="1.1" id="Layer_1" xmlns="http://www.w3.org/2000/svg" xmlns:xlink="http://www.w3.org/1999/xlink" x="0px" y="0px"
	 viewBox="0 0 564.27 478" style="enable-background:new 0 0 564.27 478;" xml:space="preserve">
<style type="text/css">
	.st0{fill:#185AE9;}
	.st1{fill:#00B0FB;}
	.st2{fill-rule:evenodd;clip-rule:evenodd;fill:#00B0FB;}
	.st3{fill:none;}
	.st4{fill:#00B0FB;fill-opacity:0.4;}
	.st5{fill:#FFFFFF;}
	.st6{fill:#3C7CFF;}
	.st7{fill:#001135;}
	.st8{fill:#8DB849;}
	.st9{fill:#5A863E;}
	.st10{fill:#FFFFFE;}
	.st11{fill:#009CDE;}
	.st12{fill:#FCB415;}
	.st13{opacity:0.2;fill:#FFFFFF;enable-background:new    ;}
	.st14{fill:#68B345;}
	.st15{fill:#0A99D6;}
	.st16{opacity:0.1;fill:#010101;enable-background:new    ;}
	.st17{fill:#EE3325;}
	.st18{fill:url(#SVGID_1_);}
	.st19{fill:#B3B3B3;}
	.st20{fill:#A6120D;}
	.st21{fill:#DD1B16;}
	.st22{fill:#F2F2F2;}
	.st23{fill:#FF2D20;}
	.st24{clip-path:url(#SVGID_2_);fill:#F9C638;}
	.st25{fill:#2A2D2C;}
	.st26{fill:#F9C638;}
	.st27{fill:#FDFDFD;}
	.st28{fill:#DBDBDB;}
	.st29{fill:#FBFBFB;}
	.st30{fill:#121212;}
	.st31{fill:#FCFCFC;}
	.st32{fill:#D2D3D3;}
	.st33{fill:#F6F6F6;}
	.st34{fill:#BABBBB;}
	.st35{fill:#8A8A8A;}
	.st36{fill:#8E8F8F;}
	.st37{fill:#5F5E5E;}
</style>
<g>
	<g>
		<path class="st27" d="M94.31,118.46c-0.31-0.18-0.61-0.36-0.92-0.54C93.7,118.1,94,118.28,94.31,118.46z"/>
		<path class="st27" d="M96.2,119.46c-0.31-0.15-0.61-0.31-0.92-0.48C95.58,119.15,95.89,119.31,96.2,119.46z"/>
		<path class="st27" d="M90.7,116.14c-0.32-0.23-0.63-0.47-0.94-0.71C90.07,115.67,90.38,115.91,90.7,116.14z"/>
		<path class="st27" d="M98.14,120.36c-0.31-0.13-0.61-0.27-0.92-0.41C97.52,120.09,97.83,120.23,98.14,120.36z"/>
		<path class="st27" d="M110.85,123.59c-0.26-0.03-0.53-0.05-0.78-0.08C110.33,123.54,110.59,123.56,110.85,123.59z"/>
		<path class="st27" d="M88.97,114.83c-0.33-0.26-0.65-0.54-0.97-0.82C88.32,114.28,88.64,114.56,88.97,114.83z"/>
		<path class="st27" d="M106.43,122.92c-0.3-0.06-0.59-0.12-0.89-0.18C105.84,122.81,106.13,122.86,106.43,122.92z"/>
		<path class="st27" d="M108.63,123.31c-0.28-0.04-0.57-0.08-0.85-0.13C108.06,123.22,108.34,123.26,108.63,123.31z"/>
		<path class="st27" d="M102.18,121.85c-0.31-0.09-0.61-0.19-0.91-0.29C101.57,121.66,101.87,121.75,102.18,121.85z"/>
		<path class="st27" d="M100.13,121.16c-0.31-0.11-0.61-0.23-0.92-0.35C99.52,120.93,99.82,121.04,100.13,121.16z"/>
		<path class="st27" d="M104.28,122.44c-0.3-0.08-0.61-0.15-0.9-0.24C103.67,122.29,103.98,122.36,104.28,122.44z"/>
		<path class="st27" d="M92.48,117.35c-0.31-0.2-0.62-0.41-0.93-0.62C91.86,116.94,92.17,117.15,92.48,117.35z"/>
		<path class="st27" d="M77.78,64.83c0.3-0.54,0.61-1.08,0.93-1.6C78.39,63.75,78.08,64.29,77.78,64.83z"/>
		<path class="st27" d="M82.62,57.87c0.26-0.31,0.54-0.6,0.81-0.9C83.15,57.27,82.88,57.57,82.62,57.87z"/>
		<path class="st27" d="M79.09,62.63c0.22-0.34,0.44-0.68,0.67-1.02C79.53,61.94,79.31,62.28,79.09,62.63z"/>
		<path class="st27" d="M76.05,68.41c0.17-0.4,0.35-0.8,0.53-1.19C76.4,67.61,76.22,68,76.05,68.41z"/>
		<path class="st27" d="M81.39,59.37c0.23-0.29,0.46-0.57,0.69-0.85C81.85,58.8,81.62,59.08,81.39,59.37z"/>
		<path class="st27" d="M87.29,113.4c-0.36-0.32-0.71-0.66-1.07-1C86.58,112.74,86.93,113.08,87.29,113.4z"/>
		<path class="st27" d="M85.66,111.88c-0.54-0.53-1.06-1.07-1.58-1.63C84.6,110.81,85.13,111.35,85.66,111.88z"/>
		<path class="st27" d="M73.95,74.83c0.15-0.66,0.33-1.3,0.51-1.95C74.28,73.52,74.1,74.17,73.95,74.83z"/>
		<path class="st27" d="M75.32,70.28c0.14-0.4,0.3-0.79,0.45-1.18C75.61,69.49,75.46,69.88,75.32,70.28z"/>
		<path class="st27" d="M74.65,72.27c0.13-0.43,0.27-0.87,0.42-1.29C74.92,71.4,74.78,71.83,74.65,72.27z"/>
		<path class="st27" d="M76.86,66.61c0.26-0.53,0.52-1.05,0.8-1.56C77.39,65.56,77.12,66.08,76.86,66.61z"/>
		<path class="st27" d="M84.02,49.92c1.02-0.88,2.09-1.72,3.2-2.52C86.11,48.2,85.05,49.03,84.02,49.92z"/>
		<path class="st27" d="M77.74,56.63c0.42-0.55,0.85-1.09,1.29-1.62C78.59,55.54,78.16,56.08,77.74,56.63z"/>
		<path class="st27" d="M75.38,60.08c0.2-0.32,0.4-0.64,0.61-0.96C75.78,59.43,75.58,59.76,75.38,60.08z"/>
		<path class="st27" d="M79.3,54.69c0.83-0.97,1.7-1.91,2.61-2.81C80.99,52.78,80.12,53.72,79.3,54.69z"/>
		<path class="st27" d="M82.14,51.66c0.6-0.58,1.22-1.15,1.85-1.7C83.35,50.5,82.73,51.07,82.14,51.66z"/>
		<path class="st27" d="M113.05,123.77c-0.21-0.01-0.42-0.02-0.63-0.03C112.63,123.75,112.84,123.76,113.05,123.77z"/>
		<path class="st27" d="M70.86,70c0.1-0.33,0.21-0.66,0.32-0.98C71.07,69.35,70.96,69.67,70.86,70z"/>
		<path class="st27" d="M71.45,68.24c0.18-0.51,0.37-1.01,0.57-1.5C71.82,67.23,71.63,67.73,71.45,68.24z"/>
		<path class="st27" d="M73.33,63.78c0.16-0.32,0.32-0.64,0.49-0.96C73.66,63.13,73.49,63.45,73.33,63.78z"/>
		<path class="st27" d="M72.32,66c0.14-0.32,0.27-0.65,0.42-0.97C72.6,65.35,72.46,65.68,72.32,66z"/>
		<path class="st27" d="M74.16,62.18c0.28-0.52,0.57-1.03,0.88-1.54C74.73,61.15,74.44,61.67,74.16,62.18z"/>
		<path class="st27" d="M76.12,58.91c0.41-0.63,0.84-1.24,1.29-1.85C76.97,57.67,76.54,58.28,76.12,58.91z"/>
		<path class="st27" d="M120.77,39.01c3.04,0.37,6.04,1.05,8.99,2.05C126.81,40.05,123.81,39.38,120.77,39.01z"/>
		<path class="st27" d="M124.5,127.44c-0.79,0.13-1.58,0.23-2.37,0.32C122.91,127.67,123.7,127.57,124.5,127.44z"/>
		<path class="st27" d="M121.74,127.8c-0.68,0.07-1.37,0.14-2.05,0.18C120.37,127.94,121.06,127.88,121.74,127.8z"/>
		<polygon class="st27" points="114.85,123.86 114.85,123.86 114.85,123.86 		"/>
		<path class="st27" d="M119.48,128c-0.75,0.05-1.49,0.08-2.23,0.1C117.99,128.08,118.73,128.04,119.48,128z"/>
		<path class="st27" d="M114.85,38.67c0.49,0,0.98,0.01,1.47,0.02C115.83,38.68,115.34,38.67,114.85,38.67z"/>
		<path class="st27" d="M87.32,47.33c3.75-2.67,7.98-4.81,12.62-6.28C95.3,42.52,91.06,44.66,87.32,47.33z"/>
		<path class="st27" d="M99.95,41.05c0.37-0.13,0.75-0.24,1.12-0.35C100.69,40.81,100.33,40.93,99.95,41.05z"/>
		<path class="st27" d="M116.92,38.7c0.48,0.02,0.95,0.04,1.43,0.08C117.88,38.75,117.4,38.72,116.92,38.7z"/>
		<path class="st27" d="M118.93,38.82c0.5,0.04,1,0.09,1.5,0.14C119.93,38.91,119.43,38.86,118.93,38.82z"/>
		<path class="st27" d="M80.22,60.94c0.21-0.3,0.43-0.6,0.65-0.9C80.65,60.34,80.44,60.64,80.22,60.94z"/>
		<path class="st27" d="M97.8,46.69c0.11-0.05,0.22-0.09,0.33-0.14C98.02,46.6,97.91,46.65,97.8,46.69z"/>
		<path class="st27" d="M94.51,48.31c0.13-0.07,0.26-0.15,0.4-0.22C94.78,48.17,94.65,48.24,94.51,48.31z"/>
		<path class="st27" d="M90.34,50.9c0.13-0.09,0.26-0.17,0.38-0.26C90.6,50.72,90.47,50.81,90.34,50.9z"/>
		<path class="st27" d="M104.41,44.4c0.03-0.01,0.05-0.01,0.08-0.02C104.46,44.39,104.43,44.39,104.41,44.4z"/>
		<polygon class="st27" points="114.85,43.03 114.84,43.03 114.85,43.03 		"/>
		<path class="st27" d="M107.83,43.66c0.04-0.01,0.09-0.01,0.13-0.02C107.91,43.65,107.87,43.65,107.83,43.66z"/>
		<path class="st27" d="M114.84,128.09c0.78,0.02,1.57,0.02,2.37,0C116.42,128.11,115.63,128.11,114.84,128.09
			C114.85,128.09,114.85,128.09,114.84,128.09z"/>
		<path class="st27" d="M106.04,44.01c0.07-0.02,0.15-0.03,0.22-0.05C106.19,43.98,106.11,44,106.04,44.01z"/>
		<path class="st27" d="M88.81,52.03c0.2-0.15,0.39-0.3,0.59-0.44C89.2,51.73,89,51.88,88.81,52.03z"/>
		<path class="st27" d="M96.12,47.48c0.14-0.07,0.28-0.14,0.42-0.21C96.4,47.34,96.26,47.41,96.12,47.48z"/>
		<path class="st27" d="M87.32,53.23c0.21-0.18,0.42-0.35,0.64-0.53C87.74,52.88,87.53,53.05,87.32,53.23z"/>
		<path class="st27" d="M84.32,56.03c0.27-0.28,0.55-0.56,0.83-0.84C84.86,55.46,84.59,55.75,84.32,56.03z"/>
		<path class="st27" d="M85.86,54.52c0.22-0.2,0.44-0.41,0.66-0.61C86.3,54.11,86.08,54.32,85.86,54.52z"/>
		<path class="st28" d="M221.82,141.2c3.92,0,5.09-1.19,5.19-5.15c0.02-0.64,0.01-1.29,0.01-1.93c0-34.79-0.04-69.59,0.07-104.38
			c0.01-2.76-0.75-3.28-3.36-3.27c-36.19,0.09-72.38,0.06-108.57,0.06c-35.98,0-71.95,0.04-107.93-0.08
			c-2.99-0.01-3.9,0.52-3.89,3.74c0.14,34.79,0.09,69.59,0.09,104.38c0,5.72,0.91,6.63,6.72,6.63c36.08,0.01,72.17,0.01,108.25,0.01
			C152.87,141.21,187.35,141.21,221.82,141.2z M114.84,128.09c-3.16,0.07-6.39-0.13-9.65-0.65c-20.66-3.27-38.96-22.86-36.77-47.65
			c0.25-2.84,0.63-5.71,1.97-8.32c0.02-0.04,0.04-0.07,0.05-0.1c0.13-0.46,0.26-0.91,0.4-1.37c0.1-0.33,0.21-0.66,0.32-0.98
			c0.09-0.26,0.18-0.52,0.27-0.78c0.18-0.51,0.37-1.01,0.57-1.5c0.1-0.24,0.2-0.49,0.3-0.73c0.14-0.32,0.27-0.65,0.42-0.97
			c0.19-0.42,0.39-0.84,0.59-1.26c0.16-0.32,0.32-0.64,0.49-0.96c0.11-0.21,0.22-0.42,0.34-0.63c0.28-0.52,0.57-1.03,0.88-1.54
			c0.11-0.19,0.23-0.38,0.34-0.57c0.2-0.32,0.4-0.64,0.61-0.96c0.05-0.07,0.09-0.14,0.14-0.21c0.41-0.63,0.84-1.24,1.29-1.85
			c0.11-0.14,0.22-0.29,0.32-0.43c0.42-0.55,0.85-1.09,1.29-1.62c0.09-0.11,0.18-0.22,0.27-0.32c0.83-0.97,1.7-1.91,2.61-2.81
			c0.08-0.08,0.15-0.15,0.23-0.23c0.6-0.58,1.22-1.15,1.85-1.7c0.01-0.01,0.02-0.02,0.04-0.03c1.02-0.88,2.09-1.72,3.2-2.52
			c0.03-0.02,0.06-0.04,0.09-0.07c3.75-2.67,7.98-4.81,12.62-6.28c0,0,0,0,0,0c0,0,0.01,0,0.01,0c0.37-0.12,0.74-0.24,1.12-0.35
			c4.48-1.39,9.08-2.06,13.77-2.02c0,0,0,0,0,0c0.49,0,0.98,0.01,1.47,0.02c0.2,0,0.4,0.01,0.6,0.01c0.48,0.02,0.95,0.04,1.43,0.08
			c0.19,0.01,0.39,0.03,0.58,0.04c0.5,0.04,1,0.09,1.5,0.14c0.11,0.01,0.23,0.03,0.34,0.04c3.04,0.37,6.04,1.05,8.99,2.05
			c0,0,0,0,0,0c7.72,2.45,14.32,6.75,19.42,12.26c3.02-3.17,6.1-6.28,9.2-9.37c2.64-2.62,6.17-2.73,8.58-0.46
			c2.26,2.13,2.18,5.51-0.37,8.3c-3.5,3.82-7,7.63-10.51,11.44c1.32,2.6,2.38,5.32,3.16,8.14c0.02,0.03,0.04,0.06,0.05,0.1
			c1.35,2.61,1.72,5.48,1.97,8.32c2.19,24.79-16.11,44.38-36.77,47.65c-0.79,0.13-1.58,0.23-2.37,0.32
			c-0.13,0.01-0.26,0.02-0.38,0.04c-0.68,0.07-1.37,0.14-2.05,0.18c-0.07,0-0.15,0.01-0.22,0.01c-0.75,0.05-1.49,0.08-2.23,0.1
			c-0.01,0-0.02,0-0.04,0C116.42,128.11,115.63,128.11,114.84,128.09z"/>
		<path class="st27" d="M145.61,110.25c9.28-10.05,13.26-22.01,10.13-35.42c-0.67-2.85-1.64-5.56-2.86-8.12
			c-5.74,6.24-11.49,12.47-17.25,18.68c-5.76,6.21-11.61,12.35-17.44,18.49c-1.03,1.08-2.2,2.04-3.31,3.04
			c-1.42,1.28-2.89,1.36-4.25,0c-7.6-7.58-15.2-15.14-22.72-22.8c-1.84-1.87-1.84-4.27-0.71-6.55c1.06-2.16,2.8-3.45,5.34-3.35
			c2.28-0.19,3.81,1.12,5.28,2.59c4.48,4.47,9.03,8.88,13.45,13.42c1.29,1.33,2.01,1.71,3.48,0.11
			c10.37-11.27,20.81-22.48,31.27-33.66c-7.92-8.49-19.31-13.58-31.16-13.65c0,0-0.01,0-0.01,0c-2.32,0.01-4.62,0.22-6.89,0.61
			c-0.04,0.01-0.09,0.01-0.13,0.02c-0.52,0.09-1.05,0.19-1.57,0.3c-0.07,0.02-0.15,0.03-0.22,0.05c-0.52,0.11-1.04,0.23-1.56,0.37
			c-0.03,0.01-0.05,0.01-0.08,0.02c-2.15,0.56-4.25,1.28-6.27,2.15c-0.11,0.05-0.22,0.09-0.33,0.14c-0.42,0.19-0.84,0.38-1.26,0.58
			c-0.14,0.07-0.28,0.14-0.42,0.21c-0.41,0.2-0.81,0.4-1.21,0.62c-0.13,0.07-0.26,0.14-0.4,0.22c-1.3,0.71-2.57,1.48-3.79,2.32
			c-0.13,0.09-0.26,0.17-0.38,0.26c-0.32,0.22-0.63,0.46-0.94,0.69c-0.2,0.15-0.4,0.29-0.59,0.44c-0.29,0.22-0.57,0.45-0.85,0.68
			c-0.21,0.17-0.43,0.35-0.64,0.53c-0.27,0.22-0.53,0.45-0.79,0.68c-0.22,0.2-0.44,0.4-0.66,0.61c-0.24,0.22-0.48,0.44-0.72,0.67
			c-0.28,0.27-0.56,0.56-0.83,0.84c-0.3,0.31-0.6,0.63-0.89,0.95c-0.27,0.3-0.54,0.6-0.81,0.9c-0.18,0.21-0.36,0.43-0.54,0.64
			c-0.23,0.28-0.46,0.56-0.69,0.85c-0.17,0.22-0.34,0.45-0.51,0.67c-0.22,0.3-0.44,0.6-0.65,0.9c-0.16,0.22-0.31,0.44-0.47,0.67
			c-0.23,0.34-0.45,0.68-0.67,1.02c-0.13,0.2-0.26,0.4-0.38,0.6c-0.32,0.53-0.63,1.06-0.93,1.6c-0.04,0.07-0.08,0.14-0.11,0.22
			c-0.28,0.51-0.54,1.04-0.8,1.56c-0.1,0.2-0.19,0.4-0.28,0.6c-0.18,0.39-0.36,0.79-0.53,1.19c-0.1,0.23-0.19,0.46-0.28,0.69
			c-0.16,0.39-0.31,0.78-0.45,1.18c-0.08,0.23-0.17,0.46-0.25,0.7c-0.15,0.43-0.28,0.86-0.42,1.29c-0.06,0.21-0.13,0.41-0.19,0.62
			c-0.18,0.64-0.36,1.29-0.51,1.95c-3.13,13.41,0.85,25.37,10.13,35.42c0.52,0.56,1.05,1.11,1.58,1.63
			c0.18,0.18,0.37,0.35,0.56,0.53c0.35,0.34,0.71,0.68,1.07,1c0.23,0.21,0.47,0.4,0.7,0.6c0.32,0.28,0.65,0.56,0.97,0.82
			c0.26,0.21,0.52,0.41,0.79,0.61c0.31,0.24,0.62,0.48,0.94,0.71c0.28,0.2,0.57,0.4,0.85,0.59c0.31,0.21,0.61,0.42,0.93,0.62
			c0.3,0.19,0.61,0.38,0.91,0.56c0.31,0.18,0.61,0.37,0.92,0.54c0.32,0.18,0.64,0.35,0.97,0.53c0.3,0.16,0.61,0.32,0.92,0.48
			c0.34,0.17,0.68,0.33,1.02,0.49c0.3,0.14,0.61,0.28,0.92,0.41c0.36,0.15,0.72,0.3,1.08,0.45c0.3,0.12,0.61,0.24,0.92,0.35
			c0.38,0.14,0.75,0.27,1.13,0.4c0.3,0.1,0.61,0.2,0.91,0.29c0.4,0.12,0.79,0.24,1.2,0.35c0.3,0.08,0.6,0.16,0.9,0.24
			c0.42,0.11,0.84,0.21,1.27,0.3c0.29,0.06,0.59,0.12,0.89,0.18c0.45,0.09,0.89,0.18,1.34,0.25c0.28,0.05,0.57,0.09,0.85,0.13
			c0.48,0.07,0.95,0.14,1.44,0.2c0.26,0.03,0.52,0.05,0.78,0.08c0.52,0.05,1.04,0.11,1.57,0.15c0.21,0.01,0.42,0.02,0.63,0.03
			c0.59,0.04,1.19,0.07,1.8,0.09c0,0,0,0,0,0C127.58,123.49,137.56,118.97,145.61,110.25z"/>
		<path class="st27" d="M6.65,22.71c36.18-0.1,72.35-0.07,108.53-0.06c36.39,0,72.78-0.01,109.18,0.05c1.96,0,2.86-0.22,2.71-2.51
			c-0.23-3.53-0.04-7.08-0.08-10.62c-0.05-4.17-0.89-4.97-5.13-4.97c-27.48,0-54.96,0.01-82.45,0.01c-43.69,0-87.38,0-131.07,0
			c-4.1,0-4.88,0.76-4.91,4.83c-0.02,3.33,0.2,6.67-0.07,9.98C3.14,22.13,3.98,22.72,6.65,22.71z M44.45,9.73
			c2.49,0.04,4.13,1.78,4.07,4.31c-0.06,2.45-1.84,4.17-4.29,4.15c-2.41-0.02-4.13-1.86-4.07-4.36
			C40.21,11.32,41.92,9.69,44.45,9.73z M26.79,13.88c0.28-2.22,1.45-4.02,4.09-4.12c2.48-0.09,4.18,1.58,4.23,4.44
			c-0.04,2.19-1.15,3.76-3.76,3.93C28.89,18.29,26.49,16.22,26.79,13.88z M17.57,9.76c2.36-0.01,3.9,1.55,3.95,3.98
			c0.05,2.57-1.63,4.49-3.98,4.38c-2.54-0.12-3.81-1.77-4.13-4.09C13.11,11.88,15.31,9.76,17.57,9.76z"/>
		<path d="M136.33,145.07c28.67,0,57.33,0,86-0.01c5.13,0,7.9-2.45,7.91-7.1c0.02-43.69,0.02-87.39,0.01-131.08
			c0-3.09-1.89-5.27-4.91-6.23c-1.68-0.53-3.37-0.56-5.08-0.56C149.83,0.1,79.4,0.15,8.97,0C3.12-0.01-0.03,3.05,0,8.8
			c0.19,42.4,0.09,84.81,0.09,127.21c0,6.78,2.26,9.05,9.02,9.05c35.32,0,70.64,0,105.97,0
			C122.16,145.07,129.25,145.07,136.33,145.07z M3.36,19.42c0.27-3.31,0.05-6.65,0.07-9.98c0.03-4.07,0.81-4.83,4.91-4.83
			c43.69,0,87.38,0,131.07,0c27.48,0,54.96-0.01,82.45-0.01c4.23,0,5.07,0.81,5.13,4.97c0.04,3.54-0.15,7.1,0.08,10.62
			c0.15,2.29-0.75,2.51-2.71,2.51c-36.39-0.06-72.78-0.04-109.18-0.05c-36.18,0-72.35-0.04-108.53,0.06
			C3.98,22.72,3.14,22.13,3.36,19.42z M3.42,134.57c0-34.79,0.05-69.59-0.09-104.38c-0.01-3.22,0.9-3.75,3.89-3.74
			c35.98,0.11,71.95,0.07,107.93,0.08c36.19,0,72.38,0.03,108.57-0.06c2.6-0.01,3.36,0.51,3.36,3.27
			c-0.11,34.79-0.07,69.59-0.07,104.38c0,0.64,0.01,1.29-0.01,1.93c-0.1,3.97-1.27,5.15-5.19,5.15c-34.47,0.01-68.95,0.01-103.42,0
			c-36.08,0-72.17,0-108.25-0.01C4.33,141.2,3.42,140.29,3.42,134.57z"/>
		<path d="M111.26,90.23c-4.41-4.54-8.96-8.95-13.45-13.42c-1.47-1.47-3.01-2.78-5.28-2.59c-2.54-0.1-4.28,1.19-5.34,3.35
			c-1.12,2.28-1.13,4.68,0.71,6.55c7.52,7.65,15.13,15.22,22.72,22.8c1.36,1.36,2.84,1.28,4.25,0c1.11-1.01,2.28-1.96,3.31-3.04
			c5.84-6.14,11.68-12.28,17.44-18.49c5.76-6.22,11.51-12.45,17.25-18.68c-1.78-3.71-4.12-7.08-6.87-10.03
			c-10.47,11.18-20.91,22.39-31.27,33.66C113.26,91.94,112.55,91.56,111.26,90.23z"/>
		<path d="M166.59,51.79c2.55-2.79,2.63-6.17,0.37-8.3c-2.41-2.27-5.94-2.16-8.58,0.46c-3.11,3.08-6.18,6.2-9.2,9.37
			c2.76,2.98,5.08,6.32,6.9,9.91C159.59,59.42,163.09,55.6,166.59,51.79z"/>
		<path d="M119.48,128c0.07,0,0.15-0.01,0.22-0.01c0.68-0.05,1.36-0.11,2.05-0.18c0.13-0.01,0.26-0.02,0.38-0.04
			c0.79-0.09,1.58-0.2,2.37-0.32c20.66-3.27,38.96-22.86,36.77-47.65c-0.25-2.84-0.63-5.71-1.97-8.32
			c-0.92-1.79-1.88-1.76-2.95-0.12c-0.62,0.95-0.54,1.84-0.22,2.93c1.99,6.75,1.75,13.57-0.2,20.24
			c-5.45,18.73-22.36,29.92-38.72,29.35c-0.8,0.01-1.59,0-2.37-0.02c0,0,0,0,0,0c0,0,0,0,0,0c-0.61-0.02-1.2-0.05-1.8-0.09
			c-0.21-0.01-0.42-0.02-0.63-0.03c-0.53-0.04-1.05-0.09-1.57-0.15c-0.26-0.03-0.53-0.05-0.78-0.08c-0.49-0.06-0.96-0.13-1.44-0.2
			c-0.28-0.04-0.57-0.08-0.85-0.13c-0.45-0.08-0.9-0.17-1.34-0.25c-0.3-0.06-0.59-0.12-0.89-0.18c-0.43-0.09-0.85-0.2-1.27-0.3
			c-0.3-0.08-0.61-0.15-0.9-0.24c-0.4-0.11-0.8-0.23-1.2-0.35c-0.31-0.09-0.61-0.19-0.91-0.29c-0.38-0.13-0.76-0.26-1.13-0.4
			c-0.31-0.11-0.61-0.23-0.92-0.35c-0.36-0.14-0.72-0.29-1.08-0.45c-0.31-0.13-0.61-0.27-0.92-0.41c-0.34-0.16-0.68-0.32-1.02-0.49
			c-0.31-0.15-0.61-0.31-0.92-0.48c-0.32-0.17-0.65-0.35-0.97-0.53c-0.31-0.18-0.61-0.36-0.92-0.54c-0.31-0.18-0.61-0.37-0.91-0.56
			c-0.31-0.2-0.62-0.41-0.93-0.62c-0.29-0.19-0.57-0.39-0.85-0.59c-0.32-0.23-0.63-0.47-0.94-0.71c-0.26-0.2-0.53-0.4-0.79-0.61
			c-0.33-0.26-0.65-0.54-0.97-0.82c-0.23-0.2-0.47-0.39-0.7-0.6c-0.36-0.32-0.71-0.66-1.07-1c-0.19-0.18-0.38-0.35-0.56-0.53
			c-0.54-0.53-1.06-1.07-1.58-1.63C74.8,100.2,70.82,88.24,73.95,74.83c0.15-0.66,0.33-1.3,0.51-1.95c0.06-0.21,0.13-0.41,0.19-0.62
			c0.13-0.43,0.27-0.87,0.42-1.29c0.08-0.23,0.17-0.47,0.25-0.7c0.14-0.4,0.3-0.79,0.45-1.18c0.09-0.23,0.19-0.46,0.28-0.69
			c0.17-0.4,0.35-0.8,0.53-1.19c0.09-0.2,0.18-0.4,0.28-0.6c0.26-0.53,0.52-1.05,0.8-1.56c0.04-0.07,0.08-0.14,0.11-0.22
			c0.3-0.54,0.61-1.08,0.93-1.6c0.12-0.2,0.25-0.4,0.38-0.6c0.22-0.34,0.44-0.68,0.67-1.02c0.15-0.23,0.31-0.45,0.47-0.67
			c0.21-0.3,0.43-0.6,0.65-0.9c0.17-0.23,0.34-0.45,0.51-0.67c0.23-0.29,0.46-0.57,0.69-0.85c0.18-0.21,0.35-0.43,0.54-0.64
			c0.26-0.31,0.54-0.6,0.81-0.9c0.29-0.32,0.59-0.64,0.89-0.95c0.27-0.28,0.55-0.56,0.83-0.84c0.23-0.23,0.48-0.45,0.72-0.67
			c0.22-0.2,0.44-0.41,0.66-0.61c0.26-0.23,0.52-0.46,0.79-0.68c0.21-0.18,0.42-0.35,0.64-0.53c0.28-0.23,0.57-0.46,0.85-0.68
			c0.2-0.15,0.39-0.3,0.59-0.44c0.31-0.23,0.62-0.46,0.94-0.69c0.13-0.09,0.26-0.17,0.38-0.26c1.22-0.84,2.49-1.61,3.79-2.32
			c0.13-0.07,0.26-0.15,0.4-0.22c0.4-0.21,0.8-0.42,1.21-0.62c0.14-0.07,0.28-0.14,0.42-0.21c0.42-0.2,0.84-0.39,1.26-0.58
			c0.11-0.05,0.22-0.09,0.33-0.14c2.03-0.87,4.13-1.59,6.27-2.15c0.03-0.01,0.05-0.01,0.08-0.02c0.52-0.13,1.03-0.25,1.56-0.37
			c0.07-0.02,0.15-0.03,0.22-0.05c0.52-0.11,1.04-0.21,1.57-0.3c0.04-0.01,0.09-0.01,0.13-0.02c2.26-0.39,4.57-0.59,6.89-0.61
			c0,0,0,0,0.01,0c0,0,0,0,0,0c3.73-0.02,7.51,0.45,11.24,1.47c5.09,1.4,9.78,3.53,14.03,6.68c0.96,0.71,2.24,1.86,3.37,0.45
			c1.02-1.28,0.44-2.66-0.73-3.66c-0.98-0.82-2.02-1.59-3.11-2.26c-3.23-1.99-6.53-3.53-9.89-4.67c-2.95-1-5.94-1.68-8.99-2.05
			c-0.11-0.01-0.23-0.03-0.34-0.04c-0.5-0.06-1-0.1-1.5-0.14c-0.19-0.02-0.38-0.03-0.58-0.04c-0.48-0.03-0.95-0.06-1.43-0.08
			c-0.2-0.01-0.4-0.01-0.6-0.01c-0.49-0.01-0.98-0.02-1.47-0.02c-3.76,0.03-7.58,0.5-11.45,1.41c-0.78,0.18-1.56,0.39-2.32,0.61
			c-0.37,0.12-0.75,0.23-1.12,0.35c0,0-0.01,0-0.01,0c-4.64,1.47-8.87,3.61-12.62,6.28c-0.03,0.02-0.06,0.04-0.09,0.07
			c-1.11,0.79-2.18,1.64-3.2,2.52c-0.01,0.01-0.02,0.02-0.04,0.03c-0.64,0.55-1.25,1.12-1.85,1.7c-0.08,0.08-0.15,0.15-0.23,0.23
			c-0.91,0.9-1.78,1.84-2.61,2.81c-0.09,0.11-0.18,0.21-0.27,0.32c-0.44,0.53-0.87,1.07-1.29,1.62c-0.11,0.14-0.22,0.29-0.32,0.43
			c-0.45,0.61-0.88,1.22-1.29,1.85c-0.05,0.07-0.09,0.14-0.14,0.21c-0.21,0.32-0.41,0.64-0.61,0.96c-0.12,0.19-0.23,0.38-0.34,0.57
			c-0.3,0.51-0.59,1.02-0.88,1.54c-0.11,0.21-0.23,0.42-0.34,0.63c-0.17,0.32-0.33,0.64-0.49,0.96c-0.2,0.42-0.4,0.83-0.59,1.26
			c-0.14,0.32-0.28,0.64-0.42,0.97c-0.1,0.24-0.2,0.49-0.3,0.73c-0.2,0.5-0.39,1-0.57,1.5c-0.09,0.26-0.19,0.52-0.27,0.78
			c-0.11,0.33-0.22,0.65-0.32,0.98c-2.62,8.41-2.71,17.73,0.34,26.91c6.33,19.06,23.75,30.74,43.65,31.18c0,0,0,0,0,0
			c0.78,0.02,1.57,0.02,2.36,0c0.01,0,0.02,0,0.04,0C117.99,128.08,118.73,128.04,119.48,128z"/>
		<path d="M71.19,96.91c-3.05-9.18-2.95-18.5-0.34-26.91c-0.14,0.45-0.28,0.91-0.4,1.37c-0.02,0.03-0.04,0.06-0.05,0.1
			c-1.35,2.61-1.72,5.48-1.97,8.32c-2.19,24.79,16.11,44.38,36.77,47.65c3.26,0.52,6.48,0.72,9.65,0.65
			C94.94,127.65,77.52,115.97,71.19,96.91z"/>
		<path d="M83.42,56.97c0.29-0.32,0.59-0.64,0.89-0.95C84.01,56.34,83.72,56.65,83.42,56.97z"/>
		<path d="M116.32,38.69c0.2,0,0.4,0.01,0.6,0.01C116.72,38.7,116.52,38.69,116.32,38.69z"/>
		<path d="M117.25,128.09c-0.01,0-0.02,0-0.04,0C117.22,128.09,117.23,128.09,117.25,128.09z"/>
		<path d="M118.35,38.78c0.19,0.01,0.39,0.03,0.58,0.04C118.74,38.81,118.55,38.79,118.35,38.78z"/>
		<path d="M120.43,38.96c0.11,0.01,0.23,0.03,0.34,0.04C120.65,38.99,120.54,38.98,120.43,38.96z"/>
		<path d="M114.85,38.67C114.85,38.67,114.85,38.67,114.85,38.67c-4.7-0.04-9.29,0.63-13.78,2.02c0.76-0.22,1.54-0.42,2.32-0.61
			C107.27,39.18,111.09,38.71,114.85,38.67z"/>
		<path d="M73.82,62.81c0.11-0.21,0.22-0.42,0.34-0.63C74.05,62.39,73.93,62.6,73.82,62.81z"/>
		<path d="M72.74,65.03c0.19-0.42,0.39-0.84,0.59-1.26C73.13,64.19,72.93,64.61,72.74,65.03z"/>
		<path d="M87.22,47.4c0.03-0.02,0.06-0.04,0.09-0.07C87.28,47.36,87.25,47.38,87.22,47.4z"/>
		<path d="M72.02,66.73c0.1-0.24,0.2-0.49,0.3-0.73C72.22,66.24,72.12,66.49,72.02,66.73z"/>
		<path d="M75.04,60.65c0.11-0.19,0.23-0.38,0.34-0.57C75.26,60.27,75.15,60.46,75.04,60.65z"/>
		<path d="M71.18,69.02c0.09-0.26,0.18-0.52,0.27-0.78C71.36,68.5,71.27,68.76,71.18,69.02z"/>
		<path d="M83.99,49.95c0.01-0.01,0.02-0.02,0.04-0.03C84.01,49.93,84,49.94,83.99,49.95z"/>
		<path d="M75.98,59.12c0.05-0.07,0.09-0.14,0.14-0.21C76.08,58.98,76.03,59.05,75.98,59.12z"/>
		<path d="M81.9,51.88c0.08-0.08,0.15-0.15,0.23-0.23C82.06,51.73,81.98,51.81,81.9,51.88z"/>
		<path d="M77.42,57.06c0.11-0.14,0.22-0.29,0.32-0.43C77.63,56.78,77.52,56.92,77.42,57.06z"/>
		<path d="M79.03,55.01c0.09-0.11,0.18-0.22,0.27-0.32C79.21,54.8,79.12,54.9,79.03,55.01z"/>
		<path d="M99.94,41.05C99.94,41.05,99.94,41.05,99.94,41.05c0,0,0.01,0,0.01,0C99.95,41.05,99.94,41.05,99.94,41.05z"/>
		<path d="M86.22,112.41c-0.19-0.18-0.38-0.35-0.56-0.53C85.85,112.06,86.04,112.23,86.22,112.41z"/>
		<path d="M98.13,46.55c2.03-0.87,4.13-1.6,6.27-2.15C102.26,44.96,100.16,45.68,98.13,46.55z"/>
		<path d="M74.46,72.88c0.06-0.21,0.13-0.41,0.19-0.62C74.59,72.47,74.52,72.68,74.46,72.88z"/>
		<path d="M75.07,70.98c0.08-0.23,0.17-0.47,0.25-0.7C75.23,70.51,75.15,70.74,75.07,70.98z"/>
		<path d="M94.91,48.1c0.4-0.21,0.8-0.42,1.21-0.62C95.71,47.68,95.31,47.89,94.91,48.1z"/>
		<path d="M89.4,51.58c0.31-0.23,0.62-0.46,0.94-0.69C90.02,51.12,89.71,51.35,89.4,51.58z"/>
		<path d="M91.55,116.73c-0.29-0.19-0.57-0.39-0.85-0.59C90.98,116.35,91.27,116.54,91.55,116.73z"/>
		<path d="M93.39,117.92c-0.31-0.18-0.61-0.37-0.91-0.56C92.78,117.55,93.09,117.73,93.39,117.92z"/>
		<path d="M89.76,115.43c-0.26-0.2-0.53-0.4-0.79-0.61C89.23,115.03,89.5,115.23,89.76,115.43z"/>
		<path d="M88,114.01c-0.23-0.2-0.47-0.39-0.7-0.6C87.52,113.61,87.76,113.81,88,114.01z"/>
		<path d="M96.54,47.28c0.42-0.2,0.84-0.39,1.26-0.58C97.38,46.88,96.96,47.08,96.54,47.28z"/>
		<path d="M90.73,50.64c1.22-0.84,2.49-1.61,3.79-2.32C93.21,49.02,91.95,49.8,90.73,50.64z"/>
		<path d="M80.88,60.04c0.17-0.23,0.34-0.45,0.51-0.67C81.22,59.59,81.05,59.82,80.88,60.04z"/>
		<path d="M79.76,61.61c0.15-0.22,0.31-0.45,0.47-0.67C80.06,61.16,79.91,61.38,79.76,61.61z"/>
		<path d="M82.08,58.52c0.18-0.21,0.35-0.43,0.54-0.64C82.43,58.09,82.26,58.3,82.08,58.52z"/>
		<path d="M86.53,53.91c0.26-0.23,0.52-0.46,0.79-0.68C87.05,53.46,86.79,53.68,86.53,53.91z"/>
		<path d="M75.77,69.1c0.09-0.23,0.19-0.46,0.28-0.69C75.95,68.63,75.86,68.86,75.77,69.1z"/>
		<path d="M85.15,55.19c0.24-0.23,0.48-0.45,0.72-0.67C85.62,54.74,85.38,54.96,85.15,55.19z"/>
		<path d="M87.95,52.71c0.28-0.23,0.57-0.46,0.85-0.68C88.52,52.25,88.24,52.48,87.95,52.71z"/>
		<path d="M76.58,67.21c0.09-0.2,0.18-0.4,0.28-0.6C76.77,66.81,76.68,67.01,76.58,67.21z"/>
		<path d="M78.71,63.23c0.12-0.2,0.25-0.4,0.38-0.6C78.96,62.83,78.83,63.02,78.71,63.23z"/>
		<path d="M77.66,65.05c0.04-0.07,0.08-0.14,0.11-0.22C77.74,64.9,77.7,64.97,77.66,65.05z"/>
		<path d="M106.26,43.97c0.52-0.11,1.04-0.21,1.57-0.3C107.3,43.75,106.78,43.86,106.26,43.97z"/>
		<path d="M122.12,127.76c-0.13,0.01-0.26,0.02-0.38,0.04C121.87,127.79,122,127.78,122.12,127.76z"/>
		<path d="M103.37,122.2c-0.4-0.11-0.8-0.23-1.2-0.35C102.57,121.97,102.97,122.09,103.37,122.2z"/>
		<path d="M105.54,122.74c-0.43-0.09-0.85-0.2-1.27-0.3C104.7,122.54,105.12,122.65,105.54,122.74z"/>
		<path d="M114.85,123.86c-0.61-0.02-1.2-0.05-1.8-0.09C113.64,123.81,114.24,123.84,114.85,123.86z"/>
		<path d="M107.95,43.64c2.26-0.39,4.57-0.59,6.89-0.61C112.52,43.05,110.22,43.25,107.95,43.64z"/>
		<path d="M110.07,123.51c-0.49-0.06-0.96-0.13-1.44-0.2C109.1,123.38,109.58,123.45,110.07,123.51z"/>
		<path d="M107.77,123.18c-0.45-0.08-0.9-0.17-1.34-0.25C106.88,123.01,107.32,123.1,107.77,123.18z"/>
		<path d="M101.26,121.56c-0.38-0.13-0.76-0.26-1.13-0.4C100.5,121.3,100.88,121.43,101.26,121.56z"/>
		<path d="M119.69,127.98c-0.07,0.01-0.15,0.01-0.22,0.01C119.55,127.99,119.62,127.99,119.69,127.98z"/>
		<path d="M97.22,119.95c-0.34-0.16-0.68-0.32-1.02-0.49C96.53,119.63,96.88,119.79,97.22,119.95z"/>
		<path d="M112.42,123.73c-0.53-0.04-1.05-0.09-1.57-0.15C111.37,123.64,111.89,123.7,112.42,123.73z"/>
		<path d="M95.28,118.99c-0.32-0.17-0.65-0.35-0.97-0.53C94.63,118.64,94.95,118.82,95.28,118.99z"/>
		<path d="M142.76,47.98c1.17,0.99,1.75,2.38,0.73,3.66c-1.13,1.42-2.42,0.26-3.37-0.45c-4.25-3.16-8.93-5.28-14.03-6.68
			c-3.73-1.03-7.51-1.49-11.24-1.47c11.85,0.07,23.24,5.16,31.16,13.65c0.38-0.4,0.75-0.81,1.13-1.21c0.67-0.72,1.36-1.44,2.04-2.15
			c-5.1-5.52-11.7-9.82-19.42-12.26c0,0,0,0,0,0c3.37,1.14,6.67,2.68,9.89,4.67C140.74,46.4,141.78,47.16,142.76,47.98z"/>
		<path d="M155.75,74.83c3.13,13.41-0.85,25.37-10.13,35.42c-8.06,8.72-18.04,13.25-30.77,13.61c0.78,0.02,1.57,0.03,2.37,0.02
			c16.36,0.57,33.27-10.63,38.72-29.35c1.94-6.67,2.18-13.49,0.2-20.24c-0.32-1.09-0.4-1.98,0.22-2.93
			c1.07-1.65,2.03-1.67,2.95,0.12c-0.02-0.04-0.04-0.07-0.05-0.1c-0.78-2.82-1.84-5.55-3.16-8.14c-1.07,1.16-2.13,2.33-3.2,3.49
			C154.11,69.27,155.08,71.98,155.75,74.83z"/>
		<path d="M104.48,44.38c0.52-0.13,1.03-0.25,1.56-0.37C105.52,44.13,105,44.25,104.48,44.38z"/>
		<path d="M99.21,120.81c-0.36-0.14-0.72-0.29-1.08-0.45C98.49,120.52,98.85,120.66,99.21,120.81z"/>
		<path d="M146.01,56.68c2.76,2.96,5.09,6.32,6.87,10.03c1.07-1.16,2.13-2.32,3.2-3.49c-1.82-3.59-4.15-6.93-6.9-9.91
			c-0.68,0.71-1.36,1.43-2.04,2.15C146.76,55.87,146.39,56.28,146.01,56.68z"/>
		<path d="M44.23,18.18c2.45,0.02,4.24-1.7,4.29-4.15c0.06-2.53-1.59-4.27-4.07-4.31c-2.53-0.04-4.24,1.59-4.29,4.09
			C40.1,16.32,41.82,18.15,44.23,18.18z"/>
		<path d="M31.35,18.13c2.61-0.17,3.72-1.74,3.76-3.93c-0.05-2.86-1.75-4.53-4.23-4.44c-2.64,0.1-3.81,1.9-4.09,4.12
			C26.49,16.22,28.89,18.29,31.35,18.13z"/>
		<path d="M17.53,18.12c2.36,0.11,4.03-1.81,3.98-4.38c-0.05-2.43-1.59-3.99-3.95-3.98c-2.25,0.01-4.45,2.12-4.16,4.28
			C13.72,16.34,14.99,18,17.53,18.12z"/>
	</g>
	<g>
		<path class="st27" d="M64.79,252.83c-0.55-0.05-1.13,0.09-1.69,0.14c0-0.04,0-0.07,0-0.11c-0.78,0-1.56,0.05-2.34-0.01
			c-1.04-0.08-1.7,0-1.69,1.38c0.02,1.28,0.5,1.55,1.63,1.49c1.35-0.08,2.71-0.13,4.04,0.02c1.98,0.22,1.88-1.42,1.9-2.37
			C66.66,252.28,65.45,252.89,64.79,252.83z"/>
		<path class="st27" d="M73.51,234.98c-0.26,3.65-0.99,6.88-1.62,10.12c-0.29,1.52-1.33,3.16-0.99,4.47
			c0.38,1.47,2.51,1.79,3.85,2.59c2.6,1.56,4.77,3.69,7.37,5.46C82.36,249.83,79.55,240.43,73.51,234.98z"/>
		<path class="st27" d="M40.56,235.12c-5.44,3.13-9.43,15.91-8.47,22.45c3.37-2.99,6.97-5.47,10.98-7.3
			c0.64-0.29,0.72-0.66,0.55-1.14C42.06,244.6,41.47,239.85,40.56,235.12z"/>
		<path class="st27" d="M56.97,210.18c-3.1-0.24-5.94,3.09-5.99,6.21c-0.06,3.43,2.6,6.21,5.98,6.24c3.36,0.03,6.02-2.67,6.05-6.16
			C63.03,212.73,60.64,210.46,56.97,210.18z"/>
		<path class="st28" d="M71.09,217.86c-0.27-4.46-1.01-8.9-2.1-13.26c-0.25-1.01-0.51-1.68-1.92-1.6
			c-3.35,0.18-6.72,0.06-10.08,0.06c0-0.01,0-0.01,0-0.02c-3.36,0-6.73,0.07-10.08-0.03c-1.27-0.04-1.68,0.46-1.97,1.59
			c-1.29,5.12-1.94,10.32-2.11,15.59c-0.28,8.74,0.95,17.31,3.03,25.78c0.99,4.04,0.97,4.04,5.22,4.07c1,0.01,2.01-0.06,3,0.08
			c1.39,0.19,1.68-0.37,1.66-1.66c-0.07-4.65-0.03-9.3-0.02-13.95c0-0.68-0.18-1.38,0.66-1.87c1.58-0.91,2.64-0.36,2.7,1.77
			c0.11,4.29,0.06,8.58,0.07,12.87c0.01,2.78,0,2.77,2.9,2.59c1.14-0.07,2.29-0.16,3.43-0.08c1.36,0.09,1.95-0.37,2.34-1.76
			C70.59,238.16,71.7,228.09,71.09,217.86z M65.61,216.36c-0.05,5.14-3.7,8.91-8.62,8.92c-4.93,0.01-8.63-3.84-8.59-8.91
			c0.05-5.03,3.99-9.18,8.88-9.01C62.78,207.54,66.12,212.54,65.61,216.36z"/>
		<path class="st27" d="M55.71,254.14c0.02-0.75,0.06-1.39-1.06-1.35c-2.19,0.08-4.38,0.02-6.95,0.02c0.76,1.2,0.4,2.82,2.28,2.87
			c1.56,0.04,3.13-0.01,4.69,0.05C55.97,255.79,55.69,254.89,55.71,254.14z"/>
		<path class="st27" d="M66.11,200.05c1.13,0.01,1.38-0.34,1.04-1.37c-1.97-5.82-4.79-11.19-8.61-16.02c-1-1.26-1.76-1.43-2.98-0.05
			c-4.49,5.02-7.08,11-9.33,17.42C52.97,200.03,59.54,200.01,66.11,200.05z"/>
		<path d="M74.16,225.18c0.02-0.21,0-0.43,0-0.64c0.21-8.75-1.14-17.26-3.84-25.58c-2.06-6.34-5.12-12.14-9.28-17.33
			c-2.37-2.96-4.74-4.34-8.1-0.16c-7.77,9.65-11.49,20.81-12.71,32.97c-0.52,5.21-0.58,10.41-0.03,15.61
			c0.06,0.61,0.16,1.19-0.54,1.69c-4.84,3.48-7.36,8.51-9.07,14c-1.47,4.74-1.88,9.62-1.2,14.56c0.24,1.77,1.18,1.93,2.54,1.13
			c0.42-0.25,0.78-0.61,1.18-0.9c3.27-2.39,6.26-5.17,9.94-6.97c1.03-0.51,1.5-0.37,1.88,0.7c1.46,4.1,1.47,4.09,5.67,4.09
			c0.5,0,1,0.01,1.5,0c1.63-0.05,3.21-0.14,4.54,1.2c0.88,0.89,1.94,0.75,2.85-0.14c0.93-0.92,2.07-1.14,3.34-1.08
			c1.28,0.06,2.58-0.04,3.86,0.01c1.26,0.06,2.05-0.4,2.34-1.67c0.15-0.69,0.35-1.36,0.51-2.05c0.31-1.34,0.79-1.74,2.16-0.86
			c3.31,2.12,6.31,4.64,9.42,7.01c2.35,1.79,3.5,1.37,3.73-1.51c0.7-8.9-0.92-17.39-7.14-23.98
			C74.71,232.12,73.7,229.14,74.16,225.18z M55.55,182.61c1.23-1.37,1.98-1.21,2.98,0.05c3.82,4.83,6.64,10.19,8.61,16.02
			c0.35,1.03,0.09,1.38-1.04,1.37c-6.57-0.04-13.14-0.02-19.89-0.02C48.47,193.61,51.06,187.63,55.55,182.61z M43.07,250.27
			c-4.01,1.83-7.61,4.32-10.98,7.3c-0.96-6.54,3.03-19.33,8.47-22.45c0.92,4.72,1.5,9.48,3.07,14.01
			C43.79,249.62,43.72,249.98,43.07,250.27z M54.66,255.74c-1.56-0.06-3.13-0.01-4.69-0.05c-1.88-0.05-1.51-1.67-2.28-2.87
			c2.57,0,4.77,0.05,6.95-0.02c1.12-0.04,1.09,0.6,1.06,1.35C55.69,254.89,55.97,255.79,54.66,255.74z M64.74,255.74
			c-1.33-0.15-2.7-0.1-4.04-0.02c-1.13,0.06-1.61-0.21-1.63-1.49c-0.02-1.39,0.64-1.47,1.69-1.38c0.78,0.06,1.56,0.01,2.34,0.01
			c0,0.04,0,0.07,0,0.11c0.56-0.05,1.14-0.19,1.69-0.14c0.67,0.06,1.88-0.55,1.86,0.54C66.62,254.33,66.72,255.96,64.74,255.74z
			 M67.8,248.05c-0.39,1.39-0.98,1.86-2.34,1.76c-1.14-0.08-2.29,0.01-3.43,0.08c-2.89,0.18-2.89,0.19-2.9-2.59
			c-0.01-4.29,0.05-8.58-0.07-12.87c-0.06-2.13-1.12-2.68-2.7-1.77c-0.84,0.48-0.66,1.19-0.66,1.87c-0.02,4.65-0.05,9.3,0.02,13.95
			c0.02,1.29-0.27,1.85-1.66,1.66c-0.98-0.14-2-0.07-3-0.08c-4.25-0.03-4.23-0.04-5.22-4.07c-2.08-8.47-3.31-17.04-3.03-25.78
			c0.17-5.27,0.82-10.47,2.11-15.59c0.29-1.13,0.69-1.63,1.97-1.59c3.36,0.1,6.72,0.03,10.08,0.03c0,0.01,0,0.01,0,0.02
			c3.36,0,6.73,0.12,10.08-0.06c1.42-0.08,1.67,0.59,1.92,1.6c1.09,4.36,1.84,8.79,2.1,13.26C71.7,228.09,70.59,238.16,67.8,248.05z
			 M82.13,257.63c-2.6-1.77-4.77-3.9-7.37-5.46c-1.35-0.81-3.48-1.12-3.85-2.59c-0.34-1.32,0.69-2.95,0.99-4.47
			c0.63-3.25,1.36-6.47,1.62-10.12C79.55,240.43,82.36,249.83,82.13,257.63z"/>
		<path d="M61.42,267.08c-0.81-0.03-0.84,1.08-1.06,1.82c-1.09,3.51-1.25,7.25-2.69,11c-0.73-0.81-0.92-1.57-1.09-2.31
			c-0.76-3.31-1.41-6.65-2.31-9.92c-0.17-0.63,0.12-2.05-1.06-1.95c-1.15,0.1-0.91,1.43-1.2,2.26c-0.11,0.31-0.01,0.7,0.01,1.05
			c0.2,5.23,1.32,10.24,3.66,14.95c0.39,0.79,0.54,1.87,1.76,1.84c1.09-0.03,1.67-0.85,2.03-1.69c2.05-4.8,3.65-9.7,3.14-15.03
			C62.53,268.19,62.35,267.12,61.42,267.08z"/>
		<path d="M65.05,261.52c-0.67,0.19-0.77,1.23-0.74,2.04c0.22,4.6,0.64,9.2,0.27,14.44c0.8-0.76,1.11-1.03,1.39-1.33
			c0.19-0.21,0.37-0.44,0.47-0.69c1.77-4.25,1.6-8.56,0.26-12.87C66.47,262.37,66.06,261.23,65.05,261.52z"/>
		<path d="M50,261.56c-0.52-0.01-0.98,0.31-1.24,0.96c-1.86,4.63-1.55,9.19,0.14,13.88c1.41-0.93,1.58-2.23,1.61-3.48
			c0.09-3.34,0.08-6.69,0.07-10.04C50.58,262.38,50.89,261.58,50,261.56z"/>
		<path d="M57.28,207.36c-4.89-0.16-8.84,3.99-8.88,9.01c-0.05,5.07,3.66,8.92,8.59,8.91c4.92-0.01,8.57-3.79,8.62-8.92
			C66.12,212.54,62.78,207.54,57.28,207.36z M56.95,222.63c-3.38-0.03-6.04-2.82-5.98-6.24c0.05-3.13,2.9-6.45,5.99-6.21
			c3.67,0.28,6.06,2.55,6.03,6.3C62.98,219.96,60.32,222.66,56.95,222.63z"/>
	</g>
	<g>
		<path class="st27" d="M223.68,218.42c-5.92-1.3-11.36-3.79-16.79-6.35c-1.13-0.53-1.92-0.29-2.96,0.22
			c-4.68,2.28-9.43,4.41-14.53,5.54c-0.3,0.07-0.6,0.14-0.9,0.2c-0.55,0.11-0.9,0.29-1.12,0.54c-0.39,0.43-0.4,1.04-0.41,1.77
			c-0.03,1.76,0.02,3.51,0.17,5.23c0.07,0.82,0.16,1.63,0.27,2.44c0.33,2.42,0.85,4.8,1.57,7.14c0.49,1.61,1.08,3.19,1.77,4.76
			c0.03,0.06,0.05,0.11,0.08,0.17c2.99,6.73,7.54,12.06,14.26,15.38c0.58,0.29,1.01,0.74,1.79,0.26c3.32-2.06,6.61-4.12,9.15-7.19
			c6.25-7.54,8.87-16.31,8.79-26.27C224.21,221.24,226.31,219,223.68,218.42z M219.3,226.87c-3.59,5.94-8.45,10.82-13.21,15.78
			c-0.92,0.96-2.25,0.76-3.11-0.2c-2.61-2.88-5.4-5.58-7.43-8.98c-0.98-1.64-0.04-2.56,0.81-3.42c0.94-0.94,2.13-1.06,3.28,0
			c1.94,1.81,3.96,3.54,5.95,5.3c2.76-3.47,5.9-7.39,9.01-11.33c1.07-1.35,2.22-1.88,3.85-0.88
			C220.07,224.13,220.23,225.33,219.3,226.87z"/>
		<path class="st27" d="M191.91,250.54c-5.82,0.02-17.34,0.01-21.65,0.01c-4.9,0-9.8,0.01-14.69-0.01c-0.84,0-2,0.38-2.03-1.1
			c-0.02-1.44,1.02-1.42,2.08-1.43c8.48-0.05,24.57-0.11,34.27-0.18c-1.61-2.37-2.94-4.96-3.99-7.75c-14.79,0-34.9,0-47.73,0
			c-2.66,0-5.33,0.06-7.99,0.07c-2.19,0.01-3.46,1.03-3.5,3.25c-0.08,3.83-0.16,7.66-0.05,11.49c0.06,2.09,1.56,2.64,3.48,2.63
			c8.66-0.04,17.32-0.02,25.98-0.02c11.31,0,31.37,0.02,43.8-0.01C196.77,255.51,194.12,253.19,191.91,250.54z M135.1,252.61
			c-2.19-0.11-3.46-1.02-3.57-3.14c-0.09-1.62,1.59-3.39,3.17-3.42c2-0.04,3.34,1.34,3.3,3.45
			C137.96,251.5,136.84,252.45,135.1,252.61z M144.79,252.56c-1.89,0.08-3.23-1.25-3.28-3.26c-0.05-1.89,1.3-3.23,3.27-3.25
			c1.84-0.02,3.16,1.24,3.2,3.04C148.01,250.83,146.49,252.48,144.79,252.56z"/>
		<path class="st28" d="M130.24,235.02c14.87,0.01,38.7,0.01,54.1,0.01c-0.11-0.45-0.23-0.9-0.33-1.37
			c-0.4-1.84-0.64-3.69-0.79-5.55c-8.28,0.02-21.76,0.02-28.33,0.03c-1.01,0-1.89-0.14-1.87-1.41c0.02-1.42,1.12-1.18,2-1.18
			c3.66-0.01,7.33,0,10.99,0c3,0,11.75,0,17.05,0c-0.1-2.33-0.09-4.66-0.07-7c-15.97-0.02-38.05-0.01-52.68-0.01
			c-3.39,0-3.75,0.4-3.73,3.93c0.02,2.91-0.03,5.83-0.02,8.74C126.55,234.5,127.04,235.02,130.24,235.02z M144.79,223.06
			c1.89-0.02,3.28,1.32,3.21,3.24c-0.08,2.03-1.21,3.16-3.24,3.29c-1.85,0.11-3.14-1.26-3.2-3.29
			C141.51,224.44,142.86,223.09,144.79,223.06z M134.87,223.09c2.06,0.18,3.07,1.4,3.13,3.82c-0.22,1.53-1.22,2.67-3.18,2.74
			c-1.81,0.07-3.22-1.39-3.3-3.33C131.45,224.56,133.06,222.94,134.87,223.09z"/>
		<path d="M275.9,253.78c-3.97-3.78-7.94-7.57-11.88-11.39c-0.8-0.78-1.44-0.95-2.31-0.12c-4.32,4.15-8.67,8.26-12.98,12.41
			c-0.35,0.33-0.99,0.62-0.44,1.42c1.07,1.55,2.48,1.78,3.93,0.48c2.67-2.41,5.33-4.83,8.26-7.49c0,7.85,0.04,15.33-0.03,22.8
			c-0.02,1.59,0.38,2.14,2.07,2.16c2.01,0.03,2.58-0.67,2.55-2.62c-0.09-7.06-0.04-14.12-0.04-22.01c3.12,2.77,5.63,5.04,8.19,7.25
			c0.98,0.85,2.14,1.52,3.28,0.29C277.66,255.72,276.88,254.72,275.9,253.78z"/>
		<path d="M227.13,215.58c-6.78-1.55-13.2-4.08-19.48-7.02c-1.07-0.5-2.1-0.67-3.31-0.13c-6.05,2.68-12.22,5.06-18.67,6.63
			c-16.73,0.03-41.12,0-57.2,0.03c-2.83,0.01-4.81,1.62-4.91,4.27c-0.19,4.82-0.84,9.82,0.16,14.42c0.65,2.97,0.28,5.28-0.09,8.07
			c-0.63,4.75-0.28,9.63-0.21,14.45c0.04,2.59,1.28,4.41,4.02,4.88c0.68,0.11,1.48,0.25,1.45,1.08c-0.09,2.63,1.7,2.3,3.37,2.3
			c20.07-0.01,47.83,0,69.8,0c0,0,0,0,0,0c1.32,0,2.55,0,3.78,0c0.38,0,0.74,0,1.08,0c1.38,0,2.73,0,4.04,0c0.7,0,1.4,0,2.86,0
			c-0.77-0.57-1.5-1.1-2.2-1.6c0.23-0.93,0.1-2.4-0.14-4.73c-0.01-0.1-0.02-0.18-0.04-0.26c5.23-3.26,9.55-7.42,12.62-13.05
			c3.85-7.07,4.67-14.69,4.89-22.49c0-1.42,0.01-2.83,0-4.25C228.96,216.89,228.5,215.9,227.13,215.58z M126.57,222.48
			c-0.02-3.52,0.34-3.93,3.73-3.93c14.63,0,36.71-0.01,52.68,0.01c-0.02,2.34-0.03,4.67,0.07,7c-5.3,0-14.05,0-17.05,0
			c-3.66,0-7.33-0.01-10.99,0c-0.88,0-1.98-0.24-2,1.18c-0.02,1.27,0.86,1.41,1.87,1.41c6.57-0.02,20.05-0.02,28.33-0.03
			c0.15,1.86,0.4,3.71,0.79,5.55c0.1,0.46,0.21,0.91,0.33,1.37c-15.4,0-39.22,0-54.1-0.01c-3.2,0-3.68-0.53-3.69-3.8
			C126.55,228.31,126.59,225.39,126.57,222.48z M156.07,257.51c-8.66,0-17.32-0.02-25.98,0.02c-1.92,0.01-3.42-0.54-3.48-2.63
			c-0.11-3.83-0.03-7.66,0.05-11.49c0.04-2.22,1.31-3.24,3.5-3.25c2.66-0.01,5.33-0.07,7.99-0.07c12.83-0.01,32.93,0,47.73,0
			c1.05,2.79,2.38,5.38,3.99,7.75c-9.69,0.07-25.79,0.13-34.27,0.18c-1.05,0.01-2.1-0.02-2.08,1.43c0.02,1.47,1.19,1.09,2.03,1.1
			c4.9,0.02,9.8,0.01,14.69,0.01c4.31,0,15.83,0.01,21.65-0.01c2.22,2.65,4.87,4.97,7.96,6.96
			C187.45,257.53,167.38,257.51,156.07,257.51z M224.82,222.27c0.07,9.96-2.54,18.73-8.79,26.27c-2.54,3.06-5.83,5.12-9.15,7.19
			c-0.78,0.48-1.21,0.02-1.79-0.26c-6.72-3.32-11.27-8.65-14.26-15.38c-0.03-0.06-0.05-0.11-0.08-0.17
			c-0.69-1.57-1.27-3.15-1.77-4.76c-0.72-2.34-1.24-4.72-1.57-7.14c-0.11-0.81-0.2-1.62-0.27-2.44c-0.15-1.73-0.2-3.47-0.17-5.23
			c0.01-0.74,0.03-1.35,0.41-1.77c0.22-0.25,0.57-0.43,1.12-0.54c0.3-0.06,0.6-0.13,0.9-0.2c5.1-1.13,9.85-3.26,14.53-5.54
			c1.04-0.51,1.83-0.75,2.96-0.22c5.42,2.56,10.87,5.06,16.79,6.35C226.31,219,224.21,221.24,224.82,222.27z"/>
		<path d="M134.82,229.66c1.96-0.08,2.96-1.21,3.18-2.74c-0.06-2.42-1.07-3.65-3.13-3.82c-1.81-0.15-3.42,1.46-3.35,3.24
			C131.6,228.27,133.01,229.73,134.82,229.66z"/>
		<path d="M144.76,229.59c2.03-0.12,3.16-1.26,3.24-3.29c0.08-1.91-1.32-3.26-3.21-3.24c-1.93,0.02-3.28,1.38-3.23,3.23
			C141.61,228.32,142.91,229.7,144.76,229.59z"/>
		<path d="M134.7,246.05c-1.59,0.03-3.26,1.8-3.17,3.42c0.11,2.11,1.38,3.02,3.57,3.14c1.74-0.16,2.86-1.11,2.9-3.11
			C138.04,247.4,136.7,246.01,134.7,246.05z"/>
		<path d="M144.78,246.05c-1.97,0.02-3.32,1.36-3.27,3.25c0.05,2,1.4,3.33,3.28,3.26c1.7-0.07,3.22-1.73,3.19-3.47
			C147.94,247.29,146.62,246.03,144.78,246.05z"/>
		<path d="M218.45,223.14c-1.63-1-2.78-0.47-3.85,0.88c-3.11,3.94-6.24,7.85-9.01,11.33c-1.99-1.76-4-3.49-5.95-5.3
			c-1.15-1.07-2.34-0.94-3.28,0c-0.86,0.86-1.79,1.77-0.81,3.42c2.02,3.4,4.82,6.1,7.43,8.98c0.87,0.96,2.19,1.16,3.11,0.2
			c4.76-4.95,9.62-9.84,13.21-15.78C220.23,225.33,220.07,224.13,218.45,223.14z"/>
	</g>
	<g>
		<path d="M243.83,477.51c-8.47-1.36-13.02-6.68-12.92-15.2c0.05-4.61,1.3-8.9,2.99-13.14c4.4-11.12,10.91-21,17.96-30.5
			c16.39-22.09,35.49-41.68,55.57-60.41c27.08-25.24,55.9-48.3,86.13-69.63c26.11-18.4,53.08-35.44,81.68-49.82
			c16.07-8.09,32.4-15.41,49.88-20.03c8.3-2.17,16.66-3.8,25.34-2.71c9.28,1.19,14.11,6.73,13.79,16.06
			c-0.16,5.05-1.79,9.77-3.74,14.38c-5.27,12.21-12.81,23.01-20.9,33.43c-16.01,20.57-34.14,39.13-53.3,56.77
			c-39.67,36.52-82.44,68.98-128.52,97.04c-21,12.81-42.6,24.53-65.51,33.65c-13.4,5.32-27.03,9.99-41.84,10.58
			C248.33,477.78,246.05,477.84,243.83,477.51z"/>
		<g>
			<path d="M172.28,317.99c2.17,6.08,4.67,12.03,6.95,18.06c6.05,16.01,11.99,32.04,18.15,48.01c1.46,3.8,3.83,6.66,0.58,11.34
				c-3.62,5.18-0.67,9.5,5.81,10.83c3.24,0.65,6.41,1.66,9.61,2.45c8.97,2.2,17.95,4.35,27.25,6.6l14.38,3.09
				c0.66,0.17,1.33,0.34,1.99,0.51c14.54,3.72,29.12,7.23,43.7,10.81l21.9,1.37l54.4-14.5c1.68-1.03,3.37-2.08,5.05-3.12
				c2.15-1.33,4.3-2.69,6.41-4.05c0.01-0.01,0.02-0.01,0.02-0.01c-2.15-0.26-2.4-0.75-2.22-3.31c0.36-5.59,3.2-4.91,6.97-4.23
				c1.79,0.33,3.58,0.64,5.37,0.94c0.12-0.08,0.23-0.15,0.35-0.23c0.99-0.67,1.96-1.3,2.95-1.97c0.41-0.26,0.83-0.57,1.21-0.83
				c0.35-0.23,0.7-0.47,1.04-0.71c-9.09-1.01-18.13-2.61-27.13-4.74c-4.52-1.08-8.62-1.28-13.08,0.24
				c-5.11,1.76-10.26,0.57-14.79-2.02c-5.81-3.33-10.63-1.47-15.43,1.88c-0.86,0.61-1.59,1.39-2.44,2
				c-1.55,1.09-3.11,0.25-4.11-0.69c-1.21-1.12,0.38-2.14,1-2.97c2.95-3.95,7.37-5.84,11.6-8.09c-6.53-0.17-11.5,2.86-15.71,7.35
				c-2.16,2.3-4.42,2.92-7.3,0.85c4.27-6.08,9.66-10.53,16.86-12.67c-6.72-0.67-11.3,3.04-15.57,7.39
				c-1.26,1.28-2.46,2.67-3.89,3.73c-1.44,1.06-2.96,0.44-4.01-0.79c-1.35-1.59,0.59-1.98,1.27-2.66c5.1-5.18,10.53-9.88,17.76-11.9
				c0.78-0.22,1.7-0.5,2.05-1.7c-9.54,0.68-15.55,7.63-23.12,13.34c0.01-3.87,1.83-5.72,3.7-7.19c9.58-7.52,19.54-12.44,32.39-7.54
				c23.46,8.94,47.36,5.67,71.16,1.11c6.53-1.25,12.96-3.51,19.69-1.49c0.33-1.65-0.79-2.09-1.48-2.27
				c-3.75-0.98-3.42-3.76-3.86-6.8c-0.71-4.87,1.14-6.48,5.61-7.41c7.27-1.52,14.54-2.37,21.91-1.84c2.21,0.15,3.63,0.41,4.5,1
				c1.35-1.15,2.69-2.31,4.02-3.49c-1.05-0.47-2.1-0.88-3.15-1.24c-1.58-0.54-3.15-0.96-4.73-1.26c-0.31-0.06-0.64-0.12-0.95-0.17
				c-0.47-0.08-0.94-0.15-1.42-0.21c0,0,0,0-0.01,0c-0.47-0.06-0.94-0.11-1.41-0.15c-1.67-0.14-3.33-0.18-5-0.11
				c-0.02,0-0.02,0.01-0.03,0c-0.81,0.03-1.62,0.08-2.42,0.17c-2.17,0.21-4.35,0.56-6.52,1.05c-1.44,0.32-2.89,0.7-4.33,1.13
				c-0.49,0.14-0.96,0.29-1.45,0.44c-0.96,0.31-1.92,0.63-2.88,0.96c-0.48,0.17-0.96,0.35-1.44,0.52c-3.02,1.12-4.17,0.33-4.67-2.48
				c-0.08-0.45-0.3-0.89-0.27-1.32c1.06-12.7-1.83-25.11-2.73-37.67c-0.24-3.4,0.36-6.85,0.61-10.87
				c-3.46,6.65-3.54,13.3-3.02,20.32c-2.04-1.72-2.31-4.09-2.98-6.25c-1.98,0.19-0.43,1.95-1.18,2.68
				c4.03,10.08,5.33,20.55,4.38,31.33c-0.28,3.25,0.84,5.94,3.26,8.02c1.24,1.06,1.75,2.15,1.75,3.84
				c-0.01,7.46,0.04,7.36-7.33,8.46c-12.02,1.78-23.91,4.25-36.09,5.18c-11.2,0.86-21.84-0.8-32.4-4.14
				c-2.84-0.9-6.93-0.71-8.3-2.59c-1.41-1.91-0.04-5.76-0.14-8.76c-0.13-4.2-0.81-8.33-1.87-12.37c-0.35-1.33-0.75-2.65-1.18-3.96
				c-7.54-22.73-7.6-22.71-6.2-46.07c-2.51,3.77-4.54,11.73-4.88,19.19c-2.33-1.16-2.13-4.14-4.41-5.8
				c2.66,9.12,5.19,17.87,7.74,26.6c0.57,1.94,1.86,3.71-0.36,5.67c-2.4,2.13-3.12-0.72-4.4-1.31c-8.67-4.04-16.02-9.93-22.9-16.52
				c-2.97-2.85-3.21-4.75,0.08-7.59c5.04-4.36,8.66-9.9,11.41-16.02c1.97-4.37,4.08-8.69,6.28-12.96
				c3.92-7.62,9.49-13.38,17.94-16.07c3.98-1.26,7.65-3.43,11.88-4.38c0.51,3.48,0.34,7.03,2.47,9.99c0.3-0.58,0.59-1.15,0.88-1.72
				c-0.2-2.08-0.44-4.16-0.59-6.25c-0.18-2.65,0.99-4.23,4.12-4.59c-0.83,4.64-0.67,8.84,3.03,12.34c4.12,3.89,9.06,4.39,14.25,4.22
				c13.86-0.45,26.25-9.41,30.19-21.73c4.83,1.94,4.9,2.15,2.68,6.51c-3.02,5.94-7.92,10.08-13.22,13.85
				c0.35,0.36,0.69,0.72,1.04,1.07c6.84-3.35,11.94-8.54,15.28-15.29c1.29-2.62,2.39-3.04,5.07-1.79
				c10.41,4.89,21.43,8.49,30.89,15.37c1.34,0.98,2.58,2.04,3.73,3.16c3.43,3.35,6.06,7.3,8.46,11.61
				c6.07,10.93,9.65,40.98,9.96,55.77c5.65-5.02,11.15-10.18,16.49-15.55c-1.85-3.29-4.99-5.77-9.65-7.73
				c-2.55-1.07-4.09-2.26-3.45-5.68c5.19,1.43,10.18,2.49,14.78,4.76c1.68,0.84,3.05,1.7,4.11,2.66c1.26-1.33,2.51-2.67,3.74-4.03
				c-1.73-1.48-3.92-2.72-6.61-3.79c-2.23-0.89-4.47-2.17-6.78-2.37c-8.57-0.73-11.9-5.35-13.62-13.67
				c-1.92-9.24-5.77-17.58-12.09-24.2c-2.65-2.78-5.74-5.26-9.31-7.37c-13.12-7.78-27.53-12.69-41.67-18.13
				c-3.05-1.17-5.42-2.5-6.69-5.44c-3.2-7.45-6.57-14.27,1.21-21.89c6.42-6.29,8.52-15.72,11.77-24.09
				c2.16-5.58,2.81-11.37,1.08-17.26c-0.03-0.12,0.24-0.34,0.34-0.47c1.17,0.08,0.85,1.95,2.51,1.72
				c-0.24-7.64-4.1-13.18-10.37-16.82c-3-1.74-5.84-2.66-5.44-6.96c0.17-1.78-1.2-3.68-3.08-4.03c-2.01-0.38-0.77,2.36-1.86,3.27
				c-4.7-7.85-11.31-11.55-20.79-11.66c1.8,1.39,3.04,2.35,4.27,3.32c-7.78-2.69-15.63-3.17-23.58-1.82
				c-7.12,1.21-13.98,0.9-20.44-3.01c-1.47,4.42,1.9,6.65,3.91,9.49c-6.56,1.39-12.64,3.29-19.55,1.42c1.94,3.76,4.56,5.59,7.9,6.71
				c-4.35,3.35-9.16,3.61-14.38,3c1.19,4.41,4.09,6.28,8.13,6.88c-6.5,7.42-8.23,14.82-4.69,19.61c0.81-3.33,2.73-5.6,6.23-7.23
				c-0.4,4.96-0.42,9.55,2.47,13.25c2.68,3.43,3.06,7.04,2.22,11.05c-0.4,1.91-0.87,3.84-1,5.77c-0.78,12.39,5.42,22.16,12.17,31.67
				c2.21,3.13,5.64,4.47,9.37,4.75c2.23,0.16,4.52,0.03,6.75-0.25c1.72-0.22,2.73-0.02,3.37,1.85c0.73,2.13-0.81,2.28-1.96,2.74
				c-4.46,1.79-8.86,3.78-13.44,5.2c-12.72,3.95-21.64,11.94-26.88,24.16c-4.1,9.55-8.76,18.77-16.3,26.23
				c-1.64,1.62-3.11,4.1-2.01,6.11c2.58,4.74-0.77,6.94-3.16,9.86c-1.65,2.01-2.58,2.41-4.13-0.06c-1.91-3.03-4.72-4.85-8.36-5.58
				c-20.35-4.09-40.66-8.33-61.01-12.43c-12.09-2.44-24.2-4.78-36.31-7.08C174.35,304.79,169.52,310.28,172.28,317.99z
				 M377.77,238.65c-7.61,5.55-14.37,10.11-22.5,12.1c-10.07,2.47-13.34,0.7-19.1-7.66c-7.33-10.65-8.54-22.13-6.68-34.38
				c0-0.33-0.01-0.66-0.01-0.99c-0.26-0.85-0.58-1.69-0.79-2.55c-0.72-2.97-0.19-4.66,3.44-3.55c1.36,0.42,3.48,1.95,4-0.68
				c0.39-1.98-1.81-2.34-3.31-3.03c-1.47-0.68-3.9,1.26-4.31-0.65c-0.55-2.58,0.03-5.46,2.1-7.55c2.99-3.02,6.5-5.28,11.15-6.99
				c-1.26,2.89-3.57,4.94-2.79,7.99c5.67-2.47,11.26-4.9,17.12-7.46c-0.06,2.07-2.37,2.92-2.15,5.05c5.29,0.88,9.51-2.81,14.58-3.69
				c-1.45,8.04,0.44,14.5,7.16,19.54c3.31,2.49,2.67,7.04,3.18,10.83c0.11,0.8-0.53,1.92,0.76,2.22c0.99,0.23,1.8-0.46,2.27-1.18
				c1-1.49,1.77-3.12,2.69-4.66c1.98-3.33,4.97-4.92,8.74-4.08c3.55,0.79,4.83,3.55,5.12,7.06c0.64,7.88-5.73,14.92-13.61,14.84
				c-1.35-0.01-1.35-0.01-2.93,1.95c0.15,0.19,0.31,0.57,0.47,0.57c4.47,0.1,6.38,1.91,6.98,6.83c0.97,7.78,3.86,15.16,10.04,20.61
				c0.73,0.64,0.89,1.13,0.79,1.61c-0.02,0.12-0.06,0.23-0.12,0.35c-0.02,0.06-0.06,0.12-0.08,0.19c-0.1,0.18-0.21,0.38-0.33,0.58
				c-0.04,0.07-0.08,0.15-0.12,0.21c-0.15,0.28-0.32,0.57-0.49,0.85c-0.17,0.28-0.35,0.56-0.54,0.83c-0.14,0.21-0.28,0.41-0.43,0.62
				c-0.3,0.41-0.61,0.81-0.93,1.2c-0.16,0.2-0.33,0.39-0.5,0.59c-0.45,0.51-0.93,1.01-1.43,1.51c-6.79,6.68-17.65,10.83-26.39,9.37
				c-6.67-1.11-10.13-4.96-9.15-10.15c2.17-0.55,0.06,2.93,2,2.24c1.63-0.59,1.4-2.37,0.81-3.51c-2.81-5.47-0.17-8.94,3.78-12.48
				C370.59,249.29,373.81,244.4,377.77,238.65z M321.48,345.6c-3.12,4.04-5.86,8.62-10.05,11.4c-2.16,1.43-2.33,2.38-2.76,4.57
				c-0.61,3.08-3.11,5.35-6.09,6.54c-1.68,0.09-1.63-1.14-1.94-2.08c-2.56-7.82-4.99-15.69-7.81-23.41
				c-0.97-2.66-0.7-4.39,1.23-6.34c2.41-2.45,4.13-6.58,6.9-7.36c2.41-0.68,4.65,3.72,7.15,5.67c3.92,3.07,8.11,5.66,12.38,8.14
				C321.91,343.57,322.75,343.96,321.48,345.6z M310.21,369.05c0.31-0.57,0.63-1.13,0.96-1.69c0.27-0.47,0.53-0.93,0.81-1.38
				l0.37-0.62c0.29-0.48,0.58-0.96,0.88-1.43c0.18-0.27,0.35-0.56,0.54-0.83c0.18-0.27,0.36-0.56,0.54-0.82
				c0.1-0.15,0.2-0.31,0.31-0.46c0.19-0.29,0.39-0.57,0.59-0.86c2.15-3.05,4.54-5.87,7.33-8.33c0.21-0.19,0.43-0.37,0.64-0.55
				c0.82-0.7,1.68-1.36,2.58-1.98c0.22-0.16,0.46-0.32,0.69-0.47c0.31-0.21,0.62-0.41,0.94-0.61c0.51-0.32,1.03-0.63,1.57-0.92
				c1.2-0.67,2.47-1.28,3.81-1.82c0.35-0.14,0.71-0.28,1.07-0.42c0.31,1.15,0.61,2.3,0.9,3.44c0.38,1.49,0.71,2.97,0.97,4.46
				c0.1,0.56,0.19,1.12,0.27,1.68c0.04,0.3,0.07,0.62,0.11,0.92c0.01,0.02,0.01,0.03,0,0.05c0.04,0.31,0.06,0.63,0.08,0.94
				c0.03,0.29,0.04,0.57,0.06,0.86c0.01,0.14,0.01,0.29,0.02,0.44c0.01,0.17,0.01,0.33,0.01,0.49c0.02,0.39,0.01,0.79,0,1.19
				c-0.01,0.29-0.02,0.58-0.04,0.87c-0.04,0.71-0.12,1.43-0.23,2.15c-0.36,2.26-0.79,4.06-3.81,3.67c-2.41-0.31-4.89,0.27-6.99,1.34
				C320.37,370.81,315.56,370.98,310.21,369.05z M305.81,381.16c-0.36-0.76-0.57-1.01-0.6-1.29c-0.23-2.14-2.9-4.73-1.35-5.99
				c1.85-1.52,5.07-1.12,7.68-0.13c0.64,0.24,1.48,0.15,1.98,1.4C311.49,377.45,308.7,379.03,305.81,381.16z M328.1,401.1
				c-5.76-1.63-11.96-1.44-17.31-4.47C316.64,397.87,322.88,397.61,328.1,401.1z M319.2,402.16c2.07,0.84,4.3,0.75,6.48,0.36
				c-4.28,3.61-8.61,0.5-12.92,0.08C314.86,401.04,316.94,401.25,319.2,402.16z M373.87,398.42c-2.82,1.54-5.09,0.71-7.34,0.37
				C368.63,397.17,370.85,397.49,373.87,398.42z M374.08,402.13c-19.64,3.52-39.41,6.14-59.23,8.46c-0.05-0.41-0.1-0.82-0.15-1.24
				c19.75-2.76,39.49-5.53,59.24-8.3C373.98,401.41,374.03,401.77,374.08,402.13z M201.82,398.48c0.42-3.56,3.05-5.4,6.53-4.6
				c10.78,2.47,21.56,4.94,32.33,7.43c4.49,1.03,8.98,2.08,13.46,3.12c4.33,1,8.66,2.01,12.99,3.02c0.76,0.17,1.51,0.36,2.27,0.53
				c10.68,2.49,21.34,5.07,31.98,7.71c5.42,1.35,5.4,1.45,4.97,6.81c0.43-0.19,1.02-0.25,1.18-0.54c3.6-6.49,10.31-5.53,16.06-6.51
				c17.46-2.98,34.96-5.72,52.47-8.38c1.19-0.18,3.84-2.6,4.05,0.94c0.15,2.46,0.89,5.54-3.23,6.26c-9.76,1.69-19.5,3.54-29.22,5.45
				c-9.87,1.95-19.75,3.87-29.54,6.15c-6.47,1.5-12.56-0.19-18.63-1.61c-6.53-1.54-13.05-3.09-19.58-4.64
				c-5.15-1.23-10.31-2.45-15.45-3.69c-1.37-0.32-2.75-0.66-4.12-0.99c-9.04-2.17-18.08-4.34-27.12-6.52
				c-9.04-2.18-18.07-4.36-27.11-6.54C204.28,401.43,201.44,401.67,201.82,398.48z M235.35,365.5c-3.13-0.76-4.04-3.25-3.98-6.15
				c0.03-1.31,0.29-3.35,1.99-2.68c2.57,1,4.25,3.2,4.12,6.28C237.4,364.35,237.32,365.98,235.35,365.5z M177.52,312.97
				c1.38-2.22,3.3-1.72,5.01-1.39c29.51,5.78,59,11.6,88.49,17.45c3.09,0.61,6.16,1.37,9.2,2.19c3.19,0.87,4.97,3.3,5.96,6.24
				c2.79,8.26,5.56,16.52,8.27,24.8c0.53,1.6,1.05,3.2,1.57,4.81c0.56,1.71,1.11,3.43,1.66,5.14c0.53,1.66,1.06,3.32,1.59,4.98
				c3.18,10.03,6.23,20.1,9.11,30.22c0.36,1.29,0.88,2.57-0.37,5.17c-2.84-8.74-5.56-16.46-7.85-24.31c-0.29-1-0.59-2-0.89-2.99
				c-0.3-1-0.61-1.99-0.92-2.99c-0.35-1.13-0.71-2.27-1.07-3.39c0-0.01,0-0.01-0.01-0.02c-0.5-1.59-1.02-3.18-1.55-4.76
				c-2.63-7.95-5.44-15.83-8.12-23.76c-0.41-1.19-0.81-2.39-1.21-3.59c-0.2-0.59-0.4-1.18-0.59-1.77c-0.46-1.39-0.91-2.77-1.36-4.17
				c-1.44-4.49-4.43-6.91-8.97-7.83c-25.77-5.21-51.53-10.46-77.3-15.72C191.31,315.89,184.46,314.43,177.52,312.97z"/>
			<path class="st28" d="M302.42,323.98c6.89,6.59,14.24,12.47,22.9,16.52c1.27,0.6,1.99,3.44,4.4,1.31
				c2.22-1.96,0.93-3.73,0.36-5.67c-2.55-8.74-5.09-17.49-7.74-26.6c2.28,1.67,2.08,4.64,4.41,5.8c0.34-7.46,2.38-15.42,4.88-19.19
				c-1.4,23.36-1.34,23.34,6.2,46.07c0.43,1.31,0.83,2.63,1.18,3.96c1.07,4.04,1.75,8.17,1.87,12.37c0.1,3-1.27,6.85,0.14,8.76
				c1.38,1.88,5.46,1.69,8.3,2.59c10.56,3.34,21.21,5,32.4,4.14c12.18-0.93,24.07-3.41,36.09-5.18c7.37-1.1,7.32-1,7.33-8.46
				c0-1.69-0.51-2.78-1.75-3.84c-2.42-2.08-3.54-4.77-3.26-8.02c0.95-10.78-0.35-21.25-4.38-31.33c-1.28-3.22-1.41-6.52-0.78-10.42
				c1.76,2.65,1.45,5.31,1.96,7.74c0.67,2.16,0.93,4.53,2.98,6.25c-0.52-7.01-0.43-13.66,3.02-20.32
				c-0.25,4.02-0.85,7.48-0.61,10.87c0.89,12.56,3.79,24.97,2.73,37.67c-0.03,0.43,0.19,0.87,0.27,1.32
				c0.51,2.81,1.65,3.61,4.67,2.48c0.48-0.18,0.96-0.35,1.44-0.52c0.96-0.34,1.92-0.66,2.88-0.96c0.49-0.15,0.96-0.3,1.45-0.44
				c1.44-0.42,2.88-0.8,4.33-1.13c2.17-0.49,4.35-0.85,6.52-1.05c0.81-0.08,1.61-0.13,2.42-0.17c0.01,0.01,0.02,0,0.03,0
				c1.66-0.06,3.33-0.03,5,0.11c0.47,0.05,0.94,0.09,1.41,0.15c0.01,0,0.01,0,0.01,0c0.47,0.06,0.94,0.13,1.42,0.21
				c0.31,0.05,0.64,0.11,0.95,0.17c1.58,0.31,3.15,0.73,4.73,1.26c1.05,0.36,2.1,0.77,3.15,1.24c0.85-0.73,1.68-1.47,2.51-2.22
				c-0.31-14.79-3.89-44.83-9.96-55.77c-2.39-4.31-5.03-8.25-8.46-11.61c-1.15-1.12-2.39-2.17-3.73-3.16
				c-9.46-6.88-20.48-10.48-30.89-15.37c-2.68-1.25-3.78-0.83-5.07,1.79c-3.34,6.76-8.44,11.94-15.28,15.29
				c-9.42,5.41-19.21,9.38-30.3,6.16c-5.3-1.54-9.84-4.39-12.08-9.87c-2.13-2.96-1.96-6.51-2.47-9.99
				c-4.23,0.95-7.91,3.12-11.88,4.38c-8.45,2.7-14.02,8.46-17.94,16.07c-2.2,4.27-4.31,8.59-6.28,12.96
				c-2.75,6.12-6.37,11.66-11.41,16.02C299.21,319.23,299.45,321.13,302.42,323.98z M441.36,280.05c-2.96,1.74-5.1,3.35-7.74,4.1
				c-2.18,1.79-4.35,3.56-7.26,5.94c1.68-3.7,3.57-5.8,6.87-6.43C435.41,281.97,437.48,280.05,441.36,280.05z"/>
			<path class="st5" d="M328.51,197.27c0.41,1.91,2.84-0.03,4.31,0.65c1.51,0.69,3.7,1.05,3.31,3.03c-0.51,2.63-2.63,1.1-4,0.68
				c-3.63-1.11-4.16,0.58-3.44,3.55c0.21,0.86,0.52,1.7,0.79,2.55c1.72-0.99,3.28-2.77,5.52-0.97c1.69,1.35,2.28,3.18,2.04,5.18
				c-0.17,1.48-0.83,3-2.69,3.08c-1.62,0.07-1.97-1.45-2.85-2.39c-1.12-1.19,1.3-4.06-2-3.91c-1.86,12.25-0.65,23.74,6.68,34.38
				c5.76,8.36,9.02,10.13,19.1,7.66c8.13-1.99,14.89-6.55,22.5-12.1c-3.96,5.76-7.18,10.64-11.51,14.51
				c-3.95,3.54-6.59,7.01-3.78,12.48c0.59,1.14,0.82,2.93-0.81,3.51c-1.94,0.7,0.17-2.79-2-2.24c-0.98,5.19,2.48,9.04,9.15,10.15
				c8.74,1.46,19.61-2.69,26.39-9.37c0.5-0.49,0.98-1,1.43-1.51c0.17-0.2,0.33-0.39,0.5-0.59c0.33-0.39,0.64-0.79,0.93-1.2
				c0.15-0.21,0.29-0.41,0.43-0.62c0.18-0.27,0.37-0.56,0.54-0.83c0.18-0.28,0.34-0.57,0.5-0.85c0.04-0.07,0.08-0.15,0.12-0.22
				c0.12-0.21,0.23-0.4,0.33-0.58c0.03-0.06,0.06-0.12,0.08-0.19c0.05-0.12,0.09-0.23,0.12-0.35c0.1-0.48-0.06-0.96-0.79-1.61
				c-6.18-5.44-9.07-12.83-10.04-20.61c-0.61-4.91-2.51-6.72-6.98-6.83c-0.17,0-0.32-0.38-0.47-0.57c1.58-1.97,1.58-1.97,2.93-1.95
				c7.88,0.08,14.25-6.96,13.61-14.84c-0.29-3.51-1.57-6.27-5.12-7.06c-3.77-0.85-6.76,0.75-8.74,4.08
				c-0.92,1.54-1.69,3.17-2.69,4.66c-0.47,0.72-1.29,1.41-2.27,1.18c-1.29-0.3-0.65-1.42-0.76-2.22c-0.5-3.8,0.13-8.35-3.18-10.83
				c-6.72-5.04-8.61-11.5-7.16-19.54c-5.07,0.87-9.29,4.57-14.58,3.69c-0.22-2.13,2.09-2.98,2.15-5.05
				c-5.86,2.56-11.45,4.99-17.12,7.46c-0.79-3.05,1.53-5.1,2.79-7.99c-4.65,1.71-8.16,3.97-11.15,6.99
				C328.54,191.81,327.97,194.69,328.51,197.27z M385.1,223.01c1.06-2.65,1.79-4.18,1.04-6.5c-1.08-3.39,2.22-4.86,4.92-5.74
				c2.42-0.79,3.47,0.71,3.73,3.08c-5.21-1.18-5.54-0.8-4.27,4.29C391.53,222.13,388.33,221.92,385.1,223.01z M365.45,203.66
				c-5.03-1.79-9.7-1.96-14.42-0.84c-1.26,0.3-2.42-0.13-2.94-1.45c-0.47-1.18,0.1-1.91,1.17-2.52c3.85-2.21,12.58-0.84,15.55,2.57
				C365.13,201.81,365.12,202.48,365.45,203.66z M357.92,212.88c-0.33,1.85-1.65,3.95-4.1,2.61c-2.76-1.49-2.5-4.29-1.61-6.71
				c0.85-2.3,2.89-3.08,5.08-1.75c1.48,0.91,2.65,2.34,3.96,3.53C359.35,210.04,358.36,210.4,357.92,212.88z M337.94,233.87
				c6.68,0.93,12.11,0.95,17.04-2.1c0.56-0.35,1.06-0.57,1.52,0.04c0.63,0.83-0.08,1.34-0.54,1.87
				C352.31,237.89,343.44,238.45,337.94,233.87z M338.83,215.63c0.65-1.46,0.95-3.09,1.64-5.47c2.23,3.64,1.11,6.5-0.42,8.74
				c-2.14,3.14-2.71,5.68,1.91,8.79c-7.51-0.84-8.78-3.28-5.66-7.87C337.2,218.47,338.17,217.11,338.83,215.63z"/>
			<path class="st5" d="M308.1,387.59c7.57-5.71,13.58-12.66,23.12-13.34c-0.35,1.2-1.27,1.48-2.05,1.7
				c-7.23,2.02-12.66,6.72-17.76,11.9c-0.68,0.68-2.62,1.08-1.27,2.66c1.05,1.23,2.57,1.85,4.01,0.79c1.43-1.06,2.63-2.45,3.89-3.73
				c4.27-4.36,8.85-8.06,15.57-7.39c-7.2,2.14-12.59,6.59-16.86,12.67c2.89,2.07,5.14,1.45,7.3-0.85c4.21-4.49,9.19-7.52,15.71-7.35
				c-4.23,2.25-8.64,4.15-11.6,8.09c-0.62,0.83-2.2,1.85-1,2.97c1,0.94,2.56,1.78,4.11,0.69c0.86-0.61,1.59-1.39,2.44-2
				c4.8-3.35,9.62-5.21,15.43-1.88c4.52,2.59,9.68,3.78,14.79,2.02c4.46-1.52,8.56-1.32,13.08-0.24c9,2.13,18.04,3.73,27.13,4.74
				c1.96-1.33,3.91-2.66,5.84-4.04c7.6-5.28,15.08-10.74,22.48-16.33c0.8-0.6,1.56-1.17,2.36-1.78c5.74-4.38,11.41-8.87,17.02-13.46
				c3.32-2.72,6.61-5.46,9.86-8.26c-0.88-0.59-2.29-0.84-4.5-1c-7.38-0.52-14.65,0.33-21.91,1.84c-4.47,0.93-6.32,2.54-5.61,7.41
				c0.45,3.05,0.11,5.82,3.86,6.8c0.69,0.18,1.8,0.62,1.48,2.27c-6.73-2.02-13.16,0.24-19.69,1.49c-23.8,4.56-47.69,7.83-71.16-1.11
				c-12.85-4.9-22.81,0.02-32.39,7.54C309.92,381.87,308.11,383.72,308.1,387.59z"/>
			<path class="st28" d="M318.14,425.87c9.8-2.27,19.67-4.19,29.54-6.14c9.72-1.92,19.46-3.77,29.22-5.46
				c4.11-0.71,3.38-3.8,3.23-6.25c-0.22-3.55-2.86-1.13-4.05-0.94c-17.51,2.65-35.02,5.4-52.48,8.38
				c-5.74,0.98-12.45,0.02-16.05,6.51c-0.16,0.3-0.76,0.35-1.19,0.54c0.43-5.36,0.45-5.46-4.96-6.81
				c-10.64-2.64-21.3-5.22-31.98-7.71c-20.34-4.75-40.69-9.44-61.05-14.1c-3.48-0.8-6.11,1.04-6.53,4.6
				c-0.38,3.19,2.45,2.95,4.31,3.4c31.11,7.51,62.22,15.04,93.37,22.38C305.57,425.68,311.67,427.37,318.14,425.87z"/>
			<path class="st31" d="M386.26,406.06c-0.18,2.56,0.07,3.05,2.22,3.31c1.77-1.12,3.49-2.24,5.22-3.37
				c1.61-1.06,3.27-2.15,4.89-3.23c-1.79-0.29-3.58-0.61-5.37-0.94C389.46,401.15,386.63,400.47,386.26,406.06z"/>
			<path class="st5" d="M300.63,366.03c0.31,0.95,0.26,2.18,1.94,2.09c2.98-1.2,5.49-3.46,6.1-6.55c0.43-2.18,0.6-3.13,2.76-4.57
				c4.19-2.78,6.93-7.37,10.05-11.4c1.27-1.64,0.43-2.03-0.99-2.86c-4.27-2.48-8.47-5.07-12.38-8.14c-2.5-1.96-4.74-6.35-7.15-5.67
				c-2.76,0.78-4.49,4.91-6.9,7.36c-1.93,1.96-2.2,3.69-1.23,6.34C295.64,350.35,298.06,358.22,300.63,366.03z"/>
			<path class="st28" d="M284.44,340.83c5.09,15.86,11.05,31.43,15.72,47.44c2.29,7.85,5.01,15.58,7.85,24.32
				c1.25-2.6,0.73-3.89,0.37-5.18c-6.69-23.54-14.36-46.77-22.19-69.95c-0.99-2.94-2.77-5.37-5.96-6.24
				c-3.04-0.83-6.11-1.58-9.2-2.2c-29.49-5.85-58.99-11.66-88.49-17.45c-1.72-0.34-3.64-0.83-5.01,1.39
				c6.95,1.45,13.79,2.92,20.65,4.32c25.76,5.26,51.52,10.51,77.29,15.72C280,333.92,283,336.35,284.44,340.83z"/>
			<path class="st28" d="M325.16,368.38c2.11-1.07,4.58-1.66,6.99-1.34c3.02,0.39,3.46-1.41,3.81-3.67
				c0.92-5.96-0.57-11.61-2.15-17.5c-11.54,4.29-18.07,13.2-23.61,23.18C315.56,370.98,320.36,370.81,325.16,368.38z"/>
			<path class="st28" d="M373.86,285.95c7.16-0.64,13.75-2.87,19.96-6.38c5.3-3.77,10.2-7.91,13.22-13.85
				c2.22-4.37,2.14-4.58-2.68-6.51c-3.95,12.31-16.33,21.27-30.19,21.72c-5.18,0.17-10.13-0.33-14.25-4.22
				c-3.7-3.49-3.85-7.7-3.02-12.34c-3.14,0.36-4.3,1.95-4.12,4.59c0.14,2.09,0.39,4.16,0.59,6.25l0,0
				C357.63,283.11,364.8,286.76,373.86,285.95z"/>
			<path class="st32" d="M314.85,410.59c19.82-2.33,39.59-4.95,59.23-8.46c-0.05-0.36-0.1-0.72-0.15-1.08
				c-19.74,2.77-39.49,5.54-59.23,8.31C314.75,409.77,314.8,410.18,314.85,410.59z"/>
			<path d="M391.28,281.6c1.15-0.44,2.33-0.8,3.58-0.95c-0.35-0.36-0.69-0.72-1.04-1.07C393.01,280.34,392.16,281.01,391.28,281.6z"
				/>
			<path d="M353.36,275.21L353.36,275.21c-0.29,0.58-0.59,1.15-0.88,1.73l0,0c0.69,0.63,1.37,1.26,2.05,1.89
				C353.93,277.77,353.52,276.58,353.36,275.21z"/>
			<path d="M364.57,286.81c11.09,3.22,20.87-0.76,30.3-6.16c-1.25,0.15-2.43,0.51-3.58,0.95c-4.47,3.01-9.74,3.97-15.02,5.02
				c-6.23,1.25-11.81-0.1-17.13-3.38c-1.95-1.2-3.56-2.61-4.6-4.42c-0.68-0.63-1.36-1.26-2.05-1.89
				C354.72,282.42,359.27,285.27,364.57,286.81z"/>
			<path d="M354.53,278.83c3.01,2.77,6.08,5.42,10.16,6.78c7.27,2.43,14.11,0.74,20.95-1.64c1.92-0.67,3.74-1.64,5.64-2.37
				c0.88-0.59,1.73-1.26,2.54-2.03c-6.21,3.51-12.8,5.74-19.96,6.38c-9.06,0.81-16.23-2.84-20.5-10.74l0,0l0,0
				C353.52,276.58,353.93,277.77,354.53,278.83z"/>
			<path d="M364.69,285.61c-4.08-1.36-7.15-4.02-10.16-6.78c1.04,1.81,2.65,3.21,4.6,4.42c5.31,3.28,10.9,4.62,17.13,3.38
				c5.28-1.06,10.55-2.01,15.02-5.02c-1.9,0.73-3.72,1.7-5.64,2.37C378.81,286.35,371.96,288.04,364.69,285.61z"/>
			<path class="st33" d="M303.86,373.87c-1.54,1.27,1.12,3.85,1.35,6c0.03,0.28,0.24,0.53,0.6,1.28c2.89-2.12,5.67-3.71,7.71-6.01
				c-0.5-1.25-1.33-1.16-1.98-1.41C308.93,372.76,305.71,372.36,303.86,373.87z"/>
			<path d="M332.41,211.1c0.53,1.02,0.82,2.6,2.38,1.8c1.44-0.74,1.18-2.23,0.58-3.53c-1.31-2.82-3.91-1.16-5.89-1.66l0,0l0,0
				c0,0.33,0.01,0.66,0.01,0.99l0,0C332.08,207.53,331.8,209.9,332.41,211.1z"/>
			<path d="M331.5,212.62c0.89,0.94,1.23,2.47,2.85,2.39c1.87-0.08,2.52-1.6,2.7-3.09c0.23-1.99-0.35-3.82-2.04-5.18
				c-2.24-1.8-3.8-0.01-5.52,0.97l0,0c1.98,0.5,4.58-1.16,5.89,1.66c0.6,1.29,0.86,2.79-0.58,3.53c-1.56,0.8-1.85-0.78-2.38-1.8
				c-0.62-1.2-0.33-3.57-2.92-2.39C332.81,208.55,330.38,211.43,331.5,212.62z"/>
			<path class="st28" d="M233.35,356.67c-1.7-0.67-1.96,1.38-1.99,2.68c-0.05,2.9,0.86,5.39,3.98,6.15
				c1.97,0.48,2.05-1.16,2.12-2.55C237.6,359.88,235.92,357.68,233.35,356.67z"/>
			<path class="st34" d="M328.1,401.1c-5.22-3.49-11.45-3.23-17.31-4.47C316.14,399.66,322.34,399.47,328.1,401.1z"/>
			<path class="st35" d="M319.21,402.16c-2.26-0.92-4.35-1.12-6.44,0.43c4.31,0.42,8.64,3.54,12.92-0.08
				C323.5,402.91,321.27,403,319.21,402.16z"/>
			<path class="st36" d="M415.76,317.21c0.75-0.74-0.8-2.49,1.18-2.68c-0.82-0.83-1.17-1.79-1.35-2.8
				C415.68,313.56,415.7,315.39,415.76,317.21z"/>
			<path class="st36" d="M415.76,317.21c-0.07-1.82-0.09-3.65-0.17-5.48c-0.22-1.23-0.17-2.54-0.31-3.79
				c0.17,1.26,0.25,2.53,0.31,3.79c0.18,1.01,0.54,1.97,1.35,2.8c-0.51-2.44-0.2-5.09-1.96-7.74
				C414.35,310.69,414.48,313.99,415.76,317.21z"/>
			<path class="st36" d="M415.59,311.73c-0.06-1.26-0.14-2.53-0.31-3.79C415.42,309.19,415.37,310.5,415.59,311.73z"/>
			<path d="M366.54,398.79c2.25,0.34,4.52,1.17,7.34-0.37C370.85,397.49,368.63,397.17,366.54,398.79z"/>
			<path class="st37" d="M433.23,283.66c-3.3,0.62-5.19,2.73-6.87,6.44c2.9-2.38,5.08-4.16,7.25-5.94
				C433.48,283.99,433.36,283.82,433.23,283.66z"/>
			<path class="st37" d="M441.36,280.05c-3.88-0.01-5.95,1.92-8.13,3.6c0.13,0.16,0.26,0.33,0.38,0.49
				C436.26,283.4,438.4,281.79,441.36,280.05z"/>
			<path d="M349.25,198.85c-1.06,0.61-1.63,1.33-1.16,2.52c0.52,1.33,1.68,1.75,2.94,1.45c4.71-1.11,9.38-0.95,14.42,0.84
				c-0.32-1.18-0.32-1.85-0.65-2.23C361.84,198.01,353.1,196.63,349.25,198.85z"/>
			<path d="M352.21,208.78c-0.89,2.42-1.15,5.22,1.61,6.71c2.45,1.33,3.77-0.76,4.1-2.61c0.44-2.48,1.43-2.84,3.33-2.31
				c-1.31-1.2-2.48-2.62-3.96-3.53C355.1,205.7,353.06,206.49,352.21,208.78z"/>
			<path d="M390.53,218.14c-1.27-5.09-0.94-5.47,4.27-4.3c-0.26-2.37-1.31-3.88-3.73-3.08c-2.71,0.89-6.01,2.36-4.92,5.75
				c0.74,2.32,0.02,3.85-1.04,6.5C388.33,221.92,391.53,222.13,390.53,218.14z"/>
			<path d="M340.05,218.9c1.53-2.24,2.65-5.1,0.41-8.74c-0.69,2.39-0.98,4.01-1.63,5.48c-0.66,1.48-1.63,2.84-2.55,4.19
				c-3.11,4.58-1.84,7.02,5.67,7.86C337.34,224.58,337.9,222.03,340.05,218.9z"/>
			<path d="M354.98,231.77c-4.92,3.05-10.35,3.03-17.04,2.1c5.49,4.58,14.37,4.02,18.02-0.19c0.47-0.54,1.17-1.04,0.54-1.87
				C356.04,231.2,355.55,231.42,354.98,231.77z"/>
		</g>
	</g>
</g>
</svg>
