<?xml version="1.0" encoding="utf-8"?>
<!-- Generator: Adobe Illustrator 24.3.0, SVG Export Plug-In . SVG Version: 6.00 Build 0)  -->
<svg version="1.1" id="Layer_1" xmlns="http://www.w3.org/2000/svg" xmlns:xlink="http://www.w3.org/1999/xlink" x="0px" y="0px"
	 viewBox="0 0 165.99 166.6" style="enable-background:new 0 0 165.99 166.6;" xml:space="preserve">
<style type="text/css">
	.st0{fill:#00B0FB;fill-opacity:0.4;}
	.st1{fill:#00B0FB;}
</style>
<g>
	<g>
		<path class="st0" d="M70.1,76.47c-1.39,2.29-2.68,4.29-3.83,6.36c-0.77,1.38-1.81,1.96-3.38,1.94c-4.49-0.06-8.98-0.03-13.47-0.02
			c-1.68,0-3-0.52-2.95-2.44c0.05-1.88,1.39-2.4,3.05-2.4c3.41,0,6.82-0.16,10.22,0.06c2.1,0.13,3.24-0.62,4.15-2.42
			c1.12-2.2,2.47-4.29,3.81-6.37c1.48-2.28,3.17-2.31,4.68-0.05c1.79,2.68,3.47,5.43,5.38,8.44c2.92-5.09,5.6-9.94,8.48-14.66
			c0.68-1.12,2.04-2.58,3.04-2.54c1.03,0.04,2.28,1.55,2.94,2.7c3.56,6.25,6.97,12.58,10.43,18.88c0.29,0.52,0.62,1.01,1.12,1.84
			c1.92-3.21,3.77-6.13,5.44-9.14c0.93-1.67,2.06-2.41,4.05-2.37c5.8,0.12,11.61,0.06,17.42,0.04c1.79-0.01,3.73-0.03,3.67,2.38
			c-0.06,2.38-2.05,2.29-3.8,2.28c-5.11-0.02-10.22,0.04-15.33-0.04c-1.34-0.02-2.07,0.41-2.73,1.58c-1.97,3.5-4.07,6.94-6.15,10.38
			c-1.85,3.05-3.7,3.03-5.4-0.07c-3.7-6.7-7.37-13.42-11.06-20.12c-0.18-0.33-0.39-0.65-0.75-1.27c-2.92,5.06-5.71,9.91-8.52,14.76
			c-1.89,3.26-3.54,3.3-5.52,0.16C73.48,81.82,71.88,79.28,70.1,76.47z"/>
		<path class="st1" d="M138.62,32.51c0,2.44,0,4.52,0,6.6c0,1.61-0.6,2.76-2.38,2.76c-1.8,0-2.36-1.2-2.36-2.78
			c-0.01-2.07,0-4.15,0-6.58c-2.09,0-3.99-0.04-5.88,0.01c-1.77,0.05-3.49-0.19-3.53-2.34c-0.04-2.33,1.79-2.52,3.62-2.48
			c1.83,0.04,3.67,0.01,5.79,0.01c0-2.33,0.01-4.39,0-6.46c-0.01-1.69,0.56-2.96,2.47-2.91c1.76,0.05,2.3,1.26,2.28,2.86
			c-0.02,2.07-0.01,4.14-0.01,6.5c2.3,0,4.37,0.01,6.43,0c1.68-0.01,2.96,0.52,2.92,2.45c-0.04,1.93-1.37,2.37-3.03,2.35
			C142.95,32.49,140.96,32.51,138.62,32.51z"/>
		<path class="st1" d="M23.13,109.3c0,12.96,0,25.84,0,38.85c-5.76,0-11.38,0-17.17,0c0-12.92,0-25.8,0-38.85
			C11.65,109.3,17.32,109.3,23.13,109.3z"/>
	</g>
	<path d="M164.93,32.91c0-15.99-12.95-28.94-28.94-28.94c-15.63,0-28.35,12.39-28.91,27.87l-0.02-0.09
		c-5.32,2.07-10.87,5.44-15.01,9.38c-1.05,1-2.11,2-3.11,2.95c-0.31-0.14-0.47-0.19-0.58-0.28c-0.63-0.58-1.24-1.17-1.85-1.76
		c-6.75-6.63-14.63-11.14-24.06-12.58c-10.67-1.66-20.13,0.88-28.12,8.25c-0.06,0.05-0.12,0.09-0.17,0.15
		c-4.16,3.3-7.32,7.78-9.02,12.93c-7.8,17.48-4.26,37.24,9.13,50.99c1.32,1.35,2.63,2.73,4.18,4.34c-2.01,0.35-3.59,0.65-5.16,0.9
		c-1.67,0.27-3.32,0.51-4.94,0.75c-1.17-2.95-1.96-3.53-4.88-3.54c-5.89-0.02-11.77-0.02-17.66,0c-3.57,0.01-4.71,1.18-4.71,4.75
		c-0.01,13.09-0.01,26.18,0,39.27c0,3.81,1.11,4.91,5.04,4.92c5.34,0.01,10.68-0.06,16.03,0.02c2.86,0.03,5.51-0.08,6.15-3.67
		c13.18,3.61,26.11,7,38.95,10.71c7.96,2.3,15.86,3.52,23.95,0.93c15.59-5,31.19-10,46.79-15.05c3.21-1.04,5.74-3,7.32-6.07
		c2.75-5.38,0.5-11.26-5.38-12.65c-2.88-0.68-6.12-0.31-9.12,0.15c-5.06,0.78-10.06,2.01-15.65,3.17c0.78-0.84,1.13-1.25,1.5-1.62
		c8.17-8.37,16.42-16.66,24.49-25.11c3.09-3.24,6.24-6.56,8.57-10.34c7.41-11.98,8.63-24.84,4.51-38.27
		C160.75,50.08,164.93,41.99,164.93,32.91z M23.13,148.16H5.97V109.3h17.17V148.16z M133.87,131.78c1.19-0.23,2.49-0.28,3.69-0.1
		c3.97,0.56,5.43,4.06,2.78,7.1c-1.2,1.38-3.01,2.5-4.76,3.07c-15.5,5.04-31.06,9.9-46.58,14.87c-6.33,2.04-12.49,1.13-18.69-0.61
		c-13.31-3.72-26.65-7.37-40-10.93c-1.77-0.46-2.34-1.15-2.29-2.94c0.13-4.57,0.05-9.14,0.05-13.7c0-4.65,0.05-9.29-0.03-13.94
		c-0.02-1.47,0.44-1.96,1.91-2.2c11.59-1.89,23.17-3.83,34.74-5.88c7.66-1.35,15.12-0.16,22.54,1.48c2.52,0.57,5.12,1.22,7.41,2.37
		c2.66,1.34,3.67,4.06,3.06,6.42c-0.52,2.04-2.7,3.77-5.61,3.67c-4.62-0.17-9.23-0.79-13.84-1.24c-1.15-0.12-2.29-0.32-3.44-0.46
		c-4.47-0.57-8,1.93-8.88,6.24c-0.86,4.25,1.44,8.23,5.74,9.24c4.82,1.13,9.71,1.88,14.57,2.79c1.67,0.31,3.36,0.52,5.01,0.94
		c6.67,1.69,13.05-0.31,19.47-1.55C118.43,134.92,126.14,133.28,133.87,131.78z M140.87,97.31c-10.73,11.48-21.9,22.55-32.9,33.79
		c-0.47,0.49-1.02,1.16-1.61,1.24c-3.81,0.54-7.71,1.66-11.44,1.25c-7.21-0.8-14.32-2.47-21.46-3.79c-1.94-0.36-3.09-1.52-2.96-3.52
		c0.12-1.97,1.46-2.93,3.82-2.69c4.7,0.49,9.39,1.01,14.05,1.7c5.42,0.81,10.73-1.19,13.05-5.14c3.03-5.16,0.46-12.15-6-14.85
		c-3.58-1.49-7.58-1.98-11.42-2.82c-6.4-1.42-12.84-1.91-19.35-0.74c-6.01,1.09-12.04,2.08-18.05,3.18
		c-1.59,0.29-2.74,0.03-3.87-1.25c-1.94-2.21-4.16-4.18-6.12-6.35c-9.43-10.43-12.5-22.59-9.76-36.21c0.02-0.14,0.05-0.28,0.08-0.42
		c0.09-0.43,0.26-0.97,0.47-1.59c0.5-1.47,0.88-2.99,1.3-4.49c0.44-1.59,1.04-3.13,1.77-4.58c1.42-2.86,3.38-5.41,5.72-7.54
		c0.02-0.02,0.05-0.05,0.07-0.06c0.32-0.3,0.66-0.58,1.01-0.86c0.01-0.02,0.03-0.03,0.06-0.06c0.6-0.59,1.1-1.28,1.78-1.77
		c4.48-3.23,8.98-5.09,13.47-5.8c7.03-1.12,14.01,0.58,20.77,4.33c4.39,2.42,8.09,6.13,11.99,9.4c2.75,2.3,4.2,2.43,6.81,0.01
		c1.19-1.11,2.3-2.3,3.51-3.4c3.46-3.16,7.27-5.79,11.66-7.54c1.88,14.17,13.99,25.09,28.67,25.09c5.1,0,9.9-1.33,14.06-3.65
		C153.87,72.74,151.4,86.03,140.87,97.31z M135.99,56.06c-12.79,0-23.15-10.36-23.15-23.15S123.2,9.76,135.99,9.76
		s23.15,10.36,23.15,23.15S148.78,56.06,135.99,56.06z"/>
</g>
</svg>
