<?xml version="1.0" encoding="utf-8"?>
<!-- Generator: Adobe Illustrator 25.0.0, SVG Export Plug-In . SVG Version: 6.00 Build 0)  -->
<svg version="1.1" id="Layer_1" xmlns="http://www.w3.org/2000/svg" xmlns:xlink="http://www.w3.org/1999/xlink" x="0px" y="0px"
	 viewBox="0 0 110 110" style="enable-background:new 0 0 110 110;" xml:space="preserve">
<style type="text/css">
	.st0{fill:#185AE9;}
	.st1{fill:#00B0FB;}
	.st2{fill:#00B0FB;fill-opacity:0.4;}
	.st3{fill:#FFFFFF;}
	.st4{fill:#3C7CFF;}
	.st5{fill:#3C7CFF;stroke:#001135;stroke-width:0.7602;stroke-miterlimit:10;}
	.st6{fill:#001135;}
	.st7{fill:#0A0A0A;}
	.st8{fill:#DBDBDB;}
	.st9{fill:#FDFDFD;}
	.st10{fill:#030303;}
	.st11{fill:none;}
	.st12{fill:#010101;}
	.st13{fill:#020202;}
	.st14{fill:#181818;}
	.st15{fill:#1C1C1C;}
	.st16{fill:#171717;}
	.st17{fill:#090909;}
	.st18{fill:#060606;}
	.st19{fill:#070707;}
	.st20{fill:#191919;}
	.st21{fill:#FBFBFB;}
	.st22{fill:#FCFCFC;}
	.st23{fill:#050505;}
	.st24{fill:#0B0B0B;}
	.st25{fill:#040404;}
	.st26{fill:#FAFAFA;}
	.st27{fill:#FBFAFB;}
	.st28{fill:#0C0C0C;}
</style>
<g>
	<path class="st3" d="M20.04,104.44v2.8c0,0.28,0.22,0.5,0.5,0.5h61.43c0.28,0,0.5-0.22,0.5-0.5v-2.8c0-1.81-1.47-3.29-3.29-3.29
		H23.33C21.51,101.16,20.04,102.63,20.04,104.44z"/>
	<path class="st3" d="M6.1,79.11c-2.12,0-3.84,1.73-3.84,3.85s1.72,3.85,3.84,3.85c2.12,0,3.84-1.73,3.84-3.85S8.21,79.11,6.1,79.11
		z"/>
	<path class="st3" d="M75.51,93.65H27c-1.44,0-2.62,1.18-2.62,2.63c0,1.45,1.17,2.63,2.62,2.63h48.5c1.44,0,2.62-1.18,2.62-2.63
		C78.12,94.82,76.95,93.65,75.51,93.65z"/>
	<path class="st3" d="M21.3,61.47c-2.12,0-3.84,1.73-3.84,3.85s1.72,3.85,3.84,3.85c1.02,0,1.99-0.4,2.71-1.13
		c0.73-0.73,1.12-1.69,1.12-2.72C25.14,63.2,23.42,61.47,21.3,61.47z"/>
	<path class="st4" d="M28.88,91.39h44.24c0.16,0,0.31-0.08,0.41-0.21c0.09-0.13,0.12-0.3,0.07-0.45
		c-2.66-8.07-1.55-15.89-0.11-22.47c0.24-1.1,0.48-2.15,0.74-3.2l2.69-11.53c1.01-5.23,1.31-9.55,0.94-13.61
		c-0.67-7.39-4.35-13.82-10.94-19.12c-5-4.02-9.88-5.84-9.93-5.86c-0.44-0.16-0.74-0.59-0.74-1.06c0-4.63-1.89-7.97-5.61-9.92
		c-1.49-0.78-2.98-1.18-3.96-1.37c-0.03-0.01-0.06-0.01-0.1-0.01c-0.12,0-0.23,0.04-0.32,0.11c-0.12,0.09-0.18,0.24-0.18,0.39v10.76
		c0,0.48-0.3,0.9-0.75,1.06c-7.47,2.65-11.44,10.31-14.07,15.38c-0.24,0.47-0.49,0.94-0.74,1.41c-1.29,2.42-3.19,4.02-5.02,5.57
		c-2.14,1.8-4.16,3.5-5.32,6.48c-0.73,1.88-0.46,3.8,0.8,5.72c1.69,2.58,4.44,4.03,5.77,4.08c0,0,0,0,0,0
		c1.63,0,3.51-1.42,5.17-2.67c1.42-1.07,2.74-2.07,3.98-2.33c0.23-0.05,0.48-0.08,0.72-0.08c1.25,0,2.52,0.66,3.75,1.29
		c1.45,0.75,2.94,1.52,4.59,1.52c0.18,0,0.37-0.01,0.55-0.03c3.57-0.39,6.9-3.39,7.04-3.52c0.21-0.2,0.44-0.3,0.71-0.3
		c0.37,0,0.75,0.19,0.98,0.5c0.14,0.18,0.28,0.48,0.18,0.88c-0.16,0.69-4.1,16.75-18.93,28.38c-6.14,4.82-7.02,11.19-7.11,13.71
		c-0.01,0.14,0.05,0.27,0.14,0.37C28.62,91.33,28.75,91.39,28.88,91.39z"/>
	<path class="st6" d="M86.56,26.55c-1.9-4.08-4.31-7.74-7.17-10.89c-0.29-0.31-0.67-0.71-1.1-1.17l-0.18-0.18
		c-0.23-0.24-0.47-0.48-0.71-0.7c-0.01-0.01-0.08-0.1-0.09-0.1c-1.91-1.9-3.38-3.13-4.37-3.66c-0.04-0.02-0.08-0.03-0.12-0.04
		c-0.14-0.03-0.26-0.09-0.37-0.16c-5.14-3.47-11.12-5.76-17.79-6.8c-0.03,0-0.05-0.01-0.08-0.01c-0.19,0-0.37,0.11-0.45,0.29
		c-0.09,0.2-0.04,0.44,0.12,0.59c2.56,2.23,3.97,5.29,4.19,9.08c0.01,0.19,0.13,0.35,0.3,0.43c1.87,0.81,5.6,2.64,9.48,5.74
		c7.04,5.63,11.14,12.8,11.86,20.75c0.65,7.12-0.76,13.82-2.13,19.54l-2.1,8.66c-1.5,6.6-2.58,13.72-0.46,21.05
		c0.06,0.19,0.22,0.33,0.41,0.36c0.02,0,0.04,0,0.07,0c0.17,0,0.33-0.09,0.43-0.24c2.11-3.45,6.13-10.54,9.3-19.2
		c2.71-7.39,4.29-14.5,4.72-21.11C90.86,40.56,89.59,33.09,86.56,26.55z"/>
	<path class="st3" d="M93.97,80.35c-2.12,0-3.84,1.73-3.84,3.85s1.72,3.85,3.84,3.85c2.12,0,3.84-1.73,3.84-3.85
		S96.08,80.35,93.97,80.35z"/>
	<ellipse class="st3" cx="103.9" cy="63.82" rx="3.84" ry="3.85"/>
	<path class="st6" d="M103.9,57.71c-3.36,0-6.1,2.74-6.1,6.11c0,1.94,0.89,3.72,2.45,4.89c0.2,0.15,0.26,0.42,0.14,0.64l-4.68,8.61
		c-0.09,0.16-0.26,0.26-0.44,0.26c-0.03,0-0.07,0-0.1-0.01c-0.4-0.08-0.8-0.12-1.21-0.12c-0.95,0-1.89,0.23-2.74,0.65
		c-0.07,0.04-0.15,0.05-0.23,0.05c-0.12,0-0.24-0.04-0.34-0.13l-4.19-3.84c-0.15-0.14-0.2-0.36-0.12-0.56
		c0.47-1.16,0.93-2.35,1.37-3.53c2.79-7.61,4.43-14.93,4.88-21.77c0.56-8.61-0.78-16.47-3.98-23.37c-1.77-3.81-3.98-7.29-6.56-10.34
		c-0.02-0.02-0.03-0.04-0.05-0.07l-0.35-0.4c-4.12-4.74-7.72-6.93-8.22-7.22c-0.03-0.01-0.06-0.03-0.09-0.05
		C63.43,0.98,52.94,0,47.57,0c-1.5,0-2.45,0.08-2.72,0.1c-0.56,0.03-1.05,0.55-1.04,1.13v11.5c0,0.2-0.12,0.38-0.3,0.46
		c-7.63,3.26-11.78,11.27-14.27,16.06c-0.24,0.46-0.48,0.92-0.72,1.38c-1.09,2.04-2.74,3.43-4.48,4.9c-2.16,1.82-4.6,3.88-5.96,7.39
		c-0.98,2.52-0.62,5.28,1.01,7.77c1.84,2.81,5.1,5,7.57,5.1l0.19,0c2.28,0,4.49-1.66,6.45-3.14c1.36-1.03,2.38-1.77,3.08-1.92
		c0.08-0.02,0.16-0.03,0.25-0.03c0.69,0,1.72,0.53,2.71,1.04c1.53,0.79,3.43,1.77,5.62,1.77c0.26,0,0.53-0.01,0.8-0.04
		c1.35-0.15,2.79-0.6,4.27-1.35c0.07-0.04,0.15-0.05,0.23-0.05c0.12,0,0.24,0.04,0.34,0.13c0.15,0.14,0.2,0.36,0.13,0.55
		c-1.96,4.94-6.58,14.34-15.63,21.83c-0.09,0.08-0.21,0.11-0.32,0.11c-0.11,0-0.21-0.03-0.3-0.1l-7.63-5.81
		c-0.19-0.15-0.25-0.42-0.14-0.63c0.46-0.87,0.7-1.85,0.7-2.84c0-3.37-2.74-6.11-6.1-6.11s-6.1,2.74-6.1,6.11
		c0,1.09,0.29,2.16,0.85,3.1c0.1,0.17,0.09,0.39-0.02,0.55l-6.18,8.59c-0.1,0.14-0.25,0.21-0.41,0.21c-0.09,0-0.17-0.02-0.25-0.07
		c-0.93-0.55-2-0.85-3.09-0.85c-3.36,0-6.1,2.74-6.1,6.11s2.74,6.11,6.1,6.11c3.36,0,6.1-2.74,6.1-6.11c0-1.09-0.29-2.16-0.85-3.1
		c-0.1-0.17-0.09-0.39,0.02-0.55l6.18-8.59c0.1-0.14,0.25-0.21,0.41-0.21c0.09,0,0.17,0.02,0.25,0.07c0.93,0.55,2,0.85,3.1,0.85
		c1.2,0,2.36-0.35,3.36-1.02c0.08-0.06,0.18-0.08,0.28-0.08c0.11,0,0.21,0.03,0.3,0.1l7.26,5.53c0.12,0.09,0.19,0.23,0.2,0.37
		c0.01,0.15-0.05,0.29-0.16,0.39c-5.43,5.12-6.36,11.2-6.43,14.37c-0.01,0.22-0.16,0.41-0.37,0.47c-2.13,0.57-3.62,2.51-3.62,4.72
		c0,0.71,0.15,1.4,0.45,2.04c0.06,0.14,0.06,0.3-0.01,0.44c-0.07,0.14-0.2,0.23-0.35,0.26c-2.57,0.52-4.44,2.81-4.44,5.43v4.43
		c0,0.62,0.51,1.13,1.13,1.13H83.6c0.62,0,1.13-0.51,1.13-1.13v-4.43c0-2.63-1.87-4.91-4.44-5.43c-0.15-0.03-0.28-0.13-0.35-0.26
		c-0.07-0.14-0.07-0.3-0.01-0.44c0.29-0.63,0.45-1.34,0.45-2.04c0-1.8-0.98-3.44-2.57-4.3c-0.12-0.07-0.21-0.18-0.25-0.31
		c-0.03-0.13-0.01-0.28,0.06-0.39c1.51-2.39,4.47-7.36,7.36-13.84c0.07-0.15,0.2-0.25,0.35-0.29c0.03-0.01,0.07-0.01,0.1-0.01
		c0.12,0,0.24,0.05,0.34,0.13l3.08,2.83c0.18,0.17,0.22,0.45,0.07,0.65c-0.7,1.02-1.08,2.21-1.07,3.46c0,3.37,2.74,6.11,6.1,6.11
		s6.1-2.74,6.1-6.11c0-1.8-0.79-3.51-2.18-4.68c-0.18-0.15-0.23-0.41-0.12-0.62l4.78-8.78c0.09-0.16,0.26-0.26,0.44-0.26
		c0.02,0,0.05,0,0.07,0c0.28,0.04,0.56,0.06,0.85,0.06c3.36,0,6.1-2.74,6.1-6.11C110,60.45,107.26,57.71,103.9,57.71z M6.1,86.81
		c-2.12,0-3.84-1.73-3.84-3.85s1.72-3.85,3.84-3.85c2.12,0,3.84,1.73,3.84,3.85S8.21,86.81,6.1,86.81z M24.02,68.04
		c-0.73,0.73-1.69,1.13-2.71,1.13c-2.12,0-3.84-1.73-3.84-3.85s1.72-3.85,3.84-3.85c2.12,0,3.84,1.73,3.84,3.85
		C25.14,66.35,24.74,67.31,24.02,68.04z M35.5,77.16c14.83-11.63,18.77-27.69,18.93-28.38c0.11-0.4-0.04-0.7-0.18-0.88
		c-0.23-0.3-0.62-0.5-0.98-0.5c-0.27,0-0.5,0.1-0.71,0.3c-0.14,0.13-3.48,3.13-7.04,3.52c-0.19,0.02-0.37,0.03-0.55,0.03
		c-1.65,0-3.15-0.77-4.59-1.52c-1.23-0.63-2.5-1.29-3.75-1.29c-0.25,0-0.49,0.03-0.72,0.08c-1.23,0.27-2.56,1.27-3.98,2.33
		c-1.66,1.25-3.55,2.67-5.17,2.67c0,0,0,0,0,0c-1.33-0.05-4.08-1.5-5.77-4.08c-1.26-1.92-1.53-3.84-0.8-5.72
		c1.15-2.97,3.18-4.68,5.32-6.48c1.83-1.55,3.73-3.14,5.02-5.57c0.25-0.47,0.49-0.94,0.74-1.41c2.63-5.07,6.61-12.73,14.07-15.38
		c0.45-0.16,0.75-0.59,0.75-1.06V3.08c0-0.15,0.07-0.29,0.18-0.39c0.09-0.07,0.2-0.11,0.32-0.11c0.03,0,0.06,0,0.1,0.01
		c0.98,0.19,2.47,0.58,3.96,1.37c3.72,1.95,5.61,5.29,5.61,9.92c0,0.47,0.3,0.9,0.74,1.06c0.05,0.02,4.94,1.84,9.93,5.86
		c6.59,5.3,10.27,11.74,10.94,19.12c0.37,4.06,0.07,8.38-0.94,13.61l-2.69,11.53c-0.25,1.05-0.5,2.1-0.74,3.2
		c-1.44,6.59-2.54,14.41,0.11,22.47c0.05,0.15,0.02,0.32-0.07,0.45c-0.09,0.13-0.24,0.21-0.41,0.21H28.88
		c-0.14,0-0.27-0.06-0.36-0.15c-0.09-0.1-0.15-0.23-0.14-0.37C28.47,88.35,29.35,81.98,35.5,77.16z M79.18,101.16
		c1.81,0,3.29,1.47,3.29,3.29v2.8c0,0.28-0.22,0.5-0.5,0.5H20.54c-0.28,0-0.5-0.22-0.5-0.5v-2.8c0-1.81,1.47-3.29,3.29-3.29H79.18z
		 M78.12,96.27c0,1.45-1.17,2.63-2.62,2.63H27c-1.44,0-2.62-1.18-2.62-2.63c0-1.45,1.17-2.63,2.62-2.63h48.5
		C76.95,93.65,78.12,94.82,78.12,96.27z M85.61,69.89c-3.17,8.67-7.19,15.75-9.3,19.2c-0.09,0.15-0.25,0.24-0.43,0.24
		c-0.02,0-0.04,0-0.07,0c-0.2-0.03-0.36-0.17-0.41-0.36c-2.12-7.33-1.03-14.45,0.46-21.05l2.1-8.66c1.37-5.72,2.78-12.42,2.13-19.54
		c-0.72-7.94-4.82-15.11-11.86-20.75c-3.88-3.11-7.6-4.93-9.48-5.74c-0.17-0.08-0.29-0.24-0.3-0.43C58.24,9,56.82,5.95,54.26,3.72
		c-0.17-0.15-0.22-0.39-0.12-0.59c0.08-0.18,0.26-0.29,0.45-0.29c0.03,0,0.05,0,0.08,0.01c6.67,1.04,12.65,3.32,17.79,6.8
		c0.1,0.07,0.22,0.12,0.37,0.16c0.04,0.01,0.08,0.02,0.12,0.04c0.99,0.53,2.46,1.76,4.37,3.66c0.01,0.01,0.08,0.09,0.09,0.1
		c0.24,0.23,0.48,0.47,0.71,0.7l0.18,0.18c0.44,0.45,0.82,0.86,1.1,1.17c2.86,3.14,5.27,6.8,7.17,10.89
		c3.03,6.54,4.31,14.02,3.78,22.23C89.91,55.39,88.32,62.49,85.61,69.89z M97.81,84.2c0,2.12-1.72,3.85-3.84,3.85
		c-2.12,0-3.84-1.73-3.84-3.85s1.72-3.85,3.84-3.85C96.08,80.35,97.81,82.07,97.81,84.2z M103.9,67.67c-2.12,0-3.84-1.73-3.84-3.85
		s1.72-3.85,3.84-3.85s3.84,1.73,3.84,3.85S106.02,67.67,103.9,67.67z"/>
</g>
</svg>
