<?xml version="1.0" encoding="utf-8"?>
<!-- Generator: Adobe Illustrator 25.0.0, SVG Export Plug-In . SVG Version: 6.00 Build 0)  -->
<svg version="1.1" id="Layer_1" xmlns="http://www.w3.org/2000/svg" xmlns:xlink="http://www.w3.org/1999/xlink" x="0px" y="0px"
	 viewBox="0 0 85.23 127.09" style="enable-background:new 0 0 85.23 127.09;" xml:space="preserve">
<style type="text/css">
	.st0{fill:#FFFFFF;}
	.st1{fill:#001135;}
	.st2{fill:#3C7CFF;}
	.st3{fill:#185AE9;}
	.st4{fill:#00B0FB;}
	.st5{fill:#00D8FF;}
	.st6{fill:#B3B3B3;}
	.st7{fill:#A6120D;}
	.st8{fill:#DD1B16;}
	.st9{fill:#F2F2F2;}
	.st10{fill:#4DBA87;}
	.st11{fill:#425466;}
	.st12{fill-rule:evenodd;clip-rule:evenodd;fill:#7FC728;}
	.st13{fill:url(#SVGID_1_);}
	.st14{fill:url(#SVGID_2_);}
	.st15{fill:#14559A;}
	.st16{fill:url(#SVGID_3_);}
	.st17{fill:#3092C4;}
	.st18{fill:#1969BC;}
	.st19{fill:url(#SVGID_4_);}
	.st20{fill:url(#SVGID_5_);}
	.st21{fill:url(#SVGID_6_);}
	.st22{fill:#2B74B1;}
	.st23{fill:#125A9E;}
	.st24{fill:url(#SVGID_7_);}
	.st25{fill:url(#SVGID_8_);}
	.st26{fill:#0D82CA;}
	.st27{fill:url(#SVGID_9_);}
	.st28{fill:#127BCA;}
	.st29{fill:url(#SVGID_10_);}
	.st30{fill:url(#SVGID_11_);}
	.st31{fill:#05A1E6;}
	.st32{fill:url(#SVGID_12_);}
	.st33{fill:url(#SVGID_13_);}
	.st34{fill:url(#SVGID_14_);}
	.st35{fill:#079AE1;}
	.st36{fill:#1E5CB3;}
	.st37{fill:#1D60B5;}
	.st38{fill:#175FAB;}
	.st39{fill:url(#SVGID_15_);}
	.st40{fill:#7DCBEC;}
	.st41{fill:#5EC5ED;}
	.st42{fill:url(#SVGID_16_);}
	.st43{fill:url(#SVGID_17_);}
	.st44{fill:url(#SVGID_18_);}
	.st45{fill:#6EB341;}
	.st46{fill:#F6F6F6;}
	.st47{fill:none;}
</style>
<g>
	<path class="st0" d="M44.76,46.26c0,0-0.09,0-0.09,0c-0.22,0-0.4,0.18-0.4,0.4l0,1.6c-0.01,1.59-0.01,3.21,0.05,4.81
		c0.01,0.56,0.56,1.29,1.08,1.44c4.22,1.29,6.83,4.09,7.97,8.54c0.05,0.18,0.21,0.3,0.39,0.3h7.33c0.11,0,0.21-0.04,0.29-0.12
		c0.08-0.08,0.12-0.19,0.11-0.29C61.24,54.68,52.8,46.26,44.76,46.26z"/>
	<path class="st0" d="M61.04,66.81l-7.29,0c-0.18,0-0.34,0.12-0.39,0.3c-1.7,6.51-6.85,8.81-10.75,8.81c-1.25,0-2.47-0.21-3.63-0.63
		c-4.35-1.56-7.29-5.67-7.3-10.21c-0.01-4.58,2.98-8.72,7.44-10.3c1.14-0.41,1.7-0.84,1.73-1.32c0.1-1.74,0.09-3.52,0.08-5.24
		c0-0.58-0.01-1.14-0.01-1.7c0-0.11-0.05-0.22-0.13-0.3c-0.07-0.07-0.17-0.1-0.27-0.1c0,0-0.02,0-0.02,0
		c-10.28,1.11-17.74,10.13-17,20.55c0.71,10.01,9.09,17.55,19.48,17.55c0.33,0,0.65-0.01,0.98-0.02c8.98-0.42,17.64-8.84,17.48-17
		C61.44,66.99,61.26,66.81,61.04,66.81z"/>
	<path class="st0" d="M35.08,65.1c0.02,4.2,3.33,7.49,7.54,7.49c4.2-0.04,7.52-3.32,7.55-7.47c0.01-2.02-0.75-3.92-2.16-5.34
		c-1.42-1.43-3.33-2.23-5.38-2.23h0c-2.06,0-3.97,0.78-5.39,2.21C35.84,61.17,35.07,63.07,35.08,65.1z"/>
	<path class="st2" d="M81.72,30.77c-0.36-2.68-2.37-4.75-4.77-4.91c-1.17-0.08-2.43-0.12-3.98-0.12c-0.94,0-1.89,0.01-2.85,0.03
		l-0.2,0c-0.96,0.01-1.93,0.03-2.92,0.03c-0.22,0-0.4,0.18-0.4,0.4l0.01,1.86c0.01,1.45,0.01,2.76-0.02,4.08
		c-0.04,1.87-0.5,2.36-2.27,2.37c-7.22,0.01-14.45,0.02-21.68,0.02s-14.45,0-21.68-0.02c-1.81,0-2.29-0.47-2.32-2.3
		c-0.02-1.27-0.01-2.54-0.01-3.89l0.01-2.23c0-0.22-0.18-0.4-0.4-0.4h-7.13c-5.68,0-7.69,1.99-7.69,7.59l0,83.35
		c0,0.48,0,0.95,0.02,1.43c0.22,3.37,2.56,5.63,5.83,5.63c11.1,0.01,22.2,0.02,33.3,0.02s22.2-0.01,33.3-0.02
		c3.38,0,5.7-2.25,5.92-5.74c0.02-0.37,0.02-0.74,0.02-1.12l0-84.04C81.81,32.13,81.81,31.45,81.72,30.77z M65.13,65.7
		c-0.45,12.09-10.49,21.92-22.38,21.92c-0.29,0-0.58-0.01-0.86-0.02c-6.07-0.24-11.7-2.85-15.86-7.36
		c-4.05-4.39-6.15-10.01-5.91-15.83c0.5-12.08,10.45-21.9,22.17-21.9c0.29,0,0.58,0.01,0.87,0.02
		C55.72,43.05,65.58,53.44,65.13,65.7z"/>
	<path class="st1" d="M22.46,31.04h40.31c0.22,0,0.4-0.18,0.4-0.4V17.4c0-0.22-0.18-0.4-0.4-0.4l-6.84,0l-3.37,0
		c-2.23-0.01-2.68-0.47-2.72-2.74c-0.01-0.47,0-0.93,0-1.4c0.01-0.77,0.01-1.55-0.03-2.32c-0.25-4.29-3.13-7.18-7.17-7.18
		c-4.09,0.01-6.98,2.9-7.2,7.19c-0.04,0.76-0.03,1.53-0.03,2.29c0,0.48,0.01,0.95,0,1.42c-0.05,2.26-0.51,2.72-2.75,2.73l-3.37,0
		l-6.83,0c-0.22,0-0.4,0.18-0.4,0.4v13.24C22.06,30.86,22.24,31.04,22.46,31.04z M30.04,22.89c0.33-0.34,0.93-0.5,1.87-0.5
		c1.68,0.01,3.36,0.01,5.04,0.01h10.46c1.65,0,3.3,0,4.95-0.01c1.91,0,2.31,0.62,2.32,1.62c0.01,0.53-0.12,0.92-0.37,1.18
		c-0.33,0.34-0.91,0.5-1.82,0.5h-0.05c-2.91-0.01-5.82-0.01-8.73-0.01c-3.9,0-7.8,0.01-11.71,0.01c-1.72,0-2.31-0.41-2.32-1.61
		C29.66,23.54,29.79,23.15,30.04,22.89z"/>
	<path class="st1" d="M82.25,25.04c-1.75-1.76-4.1-2.69-6.81-2.69c-0.29,0-0.59,0.01-0.9,0.03c-0.82,0.06-1.71,0.09-2.78,0.09
		c-0.76,0-1.53-0.01-2.31-0.03c-0.8-0.01-1.61-0.03-2.43-0.03c-0.22,0-0.4-0.18-0.4-0.4l0-2.03c0-1.17,0-2.25,0-3.33
		c-0.01-2.74-0.29-3.02-2.98-3.03c-1.1,0-2.2,0-3.29,0l-6.46,0c-0.2,0-0.36-0.14-0.39-0.34c-0.12-0.74-0.2-1.48-0.27-2.2
		c-0.16-1.52-0.31-2.96-0.86-4.19c-0.9-2.05-2.29-3.85-3.83-4.95c-1.69-1.21-4.08-1.71-5.79-1.91C42.46,0.02,42.18,0,41.9,0
		c-1.95,0-3.94,0.79-5.89,2.34c-2.99,2.39-4.24,5.74-3.93,10.56c0.01,0.17-0.09,0.33-0.25,0.4c-0.11,0.05-0.2,0.09-0.27,0.12
		c-0.14,0.07-0.26,0.13-0.42,0.13l-3.87,0.02c-2.1,0.01-4.2,0.02-6.29,0.04c-1.83,0.02-2.29,0.47-2.32,2.3
		c-0.03,1.32-0.02,2.64-0.02,4.1l0.01,1.98c0,0.22-0.18,0.4-0.4,0.4c-0.89,0-1.75,0.01-2.59,0.03c-0.79,0.01-1.57,0.02-2.33,0.02
		c-1.11,0-2.03-0.03-2.87-0.08c-0.26-0.02-0.51-0.02-0.76-0.02c-2.65,0-4.99,0.93-6.74,2.7C1.03,26.96-0.01,29.75,0,32.88
		c0.1,20.63,0.08,41.6,0.07,61.9c0,7.23-0.01,14.46-0.01,21.69c0,6.95,3.71,10.62,10.73,10.62h63.68c7.09,0,10.69-3.58,10.69-10.65
		c0-7.35-0.01-14.69-0.01-22.1v-0.17c-0.02-20.03-0.03-40.75,0.08-61.12C85.25,29.84,84.19,27,82.25,25.04z M22.06,17.4
		c0-0.22,0.18-0.4,0.4-0.4l6.83,0l3.37,0c2.24-0.01,2.71-0.47,2.75-2.73c0.01-0.47,0-0.95,0-1.42c0-0.76-0.01-1.53,0.03-2.29
		c0.22-4.29,3.11-7.18,7.2-7.19c4.04,0,6.92,2.88,7.17,7.18c0.04,0.77,0.04,1.55,0.03,2.32c0,0.47-0.01,0.93,0,1.4
		c0.04,2.27,0.49,2.73,2.72,2.74l3.37,0l6.84,0c0.22,0,0.4,0.18,0.4,0.4v13.24c0,0.22-0.18,0.4-0.4,0.4H22.46
		c-0.22,0-0.4-0.18-0.4-0.4V17.4z M81.79,117.95c-0.22,3.49-2.54,5.74-5.92,5.74c-11.1,0.01-22.2,0.02-33.3,0.02
		s-22.2-0.01-33.3-0.02c-3.27,0-5.61-2.26-5.83-5.63c-0.02-0.48-0.02-0.95-0.02-1.43l0-83.35c0-5.6,2.01-7.59,7.69-7.59h7.13
		c0.22,0,0.4,0.18,0.4,0.4l-0.01,2.23c-0.01,1.36-0.01,2.63,0.01,3.89c0.04,1.83,0.51,2.3,2.32,2.3c7.22,0.01,14.45,0.02,21.68,0.02
		s14.46,0,21.68-0.02c1.77-0.01,2.24-0.5,2.27-2.37c0.03-1.32,0.02-2.64,0.02-4.08L66.6,26.2c0-0.22,0.18-0.4,0.4-0.4
		c0.99,0,1.96-0.01,2.92-0.03l0.2,0c0.96-0.01,1.91-0.03,2.85-0.03c1.55,0,2.82,0.04,3.98,0.12c2.4,0.16,4.41,2.23,4.77,4.91
		c0.1,0.67,0.1,1.36,0.09,2.02l0,84.04C81.81,117.21,81.81,117.58,81.79,117.95z"/>
	<path class="st1" d="M43.15,42.53c-0.29-0.01-0.58-0.02-0.87-0.02c-11.72,0-21.66,9.83-22.17,21.9
		c-0.24,5.82,1.86,11.44,5.91,15.83c4.15,4.5,9.79,7.12,15.86,7.36c0.29,0.01,0.58,0.02,0.86,0.02c11.89,0,21.93-9.83,22.38-21.92
		C65.58,53.44,55.72,43.05,43.15,42.53z M42.63,57.55L42.63,57.55c2.05,0,3.96,0.8,5.38,2.23c1.41,1.42,2.17,3.32,2.16,5.34
		c-0.03,4.14-3.35,7.42-7.55,7.47c-4.2,0-7.52-3.29-7.54-7.49c-0.01-2.04,0.76-3.93,2.17-5.35C38.66,58.33,40.57,57.55,42.63,57.55z
		 M43.96,84.2c-0.33,0.01-0.65,0.02-0.98,0.02c-10.39,0-18.76-7.55-19.48-17.55c-0.74-10.42,6.71-19.44,17-20.55c0,0,0.02,0,0.02,0
		c0.1,0,0.19,0.04,0.27,0.1c0.09,0.08,0.13,0.18,0.13,0.3c0,0.56,0,1.11,0.01,1.7c0.01,1.72,0.02,3.5-0.08,5.24
		c-0.03,0.47-0.59,0.9-1.73,1.32c-4.46,1.58-7.45,5.72-7.44,10.3c0.01,4.54,2.94,8.65,7.3,10.21c1.16,0.42,2.38,0.63,3.63,0.63
		c3.9,0,9.05-2.31,10.75-8.81c0.05-0.18,0.21-0.3,0.39-0.3l7.29,0c0.22,0,0.4,0.18,0.4,0.39C61.59,75.36,52.93,83.78,43.96,84.2z
		 M61.37,63.23c-0.08,0.08-0.18,0.12-0.29,0.12h-7.33c-0.18,0-0.34-0.12-0.39-0.3c-1.14-4.45-3.75-7.25-7.97-8.54
		c-0.52-0.15-1.07-0.88-1.08-1.44c-0.06-1.6-0.05-3.22-0.05-4.81l0-1.6c0-0.22,0.18-0.4,0.4-0.4c0,0,0.09,0,0.09,0
		c8.04,0,16.48,8.42,16.72,16.68C61.48,63.04,61.44,63.15,61.37,63.23z"/>
	<path class="st0" d="M31.99,25.69c3.91-0.01,7.81-0.01,11.71-0.01c2.91,0,5.82,0,8.73,0.01h0.05c0.91,0,1.49-0.16,1.82-0.5
		c0.26-0.26,0.38-0.65,0.37-1.18c-0.01-1-0.4-1.62-2.32-1.62c-1.65,0.01-3.3,0.01-4.95,0.01H36.95c-1.68,0-3.36,0-5.04-0.01
		c-0.94,0-1.53,0.16-1.87,0.5c-0.26,0.26-0.38,0.65-0.37,1.19C29.68,25.28,30.27,25.69,31.99,25.69z"/>
</g>
</svg>
