<?xml version="1.0" encoding="utf-8"?>
<!-- Generator: Adobe Illustrator 25.0.0, SVG Export Plug-In . SVG Version: 6.00 Build 0)  -->
<svg version="1.1" id="Layer_1" xmlns="http://www.w3.org/2000/svg" xmlns:xlink="http://www.w3.org/1999/xlink" x="0px" y="0px"
	 viewBox="0 0 86.13 127.9" style="enable-background:new 0 0 86.13 127.9;" xml:space="preserve">
<style type="text/css">
	.st0{fill:#001135;}
	.st1{fill:#FFFFFF;}
	.st2{fill:#3C7CFF;}
	.st3{fill:#185AE9;}
	.st4{fill:#00B0FB;}
	.st5{fill-rule:evenodd;clip-rule:evenodd;fill:#00B0FB;}
	.st6{fill:#061639;}
	.st7{fill:#1429FF;}
	.st8{fill:#663398;}
	.st9{fill:#FEFEFE;}
	.st10{fill:#8DB849;}
	.st11{fill:#5A863E;}
	.st12{fill:#FFFFFE;}
	.st13{fill-rule:evenodd;clip-rule:evenodd;fill:#7FC728;}
	.st14{fill:#B3B3B3;}
	.st15{fill:#A6120D;}
	.st16{fill:#DD1B16;}
	.st17{fill:#F2F2F2;}
	.st18{fill:#8F9ED1;}
	.st19{fill:#030303;}
	.st20{fill:#0E0E0D;}
	.st21{fill:#8F8F90;}
	.st22{fill:#DBDBDB;}
	.st23{fill:#FDFDFD;}
	.st24{fill:#FDFCFD;}
	.st25{fill:#010101;}
	.st26{fill:#FCB415;}
	.st27{opacity:0.2;fill:#FFFFFF;enable-background:new    ;}
	.st28{fill:#68B345;}
	.st29{fill:#0A99D6;}
	.st30{opacity:0.1;fill:#010101;enable-background:new    ;}
	.st31{fill:#EE3325;}
	.st32{fill:url(#SVGID_1_);}
	.st33{fill:#FF2D20;}
	.st34{clip-path:url(#SVGID_2_);fill:#F9C638;}
	.st35{fill:#2A2D2C;}
	.st36{fill:#F9C638;}
	.st37{fill:#833CF7;}
	.st38{fill:none;}
	.st39{fill:#0A0A0A;}
	.st40{fill:#050505;}
	.st41{fill:#2A2A2A;}
	.st42{fill:#000100;}
	.st43{fill:#FBFBFB;}
	.st44{fill:#070707;}
	.st45{fill:#080808;}
	.st46{fill:#F7F7F7;}
	.st47{fill:#0B0B0B;}
	.st48{fill:#F1F0F1;}
	.st49{fill:#F4F4F4;}
	.st50{fill:#0C0C0C;}
	.st51{fill:#ECECEC;}
	.st52{fill:#252525;}
	.st53{fill:#D5D5D5;}
	.st54{fill:#3F3F3F;}
	.st55{fill:#818181;}
	.st56{fill:#A2A2A2;}
	.st57{fill:#040404;}
	.st58{fill:#151515;}
	.st59{fill:#343434;}
	.st60{fill:#4B4B4B;}
	.st61{fill:#0D0D0D;}
	.st62{fill:#00D8FF;}
	.st63{fill:#4DBA87;}
	.st64{fill:#425466;}
	.st65{fill:url(#SVGID_3_);}
	.st66{fill:url(#SVGID_4_);}
	.st67{fill:#14559A;}
	.st68{fill:url(#SVGID_6_);}
	.st69{fill:#3092C4;}
	.st70{fill:#1969BC;}
	.st71{fill:url(#SVGID_7_);}
	.st72{fill:url(#SVGID_8_);}
	.st73{fill:url(#SVGID_9_);}
	.st74{fill:#2B74B1;}
	.st75{fill:#125A9E;}
	.st76{fill:url(#SVGID_10_);}
	.st77{fill:url(#SVGID_11_);}
	.st78{fill:#0D82CA;}
	.st79{fill:url(#SVGID_12_);}
	.st80{fill:#127BCA;}
	.st81{fill:url(#SVGID_13_);}
	.st82{fill:url(#SVGID_14_);}
	.st83{fill:#05A1E6;}
	.st84{fill:url(#SVGID_15_);}
	.st85{fill:url(#SVGID_16_);}
	.st86{fill:url(#SVGID_17_);}
	.st87{fill:#079AE1;}
	.st88{fill:#1E5CB3;}
	.st89{fill:#1D60B5;}
	.st90{fill:#175FAB;}
	.st91{fill:url(#SVGID_18_);}
	.st92{fill:#7DCBEC;}
	.st93{fill:#5EC5ED;}
	.st94{fill:url(#SVGID_19_);}
	.st95{fill:url(#SVGID_20_);}
	.st96{fill:url(#SVGID_21_);}
	.st97{fill:#6EB341;}
	.st98{fill:#F6F6F6;}
	.st99{fill:#060606;}
	.st100{fill:#101010;}
	.st101{fill:url(#SVGID_22_);}
	.st102{fill:url(#SVGID_23_);}
	.st103{fill:url(#SVGID_24_);}
	.st104{fill:url(#SVGID_25_);}
	.st105{fill:url(#SVGID_26_);}
	.st106{fill:url(#SVGID_27_);}
	.st107{fill:url(#SVGID_28_);}
	.st108{fill:url(#SVGID_29_);}
	.st109{fill:url(#SVGID_30_);}
	.st110{fill:url(#SVGID_31_);}
	.st111{fill:url(#SVGID_32_);}
	.st112{fill:url(#SVGID_33_);}
	.st113{fill:url(#SVGID_34_);}
	.st114{fill:url(#SVGID_35_);}
	.st115{fill:url(#SVGID_36_);}
	.st116{fill:url(#SVGID_37_);}
	.st117{fill:url(#SVGID_38_);}
	.st118{fill:url(#SVGID_39_);}
	.st119{fill-rule:evenodd;clip-rule:evenodd;fill:#5382A1;}
	.st120{fill-rule:evenodd;clip-rule:evenodd;fill:#E76F00;}
</style>
<g>
	<path class="st2" d="M63.9,12.24c-2.5,0-4.84,0.01-7.18,0c-2.54-0.01-2.7-0.18-2.75-2.77c-0.08-3.91-2.54-6.37-6.46-6.41
		c-2.82-0.03-5.64-0.01-8.46,0c-4.46,0.01-6.85,2.3-6.85,6.8c0,1.91-0.82,2.46-2.57,2.41c-2.46-0.08-4.92-0.02-7.46-0.02
		c-0.01,4.53-0.01,8.8-0.01,13.22c14.04,0,27.9,0,41.74,0C63.9,21,63.9,16.68,63.9,12.24z M43.1,15.54
		c-2.83,0.01-5.1-2.29-5.06-5.13c0.03-2.79,2.23-4.97,5.01-4.98c2.85-0.01,5.12,2.29,5.07,5.13C48.08,13.31,45.83,15.53,43.1,15.54z
		"/>
	<path class="st1" d="M42.76,8.18c-0.57,0.73-1.65,1.52-1.59,2.19c0.07,0.74,1.11,1.8,1.88,1.94c0.56,0.1,1.82-0.99,1.91-1.66
		c0.1-0.74-0.8-1.6-1.26-2.41C43.39,8.22,43.07,8.2,42.76,8.18z"/>
	<path class="st6" d="M67.29,20.47c3.16,0,6.11-0.01,9.05,0c2.55,0.01,2.89,0.35,2.89,2.92c0,31.13,0,62.26,0,93.39
		c0,2.55-0.26,2.81-2.73,2.81c-22.32,0-44.63,0-66.95,0c-2.35,0-2.63-0.29-2.63-2.7c-0.01-31.2-0.01-62.39,0-93.59
		c0-2.47,0.35-2.82,2.78-2.83c3.01-0.02,6.01,0,9.06,0c0-1.04,0-1.85,0-2.64c-5.29,0-10.42,0-15.53,0c0,35.72,0,71.26,0,106.87
		c26.62,0,53.13,0,79.65,0c0-35.72,0-71.3,0-106.87c-5.28,0-10.41,0-15.58,0C67.29,18.73,67.29,19.45,67.29,20.47z"/>
	<path class="st2" d="M65.78,38.86c-15.12,0.01-30.24,0.01-45.36,0c-4.83,0-7.11-2.32-7.13-7.19c-0.01-2.66,0-5.32,0-7.96
		c-1.28,0-2.24,0-3.25,0c0,30.99,0,61.82,0,92.78c22.03,0,43.98,0,66.03,0c0-30.97,0-61.85,0-92.83c-1.03,0-1.95,0-3.21,0
		c0,2.82,0.01,5.49,0,8.16C72.84,36.5,70.49,38.86,65.78,38.86z M42.94,105.43c-14.95-0.05-26.95-12.16-26.92-27.17
		c0.03-14.91,12.2-26.95,27.18-26.9c14.94,0.05,26.95,12.17,26.92,27.16C70.09,93.45,57.93,105.48,42.94,105.43z"/>
	<path class="st1" d="M43.04,72.61c-3.17,0.02-5.71,2.61-5.7,5.81c0.01,3.24,2.5,5.7,5.76,5.68c3.25-0.01,5.73-2.5,5.71-5.74
		C48.79,75.16,46.21,72.59,43.04,72.61z"/>
	<path class="st1" d="M43.1,54.4c-13.29-0.04-24.17,10.87-24.04,24.11c0.13,13.3,10.83,23.92,24.07,23.88
		c13.25-0.04,23.95-10.77,23.95-24C67.08,65.17,56.35,54.43,43.1,54.4z M60.7,80.33c-0.06,2.67-1.23,5.05-4,5.97
		c-2.64,0.9-5.05,0.36-6.84-2.16c-5.3,5.19-11.68,3.06-14.25-1.04c-1.99-3.18-1.81-7.04,0.44-10.01c2.25-2.96,6.01-4.21,9.51-3.17
		c3.56,1.06,6.03,4.19,6.31,8.02c0.07,0.94-0.02,1.9,0.14,2.81c0.25,1.42,0.65,2.88,2.48,2.92c1.86,0.04,3.07-1.16,3.04-2.83
		c-0.04-2.77-0.04-5.72-0.98-8.25c-2.26-6.11-9.27-9.91-15.39-8.89c-7.34,1.22-12.36,6.66-12.83,13.91
		c-0.43,6.62,3.88,12.96,10.33,14.9c3.08,0.92,6.23,0.88,9.32-0.18c0.06-0.02,0.12-0.07,0.18-0.09c1.09-0.39,2.34-0.95,2.89,0.59
		c0.55,1.56-0.83,1.93-1.88,2.3c-4.94,1.77-9.78,1.48-14.41-0.98c-7.34-3.89-10.84-11.8-8.99-20.13
		c1.57-7.06,8.43-12.92,15.64-13.35c8.64-0.51,15.9,4.03,18.45,11.93C60.64,75.02,60.76,77.75,60.7,80.33z"/>
	<path class="st1" d="M16.62,23.64c-0.11,0.3-0.2,0.42-0.2,0.54c-0.02,2.42-0.05,4.84-0.05,7.25c0,3.52,0.86,4.39,4.39,4.39
		c14.31,0.01,28.62,0,42.92,0c1.07,0,2.15,0.03,3.22-0.05c1.52-0.11,2.67-0.95,2.74-2.46c0.15-3.19,0.05-6.4,0.05-9.64
		c-0.9,0-1.59,0-2.38,0c-0.04,0.51-0.08,0.9-0.09,1.29c-0.08,3.77-0.12,3.82-3.87,3.82c-13.5,0-27,0-40.51,0
		c-3.85,0-3.85,0-3.94-3.94c-0.01-0.38-0.09-0.76-0.15-1.21C17.99,23.64,17.34,23.64,16.62,23.64z"/>
	<path class="st0" d="M83.83,14.65c-3.02,0.07-6.05,0.02-9.07,0.02c-2.46,0-4.93,0-7.55,0c0-0.99,0-1.72,0-2.45
		C67.2,9.54,66.88,9.21,64.2,9.2c-2.34-0.01-4.68,0-7.01,0c-0.14-0.46-0.24-0.7-0.28-0.96c-0.85-5.23-4.08-8.11-9.3-8.21
		c-3.09-0.05-6.18-0.02-9.27,0c-3.42,0.03-6.16,1.43-7.86,4.41C29.7,5.8,29.37,7.41,28.74,9.2c-2.17,0-4.57-0.01-6.97,0
		c-2.45,0.01-2.83,0.38-2.85,2.77c-0.01,0.8,0,1.6,0,2.7c-5.32,0-10.35,0-15.4,0C0,14.67,0,14.67,0,18.11c0,35.43,0,70.85,0,106.28
		c0,3.38,0.13,3.51,3.52,3.51c26.35,0,52.69,0,79.04,0c3.41,0,3.56-0.15,3.56-3.48c0-35.43,0-70.85,0-106.28c0-0.4-0.02-0.81,0-1.21
		C86.2,15.32,85.48,14.61,83.83,14.65z M22.17,12.25c2.54,0,5-0.06,7.46,0.02c1.75,0.05,2.57-0.5,2.57-2.41
		c0-4.5,2.39-6.79,6.85-6.8c2.82-0.01,5.64-0.03,8.46,0c3.92,0.04,6.38,2.5,6.46,6.41c0.05,2.59,0.21,2.76,2.75,2.77
		c2.34,0.01,4.68,0,7.18,0c0,4.44,0,8.76,0,13.23c-13.84,0-27.7,0-41.74,0C22.16,21.05,22.16,16.78,22.17,12.25z M22.84,28.78
		c13.51,0,27.01,0,40.51,0c3.75,0,3.79-0.05,3.87-3.82c0.01-0.39,0.05-0.78,0.09-1.29c0.79,0,1.48,0,2.38,0
		c0,3.24,0.1,6.45-0.05,9.64c-0.07,1.51-1.22,2.35-2.74,2.46c-1.07,0.08-2.15,0.05-3.22,0.05c-14.3,0-28.61,0.01-42.92,0
		c-3.53,0-4.39-0.87-4.39-4.39c0-2.41,0.03-4.83,0.05-7.25c0-0.12,0.09-0.24,0.2-0.54c0.72,0,1.37,0,2.13-0.01
		c0.06,0.45,0.14,0.83,0.15,1.21C18.99,28.78,18.99,28.78,22.84,28.78z M72.86,23.66c1.26,0,2.18,0,3.21,0c0,30.98,0,61.86,0,92.83
		c-22.05,0-44,0-66.03,0c0-30.96,0-61.79,0-92.78c1.01,0,1.97,0,3.25,0c0,2.64-0.01,5.3,0,7.96c0.02,4.87,2.3,7.19,7.13,7.19
		c15.12,0.01,30.24,0.01,45.36,0c4.71,0,7.06-2.36,7.08-7.04C72.87,29.15,72.86,26.48,72.86,23.66z M82.88,124.7
		c-26.52,0-53.03,0-79.65,0c0-35.61,0-71.15,0-106.87c5.11,0,10.24,0,15.53,0c0,0.79,0,1.6,0,2.64c-3.05,0-6.05-0.02-9.06,0
		c-2.43,0.01-2.78,0.36-2.78,2.83c-0.01,31.2-0.01,62.39,0,93.59c0,2.41,0.28,2.7,2.63,2.7c22.32,0,44.63,0,66.95,0
		c2.47,0,2.73-0.26,2.73-2.81c0-31.13,0-62.26,0-93.39c0-2.57-0.34-2.91-2.89-2.92c-2.94-0.01-5.89,0-9.05,0
		c0-1.02,0-1.74,0.01-2.64c5.17,0,10.3,0,15.58,0C82.88,53.4,82.88,88.98,82.88,124.7z"/>
	<path class="st0" d="M43.2,51.36c-14.98-0.05-27.15,11.99-27.18,26.9c-0.03,15.01,11.97,27.12,26.92,27.17
		c14.99,0.05,27.15-11.98,27.18-26.91C70.15,63.53,58.14,51.41,43.2,51.36z M43.13,102.39c-13.24,0.04-23.94-10.58-24.07-23.88
		C18.93,65.27,29.81,54.36,43.1,54.4c13.25,0.03,23.98,10.77,23.98,23.99C67.08,91.62,56.38,102.35,43.13,102.39z"/>
	<path class="st0" d="M43.05,5.43c-2.78,0.01-4.98,2.19-5.01,4.98c-0.04,2.84,2.23,5.14,5.06,5.13c2.73-0.01,4.98-2.23,5.02-4.98
		C48.17,7.72,45.9,5.42,43.05,5.43z M43.05,12.31c-0.77-0.14-1.81-1.2-1.88-1.94c-0.06-0.67,1.02-1.46,1.59-2.19
		c0.31,0.02,0.63,0.04,0.94,0.06c0.46,0.81,1.36,1.67,1.26,2.41C44.87,11.32,43.61,12.41,43.05,12.31z"/>
	<path class="st6" d="M41.41,60.67c-7.21,0.43-14.07,6.29-15.64,13.35c-1.85,8.33,1.65,16.24,8.99,20.13
		c4.63,2.46,9.47,2.75,14.41,0.98c1.05-0.37,2.43-0.74,1.88-2.3c-0.55-1.54-1.8-0.98-2.89-0.59c-0.06,0.02-0.12,0.07-0.18,0.09
		c-3.09,1.06-6.24,1.1-9.32,0.18c-6.45-1.94-10.76-8.28-10.33-14.9c0.47-7.25,5.49-12.69,12.83-13.91
		c6.12-1.02,13.13,2.78,15.39,8.89c0.94,2.53,0.94,5.48,0.98,8.25c0.03,1.67-1.18,2.87-3.04,2.83c-1.83-0.04-2.23-1.5-2.48-2.92
		c-0.16-0.91-0.07-1.87-0.14-2.81c-0.28-3.83-2.75-6.96-6.31-8.02c-3.5-1.04-7.26,0.21-9.51,3.17c-2.25,2.97-2.43,6.83-0.44,10.01
		c2.57,4.1,8.95,6.23,14.25,1.04c1.79,2.52,4.2,3.06,6.84,2.16c2.77-0.92,3.94-3.3,4-5.97c0.06-2.58-0.06-5.31-0.84-7.73
		C57.31,64.7,50.05,60.16,41.41,60.67z M43.1,84.1c-3.26,0.02-5.75-2.44-5.76-5.68c-0.01-3.2,2.53-5.79,5.7-5.81
		s5.75,2.55,5.77,5.75C48.83,81.6,46.35,84.09,43.1,84.1z"/>
</g>
</svg>
