<?xml version="1.0" encoding="utf-8"?>
<!-- Generator: Adobe Illustrator 24.3.0, SVG Export Plug-In . SVG Version: 6.00 Build 0)  -->
<svg version="1.1" id="Layer_1" xmlns="http://www.w3.org/2000/svg" xmlns:xlink="http://www.w3.org/1999/xlink" x="0px" y="0px"
	 width="551.3px" height="449px" viewBox="0 0 551.3 449" style="enable-background:new 0 0 551.3 449;" xml:space="preserve">
<style type="text/css">
	.st0{fill:#00B0FB;}
	.st1{fill:#00B0FB;fill-opacity:0.4;}
	.st2{fill:#FFFFFF;}
	.st3{fill:none;}
	.st4{fill:#3C7CFF;}
	.st5{fill:#001135;}
	.st6{fill:#185AE9;}
	.st7{fill:#DBDBDB;}
	.st8{fill:#FDFDFD;}
	.st9{fill:#0A0A0A;}
	.st10{fill:#010101;}
	.st11{fill:#FEFEFE;}
	.st12{fill:#020202;}
	.st13{fill:#E8E8E8;}
	.st14{fill:#575757;}
	.st15{fill:#F9F9F9;}
	.st16{fill:#E2E2E2;}
	.st17{fill:#030302;}
	.st18{fill:#FCFCFC;}
	.st19{fill:#D2D3D3;}
	.st20{fill:#1F1F1F;}
	.st21{fill:#F6F6F6;}
	.st22{fill:#0E0D0E;}
	.st23{fill:#BABBBB;}
	.st24{fill:#8A8A8A;}
	.st25{fill:#8E8F8F;}
	.st26{fill:#464746;}
	.st27{fill:#5F5E5E;}
	.st28{fill:#0B0B0B;}
	.st29{fill:#090909;}
	.st30{fill:#151414;}
	.st31{fill:#101010;}
	.st32{fill:#282828;}
	.st33{fill:#FAFAFA;}
	.st34{fill:#F2F2F2;}
</style>
<g>
	<path d="M237.5,449c14.8-0.6,28.4-5.3,41.8-10.6c22.9-9.1,44.5-20.8,65.5-33.6c46.1-28.1,88.8-60.5,128.5-97
		c19.2-17.6,37.3-36.2,53.3-56.8c8.1-10.4,15.6-21.2,20.9-33.4c2-4.6,3.6-9.3,3.7-14.4c0.3-9.3-4.5-14.9-13.8-16.1
		c-8.7-1.1-17,0.5-25.3,2.7c-17.5,4.6-33.8,11.9-49.9,20c-28.6,14.4-55.6,31.4-81.7,49.8c-30.2,21.3-59,44.4-86.1,69.6
		c-20.1,18.7-39.2,38.3-55.6,60.4c-7.1,9.5-13.6,19.4-18,30.5c-1.7,4.2-2.9,8.5-3,13.1c-0.1,8.5,4.5,13.8,12.9,15.2
		C233.1,448.8,235.3,448.8,237.5,449z"/>
	<path d="M522.9,253.6c-2.8-3-5.6-5.9-8.5-8.8v13.7h-64.3v56.2h-35.7v28.1h-49.5v25H318c6.9,6.3,14.5,11.3,22.7,14.9
		c0,0,0.6,0.3,0.7,0.3c6.4,2.7,13.1,4.6,20.1,5.6c0,0,0.1,0,0.1,0c0.1,0,0.3,0,0.6,0c1,0,2.9-0.1,5.6-0.5c0.1,0.3,0.3,0.5,0.5,0.6
		c0.1,0.1,0.3,0.1,0.5,0.1c0.2,0,0.4-0.1,0.5-0.2c0.4-0.3,0.8-0.5,1.2-0.8c0.1-0.1,0.2-0.2,0.3-0.3l0.1,0c0.1,0,0.2-0.1,0.3-0.1
		c1.9-1.3,3.8-2.5,5.7-3.8c16.1-10.9,32-22.5,47.3-34.6c2.3-1.8,4.6-3.7,6.9-5.5c4-3.2,8.1-6.6,12.5-10.3l1.4-1.2
		c4.4-3.7,8.3-7,11.9-10.2c0,0,0,0,0,0c0.3-0.3,0.6-0.6,1-0.8c0,0,0.5-0.4,0.5-0.5c4.4-3.8,8.9-7.9,13.3-12h0c0,0,0,0,0,0
		c0.2-0.2,0.5-0.4,0.7-0.6l0.7-0.7c7.9-7.2,14.9-14.1,21.5-20.8c0.3-0.3,0.6-0.6,0.9-0.9l0.5-0.5c4.9-5,9.7-10.2,14.3-15.3l0.4-0.5
		c0.3-0.3,0.6-0.7,0.9-1c3.6-4.1,6.9-8,9.9-11.8c0.4-0.5,0.8-1,1.2-1.5C523.3,254.5,523.3,254,522.9,253.6z"/>
	<g>
		<path class="st3" d="M283.1,172.5c-1.5-4.3-3.9-8.1-6.8-10.5c-1.6-1.4-3.2-2.2-4.6-2.5c-0.7-0.2-1.5-0.2-2.2-0.1
			c1.6,0.9,4.1,2.6,6.6,5.2c3.6,4,7.6,11,6.2,22c-0.2,1.6-0.7,3.1-1.5,4.4c-0.1,0.1-0.2,0.2-0.2,0.4c1.9-1,3.3-3.2,3.9-6.4
			C285.1,181.3,284.6,176.8,283.1,172.5z"/>
		<path class="st3" d="M280.8,186.5c1.1-8.3-0.9-15.4-5.8-20.8c-3.1-3.5-6.5-5.2-7.5-5.6c-4,2.5-5.1,10.5-2.2,18.7
			c2.8,7.8,8.2,13.2,12.7,13.2c0.5-0.4,1-1,1.4-1.7C280.1,189.1,280.6,187.9,280.8,186.5z"/>
		<path class="st3" d="M262.1,179.9c-1.8-5.1-2.3-10.3-1.3-14.7c0.5-2.3,1.4-4.2,2.5-5.7c-1.7,1.4-3,3.5-3.6,6.3
			c-2.5,9.5,2.4,20.9,8.4,25.9c0.2,0.1,2.5,1.9,5.7,2.6c-1.1-0.5-2.3-1.2-3.4-2.1C266.8,189.4,263.9,185,262.1,179.9z"/>
		<path class="st3" d="M284.9,171.9c-1.7-4.8-4.5-8.9-7.8-11.6c-1.7-1.4-3.5-2.3-5.2-2.7c-1.4-0.3-2.8-0.2-4,0.2
			c-5.9,2.1-7.8,11.8-4.4,21.6c1.7,4.9,4.5,9,7.8,11.6c3.2,2.6,6.5,3.5,9.2,2.5c0.4-0.1,0.7-0.3,1-0.5c0,0,0.1-0.1,0.1-0.1
			C286.6,190.1,288.1,181.1,284.9,171.9z M280.4,193.1c-1.2,0.5-2.6,0.5-4,0.2c-1.7-0.4-3.5-1.3-5.3-2.9c-3.1-2.6-5.6-6.6-7.2-11.2
			c-1.6-4.6-2.1-9.3-1.4-13.2c0.7-4.1,2.7-6.9,5.5-7.9c2.9-1,6.1,0,9.3,2.7c3.1,2.6,5.6,6.6,7.2,11.2c1.6,4.6,2.1,9.3,1.4,13.2
			C285.2,189.3,283.2,192.1,280.4,193.1z"/>
		<g>
			<path class="st2" d="M387.9,169c-1,0.2-2.1,0.2-3.4-0.3c-6.5-2.5-16.3-8.1-16.9-10.2c-0.5-2.1,5.2-9.9-2.4-14.5
				c-7.6-4.6-9.6,2.1-11.4,2c-0.1,0-0.2,0-0.3-0.1l-26.6,4.7c0.1,0.4,0.1,0.7,0.2,1.1c0.5,4.4-1.2,8-3.8,8.2c-0.4,0-0.7,0-1.1-0.1
				c-0.8-0.2-1.6-0.7-2.2-1.5c-1.9,0.5-4.2,1.2-4.6,2.4c0,0.2-0.2,0.7,0.4,1.6c1.1,1.8,3.8,3.3,5.9,4.6c2.4,1.5,4.1,2.5,4.1,3.8
				c0,0.6,0.2,2.9,0.8,5.8c1.7-0.1,7.7-0.3,15.2,1.3l-0.3,1.4c-6.9-1.4-12.6-1.4-14.5-1.3c0.3,1.1,0.7,2.2,1.1,3.4
				c2.3,6,5.9,9,10.5,9.1c11.5,0.2,18.4-4.3,18.4-4.4l0.6-0.4c0,0,0,0,0,0c0,0,5.8-2.8,9.5-5.4c0.7-0.5,1.7,0.2,1.4,1
				c-1.6,4.7-3.9,13.6-2.1,24.1c0.2,0.3,0.3,0.6,0.4,0.9c0.7-0.3,1.5-0.5,2.4-0.5c0.9-0.1,1.8-0.6,2.6-0.9c12.4-5,22-12.8,27.4-24.6
				L387.9,169z M333.2,153.9c0,0.2-0.1,0.3-0.1,0.5l0,0c-0.1,0.3-0.2,0.5-0.4,0.7c-0.1,0.1-0.2,0.2-0.2,0.3
				c-0.1,0.1-0.1,0.1-0.2,0.2c-0.1,0.1-0.1,0.1-0.2,0.1c-0.1,0.1-0.2,0.1-0.3,0.2c0,0,0,0,0,0c0,0-0.1,0.1-0.1,0.1c0,0,0,0-0.1,0
				c-0.1,0-0.2,0.1-0.3,0.1c-0.2,0-0.4,0-0.5,0c-0.1,0-0.1,0-0.2-0.1s-0.2-0.1-0.2-0.1c-0.1-0.1-0.1-0.1-0.2-0.2c0,0,0,0-0.1-0.1
				c0,0-0.1-0.1-0.1-0.1c0,0-0.1-0.1-0.1-0.1c0-0.1-0.1-0.1-0.1-0.2c-0.3-0.6-0.3-1.4,0-2.2c0.5-1.3,1.6-2.1,2.6-1.7
				c0.2,0.1,0.3,0.2,0.4,0.3c0.2,0.2,0.3,0.4,0.4,0.7c0,0.1,0.1,0.2,0.1,0.4C333.3,153.1,333.3,153.5,333.2,153.9z M364.5,152.7
				c-0.1,0-0.2,0-0.3,0c-0.3-0.1-0.5-0.3-0.5-0.6c-0.1-0.8-0.3-1.5-0.6-2c-0.2,0.5-0.4,1-0.7,1.5c-0.1,0.2-0.2,0.4-0.3,0.5
				c-0.2,0.4-0.4,0.7-0.6,0.9c-0.1,0.1-0.1,0.1-0.1,0.2c0,0,0,0.1-0.1,0.1c0,0,0,0.1,0,0.1c0,0-0.1,0.1-0.1,0.1c0,0-0.1,0.1-0.1,0.1
				c0,0-0.1,0.1-0.1,0.1c-0.1,0-0.1,0.1-0.2,0.1c-0.1,0-0.2,0-0.4,0c0,0,0,0-0.1,0c-0.1,0-0.1-0.1-0.2-0.1v0c-0.1,0-0.1-0.1-0.1-0.1
				c0,0,0,0,0,0c-0.1-0.1-0.2-0.3-0.2-0.4c0-0.1,0.1-0.3,0.1-0.4c0,0,0.1-0.1,0.1-0.1c0.3-0.4,0.7-1.1,1.1-1.8
				c0.1-0.2,0.2-0.4,0.3-0.6c0-0.1,0.1-0.2,0.1-0.3c0.1-0.2,0.1-0.4,0.2-0.6s0.1-0.4,0.1-0.5h0c-0.1-0.1-0.2-0.2-0.4-0.3
				c-0.1-0.1-0.2-0.2-0.4-0.2c-0.1,0-0.1-0.1-0.2-0.1s-0.1,0-0.1-0.1c0,0-0.1,0-0.1-0.1c-0.1,0-0.2-0.1-0.2-0.1l0,0h-0.1
				c-0.1,0-0.1,0-0.2,0c0,0-0.1,0-0.1,0c-0.1,0-0.1-0.1-0.2-0.1c0,0-0.1,0-0.1-0.1c0,0-0.1-0.1-0.1-0.1s-0.1-0.1-0.1-0.2
				c-0.1-0.2-0.1-0.3,0-0.5c0,0,0,0,0,0c0-0.1,0.1-0.2,0.3-0.3c0,0,0.1-0.1,0.1-0.1c0.1-0.1,0.3-0.1,0.5-0.1
				c0.4,0.1,1.7,0.5,2.8,1.6c0.2,0.2,0.5,0.5,0.7,0.8c0.2,0.3,0.4,0.7,0.6,1.1c0.1,0.2,0.2,0.4,0.2,0.6c0.1,0.2,0.1,0.4,0.2,0.6
				c0,0,0,0.1,0,0.1c0,0.2,0.1,0.4,0.1,0.6C365.2,152.3,364.9,152.6,364.5,152.7z"/>
			<path class="st2" d="M334.2,132.5c-0.1,0.1-0.2,0.1-0.3,0.1c-1.7,0.4-3.4,0.2-4.8-0.4c-0.8,3.9-2.1,10.2-3,15.6
				c0.2,0.4,0.4,0.9,0.5,1.3l24.8-4.3C346.6,141.2,339.6,131.1,334.2,132.5z M336.7,144.5c-0.1,0.4-0.5,0.6-0.9,0.5
				c-4.4-1.2-6.4,1.5-6.5,1.6c-0.2,0.3-0.5,0.4-0.8,0.3c-0.1,0-0.2,0-0.2-0.2c-0.3-0.2-0.4-0.7-0.2-1c0,0,0.1-0.1,0.2-0.3
				c0-0.1,0.1-0.1,0.2-0.2c0.1-0.1,0.2-0.2,0.4-0.3c0.2-0.2,0.5-0.4,0.8-0.6c0.4-0.3,0.8-0.5,1.4-0.7c0.1,0,0.2-0.1,0.3-0.1
				c0.3-0.1,0.6-0.2,0.9-0.2c0.1,0,0.2,0,0.2,0c0.7-0.1,1.5-0.1,2.3,0c0.4,0.1,0.9,0.2,1.4,0.3c0,0,0.1,0,0.1,0.1
				c0.1,0,0.1,0.1,0.2,0.2c0,0,0.1,0,0.1,0.1c0.1,0.1,0.1,0.1,0.1,0.2c0,0,0,0,0,0c0,0,0,0.1,0,0.1
				C336.7,144.3,336.7,144.4,336.7,144.5z"/>
			<path class="st2" d="M320.6,156.6c0.1,0.2,0.3,0.5,0.5,0.7c0.2,0.2,0.3,0.4,0.5,0.6c0.5,0.4,0.9,0.6,1.5,0.6
				c1.8-0.2,2.8-3.6,2.5-6.6c0-0.1,0-0.2,0-0.2c-0.1-0.7-0.2-1.4-0.4-2.1c-0.2-0.5-0.3-0.9-0.5-1.3c-0.2-0.3-0.3-0.6-0.5-0.9
				c-0.5-0.7-1.1-1.2-1.7-1.4c-0.2,0-0.4-0.1-0.5-0.1c-1.8,0.2-2.8,3.6-2.5,6.6C319.5,153.9,319.9,155.5,320.6,156.6z"/>
			<path class="st7" d="M430.5,333.8c0.1-0.2,0.2-0.4,0.3-0.7c1.4-3.5,2.3-5.8,3.6-6.7c0.2-0.2,0.5-0.3,0.7-0.4l0.3,1l0.3,1
				c-0.9,0.3-2.1,3.4-3.3,6.5c-0.1,0.4-0.3,0.8-0.5,1.1c-0.4,2.3-0.8,4.6-1.4,6.9c4.2-3.4,8.4-6.8,12.5-10.3
				c-0.1-0.2-0.2-0.5-0.2-0.7c-5.6-14.7-13.2-28.4-23.1-40.8c-1.4-1.7-2.7-3.3-4.1-4.9v0c-0.9-1.1-1.9-2.1-2.9-3.1v0
				c-1-1-1.9-2.1-2.9-3.1c-0.7-0.8-1.5-1.5-2.2-2.2c-0.8-0.7-1.5-1.5-2.3-2.2c-1.5-1.4-3.1-2.8-4.7-4.2c-1.6-1.4-3.2-2.7-4.9-4
				c-4.6-3.6-9.4-6.8-14.5-9.8c-4.6-2.8-9.5-5.2-14.5-7.5c-2-0.9-4.1-1.6-6.2-2.3c-1.6-0.5-3.2-1-4.9-1.5c-0.6-0.2-1.1-0.3-1.7-0.5
				c-0.2-0.1-0.3-0.1-0.4-0.2c-0.1-0.1-0.2-0.2-0.3-0.3c-0.3-0.3-0.4-0.6-0.2-0.9c0.1-0.1,0.1-0.2,0.2-0.3c0.4-0.4,1-0.3,1.6-0.2
				c0.2,0,0.4,0.1,0.5,0.2c2.3,0.6,4.5,1.4,6.7,2.2c2.9,1.1,5.8,2.3,8.7,3.7c0.7,0.3,1.4,0.7,2.1,1c3.4,1.7,6.8,3.5,10.1,5.4
				c3.5,2.1,6.9,4.3,10.2,6.6c5.9,4.3,11.4,8.9,16.5,13.9c6.8,6.7,12.7,13.9,18,21.8c1.8,2.6,3.4,5.3,5,8c0.8,1.4,1.6,2.8,2.3,4.2
				c1.9,3.5,3.7,7.1,5.3,10.8c1.4,3.2,2.8,6.4,4,9.7c4-3.4,7.9-6.8,11.9-10.2c-0.3-0.7-0.6-1.3-1-2c-2.7-5.5-5.6-10.8-8.8-16
				c-1.9-3.1-3.9-6.1-5.9-9.1c0,0,0,0,0,0c-1.4-2-2.8-4-4.2-5.9c-1.1-1.4-2.1-2.8-3.2-4.2c-1.2-1.5-2.4-2.9-3.6-4.4
				c-1.6-1.9-3.2-3.7-4.9-5.5c-1.5-1.6-3-3.2-4.5-4.8c-0.5-0.5-1-1-1.5-1.5s-1-1-1.6-1.5c-0.8-0.7-1.6-1.5-2.3-2.2
				c-0.6-0.5-1.1-1-1.7-1.5c-5.8-5.2-12-10-18.5-14.2c0,0,0,0,0,0c-8.2-5.4-16.8-10.1-26-14c-3.7-1.6-7.6-2.7-11.6-3.8
				c-0.2,0-0.4-0.1-0.6-0.2c-0.4-0.2-0.6-0.7-0.4-1.2c0-0.1,0.1-0.2,0.1-0.3c0.1-0.1,0.1-0.1,0.1-0.2c0.1-0.1,0.1-0.1,0.1-0.1
				c0.3-0.1,0.7,0.2,1.1,0.3c0,0,0.1,0,0.1,0c0.4,0.1,0.7,0.2,1.1,0.2c2,0.5,3.9,1.1,5.8,1.8c0.9,0.3,1.8,0.6,2.7,1
				c0.4,0.2,0.9,0.3,1.3,0.5c0.2,0.1,0.4,0.2,0.7,0.3c0.6,0.2,1.3,0.5,1.9,0.8c0.9,0.3,1.7,0.7,2.5,1.1c5.1,2.2,9.9,4.8,14.7,7.6
				c2.7,1.6,5.4,3.3,8,5.1c9.7,6.5,18.7,14,26.8,22.5c1.6,1.6,3.2,3.3,4.7,5c0.8,0.9,1.5,1.7,2.3,2.6c1.3,1.6,2.6,3.1,3.9,4.7
				c1.3,1.6,2.5,3.2,3.7,4.8c1.2,1.6,2.4,3.3,3.6,4.9c2.7,3.8,5.2,7.8,7.7,11.8c1.4,2.3,2.7,4.6,4,7c0.6,1.2,1.3,2.4,1.9,3.5
				c0.6,1.2,1.2,2.4,1.8,3.6c0.2,0.5,0.5,0.9,0.7,1.4c0.1,0.3,0.3,0.5,0.4,0.8c4.5-3.9,8.9-7.9,13.3-12c0,0,0,0,0,0
				c-0.6-1-1.1-2-1.7-3c0,0,0,0,0,0c-1.1-2-2.3-3.9-3.5-5.9c-0.6-1-1.2-1.9-1.8-2.9c-0.9-1.4-1.8-2.8-2.7-4.2
				c-4.2-6.2-8.6-12.2-13.4-17.9c-1.1-1.3-2.1-2.5-3.2-3.8c-0.5-0.6-1.1-1.2-1.6-1.9c-1.7-1.8-3.4-3.7-5.1-5.4
				c-4.6-4.8-9.5-9.3-14.8-13.6c-0.6-0.5-1.2-0.9-1.7-1.4c-1.2-0.9-2.3-1.8-3.5-2.8c-0.6-0.5-1.2-0.9-1.8-1.3
				c-1.8-1.3-3.6-2.6-5.5-3.8c-0.6-0.4-1.2-0.8-1.8-1.2c-5-3.2-10.2-6.2-15.7-8.7c-4.4-2-8.9-3.8-13.5-5.2c-0.2-0.1-0.5-0.2-0.7-0.2
				c-0.4,0-0.6-0.2-0.6-0.5c0-0.1,0-0.3,0-0.4c0-0.1,0-0.2,0.1-0.3l0,0c0,0,0,0,0,0c0.3-1,1-0.7,1.7-0.5c0.3,0.1,0.6,0.2,1,0.3
				c0.2,0.1,0.4,0.1,0.6,0.2c0.4,0.1,0.7,0.2,1.1,0.3c0.4,0.1,0.8,0.3,1.2,0.4c6.8,2.2,13.2,5.5,19.3,9.1c2.5,1.5,4.9,3,7.2,4.6
				c9.9,6.6,19,14.1,27.4,22.6c1.2,1.2,2.4,2.4,3.5,3.7c0.6,0.6,1.1,1.2,1.6,1.8c0.2,0.2,0.3,0.4,0.5,0.5c0.5,0.5,0.9,1,1.4,1.5
				c2.3,2.6,4.5,5.2,6.7,7.9c7.8,9.7,14.7,20,20.8,30.8c7.4-6.8,14.5-13.7,21.5-20.8c-3.7-5.5-7.6-10.7-11.8-15.8
				c-1.2-1.4-2.4-2.8-3.6-4.2c-2.4-2.8-4.9-5.5-7.5-8.2c-0.6-0.7-1.3-1.3-2-2c-1.3-1.3-2.6-2.6-4-3.9c-0.7-0.6-1.4-1.3-2.1-1.9
				c-1.4-1.3-2.8-2.5-4.2-3.7c-1.4-1.2-2.8-2.5-4.3-3.6c-1.4-1.2-2.9-2.4-4.4-3.5c-4.7-3.7-9.5-7.1-14.5-10.3
				c-1.4-0.9-2.9-1.8-4.3-2.7c-0.2-0.1-0.4-0.2-0.6-0.4c-1.2-0.8-2.5-1.5-3.8-2.2c-1.5-0.8-3-1.6-4.5-2.4s-3-1.5-4.6-2.2
				c-0.8-0.4-1.5-0.7-2.3-1.1c-2.2-0.9-4.4-1.9-6.6-2.6c-0.6-0.2-1.1-0.3-1.7-0.5c-1.1-0.3-2.2-0.6-3.4-0.8c-0.3-0.1-0.7-0.1-1-0.2
				c-0.2,0-0.4,0-0.6-0.1c-0.1,0-0.3-0.1-0.4-0.1c-0.1,0-0.2-0.1-0.4-0.1c-0.1,0-0.2-0.1-0.3-0.1c-0.1,0-0.1-0.1-0.1-0.1
				c0,0-0.1,0-0.1-0.1c-0.1-0.1-0.1-0.1-0.2-0.2c-0.1-0.1-0.2-0.3-0.2-0.5c0-0.1,0-0.2,0-0.4c0-0.1,0.1-0.2,0.1-0.3
				c0-0.1,0.1-0.1,0.1-0.2c0.2-0.2,0.4-0.2,0.6-0.1c0.3,0.1,0.5,0.2,0.8,0.3c0,0,0.1,0,0.1,0c3,0.5,6,1.3,8.9,2.3
				c0.4,0.1,0.8,0.3,1.2,0.4c0.6,0.2,1.2,0.4,1.9,0.7c2.4,0.9,4.8,2,7.2,3.2c0.9,0.4,1.8,0.9,2.6,1.4c0.9,0.5,1.7,0.9,2.6,1.4
				c0.7,0.4,1.4,0.8,2.1,1.2c1.3,0.8,2.6,1.5,3.9,2.3c0.9,0.6,1.8,1.1,2.7,1.7c1.7,1.1,3.4,2.1,5,3.2c1.3,0.8,2.5,1.7,3.8,2.6
				c5,3.5,9.8,7.2,14.4,11.1c4.7,4,9.1,8.2,13.3,12.5c1.8,1.8,3.5,3.6,5.2,5.5c1.7,1.9,3.3,3.7,4.9,5.7c4.8,5.7,9.3,11.6,13.4,17.7
				c4.9-5,9.6-10.1,14.3-15.3c-15.6-19.3-33.5-36.3-54.3-50.2c-1.9-1.3-3.9-2.6-5.9-3.8c-6.8-4.3-13.8-8.2-21.2-11.3
				c-4-1.7-8.1-3.3-12.5-3.9c-1-0.1-2.7-0.4-2.4-1.8c0.3-1.2,1.8-0.3,2.6-0.1c6,1.2,11.6,3.2,17.1,5.8c6.4,3,12.4,6.4,18.4,10.1
				c3.3,2.1,6.6,4.2,9.8,6.5c15.1,10.5,28.7,22.9,40.9,36.7c3,3.4,6,6.9,8.8,10.4c3.4-3.8,6.7-7.8,9.9-11.8
				c-16.9-18.2-35.8-34.4-56.3-48.6c-0.5-0.3-0.9-0.6-1.4-1c-11.2-7.6-22.7-14.7-34.7-20.9c-3.4-1.7-6.9-3.1-10.3-4.7
				c0,0,0,0.1,0.1,0.1c-0.6-0.3-1.3-0.5-1.8-0.8c-0.2-0.1-0.4-0.2-0.6-0.2c-0.6-0.2-1,0.1-1.2,1c-1.2,4.5-3,8.8-5.3,12.7
				c-0.3,0.5-0.6,1-0.9,1.6c-0.3,0.5-0.6,0.9-0.9,1.4c-1.2,1.8-2.5,3.5-4,5.1c-8.6,9.3-19.4,14-31.4,15.3c-0.3,0-0.6,0.1-0.9,0.1
				c-0.3,0-0.5,0-0.8,0.1c-1.3,0.1-2.6,0.2-4,0.2c-0.8,0-1.6-0.1-1.6-1.1c-0.1-1,0.8-0.9,1.4-0.9c1,0,2.1,0,3.1,0c0.3,0,0.5,0,0.8,0
				c0.3,0,0.6,0,0.9-0.1h0c16.7-2.2,29.3-9.4,36.8-23c0.2-0.4,0.5-0.9,0.7-1.3c0.2-0.5,0.5-1,0.7-1.5c1.1-2.4,2.1-4.9,2.9-7.7
				c0.6-2.1,0.8-2.5-0.4-3.1c-0.3-0.2-0.7-0.3-1.3-0.6l-2.4-1c-1.6-0.4-3.3-1.6-4.7-1.1c-1.3,0.6-1.4,2.7-2.1,4.1
				c0,0.1-0.1,0.2-0.1,0.2c-0.1,0.3-0.3,0.5-0.4,0.8c-0.1,0.2-0.2,0.4-0.3,0.6c-6.8,12.9-17,22-31.4,25.8c-0.6,0.2-1.1,0.4-1.6,0.6
				c-0.2,0.1-0.5,0.2-0.7,0.3c-0.2,0.1-0.4,0.2-0.6,0.4c-1.8,1.1-3.1,2.7-4.2,4.6c-5.9,9.2-9.5,19.3-12.4,29.8
				c-0.4,1.3-0.6,2.5-0.9,3.8c-0.6,2.4-1.3,4.7-0.9,7.2c0,0,0.1,0,0.1,0c0,0.1,0,0.2,0,0.2c1.2,7.9,3.6,15.4,6.8,22.8
				c0.1,0.2,0.2,0.4,0.3,0.6c2.6,6.1,6,11.8,8.8,17.7c1,2.1,2,4.3,2.3,6.6c0.4,2.4-0.8,3.6-3.3,3.4c-2.8-0.2-4.8-1.9-6.6-3.7
				c-1.7-1.7-3.3-3.7-5-5.4c-0.3-0.3-0.5-1.3-1.3-0.7c1,5.4,2.1,10.7,3.3,16l6.7,9.5c0.9,1.5,1.3,1.6,1.4,1.6c0.5,0,1.7-1.6,2.5-2.8
				c0.9-1.3,2-2.8,3.4-4.2c6.7-6.7,7.1-14.6,7.4-20.3c0.1-1.9,0.2-3.5,0.5-4.9l2.1,0.5c0,0.1,0,0.2-0.1,0.4
				c-0.2,1.1-0.3,2.5-0.4,4.2c-0.3,5.8-0.8,14.5-8,21.7c-1.2,1.3-2.3,2.7-3.2,3.9c-1.5,2.1-2.7,3.7-4.4,3.7
				c-1.4-0.1-2.4-1.5-3.1-2.6l-3.6-5.2l-0.9-1.2l-1.4-2.1l-8-11.3l-1.9-2.3c-1.2-1.5-3.6-4.4-6.6-8.3c-7.3-9.2-18.4-23.8-26.9-36.7
				c-1.2,1.2-3.3,3-6.1,4.8c-4.5,2.9-11.8,6.3-21.4,6.2l0-1.5c14.4,0.1,23.7-7.8,26.7-10.9c-2.9-4.5-5.5-8.8-7.4-12.5
				c-0.1-0.2-0.2-0.4-0.4-0.8c-0.2-0.5-0.6-1.1-0.8-1.6c-0.2,0.1-0.5,0.3-0.7,0.4c-0.1,0.1-0.3,0.1-0.4,0.2
				c-0.3,0.2-0.6,0.3-0.9,0.5c-0.3,0.2-0.6,0.3-0.9,0.5c-3.8,1.9-9.6,4.4-16.8,4.1c-0.3,0-0.6,0-0.8,0c-0.3,0-0.6,0-0.9-0.1
				c-0.1,0-0.2,0-0.4,0l-0.4-0.1c-0.2-0.1-0.5-0.2-0.7-0.2c0,0.1,0,0.2,0,0.3c0.4,12,2.2,36,9.8,61.6c2.3,7.7,4.9,15,7.9,21.7
				c3.5,7.8,7.4,14.9,11.7,21.2c9.9,14.4,22.1,24.8,36.1,30.9c6.3,2.7,13.1,4.7,20.1,5.7c0,0,2.4,0.1,6.5-0.7c0.3-0.1,0.7-0.1,1-0.2
				c0.2-0.1,0.4-0.1,0.6-0.1c0.4-0.1,0.8-0.2,1.1-0.3c1.5-0.4,3.2-0.9,5.1-1.5c16.2-11,31.9-22.5,47.3-34.6
				C427,342.9,429,337.8,430.5,333.8z M310.2,268.8c3.1,6.2,6.2,12,9.2,17.3c0.8,1.3,1.5,2.6,2.2,3.9c1.8,3.1,3.6,6,5.3,8.8
				c0.1,0.1,0.1,0.2,0.2,0.3c0.9,1.4,1.8,2.8,2.7,4.2c1.1,1.8,2.3,3.4,3.4,5c0.4,0.5,0.8,1.1,1.2,1.6c0.4,0.5,0.8,1.1,1.1,1.6
				c0.7,0.9,1.4,1.8,2,2.7c0.7,0.9,1.3,1.7,2,2.5c0.2,0.3,0.4,0.5,0.6,0.8c0.2,0.2,0.4,0.5,0.6,0.7c1.2,1.4,2.4,2.8,3.6,4.1
				c4.1,4.3,8,7.4,11.6,9.4c0.6,0.3,1.2,0.6,1.7,0.9c0.2,0.1,0.4,0.2,0.6,0.2c2.5,1,4.9,1.5,7.2,1.3c0.4,0,0.7-0.1,1.1-0.1
				c0.4-0.1,0.8-0.2,1.3-0.3c0.2-0.1,0.4-0.1,0.6-0.2c0.4-0.1,0.8-0.3,1.2-0.5c3.3-1.5,6.1-4.4,8.3-8c0.3-0.4,0.5-0.8,0.8-1.3
				c0.2-0.3,0.4-0.7,0.6-1c0.2-0.3,0.4-0.7,0.5-1c0.2-0.5,0.5-0.9,0.7-1.4c0.3-0.7,0.6-1.4,1-2.1c0.2-0.5,0.4-1,0.6-1.5
				c0.1-0.4,0.3-0.8,0.4-1.1c0.1-0.1,0.1-0.2,0.1-0.4c0.2-0.4,0.3-0.8,0.5-1.3c0.2-0.5,0.4-1.1,0.5-1.6c0,0,0,0,0-0.1
				c0.2-0.5,0.3-1,0.4-1.4c1.6-5.3,2.6-10.3,3.1-13.3c0.1-0.5,0.1-0.9,0.2-1.2c0-0.2,0.1-0.4,0.1-0.5c0-0.2,0.1-0.4,0.1-0.6
				c0-0.2,0-0.3,0.1-0.4c0,0,0-0.1,0-0.1c0-0.1,0-0.1,0-0.1c0,0,0,0,0,0l1.5,0.2c0,0,0,0.1,0,0.2c0,0.1,0,0.2-0.1,0.4
				c-0.1,0.4-0.1,0.9-0.2,1.6c0,0.2-0.1,0.5-0.1,0.7c0,0.2-0.1,0.5-0.1,0.8c-0.6,3.6-1.8,9.4-3.8,15.4c-1,3.1-2.2,5.8-3.4,8.2
				c-0.1,0.3-0.3,0.6-0.5,0.9c-0.1,0.2-0.2,0.4-0.3,0.5c-0.1,0.2-0.3,0.5-0.4,0.7c-0.2,0.4-0.5,0.8-0.7,1.2c-0.2,0.3-0.4,0.7-0.7,1
				c-0.1,0.2-0.2,0.3-0.3,0.5c-0.1,0.2-0.2,0.3-0.3,0.5c-0.5,0.6-0.9,1.2-1.4,1.8c-0.3,0.3-0.6,0.7-0.8,1c-0.2,0.2-0.4,0.4-0.6,0.6
				c-0.2,0.2-0.5,0.5-0.7,0.7c-0.4,0.4-0.8,0.7-1.2,1c-0.2,0.2-0.4,0.4-0.7,0.5c-0.1,0.1-0.2,0.2-0.4,0.2c-0.2,0.2-0.4,0.3-0.6,0.4
				c-0.2,0.1-0.5,0.3-0.7,0.4c-0.3,0.1-0.5,0.3-0.8,0.4c-0.3,0.2-0.7,0.3-1.1,0.4c-0.2,0.1-0.3,0.1-0.5,0.2
				c-0.3,0.1-0.6,0.2-0.9,0.3c-0.3,0.1-0.6,0.2-0.9,0.2c-1,0.2-2,0.2-3.1,0.2c-0.2,0-0.5,0-0.8,0c-0.2,0-0.3,0-0.5-0.1
				c-0.2,0-0.4-0.1-0.6-0.1c-0.3,0-0.6-0.1-0.9-0.2c-0.3-0.1-0.7-0.2-1-0.2c-0.4-0.1-0.9-0.3-1.3-0.4c-0.2-0.1-0.4-0.2-0.6-0.2
				c-0.3-0.1-0.6-0.2-0.9-0.4c0,0,0,0,0,0c-0.3-0.1-0.6-0.3-0.9-0.4c-0.2-0.1-0.4-0.2-0.6-0.3c-0.4-0.2-0.8-0.4-1.1-0.6
				c-0.2-0.2-0.5-0.3-0.8-0.5c-0.4-0.2-0.8-0.5-1.3-0.8c-0.2-0.2-0.4-0.3-0.7-0.4c-0.4-0.3-0.8-0.6-1.2-0.9c0,0-0.1-0.1-0.1-0.1
				c-0.4-0.3-0.8-0.6-1.1-0.9c-0.3-0.2-0.6-0.5-0.8-0.7c-0.4-0.4-0.9-0.8-1.3-1.2c-0.9-0.8-1.8-1.7-2.7-2.6
				c-0.5-0.5-0.9-0.9-1.4-1.4c-2.9-3-5.8-6.6-8.9-10.8c-0.3-0.4-0.6-0.8-0.9-1.2c-0.9-1.2-1.8-2.5-2.7-3.8c-0.3-0.4-0.5-0.8-0.8-1.1
				c-1.4-2.1-2.8-4.2-4.2-6.5c-0.4-0.7-0.8-1.3-1.2-2c-0.5-0.9-1.1-1.7-1.6-2.6c-3.8-6.3-7.7-13.3-11.8-21.1
				c-0.4-0.8-0.8-1.5-1.2-2.3c-0.4-0.8-0.8-1.5-1.2-2.3L310.2,268.8z M297.3,273.3l1-0.4l0.4-0.1h0c0,0,0,0,0,0c0,0,0,0.1,0.1,0.1
				c0,0.1,0.1,0.2,0.1,0.2c0,0.1,0,0.1,0.1,0.2c0.1,0.1,0.1,0.3,0.2,0.4c0,0.1,0.1,0.2,0.1,0.4c0.1,0.1,0.1,0.3,0.2,0.4c0,0,0,0,0,0
				c0.1,0.2,0.1,0.3,0.2,0.5c0,0,0,0.1,0.1,0.1c0.1,0.2,0.2,0.5,0.3,0.8c0,0.1,0.1,0.2,0.1,0.4c0.1,0.2,0.1,0.3,0.2,0.5
				c0.4,1.1,0.9,2.3,1.5,3.7c0.1,0.2,0.2,0.5,0.3,0.8c0.2,0.4,0.3,0.7,0.5,1.1c0.1,0.2,0.2,0.4,0.3,0.7c1.4,3.2,3.1,7,5,11.1
				c0.5,1,0.9,1.9,1.4,3c1.5,3.1,3.1,6.2,4.9,9.5c0.4,0.7,0.7,1.3,1.1,2c0.3,0.5,0.5,0.9,0.8,1.4c0.3,0.5,0.5,1,0.8,1.4
				c0.5,1,1.1,1.9,1.7,2.9c0.9,1.5,1.8,3,2.6,4.4c1.8,2.9,3.5,5.6,5.3,8.1c0.9,1.3,1.8,2.5,2.7,3.7c3.5,4.8,7,8.9,10.5,12.4
				c7.4,7.4,14.7,11.6,21.6,12.8c0.8,0.1,1.5,0.2,2.3,0.3c0.1,0,0.2,0,0.3,0c0.1,0,0.2,0,0.3,0c0.1,0,0.2,0,0.3,0c0.1,0,0.2,0,0.4,0
				c0.9,0,1.9,0,2.8-0.1c0.3,0,0.7-0.1,1-0.1c0.5-0.1,0.9-0.2,1.4-0.3c0.4-0.1,0.8-0.2,1.2-0.3c0.2-0.1,0.5-0.1,0.7-0.2
				c0.9-0.3,1.8-0.6,2.7-1c0.3-0.1,0.7-0.3,1-0.5c0.1,0,0.1-0.1,0.1-0.1c0.4-0.2,0.8-0.4,1.2-0.6c0.5-0.3,1-0.6,1.5-0.9
				c0.3-0.2,0.6-0.4,0.9-0.6c0.2-0.1,0.3-0.2,0.5-0.3c0.2-0.2,0.5-0.3,0.7-0.5c0.4-0.3,0.7-0.5,1.1-0.8c0.3-0.2,0.6-0.5,0.9-0.8
				c1.3-1.1,2.6-2.3,3.9-3.6c0.3-0.3,0.6-0.6,0.8-0.9c0.4-0.5,0.9-1,1.3-1.5c0.2-0.2,0.4-0.5,0.7-0.8c0.7-0.8,1.3-1.6,2-2.5
				c0.4-0.5,0.8-1.1,1.2-1.7c2.1-2.9,4.1-6.1,6.1-9.7c0.3-0.6,0.6-1.1,0.9-1.7c0.3-0.6,0.6-1.2,0.9-1.8c0.3-0.6,0.6-1.2,0.9-1.8
				c0.9-1.8,1.9-3.7,2.8-5.7c0.3-0.7,0.6-1.3,0.9-2c0.8-1.8,1.6-3.7,2.4-5.6c0.3-0.7,0.5-1.3,0.8-2l1.4,0.6h0
				c-0.3,0.8-0.6,1.5-0.9,2.2c-0.8,2-1.6,3.8-2.4,5.7c-1.3,2.9-2.6,5.7-4,8.3c-0.5,1.1-1.1,2.1-1.7,3.2c0,0,0,0.1-0.1,0.1
				c-0.3,0.5-0.6,1.1-0.9,1.6c-0.3,0.6-0.6,1.1-1,1.7c-0.4,0.7-0.9,1.4-1.3,2.2c-0.1,0.2-0.3,0.4-0.4,0.7c-0.3,0.5-0.6,0.9-0.9,1.4
				c-0.9,1.4-1.8,2.6-2.6,3.9c-0.2,0.3-0.4,0.6-0.7,0.9c-2.4,3.3-4.9,6.1-7.5,8.5c-0.3,0.3-0.6,0.5-0.9,0.8
				c-0.4,0.4-0.8,0.7-1.2,1.1c-0.7,0.6-1.4,1.1-2.1,1.6c-0.5,0.3-0.9,0.7-1.4,1c-0.3,0.2-0.6,0.4-0.9,0.6c-0.3,0.2-0.6,0.4-0.9,0.6
				c-0.2,0.1-0.4,0.2-0.5,0.3c-1.4,0.7-2.8,1.3-4.2,1.8c-0.2,0.1-0.4,0.1-0.6,0.2c-0.5,0.2-1,0.3-1.5,0.4c-0.5,0.1-1,0.2-1.5,0.3
				c-0.2,0-0.5,0.1-0.7,0.1c-0.5,0.1-0.9,0.1-1.4,0.2l-0.3,0c-0.4,0-0.8,0.1-1.3,0.1c-0.4,0-0.7,0-1.1,0c-0.1,0-0.1,0-0.2,0
				c-0.1,0-0.1,0-0.2,0c-0.2,0-0.4,0-0.6,0c-0.7,0-1.3-0.1-2-0.2c-0.1,0-0.2,0-0.3,0c-0.1,0-0.2,0-0.3,0c-0.2,0-0.4-0.1-0.7-0.1
				c-0.3,0-0.6-0.1-0.9-0.2c-0.3-0.1-0.6-0.1-0.8-0.2c-0.2-0.1-0.5-0.1-0.7-0.2c0,0-0.1,0-0.1,0c-0.3-0.1-0.6-0.2-0.9-0.3
				c-0.4-0.1-0.8-0.3-1.3-0.4c-0.5-0.2-0.9-0.3-1.4-0.5c-0.4-0.2-0.9-0.4-1.3-0.6c-0.4-0.2-0.9-0.4-1.3-0.6
				c-0.4-0.2-0.9-0.5-1.3-0.7c-0.4-0.2-0.9-0.5-1.3-0.8c-0.9-0.6-1.9-1.2-2.9-1.9c-0.4-0.3-0.8-0.5-1.1-0.8c-0.4-0.3-0.9-0.7-1.3-1
				c-0.4-0.4-0.9-0.7-1.3-1.1c-0.5-0.4-0.9-0.8-1.4-1.2c-0.9-0.8-1.8-1.7-2.7-2.5c-0.9-0.9-1.8-1.8-2.7-2.8c-0.9-1-1.8-2-2.7-3
				c-0.4-0.5-0.9-1.1-1.3-1.6c-0.5-0.5-0.9-1.1-1.3-1.7c-0.5-0.6-0.9-1.1-1.3-1.7c-1.3-1.7-2.6-3.6-4-5.5c-0.5-0.7-0.9-1.3-1.4-2
				c-0.5-0.7-0.9-1.3-1.3-2c-0.9-1.4-1.8-2.8-2.7-4.2c-0.4-0.7-0.9-1.4-1.3-2.2c-0.4-0.7-0.9-1.5-1.3-2.3c-0.4-0.6-0.8-1.3-1.1-1.9
				c-0.4-0.6-0.7-1.3-1.1-1.9c-0.3-0.5-0.6-1.1-0.9-1.6c-0.4-0.8-0.8-1.5-1.2-2.3c-0.7-1.3-1.3-2.6-2-3.8c-1.6-3.1-3.1-6.2-4.4-9.1
				c-0.3-0.6-0.5-1.1-0.8-1.7c-1.6-3.4-2.9-6.5-4.1-9.1c-0.2-0.4-0.4-0.9-0.6-1.3c-0.1-0.2-0.2-0.4-0.3-0.6
				c-0.2-0.4-0.3-0.8-0.5-1.2c-0.1-0.2-0.2-0.4-0.2-0.6c-0.1-0.4-0.3-0.7-0.4-1.1c-0.2-0.3-0.3-0.7-0.4-1c-0.1-0.3-0.2-0.6-0.4-0.9
				c-0.2-0.4-0.3-0.9-0.5-1.2c-0.1-0.2-0.2-0.5-0.3-0.7c-0.2-0.6-0.4-1.1-0.6-1.4c0-0.1-0.1-0.1-0.1-0.2
				C297.4,273.4,297.3,273.3,297.3,273.3C297.3,273.3,297.3,273.3,297.3,273.3z M420.5,330.8c-0.6,1-1.1,1.9-1.7,2.9c0,0,0,0,0,0
				c-1.1,1.9-2.2,3.7-3.4,5.5c-1.7,2.7-3.4,5.2-5.1,7.6c-0.6,0.8-1.1,1.6-1.7,2.3c-0.3,0.4-0.6,0.8-0.9,1.1
				c-1.4,1.9-2.9,3.6-4.3,5.3c-0.9,1-1.7,2-2.6,2.9c-0.4,0.5-0.9,0.9-1.3,1.4c-0.4,0.4-0.7,0.7-1.1,1.1c-0.4,0.4-0.7,0.7-1.1,1.1
				c-0.3,0.3-0.6,0.6-0.9,0.8c-0.3,0.3-0.6,0.6-0.9,0.9c-1.4,1.3-2.8,2.5-4.2,3.6c-0.3,0.2-0.6,0.5-0.9,0.7c-0.5,0.4-1,0.7-1.4,1.1
				c-6.3,4.4-12.6,7.1-19,8c0,0-0.1,0-0.1,0c-0.5,0.1-1.1,0.1-1.6,0.2c-0.2,0-0.4,0-0.6,0.1c-0.4,0-0.9,0.1-1.3,0.1
				c-3,0.1-6-0.1-9-0.8c-0.3-0.1-0.6-0.1-0.9-0.2c-1-0.2-2-0.5-3-0.9c-0.4-0.1-0.8-0.3-1.2-0.4c-0.4-0.1-0.7-0.3-1.1-0.4
				c-0.2-0.1-0.4-0.2-0.6-0.2c-0.3-0.1-0.6-0.2-0.9-0.4c-0.4-0.2-0.8-0.3-1.1-0.5c-0.5-0.2-1.1-0.5-1.6-0.8
				c-0.2-0.1-0.5-0.2-0.7-0.4c-0.2-0.1-0.5-0.2-0.7-0.4c-0.7-0.4-1.4-0.8-2.1-1.2c-0.6-0.4-1.2-0.7-1.7-1.1c-0.1,0-0.1-0.1-0.2-0.1
				c-0.8-0.5-1.6-1.1-2.3-1.6c-0.3-0.2-0.6-0.4-0.9-0.7c-0.3-0.2-0.6-0.5-1-0.7c-0.7-0.5-1.4-1.1-2.1-1.7c-0.4-0.4-0.9-0.8-1.3-1.1
				c-0.4-0.4-0.8-0.7-1.2-1.1c-0.6-0.6-1.2-1.1-1.8-1.7c-0.3-0.3-0.6-0.6-0.9-0.9c-0.6-0.6-1.2-1.2-1.7-1.8
				c-7.8-8.2-15.2-18.7-22.1-31.3c-0.4-0.7-0.7-1.3-1.1-2c-0.2-0.5-0.5-0.9-0.7-1.4c-0.2-0.4-0.5-0.9-0.7-1.3
				c-0.4-0.7-0.7-1.4-1.1-2.1v0c-0.3-0.6-0.6-1.2-0.9-1.9c-1.4-2.9-2.8-5.9-4.1-8.8c-0.3-0.6-0.5-1.2-0.8-1.7
				c-0.2-0.6-0.5-1.1-0.7-1.7c-0.2-0.6-0.5-1.1-0.7-1.7c-1.8-4.5-3.5-8.9-4.8-12.9c-0.8-2.3-1.5-4.6-2-6.7c-0.3-1-0.5-2-0.8-3
				c-0.2-1-0.4-1.9-0.6-2.8c-0.1-0.2-0.1-0.4-0.1-0.6c-0.1-0.8-0.3-1.5-0.4-2.2c0-0.3-0.1-0.5-0.1-0.8c0-0.3-0.1-0.7-0.1-1
				c0,0,0-0.1,0-0.1c0-0.3-0.1-0.6-0.1-0.8c0-0.3,0-0.7,0-1l1.5,0h0c0,0.2,0,0.4,0,0.6c0,0.6,0.1,1.2,0.1,1.8
				c0.1,0.9,0.2,1.8,0.4,2.7c0.1,0.5,0.2,1,0.3,1.5c0.1,0.5,0.2,1,0.3,1.5c0.1,0.5,0.2,1.1,0.4,1.6c0.6,2.1,1.2,4.4,2,6.8
				c0.2,0.6,0.4,1.2,0.6,1.8c0.1,0.4,0.3,0.9,0.4,1.3c0.1,0.4,0.3,0.8,0.4,1.2c0.4,1.2,0.9,2.4,1.3,3.6c0.2,0.4,0.3,0.8,0.5,1.2
				c0.3,0.8,0.6,1.6,0.9,2.4c0.3,0.8,0.6,1.6,1,2.4c0.3,0.8,0.7,1.6,1,2.4c0.8,1.9,1.6,3.7,2.4,5.6c0.2,0.5,0.5,1,0.7,1.6
				c0.4,0.8,0.7,1.5,1.1,2.3c0.4,0.8,0.8,1.6,1.1,2.4c0.3,0.7,0.7,1.3,1,2c1.3,2.6,2.5,5,3.7,7.1c6.8,12.5,14.2,22.9,21.9,31
				c9.1,9.6,18.4,15.6,27.5,17.8c1.9,0.5,3.8,0.7,5.7,0.9c0.2,0,0.5,0,0.7,0c0.1,0,0.1,0,0.2,0c0.2,0,0.5,0,0.7,0c0.4,0,0.7,0,1,0
				c0.3,0,0.6,0,0.9,0c0.2,0,0.5,0,0.7,0c0.3,0,0.5,0,0.8,0c0.1,0,0.2,0,0.3,0c0.1,0,0.2,0,0.3,0c0.5-0.1,1.1-0.1,1.6-0.2
				c0.5-0.1,1.1-0.2,1.6-0.2c1.1-0.2,2.1-0.4,3.2-0.7c0.4-0.1,0.7-0.2,1.1-0.3c0.5-0.2,1-0.3,1.5-0.5c2-0.7,4-1.6,6-2.7
				c0.6-0.3,1.1-0.6,1.7-1c0.3-0.2,0.6-0.4,0.8-0.5c0.6-0.4,1.1-0.7,1.7-1.1c0.3-0.2,0.6-0.4,0.8-0.6c0.2-0.2,0.5-0.3,0.7-0.5
				c0.2-0.2,0.5-0.3,0.7-0.5c0.4-0.3,0.7-0.5,1.1-0.8c1.4-1.1,2.8-2.3,4.2-3.6c0.7-0.6,1.4-1.3,2.1-2c1.1-1.1,2.2-2.2,3.2-3.4
				c0.3-0.3,0.5-0.6,0.8-0.9c0.4-0.4,0.8-0.9,1.2-1.4c0.3-0.4,0.7-0.8,1-1.2c0.3-0.4,0.7-0.8,1-1.2c1.9-2.3,3.8-4.8,5.7-7.5
				c0.3-0.4,0.5-0.8,0.8-1.1c0.3-0.5,0.6-0.9,0.9-1.4c2.4-3.5,4.7-7.3,7-11.3c0.9-1.5,1.7-3,2.6-4.6c0.4-0.8,0.9-1.6,1.3-2.4
				l1.3,0.7h0c-0.6,1-1.1,2.1-1.6,3.1C421.6,328.9,421,329.9,420.5,330.8z"/>
			<path class="st2" d="M408.4,176.7c0.4,0.1,0.8,0.2,1.1,0.3C409.1,176.9,408.8,176.8,408.4,176.7z"/>
			<path class="st2" d="M278.3,242.3c8.4,0.7,15-2.7,18.6-4.6c0.6-3.1,1.5-6.5,2.8-9.5c0.9-2,0.8-3.7-0.4-5.3c-2-2.9-6.8-4.2-8-4.3
				c0,0.2,0.1,0.6,0.2,0.8c0.3,1,0.6,2.1-0.1,2.9c-0.8,1-3.8,2.2-6.3,1.7c-1.7-0.3-2.9-1.3-3.5-2.9c-0.8-2.5-1-4.5-1.1-6.1
				c-0.1-0.8-0.1-1.4-0.2-2l-0.2-0.5c-0.9-0.1-4.2,1.2-7.4,3.4c-2.7,1.8-3.4,2.9-3.5,3.3c-0.1,2.2,4.2,16,8.3,22.1
				C277.9,241.6,278.1,241.9,278.3,242.3z"/>
		</g>
		<g>
			<path d="M332.2,151.4c-1-0.4-2.1,0.4-2.6,1.7c-0.5,1.3-0.1,2.6,0.8,3s2.1-0.4,2.6-1.7C333.6,153.1,333.2,151.7,332.2,151.4z"/>
			<path d="M360.6,146.3c-0.7-0.1-0.9,0.4-0.9,0.5c-0.1,0.4,0,0.8,0.4,1c0.1,0.1,0.2,0.1,0.4,0.1c0.3,0.1,0.8,0.3,1.4,0.7
				c-0.2,1.3-1.4,3.3-1.9,3.9c-0.2,0.3-0.2,0.8,0.2,1c0.1,0.1,0.2,0.1,0.3,0.1c0.3,0.1,0.6,0,0.8-0.3c0-0.1,1.2-1.7,1.8-3.4
				c0.3,0.5,0.5,1.2,0.6,2c0,0.3,0.2,0.6,0.5,0.6c0.1,0,0.2,0,0.3,0c0.4,0,0.7-0.4,0.7-0.8C364.7,147.7,361.4,146.4,360.6,146.3z"/>
			<path d="M328.2,146.8c0,0.1,0.1,0.1,0.2,0.2c0.3,0.1,0.6,0,0.8-0.3c0.1-0.1,2.2-2.8,6.5-1.6c0.4,0.1,0.8-0.1,0.9-0.5
				c0.1-0.4-0.1-0.8-0.5-0.9c-5.4-1.5-8,2-8.1,2.2C327.8,146.1,327.9,146.6,328.2,146.8z"/>
			<path d="M466.8,206c-1.6-1.1-3.2-2.2-4.9-3.4c-14-9.4-28.4-18.3-44.1-24.4c-0.6-0.2-1.2-0.4-1.7-0.6c0,0-0.1,0.1-0.2,0.1
				c0,0,0-0.1,0-0.1c-4.2-1.8-8.6-3-13-4.2c-0.7-0.2-1.2-0.2-1.5,0.7c-0.5,1.5-1,2.9-1.6,4.3l-10.5-10.1c3.1-1.9,4.5-7.1,3.6-10.3
				c-0.9-3.1,0.6-8,4.1-8.3c3.6-0.2,12.1-6.4,4.8-13.1c-7.3-6.7-14.2-4.3-15.5-7c-1.3-2.6,0.3-2.6,3.7-5.3c3.4-2.6,3.9-8.9-2.8-12.9
				c-6.7-3.9-14.2-1.2-17.8,2.9s-10.1,2-8.6-0.8c1.5-2.9,1.6-8.3-10.1-9.8c-11.7-1.5-9.1,15.3-12.2,12.8c-3.7-3-8.8-1.4-8.8-1.4
				c-2.9,0.8-4.6,3.4-5.6,6.1c-1.5,4.1,0.3,8.2,3.5,10.2c-0.7,3.4-1.9,9.2-2.8,14.4c-0.9-1.1-2.1-1.7-3.2-1.6
				c-2.6,0.3-4.2,3.9-3.8,8.2c0.2,1.7,0.7,3.2,1.3,4.4c-2.1,0.6-4.5,1.5-5.1,3.1c-0.4,0.9-0.2,1.9,0.5,3c1.3,2,4,3.6,6.3,5.1
				c1.3,0.8,3.3,2,3.4,2.5c0,1.1,0.5,6.2,2.4,11c2.6,6.5,6.7,9.9,11.9,10c9.8,0.1,16.3-2.9,18.5-4.1c1.1,2.6,4.6,11,8.4,19.1
				c-2.1,1.2-3.6,3.3-5,5.4c-1.9,3.1-3.8,6.3-5.4,9.7l-3.2,7.6c0,0,0,0,0,0c-2.8,7.5-5,15.2-6.5,23.1c-1.3,7.4-2.2,14.9-1.8,22.5
				c0.1,0,0.1,0,0.1,0c0,0,0,0-0.1,0c0.1,3.2,0.2,6.5,0.9,9.6c0.5,2.2,1.3,4.4,2.6,6.4c0,0,0,0,0.1,0.1c1.3,5.7,2.5,11.4,3.8,17.2
				l-5.2-7.3l-1.9-2.3c-1.2-1.5-3.6-4.4-6.6-8.3c-10.1-12.8-27.5-35.7-34.9-50.2l-0.2-0.5l0,0c-0.1-0.1-0.1-0.2-0.2-0.3
				c-0.4-0.7-1-1.9-1.4-2.6l-0.5-0.8l-0.9,0.4c-0.2,0.1-0.3,0.2-0.6,0.3c0.6-2.6,1.4-5.5,2.5-8c1.1-2.5,0.9-4.9-0.6-7
				c-2.6-3.5-8.4-5-9.6-4.8c-0.1,0-0.2,0-0.2,0.1l-5.5-14.9c-0.3-0.7-1.1-1.1-1.8-1l-1.8-6.3c0.2-0.1,0.4-0.2,0.5-0.3
				c2.7-1.4,4.6-4.3,5.5-8.3c0.9-4.4,0.5-9.6-1.4-14.7c-1.8-5.1-4.7-9.5-8.2-12.3c-2.7-2.2-5.4-3.3-8.1-3.2l0-0.2
				c-0.1,0-9.2-0.8-11.8,9.6c-1.2,4.7-0.8,10.2,1.1,15.6c1.7,4.9,4.6,9.2,7.8,11.9l0,0c0.1,0.1,2.1,1.7,5,2.6
				c0.4,0.1,0.9,0.3,1.4,0.4c0.9,0.2,1.9,0.3,2.8,0.3l2.1,6.4c-0.8,0.3-1.3,1.1-1,1.9l2.3,6.5c-3.1,0.5-11.6,5.3-11.8,8
				c-0.2,3,4.6,17.1,8.5,22.9c-0.6,0-1.2,0-1.6,0.3c-0.6,0.4-0.6,1.1-0.5,1.3l0,0.2c0,0.1,0,0.4,0,0.6c0.4,12.1,2.2,36.3,9.9,62.1
				c2.4,8.1,5.2,15.6,8.3,22.6c3.4,7.7,7.3,14.7,11.6,20.9c10.1,14.7,22.6,25.4,37,31.7c0.2,0.1,0.5,0.2,0.8,0.3
				c6.3,2.6,12.9,4.5,19.8,5.6c0,0,2.6,0.2,7.1-0.7c0,0.3,0,0.6,0.1,0.9c0.4-0.2,0.8-0.5,1.2-0.8c0-0.1,0-0.2,0-0.3
				c0.2,0,0.4-0.1,0.6-0.1c0.1,0,0.2,0,0.3-0.1c1.9-1.3,3.8-2.5,5.7-3.8c-1.8,0.6-3.5,1.1-5.1,1.5c-0.4,0.1-0.8,0.2-1.1,0.3
				c-0.2,0.1-0.4,0.1-0.6,0.1c-0.3,0.1-0.7,0.2-1,0.2c-4.1,0.8-6.5,0.7-6.5,0.7c-7-1.1-13.8-3-20.1-5.7
				c-14.1-6.1-26.2-16.6-36.1-30.9c-4.4-6.3-8.3-13.4-11.7-21.2c-3-6.7-5.6-14-7.9-21.7c-7.6-25.6-9.4-49.5-9.8-61.6
				c0-0.1,0-0.2,0-0.3c0.2,0,0.5,0.1,0.7,0.2l0.4,0.1c0.1,0,0.2,0,0.4,0c0.3,0,0.6,0,0.9,0.1c0.3,0,0.6,0,0.8,0
				c7.2,0.2,13.1-2.2,16.8-4.1c0.3-0.2,0.6-0.3,0.9-0.5c0.3-0.2,0.6-0.3,0.9-0.5c0.1-0.1,0.3-0.1,0.4-0.2c0.2-0.1,0.5-0.3,0.7-0.4
				c0.3,0.6,0.6,1.2,0.8,1.6c0.2,0.3,0.3,0.6,0.4,0.8c1.9,3.7,4.5,8,7.4,12.5c-3,3.1-12.3,11-26.7,10.9l0,1.5c9.6,0,17-3.3,21.4-6.2
				c2.8-1.8,4.9-3.6,6.1-4.8c8.5,12.9,19.6,27.5,26.9,36.7c3,3.9,5.4,6.8,6.6,8.3l1.9,2.3l8,11.3l1.4,2.1l0.9,1.2l3.6,5.2
				c0.6,1.1,1.6,2.6,3.1,2.6c1.7,0.1,2.9-1.6,4.4-3.7c0.9-1.2,1.9-2.6,3.2-3.9c7.3-7.2,7.7-15.9,8-21.7c0.1-1.6,0.2-3,0.4-4.2
				c0-0.1,0-0.2,0.1-0.4l-2.1-0.5c-0.3,1.3-0.4,3-0.5,4.9c-0.3,5.8-0.7,13.6-7.4,20.3c-1.4,1.4-2.4,2.8-3.4,4.2
				c-0.9,1.2-2,2.8-2.5,2.8c-0.1,0-0.5-0.1-1.4-1.6l-6.7-9.5c-1.2-5.3-2.3-10.7-3.3-16c0.8-0.6,1,0.3,1.3,0.7c1.7,1.8,3.2,3.7,5,5.4
				c1.8,1.8,3.8,3.5,6.6,3.7c2.4,0.2,3.7-1,3.3-3.4c-0.3-2.3-1.3-4.5-2.3-6.6c-2.8-5.9-6.2-11.6-8.8-17.7c-0.1-0.2-0.2-0.4-0.3-0.6
				c-3.1-7.3-5.6-14.9-6.8-22.8c0-0.1,0-0.2,0-0.2c0,0-0.1,0-0.1,0c-0.4-2.5,0.3-4.8,0.9-7.2c0.4-1.3,0.6-2.5,0.9-3.8
				c2.9-10.5,6.5-20.6,12.4-29.8c1.2-1.9,2.5-3.5,4.2-4.6c0.2-0.1,0.4-0.3,0.6-0.4c0.2-0.1,0.5-0.2,0.7-0.3c0.5-0.2,1-0.4,1.6-0.6
				c14.4-3.9,24.6-12.9,31.4-25.8c0.1-0.2,0.2-0.4,0.3-0.6c0.1-0.2,0.3-0.5,0.4-0.8c0-0.1,0.1-0.1,0.1-0.2c0.7-1.4,0.8-3.6,2.1-4.1
				c1.4-0.6,3.1,0.6,4.7,1.1c0.4,0.1,0.8,0.2,1.1,0.3c-0.4-0.1-0.8-0.2-1.1-0.3l2.4,1c0.5,0.2,1,0.4,1.3,0.6c1.1,0.6,1,1,0.4,3.1
				c-0.8,2.7-1.8,5.3-2.9,7.7c-0.2,0.5-0.5,1-0.7,1.5c-0.2,0.4-0.5,0.9-0.7,1.3c-7.5,13.6-20.1,20.8-36.8,23h0
				c-0.3,0.1-0.6,0.1-0.9,0.1c-0.2,0-0.5,0-0.8,0c-1,0-2.1,0-3.1,0c-0.7,0-1.5-0.1-1.4,0.9c0,1,0.8,1.1,1.6,1.1
				c1.3-0.1,2.6-0.1,4-0.2c0.3,0,0.5,0,0.8-0.1c0.3,0,0.6-0.1,0.9-0.1c12.1-1.3,22.8-6,31.4-15.3c1.5-1.6,2.8-3.3,4-5.1
				c0.3-0.5,0.6-0.9,0.9-1.4c0.3-0.5,0.6-1,0.9-1.6c2.3-3.9,4.1-8.2,5.3-12.7c0.2-0.9,0.6-1.2,1.2-1c0.2,0,0.3,0.1,0.6,0.2
				c0.6,0.3,1.2,0.5,1.8,0.8c0,0,0-0.1-0.1-0.1c3.4,1.6,7,3,10.3,4.7c12,6.2,23.5,13.2,34.7,20.9c0.5,0.3,0.9,0.6,1.4,1
				c20.5,14.2,39.4,30.4,56.3,48.6c0.4-0.5,0.8-0.9,1.2-1.4C505.5,236.3,487.1,220.2,466.8,206z M273.4,194.3
				c-0.1,0-0.2-0.1-0.3-0.1c-0.2-0.1-0.4-0.1-0.6-0.2c-0.2-0.1-0.3-0.1-0.5-0.2c-0.4-0.1-0.7-0.3-1.1-0.4c-0.1-0.1-0.2-0.1-0.3-0.1
				c-1-0.4-1.7-0.9-2.2-1.2c-0.3-0.2-0.5-0.3-0.5-0.4c-0.1-0.1-0.2-0.2-0.3-0.3c-0.1-0.1-0.2-0.2-0.3-0.3c-0.2-0.2-0.5-0.4-0.7-0.7
				c-0.5-0.5-0.9-1-1.4-1.6c-0.2-0.3-0.4-0.6-0.7-0.9c0,0,0,0-0.1-0.1c-0.2-0.3-0.4-0.5-0.6-0.8c-0.2-0.3-0.4-0.6-0.6-0.9
				c0,0,0-0.1,0-0.1c-0.2-0.3-0.4-0.7-0.6-1c-0.2-0.4-0.4-0.7-0.6-1.1c-0.2-0.4-0.3-0.7-0.5-1.1v0c-0.1-0.2-0.1-0.3-0.2-0.5
				c-0.1-0.2-0.1-0.3-0.2-0.5c-0.1-0.3-0.3-0.7-0.4-1.1c0,0,0,0,0,0c-0.1-0.2-0.2-0.5-0.2-0.7c-0.1-0.4-0.2-0.7-0.4-1.1
				c-0.1-0.3-0.2-0.6-0.2-0.8c-0.2-0.8-0.4-1.7-0.6-2.5c0,0,0,0,0,0c-0.1-0.4-0.1-0.8-0.2-1.1c-0.1-0.4-0.1-0.8-0.1-1.1c0,0,0,0,0,0
				c0-0.4-0.1-0.8-0.1-1.1c0-0.4,0-0.8,0-1.1V171c0-0.2,0-0.5,0-0.8c0-0.2,0-0.4,0-0.6c0-0.2,0-0.3,0-0.5c0,0,0,0,0-0.1
				c0-0.2,0-0.4,0.1-0.7c0-0.2,0.1-0.4,0.1-0.7c0.1-0.4,0.2-0.9,0.2-1.3c0-0.2,0.1-0.4,0.2-0.6c0.1-0.3,0.2-0.7,0.3-1
				c0.2-0.6,0.4-1.2,0.7-1.8c0.3-0.6,0.6-1.1,0.9-1.6c0,0,0,0,0,0c0.3-0.5,0.7-0.9,1.1-1.3c0.2-0.2,0.4-0.4,0.6-0.6
				c-1.1,1.5-2,3.4-2.5,5.7c-0.5,2.2-0.6,4.6-0.4,7.1c0,0.4,0.1,0.7,0.1,1c0,0.3,0.1,0.6,0.1,0.8c0,0.3,0.1,0.6,0.1,0.8
				c0.1,0.3,0.1,0.7,0.2,1c0.1,0.3,0.2,0.7,0.2,1c0,0,0,0,0,0c0.2,0.9,0.5,1.8,0.9,2.8c0.1,0.4,0.3,0.8,0.4,1.2
				c0.3,0.8,0.6,1.5,1,2.3c0.2,0.4,0.4,0.7,0.5,1.1c0.2,0.4,0.4,0.7,0.6,1.1c0.2,0.3,0.4,0.7,0.6,1c0.2,0.3,0.4,0.6,0.6,1
				c0.2,0.3,0.5,0.6,0.7,0.9c0.3,0.4,0.7,0.8,1,1.2c0.2,0.2,0.3,0.4,0.5,0.5c0.3,0.4,0.6,0.7,1,1l0.1,0.1c0.1,0.1,0.3,0.2,0.4,0.4
				c0.2,0.2,0.5,0.4,0.8,0.6c0.5,0.4,1.1,0.8,1.7,1.2c0.6,0.4,1.1,0.7,1.7,0.9l0,0C273.6,194.3,273.5,194.3,273.4,194.3z M271.3,191
				c-3.3-2.7-6-6.8-7.8-11.6c-3.5-9.8-1.5-19.5,4.4-21.6c1.3-0.4,2.6-0.5,4-0.2c1.7,0.4,3.5,1.3,5.2,2.7c3.3,2.7,6,6.8,7.8,11.6
				c3.2,9.2,1.8,18.2-3.2,21.1c0,0-0.1,0.1-0.1,0.1c-0.3,0.2-0.7,0.3-1,0.5C277.8,194.5,274.5,193.6,271.3,191z M298.4,231.5
				c0,0.1-0.1,0.2-0.1,0.3c-0.1,0.3-0.2,0.6-0.3,0.9c0,0.1,0,0.1-0.1,0.2c-0.1,0.4-0.2,0.8-0.3,1.2c-0.2,0.8-0.4,1.6-0.6,2.4
				c-0.1,0.4-0.2,0.8-0.2,1.2c-0.4,0.2-0.8,0.5-1.3,0.7c-0.2,0.1-0.5,0.2-0.8,0.4c-0.5,0.3-1.1,0.5-1.7,0.8
				c-0.3,0.1-0.6,0.3-0.9,0.4c-0.3,0.1-0.6,0.3-1,0.4c-0.3,0.1-0.7,0.2-1,0.4c-0.7,0.2-1.4,0.5-2.2,0.7c-0.3,0.1-0.6,0.2-0.9,0.2
				c-0.3,0.1-0.5,0.1-0.8,0.2c-0.3,0.1-0.6,0.1-0.9,0.2c-0.3,0-0.5,0.1-0.8,0.1c-0.2,0-0.5,0.1-0.7,0.1c-0.2,0-0.5,0.1-0.7,0.1h-0.1
				c-0.3,0-0.7,0.1-1,0.1c-0.2,0-0.4,0-0.6,0c-1.1,0-2.2,0-3.3-0.1h0c-0.2-0.4-0.4-0.7-0.7-1c-4.1-6.1-8.5-19.9-8.3-22.1
				c0,0,0,0,0-0.1c0,0,0,0,0-0.1c0-0.1,0.1-0.2,0.1-0.2c0.1-0.1,0.1-0.2,0.2-0.3c0.1-0.1,0.2-0.2,0.3-0.3c0,0,0,0,0.1-0.1
				c0.1-0.1,0.1-0.1,0.2-0.2c0.1-0.1,0.3-0.3,0.4-0.4c0.1-0.1,0.2-0.1,0.2-0.2c0.2-0.1,0.3-0.3,0.5-0.4c0.2-0.2,0.4-0.3,0.6-0.5
				s0.5-0.3,0.7-0.5c0.4-0.2,0.7-0.5,1-0.7c0.5-0.3,0.9-0.6,1.4-0.8c0,0,0.1,0,0.1,0c0.3-0.2,0.5-0.3,0.8-0.4c0,0,0.1,0,0.1,0
				c0.1,0,0.1-0.1,0.2-0.1c0.3-0.2,0.6-0.3,0.8-0.4c0.4-0.2,0.9-0.4,1.2-0.5c0.1,0,0.2-0.1,0.4-0.1c0.2-0.1,0.4-0.1,0.6-0.2
				c0.1,0,0.2,0,0.3-0.1c0.1,0,0.1,0,0.2,0c0,0,0.1,0,0.1,0c0.1,0,0.2,0,0.2,0l0.2,0.5c0,0.3,0.1,0.6,0.1,0.9s0.1,0.7,0.1,1.1
				c0,0.3,0,0.6,0.1,0.9c0,0,0,0,0,0.1c0,0.1,0,0.2,0,0.2c0,0.2,0,0.4,0.1,0.5c0,0.2,0,0.4,0.1,0.5c0,0.1,0,0.3,0.1,0.4
				c0,0.3,0.1,0.5,0.1,0.8c0.1,0.3,0.1,0.6,0.2,0.8c0.1,0.2,0.1,0.4,0.2,0.6c0.1,0.4,0.2,0.8,0.3,1.1c0.1,0.2,0.1,0.3,0.2,0.5
				c0,0,0,0,0,0.1c0,0,0,0.1,0,0.1c0.1,0.1,0.1,0.2,0.2,0.4c0,0,0,0,0,0.1c0,0,0,0,0,0.1c0.1,0.1,0.1,0.2,0.2,0.3
				c0,0.1,0.1,0.1,0.1,0.1c0.1,0.2,0.3,0.3,0.4,0.4c0.1,0.1,0.3,0.2,0.5,0.3c0.2,0.1,0.3,0.2,0.5,0.3c0,0,0.1,0,0.1,0
				c0.1,0,0.2,0.1,0.3,0.1c0.1,0,0.2,0.1,0.3,0.1c0.2,0,0.3,0.1,0.5,0.1c0.2,0,0.4,0.1,0.6,0.1c0.2,0,0.4,0,0.6,0h0.1
				c0.1,0,0.3,0,0.4,0c0.2,0,0.5,0,0.7-0.1c0,0,0.1,0,0.1,0c0.2,0,0.4-0.1,0.6-0.1c0,0,0.1,0,0.1,0c0.1,0,0.1,0,0.2-0.1
				c0.2-0.1,0.4-0.1,0.6-0.2c0.9-0.3,1.7-0.7,2.2-1.1c0.1-0.1,0.1-0.1,0.2-0.2c0.1-0.1,0.1-0.1,0.1-0.2c0.4-0.5,0.4-1.1,0.4-1.7
				c0-0.3-0.1-0.6-0.2-0.9c0-0.1-0.1-0.3-0.1-0.4c0-0.1-0.1-0.1-0.1-0.2c0,0,0-0.1-0.1-0.2c0-0.2-0.1-0.3-0.1-0.4
				c1.2,0.1,6,1.5,8,4.3c1.1,1.6,1.2,3.3,0.4,5.3c-0.1,0.3-0.3,0.6-0.4,0.9c-0.1,0.3-0.2,0.5-0.3,0.8c-0.1,0.2-0.2,0.5-0.3,0.7
				C298.6,230.9,298.5,231.2,298.4,231.5z M329,132.2c1.5,0.6,3.1,0.8,4.8,0.4c0.1,0,0.3,0,0.3-0.1c5.4-1.4,12.4,8.8,17.1,12.3
				l-24.8,4.3c-0.1-0.5-0.3-0.9-0.5-1.3C326.9,142.4,328.2,136.1,329,132.2z M319.3,150.6C319.3,150.6,319.3,150.5,319.3,150.6
				c0-0.2,0-0.3,0-0.4c0-0.1,0-0.2,0-0.4c0-0.1,0-0.2,0.1-0.3c0-0.3,0.1-0.6,0.2-0.9c0-0.1,0-0.2,0.1-0.2c0,0,0,0,0,0
				c0-0.1,0.1-0.2,0.1-0.3c0.1-0.3,0.2-0.5,0.3-0.8c0.2-0.4,0.4-0.7,0.6-0.9c0.1-0.2,0.3-0.3,0.5-0.4c0.2-0.1,0.4-0.2,0.6-0.2
				c0.2,0,0.4,0,0.5,0.1c0.6,0.2,1.2,0.7,1.7,1.4c0.1,0.1,0.2,0.3,0.3,0.4c0.1,0.2,0.2,0.3,0.2,0.5c0.1,0.2,0.2,0.4,0.3,0.6
				c0.1,0.2,0.2,0.5,0.2,0.7c0.1,0.2,0.1,0.3,0.1,0.5c0.1,0.2,0.1,0.5,0.2,0.8c0,0.3,0.1,0.5,0.1,0.8c0,0.1,0,0.2,0,0.2
				c0,0.4,0.1,0.8,0.1,1.2c0,0.2,0,0.5,0,0.7v0.1c0,0.1,0,0.2,0,0.3c0,0.2,0,0.4-0.1,0.6c0,0.1,0,0.3-0.1,0.4
				c-0.1,0.4-0.2,0.8-0.3,1.1c0,0.1-0.1,0.2-0.1,0.3c0,0.1-0.1,0.1-0.1,0.2c-0.2,0.5-0.5,0.9-0.8,1.2c-0.1,0.2-0.3,0.3-0.5,0.4
				c-0.2,0.1-0.4,0.1-0.6,0.2c-0.1,0-0.1,0-0.2,0c-0.1,0-0.1,0-0.2,0c0,0,0,0-0.1,0c-0.1,0-0.1,0-0.2-0.1c-0.1,0-0.1,0-0.2-0.1
				c-0.1,0-0.2-0.1-0.3-0.2c0,0,0,0-0.1,0c-0.1-0.1-0.2-0.1-0.3-0.2c-0.1-0.1-0.2-0.2-0.3-0.3c-0.1-0.1-0.2-0.2-0.2-0.3
				c-0.1-0.1-0.2-0.2-0.2-0.3c0,0,0,0,0,0c0-0.1-0.1-0.1-0.1-0.2c0-0.1-0.1-0.1-0.1-0.2c-0.1-0.1-0.2-0.3-0.2-0.5
				c-0.2-0.3-0.3-0.7-0.4-1c-0.1-0.1-0.1-0.3-0.2-0.5c0-0.1-0.1-0.2-0.1-0.3c-0.1-0.1-0.1-0.3-0.1-0.4c-0.1-0.2-0.1-0.4-0.1-0.6
				c0-0.3-0.1-0.6-0.1-0.9C319.2,151.8,319.2,151.2,319.3,150.6z M371.8,204.6c-0.9,0.4-1.7,0.8-2.6,0.9c-0.9,0.1-1.7,0.3-2.4,0.5
				c-0.1-0.3-0.3-0.6-0.4-0.9c-1.8-10.5,0.4-19.4,2.1-24.1c0.3-0.8-0.6-1.6-1.4-1c-3.8,2.7-9.5,5.4-9.5,5.4c0,0,0,0,0,0L357,186
				c0,0-6.9,4.5-18.4,4.4c-4.6-0.1-8.2-3.1-10.5-9.1c-0.4-1.1-0.8-2.3-1.1-3.4c2-0.1,7.6-0.2,14.5,1.3l0.3-1.4
				c-7.5-1.6-13.5-1.4-15.2-1.3c-0.6-2.8-0.9-5.1-0.8-5.8c0-1.3-1.7-2.3-4.1-3.8c-2.1-1.3-4.7-2.9-5.9-4.6c-0.6-1-0.4-1.5-0.4-1.6
				c0.5-1.1,2.8-1.9,4.6-2.4c0.7,0.8,1.4,1.3,2.2,1.5c0.3,0.1,0.7,0.1,1.1,0.1c2.6-0.2,4.2-3.9,3.8-8.2c0-0.4-0.1-0.7-0.2-1.1
				l26.6-4.7c0.1,0,0.2,0,0.3,0.1c1.7,0.1,3.8-6.6,11.4-2c7.6,4.6,1.8,12.4,2.4,14.5c0.6,2.1,10.4,7.7,16.9,10.2
				c1.2,0.5,2.4,0.6,3.4,0.3l11.4,11C393.8,191.8,384.2,199.6,371.8,204.6z M502.3,257c-12.2-13.8-25.8-26.2-40.9-36.7
				c-3.2-2.2-6.5-4.4-9.8-6.5c-5.9-3.7-12-7.1-18.4-10.1c-5.5-2.6-11.1-4.7-17.1-5.8c-0.9-0.2-2.4-1.1-2.6,0.1
				c-0.3,1.3,1.4,1.6,2.4,1.8c4.4,0.5,8.5,2.2,12.5,3.9c7.4,3.1,14.5,7,21.2,11.3c2,1.2,3.9,2.5,5.9,3.8
				c20.8,14,38.7,30.9,54.3,50.2c0.4-0.5,0.9-1,1.3-1.5C508.3,263.9,505.3,260.4,502.3,257z M435.5,327.1l-0.3-1
				c-0.2,0.1-0.5,0.2-0.7,0.4c-1.3,0.9-2.3,3.2-3.6,6.7c-0.1,0.2-0.2,0.4-0.3,0.7c-1.6,4-3.5,9.1-6.8,14.3c2.3-1.8,4.6-3.7,6.9-5.5
				c0.5-2.3,1-4.6,1.4-6.9c0.2-0.4,0.3-0.8,0.5-1.1c1.2-3,2.4-6.2,3.3-6.5L435.5,327.1z"/>
			<path d="M456.8,317.5c0.4,0.7,0.7,1.5,1.1,2.2c-0.5,0.4-1,0.9-1.5,1.3c-0.3-0.7-0.6-1.3-1-2c-2.7-5.5-5.6-10.8-8.8-16
				c-1.9-3.1-3.9-6.1-5.9-9.1c0,0,0,0,0,0c-1.4-2-2.8-4-4.2-5.9c-1.1-1.4-2.1-2.8-3.2-4.2c-1.2-1.5-2.4-2.9-3.6-4.4
				c-1.6-1.9-3.2-3.7-4.9-5.5c-1.5-1.6-3-3.2-4.5-4.8c-0.5-0.5-1-1-1.5-1.5s-1-1-1.6-1.5c-0.8-0.7-1.6-1.5-2.3-2.2
				c-0.6-0.5-1.1-1-1.7-1.5c-5.8-5.2-12-10-18.5-14.2c0,0,0,0,0,0c-8.2-5.4-16.8-10.1-26-14c-3.7-1.6-7.6-2.7-11.6-3.8
				c-0.2,0-0.4-0.1-0.6-0.2c-0.4-0.2-0.6-0.7-0.4-1.2c0-0.1,0.1-0.2,0.1-0.3c0.1-0.1,0.1-0.1,0.1-0.2c0.1-0.1,0.1-0.1,0.1-0.1
				c0.3-0.1,0.7,0.2,1.1,0.3c0,0,0.1,0,0.1,0.1c0.3,0.1,0.7,0.2,1.1,0.2c2,0.5,3.9,1.1,5.8,1.8c0.9,0.3,1.8,0.6,2.7,1
				c0.4,0.2,0.9,0.3,1.3,0.5c1.7,0.7,3.4,1.4,5.1,2.1c5.1,2.2,9.9,4.8,14.7,7.6c2.7,1.6,5.4,3.3,8,5.1c9.7,6.5,18.7,14,26.8,22.5
				c1.6,1.6,3.2,3.3,4.7,5c0.8,0.9,1.5,1.7,2.3,2.6c2.7,3.1,5.2,6.3,7.6,9.5c1.2,1.6,2.4,3.3,3.6,4.9c2.7,3.8,5.2,7.8,7.7,11.8
				C451.9,308,454.4,312.7,456.8,317.5z"/>
			<path d="M482.1,266.5c4.8,5.7,9.3,11.6,13.4,17.7c-0.4,0.4-0.9,0.9-1.3,1.4c-3.7-5.5-7.6-10.7-11.8-15.8
				c-1.2-1.4-2.4-2.8-3.6-4.2c-2.4-2.8-4.9-5.5-7.5-8.2c-0.6-0.7-1.3-1.3-2-2c-1.3-1.3-2.6-2.6-4-3.9c-0.7-0.6-1.4-1.3-2.1-1.9
				c-1.4-1.3-2.8-2.5-4.2-3.7c-1.4-1.2-2.8-2.5-4.3-3.6c-1.4-1.2-2.9-2.4-4.4-3.5c-4.7-3.7-9.5-7.1-14.5-10.3
				c-1.4-0.9-2.9-1.8-4.3-2.7c-0.2-0.1-0.4-0.2-0.6-0.4c-1.2-0.8-2.5-1.5-3.8-2.2c-1.5-0.8-3-1.6-4.5-2.4s-3-1.5-4.6-2.2
				c-0.8-0.4-1.5-0.7-2.3-1.1c-2.2-0.9-4.4-1.9-6.6-2.6c-0.6-0.2-1.1-0.3-1.7-0.5c-1.7-0.5-3.4-0.8-5-1c-0.3-0.1-0.5-0.2-0.8-0.2
				c-0.1,0-0.2-0.1-0.3-0.1c-0.1-0.1-0.2-0.1-0.3-0.2c-0.1,0-0.1-0.1-0.2-0.1c-0.1-0.1-0.2-0.3-0.2-0.5c0-0.1,0-0.2,0-0.4
				c0-0.1,0.1-0.2,0.1-0.3c0-0.1,0.1-0.1,0.1-0.2c0.2-0.2,0.4-0.2,0.6-0.1c0.3,0.1,0.5,0.2,0.8,0.3c0,0,0.1,0,0.1,0
				c3,0.5,6,1.3,8.9,2.3c0.4,0.1,0.8,0.3,1.2,0.4c5,1.7,9.7,4.1,14.3,6.6c0.7,0.4,1.4,0.8,2.1,1.2c1.3,0.8,2.6,1.5,3.9,2.3
				c0.9,0.6,1.8,1.1,2.7,1.7c1.7,1.1,3.4,2.1,5,3.2c1.3,0.8,2.5,1.7,3.8,2.6c5,3.5,9.8,7.2,14.4,11.1c4.7,4,9.1,8.2,13.3,12.5
				C475.5,259,478.9,262.7,482.1,266.5z"/>
			<path d="M472.7,306.4c-0.1,0.1-0.2,0.2-0.4,0.3c-0.4,0.3-0.7,0.7-1.1,1c0,0,0,0,0,0c-0.6-1-1.1-2-1.7-3c0,0,0,0,0,0
				c-1.2-2-2.3-3.9-3.5-5.9c-0.6-1-1.2-1.9-1.8-2.9c-0.9-1.4-1.8-2.8-2.7-4.2c-4.2-6.2-8.6-12.2-13.4-17.9c-1.1-1.3-2.1-2.5-3.2-3.8
				c-0.5-0.6-1.1-1.2-1.6-1.9c-1.7-1.8-3.4-3.7-5.1-5.4c-4.6-4.8-9.5-9.3-14.8-13.6c-0.6-0.5-1.2-0.9-1.7-1.4
				c-1.2-0.9-2.3-1.8-3.5-2.8c-0.6-0.5-1.2-0.9-1.8-1.3c-1.8-1.3-3.6-2.6-5.5-3.8c-0.6-0.4-1.2-0.8-1.8-1.2
				c-5-3.2-10.2-6.2-15.7-8.7c-4.4-2-8.9-3.8-13.5-5.2c-0.2-0.1-0.5-0.2-0.7-0.2c-0.4,0-0.6-0.2-0.6-0.5c0-0.1,0-0.3,0-0.4
				c0-0.1,0-0.2,0.1-0.3c0,0,0,0,0,0c0,0,0,0,0,0c0.3-1,1-0.7,1.7-0.5c0.3,0.1,0.6,0.2,1,0.3c0.2,0.1,0.4,0.1,0.6,0.2
				c0.4,0.1,0.7,0.2,1.1,0.3c0.4,0.1,0.8,0.3,1.2,0.4c6.8,2.2,13.2,5.5,19.3,9.1c2.5,1.5,4.9,3,7.2,4.6c9.9,6.6,19,14.1,27.4,22.6
				c1.2,1.2,2.4,2.4,3.5,3.7c0.6,0.6,1.1,1.2,1.6,1.8c0.2,0.2,0.3,0.4,0.5,0.5c0.5,0.5,0.9,1,1.4,1.5c2.3,2.6,4.5,5.2,6.7,7.9
				C459.7,285.3,466.6,295.6,472.7,306.4z"/>
			<path d="M440.5,321.5c1.4,3.2,2.8,6.4,4,9.7c-0.5,0.4-0.9,0.8-1.4,1.2c-0.1-0.2-0.2-0.5-0.2-0.7c-5.6-14.7-13.2-28.4-23.1-40.8
				c-1.4-1.7-2.7-3.3-4.1-4.9c0,0,0,0,0,0c-0.9-1.1-1.9-2.1-2.9-3.1c0,0,0,0,0,0c-1-1-1.9-2.1-2.9-3.1c-3-3-6-5.9-9.2-8.6
				c-1.6-1.4-3.2-2.7-4.9-4c-4.6-3.6-9.4-6.8-14.5-9.8c-4.6-2.8-9.5-5.2-14.5-7.5c-2-0.9-4.1-1.6-6.2-2.3c-1.6-0.5-3.2-1-4.9-1.5
				c-0.6-0.2-1.1-0.3-1.7-0.5c-0.3-0.1-0.6-0.3-0.8-0.5c-0.3-0.3-0.4-0.6-0.2-0.9c0.1-0.1,0.1-0.2,0.2-0.3c0.4-0.4,1-0.3,1.6-0.2
				c0.2,0,0.4,0.1,0.5,0.2c2.3,0.6,4.5,1.4,6.7,2.2c2.9,1.1,5.8,2.3,8.7,3.7c0.7,0.3,1.4,0.7,2.1,1c3.4,1.7,6.8,3.5,10.1,5.4
				c3.5,2.1,6.9,4.3,10.2,6.6c5.9,4.3,11.4,8.9,16.5,13.9c6.8,6.7,12.7,13.9,18,21.8c1.8,2.6,3.4,5.3,5,8c0.8,1.4,1.6,2.8,2.3,4.2
				C437.1,314.2,438.9,317.8,440.5,321.5z"/>
			<path d="M358.2,334.3c0.2,0.1,0.4,0.2,0.6,0.2c0.8,0.3,1.6,0.5,2.3,0.7c2,0.4,3.9,0.5,5.8,0.2c7.5-1.3,13.5-8.6,17.9-21.7
				c2-5.9,3.2-11.7,3.8-15.4c0.4-2.3,0.6-3.7,0.6-3.7l-1.5-0.2c0,0.1-0.2,1.2-0.5,3.1c-1.5,8.8-6.9,34-20.6,36.4
				c-2.6,0.5-5.4,0.1-8.3-1.1c-0.2-0.1-0.4-0.2-0.6-0.3c-0.6-0.3-1.2-0.5-1.7-0.9c-3.6-2-7.5-5.1-11.6-9.4
				c-10.1-10.7-21.6-28.7-34.2-53.5l-1.3,0.7c18.4,36.2,34.3,57.7,47.5,64.1C357,333.8,357.6,334.1,358.2,334.3z"/>
			<path d="M317.2,315.2c7.1,12.2,14.3,22,21.4,29c7.2,7.1,14.3,11.5,21.2,13c0.6,0.1,1.2,0.2,1.9,0.3c0.8,0.1,1.5,0.2,2.3,0.2
				c0.2,0,0.4,0,0.6,0c0.1,0,0.2,0,0.3,0c16.1,0.2,30.9-15.6,44-47.1c0.3-0.7,0.6-1.5,0.9-2.2l-1.4-0.6c-0.3,0.7-0.5,1.3-0.8,2
				c-12.8,31-27.1,46.6-42.6,46.4c-0.2,0-0.5,0-0.7,0c-0.2,0-0.4,0-0.6,0c-0.8-0.1-1.5-0.2-2.3-0.3c-7-1.2-14.2-5.5-21.6-12.8
				c-7-6.9-14.1-16.6-21.1-28.7c-12-20.6-19.7-41.5-19.8-41.7l-1.4,0.5C297.4,273.5,305.1,294.5,317.2,315.2z"/>
			<path d="M389.5,366.9c-0.5,0.3-0.9,0.7-1.4,1c-4.5,3.2-9.1,5.4-13.7,6.7c-2.1,0.6-4.3,1-6.4,1.2c-0.2,0-0.4,0-0.5,0
				c-0.5,0-1,0.1-1.5,0.1c-3.1,0.1-6.2-0.2-9.3-1c-9.2-2.2-18.5-8.2-27.5-17.8c-7.7-8.1-15.1-18.5-21.9-31
				c-8.2-14.9-19.5-41.8-19.7-53.8l-1.5,0c0.1,9,8.1,33,19.9,54.5c6.9,12.6,14.3,23.1,22.1,31.3c9.3,9.8,18.8,15.9,28.3,18.2
				c0.3,0.1,0.6,0.1,0.9,0.2c3,0.7,6,0.9,9,0.8c0.4,0,0.9,0,1.3-0.1c0.2,0,0.4,0,0.6-0.1c0.6-0.1,1.1-0.1,1.7-0.2
				c6.4-0.9,12.8-3.6,19-8c2.5-1.8,5-3.8,7.5-6.2c9.3-8.8,18.5-21.5,27.3-38.1l-1.3-0.7C411.9,344.1,400.8,358.5,389.5,366.9z"/>
			<path d="M284.5,172c-1.6-4.6-4.2-8.6-7.2-11.2c-3.1-2.7-6.4-3.6-9.3-2.7c-2.8,1-4.8,3.8-5.5,7.9c-0.7,3.9-0.2,8.7,1.4,13.2
				c1.6,4.6,4.2,8.6,7.2,11.2c1.8,1.6,3.6,2.5,5.3,2.9c1.4,0.3,2.7,0.2,4-0.2c2.8-1,4.8-3.8,5.5-7.9
				C286.6,181.3,286.1,176.6,284.5,172z M280.3,188.5c-0.1,0.4-0.3,0.7-0.4,1.1c-0.1,0.1-0.2,0.3-0.2,0.4c0,0,0,0.1-0.1,0.1
				c0,0.1-0.1,0.1-0.1,0.2c-0.1,0.2-0.2,0.3-0.3,0.5c-0.2,0.3-0.5,0.6-0.7,0.8c-0.1,0.1-0.3,0.2-0.4,0.4c-0.1,0-0.3,0-0.4,0
				c-0.1,0-0.2,0-0.3,0c0,0-0.1,0-0.1,0c-0.1,0-0.1,0-0.2,0c-0.1,0-0.2,0-0.3,0c-0.1,0-0.3-0.1-0.4-0.1c-0.2,0-0.3-0.1-0.4-0.1
				c-0.1,0-0.2-0.1-0.3-0.1c-0.1,0-0.1,0-0.2-0.1c-0.1,0-0.3-0.1-0.4-0.2c-0.1-0.1-0.3-0.1-0.4-0.2c-0.1-0.1-0.2-0.1-0.4-0.2
				c-0.1,0-0.2-0.1-0.3-0.2c-0.2-0.1-0.5-0.3-0.7-0.5c-0.1-0.1-0.3-0.2-0.4-0.3c-0.1-0.1-0.3-0.2-0.4-0.3c-0.3-0.2-0.6-0.5-0.9-0.8
				h0c-0.1-0.1-0.3-0.3-0.4-0.4c-0.1-0.2-0.3-0.3-0.4-0.5c-0.3-0.3-0.5-0.6-0.8-0.9l0,0c-0.3-0.3-0.6-0.7-0.9-1.1
				c-0.3-0.4-0.5-0.7-0.8-1.1c-0.1-0.2-0.3-0.4-0.4-0.6c-0.2-0.4-0.5-0.8-0.7-1.2c0,0,0,0,0,0c-0.2-0.3-0.4-0.7-0.5-1
				c-0.1-0.1-0.1-0.2-0.2-0.4c-0.2-0.4-0.4-0.8-0.6-1.3v0c-0.1-0.2-0.2-0.5-0.3-0.7c-0.1-0.2-0.2-0.5-0.3-0.7
				c-0.6-1.6-1-3.2-1.2-4.7c-0.1-0.8-0.2-1.5-0.3-2.3c0-0.4-0.1-0.7-0.1-1.1c0-0.9,0-1.8,0-2.7c0.1-1.1,0.2-2.1,0.5-3
				c0.1-0.2,0.1-0.4,0.2-0.7c0.1-0.2,0.1-0.4,0.2-0.6c0.1-0.2,0.1-0.4,0.2-0.5c0-0.1,0.1-0.2,0.1-0.3c0.1-0.1,0.1-0.2,0.2-0.3
				c0.1-0.2,0.2-0.4,0.3-0.5v0c0.2-0.3,0.5-0.7,0.7-0.9c0.3-0.3,0.5-0.5,0.8-0.8c0.1-0.1,0.3-0.2,0.4-0.3c0.2,0.1,0.5,0.2,0.8,0.4
				c0.2,0.1,0.5,0.2,0.7,0.4c0.1,0.1,0.3,0.2,0.4,0.3c0.3,0.2,0.6,0.4,1,0.6c0.1,0.1,0.3,0.2,0.5,0.3c0.2,0.1,0.4,0.3,0.6,0.4
				c0.2,0.1,0.4,0.3,0.6,0.4c0.2,0.2,0.4,0.3,0.6,0.5c0.4,0.3,0.8,0.7,1.2,1.1c0.2,0.2,0.4,0.4,0.6,0.6c0.2,0.2,0.4,0.4,0.6,0.6
				c0.1,0.1,0.2,0.3,0.4,0.4c0.1,0.1,0.2,0.3,0.4,0.4c0.5,0.6,0.9,1.2,1.3,1.8c0.2,0.3,0.5,0.7,0.7,1.1c0.2,0.3,0.3,0.5,0.5,0.8
				c0.1,0.2,0.3,0.5,0.4,0.7c0.1,0.2,0.1,0.3,0.2,0.4c0.1,0.3,0.2,0.5,0.4,0.8c0.1,0.3,0.3,0.7,0.4,1c0.1,0.4,0.2,0.7,0.4,1.1
				c0.1,0.2,0.1,0.4,0.2,0.6c0.1,0.2,0.1,0.4,0.2,0.6v0c0.1,0.3,0.2,0.6,0.2,0.9c0.2,0.7,0.3,1.5,0.4,2.2c0,0.3,0.1,0.6,0.1,0.8
				c0,0,0,0.1,0,0.1v0c0,0.1,0,0.3,0,0.4c0,0.4,0.1,0.7,0.1,1.1c0,1.1,0,2.1-0.1,3.2c0,0.7-0.1,1.4-0.2,2.2c0,0.2-0.1,0.3-0.1,0.5
				c0,0.2-0.1,0.4-0.1,0.6c0,0.1-0.1,0.2-0.1,0.4C280.4,188.2,280.4,188.3,280.3,188.5z M284.4,185c-0.6,3.2-1.9,5.4-3.9,6.4
				c0.1-0.1,0.2-0.2,0.2-0.4c0.8-1.3,1.2-2.7,1.5-4.4c1.4-11-2.6-18-6.2-22c-1.2-1.3-2.4-2.4-3.6-3.3c-0.4-0.3-0.8-0.6-1.2-0.9
				c-0.1-0.1-0.2-0.1-0.3-0.2c-0.1-0.1-0.2-0.1-0.3-0.2c-0.2-0.1-0.4-0.2-0.5-0.3c-0.2-0.1-0.5-0.3-0.7-0.4c0.3,0,0.6-0.1,0.9-0.1
				c0,0,0,0,0,0h0c0.4,0,0.8,0,1.2,0.1c0.8,0.2,1.5,0.5,2.3,0.9c0.6,0.3,1.2,0.7,1.8,1.2c0.2,0.2,0.4,0.3,0.6,0.5
				c0.2,0.2,0.3,0.3,0.5,0.5c0.2,0.2,0.3,0.3,0.5,0.5c1.2,1.2,2.4,2.8,3.4,4.5c0.1,0.2,0.3,0.5,0.4,0.7c0.2,0.3,0.4,0.7,0.5,1
				c0.2,0.4,0.3,0.7,0.5,1.1c0.3,0.7,0.6,1.5,0.9,2.2c0.1,0.2,0.1,0.3,0.2,0.5c0.1,0.2,0.1,0.4,0.2,0.7c0,0,0,0,0,0
				c0.2,0.8,0.4,1.5,0.6,2.3c0.1,0.4,0.2,0.8,0.2,1.2c0.1,0.8,0.2,1.5,0.3,2.3c0.1,0.7,0.1,1.5,0.1,2.2
				C284.7,182.7,284.6,183.9,284.4,185z"/>
		</g>
	</g>
	<g>
		<path class="st7" d="M194.2,69H26.8C15.3,69,6,78.3,6,89.8v115.6c0.1,0,0.2,0,0.2,0c0.3,0,1.5,0,1.7,0c20.4,0,40.8,0,61.2,0
			l80.1,0c20.8,0,41.7,0,62.5,0c0.5,0,1,0,1.5,0c0.6,0,1.2,0,1.8-0.1V89.8C215,78.3,205.7,69,194.2,69z M109.2,98.5
			c13.4,0,24,10.6,24,23.9c0,13-10.9,23.5-24.2,23.5c-13.2,0-24-10.6-24.1-23.5C85,109.2,95.8,98.5,109.2,98.5z M120.7,176.4l-0.4,0
			c-4.5,0-9,0-13.4,0l-30.5,0c-0.2,0-0.4,0-0.6,0l-0.2,0c-1.4-0.1-2.1-0.7-2.1-1.7c0-0.8,0.3-1.7,2.1-1.8l1.5-0.1
			c1.8-0.1,3.6-0.1,5.4-0.1l5.9,0c3.3,0,6.6,0,9.9,0c5.1,0,9.2,0,13.1,0.1c0.3,0,0.6,0,0.9,0c0.7,0,1.5,0,2.2,0c0.7,0,1.5,0,2.2,0
			c1.4,0,2.5,0,3.5,0.1c0.1,0,0.2,0,0.2,0c1.4,0,2.2,0.6,2.2,1.8C122.9,175.1,122.6,176.4,120.7,176.4z M145.7,167.2
			c-0.1,0-0.3,0-0.4,0c-0.1,0-0.2,0-0.3,0l-34.6,0c0,0-0.1,0-0.1,0l-34.1,0c-0.4,0-0.9,0-1.4-0.1c-0.9-0.2-1.4-0.8-1.4-1.7
			c0-0.9,0.6-1.5,1.5-1.7c0.5-0.1,1.1-0.1,1.7-0.1l68.2,0c0.1,0,0.2,0,0.4,0c0.1,0,0.2,0,0.3,0c1.5,0,2.2,0.7,2.2,1.8
			C147.6,165.9,147.4,167.2,145.7,167.2z M146.2,157.9c-0.7,0.1-1.5,0.2-2.2,0.2l-23.1,0c-14.6,0-29.2,0-43.8,0c-0.2,0-0.3,0-0.5,0
			c-0.3,0-0.5,0-0.8,0c-2.1,0-2.2-1.5-2.3-2c0-0.6,0.2-1.1,0.5-1.5c0.6-0.6,1.3-0.6,1.6-0.6c0.3,0,0.6,0,0.9,0.1c0.2,0,0.4,0,0.5,0
			c6.6,0,13.2,0,19.8,0l13.6,0c0.1,0,0.2,0,0.2,0l34.2,0c0.5,0,0.9,0,1.4,0.1c0.8,0.1,1.4,0.7,1.5,1.6
			C147.8,156.9,147.2,157.8,146.2,157.9z"/>
		<path class="st8" d="M102.9,133.3c0.5,0.5,1,0.9,1.8,0.8c1,0,1.7-0.6,2.4-1.2c5.5-5.8,11-11.6,16.5-17.3c1-1.1,1-2.1,0.1-3.2
			c-1.3-1.7-2.8-1.8-4.3-0.2c-4.4,4.5-8.7,9.1-13,13.6c-1.6,1.6-1.6,1.6-3.2-0.1c-1.5-1.5-2.9-3.1-4.4-4.5c-1.3-1.1-2.8-0.8-4,0.6
			c-0.9,1-1.1,2-0.1,3C97.4,127.6,100.1,130.4,102.9,133.3z"/>
		<path class="st8" d="M110,272.7c1.3,0,2.5-0.2,2.5-2c0-3.2,0.5-6.4,0.4-9.6c0-1.8,0-3.5,0-5.3c0-2.1-0.5-2.5-2.8-2.5
			c-2.2,0-2.7,0.4-2.7,2.5c0.1,5,0.2,9.9,0.3,14.9C107.8,272.2,108.7,272.7,110,272.7z"/>
		<path class="st7" d="M257.8,38.8c-3.2,0.2-5.7,3-5.6,6.2c0.2,3.2,3,5.7,6.2,5.6c3.2-0.2,5.7-3,5.6-6.2
			C263.8,41.1,261,38.6,257.8,38.8z"/>
		<path class="st8" d="M110.3,281.6c1.6,0,2.9-1.4,2.9-3c0-1.7-1.3-3.1-3-3.1c-1.5,0-2.9,1.5-3,3C107.2,280,108.8,281.6,110.3,281.6
			z"/>
		<path class="st8" d="M212.9,211.4c-0.5,0-0.9,0-1.3,0l-2.4,0c-9.5,0-18.9,0-28.4-0.1c-9.5,0-18.9-0.1-28.4-0.1
			c-8.9,0-16.8,0-24.1,0.1c-5.2,0-10.4,0-15.7,0c-5.3,0-10.7,0-16,0c-5.3,0-10.7,0-16,0c-3.3,0-6.6,0-9.9,0c-6.4,0-12.8,0-19.3,0
			c-15.4,0-30.5-0.1-43.3-0.1c0,0-1.5,0-1.9,0c0,0-0.1,0-0.1,0v115.8c0,11.5,9.3,20.8,20.8,20.8h167.4c11.5,0,20.8-9.3,20.8-20.8
			V211.5c-0.1,0-0.2,0-0.3,0C214.1,211.5,213.5,211.5,212.9,211.4z M83.2,280.9c5.4-8.6,10.7-17.2,16.1-25.9
			c2.4-3.8,4.7-7.7,7.1-11.5c1.9-3,5.5-3.2,7.4-0.2c5.9,9.4,11.7,18.8,17.6,28.2c1.8,3,3.6,5.9,5.5,8.9c1,1.6,1.7,3.2,0.8,4.9
			c-0.9,1.6-2.6,1.6-4.2,1.6c-7.7,0-15.4,0-23.1,0c-7.8,0-15.6,0-23.5,0c-1.4,0-2.7-0.2-3.7-1.4C82.1,284.2,82,282.7,83.2,280.9z
			 M123.1,319.4c-0.6,0-1.2,0-1.8,0l-45.8,0c-0.3,0-0.6,0-0.8,0c-1.5-0.1-2.2-0.7-2.1-1.9c0.1-1.5,1.4-1.6,1.9-1.7l0.2,0
			c1-0.1,2.2-0.2,3.5-0.2c0.8,0,1.7,0,2.5,0c0.8,0,1.6,0,2.5,0l0.5,0c4.9-0.1,9.6-0.1,14.1-0.1c4.4,0,8.8,0,12.9,0.1
			c0.5,0,0.9,0,1.4,0c1.2,0,2.3,0,3.5,0c1.2,0,2.3,0,3.5,0c0.8,0,1.7,0,2.5,0c0.5,0,1,0.1,1.4,0.1l0.2,0c1.4,0.1,1.8,1.1,1.8,1.9
			C125,318.1,124.8,319.3,123.1,319.4z M146.4,310.3c-0.3,0-0.5,0-0.8-0.1c-0.2,0-0.3,0-0.5,0c-7.1,0-14.2,0-21.3,0l-13.3,0
			c0,0-0.1,0-0.1,0l-13.7,0c-6.9,0-13.8,0-20.7,0c-0.1,0-0.3,0-0.5,0c-0.3,0-0.5,0.1-0.8,0.1c-1.8,0-2-1.3-2-1.8
			c0-0.7,0.2-1.1,0.5-1.4c0.5-0.6,1.3-0.6,1.6-0.6c0.2,0,0.5,0,0.7,0c0.2,0,0.3,0,0.4,0c11.1,0,22.2,0,33.3,0c12,0,24,0,36.1,0
			c0.1,0,0.3,0,0.4,0c0.2,0,0.5,0,0.7,0c0.2,0,1,0,1.5,0.5c0.2,0.2,0.5,0.7,0.5,1.4C148.4,309,148.2,310.3,146.4,310.3z
			 M147.9,300.7c-0.5,0.5-1.3,0.6-1.8,0.6c-0.2,0-0.3,0-0.5,0c-0.1,0-0.2,0-0.4,0c-11.9,0-23.8,0-35.7,0H75.6c-0.1,0-0.2,0-0.4,0
			c-0.1,0-0.2,0-0.4,0c-0.6,0-2.4-0.2-2.3-2.1c0-0.5,0.3-1.8,2.1-1.8c0.1,0,0.3,0,0.4,0c0.1,0,0.2,0,0.3,0c7,0,28.1,0,28.1,0h7
			c0,0,0.1,0,0.1,0l13.2,0c7.1,0,14.3,0,21.5,0c0.1,0,0.3,0,0.4,0c0.2,0,0.5,0,0.7,0c1.9,0,2.1,1.5,2.1,1.9
			C148.4,300,148.2,300.4,147.9,300.7z"/>
		<path class="st8" d="M279.1,57.9c-3.3,0.2-5.7,3-5.6,6.2c0.2,3.2,3,5.7,6.2,5.6c3.2-0.2,5.7-3,5.6-6.2
			C285.1,60.2,282.4,57.7,279.1,57.9z"/>
		<path class="st8" d="M318.3,43.2c-3.2,0.2-5.7,3-5.6,6.2c0.2,3.2,3,5.7,6.2,5.6c3.2-0.2,5.7-3,5.6-6.2S321.5,43.1,318.3,43.2z"/>
		
			<ellipse transform="matrix(0.3682 -0.9297 0.9297 0.3682 197.5785 332.906)" class="st7" cx="343.7" cy="21.1" rx="5.9" ry="5.9"/>
		<path class="st7" d="M296.4,23.6c-3.3,0.2-5.7,3-5.6,6.2c0.2,3.3,3,5.7,6.2,5.6c3.2-0.2,5.7-3,5.6-6.2
			C302.5,26,299.7,23.5,296.4,23.6z"/>
		<path d="M211.7,205.4c-20.8,0-41.7,0-62.5,0l-80.1,0c-20.4,0-40.8,0-61.2,0c-0.2,0-1.4,0-1.7,0c-0.1,0-0.1,0-0.2,0v6
			c0,0,0.1,0,0.1,0c0.3,0,1.9,0,1.9,0c12.8,0.1,27.9,0.1,43.3,0.1c6.4,0,12.8,0,19.3,0c3.3,0,6.6,0,9.9,0c5.3,0,10.7,0,16,0
			c5.3,0,10.7,0,16,0c5.2,0,10.4,0,15.7,0c7.3,0,15.2-0.1,24.1-0.1c9.5,0,18.9,0,28.4,0.1c9.5,0,18.9,0.1,28.4,0.1l2.4,0
			c0.4,0,0.9,0,1.3,0c0.6,0,1.2,0,1.8,0c0.1,0,0.2,0,0.3,0v-6.2c-0.6,0-1.2,0-1.8,0.1C212.7,205.4,212.1,205.4,211.7,205.4z"/>
		<path d="M86.8,287c7.8,0,15.6,0,23.5,0c7.7,0,15.4,0,23.1,0c1.6,0,3.3,0,4.2-1.6c1-1.8,0.2-3.4-0.8-4.9c-1.9-2.9-3.7-5.9-5.5-8.9
			c-5.9-9.4-11.7-18.8-17.6-28.2c-1.9-3-5.5-2.9-7.4,0.2c-2.3,3.8-4.7,7.7-7.1,11.5c-5.4,8.6-10.7,17.2-16.1,25.9
			c-1.1,1.8-1.1,3.2,0,4.6C84.1,286.7,85.4,287,86.8,287z M110.1,253.3c2.3,0,2.7,0.4,2.8,2.5c0,1.8,0,3.5,0,5.3
			c0.1,3.2-0.4,6.4-0.4,9.6c0,1.8-1.2,2-2.5,2c-1.3,0-2.2-0.5-2.2-2c-0.1-5-0.3-9.9-0.3-14.9C107.4,253.7,107.9,253.3,110.1,253.3z
			 M110.2,275.4c1.6,0,3,1.4,3,3.1c0,1.6-1.3,3-2.9,3c-1.5,0-3.1-1.6-3.1-3.1C107.3,276.9,108.7,275.5,110.2,275.4z"/>
		<path d="M145.2,298.4c-11.6,0-23.2,0-34.8,0c0,0,0,0,0,0c-11.7,0-23.4,0-35.1,0c-0.7,0-1.7-0.2-1.8,0.8c-0.1,1.1,1,1,1.8,1.1
			c0.2,0,0.3,0,0.5,0c23.1,0,46.2,0,69.4,0c0.9,0,2.2,0.3,2.2-1C147.4,298,146.1,298.4,145.2,298.4z"/>
		<path d="M146.4,297.4c-0.2,0-0.5,0-0.7,0c-0.2,0-0.3,0-0.4,0c-7.1,0-14.3,0-21.5,0l-13.2,0c0,0-0.1,0-0.1,0h-7c0,0-21.1,0-28.1,0
			c-0.1,0-0.2,0-0.3,0c-0.1,0-0.3,0-0.4,0c-1.8,0-2,1.2-2.1,1.8c-0.1,1.9,1.7,2,2.3,2.1c0.1,0,0.2,0,0.4,0c0.1,0,0.2,0,0.4,0h33.9
			c11.9,0,23.8,0,35.7,0c0.1,0,0.2,0,0.4,0c0.2,0,0.3,0,0.5,0c0.5,0,1.3-0.1,1.8-0.6c0.2-0.2,0.5-0.7,0.5-1.4
			C148.4,298.8,148.3,297.4,146.4,297.4z M145.2,300.3c-23.1,0-46.2,0-69.4,0c-0.2,0-0.3,0-0.5,0c-0.8-0.1-1.9,0.1-1.8-1.1
			c0.1-1,1.1-0.8,1.8-0.8c11.7,0,23.4,0,35.1,0c0,0,0,0,0,0c11.6,0,23.2,0,34.8,0c0.8,0,2.2-0.4,2.2,0.9
			C147.4,300.5,146.1,300.3,145.2,300.3z"/>
		<path d="M145.2,307.7c-23.1,0-46.2,0-69.3,0c-0.8,0-2.2-0.4-2.2,0.8c0,1.2,1.5,0.7,2.3,0.7c11.5,0,23,0,34.6,0c0,0,0,0,0,0
			c11.5,0,23,0,34.6,0c0.8,0,2.3,0.5,2.3-0.7C147.5,307.3,146,307.7,145.2,307.7z"/>
		<path d="M146.4,306.7c-0.2,0-0.5,0-0.7,0c-0.2,0-0.3,0-0.4,0c-12,0-24,0-36.1,0c-11.1,0-22.2,0-33.3,0c-0.1,0-0.3,0-0.4,0
			c-0.2,0-0.5,0-0.7,0c-0.3,0-1,0-1.6,0.6c-0.2,0.2-0.5,0.7-0.5,1.4c0,0.4,0.2,1.8,2,1.8c0.3,0,0.5,0,0.8-0.1c0.2,0,0.3,0,0.5,0
			c6.9,0,13.8,0,20.7,0l13.7,0c0,0,0.1,0,0.1,0l13.3,0c7.1,0,14.2,0,21.3,0c0.1,0,0.3,0,0.5,0c0.3,0,0.5,0.1,0.8,0.1
			c1.8,0,2-1.4,2-1.8c0-0.7-0.2-1.1-0.5-1.4C147.4,306.7,146.7,306.7,146.4,306.7z M145.1,309.3c-11.5,0-23,0-34.6,0c0,0,0,0,0,0
			c-11.5,0-23,0-34.6,0c-0.8,0-2.2,0.5-2.3-0.7c0-1.2,1.4-0.8,2.2-0.8c23.1,0,46.2,0,69.3,0c0.8,0,2.2-0.5,2.2,0.8
			C147.4,309.7,146,309.3,145.1,309.3z"/>
		<path d="M123.1,316.9c-0.5-0.1-1-0.1-1.5-0.1c-3.6-0.1-7.3,0.1-10.9,0c-9-0.1-18-0.1-27,0c-3,0-5.9-0.3-8.9,0.1
			c-0.5,0.1-1.1,0-1.2,0.7c0,0.8,0.6,0.8,1.2,0.9c0.5,0,0.9,0,1.4,0c7.5,0,15.1,0,22.6,0c7.5,0,15.1,0,22.6,0c0.6,0,1.1,0,1.7,0
			c0.5,0,0.9-0.2,1-0.8C124,317.1,123.6,316.9,123.1,316.9z"/>
		<path d="M123.2,315.9l-0.2,0c-0.5-0.1-1-0.1-1.4-0.1c-0.8,0-1.7,0-2.5,0c-1.2,0-2.3,0-3.5,0c-1.2,0-2.3,0-3.5,0
			c-0.5,0-0.9,0-1.4,0c-4.2-0.1-8.5-0.1-12.9-0.1c-4.5,0-9.3,0-14.1,0.1l-0.5,0c-0.8,0-1.6,0-2.5,0c-0.8,0-1.7,0-2.5,0
			c-1.4,0-2.5,0.1-3.5,0.2l-0.2,0c-0.4,0-1.8,0.2-1.9,1.7c-0.1,1.2,0.7,1.8,2.1,1.9c0.3,0,0.5,0,0.8,0l45.8,0c0.6,0,1.2,0,1.8,0
			c1.7-0.1,1.9-1.3,1.9-1.7C125,317,124.6,316,123.2,315.9z M123,318.4c-0.6,0-1.1,0-1.7,0c-7.5,0-15.1,0-22.6,0
			c-7.5,0-15.1,0-22.6,0c-0.5,0-0.9,0-1.4,0c-0.6,0-1.2-0.1-1.2-0.9c0-0.7,0.7-0.7,1.2-0.7c3-0.4,5.9-0.1,8.9-0.1c9-0.1,18-0.1,27,0
			c3.6,0.1,7.3-0.1,10.9,0c0.5,0,1,0.1,1.5,0.1c0.5,0.1,0.9,0.3,0.9,0.8C123.9,318.3,123.5,318.4,123,318.4z"/>
		<path d="M109.1,145.9c13.3,0,24.2-10.6,24.2-23.5c0-13.3-10.7-23.9-24-23.9c-13.4,0-24.3,10.7-24.2,23.9
			C85,135.3,95.9,145.9,109.1,145.9z M94.7,121.8c1.3-1.5,2.8-1.8,4-0.6c1.6,1.4,3,3,4.4,4.5c1.6,1.7,1.6,1.7,3.2,0.1
			c4.3-4.5,8.7-9.1,13-13.6c1.5-1.6,3-1.5,4.3,0.2c0.9,1.1,0.9,2.2-0.1,3.2c-5.5,5.8-11,11.5-16.5,17.3c-0.6,0.7-1.3,1.3-2.4,1.2
			c-0.7,0.1-1.3-0.3-1.8-0.8c-2.7-2.8-5.5-5.6-8.2-8.4C93.6,123.8,93.9,122.8,94.7,121.8z"/>
		<path d="M147.7,155.9c-0.1-0.8-0.7-1.4-1.5-1.6c-0.5-0.1-0.9-0.1-1.4-0.1l-34.2,0c-0.1,0-0.2,0-0.2,0l-13.6,0
			c-6.6,0-13.2,0-19.8,0c-0.2,0-0.3,0-0.5,0c-0.3,0-0.6-0.1-0.9-0.1c-0.3,0-1,0-1.6,0.6c-0.4,0.4-0.5,0.8-0.5,1.5c0,0.5,0.2,2,2.3,2
			c0.3,0,0.5,0,0.8,0c0.2,0,0.4,0,0.5,0c14.6,0,29.2,0,43.8,0l23.1,0c0.7,0,1.5-0.1,2.2-0.2C147.2,157.8,147.8,156.9,147.7,155.9z"
			/>
		<path d="M145,164.6c-0.2,0-0.5,0-0.7,0c-22.6,0-45.2,0-67.8,0c-0.5,0-1,0-1.5,0.1c-0.4,0.1-0.6,0.3-0.6,0.7c0,0.4,0.3,0.6,0.6,0.7
			c0.4,0.1,0.8,0.1,1.2,0.1c11.4,0,22.8,0,34.2,0c0,0,0,0,0,0c11.5,0,23.1,0,34.6,0c0.7,0,1.6,0.3,1.6-0.7
			C146.6,164.5,145.6,164.7,145,164.6z"/>
		<path d="M145.4,163.6c-0.1,0-0.2,0-0.3,0c-0.1,0-0.2,0-0.4,0l-68.2,0c-0.6,0-1.2,0-1.7,0.1c-0.9,0.1-1.5,0.8-1.5,1.7
			c0,0.9,0.6,1.5,1.4,1.7c0.5,0.1,1,0.1,1.4,0.1l34.1,0c0,0,0.1,0,0.1,0l34.6,0c0.1,0,0.2,0,0.3,0c0.1,0,0.3,0,0.4,0
			c1.7,0,1.9-1.3,1.9-1.7C147.6,164.3,146.8,163.7,145.4,163.6z M145,166.2c-11.5,0-23.1,0-34.6,0c0,0,0,0,0,0
			c-11.4,0-22.8,0-34.2,0c-0.4,0-0.8,0-1.2-0.1c-0.4-0.1-0.6-0.3-0.6-0.7c0-0.4,0.3-0.6,0.6-0.7c0.5-0.1,1-0.1,1.5-0.1
			c22.6,0,45.2,0,67.8,0c0.2,0,0.5,0,0.7,0c0.7,0.1,1.6-0.1,1.6,0.8C146.5,166.4,145.6,166.2,145,166.2z"/>
		<path d="M120.4,173.8c-3-0.2-5.9,0-8.9-0.1c-9.6-0.1-19.3-0.1-28.9,0c-2.3,0-4.6,0.1-6.8,0.2c-0.6,0-1.3,0-1.3,0.8
			c0,0.8,0.7,0.7,1.3,0.8c0.4,0,0.8,0,1.2,0c7,0,14,0,21,0c7.4,0,14.8,0,22.2,0c0.6,0,1.6,0.1,1.6-0.8
			C121.9,173.7,121,173.8,120.4,173.8z"/>
		<path d="M120.7,172.8c-0.1,0-0.2,0-0.2,0c-1-0.1-2.2-0.1-3.5-0.1c-0.7,0-1.5,0-2.2,0c-0.7,0-1.5,0-2.2,0c-0.3,0-0.6,0-0.9,0
			c-3.9-0.1-8-0.1-13.1-0.1c-3.3,0-6.6,0-9.9,0l-5.9,0c-1.8,0-3.7,0.1-5.4,0.1l-1.5,0.1c-1.8,0.1-2.1,1-2.1,1.8
			c0,1.1,0.7,1.7,2.1,1.7l0.2,0c0.2,0,0.4,0,0.6,0l30.5,0c4.5,0,9,0,13.4,0l0.4,0c1.9,0,2.1-1.3,2.2-1.8
			C122.9,173.4,122.2,172.8,120.7,172.8z M120.3,175.4c-7.4,0-14.8,0-22.2,0c-7,0-14,0-21,0c-0.4,0-0.8,0-1.2,0
			c-0.6,0-1.3,0-1.3-0.8c0-0.8,0.7-0.8,1.3-0.8c2.3-0.1,4.6-0.2,6.8-0.2c9.6,0,19.3-0.1,28.9,0c3,0,5.9-0.2,8.9,0.1
			c0.6,0,1.5-0.1,1.5,0.8C121.9,175.5,120.9,175.4,120.3,175.4z"/>
		<path d="M354,20.5c-0.3-5.6-5.2-10-10.8-9.7c-5.6,0.3-10,5.1-9.7,10.8c0.1,1.7,0.6,3.2,1.4,4.7c0.3,0.5,0.2,1.1-0.1,1.5
			l-10.5,11.7c-0.2,0.3-0.5,0.4-0.9,0.4c-0.2,0-0.4,0-0.6-0.1c-1.5-0.7-3.1-1-4.8-0.9c-1.6,0.1-3.2,0.6-4.7,1.4
			c-0.2,0.1-0.4,0.2-0.6,0.2c-0.3,0-0.7-0.1-0.9-0.3l-5.5-5c-0.4-0.4-0.5-1-0.3-1.5c0.7-1.5,1-3.2,0.9-4.8c-0.3-5.6-5.1-10-10.8-9.7
			c-5.6,0.3-10,5.1-9.7,10.8c0.1,2.6,1.2,5,3.1,6.8c0.4,0.4,0.5,1,0.2,1.5L282.4,53c-0.2,0.4-0.6,0.7-1.1,0.7c-0.1,0-0.2,0-0.3,0
			c-0.7-0.1-1.5-0.2-2.2-0.1c-1.6,0.1-3.3,0.6-4.7,1.4c-0.2,0.1-0.4,0.2-0.6,0.2c-0.3,0-0.7-0.1-0.9-0.3l-5-4.5
			c-0.4-0.4-0.5-1-0.3-1.5c0.7-1.5,1-3.2,0.9-4.8c-0.3-5.6-5.1-10-10.8-9.7c-5.6,0.3-10,5.1-9.7,10.8c0.1,2.6,1.2,5,3.1,6.8
			c0.4,0.4,0.5,1,0.2,1.5l-11.3,22.3c-0.5,1.1-0.1,2.4,1,2.9c0.3,0.2,0.7,0.2,1.1,0.2c0.8,0,1.5-0.5,1.8-1.2l11.3-22.3
			c0.2-0.4,0.6-0.7,1.1-0.7c0.1,0,0.2,0,0.3,0c0.7,0.1,1.5,0.2,2.2,0.1c1.7-0.1,3.2-0.6,4.7-1.4c0.2-0.1,0.4-0.2,0.6-0.2
			c0.3,0,0.7,0.1,0.9,0.3l5,4.5c0.4,0.4,0.5,1,0.3,1.5c-0.7,1.5-1,3.2-0.9,4.8c0.3,5.6,5.1,10,10.8,9.7c5.6-0.3,10-5.2,9.7-10.8
			c-0.1-2.6-1.2-5-3.1-6.8c-0.4-0.4-0.5-1-0.2-1.5l7.4-14.6c0.2-0.4,0.6-0.7,1.1-0.7c0.1,0,0.2,0,0.3,0c0.7,0.1,1.5,0.2,2.2,0.1
			c1.7-0.1,3.2-0.6,4.7-1.4c0.2-0.1,0.4-0.2,0.6-0.2c0.3,0,0.7,0.1,0.9,0.3l5.5,5c0.4,0.4,0.5,1,0.3,1.5c-0.7,1.5-1,3.2-0.9,4.8
			c0.3,5.6,5.1,10,10.8,9.7c5.6-0.3,10-5.2,9.7-10.8c-0.1-1.7-0.6-3.2-1.4-4.7c-0.3-0.5-0.2-1.1,0.1-1.5l10.5-11.7
			c0.2-0.3,0.5-0.4,0.9-0.4c0.2,0,0.4,0,0.6,0.1c1.5,0.7,3.2,1,4.8,0.9C349.9,31,354.3,26.1,354,20.5z M258.4,50.5
			c-3.2,0.2-6-2.3-6.2-5.6c-0.2-3.2,2.3-6,5.6-6.2c3.2-0.2,6,2.3,6.2,5.6C264.2,47.6,261.7,50.3,258.4,50.5z M279.8,69.6
			c-3.3,0.2-6-2.3-6.2-5.6c-0.2-3.2,2.3-6,5.6-6.2c3.2-0.2,6,2.3,6.2,5.6C285.5,66.7,283,69.4,279.8,69.6z M297.1,35.4
			c-3.3,0.2-6-2.3-6.2-5.6c-0.2-3.2,2.3-6,5.6-6.2c3.2-0.2,6,2.3,6.2,5.6C302.8,32.4,300.3,35.2,297.1,35.4z M319,55
			c-3.2,0.2-6-2.3-6.2-5.6c-0.2-3.2,2.3-6,5.6-6.2c3.2-0.2,6,2.3,6.2,5.6S322.2,54.8,319,55z M344.1,27c-3.2,0.2-6-2.3-6.2-5.6
			c-0.2-3.2,2.3-6,5.6-6.2c3.2-0.2,6,2.3,6.2,5.6C349.8,24,347.3,26.8,344.1,27z"/>
		<path d="M194.2,63H26.8C12,63,0,75,0,89.8v237.4C0,342,12,354,26.8,354h167.4c14.8,0,26.8-12,26.8-26.8V89.8
			C221,75,209,63,194.2,63z M215.1,205.3c1.5,0,3.1,0.1,4.1,1.2c0.5,0.5,0.8,1.2,0.8,2c-0.1,2.9-3.5,3-5,3.1v115.7
			c0,11.5-9.3,20.8-20.8,20.8H26.8C15.3,348,6,338.6,6,327.2V211.3c-1.7,0-3.3-0.1-4.3-1.2c-0.5-0.6-0.7-1.3-0.7-2
			c0.3-2.6,3.3-2.7,5-2.7V89.8C6,78.3,15.3,69,26.8,69h167.4c11.5,0,20.8,9.3,20.8,20.8v115.5C215,205.3,215.1,205.3,215.1,205.3z"
			/>
		<path d="M220,208.4c0-0.7-0.3-1.4-0.8-2c-1-1-2.6-1.2-4.1-1.2c0,0-0.1,0-0.1,0v6.2C216.5,211.5,219.9,211.3,220,208.4z"/>
		<path d="M1,208.1c-0.1,0.8,0.2,1.5,0.7,2c1,1.1,2.7,1.2,4.3,1.2v-6C4.3,205.4,1.3,205.5,1,208.1z"/>
		<path d="M90.9,17.6c2.1,1.6,4.1,3.2,6.4,4.6c2,1.2,2.6,2.6,1.7,4.9c-1.1,2.8-1.8,5.9-2.5,8.2c0,2.9,1.4,3.7,3.5,2.5
			c2.7-1.5,5.3-3.1,7.8-4.9c1.7-1.1,3-1.3,4.8-0.1c2.4,1.7,5,3.2,7.5,4.7c1,0.6,2,1.1,3,0.4c1.1-0.8,0.9-1.9,0.6-3
			c-0.7-2.8-1.4-5.5-2.2-8.2c-0.6-2-0.2-3.3,1.6-4.5c2-1.3,3.9-2.8,5.9-4.2c1.1-0.8,2.7-1.6,2.2-3.3c-0.6-1.8-2.3-1.8-3.8-1.8
			c-2.6-0.1-5.2-0.3-7.9-0.4c-1.9-0.1-3-0.9-3.7-2.7c-0.9-2.6-2-5.1-3.1-7.6c-0.5-1.1-1-2.4-2.5-2.3c-1.4,0.1-1.9,1.3-2.3,2.4
			c-0.9,2.2-1.9,4.4-2.6,6.7c-0.7,2.1-1.9,3.3-4.2,3.3c-2.8,0-5.7,0.3-8.5,0.4c-1.3,0.1-2.8,0.2-3.2,1.8
			C88.8,16.2,90,16.9,90.9,17.6z"/>
		<path d="M40.9,17.8c2.1,1.5,4.2,3.1,6.4,4.5c1.9,1.2,2.3,2.7,1.6,4.7c-0.9,2.8-1.8,5.6-2.4,7.9c-0.1,3.1,1.2,4,3.6,2.7
			c2.8-1.5,5.5-3.2,8.1-4.9c1.5-1,2.7-1,4.2,0c2.5,1.7,5.2,3.3,7.8,4.9c1,0.6,2,1,3,0.2c0.9-0.7,0.7-1.8,0.5-2.7
			c-0.7-2.9-1.4-5.7-2.3-8.6c-0.6-1.9-0.1-3.1,1.5-4.2c2.3-1.6,4.4-3.2,6.6-4.8c1-0.7,2.1-1.4,1.6-2.9c-0.4-1.4-1.7-1.6-3-1.6
			c-2.9-0.2-5.9-0.5-8.8-0.5c-1.9,0-3-0.8-3.7-2.6c-0.9-2.5-2-4.9-3-7.3c-0.5-1.2-0.9-2.6-2.6-2.5c-1.4,0.1-1.9,1.3-2.4,2.4
			c-1,2.4-2.1,4.8-3,7.3c-0.6,1.8-1.7,2.7-3.6,2.8c-2.9,0.1-5.9,0.2-8.8,0.4c-1.3,0.1-2.8,0-3.3,1.6C38.7,16.1,39.8,17,40.9,17.8z"
			/>
		<path d="M141.2,17.3c2.2,1.6,4.3,3.4,6.6,4.8c2.3,1.4,2.7,3.1,1.8,5.5c-0.9,2.7-1.9,5.4-2.2,8.6c0.1,2,1.5,2.4,3.3,1.4
			c2.7-1.5,5.3-3,7.9-4.7c1.6-1.1,2.8-1.2,4.5-0.1c2.4,1.7,5,3.1,7.5,4.7c1.1,0.7,2.2,1.1,3.3,0.2c1-0.8,0.6-2,0.4-3.1
			c-0.7-2.7-1.2-5.3-2.1-7.9c-0.6-1.9-0.1-3.1,1.4-4.2c2.3-1.6,4.6-3.4,6.9-5.1c0.9-0.7,1.8-1.5,1.4-2.7c-0.4-1.4-1.6-1.7-2.9-1.7
			c-2.6-0.1-5.3-0.2-7.9-0.1c-2.6,0.1-4.3-0.9-5.2-3.5c-0.8-2.4-1.8-4.7-2.8-7c-0.5-1.1-1.1-2.3-2.5-2.3c-1.3,0-1.8,1.1-2.2,2.1
			c-1,2.4-2,4.8-2.9,7.3c-0.7,2-2,3-4.1,3.1c-3.1,0.1-6.1,0.2-9.2,0.4c-1.1,0.1-2.2,0.5-2.5,1.8C139.5,16,140.4,16.7,141.2,17.3z"/>
	</g>
</g>
</svg>
