<?xml version="1.0" encoding="utf-8"?>
<!-- Generator: Adobe Illustrator 25.0.0, SVG Export Plug-In . SVG Version: 6.00 Build 0)  -->
<svg version="1.1" id="Layer_1" xmlns="http://www.w3.org/2000/svg" xmlns:xlink="http://www.w3.org/1999/xlink" x="0px" y="0px"
	 viewBox="0 0 91.7 106.06" style="enable-background:new 0 0 91.7 106.06;" xml:space="preserve">
<style type="text/css">
	.st0{fill:#185AE9;}
	.st1{fill:#00B0FB;}
	.st2{fill:#00B0FB;fill-opacity:0.4;}
	.st3{fill:#FFFFFF;}
	.st4{fill:#00769D;}
	.st5{fill:#8DB849;}
	.st6{fill:#5A863E;}
	.st7{fill:#FFFFFE;}
	.st8{fill:#F26322;}
	.st9{fill:#009CDE;}
	.st10{fill-rule:evenodd;clip-rule:evenodd;fill:#7FC728;}
	.st11{fill:#00D8FF;}
	.st12{fill:#3C7CFF;}
	.st13{fill:#001135;}
	.st14{fill:#DBDBDB;}
	.st15{fill:#FDFDFD;}
	.st16{fill:#020202;}
	.st17{fill:#030303;}
	.st18{fill:#FBFBFB;}
	.st19{fill:#060606;}
	.st20{fill:#050505;}
	.st21{fill:#0A0A0A;}
	.st22{fill:#0E0E0E;}
	.st23{fill:#0D0D0D;}
	.st24{fill:#101010;}
	.st25{fill:#070707;}
	.st26{fill:#0C0C0C;}
	.st27{fill:#FCFCFC;}
	.st28{fill:#D2D3D3;}
	.st29{fill:#F6F6F6;}
	.st30{fill:#BABBBB;}
	.st31{fill:#8A8A8A;}
	.st32{fill:#8E8F8F;}
	.st33{fill:#5F5E5E;}
	.st34{fill:#FEFDFE;}
	.st35{fill-rule:evenodd;clip-rule:evenodd;fill:#00B0FB;}
</style>
<g>
	<path class="st1" d="M56.73,5.7C45.37,6.86,38.22,16.71,38.46,26.25c0.22,8.68,6.45,18.1,18.2,19.62c0.2,0.81,0.26,6.34,0.08,7.81
		c-2.13,1.8-2.2,1.89-3.13,3.92c-1.82-1.28-3.87-1.39-5.87-0.74c-2.04,0.67-3.44,2.17-4.18,4.38c-1.26-1.25-2.4-2.36-3.52-3.48
		c-1.83-1.82-3.67-3.63-5.48-5.46c-1.72-1.74-3.83-1.85-6.04-1.43c-1.22,0.23-2.23,0.94-3.14,1.77c-1.07,0.98-1.48,2.3-1.68,3.66
		c-0.32,2.21,0.35,4.12,1.95,5.71c5.9,5.89,11.79,11.78,17.68,17.67c1.83,1.83,3.66,3.66,5.49,5.49c0.13,0.13,0.24,0.28,0.52,0.61
		c-0.77-0.06-1.32-0.1-1.87-0.16c-1.63-0.17-3.25-0.38-4.88-0.53c-3.76-0.36-7.35,2.55-7.7,6.24c-0.39,3.99,2.36,7.43,6.28,7.86
		c4.84,0.53,9.68,1.04,14.52,1.56c0.3,0.03,0.59,0.09,1.02,0.16c-0.11,0.42-0.17,0.79-0.3,1.12c-0.93,2.43-3.19,3.99-5.84,4
		c-4.57,0.02-9.13,0-13.7,0c-10.12,0-20.25-0.01-30.37,0.01c-2.27,0-4.05-0.89-5.36-2.73c-0.75-1.05-1.11-2.24-1.12-3.53
		c-0.01-1.29,0-2.59,0-3.88c0-29.68,0-59.37-0.01-89.05c0-1.7,0.36-3.24,1.45-4.57c1.04-1.26,2.37-2.11,3.99-2.2
		c2.16-0.12,4.33-0.03,6.62-0.03c0.02,0.43,0.04,0.83,0.06,1.23c0.15,2.9,1.99,5.09,4.68,5.55c0.45,0.08,0.91,0.08,1.36,0.08
		c6.85,0,13.7-0.06,20.55,0.03c3.62,0.05,6.1-2.79,5.99-5.93c-0.01-0.26,0.02-0.53,0.03-0.85c0.22-0.05,0.43-0.14,0.64-0.14
		c1.83-0.01,3.65-0.05,5.48,0.01C53.99,0.13,56.58,2.64,56.73,5.7z M29.54,42.09c0-0.84,0.01-1.67,0-2.51
		c-0.01-0.42-0.01-0.84-0.07-1.25c-0.14-0.91-0.75-1.45-1.6-1.48c-0.9-0.03-1.57,0.52-1.73,1.47c-0.05,0.3-0.05,0.6-0.06,0.91
		c0,1.94,0,3.87,0,5.81c0,0.23,0,0.46,0.03,0.68c0.12,0.93,0.79,1.57,1.64,1.61c0.9,0.04,1.62-0.6,1.76-1.59
		c0.04-0.26,0.04-0.53,0.04-0.8C29.54,43.98,29.54,43.03,29.54,42.09z M12.2,53.06c-0.03,0-0.34,0-0.64,0.04
		c-0.22,0.03-0.45,0.09-0.66,0.17c-0.71,0.26-1.11,0.83-1.12,1.55c-0.01,0.74,0.44,1.41,1.18,1.62c0.43,0.12,0.89,0.19,1.34,0.2
		c2,0.02,4,0.02,6,0.01c1.03,0,1.89-0.78,1.94-1.72c0.05-0.96-0.69-1.76-1.76-1.88c-0.15-0.02-0.3-0.01-0.46-0.01
		C16.18,53.06,14.33,53.06,12.2,53.06z M16.51,41.61c-0.98,0.03-1.51,0.37-1.8,1.01c-0.32,0.74-0.15,1.42,0.41,1.98
		c1.6,1.61,3.2,3.24,4.83,4.82c0.83,0.81,1.83,0.79,2.53,0.05c0.66-0.7,0.66-1.66-0.1-2.45c-1.59-1.63-3.2-3.25-4.83-4.83
		C17.22,41.89,16.73,41.73,16.51,41.61z"/>
	<path class="st1" d="M69.05,98.65c-2.42-0.23-4.85-0.45-7.27-0.7c-4.69-0.49-9.38-1-14.07-1.5c-2.04-0.22-4.09-0.4-6.13-0.65
		c-2.1-0.26-3.51-2.03-3.29-4.06c0.22-2.02,2.02-3.41,4.15-3.19c3.71,0.38,7.42,0.77,11.12,1.16c1,0.11,1.68-0.17,2.05-0.88
		c0.39-0.75,0.24-1.45-0.55-2.25c-2.41-2.43-4.84-4.85-7.26-7.27C41.3,72.81,34.8,66.28,28.26,59.8c-0.93-0.92-1.27-1.95-1.13-3.18
		c0.1-0.92,0.59-1.66,1.44-2.05c1.61-0.74,2.56-0.76,4,0.67c4.12,4.11,8.26,8.2,12.39,12.31c4.04,4.03,8.08,8.07,12.12,12.1
		c0.16,0.16,0.32,0.33,0.5,0.47c0.7,0.52,1.6,0.49,2.2-0.06c0.59-0.54,0.73-1.48,0.28-2.2c-0.18-0.29-0.43-0.53-0.67-0.77
		c-3.71-3.71-7.43-7.42-11.14-11.13c-0.32-0.32-0.66-0.64-0.92-1.01c-0.88-1.23-0.75-2.91,0.28-3.99c1.04-1.09,2.68-1.31,3.96-0.47
		c0.44,0.29,0.82,0.68,1.2,1.05c3.72,3.71,7.43,7.42,11.15,11.13c0.24,0.24,0.49,0.49,0.77,0.67c0.69,0.43,1.54,0.31,2.09-0.25
		c0.55-0.56,0.67-1.43,0.21-2.1c-0.28-0.4-0.64-0.75-0.99-1.1c-2.63-2.64-5.27-5.28-7.92-7.9c-0.78-0.77-1.23-1.65-1.14-2.74
		c0.11-1.3,0.82-2.16,2.04-2.63c1.27-0.49,2.39-0.27,3.35,0.69c1.67,1.66,3.34,3.33,5.01,5c1.13,1.13,2.26,2.26,3.39,3.39
		c0.22,0.21,0.43,0.44,0.68,0.61c0.8,0.57,1.77,0.47,2.37-0.22c0.57-0.66,0.57-1.58-0.08-2.28c-0.8-0.86-1.65-1.68-2.49-2.52
		c-1.18-1.18-2.36-2.37-3.57-3.54c-0.48-0.47-0.77-1.04-0.92-1.67c-0.33-1.33,0.21-2.79,1.24-3.43c1.17-0.72,2.8-0.65,3.81,0.3
		c1.11,1.03,2.14,2.16,3.21,3.23c0.75,0.75,1.53,1.47,2.28,2.22c3.29,3.28,6.57,6.56,9.85,9.85c2.11,2.12,3.63,4.6,4.28,7.54
		c0.9,4.06-0.11,7.62-3.01,10.6c-2.5,2.56-5.1,5.02-7.57,7.6c-3.06,3.19-6.81,4.61-11.17,4.57c-0.19,0-0.38,0-0.57,0
		C69.06,98.59,69.06,98.62,69.05,98.65z"/>
	<path class="st1" d="M75.15,25.74c0.02,9.23-7.33,16.62-16.57,16.66c-9.21,0.04-16.66-7.36-16.67-16.56
		C41.9,16.62,49.3,9.19,58.5,9.18C67.73,9.17,75.13,16.53,75.15,25.74z M55.03,29.65c-0.33-0.3-0.59-0.52-0.83-0.76
		c-1.11-1.1-2.21-2.2-3.31-3.3c-0.21-0.21-0.44-0.43-0.69-0.59c-0.57-0.35-1.16-0.33-1.73,0.01c-0.56,0.34-0.83,0.85-0.82,1.53
		c0.01,0.58,0.32,0.99,0.71,1.38c1.7,1.69,3.38,3.39,5.08,5.08c1.19,1.18,2.02,1.17,3.21-0.01c3.98-3.98,7.96-7.96,11.93-11.94
		c0.19-0.19,0.38-0.37,0.54-0.59c0.49-0.69,0.42-1.63-0.14-2.2c-0.6-0.62-1.43-0.72-2.18-0.22c-0.31,0.21-0.58,0.49-0.85,0.75
		c-3.31,3.3-6.62,6.61-9.93,9.91C55.73,28.99,55.42,29.27,55.03,29.65z"/>
	<path class="st1" d="M15.67,0.08c8.52,0,17,0,25.57,0c0,0.55,0.06,1.04-0.01,1.52c-0.17,1.11-0.99,1.82-2.1,1.89
		c-0.11,0.01-0.23,0-0.34,0c-6.92,0-13.83-0.01-20.75,0.01c-1.08,0-1.85-0.41-2.26-1.39C15.51,1.49,15.46,0.81,15.67,0.08z"/>
</g>
</svg>
