<?xml version="1.0" encoding="utf-8"?>
<!-- Generator: Adobe Illustrator 25.0.0, SVG Export Plug-In . SVG Version: 6.00 Build 0)  -->
<svg version="1.1" id="Layer_1" xmlns="http://www.w3.org/2000/svg" xmlns:xlink="http://www.w3.org/1999/xlink" x="0px" y="0px"
	 viewBox="0 0 109.06 107" style="enable-background:new 0 0 109.06 107;" xml:space="preserve">
<style type="text/css">
	.st0{fill:#185AE9;}
	.st1{fill:#00B0FB;}
	.st2{fill-rule:evenodd;clip-rule:evenodd;fill:#00B0FB;}
	.st3{fill:#00B0FB;fill-opacity:0.4;}
	.st4{fill:#FFFFFF;}
	.st5{fill:#001135;}
	.st6{fill:#3C7CFF;}
	.st7{fill-rule:evenodd;clip-rule:evenodd;fill:#252F3E;}
	.st8{fill-rule:evenodd;clip-rule:evenodd;fill:#FF9900;}
	.st9{fill:#8D3124;}
	.st10{fill:#E05244;}
	.st11{fill:#F7ADAE;}
	.st12{fill:#5B1E19;}
	.st13{fill:#F58436;}
	.st14{fill:#9D5026;}
	.st15{fill:#1A476F;}
	.st16{fill:#1F5B98;}
	.st17{fill:#2D72B8;}
	.st18{fill:#5294CF;}
	.st19{fill:#FF9900;}
	.st20{fill:#252F3E;}
	.st21{fill:#FDFDFD;}
	.st22{fill:#DBDBDB;}
	.st23{fill:#040404;}
	.st24{fill:#0C0C0C;}
	.st25{fill:#010101;}
	.st26{fill:#D9D9D9;}
	.st27{fill:#DCDCDC;}
	.st28{fill:#D7D7D7;}
	.st29{fill:#D8D8D8;}
	.st30{fill:#111111;}
	.st31{fill:#050505;}
	.st32{fill:#070707;}
	.st33{fill:#060606;}
	.st34{fill:#030303;}
	.st35{fill:#020202;}
	.st36{fill:#151515;}
	.st37{fill:#0F0F0F;}
	.st38{fill:#606060;}
	.st39{fill:#FCFCFC;}
	.st40{fill:#0A0A0A;}
	.st41{fill:#191919;}
	.st42{fill:#0D0D0D;}
	.st43{fill:#101010;}
	.st44{fill:#090909;}
	.st45{fill:#161616;}
	.st46{fill:#080808;}
</style>
<g>
	<path class="st2" d="M38.04,86.26h7.23c0.98,0,1.79,0.8,1.79,1.79v17.16c0,0.98-0.8,1.79-1.79,1.79h-7.23
		c-0.98,0-1.79-0.8-1.79-1.79V88.05C36.26,87.07,37.06,86.26,38.04,86.26z M99.89,10.19c0.37,0.92-0.08,1.96-1,2.32
		c-0.89,0.36-1.91-0.06-2.3-0.94c-0.44-1.06-1.56-1.47-2.64-1.26c-0.68,0.14-1.42,0.57-1.38,1.36c0.04,0.9,1.51,1.18,2.2,1.29
		c2.66,0.44,5.2,1.6,5.56,4.59c0.01,0.12,0.02,0.28,0.03,0.46c0.06,2.51-1.83,4.08-4.1,4.62v0.23c0,0.99-0.8,1.79-1.79,1.79
		c-0.99,0-1.79-0.8-1.79-1.79V22.6c-1.98-0.53-3.54-1.93-4.05-3.97c-0.23-0.96,0.36-1.92,1.31-2.15c0.95-0.23,1.91,0.35,2.15,1.3
		c0.27,1.1,1.48,1.52,2.5,1.49c0.1,0,0.23-0.01,0.41-0.03c0.59-0.07,1.81-0.36,1.79-1.14l-0.01-0.13c-0.13-1.06-1.74-1.35-2.59-1.49
		c-2.59-0.42-5.04-1.7-5.19-4.64c-0.12-2.39,1.47-4.21,3.67-4.88v-0.3c0-0.99,0.8-1.79,1.79-1.79c0.99,0,1.79,0.8,1.79,1.79v0.27
		C97.78,7.39,99.15,8.43,99.89,10.19L99.89,10.19z M94.47,1.96c-7.07,0-12.8,5.73-12.8,12.8c0,7.07,5.73,12.8,12.8,12.8
		s12.8-5.73,12.8-12.8S101.54,1.96,94.47,1.96z M55.79,44.27c1.75,0.42,3.43,1.11,4.96,2.06l3.22-1.43l3.8,3.8l-1.43,3.22
		c0.95,1.53,1.64,3.21,2.06,4.96l3.29,1.27v5.37l-3.29,1.27c-0.42,1.75-1.11,3.43-2.06,4.96l1.43,3.22l-3.8,3.8l-3.22-1.43
		c-1.53,0.95-3.21,1.64-4.96,2.06l-1.27,3.29h-5.37l-1.27-3.29c-1.75-0.42-3.43-1.11-4.96-2.06l-3.22,1.43l-3.8-3.8l1.43-3.22
		c-0.95-1.53-1.64-3.21-2.06-4.96l-3.29-1.27v-5.37l3.29-1.27c0.42-1.75,1.11-3.43,2.06-4.96l-1.43-3.22l3.8-3.8l3.22,1.43
		c1.53-0.94,3.21-1.64,4.96-2.06l1.27-3.29h5.37L55.79,44.27z M51.83,51.46c-5.18,0-9.37,4.2-9.37,9.37s4.2,9.37,9.37,9.37
		s9.37-4.2,9.37-9.37C61.21,55.65,57.01,51.46,51.83,51.46L51.83,51.46z M53.3,0c2.99,0,5.42,2.43,5.42,5.42s-2.43,5.42-5.42,5.42
		c-2.99,0-5.42-2.43-5.42-5.42S50.31,0,53.3,0z M43.97,22.65h18.67c0.62,0,1.12-0.49,1.12-1.11c0-0.09-0.01-0.18-0.03-0.27
		c-1.14-4.7-5.37-8.19-10.42-8.19s-9.28,3.49-10.42,8.19c-0.15,0.6,0.22,1.2,0.81,1.35C43.78,22.64,43.88,22.65,43.97,22.65z
		 M31.98,0c-2.99,0-5.42,2.43-5.42,5.42s2.43,5.42,5.42,5.42s5.42-2.43,5.42-5.42S34.98,0,31.98,0z M41.32,22.65H22.65
		c-0.62,0-1.12-0.49-1.12-1.11c0-0.09,0.01-0.18,0.03-0.27c1.14-4.7,5.37-8.19,10.42-8.19s9.28,3.49,10.42,8.19
		c0.15,0.6-0.22,1.2-0.82,1.35C41.5,22.64,41.41,22.65,41.32,22.65z M10.66,0c2.99,0,5.42,2.43,5.42,5.42s-2.43,5.42-5.42,5.42
		S5.24,8.42,5.24,5.42S7.67,0,10.66,0z M1.33,22.65h18.67c0.62,0,1.12-0.49,1.12-1.11c0-0.09-0.01-0.18-0.03-0.27
		c-1.14-4.7-5.37-8.19-10.42-8.19s-9.28,3.49-10.42,8.19c-0.15,0.6,0.22,1.2,0.81,1.35C1.14,22.64,1.23,22.65,1.33,22.65z
		 M0.95,28.21h62.06c0.52,0,0.95,0.43,0.95,0.95v5.05c0,0.52-0.43,0.95-0.95,0.95H0.95C0.43,35.16,0,34.73,0,34.21v-5.05
		C0,28.63,0.43,28.21,0.95,28.21z M46.18,38.74H6.69L23.87,55.7l4.54-0.01l3.93-1.51c0.28-0.83,0.62-1.64,1.01-2.43l-1.71-3.85
		l7.27-7.27l3.85,1.71c0.79-0.39,1.6-0.72,2.43-1.01L46.18,38.74z M25.68,59.27V73l7.61-3.21c-0.36-0.75-0.68-1.52-0.95-2.31
		l-3.93-1.51v-6.7L25.68,59.27z M74.86,55.53c9.35-5.66,18.59-12.31,27.49-20.16l-3.63,0.2c-0.98,0.03-1.81-0.74-1.84-1.72
		c-0.03-0.96,0.7-1.77,1.66-1.84l8.64-0.47c1.12-0.06,2.01,0.93,1.86,2.03l-1.25,8.57c-0.15,0.97-1.06,1.64-2.03,1.5
		c-0.96-0.15-1.63-1.04-1.5-2l0.53-3.66c-9.54,8.42-19.48,15.5-29.53,21.47v-3.76L74.86,55.53z M98.25,53.85
		c-0.98,0-1.79,0.8-1.79,1.79v49.57c0,0.98,0.8,1.79,1.79,1.79h7.23c0.98,0,1.79-0.8,1.79-1.79V55.64c0-0.98-0.8-1.79-1.79-1.79
		H98.25z M85.42,64.06h-7.23c-0.98,0-1.79,0.8-1.79,1.79v39.37c0,0.98,0.8,1.79,1.79,1.79h7.23c0.98,0,1.79-0.8,1.79-1.79V65.84
		C87.2,64.86,86.4,64.06,85.42,64.06z M56.33,84.26v20.95c0,0.98,0.8,1.79,1.79,1.79h7.23c0.98,0,1.79-0.8,1.79-1.79V78.66
		l-2.37,2.37l-3.85-1.71c-0.79,0.39-1.6,0.72-2.43,1.01l-1.51,3.93L56.33,84.26L56.33,84.26z"/>
</g>
</svg>
