<?xml version="1.0" encoding="utf-8"?>
<!-- Generator: Adobe Illustrator 25.0.0, SVG Export Plug-In . SVG Version: 6.00 Build 0)  -->
<svg version="1.1" id="Layer_1" xmlns="http://www.w3.org/2000/svg" xmlns:xlink="http://www.w3.org/1999/xlink" x="0px" y="0px"
	 viewBox="0 0 109.2 109.2" style="enable-background:new 0 0 109.2 109.2;" xml:space="preserve">
<style type="text/css">
	.st0{fill:#185AE9;}
	.st1{fill:#00B0FB;}
	.st2{fill-rule:evenodd;clip-rule:evenodd;fill:#00B0FB;}
	.st3{fill:#00B0FB;fill-opacity:0.4;}
	.st4{fill:#FFFFFF;}
	.st5{fill:#001135;}
	.st6{fill:#3C7CFF;}
	.st7{fill-rule:evenodd;clip-rule:evenodd;fill:#252F3E;}
	.st8{fill-rule:evenodd;clip-rule:evenodd;fill:#FF9900;}
	.st9{fill:#8D3124;}
	.st10{fill:#E05244;}
	.st11{fill:#F7ADAE;}
	.st12{fill:#5B1E19;}
	.st13{fill:#F58436;}
	.st14{fill:#9D5026;}
	.st15{fill:#1A476F;}
	.st16{fill:#1F5B98;}
	.st17{fill:#2D72B8;}
	.st18{fill:#5294CF;}
	.st19{fill:#FF9900;}
	.st20{fill:#252F3E;}
	.st21{fill:#FDFDFD;}
	.st22{fill:#DBDBDB;}
	.st23{fill:#040404;}
	.st24{fill:#0C0C0C;}
	.st25{fill:#010101;}
	.st26{fill:#D9D9D9;}
	.st27{fill:#DCDCDC;}
	.st28{fill:#D7D7D7;}
	.st29{fill:#D8D8D8;}
	.st30{fill:#111111;}
	.st31{fill:#050505;}
	.st32{fill:#070707;}
	.st33{fill:#060606;}
	.st34{fill:#030303;}
	.st35{fill:#020202;}
	.st36{fill:#151515;}
	.st37{fill:#0F0F0F;}
	.st38{fill:#606060;}
	.st39{fill:#FCFCFC;}
	.st40{fill:#0A0A0A;}
	.st41{fill:#191919;}
	.st42{fill:#0D0D0D;}
	.st43{fill:#101010;}
	.st44{fill:#090909;}
	.st45{fill:#161616;}
	.st46{fill:#080808;}
</style>
<g>
	<path class="st2" d="M38.04,109.2c-1.89,0-3.43-1.54-3.43-3.43s1.54-3.43,3.43-3.43h40.92c1.89,0,3.43,1.54,3.43,3.43
		s-1.54,3.43-3.43,3.43H38.04z M45.97,98.34c0.75-2.48,1.28-5.33,1.48-8.09h21.92c0.24,2.73,0.81,5.58,1.6,8.09H45.97z M6.56,91.78
		C2.94,91.78,0,88.84,0,85.22V51.94c0-3.62,2.94-6.56,6.56-6.56h21.6c3.62,0,6.56,2.94,6.56,6.56v33.28c0,3.62-2.94,6.56-6.56,6.56
		H6.56z M26.18,80.1c-1.74,0-3.15,1.41-3.15,3.15s1.41,3.15,3.15,3.15s3.15-1.41,3.15-3.15S27.92,80.1,26.18,80.1z M17.36,80.1
		c-1.74,0-3.15,1.41-3.15,3.15s1.41,3.15,3.15,3.15s3.15-1.41,3.15-3.15S19.1,80.1,17.36,80.1z M8.54,80.1
		c-1.74,0-3.15,1.41-3.15,3.15S6.8,86.4,8.54,86.4s3.15-1.41,3.15-3.15S10.27,80.1,8.54,80.1z M38.68,86.25
		c0.03-0.34,0.05-0.68,0.05-1.02v-9.07h63.14v4.21c0,3.24-2.64,5.88-5.88,5.88H38.68z M55.04,78.39c-1.11,0-2,0.9-2,2
		c0,1.1,0.9,2,2,2h6.91c1.1,0,2-0.9,2-2c0-1.11-0.9-2-2-2H55.04z M38.73,72.14v-20.2c0-5.83-4.74-10.57-10.57-10.57H15.12V30.11
		c0-3.25,2.64-5.89,5.89-5.89h53.9v25.32c0,4.15,3.37,7.52,7.51,7.52h19.44v15.08H38.73z M82.43,53.05c-1.93,0-3.5-1.57-3.5-3.51
		V3.51c0-1.93,1.57-3.51,3.5-3.51h23.26c1.93,0,3.51,1.57,3.51,3.51v46.04c0,1.93-1.57,3.51-3.51,3.51H82.43z M91.94,46.03
		c-1.1,0-2,0.9-2,2c0,1.11,0.9,2,2,2h4.25c1.11,0,2-0.9,2-2c0-1.1-0.9-2-2-2H91.94z"/>
</g>
</svg>
