<?xml version="1.0" encoding="utf-8"?>
<!-- Generator: Adobe Illustrator 25.0.0, SVG Export Plug-In . SVG Version: 6.00 Build 0)  -->
<svg version="1.1" id="Layer_1" xmlns="http://www.w3.org/2000/svg" xmlns:xlink="http://www.w3.org/1999/xlink" x="0px" y="0px"
	 viewBox="0 0 245.11 235" style="enable-background:new 0 0 245.11 235;" xml:space="preserve">
<style type="text/css">
	.st0{fill:#185AE9;}
	.st1{fill:#00B0FB;}
	.st2{fill-rule:evenodd;clip-rule:evenodd;fill:#00B0FB;}
	.st3{fill:#00B0FB;fill-opacity:0.4;}
	.st4{fill:#FFFFFF;}
	.st5{fill:#3C7CFF;}
	.st6{fill:#001135;}
	.st7{fill:#00769D;}
	.st8{fill:#8DB849;}
	.st9{fill:#5A863E;}
	.st10{fill:#FFFFFE;}
	.st11{fill:#7F54B3;}
	.st12{fill:#F26322;}
</style>
<g>
	<path class="st5" d="M40.73,156.53h41.23c0.72,0,1.31-0.59,1.31-1.31v-34.31c0-0.52-0.3-0.99-0.77-1.2
		c-11.43-5.15-18.82-16.57-18.82-29.09c0-12.86,7.55-22.73,21.25-27.8c0.3-0.11,0.61-0.16,0.93-0.16c0.52,0,1.02,0.16,1.46,0.45
		c0.68,0.48,1.07,1.25,1.07,2.11v18.87c0,0.35,0.14,0.68,0.39,0.93l5.9,5.9c0.25,0.25,0.58,0.39,0.93,0.39
		c0.35,0,0.68-0.14,0.93-0.38l5.9-5.9c0.25-0.25,0.39-0.58,0.39-0.93V65.17c0-0.83,0.42-1.64,1.09-2.12
		c0.4-0.29,0.89-0.44,1.42-0.44c0.32,0,0.64,0.06,0.95,0.17c13.7,5.06,21.25,14.93,21.25,27.79c0,12.52-7.39,23.94-18.82,29.09
		c-0.47,0.21-0.77,0.68-0.77,1.2v34.36c0,0.72,0.59,1.31,1.31,1.31h95.18c0.72,0,1.31-0.59,1.31-1.31v-6.92
		c0-0.72-0.59-1.31-1.31-1.31h-15.77c-1.41,0-2.56-1.15-2.56-2.56v-8.42c0-0.54-0.34-1.03-0.84-1.23c-0.6-0.23-1.21-0.46-1.81-0.74
		c-0.17-0.08-0.36-0.12-0.55-0.12c-0.35,0-0.68,0.14-0.93,0.39l-5.95,5.95c-0.48,0.48-1.12,0.74-1.8,0.74
		c-0.69,0-1.33-0.26-1.81-0.74l-13.84-13.84c-0.48-0.48-0.73-1.11-0.73-1.83c0-0.7,0.27-1.37,0.73-1.83l5.95-5.95
		c0.39-0.39,0.49-0.98,0.26-1.48c-0.28-0.6-0.51-1.16-0.74-1.76c-0.19-0.5-0.69-0.84-1.23-0.84h-8.47c-1.41,0-2.56-1.15-2.56-2.56
		V90.62c0-1.41,1.15-2.56,2.56-2.56h8.47c0.54,0,1.03-0.34,1.23-0.84c0.23-0.6,0.46-1.2,0.72-1.72c0.25-0.51,0.15-1.12-0.25-1.52
		l-5.95-5.95c-0.48-0.48-0.73-1.11-0.73-1.83c0-0.72,0.25-1.35,0.73-1.83l13.84-13.84c0.48-0.48,1.12-0.74,1.81-0.74
		c0.69,0,1.33,0.26,1.8,0.74l6,5.96c0.25,0.25,0.58,0.38,0.93,0.38c0.19,0,0.38-0.04,0.55-0.12c0.6-0.28,1.2-0.51,1.81-0.74
		c0.5-0.19,0.84-0.69,0.84-1.23v-8.42c0-1.41,1.15-2.56,2.56-2.56h15.73c0.72,0,1.31-0.59,1.31-1.31v-6.92
		c0-0.72-0.59-1.31-1.31-1.31H40.73c-0.72,0-1.31,0.59-1.31,1.31v109.65C39.42,155.94,40.01,156.53,40.73,156.53z"/>
	<path class="st5" d="M21.14,195.63h64.69c0.87,0,1.67,0.43,2.14,1.15l8.67,12.98c0.24,0.37,0.65,0.58,1.09,0.58h49.74
		c0.44,0,0.85-0.22,1.09-0.59l8.66-12.97c0.49-0.72,1.3-1.16,2.15-1.16h64.6c0.72,0,1.31-0.59,1.31-1.31v-52.21
		c0-0.42-0.2-0.82-0.55-1.07c-0.22-0.16-0.49-0.25-0.77-0.25c-0.14,0-0.27,0.02-0.41,0.06c-0.28,0.09-0.55,0.14-0.83,0.14
		c-0.68,0-1.32-0.26-1.8-0.74l-6-6c-0.25-0.25-0.58-0.39-0.93-0.39c-0.19,0-0.38,0.04-0.55,0.12c-0.6,0.28-1.2,0.51-1.8,0.74
		c-0.51,0.19-0.84,0.69-0.84,1.23v7.89c0.03,0.31,0.05,0.44,0.05,0.58v14.66c-0.03,1.43-1.18,2.56-2.6,2.56H36.86
		c-1.41,0-2.56-1.15-2.56-2.56V79.78c0-0.72-0.59-1.31-1.31-1.31H21.14c-0.72,0-1.31,0.59-1.31,1.31v114.53
		C19.82,195.04,20.41,195.63,21.14,195.63z M36.86,175.98H208.3c1.47,0,2.66,1.19,2.66,2.66c0,1.47-1.21,2.66-2.71,2.66H36.86
		c-1.47,0-2.66-1.19-2.66-2.66C34.2,177.17,35.4,175.98,36.86,175.98z"/>
	<path class="st4" d="M89.7,156.53h11.85c0.72,0,1.31-0.59,1.31-1.31V118.3c0-1.08,0.67-2.04,1.68-2.39
		c10.72-3.78,17.92-13.92,17.92-25.24c0-8.94-4.21-15.85-12.52-20.55c-0.2-0.11-0.42-0.17-0.65-0.17c-0.23,0-0.47,0.06-0.67,0.18
		c-0.4,0.23-0.65,0.67-0.65,1.13v14.52c0,0.7-0.27,1.37-0.73,1.83l-9.82,9.67c-0.48,0.48-1.12,0.75-1.81,0.75
		c-0.69,0-1.33-0.26-1.8-0.74L84,87.51c-0.47-0.47-0.73-1.1-0.73-1.83V71.17c0-0.46-0.25-0.9-0.65-1.13
		c-0.21-0.12-0.44-0.18-0.67-0.18c-0.22,0-0.44,0.06-0.64,0.16c-8.2,4.58-12.53,11.69-12.53,20.55c0,11.34,7.2,21.48,17.91,25.24
		c0.99,0.34,1.69,1.32,1.69,2.39v37.02C88.39,155.94,88.98,156.53,89.7,156.53z"/>
	<path class="st4" d="M40.73,39.14h163.69c0.72,0,1.31-0.59,1.31-1.31V6.43c0-0.72-0.59-1.31-1.31-1.31H40.73
		c-0.72,0-1.31,0.59-1.31,1.31v31.4C39.42,38.56,40.01,39.14,40.73,39.14z M120.09,19.45h68.56c1.47,0,2.66,1.19,2.66,2.66
		s-1.17,2.66-2.61,2.66h-68.61c-1.47,0-2.66-1.19-2.66-2.66S118.62,19.45,120.09,19.45z M95.6,18.54c1.97,0,3.57,1.6,3.57,3.57
		c0,1.97-1.6,3.57-3.57,3.57c-1.97,0-3.57-1.6-3.57-3.57C92.04,20.14,93.64,18.54,95.6,18.54z M76.01,18.54
		c1.97,0,3.57,1.6,3.57,3.57c0,1.97-1.6,3.57-3.57,3.57c-1.97,0-3.57-1.6-3.57-3.57C72.44,20.14,74.04,18.54,76.01,18.54z
		 M56.46,18.54c1.97,0,3.57,1.6,3.57,3.57c0,1.97-1.6,3.57-3.57,3.57c-1.97,0-3.57-1.6-3.57-3.57
		C52.89,20.14,54.49,18.54,56.46,18.54z"/>
	<path class="st6" d="M160.22,201.38l-8.66,12.97c-0.49,0.72-1.3,1.16-2.15,1.16H95.6c-0.87,0-1.67-0.43-2.14-1.15l-8.67-12.98
		c-0.24-0.37-0.65-0.58-1.09-0.58H6.67c-0.38,0-0.74,0.16-0.99,0.44c-0.25,0.29-0.37,0.66-0.32,1.03
		c2,15.77,15.52,27.67,31.45,27.67h171.44c15.94,0,29.46-11.89,31.45-27.67c0.05-0.37-0.07-0.75-0.32-1.03
		c-0.25-0.28-0.61-0.45-0.99-0.45h-77.08C160.87,200.79,160.46,201.01,160.22,201.38z"/>
	<path class="st4" d="M238.69,93.18h-7.35c-1.14,0-2.15-0.75-2.47-1.81c-0.57-2.01-1.41-4.04-2.48-6.01
		c-0.54-0.99-0.35-2.24,0.45-3.04l5.18-5.18c0.25-0.25,0.39-0.58,0.39-0.93c0-0.35-0.14-0.68-0.39-0.93l-8.37-8.37
		c-0.25-0.25-0.58-0.39-0.93-0.39c-0.35,0-0.68,0.14-0.93,0.38l-5.18,5.18c-0.48,0.48-1.15,0.76-1.84,0.76
		c-0.42,0-0.84-0.11-1.2-0.3c-2.04-1.07-4.06-1.91-6.02-2.48c-1.08-0.32-1.81-1.31-1.81-2.46v-7.35c0-0.72-0.59-1.31-1.31-1.31
		h-11.85c-0.72,0-1.31,0.59-1.31,1.31v7.35c0,1.14-0.75,2.15-1.82,2.46c-2.02,0.58-4.04,1.41-6.01,2.48
		c-0.37,0.2-0.78,0.31-1.21,0.31c-0.68,0-1.35-0.28-1.84-0.76l-5.18-5.18c-0.25-0.25-0.58-0.39-0.93-0.39
		c-0.35,0-0.68,0.14-0.93,0.38l-8.37,8.37c-0.25,0.25-0.39,0.58-0.39,0.93c0,0.35,0.14,0.68,0.39,0.93l5.18,5.18
		c0.81,0.81,0.99,2.05,0.45,3.04c-1.02,1.9-1.88,3.98-2.48,6.02c-0.32,1.08-1.31,1.81-2.46,1.81h-7.35c-0.72,0-1.31,0.59-1.31,1.31
		v11.81c0,0.72,0.59,1.31,1.31,1.31h7.31c1.14,0,2.15,0.75,2.47,1.81c0.57,2.01,1.41,4.04,2.47,6.01c0.54,0.99,0.36,2.24-0.45,3.04
		l-5.18,5.18c-0.25,0.25-0.39,0.58-0.39,0.93c0,0.35,0.14,0.68,0.39,0.93l8.37,8.37c0.25,0.25,0.58,0.39,0.93,0.39
		c0.35,0,0.68-0.14,0.93-0.38l5.18-5.18c0.48-0.48,1.15-0.76,1.84-0.76c0.42,0,0.84,0.11,1.2,0.3c2.04,1.07,4.06,1.91,6.02,2.48
		c1.08,0.32,1.81,1.31,1.81,2.46l0.05,7.36c0,0.72,0.59,1.31,1.31,1.31h11.85c0.72,0,1.31-0.59,1.31-1.31v-7.35
		c0-1.14,0.75-2.15,1.82-2.46c2.02-0.58,4.04-1.41,6.01-2.48c0.37-0.2,0.78-0.31,1.21-0.31c0.68,0,1.35,0.28,1.84,0.76l5.18,5.18
		c0.24,0.24,0.58,0.39,0.93,0.39c0.35,0,0.68-0.14,0.93-0.38l8.37-8.37c0.25-0.25,0.39-0.58,0.39-0.93c0-0.35-0.14-0.68-0.39-0.93
		l-5.18-5.18c-0.81-0.81-0.99-2.05-0.45-3.04c1.02-1.89,1.88-3.97,2.48-6.02c0.32-1.08,1.31-1.81,2.46-1.81h7.35
		c0.72,0,1.31-0.59,1.31-1.31V94.49C240,93.77,239.41,93.18,238.69,93.18z M198.48,117.71c-9.58,0-17.37-7.77-17.37-17.32
		c0-9.55,7.79-17.32,17.37-17.32s17.37,7.77,17.37,17.32C215.84,109.94,208.05,117.71,198.48,117.71z"/>
	<ellipse class="st4" cx="198.48" cy="100.39" rx="12.05" ry="12"/>
	<path class="st6" d="M120.09,24.76h68.61c1.44,0,2.61-1.19,2.61-2.66s-1.19-2.66-2.66-2.66h-68.56c-1.47,0-2.66,1.19-2.66,2.66
		S118.62,24.76,120.09,24.76z"/>
	<path class="st6" d="M36.86,181.3h171.39c1.49,0,2.71-1.19,2.71-2.66c0-1.47-1.19-2.66-2.66-2.66H36.86
		c-1.47,0-2.66,1.19-2.66,2.66C34.2,180.1,35.4,181.3,36.86,181.3z"/>
	<path class="st6" d="M198.48,83.08c-9.58,0-17.37,7.77-17.37,17.32c0,9.55,7.79,17.32,17.37,17.32s17.37-7.77,17.37-17.32
		C215.84,90.84,208.05,83.08,198.48,83.08z M198.48,112.4c-6.65,0-12.05-5.38-12.05-12c0-6.62,5.41-12,12.05-12
		c6.65,0,12.05,5.38,12.05,12C210.53,107.01,205.12,112.4,198.48,112.4z"/>
	<path class="st6" d="M242.56,88.06h-8.37c-0.54,0-1.03-0.34-1.23-0.84c-0.23-0.6-0.46-1.16-0.74-1.76
		c-0.23-0.5-0.12-1.09,0.26-1.48l5.95-5.95c0.48-0.48,0.73-1.11,0.73-1.83c0-0.72-0.25-1.35-0.73-1.83l-13.84-13.84
		c-0.48-0.48-1.12-0.74-1.8-0.74c-0.69,0-1.33,0.26-1.81,0.74l-6,5.95c-0.25,0.24-0.58,0.38-0.93,0.38c-0.19,0-0.38-0.04-0.55-0.12
		c-0.6-0.28-1.21-0.51-1.81-0.74c-0.5-0.19-0.84-0.69-0.84-1.23V2.56c0-1.41-1.15-2.56-2.56-2.56H36.86c-1.41,0-2.56,1.15-2.56,2.56
		v69.48c0,0.72-0.59,1.31-1.31,1.31H17.27c-1.41,0-2.56,1.15-2.56,2.56v118.4c0,0.72-0.59,1.31-1.31,1.31H2.56
		c-1.41,0-2.56,1.15-2.56,2.56C0,218.49,16.54,235,36.86,235h171.39c20.33,0,36.86-16.51,36.86-36.81c0-1.41-1.15-2.56-2.56-2.56
		h-10.84c-0.72,0-1.31-0.59-1.31-1.31v-59.39c0-0.35,0.14-0.68,0.38-0.93l7.55-7.58c0.46-0.46,0.73-1.13,0.73-1.83
		c0-0.72-0.25-1.35-0.73-1.83l-5.95-5.95c-0.4-0.4-0.5-1.01-0.25-1.52c0.26-0.52,0.49-1.12,0.72-1.72c0.19-0.5,0.69-0.84,1.23-0.84
		h8.47c1.41,0,2.56-1.15,2.56-2.56V90.62C245.11,89.21,243.97,88.06,242.56,88.06z M39.42,6.43c0-0.72,0.59-1.31,1.31-1.31h163.69
		c0.72,0,1.31,0.59,1.31,1.31v31.4c0,0.72-0.59,1.31-1.31,1.31H40.73c-0.72,0-1.31-0.59-1.31-1.31V6.43z M39.42,45.57
		c0-0.72,0.59-1.31,1.31-1.31h163.69c0.72,0,1.31,0.59,1.31,1.31v6.92c0,0.72-0.59,1.31-1.31,1.31H188.7
		c-1.41,0-2.56,1.15-2.56,2.56v8.42c0,0.54-0.34,1.03-0.84,1.23c-0.6,0.23-1.21,0.46-1.81,0.74c-0.17,0.08-0.36,0.12-0.55,0.12
		c-0.35,0-0.68-0.13-0.93-0.38l-6-5.96c-0.48-0.48-1.12-0.74-1.8-0.74c-0.69,0-1.33,0.26-1.81,0.74l-13.84,13.84
		c-0.48,0.48-0.73,1.11-0.73,1.83c0,0.72,0.25,1.35,0.73,1.83l5.95,5.95c0.4,0.4,0.5,1.01,0.25,1.52c-0.26,0.52-0.49,1.12-0.72,1.72
		c-0.19,0.5-0.69,0.84-1.23,0.84h-8.47c-1.41,0-2.56,1.15-2.56,2.56v19.55c0,1.41,1.15,2.56,2.56,2.56h8.47
		c0.54,0,1.03,0.34,1.23,0.84c0.23,0.6,0.46,1.16,0.74,1.76c0.23,0.5,0.12,1.09-0.26,1.48l-5.95,5.95
		c-0.46,0.46-0.73,1.13-0.73,1.83c0,0.72,0.25,1.35,0.73,1.83l13.84,13.84c0.48,0.48,1.12,0.74,1.81,0.74c0.69,0,1.33-0.26,1.8-0.74
		l5.95-5.95c0.25-0.25,0.58-0.39,0.93-0.39c0.19,0,0.38,0.04,0.55,0.12c0.6,0.28,1.21,0.51,1.81,0.74c0.5,0.19,0.84,0.69,0.84,1.23
		v8.42c0,1.41,1.15,2.56,2.56,2.56h15.77c0.72,0,1.31,0.59,1.31,1.31v6.92c0,0.72-0.59,1.31-1.31,1.31h-95.18
		c-0.72,0-1.31-0.59-1.31-1.31v-34.36c0-0.52,0.3-0.99,0.77-1.2c11.43-5.15,18.82-16.57,18.82-29.09c0-12.86-7.55-22.73-21.25-27.79
		c-0.31-0.11-0.63-0.17-0.95-0.17c-0.53,0-1.02,0.15-1.42,0.44c-0.67,0.48-1.09,1.29-1.09,2.12v18.92c0,0.35-0.14,0.68-0.39,0.93
		l-5.9,5.9c-0.25,0.25-0.58,0.38-0.93,0.38c-0.35,0-0.68-0.14-0.93-0.39l-5.9-5.9c-0.25-0.25-0.39-0.58-0.39-0.93V65.22
		c0-0.85-0.39-1.62-1.07-2.11c-0.43-0.3-0.94-0.45-1.46-0.45c-0.32,0-0.63,0.06-0.93,0.16c-13.71,5.06-21.25,14.94-21.25,27.8
		c0,12.52,7.39,23.94,18.82,29.09c0.47,0.21,0.77,0.68,0.77,1.2v34.31c0,0.72-0.59,1.31-1.31,1.31H40.73
		c-0.72,0-1.31-0.59-1.31-1.31V45.57z M86.7,115.81c-10.71-3.76-17.91-13.9-17.91-25.24c0-8.86,4.33-15.97,12.53-20.55
		c0.2-0.11,0.42-0.16,0.64-0.16c0.23,0,0.46,0.06,0.67,0.18c0.4,0.24,0.65,0.67,0.65,1.13v14.52c0,0.72,0.25,1.35,0.73,1.83
		l9.83,9.78c0.48,0.48,1.12,0.74,1.8,0.74c0.69,0,1.33-0.26,1.81-0.75l9.82-9.67c0.46-0.46,0.73-1.13,0.73-1.83V71.27
		c0-0.47,0.25-0.9,0.65-1.13c0.2-0.12,0.43-0.18,0.67-0.18c0.23,0,0.45,0.06,0.65,0.17c8.31,4.7,12.52,11.61,12.52,20.55
		c0,11.32-7.2,21.46-17.92,25.24c-1,0.35-1.68,1.3-1.68,2.39v36.92c0,0.72-0.59,1.31-1.31,1.31H89.7c-0.72,0-1.31-0.59-1.31-1.31
		V118.2C88.39,117.14,87.69,116.16,86.7,115.81z M19.82,79.78c0-0.72,0.59-1.31,1.31-1.31h11.85c0.72,0,1.31,0.59,1.31,1.31v79.31
		c0,1.41,1.15,2.56,2.56,2.56h171.39c1.43,0,2.57-1.13,2.6-2.56v-14.66c0-0.14-0.02-0.27-0.05-0.58v-7.89
		c0-0.54,0.34-1.03,0.84-1.23c0.6-0.23,1.2-0.46,1.8-0.74c0.17-0.08,0.36-0.12,0.55-0.12c0.35,0,0.68,0.14,0.93,0.39l6,6
		c0.48,0.47,1.11,0.74,1.8,0.74c0.28,0,0.56-0.05,0.83-0.14c0.13-0.04,0.27-0.06,0.41-0.06c0.28,0,0.54,0.09,0.77,0.25
		c0.34,0.25,0.55,0.64,0.55,1.07v52.21c0,0.72-0.59,1.31-1.31,1.31h-64.6c-0.85,0-1.65,0.43-2.15,1.16l-8.66,12.97
		c-0.24,0.37-0.65,0.59-1.09,0.59H97.73c-0.44,0-0.85-0.22-1.09-0.58l-8.67-12.98c-0.47-0.72-1.27-1.15-2.14-1.15H21.14
		c-0.72,0-1.31-0.59-1.31-1.31V79.78z M238.39,200.79c0.38,0,0.74,0.16,0.99,0.45c0.25,0.28,0.36,0.66,0.32,1.03
		c-1.99,15.77-15.51,27.67-31.45,27.67H36.81c-15.93,0-29.45-11.89-31.45-27.67c-0.05-0.37,0.07-0.75,0.32-1.03
		c0.25-0.28,0.61-0.44,0.99-0.44H83.7c0.44,0,0.85,0.22,1.09,0.58l8.67,12.98c0.47,0.72,1.27,1.15,2.14,1.15h53.81
		c0.85,0,1.66-0.43,2.15-1.16l8.66-12.97c0.24-0.37,0.65-0.59,1.09-0.59H238.39z M240,106.3c0,0.72-0.59,1.31-1.31,1.31h-7.35
		c-1.15,0-2.15,0.73-2.46,1.81c-0.6,2.05-1.46,4.13-2.48,6.02c-0.54,0.98-0.35,2.23,0.45,3.04l5.18,5.18
		c0.25,0.25,0.39,0.58,0.39,0.93c0,0.35-0.14,0.68-0.39,0.93l-8.37,8.37c-0.25,0.25-0.58,0.38-0.93,0.38
		c-0.35,0-0.69-0.14-0.93-0.39l-5.18-5.18c-0.48-0.48-1.15-0.76-1.84-0.76c-0.42,0-0.84,0.11-1.21,0.31
		c-1.97,1.07-3.99,1.9-6.01,2.48c-1.07,0.32-1.82,1.33-1.82,2.46v7.35c0,0.72-0.59,1.31-1.31,1.31h-11.85
		c-0.72,0-1.31-0.59-1.31-1.31l-0.05-7.36c0-1.16-0.73-2.15-1.81-2.46c-1.96-0.57-3.98-1.41-6.02-2.48c-0.36-0.2-0.78-0.3-1.2-0.3
		c-0.68,0-1.35,0.28-1.84,0.76l-5.18,5.18c-0.25,0.25-0.58,0.38-0.93,0.38c-0.35,0-0.68-0.14-0.93-0.39l-8.37-8.37
		c-0.25-0.25-0.39-0.58-0.39-0.93c0-0.35,0.14-0.68,0.39-0.93l5.18-5.18c0.81-0.8,0.99-2.06,0.45-3.04c-1.07-1.97-1.9-4-2.47-6.01
		c-0.31-1.07-1.33-1.81-2.47-1.81h-7.31c-0.72,0-1.31-0.59-1.31-1.31V94.49c0-0.72,0.59-1.31,1.31-1.31h7.35
		c1.15,0,2.15-0.73,2.46-1.81c0.6-2.04,1.46-4.12,2.48-6.02c0.54-0.98,0.35-2.23-0.45-3.04l-5.18-5.18
		c-0.25-0.25-0.39-0.58-0.39-0.93c0-0.35,0.14-0.68,0.39-0.93l8.37-8.37c0.25-0.25,0.58-0.38,0.93-0.38c0.35,0,0.68,0.14,0.93,0.39
		l5.18,5.18c0.48,0.48,1.15,0.76,1.84,0.76c0.42,0,0.84-0.11,1.21-0.31c1.97-1.07,3.99-1.9,6.01-2.48c1.07-0.31,1.82-1.33,1.82-2.46
		v-7.35c0-0.72,0.59-1.31,1.31-1.31h11.85c0.72,0,1.31,0.59,1.31,1.31v7.35c0,1.16,0.73,2.15,1.81,2.46
		c1.96,0.57,3.98,1.41,6.02,2.48c0.36,0.2,0.78,0.3,1.2,0.3c0.68,0,1.35-0.28,1.84-0.76l5.18-5.18c0.25-0.25,0.58-0.38,0.93-0.38
		c0.35,0,0.68,0.14,0.93,0.39l8.37,8.37c0.25,0.25,0.39,0.58,0.39,0.93c0,0.35-0.14,0.68-0.39,0.93l-5.18,5.18
		c-0.81,0.81-0.99,2.06-0.45,3.04c1.07,1.97,1.9,4,2.48,6.01c0.31,1.07,1.33,1.81,2.47,1.81h7.35c0.72,0,1.31,0.59,1.31,1.31V106.3z
		"/>
	<path class="st6" d="M56.46,25.67c1.97,0,3.57-1.6,3.57-3.57c0-1.97-1.6-3.57-3.57-3.57c-1.97,0-3.57,1.6-3.57,3.57
		C52.89,24.07,54.49,25.67,56.46,25.67z"/>
	<path class="st6" d="M76.01,25.67c1.97,0,3.57-1.6,3.57-3.57c0-1.97-1.6-3.57-3.57-3.57c-1.97,0-3.57,1.6-3.57,3.57
		C72.44,24.07,74.04,25.67,76.01,25.67z"/>
	<path class="st6" d="M95.6,25.67c1.97,0,3.57-1.6,3.57-3.57c0-1.97-1.6-3.57-3.57-3.57c-1.97,0-3.57,1.6-3.57,3.57
		C92.04,24.07,93.64,25.67,95.6,25.67z"/>
</g>
</svg>
