<?xml version="1.0" encoding="utf-8"?>
<!-- Generator: Adobe Illustrator 25.0.0, SVG Export Plug-In . SVG Version: 6.00 Build 0)  -->
<svg version="1.1" id="Layer_1" xmlns="http://www.w3.org/2000/svg" xmlns:xlink="http://www.w3.org/1999/xlink" x="0px" y="0px"
	 viewBox="0 0 238.1 235.02" style="enable-background:new 0 0 238.1 235.02;" xml:space="preserve">
<style type="text/css">
	.st0{fill:#185AE9;}
	.st1{fill:#00B0FB;}
	.st2{fill-rule:evenodd;clip-rule:evenodd;fill:#00B0FB;}
	.st3{fill:#00B0FB;fill-opacity:0.4;}
	.st4{fill:#FFFFFF;}
	.st5{fill:#3C7CFF;}
	.st6{fill:#001135;}
	.st7{fill:#00769D;}
	.st8{fill:#8DB849;}
	.st9{fill:#5A863E;}
	.st10{fill:#FFFFFE;}
	.st11{fill:#7F54B3;}
	.st12{fill:#F26322;}
</style>
<g>
	<path class="st4" d="M193.33,66.58c-23.77,0.13-47.54,0.05-71.3,0.05c-0.99,0-1.98,0.01-2.96,0c-4.31-0.08-9.07,3.94-8.94,8.91
		c0.15,5.92,0.03,11.84,0.04,17.77c0,0.78,0.08,1.56,0.14,2.39h93.11c0.04-1.04,0.11-1.84,0.11-2.64
		c0.01-5.43-0.14-10.86,0.04-16.28C203.75,71.14,199.03,66.55,193.33,66.58z M160.08,86.59c-1.11,0.21-2.28,0.16-3.56,0.23
		c-1.01-0.08-2.17-0.04-3.28-0.28c-2.64-0.56-4.23-2.72-4.08-5.33c0.15-2.49,2.17-4.53,4.82-4.69c1.79-0.11,3.61-0.09,5.4,0
		c2.72,0.14,4.83,2.24,4.99,4.84C164.52,83.77,162.67,86.1,160.08,86.59z"/>
	<path class="st4" d="M203.51,204.53c0-0.79-0.07-1.58-0.11-2.4h-93.05c-0.1,0.47-0.17,0.63-0.17,0.8
		c-0.01,5.84-0.02,11.68-0.02,17.52c0,5.76,3.43,9.21,9.17,9.21c24.92,0,49.85-0.1,74.77,0.09c5.21,0.04,9.57-4.34,9.45-9.42
		C203.42,215.06,203.52,209.79,203.51,204.53z M155.28,221.3c-2.86-0.1-5.26-2.68-5.12-5.52c0.14-2.85,2.77-5.24,5.59-5.07
		c2.7,0.16,5.11,2.75,5.04,5.42C160.71,218.93,158.1,221.39,155.28,221.3z"/>
	<path class="st6" d="M5.62,42.32h226.87c0.09-0.57,0.18-0.89,0.18-1.21c0-8.4,0-16.8-0.01-25.19c0-0.56-0.09-1.15-0.28-1.68
		c-2.05-5.65-6.82-8.94-12.75-8.93C152.7,5.39,85.77,5.36,18.84,5.36c-0.82,0-1.65-0.03-2.47,0.01c-6.16,0.32-11.1,6.89-10.99,11.35
		c0.19,7.82,0.05,15.64,0.06,23.46C5.44,40.89,5.55,41.59,5.62,42.32z M150.02,18.84c0.64-0.13,1.31-0.13,1.96-0.13
		c19.97,0,39.95,0,59.92-0.01c2.08,0,3.92,0.41,5.11,2.31c2.18,3.52-0.04,7.62-4.25,7.65c-8.06,0.06-16.11,0.02-24.17,0.02h-6.9
		c-10.11,0-20.22,0.02-30.33-0.01c-3.37-0.01-5.35-2.01-5.26-5.13C146.17,21.13,147.64,19.34,150.02,18.84z M63.46,18.32
		c2.75,0,5.28,2.65,5.25,5.48c-0.03,2.86-2.57,5.34-5.39,5.28c-2.71-0.06-5.09-2.54-5.1-5.28C58.22,20.92,60.71,18.32,63.46,18.32z
		 M44.43,18.33c2.67-0.04,5.44,2.71,5.42,5.39c-0.02,2.77-2.67,5.39-5.41,5.36c-2.63-0.02-5.3-2.63-5.33-5.2
		C39.08,21.21,41.81,18.37,44.43,18.33z M25.51,18.33c2.51-0.08,5.39,2.8,5.44,5.44c0.05,2.55-2.55,5.2-5.21,5.31
		c-2.83,0.11-5.44-2.37-5.47-5.21C20.24,21,22.69,18.42,25.51,18.33z"/>
	<path class="st4" d="M156.76,120.53c-15.37-0.11-27.86,12.64-27.81,27.86c0.04,14.8,12.41,27.6,28.03,27.59
		c14.34-0.01,28.12-13.06,27.29-27.72C184.62,132.85,172.09,120.64,156.76,120.53z M166.83,145.89c-4.16,3.71-8.38,7.36-12.6,11
		c-1.86,1.6-3.11,1.5-4.58-0.37c-1.32-1.67-2.61-3.37-3.83-5.12c-1.05-1.51-0.83-3.07,0.41-3.9c1.18-0.79,2.59-0.5,3.67,0.81
		c0.83,1.01,1.61,2.06,2.47,3.18c4.63-3.45,8.47-7.76,13.63-11.21c1.07,1.07,1.88,1.88,2.88,2.88
		C168.06,144.26,167.58,145.23,166.83,145.89z"/>
	<path class="st5" d="M110.36,100.81v95.59h92.95v-95.59H110.36z M156.57,181.13c-18.88-0.08-32.9-15.59-32.62-32.86
		c-0.35-17.79,14.95-32.96,32.94-32.83c17.1,0.12,32.69,13.85,32.67,32.89C189.55,166.43,175.16,181.21,156.57,181.13z"/>
	<path class="st5" d="M230.18,47.38c-74.09,0-148.18,0-222.27,0c-0.82,0-1.64,0.05-2.46,0.08c0,41.33-0.01,82.66,0,123.99
		c0,0.88,0.16,1.79,0.38,2.65c1.15,4.58,6.67,9.17,12.92,9.15c28.65-0.08,57.29-0.03,85.94-0.03c0.04-0.82,0.11-1.64,0.11-2.46
		c0-27.25,0-54.5,0-81.74c0-7.74-0.05-15.48,0.02-23.21c0.07-7.74,6.12-14.07,13.63-14.09c25.51-0.06,51.03-0.08,76.55,0.06
		c2.26,0.01,4.75,0.84,6.72,1.99c4.7,2.73,6.86,7.04,6.86,12.53c-0.04,34.57-0.02,69.15-0.01,103.72c0,1.07,0.09,2.13,0.14,3.2
		c3.29,0,6.58,0.12,9.86-0.03c2.02-0.1,4.06-0.42,6-0.99c3.81-1.11,8.15-5.96,8.15-10.92c-0.06-41.26-0.05-82.53-0.05-123.8
		C231.83,47.43,231,47.38,230.18,47.38z M85.65,166.29c-0.71,0.15-1.47,0.07-2.21,0.07c-9.45,0-18.91,0-28.36,0H27.22
		c-0.49,0-0.99,0.02-1.48,0c-1.88-0.11-2.98-1.07-3-2.59c-0.02-1.48,1.14-2.54,2.94-2.67c0.41-0.03,0.82-0.01,1.23-0.01
		c18.91,0,37.82,0,56.72,0c0.66,0,1.33-0.05,1.97,0.07c1.37,0.25,2.24,1.12,2.25,2.52C87.86,165.11,87,165.99,85.65,166.29z
		 M24.72,139.31c0.55-0.12,1.15-0.07,1.72-0.07c19.34,0,38.67,0,58.01,0c0.57,0,1.15,0.05,1.64,0.07c1.22,0.73,2.08,1.61,1.63,3.05
		c-0.46,1.46-1.61,1.87-3.1,1.87c-19.5-0.03-39-0.02-58.5-0.01c-1.3,0-2.47-0.12-3.12-1.47C22.33,141.33,23.13,139.67,24.72,139.31z
		 M84.73,122.34c-0.98,0.04-1.97,0-2.96,0c-18.17,0-36.34,0-54.5,0c-0.82,0-1.67,0.07-2.45-0.11c-1.21-0.29-2.04-1.12-2.07-2.43
		c-0.03-1.43,0.79-2.33,2.13-2.63c0.71-0.16,1.47-0.09,2.21-0.09c9.37,0,18.74,0,28.12,0c9.29,0,18.58,0,27.87,0
		c0.58,0,1.16-0.02,1.73,0.01c1.83,0.09,3,1.08,3.06,2.54C87.93,121.16,86.69,122.26,84.73,122.34z M87.86,94.95
		c-0.01,3.7-1.95,5.7-5.59,5.7c-18.02,0.02-36.03,0.02-54.04,0c-3.52,0-5.49-2-5.51-5.52c-0.02-8.64-0.02-17.28,0-25.91
		c0.01-3.65,1.97-5.52,5.7-5.53c8.96-0.01,17.93,0,26.89,0c8.88,0,17.77-0.01,26.65,0c4.07,0,5.88,1.79,5.89,5.84
		C87.88,78,87.89,86.48,87.86,94.95z"/>
	<path class="st4" d="M27.78,68.8v26.97h2.88c15.55,0,31.1,0.01,46.65-0.03c1.84-0.01,3.68-0.36,5.84-0.58
		c-0.24-8.98-0.46-17.7-0.69-26.35H27.78z"/>
	<path class="st6" d="M159.38,76.53c-1.8-0.09-3.61-0.1-5.4,0c-2.65,0.16-4.67,2.2-4.82,4.69c-0.15,2.61,1.44,4.77,4.08,5.33
		c1.11,0.24,2.27,0.2,3.28,0.28c1.28-0.07,2.44-0.02,3.56-0.23c2.6-0.49,4.44-2.82,4.29-5.23C164.2,78.77,162.1,76.67,159.38,76.53z
		"/>
	<path class="st6" d="M237.94,45.88c0.03-9.79,0.09-19.58,0.06-29.38c0-1.28-0.37-2.6-0.76-3.85C234.81,4.77,228.13,0,219.54,0
		C152.55,0,85.56,0,18.57,0c-0.49,0-0.99-0.01-1.48,0.01C7.94,0.46,0.4,7.6,0.13,16.75c-0.29,9.7-0.01,19.42,0.02,29.13
		c-0.04,0.74-0.11,1.47-0.11,2.21c0,40.48,0,80.97-0.01,121.45c0,3.52,0.56,6.91,2.46,9.9c3.6,5.66,8.69,8.77,15.55,8.77
		c28.88-0.01,57.75,0,86.63,0.01c0.04,0.99,0.12,1.97,0.12,2.95c0.01,9.71-0.01,19.43,0.01,29.14c0.02,8.46,6.17,14.68,14.61,14.69
		c24.86,0.03,49.72-0.01,74.58,0.02c8.82,0.01,14.8-7.13,14.64-14.67c-0.2-9.79-0.05-19.59-0.04-29.39c0-0.9,0.08-1.8,0.13-2.7
		c4.28-0.03,8.55,0.04,12.83-0.12c4.65-0.17,8.52-2.18,11.68-5.56c3.63-3.88,4.88-8.58,4.87-13.79
		c-0.03-39.99-0.02-79.97-0.02-119.95C238.07,47.85,237.99,46.86,237.94,45.88z M5.38,16.73c-0.1-4.46,4.84-11.03,10.99-11.35
		c0.82-0.04,1.64-0.01,2.47-0.01c66.93,0,133.85,0.03,200.78-0.05c5.93-0.01,10.7,3.28,12.75,8.93c0.19,0.53,0.28,1.12,0.28,1.68
		c0.02,8.4,0.02,16.8,0.01,25.19c0,0.32-0.09,0.63-0.18,1.21H5.62c-0.06-0.73-0.18-1.43-0.18-2.12C5.43,32.37,5.57,24.55,5.38,16.73
		z M194.09,229.75c-24.92-0.19-49.85-0.08-74.77-0.09c-5.74,0-9.17-3.45-9.17-9.21c0-5.84,0.01-11.68,0.02-17.52
		c0-0.16,0.07-0.32,0.17-0.8h93.05c0.04,0.82,0.11,1.61,0.11,2.4c0.01,5.26-0.09,10.53,0.03,15.79
		C203.66,225.4,199.31,229.79,194.09,229.75z M110.36,196.4v-95.59h92.95v95.59H110.36z M203.51,93.06c0,0.8-0.06,1.61-0.11,2.64
		H110.3c-0.05-0.83-0.14-1.61-0.14-2.39c-0.01-5.92,0.11-11.85-0.04-17.77c-0.13-4.98,4.64-8.99,8.94-8.91c0.99,0.02,1.98,0,2.96,0
		c23.77,0,47.54,0.07,71.3-0.05c5.7-0.03,10.43,4.56,10.23,10.19C203.37,82.2,203.52,87.63,203.51,93.06z M224.55,182.18
		c-1.93,0.56-3.98,0.89-6,0.99c-3.28,0.15-6.57,0.03-9.86,0.03c-0.05-1.06-0.14-2.13-0.14-3.2c0-34.57-0.02-69.15,0.01-103.72
		c0-5.5-2.16-9.81-6.86-12.53c-1.98-1.15-4.46-1.98-6.72-1.99c-25.51-0.14-51.03-0.12-76.55-0.06c-7.51,0.02-13.56,6.35-13.63,14.09
		c-0.07,7.73-0.02,15.47-0.02,23.21c0,27.25,0,54.5,0,81.74c0,0.82-0.07,1.64-0.11,2.46c-28.65,0-57.29-0.04-85.94,0.03
		c-6.24,0.02-11.77-4.57-12.92-9.15c-0.21-0.86-0.38-1.76-0.38-2.65c-0.01-41.33-0.01-82.66,0-123.99c0.82-0.03,1.64-0.08,2.46-0.08
		c74.09,0,148.18,0,222.27,0c0.82,0,1.64,0.05,2.46,0.07c0,41.27-0.01,82.54,0.05,123.8C232.71,176.22,228.37,181.07,224.55,182.18z
		"/>
	<path class="st6" d="M81.98,63.69c-8.88-0.01-17.77,0-26.65,0c-8.96,0-17.93-0.01-26.89,0c-3.74,0-5.69,1.88-5.7,5.53
		c-0.02,8.64-0.02,17.28,0,25.91c0.01,3.52,1.99,5.52,5.51,5.52c18.01,0.02,36.02,0.02,54.04,0c3.64,0,5.58-2,5.59-5.7
		c0.02-8.47,0.02-16.95,0-25.42C87.86,65.48,86.05,63.69,81.98,63.69z M77.31,95.74c-15.55,0.04-31.1,0.03-46.65,0.03h-2.88V68.8
		h54.68c0.23,8.65,0.45,17.37,0.69,26.35C80.99,95.38,79.15,95.73,77.31,95.74z"/>
	<path class="st6" d="M84.8,117.08c-0.57-0.03-1.15-0.01-1.73-0.01c-9.29,0-18.58,0-27.87,0c-9.37,0-18.74,0-28.12,0
		c-0.74,0-1.5-0.07-2.21,0.09c-1.35,0.3-2.17,1.2-2.13,2.63c0.03,1.31,0.85,2.14,2.07,2.43c0.78,0.19,1.63,0.11,2.45,0.11
		c18.17,0.01,36.34,0,54.5,0c0.99,0,1.98,0.03,2.96,0c1.96-0.08,3.2-1.18,3.13-2.72C87.81,118.16,86.63,117.18,84.8,117.08z"/>
	<path class="st6" d="M85.59,161.17c-0.64-0.12-1.31-0.07-1.97-0.07c-18.91,0-37.82,0-56.72,0c-0.41,0-0.82-0.02-1.23,0.01
		c-1.81,0.13-2.96,1.19-2.94,2.67c0.02,1.52,1.12,2.47,3,2.59c0.49,0.03,0.99,0,1.48,0h27.87c9.45,0,18.91,0,28.36,0
		c0.74,0,1.5,0.08,2.21-0.07c1.35-0.29,2.21-1.18,2.19-2.59C87.83,162.29,86.97,161.42,85.59,161.17z"/>
	<path class="st6" d="M26.12,144.21c19.5-0.01,39-0.01,58.5,0.01c1.49,0,2.64-0.41,3.1-1.87c0.45-1.44-0.41-2.32-1.63-3.05
		c-0.5-0.02-1.07-0.07-1.64-0.07c-19.34,0-38.67,0-58.01,0c-0.58,0-1.17-0.05-1.72,0.07c-1.6,0.36-2.4,2.02-1.72,3.43
		C23.65,144.09,24.82,144.21,26.12,144.21z"/>
	<path class="st6" d="M156.9,115.44c-17.99-0.13-33.29,15.04-32.94,32.83c-0.28,17.27,13.73,32.78,32.62,32.86
		c18.59,0.08,32.98-14.69,33-32.8C189.58,129.29,173.99,115.56,156.9,115.44z M156.98,175.98c-15.62,0.01-27.98-12.79-28.03-27.59
		c-0.04-15.22,12.44-27.97,27.81-27.86c15.33,0.11,27.86,12.32,27.51,27.73C185.1,162.92,171.32,175.96,156.98,175.98z"/>
	<path class="st6" d="M155.74,210.71c-2.82-0.16-5.45,2.22-5.59,5.07c-0.14,2.83,2.26,5.42,5.12,5.52c2.82,0.09,5.44-2.37,5.51-5.17
		C160.85,213.46,158.44,210.87,155.74,210.71z"/>
	<path class="st4" d="M151.36,28.67c10.11,0.03,20.22,0.01,30.33,0.01h6.9c8.06,0,16.11,0.04,24.17-0.02
		c4.2-0.03,6.43-4.13,4.25-7.65c-1.19-1.9-3.02-2.31-5.11-2.31c-19.97,0.01-39.95,0-59.92,0.01c-0.65,0-1.32,0-1.96,0.13
		c-2.38,0.5-3.85,2.29-3.92,4.71C146.01,26.67,148,28.66,151.36,28.67z"/>
	<path class="st4" d="M25.74,29.07c2.66-0.11,5.26-2.76,5.21-5.31c-0.05-2.64-2.93-5.52-5.44-5.44c-2.82,0.09-5.26,2.68-5.24,5.54
		C20.3,26.7,22.9,29.19,25.74,29.07z"/>
	<path class="st4" d="M44.44,29.07c2.75,0.03,5.39-2.59,5.41-5.36c0.02-2.68-2.75-5.43-5.42-5.39c-2.62,0.04-5.35,2.88-5.32,5.55
		C39.14,26.45,41.8,29.05,44.44,29.07z"/>
	<path class="st4" d="M63.32,29.07c2.82,0.06,5.35-2.42,5.39-5.28c0.03-2.83-2.5-5.48-5.25-5.48c-2.75,0-5.24,2.6-5.24,5.47
		C58.23,26.54,60.62,29.01,63.32,29.07z"/>
	<path class="st6" d="M152.36,151.49c-0.86-1.11-1.63-2.17-2.47-3.18c-1.08-1.3-2.5-1.59-3.67-0.81c-1.24,0.82-1.46,2.39-0.41,3.9
		c1.22,1.75,2.51,3.45,3.83,5.12c1.47,1.86,2.72,1.97,4.58,0.37c4.23-3.64,8.44-7.29,12.6-11c0.75-0.67,1.23-1.63,2.04-2.73
		c-1-1.01-1.81-1.81-2.88-2.88C160.83,143.73,156.99,148.04,152.36,151.49z"/>
</g>
</svg>
