<?xml version="1.0" encoding="utf-8"?>
<!-- Generator: Adobe Illustrator 24.3.0, SVG Export Plug-In . SVG Version: 6.00 Build 0)  -->
<svg version="1.1" id="Layer_1" xmlns="http://www.w3.org/2000/svg" xmlns:xlink="http://www.w3.org/1999/xlink" x="0px" y="0px"
	 width="90.9px" height="93.4px" viewBox="0 0 90.9 93.4" style="enable-background:new 0 0 90.9 93.4;" xml:space="preserve">
<style type="text/css">
	.st0{fill:#00C8FF;}
	.st1{fill-rule:evenodd;clip-rule:evenodd;fill:#00C8FF;}
	.st2{fill:#185AE9;}
	.st3{fill:#FFFFFF;}
	.st4{fill-rule:evenodd;clip-rule:evenodd;fill:#FFFFFF;}
	.st5{fill:#00B0FB;}
	.st6{fill:#00B0FB;fill-opacity:0.4;}
	.st7{fill:#E4ECF4;}
	.st8{fill:#FFE8A0;}
	.st9{fill:none;}
	.st10{fill:#0D0D0D;}
	.st11{fill-rule:evenodd;clip-rule:evenodd;fill:#00B0FB;}
</style>
<g>
	<path class="st5" d="M37.7,83.5h15.4l2.3-3l1-1.2h30.8V21.9c0-2.7-2.2-5-5-5h-4.8v5.9h4v51.4H9.5V22.7h4v-5.9H8.7c-2.8,0-5,2.2-5,5
		v57.4h30.9L37.7,83.5z"/>
	<path class="st5" d="M57.8,82.2L57.8,82.2l-3.2,4.2H36.3l-3.2-4.2H0v2.9c0,4.5,3.7,8.2,8.2,8.2h74.4c4.5,0,8.2-3.7,8.2-8.2v-2.9
		L57.8,82.2z M74.5,2.4c0-1.3-1.1-2.4-2.4-2.4H18.8c-1.3,0-2.4,1.1-2.4,2.4v68.9h58C74.4-8,74.5,14.2,74.5,2.4L74.5,2.4z M35.5,59.8
		c0,1-0.8,1.8-1.8,1.8h-7.5c-1,0-1.8-0.8-1.8-1.8v-7.6c0-1,0.8-1.8,1.8-1.8h7.5c1,0,1.8,0.8,1.8,1.8V59.8z M35.5,40.8
		c0,1-0.8,1.8-1.8,1.8h-7.5c-1,0-1.8-0.8-1.8-1.8v-7.5c0-1,0.8-1.8,1.8-1.8h7.5c1,0,1.8,0.8,1.8,1.8V40.8z M35.5,21.9
		c0,1-0.8,1.8-1.8,1.8c0,0,0,0,0,0h-7.5c-1,0-1.8-0.8-1.8-1.8v-7.5c0-1,0.8-1.8,1.8-1.8h7.5c1,0,1.8,0.8,1.8,1.8V21.9L35.5,21.9z
		 M54.9,60.8H44.2c-0.8,0-1.5-0.7-1.5-1.5c0,0,0,0,0,0c0-0.8,0.7-1.5,1.5-1.5h10.7c0.8,0,1.5,0.7,1.5,1.5
		C56.4,60.2,55.7,60.8,54.9,60.8C54.9,60.8,54.9,60.8,54.9,60.8z M66.7,54.1H44.2c-0.8,0-1.5-0.7-1.5-1.5c0-0.8,0.7-1.5,1.5-1.5
		h22.4c0.8,0,1.5,0.7,1.5,1.5C68.1,53.4,67.5,54.1,66.7,54.1z M42.8,40.5c0-0.8,0.7-1.5,1.5-1.5h10.7c0.8,0,1.5,0.7,1.5,1.5
		c0,0.8-0.7,1.5-1.5,1.5H44.2C43.4,41.9,42.8,41.3,42.8,40.5z M66.7,35.1H44.2c-0.8,0-1.5-0.7-1.5-1.5c0,0,0,0,0,0
		c0-0.8,0.7-1.5,1.5-1.5h22.4c0.8,0,1.5,0.7,1.5,1.5C68.1,34.5,67.5,35.1,66.7,35.1C66.7,35.1,66.7,35.1,66.7,35.1z M42.8,21.6
		c0-0.8,0.7-1.5,1.5-1.5h10.7c0.8,0,1.5,0.6,1.5,1.5c0,0.8-0.7,1.5-1.5,1.5H44.2C43.4,23,42.8,22.4,42.8,21.6z M66.7,16.2H44.2
		c-0.8,0-1.5-0.7-1.5-1.5c0-0.8,0.7-1.5,1.5-1.5h22.4c0.8,0,1.5,0.7,1.5,1.5C68.1,15.6,67.5,16.2,66.7,16.2z"/>
</g>
</svg>
