<?xml version="1.0" encoding="utf-8"?>
<!-- Generator: Adobe Illustrator 24.3.0, SVG Export Plug-In . SVG Version: 6.00 Build 0)  -->
<svg version="1.1" id="Layer_1" xmlns="http://www.w3.org/2000/svg" xmlns:xlink="http://www.w3.org/1999/xlink" x="0px" y="0px"
	 width="101.4px" height="98.3px" viewBox="0 0 101.4 98.3" style="enable-background:new 0 0 101.4 98.3;" xml:space="preserve">
<style type="text/css">
	.st0{fill:#00C8FF;}
	.st1{fill-rule:evenodd;clip-rule:evenodd;fill:#00C8FF;}
	.st2{fill:#185AE9;}
	.st3{fill:#FFFFFF;}
	.st4{fill-rule:evenodd;clip-rule:evenodd;fill:#FFFFFF;}
	.st5{fill:#00B0FB;}
	.st6{fill:#00B0FB;fill-opacity:0.4;}
	.st7{fill:#E4ECF4;}
	.st8{fill:#FFE8A0;}
	.st9{fill:none;}
	.st10{fill:#0D0D0D;}
	.st11{fill-rule:evenodd;clip-rule:evenodd;fill:#00B0FB;}
</style>
<g>
	<path class="st5" d="M58.6,16.6c5.7,0,10.3,3.8,11.9,8.9h17.2v-0.8c0-0.4-0.4-1-1-1L78.6,22c-0.2-0.6-0.4-1.4-0.6-2l4.4-6.7
		c0.2-0.6,0.2-1.2-0.2-1.6l-6.1-6.1c-0.4-0.4-1-0.4-1.6-0.2l-6.7,4.4c-0.6-0.2-1.4-0.4-2-0.6L64,1c0-0.6-0.6-1-1-1h-8.7
		c-0.6,0-1.2,0.4-1.2,1l-1.8,8.1l-1.8,0.6l-6.9-4.4C42,5.2,41.4,5.2,41,5.5l-6.1,6.1c-0.4,0.4-0.4,1-0.2,1.6l4.6,6.7
		c-0.4,0.6-0.6,1.4-0.8,2l-8.1,1.8c-0.4,0-0.8,0.6-0.8,1v0.8h16.8C47.9,20.4,52.9,16.6,58.6,16.6z"/>
	<path class="st5" d="M58.6,19c-4.6,0-8.3,2.8-9.7,6.5h19.2C66.8,21.8,63,19,58.6,19z"/>
	<path class="st5" d="M22,77.7c0,0.6,0.6,1.2,1.2,1.2h66.4c0.6,0,1-0.4,1.2-1L93.1,67H20.6L22,77.7z"/>
	<path class="st5" d="M101.2,28.5c-0.2-0.4-0.6-0.6-1-0.6H17.8l-3.5-13.3c-0.2-0.6-0.6-1-1.2-1H1.2c-0.6,0-1.2,0.6-1.2,1.2
		S0.6,16,1.2,16h10.9l3.6,13.5c0,0,0,0.1,0,0.1L17,39.8h82l2.4-10.3C101.4,29.1,101.4,28.7,101.2,28.5z"/>
	<polygon class="st5" points="20.2,64.6 93.7,64.6 95.9,54.7 19,54.7 	"/>
	<polygon class="st5" points="18.6,52.3 96.3,52.3 98.7,42.2 17.4,42.2 	"/>
	<circle class="st5" cx="81.8" cy="91.1" r="7.1"/>
	<circle class="st5" cx="30.7" cy="91.1" r="7.1"/>
</g>
</svg>
