<?xml version="1.0" encoding="utf-8"?>
<!-- Generator: Adobe Illustrator 25.0.0, SVG Export Plug-In . SVG Version: 6.00 Build 0)  -->
<svg version="1.1" id="Layer_1" xmlns="http://www.w3.org/2000/svg" xmlns:xlink="http://www.w3.org/1999/xlink" x="0px" y="0px"
	 viewBox="0 0 564.27 478" style="enable-background:new 0 0 564.27 478;" xml:space="preserve">
<style type="text/css">
	.st0{fill:#185AE9;}
	.st1{fill:#00B0FB;}
	.st2{fill-rule:evenodd;clip-rule:evenodd;fill:#00B0FB;}
	.st3{fill:#00B0FB;fill-opacity:0.4;}
	.st4{fill:#FFFFFF;}
	.st5{fill:#001135;}
	.st6{fill:#3C7CFF;}
	.st7{fill-rule:evenodd;clip-rule:evenodd;fill:#252F3E;}
	.st8{fill-rule:evenodd;clip-rule:evenodd;fill:#FF9900;}
	.st9{fill:#8D3124;}
	.st10{fill:#E05244;}
	.st11{fill:#F7ADAE;}
	.st12{fill:#5B1E19;}
	.st13{fill:#F58436;}
	.st14{fill:#9D5026;}
	.st15{fill:#1A476F;}
	.st16{fill:#1F5B98;}
	.st17{fill:#2D72B8;}
	.st18{fill:#5294CF;}
	.st19{fill:#FF9900;}
	.st20{fill:#252F3E;}
	.st21{fill:#FDFDFD;}
	.st22{fill:#DBDBDB;}
	.st23{fill:#040404;}
	.st24{fill:#0C0C0C;}
	.st25{fill:#010101;}
	.st26{fill:#D9D9D9;}
	.st27{fill:#DCDCDC;}
	.st28{fill:#D7D7D7;}
	.st29{fill:#D8D8D8;}
	.st30{fill:#111111;}
	.st31{fill:#050505;}
	.st32{fill:#070707;}
	.st33{fill:#060606;}
	.st34{fill:#030303;}
	.st35{fill:#020202;}
	.st36{fill:#151515;}
	.st37{fill:#0F0F0F;}
	.st38{fill:#606060;}
	.st39{fill:#FCFCFC;}
	.st40{fill:#0A0A0A;}
	.st41{fill:#191919;}
	.st42{fill:#0D0D0D;}
	.st43{fill:#101010;}
	.st44{fill:#090909;}
	.st45{fill:#161616;}
	.st46{fill:#080808;}
</style>
<g>
	<g>
		<g>
			<g>
				<g>
					<path d="M217.21,460.92c0.17-5.26,1.86-10.17,3.9-14.98c5.48-12.72,13.33-23.95,21.76-34.8c4.88-6.28,9.96-12.38,15.2-18.33
						c1.52-1.73,3.06-3.45,4.61-5.15c2.36-2.61,4.77-5.19,7.2-7.74c1.74-1.83,3.49-3.65,5.26-5.45
						c6.01-6.14,12.18-12.14,18.46-18.02c0.89-0.84,1.79-1.67,2.7-2.51c0.68-0.64,1.37-1.28,2.06-1.91
						c4.12-3.8,8.29-7.56,12.48-11.27c0.26-0.24,0.52-0.47,0.79-0.7c4.23-3.75,8.5-7.46,12.81-11.12c0.59-0.5,1.19-1.01,1.79-1.51
						c0.57-0.49,1.15-0.98,1.74-1.46c0.17-0.15,0.35-0.29,0.52-0.43c10.51-8.84,21.23-17.43,32.15-25.73
						c1.07-0.81,2.14-1.62,3.22-2.44c0.15-0.11,0.3-0.23,0.45-0.34c3.47-2.62,6.97-5.2,10.48-7.77c3.23-2.35,6.47-4.68,9.73-6.97
						c1.17-0.84,2.35-1.67,3.53-2.49c11.53-8.07,23.28-15.85,35.24-23.33c1.83-1.15,3.67-2.29,5.51-3.42
						c1.12-0.69,2.24-1.38,3.36-2.06c5.73-3.49,11.51-6.91,17.35-10.22c1.54-0.88,3.09-1.75,4.65-2.61
						c14.94-8.3,30.27-15.85,46.2-22.2c13.97-5.54,28.14-10.4,43.57-11.02c2.2,0.23,4.58,0.17,6.9,0.51
						c8.81,1.41,13.56,6.95,13.44,15.82c-0.04,4.81-1.36,9.27-3.11,13.67c-4.57,11.59-11.35,21.88-18.7,31.77
						c-9.17,12.33-19.13,23.93-29.64,35.03c-1.43,1.52-2.88,3.02-4.33,4.52c-1,1.04-2.02,2.07-3.03,3.1c-0.97,1-1.95,1.98-2.93,2.96
						c-1.76,1.76-3.53,3.5-5.31,5.25c-0.03,0.03-0.07,0.07-0.11,0.1c-0.94,0.93-1.9,1.85-2.85,2.76c-0.2,0.2-0.4,0.39-0.6,0.57
						c0,0.03-0.01,0.03-0.01,0.03c-0.12,0.11-0.23,0.22-0.35,0.33c-2.87,2.77-5.78,5.52-8.71,8.24c-1.03,0.96-2.07,1.91-3.1,2.86
						c-0.71,0.67-1.43,1.33-2.15,1.99c-0.7,0.64-1.41,1.28-2.12,1.92c-0.53,0.48-1.06,0.98-1.61,1.46c-0.56,0.51-1.12,1.01-1.68,1.5
						c-2.26,2.05-4.54,4.07-6.83,6.08c-0.28,0.23-0.55,0.48-0.82,0.71c-0.1,0.09-0.19,0.18-0.29,0.26c-0.58,0.5-1.15,1-1.73,1.5
						c-0.27,0.24-0.54,0.48-0.8,0.69c-2.78,2.42-5.57,4.81-8.38,7.17c-1.14,0.97-2.27,1.92-3.41,2.87
						c-1.06,0.89-2.12,1.76-3.19,2.64c-2.21,1.83-4.45,3.66-6.69,5.47c-0.01,0-0.01,0-0.01,0.01c-2.18,1.76-4.36,3.51-6.55,5.24
						c-0.2,0.16-0.41,0.32-0.61,0.48c-0.93,0.74-1.86,1.48-2.8,2.21c-0.92,0.72-1.84,1.43-2.76,2.14c-1.2,0.95-2.41,1.88-3.63,2.81
						c-3.76,2.89-7.54,5.76-11.35,8.58c-0.81,0.61-1.62,1.22-2.43,1.82c-1.77,1.31-3.54,2.61-5.32,3.9
						c-1.03,0.75-2.06,1.49-3.09,2.23c-2.56,1.87-5.15,3.71-7.74,5.54c-0.05,0.03-0.09,0.07-0.14,0.1c-0.15,0.11-0.29,0.2-0.44,0.31
						c-0.84,0.59-1.66,1.17-2.51,1.75c-0.16,0.11-0.32,0.22-0.48,0.33c-0.09,0.07-0.19,0.14-0.29,0.2
						c-3.62,2.55-7.25,5.05-10.92,7.52c-2.47,1.69-4.95,3.35-7.44,4.99c-1,0.67-2,1.34-3.02,1.98c-0.26,0.17-0.5,0.33-0.76,0.5
						c-0.89,0.59-1.78,1.17-2.68,1.76c-1.06,0.67-2.11,1.36-3.17,2.04c-4.61,2.94-9.26,5.84-13.95,8.67
						c-1.07,0.66-2.14,1.3-3.21,1.94c-0.8,0.48-1.59,0.95-2.38,1.42c-1.06,0.63-2.13,1.26-3.2,1.89
						c-6.44,3.76-12.94,7.41-19.54,10.93c-3.81,2.03-7.64,4.02-11.5,5.95c-0.98,0.51-1.96,0.99-2.94,1.49
						c-3.01,1.49-6.03,2.95-9.06,4.37v0.01c-1.34,0.62-2.67,1.24-4.01,1.84c-2.28,1.04-4.58,2.05-6.89,3.03
						c-9.41,3.99-19.04,7.48-29.02,10.12c-8.64,2.26-17.35,3.95-26.38,2.82C221.9,476.4,216.87,470.64,217.21,460.92z"/>
					<path d="M552.09,205.7c0.31,1.68,0.36,3.44,0.11,5.17c4.87,1.4,7.14,4.73,7.06,10.34c-0.02,3.51-0.87,7.17-2.75,11.89
						c-4.68,11.87-11.76,22.15-18.07,30.64c-8.57,11.52-18.14,22.83-29.26,34.57c-1.39,1.48-2.79,2.93-4.19,4.38l-0.1,0.11
						c-0.75,0.78-1.5,1.54-2.26,2.31l-0.74,0.76c-0.98,1-1.94,1.96-2.9,2.92c-1.73,1.73-3.47,3.44-5.22,5.16l-0.18,0.18
						c-0.92,0.91-1.86,1.81-2.79,2.7c-0.03,0.02-0.06,0.05-0.08,0.07c-0.14,0.15-0.28,0.28-0.42,0.41c-0.12,0.1-0.24,0.22-0.35,0.34
						c0,0-0.09,0.09-0.13,0.12c-2.75,2.66-5.66,5.41-8.64,8.18c-0.67,0.62-1.34,1.24-2.01,1.86l-1.08,0.99
						c-0.73,0.68-1.43,1.33-2.13,1.97c-0.63,0.57-1.26,1.15-1.9,1.72l-0.79,0.72c-0.31,0.29-0.63,0.58-0.95,0.86
						c-0.03,0.03-0.06,0.05-0.08,0.07c-0.54,0.49-1.07,0.97-1.61,1.44c-1.99,1.81-4.13,3.71-6.78,6.03
						c-0.19,0.16-0.37,0.32-0.55,0.48c0,0-0.34,0.3-0.37,0.33l-0.12,0.11c-0.03,0.02-1.82,1.57-1.82,1.57
						c-0.27,0.24-0.48,0.43-0.68,0.59c-0.05,0.04-0.09,0.08-0.14,0.12c-2.89,2.52-5.61,4.85-8.31,7.11
						c-1.15,0.98-2.27,1.92-3.4,2.86c-1.01,0.85-2.01,1.67-3.02,2.5l-0.14,0.12c-2.21,1.83-4.44,3.64-6.66,5.44
						c0,0-0.04,0.04-0.06,0.05c-2.15,1.74-4.3,3.46-6.46,5.17l-0.74,0.58c-0.87,0.7-1.75,1.39-2.63,2.08
						c-0.93,0.72-1.83,1.42-2.74,2.12c-1.23,0.98-2.42,1.89-3.62,2.8c-4.21,3.25-7.9,6.03-11.29,8.54
						c-0.83,0.63-1.63,1.23-2.43,1.82c-1.76,1.3-3.51,2.59-5.28,3.87c-0.96,0.7-1.91,1.38-2.86,2.06l-0.21,0.16
						c-2.62,1.91-5.25,3.78-7.71,5.52c-0.08,0.05-0.97,0.68-0.97,0.68c-0.69,0.48-1.36,0.96-2.05,1.43c0,0-0.77,0.53-0.83,0.57
						c-3.59,2.53-7.23,5.04-10.84,7.46c-2.32,1.59-4.73,3.21-7.4,4.97c-0.99,0.66-1.95,1.3-2.92,1.91l-3.53,2.32
						c-0.59,0.37-1.24,0.79-1.9,1.22l-1.22,0.79c-4.9,3.12-9.42,5.94-13.84,8.6c-1.09,0.67-2.14,1.3-3.19,1.93
						c-0.8,0.48-1.59,0.95-2.37,1.41c-0.85,0.51-3.19,1.88-3.19,1.88c-6.69,3.91-13.02,7.45-19.35,10.83
						c-4.04,2.15-7.76,4.08-11.38,5.89c-0.64,0.33-1.2,0.61-1.77,0.89l-1.21,0.62c-3.02,1.49-6.04,2.95-8.91,4.29
						c-0.08,0.04-0.17,0.09-0.25,0.13l-0.54,0.25c-1.05,0.49-2.09,0.97-3.14,1.44c-2.2,1-4.48,2-6.8,2.99
						c-10.09,4.27-19.36,7.51-28.34,9.89c-5.69,1.48-12.44,3.01-19.2,3.01c-1.8,0-3.58-0.11-5.28-0.32
						c-7.15-0.92-10.24-4.49-9.99-11.59c0.15-4.71,1.86-9.31,3.51-13.2c5.23-12.12,12.81-22.9,19.77-31.96
						c-1.07-0.6-2.1-1.37-3.07-2.33c-0.27-0.27-0.53-0.57-0.77-0.87c-7.96,10.36-15.33,21.11-20.54,33.21
						c-2.04,4.81-3.73,9.72-3.9,14.98c-0.34,9.72,4.69,15.48,14.36,16.72c9.03,1.13,17.74-0.56,26.38-2.82
						c9.98-2.64,19.61-6.13,29.02-10.12c2.31-0.98,4.61-1.99,6.89-3.03c1.34-0.6,2.67-1.22,4.01-1.84v-0.01
						c3.03-1.42,6.05-2.88,9.06-4.37c0.98-0.5,1.96-0.98,2.94-1.49c3.86-1.93,7.69-3.92,11.5-5.95c6.6-3.52,13.1-7.17,19.54-10.93
						c1.07-0.63,2.14-1.26,3.2-1.89c0.79-0.47,1.58-0.94,2.38-1.42c1.07-0.64,2.14-1.28,3.21-1.94c4.69-2.83,9.34-5.73,13.95-8.67
						c1.06-0.68,2.11-1.37,3.17-2.04c0.9-0.59,1.79-1.17,2.68-1.76c0.26-0.17,0.5-0.33,0.76-0.5c1.02-0.64,2.02-1.31,3.02-1.98
						c2.49-1.64,4.97-3.3,7.44-4.99c3.67-2.47,7.3-4.97,10.92-7.52c0.1-0.06,0.2-0.13,0.29-0.2c0.16-0.11,0.32-0.22,0.48-0.33
						c0.85-0.58,1.67-1.16,2.51-1.75c0.15-0.11,0.29-0.2,0.44-0.31c0.05-0.03,0.09-0.07,0.14-0.1c2.59-1.83,5.18-3.67,7.74-5.54
						c1.03-0.74,2.06-1.48,3.09-2.23c1.78-1.29,3.55-2.59,5.32-3.9c0.81-0.6,1.62-1.21,2.43-1.82c3.81-2.82,7.59-5.69,11.35-8.58
						c1.22-0.93,2.43-1.86,3.63-2.81c0.92-0.71,1.84-1.42,2.76-2.14c0.94-0.73,1.87-1.47,2.8-2.21c0.2-0.16,0.41-0.32,0.61-0.48
						c2.19-1.73,4.37-3.48,6.55-5.24c0-0.01,0-0.01,0.01-0.01c2.24-1.81,4.48-3.64,6.69-5.47c1.07-0.88,2.13-1.75,3.19-2.64
						c1.14-0.95,2.27-1.9,3.41-2.87c2.81-2.36,5.6-4.75,8.38-7.17c0.26-0.21,0.53-0.45,0.8-0.69c0.58-0.5,1.15-1,1.73-1.5
						c0.1-0.08,0.19-0.17,0.29-0.26c0.27-0.23,0.54-0.48,0.82-0.71c2.29-2.01,4.57-4.03,6.83-6.08c0.56-0.49,1.12-0.99,1.68-1.5
						c0.55-0.48,1.08-0.98,1.61-1.46c0.71-0.64,1.42-1.28,2.12-1.92c0.72-0.66,1.44-1.32,2.15-1.99c1.03-0.95,2.07-1.9,3.1-2.86
						c2.93-2.72,5.84-5.47,8.71-8.24c0.12-0.11,0.23-0.22,0.35-0.33c0,0,0.01,0,0.01-0.03c0.2-0.18,0.4-0.37,0.6-0.57
						c0.95-0.91,1.91-1.83,2.85-2.76c0.04-0.03,0.08-0.07,0.11-0.1c1.78-1.75,3.55-3.49,5.31-5.25c0.98-0.98,1.96-1.96,2.93-2.96
						c1.01-1.03,2.03-2.06,3.03-3.1c1.45-1.5,2.9-3,4.33-4.52c10.51-11.1,20.47-22.7,29.64-35.03c7.35-9.89,14.13-20.18,18.7-31.77
						c1.75-4.4,3.07-8.86,3.11-13.67C564.38,212.84,560.08,207.42,552.09,205.7z"/>
				</g>
			</g>
		</g>
		<g>
			<path class="st21" d="M358.89,202.68c0.25,0.01,0.46-0.03,0.66-0.08C359.35,202.66,359.14,202.69,358.89,202.68z"/>
			<path class="st22" d="M450.57,324.58c-14.04-3.87-27.68-8.91-41.26-14.13c-2.14-0.82-2.74-2.17-2.17-4.22
				c0.44-1.57,0.95-3.13,1.48-4.85c-3.68-2.61-7.4-5.24-11.17-7.9c11.7-8.73,14.96-20.8,14.25-34.68c5.7,1.79,11.27,3.91,17.08,5.28
				c3.21,0.76,6.46,1.38,9.64,2.26c1.46,0.41,2.11-0.09,2.79-1.25c5.07-8.57,11.88-15.43,20.37-20.62c0.73-0.45,1.53-0.79,2.3-1.18
				c0.19,0.14,0.37,0.29,0.56,0.43c-2.88,2.8-5.75,5.6-8.19,8.8c-1.08,1.42-2.12,2.89-2.63,4.83c8.44-0.45,16.69-0.19,24.79,2
				c-12.1,0.34-24.12,0.88-35.05,7.04c5.47-0.2,10.91-0.45,16.35,0.19c9.55,1.11,17.99,4.42,24.03,12.34
				c1.14,1.5,2.13,3.11,2.74,4.92c-0.08,0.08-0.16,0.17-0.24,0.25c-10.71-11.31-22.13-13.23-32.9-14.1
				c4.62,3.44,8.74,6.8,11.29,11.6c-0.13,0.18-0.26,0.35-0.39,0.53c0.24,0.19,0.47,0.38,0.71,0.58c-0.24-0.19-0.47-0.38-0.71-0.58
				c-5.47-4.42-11.18-8.46-17.8-10.99c-5.17-1.98-10.73-2.4-16.02-3.93c-3.23-0.94-6.52-1.68-9.97-2.57
				c0.47,14.85-3.66,28.51-10.07,41.8c3.63,1.94,7.37,3.3,11.05,4.78c9.66,3.87,19.4,7.48,29.36,10.43v2.98
				C450.71,324.62,450.65,324.6,450.57,324.58z"/>
			<path class="st21" d="M359.19,197.8c1.28,0.06,2.04,1.05,2.02,2.44c-0.06,0.52-0.19,1-0.4,1.4c0.21-0.39,0.34-0.87,0.4-1.39
				C361.23,198.85,360.47,197.87,359.19,197.8z"/>
			<path class="st21" d="M369.37,190.86c0.73-1.23,1.47-2.46,2.21-3.69C370.84,188.4,370.1,189.63,369.37,190.86
				c-0.21,0.27-0.42,0.54-0.62,0.8C368.95,191.39,369.16,191.13,369.37,190.86z"/>
			<path class="st21" d="M354.7,178.62c2.7,4.57,5.39,9.14,8.09,13.72c0,0,0,0,0,0C360.09,187.77,357.4,183.19,354.7,178.62z"/>
			<path class="st21" d="M375.54,67.85c0.03,0.02,0.06,0.05,0.09,0.07C375.6,67.9,375.57,67.87,375.54,67.85z"/>
			<path class="st21" d="M375.53,67.84c0.08-0.09,0.16-0.18,0.24-0.27C375.7,67.66,375.61,67.75,375.53,67.84L375.53,67.84z"/>
			<path class="st22" d="M428.25,168.65c0.12,3.07,0.15,6.14,0.35,9.21c0.09,1.36-0.27,2.11-1.57,2.72
				c-2.55,1.21-4.99,2.66-7.75,4.16c2.2,2.58,4.28,5.1,6.46,7.52c0.97,1.08,1.13,2.01,0.48,3.33c-4.82,9.72-9.58,19.47-14.37,29.21
				c-1.58,3.2-3.2,6.38-4.92,9.79c-0.37-1.43,0.36-2.33,0.75-3.29c4.82-11.82,9.63-23.65,14.54-35.43c0.61-1.46,0.46-2.44-0.53-3.55
				c-2.35-2.65-4.63-5.36-7.11-8.24c3.11-1.82,6.1-3.64,9.16-5.31c1.19-0.65,1.6-1.39,1.57-2.76c-0.19-8.08-0.3-16.16-0.38-24.23
				c0.73,0.34,1.72,0.81,2.67,1.27C427.83,158.23,428.05,163.44,428.25,168.65z"/>
			<path class="st22" d="M304.58,236.46c6.93,0.07,13.86,0.26,20.79,0.36c3.85,0.05,6.59,1.5,8.52,5.12
				c9.45,17.68,19.08,35.26,28.67,52.86c0.81,1.48,1.59,2.87-1.07,3.63c-2.51-4.45-5.03-8.88-7.52-13.32
				c-7.81-13.92-15.61-27.85-23.42-41.77c-1.24-2.21-3.21-3.1-5.68-3.14c-12.13-0.18-24.25-0.36-36.37-0.55l0.75-3.2
				C294.41,236.43,299.49,236.41,304.58,236.46z"/>
			<path d="M362.81,192.33c0,0.02,0,0.04,0,0.06c0,0,0,0,0,0C362.81,192.36,362.81,192.35,362.81,192.33
				C362.81,192.33,362.81,192.33,362.81,192.33z"/>
			<path d="M260.99,245.96c4.83,7.82,9.58,15.68,14.39,23.57c-1.41,0.76-2.66,1.38-3.87,2.08c-5.45,3.18-6.89,8.82-3.45,14.1
				c1.13,1.72,1.45,3.39,1.02,5.32c-1.32,5.86-1.04,11.76-0.13,17.62c1.29,8.25,5.76,14.52,12.63,19.11
				c3.73,2.49,7.84,2.63,12.02,1.45c3.09-0.87,6.12-1.93,9.48-3.01c-1.58,20.69-3.2,41.21-5.28,61.8h104.43
				c-0.29-4.07,0.95-8.36,4.03-10.86c6.65-5.4,13.64-9.54,21.25-13.4c3.31-1.68,6.63-3.35,9.85-5.2c3.58-2.06,5.53-3.34,7.96-5.52
				c0.99-0.89,2.08-1.63,3.23-2.24c1.46-2.09,3.56-3.72,5.93-4.76c-0.55-5.62-1.09-11.23-1.61-16.85l0.06,0.67v0.21l-0.22-0.11
				l-1.95-0.95v-4.36c-0.07-0.02-0.14-0.04-0.21-0.06c-14.04-3.87-27.68-8.91-41.26-14.13c-2.14-0.82-2.74-2.17-2.17-4.22
				c0.44-1.57,0.95-3.13,1.48-4.85c-3.68-2.61-7.4-5.24-11.17-7.9c11.7-8.73,14.96-20.8,14.25-34.68c5.7,1.79,11.27,3.91,17.08,5.28
				c3.21,0.76,6.46,1.38,9.64,2.26c1.46,0.41,2.11-0.09,2.79-1.25c5.07-8.57,11.88-15.43,20.37-20.62c0.73-0.45,1.53-0.79,2.3-1.18
				c0.41-0.52,0.91-0.37,1.43-0.21c-0.09,0.52-0.62,0.4-0.87,0.64c-2.88,2.8-5.75,5.6-8.19,8.8c-1.08,1.42-2.12,2.89-2.63,4.83
				c8.44-0.45,16.69-0.19,24.79,2c-12.1,0.34-24.12,0.88-35.05,7.04c5.47-0.2,10.91-0.45,16.35,0.19
				c9.55,1.11,17.99,4.42,24.03,12.34c1.14,1.5,2.13,3.11,2.74,4.92c0.16,0.22,0.35,0.43,0.06,0.69c-0.1-0.15-0.2-0.29-0.3-0.44
				c-10.71-11.31-22.13-13.23-32.9-14.1c4.62,3.44,8.74,6.8,11.29,11.6c0.2,0.26,0.39,0.52,0.59,0.78c0.21,0.18,0.42,0.37,0.67,0.58
				c-0.51,0.3-0.81,0.25-0.95-0.26c-0.24-0.19-0.47-0.38-0.71-0.58c-5.47-4.42-11.18-8.46-17.8-10.99
				c-5.17-1.98-10.73-2.4-16.02-3.93c-3.23-0.94-6.52-1.69-9.97-2.57c0.47,14.85-3.66,28.51-10.07,41.8
				c3.63,1.94,7.37,3.3,11.05,4.78c9.66,3.87,19.4,7.48,29.36,10.43v-1.17l1.42,0.95l0.06,0.66c3.57,1.03,7.16,1.97,10.79,2.81
				c5.06,1.16,10.16,2.16,15.38,2.21c4.77,0.05,8.5-2.03,11.33-5.77c4.67-6.16,6.51-13.34,7.35-20.87
				c0.84-7.51,0.17-14.93-1.31-22.3c-1.65-8.22-1.77-16.59-2.27-24.91c-1.06-17.45-2.1-34.91-4.5-52.24
				c-1-7.24-2.07-14.49-4.96-21.31c-1-2.35-2.53-4.04-4.78-5.29c-12.53-6.99-25.88-12.17-38.93-18.02
				c-3.21-1.44-6.43-2.85-9.66-4.24c0,0.02,0.22,2.87-0.25,2.4c-0.2-0.2-1.47-0.85-2.84-1.52c0.21,5.2,0.43,10.41,0.64,15.62
				c0.12,3.07,0.15,6.14,0.35,9.21c0.09,1.36-0.27,2.11-1.57,2.72c-2.55,1.21-4.99,2.66-7.75,4.16c2.2,2.58,4.28,5.1,6.46,7.52
				c0.97,1.08,1.13,2.01,0.48,3.33c-4.82,9.72-9.58,19.47-14.37,29.21c-1.58,3.2-3.2,6.38-4.92,9.79c-0.37-1.43,0.36-2.33,0.75-3.29
				c4.82-11.82,9.63-23.65,14.54-35.43c0.61-1.46,0.46-2.44-0.53-3.55c-2.35-2.65-4.63-5.36-7.11-8.24c3.11-1.82,6.1-3.64,9.16-5.31
				c1.19-0.65,1.6-1.39,1.57-2.76c-0.19-8.08-0.3-16.16-0.38-24.23c-0.66-0.31-1.11-0.52-1.11-0.52l-1.42-2.84l0.75-1.4l0.01,0.01
				c-2.69-3.04-5.13-6.27-6.61-10.12c-0.44-1.16-1.35-1.94-2.26-2.69c-4.44-3.66-5.75-8.34-5.02-13.93
				c0.36-2.75,1.17-4.84,3.23-6.91c5.02-5.05,8.31-11.06,8-18.51c-0.03-0.63,0.06-1.32-0.16-1.87c-2.1-5.26-0.8-10.5-0.02-15.76
				c0.73-4.92,1.17-9.89,0.48-14.83c-1.23-8.87-7.4-14.73-16.88-16.61c-4.16-0.82-8.35-0.97-12.59-1.14
				c2.39-1.71,5.18-1.86,8.25-2.18c-4.58-3.92-9.81-5.4-15.31-5.95c-14.31-1.43-27.5,1.81-39.43,9.94c-0.18,0.12-0.3,0.31-0.62,0.66
				c7.55,0.21,14.76,1.35,21.74,3.74c-11.33-0.43-22.92-3.82-33.56,3.1c5.23,0.76,10.28,1.88,15.09,4.09
				c-6.77-0.46-13.54-3.01-20.44,0.1c0.8,4.06,3.27,6.86,6.38,9.37c-1.76,0.49-2.95-0.79-4.6-1.34c1.31,3.16,3.33,5.48,6.03,7.1
				c1.37,0.83,1.7,1.79,1.64,3.26c-0.16,4.01-0.21,8.03-0.31,12.05c-0.06,2.49,0.4,4.86,1.64,7.04c0.7,1.23,0.89,2.51,0.72,3.87
				c-1.16,9.04,1.03,17.52,4.4,25.76c2.23,5.46,4.69,10.81,7.04,16.22c0.75,1.73,1.65,3.38,3.22,4.65
				c-2.85,3.62-5.53,7.12-8.31,10.53c-0.96,1.18-2.51,1.58-3.84,2.25c-12.29,6.22-24.57,12.45-36.89,18.61
				c-1.7,0.85-2.92,2.02-3.88,3.63c-3.39,5.7-5.03,12.02-6.57,18.36c-2.75,11.32-4.75,22.79-6.93,34.23
				c-0.14,0.76-0.15,1.55-0.26,2.72l3.48-3.42l-0.8,3.41c5.16-0.01,10.25-0.04,15.33,0.02c6.93,0.07,13.86,0.26,20.79,0.36
				c3.85,0.06,6.59,1.5,8.52,5.12c9.45,17.68,19.08,35.26,28.67,52.86c0.81,1.48,1.59,2.87-1.07,3.63
				c-2.51-4.45-5.03-8.88-7.52-13.32c-7.81-13.92-15.61-27.85-23.42-41.77c-1.24-2.21-3.21-3.1-5.68-3.14
				c-12.13-0.18-24.25-0.36-36.37-0.55l-0.33,1.42l-1.42,2.84h-1.42l0.72-4.3c-2.81-0.04-5.62-0.09-8.42-0.13
				c-4.25-0.07-8.5-0.22-12.75-0.33c-1.89-0.05-3.69,0.33-4.74,2.04C259.04,242.94,260.05,244.42,260.99,245.96z M427.84,301.84
				c0.02,1.7-1.57,3.33-3.27,3.37c-1.71,0.04-3.27-1.54-3.27-3.31c0-1.83,1.45-3.32,3.23-3.31
				C426.32,298.59,427.82,300.07,427.84,301.84z M438.45,306.14c0.02,1.9-1.55,3.48-3.42,3.44c-1.72-0.03-3.11-1.42-3.15-3.15
				c-0.05-1.83,1.57-3.46,3.43-3.45C437,303,438.43,304.43,438.45,306.14z M440.87,229.17c1.62-11.82,4.17-23.37,10.21-33.86
				c1.48-2.57,3.14-4.95,4.99-7.11c4.07-4.75,9.1-8.42,15.3-10.74h0c0.24-0.13,0.48-0.2,0.74-0.2s0.55,0.09,0.88,0.27
				c-0.55,0.11-0.94,0.2-1.33,0.28c-7.7,4.55-12.99,11.27-17.08,19.04c-4.72,8.97-7.64,18.58-9.92,28.41
				c-1.9,8.18-3.26,16.47-4.62,24.76C439.74,243.05,439.92,236.09,440.87,229.17z M307.56,231.25c-6.48-8.49-8.85-33.51-4.49-45.24
				C302.22,201.23,304.17,216.13,307.56,231.25z M337.94,165.53c-2.17,3.68-4.31,7.39-6.56,11.02c-0.77,1.24-0.8,2.23,0.04,3.42
				c1.02,1.45,1.88,3.01,2.86,4.6c-2.71,1.87-5.21,3.65-7.76,5.34c-1.09,0.72-1.5,1.55-1.55,2.89c-0.45,11.9-1.04,23.79-1.85,35.61
				c-0.09-0.75-0.26-1.51-0.27-2.26c-0.24-11.5-0.43-22.99-0.7-34.49c-0.03-1.37,0.48-2.14,1.55-2.86c2.33-1.57,4.59-3.25,6.8-4.83
				c-0.34-2.46-3.38-3.96-2.42-6.4c0.84-2.13,2.64-3.88,4.01-5.8c0.18-0.26,0.36-0.52,0.57-0.76c1.87-2.18,3.35-4.69,5.53-6.73
				C338.45,164.92,338.13,165.21,337.94,165.53z M339.07,163.79c-0.09,0.11-0.16,0.26-0.26,0.3c-0.27,0.1-0.66,0.16-0.47-0.31
				C338.49,163.39,338.82,163.54,339.07,163.79z M408.91,112.06c-1.62,1.61-3.54,2.69-5.93,2.3c-1.6-0.26-2.1,0.52-2.2,2.1
				c0.66,0.35,1.19,0.87,1.76,0.9c2.82,0.18,2.8,2.13,2.78,4.17c-0.03,3.94,0.19,7.88,0.84,11.76c0.25,1.49-0.07,2.53-0.99,3.63
				c-8.13,9.78-16.79,19.01-27.24,26.38c-1.54,1.08-2.54,2.46-3.25,4.21c-2.32,5.76-4.74,11.48-7.18,17.19
				c-0.39,0.91-0.61,2.07-2.04,2.61c-0.5-3.46-1.16-6.7-1.4-9.97c-0.45-6.17-3.4-11.97-2.52-18.33c0.21-1.52,0.03-3.1,0.03-4.66
				c16.1,0.94,35.68-21.25,35.78-32.41c-1.99,3.07-4.02,5.82-6.57,8.2c-6.02,5.61-13.04,9.57-20.43,12.97
				c-3.55,1.63-7.31,1.86-11.11,1.42c-3.13-0.37-5.57-1.72-6.99-4.84c-2.28-5.01-4.86-9.88-6.73-15.06
				c-1.97-5.46-4.44-10.81-4.54-16.77c-0.05-2.97,0.14-5.95,0.22-8.93c0.2-0.02,0.4-0.03,0.59-0.05c0.51,1.37,1.27,2.4,2.88,2.33
				c1.86-0.08,1.89-1.76,2.5-3.02c1.26,0.31,2.46,0.6,3.74,0.92c-2.25-3.15-5.73-4.15-10.5-2.97c-0.12-0.95-0.78-1.81-0.18-2.86
				c3.96,0.03,7.21,2.62,11.26,3.06c-0.84-3.16-1.79-5.68-5.39-6.23c-2.36-0.36-4.63-1.29-6.98-1.97
				c-0.03-6.54,0.02-12.98,1.54-19.42c0.91,0.2,1.66,0.34,2.4,0.52c4.63,1.16,9.28,1.56,14.04,0.86c7.81-1.15,14.95-4.22,22.02-7.5
				c0.91-0.43,1.82-1.17,3-0.35c-1.97,1.71-3.9,3.4-5.84,5.08c3.09-0.02,5.78-0.88,8.38-1.98c2.6-1.11,5.15-2.36,7.71-3.55
				c-1.1,1.93-2.34,3.63-4.08,4.7c-2.98,1.84-3.41,4.44-3.16,7.65c0.33,4.24,1.4,7.83,5.38,10.1c3,1.71,3.64,4.79,3.89,7.92
				c0.16,1.96,0.16,3.93,0.2,5.9c0.03,1.7,0.01,3.4,0.01,5.13c5.82-0.6,5.91-0.58,7.14-5.74c0.93-3.89,3.34-6.57,6.58-8.54
				c3.35-2.03,7.86,0.22,8.31,3.77C417.68,100.63,414.3,106.73,408.91,112.06z M375.75,259.52c-2.44-1.04-5.02-1.29-7.56-0.75
				c-0.41,0.09-0.87,0.42-1.37,0.22c-1.78-0.7-3.04-1.97-3.71-3.74c-0.93-2.46-0.03-3.99,2.56-4.37c1.4-0.2,2.82-0.23,4.23-0.34
				c3.02-0.23,6.08-0.3,8.9-1.71c-0.3-0.53-0.72-0.4-1.1-0.43c-4.65-0.33-9.26,0.23-13.89,0.59c-0.8,0.06-1.71,0.62-2.42-0.26
				c-1.33-1.64-1.29-3.52-0.77-5.38c0.47-1.67,1.81-2.23,3.45-2.32c2.83-0.15,5.66-0.29,8.48-0.56c2.6-0.25,5.27-0.24,7.69-1.55
				c-5.72-0.43-11.42-0.39-17.11-0.04c-2.83,0.17-4.2,2.19-4.98,4.69c-0.25,0.8-0.13,1.7-0.75,2.47c-1.79-0.93-2.57-2.19-1.85-4.23
				c1.01-2.9,2.12-5.73,3.48-8.49c1.13-2.27,2.82-3.22,5.29-3.12c3.54,0.14,7.08,0.18,10.62,0.27c2.61,0.07,5.19,0.06,7.6-1.22
				c-5.54-0.75-11.07-1.23-16.59-1.78c-3.18-0.32-5.88,0.55-8.17,2.82c-1.46,1.45-3.17,2.6-5.18,3.18
				c-1.25,0.36-2.56,0.44-3.39-0.86c-0.84-1.31,0.08-2.25,0.87-3.11c2.67-2.9,5.51-5.62,8.68-7.98c2.21-1.64,4.62-2.59,7.47-2.26
				c7.19,0.85,14.29,2.16,21.33,3.83c3.51,0.83,5.83,2.74,7.21,6.35c2.64,6.87,5.48,13.65,7.89,20.61c1.2,3.47,2.58,6.96,5.42,9.54
				c0.63,0.57,0.6,1.25,0.51,1.95c-0.3,2.5-0.46,5.03-0.98,7.48c-1,4.79-2.39,9.45-6,13.21c-2.51-1.02-5.16-1.4-7.73-2.04
				c-4.25-1.06-8.43-2.35-9.76-7.38c-0.1-0.38-0.62-0.7-1-0.96c-4.01-2.79-6.18-6.64-6.74-11.47
				C376.37,260.07,376.05,259.64,375.75,259.52z M340.11,351.94c5.12,0.38,10.04,0.76,14.96,1.11c0.82,0.06,1.36,0.36,1.35,1.26
				c-0.03,2.65,0.23,5.31-0.25,8.31c-5.52-0.47-10.8-0.91-16.16-1.36C340,357.97,339.58,355.03,340.11,351.94z M331.97,305.31
				c-5.22-0.37-10.17-0.72-15.51-1.1c1.32-0.97,2.47-1.11,3.62-1.11c4.65,0.03,9.29,0.06,13.94,0.16c9.22,0.2,18.44,0.51,27.65,0.64
				c5.22,0.08,7.57-3.26,6.55-8.21c-0.31-1.49-1.22-2.21-1.82-3.3c-5.79-10.45-11.51-20.94-17.4-31.34
				c-4.73-8.34-8.95-16.96-14.16-25.02c-0.58-0.9-0.4-1.64-0.25-2.44c2.67-13.58,5.42-27.13,8.27-40.67
				c1.48-7.04,6.45-11,10.61-16.06c0.53,0.75,0.93,1.23,1.24,1.76c2.7,4.57,5.39,9.14,8.09,13.72c0.01,0,0.02-0.01,0.03-0.01
				c0.16-1.6-0.58-2.93-1.22-4.29c-0.11-0.23-0.21-0.46-0.31-0.69c-0.1-0.23-0.18-0.47-0.26-0.71c-1.96-6.3-4.5-12.38-7.51-18.26
				c-0.68-1.33-1.46-2.57-3.36-2.98c-2.91,5.14-5.18,10.57-7.69,15.91c-1.09-14.03,6.29-24.09,15.38-33.48
				c-0.38,7,0.56,13.74,1.93,20.5c1.48,7.31,2.43,14.72,3.66,22.08c0.14,0.83,0.41,1.57-0.64,1.92c0,0.02,0,0.04,0,0.06c0,0,0,0,0,0
				c0,0,0,0,0,0c0,0,0,0,0,0c0,0,0,0,0,0l-0.05-0.03c1.05,2.98,1.06,5.97,0.37,9.05c-0.64,2.81-1.2,5.66-1,8.59
				c0.99-4.99,3.43-9.63,3.41-14.84c0-0.74,0.33-1.56,0.72-2.21c4.52-7.59,7.69-15.82,11.33-23.83c0.78-1.71,1.72-3.09,3.22-4.21
				c11.07-8.24,20.36-18.25,28.88-29.42c1.05,1.1,2.17,2.2,3.19,3.38c0.77,0.9,1.12,1.82,0.6,3.15c-2.7,6.98-5.26,14.01-7.86,21.03
				c-2.46,6.63-4.91,13.26-7.47,20.19c-1.36-1.6-2.57-3.03-3.78-4.45c-2.66-3.12-5.22-6.32-8-9.32c-2.82-3.05-4.04-2.75-5.68,1.03
				c-0.81,1.87-1.51,3.82-2.53,5.58c-2.14,3.73-4.36,7.41-6.57,11.09c-0.74,1.23-1.48,2.46-2.21,3.69c0.13,0.14,0.26,0.27,0.38,0.41
				c4.8-4.87,9.61-9.75,14.43-14.64c4.42,3.31,7.7,7.49,11.71,10.88c0.86,0.72,0.59,1.69,0.27,2.61c-0.96,2.74-1.91,5.49-2.86,8.24
				c-1.03,2.99-2.06,5.98-3.18,9.27c2.35-1.18,4.29-2.22,6.29-3.15c2.49-1.16,5.46-0.51,6.83,1.4c1.07,1.48,1.05,5.9-0.43,6.83
				c-0.96,0.61-1.91,1.28-2.85,1.93c-2.84,1.97-5.73,3.88-9.45,4.01c0,0,0,0,0,0c-0.16,0-0.37,0.06-0.51,0.04
				c-0.04,0-0.08-0.02-0.1-0.04c-0.2-0.25,0.09-0.31,0.26-0.4c2.69-2.5,5.98-4.06,9.25-5.52c2.34-1.04,2.44-3.26,3.22-5.05
				c0.43-0.98-0.85-2.53-1.78-2.3c-1.89,0.47-3.8-0.18-5.74,0.99c-5.58,3.37-11.41,6.33-17.16,9.41c-0.79,0.43-1.54,1.04-2.63,0.7
				c-2.72-0.85-5.59-0.84-8.38-1.32c-3.8-0.65-7.11,0.32-10.08,2.84c-3.43,2.91-6.67,6.01-9.69,9.34c-1.33,1.46-2.25,3.17-1.66,5.16
				c0.36,1.22-0.01,1.87-0.82,2.63c-2.17,2.06-3.91,4.43-5.51,7.54c4.43-0.84,8.51-0.85,12.33-2.84c0,1.42-0.06,2.52,0.01,3.61
				c0.18,2.66,1.15,5.02,3.6,6.26c2.11,1.07,3.13,2.72,3.73,4.85c1.32,4.75,4.48,7.86,8.93,9.72c1.99,0.83,4.07,1.46,5.64,2.02
				c-2.32,37.86-3.35,75.55-5.36,113.59c-1.02-10.11-1.68-19.83-2.09-29.71c-5.07-0.75-10-1.48-14.75-2.18
				c-1.72-6.7-1-13.22-1.42-19.66c-0.43-6.59-0.37-13.22-0.53-19.83c-0.6,12.99-3.37,25.93-0.87,39.15
				c-5.89-0.9-11.76-1.79-17.88-2.72C331.01,331.67,331.49,318.57,331.97,305.31z M281.35,308.85c-0.13-0.12-0.25-0.25-0.25-0.4
				c0-0.09,0.04-0.18,0.15-0.28c0.12,0.14,0.24,0.28,0.36,0.42c1.19,1.12,2.46,2.18,3.56,3.38c3.18,3.5,7.13,4.3,11.59,3.45
				c0.88-0.17,1.75-0.35,2.74-0.55c-2.06,3.87-5.02,5.1-8.88,3.71c-1.47-0.53-2.75-1.24-3.86-2.11
				C284.29,314.57,282.59,311.92,281.35,308.85C281.35,308.85,281.35,308.85,281.35,308.85z M298.41,265.14
				c2.55-0.62,4.48,0.25,5.14,2.12c0.66,1.86-0.3,3.5-2.9,4.64c-3.31,1.45-6.7,2.7-9.98,4.23c-3.82,1.78-7.46,3.91-11.27,6.48
				c1.86,1.03,3.25,0.28,4.58-0.18c6.32-2.16,12.43-4.87,18.52-7.61c2.5-1.13,4.96-2.39,7.64-3.06c1.95-0.48,3.53,0.27,4.29,2.04
				c0.77,1.78,0.24,3.45-1.52,4.46c-1.98,1.13-3.99,2.2-6.03,3.22c-7.08,3.56-14.17,7.08-21.45,10.71c1.44,1.26,2.49,0.51,3.45,0.17
				c8.85-3.12,17.09-7.54,25.3-12.02c1.43-0.78,2.63-1.01,3.77,0.32c1.2,1.4,1.16,2.89,0.12,4.32c-0.8,1.09-1.92,1.83-3.08,2.53
				c-3.37,2.03-6.69,4.13-10.08,6.12c-4.33,2.54-8.7,5.01-13.06,7.51c0.84,1.34,1.8,0.63,2.58,0.33c3.07-1.2,6.09-2.52,8.99-4.11
				c4.63-2.53,8.96-5.54,13.42-8.33c0.8-0.5,1.63-0.99,2.58-0.17c0.87,0.75,1.12,1.66,0.95,2.75c-0.16,1.07-0.78,1.9-1.52,2.6
				c-6.18,5.87-12.98,10.99-20.2,15.46c-4.63,2.87-8.53,1.77-11.94-2.49c-1.05-1.31-2.22-2.47-3.82-3.05
				c-2.11-0.76-3.07-2.34-3.14-4.45c-0.08-2.23-1.26-3.69-3.12-4.63c-2.08-1.06-3.02-2.63-2.73-4.97c0.29-2.31-0.42-4.25-1.97-6.06
				c-2.72-3.2-2.24-6.77,1.43-8.72C281.35,271.07,289.56,267.28,298.41,265.14z"/>
			<path class="st22" d="M316.45,304.21c5.35,0.38,10.3,0.73,15.51,1.1c-0.48,13.26-0.96,26.36-1.44,39.61
				c6.12,0.93,11.99,1.83,17.88,2.72c-2.5-13.22,0.27-26.16,0.87-39.15c0.16,6.61,0.1,13.24,0.53,19.83
				c0.42,6.44-0.3,12.97,1.42,19.66c4.74,0.7,9.68,1.43,14.75,2.18c0.41,9.88,1.07,19.6,2.09,29.71c2-38.05,3.03-75.73,5.36-113.59
				c-1.57-0.56-3.65-1.19-5.64-2.02c-4.45-1.86-7.61-4.96-8.93-9.72c-0.59-2.13-1.61-3.78-3.73-4.85c-2.45-1.24-3.42-3.6-3.6-6.26
				c-0.08-1.09-0.01-2.19-0.01-3.61c-3.82,1.99-7.9,2-12.33,2.84c1.6-3.1,3.34-5.48,5.51-7.54c0.8-0.76,1.18-1.41,0.82-2.63
				c-0.59-1.99,0.33-3.7,1.66-5.16c3.02-3.33,6.26-6.42,9.69-9.34c2.97-2.52,6.28-3.49,10.08-2.84c2.79,0.48,5.66,0.47,8.38,1.32
				c1.09,0.34,1.84-0.28,2.63-0.7c5.75-3.08,11.58-6.04,17.16-9.41c1.94-1.17,3.86-0.52,5.74-0.99c0.93-0.23,2.21,1.32,1.78,2.3
				c-0.79,1.79-0.88,4.01-3.22,5.05c-3.28,1.46-6.57,3.02-9.25,5.52c0.11,0.13,0.23,0.26,0.34,0.39c0,0,0,0,0,0
				c3.72-0.13,6.62-2.04,9.46-4.01c0.95-0.66,1.89-1.32,2.85-1.93c1.48-0.93,1.5-5.35,0.43-6.83c-1.38-1.9-4.34-2.55-6.83-1.4
				c-1.99,0.92-3.93,1.96-6.29,3.15c1.13-3.28,2.15-6.28,3.18-9.27c0.95-2.75,1.9-5.5,2.86-8.24c0.32-0.92,0.59-1.89-0.27-2.61
				c-4.01-3.39-7.29-7.57-11.71-10.88c-4.82,4.89-9.63,9.76-14.43,14.64l0,0c-0.25,0.22-0.49,0.43-0.74,0.65
				c-0.03,0.21-0.06,0.45-0.34,0.29c-0.06-0.03,0.05-0.36,0.08-0.55c0.21-0.27,0.42-0.54,0.62-0.8c0.73-1.23,1.47-2.46,2.21-3.69
				c2.21-3.68,4.43-7.37,6.57-11.09c1.01-1.76,1.72-3.7,2.53-5.58c1.64-3.78,2.86-4.08,5.68-1.03c2.78,3,5.34,6.2,8,9.32
				c1.21,1.42,2.42,2.85,3.78,4.45c2.56-6.93,5.01-13.56,7.47-20.19c2.6-7.02,5.16-14.05,7.86-21.03c0.52-1.34,0.17-2.26-0.6-3.15
				c-1.02-1.18-2.14-2.28-3.19-3.38c-8.52,11.17-17.8,21.18-28.88,29.42c-1.5,1.12-2.44,2.5-3.22,4.21
				c-3.64,8-6.81,16.24-11.33,23.83c-0.39,0.66-0.72,1.47-0.72,2.21c0.02,5.21-2.42,9.85-3.41,14.84c-0.2-2.93,0.36-5.78,1-8.59
				c0.7-3.08,0.69-6.07-0.37-9.05c0.01,0,0.02-0.01,0.02-0.01c-2.69-4.57-5.38-9.15-8.08-13.72c-0.31-0.53-0.71-1.01-1.24-1.76
				c-4.16,5.07-9.13,9.03-10.61,16.06c-2.85,13.54-5.6,27.1-8.27,40.67c-0.16,0.8-0.33,1.54,0.25,2.44
				c5.21,8.06,9.44,16.69,14.16,25.02c5.89,10.4,11.61,20.89,17.4,31.34c0.6,1.09,1.51,1.82,1.82,3.3c1.02,4.95-1.33,8.29-6.55,8.21
				c-9.22-0.14-18.44-0.44-27.65-0.64c-4.65-0.1-9.29-0.13-13.94-0.16C318.92,303.1,317.78,303.24,316.45,304.21z M356.76,200.39
				c0.06-1.49,0.86-2.66,2.43-2.58c1.28,0.06,2.04,1.05,2.02,2.44c-0.06,0.52-0.19,1-0.4,1.4c-0.27,0.49-0.67,0.83-1.25,0.97
				c-0.2,0.05-0.42,0.08-0.66,0.08C357.55,202.65,356.7,201.77,356.76,200.39z"/>
			<path class="st21" d="M390.5,218.65C390.5,218.65,390.5,218.65,390.5,218.65c3.72-0.13,6.62-2.04,9.46-4.01
				C397.12,216.61,394.22,218.52,390.5,218.65C390.5,218.65,390.5,218.65,390.5,218.65L390.5,218.65
				C390.5,218.65,390.5,218.65,390.5,218.65z"/>
			<path class="st21" d="M362.81,192.38l-0.05-0.03C362.76,192.35,362.8,192.38,362.81,192.38
				C362.81,192.38,362.81,192.38,362.81,192.38z"/>
			<path class="st21" d="M369.75,191.27C369.75,191.27,369.75,191.27,369.75,191.27c4.8-4.87,9.61-9.75,14.43-14.64
				C379.36,181.52,374.56,186.39,369.75,191.27L369.75,191.27z"/>
			<path class="st21" d="M408.91,112.06c5.39-5.33,8.76-11.44,7.75-19.38c-0.45-3.55-4.96-5.8-8.31-3.77
				c-3.24,1.97-5.66,4.65-6.58,8.54c-1.23,5.16-1.31,5.14-7.14,5.73c0-1.73,0.02-3.43-0.01-5.13c-0.04-1.97-0.04-3.94-0.2-5.9
				c-0.25-3.13-0.89-6.21-3.89-7.92c-3.98-2.27-5.05-5.87-5.38-10.1c-0.25-3.21,0.18-5.8,3.16-7.65c1.73-1.07,2.98-2.77,4.08-4.7
				c-2.57,1.19-5.11,2.44-7.71,3.55c-2.6,1.11-5.29,1.96-8.38,1.98c1.94-1.69,3.88-3.37,5.84-5.08c-1.18-0.82-2.09-0.07-3,0.35
				c-7.07,3.29-14.21,6.35-22.02,7.5c-4.76,0.7-9.41,0.3-14.04-0.86c-0.74-0.19-1.5-0.33-2.4-0.52c-1.53,6.45-1.58,12.88-1.54,19.42
				c2.35,0.69,4.62,1.62,6.98,1.97c3.59,0.55,4.55,3.07,5.39,6.23c-4.04-0.44-7.3-3.03-11.26-3.06c-0.6,1.05,0.06,1.91,0.18,2.86
				c4.78-1.18,8.25-0.18,10.5,2.97c-1.29-0.31-2.49-0.61-3.74-0.92c-0.62,1.26-0.64,2.94-2.5,3.02c-1.61,0.07-2.37-0.96-2.88-2.33
				c-0.2,0.02-0.4,0.03-0.59,0.05c-0.08,2.98-0.27,5.95-0.22,8.93c0.1,5.96,2.57,11.31,4.54,16.77c1.87,5.18,4.45,10.06,6.73,15.06
				c1.42,3.12,3.86,4.47,6.99,4.84c3.8,0.45,7.56,0.21,11.11-1.42c7.4-3.39,14.42-7.35,20.43-12.97c2.55-2.38,4.58-5.13,6.57-8.2
				c-0.1,11.17-19.69,33.36-35.78,32.41c0,1.55,0.18,3.13-0.03,4.66c-0.88,6.36,2.07,12.16,2.52,18.33c0.24,3.27,0.9,6.51,1.4,9.97
				c1.43-0.53,1.65-1.69,2.04-2.6c2.44-5.71,4.85-11.43,7.18-17.19c0.71-1.75,1.71-3.13,3.25-4.21
				c10.45-7.37,19.12-16.6,27.24-26.38c0.92-1.11,1.24-2.15,0.99-3.63c-0.66-3.88-0.87-7.82-0.84-11.76
				c0.01-2.04,0.04-3.99-2.78-4.17c-0.57-0.04-1.1-0.55-1.76-0.9c0.1-1.58,0.6-2.36,2.2-2.1
				C405.37,114.75,407.29,113.67,408.91,112.06z M369.33,100.73c-1.9,0.27-3.05-0.86-3.63-2.45c-0.72-0.07-1.06,0.72-1.67,0.33
				c0.87-3.19,1.5-3.72,4.64-3.74c3.65-0.03,7.13,0.72,10.54,2.35c-1.32,1.09-2.63,0.53-3.92,0.38c-1.3-0.16-2.62-0.26-3.89-0.38
				C371.03,98.75,371.21,100.47,369.33,100.73z M354.58,131.95c2.77,0,5.28,0,7.97,0C359.59,134.33,357.34,134.33,354.58,131.95z
				 M350.76,125.41c6.36,0.2,12.37-0.5,19.03,0.11C365.67,128.16,353.65,128.04,350.76,125.41z M354.62,119.37
				c-4.1,0.36-6.64-2.05-5.97-5.89c0.71-4.02,1.79-7.96,3.18-11.8c0.16-0.45,0.16-1.16,1.04-1.08c-0.23,3.14-0.32,6.32-1.27,9.32
				c-1.21,3.81-1.31,7.07,2.92,9.04C354.6,118.99,354.59,119.23,354.62,119.37z M361.81,117.02c-1.67,0.94-3.12,0.69-5.22,0.61
				C358.49,116.19,359.92,116.3,361.81,117.02z M376.08,67.79c-0.12,0.06-0.24,0.14-0.36,0.17c-0.02,0.01-0.05-0.01-0.09-0.04
				c-0.03-0.02-0.06-0.05-0.09-0.07c0,0-0.01-0.01-0.01-0.01l0,0l0,0c0.08-0.09,0.16-0.18,0.24-0.27
				C375.89,67.65,375.98,67.72,376.08,67.79z M383.21,91.49c-5.44-1.16-10.61-0.48-15.56,2.06c-1.47,0.76-3.1,1.07-4.71,1.44
				c-3.11,0.7-4.88-1.38-4.31-4.32c3.78-0.56,7.49-1.58,11.15-2.72C375.03,86.31,379.29,87.99,383.21,91.49z M408.97,100.21
				c1.11,3.48-0.51,6.22-4.65,7.53c1.7-4.7,1.7-4.7,1.26-6.27c-0.92-3.29,0.61-7.1,3.54-8.85c1.97-1.18,3.5-0.88,4.74,0.92
				C409.55,93.47,407.65,96.06,408.97,100.21z"/>
			<path class="st21" d="M368.19,258.77c-0.41,0.09-0.87,0.42-1.37,0.22c-1.78-0.7-3.04-1.97-3.71-3.74
				c-0.93-2.46-0.03-3.99,2.56-4.37c1.4-0.2,2.82-0.23,4.23-0.34c3.02-0.23,6.08-0.3,8.9-1.71c-0.3-0.53-0.72-0.4-1.1-0.43
				c-4.65-0.33-9.26,0.23-13.89,0.59c-0.8,0.06-1.71,0.62-2.42-0.26c-1.33-1.64-1.29-3.52-0.77-5.38c0.47-1.67,1.81-2.23,3.45-2.32
				c2.83-0.15,5.66-0.29,8.48-0.56c2.6-0.25,5.27-0.24,7.69-1.55c-5.72-0.43-11.42-0.39-17.11-0.04c-2.83,0.17-4.2,2.19-4.98,4.69
				c-0.25,0.8-0.13,1.7-0.75,2.47c-1.79-0.93-2.57-2.19-1.85-4.23c1.01-2.89,2.12-5.73,3.48-8.49c1.13-2.27,2.82-3.22,5.29-3.12
				c3.54,0.14,7.08,0.18,10.62,0.27c2.61,0.07,5.19,0.06,7.6-1.22c-5.54-0.75-11.07-1.23-16.59-1.78c-3.18-0.32-5.88,0.55-8.17,2.82
				c-1.46,1.45-3.17,2.6-5.18,3.18c-1.25,0.36-2.56,0.44-3.39-0.86c-0.84-1.31,0.08-2.25,0.87-3.11c2.67-2.9,5.51-5.62,8.68-7.98
				c2.21-1.64,4.62-2.59,7.47-2.26c7.19,0.85,14.29,2.16,21.33,3.83c3.51,0.83,5.83,2.74,7.21,6.35c2.64,6.87,5.48,13.65,7.89,20.61
				c1.2,3.47,2.58,6.96,5.42,9.54c0.63,0.57,0.6,1.25,0.51,1.95c-0.3,2.5-0.46,5.03-0.98,7.48c-1,4.79-2.39,9.45-6,13.21
				c-2.51-1.02-5.16-1.4-7.73-2.04c-4.25-1.06-8.43-2.35-9.76-7.38c-0.1-0.38-0.62-0.7-1-0.96c-4.01-2.79-6.18-6.64-6.74-11.47
				c-0.04-0.32-0.36-0.75-0.65-0.87C373.32,258.48,370.73,258.22,368.19,258.77z"/>
			<path class="st21" d="M303.56,267.26c0.66,1.86-0.3,3.5-2.9,4.64c-3.31,1.45-6.7,2.7-9.98,4.23c-3.82,1.78-7.46,3.91-11.27,6.48
				c1.86,1.03,3.25,0.28,4.58-0.18c6.32-2.16,12.43-4.87,18.52-7.61c2.5-1.13,4.96-2.39,7.64-3.06c1.95-0.48,3.53,0.27,4.29,2.04
				c0.77,1.78,0.24,3.45-1.52,4.46c-1.98,1.13-3.99,2.2-6.03,3.22c-7.08,3.56-14.17,7.08-21.45,10.71c1.44,1.26,2.49,0.51,3.45,0.17
				c8.85-3.12,17.09-7.54,25.3-12.02c1.43-0.78,2.63-1.01,3.77,0.32c1.2,1.4,1.16,2.89,0.12,4.32c-0.8,1.09-1.92,1.83-3.08,2.53
				c-3.37,2.03-6.69,4.13-10.08,6.12c-4.33,2.54-8.7,5.01-13.06,7.51c0.84,1.34,1.8,0.63,2.58,0.33c3.07-1.2,6.09-2.53,8.99-4.11
				c4.63-2.53,8.96-5.54,13.42-8.33c0.8-0.5,1.63-0.99,2.58-0.17c0.87,0.75,1.12,1.66,0.95,2.75c-0.16,1.07-0.78,1.9-1.52,2.6
				c-6.18,5.87-12.98,10.99-20.2,15.46c-4.63,2.87-8.53,1.77-11.94-2.49c-1.05-1.31-2.22-2.47-3.82-3.05
				c-2.11-0.76-3.07-2.34-3.14-4.45c-0.08-2.23-1.26-3.69-3.12-4.63c-2.08-1.06-3.02-2.63-2.73-4.97c0.29-2.31-0.42-4.25-1.97-6.06
				c-2.72-3.2-2.24-6.77,1.43-8.72c7.98-4.24,16.19-8.03,25.04-10.17C300.97,264.53,302.89,265.4,303.56,267.26z"/>
			<path class="st22" d="M361.6,188.04c-0.11-0.23-0.21-0.46-0.31-0.69c-0.1-0.23-0.18-0.47-0.26-0.71
				c-1.96-6.3-4.5-12.38-7.51-18.26c-0.68-1.33-1.46-2.57-3.36-2.98c-2.91,5.14-5.18,10.57-7.69,15.91
				c-1.09-14.03,6.29-24.09,15.38-33.48c-0.38,7,0.56,13.74,1.93,20.5c1.48,7.31,2.43,14.72,3.66,22.08
				c0.14,0.83,0.41,1.57-0.64,1.92C362.97,190.73,362.23,189.4,361.6,188.04z"/>
			<path class="st21" d="M361.29,187.35c0.1,0.23,0.2,0.46,0.31,0.69C361.49,187.81,361.39,187.58,361.29,187.35z"/>
			<path class="st21" d="M361.6,188.04c0.63,1.36,1.37,2.69,1.22,4.29c0,0,0,0,0,0C362.97,190.73,362.23,189.4,361.6,188.04z"/>
			<path class="st21" d="M362.78,192.34c0.01,0.01,0.02,0.03,0.03,0.04c0,0,0,0,0,0c0,0,0,0,0,0
				C362.8,192.37,362.79,192.35,362.78,192.34C362.78,192.34,362.78,192.34,362.78,192.34z"/>
			<path class="st21" d="M362.81,192.33c0,0.02,0,0.03,0,0.05c-0.01-0.01-0.02-0.03-0.03-0.04
				C362.79,192.34,362.8,192.33,362.81,192.33z"/>
			<path class="st21" d="M362.81,192.38c0,0-0.05-0.03-0.05-0.03c0.01,0,0.02-0.01,0.02-0.01
				C362.79,192.35,362.8,192.37,362.81,192.38z"/>
			<path class="st22" d="M451.08,195.31c1.48-2.57,3.14-4.95,4.99-7.11c4.07-4.74,9.1-8.42,15.3-10.74h0
				c0.1,0.12,0.19,0.23,0.3,0.34c-7.7,4.55-12.99,11.27-17.08,19.04c-4.72,8.97-7.64,18.58-9.92,28.41
				c-1.9,8.18-3.26,16.47-4.62,24.76c-0.3-6.98-0.12-13.93,0.83-20.85C442.49,217.35,445.04,205.8,451.08,195.31z"/>
			<path class="st21" d="M471.37,177.46L471.37,177.46c-6.21,2.32-11.23,6-15.3,10.74C460.14,183.46,465.16,179.79,471.37,177.46
				L471.37,177.46L471.37,177.46C471.37,177.46,471.37,177.46,471.37,177.46z"/>
			<path class="st22" d="M355.06,353.05c0.82,0.06,1.36,0.36,1.35,1.26c-0.03,2.65,0.23,5.31-0.25,8.31
				c-5.52-0.47-10.8-0.91-16.16-1.36c0-3.29-0.42-6.23,0.11-9.32C345.23,352.32,350.14,352.7,355.06,353.05z"/>
			<path class="st22" d="M331.38,176.55c-0.77,1.24-0.8,2.23,0.04,3.42c1.02,1.45,1.88,3.01,2.86,4.6
				c-2.71,1.87-5.21,3.65-7.76,5.34c-1.09,0.72-1.5,1.55-1.55,2.89c-0.45,11.9-1.04,23.79-1.85,35.61
				c-0.09-0.75-0.26-1.51-0.27-2.26c-0.24-11.5-0.43-22.99-0.7-34.49c-0.03-1.37,0.48-2.14,1.55-2.86c2.33-1.57,4.59-3.25,6.8-4.83
				c-0.34-2.46-3.38-3.96-2.42-6.4c0.84-2.13,2.64-3.88,4.01-5.8c0.18-0.26,0.36-0.52,0.57-0.76c1.87-2.18,3.35-4.69,5.53-6.74
				c0.29,0.64-0.04,0.93-0.23,1.24C335.77,169.21,333.63,172.92,331.38,176.55z"/>
			<path class="st22" d="M303.07,186.01c-0.85,15.22,1.1,30.12,4.49,45.24C301.08,222.76,298.71,197.73,303.07,186.01z"/>
			<path class="st22" d="M281.35,308.85L281.35,308.85c0.09-0.09,0.17-0.17,0.26-0.26c1.19,1.12,2.46,2.18,3.56,3.38
				c3.18,3.5,7.13,4.3,11.59,3.45c0.88-0.17,1.75-0.35,2.74-0.55c-2.06,3.87-5.02,5.1-8.88,3.71c-1.47-0.53-2.75-1.24-3.86-2.11
				C284.29,314.57,282.59,311.92,281.35,308.85z"/>
			<path class="st21" d="M281.35,308.85L281.35,308.85c1.24,3.07,2.93,5.72,5.4,7.63C284.29,314.57,282.59,311.92,281.35,308.85
				C281.35,308.85,281.35,308.85,281.35,308.85L281.35,308.85C281.35,308.85,281.35,308.85,281.35,308.85z"/>
			<path class="st22" d="M435.03,309.58c-1.72-0.03-3.11-1.42-3.15-3.15c-0.05-1.83,1.57-3.46,3.43-3.45
				c1.7,0.01,3.12,1.44,3.14,3.16C438.47,308.04,436.9,309.62,435.03,309.58z"/>
			<path class="st22" d="M424.57,305.21c-1.71,0.04-3.27-1.54-3.27-3.31c0-1.83,1.45-3.32,3.23-3.31c1.79,0,3.3,1.48,3.31,3.26
				C427.86,303.54,426.27,305.17,424.57,305.21z"/>
			<path class="st21" d="M472.11,177.26c0.26,0,0.55,0.09,0.88,0.27c-0.55,0.11-0.94,0.2-1.33,0.28c-0.1-0.11-0.2-0.23-0.3-0.34
				C471.61,177.33,471.85,177.26,472.11,177.26z"/>
			<path class="st21" d="M471.37,177.46c0.24-0.13,0.48-0.2,0.74-0.2C471.85,177.26,471.61,177.33,471.37,177.46
				C471.37,177.46,471.37,177.46,471.37,177.46z"/>
			<path class="st21" d="M471.37,177.46c0.1,0.12,0.19,0.23,0.3,0.34C471.56,177.7,471.46,177.58,471.37,177.46L471.37,177.46z"/>
			<polygon class="st21" points="471.37,177.46 471.37,177.46 471.37,177.46 471.37,177.46 			"/>
			<path class="st21" d="M465.31,243.08c-0.09,0.52-0.62,0.4-0.87,0.64c-0.19-0.14-0.37-0.29-0.56-0.43
				C464.29,242.77,464.79,242.92,465.31,243.08z"/>
			<path class="st21" d="M338.8,164.09c-0.27,0.1-0.66,0.16-0.47-0.31c0.16-0.38,0.48-0.23,0.73,0.02
				C338.98,163.9,338.91,164.05,338.8,164.09z"/>
			<path class="st21" d="M464.63,281.59c0.2,0.26,0.39,0.52,0.59,0.78c-0.09,0.11-0.19,0.21-0.28,0.32
				c-0.24-0.19-0.47-0.38-0.71-0.58C464.36,281.95,464.49,281.77,464.63,281.59z"/>
			<path class="st21" d="M464.63,281.59c0.2,0.26,0.39,0.52,0.59,0.78l0,0l0,0C465.02,282.11,464.82,281.85,464.63,281.59z"/>
			<path class="st21" d="M465.89,282.95c-0.51,0.3-0.81,0.25-0.95-0.26c0.09-0.11,0.18-0.22,0.28-0.32
				C465.43,282.56,465.64,282.74,465.89,282.95z"/>
			<path class="st21" d="M465.22,282.37c-0.09,0.11-0.19,0.21-0.28,0.32C465.03,282.59,465.12,282.48,465.22,282.37L465.22,282.37z"
				/>
			<path class="st21" d="M389.99,218.7c-0.04,0-0.08-0.02-0.1-0.04c-0.2-0.25,0.09-0.31,0.26-0.4c0.11,0.13,0.23,0.26,0.34,0.39
				C390.34,218.66,390.13,218.71,389.99,218.7z"/>
			<path class="st21" d="M390.5,218.65c-0.16,0-0.37,0.06-0.51,0.04C390.13,218.71,390.34,218.66,390.5,218.65
				C390.5,218.65,390.5,218.65,390.5,218.65z"/>
			<path class="st21" d="M390.5,218.65c-0.11-0.13-0.23-0.26-0.34-0.39C390.27,218.39,390.39,218.52,390.5,218.65
				C390.5,218.65,390.5,218.65,390.5,218.65z"/>
			<polygon class="st21" points="390.5,218.65 390.5,218.65 390.5,218.65 390.5,218.65 			"/>
			<path class="st21" d="M486.53,284.53c-0.1-0.15-0.2-0.29-0.3-0.44c0.07-0.09,0.15-0.17,0.24-0.25
				C486.63,284.06,486.82,284.27,486.53,284.53z"/>
			<path class="st21" d="M281.61,308.59c-0.09,0.09-0.17,0.17-0.26,0.26c-0.13-0.12-0.25-0.25-0.25-0.4c0-0.09,0.04-0.18,0.15-0.28
				C281.37,308.32,281.49,308.45,281.61,308.59z"/>
			<path class="st21" d="M281.35,308.85C281.35,308.85,281.35,308.85,281.35,308.85c-0.13-0.12-0.25-0.25-0.25-0.4
				C281.1,308.6,281.22,308.73,281.35,308.85z"/>
			<path class="st21" d="M281.35,308.85c0.09-0.09,0.17-0.17,0.26-0.26C281.53,308.68,281.44,308.77,281.35,308.85L281.35,308.85z"
				/>
			<polygon class="st21" points="281.35,308.85 281.35,308.85 281.35,308.85 281.35,308.85 			"/>
			<path d="M359.19,197.8c1.28,0.06,2.04,1.05,2.02,2.44c-0.06,0.52-0.19,1-0.4,1.39c-0.27,0.49-0.67,0.83-1.25,0.97
				c-0.2,0.05-0.42,0.08-0.66,0.08c-1.34-0.03-2.19-0.91-2.13-2.3C356.82,198.9,357.62,197.72,359.19,197.8z"/>
			<path d="M360.81,201.64c-0.27,0.49-0.67,0.83-1.25,0.97C360.13,202.47,360.54,202.12,360.81,201.64z"/>
			<path d="M369.01,191.92c-0.08-0.09-0.17-0.17-0.26-0.25c0.21-0.27,0.42-0.54,0.62-0.8c0.13,0.14,0.26,0.27,0.38,0.41
				C369.51,191.48,369.26,191.7,369.01,191.92z"/>
			<path d="M369.37,190.86c0.13,0.14,0.26,0.27,0.38,0.41c0,0,0,0,0,0C369.62,191.13,369.5,191,369.37,190.86z"/>
			<path d="M368.67,192.21c-0.06-0.03,0.05-0.36,0.08-0.55c0.09,0.08,0.18,0.16,0.26,0.25
				C368.99,192.13,368.95,192.37,368.67,192.21z"/>
			<path d="M367.65,93.55c-1.47,0.76-3.1,1.07-4.71,1.44c-3.11,0.7-4.88-1.38-4.31-4.32c3.78-0.56,7.49-1.58,11.15-2.72
				c5.25-1.63,9.51,0.05,13.43,3.54C377.77,90.33,372.6,91.01,367.65,93.55z"/>
			<path d="M404.32,107.74c1.7-4.7,1.7-4.7,1.26-6.27c-0.92-3.29,0.61-7.1,3.54-8.85c1.97-1.18,3.5-0.88,4.74,0.92
				c-4.31-0.07-6.21,2.52-4.89,6.67C410.08,103.69,408.46,106.43,404.32,107.74z"/>
			<path d="M365.7,98.28c-0.72-0.07-1.06,0.72-1.67,0.33c0.87-3.19,1.5-3.72,4.64-3.74c3.65-0.03,7.13,0.72,10.54,2.35
				c-1.32,1.09-2.63,0.53-3.92,0.38c-1.3-0.16-2.62-0.26-3.89-0.38c-0.37,1.54-0.19,3.25-2.07,3.52
				C367.43,100.99,366.28,99.86,365.7,98.28z"/>
			<path d="M348.65,113.48c0.71-4.02,1.79-7.96,3.18-11.8c0.16-0.45,0.16-1.16,1.04-1.08c-0.23,3.14-0.32,6.32-1.27,9.32
				c-1.21,3.81-1.31,7.07,2.92,9.04c0.08,0.04,0.07,0.27,0.1,0.42C350.53,119.73,347.98,117.32,348.65,113.48z"/>
			<path d="M369.8,125.53c-4.12,2.63-16.15,2.52-19.03-0.11C357.13,125.61,363.14,124.92,369.8,125.53z"/>
			<path d="M354.58,131.95c2.77,0,5.28,0,7.97,0C359.59,134.33,357.34,134.33,354.58,131.95z"/>
			<path d="M361.81,117.02c-1.67,0.94-3.12,0.69-5.22,0.61C358.49,116.19,359.92,116.3,361.81,117.02z"/>
			<path d="M375.63,67.92c-0.03-0.02-0.06-0.05-0.09-0.07c0,0-0.01-0.01-0.01-0.01c0.08-0.09,0.16-0.18,0.24-0.27
				c0.11,0.08,0.2,0.15,0.3,0.21c-0.12,0.06-0.24,0.14-0.36,0.17C375.69,67.96,375.66,67.94,375.63,67.92z"/>
			<polygon points="375.53,67.84 375.53,67.84 375.54,67.85 			"/>
			<path d="M427.54,151.26c0.02,0.59,0.05,1.18,0.07,1.77c-0.94-0.46-1.94-0.93-2.67-1.27c0-0.35-0.01-0.7-0.01-1.05
				c-0.01-1.27-0.41-2.19-1.26-3.14c-0.17-0.18-0.33-0.37-0.49-0.55l7.52,5.13l0,0c-0.16-0.07-0.33-0.14-0.49-0.21
				C429.44,151.6,428.7,151.07,427.54,151.26z"/>
			<path d="M430.45,154.55c-0.2-0.2-1.47-0.85-2.84-1.52c-0.02-0.59-0.05-1.18-0.07-1.77c1.16-0.2,1.89,0.34,2.67,0.67
				c0.16,0.07,0.33,0.14,0.49,0.21C430.7,152.17,430.92,155.02,430.45,154.55z"/>
			<path d="M424.93,150.71c0,0.35,0.01,0.7,0.01,1.05c-0.66-0.31-1.11-0.52-1.11-0.52l-1.42-2.84l0.75-1.39l0.01,0.01
				c0.16,0.18,0.32,0.37,0.49,0.55C424.52,148.52,424.92,149.45,424.93,150.71z"/>
			<path d="M450.78,324.64v-2.98c0.49,0.15,0.98,0.29,1.48,0.43l0.63,7.07c-0.06-0.63-0.12-1.26-0.18-1.89
				C452.58,325.81,452.24,325.1,450.78,324.64z"/>
			<path d="M450.78,320.49l1.42,0.95l0.06,0.66c-0.49-0.14-0.98-0.29-1.48-0.43V320.49z"/>
			<path d="M452.95,330.05l-0.22-0.11l-1.95-0.95v-4.36c1.46,0.45,1.79,1.17,1.93,2.64c0.06,0.63,0.12,1.26,0.18,1.89l0.06,0.67
				V330.05z"/>
			<path d="M288.49,239.65c-0.82-0.01-1.63-0.03-2.45-0.04l0.53-3.16c0.9,0,1.78,0,2.68,0L288.49,239.65z"/>
			<path d="M288.15,241.07l-1.42,2.84h-1.42l0.72-4.3c0.82,0.01,1.63,0.03,2.45,0.04L288.15,241.07z"/>
			<path d="M289.24,236.44c-0.89,0-1.78,0-2.68,0l3.48-3.42L289.24,236.44z"/>
		</g>
	</g>
	<g>
		<path class="st21" d="M3.12,164.83c1.42-0.08,2.85-0.16,4.27-0.17c4.3-0.02,8.6,0.1,12.9,0.02c4.9-0.1,9.8-0.08,14.7,0.14
			c1.45,0.07,1.52-0.05,1.52-1.53c0.01-7.51,0.01-15.03,0.01-22.54c0-1.3-0.03-1.34-1.36-1.34c-5.29,0-10.57,0-15.86,0
			c0-0.01,0-0.02,0-0.04c-5.32,0-10.64,0.01-15.96-0.01c-0.76,0-1.26,0.1-1.26,1.05c0.02,7.79,0.01,15.58-0.01,23.37
			C2.07,164.54,2.35,164.88,3.12,164.83z"/>
		<path d="M36.51,173.42c0-0.92-0.25-1.3-1.24-1.29c-10.6,0.03-21.2,0.04-31.8,0.02c-1.05,0-1.38,0.35-1.38,1.39
			c0.02,7.58,0,15.16-0.01,22.73c0,1.3,0.05,1.35,1.36,1.35c5.25,0,10.5,0,15.75,0c0,0,0-0.01,0-0.01c5.32,0,10.64-0.03,15.95,0.02
			c1.06,0.01,1.38-0.32,1.37-1.37C36.48,188.65,36.49,181.03,36.51,173.42z"/>
		<path d="M2.07,272.02c0,1.31,0.06,1.36,1.35,1.36c10.54,0,21.07-0.01,31.61-0.02c1.42,0,1.48-0.07,1.48-1.47
			c0-8.38-0.01-16.76,0.03-25.14c0-1.07-0.37-1.36-1.39-1.36c-5.29,0.04-10.57,0.02-15.86,0.02c-5.29,0-10.57,0.02-15.86-0.02
			c-1.04-0.01-1.38,0.32-1.38,1.37C2.08,255.19,2.07,263.61,2.07,272.02z"/>
		<path class="st21" d="M35.02,204.96c-5.18-0.01-10.35,0.06-15.52,0.13c-5.31,0.07-10.63-0.08-15.95-0.13
			c-1.38-0.01-1.45,0.07-1.45,1.38c0,10.05-0.01,20.1-0.01,30.14c0,1.4,0.03,1.42,1.49,1.42c5.25,0,10.5,0,15.75,0
			c5.32,0,10.64-0.02,15.96,0.02c0.9,0.01,1.25-0.3,1.21-1.2c-0.09-2.25-0.13-4.5-0.06-6.76c0.1-2.95-0.12-5.9-0.1-8.86
			c0.02-4.86,0.12-9.73,0.17-14.59C36.53,205.01,36.47,204.96,35.02,204.96z"/>
		<path class="st21" d="M167.91,250.02c-3.2,0-3.2,0-2.56,3.2c0.81,4.03,5.83,6.27,9.37,4.19c2.27-1.33,3.56-3.21,3.55-5.92
			c-0.01-1.44,0.06-1.44-1.4-1.45c-1.7-0.01-3.4,0-5.1,0c0,0,0-0.01,0-0.01C170.48,250.02,169.2,250.01,167.91,250.02z"/>
		<path class="st21" d="M24.14,9.76c1.24,0.05,2.25-0.99,2.33-2.41c0.06-1.13-0.86-2.22-1.95-2.31c-1.21-0.09-2.49,1.1-2.55,2.38
			C21.9,8.57,22.96,9.71,24.14,9.76z"/>
		<path class="st21" d="M76.9,172.15c-10.36,0-20.73,0-31.09,0c-1.57,0-1.57,0-1.57,1.56c-0.01,7.51-0.01,15.01-0.02,22.52
			c0,1.38,0,1.39,1.43,1.39c5.22,0,10.43,0,15.65,0c0,0,0,0.01,0,0.01c5.22,0,10.43,0,15.65,0c1.52,0,1.54-0.02,1.54-1.49
			c0-7.48,0-14.96-0.01-22.43C78.48,172.15,78.47,172.15,76.9,172.15z"/>
		<path class="st22" d="M2.06,110.97c0.14,1.72,1.19,3.01,2.88,3.39c0.65,0.15,1.31,0.13,1.97,0.13c18.67,0,37.35,0.02,56.02-0.01
			c7.86-0.01,15.72,0.16,23.58-0.12c3.33-0.12,6.67,0.09,10.01,0.1c13.46,0.06,26.91,0.04,40.37,0.02
			c6.36-0.01,12.72-0.13,19.08-0.13c4.87,0,9.74,0.13,14.6,0.12c2.22-0.01,4.45-0.25,6.67-0.09c2.09,0.15,4.17,0.09,6.26,0.14
			c0.93,0.02,1.66-0.36,2.34-0.97c1.34-1.21,1.58-2.75,1.57-4.45c-0.01-31.1,0-62.2,0-93.3c0-1.67,0.01-1.66-1.66-1.66
			c-30.37,0-60.74,0-91.1,0c0,0.01,0,0.02,0,0.03c-10.44,0-20.87-0.01-31.31,0c-20.07,0.01-40.14,0.04-60.21,0.03
			c-0.97,0-1.07,0.43-1.07,1.2c0,8-0.09,16-0.11,24c-0.04,21.22-0.17,42.44,0.1,63.65C2.09,105.69,1.84,108.33,2.06,110.97z
			 M94.77,108.71c-12.8,0-25.6,0-38.41,0c0,0.01,0,0.03,0,0.04c-12.42,0-24.84-0.03-37.26,0.02c-3.06,0.01-6.11,0.21-9.17-0.01
			c-1.42-0.1-1.79-0.39-1.79-1.83c-0.01-5.04-0.01-10.09,0-15.13c0-1.5,0.27-1.67,1.76-1.77c2.85-0.19,5.71-0.17,8.55-0.08
			c5.36,0.18,10.71,0.22,16.06,0.09c5.91-0.14,11.82-0.1,17.73-0.1c4.48,0,8.96,0.25,13.44,0.11c5.46-0.17,10.92,0.16,16.37,0.01
			c4.21-0.12,8.41-0.13,12.62-0.14c1.79-0.01,2.14,0.34,2.15,2.13c0.02,4.87,0.02,9.74,0.01,14.61
			C96.84,108.44,96.56,108.71,94.77,108.71z M8.12,82.64c0-20.24,0.01-40.49,0.01-60.73c0-1.62,0.11-1.74,1.81-1.74
			c28.28,0,56.56,0,84.84,0c0,0,0,0,0-0.01c28.31,0,56.63,0,84.94,0c1.55,0,1.67,0.1,1.67,1.65c0,28.28-0.01,56.56-0.02,84.84
			c0,1.72-0.43,2.1-2.32,2.1c-17.57,0-35.13-0.07-52.7,0.03c-7.58,0.04-15.16-0.19-22.74-0.04c-1.77,0.04-1.98-0.19-1.98-1.98
			c0-17.04,0.01-34.09,0.02-51.13c0-0.61-0.22-1.55,0.73-1.56c1-0.01,0.72,0.94,0.72,1.54c0.01,16.56,0.01,33.11,0.01,49.67
			c0,1.74,0,1.75,1.79,1.75c4.17,0,8.35,0,12.52,0c20.28,0,40.55,0,60.83-0.01c1.38,0,1.42-0.03,1.42-1.39
			c0-27.34,0-54.68,0.01-82.02c0-1.75-0.01-1.75-1.78-1.75c-26.47,0-52.94,0-79.41,0c-1.62,0-1.63,0-1.63,1.59
			c-0.01,20-0.01,40-0.01,60c0,2.01-0.09,2.12-2.12,2.12c-11.93,0.01-23.85,0.01-35.78,0.01c-15.96,0-31.93,0-47.89,0
			C7.89,85.6,8.12,86.02,8.12,82.64z M104.15,45.69c-0.6,0-1.56,0.28-1.54-0.72c0.02-0.89,0.94-0.75,1.57-0.75
			c3.48-0.02,6.96-0.01,10.44-0.01c4.69,0.02,9.39,0.18,14.08,0.1c6.23-0.1,12.45-0.13,18.67-0.05c4.2,0.05,8.41,0.15,12.61,0.08
			c4.17-0.06,8.34,0.13,12.51,0.07c0.28,0,0.56,0,0.83,0.01c0.44,0.02,0.9,0.09,0.92,0.63c0.02,0.58-0.43,0.75-0.91,0.8
			c-0.41,0.04-0.83,0.03-1.25,0.03C149.44,45.58,126.79,45.73,104.15,45.69z M160.75,50.4c-0.02,0.53-0.44,0.66-0.89,0.68
			c-0.35,0.02-0.7,0.01-1.04,0.01c-9,0-18.01,0-27.01,0c0,0,0,0.01,0,0.01c-9.11,0-18.22,0-27.33,0c-0.17,0-0.35,0.01-0.52,0
			c-0.45-0.03-1-0.01-1-0.65c0-0.62,0.54-0.63,0.99-0.66c0.83-0.06,1.66-0.15,2.49-0.15c17.07-0.01,34.14-0.01,51.21,0
			c0.76,0,1.53,0.06,2.29,0.12C160.33,49.81,160.77,49.88,160.75,50.4z"/>
		<path class="st22" d="M77.06,139.39c-5.25,0-10.5,0-15.75,0c0,0.01,0,0.01,0,0.02c-4.83,0-9.66,0-14.49,0
			c-0.66,0-1.32,0.01-1.98,0.02c-0.52,0.01-0.71,0.27-0.7,0.8c0.05,2.57,0.11,5.14,0.08,7.71c-0.05,5.25,0.2,10.5-0.15,15.74
			c-0.06,0.87,0.3,1.22,1.16,1.14c0.83-0.07,1.66-0.15,2.49-0.16c5.6-0.01,11.19-0.01,16.79-0.01c2.29,0,4.58-0.04,6.86,0.07
			c2.12,0.11,4.24,0.05,6.36,0.09c0.61,0.01,0.82-0.24,0.81-0.89c-0.04-7.72-0.05-15.43-0.07-23.15
			C78.46,139.42,78.43,139.39,77.06,139.39z"/>
		<path class="st21" d="M8.03,9.67c1.24-0.02,2.2-1.04,2.19-2.31c-0.01-1.3-1.03-2.31-2.32-2.31c-1.18,0-2.35,1.09-2.36,2.22
			C5.51,8.58,6.66,9.69,8.03,9.67z"/>
		<path class="st22" d="M35.11,321.59c-0.08-1.41-0.5-2.74-1.18-3.89L28,323.63c-0.42,0.42-0.98,0.65-1.57,0.65
			c-0.59,0-1.15-0.23-1.56-0.64c-0.86-0.87-0.86-2.28,0-3.14l5.93-5.93c-1.02-0.6-2.16-1-3.39-1.14c0,0,0,0-0.01,0
			c-0.14-0.02-0.28-0.03-0.42-0.04c-0.03,0-0.06-0.01-0.09-0.01c-0.14-0.01-0.28-0.01-0.43-0.01c-0.01,0-0.03,0-0.04,0
			s-0.03,0-0.04,0c-0.14,0-0.28,0-0.43,0.01c-0.03,0-0.06,0-0.09,0.01c-0.14,0.01-0.27,0.02-0.42,0.04c0,0,0,0-0.01,0
			c-4.18,0.48-7.47,3.92-7.7,8.17c0,0.02,0,0.05,0,0.07c-0.01,0.11-0.01,0.22-0.01,0.34c0,0.04,0,0.09,0,0.13c0,0.1,0,0.2,0.01,0.3
			c0,0.04,0,0.08,0.01,0.12c0.01,0.11,0.01,0.21,0.02,0.32c0,0.03,0.01,0.07,0.01,0.1c0.01,0.12,0.03,0.23,0.05,0.35
			c0,0.02,0.01,0.04,0.01,0.07c0.04,0.28,0.1,0.56,0.17,0.83c0.01,0.02,0.01,0.04,0.02,0.06c0.03,0.11,0.06,0.23,0.1,0.34
			c0.01,0.03,0.02,0.06,0.03,0.09c0.03,0.1,0.07,0.21,0.11,0.31c0.01,0.03,0.02,0.05,0.03,0.08c0.04,0.11,0.08,0.22,0.13,0.32
			c0.01,0.02,0.01,0.03,0.02,0.05c0.05,0.12,0.1,0.23,0.16,0.35c0,0,0,0.01,0.01,0.01c0.98,2.02,2.72,3.61,4.84,4.39c0,0,0,0,0.01,0
			c0.11,0.04,0.23,0.08,0.35,0.12c0.04,0.01,0.08,0.02,0.12,0.04c0.08,0.03,0.17,0.05,0.25,0.07c0.07,0.02,0.14,0.04,0.21,0.05
			c0.06,0.02,0.12,0.03,0.19,0.04c0.08,0.02,0.17,0.04,0.25,0.05c0.04,0.01,0.09,0.02,0.13,0.02c0.23,0.04,0.45,0.07,0.68,0.09
			c0.03,0,0.05,0,0.08,0.01c0.23,0.02,0.47,0.03,0.7,0.03c0.01,0,0.01,0,0.02,0s0.01,0,0.02,0c0.23,0,0.47-0.01,0.7-0.03
			c0.03,0,0.05,0,0.08-0.01c0.23-0.02,0.46-0.05,0.68-0.09c0.04-0.01,0.09-0.02,0.13-0.02c0.09-0.02,0.17-0.03,0.25-0.05
			c0.06-0.01,0.12-0.03,0.19-0.04c0.07-0.02,0.14-0.03,0.21-0.05c0.08-0.02,0.17-0.05,0.25-0.07c0.04-0.01,0.08-0.02,0.12-0.04
			c0.12-0.04,0.23-0.08,0.35-0.12c0,0,0,0,0.01,0c2.12-0.78,3.86-2.37,4.84-4.39c0,0,0-0.01,0.01-0.01
			c0.06-0.11,0.11-0.23,0.16-0.35c0.01-0.02,0.02-0.04,0.02-0.05c0.04-0.11,0.09-0.21,0.13-0.32c0.01-0.03,0.02-0.05,0.03-0.08
			c0.04-0.1,0.07-0.21,0.11-0.31c0.01-0.03,0.02-0.06,0.03-0.09c0.03-0.11,0.07-0.22,0.1-0.34c0.01-0.02,0.01-0.04,0.02-0.06
			c0.07-0.27,0.13-0.55,0.17-0.83c0-0.02,0.01-0.04,0.01-0.07c0.02-0.12,0.03-0.23,0.05-0.35c0-0.03,0.01-0.07,0.01-0.1
			c0.01-0.11,0.02-0.21,0.03-0.32c0-0.04,0-0.08,0.01-0.12c0-0.1,0.01-0.2,0.01-0.3c0-0.04,0-0.09,0-0.13c0-0.11,0-0.22-0.01-0.34
			C35.11,321.64,35.11,321.62,35.11,321.59z"/>
		<path class="st21" d="M16,9.9c1.24,0.04,2.35-1.1,2.35-2.44c0-1.26-1.02-2.31-2.21-2.28c-1.37,0.03-2.36,0.97-2.37,2.25
			C13.76,8.63,14.87,9.86,16,9.9z"/>
		<path d="M95.18,93.05c0-1.67,0-1.67-1.67-1.67c-13.67,0-27.34,0-41.01,0c0,0,0,0,0,0.01c-13.67,0-27.34,0-41.01,0
			c-1.69,0-1.69,0-1.69,1.74c0,4.07,0,8.14,0.01,12.21c0,1.85,0.01,1.85,1.8,1.73c0.35-0.02,0.7-0.02,1.04-0.02
			c27.13,0,54.26-0.01,81.39,0.02c0.97,0,1.15-0.31,1.15-1.19C95.15,101.6,95.18,97.32,95.18,93.05z"/>
		<path d="M11.37,84.08c13.67,0,27.34,0,41,0c0-0.01,0-0.02,0-0.02c4.45,0,8.9,0,13.35,0c9.36,0,18.71,0,28.07,0.04
			c1.02,0,1.43-0.27,1.41-1.35c-0.03-2.19,0.1-4.38,0.11-6.56c0.02-6.5,0.01-13,0.01-19.5c0.01-11.16,0-22.33,0.04-33.49
			c0-1-0.32-1.31-1.31-1.32c-4.03-0.08-8.06,0.07-12.09,0.05c-23.58-0.07-47.16-0.05-70.74-0.06c-1.4,0-1.42,0.02-1.42,1.49
			c0,19.72-0.01,39.44-0.01,59.16C9.81,84.08,9.81,84.08,11.37,84.08z"/>
		<path class="st21" d="M159.26,138.35c-8.08,0.01-16.66,6.27-16.48,16.46c-0.01,9.05,7.71,16.17,16.75,16.08
			c10.01-0.1,15.97-8.57,15.99-16.52C175.53,145.39,168.37,138.34,159.26,138.35z M153.88,167.01c-0.28,0.58-0.84,0.35-1.28,0.13
			c-3.44-1.71-5.69-4.45-6.96-8.06c-0.51-1.46-0.71-2.96-0.79-4.24c-0.03-1.27,0.25-2.25,0.45-3.23c0.09-0.44,0.39-0.79,0.88-0.72
			c0.6,0.1,0.45,0.59,0.4,1c-0.41,3.32-0.15,6.5,1.7,9.42c1.26,1.98,2.92,3.51,4.91,4.72C153.57,166.27,154.15,166.46,153.88,167.01
			z M172.28,152.87c-0.6,0.09-0.71-0.43-0.81-0.88c-1.19-5.37-4.49-8.68-9.81-10.03c-0.38-0.1-0.95-0.11-0.86-0.69
			c0.08-0.57,0.63-0.39,1.08-0.44c2.98,0.44,5.56,1.78,7.65,3.99c1.6,1.69,2.75,3.66,3.21,5.97c0.06,0.31,0.14,0.61,0.15,0.92
			C172.92,152.22,172.91,152.77,172.28,152.87z"/>
		<path class="st22" d="M187.09,270.82c-0.15-3.13,0.12-6.25-0.05-9.38c-0.09-1.61-0.08-1.63-1.73-1.94
			c-1.3-0.25-2.46-0.88-3.66-1.49c-0.05,0.23-0.08,0.33-0.08,0.43c0.01,10.16,0.02,20.32,0.04,30.47c0,2.55-0.06,2.63-2.62,2.63
			c-11.58,0-23.17,0-34.75,0c-1.04,0-2.09,0.02-3.13-0.01c-1.14-0.03-1.46-0.37-1.5-1.53c-0.01-0.38-0.01-0.77-0.01-1.15
			c0.1-9.15-0.07-18.29-0.16-27.44c0-0.17-0.02-0.35-0.01-0.52c0.04-0.66-0.19-1.06-0.85-1.36c-1.61-0.72-3.03-1.72-3.88-3.34
			c-0.39-0.74-0.59-0.62-1.01,0.01c-3.31,4.99-10.35,4.86-13.51-0.23c-0.09-0.14-0.16-0.32-0.44-0.27c-1.8,2.82-4.36,4.38-7.78,4.33
			c-3.46-0.05-5.82-1.92-7.53-4.82c-3.08,5.52-9.7,6.59-14.21,0.63c-1.53,2.12-3.27,3.84-5.92,4.15c-0.95,0.11-1.22,0.49-1.21,1.39
			c0.04,3.13,0.04,6.26,0.04,9.39c0,24.84-0.01,49.67-0.01,74.51c0,1.57,0.01,1.57,1.56,1.57c6.47,0,12.94-0.01,19.41-0.01
			c9.74,0,19.48,0,29.22,0c1.26,0,1.37-0.14,1.28-1.38c-0.07-0.93-0.13-1.87-0.13-2.81c-0.01-12.93-0.01-25.87,0.01-38.8
			c0.01-4.38,0.05-8.76,0.1-13.14c0.08-7.75,0.25-15.51-0.1-23.26c-0.07-1.57-0.04-1.57-1.67-1.57c-13.5,0.01-26.99,0.01-40.49,0.02
			c-1.89,0-1.89-0.01-1.89,1.84c-0.01,16.31-0.02,32.63-0.03,48.94c0,0.9-0.1,1.81-0.08,2.71c0.13,6.75,0.19,13.49-0.02,20.24
			c-0.03,0.82,0.22,1.16,1.04,1.12c1.49-0.07,2.99-0.15,4.48-0.15c8.66,0.01,17.31,0.04,25.97,0.07c1.7,0.01,3.41,0.07,5.11,0.12
			c0.5,0.01,0.91,0.2,0.87,0.8c-0.03,0.53-0.42,0.67-0.88,0.69c-0.14,0.01-0.28,0.01-0.42,0.01c-12,0.01-24,0.02-36,0.02
			c-1.51,0-1.76-0.25-1.76-1.77c-0.03-6.64,0.06-13.28-0.13-19.93c-0.12-4.27,0.08-8.55,0.11-12.83
			c0.09-13.88,0.04-27.76,0.05-41.64c0-1.71,0.23-1.95,1.91-1.95c14.33-0.01,28.66-0.01,43-0.02c0.49,0,0.97,0.01,1.46,0.02
			c0.72,0.02,1.07,0.37,1.08,1.11c0.03,1.32,0.14,2.64,0.14,3.96c0.01,25.39,0.01,50.79,0.02,76.18c0,1.36,0.03,1.4,1.41,1.4
			c2.85,0,5.7-0.03,8.56-0.03c13.08-0.01,26.16,0,39.24-0.01c1.46,0,1.52-0.08,1.53-1.54c0.05-6.46,0.12-12.93,0.13-19.39
			c0.02-11.47,0.01-22.95,0.01-34.42c0-3.75-0.17-7.5-0.03-11.26C187.26,277.08,187.24,273.95,187.09,270.82z M181.56,340.61
			c-0.1,1.35-0.45,1.7-1.82,1.7c-8.38,0-16.76-0.01-25.14-0.01c-4.28,0-8.55,0-12.83,0c-1.95,0-2.18-0.22-2.18-2.13
			c0-7.27,0-14.53,0-21.8c0-7.23,0-14.46,0-21.7c0-1.74,0.06-1.81,1.83-1.81c12.73-0.01,25.45-0.01,38.18-0.01
			c1.82,0,1.97,0.15,1.97,1.96c0.01,14.36,0.01,28.72,0.01,43.08C181.57,340.13,181.58,340.37,181.56,340.61z"/>
		<path class="st21" d="M114.17,257.83c2.88-0.84,4.59-3.38,4.59-6.71c0-0.81-0.28-1.12-1.09-1.1c-1.84,0.04-3.69,0.01-5.53,0.01
			c0,0.01,0,0.01,0,0.02c-1.91,0-3.82,0-5.74,0c-0.54,0-0.98,0.07-0.97,0.76c0.02,1.51,0.18,2.99,1.02,4.3
			C108.01,257.56,111.23,258.68,114.17,257.83z"/>
		<path class="st21" d="M179.81,316.9c0-6.53-0.02-13.07,0.07-19.6c0.01-0.69-0.28-0.94-0.94-0.9c-1.11,0.06-2.22,0.14-3.33,0.14
			c-11.02-0.04-22.04-0.09-33.06-0.14c-1.38-0.01-1.41,0.03-1.41,1.4c0.01,3.68,0.09,7.36,0.04,11.04
			c-0.12,10.15-0.06,20.3-0.06,30.46c0,0.24,0.01,0.49,0,0.73c-0.01,0.47,0.18,0.66,0.69,0.66c6.15-0.02,12.31-0.01,18.46-0.01
			c0-0.02,0-0.05,0-0.07c6.08,0,12.17,0,18.25,0c0.69,0,1.35,0.02,1.34-0.98c-0.03-2.64,0.11-5.29-0.06-7.92
			C179.49,326.76,179.81,321.83,179.81,316.9z"/>
		<path class="st21" d="M84.49,258.04c2.99-0.75,5.1-3.91,4.84-7.17c-0.06-0.7-0.41-0.87-1.01-0.87c-1.84,0.01-3.68,0-5.52,0.01
			c-1.84,0-3.68,0-5.52,0c-0.49,0-1.05-0.03-1.08,0.67c-0.04,1.21-0.12,2.42,0.42,3.58C78.02,257.26,81.28,258.84,84.49,258.04z"/>
		<path class="st21" d="M77.91,248.11c1.77-0.02,3.54-0.01,5.32-0.01c0,0,0-0.01,0-0.01c1.7,0,3.41-0.04,5.11,0.02
			c0.89,0.03,1.36-0.28,1.77-1.08c2.36-4.61,4.48-9.33,6.67-14.02c1.48-3.18,2.94-6.36,4.43-9.54c0.35-0.75,0.22-1.06-0.67-1.04
			c-2.74,0.04-5.49,0.04-8.24,0.03c-0.59,0-0.96,0.22-1.25,0.73c-4.57,7.99-9.14,15.98-13.74,23.95
			C76.8,248.01,77.11,248.12,77.91,248.11z"/>
		<path class="st21" d="M106.72,248.12c1.88,0.01,3.75,0,5.63,0c0-0.01,0-0.01,0-0.02c1.84,0,3.68-0.04,5.52,0.02
			c0.93,0.03,1.37-0.27,1.55-1.22c0.66-3.55,1.41-7.08,2.08-10.62c0.82-4.37,1.59-8.74,2.39-13.11c0.12-0.66-0.13-0.89-0.78-0.84
			c-2.57,0.22-5.14,0.13-7.71,0.08c-1.17-0.02-1.67,0.42-1.97,1.48c-0.6,2.1-1.29,4.18-1.98,6.26c-1.84,5.61-3.7,11.2-5.55,16.81
			C105.56,248.01,105.64,248.12,106.72,248.12z"/>
		<path class="st21" d="M142.49,260.05c-1.35,0.14-1.38,0.11-1.38,1.49c0.01,8.9,0.01,17.81,0.02,26.71c0,1.76,0.01,1.77,1.83,1.77
			c5.42,0.02,10.84-0.19,16.27-0.03c6.32,0.18,12.65,0.04,18.98,0.04c1.68,0,1.68-0.01,1.68-1.66c-0.01-9.39-0.02-18.78-0.01-28.17
			c0-0.98-0.24-2.04,0.55-2.89c0.17-0.19,0.02-0.39-0.08-0.57c-0.28-0.47-0.56-0.94-0.89-1.51c-2.78,5.37-10.77,7.43-15.51,0.06
			c-1.51,2.82-3.68,4.51-7.02,4.6c-3.38,0.09-5.49-1.9-7.43-4.3C147.93,258.47,145.5,259.74,142.49,260.05z"/>
		<path class="st21" d="M148.64,250.95c-0.02-0.75-0.24-0.96-0.96-0.95c-1.91,0.03-3.83,0.01-5.74,0.01c0,0,0,0.01,0,0.01
			c-0.77,0-1.53,0-2.3,0c-0.8,0-1.6-0.01-2.4-0.01c-2.06,0-2.06,0-1.99,2.01c0.09,2.82,2.02,5.22,4.74,5.89
			C144.56,259.05,148.8,256.07,148.64,250.95z"/>
		<path class="st21" d="M159.51,226.91c1.64,6.76,3.28,13.51,4.89,20.27c0.17,0.71,0.52,0.96,1.23,0.95
			c1.91-0.03,3.83-0.01,5.74-0.01c0-0.01,0-0.01,0-0.02c1.91,0,3.83,0.01,5.74,0c1.12-0.01,1.17-0.09,0.78-1.13
			c-1.29-3.42-2.6-6.82-3.86-10.25c-1.6-4.34-3.15-8.69-4.72-13.04c-0.24-0.66-0.45-1.27-1.39-1.26c-2.92,0.04-5.84,0.02-8.77-0.01
			c-0.61-0.01-0.71,0.2-0.57,0.74C158.92,224.41,159.21,225.66,159.51,226.91z"/>
		<path class="st21" d="M136.19,248.13c1.87-0.05,3.75-0.01,5.63-0.01c0,0,0-0.01,0-0.01c1.98,0,3.96-0.02,5.94,0.01
			c0.77,0.01,1-0.23,0.93-1.05c-0.46-4.98-1.04-9.94-1.4-14.93c-0.22-2.98-0.61-5.94-0.92-8.91c-0.06-0.6-0.25-0.97-0.95-0.95
			c-2.84,0.08-5.69,0.3-8.53,0.03c-0.58-0.06-0.79,0.28-0.8,0.83c-0.04,1.21-0.14,2.43-0.17,3.64c-0.05,1.98-0.03,3.96-0.12,5.94
			c-0.21,4.75-0.47,9.5-0.73,14.25C135.02,247.83,135.32,248.16,136.19,248.13z"/>
		<path d="M191.88,241.26c-3.35-6.49-6.98-12.83-10.12-19.42c-0.38-0.79-0.92-1.24-1.83-1.34c-0.9-0.1-1.8-0.13-2.71-0.13
			c-14.02,0-28.03,0-42.05,0c-14.43,0-28.87,0.01-43.3-0.02c-1.21,0-2.02,0.39-2.6,1.49c-4.16,7.87-8.79,15.48-13.19,23.21
			c-1.23,2.16-2.26,4.19-2.02,6.8c0.31,3.52,2.73,6.9,6,7.74c0.92,0.24,1.12,0.68,1.11,1.53c-0.03,3.72-0.02,7.44-0.02,11.16
			c0,24.69,0,49.39,0,74.08c0,1.99,0.41,2.39,2.39,2.41c7.2,0.07,14.39-0.1,21.59,0.14c3.96,0.13,7.92-0.12,11.88,0
			c7.82,0.23,15.64-0.12,23.46-0.04c15.16,0.16,30.33,0.05,45.49,0.05c2.56,0,3.13-0.58,3.13-3.13c0.01-12.56,0.02-25.11,0.02-37.67
			c0-15.76,0-31.51-0.03-47.27c0-0.92,0.22-1.44,1.16-1.77c2.02-0.7,3.56-2.04,4.52-3.96c1.21-2.43,1.62-5,0.5-7.53
			C194.3,245.42,192.98,243.39,191.88,241.26z M176.87,250.03c1.46,0.01,1.39,0.02,1.4,1.45c0.02,2.72-1.27,4.59-3.55,5.92
			c-3.55,2.08-8.57-0.16-9.37-4.19c-0.64-3.2-0.64-3.2,2.56-3.2c1.28,0,2.57,0,3.85,0c0,0,0,0.01,0,0.01
			C173.47,250.03,175.17,250.02,176.87,250.03z M159.16,222.42c2.92,0.03,5.84,0.05,8.77,0.01c0.95-0.01,1.15,0.6,1.39,1.26
			c1.57,4.35,3.13,8.7,4.72,13.04c1.26,3.43,2.57,6.83,3.86,10.25c0.39,1.04,0.34,1.12-0.78,1.13c-1.91,0.01-3.83,0-5.74,0
			c0,0.01,0,0.01,0,0.02c-1.91,0-3.83-0.02-5.74,0.01c-0.71,0.01-1.06-0.24-1.23-0.95c-1.62-6.76-3.26-13.52-4.89-20.27
			c-0.3-1.25-0.59-2.5-0.92-3.75C158.45,222.62,158.55,222.42,159.16,222.42z M156.93,259.89c3.34-0.09,5.51-1.78,7.02-4.6
			c4.75,7.37,12.74,5.31,15.51-0.06c0.33,0.56,0.61,1.04,0.89,1.51c0.11,0.18,0.26,0.38,0.08,0.57c-0.78,0.85-0.55,1.91-0.55,2.89
			c-0.01,9.39,0,18.78,0.01,28.17c0,1.66,0,1.66-1.68,1.66c-6.33,0-12.66,0.14-18.98-0.04c-5.43-0.16-10.85,0.06-16.27,0.03
			c-1.82-0.01-1.83-0.02-1.83-1.77c-0.01-8.9-0.02-17.81-0.02-26.71c0-1.38,0.03-1.35,1.38-1.49c3.01-0.31,5.44-1.57,7.01-4.46
			C151.44,257.99,153.55,259.98,156.93,259.89z M140,257.92c-2.72-0.67-4.65-3.07-4.74-5.89c-0.07-2.02-0.07-2.02,1.99-2.01
			c0.8,0,1.6,0.01,2.4,0.01c0.77,0,1.53,0,2.3,0c0,0,0-0.01,0-0.01c1.91,0,3.83,0.02,5.74-0.01c0.71-0.01,0.93,0.2,0.96,0.95
			C148.8,256.07,144.56,259.05,140,257.92z M135.79,232.73c0.09-1.98,0.07-3.96,0.12-5.94c0.03-1.21,0.13-2.43,0.17-3.64
			c0.02-0.55,0.22-0.88,0.8-0.83c2.85,0.27,5.69,0.04,8.53-0.03c0.7-0.02,0.89,0.35,0.95,0.95c0.3,2.97,0.7,5.93,0.92,8.91
			c0.36,4.99,0.94,9.95,1.4,14.93c0.08,0.81-0.15,1.06-0.93,1.05c-1.98-0.03-3.96-0.01-5.94-0.01c0,0,0,0.01,0,0.01
			c-1.88,0-3.75-0.03-5.63,0.01c-0.88,0.02-1.17-0.31-1.13-1.16C135.33,242.22,135.58,237.48,135.79,232.73z M105.91,246.96
			c1.84-5.6,3.7-11.2,5.55-16.81c0.68-2.08,1.37-4.16,1.98-6.26c0.3-1.06,0.8-1.5,1.97-1.48c2.57,0.05,5.14,0.14,7.71-0.08
			c0.65-0.06,0.9,0.17,0.78,0.84c-0.8,4.37-1.57,8.75-2.39,13.11c-0.67,3.55-1.42,7.08-2.08,10.62c-0.18,0.95-0.61,1.25-1.55,1.22
			c-1.84-0.06-3.68-0.02-5.52-0.02c0,0.01,0,0.01,0,0.02c-1.88,0-3.75,0.01-5.63,0C105.64,248.12,105.56,248.01,105.91,246.96z
			 M106.4,250.04c1.91,0.01,3.82,0,5.74,0c0-0.01,0-0.01,0-0.02c1.84,0,3.69,0.02,5.53-0.01c0.81-0.02,1.09,0.29,1.09,1.1
			c0.01,3.33-1.71,5.88-4.59,6.71c-2.94,0.85-6.16-0.27-7.72-2.72c-0.84-1.31-1-2.79-1.02-4.3
			C105.42,250.11,105.86,250.04,106.4,250.04z M77.3,247.14c4.6-7.97,9.17-15.96,13.74-23.95c0.3-0.52,0.67-0.74,1.25-0.73
			c2.75,0.01,5.49,0.01,8.24-0.03c0.89-0.01,1.02,0.3,0.67,1.04c-1.49,3.18-2.95,6.36-4.43,9.54c-2.18,4.69-4.31,9.41-6.67,14.02
			c-0.41,0.8-0.88,1.11-1.77,1.08c-1.7-0.06-3.4-0.02-5.11-0.02c0,0,0,0.01,0,0.01c-1.77,0-3.54-0.02-5.32,0.01
			C77.11,248.12,76.8,248.01,77.3,247.14z M76.62,254.25c-0.54-1.16-0.47-2.37-0.42-3.58c0.03-0.7,0.59-0.67,1.08-0.67
			c1.84-0.01,3.68,0,5.52,0c1.84,0,3.68,0,5.52-0.01c0.61,0,0.96,0.17,1.01,0.87c0.26,3.26-1.86,6.42-4.84,7.17
			C81.28,258.84,78.02,257.26,76.62,254.25z M187.17,291.47c0,11.47,0.01,22.95-0.01,34.42c-0.01,6.46-0.09,12.93-0.13,19.39
			c-0.01,1.46-0.07,1.54-1.53,1.54c-13.08,0.01-26.16,0.01-39.24,0.01c-2.85,0-5.7,0.02-8.56,0.03c-1.37,0-1.41-0.04-1.41-1.4
			c0-25.39-0.01-50.79-0.02-76.18c0-1.32-0.11-2.64-0.14-3.96c-0.01-0.74-0.37-1.09-1.08-1.11c-0.49-0.01-0.97-0.02-1.46-0.02
			c-14.33,0.01-28.66,0.01-43,0.02c-1.68,0-1.91,0.24-1.91,1.95c-0.01,13.88,0.04,27.76-0.05,41.64c-0.03,4.28-0.23,8.56-0.11,12.83
			c0.18,6.64,0.1,13.28,0.13,19.93c0.01,1.52,0.25,1.77,1.76,1.77c12,0,24-0.01,36-0.02c0.14,0,0.28,0,0.42-0.01
			c0.46-0.02,0.84-0.16,0.88-0.69c0.04-0.6-0.37-0.78-0.87-0.8c-1.7-0.05-3.41-0.11-5.11-0.12c-8.66-0.03-17.31-0.06-25.97-0.07
			c-1.49,0-2.99,0.08-4.48,0.15c-0.82,0.04-1.06-0.3-1.04-1.12c0.21-6.74,0.15-13.49,0.02-20.24c-0.02-0.9,0.08-1.81,0.08-2.71
			c0.02-16.31,0.02-32.63,0.03-48.94c0-1.85,0-1.84,1.89-1.84c13.5,0,26.99-0.01,40.49-0.02c1.63,0,1.59,0,1.67,1.57
			c0.35,7.75,0.18,15.51,0.1,23.26c-0.04,4.38-0.09,8.76-0.1,13.14c-0.02,12.93-0.01,25.87-0.01,38.8c0,0.94,0.06,1.88,0.13,2.81
			c0.09,1.24-0.02,1.38-1.28,1.38c-9.74,0-19.48,0-29.22,0c-6.47,0-12.94,0-19.41,0.01c-1.55,0-1.56,0-1.56-1.57
			c0-24.84,0.01-49.67,0.01-74.51c0-3.13,0.01-6.26-0.04-9.39c-0.01-0.9,0.25-1.28,1.21-1.39c2.65-0.31,4.4-2.03,5.92-4.15
			c4.52,5.96,11.14,4.89,14.21-0.63c1.71,2.9,4.08,4.77,7.53,4.82c3.42,0.05,5.99-1.51,7.78-4.33c0.28-0.05,0.35,0.13,0.44,0.27
			c3.16,5.09,10.2,5.22,13.51,0.23c0.42-0.63,0.63-0.74,1.01-0.01c0.85,1.62,2.27,2.62,3.88,3.34c0.66,0.29,0.89,0.7,0.85,1.36
			c-0.01,0.17,0.01,0.35,0.01,0.52c0.1,9.15,0.26,18.29,0.16,27.44c0,0.38,0,0.77,0.01,1.15c0.04,1.16,0.36,1.5,1.5,1.53
			c1.04,0.03,2.09,0.01,3.13,0.01c11.58,0,23.17,0,34.75,0c2.56,0,2.63-0.08,2.62-2.63c-0.02-10.16-0.03-20.31-0.04-30.47
			c0-0.1,0.04-0.2,0.08-0.43c1.2,0.61,2.36,1.24,3.66,1.49c1.64,0.31,1.64,0.33,1.73,1.94c0.17,3.12-0.09,6.25,0.05,9.38
			c0.15,3.12,0.17,6.26,0.05,9.38C187,283.97,187.17,287.71,187.17,291.47z"/>
		<path d="M0.15,101.55c0,3.03,0,6.05-0.01,9.08c0,2.16,0.9,3.83,2.73,4.97c1.13,0.71,2.39,0.85,3.71,0.85
			c29.36-0.01,58.71-0.01,88.07-0.01c0-0.01,0-0.01,0-0.02c12,0,24,0,36,0c17.56,0.01,35.13,0.02,52.69,0.03
			c1.03,0,1.99-0.15,2.88-0.72c2.06-1.33,3.1-3.13,3.1-5.64c-0.02-25.7,0-51.41,0-77.11c0-9.08,0-18.16,0.01-27.23
			c0-1.58-0.53-2.89-1.65-4.02c-1.34-1.36-2.97-1.61-4.78-1.61c-56,0.02-112,0.01-168,0.04c-3.3,0-6.6-0.3-9.9-0.03
			C2.21,0.34,0.3,2.41,0.13,5.25c-0.16,2.61-0.01,5.21-0.01,7.82C0.15,42.56,0.14,72.05,0.15,101.55z M24.52,5.04
			c1.08,0.08,2.01,1.18,1.95,2.31c-0.07,1.42-1.08,2.47-2.33,2.41c-1.17-0.05-2.24-1.19-2.17-2.34C22.03,6.14,23.31,4.95,24.52,5.04
			z M16.13,5.18c1.19-0.03,2.21,1.02,2.21,2.28c0,1.33-1.1,2.48-2.35,2.44c-1.13-0.04-2.24-1.27-2.23-2.48
			C13.77,6.16,14.77,5.21,16.13,5.18z M7.9,5.04c1.29,0,2.31,1.01,2.32,2.31c0.01,1.27-0.95,2.29-2.19,2.31
			c-1.37,0.02-2.52-1.08-2.5-2.4C5.55,6.13,6.71,5.04,7.9,5.04z M1.95,39.4c0.02-8,0.11-16,0.11-24c0-0.77,0.1-1.2,1.07-1.2
			c20.07,0.01,40.14-0.02,60.21-0.03c10.44-0.01,20.87,0,31.31,0c0-0.01,0-0.02,0-0.03c30.37,0,60.74,0,91.1,0
			c1.66,0,1.66-0.01,1.66,1.66c-0.01,31.1-0.02,62.2,0,93.3c0,1.7-0.23,3.24-1.57,4.45c-0.68,0.61-1.4,0.99-2.34,0.97
			c-2.08-0.05-4.17,0.01-6.26-0.14c-2.22-0.16-4.45,0.09-6.67,0.09c-4.87,0.01-9.74-0.12-14.6-0.12
			c-6.36,0.01-12.72,0.12-19.08,0.13c-13.46,0.02-26.91,0.04-40.37-0.02c-3.34-0.02-6.68-0.22-10.01-0.1
			c-7.86,0.28-15.72,0.1-23.58,0.12c-18.67,0.04-37.35,0.01-56.02,0.01c-0.66,0-1.32,0.01-1.97-0.13c-1.68-0.38-2.73-1.68-2.88-3.39
			c-0.22-2.64,0.03-5.28-0.01-7.92C1.78,81.84,1.91,60.62,1.95,39.4z"/>
		<path d="M178.57,176.18c-0.52-0.72-1.13-1.15-2.03-0.73c-0.6,0.28-0.98,0.05-1.32-0.44c-0.67-0.97-1.35-1.94-2.05-2.89
			c-0.51-0.7-0.52-1.18,0.25-1.8c3.39-2.75,5.48-6.42,6.47-10.59c1.44-6.03,0.69-11.8-2.88-17.05c-4.16-6.12-9.99-9.11-17.29-9.42
			c-4.94-0.08-9.43,1.37-13.32,4.25c-7.32,5.43-10.02,12.88-8.14,21.7c2.77,13,16.9,20.11,28.44,15.26
			c0.66-0.28,1.01-0.14,1.38,0.39c0.81,1.13,1.64,2.25,2.47,3.36c0.39,0.51,0.37,0.93-0.17,1.33c-0.85,0.63-0.79,1.38-0.25,2.19
			c0.72,1.07,1.43,2.14,2.15,3.21c2.51,3.76,4.98,7.54,7.53,11.27c1.16,1.69,2.59,2.99,4.91,2.72c1.69-0.2,3.01-0.98,4.13-2.19
			c1.36-1.47,1.61-3.56,0.64-5.3c-0.66-1.19-1.51-2.25-2.3-3.35C184.33,184.11,181.44,180.15,178.57,176.18z M159.52,170.9
			c-9.03,0.09-16.75-7.03-16.75-16.08c-0.17-10.18,8.41-16.45,16.48-16.46c9.11-0.01,16.26,7.04,16.25,16.02
			C175.5,162.32,169.54,170.8,159.52,170.9z"/>
		<path d="M109.26,154.16c-1.58,0.03-2.04,0.47-2.16,2.03c-0.03,0.45-0.03,0.9-0.03,1.35c0,6.46,0,12.93,0,19.39c0,0-0.01,0-0.01,0
			c0,1.08,0,2.16,0,3.23c0,5.77-0.01,11.54-0.01,17.31c0,1.26,0.46,1.94,1.53,1.96c3.06,0.05,6.12,0.03,9.17,0
			c0.93-0.01,1.46-0.56,1.49-1.53c0.03-0.9,0.13-1.8,0.13-2.71c0.01-12.86,0.01-25.72,0.01-38.58c0-2.01-0.57-2.6-2.62-2.6
			C114.26,154.03,111.76,154.11,109.26,154.16z"/>
		<path d="M126.47,199.46c2.33-0.14,4.65-0.12,6.98-0.13c1.97-0.01,2.41-0.43,2.42-2.37c0.01-4.9,0-9.8,0-14.71
			c0.01,0,0.02,0,0.03,0c0-4.97,0.01-9.94,0-14.91c0-1.46-0.39-1.86-1.86-1.87c-2.75-0.02-5.49-0.02-8.24,0
			c-1.53,0.01-2.06,0.57-2.07,2.1c-0.01,2.43,0.03,4.87,0.02,7.3c-0.03,7.26,0.07,14.53-0.16,21.79
			C123.51,199.04,124.07,199.6,126.47,199.46z"/>
		<path d="M92.43,170.26c-1.69,0.01-2.07,0.39-2.07,2.11c-0.01,4.14,0,8.27,0,12.41c0,0,0,0-0.01,0c0,4.14,0,8.27,0,12.41
			c0,1.78,0.48,2.26,2.3,2.28c2.54,0.02,5.08,0.01,7.61,0c1.88-0.01,2.41-0.52,2.41-2.43c0.01-8.13,0.01-16.27,0.01-24.4
			c0-1.88-0.47-2.36-2.33-2.37C97.71,170.25,95.07,170.25,92.43,170.26z"/>
		<path d="M36,203.66c-5.56,0-11.13,0-16.69,0c0,0,0,0.01,0,0.01c-5.67,0-11.34-0.01-17.01,0c-1.35,0-1.69,0.28-1.69,1.41
			c-0.01,10.89-0.02,21.77-0.01,32.66c0,1.23,0.24,1.43,1.5,1.43c3.65,0.01,7.3,0,10.95,0c7.58,0,15.15,0.03,22.73,0
			c1.97-0.01,2.17-0.29,2.18-2.29c0.03-7.2-0.05-14.39-0.14-21.59c-0.04-3.23,0.1-6.46,0.13-9.7
			C37.98,203.98,37.64,203.66,36,203.66z M36.51,206.51c-0.06,4.86-0.15,9.73-0.17,14.59c-0.01,2.95,0.21,5.91,0.1,8.86
			c-0.08,2.26-0.04,4.51,0.06,6.76c0.04,0.91-0.31,1.21-1.21,1.2c-5.32-0.03-10.64-0.02-15.96-0.02c-5.25,0-10.5,0-15.75,0
			c-1.46,0-1.49-0.02-1.49-1.42c0-10.05,0-20.1,0.01-30.14c0-1.31,0.07-1.39,1.45-1.38c5.32,0.04,10.63,0.2,15.95,0.13
			c5.17-0.07,10.35-0.13,15.52-0.13C36.47,204.96,36.53,205.01,36.51,206.51z"/>
		<path d="M37.96,172.5c0-1.32-0.42-1.81-1.65-1.74c-3.69,0.21-7.36-0.16-11.05-0.09c-2.15,0.04-4.29,0.13-6.45,0.08
			c-5.46-0.15-10.92-0.06-16.38-0.05c-1.46,0-1.84,0.41-1.84,1.89c0,8.03,0.01,16.07,0.02,24.1c0,2.03,0.35,2.34,2.37,2.38
			c6.12,0.11,12.23-0.31,18.35-0.06c4.79,0.2,9.6,0.04,14.4,0.04c1.92,0,2.24-0.32,2.25-2.24c0.01-4,0-8,0-12c0,0-0.01,0-0.01,0
			C37.97,180.71,37.97,176.61,37.96,172.5z M35.14,197.63c-5.32-0.05-10.64-0.02-15.95-0.02c0,0,0,0.01,0,0.01
			c-5.25,0-10.5,0-15.75,0c-1.31,0-1.36-0.05-1.36-1.35c0.01-7.58,0.03-15.16,0.01-22.73c0-1.04,0.33-1.39,1.38-1.39
			c10.6,0.02,21.2,0.02,31.8-0.02c0.99,0,1.24,0.37,1.24,1.29c-0.03,7.61-0.03,15.22,0,22.84C36.52,197.31,36.2,197.63,35.14,197.63
			z"/>
		<path d="M2.56,166.1c5.53,0.01,11.05,0,16.58,0c0,0,0,0,0,0c5.63,0,11.26,0.01,16.89-0.01c1.55,0,1.93-0.39,1.93-1.91
			c0.01-8.06,0.01-16.13,0-24.19c0-1.73-0.33-2.06-2.1-2.06c-11.05,0-22.11,0-33.16,0c-1.59,0-2.09,0.46-2.09,2.03
			c-0.01,8.06-0.02,16.13,0,24.19C0.62,165.83,0.9,166.1,2.56,166.1z M2.08,140.42c0-0.96,0.5-1.05,1.26-1.05
			c5.32,0.02,10.64,0.01,15.96,0.01c0,0.01,0,0.02,0,0.04c5.29,0,10.57,0,15.86,0c1.33,0,1.36,0.04,1.36,1.34
			c0,7.51-0.01,15.03-0.01,22.54c0,1.48-0.07,1.6-1.52,1.53c-4.9-0.22-9.8-0.24-14.7-0.14c-4.3,0.09-8.6-0.04-12.9-0.02
			c-1.42,0.01-2.85,0.09-4.27,0.17c-0.76,0.04-1.05-0.29-1.05-1.05C2.09,156,2.1,148.21,2.08,140.42z"/>
		<path d="M0.61,272.81c0.01,1.63,0.44,2.08,2.06,2.02c4.58-0.17,9.17-0.09,13.75-0.03c4.69,0.06,9.38-0.28,14.08-0.05
			c1.91,0.09,3.82,0.2,5.73-0.06c1.31-0.18,1.55-0.43,1.57-1.73c0.06-5.49,0.13-10.99,0.16-16.48c0.01-1.18-0.21-2.37-0.11-3.54
			c0.19-2.33,0.09-4.66,0.12-6.99c0.02-1.6-0.23-1.83-1.79-1.83c-11.27,0-22.53,0-33.8,0.01c-1.55,0-1.75,0.2-1.76,1.75
			c-0.01,4.45,0,8.91,0,13.36c0,0,0,0-0.01,0C0.6,263.76,0.59,268.28,0.61,272.81z M3.43,245.4c5.29,0.04,10.57,0.02,15.86,0.02
			c5.29,0,10.57,0.02,15.86-0.02c1.03-0.01,1.4,0.28,1.39,1.36c-0.04,8.38-0.02,16.76-0.03,25.14c0,1.4-0.06,1.47-1.48,1.47
			c-10.54,0.01-21.07,0.02-31.61,0.02c-1.29,0-1.35-0.06-1.35-1.36c0-8.41,0.02-16.83-0.02-25.24
			C2.04,245.72,2.38,245.39,3.43,245.4z"/>
		<path d="M76.75,137.94c-10.75,0.06-21.49-0.2-32.24,0.15c-1.53,0.05-1.72,0.23-1.72,1.78c0,8.04-0.01,16.07-0.01,24.11
			c0,1.86,0.26,2.13,2.09,2.13c5.5,0,10.99,0,16.49,0c0,0,0-0.01,0-0.01c5.57,0,11.13,0,16.7,0c1.61,0,1.88-0.24,1.86-1.88
			c-0.02-2.26-0.16-4.52-0.15-6.77c0.02-5.42,0.11-10.85,0.15-16.27C79.94,138.2,79.68,137.93,76.75,137.94z M77.73,164.82
			c-2.12-0.05-4.24,0.02-6.36-0.09c-2.28-0.12-4.58-0.07-6.86-0.07c-5.6-0.01-11.19-0.01-16.79,0.01c-0.83,0-1.66,0.08-2.49,0.16
			c-0.85,0.08-1.22-0.27-1.16-1.14c0.35-5.24,0.1-10.49,0.15-15.74c0.03-2.57-0.03-5.14-0.08-7.71c-0.01-0.53,0.18-0.79,0.7-0.8
			c0.66-0.01,1.32-0.02,1.98-0.02c4.83,0,9.66,0,14.49,0c0-0.01,0-0.01,0-0.02c5.25,0,10.5,0,15.75,0c1.37,0,1.4,0.03,1.41,1.4
			c0.02,7.72,0.03,15.43,0.07,23.15C78.54,164.59,78.34,164.84,77.73,164.82z"/>
		<path d="M78.34,170.71c-0.24,0-0.49,0-0.73,0c-11.06,0.02-22.11-0.06-33.17,0.16c-1.34,0.03-1.65,0.29-1.65,1.67
			c-0.01,8.21,0,16.41,0.01,24.62c0,1.44,0.55,1.97,2,1.88c1.28-0.08,2.57-0.15,3.85-0.16c6.29-0.01,12.58,0.17,18.87,0.02
			c3.58-0.08,7.16-0.01,10.75-0.02c1.16,0,1.55-0.4,1.55-1.46c0-4.21,0-8.41,0-12.62c-0.02,0-0.04,0-0.06,0
			c0-4.21-0.01-8.42,0.01-12.62C79.77,171.17,79.33,170.7,78.34,170.71z M76.95,197.62c-5.22,0-10.43,0-15.65,0c0,0,0-0.01,0-0.01
			c-5.22,0-10.43,0-15.65,0c-1.43,0-1.43,0-1.43-1.39c0.01-7.51,0.01-15.01,0.02-22.52c0-1.55,0-1.56,1.57-1.56
			c10.36,0,20.73,0,31.09,0c1.57,0,1.58,0,1.58,1.55c0.01,7.48,0.01,14.96,0.01,22.43C78.49,197.6,78.46,197.62,76.95,197.62z"/>
		<path d="M79.75,204.33c0.01-0.89-0.91-0.66-1.49-0.67c-5.6-0.02-11.2-0.01-16.8-0.01c0,0,0,0,0,0c-1.63,0-3.27,0-4.9,0
			c-4.03,0-8.07,0-12.1,0.01c-1.22,0-1.61,0.4-1.68,1.62c-0.01,0.28-0.01,0.56-0.01,0.83c0,10.29,0,20.59,0,30.88
			c0,1.88,0.29,2.15,2.18,2.19c2.26,0.04,4.51-0.01,6.78,0.1c3.33,0.17,6.67,0.13,10-0.12c0.4-0.03,0.8-0.12,0.82-0.62
			c0.02-0.51-0.38-0.61-0.78-0.65c-0.31-0.02-0.63-0.01-0.94-0.01c-5.15,0.01-10.29,0.02-15.44,0.02c-1.28,0-1.45-0.16-1.29-1.47
			c0.12-0.97,0.13-1.94,0.13-2.91c-0.07-9.04,0.17-18.08-0.15-27.11c-0.05-1.47,0-1.49,1.42-1.46c1.98,0.04,3.96,0.17,5.94,0.16
			c4.58-0.02,9.17-0.08,13.75-0.01c4.34,0.06,8.68-0.08,13.01-0.12C78.83,204.97,79.74,205.33,79.75,204.33z"/>
		<path d="M58.69,244.17c-0.31-0.03-0.62-0.04-0.94-0.04c-4.28,0-8.56,0-12.83,0c-1.83,0-2.13,0.3-2.13,2.12c0,4.42,0,8.83,0,13.25
			c0,0,0,0-0.01,0c0,4.49,0,8.97,0,13.46c0,0.28-0.01,0.56,0.03,0.83c0.06,0.41,0.25,0.77,0.71,0.77c0.55,0,0.52-0.46,0.54-0.84
			c0.06-2.01,0.16-4.03,0.16-6.04c0.02-6.89,0.01-13.77,0.01-20.66c0-1.59,0-1.6,1.64-1.6c3.93-0.01,7.86-0.01,11.79-0.02
			c0.35,0,0.7-0.01,1.04-0.05c0.36-0.05,0.55-0.29,0.53-0.66C59.22,244.37,59,244.2,58.69,244.17z"/>
		<path d="M179.6,294.85c-12.73,0-25.45,0-38.18,0.01c-1.77,0-1.83,0.08-1.83,1.81c0,7.23,0,14.46,0,21.7c0,7.27,0,14.53,0,21.8
			c0,1.91,0.23,2.13,2.18,2.13c4.28,0,8.55,0,12.83,0c8.38,0,16.76,0.01,25.14,0.01c1.37,0,1.72-0.34,1.82-1.7
			c0.02-0.24,0.01-0.49,0.01-0.73c0-14.36,0-28.72-0.01-43.08C181.57,295,181.41,294.85,179.6,294.85z M179.87,339.62
			c0.01,1-0.65,0.98-1.34,0.98c-6.08,0-12.17,0-18.25,0c0,0.02,0,0.05,0,0.07c-6.15,0-12.31-0.01-18.46,0.01
			c-0.51,0-0.7-0.19-0.69-0.66c0-0.24,0-0.49,0-0.73c0.01-10.15-0.06-20.3,0.06-30.46c0.04-3.68-0.04-7.36-0.04-11.04
			c0-1.36,0.03-1.4,1.41-1.4c11.02,0.05,22.04,0.1,33.06,0.14c1.11,0,2.22-0.08,3.33-0.14c0.66-0.04,0.94,0.22,0.94,0.9
			c-0.08,6.53-0.06,13.07-0.07,19.6c0,4.93-0.32,9.86-0.01,14.79C179.97,334.33,179.84,336.98,179.87,339.62z"/>
		<path d="M11.07,85.6c15.96-0.01,31.93,0,47.89,0c11.93,0,23.85,0,35.78-0.01c2.03,0,2.12-0.11,2.12-2.12c0-20,0.01-40,0.01-60
			c0-1.59,0.01-1.59,1.63-1.59c26.47,0,52.94,0,79.41,0c1.77,0,1.78,0,1.78,1.75c0,27.34,0,54.68-0.01,82.02
			c0,1.35-0.04,1.39-1.42,1.39c-20.28,0-40.55,0.01-60.83,0.01c-4.17,0-8.35,0-12.52,0c-1.79,0-1.79,0-1.79-1.75
			c0-16.56,0-33.11-0.01-49.67c0-0.6,0.28-1.55-0.72-1.54c-0.96,0.01-0.73,0.95-0.73,1.56c-0.02,17.04-0.02,34.09-0.02,51.13
			c0,1.79,0.21,2.01,1.98,1.98c7.58-0.15,15.16,0.09,22.74,0.04c17.57-0.1,35.13-0.03,52.7-0.03c1.89,0,2.32-0.38,2.32-2.1
			c0.01-28.28,0.02-56.56,0.02-84.84c0-1.55-0.12-1.65-1.67-1.65c-28.31,0-56.63,0-84.94,0c0,0,0,0,0,0.01c-28.28,0-56.56,0-84.84,0
			c-1.7,0-1.81,0.11-1.81,1.74c0,20.24-0.01,40.49-0.01,60.73C8.12,86.02,7.89,85.6,11.07,85.6z M9.82,23.36
			c0-1.47,0.02-1.49,1.42-1.49c23.58,0.01,47.16-0.01,70.74,0.06c4.03,0.01,8.06-0.13,12.09-0.05c0.99,0.02,1.31,0.32,1.31,1.32
			c-0.04,11.16-0.03,22.33-0.04,33.49c0,6.5,0.01,13-0.01,19.5c-0.01,2.19-0.14,4.38-0.11,6.56c0.01,1.08-0.39,1.35-1.41,1.35
			c-9.36-0.04-18.71-0.03-28.07-0.04c-4.45,0-8.9,0-13.35,0c0,0.01,0,0.02,0,0.02c-13.67,0-27.34,0-41,0c-1.56,0-1.57,0-1.57-1.56
			C9.81,62.8,9.81,43.08,9.82,23.36z"/>
		<path d="M94.68,89.92c-4.21,0.01-8.41,0.02-12.62,0.14c-5.45,0.15-10.91-0.18-16.37-0.01c-4.47,0.14-8.96-0.11-13.44-0.11
			c-5.91,0.01-11.82-0.04-17.73,0.1c-5.35,0.13-10.71,0.08-16.06-0.09c-2.85-0.09-5.7-0.12-8.55,0.08c-1.49,0.1-1.76,0.27-1.76,1.77
			c-0.01,5.04-0.01,10.09,0,15.13c0,1.43,0.37,1.72,1.79,1.83c3.06,0.22,6.11,0.02,9.17,0.01c12.42-0.04,24.84-0.02,37.26-0.02
			c0-0.01,0-0.03,0-0.04c12.8,0,25.6,0,38.41,0c1.79,0,2.07-0.27,2.07-2.05c0.01-4.87,0-9.74-0.01-14.61
			C96.83,90.26,96.47,89.91,94.68,89.92z M94.04,107.07c-27.13-0.03-54.26-0.02-81.39-0.02c-0.35,0-0.7,0-1.04,0.02
			c-1.79,0.12-1.8,0.12-1.8-1.73c0-4.07,0-8.14-0.01-12.21c0-1.74,0-1.74,1.69-1.74c13.67,0,27.34,0,41.01,0c0,0,0,0,0-0.01
			c13.67,0,27.34,0,41.01,0c1.67,0,1.67,0,1.67,1.67c0,4.28-0.03,8.56,0.01,12.83C95.2,106.76,95.01,107.07,94.04,107.07z"/>
		<path d="M173.33,45.85c0.48-0.05,0.93-0.22,0.91-0.8c-0.02-0.55-0.48-0.61-0.92-0.63c-0.28-0.01-0.56-0.02-0.83-0.01
			c-4.17,0.06-8.34-0.13-12.51-0.07c-4.2,0.06-8.4-0.03-12.61-0.08c-6.22-0.07-12.45-0.05-18.67,0.05
			c-4.69,0.08-9.39-0.09-14.08-0.1c-3.48,0-6.96-0.01-10.44,0.01c-0.63,0-1.55-0.14-1.57,0.75c-0.03,1,0.94,0.72,1.54,0.72
			c22.64,0.04,45.29-0.11,67.93,0.18C172.5,45.88,172.92,45.89,173.33,45.85z"/>
		<path d="M157.66,49.65c-17.07-0.01-34.14-0.01-51.21,0c-0.83,0-1.66,0.09-2.49,0.15c-0.45,0.03-0.99,0.04-0.99,0.66
			c0,0.63,0.54,0.61,1,0.65c0.17,0.01,0.35,0,0.52,0c9.11,0,18.22,0,27.33,0c0,0,0-0.01,0-0.01c9,0,18.01,0,27.01,0
			c0.35,0,0.7,0,1.04-0.01c0.45-0.02,0.87-0.15,0.89-0.68c0.02-0.52-0.42-0.6-0.8-0.63C159.19,49.7,158.42,49.65,157.66,49.65z"/>
		<path d="M153.2,166.04c-1.98-1.21-3.65-2.73-4.91-4.72c-1.85-2.92-2.11-6.1-1.7-9.42c0.05-0.41,0.2-0.9-0.4-1
			c-0.49-0.08-0.79,0.28-0.88,0.72c-0.2,0.98-0.48,1.96-0.45,3.23c0.08,1.28,0.28,2.78,0.79,4.24c1.26,3.6,3.52,6.34,6.96,8.06
			c0.44,0.22,1,0.45,1.28-0.13C154.15,166.46,153.57,166.27,153.2,166.04z"/>
		<path d="M172.9,151.72c-0.02-0.31-0.09-0.62-0.15-0.92c-0.47-2.32-1.61-4.28-3.21-5.97c-2.09-2.22-4.67-3.55-7.65-3.99
			c-0.44,0.04-0.99-0.14-1.08,0.44c-0.09,0.58,0.49,0.59,0.86,0.69c5.31,1.35,8.61,4.66,9.81,10.03c0.1,0.45,0.2,0.97,0.81,0.88
			C172.91,152.77,172.92,152.22,172.9,151.72z"/>
		<path d="M50.58,311.96c-0.04-0.01-0.08-0.01-0.12-0.01c-0.16,0-0.31,0.06-0.42,0.17l-1.45,1.45c-0.43,0.43-0.97,0.74-1.55,0.88
			c-0.16,0.04-0.3,0.14-0.38,0.29c-0.08,0.15-0.09,0.32-0.04,0.47c0.75,2.19,1.13,4.49,1.13,6.84c-0.01,11.74-9.57,21.3-21.31,21.31
			c-11.75,0-21.31-9.56-21.31-21.31c0.01-11.75,9.59-21.3,21.35-21.3c2.33,0,4.62,0.38,6.81,1.12c0.06,0.02,0.13,0.03,0.19,0.03
			c0.1,0,0.2-0.02,0.28-0.07c0.15-0.08,0.25-0.22,0.29-0.38c0.15-0.59,0.45-1.13,0.87-1.55l1.46-1.46c0.14-0.14,0.2-0.34,0.16-0.54
			c-0.04-0.19-0.18-0.36-0.36-0.43c-3.07-1.21-6.42-1.86-9.7-1.86c0,0-0.12,0-0.12,0C11.83,295.68,0.01,307.54,0,322.06
			c0.01,14.57,11.87,26.43,26.44,26.44h0c0,0,0,0,0,0c7.06-0.01,13.7-2.77,18.69-7.77c4.99-5,7.73-11.65,7.73-18.71
			c0-3.28-0.64-6.63-1.85-9.69C50.93,312.14,50.77,312,50.58,311.96z"/>
		<path d="M43.5,296.07c-0.07-0.03-0.15-0.04-0.23-0.04c-0.15,0-0.3,0.06-0.42,0.17l-5.74,5.74c-0.11,0.11-0.17,0.26-0.17,0.42v5.82
			c0,0.16-0.06,0.31-0.17,0.42l-2.26,2.26c-1.82-1.31-3.96-2.2-6.29-2.5c-0.04-0.01-0.09-0.01-0.13-0.02
			c-0.14-0.02-0.28-0.03-0.42-0.04c-0.1-0.01-0.2-0.02-0.3-0.02c-0.1-0.01-0.2-0.01-0.3-0.02c-0.21-0.01-0.42-0.02-0.63-0.02
			c0,0,0,0,0,0s0,0,0,0c-0.21,0-0.42,0.01-0.63,0.02c-0.1,0-0.2,0.01-0.3,0.02c-0.1,0.01-0.2,0.01-0.3,0.02
			c-0.14,0.01-0.28,0.03-0.42,0.04c-0.04,0.01-0.09,0.01-0.13,0.02c-6.02,0.78-10.83,5.44-11.84,11.38c0,0.02-0.01,0.04-0.01,0.06
			c-0.02,0.14-0.04,0.28-0.06,0.42c-0.01,0.08-0.02,0.17-0.03,0.25c-0.01,0.11-0.02,0.22-0.03,0.33c-0.01,0.12-0.02,0.25-0.03,0.37
			c-0.01,0.08-0.01,0.17-0.02,0.25c-0.01,0.21-0.02,0.43-0.02,0.64c0,7.53,6.06,13.67,13.57,13.82c0.08,0,0.17,0.01,0.25,0.01
			c0,0,0,0,0,0c0,0,0,0,0,0c0,0,0,0,0,0c0,0,0,0,0,0c0.08,0,0.17-0.01,0.25-0.01c7.5-0.14,13.57-6.28,13.57-13.82
			c0-0.22-0.01-0.43-0.02-0.64c0-0.08-0.01-0.17-0.02-0.25c-0.01-0.12-0.02-0.25-0.03-0.37c-0.01-0.11-0.02-0.22-0.03-0.33
			c-0.01-0.08-0.02-0.17-0.03-0.25c-0.02-0.14-0.04-0.28-0.06-0.42c0-0.02-0.01-0.04-0.01-0.06c-0.36-2.11-1.21-4.06-2.42-5.73
			l2.26-2.26c0.11-0.11,0.26-0.17,0.42-0.17h5.82c0.16,0,0.31-0.06,0.42-0.17l5.74-5.74c0.17-0.17,0.22-0.42,0.13-0.64
			c-0.09-0.22-0.31-0.36-0.55-0.36h-3.45c-0.24,0-0.45-0.14-0.55-0.36c-0.09-0.22-0.04-0.47,0.13-0.64l0.72-0.72
			c0.86-0.86,0.86-2.27,0.01-3.14c-0.42-0.42-0.97-0.64-1.57-0.64c-0.6,0-1.16,0.23-1.57,0.64l-0.72,0.72
			c-0.11,0.11-0.26,0.17-0.42,0.17c-0.08,0-0.15-0.02-0.23-0.05c-0.22-0.09-0.36-0.31-0.36-0.55v-3.45
			C43.86,296.38,43.72,296.16,43.5,296.07z M35.12,322.13c0,0.1,0,0.2-0.01,0.3c0,0.04,0,0.08-0.01,0.12
			c-0.01,0.11-0.01,0.21-0.03,0.32c0,0.03-0.01,0.07-0.01,0.1c-0.01,0.12-0.03,0.23-0.05,0.35c0,0.02-0.01,0.04-0.01,0.07
			c-0.04,0.28-0.1,0.56-0.17,0.83c-0.01,0.02-0.01,0.04-0.02,0.06c-0.03,0.11-0.06,0.23-0.1,0.34c-0.01,0.03-0.02,0.06-0.03,0.09
			c-0.03,0.1-0.07,0.21-0.11,0.31c-0.01,0.03-0.02,0.05-0.03,0.08c-0.04,0.11-0.08,0.21-0.13,0.32c-0.01,0.02-0.02,0.04-0.02,0.05
			c-0.05,0.12-0.1,0.23-0.16,0.35c0,0,0,0.01-0.01,0.01c-0.98,2.02-2.72,3.61-4.84,4.39c0,0,0,0-0.01,0
			c-0.12,0.04-0.23,0.08-0.35,0.12c-0.04,0.01-0.08,0.02-0.12,0.04c-0.08,0.03-0.17,0.05-0.25,0.07c-0.07,0.02-0.14,0.04-0.21,0.05
			c-0.06,0.02-0.12,0.03-0.19,0.04c-0.08,0.02-0.17,0.04-0.25,0.05c-0.04,0.01-0.09,0.02-0.13,0.02c-0.23,0.04-0.45,0.07-0.68,0.09
			c-0.03,0-0.05,0-0.08,0.01c-0.23,0.02-0.47,0.03-0.7,0.03c-0.01,0-0.01,0-0.02,0s-0.01,0-0.02,0c-0.23,0-0.47-0.01-0.7-0.03
			c-0.03,0-0.05,0-0.08-0.01c-0.23-0.02-0.46-0.05-0.68-0.09c-0.04-0.01-0.09-0.02-0.13-0.02c-0.09-0.02-0.17-0.03-0.25-0.05
			c-0.06-0.01-0.12-0.03-0.19-0.04c-0.07-0.02-0.14-0.03-0.21-0.05c-0.08-0.02-0.17-0.05-0.25-0.07c-0.04-0.01-0.08-0.02-0.12-0.04
			c-0.12-0.04-0.23-0.08-0.35-0.12c0,0,0,0-0.01,0c-2.12-0.78-3.86-2.37-4.84-4.39c0,0,0-0.01-0.01-0.01
			c-0.06-0.11-0.11-0.23-0.16-0.35c-0.01-0.02-0.01-0.03-0.02-0.05c-0.04-0.11-0.09-0.21-0.13-0.32c-0.01-0.03-0.02-0.05-0.03-0.08
			c-0.04-0.1-0.07-0.21-0.11-0.31c-0.01-0.03-0.02-0.06-0.03-0.09c-0.03-0.11-0.07-0.22-0.1-0.34c-0.01-0.02-0.01-0.04-0.02-0.06
			c-0.07-0.27-0.13-0.55-0.17-0.83c0-0.02-0.01-0.04-0.01-0.07c-0.02-0.12-0.03-0.23-0.05-0.35c0-0.03-0.01-0.07-0.01-0.1
			c-0.01-0.11-0.02-0.21-0.02-0.32c0-0.04,0-0.08-0.01-0.12c0-0.1-0.01-0.2-0.01-0.3c0-0.04,0-0.09,0-0.13c0-0.11,0-0.22,0.01-0.34
			c0-0.02,0-0.05,0-0.07c0.23-4.24,3.53-7.69,7.7-8.17c0,0,0,0,0.01,0c0.14-0.02,0.28-0.03,0.42-0.04c0.03,0,0.06-0.01,0.09-0.01
			c0.14-0.01,0.28-0.01,0.43-0.01c0.01,0,0.03,0,0.04,0s0.03,0,0.04,0c0.14,0,0.28,0,0.43,0.01c0.03,0,0.06,0,0.09,0.01
			c0.14,0.01,0.27,0.02,0.42,0.04c0,0,0,0,0.01,0c1.23,0.14,2.37,0.54,3.39,1.14l-5.93,5.93c-0.86,0.87-0.86,2.28,0,3.14
			c0.41,0.41,0.97,0.64,1.56,0.64c0.6,0,1.16-0.23,1.57-0.65l5.93-5.93c0.68,1.16,1.1,2.48,1.18,3.89c0,0.02,0,0.05,0,0.07
			c0.01,0.11,0.01,0.22,0.01,0.34C35.12,322.05,35.12,322.09,35.12,322.13z"/>
	</g>
</g>
</svg>
