<?xml version="1.0" encoding="utf-8"?>
<!-- Generator: Adobe Illustrator 25.0.0, SVG Export Plug-In . SVG Version: 6.00 Build 0)  -->
<svg version="1.1" id="Layer_1" xmlns="http://www.w3.org/2000/svg" xmlns:xlink="http://www.w3.org/1999/xlink" x="0px" y="0px"
	 viewBox="0 0 564.27 478" style="enable-background:new 0 0 564.27 478;" xml:space="preserve">
<style type="text/css">
	.st0{fill:#185AE9;}
	.st1{fill:#00B0FB;}
	.st2{fill-rule:evenodd;clip-rule:evenodd;fill:#00B0FB;}
	.st3{fill:#00B0FB;fill-opacity:0.4;}
	.st4{fill:#FFFFFF;}
	.st5{fill:#001135;}
	.st6{fill:#3C7CFF;}
	.st7{fill-rule:evenodd;clip-rule:evenodd;fill:#252F3E;}
	.st8{fill-rule:evenodd;clip-rule:evenodd;fill:#FF9900;}
	.st9{fill:#8D3124;}
	.st10{fill:#E05244;}
	.st11{fill:#F7ADAE;}
	.st12{fill:#5B1E19;}
	.st13{fill:#F58436;}
	.st14{fill:#9D5026;}
	.st15{fill:#1A476F;}
	.st16{fill:#1F5B98;}
	.st17{fill:#2D72B8;}
	.st18{fill:#5294CF;}
	.st19{fill:#FF9900;}
	.st20{fill:#252F3E;}
	.st21{fill:#FDFDFD;}
	.st22{fill:#DBDBDB;}
	.st23{fill:#040404;}
	.st24{fill:#0C0C0C;}
	.st25{fill:#010101;}
	.st26{fill:#D9D9D9;}
	.st27{fill:#DCDCDC;}
	.st28{fill:#D7D7D7;}
	.st29{fill:#D8D8D8;}
	.st30{fill:#111111;}
	.st31{fill:#050505;}
	.st32{fill:#070707;}
	.st33{fill:#060606;}
	.st34{fill:#030303;}
	.st35{fill:#020202;}
	.st36{fill:#151515;}
	.st37{fill:#0F0F0F;}
	.st38{fill:#606060;}
	.st39{fill:#FCFCFC;}
	.st40{fill:#0A0A0A;}
	.st41{fill:#191919;}
	.st42{fill:#0D0D0D;}
	.st43{fill:#101010;}
	.st44{fill:#090909;}
	.st45{fill:#161616;}
	.st46{fill:#080808;}
</style>
<g>
	<g>
		<path d="M347.06,460.92c-0.17-5.26-1.86-10.17-3.9-14.98c-5.48-12.72-13.33-23.95-21.76-34.8c-4.88-6.28-9.96-12.38-15.2-18.33
			c-1.52-1.73-3.06-3.45-4.61-5.15c-2.36-2.61-4.77-5.19-7.2-7.74c-1.74-1.83-3.49-3.65-5.26-5.45
			c-6.01-6.14-12.18-12.14-18.46-18.02c-0.89-0.84-1.79-1.67-2.7-2.51c-0.68-0.64-1.37-1.28-2.06-1.91
			c-4.12-3.8-8.29-7.56-12.48-11.27c-0.26-0.24-0.52-0.47-0.79-0.7c-4.23-3.75-8.5-7.46-12.81-11.12c-0.59-0.5-1.19-1.01-1.79-1.51
			c-0.57-0.49-1.15-0.98-1.74-1.46c-0.17-0.15-0.35-0.29-0.52-0.43c-10.51-8.84-21.23-17.43-32.15-25.73
			c-1.07-0.81-2.14-1.62-3.22-2.44c-0.15-0.11-0.3-0.23-0.45-0.34c-3.47-2.62-6.97-5.2-10.48-7.77c-3.23-2.35-6.47-4.68-9.73-6.97
			c-1.17-0.84-2.35-1.67-3.53-2.49c-11.53-8.07-23.28-15.85-35.24-23.33c-1.83-1.15-3.67-2.29-5.51-3.42
			c-1.12-0.69-2.24-1.38-3.36-2.06c-5.73-3.49-11.51-6.91-17.35-10.22c-1.54-0.88-3.09-1.75-4.65-2.61
			c-14.94-8.3-30.27-15.85-46.2-22.2c-13.97-5.54-28.14-10.4-43.57-11.02c-2.2,0.23-4.58,0.17-6.9,0.51
			C4.63,206.86-0.12,212.4,0,221.27c0.04,4.81,1.36,9.27,3.11,13.67c4.57,11.59,11.35,21.88,18.7,31.77
			c9.17,12.33,19.13,23.93,29.64,35.03c1.43,1.52,2.88,3.02,4.33,4.52c1,1.04,2.02,2.07,3.03,3.1c0.97,1,1.95,1.98,2.93,2.96
			c1.76,1.76,3.53,3.5,5.31,5.25c0.03,0.03,0.07,0.07,0.11,0.1c0.94,0.93,1.9,1.85,2.85,2.76c0.2,0.2,0.4,0.39,0.6,0.57
			c0,0.03,0.01,0.03,0.01,0.03c0.12,0.11,0.23,0.22,0.35,0.33c2.87,2.77,5.78,5.52,8.71,8.24c1.03,0.96,2.07,1.91,3.1,2.86
			c0.71,0.67,1.43,1.33,2.15,1.99c0.7,0.64,1.41,1.28,2.12,1.92c0.53,0.48,1.06,0.98,1.61,1.46c0.56,0.51,1.12,1.01,1.68,1.5
			c2.26,2.05,4.54,4.07,6.83,6.08c0.28,0.23,0.55,0.48,0.82,0.71c0.1,0.09,0.19,0.18,0.29,0.26c0.58,0.5,1.15,1,1.73,1.5
			c0.27,0.24,0.54,0.48,0.8,0.69c2.78,2.42,5.57,4.81,8.38,7.17c1.14,0.97,2.27,1.92,3.41,2.87c1.06,0.89,2.12,1.76,3.19,2.64
			c2.21,1.83,4.45,3.66,6.69,5.47c0.01,0,0.01,0,0.01,0.01c2.18,1.76,4.36,3.51,6.55,5.24c0.2,0.16,0.41,0.32,0.61,0.48
			c0.93,0.74,1.86,1.48,2.8,2.21c0.92,0.72,1.84,1.43,2.76,2.14c1.2,0.95,2.41,1.88,3.63,2.81c3.76,2.89,7.54,5.76,11.35,8.58
			c0.81,0.61,1.62,1.22,2.43,1.82c1.77,1.31,3.54,2.61,5.32,3.9c1.03,0.75,2.06,1.49,3.09,2.23c2.56,1.87,5.15,3.71,7.74,5.54
			c0.05,0.03,0.09,0.07,0.14,0.1c0.15,0.11,0.29,0.2,0.44,0.31c0.84,0.59,1.66,1.17,2.51,1.75c0.16,0.11,0.32,0.22,0.48,0.33
			c0.09,0.07,0.19,0.14,0.29,0.2c3.62,2.55,7.25,5.05,10.92,7.52c2.47,1.69,4.95,3.35,7.44,4.99c1,0.67,2,1.34,3.02,1.98
			c0.26,0.17,0.5,0.33,0.76,0.5c0.89,0.59,1.78,1.17,2.68,1.76c1.06,0.67,2.11,1.36,3.17,2.04c4.61,2.94,9.26,5.84,13.95,8.67
			c1.07,0.66,2.14,1.3,3.21,1.94c0.8,0.48,1.59,0.95,2.38,1.42c1.06,0.63,2.13,1.26,3.2,1.89c6.44,3.76,12.94,7.41,19.54,10.93
			c3.81,2.03,7.64,4.02,11.5,5.95c0.98,0.51,1.96,0.99,2.94,1.49c3.01,1.49,6.03,2.95,9.06,4.37v0.01c1.34,0.62,2.67,1.24,4.01,1.84
			c2.28,1.04,4.58,2.05,6.89,3.03c9.41,3.99,19.04,7.48,29.02,10.12c8.64,2.26,17.35,3.95,26.38,2.82
			C342.37,476.4,347.4,470.64,347.06,460.92z"/>
		<g>
			<g>
				<path class="st4" d="M174.64,399.06c1.36,0.91,2.72,1.81,4.08,2.71C178.01,399.35,176.47,398.91,174.64,399.06z"/>
				<path class="st22" d="M134.15,369.82c1.54,1.2,3.08,2.37,4.61,3.55c0.95,0.72,1.9,1.44,2.86,2.17c0.13,0.1,0.27,0.2,0.4,0.3
					c3.08,2.33,6.2,4.62,9.32,6.91c1.33,0.97,2.67,1.94,4,2.9c0.09-0.51,0.2-1.02,0.31-1.53c2.49-11.17,9.55-18.47,19.98-19.92
					c-5.7-2.53-11.27-3.2-16.54-4.84c-10.63-3.29-18.18,0.77-24.13,9.29C134.68,369.04,134.42,369.43,134.15,369.82z"/>
				<path class="st22" d="M117.1,356.24c4.6,3.78,9.23,7.49,13.91,11.15c0.93-1.39,1.96-2.74,3.04-4.06
					c2.15-2.61,4.79-4.73,7.81-7.2c-7.63-2.12-14.75-2.07-21.89-0.54C119.01,355.79,118.05,356,117.1,356.24z M86.84,330.1
					c2.53,2.31,5.09,4.6,7.65,6.87c0.23,0.21,0.46,0.42,0.7,0.62c3.76,3.33,7.56,6.63,11.39,9.89c0.52,0.44,1.06,0.9,1.59,1.34
					c0.51,0.44,1.02,0.87,1.55,1.3c0.15,0.13,0.31,0.26,0.46,0.38c1.08,0.92,2.17,1.82,3.26,2.72c7.93-2.2,16.04-3.09,24.36-2.27
					c0.67,0.06,1.34,0.01,2,0.01c0.33-1.42-0.64-2.13-1.2-2.93c-6.03-8.54-12.99-16.25-20.75-23.26c-1.24-1.14-4.11-2.49-2.73-4.18
					c1.78-2.17,3.79,0.44,5.24,1.64c6.52,5.4,12.04,11.77,17.49,18.21c1.2,1.4,2.39,2.83,3.55,4.2c1.27-0.64,0.78-1.56,0.75-2.28
					c-0.83-13.19-0.68-26.54-2.79-39.53c-2.76-16.93-9.92-32.11-23.73-43.33c-1.39-1.13-4.19-2.73-3.23-3.95
					c1.33-1.69,3.48,0.52,5.01,1.55c6.93,4.64,12.45,10.58,16.07,18.17c1.81,3.8,3.63,7.59,5.47,11.37
					c6.12,12.57,5.33,26.21,6.11,39.58c0.45,7.82,0.87,15.65,2.2,23.38c0.46,2.67,1.41,4.07,4.62,4.47
					c8.24,1.01,16.21,3.38,24.05,6.16c2.6,0.92,4.5,2.55,4.76,5.48c0.1,1.09,0.47,1.88,1.56,1.97c7.73,0.74,15.33,3.83,23.22,1.34
					c7.47-2.35,14.94-4.66,22.37-7.13c4.08-1.36,8-1.42,11.95,0.37c3.56,1.62,7.29,2.36,11.24,2.28c1.37-0.04,2.1,0.06,2.19-1.66
					c0.2-3.79,0.43-7.58,0.67-11.37c1.75-28.08,4.09-56.15,3.22-84.34c-0.02-0.7-0.3-1.54,0.62-1.71c0.79-0.14,1.16,0.67,1.47,1.28
					c1.29,2.53,1.96,5.21,1.96,8.09c0.06,21.55-0.74,43.05-2.55,64.52c-0.21,2.56-0.23,5.15-0.39,7.72
					c-0.12,1.93,0.63,2.26,2.27,1.47c1.17-0.57,2.31-1.15,3.16-2.17c0.81-0.99,1.63-1.96,2.82-2.69c-2.52,3.4-1.09,9.37-7.21,10.39
					c-0.92,0.15-1.19,0.72-1.29,1.35c-0.07,0.38-0.08,0.78-0.12,1.15c-0.36,3.13-0.64,6.28-0.95,9.41c-0.13,1.33,0.46,2.5,1.64,2.79
					c1.21,0.3,1.25-1.15,1.58-1.93c0.93-2.2,1.87-4.39,2.79-6.59C268,348.18,273.1,336.1,278.18,324
					c-1.39-5.96-4.12-15.98-5.18-20.91c-2.62-12.12-5.39-24.17-9.41-35.94c-3.39-9.89-8.73-17.72-18.95-21.53
					c-3.39-1.25-6.55-3.08-9.81-4.66c-1.05-0.51-1.93-0.73-2.5,0.71c-1.81,4.54-5.78,6.63-9.96,8.26c-2.38,0.93-3.14,2.04-2.53,4.69
					c1.94,8.37,1.93,16.95,2.33,25.49c0.38,8.29,0.52,16.6,0.84,24.89c0.09,2.1,0.46,4.18,0.68,6.27c0.14,1.27,0.44,2.64-0.76,3.57
					c-0.9,0.69-2,0.69-3,0.2c-1.45-0.71-1.21-2.07-1.2-3.37c0.02-17.44-0.44-34.86-2.03-52.24c-0.21-2.3-0.71-4.65-1.5-6.83
					c-1.02-2.78,0.05-4.31,2.51-5.13c2.22-0.74,4.48-1.33,6.5-2.58c3.54-2.2,5.15-5.18,4.44-9.46c-1.3-7.95-9.77-15.02-17.63-14.54
					c-4.73,0.29-4.97,0.6-4.29,6.02c1.9-1.02,3.33-2.21,5.29-2.38c4.42-0.37,6.93,2.71,5.32,6.87c-0.62,1.6-1.66,3.08-2.71,4.48
					c-2.89,3.86-6.6,6.93-10.1,10.21c-2.83,2.64-5.29,2.6-8.32,0.48c-9.02-6.28-18.13-12.46-27.23-18.62
					c-8.61-5.82-17.07-11.97-27.3-14.81c-1.5-0.41-2.62-1.25-2.01-3.04c0.58-1.72,1.94-1.92,3.41-1.32c3.14,1.29,6.37,2.43,9.3,4.09
					c3.04,1.72,4.52,0.92,5.76-2.09c1.93-4.68,1.8-5.16-3.16-5.4c-7.03-0.33-14.04,0.12-21,1.16c-3.54,0.53-6.2,2.14-7.89,5.6
					c-3.17,6.44-8.13,11.7-12.16,17.58c-0.66,0.97-1.55,1.79-1.71,3.02c-0.18,1.4-0.42,2.96,0.61,4.03
					c1.05,1.08,2.18-0.16,3.16-0.54c3.59-1.38,7.2-0.51,10.77-0.17c17.17,1.62,33.81,6.01,50.52,9.96c1.64,0.38,2.96,1.28,2.44,3.16
					c-0.57,2.08-2.21,1.61-3.74,1.15c-17.87-5.33-36.08-8.88-54.65-10.6c-1.6-0.14-3,0.37-4.38,0.99c-2.64,1.16-5.19,2.45-7.68,3.86
					c-4.12,2.32-8.08,4.92-11.94,7.69c-2.49,1.79-3.96,4.15-5,7c-3.43,9.33-4.68,19.11-5.24,28.9
					C86.27,302.16,86.09,316.15,86.84,330.1z M193.52,300.27c0-0.13-0.01-0.26-0.01-0.39c-0.01-0.43-0.02-0.85-0.02-1.28
					c0-1.02,0.02-2.04,0.02-3.08c-0.73-13.71-2.93-27.17-7.64-40.13c-0.39-1.08-1.07-2.06-1.62-3.08c-0.87-1.63-0.66-3.07,1.12-3.73
					c1.69-0.63,2.83,0.09,3.44,1.92c4.74,14.27,8.17,28.78,8.73,43.88c0.06,1.88,0.24,3.71,0.68,5.55c0.06,0.27,0.09,0.52,0.09,0.75
					c0,0.1-0.01,0.2-0.02,0.28c-0.01,0.05-0.01,0.1-0.03,0.14c-0.01,0.07-0.03,0.14-0.04,0.21c-0.02,0.05-0.04,0.11-0.05,0.15
					c-0.08,0.2-0.2,0.38-0.34,0.54c-0.05,0.06-0.12,0.12-0.18,0.18c-0.09,0.07-0.19,0.14-0.29,0.2c-0.1,0.05-0.2,0.11-0.31,0.15
					c-0.03,0.02-0.05,0.03-0.08,0.04c-0.1,0.04-0.2,0.06-0.3,0.09c-0.09,0.03-0.18,0.04-0.28,0.06c-0.12,0.02-0.26,0.04-0.4,0.04
					c-1.56,0.11-2.4-0.8-2.45-2.33C193.53,300.39,193.53,300.33,193.52,300.27z"/>
				<path class="st4" d="M160.75,214.52c-0.72,1.56-0.53,2.54,0.92,3.49c2.54,1.66,5,3.46,7.49,5.19
					c9.41,6.54,18.65,13.34,28.44,19.33c3.48,2.12,5.46,0.93,5.47-3.2c0.01-3.26-0.68-6.57-0.39-9.8c0.35-4.02-0.48-6.68-4.8-7.77
					c-1.74-0.44-3.35-1.64-4.87-2.72c-6.5-4.6-12.03-10.05-15.1-17.58c-0.43-1.03-1.05-2.36,0.32-3.14c1.05-0.6,1.7,0.5,2.32,1.08
					c4.38,4.19,9.66,7,15.05,9.55c4.87,2.3,9.96,4.04,15.49,4.05c4.73,0.01,6.48-1.12,8.02-5.58c0.88-2.54,1.97-4.99,3.25-7.37
					c4.32-8.02,7.17-16.5,7.71-25.65c0.05-0.86,1.01-2.71-1.04-2.46c-2.3,0.28-3.36-1.13-5.15-3.52c-0.3,4.93,1.54,8.28,2.43,11.82
					c1.07,4.21-0.81,6.71-5.08,6.61c-1.02-0.02-2.8,0.56-2.95-0.98c-0.16-1.78,1.64-1.13,2.68-1.3c3.31-0.52,3.87-1.41,2.81-4.76
					c-0.94-3.01-1.88-6.03-2.06-9.21c-0.07-1.19-0.19-2.66,1.1-3.07c2.17-0.69,4.11-2.51,6.62-1.78c2.68,0.78,2.28-1.5,2.45-2.68
					c0.29-2.12-1.4-1.21-2.39-1.16c-0.81,0.05-1.61,0.28-2.42,0.4c-0.85,0.13-1.72,0.1-2.11-0.81c-0.46-1.1,0.36-1.75,1.13-2.28
					c1.5-1.03,3.29-1.16,5.03-1.27c1.27-0.08,2.38-0.21,2.33-1.87c-0.16-5.8,0.91-11.65-1.42-17.34c-1.07-2.61-1.77-4.27-5.16-3.35
					c-2.68,0.72-5.58,0.2-8.36-0.36c-7.91-1.56-15.81-3.18-23.74-4.68c-3.41-0.65-4.71,0.53-4.13,3.94
					c0.52,3.09,1.53,6.12,2.34,9.16c1.04,3.93,0.03,7.4-3.18,9.71c-4.68,3.36-6.89,7.76-7.04,13.4c-0.03,1.04-0.16,2.08-1.48,2.48
					c-3.4,1.01-7.98-1.55-8.64-5.06c-0.58-3.11-1.91-5.79-4.19-7.91c-1.96-1.82-4.21-3.05-7-1.8c-2.67,1.2-3.71,3.46-3.72,6.23
					c-0.04,6.72,3.02,12.13,7.43,16.87c1.37,1.48,3.22,2.33,5.41,1.74c1.38-0.36,2.97-0.88,3.25,1.26c0.3,2.29-1.34,2.69-3.14,2.75
					c-0.69,0.02-1.44,0.12-2.09-0.07c-2.3-0.68-2.75,0.28-2.62,2.4C166.57,195.58,165,205.31,160.75,214.52z M169.92,172.42
					c-0.92,0.69-1.75,0.2-2.48-0.49c-2.52-2.38-1.42-6-2.93-8.76c-0.26-0.45,0.67-1.12,1.44-1.19c1.13-0.11,2.2,0.12,2.67,1.21
					c0.3,0.71,0.25,1.58,0.32,2.1c-0.46,2.04,0.21,3.49,1.11,4.91C170.51,170.92,170.71,171.81,169.92,172.42z M203.53,189.29
					c1.19-1.35,1.94,0.24,2.76,0.93c2.84,2.4,6.21,3,9.81,3c1.48,0,3.98-0.84,3.97,1.46c0,2.4-2.61,1.54-4.03,1.84
					c-4.37-0.15-8.23-1.28-11.52-3.98C203.49,191.68,202.46,190.5,203.53,189.29z M200.16,166.39c2.69-1.79,5.31-3.54,8.63-2.3
					c1.32,0.49,2.98,1.3,2.89,2.7c-0.1,1.71-2.21,2.1-3.48,2.97c-1.08,0.76-2.76,0.72-3.41-0.58
					C203.79,167.17,202,167.1,200.16,166.39z M198.69,156.97c2-1.12,4.2-1.29,6.08-1.37c3.05,0.02,5.63,0.71,8.17,1.58
					c1.09,0.37,1.85,1.1,1.59,2.35c-0.28,1.32-1.42,1.65-2.44,1.25c-4.12-1.62-8.3-2.17-12.66-1.26c-0.68,0.14-1.45-0.05-1.67-0.88
					C197.55,157.84,198.04,157.34,198.69,156.97z"/>
				<path class="st4" d="M212.33,129.55c0.56,0.11,1.16,0.08,1.64,0.1c4.37-0.49,8.76-0.63,12.08-3.95c0.62-0.62,1.41-1.39,0.56-2.4
					c-0.66-0.78-1.47-0.64-2.18-0.12c-3.54,2.63-7.59,3.33-11.88,3.18c-1-0.03-1.96,0.23-2.02,1.4
					C210.47,128.89,211.37,129.36,212.33,129.55z"/>
				<path class="st4" d="M255.88,373.07c0.18,0.22,0.51,0.33,0.77,0.49c-0.49-2.83-2.05-4.68-4.57-5.65
					C253.21,369.74,254.53,371.42,255.88,373.07z"/>
				<path class="st22" d="M234.24,397.36c-15.64-0.37-31.3,0.37-46.93-0.61c-0.81-0.05-1.64-0.08-2.45,0.02
					c-1.16,0.14-2.64,0.35-2.49,1.85c0.15,1.44,1.64,0.96,2.6,0.95c17.51-0.17,35.01,0.98,52.53,0.55c1.76-0.04,3.73-0.06,4.91,1.38
					c2.07,2.55,2.61,1.05,3.17-0.94c0.27-0.97,1.11-1.79,0.74-3.41C242.32,398.6,238.29,397.46,234.24,397.36z"/>
				<path d="M326.35,359.43c-2.41,0.37-3.96,1.89-4.39,4.29c-0.25,1.4,0.59,2.35,2.01,2.11c2.36-0.41,3.84-1.95,4.49-4.08
					C328.44,360.16,327.76,359.22,326.35,359.43z"/>
				<path class="st22" d="M255.05,404.45c15.2-0.41,30.4-0.85,45.6-1.29c3.16-0.1,6.31-0.19,9.47-0.28
					c12.04-0.34,24.08-0.86,36.13-0.94c7.67-0.04,8.45-0.28,11.14-7.55c5.99-16.23,12-32.46,18.01-48.68
					c2.76-7.46,5.56-14.89,8.25-22.37c1.34-3.73,0.11-5.87-3.3-5.88l-44.56-1.56c-14.39,0-28.78,0.09-43.17-0.07
					c-3.77-0.04-6.17,1-7.55,4.72c-2.12,5.69-4.62,11.25-6.96,16.85c-3.73,8.95-7.48,17.9-11.21,26.85
					c-5,11.97-9.98,23.94-14.96,35.92C250.48,403.74,251.1,404.55,255.05,404.45z M318.39,364.36c-0.18-4.22,4.04-8.88,8.2-9.05
					c3-0.12,5.53,2.38,5.59,5.52c0.07,3.85-4.4,8.56-8.23,8.66C320.98,369.57,318.51,367.3,318.39,364.36z"/>
				<path class="st4" d="M158.9,388.16c0.36,0.27,0.73,0.52,1.09,0.78c1.04,0.75,2.09,1.48,3.14,2.21c2.3,1.62,4.62,3.22,6.95,4.8
					c1.56-0.33,3.12-0.66,4.68-0.96c6.75-1.32,13.45-3.67,20.41-2.28c9.3,1.86,18.32,1.71,27.14-2.13
					c5.64-2.46,10.93-2.11,15.61,2.29c0.58,0.55,1.34,0.93,2.06,1.3c1.11,0.56,2.06,0.03,2.9-0.64c0.99-0.78,0.95-1.84,0.52-2.88
					c-0.96-2.28-2.8-3.72-4.92-4.78c-2.64-1.33-5.51-1.93-8.41-2.38c-1.5-0.24-3.03-0.72-2.66-2.5c0.33-1.58,1.97-1.48,3.24-1.16
					c6.07,1.56,12.58,2.28,16.37,8.34c0.29,0.47,0.83,0.83,1.32,1.14c0.96,0.6,1.92,0.86,2.79-0.21c0.77-0.95,0.67-1.7,0.03-2.8
					c-3.68-6.29-8.62-10.66-16.2-11.37c-0.81-0.07-1.61-0.29-2.39-0.52c-1.11-0.3-2-0.93-1.77-2.21c0.27-1.48,1.5-1.8,2.71-1.47
					c6.91,1.92,14.48,2.66,18.32,10.18c0.36,0.72,0.91,2.38,2.22,1.39c0.82-0.63,1.65-2.1,1.03-3.12c-2.28-3.76-4-8.17-8.32-10.13
					c-7.8-3.55-15.76-5.98-24.07-1.34c-0.6,0.33-1.32,0.49-1.97,0.72c-10.55,3.64-21.08,7.06-32.53,4.23
					c-4.87-1.2-9.94-1.56-14.86-2.57c-2.72-0.55-4.7,0.2-6.63,2.05C162.03,376.62,159.73,382.09,158.9,388.16z"/>
				<path d="M82.71,326.31c0.23,0.21,0.46,0.43,0.69,0.64c1.15,1.06,2.29,2.11,3.44,3.15c-0.75-13.95-0.57-27.94,0.25-41.94
					c0.57-9.79,1.81-19.57,5.24-28.9c1.05-2.84,2.52-5.21,5-7c3.86-2.76,7.81-5.37,11.94-7.69c2.49-1.4,5.04-2.7,7.68-3.86
					c1.39-0.61,2.78-1.13,4.38-0.99c18.57,1.72,36.78,5.26,54.65,10.6c1.53,0.46,3.17,0.93,3.74-1.15c0.52-1.88-0.8-2.78-2.44-3.16
					c-16.71-3.95-33.34-8.34-50.52-9.96c-3.56-0.34-7.17-1.21-10.77,0.17c-0.99,0.38-2.12,1.63-3.16,0.54
					c-1.03-1.07-0.79-2.62-0.61-4.03c0.16-1.24,1.05-2.05,1.71-3.02c4.03-5.88,8.99-11.15,12.16-17.58c1.7-3.46,4.36-5.07,7.89-5.6
					c6.96-1.04,13.97-1.48,21-1.16c4.97,0.24,5.09,0.73,3.16,5.4c-1.24,3-2.72,3.81-5.76,2.09c-2.92-1.66-6.16-2.8-9.3-4.09
					c-1.48-0.6-2.84-0.41-3.41,1.32c-0.61,1.79,0.51,2.63,2.01,3.04c10.23,2.84,18.69,8.99,27.3,14.81
					c9.1,6.16,18.21,12.34,27.23,18.62c3.03,2.12,5.49,2.16,8.32-0.48c3.5-3.28,7.21-6.36,10.1-10.21c1.05-1.4,2.09-2.88,2.71-4.48
					c1.61-4.16-0.91-7.24-5.32-6.87c-1.96,0.17-3.39,1.36-5.29,2.38c-0.68-5.42-0.44-5.72,4.29-6.02
					c7.86-0.48,16.33,6.6,17.63,14.54c0.7,4.28-0.91,7.26-4.44,9.46c-2.02,1.24-4.28,1.84-6.5,2.58c-2.45,0.82-3.53,2.35-2.51,5.13
					c0.79,2.18,1.29,4.52,1.5,6.83c1.58,17.38,2.04,34.8,2.03,52.24c-0.01,1.3-0.25,2.66,1.2,3.37c1,0.5,2.1,0.5,3-0.2
					c1.21-0.93,0.91-2.3,0.76-3.57c-0.22-2.09-0.6-4.17-0.68-6.27c-0.32-8.29-0.46-16.6-0.84-24.89c-0.4-8.53-0.39-17.11-2.33-25.49
					c-0.6-2.65,0.15-3.76,2.53-4.69c4.19-1.63,8.15-3.72,9.96-8.26c0.57-1.44,1.45-1.22,2.5-0.71c3.26,1.57,6.43,3.4,9.81,4.66
					c10.22,3.81,15.57,11.65,18.95,21.53c4.02,11.77,6.78,23.82,9.41,35.94c1.07,4.92,3.8,14.95,5.18,20.91
					c-5.08,12.1-10.19,24.18-15.31,36.25c-0.92,2.2-1.86,4.39-2.79,6.59c-0.33,0.78-0.37,2.23-1.58,1.93
					c-1.17-0.29-1.77-1.46-1.64-2.79c0.31-3.14,0.59-6.28,0.95-9.41c0.04-0.36,0.04-0.76,0.12-1.15c0.1-0.63,0.37-1.2,1.29-1.35
					c6.12-1.02,4.69-7,7.21-10.39c-1.19,0.73-2.01,1.71-2.82,2.69c-0.84,1.02-1.98,1.6-3.16,2.17c-1.64,0.79-2.39,0.46-2.27-1.47
					c0.16-2.57,0.18-5.16,0.39-7.72c1.81-21.47,2.61-42.97,2.55-64.52c-0.01-2.88-0.68-5.56-1.96-8.09
					c-0.31-0.61-0.68-1.42-1.47-1.28c-0.92,0.17-0.64,1-0.62,1.71c0.87,28.19-1.47,56.26-3.22,84.34
					c-0.24,3.79-0.46,7.58-0.67,11.37c-0.09,1.72-0.82,1.63-2.19,1.66c-3.95,0.08-7.67-0.66-11.24-2.28
					c-3.95-1.8-7.87-1.73-11.95-0.37c-7.42,2.47-14.9,4.78-22.37,7.13c-7.89,2.49-15.49-0.6-23.22-1.34
					c-1.08-0.1-1.46-0.88-1.56-1.97c-0.26-2.93-2.16-4.56-4.76-5.48c-7.83-2.78-15.81-5.15-24.05-6.16c-3.21-0.4-4.16-1.8-4.62-4.47
					c-1.33-7.73-1.75-15.56-2.2-23.38c-0.77-13.38,0.01-27.01-6.11-39.58c-1.84-3.78-3.65-7.57-5.47-11.37
					c-3.63-7.59-9.14-13.53-16.07-18.17c-1.53-1.02-3.68-3.24-5.01-1.55c-0.96,1.22,1.84,2.82,3.23,3.95
					c13.81,11.22,20.97,26.4,23.73,43.33c2.12,12.99,1.96,26.34,2.79,39.53c0.04,0.71,0.52,1.64-0.75,2.28
					c-1.16-1.37-2.35-2.79-3.55-4.2c-5.45-6.44-10.97-12.81-17.49-18.21c-1.45-1.2-3.46-3.8-5.24-1.64
					c-1.38,1.69,1.48,3.04,2.73,4.18c7.76,7.01,14.72,14.72,20.75,23.26c0.56,0.8,1.53,1.51,1.2,2.93c-0.66,0-1.33,0.05-2-0.01
					c-8.32-0.83-16.43,0.07-24.36,2.27c1.22,1.02,2.44,2.03,3.65,3.02c0.95-0.24,1.91-0.45,2.87-0.66
					c7.15-1.53,14.27-1.57,21.89,0.54c-3.02,2.47-5.66,4.59-7.81,7.2c-1.08,1.32-2.11,2.68-3.04,4.06c1.04,0.82,2.09,1.64,3.14,2.44
					c0.27-0.39,0.53-0.78,0.81-1.17c5.96-8.52,13.5-12.58,24.13-9.29c5.27,1.64,10.85,2.3,16.54,4.84
					c-10.44,1.45-17.49,8.75-19.98,19.92c-0.12,0.51-0.22,1.02-0.31,1.53c1.18,0.84,2.36,1.69,3.56,2.52
					c0.84-6.07,3.13-11.54,7.8-16.04c1.93-1.86,3.91-2.6,6.63-2.05c4.92,1,9.99,1.37,14.86,2.57c11.45,2.83,21.97-0.59,32.53-4.23
					c0.66-0.23,1.37-0.39,1.97-0.72c8.31-4.64,16.28-2.2,24.07,1.34c4.32,1.96,6.04,6.37,8.32,10.13c0.62,1.02-0.21,2.49-1.03,3.12
					c-1.32,1-1.86-0.67-2.22-1.39c-3.84-7.52-11.41-8.26-18.32-10.18c-1.21-0.33-2.44-0.02-2.71,1.47
					c-0.23,1.28,0.66,1.91,1.77,2.21c0.78,0.22,1.58,0.44,2.39,0.52c7.57,0.71,12.52,5.08,16.2,11.37c0.64,1.1,0.75,1.85-0.03,2.8
					c-0.87,1.08-1.83,0.81-2.79,0.21c-0.49-0.31-1.02-0.67-1.32-1.14c-3.8-6.06-10.3-6.78-16.37-8.34
					c-1.26-0.32-2.91-0.42-3.24,1.16c-0.37,1.78,1.16,2.26,2.66,2.5c2.9,0.45,5.77,1.05,8.41,2.38c2.12,1.07,3.96,2.51,4.92,4.78
					c0.44,1.04,0.47,2.1-0.52,2.88c-0.84,0.67-1.79,1.2-2.9,0.64c-0.72-0.36-1.48-0.75-2.06-1.3c-4.68-4.4-9.97-4.76-15.61-2.29
					c-8.82,3.84-17.84,3.99-27.14,2.13c-6.96-1.39-13.66,0.97-20.41,2.28c-1.56,0.3-3.12,0.63-4.68,0.96
					c1.52,1.04,3.04,2.07,4.56,3.1c1.83-0.15,3.37,0.29,4.08,2.71c4.31,2.85,8.65,5.66,13.02,8.42h58.95c18.33,0,36.66,0,54.98,0.01
					c13.08,0,26.14,0.01,39.22,0.01c1.47-2.25,3.95-3.83,7.45-3.83h0.03c-0.04-0.06-0.1-0.11-0.15-0.18
					c5.16-1.56,6.85-5.8,8.47-10.13c5.15-13.8,10.36-27.57,15.47-41.4c3.85-10.41,7.64-20.85,11.33-31.33
					c1.91-5.46-1.22-9.67-6.9-9.63c-1.52,0.02-3.04,0.01-4.56-0.03c-28.2-0.6-56.39-1.24-84.59-1.81c-5.48-0.12-8.26,1.45-10.46,5.7
					c-1.68-7.06-4.53-18.46-6.06-24.53c-3.22-12.79-5.94-25.75-12.24-37.56c-2.33-4.36-5.42-7.82-9.95-10.01
					c-5.69-2.74-11.3-5.63-16.92-8.5c-1.11-0.57-2.42-0.97-2.91-2.36c-2.95-8.48-8.6-14.47-17.01-18.03
					c2.64-1.42,5.13-2.9,5.97-5.82c1.63-5.65,4.76-10.65,6.86-16.09c2.12-5.46,4.16-10.99,4.48-16.9c0.3-5.64,1.8-11.03,2.81-16.53
					c1.59-8.72,2.6-17.65-1.48-26.13c-0.76-1.59-0.04-2.22,0.84-3.24c2.89-3.4,4.83-7.23,4.32-11.84c-0.19-1.74-0.7-3.3-3.16-2.04
					c-3.52,1.8-3.72,1.62-4.27-2.24c-0.49-3.39-2.12-4.92-4.83-3.64c-4.52,2.16-8.4,0.84-12.32-1.21
					c-8.73-4.56-17.98-6.2-27.81-5.86c-7.82,0.27-14.38,2.8-19.69,8.52c-0.89,0.96-1.84,1.74-3.04,2.3
					c-9.12,4.29-13.64,11.79-14.66,21.55c-1.48,14.33,1.88,27.69,8.74,40.18c3.56,6.47,4.52,13.09,3.1,20.3
					c-0.58,2.93-1.43,3.98-4.63,3.71c-8.3-0.69-16.6-0.25-24.83,1.24c-3.76,0.68-6.65,2.33-8.68,5.79
					c-3.79,6.45-7.88,12.74-12.66,18.53c-1.8,2.17-3.26,4.79-2.44,7.4c1.36,4.24-0.63,6.16-3.33,7.8c-0.52,0.31-1.06,0.61-1.61,0.92
					c-1.32,0.74-2.52,1.71-3.87,2.42c-7.11,3.78-10.93,9.87-12.81,17.53c-2.24,9.12-3.4,18.36-3.85,27.73
					C82.48,302.77,82.27,314.56,82.71,326.31z M245.58,400.55c-0.56,1.99-1.09,3.49-3.17,0.94c-1.17-1.45-3.14-1.42-4.91-1.39
					c-17.51,0.44-35.02-0.71-52.53-0.54c-0.96,0.01-2.45,0.49-2.6-0.95c-0.16-1.49,1.32-1.7,2.48-1.84c0.81-0.1,1.64-0.07,2.45-0.02
					c15.64,0.98,31.29,0.24,46.93,0.6c4.05,0.1,8.09,1.24,12.08-0.21C246.68,398.77,245.85,399.58,245.58,400.55z M256.65,373.56
					c-0.27-0.16-0.6-0.27-0.77-0.49c-1.35-1.65-2.67-3.33-3.8-5.16C254.61,368.88,256.16,370.73,256.65,373.56z M285.07,320.57
					c1.38-3.72,3.78-4.76,7.55-4.72c14.38,0.16,28.77,0.07,43.17,0.07l44.56,1.56c3.4,0.01,4.64,2.14,3.3,5.88
					c-2.68,7.48-5.49,14.91-8.25,22.37c-6.01,16.22-12.02,32.45-18.01,48.68c-2.68,7.27-3.47,7.5-11.14,7.55
					c-12.05,0.08-24.09,0.6-36.13,0.94c-3.16,0.09-6.31,0.18-9.47,0.28c-15.2,0.44-30.4,0.88-45.6,1.29
					c-3.96,0.11-4.58-0.71-3.11-4.25c4.98-11.98,9.96-23.95,14.96-35.92c3.73-8.95,7.48-17.9,11.21-26.85
					C280.45,331.81,282.95,326.26,285.07,320.57z M226.06,125.7c-3.32,3.32-7.72,3.46-12.09,3.96c-0.48-0.03-1.08,0.01-1.64-0.11
					c-0.97-0.2-1.86-0.66-1.8-1.78c0.06-1.17,1.01-1.44,2.02-1.4c4.28,0.14,8.34-0.55,11.88-3.18c0.71-0.52,1.52-0.67,2.18,0.12
					C227.46,124.31,226.67,125.08,226.06,125.7z M160.75,214.52c4.25-9.22,5.81-18.94,5.21-29.03c-0.12-2.12,0.32-3.08,2.62-2.4
					c0.65,0.19,1.4,0.09,2.09,0.07c1.8-0.05,3.44-0.45,3.14-2.75c-0.28-2.14-1.88-1.63-3.25-1.26c-2.2,0.59-4.04-0.27-5.41-1.74
					c-4.41-4.74-7.48-10.15-7.43-16.87c0.02-2.77,1.06-5.03,3.72-6.23c2.79-1.25,5.05-0.03,7,1.8c2.28,2.12,3.61,4.8,4.19,7.91
					c0.66,3.51,5.24,6.07,8.64,5.06c1.32-0.4,1.45-1.44,1.48-2.48c0.15-5.64,2.36-10.04,7.04-13.4c3.21-2.31,4.22-5.78,3.18-9.71
					c-0.81-3.05-1.81-6.07-2.34-9.16c-0.58-3.4,0.72-4.59,4.13-3.94c7.93,1.49,15.83,3.12,23.74,4.68c2.77,0.55,5.68,1.08,8.36,0.36
					c3.4-0.92,4.1,0.74,5.16,3.35c2.33,5.7,1.26,11.55,1.42,17.34c0.05,1.65-1.06,1.79-2.33,1.87c-1.74,0.12-3.53,0.24-5.03,1.27
					c-0.77,0.53-1.59,1.18-1.13,2.28c0.38,0.91,1.25,0.94,2.11,0.81c0.81-0.12,1.61-0.35,2.42-0.4c1-0.05,2.68-0.96,2.39,1.16
					c-0.17,1.17,0.22,3.46-2.45,2.68c-2.52-0.73-4.45,1.08-6.62,1.78c-1.29,0.41-1.17,1.88-1.1,3.07c0.19,3.18,1.12,6.2,2.06,9.21
					c1.06,3.35,0.5,4.25-2.81,4.76c-1.03,0.17-2.84-0.48-2.68,1.3c0.15,1.54,1.93,0.96,2.95,0.98c4.27,0.1,6.14-2.4,5.08-6.61
					c-0.89-3.55-2.73-6.89-2.43-11.82c1.79,2.39,2.84,3.8,5.15,3.52c2.05-0.25,1.09,1.6,1.04,2.46c-0.53,9.15-3.39,17.63-7.71,25.65
					c-1.28,2.38-2.37,4.83-3.25,7.37c-1.54,4.46-3.29,5.59-8.02,5.58c-5.53-0.01-10.61-1.75-15.49-4.05
					c-5.39-2.54-10.67-5.36-15.05-9.55c-0.62-0.59-1.27-1.69-2.32-1.08c-1.37,0.78-0.75,2.11-0.32,3.14
					c3.08,7.53,8.6,12.99,15.1,17.58c1.52,1.08,3.13,2.28,4.87,2.72c4.32,1.08,5.15,3.75,4.8,7.77c-0.28,3.23,0.4,6.53,0.39,9.8
					c-0.01,4.13-1.99,5.32-5.47,3.2c-9.79-5.98-19.02-12.78-28.44-19.33c-2.5-1.73-4.95-3.53-7.49-5.19
					C160.22,217.07,160.03,216.08,160.75,214.52z"/>
				<path d="M185.87,255.4c4.71,12.96,6.92,26.41,7.64,40.13c0,1.64-0.05,3.28,0.01,4.91c0.05,1.53,0.89,2.43,2.45,2.33
					c1.72-0.11,2.63-1.19,2.24-2.84c-0.44-1.84-0.61-3.68-0.68-5.55c-0.56-15.09-3.99-29.61-8.73-43.88
					c-0.61-1.83-1.75-2.55-3.44-1.92c-1.78,0.66-1.99,2.11-1.12,3.73C184.8,253.33,185.48,254.32,185.87,255.4z"/>
				<path d="M318.39,364.36c0.12,2.93,2.59,5.21,5.56,5.13c3.83-0.1,8.3-4.81,8.23-8.66c-0.06-3.14-2.6-5.64-5.59-5.52
					C322.43,355.48,318.21,360.14,318.39,364.36z M321.96,363.72c0.43-2.41,1.98-3.93,4.39-4.29c1.4-0.21,2.08,0.74,2.11,2.32
					c-0.66,2.13-2.13,3.67-4.5,4.08C322.55,366.08,321.71,365.13,321.96,363.72z"/>
				<path d="M199.43,159.52c4.36-0.9,8.54-0.35,12.66,1.26c1.03,0.4,2.17,0.08,2.45-1.25c0.26-1.24-0.49-1.97-1.59-2.35
					c-2.54-0.87-5.12-1.56-8.17-1.58c-1.88,0.08-4.08,0.25-6.08,1.37c-0.65,0.37-1.15,0.87-0.93,1.67
					C197.99,159.46,198.74,159.66,199.43,159.52z"/>
				<path d="M203.53,189.29c-1.07,1.21-0.05,2.4,0.99,3.25c3.29,2.71,7.15,3.84,11.52,3.99c1.41-0.31,4.03,0.56,4.03-1.84
					c0-2.31-2.49-1.46-3.98-1.46c-3.6-0.01-6.97-0.6-9.81-3C205.47,189.53,204.72,187.93,203.53,189.29z"/>
				<path d="M204.79,169.18c0.65,1.3,2.33,1.33,3.42,0.58c1.26-0.87,3.37-1.27,3.48-2.97c0.08-1.4-1.57-2.21-2.89-2.7
					c-3.33-1.24-5.94,0.52-8.63,2.3C202,167.1,203.79,167.17,204.79,169.18z"/>
				<path d="M168.93,165.29c-0.07-0.52-0.01-1.38-0.32-2.1c-0.47-1.1-1.54-1.32-2.66-1.21c-0.78,0.07-1.7,0.74-1.45,1.19
					c1.52,2.76,0.41,6.38,2.94,8.76c0.73,0.68,1.57,1.19,2.48,0.49c0.79-0.6,0.58-1.49,0.13-2.22
					C169.15,168.78,168.47,167.32,168.93,165.29z"/>
			</g>
		</g>
	</g>
	<g>
		<path class="st32" d="M474,218.47c-0.96,0.51-1.72,0.33-2.44,0.33c-52.92,0.01-105.84,0-158.76,0.05c-2.06,0-2.61-0.55-2.61-2.6
			c0.06-31.83,0.04-63.67,0.04-95.5c0-7.16-0.03-14.33-0.04-21.49c-0.01-2.61-0.01-2.62,2.7-2.62
			c50.08-0.01,100.16-0.01,150.25-0.02c2.91,0,5.82,0.09,8.72-0.05c1.78-0.09,2.19,0.61,2.19,2.23c-0.04,13.45,0,26.9-0.01,40.35
			c0,20.61-0.02,41.23-0.03,61.84C474,206.85,474,212.72,474,218.47z M471.7,127.47c-53.16,0-106.17,0-159.17,0
			c0,29.78,0,59.36,0,89c53.11,0,106.12,0,159.17,0C471.7,186.74,471.7,157.21,471.7,127.47z M312.52,124.62
			c53.04,0,105.94,0,159.01,0c0-5.72,0-11.36,0-17.14c-52.99,0-105.95,0-159.01,0C312.52,113.22,312.52,118.8,312.52,124.62z
			 M312.52,104.51c53.12,0,106.12,0,159.19,0c-0.06-1.86,0.18-3.53-0.14-5.1c-53.08,0-106.02,0-159.05,0
			C312.52,101.16,312.52,102.71,312.52,104.51z"/>
		<path class="st32" d="M530.05,73.61c-1.93-5.16-2.04-10.68-4.9-15.34c-1.92,0.69-2.97,2.33-4.3,3.64
			c-0.74,0.73-1.34,1.97-2.61,1.51c-1.22-0.43-1.86-1.5-1.91-2.85c-0.01-0.19-0.12-0.37-0.17-0.55c-3.64,0.3-8.63-2.99-9.31-6.13
			c-0.1-0.07-0.21-0.19-0.32-0.2c-3.72-0.43-4.32-1.52-2.59-4.86c0.71-1.37,1.51-2.7,1.27-4.47c-5.19-0.4-10.36,0.3-15.9,0.28
			c1.32-2.81,2.89-5.11,4.51-7.4c5.15-7.31,12.19-11.51,21.02-12.67c1.35-0.18,2.15-0.8,2.94-1.81
			c7.03-8.97,15.44-16.19,26.22-20.35c2.71-1.05,5.47-1.9,8.35-2.31c2.71-0.38,3.24,0.06,3.48,2.73c0.49,5.47-0.46,10.76-1.93,15.98
			c-2.24,7.97-6.26,15.03-11.17,21.61c-0.58,0.78-0.83,1.47-0.66,2.39c1.86,9.61-1.14,17.83-7.25,25.15
			C533.3,69.79,531.97,71.75,530.05,73.61z M522.62,56.42c5.01-3.71,9.54-7.64,13.62-12.08c7-7.6,12.41-16.11,15.34-26.11
			c0.42-1.44,0.17-2.3-1.05-3.21c-3.19-2.38-6.29-4.88-9.38-7.4c-0.73-0.6-1.27-0.71-2.13-0.25c-2.14,1.16-4.17,2.49-6.14,3.91
			c-11.73,8.46-19.11,20.16-24.71,33.19c-0.38,0.89-0.34,1.43,0.47,2.05c1.92,1.48,3.87,2.89,5.93,4.15
			c3.68-4.63,6.91-9.56,11.32-13.51c-2.62,5.32-6.55,9.7-10.15,14.56C518.09,53.32,520.31,54.83,522.62,56.42z M527.02,56.25
			c2.11,3.81,2.91,8.02,4.21,12.38c5.89-7.22,10.7-14.43,8.41-24.29c-2.08,2.1-4.02,4.16-6.07,6.1
			C531.5,52.37,529.34,54.2,527.02,56.25z M514.42,27.35c-8.42,0.48-18.01,7.34-20.62,14.63c4.26,0.07,8.5-0.43,12.9-0.04
			C509,37.04,511.44,32.17,514.42,27.35z M542.53,5.66c3.33,2.86,6.57,5.37,10.07,7.9c0.83-3.89,0.97-7.48,0.75-11.28
			C549.54,2.88,546.12,4.02,542.53,5.66z M520.94,58.28c-4.92-3.04-9.25-6.73-13.99-9.87c-0.5,0.89-0.88,1.58-1.37,2.44
			c2.74,0.27,3.7,2.73,5.36,4.25c2.32,2.12,6.44,1.47,7.63,5.14c0.02,0.05,0.24,0.04,0.56,0.09
			C519.58,59.81,520.11,59.21,520.94,58.28z"/>
		<path class="st32" d="M348.61,51.3c6.05,0,11.7,0,17.34,0c0.44,0.79,0.37,1.48,0.11,2.28c-6.48,0-12.94,0-19.65,0
			c-1.1-17.44,5.09-31.49,18.95-41.99c14.11-10.69,34.79-11.6,50.06-2.46c15.96,9.55,24.12,27.07,22.37,44.43
			c-6.37,0-12.76,0-19.21,0c-0.46-0.68-0.22-1.39-0.21-2.24c5.77,0,11.42,0,17.29,0c0.39-15.77-5.27-28.68-17.98-37.73
			c-14.97-10.66-31.17-11.46-47.09-2.39C355.44,19.84,348.44,33.6,348.61,51.3z"/>
		<path class="st32" d="M416.07,27.1c-5.06,7.16-10.11,14.31-15.16,21.48c-0.3,0.43-0.51,0.94-0.69,1.44
			c-1.49,4.13-4.56,6.18-8.65,5.76c-3.44-0.35-6.4-3.04-6.97-6.35c-0.7-4.1,1.15-7.81,5.07-9.32c4.43-1.7,8.44-4.16,12.64-6.27
			c4.55-2.28,9.04-4.69,13.56-7.05C415.94,26.9,416,27,416.07,27.1z M396.17,47.89c0.03-1.82-1.6-3.48-3.46-3.54
			c-1.75-0.05-3.27,1.51-3.29,3.37c-0.01,1.93,1.55,3.58,3.36,3.55C394.52,51.24,396.15,49.61,396.17,47.89z"/>
		<path class="st32" d="M506.4,174.61c3.04,0,6.08,0,9.12,0c0.74,0,1.56-0.07,1.95,0.74c0.4,0.81,0.2,1.6-0.44,2.22
			c-0.67,0.65-0.61,1.45-0.61,2.26c0,4.26-0.07,8.51,0,12.76c0.03,1.73-0.56,2.42-2.34,2.4c-5.61-0.07-11.21-0.05-16.82,0.02
			c-1.79,0.02-2.36-0.73-2.34-2.43c0.05-5.2,0.06-10.4-0.02-15.6c-0.03-1.76,0.63-2.43,2.38-2.38c3.04,0.09,6.08,0.02,9.12,0.02
			C506.4,174.63,506.4,174.62,506.4,174.61z M497.73,177.15c0,5.2,0,10.21,0,15.15c5.48,0,10.78,0,15.99,0c0-3.73,0-7.3,0-11.1
			c-2.59,2.43-4.65,4.93-6.74,7.39c-1.01,1.19-1.91,1.33-2.98,0.08c-1.14-1.33-2.38-2.58-3.57-3.87c-0.6-0.65-1.02-1.36-0.24-2.11
			c0.79-0.77,1.61-0.52,2.29,0.22c0.95,1.02,1.87,2.07,2.88,3.19c2.68-2.94,5.23-5.74,7.96-8.73
			C507.94,177,502.89,177.19,497.73,177.15z"/>
		<path class="st32" d="M505.5,163.92c-2.77,0-5.53-0.04-8.3,0.02c-1.64,0.04-2.3-0.62-2.28-2.28c0.05-5.26,0.03-10.52-0.03-15.78
			c-0.02-1.53,0.49-2.22,2.09-2.21c6.14,0.03,12.28-0.04,18.41-0.02c2.18,0.01,2.85,1.18,1.66,2.97c-0.53,0.8-0.66,1.57-0.66,2.46
			c0.01,4.05,0.01,8.09,0.01,12.14c0,2.53-0.21,2.73-2.81,2.73c-2.7,0-5.4,0-8.09,0C505.5,163.94,505.5,163.93,505.5,163.92z
			 M497.65,146.21c0,5.12,0,10.08,0,15.07c5.47,0,10.82,0,16.07,0c0-3.78,0-7.36,0-11.35c-2.47,2.79-4.67,5.24-6.82,7.72
			c-0.86,0.99-1.69,1.33-2.69,0.26c-1.28-1.38-2.56-2.77-3.82-4.18c-0.59-0.66-0.92-1.45-0.1-2.12c0.73-0.59,1.52-0.41,2.16,0.29
			c0.94,1.03,1.88,2.07,2.85,3.14c2.84-2.76,5.29-5.71,7.88-8.83C507.87,146.21,502.88,146.21,497.65,146.21z"/>
		<path class="st32" d="M505.59,132.82c-2.84,0-5.67-0.05-8.51,0.02c-1.59,0.04-2.16-0.67-2.15-2.19
			c0.02-5.34,0.01-10.67-0.03-16.01c-0.01-1.44,0.55-2.1,2.03-2.1c6.21,0.01,12.43-0.04,18.64-0.03c2.03,0,2.7,1.2,1.54,2.87
			c-0.55,0.8-0.68,1.56-0.68,2.44c-0.01,4.26-0.07,8.51-0.04,12.77c0.01,1.64-0.63,2.3-2.29,2.25
			C511.26,132.76,508.42,132.82,505.59,132.82z M513.85,118.76c-2.62,2.56-4.74,4.99-6.75,7.52c-1.13,1.42-2.14,1.42-3.29,0.09
			c-1.06-1.22-2.18-2.39-3.25-3.61c-0.59-0.67-1.22-1.46-0.32-2.27c0.91-0.81,1.74-0.35,2.43,0.45c0.87,1,1.73,2,2.69,3.1
			c2.67-2.99,5.23-5.86,7.93-8.88c-5.38,0-10.42,0-15.59,0c0,5.1,0,10.1,0,15.05c5.47,0,10.77,0,16.15,0
			C513.85,126.44,513.85,122.83,513.85,118.76z"/>
		<path class="st32" d="M393.54,20.68c0-3.84,0-7.52,0-11.36c7.47,0.3,14.25,2.34,20.66,6.62c-2.12,2.97-4.21,5.9-6.38,8.94
			C403.31,22.49,398.64,20.93,393.54,20.68z"/>
		<path class="st32" d="M370.52,15.88c6.21-4.2,12.89-6.16,20.24-6.56c0,3.82,0,7.49,0,11.29c-4.94,0.27-9.44,1.75-13.79,4.05
			C374.57,21.92,372.66,18.92,370.52,15.88z"/>
		<path class="st32" d="M494.96,78.37c-1.55-12.28,4.51-21.3,11.48-21.31c-3.66,3.9-5.21,8.34-5.32,13.5
			c5.43-0.96,8.83-4.75,12.39-8.62C515.16,69.16,504.09,78.05,494.96,78.37z"/>
		<path class="st32" d="M368.5,17.22c2.11,3.03,4.13,5.94,6.21,8.94c-3.51,2.86-6.4,6.09-8.66,10.04c-3.16-1.44-6.26-2.84-9.44-4.29
			C359.3,25.89,363.38,21.27,368.5,17.22z"/>
		<path class="st32" d="M418.52,36.14c-0.94-1.49-1.76-2.8-2.6-4.14c0.96-1.53,1.91-3.07,2.9-4.59c0.76-1.16,0.52-2.16-0.38-3.1
			c-0.86-0.89-1.76-1.04-2.9-0.42c-1.64,0.9-3.35,1.67-5.37,2.16c1.92-2.84,3.84-5.69,5.87-8.71c5.25,3.98,8.99,8.85,11.84,14.65
			C424.7,33.41,421.69,34.74,418.52,36.14z"/>
		<path class="st32" d="M419.52,38.36c3.14-1.39,6.12-2.7,9.27-4.09c1.84,4.77,2.62,9.48,2.65,14.51c-3.22,0-6.35,0-9.72,0
			C421.58,45.32,420.91,41.92,419.52,38.36z"/>
		<path class="st32" d="M352.92,48.77c-0.2-5.06,0.81-9.83,2.68-14.61c3.19,1.47,6.15,2.83,9.26,4.26
			c-1.02,3.4-2.11,6.71-2.21,10.35C359.46,48.77,356.31,48.77,352.92,48.77z"/>
		<path class="st32" d="M542.75,123.51c-6.35,0-12.71-0.01-19.06,0.01c-1.04,0-2.27,0.08-2.32-1.29c-0.06-1.55,1.27-1.47,2.36-1.47
			c12.78-0.01,25.55-0.02,38.33-0.03c1.05,0,2.22-0.01,2.21,1.42c-0.01,1.46-1.22,1.36-2.24,1.36
			C555.59,123.51,549.17,123.51,542.75,123.51z"/>
		<path class="st32" d="M542.79,154.61c-6.22,0-12.43,0-18.65,0c-0.41,0-0.81,0.02-1.22,0c-0.94-0.03-1.61-0.5-1.56-1.47
			c0.05-0.89,0.75-1.18,1.59-1.18c2.09,0,4.19-0.03,6.28-0.03c10.88-0.01,21.76-0.01,32.64-0.02c1.02,0,2.28-0.16,2.32,1.25
			c0.05,1.55-1.26,1.45-2.36,1.45C555.49,154.62,549.14,154.62,542.79,154.61C542.79,154.62,542.79,154.62,542.79,154.61z"/>
		<path class="st32" d="M543,183.06c6.35,0,12.7,0,19.05,0c1.04,0,2.23-0.08,2.23,1.36c0,1.32-1.16,1.28-2.11,1.28
			c-12.9,0.01-25.8,0.02-38.71,0.03c-0.98,0-2.08-0.05-2.12-1.31c-0.05-1.54,1.23-1.32,2.21-1.33c6.48-0.02,12.97-0.01,19.46-0.01
			C543,183.07,543,183.06,543,183.06z"/>
		<path class="st22" d="M471.7,127.47c0,29.73,0,59.27,0,89c-53.05,0-106.06,0-159.17,0c0-29.64,0-59.23,0-89
			C365.53,127.47,418.54,127.47,471.7,127.47z M318.88,164.9c48.82,0.28,97.57,0.41,146.33,0.3c0-11.21,0-22.19,0-33.14
			c-48.84,0-97.54,0-146.33,0C318.88,143.05,318.88,153.91,318.88,164.9z M318.89,200.81c14.73,0,29.23,0,43.89,0
			c0-10.03,0-20,0-29.99c-14.7,0-29.26,0-43.89,0C318.89,180.85,318.89,190.7,318.89,200.81z M420.31,200.83
			c14.75,0,29.24,0,43.89,0c0-10.06,0-20.01,0-30.03c-14.72,0-29.28,0-43.89,0C420.31,180.86,420.31,190.76,420.31,200.83z
			 M369.6,170.76c0,10.1,0,20,0,30.04c14.68,0,29.22,0,43.83,0c0-10.04,0-19.99,0-30.04C398.77,170.76,384.28,170.76,369.6,170.76z
			 M405.99,206.25c-0.06-0.68,0.26-1.27-0.27-1.76c-11.54,0-23.02,0.02-34.5-0.02c-1.43,0-1.54,0.6-1.23,1.78
			C381.94,206.25,393.82,206.25,405.99,206.25z M420.79,206.18c11.98,0,23.83,0,35.66,0c0.14-0.75,0.27-1.35-0.19-1.74
			c-11.38,0-22.66,0.01-33.93-0.01C421.17,204.43,420.23,204.5,420.79,206.18z M355.22,206.24c0.44-1.57-0.18-1.98-1.51-1.92
			c-1.75,0.08-3.51,0.02-5.26,0.02c-9.18,0.03-18.36,0.06-27.54,0.11c-1.73,0.01-1.73,0.05-1.37,1.79
			C331.38,206.24,343.25,206.24,355.22,206.24z M319.45,210.83c9.65,0,19.34,0,28.99,0c0.21-0.68,0.28-1.2-0.07-1.73
			c-9.64,0-19.28,0-28.89,0C319.14,209.7,319.16,210.21,319.45,210.83z M449.62,209.1c-9.63,0-19.24,0-28.84,0
			c-0.55,1.46-0.05,1.94,1.34,1.86c1.41-0.08,2.83-0.03,4.25-0.03c7.15,0.02,14.31,0.04,21.46,0.06
			C449.05,211,450.27,211.02,449.62,209.1z M370.06,209.09c-0.59,1.82,0.43,1.84,1.55,1.84c8.78,0,17.56,0.02,26.34,0.03
			c0.4,0,0.82,0.06,1.2-0.3c0.07-0.47,0.21-0.99-0.16-1.56C389.4,209.09,379.77,209.09,370.06,209.09z"/>
		<path class="st22" d="M312.52,124.62c0-5.82,0-11.4,0-17.14c53.06,0,106.01,0,159.01,0c0,5.78,0,11.42,0,17.14
			C418.46,124.62,365.55,124.62,312.52,124.62z M395.26,121.51c0.54,0,1.08,0,1.62,0c14.39,0.02,28.78,0.04,43.17,0.05
			c2.62,0,3.63-1.01,3.67-3.68c0.01-1.01,0-2.03-0.02-3.04c-0.06-3.13-0.85-3.89-4.04-3.89c-20.54,0-41.08,0.01-61.62,0.01
			c-9.39,0-18.78,0-28.17,0.02c-2.52,0-3.42,0.91-3.43,3.38c-0.01,1.15,0,2.3,0.02,3.45c0.03,2.8,0.96,3.7,3.81,3.7
			C365.26,121.51,380.26,121.51,395.26,121.51z M321.77,114.72c0.01-0.15,0.03-0.31,0.04-0.46c3.54,0,7.09,0,10.69,0
			c-0.07,2.29-0.31,4.49,0.24,6.63c1.99,0.04,2.16-0.09,2.15-1.78c-0.01-1.95-0.07-3.9-0.08-5.85c0-1-0.44-1.5-1.46-1.5
			c-4.12,0.02-8.23,0.03-12.35,0.05c-1.14,0-1.74,0.52-1.71,1.73c0.04,1.96,0.04,3.91,0.02,5.87c-0.01,1.1,0.5,1.63,1.58,1.63
			c3.31,0,6.61,0,9.92,0.01c0.69,0,1.19-0.2,1.34-0.93c0.13-0.64,0.01-1.4-0.47-1.66c-0.53-0.29-1.31-0.23-1.96-0.16
			c-2.64,0.27-5.25,0.07-7.88,0c0-0.18,0-0.35-0.01-0.53c3.29,0,6.57,0,9.96,0c-0.05-1.14-0.09-1.99-0.14-3.06
			C328.25,114.72,325.01,114.72,321.77,114.72z M459.26,117.47c1.27,0,2.45-0.06,3.63,0.02c1.18,0.08,1.58-0.46,1.53-1.55
			c-0.03-0.67-0.02-1.35-0.01-2.03c0.01-1.11-0.48-1.54-1.62-1.49c-1.89,0.08-3.78,0.07-5.67,0.04c-1.14-0.02-1.49,0.49-1.58,1.58
			c-0.18,2.22,0.77,4.29,0.47,6.48c1.22,0.23,2.2,0.34,3.25-0.01C459.26,119.61,459.26,118.75,459.26,117.47z M460.68,118.25
			c-0.45,0.76-0.34,1.57-0.11,2.43c1.14,0.16,2.32,0.54,3.14-0.23c0.58-0.55,0.21-1.49-0.32-2.2
			C462.5,118.25,461.63,118.25,460.68,118.25z"/>
		<path class="st21" d="M312.52,104.51c0-1.8,0-3.35,0-5.1c53.03,0,105.97,0,159.05,0c0.32,1.57,0.08,3.24,0.14,5.1
			C418.64,104.51,365.64,104.51,312.52,104.51z"/>
		<path class="st22" d="M522.62,56.42c-2.32-1.58-4.53-3.1-6.88-4.7c3.6-4.86,7.52-9.24,10.15-14.56
			c-4.41,3.95-7.63,8.88-11.32,13.51c-2.06-1.26-4.01-2.67-5.93-4.15c-0.8-0.62-0.85-1.16-0.47-2.05
			c5.6-13.03,12.97-24.73,24.71-33.19c1.97-1.42,4-2.75,6.14-3.91c0.86-0.47,1.4-0.35,2.13,0.25c3.09,2.52,6.19,5.02,9.38,7.4
			c1.22,0.91,1.47,1.77,1.05,3.21c-2.93,10-8.34,18.51-15.34,26.11C532.16,48.78,527.64,52.7,522.62,56.42z M543.92,22.18
			c0-3.56-2.64-6.28-6.05-6.24c-3.64,0.04-6.39,2.67-6.43,6.17c-0.04,3.36,2.83,6.4,6.04,6.38
			C540.81,28.47,543.93,25.42,543.92,22.18z"/>
		<path class="st21" d="M527.02,56.25c2.32-2.05,4.49-3.88,6.54-5.82c2.05-1.94,3.99-4,6.07-6.1c2.3,9.86-2.51,17.08-8.41,24.29
			C529.93,64.27,529.12,60.07,527.02,56.25z"/>
		<path class="st21" d="M514.42,27.35c-2.98,4.83-5.42,9.69-7.73,14.59c-4.4-0.39-8.64,0.1-12.9,0.04
			C496.41,34.69,506,27.83,514.42,27.35z"/>
		<path class="st21" d="M542.53,5.66c3.59-1.64,7-2.78,10.82-3.38c0.22,3.8,0.08,7.39-0.75,11.28
			C549.1,11.03,545.86,8.52,542.53,5.66z"/>
		<path class="st21" d="M520.94,58.28c-0.83,0.94-1.35,1.54-1.8,2.05c-0.32-0.05-0.54-0.03-0.56-0.09
			c-1.19-3.68-5.31-3.03-7.63-5.14c-1.66-1.52-2.62-3.98-5.36-4.25c0.48-0.86,0.87-1.55,1.37-2.44
			C511.69,51.54,516.01,55.23,520.94,58.28z"/>
		<path class="st21" d="M396.17,47.89c-0.02,1.72-1.65,3.35-3.38,3.38c-1.82,0.03-3.37-1.61-3.36-3.55
			c0.01-1.86,1.54-3.42,3.29-3.37C394.58,44.41,396.2,46.07,396.17,47.89z"/>
		<path class="st21" d="M497.73,177.15c5.16,0.04,10.21-0.14,15.58,0.21c-2.73,2.99-5.28,5.79-7.96,8.73
			c-1.01-1.12-1.94-2.17-2.88-3.19c-0.69-0.74-1.5-0.99-2.29-0.22c-0.78,0.75-0.35,1.47,0.24,2.11c1.19,1.29,2.43,2.54,3.57,3.87
			c1.07,1.25,1.97,1.12,2.98-0.08c2.09-2.46,4.15-4.96,6.74-7.39c0,3.8,0,7.37,0,11.1c-5.21,0-10.51,0-15.99,0
			C497.73,187.36,497.73,182.35,497.73,177.15z"/>
		<path class="st21" d="M497.65,146.21c5.22,0,10.21,0,15.51,0c-2.59,3.12-5.04,6.08-7.88,8.83c-0.97-1.07-1.91-2.11-2.85-3.14
			c-0.64-0.7-1.42-0.88-2.16-0.29c-0.82,0.67-0.49,1.45,0.1,2.12c1.26,1.41,2.54,2.8,3.82,4.18c1,1.07,1.84,0.73,2.69-0.26
			c2.15-2.49,4.35-4.93,6.82-7.72c0,3.99,0,7.57,0,11.35c-5.25,0-10.59,0-16.07,0C497.65,156.3,497.65,151.34,497.65,146.21z"/>
		<path class="st21" d="M513.85,118.76c0,4.07,0,7.68,0,11.43c-5.38,0-10.69,0-16.15,0c0-4.94,0-9.95,0-15.05
			c5.17,0,10.21,0,15.59,0c-2.7,3.02-5.26,5.89-7.93,8.88c-0.96-1.1-1.82-2.1-2.69-3.1c-0.69-0.8-1.53-1.26-2.43-0.45
			c-0.91,0.81-0.28,1.6,0.32,2.27c1.07,1.22,2.19,2.39,3.25,3.61c1.15,1.33,2.16,1.33,3.29-0.09
			C509.11,123.76,511.23,121.32,513.85,118.76z"/>
		<path class="st32" d="M318.88,164.9c0-10.99,0-21.85,0-32.84c48.79,0,97.49,0,146.33,0c0,10.95,0,21.93,0,33.14
			C416.45,165.31,367.7,165.18,318.88,164.9z M463.6,133.14c-47.78,0-95.41,0-143.07,0c0,10.26,0,20.42,0,30.42
			c47.77,0,95.39,0,143.07,0C463.6,153.34,463.6,143.35,463.6,133.14z"/>
		<path class="st32" d="M318.89,200.81c0-10.11,0-19.97,0-29.99c14.63,0,29.2,0,43.89,0c0,10,0,19.96,0,29.99
			C348.12,200.81,333.62,200.81,318.89,200.81z M361.25,172.32c-13.72,0-27.21,0-40.74,0c0,9.04,0,17.98,0,26.85
			c13.68,0,27.17,0,40.74,0C361.25,190.19,361.25,181.36,361.25,172.32z"/>
		<path class="st32" d="M420.31,200.83c0-10.07,0-19.98,0-30.03c14.61,0,29.17,0,43.89,0c0,10.02,0,19.97,0,30.03
			C449.55,200.83,435.06,200.83,420.31,200.83z M462.72,199.26c0-9.08,0-17.96,0-26.94c-13.66,0-27.2,0-40.82,0
			c0,9.04,0,17.97,0,26.94C435.55,199.26,449.05,199.26,462.72,199.26z"/>
		<path class="st32" d="M369.6,170.76c14.67,0,29.17,0,43.83,0c0,10.05,0,20,0,30.04c-14.61,0-29.16,0-43.83,0
			C369.6,190.76,369.6,180.86,369.6,170.76z M371.06,172.31c0,9.04,0,17.96,0,26.86c13.73,0,27.32,0,40.91,0c0-9.02,0-17.89,0-26.86
			C398.33,172.31,384.84,172.31,371.06,172.31z"/>
		<path class="st32" d="M405.99,206.25c-12.17,0-24.05,0-36,0c-0.31-1.18-0.2-1.78,1.23-1.78c11.48,0.04,22.96,0.02,34.5,0.02
			C406.25,204.98,405.93,205.57,405.99,206.25z"/>
		<path class="st32" d="M420.79,206.18c-0.56-1.68,0.38-1.75,1.54-1.75c11.28,0.02,22.55,0.01,33.93,0.01
			c0.46,0.39,0.33,0.99,0.19,1.74C444.62,206.18,432.77,206.18,420.79,206.18z"/>
		<path class="st32" d="M355.22,206.24c-11.97,0-23.83,0-35.68,0c-0.36-1.73-0.36-1.78,1.37-1.79c9.18-0.05,18.36-0.08,27.54-0.11
			c1.75-0.01,3.51,0.06,5.26-0.02C355.03,204.26,355.65,204.66,355.22,206.24z"/>
		<path class="st32" d="M319.45,210.83c-0.29-0.63-0.31-1.13,0.03-1.73c9.61,0,19.25,0,28.89,0c0.35,0.52,0.28,1.04,0.07,1.73
			C338.79,210.83,329.1,210.83,319.45,210.83z"/>
		<path class="st32" d="M449.62,209.1c0.65,1.91-0.57,1.9-1.78,1.9c-7.15-0.02-14.31-0.04-21.46-0.06c-1.42,0-2.84-0.05-4.25,0.03
			c-1.39,0.08-1.9-0.4-1.34-1.86C430.38,209.1,439.99,209.1,449.62,209.1z"/>
		<path class="st32" d="M370.06,209.09c9.71,0,19.34,0,28.94,0c0.37,0.58,0.22,1.1,0.16,1.56c-0.38,0.36-0.8,0.3-1.2,0.3
			c-8.78-0.01-17.56-0.03-26.34-0.03C370.49,210.93,369.47,210.91,370.06,209.09z"/>
		<path class="st32" d="M395.26,121.51c-15,0-30,0-45,0c-2.86,0-3.78-0.9-3.81-3.7c-0.01-1.15-0.02-2.3-0.02-3.45
			c0.02-2.47,0.91-3.38,3.43-3.38c9.39-0.02,18.78-0.02,28.17-0.02c20.54,0,41.08-0.01,61.62-0.01c3.19,0,3.98,0.76,4.04,3.89
			c0.02,1.01,0.03,2.03,0.02,3.04c-0.03,2.67-1.04,3.68-3.67,3.68c-14.39-0.02-28.78-0.03-43.17-0.05
			C396.34,121.5,395.8,121.51,395.26,121.51z M394.9,119.39C394.9,119.38,394.9,119.38,394.9,119.39c8.78-0.01,17.57,0,26.35-0.01
			c6.08,0,12.16-0.01,18.24-0.04c0.7,0,1.72,0.26,1.95-0.63c0.43-1.63,0.57-3.43-0.03-4.98c-0.43-1.13-1.93-0.61-2.94-0.61
			c-28.71-0.04-57.42-0.05-86.14-0.05c-4.21,0-3.68-0.34-3.76,3.66c-0.05,2.65,0,2.67,2.74,2.67
			C365.85,119.39,380.37,119.39,394.9,119.39z"/>
		<path class="st32" d="M321.77,114.72c3.24,0,6.48,0,9.89,0c0.05,1.08,0.09,1.92,0.14,3.06c-3.39,0-6.67,0-9.96,0
			c0,0.18,0,0.35,0.01,0.53c2.62,0.07,5.24,0.26,7.88,0c0.65-0.07,1.43-0.12,1.96,0.16c0.48,0.25,0.6,1.02,0.47,1.66
			c-0.15,0.73-0.65,0.93-1.34,0.93c-3.31-0.01-6.61-0.01-9.92-0.01c-1.08,0-1.59-0.53-1.58-1.63c0.02-1.96,0.02-3.91-0.02-5.87
			c-0.03-1.22,0.57-1.73,1.71-1.73c4.12-0.02,8.23-0.03,12.35-0.05c1.01,0,1.45,0.5,1.46,1.5c0.01,1.95,0.07,3.9,0.08,5.85
			c0.01,1.69-0.16,1.82-2.15,1.78c-0.55-2.14-0.32-4.34-0.24-6.63c-3.6,0-7.14,0-10.69,0C321.8,114.41,321.78,114.56,321.77,114.72z
			"/>
		<path class="st32" d="M459.26,117.47c0,1.28,0,2.14,0,3.03c-1.05,0.35-2.03,0.24-3.25,0.01c0.3-2.19-0.65-4.26-0.47-6.48
			c0.09-1.08,0.44-1.6,1.58-1.58c1.89,0.04,3.78,0.05,5.67-0.04c1.14-0.05,1.63,0.39,1.62,1.49c-0.01,0.68-0.02,1.35,0.01,2.03
			c0.05,1.09-0.35,1.63-1.53,1.55C461.72,117.41,460.53,117.47,459.26,117.47z"/>
		<path class="st32" d="M460.68,118.25c0.95,0,1.82,0,2.72,0c0.52,0.71,0.9,1.65,0.32,2.2c-0.82,0.78-2.01,0.4-3.14,0.23
			C460.34,119.82,460.23,119.02,460.68,118.25z"/>
		<path class="st32" d="M543.92,22.18c0,3.23-3.12,6.28-6.44,6.3c-3.21,0.02-6.08-3.02-6.04-6.38c0.04-3.49,2.79-6.13,6.43-6.17
			C541.29,15.91,543.92,18.62,543.92,22.18z"/>
		<path class="st21" d="M463.6,133.14c0,10.21,0,20.2,0,30.42c-47.68,0-95.3,0-143.07,0c0-9.99,0-20.16,0-30.42
			C368.19,133.14,415.81,133.14,463.6,133.14z"/>
		<path class="st21" d="M361.25,172.32c0,9.04,0,17.87,0,26.85c-13.57,0-27.05,0-40.74,0c0-8.88,0-17.81,0-26.85
			C334.04,172.32,347.53,172.32,361.25,172.32z"/>
		<path class="st21" d="M462.72,199.26c-13.67,0-27.17,0-40.82,0c0-8.97,0-17.9,0-26.94c13.61,0,27.15,0,40.82,0
			C462.72,181.3,462.72,190.18,462.72,199.26z"/>
		<path class="st21" d="M371.06,172.31c13.79,0,27.28,0,40.91,0c0,8.96,0,17.83,0,26.86c-13.59,0-27.19,0-40.91,0
			C371.06,190.28,371.06,181.36,371.06,172.31z"/>
		<path class="st21" d="M394.9,119.39c-14.53,0-29.05,0-43.58,0c-2.74,0-2.79-0.02-2.74-2.67c0.08-4.01-0.45-3.66,3.76-3.66
			c28.71,0.01,57.42,0.01,86.14,0.05c1.01,0,2.51-0.52,2.94,0.61c0.59,1.55,0.45,3.34,0.03,4.98c-0.23,0.89-1.25,0.63-1.95,0.63
			c-6.08,0.03-12.16,0.04-18.24,0.04C412.46,119.38,403.68,119.38,394.9,119.39C394.9,119.38,394.9,119.38,394.9,119.39z"/>
	</g>
</g>
</svg>
