<?xml version="1.0" encoding="utf-8"?>
<!-- Generator: Adobe Illustrator 24.3.0, SVG Export Plug-In . SVG Version: 6.00 Build 0)  -->
<svg version="1.1" id="Layer_1" xmlns="http://www.w3.org/2000/svg" xmlns:xlink="http://www.w3.org/1999/xlink" x="0px" y="0px"
	 width="166px" height="166.6px" viewBox="0 0 166 166.6" style="enable-background:new 0 0 166 166.6;" xml:space="preserve">
<style type="text/css">
	.st0{fill:#00B0FB;}
	.st1{fill:#00B0FB;fill-opacity:0.4;}
	.st2{fill:#FFFFFF;}
	.st3{fill:none;}
	.st4{fill:#001135;}
	.st5{fill:#3C7CFF;}
	.st6{fill:#3C7CFF;stroke:#001135;stroke-width:0.7602;stroke-miterlimit:10;}
	.st7{fill:#DBDBDB;}
	.st8{fill:#B9B9B9;}
	.st9{fill:#080808;}
	.st10{fill:#060606;}
	.st11{fill:#070707;}
	.st12{fill:#121212;}
	.st13{fill:#111111;}
	.st14{fill:#090909;}
	.st15{fill:#FDFDFD;}
	.st16{fill:#F9F9F9;}
	.st17{fill:#F3F2F3;}
	.st18{fill:#FAFAFA;}
	.st19{fill:#0A0A0A;}
	.st20{fill:#EEEEEE;}
	.st21{fill:#0D0D0D;}
	.st22{fill:#0C0C0C;}
	.st23{fill:#0E0E0E;}
	.st24{fill:#050505;}
	.st25{fill:#3A3A3A;}
	.st26{fill:#525252;}
	.st27{fill:#474747;}
	.st28{fill:#1E1E1E;}
	.st29{fill:#1D1D1D;}
	.st30{fill:#222222;}
	.st31{fill:#494949;}
	.st32{fill:#585858;}
	.st33{fill:#EDEDED;}
	.st34{fill:#F0F0F0;}
	.st35{fill:#EAEAEA;}
	.st36{fill:#EAE9EA;}
	.st37{fill:#040404;}
	.st38{fill:#F4F3F4;}
	.st39{fill:#030303;}
	.st40{fill:#E8E8E8;}
	.st41{fill:#0C0C0B;}
	.st42{fill:#0D0D0C;}
	.st43{fill:#919191;}
	.st44{fill:#909090;}
	.st45{fill:#0E0E0D;}
	.st46{fill:#0C0D0C;}
	.st47{fill:#090908;}
	.st48{fill:#141414;}
	.st49{fill:#4C4D4D;}
	.st50{fill:#737474;}
	.st51{fill:#242424;}
	.st52{fill:#202020;}
	.st53{fill:#101010;}
	.st54{fill:#0D0E0D;}
	.st55{fill:#111212;}
	.st56{fill:#0B0B0B;}
	.st57{fill:#0D0C0C;}
	.st58{fill:#E7E7E7;}
	.st59{fill:#272727;}
	.st60{fill:#2E2E2E;}
	.st61{fill:#1F1E1E;}
	.st62{fill:#1B1A1A;}
	.st63{fill:#E6E6E6;}
	.st64{fill:#0F0E0E;}
	.st65{fill:#F2F2F2;}
	.st66{fill:#F4F3F3;}
	.st67{fill:#F9F8F8;}
	.st68{fill:#F1F1F0;}
	.st69{fill:#F6F6F6;}
	.st70{fill:#F5F6F6;}
	.st71{fill:#F5F5F5;}
	.st72{fill:#2C2C2C;}
	.st73{fill:#252625;}
	.st74{fill:#303030;}
	.st75{fill:#2D2D2C;}
	.st76{fill:#2D2D2D;}
	.st77{fill:#262727;}
	.st78{fill:#191919;}
	.st79{fill:#1B1B1B;}
	.st80{fill:#F7F7F7;}
	.st81{fill:#F6F7F7;}
	.st82{fill:#F9F9FA;}
	.st83{fill:#F4F4F4;}
	.st84{fill:#F8F8F8;}
	.st85{fill:#FCFCFC;}
	.st86{fill:#FBFBFB;}
	.st87{fill:#E2E1E2;}
	.st88{fill:#D8D7D8;}
	.st89{fill:#0F0F0F;}
	.st90{fill:#161616;}
	.st91{fill:#181818;}
	.st92{fill:#131313;}
	.st93{fill-rule:evenodd;clip-rule:evenodd;fill:#00B0FB;}
	.st94{fill:#030302;}
	.st95{fill:#D2D3D3;}
	.st96{fill:#1F1F1F;}
	.st97{fill:#0E0D0E;}
	.st98{fill:#BABBBB;}
	.st99{fill:#8A8A8A;}
	.st100{fill:#8E8F8F;}
	.st101{fill:#464746;}
	.st102{fill:#5F5E5E;}
	.st103{fill:#151414;}
	.st104{fill:#282828;}
	.st105{fill:#030202;}
	.st106{fill:#040403;}
	.st107{fill:#040303;}
	.st108{fill:#202021;}
	.st109{fill:#020202;}
	.st110{fill:#050506;}
	.st111{fill:#010101;}
	.st112{fill:#F3F3F3;}
	.st113{fill:#F1F1F1;}
	.st114{fill:#FAFAF9;}
	.st115{fill:#040504;}
	.st116{fill:#070708;}
	.st117{fill:#131212;}
	.st118{fill:#070808;}
	.st119{fill:#3C3C3C;}
	.st120{fill:#FEFEFE;}
	.st121{fill:#47C5FB;}
	.st122{fill:#00569E;}
	.st123{fill:#00B5F8;}
	.st124{fill:url(#SVGID_1_);fill-opacity:0.8;}
	.st125{fill-rule:evenodd;clip-rule:evenodd;fill:#00D8FF;}
	.st126{fill:#00D8FF;}
	.st127{fill:url(#SVGID_2_);}
	.st128{fill:url(#SVGID_3_);}
	.st129{fill:url(#SVGID_4_);}
	.st130{fill:url(#SVGID_5_);}
	.st131{fill:#3C7DFE;}
	.st132{fill:#A4C639;}
	.st133{fill:none;stroke:#A4C639;stroke-width:10.5192;stroke-linecap:round;stroke-linejoin:round;stroke-miterlimit:14.0256;}
	.st134{fill:#D6D6D6;}
	.st135{fill:#030203;}
	.st136{fill:#070606;}
	.st137{fill:#010100;}
	.st138{fill:#020201;}
</style>
<g>
	<path class="st0" d="M5.8,148.3h10.5V146h-5.4c-2.7,0-4.9-2.2-4.9-4.9V40.5l0-0.2c0-0.4,0.3-0.7,0.7-0.7h9.7v-2H2.5
		C2.2,38.5,2,39.5,2,40.5v100.6C2,144.1,3.5,146.7,5.8,148.3z"/>
	<path class="st0" d="M78.4,86.1H36.6c-0.3,0-0.5,0.1-0.6,0.4c-0.1,0.2-0.1,0.5,0,0.7l15.7,24.7c0.2,0.3,0.3,0.7,0.3,1v13.7
		c0,0.2,0.1,0.5,0.3,0.6c0.1,0.1,0.2,0.1,0.4,0.1c0.1,0,0.2,0,0.3-0.1l9.5-5c0.2-0.1,0.4-0.4,0.4-0.6v-8.7c0-0.4,0.1-0.7,0.3-1
		L79,87.2c0.1-0.2,0.1-0.5,0-0.7C78.9,86.3,78.7,86.1,78.4,86.1z"/>
	<path class="st1" d="M115.8,92.8c0.1,0,0.2,0,0.3-0.1c1.8-0.9,3.7-1.6,5.6-2.1c0.3-0.1,0.5-0.4,0.5-0.7v-3.6c0-1.1,0.9-1.9,1.9-1.9
		h3.1c0.4,0,0.7-0.3,0.7-0.7V25.5c0-2.7-2.2-5-5-5h-7.2c-0.4,0-0.7,0.3-0.7,0.7v70.8c0,0.2,0.1,0.5,0.3,0.6
		C115.5,92.7,115.6,92.8,115.8,92.8z"/>
	<path class="st1" d="M127.2,156.7h-3.1c-1.1,0-1.9-0.9-1.9-1.9v-3.6c0-0.3-0.2-0.6-0.5-0.7c-2.5-0.7-4.9-1.7-7.2-3
		c-0.1-0.1-0.2-0.1-0.3-0.1c-0.2,0-0.4,0.1-0.5,0.2l-2.6,2.6c-0.4,0.4-0.9,0.6-1.4,0.6c-0.5,0-1-0.2-1.4-0.6l-0.1-0.1
		c-0.1-0.1-0.3-0.2-0.5-0.2c0,0-0.1,0-0.1,0c-0.5,0.1-0.9,0.1-1.3,0.1h-85c-0.4,0-0.7,0.3-0.7,0.7v7.2c0,2.7,2.2,5,5,5h97.4
		c2.7,0,5-2.2,5-5v-0.4C127.9,157,127.6,156.7,127.2,156.7z"/>
	<path class="st0" d="M129.8,104.6c-8.7,0-15.9,7.1-15.9,15.9s7.1,15.9,15.9,15.9c8.7,0,15.9-7.1,15.9-15.9S138.6,104.6,129.8,104.6
		z"/>
	<path class="st2" d="M84.2,74.7H30.9c-3.1,0-5.7,2.6-5.7,5.7c0,3,2.3,5.4,5.3,5.7c0.2,0,0.4,0.1,0.5,0.3l17.1,26.9
		c0.1,0.1,0.1,0.2,0.1,0.4V131c0,1.1,0.9,1.9,1.9,1.9c0.3,0,0.6-0.1,0.9-0.2l14.8-7.8c0.6-0.3,1-1,1-1.7v-9.5c0-0.1,0-0.3,0.1-0.4
		l17.1-26.9c0.1-0.2,0.3-0.3,0.5-0.3c2.9-0.2,5.2-2.7,5.2-5.7C89.9,77.3,87.3,74.7,84.2,74.7z M79,87.2l-15.7,24.7
		c-0.2,0.3-0.3,0.7-0.3,1v8.7c0,0.3-0.1,0.5-0.4,0.6l-9.5,5c-0.1,0.1-0.2,0.1-0.3,0.1s-0.2,0-0.4-0.1c-0.2-0.1-0.3-0.4-0.3-0.6
		v-13.7c0-0.4-0.1-0.7-0.3-1L36.1,87.2c-0.1-0.2-0.1-0.5,0-0.7c0.1-0.2,0.4-0.4,0.6-0.4h41.8c0.2,0,0.5,0.1,0.6,0.4
		C79.2,86.7,79.1,87,79,87.2z M84.2,83H30.9c-1,0-1.8-1-1.8-2.2c0-0.7,0.2-1.3,0.7-1.7c0.3-0.3,0.7-0.5,1.2-0.5h53.3
		c1,0,1.8,1,1.8,2.2S85.2,83,84.2,83z"/>
	<path class="st2" d="M164.1,112.8h-3.6c-0.3,0-0.6-0.2-0.7-0.5c-0.7-2.5-1.7-4.9-3-7.2c-0.2-0.3-0.1-0.6,0.1-0.9l2.6-2.6
		c0.4-0.4,0.6-0.8,0.6-1.4c0-0.5-0.2-1-0.6-1.4l-8.1-8.1c-0.4-0.4-0.9-0.6-1.4-0.6c-0.5,0-1,0.2-1.4,0.6l-2.6,2.6
		c-0.1,0.1-0.3,0.2-0.5,0.2c-0.1,0-0.2,0-0.4-0.1c-2.3-1.3-4.7-2.3-7.2-3c-0.3-0.1-0.5-0.4-0.5-0.7v-3.6c0-1.1-0.9-1.9-1.9-1.9h-3.1
		c-0.4,0-0.7-0.3-0.7-0.7V25.5c0-4.9-4-8.8-8.8-8.8h-7.2c-0.4,0-0.7-0.3-0.7-0.7V8.8c0-4.9-4-8.8-8.8-8.8H40.5
		c-2.4,0-4.6,0.9-6.2,2.6L2.6,34.3C0.9,36,0,38.1,0,40.5v100.6c0,4.9,4,8.8,8.8,8.8H16c0.4,0,0.7,0.3,0.7,0.7v7.2
		c0,4.9,4,8.8,8.8,8.8h97.4c4.9,0,8.8-4,8.8-8.8v-0.4c0-0.4,0.3-0.7,0.7-0.7h3.1c1.1,0,1.9-0.9,1.9-1.9v-3.6c0-0.3,0.2-0.6,0.5-0.7
		c2.5-0.7,4.9-1.7,7.2-3c0.1-0.1,0.2-0.1,0.4-0.1c0.2,0,0.4,0.1,0.5,0.2l2.6,2.6c0.4,0.4,0.8,0.6,1.4,0.6c0.5,0,1-0.2,1.4-0.6
		l8.1-8.1c0.4-0.4,0.6-0.9,0.6-1.4c0-0.5-0.2-1-0.6-1.4l-2.6-2.6c-0.2-0.2-0.3-0.6-0.1-0.8c1.3-2.3,2.3-4.7,3-7.2
		c0.1-0.3,0.4-0.5,0.7-0.5h3.6c1.1,0,1.9-0.9,1.9-1.9v-11.4C166,113.7,165.1,112.8,164.1,112.8z M115.1,21.3c0-0.4,0.3-0.7,0.7-0.7
		h7.2c2.7,0,5,2.2,5,4.9v58.1c0,0.4-0.3,0.7-0.7,0.7h-3.1c-1.1,0-1.9,0.9-1.9,1.9v3.6c0,0.3-0.2,0.6-0.5,0.7
		c-1.9,0.5-3.8,1.2-5.6,2.1c-0.1,0-0.2,0.1-0.3,0.1c-0.1,0-0.2,0-0.4-0.1c-0.2-0.1-0.3-0.3-0.3-0.6V21.3z M7.8,34.5L34.5,7.8
		c0.1-0.1,0.3-0.2,0.5-0.2c0.1,0,0.2,0,0.3,0c0.3,0.1,0.4,0.4,0.4,0.7v23.1c0,2.4-1.9,4.3-4.3,4.3H8.3c-0.3,0-0.5-0.2-0.6-0.4
		C7.5,35,7.6,34.7,7.8,34.5z M8.8,146c-2.7,0-4.9-2.2-4.9-4.9V40.5l0-0.2c0-0.4,0.3-0.7,0.7-0.7h26.8c4.5,0,8.2-3.7,8.2-8.2V4.6
		c0-0.4,0.4-0.7,0.7-0.7c0.1,0,0.1,0,0.2,0h65.7c2.7,0,4.9,2.2,4.9,4.9v80.9c0,0.2-0.1,0.4-0.3,0.6c-0.1,0.1-0.3,0.1-0.4,0.1
		c-0.1,0-0.1,0-0.2,0c-0.2-0.1-0.4-0.1-0.6-0.1c-0.5,0-1,0.2-1.4,0.6l-8.1,8.1c-0.4,0.4-0.6,0.9-0.6,1.4c0,0.5,0.2,1,0.6,1.4
		l2.6,2.6c0.2,0.2,0.3,0.6,0.1,0.9c-1.3,2.3-2.3,4.7-3,7.2c-0.1,0.3-0.4,0.5-0.7,0.5h-3.6c-1.1,0-1.9,0.9-1.9,1.9v11.4
		c0,1.1,0.9,1.9,1.9,1.9h3.6c0.3,0,0.6,0.2,0.7,0.5c0.7,2.5,1.7,5,3,7.2c0.1,0.3,0.1,0.6-0.1,0.8l-2.6,2.6c-0.4,0.4-0.6,0.9-0.6,1.4
		c0,0.5,0.2,1,0.6,1.4l2.8,2.8c0.2,0.2,0.3,0.5,0.1,0.8c-0.1,0.3-0.4,0.4-0.6,0.4H8.8z M127.9,157.8c0,2.7-2.2,4.9-5,4.9H25.5
		c-2.7,0-4.9-2.2-4.9-4.9v-7.2c0-0.4,0.3-0.7,0.7-0.7h85c0.4,0,0.9,0,1.3-0.1h0.1c0.2,0,0.4,0.1,0.5,0.2l0.1,0.1
		c0.4,0.4,0.9,0.6,1.4,0.6s1-0.2,1.4-0.6l2.6-2.6c0.1-0.1,0.3-0.2,0.5-0.2c0.1,0,0.2,0,0.3,0.1c2.3,1.3,4.7,2.3,7.2,3
		c0.3,0.1,0.5,0.4,0.5,0.7v3.6c0,1.1,0.9,1.9,1.9,1.9h3.1c0.4,0,0.7,0.3,0.7,0.7V157.8z M162.1,123.6c0,0.4-0.3,0.7-0.7,0.7h-3.1
		c-0.9,0-1.7,0.7-1.9,1.6c-0.7,3.5-2.1,6.8-4,9.7c-0.5,0.8-0.4,1.8,0.2,2.4l2.2,2.2c0.3,0.3,0.3,0.7,0,1l-4.4,4.3
		c-0.1,0.1-0.3,0.2-0.5,0.2c-0.2,0-0.4-0.1-0.5-0.2l-2.2-2.2c-0.4-0.4-0.9-0.6-1.4-0.6c-0.4,0-0.8,0.1-1.1,0.3c-3,2-6.2,3.3-9.7,4
		c-0.9,0.2-1.6,1-1.6,1.9v3.1c0,0.4-0.3,0.7-0.7,0.7h-6.1c-0.4,0-0.7-0.3-0.7-0.7V149c0-0.9-0.7-1.7-1.6-1.9c-3.5-0.7-6.8-2-9.7-4
		c-0.3-0.2-0.7-0.3-1.1-0.3c-0.5,0-1,0.2-1.4,0.6l-2.2,2.2c-0.1,0.1-0.3,0.2-0.5,0.2c-0.2,0-0.4-0.1-0.5-0.2l-4.4-4.3
		c-0.3-0.3-0.3-0.7,0-1l2.2-2.2c0.7-0.6,0.8-1.7,0.2-2.4c-2-3-3.3-6.2-4-9.7c-0.2-0.9-1-1.6-1.9-1.6h-3.1c-0.4,0-0.7-0.3-0.7-0.7
		v-6.2c0-0.4,0.3-0.7,0.7-0.7h3.1c0.9,0,1.7-0.6,1.9-1.5c0.7-3.5,2.1-6.8,4-9.7c0.5-0.8,0.4-1.8-0.2-2.4l-2.2-2.2
		c-0.1-0.1-0.2-0.3-0.2-0.5c0-0.2,0.1-0.4,0.2-0.5l4.4-4.4c0.1-0.1,0.3-0.2,0.5-0.2c0.2,0,0.4,0.1,0.5,0.2l2.2,2.2
		c0.4,0.4,0.8,0.6,1.4,0.6c0.4,0,0.8-0.1,1.1-0.3c2.9-2,6.2-3.3,9.7-4c0.9-0.2,1.6-1,1.6-1.9v-3.1c0-0.4,0.3-0.7,0.7-0.7h6.1
		c0.4,0,0.7,0.3,0.7,0.7V92c0,0.9,0.7,1.7,1.6,1.9c3.5,0.7,6.8,2,9.7,4c0.3,0.2,0.7,0.3,1.1,0.3c0.5,0,1-0.2,1.4-0.6l2.2-2.2
		c0.1-0.1,0.3-0.2,0.5-0.2c0.2,0,0.4,0.1,0.5,0.2l4.4,4.4c0.3,0.3,0.3,0.7,0,1l-2.2,2.2c-0.6,0.7-0.8,1.7-0.2,2.4c2,3,3.3,6.2,4,9.7
		c0.2,0.9,1,1.5,1.9,1.5h3.1c0.4,0,0.7,0.3,0.7,0.7V123.6z"/>
	<path class="st2" d="M129.8,100.8c-10.9,0-19.7,8.9-19.7,19.7c0,10.9,8.8,19.7,19.7,19.7c10.9,0,19.7-8.9,19.7-19.7
		C149.6,109.6,140.7,100.8,129.8,100.8z M129.8,136.4c-8.8,0-15.9-7.1-15.9-15.9s7.1-15.9,15.9-15.9s15.9,7.1,15.9,15.9
		S138.6,136.4,129.8,136.4z"/>
	<path class="st2" d="M98.7,57.7c0,1.1-0.9,1.9-1.9,1.9H18.3c-1.1,0-1.9-0.9-1.9-1.9c0-1.1,0.9-1.9,1.9-1.9h78.4
		C97.8,55.8,98.7,56.6,98.7,57.7z"/>
	<path class="st2" d="M96.7,18.2H55.5c-1.1,0-1.9,0.9-1.9,1.9v18.2c0,1.1,0.9,1.9,1.9,1.9h41.2c1.1,0,1.9-0.9,1.9-1.9V20.2
		C98.7,19.1,97.8,18.2,96.7,18.2z M94.8,35.8c0,0.4-0.3,0.7-0.7,0.7H58.2c-0.4,0-0.7-0.3-0.7-0.7v-13c0-0.4,0.3-0.7,0.7-0.7h35.9
		c0.4,0,0.7,0.3,0.7,0.7V35.8z"/>
</g>
</svg>
