<?xml version="1.0" encoding="utf-8"?>
<!-- Generator: Adobe Illustrator 24.3.0, SVG Export Plug-In . SVG Version: 6.00 Build 0)  -->
<svg version="1.1" id="Layer_1" xmlns="http://www.w3.org/2000/svg" xmlns:xlink="http://www.w3.org/1999/xlink" x="0px" y="0px"
	 width="133.4px" height="131.2px" viewBox="0 0 133.4 131.2" style="enable-background:new 0 0 133.4 131.2;" xml:space="preserve"
	>
<style type="text/css">
	.st0{fill:#00B0FB;}
	.st1{fill:#00B0FB;fill-opacity:0.4;}
	.st2{fill:#FFFFFF;}
	.st3{fill:#185AE9;}
	.st4{fill-rule:evenodd;clip-rule:evenodd;fill:#00B0FB;}
	.st5{fill:none;}
	.st6{fill:#001135;}
	.st7{fill:#3C7CFF;}
	.st8{fill:#DBDBDB;}
	.st9{fill:#0A0A0A;}
	.st10{fill:#FEFDFE;}
	.st11{fill:#030302;}
	.st12{fill:#FCFCFC;}
	.st13{fill:#D2D3D3;}
	.st14{fill:#1F1F1F;}
	.st15{fill:#F6F6F6;}
	.st16{fill:#0E0D0E;}
	.st17{fill:#BABBBB;}
	.st18{fill:#8A8A8A;}
	.st19{fill:#8E8F8F;}
	.st20{fill:#464746;}
	.st21{fill:#5F5E5E;}
	.st22{fill:#0B0B0B;}
	.st23{fill:#090909;}
	.st24{fill:#151414;}
	.st25{fill:#101010;}
	.st26{fill:#282828;}
	.st27{fill-rule:evenodd;clip-rule:evenodd;}
</style>
<g>
	<path class="st0" d="M132.2,24.3l-25.9-9.4c0.1,0.5,0.2,0.9,0.2,1.4c0.2,0.4,0.4,0.8,0.6,1.2l20.7,7.5c1.5,0.5,2.4,1.9,2.4,3.5
		v39.6c0,43.9-42,58.2-50.4,60.6c-0.3,0.1-0.7,0.2-1,0.2c-0.4,0-0.7-0.1-1.1-0.2c0,0-0.1,0-0.1,0c0.1,0.3,0.2,0.5,0.3,0.8
		c0.7,0.4,1.4,0.9,2,1.4c7.2-2.1,52.4-16.9,52.4-62.8V24.6C132.4,24.5,132.3,24.4,132.2,24.3z"/>
	<path class="st0" d="M66.4,43.4c0.1-0.2,0.2-0.4,0.1-0.6c-0.6-2.5-0.9-5.2-1-7.9c0-0.4-0.4-0.7-0.8-0.7h-8c-0.2,0-0.4,0.1-0.5,0.2
		C56.1,34.6,56,34.8,56,35c0.2,3.5,1.2,6.8,3,9.8c0.1,0.2,0.4,0.4,0.7,0.4c0.1,0,0.1,0,0.2,0c1.8-0.5,3.8-1,6-1.4
		C66.1,43.7,66.3,43.6,66.4,43.4z"/>
	<path class="st1" d="M26.3,55.4l-10.7-5.5c-4.9-2.5-10.9-0.5-13.4,4.3c-1.2,2.4-1.4,5.1-0.6,7.6c0.8,2.5,2.6,4.6,5,5.8l3.9,2.1
		c0.1,0.1,0.2,0.1,0.3,0.1c0.9,0.4,2,0,2.4-0.9c0.2-0.4,0.2-0.9,0.1-1.3c-0.2-0.5-0.5-0.9-1-1.1L8,64.4c-1.4-0.8-2.5-2.1-3-3.7
		c-0.5-1.6-0.3-3.3,0.5-4.8c0.8-1.6,2.2-2.7,3.8-3.2c1.6-0.5,3.3-0.3,4.8,0.4l12.3,6.3l2.1,1.1l0.3,0.1c1.5,0.7,2.7,2.1,3.2,3.7
		c0.4,1.3,0.4,2.7,0,3.9c0,0.1-0.1,0.2-0.1,0.2c-0.1,0.4-0.1,0.7,0,1.1c0,0.1,0.1,0.2,0.2,0.4c0.2,0.4,0.6,0.7,1.1,0.8
		c0.5,0.1,1,0.1,1.4-0.2c0.4-0.3,0.7-0.6,0.8-1.1c0.7-2,0.7-4.2,0-6.2c-0.1-0.2-0.1-0.4-0.2-0.6c-0.9-2.3-2.6-4.1-4.7-5.2l-1.9-1
		L26.3,55.4z"/>
	<path class="st0" d="M56.8,32.8h7.9c0.4,0,0.7-0.3,0.8-0.7c0.1-2.8,0.4-5.6,1-8.1c0-0.2,0-0.4-0.1-0.6c-0.1-0.2-0.3-0.3-0.5-0.3
		c-2.2-0.4-4.2-0.8-5.9-1.4c-0.1,0-0.2,0-0.2,0c-0.3,0-0.5,0.1-0.6,0.4c-1.8,3-2.9,6.5-3.1,10c0,0.2,0.1,0.4,0.2,0.6
		C56.4,32.7,56.6,32.8,56.8,32.8z"/>
	<path class="st0" d="M61.3,20.6c1.5,0.4,3.2,0.8,5.1,1.1c0,0,0.1,0,0.1,0c0.3,0,0.6-0.2,0.7-0.5c0.5-1.6,1.1-3.1,1.8-4.4
		c0.6-1.1,1.3-2.2,2-3c0.2-0.3,0.2-0.6,0-0.9c-0.2-0.2-0.4-0.3-0.6-0.3c-0.1,0-0.2,0-0.3,0.1c-2.9,1.1-5.5,2.8-7.7,5
		c-0.5,0.5-1.1,1.1-1.6,1.7c-0.2,0.2-0.2,0.5-0.1,0.7C60.9,20.4,61.1,20.6,61.3,20.6z"/>
	<path class="st0" d="M69.1,50c-0.7-1.3-1.3-2.8-1.9-4.4c-0.1-0.3-0.4-0.5-0.7-0.5c0,0-0.1,0-0.1,0c-1.9,0.3-3.7,0.7-5.3,1.1
		c-0.2,0.1-0.4,0.2-0.5,0.5c-0.1,0.2,0,0.5,0.1,0.7c0.5,0.7,1.1,1.4,1.8,2c2.3,2.3,4.9,4,7.9,5.1c0.1,0,0.2,0.1,0.3,0.1
		c0.2,0,0.5-0.1,0.6-0.3c0.2-0.3,0.2-0.7,0-0.9C70.5,52.3,69.7,51.2,69.1,50z"/>
	<path class="st0" d="M79.8,22.7C79.8,22.7,79.8,22.7,79.8,22.7c2.6,0,5.1-0.2,7.5-0.4c0.2,0,0.4-0.1,0.5-0.4
		c0.1-0.2,0.2-0.4,0.1-0.6c-0.5-1.3-1-2.6-1.6-3.7c-1.8-3.3-4-5.5-6.4-6.1c-0.1,0-0.1,0-0.2,0c-0.2,0-0.3,0-0.5,0.1
		c-0.2,0.1-0.3,0.4-0.3,0.6v9.8c0,0.2,0.1,0.4,0.2,0.5C79.4,22.6,79.6,22.7,79.8,22.7z"/>
	<path class="st0" d="M87.9,45.7c0.1-0.2,0-0.5-0.1-0.6c-0.1-0.2-0.3-0.3-0.6-0.4c-2.4-0.3-4.9-0.4-7.5-0.5h0
		c-0.2,0-0.4,0.1-0.5,0.2c-0.1,0.1-0.2,0.3-0.2,0.5v9.8c0,0.2,0.1,0.5,0.3,0.6c0.1,0.1,0.3,0.1,0.5,0.1c0.1,0,0.1,0,0.2,0
		c2.4-0.7,4.6-2.8,6.4-6.1C86.9,48.2,87.5,47,87.9,45.7z"/>
	<path class="st0" d="M79.7,42.8c2.8,0.1,5.6,0.2,8.2,0.6H88c0.3,0,0.6-0.2,0.7-0.6c0.6-2.5,1-5.1,1-7.9c0-0.2-0.1-0.4-0.2-0.6
		c-0.1-0.1-0.3-0.2-0.5-0.2h-9.3c-0.4,0-0.8,0.3-0.8,0.8v7.1C79,42.5,79.3,42.8,79.7,42.8z"/>
	<path class="st1" d="M52.3,80c1.2-2.4,1.4-5.1,0.6-7.6l-0.1-0.4c-0.9-2.4-2.6-4.3-4.8-5.4L44,64.5c-0.1-0.1-0.2-0.1-0.2-0.1
		c-0.4-0.2-0.9-0.2-1.4,0c-0.5,0.2-0.8,0.5-1,0.9c-0.2,0.4-0.2,0.9-0.1,1.3c0.1,0.5,0.5,0.9,1,1.1l4.2,2.2c1.5,0.8,2.5,2.1,3.1,3.7
		c0.5,1.6,0.3,3.3-0.4,4.8c-0.8,1.5-2.2,2.7-3.8,3.2c-1.6,0.5-3.3,0.3-4.8-0.4l-11.7-6l-2.3-1.2l-0.8-0.4c-1.5-0.8-2.6-2.1-3.2-3.7
		c-0.4-1.3-0.4-2.7,0-4c0.1-0.3,0.1-0.7,0-1c-0.2-0.5-0.6-1-1.1-1.1c-0.5-0.2-0.9-0.1-1.4,0.1s-0.8,0.6-0.9,1c-0.7,2-0.7,4.2,0,6.2
		c0.8,2.5,2.6,4.6,5,5.8l3,1.5l2.4,1.2l9.4,4.8C43.8,86.8,49.8,84.8,52.3,80z"/>
	<path class="st0" d="M79.8,32.8h9.3c0.2,0,0.4-0.1,0.5-0.2c0.1-0.1,0.2-0.3,0.2-0.5c-0.1-2.8-0.4-5.4-1-7.9
		c-0.1-0.3-0.4-0.6-0.7-0.6c0,0-0.1,0-0.1,0c-2.6,0.3-5.4,0.5-8.2,0.5c-0.4,0-0.8,0.4-0.8,0.8v7.3C79,32.5,79.3,32.8,79.8,32.8z"/>
	<path class="st2" d="M133.2,24.3l-27.3-9.9C99.8,5.7,89.7,0,78.3,0c-12,0-22.5,6.3-28.5,15.8l-23.4,8.5c-0.1,0-0.2,0.2-0.2,0.3
		v29.6L16,49c-5.4-2.7-12-0.6-14.8,4.8c-1.3,2.6-1.6,5.6-0.7,8.4v0C1.5,65,3.4,67.3,6,68.6l3.9,2.1c0.1,0.1,0.3,0.2,0.4,0.2
		c0.7,0.3,1.5,0.3,2.2,0c0.7-0.3,1.3-0.8,1.6-1.5c0.3-0.6,0.3-1.4,0.1-2c-0.2-0.8-0.8-1.4-1.5-1.7l-4.1-2.2
		c-1.2-0.6-2.1-1.7-2.5-2.9l0-0.1c-0.4-1.3-0.3-2.7,0.4-4l0.1-0.1c0.6-1.2,1.7-2.1,3.1-2.6c1.3-0.4,2.8-0.3,4,0.4l12.8,6.6l1.9,1
		c0.1,0,0.1,0.1,0.2,0.1c1.2,0.6,2,1.7,2.4,3c0.4,1.1,0.4,2.2,0,3.2c0,0.1-0.1,0.2-0.1,0.3c-0.2,0.5-0.1,1.1,0,1.6
		c0.1,0.2,0.2,0.4,0.2,0.6c0.4,0.7,1,1.1,1.7,1.4c0.7,0.2,1.5,0.1,2.2-0.3c0.7-0.4,1.1-1,1.3-1.7c0.7-2.2,0.8-4.7,0-6.9
		c-0.1-0.2-0.2-0.5-0.3-0.7c-1-2.4-2.9-4.5-5.2-5.7l-2.4-1.2V28.5c0-1.6,1-2.9,2.4-3.5l17.4-6.3c-2.2,4.5-3.5,9.5-3.5,14.8
		C44.8,52,59.8,67,78.3,67c18.5,0,33.5-15,33.5-33.5c0-5.9-1.5-11.4-4.2-16.2l21.1,7.7c1.5,0.5,2.4,1.9,2.4,3.5v39.6
		c0,43.9-42,58.2-50.4,60.6c-0.3,0.1-0.7,0.2-1,0.2c-0.4,0-0.7-0.1-1.1-0.2c-7.5-2.2-42-14.2-49.1-47.9l8.7,4.4l0.3,0.1
		c5.3,2.5,11.9,0.3,14.6-4.9c1.2-2.4,1.5-5.2,0.8-7.8L53.9,72c-0.9-2.8-2.9-5.1-5.5-6.4l-3.9-2.1c-0.1-0.1-0.2-0.1-0.3-0.2
		c-1.5-0.7-3.1,0-3.8,1.4c-0.3,0.7-0.3,1.4-0.1,2.1c0.2,0.8,0.8,1.4,1.5,1.7l4.1,2.2c1.2,0.6,2.1,1.7,2.5,3.1
		c0.4,1.3,0.3,2.8-0.4,4.1c-1.3,2.6-4.5,3.6-7.1,2.2l-12.3-6.3l-2.2-1.2l-0.2-0.1c-1.3-0.6-2.2-1.7-2.6-3.1c-0.3-1.1-0.3-2.2,0-3.3
		c0.1-0.6,0.1-1.1,0-1.7c-0.3-0.8-0.9-1.5-1.7-1.8c-1.5-0.5-3.1,0.2-3.7,1.7c-0.8,2.2-0.8,4.6,0,6.8c0.9,2.8,2.8,5.1,5.5,6.4
		l3.7,1.9c7.1,39.5,50.3,51.1,52.3,51.6l0.2,0.1c0,0,0.1,0,0.1,0l0.1,0l0.1,0c2.2-0.6,53.3-14.3,53.3-63.1V24.6
		C133.4,24.5,133.3,24.4,133.2,24.3z M30.3,57.5c2.1,1.1,3.8,2.9,4.7,5.2c0.1,0.2,0.2,0.4,0.2,0.6c0.6,2,0.6,4.2,0,6.2
		c-0.1,0.4-0.4,0.8-0.8,1.1c-0.4,0.2-0.9,0.3-1.4,0.2c-0.5-0.1-0.9-0.4-1.1-0.8c-0.1-0.1-0.1-0.2-0.2-0.4c-0.1-0.3-0.1-0.7,0-1.1
		c0-0.1,0-0.1,0.1-0.2c0.4-1.3,0.4-2.6,0-3.9c-0.5-1.6-1.7-3-3.2-3.7l-0.3-0.1l-2.1-1.1l-12.3-6.3c-1.5-0.8-3.2-0.9-4.8-0.4
		c-1.6,0.5-3,1.6-3.8,3.2c-0.8,1.5-1,3.2-0.5,4.8c0.5,1.6,1.6,2.9,3,3.7l4.2,2.2c0.5,0.2,0.8,0.6,1,1.1c0.1,0.4,0.1,0.9-0.1,1.3
		c-0.4,0.9-1.5,1.3-2.4,0.9c-0.1,0-0.2-0.1-0.3-0.1l-3.9-2.1c-2.4-1.2-4.1-3.3-5-5.8c-0.8-2.5-0.6-5.2,0.6-7.6
		c2.5-4.9,8.5-6.8,13.4-4.3l10.7,5.5l2.1,1.1L30.3,57.5z M109.8,33.5c0,17.4-14.1,31.5-31.5,31.5S46.8,50.9,46.8,33.5
		c0-5.8,1.6-11.2,4.3-15.8c0.6-1,1.3-2,2-3c0,0,0,0,0,0C58.8,7,68,2,78.3,2c9.6,0,18.2,4.3,24,11.1c0.8,1,1.6,2,2.3,3.1
		C107.9,21.2,109.8,27.1,109.8,33.5z M27.1,78.2l-3-1.5c-2.4-1.2-4.1-3.3-5-5.8c-0.7-2-0.6-4.1,0-6.2c0.2-0.4,0.5-0.8,0.9-1
		s0.9-0.2,1.4-0.1c0.5,0.2,0.9,0.6,1.1,1.1c0.1,0.3,0.1,0.7,0,1c-0.4,1.3-0.4,2.7,0,4c0.5,1.6,1.6,2.9,3.2,3.7l0.8,0.4l2.3,1.2
		l11.7,6c1.5,0.8,3.2,0.9,4.8,0.4c1.6-0.5,3-1.7,3.8-3.2c0.8-1.5,0.9-3.2,0.4-4.8c-0.5-1.6-1.6-2.9-3.1-3.7l-4.2-2.2
		c-0.4-0.2-0.8-0.6-1-1.1c-0.1-0.4-0.1-0.9,0.1-1.3c0.2-0.4,0.6-0.8,1-0.9c0.5-0.2,0.9-0.1,1.4,0c0.1,0,0.2,0.1,0.2,0.1l3.9,2.1
		c2.2,1.1,3.9,3,4.8,5.4l0.1,0.4c0.8,2.5,0.6,5.2-0.6,7.6c-2.5,4.9-8.5,6.8-13.4,4.3l-9.4-4.8L27.1,78.2z"/>
	<path class="st2" d="M112.1,68.3l-35.3,35.3c-0.6,0.6-1.5,1-2.3,1c-0.8,0-1.7-0.3-2.3-1L57.5,88.9l-2.7,2.7l19.7,19.7L114.8,71
		L112.1,68.3z"/>
	<path class="st2" d="M95.1,16.7c-4.5-4.5-10.4-6.9-16.8-6.9S66,12.2,61.5,16.7c-4.5,4.5-6.9,10.4-6.9,16.8s2.5,12.3,6.9,16.8
		c4.5,4.5,10.4,6.9,16.8,6.9s12.3-2.5,16.8-6.9c4.5-4.5,6.9-10.4,6.9-16.8S99.6,21.2,95.1,16.7z M60.9,19.4c0.5-0.6,1-1.2,1.6-1.7
		c2.2-2.2,4.8-3.9,7.7-5c0.1,0,0.2-0.1,0.3-0.1c0.2,0,0.5,0.1,0.6,0.3c0.2,0.3,0.2,0.7,0,0.9c-0.7,0.9-1.4,1.9-2,3
		c-0.7,1.3-1.3,2.8-1.8,4.4c-0.1,0.3-0.4,0.5-0.7,0.5c0,0-0.1,0-0.1,0c-1.9-0.3-3.6-0.7-5.1-1.1c-0.2-0.1-0.4-0.3-0.5-0.5
		C60.7,19.9,60.8,19.6,60.9,19.4z M59.2,22c0.1-0.2,0.4-0.4,0.6-0.4c0.1,0,0.2,0,0.2,0c1.7,0.6,3.7,1,5.9,1.4c0.2,0,0.4,0.1,0.5,0.3
		c0.1,0.2,0.1,0.4,0.1,0.6c-0.6,2.6-1,5.3-1,8.1c0,0.4-0.3,0.7-0.8,0.7h-7.9c-0.2,0-0.4-0.1-0.5-0.2C56.1,32.4,56,32.2,56,32
		C56.2,28.5,57.3,25,59.2,22z M59.6,45.1c-0.3,0-0.5-0.1-0.7-0.4c-1.7-3-2.7-6.3-3-9.8c0-0.2,0.1-0.4,0.2-0.6
		c0.1-0.1,0.3-0.2,0.5-0.2h8c0.4,0,0.7,0.3,0.8,0.7c0.1,2.7,0.4,5.4,1,7.9c0,0.2,0,0.4-0.1,0.6c-0.1,0.2-0.3,0.3-0.5,0.3
		c-2.2,0.4-4.2,0.8-6,1.4C59.8,45.1,59.7,45.1,59.6,45.1z M71.3,54.1c-0.1,0.2-0.4,0.3-0.6,0.3c-0.1,0-0.2,0-0.3-0.1
		c-3-1.1-5.6-2.8-7.9-5.1c-0.6-0.6-1.2-1.3-1.8-2c-0.2-0.2-0.2-0.5-0.1-0.7c0.1-0.2,0.3-0.4,0.5-0.5c1.6-0.4,3.3-0.8,5.3-1.1
		c0,0,0.1,0,0.1,0c0.3,0,0.6,0.2,0.7,0.5c0.5,1.6,1.1,3.1,1.9,4.4c0.7,1.2,1.4,2.3,2.2,3.3C71.5,53.5,71.5,53.9,71.3,54.1z
		 M77.6,54.7c0,0.2-0.1,0.5-0.3,0.6c-0.1,0.1-0.3,0.1-0.5,0.1c-0.1,0-0.1,0-0.2,0c-2.4-0.7-4.6-2.8-6.4-6.1
		c-0.6-1.1-1.1-2.4-1.6-3.7c-0.1-0.2,0-0.5,0.1-0.7c0.1-0.2,0.3-0.3,0.6-0.3c2.4-0.3,4.9-0.4,7.5-0.5c0,0,0,0,0,0
		c0.2,0,0.4,0.1,0.5,0.2c0.1,0.1,0.2,0.3,0.2,0.5V54.7z M77.6,42.1c0,0.4-0.3,0.7-0.7,0.8c-2.8,0-5.6,0.2-8.2,0.5c0,0-0.1,0-0.1,0
		c-0.3,0-0.6-0.2-0.7-0.6c-0.6-2.4-1-5.1-1-7.8c0-0.2,0.1-0.4,0.2-0.6c0.1-0.1,0.3-0.2,0.5-0.2h9.3c0.4,0,0.8,0.3,0.8,0.8V42.1z
		 M77.6,32.1c0,0.4-0.3,0.8-0.8,0.8h-9.3c-0.2,0-0.4-0.1-0.5-0.2c-0.1-0.1-0.2-0.3-0.2-0.5c0.1-2.8,0.5-5.5,1.1-8
		c0.1-0.3,0.4-0.6,0.7-0.6h0.1c2.6,0.3,5.4,0.5,8.2,0.6c0.4,0,0.7,0.3,0.7,0.8V32.1z M77.6,21.9c0,0.2-0.1,0.4-0.2,0.5
		c-0.1,0.1-0.3,0.2-0.5,0.2h0c-2.6,0-5.1-0.2-7.5-0.5c-0.2,0-0.4-0.2-0.5-0.3c-0.1-0.2-0.1-0.4-0.1-0.7c0.5-1.3,1-2.5,1.6-3.7
		c1.8-3.3,4-5.5,6.4-6.1c0.1,0,0.1,0,0.2,0c0.2,0,0.3,0,0.5,0.1c0.2,0.1,0.3,0.4,0.3,0.6V21.9z M96.9,21.8c0.3,0,0.5,0.1,0.7,0.4
		c1.8,3,2.8,6.3,3,9.9c0,0.2-0.1,0.4-0.2,0.6c-0.1,0.1-0.3,0.2-0.5,0.2h-7.9c-0.4,0-0.7-0.3-0.8-0.7c-0.1-2.8-0.4-5.5-1-8
		c-0.1-0.2,0-0.4,0.1-0.6c0.1-0.2,0.3-0.3,0.5-0.3c2.2-0.4,4.2-0.8,5.9-1.3C96.8,21.8,96.9,21.8,96.9,21.8z M85.5,12.9
		c0.2-0.2,0.4-0.3,0.6-0.3c0.1,0,0.2,0,0.3,0.1c2.9,1.1,5.5,2.8,7.7,5c0.6,0.6,1.2,1.2,1.7,1.9c0.2,0.2,0.2,0.5,0.1,0.7
		c-0.1,0.2-0.3,0.4-0.5,0.5c-1.6,0.4-3.3,0.8-5.2,1.1c0,0-0.1,0-0.1,0c-0.3,0-0.6-0.2-0.7-0.5c-0.5-1.6-1.2-3.1-1.9-4.5
		c-0.6-1.1-1.3-2.2-2-3C85.4,13.6,85.3,13.2,85.5,12.9z M79,12.1c0-0.2,0.1-0.5,0.3-0.6c0.1-0.1,0.3-0.1,0.5-0.1c0.1,0,0.1,0,0.2,0
		c2.4,0.7,4.6,2.8,6.4,6.1c0.6,1.1,1.1,2.4,1.6,3.7c0.1,0.2,0,0.4-0.1,0.6c-0.1,0.2-0.3,0.3-0.5,0.4c-2.4,0.3-5,0.4-7.5,0.4
		c0,0,0,0,0,0c-0.2,0-0.4-0.1-0.5-0.2c-0.1-0.1-0.2-0.3-0.2-0.5V12.1z M79,24.8c0-0.4,0.3-0.8,0.8-0.8c2.8,0,5.6-0.2,8.2-0.5
		c0,0,0.1,0,0.1,0c0.3,0,0.7,0.2,0.7,0.6c0.6,2.5,1,5.2,1,7.9c0,0.2-0.1,0.4-0.2,0.5c-0.1,0.2-0.3,0.2-0.5,0.2h-9.3
		c-0.4,0-0.8-0.3-0.8-0.8V24.8z M79,34.9c0-0.4,0.3-0.8,0.8-0.8H89c0.2,0,0.4,0.1,0.5,0.2c0.1,0.2,0.2,0.4,0.2,0.6
		c-0.1,2.8-0.5,5.4-1,7.9c-0.1,0.3-0.4,0.6-0.7,0.6h-0.1c-2.6-0.3-5.3-0.5-8.2-0.6c-0.4,0-0.7-0.3-0.7-0.8V34.9z M80,55.4
		c-0.1,0-0.1,0-0.2,0c-0.2,0-0.3-0.1-0.5-0.1C79.1,55.2,79,55,79,54.7v-9.8c0-0.2,0.1-0.4,0.2-0.5c0.1-0.1,0.3-0.2,0.5-0.2h0
		c2.6,0.1,5.1,0.2,7.5,0.5c0.2,0,0.4,0.2,0.6,0.4c0.1,0.2,0.1,0.4,0.1,0.6c-0.5,1.3-1,2.5-1.6,3.6C84.6,52.7,82.4,54.8,80,55.4z
		 M95.8,47.4c-0.5,0.6-1.1,1.3-1.7,1.9c-2.3,2.3-4.9,4-7.9,5.1c-0.1,0-0.2,0.1-0.3,0.1c-0.2,0-0.5-0.1-0.6-0.3
		c-0.2-0.3-0.2-0.7,0-0.9c0.8-0.9,1.5-2,2.2-3.3c0.7-1.3,1.3-2.8,1.8-4.4c0.1-0.3,0.4-0.5,0.7-0.5c0,0,0.1,0,0.1,0
		c1.9,0.3,3.7,0.7,5.2,1.2c0.2,0.1,0.4,0.2,0.5,0.5C96,47,95.9,47.2,95.8,47.4z M97.6,44.9c-0.1,0.2-0.4,0.4-0.7,0.4
		c-0.1,0-0.1,0-0.2,0c-1.7-0.6-3.7-1-6-1.4c-0.2,0-0.4-0.2-0.5-0.3c-0.1-0.2-0.1-0.4-0.1-0.6c0.6-2.5,1-5.2,1-8
		c0-0.4,0.4-0.7,0.8-0.7h8c0.2,0,0.4,0.1,0.5,0.2c0.1,0.2,0.2,0.4,0.2,0.6C100.4,38.5,99.4,41.9,97.6,44.9z"/>
</g>
</svg>
