<?xml version="1.0" encoding="utf-8"?>
<!-- Generator: Adobe Illustrator 24.3.0, SVG Export Plug-In . SVG Version: 6.00 Build 0)  -->
<svg version="1.1" id="Layer_1" xmlns="http://www.w3.org/2000/svg" xmlns:xlink="http://www.w3.org/1999/xlink" x="0px" y="0px"
	 width="136.9px" height="137px" viewBox="0 0 136.9 137" style="enable-background:new 0 0 136.9 137;" xml:space="preserve">
<style type="text/css">
	.st0{fill:#00B0FB;}
	.st1{fill:#00B0FB;fill-opacity:0.4;}
	.st2{fill:#FFFFFF;}
	.st3{fill:#185AE9;}
	.st4{fill-rule:evenodd;clip-rule:evenodd;fill:#00B0FB;}
	.st5{fill:none;}
	.st6{fill:#001135;}
	.st7{fill:#3C7CFF;}
	.st8{fill:#DBDBDB;}
	.st9{fill:#0A0A0A;}
	.st10{fill:#FEFDFE;}
	.st11{fill:#030302;}
	.st12{fill:#FCFCFC;}
	.st13{fill:#D2D3D3;}
	.st14{fill:#1F1F1F;}
	.st15{fill:#F6F6F6;}
	.st16{fill:#0E0D0E;}
	.st17{fill:#BABBBB;}
	.st18{fill:#8A8A8A;}
	.st19{fill:#8E8F8F;}
	.st20{fill:#464746;}
	.st21{fill:#5F5E5E;}
	.st22{fill:#0B0B0B;}
	.st23{fill:#090909;}
	.st24{fill:#151414;}
	.st25{fill:#101010;}
	.st26{fill:#282828;}
	.st27{fill-rule:evenodd;clip-rule:evenodd;}
</style>
<g>
	<path class="st0" d="M108.9,1.6l-0.3-0.3c-0.2-0.2-0.5-0.4-0.8-0.4H39.3c-3.9,0-7.1,2.5-8.2,6c0.5,1.3,0.8,2.7,0.9,4
		c0.4,0.1,0.7,0.2,1.1,0.3V9.4c0.1-3.3,2.8-6.1,6.2-6.1h66.3c0.5,0,1,0.4,1,1v2.2c0.4-0.2,0.8-0.3,1.2-0.4c0.2-0.4,0.5-0.9,0.7-1.3
		C108.5,3.8,108.7,2.7,108.9,1.6z"/>
	<path class="st1" d="M105.8,25.8c0,0-56.2,0-56.2,0c-1,0-1.8,0.8-1.8,1.8v14.5c0,1,0.8,1.8,1.8,1.8H118c1,0,1.8-0.8,1.8-1.8V31.8
		c0-0.6-0.4-1-1-1h-6.5c-2.6,0-4.8-1.7-5.5-4.2C106.7,26.1,106.3,25.8,105.8,25.8z"/>
	<path class="st0" d="M44,94.6c3.3-4.3,5.2-9.7,5.2-14.4c0-9.4-7.8-17-17.5-17c-9.6,0-17.5,7.6-17.5,17c0,4.7,2,10.1,5.2,14.4
		c2,2.7,6.3,7.1,12.2,7.1C37.7,101.8,42,97.3,44,94.6z"/>
	<path class="st0" d="M43.8,104.7c-0.1-0.1-0.3-0.1-0.4-0.1c-0.3,0-0.6,0.1-0.8,0.4c-0.5,0.6-1,1.1-1.6,1.6
		c-2.5,2.2-5.8,3.3-9.1,3.3c-4.1,0-8-1.8-10.6-4.9c-0.2-0.2-0.5-0.4-0.8-0.4c-0.1,0-0.3,0-0.4,0.1c-10.8,4.6-17.8,15-17.8,26.4v2.4
		c0,0.6,0.4,1,1,1h57.2c0.6,0,1-0.4,1-1v-2.4C61.5,119.7,54.6,109.3,43.8,104.7z"/>
	<path class="st2" d="M136.6,28.7L108.7,0.4c-0.2-0.2-0.5-0.4-0.8-0.4H39.3c-4.8,0-8.6,3.8-8.6,8.5v51.4c0,0.5-0.4,1-0.9,1
		C19.6,61.9,12,70.2,12,80.2c0,7.2,3.8,15.2,9.6,19.9c0.3,0.2,0.4,0.6,0.3,1c-0.1,0.4-0.4,0.7-0.8,0.7c-0.1,0-0.1,0-0.2,0
		C8.4,106.4,0,118.2,0,131.2v4.6c0,0.6,0.5,1.2,1.2,1.2l127.1,0c4.8,0,8.6-3.8,8.6-8.5v-99C136.9,29.2,136.8,28.9,136.6,28.7z
		 M109,6.5c0-0.4,0.2-0.8,0.6-0.9c0.1,0,0.2-0.1,0.4-0.1c0.3,0,0.5,0.1,0.7,0.3l20.5,20.9c0.3,0.3,0.4,0.7,0.2,1.1
		c-0.2,0.4-0.5,0.6-0.9,0.6h-18.3c-1.7,0-3.2-1.4-3.2-3.2V6.5z M112.3,30.8h6.5c0.6,0,1,0.4,1,1v10.3c0,1-0.8,1.8-1.8,1.8H49.6
		c-1,0-1.8-0.8-1.8-1.8V27.6c0-1,0.8-1.8,1.8-1.8h56.2c0.5,0,0.9,0.3,1,0.8C107.4,29,109.7,30.8,112.3,30.8z M19.6,94.6
		c-3.3-4.3-5.2-9.7-5.2-14.4c0-9.4,7.8-17,17.5-17s17.5,7.6,17.5,17c0,4.7-2,10.1-5.2,14.4c-2,2.7-6.3,7.1-12.2,7.1
		C25.9,101.8,21.6,97.3,19.6,94.6z M40.9,103.4c-1.3,1.6-3.1,2.9-5.1,3.6c-1.1,0.4-2.3,0.6-3.5,0.6c0,0,0,0,0,0c-0.1,0-0.1,0-0.2,0
		c-0.1,0-0.1,0-0.2,0c0,0-0.1,0-0.2,0s-0.1,0-0.1,0h0c-3.1-0.1-6.1-1.5-8.2-3.8c-0.3-0.4-0.3-0.9,0-1.3c0.2-0.2,0.5-0.4,0.8-0.4
		c0.2,0,0.3,0,0.5,0.1c2.2,1.2,4.7,1.9,7.2,2c2.2,0,4.5-0.5,6.5-1.5c0.4-0.2,0.9-0.5,1.4-0.7c0.2-0.1,0.3-0.1,0.5-0.1
		c0.3,0,0.6,0.1,0.8,0.4C41.2,102.4,41.2,103,40.9,103.4z M61.6,133.6c0,0.6-0.5,1-1,1H3.4c-0.6,0-1-0.4-1-1v-2.4
		c0-11.5,7-21.9,17.8-26.4c0.1-0.1,0.3-0.1,0.4-0.1c0.3,0,0.6,0.1,0.8,0.4c2.7,3.1,6.5,4.9,10.7,4.9c3.3,0,6.5-1.2,9.1-3.3
		c0.6-0.5,1.1-1,1.6-1.6c0.2-0.2,0.5-0.4,0.8-0.4c0.1,0,0.3,0,0.4,0.1c10.8,4.6,17.8,15,17.8,26.4V133.6z M134.6,128.5
		c0,3.4-2.8,6.1-6.2,6.1H64.9c-0.5,0-1-0.5-1-1v-2.4c0-5.7-1.6-11.3-4.6-16.1c-0.2-0.3-0.2-0.7,0-1c0.2-0.3,0.5-0.5,0.9-0.5H121
		c0.7,0,1.2-0.5,1.2-1.2c0-0.7-0.5-1.2-1.2-1.2H56.9c-0.3,0-0.6-0.1-0.8-0.3c-3.5-4-8.1-7.1-13.1-8.9c-0.1,0-0.2-0.1-0.3-0.1
		c-0.4,0-0.8-0.3-0.9-0.7c-0.1-0.4,0-0.8,0.3-1.1c0.7-0.6,1.3-1.2,1.9-1.8c0.2-0.2,0.5-0.3,0.7-0.3h0.1c0.3,0,0.6,0.2,0.7,0.4
		c0.2,0.3,0.6,0.5,0.9,0.5h74.3c0.7,0,1.2-0.5,1.2-1.2c0-0.6-0.5-1.2-1.2-1.2H47.6c-0.4,0-0.7-0.2-0.9-0.5c-0.2-0.3-0.1-0.7,0.1-1
		c2.1-3,3.5-6.3,4.3-9.9c0.1-0.4,0.5-0.8,1-0.8h68.8c0.7,0,1.2-0.5,1.2-1.2c0-0.7-0.5-1.2-1.2-1.2H52.6c-0.3,0-0.5-0.1-0.7-0.3
		c-0.2-0.2-0.3-0.4-0.3-0.7v-0.1c0-0.2,0-0.4,0-0.5c0-3.1-0.8-6.2-2.2-8.9c-0.2-0.3-0.2-0.7,0-1c0.2-0.3,0.5-0.5,0.9-0.5H121
		c0.7,0,1.2-0.5,1.2-1.2c0-0.7-0.5-1.2-1.2-1.2H47.2c-0.3,0-0.5-0.1-0.7-0.3c-3.3-3.5-7.7-5.7-12.5-6.2c-0.5-0.1-0.9-0.5-0.9-1V8.4
		c0.1-3.3,2.8-6.1,6.2-6.1h66.3c0.5,0,1,0.4,1,1v19.1c0,0.6-0.5,1-1,1h-56c-2.3,0-4.1,1.9-4.1,4.1v14.5c0,2.3,1.9,4.1,4.1,4.1H118
		c2.3,0,4.1-1.8,4.1-4.1V31.8c0-0.6,0.5-1,1-1h10.4c0.6,0,1,0.4,1,1V128.5z"/>
</g>
</svg>
