<?xml version="1.0" encoding="utf-8"?>
<!-- Generator: Adobe Illustrator 25.0.0, SVG Export Plug-In . SVG Version: 6.00 Build 0)  -->
<svg version="1.1" id="Layer_1" xmlns="http://www.w3.org/2000/svg" xmlns:xlink="http://www.w3.org/1999/xlink" x="0px" y="0px"
	 viewBox="0 0 102.33 111.6" style="enable-background:new 0 0 102.33 111.6;" xml:space="preserve">
<style type="text/css">
	.st0{fill:#185AE9;}
	.st1{fill-rule:evenodd;clip-rule:evenodd;fill:#00B0FB;}
	.st2{fill:#00B0FB;}
	.st3{fill:#00B0FB;fill-opacity:0.4;}
	.st4{fill:#FFFFFF;}
	.st5{fill:#3C7CFF;}
	.st6{fill:#001135;}
</style>
<g>
	<path class="st6" d="M50.06,97.04H5.92c-1.6,0-2.91,1.3-2.91,2.91v7.95c0,0.39,0.31,0.7,0.7,0.7h48.55c0.39,0,0.7-0.31,0.7-0.7
		v-7.95C52.97,98.34,51.66,97.04,50.06,97.04z"/>
	<path class="st5" d="M98.62,22.88H80.96c-0.83,0-1.51-0.68-1.51-1.51V3.71c0-0.39-0.31-0.7-0.7-0.7H30.2c-0.39,0-0.7,0.31-0.7,0.7
		v23.88c0,0.34,0.25,0.63,0.58,0.69c9.12,1.54,17.3,6.85,22.45,14.57c5.91,8.87,9.36,19.17,9.97,29.79
		c0.14,2.37-1.15,4.58-3.27,5.64l-9.49,4.75c-0.24,0.12-0.39,0.36-0.39,0.63v9.67c0,0.39,0.31,0.7,0.7,0.7
		c3.26,0,5.92,2.66,5.92,5.92v7.95c0,0.39,0.31,0.7,0.7,0.7h41.93c0.39,0,0.7-0.31,0.7-0.7V23.58C99.32,23.19,99,22.88,98.62,22.88z
		 M87.58,97.04H67.72c-0.83,0-1.51-0.68-1.51-1.51s0.68-1.51,1.51-1.51h19.86c0.83,0,1.51,0.68,1.51,1.51S88.41,97.04,87.58,97.04z
		 M87.58,83.79H74.34c-0.83,0-1.51-0.68-1.51-1.51s0.68-1.51,1.51-1.51h13.24c0.83,0,1.51,0.68,1.51,1.51S88.41,83.79,87.58,83.79z
		 M87.58,70.55H74.34c-0.83,0-1.51-0.68-1.51-1.51s0.68-1.51,1.51-1.51h13.24c0.83,0,1.51,0.68,1.51,1.51S88.41,70.55,87.58,70.55z
		 M87.58,57.31H74.34c-0.83,0-1.51-0.68-1.51-1.51s0.68-1.51,1.51-1.51h13.24c0.83,0,1.51,0.68,1.51,1.51S88.41,57.31,87.58,57.31z
		 M87.58,44.07H67.72c-0.83,0-1.51-0.68-1.51-1.51s0.68-1.51,1.51-1.51h19.86c0.83,0,1.51,0.68,1.51,1.51S88.41,44.07,87.58,44.07z"
		/>
	<path class="st4" d="M83.17,19.86h12.33c0.28,0,0.54-0.17,0.65-0.43c0.11-0.26,0.05-0.56-0.15-0.76L83.66,6.34
		c-0.13-0.13-0.31-0.21-0.5-0.21c-0.09,0-0.18,0.02-0.27,0.05c-0.26,0.11-0.43,0.36-0.43,0.65v12.33
		C82.47,19.55,82.78,19.86,83.17,19.86z"/>
	<path class="st6" d="M16.11,41.05h8.32c8.62,0,15.55,4.88,20.06,14.1c3.6,7.36,4.87,15.89,4.87,20.96v2.6
		c0,0.24,0.12,0.47,0.33,0.6c0.11,0.07,0.24,0.1,0.37,0.1c0.11,0,0.22-0.02,0.31-0.07l7.52-3.76c1.04-0.52,1.67-1.61,1.6-2.77
		c-0.58-10.08-3.85-19.87-9.47-28.29c-5-7.49-12.98-12.41-21.91-13.48l-0.12,0c-0.12,0-0.24-0.01-0.37-0.05
		c-1.11-0.12-2.15-0.17-3.2-0.17h-9.16c-1,0-1.95,0.53-2.47,1.38c-0.54,0.86-0.58,1.92-0.13,2.83l2.82,5.63
		C15.61,40.9,15.85,41.05,16.11,41.05z"/>
	<path class="st4" d="M10.49,94.02h35.16c0.39,0,0.7-0.31,0.7-0.7V76.11c0-5.12-1.41-13.18-4.57-19.63
		c-4.02-8.24-9.86-12.41-17.35-12.41h-8.5c-0.23,0-0.45,0.12-0.58,0.31L3.47,62.19c-0.14,0.21-0.16,0.48-0.04,0.7l1.86,3.72
		c0.75,1.5,2.19,2.56,3.85,2.83c0.28,0.04,0.56,0.07,0.84,0.07c1.38,0,2.73-0.56,3.71-1.54c0.29-0.28,0.66-0.44,1.07-0.44h6.62
		c2.82,0,5.11-2.29,5.11-5.11c0-0.83,0.68-1.51,1.51-1.51s1.51,0.68,1.51,1.51v5.55c0,5.22-3.32,9.85-8.26,11.53
		c-6.18,2.06-10.57,7.32-11.44,13.72c-0.03,0.2,0.03,0.4,0.17,0.55C10.09,93.93,10.29,94.02,10.49,94.02z"/>
	<path class="st6" d="M102.3,21.07l-0.03-0.14l-0.05-0.14l-0.06-0.12l-0.08-0.13l-0.09-0.12l-0.11-0.12L82,0.42l-0.11-0.09
		l-0.12-0.09c-0.03-0.02-0.06-0.04-0.11-0.07c-0.04-0.02-0.08-0.04-0.13-0.06c-0.04-0.02-0.08-0.03-0.13-0.05
		c-0.04-0.01-0.09-0.02-0.17-0.04l-0.1-0.02C81.06,0,81.01,0,80.96,0H27.99c-0.83,0-1.51,0.68-1.51,1.51v25.63
		c0,0.19-0.08,0.37-0.22,0.5c-0.14,0.13-0.31,0.19-0.51,0.19c0,0,0,0,0,0c-0.44-0.02-0.88-0.03-1.33-0.03h-9.16
		c-2.04,0-3.97,1.08-5.04,2.81c-1.09,1.76-1.19,3.91-0.26,5.76l2.85,5.71c0.11,0.22,0.1,0.49-0.04,0.7L0.25,61.59
		c-0.3,0.45-0.34,1.03-0.09,1.51l2.43,4.87c1.18,2.37,3.45,4.04,6.06,4.46c0.44,0.07,0.88,0.11,1.32,0.11
		c1.88,0,3.71-0.65,5.18-1.82c0.12-0.1,0.28-0.15,0.44-0.15h5.78c1.31,0,2.62-0.32,3.78-0.94c0.1-0.05,0.21-0.08,0.33-0.08
		c0.16,0,0.32,0.05,0.44,0.15c0.22,0.18,0.31,0.46,0.24,0.73c-0.81,2.94-3.06,5.29-6,6.27C12.82,79.16,7.56,85.72,6.74,93.4
		c-0.04,0.36-0.34,0.62-0.7,0.62H5.92C2.66,94.02,0,96.68,0,99.94v10.15c0,0.83,0.68,1.51,1.51,1.51h99.32
		c0.83,0,1.51-0.68,1.51-1.51V21.37c0-0.05,0-0.1-0.01-0.14L102.3,21.07z M82.47,6.84c0-0.29,0.17-0.54,0.43-0.65
		c0.08-0.03,0.17-0.05,0.27-0.05c0.19,0,0.36,0.07,0.5,0.21l12.33,12.33c0.2,0.2,0.26,0.5,0.15,0.76c-0.11,0.26-0.36,0.43-0.65,0.43
		H83.17c-0.39,0-0.7-0.31-0.7-0.7V6.84z M12.67,35.03c-0.45-0.91-0.41-1.97,0.13-2.83c0.52-0.85,1.47-1.38,2.47-1.38h9.16
		c1.05,0,2.09,0.06,3.2,0.17c0.13,0.03,0.24,0.05,0.37,0.05l0.12,0c8.93,1.07,16.91,5.98,21.91,13.48
		c5.62,8.42,8.89,18.2,9.47,28.29c0.07,1.16-0.56,2.25-1.6,2.77l-7.52,3.76c-0.1,0.05-0.2,0.07-0.31,0.07
		c-0.13,0-0.26-0.04-0.37-0.1c-0.21-0.13-0.33-0.35-0.33-0.6v-2.6c0-5.07-1.28-13.6-4.87-20.96c-4.51-9.23-11.44-14.1-20.06-14.1
		h-8.32c-0.27,0-0.51-0.15-0.63-0.39L12.67,35.03z M21.24,79.5c4.94-1.67,8.26-6.31,8.26-11.53v-5.55c0-0.83-0.68-1.51-1.51-1.51
		s-1.51,0.68-1.51,1.51c0,2.82-2.29,5.11-5.11,5.11h-6.62c-0.4,0-0.78,0.16-1.07,0.44c-0.98,0.98-2.33,1.54-3.71,1.54
		c-0.28,0-0.56-0.02-0.84-0.07c-1.66-0.27-3.1-1.33-3.85-2.83l-1.86-3.72c-0.11-0.22-0.1-0.49,0.04-0.7l11.88-17.81
		c0.13-0.19,0.35-0.31,0.58-0.31h8.5c7.49,0,13.33,4.17,17.35,12.41c3.15,6.46,4.57,14.51,4.57,19.63v17.21c0,0.39-0.31,0.7-0.7,0.7
		H10.49c-0.2,0-0.39-0.09-0.53-0.24c-0.13-0.15-0.19-0.35-0.17-0.55C10.67,86.82,15.06,81.57,21.24,79.5z M52.97,107.89
		c0,0.39-0.31,0.7-0.7,0.7H3.71c-0.39,0-0.7-0.31-0.7-0.7v-7.95c0-1.6,1.3-2.91,2.91-2.91h44.14c1.6,0,2.91,1.3,2.91,2.91V107.89z
		 M99.32,107.89c0,0.39-0.31,0.7-0.7,0.7H56.68c-0.39,0-0.7-0.31-0.7-0.7v-7.95c0-3.26-2.66-5.92-5.92-5.92
		c-0.39,0-0.7-0.31-0.7-0.7v-9.67c0-0.27,0.15-0.51,0.39-0.63l9.49-4.75c2.12-1.06,3.4-3.27,3.27-5.64
		c-0.61-10.62-4.06-20.92-9.97-29.79c-5.15-7.72-13.33-13.03-22.45-14.57c-0.34-0.06-0.58-0.35-0.58-0.69V3.71
		c0-0.39,0.31-0.7,0.7-0.7h48.55c0.39,0,0.7,0.31,0.7,0.7v17.66c0,0.83,0.68,1.51,1.51,1.51h17.66c0.39,0,0.7,0.31,0.7,0.7V107.89z"
		/>
	<path class="st6" d="M87.58,41.05H67.72c-0.83,0-1.51,0.68-1.51,1.51s0.68,1.51,1.51,1.51h19.86c0.83,0,1.51-0.68,1.51-1.51
		S88.41,41.05,87.58,41.05z"/>
	<path class="st6" d="M87.58,54.29H74.34c-0.83,0-1.51,0.68-1.51,1.51s0.68,1.51,1.51,1.51h13.24c0.83,0,1.51-0.68,1.51-1.51
		S88.41,54.29,87.58,54.29z"/>
	<path class="st6" d="M87.58,67.54H74.34c-0.83,0-1.51,0.68-1.51,1.51s0.68,1.51,1.51,1.51h13.24c0.83,0,1.51-0.68,1.51-1.51
		S88.41,67.54,87.58,67.54z"/>
	<path class="st6" d="M87.58,80.78H74.34c-0.83,0-1.51,0.68-1.51,1.51s0.68,1.51,1.51,1.51h13.24c0.83,0,1.51-0.68,1.51-1.51
		S88.41,80.78,87.58,80.78z"/>
	<path class="st6" d="M87.58,94.02H67.72c-0.83,0-1.51,0.68-1.51,1.51s0.68,1.51,1.51,1.51h19.86c0.83,0,1.51-0.68,1.51-1.51
		S88.41,94.02,87.58,94.02z"/>
</g>
</svg>
