<?xml version="1.0" encoding="utf-8"?>
<!-- Generator: Adobe Illustrator 25.0.0, SVG Export Plug-In . SVG Version: 6.00 Build 0)  -->
<svg version="1.1" id="Layer_1" xmlns="http://www.w3.org/2000/svg" xmlns:xlink="http://www.w3.org/1999/xlink" x="0px" y="0px"
	 viewBox="0 0 173.93 171.2" style="enable-background:new 0 0 173.93 171.2;" xml:space="preserve">
<style type="text/css">
	.st0{fill:#185AE9;}
	.st1{fill:#00B0FB;}
	.st2{fill:#00B0FB;fill-opacity:0.4;}
	.st3{fill:#FFFFFF;}
	.st4{fill:#3C7CFF;}
	.st5{fill:#001135;}
	.st6{fill:#FDFDFD;}
	.st7{fill:#DBDBDB;}
	.st8{fill:none;}
	.st9{fill:#040404;}
	.st10{fill:#030303;}
	.st11{fill:#060606;}
	.st12{fill:#FF9A00;}
	.st13{fill:#330000;}
	.st14{fill:#D7A2FE;}
	.st15{fill:#371351;}
	.st16{fill:#1E1E1E;}
	.st17{fill:#D26E00;}
	.st18{fill:#FF9100;}
	.st19{fill:#FFA403;}
	.st20{fill:#5E5E5E;}
	.st21{fill:#939393;}
	.st22{fill:#B3D8FB;}
	.st23{fill:#27A2FB;}
	.st24{fill:#D8EAFB;}
	.st25{fill:#0A81F9;}
	.st26{fill:#8F818F;}
	.st27{fill:#003932;}
	.st28{fill:url(#SVGID_1_);}
	.st29{fill:url(#SVGID_2_);}
	.st30{fill:url(#SVGID_3_);}
	.st31{opacity:0.2;fill:url(#SVGID_4_);enable-background:new    ;}
	.st32{opacity:0.1;fill:url(#SVGID_5_);enable-background:new    ;}
	.st33{opacity:0.2;fill:url(#SVGID_6_);enable-background:new    ;}
	.st34{opacity:0.1;fill:url(#SVGID_7_);enable-background:new    ;}
	.st35{fill:url(#SVGID_8_);}
	.st36{fill:url(#SVGID_9_);}
	.st37{fill:url(#SVGID_10_);}
	.st38{opacity:0.2;fill:url(#SVGID_11_);enable-background:new    ;}
	.st39{opacity:0.1;fill:url(#SVGID_12_);enable-background:new    ;}
	.st40{opacity:0.2;fill:url(#SVGID_13_);enable-background:new    ;}
	.st41{opacity:0.1;fill:url(#SVGID_14_);enable-background:new    ;}
	.st42{opacity:0.2;fill:url(#SVGID_15_);enable-background:new    ;}
	.st43{opacity:0.1;fill:url(#SVGID_16_);enable-background:new    ;}
	.st44{opacity:0.2;fill:url(#SVGID_17_);enable-background:new    ;}
	.st45{opacity:0.1;fill:url(#SVGID_18_);enable-background:new    ;}
	.st46{fill:url(#SVGID_19_);}
	.st47{fill-rule:evenodd;clip-rule:evenodd;fill:#00B0FB;}
	.st48{fill:#050505;}
</style>
<g>
	<g>
		<path class="st1" d="M172.02,158.44v-8.97h-3.32c0.59,1.35,0.92,2.83,0.92,4.39c0,6.08-4.95,11.02-11.04,11.02H51.34
			c-0.22,0-0.41-0.19-0.41-0.41v-1.39H48.8v6.12h109.78c6.87,0,12.7-4.53,14.66-10.76H172.02z"/>
		<path class="st1" d="M107.46,44.01c2.81,0,5.32-0.5,7.44-1.5c3.1-1.45,5.55-4,7.26-7.56c0.03-0.05,0.04-0.11,0.04-0.17
			c0-0.05-0.01-0.12-0.03-0.16c-1.19-2.85-5.68-12.2-13.25-12.78c-1.96-0.15-8.79-0.85-14.39-3.75c-0.06-0.03-0.12-0.04-0.18-0.04
			c-0.04,0-0.09,0.01-0.13,0.02l-0.02,0.01c-0.08,0.03-0.15,0.08-0.2,0.15c-1.94,2.77-2.97,6.02-2.97,9.4
			c0,7.12,5.18,12.67,10.32,15.01C103.35,43.52,105.47,44.01,107.46,44.01z"/>
		<path class="st1" d="M79.29,126.77h9.81c0.22,0,0.41-0.19,0.41-0.41l-0.05-10.86c0-0.58-0.01-1.07-0.03-1.49
			c-0.1-3.27,0.47-4.17,3.8-6.03l8.33-4.65c0.43-0.25,0.93-0.52,1.46-0.81l0.31-0.17c4.54-2.46,12.14-6.58,14.76-13.85
			c0.04-0.12,0.03-0.26-0.04-0.37c-0.07-0.11-0.21-0.19-0.34-0.19H92.77c-0.06,0-0.13,0.02-0.18,0.04c-0.04,0.02-0.07,0.04-0.1,0.07
			l-11,10.75c-0.87,0.85-1.53,1.78-1.96,2.77c-0.43,0.99-0.65,2.07-0.65,3.22v21.56C78.88,126.58,79.07,126.77,79.29,126.77z"/>
		<path class="st1" d="M116.14,58.49c-0.38,1.12-0.3,2.34,0.22,3.41c0.26,0.54,0.62,1.01,1.07,1.4c0.43,0.38,0.94,0.68,1.51,0.88
			l12.53,4.27c0.92,0.31,1.99,1.1,1.88,3.1c-0.01,0.13-0.01,0.19-0.01,0.25v11.12c0,2.48,1.99,4.5,4.43,4.51
			c1.22,0,2.39-0.49,3.25-1.34c0.85-0.84,1.32-1.94,1.32-3.11V65.68c-0.09-1.83-1.31-3.45-3.04-4.04c0,0-17.61-6-17.64-6.01
			c-0.02,0-0.04-0.01-0.07-0.01c-0.44-0.12-0.82-0.16-1.2-0.16C118.47,55.45,116.76,56.67,116.14,58.49z"/>
		<path class="st1" d="M140.17,139.38c0.78,1.13,1.49,1.13,1.79,1.13h1.53c0.16,0,0.32-0.11,0.38-0.25l6.87-18.48
			c0.19-0.51,0.52-1.36,0.64-1.89c0.02-0.1,0.01-0.2-0.04-0.28c-0.05-0.08-0.15-0.2-0.24-0.24l-6.98-2.56
			c-0.04-0.02-0.1-0.03-0.14-0.03c-0.14,0-0.29,0.09-0.36,0.21l-4.83,12.53C138.24,131.01,138.31,136.68,140.17,139.38z"/>
		<path class="st1" d="M89.1,60.51l-5.2,0.03c-0.77,0-1.67-0.1-2.49-1.28l-6.73-9.78c-0.84-1.21-2.22-1.94-3.71-1.94
			c-0.91,0-1.79,0.27-2.54,0.79c-1,0.69-1.66,1.73-1.88,2.93c-0.21,1.16,0.04,2.33,0.71,3.28l9.65,13.67
			c1.26,1.72,1.5,1.73,4.45,1.74h7.75c0.22,0,0.41-0.19,0.41-0.41l-0.02-8.6C89.51,60.7,89.32,60.51,89.1,60.51z"/>
		<path class="st1" d="M120.52,94.77c-0.01-0.07-0.05-0.14-0.09-0.19c-0.03-0.04-0.08-0.07-0.12-0.1c-0.06-0.03-0.12-0.04-0.19-0.04
			c-0.14,0-0.29,0.08-0.36,0.21c-3.96,5.86-10.47,9.39-13.97,11.29c-0.03,0.02-0.06,0.04-0.09,0.07c-0.12,0.12-0.16,0.32-0.08,0.48
			l4.35,9.01c0.59,1.21,1.1,1.81,2.69,2.36l22.59,7.76c0.04,0.01,0.09,0.02,0.14,0.02c0.16,0,0.32-0.1,0.38-0.25l3.75-9.73
			c0.05-0.12,0.03-0.27-0.04-0.38c-0.05-0.08-0.13-0.13-0.21-0.16l-12.71-4.24c-3.12-1.04-3.46-2.83-3.86-4.9L120.52,94.77z"/>
		<path class="st1" d="M94.91,13.3c3.92,2.61,9.97,3.89,14.33,4.22c4.4,0.33,8.39,2.66,11.88,6.91c0.02,0.01,0.08,0.08,0.1,0.09
			c0.87,0.54,1.65,1.2,2.33,1.96c0.05,0.05,0.11,0.09,0.18,0.12c0.04,0.01,0.09,0.02,0.13,0.02c0.16,0,0.32-0.11,0.38-0.25
			c0.02-0.04,0.03-0.08,0.03-0.12c0.64-6.31-0.57-14.54-9.96-17.86c-1.68-0.59-3.46-0.71-5.81-0.71c0,0-2.24,0.01-2.75,0.01
			c-3.97,0-8.37-0.3-13.66-2.48c-0.05-0.02-0.11-0.03-0.16-0.03c-0.15,0-0.3,0.09-0.37,0.23C90.57,8.64,91.65,11.13,94.91,13.3z"/>
		<path class="st1" d="M67.32,140.51h21.81c0.22,0,0.41-0.19,0.41-0.41l-0.02-8.6c0-0.22-0.19-0.41-0.41-0.41h-12.4
			c-0.81,0-2.01,0.33-3.2,0.89c-1.02,0.48-2.5,1.34-3.84,2.72c-1.47,1.52-2.4,3.31-2.77,5.32C66.91,140.25,67.1,140.51,67.32,140.51
			z"/>
		<path class="st2" d="M32.96,125.42H6.97c-0.63,0-1.14,0.51-1.14,1.14v39.18c0,0.62,0.51,1.14,1.13,1.14H46.2
			c0.22,0,0.41-0.19,0.41-0.41v-27.42C46.61,131.53,40.49,125.42,32.96,125.42z M25.7,154.77h-5.11c-0.63-0.02-1.16-0.26-1.56-0.67
			c-0.4-0.42-0.61-0.97-0.59-1.55c0.03-1.16,1.05-2.1,2.27-2.1h5.11c0.63,0.02,1.17,0.25,1.56,0.67c0.4,0.42,0.61,0.97,0.6,1.55
			C27.95,153.83,26.92,154.77,25.7,154.77z M25.7,142.68h-5.11c-1.25-0.03-2.19-1.03-2.16-2.22c0.03-1.16,1.05-2.1,2.28-2.1h5.11
			c1.25,0.03,2.19,1.02,2.16,2.21C27.95,141.73,26.93,142.68,25.7,142.68z"/>
		<path class="st2" d="M44.57,73.63c1.75,0,3.4-0.87,4.3-2.28c0.66-1.02,0.87-2.2,0.59-3.34c-0.28-1.14-1.01-2.09-2.06-2.69
			C47.39,65.32,11.74,45.1,11.74,45.1c-0.72-0.41-1.55-0.62-2.41-0.62c-1.75,0-3.4,0.87-4.31,2.27c-0.66,1.01-0.86,2.2-0.58,3.34
			c0.28,1.13,1.01,2.09,2.06,2.68l35.66,20.23C42.88,73.41,43.71,73.63,44.57,73.63z"/>
		<path class="st3" d="M158.57,140.51h-9.59c-0.22,0-0.41-0.19-0.41-0.41c0-0.05,0-0.1,0.02-0.14l6.19-16.64
			c0.67-1.77,1.44-3.77,0.6-5.62c-0.49-1.08-1.42-1.88-2.78-2.38l-9.42-3.45l-15.26-5.09c-0.18-0.06-0.34-0.12-0.51-0.2
			c-0.06-0.02-0.07-0.02-0.11-0.07c-0.05-0.05-0.1-0.11-0.12-0.18c-0.08-0.27-0.18-0.78-0.25-1.17l-3.74-19.29
			c-0.01-0.02,0-0.14,0-0.16l2.79-14.08c0.01-0.04,0.03-0.09,0.05-0.12c0.07-0.13,0.22-0.21,0.36-0.21c0.06,0,0.11,0.01,0.16,0.03
			l2.2,0.74c0.06,0.03,0.12,0.07,0.17,0.12c0.06,0.07,0.1,0.18,0.1,0.28v10.44c0,4.85,3.92,8.81,8.78,8.83
			c2.32,0,4.61-0.95,6.27-2.61c1.67-1.65,2.58-3.84,2.58-6.16l0.01-17.43c-0.15-3.61-2.54-6.82-5.97-7.99l-17.1-5.83
			c-0.08-0.02-0.16-0.08-0.21-0.15l-4.13-5.97c-0.09-0.07-0.14-0.18-0.14-0.29c-0.01-0.14,0.07-0.28,0.18-0.36
			c1.55-1.05,2.94-2.37,4.16-3.91c1.21-1.54,2.25-3.34,3.11-5.36c0,0,0.07-0.18,0.08-0.2c2.39-7.25,2.75-13.91,1.03-19.24
			c-1.83-5.7-5.95-9.82-11.93-11.93c-2.26-0.8-4.44-0.96-7.23-0.96c-0.44,0-2.28,0.01-2.76,0.01c-3.81,0-8.37-0.24-14.18-3.13
			C91.27,0.08,90.95,0,90.61,0c-0.79,0-1.52,0.43-1.9,1.13c-2.89,5.33-2.29,10.33,1.69,14.09c0.13,0.14,0.15,0.37,0.04,0.53
			c-2.45,3.5-3.74,7.6-3.74,11.85c0,6.89,3.95,13.62,10.38,17.63c0.13,0.14,0.16,0.36,0.06,0.52l-6.6,10.31
			c-0.02,0.02-0.04,0.04-0.06,0.06c-0.07,0.04-0.15,0.07-0.23,0.07l-5.48,0.02c-0.13,0-0.26-0.07-0.34-0.18l-6.19-9
			c-1.65-2.38-4.36-3.81-7.27-3.81c-1.79,0-3.51,0.54-4.98,1.55c-1.95,1.34-3.26,3.38-3.69,5.73c-0.41,2.32,0.1,4.63,1.44,6.53
			l9.68,13.71c2.56,3.5,4.71,3.5,7.96,3.51h7.75c0.22,0,0.41,0.2,0.41,0.42l0.02,10.04c0,0.04-0.01,0.09-0.02,0.13
			c-0.02,0.06-0.06,0.12-0.1,0.16L78.46,95.72c-2.59,2.54-3.91,5.59-3.91,9.08v21.94c0,0.18-0.13,0.35-0.31,0.4
			c-2.79,0.73-5.59,2.4-7.68,4.57c-2.28,2.37-3.63,5.21-4.03,8.39c0,0.22-0.19,0.41-0.41,0.41H51.34c-0.22,0-0.41-0.19-0.41-0.41
			v-1.05c0-9.11-6.83-16.77-15.83-17.82c-0.22,0-0.41-0.19-0.41-0.41V74.44c0-0.22,0.19-0.41,0.41-0.41c0.07,0,0.14,0.01,0.2,0.05
			l4.73,2.68c1.37,0.78,2.93,1.18,4.53,1.18c3.21,0,6.25-1.63,7.93-4.25c1.31-2.02,1.72-4.41,1.16-6.71
			c-0.57-2.3-2.03-4.22-4.13-5.41L13.87,41.34c-1.36-0.77-2.93-1.18-4.53-1.18c-3.21,0-6.25,1.63-7.95,4.25
			c-1.3,2.03-1.71,4.41-1.15,6.71c0.57,2.3,2.04,4.22,4.13,5.41l11.6,6.58c0.13,0.08,0.21,0.21,0.21,0.36v57.22
			c0,0.22-0.19,0.41-0.41,0.41h-8.8c-3.01,0-5.46,2.45-5.46,5.46v39.18c0,3.01,2.44,5.46,5.45,5.46h151.61
			c8.47,0,15.36-6.88,15.36-15.34C173.93,147.4,167.04,140.51,158.57,140.51z M89.12,69.94h-7.75c-2.95-0.01-3.19-0.02-4.45-1.74
			l-9.65-13.66c-0.67-0.95-0.92-2.12-0.71-3.28c0.21-1.2,0.88-2.24,1.88-2.93c0.75-0.52,1.62-0.79,2.53-0.79
			c1.49,0,2.87,0.73,3.71,1.94l6.73,9.78c0.82,1.18,1.72,1.28,2.49,1.28l5.2-0.03c0.22,0,0.41,0.19,0.41,0.41l0.02,8.6
			C89.53,69.74,89.34,69.94,89.12,69.94z M143.63,117c0.07-0.13,0.21-0.21,0.35-0.21c0.05,0,0.1,0.01,0.15,0.03l6.97,2.55
			c0.09,0.03,0.2,0.15,0.25,0.24c0.04,0.08,0.06,0.19,0.04,0.28c-0.13,0.53-0.45,1.38-0.65,1.89l-6.87,18.48
			c-0.06,0.15-0.22,0.25-0.38,0.25h-1.53c-0.3,0-1.02,0-1.79-1.13c-1.86-2.7-1.93-8.37-1.38-9.85L143.63,117z M126.55,110.88
			l12.71,4.24c0.08,0.02,0.16,0.08,0.21,0.16c0.07,0.11,0.09,0.25,0.04,0.37l-3.75,9.73c-0.06,0.15-0.21,0.25-0.37,0.25
			c-0.05,0-0.1-0.01-0.14-0.02l-22.59-7.77c-1.6-0.55-2.1-1.14-2.69-2.36l-4.36-9.01c-0.07-0.15-0.04-0.35,0.08-0.48
			c0.03-0.02,0.06-0.05,0.1-0.06c3.49-1.9,10-5.43,13.96-11.29c0.07-0.12,0.22-0.21,0.36-0.21c0.06,0,0.13,0.02,0.19,0.05
			c0.04,0.02,0.09,0.05,0.12,0.09c0.05,0.06,0.08,0.13,0.09,0.2l2.18,11.21C123.09,108.05,123.43,109.84,126.55,110.88z
			 M135.58,139.94c0.02,0.05,0.03,0.1,0.03,0.16v0.05c-0.01,0.08-0.04,0.16-0.1,0.22c-0.08,0.09-0.19,0.14-0.3,0.14H94.27
			c-0.22,0-0.41-0.19-0.41-0.41l-0.03-10.93l-0.05-13.69c0-0.62-0.02-1.16-0.04-1.6l-0.01-0.44c-0.01-0.46,0.23-0.9,0.62-1.13
			c0.32-0.19,0.65-0.38,0.98-0.56l5.96-3.33c0.06-0.03,0.13-0.05,0.19-0.05c0.15,0,0.3,0.1,0.37,0.23l4.23,8.77
			c0.85,1.73,2.06,3.48,5.18,4.55l22.75,7.83c0.06,0.02,0.13,0.06,0.17,0.12c0.08,0.08,0.12,0.2,0.11,0.31
			C134.02,132.65,134.19,136.69,135.58,139.94z M120.39,55.45c0.37,0,0.75,0.05,1.19,0.17c0.03,0,0.06,0,0.07,0.01
			c0.04,0.01,17.64,6.01,17.64,6.01c1.73,0.59,2.96,2.21,3.05,4.04v17.29c0,1.16-0.47,2.26-1.32,3.1c-0.86,0.86-2.04,1.35-3.25,1.35
			c-2.44-0.01-4.43-2.03-4.43-4.51V71.79c0-0.06,0.01-0.12,0.01-0.25c0.11-2-0.96-2.79-1.88-3.1l-12.53-4.27
			c-0.57-0.2-1.08-0.49-1.51-0.88c-0.45-0.38-0.81-0.86-1.07-1.39c-0.53-1.08-0.61-2.29-0.22-3.41
			C116.76,56.67,118.46,55.45,120.39,55.45z M91.56,5.4c0.07-0.14,0.22-0.23,0.37-0.23c0.05,0,0.11,0.01,0.16,0.03
			c5.29,2.18,9.69,2.48,13.66,2.48c0.5,0,2.74-0.01,2.74-0.01c2.35,0,4.13,0.12,5.81,0.71c9.39,3.32,10.6,11.54,9.96,17.86
			c0,0.04-0.01,0.08-0.03,0.11c-0.06,0.15-0.21,0.26-0.37,0.26c-0.05,0-0.09-0.01-0.14-0.02c-0.07-0.03-0.13-0.07-0.18-0.12
			c-0.67-0.76-1.45-1.42-2.32-1.96c-0.02-0.01-0.09-0.07-0.1-0.09c-3.49-4.24-7.48-6.57-11.88-6.9c-4.36-0.33-10.42-1.61-14.33-4.22
			C91.64,11.13,90.57,8.64,91.56,5.4z M91.02,27.6c0-3.38,1.03-6.63,2.97-9.4c0.05-0.07,0.12-0.12,0.2-0.15h0.02
			c0.04-0.02,0.09-0.02,0.13-0.02c0.06,0,0.13,0.01,0.18,0.04c5.6,2.91,12.43,3.61,14.39,3.76c7.58,0.57,12.06,9.92,13.26,12.78
			c0.02,0.04,0.03,0.11,0.03,0.16c0,0.06-0.02,0.12-0.04,0.17c-1.72,3.57-4.16,6.12-7.27,7.57c-2.12,0.99-4.62,1.5-7.43,1.5
			c-2,0-4.11-0.49-6.12-1.4C96.21,40.27,91.02,34.72,91.02,27.6z M93.89,58.86l7.22-11.31c0.07-0.13,0.22-0.22,0.38-0.22
			c0.04,0,0.08,0,0.12,0.02c1.96,0.65,3.92,0.98,5.85,0.98c2.62,0,5.06-0.38,7.26-1.11c0.05-0.02,0.1-0.03,0.14-0.03
			c0.13,0,0.27,0.07,0.34,0.18l2.46,3.56c0.1,0.08,0.15,0.22,0.13,0.35c-0.01,0.09-0.05,0.17-0.11,0.24
			c-0.04,0.04-0.1,0.08-0.16,0.1c-1.3,0.45-2.45,1.17-3.38,2.1c-0.93,0.94-1.65,2.08-2.09,3.37c-0.76,2.22-0.6,4.6,0.44,6.71
			c1.03,2.12,2.83,3.7,5.05,4.46l4.12,1.41c0.16,0.08,0.26,0.27,0.22,0.45l-2.61,13.17c-0.02,0.09-0.02,0.13-0.09,0.19
			c-0.08,0.09-0.2,0.15-0.32,0.15H94.29c-0.22,0-0.41-0.19-0.41-0.42l-0.05-24.12C93.83,59,93.85,58.93,93.89,58.86z M78.87,104.8
			c0-1.15,0.22-2.24,0.65-3.23c0.43-0.98,1.09-1.91,1.96-2.76l11-10.75c0.03-0.03,0.07-0.05,0.11-0.07
			c0.05-0.03,0.12-0.05,0.18-0.05h24.92c0.14,0,0.27,0.08,0.34,0.19c0.07,0.1,0.09,0.25,0.05,0.37
			c-2.62,7.27-10.22,11.39-14.76,13.85l-0.3,0.17c-0.54,0.29-1.04,0.56-1.47,0.8l-8.32,4.65c-3.33,1.86-3.9,2.77-3.8,6.03
			c0.01,0.43,0.03,0.92,0.03,1.5l0.04,10.86c0,0.22-0.19,0.41-0.41,0.41h-9.81c-0.22,0-0.41-0.19-0.41-0.41V104.8z M69.68,134.7
			c1.33-1.38,2.82-2.24,3.83-2.72c1.2-0.55,2.39-0.89,3.2-0.89h12.4c0.22,0,0.41,0.19,0.41,0.41l0.02,8.6
			c0,0.22-0.19,0.41-0.41,0.41H67.32c-0.22,0-0.41-0.26-0.41-0.49C67.28,138.02,68.21,136.23,69.68,134.7z M6.5,52.77
			c-1.05-0.59-1.78-1.55-2.06-2.68c-0.28-1.14-0.07-2.32,0.58-3.34c0.91-1.4,2.56-2.27,4.31-2.27c0.86,0,1.69,0.21,2.41,0.62
			c0,0,35.64,20.22,35.65,20.22c1.05,0.6,1.79,1.55,2.06,2.69c0.28,1.14,0.07,2.32-0.59,3.34c-0.9,1.4-2.54,2.28-4.3,2.28
			c-0.85,0-1.68-0.22-2.4-0.62L6.5,52.77z M30.37,71.52v49.17c0,0.22-0.19,0.41-0.42,0.41h-9.03c-0.22,0-0.42-0.19-0.42-0.41v-54.3
			c0-0.22,0.19-0.41,0.42-0.41c0.07,0,0.14,0.02,0.2,0.05l9.04,5.13c0.03,0.02,0.06,0.04,0.08,0.07
			C30.32,71.3,30.37,71.41,30.37,71.52z M46.61,166.47c0,0.22-0.19,0.41-0.41,0.41H6.96c-0.62,0-1.13-0.52-1.13-1.14v-39.18
			c0-0.63,0.51-1.14,1.14-1.14h25.99c7.53,0,13.65,6.11,13.65,13.63V166.47z M158.57,166.88H51.34c-0.22,0-0.41-0.19-0.41-0.41
			v-8.04c0-0.22,0.19-0.41,0.41-0.41h107.41c1.23,0,2.25-0.95,2.28-2.11c0.03-1.19-0.91-2.18-2.09-2.21H51.34
			c-0.22,0-0.41-0.2-0.41-0.42v-8.04c0-0.22,0.19-0.41,0.41-0.41h107.23c6.09,0,11.04,4.95,11.04,11.03
			C169.61,161.94,164.66,166.88,158.57,166.88z"/>
		<path class="st3" d="M25.82,150.45h-5.1c-1.23,0-2.25,0.94-2.28,2.1c-0.02,0.58,0.2,1.12,0.59,1.54c0.4,0.42,0.93,0.66,1.57,0.67
			h5.1c1.23,0,2.25-0.94,2.28-2.1c0.02-0.58-0.2-1.12-0.59-1.54S26.45,150.47,25.82,150.45z"/>
		<path class="st3" d="M25.83,138.36h-5.11c-1.23,0-2.25,0.94-2.28,2.1c-0.03,1.19,0.91,2.18,2.16,2.22h5.11
			c1.23,0,2.25-0.94,2.28-2.1C28.02,139.38,27.07,138.39,25.83,138.36z"/>
	</g>
</g>
</svg>
