<?xml version="1.0" encoding="utf-8"?>
<!-- Generator: Adobe Illustrator 25.0.0, SVG Export Plug-In . SVG Version: 6.00 Build 0)  -->
<svg version="1.1" id="Layer_1" xmlns="http://www.w3.org/2000/svg" xmlns:xlink="http://www.w3.org/1999/xlink" x="0px" y="0px"
	 viewBox="0 0 142.82 161" style="enable-background:new 0 0 142.82 161;" xml:space="preserve">
<style type="text/css">
	.st0{fill:#185AE9;}
	.st1{fill-rule:evenodd;clip-rule:evenodd;fill:#00B0FB;}
	.st2{fill:#00B0FB;}
	.st3{fill:#00B0FB;fill-opacity:0.4;}
	.st4{fill:#FFFFFF;}
	.st5{fill:#001135;}
	.st6{fill:#3C7CFF;}
	.st7{fill:#1429FF;}
	.st8{fill:#DBDBDB;}
	.st9{fill:#0A0A0A;}
	.st10{fill:#FEFDFE;}
	.st11{fill:#040404;}
	.st12{fill:#FDFDFD;}
	.st13{fill:#050504;}
	.st14{fill:#061639;}
	.st15{fill:#663398;}
	.st16{fill:#FEFEFE;}
	.st17{fill:#8DB849;}
	.st18{fill:#5A863E;}
	.st19{fill:#FFFFFE;}
	.st20{fill-rule:evenodd;clip-rule:evenodd;fill:#7FC728;}
	.st21{fill:#B3B3B3;}
	.st22{fill:#A6120D;}
	.st23{fill:#DD1B16;}
	.st24{fill:#F2F2F2;}
	.st25{fill:#8F9ED1;}
</style>
<g>
	<path class="st20" d="M89.66,114.09c-25.81,0-31.22-11.84-31.22-21.79c0-0.94,0.76-1.7,1.7-1.7h7.63c0.84,0,1.55,0.62,1.68,1.44
		c1.15,7.77,4.57,11.69,20.19,11.69c12.43,0,17.71-2.8,17.71-9.41c0-3.8-1.51-6.62-20.82-8.5c-16.16-1.6-26.14-5.15-26.14-18.08
		c0-11.9,10.04-18.99,26.86-18.99c18.89,0,28.25,6.55,29.43,20.65c0.04,0.48-0.13,0.96-0.46,1.31c-0.33,0.34-0.79,0.55-1.26,0.55
		h-7.65c-0.8,0-1.49-0.56-1.65-1.32c-1.85-8.16-6.3-10.78-18.44-10.78c-13.57,0-15.15,4.73-15.15,8.27c0,4.3,1.86,5.56,20.18,7.98
		c18.13,2.41,26.74,5.8,26.74,18.55c0,12.85-10.72,20.22-29.42,20.22L89.66,114.09L89.66,114.09z M71.43,161
		c-2.16,0-4.3-0.56-6.18-1.65l-19.69-11.66c-2.95-1.65-1.51-2.23-0.54-2.57c3.92-1.38,4.72-1.68,8.91-4.06
		c0.45-0.25,1.02-0.16,1.47,0.1l15.13,8.98c0.55,0.3,1.32,0.3,1.83,0l59-34.05c0.55-0.31,0.9-0.94,0.9-1.6V46.42
		c0-0.68-0.35-1.28-0.92-1.62L72.36,10.77c-0.55-0.33-1.27-0.33-1.82,0L11.58,44.79c-0.58,0.33-0.93,0.96-0.93,1.61v68.08
		c0,0.66,0.35,1.27,0.92,1.59l16.16,9.33c8.77,4.39,14.14-0.79,14.14-5.97v-67.2c0-0.96,0.75-1.7,1.72-1.7h7.47
		c0.93,0,1.7,0.73,1.7,1.7v67.23c0,11.7-6.38,18.41-17.47,18.41c-3.41,0-6.11,0-13.6-3.69l-15.5-8.92C2.36,123.03,0,118.9,0,114.49
		V46.41c0-4.43,2.36-8.57,6.18-10.76L65.24,1.58c3.73-2.11,8.7-2.11,12.41,0l58.99,34.08c3.81,2.2,6.18,6.32,6.18,10.76v68.08
		c0,4.42-2.37,8.53-6.18,10.76l-58.99,34.07c-1.89,1.09-4.04,1.65-6.21,1.65L71.43,161L71.43,161z M71.43,161L71.43,161L71.43,161
		L71.43,161z"/>
</g>
</svg>
