<?xml version="1.0" encoding="utf-8"?>
<!-- Generator: Adobe Illustrator 25.0.0, SVG Export Plug-In . SVG Version: 6.00 Build 0)  -->
<svg version="1.1" id="Layer_1" xmlns="http://www.w3.org/2000/svg" xmlns:xlink="http://www.w3.org/1999/xlink" x="0px" y="0px"
	 viewBox="0 0 167.7 162" style="enable-background:new 0 0 167.7 162;" xml:space="preserve">
<style type="text/css">
	.st0{fill:#185AE9;}
	.st1{fill-rule:evenodd;clip-rule:evenodd;fill:#00B0FB;}
	.st2{fill:#00B0FB;}
	.st3{fill:#00B0FB;fill-opacity:0.4;}
	.st4{fill:#FFFFFF;}
	.st5{fill:#001135;}
	.st6{fill:#3C7CFF;}
	.st7{fill:#1429FF;}
	.st8{fill:#DBDBDB;}
	.st9{fill:#0A0A0A;}
	.st10{fill:#FEFDFE;}
	.st11{fill:#040404;}
	.st12{fill:#FDFDFD;}
	.st13{fill:#050504;}
	.st14{fill:#061639;}
	.st15{fill:#663398;}
	.st16{fill:#FEFEFE;}
	.st17{fill:#8DB849;}
	.st18{fill:#5A863E;}
	.st19{fill:#FFFFFE;}
	.st20{fill-rule:evenodd;clip-rule:evenodd;fill:#7FC728;}
	.st21{fill:#B3B3B3;}
	.st22{fill:#A6120D;}
	.st23{fill:#DD1B16;}
	.st24{fill:#F2F2F2;}
	.st25{fill:#8F9ED1;}
</style>
<g>
	<path class="st17" d="M158.79,36.53c-0.3,2.31-1.6,5.24-0.65,6.77c1.08,1.73,4.3,0.45,6.59,0.64c1.81,0.15,2.94,1.1,2.97,2.81
		c0.03,1.98-1.26,4.04-3.05,3.86c-6.61-0.66-10.08,1.66-10.47,8.61c-0.11,1.92-2.49,2.97-4.65,2.32c-2.21-0.67-2.35-2.43-1.75-4.37
		c0.08-0.26,0.14-0.54,0.19-0.81c0.99-5.3,0.99-5.28-4.24-5.37c-2.18-0.04-4.9,0.37-4.87-2.92c0.03-3.09,2.22-4.18,5.08-4.12
		c0.97,0.02,1.96-0.13,2.9,0.03c2.81,0.47,3.96-0.74,4.2-3.49c0.15-1.75,0.6-3.58,1.36-5.16c0.84-1.75,2.55-2.57,4.53-2
		C158.45,33.76,159.04,34.98,158.79,36.53z"/>
	<g>
		<path class="st17" d="M65.85,5.25c1.17,0,1.75,0.58,2.91,1.17c-6.99,2.91-13.98,10.49-17.48,26.8l-12.82,3.5
			C42.54,25.07,50.69,5.25,65.85,5.25z M72.25,11.08c1.17,3.5,2.33,7.58,2.33,13.98c0,0.58,0,0.58,0,1.17l-16.9,4.66
			C61.18,18.66,67.01,13.41,72.25,11.08z M87.4,21.57l-7.58,2.33c0-0.58,0-1.17,0-1.75c0-5.24-0.58-9.32-1.75-12.82
			C82.16,10.5,85.66,15.74,87.4,21.57z M125.28,30.89c0-0.58-0.58-1.17-1.17-1.17c-1.17,0-13.4-1.17-13.4-1.17s-8.74-8.74-9.91-9.32
			c-1.17-1.17-2.91-0.58-3.5-0.58c0,0-1.75,0.58-4.66,1.75c-2.91-8.16-8.16-15.73-16.9-15.73h-0.58c-2.33-3.5-5.83-4.66-8.74-4.66
			C45.45-0.57,35.54,25.65,32.05,39.05c-4.66,1.17-9.32,2.91-14.57,4.66c-4.66,1.17-4.66,1.75-5.24,5.83
			C11.65,52.45,0,144.52,0,144.52L92.65,162l50.11-11.07C142.76,150.93,125.28,32.06,125.28,30.89z"/>
		<path class="st18" d="M123.53,29.73c-0.58,0-12.82-1.17-12.82-1.17s-8.74-8.74-9.91-9.32c-0.58-0.58-0.58-0.58-1.17-0.58
			L92.65,162l50.11-11.07c0,0-17.48-118.87-17.48-120.04C125.28,30.31,124.11,29.73,123.53,29.73"/>
		<path class="st19" d="M75.75,57.7l-6.41,18.65c0,0-5.24-2.91-12.24-2.91c-9.91,0-10.49,5.83-10.49,7.58
			c0,8.16,22.14,11.65,22.14,31.47c0,15.73-9.91,25.64-23.31,25.64c-15.73,0-23.89-9.91-23.89-9.91l4.08-13.98
			c0,0,8.16,6.99,15.15,6.99c4.66,0,6.41-3.5,6.41-6.41c0-11.07-18.06-11.65-18.06-29.72c0-15.15,11.07-29.72,32.63-29.72
			C71.67,54.78,75.75,57.7,75.75,57.7"/>
	</g>
</g>
</svg>
