<?xml version="1.0" encoding="utf-8"?>
<!-- Generator: Adobe Illustrator 25.0.0, SVG Export Plug-In . SVG Version: 6.00 Build 0)  -->
<svg version="1.1" id="Layer_1" xmlns="http://www.w3.org/2000/svg" xmlns:xlink="http://www.w3.org/1999/xlink" x="0px" y="0px"
	 viewBox="0 0 564.27 478" style="enable-background:new 0 0 564.27 478;" xml:space="preserve">
<style type="text/css">
	.st0{fill:#185AE9;}
	.st1{fill:#00B0FB;}
	.st2{fill:#00B0FB;fill-opacity:0.4;}
	.st3{fill:#FFFFFF;}
	.st4{fill:#3C7CFF;}
	.st5{fill:#001135;}
	.st6{fill:#00769D;}
	.st7{fill:#8DB849;}
	.st8{fill:#5A863E;}
	.st9{fill:#FFFFFE;}
	.st10{fill:#F26322;}
	.st11{fill:#009CDE;}
	.st12{clip-path:url(#SVGID_1_);}
	.st13{fill:#FFFFFF;filter:url(#Adobe_OpacityMaskFilter);}
	.st14{mask:url(#prefix__a_2_);}
	.st15{fill:#FFFFFF;filter:url(#Adobe_OpacityMaskFilter_1_);}
	.st16{mask:url(#prefix__b_2_);}
	.st17{fill:url(#SVGID_2_);}
	.st18{fill:url(#SVGID_3_);}
	.st19{fill:#FF2D20;}
	.st20{fill:#FDFDFD;}
	.st21{fill:#DBDBDB;}
	.st22{fill:#070707;}
	.st23{fill:#060605;}
	.st24{fill:#080707;}
	.st25{fill:#181717;}
	.st26{fill:#0F0F0F;}
	.st27{fill:#010101;}
	.st28{fill:#060606;}
	.st29{fill:#050505;}
	.st30{fill:#040404;}
	.st31{fill:#080808;}
	.st32{fill:#030303;}
	.st33{fill:#0C0C0C;}
	.st34{fill:#FEFEFE;}
	.st35{fill:#F8F8F8;}
	.st36{fill:#F1F1F1;}
	.st37{fill:#FAFAFA;}
	.st38{fill:#F9F9F9;}
	.st39{fill:#F2F2F2;}
	.st40{fill:#F7F7F7;}
	.st41{fill:#F3F3F3;}
	.st42{fill:#0D0D0D;}
	.st43{fill:#090909;}
	.st44{fill:#0A0A0A;}
	.st45{fill:#070807;}
	.st46{fill:#020202;}
	.st47{fill:#141414;}
	.st48{fill:#0E0E0E;}
	.st49{fill:#FCFCFC;}
	.st50{fill:#D2D3D3;}
	.st51{fill:#F6F6F6;}
	.st52{fill:#BABBBB;}
	.st53{fill:#8A8A8A;}
	.st54{fill:#8E8F8F;}
	.st55{fill:#5F5E5E;}
</style>
<g>
	<g>
		<path class="st22" d="M133.91,228.35c0-4.91-0.69-5.53-5.63-5.54c-20.45-0.01-40.9,0-61.35,0c0-0.01,0-0.03,0-0.04
			c-20.85,0-41.71,0.04-62.56-0.05c-3.03-0.01-4.38,0.81-4.36,4.09c0.11,18.83,0.1,37.67,0.04,56.5c-0.01,3.06,1.07,4.21,4.26,4.18
			c14.13-0.15,28.25-0.12,42.38-0.05l82.51,0.01c3.48,0.02,4.76-1.08,4.74-4.62C133.83,264.68,133.92,246.51,133.91,228.35z"/>
		<path class="st21" d="M4.17,285.5c-1.34,0-1.7-0.27-1.79-0.35c-0.1-0.11-0.35-0.49-0.34-1.83C2.09,267.9,2.12,247.55,2,226.8
			c-0.01-1.3,0.24-1.65,0.32-1.73c0.1-0.1,0.5-0.35,1.97-0.35c11.92,0.05,23.58,0.06,32.4,0.06l29.84-0.01
			c0.12,0.03,0.25,0.04,0.39,0.04l34.1,0c9.08,0,18.17,0,27.25,0c2.4,0,3.11,0.2,3.27,0.36c0.13,0.13,0.36,0.72,0.36,3.18
			c0.01,6.46,0,12.92-0.01,19.38c-0.02,11.51-0.03,23.41,0.04,35.11c0.01,1.51-0.26,2.01-0.42,2.17c-0.16,0.16-0.67,0.44-2.23,0.44
			c0,0-82.6-0.01-82.6-0.01c-6.73-0.03-13.46-0.06-20.2-0.06c-8.08,0-15.34,0.04-22.2,0.11L4.17,285.5z"/>
		<path class="st23" d="M46.5,275.37c-3.22-0.34-2.5-2.32-1.98-3.89c3-9.2,6.08-18.37,9.16-27.55c1.05-3.14,2.18-6.26,3.25-9.39
			c0.49-1.44,0.93-2.99,2.98-2.15c1.62,0.67,1.43,1.82,0.93,3.31c-4.15,12.3-8.21,24.63-12.25,36.98
			C48.15,274,47.79,275.2,46.5,275.37z"/>
		<path class="st22" d="M21.99,254.31c5.16,2.83,9.79,5.33,14.38,7.92c1.16,0.65,3.12,1.11,2.03,3.14
			c-0.97,1.82-2.41,1.11-3.78,0.34c-5.34-2.99-10.75-5.86-16.01-8.98c-2.85-1.69-2.74-3.13,0.2-4.84c5.29-3.08,10.66-6,15.96-9.06
			c1.49-0.86,2.85-1.17,3.73,0.56c0.85,1.69-0.58,2.31-1.79,2.96C31.97,248.89,27.24,251.47,21.99,254.31z"/>
		<path class="st24" d="M82.86,254.93c-4.96-3.01-9.5-5.78-14.07-8.5c-1.38-0.82-2.66-1.72-1.66-3.44c1.11-1.91,2.46-0.22,3.39,0.28
			c5.5,2.98,10.88,6.16,16.33,9.23c2.49,1.41,2.72,2.72,0.07,4.22c-5.56,3.16-11.1,6.35-16.63,9.56c-1.39,0.81-2.89,1.34-3.85-0.26
			c-1.23-2.03,0.87-2.44,2.02-3.1C73.06,260.32,77.7,257.79,82.86,254.93z"/>
		<path class="st25" d="M107.71,262.02c-4.03,0-8.07,0.01-12.1-0.01c-1.16,0-2.58,0.35-2.78-1.45c-0.23-2.06,1.4-1.61,2.46-1.61
			c8.34-0.04,16.67-0.04,25.01,0.01c0.97,0.01,2.38-0.35,2.44,1.31c0.06,1.72-1.35,1.86-2.53,1.88c-4.17,0.07-8.33,0.03-12.5,0.03
			C107.71,262.12,107.71,262.07,107.71,262.02z"/>
		<path class="st24" d="M108.37,247.82c3.9,0,7.79,0.01,11.69-0.01c1.28,0,2.54,0.09,2.67,1.71c0.15,2.03-1.47,1.53-2.54,1.53
			c-8.06,0.03-16.12,0.01-24.18,0c-1.34,0-3.03,0.11-2.97-1.74c0.05-1.51,1.62-1.49,2.84-1.49
			C100.04,247.82,104.21,247.82,108.37,247.82z"/>
		<path class="st26" d="M101.09,272.77c-2.27,0-4.54,0.01-6.81-0.01c-1.01-0.01-1.97-0.37-2.04-1.46c-0.06-1.07,0.81-1.66,1.83-1.67
			c5.07-0.04,10.15-0.03,15.23-0.03c0.95,0,1.49,0.53,1.56,1.44c0.09,1.22-0.74,1.66-1.75,1.68c-2.67,0.05-5.34,0.02-8.01,0.02
			C101.09,272.75,101.09,272.76,101.09,272.77z"/>
	</g>
	<g>
		<path class="st27" d="M92.68,44.11c28.83,0,57.66,0.04,86.48-0.05c4.02-0.01,6.04,2.36,6.04,5.96
			c0.06,30.91,0.26,61.82,0.42,92.74c0,0.89,0.01,1.77-0.01,2.66c-0.09,3.83-1.5,5.19-5.36,5.19c-21.29,0.01-42.57,0.05-63.86-0.04
			c-1.99-0.01-2.13,0.74-1.93,2.27c0.41,3.19,0.79,6.38,1.11,9.58c0.12,1.21,0.61,1.69,1.87,1.87c2.54,0.36,5.07,0.88,7.56,1.53
			c1.96,0.51,1.14,2.28,1.22,3.55c0.09,1.43-1.11,0.92-1.79,0.92c-20.78,0.02-41.56,0.02-62.34,0c-0.87,0-2.26,0.57-2.21-1.18
			c0.04-1.29-0.48-2.83,1.72-3.12c2.1-0.28,4.15-0.96,6.24-1.36c1.29-0.25,2.11-0.62,2.26-2.21c0.33-3.5,0.86-6.99,1.42-10.47
			c0.27-1.72-0.86-1.31-1.72-1.31c-14.26-0.02-28.51-0.02-42.77-0.02c-7.29,0-14.57,0.01-21.86-0.02c-3.62-0.02-5.14-1.57-5.14-5.21
			C0,113.26,0,81.14,0.01,49.02c0-3.09,2.02-4.91,5.43-4.91c20.02-0.01,40.04,0,60.06,0C74.56,44.11,83.62,44.11,92.68,44.11z"/>
		<path class="st27" d="M244.69,79.45c-6.65,0-13.3-0.05-19.94,0.04c-1.63,0.02-2.14-0.54-2.05-2.08c0.09-1.58,0-3.16,0.03-4.75
			c0.03-2.22,0.49-2.67,2.65-2.71c0.06,0,0.13,0,0.19,0c3.29-0.04,3.29-0.04,3.37,3.18c0.06,2.31,0.72,2.99,2.91,2.98
			c1.94-0.01,2.66-0.81,2.73-3c0.12-3.57-0.49-3.18,3.31-3.19c5-0.01,10,0.05,15-0.02c1.4-0.02,1.79,0.46,1.6,1.77
			c-0.1,0.67-0.02,1.39,0.09,2.07c0.2,1.26,0.64,2.31,2.21,2.33c1.58,0.02,2.66-0.65,3.16-2.17c0.08-0.23,0.03-0.5,0.08-0.75
			c0.17-1.03-0.55-2.68,0.4-2.98c1.76-0.56,3.76-0.44,5.62-0.03c0.72,0.16,0.87,0.98,0.86,1.74c-0.02,1.84-0.07,3.68,0.04,5.51
			c0.1,1.61-0.58,2.09-2.11,2.08C258.11,79.41,251.4,79.44,244.69,79.45C244.69,79.44,244.69,79.44,244.69,79.45z"/>
		<path class="st28" d="M246.27,192.37c7.53,0,15.07,0,22.6,0c2.93,0,4.08,1.15,4.09,4.14c0.01,7.85,0.01,15.7-0.01,23.55
			c0,2.91-0.94,3.97-3.79,3.98c-15.32,0.05-30.63,0.06-45.95,0.04c-2.45,0-3.53-1.15-3.54-3.66c-0.03-8.17-0.03-16.33,0.01-24.5
			c0.01-2.45,1.16-3.54,3.62-3.55C230.95,192.35,238.61,192.36,246.27,192.37z"/>
		<path class="st29" d="M245.41,165c-7.09,0-14.19,0-21.28,0c-2.98,0-4.13-0.89-4.17-3.86c-0.1-7.98-0.07-15.96,0-23.94
			c0.02-2.18,1.32-3.36,3.51-3.36c14.38-0.02,28.76-0.02,43.14,0.03c3.04,0.01,4.08,1.18,4.08,4.18c0.01,7.73,0.01,15.46,0.01,23.18
			c0,2.68-1.08,3.76-3.8,3.76C259.73,165,252.57,165,245.41,165z"/>
		<path class="st29" d="M248.22,23.95c-3.86,0-7.73-0.02-11.59,0.02c-0.54,0.01-1.59-0.46-1.55,0.38c0.04,0.94,0.09,2.25,1.46,2.58
			c0.42,0.1,0.88,0.02,1.33,0.02c7.35,0,14.7,0,22.04,0.02c0.59,0,1.58-0.48,1.64,0.65c0.06,1.23-1,0.89-1.68,0.9
			c-7.79,0.02-15.58-0.05-23.37,0.05c-1.82,0.02-2.69-0.7-3.07-2.33c-1.14-4.94-2.27-9.89-3.41-14.83
			c-0.61-2.63-1.37-5.23-1.81-7.88c-0.24-1.47-0.92-1.71-2.16-1.64c-1.39,0.07-2.79,0.01-4.18,0.02c-0.55,0-1.04-0.05-1.06-0.76
			c-0.02-0.68,0.31-1.09,1-1.1c2.22-0.02,4.44-0.1,6.65,0c1.28,0.06,1.66,1.17,1.94,2.25c0.99,3.78,0.99,3.78,4.83,3.78
			c9.69,0,19.38,0,29.08,0c2.33,0,2.4,0.17,1.81,2.37c-1.17,4.35-2.33,8.71-3.37,13.09c-0.42,1.75-1.2,2.52-3.11,2.45
			C255.83,23.85,252.02,23.95,248.22,23.95z"/>
		<path class="st30" d="M244.96,81.32c6.58,0,13.16,0.04,19.74-0.03c1.62-0.02,2.24,0.46,2.21,2.16
			c-0.08,6.14-0.02,12.28-0.03,18.41c-0.01,2.52-0.91,3.43-3.4,3.43c-12.59,0.01-25.19,0.01-37.78,0c-2.2,0-2.96-0.71-2.97-2.94
			c-0.03-6.33,0.04-12.66-0.02-18.98c-0.02-1.61,0.6-2.08,2.12-2.06c6.71,0.05,13.42,0.02,20.12,0.02
			C244.96,81.33,244.96,81.33,244.96,81.32z"/>
		<path class="st29" d="M217.63,18.17c2.51,0.64,4.58,2.26,7.01,3.05c0.73,0.23,0.61,0.86-0.13,1.2c-1.88,0.85-3.75,1.72-5.64,2.57
			c-1.04,0.47-1.6,0.17-1.38-1.02c0.27-1.45-0.44-1.59-1.66-1.57c-3.73,0.08-7.47,0.01-11.21,0.03c-2.79,0.02-4.22,1.39-4.22,4.17
			c-0.03,18.99-0.02,37.99-0.07,56.98c0,0.77,0.52,2.21-0.54,2.22c-1.08,0.01-0.57-1.43-0.58-2.21c-0.07-19.06-0.1-38.11-0.14-57.17
			c-0.01-3.89,1.62-5.57,5.46-5.58c3.36-0.01,6.71,0.01,10.07,0.01C217.32,20.86,217.32,20.85,217.63,18.17z"/>
		<path class="st31" d="M210.44,213.71c-0.37-3.42-0.37-3.43-3.84-3.47c-1.08-0.01-2.13-0.08-3.19-0.33
			c-2.51-0.59-4.17-2.37-4.18-4.89c-0.03-15.95-0.02-31.91-0.01-47.86c0-0.5-0.3-1.27,0.62-1.3c1.22-0.04,0.79,0.97,0.79,1.53
			c0.04,11.08,0.03,22.16,0.05,33.24c0,4.62,0.02,9.24,0.05,13.86c0.02,2.45,1.19,3.68,3.65,3.88c0.95,0.08,1.89,0.14,2.84,0.17
			c2.87,0.1,2.87,0.1,3.23-2.9c2.41,1.2,4.75,2.33,7.07,3.54c0.49,0.26,0.98,0.77,0.06,1.21
			C215.21,211.48,212.85,212.58,210.44,213.71z"/>
		<path class="st28" d="M210.73,85.98c2.57,1.47,5.24,2.66,8.33,4.02c-2.95,1.47-5.57,2.78-8.19,4.09c-0.14-0.21-0.26-0.3-0.27-0.4
			c-0.09-2.87-0.09-2.87-3.02-2.86c-4.99,0.01-9.99,0.01-14.98,0.02c-0.38,0-0.76-0.02-1.14,0c-0.76,0.04-1.29-0.3-1.26-1.04
			c0.03-0.77,0.72-0.7,1.3-0.7c4.68-0.01,9.35-0.03,14.03-0.04c0.51,0,1.01,0.01,1.52,0C210.23,89.03,210.23,89.03,210.73,85.98z"/>
		<path class="st32" d="M219,152.81c-3,1.4-5.6,2.61-8.22,3.83c-0.48-3.43-0.48-3.44-4.06-3.44c-3.04,0-6.08-0.06-9.12,0.03
			c-2.45,0.07-4.52-0.94-6.59-2c-0.63-0.33-1.31-0.89-0.78-1.64c0.46-0.66,0.97,0.08,1.42,0.34c2.93,1.7,6.18,1.59,9.39,1.62
			c2.66,0.03,5.32-0.1,7.98-0.05c1.23,0.03,1.76-0.29,1.55-1.59c-0.23-1.41,0.33-1.51,1.46-0.86
			C214.21,150.31,216.69,151.07,219,152.81z"/>
		<path class="st31" d="M199.21,120.9c0-8.81-0.01-17.61,0.02-26.42c0-0.6-0.38-1.67,0.37-1.73c1.18-0.09,0.75,1.09,0.75,1.74
			c0.04,11.59,0.04,23.19,0.06,34.78c0.01,5.83,0.04,11.66,0.05,17.48c0,0.63-0.04,1.27-0.08,1.9c-0.02,0.35-0.27,0.67-0.57,0.66
			c-0.28-0.01-0.55-0.31-0.56-0.67c-0.03-0.51-0.03-1.01-0.03-1.52C199.22,138.38,199.22,129.64,199.21,120.9
			C199.21,120.9,199.21,120.9,199.21,120.9z"/>
		<path class="st29" d="M239.48,123.34c0.47-0.07,0.65-0.12,0.84-0.13c1.31-0.05,3.08,0.42,3.82-0.25c0.89-0.81,0.27-2.61,0.3-3.98
			c0.05-2.46,0.01-4.93,0.03-7.39c0.01-0.58-0.26-1.48,0.67-1.47c0.86,0.02,0.44,0.89,0.45,1.36c0.04,3.41,0.08,6.83-0.02,10.24
			c-0.04,1.31,0.41,1.6,1.6,1.52c0.85-0.06,2.09-0.45,2.49,0.23c0.57,0.95-0.81,1.5-1.23,2.29c-0.44,0.82-1.14,1.51-1.74,2.23
			c-1.87,2.24-1.87,2.24-3.61-0.03C241.92,126.48,240.77,125,239.48,123.34z"/>
		<path class="st30" d="M249.93,181.71c-1.18,2.52-2.97,4.23-4.36,6.21c-0.38,0.54-0.83,0.37-1.23-0.13
			c-1.28-1.64-2.59-3.26-3.88-4.89c-0.76-0.97-0.21-1.14,0.69-1.19c1.05-0.05,2.52,0.52,3.05-0.26c0.54-0.79,0.23-2.17,0.24-3.3
			c0.02-2.66-0.01-5.31,0.02-7.97c0.01-0.58-0.26-1.61,0.51-1.59c0.87,0.02,0.62,1.05,0.62,1.71c0.01,3.16,0.1,6.33-0.03,9.49
			c-0.06,1.56,0.36,2.19,1.95,1.95C248.2,181.63,248.9,181.71,249.93,181.71z"/>
		<path class="st22" d="M238.37,37.29c-2.26-0.02-3.81-1.55-3.78-3.74c0.03-2.15,1.5-3.52,3.75-3.52c2.2,0,3.8,1.48,3.82,3.51
			C242.18,35.76,240.61,37.31,238.37,37.29z"/>
		<path class="st31" d="M259.31,33.7c-0.01,2.36-1.27,3.65-3.56,3.62c-2.25-0.03-3.78-1.68-3.74-4.02c0.03-1.94,1.6-3.3,3.78-3.27
			C258.06,30.05,259.32,31.36,259.31,33.7z"/>
		<path class="st33" d="M256.25,70.39c0-0.82,0.01-1.65,0-2.47c0-0.59,0.24-1.02,0.84-1.06c0.56-0.04,0.67,0.42,0.76,0.89
			c0.32,1.82,0.28,3.66,0.29,5.49c0,0.67-0.44,1.11-1.05,1.08c-0.54-0.02-0.84-0.5-0.84-1.09
			C256.25,72.29,256.24,71.34,256.25,70.39z"/>
		<path class="st26" d="M232.7,70.7c0,0.82,0.01,1.63,0,2.45c-0.01,0.68-0.18,1.3-1.04,1.21c-0.66-0.07-0.94-0.51-0.9-1.19
			c0.11-1.69,0.19-3.38,0.27-5.07c0.03-0.63,0.26-1.18,0.94-1.17c0.68,0.01,0.65,0.66,0.66,1.14c0.03,0.88,0.01,1.76,0.01,2.63
			C232.66,70.7,232.68,70.7,232.7,70.7z"/>
		<path class="st21" d="M5.75,133.04c0.54-0.95,1.19-0.73,1.78-0.73c10.77-0.03,21.53-0.09,32.3,0.01c1.8,0.02,2.04-0.56,2.03-2.11
			c-0.04-18.12,0.01-36.23-0.07-54.35c-0.01-1.88,0.51-2.24,2.28-2.24c41.11,0.06,82.23,0.05,123.34,0.06
			c3.61,0,7.22,0.02,10.83-0.05c1.22-0.02,1.61,0.33,1.61,1.6c-0.04,18.62-0.05,37.25,0.02,55.87c0.01,1.65-0.73,1.63-1.9,1.63
			c-24.33-0.01-48.65-0.01-72.98,0c-20.53,0-41.05-0.2-61.57,0.08c-11.84,0.16-23.67,0.07-35.5,0.24
			C7.19,133.05,6.47,133.04,5.75,133.04z"/>
		<path class="st34" d="M93.02,137.26c29.59,0,59.18,0.02,88.76-0.04c1.87,0,2.41,0.49,2.26,2.31c-0.17,2.01-0.01,4.05-0.04,6.08
			c-0.03,2.25-1.14,3.31-3.41,3.31c-30.35-0.04-60.69-0.12-91.04-0.12c-27.62-0.01-55.24,0.07-82.87,0.1c-0.63,0-1.26-0.03-1.89-0.1
			c-2.39-0.24-2.91-0.78-2.95-3.21c-0.03-2.22,0.12-4.44-0.01-6.65c-0.09-1.53,0.52-1.71,1.85-1.71
			c29.27,0.04,58.54,0.03,87.81,0.03C92,137.26,92.51,137.26,93.02,137.26z"/>
		<path class="st34" d="M92.37,49.04c28.51,0,57.02,0.01,85.53-0.04c1.53,0,2.1,0.28,1.98,1.92c-0.16,2.14-0.12,4.31-0.01,6.46
			c0.07,1.32-0.3,1.66-1.66,1.65c-22.87-0.06-45.74-0.03-68.61-0.06C75.51,58.94,41.43,59,7.35,59.31c-1.93,0.02-2.66-0.4-2.46-2.44
			c0.21-2.01,0.14-4.06,0.01-6.07c-0.09-1.4,0.29-1.8,1.75-1.79c7.86,0.08,15.71,0.04,23.57,0.04
			C50.93,49.04,71.65,49.04,92.37,49.04z"/>
		<path class="st34" d="M110.85,72.24c-22.29,0-44.58-0.02-66.88,0.04c-1.74,0-2.28-0.44-2.18-2.18c0.15-2.52,0.14-5.07-0.02-7.59
			c-0.1-1.54,0.48-1.72,1.81-1.72c24.07,0.04,48.13,0.02,72.2,0.02c20.71,0,41.42,0.02,62.13-0.04c1.57,0,2.05,0.34,1.96,1.94
			c-0.15,2.59-0.13,5.19-0.01,7.79c0.07,1.43-0.34,1.77-1.76,1.76C155.68,72.23,133.27,72.24,110.85,72.24z"/>
		<path class="st21" d="M92.96,163.78c-6.52,0-13.05-0.06-19.57,0.04c-1.45,0.02-1.72-0.47-1.55-1.7c0.29-2.12,0.55-4.25,0.79-6.38
			c0.13-1.07,0.88-1.03,1.67-1.03c4.24,0.01,8.49,0,12.73,0c7.92,0,15.83,0.02,23.75-0.03c1.38-0.01,2.22,0.1,2.26,1.84
			c0.04,1.94,0.38,3.89,0.78,5.79c0.24,1.13,0.09,1.4-1.11,1.39c-6.58-0.06-13.17-0.03-19.76-0.03
			C92.96,163.71,92.96,163.75,92.96,163.78z"/>
		<path class="st34" d="M63.97,167.24c3.52-0.75,6.8-2.34,10.54-2.3c12.73,0.14,25.47-0.04,38.2,0.11
			c3.53,0.04,7.02,0.91,10.38,2.19C103.38,167.24,83.68,167.24,63.97,167.24z"/>
		<path class="st20" d="M22.8,69.57c-3.92,0-7.85-0.07-11.77,0.03c-2.19,0.06-1.33-1.51-1.5-2.5c-0.19-1.1,0.1-1.72,1.48-1.71
			c7.72,0.06,15.44,0.06,23.16,0.01c1.79-0.01,1.86,1.11,1.92,2.36c0.06,1.32-0.47,1.88-1.9,1.84C30.4,69.51,26.6,69.57,22.8,69.57z
			"/>
		<path class="st35" d="M24.46,84.77c2.27,0,4.54,0.03,6.81-0.01c0.83-0.02,1.34,0.1,1.23,1.11c-0.09,0.76,0.01,1.47-1.17,1.46
			c-4.54-0.05-9.07-0.01-13.61,0.01c-1.05,0-1.39-0.49-1.41-1.52c-0.02-1.26,0.81-1.03,1.53-1.04
			C20.04,84.77,22.25,84.78,24.46,84.77z"/>
		<path class="st36" d="M24.69,76.11c2.21,0,4.41,0,6.62,0c0.64,0,1.35-0.02,1.29,0.93c-0.05,0.79-0.19,1.44-1.29,1.43
			c-4.48-0.02-8.95,0.06-13.43,0.06c-0.79,0-1.65-0.03-1.58-1.31c0.06-1.2,0.84-1.07,1.58-1.08c2.27-0.02,4.54-0.01,6.81-0.01
			C24.69,76.13,24.69,76.12,24.69,76.11z"/>
		<path class="st37" d="M24.58,95.02c-2.28,0-4.56-0.03-6.84,0.01c-0.95,0.02-1.39-0.3-1.39-1.3c0-1.12,0.74-0.97,1.43-0.97
			c4.43,0,8.86,0.01,13.3-0.02c0.87-0.01,1.39,0.07,1.45,1.16c0.07,1.31-0.78,1.07-1.49,1.08C28.88,95.02,26.73,95,24.58,95
			C24.58,95.01,24.58,95.01,24.58,95.02z"/>
		<path class="st38" d="M24.68,100.37c2.27,0,4.54-0.01,6.81,0.01c0.43,0,1.12-0.26,1.07,0.6c-0.04,0.66-0.2,1.25-1.07,1.25
			c-4.73,0-9.46,0-14.19,0c-0.62,0-0.93-0.32-0.94-0.93c-0.01-0.77,0.52-0.93,1.14-0.93c2.4,0,4.79,0,7.19,0
			C24.68,100.38,24.68,100.38,24.68,100.37z"/>
		<path class="st38" d="M11.37,79.43c-0.81-0.12-2.03,0.58-1.95-1.27c0.07-1.59,0.21-2.62,2.21-2.56c1.41,0.05,2,0.36,2.04,1.88
			C13.7,79.25,12.93,79.7,11.37,79.43z"/>
		<path class="st39" d="M11.7,103.28c-0.98-0.21-2.44,0.46-2.27-1.68c0.18-2.29,1.74-1,2.65-1.24c1.41-0.37,1.47,0.73,1.47,1.71
			C13.56,103.38,12.68,103.42,11.7,103.28z"/>
		<path class="st40" d="M11.02,87.43c-0.65,0.03-1.6,0.1-1.57-1.49c0.03-1.36,0.66-1.56,1.78-1.5c1.08,0.06,2.15-0.15,2.2,1.53
			C13.49,87.63,12.43,87.4,11.02,87.43z"/>
		<path class="st41" d="M11.37,95.12c-0.71-0.19-1.91,0.56-1.94-1.12c-0.03-1.59,1.03-1.49,2.01-1.47c0.94,0.02,2.18-0.19,2.18,1.34
			C13.62,95.52,12.34,95.02,11.37,95.12z"/>
		<path class="st21" d="M246.37,222.05c-7.41,0-14.82,0-22.23,0c-2.48,0-2.79-0.27-2.8-2.65c-0.02-7.66,0-15.33-0.04-22.99
			c-0.01-1.52,0.56-2.17,2.12-2.17c15.2,0.03,30.41,0.03,45.61,0.01c1.46,0,2.08,0.59,2.07,2.02c-0.01,7.98-0.02,15.96,0.01,23.94
			c0,1.38-0.52,1.86-1.92,1.86c-7.6-0.05-15.2-0.03-22.8-0.03C246.37,222.04,246.37,222.05,246.37,222.05z"/>
		<path class="st34" d="M245.33,163.1c-6.97,0-13.93,0-20.9,0c-2.52,0-2.78-0.28-2.78-2.87c0-7.35,0.03-14.69-0.03-22.04
			c-0.01-1.77,0.54-2.47,2.41-2.46c14.19,0.06,28.37,0.05,42.56,0.01c1.62,0,2.35,0.6,2.35,2.19c0.01,7.72,0.02,15.45,0.07,23.17
			c0.01,1.6-0.7,2.03-2.21,2.02C259.65,163.07,252.49,163.1,245.33,163.1C245.33,163.1,245.33,163.1,245.33,163.1z"/>
		<path class="st21" d="M247.85,7.81c4.75,0,9.5,0.03,14.24-0.02c1.31-0.01,1.95,0.04,1.44,1.72c-1.08,3.53-1.92,7.13-2.83,10.71
			c-0.31,1.24-0.81,1.79-2.31,1.77c-7.21-0.11-14.43-0.06-21.65,0.01c-1.39,0.01-2.15-0.25-2.45-1.8c-0.7-3.69-1.49-7.37-2.49-10.99
			c-0.42-1.53,0.3-1.4,1.23-1.4c4.94,0,9.87,0,14.81,0C247.85,7.8,247.85,7.81,247.85,7.81z"/>
		<path class="st21" d="M244.84,82.91c5.95,0,11.9,0.06,17.85-0.04c1.63-0.03,1.99,0.48,1.97,2.03c-0.1,5.44-0.08,10.89-0.01,16.33
			c0.02,1.34-0.43,1.78-1.72,1.78c-12.09-0.03-24.18-0.04-36.28-0.02c-1.2,0-1.63-0.33-1.61-1.62c0.07-5.63,0.05-11.27-0.01-16.9
			c-0.01-1.23,0.3-1.6,1.58-1.58c6.08,0.07,12.16,0.03,18.23,0.03C244.84,82.92,244.84,82.92,244.84,82.91z"/>
		<path class="st37" d="M240.32,33.42c0.01,1.72-0.84,2.27-2.01,2.29c-1.26,0.02-1.94-0.69-1.94-1.99c0-1.28,0.67-2.09,1.87-2.1
			C239.52,31.61,240.23,32.49,240.32,33.42z"/>
		<path class="st38" d="M255.58,31.55c1.2,0.35,2.15,0.97,2.14,2.29c0,1.27-0.86,1.94-2.09,1.86c-1.32-0.09-2.04-0.95-2.01-2.25
			C253.65,32.25,254.55,31.79,255.58,31.55z"/>
		<path class="st42" d="M82.12,105.65c-10.65,0-21.29-0.04-31.94,0.04c-1.85,0.01-2.38-0.55-2.36-2.37c0.09-7.86,0.1-15.71,0-23.57
			c-0.02-1.72,0.52-2.14,2.14-2.14c16.03,0.04,32.06,0.02,48.09,0.02c5.51,0,11.03,0.05,16.54-0.02c1.53-0.02,2.12,0.38,2.1,2.01
			c-0.07,7.98-0.07,15.97-0.02,23.95c0.01,1.54-0.45,2.12-2.06,2.11c-10.83-0.06-21.67-0.03-32.5-0.03
			C82.12,105.66,82.12,105.66,82.12,105.65z"/>
		<path class="st43" d="M147.93,103.42c8.04,0,16.07,0.03,24.11-0.03c1.47-0.01,1.97,0.34,1.95,1.89
			c-0.08,5.19-0.01,10.38,0.01,15.56c0.01,2.54,0,2.58-2.47,2.58c-12.72,0.01-25.43,0.01-38.15,0.01c-3.23,0-6.45-0.05-9.68,0.01
			c-1.51,0.03-2.09-0.42-2.06-2.06c0.11-5.19,0.13-10.38-0.01-15.56c-0.05-1.89,0.41-2.49,2.38-2.46
			c7.97,0.12,15.95,0.05,23.92,0.05C147.93,103.41,147.93,103.41,147.93,103.42z"/>
		<path class="st44" d="M82.31,110.61c10.71,0,21.41,0.05,32.12-0.05c1.87-0.02,2.27,0.68,2.24,2.3c-0.06,2.91-0.06,5.83,0.03,8.74
			c0.04,1.34-0.48,1.79-1.77,1.79c-6.78-0.01-13.56,0.04-20.33,0.04c-14.06,0.01-28.12,0.05-42.18-0.03
			c-5.52-0.03-4.42,0.32-4.53-4.42c-0.05-2.15,0.09-4.31-0.01-6.46c-0.07-1.5,0.43-1.95,1.94-1.95
			C60.65,110.64,71.48,110.61,82.31,110.61z"/>
		<path class="st33" d="M147.7,99.26c-8.04,0-16.08-0.04-24.12,0.03c-1.49,0.01-1.97-0.38-1.95-1.91
			c0.09-5.89,0.08-11.78,0.01-17.66c-0.02-1.5,0.32-2.12,1.98-2.12c16.21,0.05,32.42,0.03,48.62-0.01c1.21,0,1.74,0.41,1.74,1.62
			c0,6.27,0.03,12.53,0.05,18.8c0.01,1.36-0.92,1.24-1.84,1.24C164.04,99.25,155.87,99.26,147.7,99.26
			C147.7,99.26,147.7,99.26,147.7,99.26z"/>
		<path class="st43" d="M27,54.56c-0.26,1.02-0.9,1.83-2.17,1.68c-1.16-0.14-2.04-0.82-1.9-2.1c0.13-1.13,0.8-2.09,2.07-1.97
			C26.22,52.29,27.06,53.02,27,54.56z"/>
		<path class="st31" d="M11.49,52.18c1.01,0.22,1.82,0.71,1.84,1.95c0.02,1.21-0.71,1.98-1.79,2.08c-1.14,0.11-1.89-0.68-2.02-1.82
			C9.38,53.05,10.29,52.5,11.49,52.18z"/>
		<path class="st43" d="M17.9,52.17c1.42,0.1,2.07,0.92,2.1,2.09c0.03,1.07-0.7,1.82-1.75,1.86c-1.14,0.05-1.86-0.63-1.94-1.84
			C16.23,53.03,17.05,52.53,17.9,52.17z"/>
		<path class="st45" d="M152.06,68.19c-6.65,0-13.3,0.02-19.95-0.03c-0.85-0.01-2.13,0.55-2.14-1.26c0-1.64,1.07-1.45,2.05-1.45
			c13.49-0.01,26.98,0.01,40.46-0.02c1.21,0,2.05,0.36,2.04,1.63c-0.01,1.52-1.35,1.14-2.15,1.15c-6.77,0.06-13.55,0.03-20.32,0.03
			C152.06,68.24,152.06,68.22,152.06,68.19z"/>
		<path class="st27" d="M233.37,218.63c-2.34,0-4.68-0.06-7.01,0.02c-1.17,0.04-1.53-0.46-1.64-1.51c-0.42-3.99,1.93-7.11,5.97-7.76
			c2.9-0.46,5.78-0.55,8.35,1.24c2.16,1.51,3.31,4.66,2.77,7.18c-0.19,0.92-0.8,0.83-1.42,0.83
			C238.05,218.64,235.71,218.63,233.37,218.63z"/>
		<path class="st46" d="M255.24,204.91c-3.1,0-6.2-0.05-9.29,0.02c-1.18,0.03-1.62-0.38-1.51-1.52c0.05-0.5,0.04-1.02-0.01-1.52
			c-0.16-1.48,0.47-2,1.96-1.99c5.88,0.06,11.76,0.08,17.64-0.01c1.65-0.02,2.38,0.47,2.14,2.15c-0.04,0.31-0.04,0.64,0.01,0.95
			c0.22,1.44-0.23,2.03-1.82,1.96C261.31,204.82,258.27,204.91,255.24,204.91z"/>
		<path class="st27" d="M237.64,203.54c-0.05,2.6-2.2,4.51-5.04,4.47c-2.7-0.04-4.54-1.97-4.51-4.75c0.03-2.87,2.02-4.84,4.88-4.81
			C235.72,198.48,237.7,200.64,237.64,203.54z"/>
		<path class="st28" d="M255.49,209.1c3.1,0,6.2-0.01,9.3,0.01c0.63,0,1.55-0.27,1.54,0.78c-0.01,0.83-0.77,0.84-1.43,0.83
			c-6.39-0.01-12.78,0-19.17-0.02c-0.53,0-1.23,0.13-1.26-0.74c-0.03-0.99,0.71-0.86,1.33-0.86
			C249.04,209.09,252.26,209.1,255.49,209.1z"/>
		<path class="st28" d="M250.08,216.7c-1.39,0-2.77,0-4.16,0c-0.66,0-1.37-0.05-1.38-0.89c-0.02-0.89,0.76-0.66,1.27-0.67
			c2.77-0.02,5.55-0.01,8.32,0.01c0.56,0,1.25-0.07,1.28,0.74c0.04,0.98-0.75,0.81-1.35,0.82
			C252.73,216.71,251.4,216.7,250.08,216.7z"/>
		<path class="st28" d="M261.55,216.7c-1.2,0-2.39-0.01-3.59,0c-0.55,0-0.99-0.06-0.98-0.79c0.01-0.73,0.48-0.78,1.01-0.77
			c2.45,0,4.91,0.01,7.36,0.01c0.57,0,1.05,0.17,1.04,0.79c-0.01,0.62-0.5,0.77-1.06,0.76C264.06,216.69,262.8,216.7,261.55,216.7z"
			/>
		<path class="st27" d="M232.82,159.68c-2.15,0-4.31-0.09-6.46,0.04c-1.45,0.09-1.87-0.6-2.01-1.83c-0.35-3.16,1.57-6.16,4.64-6.86
			c2.16-0.49,4.37-0.62,6.58-0.14c3.68,0.79,6.02,4.21,5.43,7.89c-0.14,0.89-0.66,0.92-1.35,0.92
			C237.38,159.66,235.1,159.67,232.82,159.68z"/>
		<path class="st27" d="M228.07,144.65c0-2.8,1.8-4.69,4.53-4.75c2.67-0.05,4.78,2.07,4.76,4.78c-0.02,2.54-2.16,4.72-4.64,4.74
			C229.91,149.45,228.07,147.56,228.07,144.65z"/>
		<path class="st47" d="M253.49,143c2.53,0,5.07,0,7.6,0c0.7,0,1.56-0.09,1.62,0.85c0.06,1-0.84,0.96-1.52,0.96
			c-5.07,0.01-10.13,0-15.2-0.03c-0.65,0-1.56,0.14-1.51-0.93c0.05-1.07,0.96-0.8,1.6-0.8c2.47-0.03,4.94-0.01,7.41-0.01
			C253.49,143.02,253.49,143.01,253.49,143z"/>
		<path class="st28" d="M253.61,150.23c-2.59,0-5.19,0.01-7.78-0.01c-0.56-0.01-1.39,0.26-1.35-0.8c0.04-1.01,0.83-0.77,1.41-0.77
			c5.12-0.01,10.25,0,15.37,0.01c0.67,0,1.56-0.15,1.45,0.94c-0.1,0.97-0.96,0.59-1.51,0.6c-2.53,0.03-5.06,0.02-7.59,0.02
			C253.61,150.22,253.61,150.23,253.61,150.23z"/>
		<path class="st48" d="M253.7,154.27c2.64,0,5.29-0.01,7.93,0.01c0.45,0,1.11-0.21,1.14,0.59c0.02,0.63-0.44,0.91-0.98,0.92
			c-1.7,0.03-3.41,0.01-5.12,0.01c-0.41,0-0.73-0.15-0.83-0.6c-0.18-0.83-1.01-0.59-1.11-0.3c-0.52,1.4-1.66,0.89-2.56,0.92
			c-2.15,0.06-4.3,0.03-6.44,0c-0.55-0.01-1.22-0.02-1.24-0.83c-0.02-0.92,0.74-0.7,1.24-0.7
			C248.4,154.25,251.05,154.27,253.7,154.27z"/>
		<path class="st32" d="M255.79,86.89c-0.14,0.66-0.51,1.25-0.98,1.76c-3.31,3.57-6.64,7.13-9.93,10.72
			c-0.72,0.79-1.36,0.82-2.07,0.09c-2.11-2.18-4.23-4.36-6.31-6.57c-0.7-0.75-0.65-1.63,0.04-2.38c0.65-0.71,1.43-1.02,2.37-0.45
			c1.55,0.94,2.69,2.31,3.82,3.67c0.73,0.88,1.07,0.81,1.84,0.03c2.66-2.7,5.42-5.31,8.14-7.95c0.58-0.57,1.27-0.9,2.05-0.48
			C255.32,85.63,255.63,86.21,255.79,86.89z"/>
		<path class="st34" d="M82.27,104.55c-10.51,0-21.03-0.04-31.54,0.04c-1.61,0.01-1.99-0.48-1.98-1.99
			c0.07-7.47,0.07-14.95,0.04-22.42c0-1.12,0.25-1.52,1.47-1.51c21.35,0.04,42.69,0.03,64.04,0c1.14,0,1.32,0.39,1.31,1.4
			c-0.04,7.66-0.06,15.33,0.01,22.99c0.01,1.34-0.48,1.51-1.62,1.5C103.42,104.53,92.84,104.55,82.27,104.55z"/>
		<path class="st34" d="M147.89,104.55c7.79,0,15.57,0.04,23.36-0.04c1.46-0.02,1.74,0.37,1.71,1.77c-0.11,4.75-0.08,9.5-0.02,14.24
			c0.02,1.31-0.18,1.88-1.72,1.88c-15.57-0.06-31.15-0.06-46.72-0.01c-1.44,0-1.79-0.37-1.77-1.8c0.08-4.87,0.05-9.75-0.04-14.62
			c-0.02-1.17,0.27-1.46,1.46-1.46C132.07,104.58,139.98,104.55,147.89,104.55z"/>
		<path class="st34" d="M82.11,122.36c-10.39,0-20.77-0.05-31.16,0.05c-1.68,0.01-2.22-0.47-2.16-2.07c0.08-2.34,0.1-4.69,0-7.03
			c-0.06-1.37,0.28-1.85,1.76-1.85c14.44,0.06,28.88,0.05,43.32,0.05c6.59,0,13.17,0.04,19.76-0.02c1.46-0.01,2.12,0.27,2.01,1.94
			c-0.16,2.46-0.12,4.94-0.01,7.4c0.06,1.31-0.38,1.55-1.6,1.55C103.39,122.34,92.75,122.36,82.11,122.36z"/>
		<path class="st34" d="M147.87,98.39c-7.79,0-15.58-0.02-23.37,0.02c-1.22,0.01-1.8-0.16-1.77-1.62c0.09-5.57,0.08-11.15,0-16.72
			c-0.02-1.26,0.41-1.41,1.5-1.4c15.71,0.04,31.42,0.04,47.13,0c1.22,0,1.61,0.28,1.59,1.55c-0.07,5.57-0.07,11.15,0.01,16.72
			c0.02,1.43-0.64,1.47-1.72,1.46C163.45,98.37,155.66,98.39,147.87,98.39z"/>
	</g>
	<g>
		<path d="M217.21,460.92c0.17-5.26,1.86-10.17,3.9-14.98c5.48-12.72,13.33-23.95,21.76-34.8c4.88-6.28,9.96-12.38,15.2-18.33
			c1.52-1.73,3.06-3.45,4.61-5.15c2.36-2.61,4.77-5.19,7.2-7.74c1.74-1.83,3.49-3.65,5.26-5.45c6.01-6.14,12.18-12.14,18.46-18.02
			c0.89-0.84,1.79-1.67,2.7-2.51c0.68-0.64,1.37-1.28,2.06-1.91c4.12-3.8,8.29-7.56,12.48-11.27c0.26-0.24,0.52-0.47,0.79-0.7
			c4.23-3.75,8.5-7.46,12.81-11.12c0.59-0.5,1.19-1.01,1.79-1.51c0.57-0.49,1.15-0.98,1.74-1.46c0.17-0.15,0.35-0.29,0.52-0.43
			c10.51-8.84,21.23-17.43,32.15-25.73c1.07-0.81,2.14-1.62,3.22-2.44c0.15-0.11,0.3-0.23,0.45-0.34c3.47-2.62,6.97-5.2,10.48-7.77
			c3.23-2.35,6.47-4.68,9.73-6.97c1.17-0.84,2.35-1.67,3.53-2.49c11.53-8.07,23.28-15.85,35.24-23.33c1.83-1.15,3.67-2.29,5.51-3.42
			c1.12-0.69,2.24-1.38,3.36-2.06c5.73-3.49,11.51-6.91,17.35-10.22c1.54-0.88,3.09-1.75,4.65-2.61c14.94-8.3,30.27-15.85,46.2-22.2
			c13.97-5.54,28.14-10.4,43.57-11.02c2.2,0.23,4.58,0.17,6.9,0.51c8.81,1.41,13.56,6.95,13.44,15.82
			c-0.04,4.81-1.36,9.27-3.11,13.67c-4.57,11.59-11.35,21.88-18.7,31.77c-9.17,12.33-19.13,23.93-29.64,35.03
			c-1.43,1.52-2.88,3.02-4.33,4.52c-1,1.04-2.02,2.07-3.03,3.1c-0.97,1-1.95,1.98-2.93,2.96c-1.76,1.76-3.53,3.5-5.31,5.25
			c-0.03,0.03-0.07,0.07-0.11,0.1c-0.94,0.93-1.9,1.85-2.85,2.76c-0.2,0.2-0.4,0.39-0.6,0.57c0,0.03-0.01,0.03-0.01,0.03
			c-0.12,0.11-0.23,0.22-0.35,0.33c-2.87,2.77-5.78,5.52-8.71,8.24c-1.03,0.96-2.07,1.91-3.1,2.86c-0.71,0.67-1.43,1.33-2.15,1.99
			c-0.7,0.64-1.41,1.28-2.12,1.92c-0.53,0.48-1.06,0.98-1.61,1.46c-0.56,0.51-1.12,1.01-1.68,1.5c-2.26,2.05-4.54,4.07-6.83,6.08
			c-0.28,0.23-0.55,0.48-0.82,0.71c-0.1,0.09-0.19,0.18-0.29,0.26c-0.58,0.5-1.15,1-1.73,1.5c-0.27,0.24-0.54,0.48-0.8,0.69
			c-2.78,2.42-5.57,4.81-8.38,7.17c-1.14,0.97-2.27,1.92-3.41,2.87c-1.06,0.89-2.12,1.76-3.19,2.64c-2.21,1.83-4.45,3.66-6.69,5.47
			c-0.01,0-0.01,0-0.01,0.01c-2.18,1.76-4.36,3.51-6.55,5.24c-0.2,0.16-0.41,0.32-0.61,0.48c-0.93,0.74-1.86,1.48-2.8,2.21
			c-0.92,0.72-1.84,1.43-2.76,2.14c-1.2,0.95-2.41,1.88-3.63,2.81c-3.76,2.89-7.54,5.76-11.35,8.58c-0.81,0.61-1.62,1.22-2.43,1.82
			c-1.77,1.31-3.54,2.61-5.32,3.9c-1.03,0.75-2.06,1.49-3.09,2.23c-2.56,1.87-5.15,3.71-7.74,5.54c-0.05,0.03-0.09,0.07-0.14,0.1
			c-0.15,0.11-0.29,0.2-0.44,0.31c-0.84,0.59-1.66,1.17-2.51,1.75c-0.16,0.11-0.32,0.22-0.48,0.33c-0.09,0.07-0.19,0.14-0.29,0.2
			c-3.62,2.55-7.25,5.05-10.92,7.52c-2.47,1.69-4.95,3.35-7.44,4.99c-1,0.67-2,1.34-3.02,1.98c-0.26,0.17-0.5,0.33-0.76,0.5
			c-0.89,0.59-1.78,1.17-2.68,1.76c-1.06,0.67-2.11,1.36-3.17,2.04c-4.61,2.94-9.26,5.84-13.95,8.67c-1.07,0.66-2.14,1.3-3.21,1.94
			c-0.8,0.48-1.59,0.95-2.38,1.42c-1.06,0.63-2.13,1.26-3.2,1.89c-6.44,3.76-12.94,7.41-19.54,10.93c-3.81,2.03-7.64,4.02-11.5,5.95
			c-0.98,0.51-1.96,0.99-2.94,1.49c-3.01,1.49-6.03,2.95-9.06,4.37v0.01c-1.34,0.62-2.67,1.24-4.01,1.84
			c-2.28,1.04-4.58,2.05-6.89,3.03c-9.41,3.99-19.04,7.48-29.02,10.12c-8.64,2.26-17.35,3.95-26.38,2.82
			C221.9,476.4,216.87,470.64,217.21,460.92z"/>
		<g>
			<g>
				<path class="st3" d="M389.63,399.06c-1.36,0.91-2.72,1.81-4.08,2.71C386.26,399.35,387.8,398.91,389.63,399.06z"/>
				<path class="st21" d="M430.12,369.82c-1.54,1.2-3.08,2.37-4.61,3.55c-0.95,0.72-1.9,1.44-2.86,2.17c-0.13,0.1-0.27,0.2-0.4,0.3
					c-3.08,2.33-6.2,4.62-9.32,6.91c-1.33,0.97-2.67,1.94-4,2.9c-0.09-0.51-0.2-1.02-0.31-1.53c-2.49-11.17-9.55-18.47-19.98-19.92
					c5.7-2.53,11.27-3.2,16.54-4.84c10.63-3.29,18.18,0.77,24.13,9.29C429.59,369.04,429.86,369.43,430.12,369.82z"/>
				<path class="st21" d="M444.3,355.58c-7.15-1.53-14.27-1.57-21.89,0.54c3.02,2.47,5.66,4.59,7.81,7.2
					c1.08,1.32,2.11,2.68,3.04,4.06c4.68-3.65,9.32-7.37,13.91-11.15C446.22,356,445.26,355.79,444.3,355.58z M477.19,288.16
					c-0.57-9.79-1.81-19.57-5.24-28.9c-1.05-2.84-2.52-5.21-5-7c-3.86-2.76-7.81-5.37-11.94-7.69c-2.49-1.4-5.04-2.7-7.68-3.86
					c-1.39-0.61-2.78-1.13-4.38-0.99c-18.57,1.72-36.78,5.26-54.65,10.6c-1.53,0.46-3.17,0.93-3.74-1.15
					c-0.52-1.88,0.8-2.78,2.44-3.16c16.71-3.95,33.34-8.34,50.52-9.96c3.56-0.34,7.17-1.21,10.77,0.17
					c0.99,0.38,2.12,1.63,3.16,0.54c1.03-1.07,0.79-2.62,0.61-4.03c-0.16-1.24-1.05-2.05-1.71-3.02
					c-4.03-5.88-8.99-11.15-12.16-17.58c-1.7-3.46-4.36-5.07-7.89-5.6c-6.96-1.04-13.97-1.48-21-1.16c-4.97,0.24-5.09,0.73-3.16,5.4
					c1.24,3,2.72,3.81,5.76,2.09c2.92-1.66,6.16-2.8,9.3-4.09c1.48-0.6,2.84-0.41,3.41,1.32c0.61,1.79-0.51,2.63-2.01,3.04
					c-10.23,2.84-18.69,8.99-27.3,14.81c-9.1,6.16-18.21,12.34-27.23,18.62c-3.03,2.12-5.49,2.16-8.32-0.48
					c-3.5-3.28-7.21-6.36-10.1-10.21c-1.05-1.4-2.09-2.88-2.71-4.48c-1.61-4.16,0.91-7.24,5.32-6.87c1.96,0.17,3.39,1.36,5.29,2.38
					c0.68-5.42,0.44-5.72-4.29-6.02c-7.86-0.48-16.33,6.6-17.63,14.54c-0.7,4.28,0.91,7.26,4.44,9.46c2.02,1.24,4.28,1.84,6.5,2.58
					c2.45,0.82,3.53,2.35,2.51,5.13c-0.79,2.18-1.29,4.52-1.5,6.83c-1.58,17.38-2.04,34.8-2.03,52.24c0.01,1.3,0.25,2.66-1.2,3.37
					c-1,0.5-2.1,0.5-3-0.2c-1.21-0.93-0.91-2.3-0.76-3.57c0.22-2.09,0.6-4.17,0.68-6.27c0.32-8.29,0.46-16.6,0.84-24.89
					c0.4-8.53,0.39-17.11,2.33-25.49c0.6-2.65-0.15-3.76-2.53-4.69c-4.19-1.63-8.15-3.72-9.96-8.26c-0.57-1.44-1.45-1.22-2.5-0.71
					c-3.26,1.57-6.43,3.4-9.81,4.66c-10.22,3.81-15.57,11.65-18.95,21.53c-4.02,11.77-6.78,23.82-9.41,35.94
					c-1.07,4.92-3.8,14.95-5.18,20.91c5.08,12.1,10.19,24.18,15.31,36.25c0.92,2.2,1.86,4.39,2.79,6.59
					c0.33,0.78,0.37,2.23,1.58,1.93c1.17-0.29,1.77-1.46,1.64-2.79c-0.31-3.14-0.59-6.28-0.95-9.41c-0.04-0.36-0.04-0.76-0.12-1.15
					c-0.1-0.63-0.37-1.2-1.29-1.35c-6.12-1.02-4.69-7-7.21-10.39c1.19,0.73,2.01,1.71,2.82,2.69c0.84,1.02,1.98,1.6,3.16,2.17
					c1.64,0.79,2.39,0.46,2.27-1.47c-0.16-2.57-0.18-5.16-0.39-7.72c-1.81-21.47-2.61-42.97-2.55-64.52
					c0.01-2.88,0.68-5.56,1.96-8.09c0.31-0.61,0.68-1.42,1.47-1.28c0.92,0.17,0.64,1,0.62,1.71c-0.87,28.19,1.47,56.26,3.22,84.34
					c0.24,3.79,0.46,7.58,0.67,11.37c0.09,1.72,0.82,1.63,2.19,1.66c3.95,0.08,7.67-0.66,11.24-2.28c3.95-1.8,7.87-1.73,11.95-0.37
					c7.42,2.47,14.9,4.78,22.37,7.13c7.89,2.49,15.49-0.6,23.22-1.34c1.08-0.1,1.46-0.88,1.56-1.97c0.26-2.93,2.16-4.56,4.76-5.48
					c7.83-2.78,15.81-5.15,24.05-6.16c3.21-0.4,4.16-1.8,4.62-4.47c1.33-7.73,1.75-15.56,2.2-23.38
					c0.77-13.38-0.01-27.01,6.11-39.58c1.84-3.78,3.65-7.57,5.47-11.37c3.63-7.59,9.14-13.53,16.07-18.17
					c1.53-1.02,3.68-3.24,5.01-1.55c0.96,1.22-1.84,2.82-3.23,3.95c-13.81,11.22-20.97,26.4-23.73,43.33
					c-2.12,12.99-1.96,26.34-2.79,39.53c-0.04,0.71-0.52,1.64,0.75,2.28c1.16-1.37,2.35-2.79,3.55-4.2
					c5.45-6.44,10.97-12.81,17.49-18.21c1.45-1.2,3.46-3.8,5.24-1.64c1.38,1.69-1.48,3.04-2.73,4.18
					c-7.76,7.01-14.72,14.72-20.75,23.26c-0.56,0.8-1.53,1.51-1.2,2.93c0.66,0,1.33,0.05,2-0.01c8.32-0.83,16.43,0.07,24.36,2.27
					c1.09-0.9,2.18-1.8,3.26-2.72c0.15-0.12,0.31-0.25,0.46-0.38c0.52-0.43,1.04-0.86,1.55-1.3c0.53-0.44,1.07-0.9,1.59-1.34
					c3.83-3.25,7.63-6.55,11.39-9.89c0.24-0.2,0.47-0.41,0.7-0.62c2.56-2.27,5.12-4.56,7.65-6.87
					C478.18,316.15,478,302.16,477.19,288.16z M370.74,300.44c-0.05,1.53-0.89,2.44-2.45,2.33c-0.14-0.01-0.28-0.03-0.4-0.04
					c-0.1-0.02-0.19-0.04-0.28-0.06c-0.11-0.03-0.2-0.05-0.3-0.09c-0.03-0.01-0.05-0.02-0.08-0.04c-0.11-0.04-0.21-0.1-0.31-0.15
					c-0.11-0.06-0.2-0.13-0.29-0.2c-0.06-0.05-0.12-0.12-0.18-0.18c-0.14-0.16-0.26-0.34-0.34-0.54c-0.02-0.04-0.04-0.1-0.05-0.15
					c-0.02-0.07-0.04-0.14-0.04-0.21c-0.02-0.04-0.02-0.09-0.03-0.14c-0.01-0.09-0.02-0.19-0.02-0.28c0-0.23,0.03-0.48,0.09-0.75
					c0.44-1.84,0.61-3.67,0.68-5.55c0.56-15.09,3.99-29.61,8.73-43.88c0.61-1.83,1.75-2.55,3.44-1.92c1.78,0.67,1.99,2.11,1.12,3.73
					c-0.55,1.02-1.23,2-1.62,3.08c-4.71,12.96-6.92,26.42-7.64,40.13c0,1.03,0.02,2.05,0.02,3.08c0,0.43-0.01,0.85-0.02,1.28
					c0,0.13-0.01,0.26-0.01,0.39C370.74,300.33,370.74,300.39,370.74,300.44z"/>
				<path class="st3" d="M398.31,185.49c0.12-2.12-0.32-3.08-2.62-2.4c-0.65,0.19-1.4,0.09-2.09,0.07c-1.8-0.05-3.44-0.45-3.14-2.75
					c0.28-2.14,1.88-1.63,3.25-1.26c2.2,0.59,4.04-0.27,5.41-1.74c4.41-4.74,7.48-10.15,7.43-16.87c-0.02-2.77-1.06-5.03-3.72-6.23
					c-2.79-1.25-5.05-0.03-7,1.8c-2.28,2.12-3.61,4.8-4.19,7.91c-0.66,3.51-5.24,6.07-8.64,5.06c-1.32-0.4-1.45-1.44-1.48-2.48
					c-0.15-5.64-2.36-10.04-7.04-13.4c-3.21-2.31-4.22-5.78-3.18-9.71c0.81-3.05,1.81-6.07,2.34-9.16c0.58-3.4-0.72-4.59-4.13-3.94
					c-7.93,1.49-15.83,3.12-23.74,4.68c-2.77,0.55-5.68,1.08-8.36,0.36c-3.4-0.92-4.1,0.74-5.16,3.35
					c-2.33,5.7-1.26,11.55-1.42,17.34c-0.05,1.65,1.06,1.79,2.33,1.87c1.74,0.12,3.53,0.24,5.03,1.27c0.77,0.53,1.59,1.18,1.13,2.28
					c-0.38,0.91-1.25,0.94-2.11,0.81c-0.81-0.12-1.61-0.35-2.42-0.4c-1-0.05-2.68-0.96-2.39,1.16c0.17,1.17-0.22,3.46,2.45,2.68
					c2.52-0.73,4.45,1.08,6.62,1.78c1.29,0.41,1.17,1.88,1.1,3.07c-0.19,3.18-1.12,6.2-2.06,9.21c-1.06,3.35-0.5,4.25,2.81,4.76
					c1.03,0.17,2.84-0.48,2.68,1.3c-0.15,1.54-1.93,0.96-2.95,0.98c-4.27,0.1-6.14-2.4-5.08-6.61c0.89-3.55,2.73-6.89,2.43-11.82
					c-1.79,2.39-2.84,3.8-5.15,3.52c-2.05-0.25-1.09,1.6-1.04,2.46c0.53,9.15,3.39,17.63,7.71,25.65c1.28,2.38,2.37,4.83,3.25,7.37
					c1.54,4.46,3.29,5.59,8.02,5.58c5.53-0.01,10.61-1.75,15.49-4.05c5.39-2.54,10.67-5.36,15.05-9.55
					c0.62-0.59,1.27-1.69,2.32-1.08c1.37,0.78,0.75,2.11,0.32,3.14c-3.08,7.53-8.6,12.99-15.1,17.58c-1.52,1.08-3.13,2.28-4.87,2.72
					c-4.32,1.08-5.15,3.75-4.8,7.77c0.28,3.23-0.4,6.53-0.39,9.8c0.01,4.13,1.99,5.32,5.47,3.2c9.79-5.98,19.02-12.78,28.44-19.33
					c2.5-1.73,4.95-3.53,7.49-5.19c1.46-0.95,1.64-1.94,0.92-3.49C399.27,205.31,397.71,195.58,398.31,185.49z M394.23,170.19
					c0.9-1.41,1.57-2.87,1.11-4.91c0.07-0.52,0.02-1.39,0.32-2.1c0.47-1.09,1.54-1.32,2.67-1.21c0.77,0.07,1.7,0.74,1.44,1.19
					c-1.51,2.76-0.41,6.37-2.93,8.76c-0.73,0.68-1.56,1.18-2.48,0.49C393.56,171.81,393.77,170.92,394.23,170.19z M359.75,192.54
					c-3.29,2.7-7.15,3.83-11.52,3.98c-1.41-0.3-4.03,0.56-4.03-1.84c-0.01-2.3,2.49-1.46,3.97-1.46c3.6-0.01,6.97-0.6,9.81-3
					c0.82-0.69,1.56-2.28,2.76-0.93C361.81,190.5,360.79,191.68,359.75,192.54z M359.48,169.18c-0.65,1.3-2.33,1.33-3.41,0.58
					c-1.26-0.87-3.38-1.26-3.48-2.97c-0.09-1.4,1.57-2.21,2.89-2.7c3.32-1.24,5.94,0.52,8.63,2.3
					C362.27,167.1,360.49,167.17,359.48,169.18z M366.51,158.64c-0.22,0.83-0.99,1.02-1.67,0.88c-4.36-0.91-8.53-0.36-12.66,1.26
					c-1.02,0.4-2.16,0.07-2.44-1.25c-0.26-1.24,0.5-1.97,1.59-2.35c2.54-0.87,5.12-1.56,8.17-1.58c1.88,0.08,4.08,0.25,6.08,1.37
					C366.24,157.34,366.73,157.84,366.51,158.64z"/>
				<path class="st3" d="M351.94,129.55c-0.56,0.11-1.16,0.08-1.64,0.1c-4.37-0.49-8.76-0.63-12.08-3.95
					c-0.62-0.62-1.41-1.39-0.56-2.4c0.66-0.78,1.47-0.64,2.18-0.12c3.54,2.63,7.59,3.33,11.88,3.18c1-0.03,1.96,0.23,2.02,1.4
					C353.8,128.89,352.91,129.36,351.94,129.55z"/>
				<path class="st3" d="M308.39,373.07c-0.18,0.22-0.51,0.33-0.77,0.49c0.49-2.83,2.05-4.68,4.57-5.65
					C311.06,369.74,309.74,371.42,308.39,373.07z"/>
				<path class="st21" d="M330.03,397.36c15.64-0.37,31.3,0.37,46.93-0.61c0.81-0.05,1.64-0.08,2.45,0.02
					c1.16,0.14,2.64,0.35,2.49,1.85c-0.15,1.44-1.64,0.96-2.6,0.95c-17.51-0.17-35.01,0.98-52.53,0.55
					c-1.76-0.04-3.73-0.06-4.91,1.38c-2.07,2.55-2.61,1.05-3.17-0.94c-0.27-0.97-1.11-1.79-0.74-3.41
					C321.95,398.6,325.98,397.46,330.03,397.36z"/>
				<path d="M237.92,359.43c2.41,0.37,3.96,1.89,4.39,4.29c0.25,1.4-0.59,2.35-2.01,2.11c-2.36-0.41-3.84-1.95-4.49-4.08
					C235.83,360.16,236.51,359.22,237.92,359.43z"/>
				<path class="st21" d="M312.33,400.2c-4.98-11.98-9.96-23.95-14.96-35.92c-3.73-8.95-7.48-17.9-11.21-26.85
					c-2.34-5.61-4.84-11.17-6.96-16.85c-1.38-3.72-3.78-4.76-7.55-4.72c-14.38,0.16-28.77,0.07-43.17,0.07l-44.56,1.56
					c-3.4,0.01-4.64,2.14-3.3,5.88c2.68,7.48,5.49,14.91,8.25,22.37c6.01,16.22,12.02,32.45,18.01,48.68
					c2.68,7.27,3.47,7.5,11.14,7.55c12.05,0.08,24.09,0.6,36.13,0.94c3.16,0.09,6.31,0.18,9.47,0.28c15.2,0.44,30.4,0.88,45.6,1.29
					C313.18,404.55,313.8,403.74,312.33,400.2z M240.33,369.49c-3.83-0.1-8.3-4.81-8.23-8.66c0.06-3.14,2.6-5.64,5.59-5.52
					c4.15,0.17,8.37,4.83,8.2,9.05C245.77,367.3,243.3,369.57,240.33,369.49z"/>
				<path class="st3" d="M405.38,388.16c-0.36,0.27-0.73,0.52-1.09,0.78c-1.04,0.75-2.09,1.48-3.14,2.21
					c-2.3,1.62-4.62,3.22-6.95,4.8c-1.56-0.33-3.12-0.66-4.68-0.96c-6.75-1.32-13.45-3.67-20.41-2.28
					c-9.3,1.86-18.32,1.71-27.14-2.13c-5.64-2.46-10.93-2.11-15.61,2.29c-0.58,0.55-1.34,0.93-2.06,1.3
					c-1.11,0.56-2.06,0.03-2.9-0.64c-0.99-0.78-0.95-1.84-0.52-2.88c0.96-2.28,2.8-3.72,4.92-4.78c2.64-1.33,5.51-1.93,8.41-2.38
					c1.5-0.24,3.03-0.72,2.66-2.5c-0.33-1.58-1.97-1.48-3.24-1.16c-6.07,1.56-12.58,2.28-16.37,8.34c-0.29,0.47-0.83,0.83-1.32,1.14
					c-0.96,0.6-1.92,0.86-2.79-0.21c-0.77-0.95-0.67-1.7-0.03-2.8c3.68-6.29,8.62-10.66,16.2-11.37c0.81-0.07,1.61-0.29,2.39-0.52
					c1.11-0.3,2-0.93,1.77-2.21c-0.27-1.48-1.5-1.8-2.71-1.47c-6.91,1.92-14.48,2.66-18.32,10.18c-0.36,0.72-0.91,2.38-2.22,1.39
					c-0.82-0.63-1.65-2.1-1.03-3.12c2.28-3.76,4-8.17,8.32-10.13c7.8-3.55,15.76-5.98,24.07-1.34c0.6,0.33,1.32,0.49,1.97,0.72
					c10.55,3.64,21.08,7.06,32.53,4.23c4.87-1.2,9.94-1.56,14.86-2.57c2.72-0.55,4.7,0.2,6.63,2.05
					C402.25,376.62,404.54,382.09,405.38,388.16z"/>
				<path d="M481.22,290.95c-0.45-9.37-1.61-18.61-3.85-27.73c-1.88-7.66-5.7-13.75-12.81-17.53c-1.34-0.71-2.54-1.68-3.87-2.42
					c-0.55-0.31-1.09-0.61-1.61-0.92c-2.7-1.64-4.69-3.56-3.33-7.8c0.83-2.6-0.63-5.23-2.44-7.4c-4.78-5.79-8.87-12.07-12.66-18.53
					c-2.04-3.46-4.92-5.11-8.68-5.79c-8.23-1.48-16.53-1.93-24.83-1.24c-3.2,0.28-4.05-0.77-4.63-3.71
					c-1.41-7.22-0.46-13.83,3.1-20.3c6.86-12.49,10.22-25.85,8.74-40.18c-1.02-9.76-5.54-17.25-14.66-21.55
					c-1.2-0.56-2.15-1.34-3.04-2.3c-5.31-5.72-11.87-8.25-19.69-8.52c-9.82-0.34-19.08,1.3-27.81,5.86
					c-3.92,2.04-7.8,3.37-12.32,1.21c-2.7-1.28-4.34,0.25-4.83,3.64c-0.55,3.86-0.75,4.04-4.27,2.24c-2.46-1.25-2.98,0.3-3.16,2.04
					c-0.51,4.61,1.43,8.44,4.32,11.84c0.87,1.01,1.6,1.64,0.84,3.24c-4.07,8.47-3.07,17.41-1.48,26.13c1,5.5,2.51,10.89,2.81,16.53
					c0.32,5.91,2.36,11.44,4.48,16.9c2.11,5.44,5.24,10.44,6.86,16.09c0.84,2.92,3.33,4.4,5.97,5.82
					c-8.41,3.56-14.05,9.55-17.01,18.03c-0.49,1.4-1.8,1.8-2.91,2.36c-5.62,2.87-11.23,5.76-16.92,8.5
					c-4.52,2.19-7.62,5.64-9.95,10.01c-6.3,11.81-9.02,24.77-12.24,37.56c-1.53,6.07-4.38,17.48-6.06,24.53
					c-2.2-4.25-4.98-5.81-10.46-5.7c-28.2,0.57-56.39,1.21-84.59,1.81c-1.52,0.04-3.04,0.04-4.56,0.03
					c-5.68-0.04-8.81,4.17-6.9,9.63c3.69,10.48,7.48,20.92,11.33,31.33c5.11,13.82,10.32,27.6,15.47,41.4
					c1.62,4.33,3.32,8.58,8.47,10.13c-0.05,0.07-0.11,0.12-0.15,0.18h0.03c3.5,0,5.98,1.58,7.45,3.83c13.08,0,26.14-0.01,39.22-0.01
					c18.32-0.01,36.65-0.01,54.98-0.01h58.95c4.37-2.76,8.71-5.56,13.02-8.42c0.71-2.42,2.25-2.86,4.08-2.71
					c1.52-1.03,3.04-2.06,4.56-3.1c-1.56-0.33-3.12-0.66-4.68-0.96c-6.75-1.32-13.45-3.67-20.41-2.28
					c-9.3,1.86-18.32,1.71-27.14-2.13c-5.64-2.46-10.93-2.11-15.61,2.29c-0.58,0.55-1.34,0.93-2.06,1.3
					c-1.11,0.56-2.06,0.03-2.9-0.64c-0.99-0.78-0.95-1.84-0.52-2.88c0.96-2.28,2.8-3.72,4.92-4.78c2.64-1.33,5.51-1.93,8.41-2.38
					c1.5-0.24,3.03-0.72,2.66-2.5c-0.33-1.58-1.97-1.48-3.24-1.16c-6.07,1.56-12.58,2.28-16.37,8.34c-0.29,0.47-0.83,0.83-1.32,1.14
					c-0.96,0.6-1.92,0.86-2.79-0.21c-0.77-0.95-0.67-1.7-0.03-2.8c3.68-6.29,8.62-10.66,16.2-11.37c0.81-0.07,1.61-0.29,2.39-0.52
					c1.11-0.3,2-0.93,1.77-2.21c-0.27-1.48-1.5-1.8-2.71-1.47c-6.91,1.92-14.48,2.66-18.32,10.18c-0.36,0.72-0.91,2.38-2.22,1.39
					c-0.82-0.63-1.65-2.1-1.03-3.12c2.28-3.76,4-8.17,8.32-10.13c7.8-3.55,15.76-5.98,24.07-1.34c0.6,0.33,1.32,0.49,1.97,0.72
					c10.55,3.64,21.08,7.06,32.53,4.23c4.87-1.2,9.94-1.56,14.86-2.57c2.72-0.55,4.7,0.2,6.63,2.05c4.67,4.5,6.96,9.96,7.8,16.04
					c1.19-0.83,2.37-1.67,3.56-2.52c-0.09-0.51-0.2-1.02-0.31-1.53c-2.49-11.17-9.55-18.47-19.98-19.92
					c5.7-2.53,11.27-3.2,16.54-4.84c10.63-3.29,18.18,0.77,24.13,9.29c0.28,0.39,0.54,0.78,0.81,1.17c1.05-0.8,2.1-1.62,3.14-2.44
					c-0.93-1.39-1.96-2.74-3.04-4.06c-2.15-2.61-4.79-4.73-7.81-7.2c7.63-2.12,14.75-2.07,21.89-0.54c0.96,0.2,1.92,0.42,2.87,0.66
					c1.22-1,2.44-2,3.65-3.02c-7.93-2.2-16.04-3.09-24.36-2.27c-0.67,0.06-1.34,0.01-2,0.01c-0.33-1.42,0.64-2.13,1.2-2.93
					c6.03-8.54,12.99-16.25,20.75-23.26c1.24-1.14,4.11-2.49,2.73-4.18c-1.78-2.17-3.79,0.44-5.24,1.64
					c-6.52,5.4-12.04,11.77-17.49,18.21c-1.2,1.4-2.39,2.83-3.55,4.2c-1.27-0.64-0.78-1.56-0.75-2.28
					c0.83-13.19,0.68-26.54,2.79-39.53c2.76-16.93,9.92-32.11,23.73-43.33c1.39-1.13,4.19-2.73,3.23-3.95
					c-1.33-1.69-3.48,0.52-5.01,1.55c-6.93,4.64-12.45,10.58-16.07,18.17c-1.81,3.8-3.63,7.59-5.47,11.37
					c-6.12,12.57-5.33,26.21-6.11,39.58c-0.45,7.82-0.87,15.65-2.2,23.38c-0.46,2.67-1.41,4.07-4.62,4.47
					c-8.24,1.01-16.21,3.38-24.05,6.16c-2.6,0.92-4.5,2.55-4.76,5.48c-0.1,1.09-0.47,1.88-1.56,1.97
					c-7.73,0.74-15.33,3.83-23.22,1.34c-7.47-2.35-14.94-4.66-22.37-7.13c-4.08-1.36-8-1.42-11.95,0.37
					c-3.56,1.62-7.29,2.36-11.24,2.28c-1.37-0.04-2.1,0.06-2.19-1.66c-0.2-3.79-0.43-7.58-0.67-11.37
					c-1.75-28.08-4.09-56.15-3.22-84.34c0.02-0.7,0.3-1.54-0.62-1.71c-0.79-0.14-1.16,0.67-1.47,1.28
					c-1.29,2.53-1.96,5.21-1.96,8.09c-0.06,21.55,0.74,43.05,2.55,64.52c0.21,2.56,0.23,5.15,0.39,7.72
					c0.12,1.93-0.63,2.26-2.27,1.47c-1.17-0.57-2.31-1.15-3.16-2.17c-0.81-0.99-1.63-1.96-2.82-2.69c2.52,3.4,1.09,9.37,7.21,10.39
					c0.92,0.15,1.19,0.72,1.29,1.35c0.07,0.38,0.08,0.78,0.12,1.15c0.36,3.13,0.64,6.28,0.95,9.41c0.13,1.33-0.46,2.5-1.64,2.79
					c-1.21,0.3-1.25-1.15-1.58-1.93c-0.93-2.2-1.87-4.39-2.79-6.59c-5.12-12.07-10.22-24.15-15.31-36.25
					c1.39-5.96,4.12-15.98,5.18-20.91c2.62-12.12,5.39-24.17,9.41-35.94c3.39-9.89,8.73-17.72,18.95-21.53
					c3.39-1.25,6.55-3.08,9.81-4.66c1.05-0.51,1.93-0.73,2.5,0.71c1.81,4.54,5.78,6.63,9.96,8.26c2.38,0.93,3.14,2.04,2.53,4.69
					c-1.94,8.37-1.93,16.95-2.33,25.49c-0.38,8.29-0.52,16.6-0.84,24.89c-0.09,2.1-0.46,4.18-0.68,6.27
					c-0.14,1.27-0.44,2.64,0.76,3.57c0.9,0.69,2,0.69,3,0.2c1.45-0.71,1.21-2.07,1.2-3.37c-0.02-17.44,0.44-34.86,2.03-52.24
					c0.21-2.3,0.71-4.65,1.5-6.83c1.02-2.78-0.05-4.31-2.51-5.13c-2.22-0.74-4.48-1.33-6.5-2.58c-3.54-2.2-5.15-5.18-4.44-9.46
					c1.3-7.95,9.77-15.02,17.63-14.54c4.73,0.29,4.97,0.6,4.29,6.02c-1.9-1.02-3.33-2.21-5.29-2.38c-4.42-0.37-6.93,2.71-5.32,6.87
					c0.62,1.6,1.66,3.08,2.71,4.48c2.89,3.86,6.6,6.93,10.1,10.21c2.83,2.64,5.29,2.6,8.32,0.48c9.02-6.28,18.13-12.46,27.23-18.62
					c8.61-5.82,17.07-11.97,27.3-14.81c1.5-0.41,2.62-1.25,2.01-3.04c-0.58-1.72-1.94-1.92-3.41-1.32c-3.14,1.29-6.37,2.43-9.3,4.09
					c-3.04,1.72-4.52,0.92-5.76-2.09c-1.93-4.68-1.8-5.16,3.16-5.4c7.03-0.33,14.04,0.12,21,1.16c3.54,0.53,6.2,2.14,7.89,5.6
					c3.17,6.44,8.13,11.7,12.16,17.58c0.66,0.97,1.55,1.79,1.71,3.02c0.18,1.4,0.42,2.96-0.61,4.03c-1.05,1.08-2.18-0.16-3.16-0.54
					c-3.59-1.38-7.2-0.51-10.77-0.17c-17.17,1.62-33.81,6.01-50.52,9.96c-1.64,0.38-2.96,1.28-2.44,3.16
					c0.57,2.08,2.21,1.61,3.74,1.15c17.87-5.33,36.08-8.88,54.65-10.6c1.6-0.14,3,0.37,4.38,0.99c2.64,1.16,5.19,2.45,7.68,3.86
					c4.12,2.32,8.08,4.92,11.94,7.69c2.49,1.79,3.96,4.15,5,7c3.43,9.33,4.68,19.11,5.24,28.9c0.82,14,1,27.99,0.25,41.94
					c1.15-1.04,2.29-2.09,3.44-3.15c0.23-0.21,0.46-0.43,0.69-0.64C482,314.56,481.79,302.77,481.22,290.95z M317.96,397.15
					c3.99,1.45,8.03,0.31,12.08,0.21c15.64-0.36,31.29,0.37,46.93-0.6c0.82-0.05,1.64-0.08,2.45,0.02c1.16,0.14,2.64,0.35,2.48,1.84
					c-0.14,1.44-1.64,0.96-2.6,0.95c-17.51-0.17-35.02,0.98-52.53,0.54c-1.77-0.04-3.73-0.06-4.91,1.39
					c-2.08,2.55-2.61,1.05-3.17-0.94C318.42,399.58,317.59,398.77,317.96,397.15z M312.2,367.91c-1.14,1.83-2.45,3.51-3.8,5.16
					c-0.18,0.22-0.51,0.33-0.77,0.49C308.12,370.73,309.66,368.88,312.2,367.91z M286.16,337.42c3.73,8.95,7.48,17.9,11.21,26.85
					c5,11.97,9.98,23.94,14.96,35.92c1.47,3.54,0.84,4.36-3.11,4.25c-15.2-0.41-30.4-0.85-45.6-1.29c-3.16-0.1-6.31-0.19-9.47-0.28
					c-12.04-0.34-24.08-0.86-36.13-0.94c-7.67-0.04-8.45-0.28-11.14-7.55c-5.99-16.23-12-32.46-18.01-48.68
					c-2.76-7.46-5.56-14.89-8.25-22.37c-1.34-3.73-0.11-5.87,3.3-5.88l44.56-1.56c14.39,0,28.78,0.09,43.17-0.07
					c3.77-0.04,6.17,1,7.55,4.72C281.33,326.26,283.82,331.81,286.16,337.42z M337.67,123.3c0.66-0.78,1.47-0.64,2.18-0.12
					c3.54,2.63,7.59,3.32,11.88,3.18c1-0.04,1.96,0.23,2.02,1.4c0.06,1.12-0.83,1.58-1.8,1.78c-0.56,0.12-1.16,0.08-1.64,0.11
					c-4.37-0.5-8.76-0.63-12.09-3.96C337.6,125.08,336.81,124.31,337.67,123.3z M402.59,218.02c-2.54,1.66-5,3.46-7.49,5.19
					c-9.41,6.54-18.65,13.34-28.44,19.33c-3.48,2.12-5.46,0.93-5.47-3.2c-0.01-3.26,0.68-6.57,0.39-9.8
					c-0.35-4.02,0.48-6.68,4.8-7.77c1.74-0.44,3.35-1.64,4.87-2.72c6.5-4.6,12.03-10.05,15.1-17.58c0.43-1.03,1.05-2.36-0.32-3.14
					c-1.05-0.6-1.7,0.5-2.32,1.08c-4.38,4.19-9.66,7-15.05,9.55c-4.87,2.3-9.96,4.04-15.49,4.05c-4.73,0.01-6.48-1.12-8.02-5.58
					c-0.88-2.54-1.97-4.99-3.25-7.37c-4.32-8.02-7.17-16.5-7.71-25.65c-0.05-0.86-1.01-2.71,1.04-2.46c2.3,0.28,3.36-1.13,5.15-3.52
					c0.3,4.93-1.54,8.28-2.43,11.82c-1.07,4.21,0.81,6.71,5.08,6.61c1.02-0.02,2.8,0.56,2.95-0.98c0.16-1.78-1.64-1.13-2.68-1.3
					c-3.31-0.52-3.87-1.41-2.81-4.76c0.94-3.01,1.88-6.03,2.06-9.21c0.07-1.19,0.19-2.66-1.1-3.07c-2.17-0.69-4.11-2.51-6.62-1.78
					c-2.68,0.78-2.28-1.5-2.45-2.68c-0.29-2.12,1.4-1.21,2.39-1.16c0.81,0.05,1.61,0.28,2.42,0.4c0.85,0.13,1.72,0.1,2.11-0.81
					c0.46-1.1-0.36-1.75-1.13-2.28c-1.5-1.03-3.29-1.16-5.03-1.27c-1.27-0.08-2.38-0.21-2.33-1.87c0.16-5.8-0.91-11.65,1.42-17.34
					c1.07-2.61,1.77-4.27,5.16-3.35c2.68,0.72,5.58,0.2,8.36-0.36c7.91-1.56,15.81-3.18,23.74-4.68c3.41-0.65,4.71,0.53,4.13,3.94
					c-0.52,3.09-1.53,6.12-2.34,9.16c-1.04,3.93-0.03,7.4,3.18,9.71c4.68,3.36,6.89,7.76,7.04,13.4c0.03,1.04,0.16,2.08,1.48,2.48
					c3.4,1.01,7.98-1.55,8.64-5.06c0.58-3.11,1.91-5.79,4.19-7.91c1.96-1.82,4.21-3.05,7-1.8c2.67,1.2,3.71,3.46,3.72,6.23
					c0.04,6.72-3.02,12.13-7.43,16.87c-1.37,1.48-3.22,2.33-5.41,1.74c-1.38-0.36-2.97-0.88-3.25,1.26
					c-0.3,2.29,1.34,2.69,3.14,2.75c0.69,0.02,1.44,0.12,2.09-0.07c2.3-0.68,2.75,0.28,2.62,2.4c-0.6,10.09,0.96,19.81,5.21,29.03
					C404.24,216.08,404.05,217.07,402.59,218.02z"/>
				<path d="M378.4,255.4c-4.71,12.96-6.92,26.41-7.64,40.13c0,1.64,0.05,3.28-0.01,4.91c-0.05,1.53-0.89,2.43-2.45,2.33
					c-1.72-0.11-2.63-1.19-2.24-2.84c0.44-1.84,0.61-3.68,0.68-5.55c0.56-15.09,3.99-29.61,8.73-43.88
					c0.61-1.83,1.75-2.55,3.44-1.92c1.78,0.66,1.99,2.11,1.12,3.73C379.47,253.33,378.8,254.32,378.4,255.4z"/>
				<path d="M237.69,355.32c-3-0.12-5.53,2.38-5.59,5.52c-0.07,3.85,4.4,8.56,8.23,8.66c2.97,0.08,5.44-2.2,5.56-5.13
					C246.06,360.14,241.84,355.48,237.69,355.32z M240.31,365.83c-2.36-0.41-3.84-1.95-4.5-4.08c0.03-1.58,0.7-2.53,2.11-2.32
					c2.41,0.36,3.96,1.88,4.39,4.29C242.57,365.13,241.72,366.08,240.31,365.83z"/>
				<path d="M364.84,159.52c-4.36-0.9-8.54-0.35-12.66,1.26c-1.03,0.4-2.17,0.08-2.45-1.25c-0.26-1.24,0.49-1.97,1.59-2.35
					c2.54-0.87,5.12-1.56,8.17-1.58c1.88,0.08,4.08,0.25,6.08,1.37c0.65,0.37,1.15,0.87,0.93,1.67
					C366.29,159.46,365.53,159.66,364.84,159.52z"/>
				<path d="M360.74,189.29c1.07,1.21,0.05,2.4-0.99,3.25c-3.29,2.71-7.15,3.84-11.52,3.99c-1.41-0.31-4.03,0.56-4.03-1.84
					c0-2.31,2.49-1.46,3.98-1.46c3.6-0.01,6.97-0.6,9.81-3C358.8,189.53,359.55,187.93,360.74,189.29z"/>
				<path d="M359.48,169.18c-0.65,1.3-2.33,1.33-3.42,0.58c-1.26-0.87-3.37-1.27-3.48-2.97c-0.08-1.4,1.57-2.21,2.89-2.7
					c3.33-1.24,5.94,0.52,8.63,2.3C362.27,167.1,360.48,167.17,359.48,169.18z"/>
				<path d="M395.34,165.29c0.07-0.52,0.01-1.38,0.32-2.1c0.47-1.1,1.54-1.32,2.66-1.21c0.78,0.07,1.7,0.74,1.45,1.19
					c-1.52,2.76-0.41,6.38-2.94,8.76c-0.73,0.68-1.57,1.19-2.48,0.49c-0.79-0.6-0.58-1.49-0.13-2.22
					C395.12,168.78,395.8,167.32,395.34,165.29z"/>
			</g>
		</g>
	</g>
</g>
</svg>
