<?xml version="1.0" encoding="utf-8"?>
<!-- Generator: Adobe Illustrator 25.0.0, SVG Export Plug-In . SVG Version: 6.00 Build 0)  -->
<svg version="1.1" id="Layer_1" xmlns="http://www.w3.org/2000/svg" xmlns:xlink="http://www.w3.org/1999/xlink" x="0px" y="0px"
	 viewBox="0 0 564.27 478" style="enable-background:new 0 0 564.27 478;" xml:space="preserve">
<style type="text/css">
	.st0{fill:#185AE9;}
	.st1{fill:#00B0FB;}
	.st2{fill:#00B0FB;fill-opacity:0.4;}
	.st3{fill:#FFFFFF;}
	.st4{fill:#3C7CFF;}
	.st5{fill:#001135;}
	.st6{fill:#00769D;}
	.st7{fill:#8DB849;}
	.st8{fill:#5A863E;}
	.st9{fill:#FFFFFE;}
	.st10{fill:#F26322;}
	.st11{fill:#009CDE;}
	.st12{clip-path:url(#SVGID_1_);}
	.st13{fill:#FFFFFF;filter:url(#Adobe_OpacityMaskFilter);}
	.st14{mask:url(#prefix__a_2_);}
	.st15{fill:#FFFFFF;filter:url(#Adobe_OpacityMaskFilter_1_);}
	.st16{mask:url(#prefix__b_2_);}
	.st17{fill:url(#SVGID_2_);}
	.st18{fill:url(#SVGID_3_);}
	.st19{fill:#FF2D20;}
	.st20{fill:#FDFDFD;}
	.st21{fill:#DBDBDB;}
	.st22{fill:#070707;}
	.st23{fill:#060605;}
	.st24{fill:#080707;}
	.st25{fill:#181717;}
	.st26{fill:#0F0F0F;}
	.st27{fill:#010101;}
	.st28{fill:#060606;}
	.st29{fill:#050505;}
	.st30{fill:#040404;}
	.st31{fill:#080808;}
	.st32{fill:#030303;}
	.st33{fill:#0C0C0C;}
	.st34{fill:#FEFEFE;}
	.st35{fill:#F8F8F8;}
	.st36{fill:#F1F1F1;}
	.st37{fill:#FAFAFA;}
	.st38{fill:#F9F9F9;}
	.st39{fill:#F2F2F2;}
	.st40{fill:#F7F7F7;}
	.st41{fill:#F3F3F3;}
	.st42{fill:#0D0D0D;}
	.st43{fill:#090909;}
	.st44{fill:#0A0A0A;}
	.st45{fill:#070807;}
	.st46{fill:#020202;}
	.st47{fill:#141414;}
	.st48{fill:#0E0E0E;}
	.st49{fill:#FCFCFC;}
	.st50{fill:#D2D3D3;}
	.st51{fill:#F6F6F6;}
	.st52{fill:#BABBBB;}
	.st53{fill:#8A8A8A;}
	.st54{fill:#8E8F8F;}
	.st55{fill:#5F5E5E;}
</style>
<g>
	<g>
		<path d="M91.48,287.73c-28.7,0-57.4,0-86.09,0c-4.72,0-5.39-0.69-5.39-5.37c0.02-29.8,0.02-59.61,0.04-89.41
			c0-5.49,0.43-5.91,5.84-5.92c57.28-0.05,114.57-0.1,171.85-0.14c5.14,0,5.67,0.59,5.67,5.71c-0.01,29.25-0.02,58.5,0.01,87.75
			c0.01,7.07-0.25,7.39-7.16,7.39c-28.25,0-56.51,0-84.76,0C91.48,287.74,91.48,287.74,91.48,287.73z M5.09,282.54
			c57.91,0,115.56,0,173.29,0c0-30.38,0-60.46,0-90.57c-57.84,0-115.5,0-173.29,0C5.09,222.22,5.09,252.22,5.09,282.54z"/>
		<path class="st21" d="M5.09,282.54c0-30.32,0-60.32,0-90.57c57.79,0,115.45,0,173.29,0c0,30.11,0,60.19,0,90.57
			C120.65,282.54,63,282.54,5.09,282.54z M17.43,268.43c0-21.76,0-42.92,0-64.08c0-1,0.07-2.01-0.09-2.98
			c-0.15-0.92-0.74-1.65-1.79-1.66c-1.14-0.01-1.9,0.59-2.05,1.74c-0.11,0.87-0.1,1.77-0.1,2.65c0.01,22.38,0.1,44.76-0.03,67.14
			c-0.02,3.31,1.14,4.2,4.2,4.2c49.74-0.03,99.48,0,149.23,0.02c1.65,0,3.49-0.12,3.42-2.14c-0.07-1.99-1.9-2-3.56-1.99
			c-46.19,0.07-92.38,0.11-138.58,0.15c-2.12,0-4.24,0-6.37,0c0.05-0.64,0.02-0.82,0.07-0.85c2.63-1.41,5.3-2.73,7.88-4.23
			c1.18-0.68,1.99-0.67,3.26-0.02c3.91,2,8.07,0.1,9.03-4.13c0.31-1.36,0.91-2.11,1.96-2.81c6.55-4.34,13.07-8.71,19.61-13.06
			c0.54-0.36,1.2-0.92,1.74-0.86c4.72,0.51,9.8-1.31,14.03,2.49c1.52,1.36,3.64,2.06,5.52,3c1.02,0.52,1.63,1.05,1.88,2.38
			c0.56,3.11,3.29,5.09,6.15,4.92c3.1-0.19,5.65-2.58,5.69-5.84c0.02-1.74,0.61-2.92,1.7-4.08c3.78-4.05,7.55-8.1,11.27-12.2
			c2.87-3.16,5.56-6.39,10.36-6.74c2.68-0.2,4.89-0.48,6.14,2.67c1.06,2.69,3.61,3.61,6.29,3.27c2.87-0.37,5.13-2.1,5.2-5.15
			c0.04-1.93,0.98-2.79,2.18-3.72c5.16-4,10.34-7.98,15.52-11.95c1.49-1.14,2.87-1.99,5.07-1.74c3.19,0.37,5.98-2.62,6.08-5.75
			c0.09-2.97-2.19-5.58-5.17-5.93c-2.99-0.35-6.47,1.67-6.34,4.47c0.16,3.5-2,4.8-4.15,6.44c-3.61,2.75-7.18,5.55-10.83,8.25
			c-2.74,2.03-5.09,5.09-9.23,3.82c-0.36-0.11-0.89,0.1-1.27,0.3c-3.16,1.67-5.16,0.14-6.78-2.43c-1.65-2.61-3.89-3.9-7-2.99
			c-3.1,0.91-4.47,3.16-4.26,6.28c0.1,1.44-0.18,2.48-1.2,3.55c-5.36,5.6-10.65,11.27-15.97,16.9c-0.44,0.47-1.01,1.2-1.49,1.18
			c-3.35-0.14-6.8,1.73-10.04-1.11c-1.95-1.7-4.58-2.63-6.94-3.84c-1.7-0.88-2.99-1.88-3.61-3.93c-0.83-2.76-3.11-3.93-5.97-3.67
			c-2.88,0.26-4.89,2.01-5.2,4.74c-0.22,2.02-1.27,2.87-2.65,3.79c-6.25,4.19-12.52,8.35-18.71,12.61
			c-1.23,0.85-2.13,0.94-3.59,0.43c-3.61-1.27-6.58,0.4-7.73,4.1c-0.27,0.87-0.37,1.67-1.27,2.15
			C25.22,264.16,21.56,266.17,17.43,268.43z"/>
		<path d="M17.43,268.43c4.13-2.25,7.78-4.26,11.46-6.23c0.9-0.48,1.01-1.29,1.27-2.15c1.14-3.7,4.12-5.37,7.73-4.1
			c1.45,0.51,2.36,0.42,3.59-0.43c6.2-4.26,12.46-8.42,18.71-12.61c1.38-0.92,2.43-1.77,2.65-3.79c0.3-2.73,2.31-4.48,5.2-4.74
			c2.86-0.26,5.14,0.91,5.97,3.67c0.62,2.05,1.91,3.06,3.61,3.93c2.36,1.21,5,2.14,6.94,3.84c3.24,2.84,6.69,0.97,10.04,1.11
			c0.48,0.02,1.05-0.71,1.49-1.18c5.33-5.63,10.61-11.3,15.97-16.9c1.02-1.06,1.3-2.11,1.2-3.55c-0.21-3.11,1.16-5.37,4.26-6.28
			c3.11-0.91,5.35,0.38,7,2.99c1.62,2.57,3.62,4.1,6.78,2.43c0.38-0.2,0.91-0.41,1.27-0.3c4.14,1.27,6.49-1.79,9.23-3.82
			c3.65-2.7,7.22-5.5,10.83-8.25c2.15-1.64,4.32-2.94,4.15-6.44c-0.13-2.8,3.35-4.82,6.34-4.47c2.98,0.35,5.26,2.96,5.17,5.93
			c-0.09,3.13-2.89,6.12-6.08,5.75c-2.2-0.25-3.58,0.6-5.07,1.74c-5.18,3.98-10.36,7.95-15.52,11.95c-1.2,0.93-2.14,1.79-2.18,3.72
			c-0.06,3.04-2.32,4.78-5.2,5.15c-2.67,0.34-5.22-0.57-6.29-3.27c-1.25-3.16-3.46-2.87-6.14-2.67c-4.8,0.35-7.49,3.58-10.36,6.74
			c-3.72,4.1-7.49,8.15-11.27,12.2c-1.09,1.17-1.68,2.35-1.7,4.08c-0.03,3.25-2.59,5.65-5.69,5.84c-2.85,0.17-5.58-1.81-6.15-4.92
			c-0.24-1.33-0.85-1.87-1.88-2.38c-1.88-0.94-4-1.64-5.52-3c-4.24-3.8-9.31-1.98-14.03-2.49c-0.55-0.06-1.2,0.5-1.74,0.86
			c-6.54,4.35-13.06,8.72-19.61,13.06c-1.05,0.7-1.65,1.45-1.96,2.81c-0.96,4.23-5.12,6.13-9.03,4.13
			c-1.28-0.65-2.08-0.66-3.26,0.02c-2.58,1.5-5.25,2.82-7.88,4.23c-0.05,0.03-0.02,0.21-0.07,0.85c2.13,0,4.25,0,6.37,0
			c46.19-0.04,92.38-0.08,138.58-0.15c1.66,0,3.49,0.01,3.56,1.99c0.07,2.03-1.77,2.15-3.42,2.14
			c-49.74-0.03-99.48-0.06-149.23-0.02c-3.06,0-4.22-0.89-4.2-4.2c0.13-22.38,0.04-44.76,0.03-67.14c0-0.89-0.02-1.78,0.1-2.65
			c0.15-1.15,0.91-1.75,2.05-1.74c1.05,0.01,1.64,0.74,1.79,1.66c0.16,0.97,0.09,1.98,0.09,2.98
			C17.44,225.5,17.43,246.66,17.43,268.43z"/>
	</g>
	<g>
		<path d="M283.09,192.37c-0.01,15.16-12.68,27.6-28.17,27.63c-15.46,0.04-28.52-12.57-28.57-27.59
			c-0.05-15.34,12.89-27.75,28.89-27.71C270.68,164.74,283.1,177.07,283.09,192.37z M229.34,192.51
			c0.15,13.79,11.74,24.82,25.91,24.66c13.76-0.16,25.23-11.62,25.06-25.03c-0.18-13.78-11.78-24.97-25.68-24.78
			C240.57,167.55,229.19,178.87,229.34,192.51z"/>
		<path class="st20" d="M229.34,192.51c-0.15-13.64,11.23-24.96,25.3-25.15c13.9-0.19,25.5,11.01,25.68,24.78
			c0.17,13.41-11.3,24.87-25.06,25.03C241.08,217.33,229.49,206.3,229.34,192.51z M272.67,186.31c-0.54-2.28-1.44-4.22-2.84-5.91
			c-6.56-7.97-18.29-9.48-26.6-3.35c-2.48,1.83-4.6,4.03-5.9,6.88c-0.54,1.18-0.54,2.38,0.76,3.05c1.24,0.64,2.4,0.28,3.27-0.83
			c0.21-0.27,0.33-0.62,0.51-0.92c2.7-4.38,6.61-6.93,11.73-7.41c5.7-0.54,12.58,2.59,15.27,10.22c-1.41,0.82-2.84,1.66-4.43,2.58
			c3.76,2.28,7.33,4.45,11.03,6.7c0.26-4.28,0.5-8.29,0.75-12.47C275,185.35,273.98,185.77,272.67,186.31z M236.28,198.24
			c0.25,0.56,0.46,1.04,0.68,1.51c3.78,8.23,12.1,12.71,21.05,11.24c5.82-0.96,10.3-4.03,13.47-8.99c0.98-1.53,0.86-2.85-0.24-3.58
			c-1.24-0.83-2.68-0.37-3.71,1.18c-0.03,0.05-0.05,0.11-0.08,0.16c-1.51,2.57-3.71,4.35-6.37,5.61c-8.72,4.14-17.96-1.19-20.4-8.62
			c1.36-0.46,2.72-0.92,4.3-1.46c-3.18-1.96-6.19-3.81-9.28-5.72c-1.2,3.42-2.31,6.58-3.48,9.93
			C233.65,199.06,234.86,198.69,236.28,198.24z"/>
		<path d="M272.67,186.31c1.31-0.54,2.33-0.96,3.56-1.46c-0.25,4.19-0.49,8.19-0.75,12.47c-3.7-2.25-7.27-4.42-11.03-6.7
			c1.59-0.93,3.03-1.76,4.43-2.58c-2.69-7.64-9.57-10.76-15.27-10.22c-5.12,0.48-9.03,3.03-11.73,7.41c-0.18,0.3-0.3,0.65-0.51,0.92
			c-0.87,1.11-2.03,1.47-3.27,0.83c-1.3-0.67-1.3-1.87-0.76-3.05c1.3-2.86,3.42-5.06,5.9-6.88c8.31-6.13,20.04-4.62,26.6,3.35
			C271.23,182.09,272.14,184.03,272.67,186.31z"/>
		<path d="M236.28,198.24c-1.42,0.44-2.63,0.82-4.05,1.26c1.17-3.35,2.28-6.51,3.48-9.93c3.09,1.9,6.1,3.76,9.28,5.72
			c-1.59,0.54-2.95,1-4.3,1.46c2.44,7.43,11.68,12.76,20.4,8.62c2.66-1.26,4.87-3.04,6.37-5.61c0.03-0.05,0.04-0.11,0.08-0.16
			c1.02-1.55,2.46-2.01,3.71-1.18c1.1,0.73,1.22,2.05,0.24,3.58c-3.17,4.96-7.65,8.03-13.47,8.99c-8.94,1.47-17.27-3.01-21.05-11.24
			C236.75,199.28,236.54,198.81,236.28,198.24z"/>
	</g>
	<g>
		<g>
			<path d="M287.38,120.26c-5.84-3.03-11.47-5.85-16.98-8.88c-1.81-0.99-2.97-0.95-4.65,0.37c-7.37,5.81-15.06,11.19-23.08,16.08
				c-1.19,0.72-2.39,1.69-4.38,0.87c9.29-10.58,18.44-21,27.74-31.59c5.79,3,11.5,5.95,17.43,9.01
				c7.36-11.81,14.65-23.52,22.1-35.48c-3.4-1.13-6.76-2.25-10.84-3.61c9.29-4.78,17.98-9.25,27.14-13.97
				c0.42,10.09,0.83,19.73,1.24,29.37c-0.21,0.11-0.41,0.22-0.62,0.33c-2.43-2.27-4.85-4.54-7.41-6.93
				C305.85,90.61,296.68,105.33,287.38,120.26z"/>
		</g>
		<g>
			<path d="M124.53,118.82c0.41,5.81,0.78,11.13,1.16,16.59c-14.86,0-29.46,0-44.4,0c0.26-5.46,0.51-10.78,0.76-16.04
				c-1.18-0.93-2.42-0.58-3.55-0.58c-24.28,0.01-48.56,0.04-72.84,0.08c-5.24,0.01-5.55-0.28-5.56-5.58
				C0.07,77.97,0.04,42.65,0,7.32C-0.01,1.8,1.68,0.09,7.36,0.09c41.49-0.02,82.99-0.02,124.48-0.03
				c21.29-0.01,42.59-0.04,63.88-0.06c5.92,0,7.67,1.75,7.69,7.58c0.11,35.02,0.23,70.05,0.33,105.07c0.02,5.96-0.14,6.15-6.25,6.15
				c-22.49,0.02-44.98,0.01-67.46,0.01C128.36,118.82,126.69,118.82,124.53,118.82z M197.94,103.26c0-32.69,0-65.17,0-97.61
				c-1.31-0.63-2.52-0.39-3.69-0.39c-61.7-0.02-123.4,0-185.1-0.09C6.2,5.16,5.28,5.8,5.3,8.92c0.14,24.38,0.07,48.76,0.07,73.14
				c0,7.03,0,14.06,0,21.2C69.77,103.26,133.8,103.26,197.94,103.26z"/>
			<path d="M103.61,145.11c-16.01,0-32.03-0.03-48.04,0.03c-2.49,0.01-3.93-0.42-3.87-3.4c0.06-2.79,1.16-3.52,3.81-3.52
				c32.23,0.06,64.46,0.05,96.69,0c2.31,0,3.26,0.82,3.24,3.12c-0.02,2.23-0.24,3.81-3.18,3.79c-16.21-0.09-32.43-0.04-48.64-0.04
				C103.61,145.1,103.61,145.1,103.61,145.11z"/>
			<path class="st20" d="M197.94,103.26c-64.13,0-128.16,0-192.57,0c0-7.14,0-14.17,0-21.2c0-24.38,0.07-48.76-0.07-73.14
				C5.28,5.8,6.2,5.16,9.15,5.16c61.7,0.09,123.4,0.07,185.1,0.09c1.17,0,2.37-0.24,3.69,0.39
				C197.94,38.09,197.94,70.57,197.94,103.26z M190.63,95.6c0.09-0.54,0.2-0.91,0.2-1.29c0.02-26.86,0.01-53.73,0.07-80.59
				c0-2.02-0.91-2.18-2.56-2.18c-54.02,0.03-108.04,0.03-162.07,0.03c-4.35,0-8.7,0-13.26,0c0,28.2,0,56,0,84.03
				C72.24,95.6,131.4,95.6,190.63,95.6z"/>
			<path d="M190.63,95.6c-59.23,0-118.38,0-177.62,0c0-28.03,0-55.83,0-84.03c4.55,0,8.91,0,13.26,0
				c54.02,0,108.04,0.01,162.07-0.03c1.65,0,2.57,0.15,2.56,2.18c-0.06,26.86-0.05,53.72-0.07,80.59
				C190.83,94.68,190.71,95.06,190.63,95.6z M15.24,93.29c57.91,0,115.47,0,173.1,0c0-21.36,0-42.52,0-63.8
				c-57.78,0-115.4,0-173.1,0C15.24,50.87,15.24,71.95,15.24,93.29z M36.42,24.19C36.42,24.19,36.42,24.19,36.42,24.19
				c3.47-0.01,6.95-0.01,10.42-0.01c5.11,0.01,5.02,0.01,4.97-4.96c-0.02-2.06-0.68-2.76-2.77-2.73
				c-7.74,0.11-15.48,0.05-23.22,0.04c-4.66-0.01-4.52-0.01-4.67,4.67c-0.08,2.42,0.76,3.12,3.07,3.03
				C28.28,24.08,32.35,24.19,36.42,24.19z M178.13,21.98c1.12-0.24,3.02,0.48,3.01-1.4c-0.01-1.48-1.72-1.37-2.88-1.29
				c-1.2,0.08-3.11-0.42-3.18,1.28C175,22.4,176.92,21.8,178.13,21.98z M150.23,20.18c1.24,1.58,6.23,2.29,7.24,1.22
				c0.67-0.71,0.31-1.58-0.32-1.65C154.89,19.52,152.54,19.08,150.23,20.18z M162.19,20.66c2.7,1.76,4.96,1.42,7.09,0.88
				c1-0.25,0.86-1.56-0.03-1.76C167.12,19.3,164.87,18.92,162.19,20.66z"/>
			<path class="st21" d="M15.24,93.29c0-21.34,0-42.42,0-63.8c57.7,0,115.32,0,173.1,0c0,21.28,0,42.44,0,63.8
				C130.71,93.29,73.14,93.29,15.24,93.29z M109.61,37.54c-28.14,0-56.09,0-84.03,0c0,15.79,0,31.26,0,46.86
				c28.08,0,55.97,0,84.03,0C109.61,68.65,109.61,53.1,109.61,37.54z M175.64,50.77c-1.28,0-2.55,0-3.82,0
				c-10.25,0.01-20.5,0.01-30.75,0.04c-7.26,0.02-14.53,0.09-21.79,0.14c-1.28,0.01-2.69-0.26-2.62,1.83
				c0.07,2.03,1.49,1.73,2.75,1.77c0.1,0,0.2,0,0.3,0c17.91,0,35.83,0,53.74-0.02c0.77,0,1.6,0.2,2.26-0.48
				C176.03,53.2,175.94,52.32,175.64,50.77z M116.89,66c19.83,0,39.36,0,58.88,0c0.14-1.24,0.37-2.22-0.29-3.31
				c-0.37-0.05-0.85-0.18-1.32-0.18c-18.4,0-36.81,0.03-55.21-0.01C116.16,62.49,116.5,64.03,116.89,66z M116.91,42.64
				c19.75,0,39.27,0,58.77,0c0.22-1.23,0.42-2.2-0.22-3.15c-0.27-0.08-0.55-0.22-0.83-0.22c-18.6-0.02-37.2,0-55.81-0.06
				C116.14,39.21,116.62,40.79,116.91,42.64z M117.14,77.79c10.77,0,21.31,0.01,31.84-0.01c1.32,0,2.95,0.39,2.95-1.86
				c0-2.29-1.68-1.84-2.97-1.84c-9.84-0.04-19.69,0.04-29.53-0.06C116.55,73.98,116.24,75.21,117.14,77.79z"/>
			<path class="st20" d="M36.42,24.19c-4.07,0-8.14-0.11-12.21,0.04c-2.32,0.09-3.15-0.61-3.07-3.03c0.15-4.68,0.01-4.67,4.67-4.67
				c7.74,0.01,15.48,0.07,23.22-0.04c2.1-0.03,2.75,0.67,2.77,2.73c0.05,4.97,0.14,4.97-4.97,4.96
				C43.37,24.18,39.89,24.18,36.42,24.19C36.42,24.19,36.42,24.19,36.42,24.19z"/>
			<path class="st20" d="M178.13,21.98c-1.21-0.18-3.13,0.43-3.06-1.41c0.07-1.7,1.99-1.2,3.18-1.28c1.16-0.08,2.87-0.19,2.88,1.29
				C181.15,22.46,179.26,21.73,178.13,21.98z"/>
			<path class="st20" d="M150.23,20.18c2.31-1.1,4.65-0.66,6.92-0.43c0.63,0.06,0.99,0.94,0.32,1.65
				C156.47,22.47,151.47,21.76,150.23,20.18z"/>
			<path class="st20" d="M162.19,20.66c2.68-1.74,4.93-1.36,7.06-0.88c0.89,0.2,1.03,1.51,0.03,1.76
				C167.14,22.08,164.89,22.42,162.19,20.66z"/>
			<path d="M109.61,37.54c0,15.56,0,31.11,0,46.86c-28.06,0-55.95,0-84.03,0c0-15.6,0-31.07,0-46.86
				C53.52,37.54,81.47,37.54,109.61,37.54z M106.3,40.94c-25.96,0-51.58,0-77.2,0c0,13.41,0,26.57,0,39.71
				c6.31,0.79,6.3,0.79,10.21-3.54c6.73-7.45,13.46-14.89,20.29-22.45c4.2,3.61,7.58,7.8,11.86,11.05
				c4.41-4.81,8.69-9.48,13.27-14.47C92,59.56,99.04,67.6,106.3,75.89C106.3,64.1,106.3,52.63,106.3,40.94z"/>
			<path d="M175.64,50.77c0.3,1.56,0.39,2.43,0.07,3.29c-0.66,0.68-1.5,0.48-2.26,0.48c-17.91,0.01-35.83,0.01-53.74,0.02
				c-0.1,0-0.2,0-0.3,0c-1.27-0.04-2.68,0.26-2.75-1.77c-0.07-2.09,1.34-1.82,2.62-1.83c7.26-0.05,14.53-0.12,21.79-0.14
				c10.25-0.03,20.5-0.03,30.75-0.04C173.09,50.76,174.36,50.77,175.64,50.77z"/>
			<path d="M116.89,66c-0.39-1.98-0.72-3.52,2.05-3.51c18.4,0.04,36.81,0.01,55.21,0.01c0.47,0,0.95,0.13,1.32,0.18
				c0.66,1.09,0.43,2.07,0.29,3.31C156.24,66,136.71,66,116.89,66z"/>
			<path d="M116.91,42.64c-0.29-1.85-0.77-3.43,1.91-3.42c18.6,0.05,37.2,0.04,55.81,0.06c0.28,0,0.56,0.14,0.83,0.22
				c0.64,0.95,0.44,1.92,0.22,3.15C156.18,42.64,136.66,42.64,116.91,42.64z"/>
			<path d="M117.14,77.79c-0.9-2.58-0.59-3.81,2.29-3.78c9.84,0.1,19.69,0.03,29.53,0.06c1.29,0,2.97-0.44,2.97,1.84
				c0,2.26-1.63,1.86-2.95,1.86C138.45,77.8,127.91,77.79,117.14,77.79z"/>
			<path class="st20" d="M106.3,40.94c0,11.7,0,23.16,0,34.95C99.04,67.6,92,59.56,84.72,51.24c-4.58,4.99-8.86,9.66-13.27,14.47
				c-4.28-3.25-7.66-7.44-11.86-11.05c-6.83,7.56-13.57,15-20.29,22.45c-3.9,4.33-3.9,4.33-10.21,3.54c0-13.13,0-26.3,0-39.71
				C54.72,40.94,80.34,40.94,106.3,40.94z"/>
		</g>
	</g>
	<g>
		<path d="M217.21,460.92c0.17-5.26,1.86-10.17,3.9-14.98c5.48-12.72,13.33-23.95,21.76-34.8c4.88-6.28,9.96-12.38,15.2-18.33
			c1.52-1.73,3.06-3.45,4.61-5.15c2.36-2.61,4.77-5.19,7.2-7.74c1.74-1.83,3.49-3.65,5.26-5.45c6.01-6.14,12.18-12.14,18.46-18.02
			c0.89-0.84,1.79-1.67,2.7-2.51c0.68-0.64,1.37-1.28,2.06-1.91c4.12-3.8,8.29-7.56,12.48-11.27c0.26-0.24,0.52-0.47,0.79-0.7
			c4.23-3.75,8.5-7.46,12.81-11.12c0.59-0.5,1.19-1.01,1.79-1.51c0.57-0.49,1.15-0.98,1.74-1.46c0.17-0.15,0.35-0.29,0.52-0.43
			c10.51-8.84,21.23-17.43,32.15-25.73c1.07-0.81,2.14-1.62,3.22-2.44c0.15-0.11,0.3-0.23,0.45-0.34c3.47-2.62,6.97-5.2,10.48-7.77
			c3.23-2.35,6.47-4.68,9.73-6.97c1.17-0.84,2.35-1.67,3.53-2.49c11.53-8.07,23.28-15.85,35.24-23.33c1.83-1.15,3.67-2.29,5.51-3.42
			c1.12-0.69,2.24-1.38,3.36-2.06c5.73-3.49,11.51-6.91,17.35-10.22c1.54-0.88,3.09-1.75,4.65-2.61c14.94-8.3,30.27-15.85,46.2-22.2
			c13.97-5.54,28.14-10.4,43.57-11.02c2.2,0.23,4.58,0.17,6.9,0.51c8.81,1.41,13.56,6.95,13.44,15.82
			c-0.04,4.81-1.36,9.27-3.11,13.67c-4.57,11.59-11.35,21.88-18.7,31.77c-9.17,12.33-19.13,23.93-29.64,35.03
			c-1.43,1.52-2.88,3.02-4.33,4.52c-1,1.04-2.02,2.07-3.03,3.1c-0.97,1-1.95,1.98-2.93,2.96c-1.76,1.76-3.53,3.5-5.31,5.25
			c-0.03,0.03-0.07,0.07-0.11,0.1c-0.94,0.93-1.9,1.85-2.85,2.76c-0.2,0.2-0.4,0.39-0.6,0.57c0,0.03-0.01,0.03-0.01,0.03
			c-0.12,0.11-0.23,0.22-0.35,0.33c-2.87,2.77-5.78,5.52-8.71,8.24c-1.03,0.96-2.07,1.91-3.1,2.86c-0.71,0.67-1.43,1.33-2.15,1.99
			c-0.7,0.64-1.41,1.28-2.12,1.92c-0.53,0.48-1.06,0.98-1.61,1.46c-0.56,0.51-1.12,1.01-1.68,1.5c-2.26,2.05-4.54,4.07-6.83,6.08
			c-0.28,0.23-0.55,0.48-0.82,0.71c-0.1,0.09-0.19,0.18-0.29,0.26c-0.58,0.5-1.15,1-1.73,1.5c-0.27,0.24-0.54,0.48-0.8,0.69
			c-2.78,2.42-5.57,4.81-8.38,7.17c-1.14,0.97-2.27,1.92-3.41,2.87c-1.06,0.89-2.12,1.76-3.19,2.64c-2.21,1.83-4.45,3.66-6.69,5.47
			c-0.01,0-0.01,0-0.01,0.01c-2.18,1.76-4.36,3.51-6.55,5.24c-0.2,0.16-0.41,0.32-0.61,0.48c-0.93,0.74-1.86,1.48-2.8,2.21
			c-0.92,0.72-1.84,1.43-2.76,2.14c-1.2,0.95-2.41,1.88-3.63,2.81c-3.76,2.89-7.54,5.76-11.35,8.58c-0.81,0.61-1.62,1.22-2.43,1.82
			c-1.77,1.31-3.54,2.61-5.32,3.9c-1.03,0.75-2.06,1.49-3.09,2.23c-2.56,1.87-5.15,3.71-7.74,5.54c-0.05,0.03-0.09,0.07-0.14,0.1
			c-0.15,0.11-0.29,0.2-0.44,0.31c-0.84,0.59-1.66,1.17-2.51,1.75c-0.16,0.11-0.32,0.22-0.48,0.33c-0.09,0.07-0.19,0.14-0.29,0.2
			c-3.62,2.55-7.25,5.05-10.92,7.52c-2.47,1.69-4.95,3.35-7.44,4.99c-1,0.67-2,1.34-3.02,1.98c-0.26,0.17-0.5,0.33-0.76,0.5
			c-0.89,0.59-1.78,1.17-2.68,1.76c-1.06,0.67-2.11,1.36-3.17,2.04c-4.61,2.94-9.26,5.84-13.95,8.67c-1.07,0.66-2.14,1.3-3.21,1.94
			c-0.8,0.48-1.59,0.95-2.38,1.42c-1.06,0.63-2.13,1.26-3.2,1.89c-6.44,3.76-12.94,7.41-19.54,10.93c-3.81,2.03-7.64,4.02-11.5,5.95
			c-0.98,0.51-1.96,0.99-2.94,1.49c-3.01,1.49-6.03,2.95-9.06,4.37v0.01c-1.34,0.62-2.67,1.24-4.01,1.84
			c-2.28,1.04-4.58,2.05-6.89,3.03c-9.41,3.99-19.04,7.48-29.02,10.12c-8.64,2.26-17.35,3.95-26.38,2.82
			C221.9,476.4,216.87,470.64,217.21,460.92z"/>
		<g>
			<g>
				<path d="M204.23,256.27c2.24,6.26,4.81,12.39,7.16,18.6c6.24,16.49,12.35,33.01,18.7,49.45c1.51,3.91,3.95,6.86,0.6,11.68
					c-3.73,5.34-0.69,9.79,5.99,11.15c3.34,0.67,6.6,1.71,9.9,2.52c9.24,2.26,18.48,4.48,28.07,6.8l14.81,3.18
					c0.68,0.17,1.37,0.36,2.05,0.53c14.97,3.83,30,7.45,45.01,11.13l22.56,1.41l56.03-14.93c1.73-1.06,3.47-2.14,5.2-3.22
					c2.21-1.37,4.43-2.77,6.6-4.17c0.01-0.01,0.02-0.01,0.03-0.01c-2.22-0.27-2.47-0.77-2.29-3.41c0.38-5.76,3.29-5.06,7.17-4.35
					c1.84,0.34,3.69,0.66,5.53,0.97c0.12-0.08,0.24-0.16,0.36-0.24c1.02-0.69,2.02-1.34,3.04-2.03c0.43-0.27,0.85-0.58,1.25-0.85
					c0.36-0.24,0.72-0.49,1.07-0.73c-9.37-1.04-18.68-2.69-27.95-4.88c-4.66-1.11-8.88-1.32-13.47,0.25
					c-5.26,1.82-10.57,0.59-15.23-2.08c-5.99-3.43-10.95-1.51-15.89,1.94c-0.88,0.62-1.64,1.44-2.52,2.06
					c-1.6,1.13-3.21,0.26-4.23-0.71c-1.24-1.16,0.39-2.21,1.03-3.06c3.04-4.06,7.59-6.01,11.95-8.33
					c-6.72-0.17-11.85,2.94-16.18,7.57c-2.23,2.37-4.55,3.01-7.52,0.88c4.4-6.26,9.95-10.85,17.37-13.05
					c-6.92-0.69-11.64,3.13-16.03,7.61c-1.3,1.32-2.54,2.75-4.01,3.84c-1.48,1.09-3.05,0.46-4.13-0.81
					c-1.4-1.63,0.61-2.04,1.31-2.74c5.26-5.33,10.84-10.18,18.29-12.26c0.81-0.23,1.75-0.51,2.11-1.75
					c-9.83,0.7-16.01,7.86-23.82,13.74c0.01-3.99,1.88-5.89,3.81-7.4c9.87-7.74,20.13-12.81,33.36-7.77
					c24.17,9.21,48.78,5.84,73.29,1.14c6.73-1.29,13.35-3.62,20.28-1.53c0.33-1.7-0.81-2.15-1.52-2.34c-3.86-1.01-3.52-3.87-3.98-7
					c-0.73-5.02,1.18-6.67,5.78-7.63c7.48-1.56,14.97-2.44,22.57-1.9c2.28,0.16,3.74,0.42,4.64,1.03c1.39-1.18,2.77-2.38,4.14-3.59
					c-1.08-0.48-2.16-0.9-3.24-1.27c-1.63-0.56-3.24-0.99-4.87-1.3c-0.32-0.06-0.65-0.12-0.98-0.18c-0.49-0.08-0.97-0.15-1.46-0.21
					c0,0,0,0-0.01,0c-0.49-0.06-0.97-0.11-1.45-0.16c-1.72-0.15-3.43-0.19-5.15-0.12c-0.02,0-0.02,0.01-0.03,0
					c-0.84,0.03-1.67,0.08-2.5,0.17c-2.24,0.21-4.48,0.58-6.72,1.09c-1.48,0.33-2.97,0.72-4.46,1.16c-0.5,0.15-0.99,0.3-1.49,0.45
					c-0.98,0.31-1.98,0.65-2.97,0.99c-0.49,0.17-0.99,0.36-1.48,0.54c-3.11,1.16-4.29,0.34-4.81-2.56
					c-0.08-0.46-0.31-0.92-0.28-1.36c1.09-13.08-1.89-25.87-2.81-38.8c-0.25-3.5,0.37-7.06,0.63-11.2
					c-3.56,6.85-3.64,13.7-3.11,20.93c-2.11-1.78-2.38-4.21-3.07-6.44c-2.04,0.2-0.44,2.01-1.22,2.76
					c4.15,10.39,5.49,21.17,4.51,32.27c-0.29,3.34,0.86,6.11,3.35,8.26c1.27,1.09,1.8,2.21,1.8,3.96c-0.01,7.69,0.04,7.58-7.55,8.71
					c-12.38,1.83-24.63,4.38-37.17,5.34c-11.53,0.88-22.5-0.82-33.38-4.27c-2.93-0.93-7.14-0.73-8.55-2.67
					c-1.45-1.97-0.04-5.93-0.14-9.02c-0.13-4.33-0.83-8.58-1.93-12.74c-0.36-1.37-0.77-2.73-1.22-4.08
					c-7.77-23.41-7.83-23.39-6.39-47.45c-2.58,3.88-4.68,12.08-5.03,19.77c-2.4-1.2-2.2-4.26-4.54-5.98
					c2.74,9.39,5.35,18.4,7.98,27.4c0.59,2,1.91,3.82-0.37,5.84c-2.48,2.19-3.22-0.74-4.53-1.35c-8.93-4.16-16.5-10.22-23.59-17.01
					c-3.06-2.93-3.3-4.89,0.09-7.82c5.2-4.49,8.92-10.2,11.75-16.5c2.03-4.5,4.21-8.95,6.47-13.35c4.04-7.85,9.78-13.78,18.48-16.56
					c4.1-1.3,7.88-3.53,12.24-4.51c0.52,3.58,0.35,7.24,2.54,10.28c0.31-0.59,0.61-1.18,0.9-1.78c-0.2-2.15-0.45-4.29-0.6-6.43
					c-0.18-2.73,1.02-4.36,4.25-4.73c-0.85,4.78-0.69,9.11,3.12,12.71c4.24,4.01,9.34,4.52,14.67,4.35
					c14.28-0.47,27.03-9.69,31.1-22.38c4.97,2,5.05,2.21,2.76,6.71c-3.11,6.12-8.16,10.39-13.62,14.27
					c0.36,0.37,0.71,0.74,1.08,1.11c7.05-3.45,12.29-8.79,15.74-15.75c1.33-2.7,2.46-3.13,5.22-1.84
					c10.72,5.04,22.07,8.75,31.81,15.83c1.38,1.01,2.66,2.1,3.85,3.25c3.53,3.45,6.25,7.51,8.71,11.95
					c6.25,11.26,9.94,42.2,10.26,57.44c5.82-5.17,11.48-10.49,16.98-16.01c-1.91-3.39-5.14-5.94-9.94-7.96
					c-2.62-1.1-4.21-2.32-3.55-5.85c5.35,1.47,10.49,2.56,15.23,4.9c1.73,0.86,3.14,1.75,4.24,2.74c1.3-1.37,2.58-2.75,3.85-4.15
					c-1.78-1.53-4.04-2.8-6.81-3.9c-2.3-0.91-4.6-2.23-6.99-2.44c-8.83-0.75-12.25-5.51-14.03-14.09
					c-1.98-9.51-5.95-18.11-12.45-24.93c-2.73-2.86-5.91-5.42-9.59-7.59c-13.51-8.02-28.35-13.07-42.92-18.68
					c-3.14-1.2-5.58-2.57-6.89-5.6c-3.29-7.67-6.77-14.7,1.25-22.55c6.61-6.47,8.77-16.19,12.12-24.81
					c2.22-5.74,2.89-11.71,1.12-17.78c-0.03-0.12,0.25-0.35,0.35-0.49c1.21,0.08,0.87,2.01,2.58,1.77
					c-0.25-7.87-4.22-13.58-10.68-17.32c-3.09-1.79-6.01-2.74-5.61-7.17c0.17-1.83-1.24-3.79-3.18-4.15
					c-2.07-0.39-0.79,2.43-1.91,3.37c-4.84-8.08-11.65-11.9-21.41-12.01c1.85,1.43,3.13,2.42,4.4,3.42
					c-8.02-2.77-16.1-3.26-24.29-1.88c-7.33,1.24-14.4,0.93-21.05-3.1c-1.52,4.55,1.95,6.85,4.03,9.77
					c-6.76,1.43-13.02,3.39-20.14,1.46c2,3.87,4.7,5.76,8.14,6.91c-4.48,3.45-9.43,3.72-14.81,3.09c1.23,4.54,4.21,6.47,8.38,7.09
					c-6.69,7.65-8.48,15.27-4.83,20.2c0.84-3.43,2.81-5.77,6.42-7.45c-0.41,5.11-0.43,9.84,2.54,13.65
					c2.76,3.53,3.15,7.25,2.28,11.38c-0.41,1.97-0.9,3.95-1.03,5.95c-0.8,12.76,5.59,22.83,12.53,32.62
					c2.28,3.23,5.81,4.61,9.65,4.9c2.3,0.17,4.65,0.03,6.95-0.25c1.77-0.22,2.81-0.02,3.47,1.9c0.75,2.2-0.83,2.34-2.02,2.82
					c-4.6,1.85-9.13,3.9-13.84,5.35c-13.1,4.07-22.29,12.3-27.69,24.89c-4.22,9.84-9.03,19.33-16.78,27.02
					c-1.69,1.67-3.2,4.23-2.07,6.29c2.66,4.88-0.79,7.15-3.26,10.15c-1.7,2.07-2.66,2.48-4.26-0.06c-1.97-3.12-4.87-5-8.61-5.75
					c-20.96-4.21-41.88-8.58-62.84-12.8c-12.46-2.51-24.93-4.92-37.4-7.29C206.37,242.68,201.39,248.33,204.23,256.27z
					 M415.89,174.55c-7.84,5.72-14.8,10.41-23.17,12.47c-10.37,2.54-13.74,0.72-19.67-7.89c-7.55-10.97-8.79-22.8-6.88-35.41
					c0-0.34-0.01-0.68-0.01-1.01c-0.27-0.88-0.6-1.74-0.81-2.63c-0.74-3.06-0.2-4.8,3.54-3.66c1.4,0.43,3.59,2.01,4.12-0.7
					c0.4-2.04-1.86-2.41-3.41-3.12c-1.52-0.7-4.02,1.3-4.44-0.67c-0.56-2.65,0.03-5.63,2.16-7.77c3.08-3.11,6.69-5.44,11.48-7.2
					c-1.3,2.98-3.68,5.09-2.87,8.23c5.84-2.55,11.59-5.05,17.63-7.68c-0.06,2.13-2.44,3.01-2.21,5.2c5.45,0.9,9.79-2.9,15.02-3.8
					c-1.49,8.28,0.45,14.93,7.37,20.12c3.41,2.56,2.75,7.25,3.27,11.16c0.11,0.82-0.55,1.98,0.78,2.29
					c1.02,0.24,1.85-0.47,2.34-1.22c1.03-1.53,1.82-3.22,2.77-4.8c2.04-3.43,5.12-5.07,9-4.2c3.65,0.82,4.97,3.66,5.27,7.27
					c0.66,8.11-5.9,15.37-14.02,15.29c-1.39-0.01-1.39-0.01-3.02,2.01c0.16,0.2,0.32,0.58,0.49,0.59c4.61,0.11,6.57,1.97,7.19,7.03
					c1,8.01,3.97,15.62,10.34,21.22c0.75,0.66,0.92,1.16,0.81,1.65c-0.02,0.12-0.06,0.24-0.12,0.36c-0.02,0.06-0.06,0.13-0.09,0.19
					c-0.1,0.19-0.22,0.39-0.34,0.6c-0.05,0.07-0.08,0.15-0.13,0.22c-0.16,0.29-0.33,0.58-0.5,0.88c-0.17,0.28-0.36,0.57-0.55,0.86
					c-0.14,0.21-0.29,0.42-0.44,0.64c-0.3,0.42-0.62,0.84-0.96,1.24c-0.17,0.2-0.34,0.4-0.51,0.61c-0.47,0.53-0.96,1.04-1.47,1.55
					c-6.99,6.88-18.18,11.15-27.19,9.65c-6.87-1.14-10.44-5.11-9.43-10.45c2.24-0.56,0.07,3.02,2.06,2.3
					c1.68-0.61,1.44-2.45,0.84-3.62c-2.9-5.64-0.18-9.2,3.89-12.85C408.49,185.5,411.8,180.48,415.89,174.55z M357.9,284.71
					c-3.21,4.16-6.03,8.87-10.35,11.75c-2.23,1.47-2.4,2.45-2.85,4.71c-0.62,3.18-3.21,5.51-6.28,6.74c-1.73,0.1-1.68-1.18-2-2.15
					c-2.64-8.05-5.14-16.16-8.04-24.11c-1-2.74-0.72-4.52,1.27-6.53c2.48-2.52,4.26-6.78,7.11-7.58c2.48-0.7,4.79,3.83,7.37,5.84
					c4.04,3.16,8.36,5.83,12.75,8.39C358.35,282.62,359.21,283.02,357.9,284.71z M346.29,308.86c0.32-0.59,0.65-1.16,0.98-1.74
					c0.28-0.48,0.55-0.96,0.83-1.42l0.38-0.64c0.3-0.5,0.6-0.98,0.91-1.47c0.18-0.28,0.36-0.57,0.55-0.86
					c0.18-0.28,0.37-0.57,0.56-0.85c0.1-0.16,0.21-0.31,0.32-0.47c0.2-0.3,0.4-0.59,0.61-0.89c2.22-3.14,4.68-6.05,7.54-8.58
					c0.22-0.19,0.44-0.38,0.66-0.56c0.85-0.72,1.73-1.4,2.65-2.04c0.23-0.17,0.47-0.33,0.71-0.49c0.32-0.22,0.64-0.43,0.97-0.63
					c0.53-0.33,1.06-0.65,1.61-0.95c1.24-0.69,2.54-1.31,3.92-1.87c0.36-0.15,0.73-0.29,1.1-0.43c0.32,1.19,0.63,2.37,0.92,3.54
					c0.39,1.54,0.73,3.06,1,4.59c0.1,0.58,0.2,1.16,0.28,1.73c0.04,0.31,0.07,0.63,0.11,0.95c0.01,0.02,0.01,0.03,0.01,0.05
					c0.04,0.32,0.07,0.65,0.09,0.97c0.03,0.3,0.04,0.59,0.06,0.89c0.01,0.15,0.01,0.3,0.02,0.45c0.01,0.17,0.01,0.34,0.01,0.51
					c0.02,0.4,0.01,0.81,0,1.23c-0.01,0.3-0.02,0.6-0.04,0.9c-0.05,0.73-0.12,1.47-0.24,2.22c-0.37,2.32-0.82,4.19-3.92,3.78
					c-2.48-0.32-5.03,0.28-7.2,1.38C356.76,310.67,351.81,310.84,346.29,308.86z M341.77,321.33c-0.37-0.78-0.59-1.04-0.62-1.33
					c-0.24-2.21-2.98-4.87-1.39-6.17c1.91-1.57,5.22-1.16,7.91-0.14c0.66,0.25,1.53,0.15,2.04,1.44
					C347.61,317.51,344.74,319.14,341.77,321.33z M364.72,341.87c-5.93-1.68-12.32-1.48-17.83-4.6
					C352.92,338.54,359.35,338.27,364.72,341.87z M355.56,342.96c2.13,0.87,4.43,0.78,6.68,0.37c-4.41,3.72-8.87,0.51-13.31,0.08
					C351.09,341.81,353.23,342.02,355.56,342.96z M411.87,339.11c-2.9,1.59-5.25,0.73-7.56,0.38
					C406.47,337.82,408.76,338.15,411.87,339.11z M412.08,342.93c-20.23,3.62-40.6,6.33-61.01,8.72c-0.06-0.42-0.1-0.85-0.16-1.28
					c20.34-2.85,40.67-5.7,61.01-8.55C411.98,342.19,412.03,342.56,412.08,342.93z M234.66,339.17c0.43-3.67,3.14-5.56,6.72-4.74
					c11.1,2.54,22.21,5.09,33.3,7.66c4.63,1.07,9.25,2.14,13.87,3.21c4.46,1.03,8.92,2.07,13.38,3.11c0.78,0.18,1.56,0.37,2.34,0.55
					c11,2.57,21.98,5.22,32.94,7.94c5.58,1.39,5.56,1.49,5.12,7.01c0.45-0.19,1.05-0.25,1.22-0.55c3.71-6.68,10.62-5.69,16.54-6.71
					c17.98-3.07,36.01-5.89,54.05-8.63c1.23-0.19,3.95-2.68,4.18,0.97c0.15,2.53,0.91,5.71-3.32,6.44
					c-10.05,1.74-20.09,3.65-30.1,5.61c-10.16,2.01-20.34,3.99-30.43,6.33c-6.66,1.55-12.94-0.19-19.19-1.66
					c-6.72-1.59-13.45-3.18-20.17-4.78c-5.3-1.26-10.61-2.53-15.92-3.8c-1.41-0.33-2.83-0.68-4.24-1.02
					c-9.31-2.23-18.62-4.47-27.93-6.72c-9.31-2.24-18.61-4.49-27.92-6.74C237.19,342.21,234.27,342.46,234.66,339.17z
					 M269.19,305.21c-3.22-0.78-4.16-3.34-4.1-6.33c0.03-1.35,0.3-3.45,2.05-2.76c2.64,1.03,4.37,3.3,4.24,6.46
					C271.3,304.02,271.22,305.7,269.19,305.21z M209.63,251.1c1.42-2.28,3.4-1.78,5.16-1.43c30.39,5.95,60.77,11.95,91.14,17.97
					c3.18,0.63,6.34,1.41,9.48,2.26c3.29,0.89,5.12,3.39,6.14,6.43c2.87,8.51,5.73,17.02,8.52,25.54c0.54,1.65,1.08,3.3,1.61,4.95
					c0.58,1.76,1.15,3.53,1.71,5.29c0.55,1.71,1.1,3.42,1.63,5.13c3.27,10.33,6.42,20.7,9.39,31.13c0.38,1.32,0.91,2.65-0.38,5.33
					c-2.92-9-5.72-16.95-8.08-25.04c-0.3-1.03-0.61-2.06-0.92-3.08c-0.3-1.03-0.62-2.05-0.94-3.08c-0.36-1.17-0.73-2.34-1.11-3.5
					c0-0.01,0-0.01-0.01-0.02c-0.52-1.64-1.06-3.27-1.6-4.9c-2.71-8.19-5.6-16.31-8.36-24.47c-0.42-1.23-0.84-2.47-1.25-3.7
					c-0.21-0.61-0.41-1.21-0.61-1.82c-0.48-1.43-0.94-2.86-1.4-4.29c-1.48-4.62-4.56-7.11-9.24-8.06
					c-26.54-5.37-53.07-10.78-79.61-16.19C223.83,254.1,216.78,252.6,209.63,251.1z"/>
				<path class="st21" d="M338.27,262.44c7.09,6.79,14.67,12.85,23.59,17.01c1.31,0.61,2.05,3.55,4.53,1.35
					c2.29-2.02,0.96-3.84,0.37-5.84c-2.63-9-5.24-18.01-7.98-27.4c2.35,1.72,2.15,4.78,4.54,5.98c0.35-7.68,2.45-15.89,5.03-19.77
					c-1.44,24.06-1.38,24.04,6.39,47.45c0.45,1.35,0.85,2.71,1.22,4.08c1.1,4.16,1.8,8.41,1.93,12.74c0.1,3.09-1.31,7.05,0.14,9.02
					c1.42,1.94,5.63,1.74,8.55,2.67c10.88,3.44,21.84,5.15,33.38,4.27c12.54-0.96,24.79-3.51,37.17-5.34
					c7.59-1.13,7.54-1.03,7.55-8.71c0-1.74-0.52-2.86-1.8-3.96c-2.49-2.14-3.64-4.91-3.35-8.26c0.98-11.1-0.36-21.89-4.51-32.27
					c-1.31-3.31-1.45-6.72-0.8-10.73c1.81,2.73,1.49,5.47,2.02,7.97c0.69,2.23,0.96,4.66,3.07,6.44
					c-0.53-7.22-0.45-14.07,3.11-20.93c-0.26,4.14-0.87,7.7-0.63,11.2c0.92,12.93,3.9,25.71,2.81,38.8c-0.04,0.44,0.2,0.9,0.28,1.36
					c0.52,2.9,1.7,3.71,4.81,2.56c0.49-0.18,0.99-0.36,1.48-0.54c0.99-0.35,1.98-0.68,2.97-0.99c0.5-0.16,0.99-0.31,1.49-0.45
					c1.48-0.43,2.97-0.82,4.46-1.16c2.24-0.51,4.48-0.87,6.72-1.09c0.83-0.08,1.66-0.13,2.5-0.17c0.01,0.01,0.02,0,0.03,0
					c1.71-0.06,3.43-0.03,5.15,0.12c0.49,0.05,0.97,0.09,1.45,0.16c0.01,0,0.01,0,0.01,0c0.49,0.06,0.97,0.13,1.46,0.21
					c0.32,0.05,0.66,0.11,0.98,0.18c1.62,0.32,3.24,0.75,4.87,1.3c1.08,0.37,2.16,0.79,3.24,1.27c0.87-0.76,1.73-1.51,2.59-2.28
					c-0.32-15.23-4.01-46.18-10.26-57.44c-2.46-4.44-5.18-8.5-8.71-11.95c-1.19-1.15-2.46-2.24-3.85-3.25
					c-9.74-7.09-21.09-10.8-31.81-15.83c-2.76-1.29-3.89-0.86-5.22,1.84c-3.44,6.96-8.69,12.3-15.74,15.75
					c-9.7,5.57-19.78,9.66-31.21,6.35c-5.46-1.58-10.14-4.52-12.44-10.17c-2.19-3.05-2.02-6.7-2.54-10.28
					c-4.36,0.98-8.14,3.21-12.24,4.51c-8.7,2.78-14.44,8.71-18.48,16.56c-2.26,4.4-4.44,8.84-6.47,13.35
					c-2.83,6.3-6.56,12.01-11.75,16.5C334.97,257.54,335.21,259.51,338.27,262.44z M481.38,217.19c-3.05,1.79-5.25,3.45-7.98,4.22
					c-2.24,1.84-4.48,3.67-7.47,6.12c1.73-3.81,3.68-5.98,7.08-6.63C475.25,219.16,477.39,217.19,481.38,217.19z"/>
				<path class="st3" d="M365.15,131.93c0.43,1.97,2.92-0.03,4.44,0.67c1.55,0.71,3.81,1.08,3.41,3.12
					c-0.53,2.71-2.71,1.13-4.12,0.7c-3.74-1.14-4.28,0.6-3.54,3.66c0.21,0.89,0.54,1.75,0.81,2.63c1.77-1.02,3.38-2.86,5.68-1
					c1.75,1.39,2.35,3.28,2.1,5.33c-0.18,1.53-0.85,3.09-2.77,3.17c-1.67,0.08-2.03-1.49-2.94-2.47c-1.15-1.23,1.34-4.18-2.06-4.02
					c-1.92,12.62-0.67,24.45,6.88,35.41c5.93,8.61,9.3,10.44,19.67,7.89c8.37-2.05,15.33-6.75,23.17-12.47
					c-4.08,5.93-7.4,10.96-11.85,14.94c-4.07,3.65-6.79,7.22-3.89,12.85c0.61,1.17,0.84,3.01-0.84,3.62c-2,0.72,0.17-2.87-2.06-2.3
					c-1.01,5.34,2.55,9.31,9.43,10.45c9,1.5,20.2-2.77,27.19-9.65c0.51-0.51,1-1.03,1.47-1.55c0.18-0.2,0.34-0.4,0.51-0.61
					c0.34-0.4,0.66-0.82,0.96-1.24c0.15-0.21,0.3-0.42,0.44-0.64c0.19-0.28,0.38-0.57,0.55-0.86c0.18-0.29,0.35-0.58,0.51-0.88
					c0.04-0.07,0.08-0.15,0.12-0.22c0.12-0.21,0.24-0.41,0.34-0.6c0.03-0.06,0.07-0.13,0.09-0.19c0.06-0.12,0.1-0.24,0.12-0.36
					c0.1-0.49-0.06-0.99-0.81-1.65c-6.37-5.61-9.34-13.21-10.34-21.22c-0.62-5.06-2.59-6.93-7.19-7.03c-0.17,0-0.33-0.39-0.49-0.59
					c1.63-2.02,1.63-2.02,3.02-2.01c8.12,0.08,14.68-7.17,14.02-15.29c-0.3-3.62-1.62-6.46-5.27-7.27c-3.88-0.87-6.96,0.77-9,4.2
					c-0.95,1.58-1.74,3.27-2.77,4.8c-0.49,0.75-1.33,1.46-2.34,1.22c-1.33-0.31-0.67-1.46-0.78-2.29c-0.52-3.91,0.14-8.6-3.27-11.16
					c-6.92-5.19-8.86-11.84-7.37-20.12c-5.23,0.9-9.57,4.7-15.02,3.8c-0.22-2.2,2.15-3.07,2.21-5.2c-6.04,2.63-11.8,5.14-17.63,7.68
					c-0.81-3.14,1.57-5.25,2.87-8.23c-4.79,1.76-8.4,4.09-11.48,7.2C365.18,126.3,364.59,129.27,365.15,131.93z M423.44,158.44
					c1.09-2.73,1.84-4.31,1.07-6.7c-1.12-3.49,2.28-5,5.07-5.92c2.49-0.82,3.57,0.73,3.84,3.18c-5.36-1.22-5.71-0.82-4.4,4.42
					C430.05,157.53,426.76,157.31,423.44,158.44z M403.19,138.51c-5.19-1.84-9.99-2.01-14.85-0.87c-1.3,0.31-2.49-0.13-3.03-1.5
					c-0.48-1.22,0.11-1.96,1.2-2.59c3.96-2.28,12.96-0.86,16.01,2.65C402.87,136.6,402.86,137.3,403.19,138.51z M395.43,148.01
					c-0.34,1.91-1.7,4.07-4.22,2.69c-2.84-1.53-2.58-4.42-1.65-6.91c0.88-2.37,2.98-3.18,5.23-1.8c1.53,0.94,2.73,2.41,4.08,3.64
					C396.91,145.08,395.89,145.45,395.43,148.01z M374.86,169.62c6.88,0.96,12.48,0.98,17.55-2.16c0.58-0.36,1.09-0.59,1.57,0.04
					c0.65,0.85-0.08,1.38-0.55,1.93C389.66,173.76,380.52,174.35,374.86,169.62z M375.77,150.84c0.67-1.5,0.98-3.18,1.68-5.64
					c2.3,3.75,1.14,6.7-0.43,9c-2.21,3.23-2.79,5.85,1.96,9.05c-7.73-0.87-9.04-3.38-5.83-8.1
					C374.1,153.77,375.1,152.36,375.77,150.84z"/>
				<path class="st3" d="M344.12,327.96c7.8-5.89,13.99-13.04,23.82-13.74c-0.36,1.24-1.31,1.52-2.11,1.75
					c-7.45,2.08-13.04,6.92-18.29,12.26c-0.7,0.7-2.7,1.11-1.31,2.74c1.08,1.27,2.65,1.91,4.13,0.81c1.48-1.09,2.71-2.52,4.01-3.84
					c4.39-4.49,9.11-8.3,16.03-7.61c-7.42,2.2-12.97,6.79-17.37,13.05c2.98,2.13,5.3,1.49,7.52-0.88c4.34-4.63,9.46-7.74,16.18-7.57
					c-4.36,2.32-8.9,4.27-11.95,8.33c-0.63,0.85-2.27,1.9-1.03,3.06c1.03,0.96,2.63,1.83,4.23,0.71c0.88-0.62,1.64-1.44,2.52-2.06
					c4.94-3.45,9.9-5.37,15.89-1.94c4.66,2.67,9.97,3.89,15.23,2.08c4.59-1.57,8.81-1.36,13.47-0.25c9.27,2.2,18.58,3.84,27.95,4.88
					c2.02-1.37,4.03-2.74,6.02-4.16c7.83-5.43,15.53-11.06,23.16-16.82c0.82-0.62,1.61-1.21,2.43-1.84
					c5.91-4.51,11.75-9.13,17.53-13.87c3.42-2.8,6.81-5.63,10.16-8.5c-0.9-0.6-2.36-0.87-4.64-1.03c-7.6-0.54-15.09,0.33-22.57,1.9
					c-4.6,0.96-6.51,2.61-5.78,7.63c0.46,3.14,0.12,5.99,3.98,7c0.71,0.18,1.86,0.64,1.52,2.34c-6.93-2.08-13.55,0.24-20.28,1.53
					c-24.51,4.7-49.12,8.07-73.29-1.14c-13.23-5.05-23.49,0.02-33.36,7.77C346,322.06,344.13,323.97,344.12,327.96z"/>
				<path class="st21" d="M354.47,367.38c10.09-2.34,20.27-4.32,30.43-6.32c10.01-1.97,20.04-3.88,30.09-5.62
					c4.24-0.73,3.48-3.91,3.32-6.44c-0.23-3.66-2.94-1.16-4.17-0.97c-18.04,2.73-36.07,5.56-54.05,8.63
					c-5.91,1.01-12.83,0.02-16.54,6.7c-0.17,0.3-0.78,0.36-1.23,0.56c0.44-5.52,0.47-5.63-5.11-7.01
					c-10.96-2.72-21.94-5.38-32.94-7.94c-20.95-4.89-41.91-9.72-62.88-14.52c-3.59-0.82-6.29,1.07-6.73,4.74
					c-0.39,3.28,2.52,3.04,4.44,3.5c32.04,7.74,64.08,15.49,96.17,23.05C341.52,367.19,347.8,368.93,354.47,367.38z"/>
				<path class="st49" d="M424.63,346.98c-0.18,2.64,0.07,3.14,2.29,3.41c1.82-1.15,3.6-2.31,5.38-3.47
					c1.66-1.09,3.37-2.21,5.04-3.33c-1.85-0.3-3.69-0.63-5.53-0.97C427.92,341.92,425.01,341.22,424.63,346.98z"/>
				<path class="st3" d="M336.43,305.75c0.32,0.97,0.27,2.24,2,2.15c3.07-1.23,5.65-3.57,6.28-6.75c0.44-2.25,0.62-3.23,2.85-4.71
					c4.31-2.86,7.14-7.59,10.35-11.74c1.31-1.69,0.45-2.09-1.02-2.95c-4.4-2.55-8.72-5.22-12.75-8.38
					c-2.57-2.02-4.88-6.54-7.37-5.84c-2.85,0.8-4.63,5.06-7.11,7.58c-1.99,2.01-2.26,3.8-1.26,6.53
					C331.3,289.6,333.79,297.7,336.43,305.75z"/>
				<path class="st21" d="M319.75,279.8c5.25,16.33,11.38,32.37,16.19,48.86c2.36,8.09,5.16,16.05,8.08,25.05
					c1.28-2.68,0.75-4.01,0.38-5.33c-6.89-24.25-14.79-48.18-22.86-72.05c-1.02-3.03-2.85-5.53-6.14-6.42
					c-3.13-0.85-6.29-1.63-9.48-2.26c-30.37-6.02-60.76-12.01-91.14-17.97c-1.77-0.35-3.75-0.85-5.17,1.43
					c7.15,1.5,14.21,3,21.27,4.45c26.53,5.41,53.07,10.82,79.61,16.19C315.19,272.68,318.27,275.18,319.75,279.8z"/>
				<path class="st21" d="M361.7,308.17c2.17-1.1,4.72-1.71,7.2-1.38c3.11,0.41,3.56-1.46,3.92-3.78
					c0.95-6.14-0.59-11.96-2.21-18.02c-11.89,4.42-18.61,13.59-24.32,23.88C351.8,310.85,356.75,310.67,361.7,308.17z"/>
				<path class="st21" d="M411.86,223.27c7.37-0.66,14.16-2.95,20.56-6.57c5.46-3.88,10.5-8.15,13.62-14.27
					c2.29-4.5,2.21-4.71-2.76-6.71c-4.07,12.68-16.82,21.91-31.1,22.38c-5.33,0.17-10.43-0.34-14.67-4.35
					c-3.81-3.6-3.97-7.93-3.11-12.71c-3.23,0.37-4.43,2-4.24,4.73c0.15,2.15,0.4,4.29,0.6,6.43l0,0
					C395.14,220.34,402.53,224.1,411.86,223.27z"/>
				<path class="st50" d="M351.07,351.65c20.41-2.4,40.78-5.1,61.01-8.72c-0.05-0.37-0.1-0.74-0.16-1.12
					c-20.34,2.85-40.67,5.7-61.01,8.56C350.97,350.8,351.02,351.22,351.07,351.65z"/>
				<path d="M429.8,218.79c1.18-0.46,2.4-0.82,3.69-0.98c-0.36-0.37-0.71-0.74-1.07-1.11C431.58,217.49,430.7,218.18,429.8,218.79z"
					/>
				<path d="M390.74,212.2L390.74,212.2c-0.3,0.59-0.6,1.19-0.91,1.78l0,0c0.71,0.65,1.41,1.3,2.11,1.94
					C391.33,214.85,390.91,213.62,390.74,212.2z"/>
				<path d="M402.28,224.15c11.43,3.31,21.5-0.78,31.2-6.35c-1.29,0.16-2.51,0.53-3.69,0.98c-4.6,3.1-10.04,4.08-15.47,5.17
					c-6.41,1.28-12.17-0.1-17.64-3.48c-2.01-1.24-3.67-2.68-4.74-4.55c-0.7-0.65-1.4-1.3-2.11-1.94
					C392.14,219.63,396.82,222.57,402.28,224.15z"/>
				<path d="M391.95,215.93c3.1,2.85,6.26,5.58,10.46,6.99c7.49,2.5,14.54,0.77,21.58-1.69c1.98-0.69,3.85-1.69,5.81-2.44
					c0.91-0.61,1.78-1.3,2.62-2.09c-6.4,3.61-13.18,5.91-20.56,6.57c-9.33,0.83-16.72-2.93-21.12-11.06l0,0l0,0
					C390.91,213.62,391.33,214.85,391.95,215.93z"/>
				<path d="M402.41,222.92c-4.2-1.4-7.37-4.14-10.46-6.99c1.07,1.87,2.73,3.31,4.74,4.55c5.47,3.38,11.23,4.76,17.64,3.48
					c5.43-1.09,10.87-2.07,15.47-5.17c-1.96,0.75-3.83,1.75-5.81,2.44C416.95,223.68,409.9,225.42,402.41,222.92z"/>
				<path class="st51" d="M339.76,313.83c-1.59,1.3,1.16,3.97,1.39,6.18c0.03,0.28,0.25,0.55,0.62,1.32
					c2.98-2.19,5.84-3.82,7.94-6.19c-0.51-1.29-1.37-1.2-2.04-1.45C344.98,312.68,341.66,312.27,339.76,313.83z"/>
				<path d="M369.17,146.17c0.54,1.05,0.85,2.68,2.45,1.86c1.48-0.76,1.21-2.3,0.6-3.63c-1.35-2.9-4.02-1.19-6.06-1.7l0,0l0,0
					c0,0.34,0.01,0.68,0.01,1.02l0,0C368.83,142.49,368.53,144.94,369.17,146.17z"/>
				<path d="M368.23,147.73c0.91,0.97,1.27,2.54,2.94,2.47c1.92-0.09,2.6-1.65,2.78-3.18c0.24-2.05-0.36-3.94-2.1-5.33
					c-2.31-1.85-3.91-0.01-5.69,1l0,0c2.04,0.51,4.71-1.2,6.06,1.7c0.62,1.33,0.89,2.87-0.6,3.63c-1.6,0.82-1.91-0.81-2.45-1.86
					c-0.64-1.23-0.34-3.68-3-2.46C369.57,143.55,367.08,146.51,368.23,147.73z"/>
				<path class="st21" d="M267.14,296.11c-1.75-0.69-2.02,1.42-2.04,2.76c-0.06,2.99,0.88,5.56,4.1,6.33
					c2.03,0.49,2.11-1.19,2.19-2.63C271.51,299.41,269.78,297.15,267.14,296.11z"/>
				<path class="st52" d="M364.72,341.87c-5.38-3.6-11.8-3.33-17.83-4.61C352.41,340.39,358.79,340.2,364.72,341.87z"/>
				<path class="st53" d="M355.56,342.97c-2.33-0.94-4.48-1.16-6.64,0.44c4.44,0.43,8.9,3.64,13.31-0.08
					C359.99,343.73,357.69,343.83,355.56,342.97z"/>
				<path class="st54" d="M455.02,255.47c0.77-0.76-0.82-2.56,1.22-2.76c-0.84-0.86-1.21-1.85-1.39-2.88
					C454.93,251.7,454.95,253.59,455.02,255.47z"/>
				<path class="st54" d="M455.02,255.47c-0.07-1.88-0.09-3.76-0.18-5.65c-0.23-1.27-0.18-2.61-0.32-3.9c0.18,1.3,0.26,2.6,0.32,3.9
					c0.19,1.04,0.55,2.03,1.39,2.88c-0.53-2.51-0.21-5.25-2.02-7.97C453.56,248.75,453.7,252.15,455.02,255.47z"/>
				<path class="st54" d="M454.84,249.82c-0.06-1.3-0.14-2.6-0.32-3.9C454.66,247.21,454.61,248.55,454.84,249.82z"/>
				<path d="M404.31,339.49c2.31,0.35,4.65,1.21,7.56-0.38C408.76,338.15,406.47,337.82,404.31,339.49z"/>
				<path class="st55" d="M473.01,220.91c-3.4,0.64-5.35,2.81-7.08,6.63c2.99-2.45,5.23-4.28,7.47-6.12
					C473.27,221.24,473.14,221.07,473.01,220.91z"/>
				<path class="st55" d="M481.38,217.19c-3.99-0.01-6.12,1.97-8.37,3.71c0.13,0.17,0.26,0.34,0.39,0.51
					C476.12,220.65,478.33,218.98,481.38,217.19z"/>
				<path d="M386.51,133.55c-1.09,0.63-1.68,1.37-1.2,2.59c0.54,1.37,1.73,1.8,3.03,1.5c4.85-1.15,9.66-0.98,14.85,0.86
					c-0.33-1.22-0.32-1.91-0.66-2.3C399.47,132.69,390.48,131.27,386.51,133.55z"/>
				<path d="M389.55,143.78c-0.92,2.49-1.18,5.37,1.66,6.91c2.53,1.37,3.88-0.79,4.22-2.69c0.46-2.55,1.47-2.93,3.43-2.38
					c-1.35-1.23-2.55-2.7-4.08-3.64C392.54,140.61,390.43,141.42,389.55,143.78z"/>
				<path d="M429.03,153.42c-1.31-5.24-0.97-5.64,4.39-4.43c-0.27-2.44-1.35-3.99-3.84-3.18c-2.79,0.92-6.19,2.43-5.07,5.92
					c0.77,2.39,0.02,3.97-1.08,6.7C426.76,157.31,430.05,157.54,429.03,153.42z"/>
				<path d="M377.03,154.2c1.58-2.31,2.73-5.25,0.43-9c-0.71,2.46-1.01,4.13-1.68,5.64c-0.68,1.53-1.67,2.93-2.62,4.32
					c-3.21,4.72-1.9,7.23,5.84,8.1C374.24,160.05,374.82,157.43,377.03,154.2z"/>
				<path d="M392.41,167.46c-5.07,3.14-10.66,3.12-17.55,2.17c5.66,4.72,14.8,4.14,18.56-0.19c0.48-0.55,1.21-1.08,0.56-1.93
					C393.51,166.88,392.99,167.1,392.41,167.46z"/>
			</g>
		</g>
	</g>
</g>
</svg>
