<?xml version="1.0" encoding="utf-8"?>
<!-- Generator: Adobe Illustrator 24.3.0, SVG Export Plug-In . SVG Version: 6.00 Build 0)  -->
<svg version="1.1" id="Layer_1" xmlns="http://www.w3.org/2000/svg" xmlns:xlink="http://www.w3.org/1999/xlink" x="0px" y="0px"
	 viewBox="0 0 115.98 129.9" style="enable-background:new 0 0 115.98 129.9;" xml:space="preserve">
<style type="text/css">
	.st0{fill:#001135;}
	.st1{fill:#FFFFFF;}
	.st2{fill:#3C7CFF;}
</style>
<g>
	<path class="st0" d="M108.73,50.06c1.9,3.31,3.88,6.62,5.71,10.01c0.45,0.83,0.78,2.1,0.46,2.87c-0.56,1.34-1.95,0.69-3.02,0.49
		c-2.5-0.47-5-1-7.7-1.55c-0.89,2.59-1.66,5.13-2.64,7.58c-0.35,0.88-1.21,1.55-1.83,2.32c-0.76-0.63-1.75-1.12-2.25-1.92
		c-1.88-3.02-3.64-6.13-5.37-9.24c-0.6-1.08-1.25-1.69-2.71-1.03c0,0.61,0,1.3,0,2c0,20.39,0,40.79,0,61.18
		c0,2.87-0.27,3.13-3.18,3.13c-27.47,0-54.93,0-82.4,0c-2.93,0-3.25-0.32-3.25-3.29c0-29.14,0.01-58.27-0.03-87.41
		c0-1.55,0.46-2.67,1.56-3.76c5.3-5.2,10.55-10.45,15.76-15.75c0.96-0.98,1.95-1.36,3.29-1.36c14.21,0.03,28.42,0,42.63,0.06
		c1.56,0.01,2.71-0.38,3.7-1.57c0.76-0.91,1.64-1.72,2.53-2.51c1.43-1.27,2.99-1.31,4.54-0.2c3.53,2.53,6.34,1.4,7.16-2.88
		c0.41-2.15,1.47-3.12,3.63-3.19c1.54-0.05,3.09-0.05,4.64,0c2.26,0.06,3.51,1.21,3.72,3.46c0.16,1.68,0.86,2.98,2.45,3.62
		c1.55,0.63,2.99,0.36,4.34-0.7c2.02-1.59,3.49-1.48,5.34,0.29c1.07,1.03,2.14,2.07,3.14,3.16c1.47,1.59,1.71,3.27,0.21,4.77
		c-2.52,2.53-0.99,6.97,2.92,7.1c1.99,0.07,3.14,1.37,3.27,3.35c0.11,1.72,0.11,3.45,0.01,5.17c-0.12,2.02-1.35,3.22-3.39,3.52
		c-3.91,0.58-5.24,3.66-2.92,6.77C110.52,46.52,110.47,47.44,108.73,50.06z M4.15,122.35c27.32,0,54.45,0,81.62,0
		c0-21.05,0-41.99,0-62.94c-0.15-0.13-0.31-0.27-0.46-0.4c-0.64,0.49-1.5,0.84-1.89,1.48c-2.04,3.35-3.92,6.79-5.96,10.13
		c-0.33,0.55-1.22,1.11-1.8,1.05c-0.57-0.05-1.31-0.78-1.55-1.38c-0.87-2.2-1.69-4.45-2.28-6.74c-0.38-1.49-1.09-1.69-2.4-1.38
		c-2.19,0.52-4.4,1.01-6.63,1.33c-0.77,0.11-1.95-0.08-2.33-0.59c-0.37-0.49-0.18-1.7,0.18-2.37c1.72-3.19,3.62-6.28,5.36-9.45
		c0.27-0.49,0.32-1.37,0.06-1.85c-1.02-1.88-1.02-3,0.28-4.73c2.26-3,0.89-6.21-2.87-6.73c-2.25-0.31-3.38-1.54-3.46-3.77
		c-0.02-0.65-0.01-1.31-0.01-1.96c0-4.99,0-4.99,4.72-6.63c1.83-0.63,2.94-2.44,2.64-4.33c-0.34-2.13-1.67-3.26-3.81-3.26
		c-13.26,0-26.52,0-39.77,0c-0.69,0-1.37,0-2.18,0c0,5.25-0.03,10.24,0.01,15.22c0.01,1.66-0.69,2.37-2.35,2.35
		c-4.4-0.04-8.8-0.01-13.2-0.01c-0.62,0-1.25,0-1.92,0C4.15,64.52,4.15,93.34,4.15,122.35z M85.3,55.97c1.09,0,2.21-0.07,3.32,0.02
		c1.15,0.09,1.64-0.26,1.85-1.49c0.72-4.2,4.97-6.87,9.1-5.73c1.23,0.34,2.34,1.07,3.57,1.64c1.08-1.08,2.21-2.2,3.4-3.38
		c-2.05-2.46-2.72-5.15-1.48-8.14c1.23-2.99,3.68-4.33,6.7-4.71c0-1.72,0-3.3,0-4.85c-7.19-1.1-9.27-8.09-5.54-12.72
		c-1.13-1.23-2.23-2.44-3.33-3.64c-4.08,3.71-11.68,2.38-12.84-5.36c-1.63,0-3.26,0-4.88,0c-0.2,5.5-6.66,10.14-12.58,5.55
		c-1.22,1.14-2.42,2.26-3.67,3.43c2.02,2.39,2.58,5.1,1.32,8.08c-1.26,2.98-3.8,4.21-6.76,4.67c0,1.71,0,3.25,0,4.77
		c7.86,1.28,9.15,8.63,5.54,12.8c1.11,1.24,2.21,2.47,3.3,3.69C76.93,46.55,84.29,48.53,85.3,55.97z M106.15,52.53
		c-2.61,2.08-3.38,2.09-6,0.24c-1.59-1.12-3.69-1.04-5.09,0.2c-1.51,1.33-1.7,2.98-0.58,4.93c0.77,1.33,1.54,2.67,2.32,4
		c0.72,1.24,1.44,2.48,2.34,4.03c0.78-2.31,1.44-4.15,2.02-6.01c0.45-1.47,1.36-1.95,2.84-1.64c1.95,0.42,3.91,0.78,6.2,1.23
		C108.75,57.02,107.49,54.83,106.15,52.53z M69.15,52.62c-1.26,2.19-2.53,4.37-3.98,6.89c2.32-0.46,4.27-0.82,6.22-1.23
		c1.45-0.3,2.37,0.13,2.82,1.65c0.56,1.91,1.27,3.77,2.02,5.99c1.7-2.93,3.22-5.53,4.71-8.13c1.03-1.8,0.8-3.53-0.62-4.8
		c-1.35-1.2-3.42-1.34-4.94-0.33C72.41,54.63,72.2,54.64,69.15,52.62z M18.08,20.94c-3.63,3.57-7.28,7.16-11.02,10.84
		c3.68,0,7.32,0,11.02,0C18.08,28.05,18.08,24.41,18.08,20.94z"/>
	<path class="st1" d="M85.3,55.97c-1.01-7.44-8.36-9.42-12.98-5.39c-1.09-1.22-2.19-2.45-3.3-3.69c3.61-4.17,2.32-11.52-5.54-12.8
		c0-1.52,0-3.05,0-4.77c2.97-0.46,5.5-1.69,6.76-4.67c1.26-2.98,0.7-5.69-1.32-8.08c1.25-1.17,2.45-2.28,3.67-3.43
		c5.92,4.58,12.38-0.05,12.58-5.55c1.62,0,3.25,0,4.88,0c1.16,7.75,8.75,9.07,12.84,5.36c1.1,1.2,2.2,2.41,3.33,3.64
		c-3.73,4.64-1.65,11.62,5.54,12.72c0,1.55,0,3.13,0,4.85c-3.02,0.38-5.47,1.73-6.7,4.71c-1.23,2.99-0.57,5.68,1.48,8.14
		c-1.19,1.18-2.32,2.31-3.4,3.38c-1.23-0.58-2.35-1.3-3.57-1.64c-4.13-1.14-8.38,1.53-9.1,5.73c-0.21,1.23-0.7,1.58-1.85,1.49
		C87.51,55.9,86.39,55.97,85.3,55.97z M87.62,14.25c-9.66,0.01-17.44,7.79-17.46,17.43c-0.01,9.68,7.9,17.59,17.57,17.56
		c9.62-0.03,17.43-7.87,17.45-17.49C105.19,22,97.4,14.24,87.62,14.25z"/>
	<path class="st1" d="M106.15,52.53c1.34,2.31,2.6,4.49,4.05,6.98c-2.29-0.45-4.25-0.81-6.2-1.23c-1.48-0.32-2.38,0.17-2.84,1.64
		c-0.58,1.86-1.24,3.7-2.02,6.01c-0.9-1.55-1.62-2.79-2.34-4.03c-0.77-1.33-1.55-2.66-2.32-4c-1.13-1.95-0.93-3.6,0.58-4.93
		c1.4-1.24,3.5-1.32,5.09-0.2C102.77,54.62,103.54,54.61,106.15,52.53z"/>
	<path class="st1" d="M69.15,52.62c3.05,2.01,3.26,2.01,6.24,0.03c1.52-1.01,3.59-0.87,4.94,0.33c1.42,1.27,1.65,3,0.62,4.8
		c-1.5,2.61-3.02,5.21-4.71,8.13c-0.76-2.22-1.47-4.08-2.02-5.99c-0.45-1.52-1.36-1.95-2.82-1.65c-1.94,0.4-3.9,0.77-6.22,1.23
		C66.63,56.99,67.89,54.81,69.15,52.62z"/>
	<path class="st1" d="M18.08,20.94c0,3.47,0,7.11,0,10.84c-3.7,0-7.33,0-11.02,0C10.8,28.11,14.45,24.52,18.08,20.94z"/>
	<path class="st0" d="M54.82,108.11c-7.49,0-14.97,0-22.46,0c-0.48,0-1.09,0.17-1.4-0.06c-0.63-0.47-1.44-1.11-1.52-1.76
		c-0.06-0.48,0.87-1.17,1.48-1.58c0.33-0.22,0.92-0.06,1.4-0.06c15.09,0,30.18,0,45.27,0c0.53,0,1.2-0.15,1.57,0.1
		c0.56,0.38,1.26,1.06,1.26,1.61c0.01,0.56-0.68,1.25-1.23,1.64c-0.37,0.26-1.03,0.11-1.57,0.11
		C70.03,108.11,62.42,108.11,54.82,108.11z"/>
	<path class="st0" d="M55.15,84.93c7.54,0,15.08,0,22.62,0c0.53,0,1.19-0.14,1.57,0.12c0.51,0.35,1.11,1.01,1.11,1.55
		c0.01,0.53-0.58,1.22-1.09,1.54c-0.44,0.28-1.15,0.16-1.74,0.16c-15.08,0.01-30.16,0-45.25,0c-0.24,0-0.48,0-0.71,0
		c-1.22,0-2.37-0.18-2.31-1.76c0.05-1.44,1.11-1.61,2.28-1.61C39.47,84.93,47.31,84.93,55.15,84.93z"/>
	<path class="st0" d="M18.32,112.79c-1.48,0-2.96-0.01-4.45,0.01c-1.32,0.02-1.99-0.6-1.99-1.93c0-3.02-0.01-6.05,0.01-9.07
		c0.01-1.23,0.66-1.85,1.89-1.85c2.96,0,5.93,0,8.89,0c1.31,0,2,0.68,2.02,1.95c0.03,3.02,0.03,6.05,0,9.07
		c-0.01,1.21-0.7,1.83-1.93,1.83C21.28,112.78,19.8,112.79,18.32,112.79z M21.19,103.55c-2.06,0-3.92,0-5.79,0c0,1.98,0,3.82,0,5.67
		c2.02,0,3.87,0,5.79,0C21.19,107.27,21.19,105.46,21.19,103.55z"/>
	<path class="st0" d="M18.27,80.22c1.54,0,3.08-0.01,4.62,0c1.16,0.01,1.78,0.64,1.8,1.76c0.04,3.08,0.04,6.16,0,9.25
		c-0.01,1.23-0.79,1.82-1.96,1.83c-2.96,0.02-5.93,0.02-8.89,0c-1.29-0.01-1.96-0.66-1.96-1.99c0.01-2.96,0.01-5.93,0-8.89
		c0-1.31,0.61-1.98,1.94-1.97C15.3,80.22,16.78,80.21,18.27,80.22C18.27,80.21,18.27,80.22,18.27,80.22z M21.11,89.52
		c0-1.93,0-3.88,0-5.84c-1.98,0-3.84,0-5.75,0c0,2,0,3.87,0,5.84C17.29,89.52,19.12,89.52,21.11,89.52z"/>
	<path class="st0" d="M42.81,48.3c-3.68,0-7.37,0-11.05,0c-1.19,0-2.4-0.07-2.41-1.67c-0.01-1.55,1.11-1.72,2.35-1.72
		c7.49,0.01,14.97,0.02,22.46,0c1.28,0,2.37,0.29,2.35,1.75c-0.02,1.37-1.11,1.64-2.29,1.64C50.42,48.3,46.62,48.3,42.81,48.3z"/>
	<path class="st0" d="M43,60.03c-3.8,0-7.6-0.01-11.41,0.01c-1.18,0-2.23-0.18-2.24-1.64c-0.01-1.42,0.96-1.72,2.18-1.72
		c7.6,0.01,15.21,0.02,22.81,0c1.25,0,2.19,0.4,2.17,1.74c-0.02,1.25-0.95,1.63-2.11,1.62C50.6,60.02,46.8,60.03,43,60.03z"/>
	<path class="st0" d="M42.92,71.79c-3.74,0-7.48-0.01-11.23,0.01c-1.23,0.01-2.37-0.14-2.34-1.71c0.02-1.44,1.07-1.65,2.25-1.64
		c7.54,0.01,15.09,0.02,22.63,0c1.21,0,2.25,0.29,2.28,1.64c0.03,1.49-1.1,1.74-2.36,1.73C50.41,71.78,46.67,71.79,42.92,71.79z"/>
	<path class="st0" d="M87.62,14.25c9.78-0.01,17.58,7.75,17.56,17.49c-0.01,9.63-7.83,17.46-17.45,17.49
		c-9.67,0.04-17.58-7.87-17.57-17.56C70.17,22.04,77.96,14.27,87.62,14.25z M87.65,45.76c7.77,0,14.09-6.28,14.11-14.02
		c0.02-7.69-6.35-14.11-14.05-14.15c-7.67-0.04-14.06,6.35-14.08,14.08C73.61,39.45,79.89,45.76,87.65,45.76z"/>
	<path class="st1" d="M21.19,103.55c0,1.91,0,3.72,0,5.67c-1.92,0-3.77,0-5.79,0c0-1.85,0-3.69,0-5.67
		C17.27,103.55,19.13,103.55,21.19,103.55z"/>
	<path class="st1" d="M21.11,89.52c-1.99,0-3.81,0-5.75,0c0-1.96,0-3.83,0-5.84c1.91,0,3.77,0,5.75,0
		C21.11,85.64,21.11,87.59,21.11,89.52z"/>
	<path class="st2" d="M87.65,45.76c-7.75,0-14.03-6.31-14.01-14.09c0.02-7.73,6.41-14.12,14.08-14.08
		c7.7,0.04,14.07,6.46,14.05,14.15C101.74,39.48,95.42,45.76,87.65,45.76z M80.37,38.49c0.01,1.75,1.17,2.49,2.55,1.8
		c0.9-0.45,1.78-0.98,2.56-1.61c1.46-1.18,2.81-1.49,4.34-0.07c0.73,0.67,1.63,1.22,2.55,1.6c0.57,0.23,1.54,0.28,1.92-0.06
		c0.46-0.4,0.71-1.33,0.63-1.98c-0.13-1.16-0.5-2.31-0.9-3.43c-0.44-1.23-0.25-2.11,0.88-2.86c1.03-0.69,2.02-1.48,2.87-2.38
		c0.42-0.44,0.79-1.36,0.6-1.83c-0.23-0.56-1.03-1.11-1.66-1.24c-1.27-0.26-2.6-0.32-3.9-0.28c-1.16,0.04-1.7-0.47-2.05-1.49
		c-0.4-1.18-0.78-2.39-1.39-3.46c-0.36-0.62-1.15-1.29-1.79-1.33c-0.52-0.03-1.27,0.73-1.61,1.32c-0.55,0.97-0.94,2.05-1.25,3.13
		c-0.38,1.32-1.05,1.96-2.52,1.84c-1.17-0.09-2.39,0.02-3.54,0.25c-0.61,0.12-1.49,0.58-1.62,1.06c-0.17,0.59,0.13,1.53,0.56,2.02
		c0.82,0.92,1.83,1.69,2.85,2.41c1,0.71,1.35,1.45,0.9,2.69C80.87,35.92,80.65,37.34,80.37,38.49z"/>
	<path class="st0" d="M80.37,38.49c0.28-1.15,0.51-2.57,0.99-3.9c0.45-1.24,0.09-1.98-0.9-2.69c-1.01-0.72-2.03-1.49-2.85-2.41
		c-0.43-0.49-0.73-1.43-0.56-2.02c0.14-0.48,1.01-0.94,1.62-1.06c1.16-0.23,2.37-0.34,3.54-0.25c1.47,0.11,2.14-0.52,2.52-1.84
		c0.31-1.08,0.69-2.17,1.25-3.13c0.34-0.59,1.09-1.36,1.61-1.32c0.64,0.04,1.43,0.72,1.79,1.33c0.62,1.06,1,2.28,1.39,3.46
		c0.34,1.02,0.89,1.53,2.05,1.49c1.3-0.04,2.63,0.02,3.9,0.28c0.64,0.13,1.44,0.68,1.66,1.24c0.19,0.47-0.18,1.39-0.6,1.83
		c-0.85,0.9-1.84,1.69-2.87,2.38c-1.13,0.76-1.33,1.64-0.88,2.86c0.4,1.11,0.77,2.26,0.9,3.43c0.07,0.65-0.18,1.58-0.63,1.98
		c-0.38,0.34-1.36,0.29-1.92,0.06c-0.92-0.37-1.83-0.92-2.55-1.6c-1.53-1.42-2.88-1.11-4.34,0.07c-0.78,0.63-1.66,1.16-2.56,1.61
		C81.54,40.99,80.37,40.24,80.37,38.49z M92.01,29.69c-2.38,0.06-3.8-0.88-4.3-3.3c-0.54,2.4-2.07,3.31-4.49,3.36
		c2.44,1.05,2.35,2.91,1.92,5.03c1.86-1.74,3.51-1.26,5.31,0.07C89.53,32.65,89.89,30.97,92.01,29.69z"/>
</g>
</svg>
