<?xml version="1.0" encoding="utf-8"?>
<!-- Generator: Adobe Illustrator 24.3.0, SVG Export Plug-In . SVG Version: 6.00 Build 0)  -->
<svg version="1.1" id="Layer_1" xmlns="http://www.w3.org/2000/svg" xmlns:xlink="http://www.w3.org/1999/xlink" x="0px" y="0px"
	 viewBox="0 0 115.98 129.9" style="enable-background:new 0 0 115.98 129.9;" xml:space="preserve">
<style type="text/css">
	.st0{fill:#001135;}
	.st1{fill:#FFFFFF;}
	.st2{fill:#3C7CFF;}
</style>
<g>
	<path class="st0" d="M82.57,81.77c0,3.67,0,7.07,0,10.59c0.6,0.04,1.12,0.06,1.64,0.13c2.55,0.32,3.98,2.73,2.73,4.98
		c-2.88,5.19-5.86,10.33-8.92,15.42c-1.37,2.29-4.38,2.26-5.75-0.04c-3.01-5.04-5.96-10.11-8.82-15.24
		c-1.56-2.81,0.14-4.9,4.27-5.24c0-3.42,0-6.86,0-10.44c-6.32,0-12.65,0-19.32,0c1.17,2.04,2.14,4.05,3.41,5.85
		c2.23,3.15,1.24,6.68-3.66,6.51c-0.03,0.71-0.09,1.43-0.09,2.14c-0.01,4.65,0.01,9.29-0.01,13.94c-0.01,3.14-1.19,4.3-4.34,4.33
		c-2.05,0.02-4.1,0.02-6.15,0c-2.94-0.04-4.19-1.3-4.2-4.29c-0.03-4.58-0.01-9.16-0.01-13.73c0-0.74,0-1.47,0-2.32
		c-0.65-0.06-1.11-0.1-1.57-0.15c-2.8-0.28-4.13-2.69-2.78-5.17c1.26-2.32,2.62-4.58,4.15-7.24c-3.75,0-7.13-0.02-10.5,0
		c-3.69,0.02-7.38,0.14-10.85-1.49C4.73,76.95,0.91,71.3,1,63.6c0.09-7.7,4-13.29,11.17-16.42c0.56-0.25,1.13-0.48,1.69-0.73
		c0.05-0.02,0.08-0.1,0.2-0.25c-2.66-11.51,0.26-21.21,10.69-27.48c9.11-5.47,18.27-4.3,26.84,1.84c9.79-8.99,24.54-5.99,30.06,6.34
		c6.15-2.26,11.76-1.4,16.2,3.62c4.01,4.54,4.38,9.8,2.22,14.85c3,1.71,6.27,2.97,8.76,5.12c5.41,4.66,7.27,10.81,5.5,17.77
		c-1.68,6.61-6.23,10.62-12.63,12.47c-2.39,0.69-4.96,0.9-7.46,1.01C90.43,81.89,86.61,81.77,82.57,81.77z M82.63,78.42
		c3.91,0,7.72,0.04,11.53-0.02c1.57-0.02,3.15-0.15,4.69-0.41c7.72-1.31,13.1-7.68,12.72-14.97c-0.39-7.45-6.2-13.2-13.95-13.82
		c-2.77-0.22-3.26-1.22-1.73-3.5c2.93-4.35,2.65-9.52-0.71-13.22c-3.23-3.55-8.55-4.36-12.95-1.97c-2.19,1.19-2.76,1.01-3.56-1.35
		c-1.09-3.21-2.92-5.86-5.72-7.78c-6.06-4.16-13.91-3.34-19.08,1.96c-1.91,1.96-2.03,1.97-4.18,0.21c-0.37-0.3-0.75-0.6-1.13-0.88
		c-6.8-5.01-16.52-5.09-23.43-0.19c-7.06,5.01-10.28,14.1-7.83,22.09c1.23,4.02,1.23,4.02-2.78,5.44
		c-6.45,2.28-10.19,8.47-9.5,15.72c0.59,6.12,5.77,11.66,12.12,12.37c4.12,0.46,8.34,0.01,12.47,0.4c3.9,0.37,6.5-0.54,8.13-4.45
		c1.17-2.8,4.69-2.76,5.9,0.06c1.61,3.76,4.12,4.99,7.94,4.34c0.86-0.15,1.77-0.02,2.66-0.02c4.43,0,8.85,0,13.41,0
		c0.04-0.86,0.08-1.52,0.1-2.19c0.06-2.94,1.34-4.23,4.27-4.28c1.23-0.02,2.46,0,3.69,0C81.82,71.96,82.09,72.19,82.63,78.42z
		 M71.28,75.55c0,0.94,0,1.68,0,2.42c0,4.57,0.03,9.15-0.01,13.72c-0.03,2.72-1.06,3.86-3.51,4.1c-0.38,0.04-0.76,0.08-1.48,0.15
		c3.02,5.14,5.9,10.05,8.93,15.2c3.01-5.27,5.8-10.15,8.63-15.11c-4.28-0.66-4.7-1.17-4.7-5.46c0-2.12,0-4.23,0-6.35
		c0-2.85,0-5.7,0-8.67C76.45,75.55,74.03,75.55,71.28,75.55z M49.59,90.66c-2.99-5.1-5.86-9.99-8.89-15.17
		c-2.77,4.81-5.38,9.34-7.98,13.87c-0.23,0.4-0.4,0.83-0.61,1.28c4.06,0.49,4.69,1.2,4.7,5.2c0,3.21,0,6.41,0,9.62
		c0,1.88,0,3.76,0,5.65c2.78,0,5.25,0,7.68,0c0-5.15,0.01-10.12,0-15.09C44.47,91.94,45.26,91.04,49.59,90.66z"/>
	<path class="st2" d="M71.28,75.55c2.75,0,5.17,0,7.85,0c0,2.97,0,5.82,0,8.67c0,2.12,0,4.23,0,6.35c0,4.29,0.42,4.8,4.7,5.46
		c-2.83,4.96-5.62,9.84-8.63,15.11c-3.02-5.15-5.91-10.06-8.93-15.2c0.72-0.08,1.1-0.12,1.48-0.15c2.45-0.24,3.48-1.38,3.51-4.1
		c0.04-4.57,0.01-9.15,0.01-13.72C71.28,77.23,71.28,76.49,71.28,75.55z"/>
	<path class="st2" d="M49.59,90.66c-4.33,0.38-5.12,1.28-5.11,5.35c0.02,4.97,0,9.94,0,15.09c-2.43,0-4.9,0-7.68,0
		c0-1.88,0-3.77,0-5.65c0-3.21,0-6.41,0-9.62c-0.01-4-0.64-4.72-4.7-5.2c0.21-0.45,0.39-0.88,0.61-1.28
		c2.6-4.53,5.21-9.05,7.98-13.87C43.74,80.67,46.61,85.56,49.59,90.66z"/>
	<path class="st0" d="M75.2,38.23c3.42,0,6.83-0.03,10.24,0.01c2.71,0.03,4.28,1.43,4.31,4.13c0.09,6.9,0.08,13.8,0,20.69
		c-0.03,2.66-1.63,4.2-4.28,4.22c-6.9,0.06-13.8,0.06-20.69,0c-2.6-0.02-4.13-1.46-4.16-4.08c-0.1-6.97-0.1-13.93,0-20.9
		c0.04-2.74,1.55-4.03,4.34-4.06C68.37,38.2,71.78,38.23,75.2,38.23z M85.88,53.95c0.15-0.06,0.29-0.12,0.44-0.17
		c0-3.61-0.04-7.22,0.02-10.83c0.02-1.29-0.66-1.4-1.68-1.4c-5.59,0.03-11.19,0.01-16.78,0.01c-1.21,0-2.42,0-3.74,0
		c0,4.35,0,8.44,0,12.56c1.38-1.12,2.65-2.93,3.95-2.97c1.31-0.03,2.67,1.71,4.18,2.8c1.59-1.75,3.27-3.62,4.96-5.48
		c1.52-1.67,2.34-1.68,3.83-0.02C82.67,50.28,84.27,52.12,85.88,53.95z M68.34,55.15c-4.08,3.56-4.45,4.26-4.39,7.14
		c0.02,1.09,0.28,1.62,1.48,1.61c6.48-0.03,12.95,0,19.43-0.04c0.46,0,1.31-0.35,1.31-0.57c0.05-1.33,0.4-3.03-0.26-3.94
		c-1.99-2.73-4.4-5.14-6.77-7.82c-2.7,2.96-5.25,5.75-8.25,9.04C69.93,58.52,69.18,56.92,68.34,55.15z"/>
	<path class="st0" d="M40.68,38.23c3.42,0,6.83-0.03,10.25,0.01c2.77,0.03,4.27,1.32,4.31,4.1c0.1,6.9,0.1,13.8,0.01,20.69
		c-0.04,2.84-1.58,4.24-4.43,4.26c-6.76,0.05-13.52,0.05-20.29,0c-2.88-0.02-4.43-1.56-4.45-4.47c-0.06-6.69-0.06-13.39,0-20.08
		c0.02-3.09,1.49-4.48,4.57-4.51C33.99,38.21,37.33,38.23,40.68,38.23z M29.54,41.57c0,7.25-0.02,14.2,0.05,21.16
		c0,0.39,0.8,1.11,1.23,1.12c6.56,0.07,13.12,0.08,19.68,0c0.46-0.01,1.3-0.8,1.3-1.24c0.08-6.56,0.08-13.12,0-19.68
		c-0.01-0.45-0.8-1.28-1.23-1.29C43.68,41.54,36.79,41.57,29.54,41.57z"/>
	<path class="st1" d="M85.88,53.95c-1.61-1.83-3.2-3.67-4.83-5.48c-1.48-1.66-2.31-1.65-3.83,0.02c-1.69,1.86-3.37,3.72-4.96,5.48
		c-1.51-1.09-2.86-2.84-4.18-2.8c-1.31,0.03-2.57,1.85-3.95,2.97c0-4.12,0-8.22,0-12.56c1.32,0,2.53,0,3.74,0
		c5.59,0,11.19,0.01,16.78-0.01c1.01,0,1.7,0.1,1.68,1.4c-0.06,3.61-0.02,7.22-0.02,10.83C86.17,53.83,86.02,53.89,85.88,53.95z
		 M74.04,46.39c-0.16-1.49-0.95-2.44-2.49-2.36c-1.5,0.08-2.58,1.11-2.2,2.54c0.25,0.93,1.41,2.1,2.32,2.25
		C73.06,49.07,73.96,47.94,74.04,46.39z"/>
	<path class="st1" d="M68.34,55.15c0.83,1.77,1.59,3.37,2.55,5.42c3-3.29,5.54-6.07,8.25-9.04c2.37,2.68,4.78,5.1,6.77,7.82
		c0.66,0.91,0.31,2.61,0.26,3.94c-0.01,0.21-0.85,0.57-1.31,0.57c-6.48,0.04-12.95,0.01-19.43,0.04c-1.2,0.01-1.46-0.53-1.48-1.61
		C63.89,59.41,64.26,58.71,68.34,55.15z"/>
	<path class="st1" d="M29.54,41.57c7.25,0,14.15-0.02,21.04,0.06c0.43,0.01,1.23,0.83,1.23,1.29c0.08,6.56,0.08,13.12,0,19.68
		c-0.01,0.44-0.84,1.23-1.3,1.24c-6.56,0.08-13.12,0.08-19.68,0c-0.43,0-1.22-0.72-1.23-1.12C29.52,55.77,29.54,48.81,29.54,41.57z
		 M34.13,52.59c0,1.77-0.05,3.55,0.02,5.32c0.07,1.71,1.16,2.52,2.54,1.77c3.24-1.75,6.43-3.57,9.57-5.49
		c1.35-0.82,1.34-2.14,0.01-2.96c-3.08-1.89-6.2-3.71-9.36-5.44c-1.54-0.84-2.68-0.1-2.76,1.69C34.08,49.18,34.13,50.89,34.13,52.59
		z"/>
	<path class="st0" d="M74.04,46.39c-0.07,1.55-0.98,2.68-2.38,2.44c-0.91-0.16-2.07-1.32-2.32-2.25c-0.38-1.43,0.71-2.46,2.2-2.54
		C73.08,43.95,73.88,44.91,74.04,46.39z"/>
	<path class="st0" d="M34.13,52.59c0-1.7-0.05-3.41,0.02-5.11c0.07-1.78,1.22-2.53,2.76-1.69c3.17,1.73,6.29,3.55,9.36,5.44
		c1.33,0.82,1.34,2.14-0.01,2.96c-3.14,1.92-6.33,3.74-9.57,5.49c-1.38,0.75-2.47-0.06-2.54-1.77
		C34.08,56.14,34.13,54.36,34.13,52.59z M37.61,55.36c1.62-0.97,2.9-1.74,4.46-2.67c-1.66-0.92-2.97-1.65-4.46-2.48
		C37.61,52.01,37.61,53.47,37.61,55.36z"/>
</g>
</svg>
