<?xml version="1.0" encoding="utf-8"?>
<!-- Generator: Adobe Illustrator 25.0.0, SVG Export Plug-In . SVG Version: 6.00 Build 0)  -->
<svg version="1.1" id="Layer_1" xmlns="http://www.w3.org/2000/svg" xmlns:xlink="http://www.w3.org/1999/xlink" x="0px" y="0px"
	 viewBox="0 0 110 110" style="enable-background:new 0 0 110 110;" xml:space="preserve">
<style type="text/css">
	.st0{fill:#185AE9;}
	.st1{fill:#00B0FB;}
	.st2{fill:#00B0FB;fill-opacity:0.4;}
	.st3{fill:#FFFFFF;}
	.st4{fill:#3C7CFF;}
	.st5{fill:#001135;}
	.st6{fill:#FDFDFD;}
	.st7{fill:#DBDBDB;}
	.st8{fill:none;}
	.st9{fill:#040404;}
	.st10{fill:#030303;}
	.st11{fill:#060606;}
	.st12{fill:#FF9A00;}
	.st13{fill:#330000;}
	.st14{fill:#D7A2FE;}
	.st15{fill:#371351;}
	.st16{fill:#1E1E1E;}
	.st17{fill:#D26E00;}
	.st18{fill:#FF9100;}
	.st19{fill:#FFA403;}
	.st20{fill:#5E5E5E;}
	.st21{fill:#939393;}
	.st22{fill:#B3D8FB;}
	.st23{fill:#27A2FB;}
	.st24{fill:#D8EAFB;}
	.st25{fill:#0A81F9;}
	.st26{fill:#8F818F;}
	.st27{fill:#003932;}
	.st28{fill:url(#SVGID_1_);}
	.st29{fill:url(#SVGID_2_);}
	.st30{fill:url(#SVGID_3_);}
	.st31{opacity:0.2;fill:url(#SVGID_4_);enable-background:new    ;}
	.st32{opacity:0.1;fill:url(#SVGID_5_);enable-background:new    ;}
	.st33{opacity:0.2;fill:url(#SVGID_6_);enable-background:new    ;}
	.st34{opacity:0.1;fill:url(#SVGID_7_);enable-background:new    ;}
	.st35{fill:url(#SVGID_8_);}
	.st36{fill:url(#SVGID_9_);}
	.st37{fill:url(#SVGID_10_);}
	.st38{opacity:0.2;fill:url(#SVGID_11_);enable-background:new    ;}
	.st39{opacity:0.1;fill:url(#SVGID_12_);enable-background:new    ;}
	.st40{opacity:0.2;fill:url(#SVGID_13_);enable-background:new    ;}
	.st41{opacity:0.1;fill:url(#SVGID_14_);enable-background:new    ;}
	.st42{opacity:0.2;fill:url(#SVGID_15_);enable-background:new    ;}
	.st43{opacity:0.1;fill:url(#SVGID_16_);enable-background:new    ;}
	.st44{opacity:0.2;fill:url(#SVGID_17_);enable-background:new    ;}
	.st45{opacity:0.1;fill:url(#SVGID_18_);enable-background:new    ;}
	.st46{fill:url(#SVGID_19_);}
	.st47{fill-rule:evenodd;clip-rule:evenodd;fill:#00B0FB;}
</style>
<g>
	<polygon class="st1" points="36.89,11.79 24.91,11.79 18.62,27.5 33.75,27.5 	"/>
	<path class="st1" d="M37.32,35.36c0,4.34,3.52,7.86,7.86,7.86s7.86-3.52,7.86-7.86v-3.93H37.32V35.36z"/>
	<rect x="29.46" y="58.93" class="st1" width="15.71" height="23.57"/>
	<path class="st1" d="M0,25.54v51.07c0,3.25,2.64,5.89,5.89,5.89h7.86V29.46c0-0.26,0.05-0.52,0.16-0.77l3.62-9.06H5.89
		C2.64,19.64,0,22.28,0,25.54z"/>
	<path class="st1" d="M25.54,43.21c4.34,0,7.86-3.52,7.86-7.86v-3.93H17.68v3.93C17.68,39.7,21.2,43.21,25.54,43.21z"/>
	<polygon class="st1" points="53.04,11.79 40.9,11.79 37.75,27.5 53.04,27.5 	"/>
	<polygon class="st1" points="84.46,0 80.89,0 72.68,0 25.54,0 25.54,7.86 84.46,7.86 	"/>
	<polygon class="st1" points="76.25,27.5 91.38,27.5 85.09,11.79 73.11,11.79 	"/>
	<path class="st1" d="M56.96,35.36c0,4.34,3.52,7.86,7.86,7.86c4.34,0,7.86-3.52,7.86-7.86v-3.93H56.96V35.36z"/>
	<polygon class="st1" points="56.96,11.79 56.96,27.5 72.25,27.5 69.1,11.79 	"/>
	<path class="st1" d="M104.11,19.64H92.47l3.67,9.17c0.08,0.21,0.12,0.43,0.12,0.65V82.5h7.86c3.25,0,5.89-2.64,5.89-5.89V25.54
		C110,22.28,107.36,19.64,104.11,19.64z"/>
	<path class="st1" d="M74.64,41.86c-0.87,1.31-1.99,2.44-3.31,3.31c-5.42,3.6-12.74,2.12-16.34-3.31c-0.87,1.31-1.99,2.44-3.31,3.31
		c-5.42,3.6-12.74,2.12-16.34-3.31c-0.31,0.47-0.66,0.92-1.04,1.34c-4.34,4.85-11.79,5.26-16.64,0.92V82.5h7.86V56.96
		c0-1.08,0.88-1.96,1.96-1.96h19.64c1.08,0,1.96,0.88,1.96,1.96V82.5h43.21V44.12c-0.42,0.38-0.87,0.72-1.34,1.04
		C85.56,48.76,78.24,47.28,74.64,41.86z M86.43,70.71c0,1.08-0.88,1.96-1.96,1.96h-27.5c-1.08,0-1.96-0.88-1.96-1.96V55
		c0-1.08,0.88-1.96,1.96-1.96h27.5c1.08,0,1.96,0.88,1.96,1.96V70.71z"/>
	<path class="st1" d="M76.61,35.36c0,4.34,3.52,7.86,7.86,7.86c4.34,0,7.86-3.52,7.86-7.86v-3.93H76.61V35.36z"/>
	<polygon class="st1" points="39.72,102.14 70.36,102.14 66.38,86.43 43.09,86.43 	"/>
	<path class="st1" d="M13.75,108.04c0,1.08,0.88,1.96,1.96,1.96h78.57c1.08,0,1.96-0.88,1.96-1.96c0-1.08-0.88-1.96-1.96-1.96H15.71
		C14.63,106.07,13.75,106.95,13.75,108.04z"/>
	<rect x="58.93" y="56.96" class="st1" width="23.57" height="11.79"/>
</g>
</svg>
