<?xml version="1.0" encoding="utf-8"?>
<!-- Generator: Adobe Illustrator 25.0.0, SVG Export Plug-In . SVG Version: 6.00 Build 0)  -->
<svg version="1.1" id="Layer_1" xmlns="http://www.w3.org/2000/svg" xmlns:xlink="http://www.w3.org/1999/xlink" x="0px" y="0px"
	 viewBox="0 0 235.49 235.5" style="enable-background:new 0 0 235.49 235.5;" xml:space="preserve">
<style type="text/css">
	.st0{fill:#185AE9;}
	.st1{fill:#00B0FB;}
	.st2{fill:#00B0FB;fill-opacity:0.4;}
	.st3{fill:#FFFFFF;}
	.st4{fill:#001135;}
	.st5{fill:#3C7CFF;}
	.st6{fill-rule:evenodd;clip-rule:evenodd;fill:#252F3E;}
	.st7{fill-rule:evenodd;clip-rule:evenodd;fill:#FF9900;}
	.st8{fill:#8D3124;}
	.st9{fill:#E05244;}
	.st10{fill:#F7ADAE;}
	.st11{fill:#5B1E19;}
	.st12{fill:#F58436;}
	.st13{fill:#9D5026;}
	.st14{fill:#1A476F;}
	.st15{fill:#1F5B98;}
	.st16{fill:#2D72B8;}
	.st17{fill:#5294CF;}
	.st18{fill:#FF9900;}
	.st19{fill:#252F3E;}
	.st20{fill:#FDFDFD;}
	.st21{fill:#DBDBDB;}
	.st22{fill:#040404;}
	.st23{fill:#0C0C0C;}
	.st24{fill:#010101;}
	.st25{fill:#D9D9D9;}
	.st26{fill:#DCDCDC;}
	.st27{fill:#D7D7D7;}
	.st28{fill:#D8D8D8;}
	.st29{fill:#111111;}
	.st30{fill:#050505;}
	.st31{fill:#070707;}
	.st32{fill:#060606;}
	.st33{fill:#030303;}
	.st34{fill:#020202;}
	.st35{fill:#151515;}
	.st36{fill:#0F0F0F;}
	.st37{fill:#606060;}
	.st38{fill:#FCFCFC;}
	.st39{fill:#0A0A0A;}
	.st40{fill:#191919;}
	.st41{fill:#0D0D0D;}
	.st42{fill:#101010;}
	.st43{fill:#090909;}
	.st44{fill:#161616;}
	.st45{fill:#080808;}
	.st46{fill-rule:evenodd;clip-rule:evenodd;fill:#00B0FB;}
</style>
<g>
	<path class="st4" d="M117.75,26.55c50.82,0.06,94.11,32.27,110.61,77.39V14.27c0-3.94-3.19-7.13-7.13-7.14H14.27
		c-3.94,0.01-7.13,3.2-7.13,7.14v89.67C23.64,58.82,66.92,26.6,117.75,26.55z"/>
	<rect x="94.56" y="210.51" class="st3" width="46.39" height="17.84"/>
	<path class="st5" d="M7.14,196.24c0,3.94,3.19,7.13,7.13,7.14h206.95c3.94-0.01,7.13-3.2,7.13-7.14l0-14.27H7.14V196.24z
		 M117.75,189.11c1.97,0,3.57,1.6,3.57,3.57c0,1.97-1.6,3.57-3.57,3.57c-1.97,0-3.57-1.6-3.57-3.57
		C114.18,190.71,115.78,189.11,117.75,189.11z"/>
	<path class="st3" d="M108.17,154.3c5.46,5.24,14.12,5.06,19.36-0.4c3.93-3.97,18.67-29.15,30.51-50.18l-0.01,0
		c-20.94,12-46.01,26.92-49.94,30.89c-0.11,0.11-0.21,0.21-0.32,0.32C102.54,140.39,102.71,149.06,108.17,154.3z"/>
	<path class="st5" d="M144.17,103.48c7.12-4.13,14.27-8.22,21.45-12.27c1.08-0.61,2.4-0.62,3.49-0.02c1.72,0.95,2.34,3.12,1.39,4.84
		c-3.99,7.21-8.03,14.4-12.12,21.55c11.64,17.66,10.51,40.81-2.78,57.26l72.77-0.02v-0.06v-26.93h-16.37
		c-1.87-0.07-3.37-1.57-3.44-3.44c-0.07-1.97,1.47-3.63,3.44-3.7h16.28c-0.52-16.99-4.98-33.63-13.02-48.6l-14.15,8.17
		c-0.04,0.02-0.08,0.05-0.12,0.07c-1.73,0.95-3.89,0.32-4.85-1.4c-0.95-1.73-0.32-3.89,1.4-4.85l14.13-8.15
		c-8.99-14.41-21.16-26.58-35.57-35.57l-8.19,14.17c0,0,0,0,0,0c-0.98,1.71-3.17,2.29-4.87,1.31c0,0,0,0,0,0
		c-1.71-0.98-2.29-3.17-1.31-4.87l8.2-14.2c-14.97-8.04-31.61-12.5-48.6-13.02v16.43c-0.07,1.87-1.57,3.37-3.44,3.44
		c-1.97,0.07-3.63-1.47-3.7-3.44V33.77c-16.99,0.52-33.63,4.98-48.6,13.02l8.2,14.2c0.96,1.69,0.38,3.84-1.3,4.83
		c-1.7,1-3.88,0.43-4.88-1.27L59.4,50.38c-14.41,8.99-26.58,21.16-35.57,35.57l14.15,8.15c0.03,0.02,0.06,0.04,0.1,0.06
		c1.69,1.01,2.24,3.2,1.23,4.89c-1.01,1.69-3.2,2.24-4.89,1.23l-14.15-8.17c-8.05,14.98-12.5,31.63-13.02,48.63l16.3,0.13
		c1.94,0.04,3.48,1.62,3.49,3.56c0,1.97-1.59,3.57-3.56,3.57l-16.34-0.12v26.95h72.83C45.82,131.4,97.54,74.18,144.17,103.48z"/>
	<path class="st3" d="M89.6,174.84h56.36c13.89-12.87,17.32-33.5,8.34-50.17c-6.42,11.91-13.68,23.36-21.71,34.25
		c-8.04,7.85-20.86,7.9-28.97,0.11c-8.3-7.97-8.56-21.15-0.59-29.45c10.84-8.12,22.24-15.47,34.11-22
		C93.96,85.75,54.56,141.24,89.6,174.84z"/>
	<path class="st4" d="M117.75,196.24c1.97,0,3.57-1.6,3.57-3.57c0-1.97-1.6-3.57-3.57-3.57c-1.97,0-3.57,1.6-3.57,3.57
		C114.18,194.65,115.78,196.24,117.75,196.24z"/>
	<path class="st4" d="M221.22,0H14.27C6.39,0.01,0.01,6.39,0,14.27v130.02v33.48v18.47c0.01,7.88,6.39,14.26,14.27,14.27h73.14
		v17.84H64.23c-1.97,0.08-3.51,1.74-3.43,3.71c0.07,1.86,1.57,3.36,3.43,3.43h107.05c1.97-0.07,3.51-1.73,3.43-3.7
		c-0.07-1.87-1.57-3.36-3.43-3.43h-23.2v-17.85h73.14c7.88-0.01,14.26-6.39,14.27-14.27v-21.46c0,0,0,0,0,0V14.27
		C235.48,6.39,229.1,0.01,221.22,0z M7.14,14.27c0-3.94,3.19-7.13,7.13-7.14h206.95c3.94,0.01,7.13,3.2,7.13,7.14v89.67
		c-16.5-45.12-59.79-77.33-110.61-77.39C66.92,26.6,23.64,58.82,7.14,103.94V14.27z M7.14,147.89l16.34,0.12
		c1.97,0,3.56-1.6,3.56-3.57c0-1.94-1.55-3.52-3.49-3.56l-16.3-0.13c0.52-17,4.97-33.65,13.02-48.63l14.15,8.17
		c1.69,1.01,3.88,0.46,4.89-1.23c1.01-1.69,0.46-3.88-1.23-4.89c-0.03-0.02-0.06-0.04-0.1-0.06l-14.15-8.15
		c8.99-14.41,21.16-26.58,35.57-35.57l8.19,14.17c1,1.7,3.19,2.27,4.88,1.27c1.68-0.99,2.25-3.13,1.3-4.83l-8.2-14.2
		c14.98-8.04,31.61-12.5,48.6-13.02v16.43c0.07,1.97,1.73,3.51,3.7,3.44c1.87-0.07,3.37-1.57,3.44-3.44V33.77
		c16.99,0.52,33.63,4.98,48.6,13.02l-8.2,14.2c-0.98,1.71-0.4,3.89,1.31,4.87c0,0,0,0,0,0c1.71,0.98,3.89,0.4,4.87-1.31c0,0,0,0,0,0
		l8.19-14.17c14.41,8.99,26.58,21.16,35.57,35.57l-14.13,8.15c-1.73,0.95-2.35,3.12-1.4,4.85c0.95,1.73,3.12,2.35,4.85,1.4
		c0.04-0.02,0.08-0.05,0.12-0.07l14.15-8.17c8.04,14.98,12.5,31.61,13.02,48.6h-16.28c-1.97,0.07-3.51,1.73-3.44,3.7
		c0.07,1.87,1.57,3.37,3.44,3.44h16.37v26.93v0.06l-72.77,0.02c13.29-16.45,14.42-39.6,2.78-57.26c4.09-7.16,8.13-14.34,12.12-21.55
		c0.95-1.72,0.33-3.89-1.39-4.84c-1.09-0.6-2.41-0.6-3.49,0.02c-7.18,4.04-14.33,8.13-21.45,12.27
		c-46.62-29.3-98.34,27.92-64.2,71.35H7.14V147.89z M103.03,129.59c-7.97,8.3-7.7,21.48,0.59,29.45c8.11,7.79,20.93,7.74,28.97-0.11
		c8.03-10.9,15.29-22.34,21.71-34.25c8.98,16.67,5.55,37.3-8.34,50.17H89.6c-35.04-33.6,4.36-89.09,47.54-67.25
		C125.27,114.12,113.87,121.47,103.03,129.59z M158.03,103.72l0.01,0c-11.84,21.03-26.58,46.21-30.51,50.18
		c-5.24,5.46-13.91,5.63-19.36,0.4c-5.46-5.24-5.63-13.9-0.4-19.36c0.1-0.11,0.21-0.22,0.32-0.32
		C112.02,130.64,137.09,115.72,158.03,103.72z M140.94,228.35H94.56v-17.84h46.39V228.35z M228.35,196.24
		c0,3.94-3.19,7.13-7.13,7.14H14.27c-3.94-0.01-7.13-3.2-7.13-7.14v-14.27h221.22L228.35,196.24z"/>
</g>
</svg>
