<?xml version="1.0" encoding="utf-8"?>
<!-- Generator: Adobe Illustrator 24.3.0, SVG Export Plug-In . SVG Version: 6.00 Build 0)  -->
<svg version="1.1" id="Layer_1" xmlns="http://www.w3.org/2000/svg" xmlns:xlink="http://www.w3.org/1999/xlink" x="0px" y="0px"
	 viewBox="0 0 197.22 165" style="enable-background:new 0 0 197.22 165;" xml:space="preserve">
<style type="text/css">
	.st0{fill:#00B0FB;}
	.st1{fill:#FFFFFF;}
	.st2{fill:#00B0FB;fill-opacity:0.4;}
</style>
<g>
	<path class="st1" d="M89.63,7.76c-0.49,1.31-0.92,2.41-1.32,3.52c-2.06,5.64-5.23,7.5-11.71,7.08c-5.43-0.35-10.88-0.44-16.3-0.02
		c-5.88,0.46-9.24-1.55-11.13-6.71c-1.42-3.89-1.42-3.89-5.6-3.89c-3.64,0-7.28-0.01-10.92,0c-5.77,0.03-9.15,3.37-9.15,9.13
		c-0.01,22.26-0.01,44.52-0.01,66.78c0,17.69,0,35.38,0,53.07c0,6.54,3.25,9.76,9.84,9.76c23.61,0,47.21,0,70.82,0
		c6.42,0,9.64-3.23,9.66-9.65c0-1.18-0.05-12.02,0.04-13.2c0.13-1.69,1.14-2.64,2.82-2.63c1.69,0.01,2.75,0.97,2.76,2.67
		c0.02,5.92,0.32,21.52-0.17,27.4c-0.59,7.09-6.95,11.88-15,11.9c-16.08,0.04-32.15,0.01-48.23,0.01c-7.62,0-15.23,0.03-22.85-0.01
		c-9.57-0.04-15.35-5.83-15.35-15.34c-0.01-43.5-0.01-87,0-130.5c0-9.82,6.36-15.76,16.55-15.08c22.78,1.51,45.62,1.84,68.38,0.03
		c10.23-0.82,16.68,5.14,16.71,14.9c0.01,1.61,0.55,13.37,0.47,14.97c-0.13,2.56-2.65,4-5.18,0.87c-0.88-2.06-0.89-14.59-0.97-16.86
		c-0.16-4.75-3.52-8.12-8.25-8.19C100.29,7.7,95.05,7.76,89.63,7.76z M23.51,149.46c1.44,5.65,3.99,7.66,9.2,7.66
		c23.93,0.01,47.86,0.01,71.79,0c0.84,0,1.7,0,2.53-0.12c3.55-0.53,6.34-3.63,6.28-7.25c-3.54,2.63-7.53,2.45-11.51,2.44
		c-22.24-0.02-44.48-0.03-66.71,0.01C31.16,152.21,27.31,152.15,23.51,149.46z M83.27,7.91H54.09c1.22,4.59,1.54,4.84,6.07,4.85
		c5.66,0.01,11.32,0,16.98,0C81.65,12.76,81.95,12.53,83.27,7.91z"/>
	<path class="st1" d="M152.64,64.96c16.33,2.77,27.01,15.25,26.77,31.15c-0.23,15.43-13.26,29.16-28.69,29.33
		c-26.64,0.3-53.29,0.22-79.93,0.03c-11.73-0.08-22.34-9.92-23.91-21.41C45.19,91.7,52.16,79.97,63.56,76.2
		c2-0.66,3.03-1.34,3.34-3.8c1.06-8.44,9.25-14.48,17.67-13.48c0.66,0.08,1.33,0.12,2.23,0.19c1.4-10.17,6.05-18.4,14.59-24.17
		c6.71-4.53,14.19-6.23,22.2-5.33C136.37,31.04,153.07,42.11,152.64,64.96z M110.59,119.88c12.68,0,25.37,0,38.05,0
		c0.17,0,0.34,0,0.51,0c14.09-0.23,25.38-12.11,24.59-25.86c-0.73-12.78-10.71-22.64-23.65-23.38c-3.28-0.19-4.01-1.22-3.74-4.56
		c0.2-2.5,0.35-5.07,0.01-7.54c-1.99-14.48-14.43-24.36-29.19-23.35c-13.44,0.92-24.41,12.78-24.66,26.68
		c-0.08,4.39-1.34,5.19-5.49,3.5c-7.2-2.95-15,2.45-14.72,10.19c0.16,4.44,0.16,4.44-4.39,5.29c-8.28,1.54-15.15,9.41-15.53,17.79
		c-0.55,11.97,8.1,21.16,20.16,21.24C85.23,119.94,97.91,119.88,110.59,119.88z"/>
	<path class="st2" d="M23.51,149.46c3.8,2.69,7.66,2.75,11.58,2.74c22.24-0.05,44.48-0.03,66.71-0.01c3.98,0,7.97,0.19,11.51-2.44
		c0.06,3.62-2.73,6.72-6.28,7.25c-0.83,0.12-1.69,0.12-2.53,0.12c-23.93,0.01-47.86,0.01-71.79,0
		C27.5,157.12,24.95,155.11,23.51,149.46z"/>
	<path class="st2" d="M83.27,7.91c-1.32,4.62-1.62,4.85-6.12,4.85c-5.66,0-11.32,0.01-16.98,0c-4.53-0.01-4.85-0.26-6.07-4.85
		C63.79,7.91,73.45,7.91,83.27,7.91z"/>
	<path class="st0" d="M110.59,119.88c-12.68,0-25.37,0.06-38.05-0.02c-12.05-0.08-20.7-9.27-20.16-21.24
		c0.38-8.38,7.25-16.25,15.53-17.79c4.55-0.84,4.55-0.84,4.39-5.29c-0.28-7.74,7.52-13.14,14.72-10.19c4.14,1.7,5.41,0.89,5.49-3.5
		c0.25-13.9,11.22-25.76,24.66-26.68c14.76-1.01,27.2,8.88,29.19,23.35c0.34,2.47,0.19,5.04-0.01,7.54
		c-0.27,3.34,0.46,4.37,3.74,4.56c12.94,0.74,22.92,10.6,23.65,23.38c0.79,13.75-10.5,25.63-24.59,25.86c-0.17,0-0.34,0-0.51,0
		C135.96,119.88,123.28,119.88,110.59,119.88z M110.92,102.01c-4.55-4.63-8.94-9.08-13.3-13.55c-1.4-1.44-2.89-2.18-4.64-0.71
		c-1.45,1.21-1.18,2.94,0.66,4.8c4.83,4.85,9.66,9.7,14.51,14.52c2.3,2.28,3.36,2.26,5.72-0.09c4.55-4.53,9.08-9.08,13.62-13.62
		c3.82-3.82,7.65-7.64,11.45-11.48c1.31-1.33,1.58-2.88,0.19-4.25c-1.4-1.38-2.91-1.03-4.26,0.26c-0.43,0.41-0.83,0.84-1.25,1.26
		C126.14,86.69,118.65,94.23,110.92,102.01z"/>
	<path class="st1" d="M110.92,102.01c7.73-7.78,15.22-15.32,22.71-22.86c0.42-0.42,0.82-0.85,1.25-1.26
		c1.34-1.29,2.86-1.64,4.26-0.26c1.39,1.37,1.12,2.93-0.19,4.25c-3.8,3.85-7.63,7.66-11.45,11.48c-4.54,4.54-9.07,9.09-13.62,13.62
		c-2.36,2.34-3.42,2.37-5.72,0.09c-4.86-4.82-9.69-9.67-14.51-14.52c-1.85-1.86-2.11-3.58-0.66-4.8c1.75-1.47,3.24-0.73,4.64,0.71
		C101.97,92.94,106.36,97.38,110.92,102.01z"/>
</g>
</svg>
