<?xml version="1.0" encoding="utf-8"?>
<!-- Generator: Adobe Illustrator 24.3.0, SVG Export Plug-In . SVG Version: 6.00 Build 0)  -->
<svg version="1.1" id="Layer_1" xmlns="http://www.w3.org/2000/svg" xmlns:xlink="http://www.w3.org/1999/xlink" x="0px" y="0px"
	 viewBox="0 0 564.27 478" style="enable-background:new 0 0 564.27 478;" xml:space="preserve">
<style type="text/css">
	.st0{fill:#00B0FB;}
	.st1{fill:#FFFFFF;}
	.st2{fill:#00B0FB;fill-opacity:0.4;}
	.st3{fill:#DBDBDB;}
	.st4{fill:#FDFDFD;}
	.st5{fill:#575757;}
	.st6{fill:#F9F9F9;}
	.st7{fill:#E2E2E2;}
	.st8{fill:#030302;}
	.st9{fill:#FCFCFC;}
	.st10{fill:#D2D3D3;}
	.st11{fill:#1F1F1F;}
	.st12{fill:#F6F6F6;}
	.st13{fill:#0E0D0E;}
	.st14{fill:#BABBBB;}
	.st15{fill:#8A8A8A;}
	.st16{fill:#8E8F8F;}
	.st17{fill:#464746;}
	.st18{fill:#5F5E5E;}
	.st19{fill:#0B0B0B;}
	.st20{fill:#090909;}
	.st21{fill:#151414;}
	.st22{fill:#101010;}
	.st23{fill:#282828;}
	.st24{fill:#FAFAFA;}
	.st25{fill:#F2F2F2;}
	.st26{fill:#2B2B2B;}
	.st27{fill:#7F8080;}
	.st28{fill:#FBF9FB;}
	.st29{fill:#8D8D8E;}
	.st30{fill:#FBF8FA;}
</style>
<g>
	<path d="M399.08,171.15c-2.14,2.02-2.66,4.63-2.54,7.62c-3.14-3.83-3.15-8.07-0.2-15.67c0.14-0.26,0.7-0.46,0.26-0.81
		c-0.28-0.22-0.7-0.1-0.93,0.27c-3.74,0.56-7.33,0.24-11.25-1.87c6.36-0.34,9.18-5.58,14.27-8.24c-4.35-1.43-7.19-4.01-9.46-8.31
		c8.03,3.16,14.1-0.44,20.1-4.52c-2.61-1.75-4.55-4.11-5.59-7.16c-0.12-0.36-0.47-0.73-0.14-1.02c0.24-0.2,0.83-0.33,1.04-0.18
		c5.03,3.76,10.41,2.06,15.73,1.01c3.74-0.74,7.5-1.1,11.31-1.19c1.1-0.03,2.3,0.23,3.51-0.63c-2.03-1.3-4.28-2.07-6.2-4.07
		c10.99,0.07,21.77-1.68,31.84,3.61c1.18,0.62,2.7,2.71,3.62,1.47c0.95-1.28-1.44-2.29-2.28-3.49c-0.17-0.23-0.36-0.45-0.81-1
		c6.74,1.8,11.61,5.13,13.71,11.89c1.83-1.03,2.71-2.6,2.87-4.83c2.1,1.94,1.21,4.14,0.83,6.61c4.37-0.69,8.04,0.53,11.35,3.92
		c-2.08,0.02-3.71-1.02-5.79-0.09c12.88,9.42,10.39,22.16,7.69,34.94c-0.54-1.41-1.09-2.83-1.87-4.85
		c-1.01,4.52-0.74,8.45-0.73,12.36c0.02,5.46-1.58,10.34-5.09,14.56c-1.96,2.36-4.22,4.35-7.28,5.09c-1.7,0.41-2.21,1.34-2.44,3.03
		c-0.96,7.06-0.28,13.97,1.32,20.85c0.39,1.67,1.11,2.45,2.93,2.49c3.43,0.07,6.12,1.46,7.76,4.73c1.09,2.19,2.89,3.89,4.83,5.41
		c1.7,1.33,3.31,2.74,3.98,4.91c0.32,1.04,1.24,1.4,2.08,1.89c7.68,4.46,16.1,7.34,23.97,11.36c5.88,3.01,11.59,6.28,15.43,11.92
		c0.63,0.93,1.43,1.11,2.42,1.31c3.72,0.74,7.44,1.52,10.81,3.39c9.3,7.31-0.87,31.55-1.07,31.98
		c-8.99,18.98-21.2,35.72-35.23,51.26c-16.52,18.29-34.94,34.4-55.34,48.18c-17.75,11.99-36.28,22.65-55.86,31.45
		c-5.91,2.66-11.77,5.46-17.79,7.86c-18.91,7.54-37.95,14.72-57.79,19.48c-19.22,4.61-38.57,8.49-58.44,8.88
		c-8.88,0.17-17.73-0.21-26.32-2.78c-5.38-1.61-10.43-4-14.2-8.27c-4.95-5.61-5.81-12.12-3.37-19.11
		c2.76-7.88,6.98-14.93,12.1-21.49c9.06-11.62,19.46-21.99,29.99-32.23c0.48-0.47,0.92-0.98,1.71-1.81
		c-7.32-0.51-10.54-5.36-13.36-11.07c-9.5-19.26-18.65-38.68-27.29-58.34c-0.62-1.42-1.19-2.88-1.7-4.34
		c-1.64-4.78,0.37-7.88,5.39-8.24c5.64-0.4,11.27,0.08,16.9,0.39c22.83,1.29,45.66,2.68,68.5,3.91c5.25,0.28,8.78,2.61,10.9,7.36
		c2.73,6.12,5.55,12.21,8.32,18.31c0.39,0.86,0.6,2.12,1.93,1.63c1.62-0.59,3.73,1.13,4.96-1.25c1.56-3.02,3.2-6.01,5-8.89
		c0.7-1.12,0.32-1.83-0.23-2.61c-2.96-4.27-2.36-8.04,0.65-12.26c7.06-9.91,12.62-20.74,18.21-31.53
		c3.22-6.21,6.64-12.32,10.56-18.13c4.09-6.05,9.72-9.55,16.77-11.22c7.18-1.7,14.59-2.46,21.53-5.18c1.63-0.64,2.84-1.42,3.56-3.09
		c1.24-2.88,4.09-4.3,6.57-6.67c-6.45-0.49-9.57-4.45-11.7-9.69c-1.47-3.62-3.93-6.7-6.04-9.96c-4.26-6.59-6.7-13.59-5.29-21.55
		c0.83-4.72,0.37-9.12-1.81-13.57c-2.05-4.19-0.96-9-1.3-13.53c0.05-0.24,0.1-0.48,0.15-0.71
		C399.54,171.08,399.31,171.12,399.08,171.15z M410.51,272.65c1.5,0.28,2.27-0.9,3.2-1.67c1.42-1.18,2.71-2.5,4.12-3.69
		c1.04-0.88,2.23-1.1,3.51-0.39c1.32,0.73,1.18,1.84,0.89,3.03c-0.3,1.22-0.49,2.48-0.89,3.67c-0.37,1.1-0.14,1.87,0.77,2.53
		c1.5,1.09,2.87,2.34,3.96,3.84c0.68,0.95,1.07,0.78,1.69-0.07c1.06-1.47,1.72-2.81,0.89-4.75c-1.45-3.38-2.73-6.88-3.13-10.57
		c-0.73-6.67-1.5-13.38,3.15-19.21c0.61-0.76,0.52-1.76,0.03-2.66c-4.1,1.77-6,3.57-7.79,7.2c-3.69,7.47-6.12,15.5-10.42,22.69
		c-0.17,0.09-0.63,0.06-0.17,0.41C410.37,272.9,410.44,272.78,410.51,272.65z M443.02,157.3c-1.34-0.07-2.41,0.7-3.48,1.29
		c-3.49,1.93-6.92,3.95-10.83,4.97c-4.08,1.05-8.16,1.43-12.28,0.37c2.79-1.69,6.14-2.07,8.48-4.49c-4.18,1.16-8.48,1.14-12.67,1.79
		c-2.78,0.43-5.4,1.46-6.73,4.1c-2.08,4.14-2.8,8.6-2.73,13.41c2.64-0.6,4.97-1.37,7.43-1.22c1.76,0.11,2.73,1.21,2.75,2.83
		c0.03,2.14-1.77,0.61-2.63,1.06c-0.39,0.21-0.96,0.06-1.44,0.1c-5.72,0.47-6.45,1.68-4.12,6.81c0.11,0.25,0.37,0.42,0.62,0.69
		c2.16-2.39,4.62-2.75,7.31-1.1c1.06,0.65,2.82,2.19,2.36,2.56c-1.66,1.36-1.23,4.56-4.37,4.6c-2.58,0.03-3.48-1.47-4.28-4.42
		c-0.43,2.72-0.65,4.52-1.02,6.3c-1.76,8.43,0.31,15.98,5.08,22.96c2.42,3.54,4.62,7.2,6.58,11.01c2.97,5.77,5.84,7.4,12.23,6.26
		c11.25-2.01,20.56-7.9,29.17-15.11c0.84-0.7,1.4-1.84,2.69-1.97c0.51,0.95-0.19,1.58-0.56,2.17c-3.39,5.35-6.88,10.62-11.32,15.18
		c-2.81,2.88-5.98,5.19-9.81,6.67c-1.91,0.73-4.84-0.22-5.6,1.89c-0.66,1.83,0.24,4.2,0.39,6.33c0.23,3.27,0.05,6.48-1.89,10.25
		c-0.24-3.16-0.52-5.42-1.51-7.59c-3.89,4.4-3.25,12.55,1.34,18.42c1.71-2.11,3.38-4.25,5.13-6.32c1.67-1.97,3.71-3.42,6.2-4.2
		c5.12-1.61,9.98-3.86,14.69-6.37c6.52-3.48,12.94-7.18,18.18-12.54c0.77-0.78,1.74-1.4,0.86-2.93c-5.21-9.09-6.56-19-6.05-29.3
		c0.2-3.94,0.13-3.94-3.66-2.84c-0.1,0.03-0.26-0.18-0.36-0.26c0.65-3.21,2.22-4.67,5.77-3.84c3.03,0.7,5.67-0.73,7.96-2.77
		c5.2-4.63,7.37-13,5.01-19.52c-1.38-3.81-4.15-5.32-8.04-4.16c-4.11,1.22-7.03,4.05-8.28,8c-1.11,3.51-3.25,4.05-6.33,3.71
		c0.19-1.81,0.67-3.59,0.04-5.25c-1.85-4.87-3.17-9.88-3.85-15.13c-1.81,0.66-1.3,2.62-2.55,3.62c-2.82-5.01-3.55-10.16-2.33-16.12
		c-3.49,1.71-6.8,1.61-10.06,1.86c-1.22,0.09-1.66-0.2-1.18-1.41c0.29-0.09,0.84-0.07,0.62-0.52
		C443.83,156.87,443.29,156.94,443.02,157.3z M481.75,237.6l-0.09-0.19l0.12,0.15c0.32,4.14-2.02,6.99-4.81,9.5
		c-7.65,6.89-16.43,12.09-26.02,15.63c-7.67,2.83-13.5,7.45-17.82,14.25c-1.41,2.21-2.84,4.48-4.64,6.37
		c-5.64,5.92-7.74,13.31-9.46,20.97c-0.47,2.08,0.16,2.7,1.97,2.63c3.52-0.14,7.03-0.39,10.81-0.61c-2.39,2.19-4.98,2.94-7.92,2.58
		c-2.4-0.29-5.66,0.2-6.96-1.16c-1.63-1.71,0.25-4.74,0.71-7.16c0.92-4.75,1.55-9.71,4.92-13.54c2.12-2.41,1.51-4.61-0.39-6.43
		c-2.12-2.04-4.26-3.89-3.64-7.5c-1.73,0.91-2.93,1.53-4.12,2.16c-2.22,1.19-4.56,1.58-7.05,1.16c-1.71-0.29-2.49-0.75-1.18-2.55
		c1.48-2.03,2.84-4.18,4.03-6.4c2.27-4.24,4.24-8.62,5.75-13.78c-7.65,2.45-15.07,3.41-22.33,5.12c-4.92,1.16-9.43,3.17-12.28,7.7
		c-2.43,3.87-5.03,7.66-7.17,11.68c-6.8,12.8-13.07,25.88-21.07,38.02c-1.71,2.6-1.55,2.87,1.75,2.98
		c6.33,0.22,12.25,1.93,17.91,4.73c1.81,0.9,3.39,2.26,5.69,2.74c0-3.99-0.07-7.86,0.02-11.72c0.06-2.52,0.81-5.06,0.04-7.55
		c-1.61-5.25-1.52-10.56-0.68-15.88c0.48-2.99,0.9-6.04,2.64-8.71c-0.38,4.29-0.86,8.53,0.1,12.83c2.53-5.77,3-12.28,6.75-17.53
		c0.1,0.42,0.04,0.8-0.06,1.15c-3.89,14.18-5.67,28.57-4.42,43.29c0.85,10.01,3.59,19.7,4.92,29.62c0.28,2.13,1.74,1.24,2.61,0.87
		c5.69-2.44,10.99-1.77,16.06,1.64c0.79,0.53,1.78,0.76,2.68,1.15c8.85,3.76,17.93,7.05,26.17,12.14c1.48,0.92,3,1.67,4.88,1.71
		c13.12,0.3,25.69-2.56,38.06-6.57c1.15-0.37,1.7-1.02,2.01-2.2c1.36-5.27,2.83-10.51,3.75-15.89c0.35-2.03,0.15-3.74-1.23-5.43
		c-1.72-2.1-3.04-4.48-4.03-7.07c-2.98-7.8-2.66-15.9-2.47-24.05c1.47,9.68,1.96,19.74,10.72,27.1c0.45-4.88,0.82-9.21,1.27-13.53
		c1.17-11.4,4.1-22.27,9.83-32.28c4.8-8.38,13-14.56,21.58-15.76c-11.65,3.61-17.51,11.79-21.28,21.84
		c-3.35,8.9-4.97,18.19-5.56,27.64c-0.3,4.77-0.83,9.59,0.22,14.74c3.3-3.35,6.25-6.54,9.68-9.25c4.96-3.92,8.75-6.2,11.11-6.28
		c-0.73,0.6-1.33,1.08-1.91,1.57c-7.56,6.32-13.56,13.91-18.36,22.47c-0.45,0.81-1.21,1.78-0.42,2.69c0.79,0.91,1.64-0.06,2.35-0.37
		c7.86-3.48,16.14-3.97,24.55-3.5c1.21,0.07,2.01-0.16,2.76-1.12c7.74-9.91,15.1-20.06,20.68-31.39c0.42-0.86,0.94-1.68,0.77-2.75
		c-1.08-6.91-1.86-13.88-3.82-20.63c-3.32-11.42-9.62-20.34-20.88-25.14c-1.4-0.6-2.84-1.14-4.22-1.79
		c-6.49-3.06-12.97-6.15-19.46-9.24c-0.96-0.46-1.71-0.67-2.4,0.55c-2.5,4.43-5.84,8.28-9.2,12.03
		c-6.56,7.33-13.61,14.15-22.46,18.8c-2.1,1.1-3.94,1.19-6.04-0.01c-2.13-1.22-4.12-2.61-5.97-4.18c-2.18-1.84-3.89-1.83-5.99,0.28
		c-2.24,2.26-5.26,3.28-8.44,3.85c2.89-1.99,4.13-4.88,5.16-7.99c0.64-1.93,1.47-3.83,2.49-5.58c1.45-2.5,2.87-2.7,5.27-1.12
		c1.57,1.04,2.76,2.44,3.87,3.93c1.91,2.58,3.77,5.19,5.71,7.75c0.8,1.05,1.61,1.72,3.15,0.71c12.15-7.93,22.07-18.08,30.26-30
		c1.66-2.41,1.24-4.32-0.92-6.07c-2.74-2.23-5.17-4.72-6.97-7.79C483.01,238.08,482.57,237.52,481.75,237.6z M250.93,312.12
		c-6.03-0.19-12.05-0.9-18.09-0.45c-4.87,0.36-5.81,1.83-3.86,6.42c2.33,5.48,4.78,10.91,7.28,16.31
		c4.56,9.83,9.14,19.64,13.81,29.42c2.97,6.23,6.13,12.36,9.17,18.56c1.83,3.74,4.69,5.59,8.92,6c21.98,2.16,43.95,4.51,65.92,6.76
		c5.03,0.51,10.08,1.01,15.13,1.22c4.93,0.2,7.09-2.87,5.58-7.56c-0.53-1.66-1.17-3.3-1.88-4.9c-8.99-20.45-18.06-40.87-26.95-61.37
		c-1.71-3.95-4.28-6-8.56-6.26C295.24,314.91,273.08,313.5,250.93,312.12z M437.42,391.51c8.22,3.43,16.23,6.9,24.88,8.55
		c1.12,0.21,1.98,0.12,2.96-0.61c9.58-7.18,18.89-14.7,27.77-22.73c2.18-1.97,4.23-4.08,6.88-6.64c-3.22,0.2-5.57,0.17-7.86,0.5
		c-17.66,2.55-35.39,3.56-53.22,2.87c-0.83-0.03-1.73-0.38-2.45-0.82c-11.56-6.9-24.25-11.42-36.3-17.28
		c-1.57-0.76-3.04-1-4.76-0.57c-5.66,1.41-11.35,2.69-17.02,4.03c-1.24,0.29-2.49,0.64-3.09,1.94c-1.74,3.8-3.63,7.54-4.71,11.59
		c-0.28,1.05-0.39,1.71-1.55,2.25c-0.91,0.42-1.86,1.7-1.3,2.91c0.51,1.09,1.83,0.88,2.9,0.85c0.95-0.02,1.56-0.62,2.27-1.15
		c3.17-2.38,4.58-5.97,6.48-9.22c0.59-1,0.95-2.37,2.11-2.69c5.09-1.4,9.98-3.49,15.61-4.54c-3.32,3.58-7.67,4.09-11.41,5.83
		c-1.31,0.61-2.82,0.92-3.44,2.46c-1.98,4.9-4.45,9.56-6.99,14.18c-0.87,1.58,0.12,2.76,2.03,2.65c3.21-0.19,5.29-2.23,6.4-4.84
		c2.4-5.67,6.71-8.75,12.37-10.47c1.84-0.56,3.54-1.6,5.33-2.34c1.08-0.44,2.21-1.02,3.71-0.34c-3.56,3.2-7.63,4.78-11.59,6.57
		c-1.33,0.6-3.04,0.85-3.47,2.75c-0.51,2.27-1.43,4.48-1.68,6.77c-0.2,1.84-1.78,3.46-0.94,5.72c2.71-1.99,6.14-2.71,7.77-5.71
		c1.41-2.6,3.59-3.93,6.2-4.95c1.98-0.78,3.87-1.81,5.79-2.73c1.87-0.89,3.77-1.28,6.04-0.51c-1.43,2.06-3.41,2.85-5.31,3.71
		c-3.9,1.76-7.87,3.38-10.93,6.54c-1.64,1.7-3.7,2.73-5.79,3.77c-1.08,0.54-2.82,0.87-2.21,2.83c0.53,1.72,2.04,1.48,3.3,1.52
		c4.35,0.13,7.75-2.16,11.17-4.44c3.58-2.4,7.88-2.44,11.89-3.46c0.73-0.18,1.22,0.41,1.79,0.78c5.72,3.67,11.73,5.61,18.53,3.21
		c0.98-0.34,2.11-0.25,3.17-0.33c0.11-0.01,0.24,0.2,0.46,0.41C438.66,390.71,438.13,391.05,437.42,391.51z M380.16,343.42
		c-0.25-3.1-0.51-6.21-0.75-9.31c-0.06-0.8-0.2-1.48-0.93-2.02c-6.42-4.71-13.33-7.18-21.36-4.91c-1.64,0.46-3.02,1.25-4.06,2.66
		c-2.56,3.47-4.53,7.25-6.27,11.17c-0.35,0.8-0.63,1.31,0.51,1.7c4.91,1.66,9.01,4.99,13.9,6.72c1.83,0.65,3.91,1.6,4.36,3.58
		c0.61,2.66,2.3,2.95,4.42,3.06c0.77,0.04,1.58,0.12,2.29,0.4c1.78,0.69,2.99,0.03,3.98-1.41
		C378.67,351.55,380.67,347.91,380.16,343.42z M351.63,399.21c4.83,4.04,10.38,5.11,16.41,4.19c15.14-2.33,30.28-4.7,45.41-7.07
		c1.06-0.17,2.14-0.4,2.88-1.27c0.6-0.7,1.74-1.36,1.15-2.4c-0.52-0.93-1.63-1.48-2.78-1.2c-5.07,1.26-10.46,0.97-15.27,3.48
		c-2.9,1.51-6.18,2.4-9.33,1.55c-3.88-1.04-7.47,0.01-11.19,0.42c-5.11,0.56-10.26,2.33-15.3,1.38c-4.14-0.78-7.91-1.62-11.69,0.74
		C351.84,399.07,351.78,399.11,351.63,399.21z M517.89,350.41c-6.59-0.54-12.42,0.15-18.23,1.62c-4.12,1.04-7.03,2.69-6.34,7.61
		c0.1,0.74-0.24,1.53-0.33,2.3c-0.59,5.05-0.58,5.11,4.47,5.13c1.89,0.01,4.16,0.98,5.63-0.44
		C508.23,361.65,513.21,356.51,517.89,350.41z M342.59,352.86c1.14-1.82,2.89-2.51,4.83-2.85c4.96-0.86,8.92,3.39,7.52,8.16
		c-0.95,3.26-2.05,6.48-3.11,9.71c-0.47,1.43-0.37,2.89-0.28,4.34c0.1,1.64,0.63,2.81,2.57,1.61c1.58,3.56,2.61,0.39,3.01-0.49
		c2.2-4.85,4.58-9.65,6-14.83c0.78-2.83-0.11-4.95-2.76-6.3c-3.11-1.58-6.15-3.32-9.34-4.72c-2.84-1.24-5.83-2.12-8.78-3.1
		c-1.04-0.35-2.33-0.49-3.05,0.26c-0.68,0.71,0.13,1.76,0.45,2.62C340.34,349.19,341.17,351.04,342.59,352.86z M353.77,378.25
		c0.31,4.51,2.83,5.99,6.87,6.07c2.48,0.05,4.95,0.82,7.42,1.32c4.37,0.89,4.36,0.9,4.9-3.37c0.07-0.57,0.22-1.45-0.55-1.33
		c-3.57,0.54-6.41-1.45-9.55-2.44C359.94,377.59,356.82,377.68,353.77,378.25z M348.76,367c0.45-3.97,2.75-6.59,3.91-9.71
		c0.65-1.76,0.81-3.38-0.52-4.89c-1.37-1.57-3.06-2.05-4.96-1.23c-1.71,0.75-3.56,5-2.84,6.83
		C345.5,360.92,346.74,363.83,348.76,367z M359.36,375.34c1.36,0.27,2.49,0.57,3.65,0.7c0.9,0.1,1.9,0.51,2.51-0.76
		c0.8-1.66,1.78-3.23,2.66-4.85c0.96-1.77,0.56-2.5-1.6-2.63c-4.25-0.26-4.24-0.39-5.78,3.7
		C360.35,372.68,359.91,373.86,359.36,375.34z M367.21,366.63c2.66,0.1,4.84-2.45,4.64-5.88c-0.14-2.37-2.62-1.54-4.09-1.86
		c-1.53-0.34-3.62,2.91-3.73,5.89C363.94,367.4,366.33,365.98,367.21,366.63z M385.5,392.74c-8.92-0.19-17.66,2.06-26.58,1.82
		C368.03,397.61,376.67,393.81,385.5,392.74z M357.05,386.36c-0.03,0.26-0.06,0.52-0.09,0.79c7.95,1.25,15.64,4.1,23.98,2.91
		c2.32-0.33,3.5-0.75,3.45-3.46c-3.55,3.55-7.7,3.18-11.97,2.39C367.31,388.04,362.17,387.23,357.05,386.36z M358.2,390.73
		c2,0.33,3.89,1.53,6.42,0.87C362.34,390.65,360.31,390.42,358.2,390.73z"/>
	<path class="st29" d="M263.62,261.88c4.9-1.25,9.35-2.39,14.06-3.6c-5.59-4.51-11.66-7.75-17.98-10.42
		c-16.58-7.01-34.14-10.52-51.65-14.22c-2.95-0.62-5.88-1.36-8.86-1.73c-1.91-0.24-2.19-1.18-2.03-2.73
		c0.6-5.89,0.45-11.83,1.14-17.72c0.28-2.38,2-2.15,3.31-2.44c7.62-1.72,15.03-4.06,21.94-7.74c12.78-6.82,22.83-16.35,29.24-29.54
		c2.88-5.92,4.48-12.2,5.99-18.53c0.45-1.87,1.05-2.54,3.16-1.77c4.15,1.52,8.57,1.7,12.95,1.77c1.89,0.03,2.28,0.66,2.12,2.43
		c-1.9,20.2-8.97,38.13-23.24,52.86c-5.43,5.6-11.65,10.2-18.92,14.14c8.33,1.37,16.12,3.5,23.9,5.68
		c18.54,5.19,36,12.56,50.67,25.42c1.5,1.31,2.77,1.38,4.45,0.63c2.13-0.95,4.32-1.76,6.52-2.54c0.9-0.32,1.92-1.47,2.81-0.1
		c0.79,1.21,2.49,2.01,1.77,3.98c-2.05,5.56-4.02,11.15-6.04,16.72c-0.09,0.25-0.44,0.42-0.51,0.67c-0.58,2.08-0.4,5.13-2.52,5.71
		c-1.7,0.46-3.98-1.13-5.98-1.86c-8.67-3.18-17.25-6.62-26.02-9.47c-5.24-1.7-10.79-2.45-16.19-3.7
		C266.41,263.5,265,263.39,263.62,261.88z"/>
	<path class="st29" d="M120.07,232.58c-5.99,2.2-11.38,4.06-16.68,6.16c-13.84,5.49-27.43,11.46-38.75,21.53
		c-3.88,3.45-7.22,7.33-9.89,11.79c-0.9,1.49-0.99,2.26,1.21,2.54c4.49,0.59,8.94,1.53,13.43,2.32c-0.11,1.24-0.94,1.34-1.64,1.57
		c-15.44,5.07-30.46,11.26-45.52,17.31c-2.08,0.84-2.77,0.47-3.19-1.74c-1.47-7.73-3.14-15.43-4.72-23.14
		c-0.12-0.57-0.21-1.17-0.17-1.74c0.13-1.75,1.08-3.31,2.33-4.24c1.12-0.83,2.12,0.8,3.07,1.43c4.86,3.23,4.91,3.31,7.67-1.48
		c8.05-13.94,19.72-23.84,33.99-30.95c9.1-4.54,18.69-7.63,28.49-10.18c2.01-0.52,3.79-0.31,5.61,0.65
		C102.86,228.38,110.85,231.07,120.07,232.58z"/>
	<path class="st29" d="M127.8,232.59c-0.35-6.86-0.37-6.75-6.85-7.87c-20.51-3.53-36.92-13.58-48.8-30.81
		c-1.49-2.16-3.02-4.28-4.19-6.65c-0.61-1.23-0.25-1.58,0.94-1.58c1.56,0,3.11,0,4.67,0.02c4.77,0.06,7.5-2.45,7.94-7.3
		c0.21-2.31-0.14-4.67,0.76-7.43c0.97,1.23,1.8,2.19,2.53,3.23c4.22,6.02,9.16,11.36,15.16,15.62c7.63,5.42,16.2,8.74,25.3,10.78
		c1.95,0.44,3.22,0.17,2.92-2.32c-0.14-1.21,0.07-2.45,0.16-4.34c3.85,3.55,7.3,6.74,10.76,9.91c1.07,0.98,2.14,1.99,3.29,2.88
		c3.88,3.03,3.64,2.88,1.38,7.33C140,221.49,134.46,227.28,127.8,232.59z"/>
	<path class="st29" d="M99.68,37.16c6.07,0.55,11.28,2.41,16.43,4.38c1.69,0.64,1.59,2.84,1.94,4.36c0.75,3.24,2.05,6.06,4.6,8.25
		c0.69,0.59,1.27,1.16,0.87,2.22c-1.59,4.24-3.14,8.49-4.9,13.28c-1.54-2.89-3.01-5.18-4.02-7.67c-0.9-2.24-1.95-2.4-3.94-1.38
		C98.71,66.76,89.5,75.68,83.29,87.63c-2.11,4.05-4.08,8.19-5.48,12.55c-0.4,1.24-0.97,1.89-2.46,1.85
		c-4.37-0.14-8.76-0.11-13.13-0.09c-1.56,0.01-2.3-0.21-1.65-2.11C66.15,83.53,73.89,68.54,86.8,56.7
		c4.52-4.15,9.41-7.86,14.77-10.83c2.17-1.2,2.25-2.2,0.93-4C101.53,40.56,100.8,39.06,99.68,37.16z"/>
	<path d="M307.04,116.62c-0.05,6.67-1.76,12.85-5.33,18.52c-0.51,0.81-1.76,1.51-0.63,2.74c0.86,0.94,1.21,2.47,3.12,1.97
		c1.8-0.47,3.14,0.44,4.21,1.92c4.61,6.39,9.35,12.69,13.87,19.14c3,4.28,1.82,8.88-2.8,12.04c-4.07,2.79-8.46,2.02-11.42-2.11
		c-4.31-6.01-8.6-12.03-13.42-17.65c-1.32-1.54-2.28-3.26-1.42-5.32c0.38-0.92,0.55-1.65-0.2-2.36c-0.9-0.84-1.68-0.03-2.37,0.34
		c-4.32,2.36-8.86,3.86-13.82,4.29c-6.22,0.54-12.21,0.08-17.88-2.74c-0.54-0.27-1.09-0.59-1.63-0.22
		c-0.57,0.39-0.48,1.01-0.16,1.54c0.77,1.25,0.1,2.3-0.56,3.23c-4.32,6.12-8.6,12.27-13.08,18.26c-2.09,2.8-6.07,2.71-9.42,0.17
		c-2.96-2.25-3.68-5.19-1.63-8.15c4.21-6.07,8.59-12.02,12.88-18.04c0.77-1.08,1.75-1.61,2.99-1.13c1.08,0.41,1.4-0.34,1.81-0.95
		c0.5-0.75-0.01-1.09-0.58-1.61c-11.2-10.23-13.84-27.36-5.91-40.53c7.01-11.64,17.63-17.57,31.18-16.95
		c13.35,0.61,23.07,7.5,29.01,19.47C306.03,106.9,307.05,111.66,307.04,116.62z M303.11,117.32c0.2-16.81-12.87-30.34-29.5-30.53
		c-16.78-0.19-30.63,13.03-30.77,29.37c-0.14,16.69,13.19,30.15,30.08,30.37C289.89,146.76,302.91,134.16,303.11,117.32z
		 M321.64,165.22c0.4-1.16-0.57-2.12-1.25-3.17c-3.64-5.62-7.7-10.95-11.72-16.3c-3.72-4.95-3.72-4.95-8.56-1.29
		c-0.77,0.58-1.62,1.07-2.38,1.67c-2.79,2.22-2.95,3.23-0.82,6.05c4.44,5.88,8.94,11.73,13.37,17.62c1.45,1.93,3.11,3.46,5.63,2.32
		C318.94,170.74,322.04,168.23,321.64,165.22z M233.89,164.92c-0.06,2.12,4.31,5.76,6.43,5.3c0.42-0.09,0.86-0.45,1.14-0.8
		c4.62-5.73,8.65-11.88,12.74-18c0.66-0.98,0.47-2.03-0.71-2.32c-2.38-0.56-3.62-3.62-6.51-2.88c-0.2,0.05-0.3,0.48-0.47,0.71
		c-3.63,4.9-7.27,9.79-10.91,14.68C234.86,162.63,234.02,163.59,233.89,164.92z"/>
	<path d="M125.18,125.76c0.22-20.32,16.45-36.19,36.6-36.04c20.01,0.15,33.33,16.78,35.05,30.45c3.37,26.77-18.15,41.53-36.61,41.1
		C140.71,160.82,124.97,145.06,125.18,125.76z M191.49,125.29c-0.25-16.71-13.95-30.12-30.59-29.92c-16.57,0.2-30.17,14.27-29.95,31
		c0.21,16.27,14.03,29.53,30.47,29.39C178.85,155.61,191.92,141.11,191.49,125.29z"/>
	<path class="st29" d="M197.63,59.03c6.34-4.84,8.41-11.15,7.72-18.74c6.35,1.59,11.95,4.21,17.26,7.4
		c14.12,8.49,25.33,19.87,33.61,34.15c1.07,1.85,0.96,2.56-1.06,3.63c-3.35,1.77-6.35,4.18-8.9,7.02c-1.33,1.48-1.98,1.13-2.92-0.34
		c-4.7-7.34-10.22-13.99-17.16-19.31c-7.22-5.53-15.09-9.89-23.94-12.3c-0.65-0.18-1.35-0.21-1.99-0.41
		C199.51,59.88,198.82,59.53,197.63,59.03z"/>
	<path d="M170.33,275.96c-2.04-2.5-2.33-5.31-2.67-8.06c-0.23-1.81-0.82-2.47-2.69-2.42c-2.61,0.07-5.29,0.02-7.53-1.7
		c-1.23-0.95-2.02,0.09-2.78,0.71c-3.37,2.79-6.68,5.66-10.04,8.46c-0.79,0.65-1.6,1.71-2.76,1.2c-1.17-0.52-0.94-1.83-0.94-2.87
		c-0.02-5.94,0.04-11.88,0.01-17.82c-0.01-1.39,0.43-2.37,1.57-3.21c2.43-1.78,4.65-3.88,7.19-5.47c2.23-1.4,2.75-3.09,2.55-5.57
		c-0.83-10.36,0.52-20.36,5.18-29.8c2.31-4.69,5.46-8.69,9.19-12.28c1.81-1.74,3.55-1.66,5.65-0.13c6.15,4.5,9.05,11.07,11.63,17.81
		c2.99,7.84,4.12,16,3.22,24.38c-0.24,2.18,0.19,3.81,2.27,4.78c0.26,0.12,0.46,0.37,0.72,0.49c8.1,3.54,10.77,9.71,9.16,18.21
		c-0.5,2.64-0.17,5.44-0.27,8.16c-0.04,1.14,0.2,2.65-1.05,3.11c-1.14,0.43-2.14-0.67-3.02-1.4c-3.38-2.79-6.75-5.58-10.06-8.45
		c-0.98-0.85-1.67-1.24-2.95-0.37c-2.15,1.48-4.74,1.91-7.26,1.73c-2.26-0.16-2.81,0.87-3.05,2.76
		C171.28,270.82,170.76,273.38,170.33,275.96z M154.19,240.03c0.41,4.94,0.84,9.88,1.2,14.83c0.12,1.7,0.65,2.39,2.51,1.96
		c1.98-0.46,4.03-0.74,6.06-0.75c1.89,0,2.23-0.76,2.16-2.44c-0.12-3.01-0.08-6.03,0.05-9.03c0.09-2.04,1.59-2.77,3.41-2.86
		c1.85-0.09,2.99,0.91,3.2,2.69c0.19,1.63,0.16,3.3,0.1,4.95c-0.25,6.54-0.27,6.54,6.11,6.92c0.87,0.05,1.79-0.03,2.61,0.22
		c1.84,0.57,2.37-0.12,2.46-1.89c0.36-6.6,0.99-13.19,1.22-19.79c0.24-6.69-1.11-13.14-3.66-19.34c-0.45-1.09-0.79-2.07-2.36-2.1
		c-6.41-0.13-12.82-0.59-19.24,0.03c-1.63,0.16-2.28,0.84-2.85,2.26C153.98,223.54,153.54,231.7,154.19,240.03z M197.12,271.3
		c0.19-6.42,0.43-12.19,0.07-17.97c-0.04-0.63-0.29-1.16-0.77-1.51c-3.12-2.32-6.27-4.61-9.61-7.05c-0.47,4.74-0.54,8.99-1.7,13.14
		c-0.64,2.28-0.92,4.73,2.38,5.62c0.87,0.23,1.57,1.12,2.32,1.74C192.11,267.15,194.38,269.04,197.12,271.3z M152.39,245.43
		c-2.92,2.22-5.73,4.42-8.61,6.51c-0.63,0.45-0.94,0.84-0.93,1.61c0.03,5.15,0.03,10.29,0.06,15.44c0,0.55-0.26,1.25,0.34,1.59
		c0.61,0.36,1.12-0.18,1.53-0.53c2.92-2.41,5.8-4.86,8.71-7.29c0.73-0.61,1.15-1.29,0.83-2.28
		C152.79,255.69,153.57,250.62,152.39,245.43z M158.92,211.48c7.09-0.43,13.89-0.27,20.84-0.09c-5.06-11.22-3.4-9.42-13.48-8.97
		c-0.49,0.02-0.97,0.12-1.45,0.1c-0.54-0.02-0.98,0.16-1.22,0.61C162.18,205.84,160.17,208.23,158.92,211.48z"/>
	<path d="M76.76,143.48c0,10.22,0,20.44,0,30.66c0,4.48-1.35,5.89-6.12,5.89c-8.46,0.01-16.95-0.5-25.39-0.1
		c-6.69,0.32-13.35-0.39-20.03,0.12c-4.33,0.33-5.54-1.01-5.53-5.43c0.01-20.83,0.01-41.66,0.02-62.49c0-3.92,0.77-4.78,4.79-4.78
		c16.16-0.01,32.32,0.02,48.48,0.06c2.86,0.01,3.81,1.08,3.81,4.23c0.01,10.61,0,21.22,0,31.83
		C76.78,143.48,76.77,143.48,76.76,143.48z M21.83,143.46c0,0,0.01,0,0.01,0c0,10.32,0.01,20.63-0.01,30.95c0,1.64,0,3.43,2.14,3.46
		c5.19,0.07,10.37,0.3,15.54,0.43c2.3,0.06,4.75-0.38,7.15-0.39c8.17-0.01,16.34-0.06,24.5,0.03c2.58,0.03,3.38-1.13,3.37-3.51
		c-0.03-20.44-0.06-40.87,0.06-61.31c0.02-2.87-0.9-3.61-3.67-3.6c-15.18,0.09-30.36,0.07-45.54-0.1c-2.91-0.03-3.64,0.98-3.61,3.67
		C21.89,123.22,21.83,133.34,21.83,143.46z"/>
	<path class="st29" d="M180.99,273.05c2.01,9.21,2.64,18.09,3.91,26.88c0.04,0.29,0.13,0.68-0.01,0.86c-2.53,3.21-2,7.64-4.33,10.91
		c-1.31,1.85-2.69,2.68-4.77,0.79c-2.28-2.08-3.64-1.77-5.49,0.66c-1.1,1.43-1.69,3.04-2.2,4.72c-0.2,0.65-0.4,1.4-1.23,1.43
		c-0.89,0.03-1.53-0.59-1.67-1.38c-0.8-4.54-4.68-7.34-6.38-11.37c-0.14-0.34-0.54-0.9-0.7-0.86c-4.15,1.05-1.99-2.25-1.85-3.18
		c1.58-10.84,1.67-21.84,3.75-32.61c0.18-0.91,0.46-1.8,0.71-2.74c1.43,0.44,1.12,1.44,1.14,2.24c0.18,6.7,0.1,13.43,2.9,19.75
		c0.35,0.8,0.27,1.53-0.52,2.33c-2.87,2.92-3.18,5.01-1.04,8.53c1.86,3.07,4.05,5.94,6.08,8.91c0.8,1.17,1.65,1.45,2.44,0.1
		c3.3-5.67,7.91-10.74,8.56-17.65c0.39-4.13,1.28-8.24,0.53-12.45C180.5,277.18,180.42,275.34,180.99,273.05z"/>
	<path class="st29" d="M191.8,39.79c-2.33-1.46-2.36-5.18-0.02-6.73c1.38-0.91,2.77-1.8,4.22-2.59c1.09-0.6,1.52-1.33,1.23-2.6
		c-1.22-5.29-2.34-6.21-7.61-6.05c-0.19,0.01-0.39,0.01-0.58,0.01c-3.3,0.05-5.26-2.55-4.33-5.79c0.27-0.93,0.55-1.89,1.02-2.72
		c1.01-1.83,0.5-3.13-1.15-4.18c-0.74-0.47-1.46-0.97-2.17-1.47c-3.57-2.51-3.55-2.49-6.67,0.48c-1.1,1.05-2.04,2.08-3.99,1.77
		c-3.12-0.49-4.23-2.17-4.32-5.09c-0.04-1.25,0.41-3.09-1.42-3.4c-2.48-0.41-5.01-0.56-7.55-0.24c-1.07,0.13-1.21,0.87-1.25,1.65
		c-0.16,3.68-1.79,6.12-5.59,6.79c-1.34-0.02-1.95-1.17-2.86-1.84c-3.04-3.93-3.5-4.01-7.29-1.25c-0.39,0.29-0.77,0.6-1.19,0.84
		c-1.94,1.1-2.35,2.56-1.37,4.59c0.8,1.64,1.61,3.32,1.55,5.24c-1.14,2.04-2.64,3.44-5.22,2.97c-0.16,0.29-0.29,0.81-0.47,0.83
		c-0.64,0.07-0.55-0.5-0.59-0.91c-4.5-0.87-4.75-0.71-6,3.9c-2.56,3.02-2.49,3.67,0.72,5.52c1.95,1.12,3.67,2.13,3.44,5.01
		c-0.21,2.65-2.1,3.15-3.81,3.7c-2.99,0.95-3.6,2.72-2.58,5.43c0.17,0.45,0.34,0.92,0.38,1.4c0.28,2.93,1.77,4.32,4.78,3.89
		c2.44-0.35,4.51,0.36,6.13,2.26c0.48,1.06,0.82,2.14,0.56,3.32c-3.46,6.65-3.43,6.61,2.33,11.11c1.22,0.95,2.05,0.95,3.31,0.14
		c1.94-1.25,3.54-3.07,5.91-3.61c1.11,0.47,2.23,0.94,3.34,1.41c0.76,1.15,1.1,2.42,1.28,3.8c0.64,4.97,0.68,4.97,5.6,5.07
		c0.19,0,0.39,0.01,0.58,0.01c4.51,0.08,4.66,0.11,5.59-4.3c0.57-2.68,1.95-3.89,4.58-4.4c2.44-0.48,3.7,1.01,4.88,2.43
		c1.6,1.92,2.94,2.13,5.08,0.7c5.36-3.57,5.43-3.47,3.5-9.59c-1.12-3.54,1.07-6.19,4.71-5.71c1.35,0.18,2.72,0.18,4.06,0.42
		c1.7,0.3,2.4-0.47,2.91-2.01C197.6,43.43,197.65,43.45,191.8,39.79z M140.7,34.82c-0.26-0.1-0.5-0.22-0.72-0.35
		C140.2,34.6,140.44,34.72,140.7,34.82z M180.46,41.92c-1.84,7.86-9.38,14.22-17.32,14.47c-2.32,0.07-4.64-0.16-6.96-0.25
		c-8.49-2.73-13.41-8.5-14.77-17.31c0,0,0,0,0,0c-0.05-1.27-0.09-2.55-0.14-3.82l0,0c0.86-8.2,5.02-13.99,12.62-17.25
		c6.11-1.67,12.06-1.57,17.75,1.54C178.55,23.08,182.5,33.18,180.46,41.92z"/>
	<path d="M78.68,265.48c1.84-3.35,3.1-5.62,4.06-8.53c2.03,2.5,3.79,4.67,5.66,6.96c-3.62,0.75-3.62,0.75-4,5.17
		C82.88,267.04,83.46,262.77,78.68,265.48z"/>
	<path d="M58.3,218.17c2.75,1.66,5.12,3.1,7.82,4.74c-2.87,1.32-5.44,2.51-8.37,3.86c0.46-2.07,0.23-3.6-2.15-3.64
		c-0.21,0-0.55-0.55-0.6-0.88c-0.07-0.44,0.37-0.75,0.74-0.66C58.77,222.38,58.07,220.04,58.3,218.17z"/>
	<path d="M267.63,222.29c2.81-1.35,5.21-2.5,7.79-3.75c0.06,0.98,0.06,1.9,0.19,2.79c0.17,1.2,1.84,0.48,2.25,1.86
		c-2.51-0.14-2.91,1.39-2.42,3.8C272.69,225.34,270.33,223.92,267.63,222.29z"/>
	<path d="M262.11,68.98c2.99-1.24,3.04-2.83,0.12-5.16c2.57,0.5,3.56,3.25,5.39,1.07c0.32-0.38,0.68,0.41,0.78,0.86
		c0.49,2.05,0.97,4.1,1.53,6.48C267.17,71.42,264.83,70.33,262.11,68.98z"/>
	<path d="M106.85,28.95c-0.06-0.95-0.12-1.9-0.19-3.1c2.38,0.74,4.66,1.45,6.83,2.12c-1.58,1.73-3.12,3.41-4.68,5.12
		c-1.2-0.72-0.9-2.13-1.6-3C107.31,29.64,107.32,29.23,106.85,28.95z"/>
	<path class="st29" d="M213.77,31.73c1.84-0.64,7.6,0.91,8.31,1.98c0.14,0.21,0.22,0.71,0.15,0.75c-0.29,0.17-0.73,0.39-1,0.28
		C218.84,33.82,216.48,32.83,213.77,31.73z"/>
	<path class="st29" d="M96.67,32.56c-2.27,2.02-4.3,2.76-6.28,3.59c-0.53,0.22-0.95,0.14-1.21-0.35c-0.29-0.57,0.08-0.87,0.56-1.09
		C91.71,33.82,93.54,32.53,96.67,32.56z"/>
	<path class="st29" d="M57.52,78.89c-0.24-0.12-0.49-0.17-0.56-0.3c-0.73-1.41,0.37-2.55,0.64-3.8c0.19-0.89,0.49-1.92,1.51-2.3
		c0.36-0.13,0.77,0.19,0.75,0.64c-0.08,1.95-0.77,3.72-1.69,5.4C58.07,78.72,57.72,78.78,57.52,78.89z"/>
	<path class="st29" d="M241.5,45.89c-1.74-1.07-3.47-2.1-5.14-3.21c-0.23-0.15-0.36-0.7-0.28-0.99c0.16-0.54,0.75-0.68,1.17-0.42
		c1.7,1.05,3.38,2.16,5.03,3.3c0.34,0.24,0.33,0.7-0.01,1C242.08,45.73,241.78,45.78,241.5,45.89z"/>
	<path class="st29" d="M76.39,47.05c-1.33,1.46-2.65,3.12-4.23,4.49c-0.5,0.44-1.43-0.52-0.96-1.13c1.16-1.51,2.05-3.3,3.79-4.3
		C75.77,45.68,76.26,45.94,76.39,47.05z"/>
	<path class="st29" d="M251.84,52.09c-0.08,0.74-0.51,1.05-1.15,0.59c-1.56-1.11-3.1-2.26-4.58-3.47c-0.67-0.55-0.57-1.23,0.28-1.54
		C247.14,47.4,251.78,51.21,251.84,52.09z"/>
	<path class="st29" d="M85.05,39.04c0.08,0.91-4.63,4.78-5.39,4.43c-0.5-0.24-0.74-0.73-0.37-1.18c1.3-1.59,2.96-2.77,4.71-3.82
		C84.52,38.16,84.89,38.53,85.05,39.04z"/>
	<path class="st29" d="M52.11,97.49c0.2-1.01,0.43-2.25,0.7-3.47c0.11-0.49,0.42-0.94,0.98-0.83c0.55,0.1,0.72,0.62,0.67,1.13
		c-0.13,1.25-0.27,2.5-0.49,3.73c-0.13,0.71-0.1,1.89-1.02,1.81C51.67,99.76,52.32,98.5,52.11,97.49z"/>
	<path class="st29" d="M61.46,69.22c-0.59-0.04-0.92-0.44-0.94-0.92c-0.02-0.45,0.09-0.98,0.33-1.36c0.7-1.08,0.71-2.68,2.17-3.16
		c0.42-0.14,0.94,0.43,0.92,0.9c-0.04,1.7-1.08,3-1.99,4.33C61.86,69.15,61.61,69.16,61.46,69.22z"/>
	<path class="st29" d="M260.53,59.89c-0.42,1.09-0.99,0.83-1.43,0.45c-1.31-1.12-2.6-2.26-3.85-3.45c-0.41-0.39-0.78-0.96-0.23-1.49
		c0.4-0.39,0.9-0.18,1.31,0.1C258.09,56.69,259.48,58.21,260.53,59.89z"/>
	<path class="st29" d="M292.11,220.06c1.24-0.86,2.49-1.71,3.7-2.6c0.42-0.31,0.8-0.63,1.21-0.14c0.37,0.45,0.13,0.83-0.27,1.2
		C295.49,219.68,294.07,220.43,292.11,220.06z"/>
	<path class="st29" d="M54.12,87.29c0.27-1.22,0.51-2.46,0.81-3.67c0.13-0.52,0.14-1.32,0.94-1.17c0.79,0.15,0.99,0.81,0.79,1.58
		c-0.31,1.22-0.57,2.44-0.91,3.65c-0.15,0.54-0.34,1.32-0.99,1.22C53.92,88.79,53.94,87.99,54.12,87.29z"/>
	<path class="st29" d="M87.33,283.15c0.9,0,1.17,0.74,1.33,1.33c0.41,1.52,2.03,2.67,1.41,4.48c-0.06,0.18-0.6,0.39-0.73,0.31
		c-1.51-0.97-1.66-2.72-2.32-4.18C86.7,284.41,86.27,283.63,87.33,283.15z"/>
	<path class="st29" d="M106.09,301.96c-0.15,0.21-0.31,0.61-0.59,0.74c-0.84,0.39-5.36-1.99-5.46-2.84c-0.04-0.4,0.2-0.92,0.56-0.79
		c1.79,0.67,3.53,1.44,5.28,2.21C106,301.32,106,301.62,106.09,301.96z"/>
	<path class="st29" d="M227.09,35.9c1.67,0.61,3.47,1.32,4.96,2.64c0.3,0.27,0.48,0.63,0.26,1.02c-0.21,0.38-0.57,0.53-0.97,0.32
		c-1.64-0.83-3.29-1.67-4.91-2.53c-0.34-0.18-0.6-0.51-0.43-0.96C226.16,35.97,226.51,35.85,227.09,35.9z"/>
	<path class="st29" d="M40.31,208.3c0.6,0.1,3.26,4.68,3.05,5.31c-0.21,0.64-0.7,1.03-1.28,0.51c-1.48-1.33-2.15-3.13-2.63-5
		C39.32,208.61,39.69,208.23,40.31,208.3z"/>
	<path class="st29" d="M92.38,292.35c0.72-0.07,4.51,3.94,4.37,4.62c-0.09,0.46-0.41,0.72-0.8,0.53c-1.85-0.91-3.28-2.29-4.23-4.12
		C91.45,292.87,91.86,292.51,92.38,292.35z"/>
	<path class="st29" d="M84.13,274.35c-0.17-0.76,0.25-1.79,0.79-1.43c1.67,1.1,1.12,3.28,1.84,4.9c0.26,0.59,0.07,1.2-0.67,1.33
		C85.26,279.3,84.21,276.69,84.13,274.35z"/>
	<path class="st29" d="M68.52,54.73c0.75,0.1,1.09,0.59,0.74,1.21c-0.75,1.35-1.57,2.69-2.5,3.93c-0.51,0.68-1.24,0.53-1.61-0.25
		C64.88,59.05,67.88,54.78,68.52,54.73z"/>
	<path class="st29" d="M304.26,189.98c-0.53,1.02,0.6,2.93-0.95,2.92c-1.39-0.01-0.88-1.9-0.83-2.96c0.05-1.03-0.64-2.91,0.83-2.88
		C304.75,187.09,303.89,188.99,304.26,189.98z"/>
	<path class="st29" d="M116.75,303.19c-2.03,1.95-4.16,1.01-6.26,0.69c-0.2-0.03-0.34-0.4-0.51-0.62c0.37-0.28,0.77-0.81,1.12-0.78
		C112.99,302.64,114.87,302.94,116.75,303.19z"/>
	<path class="st29" d="M36.97,199.84c0-0.96-0.3-1.84,0.65-1.96c0.95-0.12,0.9,0.85,1.03,1.44c0.25,1.13,0.37,2.29,0.55,3.43
		c0.09,0.6,0.13,1.29-0.61,1.37c-0.7,0.08-0.89-0.61-1.01-1.18C37.34,201.81,37.13,200.67,36.97,199.84z"/>
	<path class="st29" d="M302.29,208.16c0.12,2.14-0.7,3.91-2.05,5.46c-0.26-0.1-0.52-0.2-0.77-0.29c0.68-1.81,1.35-3.61,2.03-5.42
		C301.76,208,302.02,208.08,302.29,208.16z"/>
	<path class="st29" d="M302.85,196.72c1.81,2.32,1.08,4.27,0.98,6.14c-0.02,0.41-0.31,0.73-0.76,0.7c-0.45-0.03-0.66-0.38-0.68-0.8
		C302.31,200.95,302.17,199.15,302.85,196.72z"/>
	<path class="st29" d="M284.1,223.64c-0.69-0.2-1.83,0.41-1.97-0.59c-0.18-1.27,1.11-0.95,1.85-1.14c0.37-0.09,0.78-0.21,1.13-0.13
		c1.09,0.26,2.89-1.35,3.13,0.39c0.2,1.44-2,0.79-3.03,1.33C284.9,223.67,284.46,223.6,284.1,223.64z"/>
	<path class="st29" d="M36.12,190.05c0.34-0.91-0.34-2.45,1.07-2.55c0.94-0.07,0.96,1.37,0.81,2.1c-0.23,1.13,0.52,3.12-0.82,3.24
		C35.76,192.96,36.72,190.97,36.12,190.05z"/>
	<path class="st29" d="M119.91,303.66c2.03-0.96,3.41-1.2,4.83-1.19c0.51,0,1,0.17,1.03,0.76c0.03,0.59-0.48,0.75-0.96,0.84
		C123.43,304.34,122.05,304.46,119.91,303.66z"/>
	<path class="st29" d="M46.1,217.25c1.35,0.99,2.7,1.99,4.44,3.27c-2.7,0.27-3.73-1.27-4.97-2.46
		C45.75,217.79,45.92,217.52,46.1,217.25z"/>
	<path class="st29" d="M302.87,180.08c0.22-0.92-0.02-2.31,1.27-2.53c0.98-0.16,0.76,0.96,0.6,1.51c-0.3,1.01,0.42,2.63-1.05,2.92
		C302.8,182.15,302.92,180.9,302.87,180.08z"/>
	<path class="st29" d="M106.85,28.95c0.46,0.27,0.46,0.69,0.35,1.14c-1.44-0.11-2.79,0.81-4.48,0.41
		C103.92,29.17,105.54,29.45,106.85,28.95z"/>
	<path class="st29" d="M135.23,20.16c-0.16,0.29-0.29,0.81-0.47,0.83c-0.64,0.07-0.55-0.5-0.59-0.91
		C134.54,19.85,134.9,19.88,135.23,20.16z"/>
	<path class="st3" d="M481.75,237.6c0.82-0.08,1.26,0.48,1.6,1.06c1.8,3.07,4.24,5.57,6.97,7.79c2.15,1.75,2.58,3.65,0.92,6.07
		c-8.19,11.92-18.11,22.07-30.26,30c-1.54,1-2.35,0.34-3.15-0.71c-1.94-2.56-3.8-5.17-5.71-7.75c-1.1-1.49-2.29-2.9-3.87-3.93
		c-2.4-1.58-3.82-1.38-5.27,1.12c-1.02,1.75-1.85,3.65-2.49,5.58c-1.03,3.11-2.26,6-5.16,7.99c3.18-0.57,6.19-1.59,8.44-3.85
		c2.1-2.11,3.8-2.13,5.99-0.28c1.85,1.56,3.84,2.96,5.97,4.18c2.1,1.2,3.94,1.11,6.04,0.01c8.85-4.65,15.9-11.47,22.46-18.8
		c3.36-3.76,6.7-7.6,9.2-12.03c0.69-1.22,1.44-1.01,2.4-0.55c6.48,3.09,12.96,6.18,19.46,9.24c1.38,0.65,2.81,1.19,4.22,1.79
		c11.26,4.81,17.56,13.72,20.88,25.14c1.96,6.76,2.74,13.72,3.82,20.63c0.17,1.07-0.35,1.89-0.77,2.75
		c-5.58,11.33-12.94,21.48-20.68,31.39c-0.75,0.96-1.55,1.18-2.76,1.12c-8.41-0.47-16.69,0.02-24.55,3.5
		c-0.71,0.31-1.55,1.28-2.35,0.37c-0.79-0.91-0.03-1.88,0.42-2.69c4.81-8.56,10.81-16.15,18.36-22.47c0.59-0.49,1.19-0.97,1.91-1.57
		c-2.35,0.08-6.15,2.36-11.11,6.28c-3.43,2.71-6.38,5.9-9.68,9.25c-1.05-5.15-0.51-9.97-0.22-14.74c0.59-9.45,2.21-18.74,5.56-27.64
		c3.78-10.05,9.63-18.23,21.28-21.84c-8.58,1.21-16.78,7.38-21.58,15.76c-5.73,10.01-8.66,20.88-9.83,32.28
		c-0.45,4.32-0.81,8.65-1.27,13.53c-8.76-7.36-9.24-17.42-10.72-27.1c-0.19,8.14-0.5,16.25,2.47,24.05c0.99,2.59,2.3,4.97,4.03,7.07
		c1.39,1.69,1.58,3.39,1.23,5.43c-0.92,5.38-2.4,10.62-3.75,15.89c-0.3,1.18-0.85,1.82-2.01,2.2c-12.38,4.01-24.94,6.86-38.06,6.57
		c-1.88-0.04-3.4-0.8-4.88-1.71c-8.24-5.09-17.31-8.38-26.17-12.14c-0.89-0.38-1.89-0.61-2.68-1.15
		c-5.08-3.41-10.37-4.08-16.06-1.64c-0.86,0.37-2.32,1.26-2.61-0.87c-1.33-9.92-4.06-19.61-4.92-29.62
		c-1.25-14.72,0.53-29.11,4.42-43.29c0.1-0.36,0.16-0.73,0.06-1.15c-3.75,5.24-4.21,11.76-6.75,17.53c-0.95-4.3-0.48-8.54-0.1-12.83
		c-1.74,2.67-2.16,5.72-2.64,8.71c-0.85,5.32-0.94,10.63,0.68,15.88c0.76,2.48,0.01,5.03-0.04,7.55c-0.09,3.87-0.02,7.74-0.02,11.72
		c-2.29-0.48-3.88-1.85-5.69-2.74c-5.66-2.81-11.57-4.51-17.91-4.73c-3.3-0.11-3.46-0.38-1.75-2.98c8-12.13,14.27-25.22,21.07-38.02
		c2.14-4.03,4.74-7.81,7.17-11.68c2.84-4.54,7.36-6.55,12.28-7.7c7.26-1.71,14.68-2.67,22.33-5.12c-1.52,5.15-3.48,9.54-5.75,13.78
		c-1.19,2.22-2.54,4.37-4.03,6.4c-1.31,1.8-0.53,2.26,1.18,2.55c2.49,0.42,4.83,0.03,7.05-1.16c1.19-0.64,2.39-1.26,4.12-2.16
		c-0.62,3.6,1.51,5.46,3.64,7.5c1.9,1.82,2.51,4.01,0.39,6.43c-3.37,3.83-4,8.79-4.92,13.54c-0.47,2.42-2.34,5.46-0.71,7.16
		c1.3,1.36,4.56,0.86,6.96,1.16c2.93,0.36,5.52-0.39,7.92-2.58c-3.79,0.22-7.3,0.46-10.81,0.61c-1.81,0.07-2.44-0.55-1.97-2.63
		c1.72-7.66,3.83-15.06,9.46-20.97c1.8-1.89,3.23-4.15,4.64-6.37c4.33-6.8,10.15-11.42,17.82-14.25
		c9.59-3.54,18.37-8.74,26.02-15.63c2.8-2.52,5.13-5.36,4.81-9.5L481.75,237.6z M427.62,291.42c-2.29,0.1-3.37,1.6-3.47,3.55
		c-0.1,1.86,1.22,3.1,3.07,3.2c2.16,0.11,3.51-1.3,3.63-3.31C430.95,292.87,429.56,291.76,427.62,291.42z M439.01,344.08
		c6.26,4.7,13.21,8.05,20.74,10.19C452.88,350.81,445.95,347.46,439.01,344.08z M388.04,276.76l-0.04-0.19l-0.04,0.19L388.04,276.76
		z"/>
	<path class="st30" d="M250.93,312.12c22.15,1.39,44.31,2.8,66.47,4.14c4.28,0.26,6.84,2.3,8.56,6.26
		c8.89,20.5,17.96,40.91,26.95,61.37c0.7,1.6,1.34,3.24,1.88,4.9c1.51,4.7-0.65,7.76-5.58,7.56c-5.05-0.21-10.1-0.7-15.13-1.22
		c-21.98-2.24-43.94-4.59-65.92-6.76c-4.22-0.42-7.09-2.26-8.92-6c-3.03-6.2-6.19-12.33-9.17-18.56
		c-4.67-9.78-9.25-19.59-13.81-29.42c-2.5-5.4-4.95-10.83-7.28-16.31c-1.95-4.59-1.02-6.06,3.86-6.42
		C238.88,311.22,244.9,311.92,250.93,312.12z M280.64,349.43c-0.01,4.58,3.46,8.7,8.36,9.91c3.12,0.77,6.14-0.03,7.5-2.38
		c1.43-2.47,1.4-5.13-0.17-7.6c-2.1-3.3-5.13-5.17-9.03-5.69C283.12,343.12,280.66,345.2,280.64,349.43z"/>
	<path class="st30" d="M443.34,157.67c-0.49,1.21-0.05,1.51,1.18,1.41c3.27-0.25,6.58-0.16,10.06-1.86
		c-1.21,5.96-0.49,11.11,2.33,16.12c1.25-1.01,0.75-2.96,2.55-3.62c0.68,5.25,2,10.25,3.85,15.13c0.63,1.66,0.15,3.44-0.04,5.25
		c3.09,0.35,5.23-0.2,6.33-3.71c1.25-3.95,4.17-6.78,8.28-8c3.89-1.16,6.66,0.35,8.04,4.16c2.36,6.53,0.18,14.9-5.01,19.52
		c-2.3,2.04-4.93,3.47-7.96,2.77c-3.55-0.82-5.12,0.63-5.77,3.84c0.1,0.07,0.26,0.28,0.36,0.26c3.79-1.1,3.86-1.1,3.66,2.84
		c-0.51,10.3,0.83,20.21,6.05,29.3c0.88,1.53-0.09,2.14-0.86,2.93c-5.25,5.35-11.66,9.05-18.18,12.54
		c-4.71,2.52-9.57,4.77-14.69,6.37c-2.49,0.78-4.54,2.23-6.2,4.2c-1.75,2.07-3.42,4.21-5.13,6.32c-4.59-5.87-5.24-14.01-1.34-18.42
		c0.99,2.17,1.27,4.43,1.51,7.59c1.93-3.77,2.11-6.98,1.89-10.25c-0.15-2.14-1.05-4.51-0.39-6.33c0.76-2.12,3.7-1.16,5.6-1.89
		c3.83-1.47,7-3.79,9.81-6.67c4.44-4.55,7.93-9.83,11.32-15.18c0.37-0.59,1.07-1.22,0.56-2.17c-1.28,0.14-1.85,1.27-2.69,1.97
		c-8.61,7.2-17.92,13.1-29.17,15.11c-6.4,1.14-9.27-0.49-12.23-6.26c-1.96-3.81-4.17-7.48-6.58-11.01
		c-4.77-6.98-6.84-14.54-5.08-22.96c0.37-1.77,0.59-3.58,1.02-6.3c0.8,2.95,1.7,4.45,4.28,4.42c3.13-0.04,2.71-3.24,4.37-4.6
		c0.46-0.37-1.3-1.91-2.36-2.56c-2.69-1.65-5.16-1.29-7.31,1.1c-0.25-0.27-0.51-0.45-0.62-0.69c-2.34-5.13-1.6-6.34,4.12-6.81
		c0.48-0.04,1.05,0.11,1.44-0.1c0.86-0.46,2.66,1.07,2.63-1.06c-0.02-1.62-0.99-2.72-2.75-2.83c-2.46-0.15-4.8,0.61-7.43,1.22
		c-0.08-4.81,0.65-9.28,2.73-13.41c1.33-2.64,3.95-3.68,6.73-4.1c4.2-0.64,8.49-0.62,12.67-1.79c-2.34,2.42-5.69,2.8-8.48,4.49
		c4.13,1.05,8.2,0.68,12.28-0.37c3.91-1.01,7.34-3.03,10.83-4.97c1.07-0.59,2.14-1.36,3.48-1.29
		C443.13,157.42,443.24,157.54,443.34,157.67z M440.58,186.92c1.91,0.58,3.77,1.89,6.24,0.38c-2.63-1.18-4.84-2.36-7.18-3.18
		c-4.76-1.65-8.24-0.09-9.92,4.23c-0.07,0.19,0.08,0.47,0.16,0.84c0.81-0.52,1.5-0.96,2.34-1.49c0.53,2.7,1.63,4.83,4.49,4.58
		c2.77-0.25,3.41-2.48,3.49-4.89C440.32,187.23,440.45,187.07,440.58,186.92z M447.94,178.48c0.02,0.13,0.04,0.27,0.07,0.4
		c0.1-0.05,0.2-0.1,0.29-0.15c-0.14-0.07-0.28-0.13-0.42-0.2c-4.98-6.01-15.03-7.69-21.44-3.62c-1.07,0.68-1.4,1.52-0.97,2.71
		c0.41,1.15,1.11,1.84,2.4,1.56c0.94-0.2,1.88-0.49,2.8-0.79c5.4-1.74,10.79-2.48,16.18,0.04
		C447.14,178.59,447.57,178.48,447.94,178.48z M440.04,208.89c1.7,1.76,0.24,2.33-0.92,2.87c-1.58,0.74-3.16,1.51-4.82,2.01
		c-6.07,1.84-12.28,2.83-18.65,2.65c-0.66-0.02-1.45-0.3-1.59,0.7c-0.1,0.71,0.37,0.99,1.04,1.09c1.49,0.24,2.23,1.49,3.09,2.51
		c1.69,2,3.8,2.85,6.4,2.84c7.17-0.02,11.92-3.96,15.74-9.49c0.49-0.71,1.02-1.97,1.55-1.98c2.89-0.04,0.87-1.54,0.5-1.95
		C441.82,209.52,440.84,209.29,440.04,208.89z M472.95,197.61c5.68-0.49,7.43-3.95,4.91-8.34c-0.5-0.86-2.02-1.58-0.63-2.9
		c0.91-0.87,1.74-1.78,3.08-2.07c1.3-0.28,1.82,1.19,3.03,1.4c-0.87-3.2-2.36-4.25-4.63-3.42c-2.94,1.07-6.14,5.87-4.77,7.73
		C475.99,192.78,475.51,194.98,472.95,197.61z M416.88,187.18c0.53,5.27-0.91,10.13-3.14,14.81c-0.83,1.73-2.2,3.41-0.68,5.35
		c1.49,1.9,3.58,2.31,5.9,2.08c0-0.94-0.71-1.03-1.14-1.35c-3.49-2.6-3.5-2.59-1.67-6.41c0.21-0.44,0.47-0.86,0.6-1.32
		C417.97,195.97,419.06,191.59,416.88,187.18z M422.4,206.83c1.97,0.01,3.97,1.43,6.51,0.03
		C426.39,206.47,424.43,205.59,422.4,206.83z"/>
	<path class="st30" d="M437.42,391.51c0.71-0.46,1.24-0.8,1.79-1.16c-0.22-0.21-0.35-0.42-0.46-0.41c-1.06,0.08-2.2-0.02-3.17,0.33
		c-6.8,2.39-12.81,0.46-18.53-3.21c-0.57-0.37-1.07-0.97-1.79-0.78c-4,1.02-8.3,1.06-11.89,3.46c-3.42,2.29-6.82,4.57-11.17,4.44
		c-1.26-0.04-2.78,0.2-3.3-1.52c-0.6-1.96,1.13-2.29,2.21-2.83c2.09-1.04,4.15-2.07,5.79-3.77c3.06-3.16,7.03-4.78,10.93-6.54
		c1.9-0.86,3.88-1.65,5.31-3.71c-2.27-0.77-4.18-0.38-6.04,0.51c-1.93,0.92-3.81,1.95-5.79,2.73c-2.6,1.02-4.78,2.35-6.2,4.95
		c-1.63,3-5.06,3.71-7.77,5.71c-0.84-2.27,0.74-3.88,0.94-5.72c0.25-2.29,1.17-4.5,1.68-6.77c0.43-1.9,2.14-2.15,3.47-2.75
		c3.96-1.79,8.03-3.37,11.59-6.57c-1.51-0.68-2.64-0.1-3.71,0.34c-1.8,0.73-3.49,1.78-5.33,2.34c-5.66,1.72-9.97,4.8-12.37,10.47
		c-1.11,2.62-3.19,4.66-6.4,4.84c-1.91,0.11-2.9-1.07-2.03-2.65c2.54-4.63,5.01-9.28,6.99-14.18c0.62-1.55,2.14-1.86,3.44-2.46
		c3.74-1.73,8.09-2.25,11.41-5.83c-5.63,1.05-10.53,3.14-15.61,4.54c-1.16,0.32-1.52,1.68-2.11,2.69c-1.9,3.25-3.32,6.84-6.48,9.22
		c-0.71,0.53-1.32,1.13-2.27,1.15c-1.07,0.02-2.39,0.24-2.9-0.85c-0.56-1.2,0.39-2.49,1.3-2.91c1.16-0.53,1.27-1.2,1.55-2.25
		c1.08-4.05,2.97-7.8,4.71-11.59c0.6-1.31,1.85-1.65,3.09-1.94c5.67-1.34,11.36-2.62,17.02-4.03c1.73-0.43,3.2-0.19,4.76,0.57
		c12.05,5.86,24.74,10.38,36.3,17.28c0.73,0.43,1.62,0.78,2.45,0.82c17.83,0.69,35.56-0.31,53.22-2.87c2.29-0.33,4.63-0.31,7.86-0.5
		c-2.65,2.56-4.7,4.67-6.88,6.64c-8.88,8.03-18.19,15.55-27.77,22.73c-0.97,0.73-1.84,0.82-2.96,0.61
		C453.65,398.41,445.64,394.94,437.42,391.51z"/>
	<path class="st30" d="M380.16,343.42c0.51,4.49-1.48,8.13-3.89,11.64c-0.99,1.44-2.2,2.1-3.98,1.41c-0.71-0.27-1.52-0.36-2.29-0.4
		c-2.12-0.11-3.81-0.4-4.42-3.06c-0.45-1.98-2.53-2.94-4.36-3.58c-4.89-1.73-9-5.06-13.9-6.72c-1.15-0.39-0.87-0.91-0.51-1.7
		c1.74-3.92,3.71-7.7,6.27-11.17c1.04-1.41,2.42-2.2,4.06-2.66c8.02-2.27,14.94,0.2,21.36,4.91c0.73,0.54,0.87,1.22,0.93,2.02
		C379.65,337.21,379.91,340.31,380.16,343.42z"/>
	<path class="st30" d="M351.63,399.21c0.15-0.09,0.21-0.13,0.28-0.17c3.78-2.36,7.56-1.52,11.69-0.74
		c5.04,0.95,10.19-0.82,15.3-1.38c3.72-0.41,7.31-1.45,11.19-0.42c3.15,0.84,6.44-0.04,9.33-1.55c4.81-2.51,10.21-2.22,15.27-3.48
		c1.15-0.29,2.26,0.27,2.78,1.2c0.59,1.04-0.56,1.7-1.15,2.4c-0.74,0.87-1.81,1.11-2.88,1.27c-15.14,2.37-30.27,4.74-45.41,7.07
		C362.02,404.32,356.46,403.25,351.63,399.21z"/>
	<path class="st30" d="M517.89,350.41c-4.68,6.1-9.67,11.24-14.81,16.22c-1.47,1.42-3.74,0.45-5.63,0.44
		c-5.05-0.02-5.05-0.08-4.47-5.13c0.09-0.77,0.43-1.57,0.33-2.3c-0.69-4.92,2.23-6.57,6.34-7.61
		C505.47,350.56,511.3,349.87,517.89,350.41z"/>
	<path class="st3" d="M410.47,272.62c4.3-7.18,6.73-15.22,10.42-22.69c1.8-3.64,3.7-5.43,7.79-7.2c0.49,0.9,0.58,1.9-0.03,2.66
		c-4.65,5.83-3.88,12.53-3.15,19.21c0.4,3.69,1.68,7.19,3.13,10.57c0.83,1.94,0.17,3.28-0.89,4.75c-0.61,0.85-1,1.02-1.69,0.07
		c-1.09-1.5-2.45-2.75-3.96-3.84c-0.91-0.66-1.14-1.43-0.77-2.53c0.4-1.19,0.58-2.45,0.89-3.67c0.29-1.19,0.43-2.3-0.89-3.03
		c-1.28-0.71-2.46-0.49-3.51,0.39c-1.41,1.19-2.7,2.51-4.12,3.69c-0.93,0.77-1.7,1.95-3.2,1.67L410.47,272.62z"/>
	<path class="st30" d="M342.59,352.86c-1.42-1.82-2.25-3.67-2.95-5.59c-0.32-0.86-1.13-1.92-0.45-2.62
		c0.72-0.75,2.02-0.61,3.05-0.26c2.94,0.99,5.94,1.87,8.78,3.1c3.19,1.39,6.23,3.13,9.34,4.72c2.65,1.35,3.54,3.47,2.76,6.3
		c-1.42,5.17-3.8,9.97-6,14.83c-0.4,0.89-1.43,4.05-3.01,0.49c-1.94,1.2-2.47,0.03-2.57-1.61c-0.09-1.45-0.19-2.91,0.28-4.34
		c1.06-3.23,2.16-6.45,3.11-9.71c1.39-4.77-2.56-9.02-7.52-8.16C345.48,350.35,343.74,351.05,342.59,352.86z"/>
	<path class="st30" d="M353.77,378.25c3.06-0.58,6.17-0.67,9.09,0.25c3.15,0.99,5.98,2.98,9.55,2.44c0.77-0.12,0.62,0.76,0.55,1.33
		c-0.54,4.27-0.54,4.25-4.9,3.37c-2.47-0.5-4.94-1.27-7.42-1.32C356.59,384.24,354.07,382.76,353.77,378.25z"/>
	<path class="st30" d="M348.76,367c-2.02-3.17-3.26-6.07-4.41-9c-0.71-1.83,1.13-6.09,2.84-6.83c1.9-0.83,3.59-0.34,4.96,1.23
		c1.33,1.51,1.17,3.13,0.52,4.89C351.51,360.41,349.21,363.02,348.76,367z"/>
	<path class="st30" d="M359.36,375.34c0.55-1.48,0.99-2.66,1.43-3.84c1.54-4.09,1.53-3.97,5.78-3.7c2.16,0.13,2.56,0.86,1.6,2.63
		c-0.88,1.62-1.86,3.19-2.66,4.85c-0.61,1.27-1.61,0.87-2.51,0.76C361.86,375.91,360.72,375.61,359.36,375.34z"/>
	<path class="st30" d="M367.21,366.63c-0.88-0.66-3.27,0.77-3.18-1.85c0.11-2.98,2.2-6.22,3.73-5.89c1.47,0.33,3.95-0.51,4.09,1.86
		C372.05,364.18,369.86,366.73,367.21,366.63z"/>
	<path class="st30" d="M385.5,392.74c-8.83,1.08-17.47,4.87-26.58,1.82C367.84,394.79,376.58,392.55,385.5,392.74z"/>
	<path class="st30" d="M357.05,386.36c5.12,0.87,10.26,1.68,15.37,2.63c4.27,0.79,8.42,1.16,11.97-2.39
		c0.05,2.71-1.13,3.13-3.45,3.46c-8.34,1.19-16.03-1.66-23.98-2.91C356.99,386.89,357.02,386.62,357.05,386.36z"/>
	<path class="st29" d="M358.2,390.73c2.11-0.31,4.13-0.08,6.42,0.87C362.09,392.26,360.2,391.07,358.2,390.73z"/>
	<path class="st30" d="M443.02,157.3c0.28-0.36,0.81-0.43,0.95-0.16c0.22,0.45-0.33,0.43-0.62,0.52
		C443.24,157.54,443.13,157.42,443.02,157.3z"/>
	<path class="st30" d="M395.68,162.57c0.23-0.37,0.65-0.49,0.93-0.27c0.44,0.35-0.12,0.55-0.26,0.81
		C396.13,162.92,395.9,162.74,395.68,162.57z"/>
	<path class="st30" d="M399.08,171.15c0.23-0.04,0.45-0.07,0.68-0.11c-0.05,0.24-0.1,0.48-0.15,0.71
		C399.44,171.56,399.26,171.35,399.08,171.15z"/>
	<path class="st29" d="M410.51,272.65c-0.07,0.13-0.14,0.25-0.21,0.38c-0.46-0.35,0-0.32,0.17-0.41
		C410.47,272.62,410.51,272.65,410.51,272.65z"/>
	<polygon class="st29" points="481.78,237.57 481.66,237.42 481.75,237.6 	"/>
	<path class="st30" d="M156.17,56.14c-8.49-2.73-13.41-8.5-14.77-17.31c-0.05-1.27-0.09-2.55-0.14-3.82
		c0.86-8.2,5.02-13.99,12.62-17.25c6.11-1.67,12.06-1.57,17.75,1.54c6.92,3.78,10.87,13.88,8.83,22.62
		c-1.84,7.86-9.38,14.22-17.32,14.47C160.82,56.47,158.49,56.24,156.17,56.14z M157.38,45.22c0.67,0.07,0.98-0.32,1.22-0.74
		c3.05-5.19,6.09-10.38,9.11-15.58c0.74-1.28-0.43-1.69-1.19-2.21c-0.65-0.44-1.35-0.89-1.94,0.15c-2.88,5.06-5.82,10.08-8.64,15.17
		C155.05,43.6,156.25,44.48,157.38,45.22z M149.44,36.18c1.28-1.03,2.34-1.86,3.38-2.73c0.65-0.54,0.63-1.17,0.13-1.79
		c-0.56-0.7-1.02-0.12-1.47,0.18c-1.55,1-3.12,1.98-4.64,3.03c-1.03,0.71-1.53,1.61-0.32,2.58c1.67,1.34,3.4,2.59,5.1,3.9
		c0.79,0.61,1.41,0.42,1.98-0.32c0.59-0.77,0.11-1.25-0.44-1.71C151.97,38.3,150.77,37.31,149.44,36.18z M173.93,36.21
		c-1.37,1.16-2.56,2.16-3.73,3.16c-0.53,0.45-0.52,1.03-0.21,1.56c0.28,0.49,0.71,0.58,1.18,0.18c2.06-1.74,5.94-2.35,6.15-4.83
		c0.18-2.07-3.53-3.1-5.5-4.6c-0.08-0.06-0.16-0.11-0.24-0.16c-0.51-0.28-1.03-0.62-1.54-0.02c-0.56,0.66-0.34,1.29,0.23,1.77
		C171.38,34.2,172.53,35.08,173.93,36.21z"/>
	<path class="st30" d="M303.11,117.32c-0.2,16.85-13.21,29.44-30.18,29.22c-16.89-0.23-30.22-13.68-30.08-30.37
		c0.14-16.35,13.98-29.57,30.77-29.37C290.24,86.98,303.31,100.51,303.11,117.32z M281.9,110.17c2.25-1.46,4.38-3.08,5.93-5.3
		c0.42-0.6,1.75-1.25,0.84-2.1c-0.88-0.82-2-0.26-2.78,0.58c-1.56,1.68-3.38,3.13-4.56,5.15c-3.44-2.9-7.34-4.1-11.85-3.57
		c-3.24,0.38-6.33,2.44-6.73,4.79c-0.6,3.49-2.89,4.28-5.07,5.64c-0.93,0.58-1.67,1.11-1.7,2.31c1.53,0.21,2.78-0.61,4.12-1
		c0.61-0.18,1.47-0.67,1.54,0.46c0.16,2.51,1.32,5.14-1.16,7.33c-1.89,1.66-3.57,3.57-5.31,5.4c-0.54,0.56-1.12,1.24-0.37,2.02
		c0.75,0.78,1.21-0.16,1.71-0.45c1.79-1.06,2.98-2.77,4.41-4.22c0.74-0.76,1.25-1.17,2.21,0.05c4.59,5.84,13.32,5.87,17.99,0.05
		c0.97-1.21,1.44-0.8,2.22-0.04c1.46,1.43,2.94,2.83,4.43,4.23c0.48,0.45,0.92,1.03,1.65,0.25c0.6-0.65,0.85-1.1,0.19-1.96
		c-1.07-1.39-2.07-2.9-3.56-3.78c-4-2.38-3.62-5.82-2.82-9.53c1.79-0.06,3.32,2.37,4.95,0.33c0.13-0.5-0.21-0.55-0.41-0.74
		C285.8,114.12,282.28,113.7,281.9,110.17z M270.81,95.58c-2.44,0-4.83,3.33-4.38,6.12c0.12,0.77,0.28,1.63,1.1,1.94
		c0.91,0.34,1.5-0.38,1.87-1.02c1.03-1.79,2.17-1.56,3.49-0.4c0.36,0.32,0.79,0.58,1.22,0.79c0.85,0.42,1.76,1.2,2.67,0.42
		c0.88-0.75,0.88-1.86,0.61-2.97C276.8,98,273.56,95.57,270.81,95.58z"/>
	<path class="st29" d="M321.64,165.22c0.41,3.01-2.7,5.52-5.72,6.89c-2.52,1.15-4.18-0.38-5.63-2.32
		c-4.43-5.89-8.93-11.73-13.37-17.62c-2.13-2.82-1.98-3.83,0.82-6.05c0.76-0.6,1.61-1.09,2.38-1.67c4.84-3.65,4.83-3.66,8.56,1.29
		c4.02,5.35,8.08,10.68,11.72,16.3C321.06,163.11,322.04,164.07,321.64,165.22z"/>
	<path class="st29" d="M233.89,164.92c0.13-1.33,0.97-2.29,1.72-3.3c3.64-4.89,7.27-9.79,10.91-14.68c0.17-0.23,0.27-0.66,0.47-0.71
		c2.89-0.74,4.14,2.32,6.51,2.88c1.18,0.28,1.36,1.33,0.71,2.32c-4.09,6.11-8.12,12.26-12.74,18c-0.28,0.35-0.72,0.71-1.14,0.8
		C238.2,170.68,233.83,167.04,233.89,164.92z"/>
	<path class="st30" d="M191.49,125.29c0.43,15.82-12.64,30.32-30.06,30.47c-16.44,0.14-30.26-13.12-30.47-29.39
		c-0.22-16.73,13.38-30.8,29.95-31C177.54,95.17,191.24,108.57,191.49,125.29z M161.53,107.06c-2.65-0.73-2.44,1.88-3.3,3.04
		c-1.08,1.46-0.43,2.51,1.52,2.41c0.1,1.16,0.34,2.32,0.27,3.47c-0.16,3,0.69,6.03-1.24,8.96c-1.06,1.62-0.06,3.4,2.24,3.74
		c1.23,0.52,2.08-0.09,2.83-0.97c4.27-0.03,8.53-0.07,12.8-0.1c1.01,0.51,1.92,0.26,1.88-0.87c-0.05-1.35-0.93-2.06-2.39-1.41
		c-4.1-0.1-8.19-0.2-12.29-0.3c0.03-0.36-0.16-0.41-0.45-0.33c-2.05-3.95-1.09-8.1-0.77-12.2c0.88,0,1.89,0.03,1.9-1.16
		c0.01-1.04-0.23-2.12-1.57-2.34C162.49,108.35,162.01,107.71,161.53,107.06z M140.71,126.7c-2.23-2.02-4.4-1.02-6.37-1.21
		c-0.46-0.05-1.08,0.03-1.14,0.62c-0.08,0.82,0.67,0.85,1.2,0.87C136.3,127.09,138.21,127.27,140.71,126.7z M185.77,127.01
		c0.85-0.38,2.9,0.7,2.88-0.85c-0.01-1.24-2.09-0.52-3.24-0.71c-0.46-0.08-0.95-0.02-1.43,0.02c-0.55,0.05-1.29,0.04-1.22,0.82
		c0.07,0.73,0.79,0.7,1.36,0.72C184.6,127.02,185.08,127.01,185.77,127.01z M161.21,103.58c1.17-1.79,0.87-3.55,0.38-5.31
		c-0.02-0.08-0.69-0.12-0.75-0.02c-0.76,1.47-0.32,3.03-0.26,4.56C160.59,103.03,160.92,103.23,161.21,103.58z M161.31,153.09
		c1.05-2.39,0.92-3.7-0.49-5.05C160.27,151.32,160.27,151.35,161.31,153.09z M142.45,137.77c-1.9,0.43-2.83,1.09-3.93,2.61
		C140.3,139.87,141.5,139.64,142.45,137.77z M180.69,113.83c1.2-0.27,2.43-0.52,3-2.11C181.81,112.44,181.81,112.44,180.69,113.83z"
		/>
	<path class="st30" d="M154.19,240.03c-0.66-8.33-0.21-16.49,2.98-24.35c0.58-1.43,1.22-2.1,2.85-2.26
		c6.42-0.62,12.83-0.16,19.24-0.03c1.57,0.03,1.91,1.01,2.36,2.1c2.55,6.2,3.9,12.65,3.66,19.34c-0.24,6.6-0.86,13.19-1.22,19.79
		c-0.1,1.77-0.63,2.47-2.46,1.89c-0.81-0.25-1.73-0.17-2.61-0.22c-6.38-0.38-6.36-0.37-6.11-6.92c0.06-1.65,0.09-3.31-0.1-4.95
		c-0.21-1.78-1.35-2.78-3.2-2.69c-1.82,0.09-3.32,0.82-3.41,2.86c-0.13,3.01-0.17,6.03-0.05,9.03c0.07,1.68-0.27,2.44-2.16,2.44
		c-2.02,0.01-4.08,0.29-6.06,0.75c-1.86,0.43-2.39-0.26-2.51-1.96C155.04,249.91,154.6,244.97,154.19,240.03z M162.61,225.26
		c0.04,3.52,3.24,6.36,7.05,6.27c3.67-0.09,7.16-3.49,7.04-6.86c-0.11-3.2-3.44-5.91-7.19-5.85
		C165.61,218.88,162.58,221.71,162.61,225.26z"/>
	<path class="st29" d="M197.12,271.3c-2.74-2.27-5.02-4.16-7.31-6.03c-0.75-0.62-1.45-1.5-2.32-1.74c-3.3-0.89-3.01-3.34-2.38-5.62
		c1.16-4.15,1.23-8.41,1.7-13.14c3.33,2.44,6.48,4.73,9.61,7.05c0.47,0.35,0.73,0.88,0.77,1.51
		C197.55,259.11,197.31,264.88,197.12,271.3z"/>
	<path class="st29" d="M152.39,245.43c1.18,5.2,0.4,10.26,1.93,15.05c0.32,0.99-0.1,1.67-0.83,2.28c-2.91,2.43-5.79,4.88-8.71,7.29
		c-0.42,0.34-0.92,0.89-1.53,0.53c-0.59-0.35-0.34-1.04-0.34-1.59c-0.02-5.15-0.02-10.29-0.06-15.44c0-0.76,0.31-1.15,0.93-1.61
		C146.67,249.84,149.47,247.65,152.39,245.43z"/>
	<path class="st30" d="M158.92,211.48c1.25-3.25,3.25-5.64,4.68-8.35c0.24-0.45,0.68-0.62,1.22-0.61c0.48,0.01,0.97-0.08,1.45-0.1
		c10.08-0.45,8.42-2.25,13.48,8.97C172.81,211.21,166.01,211.05,158.92,211.48z"/>
	<path class="st30" d="M21.83,143.46c0-10.12,0.07-20.24-0.04-30.36c-0.03-2.7,0.71-3.71,3.61-3.67c15.18,0.17,30.36,0.19,45.54,0.1
		c2.77-0.02,3.68,0.73,3.67,3.6c-0.12,20.43-0.09,40.87-0.06,61.31c0,2.38-0.8,3.54-3.37,3.51c-8.17-0.09-16.33-0.04-24.5-0.03
		c-2.4,0-4.85,0.45-7.15,0.39c-5.18-0.14-10.36-0.36-15.54-0.43c-2.14-0.03-2.14-1.82-2.14-3.46c0.02-10.32,0.01-20.63,0.01-30.95
		C21.84,143.46,21.83,143.46,21.83,143.46z M55.77,117.41c0-0.03,0-0.05,0-0.08c-3.58,0-7.17-0.01-10.75,0.01
		c-0.98,0.01-2.15,0.1-2.15,1.37c0,1.03,0.97,1.32,1.93,1.32c7.17,0.02,14.34,0.06,21.5,0.06c0.99,0,2.16-0.15,2.16-1.4
		c0-1.39-1.39-1.22-2.24-1.24C62.74,117.35,59.25,117.41,55.77,117.41z M54.59,123.68c0,0.04,0,0.08,0,0.12
		c-3.11,0-6.22,0.01-9.33-0.01c-1.02,0-2.21,0.04-2.24,1.26c-0.03,1.06,1.17,1.2,2.02,1.21c6.41,0.04,12.83,0.03,19.24,0.04
		c1.05,0,2.08-0.21,1.98-1.53c-0.09-1.21-1.19-1.08-2.04-1.09C61.01,123.67,57.8,123.68,54.59,123.68z M55.54,164.92
		c0-0.04,0-0.08,0-0.13c-3.68,0-7.37,0.01-11.05-0.01c-0.87,0-1.62,0.2-1.64,1.19c-0.03,1,0.75,1.3,1.59,1.3
		c7.29,0.05,14.58,0.08,21.87,0.11c0.99,0,1.81-0.42,1.77-1.49c-0.04-1.08-1.05-0.97-1.8-0.97C62.7,164.9,59.12,164.92,55.54,164.92
		z M54.08,142.34c0,0.01,0,0.01,0,0.02c3.11,0,6.21,0.04,9.32-0.02c0.99-0.02,2.44,0.15,2.29-1.46c-0.13-1.4-1.4-1.38-2.5-1.35
		c-6.01,0.15-12.02,0.28-18.02,0.49c-0.8,0.03-2.26-0.49-2.12,1.12c0.11,1.25,1.3,1.21,2.29,1.21
		C48.25,142.34,51.16,142.34,54.08,142.34z M55.75,135.86c0,0.02,0,0.03,0,0.05c3.5,0,7.01,0,10.51,0c0.91,0,1.94-0.09,2.06-1.17
		c0.13-1.19-0.94-1.36-1.82-1.36c-7.2,0.02-14.41,0.07-21.61,0.16c-0.83,0.01-1.96,0.11-1.81,1.35c0.11,0.97,1.08,0.97,1.87,0.97
		C48.55,135.87,52.15,135.86,55.75,135.86z M55.61,149.3c0,0.03,0,0.05,0,0.08c-3.6,0-7.19-0.01-10.79,0.01
		c-0.78,0-1.76,0.01-1.81,1.01c-0.07,1.18,0.94,1.29,1.86,1.29c7.09,0.01,14.18,0.02,21.27,0.02c0.87,0,1.93,0.02,1.92-1.22
		c-0.01-1.27-1.13-1.16-1.96-1.17C62.6,149.28,59.1,149.3,55.61,149.3z M54.21,158.16c0,0.02,0,0.04,0,0.05
		c2.91,0,5.82,0.04,8.74-0.02c1.09-0.02,2.74,0.24,2.78-1.34c0.03-1.69-1.62-1.26-2.68-1.26c-5.92,0-11.84,0.04-17.76,0.09
		c-0.91,0.01-2.32-0.35-2.39,0.95c-0.09,1.63,1.42,1.52,2.58,1.52C48.38,158.17,51.3,158.16,54.21,158.16z M31.46,126.43
		c0.14-0.06,0.47-0.11,0.63-0.3c2.19-2.48,4.38-4.95,6.51-7.48c0.61-0.73,0.25-1.42-0.43-2.01c-0.91-0.79-1.43-0.07-1.92,0.48
		c-1.09,1.25-2.19,2.49-3.14,3.84c-0.91,1.29-1.72,1.71-2.9,0.33c-0.42-0.5-0.96-1.08-1.73-0.56c-0.49,0.33-0.9,0.77-0.94,1.41
		C27.5,123.03,30.44,126.32,31.46,126.43z M31.37,142.26c0.29-0.12,0.63-0.16,0.79-0.35c2.16-2.46,4.33-4.92,6.42-7.45
		c0.52-0.63,0.09-1.28-0.48-1.75c-0.71-0.59-1.19-0.23-1.69,0.35c-1.12,1.32-2.35,2.57-3.42,3.93c-0.87,1.1-1.59,1.58-2.7,0.27
		c-0.39-0.47-1.01-0.98-1.77-0.41c-0.48,0.36-1.02,0.75-0.8,1.4C28.35,140.11,29.87,141.16,31.37,142.26z M38.61,149.98
		c0.13-0.77-0.21-1.13-0.57-1.45c-0.6-0.54-1.05-0.18-1.46,0.28c-1.21,1.39-2.47,2.74-3.58,4.2c-0.9,1.18-1.68,1.46-2.74,0.23
		c-0.58-0.68-1.23-1.3-2.11-0.24c-0.7,0.84-0.53,1.47,0.07,2.3c2.3,3.19,3.25,3.29,5.83,0.39c1.16-1.3,2.3-2.62,3.4-3.97
		C37.93,151.13,38.3,150.45,38.61,149.98z M38.91,165.51c0.04-0.84-0.31-1.27-0.85-1.57c-0.57-0.32-1.15-0.29-1.59,0.19
		c-0.85,0.93-1.59,1.95-2.47,2.85c-1.13,1.15-2.12,3.07-4.07,0.91c-0.56-0.62-1.23-0.25-1.77,0.27c-0.62,0.6-0.8,1.24-0.44,2.08
		c1.33,3.14,4.06,3.68,6.35,1.19c1.31-1.42,2.55-2.9,3.79-4.38C38.29,166.54,38.62,165.94,38.91,165.51z"/>
	<path d="M427.62,291.42c1.94,0.34,3.33,1.45,3.22,3.43c-0.12,2.01-1.47,3.43-3.63,3.31c-1.85-0.1-3.17-1.34-3.07-3.2
		C424.25,293.02,425.33,291.52,427.62,291.42z"/>
	<path d="M439.01,344.08c6.94,3.38,13.87,6.72,20.74,10.19C452.22,352.14,445.27,348.79,439.01,344.08z"/>
	<polygon points="388.04,276.76 387.95,276.76 387.99,276.57 	"/>
	<path d="M280.64,349.43c0.01-4.23,2.47-6.31,6.66-5.76c3.91,0.52,6.93,2.39,9.03,5.69c1.57,2.47,1.6,5.13,0.17,7.6
		c-1.36,2.35-4.38,3.16-7.5,2.38C284.1,358.13,280.63,354.01,280.64,349.43z"/>
	<path d="M440.04,208.89c0.8,0.4,1.78,0.63,2.34,1.25c0.37,0.41,2.39,1.9-0.5,1.95c-0.53,0.01-1.06,1.27-1.55,1.98
		c-3.82,5.53-8.57,9.47-15.74,9.49c-2.6,0.01-4.71-0.84-6.4-2.84c-0.86-1.02-1.59-2.27-3.09-2.51c-0.67-0.11-1.14-0.38-1.04-1.09
		c0.14-1,0.93-0.72,1.59-0.7c6.37,0.18,12.58-0.81,18.65-2.65c1.66-0.5,3.24-1.27,4.82-2.01
		C440.28,211.22,441.74,210.65,440.04,208.89z M433.62,217.02c-4.36,0.7-8.72,1.41-13.2,2.13
		C424.23,221.7,429.77,220.99,433.62,217.02z"/>
	<path d="M447.94,178.48c-0.37-0.01-0.8,0.11-1.11-0.04c-5.39-2.52-10.78-1.78-16.18-0.04c-0.92,0.3-1.85,0.58-2.8,0.79
		c-1.29,0.28-1.99-0.41-2.4-1.56c-0.42-1.19-0.09-2.03,0.97-2.71c6.41-4.08,16.46-2.39,21.44,3.62L447.94,178.48z"/>
	<path d="M440.2,187.39c-0.08,2.41-0.73,4.64-3.49,4.89c-2.87,0.26-3.97-1.87-4.49-4.58c-0.84,0.53-1.53,0.97-2.34,1.49
		c-0.07-0.36-0.23-0.65-0.16-0.84c1.68-4.33,5.17-5.88,9.92-4.23c2.34,0.81,4.55,2,7.18,3.18c-2.47,1.51-4.33,0.2-6.24-0.38
		c-0.25-0.12-0.53-0.36-0.69,0.06C439.86,187.06,440.09,187.25,440.2,187.39z"/>
	<path d="M472.95,197.61c2.56-2.62,3.03-4.82,0.98-7.6c-1.37-1.86,1.83-6.66,4.77-7.73c2.27-0.82,3.76,0.22,4.63,3.42
		c-1.21-0.21-1.72-1.68-3.03-1.4c-1.34,0.28-2.17,1.2-3.08,2.07c-1.39,1.33,0.13,2.04,0.63,2.9
		C480.38,193.66,478.63,197.12,472.95,197.61z"/>
	<path d="M416.88,187.18c2.19,4.41,1.09,8.79-0.13,13.16c-0.13,0.46-0.39,0.88-0.6,1.32c-1.82,3.83-1.82,3.82,1.67,6.41
		c0.43,0.32,1.14,0.41,1.14,1.35c-2.32,0.24-4.4-0.18-5.9-2.08c-1.52-1.94-0.15-3.62,0.68-5.35
		C415.97,197.3,417.41,192.44,416.88,187.18z"/>
	<path d="M422.4,206.83c2.03-1.23,3.99-0.35,6.51,0.03C426.38,208.26,424.37,206.83,422.4,206.83z"/>
	<path d="M447.88,178.54c0.14,0.07,0.28,0.13,0.42,0.2c-0.1,0.05-0.2,0.1-0.29,0.15c-0.02-0.13-0.04-0.27-0.07-0.4
		C447.94,178.48,447.88,178.54,447.88,178.54z"/>
	<path d="M157.38,45.22c-1.13-0.74-2.33-1.62-1.44-3.22c2.83-5.09,5.76-10.11,8.64-15.17c0.59-1.03,1.29-0.59,1.94-0.15
		c0.76,0.52,1.93,0.94,1.19,2.21c-3.01,5.21-6.06,10.4-9.11,15.58C158.36,44.9,158.05,45.29,157.38,45.22z"/>
	<path d="M149.44,36.18c1.34,1.13,2.53,2.12,3.71,3.13c0.54,0.46,1.03,0.94,0.44,1.71c-0.57,0.75-1.18,0.94-1.98,0.32
		c-1.7-1.3-3.43-2.56-5.1-3.9c-1.21-0.97-0.71-1.87,0.32-2.58c1.52-1.04,3.09-2.03,4.64-3.03c0.46-0.29,0.91-0.88,1.47-0.18
		c0.5,0.62,0.52,1.25-0.13,1.79C151.77,34.32,150.71,35.15,149.44,36.18z"/>
	<path d="M173.93,36.21c-1.4-1.12-2.56-2-3.66-2.94c-0.57-0.48-0.79-1.11-0.23-1.77c0.51-0.6,1.03-0.26,1.54,0.02
		c0.08,0.05,0.17,0.1,0.24,0.16c1.98,1.5,5.68,2.53,5.5,4.6c-0.21,2.48-4.09,3.09-6.15,4.83c-0.47,0.4-0.9,0.31-1.18-0.18
		c-0.31-0.54-0.32-1.11,0.21-1.56C171.38,38.36,172.56,37.37,173.93,36.21z"/>
	<path d="M281.9,110.17c0.38,3.54,3.9,3.96,5.89,5.9c0.2,0.19,0.54,0.24,0.41,0.74c-1.64,2.04-3.16-0.39-4.95-0.33
		c-0.81,3.71-1.19,7.16,2.82,9.53c1.48,0.88,2.49,2.39,3.56,3.78c0.66,0.86,0.41,1.31-0.19,1.96c-0.73,0.79-1.18,0.2-1.65-0.25
		c-1.49-1.4-2.97-2.8-4.43-4.23c-0.78-0.76-1.25-1.17-2.22,0.04c-4.67,5.82-13.39,5.8-17.99-0.05c-0.96-1.23-1.47-0.81-2.21-0.05
		c-1.43,1.45-2.62,3.16-4.41,4.22c-0.5,0.29-0.96,1.24-1.71,0.45c-0.75-0.78-0.17-1.46,0.37-2.02c1.74-1.83,3.42-3.74,5.31-5.4
		c2.48-2.19,1.33-4.82,1.16-7.33c-0.07-1.13-0.93-0.64-1.54-0.46c-1.35,0.4-2.59,1.21-4.12,1c0.02-1.2,0.76-1.73,1.7-2.31
		c2.18-1.36,4.46-2.15,5.07-5.64c0.41-2.36,3.5-4.41,6.73-4.79c4.51-0.53,8.42,0.67,11.85,3.57
		C281.22,109.16,281.2,109.78,281.9,110.17z M273.41,118.59c-0.07,0-0.14,0-0.21,0c0-2.61,0.01-5.22-0.01-7.83
		c-0.01-0.7-0.28-1.53-0.97-1.6c-0.96-0.1-1.29,0.85-1.31,1.6c-0.1,5.22-0.15,10.45-0.13,15.67c0,0.82,0.31,1.91,1.37,1.94
		c1.18,0.03,1.21-1.11,1.23-1.93C273.45,123.81,273.41,121.2,273.41,118.59z"/>
	<path d="M270.81,95.58c2.74,0,5.98,2.42,6.58,4.88c0.27,1.11,0.26,2.22-0.61,2.97c-0.91,0.78-1.82,0-2.67-0.42
		c-0.43-0.22-0.86-0.47-1.22-0.79c-1.32-1.16-2.47-1.4-3.49,0.4c-0.37,0.64-0.96,1.37-1.87,1.02c-0.82-0.31-0.98-1.16-1.1-1.94
		C265.98,98.9,268.37,95.58,270.81,95.58z"/>
	<path class="st29" d="M281.9,110.17c-0.69-0.38-0.68-1.01-0.57-1.66c1.17-2.02,3-3.47,4.56-5.15c0.78-0.84,1.9-1.41,2.78-0.58
		c0.91,0.85-0.42,1.5-0.84,2.1C286.28,107.09,284.15,108.71,281.9,110.17z"/>
	<path d="M163.86,125.03c4.1,0.1,8.19,0.2,12.29,0.3c0.47,0.69,0.68,1.44,0.51,2.28c-4.27,0.03-8.53,0.07-12.8,0.1
		C163.86,126.82,163.86,125.92,163.86,125.03z"/>
	<path class="st29" d="M140.71,126.7c-2.49,0.57-4.41,0.39-6.31,0.28c-0.53-0.03-1.28-0.05-1.2-0.87c0.06-0.59,0.68-0.67,1.14-0.62
		C136.3,125.68,138.48,124.68,140.71,126.7z"/>
	<path class="st29" d="M185.77,127.01c-0.69,0-1.17,0.01-1.65,0c-0.57-0.02-1.29,0-1.36-0.72c-0.07-0.79,0.67-0.77,1.22-0.82
		c0.47-0.04,0.97-0.1,1.43-0.02c1.15,0.2,3.23-0.53,3.24,0.71C188.67,127.71,186.62,126.63,185.77,127.01z"/>
	<path class="st29" d="M161.21,103.58c-0.29-0.34-0.62-0.55-0.63-0.76c-0.06-1.53-0.5-3.1,0.26-4.56c0.05-0.1,0.72-0.06,0.75,0.02
		C162.09,100.02,162.38,101.78,161.21,103.58z"/>
	<path class="st29" d="M161.31,153.09c-1.04-1.74-1.04-1.77-0.49-5.05C162.23,149.39,162.36,150.7,161.31,153.09z"/>
	<path class="st29" d="M142.45,137.77c-0.94,1.87-2.15,2.11-3.93,2.61C139.62,138.86,140.55,138.2,142.45,137.77z"/>
	<path class="st29" d="M180.69,113.83c1.13-1.39,1.13-1.39,3-2.11C183.12,113.31,181.89,113.56,180.69,113.83z"/>
	<g>
		<path d="M162.97,109c-0.3-0.03-0.54-0.1-0.73-0.21C162.42,108.9,162.66,108.97,162.97,109c-0.48-0.65-0.95-1.29-1.43-1.94v0
			c-2.65-0.73-2.44,1.88-3.3,3.04c-1.08,1.46-0.43,2.51,1.52,2.41c0.1,1.16,0.34,2.32,0.27,3.47c-0.16,3,0.69,6.03-1.24,8.96
			c-1.06,1.62-0.06,3.4,2.24,3.74c1.23,0.52,2.08-0.09,2.83-0.97c0-0.89,0-1.79,0-2.68c0.03-0.36-0.16-0.41-0.45-0.33
			c-2.05-3.95-1.09-8.1-0.77-12.2c0.88,0,1.89,0.03,1.9-1.16C164.55,110.3,164.31,109.22,162.97,109z"/>
		<path d="M176.14,125.33c0.47,0.69,0.68,1.44,0.51,2.28c1.01,0.51,1.92,0.26,1.88-0.87C178.49,125.39,177.61,124.68,176.14,125.33z
			"/>
	</g>
	<path d="M162.61,225.26c-0.04-3.55,3-6.38,6.9-6.44c3.75-0.06,7.08,2.65,7.19,5.85c0.12,3.37-3.37,6.77-7.04,6.86
		C165.85,231.62,162.65,228.77,162.61,225.26z"/>
	<path class="st29" d="M55.77,117.41c3.49,0,6.97-0.06,10.46,0.04c0.84,0.02,2.23-0.15,2.24,1.24c0,1.26-1.17,1.4-2.16,1.4
		c-7.17,0-14.34-0.04-21.5-0.06c-0.96,0-1.93-0.29-1.93-1.32c0-1.27,1.17-1.36,2.15-1.37c3.58-0.02,7.17-0.01,10.75-0.01
		C55.77,117.36,55.77,117.38,55.77,117.41z"/>
	<path class="st29" d="M54.59,123.68c3.21,0,6.42-0.01,9.63,0.01c0.86,0,1.95-0.12,2.04,1.09c0.1,1.32-0.93,1.53-1.98,1.53
		c-6.41,0-12.83,0.01-19.24-0.04c-0.85-0.01-2.05-0.15-2.02-1.21c0.03-1.23,1.22-1.27,2.24-1.26c3.11,0.01,6.22,0.01,9.33,0.01
		C54.59,123.76,54.59,123.72,54.59,123.68z"/>
	<path class="st29" d="M55.54,164.92c3.58,0,7.16-0.01,10.74,0.01c0.75,0,1.75-0.11,1.8,0.97c0.04,1.07-0.78,1.49-1.77,1.49
		c-7.29-0.03-14.58-0.06-21.87-0.11c-0.84-0.01-1.61-0.3-1.59-1.3c0.03-0.99,0.77-1.2,1.64-1.19c3.68,0.02,7.37,0.01,11.05,0.01
		C55.55,164.83,55.54,164.87,55.54,164.92z"/>
	<path class="st29" d="M54.08,142.34c-2.91,0-5.82,0-8.73,0c-0.99,0-2.18,0.04-2.29-1.21c-0.14-1.61,1.32-1.09,2.12-1.12
		c6.01-0.21,12.01-0.34,18.02-0.49c1.1-0.03,2.37-0.05,2.5,1.35c0.15,1.62-1.31,1.44-2.29,1.46c-3.1,0.07-6.21,0.02-9.32,0.02
		C54.08,142.35,54.08,142.34,54.08,142.34z"/>
	<path class="st29" d="M55.75,135.86c-3.6,0-7.2,0-10.81,0c-0.79,0-1.75,0-1.87-0.97c-0.15-1.24,0.99-1.34,1.81-1.35
		c7.2-0.09,14.41-0.14,21.61-0.16c0.87,0,1.95,0.17,1.82,1.36c-0.12,1.08-1.15,1.16-2.06,1.17c-3.5,0-7.01,0-10.51,0
		C55.75,135.89,55.75,135.88,55.75,135.86z"/>
	<path class="st29" d="M55.61,149.3c3.5,0,7-0.02,10.49,0.02c0.82,0.01,1.95-0.1,1.96,1.17c0.01,1.23-1.04,1.22-1.92,1.22
		c-7.09,0.01-14.18-0.01-21.27-0.02c-0.92,0-1.92-0.11-1.86-1.29c0.06-1,1.03-1,1.81-1.01c3.6-0.01,7.19-0.01,10.79-0.01
		C55.61,149.36,55.61,149.33,55.61,149.3z"/>
	<path class="st29" d="M54.21,158.16c-2.91,0-5.82,0.01-8.74-0.01c-1.16-0.01-2.67,0.11-2.58-1.52c0.07-1.3,1.48-0.94,2.39-0.95
		c5.92-0.06,11.84-0.1,17.76-0.09c1.06,0,2.71-0.43,2.68,1.26c-0.03,1.58-1.68,1.32-2.78,1.34c-2.91,0.07-5.82,0.02-8.74,0.02
		C54.21,158.19,54.21,158.17,54.21,158.16z"/>
	<path d="M31.46,126.43c-1.02-0.11-3.96-3.4-3.91-4.27c0.04-0.64,0.45-1.08,0.94-1.41c0.77-0.52,1.31,0.06,1.73,0.56
		c1.17,1.37,1.99,0.95,2.9-0.33c0.95-1.35,2.05-2.6,3.14-3.84c0.49-0.56,1-1.27,1.92-0.48c0.69,0.59,1.05,1.28,0.43,2.01
		c-2.13,2.53-4.32,5-6.51,7.48C31.93,126.32,31.6,126.36,31.46,126.43z"/>
	<path d="M31.37,142.26c-1.5-1.1-3.03-2.15-3.64-4c-0.21-0.64,0.32-1.04,0.8-1.4c0.76-0.56,1.37-0.05,1.77,0.41
		c1.1,1.3,1.83,0.82,2.7-0.27c1.07-1.36,2.29-2.61,3.42-3.93c0.5-0.59,0.97-0.95,1.69-0.35c0.57,0.48,1,1.13,0.48,1.75
		c-2.09,2.52-4.26,4.98-6.42,7.45C32,142.1,31.67,142.14,31.37,142.26z"/>
	<path d="M38.61,149.98c-0.31,0.47-0.68,1.16-1.17,1.75c-1.1,1.35-2.24,2.67-3.4,3.97c-2.58,2.89-3.52,2.79-5.83-0.39
		c-0.6-0.83-0.77-1.46-0.07-2.3c0.88-1.06,1.53-0.43,2.11,0.24c1.06,1.23,1.84,0.95,2.74-0.23c1.12-1.46,2.38-2.81,3.58-4.2
		c0.41-0.47,0.86-0.82,1.46-0.28C38.41,148.85,38.74,149.2,38.61,149.98z"/>
	<path class="st29" d="M38.91,165.51c-0.29,0.43-0.62,1.03-1.04,1.54c-1.24,1.48-2.49,2.96-3.79,4.38c-2.3,2.5-5.02,1.96-6.35-1.19
		c-0.36-0.85-0.18-1.48,0.44-2.08c0.54-0.52,1.21-0.89,1.77-0.27c1.95,2.15,2.94,0.24,4.07-0.91c0.88-0.9,1.62-1.92,2.47-2.85
		c0.44-0.48,1.02-0.51,1.59-0.19C38.6,164.24,38.95,164.67,38.91,165.51z"/>
	<path class="st30" d="M433.62,217.02c-3.85,3.97-9.38,4.67-13.2,2.13C424.89,218.43,429.26,217.72,433.62,217.02z"/>
	<path class="st30" d="M440.2,187.39c-0.11-0.14-0.34-0.32-0.31-0.41c0.16-0.42,0.44-0.18,0.69-0.06
		C440.45,187.07,440.32,187.23,440.2,187.39z"/>
	<path class="st30" d="M273.41,118.59c0,2.61,0.04,5.22-0.02,7.83c-0.02,0.82-0.05,1.96-1.23,1.93c-1.06-0.03-1.36-1.12-1.37-1.94
		c-0.02-5.22,0.03-10.45,0.13-15.67c0.01-0.74,0.35-1.7,1.31-1.6c0.69,0.07,0.96,0.9,0.97,1.6c0.02,2.61,0.01,5.22,0.01,7.83
		C273.27,118.59,273.34,118.59,273.41,118.59z"/>
</g>
</svg>
