<?xml version="1.0" encoding="utf-8"?>
<!-- Generator: Adobe Illustrator 24.3.0, SVG Export Plug-In . SVG Version: 6.00 Build 0)  -->
<svg version="1.1" id="Layer_1" xmlns="http://www.w3.org/2000/svg" xmlns:xlink="http://www.w3.org/1999/xlink" x="0px" y="0px"
	 viewBox="0 0 564.27 478" style="enable-background:new 0 0 564.27 478;" xml:space="preserve">
<style type="text/css">
	.st0{fill:#00B0FB;}
	.st1{fill:#FFFFFF;}
	.st2{fill:#00B0FB;fill-opacity:0.4;}
	.st3{fill:#656666;}
	.st4{fill:#DBDBDB;}
	.st5{fill:#FBF9FB;}
</style>
<g>
	<path d="M549.93,328.81c-9.11,16.84-21.14,31.4-34.78,44.7c-23.46,22.87-50.45,40.56-79.91,54.68
		c-11.48,5.5-23.14,10.56-35.07,14.97c-24.73,9.15-50.12,15.91-76.11,20.34c-15.18,2.58-30.48,4.08-45.91,3.29
		c-8.8-0.45-17.45-1.67-25.51-5.59c-11.91-5.8-15.4-14.59-10.63-27.05c4.14-10.82,10.84-20.04,18.33-28.7
		c15.11-17.46,32.3-32.75,50.24-47.21c1.03-0.83,2.03-1.69,3.03-2.55c0.64-0.55,1.25-1.13,2.12-1.93
		c-5.32-2.71-10.46-5.32-15.39-8.34c-17.85-10.93-35.38-22.34-52.8-33.93c-1.54-1.03-2.29-2.35-2.58-4.15
		c-0.35-2.19-0.09-4.34,0.16-6.48c0.26-2.27,0.46-4.24-1.44-6.16c-1.46-1.48-0.5-3.67,0.11-5.4c0.79-2.25,0.1-3.58-1.67-5
		c-3.22-2.58-6.42-4.35-10.87-4.36c-6.19-0.01-11.89-2.64-17.52-5.1c-3.62-1.58-7.37-2.88-10.12-5.98
		c-2.15-2.42-3.94-4.87-2.74-8.34c0.27-0.78-0.17-1.17-0.65-1.68c-2.6-2.73-3.55-5.74-1.36-9.19c0.36-0.56,0.84-1.2,0.18-1.76
		c-2.73-2.3-4.53-5.63-8.67-6.32c-4.34-0.72-8.56-2.23-12.82-3.43c-3.54-1-4.44-2.37-3.66-5.45c0.68-2.68,2.1-3.55,4.82-2.87
		c1,0.25,1.98,0.61,2.98,0.87c6.24,1.6,12.34,4.14,19.01,2.78c0.41,0.17,0.83,0.36,1.25,0.01c-0.25-0.2-0.51-0.4-0.76-0.61
		c-1.37-1.02-2.63-2.15-3.42-3.7c-1.48-2.92,0.05-5.85,3.31-6.26c2.42-0.31,4.74,0.28,6.83,1.42c9.15,4.96,18.76,8.73,28.66,11.88
		c5.53,1.76,9.57,5.53,12.53,10.47c1.98,3.31,3.87,6.68,5.67,10.1c1.56,2.97,3.52,5.63,7.48,6.01c2.53,0.24,4.11,2.54,6.03,4.03
		c1.05,0.81,1.91,1.51,3.5,1.21c1.77-0.34,3.16,1.04,4.41,2.18c12.28,11.23,26.72,19.27,40.83,27.79c1.13,0.68,2.23,0.94,3.4,0.1
		c0.3-0.22,0.66-0.42,1.02-0.47c9.88-1.29,15.99-8.67,23.18-14.3c7.58-5.94,13.68-13.19,18.86-21.28c1.42-2.21,3.12-4.26,4.81-6.28
		c2.16-2.58,4.81-4.29,8.17-5.23c11.26-3.13,22.37-6.7,33.24-11.03c6.46-2.57,11.71-6.69,16.82-11.35
		c-1.38-0.32-2.71-0.58-4.01-0.93c-2.92-0.78-5.06-2.52-6.17-5.35c-3.26-8.33-7.09-16.43-9.73-25c-1.38-4.49-1.05-8.96,0.07-13.4
		c0.87-3.48,1.13-6.8-0.57-10.17c-1.13-2.24-1.06-4.73-0.44-7.19c0.52-2.09,0.27-3.89-1.4-5.66c-4.98-5.32-5.22-10.49-1.12-16.58
		c-4.45-3.15-4.45-3.15-5.71-6.27c3.36,0.04,6.58-0.32,9.86-1.85c-1.97-2.53-4.21-4.84-4.4-8.47c3.69,1.22,7.12,2.46,11.07,2.2
		c-1.3-2.56-3.35-4.66-3.61-7.98c3.51,1.99,7.06,2.97,10.76,3.23c0.89,0.06,2.75,1.3,2.66-1.25c-0.01-0.21,0.93-0.57,1.47-0.67
		c12.81-2.45,25.62-3.47,38.37,0.28c8.11,2.39,15.13,6.33,18.91,14.49c1.76-1.45,1.47-3.54,2.25-5.65c2.3,2.53,1.45,5.09,1.02,7.62
		c2.36,0.46,4.82-0.52,7.08,0.94c-1.14,1.36-3.01,1.5-4.47,2.75c2.92,2.28,5.29,4.84,6.32,8.41c1.42,4.94,0.56,9.72-0.89,14.46
		c-0.47,1.53-1,3.05-1.65,4.51c-1.42,3.15-1.87,6.38-1.89,9.86c-0.05,6.96-3.14,12.7-8.3,17.31c-1.05,0.94-2.26,2.03-3.64,2.06
		c-3.62,0.09-4.03,2.63-4.49,5.26c-0.32,1.86-0.79,3.69-0.99,5.56c-0.31,3.01-0.56,5.93,2.78,7.84c2.49,1.43,2.72,4.61,4.34,6.82
		c7.2,9.81,17.45,15.3,28.03,20.43c8.31,4.03,16.6,8.09,24.82,12.3c3.87,1.98,7.62,4.26,9.31,8.66c0.27,0.7,0.81,0.95,1.52,1.06
		c3.15,0.51,6.3,1.05,9.45,1.58C578.42,279.7,550.87,327.07,549.93,328.81z M479.22,397.2c4.03-2.12,7.45-5.1,11.15-7.7
		c1.07-0.75,1.31-1.73,1.37-2.9c0.25-4.56-0.3-9.03-1.47-13.43c-1.95-7.31-2.93-8.08-10.4-8.11c-0.26,0-0.51,0.08-0.99,0.15
		c4.65,10.52,3.83,20.98-0.06,31.41c-0.32,0.19-0.47,0.46-0.21,0.77C478.67,397.45,479.01,397.27,479.22,397.2z M247.4,293.03
		c0.03-0.28-0.01-0.59,0.09-0.83c0.18-0.42,0.45-0.8,0.68-1.2c0.64-1.12-0.23-1.93-0.91-1.56c-0.91,0.5-1.02,1.88-0.92,3.01
		c0.05,0.55,0.28,1.09,0.88,1.32c3.23,2.43,6.5,4.81,9.67,7.3c0.95,0.75,1.61,1.08,2.61,0.13c7.5-7.05,11.96-15.58,12.75-25.92
		c0.07-0.95,0.02-1.84-0.89-2.51c-2.24-1.66-4.43-3.38-6.75-5.16c-1.36,8.89-5.03,16.35-11.11,22.58
		C251.88,291.86,250.09,293.51,247.4,293.03z M456.53,268.98c-1.53,1.1-2.21-0.17-2.93-1.11c-1.73-2.24-3.48-4.47-5.1-6.78
		c-0.89-1.27-1.55-1.66-2.78-0.34c-1.73,1.87-3.59,3.61-5.47,5.33c-1.14,1.05-1.55,2.19-1.42,3.76c0.82,9.7,0.58,19.41,0.09,29.12
		c-0.13,2.63-0.02,5.28-0.02,7.92c5.64-12.75,11.95-25.06,18.03-37.47c0.49-0.22,0.53-0.57,0.32-1.01
		C457.01,268.59,456.77,268.79,456.53,268.98z M468.8,256.92c-1.6-0.4-2.08,0.74-2.71,1.84c-7.15,12.57-13.65,25.46-19.5,38.68
		c-3.2,7.23-5.81,14.69-8.81,22c-1.83,4.45-1.88,8.6,0.3,12.91c0.69,1.36,1.54,2.61,2.78,2.98c1.44,0.43,1.7-1.41,2.41-2.3
		c0.76-0.95,1.28-2.08,1.97-3.1c11.89-17.63,24.87-34.54,35.56-52.98c4.02-6.92,4.74-4.44-1.77-10.27c-1.82-1.63-4.39-2.6-5.17-5.27
		c3.42,1.55,6.35-0.79,9.52-1.22c1.76-0.24,2.44-1.11,2.37-3.03c-0.15-4.51-0.48-9.07,0.53-13.51c1.45-6.37-2.46-9.93-6.59-13.79
		c-0.46,2.65-1.22,4.87-2.12,7.05c-2.44,5.93-5.96,11.31-8.91,16.98C468.09,255,467.19,255.98,468.8,256.92z M404.18,302.76
		c0.72,2.72,1.46,5.43,2.15,8.15c0.64,2.52-0.18,3.92-2.74,4.13c-8.64,0.73-17.29,1.36-25.93,2c-2.31,0.17-3.74-0.95-4.34-3.18
		c-0.59-2.18-1.29-4.34-1.82-6.54c-0.25-1.03-0.68-1.41-1.73-1.32c-4.04,0.35-8.1,0.48-12.11,1.01c-2.91,0.38-4.04,2.56-3.21,5.42
		c0.26,0.9,0.64,1.77,0.95,2.66c5.88,17.1,11.77,34.21,17.64,51.31c2.81,8.2,5.55,16.42,8.38,24.61c1.18,3.41,4.6,6.12,7.19,6.01
		c12.81-0.55,25.62-1.05,38.42-1.58c4.62-0.19,9.24-0.4,14-0.6c-0.45-1.18-1.22-0.87-1.79-0.95c-11.32-1.57-20.97-6.39-28.77-14.79
		c-1.52-1.64-2.89-3.59-2.25-5.83c0.68-2.38-0.36-3.56-1.89-4.95c-2.09-1.9-3.84-4.35-2.97-7.2c0.67-2.2-0.12-3.18-1.49-4.45
		c-1.95-1.8-3.18-3.98-2.41-6.8c0.63-2.32,2.66-2.69,4.42-3.76c1.36-0.82,1.04-3.93,3.46-4.61c1.95-0.54,3.92-0.46,5.88-0.04
		c5.37,1.14,10.41,3.28,15.56,5.1c3.68,1.3,7.31,2.76,11.45,3.61c-0.31-1.19-0.49-2.09-0.78-2.97
		c-4.11-12.43-8.28-24.83-12.33-37.28c-2.2-6.78-4.68-8.54-11.76-8.11c-3.28,0.2-6.53,0.97-9.84,0.49c-0.07-1.17-0.06-2.28,1.4-2.67
		c0.43-0.11,0.93-0.34,0.7-0.97c-0.2-0.53-0.71-0.58-1.17-0.59c-0.56-0.02-1.13,0.02-1.69,0.07c-8.53,0.63-17.06,1.24-25.59,1.91
		c-3.46,0.27-6.92,0.68-10.38,1.03c-0.72,0.07-1.32,0.35-1.24,1.21c0.09,0.95,0.87,0.93,1.5,0.83c1.29-0.21,2.56-0.78,3.84-0.78
		c9.32-0.01,18.59-0.83,27.85-1.81C402.76,300.31,403.62,301.1,404.18,302.76z M324.38,308.45c-0.03-0.06-0.05-0.14-0.09-0.19
		c-0.02-0.03-0.09-0.02-0.13-0.03c0.09,0.06,0.17,0.12,0.26,0.19c0.01,0.75-0.11,1.53,0.06,2.25c1.18,4.91,1.47,9.92,0.94,14.88
		c-0.4,3.8-0.65,7.73-2.68,11.86c0-1.47-0.1-2.32,0.02-3.13c1.09-7.5-0.06-14.82-1.78-22.09c-1.61-6.81-5.07-11.98-11.47-15.51
		c-9.54-5.26-18.8-11.05-27.39-17.83c-2.1-1.66-4.27-3.22-6.42-4.84c-2.15,16.37-8.81,29.22-24.7,35.9
		c1.07,1.24,2.65,2.23,4.19,3.26c16.79,11.18,33.82,21.99,51.14,32.34c5.35,3.2,10.76,6.45,17.36,5.96
		c12.4-0.91,23.73-5.68,35.22-9.88c1.73-0.63,1.12-1.88,0.72-3.05c-2.91-8.56-5.87-17.11-8.72-25.7c-1.42-4.27,0.78-7.95,5.1-9.05
		c2.14-0.54,4.31-0.34,6.47-0.52c0.98-0.08,1.82-0.17,2.13-1.39c0.88-3.56,2.05-7.06,2.76-10.66c1.74-8.86,3.34-17.74,5.77-26.45
		c0.32-1.13,0.46-2.38,1.75-3.83c-1.47,7.42-2.01,14.26-2.8,21.08c-0.54,4.67-0.85,9.37-1.23,14.06c-0.08,0.99-0.36,2.13,1.43,1.98
		c5.16-0.42,10.33-0.74,15.5-1.04c2.01-0.12,2.84-0.83,2.94-3.09c0.4-8.46,1.13-16.91,1.67-25.36c0.11-1.71,1.06-2.5,2.51-3
		c2.28-0.77,4.55-1.58,7.11-2.47c-1.51-1.13-2.65-2.12-3.92-2.89c-1.54-0.93-1.27-1.71-0.21-2.84c2.26-2.4,4.47-4.86,6.61-7.37
		c1.86-2.18,3.59-4.47,5.84-7.3c-1.48,0.4-2.2,0.55-2.88,0.79c-9.32,3.29-18.54,6.89-28.19,9.13c-5.46,1.26-9.02,4.53-12.07,9
		c-5.94,8.71-11.84,17.47-20.33,24.08c-5.27,4.1-9.96,8.93-15.73,12.42c-1.07,0.64-2.6,0.68-3.22,2.31
		c5.93,3.37,11.14,7.46,13.15,14.41c-1.82-1.46-3.4-3.15-5.07-4.75c-2.19-2.09-4.57-3.91-7.67-4.48c-0.06-0.05-0.13-0.1-0.19-0.15
		c0.08,0.04,0.15,0.08,0.23,0.11c2.56,4.54,5.81,8.73,6.94,13.98c0.63,2.93,1.4,5.87,0.6,8.9c-0.13,0.51-0.16,1.25-0.91,1.22
		c-0.67-0.03-0.82-0.67-0.92-1.23c-0.08-0.46-0.06-0.94-0.15-1.4C332.55,319.93,330.42,313.18,324.38,308.45z M526.76,327.38
		c0.33,0.27,0.67,0.54,1,0.81c-0.65,1.09-1.26,2.21-1.96,3.27c-3.96,6.01-8.9,11.2-13.95,16.29c-1.46,1.47-2.9,2.98-3.79,4.89
		c-0.36,0.79-0.53,1.69,0.08,2.41c0.72,0.85,1.53,0.33,2.3-0.07c5.86-3.02,12.05-4.84,18.65-5.08c1.29-0.05,1.99-0.62,2.78-1.56
		c4.79-5.74,8.59-12.14,12.65-18.38c4.29-6.6,6.71-13.06,4.93-21.43c-2.71-12.7-4.76-25.53-9.39-37.74
		c-1.41-3.73-3.69-6.77-7.23-8.75c-13.75-7.67-28.39-13.62-41.92-21.72c-1.36-0.81-1.58-0.07-1.69,1.1
		c-0.51,5.81-1.47,11.6-1.14,17.46c0.11,1.94-0.7,2.69-2.45,3.04c-2.24,0.46-4.54,0.85-6.75,2.28c0.88,0.71,1.51,1.26,2.18,1.75
		c6.2,4.61,6.19,4.6,2.33,11.18c-3.67,6.26-7.29,12.55-10.99,18.79c-1.21,2.03-0.44,2.41,1.5,2.21c3.65-0.38,7.3-0.77,10.96-1.01
		c0.77-0.05,2.24-0.73,2.33,0.65c0.08,1.27-0.83,2.06-2.42,2.1c-3.86,0.11-7.71,0.47-11.56,0.7c-2.53,0.15-4.52,0.91-6.09,3.2
		c-7.57,11.03-15.43,21.86-22.45,33.25c-0.77,1.25-0.78,1.9,0.17,2.86c1.95,1.97,4.19,3.5,6.66,4.72c4.54,2.24,8.52,5.16,11.64,9.22
		c1.89,2.46,3.95,4.8,5.95,7.17c0.77,0.91,1.75,1.61,2.97,1.22c4.9-1.58,10.19,1.52,15.13-1.55c1.33-0.83,2.43-1.37,2.93-2.81
		c0.27-0.79,0.24-1.69,0.58-2.43c4.08-8.81,4.62-18.02,2.61-27.33c-1.89-8.74-2.25-17.51-1.58-26.42c1.23,7.17,1.71,14.6,7.04,21.03
		c0.04-7.82,0.49-14.96,1.81-21.99c2.14-11.41,5.5-22.38,13.53-31.22c3.07-3.37,6.73-6.01,11.51-6.66
		c-9.68,3.89-14.72,11.59-17.85,21.02c-4.57,13.76-5.01,27.92-4.3,42.19c0.11,2.16,0.34,4.44,1.69,7.19
		c4.21-8.48,8.19-16.49,12.16-24.5c-2.35,8.99-5.14,17.75-8.37,26.37c-0.92,2.45-2.21,4.84-2.24,7.54c-0.02,1.91,0.83,2.73,2.64,1.4
		c2.65-1.96,5.22-4.03,7.52-6.4C520.16,334.24,523.45,330.8,526.76,327.38z M461.13,210.49c0.47,0.49,0.27,0.85,0.07,1.14
		c-2.58,3.73-5.5,7.19-8.56,10.52c-5.4,5.89-11.11,11.39-19.68,12.23c-0.55,0.05-1.32,0.14-1.36,0.77
		c-0.11,2.02-1.04,4.33,0.46,5.98c1.6,1.76,3.68,3.78,6.32,2.97c11.34-3.44,21.46-9.05,29.88-17.55c2.02-2.04,2.34-4.35,2-6.99
		c-0.58-4.52-0.37-9.03,0.23-13.54c0.5-3.76,0.5-3.76-3.45-3.56c-0.13,0.01-0.26-0.15-0.5-0.29c0.78-1.9,1.57-3.78,2.38-5.76
		c3.08,1.76,6.1,2.37,9.33,1.03c6.8-2.81,11.25-12.83,8.76-19.74c-1.44-3.99-3.84-5.29-7.91-4.26c-4.99,1.26-7.81,4.72-9.27,9.4
		c-0.67,2.13-2.15,1.62-3.62,1.55c-1.88-0.09-1.3-1.46-1.34-2.49c-0.02-0.75,0.03-1.51,0.12-2.26c0.62-4.84-0.21-9.14-4.06-12.6
		c-2.84-2.55-3.88-5.93-3.56-9.73c0.15-1.78,0.19-3.58,0.49-5.34c0.28-1.65-0.06-2.49-1.85-3.03c-13.03-3.9-26.13-2.16-39.23-0.67
		c-0.9,0.1-1.77,0.62-2.62,1.02c-1.5,0.7-2.65,1.8-3.38,3.29c-2,4.06-2.51,8.41-2.6,12.9c2.66-0.29,5.05-0.95,7.53-0.73
		c2,0.18,2.45,1.64,2.41,3.22c-0.05,1.74-1.54,1.33-2.58,1.32c-2.08-0.01-4.17-0.05-6.18,0.5c-2.48,0.68-0.98,2.44-0.82,3.71
		c0.21,1.67,1.17,1.2,2.17,0.56c2.44-1.56,4.71-0.93,6.74,0.8c1.08,0.92,1.96,2.06,3.09,3.29c0.05-1.08,0.03-1.84,0.15-2.58
		c0.1-0.63-0.45-1.4,0.63-2.06c1.45,5.14-0.09,9.74-1.82,14.32c-0.6,1.58-2.51,2.66-2.28,4.39c0.24,1.85,2.41,2.52,3.42,3.99
		c0.08,0.12,0.01,0.35,0.01,0.53c-5.69-0.35-7.24-3.16-4.35-7.86c1.34-2.17,2.35-4.48,3.28-6.86c0.85-2.2,0.65-3.7-1.95-4.4
		c-0.67,1.79-1.09,3.88-3.64,3.97c-2.56,0.09-3.02-2.04-3.7-3.6c-3.51,9.64-2.38,19,2.03,28.16c1.67,3.47,3.1,7.08,4.38,10.71
		c2.49,7.07,4.85,8.78,12.33,8.3c1.67-0.11,3.37-0.44,4.98-0.92c8.75-2.6,16.69-6.88,24.27-11.87
		C459.23,211.76,459.93,210.66,461.13,210.49z M436.77,363.1c-2.02,0.4-3.44-0.2-4.85-0.65c-8.49-2.71-16.16-7.15-23.92-11.4
		c-1.58-0.87-3.59-2.97-5.17-0.62c-1.52,2.26,0.83,3.78,2.35,5.04c4.36,3.61,9.1,6.69,14.03,9.49c4.45,2.53,9.36,3.97,13.92,6.2
		c0.72,0.35,1.76,0.64,1.32,1.79c-0.47,1.25-1.41,0.5-2.15,0.32c-8.64-2.13-16.25-6.38-23.46-11.45c-0.63-0.44-1.32-1.49-2.12-0.89
		c-0.96,0.72-0.62,1.92-0.08,2.84c0.52,0.89,1.13,1.76,1.86,2.48c5.02,4.89,10.35,9.34,17.11,11.73c2.3,0.81,4.53,1.85,6.76,2.84
		c0.67,0.3,1.52,0.74,1.21,1.64c-0.42,1.2-1.3,0.27-1.89,0.13c-6.88-1.6-13.15-4.54-18.84-8.71c-0.47-0.34-0.86-1.06-1.64-0.59
		c0.61,2.43,1.09,3.28,3.13,5.21c6.64,6.32,14.85,9.53,23.6,11.44c9.07,1.98,18.18,1.4,27.26-0.26c1.28-0.23,3.18-0.99,3.79-0.14
		c1.72,2.39,4.23,1.46,6.32,2.14c1.27,0.41,1.74-0.18,2.08-1.46c1.95-7.31,1.77-14.54-0.41-21.76c-0.27-0.89-0.48-1.82-1.76-1.86
		c-6.24-0.19-9.59-4.48-12.89-8.98c-2.75-3.74-5.95-7.03-10.17-9.22c-3.69-1.91-7.27-4-10.08-7.18c-0.37-0.42-0.84-0.8-1.35-0.39
		c0.95,2.79,1.88,5.52,2.81,8.26c1.05,3.13,5.16,2.86,6.74,6.1c-6.3-0.83-12.16-1.89-17.82-3.95c-4.78-1.74-9.55-3.49-14.36-5.16
		c-2.57-0.89-5.14-1.87-7.93-1.91c-1.1-0.02-2.09,0.28-2.54,1.4c-0.48,1.21-0.05,2.23,0.92,3.01c0.51,0.41,1.07,0.79,1.66,1.06
		c7.33,3.43,14.39,7.44,21.98,10.33C433.8,360.61,435.53,361.15,436.77,363.1z M369.62,367.45c-1.12,12.85-0.97,25.81-5.45,38.18
		c-0.64,1.76-0.16,3.05,1.8,3.71c2.4,0.82,4.75,1.73,7.24,2.35c2.95,0.73,4.64-0.31,6-2.79c1.15-2.11,1.65-4.4,2.35-6.64
		c0.14-0.45,0.26-0.99,0.83-0.96c0.58,0.04,0.73,0.49,0.57,1.02c-1.03,3.31-1.3,6.86-2.97,9.98c-1.34,2.51-3.55,3.26-6.19,2.83
		c-2.69-0.45-5.37-1.02-7.88-2.16c-1.28-0.58-1.89-0.31-2.08,1.14c-0.46,3.54-1.19,7.06-1.49,10.61c-0.7,8.5,0.13,9.88,7.91,13.71
		c1.76,0.87,3.65,1.54,5.53,2.11c3.5,1.05,7.02,2.06,10.58,2.9c1.92,0.45,3.13-0.57,3.05-2.58c-0.16-3.72,1.14-7.19,1.58-10.81
		c0.94-7.65,2.05-15.28,3.12-22.91c0.33-2.37-0.59-3.41-2.92-4.19c-6.68-2.23-11.93-5.95-14.05-13.34
		C375,382.12,372.16,374.83,369.62,367.45z M243.22,275.77c-0.29,0.47-0.48,1.08-0.9,1.38c-2.01,1.43-1.11,2.42,0.35,3.53
		c2.4,1.82,4.76,3.71,7.07,5.65c1.31,1.1,2.21,0.87,3.29-0.36c4.29-4.89,6.61-10.67,7.94-16.94c0.29-1.36-0.37-2.16-1.32-2.83
		c-4.38-3.12-7.05-7.46-9.12-12.31c-0.92-2.15-2.31-4.1-3.51-6.12c-3.15-5.28-7.85-8.55-13.64-10.34c-2.97-0.92-5.99-1.64-8.94-2.62
		c-2.55-0.85-3.44,0.97-4.25,2.58c-0.97,1.92,0.1,3.29,1.93,3.97c1.58,0.59,3.25,0.94,4.87,1.43c2.43,0.74,4.92,1.35,7.25,2.32
		c2.1,0.87,2.88,2.72,2.14,4.91c-0.73,2.16-2.38,3.1-4.65,2.72c-0.92-0.15-1.83-0.46-2.73-0.72c-4.97-1.44-9.91-3-14.93-4.29
		c-3.84-0.99-7.79-1.5-11.89-1.21c0.12,0.38,0.35,0.59,0.61,0.62c5.9,0.81,11.02,3.68,16.3,6.11c0.72,0.33,1.51,0.99,2.36,0.47
		c2.17-1.34,3.27-0.05,4.3,1.61c3.63,5.85,9.27,7.61,15.74,7.69c0.81,0.01,1.7-0.41,2.78,0.27c-3.44,1.45-6.65,1.79-9.97,1.32
		c-0.74-0.1-1.91-0.45-2.17-0.12c-2.49,3.14-3.09-0.2-4.06-1.25c-2.13-2.31-3.85-5-6.64-7.05c0.07,1.79,1.51,7.64,1.99,8.39
		c2.08,3.26,1.25,5.98-2.31,7.45c-0.97,0.4-1.99,0.67-3.35,1.11C226.11,277.43,234.3,279.12,243.22,275.77z M406.35,263.4
		c-3.36,1.39-6.11,2.6-8.91,3.68c-1.58,0.6-2.47,1.52-2.55,3.29c-0.1,2.15-0.41,4.3-0.58,6.45c-0.47,5.81-0.94,11.62-1.33,17.43
		c-0.06,0.82-0.67,2.29,1.31,1.99c2.79-0.42,5.62-0.23,8.43-0.63c1.72-0.24,2.12-0.99,2.42-2.43c3.22-15.66,6.81-31.22,12.8-46.12
		c1.24-3.08,2.11-6.3,3.31-9.94c-2.86,1.51-4.93,3.06-6.58,5.07c-4.36,5.31-8.67,10.66-13.68,15.39c-1.08,1.02-1.06,1.88,0.28,2.67
		C402.79,261.14,404.27,262.1,406.35,263.4z M434.23,320.19c1.81-3.04,1.77-6.02,1.76-9.04c-0.06-13.73,1.42-27.46,0.09-41.2
		c-0.16-1.66-0.32-2.69-2.39-3.04c-5.72-0.96-5.69-1.09-7.88,4.31c-0.07,0.17-0.15,0.35-0.22,0.52c-3.27,7.91-6.69,15.76-9.09,24.01
		c-0.57,1.97-0.28,2.62,1.91,2.71c5.67,0.21,9.68,3.42,11.3,8.96C430.94,311.66,432.48,315.77,434.23,320.19z M441.59,246.46
		c4.22,5.89,8.48,11.51,12.36,17.39c1.38,2.09,1.99,1.71,3.45,0.32c6.21-5.88,9.87-13.47,13.93-20.76c2.1-3.76,4.23-7.58,4.99-11.91
		c0.6-3.41-0.5-6.4-2.58-9.56c-0.6,3.38-0.96,4.18-3.88,7.1C461.89,237.05,452.36,242.56,441.59,246.46z M453.85,413.4
		c-1.4-0.32-2.49-0.52-3.55-0.82c-2.6-0.74-5.75-0.84-7.68-2.42c-5.43-4.44-11.69-4.7-18.1-4.93c-1.66-0.06-2.08,0.79-2.11,2.25
		c-0.15,6.6,0.17,13.19,0.46,19.78c0.07,1.57,0.64,1.71,1.91,1.09c4.31-2.1,8.75-3.97,12.95-6.27
		C442.98,419.2,448.57,416.92,453.85,413.4z M489.56,363.87c4.37,6.86,5.35,13.96,5.4,21.86c8.76-7.11,16.65-14.2,24.4-22.53
		C509.17,363.57,499.71,364.2,489.56,363.87z M424.98,257.46c-1.58,1.46-2.94,2.71-4.3,3.96c-1.25,1.15-2.38,2.83-3.98,3.03
		c-1.48,0.19-1.77,0.87-2.04,1.89c-2.4,8.92-4.64,17.87-6.31,26.96c-0.14,0.76-0.61,1.75,0.47,2.25c1.49,0.69,2.45,1.94,3.53,3.58
		c0.41-1.06,0.71-1.71,0.92-2.4c3.01-9.63,6.8-18.98,10.75-28.25C425.51,264.97,425.49,261.44,424.98,257.46z M436.25,248.87
		c-2.35-0.34-4.52,0.58-6.35,2.45c-1.6,1.63-2.78,9.62-1.65,11.55c0.17,0.3,0.51,0.55,0.83,0.7c5.72,2.73,7.17,2.46,11.82-2.16
		c1.07-1.06,2.13-2.14,3.19-3.22c0.53-0.54,1.04-1.06,0.9-1.95C444.47,253.02,439.79,248.91,436.25,248.87z M426.52,233.73
		c-4.24,8.04-6.38,16.58-8.56,25.88c5.78-4.51,9.19-10.37,15.07-13.64C429.16,242.63,425.96,239.26,426.52,233.73z M204.41,250.18
		c-2.27-0.09-3.34,1.05-3.73,2.75c-0.41,1.79,0.44,3.4,2.13,3.82c4.41,1.11,8.9,1.92,13.36,2.82c0.87,0.17,1.72,0.03,2.18-0.89
		c0.5-1.01,0.14-1.96-0.66-2.51C213.53,253.33,209,251.3,204.41,250.18z M200.02,236.45c-2.02-0.2-4.12,0.01-4.52,2.29
		c-0.4,2.27,1.87,2.78,3.45,3.4c3.43,1.34,7.1,1.68,10.73,2.09c1.47,0.16,3.25,0.32,3.76-1.57c0.48-1.8-0.98-2.73-2.34-3.38
		C207.6,237.59,203.84,236.84,200.02,236.45z M220,233.23c-5.29-2.62-10.3-5.75-15.85-7.81c-0.43-0.16-0.91-0.22-1.38-0.25
		c-0.97-0.08-1.88,0.02-2.43,1.01c-0.64,1.16-0.01,2.02,0.75,2.73c0.75,0.69,1.61,1.32,2.52,1.76c3.37,1.63,6.79,3.16,10.17,4.76
		C216.47,236.7,218.47,236.03,220,233.23z M219.27,262.86c-2.51-0.04-4.52-0.87-6.53-1.67c-1.93-0.77-3.9-1.33-5.99-1.53
		c-2.15-0.22-3.35,0.67-3.33,2.74c0.02,1.93,0.79,3.53,3.14,3.54c0.93,0,1.78,0.16,2.71,0.4
		C213.75,267.5,216.87,266.39,219.27,262.86z M511.98,359.03c9.16,1.3,12.12,0.24,14.95-5.08
		C521.7,354.45,516.88,355.81,511.98,359.03z M217.27,243.33c-0.71-0.14-1.2,0.27-1.26,0.83c-0.06,0.65,0.59,0.91,1.16,1.01
		c4.73,0.88,9.13,2.88,13.78,4.03c0.84,0.21,1.86,0.58,2.12-0.54c0.27-1.17-0.93-1.22-1.7-1.38c-4.41-0.95-8.79-2.04-13.01-3.65
		C218.01,243.5,217.63,243.43,217.27,243.33z M208.59,268.38c3.43,2.73,7.27,2.34,11.15,1.41c0.74-0.18,1.32-0.69,1.75-1.35
		c0.29-0.44,0.34-0.84,0.03-1.29c-0.41-0.59-0.82-0.56-1.41-0.2C216.51,269.21,212.61,268.98,208.59,268.38z M182.43,233.92
		c-0.55-0.03-0.91,0.08-1.01,0.51c-0.15,0.62,0.32,0.81,0.77,0.95c2.5,0.79,5,1.56,7.51,2.34c0.44,0.14,0.9,0.39,1.1-0.31
		c0.19-0.65-0.06-1.17-0.66-1.35C187.53,235.3,184.91,234.6,182.43,233.92z M473.64,398.83c2.26-3.72,2.26-3.72-3.32-4.08
		C471.3,396.3,472.25,397.72,473.64,398.83z"/>
	<path class="st3" d="M246.55,200.18c-13.11,0-26.23,0.01-39.34-0.01c-1.74,0-4.31,0.35-4.35-1.84c-0.04-2.19,2.49-1.96,4.25-1.96
		c3.69-0.01,3.72,0,3.72-3.79c0-10.17-0.03-20.35-0.03-30.52c0-3.93,0.44-4.42,4.29-4.59c4.6-0.19,9.19-0.52,13.81-0.01
		c3.55,0.4,4,0.74,4,4.25c0.01,10.37,0.02,20.75,0.1,31.12c0.01,1.13-0.68,3.02,0.69,3.26c2.16,0.38,4.45,1.27,6.63,0.48
		c1.11-0.4,0.62-1.85,0.62-2.84c0.02-14.34,0.08-28.68-0.06-43.02c-0.03-2.82,0.66-3.83,3.6-3.67c4.8,0.26,9.62,0.1,14.43,0.1
		c5.12,0,5.32,0.23,5.3,5.49c-0.05,13.59-0.1,27.17-0.09,40.76c0,1.13-0.64,2.94,0.8,3.25c1.97,0.42,4.19,0.59,6.12-0.16
		c1.01-0.39,0.62-1.87,0.62-2.88c0.02-16.32,0.02-32.65,0.04-48.97c0.01-4.96,0.03-4.98,5.04-4.99c4.81-0.02,9.62-0.02,14.44,0.01
		c3.42,0.02,3.84,0.47,3.89,3.99c0.02,1.6-0.13,3.22,0.05,4.81c0.63,5.5-2.48,8.95-6.4,11.97c-1.12,0.86-2.35,1.57-3.49,2.42
		c-3.7,2.76-4.38,4.88-2.94,8.97c1.31,3.73,4.62,6.08,8.29,6.22c1.53,0.06,3.77-1.47,4.35-0.1c0.81,1.95,0.52,4.44-0.46,6.6
		c-1.56,3.44-2.81,6.98-3.57,10.69c-0.98,4.82-0.99,4.91-6.15,4.93c-12.74,0.06-25.47,0.02-38.21,0.02
		C246.55,200.17,246.55,200.18,246.55,200.18z"/>
	<path d="M62.18,172.04c24.42,0.12,41.07,19.92,41.37,40.42c0.3,20.22-15.77,37.82-35.9,39.99c-9.11,0.98-17.64-0.6-25.56-5.19
		c-1.57-0.91-2.59-1.11-3.65,0.61c-1.04,1.7-3.36,2.89-1.56,5.49c0.42,0.61-0.45,1.56-0.97,2.23c-6.46,8.23-12.93,16.44-19.38,24.68
		c-1.34,1.72-3.05,2.48-5.19,2.22c-4.31-0.52-7.51-3.02-9.96-6.31c-1.46-1.95-1.04-4.43,0.53-6.34c7.12-8.66,14.32-17.27,21.5-25.88
		c0.49-0.58,1.05-1.08,1.9-1.05c0.77,0.03,1.41,1.34,2.23,0.35c1.2-1.45,2.55-2.87,3.3-4.55c0.5-1.12-1.02-2.03-1.69-3
		c-7.82-11.39-10.02-23.69-5.41-36.8C29.51,182.53,44.95,171.91,62.18,172.04z M99.15,212.65c0.13-19.86-16.24-36.46-36.14-36.63
		c-20.48-0.18-37.2,15.63-37.31,35.27c-0.12,20.68,15.91,37.05,36.4,37.18C82.61,248.59,99.02,232.73,99.15,212.65z M11.61,278.88
		c1.82,0.34,2.71-0.2,3.37-1.04c5.87-7.57,11.71-15.16,17.57-22.73c0.87-1.12,0.76-1.92-0.47-2.74c-1.72-1.14-3.52-2.26-4.93-3.72
		c-1.77-1.84-2.93-1.35-4.29,0.36c-1.87,2.35-3.87,4.59-5.77,6.91c-3.98,4.87-7.95,9.75-11.91,14.64c-0.86,1.07-1.57,2.21-0.57,3.56
		C6.53,276.71,9.17,278.22,11.61,278.88z M36.64,244.26c-0.64-0.98-1.58-1.99-2.89-2.49c-0.81-0.31-3.85,2.9-3.72,4.02
		c0.18,1.49,1.5,2.03,2.69,2.5C33.26,248.5,36.54,245.25,36.64,244.26z"/>
	<path d="M306.45,141.09c3.83,5.36,10.22,7.2,14.83,11.31c7.14,6.37,7.96,14.59,4.94,23.34c-0.8,2.31-1.86,4.53-2.84,6.77
		c-1.72,3.9-2.08,7.98-1.69,12.18c0.12,1.34,0.65,2,2.14,1.92c2.07-0.11,4.15,0.04,6.22-0.01c1.32-0.04,2.45,0.58,2.48,1.72
		c0.03,1.18-1.33,1.82-2.43,1.91c-1.93,0.17-3.88,0.05-6.03,0.05c1.62,2.5,1.79,5.86,4.83,7.55c0.54,0.3,0.92,0.95,1.27,1.49
		c0.95,1.45,1.86,3.25,1.22,4.75c-0.59,1.37-2.55,0.61-3.89,0.62c-13.85,0.1-27.71,0.14-41.57,0.18c-3.39,0.01-3.68-0.35-2.59-3.57
		c0.83-2.46,1.93-4.77,4.95-5.22c0.35-0.05,0.92-0.28,0.95-0.49c0.49-3.3,3.92-5.19,3.9-8.84c-0.02-4.63,1.99-8.76,4.07-12.81
		c0.86-1.67,1.68-3.37,2.36-5.12c0.41-1.06,1.43-2.55,0.34-3.32c-1.21-0.86-2.94-1.26-4.58-0.63c-0.35,0.13-0.68,0.33-1,0.52
		c-2.45,1.42-4.91,1.34-7.19-0.28c-2.56-1.82-3.74-4.39-3.62-7.56c0.04-1.22,0.85-1.86,1.74-2.39c5.04-3.07,9.33-7,13.3-11.33
		c1.03-1.12,2.15-2.42,3.61-2.62c3.17-0.45,3.43-2.55,3.45-5.01c0.01-1.51,0.13-3.01,0.2-4.52
		C306.03,141.49,306.24,141.29,306.45,141.09z M319.91,160.95c1.32,1.67,1.5,3.02,1.71,4.41c0.91,6.2-1.25,11.83-3.89,17.07
		c-2.73,5.4-2.35,10.63-1.19,16.12c0.18,0.85,0.62,1.11,1.37,0.99c0.71-0.11,0.9-0.64,0.81-1.25c-0.08-0.55-0.23-1.11-0.41-1.64
		c-1.71-4.9-1.21-9.55,1.27-14.11c2.25-4.15,3.54-8.59,4.45-13.28c1.41-7.34-3.27-13.28-7.57-15.74
		c-4.75-2.72-14.05-0.46-17.88,3.74c-2.99,3.27-6.04,6.5-9.76,8.96c-1.88,1.24-2.98,2.42-1.51,4.78c1.59,2.55,3.1,3.54,5.5,2.23
		c2.86-1.55,5.48-1.09,8.43-0.47c2.92,0.62,3.17,2.04,2.44,4.41c-1.05,3.36-3.01,6.28-4.45,9.45c-1.53,3.36-2.89,6.75-2.63,10.56
		c0.07,0.97,0.01,1.96,1.39,1.97c5.07,0.03,10.13,0.05,15.2,0.09c1.49,0.01,1.86-0.68,1.25-1.96c-2.24-4.67-1.09-9.1,0.65-13.63
		c1.87-4.85,5.35-9.11,5.05-14.79C320.01,166.46,320.35,164,319.91,160.95z M307.7,205.85c0-0.02,0-0.05,0-0.07
		c4.04,0,8.09,0.07,12.13-0.07c0.65-0.02,2.2,0.24,1.99-1.26c-0.15-1.05-0.81-1.86-2.11-1.86c-7.84-0.01-15.67-0.03-23.51-0.1
		c-1.47-0.01-2.55,0.61-2.61,1.97c-0.06,1.65,1.64,1.31,2.54,1.34C299.98,205.93,303.84,205.85,307.7,205.85z M309.84,151.56
		c0.78-0.1,1.77,0.08,1.88-1.12c0.08-0.8-2.32-4.02-2.86-3.84c-1.42,0.48-0.68,1.72-0.78,2.62
		C307.94,150.45,307.87,151.8,309.84,151.56z"/>
	<path class="st3" d="M127.68,133.99c7.81,10.5,7.42,23.73-0.98,33.93c-7.64,9.27-21.61,11.98-33.01,6.4
		c-11.26-5.51-17.14-17.74-14.41-29.99c4.13-18.56,27.14-27.39,42.1-16.21c1.43,1.07,1.78,1.78,0.29,2.92
		c-0.07,0.06-0.13,0.14-0.19,0.21c-1.19,1.21-2.18,2.87-3.63,3.5c-1.53,0.67-2.65-1.3-4.01-1.99c-7.67-3.83-18.19-1.03-23.06,5.67
		c-6.04,8.32-5.51,19.11,1.35,25.65c7.4,7.06,18.82,7.38,26.86,0.76c6.48-5.34,8.38-15.6,4.3-23.2c-0.35-0.66-0.66-1.34-0.99-2.01
		C123.75,137.44,125.64,135.65,127.68,133.99z"/>
	<path d="M127.68,133.99c-2.04,1.66-3.94,3.45-5.39,5.66c-1.09,0.89-2.18,1.79-3.28,2.67c-2.06,1.66-3.2,3.39-2.71,6.45
		c0.7,4.42-1.2,8.21-5.2,10.47c-3.7,2.09-7.53,1.74-10.89-0.81c-3.4-2.58-4.99-6.08-3.95-10.42c1.5-6.29,8.73-9.64,14.13-6.59
		c-1.66,2.29-3.48,4.44-5.58,6.35c-1.42,1.29-1.38,2.34,0.63,3.54c-0.67-1.96,0.47-2.9,1.46-3.93c1.55-1.62,3.44-2.92,4.63-4.88
		c6.74-5.9,12.76-12.53,19.09-18.85c1.4-1.4,2.82-2.78,4.3-4.09c1.8-1.59,3.57-3.09,2.58-5.93c-0.26-0.75-0.18-1.7,0.52-2.38
		c2.41-2.34,4.49-5.03,7.37-7.03c1.09,2.2-0.2,5.06,1.51,6.55c1.66,1.46,4.41,0.35,7.33,1.56c-4.41,2.37-5.44,8.42-11.78,7.64
		c-2.14-0.26-3.76,1.55-4.25,3.88c-1.44,1.52-3.69,2.19-4.58,4.3C131.63,130.1,129.66,132.05,127.68,133.99z"/>
	<path d="M73.85,167.93c-1.99,0.17-3.97-0.32-5.99,0.09c-1.47,0.3-2.12-0.83-2.29-2.19c2.57,0.45,3.08-0.7,2.31-2.92
		c-1.23-3.57-2.07-7.28-2.07-11.03c0.01-12.12,3.8-22.72,13.2-30.83c7.2-6.21,15.52-9.74,25.09-10.2c6.24-0.3,12.14,1.01,17.8,3.54
		c1.87,0.83,2.94,0.64,2.59-1.75c3.33,0.71,5.83,2.78,8.21,5.03c0.77,0.73,0.79,1.37,0.03,2.14c-1.26,1.27-2.25,3.13-3.75,3.75
		c-1.52,0.62-2.72-1.4-4.05-2.25c-23.18-14.69-53.02,0.51-54.48,27.85c-0.34,6.33,1.3,12.33,4.1,18
		C74.32,167.42,74.09,167.68,73.85,167.93z"/>
	<path d="M133.61,128.15c0.89-2.11,3.14-2.78,4.58-4.3c1.97-0.17,2.45,1.56,3.26,2.71c1.23,1.76,2.62,3.47,3.05,5.67
		c-1.05,0.36-1.86-0.57-2.8-0.72c-0.41,1.09,0.24,1.77,0.58,2.5c3.13,6.81,4.67,14,3.55,21.4c-3.09,20.47-17.88,32.88-37.36,35.03
		c-2.48,0.27-3.24,0.81-2.64,3.12c-1.31,0.29-1.89-0.62-2.36-1.55c-0.89-1.76-1.82-3.48-3.34-4.81c-0.4-0.35-0.93-0.86-0.46-1.42
		c0.23-0.27,0.83-0.32,1.26-0.31c1.79,0.02,3.58,0.2,5.36,0.15c13.74-0.43,24.33-6.51,30.77-18.62c6.32-11.91,5.49-23.91-1.58-35.43
		C134.79,130.47,133.67,129.59,133.61,128.15z"/>
	<path d="M182.71,80.97c-1.63,0.03-1.91-1.13-1.71-2.29c0.22-1.23,1.28-0.64,2.09-0.64c6.41,0.03,12.82,0.02,19.5,0.02
		c-0.73-1.1-2.3-0.28-2.51-1.37c-0.17-0.89,0.17-1.86,0.15-2.8c-0.1-4.9,1.9-8.81,5.69-11.75c8.25-6.39,7.66-19.72,0.74-26.12
		c-8.44-7.81-20.43-7.39-27.68,1.05c-5.58,6.49-5.36,17.88,0.8,23.82c4.17,4.02,6.9,8.39,6.45,14.38c-0.08,1.02,0.05,1.82-1.34,1.87
		c-1.37,0.05-1.54-0.69-1.5-1.77c0.17-4.71-1.66-8.38-4.99-11.8c-10.94-11.2-6.86-29.66,8.11-34.78c9.48-3.24,20.09,0.72,25.16,9.09
		c5.03,8.3,3.88,19-3.51,25.85c-3.86,3.58-5.19,7.64-5.31,12.51c-0.02,0.71-0.39,1.44,0.84,1.65c2.51,0.42,1.63,1.65,0.55,2.85
		C197.06,80.74,189.88,80.55,182.71,80.97z"/>
	<path d="M124.5,112.64c0.35,2.38-0.72,2.58-2.59,1.75c-5.66-2.53-11.56-3.84-17.8-3.54c-9.57,0.46-17.89,3.99-25.09,10.2
		c-9.41,8.11-13.2,18.71-13.2,30.83c0,3.75,0.84,7.46,2.07,11.03c0.77,2.23,0.26,3.37-2.31,2.92c-4.33-10.13-4.2-20.38-0.32-30.53
		c8.34-21.85,32.27-32.85,54.39-25.21C121.39,110.7,123.04,111.49,124.5,112.64z"/>
	<path class="st3" d="M292.6,109.29c2.98-0.91,6.11-0.57,9.15-1.04c0.98-0.15,1.41,0.3,1.05,1.34c-0.97,2.76-1.89,5.53-2.88,8.27
		c-0.21,0.59-0.43,1.4-1.25,1.31c-0.59-0.06-0.88-0.7-1.02-1.25c-0.88-3.29-2.24-2.47-4.48-0.97
		c-20.36,13.71-42.63,19.39-67.07,15.41c-2.68-0.44-5.27-1.39-7.92-2.01c-2.21-0.52-4.26-1.51-6.79-0.66
		c-1.97,0.66-3.94-0.41-4.69-2.63c-0.53-1.56,0.08-2.89,1.64-3.43c2.1-0.73,4.33-0.74,5.29,1.66c0.81,2.02,2.34,2.46,4.08,2.95
		c26.24,7.37,50.38,2.32,72.92-12.27c1.33-0.86,3.23-1.38,3.9-2.59C295.37,111.86,292.63,111.11,292.6,109.29z"/>
	<path d="M105.81,193.57c-0.6-2.31,0.16-2.85,2.64-3.12c19.49-2.15,34.27-14.56,37.36-35.03c1.12-7.4-0.42-14.58-3.55-21.4
		c-0.33-0.73-0.99-1.41-0.58-2.5c0.95,0.15,1.75,1.08,2.8,0.72c8.92,16.82,4.47,38.25-10.49,51.06c-7.35,6.29-15.78,9.77-25.4,10.46
		C107.66,193.82,106.73,193.91,105.81,193.57z"/>
	<path d="M203.72,82.02c0.12,0.25,0.41,0.57,0.33,0.73c-1.38,3.02-1.8,6.56-4.59,8.81c-2.74,2.22-11.14,1.12-13.29-1.78
		c-0.85-1.14-3.09-1.6-2.05-3.78c5.67-0.27,11.38,0.27,17.03-0.31c-0.01-0.26-0.02-0.52-0.03-0.77c-5.75,0-11.51,0-17.26,0
		c-1.8-0.53-1.77-1.55-0.75-2.83C189.98,82.06,196.85,82.04,203.72,82.02z"/>
	<path d="M198.15,57.05c-3.67,2.45-7.07,0.57-10.37-0.18c-0.57,1.14,0.11,1.71,0.52,2.21c4.08,4.93,3.89,10.8,3.85,16.67
		c-0.01,1.05-0.39,1.29-1.29,1.32c-0.97,0.03-1.37-0.39-1.31-1.35c0.04-0.56-0.08-1.14-0.03-1.69c0.48-5.06-0.71-9.68-3.41-14
		c-0.93-1.49-2.56-3.48-0.77-5.07c1.69-1.51,4.18-1.19,6.12-0.1c1.34,0.75,2.28,0.89,3.55,0.06c1.04-0.68,2.28-0.91,3.53-0.78
		c2.38,0.25,3.42,1.89,2.2,3.94c-3.16,5.3-4.33,10.97-3.86,17.06c0.07,0.9,0.32,1.89-1.24,1.93c-1.47,0.04-1.32-0.82-1.42-1.8
		C193.57,68.9,194.29,62.85,198.15,57.05z"/>
	<path class="st3" d="M267.77,118.68c-2.13-2.38-3.91-4.44-5.77-6.43c-1.09-1.16-0.91-1.71,0.67-1.91c1.75-0.22,3.15-0.79,2.63-3.04
		c-0.1-0.43,0.04-0.98,0.61-1.13c0.68-0.18,1.18,0.21,1.27,0.8c0.33,2.26,1.86,2.43,3.7,2.4c2-0.03,2.24,0.93,1.13,2.47
		C270.47,113.95,268.91,116.05,267.77,118.68z"/>
	<path class="st3" d="M91.88,253.1c2.91,0.79,5.49,1.61,7.95,2.77c1.37,0.64,1.35,1.16,0.91,2.87c-0.94,3.73-4.11,3.23-6.34,4.5
		c-0.98,0.56-1.36,0.19-1.47-0.79C92.58,259.4,92.24,256.35,91.88,253.1z"/>
	<path class="st3" d="M206.49,26.29c-0.89,0-1.33-0.59-0.92-1.26c1.9-3.11,3.89-6.16,5.9-9.19c0.27-0.41,0.84-0.37,1.28-0.08
		c0.45,0.3,0.57,0.76,0.31,1.22c-1.76,3.2-3.93,6.13-6.08,9.08C206.9,26.18,206.67,26.21,206.49,26.29z"/>
	<path class="st3" d="M194.05,16.67c-0.07,1.59-0.11,3.19-0.24,4.77c-0.04,0.52-0.13,1.24-0.85,1.26c-0.73,0.03-0.81-0.62-0.89-1.19
		c-0.46-3.08-0.24-6.18-0.23-9.27c0-0.75,0.32-1.32,1.16-1.25c0.86,0.07,0.98,0.76,0.98,1.45c0.02,1.41,0,2.81,0,4.22
		C194.01,16.66,194.03,16.66,194.05,16.67z"/>
	<path class="st3" d="M161.76,49.69c-1.4-0.07-2.8-0.13-4.2-0.22c-0.68-0.05-1.38-0.26-1.38-1.08c-0.01-0.74,0.69-0.85,1.23-0.85
		c2.99,0.03,5.98,0.11,8.97,0.2c0.74,0.02,1.3,0.39,1.26,1.19c-0.04,0.83-0.66,1.01-1.4,1c-1.49-0.02-2.99-0.01-4.48-0.01
		C161.76,49.84,161.76,49.77,161.76,49.69z"/>
	<path class="st3" d="M226.96,30.88c-0.35,0.16-0.81,0.32-1.22,0.56c-2.58,1.55-5.13,3.15-7.72,4.68c-0.64,0.38-1.47,0.78-2-0.08
		c-0.57-0.91,0.27-1.36,0.89-1.75c2.39-1.49,4.8-2.97,7.22-4.42C225.05,29.32,226,29.01,226.96,30.88z"/>
	<path class="st3" d="M180.4,24.85c-0.06,0.12-0.16,0.54-0.29,0.55c-0.33,0.03-0.8-0.03-0.99-0.25c-2.21-2.54-3.76-5.51-5.39-8.43
		c-0.27-0.48-0.07-0.96,0.4-1.16c0.29-0.13,0.72-0.08,1.04,0.03C175.79,15.82,180.43,23.98,180.4,24.85z"/>
	<path class="st3" d="M170.96,35.38c-0.1,0.78-0.64,0.96-1.21,0.63c-2.75-1.61-5.47-3.28-8.19-4.95c-0.43-0.26-0.66-0.68-0.39-1.19
		c0.23-0.46,0.65-0.8,1.13-0.56c3.03,1.51,5.81,3.41,8.41,5.57C170.85,34.99,170.88,35.21,170.96,35.38z"/>
	<path class="st3" d="M225.08,49.41c-1.4,0-2.8,0.03-4.2-0.01c-0.74-0.02-1.64-0.07-1.62-1.1c0.03-0.97,0.91-0.75,1.51-0.76
		c2.89-0.02,5.79,0,8.68,0c0.67,0,1.41-0.01,1.47,0.88c0.05,0.92-0.71,0.98-1.37,0.99c-1.49,0.03-2.98,0.01-4.48,0.01
		C225.08,49.42,225.08,49.42,225.08,49.41z"/>
	<path class="st3" d="M203.72,82.02c-6.87,0.02-13.74,0.04-20.61,0.06c-0.13-0.37-0.27-0.74-0.4-1.11
		c7.17-0.42,14.35-0.23,21.53-0.22C203.93,81.12,203.61,81.48,203.72,82.02z"/>
	<path class="st3" d="M183.86,84.91c5.75,0,11.51,0,17.26,0c0.01,0.26,0.02,0.52,0.03,0.77c-5.65,0.58-11.36,0.04-17.03,0.31
		C184.04,85.64,183.95,85.27,183.86,84.91z"/>
	<path class="st3" d="M111.53,142.5c-1.19,1.96-3.09,3.26-4.63,4.88c-0.99,1.04-2.13,1.97-1.46,3.93c-2.01-1.2-2.05-2.25-0.63-3.54
		c2.09-1.91,3.91-4.06,5.58-6.35C111.16,141.36,111.44,141.83,111.53,142.5z"/>
	<path class="st3" d="M146.65,80.43c-0.31-0.23-0.64-0.38-0.84-0.64c-0.34-0.44-0.14-0.91,0.17-1.26c1.19-1.33,2.68-2.28,4.24-3.11
		c0.26-0.14,0.72-0.07,1,0.07c0.36,0.18,0.45,0.63,0.2,0.95C150.15,78.08,148.4,79.14,146.65,80.43z"/>
	<path class="st3" d="M102.02,263.15c1.48,1.01,3.39,1.67,4.59,3.27c0.53,0.71-0.12,1.46-0.79,1.27c-1.91-0.54-3.46-1.76-4.66-3.33
		C100.7,263.76,101.18,263.34,102.02,263.15z"/>
	<path class="st3" d="M111.12,268.94c1.62,0.7,3.17,1.32,4.67,2.03c0.4,0.19,0.69,0.65,0.52,1.17c-0.17,0.5-0.62,0.79-1.08,0.66
		c-1.7-0.48-3.33-1.14-4.77-2.18c-0.42-0.3-0.59-0.77-0.25-1.2C110.4,269.17,110.8,269.09,111.12,268.94z"/>
	<path class="st3" d="M131.91,96.41c-0.85-0.1-0.97-0.69-0.64-1.38c0.68-1.43,1.47-2.82,2.66-3.9c0.48-0.43,1.15-0.87,1.52,0.15
		C135.77,92.16,132.91,96.36,131.91,96.41z"/>
	<path class="st3" d="M124.17,275.58c-0.97-0.29-2.77-0.12-4.04-1.43c-0.28-0.29-0.3-0.86,0.03-0.97c1.68-0.53,3.25,0.3,4.87,0.57
		c0.7,0.11,1.64,0.14,1.33,1.29C126.14,275.85,125.47,275.86,124.17,275.58z"/>
	<path class="st3" d="M259.22,92.1c-0.12,0.97-0.56,1.36-1.29,0.76c-1.37-1.13-2.56-2.44-3.46-3.99c-0.2-0.34-0.29-0.68,0.04-1
		c0.31-0.3,0.68-0.32,1.02-0.11C257.24,88.84,258.3,90.45,259.22,92.1z"/>
	<path class="st3" d="M138.54,87.5c-0.48-0.14-0.88-0.38-0.79-0.96c0.04-0.26,0.2-0.53,0.37-0.75c1.15-1.47,2.22-3.05,4.23-3.45
		c0.13-0.03,0.54,0.44,0.5,0.54c-0.79,1.87-2.38,3.08-3.78,4.45C138.95,87.45,138.72,87.45,138.54,87.5z"/>
	<path class="st3" d="M168.59,265.58c-0.17-0.06-0.48-0.08-0.66-0.25c-0.3-0.26-0.4-0.65-0.06-0.97c1.27-1.22,2.41-2.64,4.24-3.07
		c0.37-0.09,0.82,0.34,0.7,0.69c-0.64,1.83-2.46,2.42-3.85,3.45C168.87,265.49,168.77,265.5,168.59,265.58z"/>
	<path class="st3" d="M153.49,216.74c-0.06,0.84-0.64,1.16-1.33,0.79c-1.75-0.96-3.14-2.33-3.84-4.25c-0.13-0.35,0.33-0.8,0.69-0.63
		c1.82,0.82,3.14,2.27,4.39,3.78C153.47,216.49,153.46,216.6,153.49,216.74z"/>
	<path class="st3" d="M179.05,254.04c0.97-0.05,1.33,0.48,1.14,1.23c-0.13,0.51-0.5,1.02-0.9,1.38c-0.99,0.89-1.56,2.46-3.24,2.3
		c-0.49-0.04-0.76-0.68-0.54-1.12C176.3,256.18,177.61,254.99,179.05,254.04z"/>
	<path class="st3" d="M235.21,71.87c0.01,0.8-0.56,0.99-1.12,0.83c-0.71-0.2-1.46-0.5-2.02-0.96c-0.92-0.75-3.27-0.71-2.53-2.24
		c0.55-1.14,2.34,0.22,3.51,0.66C233.9,70.48,234.78,70.93,235.21,71.87z"/>
	<path class="st3" d="M133.88,276.82c-0.93-0.41-3.08,0.58-3.01-1.19c0.07-1.7,2.12-0.69,3.28-0.93c0.27-0.06,0.57-0.04,0.84,0.03
		c0.74,0.19,1.97-0.26,2.01,0.93c0.06,1.41-1.24,1.04-2.1,1.16C134.63,276.85,134.35,276.82,133.88,276.82z"/>
	<path class="st3" d="M261.9,96.68c1.43,0.55,1.81,1.87,2.29,3.03c0.34,0.8,1.07,1.6,0.49,2.59c-0.08,0.13-0.35,0.29-0.46,0.25
		c-1.51-0.65-1.78-2.27-2.6-3.46c-0.4-0.58-1-1.21-0.4-2C261.38,96.9,261.67,96.82,261.9,96.68z"/>
	<path class="st3" d="M161.57,223.97c-0.29,0.97-0.99,0.9-1.55,0.52c-1.44-0.98-3.27-1.55-3.87-3.45c-0.11-0.34,0.14-0.89,0.53-0.83
		c1.98,0.28,3.15,1.86,4.54,3.05C161.41,223.42,161.46,223.74,161.57,223.97z"/>
	<path class="st3" d="M139.68,200.67c-0.04,0.66-0.26,1.02-0.83,1.03c-1.1,0.04-3.21-2.76-3.06-4.01c0.07-0.56,0.38-0.97,0.9-0.75
		C138.38,197.66,139.08,199.2,139.68,200.67z"/>
	<path class="st3" d="M160.83,70.56c-0.36,1.17-4.28,3.34-5.1,3.1c-1.06-0.31-1.09-1.05-0.4-1.65c1.27-1.13,2.84-1.78,4.51-2.05
		C160.44,69.85,160.95,70.13,160.83,70.56z"/>
	<path class="st3" d="M129.35,101.15c-0.06,0.25-0.1,0.53-0.21,0.78c-0.61,1.41-0.79,3.1-2.34,3.95c-0.4,0.22-0.88-0.16-0.87-0.43
		c0.11-1.79,0.9-3.34,1.96-4.74c0.19-0.25,0.62-0.45,0.93-0.43C129.27,100.29,129.3,100.76,129.35,101.15z"/>
	<path class="st3" d="M151,273.15c1.41-1.65,3.26-1.72,4.92-2.21c0.39-0.11,0.75,0.03,0.89,0.47c0.13,0.4,0.04,0.82-0.36,0.95
		C154.77,272.9,153.15,274.08,151,273.15z"/>
	<path class="st3" d="M252.04,84.23c-0.07,0.73-0.59,0.98-1.15,0.58c-1.37-0.96-2.84-1.84-3.82-3.25c-0.39-0.56-0.28-1.09,0.45-1.27
		C248.27,80.12,252.04,83.4,252.04,84.23z"/>
	<path class="st3" d="M239.7,74.28c1.4,0.64,3.02,1.36,4.2,2.76c0.31,0.37,0.38,0.85,0.01,1.27c-0.31,0.35-0.72,0.26-1.01,0.06
		c-1.33-0.86-2.65-1.74-3.93-2.67c-0.24-0.17-0.38-0.65-0.35-0.96C238.66,74.34,239.04,74.16,239.7,74.28z"/>
	<path class="st3" d="M142.42,205.27c1.41,0.83,2.73,1.82,3.41,3.43c0.06,0.14,0.03,0.43-0.07,0.52c-0.77,0.62-1.44,0.23-1.9-0.39
		c-0.77-1.03-2.43-1.55-1.99-3.3C141.89,205.42,142.17,205.38,142.42,205.27z"/>
	<path class="st3" d="M144.98,273.83c0.78,0.14,2.27-0.39,1.95,0.73c-0.48,1.68-2.49,1.18-3.86,1.54c-0.71,0.19-1.87,0.04-1.6-0.9
		C141.99,273.44,143.82,274.26,144.98,273.83z"/>
	<path class="st3" d="M160.96,270.52c-0.82-0.04-1.53-0.26-1.18-0.95c0.83-1.64,2.68-1.87,4.17-2.54c0.45-0.2,1.04,0.34,0.82,0.8
		C163.96,269.45,162.31,269.94,160.96,270.52z"/>
	<path class="st3" d="M165.89,226.46c1.21,0.58,2.51,1.31,3.52,2.43c0.27,0.29,0.31,0.74-0.01,1c-1.04,0.85-1.73-0.16-2.44-0.6
		c-0.88-0.55-2.18-0.86-2.07-2.29C164.92,226.64,165.31,226.41,165.89,226.46z"/>
	<path class="st3" d="M165.82,69c-0.61-0.06-1.56,0.06-1.38-0.61c0.48-1.74,2.18-1.76,3.61-2.01c0.51-0.09,1.44,0.01,1.17,0.69
		C168.63,68.52,167.08,68.66,165.82,69z"/>
	<path class="st3" d="M134.52,192.26c0.02,0.77-0.15,1.43-0.87,1.2c-1.39-0.45-1.85-1.76-2.24-3c-0.19-0.59,0.19-1.35,0.75-1.23
		C133.77,189.58,134.01,191.13,134.52,192.26z"/>
	<path class="st3" d="M74.55,167.17c0.16,0.29,0.45,0.58,0.14,0.92c-0.33,0.36-0.59,0.1-0.83-0.15
		C74.09,167.68,74.32,167.42,74.55,167.17z"/>
	<path class="st4" d="M526.76,327.38c-3.3,3.42-6.59,6.86-9.91,10.27c-2.3,2.37-4.87,4.44-7.52,6.4c-1.81,1.34-2.66,0.52-2.64-1.4
		c0.03-2.7,1.32-5.09,2.24-7.54c3.24-8.62,6.02-17.39,8.37-26.37c-3.98,8.01-7.95,16.02-12.16,24.5c-1.35-2.74-1.58-5.03-1.69-7.19
		c-0.71-14.27-0.27-28.43,4.3-42.19c3.13-9.43,8.17-17.13,17.85-21.02c-4.78,0.65-8.44,3.28-11.51,6.66
		c-8.04,8.84-11.39,19.8-13.53,31.22c-1.32,7.04-1.77,14.18-1.81,21.99c-5.33-6.43-5.81-13.86-7.04-21.03
		c-0.67,8.91-0.31,17.68,1.58,26.42c2.01,9.31,1.47,18.52-2.61,27.33c-0.34,0.74-0.31,1.65-0.58,2.43
		c-0.49,1.44-1.59,1.98-2.93,2.81c-4.94,3.07-10.23-0.03-15.13,1.55c-1.22,0.39-2.2-0.3-2.97-1.22c-2-2.37-4.06-4.71-5.95-7.17
		c-3.12-4.06-7.09-6.99-11.64-9.22c-2.47-1.22-4.72-2.74-6.66-4.72c-0.96-0.97-0.94-1.61-0.17-2.86
		c7.03-11.4,14.89-22.23,22.45-33.25c1.57-2.29,3.56-3.05,6.09-3.2c3.85-0.22,7.7-0.59,11.56-0.7c1.59-0.04,2.5-0.84,2.42-2.1
		c-0.09-1.38-1.55-0.7-2.33-0.65c-3.66,0.24-7.31,0.64-10.96,1.01c-1.94,0.2-2.71-0.18-1.5-2.21c3.71-6.24,7.32-12.53,10.99-18.79
		c3.86-6.58,3.87-6.57-2.33-11.18c-0.66-0.49-1.29-1.04-2.18-1.75c2.21-1.43,4.51-1.82,6.75-2.28c1.74-0.36,2.55-1.1,2.45-3.04
		c-0.32-5.86,0.63-11.65,1.14-17.46c0.1-1.17,0.33-1.91,1.69-1.1c13.53,8.1,28.17,14.04,41.92,21.72c3.54,1.98,5.82,5.02,7.23,8.75
		c4.63,12.21,6.68,25.03,9.39,37.74c1.79,8.38-0.64,14.83-4.93,21.43c-4.06,6.24-7.86,12.64-12.65,18.38
		c-0.78,0.94-1.49,1.51-2.78,1.56c-6.6,0.24-12.8,2.06-18.65,5.08c-0.76,0.39-1.57,0.91-2.3,0.07c-0.61-0.72-0.45-1.62-0.08-2.41
		c0.88-1.92,2.33-3.42,3.79-4.89c5.05-5.09,9.98-10.27,13.95-16.29c0.7-1.06,1.31-2.18,1.96-3.27
		C527.42,327.92,527.09,327.65,526.76,327.38z M527.81,262.23c-0.17-0.07-0.32-0.19-0.46-0.18c-0.17,0.02-0.56-0.05-0.34,0.34
		c0.05,0.09,0.31,0.11,0.46,0.08C527.59,262.46,527.69,262.33,527.81,262.23z"/>
	<path class="st4" d="M328.35,305.62c3.09,0.57,5.48,2.38,7.67,4.48c1.67,1.6,3.25,3.29,5.07,4.75
		c-2.01-6.96-7.21-11.05-13.15-14.41c0.63-1.63,2.16-1.66,3.22-2.31c5.77-3.49,10.46-8.32,15.73-12.42
		c8.49-6.61,14.39-15.37,20.33-24.08c3.05-4.47,6.62-7.74,12.07-9c9.64-2.23,18.87-5.84,28.19-9.13c0.68-0.24,1.4-0.39,2.88-0.79
		c-2.26,2.83-3.99,5.12-5.84,7.3c-2.14,2.51-4.35,4.97-6.61,7.37c-1.06,1.13-1.32,1.91,0.21,2.84c1.27,0.77,2.41,1.76,3.92,2.89
		c-2.56,0.89-4.83,1.69-7.11,2.47c-1.46,0.49-2.4,1.29-2.51,3c-0.54,8.46-1.27,16.9-1.67,25.36c-0.11,2.26-0.93,2.97-2.94,3.09
		c-5.17,0.31-10.34,0.63-15.5,1.04c-1.8,0.15-1.51-0.99-1.43-1.98c0.38-4.69,0.69-9.39,1.23-14.06c0.78-6.81,1.33-13.66,2.8-21.08
		c-1.3,1.46-1.44,2.7-1.75,3.83c-2.43,8.71-4.03,17.59-5.77,26.45c-0.71,3.59-1.87,7.09-2.76,10.66c-0.3,1.22-1.15,1.31-2.13,1.39
		c-2.15,0.18-4.33-0.02-6.47,0.52c-4.32,1.09-6.52,4.78-5.1,9.05c2.85,8.58,5.8,17.13,8.72,25.7c0.4,1.17,1.01,2.42-0.72,3.05
		c-11.48,4.2-22.82,8.97-35.22,9.88c-6.6,0.48-12-2.77-17.36-5.96c-17.32-10.34-34.35-21.15-51.14-32.34
		c-1.54-1.02-3.12-2.01-4.19-3.26c15.89-6.68,22.55-19.53,24.7-35.9c2.15,1.62,4.32,3.18,6.42,4.84
		c8.59,6.78,17.85,12.57,27.39,17.83c6.4,3.53,9.86,8.7,11.47,15.51c1.72,7.27,2.87,14.59,1.78,22.09
		c-0.12,0.81-0.02,1.66-0.02,3.13c2.03-4.14,2.28-8.06,2.68-11.86c0.52-4.97,0.23-9.97-0.94-14.88c-0.17-0.71-0.05-1.5-0.06-2.25
		l-0.03,0.04c6.04,4.74,8.16,11.48,9.57,18.6c0.09,0.46,0.07,0.94,0.15,1.4c0.1,0.56,0.25,1.21,0.92,1.23
		c0.74,0.03,0.77-0.71,0.91-1.22c0.8-3.03,0.03-5.96-0.6-8.9c-1.13-5.24-4.38-9.44-6.94-13.98L328.35,305.62z"/>
	<path class="st5" d="M405.51,302.3c3.31,0.48,6.56-0.29,9.84-0.49c7.08-0.43,9.56,1.34,11.76,8.11
		c4.04,12.45,8.22,24.85,12.33,37.28c0.29,0.87,0.47,1.78,0.78,2.97c-4.14-0.85-7.77-2.31-11.45-3.61
		c-5.15-1.82-10.19-3.96-15.56-5.1c-1.96-0.42-3.94-0.5-5.88,0.04c-2.42,0.68-2.09,3.78-3.46,4.61c-1.76,1.06-3.79,1.44-4.42,3.76
		c-0.77,2.82,0.46,5,2.41,6.8c1.37,1.26,2.15,2.25,1.49,4.45c-0.86,2.85,0.89,5.31,2.97,7.2c1.53,1.39,2.57,2.58,1.89,4.95
		c-0.64,2.23,0.73,4.19,2.25,5.83c7.8,8.41,17.45,13.23,28.77,14.79c0.58,0.08,1.34-0.24,1.79,0.95c-4.76,0.21-9.38,0.41-14,0.6
		c-12.81,0.53-25.62,1.03-38.42,1.58c-2.59,0.11-6.02-2.6-7.19-6.01c-2.83-8.19-5.57-16.41-8.38-24.61
		c-5.87-17.11-11.76-34.21-17.64-51.31c-0.31-0.89-0.69-1.76-0.95-2.66c-0.83-2.87,0.3-5.04,3.21-5.42
		c4.01-0.53,8.07-0.66,12.11-1.01c1.05-0.09,1.48,0.3,1.73,1.32c0.52,2.2,1.23,4.35,1.82,6.54c0.6,2.24,2.04,3.36,4.34,3.18
		c8.65-0.64,17.29-1.27,25.93-2c2.56-0.22,3.38-1.61,2.74-4.13c-0.69-2.72-1.43-5.43-2.15-8.15
		C404.62,302.61,405.07,302.46,405.51,302.3z"/>
	<path class="st5" d="M461.13,210.49c-1.2,0.18-1.91,1.27-2.87,1.91c-7.58,5-15.52,9.27-24.27,11.87c-1.61,0.48-3.3,0.81-4.98,0.92
		c-7.48,0.48-9.83-1.23-12.33-8.3c-1.28-3.63-2.71-7.24-4.38-10.71c-4.41-9.16-5.54-18.52-2.03-28.16c0.69,1.56,1.14,3.69,3.7,3.6
		c2.55-0.09,2.96-2.19,3.64-3.97c2.6,0.7,2.8,2.2,1.95,4.4c-0.92,2.38-1.94,4.69-3.28,6.86c-2.9,4.7-1.35,7.51,4.35,7.86
		c0-0.18,0.07-0.41-0.01-0.53c-1-1.47-3.18-2.14-3.42-3.99c-0.22-1.74,1.68-2.81,2.28-4.39c1.74-4.58,3.27-9.18,1.82-14.32
		c-1.08,0.66-0.53,1.43-0.63,2.06c-0.12,0.74-0.09,1.5-0.15,2.58c-1.14-1.23-2.02-2.37-3.09-3.29c-2.03-1.73-4.3-2.36-6.74-0.8
		c-1.01,0.64-1.97,1.12-2.17-0.56c-0.16-1.27-1.66-3.04,0.82-3.71c2.02-0.55,4.1-0.51,6.18-0.5c1.04,0.01,2.54,0.42,2.58-1.32
		c0.04-1.58-0.41-3.04-2.41-3.22c-2.48-0.22-4.87,0.44-7.53,0.73c0.09-4.48,0.61-8.83,2.6-12.9c0.73-1.49,1.89-2.59,3.38-3.29
		c0.85-0.4,1.72-0.91,2.62-1.02c13.1-1.49,26.2-3.23,39.23,0.67c1.79,0.54,2.13,1.37,1.85,3.03c-0.29,1.76-0.34,3.56-0.49,5.34
		c-0.32,3.8,0.72,7.18,3.56,9.73c3.85,3.46,4.67,7.76,4.06,12.6c-0.1,0.75-0.14,1.51-0.12,2.26c0.03,1.03-0.54,2.4,1.34,2.49
		c1.47,0.07,2.95,0.59,3.62-1.55c1.46-4.68,4.28-8.14,9.27-9.4c4.07-1.03,6.47,0.26,7.91,4.26c2.49,6.91-1.96,16.93-8.76,19.74
		c-3.23,1.34-6.25,0.72-9.33-1.03c-0.82,1.97-1.6,3.86-2.38,5.76c0.24,0.14,0.37,0.29,0.5,0.29c3.95-0.2,3.95-0.2,3.45,3.56
		c-0.59,4.5-0.81,9.02-0.23,13.54c0.34,2.64,0.02,4.95-2,6.99c-8.42,8.5-18.54,14.11-29.88,17.55c-2.64,0.8-4.72-1.21-6.32-2.97
		c-1.5-1.65-0.57-3.96-0.46-5.98c0.03-0.63,0.81-0.72,1.36-0.77c8.57-0.84,14.28-6.34,19.68-12.23c3.06-3.33,5.98-6.79,8.56-10.52
		C461.4,211.34,461.6,210.98,461.13,210.49z M426.33,211.72c5.42-0.23,9.61-2.81,13.1-6.82c0.88-1.01,1.09-3,3.22-2.54
		c0.3,0.06,0.57-0.43,0.44-0.87c-0.27-0.95-0.82-1.69-1.7-2.15c-0.33-0.17-0.82-0.33-0.93,0.15c-0.55,2.5-2.77,2.25-4.44,2.51
		c-6.32,1-12.67,1.95-19.08,0.64c-0.62-0.13-1.16-0.11-1.4,0.53c-0.25,0.65-0.28,1.5,0.52,1.62c1.63,0.23,2.09,1.48,2.63,2.65
		C420.22,210.72,422.93,211.77,426.33,211.72z M449.68,177.43c-3.09-1.71-5.58-4.51-9.4-4.8c-4.46-0.34-7,1.53-7.33,5.69
		c1.56-1.58,2.36-1.17,2.95,0.75c0.5,1.61,1.92,2.19,3.59,2.14c1.77-0.06,2.71-1.12,3.25-2.65c0.24-0.69,0.36-1.42,0.56-2.2
		C445.44,177.07,447.26,179.05,449.68,177.43z M451.59,169.52c-4.17-5.71-13.94-8.21-20.06-5.49c-1.36,0.6-1.47,1.65-1.22,2.78
		c0.37,1.67,1.7,1.92,3.09,1.58C439.56,166.88,445.63,166.62,451.59,169.52z M473.52,191.06c2.49,0.43,4.24-0.22,5.49-1.89
		c1.33-1.79,1.2-3.83-0.11-5.51c-1.1-1.41-0.69-2.29,0.3-3.38c1.86-2.04,3.43-1.67,4.7,1.04c0.95-3.58-0.54-5.2-3.4-4.4
		c-1.87,0.52-3.41,1.59-4.55,3.16c-1.23,1.69-2.11,3.38-0.08,5.2c1,0.89,0.86,2.03,0.05,3.03
		C475.23,189.16,474.49,189.95,473.52,191.06z M424.02,194.44c2.13,0.58,4.28,2.02,6.34,0.19
		C428.23,194.84,426.13,192.89,424.02,194.44z"/>
	<path class="st5" d="M436.77,363.1c-1.24-1.95-2.97-2.49-4.58-3.11c-7.59-2.89-14.65-6.9-21.98-10.33
		c-0.59-0.28-1.15-0.65-1.66-1.06c-0.96-0.78-1.4-1.8-0.92-3.01c0.45-1.12,1.44-1.42,2.54-1.4c2.78,0.04,5.36,1.01,7.93,1.91
		c4.8,1.67,9.58,3.41,14.36,5.16c5.66,2.07,11.52,3.12,17.82,3.95c-1.58-3.24-5.68-2.97-6.74-6.1c-0.92-2.74-1.86-5.47-2.81-8.26
		c0.51-0.41,0.98-0.03,1.35,0.39c2.81,3.17,6.39,5.26,10.08,7.18c4.22,2.19,7.42,5.48,10.17,9.22c3.3,4.49,6.66,8.78,12.89,8.98
		c1.28,0.04,1.49,0.96,1.76,1.86c2.18,7.21,2.36,14.45,0.41,21.76c-0.34,1.28-0.81,1.87-2.08,1.46c-2.09-0.67-4.61,0.26-6.32-2.14
		c-0.61-0.84-2.51-0.09-3.79,0.14c-9.07,1.66-18.19,2.24-27.26,0.26c-8.74-1.91-16.95-5.11-23.6-11.44
		c-2.04-1.94-2.52-2.79-3.13-5.21c0.78-0.47,1.17,0.25,1.64,0.59c5.69,4.17,11.96,7.11,18.84,8.71c0.59,0.14,1.47,1.07,1.89-0.13
		c0.31-0.91-0.54-1.35-1.21-1.64c-2.24-0.99-4.46-2.03-6.76-2.84c-6.76-2.39-12.08-6.84-17.11-11.73c-0.73-0.71-1.34-1.59-1.86-2.48
		c-0.54-0.92-0.88-2.12,0.08-2.84c0.8-0.6,1.49,0.45,2.12,0.89c7.21,5.07,14.82,9.32,23.46,11.45c0.74,0.18,1.68,0.93,2.15-0.32
		c0.43-1.15-0.6-1.44-1.32-1.79c-4.57-2.23-9.47-3.67-13.92-6.2c-4.93-2.8-9.66-5.88-14.03-9.49c-1.52-1.26-3.87-2.78-2.35-5.04
		c1.58-2.36,3.59-0.25,5.17,0.62c7.76,4.25,15.43,8.69,23.92,11.4C433.33,362.9,434.74,363.5,436.77,363.1z"/>
	<path class="st4" d="M473.85,261.42c0.78,2.67,3.35,3.64,5.17,5.27c6.51,5.83,5.78,3.35,1.77,10.27
		c-10.69,18.43-23.67,35.34-35.56,52.98c-0.68,1.01-1.21,2.14-1.97,3.1c-0.7,0.89-0.97,2.73-2.41,2.3c-1.24-0.37-2.1-1.63-2.78-2.98
		c-2.18-4.31-2.13-8.46-0.3-12.91c3-7.3,5.61-14.77,8.81-22c5.86-13.22,12.36-26.11,19.5-38.68c0.63-1.1,1.11-2.25,2.71-1.84
		l-0.05-0.04c0.2,0.4,0.4,0.79,0.6,1.19c0,0-0.05-0.05-0.05-0.05c0.3,0.39,0.67,0.62,1.18,0.6l-0.04-0.03
		c0.21,1.32,1.05,2.01,2.29,2.29l-0.03-0.02c0.23,0.51,0.58,0.77,1.16,0.58L473.85,261.42z"/>
	<path class="st4" d="M369.62,367.45c2.54,7.38,5.38,14.67,7.53,22.16c2.12,7.4,7.37,11.11,14.05,13.34
		c2.33,0.78,3.26,1.82,2.92,4.19c-1.08,7.63-2.18,15.26-3.12,22.91c-0.45,3.62-1.74,7.09-1.58,10.81c0.09,2-1.13,3.03-3.05,2.58
		c-3.56-0.84-7.08-1.84-10.58-2.9c-1.89-0.57-3.77-1.24-5.53-2.11c-7.78-3.83-8.61-5.21-7.91-13.71c0.29-3.55,1.03-7.07,1.49-10.61
		c0.19-1.45,0.8-1.73,2.08-1.14c2.5,1.14,5.19,1.72,7.88,2.16c2.64,0.44,4.85-0.32,6.19-2.83c1.67-3.12,1.93-6.67,2.97-9.98
		c0.17-0.54,0.02-0.99-0.57-1.02c-0.58-0.04-0.69,0.5-0.83,0.96c-0.7,2.24-1.2,4.53-2.35,6.64c-1.35,2.48-3.05,3.51-6,2.79
		c-2.49-0.61-4.83-1.53-7.24-2.35c-1.96-0.67-2.44-1.95-1.8-3.71C368.65,393.27,368.5,380.3,369.62,367.45z"/>
	<path class="st5" d="M243.22,275.77c-8.92,3.35-17.11,1.66-25.46-2.66c1.36-0.44,2.38-0.71,3.35-1.11
		c3.56-1.47,4.39-4.19,2.31-7.45c-0.48-0.75-1.92-6.6-1.99-8.39c2.79,2.05,4.51,4.75,6.64,7.05c0.97,1.05,1.57,4.39,4.06,1.25
		c0.26-0.33,1.43,0.02,2.17,0.12c3.32,0.47,6.54,0.13,9.97-1.32c-1.08-0.67-1.97-0.26-2.78-0.27c-6.47-0.08-12.1-1.85-15.74-7.69
		c-1.03-1.66-2.12-2.96-4.3-1.61c-0.85,0.53-1.64-0.14-2.36-0.47c-5.29-2.43-10.41-5.3-16.3-6.11c-0.26-0.04-0.49-0.24-0.61-0.62
		c4.11-0.29,8.05,0.22,11.89,1.21c5.01,1.29,9.95,2.85,14.93,4.29c0.9,0.26,1.81,0.57,2.73,0.72c2.28,0.38,3.92-0.56,4.65-2.72
		c0.74-2.19-0.04-4.04-2.14-4.91c-2.34-0.97-4.82-1.58-7.25-2.32c-1.62-0.49-3.29-0.85-4.87-1.43c-1.83-0.68-2.89-2.05-1.93-3.97
		c0.81-1.6,1.7-3.43,4.25-2.58c2.94,0.98,5.97,1.71,8.94,2.62c5.79,1.79,10.49,5.06,13.64,10.34c1.21,2.02,2.6,3.97,3.51,6.12
		c2.07,4.86,4.74,9.2,9.12,12.31c0.95,0.68,1.61,1.47,1.32,2.83c-1.34,6.27-3.65,12.05-7.94,16.94c-1.09,1.24-1.99,1.46-3.29,0.36
		c-2.31-1.94-4.67-3.82-7.07-5.65c-1.46-1.11-2.36-2.1-0.35-3.53C242.73,276.85,242.92,276.24,243.22,275.77z"/>
	<path class="st4" d="M406.35,263.4c-2.08-1.29-3.56-2.26-5.08-3.15c-1.34-0.79-1.37-1.64-0.28-2.67
		c5.01-4.73,9.32-10.08,13.68-15.39c1.65-2.01,3.72-3.56,6.58-5.07c-1.2,3.64-2.07,6.86-3.31,9.94c-5.99,14.9-9.58,30.46-12.8,46.12
		c-0.3,1.44-0.7,2.18-2.42,2.43c-2.81,0.4-5.65,0.2-8.43,0.63c-1.98,0.3-1.37-1.17-1.31-1.99c0.39-5.81,0.86-11.62,1.33-17.43
		c0.17-2.15,0.48-4.3,0.58-6.45c0.08-1.76,0.97-2.68,2.55-3.29C400.24,266,402.99,264.79,406.35,263.4z"/>
	<path class="st4" d="M434.23,320.19c-1.75-4.42-3.29-8.54-4.53-12.78c-1.62-5.54-5.63-8.75-11.3-8.96
		c-2.18-0.08-2.48-0.73-1.91-2.71c2.39-8.25,5.82-16.1,9.09-24.01c0.07-0.17,0.15-0.35,0.22-0.52c2.19-5.4,2.17-5.27,7.88-4.31
		c2.07,0.35,2.23,1.38,2.39,3.04c1.34,13.74-0.15,27.47-0.09,41.2C436.01,314.17,436.05,317.15,434.23,320.19z"/>
	<path class="st5" d="M441.59,246.46c10.77-3.91,20.3-9.42,28.28-17.42c2.91-2.92,3.28-3.72,3.88-7.1c2.08,3.16,3.18,6.15,2.58,9.56
		c-0.76,4.33-2.89,8.15-4.99,11.91c-4.07,7.29-7.72,14.88-13.93,20.76c-1.46,1.38-2.08,1.76-3.45-0.32
		C450.07,257.98,445.81,252.35,441.59,246.46z"/>
	<path class="st5" d="M456.93,269.41c-6.08,12.41-12.39,24.72-18.03,37.47c0-2.64-0.11-5.29,0.02-7.92
		c0.49-9.71,0.73-19.42-0.09-29.12c-0.13-1.56,0.29-2.71,1.42-3.76c1.87-1.72,3.74-3.47,5.47-5.33c1.22-1.32,1.89-0.93,2.78,0.34
		c1.62,2.32,3.37,4.55,5.1,6.78c0.73,0.94,1.4,2.22,2.93,1.11C456.66,269.12,456.8,269.27,456.93,269.41z"/>
	<path class="st4" d="M453.85,413.4c-5.28,3.52-10.87,5.8-16.13,8.68c-4.2,2.3-8.64,4.17-12.95,6.27c-1.27,0.62-1.84,0.48-1.91-1.09
		c-0.29-6.59-0.6-13.18-0.46-19.78c0.03-1.47,0.45-2.31,2.11-2.25c6.41,0.23,12.68,0.49,18.1,4.93c1.93,1.58,5.08,1.68,7.68,2.42
		C451.36,412.88,452.45,413.08,453.85,413.4z"/>
	<path class="st4" d="M468.8,256.92c-1.6-0.94-0.7-1.92-0.14-3.02c2.95-5.67,6.46-11.05,8.91-16.98c0.89-2.17,1.66-4.39,2.12-7.05
		c4.13,3.86,8.04,7.42,6.59,13.79c-1.01,4.44-0.68,9-0.53,13.51c0.06,1.92-0.62,2.8-2.37,3.03c-3.17,0.43-6.1,2.77-9.52,1.22
		c0,0,0.03,0.02,0.03,0.02c-0.19-0.58-0.61-0.71-1.16-0.58c0,0,0.03,0.02,0.03,0.02c-0.15-1.38-1.14-1.91-2.29-2.29
		c0,0,0.04,0.03,0.04,0.03c-0.22-0.54-0.69-0.59-1.18-0.6c0,0,0.05,0.05,0.05,0.05c-0.01-0.49-0.15-0.92-0.6-1.19L468.8,256.92z"/>
	<path class="st5" d="M247.4,293.03c2.69,0.47,4.48-1.17,6.11-2.84c6.08-6.23,9.75-13.69,11.11-22.58c2.32,1.78,4.51,3.51,6.75,5.16
		c0.91,0.67,0.96,1.56,0.89,2.51c-0.79,10.34-5.25,18.87-12.75,25.92c-1.01,0.95-1.66,0.61-2.61-0.13c-3.17-2.5-6.44-4.88-9.67-7.3
		C247.28,293.52,247.34,293.28,247.4,293.03z M256.81,299.51c1.12-0.15,1.99-0.66,2.02-1.91c0.03-1.17-0.81-1.6-1.85-1.7
		c-1.19-0.11-1.75,0.53-1.79,1.64C255.14,298.64,255.68,299.31,256.81,299.51z"/>
	<path class="st4" d="M489.56,363.87c10.16,0.33,19.61-0.3,29.8-0.66c-7.74,8.33-15.64,15.42-24.4,22.53
		C494.91,377.83,493.93,370.73,489.56,363.87z"/>
	<path class="st5" d="M424.98,257.46c0.51,3.98,0.54,7.52-0.96,11.04c-3.95,9.27-7.73,18.62-10.75,28.25
		c-0.21,0.68-0.51,1.33-0.92,2.4c-1.07-1.64-2.04-2.89-3.53-3.58c-1.09-0.51-0.61-1.5-0.47-2.25c1.67-9.09,3.91-18.04,6.31-26.96
		c0.27-1.02,0.56-1.7,2.04-1.89c1.6-0.2,2.73-1.88,3.98-3.03C422.04,260.17,423.4,258.91,424.98,257.46z"/>
	<path class="st5" d="M478.83,396.62c3.88-10.43,4.7-20.88,0.06-31.41c0.47-0.07,0.73-0.15,0.99-0.15c7.47,0.03,8.45,0.8,10.4,8.11
		c1.17,4.4,1.72,8.87,1.47,13.43c-0.06,1.17-0.3,2.15-1.37,2.9c-3.7,2.6-7.12,5.58-11.15,7.7
		C479.09,397.01,478.96,396.82,478.83,396.62z"/>
	<path class="st4" d="M436.25,248.87c3.53,0.04,8.22,4.15,8.74,7.37c0.14,0.89-0.38,1.41-0.9,1.95c-1.05,1.08-2.12,2.15-3.19,3.22
		c-4.65,4.62-6.1,4.89-11.82,2.16c-0.32-0.15-0.65-0.41-0.83-0.7c-1.13-1.93,0.04-9.92,1.65-11.55
		C431.74,249.45,433.9,248.52,436.25,248.87z"/>
	<path class="st5" d="M426.52,233.73c-0.56,5.54,2.64,8.91,6.51,12.24c-5.88,3.28-9.29,9.13-15.07,13.64
		C420.14,250.31,422.28,241.76,426.52,233.73z"/>
	<path class="st5" d="M204.41,250.18c4.59,1.12,9.12,3.15,13.27,5.99c0.8,0.55,1.16,1.5,0.66,2.51c-0.45,0.92-1.31,1.06-2.18,0.89
		c-4.46-0.9-8.95-1.71-13.36-2.82c-1.68-0.42-2.53-2.03-2.13-3.82C201.07,251.23,202.14,250.09,204.41,250.18z"/>
	<path class="st5" d="M200.02,236.45c3.82,0.39,7.58,1.14,11.08,2.82c1.36,0.65,2.82,1.58,2.34,3.38c-0.51,1.89-2.29,1.73-3.76,1.57
		c-3.63-0.41-7.3-0.74-10.73-2.09c-1.58-0.62-3.86-1.13-3.45-3.4C195.9,236.46,197.99,236.25,200.02,236.45z"/>
	<path class="st5" d="M220,233.23c-1.53,2.8-3.53,3.47-6.21,2.2c-3.38-1.6-6.8-3.13-10.17-4.76c-0.91-0.44-1.77-1.07-2.52-1.76
		c-0.76-0.7-1.39-1.57-0.75-2.73c0.54-0.99,1.46-1.08,2.43-1.01c0.46,0.04,0.94,0.09,1.38,0.25
		C209.7,227.48,214.71,230.61,220,233.23z"/>
	<path class="st3" d="M405.51,302.3c-0.44,0.15-0.89,0.31-1.33,0.46c-0.56-1.66-1.42-2.45-3.46-2.24
		c-9.25,0.98-18.52,1.8-27.85,1.81c-1.28,0-2.55,0.58-3.84,0.78c-0.63,0.1-1.41,0.12-1.5-0.83c-0.08-0.86,0.52-1.14,1.24-1.21
		c3.46-0.35,6.91-0.76,10.38-1.03c8.53-0.67,17.06-1.28,25.59-1.91c0.56-0.04,1.13-0.09,1.69-0.07c0.46,0.02,0.98,0.06,1.17,0.59
		c0.23,0.62-0.26,0.85-0.7,0.97C405.44,300.02,405.43,301.13,405.51,302.3z"/>
	<path class="st5" d="M219.27,262.86c-2.41,3.53-5.53,4.64-10,3.47c-0.92-0.24-1.78-0.4-2.71-0.4c-2.35-0.01-3.12-1.61-3.14-3.54
		c-0.02-2.08,1.18-2.96,3.33-2.74c2.09,0.21,4.06,0.76,5.99,1.53C214.76,261.99,216.77,262.82,219.27,262.86z"/>
	<path class="st4" d="M511.98,359.03c4.9-3.22,9.72-4.58,14.95-5.08C524.11,359.27,521.14,360.33,511.98,359.03z"/>
	<path class="st5" d="M217.27,243.33c0.36,0.1,0.73,0.17,1.08,0.3c4.23,1.61,8.6,2.7,13.01,3.65c0.77,0.17,1.97,0.21,1.7,1.38
		c-0.26,1.12-1.28,0.75-2.12,0.54c-4.65-1.15-9.05-3.15-13.78-4.03c-0.57-0.1-1.22-0.36-1.16-1.01
		C216.07,243.6,216.56,243.19,217.27,243.33z"/>
	<path class="st5" d="M208.59,268.38c4.02,0.6,7.92,0.83,11.52-1.42c0.59-0.37,1-0.39,1.41,0.2c0.31,0.45,0.26,0.84-0.03,1.29
		c-0.43,0.66-1.01,1.17-1.75,1.35C215.85,270.72,212.01,271.11,208.59,268.38z"/>
	<path class="st5" d="M182.43,233.92c2.48,0.68,5.11,1.38,7.71,2.13c0.6,0.17,0.84,0.7,0.66,1.35c-0.2,0.7-0.67,0.45-1.1,0.31
		c-2.5-0.78-5.01-1.55-7.51-2.34c-0.45-0.14-0.92-0.33-0.77-0.95C181.52,234,181.88,233.89,182.43,233.92z"/>
	<path class="st5" d="M473.64,398.83c-1.39-1.11-2.34-2.52-3.32-4.08C475.9,395.1,475.9,395.1,473.64,398.83z"/>
	<path class="st3" d="M247.4,293.03c-0.06,0.25-0.12,0.49-0.18,0.74c-0.61-0.23-0.84-0.77-0.88-1.32c-0.1-1.13,0.01-2.51,0.92-3.01
		c0.68-0.37,1.55,0.45,0.91,1.56c-0.23,0.4-0.5,0.78-0.68,1.2C247.38,292.45,247.42,292.75,247.4,293.03z"/>
	<path class="st5" d="M456.53,268.98c0.24-0.19,0.48-0.39,0.73-0.58c0.21,0.44,0.17,0.8-0.32,1.01
		C456.8,269.27,456.66,269.12,456.53,268.98z"/>
	<path class="st5" d="M201.19,232.89c0.25,0.2,0.51,0.4,0.76,0.61c-0.42,0.34-0.83,0.16-1.25-0.01
		C200.87,233.28,201.03,233.09,201.19,232.89z"/>
	<path class="st3" d="M324.42,308.41c-0.09-0.06-0.17-0.12-0.26-0.19c0.05,0.01,0.11,0.01,0.13,0.03c0.04,0.05,0.06,0.12,0.09,0.19
		C324.38,308.45,324.42,308.41,324.42,308.41z"/>
	<path class="st3" d="M467.62,140.29c0.06,0.03,0.12,0.05,0.18,0.08c-0.05-0.03-0.1-0.07-0.16-0.1
		C467.64,140.27,467.62,140.29,467.62,140.29z"/>
	<path class="st3" d="M416.7,127.25c-0.06-0.04-0.13-0.08-0.19-0.11c0.06,0.05,0.11,0.09,0.17,0.14
		C416.67,127.28,416.7,127.25,416.7,127.25z"/>
	<path class="st5" d="M479.22,397.2c-0.21,0.07-0.55,0.25-0.6,0.19c-0.25-0.31-0.11-0.58,0.21-0.77
		C478.96,396.82,479.09,397.01,479.22,397.2z"/>
	<path class="st3" d="M328.38,305.59c-0.08-0.04-0.15-0.08-0.23-0.11c0.06,0.05,0.13,0.1,0.19,0.15
		C328.35,305.62,328.38,305.59,328.38,305.59z"/>
	<path class="st5" d="M99.15,212.65c-0.13,20.08-16.54,35.94-37.06,35.82c-20.49-0.12-36.52-16.49-36.4-37.18
		c0.11-19.64,16.83-35.45,37.31-35.27C82.91,176.2,99.28,192.79,99.15,212.65z M61.11,198.1c0.01,0,0.02,0,0.03,0
		c0-3.77-0.01-7.55,0-11.32c0.01-4.87,0-4.97-4.84-3.87c-20.58,4.71-30.8,27.57-18.96,45.56c9.2,13.96,28.61,18.06,42.35,8.64
		c3.34-2.29,3.31-2.27,0.48-5.03c-5.87-5.73-11.68-11.52-17.56-17.25c-1.17-1.14-1.61-2.35-1.56-4
		C61.2,206.6,61.11,202.35,61.11,198.1z M63.57,208.65c6.43-6.33,12.45-12.26,18.48-18.19c0.9-0.88,0.1-1.38-0.47-1.78
		c-4.93-3.51-10.3-5.86-16.43-6.2c-0.94-0.05-1.61,0.02-1.6,1.3C63.6,191.95,63.57,200.12,63.57,208.65z"/>
	<path class="st3" d="M11.61,278.88c-2.44-0.65-5.08-2.16-7-4.77c-0.99-1.35-0.29-2.49,0.57-3.56c3.96-4.89,7.92-9.77,11.91-14.64
		c1.9-2.32,3.9-4.57,5.77-6.91c1.36-1.71,2.51-2.2,4.29-0.36c1.41,1.47,3.21,2.58,4.93,3.72c1.23,0.82,1.34,1.62,0.47,2.74
		c-5.86,7.57-11.7,15.16-17.57,22.73C14.32,278.68,13.43,279.21,11.61,278.88z"/>
	<path class="st3" d="M36.64,244.26c-0.1,1-3.38,4.25-3.92,4.03c-1.19-0.47-2.51-1.01-2.69-2.5c-0.13-1.12,2.91-4.33,3.72-4.02
		C35.06,242.27,35.99,243.28,36.64,244.26z"/>
	<path class="st3" d="M319.91,160.95c0.44,3.05,0.1,5.51,0.23,7.91c0.3,5.68-3.18,9.94-5.05,14.79c-1.74,4.54-2.89,8.96-0.65,13.63
		c0.62,1.28,0.24,1.97-1.25,1.96c-5.07-0.04-10.13-0.06-15.2-0.09c-1.39-0.01-1.33-0.99-1.39-1.97c-0.26-3.81,1.1-7.2,2.63-10.56
		c1.44-3.17,3.41-6.09,4.45-9.45c0.74-2.37,0.48-3.8-2.44-4.41c-2.94-0.62-5.57-1.08-8.43,0.47c-2.4,1.3-3.92,0.32-5.5-2.23
		c-1.47-2.36-0.37-3.54,1.51-4.78c3.72-2.46,6.77-5.69,9.76-8.96c3.83-4.19,13.14-6.45,17.88-3.74c4.3,2.46,8.98,8.4,7.57,15.74
		c-0.9,4.7-2.2,9.14-4.45,13.28c-2.48,4.57-2.99,9.21-1.27,14.11c0.19,0.53,0.33,1.08,0.41,1.64c0.08,0.61-0.11,1.14-0.81,1.25
		c-0.76,0.11-1.19-0.15-1.37-0.99c-1.17-5.49-1.54-10.72,1.19-16.12c2.65-5.24,4.8-10.87,3.89-17.07
		C321.41,163.97,321.23,162.62,319.91,160.95z M304.11,160.29c0.73-0.43,1.92-0.42,2.1-1.51c0.15-0.92-0.7-0.87-1.35-0.95
		c-1.36-0.17-1.48,0.88-1.65,1.75C303.12,160.08,303.46,160.44,304.11,160.29z M319.65,160.41c0.06-0.27,0.21-0.56,0.13-0.77
		c-0.15-0.41-0.29-1.3-0.93-0.54C318.53,159.48,318.97,160.14,319.65,160.41z"/>
	<path class="st3" d="M307.7,205.85c-3.86,0-7.71,0.08-11.57-0.06c-0.9-0.03-2.6,0.31-2.54-1.34c0.05-1.35,1.13-1.98,2.61-1.97
		c7.83,0.07,15.67,0.09,23.51,0.1c1.31,0,1.97,0.82,2.11,1.86c0.21,1.5-1.35,1.24-1.99,1.26c-4.04,0.14-8.08,0.07-12.13,0.07
		C307.7,205.8,307.7,205.83,307.7,205.85z"/>
	<path class="st3" d="M309.84,151.56c-1.96,0.24-1.89-1.1-1.75-2.34c0.1-0.9-0.64-2.15,0.78-2.62c0.54-0.18,2.93,3.04,2.86,3.84
		C311.61,151.63,310.62,151.46,309.84,151.56z"/>
	<path d="M527.81,262.23c-0.12,0.09-0.22,0.23-0.34,0.25c-0.15,0.02-0.41,0.01-0.46-0.08c-0.23-0.39,0.17-0.33,0.34-0.34
		C527.49,262.04,527.65,262.16,527.81,262.23z"/>
	<path d="M426.33,211.72c-3.39,0.06-6.1-1-7.62-4.27c-0.54-1.16-1.01-2.41-2.63-2.65c-0.8-0.12-0.77-0.97-0.52-1.62
		c0.25-0.64,0.79-0.66,1.4-0.53c6.41,1.31,12.76,0.36,19.08-0.64c1.67-0.26,3.89-0.01,4.44-2.51c0.11-0.48,0.6-0.32,0.93-0.15
		c0.88,0.46,1.43,1.2,1.7,2.15c0.13,0.44-0.14,0.93-0.44,0.87c-2.13-0.46-2.34,1.53-3.22,2.54
		C435.93,208.9,431.75,211.48,426.33,211.72z M419.76,205.54c4.41,4.57,12.56,3.77,16.4-1.22
		C430.88,205.36,425.6,205.73,419.76,205.54z"/>
	<path d="M449.68,177.43c-2.42,1.62-4.24-0.36-6.37-1.07c-0.19,0.79-0.32,1.52-0.56,2.2c-0.54,1.53-1.48,2.59-3.25,2.65
		c-1.67,0.06-3.1-0.53-3.59-2.14c-0.6-1.93-1.39-2.34-2.95-0.75c0.33-4.16,2.87-6.03,7.33-5.69
		C444.1,172.92,446.59,175.71,449.68,177.43z"/>
	<path d="M451.59,169.52c-5.97-2.9-12.03-2.65-18.19-1.13c-1.38,0.34-2.72,0.09-3.09-1.58c-0.25-1.13-0.14-2.18,1.22-2.78
		C437.65,161.31,447.42,163.82,451.59,169.52z"/>
	<path d="M473.52,191.06c0.97-1.1,1.71-1.9,2.39-2.74c0.81-1.01,0.95-2.14-0.05-3.03c-2.03-1.82-1.15-3.51,0.08-5.2
		c1.14-1.57,2.68-2.64,4.55-3.16c2.87-0.8,4.35,0.81,3.4,4.4c-1.27-2.7-2.83-3.07-4.7-1.04c-0.99,1.09-1.4,1.97-0.3,3.38
		c1.31,1.68,1.45,3.72,0.11,5.51C477.77,190.84,476.02,191.48,473.52,191.06z"/>
	<path d="M424.02,194.44c2.1-1.54,4.21,0.4,6.34,0.19C428.31,196.46,426.16,195.02,424.02,194.44z"/>
	<path d="M470.45,258.59c1.15,0.38,2.14,0.92,2.29,2.29C471.5,260.6,470.66,259.91,470.45,258.59z"/>
	<path d="M472.71,260.86c0.55-0.13,0.97,0,1.16,0.58C473.3,261.63,472.94,261.38,472.71,260.86z"/>
	<path d="M469.3,258.02c0.49,0.01,0.96,0.06,1.18,0.6C469.98,258.65,469.6,258.41,469.3,258.02z"/>
	<path d="M468.75,256.88c0.45,0.27,0.59,0.7,0.6,1.19C469.15,257.67,468.95,257.28,468.75,256.88z"/>
	<path d="M422.47,132.23c0.1,0.12,0.3,0.3,0.27,0.34c-0.21,0.32-0.37,0.09-0.52-0.09C422.3,132.4,422.39,132.31,422.47,132.23z"/>
	<path d="M256.81,299.51c-1.12-0.2-1.67-0.87-1.62-1.96c0.04-1.12,0.6-1.75,1.79-1.64c1.04,0.1,1.88,0.52,1.85,1.7
		C258.8,298.84,257.93,299.35,256.81,299.51z"/>
	<path class="st3" d="M61.11,198.1c0,4.24,0.09,8.49-0.04,12.73c-0.05,1.65,0.39,2.86,1.56,4c5.88,5.72,11.69,11.51,17.56,17.25
		c2.82,2.76,2.86,2.74-0.48,5.03c-13.75,9.42-33.16,5.32-42.35-8.64c-11.85-17.99-1.62-40.85,18.96-45.56
		c4.83-1.11,4.85-1.01,4.84,3.87c-0.01,3.77,0,7.55,0,11.32C61.13,198.1,61.12,198.1,61.11,198.1z"/>
	<path class="st3" d="M63.57,208.65c0-8.53,0.02-16.7-0.02-24.87c-0.01-1.28,0.66-1.35,1.6-1.3c6.13,0.34,11.5,2.69,16.43,6.2
		c0.56,0.4,1.37,0.9,0.47,1.78C76.03,196.39,70.01,202.32,63.57,208.65z"/>
	<path d="M304.11,160.29c-0.65,0.14-0.99-0.21-0.89-0.71c0.17-0.87,0.29-1.93,1.65-1.75c0.64,0.08,1.5,0.03,1.35,0.95
		C306.03,159.88,304.84,159.86,304.11,160.29z"/>
	<path d="M319.65,160.41c-0.68-0.27-1.12-0.93-0.79-1.31c0.64-0.76,0.78,0.13,0.93,0.54C319.86,159.84,319.7,160.13,319.65,160.41z"
		/>
	<path class="st5" d="M419.76,205.54c5.84,0.18,11.12-0.18,16.4-1.22C432.32,209.31,424.17,210.11,419.76,205.54z"/>
</g>
</svg>
