<?xml version="1.0" encoding="utf-8"?>
<!-- Generator: Adobe Illustrator 24.3.0, SVG Export Plug-In . SVG Version: 6.00 Build 0)  -->
<svg version="1.1" id="Layer_1" xmlns="http://www.w3.org/2000/svg" xmlns:xlink="http://www.w3.org/1999/xlink" x="0px" y="0px"
	 width="115.3px" height="132.6px" viewBox="0 0 115.3 132.6" style="enable-background:new 0 0 115.3 132.6;" xml:space="preserve"
	>
<style type="text/css">
	.st0{fill:#00B0FB;}
	.st1{fill:#00B0FB;fill-opacity:0.4;}
	.st2{fill:#FFFFFF;}
	.st3{fill:none;}
	.st4{fill:#001135;}
	.st5{fill:#3C7CFF;}
	.st6{fill:#3C7CFF;stroke:#001135;stroke-width:0.7602;stroke-miterlimit:10;}
	.st7{fill:#DBDBDB;}
	.st8{fill:#B9B9B9;}
	.st9{fill:#080808;}
	.st10{fill:#060606;}
	.st11{fill:#070707;}
	.st12{fill:#121212;}
	.st13{fill:#111111;}
	.st14{fill:#090909;}
	.st15{fill:#FDFDFD;}
	.st16{fill:#F9F9F9;}
	.st17{fill:#F3F2F3;}
	.st18{fill:#FAFAFA;}
	.st19{fill:#0A0A0A;}
	.st20{fill:#EEEEEE;}
	.st21{fill:#0D0D0D;}
	.st22{fill:#0C0C0C;}
	.st23{fill:#0E0E0E;}
	.st24{fill:#050505;}
	.st25{fill:#3A3A3A;}
	.st26{fill:#525252;}
	.st27{fill:#474747;}
	.st28{fill:#1E1E1E;}
	.st29{fill:#1D1D1D;}
	.st30{fill:#222222;}
	.st31{fill:#494949;}
	.st32{fill:#585858;}
	.st33{fill:#EDEDED;}
	.st34{fill:#F0F0F0;}
	.st35{fill:#EAEAEA;}
	.st36{fill:#EAE9EA;}
	.st37{fill:#040404;}
	.st38{fill:#F4F3F4;}
	.st39{fill:#030303;}
	.st40{fill:#E8E8E8;}
	.st41{fill:#0C0C0B;}
	.st42{fill:#0D0D0C;}
	.st43{fill:#919191;}
	.st44{fill:#909090;}
	.st45{fill:#0E0E0D;}
	.st46{fill:#0C0D0C;}
	.st47{fill:#090908;}
	.st48{fill:#141414;}
	.st49{fill:#4C4D4D;}
	.st50{fill:#737474;}
	.st51{fill:#242424;}
	.st52{fill:#202020;}
	.st53{fill:#101010;}
	.st54{fill:#0D0E0D;}
	.st55{fill:#111212;}
	.st56{fill:#0B0B0B;}
	.st57{fill:#0D0C0C;}
	.st58{fill:#E7E7E7;}
	.st59{fill:#272727;}
	.st60{fill:#2E2E2E;}
	.st61{fill:#1F1E1E;}
	.st62{fill:#1B1A1A;}
	.st63{fill:#E6E6E6;}
	.st64{fill:#0F0E0E;}
	.st65{fill:#F2F2F2;}
	.st66{fill:#F4F3F3;}
	.st67{fill:#F9F8F8;}
	.st68{fill:#F1F1F0;}
	.st69{fill:#F6F6F6;}
	.st70{fill:#F5F6F6;}
	.st71{fill:#F5F5F5;}
	.st72{fill:#2C2C2C;}
	.st73{fill:#252625;}
	.st74{fill:#303030;}
	.st75{fill:#2D2D2C;}
	.st76{fill:#2D2D2D;}
	.st77{fill:#262727;}
	.st78{fill:#191919;}
	.st79{fill:#1B1B1B;}
	.st80{fill:#F7F7F7;}
	.st81{fill:#F6F7F7;}
	.st82{fill:#F9F9FA;}
	.st83{fill:#F4F4F4;}
	.st84{fill:#F8F8F8;}
	.st85{fill:#FCFCFC;}
	.st86{fill:#FBFBFB;}
	.st87{fill:#E2E1E2;}
	.st88{fill:#D8D7D8;}
	.st89{fill:#0F0F0F;}
	.st90{fill:#161616;}
	.st91{fill:#181818;}
	.st92{fill:#131313;}
	.st93{fill-rule:evenodd;clip-rule:evenodd;fill:#00B0FB;}
</style>
<g>
	<g>
		<path class="st0" d="M14.9,129c-0.9,0-1.7,0-2.6,0c-5.1,0-8.7-3.6-8.7-8.7l0-30.6c0-23.4,0-46.8,0-70.1l0-1.8c0-2.6,0-5.3,0.1-8
			C3.9,6.8,6.3,4,9.3,3.1c0.7-0.2,1.5-0.3,2.4-0.3c2.5,0,5,0,7.6,0V0.1c-2.5,0-5.1,0-7.6,0c-1.2,0-2.3,0.1-3.2,0.4
			c-4.1,1.3-7.2,5.1-7.4,9C1,12.3,1,15,1,17.7l0,1.7c0,23.4,0,46.8,0,70.1l0,30.6c0,6.7,4.7,11.3,11.4,11.3l2.6,0V129z"/>
	</g>
	<g>
		<path class="st1" d="M50.9,12.8c-0.8,0-1.6-0.1-2.4-0.1c-0.6,0-1.2,0-1.9,0c-2,0.1-3.3,1.3-3.4,3.4c0,1,0,2,0,2.9l0,0.6
			c0,0.4,0,0.9,0,1.3c0,0.4,0.1,0.7,0.3,0.9c0.3,0.3,0.7,0.3,1,0.3c0.7,0,1.4,0,2.1,0c0,0,0,0,0,0c0.2,0,0.4,0,0.6,0l0.3,0
			c0,0,1.7,0,2,0c0.4,0,0.8,0,1.3,0c1.9-0.1,3.1-1.4,3.2-3.3c0-1,0-2,0-2.8C54,14.2,52.8,12.9,50.9,12.8z"/>
		<path class="st0" d="M107.7,52.9c-8.6,0-17.3,0-26.4,0c-8.5,0-17.2,0-26.3,0c-3.1,0-5.6,2.3-5.7,5.3c-0.1,2.5-0.1,4.9-0.1,7.5
			l0,2.1c0,0.2,0.2,0.4,0.4,0.4H113c0.2,0,0.4-0.2,0.4-0.4l0-2.2c0-2.5,0-4.9,0-7.3C113.3,55.3,110.8,52.9,107.7,52.9z M80.8,61.4
			c-1,0-6.7,0-6.7,0l-3.8,0c-0.9,0-1.8,0-2.7,0c-0.8,0-1.7-0.2-1.7-1.4c0-0.9,0.6-1.4,1.7-1.4c2.1,0,4.3,0,6.5,0c2.2,0,4.4,0,6.8,0
			c0.6,0,1.1,0.2,1.4,0.5c0.2,0.2,0.3,0.5,0.3,0.9C82.6,60.9,81.9,61.4,80.8,61.4z M95.6,61.4c-0.2,0-0.4,0-0.5,0l-0.9,0l-0.8,0
			c-0.2,0-0.3,0-0.5,0c-0.9-0.1-1.3-0.6-1.3-1.4c0-0.8,0.5-1.3,1.3-1.3c0.5,0,1,0,1.5,0c0.4,0,0.8,0,1.2,0c0.8,0,1.3,0.5,1.3,1.3
			C96.8,60.8,96.4,61.3,95.6,61.4z"/>
		<path class="st1" d="M113.2,98.2c0-0.2-0.2-0.4-0.4-0.4H49.7c-0.2,0-0.4,0.2-0.4,0.4l0,2c0,0.3,0,0.7,0,1.1c0,0.9,0,1.8,0,2.7
			c0,1.9,0,3.4,0.1,5c0,0.3,0.1,0.7,0.3,1c0.2,0.4,0.5,0.8,0.8,1.1c0.1,0.1,0.2,0.2,0.2,0.2c0,0,0.1,0.1,0.1,0.1
			c0,0,0.1,0.1,0.2,0.1c0,0,0.1,0.1,0.2,0.2c0,0,0,0,0.1,0c0.1,0.1,0.2,0.1,0.3,0.2c0,0,0.3,0.2,0.3,0.2c0,0,0.3,0.2,0.3,0.2
			c0.7,0.3,1.4,0.5,2,0.6c0.2,0,0.4,0,0.7,0c0.4,0,0.8,0,1.1,0h0.5c0.4,0,0.8,0,1.3,0l1.4,0c0.9,0,1.7,0,2.5,0h0.9l1,0h3l4.6,0
			c0.9,0,1.8,0,2.7,0h4.7c0,0,0.1,0,0.1,0c0.1,0,0.3,0.1,0.5,0.1c0,0,0.1,0,0.1,0c0,0,0.1,0.1,0.1,0.1c0.2,0.1,0.3,0.2,0.3,0.2
			l0.1,0.1c0.1,0.1,0.2,0.3,0.2,0.4v3.1l0,0.4c0,0.3,0,0.6,0,0.9c0,0.2-0.1,0.4-0.2,0.7c-0.2,0.3-0.5,0.6-0.8,0.8
			c-0.6,0.3-1.2,0.7-1.8,1.3c-0.5,0.5-0.8,1-1.2,1.5c-0.1,0.2-0.3,0.4-0.6,0.6c-0.4,0.3-1,0.5-1.4,0.5l-2.3,0l-0.4,0l-0.5,0
			c-0.2,0-0.3,0-0.3,0H58.1l-1,0h-0.8c-0.6,0-1.1,0.2-1.4,0.5c-0.1,0.1-0.1,0.2-0.2,0.3c-0.1,0.2-0.1,0.4-0.1,0.6c0,0.1,0,0.2,0,0.2
			c0,0.1,0,0.4,0.3,0.7c0.3,0.3,0.7,0.5,1.4,0.5h9.5c2.2,0,4.3,0,6.5,0h1.5c0.5,0,1,0.1,1.3,0.3c0.2,0.1,0.3,0.2,0.5,0.4
			c0.2,0.2,0.3,0.4,0.4,0.6c0.3,0.5,0.6,0.9,0.9,1.3c1,1.1,2.4,1.7,4.1,1.7h0.3c0.3,0,0.6,0,0.9-0.1c0.1,0,0.3,0,0.4-0.1
			c0.3-0.1,0.6-0.2,0.8-0.2c0.4-0.2,0.8-0.4,1.1-0.6c0.7-0.5,1.3-1.2,1.8-2.1c0.5-0.9,1.2-1.3,2.2-1.3h1.5c2.2,0,4.3,0,6.5,0h9.5
			c0.6,0,1.1-0.1,1.4-0.4c0.3-0.3,0.3-0.6,0.4-0.8c0,0,0-0.1,0-0.2c0-0.1,0-0.1,0-0.2c0-0.1-0.1-0.4-0.3-0.7
			c-0.1-0.1-0.3-0.3-0.6-0.3c-0.1,0-0.2-0.1-0.4-0.1c-0.1,0-0.3,0-0.4,0c0,0-1.6,0-3.7,0c-4,0-9.9,0-10.4,0l-0.7,0l-0.3,0l-2.4,0
			c-0.4,0-1.1-0.2-1.6-0.6c-0.2-0.1-0.3-0.3-0.4-0.5c-0.4-0.7-0.8-1.2-1.2-1.6c-0.1-0.1-0.2-0.2-0.4-0.3c-0.1-0.1-0.2-0.2-0.4-0.3
			c-0.3-0.2-0.5-0.4-0.8-0.5c0,0-0.1,0-0.1-0.1c-0.2-0.1-0.4-0.2-0.6-0.4c-0.1-0.1-0.1-0.1-0.1-0.1c-0.2-0.3-0.4-0.6-0.4-0.9
			c0-0.5,0-1,0-1.5c0-0.5,0-1,0-1.5V114c0-0.1,0.1-0.3,0.2-0.4l0.1-0.1c0.2-0.2,0.4-0.3,0.7-0.4l0.1,0c0.1,0,0.2-0.1,0.3-0.1
			c0,0,0.1,0,0.1,0h4.6c0.9,0,1.8,0,2.7,0l6.6,0l3.5,0c0.4,0,0.9,0,1.3,0l2,0c0.4,0,0.8,0,1.2,0l0.6,0c0.3,0,0.7,0,1.1,0
			c0.2,0,0.4,0,0.6,0c0.1,0,0.2,0,0.3,0c0.3-0.1,0.6-0.1,0.8-0.2c0.7-0.2,1.3-0.6,1.9-1c1-0.8,1.6-1.7,1.7-2.6
			c0.1-1.5,0.1-3.1,0.1-5c0-1.2,0-2.3,0-3.5L113.2,98.2z M82.2,106.7c-0.3,0.3-0.8,0.5-1.3,0.5c-2.3,0-4.5,0-6.7,0
			c-2.2,0-4.5,0-6.6,0c-0.6,0-1-0.1-1.3-0.4c-0.2-0.2-0.3-0.6-0.3-1c0-0.6,0.2-1.3,1.7-1.3c1,0,1.9,0,2.9,0h7.6c0.9,0,1.8,0,2.7,0
			c0.6,0,1.7,0.2,1.7,1.4C82.6,106.1,82.4,106.4,82.2,106.7z M95.8,107.1c-0.2,0.1-0.5,0.1-0.8,0.1l-0.6,0c-0.1,0-0.2,0-0.3,0
			c-0.1,0-0.3,0-0.4,0c-0.4,0-0.8,0-1.1-0.2c-0.4-0.2-1-0.8-1-1.2c0-0.4,0.5-1.2,0.9-1.2c0.6-0.1,1.2-0.1,1.8-0.1
			c0.6,0,1.1,0,1.6,0.1c0.3,0.1,0.8,0.8,0.8,1.3C96.7,106.2,96.3,106.8,95.8,107.1z"/>
		<path class="st2" d="M92.9,46.6c0.6,0,1-0.4,1-1V11.3c0-3.2-1.1-6.1-3.2-8.1c-2-2-4.9-3.2-8.1-3.2C58.2,0,34.3,0.1,10.7,0.1
			c-1.2,0-2.3,0.1-3.2,0.4c-4.1,1.3-7.2,5.1-7.4,9C0,12.3,0,15,0,17.7l0,1.7c0,23.4,0,46.8,0,70.1l0,30.6c0,6.7,4.7,11.3,11.4,11.3
			l10,0c3.3,0,6.8,0,10.4,0c6.7,0,11.3-4.7,11.3-11.4l0-64.7c0-1.4,0.1-3.2,1.1-4.8c1.6-2.8,4.1-4.1,7.4-4.1
			C58.3,46.6,92.9,46.6,92.9,46.6z M41.9,49.4c-1.3,2.1-1.4,4.4-1.4,6.1l0,64.7c0,5.3-3.4,8.7-8.7,8.7l-10.3,0c-3.5,0-6.9,0-10.1,0
			c-5.1,0-8.7-3.6-8.7-8.7l0-30.6c0-23.4,0-46.8,0-70.1l0-1.8c0-2.6,0-5.3,0.1-8C2.9,6.8,5.3,4,8.3,3.1C9,2.9,9.8,2.8,10.7,2.8
			c23.6-0.1,47.5-0.1,71.9-0.1l0-1l0,1c2.5,0,4.7,0.8,6.2,2.4c1.5,1.5,2.4,3.8,2.4,6.2l0,32.7l-39.7,0C47.3,44,44,45.8,41.9,49.4z"
			/>
		<path class="st2" d="M111.8,73.2H50.9c-1.9,0-3.4,1.5-3.4,3.4v12.7c0,1.9,1.5,3.4,3.4,3.4h60.9c1.9,0,3.4-1.5,3.4-3.4V76.6
			C115.2,74.7,113.7,73.2,111.8,73.2z M113.4,89.3c0,0.8-0.7,1.5-1.5,1.5H50.9c-0.8,0-1.5-0.7-1.5-1.5V76.6c0-0.8,0.7-1.5,1.5-1.5
			h60.9c0.8,0,1.5,0.7,1.5,1.5V89.3z"/>
		<path class="st2" d="M115.2,58.2c-0.1-4-3.5-7.2-7.5-7.2c-8.6,0-17.4,0-26.5,0c-8.4,0-17.1,0-26.1,0c-4.1,0-7.4,3.1-7.6,7.1
			c-0.1,2.5-0.1,4.9-0.1,7.6l0,0.3c0,0.9,0,1.8,0,2.6c0,0.8,0.6,1.4,1.4,1.4h65c0.8,0,1.4-0.6,1.4-1.4c0-1,0-2,0-3
			C115.3,63.3,115.3,60.7,115.2,58.2z M113.4,65.6l0,2.2c0,0.2-0.2,0.4-0.4,0.4H49.7c-0.2,0-0.4-0.2-0.4-0.4l0-2.1
			c0-2.6-0.1-5,0.1-7.5c0.1-3,2.6-5.3,5.7-5.3c9.1,0,17.8,0,26.3,0c9,0,17.8,0,26.4,0c3,0,5.6,2.4,5.6,5.4
			C113.4,60.7,113.4,63.1,113.4,65.6z"/>
		<path class="st2" d="M80.8,104.4c-0.9,0-1.8,0-2.7,0h-7.6c-1,0-1.9,0-2.9,0c-1.5,0-1.7,0.7-1.7,1.3c0,0.4,0.1,0.8,0.3,1
			c0.3,0.3,0.7,0.4,1.3,0.4c2.2,0,4.4,0,6.6,0c2.2,0,4.4,0,6.7,0c0.6,0,1-0.2,1.3-0.5c0.2-0.2,0.4-0.6,0.4-0.9
			C82.5,104.6,81.5,104.4,80.8,104.4z"/>
		<path class="st2" d="M95.9,104.5c-0.5-0.1-1.1-0.1-1.6-0.1c-0.6,0-1.2,0-1.8,0.1c-0.4,0.1-0.9,0.8-0.9,1.2c0,0.4,0.6,1,1,1.2
			c0.3,0.2,0.7,0.2,1.1,0.2c0.2,0,0.3,0,0.4,0c0.1,0,0.2,0,0.3,0l0.6,0c0.3,0,0.6,0,0.8-0.1c0.5-0.3,1-0.9,1-1.2
			C96.8,105.4,96.3,104.6,95.9,104.5z"/>
		<path class="st2" d="M32.8,97.4c-0.2,0-0.3,0-0.5,0l-0.3,0l-20.3,0l-0.4,0c-0.2,0-0.3,0-0.4,0c-0.8,0.2-1.3,0.7-1.2,1.4
			c0,0.8,0.4,1.2,1.3,1.4c0.2,0,0.4,0,0.5,0l0.3,0h19.8l0.6,0c0.2,0,0.4,0,0.6,0c0.6-0.1,1.3-0.4,1.3-1.4
			C34.1,97.9,33.4,97.6,32.8,97.4z"/>
		<path class="st2" d="M32.8,108.6c-0.2,0-0.3,0-0.5,0l-20.6,0l-0.4,0c-0.2,0-0.3,0-0.4,0c-0.8,0.2-1.3,0.7-1.2,1.4
			c0,0.8,0.4,1.2,1.3,1.4c0.2,0,0.3,0,0.5,0l0.3,0h19.8l0.6,0c0.2,0,0.4,0,0.6,0c0.6-0.1,1.3-0.4,1.3-1.4
			C34.1,109.3,33.6,108.8,32.8,108.6z"/>
		<path class="st2" d="M32.8,119.8c-0.2,0-0.3,0-0.5,0l-0.4,0H11.8l-0.4,0c-0.1,0-0.3,0-0.4,0c-0.8,0.2-1.3,0.7-1.2,1.4
			c0,0.8,0.4,1.2,1.3,1.4c0.2,0,0.3,0,0.5,0l0.3,0h19.8l0.6,0c0.2,0,0.4,0,0.6,0c0.6-0.1,1.3-0.4,1.3-1.4
			C34.1,120.2,33.4,119.9,32.8,119.8z"/>
		<path class="st2" d="M32.8,86.3c-0.2,0-0.3,0-0.5,0l-0.4,0H11.8l-0.4,0c-0.1,0-0.3,0-0.4,0c-0.8,0.2-1.3,0.7-1.2,1.4
			c0,0.8,0.4,1.2,1.3,1.4c0.2,0,0.3,0,0.5,0l0.3,0h19.8l0.6,0c0.2,0,0.4,0,0.6,0c0.6-0.1,1.3-0.4,1.3-1.4
			C34.1,86.7,33.4,86.4,32.8,86.3z"/>
		<path class="st2" d="M32.8,75.1c-0.2,0-0.3,0-0.5,0l-20.6,0l-0.4,0c-0.2,0-0.3,0-0.4,0c-0.8,0.2-1.3,0.7-1.2,1.4
			c0,0.8,0.4,1.2,1.3,1.4c0.2,0,0.3,0,0.5,0l0.3,0h19.8l0.6,0c0.2,0,0.4,0,0.6,0c0.6-0.1,1.3-0.4,1.3-1.4
			C34.1,75.8,33.6,75.3,32.8,75.1z"/>
		<path class="st2" d="M32.8,63.9c-0.2,0-0.3,0-0.5,0l-0.3,0l-20.3,0l-0.4,0c-0.2,0-0.3,0-0.4,0c-0.8,0.2-1.3,0.7-1.2,1.4
			c0,0.8,0.4,1.2,1.3,1.4c0.2,0,0.4,0,0.5,0l0.3,0h19.8l0.6,0c0.2,0,0.4,0,0.6,0c0.6-0.1,1.3-0.4,1.3-1.4
			C34.1,64.4,33.4,64.1,32.8,63.9z"/>
		<path class="st2" d="M32.8,52.8c-0.2,0-0.3,0-0.5,0l-0.4,0H11.8l-0.4,0c-0.1,0-0.3,0-0.4,0c-0.8,0.2-1.3,0.7-1.2,1.4
			c0,0.8,0.4,1.2,1.3,1.4c0.2,0,0.3,0,0.5,0l0.3,0h19.8l0.6,0c0.2,0,0.4,0,0.6,0c0.6-0.1,1.3-0.4,1.3-1.4
			C34.1,53.2,33.4,52.9,32.8,52.8z"/>
		<path class="st2" d="M95.6,81.5c-0.5,0-1-0.1-1.5-0.1c-0.5,0-1,0-1.4,0.1c-0.7,0.1-1.2,0.6-1.2,1.3c0,0.8,0.4,1.2,1.1,1.3
			c0.2,0,0.4,0,0.6,0c0.1,0,0.7,0,0.7,0h0.3c0.2,0,0.3,0,0.5,0c0.2,0,0.3,0,0.5,0c0.2,0,0.4,0,0.6,0c0.8-0.1,1.2-0.6,1.1-1.3
			C96.8,82.1,96.4,81.6,95.6,81.5z"/>
		<path class="st2" d="M80.8,81.5c-1.1,0-2.1,0-3.2,0l-3.2,0c0,0-5.6,0-6.7,0c-0.7,0-1.2,0.1-1.5,0.4c-0.2,0.2-0.3,0.5-0.3,0.9
			c0,0.9,0.6,1.4,1.7,1.4c2.2,0,4.3,0,6.5,0c2.3,0,4.5,0,6.7,0c0.6,0,1.1-0.2,1.4-0.5c0.2-0.2,0.4-0.5,0.3-0.9
			C82.6,82.1,81.9,81.5,80.8,81.5z"/>
		<path class="st2" d="M95.6,58.7c-0.4,0-0.8,0-1.2,0c-0.5,0-0.9,0-1.5,0c-0.8,0-1.3,0.5-1.3,1.3c0,0.8,0.5,1.3,1.3,1.4
			c0.2,0,0.3,0,0.5,0l0.8,0l0.9,0c0.2,0,0.4,0,0.5,0c0.8-0.1,1.3-0.6,1.3-1.4C96.8,59.2,96.4,58.7,95.6,58.7z"/>
		<path class="st2" d="M80.8,58.7c-2.3,0-4.6,0-6.8,0c-2.2,0-4.3,0-6.5,0c-1.1,0-1.7,0.5-1.7,1.4c0,1.1,0.9,1.4,1.7,1.4
			c0.9,0,1.8,0,2.7,0l3.8,0c0,0,5.7,0,6.7,0c1.1,0,1.8-0.5,1.8-1.4c0-0.4-0.1-0.7-0.3-0.9C81.9,58.8,81.4,58.7,80.8,58.7z"/>
		<path class="st2" d="M51.4,10c-0.9-0.1-1.9-0.1-2.8-0.1c-0.9,0-1.9,0.1-2.8,0.2c-3.2,0.4-5.4,2.9-5.4,6.3c0,2.2,0,4.3,0,6.5V28
			c0,2.4,0,5,0,7.5c0,0.4,0,0.9,0.2,1.1c0.4,0.3,0.9,0.6,1.4,0.6l0.1,0c0.9-0.1,1-0.9,1-1.4v-3.1c0-2,0-4.2,0-6.2c0-0.4,0-0.8,0.3-1
			c0.2-0.2,0.5-0.3,1-0.3c0,0,0,0,0,0c0.9,0,2,0,3.1,0c1.1,0,2.2,0,3.3-0.1c3.2-0.1,5.6-2.4,5.9-5.5c0.1-1.3,0.1-2.6,0-3.9
			C56.6,12.6,54.4,10.3,51.4,10z M54,18.9c0,1.9-1.3,3.2-3.2,3.3c-0.4,0-0.8,0-1.3,0c-0.3,0-2,0-2,0l-0.3,0c-0.2,0-0.4,0-0.6,0
			c0,0,0,0,0,0c-0.7,0-1.4,0-2.1,0c-0.3,0-0.7,0-1-0.3c-0.2-0.2-0.3-0.5-0.3-0.9c0-0.4,0-0.9,0-1.3l0-0.6c0-0.9,0-1.9,0-2.9
			c0.1-2,1.3-3.3,3.4-3.4c0.6,0,1.3,0,1.9,0c0.8,0,1.6,0,2.4,0.1c1.8,0.1,3.1,1.4,3.1,3.3C54.1,16.9,54.1,17.9,54,18.9z"/>
		<path class="st2" d="M35.3,10.1c0,0-0.1,0-0.1,0c-0.4,0-0.9,0.3-1.4,0.6c-0.1,0.1-0.2,0.3-0.3,0.6c0,0.1,0,0.2-0.1,0.2L32,15.7
			c-1.4,4.2-2.9,8.6-4.4,12.9c-0.1,0.3-0.3,0.5-0.6,0.8c0,0-0.1,0.1-0.1,0.1c-0.1,0.1-0.2,0.1-0.3,0.1c0,0,0,0,0,0
			c-0.1,0-0.2,0-0.3-0.1l-0.1-0.1c-0.3-0.2-0.5-0.5-0.6-0.8c-1-3-2.1-6-3.1-9l-1.5-4.4c-0.5-1.4-0.9-2.8-1.4-4.2
			c-0.2-0.5-0.5-0.9-0.8-1c-0.2-0.1-0.3-0.1-0.5-0.1c-0.2,0-0.3,0-0.5,0.1c-0.8,0.3-1.1,1-0.8,2c0.1,0.2,0.1,0.4,0.2,0.6l1.8,5.4
			c2,5.8,4,11.9,6,17.8c0.3,0.8,0.6,1.5,1.5,1.5h0.1c0.9,0,1.3-0.7,1.5-1.5c1.8-5.2,3.6-10.6,5.3-15.7l2.4-7.2
			c0.1-0.3,0.2-0.6,0.3-1.1l0.2-0.7c-0.1-0.1-0.2-0.2-0.3-0.3C35.9,10.5,35.6,10.1,35.3,10.1z"/>
		<path class="st2" d="M71.8,22.6c-0.7-0.2-1.5-0.3-2.3-0.3l-0.6,0c-2.3-0.2-3.9-1.7-4.2-4c-0.3-2.6,0.9-4.7,3.2-5.3
			c0.5-0.2,1.1-0.2,1.6-0.2c2.2,0,3.9,1.4,4.6,3.6c0.2,0.8,0.8,1.3,1.4,1.3c0.1,0,0.2,0,0.3,0c0.9-0.2,1.2-1,1-2.1
			c-0.7-3.3-3.7-5.6-7.3-5.6c-2.5,0-4.8,1.1-6.2,3c-1.4,1.9-1.8,4.4-1.1,6.9c1,3.4,3.6,5.2,7.6,5.3c2.3,0.1,4.2,1.7,4.4,3.9
			c0.3,2.8-0.9,4.8-3.3,5.4c-0.5,0.1-1.1,0.2-1.6,0.2c-0.8,0-1.6-0.2-2.3-0.6c-1.1-0.6-1.9-1.8-2.3-3.2c-0.2-0.7-0.5-1.2-1-1.3
			c-0.1-0.1-0.3-0.1-0.4-0.1c-0.2,0-0.5,0.1-0.7,0.2c-0.8,0.5-0.8,1.2-0.6,2.1c0.8,3.3,3.3,5.3,6.8,5.6c0.2,0,0.5,0,0.7,0
			c3.5,0,6.6-2.5,7.3-5.7C77.7,27.5,75.6,23.7,71.8,22.6z"/>
		<path class="st2" d="M91.7,121.6C91.7,121.6,91.7,121.7,91.7,121.6c-0.1,0.1-0.1,0.1-0.1,0.1C91.6,121.7,91.7,121.7,91.7,121.6z"
			/>
		<path class="st2" d="M115.1,97.3c0-0.8-0.6-1.4-1.4-1.4H48.9c-0.8,0-1.4,0.6-1.4,1.4l0,3.9c0,0.9,0,1.9,0,2.8c0,2.1,0,3.7,0.1,5.1
			c0.2,3,3.4,5.4,6.4,5.7c0.7,0.1,1.4,0.1,1.9,0.1l0.5,0c0.9,0,1.8,0,2.7,0l2.6,0c0.9,0,1.9,0,2.8,0h13.1c0.2,0,0.4,0.2,0.4,0.4
			c0,0.9,0,1.8,0,2.6c0,0.1-0.1,0.3-0.2,0.3c-1.4,0.7-2.5,1.8-3.4,3.3c0,0.1-0.1,0.1-0.2,0.2c-0.1,0.1-0.2,0.1-0.3,0.1
			c0,0-2.7,0-2.7,0c-0.2,0-0.5,0-0.8,0l-2.4,0H56.4c-1.2,0-2.1,0.4-2.7,1.1c-0.6,0.6-0.8,1.5-0.8,2.5c0.2,1.8,1.5,2.8,3.6,2.8l9.5,0
			l6.5,0l1.6,0c0.1,0,0.3,0.1,0.3,0.2c0,0,0.1,0.1,0.1,0.2c1.4,2.6,3.7,4,6.7,4h0.2c2.9,0,5.3-1.5,6.6-4c0-0.1,0.1-0.1,0.1-0.2
			c0.1-0.1,0.2-0.2,0.3-0.2c0,0,0.1,0,0.2,0l1.4,0l6.5,0l9.5,0c2.1,0,3.4-1.1,3.6-2.8c0.1-1-0.2-1.9-0.8-2.5
			c-0.6-0.7-1.6-1.1-2.7-1.1H94.5c0,0-0.1,0-0.1,0l-2.5,0c-0.2,0-0.4,0-0.7,0c0,0-2.7,0-2.7,0c-0.1,0-0.3-0.1-0.4-0.1
			c0,0-0.1-0.1-0.1-0.1c-0.9-1.5-2-2.6-3.4-3.3c-0.1-0.1-0.2-0.2-0.2-0.3c0-0.9,0-1.7,0-2.6c0-0.2,0.2-0.4,0.4-0.4h13.1
			c0.9,0,1.8,0,2.8,0l2.6,0c0.9,0,1.8,0,2.7,0h0.5c0.6,0,1.3,0,2-0.1c3-0.3,6.3-2.6,6.4-5.7c0.1-1.4,0.1-2.9,0.1-5.1
			c0-0.9,0-1.8,0-2.8L115.1,97.3z M113.2,108.9c-0.1,0.9-0.6,1.9-1.7,2.6c-0.6,0.4-1.2,0.8-1.9,1c-0.3,0.1-0.5,0.2-0.8,0.2
			c-0.1,0-0.2,0-0.3,0c-0.2,0-0.4,0-0.6,0c-0.4,0-0.8,0-1.1,0l-0.6,0c-0.4,0-0.8,0-1.2,0l-2,0c-0.4,0-0.9,0-1.3,0l-3.5,0l-6.6,0
			c-0.9,0-1.8,0-2.7,0h-4.6c0,0-0.1,0-0.1,0c-0.1,0-0.2,0-0.3,0.1l-0.1,0c-0.3,0.1-0.6,0.2-0.7,0.4l-0.1,0.1
			c-0.1,0.1-0.2,0.3-0.2,0.4v1.4c0,0.5,0,1,0,1.5c0,0.5,0,1,0,1.5c0,0.3,0.1,0.6,0.4,0.9c0,0,0.1,0.1,0.1,0.1
			c0.2,0.2,0.3,0.3,0.6,0.4c0,0,0.1,0,0.1,0.1c0.3,0.1,0.6,0.3,0.8,0.5c0.1,0.1,0.3,0.2,0.4,0.3c0.1,0.1,0.2,0.2,0.4,0.3
			c0.5,0.4,0.9,1,1.2,1.6c0.1,0.2,0.2,0.3,0.4,0.5c0.5,0.4,1.1,0.6,1.6,0.6l2.4,0l0.3,0l0.7,0c0.5,0,6.4,0,10.4,0c2.1,0,3.7,0,3.7,0
			c0.2,0,0.3,0,0.4,0c0.1,0,0.3,0.1,0.4,0.1c0.2,0.1,0.4,0.2,0.6,0.3c0.2,0.2,0.3,0.5,0.3,0.7c0,0.1,0,0.2,0,0.2c0,0.1,0,0.1,0,0.2
			c0,0.1,0,0.5-0.4,0.8c-0.3,0.3-0.7,0.4-1.4,0.4h-9.5c-2.2,0-4.3,0-6.5,0h-1.5c-1,0-1.7,0.4-2.2,1.3c-0.5,0.9-1.1,1.6-1.8,2.1
			c-0.3,0.2-0.7,0.4-1.1,0.6c-0.2,0.1-0.5,0.2-0.8,0.2c-0.1,0-0.3,0.1-0.4,0.1c-0.3,0-0.6,0.1-0.9,0.1h-0.3c-1.7,0-3.1-0.6-4.1-1.7
			c-0.3-0.4-0.7-0.8-0.9-1.3c-0.1-0.2-0.2-0.4-0.4-0.6c-0.2-0.2-0.3-0.3-0.5-0.4c-0.4-0.2-0.8-0.3-1.3-0.3h-1.5c-2.2,0-4.3,0-6.5,0
			h-9.5c-0.7,0-1.2-0.2-1.4-0.5c-0.3-0.3-0.3-0.6-0.3-0.7c0-0.1,0-0.2,0-0.2c0-0.2,0-0.4,0.1-0.6c0-0.1,0.1-0.2,0.2-0.3
			c0.3-0.3,0.8-0.5,1.4-0.5h0.8l1,0h12.3c0,0,0.1,0,0.3,0l0.5,0l0.4,0l2.3,0c0.5,0,1-0.2,1.4-0.5c0.2-0.2,0.4-0.4,0.6-0.6
			c0.3-0.6,0.7-1.1,1.2-1.5c0.6-0.6,1.1-1,1.8-1.3c0.3-0.2,0.6-0.5,0.8-0.8c0.1-0.2,0.2-0.4,0.2-0.7c0-0.3,0-0.6,0-0.9l0-0.4V114
			c0-0.1-0.1-0.3-0.2-0.4l-0.1-0.1c-0.1-0.1-0.2-0.1-0.3-0.2c0,0-0.1-0.1-0.1-0.1c0,0-0.1,0-0.1,0c-0.2-0.1-0.3-0.1-0.5-0.1
			c0,0-0.1,0-0.1,0h-4.7c-0.9,0-1.8,0-2.7,0l-4.6,0h-3l-1,0h-0.9c-0.8,0-1.7,0-2.5,0l-1.4,0c-0.4,0-0.8,0-1.3,0h-0.5
			c-0.3,0-0.7,0-1.1,0c-0.2,0-0.4,0-0.7,0c-0.6-0.1-1.3-0.3-2-0.6c0,0-0.3-0.2-0.3-0.2c0,0-0.3-0.2-0.3-0.2
			c-0.1-0.1-0.2-0.1-0.3-0.2c0,0,0,0-0.1,0c-0.1,0-0.2-0.2-0.2-0.2c-0.1,0-0.1-0.1-0.2-0.1c0,0-0.1-0.1-0.1-0.1
			c-0.1-0.1-0.2-0.2-0.2-0.2c-0.3-0.3-0.6-0.7-0.8-1.1c-0.2-0.3-0.3-0.7-0.3-1c-0.1-1.5-0.1-3.1-0.1-5c0-0.9,0-1.8,0-2.7
			c0-0.4,0-0.7,0-1.1l0-2c0-0.2,0.2-0.4,0.4-0.4h63.1c0.2,0,0.4,0.2,0.4,0.4l0,2.3c0,1.2,0,2.3,0,3.5
			C113.3,105.8,113.2,107.4,113.2,108.9z"/>
		<polygon class="st2" points="97.6,121.4 94.5,121.4 94.5,121.4 		"/>
	</g>
</g>
</svg>
