<?xml version="1.0" encoding="utf-8"?>
<!-- Generator: Adobe Illustrator 24.3.0, SVG Export Plug-In . SVG Version: 6.00 Build 0)  -->
<svg version="1.1" id="Layer_1" xmlns="http://www.w3.org/2000/svg" xmlns:xlink="http://www.w3.org/1999/xlink" x="0px" y="0px"
	 viewBox="0 0 564.27 478" style="enable-background:new 0 0 564.27 478;" xml:space="preserve">
<style type="text/css">
	.st0{fill:#00B0FB;}
	.st1{fill:#FFFFFF;}
	.st2{fill:#00B0FB;fill-opacity:0.4;}
	.st3{fill:#1E1E1E;}
	.st4{fill:#7A7B7C;}
	.st5{fill:#DBDBDB;}
	.st6{fill:#FAF7F9;}
	.st7{fill:#1E1F1E;}
	.st8{fill:#7F7F80;}
</style>
<g>
	<path class="st7" d="M400.81,137.87c-0.75,0.38-1.51,0.76-2.29,1.16c-0.89-3.86,0.5-6.28,5.15-8.93c-2.06-2.43-4.86-4.5-4.52-8.44
		c3.38,1.21,6.51,2.69,10.16,2.48c-1.25-2.34-3.12-4.35-3.28-7.28c9.07,1.18,17.6-1.3,26.21-3.06c10.01-2.05,20.09-2.85,30.13-0.8
		c7.4,1.52,14.17,4.61,18.64,11.23c0.8-0.28,0.47-0.81,0.43-1.21c-0.05-0.48-0.13-0.98-0.31-1.43c-0.21-0.52-0.77-1.07-0.09-1.52
		c0.56-0.37,1.14,0.05,1.6,0.43c2.3,1.88,4.09,4.22,3.74,7.27c-0.23,1.99,0.44,1.92,1.94,1.97c5.41,0.17,9.14,3.08,10.43,8.22
		c-1.16-0.62-2.1-1.13-3.04-1.63c-0.56-0.49-1.37-0.61-1.72-0.11c-0.26,0.37,0.67,0.41,0.98,0.72c8.33,9.31,8.73,23.67,0.85,31.04
		c0-0.94,0-1.88,0-2.82c0.11-0.41,0.41-0.84-0.14-1.17c-0.11,0.26-0.21,0.52-0.32,0.78c-1.38,2.12-1.88,4.37-1.71,6.94
		c0.41,6.13-0.8,11.92-4.44,17.04c-1.81,2.54-4.08,4.61-7.02,5.63c-1.63,0.57-2.33,1.49-2.8,3c-1.52,4.92-2.47,9.89-2.16,15.08
		c0.09,1.54,0.55,2.25,2.12,2.56c3.13,0.63,5.78,2.27,7.09,5.24c4.17,9.42,12.23,14.3,21.01,18.35c8.37,3.86,16.87,7.46,25.18,11.46
		c5.95,2.86,11.09,6.77,13.47,13.33c0.27,0.75,0.69,1.1,1.45,1.22c0.05,0.01,0.09,0.01,0.14,0.02c9.35,1.52,15.76,10.3,14.7,19.71
		c-0.84,7.45-2.65,14.55-2.84,15c-6.12,15.19-13.84,29.52-23.58,42.67c-12.59,16.99-27,32.22-43.52,45.57
		c-9.75,7.88-19.44,15.82-29.89,22.7c-19.86,13.08-40.65,24.45-62.55,33.91c-27,11.65-54.89,20.19-83.73,25.49
		c-18.57,3.41-37.36,5.38-56.3,2.59c-7.69-1.13-14.98-3.14-21.05-8.34c-6.51-5.58-8.55-12.53-6.19-20.67
		c2.61-8.99,7.47-16.84,13.01-24.28c11.44-15.35,24.76-28.96,39.01-41.68c0.72-0.64,1.51-1.21,2.78-2.22
		c-5.14-0.92-8.11-2.99-8.15-7.79c-0.01-1.11-0.82-1.17-1.65-1.18c-6.12-0.08-9.6-3.74-12.13-8.81
		c-8.72-17.47-17.49-34.92-26.25-52.37c-0.97-1.93-2.05-3.81-2.89-5.79c-2.16-5.12,0.06-8.61,5.59-8.66
		c14.16-0.13,28.29,0.65,42.43,1.08c13.95,0.42,27.89,1.05,41.84,1.38c6.83,0.16,11.23,3.44,13.94,9.44
		c1.89,4.17,3.76,8.35,5.84,12.99c3.99-5.49,7.17-10.95,9.57-16.82c4.57-11.17,8.97-22.41,13.54-33.59c1.3-3.18,2.97-6.19,4.81-9.1
		c3.82-6,9.68-8.98,16.15-11.1c5.13-1.68,10.26-3.36,15.39-5.04c4.46-1.45,8.51-3.72,11.93-6.86c3.76-3.46,8.32-5.33,12.81-7.4
		c0.55-0.26,1.43-0.2,1.53-1.51c-1.69,0-3.37,0.01-5.05,0c-6.42-0.05-9.99-2.46-11.82-8.54c-1.96-6.5-4.7-12.68-7.47-18.84
		c-2.83-6.32-2.63-12.8-1.42-19.36c0.69-3.72,0.8-7.33-0.29-11.02c-1.19-4.05-1.12-8.25-0.7-12.42c0.26-2.54,0.27-5.06,0.01-7.97
		c-1.84,1.66-1.91,3.74-2.4,5.62c-3.45-2.15-3.97-7.03-1.37-12.86C401.83,137.86,401.51,137.73,400.81,137.87z M418.66,172.09
		c-0.51,0.03-1.22-1.73-1.51,0.07c-0.33,2.08-1.18,3.68-3.41,3.75c-2.09,0.07-2.98-1.61-3.65-3.61c-2.52,8.42-3.16,16.5,0.52,24.46
		c2.64,5.71,4.7,11.65,6.86,17.55c2.23,6.07,4.73,7.74,11.19,6.83c11.83-1.65,22.24-6.81,32.08-13.31c0.65-0.43,1.1-1.53,2.37-0.77
		c-3.96,5.81-8.38,11.16-13.72,15.69c-3.86,3.27-8,6.09-13.33,6.29c-1,0.04-1.42,0.37-1.38,1.37c0.1,2.2-0.68,4.24-1.12,6.35
		c-0.86,4.17,3.34,8.23,7.3,6.94c12.4-4.03,22.95-10.99,31.93-20.4c1.78-1.87,2.2-3.91,1.81-6.43c-0.95-6.16-0.94-12.33,0.39-18.46
		c0.23-1.06,1.21-2.48,0-3.2c-1.11-0.66-2.64-0.52-3.95,0.2c-0.45,0.25-0.82,0.92-1.64,0.49c0.24-0.52,0.5-1.01,0.7-1.53
		c0.94-2.35,2.1-3.49,5.02-2.38c3.59,1.36,7.05,0.17,9.77-2.47c5.18-5.03,7.01-11.27,5.76-18.31c-0.85-4.78-4.42-6.79-9.25-5.51
		c-3.94,1.05-6.77,3.46-8.46,7.18c-0.49,1.07-0.92,2.16-1.42,3.23c-0.99,2.11-2.93,1.3-4.44,1.19c-1.96-0.14-0.63-1.68-0.63-2.51
		c0.02-6.63-0.83-12.9-5.94-17.86c-2.73-2.65-3.91-6.06-3.99-9.85c-0.03-1.46,0-2.92,0-4.4c-6.96,1.01-11.65,0.58-14.09-1.28
		c2.4,0.02,4.67-0.25,6.38-1.41c-4.19,0-8.58,0.07-12.97-0.02c-4.42-0.09-8.83-0.43-13.25-0.51c-3.59-0.06-7,0.79-10.2,2.49
		c-1.08,0.58-1.94,1.25-2.37,2.46c-1.49,4.25-2.17,8.62-2.32,13.26c2.27-1.06,4.41-1.72,6.7-1.88c2.45-0.17,3.03,1.25,3.1,3.27
		c0.1,2.56-1.73,1.25-2.68,1.23c-6.13-0.13-7.52,1.51-6.06,7.4c0.05,0.19,0.15,0.36,0.23,0.54c5.15-2.06,7.21-1.37,10.19,3.44
		C419.02,171.82,418.84,171.96,418.66,172.09z"/>
	<path class="st7" d="M314.34,261.04c-19.25-0.01-38.57-1.05-57.73,0.24c-23.14,1.55-46.14-0.13-69.2-0.25
		c-3.05-0.01-6.11,0.15-9.13-0.11c-3.09-0.27-5.53,0.51-7.47,2.96c-0.6,0.76-1.41,1.36-2.12,2.03c-1.15-0.9-0.45-1.68,0.13-2.51
		c1.4-2.01,2.95-3.91,4.44-5.83c1.59-2.03,3.64-5.31,6.45-0.87c0.22,0.35,1.3,0.22,1.98,0.21c15.42-0.2,30.8,0.92,46.2,1.22
		c9.88,0.2,19.81,1.1,29.62-1.12c10.67-2.42,20.1-7.19,28.04-14.76c0.96-0.91,2.41-1.92,2.04-3.37c-1.49-5.73-2.77-11.55-5.76-16.77
		c0.47-4.26-1.66-8.16-1.92-12.53c1.58,0.5,2.98,0.88,4.33,1.39c1.57,0.59,2.51,0.63,2.49-1.54c-0.02-2.05,0.34-4.11,0.54-6.16
		c2.69,0.57,4.54,3.87,3.94,7.07c-0.44,2.35-1.23,4.22-4.22,2.89c-0.53-0.23-1.15-0.27-1.71-0.43c-2.12-0.6-2.67,0.15-2.08,2.21
		c1.79,6.23,3.56,12.46,5.22,18.72c0.62,2.34,1.48,1.96,2.87,0.66c4.02-3.75,8.18-7.36,12.13-11.18c1.35-1.31,3.07-2.44,3.77-4.59
		c-2.42-0.53-4.71-1.01-6.99-1.55c-0.79-0.19-1.56-0.53-1.32-1.59c0.22-0.94,0.94-0.84,1.65-0.67c1.7,0.4,2.19-0.57,2.56-2
		c0.94-3.63,1.04-7.39,1.11-11.03c0.32-17.07-6.36-31.3-18.61-42.98c-3.15-3-6.68-5.57-11.21-7.02c1.72,3.18,1.68,3.12-1.3,4.65
		c-3.14,1.62-6.25,3.3-9.29,5.1c-0.79,0.47-2.45,1.27-0.11,2.34c6.82,3.12,12.54,7.6,16.57,14.08c2.91,4.68,5.49,9.43,5.23,15.18
		c-3.74-13.63-12.88-22.24-25.49-27.78c-1.75-0.77-2.98-0.37-4.37,0.33c-2.45,1.23-4.87,2.51-7.67,2.96
		c-0.35-1.46,0.04-2.81,0.31-4.13c0.42-2.11,0.03-2.9-2.42-2.79c-10.4,0.45-19.25,4.32-26.56,11.65
		c-17.06,17.09-14.17,45.32,6.25,58.08c11.57,7.22,24.18,7.01,36.91,3.17c0.02,0.39,0.05,0.78,0.07,1.17
		c-1.21,0.56-2.42,1.12-3.64,1.67c-7.91,2.36-16.01,2.42-24.16,2.17c-6.67-0.21-13.35-0.4-20.03-0.38
		c-13.16,0.03-26.31,0.24-39.47,0.31c-2.69,0.02-5.27,0.4-7.76,1.42c0.52-2.38,3.3-4.1,7.07-4.14c6.78-0.08,13.56-0.06,20.34-0.08
		c1.05,0,2.1,0,3.65,0c-2.32-3.9-4.86-7.09-6.75-10.71c-10.42-19.91-7.86-46.01,6.54-63.46c13.15-15.95,30.14-23.36,50.78-22.38
		c4.09,0.19,4.09,0.22,4.98-3.85c0.35-1.61,0.69-3.23,1.16-5.41c3.13,3.31,5.99,6.19,8.69,9.21c2.69,3.02,5.63,5.49,9.31,7.45
		c20.74,11.05,33.17,27.74,34.3,51.86c0.2,4.36-0.3,8.66-1.25,12.87c-0.58,2.57,0.14,3.57,2.65,3.79c1.41,0.12,2.79,0.61,4.53,1
		c-6.15,7.34-13.62,12.86-19.75,19.64c0.65,1.08,1.52,0.63,2.21,0.64c7.07,0.17,14.15,0.22,21.22,0.44
		c4.43,0.14,5.78,1.45,6.01,5.84c0.09,1.69,0.91,1.94,2.23,1.94c2.65,0.01,5.31,0.15,7.96,0.03c1.6-0.07,2.09,0.57,2.09,2.01
		c0,4.22-0.02,8.45,0.09,12.67c0.04,1.69-0.79,1.91-2.18,1.9c-2.94-0.01-19.9-1.5-22.55-1.5c-0.9-0.61-2.75-1.5-2.25-2.56
		c0.46-0.99,1.5-0.75,2.35-0.79c6.65-0.33,21.56,1.44,21.68-5.32c0.05-2.71-0.79-3.57-3.45-3.45c-3,0.14-5.67-0.45-7.2-3.73
		c-0.7-1.5-1.39-3.71-3.69-3.83c-8.62-0.45-17.24-0.9-25.86-1.19c-1.48-0.05-3.23,0.56-1.71,2.7c0.64,0.9,0.42,1.63,0.01,2.45
		c-1.01,2.04-2.43,3.75-3.94,5.45c-2.5,2.81-6.04,4.52-8.27,7.7c1.07,0.77,2.08,0.47,3.01,0.45c6.95-0.11,13.9-0.33,20.86-0.4
		c2.02-0.02,5.47-0.95,7.78-0.95c0.5,1.35,2.44,0.69,3.77,0.8c1.1,0.09,2.35,0.1,2.55,1.46
		C316.65,261.13,314.73,260.1,314.34,261.04z M226.84,236.61c-0.4-0.26-0.8-0.51-1.2-0.77c-5.52-3.67-10.66-7.76-14.13-13.54
		c-6.54-10.9-8.01-22.39-4.28-34.64c4.83-15.89,21.33-30.33,41.17-28.02c1.53,0.18,2.44,0.56,2.1,2.32
		c-0.49,2.52,0.59,2.68,2.53,1.69c5.87-2.98,11.73-5.96,17.65-8.82c1.78-0.86,1.15-1.52,0.25-2.53c-3.64-4.12-7.18-8.33-10.87-12.41
		c-1.09-1.21-1.98-3.51-3.5-3.23c-1.53,0.28-1.38,2.75-1.79,4.27c-0.47,1.75-1.2,2.03-2.92,1.67c-2.29-0.47-4.68-0.61-7.02-0.66
		c-12.81-0.25-24.02,4.34-34.16,11.78c-8.39,6.15-15.23,13.8-19.04,23.53c-6.99,17.85-5.55,35.15,4.47,51.66
		c2.84,4.68,5.7,8.47,12.16,8.38C214.41,237.2,220.55,237.48,226.84,236.61z"/>
	<path class="st8" d="M167.48,241c2.49-1.02,5.07-1.41,7.76-1.42c13.16-0.07,26.31-0.28,39.47-0.31c6.68-0.02,13.35,0.17,20.03,0.38
		c8.15,0.25,16.25,0.2,24.16-2.17c-0.01,0.88,0.66,2.38,0.9,2.02c1.08-1.58,2.54-0.39,3.75-0.91c7.47-3.24,13.29-8.19,17.02-15.49
		c0.27-0.52,0.49-1.1,1.26-0.97c3,5.22,4.28,11.04,5.76,16.77c0.37,1.45-1.08,2.45-2.04,3.37c-7.94,7.57-17.37,12.34-28.04,14.76
		c-9.81,2.22-19.74,1.32-29.62,1.12c-15.4-0.31-30.78-1.42-46.2-1.22c-0.68,0.01-1.76,0.14-1.98-0.21
		c-2.81-4.44-4.87-1.16-6.45,0.87c-1.5,1.92-3.05,3.82-4.44,5.83c-0.58,0.83-1.27,1.61-0.13,2.51c-2.39,2.64-2.14,2.46-4.17-0.38
		c-2.05-2.88-2.16-4.93,0.59-7.47c2.18-2.01,1.73-3.11-0.94-4.52c-2.25-1.19-4.56-2.27-6.77-3.52c-1.34-0.75-3.51-0.93-3.02-3.32
		c0.51-2.48,2.62-1.9,4.29-2.07c1.17-0.12,2.36-0.16,3.53-0.13C164.81,244.59,166.7,243.64,167.48,241z"/>
	<path class="st8" d="M6.92,194.43c-3.19,0.31-5.33-1.22-5.13-3.67c0.22-2.66,2.62-4.08,5.12-2.99c0.72,0.31,1.36,0.8,2.08,1.1
		c3.61,1.5,5.37,0.87,7.31-2.48c0.64-1.1,1.24-2.32,2.17-3.13c2.08-1.82,1.35-3.38-0.14-4.98c-0.67-0.72-1.39-1.4-2.17-2
		c-1.31-1.01-1.43-2.4-0.97-3.72c0.54-1.54,1.97-2.2,3.53-2.18c1.48,0.01,2.61,0.77,3.12,2.26c0.29,0.83,0.51,1.7,0.92,2.47
		c1,1.88,2.18,3.12,4.65,1.91c1.85-0.9,4-0.93,6.07-0.99c3.52-0.09,5.35-1.96,5.12-5.41c-0.13-1.91,0.05-3.75,2.04-4.37
		c1.6-0.5,3.04,0.56,4.1,1.78c1.43,1.65,0.49,3.06-0.55,4.48c-0.67,0.92-1.61,1.64-1.78,2.94c-0.2,1.55-0.23,2.7,1.47,3.64
		c1.94,1.07,3.81,2.35,5.26,4.17c0.96,1.2,2.31,1.33,3.62,0.25c0.68-0.56,1.48-0.97,2.17-1.52c1.83-1.47,3.07-0.76,3.86,1.11
		c0.72,1.7,1.35,3.44,1.85,5.21c0.54,1.9-0.77,2.53-2.26,3.16c-1.23,0.52-3.17,0.21-3.58,1.64c-0.51,1.84-0.42,3.87-0.42,5.82
		c0,0.93,1.03,1.1,1.69,1.44c2.09,1.09,4.32,1.83,6.56,2.59c2.68,0.91,3.57,3.19,2.13,5c-1.37,1.72-3.18,1.8-4.62,0.37
		c-1.45-1.43-3.19-1.8-4.96-2.34c-2.55-0.77-4.65-0.47-6.54,1.73c-1.45,1.69-3.23,3.23-5.15,4.33c-1.74,1-1.98,2.23-1.78,3.89
		c0.41,3.37,1.76,6.42,3.17,9.45c0.43,0.92,1.26,1.81,0.1,2.89c-1.6,1.49-3.56,1.68-5.49,1.48c-1.33-0.14-0.89-1.55-0.94-2.45
		c-0.2-3.55-0.54-7.04-2.2-10.28c-0.76-1.49-1.69-2.52-3.53-2.68c-2.15-0.19-4.23-0.82-6.23-1.66c-3.45-1.46-4.84-1.02-6.98,2.17
		c-0.6,0.89-1,1.92-1.58,2.83c-1.23,1.93-3.06,2.25-4.83,1.11c-1.86-1.21-1.9-3.07-0.76-4.91c0.58-0.93,1.43-1.5,2.44-2.02
		c2.75-1.43,3.52-4.44,2.02-7.16c-0.9-1.64-1.78-3.28-2.28-5.09C13.53,195.55,11.23,194.01,6.92,194.43z M41.29,199.07
		c2.42-0.07,4.09-1.59,3.89-3.44c-0.23-2.15-1.61-3.31-3.72-3.4c-1.95-0.08-3.89,1.89-3.71,3.75
		C37.96,198.29,39.58,198.99,41.29,199.07z M30.41,197.34c-2.02,0.23-3.41,1.17-3.42,3.31c-0.01,2.11,1.36,3.38,3.31,3.39
		c2.07,0.01,3.59-1.35,3.61-3.49C33.93,198.44,32.34,197.57,30.41,197.34z M57.97,186.76c-0.05-0.89-0.76-1.01-1.25-0.92
		c-1.5,0.29-3.16,0.5-3.94,2.07c-0.34,0.69,0.29,1.07,0.96,1.03C55.49,188.86,56.87,188.05,57.97,186.76z"/>
	<path class="st7" d="M228.91,34.02c-0.18,13.4-2.18,26.4-8.5,38.45c-7.15,13.64-17.52,23.77-31.92,29.6
		c-1.18,0.48-2.13,0.54-3.34,0.06c-16.66-6.76-27.99-18.76-34.92-35.17c-3.47-8.22-5.04-16.95-6.08-25.69
		c-0.72-6.09-0.11-12.34-0.1-18.51c0-1.34,0.46-2.05,1.93-2.39c13.47-3.16,26.12-8.43,38.13-15.25c1.75-0.99,3.1-0.97,4.84,0
		c12.06,6.7,24.63,12.16,38.12,15.29c1.28,0.3,1.8,0.87,1.78,2.2c-0.04,3.14,0.03,6.29,0.06,9.43
		C228.92,32.69,228.91,33.35,228.91,34.02z M224.98,35.36c-0.1-3.24,0.32-6.06,0.05-8.93c-0.18-1.97-0.94-2.7-2.66-3.13
		c-11.51-2.87-22.3-7.58-32.63-13.3c-2.48-1.37-4.28-1.45-6.61,0.1c-5.15,3.44-10.94,5.71-16.55,8.19
		c-5.24,2.31-10.99,3.5-16.53,5.13c-1.37,0.4-2.11,0.95-2.15,2.59c-0.29,12.35,0.73,24.5,4.79,36.28
		c5.44,15.81,15.42,27.58,30.57,34.89c2.4,1.16,4.52,1.3,6.97,0.12c8.76-4.25,15.96-10.3,21.64-18.19
		C221.36,65.92,224.77,50.91,224.98,35.36z"/>
	<path class="st8" d="M95.2,48.48c0.85,0.36,1.6,0.48,2.09,0.91c2.12,1.87,3.95,1.06,6.06-0.16c1.51-0.87,2.67-1.76,2.5-3.52
		c-0.26-2.69,1.12-3.14,3.43-3.39c2.88-0.3,4.6,0.18,5.01,3.43c0.31,2.44,5.19,4.05,7.2,2.62c1.15-0.82,2.13-2.7,3.64-1.96
		c1.61,0.79,2.85,2.36,4.17,3.68c0.72,0.72-0.15,1.31-0.53,1.73c-2.36,2.59-1.29,5.17-0.22,7.87c0.68,1.72,2.1,1.17,3.22,1.37
		c2,0.35,3.61,0.76,3.32,3.41c-0.24,2.14,0.66,4.49-3.01,4.78c-3.63,0.3-5.21,4.71-2.98,7.64c1.25,1.65,2.36,2.87,0.33,4.96
		c-1.91,1.97-3.44,2.34-5.8,0.93c-3.21-1.92-6.97,0.32-6.84,4.03c0.08,2.24-0.42,3.61-2.97,3.5c-2.16-0.1-4.69,1.15-5.17-2.73
		c-0.56-4.57-4.76-5.94-8.31-2.82c-2.92,2.56-4.03-0.61-5.79-1.59c-2.16-1.19-0.57-2.47,0.16-3.59c2.17-3.36,0.58-6.86-3.45-7.52
		c-3.17-0.52-4.92-3.67-3.79-6.71c0.41-1.11,1.4-0.94,2.19-1.16c4.48-1.24,5.74-5.31,2.86-8.98c-0.61-0.78-2.21-1.54-1.09-2.92
		C92.56,50.9,93.58,49.3,95.2,48.48z M122.55,66.03c0.04-6.39-4.92-11.32-11.36-11.3c-6.19,0.02-11.29,5.24-11.59,11.37
		c-0.3,6.14,6.21,11.61,11.66,11.43C117.6,77.33,122.51,72.5,122.55,66.03z"/>
	<path class="st8" d="M98.25,170.79c-3.63,0-7.27,0.08-10.9-0.02c-3.47-0.1-5-1.67-5.04-5.15c-0.06-5.8-0.05-11.59-0.01-17.39
		c0.02-3.28,1.77-5.24,5.01-5.28c7.37-0.1,14.74-0.1,22.1,0.01c3.09,0.04,4.91,1.94,4.88,5.11c-0.05,6.32-0.24,12.65-0.49,18.96
		c-0.11,2.64-1.86,3.75-4.35,3.77c-3.73,0.03-7.47,0.01-11.2,0.01C98.25,170.8,98.25,170.79,98.25,170.79z"/>
	<path class="st7" d="M120.59,244.51c-0.25,12.62-2.28,23.92-8.26,34.23c-4.97,8.58-11.79,15.09-21.06,18.91
		c-1.48,0.61-2.72,0.61-4.19,0.01c-14.21-5.74-22.36-16.77-26.75-30.91c-2.85-9.18-3.23-18.71-3.1-28.27
		c0.03-1.98,0.55-2.68,2.68-3.12c9.36-1.92,18.27-5.25,26.78-9.61c1.63-0.83,2.86-0.94,4.57-0.04c8.28,4.39,17.1,7.39,26.23,9.37
		c2.43,0.53,3.3,1.46,3.14,3.83C120.48,241.07,120.59,243.24,120.59,244.51z M60.43,246.09c-0.05,6.33,0.72,12.56,2.52,18.63
		c3.91,13.2,11.07,23.79,24.12,29.58c1.27,0.56,2.35,0.63,3.64,0.08c7.56-3.21,13.33-8.46,17.76-15.3
		c7.29-11.28,9.03-23.87,8.88-36.96c-0.03-2.69-0.91-3.86-3.45-4.41c-8.1-1.78-15.84-4.59-23.21-8.4c-1.14-0.59-2.04-0.74-3.27-0.1
		c-6.56,3.39-13.51,5.79-20.57,7.92C60.34,239.09,60.36,239.15,60.43,246.09z"/>
	<path class="st8" d="M57.79,89.63c0.49-1.71-0.55-2.59-1.87-3.2c-1.37-0.64-1.46-1.54-0.99-2.84c0.48-1.33,1.21-1.81,2.65-1.61
		c3.21,0.44,4.94-1.47,4.42-4.75c-0.19-1.21-0.45-2.38,1.14-2.86c1.44-0.44,2.7-1.34,4.08,0.52c1.69,2.28,5.82,1.73,6.84-0.9
		c0.89-2.3,2.16-2.19,4.09-1.68c1.99,0.53,1.85,1.74,1.42,3.15c-0.64,2.09,1.07,2.74,2.23,3.67c1.16,0.94,2.36,1.73,3.93,0.49
		c1.27-1,3.16-0.92,3.32,0.66c0.18,1.75,2.74,3.96-0.44,5.56c-2.57,1.29-2.64,5.82-0.16,7.3c1.26,0.75,2.64,1.18,1.98,3.28
		c-0.63,2-1.11,3.15-3.71,2.45c-3.34-0.9-6.04,1.86-5.14,5.08c0.8,2.85-0.79,3.54-2.91,4.33c-2.42,0.9-2.29-1.11-2.83-2.27
		c-0.48-1.02-0.84-2.09-2.22-1.89c-1.98,0.3-4.41-1.12-5.8,1.53c-0.84,1.6-1.55,2.77-3.94,1.54c-2.2-1.13-2.14-2.29-1.64-4.17
		c0.77-2.89-1.32-5.45-4.27-4.85c-2.46,0.5-2.97-0.67-3.7-2.45c-0.86-2.11,0.76-2.28,1.88-2.77C57.7,92.26,58.11,91.16,57.79,89.63z
		 M72.69,80.46c-5.24-0.05-9.75,4.42-9.77,9.68c-0.01,5.35,3.93,9.31,9.24,9.3c4.96-0.01,9.75-4.65,9.82-9.49
		C82.05,84.9,77.75,80.51,72.69,80.46z"/>
	<path class="st7" d="M242.83,82.42c3.06-2.8,4.99-6.23,5.83-10.27c0.37-1.76,0.12-3.13-1.13-4.57c-6.61-7.6-8.22-16.13-4.03-25.4
		c0.76-1.68-1.04-2.46-0.59-3.34c0.55-1.05,2.15,0.67,3.36-0.92c10.29-13.5,31.95-15.81,46.29-7.02
		c10.15,6.23,15.14,15.64,12.84,26.43c-2.1,9.85-9.08,15.51-17.99,19.08c-7.83,3.14-15.9,3.37-24,1.26
		c-1.94-0.51-3.25-0.11-4.78,0.98c-3.65,2.61-7.71,4.29-12.25,4.62C245.21,83.35,244.05,83.42,242.83,82.42z M248.98,79.52
		c3.72-0.37,6.57-2.02,9.17-4.1c1.42-1.13,2.63-1.39,4.48-0.84c11.78,3.48,22.72,1.78,32.49-5.91c9.28-7.3,10.61-20.25,3.1-29.33
		c-11.39-13.77-34.85-14.76-47.8-2.02c-8.34,8.22-8.68,20.33-0.58,28.68c1.86,1.91,2.15,3.77,1.65,6.12
		C250.97,74.59,250.01,76.92,248.98,79.52z"/>
	<path class="st7" d="M117.15,125.47c-6.49,0-12.97,0.01-19.46,0.02c-15.23,0.02-30.46,0.02-45.68,0.06
		c-3.73,0.01-4.96,1.31-4.95,4.94c0.01,7.76-0.02,15.53,0.1,23.29c0.01,0.92-0.94,2.82,0.94,2.74c1.56-0.07,0.85-1.86,0.89-2.88
		c0.15-4.42,0.31-8.84,0.21-13.26c-0.05-2.12,0.74-2.77,2.66-2.54c0.96,0.14,1.92,0.38,2.89,0.39c8.12,0.03,16.25,0.08,24.37,0
		c3.68-0.04,7.41,0.86,10.93,0.49c5.48-0.58,10.91-0.27,16.35-0.53c4.09-0.19,8.19,0.64,12.25-0.27c2.13-0.04,1.61,1.56,1.61,2.72
		c0.01,22.9-0.04,45.8,0.02,68.69c0.01,2.69-1.06,3.75-3.62,3.78c-5.29,0.05-10.59,0.18-15.88,0.26c-1.21,0.02-2.46-0.12-3.23,1.48
		c6.46,0.41,12.89,0.39,19.31,0.42c4.12,0.02,5.73-1.47,5.73-5.59c0.03-26.24,0.04-52.48,0.03-78.72
		C122.63,126.83,121.21,125.47,117.15,125.47z M55.33,134.19c-1.02-0.6-1.7-1.43-1.12-2.61c0.45-0.92,1.34-1.45,2.42-1.1
		c1.21,0.39,2.08,1.09,1.59,2.57C57.35,133.66,56.43,134.16,55.33,134.19z M61.76,132.41c0.04-1.47,1.03-1.99,2.28-2.12
		c1.29-0.14,1.88,0.74,2.29,1.79C64.72,134.72,63.99,134.77,61.76,132.41z M72.31,133.98c-1.85,0.37-2.46-1.04-2.71-2.6
		c1.13-1.38,2.41-1.74,3.91-0.58C74.03,132.21,74.07,133.63,72.31,133.98z"/>
	<path class="st8" d="M287.4,92c-1.69,1.57-2.89,2.68-4.15,3.84c-0.85-2.52-1.45-10.06-1.07-13.78c4.43,2.16,8.75,4.27,13.32,6.5
		c-0.56,0.42-0.75,0.63-0.99,0.74c-1.59,0.77-3.83,1.11-4.6,2.37c-0.87,1.42,1.39,2.84,1.86,4.45c0.21,0.73,1.26,1.54-0.13,2.19
		c-0.98,0.46-1.51-0.16-1.87-0.88C288.96,95.81,287.44,94.54,287.4,92z"/>
	<path class="st8" d="M43.2,273.64c0.76-0.7,1.25-1.15,1.73-1.61c2.71-2.58,2.64-2.51,0.06-5.17c-1.14-1.18-1.96-2.68-2.88-4.06
		c-0.37-0.56-0.78-1.29-0.04-1.83c0.78-0.58,1.27,0.12,1.65,0.67c1.17,1.69,2.43,3.33,3.39,5.14c0.84,1.58,1.39,1.55,2.46,0.25
		c2.85-3.45,2.89-3.42,4.46,0.8c0.75,2.02,1.5,4.04,2.29,6.04c0.39,0.98,0.57,1.64-0.9,1.7C53.48,275.65,45.76,274.58,43.2,273.64z"
		/>
	<path class="st8" d="M297.95,138.1c-3.8,1.61-7.56,2.58-11.31,3.56c-1.39,0.36-2.03-0.14-1.8-1.64c0.45-2.89,0.86-5.8,1.31-8.69
		c0.23-1.46,1.09-1.51,2.03-0.7c1.68,1.45,3.29,2.24,5.16,0.29c0.46-0.48,1.11-0.27,1.55,0.21c0.44,0.48,0.17,0.96-0.2,1.26
		c-2.32,1.85-0.73,2.77,0.82,3.78C296.32,136.68,297.02,137.35,297.95,138.1z"/>
	<path class="st8" d="M158.87,215.47c0.08-1.22,0.14-2.27,0.22-3.31c0.09-1.14,0.15-2.23-1.47-2.27c-0.77-0.02-0.92-0.58-0.89-1.24
		c0.02-0.53,0.2-1.13,0.73-1.11c2.55,0.11,2.15-1.67,2.12-3.2c-0.02-1.53,0.27-2.3,1.95-1.2c2.63,1.72,5.34,3.31,8.01,4.96
		c0.9,0.56,1.39,1.17,0.12,1.92C166.22,212.06,162.89,214.31,158.87,215.47z"/>
	<path class="st8" d="M65.05,179.33c1.36-1.53,2.62-1.54,3.9-1.54c13.83-0.01,27.66-0.02,41.49-0.02c0.49,0,0.98,0.01,1.47,0.03
		c0.64,0.03,1.24,0.25,1.24,0.96c0.01,0.73-0.61,0.94-1.24,0.94c-1.96,0.01-3.92,0-5.88,0c-12.46-0.01-24.91-0.01-37.37-0.03
		C67.62,179.67,66.58,179.48,65.05,179.33z"/>
	<path class="st8" d="M184.07,284.89c-2.4-3.9-6.09-5.62-9.43-8.12c3.28-2.49,7.01-3.62,10.61-4.99c0.58-0.22,1.55-0.43,1.38,0.76
		C186.02,276.54,185.84,280.63,184.07,284.89z"/>
	<path class="st8" d="M152.94,111.59c2.73-2.17,6.09-3.55,9.21-5.3c0.94-0.53,1.66-0.53,1.72,0.89c0.13,2.94,0.36,5.88,0.51,8.82
		c0.07,1.31-0.2,1.9-1.65,0.91c-1.25-0.85-2.85-2.38-3.88,0.38c-0.16,0.42-0.58,0.56-0.96,0.34c-0.2-0.12-0.45-0.53-0.38-0.7
		C159.39,112.13,154.62,113.56,152.94,111.59z"/>
	<path class="st8" d="M94.87,202.7c-5.3,0-10.59,0.04-15.88-0.04c-0.83-0.01-2.33,0.44-2.31-1.01c0.01-1.12,1.37-0.9,2.17-0.91
		c10.68-0.04,21.36-0.05,32.04-0.03c0.81,0,2.13-0.31,2.15,0.88c0.02,1.42-1.38,1.05-2.28,1.06c-5.3,0.03-10.59,0.01-15.89,0.01
		C94.87,202.68,94.87,202.69,94.87,202.7z"/>
	<path class="st8" d="M99.09,185.39c3.92,0,7.83,0,11.75,0c0.88,0,2.09-0.13,2.14,0.96c0.06,1.33-1.27,0.91-2.04,0.92
		c-7.73,0.05-15.46,0.05-23.19,0.06c-0.39,0-0.81,0.02-1.16-0.11c-0.68-0.24-1.84-0.12-1.73-1.16c0.1-0.94,1.16-0.91,1.91-0.9
		c3.32,0.05,6.65,0.17,9.97,0.25c0.78,0.02,1.57,0,2.35,0C99.09,185.41,99.09,185.4,99.09,185.39z"/>
	<path class="st8" d="M100.75,195.15c-3.44,0-6.87,0.02-10.31-0.01c-0.74-0.01-1.83,0.17-1.9-0.88c-0.07-1.05,1.04-1.07,1.76-1.07
		c6.97-0.04,13.94-0.03,20.91-0.01c0.79,0,1.79,0.12,1.72,1.13c-0.07,1.07-1.17,0.85-1.89,0.86c-3.44,0.04-6.87,0.02-10.31,0.02
		C100.75,195.17,100.75,195.16,100.75,195.15z"/>
	<path class="st8" d="M66.47,145.99c-3.33,0-6.67,0.03-10-0.02c-0.7-0.01-1.8,0.15-1.69-1.04c0.08-0.91,1.03-0.77,1.67-0.77
		c6.57-0.02,13.14-0.02,19.71-0.01c0.67,0,1.58-0.03,1.57,0.88c-0.01,0.82-0.83,0.96-1.56,0.96
		C72.94,145.99,69.71,145.99,66.47,145.99z"/>
	<path class="st8" d="M233.26,63.56c1.23,0.11,1.62,0.92,1.86,1.56c0.67,1.8,1.66,2.18,3.32,1.21c0.44-0.26,1.37-1.05,1.55,0.19
		c0.13,0.89,1.28,2.09-0.33,2.77c-1.97,0.83-3.96,1.66-5.98,2.36c-1.02,0.36-1.35-0.32-1.35-1.28
		C232.33,68.03,232.71,65.78,233.26,63.56z"/>
	<path class="st8" d="M69.42,166.74c2.24,0,4.49-0.03,6.73,0.02c0.66,0.02,1.48,0.13,1.46,1.07c-0.02,0.93-0.83,1.01-1.5,1
		c-4.49-0.06-8.97-0.15-13.46-0.26c-0.7-0.02-1.52-0.2-1.52-1.04c0.01-0.89,0.87-0.92,1.55-0.93c2.25-0.02,4.49-0.01,6.74-0.01
		C69.42,166.64,69.42,166.69,69.42,166.74z"/>
	<path class="st8" d="M71.69,161.3c-1.37,0-2.74,0.04-4.11-0.02c-0.73-0.03-1.41-0.42-1.34-1.25c0.06-0.71,0.76-0.81,1.35-0.82
		c2.85-0.05,5.69-0.1,8.54-0.11c0.68,0,1.5,0.09,1.57,0.97c0.08,1.06-0.76,1.25-1.6,1.26c-1.47,0.02-2.94,0.01-4.42,0.01
		C71.69,161.32,71.69,161.31,71.69,161.3z"/>
	<path class="st8" d="M70.21,195.41c-1.02-0.25-4,0.82-4.01-0.96c-0.02-2.2,2.83-0.84,4.39-1.11c1.33-0.23,2.74-0.09,4.11,0
		c0.61,0.04,1.1,0.51,1,1.22c-0.08,0.55-0.53,0.82-1.05,0.83C73.37,195.43,72.1,195.41,70.21,195.41z"/>
	<path class="st8" d="M296,114.08c-0.02-0.29-0.09-0.59-0.06-0.88c0.1-0.88-0.69-2.18,0.65-2.52c1.57-0.4,1.6,1.1,1.83,2.07
		c0.31,1.33,0.49,2.69,0.61,4.05c0.09,0.99-0.45,1.79-1.45,1.84c-0.97,0.05-1.22-0.86-1.33-1.65
		C296.13,116.04,296.09,115.06,296,114.08z"/>
	<path class="st8" d="M60.74,153.69c-1.47,0-2.94,0.03-4.4-0.01c-0.69-0.02-1.48-0.17-1.42-1.09c0.04-0.77,0.8-0.75,1.36-0.76
		c2.84-0.06,5.67-0.12,8.51-0.1c0.74,0,1.77,0.06,1.7,1.12c-0.05,0.79-0.92,0.89-1.63,0.9c-1.37,0.01-2.74,0-4.11,0
		C60.74,153.73,60.74,153.71,60.74,153.69z"/>
	<path class="st8" d="M34.95,232.59c-0.53,1.49,0.67,4.03-1.31,4.04c-1.93,0.01-1.18-2.5-1.19-3.92c-0.01-1.4-0.64-3.83,1.49-3.71
		C35.88,229.11,34.47,231.43,34.95,232.59z"/>
	<path class="st8" d="M299.05,123.98c-0.01,1.6-0.76,3-1.3,4.44c-0.29,0.77-0.83,1-1.62,0.77c-1.13-0.33-0.84-1.08-0.62-1.86
		c0.33-1.21,0.6-2.44,0.97-3.64c0.26-0.84,0.11-2.18,1.63-1.86C299.31,122.09,298.99,123.15,299.05,123.98z"/>
	<path class="st8" d="M33.21,242.03c-0.07-1.15-0.1-1.88,0.83-2.01c0.74-0.1,1.34,0.16,1.5,1.01c0.31,1.62,0.63,3.24,0.94,4.86
		c0.16,0.81-0.16,1.34-0.96,1.5c-0.75,0.15-1.07-0.46-1.22-0.99C33.85,244.82,33.5,243.21,33.21,242.03z"/>
	<path class="st8" d="M37.21,250.87c1.07-0.11,1.33,0.49,1.56,1c0.65,1.42,1.22,2.89,1.87,4.31c0.29,0.65,0.24,1.1-0.4,1.47
		c-0.65,0.37-1.14,0.2-1.45-0.42c-0.78-1.57-1.59-3.14-2.26-4.76C36.2,251.65,36.36,250.87,37.21,250.87z"/>
	<path class="st7" d="M296.25,106.43c0.08,0.6-0.32,0.88-0.77,1.11c-0.43,0.23-0.74-0.05-1.01-0.33c-0.13-0.14-0.26-0.31-0.33-0.49
		c-0.53-1.5-1.81-2.84-1.18-4.59c0.1-0.28,0.82-0.42,1.27-0.48C294.53,101.62,296.28,105.89,296.25,106.43z"/>
	<path class="st8" d="M140.27,209c-0.65,0-0.94,0.03-1.23-0.01c-0.98-0.13-2.54,0.27-2.48-1.2c0.06-1.62,1.63-0.79,2.57-0.92
		c0.28-0.04,0.58-0.03,0.87,0.01c1.15,0.16,3.08-0.41,2.92,1.38C142.79,209.78,140.94,208.69,140.27,209z"/>
	<path class="st8" d="M140.33,42.79c-0.51,1.33-1.83,1.32-2.87,1.67c-1.23,0.42-3.06,1.95-3.65,0.48c-0.55-1.39,1.88-1.74,3.05-2.45
		c0.65-0.4,1.41-0.66,2.15-0.81C139.81,41.51,140.29,41.94,140.33,42.79z"/>
	<path class="st8" d="M149.68,207.49c0.84,0,1.43-0.04,2,0.01c0.79,0.06,1.64,0.15,1.52,1.27c-0.11,0.92-0.82,0.92-1.54,0.87
		c-0.58-0.04-1.17,0-1.74-0.08c-1.16-0.17-3.14,0.33-3.08-1.23C146.92,206.5,148.88,207.82,149.68,207.49z"/>
	<path class="st8" d="M136.87,153.7c-1.03-0.12-1.12-1.04-0.67-1.64c1.03-1.38,2.22-2.68,3.49-3.85c0.76-0.7,1.22,0.11,1.37,0.77
		C141.22,149.69,137.74,153.62,136.87,153.7z"/>
	<path class="st8" d="M164.15,291.24c-0.72,0.06-1.25-0.22-1.43-0.83c-0.16-0.54,0.28-0.85,0.74-1.08c1.31-0.63,2.61-1.28,3.92-1.92
		c0.6-0.29,1.12-0.3,1.45,0.39c0.25,0.52,0.09,0.94-0.32,1.28C167.21,290.15,165.6,290.59,164.15,291.24z"/>
	<path class="st8" d="M128.36,160.23c-0.43,0.15-0.84-0.06-0.94-0.41c-0.09-0.3,0.04-0.84,0.27-1.01c1.41-1.03,2.88-1.99,4.33-2.96
		c0.54-0.36,0.93-0.02,1.25,0.35c0.37,0.44,0.29,0.89-0.14,1.27C131.74,158.73,130.15,159.65,128.36,160.23z"/>
	<path class="st8" d="M177.51,282.52c-0.48,1.43-1.7,1.99-2.69,2.73c-0.75,0.56-1.55,1.27-2.62,0.82c-0.34-0.14-0.76-0.61-0.45-0.92
		c1.36-1.39,2.8-2.71,4.67-3.36C176.67,281.7,177.14,282.26,177.51,282.52z"/>
	<path class="st8" d="M152.67,131.17c-0.68,1.2-1.48,2.66-2.31,4.09c-0.23,0.39-0.63,0.42-1.03,0.26c-0.57-0.22-0.71-0.66-0.46-1.17
		c0.68-1.41,1.38-2.81,2.09-4.2c0.19-0.37,0.55-0.58,0.97-0.41C152.39,129.95,152.75,130.28,152.67,131.17z"/>
	<path class="st8" d="M116.49,294.59c-1.21-0.73-3.45,0.07-3.86-2.16c-0.2-1.1,0.81-0.89,1.41-0.69c1.53,0.52,3.71,0.08,4.2,2.23
		C118.4,294.7,117.29,294.68,116.49,294.59z"/>
	<path class="st8" d="M153.74,294.91c-0.23,0.08-1.01-0.36-0.74-0.85c1.05-1.96,3.34-1.59,5.06-2.31c0.59-0.25,1.42,0.3,1.16,0.84
		C158.21,294.67,156,294.28,153.74,294.91z"/>
	<path class="st8" d="M144.38,296.68c-0.57,0.15-1.47,0.1-1.66-0.81c-0.26-1.24,0.96-0.95,1.59-1.08c1.22-0.26,2.48-0.36,3.72-0.5
		c0.62-0.07,1.28,0.09,1.4,0.73c0.13,0.67-0.52,1.05-1.07,1.15C147.12,296.41,145.87,296.5,144.38,296.68z"/>
	<path class="st8" d="M143.7,145.16c-0.95-0.27-0.91-0.89-0.5-1.56c0.81-1.32,1.67-2.61,2.51-3.9c0.27-0.41,0.57-0.82,1.14-0.43
		c0.3,0.21,0.72,0.42,0.5,0.9c-0.8,1.77-1.75,3.44-3.1,4.85C144.13,145.13,143.89,145.12,143.7,145.16z"/>
	<path class="st8" d="M154.66,126.14c-0.94,0.01-1.23-0.53-1.03-1.14c0.42-1.27,0.95-2.51,1.52-3.72c0.22-0.47,0.79-0.67,1.18-0.22
		c0.63,0.74,0.61,1.63,0.08,2.41C155.79,124.38,155.95,125.83,154.66,126.14z"/>
	<path class="st8" d="M126.04,296.39c-1.35-0.32-4.03-0.03-3.78-1.49c0.31-1.85,2.61-0.47,4.02-0.31c0.81,0.09,2.35-0.26,2.11,1.24
		C128.19,297.06,126.93,296.32,126.04,296.39z"/>
	<path class="st8" d="M239.59,36.1c-0.09,0.71-0.14,1.53-0.69,1.24c-1.58-0.85-3.65-0.99-4.61-2.73c-0.32-0.58,0.44-1.07,1.08-0.94
		C237.08,34.04,238.75,34.53,239.59,36.1z"/>
	<path class="st8" d="M135.94,295.29c0.83,0.52,2.94-0.89,2.93,0.92c-0.02,1.6-2.07,0.74-3.22,0.94c-0.19,0.03-0.4,0.04-0.58-0.01
		c-0.94-0.26-2.67,0.39-2.59-1.08c0.08-1.53,1.78-0.4,2.69-0.75C135.32,295.24,135.54,295.29,135.94,295.29z"/>
	<path class="st8" d="M129.78,208.21c-1.17-0.43-3.36,0.5-3.24-1.35c0.09-1.34,2.17-0.56,3.35-0.6c0.97-0.04,2.58,0.06,2.51,1.15
		C132.29,208.97,130.72,208.06,129.78,208.21z"/>
	<path class="st8" d="M74.38,151.59c1.23,0.38,3.12-0.48,3.2,0.86c0.1,1.79-1.86,1.21-2.99,1.21c-1.16,0-3.2,0.58-3.18-1.03
		C71.43,150.88,73.51,152.2,74.38,151.59z"/>
	<path class="st8" d="M80.82,193.28c0.78,0.04,1.79,0.01,1.82,1.01c0.05,1.18-1.06,1.23-1.93,1.29c-0.81,0.05-1.69-0.05-1.63-1.16
		C79.14,193.39,80,193.3,80.82,193.28z"/>
	<path class="st8" d="M59.06,161.51c-0.75-0.23-2,0.32-1.94-1.12c0.04-1.09,1.01-0.99,1.78-1.01c0.87-0.02,2.02-0.13,2.12,1.01
		C61.13,161.75,59.8,161.26,59.06,161.51z"/>
	<path class="st8" d="M228.91,34.02c0-0.66,0.01-1.33,0.01-1.99c0.63,0.5,2.07,0.12,1.95,1.34
		C230.75,34.51,229.51,33.6,228.91,34.02z"/>
	<path class="st5" d="M544.03,309.08c1.98-1.68,2.16-4.13,3.79-6.93c0.11,6.05,1.53,11.09-1.79,16.28
		c-7.19,11.24-14.03,22.7-22.77,32.86c-0.96,1.12-2,2.17-2.97,3.28c-0.73,0.84-1.47,1.17-2.56,0.59c-4.57-2.45-9.55-2.76-14.6-2.65
		c-0.44,0.01-0.96,0.24-1.44-0.4c7.81-5.37,16.88-8.49,25.4-14.29c-9.98,1.36-18.61,3.99-27.28,9.27
		c3.36-12.32,11.06-21.6,15.02-32.62c-5.12,4.26-8.69,9.83-13.35,15.13c-0.47-5.49,0.17-10.42,0.7-15.33
		c1.11-10.35,2.84-20.61,6.35-30.47c2.56-7.18,5.98-13.88,11.79-19.07c2.89-2.58,6.37-3.99,10.1-4.94c-2.67-0.46-5.12,0.42-7.41,1.5
		c-6.92,3.28-11.73,8.71-15.25,15.41c-5.6,10.66-7.89,22.28-9.85,33.98c-0.83,4.93-1.3,9.92-1.99,15.37
		c-4.03-6.99-3.23-14.19-3.02-21.34c-2.48,7.36-4.1,14.94-1.45,22.39c1.96,5.52,1.48,10.53-0.28,15.75
		c-0.66,1.95-1.18,3.95-1.82,5.91c-1.68,5.16-1.7,5.04-7.27,5.5c-12.16,1-23.87-1.3-35.41-4.75c-3.17-0.95-6.4-1.7-9.54-2.83
		c-1.81-0.65-2-1.12-1.09-2.5c3.41-5.15,6.67-10.42,10.3-15.42c6.5-8.95,13.29-17.69,20.14-26.37c1.43-1.82,2.82-1.78,4.52-1.67
		c5.19,0.31,10.37,0.7,15.56,1.05c1.17,0.08,2.44,0.3,2.81-1.72c-6.17-0.87-12.3-1.74-18.88-2.68c4.59-5.99,8.89-11.55,13.13-17.15
		c1.66-2.19,3.16-4.5,4.79-6.71c0.87-1.18,0.74-2.11-0.35-3.05c-2.23-1.9-4.42-3.84-7-6.09c3.44-0.55,6.53-1.17,9.66-1.5
		c1.74-0.18,2.31-0.9,2.47-2.57c0.79-7.89,1.58-15.79,1.89-23.9c2.66,0.79,4.97,2.11,7.08,3.55c5.54,3.8,12.07,5.28,17.99,8.16
		c3.97,1.93,8.03,3.7,11.98,5.68c6.14,3.09,10.08,7.78,11.31,14.82c1.61,9.2,3.81,18.31,2.63,27.74
		C545.55,300.62,544.72,304.84,544.03,309.08z"/>
	<path class="st6" d="M281.27,293.95c17.73,0.74,31.49,0.99,45.24,1.68c5.44,0.27,8.72,2.72,11,7.36
		c3.55,7.22,6.63,14.65,9.79,22.04c5.28,12.35,10.48,24.74,15.7,37.12c0.3,0.72,0.57,1.47,0.8,2.22c1.36,4.48-1,7.7-5.74,7.41
		c-7.35-0.45-14.69-1.14-22.03-1.76c-8.52-0.72-17.02-1.5-25.48-2.8c-1.16-0.18-2.36-0.12-3.17-1.24c-1.78-2.46-4.4-3.18-7.23-3.25
		c-5.5-0.14-11.01-0.16-16.51-0.3c-1.88-0.05-3.54,0.89-5.46,0.89c-4.7,0-7.74-2.15-9.79-6.25c-4.86-9.74-9.87-19.41-14.72-29.16
		c-4.84-9.71-9.61-19.46-14.32-29.24c-2.02-4.2-1.02-5.8,3.73-5.71C257.14,293.24,271.19,293.68,281.27,293.95z M308.55,332.55
		c-0.08-5.44-7.57-10.33-13.36-8.72c-3.2,0.89-4.67,3.36-4.01,6.78c0.99,5.17,7.41,9.3,12.59,8.09
		C306.84,337.98,308.59,335.73,308.55,332.55z"/>
	<path class="st6" d="M419.21,171.69c-2.98-4.81-5.03-5.5-10.19-3.44c-0.08-0.18-0.19-0.35-0.23-0.54c-1.46-5.89-0.08-7.53,6.06-7.4
		c0.94,0.02,2.77,1.33,2.68-1.23c-0.08-2.02-0.66-3.45-3.1-3.27c-2.29,0.16-4.43,0.82-6.7,1.88c0.16-4.64,0.84-9.01,2.32-13.26
		c0.42-1.21,1.28-1.88,2.37-2.46c3.2-1.7,6.61-2.55,10.2-2.49c4.42,0.08,8.83,0.42,13.25,0.51c4.39,0.09,8.78,0.02,12.97,0.02
		c-1.71,1.16-3.97,1.43-6.38,1.41c2.43,1.86,7.13,2.29,14.09,1.28c0,1.48-0.02,2.94,0,4.4c0.07,3.79,1.25,7.21,3.99,9.85
		c5.12,4.95,5.96,11.22,5.94,17.86c0,0.84-1.33,2.38,0.63,2.51c1.51,0.11,3.45,0.92,4.44-1.19c0.5-1.06,0.94-2.16,1.42-3.23
		c1.69-3.72,4.52-6.13,8.46-7.18c4.83-1.29,8.41,0.72,9.25,5.51c1.24,7.04-0.58,13.28-5.76,18.31c-2.72,2.64-6.18,3.82-9.77,2.47
		c-2.92-1.1-4.08,0.03-5.02,2.38c-0.21,0.51-0.46,1.01-0.7,1.53c0.82,0.43,1.19-0.25,1.64-0.49c1.31-0.72,2.84-0.86,3.95-0.2
		c1.21,0.72,0.23,2.14,0,3.2c-1.34,6.13-1.35,12.3-0.39,18.46c0.39,2.51-0.03,4.56-1.81,6.43c-8.99,9.41-19.54,16.37-31.93,20.4
		c-3.95,1.28-8.15-2.77-7.3-6.94c0.43-2.11,1.22-4.15,1.12-6.35c-0.05-1,0.38-1.33,1.38-1.37c5.32-0.2,9.47-3.01,13.33-6.29
		c5.34-4.53,9.76-9.88,13.72-15.69c-1.28-0.75-1.73,0.35-2.37,0.77c-9.84,6.5-20.26,11.65-32.08,13.31
		c-6.46,0.9-8.97-0.76-11.19-6.83c-2.16-5.9-4.22-11.84-6.86-17.55c-3.68-7.96-3.04-16.04-0.52-24.46c0.66,2,1.56,3.67,3.65,3.61
		c2.23-0.07,3.08-1.67,3.41-3.75c0.29-1.8,0.99-0.04,1.51-0.07c0.17,0.16,0.42,0.5,0.49,0.46
		C419.61,172.33,419.38,172,419.21,171.69z M432.92,171.62c0.96,0.21,2.36-2.06,2.95,0.64c0.42,1.94,1.97,3.32,4.15,2.89
		c2.22-0.44,2.66-2.36,2.75-4.33c0.02-0.46-0.3-0.95,0.21-1.49c2.5,0.85,4.6,4.04,7.99,1.61c-3.47-0.53-5.66-3.22-8.63-4.5
		C437.5,164.36,434.09,166.18,432.92,171.62z M452.53,162.12c-0.16-0.75-0.15-0.98-0.25-1.12c-4.21-5.75-14.04-8.84-20.63-6.52
		c-1.18,0.41-1.72,1.16-1.75,2.4c-0.06,2.28,1.25,3.22,4.08,2.58c3.57-0.8,7.08-1.33,10.74-0.54
		C447.39,159.5,449.67,161.01,452.53,162.12z M475.6,184.96c0.25,0.18,0.47,0.44,0.71,0.48c2,0.29,3.71-0.15,4.86-1.98
		c1.44-2.28,1.76-4.72,0.1-6.9c-1.52-1.99-0.58-2.85,1.03-3.84c3.19-1.93,4.24,0.39,5.31,3.15c0.6-4.48-0.89-6.96-3.67-6.76
		c-2.96,0.21-7.02,4.4-7.23,7.35c-0.06,0.9,0.43,1.08,1.01,1.51c1.94,1.45,1.64,3.1,0.2,4.78
		C477.24,183.55,476.06,183.83,475.6,184.96z M416.89,199.89c1.06,1.28,2.32,1.61,3.54,1.8c6.49,0.99,12.7,0.36,18.3-3.43
		c0.72-0.49,1.47-0.93,2.25-1.32c0.49-0.25,0.93,1.01,1.41,0.23c0.39-0.65-0.12-1.31-0.55-1.86c-0.49-0.62-1.04-1.14-2.22-1.01
		c1.34,1.79-0.06,2.13-1.26,2.68c-5.59,2.58-11.48,3.09-17.53,2.67C419.62,199.56,418.35,199.09,416.89,199.89z M420.71,167.62
		c-0.13,6.51-1.76,11.9-5.21,16.7c-1.14,1.59-1.72,3.3-0.4,5.14c1.21,1.69,2.62,2.21,5.14,1.81c-3.74-3.7-3.74-3.7-1.33-8.23
		c1.2-2.26,2.09-4.65,2.56-7.15C421.95,173.32,422.14,170.71,420.71,167.62z M423.7,189.29c2.23,0.04,4.48,2.55,6.68,0.1
		C428.16,189.73,425.91,187.95,423.7,189.29z M424.83,205.53c-0.8,0.53-2.4-0.93-2.52,0.88c-0.08,1.13,1.21,1.04,2.06,0.98
		c1.19-0.08,3.18,0.53,3.3-0.86C427.8,205.03,425.79,206.07,424.83,205.53z"/>
	<path class="st5" d="M447.48,385.75c3.38,5.88,8.6,9.75,14.28,13.42c-4.45-0.79-8.93-1.46-13.35-2.4
		c-6.61-1.4-13.23-2.8-19.65-5.01c-1.59-0.55-1.76-1-0.8-2.37c4.84-6.91,6.81-14.71,6.7-23.05c-0.06-4.85-1.35-9.49-2.91-14.05
		c-0.38-1.1-0.8-2.18-1.34-3.66c7.67,2.3,14.93,4.47,22.2,6.64c0.82,0.24,1.11,0.92,1.59,1.55c5.82,7.49,12.59,13.97,20.77,18.88
		c0.83,0.5,1.8,0.76,2.71,1.13c0.32,0.44,0.74,0.62,1.28,0.47c0,0.41,0.22,0.58,0.61,0.56c0.02,0.07,0.02,0.16,0.06,0.22
		c0.02,0.04,0.1,0.04,0.15,0.05c-0.09-0.08-0.17-0.16-0.26-0.23c0-0.37-0.2-0.57-0.56-0.61c-0.3-0.3-0.6-0.61-0.89-0.91
		c-6.56-6.99-12.95-14.15-21.46-19.36c1.07-0.64,1.93-0.46,2.72-0.29c10.09,2.19,20.24,1.36,30.42,0.79
		c9.25-0.52,18.48-2.57,28.25-0.67c-1.98,2.95-4.41,5.19-6.69,7.51c-11.3,11.49-23.32,22.15-36.41,31.6
		c-1.28,0.92-2.3,1.11-3.96,0.7c-8.52-2.13-16.07-6.15-23.13-11.23c-0.14-0.12-0.37-0.37-0.41-0.34
		C447.02,385.34,447.26,385.55,447.48,385.75z"/>
	<path class="st5" d="M379.06,261.39c-6.94,17.59-8.18,35.91-6.52,55.13c-2.9-4.76-4.83-9.4-6.65-14.13
		c0.77,8.21,1.05,16.52,5.53,23.87c1.04,1.7,1.69,3.54,1.92,5.52c0.19,1.6-0.28,2.15-1.98,1.55c-2.65-0.95-5.26-2.11-8.61-2.16
		c1.88,1.68,3.45,3.06,4.99,4.47c0.41,0.38,0.99,0.81,0.65,1.48c-0.31,0.61-1.01,0.51-1.57,0.58c-1.09,0.12-1.84-0.59-2.59-1.22
		c-2.82-2.39-6.07-4.11-9.53-5.15c-2.45-0.74-2.73-2.65-3.38-4.39c-0.52-1.38,0.84-0.97,1.46-1.01c3.41-0.23,6.78,0.43,10.83,0.9
		c-3.48-3.48-7.28-4.13-11.18-4.38c-4.56-0.3-5.61-1.89-3.1-5.59c8.86-13.09,13.79-27.93,19.35-42.51
		c2.62-6.88,5.45-13.65,10.25-19.43c1.77-2.13,3.88-3.71,6.31-4.64c5.86-2.24,11.83-4.18,17.76-6.21c0.35-0.12,0.77-0.02,1.21-0.02
		c-1.52,1.59-2.82,3.28-4.43,4.58c-2.21,1.79-1.46,2.96,0.44,4.16c0.74,0.47,1.48,0.94,2.52,1.59c-2.9,1.56-5.81,2.54-8.72,3.48
		c-1.89,0.61-2.79,1.66-3.17,3.69c-2.79,15-1.84,29.88,1.05,44.75c1.88,9.66,4.88,18.99,7.85,28.34c0.24,0.75,0.5,1.49,0.67,2.26
		c0.43,1.9-0.14,2.65-2.15,1.9c-2.2-0.82-4.33-1.79-6.63-2.41c-3.01-0.81-5.94-1.22-8.99-0.52c-1.78,0.41-2.77,0.18-3.03-2.11
		c-1.56-13.84-4.16-27.59-3.85-41.58c0.22-9.62,0.86-19.23,3.61-28.55c0.19-0.64,0.28-1.32,0.41-1.98
		C379.56,261.54,379.31,261.46,379.06,261.39z M380.13,259.65c-0.06,0.15-0.14,0.29-0.17,0.44c-0.01,0.05,0.1,0.12,0.16,0.18
		c0.06-0.14,0.14-0.28,0.17-0.43C380.31,259.8,380.2,259.72,380.13,259.65z"/>
	<path class="st5" d="M481.69,220.06c2.74,2.24,2.7,5.25,4.48,6.79c6,5.21,6.5,11.71,5.28,18.9c-0.67,3.96-0.93,7.99-1.28,12
		c-0.12,1.4-0.57,1.99-2.09,2.19c-3.87,0.52-7.71,1.32-11.56,2.03c-0.47,0.09-0.92,0.3-1.34,0.44c2.58,2.69,5.01,5.45,7.69,7.94
		c1.8,1.66,1.92,2.91,0.41,4.87c-7.49,9.72-15.1,19.35-22.9,28.82c-10.05,12.2-20.24,24.32-27.47,38.51
		c-1.48,2.91-3.23,1.47-4.85,1.05c-2.2-0.57-0.54-2.24-0.3-3.11c6.36-23.13,15.54-45.02,28.07-65.55
		c7.1-11.64,15.14-22.71,21.31-34.91c2.27-4.49,5.07-8.74,5.66-14C483.01,224.12,482.96,222.46,481.69,220.06z"/>
	<path class="st5" d="M389.91,396.62c-2.8,4.44-3.98,9.32-5.87,13.93c-1.35,3.27-2.95,3.9-6.18,2.32c-0.53-0.26-1.07-0.5-1.58-0.8
		c-6.91-4.07-7.62-6.02-5.34-13.63c1.13-3.76,2.1-7.56,3.03-11.37c0.47-1.94,1.13-3.08,3.54-2.77c7.48,0.96,15.02,1.46,22.45,2.86
		c1.73,0.32,2.21,0.92,1.87,2.75c-2.17,11.47-5.17,22.75-7.79,34.11c-1.32,5.74-2.8,11.43-4.2,17.15c-0.48,1.98-3.94,4.38-5.74,3.74
		c-5.43-1.94-11.07-3.31-15.87-6.83c-5.47-4-6.5-6.6-4.64-13.04c1.31-4.52,2.56-9.06,3.76-13.61c0.48-1.83,1.13-2.02,2.51-0.69
		c2.04,1.97,4.12,3.9,6.8,5.08c5.44,2.41,8.69,1.07,10.23-4.58c1.13-4.16,1.96-8.39,2.89-12.6
		C389.92,397.98,389.87,397.29,389.91,396.62z"/>
	<path class="st6" d="M416.12,368.01c-5.48,1.94-11.1,4.43-16.82,1.85c-4.6-2.07-8.6-0.98-12.72,0.6c-3.2,1.22-6.29,2.76-9.38,4.25
		c-2.25,1.09-4.64,1.59-7.08,1.88c-1.64,0.19-3.36-0.06-3.81-1.94c-0.41-1.75,1.25-2.41,2.47-2.8c5.18-1.66,9.81-4.46,14.67-6.8
		c1.65-0.79,3.31-1.63,4.1-3.8c-5.21-0.09-10.08,1.02-15,1.58c-1.36,0.16-2.74,0.24-4.1,0.42c-2.08,0.27-2.35-1.34-2.84-2.69
		c-0.63-1.75,1-1.63,1.82-2c3.25-1.47,6.78-1.9,10.25-2.55c2.67-0.5,5.29-1.08,7.35-3.41c-3.89,0.46-7.8,0.86-11.68,1.41
		c-2.52,0.36-5.07,0.77-7.5,1.5c-2.9,0.87-2.89-1.47-3.69-2.95c-1.03-1.91,0.69-2.06,1.73-2.54c4-1.84,8.35-2.09,12.6-2.76
		c2.39-0.38,4.76-0.86,7.33-3.18c-6.11,0.61-11.41,1.16-16.71,1.67c-1.95,0.19-3.91,0.34-5.87,0.44c-0.77,0.04-1.48-0.03-2.05-0.83
		c-1.55-2.17-1.2-2.97,1.37-3.67c8.12-2.21,16.49-2.46,24.79-3.26c4.4-0.42,8.26,1.55,12.11,3.19c7.74,3.31,15,7.74,23.2,10.02
		c1.17,0.32,2.07,1.15,2.61,2.25c2.63,5.42,3.31,11.04,1.73,16.89c-0.51,1.87-1.33,2.92-3.47,1.59c-1.4-0.87-3-1.46-4.57-2.02
		c-1.23-0.44-0.83-1.03-0.38-1.73c0.15-0.21,0.48-0.51,0.42-0.63C416.77,367.45,416.43,367.87,416.12,368.01z"/>
	<path class="st5" d="M409.47,254.59c-2.58-1.57-4.83-2.93-7.42-4.5c8.12-6.63,16.03-13.09,23.94-19.55
		c-1.09,4.19-3.46,7.51-5.64,10.9c-8.58,13.37-13.42,28.04-15.81,43.67c-2.63,17.2-2.02,34.43-1.23,51.69
		c0.06,1.21,0.01,2.43-0.35,3.69c-1.73-3.84-2.4-7.94-3.25-11.97c-2.13-9.98-4.61-19.88-6.1-29.99
		c-1.71-11.62-2.35-23.23-0.04-34.86c0.36-1.81,1.18-2.78,2.96-3.53C400.74,258.39,405.4,257.63,409.47,254.59z"/>
	<path class="st6" d="M440.85,247.03c14.98-5.84,28.3-13.75,37.7-27.07c1.67,2.89,2.26,6.24,0.51,10.06
		c-4.32,9.4-9.79,18.13-15.32,26.83c-1.88,2.95-5.05,4.28-7.95,5.91c-1.6,0.9-1.79-0.56-2.21-1.44c-1.61-3.36-2.94-6.87-5.28-9.84
		C446.41,249.08,444.21,247.22,440.85,247.03z"/>
	<path class="st6" d="M448.62,257.42c1.24,2.56,2.42,4.72,3.33,6.98c0.87,2.15,1.95,3.02,4.1,1.5c0.4-0.29,0.86-0.84,2.06-0.34
		c-8,13.68-16.01,27.26-22.52,41.79c-1.6-1.19-0.4-2.17-0.34-3.1c0.63-10.4,3.18-20.61,3.24-31.06c0.02-3.7,0.55-6.66,3.8-9.05
		C444.62,262.43,446.33,259.91,448.62,257.42z"/>
	<path class="st5" d="M450.9,412.3c-6.64,3.91-13.26,7.87-19.93,11.72c-2.97,1.71-6.07,3.18-9.07,4.85
		c-1.47,0.82-2.34,0.8-2.35-1.16c-0.05-7.65-0.11-15.3-0.15-22.95c-0.01-2.14,1.2-1.18,2.12-0.78
		C430.85,408.02,440.68,410.16,450.9,412.3z"/>
	<path class="st6" d="M416.38,256.71c0,1.66-0.02,3.32,0.01,4.98c0.02,0.96-0.22,2.11,0.8,2.67c1.08,0.58,2.08-0.1,2.99-0.66
		c1.72-1.04,2.91-2.6,4.07-4.2c0.31-0.43,0.68-0.83,1.19-1.45c0.58,4.23,0.09,7.65-1.96,11.32c-7.65,13.67-12.48,28.5-16.49,43.59
		c-0.27,1-0.54,2-0.99,2.95C405.1,295.42,407.36,275.49,416.38,256.71z"/>
	<path class="st6" d="M432.75,228.79c-3.56,6.61-3.65,12.47,3.18,17.74c-7.23-0.56-9.5,4.29-12.2,8.72
		c-1.14,1.88-2.6,3.57-4.14,5.67C418.84,251.88,427.22,230.88,432.75,228.79z"/>
	<path class="st6" d="M291.33,372.07c-1.77,0-3.54,0.12-5.3-0.03c-1.78-0.15-3.12-1.05-3.69-2.89c-0.81-2.64-0.15-3.74,2.59-3.75
		c5.11-0.02,10.22,0.05,15.33,0.18c1.05,0.03,2.15,0.33,3.11,0.76c1.09,0.49,2.05,1.33,1.94,2.7c-0.13,1.5-1.39,1.76-2.57,1.96
		C298.97,371.65,295.17,372.08,291.33,372.07z"/>
	<path class="st6" d="M321.8,371.89c-6.68,3.57-12.78,6.36-19.45,7.61c-4.29,0.81-6.55-0.24-7.78-2.98
		c-0.53-1.19-0.72-2.03,1.01-2.16c5.1-0.38,10.06-1.32,14.97-2.85C313.95,370.46,317.52,371.53,321.8,371.89z"/>
	<path class="st6" d="M331.82,373.03c-8.11,8.68-23.95,13.45-28.26,8.68c6.76-1.78,13.39-3.83,19.18-7.51
		C325.78,372.26,328.41,372.56,331.82,373.03z"/>
	<path class="st6" d="M422.1,381.89c7.6-9.21,8.77-20.68,3.15-30.89c1.59-0.51,2.52-0.02,3.19,1.47c4.44,9.89,4.31,19.73-0.09,29.59
		c-0.55,1.25-1.21,1.61-2.46,1.13C424.73,382.75,423.38,382.81,422.1,381.89z"/>
	<path class="st5" d="M357.51,382.25c-7.03,2.93-13.42,5.83-20.5,7.07c3.67-2.02,6.31-4.97,8.31-8.54c0.29-0.52,0.62-0.93,1.39-0.76
		C350.1,380.76,353.5,381.43,357.51,382.25z"/>
	<path class="st6" d="M319.67,384.24c5.49-2.33,10.3-5.66,14.86-9.37c0.45-0.37,0.92-0.88,1.44-0.96c1-0.16,2.35-0.62,2.94,0.41
		c0.44,0.78-0.63,1.56-1.27,2.1C332.43,380.8,326.61,383.81,319.67,384.24z"/>
	<path class="st6" d="M329.99,385.32c4.6-2.55,8.73-4.58,11.82-8.51C342.31,381.55,337.12,385.3,329.99,385.32z"/>
	<path class="st5" d="M334.97,389.3c-5.31,2.35-8.96,1.75-13.79-2.22C326.29,386.66,330.22,390.82,334.97,389.3z"/>
	<path class="st5" d="M415.86,375.78c0.14-0.82-0.32-2.08,0.97-1.74c1.67,0.44,3.01,1.58,3.02,3.48c0,1.22-0.3,3.19-1.68,2.93
		C415.75,380,416.57,377.31,415.86,375.78z"/>
	<path class="st5" d="M354.68,333.89c2.27,1.45,4.51,2.72,6.48,4.56C356.57,339.99,355.76,339.42,354.68,333.89z"/>
	<path class="st8" d="M367.81,366.34c1.59,0,3.17,0,5.33,0c-2.13,0.97-3.74,1.15-5.4,0.84C367.77,366.9,367.79,366.62,367.81,366.34
		z"/>
	<path class="st6" d="M281.83,222.12c-0.77-0.13-0.99,0.45-1.26,0.97c-3.73,7.3-9.55,12.25-17.02,15.49
		c-1.22,0.53-2.68-0.67-3.75,0.91c-0.24,0.36-0.91-1.14-0.9-2.02c1.21-0.56,2.42-1.12,3.64-1.67c1.95-0.35,3.58-1.18,4.91-2.51
		c-0.13-0.24-0.25-0.48-0.38-0.72c-1.53,0.69-3.07,1.37-4.61,2.06c-12.73,3.83-25.34,4.05-36.91-3.17
		c-20.42-12.75-23.31-40.98-6.25-58.08c7.31-7.33,16.16-11.21,26.56-11.65c2.45-0.11,2.85,0.68,2.42,2.79
		c-0.26,1.31-0.66,2.66-0.31,4.13c2.8-0.45,5.22-1.73,7.67-2.96c1.39-0.7,2.62-1.1,4.37-0.33c12.61,5.54,21.75,14.15,25.49,27.78
		c0.38,3.42,0.84,6.82,1.78,10.14c-0.19,2.05-0.55,4.11-0.54,6.16c0.02,2.17-0.93,2.13-2.49,1.54c-1.35-0.51-2.76-0.89-4.33-1.39
		C280.17,213.97,282.3,217.86,281.83,222.12z M265.28,187.98c-1.1-2-2.7-3.36-4.54-4.51c-1.52-0.95-2.38,0.15-3.25,1.06
		c-5.63,5.87-11.29,11.72-16.83,17.67c-1.48,1.59-2.46,1.77-3.94,0.07c-1.6-1.84-3.45-3.47-5.22-5.17c-1.46-1.4-2.89-1.91-4.3,0.14
		c-0.43,0.63-1.04,1.18-1.66,1.65c-1.81,1.38-1.44,2.66-0.02,4.07c3.69,3.66,7.42,7.29,10.96,11.09c1.7,1.83,3.05,1.64,4.59,0.02
		c7.56-7.93,15.13-15.86,22.67-23.81C264.32,189.63,264.72,188.82,265.28,187.98z M269.38,231.81c-0.06-0.07-0.12-0.14-0.18-0.21
		c-0.07,0.06-0.13,0.12-0.2,0.18c0.1,0.06,0.2,0.12,0.29,0.19C269.33,231.91,269.36,231.85,269.38,231.81z M268.1,232.31
		c-0.11,0.06-0.23,0.12-0.35,0.19c0.06,0.06,0.13,0.17,0.18,0.16c0.13-0.03,0.24-0.11,0.36-0.16
		C268.23,232.44,268.17,232.38,268.1,232.31z"/>
	<path class="st8" d="M226.84,236.61c-6.29,0.86-12.43,0.59-18.57,0.68c-6.46,0.09-9.32-3.7-12.16-8.38
		c-10.02-16.51-11.47-33.81-4.47-51.66c3.81-9.73,10.65-17.38,19.04-23.53c10.14-7.44,21.34-12.03,34.16-11.78
		c2.35,0.05,4.73,0.18,7.02,0.66c1.72,0.36,2.44,0.08,2.92-1.67c0.41-1.52,0.27-3.99,1.79-4.27c1.51-0.28,2.41,2.02,3.5,3.23
		c3.68,4.08,7.23,8.29,10.87,12.41c0.9,1.02,1.52,1.67-0.25,2.53c-5.92,2.86-11.78,5.85-17.65,8.82c-1.94,0.99-3.02,0.83-2.53-1.69
		c0.34-1.76-0.57-2.14-2.1-2.32c-19.84-2.32-36.33,12.13-41.17,28.02c-3.73,12.25-2.26,23.74,4.28,34.64
		c3.47,5.79,8.61,9.87,14.13,13.54C226.04,236.1,226.44,236.35,226.84,236.61z"/>
	<path class="st8" d="M287.28,203.29c-0.94-3.32-1.4-6.73-1.78-10.14c0.26-5.75-2.32-10.5-5.23-15.18
		c-4.03-6.48-9.74-10.95-16.57-14.08c-2.34-1.07-0.68-1.87,0.11-2.34c3.04-1.8,6.15-3.49,9.29-5.1c2.98-1.53,3.01-1.47,1.3-4.65
		c4.53,1.45,8.06,4.01,11.21,7.02c12.25,11.68,18.93,25.91,18.61,42.98c-0.07,3.64-0.17,7.41-1.11,11.03c-0.37,1.43-0.86,2.4-2.56,2
		c-0.7-0.16-1.43-0.27-1.65,0.67c-0.24,1.05,0.53,1.4,1.32,1.59c2.28,0.54,4.57,1.02,6.99,1.55c-0.7,2.15-2.41,3.28-3.77,4.59
		c-3.95,3.82-8.1,7.43-12.13,11.18c-1.39,1.3-2.25,1.68-2.87-0.66c-1.66-6.26-3.44-12.49-5.22-18.72c-0.59-2.05-0.04-2.81,2.08-2.21
		c0.57,0.16,1.18,0.19,1.71,0.43c3,1.33,3.79-0.54,4.22-2.89C291.82,207.16,289.97,203.86,287.28,203.29z"/>
	<path class="st8" d="M262.46,234.64c1.54-0.69,3.07-1.37,4.61-2.06c0.13,0.24,0.25,0.48,0.38,0.72c-1.33,1.33-2.97,2.17-4.91,2.51
		C262.51,235.42,262.48,235.03,262.46,234.64z"/>
	<path class="st6" d="M41.29,199.07c-1.72-0.08-3.33-0.78-3.55-3.09c-0.17-1.85,1.77-3.83,3.71-3.75c2.11,0.09,3.49,1.25,3.72,3.4
		C45.38,197.48,43.71,199,41.29,199.07z"/>
	<path class="st6" d="M30.41,197.34c1.93,0.23,3.52,1.09,3.5,3.2c-0.02,2.14-1.54,3.51-3.61,3.49c-1.94-0.01-3.32-1.28-3.31-3.39
		C27,198.51,28.4,197.58,30.41,197.34z"/>
	<path class="st6" d="M57.97,186.76c-1.1,1.29-2.49,2.09-4.23,2.19c-0.67,0.04-1.3-0.35-0.96-1.03c0.78-1.57,2.43-1.78,3.94-2.07
		C57.21,185.75,57.92,185.87,57.97,186.76z"/>
	<path class="st8" d="M224.98,35.36c-0.21,15.55-3.62,30.55-13.11,43.75c-5.67,7.89-12.88,13.94-21.64,18.19
		c-2.44,1.18-4.56,1.04-6.97-0.12c-15.15-7.31-25.13-19.08-30.57-34.89c-4.06-11.78-5.08-23.93-4.79-36.28
		c0.04-1.64,0.78-2.19,2.15-2.59c5.54-1.63,11.28-2.81,16.53-5.13c5.61-2.48,11.41-4.75,16.55-8.19c2.33-1.55,4.13-1.47,6.61-0.1
		c10.34,5.72,21.12,10.42,32.63,13.3c1.72,0.43,2.48,1.16,2.66,3.13C225.3,29.3,224.88,32.12,224.98,35.36z M186.44,39.71
		c0,0.01,0,0.03,0,0.04c-5.41,0-10.82-0.04-16.22,0.01c-3.75,0.03-4.78,1.07-4.85,4.67c-0.15,7.57-0.33,15.13-0.41,22.7
		c-0.06,5.12,1.03,6.23,6.2,6.25c10.42,0.04,20.85,0.02,31.27-0.03c4.35-0.02,5.7-1.37,5.65-5.65c-0.09-7.67-0.28-15.33-0.41-22.99
		c-0.06-3.63-1.33-4.96-4.99-4.98C197.25,39.68,191.84,39.71,186.44,39.71z M186.96,19.61c-6.54-0.22-15.61,4.56-15.86,14.34
		c-0.03,1.27-1.25,3.31,1.56,3.54c3.87,0.32,4.64-0.06,4.99-2.84c0.67-5.41,3.87-8.56,8.7-8.56c5.15,0,8.82,3.54,8.83,8.91
		c0,1.99,0.55,2.66,2.44,2.48c0.87-0.08,1.77-0.03,2.65,0.01c1.4,0.06,1.84-0.67,1.91-1.98C202.59,27.38,195.2,19.64,186.96,19.61z"
		/>
	<path class="st6" d="M122.55,66.03c-0.04,6.47-4.95,11.3-11.29,11.5c-5.45,0.18-11.96-5.29-11.66-11.43
		c0.3-6.13,5.4-11.35,11.59-11.37C117.63,54.71,122.59,59.64,122.55,66.03z"/>
	<path class="st6" d="M73.51,130.79c0.53,1.42,0.56,2.83-1.2,3.18c-1.85,0.37-2.46-1.04-2.71-2.6C70.72,130,72,129.64,73.51,130.79z
		"/>
	<path class="st6" d="M66.33,132.08c-1.61,2.64-2.33,2.69-4.57,0.33c0.04-1.47,1.03-1.99,2.28-2.12
		C65.33,130.14,65.92,131.03,66.33,132.08z"/>
	<path class="st6" d="M58.23,133.06c-0.88,0.61-1.79,1.11-2.89,1.14c-1.02-0.6-1.7-1.43-1.12-2.61c0.45-0.92,1.34-1.45,2.42-1.1
		C57.84,130.87,58.71,131.57,58.23,133.06z"/>
	<path class="st8" d="M60.43,246.09c-0.07-6.93-0.09-7,6.42-8.96c7.06-2.13,14.01-4.52,20.57-7.92c1.23-0.64,2.13-0.48,3.27,0.1
		c7.37,3.81,15.11,6.62,23.21,8.4c2.54,0.56,3.42,1.73,3.45,4.41c0.15,13.1-1.59,25.68-8.88,36.96c-4.42,6.84-10.2,12.09-17.76,15.3
		c-1.29,0.55-2.37,0.48-3.64-0.08c-13.05-5.79-20.21-16.38-24.12-29.58C61.15,258.65,60.38,252.41,60.43,246.09z M104.66,252
		c-1.12-1.9-2.69-3.42-4.48-4.5c-1.34-0.81-1.96,0.92-2.65,1.73c-3.2,3.7-6.35,7.46-9.46,11.25c-1.13,1.37-2.07,1.49-3.33,0.17
		c-1.29-1.34-2.69-2.57-4.12-3.77c-2.62-2.19-3.52,0.74-4.97,1.8c-1.49,1.09-1.36,2.27-0.16,3.72c2.84,3.42,6.37,6.09,9.48,9.21
		c1.35,1.36,2.7,1.22,3.99-0.34c4.75-5.74,9.56-11.42,14.33-17.14C103.78,253.55,104.13,252.84,104.66,252z"/>
	<path class="st6" d="M72.69,80.46c5.05,0.05,9.36,4.45,9.29,9.49c-0.06,4.85-4.86,9.48-9.82,9.49c-5.31,0.01-9.25-3.95-9.24-9.3
		C62.94,84.88,67.46,80.4,72.69,80.46z"/>
	<path class="st6" d="M248.98,79.52c1.04-2.6,2-4.93,2.52-7.4c0.5-2.35,0.2-4.21-1.65-6.12c-8.1-8.35-7.77-20.46,0.58-28.68
		c12.95-12.75,36.41-11.76,47.8,2.02c7.51,9.08,6.17,22.03-3.1,29.33c-9.77,7.69-20.71,9.39-32.49,5.91
		c-1.85-0.55-3.07-0.29-4.48,0.84C255.54,77.5,252.7,79.14,248.98,79.52z M273.54,37.47c-4.98,0.2-5.01-1.15-4.61,4.91
		c0.27,4.11,0.82,8.19,1.19,12.29c0.15,1.67,0.84,2.53,2.62,2.21c1.53-0.28,3.68,0.91,3.96-2.05c0.4-4.09,1.12-8.16,1.54-12.25
		C278.77,37.44,278.69,37.43,273.54,37.47z M273.62,59.64c-2.37,0.04-3.99,1.65-3.9,3.87c0.12,2.74,1.76,4.45,4.17,4.34
		c2.24-0.1,3.84-1.8,3.81-4.05C277.67,61.47,275.83,59.6,273.62,59.64z"/>
	<path class="st7" d="M308.55,332.55c0.05,3.18-1.71,5.43-4.78,6.15c-5.17,1.21-11.59-2.92-12.59-8.09
		c-0.66-3.42,0.81-5.9,4.01-6.78C300.98,322.23,308.47,327.12,308.55,332.55z"/>
	<path class="st7" d="M432.92,171.62c1.16-5.44,4.58-7.26,9.43-5.18c2.97,1.27,5.16,3.96,8.63,4.5c-3.39,2.43-5.49-0.76-7.99-1.61
		c-0.52,0.54-0.19,1.03-0.21,1.49c-0.1,1.97-0.53,3.88-2.75,4.33c-2.18,0.44-3.73-0.94-4.15-2.89
		C435.29,169.56,433.88,171.83,432.92,171.62z"/>
	<path class="st7" d="M452.53,162.12c-2.86-1.11-5.13-2.62-7.81-3.2c-3.66-0.79-7.18-0.26-10.74,0.54
		c-2.83,0.64-4.14-0.31-4.08-2.58c0.03-1.23,0.57-1.98,1.75-2.4c6.59-2.32,16.42,0.76,20.63,6.52
		C452.38,161.14,452.36,161.37,452.53,162.12z"/>
	<path class="st7" d="M475.6,184.96c0.46-1.13,1.63-1.41,2.32-2.2c1.44-1.68,1.75-3.33-0.2-4.78c-0.58-0.43-1.07-0.61-1.01-1.51
		c0.21-2.95,4.27-7.15,7.23-7.35c2.78-0.19,4.27,2.28,3.67,6.76c-1.07-2.76-2.13-5.08-5.31-3.15c-1.62,0.98-2.56,1.84-1.03,3.84
		c1.66,2.17,1.34,4.61-0.1,6.9c-1.15,1.82-2.86,2.27-4.86,1.98C476.07,185.4,475.86,185.14,475.6,184.96z"/>
	<path class="st7" d="M416.89,199.89c1.46-0.81,2.73-0.33,3.94-0.25c6.05,0.42,11.94-0.09,17.53-2.67c1.2-0.55,2.6-0.89,1.26-2.68
		c1.18-0.14,1.73,0.39,2.22,1.01c0.43,0.55,0.95,1.21,0.55,1.86c-0.48,0.79-0.92-0.47-1.41-0.23c-0.78,0.39-1.53,0.84-2.25,1.32
		c-5.61,3.79-11.81,4.42-18.3,3.43C419.21,201.5,417.95,201.17,416.89,199.89z"/>
	<path class="st7" d="M420.71,167.62c1.44,3.09,1.24,5.7,0.76,8.26c-0.47,2.5-1.36,4.89-2.56,7.15c-2.41,4.53-2.41,4.53,1.33,8.23
		c-2.52,0.4-3.93-0.12-5.14-1.81c-1.32-1.84-0.74-3.55,0.4-5.14C418.95,179.52,420.57,174.14,420.71,167.62z"/>
	<path class="st7" d="M423.7,189.29c2.21-1.34,4.46,0.45,6.68,0.1C428.18,191.84,425.92,189.32,423.7,189.29z"/>
	<path class="st7" d="M424.83,205.53c0.96,0.54,2.96-0.51,2.83,1.01c-0.12,1.39-2.11,0.77-3.3,0.86c-0.85,0.06-2.13,0.15-2.06-0.98
		C422.43,204.61,424.03,206.07,424.83,205.53z"/>
	<path class="st7" d="M419.21,171.69c0.18,0.31,0.4,0.64-0.05,0.86c-0.07,0.04-0.33-0.3-0.49-0.46
		C418.84,171.96,419.02,171.82,419.21,171.69z"/>
	<path class="st7" d="M478.96,377.3c-0.54,0.15-0.96-0.03-1.28-0.47c0.12-0.15,0.25-0.3,0.39-0.44
		C478.36,376.69,478.66,376.99,478.96,377.3L478.96,377.3z"/>
	<path class="st7" d="M478.96,377.29c0.36,0.04,0.56,0.23,0.56,0.61l0.04-0.04C479.17,377.88,478.96,377.7,478.96,377.29
		C478.96,377.3,478.96,377.29,478.96,377.29z"/>
	<path class="st7" d="M479.52,377.9c0.09,0.08,0.17,0.16,0.26,0.23c-0.05-0.02-0.13-0.02-0.15-0.05c-0.04-0.06-0.04-0.15-0.06-0.22
		C479.57,377.86,479.52,377.9,479.52,377.9z"/>
	<path class="st7" d="M447.48,385.75c-0.22-0.2-0.46-0.42-0.08-0.67c0.04-0.03,0.27,0.22,0.41,0.34
		C447.7,385.54,447.59,385.65,447.48,385.75z"/>
	<path class="st7" d="M380.13,259.65c0.06,0.07,0.17,0.15,0.16,0.19c-0.03,0.15-0.11,0.29-0.17,0.43c-0.06-0.06-0.17-0.14-0.16-0.18
		C379.99,259.94,380.07,259.8,380.13,259.65z"/>
	<path class="st7" d="M416.12,368.01c0.31-0.14,0.65-0.57,0.9-0.01c0.05,0.12-0.27,0.42-0.42,0.63
		C416.44,368.42,416.28,368.22,416.12,368.01z"/>
	<path class="st8" d="M265.28,187.98c-0.57,0.84-0.96,1.65-1.55,2.28c-7.54,7.95-15.11,15.88-22.67,23.81
		c-1.54,1.61-2.89,1.8-4.59-0.02c-3.54-3.8-7.27-7.43-10.96-11.09c-1.42-1.41-1.79-2.7,0.02-4.07c0.62-0.47,1.22-1.02,1.66-1.65
		c1.41-2.05,2.84-1.53,4.3-0.14c1.77,1.7,3.62,3.33,5.22,5.17c1.48,1.7,2.46,1.52,3.94-0.07c5.54-5.96,11.2-11.81,16.83-17.67
		c0.87-0.91,1.73-2.01,3.25-1.06C262.58,184.61,264.19,185.98,265.28,187.98z"/>
	<path class="st8" d="M269.38,231.81c-0.02,0.04-0.06,0.1-0.09,0.16c-0.1-0.06-0.2-0.12-0.29-0.19c0.07-0.06,0.13-0.12,0.2-0.18
		C269.26,231.67,269.32,231.74,269.38,231.81z"/>
	<path class="st8" d="M268.1,232.31c0.07,0.07,0.13,0.12,0.19,0.18c-0.12,0.06-0.23,0.14-0.36,0.16c-0.05,0.01-0.12-0.1-0.18-0.16
		C267.87,232.43,267.99,232.37,268.1,232.31z"/>
	<path class="st6" d="M186.44,39.71c5.41,0,10.82-0.03,16.22,0.01c3.66,0.03,4.92,1.35,4.99,4.98c0.14,7.66,0.32,15.33,0.41,22.99
		c0.05,4.28-1.3,5.63-5.65,5.65c-10.42,0.05-20.85,0.07-31.27,0.03c-5.17-0.02-6.26-1.13-6.2-6.25c0.08-7.57,0.26-15.13,0.41-22.7
		c0.07-3.6,1.1-4.64,4.85-4.67c5.41-0.05,10.82-0.01,16.22-0.01C186.44,39.74,186.44,39.72,186.44,39.71z M186.16,64.44
		c4.22,0.02,4.21,0.02,3.25-4.3c-0.45-2-0.91-3.87,0.53-5.86c1.13-1.56,0.26-3.24-1.16-4.39c-1.45-1.17-3.13-1.24-4.65-0.21
		c-1.62,1.09-2.59,3.03-1.53,4.57c1.57,2.29,1.02,4.38,0.59,6.65C182.52,64.42,182.53,64.42,186.16,64.44z"/>
	<path class="st6" d="M186.96,19.61c8.24,0.03,15.63,7.77,15.21,15.91c-0.07,1.31-0.51,2.04-1.91,1.98
		c-0.88-0.04-1.77-0.09-2.65-0.01c-1.89,0.18-2.43-0.5-2.44-2.48c-0.01-5.37-3.68-8.91-8.83-8.91c-4.83,0-8.04,3.15-8.7,8.56
		c-0.34,2.78-1.11,3.16-4.99,2.84c-2.81-0.23-1.59-2.28-1.56-3.54C171.35,24.17,180.42,19.39,186.96,19.61z"/>
	<path class="st6" d="M104.66,252c-0.53,0.83-0.88,1.54-1.37,2.13c-4.77,5.72-9.58,11.4-14.33,17.14c-1.29,1.56-2.63,1.7-3.99,0.34
		c-3.11-3.12-6.64-5.8-9.48-9.21c-1.2-1.45-1.33-2.63,0.16-3.72c1.46-1.06,2.36-3.99,4.97-1.8c1.43,1.19,2.83,2.43,4.12,3.77
		c1.26,1.31,2.21,1.2,3.33-0.17c3.1-3.79,6.25-7.54,9.46-11.25c0.7-0.81,1.31-2.54,2.65-1.73
		C101.97,248.58,103.54,250.11,104.66,252z"/>
	<path class="st7" d="M273.54,37.47c5.15-0.04,5.23-0.03,4.71,5.11c-0.41,4.09-1.14,8.16-1.54,12.25c-0.29,2.96-2.44,1.77-3.96,2.05
		c-1.78,0.32-2.47-0.54-2.62-2.21c-0.37-4.1-0.92-8.19-1.19-12.29C268.53,36.32,268.56,37.67,273.54,37.47z"/>
	<path class="st7" d="M273.62,59.64c2.21-0.04,4.06,1.83,4.08,4.15c0.03,2.25-1.57,3.95-3.81,4.05c-2.42,0.11-4.06-1.6-4.17-4.34
		C269.62,61.29,271.25,59.68,273.62,59.64z"/>
	<path class="st8" d="M186.16,64.44c-3.63-0.01-3.64-0.02-2.97-3.53c0.43-2.27,0.99-4.36-0.59-6.65c-1.06-1.55-0.08-3.48,1.53-4.57
		c1.52-1.03,3.2-0.96,4.65,0.21c1.42,1.15,2.28,2.83,1.16,4.39c-1.44,1.98-0.98,3.86-0.53,5.86
		C190.37,64.45,190.38,64.45,186.16,64.44z"/>
</g>
</svg>
