<?xml version="1.0" encoding="utf-8"?>
<!-- Generator: Adobe Illustrator 25.0.0, SVG Export Plug-In . SVG Version: 6.00 Build 0)  -->
<svg version="1.1" id="Layer_1" xmlns="http://www.w3.org/2000/svg" xmlns:xlink="http://www.w3.org/1999/xlink" x="0px" y="0px"
	 viewBox="0 0 114.02 120.54" style="enable-background:new 0 0 114.02 120.54;" xml:space="preserve">
<style type="text/css">
	.st0{fill:#001135;}
	.st1{fill:#FFFFFF;}
	.st2{fill:#3C7CFF;}
	.st3{fill:#185AE9;}
	.st4{fill:#00B0FB;}
	.st5{fill-rule:evenodd;clip-rule:evenodd;fill:#00B0FB;}
	.st6{fill:#061639;}
	.st7{fill:#1429FF;}
	.st8{fill:#663398;}
	.st9{fill:#FEFEFE;}
	.st10{fill:#8DB849;}
	.st11{fill:#5A863E;}
	.st12{fill:#FFFFFE;}
	.st13{fill-rule:evenodd;clip-rule:evenodd;fill:#7FC728;}
	.st14{fill:#B3B3B3;}
	.st15{fill:#A6120D;}
	.st16{fill:#DD1B16;}
	.st17{fill:#F2F2F2;}
	.st18{fill:#8F9ED1;}
	.st19{fill:#030303;}
	.st20{fill:#0E0E0D;}
	.st21{fill:#8F8F90;}
	.st22{fill:#DBDBDB;}
	.st23{fill:#FDFDFD;}
	.st24{fill:#FDFCFD;}
	.st25{fill:#010101;}
	.st26{fill:#FCB415;}
	.st27{opacity:0.2;fill:#FFFFFF;enable-background:new    ;}
	.st28{fill:#68B345;}
	.st29{fill:#0A99D6;}
	.st30{opacity:0.1;fill:#010101;enable-background:new    ;}
	.st31{fill:#EE3325;}
	.st32{fill:url(#SVGID_1_);}
	.st33{fill:#FF2D20;}
	.st34{clip-path:url(#SVGID_2_);fill:#F9C638;}
	.st35{fill:#2A2D2C;}
	.st36{fill:#F9C638;}
	.st37{fill:#833CF7;}
	.st38{fill:none;}
	.st39{fill:#0A0A0A;}
	.st40{fill:#050505;}
	.st41{fill:#2A2A2A;}
	.st42{fill:#000100;}
	.st43{fill:#FBFBFB;}
	.st44{fill:#070707;}
	.st45{fill:#080808;}
	.st46{fill:#F7F7F7;}
	.st47{fill:#0B0B0B;}
	.st48{fill:#F1F0F1;}
	.st49{fill:#F4F4F4;}
	.st50{fill:#0C0C0C;}
	.st51{fill:#ECECEC;}
	.st52{fill:#252525;}
	.st53{fill:#D5D5D5;}
	.st54{fill:#3F3F3F;}
	.st55{fill:#818181;}
	.st56{fill:#A2A2A2;}
	.st57{fill:#040404;}
	.st58{fill:#151515;}
	.st59{fill:#343434;}
	.st60{fill:#4B4B4B;}
	.st61{fill:#0D0D0D;}
</style>
<g>
	<path class="st1" d="M60.78,63.24c-1.3,1.4-2.78,2.65-4.02,4.1c-1.26,1.46-2.32,1.6-3.52,0.02c-0.75-0.99-1.49-0.85-2.4-0.04
		c-1.27,1.14-1.48,2.09-0.06,3.25c0.88,0.72,1.61,1.64,2.47,2.4c0.46,0.4,1.04,0.68,1.68,1.09c0.64-0.38,1.31-0.64,1.78-1.1
		c2.33-2.27,4.58-4.63,6.93-6.88c1.18-1.13,0.5-1.84-0.32-2.69C62.48,62.51,61.76,62.18,60.78,63.24z"/>
	<path class="st1" d="M70.78,57.16c-9.2,0.05-18.41,0.05-27.61,0c-1.56-0.01-1.96,0.57-1.94,2.03c0.06,6.39,0.07,12.78,0,19.17
		c-0.02,1.56,0.57,1.96,2.03,1.94c4.53-0.08,9.07-0.04,13.61-0.04c4.6,0,9.2-0.05,13.8,0.03c1.52,0.02,2.17-0.36,2.14-2.02
		c-0.08-6.39-0.07-12.78,0-19.17C72.83,57.54,72.24,57.15,70.78,57.16z M65.25,67.44c-2.32,2.38-4.67,4.73-7.04,7.05
		c-2.13,2.07-4.27,2.06-6.4,0.03c-1.01-0.97-2.01-1.96-2.99-2.98c-1.74-1.81-1.77-3.23-0.14-5c2.23-2.41,3.58-2.65,5.71-1.01
		c0.16,0.11,0.32,0.22,0.86,0.62c1.44-1.55,2.77-3.1,4.23-4.52c1.86-1.83,3.43-1.64,5.57,0.53C66.97,64.11,67.06,65.6,65.25,67.44z"
		/>
	<path class="st2" d="M56.94,27.64C38.78,27.66,24.32,42.25,24.38,60.5c0.06,18.03,14.66,32.46,32.81,32.42
		c18.05-0.05,32.5-14.63,32.47-32.77C89.63,42.08,75.08,27.62,56.94,27.64z M75.01,78.29c-0.01,2.97-1.22,4.18-4.19,4.2
		c-4.6,0.01-9.2,0-13.8,0s-9.2,0.01-13.79,0c-2.97-0.01-4.19-1.23-4.2-4.19c-0.02-6.39-0.02-12.77,0-19.16
		c0.01-2.98,1.21-4.19,4.19-4.19c0.39,0,0.78,0,1.17,0c-0.07-4.53-0.36-11.99,1.76-15.62c2.86-4.89,8.51-7.5,13.67-6.2
		c5.68,1.43,9.61,6.22,9.83,11.99c0.01,0.38,0.01,0.77,0.01,1.15c0.01,3.97-3.05,5.99-6.56,4.1c-0.91-0.49-1.4-1.94-1.83-3.06
		c-0.3-0.8-0.05-1.79-0.25-2.64c-0.54-2.27-2.32-3.55-4.46-3.34c-2.09,0.2-3.67,1.88-3.75,4.15c-0.07,1.75-0.03,6.75-0.02,9.47
		c6.01,0,12.01-0.01,18.02,0c2.97,0,4.19,1.22,4.2,4.18C75.03,65.52,75.02,71.9,75.01,78.29z"/>
	<path class="st1" d="M57.02,21.19C35.61,21.2,17.93,38.87,17.93,60.27c0.01,21.4,17.7,39.1,39.09,39.09
		c21.4,0,39.09-17.69,39.09-39.09C96.11,38.86,78.42,21.18,57.02,21.19z M56.86,95.14c-19.04-0.09-34.74-15.88-34.71-34.92
		c0.03-19.12,15.91-34.9,35.01-34.81c19.06,0.1,34.76,15.88,34.72,34.92C91.84,79.44,75.96,95.24,56.86,95.14z"/>
	<path class="st1" d="M50.86,44.26c0.32-2.94,3.3-5.16,6.29-5.08c2.98,0.09,5.6,2.43,6.05,5.43c0.09,0.57,0.1,1.14,0.12,1.72
		c0.07,2.23,0.6,2.76,2.77,2.35c0.55-0.1,1.31-0.84,1.39-1.38c0.92-6.14-3.42-11.66-9.54-12.3c-5.66-0.59-10.97,4-11.39,9.98
		c-0.13,1.94-0.05,7.16-0.03,9.97c1.43,0,2.85,0,4.28,0C50.76,51.94,50.63,46.41,50.86,44.26z"/>
	<path class="st0" d="M111.42,38.58c-2.75-4.9-5.56-9.76-8.43-14.59c-0.95-1.61-2.47-1.98-4.15-1.2c-1.15,0.54-2.26,1.19-3.34,1.88
		c-1.66,1.06-3.13,0.85-4.52-0.46c-5.72-5.4-12.38-9.19-19.89-11.48c-1.7-0.52-2.48-1.71-2.53-3.42c-0.04-1.28,0.03-2.56-0.02-3.83
		c-0.08-2.01-1.11-3.1-3.11-3.12c-5.62-0.04-11.25-0.05-16.87,0c-1.99,0.02-3,1.12-3.07,3.16c-0.05,1.28,0.02,2.56-0.02,3.83
		c-0.05,1.63-0.78,2.84-2.39,3.33c-7.65,2.32-14.39,6.2-20.21,11.68c-1.28,1.21-2.7,1.31-4.21,0.39c-1.09-0.66-2.18-1.33-3.33-1.89
		c-1.78-0.87-3.3-0.52-4.31,1.18c-2.87,4.83-5.68,9.7-8.42,14.6c-0.95,1.7-0.46,3.22,1.19,4.3c1.01,0.66,2.09,1.23,3.14,1.83
		c1.63,0.94,2.25,2.22,1.82,4.15c-1.52,6.81-1.8,13.67-0.41,20.53c1.1,5.41,0.68,5.17-3.77,7.74c-2.7,1.56-3.06,2.97-1.52,5.66
		c2.35,4.1,4.73,8.18,7.09,12.27c2.07,3.59,3.1,3.85,6.73,1.77c1.15-0.68,2.33-1.27,3.59-1.95c0.91,0.48,1.81,0.74,2.42,1.31
		c5.79,5.42,12.48,9.27,20.05,11.59c1.7,0.52,2.48,1.7,2.53,3.42c0.04,1.28-0.03,2.56,0.02,3.83c0.08,2.01,1.11,3.11,3.11,3.12
		c5.62,0.05,11.25,0.05,16.87,0c1.97-0.02,3-1.14,3.07-3.16c0.05-1.28-0.01-2.56,0.03-3.83c0.05-1.63,0.77-2.84,2.39-3.32
		c7.65-2.32,14.39-6.2,20.21-11.68c1.28-1.21,2.7-1.29,4.21-0.38c1.09,0.66,2.18,1.34,3.33,1.9c1.77,0.87,3.32,0.5,4.31-1.18
		c2.86-4.83,5.68-9.7,8.42-14.6c0.94-1.69,0.43-3.24-1.2-4.3c-1.07-0.7-2.21-1.28-3.3-1.94c-1.47-0.88-2.08-2.09-1.68-3.86
		c1.76-7.72,1.75-15.46-0.01-23.18c-0.38-1.68,0.19-2.87,1.57-3.74c1.08-0.68,2.23-1.25,3.31-1.93
		C111.86,41.91,112.4,40.34,111.42,38.58z M57.1,101.36c-22.84,0.03-41.18-18.31-41.15-41.15c0.03-22.74,18.34-41.01,41.1-41.01
		c22.74,0.01,41.03,18.3,41.05,41.05C98.11,83.01,79.83,101.33,57.1,101.36z"/>
	<path class="st0" d="M110.65,45.16c3.54-2.09,4.29-4.82,2.26-8.37c-2.15-3.76-4.48-7.44-6.48-11.29c-2.95-5.66-5.81-6.8-11.24-3.07
		c-1.24,0.85-2.16,0.79-3.34-0.3c-4.97-4.62-10.67-8.1-17.06-10.39c-3.93-1.41-3.94-1.38-3.99-5.61c-0.05-3.87-2.21-6.03-6.11-6.05
		c-4.35-0.03-8.7,0.16-13.04-0.05c-6.45-0.31-8.9,1.95-8.38,8.41c0.11,1.44-0.38,2.13-1.84,2.57c-6.23,1.9-12.06,4.77-16.85,9.18
		c-2.84,2.62-5,3.28-8.27,0.86c-2.44-1.81-5.5-0.81-7.08,1.84c-2.91,4.89-5.75,9.81-8.52,14.77c-1.44,2.57-0.61,5.38,1.9,6.99
		c0.91,0.59,1.83,1.19,2.81,1.64c1.29,0.6,1.54,1.45,1.21,2.79C4.99,55.76,4.96,62.5,6.09,69.25c0.68,4.1,0.7,4.09-2.84,6.25
		c-3.43,2.09-4.12,4.73-2.11,8.25c2.18,3.82,4.54,7.55,6.57,11.46c2.72,5.24,5.57,6.75,11.14,2.91c1.37-0.95,2.29-0.68,3.48,0.42
		c4.84,4.46,10.38,7.85,16.56,10.13c4.25,1.57,4.26,1.52,4.36,5.92c0.08,3.64,2.26,5.83,5.91,5.87c2.62,0.04,5.24,0.01,7.86,0.01
		c1.66,0,3.33-0.09,5,0.02c7.02,0.46,9.31-1.94,8.78-8.57c-0.1-1.28,0.34-1.9,1.65-2.31c6.66-2.06,12.66-5.38,17.99-9.9
		c3.01-2.56,3.02-2.54,6.41-0.62c3.75,2.14,6.4,1.4,8.59-2.39c2.1-3.65,4.06-7.4,6.35-10.93c3.82-5.9,2.56-8.78-2.98-11.41
		c-1.42-0.68-1.69-1.56-1.33-3.07c1.59-6.68,1.63-13.42,0.45-20.17C107.25,47.2,107.19,47.21,110.65,45.16z M106.81,44.94
		c-1.38,0.87-1.95,2.06-1.57,3.74c1.76,7.72,1.77,15.46,0.01,23.18c-0.4,1.77,0.21,2.98,1.68,3.86c1.09,0.66,2.23,1.24,3.3,1.94
		c1.63,1.06,2.14,2.61,1.2,4.3c-2.74,4.9-5.56,9.77-8.42,14.6c-0.99,1.68-2.54,2.05-4.31,1.18c-1.15-0.56-2.24-1.24-3.33-1.9
		c-1.51-0.91-2.93-0.83-4.21,0.38c-5.82,5.48-12.56,9.36-20.21,11.68c-1.62,0.48-2.34,1.69-2.39,3.32
		c-0.04,1.27,0.02,2.55-0.03,3.83c-0.07,2.02-1.1,3.14-3.07,3.16c-5.62,0.05-11.25,0.05-16.87,0c-2-0.01-3.03-1.11-3.11-3.12
		c-0.05-1.27,0.02-2.55-0.02-3.83c-0.05-1.72-0.83-2.9-2.53-3.42c-7.57-2.32-14.26-6.17-20.05-11.59c-0.61-0.57-1.51-0.83-2.42-1.31
		c-1.26,0.68-2.44,1.27-3.59,1.95c-3.63,2.08-4.66,1.82-6.73-1.77c-2.36-4.09-4.74-8.17-7.09-12.27c-1.54-2.69-1.18-4.1,1.52-5.66
		c4.45-2.57,4.87-2.33,3.77-7.74c-1.39-6.86-1.11-13.72,0.41-20.53c0.43-1.93-0.19-3.21-1.82-4.15c-1.05-0.6-2.13-1.17-3.14-1.83
		c-1.65-1.08-2.14-2.6-1.19-4.3c2.74-4.9,5.55-9.77,8.42-14.6c1.01-1.7,2.53-2.05,4.31-1.18c1.15,0.56,2.24,1.23,3.33,1.89
		c1.51,0.92,2.93,0.82,4.21-0.39c5.82-5.48,12.56-9.36,20.21-11.68c1.61-0.49,2.34-1.7,2.39-3.33c0.04-1.27-0.03-2.55,0.02-3.83
		c0.07-2.04,1.08-3.14,3.07-3.16c5.62-0.05,11.25-0.04,16.87,0c2,0.02,3.03,1.11,3.11,3.12c0.05,1.27-0.02,2.55,0.02,3.83
		c0.05,1.71,0.83,2.9,2.53,3.42c7.51,2.29,14.17,6.08,19.89,11.48c1.39,1.31,2.86,1.52,4.52,0.46c1.08-0.69,2.19-1.34,3.34-1.88
		c1.68-0.78,3.2-0.41,4.15,1.2c2.87,4.83,5.68,9.69,8.43,14.59c0.98,1.76,0.44,3.33-1.3,4.43
		C109.04,43.69,107.89,44.26,106.81,44.94z"/>
	<path class="st0" d="M57.05,19.2c-22.76,0-41.07,18.27-41.1,41.01c-0.03,22.84,18.31,41.18,41.15,41.15
		c22.73-0.03,41.01-18.35,41-41.11C98.08,37.5,79.79,19.21,57.05,19.2z M57.02,99.36c-21.39,0.01-39.08-17.69-39.09-39.09
		c0-21.4,17.68-39.07,39.09-39.08c21.4-0.01,39.09,17.67,39.09,39.08C96.11,81.67,78.42,99.36,57.02,99.36z"/>
	<path class="st0" d="M57.16,25.41c-19.1-0.09-34.98,15.69-35.01,34.81c-0.03,19.04,15.67,34.83,34.71,34.92
		c19.1,0.1,34.98-15.7,35.02-34.81C91.92,41.29,76.22,25.51,57.16,25.41z M57.19,92.92C39.04,92.96,24.44,78.53,24.38,60.5
		c-0.06-18.25,14.4-32.84,32.56-32.86c18.14-0.02,32.69,14.44,32.72,32.51C89.69,78.29,75.24,92.87,57.19,92.92z"/>
	<path class="st0" d="M70.81,54.95c-6.01-0.01-12.02,0-18.02,0c0,0.43,0,0.81,0,1.1c-0.72,0-1.32,0-1.98,0c0-0.31,0-0.68-0.01-1.1
		c-1.43,0-2.85,0-4.28,0c0,0.39,0.01,0.73,0.01,1.01c-0.8,0.04-1.36,0.07-2.13,0.11c0-0.35-0.01-0.73-0.01-1.12
		c-0.39,0-0.78,0-1.17,0c-2.98,0-4.18,1.21-4.19,4.19c-0.02,6.39-0.02,12.77,0,19.16c0.01,2.96,1.23,4.18,4.2,4.19
		c4.59,0.01,9.19,0,13.79,0s9.2,0.01,13.8,0c2.97-0.02,4.18-1.23,4.19-4.2c0.01-6.39,0.02-12.77,0-19.16
		C75,56.17,73.78,54.95,70.81,54.95z M72.81,78.27c0.03,1.66-0.62,2.04-2.14,2.02c-4.6-0.08-9.2-0.03-13.8-0.03
		c-4.54,0-9.08-0.04-13.61,0.04c-1.46,0.02-2.05-0.38-2.03-1.94c0.07-6.39,0.06-12.78,0-19.17c-0.02-1.46,0.38-2.04,1.94-2.03
		c9.2,0.05,18.41,0.05,27.61,0c1.46-0.01,2.05,0.38,2.03,1.94C72.74,65.49,72.73,71.88,72.81,78.27z"/>
	<path class="st0" d="M46.55,44.98C46.97,39,52.28,34.41,57.94,35c6.12,0.64,10.46,6.16,9.54,12.3c-0.08,0.54-0.84,1.28-1.39,1.38
		c-2.17,0.41-2.7-0.12-2.77-2.35c-0.02-0.58-0.03-1.15-0.12-1.72c-0.45-3-3.07-5.34-6.05-5.43c-2.99-0.08-5.97,2.14-6.29,5.08
		c-0.23,2.15-0.09,7.68-0.06,10.69c0.66,0,1.32,0,1.99,0c-0.01-2.72-0.05-7.72,0.02-9.47c0.08-2.27,1.66-3.95,3.75-4.15
		c2.14-0.21,3.92,1.07,4.46,3.34c0.2,0.85-0.05,1.84,0.25,2.64c0.43,1.12,0.92,2.57,1.83,3.06c3.51,1.89,6.57-0.13,6.56-4.1
		c0-0.38,0-0.77-0.01-1.15c-0.22-5.77-4.15-10.56-9.83-11.99c-5.16-1.3-10.81,1.31-13.67,6.2c-2.13,3.63-1.83,11.09-1.76,15.62
		c0.71,0,1.42,0,2.14,0C46.5,52.14,46.41,46.92,46.55,44.98z"/>
	<path class="st0" d="M50.81,56.05c0.66,0,1.26,0,1.98,0c0-0.29,0-0.67,0-1.1c-0.66,0-1.32,0-1.99,0
		C50.8,55.37,50.81,55.74,50.81,56.05z"/>
	<path class="st0" d="M46.53,55.96c0-0.28,0-0.62-0.01-1.01c-0.71,0-1.42,0-2.14,0c0.01,0.39,0.01,0.77,0.01,1.12
		C45.17,56.03,45.73,56,46.53,55.96z"/>
	<path class="st0" d="M59.48,61.63c-1.46,1.42-2.79,2.97-4.23,4.52c-0.54-0.4-0.7-0.51-0.86-0.62c-2.13-1.64-3.48-1.4-5.71,1.01
		c-1.63,1.77-1.6,3.19,0.14,5c0.98,1.02,1.98,2.01,2.99,2.98c2.13,2.03,4.27,2.04,6.4-0.03c2.37-2.32,4.72-4.67,7.04-7.05
		c1.81-1.84,1.72-3.33-0.2-5.28C62.91,59.99,61.34,59.8,59.48,61.63z M63.64,66.08c-2.35,2.25-4.6,4.61-6.93,6.88
		c-0.47,0.46-1.14,0.72-1.78,1.1c-0.64-0.41-1.22-0.69-1.68-1.09c-0.86-0.76-1.59-1.68-2.47-2.4c-1.42-1.16-1.21-2.11,0.06-3.25
		c0.91-0.81,1.65-0.95,2.4,0.04c1.2,1.58,2.26,1.44,3.52-0.02c1.24-1.45,2.72-2.7,4.02-4.1c0.98-1.06,1.7-0.73,2.54,0.15
		C64.14,64.24,64.82,64.95,63.64,66.08z"/>
</g>
</svg>
