<?xml version="1.0" encoding="utf-8"?>
<!-- Generator: Adobe Illustrator 25.0.0, SVG Export Plug-In . SVG Version: 6.00 Build 0)  -->
<svg version="1.1" id="Layer_1" xmlns="http://www.w3.org/2000/svg" xmlns:xlink="http://www.w3.org/1999/xlink" x="0px" y="0px"
	 viewBox="0 0 111.58 111.57" style="enable-background:new 0 0 111.58 111.57;" xml:space="preserve">
<style type="text/css">
	.st0{fill:#001135;}
	.st1{fill:#FFFFFF;}
	.st2{fill:#3C7CFF;}
	.st3{fill:#185AE9;}
	.st4{fill:#00B0FB;}
	.st5{fill-rule:evenodd;clip-rule:evenodd;fill:#00B0FB;}
	.st6{fill:#061639;}
	.st7{fill:#1429FF;}
	.st8{fill:#663398;}
	.st9{fill:#FEFEFE;}
	.st10{fill:#8DB849;}
	.st11{fill:#5A863E;}
	.st12{fill:#FFFFFE;}
	.st13{fill-rule:evenodd;clip-rule:evenodd;fill:#7FC728;}
	.st14{fill:#B3B3B3;}
	.st15{fill:#A6120D;}
	.st16{fill:#DD1B16;}
	.st17{fill:#F2F2F2;}
	.st18{fill:#8F9ED1;}
	.st19{fill:#030303;}
	.st20{fill:#0E0E0D;}
	.st21{fill:#8F8F90;}
	.st22{fill:#DBDBDB;}
	.st23{fill:#FDFDFD;}
	.st24{fill:#FDFCFD;}
	.st25{fill:#010101;}
	.st26{fill:#FCB415;}
	.st27{opacity:0.2;fill:#FFFFFF;enable-background:new    ;}
	.st28{fill:#68B345;}
	.st29{fill:#0A99D6;}
	.st30{opacity:0.1;fill:#010101;enable-background:new    ;}
	.st31{fill:#EE3325;}
	.st32{fill:url(#SVGID_1_);}
	.st33{fill:#FF2D20;}
	.st34{clip-path:url(#SVGID_2_);fill:#F9C638;}
	.st35{fill:#2A2D2C;}
	.st36{fill:#F9C638;}
	.st37{fill:#833CF7;}
	.st38{fill:none;}
	.st39{fill:#0A0A0A;}
	.st40{fill:#050505;}
	.st41{fill:#2A2A2A;}
	.st42{fill:#000100;}
	.st43{fill:#FBFBFB;}
	.st44{fill:#070707;}
	.st45{fill:#080808;}
	.st46{fill:#F7F7F7;}
	.st47{fill:#0B0B0B;}
	.st48{fill:#F1F0F1;}
	.st49{fill:#F4F4F4;}
	.st50{fill:#0C0C0C;}
	.st51{fill:#ECECEC;}
	.st52{fill:#252525;}
	.st53{fill:#D5D5D5;}
	.st54{fill:#3F3F3F;}
	.st55{fill:#818181;}
	.st56{fill:#A2A2A2;}
	.st57{fill:#040404;}
	.st58{fill:#151515;}
	.st59{fill:#343434;}
	.st60{fill:#4B4B4B;}
	.st61{fill:#0D0D0D;}
</style>
<g>
	<path class="st0" d="M21.7,35.66C21.7,35.66,21.7,35.66,21.7,35.66c0.34,0,0.65-0.13,0.88-0.36l3.99-4.06
		c2.91-2.96,5.65-5.75,8.44-8.56c0.46-0.47,0.46-1.23,0-1.69L23.66,9.64c-0.63-0.63-0.95-1.12-0.95-1.44c0-0.32,0.33-0.79,0.96-1.4
		c0.28-0.27,0.68-0.5,1.11-0.75c0.27-0.16,0.51-0.29,0.74-0.44C25.8,5.43,26,5.13,26.05,4.8c0.05-0.34-0.04-0.68-0.26-0.95
		l-0.54-0.66c-0.23-0.28-0.57-0.44-0.93-0.44H4.03c-0.66,0-1.2,0.54-1.2,1.2v20.7c0,0.48,0.29,0.91,0.73,1.1
		c0.15,0.07,0.31,0.1,0.47,0.1c0.31,0,0.6-0.12,0.83-0.33l0.62-0.58c0.4-0.37,0.7-0.66,1-0.95c0.33-0.33,1.35-1.35,1.8-1.35
		c0.41,0,1.24,0.79,1.84,1.38c0.62,0.62,1.25,1.24,1.88,1.85c1.16,1.13,2.35,2.31,3.51,3.53c1.39,1.45,2.78,3.01,3.9,4.26
		c0.51,0.57,0.99,1.11,1.45,1.61C21.06,35.51,21.37,35.65,21.7,35.66z"/>
	<path class="st0" d="M89.75,76.11c-0.32,0-0.62,0.13-0.85,0.35c-4.19,4.22-8.18,8.23-12.25,12.32c-0.44,0.44-0.47,1.16-0.06,1.63
		l0.1,0.12c0.19,0.23,0.51,0.61,0.86,0.97c3.28,3.29,6.57,6.58,9.86,9.85c0.45,0.45,1.5,1.49,1.5,1.94c0,0.43-1.03,1.46-1.41,1.84
		c-0.34,0.35-0.63,0.69-0.95,1.09c-0.15,0.19-0.3,0.37-0.47,0.57c-0.3,0.35-0.37,0.86-0.17,1.28c0.2,0.42,0.62,0.69,1.09,0.69h20.58
		c0.66,0,1.2-0.54,1.2-1.2V86.87c0-0.48-0.28-0.91-0.72-1.1c-0.15-0.07-0.32-0.1-0.48-0.1c-0.3,0-0.59,0.11-0.81,0.32l-0.58,0.53
		c-0.32,0.29-0.53,0.47-0.72,0.67c-0.51,0.51-1.7,1.7-2.13,1.7s-1.63-1.21-2.14-1.73c-2.19-2.2-4.37-4.41-6.5-6.55l-4.09-4.13
		C90.38,76.24,90.06,76.11,89.75,76.11z"/>
	<path class="st0" d="M22.75,76.61c-0.23-0.23-0.53-0.35-0.85-0.35c-0.32,0-0.62,0.12-0.85,0.35c-3.63,3.62-7.51,7.48-11.39,11.34
		c-0.59,0.59-1.06,0.89-1.4,0.89c-0.32,0-0.77-0.28-1.32-0.83c-0.38-0.38-0.73-0.82-1.09-1.29c-0.16-0.21-0.33-0.42-0.5-0.62
		c-0.23-0.28-0.57-0.44-0.93-0.44c-0.25,0-0.49,0.08-0.69,0.22l-0.52,0.38c-0.31,0.22-0.5,0.58-0.5,0.97v20.39
		c0,0.66,0.54,1.2,1.2,1.2h20.81c0.48,0,0.91-0.28,1.1-0.72c0.19-0.44,0.1-0.95-0.23-1.3l-0.77-0.83c-0.37-0.4-0.67-0.73-0.99-1.05
		c-0.76-0.76-1.14-1.31-1.14-1.62c0-0.31,0.37-0.84,1.1-1.57c0.37-0.37,0.74-0.74,1.12-1.12c0.75-0.75,1.47-1.48,2.22-2.19
		c1.75-1.66,3.5-3.3,5.17-4.88l2.93-2.75c0.23-0.22,0.37-0.53,0.38-0.86c0-0.33-0.13-0.64-0.36-0.87
		C30.8,84.62,26.79,80.63,22.75,76.61z"/>
	<path class="st0" d="M100.38,25.12c1.15-1.2,2.33-2.45,2.99-2.45c0.53,0,1.4,0.72,2.67,2.19c0.3,0.35,0.67,0.46,0.92,0.54
		c0.1,0.03,0.16,0.05,0.22,0.08c0.15,0.06,0.31,0.1,0.47,0.1c0.24,0,0.46-0.07,0.66-0.2c0.34-0.22,0.54-0.6,0.54-1V3.97
		c0-0.66-0.54-1.2-1.2-1.2h-20.7c-0.47,0-0.9,0.28-1.09,0.7c-0.19,0.43-0.12,0.93,0.19,1.28l0.45,0.53
		c0.21,0.25,0.37,0.43,0.54,0.61c2.3,2.38,2.3,2.38,0.04,4.62c-2.41,2.38-4.82,4.75-7.15,7.03l-3.57,3.5
		c-0.23,0.22-0.36,0.54-0.36,0.85c0,0.32,0.12,0.63,0.35,0.85L88.8,35.16c0.23,0.23,0.53,0.35,0.85,0.35c0.33,0,0.63-0.13,0.85-0.36
		c0.87-0.88,2.8-2.82,2.8-2.82C95.64,29.99,98.03,27.58,100.38,25.12z"/>
	<path class="st1" d="M56.05,34.73l-0.17,0c-11.33,0-20.98,9.5-21.09,20.74c-0.05,5.58,2.08,10.88,6.01,14.93
		c3.93,4.06,9.14,6.32,14.66,6.36l0.16,0c11.57,0,21.08-9.34,21.2-20.82c0.06-5.55-2.1-10.84-6.08-14.89
		C66.77,37.02,61.56,34.78,56.05,34.73z M59.75,66.97c-1.36,0.21-2.43,1.34-2.72,1.68c-0.28,0.33-0.72,0.71-1.23,0.71
		c-0.4,0-0.82-0.23-1.23-0.67c-0.82-0.89-2-1.57-3.07-1.76c-2.36-0.44-4.08-2.13-4.38-4.31c-0.19-1.36,0.41-1.72,0.95-1.87
		c0.17-0.05,0.33-0.07,0.47-0.07c0.52,0,0.84,0.36,1.01,1.11c0.36,1.72,1.47,2.6,3.29,2.6c0,0,0.78-0.01,0.78-0.01
		c0.81-0.01,1.62-0.03,2.43-0.03c0.74,0,1.49,0.01,2.23,0.05c0.12,0.01,0.23,0.01,0.35,0.01c1.23,0,2.11-0.34,2.69-1.03
		c0.57-0.67,0.77-1.57,0.6-2.74c0.16-1.08-0.03-1.95-0.59-2.61c-0.59-0.7-1.51-1.04-2.79-1.04c-0.1,0-0.21,0-0.32,0.01
		c-0.85,0.04-1.7,0.05-2.55,0.05c-1.07,0-2.15-0.02-3.22-0.05c-3.42-0.09-5.28-2.01-5.38-5.54c-0.08-2.73,0.25-4.67,2.15-5.95
		c0.65-0.44,1.44-0.74,2.17-0.85c1.29-0.18,2.53-0.47,3.53-2.1c0.2-0.33,0.45-0.49,0.75-0.49c0.42,0,0.93,0.28,1.36,0.74
		c0.82,0.88,2,1.54,3.07,1.74c2.33,0.45,4.08,2.18,4.36,4.32c0.18,1.36-0.35,1.71-0.96,1.88c-0.17,0.05-0.32,0.07-0.46,0.07
		c-0.51,0-0.85-0.38-1.02-1.13c-0.38-1.72-1.48-2.6-3.29-2.6l-0.53,0.01c-0.91,0.02-1.82,0.03-2.73,0.03c-0.8,0-1.6-0.01-2.4-0.05
		l-0.24,0c-3.16,0-3.21,2.71-3.23,3.73c-0.02,1.29,0.25,2.18,0.87,2.81c0.57,0.58,1.37,0.86,2.44,0.86l0.24,0
		c0.99-0.04,1.96-0.06,2.93-0.06c1.1,0,2.2,0.02,3.3,0.07c3.09,0.11,5.01,2.02,5.14,5.11C64.69,64.3,63.32,66.43,59.75,66.97z"/>
	<path class="st2" d="M55.82,19.86h-0.19c-19.6,0-35.61,16.23-35.68,36.18c-0.05,19.5,16.05,35.46,35.9,35.58l0.22,0
		c19.14,0,35.44-16.24,35.59-35.45c0.08-9.46-3.65-18.5-10.49-25.44C74.32,23.78,65.32,19.92,55.82,19.86z M72.49,72.32
		c-4.49,4.5-10.48,6.99-16.86,6.99h-0.02C42.77,79.3,32.28,68.73,32.23,55.74c-0.02-6.16,2.43-12.03,6.92-16.53
		c4.53-4.54,10.47-7.05,16.73-7.05c12.7,0.01,23.46,10.77,23.5,23.49C79.39,61.94,76.94,67.86,72.49,72.32z"/>
	<path class="st0" d="M99.98,28.98l2.36-2.4c0.23-0.23,0.53-0.36,0.86-0.36c0.32,0,0.62,0.12,0.84,0.35
		c0.54,0.53,1.04,1.05,1.58,1.62c1.05,1.09,2.04,2.11,3.1,2.94c0.53,0.41,1.44,0.83,2.04,0.83l0.11,0c0.18-0.19,0.64-1.02,0.65-1.71
		c0.09-8.82,0.07-17.75,0.05-26.38l0-1.98c-0.01-1.74-0.13-1.86-1.92-1.86l-1.86,0C104.23,0.01,100.69,0,97.16,0
		c-6.23,0-11.27,0.03-15.88,0.08c-0.7,0.01-1.62,0.52-1.69,0.57c-0.11,0.4,0.25,1.48,0.83,2.17c0.91,1.1,2,2.07,3.23,3.17
		c0.45,0.4,0.9,0.8,1.33,1.21c0.24,0.22,0.38,0.53,0.38,0.86c0,0.33-0.12,0.63-0.35,0.87l-2.59,2.6c-2.82,2.84-5.49,5.52-8.26,8.18
		c-0.57,0.54-1.59,0.9-2.52,0.9c-0.38,0-0.73-0.06-1.03-0.19c-5.01-2.06-10.07-3.11-15.05-3.11c-4.93,0-9.94,1.03-14.89,3.06
		c-0.29,0.12-0.62,0.18-0.99,0.18c-0.64,0-1.6-0.2-2.19-0.78c-2.75-2.65-5.47-5.39-8.11-8.04l-2.77-2.77
		c-0.23-0.23-0.35-0.54-0.35-0.86c0-0.32,0.13-0.62,0.37-0.85c0.51-0.49,1.02-0.97,1.55-1.45c1.17-1.08,2.27-2.11,3.24-3.24
		c0.51-0.6,0.71-1.54,0.63-1.74c-0.07-0.17-0.91-0.74-1.45-0.75c-5.64-0.06-11.32-0.07-16.13-0.07l-12.89,0
		c-1.23,0-1.58,0.35-1.58,1.54l0,6.11C0,15.14-0.01,22.87,0.08,30.58c0.01,0.53,0.61,1.38,0.79,1.45c0,0,0.03,0.01,0.12,0.01
		c0.46,0,1.22-0.3,1.62-0.65c1.14-0.97,2.19-2.11,3.33-3.33c0.47-0.51,0.95-1.03,1.46-1.55c0.22-0.23,0.54-0.36,0.86-0.37
		c0.32,0,0.63,0.13,0.85,0.36l2.44,2.46c2.94,2.96,5.71,5.75,8.45,8.66c0.89,0.93,0.77,2.71,0.41,3.62
		c-3.94,9.98-3.94,19.92,0.01,29.57c0.31,0.79,0.41,2.26-0.35,3.04c-2.74,2.86-5.46,5.61-8.33,8.51l-2.59,2.62
		c-0.23,0.23-0.53,0.35-0.85,0.35c-0.32,0-0.63-0.13-0.86-0.36c-0.52-0.53-1.01-1.05-1.53-1.6c-1.08-1.15-2.1-2.24-3.21-3.15
		c-0.47-0.39-1.26-0.7-1.8-0.7c-0.06,0-0.11,0-0.14,0c-0.01,0-0.02,0-0.01,0c-0.15,0.09-0.67,0.93-0.68,1.51
		C0,88.07,0,95.13,0.01,101.96c0,0,0,5.49,0,7.89c0,1.29,0.41,1.7,1.68,1.7h11.31c5.57,0,11.55-0.01,17.5-0.07
		c0.6-0.01,1.44-0.5,1.51-0.58c0.11-0.36-0.13-1.41-0.62-1.99c-0.98-1.14-2.14-2.17-3.35-3.25c-0.48-0.42-0.96-0.85-1.43-1.28
		c-0.24-0.22-0.38-0.53-0.39-0.86c-0.01-0.32,0.12-0.64,0.35-0.87c1.01-1.01,1.99-2,3-3.02c2.68-2.7,5.21-5.25,7.85-7.79
		c0.64-0.63,1.68-0.85,2.43-0.85c0.42,0,0.81,0.07,1.13,0.2c5,2,10.04,3.02,14.98,3.02c4.92,0,9.89-1.01,14.77-2.99
		c0.38-0.16,0.85-0.25,1.34-0.25c0.46,0,1.33,0.08,1.89,0.63c2.98,2.84,5.84,5.68,8.87,8.69l2.2,2.18c0.23,0.23,0.36,0.54,0.36,0.86
		c0,0.32-0.14,0.64-0.37,0.86c-0.46,0.45-0.93,0.87-1.43,1.34l-0.1,0.09c-1.16,1.07-2.25,2.08-3.18,3.19
		c-0.62,0.74-0.84,1.71-0.78,1.88c0.08,0.17,1.01,0.78,1.68,0.79c5.42,0.07,10.86,0.08,15.93,0.08c0,0,11.67,0,12.65,0
		c0.68,0,1.17-0.13,1.42-0.37c0.25-0.25,0.37-0.75,0.37-1.44c-0.01-2.92,0-5.84,0-8.8c0-6.46,0.01-13.14-0.08-19.79
		c-0.01-0.66-0.62-1.59-0.85-1.67c-0.52,0-1.37,0.42-1.82,0.8c-1.1,0.93-2.09,2-3.14,3.15c-0.46,0.5-0.92,1.01-1.41,1.51
		c-0.22,0.23-0.54,0.37-0.87,0.37c-0.32,0-0.63-0.13-0.85-0.35l-2.58-2.58c-2.7-2.7-5.49-5.48-8.21-8.32
		c-0.73-0.76-0.99-2.34-0.56-3.38c4.04-9.96,4.03-19.95-0.04-29.71c-0.35-0.8-0.47-2.4,0.35-3.27
		C94.32,34.73,97.33,31.68,99.98,28.98z M19.39,33.65c-1.12-1.25-2.51-2.81-3.9-4.26c-1.15-1.22-2.35-2.39-3.51-3.53
		c-0.63-0.61-1.26-1.23-1.88-1.85c-0.59-0.59-1.43-1.38-1.84-1.38c-0.45,0-1.46,1.02-1.8,1.35c-0.29,0.29-0.6,0.58-1,0.95
		l-0.62,0.58c-0.22,0.21-0.52,0.33-0.83,0.33c-0.16,0-0.32-0.03-0.47-0.1c-0.44-0.19-0.73-0.62-0.73-1.1V3.95
		c0-0.66,0.54-1.2,1.2-1.2h20.3c0.36,0,0.7,0.16,0.93,0.44l0.54,0.66c0.22,0.26,0.31,0.61,0.26,0.95C26,5.13,25.8,5.43,25.52,5.62
		c-0.23,0.15-0.47,0.28-0.74,0.44c-0.43,0.25-0.83,0.48-1.11,0.75c-0.64,0.61-0.96,1.08-0.96,1.4c0,0.32,0.32,0.8,0.95,1.44
		l11.35,11.35c0.46,0.46,0.47,1.22,0,1.69c-2.78,2.82-5.53,5.61-8.44,8.56l-3.99,4.06c-0.23,0.23-0.54,0.36-0.88,0.36c0,0,0,0,0,0
		c-0.33-0.01-0.64-0.15-0.86-0.39C20.38,34.76,19.9,34.22,19.39,33.65z M35.25,90.78l-2.93,2.75c-1.67,1.57-3.42,3.22-5.17,4.88
		c-0.75,0.71-1.48,1.44-2.22,2.19c-0.37,0.37-0.74,0.75-1.12,1.12c-0.73,0.73-1.1,1.26-1.1,1.57c0,0.32,0.39,0.86,1.14,1.62
		c0.31,0.32,0.62,0.65,0.99,1.05l0.77,0.83c0.33,0.35,0.42,0.86,0.23,1.3c-0.19,0.44-0.62,0.72-1.1,0.72H3.93
		c-0.66,0-1.2-0.54-1.2-1.2V87.22c0-0.39,0.19-0.75,0.5-0.97l0.52-0.38c0.2-0.14,0.44-0.22,0.69-0.22c0.36,0,0.7,0.16,0.93,0.44
		c0.17,0.21,0.33,0.42,0.5,0.62c0.37,0.47,0.71,0.91,1.09,1.29c0.55,0.55,1,0.83,1.32,0.83c0.33,0,0.8-0.3,1.4-0.89
		c3.88-3.86,7.76-7.72,11.39-11.34c0.23-0.22,0.53-0.35,0.85-0.35c0.32,0,0.62,0.12,0.85,0.35c4.04,4.02,8.05,8.01,12.52,12.45
		c0.23,0.23,0.36,0.54,0.36,0.87C35.62,90.25,35.49,90.56,35.25,90.78z M94.69,80.6c2.12,2.15,4.31,4.35,6.5,6.55
		c0.51,0.52,1.71,1.73,2.14,1.73s1.62-1.19,2.13-1.7c0.2-0.2,0.4-0.38,0.72-0.67l0.58-0.53c0.22-0.21,0.51-0.32,0.81-0.32
		c0.17,0,0.33,0.03,0.48,0.1c0.44,0.19,0.72,0.62,0.72,1.1v20.71c0,0.66-0.54,1.2-1.2,1.2H87c-0.46,0-0.89-0.27-1.09-0.69
		c-0.2-0.42-0.13-0.92,0.17-1.28c0.17-0.2,0.32-0.38,0.47-0.57c0.33-0.4,0.61-0.74,0.95-1.09c0.39-0.38,1.41-1.41,1.41-1.84
		c0-0.45-1.05-1.5-1.5-1.94c-3.29-3.27-6.58-6.56-9.86-9.85c-0.36-0.36-0.68-0.74-0.86-0.97l-0.1-0.12
		c-0.41-0.47-0.39-1.19,0.06-1.63c4.07-4.09,8.06-8.1,12.25-12.32c0.23-0.23,0.53-0.35,0.85-0.35c0.32,0,0.63,0.13,0.85,0.36
		L94.69,80.6z M91.67,56.17c-0.15,19.22-16.45,35.45-35.59,35.45l-0.22,0c-19.85-0.12-35.95-16.09-35.9-35.58
		c0.07-19.95,16.08-36.18,35.68-36.18h0.19c9.49,0.06,18.5,3.92,25.35,10.87C88.02,37.67,91.75,46.71,91.67,56.17z M90.5,35.15
		c-0.23,0.23-0.53,0.35-0.85,0.36c-0.32,0-0.62-0.12-0.85-0.35L76.34,22.75c-0.23-0.23-0.35-0.53-0.35-0.85
		c0-0.32,0.13-0.63,0.36-0.85l3.57-3.5c2.33-2.29,4.75-4.65,7.15-7.03c2.26-2.24,2.26-2.24-0.04-4.62
		c-0.17-0.17-0.32-0.36-0.54-0.61l-0.45-0.53c-0.31-0.35-0.38-0.86-0.19-1.28c0.19-0.43,0.62-0.7,1.09-0.7h20.7
		c0.66,0,1.2,0.54,1.2,1.2v20.41c0,0.4-0.2,0.78-0.54,1c-0.2,0.13-0.42,0.2-0.66,0.2c-0.16,0-0.32-0.03-0.47-0.1
		c-0.07-0.03-0.13-0.05-0.22-0.08c-0.25-0.08-0.62-0.2-0.92-0.54c-1.27-1.48-2.14-2.19-2.67-2.19c-0.66,0-1.84,1.25-2.99,2.45
		c-2.35,2.47-4.74,4.87-7.07,7.21C93.3,32.33,91.37,34.27,90.5,35.15z"/>
	<path class="st0" d="M55.87,32.17c-6.26,0-12.2,2.5-16.73,7.05c-4.48,4.5-6.94,10.37-6.92,16.53
		c0.05,12.98,10.54,23.55,23.39,23.56h0.02c6.38,0,12.37-2.48,16.86-6.99c4.45-4.46,6.89-10.38,6.88-16.67
		C79.33,42.93,68.57,32.18,55.87,32.17z M55.61,76.76l-0.16,0c-5.52-0.05-10.72-2.31-14.66-6.36c-3.93-4.05-6.06-9.35-6.01-14.93
		c0.1-11.24,9.76-20.74,21.09-20.74l0.17,0c5.51,0.05,10.73,2.29,14.68,6.32c3.98,4.05,6.13,9.34,6.08,14.89
		C76.69,67.42,67.18,76.76,55.61,76.76z"/>
	<path class="st0" d="M59.35,54.5c-1.1-0.04-2.2-0.07-3.3-0.07c-0.97,0-1.94,0.02-2.93,0.06l-0.24,0c-1.07,0-1.86-0.28-2.44-0.86
		c-0.61-0.62-0.89-1.52-0.87-2.81c0.02-1.02,0.07-3.73,3.23-3.73l0.24,0c0.8,0.04,1.6,0.05,2.4,0.05c0.91,0,1.82-0.01,2.73-0.03
		l0.53-0.01c1.81,0,2.91,0.88,3.29,2.6c0.17,0.75,0.51,1.13,1.02,1.13c0.14,0,0.29-0.02,0.46-0.07c0.6-0.17,1.14-0.52,0.96-1.88
		c-0.27-2.14-2.02-3.88-4.36-4.32c-1.07-0.2-2.25-0.86-3.07-1.74c-0.43-0.46-0.94-0.74-1.36-0.74c-0.3,0-0.55,0.16-0.75,0.49
		c-1,1.63-2.24,1.92-3.53,2.1c-0.72,0.1-1.51,0.41-2.17,0.85c-1.9,1.27-2.23,3.22-2.15,5.95c0.1,3.53,1.96,5.44,5.38,5.54
		c1.07,0.03,2.15,0.05,3.22,0.05c0.85,0,1.7-0.01,2.55-0.05c0.11,0,0.22-0.01,0.32-0.01c1.29,0,2.2,0.34,2.79,1.04
		c0.56,0.66,0.75,1.53,0.59,2.61c0.16,1.17-0.03,2.07-0.6,2.74c-0.59,0.69-1.47,1.03-2.69,1.03c-0.11,0-0.23,0-0.35-0.01
		c-0.74-0.04-1.49-0.05-2.23-0.05c-0.81,0-1.62,0.01-2.43,0.03c0,0-0.78,0.01-0.78,0.01c-1.83,0-2.94-0.88-3.29-2.6
		c-0.16-0.75-0.49-1.11-1.01-1.11c-0.14,0-0.3,0.02-0.47,0.07c-0.54,0.16-1.14,0.51-0.95,1.87c0.3,2.18,2.02,3.87,4.38,4.31
		c1.07,0.2,2.25,0.87,3.07,1.76c0.41,0.44,0.83,0.67,1.23,0.67c0.51,0,0.95-0.39,1.23-0.71c0.29-0.34,1.36-1.48,2.72-1.68
		c3.57-0.54,4.94-2.67,4.74-7.37C64.36,56.52,62.44,54.61,59.35,54.5z"/>
</g>
</svg>
