<?xml version="1.0" encoding="utf-8"?>
<!-- Generator: Adobe Illustrator 25.0.0, SVG Export Plug-In . SVG Version: 6.00 Build 0)  -->
<svg version="1.1" id="Layer_1" xmlns="http://www.w3.org/2000/svg" xmlns:xlink="http://www.w3.org/1999/xlink" x="0px" y="0px"
	 viewBox="0 0 564.27 478" style="enable-background:new 0 0 564.27 478;" xml:space="preserve">
<style type="text/css">
	.st0{fill:#185AE9;}
	.st1{fill:#00B0FB;}
	.st2{fill:#00B0FB;fill-opacity:0.4;}
	.st3{fill:#FFFFFF;}
	.st4{fill:#00769D;}
	.st5{fill:#8DB849;}
	.st6{fill:#5A863E;}
	.st7{fill:#FFFFFE;}
	.st8{fill:#F26322;}
	.st9{fill:#009CDE;}
	.st10{fill-rule:evenodd;clip-rule:evenodd;fill:#7FC728;}
	.st11{fill:#00D8FF;}
	.st12{fill:#3C7CFF;}
	.st13{fill:#001135;}
	.st14{fill:#DBDBDB;}
	.st15{fill:#FDFDFD;}
	.st16{fill:#020202;}
	.st17{fill:#030303;}
	.st18{fill:#FBFBFB;}
	.st19{fill:#060606;}
	.st20{fill:#050505;}
	.st21{fill:#0A0A0A;}
	.st22{fill:#0E0E0E;}
	.st23{fill:#0D0D0D;}
	.st24{fill:#101010;}
	.st25{fill:#070707;}
	.st26{fill:#0C0C0C;}
	.st27{fill:#FCFCFC;}
	.st28{fill:#D2D3D3;}
	.st29{fill:#F6F6F6;}
	.st30{fill:#BABBBB;}
	.st31{fill:#8A8A8A;}
	.st32{fill:#8E8F8F;}
	.st33{fill:#5F5E5E;}
	.st34{fill:#FEFDFE;}
</style>
<g>
	<g>
		<path d="M347.06,460.92c-0.17-5.26-1.86-10.17-3.9-14.98c-5.48-12.72-13.33-23.95-21.76-34.8c-4.88-6.28-9.96-12.38-15.2-18.33
			c-1.52-1.73-3.06-3.45-4.61-5.15c-2.36-2.61-4.77-5.19-7.2-7.74c-1.74-1.83-3.49-3.65-5.26-5.45
			c-6.01-6.14-12.18-12.14-18.46-18.02c-0.89-0.84-1.79-1.67-2.7-2.51c-0.68-0.64-1.37-1.28-2.06-1.91
			c-4.12-3.8-8.29-7.56-12.48-11.27c-0.26-0.24-0.52-0.47-0.79-0.7c-4.23-3.75-8.5-7.46-12.81-11.12c-0.59-0.5-1.19-1.01-1.79-1.51
			c-0.57-0.49-1.15-0.98-1.74-1.46c-0.17-0.15-0.35-0.29-0.52-0.43c-10.51-8.84-21.23-17.43-32.15-25.73
			c-1.07-0.81-2.14-1.62-3.22-2.44c-0.15-0.11-0.3-0.23-0.45-0.34c-3.47-2.62-6.97-5.2-10.48-7.77c-3.23-2.35-6.47-4.68-9.73-6.97
			c-1.17-0.84-2.35-1.67-3.53-2.49c-11.53-8.07-23.28-15.85-35.24-23.33c-1.83-1.15-3.67-2.29-5.51-3.42
			c-1.12-0.69-2.24-1.38-3.36-2.06c-5.73-3.49-11.51-6.91-17.35-10.22c-1.54-0.88-3.09-1.75-4.65-2.61
			c-14.94-8.3-30.27-15.85-46.2-22.2c-13.97-5.54-28.14-10.4-43.57-11.02c-2.2,0.23-4.58,0.17-6.9,0.51
			C4.63,206.86-0.12,212.4,0,221.27c0.04,4.81,1.36,9.27,3.11,13.67c4.57,11.59,11.35,21.88,18.7,31.77
			c9.17,12.33,19.13,23.93,29.64,35.03c1.43,1.52,2.88,3.02,4.33,4.52c1,1.04,2.02,2.07,3.03,3.1c0.97,1,1.95,1.98,2.93,2.96
			c1.76,1.76,3.53,3.5,5.31,5.25c0.03,0.03,0.07,0.07,0.11,0.1c0.94,0.93,1.9,1.85,2.85,2.76c0.2,0.2,0.4,0.39,0.6,0.57
			c0,0.03,0.01,0.03,0.01,0.03c0.12,0.11,0.23,0.22,0.35,0.33c2.87,2.77,5.78,5.52,8.71,8.24c1.03,0.96,2.07,1.91,3.1,2.86
			c0.71,0.67,1.43,1.33,2.15,1.99c0.7,0.64,1.41,1.28,2.12,1.92c0.53,0.48,1.06,0.98,1.61,1.46c0.56,0.51,1.12,1.01,1.68,1.5
			c2.26,2.05,4.54,4.07,6.83,6.08c0.28,0.23,0.55,0.48,0.82,0.71c0.1,0.09,0.19,0.18,0.29,0.26c0.58,0.5,1.15,1,1.73,1.5
			c0.27,0.24,0.54,0.48,0.8,0.69c2.78,2.42,5.57,4.81,8.38,7.17c1.14,0.97,2.27,1.92,3.41,2.87c1.06,0.89,2.12,1.76,3.19,2.64
			c2.21,1.83,4.45,3.66,6.69,5.47c0.01,0,0.01,0,0.01,0.01c2.18,1.76,4.36,3.51,6.55,5.24c0.2,0.16,0.41,0.32,0.61,0.48
			c0.93,0.74,1.86,1.48,2.8,2.21c0.92,0.72,1.84,1.43,2.76,2.14c1.2,0.95,2.41,1.88,3.63,2.81c3.76,2.89,7.54,5.76,11.35,8.58
			c0.81,0.61,1.62,1.22,2.43,1.82c1.77,1.31,3.54,2.61,5.32,3.9c1.03,0.75,2.06,1.49,3.09,2.23c2.56,1.87,5.15,3.71,7.74,5.54
			c0.05,0.03,0.09,0.07,0.14,0.1c0.15,0.11,0.29,0.2,0.44,0.31c0.84,0.59,1.66,1.17,2.51,1.75c0.16,0.11,0.32,0.22,0.48,0.33
			c0.09,0.07,0.19,0.14,0.29,0.2c3.62,2.55,7.25,5.05,10.92,7.52c2.47,1.69,4.95,3.35,7.44,4.99c1,0.67,2,1.34,3.02,1.98
			c0.26,0.17,0.5,0.33,0.76,0.5c0.89,0.59,1.78,1.17,2.68,1.76c1.06,0.67,2.11,1.36,3.17,2.04c4.61,2.94,9.26,5.84,13.95,8.67
			c1.07,0.66,2.14,1.3,3.21,1.94c0.8,0.48,1.59,0.95,2.38,1.42c1.06,0.63,2.13,1.26,3.2,1.89c6.44,3.76,12.94,7.41,19.54,10.93
			c3.81,2.03,7.64,4.02,11.5,5.95c0.98,0.51,1.96,0.99,2.94,1.49c3.01,1.49,6.03,2.95,9.06,4.37v0.01c1.34,0.62,2.67,1.24,4.01,1.84
			c2.28,1.04,4.58,2.05,6.89,3.03c9.41,3.99,19.04,7.48,29.02,10.12c8.64,2.26,17.35,3.95,26.38,2.82
			C342.37,476.4,347.4,470.64,347.06,460.92z"/>
		<g>
			<g>
				<path class="st3" d="M174.64,399.06c1.36,0.91,2.72,1.81,4.08,2.71C178.01,399.35,176.47,398.91,174.64,399.06z"/>
				<path class="st14" d="M134.15,369.82c1.54,1.2,3.08,2.37,4.61,3.55c0.95,0.72,1.9,1.44,2.86,2.17c0.13,0.1,0.27,0.2,0.4,0.3
					c3.08,2.33,6.2,4.62,9.32,6.91c1.33,0.97,2.67,1.94,4,2.9c0.09-0.51,0.2-1.02,0.31-1.53c2.49-11.17,9.55-18.47,19.98-19.92
					c-5.7-2.53-11.27-3.2-16.54-4.84c-10.63-3.29-18.18,0.77-24.13,9.29C134.68,369.04,134.42,369.43,134.15,369.82z"/>
				<path class="st14" d="M117.1,356.24c4.6,3.78,9.23,7.49,13.91,11.15c0.93-1.39,1.96-2.74,3.04-4.06
					c2.15-2.61,4.79-4.73,7.81-7.2c-7.63-2.12-14.75-2.07-21.89-0.54C119.01,355.79,118.05,356,117.1,356.24z M86.84,330.1
					c2.53,2.31,5.09,4.6,7.65,6.87c0.23,0.21,0.46,0.42,0.7,0.62c3.76,3.33,7.56,6.63,11.39,9.89c0.52,0.44,1.06,0.9,1.59,1.34
					c0.51,0.44,1.02,0.87,1.55,1.3c0.15,0.13,0.31,0.26,0.46,0.38c1.08,0.92,2.17,1.82,3.26,2.72c7.93-2.2,16.04-3.09,24.36-2.27
					c0.67,0.06,1.34,0.01,2,0.01c0.33-1.42-0.64-2.13-1.2-2.93c-6.03-8.54-12.99-16.25-20.75-23.26c-1.24-1.14-4.11-2.49-2.73-4.18
					c1.78-2.17,3.79,0.44,5.24,1.64c6.52,5.4,12.04,11.77,17.49,18.21c1.2,1.4,2.39,2.83,3.55,4.2c1.27-0.64,0.78-1.56,0.75-2.28
					c-0.83-13.19-0.68-26.54-2.79-39.53c-2.76-16.93-9.92-32.11-23.73-43.33c-1.39-1.13-4.19-2.73-3.23-3.95
					c1.33-1.69,3.48,0.52,5.01,1.55c6.93,4.64,12.45,10.58,16.07,18.17c1.81,3.8,3.63,7.59,5.47,11.37
					c6.12,12.57,5.33,26.21,6.11,39.58c0.45,7.82,0.87,15.65,2.2,23.38c0.46,2.67,1.41,4.07,4.62,4.47
					c8.24,1.01,16.21,3.38,24.05,6.16c2.6,0.92,4.5,2.55,4.76,5.48c0.1,1.09,0.47,1.88,1.56,1.97c7.73,0.74,15.33,3.83,23.22,1.34
					c7.47-2.35,14.94-4.66,22.37-7.13c4.08-1.36,8-1.42,11.95,0.37c3.56,1.62,7.29,2.36,11.24,2.28c1.37-0.04,2.1,0.06,2.19-1.66
					c0.2-3.79,0.43-7.58,0.67-11.37c1.75-28.08,4.09-56.15,3.22-84.34c-0.02-0.7-0.3-1.54,0.62-1.71c0.79-0.14,1.16,0.67,1.47,1.28
					c1.29,2.53,1.96,5.21,1.96,8.09c0.06,21.55-0.74,43.05-2.55,64.52c-0.21,2.56-0.23,5.15-0.39,7.72
					c-0.12,1.93,0.63,2.26,2.27,1.47c1.17-0.57,2.31-1.15,3.16-2.17c0.81-0.99,1.63-1.96,2.82-2.69c-2.52,3.4-1.09,9.37-7.21,10.39
					c-0.92,0.15-1.19,0.72-1.29,1.35c-0.07,0.38-0.08,0.78-0.12,1.15c-0.36,3.13-0.64,6.28-0.95,9.41c-0.13,1.33,0.46,2.5,1.64,2.79
					c1.21,0.3,1.25-1.15,1.58-1.93c0.93-2.2,1.87-4.39,2.79-6.59C268,348.18,273.1,336.1,278.18,324
					c-1.39-5.96-4.12-15.98-5.18-20.91c-2.62-12.12-5.39-24.17-9.41-35.94c-3.39-9.89-8.73-17.72-18.95-21.53
					c-3.39-1.25-6.55-3.08-9.81-4.66c-1.05-0.51-1.93-0.73-2.5,0.71c-1.81,4.54-5.78,6.63-9.96,8.26c-2.38,0.93-3.14,2.04-2.53,4.69
					c1.94,8.37,1.93,16.95,2.33,25.49c0.38,8.29,0.52,16.6,0.84,24.89c0.09,2.1,0.46,4.18,0.68,6.27c0.14,1.27,0.44,2.64-0.76,3.57
					c-0.9,0.69-2,0.69-3,0.2c-1.45-0.71-1.21-2.07-1.2-3.37c0.02-17.44-0.44-34.86-2.03-52.24c-0.21-2.3-0.71-4.65-1.5-6.83
					c-1.02-2.78,0.05-4.31,2.51-5.13c2.22-0.74,4.48-1.33,6.5-2.58c3.54-2.2,5.15-5.18,4.44-9.46c-1.3-7.95-9.77-15.02-17.63-14.54
					c-4.73,0.29-4.97,0.6-4.29,6.02c1.9-1.02,3.33-2.21,5.29-2.38c4.42-0.37,6.93,2.71,5.32,6.87c-0.62,1.6-1.66,3.08-2.71,4.48
					c-2.89,3.86-6.6,6.93-10.1,10.21c-2.83,2.64-5.29,2.6-8.32,0.48c-9.02-6.28-18.13-12.46-27.23-18.62
					c-8.61-5.82-17.07-11.97-27.3-14.81c-1.5-0.41-2.62-1.25-2.01-3.04c0.58-1.72,1.94-1.92,3.41-1.32c3.14,1.29,6.37,2.43,9.3,4.09
					c3.04,1.72,4.52,0.92,5.76-2.09c1.93-4.68,1.8-5.16-3.16-5.4c-7.03-0.33-14.04,0.12-21,1.16c-3.54,0.53-6.2,2.14-7.89,5.6
					c-3.17,6.44-8.13,11.7-12.16,17.58c-0.66,0.97-1.55,1.79-1.71,3.02c-0.18,1.4-0.42,2.96,0.61,4.03
					c1.05,1.08,2.18-0.16,3.16-0.54c3.59-1.38,7.2-0.51,10.77-0.17c17.17,1.62,33.81,6.01,50.52,9.96c1.64,0.38,2.96,1.28,2.44,3.16
					c-0.57,2.08-2.21,1.61-3.74,1.15c-17.87-5.33-36.08-8.88-54.65-10.6c-1.6-0.14-3,0.37-4.38,0.99c-2.64,1.16-5.19,2.45-7.68,3.86
					c-4.12,2.32-8.08,4.92-11.94,7.69c-2.49,1.79-3.96,4.15-5,7c-3.43,9.33-4.68,19.11-5.24,28.9
					C86.27,302.16,86.09,316.15,86.84,330.1z M193.52,300.27c0-0.13-0.01-0.26-0.01-0.39c-0.01-0.43-0.02-0.85-0.02-1.28
					c0-1.02,0.02-2.04,0.02-3.08c-0.73-13.71-2.93-27.17-7.64-40.13c-0.39-1.08-1.07-2.06-1.62-3.08c-0.87-1.63-0.66-3.07,1.12-3.73
					c1.69-0.63,2.83,0.09,3.44,1.92c4.74,14.27,8.17,28.78,8.73,43.88c0.06,1.88,0.24,3.71,0.68,5.55c0.06,0.27,0.09,0.52,0.09,0.75
					c0,0.1-0.01,0.2-0.02,0.28c-0.01,0.05-0.01,0.1-0.03,0.14c-0.01,0.07-0.03,0.14-0.04,0.21c-0.02,0.05-0.04,0.11-0.05,0.15
					c-0.08,0.2-0.2,0.38-0.34,0.54c-0.05,0.06-0.12,0.12-0.18,0.18c-0.09,0.07-0.19,0.14-0.29,0.2c-0.1,0.05-0.2,0.11-0.31,0.15
					c-0.03,0.02-0.05,0.03-0.08,0.04c-0.1,0.04-0.2,0.06-0.3,0.09c-0.09,0.03-0.18,0.04-0.28,0.06c-0.12,0.02-0.26,0.04-0.4,0.04
					c-1.56,0.11-2.4-0.8-2.45-2.33C193.53,300.39,193.53,300.33,193.52,300.27z"/>
				<path class="st3" d="M160.75,214.52c-0.72,1.56-0.53,2.54,0.92,3.49c2.54,1.66,5,3.46,7.49,5.19
					c9.41,6.54,18.65,13.34,28.44,19.33c3.48,2.12,5.46,0.93,5.47-3.2c0.01-3.26-0.68-6.57-0.39-9.8c0.35-4.02-0.48-6.68-4.8-7.77
					c-1.74-0.44-3.35-1.64-4.87-2.72c-6.5-4.6-12.03-10.05-15.1-17.58c-0.43-1.03-1.05-2.36,0.32-3.14c1.05-0.6,1.7,0.5,2.32,1.08
					c4.38,4.19,9.66,7,15.05,9.55c4.87,2.3,9.96,4.04,15.49,4.05c4.73,0.01,6.48-1.12,8.02-5.58c0.88-2.54,1.97-4.99,3.25-7.37
					c4.32-8.02,7.17-16.5,7.71-25.65c0.05-0.86,1.01-2.71-1.04-2.46c-2.3,0.28-3.36-1.13-5.15-3.52c-0.3,4.93,1.54,8.28,2.43,11.82
					c1.07,4.21-0.81,6.71-5.08,6.61c-1.02-0.02-2.8,0.56-2.95-0.98c-0.16-1.78,1.64-1.13,2.68-1.3c3.31-0.52,3.87-1.41,2.81-4.76
					c-0.94-3.01-1.88-6.03-2.06-9.21c-0.07-1.19-0.19-2.66,1.1-3.07c2.17-0.69,4.11-2.51,6.62-1.78c2.68,0.78,2.28-1.5,2.45-2.68
					c0.29-2.12-1.4-1.21-2.39-1.16c-0.81,0.05-1.61,0.28-2.42,0.4c-0.85,0.13-1.72,0.1-2.11-0.81c-0.46-1.1,0.36-1.75,1.13-2.28
					c1.5-1.03,3.29-1.16,5.03-1.27c1.27-0.08,2.38-0.21,2.33-1.87c-0.16-5.8,0.91-11.65-1.42-17.34c-1.07-2.61-1.77-4.27-5.16-3.35
					c-2.68,0.72-5.58,0.2-8.36-0.36c-7.91-1.56-15.81-3.18-23.74-4.68c-3.41-0.65-4.71,0.53-4.13,3.94
					c0.52,3.09,1.53,6.12,2.34,9.16c1.04,3.93,0.03,7.4-3.18,9.71c-4.68,3.36-6.89,7.76-7.04,13.4c-0.03,1.04-0.16,2.08-1.48,2.48
					c-3.4,1.01-7.98-1.55-8.64-5.06c-0.58-3.11-1.91-5.79-4.19-7.91c-1.96-1.82-4.21-3.05-7-1.8c-2.67,1.2-3.71,3.46-3.72,6.23
					c-0.04,6.72,3.02,12.13,7.43,16.87c1.37,1.48,3.22,2.33,5.41,1.74c1.38-0.36,2.97-0.88,3.25,1.26c0.3,2.29-1.34,2.69-3.14,2.75
					c-0.69,0.02-1.44,0.12-2.09-0.07c-2.3-0.68-2.75,0.28-2.62,2.4C166.57,195.58,165,205.31,160.75,214.52z M169.92,172.42
					c-0.92,0.69-1.75,0.2-2.48-0.49c-2.52-2.38-1.42-6-2.93-8.76c-0.26-0.45,0.67-1.12,1.44-1.19c1.13-0.11,2.2,0.12,2.67,1.21
					c0.3,0.71,0.25,1.58,0.32,2.1c-0.46,2.04,0.21,3.49,1.11,4.91C170.51,170.92,170.71,171.81,169.92,172.42z M203.53,189.29
					c1.19-1.35,1.94,0.24,2.76,0.93c2.84,2.4,6.21,3,9.81,3c1.48,0,3.98-0.84,3.97,1.46c0,2.4-2.61,1.54-4.03,1.84
					c-4.37-0.15-8.23-1.28-11.52-3.98C203.49,191.68,202.46,190.5,203.53,189.29z M200.16,166.39c2.69-1.79,5.31-3.54,8.63-2.3
					c1.32,0.49,2.98,1.3,2.89,2.7c-0.1,1.71-2.21,2.1-3.48,2.97c-1.08,0.76-2.76,0.72-3.41-0.58
					C203.79,167.17,202,167.1,200.16,166.39z M198.69,156.97c2-1.12,4.2-1.29,6.08-1.37c3.05,0.02,5.63,0.71,8.17,1.58
					c1.09,0.37,1.85,1.1,1.59,2.35c-0.28,1.32-1.42,1.65-2.44,1.25c-4.12-1.62-8.3-2.17-12.66-1.26c-0.68,0.14-1.45-0.05-1.67-0.88
					C197.55,157.84,198.04,157.34,198.69,156.97z"/>
				<path class="st3" d="M212.33,129.55c0.56,0.11,1.16,0.08,1.64,0.1c4.37-0.49,8.76-0.63,12.08-3.95c0.62-0.62,1.41-1.39,0.56-2.4
					c-0.66-0.78-1.47-0.64-2.18-0.12c-3.54,2.63-7.59,3.33-11.88,3.18c-1-0.03-1.96,0.23-2.02,1.4
					C210.47,128.89,211.37,129.36,212.33,129.55z"/>
				<path class="st3" d="M255.88,373.07c0.18,0.22,0.51,0.33,0.77,0.49c-0.49-2.83-2.05-4.68-4.57-5.65
					C253.21,369.74,254.53,371.42,255.88,373.07z"/>
				<path class="st14" d="M234.24,397.36c-15.64-0.37-31.3,0.37-46.93-0.61c-0.81-0.05-1.64-0.08-2.45,0.02
					c-1.16,0.14-2.64,0.35-2.49,1.85c0.15,1.44,1.64,0.96,2.6,0.95c17.51-0.17,35.01,0.98,52.53,0.55c1.76-0.04,3.73-0.06,4.91,1.38
					c2.07,2.55,2.61,1.05,3.17-0.94c0.27-0.97,1.11-1.79,0.74-3.41C242.32,398.6,238.29,397.46,234.24,397.36z"/>
				<path d="M326.35,359.43c-2.41,0.37-3.96,1.89-4.39,4.29c-0.25,1.4,0.59,2.35,2.01,2.11c2.36-0.41,3.84-1.95,4.49-4.08
					C328.44,360.16,327.76,359.22,326.35,359.43z"/>
				<path class="st14" d="M255.05,404.45c15.2-0.41,30.4-0.85,45.6-1.29c3.16-0.1,6.31-0.19,9.47-0.28
					c12.04-0.34,24.08-0.86,36.13-0.94c7.67-0.04,8.45-0.28,11.14-7.55c5.99-16.23,12-32.46,18.01-48.68
					c2.76-7.46,5.56-14.89,8.25-22.37c1.34-3.73,0.11-5.87-3.3-5.88l-44.56-1.56c-14.39,0-28.78,0.09-43.17-0.07
					c-3.77-0.04-6.17,1-7.55,4.72c-2.12,5.69-4.62,11.25-6.96,16.85c-3.73,8.95-7.48,17.9-11.21,26.85
					c-5,11.97-9.98,23.94-14.96,35.92C250.48,403.74,251.1,404.55,255.05,404.45z M318.39,364.36c-0.18-4.22,4.04-8.88,8.2-9.05
					c3-0.12,5.53,2.38,5.59,5.52c0.07,3.85-4.4,8.56-8.23,8.66C320.98,369.57,318.51,367.3,318.39,364.36z"/>
				<path class="st3" d="M158.9,388.16c0.36,0.27,0.73,0.52,1.09,0.78c1.04,0.75,2.09,1.48,3.14,2.21c2.3,1.62,4.62,3.22,6.95,4.8
					c1.56-0.33,3.12-0.66,4.68-0.96c6.75-1.32,13.45-3.67,20.41-2.28c9.3,1.86,18.32,1.71,27.14-2.13
					c5.64-2.46,10.93-2.11,15.61,2.29c0.58,0.55,1.34,0.93,2.06,1.3c1.11,0.56,2.06,0.03,2.9-0.64c0.99-0.78,0.95-1.84,0.52-2.88
					c-0.96-2.28-2.8-3.72-4.92-4.78c-2.64-1.33-5.51-1.93-8.41-2.38c-1.5-0.24-3.03-0.72-2.66-2.5c0.33-1.58,1.97-1.48,3.24-1.16
					c6.07,1.56,12.58,2.28,16.37,8.34c0.29,0.47,0.83,0.83,1.32,1.14c0.96,0.6,1.92,0.86,2.79-0.21c0.77-0.95,0.67-1.7,0.03-2.8
					c-3.68-6.29-8.62-10.66-16.2-11.37c-0.81-0.07-1.61-0.29-2.39-0.52c-1.11-0.3-2-0.93-1.77-2.21c0.27-1.48,1.5-1.8,2.71-1.47
					c6.91,1.92,14.48,2.66,18.32,10.18c0.36,0.72,0.91,2.38,2.22,1.39c0.82-0.63,1.65-2.1,1.03-3.12c-2.28-3.76-4-8.17-8.32-10.13
					c-7.8-3.55-15.76-5.98-24.07-1.34c-0.6,0.33-1.32,0.49-1.97,0.72c-10.55,3.64-21.08,7.06-32.53,4.23
					c-4.87-1.2-9.94-1.56-14.86-2.57c-2.72-0.55-4.7,0.2-6.63,2.05C162.03,376.62,159.73,382.09,158.9,388.16z"/>
				<path d="M82.71,326.31c0.23,0.21,0.46,0.43,0.69,0.64c1.15,1.06,2.29,2.11,3.44,3.15c-0.75-13.95-0.57-27.94,0.25-41.94
					c0.57-9.79,1.81-19.57,5.24-28.9c1.05-2.84,2.52-5.21,5-7c3.86-2.76,7.81-5.37,11.94-7.69c2.49-1.4,5.04-2.7,7.68-3.86
					c1.39-0.61,2.78-1.13,4.38-0.99c18.57,1.72,36.78,5.26,54.65,10.6c1.53,0.46,3.17,0.93,3.74-1.15c0.52-1.88-0.8-2.78-2.44-3.16
					c-16.71-3.95-33.34-8.34-50.52-9.96c-3.56-0.34-7.17-1.21-10.77,0.17c-0.99,0.38-2.12,1.63-3.16,0.54
					c-1.03-1.07-0.79-2.62-0.61-4.03c0.16-1.24,1.05-2.05,1.71-3.02c4.03-5.88,8.99-11.15,12.16-17.58c1.7-3.46,4.36-5.07,7.89-5.6
					c6.96-1.04,13.97-1.48,21-1.16c4.97,0.24,5.09,0.73,3.16,5.4c-1.24,3-2.72,3.81-5.76,2.09c-2.92-1.66-6.16-2.8-9.3-4.09
					c-1.48-0.6-2.84-0.41-3.41,1.32c-0.61,1.79,0.51,2.63,2.01,3.04c10.23,2.84,18.69,8.99,27.3,14.81
					c9.1,6.16,18.21,12.34,27.23,18.62c3.03,2.12,5.49,2.16,8.32-0.48c3.5-3.28,7.21-6.36,10.1-10.21c1.05-1.4,2.09-2.88,2.71-4.48
					c1.61-4.16-0.91-7.24-5.32-6.87c-1.96,0.17-3.39,1.36-5.29,2.38c-0.68-5.42-0.44-5.72,4.29-6.02
					c7.86-0.48,16.33,6.6,17.63,14.54c0.7,4.28-0.91,7.26-4.44,9.46c-2.02,1.24-4.28,1.84-6.5,2.58c-2.45,0.82-3.53,2.35-2.51,5.13
					c0.79,2.18,1.29,4.52,1.5,6.83c1.58,17.38,2.04,34.8,2.03,52.24c-0.01,1.3-0.25,2.66,1.2,3.37c1,0.5,2.1,0.5,3-0.2
					c1.21-0.93,0.91-2.3,0.76-3.57c-0.22-2.09-0.6-4.17-0.68-6.27c-0.32-8.29-0.46-16.6-0.84-24.89c-0.4-8.53-0.39-17.11-2.33-25.49
					c-0.6-2.65,0.15-3.76,2.53-4.69c4.19-1.63,8.15-3.72,9.96-8.26c0.57-1.44,1.45-1.22,2.5-0.71c3.26,1.57,6.43,3.4,9.81,4.66
					c10.22,3.81,15.57,11.65,18.95,21.53c4.02,11.77,6.78,23.82,9.41,35.94c1.07,4.92,3.8,14.95,5.18,20.91
					c-5.08,12.1-10.19,24.18-15.31,36.25c-0.92,2.2-1.86,4.39-2.79,6.59c-0.33,0.78-0.37,2.23-1.58,1.93
					c-1.17-0.29-1.77-1.46-1.64-2.79c0.31-3.14,0.59-6.28,0.95-9.41c0.04-0.36,0.04-0.76,0.12-1.15c0.1-0.63,0.37-1.2,1.29-1.35
					c6.12-1.02,4.69-7,7.21-10.39c-1.19,0.73-2.01,1.71-2.82,2.69c-0.84,1.02-1.98,1.6-3.16,2.17c-1.64,0.79-2.39,0.46-2.27-1.47
					c0.16-2.57,0.18-5.16,0.39-7.72c1.81-21.47,2.61-42.97,2.55-64.52c-0.01-2.88-0.68-5.56-1.96-8.09
					c-0.31-0.61-0.68-1.42-1.47-1.28c-0.92,0.17-0.64,1-0.62,1.71c0.87,28.19-1.47,56.26-3.22,84.34
					c-0.24,3.79-0.46,7.58-0.67,11.37c-0.09,1.72-0.82,1.63-2.19,1.66c-3.95,0.08-7.67-0.66-11.24-2.28
					c-3.95-1.8-7.87-1.73-11.95-0.37c-7.42,2.47-14.9,4.78-22.37,7.13c-7.89,2.49-15.49-0.6-23.22-1.34
					c-1.08-0.1-1.46-0.88-1.56-1.97c-0.26-2.93-2.16-4.56-4.76-5.48c-7.83-2.78-15.81-5.15-24.05-6.16c-3.21-0.4-4.16-1.8-4.62-4.47
					c-1.33-7.73-1.75-15.56-2.2-23.38c-0.77-13.38,0.01-27.01-6.11-39.58c-1.84-3.78-3.65-7.57-5.47-11.37
					c-3.63-7.59-9.14-13.53-16.07-18.17c-1.53-1.02-3.68-3.24-5.01-1.55c-0.96,1.22,1.84,2.82,3.23,3.95
					c13.81,11.22,20.97,26.4,23.73,43.33c2.12,12.99,1.96,26.34,2.79,39.53c0.04,0.71,0.52,1.64-0.75,2.28
					c-1.16-1.37-2.35-2.79-3.55-4.2c-5.45-6.44-10.97-12.81-17.49-18.21c-1.45-1.2-3.46-3.8-5.24-1.64
					c-1.38,1.69,1.48,3.04,2.73,4.18c7.76,7.01,14.72,14.72,20.75,23.26c0.56,0.8,1.53,1.51,1.2,2.93c-0.66,0-1.33,0.05-2-0.01
					c-8.32-0.83-16.43,0.07-24.36,2.27c1.22,1.02,2.44,2.03,3.65,3.02c0.95-0.24,1.91-0.45,2.87-0.66
					c7.15-1.53,14.27-1.57,21.89,0.54c-3.02,2.47-5.66,4.59-7.81,7.2c-1.08,1.32-2.11,2.68-3.04,4.06c1.04,0.82,2.09,1.64,3.14,2.44
					c0.27-0.39,0.53-0.78,0.81-1.17c5.96-8.52,13.5-12.58,24.13-9.29c5.27,1.64,10.85,2.3,16.54,4.84
					c-10.44,1.45-17.49,8.75-19.98,19.92c-0.12,0.51-0.22,1.02-0.31,1.53c1.18,0.84,2.36,1.69,3.56,2.52
					c0.84-6.07,3.13-11.54,7.8-16.04c1.93-1.86,3.91-2.6,6.63-2.05c4.92,1,9.99,1.37,14.86,2.57c11.45,2.83,21.97-0.59,32.53-4.23
					c0.66-0.23,1.37-0.39,1.97-0.72c8.31-4.64,16.28-2.2,24.07,1.34c4.32,1.96,6.04,6.37,8.32,10.13c0.62,1.02-0.21,2.49-1.03,3.12
					c-1.32,1-1.86-0.67-2.22-1.39c-3.84-7.52-11.41-8.26-18.32-10.18c-1.21-0.33-2.44-0.02-2.71,1.47
					c-0.23,1.28,0.66,1.91,1.77,2.21c0.78,0.22,1.58,0.44,2.39,0.52c7.57,0.71,12.52,5.08,16.2,11.37c0.64,1.1,0.75,1.85-0.03,2.8
					c-0.87,1.08-1.83,0.81-2.79,0.21c-0.49-0.31-1.02-0.67-1.32-1.14c-3.8-6.06-10.3-6.78-16.37-8.34
					c-1.26-0.32-2.91-0.42-3.24,1.16c-0.37,1.78,1.16,2.26,2.66,2.5c2.9,0.45,5.77,1.05,8.41,2.38c2.12,1.07,3.96,2.51,4.92,4.78
					c0.44,1.04,0.47,2.1-0.52,2.88c-0.84,0.67-1.79,1.2-2.9,0.64c-0.72-0.36-1.48-0.75-2.06-1.3c-4.68-4.4-9.97-4.76-15.61-2.29
					c-8.82,3.84-17.84,3.99-27.14,2.13c-6.96-1.39-13.66,0.97-20.41,2.28c-1.56,0.3-3.12,0.63-4.68,0.96
					c1.52,1.04,3.04,2.07,4.56,3.1c1.83-0.15,3.37,0.29,4.08,2.71c4.31,2.85,8.65,5.66,13.02,8.42h58.95c18.33,0,36.66,0,54.98,0.01
					c13.08,0,26.14,0.01,39.22,0.01c1.47-2.25,3.95-3.83,7.45-3.83h0.03c-0.04-0.06-0.1-0.11-0.15-0.18
					c5.16-1.56,6.85-5.8,8.47-10.13c5.15-13.8,10.36-27.57,15.47-41.4c3.85-10.41,7.64-20.85,11.33-31.33
					c1.91-5.46-1.22-9.67-6.9-9.63c-1.52,0.02-3.04,0.01-4.56-0.03c-28.2-0.6-56.39-1.24-84.59-1.81c-5.48-0.12-8.26,1.45-10.46,5.7
					c-1.68-7.06-4.53-18.46-6.06-24.53c-3.22-12.79-5.94-25.75-12.24-37.56c-2.33-4.36-5.42-7.82-9.95-10.01
					c-5.69-2.74-11.3-5.63-16.92-8.5c-1.11-0.57-2.42-0.97-2.91-2.36c-2.95-8.48-8.6-14.47-17.01-18.03
					c2.64-1.42,5.13-2.9,5.97-5.82c1.63-5.65,4.76-10.65,6.86-16.09c2.12-5.46,4.16-10.99,4.48-16.9c0.3-5.64,1.8-11.03,2.81-16.53
					c1.59-8.72,2.6-17.65-1.48-26.13c-0.76-1.59-0.04-2.22,0.84-3.24c2.89-3.4,4.83-7.23,4.32-11.84c-0.19-1.74-0.7-3.3-3.16-2.04
					c-3.52,1.8-3.72,1.62-4.27-2.24c-0.49-3.39-2.12-4.92-4.83-3.64c-4.52,2.16-8.4,0.84-12.32-1.21
					c-8.73-4.56-17.98-6.2-27.81-5.86c-7.82,0.27-14.38,2.8-19.69,8.52c-0.89,0.96-1.84,1.74-3.04,2.3
					c-9.12,4.29-13.64,11.79-14.66,21.55c-1.48,14.33,1.88,27.69,8.74,40.18c3.56,6.47,4.52,13.09,3.1,20.3
					c-0.58,2.93-1.43,3.98-4.63,3.71c-8.3-0.69-16.6-0.25-24.83,1.24c-3.76,0.68-6.65,2.33-8.68,5.79
					c-3.79,6.45-7.88,12.74-12.66,18.53c-1.8,2.17-3.26,4.79-2.44,7.4c1.36,4.24-0.63,6.16-3.33,7.8c-0.52,0.31-1.06,0.61-1.61,0.92
					c-1.32,0.74-2.52,1.71-3.87,2.42c-7.11,3.78-10.93,9.87-12.81,17.53c-2.24,9.12-3.4,18.36-3.85,27.73
					C82.48,302.77,82.27,314.56,82.71,326.31z M245.58,400.55c-0.56,1.99-1.09,3.49-3.17,0.94c-1.17-1.45-3.14-1.42-4.91-1.39
					c-17.51,0.44-35.02-0.71-52.53-0.54c-0.96,0.01-2.45,0.49-2.6-0.95c-0.16-1.49,1.32-1.7,2.48-1.84c0.81-0.1,1.64-0.07,2.45-0.02
					c15.64,0.98,31.29,0.24,46.93,0.6c4.05,0.1,8.09,1.24,12.08-0.21C246.68,398.77,245.85,399.58,245.58,400.55z M256.65,373.56
					c-0.27-0.16-0.6-0.27-0.77-0.49c-1.35-1.65-2.67-3.33-3.8-5.16C254.61,368.88,256.16,370.73,256.65,373.56z M285.07,320.57
					c1.38-3.72,3.78-4.76,7.55-4.72c14.38,0.16,28.77,0.07,43.17,0.07l44.56,1.56c3.4,0.01,4.64,2.14,3.3,5.88
					c-2.68,7.48-5.49,14.91-8.25,22.37c-6.01,16.22-12.02,32.45-18.01,48.68c-2.68,7.27-3.47,7.5-11.14,7.55
					c-12.05,0.08-24.09,0.6-36.13,0.94c-3.16,0.09-6.31,0.18-9.47,0.28c-15.2,0.44-30.4,0.88-45.6,1.29
					c-3.96,0.11-4.58-0.71-3.11-4.25c4.98-11.98,9.96-23.95,14.96-35.92c3.73-8.95,7.48-17.9,11.21-26.85
					C280.45,331.81,282.95,326.26,285.07,320.57z M226.06,125.7c-3.32,3.32-7.72,3.46-12.09,3.96c-0.48-0.03-1.08,0.01-1.64-0.11
					c-0.97-0.2-1.86-0.66-1.8-1.78c0.06-1.17,1.01-1.44,2.02-1.4c4.28,0.14,8.34-0.55,11.88-3.18c0.71-0.52,1.52-0.67,2.18,0.12
					C227.46,124.31,226.67,125.08,226.06,125.7z M160.75,214.52c4.25-9.22,5.81-18.94,5.21-29.03c-0.12-2.12,0.32-3.08,2.62-2.4
					c0.65,0.19,1.4,0.09,2.09,0.07c1.8-0.05,3.44-0.45,3.14-2.75c-0.28-2.14-1.88-1.63-3.25-1.26c-2.2,0.59-4.04-0.27-5.41-1.74
					c-4.41-4.74-7.48-10.15-7.43-16.87c0.02-2.77,1.06-5.03,3.72-6.23c2.79-1.25,5.05-0.03,7,1.8c2.28,2.12,3.61,4.8,4.19,7.91
					c0.66,3.51,5.24,6.07,8.64,5.06c1.32-0.4,1.45-1.44,1.48-2.48c0.15-5.64,2.36-10.04,7.04-13.4c3.21-2.31,4.22-5.78,3.18-9.71
					c-0.81-3.05-1.81-6.07-2.34-9.16c-0.58-3.4,0.72-4.59,4.13-3.94c7.93,1.49,15.83,3.12,23.74,4.68c2.77,0.55,5.68,1.08,8.36,0.36
					c3.4-0.92,4.1,0.74,5.16,3.35c2.33,5.7,1.26,11.55,1.42,17.34c0.05,1.65-1.06,1.79-2.33,1.87c-1.74,0.12-3.53,0.24-5.03,1.27
					c-0.77,0.53-1.59,1.18-1.13,2.28c0.38,0.91,1.25,0.94,2.11,0.81c0.81-0.12,1.61-0.35,2.42-0.4c1-0.05,2.68-0.96,2.39,1.16
					c-0.17,1.17,0.22,3.46-2.45,2.68c-2.52-0.73-4.45,1.08-6.62,1.78c-1.29,0.41-1.17,1.88-1.1,3.07c0.19,3.18,1.12,6.2,2.06,9.21
					c1.06,3.35,0.5,4.25-2.81,4.76c-1.03,0.17-2.84-0.48-2.68,1.3c0.15,1.54,1.93,0.96,2.95,0.98c4.27,0.1,6.14-2.4,5.08-6.61
					c-0.89-3.55-2.73-6.89-2.43-11.82c1.79,2.39,2.84,3.8,5.15,3.52c2.05-0.25,1.09,1.6,1.04,2.46c-0.53,9.15-3.39,17.63-7.71,25.65
					c-1.28,2.38-2.37,4.83-3.25,7.37c-1.54,4.46-3.29,5.59-8.02,5.58c-5.53-0.01-10.61-1.75-15.49-4.05
					c-5.39-2.54-10.67-5.36-15.05-9.55c-0.62-0.59-1.27-1.69-2.32-1.08c-1.37,0.78-0.75,2.11-0.32,3.14
					c3.08,7.53,8.6,12.99,15.1,17.58c1.52,1.08,3.13,2.28,4.87,2.72c4.32,1.08,5.15,3.75,4.8,7.77c-0.28,3.23,0.4,6.53,0.39,9.8
					c-0.01,4.13-1.99,5.32-5.47,3.2c-9.79-5.98-19.02-12.78-28.44-19.33c-2.5-1.73-4.95-3.53-7.49-5.19
					C160.22,217.07,160.03,216.08,160.75,214.52z"/>
				<path d="M185.87,255.4c4.71,12.96,6.92,26.41,7.64,40.13c0,1.64-0.05,3.28,0.01,4.91c0.05,1.53,0.89,2.43,2.45,2.33
					c1.72-0.11,2.63-1.19,2.24-2.84c-0.44-1.84-0.61-3.68-0.68-5.55c-0.56-15.09-3.99-29.61-8.73-43.88
					c-0.61-1.83-1.75-2.55-3.44-1.92c-1.78,0.66-1.99,2.11-1.12,3.73C184.8,253.33,185.48,254.32,185.87,255.4z"/>
				<path d="M318.39,364.36c0.12,2.93,2.59,5.21,5.56,5.13c3.83-0.1,8.3-4.81,8.23-8.66c-0.06-3.14-2.6-5.64-5.59-5.52
					C322.43,355.48,318.21,360.14,318.39,364.36z M321.96,363.72c0.43-2.41,1.98-3.93,4.39-4.29c1.4-0.21,2.08,0.74,2.11,2.32
					c-0.66,2.13-2.13,3.67-4.5,4.08C322.55,366.08,321.71,365.13,321.96,363.72z"/>
				<path d="M199.43,159.52c4.36-0.9,8.54-0.35,12.66,1.26c1.03,0.4,2.17,0.08,2.45-1.25c0.26-1.24-0.49-1.97-1.59-2.35
					c-2.54-0.87-5.12-1.56-8.17-1.58c-1.88,0.08-4.08,0.25-6.08,1.37c-0.65,0.37-1.15,0.87-0.93,1.67
					C197.99,159.46,198.74,159.66,199.43,159.52z"/>
				<path d="M203.53,189.29c-1.07,1.21-0.05,2.4,0.99,3.25c3.29,2.71,7.15,3.84,11.52,3.99c1.41-0.31,4.03,0.56,4.03-1.84
					c0-2.31-2.49-1.46-3.98-1.46c-3.6-0.01-6.97-0.6-9.81-3C205.47,189.53,204.72,187.93,203.53,189.29z"/>
				<path d="M204.79,169.18c0.65,1.3,2.33,1.33,3.42,0.58c1.26-0.87,3.37-1.27,3.48-2.97c0.08-1.4-1.57-2.21-2.89-2.7
					c-3.33-1.24-5.94,0.52-8.63,2.3C202,167.1,203.79,167.17,204.79,169.18z"/>
				<path d="M168.93,165.29c-0.07-0.52-0.01-1.38-0.32-2.1c-0.47-1.1-1.54-1.32-2.66-1.21c-0.78,0.07-1.7,0.74-1.45,1.19
					c1.52,2.76,0.41,6.38,2.94,8.76c0.73,0.68,1.57,1.19,2.48,0.49c0.79-0.6,0.58-1.49,0.13-2.22
					C169.15,168.78,168.47,167.32,168.93,165.29z"/>
			</g>
		</g>
	</g>
	<g>
		<path class="st3" d="M539.38,190.69c-3.76-2.83-7.51-5.67-11.51-8.71c0,6.37,0,12.35,0,18.74c3.99-3.04,7.69-5.86,11.39-8.67
			C539.81,191.63,540.13,191.25,539.38,190.69z"/>
		<path class="st3" d="M540.72,192.57c-3.71,2.86-7.44,5.7-11.58,8.86c8.18,0,15.76,0,23.34,0c0.08-0.15,0.16-0.3,0.24-0.45
			c-3.61-2.79-7.21-5.58-10.82-8.36C541.54,192.33,541.18,192.22,540.72,192.57z"/>
		<path class="st3" d="M560.09,227.19c-6.37,0.09-12.74,0.04-19.11,0.04c-6.22,0-12.45,0.06-18.67-0.04
			c-1.71-0.03-2.29,0.52-2.06,2.14c0.06,0.43-0.01,0.89-0.01,1.33c-0.01,3.93,1.76,5.78,5.62,5.79c10.37,0.03,20.74,0.04,31.11,0.03
			c3.1,0,5.13-2.06,5.18-5.14c0.01-0.67-0.09-1.34,0-2C562.38,227.71,561.78,227.17,560.09,227.19z M541.25,234.01
			c-1.23-0.1-1.91-0.79-1.92-1.98c-0.02-1.2,0.7-1.96,1.87-2.02c1.26-0.07,1.87,0.75,1.88,1.94
			C543.1,233.13,542.46,233.85,541.25,234.01z"/>
		<path class="st3" d="M542.25,189.67c3.4-2.62,6.83-5.2,10.25-7.8c0.26-0.2,0.36-0.44,0.19-0.74c-7.67,0-15.34,0-23,0
			c-0.05,0.16-0.1,0.31-0.15,0.47c3.6,2.69,7.23,5.36,10.8,8.1C541.08,190.28,541.57,190.19,542.25,189.67z"/>
		<path d="M474.17,157.84c0.1-1.76-0.49-2.24-2.24-2.23c-10.08,0.08-20.17,0.04-30.26,0.04c0,0,0,0.01,0,0.01
			c-10.16,0-20.32,0.03-30.48-0.03c-1.51-0.01-2.1,0.38-2.04,1.98c0.11,2.66,0.13,5.34-0.03,8c-0.11,1.81,0.55,2.22,2.26,2.21
			c12.68-0.06,25.36-0.03,38.04-0.04c7.49,0,14.98-0.04,22.47,0.02c1.66,0.01,2.39-0.35,2.28-2.19
			C474.01,163.03,474.03,160.43,474.17,157.84z M415.93,164.1c-0.92-0.11-1.72-0.61-1.64-1.76c0.08-1.19,0.99-1.51,2.04-1.46
			c1.02,0.05,1.75,0.67,1.71,1.62C417.99,163.54,417.21,164.14,415.93,164.1z M435.48,163.15c-4.57,0.01-9.14,0.02-13.71,0
			c-0.48,0-1.17,0.09-1.09-0.69c0.05-0.56,0.63-0.53,1.06-0.53c2.36-0.01,4.72,0,7.07,0c0,0,0-0.01,0-0.01
			c2.21,0,4.42-0.01,6.63,0.01c0.48,0,1.16-0.07,1.1,0.69C436.49,163.17,435.91,163.15,435.48,163.15z"/>
		<path class="st3" d="M543.2,191.9c3.71,2.86,7.42,5.73,11.38,8.79c0-6.4,0-12.39,0-18.86c-4.04,3.14-7.74,6.03-11.46,8.89
			C542.46,191.23,542.72,191.53,543.2,191.9z"/>
		<path d="M556.99,163c-10.3,0.01-20.6,0.05-30.9,0.07c-4.52,0.01-5.88,1.52-5.92,6.04c-0.02,1.86,0.58,2.42,2.38,2.39
			c6.22-0.08,12.45-0.03,18.67-0.03c0,0,0,0.01,0,0.01c6.3,0,12.6,0.01,18.89-0.02c0.67,0,1.52,0.35,1.96-0.56
			C563.82,167.32,561.05,163,556.99,163z M547.65,168.07c-2.21-0.01-4.42,0-6.64,0c0,0,0,0.01,0,0.01c-2.06,0-4.13,0-6.19,0
			c-0.75,0-1.42-0.22-1.36-1.06c0.05-0.7,0.72-0.83,1.35-0.83c4.28-0.01,8.55-0.03,12.83-0.04c0.72,0,1.41,0.18,1.34,1.06
			C548.92,167.93,548.29,168.07,547.65,168.07z"/>
		<path class="st14" d="M562.18,199.52c0,0-0.01,0-0.01,0c0-8.23-0.03-16.46,0.03-24.68c0.01-1.43-0.37-1.91-1.85-1.91
			c-12.75,0.05-25.5,0.04-38.25-0.01c-1.49-0.01-1.87,0.51-1.86,1.93c0.03,16.38,0.02,32.76-0.04,49.15c0,1.42,0.34,1.92,1.85,1.91
			c12.68-0.08,25.35-0.12,38.03-0.06c1.83,0.01,2.17-0.62,2.15-2.3C562.13,215.53,562.18,207.53,562.18,199.52z M526.4,207.91
			c0.07-0.65,0.74-0.58,1.26-0.58c2.14,0,4.28,0,6.42,0c0-0.01,0-0.01,0-0.01c2.14,0,4.28-0.01,6.42,0c0.51,0,1.15-0.04,1.11,0.71
			c-0.03,0.58-0.6,0.56-1.03,0.56c-4.36,0.01-8.71,0.01-13.07,0.01C527.02,208.59,526.32,208.63,526.4,207.91z M528.13,213.11
			c4.44-0.03,8.88-0.01,13.32-0.01c0,0,0,0.01,0,0.01c4.29,0,8.58-0.02,12.88,0.02c0.65,0,1.76-0.35,1.7,0.76
			c-0.05,0.87-1.08,0.55-1.67,0.55c-8.73,0-17.47-0.01-26.2-0.07c-0.62,0-1.76,0.44-1.71-0.71
			C526.48,212.8,527.52,213.11,528.13,213.11z M554.34,220.46c-4.37,0.05-8.75,0.02-13.12,0.02c0-0.02,0-0.04,0-0.05
			c-4.37,0-8.75,0.01-13.12-0.01c-0.61,0-1.64,0.22-1.63-0.64c0.01-0.93,1.05-0.56,1.63-0.56c8.75-0.04,17.49-0.06,26.24-0.05
			c0.6,0,1.63-0.32,1.69,0.54C556.1,220.87,554.96,220.46,554.34,220.46z M556.06,200.99c0.01,1.51-0.55,1.84-1.96,1.81
			c-4.29-0.09-8.59-0.03-12.88-0.03c0,0.01,0,0.02,0,0.03c-4.37,0-8.74-0.04-13.1,0.02c-1.24,0.02-1.67-0.35-1.66-1.63
			c0.05-6.59,0.05-13.18-0.01-19.76c-0.01-1.4,0.52-1.75,1.83-1.74c8.66,0.04,17.32,0.03,25.98-0.01c1.33-0.01,1.85,0.41,1.84,1.77
			C556.05,187.97,556.02,194.48,556.06,200.99z"/>
		<path class="st3" d="M315.14,185.46c3.76-2.92,7.55-5.8,11.8-9.05c-8.56,0-16.47,0-24.95,0c4.15,3.2,7.87,6.06,11.59,8.93
			C314.08,185.72,314.51,185.94,315.14,185.46z"/>
		<path class="st3" d="M313.38,186.94c-4.18-3.27-8.18-6.4-12.57-9.84c-0.32,6.77-0.26,12.96-0.11,19.63
			C305.1,193.33,309.12,190.23,313.38,186.94z"/>
		<path class="st3" d="M313.4,188.7c-2.73,2.03-5.47,4.06-8.15,6.15c-0.93,0.73-2.04,1.33-2.77,2.48c8.12,0,16,0,24.47,0
			c-4.24-3.22-8.05-6.09-11.82-8.99C314.34,187.74,313.9,188.33,313.4,188.7z"/>
		<path class="st14" d="M354.15,202.76c-0.02,0-0.05,0-0.07,0c0-10.38-0.02-20.77,0.03-31.15c0.01-1.4-0.14-2.1-1.86-2.09
			c-19.36,0.07-38.72,0.07-58.07,0.01c-1.88-0.01-2.52,0.39-2.52,2.43c0.07,20.77,0.05,41.53-0.03,62.3
			c-0.01,1.8,0.65,2.02,2.19,2.02c19.36-0.04,38.72-0.05,58.07,0.02c1.9,0.01,2.32-0.6,2.31-2.4
			C354.1,223.53,354.15,213.15,354.15,202.76z M335.73,181.16c3.25-0.02,6.5-0.02,9.75-0.01c0.4,0,0.78,0.2,0.78,0.62
			c0.01,0.62-0.54,0.62-0.96,0.62c-1.55,0.02-3.1,0.01-4.65,0.01c0,0.01,0,0.02,0,0.03c-1.62,0-3.25,0.02-4.87-0.01
			c-0.33-0.01-0.81,0.01-0.87-0.48C334.82,181.35,335.29,181.16,335.73,181.16z M335.79,186.45c3.16,0,6.32,0.01,9.48,0.05
			c0.43,0,0.96,0.1,0.96,0.67c0,0.6-0.56,0.61-0.98,0.61c-1.62,0.02-3.23,0.01-4.85,0.01c0,0.02,0,0.05,0,0.07
			c-1.54,0-3.09,0.01-4.63-0.01c-0.45-0.01-0.94-0.14-0.92-0.71C334.86,186.6,335.34,186.45,335.79,186.45z M299.19,177.02
			c-0.02-1.61,0.4-2.22,2.1-2.21c8.88,0.06,17.76,0.03,26.65-0.03c1.44-0.01,1.92,0.48,1.9,1.93c-0.07,6.73-0.08,13.47-0.02,20.21
			c0.01,1.54-0.45,2.05-2.02,2.01c-4.44-0.1-8.88-0.03-13.32-0.03c0-0.02,0-0.04,0-0.06c-4.44,0-8.88-0.05-13.32,0.03
			c-1.43,0.03-1.92-0.36-1.9-1.86C299.3,190.34,299.28,183.68,299.19,177.02z M301.1,220.21c-0.59,0-1.62,0.34-1.67-0.52
			c-0.04-0.89,0.99-0.62,1.57-0.62c14.52-0.05,29.03-0.07,43.55-0.08c0.59,0,1.61-0.28,1.54,0.69c-0.07,0.89-1.07,0.53-1.67,0.54
			c-7.18,0.03-14.37,0.02-21.55,0.02c0,0,0-0.01,0-0.01C315.62,220.23,308.36,220.24,301.1,220.21z M345.61,213.23
			c-0.58,0.1-1.18,0.1-1.77,0.1c-7.12,0.01-14.24,0-21.36,0c0,0.02,0,0.04,0,0.06c-6.9,0-13.79,0-20.69,0
			c-0.59,0-1.19-0.01-1.78-0.05c-0.4-0.03-0.69-0.28-0.66-0.71c0.02-0.33,0.32-0.48,0.64-0.5c0.52-0.03,1.04-0.06,1.55-0.06
			c14.24-0.01,28.48-0.02,42.72-0.02c0.44,0,0.89,0.01,1.33,0.05c0.32,0.02,0.62,0.21,0.55,0.54
			C346.09,212.87,345.82,213.19,345.61,213.23z M345.38,227.22c-0.52,0.02-1.04,0.03-1.55,0.03c-7.11,0-14.21,0-21.32,0
			c0,0,0-0.01,0-0.01c-6.96,0-13.92,0-20.87,0c-0.59,0-1.19,0.01-1.77-0.1c-0.23-0.04-0.4-0.37-0.6-0.57
			c0.2-0.19,0.38-0.51,0.61-0.56c0.5-0.1,1.03-0.08,1.55-0.08c14.21-0.01,28.42-0.01,42.64-0.02c0.44,0,0.89,0,1.33,0.03
			c0.4,0.03,0.77,0.21,0.76,0.63C346.14,226.99,345.79,227.2,345.38,227.22z M345.53,206.34c-0.52,0.04-1.04,0.04-1.55,0.04
			c-7.11,0-14.23,0-21.34,0c0,0.01,0,0.01,0,0.02c-6.97,0-13.93,0-20.9,0c-0.52,0-1.04-0.01-1.56-0.03
			c-0.38-0.02-0.81-0.1-0.83-0.55c-0.02-0.54,0.41-0.72,0.89-0.74c0.52-0.02,1.04-0.03,1.56-0.03c14.16-0.01,28.31-0.01,42.47-0.02
			c0.44,0,0.89,0.02,1.33,0.05c0.32,0.03,0.56,0.21,0.59,0.54C346.23,206.08,345.95,206.31,345.53,206.34z M346.28,192.47
			c-0.08,0.57-0.6,0.56-1.04,0.56c-1.62,0.01-3.24,0-4.86,0c0-0.01,0-0.02,0-0.03c-1.55,0-3.09,0.01-4.64-0.01
			c-0.36,0-0.8-0.05-0.86-0.51c-0.07-0.58,0.39-0.74,0.84-0.75c3.24-0.03,6.48-0.04,9.72-0.04
			C345.92,191.71,346.37,191.89,346.28,192.47z"/>
		<path class="st14" d="M474.12,202.79c0,0-0.01,0-0.01,0c0-10.38-0.03-20.76,0.03-31.15c0.01-1.66-0.33-2.29-2.17-2.29
			c-20.1,0.06-40.19,0.05-60.29-0.03c-1.87-0.01-2.54,0.37-2.53,2.41c0.1,20.84,0.1,41.68,0.07,62.51c0,1.63,0.56,1.94,2.04,1.94
			c20.32-0.04,40.64-0.05,60.96,0.01c1.62,0,1.94-0.54,1.94-2.04C474.1,223.7,474.12,213.24,474.12,202.79z M465.84,204.43
			c-0.04,0.86-1.07,0.55-1.68,0.55c-7.63,0.02-15.26,0.01-22.88,0.01c0,0.01,0,0.01,0,0.02c-7.48,0-14.96,0.01-22.44-0.02
			c-0.61,0-1.75,0.47-1.7-0.7c0.04-0.86,1.07-0.56,1.68-0.56c15.11-0.02,30.21-0.03,45.32-0.01
			C464.76,203.72,465.9,203.27,465.84,204.43z M416.91,177.24c-0.01-1.19,0.31-1.74,1.61-1.74c8.44,0.02,16.88,0,25.31-0.06
			c1.31-0.01,1.43,0.65,1.43,1.65c0,6.22,0.01,12.43,0.06,18.65c0.01,1.15-0.4,1.52-1.57,1.5c-4.14-0.07-8.29-0.03-12.43-0.03
			c0,0.02,0,0.04,0,0.06c-4,0-7.99-0.07-11.99,0.03c-1.74,0.04-2.49-0.37-2.46-2.31C417,189.08,416.95,183.16,416.91,177.24z
			 M455.53,226.97c-6.15,0.03-12.29,0.02-18.44,0.02c0,0.01,0,0.02,0,0.03c-6.07,0-12.15,0.01-18.22-0.01
			c-0.67,0-1.81,0.3-1.79-0.71c0.02-0.99,1.15-0.66,1.83-0.66c12.22-0.03,24.44-0.04,36.66-0.03c0.67,0,1.8-0.31,1.77,0.73
			C457.31,227.36,456.18,226.97,455.53,226.97z M464.2,219.64c-15.13,0.02-30.25,0.03-45.38,0.01c-0.63,0-1.8,0.42-1.72-0.71
			c0.07-0.98,1.2-0.58,1.86-0.58c7.56-0.03,15.13-0.02,22.69-0.02c0,0,0,0.01,0,0.01c7.49,0,14.98-0.01,22.47,0.02
			c0.64,0,1.76-0.4,1.74,0.69C465.85,219.91,464.82,219.64,464.2,219.64z M464.74,212.24c-3.48,0.04-6.96,0.05-10.44,0.05
			c-4.29,0.01-8.59,0-12.88,0c0-0.01,0-0.01,0-0.02c-7.4,0-14.8,0-22.2,0c-0.37,0-0.74,0.03-1.11,0.01c-0.43-0.02-1,0.04-1.03-0.56
			c-0.04-0.75,0.63-0.67,1.11-0.72c0.44-0.04,0.89-0.04,1.33-0.04c14.8,0.01,29.6,0.01,44.41,0.02c0.3,0,0.59,0,0.89,0.02
			c0.45,0.03,1.03,0.05,1.06,0.57C465.93,212.35,465.21,212.24,464.74,212.24z"/>
		<path class="st3" d="M430.48,187.55c-3.52,2.65-7.06,5.27-11.02,8.21c7.92,0,15.24,0,23.08,0c-3.86-2.9-7.29-5.46-10.7-8.04
			C431.4,187.4,431.05,187.12,430.48,187.55z"/>
		<path class="st3" d="M429.09,185.69c-3.52-2.64-7.01-5.3-10.85-8.2c0,5.99,0,11.51,0,17.55c3.78-2.81,7.27-5.4,10.75-7.99
			C429.54,186.64,429.84,186.25,429.09,185.69z"/>
		<path class="st3" d="M431.67,184.97c3.51-2.63,7.04-5.23,11.05-8.2c-7.95,0-15.24,0-22.53,0c-0.09,0.13-0.19,0.26-0.28,0.4
			c3.47,2.6,6.94,5.19,10.39,7.81C430.8,185.34,431.17,185.35,431.67,184.97z"/>
		<path class="st3" d="M433.26,187.12c3.42,2.55,6.79,5.19,10.45,8.01c0-5.95,0-11.52,0-17.58c-3.69,2.84-7.02,5.41-10.37,7.96
			C432.62,186.06,432.32,186.42,433.26,187.12z"/>
		<path class="st3" d="M317.34,188.39c3.28,2.39,6.45,4.94,9.68,7.42c0.37,0.29,0.69,0.85,1.34,0.48c0-6.25,0-12.51,0-19.29
			c-3.9,3.03-7.32,5.84-10.91,8.42C315.86,186.55,315.69,187.19,317.34,188.39z"/>
		<path d="M294.45,167.93c9.41,0.01,18.83,0,28.24,0.01c9.79,0,19.57-0.04,29.36,0.03c1.69,0.01,2.18-0.51,2.09-2.16
			c-0.14-2.66-0.17-5.34-0.02-8c0.1-1.73-0.53-2.13-2.13-2.11c-6.82,0.07-13.64,0.04-20.46,0.03c-12.53-0.01-25.06,0.01-37.59-0.08
			c-1.73-0.01-2.38,0.45-2.3,2.22c0.11,2.37-0.01,4.74-0.02,7.11C291.63,167.9,291.64,167.93,294.45,167.93z M310.8,160.37
			c1.15-0.03,1.77,0.55,1.87,1.56c0.11,1.12-0.47,1.93-1.61,1.96c-1.11,0.04-1.8-0.68-1.83-1.8
			C309.2,161.04,309.85,160.5,310.8,160.37z M304.71,160.23c1.08,0.05,1.64,0.86,1.77,1.95c-0.18,1.09-0.88,1.73-1.95,1.68
			c-1.09-0.05-1.77-0.84-1.73-1.91C302.83,160.84,303.66,160.18,304.71,160.23z M298.41,160.19c1.13,0.05,1.95,0.8,1.96,1.99
			c0.01,1.24-0.89,1.75-1.92,1.94c-1.26-0.18-2.03-0.81-2.01-2.02C296.45,160.9,297.23,160.14,298.41,160.19z"/>
		<path d="M475.82,195.92c0-13.2-0.03-26.39,0.04-39.59c0.01-1.83-0.48-2.36-2.35-2.36c-21.13,0.06-42.26,0.06-63.39-0.01
			c-2-0.01-2.62,0.49-2.61,2.58c0.08,26.24,0.09,52.49,0.02,78.73c-0.01,2.09,0.64,2.57,2.62,2.57c21.13-0.06,42.26-0.06,63.39,0.01
			c1.86,0.01,2.33-0.5,2.32-2.33C475.79,222.32,475.82,209.12,475.82,195.92z M472.22,236.19c-20.32-0.05-40.64-0.05-60.96-0.01
			c-1.48,0-2.04-0.31-2.04-1.94c0.04-20.84,0.03-41.68-0.07-62.51c-0.01-2.04,0.66-2.42,2.53-2.41c20.1,0.07,40.19,0.08,60.29,0.03
			c1.83-0.01,2.18,0.62,2.17,2.29c-0.07,10.38-0.03,20.76-0.03,31.15c0,0,0.01,0,0.01,0c0,10.46-0.03,20.91,0.03,31.37
			C474.16,235.65,473.84,236.2,472.22,236.19z M471.9,167.81c-7.49-0.07-14.98-0.02-22.47-0.02c-12.68,0-25.36-0.03-38.04,0.04
			c-1.71,0.01-2.36-0.4-2.26-2.21c0.16-2.66,0.14-5.34,0.03-8c-0.07-1.6,0.52-1.99,2.04-1.98c10.16,0.06,20.32,0.03,30.48,0.03
			c0,0,0-0.01,0-0.01c10.09,0,20.17,0.04,30.26-0.04c1.75-0.01,2.34,0.47,2.24,2.23c-0.14,2.59-0.16,5.2,0.01,7.78
			C474.29,167.46,473.56,167.83,471.9,167.81z"/>
		<path d="M556.78,161.08c-10.3-0.04-20.6-0.04-30.9,0.02c-5.1,0.03-7.48,2.44-7.49,7.52c-0.02,20.75-0.02,41.5-0.01,62.25
			c0,4.69,2.73,7.51,7.44,7.53c10.23,0.06,20.45,0.06,30.68,0.01c4.99-0.02,7.5-2.63,7.5-7.58c0-10.37,0-20.75,0-31.12
			c0-10.45,0.01-20.9,0-31.35C563.99,163.53,561.62,161.09,556.78,161.08z M562.15,229.34c-0.09,0.65,0.01,1.33,0,2
			c-0.05,3.09-2.08,5.14-5.18,5.14c-10.37,0.01-20.74-0.01-31.11-0.03c-3.86-0.01-5.63-1.86-5.62-5.79c0-0.44,0.07-0.9,0.01-1.33
			c-0.23-1.62,0.35-2.17,2.06-2.14c6.22,0.1,12.44,0.04,18.67,0.04c6.37,0,12.74,0.05,19.11-0.04
			C561.78,227.17,562.38,227.71,562.15,229.34z M560.06,225.83c-12.68-0.05-25.35-0.02-38.03,0.06c-1.5,0.01-1.85-0.49-1.85-1.91
			c0.05-16.38,0.06-32.76,0.04-49.15c0-1.41,0.37-1.93,1.86-1.93c12.75,0.06,25.5,0.06,38.25,0.01c1.48-0.01,1.87,0.48,1.85,1.91
			c-0.06,8.23-0.03,16.46-0.03,24.68c0,0,0.01,0,0.01,0c0,8.01-0.05,16.01,0.04,24.02C562.23,225.22,561.89,225.84,560.06,225.83z
			 M562.08,170.91c-0.44,0.91-1.29,0.56-1.96,0.56c-6.3,0.03-12.6,0.02-18.89,0.02c0,0,0-0.01,0-0.01c-6.22,0-12.45-0.05-18.67,0.03
			c-1.8,0.02-2.39-0.53-2.38-2.39c0.04-4.52,1.41-6.03,5.92-6.04c10.3-0.03,20.6-0.06,30.9-0.07
			C561.05,163,563.82,167.32,562.08,170.91z"/>
		<path d="M353.75,154.1c-20.46,0.09-40.91,0.1-61.37,0.06c-1.81,0-2.38,0.44-2.38,2.32c0.07,26.39,0.09,52.77,0.04,79.16
			c0,1.86,0.52,2.34,2.36,2.33c20.38-0.07,40.77-0.08,61.15-0.01c1.84,0.01,2.17-0.59,2.16-2.25c-0.06-13.12-0.03-26.24-0.03-39.36
			c0.01,0,0.03,0,0.04,0c0-13.34-0.02-26.68,0.02-40.02C355.75,154.84,355.59,154.09,353.75,154.1z M291.65,157.88
			c-0.08-1.77,0.57-2.23,2.3-2.22c12.53,0.08,25.06,0.07,37.59,0.08c6.82,0,13.64,0.04,20.46-0.03c1.6-0.02,2.23,0.38,2.13,2.11
			c-0.15,2.66-0.12,5.34,0.02,8c0.09,1.65-0.41,2.17-2.09,2.16c-9.79-0.07-19.57-0.03-29.36-0.03c-9.41,0-18.83,0.01-28.24-0.01
			c-2.81,0-2.82-0.03-2.82-2.94C291.64,162.62,291.76,160.24,291.65,157.88z M351.88,236.31c-19.36-0.07-38.72-0.06-58.07-0.02
			c-1.53,0-2.19-0.22-2.19-2.02c0.08-20.77,0.1-41.53,0.03-62.3c-0.01-2.04,0.64-2.44,2.52-2.43c19.36,0.06,38.72,0.06,58.07-0.01
			c1.72-0.01,1.87,0.69,1.86,2.09c-0.05,10.38-0.03,20.77-0.03,31.15c0.02,0,0.05,0,0.07,0c0,10.38-0.04,20.77,0.04,31.15
			C354.2,235.71,353.78,236.32,351.88,236.31z"/>
		<path d="M399.69,196.01c-2.1-1.76-4.19-3.52-6.31-5.26c-0.52-0.43-1.19-0.88-1.74-0.17c-0.55,0.71,0.09,1.21,0.6,1.64
			c1.36,1.12,2.72,2.23,4.08,3.34c-0.07,0.18-0.14,0.36-0.21,0.54c-0.94,0-1.89,0-2.83,0c-9.18-0.01-18.36-0.01-27.54-0.01
			c-0.59,0-1.18,0.01-1.77,0.07c-0.4,0.04-0.69,0.28-0.71,0.71c-0.02,0.43,0.28,0.74,0.63,0.8c0.65,0.11,1.32,0.13,1.98,0.13
			c8.51,0,17.03,0,25.54,0c1.57,0,3.15,0,4.72,0c-1.31,1.72-2.7,2.92-4.07,4.14c-0.44,0.39-0.98,0.82-0.4,1.47
			c0.44,0.5,0.95,0.31,1.38-0.04c2.24-1.82,4.48-3.64,6.7-5.49C400.48,197.27,400.4,196.6,399.69,196.01z"/>
		<path d="M510.8,195.57c-2.02-1.63-3.97-3.34-5.96-5c-0.55-0.45-1.22-1.14-1.87-0.24c-0.51,0.71,0.16,1.23,0.65,1.67
			c1.24,1.13,2.79,1.92,4.12,3.68c-8.34,0-16.26,0-24.18,0c-0.74,0-1.48,0.02-2.22,0.07c-0.48,0.03-0.89,0.29-0.93,0.78
			c-0.04,0.65,0.45,0.87,1.02,0.91c0.59,0.04,1.18,0.04,1.78,0.04c7.49,0,14.97-0.01,22.46,0.02c0.61,0,1.32-0.3,1.98,0.44
			c-1.36,1.17-2.69,2.31-4.02,3.47c-0.51,0.45-1.12,0.99-0.58,1.68c0.55,0.69,1.19,0.25,1.72-0.21c2.03-1.74,4.04-3.49,6.09-5.19
			C511.81,196.9,511.72,196.31,510.8,195.57z"/>
		<path d="M419.34,197.31c3.99-0.1,7.99-0.03,11.99-0.03c0-0.02,0-0.04,0-0.06c4.14,0,8.29-0.04,12.43,0.03
			c1.18,0.02,1.58-0.35,1.57-1.5c-0.05-6.22-0.05-12.43-0.06-18.65c0-1-0.12-1.66-1.43-1.65c-8.44,0.07-16.87,0.08-25.31,0.06
			c-1.3,0-1.62,0.55-1.61,1.74c0.04,5.92,0.09,11.84-0.03,17.76C416.85,196.94,417.6,197.35,419.34,197.31z M419.46,195.77
			c3.96-2.94,7.5-5.56,11.02-8.21c0.57-0.43,0.93-0.15,1.36,0.17c3.42,2.57,6.84,5.14,10.7,8.04
			C434.69,195.77,427.38,195.77,419.46,195.77z M443.71,195.13c-3.67-2.82-7.03-5.45-10.45-8.01c-0.94-0.7-0.64-1.06,0.08-1.61
			c3.35-2.55,6.68-5.12,10.37-7.96C443.71,183.6,443.71,189.17,443.71,195.13z M420.2,176.76c7.29,0,14.58,0,22.53,0
			c-4.02,2.97-7.55,5.58-11.05,8.2c-0.5,0.38-0.87,0.37-1.36,0c-3.46-2.61-6.93-5.21-10.39-7.81
			C420.01,177.03,420.11,176.9,420.2,176.76z M418.24,177.49c3.84,2.91,7.34,5.57,10.85,8.2c0.75,0.56,0.45,0.95-0.1,1.36
			c-3.48,2.59-6.97,5.18-10.75,7.99C418.24,189,418.24,183.48,418.24,177.49z"/>
		<path d="M464.12,218.37c-7.49-0.03-14.98-0.02-22.47-0.02c0,0,0-0.01,0-0.01c-7.56,0-15.13-0.01-22.69,0.02
			c-0.66,0-1.8-0.4-1.86,0.58c-0.08,1.12,1.09,0.71,1.72,0.71c15.13,0.02,30.25,0.01,45.38-0.01c0.62,0,1.65,0.27,1.66-0.58
			C465.88,217.97,464.76,218.37,464.12,218.37z"/>
		<path d="M418.82,203.73c-0.61,0-1.64-0.29-1.68,0.56c-0.05,1.16,1.08,0.7,1.7,0.7c7.48,0.04,14.96,0.02,22.44,0.02
			c0-0.01,0-0.01,0-0.02c7.63,0,15.26,0.01,22.88-0.01c0.61,0,1.64,0.31,1.68-0.55c0.06-1.16-1.08-0.71-1.7-0.71
			C449.04,203.7,433.93,203.71,418.82,203.73z"/>
		<path d="M464.82,211.01c-0.3-0.02-0.59-0.02-0.89-0.02c-14.8-0.01-29.6-0.01-44.41-0.02c-0.44,0-0.89-0.01-1.33,0.04
			c-0.48,0.05-1.15-0.03-1.11,0.72c0.03,0.59,0.6,0.53,1.03,0.56c0.37,0.02,0.74-0.01,1.11-0.01c7.4,0,14.8,0,22.2,0
			c0,0.01,0,0.01,0,0.02c4.29,0,8.59,0.01,12.88,0c3.48-0.01,6.96-0.02,10.44-0.05c0.47,0,1.19,0.11,1.14-0.66
			C465.85,211.07,465.27,211.04,464.82,211.01z"/>
		<path d="M455.57,225.6c-12.22-0.01-24.44,0-36.66,0.03c-0.67,0-1.81-0.32-1.83,0.66c-0.02,1.01,1.12,0.71,1.79,0.71
			c6.07,0.03,12.14,0.01,18.22,0.01c0-0.01,0-0.02,0-0.03c6.15,0,12.29,0.01,18.44-0.02c0.65,0,1.78,0.39,1.81-0.64
			C457.37,225.29,456.24,225.6,455.57,225.6z"/>
		<path class="st3" d="M435.44,161.93c-2.21-0.02-4.42-0.01-6.63-0.01c0,0,0,0.01,0,0.01c-2.36,0-4.72-0.01-7.07,0
			c-0.43,0-1.01-0.03-1.06,0.53c-0.07,0.78,0.62,0.69,1.09,0.69c4.57,0.01,9.14,0.01,13.71,0c0.43,0,1.01,0.02,1.06-0.53
			C436.61,161.86,435.93,161.93,435.44,161.93z"/>
		<path class="st3" d="M416.33,160.87c-1.05-0.05-1.96,0.27-2.04,1.46c-0.07,1.15,0.72,1.65,1.64,1.76c1.28,0.05,2.06-0.56,2.1-1.61
			C418.08,161.54,417.35,160.92,416.33,160.87z"/>
		<path d="M554.26,179.68c-8.66,0.05-17.32,0.05-25.98,0.01c-1.31-0.01-1.84,0.35-1.83,1.74c0.06,6.59,0.06,13.18,0.01,19.76
			c-0.01,1.28,0.42,1.65,1.66,1.63c4.37-0.06,8.74-0.02,13.1-0.02c0-0.01,0-0.02,0-0.03c4.29,0,8.59-0.06,12.88,0.03
			c1.41,0.03,1.97-0.31,1.96-1.81c-0.05-6.51-0.02-13.03,0.04-19.54C556.11,180.09,555.59,179.67,554.26,179.68z M529.68,181.13
			c7.66,0,15.33,0,23,0c0.17,0.29,0.08,0.54-0.19,0.74c-3.42,2.6-6.85,5.18-10.25,7.8c-0.68,0.53-1.17,0.61-1.92,0.04
			c-3.57-2.74-7.19-5.41-10.8-8.1C529.58,181.44,529.63,181.29,529.68,181.13z M527.87,200.72c0-6.39,0-12.37,0-18.74
			c4.01,3.03,7.75,5.88,11.51,8.71c0.75,0.56,0.43,0.94-0.12,1.36C535.56,194.86,531.86,197.68,527.87,200.72z M552.49,201.43
			c-7.58,0-15.17,0-23.34,0c4.14-3.16,7.87-6,11.58-8.86c0.45-0.35,0.82-0.24,1.19,0.05c3.61,2.78,7.21,5.57,10.82,8.36
			C552.65,201.13,552.57,201.28,552.49,201.43z M554.58,200.7c-3.97-3.07-7.67-5.93-11.38-8.79c-0.48-0.37-0.74-0.67-0.08-1.17
			c3.72-2.86,7.42-5.75,11.46-8.89C554.58,188.31,554.58,194.3,554.58,200.7z"/>
		<path d="M528.16,214.37c8.73,0.06,17.47,0.07,26.2,0.07c0.6,0,1.63,0.33,1.67-0.55c0.06-1.11-1.05-0.76-1.7-0.76
			c-4.29-0.03-8.58-0.02-12.88-0.02c0,0,0-0.01,0-0.01c-4.44,0-8.88-0.01-13.32,0.01c-0.61,0-1.65-0.31-1.69,0.55
			C526.39,214.8,527.54,214.36,528.16,214.37z"/>
		<path d="M554.34,219.17c-8.75-0.01-17.49,0-26.24,0.05c-0.58,0-1.62-0.37-1.63,0.56c-0.01,0.87,1.02,0.64,1.63,0.64
			c4.37,0.02,8.75,0.01,13.12,0.01c0,0.02,0,0.04,0,0.05c4.37,0,8.75,0.02,13.12-0.02c0.62-0.01,1.77,0.4,1.69-0.75
			C555.97,218.84,554.94,219.17,554.34,219.17z"/>
		<path d="M527.52,208.59c4.36,0.01,8.71,0,13.07-0.01c0.43,0,1,0.02,1.03-0.56c0.04-0.74-0.61-0.7-1.11-0.71
			c-2.14-0.01-4.28,0-6.42,0c0,0.01,0,0.01,0,0.01c-2.14,0-4.28,0-6.42,0c-0.52,0-1.19-0.06-1.26,0.58
			C526.32,208.63,527.02,208.59,527.52,208.59z"/>
		<path d="M541.2,230c-1.17,0.07-1.89,0.82-1.87,2.02c0.02,1.19,0.7,1.88,1.92,1.98c1.21-0.16,1.84-0.88,1.83-2.07
			C543.07,230.75,542.46,229.93,541.2,230z"/>
		<path class="st3" d="M547.63,166.16c-4.28,0.01-8.55,0.02-12.83,0.04c-0.63,0-1.3,0.14-1.35,0.83c-0.06,0.84,0.61,1.06,1.36,1.06
			c2.06-0.01,4.13,0,6.19,0c0,0,0-0.01,0-0.01c2.21,0,4.42,0,6.64,0c0.64,0,1.27-0.14,1.33-0.85
			C549.05,166.34,548.35,166.16,547.63,166.16z"/>
		<path d="M301.15,198.86c4.44-0.08,8.88-0.03,13.32-0.03c0,0.02,0,0.04,0,0.06c4.44,0,8.88-0.06,13.32,0.03
			c1.57,0.03,2.04-0.47,2.02-2.01c-0.06-6.74-0.05-13.47,0.02-20.21c0.01-1.45-0.46-1.94-1.9-1.93c-8.88,0.06-17.76,0.09-26.65,0.03
			c-1.7-0.01-2.12,0.6-2.1,2.21c0.1,6.66,0.11,13.32,0.06,19.98C299.23,198.5,299.72,198.89,301.15,198.86z M302.48,197.34
			c0.73-1.15,1.84-1.75,2.77-2.48c2.68-2.1,5.42-4.12,8.15-6.15c0.5-0.37,0.94-0.96,1.73-0.36c3.78,2.9,7.59,5.77,11.82,8.99
			C318.48,197.34,310.6,197.34,302.48,197.34z M328.35,176.99c0,6.79,0,13.04,0,19.29c-0.65,0.37-0.97-0.19-1.34-0.48
			c-3.23-2.47-6.39-5.02-9.68-7.42c-1.65-1.2-1.48-1.83,0.11-2.98C321.03,182.82,324.45,180.02,328.35,176.99z M326.95,176.41
			c-4.25,3.25-8.04,6.13-11.8,9.05c-0.63,0.49-1.06,0.26-1.56-0.12c-3.72-2.87-7.44-5.73-11.59-8.93
			C310.48,176.41,318.39,176.41,326.95,176.41z M300.81,177.1c4.4,3.44,8.4,6.57,12.57,9.84c-4.27,3.29-8.28,6.39-12.68,9.79
			C300.55,190.06,300.49,183.87,300.81,177.1z"/>
		<path d="M345.59,205.09c-0.44-0.04-0.89-0.05-1.33-0.05c-14.16,0-28.31,0.01-42.47,0.02c-0.52,0-1.04,0.01-1.56,0.03
			c-0.48,0.02-0.91,0.19-0.89,0.74c0.02,0.45,0.45,0.53,0.83,0.55c0.52,0.02,1.04,0.03,1.56,0.03c6.97,0,13.93,0,20.9,0
			c0-0.01,0-0.01,0-0.02c7.11,0,14.23,0,21.34,0c0.52,0,1.04,0,1.55-0.04c0.41-0.03,0.69-0.26,0.65-0.71
			C346.15,205.3,345.91,205.12,345.59,205.09z"/>
		<path d="M345.59,212.1c-0.44-0.03-0.89-0.05-1.33-0.05c-14.24,0-28.48,0.01-42.72,0.02c-0.52,0-1.04,0.03-1.55,0.06
			c-0.31,0.02-0.61,0.16-0.64,0.5c-0.03,0.43,0.26,0.67,0.66,0.71c0.59,0.05,1.18,0.05,1.78,0.05c6.9,0,13.79,0,20.69,0
			c0-0.02,0-0.04,0-0.06c7.12,0,14.24,0,21.36,0c0.59,0,1.19,0,1.77-0.1c0.21-0.04,0.48-0.36,0.53-0.59
			C346.2,212.31,345.91,212.12,345.59,212.1z"/>
		<path d="M345.39,225.94c-0.44-0.03-0.89-0.03-1.33-0.03c-14.21,0-28.42,0.01-42.64,0.02c-0.52,0-1.05-0.02-1.55,0.08
			c-0.23,0.05-0.41,0.36-0.61,0.56c0.2,0.2,0.37,0.53,0.6,0.57c0.58,0.1,1.18,0.09,1.77,0.1c6.96,0,13.92,0,20.87,0
			c0,0,0,0.01,0,0.01c7.11,0,14.21,0,21.32,0c0.52,0,1.04-0.01,1.55-0.03c0.41-0.02,0.76-0.23,0.77-0.64
			C346.16,226.15,345.79,225.97,345.39,225.94z"/>
		<path d="M344.43,220.23c0.59,0,1.6,0.36,1.67-0.54c0.08-0.98-0.95-0.69-1.54-0.69c-14.52,0.01-29.03,0.03-43.55,0.08
			c-0.58,0-1.62-0.27-1.57,0.62c0.04,0.86,1.07,0.52,1.67,0.52c7.26,0.03,14.52,0.02,21.77,0.02c0,0,0,0.01,0,0.01
			C330.06,220.24,337.24,220.25,344.43,220.23z"/>
		<path d="M335.77,187.85c1.54,0.02,3.09,0.01,4.63,0.01c0-0.02,0-0.05,0-0.07c1.62,0,3.24,0.01,4.85-0.01
			c0.42-0.01,0.97-0.01,0.98-0.61c0-0.58-0.52-0.67-0.96-0.67c-3.16-0.03-6.32-0.05-9.48-0.05c-0.45,0-0.93,0.15-0.94,0.69
			C334.83,187.71,335.32,187.84,335.77,187.85z"/>
		<path d="M345.45,191.71c-3.24,0-6.48,0.01-9.72,0.04c-0.46,0-0.91,0.17-0.84,0.75c0.05,0.46,0.49,0.5,0.86,0.51
			c1.55,0.02,3.09,0.01,4.64,0.01c0,0.01,0,0.02,0,0.03c1.62,0,3.24,0.01,4.86,0c0.43,0,0.95,0.01,1.04-0.56
			C346.37,191.89,345.92,191.71,345.45,191.71z"/>
		<path d="M335.77,182.41c1.62,0.03,3.25,0.01,4.87,0.01c0-0.01,0-0.02,0-0.03c1.55,0,3.1,0.01,4.65-0.01
			c0.42-0.01,0.97-0.01,0.96-0.62c0-0.42-0.38-0.62-0.78-0.62c-3.25-0.01-6.5-0.01-9.75,0.01c-0.44,0-0.91,0.19-0.83,0.78
			C334.96,182.42,335.43,182.4,335.77,182.41z"/>
		<path class="st3" d="M298.44,164.13c1.04-0.19,1.94-0.7,1.92-1.94c-0.01-1.19-0.83-1.94-1.96-1.99c-1.17-0.05-1.95,0.71-1.97,1.91
			C296.41,163.32,297.19,163.94,298.44,164.13z"/>
		<path class="st3" d="M304.53,163.86c1.07,0.05,1.77-0.59,1.95-1.68c-0.13-1.09-0.7-1.9-1.77-1.95c-1.05-0.05-1.88,0.61-1.91,1.72
			C302.76,163.02,303.44,163.81,304.53,163.86z"/>
		<path class="st3" d="M311.06,163.9c1.15-0.04,1.73-0.84,1.61-1.96c-0.1-1.01-0.72-1.59-1.87-1.56c-0.95,0.12-1.61,0.66-1.57,1.72
			C309.26,163.22,309.95,163.93,311.06,163.9z"/>
	</g>
	<g>
		<path d="M443.29,66.02c0.02-1.65-0.54-1.94-2.02-1.93c-10.96,0.06-21.93,0.07-32.89,0.02c-1.41-0.01-1.67,0.53-1.67,1.75
			c0.03,8.06,0.03,16.12-0.01,24.18c-0.01,1.27,0.34,1.74,1.71,1.72c5.51-0.08,11.02-0.03,16.53-0.03c0,0.01,0,0.01,0,0.02
			c5.45,0,10.91-0.06,16.36,0.04c1.52,0.03,2.02-0.32,2-1.94C443.2,81.9,443.19,73.96,443.29,66.02z"/>
		<path d="M553.62,104.76c-9.6,0-19.2,0-28.8,0c-29.15,0-58.31,0-87.46,0c-38.52,0-77.03,0.01-115.55-0.04
			c-1.77,0-2.37,0.38-2.25,2.23c0.19,2.83,0.04,5.69,0.1,8.53c0.07,3.29-0.34,2.78,2.91,2.78c17.36,0.04,34.72,0.03,52.09,0.03
			c58.19,0.01,116.38,0.02,174.56,0.02c1.66,0,3.32-0.06,4.98-0.07c0.82,0,1.14-0.34,1.13-1.18c-0.03-3.67-0.06-7.35,0.02-11.02
			C555.38,104.61,554.52,104.76,553.62,104.76z"/>
		<path class="st3" d="M363.4,65.49c-0.97-0.91-1.45-0.62-2.26,0.14c-6.77,6.37-13.58,12.7-20.38,19.04
			c-2.4,2.24-4.8,4.47-7.52,6.99c19.59,0,38.69,0,57.97,0c-0.16-0.28-0.2-0.39-0.28-0.47C381.75,82.63,372.55,74.09,363.4,65.49z"/>
		<path class="st3" d="M364.08,62.98c-0.64,0.59-0.77,0.93-0.03,1.61c9.22,8.52,18.4,17.09,27.6,25.63c0.27,0.25,0.48,0.73,0.97,0.5
			c0-17.99,0-35.97,0-54.26c-2.08,1.91-3.95,3.61-5.79,5.32C379.24,48.85,371.67,55.92,364.08,62.98z"/>
		<path class="st14" d="M319.59,101.38c0,1.73,0.44,2.14,2.15,2.14c31.29-0.05,62.59-0.04,93.88-0.04c45.82,0,91.63,0,137.45,0.06
			c1.94,0,2.27-0.62,2.27-2.38c0-0.32,0-0.64,0-0.95c-0.22-0.34-0.05-0.94,0-1.39c-0.02-11.68-0.03-23.35-0.02-35.03
			c0-11.68,0-23.35,0.02-35.03c-0.05-0.45-0.22-1.06,0-1.39c0-0.32,0-0.64,0-0.95c0-1.76-0.33-2.39-2.27-2.38
			c-45.82,0.07-91.63,0.06-137.45,0.06c-31.29,0-62.59,0.01-93.88-0.04c-1.71,0-2.15,0.41-2.15,2.14c0,0.4,0,0.8,0,1.19
			c0.2,0.35,0.06,0.95,0,1.45c0.02,11.65,0.03,23.3,0.02,34.95c0.01,11.65,0,23.3-0.02,34.95c0.06,0.5,0.19,1.1,0,1.45
			C319.59,100.58,319.59,100.98,319.59,101.38z M442.82,93.02c-11.72-0.07-23.45-0.08-35.17-0.06c-1.52,0-2.12-0.32-2.1-2.04
			c0.09-8.76,0.05-17.52-0.04-26.29c-0.01-1.42,0.38-1.8,1.77-1.78c5.92,0.07,11.84,0.03,17.76,0.03c0-0.01,0-0.02,0-0.03
			c5.92,0,11.84,0.03,17.76-0.03c1.25-0.01,1.59,0.35,1.58,1.59c-0.05,9-0.04,18,0,27C444.4,92.61,444.1,93.02,442.82,93.02z
			 M449.25,62.57c0.47-0.03,0.95-0.04,1.42-0.04c27.24-0.01,54.48-0.03,81.72-0.04c0.24,0,0.47-0.01,0.71,0.01
			c0.34,0.03,0.78-0.03,0.8,0.46c0.02,0.6-0.47,0.58-0.88,0.59c-0.41,0.01-0.83,0-1.24,0c-13.44,0-26.89,0-40.33,0
			c0,0.01,0,0.02,0,0.03c-13.74,0-27.48,0-41.22,0c-0.35,0-0.72,0.03-1.06-0.05c-0.18-0.04-0.41-0.26-0.45-0.44
			C448.63,62.72,448.93,62.59,449.25,62.57z M543.09,90.64c-11.26,0.03-22.51,0.03-33.77,0.03c-19.37,0-38.74,0-58.12,0
			c-0.36,0-0.72,0.04-1.06-0.01c-0.52-0.08-1.43,0.32-1.4-0.56c0.03-0.84,0.94-0.5,1.45-0.5c10.96-0.03,21.92-0.04,32.88-0.04
			c4.5,0,9,0,13.51,0c0,0.01,0,0.01,0,0.02c15.17,0,30.33,0,45.5,0c0.36,0,0.72-0.05,1.06,0.02c0.51,0.09,1.42-0.35,1.39,0.55
			C544.5,91.01,543.6,90.64,543.09,90.64z M543.11,83.87c-10.13,0.03-20.26,0.02-30.39,0.02c-20.62,0-41.23,0-61.85-0.03
			c-0.72,0-2.08,0.49-2.06-0.57c0.02-1,1.37-0.5,2.1-0.5c15.22-0.04,30.45-0.03,45.67-0.03c15.22,0,30.45,0,45.67,0
			c0.3,0,0.6-0.04,0.89,0.01c0.51,0.09,1.41-0.32,1.39,0.57C544.52,84.22,543.62,83.87,543.11,83.87z M543.13,77.02
			c-15.64,0.02-31.27,0.01-46.91,0.01c-15.1,0-30.21,0-45.31-0.03c-0.74,0-2.09,0.45-2.08-0.57c0.02-0.97,1.38-0.49,2.11-0.49
			c15.28-0.04,30.56-0.03,45.84-0.03c0-0.01,0-0.02,0-0.04c15.16,0,30.32,0,45.49,0c0.3,0,0.6-0.04,0.89,0.01
			c0.52,0.09,1.4-0.31,1.38,0.61C544.52,77.39,543.63,77.02,543.13,77.02z M544.07,70.31c-0.53,0.03-1.07,0.03-1.6,0.03
			c-15.23,0-30.45,0-45.68,0c0-0.01,0-0.01,0-0.02c-15.34,0-30.69,0.01-46.03-0.03c-0.69,0-2,0.56-1.98-0.68
			c0.02-1.02,1.26-0.56,1.94-0.56c30.75-0.03,61.5-0.03,92.25-0.03c0.36,0,0.71,0.01,1.07,0.02c0.34,0.01,0.56,0.17,0.58,0.52
			C544.64,69.95,544.53,70.28,544.07,70.31z M544.07,57.47c-0.77,0.03-1.54,0.06-2.31,0.06c-22.22,0-44.44,0-66.66,0
			c0-0.01,0-0.01,0-0.02c-22.51,0-45.03,0.01-67.54-0.02c-0.74,0-2.11,0.43-2.11-0.54c0-1.02,1.37-0.52,2.09-0.52
			c23.58-0.05,47.16-0.07,70.74-0.08c21.51-0.01,43.02,0,64.52,0c0.41,0,0.83,0,1.24,0.02c0.33,0.02,0.55,0.18,0.56,0.54
			C544.61,57.26,544.41,57.45,544.07,57.47z M543.71,51.13c-0.41,0.01-0.83,0-1.24,0c-22.45,0-44.91,0-67.36,0c0,0.01,0,0.02,0,0.03
			c-22.45,0-44.91,0.01-67.36-0.02c-0.81,0-2.28,0.45-2.29-0.53c-0.02-1.03,1.44-0.54,2.22-0.54c45.09-0.03,90.17-0.02,135.26-0.02
			c0.24,0,0.48-0.02,0.71,0.01c0.38,0.04,0.92-0.13,0.95,0.49C544.63,51.16,544.13,51.12,543.71,51.13z M407.19,37.03
			c40.41-0.03,80.82-0.03,121.23-0.03c4.86,0,9.72-0.01,14.58,0.03c0.54,0,1.55-0.42,1.5,0.6c-0.04,0.76-0.97,0.42-1.5,0.42
			c-21.92,0.02-43.85,0.01-65.77,0.01c-0.71,0-1.42,0-2.13,0c0,0,0,0.01,0,0.01c-22.63,0-45.27,0-67.9-0.02
			c-0.63,0-1.77,0.4-1.78-0.49C405.41,36.66,406.56,37.03,407.19,37.03z M405.92,43.42c0.59-0.02,1.18-0.04,1.78-0.04
			c22.46,0,44.92,0,67.38,0c0,0,0-0.01,0-0.01c22.46,0,44.92-0.01,67.39,0.03c0.71,0,2.05-0.48,2.03,0.6
			c-0.02,1.08-1.36,0.55-2.07,0.55c-36.86,0.04-73.73,0.05-110.59,0.05c-8.18,0-16.36-0.04-24.54-0.07c-0.47,0-0.95-0.01-1.42-0.05
			c-0.31-0.02-0.6-0.17-0.57-0.53C405.35,43.63,405.59,43.44,405.92,43.42z M333.09,34.17c19.79,0.05,39.58,0.03,59.37-0.01
			c1.24,0,1.63,0.33,1.63,1.59c-0.04,18.66-0.05,37.33-0.02,55.99c0,1.21-0.42,1.48-1.55,1.47c-10.01-0.04-20.03-0.02-30.04-0.02
			c0-0.01,0-0.02,0-0.04c-9.95,0-19.91-0.02-29.86,0.03c-1.26,0.01-1.71-0.23-1.71-1.64c0.04-18.37,0.04-36.73-0.05-55.1
			C330.84,34.62,331.31,34.16,333.09,34.17z"/>
		<path d="M555.33,10.5c0.01-0.84-0.31-1.18-1.13-1.18c-1.66,0-3.32-0.07-4.98-0.07c-58.19,0-116.38,0.01-174.56,0.02
			c-17.36,0-34.72-0.01-52.09,0.03c-3.25,0.01-2.84-0.51-2.91,2.78c-0.06,2.84,0.09,5.7-0.1,8.53c-0.12,1.85,0.48,2.23,2.25,2.23
			c38.52-0.05,77.03-0.04,115.55-0.04c29.15,0,58.31,0,87.46,0c9.6,0,19.2,0,28.8,0c0.9,0,1.75,0.15,1.72-1.28
			C555.27,17.85,555.3,14.18,555.33,10.5z M329.57,18.18c-1.36-0.04-2.04-0.9-2.03-2.18c0.01-1.28,0.89-1.83,2.11-1.96
			c1.3,0.15,2.01,0.89,1.96,2.22C331.58,17.53,330.83,18.21,329.57,18.18z M337.38,18.19c-1.37,0-2.1-0.86-2.06-2.16
			c0.05-1.32,0.92-2.07,2.23-2.01c1.27,0.07,1.84,0.93,1.88,2.29C339.3,17.42,338.64,18.19,337.38,18.19z M345.15,18.23
			c-1.32-0.04-2.09-0.88-2.02-2.18c0.06-1.19,0.8-1.92,2.04-1.98c1.33,0.16,2.11,0.87,2.04,2.21
			C347.14,17.5,346.4,18.27,345.15,18.23z M457.14,16.99c-1.95,0.01-3.9,0.01-5.85,0.01c0,0,0,0.01,0,0.01c-1.95,0-3.9,0-5.85,0
			c-0.42,0-0.91-0.01-0.95-0.55c-0.04-0.56,0.45-0.63,0.87-0.63c3.96-0.01,7.92-0.01,11.88,0c0.4,0,0.92,0.02,0.86,0.62
			C458.04,17.01,457.54,16.99,457.14,16.99z M479.96,16.99c-3.77,0.01-7.54,0.01-11.31,0c-0.45,0-1.11,0.1-1.13-0.53
			c-0.03-0.8,0.74-0.62,1.2-0.63c1.94-0.04,3.89-0.02,5.83-0.02c0,0,0-0.01,0-0.01c1.77,0,3.54-0.02,5.3,0.01
			c0.48,0.01,1.21-0.21,1.2,0.61C481.05,17.09,480.41,16.99,479.96,16.99z M502.78,16.97c-1.83,0.04-3.66,0.01-5.49,0.01
			c0,0.01,0,0.01,0,0.02c-1.83,0-3.66,0.01-5.49-0.01c-0.48-0.01-1.22,0.2-1.22-0.6c0-0.7,0.68-0.51,1.1-0.51
			c3.72-0.04,7.43-0.07,11.15-0.07c0.47,0,1.23-0.22,1.2,0.61C504,17.23,503.24,16.96,502.78,16.97z M525.88,16.97
			c-1.89,0.01-3.79,0-5.68,0c0,0,0,0,0,0.01c-1.84,0-3.67,0.01-5.51-0.01c-0.45,0-1.11,0.11-1.16-0.51
			c-0.06-0.69,0.62-0.58,1.05-0.59c3.79-0.04,7.58-0.07,11.36-0.09c0.46,0,1.08-0.06,1.04,0.63
			C526.95,17.08,526.34,16.97,525.88,16.97z M548.92,16.95c-3.77,0.02-7.55,0.03-11.32,0.03c-0.45,0-1.07,0.06-1.03-0.63
			c0.03-0.59,0.61-0.44,0.98-0.44c1.94-0.02,3.89-0.01,5.83-0.01c0-0.03,0-0.06,0-0.08c1.83,0,3.65-0.01,5.48,0.01
			c0.44,0,1.07-0.09,1.03,0.62C549.86,16.98,549.32,16.94,548.92,16.95z"/>
		<path class="st3" d="M345.22,15.07c-0.58,0.04-1.01,0.33-1.1,0.91c-0.1,0.61,0.27,1.01,0.85,1.09c0.66,0.09,1.16-0.21,1.19-0.92
			C346.18,15.56,345.79,15.21,345.22,15.07z"/>
		<path class="st3" d="M360.53,64.74c1.16-1.07,0.45-1.51-0.26-2.17c-7.07-6.57-14.15-13.14-21.22-19.71
			c-2.28-2.12-4.55-4.24-7.06-6.59c0,18.43,0,36.5,0,54.87c0.57-0.48,0.9-0.73,1.2-1.01C342.29,81.66,351.38,73.17,360.53,64.74z"/>
		<path class="st3" d="M334.03,36.64c9.19,8.54,18.4,17.06,27.55,25.64c0.94,0.88,1.29,0.2,1.81-0.29
			c7.49-6.98,14.98-13.96,22.47-20.94c1.97-1.83,3.95-3.64,6.16-5.67c-19.85,0-39.33,0-59.07,0
			C333.44,35.95,333.7,36.34,334.03,36.64z"/>
		<path class="st3" d="M562.92,3.49c0-1.7-0.41-2.16-2.14-2.16C488.82,1.38,416.87,1.39,344.91,1.4c-10.25,0-20.51,0.05-30.76-0.07
			c-1.92-0.02-2.18,0.62-2.18,2.3c0.01,7.92,0.01,15.83,0.02,23.75c0.26,0.42,0.05,1.28,0,1.91c0.01,11.5,0.01,23,0.01,34.49
			c0,11.5,0,23-0.01,34.49c0.05,0.63,0.26,1.49,0,1.91c-0.01,7.92,0,15.83-0.02,23.75c0,1.68,0.25,2.32,2.18,2.3
			c10.25-0.12,20.51-0.07,30.76-0.07c71.96,0.01,143.91,0.01,215.87,0.07c1.73,0,2.15-0.46,2.14-2.16
			c-0.02-8.03-0.02-16.06-0.02-24.08c-0.01-0.08-0.01-0.17,0-0.26c0-11.99,0.01-23.97,0.02-35.96c-0.01-11.99-0.02-23.97-0.02-35.96
			c-0.01-0.09-0.01-0.17,0-0.26C562.9,19.54,562.9,11.52,562.92,3.49z M556.43,98.99c0.04,0.4,0.13,0.89,0,1.19
			c0,5.82,0.01,11.63,0.02,17.45c0,1.51-0.43,1.84-1.88,1.84c-39-0.04-78-0.03-117-0.03c0,0,0,0.01,0,0.01c-39,0-78-0.01-117,0.04
			c-1.74,0-2.12-0.44-2.12-2.15c0.01-5.73,0.02-11.46,0.02-17.18c-0.16-0.34-0.06-0.89,0-1.36c0.01-11.67,0.01-23.34,0.02-35.01
			c0-11.67-0.01-23.34-0.02-35.01c-0.06-0.47-0.16-1.02,0-1.36c-0.01-5.73-0.01-11.46-0.02-17.18c0-1.71,0.38-2.15,2.12-2.15
			c39,0.05,78,0.04,117,0.04c0,0,0,0.01,0,0.01c39,0,78,0.01,117-0.03c1.45,0,1.88,0.33,1.88,1.84c-0.01,5.82-0.01,11.63-0.02,17.44
			c0.13,0.3,0.04,0.78,0,1.19c-0.01,11.74-0.01,23.47-0.01,35.21C556.41,75.52,556.42,87.26,556.43,98.99z"/>
		<path class="st3" d="M329.68,15.06c-0.59,0.06-1.04,0.32-1.08,0.95c-0.04,0.61,0.32,1,0.93,1.07c0.63,0.06,1.04-0.27,1.07-0.89
			C330.63,15.58,330.28,15.19,329.68,15.06z"/>
		<path class="st3" d="M337.47,15.07c-0.7-0.09-1.13,0.37-1.13,1.04c0,0.57,0.36,1,0.99,1.02c0.62,0.02,0.96-0.35,1.05-0.91
			C338.4,15.54,338.03,15.14,337.47,15.07z"/>
		<path d="M556.43,27.39c0-5.81,0.01-11.63,0.02-17.44c0-1.51-0.43-1.84-1.88-1.84c-39,0.04-78,0.03-117,0.03c0,0,0-0.01,0-0.01
			c-39,0-78,0.01-117-0.04c-1.74,0-2.12,0.44-2.12,2.15c0.01,5.73,0.02,11.46,0.02,17.18c-0.16,0.34-0.06,0.89,0,1.36
			c0.01,11.67,0.01,23.34,0.02,35.01c0,11.67-0.01,23.34-0.02,35.01c-0.06,0.47-0.16,1.02,0,1.36c-0.01,5.73-0.01,11.46-0.02,17.18
			c0,1.71,0.38,2.15,2.12,2.15c39-0.05,78-0.04,117-0.04c0,0,0-0.01,0-0.01c39,0,78-0.01,117,0.03c1.45,0,1.88-0.33,1.88-1.84
			c-0.01-5.82-0.01-11.63-0.02-17.45c0.13-0.3,0.04-0.78,0-1.19c-0.01-11.74-0.01-23.47-0.01-35.21c0-11.74,0-23.47,0.01-35.21
			C556.47,28.17,556.56,27.69,556.43,27.39z M555.33,117.06c0.01,0.84-0.31,1.18-1.13,1.18c-1.66,0-3.32,0.07-4.98,0.07
			c-58.19,0-116.38-0.01-174.56-0.02c-17.36,0-34.72,0.01-52.09-0.03c-3.25-0.01-2.84,0.51-2.91-2.78c-0.06-2.84,0.09-5.7-0.1-8.53
			c-0.12-1.85,0.48-2.23,2.25-2.23c38.52,0.05,77.03,0.04,115.55,0.04c29.15,0,58.31,0,87.46,0c9.6,0,19.2,0,28.8,0
			c0.9,0,1.75-0.15,1.72,1.28C555.27,109.72,555.3,113.39,555.33,117.06z M319.59,98.73c0.02-11.65,0.03-23.3,0.02-34.95
			c0.01-11.65,0-23.3-0.02-34.95c0.06-0.5,0.19-1.1,0-1.45c0-0.4,0-0.8,0-1.19c0-1.73,0.44-2.14,2.15-2.14
			c31.29,0.05,62.59,0.04,93.88,0.04c45.82,0,91.63,0,137.45-0.06c1.94,0,2.27,0.62,2.27,2.38c0,0.32,0,0.64,0,0.95
			c-0.22,0.34-0.05,0.94,0,1.39c-0.02,11.68-0.03,23.35-0.02,35.03c0,11.68,0,23.35,0.02,35.03c-0.05,0.45-0.22,1.05,0,1.39
			c0,0.32,0,0.64,0,0.95c0,1.76-0.33,2.39-2.27,2.38c-45.82-0.07-91.63-0.06-137.45-0.06c-31.29,0-62.59-0.01-93.88,0.04
			c-1.71,0-2.15-0.41-2.15-2.14c0-0.4,0-0.8,0-1.19C319.79,99.83,319.66,99.23,319.59,98.73z M553.62,22.81c-9.6,0-19.2,0-28.8,0
			c-29.15,0-58.31,0-87.46,0c-38.52,0-77.03-0.01-115.55,0.04c-1.77,0-2.37-0.38-2.25-2.23c0.19-2.83,0.04-5.69,0.1-8.53
			c0.07-3.29-0.34-2.78,2.91-2.78c17.36-0.04,34.72-0.03,52.09-0.03c58.19-0.01,116.38-0.02,174.56-0.02c1.66,0,3.32,0.06,4.98,0.07
			c0.82,0,1.14,0.34,1.13,1.18c-0.03,3.67-0.06,7.35,0.02,11.02C555.38,22.96,554.52,22.81,553.62,22.81z"/>
		<path d="M562.69,0c-41.67,0.03-83.34,0.03-125,0.03c0,0,0-0.01,0-0.01c-6.82,0-13.63,0-20.45,0c-34.85,0-69.7,0.02-104.55-0.02
			c-1.49,0-1.85,0.42-1.85,1.89c0.01,8.52,0.02,17.04,0.03,25.56c-0.17,0.36-0.07,0.95,0,1.48c0.01,11.62,0.01,23.24,0.02,34.86
			c-0.01,11.62-0.01,23.24-0.02,34.86c-0.07,0.53-0.17,1.12,0,1.48c-0.01,8.52-0.02,17.04-0.03,25.56c0,1.46,0.35,1.89,1.85,1.89
			c34.85-0.04,69.7-0.02,104.55-0.02c6.82,0,13.63,0,20.45,0c0,0,0-0.01,0-0.01c41.67,0,83.34-0.01,125,0.03
			c1.26,0,1.59-0.34,1.58-1.58c-0.03-20.73-0.04-41.47-0.05-62.2c0.01-20.73,0.02-41.47,0.05-62.2C564.28,0.34,563.95,0,562.69,0z
			 M562.92,63.78c-0.01,11.99-0.02,23.97-0.02,35.96c-0.01,0.09-0.01,0.17,0,0.26c0,8.03,0,16.06,0.02,24.08
			c0,1.7-0.41,2.16-2.14,2.16c-71.96-0.06-143.91-0.06-215.87-0.07c-10.25,0-20.51-0.05-30.76,0.07c-1.92,0.02-2.18-0.62-2.18-2.3
			c0.01-7.92,0.01-15.83,0.02-23.75c0.26-0.42,0.05-1.28,0-1.91c0.01-11.5,0.01-23,0.01-34.49c0-11.5,0-23-0.01-34.49
			c0.05-0.63,0.26-1.49,0-1.91c-0.01-7.92,0-15.83-0.02-23.75c0-1.68,0.25-2.32,2.18-2.3c10.25,0.12,20.51,0.07,30.76,0.07
			c71.96-0.01,143.91-0.01,215.87-0.07c1.73,0,2.15,0.46,2.14,2.16c-0.02,8.03-0.02,16.06-0.02,24.08c-0.01,0.08-0.01,0.17,0,0.26
			C562.9,39.81,562.91,51.8,562.92,63.78z"/>
		<path d="M330.91,91.54c0,1.41,0.45,1.65,1.71,1.64c9.95-0.05,19.91-0.03,29.86-0.03c0,0.01,0,0.02,0,0.04
			c10.01,0,20.03-0.02,30.04,0.02c1.13,0,1.55-0.26,1.55-1.47c-0.03-18.66-0.02-37.33,0.02-55.99c0-1.26-0.39-1.59-1.63-1.59
			c-19.79,0.04-39.58,0.06-59.37,0.01c-1.78,0-2.25,0.46-2.24,2.27C330.94,54.8,330.95,73.17,330.91,91.54z M333.24,91.66
			c2.72-2.53,5.12-4.76,7.52-6.99c6.8-6.34,13.61-12.67,20.38-19.04c0.81-0.76,1.29-1.05,2.26-0.14
			c9.15,8.6,18.35,17.14,27.53,25.71c0.08,0.07,0.12,0.19,0.28,0.47C371.93,91.66,352.83,91.66,333.24,91.66z M392.62,36.47
			c0,18.29,0,36.26,0,54.26c-0.5,0.23-0.7-0.25-0.97-0.5c-9.2-8.54-18.38-17.11-27.6-25.63c-0.74-0.68-0.61-1.02,0.03-1.61
			c7.59-7.05,15.17-14.13,22.75-21.19C388.67,40.07,390.53,38.38,392.62,36.47z M392.02,35.39c-2.21,2.03-4.19,3.84-6.16,5.67
			c-7.49,6.98-14.98,13.96-22.47,20.94c-0.52,0.48-0.87,1.17-1.81,0.29c-9.15-8.58-18.36-17.1-27.55-25.64
			c-0.33-0.31-0.59-0.69-1.07-1.25C352.7,35.39,372.18,35.39,392.02,35.39z M331.99,36.27c2.51,2.34,4.78,4.47,7.06,6.59
			c7.07,6.57,14.14,13.14,21.22,19.71c0.71,0.66,1.42,1.1,0.26,2.17c-9.15,8.43-18.23,16.92-27.34,25.4
			c-0.3,0.28-0.63,0.53-1.2,1.01C331.99,72.78,331.99,54.71,331.99,36.27z"/>
		<path d="M544.04,56.36c-0.41-0.02-0.83-0.02-1.24-0.02c-21.51,0-43.02-0.01-64.52,0c-23.58,0.01-47.16,0.02-70.74,0.08
			c-0.72,0-2.09-0.49-2.09,0.52c0,0.97,1.37,0.54,2.11,0.54c22.51,0.03,45.03,0.02,67.54,0.02c0,0.01,0,0.01,0,0.02
			c22.22,0,44.44,0,66.66,0c0.77,0,1.54-0.02,2.31-0.06c0.34-0.01,0.53-0.21,0.53-0.57C544.59,56.54,544.37,56.38,544.04,56.36z"/>
		<path d="M405.88,44.49c0.47,0.04,0.95,0.05,1.42,0.05c8.18,0.03,16.36,0.07,24.54,0.07c36.86,0,73.73-0.01,110.59-0.05
			c0.71,0,2.05,0.52,2.07-0.55c0.02-1.07-1.32-0.6-2.03-0.6c-22.46-0.03-44.92-0.03-67.39-0.03c0,0,0,0.01,0,0.01
			c-22.46,0-44.92,0-67.38,0c-0.59,0-1.19,0.01-1.78,0.04c-0.33,0.01-0.57,0.21-0.61,0.53C405.28,44.32,405.57,44.46,405.88,44.49z"
			/>
		<path d="M444.39,64.4c0.01-1.24-0.34-1.61-1.58-1.59c-5.92,0.06-11.84,0.03-17.76,0.03c0,0.01,0,0.02,0,0.03
			c-5.92,0-11.84,0.04-17.76-0.03c-1.38-0.02-1.78,0.37-1.77,1.78c0.09,8.76,0.12,17.52,0.04,26.29c-0.02,1.72,0.58,2.05,2.1,2.04
			c11.72-0.02,23.45-0.01,35.17,0.06c1.28,0.01,1.58-0.41,1.57-1.62C444.35,82.4,444.34,73.4,444.39,64.4z M441.29,91.78
			c-5.45-0.09-10.9-0.04-16.36-0.04c0-0.01,0-0.01,0-0.02c-5.51,0-11.02-0.05-16.53,0.03c-1.37,0.02-1.71-0.45-1.71-1.72
			c0.04-8.06,0.04-16.12,0.01-24.18c0-1.23,0.26-1.76,1.67-1.75c10.96,0.06,21.93,0.04,32.89-0.02c1.48-0.01,2.04,0.28,2.02,1.93
			c-0.09,7.94-0.08,15.88,0.01,23.82C443.32,91.46,442.82,91.8,441.29,91.78z"/>
		<path d="M543.63,50.06c-0.23-0.03-0.47-0.01-0.71-0.01c-45.09,0-90.17-0.01-135.26,0.02c-0.78,0-2.23-0.49-2.22,0.54
			c0.01,0.98,1.49,0.53,2.29,0.53c22.45,0.03,44.91,0.02,67.36,0.02c0-0.01,0-0.02,0-0.03c22.45,0,44.91,0,67.36,0
			c0.41,0,0.83,0,1.24,0c0.41-0.01,0.91,0.03,0.87-0.58C544.55,49.93,544.01,50.1,543.63,50.06z"/>
		<path d="M407.19,38.06c22.63,0.02,45.27,0.02,67.9,0.02c0,0,0-0.01,0-0.01c0.71,0,1.42,0,2.13,0c21.92,0,43.85,0.01,65.77-0.01
			c0.52,0,1.45,0.34,1.5-0.42c0.06-1.02-0.96-0.59-1.5-0.6c-4.86-0.04-9.72-0.03-14.58-0.03c-40.41,0-80.82,0.01-121.23,0.03
			c-0.63,0-1.78-0.38-1.78,0.53C405.42,38.45,406.57,38.05,407.19,38.06z"/>
		<path d="M544.03,69.04c-0.36-0.01-0.71-0.02-1.07-0.02c-30.75,0-61.5,0-92.25,0.03c-0.68,0-1.92-0.46-1.94,0.56
			c-0.02,1.24,1.28,0.68,1.98,0.68c15.34,0.04,30.69,0.03,46.03,0.03c0,0.01,0,0.01,0,0.02c15.23,0,30.45,0,45.68,0
			c0.53,0,1.07,0,1.6-0.03c0.46-0.03,0.57-0.35,0.54-0.74C544.59,69.21,544.37,69.05,544.03,69.04z"/>
		<path d="M543.16,75.88c-0.29-0.05-0.59-0.01-0.89-0.01c-15.16,0-30.32,0-45.49,0c0,0.01,0,0.02,0,0.04
			c-15.28,0-30.56-0.01-45.84,0.03c-0.74,0-2.1-0.47-2.11,0.49c-0.02,1.02,1.34,0.57,2.08,0.57c15.1,0.04,30.21,0.03,45.31,0.03
			c15.64,0,31.27,0.01,46.91-0.01c0.5,0,1.39,0.36,1.41-0.54C544.57,75.57,543.68,75.97,543.16,75.88z"/>
		<path d="M543.15,82.78c-0.29-0.05-0.59-0.01-0.89-0.01c-15.22,0-30.45,0-45.67,0c-15.22,0-30.45-0.01-45.67,0.03
			c-0.73,0-2.08-0.5-2.1,0.5c-0.02,1.07,1.33,0.57,2.06,0.57c20.62,0.03,41.23,0.03,61.85,0.03c10.13,0,20.26,0,30.39-0.02
			c0.51,0,1.41,0.35,1.43-0.53C544.56,82.46,543.66,82.87,543.15,82.78z"/>
		<path d="M543.15,89.59c-0.34-0.06-0.71-0.02-1.06-0.02c-15.17,0-30.33,0-45.5,0c0-0.01,0-0.01,0-0.02c-4.5,0-9,0-13.51,0
			c-10.96,0.01-21.92,0.01-32.88,0.04c-0.51,0-1.42-0.34-1.45,0.5c-0.03,0.88,0.88,0.48,1.4,0.56c0.35,0.05,0.71,0.01,1.06,0.01
			c19.37,0,38.74,0,58.12,0c11.26,0,22.51,0,33.77-0.03c0.51,0,1.41,0.37,1.44-0.49C544.57,89.24,543.65,89.68,543.15,89.59z"/>
		<path d="M449.17,63.54c0.34,0.08,0.7,0.05,1.06,0.05c13.74,0,27.48,0,41.22,0c0-0.01,0-0.02,0-0.03c13.44,0,26.89,0,40.33,0
			c0.41,0,0.83,0.01,1.24,0c0.41-0.01,0.9,0,0.88-0.59c-0.02-0.49-0.46-0.44-0.8-0.46c-0.24-0.02-0.47-0.01-0.71-0.01
			c-27.24,0.01-54.48,0.02-81.72,0.04c-0.47,0-0.95,0.01-1.42,0.04c-0.32,0.02-0.62,0.15-0.53,0.53
			C448.76,63.27,448.99,63.49,449.17,63.54z"/>
		<path class="st3" d="M457.23,15.83c-3.96-0.01-7.92-0.01-11.88,0c-0.43,0-0.91,0.07-0.87,0.63c0.04,0.54,0.53,0.55,0.95,0.55
			c1.95,0,3.9,0,5.85,0c0,0,0-0.01,0-0.01c1.95,0,3.9,0.01,5.85-0.01c0.4,0,0.91,0.02,0.96-0.54
			C458.15,15.85,457.63,15.83,457.23,15.83z"/>
		<path class="st3" d="M479.85,15.81c-1.77-0.03-3.54-0.01-5.3-0.01c0,0,0,0.01,0,0.01c-1.94,0-3.89-0.02-5.83,0.02
			c-0.47,0.01-1.23-0.17-1.2,0.63c0.02,0.63,0.69,0.52,1.13,0.53c3.77,0.01,7.54,0.01,11.31,0c0.45,0,1.09,0.1,1.09-0.57
			C481.06,15.6,480.33,15.82,479.85,15.81z"/>
		<path class="st3" d="M525.95,15.79c-3.79,0.02-7.58,0.05-11.36,0.09c-0.44,0-1.12-0.11-1.05,0.59c0.05,0.61,0.71,0.5,1.16,0.51
			c1.84,0.01,3.67,0.01,5.51,0.01c0,0,0,0,0-0.01c1.89,0,3.79,0.01,5.68,0c0.45,0,1.07,0.11,1.11-0.56
			C527.02,15.73,526.4,15.79,525.95,15.79z"/>
		<path class="st3" d="M502.83,15.81c-3.72,0.01-7.43,0.03-11.15,0.07c-0.42,0-1.1-0.18-1.1,0.51c0,0.8,0.74,0.59,1.22,0.6
			c1.83,0.02,3.66,0.01,5.49,0.01c0-0.01,0-0.01,0-0.02c1.83,0,3.66,0.02,5.49-0.01c0.47-0.01,1.22,0.26,1.25-0.55
			C504.06,15.58,503.3,15.81,502.83,15.81z"/>
		<path class="st3" d="M548.87,15.82c-1.83-0.02-3.65-0.01-5.48-0.01c0,0.03,0,0.06,0,0.08c-1.94,0-3.89-0.01-5.83,0.01
			c-0.37,0-0.95-0.15-0.98,0.44c-0.03,0.68,0.58,0.63,1.03,0.63c3.77,0,7.55-0.01,11.32-0.03c0.4,0,0.94,0.03,0.97-0.51
			C549.94,15.73,549.31,15.82,548.87,15.82z"/>
		<path class="st3" d="M329.66,14.04c-1.22,0.13-2.1,0.68-2.11,1.96c-0.01,1.28,0.67,2.14,2.03,2.18c1.26,0.03,2-0.65,2.05-1.92
			C331.67,14.92,330.96,14.19,329.66,14.04z M329.53,17.07c-0.61-0.06-0.97-0.45-0.93-1.07c0.04-0.63,0.5-0.89,1.08-0.95
			c0.6,0.14,0.95,0.52,0.92,1.12C330.57,16.8,330.16,17.13,329.53,17.07z"/>
		<path class="st3" d="M337.56,14.03c-1.31-0.07-2.19,0.69-2.23,2.01c-0.04,1.3,0.69,2.16,2.06,2.16c1.26,0,1.91-0.77,2.06-1.87
			C339.4,14.95,338.83,14.09,337.56,14.03z M337.33,17.12c-0.63-0.02-0.99-0.45-0.99-1.02c0-0.67,0.43-1.13,1.13-1.04
			c0.56,0.07,0.93,0.48,0.91,1.15C338.29,16.77,337.95,17.14,337.33,17.12z"/>
		<path class="st3" d="M345.17,14.07c-1.24,0.06-1.98,0.79-2.04,1.98c-0.07,1.3,0.7,2.14,2.02,2.18c1.24,0.04,1.99-0.73,2.05-1.95
			C347.28,14.94,346.5,14.23,345.17,14.07z M344.97,17.07c-0.58-0.08-0.95-0.49-0.85-1.09c0.09-0.58,0.52-0.87,1.1-0.91
			c0.57,0.14,0.96,0.49,0.94,1.08C346.13,16.86,345.62,17.16,344.97,17.07z"/>
	</g>
</g>
</svg>
