<?xml version="1.0" encoding="utf-8"?>
<!-- Generator: Adobe Illustrator 24.3.0, SVG Export Plug-In . SVG Version: 6.00 Build 0)  -->
<svg version="1.1" id="Layer_1" xmlns="http://www.w3.org/2000/svg" xmlns:xlink="http://www.w3.org/1999/xlink" x="0px" y="0px"
	 viewBox="0 0 137.33 169" style="enable-background:new 0 0 137.33 169;" xml:space="preserve">
<style type="text/css">
	.st0{fill:#00B0FB;}
	.st1{fill:#FFFFFF;}
	.st2{fill:#00B0FB;fill-opacity:0.4;}
</style>
<g>
	<path class="st1" d="M135,150.83c-44.33,0-88.34,0-132.67,0c0-0.73,0-1.43,0-2.14c0-39.46,0-78.92,0-118.39
		c0-7.67,4.44-12.13,12.08-12.13c36.17-0.01,72.35-0.01,108.52,0c7.65,0,12.06,4.44,12.06,12.14c0,39.46,0,78.92,0,118.39
		C135,149.36,135,150.01,135,150.83z M6.86,146.31c41.29,0,82.44,0,123.55,0c0-31.7,0-63.27,0-94.96c-7.87,0-15.56,0-23.26,0
		c-16.41,0-32.82,0.01-49.23-0.01c-3.99,0-5.99-1.35-7.42-4.89c-0.53-1.3-1.16-2.57-1.56-3.91c-0.5-1.7-1.53-2.29-3.26-2.27
		c-5.16,0.07-10.31-0.02-15.47,0.03c-7.74,0.08-5.75-1.04-8.65,5.81c-1.63,3.85-3.47,5.19-7.62,5.23c-2.33,0.02-4.65,0-7.08,0
		C6.86,83.1,6.86,114.63,6.86,146.31z M130.58,46.92c0-5.89,0.02-11.5-0.01-17.12c-0.02-4.62-2.61-7.2-7.26-7.2
		c-36.43-0.01-72.87-0.01-109.3,0c-4.61,0-7.23,2.63-7.25,7.22c-0.02,5.09-0.01,10.18,0,15.27c0,0.57,0.08,1.14,0.13,1.83
		c1.18,0,2.18,0,3.18,0c6.02,0,6.02,0,8.31-5.44c0.08-0.19,0.14-0.38,0.22-0.56c1.49-3.61,3.63-5.04,7.58-5.05
		c5.49-0.01,10.98,0,16.48,0c8.06,0,8.59,0.36,11.58,7.96c1.19,3.03,1.29,3.1,4.53,3.1c23.11,0,46.21,0,69.32,0
		C128.81,46.92,129.55,46.92,130.58,46.92z"/>
	<path class="st0" d="M130.58,46.92c-1.03,0-1.76,0-2.5,0c-23.11,0-46.21,0-69.32,0c-3.24,0-3.34-0.07-4.53-3.1
		c-2.99-7.6-3.52-7.96-11.58-7.96c-5.49,0-10.98-0.01-16.48,0c-3.95,0.01-6.09,1.44-7.58,5.05c-0.08,0.19-0.14,0.38-0.22,0.56
		c-2.29,5.45-2.29,5.44-8.31,5.44c-1,0-2,0-3.18,0c-0.05-0.68-0.13-1.26-0.13-1.83c-0.01-5.09-0.02-10.18,0-15.27
		c0.02-4.59,2.64-7.22,7.25-7.22c36.43-0.01,72.87-0.01,109.3,0c4.65,0,7.24,2.59,7.26,7.2C130.59,35.42,130.58,41.03,130.58,46.92z
		 M100.73,27.04c-1.82,0.01-3.31,1.53-3.28,3.36c0.03,1.8,1.59,3.3,3.39,3.25c1.73-0.05,3.16-1.51,3.19-3.25
		C104.06,28.59,102.53,27.03,100.73,27.04z M126.13,30.25c-0.05-1.81-1.65-3.31-3.44-3.21c-1.83,0.1-3.23,1.66-3.13,3.5
		c0.1,1.71,1.6,3.13,3.32,3.11C124.69,33.63,126.19,32.07,126.13,30.25z M111.8,27.04c-1.78-0.01-3.35,1.57-3.31,3.36
		c0.03,1.71,1.5,3.2,3.2,3.26c1.81,0.06,3.34-1.42,3.37-3.24C115.09,28.56,113.62,27.04,111.8,27.04z"/>
	<path class="st2" d="M24.57,64.76c-0.06-0.74-0.12-1.12-0.12-1.51c-0.01-0.93,0-1.86,0-2.93c4.45,0,8.77,0,13.29,0
		c-0.41,1.63,0.99,3.51-1.2,4.7c6.96,19.78,13.92,39.58,21.07,59.9c1.26-3.48,2.35-6.45,3.41-9.43c1.67-4.73,3.36-9.45,4.95-14.21
		c0.27-0.8,0.25-1.85-0.03-2.65c-3.63-10.56-7.4-21.07-10.93-31.66c-0.71-2.15-1.92-2.6-3.9-2.38c0-1.47,0-2.78,0-4.25
		c4.3,0,8.61,0,13.13,0c-0.34,1.58,0.98,3.4-1.16,4.67c2.52,7.2,5.05,14.44,7.58,21.68c0.15,0.02,0.29,0.04,0.44,0.07
		c2.54-7.24,5.08-14.48,7.72-22c-1.18-0.09-2.19-0.17-3.35-0.26c0-1.36,0-2.67,0-4.14c3.55,0,7.12,0,10.8,0c0,1.34,0,2.66,0,4.27
		c-3.21-0.98-3.52,1.46-4.25,3.56c-2.77,8.03-5.6,16.03-8.34,24.07c-0.3,0.87-0.37,2-0.07,2.85c3.27,9.48,6.64,18.93,9.99,28.38
		c0.11,0.31,0.31,0.59,0.66,1.23c7.07-20.1,14.04-39.92,21.08-59.95c-1.21-0.1-2.24-0.18-3.38-0.28c0-1.42,0-2.72,0-4.16
		c3.66,0,7.23,0,10.85,0c0,1.43,0,2.75,0,4.33c-2.93-0.81-3.44,1.15-4.17,3.23c-7.82,22.41-15.71,44.8-23.57,67.19
		c-0.84,2.39-2.45,3.33-4.8,2.41c-0.6-0.23-1-1.29-1.27-2.04c-3.25-9.13-6.46-18.28-9.68-27.43c-0.14-0.41-0.32-0.81-0.67-1.7
		c-1.71,4.85-3.27,9.22-4.81,13.6c-1.87,5.3-3.82,10.57-5.53,15.92c-0.56,1.76-1.61,1.71-3,1.78c-1.45,0.07-2.26-0.27-2.79-1.78
		c-7.96-22.79-15.99-45.55-23.95-68.34C27.87,65.51,27.33,63.69,24.57,64.76z"/>
	<path class="st2" d="M100.73,27.04c1.8-0.01,3.33,1.55,3.3,3.36c-0.03,1.75-1.46,3.21-3.19,3.25c-1.8,0.05-3.36-1.45-3.39-3.25
		C97.42,28.57,98.91,27.05,100.73,27.04z"/>
	<path class="st2" d="M126.13,30.25c0.05,1.81-1.44,3.38-3.25,3.4c-1.71,0.02-3.22-1.4-3.32-3.11c-0.1-1.84,1.29-3.4,3.13-3.5
		C124.48,26.94,126.08,28.44,126.13,30.25z"/>
	<path class="st2" d="M111.8,27.04c1.83,0.01,3.29,1.52,3.26,3.37c-0.03,1.83-1.56,3.3-3.37,3.24c-1.71-0.05-3.17-1.54-3.2-3.26
		C108.45,28.61,110.01,27.03,111.8,27.04z"/>
</g>
</svg>
