<?xml version="1.0" encoding="utf-8"?>
<!-- Generator: Adobe Illustrator 24.3.0, SVG Export Plug-In . SVG Version: 6.00 Build 0)  -->
<svg version="1.1" id="Layer_1" xmlns="http://www.w3.org/2000/svg" xmlns:xlink="http://www.w3.org/1999/xlink" x="0px" y="0px"
	 viewBox="0 0 137.33 169" style="enable-background:new 0 0 137.33 169;" xml:space="preserve">
<style type="text/css">
	.st0{fill:#00B0FB;}
	.st1{fill:#FFFFFF;}
	.st2{fill:#00B0FB;fill-opacity:0.4;}
</style>
<g>
	<path class="st1" d="M54,50.48c0-2.72-0.03-5.14,0.01-7.56c0.07-3.84,1.41-5.15,5.31-5.23c1.67-0.03,3.33-0.01,5.17-0.01
		c0-5.97,0-11.52,0-17.78c-1.48,1.29-2.54,2.3-3.68,3.21c-1.84,1.49-3.81,1.69-5.57-0.03c-1.77-1.73-1.71-3.8-0.07-5.53
		c3.43-3.61,6.96-7.12,10.54-10.58c2.19-2.12,4.42-1.6,6.42,0.37c3.2,3.15,6.37,6.34,9.52,9.54c1.83,1.86,2.58,4.03,0.56,6.1
		c-2.16,2.21-4.38,1.42-6.37-0.51c-0.76-0.74-1.55-1.46-2.8-2.64c0,6.14,0,11.72,0,17.48c3.01,1.42,7.93-1.62,9.64,2.67
		c1.23,3.09,0.69,6.89,0.94,10.37c2.88,1.25,5.73,2.57,8.65,3.71c0.63,0.25,1.51-0.11,2.26-0.25c0.2-0.04,0.35-0.32,0.53-0.48
		c7.51-6.57,7.51-6.57,15.16-0.47c3.87-4.08,7.75-8.18,11.76-12.4c-1.15-0.08-2.62-0.16-4.09-0.28c-2.41-0.19-3.91-1.44-3.92-3.91
		c-0.01-2.44,1.41-3.92,3.83-3.97c5.1-0.1,10.2-0.11,15.3,0.01c2.44,0.06,3.77,1.67,3.81,4.05c0.09,4.98,0.11,9.97-0.01,14.95
		c-0.06,2.37-1.4,3.91-3.91,3.9c-2.66-0.02-3.94-1.58-4.02-4.17c-0.04-1.3-0.01-2.61-0.01-4.19c-4.13,4.41-7.96,8.51-11.79,12.6
		c-0.6,0.06-1.21,0.13-1.81,0.19c1.54,1.13,3.17,2.15,4.59,3.4c2.47,2.18,2.76,4.92,0.06,6.81c-5.27,3.69-5.47,7.72-2.51,13.05
		c1.18,2.12,2.01,3.01,4.45,2.98c9.51-0.09,9.51,0,9.51,9.37c0,4.98-0.04,9.97,0.01,14.95c0.03,3.27-1.51,5.48-4.76,4.95
		c-6.29-1.02-9.71,1.44-10.91,7.53c-0.18,0.91-0.81,1.74-1.67,3.5c1.88,1.58,3.98,3.23,5.94,5.03c2.29,2.1,2.36,4.38,0.12,6.63
		c-4.72,4.73-9.44,9.46-14.16,14.19c-2.37,2.38-4.67,2.24-6.88-0.21c-1.71-1.89-3.38-3.82-5.01-5.66c-1.24,0.58-1.86,1.01-2.54,1.16
		c-6.4,1.42-9.65,4.81-8.39,11.86c0.48,2.68-1.63,4.18-4.36,4.2c-6.8,0.04-13.61,0.04-20.41,0c-2.73-0.02-4.82-1.54-4.35-4.22
		c1.26-7.03-1.97-10.45-8.38-11.85c-0.57-0.13-1.08-0.52-2.51-1.23c-1.54,1.77-3.25,3.79-5.03,5.75c-2.2,2.43-4.48,2.61-6.87,0.2
		c-4.71-4.74-9.45-9.45-14.17-14.18c-2.24-2.24-2.19-4.5,0.1-6.62c1.95-1.81,4.03-3.48,5.88-5.07c-0.68-1.48-1.09-2.1-1.26-2.79
		c-1.51-6.06-4.55-9.62-11.59-8.24c-2.81,0.55-4.41-1.59-4.42-4.52c-0.01-6.68,0-13.37-0.01-20.05c0-3.16,1.66-4.58,4.73-4.74
		c8.9-0.47,8.92-0.49,11.65-8.96c0.21-0.64-0.16-1.48-0.31-2.22c-0.04-0.21-0.3-0.37-0.47-0.55c-6.81-7.64-6.81-7.64-0.72-14.61
		c-4.03-4.11-8.04-8.2-12.21-12.46c-0.07,1.53,0.32,3.3-0.32,4.53c-0.77,1.47-2.39,3.41-3.68,3.45c-1.33,0.03-3.78-1.9-3.88-3.13
		c-0.44-5.31-0.44-10.69-0.01-16c0.1-1.29,2.39-3.29,3.81-3.41c4.94-0.42,9.95-0.22,14.93-0.15c2.39,0.04,3.94,1.32,4.01,3.8
		c0.08,2.68-1.51,3.98-4.08,4.11c-1.39,0.07-2.78,0.01-4.61,0.01c4.54,4.48,8.55,8.44,12.76,12.59c1.08-1.03,2.43-2.22,3.67-3.51
		c2.27-2.37,4.9-2.79,6.85-0.13c3.72,5.07,7.83,5.91,12.99,2.41C51.74,51.04,52.78,50.9,54,50.48z M54,78.05
		c-1.29,1.18-1.87,1.61-2.34,2.15c-9.62,11.04-6.73,27.88,6.22,34.9c3.17,1.72,4.32,3.74,4.18,7.19
		c-0.21,5.22-0.05,10.45-0.05,15.67c0,5.68,0,11.35,0,17.19c4.59,0,8.77,0,13.33,0c0-1.51,0-2.81,0-4.12
		c0-9.72,0.08-19.44-0.05-29.16c-0.04-3.16,1.04-5.04,3.91-6.62c8.53-4.71,12.61-12.14,12.08-21.94
		c-0.33-6.05-3.71-12.27-7.93-14.46c0,3.28-0.13,6.41,0.04,9.52c0.15,2.82-1.08,4.46-3.49,5.75c-10.88,5.83-10.86,5.88-21.81,0.28
		c-0.32-0.17-0.63-0.38-0.96-0.52c-2.26-0.99-3.27-2.65-3.18-5.17C54.1,85.48,54,82.24,54,78.05z"/>
	<path class="st0" d="M35.13,144.1c1.22-1.38,2.46-2.71,3.61-4.11c2.42-2.95,5.04-3.27,8.28-1.19c1.98,1.27,4.31,1.99,6.98,3.18
		c0-5.14-0.23-9.62,0.07-14.07c0.26-3.86-0.99-6.19-4.21-8.63C32.22,105.92,34.73,78.34,54.28,68c4.8-2.54,7.66-1,7.73,4.22
		c0.05,3.52,0.01,7.05,0.01,10.57c0,4.49,1.62,6.52,5.92,7.45c3.02,0.65,7.39-2.83,7.4-5.91c0.02-3.77-0.01-7.53,0.01-11.3
		c0.03-6.25,2.78-7.79,8.31-4.68c19.83,11.15,21.16,38.71,2.56,52.15c-1.15,0.83-2.67,2.18-2.72,3.35
		c-0.28,5.8-0.13,11.63-0.13,18.25c2.97-1.42,5.47-2.51,7.88-3.79c2.45-1.29,4.63-1.31,6.56,0.86c1.45,1.63,2.88,3.29,4.18,4.77
		c3.51-3.44,6.58-6.46,10.35-10.16c-1.44-1.11-2.89-2.21-4.32-3.34c-3-2.38-3.05-4.89-1.13-8.23c1.96-3.43,3.27-7.28,4.49-11.07
		c0.84-2.6,2.27-3.89,4.95-3.89c2.27,0,4.53,0,6.94,0c0-4.67,0-8.86,0-13.41c-2.45,0-4.73-0.01-7.01,0
		c-2.53,0.02-3.91-1.23-4.79-3.61c-1.59-4.31-3.3-8.58-5.29-12.71c-1.14-2.36-0.96-4.19,0.9-5.86c1.72-1.54,3.53-2.96,5.12-4.28
		c-3.64-3.7-6.67-6.77-10.13-10.29c-1.31,1.51-2.66,3.06-4.01,4.62c-2.08,2.4-4.2,2.5-7.06,0.97c-3.71-1.99-7.7-3.53-11.7-4.86
		c-2.76-0.92-4.01-2.47-3.96-5.28c0.04-2.15,0.01-4.31,0.01-6.54c-4.65,0-8.92,0-13.35,0c0,2.59,0.45,5.02-0.14,7.17
		c-0.46,1.67-1.92,3.57-3.45,4.36c-4.07,2.09-8.5,3.47-12.62,5.48c-2.34,1.14-4.18,1.06-5.9-0.75c-1.64-1.73-3.16-3.57-4.66-5.28
		c-3.65,3.6-6.66,6.56-10.15,10c1.51,1.31,2.95,2.61,4.44,3.85c2.65,2.21,2.93,4.49,1.21,7.63c-1.96,3.58-3.38,7.49-4.71,11.38
		c-0.91,2.68-2.34,4.12-5.23,4.03c-2.25-0.07-4.5-0.01-6.63-0.01c0,4.77,0,8.98,0,13.39c2.08,0,3.9,0.12,5.71-0.02
		c3.66-0.28,5.44,1.37,6.44,4.9c1.01,3.58,2.46,7.13,4.33,10.34c1.9,3.26,1.55,5.66-1.22,7.94c-1.47,1.21-2.96,2.4-4.42,3.58
		C28.75,137.73,31.73,140.71,35.13,144.1z"/>
	<path class="st2" d="M54,78.05c0,4.19,0.09,7.43-0.03,10.66c-0.1,2.52,0.92,4.18,3.18,5.17c0.33,0.15,0.63,0.36,0.96,0.52
		c10.95,5.59,10.92,5.55,21.81-0.28c2.41-1.29,3.65-2.93,3.49-5.75c-0.17-3.11-0.04-6.24-0.04-9.52c4.22,2.2,7.6,8.41,7.93,14.46
		c0.53,9.8-3.55,17.23-12.08,21.94c-2.87,1.59-3.95,3.46-3.91,6.62c0.13,9.72,0.05,19.44,0.05,29.16c0,1.31,0,2.62,0,4.12
		c-4.56,0-8.74,0-13.33,0c0-5.84,0-11.52,0-17.19c0-5.22-0.16-10.45,0.05-15.67c0.14-3.45-1.01-5.47-4.18-7.19
		c-12.96-7.02-15.85-23.86-6.22-34.9C52.13,79.67,52.71,79.23,54,78.05z"/>
</g>
</svg>
