<?xml version="1.0" encoding="utf-8"?>
<!-- Generator: Adobe Illustrator 24.3.0, SVG Export Plug-In . SVG Version: 6.00 Build 0)  -->
<svg version="1.1" id="Layer_1" xmlns="http://www.w3.org/2000/svg" xmlns:xlink="http://www.w3.org/1999/xlink" x="0px" y="0px"
	 width="108px" height="108px" viewBox="0 0 108 108" style="enable-background:new 0 0 108 108;" xml:space="preserve">
<style type="text/css">
	.st0{fill:#00B0FB;}
	.st1{fill:#00B0FB;fill-opacity:0.4;}
	.st2{fill:#FFFFFF;}
	.st3{fill:none;}
	.st4{fill:#001135;}
	.st5{fill:#3C7CFF;}
	.st6{fill:#3C7CFF;stroke:#001135;stroke-width:0.7602;stroke-miterlimit:10;}
	.st7{fill:#DBDBDB;}
	.st8{fill:#B9B9B9;}
	.st9{fill:#080808;}
	.st10{fill:#060606;}
	.st11{fill:#070707;}
	.st12{fill:#121212;}
	.st13{fill:#111111;}
	.st14{fill:#090909;}
	.st15{fill:#FDFDFD;}
	.st16{fill:#F9F9F9;}
	.st17{fill:#F3F2F3;}
	.st18{fill:#FAFAFA;}
	.st19{fill:#0A0A0A;}
	.st20{fill:#EEEEEE;}
	.st21{fill:#0D0D0D;}
	.st22{fill:#0C0C0C;}
	.st23{fill:#0E0E0E;}
	.st24{fill:#050505;}
	.st25{fill:#3A3A3A;}
	.st26{fill:#525252;}
	.st27{fill:#474747;}
	.st28{fill:#1E1E1E;}
	.st29{fill:#1D1D1D;}
	.st30{fill:#222222;}
	.st31{fill:#494949;}
	.st32{fill:#585858;}
	.st33{fill:#EDEDED;}
	.st34{fill:#F0F0F0;}
	.st35{fill:#EAEAEA;}
	.st36{fill:#EAE9EA;}
	.st37{fill:#040404;}
	.st38{fill:#F4F3F4;}
	.st39{fill:#030303;}
	.st40{fill:#E8E8E8;}
	.st41{fill:#0C0C0B;}
	.st42{fill:#0D0D0C;}
	.st43{fill:#919191;}
	.st44{fill:#909090;}
	.st45{fill:#0E0E0D;}
	.st46{fill:#0C0D0C;}
	.st47{fill:#090908;}
	.st48{fill:#141414;}
	.st49{fill:#4C4D4D;}
	.st50{fill:#737474;}
	.st51{fill:#242424;}
	.st52{fill:#202020;}
	.st53{fill:#101010;}
	.st54{fill:#0D0E0D;}
	.st55{fill:#111212;}
	.st56{fill:#0B0B0B;}
	.st57{fill:#0D0C0C;}
	.st58{fill:#E7E7E7;}
	.st59{fill:#272727;}
	.st60{fill:#2E2E2E;}
	.st61{fill:#1F1E1E;}
	.st62{fill:#1B1A1A;}
	.st63{fill:#E6E6E6;}
	.st64{fill:#0F0E0E;}
	.st65{fill:#F2F2F2;}
	.st66{fill:#F4F3F3;}
	.st67{fill:#F9F8F8;}
	.st68{fill:#F1F1F0;}
	.st69{fill:#F6F6F6;}
	.st70{fill:#F5F6F6;}
	.st71{fill:#F5F5F5;}
	.st72{fill:#2C2C2C;}
	.st73{fill:#252625;}
	.st74{fill:#303030;}
	.st75{fill:#2D2D2C;}
	.st76{fill:#2D2D2D;}
	.st77{fill:#262727;}
	.st78{fill:#191919;}
	.st79{fill:#1B1B1B;}
	.st80{fill:#F7F7F7;}
	.st81{fill:#F6F7F7;}
	.st82{fill:#F9F9FA;}
	.st83{fill:#F4F4F4;}
	.st84{fill:#F8F8F8;}
	.st85{fill:#FCFCFC;}
	.st86{fill:#FBFBFB;}
	.st87{fill:#E2E1E2;}
	.st88{fill:#D8D7D8;}
	.st89{fill:#0F0F0F;}
	.st90{fill:#161616;}
	.st91{fill:#181818;}
	.st92{fill:#131313;}
	.st93{fill-rule:evenodd;clip-rule:evenodd;fill:#00B0FB;}
	.st94{fill:#030302;}
	.st95{fill:#D2D3D3;}
	.st96{fill:#1F1F1F;}
	.st97{fill:#0E0D0E;}
	.st98{fill:#BABBBB;}
	.st99{fill:#8A8A8A;}
	.st100{fill:#8E8F8F;}
	.st101{fill:#464746;}
	.st102{fill:#5F5E5E;}
	.st103{fill:#151414;}
	.st104{fill:#282828;}
	.st105{fill:#030202;}
	.st106{fill:#040403;}
	.st107{fill:#040303;}
	.st108{fill:#202021;}
	.st109{fill:#020202;}
	.st110{fill:#050506;}
	.st111{fill:#010101;}
	.st112{fill:#F3F3F3;}
	.st113{fill:#F1F1F1;}
	.st114{fill:#FAFAF9;}
	.st115{fill:#040504;}
	.st116{fill:#070708;}
	.st117{fill:#131212;}
	.st118{fill:#070808;}
	.st119{fill:#3C3C3C;}
	.st120{fill:#FEFEFE;}
	.st121{fill:#47C5FB;}
	.st122{fill:#00569E;}
	.st123{fill:#00B5F8;}
	.st124{fill:url(#SVGID_1_);fill-opacity:0.8;}
	.st125{fill-rule:evenodd;clip-rule:evenodd;fill:#00D8FF;}
	.st126{fill:#00D8FF;}
	.st127{fill:url(#SVGID_2_);}
	.st128{fill:url(#SVGID_3_);}
	.st129{fill:url(#SVGID_4_);}
	.st130{fill:url(#SVGID_5_);}
	.st131{fill:#3C7DFE;}
	.st132{fill:#A4C639;}
	.st133{fill:none;stroke:#A4C639;stroke-width:10.5192;stroke-linecap:round;stroke-linejoin:round;stroke-miterlimit:14.0256;}
	.st134{fill:#D6D6D6;}
	.st135{fill:#030203;}
	.st136{fill:#070606;}
	.st137{fill:#010100;}
	.st138{fill:#020201;}
</style>
<g>
	<path class="st0" d="M18,108h74.6c0-5.7-4.6-10.3-10.3-10.3h-54C22.6,97.7,18,102.3,18,108z M44.8,84.9l-2.2,7.7h22.8l-2.2-7.7
		H44.8z"/>
	<circle class="st0" cx="29.6" cy="37.3" r="3.9"/>
	<circle class="st0" cx="18" cy="15.4" r="2.6"/>
	<circle class="st0" cx="46.3" cy="25.7" r="2.6"/>
	<path class="st0" d="M0,74.6c0,2.8,2.3,5.1,5.1,5.1h97.7c2.8,0,5.1-2.3,5.1-5.1v-7.7H0V74.6z M102.9,0H5.1C2.3,0,0,2.3,0,5.1v56.6
		h108V5.1C108,2.3,105.7,0,102.9,0z M61.7,10.3h23.1c1.4,0,2.6,1.2,2.6,2.6c0,1.4-1.2,2.6-2.6,2.6H61.7c-1.4,0-2.6-1.2-2.6-2.6
		C59.1,11.4,60.3,10.3,61.7,10.3z M46.3,33.4c-1.1,0-2.3-0.3-3.3-0.8l-4.4,4.4v0.2c0,5-4.1,9-9,9c-5,0-9-4.1-9-9
		c0-1.8,0.6-3.6,1.6-5.1l-3.4-9H18c-4.3,0-7.7-3.4-7.7-7.7c0-4.3,3.4-7.7,7.7-7.7c4.3,0,7.7,3.4,7.7,7.7c0,2.1-0.8,4-2.3,5.5l3,8
		c1-0.4,2.1-0.6,3.1-0.6c2.8,0,5.4,1.3,7,3.5l2.7-2.7c-0.5-1-0.7-2.2-0.7-3.3c0-4.3,3.5-7.7,7.7-7.7s7.7,3.5,7.7,7.7
		S50.5,33.4,46.3,33.4z M92.6,54H61.7c-1.4,0-2.6-1.2-2.6-2.6c0-1.4,1.2-2.6,2.6-2.6h30.9c1.4,0,2.6,1.2,2.6,2.6
		C95.1,52.8,94,54,92.6,54z M59.1,38.6c0-1.4,1.2-2.6,2.6-2.6H90c1.4,0,2.6,1.2,2.6,2.6c0,1.4-1.2,2.6-2.6,2.6H61.7
		C60.3,41.1,59.1,40,59.1,38.6z M95.1,28.3H61.7c-1.4,0-2.6-1.2-2.6-2.6c0-1.4,1.2-2.6,2.6-2.6h33.4c1.4,0,2.6,1.2,2.6,2.6
		C97.7,27.1,96.6,28.3,95.1,28.3z"/>
</g>
</svg>
