<svg width="20" height="19" viewBox="0 0 20 19" fill="none" xmlns="http://www.w3.org/2000/svg">
<path fill-rule="evenodd" clip-rule="evenodd" d="M11.4688 0C12.2797 0 12.9367 0.661323 12.9367 1.47755V2.24465C12.9367 2.6786 13.1948 3.06589 13.5672 3.28327C13.9404 3.50065 14.4004 3.52979 14.7744 3.31325L15.4347 2.92928C16.1364 2.52116 17.0341 2.76354 17.4396 3.46984L18.9083 6.03019C19.3129 6.73648 19.0729 7.64017 18.3704 8.04827L17.7093 8.43224C17.3361 8.64962 17.1309 9.06608 17.1309 9.5C17.1309 9.93392 17.3361 10.3504 17.7093 10.5678L18.3704 10.9517C19.0729 11.3599 19.3129 12.2635 18.9083 12.9698L17.4396 15.5302C17.0341 16.2365 16.1364 16.4788 15.4347 16.0707L14.7744 15.6868C14.4004 15.4702 13.9404 15.4993 13.5672 15.7167C13.1948 15.9341 12.9367 16.3214 12.9367 16.7554V17.5225C12.9367 18.3387 12.2797 19 11.4688 19H8.53228C7.7214 19 7.0644 18.3387 7.0644 17.5225V16.7554C7.0644 16.3214 6.80623 15.9341 6.43389 15.7167C6.06072 15.4994 5.60066 15.4702 5.22666 15.6868L4.56719 16.0707C3.8647 16.4788 2.96692 16.2365 2.56147 15.5302L1.0936 12.9698C0.688145 12.2635 0.928109 11.3598 1.63061 10.9517L2.29174 10.5678C2.66491 10.3504 2.87012 9.93392 2.87012 9.5C2.87012 9.06608 2.66492 8.64962 2.29174 8.43224L1.63061 8.04827C0.92812 7.64015 0.688166 6.73648 1.0936 6.03019L2.56147 3.46984C2.96692 2.76355 3.86468 2.52118 4.56719 2.92928L5.22666 3.31325C5.60066 3.5298 6.06072 3.50065 6.43389 3.28327C6.80623 3.06589 7.0644 2.6786 7.0644 2.24465V1.47755C7.0644 0.661323 7.7214 0 8.53228 0H11.4688ZM10.0009 13.2996C12.0852 13.2996 13.7756 11.5988 13.7756 9.50002C13.7756 7.40121 12.0852 5.70044 10.0009 5.70044C7.91577 5.70044 6.22537 7.40121 6.22537 9.50002C6.22537 11.5988 7.91583 13.2996 10.0009 13.2996Z" fill="#3381FF"/>
</svg>
