<?xml version="1.0" encoding="utf-8"?>
<!-- Generator: Adobe Illustrator 25.0.0, SVG Export Plug-In . SVG Version: 6.00 Build 0)  -->
<svg version="1.1" id="Layer_1" xmlns="http://www.w3.org/2000/svg" xmlns:xlink="http://www.w3.org/1999/xlink" x="0px" y="0px"
	 viewBox="0 0 564.27 478" style="enable-background:new 0 0 564.27 478;" xml:space="preserve">
<style type="text/css">
	.st0{fill:#185AE9;}
	.st1{fill-rule:evenodd;clip-rule:evenodd;fill:#00B0FB;}
	.st2{fill:#00B0FB;}
	.st3{fill:#00B0FB;fill-opacity:0.4;}
	.st4{fill:#FFFFFF;}
	.st5{fill:#3C7CFF;}
	.st6{fill:#001135;}
	.st7{fill:#FDFDFD;}
	.st8{fill:#DBDBDB;}
	.st9{fill:#040404;}
	.st10{fill:#080808;}
	.st11{fill:#060606;}
	.st12{fill:#101010;}
</style>
<g>
	<path d="M217.21,460.92c0.17-5.26,1.86-10.17,3.9-14.98c5.48-12.72,13.33-23.95,21.76-34.8c4.88-6.28,9.96-12.38,15.2-18.33
		c1.52-1.73,3.06-3.45,4.61-5.15c2.36-2.61,4.77-5.19,7.2-7.74c1.74-1.83,3.49-3.65,5.26-5.45c6.01-6.14,12.18-12.14,18.46-18.02
		c0.89-0.84,1.79-1.67,2.7-2.51c0.68-0.64,1.37-1.28,2.06-1.91c4.12-3.8,8.29-7.56,12.48-11.27c0.26-0.24,0.52-0.47,0.79-0.7
		c4.23-3.75,8.5-7.46,12.81-11.12c0.59-0.5,1.19-1.01,1.79-1.51c0.57-0.49,1.15-0.98,1.74-1.46c0.17-0.15,0.35-0.29,0.52-0.43
		c10.51-8.84,21.23-17.43,32.15-25.73c1.07-0.81,2.14-1.62,3.22-2.44c0.15-0.11,0.3-0.23,0.45-0.34c3.47-2.62,6.97-5.2,10.48-7.77
		c3.23-2.35,6.47-4.68,9.73-6.97c1.17-0.84,2.35-1.67,3.53-2.49c11.53-8.07,23.28-15.85,35.24-23.33c1.83-1.15,3.67-2.29,5.51-3.42
		c1.12-0.69,2.24-1.38,3.36-2.06c5.73-3.49,11.51-6.91,17.35-10.22c1.54-0.88,3.09-1.75,4.65-2.61c14.94-8.3,30.27-15.85,46.2-22.2
		c13.97-5.54,28.14-10.4,43.57-11.02c2.2,0.23,4.58,0.17,6.9,0.51c8.81,1.41,13.56,6.95,13.44,15.82
		c-0.04,4.81-1.36,9.27-3.11,13.67c-4.57,11.59-11.35,21.88-18.7,31.77c-9.17,12.33-19.13,23.93-29.64,35.03
		c-1.43,1.52-2.88,3.02-4.33,4.52c-1,1.04-2.02,2.07-3.03,3.1c-0.97,1-1.95,1.98-2.93,2.96c-1.76,1.76-3.53,3.5-5.31,5.25
		c-0.03,0.03-0.07,0.07-0.11,0.1c-0.94,0.93-1.9,1.85-2.85,2.76c-0.2,0.2-0.4,0.39-0.6,0.57c0,0.03-0.01,0.03-0.01,0.03
		c-0.12,0.11-0.23,0.22-0.35,0.33c-2.87,2.77-5.78,5.52-8.71,8.24c-1.03,0.96-2.07,1.91-3.1,2.86c-0.71,0.67-1.43,1.33-2.15,1.99
		c-0.7,0.64-1.41,1.28-2.12,1.92c-0.53,0.48-1.06,0.98-1.61,1.46c-0.56,0.51-1.12,1.01-1.68,1.5c-2.26,2.05-4.54,4.07-6.83,6.08
		c-0.28,0.23-0.55,0.48-0.82,0.71c-0.1,0.09-0.19,0.18-0.29,0.26c-0.58,0.5-1.15,1-1.73,1.5c-0.27,0.24-0.54,0.48-0.8,0.69
		c-2.78,2.42-5.57,4.81-8.38,7.17c-1.14,0.97-2.27,1.92-3.41,2.87c-1.06,0.89-2.12,1.76-3.19,2.64c-2.21,1.83-4.45,3.66-6.69,5.47
		c-0.01,0-0.01,0-0.01,0.01c-2.18,1.76-4.36,3.51-6.55,5.24c-0.2,0.16-0.41,0.32-0.61,0.48c-0.93,0.74-1.86,1.48-2.8,2.21
		c-0.92,0.72-1.84,1.43-2.76,2.14c-1.2,0.95-2.41,1.88-3.63,2.81c-3.76,2.89-7.54,5.76-11.35,8.58c-0.81,0.61-1.62,1.22-2.43,1.82
		c-1.77,1.31-3.54,2.61-5.32,3.9c-1.03,0.75-2.06,1.49-3.09,2.23c-2.56,1.87-5.15,3.71-7.74,5.54c-0.05,0.03-0.09,0.07-0.14,0.1
		c-0.15,0.11-0.29,0.2-0.44,0.31c-0.84,0.59-1.66,1.17-2.51,1.75c-0.16,0.11-0.32,0.22-0.48,0.33c-0.09,0.07-0.19,0.14-0.29,0.2
		c-3.62,2.55-7.25,5.05-10.92,7.52c-2.47,1.69-4.95,3.35-7.44,4.99c-1,0.67-2,1.34-3.02,1.98c-0.26,0.17-0.5,0.33-0.76,0.5
		c-0.89,0.59-1.78,1.17-2.68,1.76c-1.06,0.67-2.11,1.36-3.17,2.04c-4.61,2.94-9.26,5.84-13.95,8.67c-1.07,0.66-2.14,1.3-3.21,1.94
		c-0.8,0.48-1.59,0.95-2.38,1.42c-1.06,0.63-2.13,1.26-3.2,1.89c-6.44,3.76-12.94,7.41-19.54,10.93c-3.81,2.03-7.64,4.02-11.5,5.95
		c-0.98,0.51-1.96,0.99-2.94,1.49c-3.01,1.49-6.03,2.95-9.06,4.37v0.01c-1.34,0.62-2.67,1.24-4.01,1.84
		c-2.28,1.04-4.58,2.05-6.89,3.03c-9.41,3.99-19.04,7.48-29.02,10.12c-8.64,2.26-17.35,3.95-26.38,2.82
		C221.9,476.4,216.87,470.64,217.21,460.92z"/>
	<g>
		<path class="st8" d="M104.71,189.73c7.66-0.01,15.31-0.06,22.97,0.05c1.86,0.03,2.27-0.6,2.19-2.3c-0.13-2.63-0.03-5.27-0.04-7.91
			c-0.01-2.43-0.5-2.98-2.92-2.98c-14.22-0.04-28.43-0.05-42.65-0.07c-1.93,0-3.86,0.03-5.79-0.03c-3.47-0.12-5.19-1.88-5.2-5.33
			c-0.01-4.05,0.01-8.1,0.05-12.16c0.01-0.62-0.29-1.53,0.93-1.47c1.08,0.05,0.97,0.81,0.97,1.52c-0.02,3.8-0.03,7.59-0.09,11.39
			c-0.05,3.38,0.74,4.18,4.19,4.18c15.25,0.02,30.49,0.03,45.74,0.07c6.04,0.02,6.72,0.74,6.76,6.79c0.01,2.19,0.08,4.38-0.01,6.56
			c-0.06,1.37,0.42,1.76,1.76,1.75c7.72-0.06,15.44-0.05,23.16-0.05c4.38,0,5.42,1.07,5.42,5.49c0,1.38,0,2.77,0,4.15
			c13.9-0.01,33.93,0,47.81,0c1.42,0,2.83,0,4.25-0.01c2.47-0.01,2.47-0.01,2.47-2.58c0.01-9.97,0.02-19.95,0.02-29.92
			c0-41.89-0.02-83.78,0.03-125.68c0-1.85-0.49-2.35-2.35-2.35C145.37,38.91,76.39,38.92,7.4,38.93c-0.77,0-1.55,0.07-2.32,0
			c-0.93-0.09-1.53,0.11-1.78,0.68c0,0.1,0,0.2,0,0.3C3.3,88.42,3.29,148.51,3.28,197.02c0,2.35,0.01,2.36,2.75,2.36
			c28.57,0,62.92,0,91.49-0.01c0.71,0,1.42,0.05,2.12,0c0.04,0,0.08,0,0.12-0.01c0-1.58,0-3.17,0-4.75
			C99.76,191.15,101.18,189.73,104.71,189.73z M85.01,152.38c-0.44,0-0.89,0-1.33,0c0-0.01,0-0.01,0-0.02
			c-0.51,0-1.02,0.03-1.52-0.01c-0.74-0.06-0.96-0.6-0.83-1.22c0.39-1.93,1.93-0.82,2.95-1.05c0.87-0.19,1.68-0.01,1.69,1.17
			C85.98,151.93,85.75,152.37,85.01,152.38z M75.19,129.04c-0.03,4.57,0.02,9.13,0,13.7c0,0.68,0.4,1.71-0.86,1.76
			c-1.43,0.06-0.99-1.09-1-1.81c-0.05-2.76-0.02-5.53-0.02-8.3c-0.01,0-0.01,0-0.02,0c0-2.64,0.09-5.28-0.03-7.91
			c-0.08-1.7,0.51-2.2,2.2-2.22c14.79-0.12,29.58-0.32,44.37-0.5c1.35-0.02,2.71,0.01,4.05-0.09c1.62-0.13,2.89-0.77,2.91-2.67
			c0.01-0.67,0.17-1.12,0.96-1.12c0.81,0.01,0.89,0.54,0.95,1.16c0.25,2.48-1.83,4.49-4.86,4.54c-6.3,0.11-12.6,0.14-18.9,0.22
			c-9,0.12-18,0.22-27.01,0.38C74.69,126.24,75.21,125.92,75.19,129.04z M92.41,151.74c-0.47,1.14-1.57,0.42-2.34,0.67
			c-0.77-0.19-1.77,0.39-2.2-0.67c-0.22-0.54-0.19-1.35,0.4-1.51c1.22-0.33,2.54-0.35,3.76,0
			C92.65,150.41,92.61,151.24,92.41,151.74z M99.04,151.5c-0.04,0.52-0.31,0.83-0.85,0.85c-0.77,0.02-1.53,0-2.3,0.02
			c-0.84,0.02-1.54-0.07-1.55-1.17c-0.02-1.18,0.78-1.12,1.57-1.12c0.32,0,0.64,0,0.96,0c0-0.01,0-0.03,0-0.04
			c0.57,0.03,1.19-0.05,1.71,0.13C99.14,150.36,99.08,150.99,99.04,151.5z M104.37,152.39c-0.38-0.03-0.77-0.01-1.15-0.01
			c0,0,0-0.01,0-0.01c-0.38,0-0.77-0.01-1.15,0c-0.81,0.02-1.18-0.38-1.16-1.17c0.02-0.68,0.34-1.08,1.05-1.1
			c0.83-0.02,1.67,0,2.49-0.05c0.83-0.05,1.16,0.35,1.19,1.12C105.69,152.08,105.27,152.47,104.37,152.39z M111.94,152.09
			c-0.6,0.58-1.46,0.18-2.19,0.3c-0.67-0.12-1.45,0.26-2-0.32c-0.48-0.52-0.47-1.17,0.02-1.72c0.39-0.43,3.87-0.45,4.2-0.01
			C112.42,150.91,112.43,151.61,111.94,152.09z M117.69,152.37c-0.38-0.02-0.77,0-1.15,0c-0.45,0-0.9,0-1.35,0
			c-0.81,0-1.16-0.43-1.13-1.21c0.02-0.69,0.35-1.07,1.06-1.08c0.83-0.01,1.67,0.02,2.5-0.03c0.82-0.05,1.18,0.33,1.18,1.12
			C118.8,151.9,118.55,152.41,117.69,152.37z M127.29,160.06c1.03,0.01,1.07,0.68,1.09,1.41c0.01,0.32,0,0.64,0,0.96
			c0,0-0.01,0-0.01,0c0,0.51,0.02,1.02-0.01,1.53c-0.04,0.66-0.49,0.81-1.06,0.81c-0.58,0-1.02-0.15-1.04-0.82
			c-0.03-0.83-0.04-1.66-0.04-2.49C126.22,160.73,126.23,160.05,127.29,160.06z M126.26,157.4c0.02-0.68,0.49-0.81,1.05-0.82
			c0.55,0,1.03,0.08,1.04,0.81c-0.03,0.67-0.52,0.79-1.06,0.81C126.74,158.22,126.24,158.12,126.26,157.4z M127.18,171.65
			c-0.97-0.03-0.92-0.68-0.93-1.32c-0.01-0.38,0-0.76,0-1.15c0,0,0.01,0,0.01,0c0-0.51-0.01-1.02,0-1.53
			c0.02-0.62,0.35-0.91,0.97-0.92c0.68-0.02,1.12,0.23,1.14,0.96c0.02,0.89,0.01,1.78,0.03,2.68
			C128.41,171.2,128.12,171.68,127.18,171.65z M127.15,156.02c-2.4-0.06-6.46-3.08-6.47-4.81c-0.01-2.98,3.67-6.55,6.72-6.51
			c3.29,0.05,5.7,2.68,5.58,6.07C132.86,153.66,130.16,156.1,127.15,156.02z M127.25,110.64c-2.98-0.04-5.44-2.41-5.49-5.29
			c-0.05-3.41,2.49-5.98,5.9-5.98c3.28,0.01,5.59,2.42,5.56,5.8C133.2,108.25,130.54,110.68,127.25,110.64z M139.42,152.11
			c-0.56,0.55-1.35,0.18-2.03,0.29c-0.68-0.1-1.49,0.25-2.02-0.33c-0.48-0.52-0.43-1.2,0.06-1.74c0.4-0.43,3.74-0.41,4.07,0.03
			C139.94,150.94,139.93,151.61,139.42,152.11z M152.01,152.34c-0.75,0.12-1.53,0.02-2.3,0.03c-0.88,0.02-1.52-0.19-1.49-1.25
			c0.03-0.98,0.64-1.13,1.43-1.1c0.38,0.01,0.77,0,1.26,0c0.55,0.11,1.45-0.35,1.83,0.41C153.11,151.18,153.24,152.15,152.01,152.34
			z M159.41,151.55c-0.61,1.65-2.07,0.61-3.14,0.81c-0.73,0.14-1.41-0.04-1.44-1.04c-0.02-0.72,0.1-1.28,0.99-1.27
			c0.44,0,0.89,0,1.33,0c0,0,0,0,0,0.01c0.51,0,1.02-0.06,1.52,0.01C159.57,150.21,159.61,151.01,159.41,151.55z M165.2,152.32
			c-0.82,0.07-1.65,0.03-2.48,0.05c-0.8,0.02-1.36-0.21-1.36-1.16c0-0.92,0.48-1.23,1.32-1.18c0.32,0.02,0.64,0,0.95,0
			c0,0.01,0,0.02,0,0.03c0.51,0,1.02-0.01,1.53,0c0.64,0.02,0.87,0.43,0.89,1.01C166.07,151.69,165.94,152.26,165.2,152.32z
			 M177.64,183.68c-0.08,0.82-0.01,1.66-0.01,2.5c0.01,4.21,0.01,4.21-4.27,4.17c-0.51-0.01-1.03-0.05-1.54-0.01
			c-1.08,0.09-1.48-0.37-1.43-1.45c0.07-1.92,0.08-3.84,0.03-5.76c-0.02-1.09,0.42-1.49,1.48-1.45c1.28,0.05,2.57,0.12,3.84,0
			C177.36,181.51,177.79,182.24,177.64,183.68z M186.22,190.35c-1.41-0.07-2.82-0.04-4.23,0.03c-1.15,0.06-1.6-0.37-1.56-1.55
			c0.07-2.11,0.02-4.23,0.02-6.34c0,0-0.01,0-0.01,0c0-1.99,0.04-3.97-0.02-5.96c-0.03-1.07,0.36-1.57,1.44-1.5
			c0.13,0.01,0.26,0,0.38,0c5.49-0.14,5.49-0.14,5.49,5.29c0,2.82-0.05,5.64,0.01,8.46C187.77,189.92,187.42,190.4,186.22,190.35z
			 M183.64,146.6c-1.51-0.01-1.57,0.45-1.09,1.8c1.43,3.99-1.1,7.75-5.35,7.82c-1.7-0.07-3.48-0.72-4.57-2.36
			c-0.78-1.18-1.59-1.65-2.95-1.51c-0.82,0.09-1.73,0.1-1.72-1.2c0.01-1.35,0.99-1.17,1.77-1.1c1.27,0.12,1.89-0.32,2.39-1.57
			c1.15-2.89,3.65-4.21,6.67-3.47c1.3,0.32,2.34-0.29,3.53-0.29c6.1,0.04,12.2-0.02,18.31,0c3.1,0.01,5.35,1.63,5.94,4.22
			c0.14,0.61,0.58,1.49-0.37,1.82c-0.99,0.34-1.3-0.33-1.47-1.23c-0.36-1.93-1.76-2.88-3.57-2.91
			C195.33,146.56,189.49,146.63,183.64,146.6z M176.13,130.16c-0.11-0.62-0.01-1.27-0.02-1.91c-0.02-0.69,0.36-1.15,0.98-1.2
			c0.73-0.05,1.17,0.44,1.22,1.19c0.04,0.63,0.01,1.27,0.01,2.11c-0.28,0.84,0.73,2.74-1,2.8
			C175.32,133.22,176.34,131.26,176.13,130.16z M178.37,139c0,0.64,0.04,1.27-0.01,1.91c-0.06,0.66-0.48,1.06-1.14,1.02
			c-0.66-0.03-1.04-0.43-1.05-1.12c-0.01-1.27-0.02-2.54-0.02-3.82c0-0.68,0.4-1.1,1.04-1.12c0.64-0.02,1.1,0.38,1.16,1.03
			C178.4,137.59,178.36,138.3,178.37,139C178.36,139,178.36,139,178.37,139z M197.8,179.2c-0.01,0-0.02,0-0.03,0
			c0,3.15-0.04,6.3,0.02,9.46c0.02,1.2-0.3,1.67-1.61,1.72c-5.66,0.22-5.66,0.26-5.65-5.32c0-4.89,0.08-9.78-0.04-14.67
			c-0.05-1.84,0.58-2.41,2.33-2.22c1.14,0.12,2.32,0.08,3.47,0c1.22-0.09,1.56,0.44,1.54,1.58
			C197.76,172.89,197.8,176.04,197.8,179.2z M207.81,175.33c-0.01,0-0.02,0-0.03,0c0,4.5-0.03,9,0.02,13.5
			c0.01,1.14-0.3,1.65-1.52,1.58c-1.47-0.09-2.96-0.06-4.43-0.04c-0.98,0.02-1.34-0.38-1.33-1.38c0.03-9.06,0.04-18.12,0.02-27.19
			c0-1.21,0.38-1.79,1.66-1.72c1.28,0.07,2.58,0.07,3.85-0.02c1.36-0.1,1.79,0.45,1.77,1.78
			C207.77,166.33,207.81,170.83,207.81,175.33z M145.64,104.62c1.76,0.14,1.8-0.81,1.8-2.11c-0.01-17.24,0.04-34.49-0.03-51.73
			c-0.01-1.96,0.53-2.5,2.48-2.5c18.59,0.05,37.19,0.04,55.78-0.04c1.81-0.01,2.12,0.69,2.12,2.27c-0.05,11.97-0.03,23.93-0.03,35.9
			c-0.01,0-0.01,0-0.02,0c0,11.9-0.03,23.81,0.03,35.71c0.01,1.73-0.42,2.36-2.26,2.35c-18.66-0.05-37.32-0.04-55.98,0.01
			c-1.59,0-2.15-0.45-2.12-2.06c0.08-4.57-0.02-9.14,0.03-13.7c0.02-1.35-0.26-2-1.79-1.93c-1,0.04-2.75,0.64-2.69-1.17
			C143.03,104.06,144.68,104.54,145.64,104.62z M143.25,150.03c0.32,0,0.63,0,1.05,0c0.57,0.1,1.34-0.27,1.88,0.36
			c0.58,0.67,0.04,1.87-0.9,1.97c-0.69,0.08-1.39,0-2.09,0.01c-0.85,0.02-1.5-0.14-1.5-1.21
			C141.69,150.01,142.46,150.03,143.25,150.03z M140.37,105.84c-0.07,0.64-0.56,0.96-1.24,0.95c-0.64-0.01-1.28,0-1.92,0
			c-0.64,0-1.28,0.02-1.92,0c-0.64-0.02-1.16-0.3-1.17-1c-0.01-0.65,0.41-1.12,1.06-1.16c1.34-0.07,2.69-0.07,4.03-0.03
			C139.94,104.62,140.45,105.08,140.37,105.84z M14.52,47.98c40.91,0.04,81.81,0.04,122.72,0.01c1.58,0,2.15,0.42,2.14,2.05
			c-0.07,9-0.07,18.01-0.06,27.01c0,1.18-0.3,1.71-1.64,1.71c-20.65-0.04-41.29-0.03-61.94-0.03c0-0.02,0-0.04,0-0.05
			c-20.26,0-40.52,0-60.78,0c-2.57,0-2.57,0-2.57-2.47c-0.01-8.68,0.03-17.37-0.06-26.05C12.31,48.44,12.84,47.98,14.52,47.98z
			 M14.34,85.87c28.5,0.02,57.01,0,85.51-0.02c7.91,0,15.83-0.01,23.74,0.01c3.6,0.01,5.04,1.46,5.06,5.02
			c0.01,1.93,0.02,3.86-0.02,5.79c-0.01,0.76,0.36,1.84-1.01,1.83c-1.32,0-0.84-1.06-0.87-1.72c-0.06-1.74-0.02-3.47-0.03-5.21
			c-0.01-3.17-0.55-3.73-3.67-3.73c-15.57,0-31.14,0-46.71-0.01c-19.56,0-39.12,0-58.68,0c-3.41,0-3.44,0.01-3.45,3.32
			c-0.02,7.66,0.05,15.31-0.05,22.97c-0.02,1.76,0.47,2.27,2.25,2.27c24.71-0.06,49.41-0.04,74.12-0.05
			c11.26,0,22.52-0.08,33.78,0.02c2.05,0.02,2.65-0.66,2.39-2.51c-0.05-0.38,0.01-0.77,0-1.16c-0.02-0.66,0.31-0.9,0.94-0.9
			c0.59,0,1.02,0.12,1.01,0.82c-0.02,1.54-0.05,3.09-0.05,4.63c0,0.79-0.52,0.96-1.14,1c-0.77,0.05-1.54,0.07-2.31,0.07
			c-18.34,0-36.67,0-55.01,0c-18.59,0-37.19-0.02-55.78,0.04c-1.66,0.01-2.23-0.4-2.22-2.13c0.06-9.39,0.04-18.79-0.05-28.18
			C12.07,86.31,12.69,85.87,14.34,85.87z M118.06,105.97c0.04,0.65-0.45,1.11-1.07,1.13c-1.72,0.05-3.44,0.04-5.16-0.02
			c-0.54-0.02-0.94-0.44-0.96-1.02c-0.03-0.69,0.44-1.07,1.06-1.11c0.89-0.06,1.78-0.02,2.67-0.02c0-0.01,0-0.03,0-0.04
			c0.76,0,1.53-0.04,2.29,0.01C117.54,104.94,118.02,105.34,118.06,105.97z M104.81,109.79c0.01,1.23-0.58,1.73-1.77,1.73
			c-3.47,0.01-6.95,0.05-10.42,0.06c-1.27,0-1.84-0.68-1.83-1.95c0.02-2.32,0.01-4.63-0.02-6.95c-0.01-1.32,0.68-1.84,1.93-1.83
			c1.74,0.02,3.47,0,5.21,0c0-0.01,0-0.02,0-0.02c1.67,0,3.35,0.02,5.02-0.01c1.28-0.02,1.91,0.5,1.89,1.83
			C104.79,105.03,104.78,107.41,104.81,109.79z M22.82,107.84c-0.45,0-0.9,0.03-1.35-0.04c-0.7-0.1-0.93-0.6-0.91-1.25
			c0.02-0.62,0.36-0.93,0.97-0.96c0.32-0.02,0.64-0.02,0.96-0.02c11.82-0.02,23.65-0.03,35.47-0.05c0.81,0,1.78-0.22,1.8,1.1
			c0.03,1.38-0.94,1.27-1.86,1.27c-5.91,0-11.82,0-17.73,0c0-0.02,0-0.04,0-0.05C34.39,107.84,28.61,107.84,22.82,107.84z
			 M48.52,98.04c0,0.01,0,0.01,0,0.02c-8.68,0-17.37,0-26.05,0c-0.8,0-1.85,0.26-1.85-1.04c0-1.29,1.05-1.06,1.85-1.06
			c17.43-0.01,34.87-0.01,52.3,0.01c0.7,0,1.66-0.31,1.73,0.93c0.08,1.37-0.94,1.14-1.73,1.15C66.02,98.05,57.27,98.04,48.52,98.04z
			 M60.48,152.38c-1.67-0.2-1.84,0.72-1.84,2.07c0.02,6.56-0.07,13.12-0.02,19.68c0.01,1.69-0.37,2.35-2.25,2.34
			c-13.95-0.08-27.91-0.08-41.87,0c-1.95,0.01-2.51-0.51-2.48-2.48c0.12-7.65,0.05-15.31,0.05-22.96c0,0,0,0,0.01,0
			c0-7.65,0.05-15.31-0.04-22.96c-0.02-1.8,0.42-2.43,2.34-2.42c14.02,0.08,28.04,0.07,42.06,0c1.69-0.01,2.24,0.46,2.22,2.17
			c-0.09,6.75-0.02,13.51-0.08,20.26c-0.01,1.41,0.26,2.22,1.88,2c0.88-0.12,1.52,0.17,1.5,1.24
			C61.93,152.35,61.2,152.46,60.48,152.38z M67.51,152.33c-0.89,0.03-1.79,0.03-2.68,0.03c-0.71,0-1.04-0.37-1.04-1.07
			c0-0.65,0.2-1.14,0.94-1.18c0.51-0.03,1.02-0.01,1.53-0.01c0-0.02,0-0.03,0-0.05c0.38,0,0.77,0,1.15,0
			c0.7,0.01,1.06,0.38,1.03,1.08C68.42,151.74,68.28,152.3,67.51,152.33z M68.73,150.88c0-3.13,2.64-5.81,5.71-5.8
			c3.23,0.02,5.67,2.5,5.66,5.76c-0.02,3.25-2.53,5.74-5.73,5.67C71.23,156.45,68.74,153.96,68.73,150.88z"/>
		<path class="st4" d="M214.59,3.23C144.85,3.27,75.12,3.27,5.39,3.22c-1.77,0-2.14,0.6-2.12,2.22C3.35,11.36,3.27,17.28,3.3,23.2
			c0.02,3.66-0.6,3.3,3.27,3.3c34.48,0.02,68.96,0.01,103.44,0.01c0,0,0-0.01,0-0.01c12.67,0,25.35,0,38.02,0
			c21.81,0.01,43.61,0.03,65.42,0.01c3.73,0,3.2,0.54,3.22-3.31c0.03-5.92-0.06-11.84,0.03-17.75
			C216.73,3.79,216.34,3.23,214.59,3.23z M67.21,10.4c-0.14,3.21-0.11,6.43-0.03,9.65c0.04,1.54-0.39,2.18-2.05,2.18
			c-17.5-0.05-35.01-0.04-52.51-0.01c-1.47,0-2.09-0.44-2.05-1.99c0.08-3.41,0.08-6.82-0.02-10.23c-0.05-1.58,0.44-2.13,2.07-2.12
			c8.75,0.06,17.5,0.03,26.25,0.03c0-0.01,0-0.01,0-0.02c8.62,0,17.25,0.06,25.87-0.04C66.75,7.82,67.29,8.49,67.21,10.4z"/>
		<path class="st4" d="M127.19,147.73c-1.48,0.03-2.75,1.24-2.79,2.66c-0.04,1.5,1.27,2.86,2.77,2.87c1.51,0.01,2.89-1.3,2.9-2.76
			C130.08,149.02,128.7,147.69,127.19,147.73z"/>
		<path class="st4" d="M30.43,30.7c-0.69-0.12-1.41-0.08-2.11-0.12c0,0.02,0,0.03,0,0.05c-0.58,0-1.16-0.03-1.73,0.01
			c-1.25,0.07-2.12,0.67-2.15,1.98c-0.03,1.29,0.78,2.01,2.01,2.16c1.34,0.16,2.7,0.19,4.02-0.1c1.04-0.23,1.71-0.89,1.71-2.02
			C32.18,31.52,31.49,30.88,30.43,30.7z"/>
		<path class="st4" d="M41.85,30.67c-0.64-0.04-1.29-0.01-1.93-0.01c0-0.01,0-0.01,0-0.02c-0.51,0-1.03-0.01-1.54,0
			c-1.28,0.02-2.18,0.65-2.23,1.92c-0.06,1.35,0.81,2.15,2.16,2.22c1.22,0.06,2.45,0.06,3.66-0.07c1.23-0.13,2.09-0.88,1.99-2.17
			C43.86,31.39,43.04,30.74,41.85,30.67z"/>
		<path class="st4" d="M193.92,30.68c-0.69-0.12-1.4-0.1-2.1-0.14c0,0.02,0,0.05,0,0.07c-0.58,0-1.15-0.03-1.73,0.01
			c-1.24,0.08-2.11,0.67-2.14,1.99c-0.03,1.31,0.79,2.03,2.03,2.1c1.34,0.08,2.69,0.09,4.02-0.06c1.07-0.12,1.71-0.92,1.7-2.01
			C195.67,31.54,194.98,30.87,193.92,30.68z"/>
		<path class="st4" d="M177.41,147.87c-1.49-0.05-2.86,1.29-2.86,2.79c0,1.4,1.28,2.7,2.7,2.75c1.42,0.05,2.73-1.16,2.81-2.6
			C180.14,149.22,178.96,147.92,177.41,147.87z"/>
		<path class="st4" d="M205.43,30.67c-0.7-0.08-1.41-0.06-2.11-0.04c-1.57,0.04-3.43-0.31-3.67,2.02c-0.15,1.52,1.07,2.17,4.26,2.16
			c0.21-0.01,0.92-0.01,1.61-0.12c1.15-0.18,1.9-0.88,1.88-2.06C207.38,31.43,206.57,30.8,205.43,30.67z"/>
		<path class="st4" d="M151.3,122.59c8.75-0.07,17.5-0.03,26.25-0.03c0-0.02,0-0.04,0-0.06c8.56,0,17.11,0.01,25.67-0.01
			c2.58-0.01,2.59-0.05,2.59-2.66c0-16.47-0.04-32.94,0.02-49.41c0.01-1.84-0.44-2.41-2.31-2.4c-17.43,0.07-34.87,0.06-52.3,0.02
			c-1.43,0-1.84,0.38-1.84,1.83c0.04,16.92,0.03,33.84-0.02,50.76C149.35,122.14,149.77,122.6,151.3,122.59z M181.58,109.97
			c-4.05,0.01-8.1,0-12.16,0c0-0.01,0-0.02,0-0.03c-3.92,0-7.85,0.01-11.77-0.01c-0.73,0-1.75,0.22-1.77-0.92
			c-0.01-1.09,0.95-1.01,1.72-1.01c7.98-0.01,15.95-0.03,23.93-0.04c0.78,0,1.68-0.08,1.64,1.08
			C183.13,110.07,182.27,109.96,181.58,109.97z M197.5,98.94c-13.24,0.01-26.47,0-39.71-0.01c-0.8,0-1.91,0.2-1.9-1.01
			c0.01-1.19,1.11-1,1.92-1c6.62-0.01,13.24,0,19.85,0c0,0.01,0,0.02,0,0.02c6.62,0,13.24-0.01,19.85,0.01
			c0.77,0,1.92-0.29,1.9,0.99C199.4,99.17,198.29,98.94,197.5,98.94z M157.79,75.13c13.26-0.01,26.51-0.02,39.77-0.01
			c0.71,0,1.73-0.3,1.8,0.87c0.08,1.31-1,1.1-1.79,1.1c-6.63,0.01-13.26,0.01-19.88,0.01c0,0.01,0,0.01,0,0.02
			c-6.63,0-13.26,0.01-19.88-0.01c-0.79,0-1.92,0.26-1.92-0.98C155.88,74.92,156.98,75.13,157.79,75.13z M157.61,86.1
			c13.37-0.02,26.75-0.03,40.12-0.05c0.79,0,1.67-0.03,1.61,1.11c-0.05,1.02-0.89,0.92-1.59,0.92c-6.69,0-13.38,0-20.06,0
			c0-0.01,0-0.01,0-0.02c-6.69,0-13.37,0-20.06,0c-0.78,0-1.74,0.11-1.75-0.97C155.86,86.03,156.84,86.1,157.61,86.1z"/>
		<path class="st4" d="M156.91,59.76c8.73,0,17.46-0.01,26.18-0.01c1.05,0,2.25,0.12,2.22-1.4c-0.03-1.44-1.17-1.43-2.25-1.43
			c-4.3,0.01-8.6,0.01-12.9,0c-4.43,0-8.86,0.01-13.28-0.01c-1.11-0.01-2.22,0.05-2.22,1.45C154.65,59.86,155.86,59.76,156.91,59.76
			z"/>
		<path class="st4" d="M127.44,102.21c-1.47-0.04-2.89,1.33-2.87,2.77c0.01,1.43,1.25,2.73,2.66,2.8c1.5,0.08,2.93-1.2,2.98-2.66
			C130.25,103.66,128.92,102.26,127.44,102.21z"/>
		<path class="st4" d="M77.36,150.85c0.02-1.48-1.28-2.73-2.84-2.76c-1.59-0.03-2.86,1.14-2.9,2.68c-0.05,1.57,1.16,2.87,2.69,2.88
			C75.91,153.67,77.34,152.35,77.36,150.85z"/>
		<path class="st4" d="M180.86,30.62c-0.19,0-0.39,0-0.58,0c0,0.01,0,0.02,0,0.03c-0.64,0-1.29-0.03-1.93,0.01
			c-1.26,0.07-2.13,0.71-2.16,2c-0.03,1.32,0.84,1.95,2.09,2.06c0.83,0.07,1.67,0.06,2.51,0.06c1.48,0,3.04-0.09,3.06-2.06
			C183.89,30.74,182.37,30.6,180.86,30.62z"/>
		<path class="st4" d="M14.2,74.38c0,2.48,0,2.5,2.51,2.5c19.69,0.01,39.38,0,59.07,0c0-0.01,0-0.03,0-0.04
			c13.64,0,27.28-0.01,40.93,0c6.31,0.01,12.61,0.06,18.92,0.09c0.87,0,1.85,0.21,1.85-1.25c-0.02-8.24-0.01-16.47,0.01-24.71
			c0-0.84-0.31-1.16-1.12-1.14c-1.16,0.02-2.32-0.03-3.47-0.03c-18.92,0-37.84-0.01-56.76,0c-19.82,0-39.64,0.05-59.46-0.02
			c-2.04-0.01-2.55,0.62-2.52,2.6C14.28,59.71,14.2,67.05,14.2,74.38z"/>
		<path class="st4" d="M63.19,9.77c-8.04,0.09-16.08,0.04-24.12,0.04c0-0.01,0-0.02,0-0.03c-8.17,0-16.34,0.05-24.51-0.04
			c-1.75-0.02-2.21,0.53-2.11,2.19c0.14,2.31,0.09,4.63,0.03,6.94c-0.03,1.19,0.43,1.55,1.58,1.54c3.86-0.04,7.72,0.01,11.58,0
			c12.54-0.01,25.09-0.06,37.63-0.01c1.62,0.01,2.13-0.49,2.04-2.08c-0.12-2.12-0.13-4.25,0.01-6.36
			C65.43,10.29,64.93,9.75,63.19,9.77z M18.56,16.33c-0.91-0.42-2.72,0.65-2.63-1.21c0.07-1.57,1.72-0.89,2.65-0.88
			c1,0.01,2.79-0.73,2.84,0.89C21.48,17.04,19.56,15.91,18.56,16.33z M24.77,16.21c-0.64-0.01-0.85-0.51-0.81-1.08
			c0.03-0.5,0.31-0.88,0.83-0.9c0.62-0.02,0.9,0.38,0.96,0.94C25.63,15.74,25.39,16.22,24.77,16.21z M31.17,16.29
			c-0.32-0.02-0.63,0-0.95,0c0,0,0-0.01,0-0.01c-0.38,0-0.76,0-1.14,0c-0.71,0.01-1.3-0.21-1.33-1.02
			c-0.04-0.98,0.69-1.07,1.43-1.08c0.7,0,1.4,0.01,2.09,0c0.77-0.01,1.48,0.16,1.43,1.09C32.65,16.17,31.94,16.33,31.17,16.29z
			 M42.24,16.31c-0.44-0.02-0.89,0-1.33,0c-0.38,0-0.76-0.01-1.14,0c-0.73,0.02-1.28-0.26-1.32-1.04c-0.04-0.82,0.53-1.06,1.26-1.06
			c0.82,0,1.65,0.01,2.47-0.02c0.81-0.03,1.42,0.2,1.39,1.12C43.54,16.13,42.96,16.34,42.24,16.31z M52.98,16.29
			c-0.32,0-0.64,0-1.12,0c-0.74-0.29-2.43,0.61-2.37-1.11c0.05-1.44,1.58-0.82,2.5-0.97c0.31-0.05,0.64,0,0.96-0.01
			c0.74-0.01,1.5,0.03,1.51,1.01C54.47,16.16,53.74,16.28,52.98,16.29z"/>
		<path class="st4" d="M54.73,127.57c-12.86,0.06-25.72,0.08-38.58,0c-1.87-0.01-2.21,0.64-2.19,2.3
			c0.08,7.07,0.03,14.14,0.03,21.22c-0.01,0-0.01,0-0.02,0c0,7.27,0.02,14.53-0.02,21.8c-0.01,1.21,0.26,1.7,1.58,1.69
			c13.12-0.05,26.23-0.07,39.35-0.03c1.39,0,1.71-0.48,1.71-1.78c-0.03-14.47-0.04-28.93,0.02-43.4
			C56.62,127.88,56.13,127.56,54.73,127.57z"/>
		<path class="st4" d="M157.09,192.07c-8.68-0.01-17.37,0-26.05,0c0,0,0-0.01,0-0.01c-8.75,0-17.5-0.01-26.24,0
			c-2.3,0-2.52,0.25-2.53,2.57c-0.01,12.29-0.02,24.57-0.03,36.86c0,3.28,0,6.56-0.04,9.84c-0.02,1.61,0.68,2.38,2.32,2.33
			c1.67-0.05,3.34-0.04,5.02-0.04c15.76,0,31.52,0.01,47.28,0.01c2.49,0,2.9-0.36,2.9-2.5c0-15.5-0.01-31-0.02-46.5
			C159.69,192.37,159.37,192.07,157.09,192.07z M128.2,203.71c7.53,0,15.05,0,22.58,0c0.84,0,1.83-0.11,1.87,1.1
			c0.04,1.33-1.01,1.26-1.92,1.26c-3.79,0.01-7.59,0-11.38,0c0-0.02,0-0.03,0-0.05c-3.73,0-7.46-0.01-11.19,0
			c-0.93,0-2.02,0.07-2-1.18C126.17,203.58,127.31,203.71,128.2,203.71z M121.43,228.45c-1.91,2.25-3.84,4.47-5.71,6.75
			c-0.84,1.02-1.61,1.1-2.55,0.14c-1.12-1.15-2.27-2.26-3.43-3.36c-0.59-0.56-0.85-1.19-0.28-1.84c0.63-0.71,1.36-0.58,2.03,0.02
			c0.05,0.04,0.09,0.09,0.14,0.13c0.97,0.78,1.6,2.53,2.82,2.26c0.94-0.2,1.61-1.7,2.39-2.63c0.96-1.12,1.91-2.25,2.87-3.37
			c0.48-0.56,1.11-0.6,1.75-0.36c0.48,0.18,0.61,0.62,0.6,1.1C122.04,227.79,121.72,228.11,121.43,228.45z M121.33,214.81
			c-1.91,2.25-3.84,4.48-5.73,6.75c-0.8,0.96-1.56,0.99-2.42,0.12c-1.17-1.19-2.35-2.36-3.54-3.53c-0.53-0.52-0.72-1.09-0.21-1.69
			c0.55-0.64,1.22-0.62,1.89-0.17c0.21,0.14,0.38,0.34,0.57,0.51c2.54,2.34,2.55,2.34,4.82-0.39c0.99-1.18,1.95-2.38,2.93-3.58
			c0.45-0.55,1.02-0.79,1.7-0.57c0.56,0.19,0.73,0.67,0.72,1.23C122.05,214.06,121.66,214.42,121.33,214.81z M121.46,201.2
			c-1.96,2.29-3.92,4.58-5.86,6.88c-0.81,0.96-1.59,0.9-2.43,0.05c-1.13-1.14-2.27-2.26-3.42-3.38c-0.45-0.44-0.71-0.91-0.42-1.54
			c0.21-0.47,0.6-0.64,1.21-0.7c1.15,0.17,1.82,1.23,2.55,2.04c1.03,1.15,1.64,0.96,2.47-0.16c1.22-1.64,2.58-3.19,3.87-4.79
			c0.61-0.76,1.34-1.38,2.26-0.59C122.5,199.73,122.04,200.52,121.46,201.2z M126.19,217.8c0.33-0.74,1-0.72,1.64-0.72
			c3.34,0,6.68,0.02,10.02,0.02c4.24,0,8.48-0.03,12.72-0.02c0.92,0,2.16-0.26,2.09,1.24c-0.05,1.27-1.14,1.17-2.04,1.17
			c-3.79,0-7.58,0-11.37,0c0-0.01,0-0.02,0-0.03c-3.72,0-7.45,0-11.17,0c-0.65,0-1.3,0.03-1.74-0.58
			C126.11,218.56,126.01,218.19,126.19,217.8z M150.83,232.71c-3.79,0-7.59,0-11.38,0c0-0.01,0-0.01,0-0.02c-3.79,0-7.59,0-11.38,0
			c-0.94,0-1.99,0.01-1.92-1.27c0.06-1.11,1.05-1.1,1.91-1.1c7.59,0,15.17,0,22.76-0.01c0.95,0,1.95,0,1.89,1.3
			C152.65,232.8,151.68,232.71,150.83,232.71z"/>
		<path d="M145.66,106.79c1.53-0.06,1.81,0.58,1.79,1.93c-0.06,4.57,0.04,9.14-0.03,13.7c-0.03,1.62,0.54,2.07,2.12,2.06
			c18.66-0.05,37.32-0.07,55.98-0.01c1.84,0.01,2.27-0.63,2.26-2.35c-0.06-11.9-0.03-23.81-0.03-35.71c0.01,0,0.01,0,0.02,0
			c0-11.97-0.02-23.93,0.03-35.9c0.01-1.59-0.31-2.28-2.12-2.27c-18.59,0.08-37.19,0.09-55.78,0.04c-1.95-0.01-2.49,0.54-2.48,2.5
			c0.07,17.24,0.02,34.49,0.03,51.73c0,1.3-0.04,2.26-1.8,2.11c-0.96-0.08-2.61-0.55-2.67,1.01
			C142.92,107.43,144.67,106.83,145.66,106.79z M156.88,56.92c4.43,0.03,8.86,0.01,13.28,0.01c4.3,0,8.6,0.01,12.9,0
			c1.08,0,2.22-0.01,2.25,1.43c0.03,1.51-1.17,1.4-2.22,1.4c-8.73,0-17.46,0-26.18,0.01c-1.05,0-2.26,0.1-2.25-1.38
			C154.66,56.97,155.77,56.92,156.88,56.92z M149.38,69.87c0-1.45,0.41-1.83,1.84-1.83c17.43,0.04,34.87,0.05,52.3-0.02
			c1.87-0.01,2.32,0.56,2.31,2.4c-0.07,16.47-0.03,32.94-0.02,49.41c0,2.61-0.01,2.65-2.59,2.66c-8.56,0.02-17.11,0.01-25.67,0.01
			c0,0.02,0,0.04,0,0.06c-8.75,0-17.5-0.03-26.25,0.03c-1.53,0.01-1.95-0.45-1.94-1.96C149.42,103.71,149.42,86.79,149.38,69.87z"/>
		<path d="M220,5.44c-0.01-4.09-1.43-5.48-5.46-5.42c-0.77,0.01-1.54,0.02-2.32,0.02C147.36,0.03,82.5,0.02,17.63,0.01
			c-4.18,0-8.37-0.03-12.55,0C1.43,0.05,0.05,1.44,0.05,5.03c0,7.59,0,15.19,0.03,22.78c0.01,2.96,0.23,3.16,3.21,3.16
			c4.25,0,8.49-0.02,12.74-0.04c0.64,0,1.29-0.01,1.93-0.01c1.26,0,2.64-0.03,2.6,1.75c-0.04,1.61-1.3,1.63-2.53,1.63
			c-5.41,0.01-10.82,0.05-16.23,0.08c-0.4,0-0.85,0.02-1.14,0.29c-0.31,0.29-0.35,0.77-0.36,1.2C0.1,44.02-0.01,52.18,0,60.33
			c0,0.04,0,0.08,0,0.12c0,0.08,0,0.16,0,0.25c0,7.13,0.01,14.26,0.01,21.38c0,7.35,0.01,14.69,0.01,22.04
			c0,7.44,0,14.88,0.01,22.32c0,7.41,0,14.81,0.01,22.22c0,7.25,0,14.49,0.01,21.74c0,6.96,0,13.92,0.01,20.88c0,2.08,0,4.16,0,6.24
			c0,3.55,1.49,5.04,5.04,5.05c6.95,0.01,13.9,0.01,20.85,0c22.65,0,51.09-0.01,73.73-0.01c0.04,0,0.07,0,0.1,0
			c0-1.06,0-2.12,0-3.18c-0.04,0-0.08,0-0.12,0.01c-0.7,0.05-1.41,0-2.12,0c-28.57,0-62.92,0.01-91.49,0.01
			c-2.74,0-2.75-0.01-2.75-2.36C3.29,148.51,3.3,88.42,3.31,39.91c0-0.1,0-0.2,0-0.3c0.25-0.57,0.85-0.77,1.78-0.68
			c0.76,0.07,1.54,0,2.32,0c68.98-0.01,137.96-0.02,206.95-0.08c1.86,0,2.35,0.5,2.35,2.35c-0.05,41.89-0.03,83.78-0.03,125.68
			c0,9.97-0.01,19.95-0.02,29.92c0,2.56,0,2.56-2.47,2.58c-1.42,0.01-2.83,0.01-4.25,0.01c-13.88-0.01-33.91-0.02-47.81,0
			c0,1.07,0,2.13,0,3.2c0,0,0.01,0,0.01,0c2.06-0.06,4.12-0.02,6.18-0.02c13.45,0,33.08,0.01,46.53,0c3.5,0,5.05-1.55,5.16-5.04
			c0.01-0.45,0.01-0.9,0.01-1.35c0-55.21,0-110.42,0-165.64C220.01,22.17,220.01,13.8,220,5.44z M30.47,34.68
			c-1.32,0.29-2.68,0.26-4.02,0.1c-1.24-0.15-2.05-0.87-2.01-2.16c0.03-1.31,0.9-1.91,2.15-1.98c0.58-0.03,1.15-0.01,1.73-0.01
			c0-0.02,0-0.03,0-0.05c0.7,0.03,1.42,0,2.11,0.12c1.06,0.18,1.75,0.82,1.75,1.96C32.18,33.78,31.51,34.45,30.47,34.68z
			 M41.97,34.71c-1.21,0.13-2.44,0.13-3.66,0.07c-1.35-0.07-2.22-0.87-2.16-2.22c0.06-1.27,0.96-1.9,2.23-1.92
			c0.51-0.01,1.03,0,1.54,0c0,0.01,0,0.01,0,0.02c0.64,0,1.29-0.03,1.93,0.01c1.19,0.07,2.01,0.72,2.1,1.87
			C44.05,33.83,43.19,34.59,41.97,34.71z M180.79,34.77c-0.84,0-1.67,0-2.51-0.06c-1.25-0.1-2.12-0.74-2.09-2.06
			c0.03-1.3,0.9-1.93,2.16-2c0.64-0.04,1.29-0.01,1.93-0.01c0-0.01,0-0.02,0-0.03c0.19,0,0.39,0,0.58,0c1.51-0.02,3.03,0.12,3,2.1
			C183.83,34.68,182.28,34.78,180.79,34.77z M193.99,34.65c-1.33,0.15-2.68,0.14-4.02,0.06c-1.24-0.08-2.06-0.79-2.03-2.1
			c0.03-1.32,0.9-1.91,2.14-1.99c0.57-0.04,1.15-0.01,1.73-0.01c0-0.02,0-0.05,0-0.07c0.7,0.04,1.42,0.02,2.1,0.14
			c1.06,0.19,1.76,0.86,1.77,1.96C195.7,33.73,195.06,34.53,193.99,34.65z M205.52,34.69c-0.69,0.11-1.4,0.1-1.61,0.12
			c-3.19,0.01-4.41-0.63-4.26-2.16c0.23-2.33,2.1-1.98,3.67-2.02c0.7-0.02,1.41-0.04,2.11,0.04c1.14,0.14,1.95,0.77,1.97,1.97
			C207.42,33.82,206.67,34.51,205.52,34.69z M216.67,23.19c-0.02,3.85,0.5,3.31-3.22,3.31c-21.81,0.02-43.61-0.01-65.42-0.01
			c-12.67,0-25.35,0-38.02,0c0,0,0,0.01,0,0.01c-34.48,0-68.96,0.01-103.44-0.01c-3.86,0-3.24,0.36-3.27-3.3
			C3.27,17.28,3.35,11.36,3.27,5.44C3.25,3.82,3.62,3.22,5.39,3.22c69.73,0.05,139.46,0.05,209.19,0.01c1.76,0,2.14,0.56,2.12,2.2
			C216.61,11.35,216.7,17.27,216.67,23.19z"/>
		<path d="M160.01,200.76c-0.03-1.82,1.13-1.38,2.05-1.38c0.02,0,0.05,0,0.07,0c0-1.38,0-2.77,0-4.15c0-4.42-1.04-5.5-5.42-5.49
			c-7.72,0-15.44-0.01-23.16,0.05c-1.34,0.01-1.82-0.39-1.76-1.75c0.1-2.18,0.03-4.37,0.01-6.56c-0.04-6.06-0.72-6.78-6.76-6.79
			c-15.25-0.04-30.49-0.05-45.74-0.07c-3.45,0-4.23-0.8-4.19-4.18c0.05-3.8,0.06-7.59,0.09-11.39c0-0.71,0.11-1.47-0.97-1.52
			c-1.21-0.06-0.92,0.85-0.93,1.47c-0.04,4.05-0.06,8.1-0.05,12.16c0.01,3.45,1.73,5.22,5.2,5.33c1.93,0.06,3.86,0.03,5.79,0.03
			c14.22,0.02,28.43,0.04,42.65,0.07c2.42,0.01,2.91,0.56,2.92,2.98c0.01,2.64-0.09,5.28,0.04,7.91c0.08,1.7-0.33,2.33-2.19,2.3
			c-7.65-0.11-15.31-0.06-22.97-0.05c-3.53,0.01-4.95,1.42-4.95,4.9c0,1.58,0,3.17,0,4.75c1.16-0.06,1.89,0.1,1.87,1.69
			c-0.02,1.6-0.86,1.5-1.87,1.49c0,12.73,0,25.46,0,38.19c0,3.96,1.23,5.19,5.19,5.2c8.62,0.02,17.24,0,25.86,0
			c0,0.01,0,0.03,0,0.04c8.62,0,17.24,0,25.86,0c4.11,0,5.43-1.31,5.43-5.42c0-12.67,0.01-25.33,0.01-38
			C160.8,202.62,160.03,202.42,160.01,200.76z M156.81,243.62c-15.76,0.01-31.52,0-47.28-0.01c-1.67,0-3.35-0.01-5.02,0.04
			c-1.64,0.05-2.34-0.72-2.32-2.33c0.04-3.28,0.04-6.56,0.04-9.84c0.01-12.29,0.02-24.57,0.03-36.86c0-2.32,0.23-2.57,2.53-2.57
			c8.75-0.01,17.5,0,26.24,0c0,0,0,0.01,0,0.01c8.68,0,17.37-0.01,26.05,0c2.28,0,2.6,0.3,2.6,2.55c0.02,15.5,0.03,31,0.02,46.5
			C159.71,243.27,159.3,243.62,156.81,243.62z"/>
		<path d="M101.64,201.07c0.02-1.6-0.71-1.76-1.87-1.69c0,1.06,0,2.12,0,3.18C100.77,202.57,101.62,202.67,101.64,201.07z"/>
		<path d="M162.06,199.38c-0.92,0-2.08-0.44-2.05,1.38c0.03,1.66,0.8,1.86,2.12,1.82c0-1.07,0-2.13,0-3.2
			C162.1,199.38,162.08,199.38,162.06,199.38z"/>
		<path d="M12.14,116.23c-0.01,1.74,0.56,2.14,2.22,2.13c18.59-0.06,37.19-0.04,55.78-0.04c18.34,0,36.67,0,55.01,0
			c0.77,0,1.54-0.02,2.31-0.07c0.61-0.04,1.14-0.21,1.14-1c0-1.54,0.04-3.09,0.05-4.63c0.01-0.7-0.42-0.82-1.01-0.82
			c-0.63,0-0.96,0.25-0.94,0.9c0.01,0.39-0.06,0.78,0,1.16c0.26,1.86-0.33,2.53-2.39,2.51c-11.26-0.1-22.52-0.02-33.78-0.02
			c-24.71,0.01-49.41-0.01-74.12,0.05c-1.78,0-2.27-0.51-2.25-2.27c0.09-7.66,0.03-15.31,0.05-22.97c0.01-3.31,0.04-3.32,3.45-3.32
			c19.56,0,39.12,0,58.68,0c15.57,0,31.14,0,46.71,0.01c3.12,0,3.66,0.56,3.67,3.73c0.01,1.74-0.04,3.48,0.03,5.21
			c0.02,0.66-0.45,1.71,0.87,1.72c1.37,0.01,1-1.07,1.01-1.83c0.04-1.93,0.03-3.86,0.02-5.79c-0.01-3.56-1.46-5.01-5.06-5.02
			c-7.91-0.02-15.83-0.01-23.74-0.01c-28.5,0.01-57.01,0.04-85.51,0.02c-1.64,0-2.26,0.44-2.25,2.18
			C12.18,97.44,12.2,106.84,12.14,116.23z"/>
		<path d="M12.39,76.21c0,2.47,0,2.47,2.57,2.47c20.26,0,40.52,0,60.78,0c0,0.02,0,0.04,0,0.05c20.65,0,41.29-0.01,61.94,0.03
			c1.34,0,1.64-0.53,1.64-1.71c-0.01-9-0.01-18.01,0.06-27.01c0.01-1.63-0.56-2.05-2.14-2.05c-40.91,0.04-81.81,0.04-122.72-0.01
			c-1.68,0-2.21,0.47-2.19,2.18C12.41,58.84,12.38,67.53,12.39,76.21z M16.68,49.78c19.82,0.06,39.64,0.02,59.46,0.02
			c18.92,0,37.84,0,56.76,0c1.16,0,2.32,0.05,3.47,0.03c0.82-0.01,1.13,0.31,1.12,1.14c-0.03,8.24-0.04,16.47-0.01,24.71
			c0,1.46-0.97,1.25-1.85,1.25c-6.31-0.02-12.61-0.08-18.92-0.09c-13.64-0.01-27.28,0-40.93,0c0,0.01,0,0.03,0,0.04
			c-19.69,0-39.38,0-59.07,0c-2.51,0-2.51-0.02-2.51-2.5c0-7.34,0.08-14.67-0.04-22.01C14.13,50.4,14.64,49.77,16.68,49.78z"/>
		<path d="M60.45,150.08c-1.62,0.22-1.89-0.6-1.88-2c0.06-6.75,0-13.51,0.08-20.26c0.02-1.7-0.53-2.18-2.22-2.17
			c-14.02,0.06-28.04,0.08-42.06,0c-1.92-0.01-2.36,0.62-2.34,2.42c0.09,7.65,0.04,15.31,0.04,22.96c0,0,0,0-0.01,0
			c0,7.65,0.07,15.31-0.05,22.96c-0.03,1.97,0.53,2.49,2.48,2.48c13.95-0.08,27.91-0.08,41.87,0c1.88,0.01,2.26-0.65,2.25-2.34
			c-0.05-6.56,0.05-13.12,0.02-19.68c0-1.35,0.16-2.27,1.84-2.07c0.72,0.09,1.45-0.03,1.47-1.05
			C61.98,150.25,61.33,149.96,60.45,150.08z M56.59,172.77c0,1.3-0.31,1.78-1.71,1.78c-13.12-0.04-26.23-0.02-39.35,0.03
			c-1.33,0.01-1.59-0.48-1.58-1.69c0.05-7.26,0.02-14.53,0.02-21.8c0.01,0,0.01,0,0.02,0c0-7.07,0.04-14.15-0.03-21.22
			c-0.02-1.67,0.32-2.31,2.19-2.3c12.86,0.08,25.72,0.05,38.58,0c1.39-0.01,1.88,0.31,1.88,1.8
			C56.55,143.84,56.56,158.3,56.59,172.77z"/>
		<path d="M206.05,160.06c-1.28,0.09-2.57,0.09-3.85,0.02c-1.29-0.07-1.66,0.51-1.66,1.72c0.02,9.06,0.01,18.12-0.02,27.19
			c0,1,0.35,1.4,1.33,1.38c1.48-0.03,2.96-0.05,4.43,0.04c1.21,0.07,1.53-0.43,1.52-1.58c-0.05-4.5-0.02-9-0.02-13.5
			c0.01,0,0.02,0,0.03,0c0-4.5-0.04-9,0.02-13.5C207.84,160.5,207.42,159.96,206.05,160.06z"/>
		<path d="M196.28,168.16c-1.15,0.08-2.33,0.13-3.47,0c-1.75-0.19-2.37,0.38-2.33,2.22c0.12,4.89,0.04,9.78,0.04,14.67
			c0,5.59-0.01,5.54,5.65,5.32c1.31-0.05,1.63-0.52,1.61-1.72c-0.06-3.15-0.02-6.3-0.02-9.46c0.01,0,0.02,0,0.03,0
			c0-3.15-0.04-6.3,0.02-9.46C197.83,168.59,197.5,168.07,196.28,168.16z"/>
		<path d="M77.91,126.19c9-0.16,18-0.26,27.01-0.38c6.3-0.08,12.6-0.12,18.9-0.22c3.03-0.05,5.11-2.06,4.86-4.54
			c-0.06-0.62-0.14-1.15-0.95-1.16c-0.79-0.01-0.95,0.44-0.96,1.12c-0.02,1.9-1.28,2.54-2.91,2.67c-1.34,0.11-2.7,0.08-4.05,0.09
			c-14.79,0.18-29.58,0.38-44.37,0.5c-1.68,0.01-2.28,0.52-2.2,2.22c0.12,2.63,0.03,5.27,0.03,7.91c0.01,0,0.01,0,0.02,0
			c0,2.77-0.03,5.53,0.02,8.3c0.01,0.72-0.43,1.87,1,1.81c1.26-0.05,0.86-1.08,0.86-1.76c0.02-4.57-0.03-9.13,0-13.7
			C75.21,125.92,74.69,126.24,77.91,126.19z"/>
		<path d="M102.92,100.82c-1.67,0.03-3.35,0.01-5.02,0.01c0,0.01,0,0.02,0,0.02c-1.74,0-3.47,0.01-5.21,0
			c-1.25-0.01-1.94,0.51-1.93,1.83c0.02,2.32,0.04,4.63,0.02,6.95c-0.01,1.27,0.56,1.95,1.83,1.95c3.47-0.01,6.95-0.05,10.42-0.06
			c1.19,0,1.78-0.5,1.77-1.73c-0.02-2.38-0.02-4.76,0.01-7.14C104.83,101.32,104.2,100.79,102.92,100.82z"/>
		<path d="M201.17,146.64c1.82,0.02,3.21,0.97,3.57,2.91c0.17,0.9,0.48,1.57,1.47,1.23c0.95-0.33,0.51-1.21,0.37-1.82
			c-0.59-2.59-2.84-4.21-5.94-4.22c-6.1-0.03-12.2,0.04-18.31,0c-1.19-0.01-2.23,0.61-3.53,0.29c-3.03-0.74-5.52,0.58-6.67,3.47
			c-0.5,1.25-1.12,1.69-2.39,1.57c-0.78-0.07-1.76-0.26-1.77,1.1c-0.01,1.29,0.9,1.28,1.72,1.2c1.36-0.14,2.18,0.33,2.95,1.51
			c1.08,1.64,2.87,2.29,4.57,2.36c4.25-0.07,6.77-3.83,5.35-7.82c-0.48-1.35-0.43-1.8,1.09-1.8
			C189.49,146.63,195.33,146.56,201.17,146.64z M180.06,150.8c-0.08,1.44-1.38,2.65-2.81,2.6c-1.42-0.05-2.7-1.34-2.7-2.75
			c0-1.49,1.37-2.83,2.86-2.79C178.96,147.92,180.14,149.22,180.06,150.8z"/>
		<path d="M187.74,180.31c0-5.43,0-5.43-5.49-5.29c-0.13,0-0.26,0.01-0.38,0c-1.08-0.07-1.47,0.43-1.44,1.5
			c0.06,1.99,0.02,3.97,0.02,5.96c0,0,0.01,0,0.01,0c0,2.11,0.05,4.23-0.02,6.34c-0.04,1.18,0.4,1.61,1.56,1.55
			c1.41-0.07,2.82-0.09,4.23-0.03c1.19,0.06,1.55-0.43,1.52-1.58C187.69,185.95,187.74,183.13,187.74,180.31z"/>
		<path d="M74.77,98.04c0.79,0,1.81,0.22,1.73-1.15c-0.07-1.24-1.03-0.93-1.73-0.93c-17.43-0.01-34.87-0.01-52.3-0.01
			c-0.8,0-1.85-0.22-1.85,1.06c0,1.3,1.05,1.04,1.85,1.04c8.68,0.01,17.37,0,26.05,0c0-0.01,0-0.01,0-0.02
			C57.27,98.04,66.02,98.05,74.77,98.04z"/>
		<path d="M57.91,107.9c0.92,0,1.89,0.11,1.86-1.27c-0.03-1.31-0.99-1.1-1.8-1.1c-11.82,0.01-23.65,0.03-35.47,0.05
			c-0.32,0-0.64,0-0.96,0.02c-0.61,0.03-0.95,0.34-0.97,0.96c-0.02,0.65,0.21,1.15,0.91,1.25c0.44,0.06,0.9,0.03,1.35,0.04
			c5.78,0,11.57,0,17.35,0c0,0.02,0,0.04,0,0.05C46.08,107.89,52,107.89,57.91,107.9z"/>
		<path d="M127.39,144.71c-3.04-0.05-6.73,3.52-6.72,6.51c0.01,1.73,4.07,4.75,6.47,4.81c3.01,0.07,5.71-2.36,5.82-5.24
			C133.09,147.39,130.68,144.76,127.39,144.71z M127.17,153.26c-1.5-0.01-2.82-1.38-2.77-2.87c0.04-1.41,1.31-2.62,2.79-2.66
			c1.52-0.03,2.9,1.29,2.88,2.76C130.06,151.96,128.68,153.27,127.17,153.26z"/>
		<path d="M127.66,99.37c-3.41-0.01-5.95,2.56-5.9,5.98c0.04,2.88,2.51,5.26,5.49,5.29c3.29,0.04,5.95-2.39,5.98-5.47
			C133.26,101.79,130.94,99.37,127.66,99.37z M127.22,107.78c-1.41-0.07-2.64-1.37-2.66-2.8c-0.01-1.44,1.41-2.81,2.87-2.77
			c1.48,0.04,2.81,1.45,2.76,2.91C130.15,106.58,128.72,107.86,127.22,107.78z"/>
		<path d="M80.1,150.84c0.02-3.26-2.43-5.74-5.66-5.76c-3.07-0.01-5.72,2.67-5.71,5.8c0,3.08,2.5,5.57,5.64,5.63
			C77.56,156.58,80.08,154.09,80.1,150.84z M71.62,150.77c0.05-1.54,1.31-2.71,2.9-2.68c1.57,0.03,2.86,1.28,2.84,2.76
			c-0.02,1.5-1.46,2.82-3.06,2.81C72.78,153.64,71.57,152.34,71.62,150.77z"/>
		<path d="M175.75,181.67c-1.27,0.12-2.56,0.05-3.84,0c-1.06-0.04-1.51,0.36-1.48,1.45c0.04,1.92,0.04,3.84-0.03,5.76
			c-0.04,1.08,0.35,1.54,1.43,1.45c0.51-0.04,1.02,0,1.54,0.01c4.27,0.04,4.27,0.04,4.27-4.17c0-0.83-0.07-1.67,0.01-2.5
			C177.79,182.24,177.36,181.51,175.75,181.67z"/>
		<path d="M114.61,104.89c0,0.01,0,0.03,0,0.04c-0.89,0-1.79-0.05-2.67,0.02c-0.63,0.04-1.09,0.42-1.06,1.11
			c0.02,0.58,0.43,1,0.96,1.02c1.72,0.06,3.44,0.07,5.16,0.02c0.61-0.02,1.11-0.47,1.07-1.13c-0.04-0.63-0.52-1.03-1.15-1.07
			C116.14,104.85,115.37,104.89,114.61,104.89z"/>
		<path d="M135.18,104.63c-0.64,0.03-1.06,0.51-1.06,1.16c0.01,0.7,0.53,0.98,1.17,1c0.64,0.02,1.28,0,1.92,0
			c0.64,0,1.28-0.01,1.92,0c0.67,0.01,1.17-0.31,1.24-0.95c0.08-0.76-0.43-1.21-1.16-1.23
			C137.87,104.56,136.52,104.56,135.18,104.63z"/>
		<path d="M177.32,133.15c1.74-0.06,0.72-1.95,1-2.8c0-0.84,0.03-1.48-0.01-2.11c-0.04-0.74-0.49-1.23-1.22-1.19
			c-0.62,0.04-1,0.5-0.98,1.2c0.01,0.64-0.09,1.29,0.02,1.91C176.34,131.26,175.32,133.22,177.32,133.15z"/>
		<path d="M178.34,136.9c-0.06-0.65-0.51-1.05-1.16-1.03c-0.64,0.02-1.04,0.44-1.04,1.12c0,1.27,0.01,2.54,0.02,3.82
			c0.01,0.68,0.39,1.08,1.05,1.12c0.66,0.03,1.09-0.36,1.14-1.02c0.05-0.63,0.01-1.27,0.01-1.91c0,0-0.01,0-0.01,0
			C178.36,138.3,178.4,137.59,178.34,136.9z"/>
		<path d="M107.78,150.36c-0.49,0.55-0.51,1.2-0.02,1.72c0.54,0.58,1.33,0.2,2,0.32c0.73-0.13,1.59,0.28,2.19-0.3
			c0.49-0.48,0.48-1.17,0.04-1.74C111.65,149.91,108.17,149.92,107.78,150.36z"/>
		<path d="M117.62,150.05c-0.83,0.05-1.67,0.02-2.5,0.03c-0.71,0.01-1.04,0.39-1.06,1.08c-0.03,0.78,0.32,1.21,1.13,1.21
			c0.45,0,0.9,0,1.35,0c0.38,0,0.77-0.02,1.15,0c0.86,0.05,1.11-0.47,1.11-1.2C118.8,150.37,118.44,150,117.62,150.05z"/>
		<path d="M104.46,150.06c-0.83,0.05-1.66,0.03-2.49,0.05c-0.71,0.02-1.03,0.42-1.05,1.1c-0.02,0.79,0.35,1.19,1.16,1.17
			c0.38-0.01,0.77,0,1.15,0c0,0,0,0.01,0,0.01c0.38,0,0.77-0.03,1.15,0.01c0.89,0.08,1.32-0.31,1.28-1.21
			C105.62,150.41,105.29,150.01,104.46,150.06z"/>
		<path d="M84.28,150.09c-1.02,0.22-2.57-0.89-2.95,1.05c-0.12,0.62,0.09,1.16,0.83,1.22c0.5,0.04,1.01,0.01,1.52,0.01
			c0,0.01,0,0.01,0,0.02c0.44,0,0.89,0,1.33,0c0.74-0.01,0.97-0.46,0.96-1.12C85.95,150.08,85.15,149.9,84.28,150.09z"/>
		<path d="M92.03,150.23c-1.22-0.35-2.54-0.33-3.76,0c-0.6,0.16-0.62,0.97-0.4,1.51c0.43,1.06,1.43,0.48,2.2,0.67
			c0.78-0.24,1.87,0.47,2.34-0.67C92.61,151.24,92.65,150.41,92.03,150.23z"/>
		<path d="M98.58,150.17c-0.52-0.18-1.13-0.1-1.71-0.13c0,0.01,0,0.03,0,0.04c-0.32,0-0.64,0-0.96,0c-0.79,0-1.58-0.06-1.57,1.12
			c0.01,1.11,0.71,1.2,1.55,1.17c0.77-0.02,1.53,0,2.3-0.02c0.53-0.01,0.81-0.33,0.85-0.85C99.08,150.99,99.14,150.36,98.58,150.17z
			"/>
		<path d="M135.43,150.33c-0.49,0.54-0.54,1.22-0.06,1.74c0.54,0.58,1.34,0.23,2.02,0.33c0.68-0.11,1.46,0.26,2.03-0.29
			c0.51-0.5,0.52-1.17,0.08-1.75C139.17,149.92,135.83,149.89,135.43,150.33z"/>
		<path d="M143.19,152.37c0.7-0.02,1.4,0.06,2.09-0.01c0.94-0.1,1.48-1.3,0.9-1.97c-0.54-0.62-1.31-0.25-1.88-0.36
			c-0.41,0-0.73,0-1.05,0c-0.79,0-1.56-0.02-1.56,1.13C141.68,152.23,142.33,152.39,143.19,152.37z"/>
		<path d="M158.68,150.08c-0.5-0.07-1.01-0.01-1.52-0.01c0,0,0,0,0-0.01c-0.44,0-0.89,0-1.33,0c-0.88-0.01-1.01,0.55-0.99,1.27
			c0.03,1,0.71,1.18,1.44,1.04c1.07-0.2,2.52,0.84,3.14-0.81C159.61,151.01,159.57,150.21,158.68,150.08z"/>
		<path d="M150.91,150.02c-0.49,0-0.87,0.01-1.26,0c-0.79-0.03-1.4,0.13-1.43,1.1c-0.03,1.07,0.61,1.28,1.49,1.25
			c0.77-0.02,1.55,0.08,2.3-0.03c1.23-0.19,1.1-1.16,0.73-1.91C152.36,149.68,151.46,150.14,150.91,150.02z"/>
		<path d="M165.17,150.06c-0.51-0.02-1.02,0-1.53,0c0-0.01,0-0.02,0-0.03c-0.32,0-0.64,0.02-0.95,0c-0.85-0.05-1.32,0.26-1.32,1.18
			c0,0.95,0.56,1.18,1.36,1.16c0.83-0.02,1.66,0.02,2.48-0.05c0.73-0.06,0.87-0.63,0.85-1.26
			C166.04,150.49,165.8,150.08,165.17,150.06z"/>
		<path d="M67.41,150.05c-0.38-0.01-0.77,0-1.15,0c0,0.02,0,0.03,0,0.05c-0.51,0-1.02-0.02-1.53,0.01
			c-0.74,0.04-0.94,0.53-0.94,1.18c0,0.7,0.33,1.07,1.04,1.07c0.89,0,1.79,0,2.68-0.03c0.76-0.03,0.91-0.59,0.93-1.2
			C68.47,150.43,68.11,150.06,67.41,150.05z"/>
		<path d="M127.23,166.73c-0.62,0.02-0.95,0.3-0.97,0.92c-0.01,0.51,0,1.02,0,1.53c0,0-0.01,0-0.01,0c0,0.38-0.01,0.76,0,1.15
			c0.01,0.65-0.04,1.3,0.93,1.32c0.94,0.03,1.23-0.45,1.22-1.29c-0.02-0.89-0.01-1.78-0.03-2.68
			C128.34,166.96,127.91,166.71,127.23,166.73z"/>
		<path d="M126.26,163.94c0.02,0.67,0.46,0.82,1.04,0.82c0.57,0,1.02-0.15,1.06-0.81c0.03-0.51,0.01-1.02,0.01-1.53
			c0,0,0.01,0,0.01,0c0-0.32,0.01-0.64,0-0.96c-0.02-0.74-0.06-1.4-1.09-1.41c-1.06-0.01-1.07,0.67-1.07,1.4
			C126.22,162.29,126.23,163.12,126.26,163.94z"/>
		<path d="M127.29,158.2c0.54-0.02,1.03-0.13,1.06-0.81c0-0.73-0.49-0.81-1.04-0.81c-0.56,0-1.03,0.14-1.05,0.82
			C126.24,158.12,126.74,158.22,127.29,158.2z"/>
		<path d="M64.74,7.85c-8.62,0.1-17.24,0.04-25.87,0.04c0,0.01,0,0.01,0,0.02c-8.75,0-17.5,0.03-26.25-0.03
			C10.99,7.87,10.5,8.42,10.55,10c0.1,3.41,0.1,6.82,0.02,10.23c-0.04,1.55,0.58,1.99,2.05,1.99c17.5-0.03,35.01-0.04,52.51,0.01
			c1.66,0,2.09-0.64,2.05-2.18c-0.08-3.22-0.11-6.44,0.03-9.65C67.29,8.49,66.75,7.82,64.74,7.85z M65.31,11.97
			c-0.14,2.11-0.13,4.25-0.01,6.36c0.09,1.59-0.42,2.08-2.04,2.08c-12.54-0.04-25.09,0-37.63,0.01c-3.86,0-7.72-0.04-11.58,0
			c-1.15,0.01-1.61-0.35-1.58-1.54c0.07-2.31,0.12-4.64-0.03-6.94c-0.1-1.67,0.36-2.21,2.11-2.19c8.17,0.09,16.34,0.04,24.51,0.04
			c0,0.01,0,0.02,0,0.03c8.04,0,16.08,0.05,24.12-0.04C64.93,9.75,65.43,10.29,65.31,11.97z"/>
		<path d="M197.52,96.96c-6.62-0.02-13.24-0.01-19.85-0.01c0-0.01,0-0.02,0-0.02c-6.62,0-13.24,0-19.85,0c-0.81,0-1.91-0.19-1.92,1
			c-0.01,1.21,1.1,1.01,1.9,1.01c13.24,0.01,26.47,0.01,39.71,0.01c0.8,0,1.9,0.23,1.92-0.99
			C199.43,96.67,198.29,96.96,197.52,96.96z"/>
		<path d="M157.63,88.08c6.69-0.01,13.37,0,20.06,0c0,0.01,0,0.01,0,0.02c6.69,0,13.38,0,20.06,0c0.7,0,1.54,0.09,1.59-0.92
			c0.06-1.14-0.82-1.11-1.61-1.11c-13.37,0.01-26.75,0.03-40.12,0.05c-0.77,0-1.74-0.07-1.73,1.01
			C155.89,88.19,156.84,88.08,157.63,88.08z"/>
		<path d="M157.8,77.11c6.63,0.01,13.26,0.01,19.88,0.01c0-0.01,0-0.01,0-0.02c6.63,0,13.26,0.01,19.88-0.01
			c0.79,0,1.87,0.21,1.79-1.1c-0.07-1.18-1.09-0.87-1.8-0.87c-13.26-0.01-26.51,0-39.77,0.01c-0.81,0-1.92-0.21-1.92,1
			C155.88,77.37,157.01,77.11,157.8,77.11z"/>
		<path d="M181.53,107.97c-7.98,0.01-15.95,0.02-23.93,0.04c-0.78,0-1.74-0.08-1.72,1.01c0.02,1.14,1.04,0.92,1.77,0.92
			c3.92,0.02,7.85,0.01,11.77,0.01c0,0.01,0,0.02,0,0.03c4.05,0,8.1,0,12.16,0c0.69,0,1.55,0.11,1.59-0.92
			C183.22,107.89,182.31,107.97,181.53,107.97z"/>
		<path d="M128.08,219.46c3.72,0,7.45,0,11.17,0c0,0.01,0,0.02,0,0.03c3.79,0,7.58,0,11.37,0c0.9,0,1.99,0.1,2.04-1.17
			c0.06-1.5-1.18-1.24-2.09-1.24c-4.24-0.01-8.48,0.02-12.72,0.02c-3.34,0-6.68-0.02-10.02-0.02c-0.64,0-1.31-0.02-1.64,0.72
			c-0.18,0.39-0.09,0.76,0.15,1.09C126.78,219.5,127.44,219.46,128.08,219.46z"/>
		<path d="M150.82,230.32c-7.59,0.01-15.17,0.01-22.76,0.01c-0.86,0-1.86-0.01-1.91,1.1c-0.06,1.27,0.99,1.27,1.92,1.27
			c3.79,0,7.59,0,11.38,0c0,0.01,0,0.01,0,0.02c3.79,0,7.59,0,11.38,0c0.85,0,1.83,0.09,1.88-1.09
			C152.76,230.32,151.76,230.31,150.82,230.32z"/>
		<path d="M128.15,206.03c3.73-0.01,7.46,0,11.19,0c0,0.02,0,0.03,0,0.05c3.79,0,7.59,0,11.38,0c0.91,0,1.96,0.07,1.92-1.26
			c-0.04-1.21-1.04-1.1-1.87-1.1c-7.53,0-15.05,0-22.58,0c-0.9,0-2.03-0.13-2.05,1.14C126.14,206.11,127.23,206.04,128.15,206.03z"
			/>
		<path d="M121.46,226.19c-0.64-0.24-1.27-0.2-1.75,0.36c-0.96,1.12-1.91,2.24-2.87,3.37c-0.79,0.92-1.45,2.43-2.39,2.63
			c-1.23,0.26-1.86-1.48-2.82-2.26c-0.05-0.04-0.09-0.09-0.14-0.13c-0.67-0.6-1.4-0.73-2.03-0.02c-0.58,0.66-0.31,1.28,0.28,1.84
			c1.16,1.11,2.31,2.22,3.43,3.36c0.93,0.96,1.7,0.88,2.55-0.14c1.87-2.27,3.8-4.5,5.71-6.75c0.29-0.34,0.62-0.66,0.63-1.15
			C122.07,226.81,121.94,226.37,121.46,226.19z"/>
		<path d="M121.34,212.27c-0.68-0.23-1.25,0.01-1.7,0.57c-0.97,1.19-1.94,2.39-2.93,3.58c-2.28,2.73-2.28,2.72-4.82,0.39
			c-0.19-0.17-0.36-0.37-0.57-0.51c-0.67-0.46-1.34-0.48-1.89,0.17c-0.51,0.6-0.32,1.17,0.21,1.69c1.19,1.17,2.37,2.35,3.54,3.53
			c0.86,0.87,1.62,0.84,2.42-0.12c1.89-2.27,3.82-4.5,5.73-6.75c0.33-0.39,0.72-0.75,0.74-1.31
			C122.07,212.94,121.91,212.46,121.34,212.27z"/>
		<path d="M121.67,199.02c-0.92-0.79-1.64-0.17-2.26,0.59c-1.29,1.59-2.64,3.14-3.87,4.79c-0.84,1.12-1.44,1.31-2.47,0.16
			c-0.73-0.81-1.4-1.87-2.55-2.04c-0.61,0.06-1,0.23-1.21,0.7c-0.28,0.63-0.03,1.1,0.42,1.54c1.15,1.12,2.29,2.25,3.42,3.38
			c0.84,0.85,1.62,0.91,2.43-0.05c1.94-2.3,3.91-4.59,5.86-6.88C122.04,200.52,122.5,199.73,121.67,199.02z"/>
		<path d="M18.58,14.25c-0.93-0.01-2.58-0.7-2.65,0.88c-0.09,1.86,1.72,0.79,2.63,1.21c1-0.42,2.92,0.71,2.86-1.2
			C21.37,13.52,19.58,14.26,18.58,14.25z"/>
		<path d="M42.17,14.2c-0.82,0.03-1.65,0.02-2.47,0.02c-0.73,0-1.3,0.24-1.26,1.06c0.04,0.77,0.59,1.05,1.32,1.04
			c0.38-0.01,0.76,0,1.14,0c0.44,0,0.89-0.02,1.33,0c0.72,0.03,1.3-0.18,1.33-0.99C43.6,14.4,42.98,14.17,42.17,14.2z"/>
		<path d="M52.95,14.2c-0.32,0-0.64-0.04-0.96,0.01c-0.92,0.15-2.46-0.47-2.5,0.97c-0.06,1.72,1.63,0.82,2.37,1.11
			c0.48,0,0.8,0,1.12,0c0.75-0.01,1.49-0.13,1.48-1.08C54.46,14.23,53.69,14.19,52.95,14.2z"/>
		<path d="M31.27,14.18c-0.7,0.01-1.4,0-2.09,0c-0.74,0-1.47,0.09-1.43,1.08c0.03,0.81,0.62,1.02,1.33,1.02c0.38,0,0.76,0,1.14,0
			c0,0,0,0.01,0,0.01c0.32,0,0.64-0.01,0.95,0c0.77,0.04,1.48-0.12,1.53-1.02C32.75,14.34,32.04,14.17,31.27,14.18z"/>
		<path d="M24.79,14.23c-0.52,0.02-0.8,0.4-0.83,0.9c-0.04,0.57,0.17,1.07,0.81,1.08c0.62,0.01,0.86-0.47,0.98-1.04
			C25.69,14.61,25.41,14.2,24.79,14.23z"/>
	</g>
	<g>
		<path class="st4" d="M394.59,90.71c-3.42-2.25-6.92-4.4-10.03-7.09c-3.02-2.61-6.05-5.23-9.07-7.84
			C379.69,83.62,386.29,88.29,394.59,90.71z"/>
		<path class="st8" d="M417.01,153c-7.04,20.44-15.53,40.39-20.85,61.42c-1.3,5.12-2.46,10.28-3.69,15.42
			c-0.24,2.1,1.55,2.31,2.72,2.92c5.96,3.13,5.97,3.11,8.3-2.9c5.96-15.39,13.45-30.06,21.4-44.49c1.5-2.73,1.48-4.49-1.11-6.29
			c-1.67-1.16-3.15-2.61-4.66-3.98c-1.5-1.36-1.55-2.41,0.75-2.79c0.59-0.1,1.17-0.28,1.76-0.37c6.58-1.03,5.76-1.15,6.69-7.48
			c1.1-7.47-3.62-9.78-8.49-12.61C418.25,150.94,417.58,151.34,417.01,153z"/>
		<path class="st8" d="M332.47,200.06c0.44-4.26,0.84-8.04,1.23-11.82c1.6,3.16,1.83,6.6,0.68,9.54c-1.71,4.39,0.36,7,3.38,10.16
			c1.32-5.8,2.55-11.2,3.79-16.59c0.35-1.52,0.87-3.01,1.12-4.54c0.79-4.85,2.82-8.46,8.13-9.59c2.27-0.48,3.22-1.79,0.39-3.24
			c-1.75-0.89-2.72-2.06-0.32-4.67c-10.17,3.68-19.24,6.6-22.24,17.58C326.71,193.9,326.54,194.45,332.47,200.06z"/>
		<path class="st4" d="M396.09,256.9c2.18,1.65,2.89,0.66,3.19-1.45c0.24-1.67,0.45-3.34,0.61-5.02c0.82-8.38,0.84-8.43-6.63-12.21
			c-4.11-2.08-6.92-5.56-9.94-8.79c-4.11-4.39-8.05-8.94-12.09-13.4c-0.8-0.88-1.55-2.02-2.83-2.1c-10.12-0.62-20.34-1.6-28.81,5.85
			c-0.75,0.66-2.66,1.01-1.67,2.58c0.84,1.34,2.29,0.48,3.27-0.02c7.16-3.67,14.75-4.49,23.06-3.57c-2.25,2.66-5.43,3.77-7.72,5.91
			c-1.31,1.23-4.46,2.03-2.81,4.56c1.78,2.72,3.49-0.27,5.07-0.97c2.69-1.19,5.06-3.09,9.12-3.86c-3.12,3.8-6.82,5-9.92,7.01
			c-1.35,0.87-2.84,1.59-1.65,3.63c0.81,1.39,1.49,2.18,3.38,1.24c2.93-1.46,5.67-3.48,9.98-4.02c-2.66,3.08-5.4,4.12-7.93,5.39
			c-2.98,1.49-2.75,3.08-0.75,5.22c1.7,1.83,3.82,2.44,6.17,2.44c0.86,0,2.26,0.5,2.37-0.83c0.1-1.12-0.81-1.92-2.15-1.92
			c-0.44,0-0.88-0.2-1.39-0.33c2.65-3.44,4.11-3.41,6.29-0.1c3.09,4.67,6.53,8.81,13.05,7.71c0.97-0.16,1.47,0.61,2.15,1.09
			C390.36,252.94,393.31,254.81,396.09,256.9z"/>
		<path class="st8" d="M357.13,177.56c-0.22,0.11-0.42,0.27-0.64,0.32c-7.84,1.68-10.76,7-11.62,14.53
			c-0.68,5.93-2.42,11.75-3.75,17.6c-0.32,1.42-0.17,2.74,0.89,3.64c1.22,1.04,2.24-0.27,3.22-0.77c2.25-1.15,4.39-2.53,6.97-2.8
			c1.16-0.12,1.6-0.73,1.86-1.8c4.43-18.18,11.46-35.39,19.49-52.23c0.14-0.3,0.18-0.65,0.44-1.66c-3.33,2.96-6.49,4.92-9.61,6.96
			c-2.82,1.84-5.63,3.69-7.91,6.23c-3.39,3.77-3.46,3.85,0.7,6.57C359.21,175.49,359.42,176.44,357.13,177.56z"/>
		<path class="st4" d="M310.38,188.49c2.56-0.08,4.15,0.76,5.66,2.89c5.98,8.45,12.19,16.73,18.28,25.09
			c0.99,1.36,1.68,2.36,3.64,0.95c2.11-1.52,0.57-2.43-0.15-3.45c-6.18-8.75-12.46-17.42-18.58-26.21c-1.56-2.24-3.4-3.09-6.07-2.96
			c-19.12,0.94-38.24,1.81-57.36,2.72c-1.01,0.05-2.21-0.19-3.02,1.53c10.09,0,19.95,0.07,29.8-0.02
			C291.85,188.95,301.11,188.77,310.38,188.49z"/>
		<path class="st8" d="M343.38,255.01c-7.49,0.1-7.49-0.05-7.44,7.36c0.02,2.53,0,5.05,0,8.77c1.89,11.54-3.69,23.14-5.65,35.3
			c-2,12.44-4.82,24.76-7.22,37.14c-0.72,3.75,5.22,8.86,8.94,7.8c1.45-0.41,1.5-1.72,1.83-2.85c2.91-9.95,4.45-20.18,6.04-30.38
			c3.06-19.6,5.2-39.31,7.25-59.03C347.48,255.85,346.58,254.97,343.38,255.01z"/>
		<path class="st4" d="M359.92,251.87c1.13-0.34,1.7-1.13,2.31-1.87c0.55-0.66,0.59-1.36-0.17-1.84
			c-5.91-3.69-6.82-10.88-11.04-15.77c-1.72-1.99-3.25-4.18-4.64-6.43c-1.27-2.05-2.78-1.64-4.27-0.67
			c-1.92,1.25-0.07,2.32,0.52,3.16c5.16,7.25,10.43,14.42,15.68,21.61C358.79,250.72,359.41,251.29,359.92,251.87z"/>
		<path class="st8" d="M332.11,267.81c0.36-1.64-0.08-3.11-1.03-4.42c-1.62-2.23-3.42-4.35-4.9-6.67c-1.64-2.56-4.11-1.84-6.16-1.49
			c-2.02,0.35-0.75,2.42-0.78,3.66c-0.2,8.67-3.52,15.83-10.09,21.46c-2.63,2.25-5.75,3.34-9.78,3.42
			c5.77,4.35,11.34,7.64,17.58,9.59c5.9,1.85,9.38,0.02,10.84-5.88C329.39,280.97,330.68,274.37,332.11,267.81z"/>
		<path class="st4" d="M307.55,274.78c4.03-4.86,6.61-10.28,6.56-16.74c-0.02-2.19-0.89-3.3-3.27-3.19
			c-2.64,0.13-5.29-0.04-7.93-0.05c-2.82-0.01-4.83-1.16-5.8-3.93c-0.93-2.64,1.17-3.64,2.63-4.95c2.6-2.32,5.48-4.33,7.63-7.12
			c0.74-0.95,1.68-2.14,0.76-3.23c-1.08-1.28-2.23-0.04-3.12,0.61c-4.17,3.01-8.28,6.12-13.23,8.09c1.98-3.31,5.01-5.6,7.71-8.2
			c1.9-1.83,3.88-3.6,5.66-5.54c1.11-1.21,1.72-2.73,0.23-4.16c-1.43-1.37-2.66-0.37-3.81,0.53c-3.7,2.88-7.37,5.8-11.08,8.65
			c-1.48,1.14-3.03,2.19-5.44,2.87c0.74-2.57,2.23-3.95,3.54-5.39c3.24-3.55,6.6-6.99,9.81-10.58c1.09-1.22,2.39-2.71,0.85-4.44
			c-1.67-1.88-3.36-0.8-4.73,0.42c-3.77,3.36-7.42,6.84-11.14,10.26c-0.8,0.73-1.63,1.42-2.5,2.07c-0.54,0.4-1.18,1.04-1.89,0.38
			c-0.64-0.61-0.26-1.33,0.09-1.98c1.72-3.2,4.14-5.89,6.38-8.72c1.19-1.51,2.35-3.04,3.39-4.65c0.72-1.12,0.61-2.3-0.44-3.26
			c-1.14-1.03-2.28-0.71-3.2,0.22c-4.5,4.51-9.01,9.03-12.23,14.6c-1.39,2.41-1.11,4.89,0.41,7.17c4.63,6.92,9.27,13.83,17.21,17.49
			c1.38,0.63,2.27,1.63,2.65,3.19c1.84,7.61,6.75,13.42,11.45,19.35C305.59,275.7,306.43,276.12,307.55,274.78z"/>
		<path class="st8" d="M466.85,189.83c-1.27-10.69-5.87-17.5-16.26-20.77c-5.7-1.8-11.05-4.69-16.51-7.2
			c-1.73-0.8-2.41-0.47-2.36,1.43c0.02,0.72-0.08,1.44-0.1,2.16c-0.15,4.83,1.28,10.74-8.15,9.29c0.28,0.43,0.57,0.86,0.85,1.29
			c0.93,0.73,1.87,1.44,2.78,2.19c4.96,4.1,3.91,3.35,1.35,8.15c-8.13,15.29-15.78,30.82-22.94,46.59c-1.24,2.72-0.8,3.84,2.07,4.79
			c7.76,2.57,15.44,5.36,23.09,8.23c2.74,1.03,3.28,0.1,3.34-2.47c0.16-7.12-0.55-14.18-0.87-21.27
			c-0.42-9.12,0.64-17.99,4.52-26.41c3.14-6.82,7.73-12.34,14.45-16.44c-11.45,17.13-16.42,35.48-11.49,56.64
			c2.4-4.49,4.41-8.27,6.42-12.05c0.11,5.41-1.51,10.46-2.45,15.62c-0.37,2.01-0.96,3.98-1.22,6c-0.56,4.42,0.2,5.26,4.58,4.75
			c5.69-0.67,10.7,0.92,15.32,4.09c0.57,0.39,1.04,0.91,2.08,1.85c-4.63-0.05-8.48-1.78-13.05-1.03c4.32,4.44,7.47,9.24,8.15,15.37
			c-3.35-4.13-6.85-8.05-11.23-11.09c-3.38-2.36-6.95-4.2-10.89-5.51c-9.47-3.14-18.88-6.44-28.3-9.73
			c-5.03-1.76-5.01-1.81-5.03,3.31c-0.03,8.48-0.87,16.83-4.34,24.69c-0.84,1.91-0.56,2.81,1.41,3.39
			c17.05,5.06,33.75,11.28,51.17,15.1c1.75,0.38,3.6,0.62,5.37,0.52c8.66-0.5,10.42-1.86,11.72-9.43
			c2.33-13.54,2.12-27.09,1.07-40.66C470.1,224.07,468.89,206.92,466.85,189.83z"/>
		<path class="st8" d="M378.55,311.32c-8.02,1.22-16.07,0.94-24.11-0.06c-4.16-0.52-4.17-0.42-4.19,4.23
			c-0.68,2.75,0.75,3.72,3.78,4.08c8.41,1,16.79,0.68,25.2,0.28c4.03-0.19,2.88-2.83,2.81-5.1
			C381.97,312.46,381.62,310.85,378.55,311.32z"/>
		<path class="st8" d="M435.32,298.62c-13.44-5.88-26.76-12.05-40.61-16.92c-3.3-1.16-4.67-2.96-4.5-6.29
			c0.22-4.08,0.37-8.17,0.54-12.26c0.03-0.84,0.17-1.73-0.06-2.5c-0.33-1.13-1.47-1.79-2.46-1.84c-1-0.06-0.9,1.22-1.03,2
			c-0.97,5.59-1.23,11.23-1.29,17.27c1.1,22.67,4.72,45.25,11.8,67.3c1.98,6.17,5.51,8.53,11.73,8.59
			c13.11,0.12,25.91-1.53,38.43-5.39c2-0.62,3-1.43,2.43-3.84c-3.07-13.11-5.74-26.32-9.21-39.34
			C440.23,302.15,438.5,300.02,435.32,298.62z M436.34,306.25c-7.29,1.51-14.63,2.52-21.59,2.88c-2.03,0-3.59,0-5.15,0
			c-1.78-0.01-1.63-1.49-1.84-2.57c-0.25-1.31,0.9-1.22,1.66-1.26c8.86-0.4,17.67-1.33,26.43-2.72c1.17-0.19,2.42-0.29,2.63,1.53
			C438.69,305.87,437.59,305.99,436.34,306.25z"/>
		<path class="st4" d="M357.38,99.8c1.06,0.09,2.14,0.37,3.12,0.78c0.81,0.34,2.09,0.67,1.68,1.92c-0.33,1-1.44,0.45-2.23,0.53
			c-1.23,0.13-3.32-1.68-3.41,1.18c-0.06,1.95,0.27,3.93,3.24,3.32c1.34-0.28,3.16,0.31,3.07,1.72c-0.09,1.54-1.62,2.6-3.45,2.44
			c-0.55-0.05-1.07-0.57-1.74-0.01c-0.17,5.56,1.01,10.92,3.58,15.92c2.19,4.28,4.46,8.52,6.86,12.68
			c3.21,5.57,6.37,6.87,12.66,4.98c8.85-2.66,16.11-7.9,22.46-14.6c-1.14,8.64-10.84,20.89-19.89,24.83
			c-2.5,1.09-4.09,2.49-5.11,5.08c-0.82,2.06-2.51,3.78-3.87,5.61c-1.16,1.57-1.42,2.64,1.01,3.22c1.66,0.4,3.46,0.89,4.93,2.91
			c-2.41,0.52-4.31-0.31-6.15-0.63c-2.77-0.48-3.71,0.92-3.37,3.14c0.96,6.2,2.61,12.21,6.05,17.61c1.45,2.28,3.06,2.51,5.41,1.44
			c7.23-3.28,13.41-7.99,18.86-13.68c1.76-1.84,3.51-4.75,2.76-6.69c-0.76-1.95-4.07-0.67-6.26-0.53c-1.89,0.13-3.77,0.55-5.75,0.85
			c0.42-2,1.98-2.64,3.52-3.17c1.24-0.43,2.6-0.94,3.86-0.83c6.37,0.54,9.03-2.99,10.77-8.55c1.66-5.3,3.27-10.1,1.39-15.94
			c-2.33-7.21-2.18-14.95-2.03-22.55c0.03-1.51,0.3-2.26,2.05-2.65c6.68-1.49,11.57-12.14,8.62-18.39c-1.61-3.42-5.3-4.66-7.55-1.65
			c-4.93,6.61-10.83,4.77-16.72,2.91c-7.05-2.22-13.96-4.43-21.4-1.95c-0.74,0.25-1.82,0.44-2.21-0.56
			c-0.5-1.27,0.64-1.69,1.51-2.01c1.91-0.71,3.86-1.3,6.33-2.12c-6.46-4.92-12.08-10.14-16.66-16.38c-1.08-1.47-2.08-1.46-3.07-0.01
			c-3.76,5.48-5,11.62-4.73,18.16C355.56,99.32,356.24,99.7,357.38,99.8z M414.97,103.02c0.58-0.18,1.21-0.33,1.68,0.17
			c0.19,0.2,0.26,0.88,0.22,0.89c-2.55,0.98-2.97,4.66-6.68,5.08C411.3,106.23,412.19,103.88,414.97,103.02z M375.8,107.77
			c0.52-1.31,1.87-1.78,3.29-1.78c1.9-0.01,3.77,0.11,5.63,1.16c-1.36,1.17-2.55,2.31-3.86,3.29c-1.25,0.92-2.55,0.6-3.6-0.41
			C376.61,109.4,375.4,108.79,375.8,107.77z M381.6,127.6c-2.11,4.43-8.54,7.05-12.29,5.34c-0.78-0.36-1.56-0.75-1.59-1.75
			c-0.04-1.01,0.75-1.13,1.48-1.11C373.4,130.2,377.44,129.39,381.6,127.6z M363.57,119.28c0.43-2.7,1.35-5.33,2.14-8.35
			c1.46,1.91,0.76,3.47,0.59,4.94c-0.64,5.66-0.67,5.66,5.24,7.31C366.61,124.97,362.97,123.06,363.57,119.28z"/>
		<path d="M474.85,213.36c-0.99-10.78-2.05-21.55-4.54-32.13c-1.63-6.95-5.6-11.67-12.24-14.51c-7.29-3.12-14.76-5.88-21.66-9.87
			c-1.33-0.77-2.9-1.2-3.89-2.8c1.3-1.24,2.66-2.42,3.89-3.73c6.23-6.63,8.43-14.85,4.3-22.63c-5.67-10.68-7.31-21.99-8.87-33.55
			c-0.95-7.05-2.64-13.97-5.89-20.36c-8.54-16.82-27.46-24.23-46.84-18.57c-10.06,2.94-18.2,8.87-24.85,16.63
			c-7.44,8.68-9.19,18.87-4.35,29.34c4.97,10.76,4.48,21.13-0.1,31.71c-1.57,3.64-2.99,7.35-4.22,11.12
			c-2.14,6.54-0.41,12.07,4.8,16.54c0.54,0.46,1.05,0.96,1.86,1.7c-4.52,2.03-8.69,4.17-13.05,5.79
			c-8.1,3.02-13.14,8.62-15.29,16.93c-0.15,0.58-0.41,1.13-0.64,1.68c-0.03,0.08-0.17,0.12-0.82,0.56
			c-2.71-5.45-7.34-5.19-12.41-4.93c-18.15,0.91-36.32,1.52-54.48,2.09c-2.83,0.09-4.93,0.89-6.25,3.36
			c-1.3,2.45,0.02,4.35,1.44,6.25c6.28,8.38,12.49,16.8,18.81,25.15c1.23,1.62,1.6,2.88,0.39,4.78c-2.89,4.54-2.49,9.19,0.46,13.57
			c4.38,6.51,9.12,12.73,15.65,17.3c2.91,2.03,4.17,4.61,3.91,8.3c-0.38,5.28,0.06,10.58,0.93,15.82c0.68,4.11,2.42,7.5,5.89,9.94
			c6.42,4.52,12.93,8.83,20.85,10.27c1.18,0.21,2.39,0.38,3.58,0.36c4.74-0.09,4.78-0.12,3.9,4.39
			c-2.49,12.74-4.72,25.55-7.65,38.19c-1.36,5.86,0.37,9.54,5.32,12.13c2.09,1.09,2.75,2.57,2.8,4.89c0.04,1.88,0.1,3.75,0.16,5.63
			h21.77v-5.72h32.83v5.72h59.84c0.05-0.56,0.28-1.1,0.76-1.54c-0.04-1.86,1.46-3.8,3.78-3.14c0.43,0.12,0.86,0.24,1.29,0.34
			c0.86-0.48,1.73-0.96,2.59-1.43c-0.01-0.07-0.01-0.14-0.02-0.21c-0.37-2.98,0.57-4.54,3.43-5.62c5.19-1.97,5.11-2.15,4.09-7.45
			c-2.99-15.47-6.61-30.79-10.19-46.13c-1.03-4.44-0.96-4.5,3.44-3.6c5.59,1.14,11.14,1.88,16.74-0.05c4.65-1.6,7.73-4.59,9.32-9.29
			c2.2-6.48,2.73-13.16,2.75-19.93C478.25,248.81,476.47,231.09,474.85,213.36z M428.32,164.47c-0.94,6.32-0.11,6.44-6.69,7.48
			c-0.59,0.09-1.17,0.27-1.76,0.37c-2.3,0.39-2.25,1.43-0.75,2.79c1.51,1.37,2.99,2.82,4.66,3.98c2.59,1.8,2.62,3.56,1.11,6.29
			c-7.95,14.43-15.44,29.09-21.4,44.49c-2.33,6.01-2.34,6.04-8.3,2.9c-1.17-0.62-2.95-0.83-2.72-2.92c1.23-5.14,2.4-10.3,3.69-15.42
			c5.31-21.03,13.81-40.97,20.85-61.42c0.57-1.67,1.24-2.06,2.82-1.14C424.7,154.69,429.42,157,428.32,164.47z M384.56,83.62
			c3.11,2.69,6.61,4.84,10.03,7.09c-8.3-2.42-14.9-7.09-19.1-14.93C378.51,78.39,381.54,81,384.56,83.62z M360.25,79.96
			c0.99-1.44,1.99-1.46,3.07,0.01c4.58,6.24,10.2,11.46,16.66,16.38c-2.47,0.82-4.42,1.41-6.33,2.12c-0.87,0.32-2,0.74-1.51,2.01
			c0.39,1,1.47,0.8,2.21,0.56c7.44-2.48,14.35-0.27,21.4,1.95c5.89,1.86,11.79,3.7,16.72-2.91c2.25-3.02,5.93-1.77,7.55,1.65
			c2.95,6.26-1.95,16.91-8.62,18.39c-1.75,0.39-2.02,1.15-2.05,2.65c-0.14,7.6-0.29,15.34,2.03,22.55
			c1.89,5.85,0.27,10.65-1.39,15.94c-1.74,5.55-4.4,9.09-10.77,8.55c-1.26-0.11-2.61,0.4-3.86,0.83c-1.54,0.53-3.11,1.17-3.52,3.17
			c1.98-0.31,3.86-0.72,5.75-0.85c2.18-0.15,5.5-1.42,6.26,0.53c0.75,1.94-1,4.85-2.76,6.69c-5.45,5.69-11.63,10.4-18.86,13.68
			c-2.35,1.06-3.96,0.84-5.41-1.44c-3.44-5.4-5.08-11.4-6.05-17.61c-0.34-2.22,0.6-3.62,3.37-3.14c1.84,0.32,3.74,1.16,6.15,0.63
			c-1.47-2.03-3.27-2.51-4.93-2.91c-2.43-0.58-2.17-1.65-1.01-3.22c1.35-1.84,3.05-3.56,3.87-5.61c1.03-2.59,2.61-3.99,5.11-5.08
			c9.06-3.94,18.75-16.19,19.89-24.83c-6.34,6.71-13.61,11.94-22.46,14.6c-6.28,1.89-9.44,0.59-12.66-4.98
			c-2.4-4.16-4.68-8.4-6.86-12.68c-2.56-5.01-3.75-10.36-3.58-15.92c0.67-0.56,1.18-0.04,1.74,0.01c1.83,0.16,3.36-0.9,3.45-2.44
			c0.08-1.41-1.73-2-3.07-1.72c-2.97,0.61-3.31-1.37-3.24-3.32c0.09-2.85,2.18-1.05,3.41-1.18c0.79-0.08,1.9,0.47,2.23-0.53
			c0.41-1.24-0.87-1.58-1.68-1.92c-0.98-0.41-2.06-0.69-3.12-0.78c-1.14-0.1-1.82-0.48-1.87-1.68
			C355.25,91.59,356.48,85.44,360.25,79.96z M357.16,174.15c-4.16-2.72-4.09-2.8-0.7-6.57c2.28-2.54,5.1-4.38,7.91-6.23
			c3.11-2.04,6.28-4,9.61-6.96c-0.26,1.01-0.3,1.36-0.44,1.66c-8.03,16.84-15.06,34.05-19.49,52.23c-0.26,1.08-0.71,1.68-1.86,1.8
			c-2.58,0.26-4.73,1.65-6.97,2.8c-0.98,0.5-2,1.81-3.22,0.77c-1.05-0.9-1.21-2.22-0.89-3.64c1.33-5.85,3.07-11.67,3.75-17.6
			c0.87-7.53,3.78-12.85,11.62-14.53c0.23-0.05,0.43-0.21,0.64-0.32C359.42,176.44,359.21,175.49,357.16,174.15z M328.63,186.91
			c3-10.98,12.07-13.9,22.24-17.58c-2.4,2.61-1.43,3.78,0.32,4.67c2.84,1.44,1.88,2.75-0.39,3.24c-5.31,1.13-7.34,4.74-8.13,9.59
			c-0.25,1.53-0.77,3.02-1.12,4.54c-1.24,5.39-2.47,10.79-3.79,16.59c-3.02-3.17-5.09-5.77-3.38-10.16
			c1.15-2.95,0.92-6.38-0.68-9.54c-0.39,3.78-0.79,7.55-1.23,11.82C326.54,194.45,326.71,193.9,328.63,186.91z M252.78,189.06
			c0.81-1.72,2.02-1.48,3.03-1.53c19.12-0.91,38.24-1.77,57.36-2.72c2.67-0.13,4.51,0.72,6.07,2.96
			c6.12,8.79,12.4,17.46,18.58,26.21c0.72,1.01,2.26,1.93,0.15,3.45c-1.96,1.41-2.64,0.41-3.64-0.95
			c-6.09-8.36-12.3-16.65-18.28-25.09c-1.51-2.13-3.1-2.97-5.66-2.89c-9.26,0.28-18.53,0.47-27.8,0.55
			C272.72,189.12,262.87,189.06,252.78,189.06z M293.24,255.22c-0.38-1.56-1.27-2.56-2.65-3.19c-7.95-3.66-12.59-10.57-17.21-17.49
			c-1.52-2.27-1.8-4.76-0.41-7.17c3.22-5.57,7.73-10.09,12.23-14.6c0.93-0.93,2.07-1.26,3.2-0.22c1.05,0.96,1.16,2.14,0.44,3.26
			c-1.04,1.61-2.21,3.14-3.39,4.65c-2.23,2.83-4.65,5.52-6.38,8.72c-0.35,0.64-0.73,1.37-0.09,1.98c0.7,0.66,1.34,0.03,1.89-0.38
			c0.87-0.64,1.7-1.34,2.5-2.07c3.72-3.42,7.37-6.9,11.14-10.26c1.37-1.22,3.06-2.3,4.73-0.42c1.53,1.73,0.23,3.22-0.85,4.44
			c-3.2,3.58-6.57,7.03-9.81,10.58c-1.31,1.44-2.8,2.82-3.54,5.39c2.41-0.68,3.97-1.73,5.44-2.87c3.72-2.86,7.38-5.78,11.08-8.65
			c1.15-0.9,2.38-1.9,3.81-0.53c1.49,1.42,0.88,2.95-0.23,4.16c-1.78,1.94-3.76,3.71-5.66,5.54c-2.7,2.6-5.73,4.9-7.71,8.2
			c4.96-1.97,9.06-5.08,13.23-8.09c0.9-0.65,2.04-1.89,3.12-0.61c0.92,1.09-0.02,2.28-0.76,3.23c-2.15,2.79-5.04,4.8-7.63,7.12
			c-1.46,1.31-3.56,2.3-2.63,4.95c0.97,2.77,2.98,3.92,5.8,3.93c2.65,0.01,5.3,0.18,7.93,0.05c2.38-0.11,3.26,1,3.27,3.19
			c0.05,6.46-2.53,11.87-6.56,16.74c-1.11,1.34-1.96,0.92-2.85-0.21C299.98,268.65,295.08,262.83,293.24,255.22z M316.95,293.36
			c-6.25-1.96-11.81-5.25-17.58-9.59c4.03-0.09,7.16-1.17,9.78-3.42c6.57-5.63,9.89-12.79,10.09-21.46
			c0.03-1.24-1.24-3.31,0.78-3.66c2.05-0.35,4.52-1.07,6.16,1.49c1.48,2.32,3.28,4.43,4.9,6.67c0.95,1.31,1.39,2.79,1.03,4.42
			c-1.43,6.56-2.72,13.16-4.32,19.67C326.33,293.38,322.85,295.21,316.95,293.36z M347.15,259.11c-2.05,19.72-4.19,39.44-7.25,59.03
			c-1.59,10.2-3.13,20.43-6.04,30.38c-0.33,1.13-0.38,2.44-1.83,2.85c-3.72,1.06-9.67-4.05-8.94-7.8
			c2.39-12.38,5.21-24.7,7.22-37.14c1.96-12.16,7.54-23.75,5.65-35.3c0-3.72,0.01-6.25,0-8.77c-0.05-7.41-0.06-7.26,7.44-7.36
			C346.58,254.97,347.48,255.85,347.15,259.11z M342.63,228.45c-0.59-0.83-2.45-1.91-0.52-3.16c1.49-0.97,3.01-1.38,4.27,0.67
			c1.39,2.24,2.91,4.43,4.64,6.43c4.22,4.89,5.13,12.08,11.04,15.77c0.76,0.48,0.72,1.17,0.17,1.84c-0.61,0.74-1.18,1.53-2.31,1.87
			c-0.51-0.57-1.12-1.15-1.61-1.81C353.06,242.87,347.79,235.7,342.63,228.45z M379.24,319.85c-8.41,0.4-16.79,0.72-25.2-0.28
			c-3.03-0.36-4.46-1.33-3.78-4.08c0.02-4.65,0.04-4.75,4.19-4.23c8.04,1,16.09,1.28,24.11,0.06c3.06-0.47,3.42,1.15,3.49,3.43
			C382.12,317.02,383.26,319.66,379.24,319.85z M385.36,249.84c-6.52,1.09-9.96-3.04-13.05-7.71c-2.18-3.3-3.64-3.33-6.29,0.1
			c0.51,0.13,0.95,0.34,1.39,0.33c1.34-0.01,2.25,0.8,2.15,1.92c-0.11,1.34-1.51,0.83-2.37,0.83c-2.35,0-4.47-0.61-6.17-2.44
			c-1.99-2.14-2.22-3.73,0.75-5.22c2.53-1.27,5.28-2.3,7.93-5.39c-4.31,0.54-7.06,2.57-9.98,4.02c-1.88,0.94-2.57,0.15-3.38-1.24
			c-1.19-2.04,0.3-2.76,1.65-3.63c3.1-2.01,6.8-3.21,9.92-7.01c-4.06,0.77-6.43,2.67-9.12,3.86c-1.58,0.7-3.3,3.69-5.07,0.97
			c-1.65-2.53,1.5-3.33,2.81-4.56c2.29-2.14,5.46-3.25,7.72-5.91c-8.31-0.92-15.9-0.1-23.06,3.57c-0.98,0.5-2.43,1.36-3.27,0.02
			c-0.99-1.57,0.92-1.92,1.67-2.58c8.46-7.45,18.69-6.47,28.81-5.85c1.28,0.08,2.04,1.22,2.83,2.1c4.04,4.46,7.98,9.01,12.09,13.4
			c3.03,3.24,5.84,6.72,9.94,8.79c7.47,3.78,7.45,3.83,6.63,12.21c-0.16,1.68-0.37,3.35-0.61,5.02c-0.3,2.11-1.01,3.1-3.19,1.45
			c-2.78-2.1-5.74-3.96-8.58-5.98C386.83,250.45,386.33,249.67,385.36,249.84z M450.31,344.73c0.56,2.41-0.43,3.22-2.43,3.84
			c-12.53,3.86-25.33,5.52-38.43,5.39c-6.22-0.06-9.74-2.42-11.73-8.59c-7.08-22.04-10.7-44.62-11.8-67.3
			c0.05-6.04,0.32-11.69,1.29-17.27c0.14-0.78,0.04-2.05,1.03-2c0.98,0.06,2.13,0.71,2.46,1.84c0.22,0.78,0.09,1.67,0.06,2.5
			c-0.17,4.09-0.33,8.18-0.54,12.26c-0.18,3.33,1.2,5.13,4.5,6.29c13.85,4.87,27.17,11.04,40.61,16.92
			c3.18,1.39,4.92,3.53,5.78,6.77C444.57,318.41,447.24,331.62,450.31,344.73z M470.36,281.87c-1.3,7.58-3.07,8.94-11.72,9.43
			c-1.78,0.1-3.63-0.13-5.37-0.52c-17.41-3.82-34.12-10.04-51.17-15.1c-1.98-0.59-2.25-1.48-1.41-3.39
			c3.47-7.85,4.31-16.21,4.34-24.69c0.02-5.11-0.01-5.07,5.03-3.31c9.42,3.29,18.83,6.6,28.3,9.73c3.93,1.3,7.5,3.15,10.89,5.51
			c4.38,3.05,7.89,6.96,11.23,11.09c-0.67-6.12-3.83-10.93-8.15-15.37c4.58-0.75,8.42,0.98,13.05,1.03
			c-1.04-0.93-1.51-1.46-2.08-1.85c-4.62-3.17-9.63-4.76-15.32-4.09c-4.38,0.51-5.15-0.33-4.58-4.75c0.26-2.02,0.85-4,1.22-6
			c0.94-5.16,2.56-10.21,2.45-15.62c-2.01,3.78-4.03,7.56-6.42,12.05c-4.93-21.16,0.03-39.51,11.49-56.64
			c-6.72,4.11-11.31,9.63-14.45,16.44c-3.88,8.42-4.94,17.29-4.52,26.41c0.32,7.09,1.04,14.16,0.87,21.27
			c-0.06,2.57-0.61,3.49-3.34,2.46c-7.65-2.87-15.34-5.67-23.09-8.23c-2.87-0.95-3.31-2.07-2.07-4.79
			c7.16-15.78,14.81-31.3,22.94-46.59c2.55-4.8,3.6-4.05-1.35-8.15c-0.91-0.75-1.85-1.46-2.78-2.19c-0.28-0.43-0.57-0.86-0.85-1.29
			c9.44,1.45,8-4.45,8.15-9.29c0.02-0.72,0.12-1.44,0.1-2.16c-0.05-1.9,0.63-2.22,2.36-1.43c5.46,2.51,10.82,5.41,16.51,7.2
			c10.4,3.28,14.99,10.08,16.26,20.77c2.03,17.1,3.24,34.24,4.57,51.39C472.48,254.78,472.68,268.33,470.36,281.87z"/>
		<path d="M369.19,130.08c-0.72-0.02-1.51,0.11-1.48,1.11c0.04,0.99,0.81,1.39,1.59,1.75c3.76,1.7,10.19-0.91,12.29-5.34
			C377.44,129.39,373.4,130.2,369.19,130.08z"/>
		<path d="M371.53,123.18c-5.91-1.66-5.87-1.65-5.24-7.31c0.17-1.48,0.87-3.04-0.59-4.94c-0.79,3.03-1.71,5.65-2.14,8.35
			C362.97,123.06,366.61,124.97,371.53,123.18z"/>
		<path d="M377.26,110.03c1.05,1.01,2.35,1.34,3.6,0.41c1.32-0.98,2.51-2.12,3.86-3.29c-1.87-1.05-3.74-1.17-5.63-1.16
			c-1.42,0-2.77,0.47-3.29,1.78C375.4,108.79,376.61,109.4,377.26,110.03z"/>
		<path d="M416.87,104.09c0.04-0.02-0.03-0.69-0.22-0.89c-0.47-0.5-1.1-0.35-1.68-0.17c-2.77,0.86-3.67,3.21-4.78,6.14
			C413.9,108.75,414.32,105.07,416.87,104.09z"/>
		<path d="M435.85,302.58c-8.76,1.4-17.57,2.33-26.43,2.72c-0.76,0.03-1.92-0.05-1.66,1.26c0.21,1.08,0.06,2.56,1.84,2.57
			c1.56,0,3.12,0,5.15,0c6.96-0.37,14.31-1.37,21.59-2.88c1.25-0.26,2.35-0.38,2.15-2.14C438.27,302.29,437.03,302.39,435.85,302.58
			z"/>
	</g>
</g>
</svg>
