<?xml version="1.0" encoding="utf-8"?>
<!-- Generator: Adobe Illustrator 25.0.0, SVG Export Plug-In . SVG Version: 6.00 Build 0)  -->
<svg version="1.1" id="Layer_1" xmlns="http://www.w3.org/2000/svg" xmlns:xlink="http://www.w3.org/1999/xlink" x="0px" y="0px"
	 viewBox="0 0 564.27 478" style="enable-background:new 0 0 564.27 478;" xml:space="preserve">
<style type="text/css">
	.st0{fill:#185AE9;}
	.st1{fill-rule:evenodd;clip-rule:evenodd;fill:#00B0FB;}
	.st2{fill:#00B0FB;}
	.st3{fill:#00B0FB;fill-opacity:0.4;}
	.st4{fill:#FFFFFF;}
	.st5{fill:#3C7CFF;}
	.st6{fill:#001135;}
	.st7{fill:#FDFDFD;}
	.st8{fill:#DBDBDB;}
	.st9{fill:#040404;}
	.st10{fill:#080808;}
	.st11{fill:#060606;}
	.st12{fill:#101010;}
</style>
<g>
	<path d="M347.06,460.92c-0.17-5.26-1.86-10.17-3.9-14.98c-5.48-12.72-13.33-23.95-21.76-34.8c-4.88-6.28-9.96-12.38-15.2-18.33
		c-1.52-1.73-3.06-3.45-4.61-5.15c-2.36-2.61-4.77-5.19-7.2-7.74c-1.74-1.83-3.49-3.65-5.26-5.45
		c-6.01-6.14-12.18-12.14-18.46-18.02c-0.89-0.84-1.79-1.67-2.7-2.51c-0.68-0.64-1.37-1.28-2.06-1.91
		c-4.12-3.8-8.29-7.56-12.48-11.27c-0.26-0.24-0.52-0.47-0.79-0.7c-4.23-3.75-8.5-7.46-12.81-11.12c-0.59-0.5-1.19-1.01-1.79-1.51
		c-0.57-0.49-1.15-0.98-1.74-1.46c-0.17-0.15-0.35-0.29-0.52-0.43c-10.51-8.84-21.23-17.43-32.15-25.73
		c-1.07-0.81-2.14-1.62-3.22-2.44c-0.15-0.11-0.3-0.23-0.45-0.34c-3.47-2.62-6.97-5.2-10.48-7.77c-3.23-2.35-6.47-4.68-9.73-6.97
		c-1.17-0.84-2.35-1.67-3.53-2.49c-11.53-8.07-23.28-15.85-35.24-23.33c-1.83-1.15-3.67-2.29-5.51-3.42
		c-1.12-0.69-2.24-1.38-3.36-2.06c-5.73-3.49-11.51-6.91-17.35-10.22c-1.54-0.88-3.09-1.75-4.65-2.61
		c-14.94-8.3-30.27-15.85-46.2-22.2c-13.97-5.54-28.14-10.4-43.57-11.02c-2.2,0.23-4.58,0.17-6.9,0.51
		C4.63,206.86-0.12,212.4,0,221.27c0.04,4.81,1.36,9.27,3.11,13.67c4.57,11.59,11.35,21.88,18.7,31.77
		c9.17,12.33,19.13,23.93,29.64,35.03c1.43,1.52,2.88,3.02,4.33,4.52c1,1.04,2.02,2.07,3.03,3.1c0.97,1,1.95,1.98,2.93,2.96
		c1.76,1.76,3.53,3.5,5.31,5.25c0.03,0.03,0.07,0.07,0.11,0.1c0.94,0.93,1.9,1.85,2.85,2.76c0.2,0.2,0.4,0.39,0.6,0.57
		c0,0.03,0.01,0.03,0.01,0.03c0.12,0.11,0.23,0.22,0.35,0.33c2.87,2.77,5.78,5.52,8.71,8.24c1.03,0.96,2.07,1.91,3.1,2.86
		c0.71,0.67,1.43,1.33,2.15,1.99c0.7,0.64,1.41,1.28,2.12,1.92c0.53,0.48,1.06,0.98,1.61,1.46c0.56,0.51,1.12,1.01,1.68,1.5
		c2.26,2.05,4.54,4.07,6.83,6.08c0.28,0.23,0.55,0.48,0.82,0.71c0.1,0.09,0.19,0.18,0.29,0.26c0.58,0.5,1.15,1,1.73,1.5
		c0.27,0.24,0.54,0.48,0.8,0.69c2.78,2.42,5.57,4.81,8.38,7.17c1.14,0.97,2.27,1.92,3.41,2.87c1.06,0.89,2.12,1.76,3.19,2.64
		c2.21,1.83,4.45,3.66,6.69,5.47c0.01,0,0.01,0,0.01,0.01c2.18,1.76,4.36,3.51,6.55,5.24c0.2,0.16,0.41,0.32,0.61,0.48
		c0.93,0.74,1.86,1.48,2.8,2.21c0.92,0.72,1.84,1.43,2.76,2.14c1.2,0.95,2.41,1.88,3.63,2.81c3.76,2.89,7.54,5.76,11.35,8.58
		c0.81,0.61,1.62,1.22,2.43,1.82c1.77,1.31,3.54,2.61,5.32,3.9c1.03,0.75,2.06,1.49,3.09,2.23c2.56,1.87,5.15,3.71,7.74,5.54
		c0.05,0.03,0.09,0.07,0.14,0.1c0.15,0.11,0.29,0.2,0.44,0.31c0.84,0.59,1.66,1.17,2.51,1.75c0.16,0.11,0.32,0.22,0.48,0.33
		c0.09,0.07,0.19,0.14,0.29,0.2c3.62,2.55,7.25,5.05,10.92,7.52c2.47,1.69,4.95,3.35,7.44,4.99c1,0.67,2,1.34,3.02,1.98
		c0.26,0.17,0.5,0.33,0.76,0.5c0.89,0.59,1.78,1.17,2.68,1.76c1.06,0.67,2.11,1.36,3.17,2.04c4.61,2.94,9.26,5.84,13.95,8.67
		c1.07,0.66,2.14,1.3,3.21,1.94c0.8,0.48,1.59,0.95,2.38,1.42c1.06,0.63,2.13,1.26,3.2,1.89c6.44,3.76,12.94,7.41,19.54,10.93
		c3.81,2.03,7.64,4.02,11.5,5.95c0.98,0.51,1.96,0.99,2.94,1.49c3.01,1.49,6.03,2.95,9.06,4.37v0.01c1.34,0.62,2.67,1.24,4.01,1.84
		c2.28,1.04,4.58,2.05,6.89,3.03c9.41,3.99,19.04,7.48,29.02,10.12c8.64,2.26,17.35,3.95,26.38,2.82
		C342.37,476.4,347.4,470.64,347.06,460.92z"/>
	<g>
		<circle class="st4" cx="371.76" cy="27.75" r="13.59"/>
		<path class="st4" d="M409.86,124.53c18.09-0.26,32.3-14.14,32.31-32.29c-0.04-17.97-14.57-32.12-32.93-32.06
			c-17.35,0.05-32.42,14.76-32.31,31.52C377.04,110.12,391.53,124.8,409.86,124.53z M409.92,63.3
			c16.04,0.04,29.27,13.28,29.13,29.14c-0.15,16.23-13.42,28.99-30.05,28.87c-15.68-0.11-29.02-13.37-28.9-28.72
			C380.22,76.09,393.28,63.26,409.92,63.3z"/>
		<circle class="st4" cx="342.9" cy="60.78" r="13.59"/>
		<path class="st4" d="M377.65,225.93c-1.23,0-1.72,0.35-1.7,1.65c0.06,3.55,0.05,7.1-0.04,10.65c-0.04,1.41,0.48,1.78,1.81,1.76
			c4.8-0.06,9.61-0.02,14.41-0.02c0,0,0,0.01,0,0.01c4.8,0,9.61-0.05,14.41,0.03c1.48,0.02,2.12-0.32,2.07-1.96
			c-0.12-3.34-0.12-6.68,0.01-10.02c0.07-1.7-0.58-2.14-2.14-2.13C396.87,225.95,387.26,225.95,377.65,225.93z M396.15,236.59
			c-2.65,0.02-5.29,0.01-7.94,0.01c0-0.02,0-0.03,0-0.05c-2.65,0-5.29,0-7.94,0c-0.71,0-1.46,0.01-1.42-1.04
			c0.03-0.96,0.75-0.86,1.35-0.87c5.36-0.02,10.73-0.02,16.09-0.03c0.75,0,1.41,0.04,1.38,1.08
			C397.62,236.8,396.8,236.58,396.15,236.59z M402.03,229.54c0.6,0.01,1.49-0.36,1.6,0.77c0.11,1.16-0.72,1.19-1.5,1.19
			c-7.29,0-14.59-0.01-21.88-0.03c-0.7,0-1.44,0-1.4-1.06c0.04-1.14,0.89-0.87,1.52-0.87c3.68-0.02,7.36-0.01,11.05-0.01
			c0,0,0,0,0-0.01C394.95,229.53,398.49,229.51,402.03,229.54z"/>
		<path class="st4" d="M361.61,244.25c0.02-1.44-0.55-1.91-1.97-1.9c-9.6,0.05-19.2,0.06-28.8,0.01c-1.43-0.01-1.76,0.57-1.75,1.85
			c0.04,3.96,0.04,7.93-0.05,11.89c-0.03,1.41,0.52,1.76,1.83,1.75c4.8-0.06,9.6-0.02,14.4-0.02c0-0.02,0-0.04,0-0.06
			c4.8,0,9.6-0.04,14.4,0.02c1.38,0.02,2.01-0.35,1.98-1.85C361.57,252.04,361.57,248.14,361.61,244.25z M349.77,253.78
			c-2.72,0-5.43,0-8.15,0c0-0.01,0-0.02,0-0.03c-2.72,0-5.43,0-8.15,0c-0.73,0-1.41,0.01-1.4-1.05c0.01-1.1,0.78-0.96,1.46-0.96
			c5.43-0.02,10.87-0.02,16.3-0.04c0.75,0,1.4,0.03,1.38,1.06C351.19,253.81,350.48,253.78,349.77,253.78z M357.19,247.59
			c-0.07,1.14-0.92,0.85-1.54,0.85c-3.76,0.03-7.51,0.01-11.27,0.01c0-0.01,0-0.01,0-0.02c-3.62,0-7.24,0.01-10.85-0.01
			c-0.64,0-1.47,0.22-1.51-0.9c-0.04-1.22,0.81-1.09,1.56-1.09c7.38-0.01,14.75-0.02,22.13-0.03
			C356.54,246.4,357.26,246.45,357.19,247.59z"/>
		<circle class="st4" cx="337.88" cy="123.51" r="13.59"/>
		<circle class="st4" cx="440.76" cy="32.35" r="13.59"/>
		<circle class="st4" cx="467.52" cy="137.31" r="13.59"/>
		<circle class="st4" cx="373.85" cy="154.04" r="13.59"/>
		<circle class="st4" cx="479.65" cy="93.82" r="13.59"/>
		<path class="st4" d="M501.51,184.17c-8.55,0.02-17.11,0.05-25.66,0.04c-1.14,0-1.59,0.4-1.57,1.59c0.05,3.75,0.06,7.51-0.03,11.27
			c-0.03,1.47,0.62,1.71,1.88,1.69c4.1-0.06,8.21-0.02,12.31-0.02c0,0.01,0,0.01,0,0.02c4.24,0,8.49-0.03,12.73,0.02
			c1.21,0.01,1.74-0.33,1.72-1.64c-0.04-3.82,0-7.65,0.07-11.47C502.99,184.56,502.54,184.16,501.51,184.17z M492.58,195.21
			c-4.72-0.03-9.44-0.04-14.16-0.08c-0.72-0.01-1.64,0.15-1.63-1.06c0.01-1.28,1-0.92,1.67-0.93c2.36-0.04,4.72-0.02,7.08-0.02
			c2.36,0,4.72,0,7.08,0c0.74,0,1.39,0.02,1.37,1.05C493.97,195.19,493.32,195.22,492.58,195.21z M497.63,189.96
			c-3.2,0.01-6.39,0.01-9.59,0c-3.27,0-6.53,0.01-9.8-0.01c-0.68,0-1.48,0.1-1.41-1.01c0.06-0.96,0.78-0.83,1.38-0.83
			c6.46-0.01,12.92-0.02,19.39,0c0.62,0,1.49-0.26,1.5,0.89C499.1,190.12,498.3,189.96,497.63,189.96z"/>
		<path class="st8" d="M559.14,6.65c0-2.81,0-2.81-2.81-2.81c-73.25-0.01-146.5-0.02-219.75-0.03c-7.81,0-15.61,0.01-23.42,0.02
			c-2.84,0-2.85,0.02-2.85,2.76c-0.01,23.49-0.03,130.61,0.01,154.1c0,0.24-0.01,0.46-0.03,0.67c-0.01,37.51-0.02,75.02-0.07,112.53
			c0,2.05,0.73,2.38,2.51,2.38c46.42-0.04,92.84-0.04,139.25-0.04c34.85,0,69.7-0.01,104.55,0.06c2.1,0,2.65-0.51,2.65-2.64
			C559.13,184.66,559.14,95.65,559.14,6.65z M539.55,12.04v6.97c0,0.22,0.09,0.43,0.24,0.59l3.01,3.01
			c0.16,0.16,0.37,0.25,0.59,0.25h7.02l-8.07,8.07l-7.4,0.64c-0.2,0.02-0.38,0.1-0.52,0.24l-9.71,9.71
			c-0.25,0.25-0.32,0.64-0.16,0.97c0.25,0.49,0.25,0.66,0.25,1.3c0,3.23-2.63,5.86-5.86,5.86c-3.23,0-5.86-2.63-5.86-5.86
			s2.63-5.86,5.86-5.86h1.67c0.22,0,0.43-0.09,0.59-0.25l9.71-9.71c0.14-0.14,0.22-0.32,0.24-0.52l0.64-7.41L539.55,12.04z
			 M518.95,58.03c7.85,0,14.23-6.38,14.23-14.23c0-0.9,0-2.09-0.24-3.12l3.75-4.02c1.03,2.32,1.52,4.61,1.52,7.14
			c0,10.62-8.64,19.26-19.26,19.26c-10.62,0-19.26-8.64-19.26-19.26c0-10.62,8.64-19.26,19.26-19.26c2.31,0,4.53,0.39,7.09,1.27
			l-4.08,4.08c-0.3-0.02-0.62-0.07-0.97-0.13c-0.59-0.09-1.26-0.2-2.04-0.2c-7.85,0-14.23,6.38-14.23,14.23
			S511.11,58.03,518.95,58.03z M375.03,102.41c-2.45-8.11-1.98-16.1,1.37-23.88c0.48-1.11,0.14-1.45-0.76-1.85
			c-5.54-2.44-11.09-4.87-16.59-7.39c-0.62-0.29-1.06-0.31-1.42-0.13c-0.39,0.69-0.83,1.35-1.31,1.98
			c-3.1,4.01-7.95,6.59-13.41,6.59c-9.36,0-16.94-7.58-16.94-16.94c0-7.94,5.46-14.6,12.83-16.43c1.31-0.33,2.69-0.5,4.1-0.5
			c9.35,0,16.94,7.58,16.94,16.94c0,1.64-0.24,3.23-0.67,4.73c0.15,0.69,0.63,1.15,1.63,1.57c5.27,2.19,10.48,4.52,15.69,6.85
			c1.27,0.57,2.02,0.51,2.87-0.82c2.78-4.34,6.42-7.89,10.79-10.61c1.15-0.72,1.31-1.23,0.61-2.39c-3.27-5.51-6.49-11.05-9.61-16.65
			c-0.37-0.66-0.72-0.91-1.11-0.94c-2.45,1.38-5.28,2.17-8.29,2.17c-9.36,0-16.94-7.58-16.94-16.94c0-7.94,5.46-14.6,12.83-16.43
			c1.31-0.33,2.69-0.5,4.1-0.5c9.35,0,16.94,7.58,16.94,16.94c0,3.89-1.31,7.49-3.53,10.35c-0.64,0.83-1.37,1.6-2.15,2.3
			c0.02,0,0.03,0.01,0.05,0.01c-0.11,0.37-0.04,0.76,0.27,1.29c3.27,5.67,6.49,11.36,9.68,17.07c0.6,1.08,1.15,1.41,2.43,0.88
			c8.73-3.55,17.6-3.92,26.51-0.69c1.48,0.54,2.19,0.28,2.88-1.14c1.68-3.52,3.49-6.98,5.33-10.41c0.35-0.64,0.46-1.14,0.32-1.61
			c-4.05-3.09-6.66-7.97-6.66-13.46c0-7.94,5.46-14.6,12.83-16.43c1.31-0.33,2.69-0.5,4.1-0.5c9.36,0,16.94,7.58,16.94,16.94
			c0,3.89-1.31,7.49-3.53,10.35c-3.1,4.01-7.95,6.59-13.41,6.59c-2.4,0-4.67-0.5-6.74-1.4c-0.99,0.06-1.39,0.8-2.45,2.79
			c-1.38,2.58-2.61,5.24-4.09,7.76c-1.03,1.75-0.73,2.67,1.03,3.71c7.64,4.5,12.7,11.14,15.52,19.5c0.92,2.71,1.43,5.54,1.52,8.4
			c0.05,1.58,0.69,1.94,2.17,1.91c4.25-0.1,8.51-0.13,12.75-0.02c1.35,0.03,2.08-0.27,2.53-1.2c1.21-6.54,6.16-11.76,12.55-13.34
			c1.31-0.33,2.69-0.5,4.1-0.5c9.36,0,16.94,7.58,16.94,16.94c0,3.89-1.31,7.49-3.53,10.35c-3.1,4.01-7.95,6.59-13.41,6.59
			c-8.6,0-15.69-6.41-16.79-14.71c-0.35-1.02-0.97-1.28-2.21-1.25c-4.46,0.08-8.92,0.08-13.38,0.03c-1.14-0.01-1.56,0.33-1.68,1.48
			c-0.63,6.42-2.52,12.4-6.49,17.59c-0.61,0.8-0.3,1.18,0.34,1.67c4.44,3.48,8.89,6.95,13.29,10.49c0.67,0.54,1.17,0.7,1.69,0.52
			c2.27-2.77,5.41-4.81,9-5.71c1.31-0.33,2.69-0.5,4.1-0.5c9.36,0,16.94,7.58,16.94,16.94c0,3.89-1.31,7.49-3.53,10.35
			c-3.1,4.01-7.95,6.59-13.41,6.59c-9.35,0-16.94-7.58-16.94-16.94c0-2.6,0.59-5.06,1.63-7.26c0.01-0.64-0.31-1.07-0.96-1.57
			c-4.68-3.63-9.33-7.29-13.96-10.99c-0.75-0.6-1.18-0.56-1.89,0.1c-11.28,10.47-24.26,12.93-38.7,7.97
			c-1.44-0.49-2.21-0.34-3.01,0.99c-2.64,4.42-5.38,8.79-8.13,13.15c-0.55,0.87-0.57,1.43,0.03,2.14c3.2,3.08,5.19,7.4,5.19,12.19
			c0,3.89-1.31,7.49-3.53,10.35c-3.1,4.01-7.95,6.59-13.41,6.59c-9.36,0-16.94-7.58-16.94-16.94c0-7.94,5.46-14.6,12.83-16.43
			c1.31-0.33,2.69-0.5,4.1-0.5c2.78,0,5.39,0.67,7.71,1.86c1.09,0.16,1.69-0.37,2.41-1.65c2.33-4.12,4.85-8.13,7.34-12.16
			c0.64-1.03,0.82-1.64-0.48-2.41c-5.88-3.5-10.43-8.34-13.66-14.36c-0.65-1.21-1.18-1.33-2.38-0.79
			c-6.46,2.94-12.93,5.85-19.47,8.63c-1.34,0.56-1.46,1.28-1.31,2.16c0.51,1.62,0.79,3.34,0.79,5.13c0,3.89-1.31,7.49-3.53,10.35
			c-3.1,4.01-7.95,6.59-13.41,6.59c-9.35,0-16.94-7.58-16.94-16.94c0-7.94,5.46-14.6,12.83-16.43c1.31-0.33,2.69-0.5,4.1-0.5
			c5.85,0,11,2.96,14.04,7.46c0.26,0.16,0.54,0.26,0.88,0.26c1.28-0.02,2.54-1.04,3.81-1.61c5.72-2.56,11.41-5.17,17.16-7.65
			C375.17,104.45,375.46,103.83,375.03,102.41z M411.49,221.17c2.64,0,2.94,0.28,2.94,2.82c0.01,7.87,0.01,15.74,0,23.61
			c0,2.57-0.3,2.82-2.94,2.83c-12.6,0-25.21,0.01-37.81,0.01c-2.87,0-3.15-0.25-3.15-3.06c0-7.8,0-15.6,0.01-23.4
			c0.01-2.6,0.26-2.82,2.92-2.82c6.41,0,12.81,0,19.22,0c0,0,0,0.01,0,0.01C398.96,221.17,405.23,221.17,411.49,221.17z
			 M368.31,265.47c-0.01,2.35-0.6,2.91-3.02,2.91c-6.54,0.02-13.09,0.01-19.63,0.01c0-0.02,0-0.03,0-0.05
			c-6.54,0-13.09,0.01-19.63,0c-2.6,0-3.07-0.45-3.08-3.01c-0.02-8.42,0.01-16.84-0.06-25.27c-0.02-1.98,0.83-2.77,2.74-2.76
			c13.36,0.04,26.73,0.06,40.09,0.05c1.87,0,2.63,0.82,2.62,2.65C368.31,248.49,368.34,256.98,368.31,265.47z M498.13,237.2
			c-3.87,4.38-8.91,7.1-14.09,9.54c-16.81,7.9-34.74,11.26-53.08,12.87c-2.91,0.26-5.84,0.36-8.76,0.5
			c-0.58,0.03-1.46,0.22-1.4-0.74c0.11-1.85-1.14-1.54-2.21-1.54c-15.33,0.03-30.66,0.06-45.99,0.14c-1.51,0.01-2.14-0.28-2.23-2.03
			c-0.11-2.34,1.33-2.01,2.67-2.01c15.05-0.05,30.11-0.14,45.16-0.07c2.17,0.01,2.92-0.61,2.58-2.67c-0.26-1.57,0.42-2.02,1.97-1.99
			c12.16,0.2,24.22-0.88,36.11-3.44c9.88-2.12,19.59-4.88,28.45-9.97c1.58-0.91,3.07-1.93,4.37-3.21c3.13-3.07,2.96-5.75-0.54-8.33
			c-2.27-1.68-4.92-2.61-7.54-3.51c-8.59-2.93-17.53-4.4-26.4-6.16c-0.81-0.16-1.36-0.03-1.94,0.72c-1.05,1.37-2.3,1.75-3.46-0.02
			c-1.11-1.7-2.72-2.22-4.72-2.57c-9.19-1.58-18.33-3.47-27.14-6.64c-4.09-1.47-8.01-3.25-11.04-6.51
			c-4.13-4.44-4.16-10.13-0.14-14.69c3.83-4.35,8.98-6.54,14.23-8.42c10.26-3.66,20.97-5.53,31.65-7.51
			c12.32-2.29,24.6-4.66,36.5-8.78c19.93-6.9,32.41-20.65,38.19-40.75c0.99-3.43,1-3.42-2.43-4.35c-1.53-0.41-3.04-0.87-4.97-1.42
			c3.42-2.02,6.46-3.83,9.51-5.62c3.36-1.97,6.75-3.91,10.09-5.91c1.09-0.65,1.62-0.76,1.8,0.81c0.82,6.98,1.76,13.95,2.64,20.93
			c0.02,0.17-0.08,0.36-0.19,0.8c-2.1-1.72-4.08-3.33-6.19-5.06c-1.01,2.2-1.96,4.28-2.92,6.35
			c-10.08,21.58-27.23,34.49-49.81,40.91c-12.75,3.63-25.81,5.76-38.78,8.3c-9.5,1.86-18.98,3.76-27.94,7.62
			c-2.44,1.05-4.76,2.33-6.75,4.1c-3.6,3.21-3.56,7.04,0.11,10.17c3.22,2.75,7.2,3.94,11.13,5.08c6.08,1.77,12.26,3.2,18.49,4.35
			c0.67,0.12,1.35,0.15,2.07,0.23c-0.24-1.64-0.5-3.13-0.67-4.63c-0.08-0.68-0.11-1.52,0.96-1.45c0.84,0.05,2.1-0.3,2.23,0.95
			c0.57,5.35,3.85,6.65,8.77,7.33c9.98,1.38,19.88,3.44,29.43,6.87c4.36,1.57,8.49,3.53,11.79,6.91
			C502.17,227.26,502.35,232.43,498.13,237.2z M416.07,233.58c-0.03-1.84,1.06-1.49,2.15-1.58c1.36-0.11,1.81,0.39,1.77,1.76
			c-0.04,1.33-0.56,1.77-1.64,1.51C417.02,235.3,416.1,235.28,416.07,233.58z M421.47,233.72c-0.01-1.48,0.7-1.76,1.92-1.7
			c0.83,0.04,1.66,0.01,2.5,0.01c0-0.01,0-0.01,0-0.02c0.76,0,1.53,0.06,2.29-0.01c1.25-0.12,1.91,0.21,1.97,1.63
			c0.06,1.47-0.66,1.77-1.89,1.74c-1.66-0.04-3.33-0.04-4.99-0.02C422.12,235.37,421.48,235.08,421.47,233.72z M433.12,231.8
			c1.04-0.01,2.08-0.13,3.11-0.2c0,0.01,0,0.02,0,0.03c0.69-0.07,1.39-0.09,2.07-0.23c1.27-0.25,1.94,0.14,2.12,1.51
			c0.18,1.4-0.41,1.85-1.71,1.9c-1.8,0.07-3.6,0.23-5.39,0.41c-1.17,0.12-1.61-0.36-1.68-1.51
			C431.56,232.55,431.77,231.82,433.12,231.8z M442.97,230.84c1.92-0.3,3.85-0.63,5.74-1.1c1.58-0.4,1.44,0.88,1.84,1.65
			c0.5,0.97,0,1.35-0.9,1.6c-2.08,0.58-4.15,1.16-6.44,1.32c-1.5,0.2-1.11-1.12-1.35-1.96
			C441.57,231.37,442.01,230.99,442.97,230.84z M455.52,226.02c0.72-0.82,1.53-0.39,2.29-0.13c0.44,0.15,0.93,0.34,0.96,1.12
			c-0.22,0.35-0.44,0.86-0.81,1.26c-1.03,1.13-2.22,2.07-3.53,2.86c-0.99,0.6-1.77,0.86-2.53-0.46c-0.78-1.35-0.38-1.92,0.89-2.46
			C453.87,227.75,454.74,226.91,455.52,226.02z M455.66,216.94c0.74-0.53,1.37-0.59,1.92,0.28c1.14,1.78,2.04,3.64,2.15,5.79
			c-0.14,0.62,0.19,1.56-0.96,1.48c-0.94-0.07-2.15,0.09-2.43-1.12c-0.36-1.58-0.9-3.06-1.65-4.48
			C454.12,217.79,454.98,217.42,455.66,216.94z M465.26,191.37c-1.61,0.42-2.25-0.34-2.24-1.92c0.01-2.3,1.8-1.08,2.77-1.36
			c1.02-0.29,1.76-0.09,1.83,1.4C467.7,191.41,466.71,191.54,465.26,191.37z M460.64,191.96c-1.88,0.41-3.75,0.94-5.59,1.52
			c-1.57,0.49-1.67-0.78-2.12-1.63c-0.53-1,0.13-1.31,0.93-1.61c2.01-0.74,4.04-1.38,6.67-1.71c0.91-0.18,0.88,0.94,1.08,1.76
			C461.8,191.11,461.71,191.73,460.64,191.96z M451.75,195.06c-1.56,0.98-2.82,2.24-3.66,3.9c-0.42,0.83-1.17,0.65-1.82,0.4
			c-0.55-0.21-1.21-0.38-1.22-1.21c-0.03-1.61,3.92-6.02,5.94-6.18c0.49-0.02,0.69,0.74,1.04,1.3
			C452.44,193.93,452.53,194.57,451.75,195.06z M508.82,206.16c-0.01,2.58-0.37,2.91-2.89,2.91c-11.56,0.02-23.12,0.01-34.68,0.05
			c-1.59,0.01-2.32-0.62-2.32-2.2c0-8.36,0-16.71-0.02-25.07c0-1.65,0.86-2.13,2.38-2.12c5.92,0.04,11.84,0.02,17.76,0.02
			c0-0.01,0-0.02,0-0.03c5.78,0,11.56,0.05,17.34-0.03c1.82-0.03,2.5,0.68,2.49,2.45C508.83,190.15,508.86,198.16,508.82,206.16z
			 M547.81,186.92c-5.64-0.03-11.28-0.01-16.92-0.01c-5.5,0-11-0.05-16.5,0.03c-1.83,0.03-2.47-0.69-2.46-2.46
			c0.04-8.08,0.03-16.15,0-24.23c-0.01-1.48,0.55-2.16,2.08-2.16c11.35,0.01,22.7,0,34.04-0.05c1.59-0.01,2.28,0.63,2.28,2.23
			c-0.03,8.15-0.03,16.29,0,24.44C550.35,186.52,549.37,186.93,547.81,186.92z M518.95,76.45c-18,0-32.65-14.65-32.65-32.65
			s14.65-32.65,32.65-32.65c4.46,0,8.69,0.82,12.61,2.45l-4.05,4.05c-3.16-0.99-5.97-1.48-8.56-1.48
			c-15.23,0-27.63,12.39-27.63,27.63s12.39,27.63,27.63,27.63c15.23,0,27.63-12.39,27.63-27.63c0-3.29-0.62-6.23-1.25-8.77
			l3.83-3.57c1.62,3.64,2.44,7.79,2.44,12.34C551.61,61.8,536.96,76.45,518.95,76.45z"/>
		<path class="st4" d="M544.59,164.11c0.02-1.21-0.43-1.53-1.58-1.52c-3.97,0.06-7.94,0.02-11.92,0.02c0-0.01,0-0.02,0-0.03
			c-4.04,0-8.08,0.06-12.12-0.03c-1.38-0.03-1.79,0.41-1.76,1.76c0.07,3.41,0.06,6.83-0.01,10.24c-0.03,1.28,0.26,1.88,1.71,1.87
			c8.01-0.05,16.03-0.03,24.04,0.02c1.26,0.01,1.71-0.4,1.69-1.68C544.56,171.21,544.54,167.66,544.59,164.11z M534.22,173.09
			c-2.16,0.03-4.32,0.01-6.48,0.01c0-0.01,0-0.02,0-0.03c-2.3,0-4.6,0-6.9,0c-0.7,0-1.46,0.08-1.44-1c0.02-1.09,0.84-0.93,1.5-0.93
			c4.46-0.03,8.92-0.04,13.38-0.04c0.68,0,1.48-0.1,1.54,0.94C535.88,173.28,534.94,173.09,534.22,173.09z M539.51,168.2
			c-3.12,0.01-6.25,0.01-9.37,0.01c0-0.01,0-0.02,0-0.03c-3.12,0-6.25,0.01-9.37-0.01c-0.6,0-1.3,0.15-1.38-0.81
			c-0.08-1.07,0.65-1.05,1.36-1.05c6.25-0.02,12.5-0.04,18.75-0.05c0.67,0,1.47-0.09,1.48,0.97
			C540.99,168.33,540.18,168.2,539.51,168.2z"/>
		<path d="M562.06,0.01c-2.29,0.14-4.6,0.01-6.9,0.01c-44.19,0.01-88.37,0.02-132.56,0.02c-38.33,0-76.67,0-115-0.05
			c-1.79,0-2.54,0.32-2.54,2.37c0.08,26.42,0.05,136.47,0.07,162.88c0,0.46-0.16,0.99,0.04,1.47c-0.02,36.5-0.04,73-0.06,109.51
			c0,2.75,0.01,2.76,2.68,2.76c84.13,0.01,168.25,0.01,252.38,0.01c4.05,0,4.06-0.01,4.06-4.1c0.01-76.18,0.02-152.36,0.02-228.54
			c0-14.71-0.04-29.41,0.02-44.12C564.28,0.53,563.83-0.1,562.06,0.01z M556.54,276.3c-34.85-0.07-69.7-0.06-104.55-0.06
			c-46.42,0-92.84,0-139.25,0.04c-1.79,0-2.52-0.33-2.51-2.38c0.05-37.51,0.06-75.02,0.07-112.53c0.02-0.22,0.03-0.44,0.03-0.67
			c-0.04-23.49-0.02-130.61-0.01-154.1c0-2.74,0.01-2.75,2.85-2.76c7.81-0.01,15.61-0.02,23.42-0.02
			c73.25,0.01,146.5,0.02,219.75,0.03c2.8,0,2.81,0,2.81,2.81c0,89-0.01,178.01,0.05,267.01
			C559.19,275.79,558.64,276.3,556.54,276.3z"/>
		<path d="M373.78,105.04c-5.75,2.48-11.45,5.09-17.16,7.65c-1.27,0.57-2.53,1.59-3.81,1.61c-0.34,0-0.63-0.1-0.88-0.26
			c-3.04-4.5-8.2-7.46-14.04-7.46c-1.41,0-2.79,0.17-4.1,0.5c-7.37,1.83-12.83,8.49-12.83,16.43c0,9.36,7.58,16.94,16.94,16.94
			c5.46,0,10.31-2.58,13.41-6.59c2.21-2.86,3.53-6.45,3.53-10.35c0-1.79-0.28-3.51-0.79-5.13c-0.15-0.88-0.03-1.6,1.31-2.16
			c6.53-2.77,13.01-5.69,19.47-8.63c1.2-0.54,1.73-0.42,2.38,0.79c3.23,6.02,7.78,10.86,13.66,14.36c1.3,0.77,1.12,1.38,0.48,2.41
			c-2.5,4.03-5.01,8.04-7.34,12.16c-0.73,1.28-1.32,1.8-2.41,1.65c-2.31-1.18-4.93-1.86-7.71-1.86c-1.41,0-2.79,0.17-4.1,0.5
			c-7.37,1.83-12.83,8.49-12.83,16.43c0,9.36,7.58,16.94,16.94,16.94c5.46,0,10.31-2.58,13.41-6.59c2.21-2.86,3.53-6.45,3.53-10.35
			c0-4.79-1.99-9.11-5.19-12.19c-0.59-0.71-0.58-1.27-0.03-2.14c2.75-4.35,5.49-8.73,8.13-13.15c0.8-1.33,1.57-1.48,3.01-0.99
			c14.45,4.96,27.42,2.5,38.7-7.97c0.72-0.66,1.14-0.7,1.89-0.1c4.63,3.69,9.28,7.36,13.96,10.99c0.64,0.5,0.97,0.93,0.96,1.57
			c-1.05,2.2-1.63,4.66-1.63,7.26c0,9.36,7.58,16.94,16.94,16.94c5.46,0,10.31-2.58,13.41-6.59c2.21-2.86,3.53-6.45,3.53-10.35
			c0-9.36-7.58-16.94-16.94-16.94c-1.41,0-2.79,0.17-4.1,0.5c-3.59,0.89-6.73,2.93-9,5.71c-0.52,0.18-1.02,0.02-1.69-0.52
			c-4.4-3.54-8.84-7.01-13.29-10.49c-0.64-0.5-0.95-0.87-0.34-1.67c3.96-5.19,5.85-11.17,6.49-17.59c0.12-1.15,0.54-1.5,1.68-1.48
			c4.46,0.05,8.92,0.05,13.38-0.03c1.24-0.02,1.86,0.23,2.21,1.25c1.09,8.3,8.19,14.71,16.79,14.71c5.46,0,10.31-2.58,13.41-6.59
			c2.21-2.86,3.53-6.45,3.53-10.35c0-9.36-7.58-16.94-16.94-16.94c-1.41,0-2.79,0.17-4.1,0.5c-6.39,1.59-11.34,6.81-12.55,13.34
			c-0.46,0.93-1.19,1.24-2.53,1.2c-4.24-0.11-8.5-0.08-12.75,0.02c-1.48,0.04-2.12-0.33-2.17-1.91c-0.09-2.86-0.61-5.68-1.52-8.4
			c-2.82-8.36-7.88-15-15.52-19.5c-1.76-1.03-2.06-1.96-1.03-3.71c1.48-2.52,2.72-5.18,4.09-7.76c1.06-1.99,1.46-2.74,2.45-2.79
			c2.07,0.9,4.34,1.4,6.74,1.4c5.46,0,10.31-2.58,13.41-6.59c2.21-2.86,3.53-6.45,3.53-10.35c0-9.36-7.58-16.94-16.94-16.94
			c-1.41,0-2.79,0.17-4.1,0.5c-7.37,1.83-12.83,8.49-12.83,16.43c0,5.49,2.61,10.37,6.66,13.46c0.14,0.47,0.03,0.96-0.32,1.61
			c-1.84,3.43-3.65,6.89-5.33,10.41c-0.69,1.43-1.4,1.68-2.88,1.14c-8.91-3.24-17.78-2.86-26.51,0.69c-1.28,0.52-1.83,0.2-2.43-0.88
			c-3.2-5.71-6.41-11.41-9.68-17.07c-0.31-0.53-0.38-0.92-0.27-1.29c-0.02,0-0.03-0.01-0.05-0.01c0.78-0.7,1.51-1.47,2.15-2.3
			c2.21-2.86,3.53-6.45,3.53-10.35c0-9.36-7.58-16.94-16.94-16.94c-1.41,0-2.79,0.17-4.1,0.5c-7.37,1.83-12.83,8.49-12.83,16.43
			c0,9.36,7.58,16.94,16.94,16.94c3.01,0,5.84-0.79,8.29-2.17c0.38,0.03,0.74,0.28,1.11,0.94c3.12,5.6,6.34,11.14,9.61,16.65
			c0.69,1.17,0.53,1.68-0.61,2.39c-4.37,2.72-8.01,6.27-10.79,10.61c-0.85,1.33-1.6,1.39-2.87,0.82
			c-5.21-2.33-10.42-4.65-15.69-6.85c-1-0.42-1.48-0.88-1.63-1.57c0.44-1.5,0.67-3.09,0.67-4.73c0-9.36-7.58-16.94-16.94-16.94
			c-1.41,0-2.79,0.17-4.1,0.5c-7.37,1.83-12.83,8.49-12.83,16.43c0,9.36,7.58,16.94,16.94,16.94c5.46,0,10.31-2.58,13.41-6.59
			c0.48-0.63,0.92-1.29,1.31-1.98c0.36-0.17,0.8-0.15,1.42,0.13c5.5,2.53,11.05,4.96,16.59,7.39c0.9,0.4,1.24,0.74,0.76,1.85
			c-3.35,7.78-3.81,15.77-1.37,23.88C375.46,103.83,375.17,104.45,373.78,105.04z M337.88,137.1c-7.49,0-13.59-6.1-13.59-13.59
			c0-7.49,6.1-13.59,13.59-13.59c7.49,0,13.59,6.1,13.59,13.59C351.48,131.01,345.38,137.1,337.88,137.1z M387.44,154.04
			c0,7.49-6.1,13.59-13.59,13.59c-7.49,0-13.59-6.1-13.59-13.59s6.1-13.59,13.59-13.59C381.34,140.45,387.44,146.55,387.44,154.04z
			 M467.52,123.72c7.49,0,13.59,6.1,13.59,13.59s-6.1,13.59-13.59,13.59c-7.49,0-13.59-6.1-13.59-13.59S460.03,123.72,467.52,123.72
			z M479.65,80.23c7.49,0,13.59,6.1,13.59,13.59c0,7.49-6.1,13.59-13.59,13.59s-13.59-6.1-13.59-13.59
			C466.06,86.33,472.16,80.23,479.65,80.23z M427.17,32.35c0-7.49,6.1-13.59,13.59-13.59c7.49,0,13.59,6.1,13.59,13.59
			s-6.1,13.59-13.59,13.59C433.27,45.94,427.17,39.84,427.17,32.35z M371.76,41.34c-7.49,0-13.59-6.1-13.59-13.59
			s6.1-13.59,13.59-13.59c7.49,0,13.59,6.1,13.59,13.59S379.25,41.34,371.76,41.34z M409.24,60.17
			c18.35-0.06,32.89,14.09,32.93,32.06c-0.01,18.15-14.22,32.03-32.31,32.29c-18.33,0.27-32.82-14.41-32.93-32.83
			C376.81,74.93,391.89,60.23,409.24,60.17z M342.9,74.38c-7.49,0-13.59-6.1-13.59-13.59s6.1-13.59,13.59-13.59
			s13.59,6.1,13.59,13.59S350.4,74.38,342.9,74.38z"/>
		<path d="M485.91,215.79c-9.54-3.43-19.45-5.49-29.43-6.87c-4.92-0.68-8.2-1.99-8.77-7.33c-0.13-1.25-1.39-0.9-2.23-0.95
			c-1.07-0.06-1.03,0.78-0.96,1.45c0.17,1.5,0.43,2.98,0.67,4.63c-0.72-0.08-1.41-0.11-2.07-0.23c-6.23-1.15-12.41-2.58-18.49-4.35
			c-3.93-1.14-7.9-2.34-11.13-5.08c-3.67-3.13-3.71-6.96-0.11-10.17c2-1.78,4.31-3.05,6.75-4.1c8.95-3.86,18.43-5.76,27.94-7.62
			c12.98-2.53,26.03-4.67,38.78-8.3c22.58-6.42,39.73-19.33,49.81-40.91c0.97-2.07,1.91-4.14,2.92-6.35
			c2.11,1.72,4.08,3.34,6.19,5.06c0.11-0.44,0.21-0.63,0.19-0.8c-0.88-6.98-1.82-13.94-2.64-20.93c-0.19-1.57-0.71-1.46-1.8-0.81
			c-3.35,2-6.73,3.94-10.09,5.91c-3.05,1.79-6.09,3.6-9.51,5.62c1.92,0.55,3.44,1.01,4.97,1.42c3.43,0.92,3.42,0.91,2.43,4.35
			c-5.78,20.1-18.26,33.84-38.19,40.75c-11.9,4.12-24.18,6.48-36.5,8.78c-10.67,1.99-21.39,3.85-31.65,7.51
			c-5.25,1.87-10.4,4.07-14.23,8.42c-4.02,4.57-3.99,10.25,0.14,14.69c3.03,3.26,6.95,5.04,11.04,6.51
			c8.81,3.17,17.94,5.06,27.14,6.64c2,0.34,3.61,0.87,4.72,2.57c1.16,1.77,2.4,1.39,3.46,0.02c0.58-0.76,1.13-0.88,1.94-0.72
			c8.87,1.76,17.81,3.23,26.4,6.16c2.63,0.9,5.27,1.83,7.54,3.51c3.51,2.59,3.68,5.26,0.54,8.33c-1.3,1.28-2.79,2.3-4.37,3.21
			c-8.86,5.1-18.57,7.85-28.45,9.97c-11.89,2.56-23.95,3.64-36.11,3.44c-1.55-0.03-2.23,0.42-1.97,1.99
			c0.34,2.06-0.42,2.68-2.58,2.67c-15.05-0.07-30.11,0.02-45.16,0.07c-1.34,0-2.78-0.33-2.67,2.01c0.08,1.75,0.71,2.04,2.23,2.03
			c15.33-0.08,30.66-0.1,45.99-0.14c1.07,0,2.32-0.31,2.21,1.54c-0.06,0.96,0.83,0.77,1.4,0.74c2.92-0.14,5.85-0.25,8.76-0.5
			c18.34-1.61,36.27-4.98,53.08-12.87c5.18-2.43,10.22-5.15,14.09-9.54c4.21-4.78,4.03-9.94-0.43-14.51
			C494.4,219.32,490.28,217.36,485.91,215.79z"/>
		<path d="M365.73,237.34c-13.36,0.01-26.73-0.01-40.09-0.05c-1.92-0.01-2.76,0.78-2.74,2.76c0.06,8.42,0.04,16.84,0.06,25.27
			c0.01,2.56,0.47,3.01,3.08,3.01c6.54,0.01,13.09,0,19.63,0c0,0.02,0,0.03,0,0.05c6.54,0,13.09,0.01,19.63-0.01
			c2.42-0.01,3.01-0.56,3.02-2.91c0.03-8.49,0.01-16.98,0.04-25.47C368.36,238.16,367.59,237.34,365.73,237.34z M359.68,257.78
			c-4.8-0.06-9.6-0.02-14.4-0.02c0,0.02,0,0.04,0,0.06c-4.8,0-9.6-0.04-14.4,0.02c-1.31,0.02-1.86-0.33-1.83-1.75
			c0.09-3.96,0.09-7.93,0.05-11.89c-0.01-1.28,0.32-1.86,1.75-1.85c9.6,0.05,19.2,0.04,28.8-0.01c1.41-0.01,1.98,0.46,1.97,1.9
			c-0.04,3.89-0.04,7.79,0.05,11.68C361.7,257.44,361.06,257.8,359.68,257.78z"/>
		<path d="M373.47,221.16c-2.66,0-2.91,0.22-2.92,2.82c-0.02,7.8-0.02,15.6-0.01,23.4c0,2.81,0.27,3.06,3.15,3.06
			c12.6,0,25.21-0.01,37.81-0.01c2.64,0,2.93-0.25,2.94-2.83c0.02-7.87,0.01-15.74,0-23.61c0-2.54-0.31-2.82-2.94-2.82
			c-6.27,0-12.53,0-18.8,0c0,0,0-0.01,0-0.01C386.28,221.16,379.88,221.15,373.47,221.16z M406.47,225.9
			c1.56-0.01,2.21,0.43,2.14,2.13c-0.13,3.34-0.12,6.68-0.01,10.02c0.06,1.64-0.58,1.98-2.07,1.96c-4.8-0.07-9.61-0.03-14.41-0.03
			c0,0,0-0.01,0-0.01c-4.8,0-9.61-0.04-14.41,0.02c-1.33,0.02-1.85-0.35-1.81-1.76c0.1-3.55,0.11-7.1,0.04-10.65
			c-0.02-1.31,0.47-1.66,1.7-1.65C387.26,225.95,396.87,225.95,406.47,225.9z"/>
		<path d="M506.4,179.7c-5.78,0.08-11.56,0.03-17.34,0.03c0,0.01,0,0.02,0,0.03c-5.92,0-11.84,0.03-17.76-0.02
			c-1.53-0.01-2.39,0.47-2.38,2.12c0.02,8.36,0.03,16.71,0.02,25.07c0,1.58,0.73,2.21,2.32,2.2c11.56-0.04,23.12-0.04,34.68-0.05
			c2.52,0,2.88-0.34,2.89-2.91c0.03-8.01,0.01-16.01,0.06-24.02C508.89,180.37,508.22,179.67,506.4,179.7z M502.9,197.13
			c0.01,1.31-0.51,1.65-1.72,1.64c-4.24-0.05-8.48-0.02-12.73-0.02c0-0.01,0-0.01,0-0.02c-4.1,0-8.21-0.03-12.31,0.02
			c-1.26,0.02-1.92-0.22-1.88-1.69c0.09-3.75,0.08-7.51,0.03-11.27c-0.02-1.19,0.43-1.59,1.57-1.59c8.55,0.01,17.11-0.02,25.66-0.04
			c1.03,0,1.48,0.39,1.46,1.49C502.89,189.48,502.86,193.31,502.9,197.13z"/>
		<path d="M550.33,160.27c0-1.6-0.69-2.23-2.28-2.23c-11.35,0.04-22.7,0.06-34.04,0.05c-1.53,0-2.09,0.68-2.08,2.16
			c0.03,8.08,0.04,16.15,0,24.23c-0.01,1.76,0.63,2.49,2.46,2.46c5.5-0.08,11-0.03,16.5-0.03c5.64,0,11.28-0.02,16.92,0.01
			c1.56,0.01,2.53-0.4,2.52-2.21C550.3,176.56,550.31,168.42,550.33,160.27z M542.95,176.44c-8.01-0.05-16.03-0.07-24.04-0.02
			c-1.45,0.01-1.73-0.59-1.71-1.87c0.07-3.41,0.08-6.83,0.01-10.24c-0.03-1.35,0.38-1.79,1.76-1.76c4.04,0.09,8.08,0.03,12.12,0.03
			c0,0.01,0,0.02,0,0.03c3.97,0,7.94,0.04,11.92-0.02c1.15-0.02,1.6,0.3,1.58,1.52c-0.05,3.55-0.03,7.11,0.04,10.66
			C544.66,176.04,544.21,176.45,542.95,176.44z"/>
		<path d="M460.53,188.54c-2.62,0.33-4.66,0.97-6.67,1.71c-0.8,0.29-1.46,0.61-0.93,1.61c0.45,0.85,0.55,2.12,2.12,1.63
			c1.84-0.58,3.7-1.11,5.59-1.52c1.07-0.23,1.16-0.85,0.96-1.66C461.4,189.48,461.43,188.37,460.53,188.54z"/>
		<path d="M433.31,235.22c1.79-0.18,3.59-0.34,5.39-0.41c1.29-0.05,1.89-0.5,1.71-1.9c-0.17-1.37-0.84-1.76-2.12-1.51
			c-0.68,0.13-1.38,0.16-2.07,0.23c0-0.01,0-0.02,0-0.03c-1.04,0.07-2.08,0.18-3.11,0.2c-1.34,0.02-1.56,0.76-1.48,1.91
			C431.7,234.86,432.15,235.33,433.31,235.22z"/>
		<path d="M443.2,234.31c2.29-0.16,4.36-0.74,6.44-1.32c0.9-0.25,1.41-0.63,0.9-1.6c-0.4-0.77-0.26-2.05-1.84-1.65
			c-1.89,0.47-3.81,0.8-5.74,1.1c-0.96,0.15-1.4,0.53-1.12,1.52C442.08,233.19,441.7,234.51,443.2,234.31z"/>
		<path d="M428.25,235.38c1.22,0.03,1.94-0.27,1.89-1.74c-0.05-1.43-0.72-1.75-1.97-1.63c-0.76,0.07-1.52,0.01-2.29,0.01
			c0,0.01,0,0.01,0,0.02c-0.83,0-1.67,0.04-2.5-0.01c-1.22-0.07-1.93,0.22-1.92,1.7c0.01,1.36,0.65,1.65,1.79,1.63
			C424.92,235.33,426.59,235.34,428.25,235.38z"/>
		<path d="M450.98,191.97c-2.02,0.16-5.97,4.58-5.94,6.18c0.01,0.84,0.67,1,1.22,1.21c0.65,0.25,1.4,0.42,1.82-0.4
			c0.85-1.66,2.1-2.92,3.66-3.9c0.78-0.49,0.69-1.13,0.28-1.79C451.67,192.71,451.48,191.95,450.98,191.97z"/>
		<path d="M458.78,224.49c1.14,0.09,0.82-0.85,0.96-1.48c-0.11-2.15-1.02-4.01-2.15-5.79c-0.55-0.87-1.18-0.81-1.92-0.28
			c-0.68,0.48-1.54,0.86-0.96,1.95c0.76,1.42,1.3,2.9,1.65,4.48C456.62,224.58,457.84,224.42,458.78,224.49z"/>
		<path d="M451.9,230.68c0.77,1.32,1.54,1.06,2.53,0.46c1.31-0.79,2.5-1.74,3.53-2.86c0.36-0.4,0.59-0.92,0.81-1.26
			c-0.02-0.78-0.52-0.97-0.96-1.12c-0.76-0.27-1.57-0.7-2.29,0.13c-0.78,0.89-1.65,1.73-2.73,2.19
			C451.52,228.76,451.11,229.32,451.9,230.68z"/>
		<path d="M465.79,188.09c-0.97,0.28-2.76-0.94-2.77,1.36c-0.01,1.58,0.63,2.35,2.24,1.92c1.45,0.17,2.44,0.04,2.36-1.88
			C467.55,188.01,466.81,187.8,465.79,188.09z"/>
		<path d="M418.35,235.26c1.09,0.26,1.6-0.18,1.64-1.51c0.04-1.36-0.41-1.87-1.77-1.76c-1.08,0.09-2.17-0.26-2.15,1.58
			C416.1,235.28,417.02,235.3,418.35,235.26z"/>
		<path d="M408.99,121.31c16.63,0.12,29.9-12.64,30.05-28.87c0.15-15.86-13.09-29.1-29.13-29.14c-16.64-0.04-29.7,12.79-29.83,29.29
			C379.97,107.95,393.31,121.21,408.99,121.31z"/>
		<path d="M355.71,246.4c-7.38,0.01-14.75,0.02-22.13,0.03c-0.75,0-1.6-0.12-1.56,1.09c0.04,1.13,0.86,0.9,1.51,0.9
			c3.62,0.02,7.24,0.01,10.85,0.01c0,0.01,0,0.01,0,0.02c3.76,0,7.51,0.01,11.27-0.01c0.62,0,1.47,0.29,1.54-0.85
			C357.26,246.45,356.54,246.4,355.71,246.4z"/>
		<path d="M349.82,251.7c-5.43,0.02-10.87,0.02-16.3,0.04c-0.68,0-1.45-0.14-1.46,0.96c-0.01,1.05,0.68,1.05,1.4,1.05
			c2.72,0,5.43,0,8.15,0c0,0.01,0,0.02,0,0.03c2.72,0,5.43,0,8.15,0c0.72,0,1.42,0.03,1.44-1.02
			C351.22,251.73,350.57,251.7,349.82,251.7z"/>
		<path d="M391.4,229.53c-3.68,0-7.36-0.01-11.05,0.01c-0.62,0-1.48-0.27-1.52,0.87c-0.03,1.05,0.7,1.06,1.4,1.06
			c7.29,0.02,14.59,0.03,21.88,0.03c0.78,0,1.61-0.03,1.5-1.19c-0.1-1.13-1-0.76-1.6-0.77C398.49,229.51,394.95,229.53,391.4,229.53
			C391.4,229.53,391.4,229.53,391.4,229.53z"/>
		<path d="M396.29,234.61c-5.36,0.01-10.73,0.01-16.09,0.03c-0.61,0-1.32-0.09-1.35,0.87c-0.03,1.05,0.71,1.04,1.42,1.04
			c2.65,0.01,5.29,0,7.94,0c0,0.02,0,0.03,0,0.05c2.65,0,5.29,0.01,7.94-0.01c0.65-0.01,1.47,0.21,1.51-0.91
			C397.71,234.65,397.04,234.6,396.29,234.61z"/>
		<path d="M497.6,188.12c-6.46-0.02-12.92-0.01-19.39,0c-0.6,0-1.32-0.13-1.38,0.83c-0.07,1.1,0.74,1,1.41,1.01
			c3.27,0.02,6.53,0.01,9.8,0.01c3.2,0,6.39,0.01,9.59,0c0.67,0,1.47,0.16,1.46-0.95C499.09,187.86,498.22,188.12,497.6,188.12z"/>
		<path d="M492.62,193.12c-2.36,0.01-4.72,0-7.08,0c-2.36,0-4.72-0.03-7.08,0.02c-0.67,0.01-1.66-0.36-1.67,0.93
			c-0.01,1.2,0.91,1.05,1.63,1.06c4.72,0.05,9.44,0.06,14.16,0.08c0.74,0,1.39-0.03,1.41-1.04
			C494.01,193.14,493.36,193.12,492.62,193.12z"/>
		<path d="M539.49,166.27c-6.25,0.01-12.5,0.03-18.75,0.05c-0.71,0-1.44-0.02-1.36,1.05c0.07,0.96,0.78,0.81,1.38,0.81
			c3.12,0.01,6.25,0.01,9.37,0.01c0,0.01,0,0.02,0,0.03c3.12,0,6.25,0.01,9.37-0.01c0.67,0,1.48,0.12,1.47-0.96
			C540.96,166.18,540.17,166.27,539.49,166.27z"/>
		<path d="M534.28,171.1c-4.46,0-8.92,0.02-13.38,0.04c-0.66,0-1.48-0.16-1.5,0.93c-0.02,1.07,0.74,0.99,1.44,1
			c2.3,0.01,4.6,0,6.9,0c0,0.01,0,0.02,0,0.03c2.16,0,4.32,0.02,6.48-0.01c0.72-0.01,1.66,0.18,1.6-1.05
			C535.76,171.01,534.96,171.1,534.28,171.1z"/>
		<path d="M530.93,27.98l-9.71,9.71c-0.16,0.16-0.37,0.25-0.59,0.25h-1.67c-3.23,0-5.86,2.63-5.86,5.86s2.63,5.86,5.86,5.86
			c3.23,0,5.86-2.63,5.86-5.86c0-0.64,0-0.81-0.25-1.3c-0.16-0.32-0.1-0.71,0.16-0.97l9.71-9.71c0.14-0.14,0.32-0.23,0.52-0.24
			l7.4-0.64l8.07-8.07h-7.02c-0.22,0-0.43-0.09-0.59-0.25l-3.01-3.01c-0.16-0.16-0.24-0.37-0.24-0.59v-6.97l-7.73,8.01l-0.64,7.41
			C531.16,27.66,531.07,27.84,530.93,27.98z"/>
		<path d="M545.34,35.03c0.62,2.53,1.25,5.48,1.25,8.77c0,15.23-12.39,27.63-27.63,27.63c-15.23,0-27.63-12.39-27.63-27.63
			s12.39-27.63,27.63-27.63c2.59,0,5.4,0.48,8.56,1.48l4.05-4.05c-3.92-1.63-8.15-2.45-12.61-2.45c-18,0-32.65,14.65-32.65,32.65
			s14.65,32.65,32.65,32.65c18,0,32.65-14.65,32.65-32.65c0-4.55-0.82-8.69-2.44-12.34L545.34,35.03z"/>
		<path d="M518.95,29.57c0.78,0,1.45,0.1,2.04,0.2c0.35,0.05,0.67,0.1,0.97,0.13l4.08-4.08c-2.56-0.87-4.79-1.27-7.09-1.27
			c-10.62,0-19.26,8.64-19.26,19.26c0,10.62,8.64,19.26,19.26,19.26c10.62,0,19.26-8.64,19.26-19.26c0-2.52-0.48-4.82-1.52-7.14
			l-3.75,4.02c0.24,1.03,0.24,2.22,0.24,3.12c0,7.85-6.38,14.23-14.23,14.23c-7.85,0-14.23-6.38-14.23-14.23
			S511.11,29.57,518.95,29.57z"/>
	</g>
	<g>
		<path d="M364.74,191.83c-2.08-5.77-5.98-7.97-12.16-6.79c-2.24,0.42-4.44,1.09-6.66,1.65c-7.06,1.8-14.18,2.73-22.26,2.17
			c3.25-2.65,5.27-5.25,6.2-8.56c0.7-2.5,0.65-5.03-1.53-6.7c-2.26-1.74-4.31-0.25-6.19,1.14c-3.55,2.64-6.97,5.56-11.3,6.86
			c-5.32,1.58-9.44,4.62-11.35,9.81c-2.97,8.1-8.91,13.26-16.11,17.25c-6.74,3.73-12.59,8.84-20.31,11.11
			c-9.24,2.7-17.33,7.64-21.66,16.99c-0.33,0.73-0.54,2.01-1.81,1.32c-1.29-0.7-1.37-1.82-0.73-3.14c1.91-3.94,4.75-7.09,8.15-9.76
			c1.2-0.94,1.86-1.55,1.15-3.31c-8.41-20.66-14.49-42.11-21.24-63.33c-1.49-4.69-4.29-7.52-8.77-9.13
			c-6.75-2.43-13.47-4.93-20.17-7.49c-1.76-0.67-3.92-0.78-4.98-2.69c0.63-1.61,2.77,0.1,3.3-1.73c-0.53-0.73-1.18-1.4-1.6-2.19
			c-4.49-8.48-6.98-16.85-2.34-26.47c4.36-9.03,6.04-18.94,4.46-29.02c-0.55-3.57,0.04-6.34,1.9-9.4
			c6.87-11.33,4.85-22.76-4.95-30.65c-2.89-2.31-6.51-3.19-9.38-5.64c-15.78-13.55-44.85-11.74-59.15,3.34
			c-7.66,8.08-10.62,18.07-12.03,28.63c-1.32,9.85-3.95,19.06-9.97,27.18c-1.98,2.67-3.5,5.75-4.86,8.8
			c-4.82,10.84-2.16,23.35,6.36,29.09c-3.01-8.29-3.82-16.24,0.55-24.07c-1.84,11.98-0.31,22.94,9.33,31.61
			c-0.92,0.41-1.32,0.63-1.75,0.78c-9.66,3.34-19.29,6.78-29,9.95c-5.08,1.67-8.47,4.47-9.32,10.03c-0.57,3.76-1.63,7.45-2.41,11.18
			C66.1,199.8,57.4,228.31,52,257.61c-1.85,10.09,0.34,18.01,8.13,24.56c3.77,3.19,7.77,6.14,12.44,7.57
			c7.76,2.35,15.46,2.61,21.63-4c1.49-1.61,3.22-2.17,4.88-1.31c2.2,1.14,0.39,3.03,0.01,4.42c-4.08,14.69-8.25,29.34-12.35,44.02
			c1.42,0.54,2.7,1.38,3.71,2.53c2.87,3.28,7.45,5.65,11.09,7.04c4.17,1.6,7.11,4.64,7.97,8.55c5.71,1.25,11.47,2.23,17.31,2.73
			c0.44,0,6.71-0.03,15.76-0.2c2.38-0.73,3.09-2.51,4.24-6.97c4.43-17.22,5.63-34.93,7.78-52.49l0.45-4.26l0.65-6.23
			c3.86,0,7.71,0.01,11.56,0.01c6.16,0,12.32,0.01,18.48,0.01c2.16-0.01,3.16-1.4,3.78-3.33c5.88-18.47,11.8-36.92,17.72-55.38
			c1.18-3.65-0.04-4.87-3.87-4.85c-21.39,0.13-42.77,0.16-64.17,0.03c-3.65-0.02-5.05,1.53-5.86,4.84
			c-1.72,7.12-3.73,14.17-5.76,21.21c-0.58,2-0.98,4.26-3.51,5.76c1.11-10.4,3.04-20.09,5.66-29.66c1.21-4.41,3.71-6.02,8.29-5.98
			c21.7,0.19,43.39,0.37,65.08-0.09c2.73-0.06,4.95,0.69,6.4,2.06c1.86,1.78,2.46,4.59,1.24,8.14c-0.44,1.27-0.85,2.54-1.29,3.82
			c-4.52,13.32-8.69,26.77-13,40.16c-0.7,2.16-1.39,4.28-1.15,6.69c2.21,23.09,4.52,46.19,6.37,69.31c0.14,1.91,0.53,3.12,1.19,3.85
			c7.72-1.07,12.72-2.45,12.45-4.25l0.67,2.91c5.3-1.56,10.47-3.56,15.64-5.56c2.89-1.12,3.46-2.5,2.74-5.47
			c-4.69-19.42-8.51-39.08-13.93-58.29c-2.22-7.87-3.82-15.64-4.48-23.36c1.45-0.27,2.9-0.37,4.33-0.31
			c4.54,5.24,8.95,10.6,14.42,14.95c3.95,3.14,8.15,4.31,13.23,2.7c9.46-2.98,18.7-6.51,27.98-10c4.89-1.83,7.9-5.26,8.15-10.04
			c0.41-7.87,4.36-13.28,10.03-18c1.29-1.06,2.56-2.26,3.47-3.64c5.9-8.93,14.02-12.17,24.75-11.96
			c10.34,0.21,20.29-2.77,28.17-10.27c4.41-4.18,8.67-8.51,13.04-12.72C365.05,195.38,365.41,193.71,364.74,191.83z"/>
		<path class="st8" d="M221.59,194.56c-1.56-3.64-2.71-7.47-4.4-11.05c-1.66-3.51-1.77-7.07-1.1-10.7c0.23-1.27-0.57-3.62,1.79-3.49
			c2.2,0.12,1.67,2.24,1.54,3.65c-0.45,4.66,0.01,9.06,2.38,13.26c6.99,12.39,7.68,25.1,1.94,38.25
			c-3.85,8.82-4.98,18.21-4.61,27.79c0,0.04,0,0.08,0.01,0.12c-1.15-0.02-2.27,0.06-3.38,0.2c-0.58-11.95,1.17-23.79,6.4-35.7
			C225.3,209.72,224.76,201.95,221.59,194.56z"/>
		<path class="st8" d="M118.31,148.47c1.81-10.54,1.81-10.49,12.07-10.76c2.51-0.07,2.58,1.9,3.02,3.31
			c3.67,11.63,7.27,23.28,10.78,34.96c3.16,10.51,6.63,20.96,7.6,31.97c0.16,1.84,1.64,4.74-1.46,5.38c-2.9,0.6-5.6,0.58-7.38-3.31
			c-6.08-13.33-13.3-26.08-21.11-38.47c-2.25-3.57-2.33-5.76,1.76-7.76c3.11-1.52,5.93-3.65,9.91-6.17
			c-4.88-0.65-8.62-1.42-12.38-1.57c-3.69-0.14-4.49-1.71-3.45-4.9C117.95,150.27,118.15,149.37,118.31,148.47z"/>
		<path class="st8" d="M177.6,135.41c9.46,1.9,14.34,8.79,19.47,15.43c1.42,1.84,0.55,2.41-1.03,3.32
			c-2.92,1.69-6.16,2.18-10.37,2.93c5.08,2.24,9.17,4.24,13.42,5.82c2.23,0.83,3.05,1.91,3.02,4.29
			c-0.15,14.54-1.81,28.96-3.16,43.41c-0.21,2.22-1.27,2.66-3.3,2.69c-2.46,0.04-2.98-1.02-3.18-3.25
			c-2.01-22.38-5.72-44.48-11.46-66.22C180.26,141,179.17,138.35,177.6,135.41z"/>
		<path class="st8" d="M147.66,169.22c11.05,4.5,21.58,7,32.32,1.25c2.08-1.11,2.32,0.12,2.55,1.62c1.92,12.34,4.39,24.6,5.42,37.08
			c0.25,2.99-0.31,4.46-3.8,4.34c-7.92-0.27-15.86-0.18-23.8-0.19c-1.93,0-3.71,0.04-3.81-2.64c-0.51-13.58-5.65-26.15-8.58-39.2
			C147.83,170.91,147.8,170.32,147.66,169.22z"/>
		<path class="st4" d="M209.49,230.15c0.43-1.28,0.84-2.55,1.29-3.82c1.22-3.54,0.62-6.36-1.24-8.13c0.01,2.11,0.01,3.68,0.01,4.28
			C209.55,224,209.52,226.6,209.49,230.15z"/>
		<path class="st8" d="M65.75,243.87c3.42-2.18,7.22-3.08,11.26-3.02c5.72-0.12,10.65,2.06,15.2,5.28c0.93,0.65,2.34,1.48,1.18,2.87
			c-0.98,1.18-1.94-0.1-2.75-0.58c-7.54-4.48-15.25-5.86-23.31-1.42c-1.2,0.66-2.3,0.95-3.11-0.45
			C63.24,244.86,64.85,244.44,65.75,243.87z"/>
		<path class="st4" d="M267.66,223.72c7.24-4.54,14.34-9.33,21.79-13.51c5.84-3.28,10.29-7.36,12.46-13.86
			c1.88-5.63,5.43-9.56,11.53-11.29c4.19-1.19,7.93-3.76,12.06-7.54c-0.41,4.63-2.61,6.64-4.99,8.56c-1.19,0.96-2.36,1.94-3.52,2.93
			c-1.12,0.95-1.83,2.15-1.3,3.62c0.54,1.52,2.05,1.14,3.17,1.15c9.48,0.09,18.92-0.3,28.18-2.68c3.03-0.78,6.1-1.42,9.25-1.74
			c-6.41,3.57-13,6.54-20.28,7.67c-1.23,0.19-3.24-0.21-2.99,1.86c0.25,2.08,2.2,1.22,3.36,1.06c3.9-0.53,7.76-1.29,12.23-2.07
			c-3.92,6.39-11.66,5.72-16.04,10.24c7.38-0.75,14.06-2.39,17.93-9.78c1.71-3.27,5.18-4.73,9.14-5.05
			c-10.9,13.88-23.81,23.32-42.23,22.3c-2.58-0.14-5.19,0.12-7.78,0.26c-3.04,0.16-5.34,1.47-7.46,3.81
			c-9.74,10.75-19.65,21.33-29.99,31.52c-2.71,2.67-3.82,1.57-5.38-0.91c-4.58-7.31-4.04-15.13-2.55-23.07
			C264.59,225.36,266.25,224.6,267.66,223.72z"/>
		<path class="st8" d="M101.44,198.55c-0.2-13.92-2.27-27.41-11.36-38.78c-0.83-1.04-1.47-1.93-0.12-3.08
			c1.78-1.5,2.48,0.14,3.2,1.13c6.38,8.66,10.1,18.39,11.57,29.02c2.07,15.02,0.49,29.87-2.38,44.61
			c-0.77,3.96-1.21,7.59,0.18,11.59c1.27,3.65,1.46,7.67,2.16,11.73c-8.21-1.88-9.46-3.72-7.96-11.23
			C99.69,228.69,101.66,213.72,101.44,198.55z"/>
		<path class="st4" d="M138.2,93.62c-5.74-0.11-11.2-10.64-8.41-15.62c1.81-3.23,4.39-2.71,7.04-1.14c6.34,3.75,6.51,3.77,7.24-3.7
			c0.4-4.03,1.58-6.29,6.16-6.59c2.13-0.14,4.23-0.46,6.31-0.94c1.99-0.46,3.94-1.12,5.8-1.98c1.81-0.83,3.51-1.88,5.14-3.02
			c1.03-0.72,2.03-1.48,3.02-2.25c0.2-0.16,0.4-0.31,0.6-0.47c0.57-0.45,1.14-0.9,1.71-1.34c2.25-1.74,4.16-3.88,5.8-6.2
			c1.62-2.29,2.84-4.88,4.19-7.33c0.08-0.14,0.19-0.3,0.35-0.29c0.09,0.01,0.16,0.07,0.22,0.13c2.57,2.37,4.46,5.24,5.84,8.45
			c1.39,3.23,2.13,6.7,2.53,10.19c0.19,1.69-0.74,1.99-2.12,2.2c-1.33,0.21-2.65,0.66-3.91,1.18c-0.68,0.28-1.33,0.94-1.13,1.79
			c0.32,1.36,1.32,0.83,2.18,0.65c0.75-0.16,1.5-0.32,2.26-0.33c1.26-0.03,2.89-0.68,2.97,1.61c0.06,1.77-0.06,2.74-2.44,2.5
			c-2.04-0.21-4.17,1.13-4.03,3.45c0.15,2.53,2.32,3.16,4.44,2.32c1.96-0.77,1.94,0.31,2.14,1.59c1.87,11.74-0.03,22.84-6.06,33.07
			c-2.51,4.26-6.78,4.61-11.33,3.87c-8.47-1.37-16.38-4.17-23.8-8.65c4.26,7.97,9.79,14.66,17.78,18.95c2.55,1.37,3.95,2.9,3.78,6
			c-0.24,4.37,1.37,8.21,3.49,12.1c3.18,5.83,2.96,12.69,4.57,19.02c0.4,1.59-1.06,1.97-2.04,2.63c-8.11,5.44-16.46,4.21-24.98,1.1
			c-5.84-2.13-9.65-5.58-10.97-12.07c-1.12-5.49-3.36-10.76-5.27-16.07c-0.8-2.22-0.75-3.88,0.98-5.78
			c3.57-3.93,4.36-9.03,4.72-14.07c0.48-6.86,0.44-13.73-0.4-20.58C142.23,95.34,141.7,93.69,138.2,93.62z"/>
		<path d="M181.98,74.83c1.69,2.91,3.17,5.47,4.66,8.02c2.75,4.71,1.05,7.44-6.21,7.67C189.23,85.16,180.22,80.27,181.98,74.83z"/>
		<path d="M172.12,67.31c0.03,0.81-0.62,1.43-1.39,1.54c-0.51,0.07-1.02-0.03-1.53-0.11c-3.66-0.53-7.25,0.53-10.77,1.42
			c0.06-0.01,0.19-0.81,0.21-0.89c0.11-0.43,0.33-0.76,0.61-1.11c2-2.48,5.47-3.15,8.5-2.93c1.1,0.08,2.21,0.27,3.24,0.68
			C171.64,66.18,172.09,66.7,172.12,67.31z"/>
		<path d="M169.22,77.07c-3.47,2.69-4.79-0.9-7.12-2.26c2.55-2.21,4.91-3.95,7.79-1.52C171.49,74.64,170.43,76.12,169.22,77.07z"/>
		<path d="M171.2,97.81c5.46-0.17,9.83,0.9,14.08-0.54C181.86,101.16,177.75,101.37,171.2,97.81z"/>
		<path d="M215.31,345.7l0.72,3.12c-2.74,0.81-5.51,1.51-8.34,2.02c-2.28,0.41-3.82,0.39-4.78-0.68
			C210.95,349.06,216.03,347.6,215.31,345.7z"/>
		<path d="M137.47,354.07c-3.58,0.09-7.12-0.04-10.64-0.34c0.45,0,6.72-0.03,15.76-0.2C141.4,353.89,139.79,354.01,137.47,354.07z"
			/>
		<path class="st8" d="M124.11,251.87c2.53-1.5,2.93-3.76,3.51-5.76c2.03-7.04,4.04-14.08,5.76-21.21c0.81-3.31,2.21-4.86,5.86-4.84
			c21.4,0.12,42.78,0.1,64.17-0.03c3.83-0.02,5.05,1.2,3.87,4.85c-5.93,18.46-11.84,36.91-17.72,55.38
			c-0.62,1.93-1.62,3.32-3.78,3.33c-6.16,0-12.32-0.01-18.48-0.01c-3.85,0-7.7-0.01-11.56-0.01l-0.65,6.23
			c0.01,0.3,0,0.65-0.06,1.07c-0.13,1.07-0.27,2.13-0.4,3.2c-2.15,17.57-3.35,35.27-7.78,52.49c-1.15,4.46-1.86,6.24-4.24,6.97
			c17.25-0.32,44.5-1.18,60.31-3.35c-0.65-0.73-1.04-1.94-1.19-3.85c-1.85-23.12-4.16-46.21-6.37-69.31
			c-0.23-2.41,0.46-4.53,1.15-6.69c4.31-13.4,8.48-26.85,13-40.16c0.02-3.55,0.06-6.16,0.06-7.67c0-0.6,0-2.18-0.01-4.28
			c-1.45-1.38-3.67-2.12-6.4-2.06c-21.69,0.46-43.38,0.28-65.08,0.09c-4.58-0.03-7.08,1.58-8.29,5.98
			C127.15,231.79,125.22,241.47,124.11,251.87z"/>
		<path class="st4" d="M154.61,294.06c0.13-1.07,0.27-2.13,0.4-3.2c0.06-0.41,0.07-0.77,0.06-1.07L154.61,294.06z"/>
		<path class="st4" d="M88.25,280.82c8.6,0.43,17.21,0.49,25.7,2c2.51,0.44,5.03,0.86,7.58,0.96c3.71,0.14,7.41,0.01,11.07-0.68
			c2.04-0.38,4.04-0.91,5.98-1.66c2.09-0.81,4.12-1.79,6.15-2.73c3.12-1.44,6.15-3.08,8.94-5.1c1.41-1.03,2.76-2.15,4.01-3.37
			c0.62-0.61,1.22-1.25,1.79-1.91c0.3-0.35,0.6-0.7,0.88-1.07c0.19-0.23,0.52-0.91,0.78-1.03c-5.65,2.53-10.65,6.35-16.57,8.39
			c1.9-3.16,5.37-4.2,8.06-6.27c3.75-2.89,7.79-5.4,11.11-8.82c0.8-0.82,2.23-1.75,1.01-3c-0.93-0.93-1.94,0.31-2.75,0.87
			c-5.52,3.84-10.9,7.88-17.08,10.64c-1.03,0.47-2.01,1.41-4.03,0.21c6.81-3.94,13.14-7.77,19.11-12.11
			c1.85-1.35,3.76-2.62,5.59-3.98c1.23-0.91,1.17-2.18,0.32-3.23c-0.98-1.22-1.85-0.2-2.72,0.39c-6.53,4.55-13.28,8.71-20.64,11.8
			c-1.71,0.72-3.43,1.95-5.98,0.74c2.86-2.9,6.28-4.2,9.47-5.72c4.16-1.98,8.08-4.33,11.91-6.83c1.08-0.71,3.53-0.99,2.52-3.06
			c-1.03-2.13-3.05-0.82-4.46-0.28c-6.69,2.59-13.31,5.36-19.98,8c-2.7,1.07-5.49,1.81-8.43,1.94c-7.19,0.31-7.39,0.09-6.15-6.87
			c0.59-3.28,1.12-6.58,1.68-9.88c-6.33,4.92-8.03,12.22-10.95,18.78c-1.39,3.1-2.47,3.94-5.67,2.57c-4.2-1.79-8.61-3.1-12.94-4.57
			c-5.76-1.98-8.98-0.97-12.37,4.07c-1.9,2.82-3,5.98-3.14,9.43C77.63,278.61,79.17,280.36,88.25,280.82z"/>
	</g>
</g>
</svg>
