<?xml version="1.0" encoding="utf-8"?>
<!-- Generator: Adobe Illustrator 24.3.0, SVG Export Plug-In . SVG Version: 6.00 Build 0)  -->
<svg version="1.1" id="Layer_1" xmlns="http://www.w3.org/2000/svg" xmlns:xlink="http://www.w3.org/1999/xlink" x="0px" y="0px"
	 width="113.9px" height="166.4px" viewBox="0 0 113.9 166.4" style="enable-background:new 0 0 113.9 166.4;" xml:space="preserve"
	>
<style type="text/css">
	.st0{fill:#00B0FB;}
	.st1{fill:#00B0FB;fill-opacity:0.4;}
	.st2{fill:#FFFFFF;}
	.st3{fill:none;}
	.st4{fill:#001135;}
	.st5{fill:#3C7CFF;}
	.st6{fill:#3C7CFF;stroke:#001135;stroke-width:0.7602;stroke-miterlimit:10;}
	.st7{fill:#DBDBDB;}
	.st8{fill:#B9B9B9;}
	.st9{fill:#080808;}
	.st10{fill:#060606;}
	.st11{fill:#070707;}
	.st12{fill:#121212;}
	.st13{fill:#111111;}
	.st14{fill:#090909;}
	.st15{fill:#FDFDFD;}
	.st16{fill:#F9F9F9;}
	.st17{fill:#F3F2F3;}
	.st18{fill:#FAFAFA;}
	.st19{fill:#0A0A0A;}
	.st20{fill:#EEEEEE;}
	.st21{fill:#0D0D0D;}
	.st22{fill:#0C0C0C;}
	.st23{fill:#0E0E0E;}
	.st24{fill:#050505;}
	.st25{fill:#3A3A3A;}
	.st26{fill:#525252;}
	.st27{fill:#474747;}
	.st28{fill:#1E1E1E;}
	.st29{fill:#1D1D1D;}
	.st30{fill:#222222;}
	.st31{fill:#494949;}
	.st32{fill:#585858;}
	.st33{fill:#EDEDED;}
	.st34{fill:#F0F0F0;}
	.st35{fill:#EAEAEA;}
	.st36{fill:#EAE9EA;}
	.st37{fill:#040404;}
	.st38{fill:#F4F3F4;}
	.st39{fill:#030303;}
	.st40{fill:#E8E8E8;}
	.st41{fill:#0C0C0B;}
	.st42{fill:#0D0D0C;}
	.st43{fill:#919191;}
	.st44{fill:#909090;}
	.st45{fill:#0E0E0D;}
	.st46{fill:#0C0D0C;}
	.st47{fill:#090908;}
	.st48{fill:#141414;}
	.st49{fill:#4C4D4D;}
	.st50{fill:#737474;}
	.st51{fill:#242424;}
	.st52{fill:#202020;}
	.st53{fill:#101010;}
	.st54{fill:#0D0E0D;}
	.st55{fill:#111212;}
	.st56{fill:#0B0B0B;}
	.st57{fill:#0D0C0C;}
	.st58{fill:#E7E7E7;}
	.st59{fill:#272727;}
	.st60{fill:#2E2E2E;}
	.st61{fill:#1F1E1E;}
	.st62{fill:#1B1A1A;}
	.st63{fill:#E6E6E6;}
	.st64{fill:#0F0E0E;}
	.st65{fill:#F2F2F2;}
	.st66{fill:#F4F3F3;}
	.st67{fill:#F9F8F8;}
	.st68{fill:#F1F1F0;}
	.st69{fill:#F6F6F6;}
	.st70{fill:#F5F6F6;}
	.st71{fill:#F5F5F5;}
	.st72{fill:#2C2C2C;}
	.st73{fill:#252625;}
	.st74{fill:#303030;}
	.st75{fill:#2D2D2C;}
	.st76{fill:#2D2D2D;}
	.st77{fill:#262727;}
	.st78{fill:#191919;}
	.st79{fill:#1B1B1B;}
	.st80{fill:#F7F7F7;}
	.st81{fill:#F6F7F7;}
	.st82{fill:#F9F9FA;}
	.st83{fill:#F4F4F4;}
	.st84{fill:#F8F8F8;}
	.st85{fill:#FCFCFC;}
	.st86{fill:#FBFBFB;}
	.st87{fill:#E2E1E2;}
	.st88{fill:#D8D7D8;}
	.st89{fill:#0F0F0F;}
	.st90{fill:#161616;}
	.st91{fill:#181818;}
	.st92{fill:#131313;}
	.st93{fill-rule:evenodd;clip-rule:evenodd;fill:#00B0FB;}
	.st94{fill:#030302;}
	.st95{fill:#D2D3D3;}
	.st96{fill:#1F1F1F;}
	.st97{fill:#0E0D0E;}
	.st98{fill:#BABBBB;}
	.st99{fill:#8A8A8A;}
	.st100{fill:#8E8F8F;}
	.st101{fill:#464746;}
	.st102{fill:#5F5E5E;}
	.st103{fill:#151414;}
	.st104{fill:#282828;}
	.st105{fill:#030202;}
	.st106{fill:#040403;}
	.st107{fill:#040303;}
	.st108{fill:#202021;}
	.st109{fill:#020202;}
	.st110{fill:#050506;}
	.st111{fill:#010101;}
	.st112{fill:#F3F3F3;}
	.st113{fill:#F1F1F1;}
	.st114{fill:#FAFAF9;}
	.st115{fill:#040504;}
	.st116{fill:#070708;}
	.st117{fill:#131212;}
	.st118{fill:#070808;}
	.st119{fill:#3C3C3C;}
	.st120{fill:#FEFEFE;}
</style>
<g>
	<g>
		<path class="st0" d="M103.8,44.1c-1.8,0-3.3-0.3-4.7-0.8c-0.1,0.4-0.2,0.8-0.3,1.2c0.1,0,0.1,0,0.2,0c0.2,0,0.4,0.1,0.5,0.2
			c3,3.1,2.2,43.2,1.6,75.5l0,34.3c0,4.4-3.6,8-8,8h-6c0.2,0.3,0.3,0.7,0.5,1.1c1-0.2,2-0.3,3.2-0.3c2.9,0,5.4,0.8,7.3,2.1
			c4.1-1.9,7-6,7-10.8V44.1C104.6,44.1,104.2,44.1,103.8,44.1z"/>
	</g>
	<path class="st0" d="M19.8,37.8c1.5-1.6,2.3-3.7,2.3-6.1V5.6c0.1-0.3,0-0.6-0.2-0.9c-0.6-0.7-2.1-1-4.7-1c-1.3,0-2.6,0.1-3.8,0.1
		C12.4,3.9,11.6,4,11,4c-0.6,0-0.8,0-0.9-0.1c0,0,0,0-0.1,0c-3.2,0-5.9,2.6-5.9,5.9v21.9c0,2.4,0.8,4.6,2.3,6.1
		c1.6,1.7,4.1,2.6,6.7,2.6C15.7,40.4,18.2,39.5,19.8,37.8z"/>
	<path class="st1" d="M36,89.8h-9.2c-1.4,0-2.5,1.1-2.5,2.5v8.4c0,1.4,1.1,2.5,2.5,2.5H36c1.4,0,2.5-1.1,2.5-2.5v-8.4
		C38.4,90.9,37.3,89.8,36,89.8z"/>
	<path class="st1" d="M36,119h-9.2c-1.4,0-2.5,1.1-2.5,2.5v8.4c0,1.4,1.1,2.5,2.5,2.5H36c1.4,0,2.5-1.1,2.5-2.5v-8.4
		C38.4,120.1,37.3,119,36,119z"/>
	<path class="st0" d="M48,31.5c0,0,0,0.1,0,0.1c0,2.4,0.8,4.6,2.3,6.1c1.6,1.7,4.1,2.6,6.7,2.6c2.6,0,5-1,6.7-2.6
		c1.5-1.6,2.3-3.7,2.3-6.1V5.6c0-0.9-0.8-1.7-1.7-1.7H49.6c0,0-0.1-0.1-0.2-0.1c-0.2,0-0.4,0.1-0.5,0.2c-1.4,1.4-1.2,10.4-1,20.3
		C48,27.9,48.1,31.2,48,31.5z"/>
	<path class="st0" d="M26.1,31.5c0,0,0,0.1,0,0.1c0,2.4,0.8,4.6,2.3,6.1c1.6,1.7,4.1,2.6,6.7,2.6c2.6,0,5-1,6.7-2.6
		c1.5-1.6,2.3-3.7,2.3-6.1V5.6c0-0.9-0.8-1.7-1.7-1.7H27.7c0,0-0.1-0.1-0.2-0.1c-0.2,0-0.4,0.1-0.5,0.2c-1.4,1.4-1.2,10.4-1,20.3
		C26.1,27.9,26.2,31.2,26.1,31.5z"/>
	<path class="st0" d="M69.8,31.5c0,0,0,0.1,0,0.1c0,2.4,0.8,4.6,2.3,6.1c1.6,1.7,4.1,2.6,6.7,2.6c2.6,0,5-1,6.7-2.6
		c1.5-1.6,2.3-3.7,2.3-6.1V5.6c0-0.9-0.8-1.7-1.7-1.7H71.5c0,0-0.1-0.1-0.2-0.1c-0.2,0-0.4,0.1-0.5,0.2c-1.4,1.4-1.2,10.4-1,20.3
		C69.9,27.9,70,31.2,69.8,31.5z"/>
	<path class="st0" d="M100.4,3.8c-1.1,0-2.2,0-3.2,0.1c-0.9,0-1.8,0.1-2.5,0.1c-0.5,0-0.9,0-1.3,0c0,0-0.2-0.1-0.3-0.1
		c-0.2,0-0.4,0.1-0.5,0.2c-1.4,1.4-1.2,10.4-1,20.3c0.1,3.5,0.2,6.8,0,7.2c0,0,0,0.1,0,0.1c0,2.4,0.8,4.6,2.3,6.1
		c1.6,1.7,4.1,2.6,6.7,2.6c2.6,0,5-1,6.7-2.6c1.5-1.6,2.3-3.7,2.3-6.1V9.8c0-1.6-0.4-2.9-1.3-3.9C106.5,4,103.1,3.8,100.4,3.8z"/>
	<path class="st1" d="M36,60.6h-9.2c-1.4,0-2.5,1.1-2.5,2.5v8.4c0,1.4,1.1,2.5,2.5,2.5H36c1.4,0,2.5-1.1,2.5-2.5v-8.4
		C38.4,61.7,37.3,60.6,36,60.6z"/>
	<path class="st2" d="M61.8,150.6c-0.3,0.6-0.9,0.9-1.6,0.9h-6.7c-1.3,0-1.9-1-1.9-1.9c0-0.5,0.2-1,0.5-1.4c0.3-0.4,0.8-0.6,1.4-0.6
		h6.7c0.7,0,1.3,0.3,1.6,0.9C62.2,149.1,62.2,150,61.8,150.6z"/>
	<g>
		<path class="st3" d="M26.1,31.5c0,0,0,0.1,0,0.1c0,2.4,0.8,4.6,2.3,6.1c1.6,1.7,4.1,2.6,6.7,2.6c2.6,0,5-1,6.7-2.6
			c1.5-1.6,2.3-3.7,2.3-6.1v-26c0-0.9-0.8-1.7-1.7-1.7H27.7c0,0-0.1-0.1-0.2-0.1c-0.2,0-0.3,0.1-0.5,0.2c-1.4,1.4-1.2,10.4-1,20.3
			C26.1,27.9,26.2,31.2,26.1,31.5z"/>
		<path class="st3" d="M19.8,37.8c1.5-1.6,2.3-3.7,2.3-6.1v-26c0.1-0.3,0-0.6-0.2-0.9c-0.6-0.7-2.1-1-4.7-1c-1.3,0-2.6,0.1-3.8,0.1
			C12.4,3.9,11.6,4,11,4c-0.6,0-0.8,0-0.9-0.1c0,0,0,0-0.1,0c-3.2,0-5.9,2.6-5.9,5.9v21.9c0,2.4,0.8,4.6,2.3,6.1
			c1.6,1.7,4.1,2.6,6.7,2.6S18.2,39.5,19.8,37.8z"/>
		<path class="st3" d="M69.8,31.5c0,0,0,0.1,0,0.1c0,2.4,0.8,4.6,2.3,6.1c1.7,1.7,4.1,2.6,6.7,2.6c2.6,0,5-1,6.7-2.6
			c1.5-1.6,2.3-3.7,2.3-6.1v-26c0-0.9-0.8-1.7-1.7-1.7H71.5c0,0-0.1-0.1-0.2-0.1c-0.2,0-0.4,0.1-0.5,0.2c-1.4,1.4-1.2,10.4-1,20.3
			C69.9,27.9,70,31.2,69.8,31.5z"/>
		<path class="st3" d="M48,31.5c0,0,0,0.1,0,0.1c0,2.4,0.8,4.6,2.3,6.1c1.7,1.7,4.1,2.6,6.7,2.6c2.6,0,5-1,6.7-2.6
			c1.5-1.6,2.3-3.7,2.3-6.1v-26c0-0.9-0.8-1.7-1.7-1.7H49.6c0,0-0.1-0.1-0.2-0.1c-0.2,0-0.3,0.1-0.5,0.2c-1.4,1.4-1.2,10.4-1,20.3
			C48,27.9,48.1,31.2,48,31.5z"/>
		<path class="st3" d="M101,44.5c-0.1,0-0.2,0-0.4,0.1h-0.2c-0.1,0-0.4,0-0.4,0c-3.1,0-5.6-1.8-8.1-3.5c-0.7-0.5-1.4-1-2-1.4
			c0,0-0.1,0-0.1,0c0,0-0.1,0-0.1,0c-3.2,3-7.4,4.8-11.3,4.8c-3.6,0-6.8-1.5-9.1-4.3c-0.3-0.3-0.6-0.4-1-0.4c-0.9,0-2.1,0.9-3.4,1.8
			c-1.9,1.4-4.2,3.1-6.7,3.1c-0.4,0-0.7,0-1-0.1c-0.4,0.1-0.8,0.1-1.1,0.1c-2.6,0-4.9-1.7-6.7-3.1c-1.3-1-2.5-1.8-3.4-1.8
			c-0.4,0-0.7,0.1-1,0.4c-2.4,2.8-5.5,4.3-9.1,4.3c-3.9,0-8.2-1.8-11.4-4.8c0,0-0.1,0-0.1,0c0,0-0.1,0-0.1,0
			c-0.4,0.2-0.7,0.5-1.1,0.8c-2.9,2.1-5.9,4.2-9.5,4.2c-0.6,0-1.2-0.1-1.9-0.2h0c0,0-0.1,0-0.2,0.1c-0.9,0.9-0.8,33.4-0.5,75.8
			c0.1,18,0.2,33.5,0,34.1c0,4.5,3.6,8.1,8,8.1h76.3c4.4,0,8-3.6,8-8l0-34.3c0.6-32.2,1.4-72.4-1.6-75.5
			C101.3,44.5,101.1,44.5,101,44.5z"/>
		<path class="st3" d="M100.4,3.8c-1.1,0-2.2,0-3.2,0.1c-0.9,0-1.8,0.1-2.5,0.1c-0.5,0-0.9,0-1.3,0c0,0-0.2-0.1-0.3-0.1
			c-0.2,0-0.4,0.1-0.5,0.2c-1.4,1.4-1.2,10.4-1,20.3c0.1,3.5,0.2,6.8,0,7.2c0,0,0,0.1,0,0.1c0,2.4,0.8,4.6,2.3,6.1
			c1.7,1.7,4.1,2.6,6.7,2.6c2.6,0,5-1,6.7-2.6c1.5-1.6,2.3-3.7,2.3-6.1V9.8c0-1.6-0.4-2.9-1.3-3.9C106.5,4,103.1,3.8,100.4,3.8z"/>
		<path class="st2" d="M110.4,2.4C108.8,0.8,106.7,0,104,0H10C4.6,0,0.2,4.4,0.2,9.7c0.3,2.3,0.1,5.5,0,8.8
			c-0.4,9.3-0.9,20.8,6.3,24.1C6.9,42.9,7,51,6.9,124.2c0,16.7-0.1,29.8,0,30.3c0,6.6,5.3,11.9,11.9,11.9h76.3
			c6.6,0,11.9-5.3,11.9-11.9V43.3c0-0.1,0-0.1,0.1-0.2c4.5-3.5,6.7-7.3,6.6-11.5c-0.3-2.1-0.1-5,0-8.4C114,15.9,114.4,6.7,110.4,2.4
			z M70.8,4.1c0.1-0.2,0.3-0.2,0.5-0.2c0.1,0,0.2,0,0.2,0.1h14.6c0.9,0,1.7,0.8,1.7,1.7v26c0,2.5-0.8,4.6-2.3,6.1
			c-1.7,1.7-4.1,2.6-6.7,2.6c-2.6,0-5-1-6.7-2.6c-1.5-1.6-2.3-3.7-2.3-6.1c0-0.1,0-0.1,0-0.1c0.2-0.3,0.1-3.7,0-7.2
			C69.5,14.5,69.4,5.5,70.8,4.1z M48.9,4.1c0.2-0.2,0.3-0.2,0.5-0.2c0.1,0,0.2,0,0.2,0.1h14.6c0.9,0,1.7,0.8,1.7,1.7v26
			c0,2.5-0.8,4.6-2.3,6.1c-1.6,1.7-4.1,2.6-6.7,2.6c-2.6,0-5-1-6.7-2.6c-1.5-1.6-2.3-3.7-2.3-6.1c0-0.1,0-0.1,0-0.1
			c0.2-0.3,0.1-3.7,0-7.2C47.6,14.5,47.5,5.5,48.9,4.1z M27,4.1c0.1-0.2,0.3-0.2,0.5-0.2c0.1,0,0.2,0,0.2,0.1h14.6
			c0.9,0,1.7,0.8,1.7,1.7v26c0,2.5-0.8,4.6-2.3,6.1c-1.6,1.7-4.1,2.6-6.7,2.6c-2.6,0-5.1-1-6.7-2.6c-1.5-1.6-2.3-3.7-2.3-6.1
			c0-0.1,0-0.1,0-0.1c0.2-0.3,0.1-3.7,0-7.2C25.7,14.5,25.6,5.5,27,4.1z M6.4,37.8c-1.5-1.6-2.3-3.7-2.3-6.1V9.8
			c0-3.2,2.6-5.9,5.9-5.9c0,0,0,0,0.1,0C10.2,4,10.4,4,11,4c0.6,0,1.4-0.1,2.4-0.1c1.2-0.1,2.5-0.1,3.8-0.1c2.7,0,4.2,0.3,4.7,1
			c0.2,0.3,0.3,0.6,0.2,0.9v26c0,2.5-0.8,4.6-2.3,6.1c-1.6,1.7-4.1,2.6-6.7,2.6S8.1,39.5,6.4,37.8z M103,120.2l0,34.3
			c0,4.4-3.6,8-8,8H18.8c-4.4,0-8-3.6-8-8.1c0.2-0.7,0.1-16.2,0-34.1c-0.2-42.4-0.3-74.9,0.5-75.8c0,0,0.1-0.1,0.2-0.1h0
			c0.6,0.1,1.2,0.2,1.9,0.2c3.6,0,6.6-2.1,9.5-4.2c0.4-0.3,0.7-0.5,1.1-0.8c0,0,0.1,0,0.1,0c0,0,0.1,0,0.1,0c3.2,3,7.4,4.8,11.4,4.8
			c3.6,0,6.8-1.5,9.1-4.3c0.3-0.3,0.6-0.4,1-0.4c0.9,0,2.1,0.8,3.4,1.8c1.9,1.4,4.2,3.1,6.7,3.1c0.3,0,0.7,0,1.1-0.1
			c0.3,0.1,0.7,0.1,1,0.1c2.5,0,4.8-1.7,6.7-3.1c1.4-1,2.5-1.8,3.4-1.8c0.4,0,0.7,0.1,1,0.4c2.3,2.8,5.5,4.3,9.1,4.3
			c3.9,0,8.2-1.8,11.3-4.8c0,0,0.1,0,0.1,0c0,0,0.1,0,0.1,0c0.7,0.4,1.4,0.9,2,1.4c2.4,1.7,4.9,3.5,8.1,3.5c0,0,0.3,0,0.4,0h0.2
			c0.1-0.1,0.3-0.1,0.4-0.1c0.2,0,0.4,0.1,0.5,0.2C104.5,47.8,103.7,87.9,103,120.2z M109.7,31.7c0,2.5-0.8,4.6-2.3,6.1
			c-1.7,1.7-4.1,2.6-6.7,2.6c-2.6,0-5-1-6.7-2.6c-1.5-1.6-2.3-3.7-2.3-6.1c0-0.1,0-0.1,0-0.1c0.2-0.3,0.1-3.7,0-7.2
			c-0.3-9.9-0.4-18.9,1-20.3c0.1-0.2,0.3-0.2,0.5-0.2c0.1,0,0.2,0,0.3,0.1c0.4,0,0.8,0,1.3,0c0.8,0,1.6,0,2.5-0.1
			c1,0,2.1-0.1,3.2-0.1c2.7,0,6.1,0.2,7.9,2.1c0.9,1,1.4,2.3,1.3,3.9V31.7z"/>
	</g>
	<path class="st2" d="M92.1,67.3c0,0.9-0.8,1.7-1.7,1.7h-37c-0.9,0-1.7-0.8-1.7-1.7s0.8-1.7,1.7-1.7h37
		C91.4,65.6,92.1,66.4,92.1,67.3z"/>
	<path class="st2" d="M38.2,58.1H24.6c-1.6,0-2.9,1.3-2.9,2.9v12.7c0,1.6,1.3,2.9,2.9,2.9h13.7c1.6,0,2.9-1.3,2.9-2.9V61
		C41.1,59.4,39.8,58.1,38.2,58.1z M38.4,71.5c0,1.4-1.1,2.5-2.5,2.5h-9.1c-1.4,0-2.5-1.1-2.5-2.5v-8.4c0-1.4,1.1-2.5,2.5-2.5H36
		c1.4,0,2.5,1.1,2.5,2.5V71.5z"/>
	<path class="st2" d="M92.1,96.5c0,0.9-0.8,1.7-1.7,1.7h-37c-0.9,0-1.7-0.8-1.7-1.7s0.8-1.7,1.7-1.7h37
		C91.4,94.8,92.1,95.5,92.1,96.5z"/>
	<path class="st2" d="M38.2,87.3H24.6c-1.6,0-2.9,1.3-2.9,2.9v12.7c0,1.6,1.3,2.9,2.9,2.9h13.7c1.6,0,2.9-1.3,2.9-2.9V90.1
		C41.1,88.6,39.8,87.3,38.2,87.3z M38.4,100.7c0,1.4-1.1,2.5-2.5,2.5h-9.1c-1.4,0-2.5-1.1-2.5-2.5v-8.4c0-1.4,1.1-2.5,2.5-2.5H36
		c1.4,0,2.5,1.1,2.5,2.5V100.7z"/>
	<path class="st2" d="M92.1,125.7c0,0.9-0.8,1.7-1.7,1.7h-37c-0.9,0-1.7-0.8-1.7-1.7s0.8-1.7,1.7-1.7h37
		C91.4,123.9,92.1,124.7,92.1,125.7z"/>
	<path class="st2" d="M38.2,116.4H24.6c-1.6,0-2.9,1.3-2.9,2.9V132c0,1.6,1.3,2.9,2.9,2.9h13.7c1.6,0,2.9-1.3,2.9-2.9v-12.7
		C41.1,117.7,39.8,116.4,38.2,116.4z M38.4,129.8c0,1.4-1.1,2.5-2.5,2.5h-9.1c-1.4,0-2.5-1.1-2.5-2.5v-8.4c0-1.4,1.1-2.5,2.5-2.5H36
		c1.4,0,2.5,1.1,2.5,2.5V129.8z"/>
</g>
</svg>
