<?xml version="1.0" encoding="utf-8"?>
<!-- Generator: Adobe Illustrator 24.3.0, SVG Export Plug-In . SVG Version: 6.00 Build 0)  -->
<svg version="1.1" id="Layer_1" xmlns="http://www.w3.org/2000/svg" xmlns:xlink="http://www.w3.org/1999/xlink" x="0px" y="0px"
	 width="167px" height="167px" viewBox="0 0 167 167" style="enable-background:new 0 0 167 167;" xml:space="preserve">
<style type="text/css">
	.st0{fill:#00B0FB;}
	.st1{fill:#00B0FB;fill-opacity:0.4;}
	.st2{fill:#FFFFFF;}
	.st3{fill:none;}
	.st4{fill:#001135;}
	.st5{fill:#3C7CFF;}
	.st6{fill:#3C7CFF;stroke:#001135;stroke-width:0.7602;stroke-miterlimit:10;}
	.st7{fill:#DBDBDB;}
	.st8{fill:#B9B9B9;}
	.st9{fill:#080808;}
	.st10{fill:#060606;}
	.st11{fill:#070707;}
	.st12{fill:#121212;}
	.st13{fill:#111111;}
	.st14{fill:#090909;}
	.st15{fill:#FDFDFD;}
	.st16{fill:#F9F9F9;}
	.st17{fill:#F3F2F3;}
	.st18{fill:#FAFAFA;}
	.st19{fill:#0A0A0A;}
	.st20{fill:#EEEEEE;}
	.st21{fill:#0D0D0D;}
	.st22{fill:#0C0C0C;}
	.st23{fill:#0E0E0E;}
	.st24{fill:#050505;}
	.st25{fill:#3A3A3A;}
	.st26{fill:#525252;}
	.st27{fill:#474747;}
	.st28{fill:#1E1E1E;}
	.st29{fill:#1D1D1D;}
	.st30{fill:#222222;}
	.st31{fill:#494949;}
	.st32{fill:#585858;}
	.st33{fill:#EDEDED;}
	.st34{fill:#F0F0F0;}
	.st35{fill:#EAEAEA;}
	.st36{fill:#EAE9EA;}
	.st37{fill:#040404;}
	.st38{fill:#F4F3F4;}
	.st39{fill:#030303;}
	.st40{fill:#E8E8E8;}
	.st41{fill:#0C0C0B;}
	.st42{fill:#0D0D0C;}
	.st43{fill:#919191;}
	.st44{fill:#909090;}
	.st45{fill:#0E0E0D;}
	.st46{fill:#0C0D0C;}
	.st47{fill:#090908;}
	.st48{fill:#141414;}
	.st49{fill:#4C4D4D;}
	.st50{fill:#737474;}
	.st51{fill:#242424;}
	.st52{fill:#202020;}
	.st53{fill:#101010;}
	.st54{fill:#0D0E0D;}
	.st55{fill:#111212;}
	.st56{fill:#0B0B0B;}
	.st57{fill:#0D0C0C;}
	.st58{fill:#E7E7E7;}
	.st59{fill:#272727;}
	.st60{fill:#2E2E2E;}
	.st61{fill:#1F1E1E;}
	.st62{fill:#1B1A1A;}
	.st63{fill:#E6E6E6;}
	.st64{fill:#0F0E0E;}
	.st65{fill:#F2F2F2;}
	.st66{fill:#F4F3F3;}
	.st67{fill:#F9F8F8;}
	.st68{fill:#F1F1F0;}
	.st69{fill:#F6F6F6;}
	.st70{fill:#F5F6F6;}
	.st71{fill:#F5F5F5;}
	.st72{fill:#2C2C2C;}
	.st73{fill:#252625;}
	.st74{fill:#303030;}
	.st75{fill:#2D2D2C;}
	.st76{fill:#2D2D2D;}
	.st77{fill:#262727;}
	.st78{fill:#191919;}
	.st79{fill:#1B1B1B;}
	.st80{fill:#F7F7F7;}
	.st81{fill:#F6F7F7;}
	.st82{fill:#F9F9FA;}
	.st83{fill:#F4F4F4;}
	.st84{fill:#F8F8F8;}
	.st85{fill:#FCFCFC;}
	.st86{fill:#FBFBFB;}
	.st87{fill:#E2E1E2;}
	.st88{fill:#D8D7D8;}
	.st89{fill:#0F0F0F;}
	.st90{fill:#161616;}
	.st91{fill:#181818;}
	.st92{fill:#131313;}
	.st93{fill-rule:evenodd;clip-rule:evenodd;fill:#00B0FB;}
	.st94{fill:#030302;}
	.st95{fill:#D2D3D3;}
	.st96{fill:#1F1F1F;}
	.st97{fill:#0E0D0E;}
	.st98{fill:#BABBBB;}
	.st99{fill:#8A8A8A;}
	.st100{fill:#8E8F8F;}
	.st101{fill:#464746;}
	.st102{fill:#5F5E5E;}
	.st103{fill:#151414;}
	.st104{fill:#282828;}
	.st105{fill:#030202;}
	.st106{fill:#040403;}
	.st107{fill:#040303;}
	.st108{fill:#202021;}
	.st109{fill:#020202;}
	.st110{fill:#050506;}
	.st111{fill:#010101;}
	.st112{fill:#F3F3F3;}
	.st113{fill:#F1F1F1;}
	.st114{fill:#FAFAF9;}
	.st115{fill:#040504;}
	.st116{fill:#070708;}
	.st117{fill:#131212;}
	.st118{fill:#070808;}
	.st119{fill:#3C3C3C;}
	.st120{fill:#FEFEFE;}
</style>
<g>
	<path class="st0" d="M158.5,2h-132c-4.7,0-8.5,3.8-8.5,8.5v3.2h3.8v-3.2c0-2.6,2.1-4.7,4.7-4.7h132c2.6,0,4.7,2.1,4.7,4.7v5.5h3.8
		v-5.5C167,5.8,163.2,2,158.5,2z"/>
	<path class="st0" d="M70.1,60.6L68.4,60c-0.1,0-0.3-0.1-0.4-0.1c-0.6,0-1.1,0.4-1.3,0.9l-6.5,17.9c-2.5,7-7.5,12.8-14,16.3
		l-8.1,4.4c-0.5,0.2-0.7,0.7-0.7,1.2v56.9c0,0.6,0.4,1.1,0.9,1.3l4.2,1.7c4.4,1.7,9,2.6,13.6,2.6h44.7c3.8,0,6.9-3.1,6.9-6.9
		c0-3.8-3.1-6.9-6.9-6.9H89c-1.1,0-1.9-0.9-1.9-1.9c0-1.1,0.9-1.9,1.9-1.9h18.7c3.8,0,6.9-3.1,6.9-6.9c0-3.8-3.1-6.9-6.9-6.9H89
		c-1.1,0-1.9-0.9-1.9-1.9s0.9-1.9,1.9-1.9h25.1c3.8,0,6.9-3.1,6.9-6.9s-3.1-6.9-6.9-6.9H89c-1.1,0-1.9-0.9-1.9-1.9S88,110,89,110h18
		c3.8,0,6.9-3.1,6.9-6.9s-3.1-6.9-6.9-6.9H75.8c-0.2,0-0.4,0-0.6-0.1c-1-0.3-1.5-1.4-1.2-2.4l5.2-15.4c1.2-3.6,0.9-7.4-0.8-10.7
		C76.7,64.1,73.7,61.7,70.1,60.6z"/>
	<path class="st1" d="M61.1,32l-3.9-0.6c-1.3-0.2-2.4-1-2.9-2.1l-1.7-3.5c-0.2-0.5-0.7-0.8-1.3-0.8s-1,0.3-1.3,0.8l-1.7,3.5
		c-0.6,1.2-1.7,1.9-2.9,2.1L41.5,32c-0.5,0.1-1,0.5-1.1,1c-0.2,0.5,0,1.1,0.4,1.4l2.8,2.7c0.9,0.9,1.3,2.2,1.1,3.4L44,44.4
		c-0.1,0.5,0.1,1.1,0.6,1.4c0.2,0.2,0.5,0.3,0.8,0.3c0.2,0,0.5-0.1,0.7-0.2l3.5-1.8c0.6-0.3,1.2-0.4,1.8-0.4s1.3,0.2,1.8,0.4
		l3.5,1.8C56.8,46,57,46,57.3,46c0.3,0,0.6-0.1,0.8-0.3c0.4-0.3,0.6-0.8,0.6-1.4L58,40.5c-0.2-1.3,0.2-2.6,1.1-3.5l2.8-2.7
		c0.4-0.4,0.5-0.9,0.4-1.4C62.1,32.4,61.7,32,61.1,32z"/>
	<path class="st1" d="M145.5,32l-3.9-0.6c-1.3-0.2-2.4-1-2.9-2.1l-1.7-3.5c-0.2-0.5-0.7-0.8-1.3-0.8c-0.5,0-1,0.3-1.3,0.8l-1.7,3.5
		c-0.6,1.2-1.7,1.9-2.9,2.1l-3.9,0.6c-0.5,0.1-1,0.5-1.1,1c-0.2,0.5,0,1.1,0.4,1.4l2.8,2.7c0.9,0.9,1.3,2.2,1.1,3.4l-0.7,3.9
		c-0.1,0.5,0.1,1.1,0.6,1.4c0.2,0.2,0.5,0.3,0.8,0.3c0.2,0,0.5-0.1,0.7-0.2l3.5-1.8c0.6-0.3,1.2-0.4,1.8-0.4c0.6,0,1.3,0.2,1.8,0.4
		l3.5,1.8c0.2,0.1,0.4,0.2,0.7,0.2c0.3,0,0.6-0.1,0.8-0.3c0.4-0.3,0.6-0.8,0.6-1.4l-0.7-3.9c-0.2-1.3,0.2-2.6,1.1-3.5l2.8-2.7
		c0.4-0.4,0.5-0.9,0.4-1.4C146.5,32.4,146,32,145.5,32z"/>
	<path class="st1" d="M103.3,32l-3.9-0.6c-1.3-0.2-2.4-1-2.9-2.1l-1.7-3.5C94.5,25.3,94,25,93.5,25c-0.5,0-1,0.3-1.3,0.8l-1.7,3.5
		c-0.6,1.2-1.7,1.9-2.9,2.1L83.7,32c-0.5,0.1-1,0.5-1.1,1c-0.2,0.5,0,1.1,0.4,1.4l2.8,2.7c0.9,0.9,1.3,2.2,1.1,3.4l-0.7,3.9
		c-0.1,0.5,0.1,1.1,0.6,1.4c0.2,0.2,0.5,0.3,0.8,0.3c0.2,0,0.5-0.1,0.7-0.2l3.5-1.8c0.6-0.3,1.2-0.4,1.8-0.4c0.6,0,1.3,0.2,1.8,0.4
		l3.5,1.8C99,46,99.2,46,99.4,46c0.3,0,0.6-0.1,0.8-0.3c0.4-0.3,0.6-0.8,0.6-1.4l-0.7-3.9c-0.2-1.3,0.2-2.6,1.1-3.4l2.8-2.7
		c0.4-0.4,0.5-0.9,0.4-1.4C104.3,32.4,103.8,32,103.3,32z"/>
	<path class="st2" d="M158.5,0h-132c-4.7,0-8.5,3.8-8.5,8.5v55.1c0,4.7,3.8,8.6,8.5,8.6h30c0.5,0,0.9,0.2,1.1,0.6
		c0.3,0.4,0.3,0.9,0.2,1.3l-1.2,3.4c-2.2,6.1-6.6,11.2-12.3,14.3l-7.1,3.8c-0.2,0.1-0.4,0.2-0.7,0.2c-0.4,0-0.8-0.2-1.1-0.5
		c-1.5-1.9-3.8-2.9-6.2-2.9H8.1c-4.4,0-8.1,3.6-8.1,8.1v58.6c0,2.2,0.8,4.2,2.4,5.7c1.5,1.5,3.6,2.4,5.7,2.4h21.2
		c2.7,0,5.2-1.4,6.7-3.6c0.3-0.4,0.7-0.6,1.2-0.6c0.2,0,0.3,0,0.5,0.1l3.4,1.3c4.8,1.9,9.9,2.8,15,2.8h44.8
		c5.9,0,10.8-4.8,10.8-10.8c0-1.9-0.5-3.8-1.5-5.4c-0.2-0.4-0.2-0.8-0.1-1.2c0.2-0.4,0.5-0.7,0.9-0.8c4.5-1.4,7.6-5.6,7.6-10.3
		c0-1.9-0.5-3.8-1.5-5.5c-0.2-0.4-0.3-0.8-0.1-1.2c0.2-0.4,0.5-0.7,0.9-0.8c4.3-1.5,7.2-5.6,7.2-10.2c0-4.7-3.2-9-7.7-10.3
		c-0.4-0.1-0.8-0.4-0.9-0.8c-0.2-0.4-0.1-0.9,0.1-1.2c0.9-1.6,1.4-3.5,1.4-5.3c0-5.9-4.8-10.8-10.8-10.8H80.4
		c-0.4,0-0.9-0.2-1.1-0.6c-0.3-0.4-0.3-0.8-0.2-1.3l3.7-11c0.6-1.9,1-3.8,0.9-5.8c0-0.4,0.1-0.7,0.4-1c0.3-0.3,0.6-0.4,1-0.4h23.2
		c0.4,0,0.7,0.1,1,0.4l12.3,12.3c0.4,0.4,0.8,0.6,1.3,0.6c0.5,0,1-0.2,1.4-0.6l12.3-12.3c0.3-0.3,0.6-0.4,1-0.4h20.8
		c4.7,0,8.5-3.8,8.5-8.6V8.5C167,3.8,163.2,0,158.5,0z M33.5,158.9c0,2.3-1.9,4.2-4.2,4.2H8.1c-2.3,0-4.2-1.9-4.2-4.2v-58.6
		c0-2.3,1.9-4.2,4.2-4.2h7.3c0.8,0,1.4,0.6,1.4,1.4v40.8c0,1.1,0.9,1.9,1.9,1.9c1.1,0,1.9-0.9,1.9-1.9V97.5c0-0.8,0.6-1.4,1.4-1.4
		h7.3c1.8,0,3.4,1.1,4,2.8c0,0.1,0,0.2,0.1,0.2c0,0.1,0,0.2,0.1,0.3c0,0.1,0.1,0.1,0.1,0.2c0,0.2,0.1,0.4,0.1,0.7V158.9z M79.2,78.2
		L74,93.6c-0.3,1,0.2,2.1,1.2,2.4c0.2,0.1,0.4,0.1,0.6,0.1H107c3.8,0,7,3.1,7,6.9s-3.1,6.9-7,6.9H89c-1.1,0-1.9,0.9-1.9,1.9
		s0.9,1.9,1.9,1.9h25.1c3.8,0,6.9,3.1,6.9,6.9c0,3.8-3.1,6.9-6.9,6.9H89c-1.1,0-1.9,0.9-1.9,1.9c0,1.1,0.9,1.9,1.9,1.9h18.7
		c3.8,0,6.9,3.1,6.9,6.9c0,3.8-3.1,7-6.9,7H89c-1.1,0-1.9,0.8-1.9,1.9c0,1.1,0.9,1.9,1.9,1.9h11.8c3.8,0,7,3.1,7,6.9s-3.1,6.9-7,6.9
		H56.1c-4.7,0-9.3-0.9-13.6-2.6l-4.2-1.7c-0.5-0.2-0.9-0.7-0.9-1.3v-56.9c0-0.5,0.3-1,0.7-1.2l8.1-4.4c6.5-3.6,11.5-9.4,14-16.3
		l6.5-17.9c0.2-0.6,0.7-0.9,1.3-0.9c0.1,0,0.3,0,0.4,0.1l1.8,0.5c3.6,1.1,6.5,3.5,8.2,6.9C80.1,70.8,80.4,74.6,79.2,78.2z
		 M163.2,63.6c0,2.6-2.1,4.7-4.7,4.7h-22.2c-0.5,0-1,0.2-1.4,0.6L124,79.8c-0.3,0.3-0.6,0.4-1,0.4c-0.4,0-0.7-0.1-1-0.4l-10.9-10.9
		c-0.4-0.4-0.8-0.6-1.3-0.6H83.9c-0.6,0-1.1-0.3-1.3-0.9c-0.2-0.6-0.5-1.2-0.8-1.7c-2.2-4.3-6-7.4-10.6-8.8l-4.8-1.5
		c-0.2-0.1-0.4-0.1-0.6-0.1c-0.8,0-1.5,0.5-1.8,1.3l-3.9,10.8c-0.2,0.5-0.7,0.9-1.3,0.9H26.5c-2.6,0-4.7-2.1-4.7-4.7V8.5
		c0-2.6,2.1-4.7,4.7-4.7h132c2.6,0,4.7,2.1,4.7,4.7V63.6z"/>
	<path class="st2" d="M20.6,150.3c0,1.1-0.8,2-1.9,2c-1.1,0-1.9-0.9-1.9-1.9c0-1.1,0.8-2,1.9-2C19.7,148.4,20.6,149.2,20.6,150.3z"
		/>
	<path class="st2" d="M150.9,35.2c1.1-1,1.4-2.6,1-4s-1.7-2.4-3.1-2.7l-5.9-0.8c-0.5-0.1-0.8-0.4-1.1-0.8l-2.6-5.3
		c-0.7-1.3-2-2.2-3.5-2.2c-1.5,0-2.8,0.8-3.5,2.2l-2.6,5.3c-0.2,0.4-0.6,0.7-1,0.8l-5.9,0.8c-1.5,0.2-2.7,1.2-3.1,2.7
		c-0.5,1.4-0.1,3,1,4l4.2,4.1c0.3,0.3,0.5,0.8,0.4,1.2l-1,5.8c-0.3,1.5,0.3,2.9,1.6,3.8c0.7,0.5,1.5,0.7,2.3,0.7
		c0.6,0,1.3-0.2,1.8-0.5l5.2-2.8c0.2-0.1,0.4-0.2,0.7-0.2s0.4,0.1,0.6,0.2l5.2,2.8c0.6,0.3,1.2,0.5,1.8,0.5c0.8,0,1.6-0.3,2.3-0.8
		c1.2-0.9,1.8-2.3,1.5-3.8l-1-5.8c-0.1-0.5,0.1-0.9,0.4-1.2L150.9,35.2z M143.5,37.1c-0.9,0.9-1.3,2.2-1.1,3.5l0.7,3.9
		c0.1,0.5-0.1,1-0.6,1.4c-0.2,0.2-0.5,0.3-0.8,0.3c-0.2,0-0.4,0-0.6-0.2l-3.5-1.8c-0.6-0.3-1.2-0.4-1.8-0.4c-0.6,0-1.3,0.2-1.8,0.4
		l-3.5,1.8c-0.2,0.1-0.4,0.2-0.7,0.2c-0.3,0-0.6-0.1-0.8-0.3c-0.4-0.3-0.7-0.9-0.6-1.4l0.7-3.9c0.2-1.3-0.2-2.5-1.1-3.5l-2.8-2.7
		c-0.4-0.4-0.5-0.9-0.4-1.4c0.2-0.5,0.6-0.9,1.1-1l3.9-0.6c1.3-0.2,2.4-1,2.9-2.1l1.7-3.5c0.2-0.5,0.7-0.8,1.2-0.8
		c0.5,0,1,0.3,1.3,0.8l1.7,3.5c0.6,1.2,1.7,1.9,2.9,2.1l3.9,0.6c0.5,0.1,1,0.4,1.1,1c0.2,0.5,0,1.1-0.4,1.4L143.5,37.1z"/>
	<path class="st2" d="M108.7,35.2c1.1-1,1.4-2.6,1-4s-1.7-2.4-3.2-2.7l-5.9-0.8c-0.5-0.1-0.9-0.4-1.1-0.8L97,21.6
		c-0.7-1.3-2-2.2-3.5-2.2c-1.5,0-2.8,0.8-3.5,2.2l-2.6,5.3c-0.2,0.4-0.6,0.7-1.1,0.8l-5.9,0.8c-1.5,0.2-2.7,1.2-3.1,2.7
		c-0.5,1.4-0.1,3,1,4l4.2,4.1c0.3,0.3,0.5,0.8,0.4,1.2l-1,5.8c-0.2,1.5,0.3,2.9,1.6,3.8c0.7,0.5,1.5,0.7,2.3,0.7
		c0.6,0,1.3-0.2,1.8-0.5l5.2-2.8c0.2-0.1,0.4-0.2,0.7-0.2c0.2,0,0.5,0.1,0.7,0.2l5.2,2.8c0.6,0.3,1.2,0.5,1.8,0.5
		c0.8,0,1.6-0.3,2.3-0.8c1.2-0.9,1.8-2.3,1.5-3.8l-1-5.8c-0.1-0.5,0.1-0.9,0.4-1.2L108.7,35.2z M101.3,37.1
		c-0.9,0.9-1.3,2.2-1.1,3.5l0.7,3.9c0.1,0.5-0.1,1-0.6,1.4c-0.2,0.2-0.5,0.3-0.8,0.3c-0.2,0-0.5,0-0.7-0.2L95.3,44
		c-0.5-0.3-1.2-0.4-1.8-0.4s-1.3,0.2-1.8,0.4l-3.5,1.8C88,46,87.8,46,87.6,46c-0.3,0-0.6-0.1-0.8-0.3c-0.4-0.3-0.7-0.9-0.6-1.4
		l0.7-3.9c0.2-1.3-0.2-2.5-1.1-3.5l-2.8-2.7c-0.4-0.4-0.5-0.9-0.4-1.4c0.2-0.5,0.6-0.9,1.1-1l3.9-0.6c1.3-0.2,2.4-1,2.9-2.1l1.7-3.5
		c0.2-0.5,0.7-0.8,1.2-0.8c0.5,0,1,0.3,1.3,0.8l1.7,3.5c0.6,1.2,1.7,1.9,2.9,2.1l3.9,0.6c0.5,0.1,1,0.4,1.1,1c0.2,0.5,0,1.1-0.4,1.4
		L101.3,37.1z"/>
	<path class="st2" d="M66.5,35.2c1.1-1,1.4-2.6,1-4c-0.5-1.4-1.7-2.4-3.2-2.7l-5.9-0.8c-0.5-0.1-0.9-0.4-1.1-0.8l-2.6-5.3
		c-0.7-1.3-2-2.2-3.5-2.2c-1.5,0-2.8,0.8-3.5,2.2l-2.6,5.3c-0.2,0.4-0.6,0.7-1.1,0.8l-5.9,0.8c-1.5,0.2-2.7,1.2-3.2,2.7
		c-0.5,1.4-0.1,3,1,4l4.2,4.1c0.3,0.3,0.5,0.8,0.4,1.2l-1,5.8c-0.3,1.5,0.3,2.9,1.5,3.8c0.7,0.5,1.5,0.7,2.3,0.7
		c0.6,0,1.3-0.2,1.8-0.5l5.2-2.8c0.2-0.1,0.4-0.2,0.6-0.2c0.2,0,0.5,0.1,0.7,0.2l5.2,2.8c0.6,0.3,1.2,0.5,1.8,0.5
		c0.8,0,1.6-0.3,2.3-0.8c1.2-0.9,1.8-2.3,1.6-3.8l-1-5.8c-0.1-0.5,0.1-0.9,0.4-1.2L66.5,35.2z M59.1,37.1c-0.9,0.9-1.3,2.2-1.1,3.5
		l0.7,3.9c0.1,0.5-0.1,1-0.6,1.4c-0.2,0.2-0.5,0.3-0.8,0.3c-0.2,0-0.5,0-0.7-0.2L53.1,44c-0.6-0.3-1.2-0.4-1.8-0.4
		c-0.6,0-1.3,0.2-1.8,0.4L46,45.9C45.8,46,45.6,46,45.4,46c-0.3,0-0.6-0.1-0.8-0.3c-0.4-0.3-0.6-0.8-0.6-1.4l0.7-3.9
		c0.2-1.3-0.2-2.5-1.1-3.5l-2.8-2.7c-0.4-0.4-0.5-0.9-0.4-1.4c0.2-0.5,0.6-0.9,1.1-1l3.9-0.6c1.3-0.2,2.4-1,2.9-2.1l1.7-3.5
		c0.2-0.5,0.7-0.8,1.2-0.8c0.5,0,1,0.3,1.3,0.8l1.7,3.5c0.6,1.2,1.7,2,2.9,2.1l3.9,0.6c0.5,0.1,1,0.4,1.1,1c0.2,0.5,0,1.1-0.4,1.4
		L59.1,37.1z"/>
</g>
</svg>
