<?xml version="1.0" encoding="utf-8"?>
<!-- Generator: Adobe Illustrator 24.3.0, SVG Export Plug-In . SVG Version: 6.00 Build 0)  -->
<svg version="1.1" id="Layer_1" xmlns="http://www.w3.org/2000/svg" xmlns:xlink="http://www.w3.org/1999/xlink" x="0px" y="0px"
	 width="50.6px" height="55.7px" viewBox="0 0 50.6 55.7" style="enable-background:new 0 0 50.6 55.7;" xml:space="preserve">
<style type="text/css">
	.st0{fill:#00B0FB;}
	.st1{opacity:0.4;fill:#00B0FB;}
	.st2{fill:none;}
	.st3{opacity:0.4;}
</style>
<g>
	<path class="st0" d="M37.9,26.8v1.4h-6.1v-0.9c-0.1,0-0.1,0-0.2,0.1c0-0.1,0-0.2,0.1-0.2c0-0.1,0.1-0.2,0.1-0.2v-1.3h0.5
		c1.1-3.1,2-6.3,2.7-9.8c0.5-2.6-0.1-5.1-1.7-7.1c-1.2-1.4-2.8-2.4-4.5-2.9v0.7h-4.2v1.1c0.7-0.2,1.5-0.3,2.2-0.3h0
		c1.9,0.1,3.7,1,4.9,2.5c1.3,1.5,1.7,3.5,1.3,5.5c-0.8,4-1.9,7.7-3.2,11.1c-0.3,0.7-0.4,1.4-0.5,2.1c-2.8,2-4.6,5.2-4.6,8.9
		c0,2.4,0.8,4.7,2.2,6.6c-0.6,1.4-1.2,2.6-1.9,3.7c-0.1,0.2-0.2,0.3-0.4,0.4c-0.1,0.1-0.3,0.1-0.4,0.1h0v0.8h2.2
		c0.1-0.1,0.1-0.1,0.2-0.2c0.7-1,1.3-2.1,1.8-3.2c0.2,0.2,0.4,0.4,0.7,0.6c1.8,1.4,4.1,2.2,6.6,2.2c0.1,0,0.3,0,0.4,0h0.1
		c5.8-0.3,10.4-5.1,10.4-10.9C46.7,32.2,42.9,27.8,37.9,26.8z M36.3,46.5c-0.2,0-0.3,0-0.5,0c-5,0-9-4-9-9s4.1-9,9-9
		c0.2,0,0.3,0,0.5,0c0,0,0,0,0,0c4.7,0.3,8.5,4.2,8.5,9S41,46.3,36.3,46.5C36.3,46.5,36.3,46.5,36.3,46.5z"/>
	<path class="st0" d="M40.1,34.7h-1.4v-1.4c0-1.4-1-2.6-2.4-2.8c-0.2,0-0.3,0-0.5,0c-1.6,0-2.9,1.3-2.9,2.8v1.4h-1.4
		c-1.6,0-2.9,1.3-2.9,2.9c0,1.6,1.3,2.9,2.9,2.9h1.4v1.4c0,1.6,1.3,2.9,2.9,2.9c0.2,0,0.3,0,0.5,0c1.3-0.2,2.4-1.4,2.4-2.8v-1.4h1.4
		c1.6,0,2.9-1.3,2.9-2.9C42.9,35.9,41.6,34.7,40.1,34.7z M41,38.5h-2.4c-0.5,0-0.9,0.4-0.9,1v2.4c0,0.5-0.4,1-1,1
		c-0.2,0-0.3,0-0.5-0.1c-0.1,0.1-0.3,0.1-0.5,0.1c-0.5,0-0.9-0.4-0.9-1v-2.4c0-0.5-0.4-1-0.9-1h-2.4c-0.5,0-0.9-0.4-0.9-0.9
		s0.4-0.9,0.9-0.9h2.4c0.5,0,0.9-0.4,0.9-1v-2.4c0-0.5,0.4-0.9,0.9-0.9c0.2,0,0.3,0,0.5,0.1c0.1-0.1,0.3-0.1,0.5-0.1
		c0.5,0,1,0.4,1,0.9v2.4c0,0.5,0.4,1,0.9,1H41c0.5,0,0.9,0.4,0.9,0.9S41.5,38.5,41,38.5z"/>
	<path class="st0" d="M36.7,26.6c-1.4,0-2.8,0.3-4.2,0.8c0-0.1,0-0.2,0.1-0.2c1.4-3.5,2.5-7.3,3.3-11.4c0.5-2.6-0.1-5.1-1.7-7.1
		c-2.4-2.9-6.4-3.9-9.8-2.6l-4.8,1.8l-4.8-1.8c-3.5-1.3-7.4-0.2-9.8,2.6c-1.6,1.9-2.2,4.4-1.8,7.1c0.6,3.8,1.7,7.7,3.3,11.6
		c0.3,0.8,0.5,1.6,0.4,2.4c0,0.5,0,1,0,1.5c0,6.9,1.7,13.3,4.6,17.7c0.7,1.1,2,1.5,3.3,1.1c1.2-0.4,2-1.6,1.9-2.9c0-0.8,0-1.6,0-2.4
		c0-4.8,0.4-9.1,1.2-12.1c0.2-0.8,1.1-1.4,1.8-1.4c0.4,0,0.7,0.1,1,0.4c0.3,0.2,0.5,0.5,0.6,0.9c0.8,3,1.2,7.3,1.2,12.2
		c0,0.8,0,1.6,0,2.5c0,0.8,0.3,1.5,0.8,2c0.5,0.6,1.3,0.9,2.1,0.9h0.1c1,0,1.8-0.5,2.4-1.3c0.6-0.9,1.1-1.7,1.5-2.7
		c0.1-0.2,0.2-0.4,0.3-0.6c1.8,1.6,4.2,2.7,6.7,2.8h0.1c0.1,0,0.3,0,0.4,0c6,0,10.9-4.9,10.9-10.9S42.8,26.6,36.7,26.6z M35.8,41.8
		v-2.4c0-0.5-0.4-1-0.9-1h-2.4c-0.5,0-0.9-0.4-0.9-0.9s0.4-0.9,0.9-0.9h2.4c0.5,0,0.9-0.4,0.9-1v-2.4c0-0.4,0.2-0.7,0.5-0.8
		c0.1-0.1,0.3-0.1,0.5-0.1c0.5,0,1,0.4,1,0.9v2.4c0,0.5,0.4,1,0.9,1H41c0.5,0,0.9,0.4,0.9,0.9s-0.4,0.9-0.9,0.9h-2.4
		c-0.5,0-0.9,0.4-0.9,1v2.4c0,0.5-0.4,1-1,1c-0.2,0-0.3,0-0.5-0.1C36,42.5,35.8,42.1,35.8,41.8z M23.8,36.1
		c-0.2-1.2-0.4-2.3-0.6-3.4c-0.2-1.1-0.5-2.2-1-3.2c-0.8-1.5-2-2.7-3.8-2.4c-0.7,0.1-1.5,0.5-1.7,1.2c0.4-0.6,1.1-0.8,1.8-0.7
		c1.2,0.1,1.9,1,2.3,2c-0.3-0.1-0.6-0.2-1-0.2c-1.6-0.1-3.3,1.2-3.7,2.9c-0.8,3.1-1.3,7.6-1.3,12.5c0,0.8,0,1.6,0,2.4
		c0,0.5-0.2,0.9-0.6,1c-0.4,0.1-0.9,0-1.1-0.4c-2.7-4-4.3-10.1-4.3-16.6c0-0.5,0-1,0-1.4c0-1.1-0.2-2.2-0.6-3.2
		C6.6,22.8,5.6,19.2,5,15.5c-0.3-2.1,0.1-4.1,1.3-5.5c1.9-2.3,5-3.1,7.7-2.1l2.7,1c-1.3,0.4-2.7,0.5-4.2,0.3c1.1,0.8,2.5,1.2,4,1.3
		c1.5,0.1,2.8-0.4,4.1-0.9c1.4-0.5,2.9-1.1,4.3-1.6c0.6-0.2,1.2-0.4,1.8-0.4h0c2.2-0.2,4.4,0.7,5.9,2.5c1.3,1.5,1.7,3.5,1.3,5.5
		c-0.8,4-1.9,7.7-3.2,11.1c-0.3,0.7-0.4,1.4-0.5,2.1c-2.8,2-4.6,5.2-4.6,8.9c0,2.4,0.8,4.7,2.2,6.6c-0.6,1.4-1.2,2.6-1.9,3.7
		c-0.2,0.3-0.5,0.4-0.8,0.4h-0.1c-0.2,0-0.3,0-0.4-0.1c-0.1,0-0.2-0.1-0.3-0.2c-0.2-0.2-0.3-0.4-0.3-0.7c0-0.8,0-1.7,0-2.5
		C24.3,41.6,24.1,38.7,23.8,36.1z"/>
	<path d="M41,34.7h-1.4v-1.4c0-1.6-1.3-2.8-2.9-2.8c-0.2,0-0.3,0-0.5,0c-1.3,0.2-2.4,1.4-2.4,2.8v1.4h-1.4c-1.6,0-2.9,1.3-2.9,2.9
		c0,1.6,1.3,2.9,2.9,2.9h1.4v1.4c0,1.4,1,2.6,2.4,2.8c0.2,0,0.3,0,0.5,0c1.6,0,2.9-1.3,2.9-2.9v-1.4H41c1.6,0,2.9-1.3,2.9-2.9
		C43.9,35.9,42.6,34.7,41,34.7z M38.6,38.5c-0.5,0-0.9,0.4-0.9,1v2.4c0,0.5-0.4,1-1,1c-0.2,0-0.3,0-0.5-0.1
		c-0.3-0.2-0.5-0.5-0.5-0.8v-2.4c0-0.5-0.4-1-0.9-1h-2.4c-0.5,0-0.9-0.4-0.9-0.9s0.4-0.9,0.9-0.9h2.4c0.5,0,0.9-0.4,0.9-1v-2.4
		c0-0.4,0.2-0.7,0.5-0.8c0.1-0.1,0.3-0.1,0.5-0.1c0.5,0,1,0.4,1,0.9v2.4c0,0.5,0.4,1,0.9,1H41c0.5,0,0.9,0.4,0.9,0.9
		s-0.4,0.9-0.9,0.9H38.6z M41,34.7h-1.4v-1.4c0-1.6-1.3-2.8-2.9-2.8c-0.2,0-0.3,0-0.5,0c-1.3,0.2-2.4,1.4-2.4,2.8v1.4h-1.4
		c-1.6,0-2.9,1.3-2.9,2.9c0,1.6,1.3,2.9,2.9,2.9h1.4v1.4c0,1.4,1,2.6,2.4,2.8c0.2,0,0.3,0,0.5,0c1.6,0,2.9-1.3,2.9-2.9v-1.4H41
		c1.6,0,2.9-1.3,2.9-2.9C43.9,35.9,42.6,34.7,41,34.7z M38.6,38.5c-0.5,0-0.9,0.4-0.9,1v2.4c0,0.5-0.4,1-1,1c-0.2,0-0.3,0-0.5-0.1
		c-0.3-0.2-0.5-0.5-0.5-0.8v-2.4c0-0.5-0.4-1-0.9-1h-2.4c-0.5,0-0.9-0.4-0.9-0.9s0.4-0.9,0.9-0.9h2.4c0.5,0,0.9-0.4,0.9-1v-2.4
		c0-0.4,0.2-0.7,0.5-0.8c0.1-0.1,0.3-0.1,0.5-0.1c0.5,0,1,0.4,1,0.9v2.4c0,0.5,0.4,1,0.9,1H41c0.5,0,0.9,0.4,0.9,0.9
		s-0.4,0.9-0.9,0.9H38.6z M41,34.7h-1.4v-1.4c0-1.6-1.3-2.8-2.9-2.8c-0.2,0-0.3,0-0.5,0c-1.3,0.2-2.4,1.4-2.4,2.8v1.4h-1.4
		c-1.6,0-2.9,1.3-2.9,2.9c0,1.6,1.3,2.9,2.9,2.9h1.4v1.4c0,1.4,1,2.6,2.4,2.8c0.2,0,0.3,0,0.5,0c1.6,0,2.9-1.3,2.9-2.9v-1.4H41
		c1.6,0,2.9-1.3,2.9-2.9C43.9,35.9,42.6,34.7,41,34.7z M38.6,38.5c-0.5,0-0.9,0.4-0.9,1v2.4c0,0.5-0.4,1-1,1c-0.2,0-0.3,0-0.5-0.1
		c-0.3-0.2-0.5-0.5-0.5-0.8v-2.4c0-0.5-0.4-1-0.9-1h-2.4c-0.5,0-0.9-0.4-0.9-0.9s0.4-0.9,0.9-0.9h2.4c0.5,0,0.9-0.4,0.9-1v-2.4
		c0-0.4,0.2-0.7,0.5-0.8c0.1-0.1,0.3-0.1,0.5-0.1c0.5,0,1,0.4,1,0.9v2.4c0,0.5,0.4,1,0.9,1H41c0.5,0,0.9,0.4,0.9,0.9
		s-0.4,0.9-0.9,0.9H38.6z M41,34.7h-1.4v-1.4c0-1.6-1.3-2.8-2.9-2.8c-0.2,0-0.3,0-0.5,0c-1.3,0.2-2.4,1.4-2.4,2.8v1.4h-1.4
		c-1.6,0-2.9,1.3-2.9,2.9c0,1.6,1.3,2.9,2.9,2.9h1.4v1.4c0,1.4,1,2.6,2.4,2.8c0.2,0,0.3,0,0.5,0c1.6,0,2.9-1.3,2.9-2.9v-1.4H41
		c1.6,0,2.9-1.3,2.9-2.9C43.9,35.9,42.6,34.7,41,34.7z M38.6,38.5c-0.5,0-0.9,0.4-0.9,1v2.4c0,0.5-0.4,1-1,1c-0.2,0-0.3,0-0.5-0.1
		c-0.3-0.2-0.5-0.5-0.5-0.8v-2.4c0-0.5-0.4-1-0.9-1h-2.4c-0.5,0-0.9-0.4-0.9-0.9s0.4-0.9,0.9-0.9h2.4c0.5,0,0.9-0.4,0.9-1v-2.4
		c0-0.4,0.2-0.7,0.5-0.8c0.1-0.1,0.3-0.1,0.5-0.1c0.5,0,1,0.4,1,0.9v2.4c0,0.5,0.4,1,0.9,1H41c0.5,0,0.9,0.4,0.9,0.9
		s-0.4,0.9-0.9,0.9H38.6z M41,34.7h-1.4v-1.4c0-1.6-1.3-2.8-2.9-2.8c-0.2,0-0.3,0-0.5,0c-1.3,0.2-2.4,1.4-2.4,2.8v1.4h-1.4
		c-1.6,0-2.9,1.3-2.9,2.9c0,1.6,1.3,2.9,2.9,2.9h1.4v1.4c0,1.4,1,2.6,2.4,2.8c0.2,0,0.3,0,0.5,0c1.6,0,2.9-1.3,2.9-2.9v-1.4H41
		c1.6,0,2.9-1.3,2.9-2.9C43.9,35.9,42.6,34.7,41,34.7z M38.6,38.5c-0.5,0-0.9,0.4-0.9,1v2.4c0,0.5-0.4,1-1,1c-0.2,0-0.3,0-0.5-0.1
		c-0.3-0.2-0.5-0.5-0.5-0.8v-2.4c0-0.5-0.4-1-0.9-1h-2.4c-0.5,0-0.9-0.4-0.9-0.9s0.4-0.9,0.9-0.9h2.4c0.5,0,0.9-0.4,0.9-1v-2.4
		c0-0.4,0.2-0.7,0.5-0.8c0.1-0.1,0.3-0.1,0.5-0.1c0.5,0,1,0.4,1,0.9v2.4c0,0.5,0.4,1,0.9,1H41c0.5,0,0.9,0.4,0.9,0.9
		s-0.4,0.9-0.9,0.9H38.6z M41,34.7h-1.4v-1.4c0-1.6-1.3-2.8-2.9-2.8c-0.2,0-0.3,0-0.5,0c-1.3,0.2-2.4,1.4-2.4,2.8v1.4h-1.4
		c-1.6,0-2.9,1.3-2.9,2.9c0,1.6,1.3,2.9,2.9,2.9h1.4v1.4c0,1.4,1,2.6,2.4,2.8c0.2,0,0.3,0,0.5,0c1.6,0,2.9-1.3,2.9-2.9v-1.4H41
		c1.6,0,2.9-1.3,2.9-2.9C43.9,35.9,42.6,34.7,41,34.7z M38.6,38.5c-0.5,0-0.9,0.4-0.9,1v2.4c0,0.5-0.4,1-1,1c-0.2,0-0.3,0-0.5-0.1
		c-0.3-0.2-0.5-0.5-0.5-0.8v-2.4c0-0.5-0.4-1-0.9-1h-2.4c-0.5,0-0.9-0.4-0.9-0.9s0.4-0.9,0.9-0.9h2.4c0.5,0,0.9-0.4,0.9-1v-2.4
		c0-0.4,0.2-0.7,0.5-0.8c0.1-0.1,0.3-0.1,0.5-0.1c0.5,0,1,0.4,1,0.9v2.4c0,0.5,0.4,1,0.9,1H41c0.5,0,0.9,0.4,0.9,0.9
		s-0.4,0.9-0.9,0.9H38.6z M36.7,26.6c-1.4,0-2.8,0.3-4.2,0.8c0-0.1,0-0.2,0.1-0.2c1.4-3.5,2.5-7.3,3.3-11.4c0.5-2.6-0.1-5.1-1.7-7.1
		c-2.4-2.9-6.4-3.9-9.8-2.6l-4.8,1.8l-4.8-1.8c-3.5-1.3-7.4-0.2-9.8,2.6c-1.6,1.9-2.2,4.4-1.8,7.1c0.6,3.8,1.7,7.7,3.3,11.6
		c0.3,0.8,0.5,1.6,0.4,2.4c0,0.5,0,1,0,1.5c0,6.9,1.7,13.3,4.6,17.7c0.7,1.1,2,1.5,3.3,1.1c1.2-0.4,2-1.6,1.9-2.9c0-0.8,0-1.6,0-2.4
		c0-4.8,0.4-9.1,1.2-12.1c0.2-0.8,1.1-1.4,1.8-1.4c0.4,0,0.7,0.1,1,0.4c0.3,0.2,0.5,0.5,0.6,0.9c0.8,3,1.2,7.3,1.2,12.2
		c0,0.8,0,1.6,0,2.5c0,0.8,0.3,1.5,0.8,2c0.5,0.6,1.3,0.9,2.1,0.9h0.1c1,0,1.8-0.5,2.4-1.3c0.6-0.9,1.1-1.7,1.5-2.7
		c0.1-0.2,0.2-0.4,0.3-0.6c1.8,1.6,4.2,2.7,6.7,2.8h0.1c0.1,0,0.3,0,0.4,0c6,0,10.9-4.9,10.9-10.9S42.8,26.6,36.7,26.6z M23.8,36.1
		c-0.2-1.2-0.4-2.3-0.6-3.4c-0.2-1.1-0.5-2.2-1-3.2c-0.8-1.5-2-2.7-3.8-2.4c-0.7,0.1-1.5,0.5-1.7,1.2c0.4-0.6,1.1-0.8,1.8-0.7
		c1.2,0.1,1.9,1,2.3,2c-0.3-0.1-0.6-0.2-1-0.2c-1.6-0.1-3.3,1.2-3.7,2.9c-0.8,3.1-1.3,7.6-1.3,12.5c0,0.8,0,1.6,0,2.4
		c0,0.5-0.2,0.9-0.6,1c-0.4,0.1-0.9,0-1.1-0.4c-2.7-4-4.3-10.1-4.3-16.6c0-0.5,0-1,0-1.4c0-1.1-0.2-2.2-0.6-3.2
		C6.6,22.8,5.6,19.2,5,15.5c-0.3-2.1,0.1-4.1,1.3-5.5c1.9-2.3,5-3.1,7.7-2.1l2.7,1c-1.3,0.4-2.7,0.5-4.2,0.3c1.1,0.8,2.5,1.2,4,1.3
		c1.5,0.1,2.8-0.4,4.1-0.9c1.4-0.5,2.9-1.1,4.3-1.6c0.6-0.2,1.2-0.4,1.8-0.4h0c2.2-0.2,4.4,0.7,5.9,2.5c1.3,1.5,1.7,3.5,1.3,5.5
		c-0.8,4-1.9,7.7-3.2,11.1c-0.3,0.7-0.4,1.4-0.5,2.1c-2.8,2-4.6,5.2-4.6,8.9c0,2.4,0.8,4.7,2.2,6.6c-0.6,1.4-1.2,2.6-1.9,3.7
		c-0.2,0.3-0.5,0.4-0.8,0.4h-0.1c-0.2,0-0.3,0-0.4-0.1c-0.1,0-0.2-0.1-0.3-0.2c-0.2-0.2-0.3-0.4-0.3-0.7c0-0.8,0-1.7,0-2.5
		C24.3,41.6,24.1,38.7,23.8,36.1z M36.3,46.5C36.3,46.5,36.3,46.5,36.3,46.5c-4.8-0.3-8.6-4.2-8.6-9s3.8-8.8,8.5-9c0,0,0,0,0,0
		c0.2,0,0.3,0,0.5,0c5,0,9,4,9,9s-4,9-9,9C36.6,46.5,36.4,46.5,36.3,46.5z M39.6,41.8v-1.4H41c1.6,0,2.9-1.3,2.9-2.9
		c0-1.6-1.3-2.9-2.9-2.9h-1.4v-1.4c0-1.6-1.3-2.8-2.9-2.8c-0.2,0-0.3,0-0.5,0c-1.3,0.2-2.4,1.4-2.4,2.8v1.4h-1.4
		c-1.6,0-2.9,1.3-2.9,2.9c0,1.6,1.3,2.9,2.9,2.9h1.4v1.4c0,1.4,1,2.6,2.4,2.8c0.2,0,0.3,0,0.5,0C38.3,44.6,39.6,43.4,39.6,41.8z
		 M32.5,38.5c-0.5,0-0.9-0.4-0.9-0.9s0.4-0.9,0.9-0.9h2.4c0.5,0,0.9-0.4,0.9-1v-2.4c0-0.4,0.2-0.7,0.5-0.8c0.1-0.1,0.3-0.1,0.5-0.1
		c0.5,0,1,0.4,1,0.9v2.4c0,0.5,0.4,1,0.9,1H41c0.5,0,0.9,0.4,0.9,0.9s-0.4,0.9-0.9,0.9h-2.4c-0.5,0-0.9,0.4-0.9,1v2.4
		c0,0.5-0.4,1-1,1c-0.2,0-0.3,0-0.5-0.1c-0.3-0.2-0.5-0.5-0.5-0.8v-2.4c0-0.5-0.4-1-0.9-1H32.5z M41,34.7h-1.4v-1.4
		c0-1.6-1.3-2.8-2.9-2.8c-0.2,0-0.3,0-0.5,0c-1.3,0.2-2.4,1.4-2.4,2.8v1.4h-1.4c-1.6,0-2.9,1.3-2.9,2.9c0,1.6,1.3,2.9,2.9,2.9h1.4
		v1.4c0,1.4,1,2.6,2.4,2.8c0.2,0,0.3,0,0.5,0c1.6,0,2.9-1.3,2.9-2.9v-1.4H41c1.6,0,2.9-1.3,2.9-2.9C43.9,35.9,42.6,34.7,41,34.7z
		 M38.6,38.5c-0.5,0-0.9,0.4-0.9,1v2.4c0,0.5-0.4,1-1,1c-0.2,0-0.3,0-0.5-0.1c-0.3-0.2-0.5-0.5-0.5-0.8v-2.4c0-0.5-0.4-1-0.9-1h-2.4
		c-0.5,0-0.9-0.4-0.9-0.9s0.4-0.9,0.9-0.9h2.4c0.5,0,0.9-0.4,0.9-1v-2.4c0-0.4,0.2-0.7,0.5-0.8c0.1-0.1,0.3-0.1,0.5-0.1
		c0.5,0,1,0.4,1,0.9v2.4c0,0.5,0.4,1,0.9,1H41c0.5,0,0.9,0.4,0.9,0.9s-0.4,0.9-0.9,0.9H38.6z M41,34.7h-1.4v-1.4
		c0-1.6-1.3-2.8-2.9-2.8c-0.2,0-0.3,0-0.5,0c-1.3,0.2-2.4,1.4-2.4,2.8v1.4h-1.4c-1.6,0-2.9,1.3-2.9,2.9c0,1.6,1.3,2.9,2.9,2.9h1.4
		v1.4c0,1.4,1,2.6,2.4,2.8c0.2,0,0.3,0,0.5,0c1.6,0,2.9-1.3,2.9-2.9v-1.4H41c1.6,0,2.9-1.3,2.9-2.9C43.9,35.9,42.6,34.7,41,34.7z
		 M38.6,38.5c-0.5,0-0.9,0.4-0.9,1v2.4c0,0.5-0.4,1-1,1c-0.2,0-0.3,0-0.5-0.1c-0.3-0.2-0.5-0.5-0.5-0.8v-2.4c0-0.5-0.4-1-0.9-1h-2.4
		c-0.5,0-0.9-0.4-0.9-0.9s0.4-0.9,0.9-0.9h2.4c0.5,0,0.9-0.4,0.9-1v-2.4c0-0.4,0.2-0.7,0.5-0.8c0.1-0.1,0.3-0.1,0.5-0.1
		c0.5,0,1,0.4,1,0.9v2.4c0,0.5,0.4,1,0.9,1H41c0.5,0,0.9,0.4,0.9,0.9s-0.4,0.9-0.9,0.9H38.6z M41,34.7h-1.4v-1.4
		c0-1.6-1.3-2.8-2.9-2.8c-0.2,0-0.3,0-0.5,0c-1.3,0.2-2.4,1.4-2.4,2.8v1.4h-1.4c-1.6,0-2.9,1.3-2.9,2.9c0,1.6,1.3,2.9,2.9,2.9h1.4
		v1.4c0,1.4,1,2.6,2.4,2.8c0.2,0,0.3,0,0.5,0c1.6,0,2.9-1.3,2.9-2.9v-1.4H41c1.6,0,2.9-1.3,2.9-2.9C43.9,35.9,42.6,34.7,41,34.7z
		 M38.6,38.5c-0.5,0-0.9,0.4-0.9,1v2.4c0,0.5-0.4,1-1,1c-0.2,0-0.3,0-0.5-0.1c-0.3-0.2-0.5-0.5-0.5-0.8v-2.4c0-0.5-0.4-1-0.9-1h-2.4
		c-0.5,0-0.9-0.4-0.9-0.9s0.4-0.9,0.9-0.9h2.4c0.5,0,0.9-0.4,0.9-1v-2.4c0-0.4,0.2-0.7,0.5-0.8c0.1-0.1,0.3-0.1,0.5-0.1
		c0.5,0,1,0.4,1,0.9v2.4c0,0.5,0.4,1,0.9,1H41c0.5,0,0.9,0.4,0.9,0.9s-0.4,0.9-0.9,0.9H38.6z M41,34.7h-1.4v-1.4
		c0-1.6-1.3-2.8-2.9-2.8c-0.2,0-0.3,0-0.5,0c-1.3,0.2-2.4,1.4-2.4,2.8v1.4h-1.4c-1.6,0-2.9,1.3-2.9,2.9c0,1.6,1.3,2.9,2.9,2.9h1.4
		v1.4c0,1.4,1,2.6,2.4,2.8c0.2,0,0.3,0,0.5,0c1.6,0,2.9-1.3,2.9-2.9v-1.4H41c1.6,0,2.9-1.3,2.9-2.9C43.9,35.9,42.6,34.7,41,34.7z
		 M38.6,38.5c-0.5,0-0.9,0.4-0.9,1v2.4c0,0.5-0.4,1-1,1c-0.2,0-0.3,0-0.5-0.1c-0.3-0.2-0.5-0.5-0.5-0.8v-2.4c0-0.5-0.4-1-0.9-1h-2.4
		c-0.5,0-0.9-0.4-0.9-0.9s0.4-0.9,0.9-0.9h2.4c0.5,0,0.9-0.4,0.9-1v-2.4c0-0.4,0.2-0.7,0.5-0.8c0.1-0.1,0.3-0.1,0.5-0.1
		c0.5,0,1,0.4,1,0.9v2.4c0,0.5,0.4,1,0.9,1H41c0.5,0,0.9,0.4,0.9,0.9s-0.4,0.9-0.9,0.9H38.6z M41,34.7h-1.4v-1.4
		c0-1.6-1.3-2.8-2.9-2.8c-0.2,0-0.3,0-0.5,0c-1.3,0.2-2.4,1.4-2.4,2.8v1.4h-1.4c-1.6,0-2.9,1.3-2.9,2.9c0,1.6,1.3,2.9,2.9,2.9h1.4
		v1.4c0,1.4,1,2.6,2.4,2.8c0.2,0,0.3,0,0.5,0c1.6,0,2.9-1.3,2.9-2.9v-1.4H41c1.6,0,2.9-1.3,2.9-2.9C43.9,35.9,42.6,34.7,41,34.7z
		 M38.6,38.5c-0.5,0-0.9,0.4-0.9,1v2.4c0,0.5-0.4,1-1,1c-0.2,0-0.3,0-0.5-0.1c-0.3-0.2-0.5-0.5-0.5-0.8v-2.4c0-0.5-0.4-1-0.9-1h-2.4
		c-0.5,0-0.9-0.4-0.9-0.9s0.4-0.9,0.9-0.9h2.4c0.5,0,0.9-0.4,0.9-1v-2.4c0-0.4,0.2-0.7,0.5-0.8c0.1-0.1,0.3-0.1,0.5-0.1
		c0.5,0,1,0.4,1,0.9v2.4c0,0.5,0.4,1,0.9,1H41c0.5,0,0.9,0.4,0.9,0.9s-0.4,0.9-0.9,0.9H38.6z M41,34.7h-1.4v-1.4
		c0-1.6-1.3-2.8-2.9-2.8c-0.2,0-0.3,0-0.5,0c-1.3,0.2-2.4,1.4-2.4,2.8v1.4h-1.4c-1.6,0-2.9,1.3-2.9,2.9c0,1.6,1.3,2.9,2.9,2.9h1.4
		v1.4c0,1.4,1,2.6,2.4,2.8c0.2,0,0.3,0,0.5,0c1.6,0,2.9-1.3,2.9-2.9v-1.4H41c1.6,0,2.9-1.3,2.9-2.9C43.9,35.9,42.6,34.7,41,34.7z
		 M38.6,38.5c-0.5,0-0.9,0.4-0.9,1v2.4c0,0.5-0.4,1-1,1c-0.2,0-0.3,0-0.5-0.1c-0.3-0.2-0.5-0.5-0.5-0.8v-2.4c0-0.5-0.4-1-0.9-1h-2.4
		c-0.5,0-0.9-0.4-0.9-0.9s0.4-0.9,0.9-0.9h2.4c0.5,0,0.9-0.4,0.9-1v-2.4c0-0.4,0.2-0.7,0.5-0.8c0.1-0.1,0.3-0.1,0.5-0.1
		c0.5,0,1,0.4,1,0.9v2.4c0,0.5,0.4,1,0.9,1H41c0.5,0,0.9,0.4,0.9,0.9s-0.4,0.9-0.9,0.9H38.6z"/>
	<path class="st1" d="M8.4,18L8.4,18l-0.1,0c-0.3,0-0.6-0.2-0.6-0.5c-0.1-0.6-0.3-1.3-0.4-1.9c0-0.2,0-0.3,0.1-0.5
		c0.1-0.1,0.3-0.2,0.4-0.3h0c0.4,0,0.6,0.2,0.7,0.5c0.1,0.6,0.2,1.3,0.4,1.9C8.9,17.6,8.7,17.9,8.4,18z"/>
	<path class="st1" d="M9.5,11.7C9.3,11.8,9.2,12,9,12.2c-0.2,0.2-0.3,0.5-0.4,0.7c-0.1,0.3-0.4,0.4-0.6,0.4H7.9l-0.2,0
		c-0.1,0-0.2-0.2-0.3-0.3c-0.1-0.2-0.1-0.3,0-0.5C7.5,12,7.7,11.7,8,11.3c0.2-0.3,0.5-0.5,0.7-0.7c0.1-0.1,0.2-0.1,0.4-0.1
		c0.2,0,0.4,0.1,0.5,0.3C9.8,11.1,9.8,11.4,9.5,11.7z"/>
	<path class="st1" d="M10,22.2c-0.1,0.2-0.2,0.3-0.4,0.3l-0.1,0l-0.1,0c-0.3,0-0.5-0.2-0.6-0.4c-0.2-0.7-0.4-1.3-0.6-1.9
		c-0.1-0.3,0.1-0.7,0.4-0.8l0.1,0h0.1c0.3,0,0.5,0.2,0.6,0.4c0.2,0.6,0.4,1.2,0.6,1.8C10.1,21.9,10.1,22.1,10,22.2z"/>
	<path d="M41,34.7h-1.4v-1.4c0-1.6-1.3-2.8-2.9-2.8c-0.2,0-0.3,0-0.5,0c-1.3,0.2-2.4,1.4-2.4,2.8v1.4h-1.4c-1.6,0-2.9,1.3-2.9,2.9
		c0,1.6,1.3,2.9,2.9,2.9h1.4v1.4c0,1.4,1,2.6,2.4,2.8c0.2,0,0.3,0,0.5,0c1.6,0,2.9-1.3,2.9-2.9v-1.4H41c1.6,0,2.9-1.3,2.9-2.9
		C43.9,35.9,42.6,34.7,41,34.7z M38.6,38.5c-0.5,0-0.9,0.4-0.9,1v2.4c0,0.5-0.4,1-1,1c-0.2,0-0.3,0-0.5-0.1
		c-0.3-0.2-0.5-0.5-0.5-0.8v-2.4c0-0.5-0.4-1-0.9-1h-2.4c-0.5,0-0.9-0.4-0.9-0.9s0.4-0.9,0.9-0.9h2.4c0.5,0,0.9-0.4,0.9-1v-2.4
		c0-0.4,0.2-0.7,0.5-0.8c0.1-0.1,0.3-0.1,0.5-0.1c0.5,0,1,0.4,1,0.9v2.4c0,0.5,0.4,1,0.9,1H41c0.5,0,0.9,0.4,0.9,0.9
		s-0.4,0.9-0.9,0.9H38.6z"/>
	<path d="M41,34.7h-1.4v-1.4c0-1.6-1.3-2.8-2.9-2.8c-0.2,0-0.3,0-0.5,0c-1.3,0.2-2.4,1.4-2.4,2.8v1.4h-1.4c-1.6,0-2.9,1.3-2.9,2.9
		c0,1.6,1.3,2.9,2.9,2.9h1.4v1.4c0,1.4,1,2.6,2.4,2.8c0.2,0,0.3,0,0.5,0c1.6,0,2.9-1.3,2.9-2.9v-1.4H41c1.6,0,2.9-1.3,2.9-2.9
		C43.9,35.9,42.6,34.7,41,34.7z M38.6,38.5c-0.5,0-0.9,0.4-0.9,1v2.4c0,0.5-0.4,1-1,1c-0.2,0-0.3,0-0.5-0.1
		c-0.3-0.2-0.5-0.5-0.5-0.8v-2.4c0-0.5-0.4-1-0.9-1h-2.4c-0.5,0-0.9-0.4-0.9-0.9s0.4-0.9,0.9-0.9h2.4c0.5,0,0.9-0.4,0.9-1v-2.4
		c0-0.4,0.2-0.7,0.5-0.8c0.1-0.1,0.3-0.1,0.5-0.1c0.5,0,1,0.4,1,0.9v2.4c0,0.5,0.4,1,0.9,1H41c0.5,0,0.9,0.4,0.9,0.9
		s-0.4,0.9-0.9,0.9H38.6z"/>
</g>
</svg>
