<?xml version="1.0" encoding="utf-8"?>
<!-- Generator: Adobe Illustrator 24.3.0, SVG Export Plug-In . SVG Version: 6.00 Build 0)  -->
<svg version="1.1" id="Layer_1" xmlns="http://www.w3.org/2000/svg" xmlns:xlink="http://www.w3.org/1999/xlink" x="0px" y="0px"
	 width="50.6px" height="55.7px" viewBox="0 0 50.6 55.7" style="enable-background:new 0 0 50.6 55.7;" xml:space="preserve">
<style type="text/css">
	.st0{fill:#00B0FB;}
	.st1{opacity:0.4;fill:#00B0FB;}
	.st2{fill:none;}
	.st3{opacity:0.4;}
</style>
<g>
	<path class="st0" d="M46.5,45v1.9c0,0.6-0.5,1.1-1.1,1.1H5.2c-0.6,0-1-0.5-1-1.1V45h2.1v0.9h4.2V45h2.1v0.9H20V45h2.1v1.9h6.4V45
		h2.1v0.9H38V45h2.1v0.9h4.2V45H46.5z"/>
	<polygon class="st0" points="32.3,10.1 32.3,8.8 31.6,8.8 31.6,8.1 18.9,8.1 18.9,8.8 18,8.8 18,22 19.1,22 19.1,22.2 31.7,22.2 
		31.7,21.9 32.4,21.9 32.4,10.1 	"/>
	<path d="M45.5,21.5h-5.3v-9.5c0-0.6-0.5-1.1-1.1-1.1h-5.3V9.8c0-1.8-1.4-3.2-3.2-3.2H20c-1.8,0-3.2,1.4-3.2,3.2v1.1h-5.3
		c-0.6,0-1.1,0.5-1.1,1.1v9.5H5.2c-0.6,0-1.1,0.5-1.1,1.1V48c0,0.6,0.5,1.1,1.1,1.1h40.3c0.6,0,1.1-0.5,1.1-1.1V22.5
		C46.5,21.9,46.1,21.5,45.5,21.5z M19,9.8c0-0.6,0.5-1.1,1.1-1.1h10.6c0.6,0,1.1,0.5,1.1,1.1v10.6c0,0.6-0.5,1.1-1.1,1.1H20
		c-0.6,0-1.1-0.5-1.1-1.1V9.8z M12.6,13h4.2v7.4c0,1.8,1.4,3.2,3.2,3.2h10.6c1.8,0,3.2-1.4,3.2-3.2V13H38v33.9h-7.4v-8.5
		c0-0.6-0.5-1.1-1.1-1.1h-8.5c-0.6,0-1.1,0.5-1.1,1.1v8.5h-7.4V13z M22.1,39.5h6.4v7.4h-6.4V39.5z M6.2,23.6h4.2v23.3H6.2V23.6z
		 M44.4,46.9h-4.2V23.6h4.2V46.9z"/>
	<path d="M28.5,14.1h-2.1v-2.1c0-0.6-0.5-1.1-1.1-1.1c-0.6,0-1.1,0.5-1.1,1.1v2.1h-2.1c-0.6,0-1.1,0.5-1.1,1.1
		c0,0.6,0.5,1.1,1.1,1.1h2.1v2.1c0,0.6,0.5,1.1,1.1,1.1c0.6,0,1.1-0.5,1.1-1.1v-2.1h2.1c0.6,0,1.1-0.5,1.1-1.1
		C29.6,14.5,29.1,14.1,28.5,14.1z"/>
	<path class="st1" d="M20,26.8h-2.1c-0.6,0-1.1,0.5-1.1,1.1c0,0.6,0.5,1.1,1.1,1.1H20c0.6,0,1.1-0.5,1.1-1.1
		C21.1,27.3,20.6,26.8,20,26.8z"/>
	<path d="M20,32.1h-2.1c-0.6,0-1.1,0.5-1.1,1.1c0,0.6,0.5,1.1,1.1,1.1H20c0.6,0,1.1-0.5,1.1-1.1C21.1,32.6,20.6,32.1,20,32.1z"/>
	<path class="st1" d="M26.4,26.8h-2.1c-0.6,0-1.1,0.5-1.1,1.1c0,0.6,0.5,1.1,1.1,1.1h2.1c0.6,0,1.1-0.5,1.1-1.1
		C27.4,27.3,27,26.8,26.4,26.8z"/>
	<path d="M26.4,32.1h-2.1c-0.6,0-1.1,0.5-1.1,1.1c0,0.6,0.5,1.1,1.1,1.1h2.1c0.6,0,1.1-0.5,1.1-1.1C27.4,32.6,27,32.1,26.4,32.1z"/>
	<path class="st1" d="M32.7,26.8h-2.1c-0.6,0-1.1,0.5-1.1,1.1c0,0.6,0.5,1.1,1.1,1.1h2.1c0.6,0,1.1-0.5,1.1-1.1
		C33.8,27.3,33.3,26.8,32.7,26.8z"/>
	<path d="M32.7,32.1h-2.1c-0.6,0-1.1,0.5-1.1,1.1c0,0.6,0.5,1.1,1.1,1.1h2.1c0.6,0,1.1-0.5,1.1-1.1C33.8,32.6,33.3,32.1,32.7,32.1z"
		/>
</g>
</svg>
