<?xml version="1.0" encoding="utf-8"?>
<!-- Generator: Adobe Illustrator 24.3.0, SVG Export Plug-In . SVG Version: 6.00 Build 0)  -->
<svg version="1.1" id="Layer_1" xmlns="http://www.w3.org/2000/svg" xmlns:xlink="http://www.w3.org/1999/xlink" x="0px" y="0px"
	 viewBox="0 0 115.98 129.9" style="enable-background:new 0 0 115.98 129.9;" xml:space="preserve">
<style type="text/css">
	.st0{fill:#001135;}
	.st1{fill:#FFFFFF;}
	.st2{fill:#3C7CFF;}
	.st3{fill:#FFFFFF;fill-opacity:0.4;}
</style>
<g>
	<path class="st0" d="M19.26,78.56c-0.56-3.84-1.13-7.46-1.61-11.1c-0.16-1.21-0.22-2.46-0.11-3.68c0.11-1.29-0.41-1.74-1.59-2.04
		c-5.84-1.46-6.32-2.23-4.92-8.19c0.6-2.55,1.35-5.07,2.2-7.54c0.85-2.48,2.42-3.27,4.96-2.77c1.4,0.28,3.04,1.1,4.15,0.65
		c1.03-0.43,1.4-2.3,2.24-3.4c2.47-3.23,5.03-6.39,7.73-9.8c-0.5-0.88-1.2-2.07-1.87-3.28c-1.24-2.27-0.93-4.15,1.23-5.51
		c3.11-1.96,6.31-3.8,9.57-5.49c2.1-1.09,3.86-0.38,5.14,1.65c0.76,1.21,1.32,2.96,2.42,3.43c1.02,0.44,2.61-0.63,3.98-0.8
		c3.54-0.43,7.09-0.86,10.65-1.02c1.41-0.07,2.02-0.49,2.26-1.79c0.18-0.93,0.44-1.85,0.73-2.75c0.66-2.03,2.37-3.14,4.4-2.66
		c3.52,0.84,7.03,1.75,10.5,2.79c2.57,0.78,3.42,2.61,2.79,5.24c-0.31,1.29-1.09,2.79-0.69,3.83c0.36,0.94,2.11,1.29,3.1,2.07
		c2.98,2.35,5.93,4.72,8.79,7.21c0.83,0.72,1.37,0.92,2.28,0.28c0.86-0.61,1.81-1.11,2.76-1.58c1.93-0.95,3.75-0.68,4.88,1.12
		c2.1,3.35,4.04,6.81,5.9,10.3c0.78,1.46,0.2,3.15-1.08,4.21c-0.21,0.18-0.46,0.31-0.69,0.47c-1.21,0.78-2.96,1.32-3.46,2.42
		c-0.45,1.01,0.59,2.61,0.76,3.98c0.44,3.65,0.81,7.31,1.08,10.98c0.08,1.06,0.28,1.65,1.4,1.84c0.99,0.16,1.96,0.46,2.92,0.74
		c2.22,0.66,3.34,2.51,2.79,4.78c-0.82,3.36-1.63,6.72-2.64,10.02c-0.87,2.82-2.52,3.6-5.41,2.92c-1.24-0.29-2.71-1.07-3.66-0.66
		c-0.96,0.41-1.37,2.05-2.1,3.09c-1.74,2.44-3.53,4.85-5.37,7.36c2.45,1.41,4.27,3.45,5.25,6.19c0.65,1.81,0.29,2.52-1.58,3.12
		c-11.95,3.83-23.92,7.63-35.86,11.51c-3.35,1.09-6.56,1.13-9.76-0.38c-8.63-4.07-17.29-8.1-25.89-12.23
		c-3.99-1.92-7.95-3.84-12.72-3.78c0,1.57-0.03,3.17,0.01,4.78c0.03,1.35-0.65,1.98-1.92,1.98c-3.41,0.02-6.82,0.03-10.23-0.01
		C1.67,107.09,1,106.37,1,105.08c0-9.56,0-19.13,0-28.69c0-1.45,0.73-2.11,2.2-2.09c3.24,0.04,6.49,0.05,9.73,0
		c1.6-0.03,2.24,0.7,2.16,2.24c-0.05,0.94-0.01,1.88-0.01,2.97C16.63,79.15,17.98,78.85,19.26,78.56z M34.15,76.88
		c-0.17-0.48-0.34-0.94-0.51-1.4c-1.79-4.75-2.35-9.69-1.67-14.68c2.76-20.03,22.85-32,41.73-24.95
		c14.59,5.45,22.91,21.5,18.88,36.56c-2.86,10.67-9.63,17.78-19.92,21.63c-0.47,0.17-1.16,0.53-1.21,0.87
		c-0.15,1.17-0.06,2.37-0.06,3.65c3.66-0.83,7.03-1.59,10.4-2.36c0.22-0.05,0.43-0.15,0.64-0.18c2.96-0.44,5.93-0.84,8.89-1.32
		c0.49-0.08,1.06-0.38,1.37-0.77c1.92-2.39,3.96-4.71,5.62-7.27c3.28-5.04,3.2-5.12,9.01-3.68c1.14,0.28,1.67-0.03,1.96-1.1
		c0.57-2.1,1.23-4.17,1.77-6.28c1-3.86,0.98-3.86-2.76-4.89c-3.1-0.85-3.53-1.77-3.76-4.99c-0.3-4.15-0.82-8.32-1.64-12.4
		c-0.72-3.59-0.55-4.56,2.68-6.42c0.48-0.28,0.94-0.62,1.46-0.83c1.21-0.49,1.23-1.26,0.67-2.26c-1.21-2.14-2.33-4.32-3.62-6.41
		c-1.6-2.61-1.66-2.58-4.24-1.08c-0.53,0.31-1.05,0.64-1.6,0.9c-1.82,0.86-3.21,0.71-4.58-0.74c-3.45-3.65-7.35-6.67-11.78-9.04
		c-1.79-0.96-2.32-2.56-1.79-4.57c0.27-1.03,0.45-2.08,0.82-3.07c0.36-0.95,0-1.34-0.85-1.58c-2.25-0.65-4.46-1.46-6.75-1.94
		c-4.47-0.92-3.48-1.37-4.6,2.69c-0.84,3.03-1.86,3.65-4.95,3.86c-4.1,0.29-8.23,0.72-12.25,1.57c-3.9,0.82-4.72,0.75-6.72-2.62
		c-1.68-2.84-1.72-2.91-4.59-1.34c-2.52,1.38-4.94,2.94-7.46,4.46c0.91,1.61,1.65,2.85,2.33,4.13c0.85,1.6,0.76,3.31-0.49,4.49
		c-3.78,3.56-6.87,7.61-9.35,12.17c-0.89,1.64-2.47,2.11-4.33,1.62c-1.03-0.27-2.08-0.47-3.07-0.83c-0.97-0.35-1.45-0.07-1.71,0.89
		c-0.66,2.36-1.49,4.68-2.01,7.07c-0.74,3.37-0.65,3.39,2.78,4.25c3.03,0.75,3.94,1.85,3.85,4.93c-0.13,4.34,0.48,8.58,1.63,12.75
		c0.23,0.84,0.4,1.55,1.61,1.42C27.31,77.43,30.64,77.19,34.15,76.88z M15.15,96.96c0.6,0.08,1.08,0.17,1.58,0.22
		c3.26,0.27,6.34,1.1,9.31,2.53c9.35,4.5,18.76,8.88,28.12,13.36c2.71,1.29,5.37,1.56,8.26,0.61c9.22-3.02,18.48-5.95,27.72-8.91
		c2.41-0.77,4.83-1.56,7.26-2.35c-1.59-3.54-5.36-5.28-9.35-4.38c-6.47,1.47-12.94,2.98-19.4,4.52c-0.68,0.16-1.42,0.44-1.92,0.89
		c-2.6,2.35-5.41,2.62-8.51,1.14c-5.03-2.41-10.09-4.78-15.12-7.19c-1.16-0.56-2.93-0.98-2-2.78c0.89-1.73,2.33-0.63,3.49-0.08
		c5.15,2.42,10.28,4.89,15.43,7.32c1.94,0.91,4.23,0.26,4.9-1.47c0.85-2.19,0.42-4.03-1.8-4.97c-3.75-1.58-7.4-3.42-11.04-5.23
		c-0.8-0.4-1.57-1.07-2.08-1.81c-2.4-3.44-5.59-5.72-9.59-6.91c-5.1-1.52-10.28-1.36-15.44-0.6c-3.29,0.48-6.54,1.24-9.8,1.87
		C15.15,87.59,15.15,92.17,15.15,96.96z M62.64,87.71c2.18,0,4.36-0.04,6.54,0.01c1.55,0.03,2.3-0.61,2.24-2.19
		c-0.03-0.84,0.01-1.68,0-2.52c-0.04-2.58,0.97-4.62,2.94-6.28c5.05-4.25,6.43-9.84,5.26-16.04c-1.4-7.46-7.77-13.02-15.21-13.75
		c-7.45-0.73-14.55,3.41-17.64,10.24c-3.2,7.09-0.99,15.75,4.39,19.79c1.97,1.47,2.74,3.6,2.78,6.02c0.01,0.89,0.05,1.79,0,2.68
		c-0.08,1.44,0.58,2.05,1.98,2.04C58.17,87.69,60.41,87.7,62.64,87.71z M71.8,90.8c0.2-0.05,0.42-0.08,0.61-0.16
		C82.04,86.78,88,79.76,89.9,69.6c3.68-19.74-14.56-36.64-34.06-31.72c-16.78,4.24-25.66,23.01-18.2,38.6
		c0.29,0.61,1.12,1.2,1.8,1.36c3.76,0.92,7.17,2.46,10.07,5.06c0.31,0.28,0.65,0.53,1.08,0.89c0.29-1.92-0.26-3.29-1.57-4.49
		c-1.31-1.2-2.67-2.44-3.63-3.92c-5.34-8.19-4.1-19.01,2.85-25.84c7-6.88,17.87-7.86,26.03-2.34c10.49,7.09,12.17,22.85,3.15,31.06
		c-2.13,1.94-3.11,3.94-2.83,6.71C74.82,87.45,74.05,89.46,71.8,90.8z M4.43,77.58c0,8.82,0,17.46,0,26.2c2.47,0,4.85,0,7.35,0
		c0-8.73,0-17.42,0-26.2C9.31,77.58,6.93,77.58,4.43,77.58z M68,94.79c0-1.06,0-2.37,0-3.78c-2.09,0-4.1,0-6.22,0
		C63.94,92.32,65.98,93.56,68,94.79z"/>
	<path class="st1" d="M34.15,76.88c-3.5,0.31-6.84,0.55-10.16,0.92c-1.21,0.13-1.37-0.58-1.61-1.42c-1.15-4.17-1.75-8.41-1.63-12.75
		c0.09-3.08-0.82-4.18-3.85-4.93c-3.43-0.85-3.52-0.87-2.78-4.25c0.53-2.39,1.35-4.71,2.01-7.07c0.27-0.95,0.74-1.24,1.71-0.89
		c0.99,0.36,2.04,0.56,3.07,0.83c1.86,0.49,3.44,0.02,4.33-1.62c2.48-4.56,5.57-8.61,9.35-12.17c1.25-1.18,1.35-2.89,0.49-4.49
		c-0.68-1.28-1.42-2.52-2.33-4.13c2.52-1.52,4.94-3.08,7.46-4.46c2.87-1.57,2.9-1.5,4.59,1.34c2,3.37,2.82,3.44,6.72,2.62
		c4.02-0.85,8.14-1.28,12.25-1.57c3.1-0.22,4.12-0.83,4.95-3.86c1.12-4.06,0.13-3.61,4.6-2.69c2.29,0.47,4.5,1.29,6.75,1.94
		c0.85,0.24,1.2,0.63,0.85,1.58c-0.37,0.99-0.55,2.05-0.82,3.07c-0.53,2.01,0,3.61,1.79,4.57c4.43,2.37,8.33,5.39,11.78,9.04
		c1.37,1.45,2.76,1.6,4.58,0.74c0.55-0.26,1.07-0.59,1.6-0.9c2.59-1.5,2.64-1.53,4.24,1.08c1.28,2.09,2.41,4.27,3.62,6.41
		c0.56,0.99,0.54,1.77-0.67,2.26c-0.51,0.21-0.97,0.55-1.46,0.83c-3.23,1.86-3.4,2.83-2.68,6.42c0.82,4.08,1.34,8.25,1.64,12.4
		c0.23,3.21,0.66,4.13,3.76,4.99c3.75,1.03,3.77,1.03,2.76,4.89c-0.55,2.1-1.21,4.18-1.77,6.28c-0.29,1.08-0.82,1.38-1.96,1.1
		c-5.82-1.44-5.73-1.36-9.01,3.68c-1.67,2.56-3.7,4.88-5.62,7.27c-0.31,0.38-0.88,0.69-1.37,0.77c-2.96,0.48-5.93,0.89-8.89,1.32
		c-0.22,0.03-0.43,0.13-0.64,0.18c-3.37,0.77-6.74,1.53-10.4,2.36c0-1.28-0.09-2.48,0.06-3.65c0.04-0.34,0.74-0.7,1.21-0.87
		c10.29-3.85,17.06-10.96,19.92-21.63c4.03-15.05-4.28-31.11-18.88-36.56c-18.88-7.05-38.97,4.92-41.73,24.95
		c-0.69,4.99-0.12,9.93,1.67,14.68C33.81,75.94,33.97,76.4,34.15,76.88z"/>
	<path class="st2" d="M15.15,96.96c0-4.79,0-9.36,0-14.22c3.27-0.63,6.51-1.39,9.8-1.87c5.17-0.76,10.35-0.92,15.44,0.6
		c4,1.19,7.19,3.47,9.59,6.91c0.51,0.74,1.28,1.41,2.08,1.81c3.64,1.82,7.29,3.65,11.04,5.23c2.22,0.94,2.66,2.78,1.8,4.97
		c-0.67,1.73-2.96,2.38-4.9,1.47c-5.15-2.42-10.28-4.89-15.43-7.32c-1.16-0.55-2.6-1.65-3.49,0.08c-0.92,1.79,0.84,2.22,2,2.78
		c5.03,2.41,10.08,4.78,15.12,7.19c3.1,1.48,5.91,1.22,8.51-1.14c0.5-0.45,1.24-0.73,1.92-0.89c6.46-1.53,12.92-3.05,19.4-4.52
		c3.99-0.91,7.77,0.83,9.35,4.38c-2.43,0.79-4.84,1.57-7.26,2.35c-9.24,2.96-18.5,5.89-27.72,8.91c-2.89,0.95-5.56,0.68-8.26-0.61
		c-9.36-4.48-18.77-8.86-28.12-13.36c-2.97-1.43-6.05-2.26-9.31-2.53C16.23,97.13,15.74,97.04,15.15,96.96z"/>
	<path class="st1" d="M62.64,87.7c-2.24,0-4.47-0.02-6.71,0.01c-1.4,0.01-2.07-0.6-1.98-2.04c0.05-0.89,0.01-1.79,0-2.68
		c-0.04-2.42-0.82-4.54-2.78-6.02c-5.38-4.04-7.6-12.7-4.39-19.79c3.09-6.83,10.19-10.97,17.64-10.24
		c7.44,0.73,13.8,6.29,15.21,13.75c1.17,6.2-0.21,11.79-5.26,16.04c-1.97,1.66-2.99,3.71-2.94,6.28c0.01,0.84-0.03,1.68,0,2.52
		c0.06,1.58-0.69,2.22-2.24,2.19C67,87.67,64.82,87.71,62.64,87.7z M59.93,69.9c-1.82-1.86-3.5-3.58-5.17-5.3
		c-0.77-0.79-1.7-1.33-2.62-0.43c-0.97,0.94-0.53,1.9,0.34,2.75c1.91,1.88,3.79,3.8,5.69,5.69c1.49,1.48,2.09,1.48,3.61-0.04
		c3.64-3.63,7.27-7.27,10.9-10.92c0.31-0.31,0.78-0.65,0.83-1.02c0.08-0.59,0.07-1.41-0.28-1.77c-0.35-0.36-1.22-0.47-1.75-0.32
		c-0.53,0.15-0.96,0.73-1.39,1.16C66.76,63.03,63.46,66.35,59.93,69.9z"/>
	<path class="st0" d="M59.93,69.9c3.53-3.55,6.83-6.88,10.15-10.2c0.43-0.43,0.86-1.02,1.39-1.16c0.54-0.15,1.4-0.04,1.75,0.32
		c0.35,0.36,0.36,1.18,0.28,1.77c-0.05,0.37-0.51,0.71-0.83,1.02c-3.63,3.64-7.26,7.28-10.9,10.92c-1.52,1.52-2.12,1.52-3.61,0.04
		c-1.9-1.89-3.78-3.81-5.69-5.69c-0.87-0.85-1.31-1.81-0.34-2.75c0.93-0.89,1.85-0.36,2.62,0.43C56.43,66.32,58.11,68.04,59.93,69.9
		z"/>
</g>
</svg>
