<?xml version="1.0" encoding="utf-8"?>
<!-- Generator: Adobe Illustrator 24.3.0, SVG Export Plug-In . SVG Version: 6.00 Build 0)  -->
<svg version="1.1" id="Layer_1" xmlns="http://www.w3.org/2000/svg" xmlns:xlink="http://www.w3.org/1999/xlink" x="0px" y="0px"
	 width="116.4px" height="116.4px" viewBox="0 0 116.4 116.4" style="enable-background:new 0 0 116.4 116.4;" xml:space="preserve"
	>
<style type="text/css">
	.st0{fill:#185AE9;}
	.st1{fill:#00B0FB;}
	.st2{fill:#00B0FB;fill-opacity:0.4;}
	.st3{fill:#FFFFFF;}
</style>
<g>
	<path class="st1" d="M15.6,1.6H5.2C2.7,3.2,1,6.1,1,9.4v79.3h3v-1.3h1.1v-1.2l-0.2,0.2c-0.2,0.1-0.4,0.2-0.6,0.2
		c-0.1,0-0.2,0-0.3-0.1c-0.3-0.1-0.5-0.4-0.5-0.7V9.4c0-3.8,3.1-6.9,6.9-6.9h5.2V1.6z"/>
	<circle class="st2" cx="50.1" cy="33.8" r="6.9"/>
	<circle class="st2" cx="25.7" cy="33.8" r="6.9"/>
	<circle class="st2" cx="74.5" cy="33.8" r="6.9"/>
	<path class="st1" d="M107,26.9h-6.1c-0.4,0-0.8,0.4-0.8,0.8v30.5c0,5.2-4.2,9.4-9.4,9.4H29c-1.8,0-3.6,0.7-4.9,2L19,74.8
		c-0.1,0.2-0.2,0.4-0.2,0.6v7.3c0,3.8,3.1,6.9,6.9,6.9h61.7c2.5,0,4.9,1,6.6,2.7l18.6,18.6c0.1,0.1,0.3,0.2,0.6,0.2
		c0.1,0,0.2,0,0.3-0.1c0.3-0.1,0.5-0.4,0.5-0.7V33.8C113.9,30,110.8,26.9,107,26.9z M74.5,83.8H29.7c-2.9,0-5.3-2.4-5.3-5.3v-4.1
		c0-0.7,0.6-1.2,1.2-1.2s1.2,0.5,1.2,1.2v4.1c0,1.6,1.3,2.8,2.8,2.8h44.8c0.7,0,1.2,0.6,1.2,1.2S75.2,83.8,74.5,83.8z M108.3,90.8
		c0,0.7-0.6,1.2-1.2,1.2s-1.2-0.6-1.2-1.2V66.3c0-0.7,0.6-1.2,1.2-1.2s1.2,0.6,1.2,1.2V90.8z"/>
	<path class="st3" d="M107,24.4h-6.1c-0.4,0-0.8-0.4-0.8-0.8V9.4c0-5.2-4.2-9.4-9.4-9.4H9.4C4.2,0,0,4.2,0,9.4v81.4
		c0,0.3,0.1,0.6,0.4,0.9C0.6,91.9,0.9,92,1.2,92c0.3,0,0.6-0.1,0.9-0.4l12.8-12.8c0.2-0.2,0.4-0.2,0.6-0.2c0.1,0,0.2,0,0.3,0.1
		c0.3,0.1,0.5,0.4,0.5,0.7v3.2c0,5.2,4.2,9.4,9.4,9.4h61.8c1.8,0,3.6,0.7,4.9,2l22,22c0.2,0.2,0.5,0.4,0.9,0.4
		c0.7,0,1.2-0.6,1.2-1.2V33.8C116.4,28.6,112.2,24.4,107,24.4z M3.8,86.4c-0.2,0.1-0.4,0.2-0.6,0.2c-0.1,0-0.2,0-0.3-0.1
		c-0.3-0.1-0.5-0.4-0.5-0.7V9.4c0-3.8,3.1-6.9,6.9-6.9h81.4c3.8,0,6.9,3.1,6.9,6.9v48.8c0,3.8-3.1,6.9-6.9,6.9H29
		c-2.5,0-4.9,1-6.6,2.8L3.8,86.4z M113.9,110.2c0,0.3-0.2,0.6-0.5,0.7c-0.1,0-0.2,0.1-0.3,0.1c-0.2,0-0.4-0.1-0.6-0.2L94,92.3
		c-1.8-1.8-4.1-2.7-6.6-2.7H25.7c-3.8,0-6.9-3.1-6.9-6.9v-7.3c0-0.2,0.1-0.4,0.2-0.6l5.2-5.2c1.3-1.3,3-2,4.9-2h61.7
		c5.2,0,9.4-4.2,9.4-9.4V27.7c0-0.4,0.4-0.8,0.8-0.8h6.1c3.8,0,6.9,3.1,6.9,6.9V110.2z"/>
	<path class="st3" d="M50.1,24.4c-5.2,0-9.4,4.2-9.4,9.4c0,5.2,4.2,9.4,9.4,9.4c5.2,0,9.4-4.2,9.4-9.4
		C59.4,28.6,55.2,24.4,50.1,24.4z M50.1,40.7c-3.8,0-6.9-3.1-6.9-6.9c0-3.8,3.1-6.9,6.9-6.9c3.8,0,6.9,3.1,6.9,6.9
		C57,37.6,53.9,40.7,50.1,40.7z"/>
	<path class="st3" d="M92,13.4v12.2c0,0.7-0.6,1.2-1.2,1.2s-1.2-0.6-1.2-1.2V13.4c0-1.6-1.3-2.8-2.8-2.8H50.1
		c-0.7,0-1.2-0.6-1.2-1.2c0-0.7,0.6-1.2,1.2-1.2h36.6C89.6,8.1,92,10.5,92,13.4z"/>
	<path class="st3" d="M74.5,24.4c-5.2,0-9.4,4.2-9.4,9.4c0,5.2,4.2,9.4,9.4,9.4c5.2,0,9.4-4.2,9.4-9.4
		C83.9,28.6,79.7,24.4,74.5,24.4z M74.5,40.7c-3.8,0-6.9-3.1-6.9-6.9c0-3.8,3.1-6.9,6.9-6.9s6.9,3.1,6.9,6.9
		C81.4,37.6,78.3,40.7,74.5,40.7z"/>
	<path class="st3" d="M107,65.1c-0.7,0-1.2,0.6-1.2,1.2v24.4c0,0.7,0.6,1.2,1.2,1.2s1.2-0.6,1.2-1.2V66.3
		C108.3,65.7,107.7,65.1,107,65.1z"/>
	<path class="st3" d="M74.5,81.4H29.7c-1.6,0-2.8-1.3-2.8-2.8v-4.1c0-0.7-0.6-1.2-1.2-1.2s-1.2,0.6-1.2,1.2v4.1
		c0,2.9,2.4,5.3,5.3,5.3h44.8c0.7,0,1.2-0.6,1.2-1.2S75.2,81.4,74.5,81.4z"/>
	<path class="st3" d="M25.7,24.4c-5.2,0-9.4,4.2-9.4,9.4c0,5.2,4.2,9.4,9.4,9.4s9.4-4.2,9.4-9.4C35,28.6,30.8,24.4,25.7,24.4z
		 M25.7,40.7c-3.8,0-6.9-3.1-6.9-6.9c0-3.8,3.1-6.9,6.9-6.9c3.8,0,6.9,3.1,6.9,6.9C32.6,37.6,29.5,40.7,25.7,40.7z"/>
	<path class="st3" d="M35,9.4c0,0.7-0.6,1.2-1.2,1.2H17.5c-0.7,0-1.2-0.6-1.2-1.2c0-0.7,0.6-1.2,1.2-1.2h16.3
		C34.5,8.1,35,8.7,35,9.4z"/>
	<path class="st3" d="M10.6,50.1v16.3c0,0.7-0.5,1.2-1.2,1.2S8.1,67,8.1,66.3V50.1c0-0.7,0.6-1.2,1.2-1.2S10.6,49.4,10.6,50.1z"/>
</g>
</svg>
