<?xml version="1.0" encoding="utf-8"?>
<!-- Generator: Adobe Illustrator 24.3.0, SVG Export Plug-In . SVG Version: 6.00 Build 0)  -->
<svg version="1.1" id="Layer_1" xmlns="http://www.w3.org/2000/svg" xmlns:xlink="http://www.w3.org/1999/xlink" x="0px" y="0px"
	 width="117.6px" height="117.6px" viewBox="0 0 117.6 117.6" style="enable-background:new 0 0 117.6 117.6;" xml:space="preserve"
	>
<style type="text/css">
	.st0{fill:#185AE9;}
	.st1{fill:#00B0FB;}
	.st2{fill:#00B0FB;fill-opacity:0.4;}
	.st3{fill:#FFFFFF;}
</style>
<g>
	<path class="st1" d="M106,19.5V20h7.7c0.4,0,0.7,0.3,0.7,0.7v62.4c0,2.7-2.2,5.1-5,5.6v2.7c0.1-0.2,0.3-0.3,0.5-0.4
		c3.9-0.6,6.8-4,6.8-7.9V19.5H106z"/>
	<path class="st1" d="M12.6,32.8c-0.1-0.1-0.2-0.1-0.4-0.1s-0.2,0-0.3,0.1c-0.2,0.1-0.4,0.4-0.4,0.6v17.9c0,0.2,0.1,0.5,0.3,0.6
		c0.1,0.1,0.2,0.1,0.4,0.1s0.2,0,0.4-0.1L28,42.9c0.2-0.1,0.3-0.4,0.3-0.6s-0.1-0.5-0.3-0.6L12.6,32.8z"/>
	<path class="st1" d="M89.1,73.7C89.1,73.7,89,73.7,89.1,73.7c-0.2,0-0.4,0.1-0.5,0.2c-0.1,0.1-0.2,0.3-0.2,0.5v19
		c0,0.2,0.1,0.5,0.3,0.6l16.5,9.5c0.1,0.1,0.2,0.1,0.3,0.1c0.1,0,0.1,0,0.2,0c0.2-0.1,0.3-0.2,0.4-0.4c2.9-6.2,2.5-13.2-0.9-19.1
		C101.8,78,95.9,74.3,89.1,73.7z"/>
	<path class="st2" d="M104.3,105.9c0-0.2-0.2-0.4-0.3-0.4l-17.4-10c-0.4-0.2-0.6-0.7-0.6-1V74.4c0-0.2-0.1-0.4-0.2-0.5
		c-0.1-0.1-0.3-0.2-0.5-0.2c0,0-0.1,0-0.1,0c-10.6,0.9-18.9,10.1-18.9,20.8c0,11.5,9.4,20.9,20.9,20.9c6.7,0,13.1-3.3,17.1-8.9
		C104.3,106.3,104.4,106.1,104.3,105.9z M87.1,108.3c-7.7,0-13.9-6.2-13.9-13.9c0-0.8,0.6-1.1,1.2-1.1c0.5,0,1.2,0.3,1.2,1.1
		c0,6.4,5.2,11.6,11.6,11.6c0.8,0,1.1,0.6,1.1,1.2S87.9,108.3,87.1,108.3z"/>
	<path class="st2" d="M26.9,101.3c-0.2,0-0.4,0.1-0.5,0.2l-2.9,2.9c-0.3,0.3-0.3,0.7,0,1l9.1,9.1c0.6,0.6,1.2,0.8,1.9,0.8
		c1.1,0,2.1-0.7,2.5-1.8c0.4-1,0.2-2.1-0.6-2.9l-9.1-9.1C27.3,101.4,27.1,101.3,26.9,101.3z"/>
	<path class="st1" d="M28.9,63.3c-0.1-0.1-0.3-0.2-0.5-0.2c0,0-0.1,0-0.1,0c-0.2,0-0.4,0.2-0.5,0.4l-7.7,18
		c-0.1,0.3-0.1,0.6,0.1,0.8l11,11c0.1,0.1,0.3,0.2,0.5,0.2c0.1,0,0.2,0,0.3-0.1L50,85.8c0.2-0.1,0.4-0.3,0.4-0.5
		c0-0.2,0-0.5-0.2-0.6L28.9,63.3z"/>
	<path class="st2" d="M109.5,2.3H8.1c-3.2,0-5.8,2.6-5.8,5.8v8.9c0,0.4,0.3,0.7,0.7,0.7h111.6c0.4,0,0.7-0.3,0.7-0.7V8.1
		C115.3,4.9,112.7,2.3,109.5,2.3z M16,11.2h-5.9c-0.9,0-1.2-0.6-1.2-1.2c0-0.5,0.3-1.2,1.1-1.2h5.9c0.8,0,1.2,0.6,1.2,1.2
		C17.1,10.5,16.8,11.2,16,11.2z M30.4,11.2h-6c-0.8,0-1.1-0.6-1.1-1.2c0-0.6,0.3-1.2,1.1-1.2h6c0.8,0,1.1,0.6,1.1,1.2
		C31.5,10.5,31.2,11.2,30.4,11.2z"/>
	<path class="st3" d="M109.5,0H8.1C3.6,0,0,3.6,0,8.1V83c0,4.2,3.2,7.7,7.3,8.1c0.2,0,0.4,0.2,0.5,0.4c0.1,0.2,0.1,0.4,0,0.6
		c-1.5,3.2-1.2,6.8,0.6,9.8c1.9,3,5.1,4.7,8.6,4.7c1.1,0,2.2-0.2,3.3-0.5c0.1,0,0.1,0,0.2,0c0.2,0,0.4,0.1,0.5,0.2l9.9,9.9
		c1,1,2.3,1.5,3.6,1.5c2.1,0,3.8-1.2,4.6-3.1c0.8-1.9,0.4-4-1.1-5.5l-9.1-9.1c-0.1-0.1-0.2-0.3-0.2-0.5c0-0.2,0.1-0.4,0.2-0.5
		l2.8-2.7C31.9,96,32,96,32.1,96l11.2-4.8c0.1,0,0.2-0.1,0.3-0.1h19.8c0.2,0,0.4,0.1,0.5,0.2c0.1,0.2,0.2,0.3,0.2,0.5
		c-0.7,6.6,1.4,13.1,5.8,18c4.4,4.9,10.7,7.7,17.2,7.7c6.6,0,12.9-2.8,17.3-7.8c4.4-4.9,6.5-11.5,5.8-18c0-0.4,0.2-0.7,0.6-0.8
		c3.9-0.6,6.8-4,6.8-7.9V8.1C117.6,3.6,114,0,109.5,0z M36.6,110.6c0.8,0.8,1.1,1.9,0.6,2.9c-0.4,1.1-1.5,1.8-2.5,1.8
		c-0.7,0-1.4-0.3-1.9-0.8l-9.1-9.1c-0.3-0.3-0.3-0.7,0-1l2.8-2.9c0.1-0.1,0.3-0.2,0.5-0.2c0.2,0,0.4,0.1,0.5,0.2L36.6,110.6z
		 M29.1,95.6l-6.4,6.4c-1.5,1.5-3.4,2.3-5.5,2.3c-3.9,0-7.9-2.9-7.9-7.9c0-2.5,0.9-4,2.4-5.7l6.3-6.3c0.1-0.1,0.3-0.2,0.5-0.2
		s0.4,0.1,0.5,0.2l10.1,10.2C29.4,94.8,29.4,95.3,29.1,95.6z M50,85.8l-18.1,7.7c-0.1,0-0.2,0.1-0.3,0.1c-0.2,0-0.4-0.1-0.5-0.2
		l-10.9-11c-0.2-0.2-0.3-0.5-0.1-0.8l7.7-18c0.1-0.2,0.3-0.4,0.5-0.4c0,0,0.1,0,0.1,0c0.2,0,0.4,0.1,0.5,0.2l21.4,21.4
		c0.2,0.2,0.2,0.4,0.2,0.6C50.4,85.5,50.2,85.7,50,85.8z M56.6,80c0.8,0.8,1,1.9,0.6,2.9c-0.4,1.1-1.5,1.8-2.6,1.8
		c-0.7,0-1.3-0.3-1.9-0.8l-23.1-23c-0.8-0.8-1-1.9-0.6-2.9c0.4-1,1.5-1.8,2.6-1.8c0.7,0,1.4,0.3,1.9,0.8L56.6,80z M43.3,63.2
		c0-0.2,0.1-0.4,0.2-0.5c1-0.8,2.1-1.3,3.3-1.3c2,0,3.9,1.3,4.8,3.2c0.9,1.9,0.6,3.8-0.8,5.4c-0.1,0.1-0.3,0.2-0.5,0.2
		c-0.2,0-0.4-0.1-0.5-0.2l-6.3-6.4C43.4,63.5,43.3,63.4,43.3,63.2z M104.2,106.4c-4,5.6-10.4,8.9-17.1,8.9
		c-11.5,0-20.9-9.3-20.9-20.9c0-10.7,8.3-19.8,18.9-20.8c0,0,0.1,0,0.1,0c0.2,0,0.3,0.1,0.5,0.2c0.2,0.1,0.2,0.3,0.2,0.5v20.1
		c0,0.4,0.3,0.8,0.6,1l17.4,10c0.2,0.1,0.3,0.3,0.3,0.4C104.4,106.1,104.3,106.3,104.2,106.4z M106.1,103.1
		c-0.1,0.2-0.2,0.3-0.4,0.4c-0.1,0-0.1,0-0.2,0c-0.1,0-0.2,0-0.3-0.1l-16.5-9.5c-0.2-0.1-0.3-0.4-0.3-0.6v-19c0-0.2,0.1-0.4,0.2-0.5
		c0.1-0.1,0.3-0.2,0.5-0.2c0,0,0.1,0,0.1,0c6.8,0.6,12.7,4.4,16.1,10.3C108.6,89.9,109,96.9,106.1,103.1z M115.3,83.1
		c0,2.7-2.2,5.2-5.2,5.6c-0.3,0-0.6-0.2-0.7-0.5c-2.8-10-11.9-17-22.3-17H87c-10.3,0-19.5,7-22.3,17.1c-0.1,0.3-0.4,0.5-0.7,0.5
		H52.3c-0.3,0-0.6-0.2-0.7-0.5c-0.1-0.3,0.1-0.7,0.4-0.8l0.8-0.3c0.4-0.2,0.6-0.3,0.8-0.3c0.1,0,0.2,0,0.3,0c0.1,0,0.2,0.1,0.7,0.1
		c2.1,0,3.9-1.2,4.7-3.1c0.8-1.9,0.4-4.1-1.1-5.5l-5.6-5.7c-0.3-0.3-0.3-0.7,0-1c2.7-2.9,2.5-7.5-0.3-10.3c-1.4-1.4-3.3-2.2-5.3-2.2
		c-1.9,0-3.7,0.7-5.1,1.9c-0.1,0.1-0.3,0.2-0.5,0.2c-0.2,0-0.4-0.1-0.5-0.2l-5.7-5.7c-0.9-0.9-2.2-1.5-3.5-1.5s-2.6,0.5-3.5,1.5
		c-1.2,1.2-1.7,2.9-1.4,4.5c0,0.1,0,0.3,0,0.4l-9,21.2c0,0.1-0.1,0.2-0.1,0.2l-6.9,6.9c-0.1,0.1-0.3,0.2-0.5,0.2h-2
		c-3.2,0-5.8-2.6-5.8-5.8V20.7C2.3,20.3,2.6,20,3,20h111.6c0.4,0,0.7,0.3,0.7,0.7V83.1z M115.3,16.9c0,0.4-0.3,0.7-0.7,0.7H3
		c-0.4,0-0.7-0.3-0.7-0.7V8.1c0-3.2,2.6-5.8,5.8-5.8h101.4c3.2,0,5.8,2.6,5.8,5.8V16.9z"/>
	<path class="st3" d="M15.9,8.8H10c-0.8,0-1.1,0.6-1.1,1.2c0,0.6,0.3,1.2,1.2,1.2H16c0.8,0,1.1-0.6,1.1-1.2
		C17,9.4,16.7,8.8,15.9,8.8z"/>
	<path class="st3" d="M30.4,8.8h-6c-0.8,0-1.1,0.6-1.1,1.2s0.3,1.2,1.1,1.2h6c0.8,0,1.1-0.6,1.1-1.2S31.2,8.8,30.4,8.8z"/>
	<path class="st3" d="M54.3,31.3c0,0.5-0.3,1.2-1.1,1.2H40.8c-0.8,0-1.1-0.6-1.1-1.2c0-0.5,0.3-1.1,1.1-1.1h12.4
		C54.1,30.2,54.3,30.8,54.3,31.3z"/>
	<path class="st3" d="M107.8,39.6c0,0.5-0.3,1.2-1.1,1.2H40.8c-0.8,0-1.1-0.6-1.1-1.2s0.3-1.1,1.1-1.1h65.8
		C107.5,38.4,107.8,39,107.8,39.6z"/>
	<path class="st3" d="M107.8,31.3c0,0.5-0.3,1.2-1.1,1.2H63.3c-0.8,0-1.1-0.6-1.1-1.2c0-0.5,0.3-1.1,1.1-1.1h43.3
		C107.5,30.2,107.8,30.8,107.8,31.3z"/>
	<path class="st3" d="M29.8,40.1l-16.3-9.5c-0.4-0.2-0.9-0.4-1.4-0.4c-1.4,0-2.7,1-2.7,2.6v19c0,1.6,1.4,2.6,2.8,2.6
		c0.5,0,1-0.1,1.4-0.4l16.3-9.6c0.8-0.5,1.3-1.4,1.3-2.3C31.1,41.4,30.6,40.5,29.8,40.1z M28,42.9l-15.4,8.9
		c-0.1,0.1-0.2,0.1-0.3,0.1c-0.1,0-0.2,0-0.4-0.1c-0.2-0.1-0.3-0.4-0.3-0.6V33.4c0-0.2,0.1-0.5,0.3-0.6c0.1-0.1,0.2-0.1,0.4-0.1
		c0.1,0,0.2,0,0.3,0.1L28,41.7c0.2,0.1,0.3,0.4,0.3,0.6C28.4,42.6,28.3,42.8,28,42.9z"/>
	<path class="st3" d="M107.8,51.2c0,0.6-0.3,1.2-1.1,1.2H75.2c-0.8,0-1.1-0.6-1.1-1.2s0.3-1.2,1.1-1.2h31.4
		C107.5,50,107.8,50.6,107.8,51.2z"/>
	<path class="st3" d="M107.8,59.6c0,0.5-0.3,1.2-1.1,1.2H66.4c-0.9,0-1.2-0.6-1.2-1.2c0-0.5,0.3-1.1,1.2-1.1h40.3
		C107.5,58.4,107.8,59.1,107.8,59.6z"/>
	<path class="st3" d="M87.1,106c-6.4,0-11.6-5.2-11.6-11.6c0-0.8-0.6-1.1-1.1-1.1c-0.5,0-1.2,0.3-1.2,1.1c0,7.7,6.2,13.9,13.9,13.9
		c0.8,0,1.1-0.6,1.1-1.1S88,106,87.1,106z"/>
</g>
</svg>
