<?xml version="1.0" encoding="utf-8"?>
<!-- Generator: Adobe Illustrator 24.3.0, SVG Export Plug-In . SVG Version: 6.00 Build 0)  -->
<svg version="1.1" id="Layer_1" xmlns="http://www.w3.org/2000/svg" xmlns:xlink="http://www.w3.org/1999/xlink" x="0px" y="0px"
	 width="132.4px" height="111.2px" viewBox="0 0 132.4 111.2" style="enable-background:new 0 0 132.4 111.2;" xml:space="preserve"
	>
<style type="text/css">
	.st0{fill:#185AE9;}
	.st1{fill:#00B0FB;}
	.st2{fill-rule:evenodd;clip-rule:evenodd;fill:#00B0FB;}
	.st3{fill:#00B0FB;fill-opacity:0.4;}
	.st4{fill:#FFFFFF;}
	.st5{fill:#001135;}
	.st6{fill:#3C7CFF;}
</style>
<g>
	<path class="st4" d="M47.3,52.3c1.8,0.1,3.7,0.1,5.5,0.1l1.2,0c0.7,0,1.4,0,2,0h1.1c0.2,0,0.4-0.2,0.4-0.4V37.9
		c0-0.2-0.2-0.4-0.4-0.4c-1.1,0-2.1,0-3.2,0c-1.1,0-2.1,0-3.1,0c-1.5,0-2.8,0-4,0.1c-3.6,0.3-6.2,3.5-6.2,7.5
		C40.6,48.9,43.6,52.1,47.3,52.3z"/>
	<path class="st4" d="M60.4,53c8.2,1.9,15.6,5.4,23.7,9.6c0.1,0,0.1,0,0.2,0c0.1,0,0.1,0,0.2-0.1c0.1-0.1,0.2-0.2,0.2-0.3V26.8
		c0-0.1-0.1-0.3-0.2-0.3c-0.1,0-0.1-0.1-0.2-0.1c-0.1,0-0.1,0-0.2,0c-0.8,0.4-1.6,0.8-2.3,1.3c-1.7,0.9-3.3,1.8-5,2.6
		c-5.4,2.7-10.3,5.1-15.8,6.4c-0.8,0.2-0.8,0.8-0.8,1.2c0,3.4,0,6.6,0,9.9c0,1.1,0,4.8,0,4.8C60,52.8,60.2,53,60.4,53z"/>
	<path class="st4" d="M52.7,55.2l0,2.7c0,2.3,0,4.5,0,6.7c0,1.2,0.8,2.1,2,2.4c0.4,0.1,0.7,0.1,1,0.1c1.8,0,3.1-1.4,3.1-3.3
		c0-2.4,0-4.7,0-7l0-0.7c0-0.2,0-0.4,0-0.6l0-0.3c0-0.2-0.2-0.4-0.4-0.4h-5.2C52.9,54.8,52.7,55,52.7,55.2z"/>
	<path class="st5" d="M10.5,93.2l0,0.3c0,0.2,0.2,0.4,0.4,0.4h15.9c0.2,0,0.4-0.2,0.4-0.4l0-0.3c0-0.2,0-0.4,0-0.6l0-73.6
		c0-0.2-0.2-0.4-0.4-0.4l-11.8,0l-2.3,0c-0.8,0-1.3,0.2-1.7,0.6c-0.4,0.4-0.6,0.9-0.6,1.7c0,18.3,0,36.7,0,55l0,16.7
		C10.4,92.8,10.5,93,10.5,93.2z"/>
	<path class="st4" d="M86.7,64.5c0.1,0.3,0.3,0.5,0.5,0.7c0.1,0.1,0.2,0.2,0.2,0.2c0.1,0.1,0.2,0.1,0.3,0.1c0.1,0,0.2,0,0.3-0.1
		l0.2-0.2c0.2-0.2,0.5-0.4,0.6-0.7c0.2-0.2,0.1-0.5,0.1-0.7c0-0.1,0-0.1,0-0.2l0-38.2c0-0.1,0-0.1,0-0.2c0-0.3,0-0.6-0.1-0.8
		c-0.1-0.2-0.4-0.9-1-1l-0.1-0.1v0.1c-0.4,0-0.9,0.5-1.1,0.8c-0.2,0.4-0.2,0.8-0.2,1.2c0,12.7,0,25.4,0,38.1l0,0.2
		C86.6,63.9,86.6,64.2,86.7,64.5z"/>
	<path class="st5" d="M105.6,93.9h16c0.2,0,0.4-0.2,0.4-0.4l0-0.3c0-0.2,0-0.5,0-0.7c0-23.8,0-47.6,0-71.3c0-1.9-0.6-2.5-2.6-2.5
		l-13.8,0c-0.2,0-0.4,0.2-0.4,0.4l0,74.5C105.2,93.7,105.3,93.9,105.6,93.9z"/>
	<path class="st4" d="M91.4,49.2c0.1,0,0.1,0,0.2,0c0.8,0,1.6-0.3,2.2-1c0.8-0.9,1.3-2.2,1.3-3.6c-0.1-2.3-1.5-4.2-3.2-4.2
		c-0.2,0-0.4,0-0.6,0.1c-0.2,0-0.3,0.2-0.3,0.4v8C91,49,91.1,49.2,91.4,49.2z"/>
	<path class="st6" d="M29.5,93.9l6.2,0c4.1,0,8.2,0,12.3,0h0c0.9,0,1.6,0.3,2.2,0.8c1.1,1.1,2.2,2,3.2,2.9c0.4,0.3,1,0.6,1.5,0.6
		c3.9,0,7.7,0,11.6,0c3.6,0,7.2,0,10.7,0c0.5,0,1-0.2,1.4-0.5c1-0.8,1.9-1.7,2.9-2.5l0.5-0.4c0.7-0.6,1.4-0.9,2.3-0.9
		c4.4,0,8.7,0,13,0l5.7,0c0.2,0,0.4-0.2,0.4-0.4V2.2c0-0.2-0.2-0.4-0.4-0.4H29.5c-0.2,0-0.4,0.2-0.4,0.4v91.3
		C29.1,93.7,29.3,93.9,29.5,93.9z M41.6,37.8c1.8-1.7,3.9-2.5,6.4-2.5l1.2,0c1.4,0,2.8,0,4.2,0c1.9,0,3.5,0,5-0.1
		c1.7-0.1,3.4-0.7,5-1.2C71.1,31.5,78,27.7,84.3,24c0.3-0.2,0.6-0.5,0.8-0.9c0.7-1,1.6-1.6,2.7-1.6c0.3,0,0.6,0,0.9,0.1
		c1.3,0.3,2,1.2,2.1,2.7c0.1,1.8,0.1,3.7,0.1,5.5l0,1.6c0,1.5,0,3,0,4.5l0,2.1c0,0.2,0.2,0.4,0.4,0.4c4.9,0.4,5.6,4.5,5.7,6.3
		c0.1,3.6-1.6,5.7-5.7,6.6c-0.2,0-0.3,0.2-0.3,0.4l0,3.9c0,2.6,0,5.1,0,7.7c0,0.7-0.1,1.4-0.3,2.3c-0.3,1.1-1,1.7-2.2,1.8
		c-0.2,0-0.4,0-0.6,0c-1.4,0-2.3-0.4-2.8-1.4c-0.3-0.5-0.7-0.9-1.1-1.2c-7.1-3.9-13.8-6.9-20.4-9c-0.5-0.2-0.9-0.3-1.5-0.4
		c-0.3-0.1-0.5-0.1-0.8-0.2c0,0-0.1,0-0.1,0c-0.1,0-0.2,0-0.3,0.1c-0.1,0.1-0.2,0.2-0.2,0.3l0,1.3c0,1,0,1.9,0,2.8c0,0.5,0,1,0,1.5
		c0,1.2,0,2.4-0.1,3.6c-0.2,2.1-1.7,3.8-3.9,4.2c-0.4,0.1-0.8,0.1-1.2,0.1c-2,0-3.7-1-4.4-2.6c-0.3-0.7-0.5-1.6-0.6-2.6
		c-0.1-1.9-0.1-3.9,0-5.8l0-3.3c0-0.2-0.2-0.4-0.4-0.4H48c-3.9,0-7.5-2.4-8.9-6.1C37.8,44.7,38.8,40.5,41.6,37.8z"/>
	<path class="st4" d="M130.4,96.2c0-0.2-0.2-0.4-0.4-0.4H88.4c-0.4,0-0.9,0-1.3-0.1c-0.5,0-1-0.1-1.4-0.1c-0.8,0-1.4,0.1-2,0.3
		c-1,0.4-1.9,1.2-2.7,2c-0.4,0.3-0.7,0.7-1,1l-0.1,0.1c-0.1,0.1-0.2,0.2-0.3,0.2c-0.5,0.6-1.2,0.8-2.2,0.8c-2.8,0-5.6,0-8.4,0h-0.4
		c-4.8,0-9.5,0-14.3,0c-0.6,0-1.4-0.3-2-0.7c-1-0.7-1.9-1.6-2.8-2.5l-0.2-0.2c-0.6-0.6-1.3-0.8-2.2-0.8c-5.6,0-11.1,0-16.6,0
		l-28.1,0C2.2,95.8,2,96,2,96.2c0,0.6,0,1.3,0,1.9c0,1.6,0,3,0,4.5c0.1,0.9,0.2,2.1,0.8,3.3c1.3,2.4,3.5,3.7,6.7,3.7l113.5,0
		c3.8,0,6.9-2.4,7.3-5.6c0.2-1.7,0.2-3.5,0.1-5.3C130.4,97.8,130.4,97,130.4,96.2z"/>
	<path class="st5" d="M132.4,95.6c0-1-0.4-1.5-1.4-1.6c-0.8-0.1-1.6-0.1-2.4-0.1l-0.6,0c-0.5,0-0.9,0-1.4,0l-2.3,0
		c-0.2,0-0.4-0.2-0.4-0.4l0-72.2c0-2.9-1.5-4.4-4.4-4.5c-1.5,0-3.8,0-6.1,0l-7.9,0c-0.1,0-0.2,0-0.3-0.1c-0.1-0.1-0.1-0.2-0.1-0.3
		l0-15.1c0-0.7-0.1-1-0.2-1.1C104.8,0,104.3,0,103.8,0L68.7,0C55.3,0,41.9,0,28.5,0c-1.2,0-1.3,0.2-1.3,1.1l0,15.3
		c0,0.1,0,0.2-0.1,0.3c-0.1,0.1-0.2,0.1-0.3,0.1l-13.5,0c-3.3,0-4.8,1.4-4.8,4.7l0,71.9c0,0.2-0.2,0.4-0.4,0.4l-4.2,0
		c-0.7,0-1.3,0-2,0c-1.3,0-2,0.6-2,1.8l0,1c0,2,0,4,0,6c0.2,4.9,4,8.6,9,8.6l21.2,0c13.8,0,49.4,0,49.4,0s32.4,0,40.1,0h3.5
		c5,0,9-3.6,9.1-8.2c0.1-2,0.1-4.1,0-6.1L132.4,95.6z M105.2,19c0-0.2,0.2-0.4,0.4-0.4l13.8,0c2,0,2.6,0.6,2.6,2.5
		c0,23.8,0,47.6,0,71.3c0,0.2,0,0.5,0,0.7l0,0.3c0,0.2-0.2,0.4-0.4,0.4h-16c-0.2,0-0.4-0.2-0.4-0.4L105.2,19z M29.1,2.2
		c0-0.2,0.2-0.4,0.4-0.4H103c0.2,0,0.4,0.2,0.4,0.4v91.3c0,0.2-0.2,0.4-0.4,0.4l-5.7,0c-4.3,0-8.7,0-13,0c-0.9,0-1.6,0.3-2.3,0.9
		l-0.5,0.4c-0.9,0.8-1.9,1.7-2.9,2.5c-0.4,0.3-0.9,0.5-1.4,0.5c-3.6,0-7.2,0-10.7,0c-3.9,0-7.7,0-11.6,0c-0.5,0-1-0.2-1.5-0.6
		c-1-0.9-2.1-1.8-3.2-2.9c-0.6-0.6-1.3-0.8-2.2-0.8h0c-4.1,0-8.2,0-12.3,0l-6.2,0c-0.2,0-0.4-0.2-0.4-0.4V2.2z M10.4,20.8
		c0-0.8,0.2-1.3,0.6-1.7c0.4-0.4,0.9-0.6,1.7-0.6l2.3,0l11.8,0c0.2,0,0.4,0.2,0.4,0.4l0,73.6c0,0.2,0,0.4,0,0.6l0,0.3
		c0,0.2-0.2,0.4-0.4,0.4H10.9c-0.2,0-0.4-0.2-0.4-0.4l0-0.3c0-0.2,0-0.4,0-0.6l0-16.7C10.4,57.5,10.4,39.2,10.4,20.8z M130.3,103.9
		c-0.4,3.2-3.5,5.6-7.3,5.6l-113.5,0c-3.1,0-5.4-1.2-6.7-3.7c-0.6-1.1-0.8-2.4-0.8-3.3c-0.1-1.4-0.1-2.9,0-4.5c0-0.6,0-1.2,0-1.9
		c0-0.2,0.2-0.4,0.4-0.4l28.1,0c5.5,0,11.1,0,16.6,0c0.9,0,1.6,0.3,2.2,0.8l0.2,0.2c0.9,0.9,1.8,1.7,2.8,2.5c0.6,0.5,1.4,0.7,2,0.7
		c4.8,0,9.5,0,14.3,0h0.4c2.8,0,5.6,0,8.4,0c1,0,1.6-0.2,2.2-0.8c0.1-0.1,0.2-0.2,0.3-0.2l0.1-0.1c0.3-0.3,0.7-0.6,1-1
		c0.8-0.8,1.6-1.6,2.7-2c0.5-0.2,1.2-0.3,2-0.3c0.5,0,0.9,0,1.4,0.1c0.4,0,0.9,0.1,1.3,0.1H130c0.2,0,0.4,0.2,0.4,0.4
		c0,0.8,0,1.6,0,2.4C130.5,100.4,130.5,102.2,130.3,103.9z"/>
	<path class="st5" d="M48,54.5h2.2c0.2,0,0.4,0.2,0.4,0.4l0,3.3c0,1.9,0,3.9,0,5.8c0,0.9,0.2,1.9,0.6,2.6c0.8,1.6,2.4,2.6,4.4,2.6
		c0.4,0,0.8,0,1.2-0.1c2.2-0.4,3.7-2,3.9-4.2c0.1-1.2,0.1-2.4,0.1-3.6c0-0.5,0-1,0-1.5c0-0.9,0-1.8,0-2.8l0-1.3
		c0-0.1,0.1-0.2,0.2-0.3c0.1,0,0.1-0.1,0.3-0.1c0,0,0.1,0,0.1,0c0.3,0.1,0.5,0.1,0.8,0.2c0.5,0.1,1,0.2,1.5,0.4
		c6.6,2.1,13.2,5.1,20.4,9c0.4,0.2,0.8,0.7,1.1,1.2c0.5,1,1.4,1.4,2.8,1.4c0.2,0,0.4,0,0.6,0c1.2-0.1,1.9-0.7,2.2-1.8
		c0.2-0.9,0.3-1.6,0.3-2.3c0-2.6,0-5.1,0-7.7l0-3.9c0-0.2,0.1-0.3,0.3-0.4c4.1-1,5.9-3,5.7-6.6c-0.1-1.8-0.8-5.9-5.7-6.3
		c-0.2,0-0.4-0.2-0.4-0.4l0-2.1c0-1.5,0-3,0-4.5l0-1.6c0-1.8,0-3.7-0.1-5.5c-0.1-1.5-0.8-2.4-2.1-2.7c-0.3-0.1-0.6-0.1-0.9-0.1
		c-1.2,0-2.1,0.5-2.7,1.6c-0.2,0.3-0.4,0.7-0.8,0.9c-6.3,3.7-13.2,7.5-20.9,10.1c-1.5,0.5-3.3,1.1-5,1.2c-1.5,0.1-3.1,0.1-5,0.1
		c-1.4,0-2.8,0-4.2,0l-1.2,0c-2.4,0-4.5,0.8-6.4,2.5c-2.9,2.6-3.9,6.9-2.5,10.6C40.5,52,44.1,54.5,48,54.5z M91,40.8
		c0-0.2,0.1-0.3,0.3-0.4c0.2,0,0.4-0.1,0.6-0.1c1.7,0,3.1,1.9,3.2,4.2c0.1,1.4-0.4,2.8-1.3,3.6c-0.6,0.6-1.4,1-2.2,1
		c-0.1,0-0.1,0-0.2,0c-0.2,0-0.4-0.2-0.4-0.4V40.8z M86.6,25.4c0-0.4,0-0.8,0.2-1.2c0.2-0.3,0.7-0.8,1.1-0.8v-0.1l0.1,0.1
		c0.5,0.1,0.9,0.8,1,1C89,24.7,89,25,89,25.3c0,0.1,0,0.1,0,0.2l0,38.2c0,0,0,0.1,0,0.2c0,0.2,0,0.5-0.1,0.7
		c-0.2,0.3-0.4,0.5-0.6,0.7L88,65.4c-0.1,0.1-0.2,0.1-0.3,0.1c-0.1,0-0.2-0.1-0.3-0.1c-0.1-0.1-0.1-0.1-0.2-0.2
		c-0.2-0.2-0.4-0.4-0.5-0.7c-0.1-0.3-0.1-0.6-0.1-0.8l0-0.2C86.6,50.8,86.6,38.2,86.6,25.4z M60,47.8c0-3.3,0-6.5,0-9.9
		c0-0.3,0-1,0.8-1.2c5.5-1.3,10.4-3.6,15.8-6.4c1.7-0.9,3.3-1.7,5-2.6c0.8-0.4,1.6-0.8,2.3-1.3c0.1,0,0.1,0,0.2,0
		c0.1,0,0.1,0,0.2,0.1c0.1,0.1,0.2,0.2,0.2,0.3v35.4c0,0.1-0.1,0.3-0.2,0.3c-0.1,0-0.1,0.1-0.2,0.1c-0.1,0-0.1,0-0.2,0
		C76,58.4,68.6,54.9,60.4,53c-0.2,0-0.3-0.2-0.3-0.4C60,52.6,60,48.9,60,47.8z M58.7,55.2l0,0.3c0,0.2,0,0.4,0,0.6l0,0.7
		c0,2.3,0,4.7,0,7c0,1.9-1.3,3.3-3.1,3.3c-0.3,0-0.7,0-1-0.1c-1.2-0.3-2-1.2-2-2.4c0-2.2,0-4.4,0-6.7l0-2.7c0-0.2,0.2-0.4,0.4-0.4
		h5.2C58.5,54.8,58.7,55,58.7,55.2z M46.8,37.6c1.2-0.1,2.5-0.1,4-0.1c1,0,2.1,0,3.1,0c1,0,2.1,0,3.2,0c0.2,0,0.4,0.2,0.4,0.4v14.2
		c0,0.2-0.2,0.4-0.4,0.4H56c-0.7,0-1.4,0-2,0l-1.2,0c-1.8,0-3.6,0-5.5-0.1c-3.7-0.3-6.6-3.4-6.6-7.2C40.6,41.1,43.3,37.9,46.8,37.6z
		"/>
</g>
</svg>
