<?xml version="1.0" encoding="utf-8"?>
<!-- Generator: Adobe Illustrator 24.3.0, SVG Export Plug-In . SVG Version: 6.00 Build 0)  -->
<svg version="1.1" id="Layer_1" xmlns="http://www.w3.org/2000/svg" xmlns:xlink="http://www.w3.org/1999/xlink" x="0px" y="0px"
	 width="109.3px" height="111.2px" viewBox="0 0 109.3 111.2" style="enable-background:new 0 0 109.3 111.2;" xml:space="preserve"
	>
<style type="text/css">
	.st0{fill:#185AE9;}
	.st1{fill:#00B0FB;}
	.st2{fill-rule:evenodd;clip-rule:evenodd;fill:#00B0FB;}
	.st3{fill:#00B0FB;fill-opacity:0.4;}
	.st4{fill:#FFFFFF;}
	.st5{fill:#001135;}
	.st6{fill:#3C7CFF;}
</style>
<g>
	<path class="st4" d="M56.5,36.1C56.5,36.1,56.5,36.1,56.5,36.1c0.1,0,0.1,0,0.2,0l0.7-0.4c0.2-0.1,0.3-0.3,0.3-0.5
		c0-0.1,0-0.1,0-0.2l-0.4-1.6c-0.1-0.3-0.3-0.5-0.6-0.5c0,0-0.8,0-0.8,0c-0.1,0-0.1,0-0.2,0.1c0,0.1-0.1,0.1,0,0.2l0.8,2.8
		C56.4,36,56.4,36.1,56.5,36.1z"/>
	<path class="st4" d="M39.1,44.3C39.1,44.3,39.1,44.3,39.1,44.3c-0.6,0.1-0.9,0.2-1.3,0.3c-0.3,0.1-0.6,0.2-1.1,0.3
		c-0.1,0-0.1,0.1-0.1,0.1c0,0.1,0,0.1,0,0.2l3.9,6.8c0.2,0.3,0.5,0.5,0.8,0.6c0.1,0,0.2,0,0.4,0c0.2,0,0.5-0.1,0.7-0.2
		c0.3-0.2,0.5-0.5,0.6-0.8c0-0.1,0-0.2,0-0.4c0-0.2-0.1-0.5-0.2-0.7l-3.6-6.3C39.2,44.3,39.2,44.3,39.1,44.3z"/>
	<path class="st5" d="M59.7,13.6h12.5c2.9,0,5.3,2.4,5.3,5.3v34.9c0,0.1,0.1,0.2,0.2,0.2c0,0,0,0,0.1,0c0.1,0,0.1,0,0.2-0.1l3-5.2
		c0,0,0-0.1,0-0.1V18.9c0-4.8-3.9-8.7-8.7-8.7H59.7c-0.1,0-0.2,0.1-0.2,0.2v3C59.5,13.5,59.6,13.6,59.7,13.6z"/>
	<path class="st4" d="M35.9,16h19.7c1.3,0,2.3-1,2.3-2.3v-3.6c0-1.3-1-2.3-2.3-2.3h-3.7c-0.5,0-0.8-0.4-0.8-0.8
		c0-2.9-2.4-5.3-5.3-5.3c-2.9,0-5.3,2.4-5.3,5.3c0,0.5-0.4,0.8-0.8,0.8h-3.7c-1.3,0-2.3,1-2.3,2.3v3.6C33.5,15,34.6,16,35.9,16z
		 M45.7,4.9c0.8,0,1.5,0.7,1.5,1.5c0,0.8-0.7,1.5-1.5,1.5c-0.8,0-1.5-0.7-1.5-1.5C44.2,5.6,44.9,4.9,45.7,4.9z"/>
	<path class="st5" d="M19.2,99.9h53c4.8,0,8.7-3.9,8.7-8.7V72.4c0-0.1-0.1-0.2-0.2-0.2c0,0,0,0-0.1,0c-0.1,0-0.1,0-0.2,0.1l-3,5.2
		c0,0,0,0.1,0,0.1v13.7c0,2.9-2.4,5.3-5.3,5.3h-53c-2.9,0-5.3-2.4-5.3-5.3V18.9c0-2.9,2.4-5.3,5.3-5.3h12.5c0.1,0,0.2-0.1,0.2-0.2
		v-3c0-0.1-0.1-0.2-0.2-0.2H19.2c-4.8,0-8.7,3.9-8.7,8.7v72.4C10.5,96,14.4,99.9,19.2,99.9z"/>
	<path class="st6" d="M15.6,18.9v72.4c0,2,1.6,3.6,3.6,3.6h53c2,0,3.6-1.6,3.6-3.6V81.2c0-0.1-0.1-0.2-0.2-0.2c0,0,0,0-0.1,0
		c-0.1,0-0.1,0-0.2,0.1l-0.4,0.6c-0.1,0.1-0.2,0.2-0.3,0.3l-7.4,4.6c-0.3,0.2-0.6,0.3-0.9,0.3c-0.3,0-0.6-0.1-0.9-0.2
		c-0.6-0.3-0.9-0.9-0.9-1.6l0.3-8.8c0-0.1,0-0.3,0.1-0.4l10.7-18.5c0,0,0-0.1,0-0.1V18.9c0-2-1.6-3.6-3.6-3.6H59.4
		c-0.1,0-0.2,0-0.2,0.1c-0.7,1.4-2.1,2.3-3.6,2.3H35.9c-1.5,0-3-0.9-3.6-2.3c0-0.1-0.1-0.1-0.2-0.1H19.2
		C17.2,15.3,15.6,16.9,15.6,18.9z M37.6,81l-7.4,5.5c-0.1,0.1-0.3,0.2-0.5,0.2c0,0-0.2,0-0.2,0c-0.2,0-0.4-0.2-0.5-0.4l-2.5-3.6
		c-0.1-0.1-0.1-0.3-0.1-0.5c0-0.3,0.1-0.5,0.4-0.7c0.1-0.1,0.3-0.2,0.5-0.2c0.3,0,0.5,0.1,0.7,0.4l1.9,2.7c0,0,0.1,0.1,0.1,0.1
		c0,0,0,0,0,0c0,0,0.1,0,0.1,0l6.6-4.8c0.1-0.1,0.3-0.2,0.5-0.2c0.3,0,0.5,0.1,0.7,0.3c0.1,0.1,0.2,0.3,0.2,0.5
		C37.9,80.6,37.8,80.8,37.6,81z M37.6,60.3l-7.4,5.5c-0.1,0.1-0.3,0.2-0.5,0.2c0,0,0,0,0,0c0,0-0.1,0-0.1,0c-0.2,0-0.4-0.2-0.5-0.4
		L26.5,62c0,0,0,0,0,0c-0.1-0.1-0.1-0.3-0.1-0.5c0-0.3,0.1-0.5,0.4-0.7c0.1-0.1,0.3-0.1,0.5-0.1c0.3,0,0.5,0.1,0.7,0.4l1.9,2.7
		c0,0,0.1,0.1,0.1,0.1c0,0,0,0,0,0c0,0,0.1,0,0.1,0l6.6-4.9c0.1-0.1,0.3-0.2,0.5-0.2c0.3,0,0.5,0.1,0.7,0.3c0.1,0.1,0.2,0.3,0.2,0.5
		C37.9,59.8,37.8,60.1,37.6,60.3z M58.4,87.9H44.3c-0.5,0-0.8-0.4-0.8-0.8c0-0.5,0.4-0.8,0.8-0.8h14.2c0.5,0,0.8,0.4,0.8,0.8
		S58.9,87.9,58.4,87.9z M59.4,82H44.3c-0.5,0-0.8-0.4-0.8-0.8c0-0.5,0.4-0.8,0.8-0.8h15.1c0.5,0,0.8,0.4,0.8,0.8
		C60.2,81.7,59.9,82,59.4,82z M43.4,66.4c0-0.5,0.4-0.8,0.8-0.8h14.2c0.5,0,0.8,0.4,0.8,0.8s-0.4,0.8-0.8,0.8H44.3
		C43.8,67.2,43.4,66.8,43.4,66.4z M68.1,60.5c0,0.5-0.4,0.8-0.8,0.8h-23c-0.5,0-0.8-0.4-0.8-0.8c0-0.5,0.4-0.8,0.8-0.8h23
		C67.8,59.6,68.1,60,68.1,60.5z M60.5,38.3c0-0.1,0-0.3,0.1-0.4c0.1-0.3,0.4-0.4,0.7-0.4c0.1,0,0.3,0,0.4,0.1l3.8,2.2
		c0.3,0.1,0.4,0.4,0.4,0.7c0,0.1,0,0.3-0.1,0.4c-0.1,0.3-0.4,0.4-0.7,0.4c-0.2,0-0.3,0-0.4-0.1L60.9,39
		C60.6,38.9,60.5,38.6,60.5,38.3z M66,31c0.1,0,0.1,0,0.2,0c0.4,0,0.7,0.3,0.8,0.6c0,0.1,0,0.1,0,0.2c0,0.4-0.3,0.7-0.6,0.8
		l-4.2,1.1c-0.1,0-0.1,0-0.2,0c-0.4,0-0.7-0.2-0.8-0.6c0-0.1,0-0.1,0-0.2c0-0.4,0.3-0.7,0.6-0.8L66,31z M58,28.2l2.2-3.8
		c0,0,0-0.1,0-0.1c0.1-0.2,0.4-0.3,0.7-0.3c0.1,0,0.3,0,0.4,0.1c0.3,0.2,0.4,0.4,0.4,0.7c0,0.1,0,0.3-0.1,0.4l-2.2,3.8
		c-0.2,0.3-0.4,0.4-0.7,0.4c-0.1,0-0.3,0-0.4-0.1c-0.3-0.1-0.4-0.4-0.4-0.7C57.9,28.5,57.9,28.3,58,28.2z M30.3,37.7
		c0.7-1.2,1.7-2,3-2.3c0.9-0.2,1.4-0.4,1.8-0.4c0.7-0.2,1.1-0.2,2.4-0.7c4.9-1.6,8.7-4.3,10.7-7.6c0,0,0-0.1,0-0.2L48,26
		c-0.1-0.2-0.1-0.5-0.1-0.7c0-0.5,0.1-0.9,0.4-1.3c0.4-0.6,0.9-1.1,1.7-1.3c0.2-0.1,0.5-0.1,0.7-0.1c0.5,0,0.9,0.1,1.4,0.4
		c0.6,0.4,1.1,0.9,1.3,1.7l1.7,6.5c0,0.1,0.1,0.2,0.2,0.2l1.4,0c1,0,1.9,0.7,2.2,1.7l0.4,1.6c0.1,0.2,0.1,0.4,0.1,0.6
		c0,0.8-0.4,1.5-1.1,2L57,37.8c-0.1,0-0.1,0.1-0.1,0.2l1.7,6.5c0.1,0.2,0.1,0.5,0.1,0.7c0,0.5-0.1,1-0.4,1.4c-0.4,0.6-1,1.1-1.6,1.3
		C56.5,47.9,56.2,48,56,48c-1.2,0-2.3-0.8-2.6-2l-0.1-0.5c0-0.1,0-0.1-0.1-0.1c-2.1-1.2-4.8-1.8-7.8-1.8c-1.3,0-2.7,0.1-4.1,0.4
		c-0.1,0-0.1,0.1-0.1,0.1c0,0.1,0,0.1,0,0.2l3.3,5.7c0.3,0.5,0.4,1,0.4,1.5c0,0.3,0,0.5-0.1,0.8c-0.2,0.8-0.7,1.4-1.4,1.8
		c-0.5,0.3-1,0.4-1.5,0.4c-0.3,0-0.5,0-0.8-0.1c-0.8-0.2-1.4-0.7-1.8-1.4l-4.3-7.4c0-0.1-0.1-0.1-0.2-0.1c0,0,0,0,0,0
		c-2.3,0-4.2-1.5-4.8-3.8c-0.1-0.5-0.2-0.9-0.2-1.4C29.7,39.3,29.9,38.5,30.3,37.7z M23.3,60.5c0-1.6,1.3-2.9,2.9-2.9h5.8
		c0.4,0,0.8,0.1,1.1,0.2c0.3,0.1,0.5,0.4,0.5,0.8c0,0.1,0,0.2,0,0.3c0,0,0,0,0,0c-0.1,0.3-0.4,0.5-0.8,0.5c-0.1,0-0.2,0-0.3-0.1
		c-0.2-0.1-0.3-0.1-0.5-0.1h-5.8c-0.7,0-1.3,0.6-1.3,1.3v5.8c0,0.7,0.6,1.3,1.3,1.3h5.8c0.7,0,1.3-0.6,1.3-1.3v-0.5
		c0-0.5,0.4-0.8,0.8-0.8c0.5,0,0.8,0.4,0.8,0.8v0.5c0,1.6-1.3,2.9-2.9,2.9h-5.8c-1.6,0-2.9-1.3-2.9-2.9V60.5z M23.3,81.2
		c0-1.6,1.3-2.9,2.9-2.9h5.8c0.4,0,0.8,0.1,1.1,0.2c0.3,0.1,0.5,0.4,0.5,0.8c0,0.1,0,0.2-0.1,0.3c-0.1,0.3-0.4,0.5-0.8,0.5
		c-0.1,0-0.2,0-0.3-0.1C32.4,80,32.3,80,32.1,80h-5.8c-0.7,0-1.3,0.6-1.3,1.3V87c0,0.7,0.6,1.3,1.3,1.3h5.8c0.7,0,1.3-0.6,1.3-1.3
		v-0.5c0-0.5,0.4-0.8,0.8-0.8s0.8,0.4,0.8,0.8V87c0,1.6-1.3,2.9-2.9,2.9h-5.8c-1.6,0-2.9-1.3-2.9-2.9V81.2z"/>
	<path class="st4" d="M107.5,24c0,0,0-0.3,0-0.3l0-0.2c0-0.1,0-0.2,0-0.3c-0.5-2.3-2.6-4-5-4H82.6V45c0,0.1,0.1,0.2,0.2,0.2
		c0,0,0,0,0.1,0c0.1,0,0.1,0,0.2-0.1l7-12.2c0.5-0.8,1.2-1.4,2.1-1.6c0.3-0.1,0.6-0.1,0.9-0.1c0.6,0,1.2,0.2,1.7,0.5l3.9,2.3
		c1.7,1,2.2,3.1,1.3,4.8L82.6,68.7c0,0,0,0.1,0,0.1v22.4c0,5.7-4.6,10.3-10.3,10.3h-53c-5.7,0-10.3-4.6-10.3-10.3V19.2h-2
		c-2.4,0-4.5,1.7-5,4l-0.1,0.3c0,0.1,0,0.2,0,0.2c0,0.1,0,0.2,0,0.3c0,0.1,0,0.2,0,0.3l0,16l0,0.8l0,49.8l0,13.5
		c0,2.7,2.2,5,4.9,5.1l0.1,0l95.5,0c0,0,0.1,0,0.1,0c2.7-0.1,4.9-2.4,4.9-5.1l0-13.5V41l0-0.8l0-15.9
		C107.5,24.2,107.5,24.1,107.5,24z"/>
	<path class="st4" d="M55,45.5c0.1,0.5,0.5,0.8,1,0.8c0.1,0,0.2,0,0.3,0c0.3-0.1,0.5-0.2,0.6-0.5c0.1-0.2,0.1-0.4,0.1-0.5
		c0-0.1,0-0.2,0-0.3l-5.4-20c-0.1-0.3-0.2-0.5-0.5-0.6c-0.2-0.1-0.3-0.1-0.5-0.1c-0.1,0-0.2,0-0.3,0c-0.3,0.1-0.5,0.2-0.6,0.5
		c-0.1,0.1-0.2,0.3-0.2,0.5c0,0.1,0,0.2,0,0.3L55,45.5z"/>
	<path class="st4" d="M34.7,43.7c0.3,0,0.6,0,0.8-0.1c0.9-0.2,1.4-0.4,1.8-0.5c0.1,0,0.1,0,0.2,0c0.1,0,0.1,0,0.1-0.1
		c0,0,0-0.1,0-0.2L36,36.7c0-0.1-0.1-0.2-0.2-0.2c0,0,0,0,0,0c-0.1,0-0.1,0-0.2,0l-0.2,0c-0.4,0.1-0.8,0.2-1.6,0.4
		c-0.8,0.2-1.5,0.8-2,1.5c-0.3,0.5-0.4,1.1-0.4,1.6c0,0.3,0,0.6,0.1,1C31.9,42.6,33.2,43.7,34.7,43.7z"/>
	<path class="st4" d="M39.4,42.5C39.4,42.5,39.4,42.5,39.4,42.5c0.2,0,0.3,0,0.4-0.1c2-0.4,3.9-0.6,5.7-0.6c2.5,0,4.8,0.4,6.8,1.2
		c0,0,0.1,0,0.1,0c0,0,0.1,0,0.1-0.1c0.1-0.1,0.1-0.1,0.1-0.2l-3.6-13.6c0-0.1-0.1-0.1-0.2-0.1c0,0,0,0,0,0c-0.1,0-0.1,0-0.2,0.1
		c-2.3,3-5.9,5.3-10.5,6.8c-0.1,0-0.2,0.1-0.3,0.1c-0.1,0-0.2,0.2-0.2,0.3l1.6,6.1C39.2,42.4,39.3,42.5,39.4,42.5z"/>
	<path class="st4" d="M88.3,39.4c-0.1,0-0.1,0-0.2,0.1l-21,36.4c0,0,0,0.1,0,0.2c0,0.1,0,0.1,0.1,0.1l2.5,1.4c0,0,0.1,0,0.1,0
		c0.1,0,0.1,0,0.2-0.1l21-36.4c0,0,0-0.1,0-0.2c0-0.1,0-0.1-0.1-0.1l-2.5-1.4C88.3,39.4,88.3,39.4,88.3,39.4z"/>
	<path class="st4" d="M74,80.1C74,80.1,74,80.1,74,80.1c0.1,0,0.1-0.1,0.2-0.1l21-36.4c0,0,0-0.1,0-0.2c0-0.1,0-0.1-0.1-0.1
		l-2.5-1.4c0,0-0.1,0-0.1,0c-0.1,0-0.1,0-0.2,0.1l-21,36.4c-0.1,0.1,0,0.2,0.1,0.3l2.5,1.4C73.9,80.1,73.9,80.1,74,80.1z"/>
	<path class="st4" d="M66.8,77.9C66.8,77.9,66.7,78,66.8,77.9c-0.2,0.1-0.2,0.1-0.2,0.2L66.3,85c0,0.1,0,0.1,0.1,0.2
		c0,0,0.1,0,0.1,0c0,0,0.1,0,0.1,0l5.8-3.6c0.1,0,0.1-0.1,0.1-0.2c0-0.1,0-0.1-0.1-0.2L66.9,78C66.9,78,66.8,77.9,66.8,77.9z"/>
	<path class="st6" d="M96,41.9c0.1,0,0.1,0,0.2-0.1l2.3-4c0.2-0.4,0.3-0.9,0.2-1.4s-0.4-0.9-0.9-1.1l-3.9-2.3
		c-0.3-0.2-0.6-0.2-0.9-0.2c-0.2,0-0.3,0-0.5,0.1c-0.5,0.1-0.9,0.4-1.1,0.9l-2.3,4c-0.1,0.1,0,0.2,0.1,0.3l6.7,3.9
		C95.9,41.9,96,41.9,96,41.9z"/>
	<path class="st5" d="M45.7,7.9c0.8,0,1.5-0.7,1.5-1.5c0-0.8-0.7-1.5-1.5-1.5c-0.8,0-1.5,0.7-1.5,1.5C44.2,7.2,44.9,7.9,45.7,7.9z"
		/>
	<path class="st5" d="M37.1,58.7c-0.2,0-0.3,0.1-0.5,0.2L30,63.8c0,0-0.1,0-0.1,0c0,0,0,0,0,0c-0.1,0-0.1,0-0.1-0.1L27.8,61
		c-0.2-0.2-0.4-0.4-0.7-0.4c-0.2,0-0.3,0.1-0.5,0.1c-0.2,0.2-0.4,0.4-0.4,0.7c0,0.2,0.1,0.3,0.1,0.5c0,0,0,0,0,0l2.5,3.6
		c0.1,0.2,0.3,0.3,0.5,0.4c0,0,0.1,0,0.1,0c0,0,0,0,0,0c0.2,0,0.4-0.1,0.5-0.2l7.4-5.5c0.2-0.2,0.3-0.4,0.3-0.7
		c0-0.2-0.1-0.4-0.2-0.5C37.6,58.9,37.3,58.7,37.1,58.7z"/>
	<path class="st5" d="M58.4,86.2H44.3c-0.5,0-0.8,0.4-0.8,0.8c0,0.5,0.4,0.8,0.8,0.8h14.2c0.5,0,0.8-0.4,0.8-0.8
		S58.9,86.2,58.4,86.2z"/>
	<path class="st5" d="M37.1,79.5c-0.2,0-0.3,0.1-0.5,0.2L30,84.5c0,0-0.1,0-0.1,0c0,0,0,0,0,0c-0.1,0-0.1,0-0.1-0.1l-1.9-2.7
		c-0.2-0.2-0.4-0.4-0.7-0.4c-0.2,0-0.3,0.1-0.5,0.2c-0.2,0.2-0.4,0.4-0.4,0.7c0,0.2,0.1,0.3,0.1,0.5l2.5,3.6
		c0.1,0.2,0.3,0.3,0.5,0.4c0,0,0.2,0,0.2,0c0.2,0,0.4-0.1,0.5-0.2l7.4-5.5c0.2-0.2,0.3-0.4,0.3-0.7c0-0.2-0.1-0.3-0.2-0.5
		C37.6,79.6,37.3,79.5,37.1,79.5z"/>
	<path class="st5" d="M59.4,80.3H44.3c-0.5,0-0.8,0.4-0.8,0.8c0,0.5,0.4,0.8,0.8,0.8h15.1c0.5,0,0.8-0.4,0.8-0.8
		C60.2,80.7,59.9,80.3,59.4,80.3z"/>
	<path class="st5" d="M34.7,45.3C34.7,45.3,34.7,45.3,34.7,45.3c0.1,0,0.1,0,0.2,0.1l4.3,7.4c0.4,0.7,1.1,1.2,1.8,1.4
		c0.3,0.1,0.5,0.1,0.8,0.1c0.5,0,1-0.1,1.5-0.4c0.7-0.4,1.2-1.1,1.4-1.8c0.1-0.3,0.1-0.5,0.1-0.8c0-0.5-0.1-1.1-0.4-1.5l-3.3-5.7
		c0-0.1,0-0.1,0-0.2c0-0.1,0.1-0.1,0.1-0.1c1.4-0.2,2.8-0.4,4.1-0.4c3,0,5.7,0.6,7.8,1.8c0,0,0.1,0.1,0.1,0.1l0.1,0.5
		c0.3,1.2,1.4,2,2.6,2c0.2,0,0.5,0,0.7-0.1c0.7-0.2,1.3-0.6,1.6-1.3c0.2-0.4,0.4-0.9,0.4-1.4c0-0.2,0-0.5-0.1-0.7L56.9,38
		c0-0.1,0-0.2,0.1-0.2l1.2-0.7c0.7-0.4,1.1-1.2,1.1-2c0-0.2,0-0.4-0.1-0.6l-0.4-1.6c-0.3-1-1.2-1.7-2.2-1.7l-1.4,0
		c-0.1,0-0.2-0.1-0.2-0.2l-1.7-6.5c-0.2-0.7-0.6-1.3-1.3-1.7c-0.4-0.2-0.9-0.4-1.4-0.4c-0.2,0-0.5,0-0.7,0.1
		c-0.7,0.2-1.3,0.6-1.7,1.3c-0.2,0.4-0.4,0.9-0.4,1.3c0,0.2,0,0.5,0.1,0.7l0.1,0.5c0,0.1,0,0.1,0,0.2c-2,3.3-5.7,6-10.7,7.6
		c-1.3,0.4-1.7,0.5-2.4,0.7c-0.4,0.1-0.9,0.2-1.8,0.4c-1.3,0.3-2.3,1.2-3,2.3c-0.4,0.8-0.6,1.6-0.6,2.5c0,0.5,0.1,0.9,0.2,1.4
		C30.5,43.8,32.4,45.3,34.7,45.3z M42.9,50.7c0.1,0.2,0.2,0.4,0.2,0.7c0,0.1,0,0.2,0,0.4c-0.1,0.3-0.3,0.6-0.6,0.8
		c-0.2,0.1-0.4,0.2-0.7,0.2c-0.1,0-0.2,0-0.4,0c-0.3-0.1-0.6-0.3-0.8-0.6l-3.9-6.8c0-0.1,0-0.1,0-0.2c0-0.1,0.1-0.1,0.1-0.1
		c0.4-0.1,0.7-0.2,1.1-0.3c0.4-0.1,0.7-0.2,1.2-0.3c0,0,0,0,0,0c0.1,0,0.1,0,0.2,0.1L42.9,50.7z M55.6,33c0,0,0.1-0.1,0.2-0.1
		c0,0,0.8,0,0.8,0c0.3,0,0.5,0.2,0.6,0.5l0.4,1.6c0,0.1,0,0.1,0,0.2c0,0.2-0.1,0.4-0.3,0.5l-0.7,0.4c0,0-0.1,0-0.1,0
		c0,0-0.1,0-0.1,0c-0.1,0-0.1-0.1-0.1-0.1l-0.8-2.8C55.6,33.1,55.6,33,55.6,33z M49.8,24.8c0.1-0.2,0.4-0.4,0.6-0.5
		c0.1,0,0.2,0,0.3,0c0.2,0,0.4,0.1,0.5,0.1c0.2,0.1,0.4,0.4,0.5,0.6L57,45c0,0.1,0,0.2,0,0.3c0,0.2-0.1,0.4-0.1,0.5
		c-0.1,0.2-0.4,0.4-0.6,0.5c-0.1,0-0.2,0-0.3,0c-0.5,0-0.9-0.3-1-0.8l-5.4-20c0-0.1,0-0.2,0-0.3C49.6,25.1,49.7,24.9,49.8,24.8z
		 M37.8,35.9c0.1,0,0.2,0,0.3-0.1c4.6-1.5,8.2-3.8,10.5-6.8c0,0,0.1-0.1,0.2-0.1c0,0,0,0,0,0c0.1,0,0.1,0.1,0.2,0.1l3.6,13.6
		c0,0.1,0,0.2-0.1,0.2c0,0-0.1,0.1-0.1,0.1c0,0-0.1,0-0.1,0c-2-0.8-4.3-1.2-6.8-1.2c-1.8,0-3.7,0.2-5.7,0.6c-0.1,0-0.2,0.1-0.3,0.1
		c0,0,0,0,0,0c-0.1,0-0.2-0.1-0.2-0.2l-1.6-6.1C37.5,36.1,37.7,36,37.8,35.9z M31.8,38.5c0.4-0.8,1.1-1.3,2-1.5
		c0.8-0.2,1.2-0.3,1.6-0.4l0.2,0c0.1,0,0.1,0,0.2,0c0,0,0,0,0,0c0.1,0,0.2,0.1,0.2,0.2l1.6,6.1c0,0.1,0,0.1,0,0.2
		c0,0-0.1,0.1-0.1,0.1c0,0-0.1,0-0.2,0c-0.4,0.1-0.9,0.3-1.8,0.5c-0.3,0.1-0.6,0.1-0.8,0.1c-1.5,0-2.8-1-3.2-2.6
		c-0.1-0.3-0.1-0.6-0.1-1C31.4,39.6,31.5,39,31.8,38.5z"/>
	<path class="st5" d="M26.2,69.3h5.8c1.6,0,2.9-1.3,2.9-2.9v-0.5c0-0.5-0.4-0.8-0.8-0.8c-0.5,0-0.8,0.4-0.8,0.8v0.5
		c0,0.7-0.6,1.3-1.3,1.3h-5.8c-0.7,0-1.3-0.6-1.3-1.3v-5.8c0-0.7,0.6-1.3,1.3-1.3h5.8c0.2,0,0.3,0,0.5,0.1c0.1,0,0.2,0.1,0.3,0.1
		c0.3,0,0.6-0.2,0.8-0.5c0,0,0,0,0,0c0-0.1,0-0.2,0-0.3c0-0.3-0.2-0.6-0.5-0.8c-0.3-0.1-0.7-0.2-1.1-0.2h-5.8
		c-1.6,0-2.9,1.3-2.9,2.9v5.8C23.3,68,24.6,69.3,26.2,69.3z"/>
	<path class="st5" d="M26.2,90h5.8c1.6,0,2.9-1.3,2.9-2.9v-0.5c0-0.5-0.4-0.8-0.8-0.8s-0.8,0.4-0.8,0.8V87c0,0.7-0.6,1.3-1.3,1.3
		h-5.8c-0.7,0-1.3-0.6-1.3-1.3v-5.8c0-0.7,0.6-1.3,1.3-1.3h5.8c0.2,0,0.3,0,0.5,0.1c0.1,0,0.2,0.1,0.3,0.1c0.3,0,0.6-0.2,0.8-0.5
		c0-0.1,0.1-0.2,0.1-0.3c0-0.3-0.2-0.6-0.5-0.8c-0.4-0.1-0.7-0.2-1.1-0.2h-5.8c-1.6,0-2.9,1.3-2.9,2.9V87C23.3,88.7,24.6,90,26.2,90
		z"/>
	<path class="st5" d="M61.2,32.9c0,0.1,0,0.1,0,0.2c0.1,0.4,0.4,0.6,0.8,0.6c0.1,0,0.1,0,0.2,0l4.2-1.1c0.4-0.1,0.6-0.4,0.6-0.8
		c0-0.1,0-0.1,0-0.2c-0.1-0.4-0.4-0.6-0.8-0.6c-0.1,0-0.1,0-0.2,0l-4.2,1.1C61.4,32.2,61.2,32.6,61.2,32.9z"/>
	<path class="st5" d="M43.4,60.5c0,0.5,0.4,0.8,0.8,0.8h23c0.5,0,0.8-0.4,0.8-0.8c0-0.5-0.4-0.8-0.8-0.8h-23
		C43.8,59.6,43.4,60,43.4,60.5z"/>
	<path class="st5" d="M64.7,41.2c0.1,0.1,0.3,0.1,0.4,0.1c0.3,0,0.6-0.2,0.7-0.4c0.1-0.1,0.1-0.3,0.1-0.4c0-0.3-0.2-0.6-0.4-0.7
		l-3.8-2.2c-0.1-0.1-0.3-0.1-0.4-0.1c-0.3,0-0.6,0.2-0.7,0.4c-0.1,0.1-0.1,0.3-0.1,0.4c0,0.3,0.2,0.6,0.4,0.7L64.7,41.2z"/>
	<path class="st5" d="M44.3,67.2h14.2c0.5,0,0.8-0.4,0.8-0.8s-0.4-0.8-0.8-0.8H44.3c-0.5,0-0.8,0.4-0.8,0.8S43.8,67.2,44.3,67.2z"/>
	<path class="st5" d="M58.3,29.4c0.1,0.1,0.3,0.1,0.4,0.1c0.3,0,0.6-0.2,0.7-0.4l2.2-3.8c0.1-0.1,0.1-0.3,0.1-0.4
		c0-0.3-0.2-0.6-0.4-0.7C61.2,24,61,24,60.9,24c-0.3,0-0.6,0.2-0.7,0.3c0,0,0,0.1,0,0.1L58,28.2c-0.1,0.1-0.1,0.3-0.1,0.4
		C57.9,28.9,58,29.2,58.3,29.4z"/>
	<path class="st5" d="M109.2,23.7c0-0.1,0-0.2,0-0.2c-0.4-3.5-3.3-6.2-6.8-6.2H82.4c-0.7-5-5-8.8-10.2-8.8H59.4
		c-0.1,0-0.2,0-0.2-0.1c-0.7-1.4-2.1-2.3-3.6-2.3h-2.8c-0.1,0-0.2-0.1-0.2-0.2C52.1,2.5,49.1,0,45.7,0c-3.4,0-6.4,2.5-6.8,5.9
		c0,0.1-0.1,0.2-0.2,0.2h-2.8c-1.5,0-3,0.9-3.6,2.3c0,0.1-0.1,0.1-0.2,0.1H19.2C14,8.5,9.7,12.4,9,17.4H6.9c-3.5,0-6.5,2.7-6.8,6.2
		l0,0.3c0,0.1,0,0.2,0,0.4v80.1c0,3.8,3.1,6.9,6.9,6.9h95.5c3.8,0,6.9-3.1,6.9-6.9V24.2c0-0.1,0-0.2,0-0.4L109.2,23.7z M71.4,78.6
		c-0.1-0.1-0.1-0.2-0.1-0.3l21-36.4c0-0.1,0.1-0.1,0.2-0.1c0,0,0.1,0,0.1,0l2.5,1.4c0,0,0.1,0.1,0.1,0.1c0,0.1,0,0.1,0,0.2L74.2,80
		c0,0-0.1,0.1-0.1,0.1c0,0,0,0-0.1,0c0,0-0.1,0-0.1,0L71.4,78.6z M72.5,81.3c0,0.1,0,0.1-0.1,0.2l-5.8,3.6c0,0-0.1,0-0.1,0
		c0,0-0.1,0-0.1,0c-0.1,0-0.1-0.1-0.1-0.2l0.3-6.8c0-0.1,0-0.1,0.1-0.2c0,0,0.1,0,0.1,0c0,0,0.1,0,0.1,0l5.5,3.2
		C72.5,81.2,72.5,81.3,72.5,81.3z M89.2,38c-0.1-0.1-0.1-0.2-0.1-0.3l2.3-4c0.2-0.4,0.6-0.7,1.1-0.9c0.2,0,0.3-0.1,0.5-0.1
		c0.3,0,0.6,0.1,0.9,0.2l3.9,2.3c0.4,0.2,0.7,0.6,0.9,1.1s0.1,1-0.2,1.4l-2.3,4c0,0.1-0.1,0.1-0.2,0.1c0,0-0.1,0-0.1,0L89.2,38z
		 M90.8,40.9c0,0,0.1,0.1,0.1,0.1c0,0.1,0,0.1,0,0.2l-21,36.4c0,0.1-0.1,0.1-0.2,0.1c0,0-0.1,0-0.1,0l-2.5-1.4c0,0-0.1-0.1-0.1-0.1
		c0-0.1,0-0.1,0-0.2l21-36.4c0-0.1,0.1-0.1,0.2-0.1c0,0,0.1,0,0.1,0L90.8,40.9z M59.5,10.4c0-0.1,0.1-0.2,0.2-0.2h12.5
		c4.8,0,8.7,3.9,8.7,8.7v29.7c0,0,0,0.1,0,0.1l-3,5.2c0,0.1-0.1,0.1-0.2,0.1c0,0,0,0-0.1,0c-0.1,0-0.2-0.1-0.2-0.2V18.9
		c0-2.9-2.4-5.3-5.3-5.3H59.7c-0.1,0-0.2-0.1-0.2-0.2V10.4z M33.5,10.1c0-1.3,1-2.3,2.3-2.3h3.7c0.5,0,0.8-0.4,0.8-0.8
		c0-2.9,2.4-5.3,5.3-5.3C48.6,1.7,51,4,51,6.9c0,0.5,0.4,0.8,0.8,0.8h3.7c1.3,0,2.3,1,2.3,2.3v3.6c0,1.3-1,2.3-2.3,2.3H35.9
		c-1.3,0-2.3-1-2.3-2.3V10.1z M32.3,15.4c0.6,1.4,2.1,2.3,3.6,2.3h19.7c1.5,0,3-0.9,3.6-2.3c0-0.1,0.1-0.1,0.2-0.1h12.9
		c2,0,3.6,1.6,3.6,3.6v38.5c0,0,0,0.1,0,0.1L65.1,76C65,76.1,65,76.2,65,76.4l-0.3,8.8c0,0.6,0.3,1.3,0.9,1.6
		c0.3,0.2,0.6,0.2,0.9,0.2c0.3,0,0.7-0.1,0.9-0.3l7.4-4.6c0.1-0.1,0.2-0.2,0.3-0.3l0.4-0.6c0-0.1,0.1-0.1,0.2-0.1c0,0,0,0,0.1,0
		c0.1,0,0.2,0.1,0.2,0.2v10.1c0,2-1.6,3.6-3.6,3.6h-53c-2,0-3.6-1.6-3.6-3.6V18.9c0-2,1.6-3.6,3.6-3.6h12.9
		C32.2,15.3,32.2,15.3,32.3,15.4z M10.5,18.9c0-4.8,3.9-8.7,8.7-8.7h12.5c0.1,0,0.2,0.1,0.2,0.2v3c0,0.1-0.1,0.2-0.2,0.2H19.2
		c-2.9,0-5.3,2.4-5.3,5.3v72.4c0,2.9,2.4,5.3,5.3,5.3h53c2.9,0,5.3-2.4,5.3-5.3V77.6c0,0,0-0.1,0-0.1l3-5.2c0-0.1,0.1-0.1,0.2-0.1
		c0,0,0,0,0.1,0c0.1,0,0.2,0.1,0.2,0.2v18.8c0,4.8-3.9,8.7-8.7,8.7h-53c-4.8,0-8.7-3.9-8.7-8.7V18.9z M107.5,41v49.8l0,13.5
		c0,2.7-2.2,5-4.9,5.1c0,0-0.1,0-0.1,0l-95.5,0l-0.1,0c-2.7-0.1-4.9-2.4-4.9-5.1l0-13.5l0-49.8l0-0.8l0-16c0-0.1,0-0.2,0-0.3
		c0-0.1,0-0.2,0-0.3c0,0,0-0.1,0-0.2l0.1-0.3c0.5-2.3,2.6-4,5-4h2v72.1c0,5.7,4.6,10.3,10.3,10.3h53c5.7,0,10.3-4.6,10.3-10.3V68.8
		c0,0,0-0.1,0-0.1l17.4-30.1c1-1.7,0.4-3.8-1.3-4.8l-3.9-2.3c-0.5-0.3-1.1-0.5-1.7-0.5c-0.3,0-0.6,0-0.9,0.1
		c-0.9,0.2-1.7,0.8-2.1,1.6l-7,12.2c0,0.1-0.1,0.1-0.2,0.1c0,0,0,0-0.1,0c-0.1,0-0.2-0.1-0.2-0.2V19.2h19.8c2.4,0,4.5,1.7,5,4
		c0,0.1,0,0.2,0,0.3l0,0.2c0,0,0,0.3,0,0.3c0,0.1,0,0.2,0,0.3l0,15.9L107.5,41z"/>
</g>
</svg>
