<?xml version="1.0" encoding="utf-8"?>
<!-- Generator: Adobe Illustrator 24.3.0, SVG Export Plug-In . SVG Version: 6.00 Build 0)  -->
<svg version="1.1" id="Layer_1" xmlns="http://www.w3.org/2000/svg" xmlns:xlink="http://www.w3.org/1999/xlink" x="0px" y="0px"
	 viewBox="0 0 115.98 129.9" style="enable-background:new 0 0 115.98 129.9;" xml:space="preserve">
<style type="text/css">
	.st0{fill:#00B0FB;stroke:#FFFFFF;stroke-width:3;stroke-miterlimit:10;}
	.st1{fill:#001135;}
	.st2{fill:#FFFFFF;}
	.st3{fill:#3C7CFF;}
</style>
<g>
	<path class="st1" d="M93.3,41.34c1.52,3.32,3.24,6.49,4.44,9.85c7.22,20.21-2.62,43.16-22.14,52.01
		c-5.75,2.6-11.74,3.86-18.04,3.86c-15.71-0.01-31.41-0.02-47.12,0.02c-1.3,0-2.19-0.39-2.96-1.44c-1.56-2.14-3.2-4.23-4.86-6.29
		c-0.84-1.04-0.82-1.95,0.01-2.98c1.66-2.06,3.3-4.15,4.87-6.29c0.77-1.04,1.66-1.48,2.96-1.46c3.55,0.06,7.11,0.02,10.66,0.02
		c0.56,0,1.11,0,1.58,0c-1.56-3.41-3.27-6.58-4.49-9.93c-6.2-17.06,0.15-37.18,14.91-47.74c7.33-5.25,15.47-8.07,24.49-8.1
		c16.08-0.05,32.15-0.04,48.23,0.02c0.78,0,1.77,0.46,2.28,1.04c1.84,2.12,3.5,4.39,5.26,6.58c0.73,0.91,0.82,1.76,0.08,2.72
		c-1.82,2.34-3.54,4.77-5.46,7.03c-0.49,0.58-1.54,0.93-2.34,0.95c-3.66,0.1-7.32,0.04-10.98,0.05
		C94.17,41.27,93.66,41.32,93.3,41.34z M44.57,88.47c-0.56-0.39-0.89-0.62-1.22-0.84c-13.8-9.05-16.56-27.84-5.82-40.25
		c5.44-6.29,12.43-9.41,20.74-9.43c15.33-0.04,30.67,0,46-0.03c0.62,0,1.47-0.15,1.82-0.56c1.47-1.72,2.8-3.57,4.21-5.41
		c-1.42-1.8-2.71-3.55-4.13-5.19c-0.34-0.4-1.08-0.63-1.63-0.63c-15.92-0.03-31.84-0.05-47.76,0.02c-4.27,0.02-8.44,0.87-12.4,2.47
		c-14.03,5.68-22.45,15.99-24.82,30.92c-1.62,10.19,0.89,19.57,6.85,27.99c0.37,0.52,1.14,1.05,1.73,1.06
		c5.15,0.08,10.29,0.05,15.44,0.04C43.83,88.64,44.06,88.56,44.57,88.47z M71.75,41.27c-0.04,0.11-0.08,0.21-0.13,0.32
		c0.33,0.23,0.66,0.46,1,0.68c13.24,8.73,16.41,26.28,6.9,38.89C74.17,88.25,66.88,91.88,58,91.94c-15.39,0.1-30.77,0.02-46.16,0.05
		c-0.64,0-1.54,0.04-1.89,0.43c-1.52,1.74-2.88,3.62-4.29,5.45c1.4,1.82,2.65,3.54,4.02,5.15c0.37,0.44,1.14,0.75,1.73,0.75
		c15.92,0.03,31.84,0.05,47.75-0.01c4.21-0.02,8.34-0.83,12.26-2.41c14.03-5.64,22.5-15.9,24.93-30.84
		c1.67-10.25-0.86-19.67-6.82-28.15c-0.35-0.49-1.04-1.04-1.58-1.05C82.56,41.24,77.15,41.27,71.75,41.27z M81.66,64.93
		C81.64,51.8,71.13,41.3,58,41.28C44.87,41.27,34.35,51.76,34.31,64.9c-0.04,13.17,10.59,23.79,23.74,23.73
		C71.19,88.57,81.68,78.04,81.66,64.93z"/>
	<path class="st1" d="M13.33,20.53c-2.02,0-4.03,0-6.05,0c-1.1,0-1.93-0.43-1.93-1.62c0-1.18,0.83-1.68,1.91-1.68
		c4.08-0.02,8.17-0.03,12.25,0.01c1.07,0.01,1.86,0.52,1.83,1.74c-0.03,1.15-0.79,1.55-1.81,1.56
		C17.46,20.54,15.39,20.52,13.33,20.53z"/>
	<path class="st1" d="M13.23,28.02c-1.96,0-3.93,0.01-5.89,0c-1.17,0-2.02-0.5-1.99-1.76c0.03-1.19,0.89-1.55,1.99-1.54
		c4.03,0.02,8.07,0.01,12.1,0c1.11,0,1.9,0.4,1.89,1.62c-0.01,1.2-0.8,1.66-1.89,1.67C17.37,28.03,15.3,28.02,13.23,28.02z"/>
	<path class="st1" d="M100.57,105.19c-1.96,0-3.91-0.01-5.87,0c-1.13,0.01-2.07-0.27-2.08-1.6c-0.01-1.28,0.86-1.71,2.01-1.71
		c3.97,0,7.94,0,11.9,0c1.14,0,2.05,0.4,2.09,1.64c0.04,1.29-0.87,1.67-2.02,1.66C104.59,105.18,102.58,105.19,100.57,105.19z"/>
	<path class="st1" d="M100.7,109.4c1.96,0,3.93,0,5.89,0c1.06,0,1.98,0.29,2.03,1.51c0.05,1.28-0.84,1.76-1.98,1.77
		c-4.03,0.02-8.07,0.02-12.1,0c-1.05-0.01-1.92-0.4-1.93-1.63c-0.01-1.35,0.91-1.65,2.04-1.65C96.67,109.4,98.68,109.4,100.7,109.4z
		"/>
	<path class="st2" d="M44.57,88.47c-0.51,0.09-0.75,0.17-0.98,0.17c-5.15,0.01-10.29,0.04-15.44-0.04
		c-0.59-0.01-1.36-0.54-1.73-1.06c-5.96-8.42-8.47-17.81-6.85-27.99c2.37-14.93,10.79-25.25,24.82-30.92
		c3.96-1.6,8.14-2.45,12.4-2.47c15.92-0.07,31.84-0.04,47.76-0.02c0.56,0,1.29,0.24,1.63,0.63c1.42,1.64,2.71,3.38,4.13,5.19
		c-1.41,1.84-2.74,3.69-4.21,5.41c-0.35,0.41-1.2,0.56-1.82,0.56c-15.33,0.03-30.67,0-46,0.03c-8.31,0.02-15.3,3.14-20.74,9.43
		c-10.73,12.41-7.98,31.2,5.82,40.25C43.69,87.85,44.01,88.08,44.57,88.47z"/>
	<path class="st2" d="M71.75,41.27c5.41,0,10.81-0.03,16.22,0.05c0.54,0.01,1.23,0.56,1.58,1.05c5.97,8.48,8.49,17.9,6.82,28.15
		c-2.43,14.93-10.91,25.2-24.93,30.84c-3.92,1.57-8.05,2.39-12.26,2.41c-15.92,0.06-31.84,0.04-47.75,0.01
		c-0.59,0-1.36-0.32-1.73-0.75c-1.38-1.61-2.62-3.33-4.02-5.15c1.42-1.83,2.77-3.71,4.29-5.45c0.35-0.4,1.24-0.43,1.89-0.43
		c15.39-0.02,30.78,0.05,46.16-0.05c8.88-0.06,16.17-3.69,21.51-10.78c9.51-12.61,6.34-30.15-6.9-38.89c-0.34-0.22-0.66-0.45-1-0.68
		C71.66,41.48,71.71,41.38,71.75,41.27z"/>
	<path class="st1" d="M74.81,64.94c0.01,9.21-7.6,16.83-16.82,16.84c-9.21,0.01-16.84-7.61-16.85-16.81
		c-0.01-9.2,7.62-16.84,16.82-16.85C67.18,48.11,74.8,55.73,74.81,64.94z M44.46,64.76c-0.13,7.43,5.93,13.64,13.4,13.73
		c7.36,0.09,13.49-5.9,13.65-13.34c0.16-7.34-5.85-13.54-13.26-13.7C50.79,51.28,44.6,57.26,44.46,64.76z"/>
	<path class="st3" d="M44.46,64.76c0.13-7.49,6.33-13.48,13.79-13.32c7.41,0.16,13.42,6.37,13.26,13.7
		c-0.16,7.44-6.29,13.42-13.65,13.34C50.39,78.39,44.33,72.19,44.46,64.76z M57.14,64.71c-0.53-0.43-0.69-0.57-0.86-0.69
		c-0.84-0.64-1.69-0.67-2.39,0.14c-0.72,0.84-0.42,1.66,0.3,2.38c0.41,0.41,0.83,0.81,1.23,1.23c0.94,0.99,1.9,1.04,2.88,0.07
		c1.16-1.15,2.32-2.31,3.47-3.47c0.76-0.77,1.06-1.64,0.2-2.49c-0.84-0.83-1.74-0.63-2.49,0.17C58.68,62.88,57.95,63.78,57.14,64.71
		z"/>
	<path class="st1" d="M57.14,64.71c0.82-0.94,1.55-1.83,2.34-2.67c0.75-0.8,1.65-1,2.49-0.17c0.86,0.85,0.56,1.72-0.2,2.49
		c-1.15,1.16-2.3,2.32-3.47,3.47c-0.98,0.96-1.94,0.91-2.88-0.07c-0.4-0.42-0.82-0.82-1.23-1.23c-0.72-0.72-1.02-1.54-0.3-2.38
		c0.7-0.81,1.55-0.78,2.39-0.14C56.45,64.15,56.6,64.28,57.14,64.71z"/>
</g>
</svg>
