<?xml version="1.0" encoding="utf-8"?>
<!-- Generator: Adobe Illustrator 25.0.0, SVG Export Plug-In . SVG Version: 6.00 Build 0)  -->
<svg version="1.1" id="Layer_1" xmlns="http://www.w3.org/2000/svg" xmlns:xlink="http://www.w3.org/1999/xlink" x="0px" y="0px"
	 viewBox="0 0 131.25 173" style="enable-background:new 0 0 131.25 173;" xml:space="preserve">
<style type="text/css">
	.st0{fill:#185AE9;}
	.st1{fill:#00B0FB;}
	.st2{fill-rule:evenodd;clip-rule:evenodd;fill:#00B0FB;}
	.st3{fill:none;}
	.st4{fill:#00B0FB;fill-opacity:0.4;}
	.st5{fill:#FFFFFF;}
	.st6{fill:#3C7CFF;}
	.st7{fill:#001135;}
	.st8{fill:#8DB849;}
	.st9{fill:#5A863E;}
	.st10{fill:#FFFFFE;}
	.st11{fill:#009CDE;}
	.st12{fill:#FCB415;}
	.st13{opacity:0.2;fill:#FFFFFF;enable-background:new    ;}
	.st14{fill:#68B345;}
	.st15{fill:#0A99D6;}
	.st16{opacity:0.1;fill:#010101;enable-background:new    ;}
	.st17{fill:#EE3325;}
	.st18{fill:url(#SVGID_2_);}
	.st19{fill:#B3B3B3;}
	.st20{fill:#A6120D;}
	.st21{fill:#DD1B16;}
	.st22{fill:#F2F2F2;}
	.st23{fill:#FF2D20;}
	.st24{clip-path:url(#SVGID_3_);fill:#F9C638;}
	.st25{fill:#2A2D2C;}
	.st26{fill:#F9C638;}
	.st27{fill:#FDFDFD;}
	.st28{fill:#DBDBDB;}
	.st29{fill:#FBFBFB;}
	.st30{fill:#121212;}
	.st31{fill:#FCFCFC;}
	.st32{fill:#D2D3D3;}
	.st33{fill:#F6F6F6;}
	.st34{fill:#BABBBB;}
	.st35{fill:#8A8A8A;}
	.st36{fill:#8E8F8F;}
	.st37{fill:#5F5E5E;}
	.st38{fill:#00769D;}
	.st39{clip-path:url(#SVGID_4_);fill:#F9C638;}
	.st40{fill:#92003B;}
</style>
<path class="st11" d="M92.91,36.47C80.75,24.62,69.22,13.09,65.79,0c-3.43,13.09-14.96,24.63-27.12,36.47
	C20.59,54.55,0.02,75.12,0.02,105.98c-0.94,36.16,28.05,66.39,64.21,67.01c36.16,0.62,66.39-28.05,67.01-64.21v-2.81
	C131.56,75.12,110.98,54.55,92.91,36.47L92.91,36.47z M33.68,111.9c-1.87,2.49-3.74,5.3-4.99,8.1c-0.31,0.31-0.62,0.94-1.25,0.94
	l-0.31,0c-1.56,0-3.12-2.81-3.12-2.81c-0.31-0.62-0.94-1.56-1.25-2.18l-0.31-0.62c-4.05-8.73-0.62-20.88-0.62-20.88
	c1.56-5.92,4.36-11.84,7.79-16.83c2.18-3.12,4.68-6.23,7.17-9.35l3.12,3.12l14.65,14.96c0.62,0.62,0.62,1.56,0,2.18l-15.27,17.14
	L33.68,111.9L33.68,111.9z M66.41,154.91c-12.47,0-22.75-10.29-22.44-22.75c0-5.61,2.18-10.91,5.61-14.96
	c4.68-5.61,10.6-11.22,17.14-18.7c7.48,8.1,12.47,13.4,17.14,19.64c0.31,0.31,0.62,0.94,0.94,1.56c2.49,3.74,4.05,8.1,4.05,12.78
	C89.17,144.94,78.88,154.91,66.41,154.91L66.41,154.91z M109.12,118.75c-0.31,0.94-1.25,1.56-2.18,1.87l-0.31,0
	c-0.94-0.31-1.56-0.94-2.18-1.56c-4.05-5.92-8.41-11.53-13.4-16.52l-5.92-6.23L65.17,75.74c-4.05-3.74-8.1-8.1-11.84-12.16
	c0-0.31-0.31-0.31-0.31-0.31c-0.62-0.94-1.25-1.87-1.56-3.12v-0.62c-0.62-3.43,0.62-6.86,3.12-9.35c3.74-3.74,7.79-7.79,11.53-11.84
	c4.05,4.36,8.41,8.73,12.78,13.09c8.73,8.1,16.52,17.14,23.69,26.81c5.92,8.41,9.04,18.08,9.04,28.36
	C110.99,110.34,110.36,114.7,109.12,118.75L109.12,118.75z"/>
</svg>
