<?xml version="1.0" encoding="utf-8"?>
<!-- Generator: Adobe Illustrator 24.3.0, SVG Export Plug-In . SVG Version: 6.00 Build 0)  -->
<svg version="1.1" id="Layer_1" xmlns="http://www.w3.org/2000/svg" xmlns:xlink="http://www.w3.org/1999/xlink" x="0px" y="0px"
	 width="650px" height="410.3px" viewBox="0 0 650 410.3" style="enable-background:new 0 0 650 410.3;" xml:space="preserve">
<style type="text/css">
	.st0{fill:#00C8FF;}
	.st1{fill-rule:evenodd;clip-rule:evenodd;fill:#00C8FF;}
	.st2{fill:#185AE9;}
	.st3{fill:#FFFFFF;}
	.st4{fill-rule:evenodd;clip-rule:evenodd;fill:#FFFFFF;}
	.st5{fill:#00B0FB;}
	.st6{fill:#00B0FB;fill-opacity:0.4;}
	.st7{fill:#E4ECF4;}
	.st8{fill:#FFE8A0;}
	.st9{fill:none;}
	.st10{fill:#0D0D0D;}
	.st11{fill-rule:evenodd;clip-rule:evenodd;fill:#00B0FB;}
	.st12{fill:#FAFBFF;}
	.st13{fill:#070707;}
	.st14{fill:#D9D9D9;filter:url(#Adobe_OpacityMaskFilter);}
	.st15{mask:url(#mask0_103_2708_1_);}
	.st16{fill-rule:evenodd;clip-rule:evenodd;fill:#DAB6E4;}
	.st17{stroke:#FFFFFF;stroke-width:2;}
	.st18{fill:#FFFFFF;stroke:#000000;stroke-width:2;}
	.st19{fill-rule:evenodd;clip-rule:evenodd;}
	.st20{stroke:#FFFFFF;}
	.st21{fill:#FFFFFF;filter:url(#Adobe_OpacityMaskFilter_1_);}
	.st22{mask:url(#path-22-inside-1_103_2708_1_);fill:#FFFFFF;}
	.st23{fill-rule:evenodd;clip-rule:evenodd;fill:#263238;}
	.st24{fill:#EFEFEF;}
	
		.st25{fill:none;stroke:#000000;stroke-width:10.01;stroke-linecap:round;stroke-linejoin:round;stroke-miterlimit:3.08;stroke-dasharray:70.84,70.84;}
	.st26{fill:#010000;}
	.st27{opacity:0.64;}
	.st28{fill:#F9F7F5;}
	.st29{fill:#D9D9D9;filter:url(#Adobe_OpacityMaskFilter_2_);}
	.st30{mask:url(#mask0_103_2310_1_);}
	.st31{fill:#FFFFFF;filter:url(#Adobe_OpacityMaskFilter_3_);}
	.st32{mask:url(#mask1_103_2310_1_);}
	.st33{fill:#E6E6E6;}
	.st34{fill:#FFFFFF;filter:url(#Adobe_OpacityMaskFilter_4_);}
	.st35{mask:url(#mask2_103_2310_1_);}
	.st36{fill:none;stroke:#000000;stroke-width:1.5;stroke-linecap:round;stroke-linejoin:round;stroke-miterlimit:10;}
	.st37{fill:#FFFFFF;filter:url(#Adobe_OpacityMaskFilter_5_);}
	.st38{mask:url(#mask3_103_2310_1_);}
	.st39{fill:#FFFFFF;filter:url(#Adobe_OpacityMaskFilter_6_);}
	.st40{mask:url(#mask4_103_2310_1_);}
	.st41{fill:#FFFFFF;filter:url(#Adobe_OpacityMaskFilter_7_);}
	.st42{mask:url(#mask5_103_2310_1_);}
	.st43{fill:#FFFFFF;filter:url(#Adobe_OpacityMaskFilter_8_);}
	.st44{mask:url(#mask6_103_2310_1_);}
	.st45{fill:#DBDBDB;}
	.st46{fill:#FFFFFF;filter:url(#Adobe_OpacityMaskFilter_9_);}
	.st47{mask:url(#mask7_103_2310_1_);}
	.st48{fill:#FFFFFF;filter:url(#Adobe_OpacityMaskFilter_10_);}
	.st49{mask:url(#mask8_103_2310_1_);}
	.st50{fill:#FFFFFF;filter:url(#Adobe_OpacityMaskFilter_11_);}
	.st51{mask:url(#mask9_103_2310_1_);}
	.st52{fill:#FFFFFF;filter:url(#Adobe_OpacityMaskFilter_12_);}
	.st53{mask:url(#mask10_103_2310_1_);}
	.st54{fill:#FFFFFF;filter:url(#Adobe_OpacityMaskFilter_13_);}
	.st55{mask:url(#mask11_103_2310_1_);}
	.st56{fill:#FFFFFF;filter:url(#Adobe_OpacityMaskFilter_14_);}
	.st57{mask:url(#mask12_103_2310_1_);}
	.st58{fill:#FFFFFF;stroke:#000000;}
	.st59{fill:#FFFFFF;filter:url(#Adobe_OpacityMaskFilter_15_);stroke:#FFFFFF;}
	.st60{mask:url(#mask13_103_2310_1_);}
	.st61{fill:#FFFFFF;filter:url(#Adobe_OpacityMaskFilter_16_);}
	.st62{mask:url(#path-55-inside-1_103_2310_1_);}
	.st63{fill:#FFFFFF;filter:url(#Adobe_OpacityMaskFilter_17_);}
	.st64{mask:url(#path-59-inside-2_103_2310_1_);fill:#FFFFFF;}
	.st65{fill:none;stroke:#FFFFFF;stroke-width:1.5;stroke-linecap:round;stroke-linejoin:round;stroke-miterlimit:10;}
	.st66{fill:#181818;}
	.st67{fill:#BEBEBE;}
	.st68{fill:#FEFEFE;}
	.st69{fill:none;stroke:#000000;stroke-width:2.1125;stroke-miterlimit:6.5;}
	.st70{fill:#3C7CFF;stroke:#001135;stroke-width:0.7602;stroke-miterlimit:10;}
	.st71{fill:#001135;}
	.st72{fill:#3C7CFF;}
	.st73{clip-path:url(#SVGID_1_);}
	.st74{fill:#FFFFFF;stroke:#001135;stroke-width:0.7602;stroke-miterlimit:10;}
	.st75{fill:none;stroke:#001135;stroke-width:0.7602;stroke-miterlimit:10;}
	.st76{fill:#001135;stroke:#001135;stroke-width:0.7602;stroke-miterlimit:10;}
	.st77{fill:#0F0D0E;}
	.st78{fill:#161415;}
	.st79{fill:#FCFCFC;}
	.st80{fill:#FBFBFB;}
	.st81{fill:#FAFAFA;}
	.st82{fill:#C1C1C1;}
	.st83{fill:#0E0E0E;}
	.st84{fill:#EFEEEE;}
	.st85{fill:#A8A8A8;}
	.st86{fill:#9A9A9B;}
	.st87{fill:#404040;}
	.st88{fill:#EDEDED;}
	.st89{fill:#E7E7E7;}
	.st90{fill:#9A9999;}
	.st91{fill:#D2D2D2;}
	.st92{fill:#AEAEAE;}
	.st93{fill:#8D8D8C;}
	.st94{fill:#B9BABC;}
	.st95{fill:#61605F;}
	.st96{fill:#A5A5A5;}
	.st97{fill:#B5B6B6;}
	.st98{fill:#1B1C1C;}
	.st99{fill:#171616;}
	.st100{fill:#161616;}
	.st101{fill:#0F0F0F;}
	.st102{fill:#F0F0F0;}
	.st103{fill:#EDEDEC;}
	.st104{fill:#EBEBEB;}
	.st105{fill:#EBEBEA;}
	.st106{fill:#ECECEC;}
	.st107{fill:#E9E9E9;}
	.st108{fill:#EBEAEA;}
	.st109{fill:#B9BAB9;}
	.st110{fill:#EDECEC;}
	.st111{fill:#EAEAEA;}
	.st112{fill:#1F1F1E;}
	.st113{fill:#1E1E1D;}
	.st114{fill:#202020;}
	.st115{fill:#1B1A1A;}
	.st116{fill:#1F1F20;}
	.st117{fill:#252424;}
	.st118{fill:#1F1E1E;}
	.st119{fill:#222121;}
	.st120{fill:#2B2B2B;}
	.st121{fill:#1E1E1E;}
	.st122{fill:#1F1F1F;}
	.st123{fill:#434242;}
	.st124{fill:#2C2C2C;}
	.st125{fill:#484848;}
	.st126{fill:#FDFDFD;}
	.st127{fill:#F4F4F3;}
	.st128{fill:#F2F2F2;}
	.st129{fill:#F3F3F3;}
	.st130{fill:#F1F1F1;}
	.st131{fill:#191918;}
	.st132{fill:#1A1A19;}
	.st133{fill:#1D1C1D;}
	.st134{fill:#1C1A1B;}
	.st135{fill:#1E1D1E;}
	.st136{fill:#212021;}
	.st137{fill:#1D1D1D;}
	.st138{fill:#1D1B1B;}
	.st139{fill:#1F1D1E;}
	.st140{fill:#1E1D1D;}
	.st141{fill:#FCFBFB;}
	.st142{fill:#080808;}
	.st143{fill:#020202;}
	.st144{fill:#030303;}
	.st145{fill:#060606;}
	.st146{fill:#040304;}
	.st147{fill:#040404;}
	.st148{fill:#050404;}
	.st149{fill:#030302;}
	.st150{fill:#0A0A0A;}
	.st151{fill:#020102;}
	.st152{fill:#090909;}
	.st153{fill:#0B0B0B;}
	.st154{fill:#010101;}
	.st155{fill:#030304;}
	.st156{fill:#F8F9F9;}
	.st157{fill:#F9F9F9;}
	.st158{fill:#F8F8F8;}
	.st159{fill:#F7F7F7;}
	.st160{fill:#F5F5F5;}
	.st161{fill:#E4E5E4;}
	.st162{fill:#D4D4D5;}
	.st163{fill:#A5A5A6;}
	.st164{fill:#222222;}
	.st165{fill:#161615;}
	.st166{fill:#C7C7C7;}
	.st167{fill:#626261;}
	.st168{fill:#D5D3D6;}
	.st169{fill:#090908;}
	.st170{fill:#F6F6F6;}
	.st171{fill:#232323;}
	.st172{fill:#5F5E5E;}
	.st173{fill:#080807;}
	.st174{fill:#C3C3C3;}
	.st175{fill:#050505;}
	.st176{fill:#191919;}
	.st177{fill:#1A1A1A;}
	.st178{fill:#151615;}
	.st179{fill:#0F0F0E;}
	.st180{fill:#1D1C1C;}
	.st181{fill:#1A1919;}
	.st182{fill:#1C1C1C;}
	.st183{fill:#201F20;}
	.st184{fill:#151616;}
	.st185{fill:#201F1F;}
	.st186{fill:#232424;}
	.st187{fill:#1E1F1F;}
	.st188{fill:#1E1E1F;}
	.st189{fill:#1B1B1B;}
	.st190{fill:#1B1A1C;}
	.st191{fill:#2A2A2A;}
	.st192{fill:#1C1B1D;}
	.st193{fill:#242324;}
	.st194{fill:#1B1A1B;}
	.st195{fill:#212121;}
	.st196{fill:#2A2A2B;}
	.st197{fill:#2B2A2B;}
	.st198{fill:#202021;}
	.st199{fill:#202121;}
	.st200{fill:#242424;}
	.st201{fill:#1D1D1E;}
	.st202{fill:#272728;}
	.st203{fill:#222122;}
	.st204{fill:#242323;}
	.st205{fill:#222223;}
	.st206{fill:#252526;}
	.st207{fill:#282828;}
	.st208{fill:#292829;}
	.st209{fill:#171817;}
	.st210{fill:#282829;}
	.st211{fill:#2A2B2B;}
	.st212{fill:#363536;}
	.st213{fill:#212122;}
	.st214{fill:#272727;}
	.st215{fill:#252525;}
	.st216{fill:#29292A;}
	.st217{fill:#1F1E1F;}
	.st218{fill:#2E2D2D;}
	.st219{fill:#313030;}
	.st220{fill:#404141;}
	.st221{fill:#2E2F2E;}
	.st222{fill:#242525;}
	.st223{fill:#2D2C2C;}
	.st224{fill:#2B2B2C;}
	.st225{fill:#4B4B4B;}
	.st226{fill:#2E2E2E;}
	.st227{fill:#2E2D2E;}
	.st228{fill:#2E2E2F;}
	.st229{fill:#2C2B2B;}
	.st230{fill:#272627;}
	.st231{fill:#323131;}
	.st232{fill:#282928;}
	.st233{fill:#323232;}
	.st234{fill:#262627;}
	.st235{fill:#2D2C2D;}
	.st236{fill:#333333;}
	.st237{fill:#2A292A;}
	.st238{fill:#141414;}
	.st239{fill:#303030;}
	.st240{fill:#2E2E2D;}
	.st241{fill:#363635;}
	.st242{fill:#4D4D4D;}
	.st243{fill:#373636;}
	.st244{fill:#292929;}
	.st245{fill:#3C3B3C;}
	.st246{fill:#161516;}
	.st247{fill:#393939;}
	.st248{fill:#373737;}
	.st249{fill:#252425;}
	.st250{fill:#383839;}
	.st251{fill:#313232;}
	.st252{fill:#323233;}
	.st253{fill:#2B2C2C;}
	.st254{fill:#343333;}
	.st255{fill:#2C2C2D;}
	.st256{fill:#3C3C3C;}
	.st257{fill:#070606;}
	.st258{fill:#454545;}
	.st259{fill:#3B3B3C;}
	.st260{fill:#30302F;}
	.st261{fill:#3C3C3D;}
	.st262{fill:#232223;}
	.st263{fill:#333433;}
	.st264{fill:#050405;}
	.st265{fill:#373637;}
	.st266{fill:#414141;}
	.st267{fill:#3C3B3D;}
	.st268{fill:#3D3C3D;}
	.st269{fill:#2F2E2E;}
	.st270{fill:#2B2A2A;}
	.st271{fill:#040303;}
	.st272{fill:#2C2A2B;}
	.st273{fill:#191A1A;}
	.st274{fill:#313130;}
	.st275{fill:#19191A;}
	.st276{fill:#444443;}
	.st277{fill:#303031;}
	.st278{fill:#4A4A4B;}
	.st279{fill:#353635;}
	.st280{fill:#030202;}
	.st281{fill:#010001;}
	.st282{fill:#343434;}
	.st283{fill:#060505;}
	.st284{fill:#151514;}
	.st285{fill:#040302;}
	.st286{fill:#111010;}
	.st287{fill:#5D5C5D;}
	.st288{fill:#353535;}
	.st289{fill:#262524;}
	.st290{fill:#020203;}
	.st291{fill:#030203;}
	.st292{fill:#3D3E3E;}
	.st293{fill:#222323;}
	.st294{fill:#272928;}
	.st295{fill:#343433;}
	.st296{fill:#131212;}
	.st297{fill:#111111;}
	.st298{fill:#0B0C0C;}
	.st299{fill:#121212;}
	.st300{fill:#949597;}
	.st301{fill:#494749;}
	.st302{fill:#F9F8F9;}
	.st303{fill:#E4E5E5;}
	.st304{fill:#C8C5C6;}
	.st305{fill:#E5E5E5;}
	.st306{fill:#B7B6B8;}
	.st307{fill:#D0D0D1;}
	.st308{fill:#E6E6E7;}
	.st309{fill:#D1D0D3;}
	.st310{fill:#F6F7F7;}
	.st311{fill:#CBCACC;}
	.st312{fill:none;stroke:#000000;stroke-width:2;stroke-miterlimit:10;}
	.st313{fill:none;stroke:#000000;stroke-width:2;stroke-miterlimit:10;stroke-dasharray:12.1617,12.1617;}
	.st314{fill:none;stroke:#000000;stroke-width:2;stroke-miterlimit:10;stroke-dasharray:12;}
	.st315{fill:none;stroke:#222122;stroke-width:2;stroke-miterlimit:10;stroke-dasharray:12;}
	.st316{fill:none;stroke:#000000;stroke-width:2;stroke-miterlimit:10;stroke-dasharray:12.0927,12.0927;}
	.st317{fill:none;stroke:#000000;stroke-width:0;stroke-linecap:round;stroke-linejoin:round;}
	.st318{fill:#535353;}
	.st319{fill:#414041;}
	.st320{fill:#4D4C4D;}
	.st321{fill:#0A0A0B;}
	.st322{fill:#181718;}
	.st323{fill:#2F2E2F;}
	.st324{fill:#494A4A;}
	.st325{fill:#585959;}
	.st326{fill:#3A3A3A;}
	.st327{fill:#989898;}
	.st328{fill:#908F90;}
	.st329{fill:#0D0C0C;}
	.st330{fill:#0C0C0B;}
	.st331{fill:#232322;}
	.st332{fill:#474847;}
</style>
<g>
	<path d="M287,410.3c17.1-0.7,32.9-6.1,48.4-12.2c26.5-10.5,51.5-24.1,75.8-38.9c53.3-32.5,102.8-70,148.7-112.2
		c22.2-20.4,43.1-41.9,61.6-65.7c9.4-12.1,18.1-24.5,24.2-38.7c2.3-5.3,4.1-10.8,4.3-16.6c0.4-10.8-5.2-17.2-15.9-18.6
		c-10-1.3-19.7,0.6-29.3,3.1c-20.2,5.3-39.1,13.8-57.7,23.2c-33.1,16.6-64.3,36.3-94.5,57.6c-35,24.7-68.3,51.4-99.6,80.5
		c-23.2,21.7-45.3,44.3-64.3,69.9c-8.2,11-15.7,22.4-20.8,35.3c-1.9,4.9-3.4,9.9-3.5,15.2c-0.1,9.9,5.1,16,14.9,17.6
		C281.9,410.1,284.5,410,287,410.3z"/>
	<g>
		<path class="st142" d="M115.9,308.7c-0.6-1-0.3-2-0.2-3c0.9-10.3,1.7-20.6,2.8-30.9c0.3-2.5-0.2-3.3-2.9-3.6
			c-22.4-1.9-44.7-3.5-67-6.2c-7.9-0.9-15.6-3.2-23.7-3.7c-4.1-0.2-8.2-0.6-12.3-1.2c-7.5-1-12.7-7.2-12.6-14.8c0.6-0.9,0.5-2,0.5-3
			C4.8,194.5,9,146.6,13.2,98.7c0.1-1,0.4-2,0-3.1c1.5-6.4,5.6-9.9,12.2-10.1c1.7,0,2-0.5,2.1-2c0.6-5.3,0.3-10.7,1.8-15.9
			c0.2,6.7-1.1,13.3-1.4,19.7c0.4-0.4,0.1-1.5,0.2-2.3c0.5-4.7,0.8-9.4,1.3-14.2c0.1-0.9-0.5-2.2,1-2.5c1.4,1.8,0.7,3.8,0.5,5.7
			c-4.3,49.4-8.7,98.7-13,148.1c-0.1,1.6-0.4,3.3-0.3,5c0.1,7.3,4.7,12.2,11.9,13c0.4,0,0.8,0.1,1.2,0.1c5.2,0.5,5.2,0.3,6.1-4.1
			c1.1-5.5,6.2-8.9,12.3-9.1c1.6,0,3.1,0.1,4.6,0.3c20.7,1.8,41.4,3.7,62.2,5.5c5,0.4,5,0.4,5.5-4.5c0.6-6.4,1.2-12.8,1.7-19.2
			c0.3-3.2,0-3.5-3.3-3.9c-1.1-0.2-2.3-0.2-3.4-0.6c-2-0.7-3.7-1.9-3.4-4.2c0.3-2.3,2.2-3.1,4.3-3.4c1.4-0.2,2.7,0.1,4,0.4
			c1.9,0.5,2.7-0.3,2.9-2.1c0.2-2,0.4-3.9,0.5-5.9c0.2-3.1-0.2-3.7-3.3-4c-5.2-0.6-10.5-1.4-15.7-1.9c-16-1.7-31.9-5-48-6.3
			c-3.3-0.3-6.5-1.1-9.8-1.5c-3.7-0.4-6-3-6-6.7c0-3.9,0.3-7.9,1-11.7c0.7-3.7,3-5.2,7-5.1c7.5,0.3,14.8,1.7,22.1,2.8
			c5.6,0.8,11.3,1.6,16.9,2.4c11.5,1.6,22.9,3.1,34.4,4.9c0.6,0.1,1.2,0.2,1.9,0.2c1.5,0.1,2.8-0.3,2.9-2c0.1-1.7-1.5-1.4-2.5-1.5
			c-15.3-1.7-30.5-4.2-45.8-6c-9-1.1-18-2.5-27-3.6c-6.4-0.7-8.9-3.8-8.4-10.2c0.2-2.7,0.4-5.4,0.7-8c0.6-4.5,2.9-6.3,7.4-6.1
			c6.2,0.3,12.3,1.5,18.4,2.5c4.9,0.8,9.8,1.6,14.7,2.2c17.5,2.1,34.8,5,52.1,7.8c2.7,0.4,5.2-0.2,7.7-0.6c0.1,1.7,0.4,3.5-2.4,3.1
			c-0.3,0,0.3,0.4,0.2,0.1c-0.1-0.2,0-0.2,0.3-0.1c1.1,0.1,1.8,0.5,1.6,1.8c-0.1,0.5-0.1,1-0.1,1.5c-4.2,48-8.5,96-12.7,144.1
			c0,0.4,0,0.8,0,0.8c4.3-49,8.7-98.2,13-147.5c0.1-1-0.2-2.1,0.9-2.7c1.5,1.2,1,2.8,0.8,4.3c-0.6,7.3-1.3,14.6-1.9,22
			c-3.6,40.9-7.2,81.8-10.8,122.7c-0.1,1.5-0.3,3.1-0.3,4.6c0.2,7.2,4.8,12.3,11.9,13.1c0.5,0.1,1,0.1,1.5,0.1
			c5.2,0.5,5.2,0.5,7.1-4.5c2-5.3,7.3-8.8,13.3-8.1c13.8,1.5,27.6,2,41.4,4.2c9.3,1.4,18.7,1.8,28.1,2.6c3.1,0.3,5.9,1.2,8.2,3.2
			c2.5,2.2,4,5,3.8,8.5c-0.1,1.8-0.3,3.5,0.9,5c0.6,1.4-0.4,1.4-1.3,1.5c-0.8,0.1-1.9-0.4-1.9,1.1c-0.5,3.2-1.3,6.2-2.5,9.1
			c-2.1,4.7-5.5,7.8-10.8,8.4c-26.6-2.3-53.2-4.7-79.8-7c-2,0-3.6-1.1-4.9-2.4c-1.7-1.8-3.8-2.2-6.1-2.4c-4.7-0.3-9.5-0.8-14.2-1.3
			c-7.5-0.9-12.4-6-13-13.4c0.7-1.2,0.5-2.6,0.6-3.9c0.9-9.8,1.7-19.5,2.6-29.3c0.1-0.9-0.1-1.9,0.2-2.4c-0.9,10.3-1.8,21-2.8,31.8
			C116.4,306.5,116.7,307.7,115.9,308.7z"/>
		<path class="st142" d="M507,292.1c-0.2,0.2-0.4,0.3-0.6,0.5c-0.3,0.2-0.6,0.5-0.9,0.7c-0.2,0.2-0.4,0.3-0.6,0.5
			c-2.1-2.6-3.9-5.3-5.3-8.3c-0.4-0.9-1.1-1.8-0.8-2.9c0-0.1,0-0.2,0.1-0.3c0,0,0,0,0,0c0.2-0.3,0.5-0.5,0.8-0.5c0,0,0.1,0,0.1,0
			c0.1,0,0.2,0,0.3,0c2.6,2.2,3.7,5.5,5.4,8.2C506,290.8,506.5,291.5,507,292.1z"/>
		<path class="st142" d="M543.2,200.1c-0.1,0.6-0.3,1.2-0.5,1.8c-4.3,12.9-10.2,25.1-16.8,36.9c-0.6,1.1-1.2,2.2-1.7,3.3
			c-0.1,0.3-0.3,0.5-0.4,0.7c0,0.1-0.1,0.1-0.2,0.2v0c-0.1,0.2-0.2,0.3-0.3,0.5c-0.1,0.2-0.2,0.3-0.3,0.5c-0.1,0.1-0.1,0.3-0.2,0.4
			c-3.5,6.5-7.5,12.8-12.1,18.6c-0.8,1-1.8,2-1.9,3.4c0,0.1,0,0.2,0,0.2c0,0.1,0,0.2-0.1,0.2c-0.1,0.2-0.1,0.5-0.2,0.7
			c0,0.1,0,0.2-0.1,0.3c-0.1,0.2-0.1,0.4-0.2,0.6c-1,3.4-3.1,6.2-5.5,8.8c-1.3,1.3-2.3,2.7-2.7,4.5c0,0,0,0.1,0,0.2
			c-0.2,0.2-0.4,0.4-0.6,0.6c-0.1,0-0.3,0-0.4,0c-0.9,0.1-1.6,0.4-2.4,1.1c-2,1.7-4.2,3.2-6.6,4.1c0,0,0,0,0,0c0,0,0,0-0.1,0
			c-0.5,0.2-1.1,0.4-1.7,0.5c-2.2,0.6-2.2,1.4-0.9,3.2c2.6,3.4,5,6.9,8.1,9.8c-0.2,0.2-0.4,0.3-0.6,0.4c-15.8,12.2-32,23.9-48.6,35
			c-0.2,0.2-0.5,0.3-0.7,0.5c-11.3,7.6-22.7,14.9-34.4,22c-3.6,2.2-7.2,4.4-10.9,6.5c-7.7-8.3-14.9-17.1-22.2-25.8
			c0.3-1.8-0.6-3.3-1.3-4.8c-0.1-0.2-0.2-0.4-0.3-0.6c0,0,0,0,0,0c-0.6-1.4-1.6-2.6-2.5-3.9c0,0,0,0,0-0.1c-0.3-0.4-0.6-0.8-0.8-1.2
			c-6.2-9.4-12.4-18.8-16.6-29.3c-1.4-3.5-2.2-7.1-2.1-10.9c0.1-8.5,4.4-14.5,11.8-18.1c3.8-1.9,7.8-3.2,12.1-3.2c0,0,0.1,0,0.1,0
			c0.1-0.1,0.1-0.2,0.1-0.3c0-0.1-0.1-0.1,0,0c0,0,0,0,0,0.1c0,0.1,0,0.1-0.2,0.1c-2.1,0-4.4,1.1-6.2-0.8h0v0
			c-0.1,0-0.1-0.1-0.1-0.1c2.2-2.1,4.6-0.8,6.9-0.4c1,0.2,1.9,0.5,2.8-0.1h0c0,0,0,0,0,0c5.8,0.2,11.4,1.3,16.9,2.6
			c0.1,0,0.2,0,0.3,0.1c0.1,0,0.2,0,0.3,0c0.6,0.1,1.1,0.5,1.7,0.8c0.1,0.1,0.2,0.1,0.3,0.2c0.1,0,0.2,0.1,0.3,0.1
			c13.7,4.5,27.3,9,41.5,11.5c7.2,1.3,14.4,2.4,21.8,2.1c9.9-0.3,17.4-4.7,23.9-11.9c9-10,17-20.8,24.4-32
			c8.5-12.8,16.7-25.8,25.2-38.7c0.6-0.9,1.2-1.7,1.9-2.5c0.5-0.6,1.1-1.4,2.1-1C543.5,198.1,543.3,199.1,543.2,200.1z"/>
		<path class="st142" d="M346.8,31.5c1.9-7.6,6.2-13.6,12.5-18.3c2.5-1.8,5.4-2.6,8.4-2.8c1-0.1,2.6-0.1,3,0.4
			c2.3,3.3,2.8,0.1,3.7-1c2.2-2.4,4.8-4.3,7.8-5.5c26.2-10.5,53.2-1.6,66.9,19.9c2.1,3.2,3.7,6.7,5,10.3c0.7,1.9,1.7,3.7,3,5.3
			c-0.1,0.4-0.3,0.8-0.5,1.1c0.1,4.4,2.2,7.4,6,9.4c1.7,0.2,3.5,0.2,4.6,1.9c-0.1,0.4-0.4,0.6-0.8,0.5c0.6,0.5,1.3,0.3,1.9,0.5
			c2.4,0.9,4.8,1,7.3,0.9c9-0.2,16.1,3.3,21.5,10.5c-0.1,0.9-0.2,1.9,0.7,2.5c-0.8,1.2,0.4,1.9,0.8,2.7c3.8,7.5,2.3,15.4-3.9,20
			c-1.7,1.3-2.8,1.7-5.7,2c1.7-2.1,3.4-4,3.5-6.7c0.2-2.6,0.4-5.1-1.3-7.4c0.9,7.5-2.4,12.7-8.6,16.3c0.3,0.8,1.1,0.5,1.5,1
			c-1.5,1-3,0.7-4.9,0.5c2.1,0.4,4,0,5.8,0.3c1,0.2,2.1-0.1,2.6,1.1c-2.4,1.4-12.3,0.9-14.2-0.7c-0.6-0.5-1.2-1.2-0.5-1.8
			c3.2-2.8,2.1-6.1,1.4-8.4c1.1,6.6-3.7,13.1-10.8,15.6c-1,0-2,0.5-3.1,0.5c-16.6,0.3-26.3-9.6-33.5-23c-1-1.9-2.1-3.8-2.7-5.9
			c-0.9-3-0.3-3.9,2.7-4.5c8.2-1.6,12.8-8.6,11.2-16.8c-0.8-3.9-3.7-6.7-7.2-7.1c-3.8-0.4-7.8,1.9-9.3,5.4c-0.5,1.2-0.7,2.6-1.4,3.8
			c-1.6,2.8-4.4,3.2-6.7,1.1c-1.3-1.2-2.3-2.7-3.1-4.3c-1.2-2.4-2.9-3.8-5.6-4.4c-5.8-1.2-10.9-3.8-15.5-7.5
			c-0.3-0.1-0.4-0.6-0.8-0.6c0.2,0.2,0.4,0.4,0.6,0.6c2.7,3.3,6.2,5.7,9.8,8.1c0.8,0.5,1.9,1,1.6,2c-0.3,1-1.6,0.8-2.5,0.8
			c-2.7-0.3-5.3-0.9-7.7-2.2c-0.9,0.2,0.7-1.4-0.9-1.2c-1.2,0.2-2.5-0.9-3.7-1.4c-0.6-0.9-1.3-1.6-2.1-2.3c-6.7-6-8.3-8.5-12.3-19.2
			c-2.7,2.9-5.1,5.8-6.4,9.4c-2,5.1-2.9,10.3-2.5,15.8c0.1,0.9,0,1.9-0.3,2.8c-0.8,1.6-0.7,3.9-3.4,4c-5.4-2.7-7.4-7.5-8.3-13.1
			c-0.4-1.5,0.6-3.3-0.9-4.5c0.6-1.4,0-2.6-1.2-3C346.7,34.3,346.9,32.9,346.8,31.5z"/>
		<path class="st143" d="M146.6,138c-1.2,1-0.8,2.5-0.9,3.8c-4.3,48.5-8.6,97.1-12.9,145.6c-0.1,1.1-0.2,2.2-0.3,3.9
			c-0.8-1.7-0.3-2.8-0.3-3.9c4.2-47.6,8.4-95.2,12.6-142.8c0.2-2.8,0.4-5-3.6-4.8c2.5,0,4.8,0.2,4.2-3.2c-0.8-1.1-0.3-2.2,0.1-3.2
			c2.5-5.6,8.3-9,14.5-8.8c3.2,0.1,6.3,1.2,9.5,1.5c2.3,0.2,3.4-0.6,3.6-3c0.9-10.8,2-21.6,2.8-32.5c0.5-6.5-3.8-11.7-10.2-12.8
			c-10.3-1.9-20.7-3-31-4.7c-12.4-2.1-24.9-3.7-37.4-5.5c-11.4-1.7-22.9-3.5-34.3-5.2c-4.7-0.7-9.4-1.2-14.1-2.2
			c-1.7-0.4-3.5-0.6-5.2-0.6c-4.8,0-8.6,1.9-11,6.3c-0.6,1.1-0.9,2.4-2.3,2.8c-1.1,0.8-0.8,2.1-0.9,3.1c-0.5,5.5-1,11-2.1,16.5
			c0.6-6.8,1.2-13.6,1.8-20.5c1.7-7.6,8.6-12.1,16.9-10.9c16,2.4,32.1,4.9,48.1,7.3c23.8,3.6,47.6,7.1,71.4,10.6
			c8.2,1.2,13.8,8.5,13,16.9c-1,11.1-1.9,22.2-3,33.4c-0.2,2.2,0.2,3.1,2.6,3.3c4.2,0.4,8.4,1.2,12.7,1.9c0.4-1.4-0.9-3.3,1.4-3.8
			c0.5,0.2,0.7,0.5,0.9,1c0.1,2.6,1.9,3,3.9,2.9c3.3-0.1,6.5-0.9,9.7-2c1.6-0.6,3.2-1.4,5.1-1.1c0.3,0.1,0.5,0.3,0.6,0.5
			c0,1.4,1.2,0.2,1.6,0.7c0.8,0.2,1.6,0.4,2.2,0.9c1.5,1.1,0.5,1.5-0.6,1.8c-3.3-0.2-6.5,0.4-9.3,1c3.2,0.9,6.8,0.6,10.4,1.5
			c2.5,0.7,5.1,1.2,7.6,1.8c1.3,1,3.5,0.5,4.2,2.5c-0.6,1.3-1.6,1.5-2.9,1.3c-1.3-0.7-2.6-1.3-4.2-1.2c-9.9-1.1-19.6-3.1-29.4-4.7
			c-7.3-1.2-14.7-2.6-22-3.5c-3-0.4-5.9-1.2-8.9-1.5c-6.2-0.5-10,1.7-12.8,7.2C148,136.5,147.6,137.5,146.6,138z"/>
		<path class="st143" d="M193,127.1c-0.2-0.2-0.3-0.4-0.5-0.7c6.6-3.2,13.4-5.9,19.7-9.5c2.2-1.3,4.8-0.9,7.3-0.9
			c4.7,0.2,9.3,0.1,13.9-0.9c6.3-1.4,12,0.4,17.8,2.5c8.4,3.1,16.7,6.8,25.4,8.9c5.5,1.3,11.2,2.6,16.9,3c4.4,0.3,8.7,1.8,13.1,2.3
			c0.8,0.1,1.7,0.4,2.4,0.1c5-2,9.9-0.9,14.9,0.5c9.7,2.7,19.1,2.5,28.8-1.1c10.5-3.9,20.9-8.4,31.5-12c1.5-0.5,2.8-1.4,3.9-2.4
			c5.1-4.5,10.9-7.8,17.4-9.8c0.4-0.2,0.9-0.5,0.9-1c0.3-2.3,1.4-1.2,2.3-0.5c3.6,4.1,6.6,8.3,6.6,14.2c0,6,6.9,10.8,13.5,10.1
			c8-0.8,14.1-4.8,19.4-10.6c3.2-3.5,5.6-7.4,7.8-11.5c1.2-2.2,1.9-4.9,4.7-5.8c0.6-0.1,1-1.9,1.9-0.3c0.4,0.7,0.2,1.4-0.2,2.1
			c-3.9,6.7-7.1,13.8-12.8,19.4c-5.7,5.6-12.2,9.8-20.3,10.2c-10.3,0.6-19.5-6-20.6-17.2c0-0.5,0-1-0.1-1.5c-0.7-5-2.1-5.7-6.5-3.4
			c-4.2,2.2-8.5,4.3-12,7.7c-1.2,1.2-2.7,1.9-4.3,2.5c-14.2,5.5-28.1,11.6-42.8,15.7c-1.7,0.5-3.4,0.8-5.2,0.5
			c-5.5-0.9-11-1.7-16.5-2.9c-3.9-0.9-7.8-1.4-11.9-0.3c-3,0.8-6.3-0.6-9.5-1c-0.7-0.2-1.3-0.6-2-0.6c-0.9,0.1,0,0.4,0,0.7
			c5.8,8.4,6.2,17.5,3,26.9c-0.3,0.8-0.7,1.5-1.6,1.8c-2-1-1.2-3-1.6-4.6c0.6-2.8,1.1-5.7,1.3-8.6c0.1-2.2,0-4.3-0.5-6.5
			c-1.4-6.2-4.7-10.4-11.5-11.2c-9.5-1.1-18.5-4.1-27.4-7.6c-4.3-1.7-8.8-3.1-13.1-4.8c-5-2-10.1-2-15.2-1c-4.8,1-9.7,0.8-14.5,0.9
			c-1.9,0-3.6,0.4-5.3,1.2c-4.8,2.4-9.6,4.8-14.7,6.6C195.8,127.1,194.5,127.9,193,127.1z"/>
		<path class="st143" d="M582.9,224.7c-0.5,0.6-1.1,1.1-1.6,1.6c-0.2,0.2-0.4,0.4-0.6,0.6c-3.6-9.6-7.3-19.2-11.2-28.7
			c-8.6-20.9-16.7-42.1-27.6-61.9c0,0,0-0.1,0-0.1c-4.5-8.1-9.7-15.7-16.5-22c-9-8.3-19.6-13.2-31.8-14.7c-2.1-0.3-4.4-0.3-6-2
			c-0.1,0-0.1-0.1-0.2-0.1c-2.6-1.4-5.6-0.5-8.9-1.6c2.3-0.2,4.1-0.4,5.8-0.5c18.9,0.9,35.3,7.1,48,21.6c4.8,5.6,8.9,11.6,12.4,18
			c1.9,3.5,3.7,7,5.5,10.6C562.4,171.3,572.7,198,582.9,224.7z"/>
		<path class="st144" d="M247.3,318.3c0.1-1.7,0.1-1.7,3.5-1.7c1.4-1,3-0.6,4.5-0.5c11.2,0.8,15.8-3.1,16.8-14.3
			c4-45.4,8-90.8,12-136.2c0.2-2,0.3-3.9,0.6-5.9c0.2-1,0.3-2,1.6-2.7c1.7,2.8,1.6,5.9,1.7,9c0.9,2.3,3,3.1,5.1,3.7
			c3.6,1.1,7.1,2.2,10.7,3.1c1.9,0.5,3.3,1.4,4.3,3.2c1.4,2.5,4,3.9,6.5,5.1c10.3,4.9,21.1,7.8,32.4,9.2c12.7,1.6,25.4,1.1,38.1,0.1
			c2.8-0.2,5.5-0.9,8.2-1.3c0.9,0.1,1.6,0.5,2,1.2c1.3,2.2,2.7,2.7,5,1c1.7-1.3,2.2,1.3,3.5,1.6c0.4,0.5,0.6,1,0.6,1.7
			c-0.3,0.8-0.7,1.4-1.7,1c-5.6-1.8-11.5-2.4-17.3-1.9c-15.6,1.3-31.2,1.7-46.7-1.3c-9.8-1.9-19.1-5.1-27.9-9.8
			c-1.2-0.6-2.6-1.3-3.2-2.3c-2.5-3.7-6.3-4.5-10.2-5.6c-3.7-1-7.6-1.8-10.8-5.5c-0.2,1.7-0.2,2.8-0.3,3.9
			c-3.9,44.1-7.8,88.2-11.7,132.3c-0.7,7.8-6.4,13.4-13.8,13.6c-4.2,0.1-8.3-0.3-12.4-1.1C248,318,247.6,318.1,247.3,318.3z"/>
		<path class="st143" d="M377.3,335.3c1.3,1.3,2.4,2.7,0.7,4.5c-9.8-11.3-19.7-22.6-26.2-36.3c-2.8-5.9-4.8-12.2-3.4-18.9
			c2.2-10.6,10.7-18.3,21.7-19.6c2.9-0.4,6.4,0.8,8.4-0.6c1.9-1.3,0.6-5.2,1.5-7.8c2.4-7.5,7.7-12.2,15.1-12.2
			c11.2-0.1,21.1-4.8,31.8-6.6c3.7-0.6,7.1-2.1,10.9-2.4c1.9-0.7,3.9-1.3,6-1c1,0.1,1.7-0.4,2.5-0.9c1.6-0.8,3.4-2,5.1,0.1
			c-1.1,2.3-3.2,2.9-5.3,3.2c-10.4,1.2-20.4,4.4-30.6,6.5c-8.4,1.7-13.5,7.8-14.5,16.3c-0.4,3.7,0.2,7.4,0.4,11
			c-1.1,0.2-1.4-0.8-2-1.3c-1.5-0.6-1.6-2-1.8-3.4c-0.9-6.1,0.3-11.7,3.8-16.9c1.5-2.2,1.3-2.4-1.3-2.5c-8.1-0.4-14.6,3.5-17,9.9
			c-0.8,2.2-0.8,4.5-1,6.7c-0.1,1,0.2,2.1-0.4,3c-0.6,0.6-0.4,1.7-2.1,1c-2.2-0.9-4.9-1.3-7.4-0.4c-1.1,1.2-2.6,1.1-4,1.4
			c-8.9,1.8-16.1,9.1-17.1,17.4c-0.8,6.7,1.3,12.9,4.4,18.7c4,7.6,8.8,14.7,14.4,21.2C372.5,328.7,375.4,331.7,377.3,335.3z"/>
		<path class="st147" d="M359,55.5c1.9-0.7,1.7-2.8,2.9-4c1.2,1.9,2.5,2.2,4.2,0.4c0.8-0.9,1.9-1.6,3.2-1.9c1-0.2,1.9-0.1,2.5,0.7
			c0.7,0.9,0.4,1.8-0.1,2.6c-1.1,1.7-2.8,2.7-4.6,3.6c-2,1-2.6,2.1-1.5,4.1c1.2,2.3,1.5,4.9,1.8,7.5c0.6,6.5,3.3,12.1,7.3,17.1
			c2.6,3.2,5.2,6.4,8.2,9.3c4.2,4,9,5.7,14.7,4.2c1.3-0.3,2.6-0.8,3.9-0.2c1.6,1.6,0.1,1.7-1,2.1c-7,3.1-13.3,1.8-18.9-3.2
			c-3.5-3.2-6.6-6.8-9.6-10.5c-4.6-5.7-7-12.2-7.9-19.5C363.5,63.4,362.4,58.9,359,55.5z"/>
		<path class="st147" d="M456.2,40.8c0.3-0.3,0.6-0.6,0.9-0.8c2,1.8,3.3,4.2,4.8,6.4c1.9,2.8,4.5,4.1,7.8,4.4
			c3.2,0.2,6.4-0.2,9.6-0.3c7-0.3,13.3,1.4,18.5,6.3c3.6,3.5,3.6,6.9,0.1,10.7c-0.7-0.5-2.3-0.7-0.6-2c-0.6-2.4,0.2-5.1-2.2-7
			c-3.2-2.5-6.8-3.7-10.7-4.5c-4.4-0.9-8.8,0.1-13.2,0.1c-1.4-0.3-2.9-0.1-4-1.3c-1.6-0.7-3.1-1.8-5-1c-2.3-2.8-4.7-5.6-5.8-9.1
			C456.1,41.9,455.7,41.4,456.2,40.8z"/>
		<path class="st148" d="M439.3,234.2c-14.4-9.8-26.3-21.9-35.5-36.8c-0.5-1.1,0.1-1.4,1-1.5c2.4,0.6,3.1,2.9,4.3,4.6
			c7.1,9.8,15,18.9,24.9,26c2.7,1.9,5.6,3.5,8.4,5.2c0.7,0.7,1.2,1.6,0.3,2.3C441.8,234.8,440.5,234.9,439.3,234.2z"/>
		<path class="st149" d="M154.1,328.8c1-0.9,2.2-0.4,3.3-0.3c24.5,2.1,48.9,4.3,73.4,6.5c1.1,0.1,2.3-0.2,3.2,0.9
			c-1.3,0.6-2.6,0.4-4,0.3c-23.7-2.1-47.4-4.2-71.1-6.3C157.3,329.7,155.5,329.8,154.1,328.8z"/>
		<path class="st150" d="M400.5,101c0.3-0.6,2-0.8,0.5-1.9c0.3-1,1.1-1.4,1.9-1.9c4-2.1,7.8-4.7,11.1-7.8c0.6-0.5,1.2-1.4,2.1-0.9
			c1.1,0.6,0.5,1.7,0.2,2.5c-2,5.3-4.5,10.4-7.9,14.9c-0.5,0.3-1.2-1.9-1.5,0.2c-0.1,0.8-0.7,0.9-1.3,0.9c0.2-0.4,1.1-0.6,0.6-1.1
			C404.3,104.3,403,102,400.5,101z"/>
		<path class="st151" d="M13.2,95.7c0.8,1,0.3,2.2,0.3,3.3c-4.2,47.7-8.4,95.5-12.6,143.2c-0.1,1.1,0.2,2.3-0.9,3.2
			c0.9-10.6,1.6-21.2,2.6-31.8C5.9,175.4,9.3,137.2,12.7,99C12.7,97.9,13,96.8,13.2,95.7z"/>
		<path class="st13" d="M346.8,31.5c0.8,0.6,0.1,2.2,2,2.5c1.4,0.2,2.5,2.2,1.1,4c0.3,0.4,0.3,0.9,0,1.3c-1.1,4.9-1,9.6,2,14.2
			C345.1,50.6,344.1,38.5,346.8,31.5z"/>
		<path class="st153" d="M439.3,234.2c1.3,0.1,2.7,0.4,3.5-0.9c0.3-0.6-0.4-1-0.9-1.3c-0.6-1.3-2.6-1.6-2.4-3.4
			c0.2-0.5,0.5-0.7,0.9-0.8c0.6,0,1.3,0.2,1.7,0.6c1.5,1.6,3,1.5,4.5,0.1c0.8,0.6,0.8,1.9,2.1,1.9c1.1,0,2.3-0.4,3.2,0.5
			c1,1,1,2.1-0.6,2.8c-1.9-0.2-3.4-0.3-5.3,1c-2.3,1.6-5.4,0-8.1,0.7C438.1,234.6,439.2,235.1,439.3,234.2z"/>
		<path class="st154" d="M115.9,308.7c1.1-12.2,2.1-24.4,3.2-36.6c0.2,0,0.4,0,0.7,0.1c-0.5,5.9-1,11.9-1.6,17.8
			c-0.5,5.4-0.9,10.9-1.5,16.3c-0.1,1,0.2,2.1-0.8,2.8C115.8,309,115.8,308.9,115.9,308.7z"/>
		<path class="st142" d="M248.3,317.8c4.1,0.4,8.2,0.7,12.4,1.1C256.5,319,252.4,318.7,248.3,317.8z"/>
		<path class="st142" d="M349.9,39.3c0-0.4,0-0.8,0-1.3c1.4-0.6,0.9,0.5,0.9,1.1c0,1.1-0.1,2.2-0.2,3.4
			C349.7,41.6,350.6,40.3,349.9,39.3z"/>
		<path class="st13" d="M405.2,196.3c-0.8-0.1-1.3,0.3-1.4,1.1c-0.4-0.6-0.8-1.3-1.2-1.9c0.5-0.4,0.9-0.7,1.4-1.1
			C405.6,194.4,405.8,195.1,405.2,196.3z"/>
		<path class="st155" d="M289.2,258.3c0.2,0.2,0.4,0.4,0.7,0.7c-0.6,0.2-1.3,1.2-1.8,0.3C287.7,258.6,288.6,258.3,289.2,258.3z"/>
		<path class="st126" d="M285.6,159.1c-2.4,27-4.7,54-7.1,80.9c-1.9,21.7-3.8,43.5-5.8,65.2c-0.7,7.6-6.7,12.6-14.2,11.9
			c-2.6-0.2-5.1-0.4-7.7-0.5c-1.9-0.2-2.6-0.9-2.3-3.1c1.1-8.1-2.6-12.5-10.7-13.4c-22.9-2.4-45.9-4.7-68.9-7.1
			c-7.3-0.8-13.3,3.8-14.2,11.1c-0.3,2.1-1,2.6-2.9,2.2c-1.6-0.3-3.3-0.4-4.9-0.5c-9.2-0.8-14.6-7.2-13.7-16.4
			c4.4-49.9,8.9-99.8,13.3-149.6c0.1-0.6,0-1.2,0-1.9c1.7-5.9,5-9.9,11.4-10.7c2.4-0.3,4.7,0.4,7.1,0.8c19,3.1,38,6.1,56.9,9.2
			c3.1,0.8,3.1,0.8,0.4,4.5c-0.9,3.3-0.2,4.3,3,4.9c3.6,0.7,7-0.1,10.3-1.1c5.5-1.7,10.8-1.9,16.3,0.1c3.9,1.4,8.1,1.3,12.2,0.3
			c4.6-1.1,9,0,13.4,1.3c2.8,0.9,5.1,2.6,6.6,5.3C285.4,154.5,285.5,156.8,285.6,159.1z"/>
		<path class="st33" d="M30.5,68.5c4.1-9.2,7.6-11,17.8-9.5c27.1,4,54.2,8,81.3,12.1c12.1,1.8,24.1,3.6,36.2,5.4
			c6.7,1,11.8,7.3,11.3,14.2c-0.9,11.5-2.1,23.1-3,34.6c-0.2,1.9-0.9,2.1-2.5,1.8c-3.5-0.6-6.9-1.1-10.4-1.6
			c-7.3-1-14,3.7-15.7,10.9c-0.3,2.4-1.7,2.6-3.8,2.3c-20-3-40.1-5.9-60.2-8.9c-9.7-1.4-19.4-2.8-29.2-4.2c-3.3-0.5-5.5,1.5-5.9,4.9
			c-0.3,3.5-0.6,7-0.9,10.5c-0.3,4.1,1.4,6.3,5.4,6.9c11.7,1.6,23.4,3.1,35.1,4.7c14.8,2,29.5,4,44.5,6c-0.5,1.3-1.2,2.7-1.6,4.1
			c-0.5,1.7-1.7,0.8-2.6,0.7c-9.2-1.2-18.4-2.6-27.7-3.8c-16.2-2.2-32.4-4.4-48.6-6.6c-3.9-0.5-5.6,1-5.9,4.8
			c-0.3,3.6-0.7,7.2-1,10.8c-0.3,3.7,1.5,5.8,5.2,6.2c21,2.4,41.8,5.5,62.7,8.4c4.4,0.6,8.8,1.1,13.3,1.5c1.5,0.2,2.2,0.6,1.9,2.3
			c-0.4,3.3-0.7,6.6-0.9,9.9c-0.1,1.3-0.5,1.8-1.9,1.6c-1.8-0.3-3.7-0.5-5.5-0.6c-2-0.2-4-0.1-4.1,2.5c-0.1,2.4,1.7,3,3.7,3.2
			c1.9,0.2,3.7,0.4,5.6,0.5c1.4,0.1,1.7,0.6,1.5,2c-0.8,8.7-1.6,17.3-2.3,26c-0.1,1.8-0.8,2.1-2.5,1.9c-22.4-2.1-44.7-4-67.1-6.1
			c-9.2-0.9-14.3,3-15.5,12.1c-0.2,1.3-0.5,1.8-1.9,1.6c-2.8-0.4-5.6-0.4-8.3-0.9c-6.4-1.2-11-8.2-10.3-15.6
			c2.6-29.4,5.2-58.7,7.8-88.1C26.5,114.3,28.5,91.4,30.5,68.5z"/>
		<path class="st13" d="M201,320.4c-1.3,1.1-1.9,0.8-1.9-0.9c-0.4-4.2-2.8-6.4-6.7-7.4c-1.1-0.3-2.2-1.2-1.8-2.5
			c0.5-1.5,1.9-1.2,3.2-1c1.3,0.2,3,1.9,3.8,0.1c0.9-2-1.7-2-2.7-3c-1.3-1.2-2.6-2-4.4-1.1c-1.3-0.1-2.5-0.5-3.3-1.5
			c-0.7-1-2.6-1.7-1.6-3.3c0.9-1.4,1.8-3.1,4.1-2.8c4.4,0.5,8.9,0.8,13.3,1.2c2.3,0.2,3.6,2.3,5.3,3.5c1,0.7-0.5,1.4-1.4,1.9
			c-2.3,1.2-4.7,2.6-4.4,5.9c0.5,0.5,0.6,1.1,0.6,1.7c-0.1,2.6,1.5,3.9,3.6,4.8c1.1,0.5,2.4,0.6,3.5,1.3c0.7,0.4,1.3,1,1.2,2
			c-0.1,1.1-1,1.5-1.9,1.7c-0.8,0.2-1.7,0.1-2.4-0.3C205.1,319.6,203.1,319.6,201,320.4z"/>
		<path class="st143" d="M15.4,226.6c3.9-44.6,7.9-89.2,11.8-133.8c0.1,0,0.2,0,0.3,0c-3.9,44.7-7.9,89.3-11.8,134
			C15.6,226.7,15.5,226.6,15.4,226.6z"/>
		<path class="st156" d="M73,143.5c-2.5-0.3-4.2-2.3-3.8-4.3c0.4-2.2,1.8-3.4,4.1-3.3c2.1,0.1,3.7,2.1,3.4,4.3
			C76.3,142.5,74.9,143.6,73,143.5z"/>
		<path class="st157" d="M59.9,141.7c-2.1-0.5-3.5-1.8-3.3-4.1c0.2-2.3,1.8-3.6,4-3.3c2.2,0.2,3.6,1.8,3.3,4.1
			C63.7,140.6,62.2,141.8,59.9,141.7z"/>
		<path class="st157" d="M85.8,145.3c-2.3-0.3-3.7-1.7-3.6-3.9c0.1-2.3,1.6-3.5,3.8-3.6c2.1-0.1,4,2.1,3.8,4.1
			C89.4,144.1,88,145.2,85.8,145.3z"/>
		<path class="st158" d="M70.6,163c2.3,0.4,3.7,1.6,3.6,3.9c-0.1,2.4-1.8,3.5-4,3.3c-2.2-0.2-3.6-1.7-3.4-4
			C67,164,68.6,163.2,70.6,163z"/>
		<path class="st159" d="M83.7,164.8c2.1,0.4,3.5,1.5,3.3,3.7c-0.2,2.3-1.7,3.4-4.1,3.2c-2.2-0.2-3.4-1.6-3.2-3.8
			C80.1,165.7,81.6,164.8,83.7,164.8z"/>
		<path class="st157" d="M54.3,164.7c0.3-2,1.4-3.2,3.5-3.1c2.3,0.1,3.6,1.6,3.5,3.9c-0.1,2.2-1.7,3.4-3.8,3.1
			C55.5,168.4,54.2,167,54.3,164.7z"/>
		<path class="st154" d="M125.6,204.9c-0.8,9.5-1.7,19.1-2.5,28.6c-0.1,0-0.2,0-0.3,0c0.8-9.6,1.7-19.2,2.5-28.8
			C125.5,204.8,125.5,204.9,125.6,204.9z"/>
		<path class="st33" d="M518,283.2c-0.2,0.1-0.3,0.3-0.5,0.4c-3.5,2.9-7,5.7-10.6,8.6h0c-0.2,0.2-0.4,0.3-0.6,0.5
			c-1.6-2.1-3.1-4.4-4.4-7c-0.6-1.3-1.4-2.5-2.1-3.7c0-0.1-0.1-0.1-0.1-0.2c-0.7-1.3-0.3-2.2,0.8-3.3c2.8-3,5.7-6,6.9-10.1
			c0.4-0.5,0.7-0.8,0.9-0.9c0.6-0.1,1,0.8,1.4,1.4c1.2,2.1,2.2,4.3,3.5,6.4c0,0,0,0,0,0c0,0,0,0.1,0.1,0.2
			C514.7,278.2,516.3,280.7,518,283.2z"/>
		<path class="st33" d="M558.1,168.6c-4.8-11.1-9.6-22.2-15.5-32.7c-2.2-3.9-4.5-7.6-7.1-11.3c-8.9-12.6-20.6-21.2-35.8-24.9
			c-4-1-8.2-1-12.2-2.2c-0.1,0-0.2-0.1-0.3-0.1c-4.7-1.1-9.8,0.6-14.4-2c0,0-0.1,0-0.1,0c0,0,0,0,0.1,0c4.3-2.8,4.6-6.9,0.8-11
			c1.1,8-2.4,13.3-9.4,16.4c-0.5,0.2-0.8,0.6-1.2,0.9c0,0.1-0.1,0.2-0.1,0.2c-2,3.6-3.9,7.3-6,10.8c-4,6.9-9.3,12.7-16.4,16.6
			c-6.5,3.6-13.2,4.4-20.3,1.5c-5.6-2.4-10.4-9-10.3-14.7c0-2.1-0.6-3.8-1.3-5.7c-0.6-1.8-1.6-2.1-3.2-1.4
			c-5.3,2.4-10.6,4.7-14.9,8.8c-1.1,1-2.1,2-3.5,2.5c-12.4,4.6-24.5,10-37.1,14c-3.1,1-6.3,2.4-9.5,2.4c-5,0-10.1-1-15-2.1
			c-4.2-0.9-8.5-3-12.8-1.7c-2.9,0.9-5.4,0.6-8.2,0.3c-1.4-0.2-2.9-0.3-4.3-0.5c-0.3,0-0.7-0.2-1-0.3c-0.6-0.2-1.2-0.3-1.7,0.8
			c6.2,9.2,6.6,18.8,2.4,28.9c0,0-0.1,0-0.1,0.1c-1.1,0.7-1.6,2-2.4,2.9c-2.7,3-4.2,3.2-7.7,1.1c-0.5-0.3-1.1-0.7-1.6-0.6
			c-0.3,0-0.6,0.1-0.9,0.4c1,3.2,3.8,3.9,6.5,5c5.1,2.1,11.5,1.1,15,7.1c1.1,2,3.9,2.9,6.1,4c10.5,4.9,21.5,7.9,33,9.1
			c15.5,1.6,30.9,1.5,46.2-1.6c0.1,0,0.2,0,0.2-0.2c0.1-0.1,0.1-0.2,0-0.3c0,0,0-0.1-0.1-0.1c0,0,0,0,0-0.1c0-0.1-0.1-0.2-0.1-0.2
			c-0.8-1.3-2.2-1.9-3.4-2.8c0,0-0.1,0-0.1-0.1c-0.1-0.1-0.2-0.1-0.3-0.2c-2.8-1.8-5.8-3.2-8.6-5c-0.1,0-0.1-0.1-0.2-0.1
			c-0.1,0-0.1-0.1-0.2-0.1c-1.5-1-3.3-1.7-4.9-2.6c0,0-0.1-0.1-0.1-0.1c0,0,0,0,0,0c-0.1,0-0.2-0.1-0.2-0.1c-0.5-0.2-1-0.4-1.4-0.6
			c0,0,0,0,0,0c0,0-0.1,0-0.1-0.1h0c-0.2-0.1-0.3-0.2-0.5-0.3c-3.8-1.9-7.6-3.7-11.5-5.3c4.1,1.6,8,3.6,11.9,5.5c0,0,0,0,0.1,0
			c0,0,0.1,0.1,0.1,0.1c0.5,0.3,1.1,0.5,1.7,0.8c0,0,0.1,0,0.1,0.1c0.1,0.1,0.3,0.2,0.4,0.3c1.5,0.8,3,1.4,4.5,2.3
			c0.1,0.1,0.3,0.2,0.4,0.2c0.1,0,0.1,0.1,0.2,0.1c2.8,1.8,5.9,3.2,8.7,5c0,0,0.1,0.1,0.1,0.1c1.2,0.8,2.5,1.6,3.4,2.7
			c0.1,0.1,0.2,0.2,0.3,0.4c0.1,0.1,0.1,0.1,0.1,0.2c2.3-0.1,3.8-1,4.2-3.3c0-0.1,0-0.1,0-0.2c0,0,0-0.1,0-0.1
			c-0.6-2.4-2.1-4.4-2.7-6.7c-0.8-3.4-2.7-5.7-5.2-7.5c0.4,0.2,0.9,0.2,1.4-0.3c0.9-0.9,0.3-2.2-0.1-3.2c-0.7-2.5-1.3-5-1.7-7.6
			c-0.3-2.4-0.5-4.9-0.4-7.2c0.9,11.4,4.9,22.1,9.3,32.6c0,0,0,0,0,0c0,0.1,0.1,0.1,0.1,0.2c0.1,0.1,0.2,0.2,0.2,0.3
			c1.2,1.6,1.8,3.5,2.9,5.2c0,0,0,0,0,0c0.4,0.6,0.8,1.1,1.3,1.5l0.6,1.3c0.1,0,0.2,0.1,0.2,0.1c0.5,0.4,0.9,0.8,0.9,1.5
			c0,0.1,0,0.2,0,0.3c0.5,0.6,1.1,1.2,1.5,1.8c3.9,6.2,8.4,11.8,13.4,17c2.3,2.4,4.8,4.8,7.3,7.1c4.3,3.9,9,7.4,14.4,9.8
			c0-0.3,0-0.5,0-0.7c-0.3-1.1-1.7-1.6-2.1-2.6c0-0.2-0.1-0.3-0.1-0.4c-0.5-1.1-1.7-1.6-2.4-2.6c0,0-0.1-0.1-0.1-0.1
			c0,0-0.1-0.1-0.1-0.1c-2.5-2.5-4.9-5-7.3-7.5c2.4,2.5,4.9,5,7.4,7.5c0,0.1,0.1,0.1,0.2,0.2c0,0,0,0,0.1,0.1c0.8,1,1.7,1.7,2.9,2.3
			c0.2,0.1,0.3,0.1,0.4,0.2c0.6,0.4,1.1,0.8,1.7,1.3c3,2.6,3,2.6,4.3-0.8c0,0,0,0,0-0.1c1.8-4.5,3.1-9.1,5-13.5
			c1.4-3.2,1.6-6,0.5-8.7c0.3,0.3,0.6,0.5,1.1,0.5h0c0,0,0,0,0,0c0,0,0,0,0.1,0c1.3-0.2,1.6-1.7,2-2.8c1.5-3.9,2.6-8.1,4.3-12
			c0.5-1.2,0.4-2.4,0-3.6c-0.2-0.6-0.3-1.1-0.5-1.7c-2.2-8.3-2.6-16.8-1.5-25.4c1.5-11.9,4.9-23.1,11.6-33
			c5.4-8.1,11.6-15.4,20.6-19.3c-10,4.7-16.9,13-22.5,22.5c-5.4,9.3-8,19.5-9.5,30c-1.1,7.4-0.4,14.9,0.8,22.2
			c0.2,0.9,0.4,2,1.2,2.4c0.2,0.1,0.4,0.1,0.6,0.1c0.8,0,1.2-0.8,1.4-1.6c0.1-0.3,0.2-0.6,0.2-0.8c0.9-3.1,1.9-6.1,2.7-9.3
			c-0.4,3.4-1.6,6.6-2.5,9.8c0,0,0,0,0,0c-4.4,14.5-10.4,28.4-14.4,42.9c-0.2,0.7-0.6,1.5-0.7,2.2c-0.1,0.5,0,1.1,0.3,1.6
			c0.7,0,1.4,0.1,2.1,0c0.7-0.1,1.5-0.8,2,0c0.5,0.8,0.4,1.7-0.4,2.3c0,0-0.1,0.1-0.1,0.1c-1.2,1.2-2.8,2.2-4.4,2.3
			c-10.9,0.9-21.1,4.5-31.7,6.6c-11.8,2.3-18.7,16.1-14.1,27.2c0.1,0.3,0.3,0.6,0.4,0.9c5,1.6,10,3.3,15,4.9
			c13.8,4.5,27.9,7.8,42.4,8.8c10.5,0.7,20.2-0.9,27.8-9.1c3.3-3.6,6.7-7.1,9.7-10.8c11.5-14.1,21.3-29.4,31-44.8
			c4.4-7,9.2-13.9,13.8-20.8c0.4-0.5,0.6-1.5,1.5-1c0.7,0.4,0.3,1.1,0.1,1.7c-3.1,9-6.8,17.7-11.1,26.2c-2.7,5.4-5.5,10.8-8.2,16.3
			c0,0.3,0,0.6,0,0.9v0c0,0.5,0,1.1,0.1,1.6c0-0.1-0.1-0.3-0.1-0.4c-0.1-0.3-0.2-0.6-0.3-0.7c-0.3-0.4-0.8,0-1.2,0.6
			c-3.7,7-8,13.6-13,19.7c-0.7,0.8-1.5,1.4-0.7,2.5c0.1,0.2,0.2,0.4,0.3,0.6c1.5,2.8,3.1,5.6,4.7,8.4c0,0,0,0.1,0,0.1
			c0,0,0.1,0.1,0.1,0.2c1.4,2.7,3,5.2,4.7,7.7c0.2-0.2,0.4-0.3,0.6-0.5c5.1-4.2,10.2-8.5,15.3-12.8c0.1-0.1,0.2-0.2,0.3-0.3
			c-0.2-0.3-0.3-0.7-0.5-1c0,0,0-0.1-0.1-0.1c0,0,0,0,0,0c-1.7-3.6-3.4-7.2-4.9-10.9c0-0.1-0.1-0.2-0.1-0.2c0,0,0-0.1,0-0.1
			c-1.3-3.8-3.2-7.4-4.5-11.2c0-0.1-0.1-0.1-0.1-0.2c0,0,0-0.1-0.1-0.1c-0.1-0.1-0.1-0.3-0.2-0.4c0.1,0.1,0.1,0.2,0.2,0.3
			c0,0,0,0.1,0,0.1c0,0.1,0.1,0.2,0.1,0.4c1.3,3.7,3.1,7.3,4.4,11c0,0.1,0,0.1,0.1,0.2c0.1,0.1,0.1,0.3,0.2,0.4
			c1.5,3.6,3.1,7.1,4.8,10.6c0,0.1,0.1,0.2,0.1,0.3c0,0,0,0.1,0,0.1c0.2,0.3,0.3,0.7,0.5,1c0.1-0.1,0.3-0.2,0.4-0.3
			c5.8-5,11.6-10.1,17.3-15.2c0.3-0.3,0.6-0.6,1-0.9c2.3-2.1,4.6-4.2,6.9-6.3c2.9-2.7,5.8-5.4,8.7-8.1c0.3-0.3,0.7-0.6,1-1
			c3.8-3.6,7.5-7.2,11.2-10.9c0.2-0.2,0.4-0.4,0.6-0.6C573.8,207,566.4,187.6,558.1,168.6z M450.1,202.8c0,0.1,0.1,0.2,0.2,0.3
			c-0.1-0.1-0.1-0.1-0.1-0.2c-0.1-0.2-0.2-0.4-0.3-0.5c-0.1-0.1-0.1-0.2-0.2-0.3c-0.6-0.9-1.1-1.9-1.7-2.9c-0.1-0.1-0.1-0.2-0.1-0.3
			c0,0-0.1-0.1-0.1-0.1c-0.2-0.3-0.3-0.6-0.5-0.9c0,0-0.1-0.1-0.1-0.1c0,0,0,0,0,0c-0.3-0.6-0.7-1.3-1-1.9c-0.3-0.6-0.6-1.1-0.9-1.7
			c-0.1-0.1-0.1-0.2-0.2-0.3c0-0.1,0-0.1-0.1-0.2c-2.2-5-4.1-10.2-5.8-15.4c1.9,5,3.5,10.2,5.8,15.1c0,0.1,0.1,0.3,0.2,0.4
			c0,0.1,0.1,0.2,0.2,0.4c0.3,0.6,0.5,1.1,0.8,1.7c0.3,0.6,0.6,1.1,0.9,1.7c0.1,0.1,0.1,0.2,0.2,0.2c0,0,0.1,0.1,0.1,0.1
			c0.2,0.3,0.3,0.6,0.5,0.9c0,0,0,0.1,0.1,0.1c0,0,0,0.1,0,0.1c0.6,1,1.2,2.1,1.8,3.1c0.1,0.1,0.1,0.2,0.2,0.3
			C449.9,202.6,450,202.7,450.1,202.8z M434.5,156.8C434.5,156.7,434.5,156.7,434.5,156.8c-0.1-0.2-0.1-0.4-0.1-0.5c0-0.3,0-0.7,0-1
			v0.1c0,0.2,0,0.5,0,0.7c0,0.2,0.1,0.4,0.1,0.6C434.5,156.7,434.5,156.7,434.5,156.8C434.5,156.8,434.6,156.8,434.5,156.8
			c0.1,0.1,0.1,0.2,0.1,0.2c0,0,0-0.1,0-0.1c0,0,0,0,0,0C434.5,156.8,434.5,156.8,434.5,156.8z M434.5,153.5
			C434.5,153.5,434.5,153.4,434.5,153.5C434.5,153.4,434.5,153.4,434.5,153.5c0.2,0.4,0.1,0.8,0,1.1
			C434.5,154.2,434.5,153.9,434.5,153.5L434.5,153.5z M434.7,158c0.8,5.8,1.7,11.5,3.3,17.1c-1.7-5.4-2.4-11-3.3-16.6
			C434.7,158.3,434.7,158.2,434.7,158z M341.1,164.3c4.7,1.2,10.1,2.7,15.5,4.8C351.2,167.1,345.8,165.5,341.1,164.3z M386.7,169.4
			c0,0-0.1,0-0.1-0.1c-0.1,0-0.2-0.1-0.2-0.1c-1-0.5-2.1-1-3-1.6c-0.1-0.1-0.3-0.2-0.4-0.2c-0.1,0-0.2-0.1-0.2-0.2
			c-2.4-1.3-4.8-2.5-7.3-3.8c-0.1,0-0.1-0.1-0.2-0.1c0,0-0.1-0.1-0.1-0.1h0c-1.4-0.7-2.7-1.4-4.1-2c0,0-0.1,0-0.1-0.1
			c-0.6-0.4-1.2-0.4-1.8-0.7c-0.2-0.2-0.2-0.2,0.1,0c0,0,0.1,0,0.1,0c0,0,0,0,0.1,0.1c0.5,0.2,1,0.3,1.5,0.6c0,0,0.1,0,0.1,0.1
			c0,0,0,0,0,0c0.1,0,0.1,0.1,0.2,0.1c1.4,0.5,2.7,1.2,4,1.9l0.4,0.2c0.1,0,0.2,0.1,0.3,0.1c2.4,1.2,4.9,2.5,7.3,3.8
			c0.1,0,0.1,0.1,0.2,0.1c0.1,0,0.1,0.1,0.2,0.1c1,0.6,2,1.1,3,1.6C386.5,169.2,386.7,169.2,386.7,169.4c0.2,0,0.3,0.1,0.5,0.2
			c0.1,0,0.2,0.1,0.3,0.2C387.2,169.6,387,169.5,386.7,169.4z"/>
		<path class="st126" d="M434.1,151.3c0,0.1,0,0.2,0,0.3C434.1,151.5,434.1,151.4,434.1,151.3z"/>
		<path class="st126" d="M434,151.8c0,0.1,0,0.2,0,0.3C434,151.9,434,151.8,434,151.8z"/>
		<path class="st126" d="M434.1,152.3c0,0.1,0,0.1,0,0.2C434.1,152.4,434.1,152.3,434.1,152.3z"/>
		<path class="st126" d="M434.2,152.8L434.2,152.8C434.2,152.8,434.2,152.8,434.2,152.8z"/>
		<path class="st79" d="M505.5,293.3c-0.2,0.2-0.4,0.3-0.6,0.5c-1.9,1.5-3.9,3.1-5.8,4.6c-0.3,0.2-0.5,0.4-0.8,0.6
			c-1,0.8-1.9,1.5-2.9,2.3c-0.2,0.2-0.4,0.3-0.6,0.4c-3.9-3.7-7-8.2-10.5-12.7c4.9-1.6,9.4-3.4,12.9-7.2c1.1-1.2,1.2,0,1.6,0.5
			c0.1,0.1,0.2,0.2,0.3,0.2C500.8,286.5,502.9,290.1,505.5,293.3z"/>
		<path class="st126" d="M381.7,266.2c-3.1-13.2,6.9-22.2,22.9-20.2c-5.7,7-8.2,14.6-5.2,23.3c-1.1,1.2-2.3,0.3-3.3,0
			c-3.7-1.1-7.5-1.8-11.4-1.9C383.5,267.4,382.5,267.1,381.7,266.2z"/>
		<path class="st33" d="M377.3,335.3c-9.9-11-19.5-22.1-25.1-36.1c-1.9-4.7-2.9-9.6-1.9-14.5c1.8-9.2,9.3-16,18.7-17.4
			c1-0.2,2-0.3,3.1-0.4c2.4,0.2,4.8,0.4,7.2,0.6c-3,0.8-5.9,1.7-8.8,2.6c-12.2,3.8-17.7,13.7-14.4,26.1c1.6,6.1,4.7,11.5,7.8,16.8
			c3.9,6.6,7.8,13.1,12.3,19.4C376.9,333.2,377.9,334,377.3,335.3z"/>
		<path class="st33" d="M405.9,308.5c12.9,8.5,25.4,17.4,37.9,26.5c0.6,0.4,1.1,0.9,1.7,1.3c-0.3,0.3-0.7,0.3-1,0.1
			c-13.7-7.1-26.4-15.4-37.8-25.9c-0.6-0.6-1.3-1-1.9-1.5C404.7,307.8,405.4,308.3,405.9,308.5z"/>
		<path class="st164" d="M508.2,266.3c2.8,2.3,3.8,5.7,5.4,8.8c-0.1,0.4-0.3,0.6-0.7,0.6c-1.7-2.1-2.7-4.5-3.9-6.9
			c-0.4-0.8-0.8-1.5-1.6-0.4C507.2,267.5,507.9,267,508.2,266.3z"/>
		<path class="st165" d="M523.7,246c-1-0.2,0.4-2.7-1.7-1.9c-0.1-1.1,1.1-1.3,1.5-2c0.3,1.1,0.6,2.2,0.9,3.3
			C524.6,246.1,524.2,246.1,523.7,246z"/>
		<path class="st166" d="M446.2,336.6c-0.2,0.2-0.5,0.3-0.7,0.5c-0.4-0.2-0.7-0.5-1-0.8c0.3,0,0.7,0,1-0.1
			C445.7,336.4,446,336.5,446.2,336.6z"/>
		<path class="st33" d="M405.9,308.5c-0.4,0.2-0.8,0.3-1.2,0.5c-0.5-0.1-1.2-0.6-1-0.8C404.5,307.4,405.3,307.9,405.9,308.5z"/>
		<path class="st126" d="M408.4,106.1c0-2.4,2-3.9,2.9-5.9c1.7-3.6,3.7-7.1,4.6-11.2c-4.4,4.3-9.4,7.6-14.9,10.2
			c-2.2,0.5-4.4,1.1-6.6,1.3c-3.6,0.4-7.2-0.6-9.8-3c-6.4-5.7-12.2-12-15.9-19.9c-2.8-6.1-1.7-13.1-5.1-19c-0.6-1,0.7-1,1.2-1.2
			c2-1,4-2.1,5.6-3.8c0.7-0.7,1.8-1.3,0.9-2.5c-1-1.3-2-0.5-3,0.1c-1.9,1.2-3.5,2.8-5,4.6c-1.3-1.3-0.7-3-1.5-4.1
			c-0.3-6.2-0.1-12.4,2.3-18.3c1.8-4.4,4.5-8,8.1-11.6c1.7,9.4,6.8,16.4,14,22c1.2,0.9-0.2,0.8-0.3,1.2c-0.2,0.5-0.7,0.7-1.1,1
			c-0.5,0.4-0.9,0.9-0.5,1.5c0.4,0.6,1,0.6,1.6,0.5c1.5-0.1,2.8-1.3,4.4-0.8c3.3,0.7,6.3,2.4,10.4,2.1c-4.5-3.3-9.3-5.7-12.2-10.2
			c-0.1-0.7,0.2-1,0.9-0.7c5.1,4,10.8,6.7,17.3,7.9c1.7,0.3,2.7,1.4,3.6,2.8c0.9,1.5,1.8,3,2.7,4.5c1,1.5,2,2.9,4.2,2.4
			c2.1-0.4,2.8-2,3.2-3.7c0.8-3.9,3.3-6.4,7-7.5c6.4-2,11.8,2.4,12.1,9.8c0.4,7.9-5.1,14.5-13,15.4c-1.6,0.2-2.5,0.3-1.8,2.3
			c4.4,11.7,11.1,21.4,22.7,27.1c3.5,1.7,7.3,2.2,11.1,2.3c0.8,0,1.9-0.8,2.4,0.6c-2.4,2.5-3.8,5.6-5.4,8.6
			c-4,7.3-9.3,13.4-16.8,17.3c-6.7,3.4-13.5,4.3-20.2-0.3c-2.5-1.7-4.2-4.1-3.9-7C415.2,114.5,411.7,110.4,408.4,106.1z"/>
		<path class="st142" d="M471.4,53.2c6.6-0.7,13.1-1.1,19.4,1.6c1.7,0.7,3.3,1.6,4.7,2.8c2.5,2.2,3.1,4.7,1.6,7.7
			c-1.2,0-1.4-1.1-2-1.8c-5.1-5.7-11.5-8.4-19.1-8.5c-2.9,0-5.8,0.1-8.5-1.2C468.6,52.2,470.2,53.9,471.4,53.2z"/>
		<path class="st145" d="M390.3,47.1c-1.2,0.5-2.5,1.1-3.7,1.4c-1.4,0.4-3.3,0.6-3.6-1.2c-0.3-1.9,1.1-2.7,3-2.5
			c2-0.8,3.1,1.4,5,1.4C391.3,46.2,390.3,46.7,390.3,47.1z"/>
		<path class="st142" d="M456.2,40.8c1.2,3.1,2.8,6,4.9,8.5c0.6,0.6,1.5,1.2,1,2.4c-3.5-2.3-5.4-5.6-6.7-9.5
			C455.1,41.3,455.1,40.8,456.2,40.8z"/>
		<path class="st142" d="M471.4,53.2c-1.1,1-2.7-0.3-3.8,0.8c-0.8,0-1.6-0.3-1.7-1c-0.1-0.6,0.7-0.2,1.1-0.4
			C468.5,52.8,470,53,471.4,53.2z"/>
		<path class="st168" d="M389.3,38.3c-0.3,0.2-0.6,0.5-0.9,0.7c-0.8-0.6-1.4-1.4-1.6-2.5C388.2,36.4,388.7,37.5,389.3,38.3z"/>
		<path class="st126" d="M193,127.1c6.7-1.7,12.7-4.9,18.7-8c1.3-0.7,2.5-1.4,4.1-1.3c6.5,0.5,13,0,19.4-1.2
			c5.9-1.2,11,1.3,16.2,3.1c8.4,2.9,16.5,6.5,25.1,8.8c4.7,1.2,9.6,1.6,14.3,2.8c2.9,0.8,5,2.3,6.4,4.9c3.8,6.9,3.9,14,1.5,21.3
			c-0.6,2.2-2.2,2.1-3.9,1.5c-2.8-1-5.2-2.8-7.3-4.9c-3-4.1-7.1-6.4-11.9-7.7c-1.2-0.3-2.4-0.6-3.5-1.2c-0.7-1.7-1.8-0.7-2.8-0.4
			c-6.6,2.1-13.2,2.1-19.7,0c-3.4-1.1-6.8-1.2-10.3-0.2c-4.2,1.1-8.3,2.4-12.7,2.4c-3.4,0-4.9-1.5-5-4.8c0.9-1.6,2.1-3,4.1-3.3
			c0.9-0.2,1.7-0.5,2.4-1.1c1.4-1.6,3.3-2,5.2-2.4c3.2-0.6,6.4-1.3,9.5-2.2c0.6-0.1,1.1-0.3,1.5-0.8c-0.5,0.4-1,0.7-1.6,0.7
			c-2.7-1.9-5.3-3.7-8.6-4.6c-2.6-0.7-5.2-1.2-7.9-1c-4.7,0.4-9.4-1.3-14.1-0.1c-4.5,0.9-8.6,3.4-13.3,3.6c-1.7,0.1-3.3,0.1-4.9-0.5
			C192.4,129.9,191.5,128.8,193,127.1z"/>
		<path class="st169" d="M243.6,133.3c-1.8,1.3-3.9,1.8-6.1,2c-3.2,0.4-6.2,1.6-9.2,2.4c-1.1-0.8-2.8-0.3-3.6-1.6
			c-1.9-4.1-2.7-4.5-7.2-3.5c-1.1-0.3-1.8-1-1.9-2.1c0.2,0,0.4,0,0.6-0.1c0.3-0.1,0.5-0.4,0.1-0.5c-0.9-0.4-1.9-0.6-2.8-0.9
			c-0.2-0.6-0.9-0.4-1.2-0.8c0-0.2,0-0.4,0-0.6c2.1-1.2,4.2-1.9,6.7-1.3c1.7,0.4,3.5,0.5,5.2,0.4c7.2-0.4,13.8,1.2,19.4,6
			C243.9,132.8,243.9,133.1,243.6,133.3z"/>
		<path class="st33" d="M215.6,130.4c0.6,0.6,1.3,1.1,1.9,1.7c0.5,1,0,1.6-0.8,2.1c-4.3-0.4-8.5-0.8-13.3-2.1
			C207.8,130.8,211.6,129.8,215.6,130.4z"/>
		<path class="st33" d="M216.7,134.2c0.3-0.7,0.5-1.4,0.8-2.1c2-1.4,4.1-1.1,5.9,0.1c1.3,0.8,2.2,2.1,1.3,3.9
			C222,135.7,219.2,135.4,216.7,134.2z"/>
		<path class="st171" d="M225.9,138.8c-1.1,1-2.3,2-3.4,2.9c-0.5-0.1-0.5-0.6-0.6-0.9c0.5-1.3,1.9-1.7,2.6-2.8
			c-0.8-0.3-1.6-0.6-2.5-0.9C223.6,136.9,225,137.4,225.9,138.8z"/>
		<path class="st169" d="M212.3,128.1c0.5-0.1,1-0.3,1.3-0.2c0.4,0.2-0.1,0.6-0.2,1C213,128.6,212,129.3,212.3,128.1z"/>
		<path class="st173" d="M288.1,153.3c2.1,2.1,4.4,4,7.3,5c1.4,0.5,2.6,0.6,3.5-0.9c0.5,1.5,0,3.2,0.9,4.6c-0.5,2.7-2.5,4.4-4.6,5.8
			c-1.9,1.3-3.9,1.2-5.6-0.6c-0.7-0.7-1.3-1.6-2.5-1.3c0.5-2.8-0.6-5.5-1.1-8.2c-0.1,0.5-0.2,0.9-0.3,1.4c-0.6-2-1.2-4-1.8-6
			c0.3-1.9,0.9-3,2.7-1C286.9,152.6,287.3,153.3,288.1,153.3z"/>
		<path class="st174" d="M299.9,132.7c-0.8,0.5-1.9-0.4-2.7,0.5c-0.3-0.3-0.8-0.5-0.9-0.8c-0.2-1,0.6-0.6,0.9-0.5
			C298.2,132.1,299.1,132.4,299.9,132.7z"/>
		<path class="st13" d="M393.7,189.2c1.8-0.7,3.9-1.1,4.3-3.5c0.7-0.4,1.2,0.6,1.8,0.3c1.6,2.2,2.8,4.5,3.7,7.1
			c-0.6,0.2-1.3,0.4-1.5-0.4c-0.6-1.7-1-1.3-2.1-0.2c-1.5,1.3-3.3,1.3-4.5-0.7c-0.5-0.8-0.6-1.7-1.6-2.1
			C393.9,189.4,393.9,189.3,393.7,189.2L393.7,189.2z"/>
		<path class="st144" d="M450.1,202.1c1,1.4,1.9,2.9,3.1,4.7c2.1-5.5,4.1-10.7,5.9-16c0.3-0.8-0.3-2-0.5-3
			c-6.3-28,0.4-52.4,20.7-72.8c3.2-3.2,6.9-5.6,11.1-7.2c1-0.4,1.9-0.8,3.5,0c-15.1,6.6-24.4,18.3-30,33.1
			c-5.5,14.6-7.4,29.5-3.3,45c1.5-4.7,2.9-9.4,4.4-14.1c1.1,2.3,0.4,4.3-0.1,6.4c-3.3,13.8-9.3,26.7-13.4,40.3
			c-1.3,4.2-2.6,8.4-4,12.6c-1.2-0.5-1.1-1.7-1.1-2.7c0.5-5.7,3.4-10.6,4.9-15.9c0.7-2.6,1.5-4.8-0.7-7c-0.7-0.7-0.9-1.8-1.4-2.7
			C449.2,202.1,449.6,202,450.1,202.1z"/>
		<path class="st120" d="M437.4,225.3c1.2,0.6,2.2,1.6,3.1,2.7c-0.3,0.2-0.5,0.4-0.8,0.6c-1.1-0.8-2.3-1.5-2.9-2.8
			C436.7,225.3,437,225.2,437.4,225.3z"/>
		<path class="st142" d="M261.2,218.3c-0.1,1.4-0.2,2.9-0.4,4.3c-0.5,4.8-1.8,5.8-6.7,5.1c-9.5-1.4-19-2.8-28.5-4.2
			c-19.9-2.8-39.7-5.6-59.6-8.4c-3.8-0.5-5.3-2.3-5-6c0.3-3.6,0.6-7.2,1-10.8c0.4-3.6,2.5-5.3,6.2-4.8c14,2.1,28,4.2,42,6.3
			c11.7,1.8,23.5,3.6,35.2,5.4c3.9,0.6,7.8,1,11.7,1.6c3,0.4,4.7,2.5,4.6,5.6c0,1-0.2,2.1-0.3,3.1
			C261.4,216.5,261.3,217.4,261.2,218.3C261.2,218.3,261.2,218.3,261.2,218.3z"/>
		<path class="st142" d="M227.4,254.2c0.7-1.1,1.4-2.2,2.3-3.6c-7.1-1-13.9-1.9-20.7-2.8c-15.2-2-30.3-4.1-45.5-6.1
			c-3.5-0.5-5.1-2.4-4.8-5.9c0.3-3.6,0.7-7.2,1-10.8c0.3-3.5,2.4-5.1,5.9-4.6c29.5,4,59,8.1,88.5,12.1c4.5,0.6,5.9,2.1,5.3,6.6
			c-0.6,4.7-1,9.1,3.8,12c0.2,0.6-0.2,0.8-0.7,1c-1.5,0-2.4-1.1-3.5-1.9c-9.1-7-20.5-6-28.2,2.7c-0.7,0.8-1.3,1.8-2.5,2.2
			C227.8,255,227.6,254.7,227.4,254.2z"/>
		<path class="st13" d="M227.4,254.2c0.2,0.3,0.4,0.6,0.6,0.9c0.8,2.3-0.8,4.2-1.3,6.2c-2.1,8.7,1.4,17.9,8.9,22.7
			c7,4.6,17.7,4,24.1-1.2c6.6-5.4,9.1-15,6.2-23.4c-0.7-1.9-2.1-3.6-2-5.8c0.2-0.5,0.5-0.9,1.1-0.6c5.9,7.3,6.2,18.5,0.7,26.6
			c-5.5,8.2-15.9,11.8-25.4,8.9C225.4,284,218.8,266.2,227.4,254.2z"/>
		<path class="st175" d="M288.1,153.3c-1,1-1.3-0.2-1.6-0.6c-1.3-1.9-2-0.9-2.8,0.4c-4.5-6.1-10.9-7.5-17.8-6.5
			c-6.1,0.9-11.9,0.9-17.6-1.3c-2.8-1.1-5.6-0.9-8.5-0.1c-4.4,1.3-8.9,2.7-13.6,2.5c-4.7-0.2-6.4-2.9-4.4-6.8
			c0.2,0.3,0.4,0.6,0.6,0.9c-0.1,3.2,1.1,4.4,4.5,4.3c4-0.1,7.8-1,11.5-2.2c4-1.3,7.8-1.3,11.8,0.1c6.6,2.4,13.2,1.6,19.8-0.1
			c0.9-0.4,1.4,0.1,1.9,0.7c4.9,1.1,9.5,2.6,13.5,5.8C286.6,151.2,287.6,152,288.1,153.3z"/>
		<path class="st121" d="M265,253.1c-0.3,0.2-0.5,0.5-0.8,0.7c-1.3-0.1-1.9-0.8-1.8-2.1c0.3-0.2,0.6-0.5,0.8-0.7
			C264,251.5,264.6,252.2,265,253.1z"/>
		<path class="st145" d="M399.8,185.9c-0.7,0.8-1.2-0.1-1.8-0.3c-0.9-1.9-2.2-3.8-2.8-5.8c-1.4-4.8-4.2-8.3-8.9-10.2
			c0-0.7,0.2-0.9,0.9-0.6c1.4,0.7,2.8,1.3,4.5,2.2c-1.5-6.9-4.1-13.7-2.3-20.7c0.6,0,0.8,0.4,0.8,0.8c0.9,11.4,4.3,22.2,8.9,32.7
			C399.4,184.6,399.6,185.3,399.8,185.9z"/>
		<path class="st10" d="M312.5,173.2c10.4-7,10.8-24.4,3.2-34.6c-0.6-0.8-1.5-1.4-1.7-2.8c1.9,0.7,2.9,2.2,3.7,3.6
			c5.1,9,6.8,18.2,1.7,27.9c-1.5,2.8-3.5,5.1-6.3,6.6C312.5,174.1,312.4,173.7,312.5,173.2z"/>
		<path class="st177" d="M366.1,151c-12.9,3.1-25.4,0.8-37.9-2.7c12.1,1.4,24.1,4.3,36.3,1.9C365.2,150.3,366.2,149.7,366.1,151z"/>
		<path class="st178" d="M358.7,170.4c-9.8-3.5-19.8-6.2-29.9-8.6c10.9,1,21.3,3.9,31.3,8.1C360,171.1,359.3,170.7,358.7,170.4z"/>
		<path class="st176" d="M441.8,261.1c-11.1,0.6-21.8-1.4-32.4-4.5c9.5,0.8,18.9,3,28.4,3.5C439.2,260.3,440.8,259.4,441.8,261.1z"
			/>
		<path class="st179" d="M397.5,157.5c-2.4-10.3-2.3-20.5,0.3-30.7c-0.8,9.8-1.2,19.7,0.3,29.5C398.3,156.9,398.6,157.6,397.5,157.5
			z"/>
		<path class="st115" d="M508.2,157.9c-4.9,8.6-9.8,17.2-15.2,25.5c-0.3-0.2-0.4-0.4-0.5-0.7c4.7-8.8,9.8-17.2,15.2-25.6
			C508.1,157.3,508.1,157.7,508.2,157.9z"/>
		<path class="st180" d="M495.5,217.2c4.9-7.9,9.7-15.7,14.6-23.6c0.4,0.1,0.4,0.4,0.5,0.7c-4.4,8.2-9.3,16-14.5,23.7
			C495.5,218,495.1,217.8,495.5,217.2z"/>
		<path class="st135" d="M549.3,244.5c1.2,2.9,2.4,5.7,3.6,8.7c-0.3,0.3-0.6,0.6-1,0.9c-0.9-2.5-1.9-5-2.8-7.4
			C548.8,245.8,548.6,245.1,549.3,244.5z"/>
		<path class="st132" d="M352,141c-8.7,2.6-17.2,0.6-25.8-1.2c8.2,0.2,16.3,2.1,24.5,0.5C351.4,140.1,352.1,139.9,352,141z"/>
		<path class="st171" d="M439.4,140.6c-8.1,2.6-16.2,2.9-24.2-0.8c-0.5-0.2-0.8-0.5-1.3-0.8c-0.2-0.2-0.2-0.4-0.1-0.5
			c0.1-0.1,0.2-0.2,0.2-0.2c3.4,0.9,6.6,2.5,10.2,2.8c5.2,0.5,10.2-0.4,15.2-1.7C439.8,139.9,439.8,140.3,439.4,140.6z"/>
		<path class="st181" d="M485.3,156.3c3.2-7.2,6.9-14.1,11.3-20.5c0.6,0,1,0.2,0.6,0.9c-3.9,6.8-7.9,13.5-11.3,20.6
			C485.2,157.2,485,156.9,485.3,156.3z"/>
		<path class="st182" d="M342.4,180.2c6.1,1.2,12.2,2.3,18.3,3.5c-0.1,0.3-0.1,0.6-0.2,0.9c-6.9-0.4-13.6-1.8-20.1-3.9
			C340.9,180,341.8,180.7,342.4,180.2z"/>
		<path class="st182" d="M416.4,168.6c-2.2-7.4-3.7-14.9-3.5-22.7c1.4,7.3,2.5,14.7,4.3,21.9C417.3,168.5,417.1,168.7,416.4,168.6z"
			/>
		<path class="st176" d="M479.2,170.7c-2.6,6-5.5,11.8-8.6,17.6c-0.7,0-0.9-0.3-0.6-0.9c2.5-6,5.4-11.9,8.6-17.7
			C479.4,169.7,479.6,170,479.2,170.7z"/>
		<path class="st137" d="M438.8,176.5c2.6,5.5,4.3,11.3,6.6,16.9c0.2,0.7-0.1,0.8-0.7,0.7c-2.7-5.2-4.7-10.7-6.2-16.4
			C438.3,177.2,438.4,176.8,438.8,176.5z"/>
		<path class="st183" d="M438.8,176.5c-0.1,0.4-0.2,0.8-0.3,1.2c-2.6-6.2-3.5-12.8-4.3-19.4c0.5-0.5,0-1.5,0.8-1.9
			C436.3,163.1,437.5,169.8,438.8,176.5z"/>
		<path class="st184" d="M415,198.4c4,5.5,7.7,11.1,12,16.4c-5.2-4.4-9.3-9.8-12.7-15.8C414.1,198.3,414.4,198.2,415,198.4z"/>
		<path class="st185" d="M474,271.4c-5.6,2.8-11.6,3.7-17.8,4c-0.4-0.3-0.9-0.5-0.5-1.1c6-0.3,11.9-1.6,17.6-3.6
			C473.9,270.5,474.1,270.8,474,271.4z"/>
		<path class="st186" d="M455.7,274.3c0.2,0.4,0.3,0.8,0.5,1.1c-7.5,0.3-14.9-0.7-22.2-2c1-1.6,2.3-0.4,3.5-0.3
			c4.7,0.4,9.4,0.8,14.1,1.2c1.1-0.3,2.3,0.2,3.5-0.1C455.2,274.3,455.5,274.3,455.7,274.3z"/>
		<path class="st113" d="M361.1,137.5c5.4-2.2,10.8-4.3,16.2-6.5c0.3,0.1,0.7,0.2,0.7,0.7c-5.3,2.5-10.7,4.9-16.3,6.5
			C361.4,138,361.2,137.8,361.1,137.5z"/>
		<path class="st177" d="M502.8,127.5c3.2-4.1,6.8-7.7,12.1-9c-4.3,2.7-8.1,6.1-11.5,9.8C502.8,128.3,502.5,128.1,502.8,127.5z"/>
		<path class="st116" d="M420.9,179.6c2.1,5.2,4.2,10.5,6.4,15.7c0.2,0.5,0.8,1.2,0,1.6c-0.9,0.4-0.9-0.5-1.1-1
			c-2.2-5.1-4.6-10.1-6-15.5C420,179.7,420.3,179.5,420.9,179.6z"/>
		<path class="st187" d="M358.7,170.4c0.5-0.2,0.9-0.3,1.4-0.5c5.1,1.8,10,4,14.7,6.7c-0.1,0.5-0.6,0.5-1,0.6
			C368.8,175,363.7,172.7,358.7,170.4z"/>
		<path class="st186" d="M441.8,261.1c-1.2-1.1-2.7-0.5-4-0.9c5.8-0.4,11.6-0.6,17.4-1.4C450.9,260.8,446.4,261.3,441.8,261.1z"/>
		<path class="st137" d="M518.7,282.7c-0.2,0.2-0.4,0.3-0.6,0.5c0,0,0,0,0,0c-0.2,0.1-0.3,0.3-0.5,0.4c-1.8-2.5-3.4-5.1-4.7-7.9
			c0.1-0.1,0.2-0.2,0.4-0.3c0,0,0,0,0,0c0.1-0.1,0.2-0.2,0.3-0.3C515.3,277.6,517,280.1,518.7,282.7z"/>
		<path class="st114" d="M466.3,113.1c2.6-4.8,5.6-9.3,10.8-11.8l0,0.2c-0.8,2-2.9,2.7-4.2,4.3c-2,2.7-4.1,5.3-6.2,8
			C466.5,113.7,466.3,113.5,466.3,113.1z"/>
		<path class="st189" d="M437.4,225.3c-0.2,0.2-0.4,0.3-0.6,0.5c-3.6-2.7-6.3-6.2-9-9.8C431.5,218.7,434.7,221.8,437.4,225.3z"/>
		<path class="st190" d="M553.2,201.8c-1.8-4.2-3.6-8.4-5.4-12.6c0.3-0.1,0.6-0.3,0.9-0.4c2.1,3.9,3.8,8,5.2,12.3
			C554.1,201.7,553.8,201.9,553.2,201.8z"/>
		<path class="st192" d="M405.2,178.7c-0.8,0.2-1.3,0.2-1.7-0.7c-1.5-3.9-3.2-7.7-3.9-11.8c-0.2-0.7,0.1-0.9,0.8-0.8
			C402,169.8,403.6,174.2,405.2,178.7L405.2,178.7z"/>
		<path class="st177" d="M508.6,155.5c1.9-3.9,4.3-7.4,7-10.8c0.4,0.1,0.4,0.5,0.5,0.8c-2.3,3.6-4.6,7.2-7,10.8
			C508.7,156.2,508.7,155.8,508.6,155.5z"/>
		<path class="st137" d="M523.7,246c0.2-0.2,0.4-0.4,0.6-0.6c2,3.6,3.3,7.6,4.7,11.4c0.2,0.7-0.1,0.9-0.7,0.8
			C526.6,253.8,524.7,250,523.7,246z"/>
		<path class="st193" d="M528.3,257.6c0.2-0.3,0.5-0.5,0.7-0.8c1.7,3.8,3.4,7.5,5.1,11.3c-0.2,0.3-0.3,0.6-0.7,0.7
			C531.3,265.2,529.7,261.5,528.3,257.6z"/>
		<path class="st194" d="M567.8,234.2c0.6,1.2,1.1,2.4,1.7,3.6c-0.3,0.3-0.7,0.7-1,1c-0.6-1.5-1.1-3-1.6-4.5
			C567.2,234,567.5,234,567.8,234.2z"/>
		<path class="st195" d="M507.9,234c1.9-3.2,3.9-6.3,5.8-9.5c0.7,0,0.9,0.3,0.6,0.9c-1.6,3.3-3.5,6.5-5.8,9.4
			C508.1,234.8,508.1,234.3,507.9,234z"/>
		<path class="st197" d="M524.1,170c-1.7,3.5-3.3,7.2-5.8,10.3c-0.3-0.4-0.4-0.7-0.1-1.2c1.5-3.6,3.5-7.1,5.5-10.4
			C524.8,168.9,524.4,169.4,524.1,170z"/>
		<path class="st133" d="M491.4,186.4c-1.9,3.5-4.1,6.9-6.4,10.1c-0.4-0.1-0.4-0.4-0.5-0.7c1.9-3.6,3.9-7,6.3-10.2
			C491.2,185.7,491.3,186.1,491.4,186.4z"/>
		<path class="st114" d="M507.9,234c0.2,0.3,0.4,0.6,0.6,0.9c-1.7,3-3.7,5.9-5.9,8.6c-0.6,0-1-0.1-0.6-0.8
			C504,239.8,506,236.9,507.9,234z"/>
		<path class="st164" d="M514.3,225.5c-0.2-0.3-0.4-0.6-0.6-0.9c1.6-3.4,3.6-6.6,5.7-9.7c0.4,0.1,0.4,0.6,0.6,0.9
			C518.1,219,516.2,222.2,514.3,225.5z"/>
		<path class="st122" d="M414.1,138.3c0,0.2-0.1,0.5-0.1,0.7c-3.2-1.7-6.2-3.6-8.2-6.8c-0.1-0.7,0.2-0.9,0.8-0.7
			C408.6,134.3,411.7,135.9,414.1,138.3z"/>
		<path class="st198" d="M567.8,234.2c-0.3,0-0.7,0-1,0c-1.3-3.2-2.7-6.4-4-9.6c-0.2-0.7,0.1-0.9,0.7-0.8
			C565.1,227.3,566.9,230.6,567.8,234.2z"/>
		<path class="st199" d="M339.3,180.4c-3-0.6-6-1.5-8.6-3c0.1-0.3,0.2-0.6,0.3-0.8c3.5,1.1,6.9,2.3,10.4,3.4
			C340.7,180.6,339.9,180,339.3,180.4z"/>
		<path class="st195" d="M389.9,186.2c-3-1.7-5.9-3.4-8.9-5.1c0-0.6,0.2-1,0.9-0.6c3.1,1.5,6.1,3.1,8.9,5.1
			C390.6,186,390.2,186,389.9,186.2z"/>
		<path class="st185" d="M530.6,196.4c-1.2,3-2.9,5.8-4.7,8.6c-0.6,0-0.9-0.2-0.6-0.9c1.5-2.9,3.1-5.8,4.6-8.7
			C530.7,195.4,530.9,195.8,530.6,196.4z"/>
		<path class="st200" d="M380.2,145.9c2.8-1.5,5.7-2.7,8.9-3.3c-2.7,1.9-5.6,3.4-8.9,4.1c-0.2-0.2-0.2-0.3-0.2-0.5
			C380.1,146,380.2,145.9,380.2,145.9z"/>
		<path class="st202" d="M542.8,225.8c1.2,3.2,2.3,6.4,3.5,9.7c-0.2,0.3-0.3,0.7-0.8,0.8c-1.4-3.2-2.6-6.4-3.4-9.7
			C541.8,225.8,542.2,225.7,542.8,225.8z"/>
		<path class="st203" d="M530.1,157.2c1.4-2.8,2.6-5.7,5.8-7.3c-1.7,2.7-3.4,5.5-5.2,8.2C530.1,158.1,529.8,157.8,530.1,157.2z"/>
		<path class="st204" d="M495.5,217.2c0.2,0.3,0.4,0.5,0.6,0.8c-1.9,2.8-3.3,5.8-5.7,8.2c-0.2,0.2-0.4,0.2-0.6,0
			C491.3,222.9,493.4,220,495.5,217.2z"/>
		<path class="st137" d="M545.5,236.3c0.3-0.3,0.5-0.5,0.8-0.8c1.2,2.9,2.4,5.9,3,9c0,0,0.1-0.1,0.1-0.1c-0.7,0.3-1.1,0.1-1.4-0.7
			C547.2,241.3,546.4,238.8,545.5,236.3z"/>
		<path class="st205" d="M415,198.4c-0.2,0.2-0.5,0.4-0.7,0.6c-1.9-2.4-3.3-5-4.4-7.8c-0.2-0.7,0.2-0.8,0.7-0.7
			C412,193.1,413.5,195.8,415,198.4z"/>
		<path class="st206" d="M431.8,206.1c-1.8-2.5-3.2-5.3-4.4-8.1c0.3-0.2,0.6-0.4,1-0.6c1.4,2.7,2.8,5.3,4.2,8
			C432.6,206.1,432.3,206.2,431.8,206.1z"/>
		<path class="st207" d="M473,214.1c1.4-2.5,2.8-5.1,4.7-7.4c0.5,0.1,0.5,0.6,0.6,0.9c-1.6,2.4-3.2,4.8-4.8,7.3
			C473,214.8,473,214.5,473,214.1z"/>
		<path class="st209" d="M479.2,267.3c3-2.5,6-4.9,9-7.4c0.2,0.1,0.4,0.2,0.5,0.4c-2.6,3.2-5.8,5.7-9.4,7.9
			C478.9,267.9,478.9,267.6,479.2,267.3z"/>
		<path class="st205" d="M382.6,167.6c-2.5-1.3-5-2.6-7.6-3.9c0-0.7,0.3-1,1-0.6c2.6,1,5.1,2.5,7.5,4
			C383.4,167.6,383.3,167.9,382.6,167.6z"/>
		<path class="st210" d="M470.1,187.4c0.2,0.3,0.4,0.6,0.6,0.9c-1.2,2.6-2.5,5.2-3.7,7.8c-0.6,0-1-0.2-0.7-0.9
			C467.2,192.4,468.6,189.9,470.1,187.4z"/>
		<path class="st171" d="M400.4,165.3c-0.3,0.3-0.5,0.5-0.8,0.8c-1.1-2.8-1.7-5.7-2.1-8.6c0.2-0.4,0.4-0.8,0.6-1.3
			C398.9,159.3,399.6,162.3,400.4,165.3z"/>
		<path class="st211" d="M330.2,177.2c-2.7-0.7-5.2-1.9-7.5-3.4c0.1-0.3,0.2-0.6,0.4-0.8c2.5,1.1,5,2.3,7.4,3.4
			C330.3,176.6,330.3,176.9,330.2,177.2z"/>
		<path class="st207" d="M538.1,182c-1,2.5-2.2,5-3.7,7.2c-0.5-0.1-0.5-0.6-0.6-1c1.2-2.4,2.5-4.8,3.7-7.2
			C538.1,181.1,538.4,181.3,538.1,182z"/>
		<path class="st212" d="M304,163.3c2.7,0.2,5.3,0.6,7.5,2.2C308.8,165.5,306.2,165.3,304,163.3z"/>
		<path class="st213" d="M563.5,223.9c-0.2,0.3-0.5,0.5-0.7,0.8c-1-2.4-2.1-4.7-3.1-7.1c-0.2-0.7,0.1-0.9,0.8-0.8
			C561.5,219.2,562.5,221.6,563.5,223.9z"/>
		<path class="st114" d="M477.1,244.5c-1.7,1.9-2.9,4.3-5.6,4.9l0.1,0.1c1-2.5,3.2-4,5-5.8C477,243.7,477.4,243.9,477.1,244.5z"/>
		<path class="st215" d="M518.2,179.1c0,0.4,0.1,0.8,0.1,1.2c-0.4,2.4-2,4.3-3.2,6.3c-0.6,0-1-0.2-0.6-0.8
			C515.5,183.4,516.7,181.2,518.2,179.1z"/>
		<path class="st216" d="M471.4,249.5c-0.7,2.8-3.2,3.8-5.3,5.1c-0.3-0.1-0.4-0.3-0.5-0.6C467.5,252.4,469.1,250.4,471.4,249.5
			C471.5,249.5,471.4,249.5,471.4,249.5z"/>
		<path class="st137" d="M479.2,170.7c-0.2-0.3-0.4-0.7-0.6-1c1-2,2-4,3-6c0.7-0.1,1,0.2,0.7,0.9
			C481.5,166.7,480.6,168.8,479.2,170.7z"/>
		<path class="st217" d="M520,215.7c-0.2-0.3-0.4-0.6-0.6-0.9c1.1-1.9,2.1-3.8,3.2-5.7c0.6,0,0.9,0.2,0.6,0.9
			C522.4,212.1,521.2,213.9,520,215.7z"/>
		<path class="st218" d="M514.5,185.8c0.2,0.3,0.4,0.6,0.6,0.8c-1,2.1-2,4.2-3.5,6.1c-0.4-0.1-0.4-0.5-0.5-0.8
			C512.2,189.9,513.3,187.8,514.5,185.8z"/>
		<path class="st122" d="M366.1,151c-0.4-0.6-1-0.7-1.6-0.8c2-0.4,4-0.8,6-1.3c0.7-0.2,1.3-0.4,1.2,0.7
			C370,150.2,368.1,150.9,366.1,151z"/>
		<path class="st219" d="M489.8,226.2c0.2,0,0.4,0,0.6,0c-0.7,2.1-2.1,3.8-3.5,5.5c-0.4-0.1-0.6-0.4-0.6-0.8
			C487.4,229.2,488.2,227.3,489.8,226.2z"/>
		<path class="st220" d="M305.4,168.7c-1.6-0.4-3.3-0.8-4.9-1.1c0.1-0.3,0.1-0.6,0.2-0.9c2.4-0.3,4.5,0.7,6.7,1.6
			C306.8,168.9,306,168.2,305.4,168.7z"/>
		<path class="st221" d="M424.5,247.3c-1.9,0.7-3.9,0.5-5.8,0.6c-0.7-0.6-1.7,0-2.4-0.7c2-0.8,4.2-0.4,6.3-0.6
			C423.1,247,424,246.6,424.5,247.3z"/>
		<path class="st120" d="M542.8,225.8c-0.2,0.2-0.5,0.5-0.7,0.7c-0.9-1.7-1.5-3.5-1.8-5.4c0.1-0.3,0.3-0.5,0.6-0.6
			C541.9,222.2,542.5,224,542.8,225.8z"/>
		<path class="st222" d="M381.8,180.4c-0.3,0.2-0.6,0.4-0.9,0.6c-1.8-1-3.6-2-5.4-2.9c0.3-0.5,0.9-0.2,1.3-0.5
			C378.7,178.3,380.4,179.2,381.8,180.4z"/>
		<path class="st214" d="M499.9,247.2c-1,1.7-2.2,3.2-3.6,4.6c-0.4-0.1-0.6-0.4-0.6-0.8c1.2-1.5,2.4-3.1,3.6-4.6
			C499.9,246.4,500.4,246.5,499.9,247.2z"/>
		<path class="st223" d="M470.3,220c-1,1.7-1.8,3.6-4.1,5.2c0.8-2.8,2.3-4.3,3.6-5.9C470.2,219.4,470.2,219.7,470.3,220z"/>
		<path class="st224" d="M436.7,212.9c2.3,0.8,2.7,3.1,3.8,4.8C438.6,216.5,437.2,215,436.7,212.9L436.7,212.9z"/>
		<path class="st124" d="M523.2,210c-0.2-0.3-0.4-0.6-0.6-0.9c0.8-1.7,1.6-3.5,2.8-4.9c0.2,0.3,0.4,0.6,0.6,0.9
			C525.2,206.8,524.4,208.5,523.2,210z"/>
		<path class="st225" d="M413.2,268.6c-1.5-0.3-3.1-0.5-4.9-2c2.9-0.1,4.9,0.6,6.8,1.5C414.6,268.9,413.7,268.1,413.2,268.6z"/>
		<path class="st226" d="M354.1,139.4c1.7-0.5,3.4-0.9,5.1-1.4c0.3,0.2,0.6,0.3,0.6,0.7c-1.5,0.9-3.2,1.3-4.9,1.5
			C354.3,140.4,353.9,140.2,354.1,139.4z"/>
		<path class="st228" d="M420.9,179.6c-0.2,0.3-0.5,0.5-0.7,0.8c-0.9-1.7-1.4-3.5-1.8-5.4c0.2-0.3,0.3-0.7,0.7-0.7
			C420,175.9,420.5,177.7,420.9,179.6z"/>
		<path class="st229" d="M485.3,156.3c0.2,0.3,0.4,0.6,0.6,1c-0.8,1.6-1.5,3.2-2.3,4.8c-0.7,0-1-0.2-0.6-0.9
			C483.5,159.4,484.2,157.7,485.3,156.3z"/>
		<path class="st230" d="M539.6,176.8c0.8-1.6,1.5-3.2,2.3-4.8c0.5,2.5-0.8,4.3-1.8,6.2C539,178.1,539.3,177.5,539.6,176.8z"/>
		<path class="st231" d="M530.1,157.2c0.2,0.3,0.4,0.6,0.6,0.9c-0.8,1.7-1.5,3.4-2.9,4.7c-0.3,0.2-0.5,0.2-0.7-0.1
			C527.8,160.7,528.9,158.9,530.1,157.2z"/>
		<path class="st207" d="M437.4,273.2c-1.2,0.1-2.4-0.5-3.5,0.3c-1.8-0.4-3.7-0.7-5.5-1.1c1-1.7,2.3-0.4,3.5-0.3
			C433.7,272.4,435.7,272.3,437.4,273.2z"/>
		<path class="st232" d="M431.9,272.1c-1.2,0.1-2.4-0.6-3.5,0.3c-1.8,0.3-3.2-0.8-4.9-1.1c0.5-1.6,1.5-0.5,2.3-0.4
			C427.9,271,429.9,271.3,431.9,272.1z"/>
		<path class="st233" d="M376,163c-0.3,0.2-0.6,0.4-1,0.6c-1.4-0.8-3.2-0.7-4.1-2.3l-0.1-0.2C372.9,160.9,374.3,162.1,376,163z"/>
		<path class="st235" d="M456.1,239.4c-0.5,2.1-2.5,2.5-3.9,3.4c-0.4-0.1-0.6-0.4-0.7-0.8C453.1,241.2,454.1,239.4,456.1,239.4
			L456.1,239.4z"/>
		<path class="st171" d="M530.6,196.4c-0.2-0.3-0.4-0.7-0.6-1c0.9-1.6,1.9-3.3,2.8-4.9c0.4,0.1,0.4,0.6,0.6,0.9
			C532.7,193.2,531.8,194.9,530.6,196.4z"/>
		<path class="st121" d="M534.1,268.1c0.2,0.4,0.4,0.8,0.6,1.1c-0.1,0.1-0.3,0.2-0.4,0.3c0,0,0,0-0.1,0c-0.1,0.1-0.2,0.2-0.3,0.3
			c-0.2-0.4-0.4-0.7-0.5-1.1c0.1-0.1,0.2-0.2,0.3-0.3c0,0,0,0,0,0C533.9,268.3,534,268.2,534.1,268.1z"/>
		<path class="st236" d="M380.2,145.9c0,0.3,0,0.5,0,0.8c-1.2,1.1-2.7,1.3-4.2,1.6c-0.7,0.2-0.9-0.1-0.8-0.8
			C376.9,147,378.6,146.5,380.2,145.9z"/>
		<path class="st237" d="M406.6,131.5c-0.3,0.2-0.5,0.4-0.8,0.7c-1.2-1.3-2.1-2.9-2.6-4.7c0.2-0.3,0.3-0.8,0.8-0.8
			C404.8,128.3,405.7,129.9,406.6,131.5z"/>
		<path class="st114" d="M478.3,207.7c-0.2-0.3-0.4-0.6-0.6-0.9c0.8-1.6,1.7-3.2,3-4.6c0.4,0.1,0.4,0.4,0.5,0.7
			C480.6,204.7,479.5,206.2,478.3,207.7z"/>
		<path class="st148" d="M413.2,268.6c0.5-0.8,1.3-0.2,2-0.5c1.1,1.4,2.9,0.4,4.2,1.1c0.3,0.4,0.3,0.7-0.1,1.1
			C417.1,270.2,415.2,269.3,413.2,268.6z"/>
		<path class="st216" d="M560.5,216.8c-0.3,0.3-0.5,0.5-0.8,0.8c-0.7-1.7-1.4-3.4-2.2-5.1C559.4,213.5,559.9,215.2,560.5,216.8z"/>
		<path class="st238" d="M403.5,114.5c-0.1,2.4-0.2,4.7-0.3,7.1c-0.1,0.8,0.6,1.8-0.8,2.1c0-0.6-0.1-1.1-0.1-1.7
			C402.5,119.5,401.8,116.8,403.5,114.5z"/>
		<path class="st215" d="M439.4,140.6c0-0.4,0.1-0.8,0.1-1.2c1.5-0.5,2.9-1,4.4-1.6c0.7-0.2,0.8,0.2,0.7,0.7
			C442.9,139.5,441.2,140.2,439.4,140.6z"/>
		<path class="st239" d="M406.5,182.6c1,1.3,1.7,2.8,2.4,5c-2.3-1.5-2.7-3.3-3.2-5.1C405.9,182.4,406.2,182.4,406.5,182.6z"/>
		<path class="st66" d="M389.9,186.2c0.3-0.2,0.6-0.4,0.9-0.6c1.2,1,3.9,0.9,2.9,3.6c0,0,0.1,0,0.1,0
			C392.4,188.1,391.2,187.1,389.9,186.2z"/>
		<path class="st240" d="M464.3,255.8c-1.4,1.2-3,1.8-4.7,2.1c1-1.5,2.5-2.1,4-2.8C463.9,255.3,464.3,255.4,464.3,255.8z"/>
		<path class="st232" d="M419.2,270.3c0-0.4,0.1-0.7,0.1-1.1c2.1,0.9,4.5,0.4,6.5,1.7c-0.8,0-1.6-0.3-2.3,0.4
			C421.9,271.6,420.7,270.5,419.2,270.3z"/>
		<path class="st216" d="M402.3,123.7c0.7-0.5,0.5-1.4,0.8-2.1c0.3,1.7,0.6,3.4,0.8,5.1c-0.3,0.3-0.5,0.6-0.8,0.8
			C402.6,126.3,402.3,125,402.3,123.7z"/>
		<path class="st241" d="M430.6,245.8c1.9-0.2,3.8-0.5,5.7-0.7c-1.1,1.5-2.4,1.5-3.8,1.4C432,246.1,431,246.6,430.6,245.8z"/>
		<path class="st242" d="M403.5,114.5c-1.2,2.4-0.5,5-1.2,7.5c-0.6-2.6,0-5.2,0.4-7.7c0-0.1,0.4-0.2,0.5-0.1
			C403.2,114.2,403.3,114.4,403.5,114.5z"/>
		<path class="st236" d="M499.9,247.2c-0.2-0.3-0.4-0.6-0.6-0.9c0.9-1.2,1.8-2.4,2.7-3.7c0.2,0.3,0.4,0.5,0.6,0.8
			C502,244.9,501,246.1,499.9,247.2z"/>
		<path class="st227" d="M485.4,233.9c-0.9,1.3-1.9,2.5-2.8,3.8c-0.2-2.1,1.1-3.4,2.2-4.7C485.2,233.2,485.2,233.6,485.4,233.9z"/>
		<path class="st243" d="M379.1,130.3c1.6-0.8,3.2-2,5.1-1.9c-1.3,1.2-2.7,2.2-4.5,2.6C379.5,130.8,379.1,130.7,379.1,130.3z"/>
		<path class="st244" d="M527.1,162.7c0.2,0,0.5,0.1,0.7,0.1c-0.4,1.8-1.5,3.2-2.3,4.8c-0.7,0-0.9-0.3-0.6-0.9
			C525.4,165.2,526.1,163.8,527.1,162.7z"/>
		<path class="st245" d="M451.9,133.9c-0.9,1.5-2.3,2.1-4,2.8C448.8,134.6,449.4,134.2,451.9,133.9z"/>
		<path class="st246" d="M434.9,153.3c-3.1-0.8-0.4-3.1-1.4-4.5C435.3,150,434.3,151.8,434.9,153.3L434.9,153.3z"/>
		<path class="st215" d="M474,271.4c-0.3-0.2-0.5-0.5-0.8-0.7c1.3-0.7,2.4-1.8,3.9-2.2c0.7-0.3,0.8,0.2,0.7,0.7
			C476.7,270.2,475.4,271,474,271.4z"/>
		<path class="st247" d="M375.2,147.5c0.3,0.3,0.6,0.5,0.8,0.8c-1.3,0.8-2.7,1-4.2,1.3c-0.4-0.2-0.8-0.4-1.2-0.7
			C372.1,148.5,373.7,148,375.2,147.5z"/>
		<path class="st248" d="M539.6,176.8c0.2,0.5,0.3,0.9,0.5,1.4c-0.7,1.3-1.4,2.5-2,3.8c-0.2-0.3-0.4-0.6-0.6-0.9
			C538.2,179.7,538.9,178.3,539.6,176.8z"/>
		<path class="st249" d="M497.2,136.6c-0.2-0.3-0.4-0.6-0.6-0.9c0.6-1.4,1.6-2.6,2.7-3.7c0.4,0.1,0.4,0.5,0.6,0.9
			C499,134.1,498.1,135.4,497.2,136.6z"/>
		<path class="st235" d="M444.7,194.1c0.2-0.2,0.4-0.5,0.7-0.7c0.7,1.4,1.4,2.7,2.1,4.1c-0.1,0.4-0.3,0.6-0.7,0.6
			C445.8,196.9,445.2,195.5,444.7,194.1z"/>
		<path class="st250" d="M416.4,168.6c0.3-0.3,0.5-0.5,0.8-0.8c0.4,1.4,0.8,2.8,1.3,4.1c-0.2,0.3-0.3,0.7-0.7,0.7
			C416.9,171.4,416.6,170,416.4,168.6z"/>
		<path class="st251" d="M382.6,167.6c0.3-0.2,0.6-0.4,0.8-0.6c1.3,0.6,2.7,1,3.8,2c-0.3,0.2-0.6,0.4-0.9,0.6
			C384.9,169.2,383.7,168.5,382.6,167.6z"/>
		<path class="st248" d="M488.6,260.3c-0.2-0.1-0.3-0.3-0.5-0.4c0.5-1.4,1.6-2.3,2.8-3.1c0.6-0.1,0.8,0,0.5,0.6
			C490.7,258.6,489.9,259.7,488.6,260.3z"/>
		<path class="st253" d="M450.1,202.1c-0.3,0.2-0.5,0.5-0.8,0.7c-1-1-1.5-2.2-2-3.5c0.2-0.3,0.3-0.7,0.7-0.7
			C448.8,199.8,449.5,201,450.1,202.1z"/>
		<path class="st250" d="M431.8,206.1c0.2-0.2,0.5-0.4,0.7-0.7c0.8,1.1,1.9,2.1,2,3.7c0,0.3-0.2,0.4-0.4,0.3
			C432.9,208.5,432.4,207.3,431.8,206.1z"/>
		<path class="st239" d="M449.7,243.9c-1.2,1.1-2.6,1.2-4.9,0.8c2-0.8,3.2-2,4.8-0.9L449.7,243.9z"/>
		<path class="st224" d="M434.1,209.4c0.2,0,0.4-0.1,0.4-0.3c1.3,1,2.2,2.1,2.2,3.8c0,0,0.1-0.1,0.1-0.1
			C435.2,212.2,434.6,210.8,434.1,209.4z"/>
		<path class="st254" d="M465.5,198.6c-0.1,1-0.3,2-1.3,2.9c-1-1.6,0.2-2.6,0.7-3.8C465.6,197.8,465.9,198,465.5,198.6z"/>
		<path class="st204" d="M495.7,251c0.2,0.3,0.4,0.5,0.6,0.8c-0.7,0.9-1.1,2.2-2.8,2.2C493.9,252.5,494.9,251.8,495.7,251z"/>
		<path class="st255" d="M406.5,182.6c-0.3,0-0.5,0-0.8,0c-0.6-1.3-2.3-2.4-0.5-4c0,0-0.1,0-0.1,0C405.6,180,406,181.3,406.5,182.6z
			"/>
		<path class="st207" d="M485.4,233.9c-0.2-0.3-0.4-0.6-0.6-0.9c0.3-0.9,0.8-1.6,1.5-2.2c0.2,0.3,0.4,0.6,0.6,0.8
			C486.4,232.4,485.9,233.1,485.4,233.9z"/>
		<path class="st257" d="M424.3,246.5c1.2-0.6,2.5-0.3,3.7-0.4c0.7-0.2,0.9,0.1,0.7,0.8c-1,0.2-2.1,0.6-3.1,0.3
			C425.3,246.8,424.6,247.1,424.3,246.5z"/>
		<path class="st146" d="M470.3,220c-0.2-0.3-0.3-0.5-0.5-0.8c0.6-0.9,1.2-1.9,1.7-2.8c0.6,0,0.8,0.2,0.5,0.8
			C471.4,218.2,470.8,219.1,470.3,220z"/>
		<path class="st258" d="M459.6,125.9c-0.2,1.3-0.7,2.3-2.4,2.8C457.4,127,458.7,126.5,459.6,125.9z"/>
		<path class="st195" d="M499.9,132.9c-0.2-0.3-0.4-0.6-0.6-0.9c0.2-0.9,0.8-1.6,1.5-2.2c0.6,0,0.9,0.2,0.6,0.9
			C500.9,131.5,500.4,132.2,499.9,132.9z"/>
		<path class="st259" d="M491.4,257.4c-0.2-0.2-0.3-0.4-0.5-0.6c0.6-1,1-2.2,2.6-2.5C493.4,255.9,492.4,256.6,491.4,257.4z"/>
		<path class="st260" d="M428.8,246.9c-0.2-0.3-0.5-0.5-0.7-0.8c0.8-0.6,1.7-0.4,2.5-0.4c0.7,0.2,1.5,0.1,1.9,0.8
			C431.3,246.7,430,246.8,428.8,246.9z"/>
		<path class="st261" d="M458.4,236.5c0.6-0.9,1.2-1.8,2.6-2.6c-0.1,1.8-1.1,2.6-2,3.4C458.6,237.2,458.6,236.8,458.4,236.5z"/>
		<path class="st147" d="M491.4,186.4c-0.2-0.3-0.4-0.5-0.5-0.8c0.6-0.9,1.1-1.9,1.7-2.8c0.2,0.2,0.3,0.5,0.5,0.7
			C492.4,184.4,491.9,185.4,491.4,186.4z"/>
		<path class="st239" d="M479.3,240.2c0.6-1,1.2-2,2.7-2.7c-0.3,1.8-1.3,2.6-2.2,3.5C479.5,240.9,479.4,240.5,479.3,240.2z"/>
		<path class="st263" d="M354.1,139.4c0.3,0.3,0.6,0.5,0.9,0.8c-1,0.3-1.9,0.5-2.9,0.8c-0.4-0.2-0.8-0.5-1.3-0.7
			C351.9,140,353,139.7,354.1,139.4z"/>
		<path class="st264" d="M481.2,202.9c-0.2-0.2-0.3-0.5-0.5-0.7c0.3-0.9,0.7-1.7,1.5-2.3c0.3-0.2,0.5-0.2,0.7,0.1
			C482.3,201,481.7,202,481.2,202.9z"/>
		<path class="st233" d="M516.6,143.1c0.4-0.9,0.8-1.7,1.9-2.3c0.5,1.6-0.5,2.3-1.4,3.1C516.7,143.8,516.7,143.5,516.6,143.1z"/>
		<path class="st223" d="M477.1,244.5c-0.2-0.3-0.4-0.6-0.6-0.8c0.7-0.8,1.3-1.6,2-2.4c0.4,0.1,0.6,0.4,0.6,0.8
			C478.6,243,478,243.9,477.1,244.5z"/>
		<path class="st266" d="M483,161.1c0.2,0.3,0.4,0.6,0.6,0.9c-0.3,1-0.6,1.9-1.3,2.6c-0.2-0.3-0.4-0.6-0.7-0.9
			C481.9,162.8,482.2,161.8,483,161.1z"/>
		<path class="st267" d="M410.6,190.5c-0.2,0.2-0.5,0.5-0.7,0.7c-0.1-0.1-0.2-0.1-0.2-0.2c-0.3-1-1.9-2.1-0.7-2.7
			C409.8,187.8,410.1,189.7,410.6,190.5z"/>
		<path class="st268" d="M444.5,138.6c-0.2-0.2-0.5-0.5-0.7-0.7c1-0.5,1.8-1.6,3.4-0.9C446.4,137.9,445.5,138.3,444.5,138.6z"/>
		<path class="st269" d="M501.4,130.8c-0.2-0.3-0.4-0.6-0.6-0.9c0.7-0.8,1.4-1.6,2-2.4c0.2,0.3,0.4,0.5,0.6,0.8
			C502.8,129.1,502.1,129.9,501.4,130.8z"/>
		<path class="st270" d="M451.5,242.1c0.2,0.3,0.5,0.5,0.7,0.8c-0.7,0.7-1.5,1.1-2.6,1.1c0,0-0.1-0.1-0.1-0.1
			C449.4,242.2,450.8,242.5,451.5,242.1z"/>
		<path class="st135" d="M472,217.2c-0.2-0.3-0.3-0.5-0.5-0.8c0.5-0.8,1-1.6,1.5-2.4c0.2,0.3,0.3,0.6,0.5,0.8
			C473.2,215.9,472.7,216.6,472,217.2z"/>
		<path class="st271" d="M484.5,195.8c0.2,0.2,0.3,0.5,0.5,0.7c-0.3,0.9-0.7,1.7-1.5,2.3c-0.3-0.2-0.4-0.4-0.4-0.7
			C483.5,197.4,484,196.6,484.5,195.8z"/>
		<path class="st272" d="M464.3,255.8c-0.2-0.2-0.5-0.5-0.7-0.7c0.6-0.5,1.2-1.1,2-1.1c0.2,0.2,0.3,0.4,0.5,0.6
			C465.8,255.3,465.1,255.6,464.3,255.8z"/>
		<path class="st273" d="M376.9,177.6c-0.4,0.2-0.9,0.3-1.3,0.5c-0.6-0.3-1.2-0.6-1.7-0.9c0.3-0.2,0.6-0.4,1-0.6
			C375.5,176.9,376.2,177.3,376.9,177.6z"/>
		<path class="st203" d="M533.4,191.3c-0.2-0.3-0.4-0.6-0.6-0.9c0.3-0.7,0.7-1.5,1-2.2c0.2,0.3,0.4,0.6,0.6,1
			C534,189.9,533.7,190.6,533.4,191.3z"/>
		<path class="st274" d="M370.8,161.1c0,0,0.1,0.2,0.1,0.2c-1.1,0.2-2.1-0.3-3.1-0.8c0.1-1.2,0.8-0.7,1.4-0.5
			C370,160.1,370.7,160.1,370.8,161.1z"/>
		<path class="st183" d="M434.8,153.3c0,0.7,0.1,1.3,0.1,2c-0.6,0.5-0.1,1.5-0.8,1.9C433.8,155.8,432.8,154.2,434.8,153.3
			C434.9,153.3,434.8,153.3,434.8,153.3z"/>
		<path class="st100" d="M458.4,236.5c0.2,0.3,0.4,0.5,0.6,0.8c-0.8,0.9-1.4,2-2.8,2.2c0,0,0.1,0.1,0.1,0.1
			C456.3,238,457.6,237.4,458.4,236.5z"/>
		<path class="st275" d="M417.7,172.6c0.2-0.2,0.5-0.5,0.7-0.7c0.2,0.8,0.4,1.5,0.7,2.3c-0.2,0.2-0.5,0.5-0.7,0.7
			C418.1,174.2,417.9,173.4,417.7,172.6z"/>
		<path class="st276" d="M465.5,198.6c-0.2-0.3-0.4-0.5-0.5-0.8c0.4-0.9,0.8-1.8,1.2-2.6c0.2,0.3,0.4,0.6,0.7,0.9
			C466.4,196.9,466,197.8,465.5,198.6z"/>
		<path class="st277" d="M524.9,166.6c0.2,0.3,0.4,0.6,0.6,0.9c-0.5,0.8-0.9,1.6-1.4,2.5c-0.1-0.4-0.3-0.9-0.4-1.3
			C524.1,168,524.5,167.3,524.9,166.6z"/>
		<path class="st278" d="M369.3,160c-0.5,0.1-1.1,0-1.4,0.5c-0.7,0-1.5-0.4-1.1-1C367.5,158.5,368.4,159.5,369.3,160z"/>
		<path class="st279" d="M312.5,173.2c0.2,0.2,0.5,0.5,0.7,0.7c-0.5,0.6-1.4,1.4-1.9,0.7C310.5,173.7,311.8,173.5,312.5,173.2z"/>
		<path class="st143" d="M511,191.9c0.2,0.3,0.4,0.5,0.5,0.8c-0.3,0.5-0.6,1.1-1,1.6c-0.2-0.2-0.3-0.5-0.5-0.7
			C510.4,193,510.7,192.5,511,191.9z"/>
		<path class="st280" d="M508.6,155.5c0.2,0.3,0.4,0.5,0.5,0.8c-0.3,0.6-0.6,1.1-0.9,1.7c-0.2-0.2-0.3-0.5-0.5-0.7
			C508,156.6,508.3,156.1,508.6,155.5z"/>
		<path class="st281" d="M442.9,219.9c-0.3,0.2-0.7,0.5-0.8,0.4c-0.3-0.2-0.6-0.5-0.8-0.8c-0.1-0.4,0.2-0.6,0.5-0.5
			C442.3,219.2,442.5,219.6,442.9,219.9z"/>
		<path class="st282" d="M477.9,269.3c-0.2-0.2-0.5-0.5-0.7-0.7c0.7-0.4,1.3-0.9,2-1.3c0,0.3,0.1,0.6,0.1,0.9
			C479.1,268.9,478.5,269.1,477.9,269.3z"/>
		<path class="st280" d="M516.6,143.1c0.2,0.3,0.4,0.5,0.5,0.8c-0.3,0.5-0.7,1.1-1,1.6c-0.2-0.3-0.3-0.5-0.5-0.8
			C515.9,144.2,516.3,143.7,516.6,143.1z"/>
		<path class="st283" d="M359.9,138.7c-0.2-0.2-0.4-0.4-0.6-0.7c0.6-0.2,1.2-0.4,1.8-0.6c0.2,0.2,0.4,0.4,0.6,0.6
			C361.1,138.3,360.5,138.5,359.9,138.7z"/>
		<path class="st284" d="M466.3,113.1c0.1,0.2,0.3,0.5,0.4,0.7c-0.2,0.7-0.5,1.3-1.2,1.6C464.9,114.4,465.9,113.9,466.3,113.1z"/>
		<path class="st285" d="M379.1,130.3c0.2,0.2,0.4,0.5,0.7,0.7c-0.6,0.2-1.2,0.4-1.7,0.6c-0.2-0.2-0.5-0.4-0.7-0.7
			C377.9,130.7,378.5,130.5,379.1,130.3z"/>
		<path class="st147" d="M424.3,246.5c0.4,0.2,0.9,0.5,1.3,0.7c-0.4,0-0.8,0-1.1,0c-0.6-0.2-1.2-0.5-1.9-0.7
			C423.2,246.5,423.7,246.5,424.3,246.5z"/>
		<path class="st286" d="M305.4,168.7c0.5-0.6,1.3-0.2,2-0.4c0.4,0.1,0.7,0.2,1.1,0.2c-0.3,1.5-1.2,0.6-1.9,0.4
			C306.1,168.9,305.8,168.8,305.4,168.7z"/>
		<path class="st122" d="M416.3,247.1c0.8,0.2,1.8-0.1,2.4,0.7C417.9,247.7,416.7,248.7,416.3,247.1z"/>
		<path class="st287" d="M306.5,168.9c0.6-0.3,1.4,0.3,1.9-0.4c1,0.4,1,0.9-0.1,1.1C307.8,169.6,307.1,169.2,306.5,168.9z"/>
		<path class="st288" d="M455,274.3c-1.1,0.8-2.3,0.3-3.5,0.1C452.7,274.1,453.9,274.1,455,274.3z"/>
		<path class="st151" d="M434.1,157.2c0.3-0.6,0-1.5,0.8-1.9c0,0.4,0,0.7,0,1.1c-0.3,0.6-0.1,1.5-0.8,1.9
			C434.2,157.9,434.2,157.5,434.1,157.2z"/>
		<path class="st154" d="M540.9,220.6c-0.2,0.2-0.4,0.4-0.6,0.6c-0.1-0.6-1.3-1.3-0.2-1.9C540.5,219.1,540.9,220,540.9,220.6z"/>
		<path class="st289" d="M477,101.6c0,0,0-0.2,0-0.2c0.4-0.6,1-0.9,1.9-0.8C478.5,101.3,478.1,102.2,477,101.6z"/>
		<path class="st200" d="M479.1,242.1c-0.2-0.3-0.4-0.5-0.6-0.8c0.3-0.4,0.6-0.7,0.8-1.1c0.2,0.3,0.4,0.5,0.5,0.8
			C479.6,241.4,479.3,241.7,479.1,242.1z"/>
		<path class="st290" d="M339.3,180.4c0.6-0.6,1.4-0.2,2-0.4c0.4,0.1,0.7,0.2,1.1,0.2c-0.6,0.6-1.3,0.3-2,0.4
			C340,180.6,339.6,180.5,339.3,180.4z"/>
		<path class="st291" d="M483.1,198.2c0.1,0.2,0.3,0.5,0.4,0.7c0,0.5-0.2,0.9-0.7,1.1c-0.2,0-0.5-0.1-0.7-0.1
			C482.4,199.3,482.8,198.7,483.1,198.2z"/>
		<path class="st249" d="M448.1,198.6c-0.2,0.2-0.5,0.5-0.7,0.7c-0.2-0.4-0.4-0.8-0.6-1.2c0.2-0.2,0.5-0.4,0.7-0.6
			C447.7,197.9,447.9,198.2,448.1,198.6z"/>
		<path class="st292" d="M553.2,201.8c0.2-0.2,0.5-0.5,0.7-0.7c0.5,0.6,1.2,1.6,0.5,2C553.5,203.6,553.5,202.3,553.2,201.8z"/>
		<path class="st293" d="M492.3,290c0.8,1.1,1.6,2.2,2.3,3.3c-1.8-0.3-2.5-1.4-3-2.6C491.3,289.9,491.7,289.8,492.3,290z"/>
		<path class="st294" d="M492.3,290c-0.2,0.2-0.5,0.4-0.7,0.7c-0.5-0.9-1.1-1.7-1.8-2.9C491.6,288,491.9,289.1,492.3,290z"/>
		<path class="st295" d="M499.1,298.4c-0.3,0.2-0.5,0.4-0.8,0.6c-0.4-0.3-0.6-0.8-0.7-1.5C498.3,297.7,498.7,298,499.1,298.4z"/>
		<path class="st296" d="M431.9,57.5c-2.7-0.3-3.4,1.4-4.3,3c-0.4,0.6-0.4,2-1.5,1.5c-1-0.4-0.3-1.5,0.1-2.1c0.9-1.5,1.9-2.9-1-3
			c-0.2,0-0.6-0.4-0.6-0.6c-0.5-2.4,0.2-4.3,2.2-5.7c1.7-1.2,3.7-2.4,5.7-0.5c-1.6,0-2.9,0.3-4.1,1.5c-0.8,0.9-2.3,1.7-2,2.9
			c0.3,1.5,1.7,0.1,2.6,0.4C430.2,55.3,431.1,55.8,431.9,57.5z"/>
		<path class="st297" d="M382.8,77c-2.4,1.2-4.6,1.1-6.8-0.3c-2.1-1.3-1.4-3.2-1-5c0.6-2.9,1.3-5.7,2-9.2c1.7,3.2,0.6,5.7,0,8.2
			c-1.1,4.1-0.5,5.1,3.8,5.4C381.4,76.3,382.3,75.9,382.8,77z"/>
		<path class="st298" d="M394.3,59.7c-0.3,1.2-0.4,3-2,2.6c-2.2-0.5-2.8-2.6-2.8-4.6c0-1.2,0.9-2.3,2.2-2.1
			C394,55.9,394.2,57.9,394.3,59.7z"/>
		<path class="st182" d="M396.2,81.5c-1.7,6.3-8.1,8.8-13.6,5.3c2.9-0.2,5.3,0.6,7.6-0.4C392.4,85.3,394.1,83.6,396.2,81.5z"/>
		<path class="st299" d="M371.7,66.8c-1.3-1-2.5-2.3-2.3-4.2c0.1-0.9,0.6-2.1,1.6-1.9c2,0.5,2.6,2.2,2.7,4
			C373.7,65.9,373.2,66.8,371.7,66.8z"/>
		<path class="st300" d="M272.1,144.5c-0.6-0.2-1.3-0.5-1.9-0.7c0.7-0.7,1.6-0.6,2.4-0.6C272.4,143.6,272.2,144,272.1,144.5z"/>
		<path class="st301" d="M243.6,133.3c0-0.3,0-0.5,0.1-0.8c0.5-0.4,0.9-1.5,1.5-0.6C245.5,132.4,244.4,133.2,243.6,133.3z"/>
		<path class="st81" d="M187.9,211c-2.2-0.4-3.6-1.7-3.3-4.1c0.3-2.3,1.9-3.4,4.1-3.2c2.3,0.2,3.6,1.8,3.4,4
			C191.8,210.1,190.1,211,187.9,211z"/>
		<path class="st157" d="M179.4,206.4c-0.3,2-1.7,3-3.8,3c-2.1,0-3.9-2.2-3.6-4.2c0.4-2.1,1.8-3.2,4-3
			C178.1,202.3,179.6,204.1,179.4,206.4z"/>
		<path class="st157" d="M200.8,212.8c-2-0.5-3.5-1.5-3.2-4c0.3-2.2,1.8-3.2,3.9-3c2.3,0.2,3.7,1.7,3.4,4
			C204.7,211.9,203.1,212.9,200.8,212.8z"/>
		<path class="st79" d="M262.4,251.7c0.6,0.7,1.2,1.4,1.8,2.1c5.3,9.6,5,19.3-0.7,26.4c-6.5,8.1-18.4,10.3-27.5,5.1
			c-8.9-5.1-13-16.8-9.3-26.7c0.4-1.2,0.9-2.3,1.3-3.4c5.1-7.4,11.9-11.3,21.1-10.2C254.4,245.5,258.5,248.4,262.4,251.7z"/>
		<path class="st302" d="M198.1,238.8c-2-0.4-3.3-1.7-3.1-3.8c0.2-2.1,1.6-3.4,3.8-3.2c2.2,0.2,3.7,1.6,3.4,4
			C202,237.9,200.4,238.8,198.1,238.8z"/>
		<path class="st159" d="M189.4,234.1c-0.5,2.2-2,3.3-4.2,3c-2.1-0.3-3.3-1.8-3.2-3.9c0.2-2.2,1.8-3.3,3.9-3.1
			C188.1,230.4,189.5,231.6,189.4,234.1z"/>
		<path class="st170" d="M176.9,232.4c-0.7,1.9-1.8,3.4-4,3.1c-2.1-0.3-3.4-1.7-3.1-3.9c0.2-1.9,1.5-3.1,3.6-2.9
			C175.6,228.9,176.5,230.4,176.9,232.4z"/>
		<path class="st303" d="M203.7,176.5c0.1-1.5,0.2-2.6,0.3-3.7C206.4,174.4,206.4,174.7,203.7,176.5z"/>
		<path class="st106" d="M227.5,175.5c1.2,0.9,2.4,1.5,2.1,2.8c-0.2,1-1.2,1.6-2.4,1.4C226.8,178.4,227,177.1,227.5,175.5z"/>
		<path class="st304" d="M226.8,164c0.7,0.9,0.2,1.5,0.4,2.5C225.9,165.6,225.8,165,226.8,164z"/>
		<path class="st305" d="M116.6,111.5c0.1-1.5,0.2-2.7,0.4-4C119.2,109,119.2,110.2,116.6,111.5z"/>
		<path class="st306" d="M115.8,94.4c0.4,1.2,0.3,2.1-0.2,3C114.2,96.5,114.4,95.7,115.8,94.4z"/>
		<path class="st111" d="M92.2,104.4c1.4,1.6,1.6,2.7,0,3.9C91.6,107,92,106,92.2,104.4z"/>
		<path class="st307" d="M90.6,91.4c0.4,1.1,0.2,1.9-0.1,2.7c-0.2,0-0.4,0-0.5-0.1C89,93,89.2,92.2,90.6,91.4z"/>
		<path class="st152" d="M264.2,268.5c-0.8,9.6-9,16.5-18.8,15.7c-9.6-0.8-17.1-9.7-16.3-19.2c0.9-9.9,9.2-17.1,18.6-16.4
			C258,249.4,265,258,264.2,268.5z"/>
		<path class="st80" d="M260,262.8c-5,3.9-9.8,7.4-14.3,11.1c-1.3,1.1-2,1.3-3.2-0.2c-1.6-2.1-3.6-4-5.4-6c-0.8-0.9-1.5-1.9,0.1-2.7
			c1.2-0.6,2.2-2.6,3.9-0.7c1.1,1.3,2.3,2.6,3,3.5c3.3-2.5,6.6-4.9,9.6-7.5c2-1.7,3.1-1.7,4.3,0.6
			C258.2,261.2,258.7,261.5,260,262.8z"/>
		<path class="st9" d="M288,259.5c0,0,52.8-18.4,40.2-59.4"/>
		<g>
			<path class="st68" d="M74.3,243.2c0.3,0.1,0.7,0.2,1.1,0.3c0.5,0.2,1,0.3,1.5,0.6c0.4,0.2,0.9,0,1.1-0.4l0.8-1.5
				c0.2-0.4,0-1-0.4-1.2c-0.6-0.3-1.2-0.5-1.8-0.7c-0.7-0.2-1.4-0.4-2.2-0.5c-0.4-0.1-0.7-0.5-0.7-0.9l0-0.4c0-0.5-0.3-0.9-0.8-0.9
				l-0.2,0c-0.5,0-0.9,0.3-0.9,0.8l0,0.5c0,0.4-0.4,0.8-0.8,0.8c-0.9,0-1.7,0.2-2.4,0.5c-0.9,0.3-1.7,0.8-2.2,1.5
				c-0.6,0.6-0.9,1.4-1,2.4c-0.1,0.9,0,1.7,0.4,2.4c0.3,0.7,0.9,1.3,1.7,1.9c0.7,0.5,1.6,1.1,2.8,1.7c0.3,0.2,0.5,0.5,0.5,0.9
				l-0.2,2.7c0,0.5-0.5,0.9-1.1,0.8c-0.7-0.2-1.4-0.4-2.1-0.6c-0.6-0.2-1.1-0.4-1.6-0.7c-0.5-0.3-1.2,0.1-1.2,0.7l-0.2,1.7
				c0,0.3,0.2,0.7,0.5,0.8c0.6,0.3,1.3,0.6,2,0.8c0.7,0.2,1.5,0.4,2.4,0.5c0.5,0.1,0.8,0.5,0.7,0.9l-0.1,1.1c0,0.5,0.3,0.9,0.8,0.9
				l0.2,0c0.5,0,0.9-0.3,0.9-0.8l0.1-1.2c0-0.4,0.4-0.8,0.8-0.8c1.7-0.1,3-0.5,3.9-1.2c1.1-0.8,1.7-1.9,1.8-3.3
				c0.1-1.1-0.1-2-0.6-2.7c-0.5-0.7-1.2-1.3-2.1-1.9c-0.7-0.4-1.5-0.8-2.2-1.2c-0.3-0.2-0.5-0.5-0.5-0.8l0.2-2.5
				C73.3,243.4,73.8,243.1,74.3,243.2z M71.2,246.1c-0.4-0.2-0.7-0.4-1-0.6c-0.2-0.2-0.4-0.4-0.5-0.6c-0.1-0.2-0.2-0.4-0.1-0.7
				c0-0.3,0.1-0.5,0.3-0.7c0.2-0.2,0.4-0.3,0.6-0.4c0.3-0.1,0.6-0.2,1-0.2L71.2,246.1z M73.6,251.6c0.3,0.2,0.4,0.4,0.6,0.6
				c0.1,0.2,0.2,0.5,0.2,0.7c0,0.4-0.2,0.8-0.5,1c0,0,0,0,0,0c-0.6,0.4-1.4-0.1-1.3-0.8l0.2-2.2C73,251.2,73.4,251.4,73.6,251.6z"/>
		</g>
		<g>
			<path class="st68" d="M91.4,244.7c0.3,0.1,0.7,0.2,1.1,0.3c0.5,0.2,1,0.3,1.5,0.6c0.4,0.2,0.9,0,1.1-0.4l0.8-1.5
				c0.2-0.4,0-1-0.4-1.2c-0.6-0.3-1.2-0.5-1.8-0.7c-0.7-0.2-1.4-0.4-2.2-0.5c-0.4-0.1-0.7-0.5-0.7-0.9l0-0.4c0-0.5-0.3-0.9-0.8-0.9
				l-0.2,0c-0.5,0-0.9,0.3-0.9,0.8l0,0.5c0,0.4-0.4,0.8-0.8,0.8c-0.9,0.1-1.7,0.2-2.4,0.5c-0.9,0.3-1.7,0.8-2.2,1.5
				c-0.6,0.6-0.9,1.4-1,2.4c-0.1,0.9,0,1.7,0.4,2.4c0.3,0.7,0.9,1.3,1.7,1.9c0.7,0.5,1.6,1.1,2.8,1.7c0.3,0.2,0.5,0.5,0.5,0.8
				l-0.2,2.7c0,0.5-0.5,0.9-1.1,0.8c-0.7-0.2-1.4-0.4-2.1-0.6c-0.6-0.2-1.1-0.4-1.6-0.7c-0.5-0.3-1.2,0.1-1.2,0.7l-0.2,1.7
				c0,0.3,0.2,0.7,0.5,0.8c0.6,0.3,1.3,0.6,2,0.8c0.7,0.2,1.5,0.4,2.4,0.5c0.5,0.1,0.8,0.5,0.7,0.9l-0.1,1.1c0,0.5,0.3,0.9,0.8,0.9
				l0.2,0c0.5,0,0.9-0.3,0.9-0.8l0.1-1.2c0-0.4,0.4-0.8,0.8-0.8c1.7-0.1,3-0.5,3.9-1.2c1.1-0.8,1.7-1.9,1.8-3.3
				c0.1-1.1-0.1-2-0.6-2.7c-0.5-0.7-1.2-1.3-2.1-1.9c-0.7-0.4-1.5-0.8-2.2-1.2c-0.3-0.2-0.5-0.5-0.5-0.9l0.2-2.5
				C90.3,244.9,90.8,244.5,91.4,244.7z M88.2,247.6c-0.4-0.2-0.7-0.4-1-0.6c-0.2-0.2-0.4-0.4-0.5-0.6c-0.1-0.2-0.2-0.4-0.1-0.7
				c0-0.3,0.1-0.5,0.3-0.7c0.2-0.2,0.4-0.3,0.6-0.4c0.3-0.1,0.6-0.2,1-0.2L88.2,247.6z M90.6,253.1c0.3,0.2,0.4,0.4,0.6,0.6
				c0.1,0.2,0.2,0.4,0.2,0.7c0,0.4-0.2,0.8-0.5,1c0,0,0,0,0,0c-0.6,0.4-1.4-0.1-1.3-0.8l0.2-2.2C90.1,252.7,90.4,252.9,90.6,253.1z"
				/>
		</g>
		<g>
			<path class="st68" d="M108.4,246.2c0.3,0.1,0.7,0.2,1.1,0.3c0.5,0.2,1,0.3,1.5,0.6c0.4,0.2,0.9,0,1.1-0.4l0.8-1.5
				c0.2-0.4,0-1-0.4-1.2c-0.6-0.3-1.2-0.5-1.8-0.7c-0.7-0.2-1.4-0.4-2.2-0.5c-0.4-0.1-0.7-0.5-0.7-0.9l0-0.4c0-0.5-0.3-0.9-0.8-0.9
				l-0.2,0c-0.5,0-0.9,0.3-0.9,0.8l0,0.5c0,0.4-0.4,0.8-0.8,0.8c-0.9,0-1.7,0.2-2.4,0.5c-0.9,0.3-1.7,0.8-2.2,1.5
				c-0.6,0.6-0.9,1.4-1,2.4c-0.1,0.9,0,1.7,0.4,2.4c0.3,0.7,0.9,1.3,1.7,1.9c0.7,0.5,1.6,1.1,2.8,1.7c0.3,0.2,0.5,0.5,0.5,0.9
				l-0.2,2.7c0,0.5-0.5,0.9-1.1,0.8c-0.7-0.2-1.4-0.4-2.1-0.6c-0.6-0.2-1.1-0.4-1.6-0.7c-0.5-0.3-1.2,0.1-1.2,0.7l-0.2,1.7
				c0,0.3,0.2,0.7,0.5,0.8c0.6,0.3,1.3,0.6,2,0.8c0.7,0.2,1.5,0.4,2.4,0.5c0.5,0.1,0.8,0.5,0.7,0.9l-0.1,1.1c0,0.5,0.3,0.9,0.8,0.9
				l0.2,0c0.5,0,0.9-0.3,0.9-0.8l0.1-1.2c0-0.4,0.4-0.8,0.8-0.8c1.7-0.1,3-0.5,3.9-1.2c1.1-0.8,1.7-1.9,1.8-3.3
				c0.1-1.1-0.1-2-0.6-2.7c-0.5-0.7-1.2-1.3-2.1-1.9c-0.7-0.4-1.5-0.8-2.2-1.2c-0.3-0.2-0.5-0.5-0.5-0.8l0.2-2.5
				C107.3,246.4,107.9,246.1,108.4,246.2z M105.2,249.1c-0.4-0.2-0.7-0.4-1-0.6c-0.2-0.2-0.4-0.4-0.5-0.6c-0.1-0.2-0.2-0.4-0.1-0.7
				c0-0.3,0.1-0.5,0.3-0.7c0.2-0.2,0.4-0.3,0.6-0.4c0.3-0.1,0.6-0.2,1-0.2L105.2,249.1z M107.7,254.6c0.3,0.2,0.4,0.4,0.6,0.6
				c0.1,0.2,0.2,0.4,0.2,0.7c0,0.4-0.2,0.8-0.5,1c0,0,0,0,0,0c-0.6,0.4-1.4-0.1-1.3-0.8l0.2-2.2
				C107.1,254.2,107.4,254.4,107.7,254.6z"/>
		</g>
		<g>
			<path class="st68" d="M194.3,308.7C194.3,308.7,194.3,308.7,194.3,308.7c0.2-0.1,0.3-0.1,0.5,0c0.4,0.1,0.7,0.2,1.1,0.3
				c0.4,0.1,0.8,0.3,1.2,0.4c0.1,0,0.2,0.1,0.3,0.1c0.4,0.2,0.9,0,1.1-0.4l0.8-1.5c0.2-0.4,0-1-0.4-1.2c-0.6-0.3-1.2-0.5-1.8-0.7
				c-0.7-0.2-1.4-0.4-2.2-0.5c-0.4-0.1-0.7-0.5-0.7-0.9l0-0.4c0-0.5-0.3-0.9-0.8-0.9l-0.1,0c-0.5,0-0.9,0.3-0.9,0.8l0,0.5
				c0,0,0,0,0,0c-0.1,0.4-0.4,0.7-0.8,0.8c-0.9,0-1.7,0.2-2.4,0.5c-0.9,0.3-1.7,0.8-2.2,1.5c-0.6,0.6-0.9,1.4-1,2.4
				c-0.1,0.9,0,1.7,0.4,2.4c0.3,0.7,0.9,1.3,1.7,1.9c0.7,0.5,1.7,1.1,2.8,1.7c0.3,0.2,0.5,0.5,0.5,0.9l-0.2,2.7
				c0,0.5-0.5,0.9-1.1,0.8c-0.7-0.2-1.3-0.4-2-0.6c-0.6-0.2-1.1-0.4-1.6-0.7c-0.5-0.3-1.2,0.1-1.2,0.7l-0.2,1.7
				c0,0.3,0.2,0.7,0.5,0.8c0.6,0.3,1.3,0.6,2,0.8c0.7,0.2,1.5,0.4,2.4,0.5c0.5,0.1,0.8,0.5,0.7,0.9l-0.1,1.1c0,0.5,0.3,0.9,0.8,0.9
				l0.2,0c0.5,0,0.9-0.3,0.9-0.8l0.1-1.2c0-0.4,0.4-0.8,0.8-0.8c1.7-0.1,3-0.5,3.9-1.2c1.1-0.8,1.7-1.9,1.8-3.3v-0.1c0,0,0,0,0,0
				c0.1-1.1-0.1-1.9-0.6-2.6c-0.5-0.7-1.1-1.2-1.9-1.7c-0.1,0-0.1-0.1-0.2-0.1c-0.7-0.4-1.5-0.8-2.2-1.2c-0.1,0-0.2-0.1-0.2-0.2
				c-0.2-0.2-0.3-0.4-0.3-0.7l0.2-2.5C193.8,309.1,194,308.8,194.3,308.7z M190.7,310.9c-0.2-0.2-0.4-0.4-0.5-0.6
				c-0.1-0.2-0.2-0.4-0.1-0.7c0-0.3,0.1-0.5,0.3-0.7c0.2-0.2,0.4-0.3,0.6-0.4c0.3-0.1,0.6-0.2,1-0.2l0,0.2l-0.3,3.1
				c-0.3-0.2-0.6-0.4-0.8-0.5C190.8,311,190.8,311,190.7,310.9z M194.1,317.1c0.3,0.2,0.5,0.4,0.6,0.6c0.1,0.2,0.2,0.4,0.2,0.7
				c0,0.4-0.2,0.8-0.5,1c0,0,0,0,0,0c-0.6,0.4-1.4-0.1-1.3-0.8l0.2-2.2C193.5,316.7,193.9,316.9,194.1,317.1z"/>
		</g>
		<g>
			<path class="st68" d="M211.9,310.2c0.4,0.1,0.7,0.2,1.1,0.3c0.5,0.2,1,0.3,1.5,0.6c0.4,0.2,0.9,0,1.1-0.4l0.8-1.5
				c0.2-0.4,0-1-0.4-1.2c-0.6-0.3-1.2-0.5-1.8-0.7c-0.7-0.2-1.4-0.4-2.2-0.5c-0.4-0.1-0.7-0.5-0.7-0.9l0-0.4c0-0.5-0.3-0.9-0.8-0.9
				l-0.1,0c-0.5,0-0.9,0.3-0.9,0.8l0,0.5c0,0.4-0.4,0.8-0.8,0.8c-0.9,0.1-1.7,0.2-2.4,0.5c-0.9,0.3-1.7,0.8-2.2,1.5
				c-0.4,0.5-0.7,1.1-0.9,1.8v0c0,0.2-0.1,0.4-0.1,0.6c-0.1,0.9,0,1.7,0.4,2.4c0.3,0.7,0.9,1.3,1.7,1.9c0.7,0.5,1.7,1.1,2.8,1.7
				c0.3,0.2,0.5,0.5,0.5,0.8l-0.2,2.7c0,0.2-0.1,0.4-0.3,0.6c-0.2,0.2-0.5,0.3-0.8,0.2c-0.7-0.2-1.3-0.4-2-0.6
				c-0.5-0.2-1-0.4-1.4-0.6h0c0,0-0.1,0-0.1-0.1c-0.4-0.2-0.8-0.1-1.1,0.2c0,0,0,0,0,0c-0.1,0.1-0.2,0.3-0.2,0.5l-0.2,1.7
				c0,0.3,0.2,0.7,0.5,0.8c0.6,0.3,1.3,0.6,2,0.8c0.7,0.2,1.5,0.4,2.4,0.5c0.5,0.1,0.8,0.5,0.7,0.9l-0.1,1.1c0,0.5,0.3,0.9,0.8,0.9
				l0.2,0c0.5,0,0.9-0.3,0.9-0.8l0.1-1.2c0-0.4,0.4-0.8,0.8-0.8c1.7-0.1,3-0.5,3.9-1.2c1.1-0.8,1.7-1.9,1.8-3.3
				c0.1-1.1-0.1-2-0.6-2.7c-0.5-0.7-1.2-1.3-2.1-1.9c-0.7-0.4-1.5-0.8-2.2-1.2c-0.3-0.2-0.5-0.5-0.5-0.9l0.2-2.5
				C210.8,310.4,211.3,310,211.9,310.2z M207.4,310.4c0.2-0.2,0.4-0.3,0.6-0.4c0.3-0.1,0.6-0.2,1-0.2l-0.3,3.2
				c-0.4-0.2-0.7-0.4-1-0.6c-0.2-0.2-0.4-0.4-0.5-0.6c-0.1-0.2-0.2-0.4-0.1-0.7C207.1,310.9,207.2,310.6,207.4,310.4z M211.5,318.9
				c0.1,0.1,0.2,0.2,0.2,0.3c0.1,0.2,0.2,0.4,0.2,0.7c0,0.4-0.2,0.8-0.5,1c0,0,0,0,0,0c-0.4,0.3-0.9,0.2-1.1-0.2
				c-0.2-0.2-0.2-0.4-0.2-0.6l0.2-2.2c0.4,0.2,0.7,0.4,1,0.6C211.3,318.7,211.4,318.8,211.5,318.9L211.5,318.9z"/>
		</g>
		<g>
			<path d="M95.1,90.6c0.6,0.2,1.2,0.3,1.8,0.5c0.8,0.2,1.6,0.5,2.3,0.9c0.7,0.3,1.4,0,1.8-0.6l1.3-2.5c0.3-0.7,0.1-1.6-0.7-1.9
				c-0.9-0.5-1.9-0.8-2.9-1.2c-1.1-0.3-2.2-0.6-3.4-0.8c-0.7-0.1-1.2-0.8-1.1-1.5l0-0.6c0.1-0.8-0.5-1.4-1.3-1.5l-0.2,0
				c-0.8-0.1-1.4,0.5-1.5,1.2l-0.1,0.8c-0.1,0.7-0.6,1.2-1.3,1.2c-1.4,0.1-2.7,0.3-3.9,0.8c-1.5,0.5-2.6,1.3-3.5,2.3
				c-0.9,1-1.4,2.3-1.5,3.8c-0.1,1.5,0.1,2.7,0.6,3.8c0.5,1.1,1.4,2.1,2.7,3.1c1.1,0.8,2.6,1.7,4.4,2.7c0.5,0.3,0.8,0.8,0.8,1.4
				l-0.4,4.3c-0.1,0.8-0.9,1.4-1.7,1.2c-1.1-0.2-2.2-0.6-3.3-1c-0.9-0.3-1.7-0.7-2.5-1.1c-0.9-0.4-1.9,0.2-2,1.1l-0.2,2.8
				c0,0.6,0.2,1.1,0.7,1.3c1,0.5,2.1,0.9,3.2,1.3c1.2,0.3,2.5,0.6,3.9,0.8c0.7,0.1,1.2,0.8,1.2,1.5l-0.2,1.7
				c-0.1,0.8,0.5,1.4,1.3,1.5l0.2,0c0.8,0.1,1.4-0.5,1.5-1.3l0.2-1.9c0.1-0.7,0.6-1.2,1.3-1.2c2.6-0.2,4.7-0.8,6.2-2
				c1.7-1.3,2.7-3.1,2.8-5.2c0.2-1.8-0.2-3.2-1-4.4c-0.8-1.2-1.9-2.2-3.3-3c-1.1-0.7-2.3-1.3-3.6-1.9c-0.5-0.3-0.8-0.8-0.8-1.4
				l0.3-3.9C93.5,91,94.3,90.4,95.1,90.6z M90.1,95.2c-0.6-0.4-1.1-0.7-1.5-1c-0.4-0.3-0.7-0.6-0.8-1c-0.2-0.3-0.2-0.7-0.2-1.1
				c0-0.4,0.2-0.8,0.4-1.1c0.3-0.3,0.6-0.5,1-0.7c0.4-0.2,0.9-0.3,1.6-0.3l-0.1,1.4l-0.2,2.6L90.1,95.2z M94,104
				c0.4,0.3,0.7,0.6,0.9,1c0.2,0.3,0.3,0.7,0.2,1.1c-0.1,0.7-0.3,1.2-0.9,1.6c0,0,0,0,0,0c-0.5,0.4-1,0.3-1.5,0
				c-0.4-0.3-0.7-0.8-0.7-1.3l0.2-1.9v0l0.1-1.5C93.1,103.3,93.6,103.7,94,104z"/>
		</g>
		<g>
			<path d="M121.1,92.9c0.6,0.2,1.2,0.3,1.8,0.5c0.8,0.3,1.6,0.6,2.3,0.9c0.7,0.3,1.4,0,1.8-0.6l1.2-2.5c0.4-0.7,0.1-1.6-0.6-1.9
				c-0.9-0.5-1.9-0.8-2.9-1.1c-1.1-0.3-2.2-0.6-3.4-0.8c-0.7-0.1-1.2-0.8-1.1-1.5l0.1-0.6c0.1-0.8-0.5-1.4-1.3-1.5l-0.2,0
				c-0.8-0.1-1.4,0.5-1.5,1.2l-0.1,0.8c-0.1,0.7-0.6,1.2-1.3,1.2c-1.4,0.1-2.7,0.3-3.8,0.8c-1.5,0.5-2.6,1.3-3.5,2.3
				c-0.9,1-1.4,2.3-1.5,3.8c-0.1,1.5,0.1,2.7,0.6,3.8c0.5,1.1,1.4,2.1,2.7,3.1c1.1,0.8,2.6,1.7,4.5,2.7c0.5,0.3,0.8,0.8,0.8,1.4
				l-0.4,4.3c-0.1,0.8-0.9,1.4-1.7,1.2c-1.1-0.2-2.2-0.6-3.3-1c-0.9-0.3-1.7-0.7-2.5-1.1c-0.9-0.4-1.9,0.2-2,1.1l-0.2,2.8
				c0,0.6,0.2,1.1,0.7,1.3c1,0.5,2.1,0.9,3.2,1.3c1.2,0.3,2.4,0.6,3.9,0.8c0.7,0.1,1.2,0.8,1.2,1.5l-0.2,1.7
				c-0.1,0.8,0.5,1.4,1.3,1.5l0.2,0c0.8,0.1,1.4-0.5,1.5-1.2l0.2-1.9c0.1-0.7,0.6-1.2,1.3-1.3c2.6-0.2,4.7-0.8,6.2-2
				c1.7-1.3,2.7-3.1,2.9-5.2c0.2-1.8-0.2-3.2-1-4.4c-0.8-1.2-1.9-2.2-3.3-3c-1.1-0.7-2.3-1.3-3.6-1.9c-0.5-0.2-0.8-0.8-0.8-1.4
				l0.3-3.9C119.5,93.3,120.3,92.7,121.1,92.9z M116.1,97.5c-0.2-0.1-0.3-0.2-0.4-0.2c-0.3-0.2-0.6-0.4-0.9-0.6h0
				c-0.1-0.1-0.2-0.1-0.2-0.2c-0.4-0.3-0.7-0.6-0.8-1c-0.2-0.3-0.2-0.7-0.2-1.1c0-0.4,0.2-0.8,0.4-1.1c0.3-0.3,0.6-0.5,1-0.7
				c0.4-0.2,1-0.2,1.6-0.3L116.1,97.5z M120,106.3c0.4,0.3,0.7,0.6,0.9,1c0.2,0.3,0.3,0.7,0.2,1.1c-0.1,0.7-0.3,1.2-0.9,1.6
				c0,0,0,0,0,0c-0.6,0.4-1.3,0.3-1.7-0.2c-0.3-0.3-0.4-0.7-0.4-1.1l0-0.2v0l0.3-3.3C119.1,105.6,119.6,106,120,106.3z"/>
		</g>
		<g>
			<path d="M208.2,159.2c0.6,0.2,1.2,0.3,1.8,0.5c0.8,0.3,1.6,0.6,2.3,0.9c0.7,0.3,1.4,0,1.8-0.6l1.2-2.5c0.4-0.7,0.1-1.5-0.6-1.9
				c-0.9-0.5-1.9-0.8-2.9-1.1c-1.1-0.3-2.2-0.6-3.4-0.8c-0.7-0.1-1.2-0.8-1.1-1.5l0-0.6c0.1-0.8-0.5-1.4-1.3-1.5l-0.2,0
				c-0.8-0.1-1.4,0.5-1.5,1.2l-0.1,0.8c-0.1,0.7-0.6,1.2-1.3,1.2c-1.4,0.1-2.7,0.3-3.9,0.8c-1.5,0.5-2.6,1.3-3.5,2.3
				c-0.9,1-1.4,2.3-1.5,3.8c-0.1,1.5,0.1,2.7,0.6,3.8c0.5,1.1,1.4,2.1,2.7,3.1c1.1,0.8,2.6,1.7,4.5,2.7c0.5,0.3,0.8,0.8,0.8,1.4
				l-0.4,4.3c-0.1,0.8-0.9,1.4-1.7,1.2c-1.1-0.2-2.2-0.6-3.3-1c-0.9-0.3-1.7-0.7-2.5-1.1c-0.9-0.4-1.9,0.2-2,1.1l-0.2,2.8
				c0,0.6,0.2,1.1,0.7,1.3c1,0.5,2.1,0.9,3.2,1.3c1.2,0.3,2.4,0.6,3.9,0.8c0.7,0.1,1.2,0.8,1.2,1.5l-0.2,1.7
				c-0.1,0.8,0.5,1.4,1.3,1.5l0.2,0c0.8,0.1,1.4-0.5,1.5-1.2l0.2-1.9c0.1-0.7,0.6-1.2,1.3-1.3c2.6-0.2,4.7-0.8,6.2-2
				c1.7-1.3,2.6-3.1,2.8-5.2c0.2-1.8-0.2-3.2-1-4.4c-0.8-1.2-1.9-2.2-3.3-3c-1.1-0.7-2.3-1.3-3.6-1.9c-0.5-0.2-0.8-0.8-0.8-1.4
				l0.3-3.9C206.6,159.5,207.4,159,208.2,159.2z M203.2,163.8c-0.6-0.4-1.1-0.7-1.5-1c-0.4-0.3-0.7-0.6-0.8-1
				c-0.2-0.3-0.2-0.7-0.2-1.1c0-0.4,0.2-0.8,0.4-1.1c0.2-0.3,0.6-0.5,1-0.7c0.4-0.2,0.9-0.2,1.6-0.3L203.2,163.8z M207.1,172.6
				c0.4,0.3,0.7,0.6,0.9,1c0.2,0.3,0.3,0.7,0.2,1.1c-0.1,0.7-0.3,1.2-0.9,1.6c0,0,0,0,0,0c-0.8,0.6-1.9,0-2.1-0.9c0-0.1,0-0.2,0-0.4
				l0.1-1.2l0.2-2.2C206.1,171.9,206.7,172.3,207.1,172.6z"/>
		</g>
		<g>
			<path d="M234.2,161.4c0.6,0.1,1.1,0.3,1.8,0.5c0.8,0.3,1.6,0.6,2.3,0.9c0.7,0.3,1.4,0,1.8-0.6l1.2-2.5c0.4-0.7,0.1-1.6-0.6-1.9
				c-0.9-0.5-1.9-0.8-2.9-1.1c-1.1-0.3-2.2-0.6-3.4-0.8c-0.7-0.1-1.2-0.8-1.1-1.5l0.1-0.6c0.1-0.8-0.5-1.4-1.3-1.5l-0.2,0
				c-0.8-0.1-1.4,0.5-1.5,1.3l-0.1,0.8c-0.1,0.7-0.6,1.2-1.3,1.2c-1.4,0.1-2.7,0.3-3.8,0.8c-1.5,0.5-2.7,1.3-3.5,2.3
				c-0.9,1-1.4,2.3-1.5,3.8c-0.1,1.5,0.1,2.7,0.6,3.8c0.5,1.1,1.4,2.1,2.7,3.1c1.1,0.8,2.6,1.7,4.4,2.7c0.5,0.3,0.8,0.8,0.8,1.4
				l-0.3,2.8l-0.1,1.5c0,0.7-0.5,1.1-1.1,1.2c-0.2,0-0.4,0-0.5,0c-1.1-0.2-2.2-0.6-3.3-1c-0.9-0.3-1.7-0.7-2.5-1.1
				c-0.9-0.4-1.9,0.2-2,1.1l-0.2,2.8c-0.1,0.6,0.2,1.1,0.7,1.4c1,0.5,2.1,0.9,3.2,1.3c1.2,0.3,2.4,0.6,3.9,0.8
				c0.7,0.1,1.2,0.8,1.2,1.5l-0.2,1.7c-0.1,0.8,0.5,1.4,1.3,1.5l0.2,0c0.8,0.1,1.4-0.5,1.5-1.2l0.2-1.9c0.1-0.7,0.6-1.2,1.3-1.3
				c2.6-0.2,4.7-0.8,6.2-2c1.7-1.3,2.7-3.1,2.9-5.2c0.2-1.8-0.2-3.2-1-4.4c-0.8-1.1-1.9-2.1-3.3-3c-1.1-0.7-2.3-1.3-3.6-1.9
				c-0.5-0.3-0.8-0.8-0.8-1.4l0.3-3.9C232.6,161.8,233.4,161.2,234.2,161.4z M229.2,166.1c-0.6-0.3-1.1-0.7-1.5-1
				c-0.2-0.2-0.4-0.4-0.6-0.5v0l0,0c-0.1-0.1-0.2-0.3-0.3-0.4c0,0,0-0.1,0-0.1c-0.2-0.3-0.2-0.6-0.2-1c0-0.4,0.2-0.8,0.4-1.1
				c0.3-0.3,0.6-0.5,1-0.7c0.4-0.2,0.9-0.3,1.6-0.3L229.2,166.1z M233.1,174.9c0.4,0.3,0.7,0.6,0.9,1c0.2,0.3,0.3,0.7,0.2,1.1
				c-0.1,0.7-0.3,1.2-0.9,1.6c0,0,0,0,0,0c-0.9,0.7-2.2-0.1-2.1-1.3l0.3-3.5C232.1,174.2,232.6,174.5,233.1,174.9z"/>
		</g>
		<path d="M58.7,189.1l-11.1-1.2c-0.3,0-0.6-0.3-0.5-0.7l0.1-0.6c0-0.3,0.3-0.6,0.7-0.5l11.1,1.2c0.3,0,0.6,0.3,0.5,0.7l-0.1,0.6
			C59.3,188.9,59,189.1,58.7,189.1z"/>
		<path d="M73.5,190.7l-11.1-1.2c-0.3,0-0.6-0.3-0.5-0.7l0.1-0.6c0-0.3,0.3-0.6,0.7-0.5l11.1,1.2c0.3,0,0.6,0.3,0.5,0.7l-0.1,0.6
			C74.1,190.5,73.8,190.8,73.5,190.7z"/>
		<path d="M87.7,192.3l-11.1-1.2c-0.3,0-0.6-0.3-0.5-0.7l0.1-0.6c0-0.3,0.3-0.6,0.7-0.5l11.1,1.2c0.3,0,0.6,0.3,0.5,0.7l-0.1,0.6
			C88.3,192.1,88,192.3,87.7,192.3z"/>
		<path d="M57.8,197.1l-11.1-1.2c-0.3,0-0.6-0.3-0.5-0.7l0.1-0.6c0-0.3,0.3-0.6,0.7-0.5l11.1,1.2c0.3,0,0.6,0.3,0.5,0.7l-0.1,0.6
			C58.4,196.9,58.1,197.1,57.8,197.1z"/>
		<path d="M73.2,198.8l-11.1-1.2c-0.3,0-0.6-0.3-0.5-0.7l0.1-0.6c0-0.3,0.3-0.6,0.7-0.5l11.1,1.2c0.3,0,0.6,0.3,0.5,0.7l-0.1,0.6
			C73.9,198.6,73.6,198.8,73.2,198.8z"/>
		<path d="M83.1,199.9l-6.8-0.7c-0.3,0-0.6-0.3-0.5-0.7l0.1-0.6c0-0.3,0.3-0.6,0.7-0.5l6.8,0.7c0.3,0,0.6,0.3,0.5,0.7l-0.1,0.6
			C83.8,199.7,83.5,199.9,83.1,199.9z"/>
		<path d="M56.9,205.1l-11.1-1.2c-0.3,0-0.6-0.3-0.5-0.7l0.1-0.6c0-0.3,0.3-0.6,0.7-0.5l11.1,1.2c0.3,0,0.6,0.3,0.5,0.7l-0.1,0.6
			C57.6,204.9,57.3,205.2,56.9,205.1z"/>
		<path d="M72.4,206.8l-11.1-1.2c-0.3,0-0.6-0.3-0.5-0.7l0.1-0.6c0-0.3,0.3-0.6,0.7-0.5l11.1,1.2c0.3,0,0.6,0.3,0.5,0.7l-0.1,0.6
			C73,206.6,72.7,206.9,72.4,206.8z"/>
		<path d="M101.4,210l-18.5-2c-0.3,0-0.6-0.3-0.5-0.7l0.1-0.6c0-0.3,0.3-0.6,0.7-0.5l18.5,2c0.3,0,0.6,0.3,0.5,0.7l-0.1,0.6
			C102,209.8,101.7,210.1,101.4,210z"/>
		<path d="M172.6,255.2l-11.1-1.2c-0.3,0-0.6-0.3-0.5-0.7l0.1-0.6c0-0.3,0.3-0.6,0.7-0.5l11.1,1.2c0.3,0,0.6,0.3,0.5,0.7l-0.1,0.6
			C173.2,255,172.9,255.3,172.6,255.2z"/>
		<path d="M188,256.9l-11.1-1.2c-0.3,0-0.6-0.3-0.5-0.7l0.1-0.6c0-0.3,0.3-0.6,0.7-0.5l11.1,1.2c0.3,0,0.6,0.3,0.5,0.7l-0.1,0.6
			C188.7,256.7,188.4,257,188,256.9z"/>
		<path d="M202.2,258.5l-11.1-1.2c-0.3,0-0.6-0.3-0.5-0.7l0.1-0.6c0-0.3,0.3-0.6,0.7-0.5l11.1,1.2c0.3,0,0.6,0.3,0.5,0.7l-0.1,0.6
			C202.9,258.3,202.6,258.5,202.2,258.5z"/>
		<path d="M172.3,263.3l-11.1-1.2c-0.3,0-0.6-0.3-0.5-0.7l0.1-0.6c0-0.3,0.3-0.6,0.7-0.5l11.1,1.2c0.3,0,0.6,0.3,0.5,0.7l-0.1,0.6
			C173,263.1,172.7,263.3,172.3,263.3z"/>
		<path d="M187.8,265l-11.1-1.2c-0.3,0-0.6-0.3-0.5-0.7l0.1-0.6c0-0.3,0.3-0.6,0.7-0.5l11.1,1.2c0.3,0,0.6,0.3,0.5,0.7l-0.1,0.6
			C188.4,264.8,188.1,265,187.8,265z"/>
		<path d="M197.6,266.1l-6.8-0.7c-0.3,0-0.6-0.3-0.5-0.7l0.1-0.6c0-0.3,0.3-0.6,0.7-0.5l6.8,0.7c0.3,0,0.6,0.3,0.5,0.7l-0.1,0.6
			C198.3,265.9,198,266.1,197.6,266.1z"/>
		<path d="M171.4,271.3l-11.1-1.2c-0.3,0-0.6-0.3-0.5-0.7l0.1-0.6c0-0.3,0.3-0.6,0.7-0.5l11.1,1.2c0.3,0,0.6,0.3,0.5,0.7l-0.1,0.6
			C172.1,271.1,171.8,271.4,171.4,271.3z"/>
		<path d="M186.9,273l-11.1-1.2c-0.3,0-0.6-0.3-0.5-0.7l0.1-0.6c0-0.3,0.3-0.6,0.7-0.5l11.1,1.2c0.3,0,0.6,0.3,0.5,0.7l-0.1,0.6
			C187.5,272.8,187.2,273.1,186.9,273z"/>
		<path d="M215.9,276.2l-18.5-2c-0.3,0-0.6-0.3-0.5-0.7l0.1-0.6c0-0.3,0.3-0.6,0.7-0.5l18.5,2c0.3,0,0.6,0.3,0.5,0.7l-0.1,0.6
			C216.5,276,216.2,276.3,215.9,276.2z"/>
		<path class="st315" d="M327.7,198.9c0,0,14.4,47.4-48,62.1"/>
	</g>
</g>
</svg>
