<?xml version="1.0" encoding="utf-8"?>
<!-- Generator: Adobe Illustrator 24.3.0, SVG Export Plug-In . SVG Version: 6.00 Build 0)  -->
<svg version="1.1" id="Layer_1" xmlns="http://www.w3.org/2000/svg" xmlns:xlink="http://www.w3.org/1999/xlink" x="0px" y="0px"
	 width="690.9px" height="477.9px" viewBox="0 0 690.9 477.9" style="enable-background:new 0 0 690.9 477.9;" xml:space="preserve"
	>
<style type="text/css">
	.st0{fill:#00C8FF;}
	.st1{fill-rule:evenodd;clip-rule:evenodd;fill:#00C8FF;}
	.st2{fill:#185AE9;}
	.st3{fill:#FFFFFF;}
	.st4{fill-rule:evenodd;clip-rule:evenodd;fill:#FFFFFF;}
	.st5{fill:#00B0FB;}
	.st6{fill:#00B0FB;fill-opacity:0.4;}
	.st7{fill:#E4ECF4;}
	.st8{fill:#FFE8A0;}
	.st9{fill:none;}
	.st10{fill:#0D0D0D;}
	.st11{fill-rule:evenodd;clip-rule:evenodd;fill:#00B0FB;}
	.st12{fill:#FAFBFF;}
	.st13{fill:#070707;}
	.st14{fill:#D9D9D9;filter:url(#Adobe_OpacityMaskFilter);}
	.st15{mask:url(#mask0_103_2708_1_);}
	.st16{fill-rule:evenodd;clip-rule:evenodd;fill:#DAB6E4;}
	.st17{stroke:#FFFFFF;stroke-width:2;}
	.st18{fill:#FFFFFF;stroke:#000000;stroke-width:2;}
	.st19{fill-rule:evenodd;clip-rule:evenodd;}
	.st20{stroke:#FFFFFF;}
	.st21{fill:#FFFFFF;filter:url(#Adobe_OpacityMaskFilter_1_);}
	.st22{mask:url(#path-22-inside-1_103_2708_1_);fill:#FFFFFF;}
	.st23{fill-rule:evenodd;clip-rule:evenodd;fill:#263238;}
	.st24{fill:#EFEFEF;}
	
		.st25{fill:none;stroke:#000000;stroke-width:10.01;stroke-linecap:round;stroke-linejoin:round;stroke-miterlimit:3.08;stroke-dasharray:70.84,70.84;}
	.st26{fill:#010000;}
	.st27{opacity:0.64;}
	.st28{fill:#F9F7F5;}
	.st29{fill:#D9D9D9;filter:url(#Adobe_OpacityMaskFilter_2_);}
	.st30{mask:url(#mask0_103_2310_1_);}
	.st31{fill:#FFFFFF;filter:url(#Adobe_OpacityMaskFilter_3_);}
	.st32{mask:url(#mask1_103_2310_1_);}
	.st33{fill:#E6E6E6;}
	.st34{fill:#FFFFFF;filter:url(#Adobe_OpacityMaskFilter_4_);}
	.st35{mask:url(#mask2_103_2310_1_);}
	.st36{fill:none;stroke:#000000;stroke-width:1.5;stroke-linecap:round;stroke-linejoin:round;stroke-miterlimit:10;}
	.st37{fill:#FFFFFF;filter:url(#Adobe_OpacityMaskFilter_5_);}
	.st38{mask:url(#mask3_103_2310_1_);}
	.st39{fill:#FFFFFF;filter:url(#Adobe_OpacityMaskFilter_6_);}
	.st40{mask:url(#mask4_103_2310_1_);}
	.st41{fill:#FFFFFF;filter:url(#Adobe_OpacityMaskFilter_7_);}
	.st42{mask:url(#mask5_103_2310_1_);}
	.st43{fill:#FFFFFF;filter:url(#Adobe_OpacityMaskFilter_8_);}
	.st44{mask:url(#mask6_103_2310_1_);}
	.st45{fill:#DBDBDB;}
	.st46{fill:#FFFFFF;filter:url(#Adobe_OpacityMaskFilter_9_);}
	.st47{mask:url(#mask7_103_2310_1_);}
	.st48{fill:#FFFFFF;filter:url(#Adobe_OpacityMaskFilter_10_);}
	.st49{mask:url(#mask8_103_2310_1_);}
	.st50{fill:#FFFFFF;filter:url(#Adobe_OpacityMaskFilter_11_);}
	.st51{mask:url(#mask9_103_2310_1_);}
	.st52{fill:#FFFFFF;filter:url(#Adobe_OpacityMaskFilter_12_);}
	.st53{mask:url(#mask10_103_2310_1_);}
	.st54{fill:#FFFFFF;filter:url(#Adobe_OpacityMaskFilter_13_);}
	.st55{mask:url(#mask11_103_2310_1_);}
	.st56{fill:#FFFFFF;filter:url(#Adobe_OpacityMaskFilter_14_);}
	.st57{mask:url(#mask12_103_2310_1_);}
	.st58{fill:#FFFFFF;stroke:#000000;}
	.st59{fill:#FFFFFF;filter:url(#Adobe_OpacityMaskFilter_15_);stroke:#FFFFFF;}
	.st60{mask:url(#mask13_103_2310_1_);}
	.st61{fill:#FFFFFF;filter:url(#Adobe_OpacityMaskFilter_16_);}
	.st62{mask:url(#path-55-inside-1_103_2310_1_);}
	.st63{fill:#FFFFFF;filter:url(#Adobe_OpacityMaskFilter_17_);}
	.st64{mask:url(#path-59-inside-2_103_2310_1_);fill:#FFFFFF;}
	.st65{fill:none;stroke:#FFFFFF;stroke-width:1.5;stroke-linecap:round;stroke-linejoin:round;stroke-miterlimit:10;}
	.st66{fill:#181818;}
	.st67{fill:#BEBEBE;}
	.st68{fill:#FEFEFE;}
	.st69{fill:none;stroke:#000000;stroke-width:2.1125;stroke-miterlimit:6.5;}
	.st70{fill:#3C7CFF;stroke:#001135;stroke-width:0.7602;stroke-miterlimit:10;}
	.st71{fill:#001135;}
	.st72{fill:#3C7CFF;}
	.st73{clip-path:url(#SVGID_1_);}
	.st74{fill:#FFFFFF;stroke:#001135;stroke-width:0.7602;stroke-miterlimit:10;}
	.st75{fill:none;stroke:#001135;stroke-width:0.7602;stroke-miterlimit:10;}
	.st76{fill:#001135;stroke:#001135;stroke-width:0.7602;stroke-miterlimit:10;}
	.st77{fill:#0F0D0E;}
	.st78{fill:#161415;}
	.st79{fill:#FCFCFC;}
	.st80{fill:#FBFBFB;}
	.st81{fill:#FAFAFA;}
	.st82{fill:#C1C1C1;}
	.st83{fill:#0E0E0E;}
	.st84{fill:#EFEEEE;}
	.st85{fill:#A8A8A8;}
	.st86{fill:#9A9A9B;}
	.st87{fill:#404040;}
	.st88{fill:#EDEDED;}
	.st89{fill:#E7E7E7;}
	.st90{fill:#9A9999;}
	.st91{fill:#D2D2D2;}
	.st92{fill:#AEAEAE;}
	.st93{fill:#8D8D8C;}
	.st94{fill:#B9BABC;}
	.st95{fill:#61605F;}
	.st96{fill:#A5A5A5;}
	.st97{fill:#B5B6B6;}
	.st98{fill:#1B1C1C;}
	.st99{fill:#171616;}
	.st100{fill:#161616;}
	.st101{fill:#0F0F0F;}
	.st102{fill:#F0F0F0;}
	.st103{fill:#EDEDEC;}
	.st104{fill:#EBEBEB;}
	.st105{fill:#EBEBEA;}
	.st106{fill:#ECECEC;}
	.st107{fill:#E9E9E9;}
	.st108{fill:#EBEAEA;}
	.st109{fill:#B9BAB9;}
	.st110{fill:#EDECEC;}
	.st111{fill:#EAEAEA;}
	.st112{fill:#1F1F1E;}
	.st113{fill:#1E1E1D;}
	.st114{fill:#202020;}
	.st115{fill:#1B1A1A;}
	.st116{fill:#1F1F20;}
	.st117{fill:#252424;}
	.st118{fill:#1F1E1E;}
	.st119{fill:#222121;}
	.st120{fill:#2B2B2B;}
	.st121{fill:#1E1E1E;}
	.st122{fill:#1F1F1F;}
	.st123{fill:#434242;}
	.st124{fill:#2C2C2C;}
	.st125{fill:#484848;}
	.st126{fill:#FDFDFD;}
	.st127{fill:#F4F4F3;}
	.st128{fill:#F2F2F2;}
	.st129{fill:#F3F3F3;}
	.st130{fill:#F1F1F1;}
	.st131{fill:#191918;}
	.st132{fill:#1A1A19;}
	.st133{fill:#1D1C1D;}
	.st134{fill:#1C1A1B;}
	.st135{fill:#1E1D1E;}
	.st136{fill:#212021;}
	.st137{fill:#1D1D1D;}
	.st138{fill:#1D1B1B;}
	.st139{fill:#1F1D1E;}
	.st140{fill:#1E1D1D;}
	.st141{fill:#FCFBFB;}
	.st142{fill:#080808;}
	.st143{fill:#020202;}
	.st144{fill:#030303;}
	.st145{fill:#060606;}
	.st146{fill:#040304;}
	.st147{fill:#040404;}
	.st148{fill:#050404;}
	.st149{fill:#030302;}
	.st150{fill:#0A0A0A;}
	.st151{fill:#020102;}
	.st152{fill:#090909;}
	.st153{fill:#0B0B0B;}
	.st154{fill:#010101;}
	.st155{fill:#030304;}
	.st156{fill:#F8F9F9;}
	.st157{fill:#F9F9F9;}
	.st158{fill:#F8F8F8;}
	.st159{fill:#F7F7F7;}
	.st160{fill:#F5F5F5;}
	.st161{fill:#E4E5E4;}
	.st162{fill:#D4D4D5;}
	.st163{fill:#A5A5A6;}
	.st164{fill:#222222;}
	.st165{fill:#161615;}
	.st166{fill:#C7C7C7;}
	.st167{fill:#626261;}
	.st168{fill:#D5D3D6;}
	.st169{fill:#090908;}
	.st170{fill:#F6F6F6;}
	.st171{fill:#232323;}
	.st172{fill:#5F5E5E;}
	.st173{fill:#080807;}
	.st174{fill:#C3C3C3;}
	.st175{fill:#050505;}
	.st176{fill:#191919;}
	.st177{fill:#1A1A1A;}
	.st178{fill:#151615;}
	.st179{fill:#0F0F0E;}
	.st180{fill:#1D1C1C;}
	.st181{fill:#1A1919;}
	.st182{fill:#1C1C1C;}
	.st183{fill:#201F20;}
	.st184{fill:#151616;}
	.st185{fill:#201F1F;}
	.st186{fill:#232424;}
	.st187{fill:#1E1F1F;}
	.st188{fill:#1E1E1F;}
	.st189{fill:#1B1B1B;}
	.st190{fill:#1B1A1C;}
	.st191{fill:#2A2A2A;}
	.st192{fill:#1C1B1D;}
	.st193{fill:#242324;}
	.st194{fill:#1B1A1B;}
	.st195{fill:#212121;}
	.st196{fill:#2A2A2B;}
	.st197{fill:#2B2A2B;}
	.st198{fill:#202021;}
	.st199{fill:#202121;}
	.st200{fill:#242424;}
	.st201{fill:#1D1D1E;}
	.st202{fill:#272728;}
	.st203{fill:#222122;}
	.st204{fill:#242323;}
	.st205{fill:#222223;}
	.st206{fill:#252526;}
	.st207{fill:#282828;}
	.st208{fill:#292829;}
	.st209{fill:#171817;}
	.st210{fill:#282829;}
	.st211{fill:#2A2B2B;}
	.st212{fill:#363536;}
	.st213{fill:#212122;}
	.st214{fill:#272727;}
	.st215{fill:#252525;}
	.st216{fill:#29292A;}
	.st217{fill:#1F1E1F;}
	.st218{fill:#2E2D2D;}
	.st219{fill:#313030;}
	.st220{fill:#404141;}
	.st221{fill:#2E2F2E;}
	.st222{fill:#242525;}
	.st223{fill:#2D2C2C;}
	.st224{fill:#2B2B2C;}
	.st225{fill:#4B4B4B;}
	.st226{fill:#2E2E2E;}
	.st227{fill:#2E2D2E;}
	.st228{fill:#2E2E2F;}
	.st229{fill:#2C2B2B;}
	.st230{fill:#272627;}
	.st231{fill:#323131;}
	.st232{fill:#282928;}
	.st233{fill:#323232;}
	.st234{fill:#262627;}
	.st235{fill:#2D2C2D;}
	.st236{fill:#333333;}
	.st237{fill:#2A292A;}
	.st238{fill:#141414;}
	.st239{fill:#303030;}
	.st240{fill:#2E2E2D;}
	.st241{fill:#363635;}
	.st242{fill:#4D4D4D;}
	.st243{fill:#373636;}
	.st244{fill:#292929;}
	.st245{fill:#3C3B3C;}
	.st246{fill:#161516;}
	.st247{fill:#393939;}
	.st248{fill:#373737;}
	.st249{fill:#252425;}
	.st250{fill:#383839;}
	.st251{fill:#313232;}
	.st252{fill:#323233;}
	.st253{fill:#2B2C2C;}
	.st254{fill:#343333;}
	.st255{fill:#2C2C2D;}
	.st256{fill:#3C3C3C;}
	.st257{fill:#070606;}
	.st258{fill:#454545;}
	.st259{fill:#3B3B3C;}
	.st260{fill:#30302F;}
	.st261{fill:#3C3C3D;}
	.st262{fill:#232223;}
	.st263{fill:#333433;}
	.st264{fill:#050405;}
	.st265{fill:#373637;}
	.st266{fill:#414141;}
	.st267{fill:#3C3B3D;}
	.st268{fill:#3D3C3D;}
	.st269{fill:#2F2E2E;}
	.st270{fill:#2B2A2A;}
	.st271{fill:#040303;}
	.st272{fill:#2C2A2B;}
	.st273{fill:#191A1A;}
	.st274{fill:#313130;}
	.st275{fill:#19191A;}
	.st276{fill:#444443;}
	.st277{fill:#303031;}
	.st278{fill:#4A4A4B;}
	.st279{fill:#353635;}
	.st280{fill:#030202;}
	.st281{fill:#010001;}
	.st282{fill:#343434;}
	.st283{fill:#060505;}
	.st284{fill:#151514;}
	.st285{fill:#040302;}
	.st286{fill:#111010;}
	.st287{fill:#5D5C5D;}
	.st288{fill:#353535;}
	.st289{fill:#262524;}
	.st290{fill:#020203;}
	.st291{fill:#030203;}
	.st292{fill:#3D3E3E;}
	.st293{fill:#222323;}
	.st294{fill:#272928;}
	.st295{fill:#343433;}
	.st296{fill:#131212;}
	.st297{fill:#111111;}
	.st298{fill:#0B0C0C;}
	.st299{fill:#121212;}
	.st300{fill:#949597;}
	.st301{fill:#494749;}
	.st302{fill:#F9F8F9;}
	.st303{fill:#E4E5E5;}
	.st304{fill:#C8C5C6;}
	.st305{fill:#E5E5E5;}
	.st306{fill:#B7B6B8;}
	.st307{fill:#D0D0D1;}
	.st308{fill:#E6E6E7;}
	.st309{fill:#D1D0D3;}
	.st310{fill:#F6F7F7;}
	.st311{fill:#CBCACC;}
	.st312{fill:none;stroke:#000000;stroke-width:2;stroke-miterlimit:10;}
	.st313{fill:none;stroke:#000000;stroke-width:2;stroke-miterlimit:10;stroke-dasharray:12.1617,12.1617;}
	.st314{fill:none;stroke:#000000;stroke-width:2;stroke-miterlimit:10;stroke-dasharray:12;}
	.st315{fill:none;stroke:#222122;stroke-width:2;stroke-miterlimit:10;stroke-dasharray:12;}
	.st316{fill:none;stroke:#000000;stroke-width:2;stroke-miterlimit:10;stroke-dasharray:12.0927,12.0927;}
	.st317{fill:none;stroke:#000000;stroke-width:0;stroke-linecap:round;stroke-linejoin:round;}
	.st318{fill:#535353;}
	.st319{fill:#414041;}
	.st320{fill:#4D4C4D;}
	.st321{fill:#0A0A0B;}
	.st322{fill:#181718;}
	.st323{fill:#2F2E2F;}
	.st324{fill:#494A4A;}
	.st325{fill:#585959;}
	.st326{fill:#3A3A3A;}
	.st327{fill:#989898;}
	.st328{fill:#908F90;}
	.st329{fill:#0D0C0C;}
	.st330{fill:#0C0C0B;}
	.st331{fill:#232322;}
	.st332{fill:#474847;}
</style>
<g>
	<path d="M329.8,462.2c0.1,8.5-4.4,13.8-12.8,15.1c-2.2,0.4-4.5,0.4-6.6,0.5c-14.6-0.6-28.1-5.2-41.4-10.6
		c-22.6-9.1-44-20.7-64.8-33.5c-4.7-2.9-9.4-5.8-14-8.8c-3.4-2.2-6.8-4.4-10.2-6.6c-4.9-3.3-9.8-6.6-14.6-10
		c-2.4-1.7-4.8-3.4-7.3-5.1c-2.5-1.8-5-3.6-7.5-5.4c-2.1-1.5-4.1-3-6.1-4.5c-2-1.5-4.1-3.1-6.1-4.6c-1.1-0.9-2.3-1.7-3.4-2.6
		c-0.5-0.4-1-0.8-1.4-1.1c-2.7-2.1-5.4-4.2-8-6.3c-8.8-7-17.5-14.2-26.1-21.5c-0.9-0.8-1.8-1.5-2.7-2.3
		c-6.6-5.8-13.2-11.6-19.7-17.7c-19-17.6-36.9-36-52.7-56.5c-8-10.4-15.5-21.1-20.7-33.3c-1.9-4.6-3.5-9.2-3.7-14.3
		c-0.4-9.3,4.4-14.8,13.6-16c8.6-1.1,16.9,0.5,25.1,2.7c17.3,4.6,33.5,11.9,49.3,19.9c22.3,11.3,43.6,24.2,64.3,38.2
		c2.3,1.5,4.5,3.1,6.8,4.6c0,0,0,0,0.1,0c1,0.7,1.9,1.3,2.9,2c0.3,0.2,0.6,0.4,0.9,0.6c1.4,0.9,2.7,1.9,4,2.8
		c0.4,0.3,0.8,0.6,1.3,0.9c0.2,0.1,0.4,0.3,0.5,0.4c1.3,0.9,2.6,1.9,3.9,2.8c1.4,1,2.8,2,4.2,3c0.7,0.5,1.5,1.1,2.2,1.6
		c1.8,1.3,3.5,2.6,5.2,3.8c2.5,1.9,5.1,3.8,7.6,5.7c6.9,5.2,13.6,10.5,20.3,15.9c6.2,5,12.3,10.1,18.3,15.3
		c3.8,3.2,7.5,6.5,11.2,9.8c0.9,0.8,1.9,1.7,2.8,2.5c3.2,2.9,6.4,5.8,9.6,8.8c19.8,18.6,38.7,38.1,55,60.1
		c7,9.5,13.4,19.3,17.8,30.3C328.5,453.3,329.7,457.6,329.8,462.2z"/>
	<path class="st3" d="M409.7,174.9c1-1,20.5-3.2,21.2-4.1c0.8-0.9,3.8-4.9,3.8-7.9s-2.5-13.5-3.8-17.2s-0.7-6.9-1.5-9.3
		c-0.7-2.4-5.7-4.6-7.2-4.5s-3.5,0.5-8,3.8c-4.5,3.3-8.9,3.1-10.7,13.7s-53.1,17.1-53.1,17.1s-25.7-1.5-29.7,0.5
		s-12.8,12.3-11.9,14.7s5.9,12.6,6.9,13.4c1,0.9,2.8,2.2,5.9,3.5c3.1,1.4,84-4.4,85.1-5c1-0.6,1.6-5.4,4.3-7.5s-1.3-8.1-1.3-9.1
		S409.7,174.9,409.7,174.9z"/>
	<g>
		<path class="st3" d="M376.3,140.4c1.5-0.1,2.2-1.1,1.9-2.5c-0.3-1.7-1.4-2.3-3-2.3c-1.4,0.2-2.5,0.9-2.2,2.4
			C373.3,139.8,374.7,140.5,376.3,140.4z"/>
		<path class="st3" d="M388.1,136.2c1.1-0.2,1.7-1.1,1.7-2.3c-0.5-1.1-1.4-1.7-2.6-1.5c-1.1,0.2-1.9,0.9-1.7,2.1
			C385.8,135.8,386.8,136.5,388.1,136.2z"/>
		<path class="st45" d="M423.7,150.5c-2.4-13-5.3-26-8.3-38.9c-1.2-5.3-4.3-7.1-9.5-6.2c-15.4,2.5-30.7,5.1-46.1,7.3
			c-31.2,4.5-62.3,9-93.4,14.3c-4.8,0.8-6.9,3.7-5.9,8.5c1.1,5.7,2.3,11.3,3.4,17c0.3,1.6,0.6,2.2,2.3,1.2c2.1-1.2,4.5-1.7,6.9-1
			c2.8,0.8,4.4-1.1,6.5-2c3.5-1.5,1.8-4,1.4-6.2c-1.1-5.1-0.5-5.9,4.6-7c9.6-2.1,19.3-4.1,28.9-6.2c4.2-0.9,5.8-0.1,6.8,4.2
			c1.5,6,2.8,12,4.1,18c1.1,5.3,0.4,6.5-5,7.6c-9.7,2.1-19.5,4.2-29.2,6.2c-3,0.6-4.2-0.1-5.2-2.9c-0.5-1.3-0.8-2.7-1.2-4.1
			c-0.2-0.5-0.2-1.1-1-1.1c-1.8,0-5.4,4-5,5.8c0.9,4.1,1.8,8.2,2.7,12.2c0.5,2.1,1.7,3.8,3.9,4c3.3,0.3,6.5,0.4,9.2-2.4
			c7-7.3,16.7-9.8,25.3-14.3c0.3-0.2,0.7-0.2,1.1-0.2c2.4-0.1,3.9,1.7,3.3,4.1c-0.3,1.3-1.2,2.3-2.3,3.2c-1.9,1.5-3.8,3-5.8,4.6
			c2.8-0.3,5.3-0.5,7.8-0.9c31.4-5.5,62.8-11.1,94.1-16.6C422.5,158,424.6,155,423.7,150.5z M355.9,149.1
			c-5.9,1.1-11.7,2.2-17.9,3.4c-1.8,0.5-2-0.4-1.3-2.1c2.1-5.1,4.2-10.1,6.2-15.2c0.6-1.6,1.3-1.2,2.2-0.3c3.9,4,7.8,8,11.7,12
			C358.4,148.5,357.3,148.9,355.9,149.1z M368.6,144.9c-1.5,0.4-2.9,0.8-4.8,1.2c-1,0.3-1.8-0.2-2.1-1.6c-0.6-2.6-1.2-5.2-1.8-7.8
			c-0.3-1.1-0.1-1.8,1.1-2.2c1.3-0.4,1.7,0.3,2,1.3c0.3,1,0.7,2,0.9,3c0.5,2.4,1,4.5,4.3,3.3c1-0.4,1.6,0.1,1.9,1.1
			C370.4,144.5,369.4,144.7,368.6,144.9z M376.6,143.4c-3.4,0.4-6.6-2.1-6.9-5.3c-0.3-2.9,2.1-5.6,5.2-6c3.2-0.3,6.4,2.2,6.7,5.2
			C381.9,140.4,379.7,143.1,376.6,143.4z M391.1,142.7c-1.2,0.5-2.3,0.8-3.6,0.6c-0.8-0.1-1.9-0.3-1.9-1.3c-0.1-1.1,1.1-0.8,1.7-1
			c1.1-0.3,2.2-0.5,2.9-2c-3.6,1.1-6,0.4-7.4-2c-1.3-2.3-0.7-5.2,1.4-6.9c2-1.6,4.1-1.3,6.1-0.2c3.1,1.7,3.6,4.7,3.7,7.8
			C394.1,139.9,393.2,141.7,391.1,142.7z M401.9,138.1c-3.1,0.4-6.6-2-7-4.9c-0.4-2.9,1.8-6,4.8-6.4c3.4-0.5,6.6,1.9,7,5.1
			C407,134.9,404.8,137.7,401.9,138.1z"/>
		<path class="st3" d="M257.2,442.2c3.5-0.4,7-0.8,10.5-1.2c0-0.3-0.1-0.5-0.1-0.8c-3.4,0.2-6.7,0.3-10.1,0.5
			c-0.6,0-1.2,0.1-1.2,0.9C256.2,442.1,256.7,442.2,257.2,442.2z"/>
		<path class="st78" d="M78.5,184.8c-0.1,2.2,0.3,3.2,2.1,5c2.4-13.6,10.1-22.8,22.7-28c-6.4,1-12,3.7-16.7,8
			C82.2,173.9,78.6,178.4,78.5,184.8z"/>
		<path class="st3" d="M281,181c-2.5-2.2-2.7-2.2-4.3,0.7c-0.9,1.6-1.6,3.2-2.5,4.8c-1.8,3.3-4,6.3-7.6,7.8c-2.1,0.9-3,2.4-3.7,4.3
			c-2.1,5.3-4.2,10.6-6.3,15.8c-2.8,7-5.6,14-8.6,21.6c8.9-6.8,16.6-13.7,23.8-21.2c3-3.1,5.3-6.5,6.3-10.8c0.6-2.4,1.8-4.6,2.8-6.8
			c2.4-5.1,5.7-9.7,9.7-14.4c-1.4,0.1-2.3,0.1-3.2,0.1C285,182.8,282.8,182.6,281,181z"/>
		<path class="st3" d="M401.3,135.1c1.5-0.1,2.1-1.1,2.2-2.5c-0.4-1.7-1.6-2.4-3.3-2.3c-1.3,0.1-2.4,0.8-2.2,2.4
			C398.3,134.4,399.6,135.1,401.3,135.1z"/>
		<path d="M168.9,133.5c-3.3,7.3-8.7,12.3-15.3,16.8C161.5,148.5,168.5,140.7,168.9,133.5z"/>
		<path class="st45" d="M175.9,230c3.7,1.8,7.4,3.5,11.1,5.1c1.2,0.5,2.5,1.3,4,1.2c-1.9-4.4-7.2-10.3-11-12.3
			c-0.9-0.4-2-1.4-2.8-0.2c-0.8,1.2,0.6,1.8,1.3,2.4c1.8,1.4,4.1,2.3,5.2,4.6c-2.1-1.2-4.2-2.4-6.2-3.7c-1.1-0.7-2.1-1.2-3.1,0.4
			C173.6,229.2,175,229.5,175.9,230z"/>
		<path class="st45" d="M176.8,220.3c1.7-1.2,1-1.8-0.3-2.6c-12.1-7.9-24.6-15-37.9-20.5c-1.6-0.7-2.5,0-3.4,1.1
			c-2.1,2.4-4.1,4.9-6,7.6c-1.4,2-1.4,2.8,1.3,3.3c7.4,1.1,14.3,3.5,21,6.9c6,3,11.3,7.2,17.5,10c0.7,0.3,1.3,0.6,2.1,1
			c0.5-0.6,0.9-1,1.3-1.6C173.8,223.7,175,221.7,176.8,220.3z"/>
		<path class="st3" d="M525.8,37.3c4.2-0.3,7.4-4.2,7.1-8.4c-0.3-3.8-4.7-7.4-8.6-7c-4.1,0.4-7.2,4.1-6.8,8.3
			C517.9,34.4,521.7,37.7,525.8,37.3z"/>
		<path class="st45" d="M176.6,210.7c-0.2,1.5-1.4,3.4,0.1,4.5c3.3,2.6,6.4,5.5,9.9,9.2c-0.5-4.4,0.9-8.1-0.8-11.7
			c1.5,0.1,2.2,1.2,2.9,2.2c2.4,3.3,3.1,9.1,1.8,14.3c-0.4,1.7,3,8,4.8,8.5c6.1,1.9,12.3,3.7,18.5,5.6c0.6,0.2,1.1,0.3,1.6-0.1
			c1.8-1.1,3.6-0.6,5.5,0c2.8,0.9,5.6,1.9,9.2,2.4c-5.2-10.9-13.4-17.1-24.6-19.1c-5.9-1-7.8-2.6-8.9-8.5
			c-1.1-5.8-4.4-9.2-10.2-10.3c-1.6-0.3-3.2-0.5-4.8-0.7C177.3,206.4,177.2,206.4,176.6,210.7z"/>
		<path class="st3" d="M320.5,136.8c-1.1-4.7-2.1-5.2-6.8-4.2c-8.7,1.9-17.4,3.8-26.1,5.6c-6.6,1.4-7,1.9-4.9,8.3
			c0.1,0.2,0.1,0.4,0.2,0.5c0.2,1.2,0.6,1.4,1.9,1c2.1-0.6,3.8,0.9,3.7,3.3c0,1.5-0.4,3-1.4,4c-3.1,3.2-1.1,6.4,0,9.5
			c0.7,2,2,2,3.1,0.1c1.6-2.6,3.1-5.2,4.4-7.9c1-2,2.1-2.2,3.8-0.9c0.5,0.4,1.1,0.8,1.6,1.2c3.7,2.3,3.7,2.3,6.1-1.4
			c0.6-0.9,1.3-1.9,1.9-2.8c2.9-4.2,2.9-4.2,7.5-1.7c2.8,1.5,5.6,3,9.1,4.8C323.2,149.1,321.9,143,320.5,136.8z M300.4,151.9
			c-1.4,0.1-2.5-0.5-2.8-1.9c-0.2-1.3,0.6-2.2,1.8-2.5c1.3-0.2,2.2,0.5,2.5,1.8C302.2,150.5,301.7,151.5,300.4,151.9z"/>
		<path class="st13" d="M287.6,148.3c-0.6-0.6-1.4-0.9-2.1-0.9c-1,0-1.8,0.5-2.3,0.8c-0.1,0.1-0.2,0.1-0.3,0.2l-1.9,1.1
			c-2.5,1.4-5.1,2.8-7.6,4.2c-0.2-0.4-0.6-0.8-1.1-1c-0.8-0.3-1.6-0.5-2.3-0.5c-1.1,0-1.9,0.3-2.6,0.6c-3.3,1.4-6.2,3-8.8,4.9
			c-6.3,4.6-8.4,11.6-9.8,18.5c-1.8,9.1-5.9,17.6-13.1,27.4c-4.4,6-9.4,11.2-14.8,16.7c-1.9,1.9-3.8,3.9-5.7,6
			c-0.4,0.4-0.6,1-0.5,1.6c0.1,0.6,0.4,1.1,0.9,1.4c7.9,5,12.8,10.5,15.4,17.5c0.9,2.3,2.4,2.7,3.3,2.7c1,0,2-0.4,3-1.4
			c0.9-0.8,1.7-1.6,2.6-2.3c1.3-1.2,2.6-2.4,3.9-3.6c1.5-1.3,2.6-2.9,3.4-4.9l1.7-4.1c3.5-8.6,7.2-17.6,10.9-26.3
			c0.5-1.2,1-2.5,1.4-3.8c1.5-4.3,3-8.3,7-10.7c3.1-1.8,1.9-5.2,1.4-6.8l-0.1-0.3c-0.3-0.8-0.6-1.3-1-1.6c3.1-3.9,4.4-8.6,3.9-14
			c-0.1-0.9,0-2.4,2.2-3.9c0.9-0.6,1.8-1.2,2.7-1.8c1.3-0.8,2.7-1.7,4-2.7l0.3-0.2c2.6-2,5.6-4.2,7-7.9
			C289.4,150.8,288.5,149.2,287.6,148.3z"/>
		<path class="st3" d="M232.8,246.2c0.7,1.9,1.8,1.6,3,0.5c2.2-2,4.3-4,6.5-5.9c1.3-1.2,2.2-2.5,2.9-4.1
			c4.2-10.2,8.3-20.3,12.6-30.5c2.4-5.6,3.4-11.9,9.3-15.4c1.8-1,1-3,0.4-4.7c-0.7-2.1-2.2-0.2-3.4-0.7c4.9-4.2,6.8-9.3,6.2-15.4
			c-0.2-2.5,1.1-4.4,3.1-5.7c2.2-1.5,4.5-2.8,6.6-4.4c2.6-2,5.4-3.9,6.6-7.2c0.4-1,0.5-2.1-0.3-2.9c-0.8-0.8-1.6,0-2.3,0.4
			c-4.1,2.3-8.3,4.5-12.4,6.9c-3.5,2.1-6.9,4.2-10.9,5.4c3.3-2.9,7.5-4.6,10.9-7.8c-1.5-0.6-2.5-0.3-3.4,0.1c-3,1.3-5.8,2.8-8.4,4.7
			c-5.8,4.3-7.7,10.8-9,17.2c-2.1,10.6-7.2,19.6-13.4,28.2c-6.1,8.3-13.6,15.3-20.7,22.9C223.9,232.2,229.8,238,232.8,246.2z"/>
		<path class="st3" d="M205.4,156.2c-2.6-3.2-3.5-6.8-3.1-10.9c0.2-1.7,1.1-4-0.6-5c-1.6-0.9-3.3,0.7-4.9,1.6
			c-0.4,0.2-0.9,0.9-1.4,0.4c-0.6-0.5-0.4-1.2-0.1-1.8c1.1-1.8,2.8-3,4.9-2.9c1.8,0.1,1.9-0.6,1.7-2.1c-0.8-4.9-3.5-8.7-7.6-12.1
			c2.4,8.3,1.3,13.6-3.3,16.5c0.5-1.9,1.5-3.5,1.3-5.4c-2,4.7-2,4.7-6.2,8.6c-0.4,0.4-0.8,0.8-0.9,1.4c-0.5,1.7-1.7,2.2-3.3,1.8
			c-2.9-0.8-5.4,0-7.7,1.8c-0.5,0.4-1.1,1.1-1.7,0.3c-0.5-0.6,0.1-1.3,0.5-1.8c2-2.7,4.8-3.9,8.2-3.6c1,0.1,2,0.7,2.7-0.7
			c2.8-5.2,1.9-15.1-1.8-18.7c0.1,2.8-0.2,5.5-1,8c-3.6,10.5-10.4,17.4-21.4,19.9c-1.8,0.4-4,0.5-5,1.7c-0.8,0.9,1.4,2.5,1.8,4
			c0.4,1.6,1.9,3.2,0,4.6c-2.1,1.6-5.6,1.5-7.1-0.2c-0.8-0.8-1.3-1.8-2-2.8c-1.3-2-3-3.6-5.3-4.5c-5.6-2.2-10.5,0.8-10.9,6.8
			c-0.7,9,11,17.6,19.5,14.4c2.9-1.1,3.8-0.7,5.3,2.7c-0.8-0.5-1.4-1-2.1-1.3c-1.2-0.7-5.2,0.6-5.2,1.9c-0.2,6-3.8,10.9-5.5,16.3
			c-0.3,1-0.5,1.7,0.7,2.2c9.8,4.5,19.4,9.6,28.5,15.3c1.4,0.9,1.7,0.3,1.9-1c0.4-2.8,1-5.6,1.6-8.4c0.3-1.2-0.3-2-0.9-2.8
			c-2.6-3.4-5.1-6.8-7.7-10.2c-0.8-1.1-1.6-2.4-2.4-3.6c1.5,0.1,2.5,0.5,3.6,1c7.2,3.3,14.8,5.2,22.8,4.9c4.9-0.2,8.4-2.6,10.7-6.8
			c3.2-5.8,5.4-11.9,6-18.5C208.4,163.3,208,159.5,205.4,156.2z M141.6,165.2c0.5-1.3,1.2-2.4-0.3-3.5c-1.5-1.1-3.1-1.4-4.8-0.4
			c-0.5,0.3-0.8,0.6-1.5,1.1c-0.3-2,0.8-2.8,2.1-3.3c2.3-0.8,5.7,0.5,6.9,2.7c0.4,0.7,0.5,1.4,0.3,2.2c-1.2,3.5-1.2,3.5,2,5.6
			C142.6,170,140.6,168,141.6,165.2z M197,147.7c0.2-1.2,0.6-2.5,2.1-2.6c1.4-0.1,1.8,1.2,2.2,2.2c0.5,1.3,0.7,2.7,0.3,4.1
			c-0.3,1-0.5,2.2-1.7,2.3c-1.3,0.1-2-0.9-2.4-2c-0.3-0.7-0.4-1.4-0.6-2.1C196.9,149,196.8,148.4,197,147.7z M179.9,157.7
			c-1-1.6-0.8-3.5-1.2-5.4c-1.8,0.5-2.6,1.9-4.5,2.8c0.8-1.2,1.2-1.9,1.8-2.6c1.5-1.8,3.1-3.5,5.7-2.7c1.9,0.6,3.5,4.2,3.1,6.8
			c-0.2,1.2-0.5,2.5-2,2.8C181.4,159.8,180.6,158.8,179.9,157.7z M193.4,178.2c-4,0.4-7.2-1.6-10.5-3.4c-0.7-0.4-0.4-0.7-0.2-1.1
			c0.4-0.7,0.7-1.4,1.6-1.4c0.4,0,0.8,0.3,0.7,0.7c-0.3,1.9,1.4,2.1,2.5,2.5c4.1,1.6,8.1,1.4,11.9-1.1c0.6-0.4,1-1.1,2.2-1
			C199.8,177,196.7,177.8,193.4,178.2z M203.6,164.4c-1.1,1.5-1.9,2-3.9,2.3c0-0.2-0.1-0.4,0-0.5c3.9-4,3.9-4.1-0.4-7.2
			c-2.5-1.8-4.2-4-4.4-7.2c2,3.2,4.4,5.9,7.9,7.5C205,160.5,205.1,162.3,203.6,164.4z"/>
		<path class="st45" d="M340.8,250.5c-4.4,0.6-8.8,1-13.3,1.6c-4.3,0.5-8.7,0.9-13,1.5c-4.1,0.6-5.2,2.1-4.7,6.1
			c0.6,4.4,1.1,8.8,1.6,13.3c0.5,4,1.7,5,5.6,4.5c8.6-0.9,17.1-2,25.7-2.9c2.4-0.3,3.5-1.5,3.2-3.7c-0.6-6-1.4-12-2.1-18.1
			C343.7,250.9,342.7,250.3,340.8,250.5z"/>
		<path class="st3" d="M384.9,219.1c-0.4,0-1.1,0.1-1,0.7c0,0.7,0.7,0.8,1.3,0.8c0.5,0,0.9-0.1,1.4-0.1c8.5-1,17.1-2,25.6-3
			c0.7-0.1,1.5,0.1,2.1-1c-0.4-0.2-0.7-0.4-0.9-0.4C403.9,217.1,394.4,218.1,384.9,219.1z"/>
		<path class="st3" d="M360,215.8c0.4,0,0.8-0.1,1.1-0.1c16.5-1.9,32.9-3.8,49.4-5.8c1-0.1,2.1,0.1,2.8-1c-0.4-1-1.2-0.8-1.9-0.7
			c-17.2,1.9-34.4,3.9-51.6,5.9c-0.6,0.1-1.6-0.1-1.5,0.8C358.3,215.9,359.2,215.8,360,215.8z"/>
		<path class="st3" d="M555.5,33.9c4.1-0.4,7.5-4.6,7-8.9c-0.4-3.5-5-7-8.7-6.6c-4,0.5-7.3,4.4-6.9,8.4
			C547.4,30.8,551.5,34.2,555.5,33.9z"/>
		<path class="st45" d="M381.5,313.6c-1.9-0.6-2.8-0.6-2.8,1.9c-0.1,5.4-2.2,9.9-7.1,12.8c-0.9,0.5-1.6,1.3-2.6,2
			c0.9,0.5,1.6,1,2.3,1.3c21.2,9.8,42.4,19.7,64.2,28.3c1.9,0.7,3,0.5,4.5-0.9c3.9-3.9,5.6-8.7,6.2-14c0.3-2.1-2.1-4.5-4.3-4.2
			c-2.1,0.2-1,2.1-1.1,3.2c-0.7,5.1-3.2,9.1-7.2,12.2c3-3.4,5.3-7.2,6.2-11.7c0.9-4.5,0.8-4.7-3.4-6.6c-9.3-4.2-18.6-8.5-27.9-12.6
			c-0.9-0.4-1.8-0.8-2.7-1.2c-0.1-0.1-0.3-0.1-0.4-0.2C397.4,320.4,389.7,316.4,381.5,313.6z"/>
		<path class="st45" d="M596.8,225.1c6-0.7,6-0.7,5.4-6c-0.7-6.2-0.7-6.2-6.9-5.4c-5.6,0.7-5.6,0.7-5,6.3
			C591.1,225.7,591.1,225.7,596.8,225.1z"/>
		<path class="st3" d="M188.9,194.3c-2-0.1-4-0.3-5.9-0.6c-1.4-0.2-2.2,0.2-2.7,1.5c-0.1,0.3-0.2,0.5-0.3,0.8
			c-0.9,2.6-3.1,5.5-2.2,7.7c1,2.4,4.7,1.3,7.2,1.7c7.4,1.2,12.4,4.6,13.8,12.5c0.8,4.8,2.3,5.8,7.1,6.3c1.3,0.1,2.6,0.3,3.9,0.6
			c-1.4-5.9-5.3-28.8-6.6-37.1C199.9,192.7,195.1,194.7,188.9,194.3z"/>
		<path class="st3" d="M620.5,253.5c-1.4-11.7-4.8-40.3-6.2-52c-0.6-5.2-2.6-6.8-7.7-6.2c-50.2,5.8-100.5,11.6-150.7,17.5
			c-5.4,0.6-6.8,2.5-6.1,8c2.3,19.4,4.5,38.8,6.8,58.2c0.8,7,2.8,8.5,9.7,7.6c33.1-3.9,77.2-9,110.6-12.8c-0.2-2.5-0.3-5.1-0.4-7.6
			c-0.2-2.8,1.2-4.9,3.6-6.3c1.8-1,3.7-1.5,5.7-1.7c11.6-1.5,23.2-2.9,34.8-4.4L620.5,253.5z M473.4,227.1
			c35.7-4.1,71.4-8.3,107-12.4c0,0.2,0,0.4,0.1,0.6c-35.7,4.1-71.4,8.3-107,12.4C473.5,227.5,473.4,227.3,473.4,227.1z M557.8,229.1
			c-14.5,1.7-29.1,3.4-43.6,5c0-0.2-0.1-0.3-0.1-0.5c14.5-1.7,29.1-3.4,43.6-5C557.8,228.8,557.8,228.9,557.8,229.1z M479.2,276.9
			c2.5-0.3,5.1-0.6,7.6-0.9C484.4,277.1,481.8,277.2,479.2,276.9z M478.1,267.5c0-0.2-0.1-0.4-0.1-0.5c6.6-0.8,13.2-1.5,19.9-2.3
			c0,0.2,0.1,0.4,0.1,0.5C491.4,266,484.8,266.7,478.1,267.5z M513.4,247.5c0-0.2,0-0.4-0.1-0.6c14.9-1.7,29.8-3.5,44.6-5.2
			c0,0.2,0,0.4,0,0.6C543.1,244.1,528.3,245.8,513.4,247.5z M566.6,227.4c4.6-0.5,9.1-1,13.7-1.6c0,0.1,0,0.3,0.1,0.4
			c-4.6,0.5-9.1,1-13.7,1.6C566.6,227.7,566.6,227.5,566.6,227.4z M567.8,241.4c0-0.2,0-0.3-0.1-0.5c5.4-0.6,10.8-1.2,16.1-1.9
			c0,0.1,0,0.3,0.1,0.5C578.6,240.2,573.2,240.8,567.8,241.4z M597,225.8c-7.8,0.9-6.8,1.6-7.6-5.8c-0.8-6.5-0.8-6.5,5.8-7.3
			c0.2,0,0.4,0,0.6-0.1c6.5-0.8,6.5-0.8,7.3,5.6C603.8,224.9,603.8,225,597,225.8z"/>
		<path class="st45" d="M680.5,274.1c-0.3-5.9-0.7-11.7-1-17.6c-0.3-6.5-2.7-8.6-9.2-7.9c-8.8,1-17.7,2-26.5,3.1l-1.9,0.2
			c-4.5,0.5-8.9,1-13.4,1.6l0.1,0.5c-2,0.2-4,0.5-6,0.7c-0.6,0.1-1.3,0.2-1.9,0.2c-1.1,0.1-2.2,0.3-3.4,0.4
			c-10.7,1.3-21.4,2.6-32.2,4c-5.2,0.7-7.4,3.3-6.9,8.4c0.2,2,0.4,3.9,0.7,5.9c0.1,0.8,0.2,1.6,0.3,2.5c0.3,2.7,0.7,5.4,1,8
			c0.8,6.9,2.8,8.6,9.6,7.8c16.3-2,32.7-4,49-6.1c0.8-0.1,1.6-0.2,2.3-0.3c11.1-1.4,22.2-2.8,33.3-4.1
			C678.3,280.8,680.7,278,680.5,274.1z M600.3,281.5c-4.4,0.5-8.6-2.5-9.2-6.6c-0.6-4.1,2.5-8.2,6.6-8.7c4.5-0.6,8.8,2.5,9.3,6.8
			C607.6,277.2,604.6,281,600.3,281.5z M623.5,278.8c-4.4,0.5-8.6-2.5-9.1-6.6c-0.6-4.1,2.5-8.2,6.6-8.7c4.5-0.6,8.8,2.5,9.3,6.8
			C630.7,274.5,627.8,278.3,623.5,278.8z"/>
		<path class="st3" d="M585.6,30.4c4.4-0.5,7.4-4.4,6.8-8.9c-0.6-4-4.8-7.2-8.8-6.8c-4,0.5-7.2,4.7-6.6,8.8
			C577.4,27.9,581.3,30.9,585.6,30.4z"/>
		<path class="st3" d="M641.5,248.4C641.5,248.4,641.5,248.4,641.5,248.4C641.5,248.3,641.5,248.3,641.5,248.4
			c-0.3-0.7-0.4-1.4-0.4-2c-2.3-19.9-5.4-46.8-8-69.4c-0.1-0.8-0.3-1.8-0.3-2.5c-1.8-15.6-12.9-111-14.7-126.6c-0.6-5-0.6-5-5.5-4.4
			c-69.3,8-138.7,16.1-208,24.1C335,75.6,265.3,83.7,195.7,91.7c-3.6,0.4-3.6,0.4-3.1,4.1c0.1,1,1,8.5,1.5,12.7
			c0.6,0.2,1.2,0.5,1.7,0.7c8.2,3.8,14.9,9.4,19.5,17.3c2.3,4,3.1,8.2,0.1,12.3c-0.2,0.2-0.3,0.5-0.6,0.6c-0.1,0.1-0.3,0.1-0.7,0.2
			c2.3-7.8-2.3-12.5-7.5-17c1.8,2.7,3.6,5.3,4.5,8.5c2.1,7.3,0.6,11.8-5.7,15.9c-2.1,1.4-2.1,2.6-1.1,4.4c0.2,0.3,0.3,0.7,0.6,1
			c6.7,7.1,5.6,15.3,3.1,23.5c-0.9,3.1-2,6.2-3.5,9.1c1.2,5.9,6.1,35.4,7.1,40c0,0.1,0.1,0.2,0.1,0.3c0.4,0.2,0.8,0.3,1.2,0.6
			c1,0.5,1.8,0.7,2.8-0.2c9.9-9.8,19.8-19.7,26.7-32c2.5-4.4,4.6-8.9,5.6-13.9c0.7-4,1.9-7.9,3.5-11.7c2-4.6,4.5-8.8,9.1-11.3
			c1.9-1,2.1-2.3,1.7-4.2c-1.2-5.5-2.2-11-3.4-16.4c-1.3-5.9,1.4-9.9,7.3-10.8c45.8-7,91.7-14.1,137.5-21.1
			c8.8-1.4,14.7,3.6,14.9,11.5c0.2,6.9,3.4,14.3,5,21c0.3,1.4,3.6,2.9,2,4c-3.1,2.1,0,0.6,0,1c-0.6,6.4,2.3,9.6,2,16l-12,8
			c-31.5,5.4-59.9,13.3-91.5,18.1c-2.3,0.4-3.7,1.9-4.5,3.4c-0.6,1.2-1.4,2.4,0,3.5c2,1.7,1.6,4.1,0,6c-3.9,4.5-5.5,9.3-9,14
			c-2.2,3-4.8,6.1-8,8c-2,1.2-1.5,3.4-2.6,5.5c-6.8,12.8-13.6,25.7-20.8,38.2c-5,8.7-10.6,17.1-19.2,23c-6.4,4.4-13.6,5.5-21.2,4.8
			c-2.7-0.2-5.5-0.5-8.2-0.9c0,0-0.1,0-0.1,0c0.7,5.4,2.1,18.3,2.9,21.4c3.4,12.9,11.9,21,24,25.7c7.1,2.8,14.3,3.3,21.8,2.3
			c16.4-2.1,65.3-7.7,83.1-9.8c-4-2.9-7.2-6.7-10.5-10.4c-2.4-2.7-4.8-5.3-6.9-8.3c-1.9-2.7-0.9-4.6,2.3-4.3
			c13.5,1.4,27.1,2.6,39.8,7.7c7.2,2.9,14.2,6.1,21.2,9.3c0.5,0,1.1,0,1.5-0.1c51.9-6.3,117.5-14.1,172.2-20.7
			c-0.2-0.1-0.5-0.2-0.7-0.3c-2.1-1.1-3-2.9-3.2-5.3c-0.4-6.9-0.8-13.7-1.2-20.6c-33.8,3.9-78.4,9.1-112,13c-4.8,0.6-9.2-2.2-9.7-8
			c-1.9-20.3-4.5-40.5-6.9-60.8c-0.6-5.5,1.3-8,7-8.7c22-2.6,44.1-5.2,66.1-7.7c28.2-3.3,56.3-6.5,84.5-9.8
			c6.6-0.8,9.6,1.5,10.4,8.1c1.4,11.4,4.6,38.8,6,51.2c6.5-0.8,12.9-1.6,19.4-2.5C641.7,250.1,641.6,249.2,641.5,248.4z
			 M257.3,121.9c-1.2-2.1-0.4-3.6,0.8-5.9C258.7,118.6,258.5,120.1,257.3,121.9z M261.5,112.5c-0.3,0.3-0.8,0.7-1.2,0.2
			c-0.4-0.4-0.1-0.9,0.2-1.2c1-1.1,2-2.1,3.4-2.5c0.2,0.2,0.3,0.4,0.5,0.7C263.4,110.6,262.4,111.6,261.5,112.5z M268.2,107.7
			c1.9-1.5,4-1.5,6.2-1.1C272.5,107.7,270.4,108.2,268.2,107.7z M278.9,106.1c1.9-1.1,4.1-1.2,6.3-1
			C283.4,106.4,281.8,106.6,278.9,106.1z M289.8,105.1c1.6-1.4,3.5-1.7,6.8-0.8C293.9,105.1,292,105.4,289.8,105.1z M300.4,103.7
			c1.9-0.9,3.9-1.4,5.9-0.6C304.4,104.1,302.4,103.9,300.4,103.7z M311.1,102.5c1.8-1,3.7-1.4,5.7-0.6
			C315,102.9,313.1,103.1,311.1,102.5z M321.2,101.4c1.8-1.2,3.9-1.3,6-0.9C325.4,101.8,323.3,101.7,321.2,101.4z M331.8,100.2
			c1.8-1.3,4-1.2,6.1-1C336.1,100.5,334,100.3,331.8,100.2z M342.3,98.9c1.9-1,3.8-1.3,5.9-0.7C346.4,99.3,344.4,99.4,342.3,98.9z
			 M353,97.6c1.8-1,3.6-1.3,5.7-0.6C356.9,97.9,355,98.1,353,97.6z M363.3,96.5c1.8-1.1,3.7-1.4,6.4-0.7
			C367.1,96.8,365.2,96.9,363.3,96.5z M373.6,95.4c1.8-1.2,3.7-1.4,5.7-0.8C377.5,95.9,375.6,95.6,373.6,95.4z M384,94.1
			c1.7-1.1,3.6-1.1,5.4-0.6C387.7,94.5,385.9,94.8,384,94.1z M393.6,92.9c1.9-1.3,3.9-0.9,6.3-1.2C397.9,93.5,396.3,93.8,393.6,92.9
			z M403.5,91.9c2.1-1.3,3.9-1.2,5.8-0.7C407.6,92.3,405.8,92.7,403.5,91.9z M413,91c2.3-0.6,3.8,0,4.9,1.5
			C416.2,92.7,414.7,92.3,413,91z M344.8,204.2c26.4-3.1,52.7-6.2,79.1-9.2c4.1-0.5,5.8,0.9,6.3,5c0.8,5.7,1.5,11.5,2.2,17.2
			c0.4,3.4-1.2,5.5-4.6,5.8c-13.3,1.5-26.6,3.1-39.8,4.6c0,0,0,0,0-0.1c-13.1,1.5-26.2,3-39.3,4.5c-4.7,0.5-6.5-0.8-7-5.5
			c-0.6-5.4-1.3-10.7-1.9-16.1C339.4,206.5,340.7,204.7,344.8,204.2z M363,273.6c-15.1,1.8-30.1,3.7-45.2,5.4
			c-5.5,0.6-7.7-1.2-8.3-6.7c-0.5-4.1-1-8.3-1.4-12.4c-0.4-4.2,1.3-6.6,5.5-7.1c7.7-1,15.4-1.8,23.2-2.7c0,0,0-0.1,0-0.1
			c7.5-0.9,15.1-1.8,22.6-2.6c4.5-0.5,5.9,0.6,6.4,5c0.6,5.2,1.2,10.4,1.8,15.5C367.8,271.4,366.4,273.2,363,273.6z M432.2,265.7
			c-17.1,2-34.3,4-51.4,6c-5.3,0.6-7.3-1.1-7.9-6.4c-0.5-4.2-1-8.5-1.5-12.7c-0.5-4.5,1.1-6.6,5.6-7.2c8.8-1.1,17.5-2.1,26.3-3.1
			c0-0.1,0-0.1,0-0.1c8.5-1,16.9-2,25.4-2.9c5.3-0.6,7.1,0.8,7.8,6.1c0.6,4.3,1.1,8.7,1.6,13C438.5,262.7,436.6,265.2,432.2,265.7z
			 M604.7,177.7c-50.2,5.8-100.4,11.6-150.7,17.5c-5.8,0.7-9.4-2.4-10-8.2c-3.5-30.5-7.1-61.1-10.6-91.6c-0.7-5.8,1.4-8.7,7.1-9.3
			c17.2-2,34.5-4,51.7-6c8.1-0.9,16.2-1.9,24.3-2.8c0,0,0,0,0-0.1c25.3-2.9,50.7-5.9,76-8.8c5.7-0.7,8.3,1.5,9,7.1
			c3.3,28.4,6.6,56.7,9.9,85.1c0.3,2.7,0.6,5.5,0.8,8.2C612.6,173.7,609.6,177.2,604.7,177.7z"/>
		<path class="st45" d="M610.3,166.7c-0.7-5.9-1.5-11.9-2.2-17.8c-2.9-24.6-5.7-49.2-8.6-73.8c-0.5-4.1-2.4-5.6-6.2-5.2
			c-25.3,2.9-50.7,5.9-76,8.8c0,0,0,0,0,0c-25.2,2.9-50.3,5.8-75.5,8.8c-5.6,0.6-7.1,2.6-6.5,8c3.5,30.2,7,60.5,10.4,90.7
			c0.6,5,3.2,7.1,8.3,6.5c7.9-1,15.8-2,23.7-2.9c41.9-4.9,83.9-9.7,125.8-14.6C609.1,174.6,611,172.2,610.3,166.7z M539.9,88.5
			c1.5-0.2,3-0.6,4.5-0.8c12.3-1.4,24.7-2.7,37-4.1c2.4-0.3,3.5,0.5,3.7,2.9c0.9,8.8,2,17.5,3,26.2c0.3,2.3-0.7,3.2-3,3.4
			c-6.7,0.7-13.4,1.5-20.1,2.3c0,0,0,0,0-0.1c-6.8,0.8-13.5,1.5-20.3,2.4c-2.7,0.3-4.1-0.4-4.4-3.3c-0.9-8.5-2-16.9-3.1-25.4
			C537.1,90,537.8,88.8,539.9,88.5z M486.8,105.6c3.7-0.4,7,2.5,7.4,6.3c0.4,3.8-2.2,7.2-5.7,7.6c-3.7,0.4-7.4-2.5-7.8-6.3
			C480.3,109.4,483,105.9,486.8,105.6z M458.5,149.9c3.8-5.8,7.6-11.5,11.4-17.3c1.3-2,2.4-4.1,3.7-6c2.1-3.2,4.9-3.8,8-1.5
			c4.2,3.1,8.3,6.3,12.4,9.5c3.9,3.1,5.1,3,8.3-1.1c4.2-5.4,8.3-10.8,12.4-16.3c3-4,5.7-4.4,9.6-1.3c8.9,7.2,17.8,14.5,26.6,21.8
			c1.5,1.2,3.9,2.4,3,4.9c-0.8,2.4-3.2,2.3-5.3,2.6c-14.1,1.6-28.2,3.3-42.4,4.9c0-0.1,0-0.3,0-0.4c-14.1,1.6-28.2,3.3-42.4,4.9
			c-0.9,0.1-1.9,0.3-2.8,0.2C458.2,154.5,457.1,152.2,458.5,149.9z M458.4,179.1c0-0.2,0-0.4-0.1-0.7c33.6-3.9,67.1-7.8,100.7-11.7
			c0,0.2,0.1,0.4,0.1,0.7C525.5,171.3,491.9,175.2,458.4,179.1z M457.3,169.7c0-0.2-0.1-0.5-0.1-0.7c46.2-5.4,92.4-10.7,138.6-16.1
			c0,0.2,0.1,0.5,0.1,0.7C549.7,159,503.5,164.3,457.3,169.7z"/>
		<path class="st3" d="M541.6,117.1c0.2,2.4,1.3,3,3.5,2.8c6.5-0.8,13-1.5,19.5-2.3c0,0,0,0,0,0c6.6-0.8,13.2-1.6,19.8-2.3
			c2.2-0.2,2.8-1.1,2.5-3.3c-1.1-8.3-2.1-16.6-2.9-24.9c-0.2-2-0.9-2.5-2.8-2.4c-13.3,0.8-26.4,2.8-39.6,4.3
			c-2.3,0.3-3.2,1.2-2.9,3.7C539.9,100.9,540.8,109,541.6,117.1z"/>
		<path class="st45" d="M436.7,257.7c-0.4-4.1-0.9-8.1-1.4-12.1c-0.5-4.4-1.9-5.7-6.3-5.2c-17.2,2-34.5,4-51.7,6.1
			c-3.5,0.4-4.6,2.1-4.2,5.8c0.5,4.4,1,8.8,1.6,13.3c0.6,4.6,2,5.7,6.6,5.2c8.4-1,16.8-1.9,25.2-2.9c8.3-1,16.6-1.9,24.9-2.9
			C435.8,264.2,437.2,262.4,436.7,257.7z M410.5,255.6c-3.7,2.6-7.4,5.2-11.1,7.8c-1.5,1-2.1,0.2-2.3-1.1c-0.3-2.2-0.5-4.5-0.8-6.8
			c0,0-0.1,0-0.1,0c-0.2-2.1-0.5-4.1-0.7-6.2c-0.2-1.7,0.5-2.3,2.2-1.7c4.1,1.6,8.3,3.2,12.4,4.9
			C411.9,253.3,412.2,254.4,410.5,255.6z"/>
		<path class="st3" d="M151.2,392.4c-1.6,0.8-3.2,1.5-4.8,2.4c-0.3-0.2-0.6-0.4-0.9-0.6C147.3,393.4,149.2,392.8,151.2,392.4z"/>
		<path class="st3" d="M165.8,378.7c1.6-3,2.6-6.1,1.8-9.6C166.5,372.2,166.8,375.6,165.8,378.7z"/>
		<path class="st3" d="M121.4,373.8c6-0.6,11.9,0.9,17.9,0.4C133.4,373.6,127.5,372,121.4,373.8z"/>
		<path class="st3" d="M164.4,378c-6-1.7-12.2-2.4-18.5-3.1c0,0.2,0,0.5,0,0.7c6.1,1,12.2,2,18.4,3
			C164.4,378.4,164.4,378.2,164.4,378z"/>
		<path class="st3" d="M251.1,433c-25.2-11.3-52.3-14.8-79-19.9c0,0,0,0-0.1-0.1C199,417.1,226.2,420.7,251.1,433z"/>
		<path class="st13" d="M320,190.3c0.1-0.7,0-1.6-0.6-2.6c-0.2-0.3-0.4-0.6-0.6-0.9c2.2-0.4,3.7-1.8,3.9-4c0.2-1.7-0.4-3.9-4.1-5
			c-1.2-0.4-2.4-0.6-3.5-0.7c2.4-1.5,4.8-3.3,7-5.2l0.2-0.2c1.1-0.9,3.5-3.1,2-5.8c-0.7-1.2-1.9-1.9-3.3-1.9c-1.2,0-2.4,0.5-3.4,1
			c-2.5,1.2-5,2.3-7.5,3.5c-1.8,0.8-3.6,1.7-5.4,2.5c-2.1,1-4.6,2.3-6.8,4.1c-9.2,7.9-15.5,16.7-19.3,26.8c-0.3,0.7-0.5,1.4-0.7,2
			c-1.2,3.5-2.4,6.7-4.9,9.3c-8,8.4-16,15.6-24.3,22.2c-4.1,3.2-8.4,6.9-12.1,11.3c-0.4,0.5-0.5,1.1-0.4,1.6c0,0,0,0,0,0
			c-0.6-0.1-1.2-0.2-1.7-0.2c-3.2,0-4.4,2.8-5.8,6.1c-0.1,0.2-0.1,0.3-0.2,0.5c-0.1,0.3-0.2,0.6-0.4,0.8c-2.6,6.5-5.7,15.2-6.9,24.5
			c-0.2,1.2-0.2,2.6,0.8,3.8c1,1.2,2.5,1.3,3.6,1.3l0.2,0c4.2-0.1,8.5-0.6,12.5-1c1.9-0.2,3.8-0.5,5.8-0.6
			c6.1-0.6,11.3-3.3,15.6-8.2c2.8-3.2,5.4-6.4,8.2-10c8.9-11.3,16.7-23.7,24.2-35.6c1.5-2.4,3.1-4.9,4.6-7.3c2.6-4,5.1-6.5,8.2-8.1
			c2.8-1.4,5.4-3.5,7.5-6c0.7-0.9,1.4-1.8,2.1-2.7c2.2-2.8,4.3-5.5,7.2-7.4c1-0.7,1.7-1.7,2-2.8c0.2-1.2,0-2.4-0.7-3.5
			C322.2,191,321.2,190.4,320,190.3z"/>
		<path class="st3" d="M243.8,281.5c5.8-0.5,10.5-3.2,14.2-7.5c2.8-3.2,5.5-6.5,8.1-9.9c10.7-13.5,19.5-28.2,28.7-42.7
			c2.3-3.7,5-6.8,9-8.8c2.6-1.3,5-3.2,6.8-5.5c3.1-3.7,5.6-7.8,9.8-10.5c1.2-0.7,1.6-2.2,0.7-3.5c-0.9-1.4-2.2-0.9-3.3-0.4
			c-1.9,0.9-3.6,2-5.4,3.1c-0.4,0.3-0.9,0.4-1.3-0.1c-0.4-0.5,0.1-0.9,0.5-1.2c1.4-1,2.8-1.9,4.3-2.8c1.2-0.8,2.8-1.4,1.7-3.2
			c-0.9-1.6-2.4-2.2-4.1-1.4c-1.5,0.7-3,1.7-4.4,2.5c-0.5,0.3-1.2,1-1.7,0.2c-0.5-0.8,0.3-1.2,0.8-1.5c2.7-2,5.6-3.5,9.1-3.5
			c1.7,0,3.1-0.5,3.4-2.4c0.2-1.8-1.3-2.4-2.7-2.9c-3.8-1.2-7.4-1.1-10.8,1.4c-1.4,1-2.7,2.4-5.3,2.8c2.1-3.1,4.9-4,7.2-5.5
			c4.1-2.4,8.1-4.9,11.7-8.1c1-0.9,2.6-2.1,1.8-3.5c-0.9-1.6-2.7-0.7-4.1-0.1c-4.3,2-8.6,4-12.9,6c-2.2,1-4.4,2.2-6.3,3.8
			c-8.3,7.2-14.9,15.6-18.8,26c-1.6,4.2-2.7,8.6-6.1,12.1c-7.7,8-15.8,15.5-24.5,22.4c-4.2,3.3-8.3,6.8-11.8,11
			c2.4,1.4,4.5,2.9,5.9,5.2c-1.8-0.4-3.4-1.2-5-1.8c-5.7-2.1-6.2-1.9-8.4,3.6c-0.2,0.4-0.4,0.9-0.6,1.3c-3,7.8-5.7,15.7-6.8,24
			c-0.3,2.1,0.2,2.8,2.5,2.8C231.8,283.1,237.8,282.1,243.8,281.5z"/>
		<path class="st45" d="M223.9,267.6c1.8-5.5,3.8-10.9,5.9-16.3c0.7-1.9,0.6-2.9-1.6-3.4c-2.9-0.8-5.8-1.7-8.6-2.8
			c-2.3-0.9-3.7-0.2-4.9,1.8c-3.3,5.5-5.8,11.3-7.9,17.3c-2.1,6-3.3,12.1-2.6,18.4c0.9,8.8,6.3,13,14.7,11.4c2.1-0.4,3.6-1.1,3-3.8
			C220.3,282.5,221.5,274.9,223.9,267.6z"/>
		<path class="st3" d="M180.5,382.8c-2.4,0.1-4.7,0.1-7.1,0.2c-12.2,0.5-24.1,2-35.7,5.2c-0.6-0.5-1.2-1-1.9-1.4
			c11.9-3.9,24.1-6.2,36.9-5.4c2.2,0.1,3.3-0.5,3.5-2.8c0.3-2.4,0.9-4.8,1.4-7.3c0.1-0.5,0-1.3,0.7-1.3c0.8,0,1,0.8,0.9,1.5
			c-0.3,2.4-0.4,4.9-1,7.3C177.6,381.1,177.9,382.4,180.5,382.8z"/>
		<path class="st45" d="M199.9,275.3c1.5-0.5,2.3-1.3,2.6-2.9c0.9-5.4,2.7-10.5,4.9-15.4c1.8-3.8,3.8-7.6,5.8-11.5
			c-3.2-1.1-6.3-2.3-9.5-3.2c-14.9-4-29.2-9.4-42.1-18.1c-5.2-3.5-11.2-4.5-17.4-3.9c-5.1,0.5-10.1,1.2-15,2.7
			c6.5-3.3,13.5-4.7,21-4.4c-0.3-0.4-0.4-0.7-0.7-0.8c-6-3.3-12.5-5.3-19.2-7c-1-0.2-1.6,0.1-2.3,0.8c-2.9,2.9-5.8,5.8-8,9.2
			c-5.9,9.2-9.9,19.1-12,29.6c-0.7,3.3-1.1,6.7-1.4,10.1c-1.3,14.9-2.2,29.9-3.5,44.8c-1.4,15.7-3,31.3-11.4,45.1
			c1.7,1.5,3.4,3,5.2,4.5c0.9,0.8,1.8,1.5,2.7,2.4c3.2,2.7,6.3,5.4,9.5,8c8.8-2.1,17.5-4.6,26.7-4.5c-5.8-3.5-12.8-4.2-18.3-8.9
			c1.7-0.2,2.8,0.5,3.9,0.9c12.3,3.6,24.1,9.2,36.7,11.9c9,1.9,18.1,3.6,27.3,2.8c8.8-0.8,12-4.9,10.7-13.7c-0.7-4.6-0.3-9,0.6-13.5
			c1.4-7.1,4-13.8,6.6-20.5c0.6-1.7,0.7-3,0.1-4.4c-0.3-0.7-0.8-1.4-1.5-2.2c-1.2-1.4-2.6-1.8-4-2.1c-0.7-0.1-1.4-0.2-2.2-0.3
			c-10.2-1.6-20.1-4.1-27.7-11.9c-0.7-0.7-1.4-1.2-2.3-1.7c-2.5-1.3-4.6-1.8-7.1,0.5c-7.5,6.8-15.3,13.4-22.8,20.1
			c-1.4,1.2-2.7,2-4.7,1.9c3.7-3.6,7.5-7,11.1-10.6c5.7-5.6,11.9-10.6,16.8-17c2-2.6,1.5-4.1-1.6-5.4c-1.3-0.5-2.4,0-3.5,0.4
			c-5.3,2.1-10.8,3.6-16.6,3.7c6-1.9,12-3.7,18.1-6.8c-2.6-1.3-4.6-2.3-6.8-3.3c-2.1-1-4-2-5.7-3.6c5.6,2.3,11.2,4.4,16.9,6.2
			c8.9,2.8,18,5,27.3,6.4c4.9,0.7,9.8,1.4,14.6,2c1.3,0.2,2.6,0.2,1.6-1.9c-1.5-3.3-1.8-6.8-1.6-10.3c0.1-2.3-0.8-2.7-2.9-2.3
			c-4.1,0.8-8.2,1.1-12.4,0.5c1.5-0.3,3.1-0.5,4.7-0.7C194.2,276.4,197.1,276.2,199.9,275.3z M191.5,358.7c1.2-3.3-0.7-7,1.2-10.3
			C192,351.8,194.1,355.5,191.5,358.7z M194.8,329.3c-2.5,8.5-5.4,16.9-9.8,24.6C188.3,345.7,191.7,337.5,194.8,329.3z M171,337.2
			c-6.7,5.8-14,10.8-21.6,15.3C155.8,346.2,162.9,341,171,337.2z M204.4,254.1c-0.9,2.4-4.3,5.2-8.3,6.6
			C199.2,258.2,201.8,256.2,204.4,254.1z M165.9,231.1c-6.6-1-12.5-3.3-18.7-2C151.9,227.2,160.2,228,165.9,231.1z M131.5,239.8
			c-2.3,8-3,15.9,1.6,23.5C127.5,257.4,127.5,246.9,131.5,239.8z M147.8,271c12.1-1.5,24.1-3.2,35.9-5.9
			C172,268.8,160,270.8,147.8,271z M148.5,252.2c14.2-3.5,28.2-8.1,42.8-9.1C176.9,245.7,163,250.4,148.5,252.2z"/>
		<path class="st78" d="M129.9,188c3.3,1.9,6.8,3.2,9.9,5.4c1.1,0.7,1.6,0.4,2.2-0.6c2.1-3.4,1.1-6.2-3.1-7.7
			c-5.5-1.9-10.7-4.3-14.8-8.6c-1.2-1.3-2.3-2.6-3.9-4.4C120.7,179.7,124.1,184.6,129.9,188z"/>
		<g>
			<path class="st13" d="M200.6,188c-1.4,1.4-3,2.6-4.6,3.6C197.8,190.8,199.3,189.6,200.6,188z"/>
			<path class="st13" d="M192.7,277.4c-1.9,0-3.8-0.1-5.6-0.1C189,277.9,190.9,277.9,192.7,277.4z"/>
			<path class="st13" d="M251.1,175c1.9-4.1,3.7-8.3,5.4-12.5C253.5,166.1,252.1,170.5,251.1,175z"/>
			<path class="st13" d="M420,114.5c-1-3-2.1-6.2-4.6-8.1c-3.7-2.9-8.9-2.4-13.6-1.7c-45.9,7-91.7,14.1-137.6,21.1
				c-1,0.2-2.1,0.5-3,1.1c-4.3,2.8-1.9,8.3-0.8,12.7c1.6,6.8-0.6,14-3.1,20.5c-0.3,0.8-0.6,1.6-0.9,2.4c0.9-1.1,2-2.2,3.3-3.1
				c2.6-1.9,5.4-3.4,8.4-4.7c1-0.4,1.9-0.7,3.4-0.1c-3.5,3.3-7.6,4.9-10.9,7.8c3.9-1.2,7.4-3.3,10.9-5.4c4.1-2.4,8.2-4.7,12.4-6.9
				c0.7-0.4,1.5-1.1,2.3-0.4c0.9,0.8,0.7,1.9,0.3,2.9c-1.2,3.3-4,5.2-6.6,7.2c-2.1,1.6-4.4,2.9-6.6,4.4c-2,1.4-3.3,3.2-3.1,5.7
				c0.6,6.1-1.3,11.2-6.1,15.4c1.2,0.5,2.7-1.4,3.4,0.7c0.6,1.7,1.4,3.6-0.4,4.7c-5.9,3.5-6.9,9.9-9.3,15.4
				c-4.3,10.1-8.4,20.3-12.6,30.5c-0.7,1.6-1.6,3-2.9,4.1c-2.2,1.9-4.3,4-6.5,5.9c-1.2,1.1-2.3,1.3-3-0.5c-3-8.2-8.9-13.9-16.2-18.5
				c7.1-7.6,14.6-14.6,20.7-22.9c6.3-8.6,11.3-17.6,13.4-28.2c0.1-0.5,0.2-1.1,0.3-1.6c-6.2,13.3-13.7,25.9-22.4,37.8
				c-3.2,4.3-6.6,8.6-11.4,11.1s-11.1,2.6-15-1.1c-4.5-4.2-4.7-12.2-10-15.3c-4-2.3-9.2-0.9-13-4.1c-1.5-1.3-2.2-3.3-1.5-5.1
				c1.1-2.9,4.8-3,7.7-3.2c3.7-0.3,7.2-1.6,10.4-3.5c-1.4,0.6-2.9,0.9-4.6,1c-8,0.3-15.6-1.6-22.8-4.9c-1-0.5-2.1-0.9-3.6-1
				c0.8,1.2,1.5,2.4,2.4,3.6c2.5,3.4,5.1,6.8,7.7,10.2c0.6,0.8,1.2,1.6,0.9,2.8c-0.6,2.8-1.1,5.6-1.6,8.4c-0.2,1.3-0.5,1.9-1.9,1
				c-9.2-5.7-18.7-10.8-28.5-15.3c-1.2-0.6-1-1.2-0.7-2.2c1.7-5.5,5.2-10.3,5.5-16.3c0-1.3,4-2.6,5.2-1.9c0.7,0.4,1.3,0.8,2.1,1.3
				c-1.5-3.4-2.4-3.8-5.3-2.7c-8.4,3.2-20.1-5.4-19.5-14.4c0.4-6,5.3-9,10.9-6.8c2.3,0.9,4,2.5,5.3,4.5c0.6,0.9,1.2,1.9,2,2.8
				c1.5,1.7,5,1.8,7.1,0.2c1.9-1.5,0.4-3.1,0-4.6c-0.4-1.5-2.6-3.1-1.8-4c1-1.2,3.2-1.3,5-1.7c11-2.5,17.8-9.5,21.4-19.9
				c0.9-2.5,1.1-5.2,1-8c3.8,3.6,4.6,13.5,1.8,18.7c-0.7,1.4-1.8,0.8-2.7,0.7c-3.4-0.3-6.1,0.9-8.2,3.6c-0.4,0.5-0.9,1.2-0.5,1.8
				c0.6,0.7,1.2,0,1.7-0.3c2.3-1.8,4.8-2.5,7.7-1.8c1.6,0.4,2.8-0.1,3.3-1.8c0.1-0.6,0.5-1,0.9-1.4c4.2-3.9,4.2-4,6.2-8.6
				c0.2,1.9-0.8,3.5-1.3,5.4c4.6-2.8,5.7-8.2,3.3-16.5c4.1,3.5,6.8,7.2,7.6,12.1c0.2,1.5,0.1,2.2-1.7,2.1c-2.2-0.1-3.8,1-4.9,2.9
				c-0.3,0.6-0.5,1.3,0.1,1.8c0.6,0.5,1-0.2,1.4-0.4c1.6-0.9,3.3-2.6,4.9-1.6c1.7,1,0.7,3.3,0.6,5c-0.5,4.1,0.5,7.7,3.1,10.9
				c2.6,3.3,3,7,2.7,11c-0.6,6.6-2.8,12.8-6,18.5c-0.4,0.8-0.9,1.5-1.5,2.2c6.5-6.3,10.1-15.9,8-24.8c-0.8-3.4-2.3-6.6-2.4-10.1
				c-0.2-5.4,3-10.2,4.6-15.4c1.3-4.3,1-9.8-2.1-12.6c4.4,3.3,7,9.2,6.1,14.7c3.4-6,1.4-13.9-3.1-19.1s-11-8.2-17.5-10.5
				c-18.7-6.8-40.1-9.3-58-0.6c-17.8,8.7-29.6,31.4-21.2,49.4c-14.4-3.1-30.8,4.9-35.7,18.8c-4.9,13.8,3.9,31.4,18.4,34.2
				c-8-7.3-9.5-20.8-3.2-29.6c-4,14.3,6.3,30.9,20.9,33.6c-5.7-4.7-8.5-12.7-7.1-19.9c-0.2,8.3,4.5,16.4,11.7,20.5
				c-26,38-9.9,91.6-28.7,133.6c18.7-33.8,8.4-76.5,20.2-113.3c2.7-8.4,6.9-16.8,14.4-21.5c7.5-4.7,18.8-4,23.6,3.4
				c-6.8-0.5-13.8,0.9-19.9,3.9c13.8-5.3,29.4-0.1,42.6,6.5c13.2,6.6,26.3,14.9,41,16.2c-4.5,6-5.5,13.9-8.6,20.8
				c-2.2,5-6.7,9.9-11.7,11.2c2.8,0,5.6,0.1,8.4,0.1c0.7,4.6,1.5,9.1,2.2,13.7c-20.6-1.4-41.1-6.2-60.2-14.2c4,2.3,8,4.5,11.9,6.8
				c-5.9,2.3-11.7,4.6-17.6,6.9c6.3-1.3,12.6-2.5,18.9-3.8c0.9-0.2,2,0,2.7,0.6c1.8,1.6,0.2,4-1.3,5.6c-8.7,8.9-17.4,17.9-26.1,26.8
				c6.7-5.5,13.5-11.1,20.2-16.6c2.3-1.9,4.6-3.8,7.5-4.5c4-1,8.2,0.7,12,2.3c7.7,3.3,15.4,6.6,23,9.9c2.4,1,4.9,2.1,6.2,4.3
				c1.6,2.6,1,6,0.4,9c-2.3,11.3-4.5,22.7-6.8,34c-0.6,3.2-1.5,6.8-4.3,8.6c-2.3,1.5-5.2,1.3-7.9,1.1c-22.2-2.1-44-7.8-64.4-16.7
				c5.3,4.1,11.3,7.2,17.6,9.3c-8.7,1.5-17.4,3.1-26.1,4.6c14.4,18,41.8,24,62.5,13.8c2.8-1.4,5.8-3.6,6.5-6.5
				c-0.2,3.5,0.5,7,1.9,10.2c-14.1,1.8-28.2,3.7-42.2,5.5c2.8,3.8,8,5.6,12.6,4.4c-3,0.8-1.2,5.4,1.2,7.3
				c9.7,7.7,21.1,11.8,33.1,14.7c-4.1-0.7-8.1-1.3-12.2-1.9c23.2,17.9,48,36.4,77,39.7c25.2,2.9,50.1-6.1,75.4-7.3
				c-9.6,0.4-19.2,0.8-28.8,1.2c5.5-3.7,6.3-11.9,3.5-17.9s-8.5-10.1-14.2-13.5c-28.6-17.2-62.7-22.1-95.2-29.5
				c-2.2-0.5-4.2-1.9-5.2-4c-2.5-5.3,3.3-9.1,7-12.9c8.2-8.4,7.2-21.7,8.7-33.3c2-15.5,9.6-30.3,21.1-40.9c2-1.9,4.3-3.7,7-4.5
				c3.9-1.1,8,0,12.1,0.3c14.5,1,27.2-9.8,35.1-22s12.6-26.2,21.2-37.9c8.1-11.1,19.9-20.8,23.4-33.7c-0.1,0-0.1,0.1-0.2,0.1
				c-4.2,2.7-6.7,6.8-9.8,10.5c-1.9,2.2-4.2,4.2-6.9,5.5c-4,2-6.7,5.1-9,8.8c-9.2,14.5-18,29.2-28.7,42.7c-2.6,3.3-5.3,6.7-8.1,9.9
				c-3.8,4.3-8.4,6.9-14.2,7.5c-6,0.6-12,1.6-18.1,1.6c-2.3,0-2.8-0.7-2.5-2.8c1.2-8.3,3.8-16.2,6.8-24c0.2-0.5,0.4-0.9,0.6-1.3
				c2.3-5.5,2.7-5.7,8.4-3.6c1.7,0.6,3.3,1.3,5,1.8c-1.5-2.3-3.5-3.8-5.9-5.2c3.5-4.2,7.6-7.7,11.8-11c8.7-6.9,16.8-14.4,24.5-22.4
				c3.3-3.5,4.5-7.9,6.1-12.1c3.9-10.4,10.4-18.8,18.8-26c1.9-1.6,4.1-2.8,6.3-3.8c4.3-2,8.6-4,12.9-6c1.4-0.6,3.2-1.5,4.1,0.1
				c0.8,1.4-0.8,2.6-1.8,3.5c-3.6,3.2-7.6,5.6-11.7,8.1c-2.4,1.4-5.1,2.4-7.2,5.5c2.7-0.5,3.9-1.8,5.3-2.8c3.4-2.5,7.1-2.5,10.8-1.4
				c1.3,0.4,2.9,1.1,2.7,2.9c-0.2,1.8-1.7,2.4-3.4,2.4c-3.5,0-6.4,1.5-9.1,3.5c-0.5,0.4-1.3,0.8-0.8,1.5c0.5,0.8,1.1,0.2,1.7-0.2
				c1.5-0.9,2.9-1.8,4.4-2.5c1.8-0.8,3.2-0.2,4.1,1.4c1,1.8-0.5,2.5-1.7,3.2c-1.4,0.9-2.9,1.8-4.3,2.8c-0.4,0.2-0.8,0.7-0.4,1.2
				c0.3,0.5,0.8,0.3,1.2,0c1.8-1,3.6-2.1,5.4-3.1c1.1-0.5,2.4-1,3.3,0.4c0.1,0.1,0.1,0.2,0.1,0.3c0.1-0.4,0.1-0.7,0.2-1.1
				c0.3-2.3,0.3-4.9,1.8-6.7c1.5-1.8,4.1-2.3,6.4-2.7c20.9-3.3,41.8-6.5,62.7-9.7c5.5-0.8,17-3,27.1-4.8c8.1-1.5,13.2-9.7,10.9-17.6
				L420,114.5z M168.9,133.5c-0.4,7.2-7.4,15-15.3,16.8C160.2,145.8,165.6,140.9,168.9,133.5z M80.6,189.9c-1.8-1.8-2.2-2.8-2.1-5
				c0.2-6.4,3.8-11,8.2-15c4.7-4.3,10.3-7,16.7-8C90.7,167.1,83,176.3,80.6,189.9z M121.4,373.8c6-1.8,11.9-0.2,17.9,0.4
				C133.4,374.7,127.4,373.1,121.4,373.8z M164.3,378.6c-6.1-1-12.2-2-18.4-3c0-0.2,0-0.5,0-0.7c6.2,0.7,12.4,1.3,18.4,3
				C164.4,378.2,164.4,378.4,164.3,378.6z M165.8,378.7c1-3.1,0.7-6.5,1.8-9.6C168.4,372.6,167.4,375.7,165.8,378.7z M257.5,440.6
				c3.4-0.2,6.7-0.3,10.1-0.5c0,0.3,0.1,0.5,0.1,0.8c-3.5,0.4-7,0.8-10.5,1.2c-0.5,0.1-1-0.1-1-0.7
				C256.2,440.7,256.9,440.6,257.5,440.6z M204.1,418.5c16.4,3,32.8,6,46.8,14.4C235.7,427,220,422.2,204.1,418.5z M120.2,172.1
				c1.6,1.8,2.7,3.2,3.9,4.4c4.1,4.3,9.3,6.7,14.8,8.6c4.2,1.5,5.2,4.3,3.1,7.7c-0.6,1-1.2,1.3-2.2,0.6c-3.1-2.2-6.7-3.5-10-5.4
				C124.1,184.6,120.7,179.7,120.2,172.1z M171.1,227c-0.8-0.4-1.4-0.7-2.1-1c-6.2-2.8-11.5-7-17.5-10c-6.7-3.3-13.6-5.8-21-6.9
				c-2.8-0.4-2.7-1.3-1.3-3.3c1.8-2.7,3.9-5.2,6-7.6c0.9-1.1,1.9-1.7,3.4-1.1c13.4,5.5,25.9,12.6,38,20.5c1.2,0.8,1.9,1.4,0.3,2.6
				c-1.9,1.3-3,3.4-4.4,5.2C172,226,171.6,226.5,171.1,227z M187,235.1c-3.7-1.6-7.4-3.3-11.1-5.1c-0.9-0.4-2.3-0.8-1.4-2.4
				c0.9-1.6,1.9-1,3.1-0.4c2.1,1.2,4.2,2.4,6.2,3.7c-1.1-2.3-3.4-3.2-5.2-4.6c-0.8-0.6-2.1-1.2-1.3-2.4c0.8-1.2,1.9-0.3,2.8,0.2
				c3.7,1.9,9.1,7.9,10.9,12.3C189.5,236.3,188.2,235.6,187,235.1z M195.3,237.7c-1.8-0.5-5.2-6.8-4.8-8.5c1.3-5.2,0.6-11-1.8-14.3
				c-0.7-1-1.4-2-2.9-2.2c1.6,3.6,0.2,7.2,0.8,11.7c-3.5-3.7-6.6-6.6-9.9-9.2c-1.5-1.2-0.3-3-0.1-4.5c0.6-4.3,0.7-4.3,5-3.7
				c1.6,0.2,3.2,0.4,4.8,0.7c5.8,1.1,9.1,4.5,10.2,10.3c1.1,5.9,3,7.5,8.9,8.5c11.3,2,19.4,8.2,24.6,19.1c-3.6-0.4-6.4-1.5-9.2-2.4
				c-1.8-0.6-3.7-1-5.5,0c-0.6,0.3-1,0.2-1.6,0.1C207.6,241.4,201.5,239.6,195.3,237.7z M229.8,251.3c-2.1,5.4-4.1,10.8-5.9,16.3
				c-2.4,7.4-3.6,14.9-2,22.6c0.6,2.6-1,3.4-3,3.8c-8.4,1.6-13.9-2.6-14.7-11.4c-0.7-6.4,0.5-12.5,2.6-18.4c2.1-6,4.6-11.8,7.9-17.3
				c1.2-2,2.6-2.7,4.9-1.8c2.8,1.1,5.7,2,8.6,2.8C230.4,248.4,230.5,249.4,229.8,251.3z M287.1,155.4c1-1,1.4-2.5,1.4-4
				c0.1-2.3-1.6-3.9-3.7-3.3c-1.2,0.3-1.7,0.2-1.9-0.8c0-0.2-0.1-0.5-0.2-0.7c-2.1-6.4-1.8-7,4.8-8.3c8.7-1.8,17.4-3.8,26.1-5.6
				c4.8-1,5.8-0.5,6.8,4.2c1.4,6.1,2.7,12.3,4.2,19.3c-3.5-1.9-6.3-3.3-9.1-4.8c-4.6-2.5-4.6-2.5-7.5,1.7c-0.7,0.9-1.3,1.9-1.9,2.8
				c-2.4,3.6-2.4,3.6-6.1,1.4c-0.6-0.4-1.1-0.8-1.6-1.2c-1.6-1.2-2.8-1.1-3.8,0.9c-1.3,2.7-2.8,5.4-4.4,7.9c-1.2,2-2.4,2-3.1-0.1
				C286,161.8,284,158.6,287.1,155.4z M280.8,197.2c-1,2.2-2.3,4.4-2.8,6.8c-1,4.3-3.3,7.7-6.3,10.8c-7.2,7.5-14.9,14.4-23.8,21.2
				c3.1-7.6,5.9-14.6,8.6-21.6c2.1-5.3,4.2-10.5,6.3-15.8c0.7-1.9,1.7-3.5,3.7-4.3c3.6-1.5,5.8-4.5,7.6-7.8c0.9-1.6,1.6-3.2,2.5-4.8
				c0.9-1.5,1.3-2.3,2-2.3c0.1,0,0.3,0,0.4,0.1c0.2,0.1,0.3,0.2,0.5,0.3c0.2,0.1,0.4,0.3,0.6,0.5c0.2,0.2,0.5,0.4,0.8,0.7
				c0.1,0.1,0.2,0.2,0.4,0.3c0.2,0.2,0.5,0.3,0.7,0.5c0.1,0.1,0.3,0.1,0.4,0.2c0.1,0.1,0.2,0.1,0.4,0.2c0.2,0.1,0.3,0.1,0.5,0.2
				c0.2,0.1,0.4,0.1,0.5,0.2c0.1,0,0.2,0,0.2,0.1c0.1,0,0.3,0.1,0.4,0.1c0,0,0.1,0,0.1,0c0.1,0,0.2,0,0.3,0.1c0.1,0,0.2,0,0.3,0
				c0.2,0,0.4,0.1,0.7,0.1c0.4,0,0.9,0.1,1.4,0.1c0.9,0,1.8-0.1,3.2-0.1C286.5,187.4,283.3,192,280.8,197.2z M418.1,158.8
				c-31.4,5.6-62.7,11.1-94.1,16.6c-2.5,0.4-5,0.6-7.8,0.9c2-1.6,3.9-3.1,5.8-4.6c1-0.9,1.9-1.9,2.3-3.2c0.6-2.4-0.9-4.2-3.3-4.1
				c-0.4,0-0.8,0-1.1,0.2c-8.6,4.5-18.3,7.1-25.3,14.3c-2.7,2.8-5.9,2.7-9.2,2.4c-2.2-0.2-3.4-1.9-3.9-4c-1-4.1-1.9-8.1-2.7-12.2
				c-0.4-1.8,3.2-5.8,5-5.8c0.8,0,0.8,0.7,1,1.1c0.4,1.3,0.8,2.7,1.2,4.1c1,2.9,2.2,3.6,5.2,2.9c9.7-2.1,19.5-4.1,29.2-6.2
				c5.4-1.2,6.2-2.3,5-7.6c-1.3-6-2.6-12-4.1-18c-1.1-4.3-2.6-5.1-6.8-4.2c-9.6,2.1-19.3,4.1-28.9,6.2c-5.1,1.1-5.6,2-4.6,7
				c0.5,2.2,2.1,4.8-1.4,6.2c-2.1,0.9-3.8,2.8-6.5,2c-2.3-0.7-4.8-0.3-6.9,1c-1.7,1-2,0.3-2.3-1.2c-1.1-5.7-2.3-11.3-3.4-17
				c-0.9-4.8,1.2-7.7,5.9-8.5c31.1-5.2,62.2-9.8,93.4-14.3c15.4-2.2,30.7-4.8,46.1-7.3c5.3-0.9,8.3,0.9,9.5,6.2
				c3,12.9,5.9,25.9,8.3,38.9C424.6,155,422.5,158,418.1,158.8z"/>
		</g>
		<path d="M631.3,161c-0.1-1.1-0.7-2.9,0.4-3.1c0.5,0,0.8,0.1,0.9,0.3C628.5,122,620.2,49.7,618,32.2c-2.6-20.4-20.2-34.2-40.6-31.9
			c-44,5-88,10.1-132,15.2C383.1,22.7,320.8,30,258.6,37.2c-13.8,1.6-27.6,3-41.2,5.1c-15.4,2.4-27.5,16.1-28.3,31.7
			c-0.4,7.7,2,24.6,3.2,34c0.1,1,0.2,1.9,0.3,2.8c0,0.2,0.1,0.4,0.1,0.6c0.1,0.5,0.3,1,0.9,0.9c0.5,0,0.8-0.6,0.7-1
			c0-0.2-0.1-0.7-0.1-1.3c0-0.2,0-0.4-0.1-0.6c0-0.2,0-0.5-0.1-0.7c-0.5-4.1-1.4-11.7-1.5-12.7c-0.4-3.7-0.5-3.7,3.1-4.1
			c69.6-8.1,139.3-16.2,208.9-24.2c69.3-8,138.7-16.1,208-24.1c4.9-0.6,4.9-0.5,5.5,4.4c1.8,15.6,12.9,111,14.7,126.6
			c0.1,0.7,0.2,1.7,0.3,2.5C632.5,171.3,631.9,166,631.3,161z M525.8,37.3c-4.1,0.3-7.9-2.9-8.4-7.2c-0.4-4.1,2.7-7.9,6.8-8.3
			c4-0.4,8.3,3.2,8.6,7C533.3,33.1,530,37,525.8,37.3z M555.5,33.9c-4,0.4-8.1-3-8.6-7.1c-0.4-4,2.8-7.9,6.9-8.4
			c3.7-0.4,8.4,3.1,8.8,6.6C563,29.2,559.6,33.5,555.5,33.9z M585.6,30.4c-4.2,0.5-8.1-2.5-8.7-6.8c-0.5-4.1,2.6-8.3,6.6-8.8
			c4-0.5,8.3,2.8,8.8,6.8C593,26,590,29.9,585.6,30.4z"/>
		<path d="M432.4,217.3c-0.8-5.7-1.5-11.5-2.2-17.2c-0.5-4.1-2.2-5.5-6.3-5c-26.4,3-52.7,6.1-79.1,9.2c-4.1,0.5-5.4,2.3-4.9,6.4
			c0.6,5.4,1.2,10.7,1.9,16.1c0.6,4.7,2.3,6,7,5.5c13.1-1.5,26.2-3,39.3-4.5c0,0,0,0,0,0.1c13.3-1.5,26.5-3.1,39.8-4.6
			C431.3,222.7,432.9,220.7,432.4,217.3z M360,215.8c-0.8,0-1.7,0.1-1.8-0.9c-0.1-0.9,0.9-0.8,1.5-0.8c17.2-2,34.4-3.9,51.6-5.9
			c0.7-0.1,1.5-0.3,1.9,0.7c-0.6,1.1-1.8,0.9-2.8,1c-16.4,2-32.9,3.9-49.3,5.8C360.7,215.7,360.3,215.8,360,215.8z M412.2,217.5
			c-8.5,1-17.1,2-25.6,3c-0.5,0.1-0.9,0.1-1.4,0.1c-0.6,0-1.2,0-1.3-0.8c0-0.6,0.6-0.7,1-0.7c9.5-1,19-2,28.5-3
			c0.2,0,0.5,0.2,0.9,0.4C413.7,217.6,412.9,217.4,412.2,217.5z"/>
		<path d="M585.7,258.1c-2,0.2-3.9,0.7-5.7,1.7c-2.4,1.4-3.7,3.5-3.6,6.3c0.1,2.6,0.3,5.1,0.4,7.7l1.4-0.2c0.2,0,0.5-0.1,0.7-0.1
			c-0.2-2-0.5-3.9-0.7-5.9c-0.5-5.1,1.7-7.8,6.9-8.4c10.7-1.3,21.5-2.7,32.2-4c1.1-0.1,2.2-0.3,3.4-0.4c0-0.4-0.1-0.8-0.1-1.2
			C608.9,255.2,597.3,256.7,585.7,258.1z"/>
		<path d="M622.5,254.7c2-0.2,4-0.5,6-0.7l-0.1-0.5c4.5-0.5,9-1,13.4-1.6c0-0.3-0.1-0.6-0.1-0.9c-6.5,0.8-12.9,1.7-19.4,2.5
			L622.5,254.7z"/>
		<path d="M684.7,256.6c-0.4-1.8-1-3.6-2.4-4.7c-3.8-3-7.6-5.2-13.1-4.5c-8.5,1.2-17,2.3-25.5,3.4l0.1,0.9c8.8-1,17.7-2.1,26.5-3.1
			c6.5-0.7,8.9,1.3,9.2,7.9c0.3,5.9,0.6,11.7,1,17.6c0.2,3.9-2.1,6.8-6,7.2c-11.1,1.4-22.2,2.8-33.3,4.1c-0.8,0.1-1.6,0.2-2.4,0.3
			c-16.3,2-32.7,4-49,6.1c-6.8,0.8-8.8-0.8-9.6-7.7c-0.3-2.7-0.6-5.4-1-8c-0.3,0-0.6,0.1-0.9,0.1l-1.4,0.2
			c0.4,6.9,0.8,13.7,1.2,20.6c0.1,2.4,1.1,4.2,3.2,5.4c0.2,0.1,0.5,0.2,0.7,0.3c6.1-0.7,12.1-1.5,18-2.2c5.2-0.6-0.9,0.6,4.3,0
			c0.9-0.1,1.6-1.3,2.9-0.8c-0.5,0.7-1,1.1-1.5,1.2c7.1-0.8,14.3-1.7,21.4-2.5l8.7-1l0-0.3c3-0.4,6-0.7,9-1
			c13.3-1.6,26.6-3.1,39.8-4.8c5.6-0.7,7.1-2.8,5.8-8.3C688.5,274.2,686.6,265.4,684.7,256.6z"/>
		<path d="M408.4,325.2c9.3,4.1,18.6,8.4,27.9,12.6c4.2,1.9,4.3,2.1,3.4,6.6c-0.9,4.5-3.3,8.3-6.2,11.7c4.1-3.1,6.5-7.1,7.2-12.2
			c0.2-1.1-0.9-3,1.1-3.2c2.2-0.2,4.6,2.2,4.3,4.2c-0.7,5.3-2.3,10.1-6.2,14c-1.4,1.4-2.6,1.7-4.5,0.9
			c-21.7-8.7-42.9-18.5-64.2-28.3c-0.8-0.3-1.4-0.8-2.3-1.3c1-0.8,1.7-1.5,2.6-2c4.9-2.9,7-7.3,7.1-12.8c0-2.5,0.9-2.5,2.8-1.9
			c8.2,2.8,15.8,6.8,23.7,10.2c0.1,0.1,0.3,0.1,0.4,0.2c0.3-0.6,1.5-0.7,2.6-0.8c-7-3.2-14.1-6.4-21.2-9.3
			c-12.7-5.1-26.3-6.3-39.8-7.7c-3.2-0.3-4.2,1.6-2.3,4.3c2.1,2.9,4.5,5.6,6.9,8.3c3.3,3.7,6.6,7.5,10.5,10.4c0.4,0,0.8-0.1,1.1-0.1
			c0.7-0.1,1.3-0.2,2-0.2c0.6-0.1,1.3-0.1,1.4,0.6c0.2,0.8-0.5,1.1-1.2,1.2c-0.2,0-0.5,0.1-1,0.1c0.8,0.5,1.6,0.9,2.5,1.3
			c24,11,48.1,21.9,72.7,31.8c5.1,2.1,10.3,4.5,16.2,3.8c0.8-0.1,1.7-0.2,2.5-0.4c7.7-1.7,10.4-8.5,5.8-14.9c-2.1-2.9-4.9-5-8.1-6.6
			c-12.9-6.5-26-12.5-39.1-18.4c-1.9-0.9-3.9-1.7-5.8-2.6c-0.5,0.1-0.9,0.1-1.3,0.2C409.6,324.9,409,325.1,408.4,325.2z"/>
		<path d="M612.2,168.8c-0.2-2.7-0.5-5.5-0.8-8.2c-3.3-28.4-6.6-56.7-9.9-85.1c-0.7-5.6-3.3-7.8-9-7.1c-25.3,3-50.7,5.9-76,8.8
			c0,0,0,0,0,0.1c-8.1,0.9-16.2,1.9-24.3,2.8c-17.2,2-34.5,4-51.7,6c-5.7,0.7-7.8,3.6-7.1,9.3c3.6,30.5,7.1,61,10.6,91.6
			c0.7,5.8,4.3,8.8,10,8.2c50.2-5.8,100.4-11.6,150.7-17.5C609.6,177.2,612.6,173.7,612.2,168.8z M603.6,175.3
			c-41.9,4.9-83.9,9.7-125.8,14.6c-7.9,0.9-15.8,1.9-23.7,2.9c-5.1,0.6-7.7-1.4-8.3-6.5c-3.5-30.2-7-60.5-10.4-90.7
			c-0.6-5.5,0.9-7.4,6.5-8c25.2-2.9,50.3-5.8,75.5-8.8c0,0,0,0,0,0c25.3-2.9,50.7-5.9,76-8.8c3.8-0.5,5.8,1.1,6.2,5.2
			c2.9,24.6,5.7,49.2,8.6,73.8c0.7,5.9,1.4,11.9,2.2,17.8C611,172.2,609.1,174.6,603.6,175.3z"/>
		<path d="M367.4,267.9c-0.6-5.2-1.2-10.4-1.8-15.5c-0.5-4.4-1.9-5.5-6.4-5c-7.5,0.9-15.1,1.8-22.6,2.6c0,0,0,0.1,0,0.1
			c-7.7,0.9-15.5,1.7-23.2,2.7c-4.2,0.5-5.9,2.9-5.5,7.1c0.4,4.2,1,8.3,1.4,12.4c0.6,5.4,2.8,7.3,8.3,6.7
			c15.1-1.7,30.1-3.6,45.2-5.4C366.4,273.2,367.8,271.4,367.4,267.9z M342.8,274.6c-8.6,0.9-17.1,2-25.7,2.9
			c-3.9,0.4-5.1-0.6-5.6-4.5c-0.6-4.4-1.1-8.8-1.6-13.2c-0.5-4.1,0.5-5.6,4.7-6.1c4.3-0.6,8.6-1,13-1.5c4.4-0.5,8.8-1,13.3-1.6
			c1.9-0.2,2.9,0.4,3.1,2.3c0.7,6,1.5,12,2.1,18.1C346.2,273.1,345.2,274.4,342.8,274.6z"/>
		<path d="M578.2,273.7l-1.4,0.2c-33.4,3.8-77.5,8.9-110.6,12.8c-6.9,0.8-8.8-0.6-9.7-7.7c-2.3-19.4-4.5-38.8-6.8-58.2
			c-0.6-5.4,0.8-7.4,6.1-8c50.2-5.8,100.4-11.6,150.7-17.5c5.1-0.6,7.1,1,7.7,6.2c1.4,11.7,4.8,40.3,6.2,52l0,0.2
			c0,0.4,0.1,0.8,0.1,1.2c0.6-0.1,1.3-0.2,1.9-0.2l-0.1-1.2c-1.4-12.4-4.6-39.8-6-51.2c-0.8-6.6-3.7-8.9-10.4-8.1
			c-28.2,3.3-56.3,6.5-84.5,9.8c-22.1,2.6-44.1,5.1-66.1,7.7c-5.8,0.7-7.7,3.3-7,8.7c2.4,20.3,5,40.5,6.9,60.8
			c0.5,5.8,4.9,8.6,9.7,8c33.6-3.9,78.1-9.1,112-13l1.4-0.2c0.3,0,0.6-0.1,0.9-0.1c-0.1-0.8-0.2-1.6-0.3-2.5
			C578.6,273.6,578.4,273.6,578.2,273.7z"/>
		<path d="M607.2,299.6c-1.3-0.5-2,0.7-2.9,0.8c-5.2,0.6,0.9-0.6-4.3,0c-5.8,0.7-11.8,1.4-18,2.2c-54.7,6.6-120.3,14.4-172.2,20.7
			c-0.4,0.1-0.9,0.1-1.5,0.1c-1.1,0-2.3,0.1-2.6,0.8c0.9,0.4,1.8,0.8,2.7,1.2c0.6-0.1,1.2-0.3,1.7-0.4c0.4-0.1,0.9-0.1,1.3-0.2
			c52.1-6.2,120.6-14.4,172.4-20.7c10.4-1.3,9.6-1.6,20-2.9c0.6-0.1,1.2-0.1,1.7-0.3C606.2,300.6,606.7,300.3,607.2,299.6z"/>
		<path d="M367,329.4c-0.1-0.6-0.9-0.6-1.4-0.6c-0.7,0.1-1.3,0.2-2,0.2c-0.4,0-0.7,0.1-1.1,0.1c-17.8,2.1-66.7,7.6-83.1,9.8
			c-7.5,1-14.8,0.5-21.8-2.3c-12.1-4.7-20.6-12.8-24-25.7c-0.8-3.1-2.2-16.1-2.9-21.4c-0.1-0.7-0.2-1.3-0.2-1.7
			c-0.1-0.7-0.3-1.4-1.1-1.4c-0.7,0-0.7,0.8-0.7,1.4c0.1,0.5,0.1,1.2,0.2,1.9c0.8,7.9,2.7,24.6,5.9,30.1c8.1,14.2,20.7,21,36.7,21.6
			c10.5,0.4,43.3-4.8,53.7-5.8c8.1-0.9,16.2-1.9,24.3-2.8c1.5-0.2,11.9-1.4,15.4-1.9c0.4-0.1,0.8-0.1,1-0.1
			C366.5,330.6,367.2,330.3,367,329.4z"/>
		<path d="M438,258.3c-0.5-4.3-1-8.7-1.6-13c-0.7-5.3-2.4-6.7-7.8-6.1c-8.5,1-17,2-25.4,2.9c0,0,0,0.1,0,0.1c-8.8,1-17.5,2-26.3,3.1
			c-4.5,0.6-6.1,2.7-5.6,7.2c0.5,4.2,1,8.5,1.5,12.7c0.6,5.3,2.6,7,7.9,6.4c17.1-2,34.3-4,51.4-6C436.6,265.2,438.5,262.7,438,258.3
			z M431.2,264.8c-8.3,1-16.6,1.9-24.9,2.9c-8.4,1-16.8,1.9-25.2,2.9c-4.6,0.5-6-0.6-6.6-5.2c-0.6-4.4-1.1-8.8-1.6-13.3
			c-0.4-3.6,0.8-5.3,4.2-5.8c17.2-2.1,34.5-4.1,51.7-6.1c4.4-0.5,5.8,0.8,6.3,5.2c0.5,4,0.9,8.1,1.4,12.1
			C437.2,262.4,435.8,264.2,431.2,264.8z"/>
		<polygon points="642.9,244.5 642.9,244.5 642.9,244.5 		"/>
		<path d="M631.7,158c-1.1,0.1-0.6,2-0.4,3c0.6,4.9,1.2,10.3,1.8,15.9c2.6,22.7,5.7,49.5,8,69.4c0.1,0.6,0.1,1.3,0.4,2
			c-0.1-1.3-0.2-2.3-0.3-3c-0.1-0.7,0-1.5,0.8-1.6c0.5-0.1,0.7,0.3,0.9,0.7c-0.2-1.1-0.3-2-0.4-2.5c-2.8-24.6-6.5-56.5-9.5-81.1
			c-0.1-0.8,0.2-2-0.3-2.6C632.5,158,632.2,157.9,631.7,158z"/>
		<path d="M580.5,215.3c0-0.2,0-0.4-0.1-0.6c-35.7,4.1-71.4,8.3-107,12.4c0,0.2,0,0.4,0.1,0.6C509.2,223.6,544.8,219.4,580.5,215.3z
			"/>
		<path d="M603,218.2c-0.8-6.4-0.8-6.4-7.3-5.6c-0.2,0-0.4,0-0.6,0.1c-6.5,0.8-6.6,0.8-5.8,7.3c0.9,7.4-0.2,6.7,7.6,5.8
			C603.8,225,603.8,224.9,603,218.2z M596.8,225.1c-5.8,0.6-5.8,0.6-6.5-5.1c-0.7-5.6-0.7-5.6,5-6.3c6.2-0.7,6.2-0.7,6.9,5.4
			C602.9,224.4,602.9,224.4,596.8,225.1z"/>
		<path d="M204.6,185.1c0-0.2-0.1-0.3-0.1-0.4c-0.2-0.8-0.1,1.1-1.6,0.9c0.1,0.5,0.2,1.2,0.3,2c1.3,8.3,5.2,31.2,6.6,37.1
			c0,0.2,0.1,0.4,0.1,0.5c0.1,0.6,0.6,1.1,1.2,1c0.7-0.2,0.7-0.4,0.7-0.8c0-0.1,0-0.2-0.1-0.3C210.8,220.5,205.9,190.9,204.6,185.1z
			"/>
		<path d="M513.4,247.5c14.9-1.7,29.7-3.4,44.6-5.2c0-0.2,0-0.4,0-0.6c-14.9,1.7-29.8,3.5-44.7,5.2
			C513.3,247.1,513.4,247.3,513.4,247.5z"/>
		<path d="M514.2,233.7c0,0.1,0,0.3,0.1,0.4c14.5-1.7,29.1-3.4,43.6-5.1c0-0.1,0-0.3-0.1-0.4C543.2,230.3,528.7,232,514.2,233.7z"/>
		<path d="M478.1,267c0,0.2,0,0.4,0.1,0.5c6.6-0.8,13.3-1.5,19.9-2.3c0-0.2-0.1-0.4-0.1-0.5C491.3,265.4,484.7,266.2,478.1,267z"/>
		<path d="M583.9,239.1c-5.4,0.6-10.8,1.2-16.1,1.9c0,0.2,0,0.3,0.1,0.5c5.4-0.6,10.8-1.2,16.1-1.9
			C583.9,239.4,583.9,239.2,583.9,239.1z"/>
		<path d="M566.6,227.8c4.6-0.5,9.1-1.1,13.7-1.6c0-0.1,0-0.3-0.1-0.4c-4.6,0.5-9.1,1.1-13.7,1.6
			C566.6,227.5,566.6,227.7,566.6,227.8z"/>
		<path d="M486.8,276c-2.5,0.3-5.1,0.6-7.6,0.9C481.8,277.2,484.4,277.1,486.8,276z"/>
		<path d="M403.5,91.9c2.3,0.8,4.1,0.4,5.8-0.7C407.4,90.7,405.5,90.7,403.5,91.9z"/>
		<path d="M268.2,107.7c2.2,0.5,4.3,0,6.2-1.1C272.2,106.2,270.1,106.3,268.2,107.7z"/>
		<path d="M393.6,92.9c2.6,0.8,4.2,0.6,6.3-1.2C397.6,92,395.6,91.6,393.6,92.9z"/>
		<path d="M278.9,106.1c2.9,0.5,4.5,0.2,6.3-1C283,105,280.9,105,278.9,106.1z"/>
		<path d="M289.8,105.1c2.2,0.3,4.1,0,6.7-0.8C293.3,103.5,291.4,103.7,289.8,105.1z"/>
		<path d="M331.9,100.2c2.1,0.1,4.2,0.3,6.1-0.9C335.8,99,333.7,98.9,331.9,100.2z"/>
		<path d="M363.3,96.5c2,0.4,3.9,0.3,6.4-0.7C366.9,95.1,365.1,95.4,363.3,96.5z"/>
		<path d="M413,91c1.7,1.3,3.2,1.7,4.9,1.6C416.8,91,415.3,90.4,413,91z"/>
		<path d="M300.4,103.7c2,0.3,4,0.5,5.9-0.6C304.2,102.3,302.3,102.8,300.4,103.7z"/>
		<path d="M353,97.6c2,0.5,3.9,0.3,5.7-0.6C356.6,96.4,354.8,96.7,353,97.6z"/>
		<path d="M342.3,98.9c2.1,0.5,4.1,0.4,5.9-0.7C346.1,97.6,344.2,97.9,342.3,98.9z"/>
		<path d="M321.3,101.4c2.1,0.3,4.1,0.4,6-0.9C325.1,100.1,323.1,100.2,321.3,101.4z"/>
		<path d="M260.5,111.5c-0.3,0.3-0.6,0.8-0.2,1.2c0.4,0.4,0.9,0.1,1.2-0.2c1-0.9,2-1.9,3-2.8c-0.2-0.2-0.3-0.4-0.5-0.7
			C262.5,109.4,261.5,110.4,260.5,111.5z"/>
		<path d="M311.1,102.5c2,0.6,4,0.4,5.7-0.6C314.8,101.1,312.9,101.4,311.1,102.5z"/>
		<path d="M257.3,121.9c1.1-1.8,1.4-3.3,0.8-5.9C257,118.3,256.1,119.8,257.3,121.9z"/>
		<path d="M373.6,95.4c1.9,0.3,3.9,0.5,5.7-0.8C377.3,94,375.4,94.2,373.6,95.4z"/>
		<path d="M384,94.1c1.9,0.7,3.7,0.4,5.4-0.6C387.5,93,385.7,93,384,94.1z"/>
		<path d="M148.5,252.2c14.5-1.8,28.4-6.5,42.8-9.1C176.7,244.1,162.7,248.7,148.5,252.2z"/>
		<path d="M149.4,352.5c7.7-4.5,14.9-9.5,21.6-15.3C162.9,341,155.8,346.2,149.4,352.5z"/>
		<path d="M183.7,265.2c-11.9,2.6-23.9,4.4-35.9,5.9C160,270.8,172,268.8,183.7,265.2z"/>
		<path d="M133.1,263.3c-4.5-7.5-3.9-15.5-1.6-23.5C127.5,246.9,127.5,257.4,133.1,263.3z"/>
		<path d="M185.1,353.9c4.4-7.8,7.3-16.1,9.8-24.6C191.7,337.5,188.3,345.7,185.1,353.9z"/>
		<path d="M165.9,231.1c-5.7-3.1-13.9-3.9-18.7-2C153.4,227.8,159.3,230.1,165.9,231.1z"/>
		<path d="M192.7,348.4c-1.9,3.3,0,6.9-1.2,10.3C194.1,355.5,192,351.8,192.7,348.4z"/>
		<path d="M204.4,254.1c-2.6,2.1-5.2,4.1-8.3,6.6C200.1,259.2,203.4,256.5,204.4,254.1z"/>
		<path d="M338,152.5c6.2-1.2,12-2.3,17.9-3.4c1.4-0.3,2.5-0.7,1-2.2c-3.9-4-7.8-8-11.7-12c-0.9-0.9-1.6-1.2-2.2,0.3
			c-2,5.1-4.1,10.2-6.2,15.2C336,152.1,336.2,153.1,338,152.5z"/>
		<path d="M390.4,129.9c-2-1.1-4.1-1.4-6.1,0.2c-2.1,1.7-2.7,4.6-1.4,6.9c1.3,2.4,3.8,3.1,7.4,2c-0.7,1.5-1.8,1.8-2.9,2
			c-0.7,0.2-1.8-0.1-1.7,1c0.1,1,1.1,1.2,1.9,1.3c1.2,0.2,2.4-0.1,3.6-0.6c2.1-1,3-2.8,3-5C394,134.5,393.5,131.5,390.4,129.9z
			 M388,136.2c-1.2,0.2-2.2-0.4-2.5-1.7c-0.3-1.2,0.5-1.9,1.7-2.1c1.2-0.2,2.1,0.4,2.6,1.5C389.7,135.2,389.1,136,388,136.2z"/>
		<path d="M381.7,137.3c-0.3-3-3.5-5.5-6.7-5.2c-3.1,0.3-5.5,3-5.2,6c0.3,3.2,3.4,5.7,6.9,5.3C379.7,143.1,381.9,140.4,381.7,137.3z
			 M376.3,140.4c-1.6,0.1-3-0.6-3.3-2.4c-0.2-1.5,0.8-2.2,2.2-2.4c1.6,0,2.7,0.6,3,2.3C378.5,139.3,377.8,140.3,376.3,140.4z"/>
		<path d="M406.7,132c-0.4-3.3-3.6-5.6-7-5.1c-2.9,0.4-5.2,3.4-4.8,6.4c0.4,2.9,3.9,5.3,7,4.9C404.8,137.7,407,134.9,406.7,132z
			 M401.3,135.1c-1.7,0.1-3-0.7-3.3-2.4c-0.3-1.5,0.8-2.2,2.2-2.3c1.7-0.2,2.9,0.6,3.3,2.3C403.4,134,402.8,135,401.3,135.1z"/>
		<path d="M361.8,144.5c0.3,1.4,1.1,2,2.1,1.6c1.8-0.5,3.3-0.8,4.8-1.2c0.8-0.2,1.7-0.4,1.4-1.6c-0.3-1-0.9-1.5-1.9-1.1
			c-3.3,1.3-3.8-0.9-4.3-3.3c-0.2-1-0.6-2-0.9-3c-0.3-1-0.7-1.7-2-1.3c-1.2,0.4-1.3,1.1-1.1,2.2
			C360.6,139.3,361.2,141.9,361.8,144.5z"/>
		<path class="st78" d="M179.9,157.7c0.7,1.1,1.5,2.1,2.9,1.8c1.4-0.3,1.8-1.6,2-2.8c0.4-2.6-1.2-6.2-3.1-6.8
			c-2.6-0.8-4.2,0.9-5.7,2.7c-0.5,0.7-1,1.4-1.8,2.6c1.9-0.9,2.7-2.3,4.5-2.8C179,154.2,178.9,156.1,179.9,157.7z"/>
		<path d="M199.9,153.9c1.2-0.1,1.4-1.3,1.7-2.3c0.4-1.4,0.2-2.8-0.3-4.1c-0.4-1-0.7-2.3-2.2-2.2c-1.5,0.1-1.9,1.3-2.1,2.6
			c-0.1,0.6-0.1,1.3-0.1,2c0.2,0.7,0.3,1.4,0.6,2.1C197.9,152.9,198.6,154,199.9,153.9z"/>
		<path class="st78" d="M184.9,173c0.1-0.4-0.3-0.7-0.7-0.7c-0.9,0.1-1.2,0.8-1.6,1.4c-0.2,0.4-0.5,0.8,0.2,1.1
			c3.3,1.7,6.5,3.8,10.5,3.4c3.3-0.4,6.4-1.2,8.1-4.8c-1.2-0.1-1.6,0.6-2.2,1c-3.8,2.5-7.8,2.7-11.9,1.1
			C186.3,175.1,184.6,174.9,184.9,173z"/>
		<path d="M141.4,161.7c1.5,1.1,0.7,2.2,0.3,3.5c-1,2.8,1,4.8,4.7,4.4c-3.2-2.1-3.2-2.1-2-5.6c0.3-0.8,0.1-1.5-0.3-2.2
			c-1.2-2.2-4.5-3.6-6.9-2.7c-1.4,0.5-2.4,1.3-2.1,3.3c0.7-0.5,1.1-0.8,1.5-1.1C138.3,160.3,139.8,160.6,141.4,161.7z"/>
		<path d="M199.2,159.1c4.3,3.1,4.3,3.1,0.4,7.2c-0.1,0.1,0,0.3,0,0.5c2-0.4,2.8-0.9,3.9-2.3c1.6-2.1,1.4-3.9-0.8-5
			c-3.5-1.6-5.9-4.3-7.9-7.5C195,155.1,196.8,157.3,199.2,159.1z"/>
		<path d="M300.4,151.9c1.3-0.4,1.8-1.3,1.6-2.6c-0.3-1.2-1.2-2-2.5-1.8c-1.2,0.2-2.1,1.2-1.8,2.4
			C297.9,151.4,299,151.9,300.4,151.9z"/>
		<path d="M597.8,266.2c-4.1,0.5-7.2,4.6-6.6,8.7c0.6,4.1,4.8,7.1,9.1,6.6c4.3-0.5,7.3-4.3,6.8-8.6
			C606.5,268.7,602.3,265.6,597.8,266.2z"/>
		<path d="M621,263.5c-4.1,0.5-7.2,4.6-6.6,8.7c0.6,4.1,4.8,7.1,9.1,6.6c4.3-0.5,7.3-4.3,6.8-8.6C629.7,266,625.5,262.9,621,263.5z"
			/>
		<path d="M460.9,154.8c0.9,0.1,1.9-0.1,2.8-0.2c14.1-1.6,28.2-3.3,42.4-4.9c0,0.1,0,0.3,0,0.4c14.1-1.6,28.2-3.3,42.4-4.9
			c2.1-0.2,4.5-0.2,5.3-2.5c0.8-2.5-1.5-3.7-3-5c-8.8-7.3-17.7-14.6-26.6-21.8c-3.8-3.1-6.5-2.7-9.6,1.3
			c-4.1,5.4-8.2,10.9-12.4,16.3c-3.2,4.1-4.4,4.2-8.3,1.1c-4.1-3.2-8.2-6.4-12.4-9.5c-3.1-2.3-5.9-1.7-8,1.5c-1.3,2-2.4,4.1-3.7,6
			c-3.8,5.8-7.6,11.5-11.4,17.3C457.1,152.2,458.3,154.5,460.9,154.8z"/>
		<path d="M596,153.6c0-0.2-0.1-0.5-0.1-0.7c-46.2,5.4-92.4,10.7-138.6,16.1c0,0.2,0.1,0.5,0.1,0.7C503.5,164.3,549.7,159,596,153.6
			z"/>
		<path d="M588.2,112.8c-1-8.7-2.1-17.5-3-26.2c-0.3-2.4-1.3-3.2-3.7-2.9c-12.3,1.4-24.7,2.7-37,4.1c-1.5,0.2-3,0.5-4.5,0.8
			c-2.1,0.3-2.8,1.5-2.6,3.6c1.1,8.4,2.2,16.9,3.1,25.4c0.3,2.9,1.7,3.7,4.4,3.3c6.8-0.9,13.5-1.6,20.3-2.4c0,0,0,0,0,0.1
			c6.7-0.8,13.4-1.6,20.1-2.3C587.5,116,588.5,115.1,588.2,112.8z M584.4,115.3c-6.6,0.7-13.2,1.5-19.8,2.3v0
			c-6.5,0.8-13,1.5-19.5,2.3c-2.2,0.3-3.2-0.3-3.5-2.8c-0.8-8.1-1.8-16.2-2.9-24.3c-0.4-2.5,0.6-3.5,2.9-3.7
			c13.2-1.5,26.3-3.5,39.6-4.3c1.9-0.1,2.6,0.4,2.8,2.4c0.9,8.3,1.8,16.6,2.9,24.9C587.2,114.2,586.6,115.1,584.4,115.3z"/>
		<path d="M488.5,119.4c3.5-0.4,6.1-3.8,5.7-7.6c-0.4-3.8-3.7-6.6-7.4-6.3c-3.7,0.4-6.5,3.8-6.1,7.5
			C481.2,116.9,484.8,119.8,488.5,119.4z"/>
		<path d="M559,166.8c-33.6,3.9-67.1,7.8-100.7,11.7c0,0.2,0,0.4,0.1,0.7c33.6-3.9,67.1-7.8,100.7-11.7C559,167.2,559,167,559,166.8
			z"/>
		<path d="M410.1,252.6c-4.1-1.7-8.2-3.3-12.4-4.9c-1.6-0.6-2.4,0-2.2,1.7c0.2,2.1,0.5,4.1,0.7,6.2c0,0,0,0,0.1,0
			c0.3,2.3,0.5,4.5,0.8,6.7c0.2,1.3,0.8,2.2,2.3,1.1c3.7-2.6,7.4-5.2,11.1-7.8C412.2,254.4,411.9,253.3,410.1,252.6z"/>
		<path d="M642,243.7c-0.7,0.1-0.8,0.9-0.8,1.6c0,0.6,0.2,1.7,0.3,3c0,0,0,0,0,0c0,0,0,0,0,0c0.1,0.8,0.2,1.7,0.3,2.7
			c0,0.3,0.1,0.6,0.1,0.9l1.9-0.2l-0.1-0.9c-0.3-2.4-0.5-4.4-0.7-5.9c0-0.1,0-0.3-0.1-0.4c0,0,0,0,0,0l0,0l0,0c0,0,0,0,0,0
			C642.7,244,642.5,243.6,642,243.7z"/>
	</g>
	<g>
		<path class="st3" d="M257.2,442.2c3.5-0.4,7-0.8,10.5-1.2c0-0.3-0.1-0.5-0.1-0.8c-3.4,0.2-6.7,0.3-10.1,0.5
			c-0.6,0-1.2,0.1-1.2,0.9C256.2,442.1,256.7,442.2,257.2,442.2z"/>
		<path class="st45" d="M440.4,345.7c-1,4.3-3.3,7.7-6.9,10.5c2.7-3.1,4.9-6.5,5.9-10.5h-37.2c11,4.9,22.1,9.7,33.3,14.2
			c1.9,0.7,3,0.5,4.5-0.9c3.7-3.7,5.4-8.3,6.1-13.3H440.4z"/>
		<path class="st3" d="M151.2,392.4c-1.6,0.8-3.2,1.5-4.8,2.4c-0.3-0.2-0.6-0.4-0.9-0.6C147.3,393.4,149.2,392.8,151.2,392.4z"/>
		<path class="st3" d="M165.8,378.7c1.6-3,2.6-6.1,1.8-9.6C166.5,372.2,166.8,375.6,165.8,378.7z"/>
		<path class="st3" d="M121.4,373.8c6-0.6,11.9,0.9,17.9,0.4C133.4,373.6,127.5,372,121.4,373.8z"/>
		<path class="st3" d="M164.4,378c-6-1.7-12.2-2.4-18.5-3.1c0,0.2,0,0.5,0,0.7c6.1,1,12.2,2,18.4,3
			C164.4,378.4,164.4,378.2,164.4,378z"/>
		<path class="st3" d="M251.1,433c-25.2-11.3-52.3-14.8-79-19.9c0,0,0,0-0.1-0.1C199,417.1,226.2,420.7,251.1,433z"/>
		<path class="st3" d="M180.5,382.8c-2.4,0.1-4.7,0.1-7.1,0.2c-12.2,0.5-24.1,2-35.7,5.2c-0.6-0.5-1.2-1-1.9-1.4
			c11.9-3.9,24.1-6.2,36.9-5.4c2.2,0.1,3.3-0.5,3.5-2.8c0.3-2.4,0.9-4.8,1.4-7.3c0.1-0.5,0-1.3,0.7-1.3c0.8,0,1,0.8,0.9,1.5
			c-0.3,2.4-0.4,4.9-1,7.3C177.6,381.1,177.9,382.4,180.5,382.8z"/>
		<path class="st45" d="M185.1,362.3v-4.2h-42.8v-12.4H98.2v10.4c0.4,0.4,0.8,0.7,1.3,1.1c3.2,2.7,6.3,5.4,9.5,8
			c8.8-2.1,17.5-4.6,26.7-4.5c-5.8-3.5-12.8-4.2-18.3-8.9c1.7-0.2,2.8,0.5,3.9,0.9c12.3,3.6,24.1,9.2,36.7,11.9
			c9,1.9,18.1,3.6,27.3,2.8c0.6-0.1,1.2-0.1,1.8-0.2v-4.9H185.1z"/>
		<path class="st78" d="M324.5,443.6c-8.4,1-16.7,1.9-25.1,2.9c-0.9,0.1-1.8,0.5-3.1-0.1c4.2-3.2,5.9-7.5,5.2-12.5
			c-0.8-6.1-3.9-10.8-9-14.5c-13-9.6-27.7-15.2-42.9-19.7c-19-5.7-38.3-10.2-57.7-14.1c-2.1-0.4-4.2-1.2-6.3-1.8
			c-1.4-0.4-1.9-0.9-1.4-2.5c0.9-2.9,1.5-5.9,2-8.9c0.2-0.9,0.5-1.6,1-2v-3.1c-0.6,0.1-1.2,0.2-1.8,0.2c-9.3,0.9-18.3-0.8-27.3-2.8
			c-12.7-2.7-24.4-8.3-36.7-11.9c-1.2-0.3-2.2-1-3.9-0.9c5.5,4.7,12.5,5.4,18.3,8.9c-9.2-0.1-17.9,2.4-26.7,4.5
			c5.5,4.6,11,9.1,16.6,13.5c2.6,2.1,5.3,4.2,8,6.3c0.4,0.3,0.9,0.8,1.4,1.1c0.3,0.2,0.6,0.5,0.9,0.7c11.9-3.9,24.1-6.2,36.9-5.4
			c2.2,0.1,3.3-0.5,3.5-2.8c0.3-2.4,0.9-4.8,1.4-7.3c0.1-0.5,0-1.3,0.7-1.3c0.8,0,1,0.8,0.9,1.5c-0.3,2.4-0.4,4.9-1,7.3
			c-0.6,2.3-0.4,3.6,2.2,4c-2.4,0.1-4.7,0.1-7.1,0.2c-12.2,0.5-24.1,2-35.7,5.2c0.2,0.2,0.4,0.3,0.7,0.5c2,1.5,4.1,3.1,6.1,4.6
			c0.3,0.2,0.6,0.5,1,0.7c1.8-0.7,3.7-1.3,5.7-1.7c-1.6,0.8-3.2,1.5-4.8,2.4c1.4,1,2.8,2.1,4.3,3.2c2.5,1.8,5,3.6,7.5,5.4
			c2.4,1.7,4.8,3.5,7.3,5.1c2.2,1.5,4.5,3.1,6.7,4.6c27,4.1,54.1,7.7,79.1,20c-25.2-11.3-52.3-14.8-79-19.9c2.6,1.8,5.2,3.5,7.9,5.3
			c3.4,2.2,6.8,4.5,10.2,6.6c4.6,3,9.3,5.9,14,8.8c12.4,7.6,25.1,14.9,38.1,21.4c27.7-3.2,55.4-6.4,83-9.6
			C325.1,444.9,324.8,444.2,324.5,443.6z M121.4,373.8c6-1.8,11.9-0.2,17.9,0.4C133.4,374.7,127.4,373.1,121.4,373.8z M164.3,378.6
			c-6.1-1-12.2-2-18.4-3c0-0.2,0-0.5,0-0.7c6.2,0.7,12.4,1.3,18.4,3C164.4,378.2,164.4,378.4,164.3,378.6z M165.8,378.7
			c1-3.1,0.7-6.5,1.8-9.6C168.4,372.6,167.4,375.7,165.8,378.7z M257.2,442.2c-0.5,0.1-1-0.1-1-0.7c0-0.7,0.7-0.8,1.2-0.9
			c3.4-0.2,6.7-0.3,10.1-0.5c0,0.3,0.1,0.5,0.1,0.8C264.2,441.4,260.7,441.8,257.2,442.2z"/>
		<path d="M440.4,345.7h-1c-1.1,4-3.2,7.4-5.9,10.5C437.1,353.4,439.4,350,440.4,345.7z"/>
		<path d="M456.4,345.7C456.4,345.7,456.4,345.7,456.4,345.7l-10.3,0c-0.7,5-2.4,9.5-6.1,13.3c-1.4,1.4-2.6,1.7-4.5,0.9
			c-11.2-4.5-22.3-9.3-33.3-14.2h-4.9c14.1,6.3,28.3,12.4,42.7,18.2c5.1,2.1,10.3,4.5,16.2,3.8c0.8-0.1,1.7-0.2,2.5-0.4
			c7.7-1.7,10.4-8.5,5.8-14.9C462.4,349.4,459.5,347.3,456.4,345.7z"/>
	</g>
</g>
</svg>
