<?xml version="1.0" encoding="utf-8"?>
<!-- Generator: Adobe Illustrator 25.0.0, SVG Export Plug-In . SVG Version: 6.00 Build 0)  -->
<svg version="1.1" id="Layer_1" xmlns="http://www.w3.org/2000/svg" xmlns:xlink="http://www.w3.org/1999/xlink" x="0px" y="0px"
	 viewBox="0 0 114.25 112" style="enable-background:new 0 0 114.25 112;" xml:space="preserve">
<style type="text/css">
	.st0{fill:#00B0FB;}
	.st1{fill:#00B0FB;fill-opacity:0.4;}
	.st2{fill:#FFFFFF;}
	.st3{fill:#185AE9;}
	.st4{fill:#3C7CFF;}
	.st5{fill:#001135;}
</style>
<g>
	<path class="st4" d="M63.92,85.59c-0.29,0.56-0.86,0.91-1.49,0.91H35.62c-1.1,0-1.95-1.06-1.59-2.22c0.22-0.7,0.93-1.13,1.66-1.13
		h24.85c-4.58-3.77-8.13-8.76-10.14-14.46H35.62c-1.1,0-1.95-1.06-1.59-2.22c0.22-0.7,0.93-1.13,1.66-1.13h13.73
		c-0.23-0.99-0.42-2-0.56-3.01H35.62c-1.1,0-1.95-1.06-1.59-2.22c0.22-0.7,0.93-1.13,1.66-1.13h12.87c-0.01-0.4-0.02-0.8-0.02-1.21
		c0-4.71,1-9.2,2.79-13.25H35.62c-1.1,0-1.95-1.06-1.59-2.22c0.22-0.7,0.93-1.13,1.66-1.13h17.36c0.61-1.04,1.28-2.04,2-3.01H35.62
		c-1.1,0-1.95-1.06-1.59-2.22c0.22-0.7,0.93-1.13,1.66-1.13h22.22c5.97-6.1,14.29-9.9,23.48-9.9c5.91,0,11.46,1.57,16.25,4.31V15.84
		H78.56h-2.39H3.35V66.5c0,0,0,0,0,0l0,42.15h94.3V86.32c-4.8,2.74-10.35,4.31-16.25,4.31C74.97,90.63,68.98,88.78,63.92,85.59z
		 M34.03,77.92c0.22-0.7,0.93-1.13,1.66-1.13h9.35c1.1,0,1.95,1.06,1.59,2.22c-0.22,0.7-0.93,1.13-1.66,1.13h-9.35
		C34.52,80.14,33.66,79.08,34.03,77.92z M34.03,53.76c0.22-0.7,0.93-1.13,1.66-1.13h9.35c1.1,0,1.95,1.06,1.59,2.22
		c-0.22,0.7-0.93,1.13-1.66,1.13h-9.35C34.52,55.98,33.66,54.91,34.03,53.76z M34.03,29.59c0.22-0.7,0.93-1.13,1.66-1.13h9.35
		c1.1,0,1.95,1.06,1.59,2.22c-0.22,0.7-0.93,1.13-1.66,1.13h-9.35C34.52,31.81,33.66,30.75,34.03,29.59z M28.27,90.34
		c0,1.39-1.13,2.52-2.52,2.52H14.72c-1.39,0-2.52-1.13-2.52-2.52V79.31c0-1.39,1.13-2.52,2.52-2.52h11.02
		c1.39,0,2.52,1.13,2.52,2.52V90.34z M28.27,66.17c0,1.39-1.13,2.52-2.52,2.52H14.72c-1.39,0-2.52-1.13-2.52-2.52V55.15
		c0-1.39,1.13-2.52,2.52-2.52h11.02c1.39,0,2.52,1.13,2.52,2.52V66.17z M28.27,42.01c0,1.39-1.13,2.52-2.52,2.52H14.72
		c-1.39,0-2.52-1.13-2.52-2.52V30.98c0-1.39,1.13-2.52,2.52-2.52h11.02c1.39,0,2.52,1.13,2.52,2.52V42.01z M64.02,91.73
		c-0.22,0.7-0.93,1.13-1.66,1.13H35.62c-1.1,0-1.95-1.06-1.59-2.22c0.22-0.7,0.93-1.13,1.66-1.13h26.74
		C63.53,89.51,64.38,90.57,64.02,91.73z"/>
	<path class="st2" d="M100.9,56.25c-0.02-0.28-0.05-0.56-0.08-0.83c-0.01-0.12-0.03-0.25-0.05-0.37c-0.04-0.29-0.09-0.58-0.14-0.86
		c-0.02-0.1-0.04-0.2-0.06-0.3c-0.08-0.38-0.16-0.76-0.26-1.13c-0.01-0.05-0.03-0.1-0.04-0.15c-0.09-0.31-0.18-0.62-0.28-0.93
		c-0.05-0.16-0.11-0.32-0.17-0.48c-0.07-0.18-0.13-0.37-0.21-0.55c-0.08-0.19-0.15-0.39-0.24-0.58c-0.05-0.12-0.11-0.24-0.17-0.37
		c-1.24-2.73-3.1-5.13-5.39-7.01c-0.23-0.19-0.47-0.38-0.71-0.56c-0.16-0.12-0.32-0.24-0.48-0.36c-0.34-0.24-0.7-0.47-1.05-0.69
		c-0.15-0.09-0.29-0.18-0.44-0.27c-0.39-0.22-0.78-0.44-1.19-0.63c-0.11-0.06-0.23-0.11-0.34-0.16c-0.45-0.21-0.9-0.4-1.36-0.57
		c-0.05-0.02-0.1-0.03-0.15-0.05c-0.48-0.18-0.97-0.33-1.47-0.47c-0.04-0.01-0.07-0.02-0.1-0.03c-0.51-0.14-1.02-0.25-1.53-0.35
		c-0.08-0.01-0.16-0.03-0.24-0.04c-0.5-0.09-1.01-0.16-1.52-0.21c-0.08-0.01-0.17-0.01-0.26-0.02c-0.53-0.04-1.06-0.07-1.59-0.07
		c0,0,0,0,0,0c0,0,0,0,0,0c-0.53,0-1.06,0.03-1.59,0.07c-0.09,0.01-0.17,0.01-0.26,0.02c-0.51,0.05-1.02,0.12-1.52,0.21
		c-0.08,0.01-0.16,0.03-0.24,0.04c-0.52,0.1-1.03,0.21-1.53,0.35c-0.04,0.01-0.07,0.02-0.1,0.03c-0.5,0.14-0.98,0.3-1.47,0.47
		c-0.05,0.02-0.1,0.03-0.15,0.05c-0.46,0.17-0.91,0.37-1.36,0.57c-0.11,0.05-0.23,0.11-0.34,0.16c-0.4,0.2-0.8,0.41-1.19,0.63
		c-0.15,0.09-0.3,0.18-0.44,0.27c-0.36,0.22-0.71,0.44-1.05,0.69c-0.16,0.11-0.32,0.24-0.48,0.36c-0.24,0.18-0.47,0.37-0.71,0.56
		c-2.29,1.89-4.14,4.28-5.39,7.01c-0.06,0.12-0.11,0.24-0.17,0.37c-0.08,0.19-0.16,0.38-0.24,0.58c-0.07,0.18-0.14,0.37-0.21,0.55
		c-0.06,0.16-0.11,0.32-0.17,0.48c-0.1,0.31-0.2,0.62-0.28,0.94c-0.01,0.05-0.03,0.09-0.04,0.14c-0.1,0.38-0.19,0.75-0.26,1.13
		c-0.02,0.1-0.04,0.2-0.06,0.3c-0.05,0.29-0.1,0.57-0.14,0.86c-0.02,0.12-0.03,0.25-0.05,0.37c-0.03,0.28-0.06,0.56-0.08,0.83
		c-0.01,0.12-0.02,0.24-0.03,0.36c-0.02,0.35-0.03,0.71-0.03,1.06c0,0.38,0,0.77,0.03,1.16c0,0.01,0,0.02,0,0.03
		c0.03,0.58,0.09,1.15,0.17,1.71c0.01,0.04,0.01,0.09,0.02,0.13c0.09,0.58,0.2,1.16,0.34,1.73l0.02,0.07
		c1.7,7.08,7.23,12.59,14.31,14.27l0.03,0.01c0.56,0.14,1.14,0.25,1.72,0.34c0.04,0.01,0.09,0.01,0.14,0.02
		c0.55,0.08,1.12,0.14,1.68,0.17c0.02,0,0.05,0,0.07,0.01c0.19,0.01,0.38,0.01,0.57,0.02c0.16,0,0.31,0.01,0.47,0.01
		c0.16,0,0.32-0.01,0.47-0.01c0.19,0,0.38-0.01,0.57-0.02c0.02,0,0.05,0,0.07-0.01c0.57-0.03,1.13-0.09,1.68-0.17
		c0.04-0.01,0.09-0.01,0.14-0.02c0.58-0.09,1.15-0.2,1.72-0.34l0.03-0.01c7.08-1.68,12.61-7.2,14.31-14.27l0.02-0.07
		c0.14-0.57,0.25-1.14,0.34-1.73c0.01-0.04,0.01-0.09,0.02-0.13c0.08-0.56,0.14-1.14,0.17-1.71c0-0.01,0-0.02,0-0.03
		c0.02-0.39,0.03-0.78,0.03-1.16c0-0.36-0.01-0.71-0.03-1.06C100.92,56.49,100.91,56.37,100.9,56.25z M83.19,66.98v2.63
		c0,1.1-1.06,1.95-2.22,1.59c-0.7-0.22-1.13-0.93-1.13-1.66v-2.55h-1.4c-1.82,0-3.33-1.37-3.54-3.14c-0.12-1.02,0.53-2.04,1.56-2.1
		c0.96-0.05,1.76,0.71,1.77,1.66c0,0.13,0.09,0.23,0.22,0.23h4.45c1.27,0,2.25-1.23,1.82-2.55c-0.26-0.8-1.07-1.29-1.91-1.29h-2.47
		c-2.49,0-4.79-1.64-5.33-4.08c-0.73-3.32,1.69-6.27,4.84-6.45v-2.63c0-1.1,1.06-1.95,2.22-1.59c0.7,0.22,1.13,0.93,1.13,1.66
		l0,2.55h1.4c1.82,0,3.33,1.37,3.54,3.14c0.12,1.02-0.53,2.04-1.56,2.1c-0.96,0.05-1.76-0.71-1.77-1.66c0-0.13-0.09-0.23-0.22-0.23
		h-4.45c-1.26,0-2.25,1.23-1.82,2.55c0.26,0.8,1.07,1.29,1.91,1.29h2.66l0,0c2.91,0,5.27,2.36,5.27,5.27
		C88.16,64.52,85.96,66.82,83.19,66.98z"/>
	<path class="st2" d="M24.07,80.14H16.4c-0.47,0-0.85,0.38-0.85,0.85v7.68c0,0.47,0.38,0.85,0.85,0.85h7.67
		c0.47,0,0.85-0.38,0.85-0.85v-7.68C24.92,80.52,24.54,80.14,24.07,80.14z"/>
	<path class="st2" d="M24.07,55.98H16.4c-0.47,0-0.85,0.38-0.85,0.85v7.67c0,0.47,0.38,0.85,0.85,0.85h7.67
		c0.47,0,0.85-0.38,0.85-0.85v-7.67C24.92,56.36,24.54,55.98,24.07,55.98z"/>
	<path class="st2" d="M24.07,31.81H16.4c-0.47,0-0.85,0.38-0.85,0.85v7.67c0,0.47,0.38,0.85,0.85,0.85h7.67
		c0.47,0,0.85-0.38,0.85-0.85v-7.67C24.92,32.19,24.54,31.81,24.07,31.81z"/>
	<path class="st2" d="M78.63,12.49h17.26c0.97,0,1.76-0.79,1.76-1.76V5.11c0-0.97-0.79-1.76-1.76-1.76H3.35v9.14h72.82H78.63z
		 M44.11,8.46c-0.22,0.7-0.93,1.13-1.66,1.13h-2.04c-1.1,0-1.95-1.06-1.59-2.22c0.22-0.7,0.93-1.13,1.66-1.13h2.04
		C43.62,6.25,44.47,7.31,44.11,8.46z M53.14,8.46c-0.22,0.7-0.93,1.13-1.66,1.13h-2.04c-1.1,0-1.95-1.06-1.59-2.22
		c0.22-0.7,0.93-1.13,1.66-1.13h2.04C52.65,6.25,53.51,7.31,53.14,8.46z M62.17,8.46c-0.22,0.7-0.93,1.13-1.66,1.13h-2.04
		c-1.1,0-1.95-1.06-1.59-2.22c0.22-0.7,0.93-1.13,1.66-1.13h2.04C61.69,6.25,62.54,7.31,62.17,8.46z"/>
	<path class="st5" d="M78.19,28.44C64.51,29.89,53.5,40.89,52.05,54.57C50.06,73.35,65.82,89.11,84.6,87.12
		c13.68-1.45,24.68-12.45,26.13-26.13C112.72,42.2,96.97,26.45,78.19,28.44z M102.68,49.29c0.1,0.25,0.19,0.5,0.28,0.75
		c0.06,0.16,0.12,0.32,0.17,0.48c0.14,0.43,0.27,0.86,0.39,1.29c0.02,0.08,0.04,0.16,0.06,0.24c0.1,0.37,0.18,0.74,0.26,1.12
		c0.03,0.13,0.05,0.26,0.07,0.39c0.06,0.33,0.12,0.66,0.16,1c0.02,0.14,0.04,0.29,0.06,0.43c0.04,0.33,0.07,0.66,0.1,0.99
		c0.01,0.14,0.02,0.28,0.03,0.42c0.02,0.4,0.04,0.79,0.04,1.19c0,0.06,0.01,0.12,0.01,0.18c0,0.01,0,0.02,0,0.03
		c0,0.2-0.01,0.41-0.02,0.62c-0.01,0.21-0.01,0.43-0.02,0.64c-0.02,0.29-0.04,0.58-0.07,0.87c-0.01,0.12-0.02,0.24-0.03,0.36
		c0,0.03,0,0.07-0.01,0.1c-0.01,0.09-0.03,0.18-0.04,0.27c-0.06,0.44-0.12,0.87-0.2,1.3c-0.04,0.21-0.07,0.41-0.12,0.62
		c-0.1,0.47-0.21,0.93-0.34,1.39c-0.06,0.23-0.14,0.46-0.21,0.68c-0.1,0.32-0.21,0.64-0.33,0.96c-0.1,0.26-0.19,0.52-0.3,0.78
		c-0.15,0.38-0.32,0.75-0.49,1.12c-0.09,0.2-0.19,0.39-0.28,0.58c-0.22,0.44-0.45,0.87-0.7,1.29c-0.08,0.14-0.17,0.28-0.26,0.42
		c-0.23,0.38-0.48,0.74-0.73,1.1c-0.07,0.1-0.14,0.2-0.21,0.3c-0.31,0.42-0.63,0.84-0.97,1.24c-0.09,0.11-0.18,0.21-0.27,0.32
		c-0.34,0.39-0.69,0.77-1.05,1.14c-0.03,0.03-0.06,0.06-0.09,0.09c-0.39,0.38-0.79,0.75-1.2,1.11c-0.11,0.09-0.22,0.19-0.32,0.28
		c-0.4,0.34-0.82,0.66-1.24,0.97c-0.11,0.08-0.23,0.16-0.35,0.24c-0.35,0.24-0.7,0.48-1.07,0.7c-0.14,0.09-0.27,0.17-0.41,0.26
		c-0.42,0.25-0.85,0.48-1.29,0.7c-0.19,0.1-0.39,0.19-0.58,0.28c-0.35,0.16-0.7,0.32-1.05,0.46c-0.27,0.11-0.54,0.21-0.82,0.32
		c-0.32,0.12-0.65,0.23-0.98,0.33c-0.23,0.07-0.46,0.14-0.69,0.21c-0.46,0.13-0.92,0.24-1.39,0.34c-0.2,0.04-0.4,0.08-0.6,0.11
		c-0.42,0.08-0.84,0.14-1.27,0.2c-0.1,0.01-0.19,0.03-0.29,0.05c-0.04,0-0.09,0.01-0.13,0.01c-0.16,0.02-0.32,0.03-0.48,0.04
		c-0.25,0.02-0.5,0.05-0.74,0.06c-0.21,0.01-0.43,0.01-0.65,0.02c-0.21,0.01-0.41,0.02-0.62,0.02s-0.41-0.01-0.62-0.02
		c-0.22-0.01-0.43-0.01-0.65-0.02c-0.25-0.01-0.49-0.04-0.74-0.06c-0.16-0.01-0.32-0.02-0.48-0.04c-0.04,0-0.09-0.01-0.13-0.01
		c-0.1-0.01-0.19-0.03-0.29-0.05c-0.43-0.05-0.85-0.12-1.27-0.2c-0.2-0.04-0.4-0.07-0.6-0.11c-0.47-0.1-0.93-0.22-1.39-0.34
		c-0.23-0.06-0.46-0.14-0.69-0.21c-0.33-0.1-0.66-0.22-0.98-0.33c-0.27-0.1-0.55-0.2-0.82-0.32c-0.36-0.15-0.71-0.3-1.05-0.46
		c-0.2-0.09-0.39-0.18-0.58-0.28c-0.44-0.22-0.87-0.45-1.29-0.7c-0.14-0.08-0.28-0.17-0.41-0.26c-0.36-0.22-0.72-0.46-1.07-0.7
		c-0.12-0.08-0.23-0.16-0.35-0.24c-0.43-0.31-0.84-0.63-1.24-0.97c-0.11-0.09-0.22-0.19-0.33-0.28c-0.41-0.36-0.82-0.72-1.2-1.11
		c-0.03-0.03-0.06-0.06-0.09-0.09c-0.36-0.37-0.71-0.75-1.05-1.14c-0.09-0.11-0.18-0.21-0.27-0.32c-0.34-0.4-0.66-0.81-0.97-1.24
		c-0.07-0.1-0.14-0.2-0.21-0.3c-0.25-0.36-0.5-0.73-0.73-1.1c-0.09-0.14-0.18-0.28-0.26-0.42c-0.25-0.42-0.48-0.85-0.7-1.29
		c-0.1-0.19-0.19-0.39-0.28-0.58c-0.17-0.37-0.34-0.74-0.49-1.12c-0.1-0.26-0.2-0.52-0.3-0.78c-0.12-0.32-0.23-0.64-0.33-0.96
		c-0.07-0.23-0.14-0.45-0.21-0.68c-0.13-0.46-0.24-0.92-0.34-1.39c-0.04-0.2-0.08-0.41-0.12-0.62c-0.08-0.43-0.15-0.86-0.2-1.3
		c-0.01-0.09-0.03-0.18-0.04-0.27c0-0.03-0.01-0.07-0.01-0.1c-0.01-0.12-0.02-0.24-0.03-0.36c-0.03-0.29-0.06-0.58-0.07-0.87
		c-0.01-0.21-0.01-0.43-0.02-0.64c-0.01-0.21-0.02-0.41-0.02-0.62c0-0.01,0-0.02,0-0.03c0-0.06,0.01-0.12,0.01-0.18
		c0-0.4,0.02-0.8,0.04-1.19c0.01-0.14,0.02-0.28,0.03-0.42c0.03-0.33,0.06-0.66,0.1-0.99c0.02-0.14,0.04-0.29,0.06-0.43
		c0.05-0.33,0.1-0.67,0.16-1c0.02-0.13,0.05-0.26,0.07-0.39c0.08-0.38,0.16-0.75,0.26-1.12c0.02-0.08,0.04-0.16,0.06-0.24
		c0.12-0.44,0.25-0.87,0.39-1.29c0.05-0.16,0.12-0.32,0.17-0.48c0.09-0.25,0.18-0.5,0.28-0.75c0.09-0.22,0.18-0.44,0.28-0.67
		c0.07-0.17,0.15-0.34,0.23-0.5c0.12-0.25,0.24-0.51,0.37-0.76c0.05-0.1,0.1-0.19,0.15-0.29c0.13-0.24,0.25-0.49,0.38-0.72
		c0.02-0.03,0.04-0.05,0.05-0.07c1.25-2.14,2.83-4.05,4.67-5.68c0.03-0.03,0.06-0.07,0.09-0.1c0.11-0.1,0.24-0.18,0.35-0.28
		c0.31-0.26,0.63-0.52,0.96-0.76c0.29-0.21,0.58-0.42,0.87-0.62c0.31-0.21,0.63-0.41,0.94-0.61c0.11-0.07,0.23-0.15,0.34-0.21
		c0.47-0.28,0.95-0.53,1.44-0.77c0.14-0.07,0.28-0.14,0.42-0.2c0.52-0.24,1.04-0.47,1.58-0.67c0.1-0.04,0.19-0.07,0.29-0.11
		c1.16-0.43,2.37-0.76,3.6-0.99c0.09-0.02,0.17-0.03,0.26-0.05c0.59-0.1,1.19-0.19,1.8-0.24c0.11-0.01,0.22-0.02,0.33-0.03
		c0.62-0.05,1.24-0.08,1.87-0.08h0h0c0.63,0,1.25,0.03,1.87,0.08c0.11,0.01,0.22,0.02,0.33,0.03c0.61,0.06,1.21,0.14,1.8,0.24
		c0.09,0.02,0.17,0.03,0.26,0.05c1.24,0.23,2.44,0.57,3.6,0.99c0.1,0.04,0.19,0.07,0.29,0.11c0.54,0.2,1.06,0.43,1.58,0.67
		c0.14,0.07,0.28,0.14,0.42,0.2c0.49,0.24,0.97,0.5,1.44,0.77c0.12,0.07,0.23,0.14,0.34,0.21c0.32,0.2,0.63,0.4,0.94,0.61
		c0.29,0.2,0.58,0.41,0.87,0.62c0.33,0.25,0.64,0.5,0.96,0.76c0.12,0.1,0.24,0.18,0.35,0.28c0.04,0.03,0.06,0.07,0.09,0.1
		c1.84,1.63,3.43,3.54,4.67,5.68c0.02,0.03,0.04,0.05,0.05,0.07c0.14,0.24,0.26,0.48,0.38,0.72c0.05,0.1,0.1,0.19,0.15,0.29
		c0.13,0.25,0.25,0.5,0.37,0.76c0.08,0.17,0.15,0.33,0.23,0.5C102.49,48.85,102.59,49.07,102.68,49.29z"/>
	<path class="st5" d="M62.43,89.51H35.69c-0.73,0-1.44,0.43-1.66,1.13c-0.37,1.16,0.49,2.22,1.59,2.22h26.74
		c0.73,0,1.44-0.43,1.66-1.13C64.38,90.57,63.53,89.51,62.43,89.51z"/>
	<path class="st5" d="M35.62,55.98h9.35c0.73,0,1.44-0.43,1.66-1.13c0.37-1.16-0.49-2.22-1.59-2.22h-9.35
		c-0.73,0-1.44,0.43-1.66,1.13C33.66,54.91,34.52,55.98,35.62,55.98z"/>
	<path class="st5" d="M25.75,76.79H14.72c-1.39,0-2.52,1.13-2.52,2.52v11.02c0,1.39,1.13,2.52,2.52,2.52h11.02
		c1.39,0,2.52-1.13,2.52-2.52V79.31C28.27,77.92,27.14,76.79,25.75,76.79z M24.92,88.66c0,0.47-0.38,0.85-0.85,0.85H16.4
		c-0.47,0-0.85-0.38-0.85-0.85v-7.68c0-0.47,0.38-0.85,0.85-0.85h7.67c0.47,0,0.85,0.38,0.85,0.85V88.66z"/>
	<path class="st5" d="M35.62,31.81h9.35c0.73,0,1.44-0.43,1.66-1.13c0.37-1.16-0.49-2.22-1.59-2.22h-9.35
		c-0.73,0-1.44,0.43-1.66,1.13C33.66,30.75,34.52,31.81,35.62,31.81z"/>
	<path class="st5" d="M25.75,52.63H14.72c-1.39,0-2.52,1.13-2.52,2.52v11.02c0,1.39,1.13,2.52,2.52,2.52h11.02
		c1.39,0,2.52-1.13,2.52-2.52V55.15C28.27,53.76,27.14,52.63,25.75,52.63z M24.92,64.5c0,0.47-0.38,0.85-0.85,0.85H16.4
		c-0.47,0-0.85-0.38-0.85-0.85v-7.67c0-0.47,0.38-0.85,0.85-0.85h7.67c0.47,0,0.85,0.38,0.85,0.85V64.5z"/>
	<path class="st5" d="M25.75,28.46H14.72c-1.39,0-2.52,1.13-2.52,2.52v11.02c0,1.39,1.13,2.52,2.52,2.52h11.02
		c1.39,0,2.52-1.13,2.52-2.52V30.98C28.27,29.59,27.14,28.46,25.75,28.46z M24.92,40.33c0,0.47-0.38,0.85-0.85,0.85H16.4
		c-0.47,0-0.85-0.38-0.85-0.85v-7.67c0-0.47,0.38-0.85,0.85-0.85h7.67c0.47,0,0.85,0.38,0.85,0.85V40.33z"/>
	<path class="st5" d="M35.62,80.14h9.35c0.73,0,1.44-0.43,1.66-1.13c0.37-1.16-0.49-2.22-1.59-2.22h-9.35
		c-0.73,0-1.44,0.43-1.66,1.13C33.66,79.08,34.52,80.14,35.62,80.14z"/>
	<path class="st5" d="M100.99,31.43V2.87c0-1.59-1.29-2.87-2.87-2.87H1.67C0.75,0,0,0.75,0,1.67v64.76v11.68v32.21
		c0,0.92,0.75,1.67,1.67,1.67h97.65c0.92,0,1.67-0.75,1.67-1.67v-26.2c8.04-6,13.25-15.58,13.25-26.35S109.03,37.42,100.99,31.43z
		 M3.35,3.35h92.54c0.97,0,1.76,0.79,1.76,1.76v5.62c0,0.97-0.79,1.76-1.76,1.76H78.63h-2.46H3.35V3.35z M97.65,108.65H3.35l0-42.15
		c0,0,0,0,0,0V15.84h72.82h2.39h19.09v13.39c-4.8-2.74-10.35-4.31-16.25-4.31c-9.19,0-17.51,3.8-23.48,9.9H35.69
		c-0.73,0-1.44,0.43-1.66,1.13c-0.37,1.16,0.49,2.22,1.59,2.22h19.43c-0.72,0.97-1.39,1.97-2,3.01H35.69
		c-0.73,0-1.44,0.43-1.66,1.13c-0.37,1.16,0.49,2.22,1.59,2.22h15.71c-1.8,4.06-2.79,8.54-2.79,13.25c0,0.4,0.01,0.81,0.02,1.21
		H35.69c-0.73,0-1.44,0.43-1.66,1.13c-0.37,1.16,0.49,2.22,1.59,2.22h13.24c0.14,1.01,0.33,2.02,0.56,3.01H35.69
		c-0.73,0-1.44,0.43-1.66,1.13c-0.37,1.16,0.49,2.22,1.59,2.22H50.4c2.01,5.7,5.56,10.69,10.14,14.46H35.69
		c-0.73,0-1.44,0.43-1.66,1.13c-0.37,1.16,0.49,2.22,1.59,2.22h26.81c0.63,0,1.2-0.35,1.49-0.91c5.07,3.19,11.06,5.05,17.48,5.05
		c5.91,0,11.46-1.57,16.25-4.31V108.65z M110.73,60.98c-1.45,13.68-12.45,24.68-26.13,26.13c-18.78,1.99-34.53-13.76-32.54-32.54
		c1.45-13.68,12.45-24.68,26.13-26.13C96.97,26.45,112.72,42.2,110.73,60.98z"/>
	<path class="st5" d="M101.8,47.37c-0.05-0.1-0.1-0.19-0.15-0.29c-0.13-0.24-0.25-0.49-0.38-0.72c-0.02-0.03-0.04-0.05-0.05-0.07
		c-1.25-2.14-2.83-4.05-4.67-5.68c-0.03-0.03-0.06-0.07-0.09-0.1c-0.11-0.1-0.24-0.18-0.35-0.28c-0.31-0.26-0.63-0.52-0.96-0.76
		c-0.29-0.21-0.58-0.42-0.87-0.62c-0.31-0.21-0.63-0.41-0.94-0.61c-0.11-0.07-0.23-0.15-0.34-0.21c-0.47-0.28-0.95-0.53-1.44-0.77
		c-0.14-0.07-0.28-0.14-0.42-0.2c-0.52-0.24-1.04-0.47-1.58-0.67c-0.1-0.04-0.19-0.07-0.29-0.11c-1.16-0.43-2.37-0.76-3.6-0.99
		c-0.09-0.02-0.17-0.03-0.26-0.05c-0.59-0.1-1.19-0.19-1.8-0.24c-0.11-0.01-0.22-0.02-0.33-0.03c-0.62-0.05-1.24-0.08-1.87-0.08h0h0
		c-0.63,0-1.25,0.03-1.87,0.08c-0.11,0.01-0.22,0.02-0.33,0.03c-0.61,0.06-1.21,0.14-1.8,0.24c-0.09,0.02-0.17,0.03-0.26,0.05
		c-1.24,0.23-2.44,0.57-3.6,0.99c-0.1,0.04-0.19,0.07-0.29,0.11c-0.54,0.2-1.06,0.43-1.58,0.67c-0.14,0.07-0.28,0.14-0.42,0.2
		c-0.49,0.24-0.97,0.5-1.44,0.77c-0.12,0.07-0.23,0.14-0.34,0.21c-0.32,0.2-0.63,0.4-0.94,0.61c-0.29,0.2-0.58,0.41-0.87,0.62
		c-0.33,0.25-0.64,0.5-0.96,0.76c-0.12,0.1-0.24,0.18-0.35,0.28c-0.04,0.03-0.06,0.07-0.09,0.1c-1.84,1.63-3.43,3.54-4.67,5.68
		c-0.02,0.03-0.04,0.05-0.05,0.07c-0.14,0.24-0.26,0.48-0.38,0.72c-0.05,0.1-0.1,0.19-0.15,0.29c-0.13,0.25-0.25,0.5-0.37,0.76
		c-0.08,0.17-0.15,0.33-0.23,0.5c-0.1,0.22-0.19,0.44-0.28,0.67c-0.1,0.25-0.19,0.5-0.28,0.75c-0.06,0.16-0.12,0.32-0.17,0.48
		c-0.14,0.43-0.27,0.86-0.39,1.29c-0.02,0.08-0.04,0.16-0.06,0.24c-0.1,0.37-0.18,0.74-0.26,1.12c-0.03,0.13-0.05,0.26-0.07,0.39
		c-0.06,0.33-0.12,0.66-0.16,1c-0.02,0.14-0.04,0.29-0.06,0.43c-0.04,0.33-0.07,0.66-0.1,0.99c-0.01,0.14-0.02,0.28-0.03,0.42
		c-0.02,0.4-0.04,0.79-0.04,1.19c0,0.06-0.01,0.12-0.01,0.18c0,0.01,0,0.02,0,0.03c0,0.2,0.01,0.41,0.02,0.62
		c0.01,0.21,0.01,0.43,0.02,0.64c0.02,0.29,0.04,0.58,0.07,0.87c0.01,0.12,0.02,0.24,0.03,0.36c0,0.03,0,0.07,0.01,0.1
		c0.01,0.09,0.03,0.18,0.04,0.27c0.06,0.44,0.12,0.87,0.2,1.3c0.04,0.21,0.07,0.41,0.12,0.62c0.1,0.47,0.21,0.93,0.34,1.39
		c0.06,0.23,0.14,0.46,0.21,0.68c0.1,0.32,0.21,0.64,0.33,0.96c0.1,0.26,0.19,0.52,0.3,0.78c0.15,0.38,0.32,0.75,0.49,1.12
		c0.09,0.2,0.19,0.39,0.28,0.58c0.22,0.44,0.45,0.87,0.7,1.29c0.08,0.14,0.17,0.28,0.26,0.42c0.23,0.38,0.48,0.74,0.73,1.1
		c0.07,0.1,0.14,0.2,0.21,0.3c0.31,0.42,0.63,0.84,0.97,1.24c0.09,0.11,0.18,0.21,0.27,0.32c0.34,0.39,0.69,0.77,1.05,1.14
		c0.03,0.03,0.06,0.06,0.09,0.09c0.39,0.38,0.79,0.75,1.2,1.11c0.11,0.09,0.22,0.19,0.33,0.28c0.4,0.34,0.82,0.66,1.24,0.97
		c0.11,0.08,0.23,0.16,0.35,0.24c0.35,0.24,0.7,0.48,1.07,0.7c0.14,0.09,0.27,0.17,0.41,0.26c0.42,0.25,0.85,0.48,1.29,0.7
		c0.19,0.1,0.39,0.19,0.58,0.28c0.35,0.16,0.7,0.32,1.05,0.46c0.27,0.11,0.54,0.21,0.82,0.32c0.32,0.12,0.65,0.23,0.98,0.33
		c0.23,0.07,0.46,0.14,0.69,0.21c0.46,0.13,0.92,0.24,1.39,0.34c0.2,0.04,0.4,0.08,0.6,0.11c0.42,0.08,0.84,0.14,1.27,0.2
		c0.1,0.01,0.19,0.03,0.29,0.05c0.04,0,0.09,0.01,0.13,0.01c0.16,0.02,0.32,0.03,0.48,0.04c0.25,0.02,0.5,0.05,0.74,0.06
		c0.21,0.01,0.43,0.01,0.65,0.02c0.21,0.01,0.41,0.02,0.62,0.02s0.41-0.01,0.62-0.02c0.22-0.01,0.43-0.01,0.65-0.02
		c0.25-0.01,0.49-0.04,0.74-0.06c0.16-0.01,0.32-0.02,0.48-0.04c0.04,0,0.09-0.01,0.13-0.01c0.1-0.01,0.19-0.03,0.29-0.05
		c0.43-0.05,0.85-0.12,1.27-0.2c0.2-0.04,0.4-0.07,0.6-0.11c0.47-0.1,0.93-0.22,1.39-0.34c0.23-0.06,0.46-0.14,0.69-0.21
		c0.33-0.1,0.66-0.22,0.98-0.33c0.27-0.1,0.55-0.2,0.82-0.32c0.36-0.15,0.71-0.3,1.05-0.46c0.2-0.09,0.39-0.18,0.58-0.28
		c0.44-0.22,0.87-0.45,1.29-0.7c0.14-0.08,0.28-0.17,0.41-0.26c0.36-0.22,0.72-0.46,1.07-0.7c0.12-0.08,0.23-0.16,0.35-0.24
		c0.43-0.31,0.84-0.63,1.24-0.97c0.11-0.09,0.22-0.18,0.32-0.28c0.41-0.36,0.82-0.72,1.2-1.11c0.03-0.03,0.06-0.06,0.09-0.09
		c0.36-0.37,0.71-0.75,1.05-1.14c0.09-0.11,0.18-0.21,0.27-0.32c0.34-0.4,0.66-0.81,0.97-1.24c0.07-0.1,0.14-0.2,0.21-0.3
		c0.25-0.36,0.5-0.73,0.73-1.1c0.09-0.14,0.18-0.28,0.26-0.42c0.25-0.42,0.48-0.85,0.7-1.29c0.1-0.19,0.19-0.39,0.28-0.58
		c0.17-0.37,0.34-0.74,0.49-1.12c0.1-0.26,0.2-0.52,0.3-0.78c0.12-0.32,0.22-0.64,0.33-0.96c0.07-0.23,0.14-0.45,0.21-0.68
		c0.13-0.46,0.24-0.92,0.34-1.39c0.04-0.2,0.08-0.41,0.12-0.62c0.08-0.43,0.15-0.86,0.2-1.3c0.01-0.09,0.03-0.18,0.04-0.27
		c0-0.03,0.01-0.07,0.01-0.1c0.01-0.12,0.02-0.24,0.03-0.36c0.03-0.29,0.06-0.58,0.07-0.87c0.01-0.21,0.01-0.43,0.02-0.64
		c0.01-0.21,0.02-0.41,0.02-0.62c0-0.01,0-0.02,0-0.03c0-0.06-0.01-0.12-0.01-0.18c0-0.4-0.02-0.8-0.04-1.19
		c-0.01-0.14-0.02-0.28-0.03-0.42c-0.03-0.33-0.06-0.66-0.1-0.99c-0.02-0.14-0.04-0.29-0.06-0.43c-0.05-0.33-0.1-0.67-0.16-1
		c-0.02-0.13-0.05-0.26-0.07-0.39c-0.08-0.38-0.16-0.75-0.26-1.12c-0.02-0.08-0.04-0.16-0.06-0.24c-0.12-0.44-0.25-0.87-0.39-1.29
		c-0.05-0.16-0.12-0.32-0.17-0.48c-0.09-0.25-0.18-0.5-0.28-0.75c-0.09-0.22-0.18-0.44-0.28-0.67c-0.07-0.17-0.15-0.34-0.23-0.5
		C102.05,47.87,101.93,47.62,101.8,47.37z M100.94,58.83c0,0.01,0,0.02,0,0.03c-0.03,0.58-0.09,1.15-0.17,1.71
		c-0.01,0.04-0.01,0.09-0.02,0.13c-0.09,0.58-0.2,1.16-0.34,1.73l-0.02,0.07c-1.7,7.08-7.23,12.59-14.31,14.27l-0.03,0.01
		c-0.56,0.14-1.14,0.25-1.72,0.34c-0.04,0.01-0.09,0.01-0.14,0.02c-0.55,0.08-1.12,0.14-1.68,0.17c-0.02,0-0.05,0-0.07,0.01
		c-0.19,0.01-0.38,0.01-0.57,0.02c-0.16,0-0.31,0.01-0.47,0.01c-0.16,0-0.32-0.01-0.47-0.01c-0.19,0-0.38-0.01-0.57-0.02
		c-0.02,0-0.05,0-0.07-0.01c-0.57-0.03-1.13-0.09-1.68-0.17c-0.04-0.01-0.09-0.01-0.14-0.02c-0.58-0.09-1.15-0.2-1.72-0.34
		l-0.03-0.01C69.63,75.1,64.1,69.58,62.4,62.5l-0.02-0.07c-0.14-0.57-0.25-1.14-0.34-1.73c-0.01-0.04-0.01-0.09-0.02-0.13
		c-0.08-0.56-0.14-1.14-0.17-1.71c0-0.01,0-0.02,0-0.03c-0.02-0.39-0.03-0.78-0.03-1.16c0-0.36,0.01-0.71,0.03-1.06
		c0.01-0.12,0.02-0.24,0.03-0.36c0.02-0.28,0.05-0.56,0.08-0.83c0.01-0.12,0.03-0.25,0.05-0.37c0.04-0.29,0.09-0.58,0.14-0.86
		c0.02-0.1,0.04-0.2,0.06-0.3c0.08-0.38,0.16-0.76,0.26-1.13c0.01-0.05,0.03-0.09,0.04-0.14c0.09-0.31,0.18-0.63,0.28-0.94
		c0.05-0.16,0.11-0.32,0.17-0.48c0.07-0.18,0.13-0.37,0.21-0.55c0.08-0.19,0.15-0.39,0.24-0.58c0.05-0.12,0.11-0.24,0.17-0.37
		c1.24-2.73,3.1-5.13,5.39-7.01c0.23-0.19,0.47-0.38,0.71-0.56c0.16-0.12,0.32-0.24,0.48-0.36c0.34-0.24,0.7-0.47,1.05-0.69
		c0.15-0.09,0.29-0.18,0.44-0.27c0.39-0.22,0.78-0.44,1.19-0.63c0.11-0.06,0.23-0.11,0.34-0.16c0.45-0.21,0.9-0.4,1.36-0.57
		c0.05-0.02,0.1-0.03,0.15-0.05c0.48-0.18,0.97-0.33,1.47-0.47c0.04-0.01,0.07-0.02,0.1-0.03c0.51-0.14,1.02-0.25,1.53-0.35
		c0.08-0.01,0.16-0.03,0.24-0.04c0.5-0.09,1.01-0.16,1.52-0.21c0.08-0.01,0.17-0.01,0.26-0.02c0.53-0.04,1.06-0.07,1.59-0.07
		c0,0,0,0,0,0c0,0,0,0,0,0c0.53,0,1.06,0.03,1.59,0.07c0.09,0.01,0.17,0.01,0.26,0.02c0.51,0.05,1.02,0.12,1.52,0.21
		c0.08,0.01,0.16,0.03,0.24,0.04c0.52,0.1,1.03,0.21,1.53,0.35c0.04,0.01,0.07,0.02,0.1,0.03c0.5,0.14,0.98,0.3,1.47,0.47
		c0.05,0.02,0.1,0.03,0.15,0.05c0.46,0.17,0.91,0.37,1.36,0.57c0.11,0.05,0.23,0.11,0.34,0.16c0.4,0.2,0.8,0.41,1.19,0.63
		c0.15,0.09,0.3,0.18,0.44,0.27c0.36,0.22,0.71,0.44,1.05,0.69c0.16,0.11,0.32,0.24,0.48,0.36c0.24,0.18,0.47,0.37,0.71,0.56
		c2.29,1.89,4.14,4.28,5.39,7.01c0.06,0.12,0.11,0.24,0.17,0.37c0.08,0.19,0.16,0.38,0.24,0.58c0.07,0.18,0.14,0.37,0.21,0.55
		c0.06,0.16,0.11,0.32,0.17,0.48c0.1,0.31,0.19,0.62,0.28,0.93c0.01,0.05,0.03,0.1,0.04,0.15c0.1,0.37,0.19,0.75,0.26,1.13
		c0.02,0.1,0.04,0.2,0.06,0.3c0.05,0.29,0.1,0.57,0.14,0.86c0.02,0.12,0.03,0.25,0.05,0.37c0.03,0.28,0.06,0.56,0.08,0.83
		c0.01,0.12,0.02,0.24,0.03,0.36c0.02,0.35,0.03,0.71,0.03,1.06C100.96,58.06,100.96,58.44,100.94,58.83z"/>
	<path class="st5" d="M60.59,6.25h-2.04c-0.73,0-1.44,0.43-1.66,1.13c-0.37,1.16,0.49,2.22,1.59,2.22h2.04
		c0.73,0,1.44-0.43,1.66-1.13C62.54,7.31,61.69,6.25,60.59,6.25z"/>
	<path class="st5" d="M82.89,56.45L82.89,56.45h-2.66c-0.84,0-1.65-0.49-1.91-1.29c-0.43-1.33,0.56-2.55,1.82-2.55h4.45
		c0.13,0,0.22,0.11,0.22,0.23c0.01,0.95,0.8,1.71,1.77,1.66c1.02-0.05,1.68-1.08,1.56-2.1c-0.21-1.77-1.72-3.14-3.54-3.14h-1.4
		l0-2.55c0-0.73-0.43-1.44-1.13-1.66c-1.16-0.37-2.22,0.49-2.22,1.59v2.63c-3.15,0.18-5.57,3.14-4.84,6.45
		c0.54,2.43,2.84,4.08,5.33,4.08h2.47c0.84,0,1.65,0.49,1.91,1.29c0.43,1.33-0.56,2.55-1.82,2.55h-4.45c-0.13,0-0.22-0.11-0.22-0.23
		c-0.01-0.95-0.8-1.71-1.77-1.66c-1.02,0.05-1.68,1.08-1.56,2.1c0.21,1.77,1.72,3.14,3.54,3.14h1.4v2.55c0,0.73,0.43,1.44,1.13,1.66
		c1.16,0.37,2.22-0.49,2.22-1.59v-2.63c2.77-0.16,4.97-2.46,4.97-5.26C88.16,58.81,85.8,56.45,82.89,56.45z"/>
	<path class="st5" d="M42.52,6.25h-2.04c-0.73,0-1.44,0.43-1.66,1.13c-0.37,1.16,0.49,2.22,1.59,2.22h2.04
		c0.73,0,1.44-0.43,1.66-1.13C44.47,7.31,43.62,6.25,42.52,6.25z"/>
	<path class="st5" d="M51.55,6.25h-2.04c-0.73,0-1.44,0.43-1.66,1.13c-0.37,1.16,0.49,2.22,1.59,2.22h2.04
		c0.73,0,1.44-0.43,1.66-1.13C53.51,7.31,52.65,6.25,51.55,6.25z"/>
</g>
</svg>
