<?xml version="1.0" encoding="utf-8"?>
<!-- Generator: Adobe Illustrator 25.0.0, SVG Export Plug-In . SVG Version: 6.00 Build 0)  -->
<svg version="1.1" id="Layer_1" xmlns="http://www.w3.org/2000/svg" xmlns:xlink="http://www.w3.org/1999/xlink" x="0px" y="0px"
	 viewBox="0 0 164.04 164.04" style="enable-background:new 0 0 164.04 164.04;" xml:space="preserve">
<style type="text/css">
	.st0{fill:#185AE9;}
	.st1{fill:#00B0FB;}
	.st2{fill-rule:evenodd;clip-rule:evenodd;fill:#00B0FB;}
	.st3{fill:#00B0FB;fill-opacity:0.4;}
	.st4{fill:#FFFFFF;}
	.st5{fill:#3C7CFF;}
	.st6{fill:#001135;}
	.st7{fill:#00769D;}
	.st8{fill:#8DB849;}
	.st9{fill:#5A863E;}
	.st10{fill:#FFFFFE;}
	.st11{fill:#7F54B3;}
	.st12{fill:#F26322;}
</style>
<g>
	<path class="st1" d="M157.04,159.54h-23.46v2.36h28.44c0-0.04,0.01-0.08,0.01-0.11V16c0-0.18-0.03-0.35-0.07-0.52h-7.58v2.77h2.65
		c0.27,0,0.5,0.23,0.5,0.5v140.29C157.54,159.31,157.31,159.54,157.04,159.54z"/>
	<path class="st3" d="M98.18,13.75h49.85c0.28,0,0.5-0.22,0.5-0.5V5.46c0-0.15-0.06-0.29-0.17-0.38c-0.09-0.08-0.21-0.12-0.33-0.12
		c-0.03,0-0.05,0-0.08,0.01l-49.85,7.79c-0.26,0.04-0.44,0.27-0.42,0.53C97.7,13.55,97.92,13.75,98.18,13.75z"/>
	<path class="st3" d="M131.62,33.92c-2.28,0-4.44,0.87-6.08,2.46l-4.1,4.1c-1.63,1.68-2.5,3.9-2.46,6.23
		c0.04,2.34,0.99,4.52,2.67,6.14c1.64,1.58,3.8,2.46,6.08,2.46c2.4,0,4.63-0.95,6.3-2.67l3.88-3.88c3.3-3.42,3.3-8.76,0.01-12.17
		C136.25,34.87,134.02,33.92,131.62,33.92z"/>
	<path class="st1" d="M62.76,98.02c-28.02,0.05-51.13,22.01-52.62,49.99c-0.01,0.13,0.04,0.27,0.14,0.37
		c0.09,0.1,0.22,0.15,0.36,0.15h104.24c0.14,0,0.27-0.05,0.37-0.15c0.09-0.1,0.14-0.24,0.13-0.37
		C113.9,120.03,90.79,98.07,62.76,98.02z M22.44,139.86l-4.35-1.12c0.44-1.64,0.97-3.26,1.59-4.84l4.17,1.69
		C23.31,136.99,22.84,138.42,22.44,139.86z M72.72,110.22c-3.26-0.8-6.59-1.2-9.93-1.2c-14.71,0-28.44,7.82-35.95,20.45l-3.9-2.25
		c8.32-14.01,23.54-22.7,39.85-22.7c3.72,0,7.43,0.45,11.05,1.34L72.72,110.22z"/>
	<path d="M62.79,109.02c3.33,0,6.67,0.4,9.92,1.2l1.12-4.36c-3.62-0.89-7.34-1.34-11.05-1.34c-16.31,0-31.53,8.69-39.85,22.7
		l3.9,2.25C34.35,116.84,48.08,109.02,62.79,109.02z"/>
	<path d="M23.85,135.59l-4.17-1.69c-0.62,1.57-1.15,3.2-1.59,4.83l4.36,1.13C22.84,138.42,23.31,136.99,23.85,135.59z"/>
	<path d="M161.79,13.75h-8.26c-0.27,0-0.5-0.22-0.5-0.5v-11c0-1.24-1.01-2.25-2.25-2.25c-0.11,0-0.23,0.01-0.34,0.03L62.63,13.75
		c-0.07,0.04-0.14,0.07-0.22,0.08c-1.09,0.16-1.89,1.07-1.9,2.17v66.77C55.8,83.8,52.26,88,52.26,93.02c0,0.21,0.03,0.41,0.06,0.61
		c0.02,0.13,0.04,0.27,0.05,0.41c0.02,0.26-0.15,0.49-0.4,0.54c-26,5.04-45.05,27.03-46.33,53.48c-0.01,0.27-0.23,0.47-0.5,0.47
		H2.25c-1.24,0-2.25,1.01-2.25,2.26c0,0.18,0.02,0.36,0.07,0.54l2.75,11c0.25,1.01,1.15,1.71,2.18,1.71h156.79
		c1.24,0,2.25-1.01,2.25-2.25V16C164.04,14.76,163.03,13.75,161.79,13.75z M98.11,12.76l49.85-7.79c0.02-0.01,0.05-0.01,0.07-0.01
		c0.12,0,0.24,0.04,0.33,0.12c0.11,0.1,0.17,0.24,0.17,0.38v7.79c0,0.28-0.22,0.5-0.5,0.5H98.18c-0.26,0-0.48-0.2-0.5-0.46
		C97.66,13.03,97.85,12.8,98.11,12.76z M62.76,87.02c3.31,0,6,2.69,6,6c0,0.08,0,0.15-0.02,0.29c-0.01,0.14-0.07,0.27-0.17,0.36
		c-0.1,0.08-0.21,0.13-0.33,0.13c-0.02,0-0.03,0-0.05-0.01c-1.94-0.18-3.72-0.27-5.43-0.27c-1.67,0-3.45,0.09-5.43,0.27
		c-0.01,0.01-0.02,0.01-0.03,0.01c-0.12,0-0.25-0.08-0.35-0.16c-0.1-0.1-0.17-0.26-0.17-0.4c-0.01-0.07-0.02-0.15-0.02-0.22
		C56.76,89.71,59.45,87.02,62.76,87.02z M62.76,98.02c28.03,0.05,51.14,22.01,52.62,49.99c0.01,0.13-0.04,0.27-0.13,0.37
		c-0.1,0.1-0.23,0.15-0.37,0.15H10.64c-0.14,0-0.27-0.05-0.36-0.15c-0.1-0.1-0.15-0.24-0.14-0.37
		C11.63,120.03,34.74,98.07,62.76,98.02z M120.24,153.66l-1.38,5.5c-0.05,0.22-0.25,0.38-0.48,0.38H7.15
		c-0.23,0-0.43-0.16-0.49-0.38l-1.37-5.5c-0.04-0.15-0.01-0.31,0.09-0.43c0.09-0.12,0.24-0.19,0.39-0.19h113.98
		c0.16,0,0.3,0.07,0.4,0.19C120.24,153.35,120.28,153.51,120.24,153.66z M159.54,159.04c0,0.27-0.23,0.5-0.5,0.5h-35.63l2.05-8.21
		c0.3-1.2-0.43-2.43-1.64-2.73c-0.18-0.04-0.36-0.07-0.54-0.07h-2.89c-0.27,0-0.49-0.2-0.5-0.47
		c-1.28-26.45-20.33-48.44-46.33-53.48c-0.25-0.05-0.43-0.28-0.4-0.54c0.01-0.14,0.03-0.28,0.05-0.42c0.03-0.2,0.05-0.4,0.05-0.6
		c0-5.02-3.53-9.22-8.25-10.25V18.75c0-0.27,0.23-0.5,0.5-0.5h93.53c0.27,0,0.5,0.23,0.5,0.5V159.04z"/>
	<rect x="49.51" y="22" width="4.5" height="48.51"/>
	<rect x="104.52" y="99.02" width="34.76" height="4.5"/>
	<rect x="145.78" y="110.03" width="4.5" height="4.5"/>
	<rect x="145.78" y="121.03" width="4.5" height="4.5"/>
	<path d="M119.9,57.58c0.09-0.1,0.22-0.15,0.35-0.15c0.1,0,0.19,0.03,0.28,0.08c2.17,1.44,4.69,2.19,7.3,2.19
		c3.54,0,6.87-1.37,9.37-3.87l3.9-3.9c2.55-2.46,3.98-5.76,4.04-9.3c0.07-3.54-1.25-6.89-3.71-9.44c-2.52-2.61-5.91-4.05-9.54-4.05
		c-3.45,0-6.72,1.33-9.2,3.72c-0.11,0.11-4.23,4.23-4.23,4.23c-4.43,4.43-5.14,11.44-1.68,16.67c0.13,0.2,0.1,0.46-0.06,0.63
		l-4.09,4.09c-0.1,0.1-0.23,0.15-0.36,0.15c-0.12,0-0.25-0.05-0.35-0.15l-7.98-7.98c-0.16-0.16-0.19-0.43-0.06-0.62
		c3.46-5.24,2.75-12.25-1.69-16.68l-7.42-7.43l-3.18,3.18l7.42,7.43c2.59,2.61,3.27,6.6,1.69,9.92c-0.07,0.15-0.21,0.25-0.37,0.28
		h-0.08c-0.14,0-0.26-0.05-0.36-0.14l-12.9-12.9l-3.18,3.18l12.9,12.9c0.11,0.11,0.17,0.28,0.14,0.44
		c-0.03,0.16-0.13,0.29-0.28,0.36c-1.19,0.58-2.46,0.86-3.78,0.86c-2.32,0-4.5-0.89-6.15-2.53l-7.43-7.42l-3.18,3.18l7.42,7.43
		c2.51,2.5,5.84,3.88,9.38,3.88c2.6,0,5.13-0.76,7.3-2.2c0.09-0.05,0.18-0.08,0.28-0.08c0.13,0,0.25,0.05,0.35,0.15l7.98,7.97
		c0.19,0.2,0.19,0.51,0,0.71L83.81,87.3l3.18,3.18l24.93-24.93c0.1-0.09,0.23-0.14,0.35-0.14c0.13,0,0.26,0.05,0.36,0.14
		l24.93,24.93l3.18-3.18l-24.93-24.93c-0.09-0.09-0.15-0.22-0.15-0.35c0-0.14,0.06-0.26,0.15-0.36L119.9,57.58z M121.44,40.48
		l4.1-4.11c1.64-1.58,3.8-2.45,6.08-2.45c2.4,0,4.63,0.95,6.3,2.67c3.29,3.41,3.29,8.75-0.01,12.16l-3.88,3.89
		c-1.67,1.72-3.9,2.67-6.3,2.67c-2.28,0-4.44-0.87-6.08-2.46c-1.68-1.62-2.63-3.8-2.67-6.14C118.94,44.37,119.81,42.16,121.44,40.48
		z"/>
	<rect x="115.52" y="110.03" width="23.76" height="4.5"/>
	<rect x="145.78" y="99.02" width="4.5" height="4.5"/>
	<rect x="123.78" y="121.03" width="15.5" height="4.5"/>
</g>
</svg>
