<?xml version="1.0" encoding="utf-8"?>
<!-- Generator: Adobe Illustrator 24.3.0, SVG Export Plug-In . SVG Version: 6.00 Build 0)  -->
<svg version="1.1" id="Layer_1" xmlns="http://www.w3.org/2000/svg" xmlns:xlink="http://www.w3.org/1999/xlink" x="0px" y="0px"
	 width="139.1px" height="108.7px" viewBox="0 0 139.1 108.7" style="enable-background:new 0 0 139.1 108.7;" xml:space="preserve"
	>
<style type="text/css">
	.st0{fill:#00B0FB;}
	.st1{fill:#00B0FB;fill-opacity:0.4;}
	.st2{fill:#FFFFFF;}
	.st3{fill:none;}
	.st4{fill:#001135;}
	.st5{fill:#3C7CFF;}
	.st6{fill:#3C7CFF;stroke:#001135;stroke-width:0.7602;stroke-miterlimit:10;}
	.st7{fill:#DBDBDB;}
	.st8{fill:#B9B9B9;}
	.st9{fill:#080808;}
	.st10{fill:#060606;}
	.st11{fill:#070707;}
	.st12{fill:#121212;}
	.st13{fill:#111111;}
	.st14{fill:#090909;}
	.st15{fill:#FDFDFD;}
	.st16{fill:#F9F9F9;}
	.st17{fill:#F3F2F3;}
	.st18{fill:#FAFAFA;}
	.st19{fill:#0A0A0A;}
	.st20{fill:#EEEEEE;}
	.st21{fill:#0D0D0D;}
	.st22{fill:#0C0C0C;}
	.st23{fill:#0E0E0E;}
	.st24{fill:#050505;}
	.st25{fill:#3A3A3A;}
	.st26{fill:#525252;}
	.st27{fill:#474747;}
	.st28{fill:#1E1E1E;}
	.st29{fill:#1D1D1D;}
	.st30{fill:#222222;}
	.st31{fill:#494949;}
	.st32{fill:#585858;}
	.st33{fill:#EDEDED;}
	.st34{fill:#F0F0F0;}
	.st35{fill:#EAEAEA;}
	.st36{fill:#EAE9EA;}
	.st37{fill:#040404;}
	.st38{fill:#F4F3F4;}
</style>
<g>
	<path class="st0" d="M10.6,74.4v9.8c0,0,0,0,0,0h59.4c0,0,0,0,0,0v-9.8c0,0,0,0,0,0L10.6,74.4C10.6,74.3,10.6,74.3,10.6,74.4z"/>
	<path class="st0" d="M2.4,69.7h75.9c1.3,0,2.4-1.1,2.4-2.4V52.2c0-1.3-1.1-2.4-2.4-2.4H2.4c-1.3,0-2.4,1.1-2.4,2.4v15.1
		C0,68.6,1.1,69.7,2.4,69.7z M65.5,57.4h4.1c1.2,0,2.4,0.9,2.5,2.1c0.1,1.4-1,2.5-2.3,2.5h-4.3c-1.3,0-2.3-1-2.3-2.3
		C63.2,58.5,64.2,57.4,65.5,57.4z M11.1,57.4h39.3c1.2,0,2.4,0.9,2.5,2.1c0.1,1.4-1,2.5-2.3,2.5H11c-1.3,0-2.4-1.1-2.3-2.5
		C8.8,58.3,9.9,57.4,11.1,57.4z"/>
	<path class="st0" d="M78.3,88.8H2.4c-1.3,0-2.4,1.1-2.4,2.4v15.1c0,1.3,1.1,2.4,2.4,2.4h75.9c1.3,0,2.4-1.1,2.4-2.4V91.2
		C80.7,89.9,79.6,88.8,78.3,88.8z M50.5,101.1H11.1c-1.2,0-2.4-0.9-2.5-2.1c-0.1-1.4,1-2.5,2.3-2.5h39.7c1.3,0,2.4,1.2,2.3,2.5
		C52.8,100.2,51.7,101.1,50.5,101.1z M69.6,101.1h-3.9c-1.2,0-2.4-0.9-2.5-2.1c-0.1-1.4,1-2.5,2.3-2.5h4.3c1.3,0,2.4,1.2,2.3,2.5
		C72,100.2,70.8,101.1,69.6,101.1z"/>
	<path class="st0" d="M136.1,0H45.8c-1.7,0-3.1,1.4-3.1,3.1v39c0,1.7,1.4,3.1,3.1,3.1h32.5c3.9,0,7.1,3.2,7.1,7.1v15.1
		c0,3.9-3.2,7.1-7.1,7.1h-3.5c0,0,0,0,0,0v9.8c0,0,0,0,0,0h3.5c3.9,0,7.1,3.2,7.1,7v2.1c0,1.7,1.4,3.1,3.1,3.1h47.6
		c1.7,0,3.1-1.4,3.1-3.1V3.1C139.1,1.4,137.8,0,136.1,0z M128.1,41.9c0,1.2-0.9,2.4-2.1,2.5c-1.4,0.1-2.5-1-2.5-2.3V19
		c0,0,0,0-0.1,0L96.6,45.8c-0.4,0.4-1,0.7-1.6,0.7c-0.6,0-1.2-0.2-1.6-0.7c-0.9-0.9-0.9-2.4,0-3.3l26.8-26.8c0,0,0-0.1,0-0.1H97.2
		c-1.2,0-2.4-0.9-2.5-2.1c-0.1-1.4,1-2.5,2.3-2.5h28.7c1.3,0,2.4,1.1,2.4,2.4V41.9z"/>
</g>
</svg>
