<?xml version="1.0" encoding="utf-8"?>
<!-- Generator: Adobe Illustrator 24.3.0, SVG Export Plug-In . SVG Version: 6.00 Build 0)  -->
<svg version="1.1" id="Layer_1" xmlns="http://www.w3.org/2000/svg" xmlns:xlink="http://www.w3.org/1999/xlink" x="0px" y="0px"
	 width="106.1px" height="113px" viewBox="0 0 106.1 113" style="enable-background:new 0 0 106.1 113;" xml:space="preserve">
<style type="text/css">
	.st0{fill:#00B0FB;}
	.st1{fill:#00B0FB;fill-opacity:0.4;}
	.st2{fill:#FFFFFF;}
	.st3{fill:none;}
	.st4{fill:#001135;}
	.st5{fill:#3C7CFF;}
	.st6{fill:#3C7CFF;stroke:#001135;stroke-width:0.7602;stroke-miterlimit:10;}
	.st7{fill:#DBDBDB;}
	.st8{fill:#B9B9B9;}
	.st9{fill:#080808;}
	.st10{fill:#060606;}
	.st11{fill:#070707;}
	.st12{fill:#121212;}
	.st13{fill:#111111;}
	.st14{fill:#090909;}
	.st15{fill:#FDFDFD;}
	.st16{fill:#F9F9F9;}
	.st17{fill:#F3F2F3;}
	.st18{fill:#FAFAFA;}
	.st19{fill:#0A0A0A;}
	.st20{fill:#EEEEEE;}
	.st21{fill:#0D0D0D;}
	.st22{fill:#0C0C0C;}
	.st23{fill:#0E0E0E;}
	.st24{fill:#050505;}
	.st25{fill:#3A3A3A;}
	.st26{fill:#525252;}
	.st27{fill:#474747;}
	.st28{fill:#1E1E1E;}
	.st29{fill:#1D1D1D;}
	.st30{fill:#222222;}
	.st31{fill:#494949;}
	.st32{fill:#585858;}
	.st33{fill:#EDEDED;}
	.st34{fill:#F0F0F0;}
	.st35{fill:#EAEAEA;}
	.st36{fill:#EAE9EA;}
	.st37{fill:#040404;}
	.st38{fill:#F4F3F4;}
</style>
<g>
	<path class="st0" d="M45,69.8c7.4,0,13.3-6,13.3-13.3c0-7.4-6-13.3-13.3-13.3c-7.4,0-13.3,6-13.3,13.3C31.7,63.8,37.7,69.8,45,69.8
		z M35.6,54.4c0.8-0.8,2-0.8,2.8,0l4.4,4.4l8.9-8.9c0.8-0.8,2-0.8,2.8,0c0.8,0.8,0.8,2,0,2.8L44.2,63c-0.8,0.8-2,0.8-2.8,0l-5.8-5.8
		C34.9,56.4,34.9,55.2,35.6,54.4z"/>
	<path class="st0" d="M21.4,75.8l4.3,4.3l4-1.8c0.6-0.3,1.3-0.2,1.8,0.1c2.3,1.4,4.9,2.5,7.5,3.1c0.6,0.1,1.1,0.6,1.4,1.2l1.6,4.1
		h6.1l1.6-4.1c0.2-0.6,0.7-1,1.4-1.2c2.2-0.5,4.3-1.3,6.3-2.4c1.9-9.6,8.9-17.3,18.1-20.2v-5.5l-4.1-1.6c-0.6-0.2-1.1-0.7-1.2-1.4
		c-0.6-2.7-1.7-5.2-3.1-7.5c-0.3-0.6-0.4-1.2-0.1-1.8l1.8-4l-4.3-4.3l-4,1.8c-0.6,0.3-1.3,0.2-1.8-0.1C56.2,33,53.7,32,51,31.3
		c-0.6-0.1-1.1-0.6-1.4-1.2L48.1,26H42l-1.6,4.1c-0.2,0.6-0.8,1-1.4,1.2c-2.7,0.6-5.2,1.7-7.5,3.1c-0.6,0.3-1.2,0.4-1.8,0.1l-4-1.8
		l-4.3,4.3l1.8,4c0.3,0.6,0.2,1.3-0.1,1.8c-1.4,2.3-2.5,4.9-3.1,7.5c-0.2,0.6-0.6,1.1-1.2,1.4l-4.1,1.6v6.1l4.1,1.6
		c0.6,0.2,1.1,0.7,1.2,1.4c0.6,2.7,1.7,5.2,3.1,7.5c0.3,0.5,0.4,1.2,0.1,1.8L21.4,75.8z M45,39.2c9.5,0,17.2,7.7,17.2,17.2
		S54.5,73.7,45,73.7c-9.5,0-17.2-7.7-17.2-17.2S35.5,39.2,45,39.2z"/>
	<path class="st0" d="M56.9,84.3c0-0.2,0-0.4,0-0.6c-1.3,0.5-2.6,1-3.9,1.4l-1.7,4.4c-0.3,0.8-1,1.2-1.8,1.2h-8.8
		c-0.8,0-1.5-0.5-1.8-1.2l-1.7-4.4c-2.4-0.7-4.6-1.6-6.8-2.8L26,84.2c-0.7,0.3-1.6,0.2-2.2-0.4l-6.2-6.2c-0.6-0.6-0.7-1.4-0.4-2.2
		l1.9-4.3C18,69,17,66.7,16.4,64.3L12,62.6c-0.8-0.3-1.2-1-1.2-1.8v-8.8c0-0.8,0.5-1.5,1.2-1.8l4.4-1.7c0.7-2.4,1.6-4.6,2.8-6.8
		l-1.9-4.3c-0.3-0.7-0.2-1.6,0.4-2.2l6.2-6.2c0.6-0.6,1.4-0.7,2.2-0.4l4.3,1.9c2.1-1.2,4.4-2.1,6.8-2.8l1.7-4.4
		c0.3-0.8,1-1.2,1.8-1.2h8.8c0.8,0,1.5,0.5,1.8,1.2l1.7,4.4c2.4,0.7,4.6,1.6,6.8,2.8l4.3-1.9c0.7-0.3,1.6-0.2,2.2,0.4l6.2,6.2
		c0.6,0.6,0.7,1.4,0.4,2.2l-1.9,4.3c1.2,2.1,2.1,4.4,2.8,6.8l4.4,1.7c0.8,0.3,1.2,1,1.2,1.8v6c1.3-0.2,2.7-0.3,4.1-0.3
		c2.3,0,4.5,0.3,6.7,0.8V19.3L45,0L0,19.3v39.2C0,85,19.1,108,45,113c7.7-1.5,14.7-4.5,20.9-8.8C60.4,99.4,56.9,92.2,56.9,84.3z"/>
	<path class="st0" d="M83.4,61.6c-12.5,0-22.7,10.1-22.7,22.6s10.2,22.7,22.7,22.7c12.5,0,22.7-10.2,22.7-22.7S95.9,61.6,83.4,61.6z
		 M68.2,93.1c-1.8-3.1-2.7-6.8-2.3-10.7c1-9.7,9.7-16.7,19.3-15.6c1.9,0.2,3.7,0.7,5.4,1.5l-0.2-0.5c-0.3-1,0.3-2.1,1.3-2.4
		c1-0.3,2.1,0.3,2.4,1.3l1.6,5.4c0.3,1-0.3,2.1-1.3,2.4c-0.1,0-0.3,0.1-0.5,0.1l-5.6,0.2c-1.1,0-2-0.8-2-1.9c0-0.7,0.3-1.4,0.9-1.7
		c-0.8-0.2-1.6-0.4-2.4-0.5c-7.5-0.8-14.2,4.7-15,12.2c-0.3,2.9,0.3,5.8,1.8,8.3c0.5,0.9,0.2,2.1-0.7,2.7C70,94.3,68.8,94,68.2,93.1
		z M81.6,101.8c-1.7-0.2-3.4-0.6-4.9-1.3l0,0.1c0.4,1-0.2,2.1-1.2,2.5c-1,0.4-2.1-0.2-2.5-1.2l-1.9-5.3c-0.4-1,0.2-2.1,1.2-2.5
		c0.1-0.1,0.3-0.1,0.5-0.1l5.6-0.6c1.1-0.1,2,0.7,2.1,1.8c0.1,0.9-0.5,1.8-1.3,2.1c0.9,0.3,1.9,0.5,2.8,0.6
		c7.5,0.8,14.2-4.7,15-12.2c0.3-3-0.4-5.9-1.8-8.3c-0.5-0.9-0.2-2.1,0.7-2.7c0.9-0.5,2.1-0.2,2.7,0.7c1.8,3.1,2.7,6.8,2.3,10.7
		C99.9,95.8,91.2,102.8,81.6,101.8z"/>
</g>
</svg>
