<?xml version="1.0" encoding="utf-8"?>
<!-- Generator: Adobe Illustrator 24.3.0, SVG Export Plug-In . SVG Version: 6.00 Build 0)  -->
<svg version="1.1" id="Layer_1" xmlns="http://www.w3.org/2000/svg" xmlns:xlink="http://www.w3.org/1999/xlink" x="0px" y="0px"
	 width="162px" height="164px" viewBox="0 0 162 164" style="enable-background:new 0 0 162 164;" xml:space="preserve">
<style type="text/css">
	.st0{fill:#00B0FB;}
	.st1{fill:#00B0FB;fill-opacity:0.4;}
	.st2{fill:#FFFFFF;}
	.st3{fill:none;}
	.st4{fill:#001135;}
	.st5{fill:#3C7CFF;}
	.st6{fill:#3C7CFF;stroke:#001135;stroke-width:0.7602;stroke-miterlimit:10;}
	.st7{fill:#DBDBDB;}
	.st8{fill:#B9B9B9;}
	.st9{fill:#080808;}
	.st10{fill:#060606;}
	.st11{fill:#070707;}
	.st12{fill:#121212;}
	.st13{fill:#111111;}
	.st14{fill:#090909;}
	.st15{fill:#FDFDFD;}
	.st16{fill:#F9F9F9;}
	.st17{fill:#F3F2F3;}
	.st18{fill:#FAFAFA;}
	.st19{fill:#0A0A0A;}
	.st20{fill:#EEEEEE;}
	.st21{fill:#0D0D0D;}
	.st22{fill:#0C0C0C;}
	.st23{fill:#0E0E0E;}
	.st24{fill:#050505;}
	.st25{fill:#3A3A3A;}
	.st26{fill:#525252;}
	.st27{fill:#474747;}
	.st28{fill:#1E1E1E;}
	.st29{fill:#1D1D1D;}
	.st30{fill:#222222;}
	.st31{fill:#494949;}
	.st32{fill:#585858;}
	.st33{fill:#EDEDED;}
	.st34{fill:#F0F0F0;}
	.st35{fill:#EAEAEA;}
	.st36{fill:#EAE9EA;}
	.st37{fill:#040404;}
	.st38{fill:#F4F3F4;}
	.st39{fill:#030303;}
	.st40{fill:#E8E8E8;}
	.st41{fill:#0C0C0B;}
	.st42{fill:#0D0D0C;}
	.st43{fill:#919191;}
	.st44{fill:#909090;}
	.st45{fill:#0E0E0D;}
	.st46{fill:#0C0D0C;}
	.st47{fill:#090908;}
	.st48{fill:#141414;}
	.st49{fill:#4C4D4D;}
	.st50{fill:#737474;}
	.st51{fill:#242424;}
	.st52{fill:#202020;}
	.st53{fill:#101010;}
	.st54{fill:#0D0E0D;}
	.st55{fill:#111212;}
	.st56{fill:#0B0B0B;}
	.st57{fill:#0D0C0C;}
	.st58{fill:#E7E7E7;}
	.st59{fill:#272727;}
	.st60{fill:#2E2E2E;}
	.st61{fill:#1F1E1E;}
	.st62{fill:#1B1A1A;}
	.st63{fill:#E6E6E6;}
	.st64{fill:#0F0E0E;}
	.st65{fill:#F2F2F2;}
	.st66{fill:#F4F3F3;}
	.st67{fill:#F9F8F8;}
	.st68{fill:#F1F1F0;}
	.st69{fill:#F6F6F6;}
	.st70{fill:#F5F6F6;}
	.st71{fill:#F5F5F5;}
	.st72{fill:#2C2C2C;}
	.st73{fill:#252625;}
	.st74{fill:#303030;}
	.st75{fill:#2D2D2C;}
	.st76{fill:#2D2D2D;}
	.st77{fill:#262727;}
	.st78{fill:#191919;}
	.st79{fill:#1B1B1B;}
	.st80{fill:#F7F7F7;}
	.st81{fill:#F6F7F7;}
	.st82{fill:#F9F9FA;}
	.st83{fill:#F4F4F4;}
	.st84{fill:#F8F8F8;}
	.st85{fill:#FCFCFC;}
	.st86{fill:#FBFBFB;}
	.st87{fill:#E2E1E2;}
	.st88{fill:#D8D7D8;}
	.st89{fill:#0F0F0F;}
	.st90{fill:#161616;}
	.st91{fill:#181818;}
	.st92{fill:#131313;}
	.st93{fill-rule:evenodd;clip-rule:evenodd;fill:#00B0FB;}
	.st94{fill:#030302;}
	.st95{fill:#D2D3D3;}
	.st96{fill:#1F1F1F;}
	.st97{fill:#0E0D0E;}
	.st98{fill:#BABBBB;}
	.st99{fill:#8A8A8A;}
	.st100{fill:#8E8F8F;}
	.st101{fill:#464746;}
	.st102{fill:#5F5E5E;}
	.st103{fill:#151414;}
	.st104{fill:#282828;}
	.st105{fill:#030202;}
	.st106{fill:#040403;}
	.st107{fill:#040303;}
	.st108{fill:#202021;}
	.st109{fill:#020202;}
	.st110{fill:#050506;}
	.st111{fill:#010101;}
	.st112{fill:#F3F3F3;}
	.st113{fill:#F1F1F1;}
	.st114{fill:#FAFAF9;}
	.st115{fill:#040504;}
	.st116{fill:#070708;}
	.st117{fill:#131212;}
	.st118{fill:#070808;}
	.st119{fill:#3C3C3C;}
	.st120{fill:#FEFEFE;}
	.st121{fill:#47C5FB;}
	.st122{fill:#00569E;}
	.st123{fill:#00B5F8;}
	.st124{fill:url(#SVGID_1_);fill-opacity:0.8;}
	.st125{fill-rule:evenodd;clip-rule:evenodd;fill:#00D8FF;}
	.st126{fill:#00D8FF;}
	.st127{fill:url(#SVGID_2_);}
	.st128{fill:url(#SVGID_3_);}
	.st129{fill:url(#SVGID_4_);}
	.st130{fill:url(#SVGID_5_);}
	.st131{fill:#3C7DFE;}
	.st132{fill:#A4C639;}
	.st133{fill:none;stroke:#A4C639;stroke-width:10.5192;stroke-linecap:round;stroke-linejoin:round;stroke-miterlimit:14.0256;}
	.st134{fill:#D6D6D6;}
	.st135{fill:#030203;}
	.st136{fill:#070606;}
	.st137{fill:#010100;}
	.st138{fill:#020201;}
</style>
<g>
	<path class="st0" d="M40.8,154.9c-10,0-19.4,0-28.5,0.1c-2.2,0-3.6-0.4-4.7-1.5c-1.2-1.2-1.5-2.9-1.5-5c0.1-50.8,0.1-96,0-138.2
		c0-2.3,0.4-3.7,1.5-4.7c1-1,2.4-1.5,4.8-1.5h0.1c10.2,0,19.5,0.1,28.3,0.1V0C29.7,0,18.6,0,7.5,0C2,0,2,0,2,5.6
		c0,18.3,0,36.5,0,54.8v18.9c0,24.7,0,49.4,0,74.2c0,5.9,0.1,5.9,5.9,5.9c11,0,21.9,0,32.9,0V154.9z"/>
	<path class="st0" d="M118.7,72.5c-2.7-1.7-5.7-3-8.8-3.9c-3.1-0.9-6.4-1.4-9.7-1.4h-0.2c-9.5,0.1-18.3,3.7-24.7,10.3
		c-6.4,6.5-9.9,15.3-9.8,24.6c0.2,19.3,15.3,34.5,34.5,34.5c3.5,0,6.8-0.5,10-1.4c3.1-0.9,6-2.2,8.7-3.9
		c10.2-6.4,16.2-17.6,16.1-29.9C134.8,89.6,128.8,78.8,118.7,72.5z M98.2,81.3c-0.3,0.3-0.9,0.6-2.6,0.6h-0.1c-3.2,0-3.2-1-3.3-2.1
		c0-1.2,0.1-1.9,2.9-2.3c3.1,0.4,3.3,1.1,3.4,2.3C98.5,80.5,98.4,81,98.2,81.3z M122.5,106.7l0,0.2c-0.4,3-0.8,6-1.8,8.9
		c-0.6,1.6-1.3,2.3-2.1,2.3c-0.3,0-0.7-0.1-1.1-0.2c-0.6-0.2-1.9-0.7-0.9-3.4c2.2-6.1,2.1-12.2-0.5-18.2c-0.8-1.8-1.7-3.5-2.8-5
		c-1.6-2.2-3.6-4-6-5.5c-1-0.6-1.9-1.2-2.4-1.8c-0.5-0.6-0.8-1,0-2.2c0-0.1,0.1-0.1,0.1-0.2c0.7-0.9,1.2-0.9,1.4-0.9
		c1,0,2.4,0.9,3.6,1.7l0.1,0.1c0.2,0.1,0.3,0.2,0.4,0.2C117.9,88,122.9,97.8,122.5,106.7z"/>
	<path class="st2" d="M159.7,158.5c-3.1-3.1-6.2-6.2-9.5-9.5c-5.5-5.5-11.1-11.2-16.7-16.7c-2.5-2.4-3.5-4.7-1-8.7
		c8.6-13.3,9.2-27,1.7-40.7c-4.2-7.6-10-13.2-17.3-16.5c-0.7-0.3-1.2-1-1.2-1.8c0-27.8,0-52.8,0-59.8c0-2.5,0-3.8-0.6-4.4
		C114.6,0,113.2,0,110.6,0c-17.5,0-35,0-52.5,0c-17.5,0-35,0-52.5,0C0,0,0,0,0,5.6c0,18.3,0,36.5,0,54.8v18.9c0,24.7,0,49.4,0,74.2
		c0,5.9,0.1,5.9,5.9,5.9c12,0,24,0,36,0H78c11.2,0,22.3,0,33.5,0c3.1,0,3.9-0.4,4.1-2.1c0.2-1.6,0.2-3.5,0.1-5.7c0-2.9,0-7.2,0-12.7
		c0-0.8,0.4-1.5,1.1-1.8c1.6-0.8,3.2-1.7,4.9-2.7c1.7-1,2.9-1.5,4.1-1.5c1.6,0,3,0.7,4.6,2.4c6.1,6.3,12.5,12.6,18.6,18.7l0.6,0.6
		c2.3,2.3,4.6,4.6,6.9,6.9l0.2,0.2c1,1.1,2.2,2.2,3.1,2.2c0.3,0,0.8-0.2,1.2-0.7c0.6-0.6,0.9-1.1,0.9-1.5
		C162,161,160.8,159.7,159.7,158.5z M111.4,151.7c-1.1,3.3-4.4,3.3-6,3.3h-0.1c-15.5,0-30.9-0.1-46.4-0.1c-17.7,0-33.6,0-48.6,0.1
		c-2.2,0-3.6-0.4-4.7-1.5c-1.2-1.2-1.5-2.9-1.5-5c0.1-50.8,0.1-96,0-138.2c0-2.3,0.4-3.7,1.5-4.7c1-1,2.4-1.5,4.8-1.5h0.1
		c18.2,0.1,33.5,0.1,48,0.1c16.7,0,31.9,0,46.4-0.1h0.1c2.4,0,4,0.5,5,1.6c1.3,1.3,1.5,3.1,1.5,5.3c-0.1,4.7-0.1,21.3-0.1,50.9
		c0,0.6-0.3,1.2-0.8,1.6c-0.4,0.3-0.8,0.4-1.2,0.4c-0.1,0-0.3,0-0.4,0c-2.8-0.6-5.9-1-8.9-1.2c-0.8,0.1-1.6,0.1-2.4,0.2
		c-1.7,0.1-3.5,0.3-5.1,0.6c-16.3,3.6-28.4,15.7-30.7,30.9c-2.6,17.1,2.9,30.5,16.4,39.6c7.1,4.8,14.3,7.2,21.7,7.2
		c3,0,6-0.4,9.1-1.2c0.2-0.1,0.3-0.1,0.5-0.1c0.4,0,0.9,0.1,1.2,0.4c0.5,0.4,0.8,1,0.8,1.6c0,0,0,7.6,0,9
		C111.5,151.2,111.4,151.4,111.4,151.7z M118.7,131.3c-2.7,1.7-5.6,3-8.7,3.9c-3.2,0.9-6.6,1.4-10,1.4c-19.2,0-34.3-15.2-34.5-34.5
		c-0.1-9.4,3.4-18.1,9.8-24.6c6.5-6.6,15.3-10.2,24.7-10.3h0.2c3.3,0,6.6,0.5,9.7,1.4c3.1,0.9,6,2.2,8.8,3.9
		c10,6.3,16.1,17.1,16.1,28.9C134.9,113.8,128.9,125,118.7,131.3z"/>
	<path class="st1" d="M94.7,43.4c-0.1,0.9-0.3,1.8-2.6,1.8h-7.2l-64.9,0c-3.4,0-3.7-0.5-3.7-2c0-0.7,0.1-1.2,0.4-1.5
		c0.7-0.7,2.6-0.8,4.1-0.8c12.2,0,24.2,0,36.3,0l32.6,0l1.2,0c0.3,0,0.7,0,1.1,0.1C94.7,41.2,94.8,42.4,94.7,43.4z"/>
	<path class="st2" d="M49,99.2c0,1.1-0.2,1.7-2.5,1.7c-2,0-3.9,0-5.9,0h-7.9l0.1,0.1c-0.5-0.1-1.5-0.1-3.6-0.1h-4.6
		c-1.9,0-3.8,0-5.6,0l-0.1,0c-2.2,0-2.4-0.8-2.5-1.8c0-0.8,0.1-1.5,0.5-1.9c0.4-0.4,1.1-0.6,1.9-0.6c4.4,0,8.8,0,13.1,0
		c4.9,0,9.9,0,14.8,0c0.9,0,1.5,0.2,1.9,0.6C48.9,97.7,49.1,98.3,49,99.2z"/>
	<path class="st2" d="M49,117.6c0,1.1-0.2,1.7-2.5,1.7c-2,0-4,0-5.9,0h-7.9l0.1,0.1c-0.5-0.1-1.5-0.1-3.6-0.1l-4.6,0
		c-1.9,0-3.8,0-5.6,0h-0.1c-2.2,0-2.4-0.9-2.5-1.8c0-0.8,0.1-1.5,0.5-1.9c0.4-0.4,1.1-0.6,1.9-0.6c4.4,0,8.8,0,13.1,0
		c4.9,0,9.9,0,14.8,0c0.9,0,1.5,0.2,1.9,0.6C48.9,116.1,49.1,116.7,49,117.6z"/>
	<path class="st2" d="M49,136c0,1.1-0.2,1.7-2.5,1.7c-2,0-3.9,0-5.8,0l-8,0l0.1,0.1c-0.5-0.1-1.5-0.1-3.6-0.1l-4.6,0
		c-1.9,0-3.8,0-5.7,0h-0.1c-2.2,0-2.4-0.8-2.5-1.8c0-0.8,0.1-1.5,0.5-1.9c0.4-0.4,1.1-0.6,1.9-0.6c4.4,0,8.8,0,13.1,0
		c4.9,0,9.9,0,14.8,0c0.9,0,1.5,0.2,1.9,0.6C48.9,134.5,49.1,135.1,49,136z"/>
	<path class="st2" d="M49.5,61.8c0,0.7-0.1,1.2-0.5,1.6c-0.4,0.4-1.1,0.7-2.1,0.7c-4.6,0-9.4,0.1-14.6,0.1c-4.4,0-8.8,0-13.1,0
		c-1.1,0-1.9-0.3-2.3-0.8c-0.4-0.4-0.5-1-0.5-1.8c0-0.7,0.1-1.8,2.9-1.8h0.2c1.9,0,3.7,0,5.6,0c1.3,0,2.6,0,4,0c1.3,0,2.6,0,3.9,0
		h8.3c1.8,0,3.7,0,5.5,0C49.3,59.8,49.5,60.8,49.5,61.8z"/>
	<path class="st2" d="M49.5,80.4c0,0.7-0.1,1.2-0.4,1.5c-0.4,0.4-1.1,0.6-2.2,0.6c-2,0-3.8,0-5.7,0l-8.6,0c-1.3,0-2.6,0-4,0
		c-1.3,0-2.6,0-4,0c-1.9,0-3.7,0-5.6,0.1h-0.2c-0.9,0-1.6-0.2-2-0.5c-0.3-0.3-0.5-0.8-0.5-1.5c0-0.9,0.3-2.2,2.7-2.2
		c5.2,0,10.4,0,15.5,0c4.1,0,8.2,0,12.2,0C49.3,78.3,49.5,79.4,49.5,80.4z"/>
	<path class="st1" d="M42.1,21.7c-0.1,1.4-0.7,2-2.3,2h0c-1.5,0-3.1,0-4.7,0l-12.8,0c-1.3,0-2.6,0-3.8,0c-1.3,0-2-0.6-2.1-1.8
		c-0.1-0.7,0.1-1.3,0.4-1.7c0.3-0.4,0.9-0.6,1.5-0.6c3.6-0.1,7.3-0.2,11.2-0.2c3.3,0,6.7,0,10.5,0.1c0.7,0,1.3,0.2,1.7,0.6
		C42,20.6,42.2,21.1,42.1,21.7z"/>
	<path class="st2" d="M110.5,82.8c-0.1-0.1-0.2-0.1-0.3-0.2l-0.2-0.1c-1.2-0.8-2.6-1.7-3.6-1.7c-0.2,0-0.7,0-1.4,0.9
		c0,0.1-0.1,0.1-0.1,0.2c-0.8,1.2-0.5,1.6,0,2.2c0.6,0.6,1.4,1.2,2.4,1.8c2.4,1.5,4.4,3.3,6,5.5c1.1,1.5,2,3.1,2.8,5
		c2.5,6,2.7,12.2,0.4,18.2c-1,2.6,0.3,3.1,0.9,3.4c0.4,0.2,0.7,0.2,1,0.2c0.8,0,1.6-0.8,2.1-2.3c1.1-2.9,1.5-5.9,1.9-8.9l0-0.2
		C122.9,97.8,117.9,88,110.5,82.8z"/>
	<path class="st2" d="M95.2,77.5c-2.9,0.4-3,1-2.9,2.3c0,1.1,0.1,2.1,3.3,2.1h0.1c1.7,0,2.3-0.3,2.6-0.6c0.3-0.3,0.4-0.8,0.4-1.5
		C98.5,78.6,98.3,77.9,95.2,77.5z"/>
</g>
</svg>
