<?xml version="1.0" encoding="utf-8"?>
<!-- Generator: Adobe Illustrator 24.3.0, SVG Export Plug-In . SVG Version: 6.00 Build 0)  -->
<svg version="1.1" id="Layer_1" xmlns="http://www.w3.org/2000/svg" xmlns:xlink="http://www.w3.org/1999/xlink" x="0px" y="0px"
	 width="137.3px" height="169px" viewBox="0 0 137.3 169" style="enable-background:new 0 0 137.3 169;" xml:space="preserve">
<style type="text/css">
	.st0{fill:#00B0FB;}
	.st1{fill:#00B0FB;fill-opacity:0.4;}
	.st2{fill:#FFFFFF;}
	.st3{fill:none;}
	.st4{fill:#001135;}
	.st5{fill:#3C7CFF;}
	.st6{fill:#3C7CFF;stroke:#001135;stroke-width:0.7602;stroke-miterlimit:10;}
	.st7{fill:#DBDBDB;}
	.st8{fill:#B9B9B9;}
	.st9{fill:#080808;}
	.st10{fill:#060606;}
	.st11{fill:#070707;}
	.st12{fill:#121212;}
	.st13{fill:#111111;}
	.st14{fill:#090909;}
	.st15{fill:#FDFDFD;}
	.st16{fill:#F9F9F9;}
	.st17{fill:#F3F2F3;}
	.st18{fill:#FAFAFA;}
	.st19{fill:#0A0A0A;}
	.st20{fill:#EEEEEE;}
	.st21{fill:#0D0D0D;}
	.st22{fill:#0C0C0C;}
	.st23{fill:#0E0E0E;}
	.st24{fill:#050505;}
	.st25{fill:#3A3A3A;}
	.st26{fill:#525252;}
	.st27{fill:#474747;}
	.st28{fill:#1E1E1E;}
	.st29{fill:#1D1D1D;}
	.st30{fill:#222222;}
	.st31{fill:#494949;}
	.st32{fill:#585858;}
	.st33{fill:#EDEDED;}
	.st34{fill:#F0F0F0;}
	.st35{fill:#EAEAEA;}
	.st36{fill:#EAE9EA;}
	.st37{fill:#040404;}
	.st38{fill:#F4F3F4;}
	.st39{fill:#030303;}
	.st40{fill:#E8E8E8;}
	.st41{fill:#0C0C0B;}
	.st42{fill:#0D0D0C;}
	.st43{fill:#919191;}
	.st44{fill:#909090;}
	.st45{fill:#0E0E0D;}
	.st46{fill:#0C0D0C;}
	.st47{fill:#090908;}
	.st48{fill:#141414;}
	.st49{fill:#4C4D4D;}
	.st50{fill:#737474;}
	.st51{fill:#242424;}
	.st52{fill:#202020;}
	.st53{fill:#101010;}
	.st54{fill:#0D0E0D;}
	.st55{fill:#111212;}
	.st56{fill:#0B0B0B;}
	.st57{fill:#0D0C0C;}
	.st58{fill:#E7E7E7;}
	.st59{fill:#272727;}
	.st60{fill:#2E2E2E;}
	.st61{fill:#1F1E1E;}
	.st62{fill:#1B1A1A;}
	.st63{fill:#E6E6E6;}
	.st64{fill:#0F0E0E;}
	.st65{fill:#F2F2F2;}
	.st66{fill:#F4F3F3;}
	.st67{fill:#F9F8F8;}
	.st68{fill:#F1F1F0;}
	.st69{fill:#F6F6F6;}
	.st70{fill:#F5F6F6;}
	.st71{fill:#F5F5F5;}
	.st72{fill:#2C2C2C;}
	.st73{fill:#252625;}
	.st74{fill:#303030;}
	.st75{fill:#2D2D2C;}
	.st76{fill:#2D2D2D;}
	.st77{fill:#262727;}
	.st78{fill:#191919;}
	.st79{fill:#1B1B1B;}
	.st80{fill:#F7F7F7;}
	.st81{fill:#F6F7F7;}
	.st82{fill:#F9F9FA;}
	.st83{fill:#F4F4F4;}
	.st84{fill:#F8F8F8;}
	.st85{fill:#FCFCFC;}
	.st86{fill:#FBFBFB;}
	.st87{fill:#E2E1E2;}
	.st88{fill:#D8D7D8;}
	.st89{fill:#0F0F0F;}
	.st90{fill:#161616;}
	.st91{fill:#181818;}
	.st92{fill:#131313;}
	.st93{fill-rule:evenodd;clip-rule:evenodd;fill:#00B0FB;}
	.st94{fill:#030302;}
	.st95{fill:#D2D3D3;}
	.st96{fill:#1F1F1F;}
	.st97{fill:#0E0D0E;}
	.st98{fill:#BABBBB;}
	.st99{fill:#8A8A8A;}
	.st100{fill:#8E8F8F;}
	.st101{fill:#464746;}
	.st102{fill:#5F5E5E;}
	.st103{fill:#151414;}
	.st104{fill:#282828;}
	.st105{fill:#030202;}
	.st106{fill:#040403;}
	.st107{fill:#040303;}
	.st108{fill:#202021;}
	.st109{fill:#020202;}
	.st110{fill:#050506;}
	.st111{fill:#010101;}
	.st112{fill:#F3F3F3;}
	.st113{fill:#F1F1F1;}
	.st114{fill:#FAFAF9;}
	.st115{fill:#040504;}
	.st116{fill:#070708;}
	.st117{fill:#131212;}
	.st118{fill:#070808;}
	.st119{fill:#3C3C3C;}
	.st120{fill:#FEFEFE;}
	.st121{fill:#47C5FB;}
	.st122{fill:#00569E;}
	.st123{fill:#00B5F8;}
	.st124{fill:url(#SVGID_1_);fill-opacity:0.8;}
	.st125{fill-rule:evenodd;clip-rule:evenodd;fill:#00D8FF;}
	.st126{fill:#00D8FF;}
	.st127{fill:url(#SVGID_2_);}
	.st128{fill:url(#SVGID_3_);}
	.st129{fill:url(#SVGID_4_);}
	.st130{fill:url(#SVGID_5_);}
	.st131{fill:#3C7DFE;}
	.st132{fill:#A4C639;}
	.st133{fill:none;stroke:#A4C639;stroke-width:10.5192;stroke-linecap:round;stroke-linejoin:round;stroke-miterlimit:14.0256;}
	.st134{fill:#D6D6D6;}
	.st135{fill:#030203;}
	.st136{fill:#070606;}
	.st137{fill:#010100;}
	.st138{fill:#020201;}
</style>
<g>
	<path class="st0" d="M63.3,67.4H58c-0.6,0-1-0.4-1-1v-6.3c0-7.4,6.3-13.7,13.7-13.7c1,0,2,0.1,2.9,0.3c0.4-1,0.8-2,1.3-2.9h-3v0.6
		h-7.4v-1.2c-6.8,2.6-11.8,9.2-11.8,16.8v6.3c0,0.4-0.2,0.7-0.5,0.8v2.4h11.2V67.4z"/>
	<path class="st0" d="M90.8,71.8H46.5c-0.6,0-1,0.4-1,1v28.5c0,2.3,1.9,4.2,4.2,4.2h38c2.3,0,4.2-1.9,4.2-4.2V72.8
		C91.8,72.2,91.4,71.8,90.8,71.8z M70.8,91.8c0,1.2-1,2.2-2.2,2.2c-1.2,0-2.2-1-2.2-2.2v-6.3c0-1.2,1-2.2,2.2-2.2
		c1.2,0,2.2,1,2.2,2.2V91.8z"/>
	<path class="st1" d="M132.3,22.6L68.9,4.5c-0.1,0-0.2,0-0.3,0c-0.1,0-0.2,0-0.3,0L5.1,22.6c-0.4,0.1-0.7,0.5-0.7,1v71.6
		c0.1,8,1.8,15.5,5.1,22.3l0.1,0.3c11.7,24.3,37.5,37.6,58.8,46.5c0.1,0,0.2,0.1,0.4,0.1c0.1,0,0.3,0,0.4-0.1
		c21.2-8.9,47.1-22.2,58.8-46.5c0,0,0-0.1,0.1-0.1c3.3-6.9,5-14.5,5.2-22.5V23.5C133,23.1,132.7,22.7,132.3,22.6z M118.3,95.2
		c0,0.7,0,1.4-0.1,2.2l0,0.6c0,0.5-0.1,1-0.2,1.5c-0.1,0.8-0.2,1.5-0.3,2.3c-2.5,14.3-13,26.6-31.9,37.8c-5.2,3.2-10.6,6-16,8.3
		c0,0-0.1,0-0.1,0.1c-0.1,0-0.2,0.1-0.2,0.1c-0.1,0.1-0.2,0.1-0.3,0.1l-0.1,0l-0.1,0c-0.1,0-0.2,0-0.3,0s-0.2,0-0.3,0l-0.1,0l-0.1,0
		c-0.1,0-0.2-0.1-0.3-0.1l-0.3-0.1c0,0-0.1-0.1-0.1-0.1c-5.4-2.3-10.8-5.1-16-8.3c-18.9-11.2-29.4-23.6-31.9-37.8
		c-0.1-0.8-0.3-1.6-0.3-2.3c-0.1-0.5-0.1-1-0.2-1.6l0-0.6c0-0.8-0.1-1.5-0.1-2.2V35.5c0-0.1,0-0.3,0-0.3l0.1-0.2l0-0.2
		c0.1-0.2,0.1-0.2,0.2-0.3l0.2-0.3c0.1-0.1,0.1-0.2,0.2-0.2c0.1-0.1,0.2-0.2,0.3-0.2l0.3-0.2c0.1-0.1,0.2-0.1,0.3-0.1l47-13.4
		c0.4-0.2,0.7-0.2,1-0.2h0.1c0.3,0,0.6,0.1,0.9,0.2l47.1,13.5c0.1,0,0.2,0.1,0.3,0.1c0,0,0.3,0.2,0.3,0.2c0.1,0.1,0.2,0.1,0.2,0.2
		c0.1,0.1,0.2,0.2,0.2,0.3l0.2,0.3c0,0.1,0.1,0.2,0.1,0.2c0,0,0,0.1,0,0.1l0.1,0.2c0,0,0,0.1,0,0.1v0l0,0.2V95.2z"/>
	<path class="st2" d="M68.7,83.3c-1.2,0-2.2,1-2.2,2.2v6.3c0,1.2,1,2.2,2.2,2.2c1.2,0,2.2-1,2.2-2.2v-6.3
		C70.8,84.2,69.9,83.3,68.7,83.3z"/>
	<path class="st2" d="M94,67.4h-6.3c-0.6,0-1-0.4-1-1v-6.3c0-9.8-8.2-18-18-18c-9.8,0-18,8.2-18,18v6.3c0,0.6-0.4,1-1,1h-6.3
		c-1.2,0-2.2,1-2.2,2.2v31.7c0,4.7,3.8,8.5,8.5,8.5h38c4.7,0,8.5-3.8,8.5-8.5V69.6C96.2,68.4,95.2,67.4,94,67.4z M55,60.1
		c0-7.4,6.3-13.7,13.7-13.7c7.4,0,13.7,6.3,13.7,13.7v6.3c0,0.6-0.5,1-1,1H56c-0.6,0-1-0.4-1-1V60.1z M91.8,101.3
		c0,2.3-1.9,4.2-4.2,4.2h-38c-2.3,0-4.2-1.9-4.2-4.2V72.8c0-0.6,0.4-1,1-1h44.3c0.5,0,1,0.4,1,1V101.3z"/>
	<path class="st2" d="M118.3,35.2L118.3,35.2c0-0.1,0-0.2,0-0.2l-0.1-0.2c0,0,0-0.1,0-0.1c0-0.1-0.1-0.2-0.1-0.2l-0.2-0.3
		c-0.1-0.1-0.1-0.2-0.2-0.3c-0.1-0.1-0.1-0.1-0.2-0.2c0,0-0.3-0.2-0.3-0.2c-0.1,0-0.2-0.1-0.3-0.1L69.6,19.9
		c-0.3-0.1-0.6-0.2-0.9-0.2h-0.1c-0.3,0-0.6,0.1-1,0.2l-47,13.4c-0.1,0-0.2,0.1-0.3,0.1l-0.3,0.2c-0.1,0.1-0.2,0.1-0.3,0.2
		c-0.1,0.1-0.1,0.2-0.2,0.2l-0.2,0.3c-0.1,0.1-0.1,0.2-0.2,0.3l0,0.2L19,35.2c0,0,0,0.2,0,0.3v59.8c0,0.7,0,1.4,0.1,2.2l0,0.6
		c0,0.5,0.1,1,0.2,1.6c0.1,0.8,0.2,1.5,0.3,2.3c2.5,14.2,12.9,26.6,31.9,37.8c5.2,3.2,10.6,6,16,8.3c0,0,0.1,0,0.1,0.1l0.3,0.1
		c0.1,0,0.2,0.1,0.3,0.1l0.1,0l0.1,0c0.1,0,0.2,0,0.3,0s0.2,0,0.3,0l0.1,0l0.1,0c0.1,0,0.2-0.1,0.3-0.1c0,0,0.2-0.1,0.2-0.1
		c0.1,0,0.1,0,0.1-0.1c5.4-2.3,10.8-5.1,16-8.3c18.9-11.2,29.4-23.6,31.9-37.8c0.1-0.8,0.2-1.6,0.3-2.3c0.1-0.5,0.1-1,0.2-1.5l0-0.6
		c0.1-0.9,0.1-1.6,0.1-2.2V35.5L118.3,35.2z M114,95.2c0,0.7,0,1.4-0.1,2.1l0,0.4c0,0.6-0.1,1.3-0.2,1.9l0,0.3
		c-0.6,4-1.9,7.9-3.9,11.7c0,0.1-0.1,0.2-0.2,0.2c-0.1,0.1-0.2,0.2-0.3,0.4l-1.7,2.7c-0.1,0.2-0.2,0.4-0.2,0.6
		c0,0.1-0.1,0.2-0.1,0.3c-1.8,2.6-4,5.2-6.6,7.7c-0.1,0.1-0.2,0.1-0.3,0.2c-0.2,0.1-0.4,0.2-0.6,0.4c-5,4.5-10.5,8.6-16.3,12.2
		c-4.2,2.5-8.9,5-14.4,7.5c-0.1,0.1-0.3,0.1-0.4,0.1c-0.1,0-0.3,0-0.4-0.1c-5.4-2.6-10.1-5-14.4-7.5c-5.8-3.6-11.3-7.7-16.3-12.2
		c-0.1-0.1-0.3-0.3-0.6-0.4c-0.1-0.1-0.2-0.1-0.3-0.2c-7.5-7.3-11.8-15.2-13-23.6l0-0.2c-0.1-0.6-0.1-1.3-0.2-1.9l0-0.4
		c0-0.7-0.1-1.4-0.1-2.1V37.9c0-0.5,0.3-0.8,0.7-1l44.3-12.6c0.1,0,0.2,0,0.3,0c0.1,0,0.2,0,0.3,0l44.3,12.7c0.4,0.1,0.7,0.5,0.7,1
		V95.2z"/>
	<path class="st2" d="M137.3,20.9l-0.1-0.3l0-0.1c0,0,0-0.1,0-0.1c0-0.1-0.1-0.2-0.2-0.4l-0.1-0.2c-0.1-0.1-0.1-0.2-0.2-0.3
		c-0.1-0.1-0.2-0.2-0.4-0.3l-0.2-0.1c-0.1-0.1-0.2-0.1-0.4-0.1L69.3,0.1C69.1,0,68.9,0,68.7,0c0,0-0.1,0-0.1,0c-0.2,0-0.4,0-0.5,0.1
		L1.6,19c-0.1,0-0.2,0.1-0.3,0.1L1,19.3c-0.1,0.1-0.2,0.2-0.3,0.2c0,0-0.1,0.1-0.1,0.1c-0.1,0.1-0.1,0.2-0.2,0.2L0.3,20
		c-0.1,0.1-0.1,0.2-0.2,0.3c0,0,0,0.1-0.1,0.1c0,0.1,0,0.1,0,0.2c0,0-0.1,0.2-0.1,0.2l0,0.3v74.1c0.1,8.5,1.9,16.6,5.4,23.9
		c0,0,0.2,0.4,0.2,0.5c0.8,1.6,1.6,3.2,2.5,4.7l0.2,0.4c0.4,0.6,0.7,1.2,1.1,1.8l0.3,0.5c0.4,0.6,0.7,1.1,1.1,1.7l0.5,0.8
		c0.3,0.5,0.6,0.9,1,1.4c0.1,0.1,0.7,0.9,0.7,0.9c0.3,0.4,0.6,0.8,0.9,1.2c0.1,0.1,0.7,0.9,0.7,0.9c0.3,0.4,0.6,0.7,0.9,1.1
		c0.1,0.2,0.3,0.3,0.4,0.5l0.6,0.6c0.2,0.3,0.5,0.5,0.7,0.8c0.2,0.2,1.1,1.1,1.1,1.2c0.2,0.2,0.5,0.5,0.7,0.7
		c0.2,0.2,0.4,0.3,0.5,0.5l0.6,0.6c0.2,0.2,0.4,0.5,0.7,0.7c0.2,0.2,1.2,1.1,1.2,1.1c0.2,0.2,0.5,0.5,0.7,0.7c0.2,0.2,1.2,1,1.2,1
		c0.2,0.2,0.5,0.4,0.8,0.7c0.2,0.2,1.2,1,1.2,1c0.2,0.2,0.5,0.4,0.8,0.6c0.2,0.2,1.2,1,1.2,1c0.2,0.2,0.5,0.4,0.8,0.6
		c0.2,0.2,1,0.8,1,0.8s0.8,0.6,1,0.8c0.3,0.2,0.5,0.4,0.8,0.5c0,0,1.1,0.8,1.3,1c0.3,0.2,1.9,1.3,2.1,1.5c0.3,0.2,0.6,0.4,0.9,0.6
		c0,0,1.1,0.7,1.3,0.8c0.3,0.2,2.2,1.4,2.2,1.4c0.3,0.2,2.2,1.3,2.2,1.3c0.4,0.2,0.7,0.4,1.1,0.6l1.1,0.7c0.4,0.2,0.8,0.4,1.2,0.7
		l1,0.6c0.5,0.3,1.1,0.6,1.6,0.9l0.6,0.3c0.5,0.3,1,0.5,1.6,0.8l0.7,0.4c0.5,0.3,1,0.5,1.5,0.8l0.7,0.3c0.5,0.3,1.1,0.5,1.6,0.8
		l0.6,0.3c0.5,0.2,1.1,0.5,1.6,0.8l0.6,0.3c0.6,0.3,1.3,0.6,1.9,0.9c0,0,1.6,0.7,2.2,1l0.3,0.1c0.6,0.3,1.3,0.6,1.9,0.8
		c0,0,1.7,0.7,2.4,1l1.7,0.7l0.4,0.2c0,0,0.1,0,0.2,0.1c0.1,0.1,0.3,0.1,0.4,0.1l0.1,0c0.1,0,0.1,0,0.2,0h0.1c0,0,0.1,0,0.1,0
		c0,0,0.1,0,0.1,0c0.1,0,0.3-0.1,0.4-0.1c0.7-0.3,1.5-0.6,2.3-0.9c0.7-0.3,1.4-0.6,2.1-0.9l2.4-1c0.7-0.3,1.3-0.6,2-0.9l0.3-0.1
		c0.6-0.3,1.3-0.6,1.9-0.9l0.5-0.2c0.6-0.3,1.1-0.5,1.7-0.8l0.7-0.4c0.5-0.2,1-0.5,1.5-0.7l0.7-0.3c0.5-0.2,1-0.5,1.5-0.8l0.7-0.4
		c0.5-0.3,1-0.5,1.6-0.8l0.6-0.3c0.5-0.3,1.1-0.6,1.6-0.9l1.1-0.6c0.4-0.2,0.8-0.4,1.2-0.7l1.1-0.7c0.3-0.2,0.7-0.4,1-0.6l0.9-0.5
		c0,0,1-0.6,1.3-0.8l1.2-0.8c0.3-0.2,0.6-0.4,0.9-0.6c0.2-0.1,1.8-1.2,2.1-1.4l1.3-0.9c0.3-0.2,0.6-0.4,0.9-0.6l1.3-1
		c0.3-0.2,0.5-0.4,0.8-0.5c0.2-0.2,1-0.8,1-0.8s0.8-0.6,1-0.8c0.2-0.2,1.8-1.4,2-1.6c0.2-0.2,1.8-1.5,2-1.7c0.2-0.2,0.5-0.4,0.7-0.7
		c0,0,1-0.9,1.2-1.1c0.2-0.2,0.5-0.4,0.7-0.7l0.3-0.3c0,0,0.7-0.6,0.8-0.8c0.2-0.2,0.4-0.4,0.6-0.6l0.4-0.4c0,0,0.7-0.7,0.8-0.8
		c0.2-0.2,0.4-0.5,0.7-0.7c0,0,0.9-1,1.1-1.1c0.2-0.2,0.4-0.5,0.7-0.8l0.3-0.3c0,0,0.6-0.6,0.7-0.8c0.2-0.3,0.5-0.6,0.8-0.9l0.5-0.6
		c0.1-0.2,0.3-0.3,0.4-0.5c0.3-0.3,0.5-0.7,0.8-1.1l0.4-0.5c0.1-0.2,0.2-0.3,0.3-0.4c0.3-0.4,0.6-0.8,0.8-1.1c0,0,0.6-0.8,0.7-1
		c0.3-0.4,0.6-0.8,0.8-1.2c0,0,0.5-0.8,0.6-0.9c0.3-0.4,0.5-0.8,0.8-1.2c0,0,0.5-0.9,0.6-1c0.9-1.5,1.7-3.1,2.5-4.7l0.1-0.3
		c3.5-7.4,5.4-15.6,5.5-24.2V21.1C137.3,21.1,137.3,20.9,137.3,20.9z M133,95.2c-0.1,8-1.9,15.6-5.2,22.5c0,0-0.1,0.1-0.1,0.1
		c-11.7,24.3-37.5,37.6-58.8,46.5c-0.1,0-0.2,0.1-0.4,0.1c-0.1,0-0.3,0-0.4-0.1c-21.2-8.9-47.1-22.2-58.8-46.5l-0.1-0.3
		c-3.2-6.8-4.9-14.3-5.1-22.3V23.5c0-0.4,0.3-0.8,0.7-1L68.4,4.5c0.1,0,0.2,0,0.3,0c0.1,0,0.2,0,0.3,0l63.3,18.1
		c0.4,0.1,0.7,0.5,0.7,1V95.2z"/>
</g>
</svg>
