<?xml version="1.0" encoding="utf-8"?>
<!-- Generator: Adobe Illustrator 24.3.0, SVG Export Plug-In . SVG Version: 6.00 Build 0)  -->
<svg version="1.1" id="Layer_1" xmlns="http://www.w3.org/2000/svg" xmlns:xlink="http://www.w3.org/1999/xlink" x="0px" y="0px"
	 width="136.3px" height="133.6px" viewBox="0 0 136.3 133.6" style="enable-background:new 0 0 136.3 133.6;" xml:space="preserve"
	>
<style type="text/css">
	.st0{fill:#185AE9;}
	.st1{fill:#00B0FB;}
	.st2{fill:#00B0FB;fill-opacity:0.4;}
	.st3{fill:#FFFFFF;}
</style>
<g>
	<path class="st1" d="M28.3,57.9h3v-0.8H20C12.9,60.3,8.1,67.4,8.1,75.6c0,6.8,3.4,13,9,16.8c0.2,0.1,0.4,0.4,0.3,0.7
		c-0.1,0.3-0.3,0.5-0.5,0.5C7.7,95.6,1,104,1,113.4c0,8.6,5.4,15.9,12.9,18.8v-0.4h13.5V131h-6.2c-9.7,0-17.6-7.9-17.6-17.6
		c0-9.7,7.9-17.6,17.6-17.6h10.1v-2.6h-3c-9.7,0-17.6-7.9-17.6-17.6C10.7,65.8,18.6,57.9,28.3,57.9z"/>
	<path class="st1" d="M100.9,29.9c0-0.8-0.6-1.5-1.4-1.7c-11.5-2.1-23.2-3.1-34.8-3.1c-11.6,0-23.3,1-34.7,3.1
		c-0.8,0.1-1.4,0.9-1.4,1.7v13.7c0,0.4,0.3,0.7,0.7,0.7h70.9c0.4,0,0.7-0.3,0.7-0.7V29.9z"/>
	<path class="st1" d="M25.9,29.9c0-2.1,1.5-3.9,3.6-4.3c11.6-2.1,23.5-3.1,35.2-3.1s23.6,1.1,35.2,3.1c2.1,0.4,3.6,2.2,3.6,4.3v0.6
		c0,0.2,0.1,0.4,0.3,0.6c0.1,0.1,0.3,0.1,0.4,0.1c0.1,0,0.2,0,0.2,0l19.5-6.8c0.4-0.1,0.6-0.4,0.6-0.9c0-0.4-0.2-0.7-0.6-0.9
		L67.3,3.1c-0.8-0.3-1.7-0.4-2.5-0.4S63,2.8,62.2,3.1L5.5,22.7c-0.4,0.1-0.6,0.5-0.6,0.9c0,0.4,0.2,0.7,0.6,0.9L25,31.2
		c0.1,0,0.2,0,0.2,0c0.1,0,0.3,0,0.4-0.1c0.2-0.1,0.3-0.3,0.3-0.6V29.9z"/>
	<path class="st2" d="M100.2,47H29.3c-0.4,0-0.7,0.3-0.7,0.7v6.9c0,0.4,0.3,0.7,0.7,0.7h70.9c0.4,0,0.7-0.3,0.7-0.7v-6.9
		C100.9,47.3,100.6,47,100.2,47z"/>
	<path class="st2" d="M113,66.8c-0.1-0.2-0.3-0.3-0.6-0.3H51.1c-0.4,0-0.7,0.3-0.7,0.7v11.2c0,0.4-0.2,0.8-0.6,1.1
		c-0.2,0.1-0.5,0.2-0.7,0.2c-0.2,0-0.3,0-0.5-0.1l-5.4-2.1c-0.1,0-0.2,0-0.3,0s-0.2,0-0.3,0l-5.4,2.1c-0.2,0.1-0.3,0.1-0.5,0.1
		c-0.3,0-0.5-0.1-0.7-0.2c-0.4-0.2-0.6-0.7-0.6-1.1V67.2c0-0.4-0.3-0.7-0.7-0.7h-7.4c-5,0-9.1,4.1-9.1,9.1c0,5,4.1,9.1,9.1,9.1h85.1
		c0.2,0,0.4-0.1,0.6-0.3c0.1-0.2,0.2-0.4,0.1-0.6c-1.7-5.3-1.7-11,0-16.3C113.2,67.2,113.1,66.9,113,66.8z"/>
	<path class="st2" d="M83.8,104.3H20.2c-5,0-9.1,4.1-9.1,9.1c0,5,4.1,9.1,9.1,9.1h99.5c0.2,0,0.4-0.1,0.6-0.3
		c0.1-0.2,0.2-0.4,0.1-0.6c-1.7-5.3-1.8-11,0-16.3c0.1-0.2,0-0.4-0.1-0.6c-0.1-0.2-0.3-0.3-0.6-0.3h-19.5c-0.4,0-0.7,0.3-0.7,0.7
		v11.3c0,0.4-0.2,0.8-0.6,1.1c-0.2,0.2-0.5,0.2-0.7,0.2c-0.2,0-0.3,0-0.5-0.1l-5.4-2.1c-0.1,0-0.2,0-0.3,0s-0.2,0-0.3,0l-5.4,2.1
		c-0.2,0.1-0.3,0.1-0.5,0.1c-0.3,0-0.5-0.1-0.7-0.2c-0.4-0.2-0.6-0.7-0.6-1.1V105C84.5,104.6,84.2,104.3,83.8,104.3z"/>
	<path d="M135.9,62.4l-4.5-11c-0.1-0.2-0.1-0.5,0.1-0.7c1.2-1.3,1.8-3.1,1.8-4.8c0-3.4-2.3-6.4-5.6-7.2c-0.3-0.1-0.5-0.3-0.5-0.7
		v-14l0-0.1c0,0,0-0.3,0-0.3c0-1.5-0.9-2.8-2.4-3.3L68.1,0.6C67,0.2,65.9,0,64.7,0c-1.2,0-2.3,0.2-3.4,0.6L4.6,20.2
		c-1.4,0.5-2.4,1.8-2.4,3.3s0.9,2.8,2.4,3.3l20.8,7.2c0.3,0.1,0.5,0.4,0.5,0.7v20c0,0.4-0.3,0.7-0.6,0.7c-10.4,1-18.2,9.7-18.2,20.1
		c0,6.8,3.4,13,9,16.8c0.2,0.1,0.4,0.4,0.3,0.7c-0.1,0.3-0.3,0.5-0.5,0.5C6.7,95.6,0,104,0,113.4c0,11.2,9.1,20.2,20.2,20.2h103.7
		c3.1,0,5.6-2.5,5.6-5.6c0-3-2.5-5.5-5.5-5.6c-0.3,0-0.5-0.2-0.6-0.4c-2.2-5.6-2.2-11.7-0.1-17.2c0.1-0.3,0.4-0.5,0.7-0.5
		c3,0,5.5-2.5,5.5-5.6c0-3.1-2.5-5.6-5.6-5.6h-1.2c-0.2,0-0.4-0.1-0.6-0.3c-0.1-0.2-0.1-0.4-0.1-0.7c0.2-0.6,0.4-1.3,0.4-2
		c0-3.1-2.5-5.6-5.6-5.6c-0.3,0-0.6-0.2-0.7-0.5c-2-5.2-2.2-10.8-0.4-16.1c0.1-0.2,0.3-0.4,0.5-0.5c0,0,0.1,0,0.2,0
		c0.2,0,0.4,0.1,0.5,0.2c0.9,1,2.3,1.6,3.7,1.6h10.8c1.7,0,3.2-0.8,4.1-2.2C136.3,65.8,136.5,64,135.9,62.4z M125.9,41
		c2.6,0,4.8,2.2,4.8,4.8c0,2.7-2.2,4.8-4.8,4.8s-4.8-2.2-4.8-4.8C121.1,43.2,123.3,41,125.9,41z M120.3,50.7
		c0.2,0.2,0.2,0.5,0.1,0.7l-1.4,3.5c-0.1,0.3-0.4,0.4-0.7,0.4h-14.1c-0.4,0-0.7-0.3-0.7-0.7V34.8c0-0.3,0.2-0.6,0.5-0.7l19.7-6.8
		c0.1,0,0.1,0,0.2,0c0.2,0,0.3,0.1,0.4,0.1c0.2,0.1,0.3,0.4,0.3,0.6v10c0,0.3-0.2,0.6-0.5,0.7c-3.3,0.9-5.6,3.8-5.6,7.2
		C118.5,47.6,119.1,49.3,120.3,50.7z M25.7,31.1c-0.1,0.1-0.3,0.1-0.4,0.1c-0.1,0-0.2,0-0.2,0L5.5,24.4c-0.4-0.1-0.6-0.4-0.6-0.9
		c0-0.4,0.2-0.7,0.6-0.9L62.2,3.1c0.8-0.3,1.7-0.4,2.5-0.4s1.7,0.1,2.5,0.4L124,22.7c0.4,0.1,0.6,0.4,0.6,0.9c0,0.4-0.2,0.7-0.6,0.8
		l-19.5,6.8c-0.1,0-0.2,0-0.2,0c-0.2,0-0.3,0-0.4-0.1c-0.2-0.1-0.3-0.3-0.3-0.6v-0.6c0-2.1-1.5-3.9-3.6-4.3
		c-11.6-2.1-23.5-3.1-35.2-3.1c-11.7,0-23.6,1.1-35.2,3.1C27.5,26,26,27.8,26,29.9v0.6C26,30.7,25.8,30.9,25.7,31.1z M100.2,44.3
		H29.3c-0.4,0-0.7-0.3-0.7-0.7V29.9c0-0.8,0.6-1.5,1.4-1.7c11.5-2.1,23.2-3.1,34.8-3.1c11.6,0,23.3,1,34.8,3.1
		c0.8,0.1,1.4,0.8,1.4,1.7v13.7C100.9,44,100.6,44.3,100.2,44.3z M100.9,47.7v6.9c0,0.4-0.3,0.7-0.7,0.7H29.3
		c-0.4,0-0.7-0.3-0.7-0.7v-6.9c0-0.4,0.3-0.7,0.7-0.7h70.9C100.6,47,100.9,47.3,100.9,47.7z M123.9,95.8c1.6,0,2.9,1.3,2.9,2.9
		c0,1.6-1.3,2.9-2.9,2.9H20.2c-6.5,0-11.7,5.2-11.7,11.7c0,6.5,5.2,11.7,11.7,11.7h103.7c1.6,0,2.9,1.3,2.9,2.9
		c0,1.6-1.3,2.9-2.9,2.9H20.2c-9.7,0-17.6-7.9-17.6-17.6c0-9.7,7.9-17.6,17.6-17.6H123.9z M85.1,117.4c0.2,0.2,0.5,0.2,0.7,0.2
		c0.2,0,0.3,0,0.5-0.1l5.4-2.1c0.1,0,0.2,0,0.3,0s0.2,0,0.3,0l5.4,2.1c0.2,0.1,0.3,0.1,0.5,0.1c0.3,0,0.5-0.1,0.7-0.2
		c0.4-0.2,0.6-0.6,0.6-1.1V105c0-0.4,0.3-0.7,0.7-0.7h19.5c0.2,0,0.4,0.1,0.6,0.3c0.1,0.2,0.2,0.4,0.1,0.6c-1.7,5.3-1.7,11,0,16.3
		c0.1,0.2,0,0.4-0.1,0.6c-0.1,0.2-0.3,0.3-0.6,0.3H20.2c-5,0-9.1-4.1-9.1-9.1c0-5,4.1-9.1,9.1-9.1h63.6c0.4,0,0.7,0.3,0.7,0.7v11.3
		C84.5,116.8,84.8,117.2,85.1,117.4z M87.2,113.4V105c0-0.4,0.3-0.7,0.7-0.7h8.3c0.4,0,0.7,0.3,0.7,0.7v8.4c0,0.2-0.1,0.4-0.3,0.6
		c-0.1,0.1-0.2,0.1-0.4,0.1c-0.1,0-0.2,0-0.2,0l-3.4-1.3c-0.2-0.1-0.3-0.1-0.5-0.1s-0.3,0-0.5,0.1l-3.4,1.3c-0.1,0-0.2,0-0.2,0
		c-0.1,0-0.3,0-0.4-0.1C87.3,113.8,87.2,113.6,87.2,113.4z M117.3,58.9l-1.4,3.5c-0.1,0.3-0.2,0.6-0.3,0.8c-0.1,0.3-0.4,0.6-0.7,0.6
		H27.3c-6.4,0-11.7,5.2-11.7,11.7c0,6.4,5.2,11.7,11.7,11.7h89.5c1.6,0,2.9,1.3,2.9,2.9c0,1.6-1.3,2.9-3,2.9H27.3
		c-9.7,0-17.6-7.9-17.6-17.6c0-9.7,7.9-17.6,17.6-17.6h89.3c0.2,0,0.4,0.1,0.6,0.3C117.4,58.4,117.4,58.7,117.3,58.9z M113.1,83.7
		c0.1,0.2,0,0.4-0.1,0.6c-0.1,0.2-0.3,0.3-0.6,0.3H27.3c-5,0-9.1-4.1-9.1-9.1c0-5,4.1-9.1,9.1-9.1h7.4c0.4,0,0.7,0.3,0.7,0.7v11.2
		c0,0.4,0.2,0.8,0.6,1.1c0.2,0.1,0.5,0.2,0.7,0.2c0.2,0,0.3,0,0.5-0.1l5.4-2.1c0.1,0,0.2,0,0.3,0c0.1,0,0.2,0,0.2,0l5.4,2.1
		c0.2,0.1,0.3,0.1,0.5,0.1c0.3,0,0.5-0.1,0.7-0.2c0.4-0.2,0.6-0.7,0.6-1.1V67.2c0-0.4,0.3-0.7,0.7-0.7h61.3c0.2,0,0.4,0.1,0.6,0.3
		c0.1,0.2,0.2,0.4,0.1,0.6C111.4,72.7,111.4,78.4,113.1,83.7z M38,75.4v-8.2c0-0.4,0.3-0.7,0.7-0.7h8.3c0.4,0,0.7,0.3,0.7,0.7v8.2
		c0,0.2-0.1,0.4-0.3,0.6c-0.1,0.1-0.3,0.1-0.4,0.1c-0.1,0-0.2,0-0.2-0.1l-3.4-1.3c-0.2-0.1-0.3-0.1-0.5-0.1c-0.2,0-0.3,0-0.5,0.1
		L39,76.1c-0.1,0-0.2,0.1-0.3,0.1c-0.1,0-0.3,0-0.4-0.1C38.2,75.9,38,75.7,38,75.4z M133.2,65.7c-0.2,0.3-0.8,1.1-2,1.1h-10.8
		c-1.1,0-1.7-0.7-2-1.1c-0.4-0.7-0.5-1.5-0.2-2.2l4.1-10.2c0.1-0.3,0.4-0.4,0.6-0.4c0.1,0,0.2,0,0.2,0c0.8,0.3,1.7,0.5,2.6,0.5
		s1.7-0.2,2.6-0.5c0.1,0,0.2,0,0.2,0c0.3,0,0.5,0.2,0.6,0.4l4.1,10.2C133.8,64.2,133.7,65,133.2,65.7z"/>
</g>
</svg>
