<svg width="359" height="343" viewBox="0 0 359 343" fill="none" xmlns="http://www.w3.org/2000/svg">
<path opacity="0.05" d="M243.285 154.714C261.014 157.773 276.054 161.965 288.825 170.94C297.321 176.911 302.095 173.852 307.53 167.517C322.538 150.023 322.457 124.232 307.207 108.246C299.561 100.065 289.098 95.0812 277.919 94.295C266.74 93.5088 255.672 96.9784 246.936 104.007C238.199 111.036 232.441 121.105 230.816 132.192C229.191 143.279 231.82 154.565 238.176 163.785C242.498 170.301 248.198 175.967 252.04 182.724C270.257 214.761 262.58 266.492 217.794 281.927C209.452 284.965 200.385 285.388 191.804 283.14C189.253 282.461 187.765 281.389 186.993 285.753C179.039 330.687 136.855 353.898 94.5153 336.82C80.9954 331.704 69.2326 322.816 60.6229 311.211C49.7494 296.268 37.9542 281.987 27.3521 266.862C22.8305 260.412 19.4837 260.528 14.3434 265.472C11.0968 268.252 7.70584 270.859 4.18473 273.281C3.07381 262.928 2.13842 253.459 1.00288 244.017C0.577606 240.48 2.93508 239.024 5.20887 237.306C14.0371 230.636 23.0292 224.162 31.5776 217.15C36.0033 213.519 38.1347 214.714 41.1755 218.78C59.3751 243.114 77.8077 267.275 96.2197 291.449C106.544 305.005 123.918 307.787 136.851 298.075C150.133 288.1 151.605 273.122 140.573 258.369C130.818 245.323 120.894 232.403 111.044 219.427C101.389 206.708 91.7337 193.988 80.9281 179.753C96.5584 178.407 111.022 177.118 125.495 175.946C129.072 175.657 129.93 179.047 131.537 181.146C145.248 199.056 158.802 217.086 172.506 235.002C177.139 241.006 183.95 244.947 191.469 245.975C198.989 247.003 206.615 245.036 212.704 240.498C225.762 230.646 227.87 215.318 216.962 201.715C202.999 184.302 192.03 165.847 190.946 142.779C189.119 103.933 215.588 62.3299 267.03 55.0184C259.985 45.7379 253.544 36.8134 246.599 28.2993C243.426 24.4104 243.782 22.3086 247.88 19.4699C255.197 14.4841 262.248 9.11972 269.004 3.39868C273.739 -0.673614 275.97 0.728033 279.257 5.12247C300.086 32.967 321.763 60.1929 342.066 88.4104C360.63 114.21 363.746 142.834 350.475 172.16C337.539 200.746 314.742 216.895 283.518 221.163C277.316 222.011 274.954 220.979 274.679 213.874C274.42 200.947 269.774 188.498 261.502 178.569C255.569 171.505 250.267 163.912 243.285 154.714Z" fill="white"/>
</svg>
