<?xml version="1.0" encoding="utf-8"?>
<!-- Generator: Adobe Illustrator 24.3.0, SVG Export Plug-In . SVG Version: 6.00 Build 0)  -->
<svg version="1.1" id="Layer_1" xmlns="http://www.w3.org/2000/svg" xmlns:xlink="http://www.w3.org/1999/xlink" x="0px" y="0px"
	 width="598.4px" height="360.8px" viewBox="0 0 598.4 360.8" style="enable-background:new 0 0 598.4 360.8;" xml:space="preserve"
	>
<style type="text/css">
	.st0{fill:url(#SVGID_1_);}
	.st1{fill:#FFFFFF;}
</style>
<g>
	<linearGradient id="SVGID_1_" gradientUnits="userSpaceOnUse" x1="205.7806" y1="-111.9475" x2="379.7715" y2="337.0165">
		<stop  offset="0.1899" style="stop-color:#7A7A7A"/>
		<stop  offset="0.2619" style="stop-color:#7C7C7C"/>
		<stop  offset="0.2879" style="stop-color:#828383"/>
		<stop  offset="0.3064" style="stop-color:#8D8E8E"/>
		<stop  offset="0.3212" style="stop-color:#9D9F9F"/>
		<stop  offset="0.3319" style="stop-color:#AEB0B1"/>
		<stop  offset="0.5052" style="stop-color:#E0E0E0"/>
		<stop  offset="0.905" style="stop-color:#BFBFBF"/>
	</linearGradient>
	<path class="st0" d="M593.5,63.8c-7.5,24.4-22.7,47.9-46.9,58.2c-12.5,5.4-25.7,6.7-39.1,6.6c-20.7-0.1-75.3,8.7-95.5,13.1
		c-6.2,1.3-6.9,2.8-3.9,8.1c12.8,22.4,11.5,44.8,0.3,67.3c-5.8,11.7-14.5,21.1-23.6,30.1c-3.2,3.2-5.3,6.6-4.5,11.5
		c2.9,17.7,0.1,34.9-6.2,51.5c-10.7,28.2-30.2,45.8-60.9,49.3c-14.8,1.7-28.8-2.3-42.2-8.1c-6.4-2.8-12.4-2.8-18.7,0.2
		c-12.7,5.9-26.2,9.1-40.2,9.2c-27,0.2-54.3-4.3-78.3-17.1c-11.6-6.2-21.6-14.1-31.1-23.1c-7.8-7.4-13.2-20.1-23.5-24.4
		c-4.5-1.9-9.7-1.8-14.6-2.3c-27-2.7-49.8-24.1-59-49.6c-2-5.4-3.4-10.9-4.3-16.5c-3.5-20.9-0.2-43,6.8-63.1
		C16,142.6,28.4,122,45.4,106c17.1-16,38.9-27.2,62.2-29.9c8-0.9,16.3-0.9,23.7-4.1c8-3.4,13.8-10.1,21-14.8c7.7-5,16-9.4,24.3-13.2
		c32.8-15.1,67.5-19.8,103.2-18.8c19,0.5,37.9,1.9,56.9,2.8c43.2,2.1,86.2-0.6,128.8-8.1c19-3.3,71.7-15.3,90.6-19.2
		c8-1.6,16.8-0.3,24,3.4c6.8,3.6,12.4,9.5,15.2,16.6c1,2.4,1.6,4.9,2.1,7.5C599.9,39.9,596.9,52.5,593.5,63.8z"/>
	<path class="st1" d="M597.5,28.2c-0.5-2.5-1.2-5.1-2.1-7.5c-2.9-7.1-8.5-13-15.2-16.6c-7.2-3.8-16-5.1-24-3.4
		c-18.9,3.9-71.6,15.8-90.6,19.2c-42.6,7.5-85.6,10.2-128.8,8.1c-19-0.9-37.9-2.3-56.9-2.8c-35.7-1-70.4,3.7-103.2,18.8
		c-8.3,3.8-16.7,8.2-24.3,13.2c-7.2,4.7-13,11.3-21,14.8c-7.4,3.2-15.7,3.2-23.7,4.1C84.3,78.8,62.5,90,45.4,106
		c-17,16-29.4,36.6-37.2,58.7c-7.1,20.2-10.3,42.2-6.8,63.1c0.9,5.6,2.3,11.1,4.3,16.5c9.2,25.5,32,46.9,59,49.6
		c4.9,0.5,10,0.4,14.6,2.3c10.3,4.3,15.6,17,23.5,24.4c9.5,9,19.5,17,31.1,23.1c24,12.8,51.4,17.3,78.3,17.1
		c13.9-0.1,27.5-3.3,40.2-9.2c6.3-2.9,12.3-2.9,18.7-0.2c13.4,5.8,27.4,9.8,42.2,8.1c30.7-3.5,50.1-21.2,60.9-49.3
		c6.3-16.6,9.1-33.7,6.2-51.5c-0.8-4.9,1.2-8.3,4.5-11.5c9.1-9,17.8-18.5,23.6-30.1c11.2-22.5,12.4-44.9-0.3-67.3
		c-3-5.2-2.3-6.8,3.9-8.1c20.3-4.4,74.8-13.2,95.5-13.1c13.4,0.1,26.6-1.2,39.1-6.6c24.2-10.4,39.3-33.8,46.9-58.2
		C596.9,52.5,599.9,39.9,597.5,28.2z M460.7,118.2c-22.2,2.8-45.1,5.6-59.4,6.8c-0.6,0.1-1.1,0.1-1.7,0.1c-3.7,0-7-1.1-10.7-3.6
		c-9.4-6.3-18-11.5-26.2-15.9c-3.9-2.1-8-3.1-11.9-4.1c-2.2-0.6-4.2-1.1-6.1-1.8c-0.8-0.3-1.6-0.4-2.4-0.4c-2.7,0-5.3,1.6-6.5,4.3
		c-1.2,2.9-0.3,6.2,2.1,8.2c0.6,0.7,1.7,2,3.5,2.7c16.7,7.1,30.8,17.5,41.9,31c22.8,27.5,20.3,60.7-6.2,84.5c-0.5,0.4-0.8,0.7-1.2,1
		c-0.2-0.4-0.5-0.9-0.8-1.5c-6.1-11.7-14.9-20.8-26.2-27.1c-1.1-0.6-2.3-0.9-3.4-0.9c-1.7,0-3.4,0.6-4.8,1.9
		c-2.2,2.1-2.9,5.3-1.6,8.1c0.9,2,2,3.6,3,5.1c0.3,0.5,0.7,1,1,1.5c17.9,28.2,22.9,55,15.2,81.9c-4.9,17.1-13,27.8-25.4,33.9
		c-7.6,3.7-15.6,5.5-24.3,5.5c-5.5,0-11.3-0.7-17.5-2.2c0-0.1,0.1-0.1,0.2-0.2c3.6-4.8,7.6-6.9,12.9-6.9c0.4,0,0.9,0,1.3,0
		c0.4,0,0.9,0,1.3,0c7,0,13.3-3.4,17.5-9.4c1.5-2.1,1.6-4.9,0.4-7.2c-1.2-2.3-3.6-3.7-6.2-3.7c-2,0-3.9,0.1-5.8,0.1
		c-1.8,0.1-3.5,0.2-5.2,0.2c-2.2,0-4-0.1-5.6-0.4c-2.4-0.4-4.8-0.6-7.1-0.6c-7.4,0-14.3,2-21.1,6.2c-6.8,4.2-14.7,9-22.8,12.9
		c-16,7.8-34,11.9-51.9,11.9c-33.5,0-64.8-13.8-85.9-37.8c-24.8-28.3-36-62.9-34.1-105.9c0.3-5.9,1-11.8,1.8-18
		c0.4-2.9,0.8-5.8,1.1-8.8c0.3-2.9-1.1-5.7-3.7-7c-1-0.5-2.1-0.8-3.2-0.8c-1.7,0-3.3,0.6-4.6,1.7l-0.1,0.1c-0.6,0.4-1.8,1.3-2.6,3
		c-0.7,1.4-1.4,2.7-1.9,4.4c-4.6,14.9-7.2,29.9-7.5,44.6c-0.4,17.5,2,35.7,7.4,57.2c-26.3-7.9-40.9-24.7-46.1-52.9
		c-5.5-29.7,2.8-62.8,22.2-88.6c16.3-21.7,38.3-35.7,62.6-39.9c-0.6,1-1.2,2-1.9,3.1c-0.8,1.3-1.7,2.7-2.6,4.2
		c-1.5,2.4-1.3,5.5,0.4,7.8c1.3,1.8,3.4,2.8,5.6,2.8c0.5,0,1.1-0.1,1.7-0.2c0.8-0.2,1.3-0.3,1.7-0.4c1-0.2,2.5-0.5,4-1.8
		c0,0,0,0,0.1-0.1c3.4-3,6.6-5.9,9.7-8.8c39.1-35.6,85.8-53.6,138.8-53.6c7.7,0,15.6,0.4,23.6,1.1c2.6,0.2,5.2,0.5,7.8,0.7
		c15.8,1.5,32.2,3,48.4,3.4c2,0,4,0.1,6.1,0.1c49.4,0,122.7-13,181-24.4l1.9-0.4c9.9-1.9,19.2-3.8,28.6-3.8c3.2,0,6.2,0.2,9.2,0.6
		c10.9,1.6,15.8,7.2,15.6,17.6c-0.2,7.2-1.5,14.6-2.9,21.5c-5.3,26-29.9,48-56.2,50.1C509.5,112.2,484.7,115.2,460.7,118.2z"/>
	<path d="M597.5,28.2c-0.5-2.5-1.2-5.1-2.1-7.5c-2.9-7.1-8.5-13-15.2-16.6c-7.2-3.8-16-5.1-24-3.4c-18.9,3.9-71.6,15.8-90.6,19.2
		c-42.6,7.5-85.6,10.2-128.8,8.1c-19-0.9-37.9-2.3-56.9-2.8c-35.7-1-70.4,3.7-103.2,18.8c-8.3,3.8-16.7,8.2-24.3,13.2
		c-7.2,4.7-13,11.3-21,14.8c-7.4,3.2-15.7,3.2-23.7,4.1C84.3,78.8,62.5,90,45.4,106c-17,16-29.4,36.6-37.2,58.7
		c-7.1,20.2-10.3,42.2-6.8,63.1c0.9,5.6,2.3,11.1,4.3,16.5c9.2,25.5,32,46.9,59,49.6c4.9,0.5,10,0.4,14.6,2.3
		c10.3,4.3,15.6,17,23.5,24.4c9.5,9,19.5,17,31.1,23.1c24,12.8,51.4,17.3,78.3,17.1c13.9-0.1,27.5-3.3,40.2-9.2
		c6.3-2.9,12.3-2.9,18.7-0.2c13.4,5.8,27.4,9.8,42.2,8.1c30.7-3.5,50.1-21.2,60.9-49.3c6.3-16.6,9.1-33.7,6.2-51.5
		c-0.8-4.9,1.2-8.3,4.5-11.5c9.1-9,17.8-18.5,23.6-30.1c11.2-22.5,12.4-44.9-0.3-67.3c-3-5.2-2.3-6.8,3.9-8.1
		c20.3-4.4,74.8-13.2,95.5-13.1c13.4,0.1,26.6-1.2,39.1-6.6c24.2-10.4,39.3-33.8,46.9-58.2C596.9,52.5,599.9,39.9,597.5,28.2z
		 M588.1,62.3c-5.9,29.3-33.2,53.4-62.5,55.7c-29.9,2.3-93.8,11.6-123.7,14c-6.3,0.5-11.6-1.2-16.9-4.7
		c-8.3-5.5-16.8-10.8-25.6-15.5c-5.2-2.8-11.4-3.5-17-5.5c0.7,0.3,1.1,1.4,1.8,1.7c17.5,7.4,32.4,18.3,44.6,32.9
		c25,30.2,22.3,68-6.9,94.2c-6.7,6-8.7,5.6-12.9-2.5c-5.4-10.3-13.2-18.5-23.4-24.2c1,2.1,2.3,3.9,3.5,5.8
		c17.1,27,25.1,55.9,16,87.6c-4.7,16.3-13,30.4-29,38.2c-17.3,8.4-35.2,7.5-53.1,2c-1.4-0.4-2.6-1.6-3.6-2.2
		c2.4-2.7,4.5-4.8,6.3-7.2c5.1-6.7,11.5-10.1,20.2-9.6c5.4,0.3,9.8-2.4,12.6-6.4c-5.9,0-11.9,0.8-17.7-0.2c-8.6-1.4-16,0.1-23.3,4.6
		c-7.7,4.7-15.4,9.3-23.5,13.2c-49.5,24-110.4,13-146.1-27.6c-27.6-31.5-37.7-69.5-35.9-110.8c0.4-9,1.9-18.1,3-27.3
		c-0.5,0.4-1,0.7-1.2,1.1c-0.5,1-1.1,2.1-1.4,3.2c-4.3,13.9-6.8,28.1-7.2,42.7c-0.4,19.3,2.8,38.1,7.6,56.8c2,7.9,0.2,9.6-7.6,7.4
		c-29.9-8.5-46.9-27.9-52.5-58.8C1.5,159.9,44.8,90.1,109.9,83.4c1.8-0.2,3.7,0.4,5.6,0.6c-0.7,1.9-1.1,3.8-2.1,5.5
		c-2.1,3.9-4.5,7.7-7.5,12.6c2.2-0.5,2.6-0.5,2.8-0.7c3.2-2.9,6.5-5.8,9.7-8.7c47.7-43.5,104-60.2,167.7-54.3
		c18.6,1.7,37.2,3.7,55.8,4.2c51.3,1.2,135.5-14.5,185.6-24.2c13.9-2.7,27.7-5.7,42.1-3.5c14.1,2.1,21.9,10.4,21.5,24.7
		C590.9,47.1,589.6,54.8,588.1,62.3z"/>
	<path class="st1" d="M115.9,200.9c34.9,1.4,68.4,5.5,101.5,15.1C206.4,196.3,133.8,183.8,115.9,200.9z M134.1,147.9
		c32.8-9.8,65.7-10.3,99.2-7.2C210.8,121.6,144.7,124.8,134.1,147.9z M183,74.9c-8.2,4.1-15.4,10.3-22.9,15.8
		c-3.4,2.5-4.5,6-3.6,10.8c26.2-15,53.3-27.4,82.7-34C219.7,65.2,200.6,66.1,183,74.9z"/>
	<path d="M115.9,200.9c34.9,1.4,68.4,5.5,101.5,15.1C206.4,196.3,133.8,183.8,115.9,200.9z"/>
	<path d="M134.1,147.9c32.8-9.8,65.7-10.4,99.2-7.2C210.8,121.6,144.7,124.9,134.1,147.9z"/>
	<path d="M239.2,67.5c-19.5-2.3-38.6-1.4-56.2,7.5c-8.2,4.1-15.4,10.3-22.9,15.8c-3.4,2.5-4.4,6-3.6,10.8
		C182.7,86.6,209.8,74.1,239.2,67.5z"/>
</g>
</svg>
