<?xml version="1.0" encoding="utf-8"?>
<!-- Generator: Adobe Illustrator 24.3.0, SVG Export Plug-In . SVG Version: 6.00 Build 0)  -->
<svg version="1.1" id="Layer_1" xmlns="http://www.w3.org/2000/svg" xmlns:xlink="http://www.w3.org/1999/xlink" x="0px" y="0px"
	 viewBox="0 0 564.27 478" style="enable-background:new 0 0 564.27 478;" xml:space="preserve">
<style type="text/css">
	.st0{fill:#00B0FB;}
	.st1{fill:#FFFFFF;}
	.st2{fill:#00B0FB;fill-opacity:0.4;}
	.st3{fill:#0E0E0D;}
	.st4{fill:#8F8F90;}
	.st5{fill:#DBDBDB;}
	.st6{fill:#0D0D0C;}
	.st7{fill:#C7C7C7;}
	.st8{fill:#919091;}
	.st9{fill:#767776;}
	.st10{fill:#FAF7F9;}
	.st11{fill:#6F6F6F;}
	.st12{fill:#0C0C0C;}
	.st13{fill:#FAF6F8;}
	.st14{fill:#777777;}
</style>
<g>
	<path class="st12" d="M36.54,211.82c-0.26-0.19-0.45-0.04-0.54,0.26c-7.77,1.42-10.97-0.13-14.09-6.82c0,0-0.08,0.02-0.08,0.02
		c0.15-0.1,0.35-0.32,0.45-0.29c6.96,2.83,13-0.73,13.97-8.23c0.63-4.85-0.55-9.42-2.06-13.94c-1.17-3.5-2-7.02-2.36-10.72
		c-0.97-10.19,1.71-19.51,6.05-28.55c3.71-7.72,8.79-13.84,17.55-16.02c0.6-0.15,1.13-0.71,1.62-1.15
		c6.55-5.82,14.05-9.49,22.89-10.14c0.75-0.06,1.53-0.28,2.22-0.59c9.42-4.17,18.56-3.72,27.48,1.47c0.8,0.46,1.8,0.74,2.73,0.81
		c5.24,0.4,10.38,1.3,15.25,3.31c12.37,5.08,21.42,13.06,23.24,27.15c0.64,4.93,0.56,9.84-1.11,14.83
		c-0.84-0.93,0.07-2.27-1.19-2.71c-0.5,1.92-0.82,3.85-1.52,5.63c-0.59,1.5-0.98,2.44,1.22,2.58c0.79,0.05,1.84,0.43,1.86,1.53
		c0.07,5.54-0.08,11.07-3.5,15.81c-0.58,0.8-1.27,1.09-0.38,2.27c2.47,3.25,2.15,4.85-1.06,7.52c-0.65,0.53-1.47,0.83-1.53,1.93
		c-0.24,4.3-1.62,8.33-3.1,12.32c-0.22,0.58-0.9,1.3,0.01,1.75c2.15,1.08,4.67,2.54,6.8,1.52c2.56-1.23,5.13-1.5,7.77-1.93
		c0.96,0.48,1.88-0.12,2.83-0.13c2.46-0.03,2.58,1.86,3.02,3.52c0.48,1.81-0.7,2.57-2.07,2.84c-2.64,0.52-5.33,0.81-8.01,1.14
		c-0.64,0.08-1.55,0.22-1.85-0.48c-0.98-2.32-2.9-1.71-4.67-1.68c-1.18-0.36-2.49-0.52-3.52-1.14c-1.98-1.21-2.58-0.16-2.84,1.5
		c-0.21,1.33-0.21,2.7-0.31,4.05c-0.14,1.9-0.64,3.81-2.22,4.87c-1.97,1.32-1.47,2.57-0.79,4.32c2.7,6.93,0.9,12.48-5.26,16.65
		c-1.56,1.05-3.23,1.94-5.22,3.12c7.47,1.92,10.74,7.57,13.33,13.74c2.36,5.61,4.63,11.28,6.63,17.02c0.72,2.08,2.47,3.36,2.98,5.75
		c0.79,3.72,2.51,7.34,4.48,10.85c1.1-0.93,1.08-1.94,1.35-2.84c0.75-2.5,2.1-4.84,4.42-5.88c2.32-1.04,3.33-2.97,4.82-4.66
		c1.41-1.61,1.27-2.98,0.38-4.71c-1.85-3.58-3.53-7.25-5.32-10.86c-1.08-2.16-0.16-3.46,1.72-4.47c2.05-1.1,3.06,0.1,3.86,1.72
		c1.91,3.9,3.84,7.8,5.64,11.75c0.58,1.28,1.14,1.87,2.6,1.28c2-0.8,3.91-0.15,5.45,1.09c1.57,1.27,2.1,0.8,2.82-0.83
		c2.29-5.22,4.93-10.29,7.08-15.56c1.71-4.18,4.57-5.93,8.96-5.81c5.42,0.16,10.85,0.06,16.27,0.26c2.75,0.1,4.68-0.64,5.44-3.47
		c0.48-1.8,1.71-2.24,3.5-2.2c7.36,0.16,14.72,0.27,22.08,0.2c2.7-0.03,4.25,0.8,4.47,3.6c0.14,1.75,1.03,2.36,2.85,2.34
		c6.39-0.04,12.78,0.11,19.17,0.18c5.09,0.05,7.7,4.23,5.36,8.75c-5.63,10.91-11.32,21.79-16.96,32.69
		c-6.17,11.93-12.28,23.89-18.47,35.82c-0.67,1.29-0.75,1.96,0.7,2.89c11.85,7.57,22.9,16.17,33.46,25.45
		c14.94,13.14,28.6,27.48,41.15,42.9c6.64,8.15,12.38,16.84,15.37,27.06c2.54,8.68,0.06,15.74-7.44,20.72
		c-9.07,6.02-19.3,8.19-30.03,8.39c-22.18,0.41-43.93-2.57-65.48-7.77c-21.48-5.18-42.31-12.26-62.69-20.66
		c-15.99-6.6-31.38-14.52-46.23-23.43c-18.66-11.2-36.31-23.8-52.52-38.36c-14.49-13.01-26.95-27.76-37.45-44.14
		c-6.31-9.85-11.97-20.08-16.46-30.92c-1.09-2.63-1.65-5.5-3.38-7.85c-4.85-14.83-6.88-28.09,11.08-31c3.6,0.38,4.56-0.62,4.47-4.26
		c-0.07-3-1.56-5.28-3.44-7.45c-3.04-3.5-4.56-7.53-4.2-12.25c0.55-7.43,4.24-12.79,10.45-16.71c3.24-2.05,7.19-2.93,9.85-5.94
		C36.42,212.21,36.59,211.86,36.54,211.82z M137.19,131.34c-1.41-2.16-4.61-1.46-5.94-3.56c-1.48-2.33-4-2.63-6.17-3.57
		c-3.2-1.4-6.67-1.8-10.08-2.42c-0.91-0.17-1.71,0.02-2.59,0.53c4.84,2.55,9.14,5.96,14.65,7.06c-0.05,0.23-0.1,0.46-0.15,0.69
		c-1.7,0.14-3.41,0.28-5.11,0.43c-0.09,0.29-0.19,0.58-0.28,0.87c5.84,1.29,11.43,3.07,16.11,6.82c4.73,3.8,7.56,8.89,9.89,14.35
		c-0.35-5.54-1.46-10.68-6.36-14.29c-2.75-2.03-4.79-4.88-7.83-6.84C134.96,130.13,136.02,131.9,137.19,131.34
		c-0.03,0.42,0.24,0.54,0.59,0.57c0.09,0.12,0.18,0.24,0.28,0.36c0.26-0.42-0.03-0.37-0.29-0.35
		C137.81,131.51,137.53,131.39,137.19,131.34z M129.18,244.82c0.27-0.34,0.55-0.68,0.82-1.02c0.16-0.27,0.53-0.57,0.14-0.87
		c-0.43-0.32-0.53,0.16-0.69,0.41c-0.25,0.35-0.49,0.7-0.74,1.05c-0.17,0.21-0.34,0.42-0.51,0.62c-0.07,0.21-0.14,0.42-0.21,0.63
		c0.2-0.09,0.39-0.17,0.59-0.26C128.78,245.2,128.98,245.01,129.18,244.82z M50.45,133.51c-6.54,3.96-8.85,10.25-9.48,17.48
		c2.1-6.39,5.79-11.83,9.91-17.01c0.29-0.3,0.57-0.6,0.86-0.91c0.11-0.12,0.22-0.23,0.33-0.35c-0.35-0.1-0.51-0.04-0.32,0.35
		C51.14,132.7,50.79,133.08,50.45,133.51z M117.47,145.32c-3.29,4.96-8.18,7.83-13.32,10.47c-2.85,1.46-4.8,3.84-5.65,7.03
		c-0.48,1.8-0.15,2.48,2.01,2.49c7.26,0.01,14.5-0.63,21.77-0.32c4.14,0.18,8.04,0.94,11.72,2.85c0.85,0.44,1.76,0.85,2.68,1.09
		c2.78,0.7,4.67-0.61,4.98-3.4c0.62-5.61-0.29-11.02-2.41-16.2c-1.35-3.3-4.24-5.24-7.21-6.89c-2.86-1.59-5.88-2.88-9.1-4.43
		c-0.38,3.14-0.86,6.03-2.29,8.65c-1.42,2.61-3.51,4.54-6.18,6.25c0.03-3.06,3.33-4.66,2.93-7.64c0.6,0.26,0.45-0.3,0.59-0.55
		c1.56-1.68,0.95-3.74,0.9-5.7c0.2,2.09-1.29,3.74-1.42,5.75C117.48,144.94,117.47,145.13,117.47,145.32z M89.42,238.17l0.12,0.12
		c1.28,5.36,1.87,10.76,1.14,16.26c-0.12,0.07-0.24,0.13-0.36,0.2c0.35,0.42,0.29-0.03,0.38-0.18c2.67-3.14,2.21-6.81,1.36-10.32
		c-0.49-2.04-0.5-4.48-2.55-5.93L89.42,238.17z M62.2,160.36c-4.94,2.57-6.97,7.19-7.84,12.21c-1.11,6.39,0.3,12.33,4.94,17.2
		l0.02,0.24l0.24,0.02c0.31,0.28,0.61,0.56,0.92,0.85c3.75,4.05,8.61,5.86,13.78,4.72c12.48-2.76,17.48-9.96,15.91-22.82
		c-1.36-11.11-11.48-17.46-20.96-15.81c-2.32,0.4-4.75,0.86-6.45,2.83c-0.2,0.21-0.4,0.42-0.6,0.63
		C62.16,160.41,62.2,160.36,62.2,160.36z M88.28,248.95c0.82-8.67-1.13-16.79-6.45-23.89c-0.15-0.2-0.47-0.29-1-0.6
		c0.01,3.96,2.24,7.25,2.39,11.63c-3.61-5.14-6.07-10.15-8.46-15.42c-1.27,1.07-0.62,1.83-0.39,2.58c1.8,5.73,5.4,10.6,7.56,16.19
		c2.61,6.74,2.65,13.11-1.38,19.29c-0.2,0.3-0.23,0.71-0.34,1.07c-0.13,0.08-0.26,0.16-0.4,0.24c0.34,0.36,0.36,0.03,0.43-0.2
		C85.73,258.27,87.8,253.93,88.28,248.95z M96.96,127.07c-2.31,2.44-4.62,4.8-6.34,8.35c2.14-1.49,3.8-2.76,5.58-3.83
		c1.78-1.08,3.69-1.95,6.19-2.57c-1.88,3.32-5.68,4.57-6.47,8.13c-0.28,0.34-0.21,0.42-0.15,0.42c0.07-0.01,0.16-0.1,0.18-0.17
		c0.06-0.27-0.05-0.34-0.28-0.18c-0.06,0.04-0.08,0.15-0.11,0.22c2.34-0.16,3.63-2.14,5.61-2.02l-0.03-0.03
		c-0.11,2.22-2.18,3.05-3.23,4.61c-0.69,1.02-1.43,2.01-1.94,3.23c7.38-2.75,13.53-6.93,17.09-14.49c-1.73-0.91-3.46,0.12-5.17,0.27
		c-0.39-1.47,1.38-1.25,1.47-2.33c-3.78-0.88-7.55-0.94-11.39,0.56c0.5-1.38,0.5-1.38,5.94-3.6c-8.02-3.03-12.44,0.12-16.13,7.11
		c-0.13,0.1-0.25,0.2-0.38,0.3c0.44,0.3,0.38-0.04,0.38-0.29C90.84,129.62,93.29,127.04,96.96,127.07z M42.14,237.78
		c3.02-1.42,6.25-2.13,9.49-2.42c9.26-0.82,14.31-6.33,16.98-14.68c0.14-0.44,0.33-0.86,0.91-1.36c0.74,5.63,2.16,11.02,3.89,16.38
		c1.76,5.46,4.27,10.85,3.25,17.15c1.34-1.98,1.84-5.92,1.57-8.56c-0.52-5.04-1.97-9.85-3.67-14.54c-0.93-2.56-0.92-5.19-0.99-7.66
		c-0.18-6.34-2.9-12.33-2.24-18.81c-3.03,9.88-4.44,20.51-14.26,26.76c3.91-6.91,7.02-14.02,6.11-22.42
		c-0.92,2.7-0.81,5.44-2.01,7.92c-1.18,2.45-2.49,4.79-3.96,7.07c-2.25,3.48-5.35,6-8.84,8.13c-3.37,2.07-6.73,4.16-9.56,6.97
		c-0.82,0.81-1.76,1.58-1.59,2.93c-0.44,0.31-0.99,0.54-0.91,1.22c0.01,0.08,0.33,0.24,0.4,0.19c0.55-0.34,0.48-0.91,0.46-1.44
		C39.12,240.17,40.4,238.59,42.14,237.78z M89.99,358.51c2.16-4.02,5.36-7.24,8.85-11.13c-12.98-0.44-22.96,6.06-33.58,11.59
		c1.16-3.58,4.58-6.49,13.05-11.28c-8.71,0.11-16.37,1.42-23.3,5.83c-1.28,0.81-1.09,1.37-0.13,2.43
		c7.93,8.74,16.67,16.6,25.92,23.91c2.57,2.03,5.21,3.96,7.67,6.11c2.04,1.78,4.1,1.98,6.59,1.13c6.04-2.07,12.04-4.22,17.82-6.92
		c9.98-4.66,20.34-8.37,30.67-12.15c4.69-1.71,4.81-1.86,2.06-6.03c-5.66-8.6-9.02-18.1-11.3-27.9
		c-15.84,6.22-30.82,13.88-43.97,24.76C90.23,358.74,90.11,358.63,89.99,358.51z M137.25,209.32c0.34-1.59,0.15-2.73-2.07-2.59
		c-3.63,0.22-7.22-0.57-10.82-0.93c-1.17-0.65-2.46-1.16-3.48-2c-1.66-1.37-2.86-1.39-3.63,0.97c-1.75-3.65-1.19-4.66,3.39-6.1
		c-1.34,2.57,0.48,3.03,2.13,3.71c2.22,0.91,4.51,0.94,6.85,0.84c2.79-0.11,5.62-0.63,8.35,0.22c1.14,0.35,1.32-0.51,1.26-0.92
		c-0.27-1.73,2.54-3.98-0.89-5.26c-0.58-0.22,0.29-0.93,0.64-1.32c1-1.12,2.47-1.47,3.71-2.2c1.64-0.97,2.68-1.98,0.97-4.01
		c-3.45-4.1-5.48-8.97-6.65-14.58c-1.91,1.7-1.98,3.74-2.65,5.44c-2.13,5.46-4.7,7.28-10.54,7.03c-1.83-0.08-3.67-0.29-5.47-0.64
		c-3.25-0.62-5.31-2.6-6.13-5.83c-0.19-0.75-0.35-1.51-0.47-2.27c-1.04-6.52-1.04-6.52-7.65-6.82c-0.68-0.03-1.37,0.04-2.03-0.09
		c-2.54-0.5-3.39,0.49-3.23,3.04c0.19,3.04-1.07,5.64-3.15,7.85c-0.16-0.16-0.31-0.32-0.47-0.48c1.11-3.06,1.77-6.09-0.32-9.09
		c-1.11,0.63-0.7,1.6-0.69,2.38c0.1,6.43-1.74,12.19-5.81,17.2c-0.47,0.58-0.98,1.01-0.51,2c2.15,4.52,5.2,8.26,9.33,11.06
		c2.32,1.57,4.71,3.05,7.17,4.38c1.84,0.99,3.58,1.28,6,1.02c4.32-0.46,8.75,1.28,12.3,4.16c1.33,1.08,0.77,2.86,0.05,4.31
		c-0.7,1.41-1.89,1.98-3.37,1.53c-3.5-1.08-7.22-1.81-10.34-3.57c-1.63-0.92-2.56-3.18-4.71-4.11c-6.28-2.72-11.68-6.76-16.4-11.72
		c-0.44-0.47-1.02-2.43-2.11-0.19c-0.44,0.91-1.14-0.45-1.69-0.74c-1.29-0.69-1.79-0.74-1.9,1.03c-0.68,10.61,2.01,20.28,7.73,29.2
		c2.66,4.15,5.24,8.35,6.15,13.34c0.7,3.88,0.27,7.6-1.8,10.9c-1.05,1.67-0.54,2.58,0.54,3.7c8.3,8.67,15.97,17.91,23.9,26.92
		c1.05,1.19,2.07,2.41,3.55,4.14c-0.22-5.51-1.02-10.22-1.9-14.91c-1.36-7.22-2.57-14.47-5.11-21.41c-0.52-1.42-1.31-2.59-2.32-3.62
		c-1.15-1.17-2.5-2.9-3.96-2.63c-1.43,0.27-0.17,2.58-1.07,3.96c-1.35-1.73-1.85-3.71-2.01-5.68c-0.4-4.93-0.51-9.89,1.01-14.67
		c0.5-1.58,0.02-2.34-1.12-3.36c-5.92-5.34-11.9-10.66-15.65-17.92c0.76-0.54,1.15,0.03,1.58,0.36
		c9.13,6.96,19.53,11.28,30.42,14.59c2.26,0.69,4.58,0.75,6.91,0.54c3.82-0.33,5.36-1.88,5.5-5.71c0.1-2.83,0.15-5.62,1.71-8.11
		C136.6,210.87,137.08,210.13,137.25,209.32z M123.53,296.28c0.37-0.21,0.14-0.45-0.04-0.67c-9.43-10.6-18.86-21.2-28.29-31.8
		c-0.51-0.58-1.1-1.11-1.54-1.73c-1.59-2.26-2.76-2.77-5.58-0.83c-4.79,3.29-10.5,4.79-16.47,4.26c-1-0.09-2.39-0.55-2.79-1.28
		c-0.53-0.97,1-1.4,1.58-2.11c4.26-5.18,4.64-12.96,0.97-18.97c-0.6-0.99-1.06-0.62-1.85-0.29c-4.41,1.86-8.93,2.18-13.6,1.01
		c-4.43-1.11-8.48-0.28-12.49,2.09c-5.33,3.14-10.07,6.67-13.3,12.13c-3.91,6.62-4.57,13.89-4.56,21.25
		c0.02,11.5,2.5,22.87,2.5,34.35c0,6.39,2.61,11.2,5.98,16.01c5.02,7.18,10.01,14.39,16.08,20.76c0.75,0.78,1.07,1.3,2.26,0.44
		c5.45-3.95,11.76-5.56,19.16-6.32c-9.59-6.23-19.42-9.78-29.85-11.94c9.46-1.61,18.04,1.85,27.19,5.16
		c-1.62-3.09-4.1-4.56-6.09-6.48c-4.86-4.69-10.17-8.95-13.91-14.7c-0.21-0.32-0.69-0.56-0.73-0.87c-0.12-1.12-1.21-2.39-0.42-3.27
		c0.89-0.99,2.17-0.08,3.16,0.44c5.43,2.86,9.19,7.54,13.02,12.13c4.36,5.22,8.07,11.02,14.06,15.73
		c-0.69-6.56-1.33-12.53-1.94-18.5c-0.75-7.29-1.49-14.57-2.22-21.86c-0.82-8.18-1.8-16.35-4.58-24.13
		c-3.56-9.93-9.51-18.04-18.94-23.33c3.83,0.68,7.19,2.24,10.27,4.6c8.36,6.39,12.36,15.35,15.13,25.1
		c1.81,6.38,2.18,12.91,2.45,19.52c3.72-8.18,3.98-16.84,3.39-25.68c1.21,1.37,1.64,3.04,2.01,4.67c2.09,9.24,2.04,18.38-1.54,27.32
		c-0.88,2.2-1.12,4.54-0.95,6.82c0.43,5.86,1.1,11.72,2.7,17.39c2.09,7.43,6.93,10.13,14.93,7.13c6.17-2.32,11.15-6.47,15.72-11.13
		c0.47-0.48,0.96-0.93,1.48-1.35c0.1-0.08,0.36,0.02,0.87,0.07c-1.5,2.55-2.95,4.97-4.37,7.41c-1.38,2.37-3.75,4.03-5,6.81
		c2.07-0.18,3.71-0.63,5.38-1.48c3.95-2.02,8.01-3.85,12.08-5.62c1.2-0.52,1.42-1.18,1.53-2.38c0.95-9.98,0.37-19.87-1.28-29.73
		c-0.1-0.62-0.01-1.28,0.15-1.93c1.92,6.33,2.19,12.87,2.48,19.4c0.16,3.68-0.09,7.35-0.46,11.01c-0.19,1.91,0.31,2.56,2.2,1.42
		c1.57-0.95,3.25-1.73,4.94-2.43c1.13-0.46,1.66-1.07,1.72-2.34c0.06-1.24,0.45-2.46,0.73-3.68c0.06-0.24-0.12-0.86,0.58-0.55
		c3.39,1.5,5.26-1.11,6.92-3.05c6.58-7.72,5.45-18.34,0.68-25.6c-4.64-7.07-9.26-14.18-12.47-22.06c-1.52-3.74-1.9-7.76-2.79-11.68
		c2.42,2.93,3.11,6.77,5.42,10.02c0.77-6.14-4.02-14.63-9.45-17.13c-0.16-0.09-0.37-0.29-0.46-0.25c-0.35,0.17-0.24,0.44-0.04,0.68
		c0.49,3.8,1.88,7.5,1.32,12c-1.85-6.28-3.54-12.07-6.11-17.54c-2.06-4.38-5.51-7.09-9.97-8.67c-0.5-0.18-1.16-0.71-1.54-0.04
		c-0.38,0.67,0.08,1.34,0.68,1.72c8.36,5.39,9.67,14.45,11.78,22.99c2.2,8.95,3.23,18.11,3.91,27.3c0.08,1.04-0.13,2.11-0.2,3.16
		c-0.06,0.89-0.17,1.93-1.11,2.12c-0.91,0.19-1.55-0.59-1.9-1.45l-0.02,0.02c0.34,0.05,0.68,0.1,1.02,0.15
		C123.24,296.11,123.46,296.32,123.53,296.28z M190.98,304.11c3.76-1.25,7.43-2.82,11.4-3.32c1.43-0.18,2.9-0.33,4.33-0.22
		c4.15,0.32,5.29,2.36,3.45,6.34c1.05-0.18,1.98-0.37,2.92-0.48c1.96-0.24,3.8,0.15,4.69,2.06c0.89,1.91,0.1,3.76-1.47,4.9
		c-1.69,1.23-2.65,2.43-2.26,4.66c0.25,1.39-0.76,2.55-1.67,3.58c-2.1,2.39-4.6,4.2-6.28,7.25c-1.92,3.48-5.5,6.26-9.13,8.33
		c-8.14,4.64-16.22,9.43-24.93,12.97c-5.31,2.16-10.94,2.3-16.58,2c-1.17-0.06-2.41-0.29-3.38,0.41c-1.04,0.74-2.96,0.96-2.29,3.05
		c0.58,1.83,1.73,2.55,3.7,2.33c7.4-0.83,14.82-1.57,22.23-2.34c14.62-1.51,29.23-3.29,43.88-4.41c6.22-0.48,9.87-2.36,12.87-8.46
		c11.1-22.54,23.08-44.65,34.72-66.93c1.83-3.51,3.57-7.07,5.35-10.62c1.03-2.06-0.22-4.36-2.54-4.38
		c-6.67-0.07-13.34-0.03-20.05-0.03c-0.24,0.42,0.13,0.8,0.29,1.24c1.01,2.89,0.12,4.23-3,4.24c-6.29,0.02-12.58-0.07-18.88-0.11
		c-3.68-0.03-7.36-0.02-11.04-0.09c-4.81-0.09-5.56-1.19-3.95-6.08c-6.37,0-12.63-0.03-18.9,0.02c-2.33,0.02-3.58,1.05-4.56,3.49
		c-2.44,6.09-5.45,11.95-8.3,17.88c-4.51,9.39-9.08,18.76-13.81,28.53C176.11,309,183.55,306.58,190.98,304.11z M177.67,338.43
		c-0.03-1.6,1.18-1.38,1.84-1.72c6.89-3.51,14.73-4.72,21.36-8.94c3.43-2.19,6.43-4.92,9.77-7.21c1.07-0.73,1.45-1.77,0.88-3.33
		c-10.46,6.57-21.81,10.61-33.89,12.68c4.55-3.04,9.72-4.6,14.87-6.12c7.81-2.32,14.58-6.61,21.27-11.05
		c1.07-0.71,2.66-1.53,1.79-3.16c-0.88-1.64-2.55-1.09-3.9-0.56c-5.04,1.97-10.04,4.04-15.06,6.05c-4.05,1.62-8.22,2.85-12.47,3.81
		c-1.83,0.42-3.69,0.6-5.61-0.51c3.67-1.3,7.36-2.54,11-3.91c5.97-2.25,11.77-4.9,17.41-7.89c1.07-0.57,2.63-1.12,2.24-2.64
		c-0.45-1.76-2.19-1.31-3.46-1.18c-5.23,0.56-10.22,2.19-15.1,3.99c-9.87,3.64-20.07,5.66-31.45,7.14
		c6.78-3.33,7.57-9.77,11.1-15.08c-3.46,0.63-6.39,0.87-7.85,4.09c-0.34,0.75-1.08,1.4-1.79,1.87c-6.82,4.57-10.3,11.67-13.92,18.6
		c-1.88,3.61-4.93,5.94-7.97,8.28c-1.55,1.2-1.99,2.29-1.43,4.13c1.68,5.57,3.79,10.96,6.07,16.3c0.61,1.43,1.17,1.38,2.32,0.67
		c3.96-2.45,8.2-3.65,12.96-3.34c5.3,0.34,10.45-0.93,15.21-3.14c8.91-4.13,17.77-8.43,25.94-14.1
		C192.22,333.35,185.58,337.96,177.67,338.43z M131.82,413.61c4.29,2.35,8.75,4.38,13.08,6.65c1.36,0.71,1.71,0.34,1.71-1.01
		c-0.01-4.43,0.26-8.85-0.52-13.27c-1.33-7.58-2.42-15.2-3.69-23.34c-8.77,7.74-17.78,14.44-27.51,21.24
		C120.67,407.22,126.18,410.52,131.82,413.61z M73.82,132.25c-2.4,6-3.39,12.44-4.04,18.9c-0.21,2.08,0.7,2.39,2.44,2.42
		c4.56,0.09,4.57,0.15,5.27-4.29c0.78-4.96,1.65-9.87,3.49-14.61c3.76-9.72,9.71-16.63,21.17-17.4
		C87.85,113.17,78.74,119.93,73.82,132.25z M124.86,168.83c2.54,0.52,3.71,1.81,3.66,4.33c-0.01,0.72-4.07,4.82-4.8,4.84
		c-1.55,0.04-2.12-0.99-2.59-2.26c-0.42-1.14-0.29-2.27-0.19-3.5c-1.91-0.55-3.45,2.4-5.42,0.55c-0.16,0.21-0.38,0.41-0.46,0.65
		c-0.09,0.27-0.04,0.58-0.08,0.86c-1.05,8.37,5.44,13.15,13.36,9.85c1.03-0.43,1.8-1.15,2.25-2.16c1.18-2.67,2.02-5.41,2.25-8.35
		c0.19-2.37-0.84-3.75-3-4.23c-3.55-0.79-7.11-1.61-10.8-1.44c-2.65,0.13-3.09,0.54-3.69,3.91
		C118.59,170.15,121.24,168.09,124.86,168.83z M33.51,219.12c-6.88,2.99-12.14,7.38-13.49,15.31c-0.41,2.38-0.02,4.56,0.65,7.18
		c0.98-11.02,8.07-16.7,16.97-20.3c11.36-4.6,14.95-15.29,13.57-25.4c-0.1-0.74-0.25-1.48-0.38-2.22
		C51.16,206.35,44.63,214.28,33.51,219.12z M248.24,262.42c-1.09-2.55-2.12-4.89-3.1-7.26c-0.47-1.13-1.45-0.78-2.24-0.83
		c-7.03-0.44-14.07-0.27-21.1-0.33c-1.8-0.01-2.86,0.47-3.53,2.17c-0.74,1.86-1.7,3.63-2.79,5.91c2.16,0,4.03,0,5.9,0
		c0.62,0,1.18-0.14,1.19-0.92c0.05-2.7,1.64-2.16,3.54-2.04c3.94,0.26,7.91,0.05,11.87,0.03c0.7,0,1.38-0.16,1.84-0.7
		c0.67-0.79,1.37-2.13,2.41-0.87c0.8,0.96,1.24,2.48-0.39,3.49c-0.21,0.13-0.29,0.46-0.62,1.02
		C243.65,262.66,245.81,262.68,248.24,262.42z M58.39,137.58c0.46-0.62,0.92-1.24,1.44-1.81c0.43-0.46,1.02-0.63,1.53-0.17
		c0.47,0.43,0.05,0.86-0.19,1.26c-1.48,2.5-2.22,5.24-2.61,8.12c3.05-5.26,6.45-10.16,11.53-13.67c1.09-0.75,1.14-2.19,1.61-3.33
		c0.99-2.42,2.35-4.61,4.06-6.63c-9.86-1.12-23.45,15.02-23.06,27.57C54.06,144.81,55.83,141,58.39,137.58z M202.68,357.21
		c-4.13-0.82-6.51-0.46-9.55,1.9c-5.02,3.91-10.8,6.63-16.17,10.22C186.63,372.99,195.02,368.98,202.68,357.21z M112.23,138.15
		c-2.68,5.14-7.65,7-12.63,8.91c-4.32,1.66-8.43,3.67-9.93,9.2c3.13-1.99,5.2-4.87,8.59-5.76c2.69-0.71,5.32-1.69,7.98-2.54
		c6.25-1.99,9.37-6.98,11.36-12.64c0.86-2.44-0.71-4.79-2.76-6.45C113.4,131.87,113.74,135.26,112.23,138.15z M160.69,301.03
		c0.75-1.1,2.08-2.32-0.88-2.55c1.41-1.27,2.73-0.84,3.93-0.85c1.23-0.01,2.28-0.38,2.24-1.64c-0.05-1.47,2.58-3.07-0.15-4.41
		c-4.72-2.32-7.63-2.22-9.23,0.8c-2.34,4.43-3.9,9.15-3.03,14.64C156.25,304.99,158.96,303.58,160.69,301.03z M164.81,281.25
		c0.96,1.99,2.14,3.9,2.84,5.98c0.7,2.06,2.14,1.36,3.16,0.96c1.58-0.61,0.13-1.65-0.15-2.3c-1.8-4.15-3.76-8.22-5.61-12.35
		c-0.49-1.1-1.14-1.45-2.24-0.93c-0.67,0.31-1.46,0.47-1.61,1.13C162.48,276.4,163.64,278.83,164.81,281.25z M145.07,172.91
		c0.56,1.56-0.59,3.09-1.62,3.77c-2.83,1.87-1.48,3.92-0.72,6c0.25,0.69,0.73,1.3,1.37,2.39c2.58-3.86,3.82-7.77,2.98-11.95
		c-0.53-2.64-3.06-1.8-4.98-1.55C143.07,172.17,144.61,171.61,145.07,172.91z M176.8,284.18c0.51-1.06,0.29-1.82-0.69-2.42
		c-1.42-0.86-3.2-1.88-4.49-0.89c-1,0.77,0.37,2.36,0.85,3.53c0.56,1.38,1.22,2.73,2.13,4.74
		C175.49,287.11,176.1,285.63,176.8,284.18z M28.62,208.13c6.78,2.05,12.76-4.59,11.89-14.01C39.14,203.9,33.47,208.19,28.62,208.13
		z M169.22,297.08c1.33-0.06,4.02-3.27,4.05-4.88c0.02-1.25-0.78-1.71-1.83-1.78c-1.44-0.1-2.95,2.57-3.06,5.31
		C168.38,296.35,168.03,297.14,169.22,297.08z M129.88,242.97c4.03-4.41,4.21-7.76,0.94-13.28
		C131.83,234.01,131.33,238.23,129.88,242.97z M56.2,240.43c4.24,2.57,10.12,1.52,12.42-2.28C64.46,239.46,60.76,241.14,56.2,240.43
		z M165.62,286.99c-0.38-0.78-0.36-2.17-1.61-1.96c-0.99,0.17-1.36,1.39-1.58,2.25c-0.32,1.2,1.06,1.05,1.69,1.46
		c0.53,0.35,1.24,0.42,2.35,0.76C166.11,288.39,165.94,287.66,165.62,286.99z M52.19,151.08c0.04-0.16,0.07-0.36,0.02-0.52
		c-0.08-0.28-0.23-0.28-0.31,0.01c-0.04,0.16-0.01,0.34-0.01,0.55C51.99,151.36,52.11,151.36,52.19,151.08z M111.1,121.85
		c0.02,0,0.04-0.08,0.06-0.13c-0.09,0.02-0.19,0.04-0.36,0.07C110.96,121.82,111.03,121.85,111.1,121.85z M69.61,337.99
		c-0.06-0.05-0.12-0.14-0.18-0.13c-0.06,0-0.11,0.1-0.16,0.15c0.06,0.05,0.12,0.1,0.17,0.13C69.5,338.09,69.55,338.04,69.61,337.99z
		 M95.05,143.77l0.01,0.13l0.15-0.08L95.05,143.77z M135.7,271.58l0.03,0.2l0.14-0.12L135.7,271.58z"/>
	<path class="st14" d="M390.47,123.99c-2.1-0.31-2.58,0.46-2.58,2.49c0.03,21.77-0.04,43.55-0.07,65.33
		c-0.01,4.72-0.1,9.43,0.03,14.15c0.05,2.04-0.61,2.62-2.64,2.57c-16.25-0.42-32.5-0.76-48.75-1.07
		c-14.32-0.27-28.65-0.47-42.97-0.72c-6.06-0.11-12.12-0.35-18.18-0.36c-2.19-0.01-2.78-0.8-2.76-2.92
		c0.08-11.31,0.3-22.63-0.05-33.92c-0.44-14.14,0.05-28.27-0.44-42.4c1.48-2.73,4.24-2,6.46-2.08c18.76-0.66,37.52-1.15,56.28-1.71
		c8.88-0.26,17.75-0.54,26.63-0.83c9.14-0.31,18.27-0.71,27.41-0.92c1.78-0.04,4.01-0.42,4.8,2.1
		C392.58,123.8,391.49,124.14,390.47,123.99z M368.38,172.84c-3.03,0.17-4.95-1.16-6.52-3.44c-0.44-0.64-0.89-1.27-1.28-1.94
		c-1.36-2.31-3.01-3.91-6.02-3c-0.61,0.19-1.64,0.56-2.05-0.4c-0.31-0.72,0.44-1.21,0.81-1.74c4.11-5.78,4.15-5.87,10.64-3.07
		c2.83,1.22,5.34,2.2,7.79-0.64c0.82-0.95,1.78-0.38,2.51,0.39c1.4,1.47,2.81,2.94,4.13,4.47c0.65,0.75,1.32,1.33,2.15,0.5
		c0.86-0.86-0.19-1.36-0.66-1.85c-1.68-1.74-3.52-3.34-5.08-5.18c-1.47-1.75-2.77-1.51-4.11-0.08c-1.56,1.67-3.17,1.86-5.19,0.78
		c-1.61-0.86-3.52-1.19-5.08-2.11c-2.14-1.26-3.46-0.6-4.96,1.07c-1.43,1.59-2.2,4.68-4.45,4.39c-1.84-0.23-2.72-3.05-4.04-4.71
		c-2.04-2.56-2.19-2.54-4.2-0.02c-1.05,1.32-1.74,3-3.67,3.52c-2.39,0.63-4.38,0.51-5.95-1.72c-0.77-1.09-2.01-1.85-2.79-2.94
		c-1.98-2.76-4.24-4.69-7.96-3.81c-1.09,0.26-1.77-0.62-2.38-1.38c-1.34-1.66-2.67-3.32-3.97-5.01c-0.64-0.83-1.02-2.03-2.31-1.93
		c-1.53,0.12-1.45,1.61-1.92,2.6c-1.12,2.36-2.22,4.73-3.32,7.1c-0.74,1.6-1.5,1.53-2.38,0.11c-1.78-2.88-3.6-5.74-5.35-8.63
		c-0.79-1.3-1.28-3.26-2.92-3.27c-1.64-0.01-2.19,1.94-2.97,3.24c-2.29,3.84-2.27,3.85-4.9,0.31c-1.21-1.63-5.68-2.79-7.7-2.02
		c-0.53,0.2-0.8,0.55-0.74,1.08c0.08,0.66,0.6,1.19,1.18,0.98c4.16-1.49,5.99,1.32,7.91,4.11c1.12,1.62,2.38,1.96,3.57-0.01
		c0.05-0.08,0.1-0.17,0.15-0.25c3.48-4.94,3.51-4.95,6.73,0.16c1.44,2.29,2.69,4.7,4.18,6.96c1.83,2.77,2.84,2.67,4.23-0.27
		c1.2-2.53,2.36-5.09,3.55-7.63c0.8-1.7,1.64-1.64,2.6-0.08c0.66,1.06,1.46,2.04,2.18,3.06c1.43,2.02,3.17,3.36,5.86,2.79
		c1.8-0.39,3.03,0.51,4.33,1.71c2.63,2.41,4.11,5.89,7.33,7.74c0.54,0.31,0.2,0.87,0,1.28c-1.11,2.26-2.27,4.48-3.84,6.49
		c-0.98,1.26-1.53,0.69-2.12-0.25c-1.13-1.81-2.21-3.64-3.37-5.42c-0.52-0.8-1.12-1.85-2.29-1.21c-5.91,3.25-10.34-0.31-14.81-3.27
		c-1.12-0.74-2.06-1.13-3.36-1.05c-5.02,0.28-10.05,0.43-15.02-0.61c-0.98-0.21-1.86-0.04-2.74,0.56c-1.34,0.92-2.67,1.93-4.47,1.82
		c-0.74-0.05-1.38,0.4-1.36,1.2c0.02,1.08,0.94,1.12,1.7,1.09c1.63-0.06,2.87-1.12,4.18-1.91c1.32-0.78,2.46-1.06,4.06-0.63
		c3.58,0.98,7.3,0.66,10.96,0.34c2-0.18,3.78-0.16,5.43,1.2c1.04,0.85,2.31,1.41,3.46,2.12c3.29,2.03,6.68,3.56,10.55,1.61
		c1.5-0.76,2.32-0.13,3.03,1.11c1.19,2.08,2.46,4.13,3.64,6.22c1.13,2,2.06,2.11,3.25,0.06c1.89-3.27,3.76-6.56,5.33-9.98
		c0.74-1.61,1.6-2.05,3.09-1.55c3.32,1.1,7.22,0.49,9.91,3.61c0.67,0.77,2.38,1.1,3.5,0.94c2.5-0.37,4.16,0.7,5.33,2.59
		c2.69,4.36,6.26,6.34,11.52,5.35c2.32-0.44,4.81,0.07,7.22-0.02c0.9-0.03,2.5,0.76,2.57-0.88c0.07-1.6-1.54-0.96-2.31-1.14
		C374.94,172.77,371.65,172.66,368.38,172.84z"/>
	<path class="st12" d="M325.35,291.35c-0.19-0.04-0.64,0.24-0.64,0.36c0.05,0.85,0.93,0.83,1.41,1.24
		c-0.01,0.39-0.02,0.78-0.03,1.18c0,0,0.04-0.04,0.04-0.04c-1.4,1.02-1.93-2.11-2.93-0.85c-1.15,1.45,1.64,1.25,1.55,2.49
		c-0.01,0.16-0.16,0.32-0.25,0.47c-3.24-1.57-3.56-2.62-1.59-5.17c-0.7-0.44-1.41-0.88-2.1-1.31c-0.79,0.73,0.49,2.86-0.52,2.28
		c-2.78-1.61-3.31,0.96-5.24,2.48c0.72-2.02-0.12-2.84-0.74-3.93c-0.6-1.07,2.27-1.08,2.35-2.72c0.02-0.4,0.06-0.75-0.43-1.07
		c-0.79,0.13-0.56,1.98-1.7,1.39c-1.16-0.6,0.01-1.52,0.03-2.29c0.06-2.35,2.38-2.18,3.73-3.07c2.64-1.74,4.93-1.27,7.08,1.05
		c1.1,1.18,2.6,1.99,3.85,3.04c0.67,0.56,1.26,1.05,1.86,0.05c0.51-0.85-0.16-1.21-0.8-1.51c-1.78-0.82-3.27-2.06-4.77-3.28
		c-0.56-0.46-1.62-0.6-1.38-1.62c0.21-0.9,1.22-0.82,1.89-1.15c1.54-0.75,3.44-0.84,4.96-2.56c-2.43-0.19-4.01,0.97-5.75,1.66
		c-1.37,0.55-2.69,1.56-4.33,0.46c-5.2-3.47-10.52-6.76-15.38-10.72c-1.89-1.54-3.51-3.02-5.94-0.14c-2.37,2.81-2.81,2.49-4.87-1.01
		c-0.2-0.33-0.28-0.77-0.73-0.77c-3.41-0.04-4.31-2.51-5.11-5.16c-0.37-1.24-1.25-1.77-2.44-0.91c-1.03,0.74-1.62,0.82-1.44-0.7
		c0.16-1.29-0.8-0.79-1.34-0.85c-3.55-0.44-6.98-1.56-10.5-2.19c-1.74-0.31-3.7-1.6-5.65-2.38c-7.29-2.91-15.19-1.02-22.56-3.67
		c-5.6-2.01-11.89-0.42-17.85-1.12c-3.53-0.42-7.54-0.86-10.47,1.21c-3.74,2.65-7.55,3.05-11.8,2.87
		c-5.33-0.23-10.83,0.61-15.96-0.45c-5.56-1.14-11.14-0.14-16.73-1.43c-3.25-0.75-5.28-2.37-7.38-4.23
		c-1.66-1.47-1.43-4.75-0.15-6.26c0.69-0.82,0.13-1.28-0.53-1.52c-0.99-0.35-2.01-0.64-3.05-0.79c-2.18-0.33-2.08-2.2-2.13-3.57
		c-0.06-1.72,1.61-1.33,2.67-1.33c6.68-0.03,13.35-0.1,20.02,0.08c2.59,0.07,4.24-0.37,4.1-3.34c1.59,0.64,3.48,0.55,4.11,2.99
		c0.2,0.77,1.46,2.81,3.96,2.31c2.09-0.41,3.42,1.22,1.61,3.62c1,0.48,2.66-0.79,2.75,1.21c0,0.08,1.4,0.48,1.26-0.33
		c-0.43-2.48,1.19-2.06,2.52-1.95c2.93,0.25,4.59-0.91,5.14-3.73c1.93,0.02,3.86,0.02,5.79,0.07c28.97,0.76,57.93,1.5,86.9,2.31
		c8.02,0.22,16.04,0.55,24.04,0.99c5.18,0.29,5.17,0.43,5.88-4.5c1.22-0.52,2.42-0.29,3.62,0.08c3.11,0.94,6.35,1.01,9.5,0.83
		c3.43-0.19,5.7,1.28,7.41,3.84c0.8,1.2,1.53,1.91,2.98,1.68c10.98,0.55,21.96,1.15,32.95,1.6c1.74,0.07,2.33,0.89,2.16,2.27
		c-0.14,1.15,0.25,1.29,1.17,1.28c4.21-0.06,8.39-0.17,12.51-1.28c4.81-1.3,5.32-0.83,5.41,4.17c0.01,0.39-0.04,0.78,0,1.16
		c0.21,2.07-0.42,3-2.79,3.26c-7.87,0.88-15.69,2.1-23.54,3.16c-1.1,0.15-2.05,0.21-2.44,1.55c-1.02,3.51-2.36,4.21-6.31,3.44
		c-0.11-1.18,1.24-2.01,0.72-3.49c-8.18,0.69-16.42,1.41-24.66,2.05c-1.46,0.11-1.54,0.92-1.81,2.06c-0.42,1.76,1.26,2.7,1.24,4.29
		c-0.14,12.96-0.2,25.91-0.3,38.87c-0.01,1.75-0.83,2.69-2.73,2.43c-0.86-0.11-1.74-0.03-2.61-0.08c-2.04-0.13-2.79-1.4-1.94-3.31
		c0.48-1.1,0.35-1.84-0.99-1.78c-3.25,0.14-4.41-0.89-4.47-4.12c-0.02-0.86-1.03-1.79-1.16-1.32c-0.92,3.4-1.71,0.04-3.28-0.47
		c1.48,2.42,0.07,4.3,0.73,6.27c-1,0.45-1.96-0.33-3.06-0.08c-0.77,0.18-1.9-0.98-1.68-2.19c0.14-0.77,0.53-1.82,1.73-1.46
		c0.63,0.19,1.08,1.56,1.82,0.56c0.53-0.7-0.61-1.27-0.92-1.94c-0.22-0.48-0.99-0.67-0.69-1.43c0.85-2.16-0.61-2.38-2.15-2.52
		C326.04,292.34,326.3,291.55,325.35,291.35z M191.83,238.05c-0.09,0.13-0.2,0.26-0.27,0.41c-0.02,0.03,0.14,0.2,0.17,0.19
		c0.15-0.06,0.29-0.16,0.43-0.24C192.05,238.29,191.94,238.17,191.83,238.05z M330.05,293.82c0.12,0.04,0.3-0.11,0.46-0.17
		c-0.07-0.16-0.13-0.31-0.2-0.47c-0.15,0.07-0.31,0.13-0.46,0.2C329.9,293.53,329.94,293.78,330.05,293.82z M323.64,289.79
		c0.16-0.07,0.39-0.11,0.44-0.22c0.05-0.11-0.11-0.3-0.17-0.46c-0.16,0.07-0.31,0.13-0.47,0.2
		C323.5,289.48,323.57,289.64,323.64,289.79z"/>
	<path class="st12" d="M153.64,206.75c0.29-0.81,0.79-0.81,1.27-0.81c8.09-0.07,16.19-0.18,24.28-0.12
		c0.95,0.01,2.38-0.36,3.02,1.02c4.23,1.07,8.58,0.93,12.87,0.98c17.2,0.2,34.41,0.22,51.62,0.29c0.92,0,1.96,0.38,2.67-0.6
		c0.61-0.17,1.22-0.35,1.83-0.52c0.92,1.82,1.85,1.62,2.78,0.01c0.71-0.69,2.35,0.44,2.53-1.25c0.1-0.94-0.56-1.54-1.36-1.58
		c-3.03-0.17-2.71-2.27-2.76-4.35c-0.31-12.73,0.82-25.47-0.38-38.19c-0.08-0.86-0.1-1.77,0.11-2.6c0.58-2.3-0.09-4.68,0.35-6.92
		c0.54-2.75-3.86-2.59-2.86-5.43c0.08-0.21-0.8-0.31-1.27-0.08c-0.51,0.25-1.03,0.63-1.74-0.44c2.87-1.4,4.29-3.68,3.78-7.02
		c-0.22-1.41-0.58-2.11-2.11-2.04c-2.07,0.1-4.15,0.05-6.22,0.08c-13.9,0.15-27.8,0.3-41.7,0.42c-1.44,0.01-2.93-0.45-4.3-0.21
		c-1.94,0.35,0.42-2.33-1.15-1.56c-1.27,0.62-2.52-0.15-3.99,0.76c-1.35,0.83-4.27,1.56-5.99-0.53c-0.96-1.17-1.71-0.66-2.88-0.57
		c-1.5,0.11-3.91,1.82-4.8-1.57c-0.72-2.75-2.54-4.95-6.02-4.09c-3.56,0.89-7.07-0.37-10.62-0.19c-1.94,0.1-3.82-0.39-5.86-1.09
		c1.09-0.94,2.09-0.66,3-0.7c7.4-0.27,14.8-0.54,22.2-0.76c4.61-0.13,9.23-0.66,13.84,0.11c-0.79,1.77,0.74,1.12,1.3,1.12
		c7.05,0.01,14.1,0.19,21.14-0.13c9.95-0.45,19.89-0.3,29.83-0.46c2.61-0.04,5.23-0.09,7.84-0.18c2.54-0.09,3.92,0.69,3.83,3.64
		c-0.29,8.97-0.72,17.96-0.4,26.92c0.28,7.65,0.04,15.26-0.19,22.89c-0.07,2.37,0.77,3.5,3.21,3.16c0.55,1.3,0.22,2.67,0.23,4
		c0.07,9.91,0.11,19.82,0.14,29.72c0.01,2.49-0.45,4.68-3.61,4.81c-1.85-1.19-3.7-1.37-5.55,0.01c-0.32-0.03-0.65-0.06-0.97-0.09
		c-0.34-1.4-1.5-0.97-2.38-1c-14.66-0.44-29.32-0.92-43.99-1.22c-5.42-0.11-10.86,0.11-16.26-0.45c-1.43-0.15-1.68,1.08-2.57,1.5
		c-10.69,0.26-21.36-0.33-32-1.16c-2.86-0.22-5.86-0.03-8.64-1.7c-1.47-0.88-0.16-1.34-0.35-1.93c1.76-0.03,3.69-0.64,4.67,1.68
		c0.3,0.7,1.21,0.55,1.85,0.48c2.68-0.33,5.37-0.62,8.01-1.14c1.37-0.27,2.55-1.02,2.07-2.84c-0.44-1.67-0.56-3.55-3.02-3.52
		c-0.95,0.01-1.87,0.61-2.83,0.13C156.04,209.41,156.52,207.5,153.64,206.75z M252.4,132.78c0.05-1.03-0.8-1.47-1.74-1.51
		c-0.98-0.05-1.76,0.43-1.79,1.44c-0.03,1.03,0.8,1.41,1.61,1.59C251.54,134.19,252.35,133.75,252.4,132.78z M245.5,131.28
		c-0.95-0.07-1.79,0.35-1.83,1.36c-0.04,1.02,0.84,1.43,1.74,1.47c0.87,0.04,1.34-0.57,1.57-1.29
		C246.88,131.85,246.33,131.35,245.5,131.28z"/>
	<path class="st14" d="M507.66,262.44c-0.19,3.76-0.01,7.53-0.03,11.29c-0.02,2.57-1.15,3.78-3.95,3.76
		c-19.73-0.12-39.46-0.12-59.19-0.16c-3.45-0.01-3.63-0.59-4.05-4.08c-0.5-4.17,0.03-8.28-0.11-12.42
		c-0.09-2.47,1.01-3.55,3.46-3.48c16.29,0.43,32.58,0.14,48.88,0.07c2.3-0.01,4.49-0.63,6.63-1.49c0.84-0.34,1.29-0.65,1.38-1.56
		c0.11-1.16-0.61-1.95-1.39-2.37c-2.77-1.5-5.84-2.13-8.92-1.54c-6.62,1.27-13.18-0.13-19.76-0.26c-7.14-0.13-14.26,0.56-21.4,0.21
		c-1.49-0.07-1.79,1.3-2.76,1.83c-0.58,0.02-1.16,0.05-1.74,0.05c-5.45-0.02-6.8-1.42-6.81-6.9c-0.01-4.16-0.11-8.32-0.11-12.48
		c0-3.63,1.36-5.22,4.95-5.32c5.99-0.16,11.98-0.08,17.98-0.09c14.7-0.04,29.4-0.1,44.1-0.09c3.74,0,5.37,1.75,5.43,5.59
		c0.06,4.16,0.02,8.32,0.02,12.48c0,5.67-0.58,6.34-6.34,6.79c-1.3,0.1-1.55,0.59-1.61,1.76c-0.07,1.5,0.75,1.46,1.81,1.47
		c1.42,0.01,2.94-0.27,4.07,1C506.97,258.39,507.76,260.47,507.66,262.44z M475.99,264.89c0.8-0.01,2.04,0.15,1.94-1.1
		c-0.08-0.99-1.2-0.73-1.92-0.73c-8.58-0.06-17.15-0.09-25.73-0.14c-0.89,0-1.97-0.04-1.9,1.16c0.06,1.05,1.15,0.8,1.87,0.8
		c4.34,0.02,8.67,0.01,13.01,0.01c0,0,0,0.01,0,0.01C467.5,264.91,471.74,264.93,475.99,264.89z M476.23,237.06
		c0.7-0.09,1.89,0.25,1.8-0.84c-0.09-1-1.25-0.62-1.96-0.62c-8.52-0.02-17.03-0.01-25.55,0c-0.72,0-1.88-0.31-1.9,0.71
		c-0.02,1.04,1.16,0.73,1.87,0.76c1.45,0.05,2.9,0.01,4.35,0.01C461.97,236.86,469.1,237.99,476.23,237.06z M477.26,272.9
		c0.69,0.14,1.26-0.13,1.37-0.71c0.14-0.7-0.65-0.99-1.12-1.07c-1.13-0.18-2.29-0.2-3.43-0.2c-4.34-0.01-8.68,0.01-13.02,0.04
		c-0.62,0.01-1.57-0.19-1.55,0.78c0.02,0.91,0.94,0.79,1.59,0.8c2.8,0.02,5.59,0.01,8.39,0.01
		C472.08,272.72,474.69,272.37,477.26,272.9z M476.75,241.04c0.57,0,1.31,0.01,1.37-0.73c0.07-0.79-0.67-0.81-1.24-0.81
		c-5.12-0.01-10.23-0.03-15.35,0c-0.6,0-1.59-0.24-1.51,0.8c0.07,0.91,1,0.72,1.64,0.73c2.51,0.02,5.02,0.01,7.54,0.01
		c0,0.01,0,0.01,0,0.02C471.72,241.05,474.24,241.05,476.75,241.04z M457.37,272.52c0.52-0.04,0.98-0.22,1.01-0.8
		c0.04-0.63-0.45-0.77-0.96-0.79c-2.5-0.12-5-0.24-7.5-0.33c-0.71-0.02-1.46,0.18-1.47,1.03c-0.01,0.84,0.82,1.09,1.45,1.14
		c1.23,0.11,2.49,0.03,3.69,0.03C454.89,272.71,456.13,272.62,457.37,272.52z M449.25,266.93c-0.61,0.02-1.17,0.31-1.21,0.99
		c-0.04,0.76,0.63,0.96,1.18,0.96c2.5,0.01,5-0.01,7.5-0.1c0.57-0.02,1.18-0.35,1.09-1.09c-0.09-0.77-0.78-0.74-1.34-0.75
		c-1.16-0.03-2.31-0.01-3.47-0.01c0-0.01,0-0.02,0-0.03C451.76,266.92,450.51,266.89,449.25,266.93z M477.57,244.58
		c0-0.27,0.01-0.53,0.01-0.8c-5.98,0-11.96,0-17.93,0c0,0.24,0,0.48,0,0.72C465.62,244.87,471.59,244.78,477.57,244.58z
		 M449.43,239.51c-0.49,0.01-1.03,0.07-1.11,0.65c-0.09,0.7,0.4,1.07,1.03,1.12c2.39,0.21,4.79,0.24,7.17-0.1
		c0.67-0.1,1.44-0.22,1.24-1.18c-0.16-0.77-0.88-0.58-1.42-0.6c-1.05-0.03-2.11-0.01-3.17-0.01c0,0.03,0,0.07,0,0.1
		C451.92,239.51,450.68,239.5,449.43,239.51z M476.63,268.66c0.44,0,1.01-0.02,1.1-0.64c0.08-0.49-0.29-0.71-0.69-0.71
		c-5.49,0.03-11-0.48-16.47,0.18c0,0.39,0,0.79,0,1.18C465.93,268.67,471.28,268.68,476.63,268.66z M486.75,242.21
		c1.34,0.07,2.06-0.92,2.16-2.22c0.1-1.4-0.64-2.25-2.04-2.19c-1.28,0.05-2.1,0.83-2.36,2.16
		C484.71,241.26,485.51,242.14,486.75,242.21z M488.95,267.89c0.16-1.43-0.61-2.16-1.93-2.31c-1.38-0.15-2.22,0.69-2.36,1.93
		c-0.17,1.44,0.84,2.21,2.09,2.66C488.04,269.92,488.8,269.19,488.95,267.89z M496.9,239.81c-0.05,1.29,0.56,2.32,1.92,2.39
		c1.42,0.08,2.37-0.76,2.44-2.23c0.06-1.36-0.78-2.06-2.1-2.28C497.93,237.89,496.96,238.43,496.9,239.81z M499.1,269.8
		c1.39-0.04,2.13-0.94,2.1-2.22c-0.03-1.36-0.99-2.05-2.31-1.97c-1.33,0.08-1.99,0.96-2.18,2.27
		C496.95,269.19,497.79,269.84,499.1,269.8z M493.27,241.94c1.28-0.05,1.99-0.8,1.93-2.06c-0.06-1.22-0.86-2.04-2.06-2.01
		c-1.19,0.02-1.94,0.78-1.93,2.07C491.41,241.13,491.94,241.99,493.27,241.94z M493.1,269.69c1.33-0.01,1.84-0.93,1.78-2.15
		c-0.06-1.23-0.7-2.04-2.01-1.96c-1.26,0.08-1.84,0.91-1.85,2.08C491.13,269.01,491.88,269.7,493.1,269.69z M448.49,244.01
		c3.11,0.97,6.22,0.88,9.34,0.1C454.71,243.39,451.59,243.19,448.49,244.01z"/>
	<path class="st12" d="M329.59,227.79c0.13-1.83-0.54-2.21-2.29-2.27c-12.76-0.49-25.52-1.1-38.28-1.7
		c-4.45-0.21-8.9-0.42-13.34-0.73c-3.42-0.24-4.78-1.58-4.78-4.56c-0.01-26.34-0.06-52.68,0.08-79.02c0.02-3.04,0.76-6.13,0.37-9.16
		c-0.17-1.33-0.24-2.29,0.7-3.23c0.49,14.13,0,28.27,0.44,42.4c0.35,11.3,0.14,22.62,0.05,33.92c-0.02,2.12,0.57,2.92,2.76,2.92
		c6.06,0.02,12.12,0.26,18.18,0.36c14.32,0.25,28.65,0.44,42.97,0.72c16.25,0.31,32.5,0.65,48.75,1.07
		c2.02,0.05,2.69-0.53,2.64-2.57c-0.12-4.71-0.04-9.43-0.03-14.15c0.04-21.78,0.11-43.55,0.07-65.33c0-2.03,0.48-2.8,2.58-2.49
		c1.02,0.15,2.1-0.19,3.16-0.31c0.89,0.99,0.46,2.21,0.47,3.3c0.06,31.45,0.09,62.91,0.12,94.36c0,5.6-0.97,6.56-6.67,6.61
		c-0.77,0.01-1.55-0.03-2.32-0.06c-9.95-0.4-19.9-0.81-29.86-1.19c-1.05-0.04-2.43-0.57-2.36,1.45c0.15,3.96-0.4,7.92,0.16,11.87
		c-1.45,0.23-2.18-0.48-2.98-1.68c-1.71-2.56-3.98-4.04-7.41-3.84c-3.14,0.18-6.39,0.1-9.5-0.83c-1.2-0.36-2.4-0.6-3.62-0.08
		C329.63,231.66,329.46,229.72,329.59,227.79z M301.32,208.37c-8.69-0.2-17.4-0.18-26.09-0.42c-2.25-0.06-2.88,0.78-2.79,2.81
		c0.09,2.22-0.03,4.45,0.03,6.67c0.06,2.42,0.98,3.95,3.77,4.06c13.04,0.52,26.08,1.19,39.12,1.74c22.1,0.94,44.2,1.84,66.3,2.75
		c0.39,0.02,0.77,0.05,1.16,0.05c5.13,0.07,5.05-0.14,4.61-5.41c-0.21-2.49,0.24-5.12,0.37-7.7c0.1-1.93-0.65-2.51-2.51-2.49
		c-7.71,0.07-15.42,0.03-23.13,0.03c0-0.19,0-0.39,0-0.58C341.87,209.37,321.6,208.83,301.32,208.37z"/>
	<path class="st12" d="M510.07,261.72c-0.03,3.68-0.07,7.35-0.04,11.03c0.05,5.8-0.57,6.55-6.3,6.85c-1.31,0.07-1.96,0.29-1.93,1.76
		c0.03,1.48,0.74,1.79,2.01,1.67c0.67-0.06,1.36,0,2.03,0.06c2.61,0.23,4.19,1.73,4.26,4.27c0.13,5.22,0.02,10.44-0.06,15.66
		c-0.03,2.41-1.4,3.59-3.75,3.95c-2.81,0.43-5.59,0.06-8.39,0.06c-18.28,0-36.55-0.03-54.83-0.07c-3.39-0.01-5.13-1.82-5.15-5.22
		c-0.03-3.77,0-7.55-0.05-11.32c-0.07-6.06,0.86-7.19,6.86-7.28c2.07-0.03,1.95-1.17,1.8-2.38c-0.19-1.5-1.54-0.79-2.34-0.86
		c-4.99-0.41-6.24-1.74-6.22-6.73c0.01-3.97-0.04-7.93-0.05-11.9c-0.01-3.61,1.2-4.84,4.83-4.92c3.99-0.09,3.99-0.09,3.68-4.1
		c0.97-0.53,1.26-1.9,2.76-1.83c7.13,0.34,14.25-0.35,21.4-0.21c6.58,0.12,13.14,1.52,19.76,0.26c3.09-0.59,6.15,0.04,8.92,1.54
		c0.78,0.42,1.5,1.21,1.39,2.37c-0.09,0.91-0.54,1.22-1.38,1.56c-2.15,0.86-4.34,1.48-6.63,1.49c-16.29,0.07-32.59,0.36-48.88-0.07
		c-2.44-0.06-3.54,1.01-3.46,3.48c0.14,4.14-0.39,8.25,0.11,12.42c0.42,3.49,0.6,4.07,4.05,4.08c19.73,0.04,39.46,0.04,59.19,0.16
		c2.8,0.02,3.93-1.19,3.95-3.76c0.02-3.77-0.15-7.54,0.03-11.29c0.1-1.97-0.68-4.05,0.53-5.93
		C509.97,257.83,510.09,259.75,510.07,261.72z M507.59,288.23c0.02-2.16-0.53-3.13-3.18-3.16c-11.24-0.13-22.48,0.11-33.72,0.02
		c-9.15-0.07-18.32,0.12-27.48,0.13c-2.1,0-2.78,1.13-2.79,2.86c-0.03,4.54,0.03,9.08,0.07,13.62c0.02,1.83,0.75,2.85,2.79,2.84
		c16.37-0.02,32.73,0.01,49.1,0.02c3.87,0,7.74-0.12,11.6,0.04c2.71,0.11,3.68-1.02,3.54-3.61c-0.11-2.12-0.02-4.25-0.02-6.38
		c0.03,0,0.06,0,0.09,0C507.59,292.48,507.57,290.35,507.59,288.23z"/>
	<path class="st12" d="M416.48,59.01c0.31-18.55-14.26-34.67-32.8-36.21c-1.01-0.08-2.96-0.95-2.69,1.29
		c0.22,1.83-1.49,4.58,2.33,5.07c14.52,1.85,25.01,12.43,26.57,26.55c2.15,19.45-15.31,35.62-34.66,32.41
		c-21.91-3.64-32.62-28.83-19.9-46.44c0.82-1.14,0.76-1.58-0.4-2.43c-4.27-3.13-4.38-3.2-6.9,1.59c-6.85,13-6.36,25.98,1.8,37.97
		c8.23,12.1,20.27,17.39,34.94,15.64C402.94,92.29,416.17,77.35,416.48,59.01z"/>
	<path class="st12" d="M498.81,78.31c2.4,1.03-0.43,2.77,0.62,3.92c0.58,0.14,0.94-0.16,1.25-0.55c4.97-6.34,9.6-12.88,11.58-20.87
		c0.43-1.74,1.3-3.33,1.21-5.27c-0.09-1.98-0.5-2.36-2.3-1.43c-5.19,2.67-9.82,6.06-13.94,10.17c-2.39,2.39-4.78,4.78-7.17,7.18
		c-0.16-0.97-0.05-1.81,0.69-2.59c5.76-6.09,11.65-12.01,19.4-15.64c3.28-1.54,4.18-1.45,6.22,1.48c6.8,9.81,8.09,20.14,2.13,30.76
		c-1.35,2.41-0.69,3.46,1.04,4.84c3.27,2.6,5.74,5.74,6.35,10.04c0.41,2.93,0.05,5.7-2.36,7.67c-2.49,2.03-5.24,1.43-7.96,0.34
		c-0.7-0.28-1.25-1.38-2.3-0.51c1.68,4.13,4.69,6.77,8.86,8.16c1.08,0.36,2.43,0.42,2.19,2.1c-0.27,1.91-1.84,1.06-2.77,1.08
		c-4.84,0.11-9.68,0.05-14.52,0.03c-3.97-0.02-7.94-0.06-11.9-0.1c-0.55-0.01-1.25,0.13-1.46-0.6c-0.2-0.7-0.02-1.35,0.66-1.74
		c0.59-0.34,1.18-0.66,1.78-0.98c4.81-2.61,6.71-6.42,5.96-11.75c-0.22-1.6-0.47-2.26-2.47-1.65c-7.79,2.38-15.6,2.43-23.3-0.61
		c-3.47-1.37-4.21-2.61-3.17-6.23c2.23-7.8,6.97-14.18,11.92-20.39c1.21-1.51,3.04-2.6,1.34-4.91c1.17,0.61,2.34,1.21,3.51,1.82
		C492.82,74.24,495.42,76.86,498.81,78.31z M511.62,89.05c7.6-8.41,8.83-17.81,4.55-28.99c-6.16,17.9-16.92,31.15-33.02,40.03
		C495.16,102.71,504,97.48,511.62,89.05z M495.41,81.18c-2.34-2.68-4.86-5.21-7.51-8.01c-0.16,1.55-1.09,2.48-1.9,3.52
		c-4.45,5.69-8.66,11.56-11.09,18.45c-1.13,3.2-0.15,4.26,3.15,3.27c7.6-2.27,13.55-7.15,18.97-12.72c0.9-0.92,2.24-1.61,2.64-3.92
		C497.54,83.59,496.56,82.5,495.41,81.18z M521.91,96.9c-1.44-3.33-3.84-4.08-7.08-2.37c-2.81,1.48-3.63,4.37-1.99,7.14
		c1.06,1.78,2.48,3.22,4.37,4.11c3.75,1.77,6.06,0.27,6.01-3.88C523.32,100.1,522.6,98.48,521.91,96.9z M508.01,103.08
		c-0.57-1.11-0.95-2.53-2.64-1.97c-1.48,0.49-0.86,1.88-0.66,2.74c1.08,4.64-0.15,8.56-3.94,12.24c5.18,0.51,9.82,0.18,14.68-0.1
		C511.3,112.56,510.26,107.47,508.01,103.08z"/>
	<path class="st12" d="M361.69,44.66c-3.27,5.4-5.35,10.98-4.29,17.55c2.71,16.78,22.53,25.07,36.28,15.02
		c10.08-7.37,12.48-19.52,5.97-30.28c-6.2-10.24-18.76-13.94-29.5-8.62c-1.59,0.79-3.48,1.19-4.5,2.88
		c1.15,1.89,3.01,3.13,4.44,4.76c0.23-0.29,0.43-0.64,0.71-0.87c4.97-3.98,15.01-3.66,20.05,0.63c6.5,5.52,8.17,13.87,4.18,20.89
		c-4.77,8.39-15.03,11.22-23.29,6.43c-8.61-5-10.9-14.88-5.51-23.79C365.17,47.28,363.31,46.09,361.69,44.66z"/>
	<path class="st12" d="M506.09,144.09c-0.11-1.9,0.59-2.65,2.54-2.97c6.3-1.05,12.7-2.21,18.45-4.9c5.01-2.35,9.17-2.62,14.27-0.22
		c5.66,2.67,12.02,3.62,18.17,4.93c2.03,0.43,2.92,1.31,2.9,3.49c-0.06,5.32-0.11,10.64-0.84,15.92
		c-2.23,16.12-9.79,28.73-24.22,36.85c-1.93,1.09-3.61,1.23-5.68,0.12c-7.08-3.8-12.77-9.06-16.98-15.86
		c-6.02-9.74-8.36-20.5-8.6-31.83C506.11,147.77,506.2,145.93,506.09,144.09z M519.19,183.36c3.69,4.91,8.48,8.42,13.58,11.66
		c1.17,0.74,1.9,0.37,2.87-0.16c12.32-6.76,19.46-17.29,22.47-30.83c1.32-5.93,1.46-11.97,1.71-18.01c0.07-1.74-0.57-2.32-2.2-2.66
		c-7.59-1.57-15.01-3.73-22.22-6.57c-0.52-0.2-0.95-0.53-1.61-0.21c-6.93,3.31-14.37,5.04-21.8,6.72c-2.26,0.51-3.3,1.55-2.99,3.92
		c0.15,1.14,0.03,2.32,0.03,3.48C509.3,162.55,511.89,173.66,519.19,183.36z"/>
	<path class="st12" d="M321.12,76.68c-5.88-0.39-11.37-2.2-16.59-4.79c-2.06-1.02-3.89-0.98-6.07-0.43
		c-9.75,2.49-18.96,1.42-27.36-4.54c-11.03-7.83-13.19-22.98-4.66-32.91c11.08-12.89,30.71-15.14,44.34-4.97
		c11.69,8.72,11.85,22.94,3.8,32.63c-1.1,1.33-1.06,2.25-0.43,3.56c2.03,4.19,4.68,7.93,8.04,11.1
		C321.87,76.93,321.47,76.7,321.12,76.68z M315.03,72.42c0.04-0.07-0.26-0.33-0.4-0.5c-0.8-1.31-1.64-2.59-2.39-3.93
		c-1.76-3.13-2.09-5.6,0.78-8.92c6.6-7.64,6.79-22.32-7.31-29.88c-11.24-6.03-25.15-4.53-34.68,4.04
		c-12.27,11.04-7.09,26.18,2.95,32.1c8.6,5.07,17.15,5.66,26.28,2.74c1.53-0.49,2.72-0.41,4.05,0.41c3.05,1.9,6.29,3.4,9.89,3.94
		C314.48,72.59,314.79,72.84,315.03,72.42z"/>
	<path class="st12" d="M371.45,269.24c-0.01-0.64,0.38-1.46-0.42-1.8c-0.79-0.33-1.1,0.41-1.55,0.94c-0.8,0.94-1.64,1.92-2.65,2.6
		c-1.92,1.29-3.83,0.45-4.24-1.83c-0.22-1.23-0.34-2.54-0.16-3.76c0.38-2.57-0.82-2.81-2.95-2.6c-6.72,0.67-6.73,0.6-6.71,7.31
		c0.03,10.94,0.07,21.87,0.12,32.81c0.01,3.11,0.04,2.82,3.16,2.29c1.58-0.27,3.41,0.87,5.18,1.39c0.36-0.73-1.35-1.58,0.35-2.22
		c0.89-0.34,0.49-1.75,0.5-2.68c0.13-8.67,0.28-17.34,0.29-26.01c0-1.73,0.14-2.46,2.22-2.63c1.67-0.13,3.68,0.41,5.14-1.04
		C369.49,270.57,371.14,270.32,371.45,269.24z"/>
	<path class="st12" d="M221.26,221.9c-4.16-0.1-8.32-0.2-12.47-0.25c-0.87-0.01-2.19-0.37-2.06,1.22c0.33,3.95-0.39,7.92,0.32,11.86
		c-0.55,2.82-2.21,3.98-5.14,3.73c-1.33-0.11-2.95-0.53-2.52,1.95c0.14,0.8-1.26,0.41-1.26,0.33c-0.09-2-1.75-0.73-2.75-1.21
		c1.81-2.4,0.48-4.04-1.61-3.62c-2.5,0.49-3.76-1.54-3.96-2.31c-0.63-2.44-2.52-2.34-4.11-2.99c-0.17-3.05,0.21-6.12-0.34-9.15
		c0.89-0.43,1.14-1.65,2.57-1.5c5.4,0.56,10.84,0.34,16.26,0.45c14.67,0.31,29.33,0.79,43.99,1.22c0.88,0.03,2.04-0.4,2.38,1
		C240.8,222.38,231.03,222.13,221.26,221.9z M200.09,237.47c0.06-0.16,0.2-0.35,0.16-0.46c-0.04-0.11-0.33-0.22-0.43-0.17
		c-0.11,0.05-0.13,0.29-0.19,0.45C199.78,237.35,199.94,237.41,200.09,237.47z"/>
	<path class="st12" d="M361.69,44.66c1.62,1.43,3.48,2.62,4.54,4.6c2.95,2.59,7.96,4.01,5.51,9.69c-0.1,0.24,0.01,0.57,0.05,0.86
		c0.63,4.6,5.15,7.74,10.03,6.97c4.68-0.74,7.72-4.93,7.02-9.68c-0.67-4.59-5.3-8.27-9.69-6.75c-3.47,1.2-5.11-0.31-7.04-2.32
		c-0.67-0.69-1.35-1.37-2.03-2.05c-1.44-1.63-3.29-2.86-4.44-4.76c-2.14-1.4-4.17-2.89-5.43-5.21c-1.72-0.98-3.28-2.15-4.44-3.79
		c-1.74-1.46-3.47-2.93-5.21-4.39c-2.33-0.36-2.87,1.07-2.96,2.96C352.31,35.41,357,40.03,361.69,44.66z"/>
	<path class="st12" d="M454.26,150.41c0.29,0.23,0.64,0.41,0.87,0.69c7.8,9.22,8.13,26.59-0.76,36.16c-2.2-0.31-1.32,0.85-0.84,1.79
		c0.5,0.98,1.6,1.77,0.94,3.1c-0.94,1.9-2.53,2.16-4.21,0.71c-0.69-0.6-1.39-1.73-2.38-0.92c-1.02,0.83,0.14,1.7,0.44,2.53
		c-1.24-0.13-2.32,0.04-3.53,0.64c-10.77,5.36-24.29,3.51-32.75-4.34c1.3-0.64,2.6-1.28,3.89-1.92c1.17,1.42,3,1.66,4.5,2.46
		c16.15,8.55,35.58-2.71,36.61-20.94c0.36-6.44-2.37-11.56-5.38-16.75C451.58,151.8,453.2,151.33,454.26,150.41z M417.2,191.31
		c0.02-0.3-0.15-0.53-0.5-0.39c-0.25,0.1-0.54,0.22-0.67,0.42c-0.25,0.38,0.14,0.42,0.38,0.52
		C416.8,191.86,417.17,191.79,417.2,191.31z"/>
	<path class="st12" d="M459.61,190.52c5.45,4.91,10.77,10.02,15.4,15.72c2.17,2.67,0.79,7.2-2.36,9.76
		c-3.12,2.53-5.66,2.43-8.75-0.41c-1-0.91-1.9-1.93-2.86-2.89c-3.21-3.22-6.48-6.38-9.62-9.67c-1.37-1.43-3.31-2.99-2.25-5.2
		c0.8-1.68,0.24-2.44-0.85-3.35c-0.3-0.83-1.46-1.7-0.44-2.53c0.99-0.81,1.69,0.32,2.38,0.92c1.68,1.46,3.27,1.19,4.21-0.71
		c0.66-1.33-0.44-2.12-0.94-3.1c-0.48-0.94-1.36-2.1,0.84-1.79C455.35,189.67,458.18,189.23,459.61,190.52z M463.51,202.66
		c-1.11,1.17-2.03,2.52-3.07,3.76c-0.35,0.41-0.58,0.74-0.12,1.21c0.38,0.4,0.77,0.55,1.24,0.17c1.94-1.59,3.89-3.16,5.81-4.77
		c0.47-0.4,0.73-0.96,0.23-1.51c-0.37-0.41-0.85-0.72-1.29-1.07C465.29,201.24,464.29,201.84,463.51,202.66z M456.06,201.91
		c1.95-1.55,3.84-3.17,5.69-4.83c0.86-0.77,0.16-1.33-0.43-1.86c-0.7-0.64-1.13-0.76-1.74,0.24c-0.89,1.47-2.18,2.64-3.54,3.72
		c-0.65,0.52-1.09,1.31-1.6,1.94C454.63,202.34,455.34,202.48,456.06,201.91z M472.48,206.27c-0.78-0.31-1.22,0.4-1.67,0.88
		c-1.6,1.68-3.19,3.38-4.76,5.08c-0.43,0.47-0.61,1.05-0.02,1.5c0.35,0.27,0.66-0.05,0.99-0.29c1.94-1.42,2.63-4.73,5.99-3.99
		c0.08-0.47,0.15-0.93,0.19-1.15C473.12,207.38,473.24,206.57,472.48,206.27z M464.38,199.39c0.23-0.32,0.21-0.73-0.12-1.04
		c-0.42-0.39-0.93-0.39-1.29-0.03c-1.74,1.76-4.02,2.98-5.25,5.25c-0.16,0.3-0.22,0.71-0.18,1.04c0.02,0.16,0.41,0.27,0.71,0.44
		C460.19,202.99,462.75,201.7,464.38,199.39z M468.76,203.92c-1.77,1.78-3.53,3.58-5.28,5.39c-0.44,0.45-0.7,0.98-0.08,1.47
		c0.5,0.4,0.88,0.01,1.24-0.31c1.73-1.55,3.47-3.08,5.19-4.64c0.42-0.38,0.89-0.84,0.49-1.49c-0.2-0.32-0.5-0.57-0.78-0.87
		C469.24,203.64,468.95,203.73,468.76,203.92z M458.34,193.87c0.37-0.41,1.11-0.64,0.56-1.32c-0.45-0.56-1.06-0.29-1.55,0.04
		c-2.51,1.64-4.57,3.72-6.07,6.36C454.11,197.85,456.37,196.06,458.34,193.87z"/>
	<path class="st12" d="M412.04,190.78c1.3-0.64,2.6-1.28,3.89-1.92c-1.73-2.18-3.6-4.26-5.15-6.56
		c-8.52-12.61-2.82-30.67,11.37-36.18c1.17-0.45,2.35-0.84,3.53-1.26c-0.19-0.95-0.37-1.79-1.64-1.94c-1.1-0.13-1.57-0.94-1.39-2.06
		c-10.8,3.95-18.22,11-20.08,22.74C400.88,174.26,403.81,183.49,412.04,190.78z"/>
	<path class="st12" d="M193.76,127.2c-0.79,1.77,0.74,1.12,1.3,1.12c7.05,0.01,14.1,0.19,21.14-0.13c9.95-0.45,19.89-0.3,29.83-0.46
		c2.61-0.04,5.23-0.09,7.84-0.18c2.54-0.09,3.92,0.69,3.83,3.64c-0.29,8.97-0.72,17.96-0.4,26.92c0.28,7.65,0.04,15.26-0.19,22.89
		c-0.07,2.37,0.77,3.5,3.21,3.16c0-4.25,0.01-8.5,0.01-12.76c-1.23,0.86-2.28,1.38-2.2-0.94c0.06-1.64-0.09-3.29,0.03-4.92
		c0.14-1.88,0.98-1.92,2.13-0.62c-0.03-3.21-0.05-6.42-0.08-9.64c-0.61-0.13-1.67,0.01-1.7-0.57c-0.04-1.01,1.07-0.65,1.71-0.83
		c-0.01-1.16-0.02-2.31-0.02-3.47c-0.52,0.63-1.1,0.66-1.62,0.06c-0.44-0.5-0.2-1.06,0.12-1.52c0.48-0.68,1.01-0.73,1.54-0.03
		c-0.02-3.49-0.03-6.98-0.05-10.47c-0.63-0.07-1.66-0.01-1.68-0.59c-0.04-0.99,1.05-0.67,1.7-0.84c-0.11-2.21-0.39-4.44-0.3-6.64
		c0.13-3-1.44-4.33-4.12-4.38c-5.59-0.1-11.18-0.06-16.77,0.03c-5.59,0.09-11.18,0.33-16.77,0.5c-1,1.05-2.03,1.11-3.11,0.11
		c-1.94,0.03-3.88,0.06-5.81,0.09c-0.38,0.6-0.76,0.72-1.16,0.02C206.05,127,199.89,126.59,193.76,127.2z"/>
	<path class="st14" d="M181.23,191.8c4.59,1.91,6.07-3.08,9.19-4.91c0.5-0.29,0.74-1.26,0.26-1.53c-2.7-1.56-3.72-5.64-7.81-5.14
		c-1.62,0.2-3.29-0.06-4.92,0.1c-1.57,0.16-3.35,0.18-3.75,2.38c-0.16,0.88-1.05,1.07-1.79,1.27c-0.98,0.26-1.44,0.9-1.51,1.87
		c-0.08,1.02,0.38,1.71,1.35,1.94c0.71,0.17,1.38,0.44,1.62,1.08C175.16,192.29,177.99,192.07,181.23,191.8z"/>
	<path class="st14" d="M216.37,191.84c6.89-0.27,6.34,1.4,6.35-6.66c0.01-3.94-0.99-4.92-4.88-4.91c-1.35,0-2.71,0.11-4.05,0.06
		c-2.13-0.09-4.01,0.25-5.17,2.31c-0.82,1.46-3.28,1.13-3.57,3.11c-0.34,2.3,2.51,1.76,3.12,3.3
		C209.74,192.99,213.23,191.61,216.37,191.84z"/>
	<path class="st14" d="M181.58,171.68c4.26,1.72,6.03-2.78,8.94-4.92c1-0.74,0.17-1.85-0.67-2.38c-1.31-0.83-2.64-1.55-3.27-3.11
		c-0.28-0.69-1.04-0.83-1.73-0.83c-2.8-0.01-5.65-0.31-8.39,0.11c-2.5,0.38-3.61,3.05-5.45,4.58c-0.23,0.19-0.06,1.41,0.24,1.57
		c2.95,1.61,4.19,6.37,8.84,4.91C180.33,171.51,180.65,171.62,181.58,171.68z"/>
	<path class="st12" d="M347.61,30.79c0.08-1.89,0.63-3.31,2.96-2.96c1.43-6.78-4.68-8.8-7.99-12.57c-0.74-0.84-1.84-0.51-1.86,0.64
		c-0.08,3.54-2.85,4.48-5.27,5.81c-2.69,1.48-2.71,1.7-0.29,3.71c0.45,0.37,0.99,0.67,1.32,1.12
		C339.29,30.36,343.05,31.61,347.61,30.79z"/>
	<path class="st14" d="M214.57,171.51c9.65,0.06,7.81,0.66,8.13-6.6c0.16-3.52-0.48-4.16-3.87-4.36c-2.31-0.14-4.63,0.01-6.94-0.09
		c-1.21-0.05-2.09,0.43-2.73,1.31c-0.75,1.03-1.6,1.8-2.75,2.43c-1.89,1.04-1.78,2.22,0.08,3.41c0.4,0.26,1.08,0.37,1.22,0.71
		C209.42,172.33,212.91,171.55,214.57,171.51z"/>
	<path class="st12" d="M427.8,161.51c-0.31,0.22-0.77,0.37-0.92,0.67c-1.61,3.14-3.32,5.83-7.18,2.48
		c-0.38-0.33-0.93-0.11-1.18,0.41c-0.27,0.54,0.02,0.97,0.43,1.23c1.3,0.8,2.61,1.63,3.99,2.26c0.53,0.24,1.24,0.38,1.15,0.94
		c-0.08,0.5-0.73,0.85-1.39,0.79c-1.33-0.12-2.24,0.83-3.27,1.4c-1.26,0.7-1.66,1.81-0.66,3.22c0.89-0.68,1.73-1.37,2.63-2
		c0.85-0.59,2.08-2.3,2.62-1.1c0.57,1.26,2.08,3.32,0,4.89c-1.63,1.23-1.99,2.99-2.05,4.86c-0.02,0.44-0.08,1.04,0.53,1.19
		c0.6,0.15,0.84-0.34,1.01-0.79c0.14-0.36,0.17-0.75,0.28-1.12c0.69-2.21,1.43-4.06,4.16-1.77c1.01,0.85,2.44,1.09,3.84,0.9
		c0.02-1.46,0.04-2.91,0.06-4.37c-1.02-3.72-0.56-7.43,0.07-11.14C432.37,160.96,429.83,161.59,427.8,161.51z"/>
	<path class="st12" d="M355.78,32.22c1.16,1.64,2.72,2.81,4.44,3.79c3.88-2.29,7.41-5.26,12.07-6c1.43-0.23,2.84-0.68,4.28-0.73
		c1.8-0.06,2.2-0.87,2.2-2.54c-0.01-4.46-0.17-4.65-4.75-3.78C367.04,24.28,360.74,26.93,355.78,32.22z"/>
	<path class="st12" d="M309.25,283.49c-1.72-0.08-3.35-0.75-3.9-2.72c-0.16-0.59,1.6-1.1,0.07-1.74c-1.4-0.59-0.58,1.44-1.77,1.35
		c-0.79-2.98,1.08-6.13-0.31-9.14c-0.88,0.4-0.26,2.55-1.68,1.67c-1.13-0.7-0.71-2.33-0.24-3.44c0.5-1.16,1.44-0.94,2.39-0.27
		c5.31,3.7,10.59,7.46,16.73,11.07C316.54,282.07,313.12,283.67,309.25,283.49z M306.63,274.79c-0.05,0.11,0.11,0.3,0.18,0.46
		c0.16-0.07,0.4-0.11,0.44-0.22c0.04-0.12-0.11-0.31-0.17-0.47C306.92,274.63,306.68,274.67,306.63,274.79z"/>
	<path class="st14" d="M450.33,78.94c0.79-20.46,6-30.54,21.72-42.72C459.83,40.72,445.57,57.5,450.33,78.94z"/>
	<path class="st12" d="M182.2,206.85c4.23,1.07,8.58,0.93,12.87,0.98c17.2,0.2,34.41,0.22,51.62,0.29c0.92,0,1.96,0.38,2.67-0.6
		c-16.53-1.11-33.09-0.65-49.64-1.03c-4.87-0.11-9.73-0.2-14.6-0.18C184.17,206.31,182.99,205.71,182.2,206.85z"/>
	<path class="st14" d="M427.8,161.51c2.03,0.08,4.56-0.55,4.12,2.96c2.78,0.04,1.1,2.49,1.94,3.58c2.25-0.68,2.89-3.31,5.01-4.14
		c-3.29-4.49,2.62-5.11,3.22-7.93c-1.95-0.34-5.01,1.38-6.01,3.42c-0.26,0.53,0.23,1.54-0.87,1.5c-0.29-0.01-0.72-0.35-0.83-0.64
		c-0.23-0.65-0.21-1.33,0.35-1.88c0.33-0.32,1.41-0.01,0.94-0.96c-0.42-0.86-1.27-1.27-2.2-1.02c-2.76,0.73-5.33,0.91-7.39-1.6
		c-0.36-0.44-1.07-0.58-1.54-0.02c-0.49,0.59-0.04,1.05,0.34,1.5c0.95,1.09,1.82,2.27,2.87,3.26
		C428.55,160.29,428.24,160.85,427.8,161.51z"/>
	<path class="st14" d="M461.63,73.15c0.88-13.79,8.96-22.56,20.56-29.37C469.27,45.46,457.62,62.83,461.63,73.15z"/>
	<path class="st12" d="M438.87,163.91c-2.12,0.84-2.76,3.46-5.01,4.14c0,0.52-0.01,1.04-0.01,1.56c1.49-0.14,1.67,1.07,1.9,2.01
		c0.51,2.17,1.46,3.6,3.99,3.01c1.18-3.65,1.19-3.67,4.37-1.33c1.08,0.8,2.07,1.72,3.1,2.58c0.57-2.37-0.28-3.38-5.72-6.65
		c1.55-1.04,3.32-1.64,4.55-3c-0.64-0.09-0.83-0.49-0.75-1.08c-0.34,0.15-0.72,0.25-1.02,0.46
		C441.7,167.43,439.85,167.06,438.87,163.91z"/>
	<path class="st12" d="M371.45,269.24c-0.32,1.08-1.96,1.34-1.72,2.76c2.7-1.86,3.46,0.25,4.5,2.09c0.93,1.65,1.54,3.59,3.44,4.53
		c1.01-1.19,0.16-4.13,3.21-3.64c0.07,0.01,0.3-0.37,0.26-0.43c-1.55-2.34,1.16-3.18,1.77-5.04
		C379,270.02,375.31,267.86,371.45,269.24z"/>
	<path class="st12" d="M283.64,79.15c-3.82,1.87-6.83,4-10.31,6.49c3.81,0.96,6.24,3.42,9.68,4.65
		C283.21,86.68,283.41,83.17,283.64,79.15z"/>
	<path class="st14" d="M439.73,174.63c-2.53,0.59-3.48-0.84-3.99-3.01c-0.22-0.95-0.41-2.16-1.9-2.01
		c-0.08,1.34-0.26,2.68-0.21,4.01c0.05,1.35-0.47,1.98-1.79,2c-0.02,1.46-0.04,2.91-0.06,4.37c2.17,0.54,4.16,0.27,5.81-1.35
		c1.72-1.69,2.67-0.8,3.36,0.95c0.21,0.53,0.2,1.16,0.45,1.66c0.41,0.84,0.12,2.59,1.62,2.16c1.19-0.34,0.7-1.84,0.52-2.81
		c-0.34-1.81-0.9-3.59-2.86-4.35C439.89,175.94,439.91,175.26,439.73,174.63z"/>
	<path class="st12" d="M451.67,153.64c-0.09-1.84,1.53-2.31,2.59-3.23c-2.39-3.58-5.97-5.67-9.55-7.78
		c-1.14,1.59-3.81,0.52-4.64,2.65C444.64,147.08,448.35,150.1,451.67,153.64z"/>
	<path class="st12" d="M438.13,126.79c-2.03,0.72-2.5,4.06-5.47,2.89c-0.49-0.19-0.77,0.71-0.4,1.32c0.22,0.37,0.9,0.6,0.47,1.17
		c-2.82,3.67,0.63,3.1,2.38,3.36c6.41,0.96,6.41,0.91,4.24-5.2C438.93,129.16,438.54,127.99,438.13,126.79z"/>
	<path class="st12" d="M526.07,252.81c-1.55,0.95-2.15-0.25-2.91-1.24c-0.9-1.18-1.81-1.87-2.57,0.18
		c-0.75,2.04-2.77,4.41-1.72,6.06c1.03,1.62,3.94,0.35,6.01,0.32c0.94-0.01,2.38,0.6,2.81-0.65c0.29-0.86-0.58-1.79-1.41-2.32
		c-1.24-0.8-0.41-1.39,0.11-2.03C526.28,253.03,526.17,252.92,526.07,252.81z"/>
	<path class="st12" d="M414.03,114.22c-2.41-0.48-4.28-1.14-5.96-2.32c-2.12-1.49-2.58-0.44-2.48,1.64c0.08,1.58,0.63,3.24-0.6,4.71
		c-0.52,0.62,0.06,1.02,0.56,1.35c0.88,0.58,1.79,0.81,2.54-0.14c0.84-1.06,1.57-1.83,3.06-0.84c0.8,0.54,1.46-0.47,1.07-0.98
		C410.61,115.54,412.95,115.43,414.03,114.22z"/>
	<path class="st14" d="M470.82,68.35c1.68-7.61,7.52-11.3,14.22-14.83C476.12,53.77,470.24,60.03,470.82,68.35z"/>
	<path class="st12" d="M440.07,145.28c0.83-2.13,3.49-1.06,4.64-2.65c-2.21-1.68-4.86-2.16-7.49-2.66
		c-0.81-0.15-2.21-0.88-2.22,0.71c-0.01,1.34-1.02,3.31,1.14,3.93C437.39,144.97,438.68,145.55,440.07,145.28z"/>
	<path class="st12" d="M422.66,140.85c-0.18,1.12,0.28,1.93,1.39,2.06c1.26,0.15,1.45,0.99,1.64,1.94c1.04-0.1,2.09-0.33,3.12-0.27
		c2.66,0.14,2.75-1.45,2.71-3.48c-0.05-2.59-1.91-1.71-3.06-1.59C426.49,139.7,424.46,139.84,422.66,140.85z"/>
	<path class="st12" d="M328.44,57.74c-2.04,0.89-3.6,1.54-5.12,2.26c-0.66,0.31-1.24,0.8-2.07,1.35c1.77,1.03,3.32,1.96,4.89,2.84
		c0.57,0.32,1.19,0.52,1.95,0.85c0.11-1.37-0.2-2.6,0.55-3.63C327.38,60.52,327.8,59.31,328.44,57.74z"/>
	<path class="st12" d="M479.47,66.19c0.02,1.41,0.32,2.72,1.7,3.4c1,0.49,1.56-0.41,2.2-0.95c0.46-0.4,0.83-0.93,0.37-1.49
		c-1.04-1.27-0.57-2.03,0.72-2.65c1.42-0.68,0.62-1.28-0.12-1.81c-0.95-0.68-2.04-0.73-3-0.18
		C479.98,63.3,479.55,64.69,479.47,66.19z"/>
	<path class="st14" d="M421.24,212.74c-0.43-0.8-0.62-1.24-0.88-1.63c-4.05-6.2-4.12-6.19-7.81,0.92c1.53,0.21,3.4-0.16,3.83,3.06
		C417.25,211.59,419.08,212.36,421.24,212.74z"/>
	<path class="st14" d="M273.85,104.09c-0.06,1,0.05,1.78,0.54,2.4c0.44,0.56,0.68,1.7,1.54,1.42c1.04-0.34,0.44-1.25,0.16-1.94
		c-0.54-1.34-0.18-2.22,1.3-2.54c0.46-0.1,0.94-0.25,1.35-0.49c1.07-0.64,1.38-1.8,1.73-2.88c0.2-0.6-0.38-0.78-0.87-0.87
		c-1.34-0.25-1.88,0.78-2.44,1.64c-0.53,0.82-0.92,1.64-2.1,1.67C273.9,102.52,273.65,103.3,273.85,104.09z"/>
	<path class="st12" d="M260.31,164.93c-1.15-1.31-2-1.26-2.13,0.62c-0.12,1.63,0.03,3.28-0.03,4.92c-0.08,2.32,0.97,1.8,2.2,0.94
		C260.71,169.25,260.67,167.09,260.31,164.93z"/>
	<path class="st14" d="M539.46,219.17c0.39,0.79-0.75,2.23,0.6,2.42c1.63,0.23,1.34-1.39,1.27-2.32c-0.1-1.36,1.17-3.62-0.89-3.82
		C539.29,215.34,539.69,217.83,539.46,219.17z"/>
	<path class="st14" d="M539.48,208.16c0.62,0.79-0.79,3.1,1.26,2.89c1.7-0.18,0.57-2.2,0.71-3.4c0.03-0.27-0.06-0.57-0.13-0.84
		c-0.17-0.68,0.09-1.76-0.99-1.75c-1.18,0-0.74,1.08-0.84,1.75C539.43,207.18,539.48,207.56,539.48,208.16z"/>
	<path class="st14" d="M528.53,251.15c2.1-1.26,2.99-2.97,4.1-4.47c0.41-0.55,0.05-0.88-0.36-1.16c-0.4-0.27-0.68-0.12-0.92,0.27
		C530.36,247.38,528.93,248.73,528.53,251.15z"/>
	<path class="st14" d="M398.52,281.36c0.63-0.06,1.68,0.43,1.85-0.59c0.18-1.07-0.98-0.92-1.64-1.07c-1.11-0.26-2.24-0.4-3.36-0.61
		c-0.59-0.11-1.19-0.17-1.41,0.54c-0.33,1.04,0.55,0.92,1.13,1.17C396.18,281.29,397.32,281.24,398.52,281.36z"/>
	<path class="st14" d="M534.01,241.56c0.14,0.16,0.36,0.61,0.61,0.62c0.28,0.02,0.7-0.29,0.86-0.57c1.01-1.69,2.15-3.34,2.04-5.44
		c-0.01-0.11-0.6-0.34-0.69-0.27c-1.5,1.41-1.86,3.45-2.81,5.17C534,241.16,534.02,241.27,534.01,241.56z"/>
	<path class="st14" d="M285.9,113.42c-2.53-1.1-4.29-1.89-6.08-2.62c-0.37-0.15-0.83,0.05-0.81,0.53c0.01,0.32,0.21,0.79,0.46,0.93
		C281.2,113.21,283,113.91,285.9,113.42z"/>
	<path class="st14" d="M432.49,63.99c-0.82,0-1.31-0.01-1.79,0c-0.51,0.02-1.04,0.16-0.98,0.77c0.05,0.51,0.52,0.78,1.06,0.79
		c0.48,0.01,0.97,0.04,1.45-0.02c1.16-0.14,3.23,0.79,3.25-0.61C435.51,63.44,433.31,64.34,432.49,63.99z"/>
	<path class="st14" d="M540.24,227.38c0.31-1.08,0.08-1.63-0.56-1.78c-0.63-0.14-0.71,0.47-0.83,0.93
		c-0.45,1.75-1.05,3.49-0.53,5.33c0.03,0.11,0.7,0.19,0.75,0.11C539.94,230.42,539.96,228.64,540.24,227.38z"/>
	<path class="st12" d="M383.91,275.95c1.49,2.48,3.56,2.42,5.2,3.12c0.16,0.07,0.57-0.36,0.8-0.62c0.03-0.04-0.24-0.5-0.44-0.57
		C387.84,277.29,386.19,276.74,383.91,275.95z"/>
	<path class="st14" d="M417.71,280.23c-0.87,0.42-3.05-0.5-2.9,0.98c0.15,1.52,2.17,0.6,3.39,0.59c0.28,0,0.57-0.05,0.85-0.11
		c0.68-0.15,1.88,0.19,1.8-0.85c-0.1-1.26-1.34-0.58-2.09-0.69C418.47,280.11,418.18,280.19,417.71,280.23z"/>
	<path class="st14" d="M420.05,123.85c-1.03-1.66-2.87-2.31-4.5-3.21c-0.4-0.22-0.75-0.07-0.9,0.34c-0.17,0.45,0.16,0.72,0.48,0.91
		c1.45,0.86,2.92,1.69,4.38,2.53C419.68,124.24,419.87,124.04,420.05,123.85z"/>
	<path class="st14" d="M429.46,128.16c-1.47-0.78-2.93-1.56-4.41-2.34c-0.45-0.24-0.93-0.32-1.22,0.21c-0.3,0.55,0.11,0.97,0.5,1.15
		C425.92,127.87,427.38,129,429.46,128.16z"/>
	<path class="st14" d="M471.13,166.35c-1.86-0.73-3.71-1.03-6.22-0.11C467.36,167.64,469.26,166.95,471.13,166.35z"/>
	<path class="st14" d="M491.99,165.62c-1.7,0-3.4-0.01-5.1,0c-0.41,0-0.78,0.13-0.79,0.62c-0.01,0.46,0.32,0.67,0.74,0.72
		c1.79,0.24,3.53,0.12,5.25-0.26C492.06,166.34,492.02,165.98,491.99,165.62z"/>
	<path class="st12" d="M310.46,287.91c0.94-0.24,0.03-3.59,2.31-1.09c0.3,0.33,0.57-1.33,0.94-2.05
		C309.21,284.91,309,285.1,310.46,287.91z"/>
	<path class="st14" d="M430.63,279.3c-2.02-0.5-3.97-0.5-6.17,1.17C427.09,280.97,428.89,280.4,430.63,279.3z"/>
	<path class="st14" d="M413.72,238.83c-0.48-0.08-0.63,0.29-0.81,0.6c-0.65,1.15-1.3,2.31-2.01,3.58
		C413.07,242.68,413.34,242.25,413.72,238.83z"/>
	<path class="st14" d="M415.71,228.14c-0.9,2.11-1.05,3.95-0.74,6.1C416.53,231.69,416.59,231.19,415.71,228.14z"/>
	<path class="st14" d="M481.45,166.33c-1.84-0.83-3.65-0.75-5.46-0.1C477.8,167.1,479.62,166.99,481.45,166.33z"/>
	<path class="st14" d="M410.47,280.63c-1.7,0-3.4,0-5.1,0c-0.38,0-0.8,0.06-0.87,0.5c-0.04,0.22,0.16,0.69,0.3,0.71
		c2.03,0.3,4.08,0.54,5.96-0.31C410.67,281.22,410.57,280.93,410.47,280.63z"/>
	<path class="st12" d="M257.09,222.69c-1.85-1.19-3.7-1.37-5.55,0.01C253.39,223.36,255.24,223.37,257.09,222.69z"/>
	<path class="st14" d="M416.46,217.69c-1.16,2.37-1.19,3.68-0.36,6.07C417.13,222.06,417.2,221.11,416.46,217.69z"/>
	<path class="st14" d="M502.25,166.17c-1.91-0.79-3.81-0.65-5.72,0.01C498.4,167.27,500.32,167.05,502.25,166.17z"/>
	<path class="st14" d="M445.23,65.09c-1.7-1.06-3.42-0.85-5.74-0.22C441.73,66.14,443.47,65.97,445.23,65.09z"/>
	<path class="st14" d="M425.33,64.55c-1.68-0.81-3.35-1.2-5.56,0.1C422,65.29,423.66,65.46,425.33,64.55z"/>
	<path class="st14" d="M445.28,165.15c-0.08,0.59,0.11,0.99,0.75,1.08c1.21-0.03,1.8-0.86,2.21-1.83c0.06-0.14-0.24-0.62-0.36-0.61
		C446.83,163.85,445.86,164.14,445.28,165.15z"/>
	<path class="st12" d="M260.25,148.93c-0.53-0.7-1.06-0.65-1.54,0.03c-0.33,0.47-0.57,1.02-0.12,1.52c0.53,0.6,1.11,0.57,1.62-0.06
		C260.48,149.93,260.51,149.43,260.25,148.93z"/>
	<path class="st12" d="M251.19,206.99c0.92,1.82,1.85,1.62,2.78,0.01C253.05,206.99,252.12,206.99,251.19,206.99z"/>
	<path class="st14" d="M219.16,126.64c1.07,0.99,2.11,0.94,3.11-0.11C221.22,126.16,220.17,125.9,219.16,126.64z"/>
	<path class="st14" d="M260.22,137.02c-0.65,0.17-1.74-0.16-1.7,0.84c0.02,0.58,1.05,0.52,1.68,0.59
		C260.51,137.98,260.5,137.5,260.22,137.02z"/>
	<path class="st12" d="M302.12,277.46c-0.35-0.93-0.96-1.14-1.63-1.18c-0.12-0.01-0.41,0.54-0.36,0.59
		C300.59,277.35,301.14,277.68,302.12,277.46z"/>
	<path class="st12" d="M260.23,153.89c-0.64,0.19-1.75-0.17-1.71,0.83c0.03,0.59,1.08,0.44,1.7,0.57
		C260.49,154.83,260.56,154.36,260.23,153.89z"/>
	<path class="st12" d="M317.37,295.24c-0.19,0.12-0.67,0.25-0.76,0.5c-0.18,0.54,0.36,0.57,0.72,0.61c0.38,0.05,0.84,0.01,0.95-0.42
		C318.42,295.39,317.91,295.38,317.37,295.24z"/>
	<path class="st12" d="M332.63,299.4c-0.11,0.14-0.36,0.32-0.38,0.52c-0.05,0.45,0.31,0.64,0.69,0.56c0.2-0.04,0.47-0.31,0.49-0.51
		C333.5,299.5,333.12,299.41,332.63,299.4z"/>
	<path class="st12" d="M299.94,273.53c-0.37,0.19-0.96,0.2-0.89,0.83c0.02,0.16,0.47,0.44,0.57,0.38c0.3-0.17,0.6-0.43,0.76-0.73
		C300.53,273.72,300.34,273.49,299.94,273.53z"/>
	<path class="st12" d="M318.45,292.85c-0.31,0.18-0.67,0.27-0.74,0.46c-0.17,0.44,0.14,0.75,0.56,0.74c0.2,0,0.52-0.28,0.57-0.48
		C318.88,293.39,318.62,293.14,318.45,292.85z"/>
	<path class="st12" d="M292.46,268.06c0.39,0.12,0.65,0.29,0.81,0.22c0.21-0.09,0.33-0.37,0.49-0.56c-0.22-0.09-0.46-0.27-0.66-0.23
		C292.92,267.52,292.76,267.78,292.46,268.06z"/>
	<path class="st12" d="M310.43,289.04c-0.12,0.12-0.32,0.22-0.33,0.33c-0.02,0.33,0.2,0.49,0.51,0.39c0.11-0.04,0.22-0.3,0.2-0.44
		C310.78,289.22,310.56,289.14,310.43,289.04z"/>
	<path class="st12" d="M326.63,296.58c-0.11,0.13-0.29,0.26-0.3,0.39c-0.03,0.35,0.22,0.52,0.53,0.41c0.12-0.04,0.23-0.31,0.21-0.46
		C327.05,296.8,326.82,296.72,326.63,296.58z"/>
	<path class="st12" d="M334.65,302.18c-0.13-0.11-0.26-0.31-0.39-0.31c-0.34,0-0.47,0.26-0.34,0.55c0.05,0.11,0.33,0.22,0.46,0.18
		C334.5,302.57,334.56,302.34,334.65,302.18z"/>
	<path class="st12" d="M326.14,294.08c0.04,0.45-0.03,0.99,0.65,1c0.11,0,0.33-0.22,0.32-0.34c-0.02-0.68-0.56-0.6-1.01-0.62
		C326.1,294.12,326.14,294.08,326.14,294.08z"/>
	<path class="st12" d="M313.9,294.31c-0.11,0.13-0.31,0.25-0.31,0.38c0,0.35,0.27,0.46,0.55,0.33c0.11-0.05,0.22-0.32,0.18-0.46
		C314.29,294.46,314.06,294.4,313.9,294.31z"/>
	<path class="st14" d="M212.19,126.75c0.4,0.7,0.78,0.59,1.16-0.02C212.95,126.26,212.57,126.26,212.19,126.75z"/>
	<path class="st12" d="M312.35,289.5c0.13,0.11,0.25,0.3,0.38,0.3c0.33-0.01,0.46-0.25,0.34-0.54c-0.05-0.11-0.32-0.21-0.45-0.17
		C312.5,289.12,312.44,289.35,312.35,289.5z"/>
	<path class="st12" d="M289.29,266.62c-0.06,0.02-0.17,0.05-0.17,0.07c-0.01,0.07,0.04,0.15,0.06,0.22
		c0.06-0.02,0.17-0.05,0.17-0.07C289.36,266.77,289.31,266.7,289.29,266.62z"/>
	<path class="st12" d="M526.4,253.13c0.06-0.22,0.22-0.6,0.16-0.64c-0.3-0.19-0.43,0.04-0.49,0.32
		C526.17,252.92,526.28,253.03,526.4,253.13z"/>
	<path class="st12" d="M21.82,205.28c0.12-0.09,0.23-0.17,0.35-0.26c-0.05-0.06-0.1-0.11-0.14-0.17c-0.03,0.13-0.07,0.27-0.11,0.41
		C21.91,205.26,21.82,205.28,21.82,205.28z"/>
	<path class="st5" d="M125.75,253.81c5.43,2.51,10.22,10.99,9.45,17.13c-2.31-3.25-3-7.09-5.42-10.02
		c0.89,3.92,1.26,7.94,2.79,11.68c3.21,7.89,7.84,15,12.47,22.06c4.76,7.26,5.9,17.88-0.68,25.6c-1.66,1.95-3.53,4.56-6.92,3.05
		c-0.7-0.31-0.52,0.31-0.58,0.55c-0.28,1.22-0.67,2.44-0.73,3.68c-0.06,1.26-0.59,1.87-1.72,2.34c-1.7,0.7-3.37,1.48-4.94,2.43
		c-1.9,1.15-2.39,0.49-2.2-1.42c0.37-3.66,0.62-7.33,0.46-11.01c-0.29-6.53-0.56-13.07-2.48-19.4c-0.16,0.65-0.25,1.31-0.15,1.93
		c1.65,9.86,2.23,19.75,1.28,29.73c-0.11,1.2-0.33,1.86-1.53,2.38c-4.08,1.76-8.13,3.6-12.08,5.62c-1.67,0.85-3.31,1.3-5.38,1.48
		c1.25-2.77,3.62-4.44,5-6.81c1.42-2.44,2.87-4.87,4.37-7.41c-0.51-0.05-0.77-0.15-0.87-0.07c-0.52,0.42-1.01,0.88-1.48,1.35
		c-4.57,4.66-9.55,8.81-15.72,11.13c-8,3.01-12.84,0.3-14.93-7.13c-1.6-5.68-2.26-11.53-2.7-17.39c-0.17-2.28,0.07-4.62,0.95-6.82
		c3.58-8.93,3.63-18.07,1.54-27.32c-0.37-1.63-0.8-3.3-2.01-4.67c0.59,8.84,0.33,17.5-3.39,25.68c-0.27-6.61-0.64-13.15-2.45-19.52
		c-2.76-9.74-6.77-18.71-15.13-25.1c-3.08-2.36-6.45-3.92-10.27-4.6c9.44,5.29,15.39,13.4,18.94,23.33
		c2.78,7.78,3.77,15.95,4.58,24.13c0.73,7.29,1.47,14.58,2.22,21.86c0.61,5.97,1.25,11.95,1.94,18.5
		c-5.99-4.71-9.69-10.52-14.06-15.73c-3.83-4.58-7.59-9.26-13.02-12.13c-0.99-0.52-2.27-1.43-3.16-0.44
		c-0.79,0.88,0.3,2.15,0.42,3.27c0.03,0.31,0.52,0.55,0.73,0.87c3.74,5.75,9.04,10.02,13.91,14.7c1.99,1.92,4.47,3.38,6.09,6.48
		c-9.15-3.31-17.73-6.77-27.19-5.16c10.43,2.17,20.26,5.71,29.85,11.94c-7.4,0.76-13.71,2.37-19.16,6.32
		c-1.19,0.86-1.51,0.34-2.26-0.44c-6.07-6.37-11.06-13.58-16.08-20.76c-3.37-4.81-5.98-9.63-5.98-16.01
		c0-11.47-2.48-22.84-2.5-34.35c-0.01-7.36,0.65-14.63,4.56-21.25c3.22-5.46,7.97-8.99,13.3-12.13c4.01-2.37,8.07-3.2,12.49-2.09
		c4.67,1.17,9.2,0.85,13.6-1.01c0.79-0.33,1.25-0.7,1.85,0.29c3.67,6.01,3.29,13.79-0.97,18.97c-0.58,0.7-2.11,1.14-1.58,2.11
		c0.4,0.73,1.8,1.19,2.79,1.28c5.97,0.53,11.68-0.96,16.47-4.26c2.82-1.94,3.98-1.43,5.58,0.83c0.44,0.63,1.03,1.16,1.54,1.73
		c9.43,10.6,18.86,21.2,28.29,31.8c-0.14,0.13-0.27,0.26-0.41,0.4c-0.34-0.05-0.68-0.1-1.02-0.15c0.01-0.39-0.22-0.55-0.58-0.59
		c-0.23-0.55-0.61-0.77-1.2-0.54c-0.01-0.08-0.01-0.17-0.02-0.25c0.02,0.07,0.04,0.15,0.06,0.22c0.25,0.49,0.59,0.78,1.17,0.56
		c-0.07,0.46,0.19,0.59,0.58,0.58c0.36,0.86,1,1.64,1.9,1.45c0.94-0.2,1.05-1.24,1.11-2.12c0.07-1.06,0.28-2.12,0.2-3.16
		c-0.69-9.19-1.71-18.34-3.91-27.3c-2.1-8.55-3.42-17.6-11.78-22.99c-0.6-0.39-1.06-1.05-0.68-1.72c0.38-0.67,1.04-0.14,1.54,0.04
		c4.45,1.59,7.91,4.29,9.97,8.67c2.57,5.47,4.26,11.26,6.11,17.54c0.56-4.5-0.82-8.19-1.32-12
		C125.41,254.1,125.58,253.96,125.75,253.81z M126.87,267.18c0.08,0.05,0.16,0.1,0.24,0.16c-0.02-0.08-0.05-0.16-0.07-0.24
		C126.98,267.12,126.92,267.15,126.87,267.18z"/>
	<path class="st1" d="M167.82,309.91c8.29-0.91,15.73-3.33,23.16-5.79c3.76-1.25,7.43-2.82,11.4-3.32c1.43-0.18,2.9-0.33,4.33-0.22
		c4.15,0.32,5.29,2.36,3.45,6.34c1.05-0.18,1.98-0.37,2.92-0.48c1.96-0.24,3.8,0.15,4.69,2.06c0.89,1.91,0.1,3.76-1.47,4.9
		c-1.69,1.23-2.65,2.43-2.26,4.66c0.25,1.39-0.76,2.55-1.67,3.58c-2.1,2.39-4.6,4.2-6.28,7.25c-1.92,3.48-5.5,6.26-9.13,8.33
		c-8.14,4.64-16.22,9.43-24.93,12.97c-5.31,2.16-10.94,2.3-16.58,2c-1.17-0.06-2.41-0.29-3.38,0.41c-1.04,0.74-2.96,0.96-2.29,3.05
		c0.58,1.83,1.73,2.55,3.7,2.33c7.4-0.83,14.82-1.57,22.23-2.34c14.62-1.51,29.23-3.29,43.88-4.41c6.22-0.48,9.87-2.36,12.87-8.46
		c11.1-22.54,23.08-44.65,34.72-66.93c1.83-3.51,3.57-7.07,5.35-10.62c1.03-2.06-0.22-4.36-2.54-4.38
		c-6.67-0.07-13.34-0.03-20.05-0.03c-0.24,0.42,0.13,0.8,0.29,1.24c1.01,2.89,0.12,4.23-3,4.24c-6.29,0.02-12.58-0.07-18.88-0.11
		c-3.68-0.03-7.36-0.02-11.04-0.09c-4.81-0.09-5.56-1.19-3.95-6.08c-6.37,0-12.63-0.03-18.9,0.02c-2.33,0.02-3.58,1.05-4.56,3.49
		c-2.44,6.09-5.45,11.95-8.3,17.88C177.12,290.77,172.55,300.14,167.82,309.91z"/>
	<path class="st1" d="M134.56,211.65c0.53-0.15,1.13-0.98,1.69,0c-1.57,2.5-1.62,5.29-1.71,8.11c-0.13,3.83-1.68,5.38-5.5,5.71
		c-2.32,0.2-4.64,0.14-6.91-0.54c-10.89-3.31-21.28-7.63-30.42-14.59c-0.43-0.33-0.82-0.9-1.58-0.36
		c3.76,7.25,9.73,12.57,15.65,17.92c1.14,1.03,1.62,1.79,1.12,3.36c-1.52,4.79-1.41,9.75-1.01,14.67c0.16,1.97,0.67,3.95,2.01,5.68
		c0.9-1.38-0.35-3.69,1.07-3.96c1.46-0.27,2.81,1.46,3.96,2.63c1.01,1.03,1.8,2.21,2.32,3.62c2.54,6.94,3.75,14.19,5.11,21.41
		c0.88,4.69,1.68,9.4,1.9,14.91c-1.48-1.73-2.5-2.95-3.55-4.14c-7.93-9.01-15.6-18.25-23.9-26.92c-1.07-1.12-1.58-2.04-0.54-3.7
		c2.08-3.3,2.5-7.02,1.8-10.9c-0.9-4.99-3.49-9.19-6.15-13.34c-5.72-8.92-8.41-18.58-7.73-29.2c0.11-1.76,0.61-1.72,1.9-1.03
		c0.55,0.29,1.25,1.66,1.69,0.74c1.09-2.24,1.66-0.28,2.11,0.19c4.72,4.97,10.12,9,16.4,11.72c2.15,0.93,3.08,3.19,4.71,4.11
		c3.13,1.76,6.85,2.5,10.34,3.57c1.48,0.46,2.67-0.12,3.37-1.53c0.72-1.45,1.29-3.23-0.05-4.31c-3.54-2.88-7.98-4.62-12.3-4.16
		c-2.42,0.26-4.16-0.03-6-1.02c-2.46-1.33-4.85-2.81-7.17-4.38c-4.13-2.8-7.18-6.54-9.33-11.06c-0.47-0.99,0.04-1.42,0.51-2
		c4.08-5.01,5.91-10.77,5.81-17.2c-0.01-0.78-0.42-1.75,0.69-2.38c2.08,2.99,1.42,6.03,0.32,9.09c-0.43,0.16-0.59,0.58-0.33,0.84
		c0.35,0.35,0.55-0.17,0.79-0.36c2.08-2.2,3.34-4.81,3.15-7.85c-0.16-2.55,0.69-3.54,3.23-3.04c0.66,0.13,1.35,0.06,2.03,0.09
		c6.61,0.3,6.61,0.3,7.65,6.82c0.12,0.76,0.29,1.52,0.47,2.27c0.81,3.23,2.88,5.21,6.13,5.83c1.8,0.34,3.64,0.56,5.47,0.64
		c5.84,0.24,8.41-1.58,10.54-7.03c0.67-1.7,0.73-3.74,2.65-5.44c1.17,5.61,3.2,10.48,6.65,14.58c1.71,2.03,0.67,3.04-0.97,4.01
		c-1.24,0.74-2.71,1.08-3.71,2.2c-0.35,0.39-1.22,1.11-0.64,1.32c3.43,1.28,0.63,3.53,0.89,5.26c0.06,0.41-0.12,1.27-1.26,0.92
		c-2.73-0.85-5.56-0.33-8.35-0.22c-2.33,0.09-4.63,0.07-6.85-0.84c-1.65-0.68-3.47-1.14-2.13-3.71c-4.58,1.44-5.14,2.45-3.39,6.1
		c0.77-2.36,1.97-2.34,3.63-0.97c1.02,0.84,2.31,1.34,3.48,2C125.4,209.19,131.29,212.55,134.56,211.65z M132.49,194.87
		c2.69,0.4,4.48,0.03,6.22-0.79C136.76,193.2,135,193.73,132.49,194.87z"/>
	<path class="st5" d="M89.76,359.11c0.2-0.08,0.39-0.16,0.59-0.24c13.16-10.88,28.14-18.54,43.97-24.76
		c2.28,9.8,5.64,19.3,11.3,27.9c2.74,4.17,2.62,4.31-2.06,6.03c-10.33,3.78-20.69,7.49-30.67,12.15c-5.79,2.7-11.79,4.85-17.82,6.92
		c-2.49,0.85-4.55,0.65-6.59-1.13c-2.46-2.15-5.1-4.09-7.67-6.11c-9.25-7.3-17.98-15.17-25.92-23.91c-0.96-1.05-1.15-1.62,0.13-2.43
		c6.92-4.41,14.58-5.72,23.3-5.83c-8.46,4.79-11.89,7.7-13.05,11.28c10.63-5.53,20.61-12.03,33.58-11.59
		c-3.49,3.89-6.7,7.11-8.85,11.13C89.91,358.71,89.83,358.91,89.76,359.11z M89.3,360.09c-0.44-0.24-0.33,0.09-0.32,0.31
		c-0.11,0.08-0.22,0.16-0.33,0.24c0.06-0.01,0.16,0.01,0.19-0.02c0.05-0.07,0.07-0.17,0.1-0.26
		C89.06,360.26,89.18,360.17,89.3,360.09z"/>
	<path class="st1" d="M199.81,332.15c-7.59,1.2-14.23,5.81-22.13,6.28c-0.03-1.6,1.18-1.38,1.84-1.72
		c6.89-3.51,14.73-4.72,21.36-8.94c3.43-2.19,6.43-4.92,9.77-7.21c1.07-0.73,1.45-1.77,0.88-3.33
		c-10.46,6.57-21.81,10.61-33.89,12.68c4.55-3.04,9.72-4.6,14.87-6.12c7.81-2.32,14.58-6.61,21.27-11.05
		c1.07-0.71,2.66-1.53,1.79-3.16c-0.88-1.64-2.55-1.09-3.9-0.56c-5.04,1.97-10.04,4.04-15.06,6.05c-4.05,1.62-8.22,2.85-12.47,3.81
		c-1.83,0.42-3.69,0.6-5.61-0.51c3.67-1.3,7.36-2.54,11-3.91c5.97-2.25,11.77-4.9,17.41-7.89c1.07-0.57,2.63-1.12,2.24-2.64
		c-0.45-1.76-2.19-1.31-3.46-1.18c-5.23,0.56-10.22,2.19-15.1,3.99c-9.87,3.64-20.07,5.66-31.45,7.14
		c6.78-3.33,7.57-9.77,11.1-15.08c-3.46,0.63-6.39,0.87-7.85,4.09c-0.34,0.75-1.08,1.4-1.79,1.87c-6.82,4.57-10.3,11.67-13.92,18.6
		c-1.88,3.61-4.93,5.94-7.97,8.28c-1.55,1.2-1.99,2.29-1.43,4.13c1.68,5.57,3.79,10.96,6.07,16.3c0.61,1.43,1.17,1.38,2.32,0.67
		c3.96-2.45,8.2-3.65,12.96-3.34c5.3,0.34,10.45-0.93,15.21-3.14C182.78,342.11,191.63,337.82,199.81,332.15z"/>
	<path class="st1" d="M117.41,145.25c0.41,2.97-2.89,4.57-2.93,7.64c2.67-1.71,4.76-3.64,6.18-6.25c1.43-2.62,1.91-5.51,2.29-8.65
		c3.23,1.55,6.25,2.84,9.1,4.43c2.97,1.65,5.85,3.59,7.21,6.89c2.12,5.18,3.03,10.59,2.41,16.2c-0.31,2.8-2.2,4.11-4.98,3.4
		c-0.93-0.23-1.83-0.64-2.68-1.09c-3.68-1.92-7.59-2.67-11.72-2.85c-7.27-0.32-14.51,0.33-21.77,0.32c-2.16,0-2.49-0.69-2.01-2.49
		c0.85-3.18,2.8-5.57,5.65-7.03c5.14-2.63,10.03-5.51,13.32-10.47C117.47,145.32,117.41,145.25,117.41,145.25z M116.57,161.36
		c2.71-0.79,5.13-0.18,7.5,1.16c1.34,0.76,2.77,1.36,4.14,2.07c2.09,1.08,3.3-0.02,4.2-1.72c0.61-1.14,0.42-2.01-1.02-2.39
		c-2.8-0.74-5.56-1.64-8.38-2.3c-3.62-0.85-6.36,0.99-9.3,3.03C114.94,161.96,115.8,161.58,116.57,161.36z"/>
	<path class="st5" d="M114.9,403.89c5.77,3.33,11.28,6.63,16.92,9.72c4.29,2.35,8.75,4.38,13.08,6.65c1.36,0.71,1.71,0.34,1.71-1.01
		c-0.01-4.43,0.26-8.85-0.52-13.27c-1.33-7.58-2.42-15.2-3.69-23.34C133.64,390.38,124.62,397.08,114.9,403.89z"/>
	<path class="st14" d="M59.56,190.02c0,0-0.24-0.02-0.24-0.02l-0.02-0.24c0.17-1.49-0.21-2.84-0.99-4.12
		c-4.73-7.72-3.71-16.44,2.66-23.16c0.57-0.6,1.43-1.07,1.23-2.13l-0.03,0.05c0.3-0.11,0.9,0.05,0.6-0.63
		c1.7-1.97,4.12-2.43,6.45-2.83c9.48-1.64,19.6,4.7,20.96,15.81c1.57,12.86-3.42,20.06-15.91,22.82
		c-5.17,1.14-10.03-0.67-13.78-4.72C60.17,190.58,59.86,190.3,59.56,190.02z M70.83,160.53c-7.76,0.1-13.93,7.09-13.82,15.63
		c0.13,9.38,6.82,16.01,15.95,15.82c7.48-0.16,13.43-7.26,13.28-15.82C86.08,166.96,79.63,160.41,70.83,160.53z"/>
	<path class="st12" d="M37.23,240.63c-0.17-1.36,0.77-2.12,1.59-2.93c2.83-2.8,6.19-4.9,9.56-6.97c3.48-2.14,6.59-4.65,8.84-8.13
		c1.47-2.28,2.77-4.62,3.96-7.07c1.2-2.47,1.09-5.22,2.01-7.92c0.91,8.4-2.21,15.51-6.11,22.42c9.82-6.24,11.23-16.88,14.26-26.76
		c-0.67,6.49,2.06,12.48,2.24,18.81c0.07,2.47,0.06,5.1,0.99,7.66c1.7,4.7,3.15,9.51,3.67,14.54c0.27,2.64-0.23,6.58-1.57,8.56
		c1.02-6.3-1.49-11.69-3.25-17.15c-1.73-5.36-3.14-10.75-3.89-16.38c-0.58,0.5-0.77,0.92-0.91,1.36
		c-2.68,8.35-7.72,13.86-16.98,14.68c-3.25,0.29-6.47,1-9.49,2.42c-1.73,0.81-3.01,2.39-4.95,2.81L37.23,240.63z M56.28,230.42
		l-0.2,0.03l0.12,0.17L56.28,230.42z"/>
	<path class="st14" d="M102.13,117.26c-14.28-4.09-23.39,2.67-28.32,14.99c-2.4,6-3.39,12.44-4.04,18.9
		c-0.21,2.08,0.7,2.39,2.44,2.42c4.56,0.09,4.57,0.15,5.27-4.29c0.78-4.96,1.65-9.87,3.49-14.61
		C84.73,124.95,90.68,118.03,102.13,117.26z"/>
	<path class="st12" d="M95.92,137.15c1.98,0.13,3.27-1.85,5.25-1.73c0.02-0.25,0.05-0.51,0.07-0.76c0.13,0.06,0.25,0.11,0.38,0.17
		c-0.16,0.19-0.33,0.37-0.49,0.56c-0.11,2.22-2.18,3.05-3.23,4.61c-0.69,1.02-1.43,2.01-1.94,3.23c7.38-2.75,13.53-6.93,17.09-14.49
		c-1.73-0.91-3.46,0.12-5.17,0.27c-0.39-1.47,1.38-1.25,1.47-2.33c-3.78-0.88-7.55-0.94-11.39,0.56c0.5-1.38,0.5-1.38,5.94-3.6
		c-8.02-3.03-12.44,0.12-16.13,7.11l0,0c3.05-1.14,5.5-3.72,9.17-3.68c-2.31,2.44-4.62,4.8-6.34,8.35c2.14-1.49,3.8-2.76,5.58-3.83
		c1.78-1.08,3.69-1.95,6.19-2.57C100.51,132.34,96.72,133.59,95.92,137.15z"/>
	<path class="st1" d="M115.36,171.88c3.24-1.73,5.88-3.78,9.5-3.05c2.54,0.52,3.71,1.81,3.66,4.33c-0.01,0.72-4.07,4.82-4.8,4.84
		c-1.55,0.04-2.12-0.99-2.59-2.26c-0.42-1.14-0.29-2.27-0.19-3.5c-1.91-0.55-3.45,2.4-5.42,0.55c-0.16,0.21-0.38,0.41-0.46,0.65
		c-0.09,0.27-0.04,0.58-0.08,0.86c-1.05,8.37,5.44,13.15,13.36,9.85c1.03-0.43,1.8-1.15,2.25-2.16c1.18-2.67,2.02-5.41,2.25-8.35
		c0.19-2.37-0.84-3.75-3-4.23c-3.55-0.79-7.11-1.61-10.8-1.44C116.39,168.09,115.95,168.51,115.36,171.88z"/>
	<path class="st12" d="M50.83,193.68c0.33,12.67-6.2,20.6-17.32,25.44c-6.88,2.99-12.14,7.38-13.49,15.31
		c-0.41,2.38-0.02,4.56,0.65,7.18c0.98-11.02,8.07-16.7,16.97-20.3c11.36-4.6,14.95-15.29,13.57-25.4
		C51.11,195.16,50.96,194.42,50.83,193.68z"/>
	<path class="st12" d="M80.25,259.83c5.48-1.55,7.56-5.9,8.03-10.88c0.82-8.67-1.13-16.79-6.45-23.89c-0.15-0.2-0.47-0.29-1-0.6
		c0.01,3.96,2.24,7.25,2.39,11.63c-3.61-5.14-6.07-10.15-8.46-15.42c-1.27,1.07-0.62,1.83-0.39,2.58c1.8,5.73,5.4,10.6,7.56,16.19
		c2.61,6.74,2.65,13.11-1.38,19.29c-0.2,0.3-0.23,0.71-0.34,1.07L80.25,259.83z"/>
	<path class="st14" d="M241.21,262.08c2.44,0.57,4.6,0.6,7.03,0.34c-1.09-2.55-2.12-4.89-3.1-7.26c-0.47-1.13-1.45-0.78-2.24-0.83
		c-7.03-0.44-14.07-0.27-21.1-0.33c-1.8-0.01-2.86,0.47-3.53,2.17c-0.74,1.86-1.7,3.63-2.79,5.91c2.16,0,4.03,0,5.9,0
		c0.62,0,1.18-0.14,1.19-0.92c0.05-2.7,1.64-2.16,3.54-2.04c3.94,0.26,7.91,0.05,11.87,0.03c0.7,0,1.38-0.16,1.84-0.7
		c0.67-0.79,1.37-2.13,2.41-0.87c0.8,0.96,1.24,2.48-0.39,3.49C241.62,261.2,241.54,261.53,241.21,262.08z"/>
	<path class="st12" d="M137.2,131.33c-1.18,0.57-2.24-1.21-3.87,0.06c3.04,1.97,5.08,4.82,7.83,6.84c4.9,3.61,6,8.74,6.36,14.29
		c-2.33-5.46-5.15-10.55-9.89-14.35c-4.68-3.75-10.27-5.53-16.11-6.82c0.09-0.29,0.19-0.58,0.28-0.87c1.7-0.14,3.41-0.28,5.11-0.43
		c0.05-0.23,0.1-0.46,0.15-0.69c-5.51-1.1-9.8-4.51-14.65-7.06c0.88-0.51,1.68-0.7,2.59-0.53c3.41,0.62,6.88,1.03,10.08,2.42
		c2.17,0.95,4.69,1.24,6.17,3.57C132.59,129.88,135.78,129.18,137.2,131.33L137.2,131.33z M132.93,130.58l-0.03-0.18l-0.19,0.12
		L132.93,130.58z"/>
	<path class="st12" d="M52.7,148.92c1.36-4.11,3.13-7.92,5.69-11.34c0.46-0.62,0.92-1.24,1.44-1.81c0.43-0.46,1.02-0.63,1.53-0.17
		c0.47,0.43,0.05,0.86-0.19,1.26c-1.48,2.5-2.22,5.24-2.61,8.12c3.05-5.26,6.45-10.16,11.53-13.67c1.09-0.75,1.14-2.19,1.61-3.33
		c0.99-2.42,2.35-4.61,4.06-6.63C65.9,120.23,52.31,136.36,52.7,148.92z"/>
	<path class="st12" d="M176.95,369.34c9.67,3.65,18.07-0.36,25.73-12.12c-4.13-0.82-6.51-0.46-9.55,1.9
		C188.1,363.02,182.33,365.74,176.95,369.34z"/>
	<path class="st12" d="M114.84,128.87c-1.45,3-1.11,6.4-2.61,9.29c-2.68,5.14-7.65,7-12.63,8.91c-4.32,1.66-8.43,3.67-9.93,9.2
		c3.13-1.99,5.2-4.87,8.59-5.76c2.69-0.71,5.32-1.69,7.98-2.54c6.25-1.99,9.37-6.98,11.36-12.64
		C118.46,132.88,116.89,130.53,114.84,128.87z"/>
	<path class="st1" d="M153.58,307.02c2.68-2.03,5.38-3.44,7.11-5.99c0.75-1.1,2.08-2.32-0.88-2.55c1.41-1.27,2.73-0.84,3.93-0.85
		c1.23-0.01,2.28-0.38,2.24-1.64c-0.05-1.47,2.58-3.07-0.15-4.41c-4.72-2.32-7.63-2.22-9.23,0.8
		C154.27,296.82,152.71,301.54,153.58,307.02z"/>
	<path class="st1" d="M161.2,273.74c1.28,2.66,2.44,5.09,3.61,7.51c0.96,1.99,2.14,3.9,2.84,5.98c0.7,2.06,2.14,1.36,3.16,0.96
		c1.58-0.61,0.13-1.65-0.15-2.3c-1.8-4.15-3.76-8.22-5.61-12.35c-0.49-1.1-1.14-1.45-2.24-0.93
		C162.14,272.92,161.34,273.08,161.2,273.74z"/>
	<path class="st1" d="M124.36,205.8c1.04,3.4,6.93,6.75,10.21,5.85c0.53-0.15,1.13-0.98,1.69,0c0.34-0.77,0.82-1.52,0.99-2.32
		c0.34-1.59,0.15-2.73-2.07-2.59C131.55,206.94,127.96,206.16,124.36,205.8z"/>
	<path class="st1" d="M142.1,171.58c0.97,0.59,2.51,0.03,2.98,1.34c0.56,1.56-0.59,3.09-1.62,3.77c-2.83,1.87-1.48,3.92-0.72,6
		c0.25,0.69,0.73,1.3,1.37,2.39c2.58-3.86,3.82-7.77,2.98-11.95C146.55,170.49,144.02,171.33,142.1,171.58z"/>
	<path class="st14" d="M59.3,189.77c0.17-1.49-0.21-2.84-0.99-4.12c-4.73-7.72-3.71-16.44,2.66-23.16c0.57-0.6,1.43-1.07,1.23-2.13
		c-4.94,2.57-6.97,7.19-7.84,12.21C53.25,178.96,54.66,184.89,59.3,189.77z"/>
	<path class="st12" d="M50.45,133.51c-6.54,3.96-8.85,10.25-9.48,17.48c2.1-6.39,5.79-11.83,9.91-17.01
		C50.74,133.83,50.59,133.67,50.45,133.51z"/>
	<path class="st1" d="M174.59,289.16c0.9-2.04,1.52-3.53,2.21-4.98c0.51-1.06,0.29-1.82-0.69-2.42c-1.42-0.86-3.2-1.88-4.49-0.89
		c-1,0.77,0.37,2.36,0.85,3.53C173.02,285.8,173.68,287.14,174.59,289.16z"/>
	<path class="st12" d="M40.51,194.12c-1.37,9.78-7.04,14.07-11.89,14.01C35.4,210.18,41.38,203.54,40.51,194.12z"/>
	<path class="st12" d="M90.7,254.58c2.67-3.14,2.21-6.81,1.36-10.32c-0.49-2.04-0.5-4.48-2.55-5.93l0.03-0.03
		c1.28,5.36,1.87,10.76,1.14,16.26L90.7,254.58z"/>
	<path class="st1" d="M168.39,295.73c-0.01,0.62-0.36,1.41,0.83,1.35c1.33-0.06,4.02-3.27,4.05-4.88c0.02-1.25-0.78-1.71-1.83-1.78
		C170.01,290.33,168.5,293,168.39,295.73z"/>
	<path class="st14" d="M130.82,229.69c1.01,4.31,0.51,8.53-0.94,13.28C133.9,238.56,134.08,235.21,130.82,229.69z"/>
	<path class="st12" d="M68.62,238.15c-4.16,1.31-7.86,3-12.42,2.28C60.45,243,66.32,241.95,68.62,238.15z"/>
	<path class="st1" d="M166.47,289.5c-0.37-1.11-0.53-1.85-0.85-2.51c-0.38-0.78-0.36-2.17-1.61-1.96c-0.99,0.17-1.36,1.39-1.58,2.25
		c-0.32,1.2,1.06,1.05,1.69,1.46C164.65,289.09,165.36,289.16,166.47,289.5z"/>
	<path class="st14" d="M118,144.71c1.56-1.68,0.95-3.74,0.9-5.7c0.2,2.09-1.29,3.74-1.42,5.75
		C117.66,144.86,117.84,144.85,118,144.71z"/>
	<path class="st12" d="M37.23,240.63c-0.44,0.31-0.99,0.54-0.91,1.22c0.01,0.08,0.33,0.24,0.4,0.19c0.55-0.34,0.48-0.91,0.46-1.44
		C37.18,240.59,37.23,240.63,37.23,240.63z"/>
	<path class="st12" d="M51.9,151.11c0.1,0.25,0.22,0.25,0.29-0.04c0.04-0.16,0.07-0.36,0.02-0.52c-0.08-0.28-0.23-0.28-0.31,0.01
		C51.86,150.73,51.9,150.91,51.9,151.11z"/>
	<path class="st14" d="M110.8,121.79c0.16,0.03,0.23,0.06,0.3,0.06c0.02,0,0.04-0.08,0.06-0.13
		C111.07,121.74,110.97,121.76,110.8,121.79z"/>
	<path class="st14" d="M129.45,243.34c-0.25,0.35-0.49,0.7-0.74,1.05c0.16,0.14,0.31,0.28,0.47,0.43c0.27-0.34,0.55-0.68,0.82-1.02
		C129.82,243.65,129.64,243.49,129.45,243.34z"/>
	<path class="st14" d="M62.16,160.41c0.3-0.11,0.9,0.05,0.6-0.63C62.56,159.99,62.36,160.2,62.16,160.41z"/>
	<path class="st12" d="M51.75,133.08c-0.61-0.38-0.96,0-1.3,0.43c0.14,0.16,0.29,0.31,0.43,0.47
		C51.17,133.68,51.46,133.38,51.75,133.08L51.75,133.08z"/>
	<path class="st14" d="M69.44,338.14c0.06-0.05,0.11-0.1,0.17-0.16c-0.06-0.05-0.12-0.14-0.18-0.13c-0.06,0-0.11,0.1-0.16,0.15
		C69.33,338.06,69.39,338.1,69.44,338.14z"/>
	<path class="st1" d="M60.48,190.86c-0.31-0.28-0.62-0.56-0.92-0.84C59.86,190.3,60.17,190.58,60.48,190.86z"/>
	<path class="st14" d="M128.58,245.39c0.2-0.19,0.4-0.38,0.6-0.57c-0.16-0.14-0.31-0.28-0.47-0.43c-0.17,0.21-0.34,0.42-0.51,0.62
		C128.33,245.13,128.46,245.26,128.58,245.39z"/>
	<path class="st14" d="M128.2,245.02c-0.07,0.21-0.14,0.42-0.21,0.63c0.2-0.09,0.39-0.17,0.59-0.26
		C128.46,245.26,128.33,245.13,128.2,245.02z"/>
	<path class="st14" d="M130.01,243.8c0.16-0.27,0.53-0.57,0.14-0.87c-0.43-0.32-0.53,0.16-0.69,0.41
		C129.64,243.49,129.82,243.65,130.01,243.8z"/>
	<path class="st14" d="M125.75,253.81c-0.16-0.09-0.37-0.29-0.46-0.25c-0.35,0.17-0.24,0.44-0.04,0.68
		C125.41,254.1,125.58,253.96,125.75,253.81z"/>
	<path class="st1" d="M118,144.71c-0.16,0.14-0.34,0.15-0.52,0.05c0,0.19-0.01,0.37-0.01,0.56c0,0-0.06-0.06-0.06-0.06
		C118.02,145.51,117.86,144.95,118,144.71z"/>
	<polygon class="st14" points="95.21,143.82 95.05,143.77 95.06,143.9 	"/>
	<polygon class="st14" points="135.87,271.66 135.7,271.58 135.73,271.78 	"/>
	<path class="st14" d="M95.57,137.44c0.07,0.05,0.14,0.13,0.21,0.12c0.07-0.01,0.16-0.1,0.18-0.17c0.06-0.27-0.05-0.34-0.28-0.18
		C95.62,137.26,95.61,137.37,95.57,137.44z"/>
	<polygon class="st14" points="89.52,238.33 89.42,238.17 89.54,238.3 	"/>
	<path class="st14" d="M123.09,296.01c0.15,0.1,0.37,0.32,0.44,0.28c0.37-0.21,0.14-0.45-0.04-0.67
		C123.36,295.74,123.22,295.87,123.09,296.01z"/>
	<path class="st12" d="M90.68,254.56c-0.12,0.07-0.24,0.13-0.36,0.2c0.35,0.42,0.29-0.03,0.38-0.18
		C90.7,254.58,90.68,254.56,90.68,254.56z"/>
	<path class="st12" d="M51.75,133.08c0.11-0.12,0.22-0.23,0.33-0.35C51.72,132.63,51.56,132.69,51.75,133.08
		C51.75,133.08,51.75,133.08,51.75,133.08z"/>
	<path class="st12" d="M137.79,131.91c0.09,0.12,0.18,0.24,0.28,0.36c0.26-0.42-0.03-0.37-0.29-0.35
		C137.77,131.93,137.79,131.91,137.79,131.91z"/>
	<path class="st12" d="M137.2,131.33c-0.04,0.43,0.23,0.55,0.58,0.58c0,0-0.02,0.02-0.02,0.02
		C137.81,131.51,137.53,131.39,137.2,131.33C137.19,131.34,137.2,131.33,137.2,131.33z"/>
	<path class="st14" d="M87.78,130.75c-0.13,0.1-0.25,0.2-0.38,0.3C87.84,131.36,87.78,131.01,87.78,130.75
		C87.79,130.76,87.78,130.75,87.78,130.75z"/>
	<path class="st12" d="M36.35,212.42c0.07-0.21,0.24-0.56,0.19-0.6c-0.26-0.19-0.45-0.04-0.54,0.26
		C36.11,212.2,36.23,212.31,36.35,212.42z"/>
	<path class="st12" d="M80.21,259.79c-0.13,0.08-0.26,0.16-0.4,0.24c0.34,0.36,0.36,0.03,0.43-0.2
		C80.25,259.83,80.21,259.79,80.21,259.79z"/>
	<path class="st1" d="M380.69,173.53c-0.07,1.65-1.67,0.85-2.57,0.88c-2.41,0.08-4.9-0.42-7.22,0.02c-5.26,1-8.82-0.99-11.52-5.35
		c-1.17-1.89-2.83-2.96-5.33-2.59c-1.13,0.17-2.84-0.16-3.5-0.94c-2.69-3.12-6.59-2.51-9.91-3.61c-1.49-0.5-2.35-0.06-3.09,1.55
		c-1.57,3.42-3.44,6.72-5.33,9.98c-1.18,2.05-2.12,1.94-3.25-0.06c-1.18-2.09-2.45-4.13-3.64-6.22c-0.71-1.25-1.53-1.87-3.03-1.11
		c-3.87,1.95-7.25,0.43-10.55-1.61c-1.15-0.71-2.43-1.27-3.46-2.12c-1.66-1.36-3.44-1.37-5.43-1.2c-3.66,0.32-7.38,0.64-10.96-0.34
		c-1.6-0.44-2.75-0.16-4.06,0.63c-1.31,0.78-2.55,1.84-4.18,1.91c-0.76,0.03-1.68-0.01-1.7-1.09c-0.02-0.8,0.63-1.25,1.36-1.2
		c1.81,0.11,3.13-0.9,4.47-1.82c0.88-0.6,1.76-0.77,2.74-0.56c4.97,1.04,10,0.89,15.02,0.61c1.31-0.07,2.25,0.31,3.36,1.05
		c4.47,2.97,8.9,6.52,14.81,3.27c1.16-0.64,1.77,0.41,2.29,1.21c1.15,1.79,2.24,3.62,3.37,5.42c0.59,0.94,1.14,1.51,2.12,0.25
		c1.56-2.01,2.72-4.23,3.84-6.49c0.2-0.41,0.54-0.97,0-1.28c-3.22-1.85-4.7-5.33-7.33-7.74c-1.31-1.2-2.53-2.09-4.33-1.71
		c-2.69,0.58-4.42-0.76-5.86-2.79c-0.73-1.02-1.52-2-2.18-3.06c-0.96-1.56-1.8-1.62-2.6,0.08c-1.19,2.54-2.35,5.09-3.55,7.63
		c-1.39,2.94-2.4,3.04-4.23,0.27c-1.49-2.25-2.73-4.67-4.18-6.96c-3.22-5.11-3.25-5.09-6.73-0.16c-0.06,0.08-0.1,0.16-0.15,0.25
		c-1.18,1.97-2.45,1.63-3.57,0.01c-1.93-2.78-3.75-5.6-7.91-4.11c-0.58,0.21-1.1-0.32-1.18-0.98c-0.06-0.53,0.21-0.88,0.74-1.08
		c2.02-0.77,6.49,0.39,7.7,2.02c2.63,3.54,2.61,3.53,4.9-0.31c0.77-1.3,1.32-3.25,2.97-3.24c1.64,0.01,2.13,1.96,2.92,3.27
		c1.75,2.9,3.58,5.75,5.35,8.63c0.88,1.42,1.64,1.49,2.38-0.11c1.09-2.37,2.19-4.74,3.32-7.1c0.47-0.99,0.39-2.49,1.92-2.6
		c1.29-0.1,1.68,1.11,2.31,1.93c1.3,1.69,2.63,3.35,3.97,5.01c0.61,0.76,1.29,1.64,2.38,1.38c3.72-0.88,5.98,1.05,7.96,3.81
		c0.78,1.09,2.02,1.85,2.79,2.94c1.57,2.23,3.56,2.36,5.95,1.72c1.94-0.51,2.62-2.19,3.67-3.52c2.01-2.52,2.16-2.54,4.2,0.02
		c1.32,1.66,2.2,4.48,4.04,4.71c2.25,0.28,3.02-2.81,4.45-4.39c1.5-1.66,2.82-2.33,4.96-1.07c1.56,0.92,3.47,1.25,5.08,2.11
		c2.02,1.08,3.63,0.89,5.19-0.78c1.34-1.43,2.64-1.67,4.11,0.08c1.55,1.85,3.4,3.44,5.08,5.18c0.47,0.49,1.52,0.99,0.66,1.85
		c-0.83,0.83-1.5,0.25-2.15-0.5c-1.33-1.53-2.74-3-4.13-4.47c-0.73-0.77-1.69-1.34-2.51-0.39c-2.44,2.84-4.96,1.86-7.79,0.64
		c-6.49-2.81-6.53-2.71-10.64,3.07c-0.38,0.53-1.12,1.02-0.81,1.74c0.41,0.96,1.43,0.58,2.05,0.4c3.01-0.91,4.66,0.69,6.02,3
		c0.39,0.67,0.84,1.3,1.28,1.94c1.57,2.28,3.49,3.61,6.52,3.44c3.27-0.19,6.56-0.07,10-0.46
		C379.15,172.57,380.76,171.93,380.69,173.53z M346.51,161.28c0.44,0.11,0.93,0.02,1.65,0.02c-1.07-1.54-1.5-3.59-3.34-3.81
		c-0.96-0.12-1.56,1.46-1.88,2.72C344.16,160.58,345.32,160.97,346.51,161.28z"/>
	<path class="st12" d="M326.08,292.98c-0.04-0.64,0.21-1.43-0.73-1.63c-0.19-0.04-0.64,0.24-0.64,0.36
		c0.05,0.85,0.93,0.83,1.41,1.24C326.12,292.95,326.08,292.98,326.08,292.98z"/>
	<path class="st12" d="M192.16,238.41c-0.11-0.12-0.22-0.23-0.33-0.35c-0.09,0.13-0.2,0.26-0.27,0.41c-0.02,0.03,0.14,0.2,0.17,0.19
		C191.88,238.59,192.02,238.49,192.16,238.41z"/>
	<path class="st12" d="M329.84,293.38c0.07,0.15,0.1,0.4,0.21,0.44c0.12,0.04,0.3-0.11,0.46-0.17c-0.07-0.16-0.13-0.31-0.2-0.47
		C330.15,293.24,329.99,293.31,329.84,293.38z"/>
	<path class="st12" d="M323.44,289.32c0.07,0.16,0.13,0.32,0.2,0.48c0.16-0.07,0.39-0.11,0.44-0.22c0.05-0.11-0.11-0.3-0.17-0.46
		C323.75,289.18,323.59,289.25,323.44,289.32z"/>
	<path class="st1" d="M250.49,134.3c1.05-0.11,1.87-0.55,1.91-1.52c0.05-1.03-0.8-1.47-1.74-1.51c-0.98-0.05-1.76,0.43-1.79,1.44
		C248.84,133.74,249.67,134.12,250.49,134.3z"/>
	<path class="st1" d="M246.98,132.83c-0.1-0.98-0.64-1.48-1.48-1.54c-0.95-0.07-1.79,0.35-1.83,1.36c-0.04,1.02,0.84,1.43,1.74,1.47
		C246.28,134.15,246.75,133.54,246.98,132.83z"/>
	<path class="st12" d="M463.25,264.91c4.24,0,8.49,0.02,12.73-0.02c0.8-0.01,2.04,0.15,1.94-1.1c-0.08-0.99-1.2-0.73-1.92-0.73
		c-8.58-0.06-17.15-0.09-25.73-0.14c-0.89,0-1.97-0.04-1.9,1.16c0.06,1.05,1.15,0.8,1.87,0.8c4.34,0.02,8.67,0.01,13.01,0.01
		C463.25,264.9,463.25,264.91,463.25,264.91z"/>
	<path class="st12" d="M454.84,237.08c7.13-0.23,14.26,0.91,21.39-0.02c0.7-0.09,1.89,0.25,1.8-0.84c-0.09-1-1.25-0.62-1.96-0.62
		c-8.52-0.02-17.03-0.01-25.55,0c-0.72,0-1.88-0.31-1.9,0.71c-0.02,1.04,1.16,0.73,1.87,0.76
		C451.93,237.12,453.38,237.08,454.84,237.08z"/>
	<path class="st12" d="M469.49,272.55c2.59,0.17,5.2-0.18,7.77,0.35c0.69,0.14,1.26-0.13,1.37-0.71c0.14-0.7-0.65-0.99-1.12-1.07
		c-1.13-0.18-2.29-0.2-3.43-0.2c-4.34-0.01-8.68,0.01-13.02,0.04c-0.62,0.01-1.57-0.19-1.55,0.78c0.02,0.91,0.94,0.79,1.59,0.8
		C463.9,272.56,466.7,272.55,469.49,272.55z"/>
	<path class="st12" d="M469.2,241.05c2.52,0,5.03,0.01,7.55-0.01c0.57,0,1.31,0.01,1.37-0.73c0.07-0.79-0.67-0.81-1.24-0.81
		c-5.12-0.01-10.23-0.03-15.35,0c-0.6,0-1.59-0.24-1.51,0.8c0.07,0.91,1,0.72,1.64,0.73c2.51,0.02,5.02,0.01,7.54,0.01
		C469.2,241.04,469.2,241.04,469.2,241.05z"/>
	<path class="st12" d="M453.6,272.81c1.29-0.1,2.53-0.19,3.77-0.28c0.52-0.04,0.98-0.22,1.01-0.8c0.04-0.63-0.45-0.77-0.96-0.79
		c-2.5-0.12-5-0.24-7.5-0.33c-0.71-0.02-1.46,0.18-1.47,1.03c-0.01,0.84,0.82,1.09,1.45,1.14
		C451.14,272.88,452.39,272.81,453.6,272.81z"/>
	<path class="st12" d="M453.01,266.92c-1.25,0-2.51-0.03-3.76,0.01c-0.61,0.02-1.17,0.31-1.21,0.99c-0.04,0.76,0.63,0.96,1.18,0.96
		c2.5,0.01,5-0.01,7.5-0.1c0.57-0.02,1.18-0.35,1.09-1.09c-0.09-0.77-0.78-0.74-1.34-0.75c-1.16-0.03-2.31-0.01-3.47-0.01
		C453.01,266.94,453.01,266.93,453.01,266.92z"/>
	<path class="st12" d="M459.65,244.51c5.97,0.36,11.95,0.28,17.92,0.08c0-0.27,0.01-0.53,0.01-0.8c-5.98,0-11.96,0-17.93,0
		C459.65,244.03,459.65,244.27,459.65,244.51z"/>
	<path class="st12" d="M453.17,239.51c-1.25,0-2.49-0.01-3.74,0c-0.49,0.01-1.03,0.07-1.11,0.65c-0.09,0.7,0.4,1.07,1.03,1.12
		c2.39,0.21,4.79,0.24,7.17-0.1c0.67-0.1,1.44-0.22,1.24-1.18c-0.16-0.77-0.88-0.58-1.42-0.6c-1.05-0.03-2.11-0.01-3.17-0.01
		C453.17,239.44,453.17,239.48,453.17,239.51z"/>
	<path class="st12" d="M460.58,268.67c5.35,0,10.7,0.01,16.05-0.01c0.44,0,1.01-0.02,1.1-0.64c0.08-0.49-0.29-0.71-0.69-0.71
		c-5.49,0.03-11-0.48-16.47,0.18C460.58,267.88,460.58,268.28,460.58,268.67z"/>
	<path class="st1" d="M484.51,239.96c0.19,1.3,1,2.19,2.24,2.25c1.34,0.07,2.06-0.92,2.16-2.22c0.1-1.4-0.64-2.25-2.04-2.19
		C485.59,237.85,484.77,238.63,484.51,239.96z"/>
	<path class="st1" d="M486.75,270.17c1.29-0.26,2.05-0.99,2.2-2.29c0.16-1.43-0.61-2.16-1.93-2.31c-1.38-0.15-2.22,0.69-2.36,1.93
		C484.49,268.95,485.5,269.72,486.75,270.17z"/>
	<path class="st1" d="M499.16,237.7c-1.23,0.19-2.2,0.73-2.25,2.12c-0.05,1.29,0.56,2.32,1.92,2.39c1.42,0.08,2.37-0.76,2.44-2.23
		C501.32,238.62,500.48,237.91,499.16,237.7z"/>
	<path class="st1" d="M496.71,267.88c0.25,1.31,1.08,1.96,2.4,1.92c1.39-0.04,2.13-0.94,2.1-2.22c-0.03-1.36-0.99-2.05-2.31-1.97
		C497.56,265.69,496.9,266.57,496.71,267.88z"/>
	<path class="st1" d="M491.2,239.94c0.2,1.19,0.73,2.05,2.06,2c1.28-0.05,1.99-0.8,1.93-2.06c-0.06-1.22-0.86-2.04-2.06-2.01
		C491.94,237.89,491.19,238.65,491.2,239.94z"/>
	<path class="st1" d="M491.01,267.67c0.12,1.34,0.87,2.04,2.09,2.03c1.33-0.01,1.84-0.93,1.78-2.15c-0.06-1.23-0.7-2.04-2.01-1.96
		C491.6,265.67,491.02,266.49,491.01,267.67z"/>
	<path class="st12" d="M457.83,244.11c-3.12-0.72-6.23-0.92-9.34-0.1C451.59,244.98,454.71,244.9,457.83,244.11z"/>
	<path class="st14" d="M362.15,209.87c-20.28-0.51-40.55-1.04-60.83-1.51c-8.69-0.2-17.4-0.18-26.09-0.42
		c-2.25-0.06-2.88,0.78-2.79,2.81c0.09,2.22-0.03,4.45,0.03,6.67c0.06,2.42,0.98,3.95,3.77,4.06c13.04,0.52,26.08,1.19,39.12,1.74
		c22.1,0.94,44.2,1.84,66.3,2.75c0.39,0.02,0.77,0.05,1.16,0.05c5.13,0.07,5.05-0.14,4.61-5.41c-0.21-2.49,0.24-5.12,0.37-7.7
		c0.1-1.93-0.65-2.51-2.51-2.49c-7.71,0.07-15.42,0.03-23.13,0.03C362.15,210.26,362.15,210.07,362.15,209.87z"/>
	<path class="st14" d="M507.5,294.61c0,2.13-0.09,4.26,0.02,6.38c0.14,2.58-0.83,3.72-3.54,3.61c-3.86-0.16-7.73-0.03-11.6-0.04
		c-16.37-0.01-32.73-0.04-49.1-0.02c-2.04,0-2.77-1.01-2.79-2.84c-0.04-4.54-0.1-9.08-0.07-13.62c0.01-1.73,0.7-2.86,2.79-2.86
		c9.16-0.01,18.33-0.2,27.48-0.13c11.24,0.09,22.48-0.15,33.72-0.02c2.66,0.03,3.2,1.01,3.18,3.16c-0.02,2.13,0,4.25,0,6.38
		C507.56,294.61,507.53,294.61,507.5,294.61z M476.29,299.24c1.77,0,3.03-2.31,2.67-5c-0.1-0.74-0.78-1.35-0.48-2.2
		c0.55-1.53-0.27-1.84-1.6-1.83c-9.24,0.02-18.47,0-27.71-0.02c-1.36,0-2.27,0.4-2.26,1.95c0,0.28-0.08,0.56-0.12,0.85
		c-0.67,5.9-0.13,6.22,4.81,6.24C459.84,299.23,468.06,299.22,476.29,299.24z M498.97,296.81c1.31-0.01,2.15-0.87,2.06-2.24
		c-0.07-1.08-0.84-1.86-1.91-1.75c-1.17,0.11-2.18,0.74-2.4,2.05C497.01,296.11,497.85,296.82,498.97,296.81z M484.66,294.93
		c-0.05,1.24,0.81,2.01,1.98,2.06c1.41,0.06,2.02-1.03,2.14-2.24c0.11-1.15-0.73-1.68-1.79-1.89
		C485.74,293.02,484.72,293.54,484.66,294.93z M491.1,294.62c-0.03,1.14,0.66,1.81,1.75,1.82c1.09,0.01,1.79-0.65,1.8-1.79
		c0.01-1.13-0.62-1.74-1.71-1.84C491.78,292.89,491.12,293.5,491.1,294.62z"/>
	<path class="st14" d="M483.15,100.09c12,2.62,20.84-2.61,28.46-11.03c7.6-8.41,8.83-17.81,4.55-28.99
		C510.01,77.96,499.25,91.21,483.15,100.09z"/>
	<path class="st14" d="M489.91,72.07c2.91,2.17,5.52,4.79,8.9,6.24c2.4,1.03-0.43,2.77,0.62,3.92c0.58,0.14,0.94-0.16,1.25-0.55
		c4.97-6.34,9.6-12.88,11.58-20.87c0.43-1.74,1.3-3.33,1.21-5.27c-0.09-1.98-0.5-2.36-2.3-1.43c-5.19,2.67-9.82,6.06-13.94,10.17
		c-2.39,2.39-4.78,4.78-7.17,7.18C490.01,71.66,489.96,71.86,489.91,72.07z"/>
	<path class="st14" d="M499.68,81.76c-2.14,1.83-3.12,0.73-4.27-0.59c-2.34-2.68-4.86-5.21-7.51-8.01c-0.16,1.55-1.09,2.48-1.9,3.52
		c-4.45,5.69-8.66,11.56-11.09,18.45c-1.13,3.2-0.15,4.26,3.15,3.27c7.6-2.27,13.55-7.15,18.97-12.72
		C497.94,84.77,499.28,84.08,499.68,81.76z"/>
	<path class="st12" d="M523.22,101.91c0.09-1.81-0.62-3.42-1.31-5.01c-1.44-3.33-3.84-4.08-7.08-2.37
		c-2.81,1.48-3.63,4.37-1.99,7.14c1.06,1.78,2.48,3.22,4.37,4.11C520.97,107.56,523.27,106.05,523.22,101.91z"/>
	<path class="st14" d="M515.46,115.98c-4.16-3.43-5.19-8.52-7.45-12.91c-0.57-1.11-0.95-2.53-2.64-1.97
		c-1.48,0.49-0.86,1.88-0.66,2.74c1.08,4.64-0.15,8.56-3.94,12.24C505.96,116.59,510.6,116.26,515.46,115.98z"/>
	<path class="st1" d="M370.09,45.98c0.68,0.68,1.36,1.36,2.03,2.05c1.93,2.01,3.57,3.52,7.04,2.32c4.4-1.52,9.02,2.16,9.69,6.75
		c0.69,4.75-2.35,8.94-7.02,9.68c-4.88,0.77-9.4-2.37-10.03-6.97c-0.04-0.29-0.15-0.62-0.05-0.86c2.45-5.68-2.55-7.1-5.51-9.69
		c-5.39,8.91-3.1,18.8,5.51,23.79c8.26,4.79,18.53,1.96,23.29-6.43c3.99-7.02,2.32-15.36-4.18-20.89
		c-5.05-4.29-15.09-4.61-20.05-0.63C370.52,45.34,370.33,45.68,370.09,45.98z"/>
	<path class="st14" d="M509,147.22c-0.32-2.37,0.73-3.41,2.99-3.92c7.43-1.68,14.87-3.41,21.8-6.72c0.66-0.32,1.1,0.01,1.61,0.21
		c7.21,2.84,14.63,5.01,22.22,6.57c1.64,0.34,2.27,0.92,2.2,2.66c-0.25,6.04-0.38,12.08-1.71,18.01
		c-3.02,13.54-10.15,24.07-22.47,30.83c-0.98,0.53-1.71,0.91-2.87,0.16c-5.09-3.24-9.89-6.75-13.58-11.66
		c-7.3-9.7-9.89-20.82-10.17-32.67C509.02,149.54,509.15,148.36,509,147.22z M539.65,161.55c-4.06,4.05-4,4.05-7.65-0.63
		c-2.02-2.59-4.22-5.04-6.24-7.62c-1.15-1.47-2.19-1.8-3.46-0.24c-0.12,0.15-0.27,0.27-0.41,0.41c-3.17,3.18-3.18,3.19-0.32,6.55
		c4.06,4.79,8.19,9.52,12.17,14.38c1.29,1.57,2.38,1.41,3.52,0.13c3.27-3.69,6.58-7.34,10.16-10.73c0.4-0.38,1.01-0.99,0.41-1.45
		c-1.61-1.22-3.34-2.28-5-3.39C541.35,159.46,540.58,160.62,539.65,161.55z"/>
	<path class="st1" d="M314.2,72.41c-3.6-0.54-6.84-2.04-9.89-3.94c-1.33-0.82-2.52-0.9-4.05-0.41c-9.14,2.93-17.69,2.33-26.28-2.74
		c-10.04-5.92-15.22-21.06-2.95-32.1c9.53-8.57,23.43-10.07,34.68-4.04c14.1,7.56,13.91,22.24,7.31,29.88
		c-2.86,3.31-2.53,5.78-0.78,8.92c0.75,1.34,1.59,2.62,2.39,3.93C314.49,72.08,314.34,72.24,314.2,72.41z M288.19,51.12
		c0.12,1.83,1.13,1.99,2.49,1.91c1.29-0.08,2.72,0.28,2.99-1.8c0.61-4.79,1.49-9.54,1.82-14.37c0.15-2.24-0.66-3.31-2.96-3.07
		c-0.19,0.02-0.39,0.01-0.58,0.01c-5.2,0.04-5.2,0.04-4.75,7.04C287.42,43.04,287.92,47.07,288.19,51.12z M287.49,58.66
		c0.04,1.99,1.23,3.23,3.27,3.34c1.98,0.11,3.98-1.76,3.78-3.58c-0.24-2.1-1.57-3.21-3.82-3.37
		C288.75,55.36,287.45,56.52,287.49,58.66z"/>
	<path class="st1" d="M314.2,72.41c0.28,0.19,0.59,0.43,0.83,0.01c0.04-0.07-0.26-0.33-0.4-0.5
		C314.49,72.08,314.34,72.24,314.2,72.41z"/>
	<path class="st12" d="M199.62,237.28c0.16,0.06,0.31,0.12,0.47,0.18c0.06-0.16,0.2-0.35,0.16-0.46c-0.04-0.11-0.33-0.22-0.43-0.17
		C199.71,236.89,199.68,237.13,199.62,237.28z"/>
	<path class="st1" d="M416.41,191.86c0.39,0,0.77-0.06,0.79-0.54c0.02-0.3-0.15-0.53-0.5-0.39c-0.25,0.1-0.54,0.22-0.67,0.42
		C415.78,191.71,416.17,191.76,416.41,191.86z"/>
	<path class="st14" d="M466.31,200.45c-1.02,0.79-2.03,1.4-2.8,2.22c-1.11,1.17-2.03,2.52-3.07,3.76c-0.35,0.41-0.58,0.74-0.12,1.21
		c0.38,0.4,0.77,0.55,1.24,0.17c1.94-1.59,3.89-3.16,5.81-4.77c0.47-0.4,0.73-0.96,0.23-1.51
		C467.23,201.11,466.75,200.8,466.31,200.45z"/>
	<path class="st14" d="M454.45,201.13c0.18,1.21,0.89,1.36,1.61,0.78c1.95-1.55,3.84-3.17,5.69-4.83c0.86-0.77,0.16-1.33-0.43-1.86
		c-0.7-0.64-1.13-0.76-1.74,0.24c-0.89,1.47-2.18,2.64-3.54,3.72C455.4,199.71,454.96,200.5,454.45,201.13z"/>
	<path class="st14" d="M473.21,208.3c-0.08-0.92,0.04-1.73-0.73-2.03c-0.78-0.31-1.22,0.4-1.67,0.88c-1.6,1.68-3.19,3.38-4.76,5.08
		c-0.43,0.47-0.61,1.05-0.02,1.5c0.35,0.27,0.66-0.05,0.99-0.29c1.94-1.42,2.63-4.73,5.99-3.99
		C473.1,208.99,473.17,208.52,473.21,208.3z"/>
	<path class="st14" d="M458.25,205.05c1.93-2.06,4.49-3.35,6.13-5.66c0.23-0.32,0.21-0.73-0.12-1.04c-0.42-0.39-0.93-0.39-1.29-0.03
		c-1.74,1.76-4.02,2.98-5.25,5.25c-0.16,0.3-0.22,0.71-0.18,1.04C457.57,204.77,457.96,204.88,458.25,205.05z"/>
	<path class="st14" d="M469.54,203.46c-0.3,0.17-0.59,0.27-0.78,0.46c-1.77,1.78-3.53,3.58-5.28,5.39c-0.44,0.45-0.7,0.98-0.08,1.47
		c0.5,0.4,0.88,0.01,1.24-0.31c1.73-1.55,3.47-3.08,5.19-4.64c0.42-0.38,0.89-0.84,0.49-1.49
		C470.12,204.02,469.82,203.77,469.54,203.46z"/>
	<path class="st14" d="M451.28,198.95c2.83-1.1,5.09-2.9,7.06-5.08c0.37-0.41,1.11-0.64,0.56-1.32c-0.45-0.56-1.06-0.29-1.55,0.04
		C454.84,194.23,452.79,196.31,451.28,198.95z"/>
	<path class="st1" d="M431.85,175.62c1.32-0.02,1.84-0.65,1.79-2c-0.05-1.33,0.13-2.67,0.21-4.01c0-0.52,0.01-1.04,0.01-1.56
		c-0.84-1.09,0.84-3.54-1.94-3.58C431.29,168.18,430.84,171.9,431.85,175.62z"/>
	<path class="st12" d="M307.08,274.56c-0.16,0.07-0.4,0.11-0.45,0.23c-0.05,0.11,0.11,0.3,0.18,0.46c0.16-0.07,0.4-0.11,0.44-0.22
		C307.3,274.91,307.15,274.72,307.08,274.56z"/>
	<path class="st12" d="M121.5,295.27c-0.23-0.55-0.61-0.77-1.2-0.54l0.04-0.03c0.25,0.48,0.59,0.78,1.17,0.56L121.5,295.27z"/>
	<path class="st12" d="M127.04,267.09c-0.06,0.03-0.11,0.06-0.17,0.09c0.08,0.05,0.16,0.1,0.24,0.16
		C127.08,267.25,127.06,267.17,127.04,267.09z"/>
	<path class="st12" d="M120.3,294.72c-0.01-0.08-0.01-0.17-0.02-0.25c0.02,0.07,0.04,0.15,0.06,0.22
		C120.34,294.7,120.3,294.72,120.3,294.72z"/>
	<path class="st12" d="M121.51,295.26c-0.07,0.46,0.19,0.59,0.58,0.58c0,0-0.02,0.02-0.02,0.02c0.01-0.39-0.22-0.55-0.58-0.59
		C121.5,295.27,121.51,295.26,121.51,295.26z"/>
	<path class="st12" d="M138.71,194.08c-1.95-0.88-3.71-0.35-6.22,0.79C135.18,195.27,136.97,194.9,138.71,194.08z"/>
	<path class="st12" d="M95.23,182.38c-0.43,0.16-0.59,0.58-0.33,0.84c0.35,0.35,0.55-0.17,0.79-0.36
		C95.54,182.7,95.38,182.54,95.23,182.38z"/>
	<path class="st12" d="M88.93,360.35c0.12-0.09,0.25-0.17,0.37-0.26c-0.44-0.24-0.33,0.09-0.32,0.31L88.93,360.35z"/>
	<path class="st12" d="M88.98,360.4c-0.11,0.08-0.22,0.16-0.33,0.24c0.06-0.01,0.16,0.01,0.19-0.02c0.05-0.07,0.07-0.17,0.1-0.26
		C88.93,360.35,88.98,360.4,88.98,360.4z"/>
	<path class="st12" d="M89.99,358.51c-0.08,0.2-0.15,0.4-0.23,0.6c0.2-0.08,0.39-0.16,0.59-0.24
		C90.23,358.74,90.11,358.63,89.99,358.51z"/>
	<path class="st12" d="M113.71,161.21c1.23,0.76,2.09,0.37,2.86,0.15c2.71-0.79,5.13-0.18,7.5,1.16c1.34,0.76,2.77,1.36,4.14,2.07
		c2.09,1.08,3.3-0.02,4.2-1.72c0.61-1.14,0.42-2.01-1.02-2.39c-2.8-0.74-5.56-1.64-8.38-2.3
		C119.39,157.33,116.65,159.16,113.71,161.21z"/>
	<path class="st12" d="M72.96,191.97c-9.13,0.2-15.82-6.44-15.95-15.82c-0.11-8.54,6.06-15.52,13.82-15.63
		c8.79-0.12,15.25,6.43,15.41,15.62C86.4,184.72,80.44,191.81,72.96,191.97z M71.22,188.75c6.84,0.14,11.84-5.16,11.83-12.56
		c-0.01-6.74-5.63-12.87-11.68-12.73c-6.3,0.14-11.1,5.35-11.1,12.03C60.28,182.86,65.03,188.63,71.22,188.75z"/>
	<polygon class="st12" points="56.2,230.62 56.28,230.42 56.08,230.45 	"/>
	<path class="st12" d="M101.14,135.4c0.16-0.19,0.33-0.37,0.49-0.56c-0.13-0.06-0.25-0.11-0.38-0.17c-0.02,0.25-0.05,0.51-0.07,0.76
		C101.18,135.42,101.14,135.4,101.14,135.4z"/>
	<polygon class="st12" points="132.72,130.52 132.93,130.58 132.91,130.4 	"/>
	<path class="st14" d="M342.94,160.2c1.22,0.37,2.39,0.77,3.57,1.08c0.44,0.11,0.93,0.02,1.65,0.02c-1.07-1.54-1.5-3.59-3.34-3.81
		C343.86,157.37,343.26,158.95,342.94,160.2z"/>
	<path class="st12" d="M451.61,299.23c8.23,0,16.45-0.01,24.68,0.01c1.77,0,3.03-2.31,2.67-5c-0.1-0.74-0.78-1.35-0.48-2.2
		c0.55-1.53-0.27-1.84-1.6-1.83c-9.24,0.02-18.47,0-27.71-0.02c-1.36,0-2.27,0.4-2.26,1.95c0,0.28-0.08,0.56-0.12,0.85
		C446.13,298.89,446.67,299.21,451.61,299.23z"/>
	<path class="st1" d="M496.72,294.87c0.29,1.24,1.13,1.95,2.25,1.94c1.31-0.01,2.15-0.87,2.06-2.24c-0.07-1.08-0.84-1.86-1.91-1.75
		C497.95,292.93,496.94,293.55,496.72,294.87z"/>
	<path class="st1" d="M486.99,292.86c-1.25,0.16-2.28,0.68-2.33,2.07c-0.05,1.24,0.81,2.01,1.98,2.06c1.41,0.06,2.02-1.03,2.14-2.24
		C488.89,293.61,488.05,293.08,486.99,292.86z"/>
	<path class="st1" d="M492.94,292.81c-1.16,0.08-1.81,0.69-1.84,1.81c-0.03,1.14,0.66,1.81,1.75,1.82c1.09,0.01,1.79-0.65,1.8-1.79
		C494.66,293.52,494.03,292.91,492.94,292.81z"/>
	<path class="st1" d="M542.83,158.95c-1.47,0.5-2.25,1.67-3.18,2.6c-4.06,4.05-4,4.05-7.65-0.63c-2.02-2.59-4.22-5.04-6.24-7.62
		c-1.15-1.47-2.19-1.8-3.46-0.24c-0.12,0.15-0.27,0.27-0.41,0.41c-3.17,3.18-3.18,3.19-0.32,6.55c4.06,4.79,8.19,9.52,12.17,14.38
		c1.29,1.57,2.38,1.41,3.52,0.13c3.27-3.69,6.58-7.34,10.16-10.73c0.4-0.38,1.01-0.99,0.41-1.45
		C546.22,161.12,544.48,160.06,542.83,158.95z"/>
	<path class="st12" d="M287.2,40.85c0.22,2.19,0.72,6.23,0.99,10.28c0.12,1.83,1.13,1.99,2.49,1.91c1.29-0.08,2.72,0.28,2.99-1.8
		c0.61-4.79,1.49-9.54,1.82-14.37c0.15-2.24-0.66-3.31-2.96-3.07c-0.19,0.02-0.39,0.01-0.58,0.01
		C286.75,33.84,286.75,33.84,287.2,40.85z"/>
	<path class="st12" d="M290.72,55.06c-1.97,0.3-3.27,1.46-3.23,3.6c0.04,1.99,1.23,3.23,3.27,3.34c1.98,0.11,3.98-1.76,3.78-3.58
		C294.3,56.33,292.97,55.22,290.72,55.06z"/>
	<path class="st14" d="M60.27,175.49c0,7.37,4.76,13.13,10.95,13.26c6.84,0.14,11.84-5.16,11.83-12.56
		c-0.01-6.74-5.63-12.87-11.68-12.73C65.07,163.61,60.27,168.81,60.27,175.49z"/>
</g>
</svg>
