<?xml version="1.0" encoding="utf-8"?>
<!-- Generator: Adobe Illustrator 24.3.0, SVG Export Plug-In . SVG Version: 6.00 Build 0)  -->
<svg version="1.1" id="Layer_1" xmlns="http://www.w3.org/2000/svg" xmlns:xlink="http://www.w3.org/1999/xlink" x="0px" y="0px"
	 width="169.6px" height="167px" viewBox="0 0 169.6 167" style="enable-background:new 0 0 169.6 167;" xml:space="preserve">
<style type="text/css">
	.st0{fill:#185AE9;}
	.st1{fill:#00B0FB;}
	.st2{fill-rule:evenodd;clip-rule:evenodd;fill:#00B0FB;}
	.st3{fill:#00B0FB;fill-opacity:0.4;}
	.st4{fill:#FFFFFF;}
</style>
<g>
	<path class="st1" d="M66.7,33.9c0-0.4,0-0.8,0.1-1.2c-1.7-0.2-3.3-0.8-4.7-1.6c-0.7,0.1-1.5,0.2-2.3,0.2c-1.7,0-3.3-0.3-4.7-0.7
		c-2,1.3-4.5,2.2-7.5,2.2c-0.9,0-1.8-0.1-2.6-0.2c-3.3,1.6-6.4,3.7-9.1,6.3c-0.8,0.7-1.5,1.5-2.1,2.2c-0.6,0.6-1.1,1.3-1.8,2.2
		c-7.1,9.1-10.3,21.8-8.5,33.8c1.6,10.4,6.8,20.6,14.6,28.6c0.3,0.3,0.6,0.6,0.9,0.8c0.3,0.3,0.6,0.6,0.9,0.9c1,0.6,1.9,1.4,2.7,2.3
		c1.6-0.7,3.5-1.1,5.6-1.1c0.5,0,1,0,1.4,0.1c0.2-0.5,0.4-1.1,0.7-1.6l-3.2,0.5c0,0,0,0-0.1,0c-0.1,0-0.3-0.1-0.4-0.2l-8.1-8.3
		c-11.3-12.1-14.1-31.4-6.8-46.7c2.6-5,5.2-8.3,6.9-10.2c5.4-5.7,12.4-8.8,20.4-9c0.1,0,0.2,0,0.3,0c0.1,0,0.2,0,0.4,0
		c0.7,0,1.4,0,2.1,0.1l0.5,0v0.1C63.7,33.4,65.2,33.6,66.7,33.9z"/>
	<path class="st3" d="M106.3,141.1c-1.1,0.2-2.4,0.5-2.8,0.5c-1.4,0.2-2.4,0.4-3.5,0.4c-0.8,0-1.8-0.1-2.8-0.2
		c-0.4-0.1-0.9-0.1-1.3-0.2l-0.1,0c-0.2,0-0.5-0.1-0.8-0.1l-3.1-0.6c0,0-17.8-3.2-17.9-3.3c0,0,0,0,0,0c-0.1,0-0.2,0-0.3-0.1l-0.1,0
		c-0.1,0-0.2-0.1-0.3-0.1c0,0-0.1,0-0.1,0c-0.2-0.1-0.4-0.1-0.6-0.2c-0.1,0-0.1-0.1-0.2-0.1c0,0-0.1,0-0.1,0c0,0-0.1-0.1-0.2-0.1
		c0,0-0.1-0.1-0.1-0.1c0,0-0.1,0-0.1-0.1c-0.1,0-0.2-0.1-0.3-0.1c0,0-0.1,0-0.1-0.1c-0.1-0.1-0.3-0.1-0.4-0.2
		c-0.1-0.1-0.1-0.1-0.2-0.1l-0.2-0.2c0,0,0,0,0,0c-0.2-0.1-0.3-0.2-0.4-0.3c-0.1-0.1-0.4-0.4-0.5-0.4c0,0,0-0.1-0.1-0.1
		c-0.1-0.1-0.2-0.2-0.3-0.3c0,0,0,0-0.1-0.1c0,0-0.1-0.1-0.1-0.1c0,0,0,0,0,0c-0.1-0.1-0.2-0.2-0.2-0.3c0,0,0,0,0,0
		c0,0,0-0.1-0.1-0.1c0-0.1-0.1-0.1-0.1-0.1c0,0,0,0-0.1-0.1c0,0,0-0.1-0.1-0.1c0,0-0.1-0.1-0.1-0.1c0,0-0.1-0.1-0.1-0.1
		c0,0,0-0.1-0.1-0.1c0,0-0.1-0.1-0.1-0.1c0,0,0-0.1-0.1-0.1c0,0-0.1-0.2-0.1-0.2c0,0,0-0.1,0-0.1c0,0-0.1-0.1-0.1-0.2
		c0,0,0-0.1,0-0.1c0-0.1-0.1-0.2-0.1-0.3l-0.1-0.1c0,0-0.1-0.3-0.1-0.3c-0.1-0.3-0.2-0.6-0.3-0.9c0,0,0-0.2,0-0.2c0-0.1,0-0.1,0-0.2
		c0,0,0,0,0-0.1c0-0.1,0-0.3-0.1-0.4c0-0.2,0-0.3,0-0.5l0-0.2c0-0.1,0-0.2,0-0.4c0-0.2,0-0.3,0-0.5V129c0,0,0,0,0-0.1
		c0-0.3,0.1-0.7,0.2-1.1c0,0,0-0.1,0-0.1v0c0.1-0.3,0.2-0.6,0.3-1l0.1-0.2c0.1-0.3,0.2-0.6,0.4-0.8c0.1-0.1,0.1-0.2,0.1-0.2
		c0.1-0.2,0.2-0.4,0.3-0.5l0.1-0.1c0-0.1,0.1-0.1,0.1-0.1c0,0,0.1-0.1,0.1-0.1c0,0,0.1-0.1,0.2-0.2c0.1-0.1,0.3-0.4,0.3-0.4l0.2-0.2
		c0.1-0.1,0.1-0.2,0.2-0.2c1.5-1.4,3.2-2.1,5.2-2.1c0.5,0,0.9,0,1.2,0.1c1,0.1,2,0.2,3.1,0.4L80,122c3.9,0.5,8,1,11.7,1.4
		c0.5,0,1,0.1,1.5,0.1c1.9,0,3.5-0.4,4.8-1.1c1.3-0.8,2.1-1.9,2.4-3.3c0,0,0-0.2,0-0.2c0-0.1,0-0.2,0-0.4c0-0.1,0-0.2,0-0.2
		c0-0.2,0-0.3,0-0.5c0-0.1,0-0.1,0-0.2c0,0,0-0.1,0-0.1c0,0,0-0.1,0-0.1c0,0,0-0.1,0-0.1c0-0.1,0-0.1,0-0.1c0-0.1,0-0.1,0-0.1
		c0,0,0-0.2,0-0.2c0,0,0-0.1,0-0.1c0,0,0-0.1,0-0.1c0,0,0-0.1,0-0.1c0,0,0,0,0-0.1c-0.1-0.2-0.2-0.5-0.3-0.7
		c-0.2-0.3-0.3-0.6-0.5-0.9c0,0,0-0.1-0.1-0.1c-0.1-0.1-0.2-0.2-0.3-0.3c-0.1-0.1-0.2-0.2-0.3-0.4c0,0,0,0,0-0.1
		c0-0.1-0.1-0.1-0.2-0.2l-0.1-0.1c-0.2-0.2-0.4-0.4-0.6-0.6c-0.1-0.1-0.1-0.1-0.2-0.1l-0.2-0.1c0,0-0.1-0.1-0.1-0.1
		c0,0-0.1-0.1-0.2-0.1l-0.2-0.2c0,0,0,0-0.1-0.1c-0.1,0-0.1-0.1-0.2-0.1c0,0-0.1-0.1-0.1-0.1c0,0-0.1,0-0.1-0.1c0-0.1,0,0-0.1-0.1
		c0,0-0.2-0.1-0.2-0.1c0,0,0,0,0,0c0,0-0.1-0.1-0.1-0.1c-0.1,0-0.2-0.1-0.2-0.1l0,0c0,0-0.1,0-0.1-0.1l-0.3-0.1l-0.1,0
		c0,0-0.4-0.2-0.5-0.2c0,0-0.7-0.3-0.7-0.3l-0.3-0.1l-13.6-2.5c-0.4-0.1-0.8-0.1-1.3-0.2l-0.4-0.1c-0.9-0.1-1.8-0.2-2.8-0.3
		c-0.5,0-1,0-1.5,0c-4.2,0-8.4,0.8-14.2,1.8l-0.4,0.1c-2.3,0.4-4.8,0.9-7.6,1.3l-23.9,3.9c-0.2,0-0.4,0.2-0.4,0.5v32.4
		c0,0.2,0.2,0.5,0.4,0.5l44,12c4.1,1.3,7.5,1.9,10.6,1.9c2.2,0,4.5-0.3,7-0.9c2.2-0.5,4.5-1.3,7.2-2.1l43-13.8c3.1-1,5.2-3,5.7-5.5
		c0-0.1,0-0.1,0-0.2c0-0.3,0.1-0.5,0.1-0.7v-0.2c0-0.1,0-0.2,0-0.3l0-0.2c0-0.1,0-0.2,0-0.3c0-0.1,0-0.2-0.1-0.2c0,0,0-0.1,0-0.2
		c0-0.2-0.1-0.2-0.1-0.3c0,0,0-0.1,0-0.2c-0.1-0.2-0.2-0.4-0.3-0.5c0-0.1-0.1-0.1-0.2-0.2c-0.1-0.1-0.2-0.3-0.4-0.4
		c-0.2-0.2-0.3-0.3-0.5-0.4c0,0,0,0-0.1,0c-0.1-0.1-0.2-0.1-0.3-0.2c0,0,0,0-0.1-0.1c0,0,0,0,0,0c-0.4-0.2-0.7-0.3-1.1-0.4
		c-0.2-0.1-0.4-0.1-0.6-0.2c-0.6-0.1-1.2-0.2-2-0.2c-1.7,0-3.6,0.3-5.7,1c-0.1,0-2.3,0.5-22.3,4.4L106.3,141.1z"/>
	<path class="st1" d="M140.1,3.7c-6.6,0-12.9,2.5-17.7,7c0,0,0,0-0.1,0.1c-1.6,1.5-3,3.3-4.2,5.1c-2.5,4-3.8,8.7-3.8,13.5
		c0,14.2,11.6,25.8,25.8,25.8s25.8-11.6,25.8-25.8S154.3,3.7,140.1,3.7z M151.7,31.1c-0.5,0.5-1,0.7-1.7,0.7h-7
		c-0.3,0-0.5,0.2-0.5,0.5v7c0,0.5-0.1,0.9-0.4,1.3c-0.4,0.7-1.2,1-2,1c-1.3,0-2.4-1.1-2.4-2.4v-7c0-0.3-0.2-0.5-0.5-0.5h-7
		c-1.3,0-2.4-1.1-2.4-2.4c0-0.2,0-0.3,0-0.5c0.2-1.1,1.2-1.9,2.3-1.9h7c0.3,0,0.5-0.2,0.5-0.5v-6.9c0-0.3,0.1-0.6,0.2-0.9
		c0.4-0.9,1.2-1.4,2.2-1.4c1.3,0,2.4,1.1,2.4,2.4v6.9c0,0.3,0.2,0.5,0.5,0.5h7c1.3,0,2.4,1.1,2.4,2.4
		C152.4,30.1,152.2,30.7,151.7,31.1z"/>
	<path class="st4" d="M150,27.1h-7c-0.3,0-0.5-0.2-0.5-0.5v-7c0-1.3-1.1-2.4-2.4-2.4c-1,0-1.8,0.6-2.2,1.4c-0.1,0.3-0.2,0.6-0.2,0.9
		v7c0,0.3-0.2,0.5-0.5,0.5h-7c-1.1,0-2.1,0.8-2.3,1.9c0,0.2,0,0.3,0,0.5c0,1.3,1.1,2.4,2.4,2.4h7c0.3,0,0.5,0.2,0.5,0.5v7
		c0,1.3,1.1,2.4,2.4,2.4c0.8,0,1.5-0.4,2-1c0.3-0.4,0.4-0.8,0.4-1.3v-7c0-0.3,0.2-0.5,0.5-0.5h7c0.6,0,1.2-0.3,1.7-0.7
		c0.4-0.4,0.7-1,0.7-1.7C152.4,28.2,151.3,27.1,150,27.1z"/>
	<path class="st4" d="M138.2,77.8c0,1.3-1.1,2.4-2.4,2.4h-19.1c-0.2,0-0.3,0.1-0.4,0.2l-7.9,13.3c-0.4,0.7-1.2,1.2-2,1.2h0
		c-0.8,0-1.6-0.5-2-1.2L91.7,70.7c-0.1-0.2-0.2-0.2-0.4-0.3c0,0,0,0,0,0c-0.2,0-0.3,0.1-0.4,0.3l-9.2,16.1c-0.2,0.3-0.5,0.6-0.8,0.8
		C80.5,87.9,80,88,79.6,88c-0.8,0-1.6-0.4-2-1.1L72,78c-0.1-0.2-0.3-0.2-0.4-0.2c-0.2,0-0.3,0.1-0.4,0.2l-4.2,6.9
		c-0.4,0.7-1.2,1.2-2,1.2H49.4c-1.3,0-2.4-1.1-2.4-2.4s1.1-2.4,2.4-2.4h13.9c0.2,0,0.3-0.1,0.4-0.2l5.7-9.5c0.4-0.7,1.2-1.2,2-1.2
		c0.8,0,1.6,0.4,2,1.1l5.6,8.8c0.1,0.1,0.2,0.2,0.4,0.2c0,0,0,0,0,0c0.2,0,0.3-0.1,0.4-0.2l9.4-16.4c0.4-0.7,1.2-1.2,2.1-1.2
		c0.9,0,1.7,0.5,2.1,1.2L106,86.9c0.1,0.2,0.2,0.3,0.4,0.3h0c0.2,0,0.3-0.1,0.4-0.2l6.2-10.4c0.4-0.7,1.2-1.2,2-1.2h20.7
		C137.1,75.4,138.2,76.4,138.2,77.8z"/>
	<path class="st4" d="M166.7,16.7c-0.5-0.9-0.9-1.7-1.4-2.5c-0.5-0.9-1.1-1.7-1.6-2.4c-0.6-0.8-1.2-1.5-1.8-2.1c0,0,0-0.1,0-0.1
		C156.3,3.5,148.4,0,140.1,0c-16.3,0-29.5,13.2-29.5,29.5c0,0.3,0,0.7,0,1c0,0.2-0.1,0.4-0.3,0.5c-6.1,2.2-11.8,5.9-16.5,10.6
		L91.3,44c-0.1,0.1-0.2,0.2-0.4,0.2c-0.1,0-0.1,0-0.2,0c-0.1,0-0.2-0.1-0.2-0.2c-0.4-0.4-5.5-5-6.1-5.4c-2.3-1.8-4.6-3.3-6.8-4.6
		c-5.1-2.9-10.4-4.6-15.7-5.1c-1.1-0.1-2.1-0.1-3.2-0.1c-9.2,0-18.3,3.7-25,10c-0.8,0.7-1.5,1.5-2.1,2.2c-0.6,0.6-1.1,1.3-1.8,2.2
		c-7.1,9.1-10.3,21.8-8.5,33.8c1.6,10.4,6.8,20.6,14.6,28.6c0.3,0.3,0.6,0.6,0.9,0.8c0.4,0.4,0.9,0.9,1.3,1.3
		c0.1,0.1,0.1,0.2,0.1,0.4c0,0.1-0.1,0.3-0.2,0.3c-0.5,0.3-2.1,0.6-5.5,1c-1.5,0.2-3.4,0.5-3.9,0.6c-0.1,0.1-0.2,0.1-0.3,0.1h0
		c-0.3,0-0.5-0.2-0.5-0.5c-0.1-1.8-1.7-3.2-3.7-3.2H3.7c-2,0-3.7,1.5-3.7,3.4v43.8c0,1.8,1.6,3.4,3.7,3.4h20.5c2,0,3.6-1.4,3.7-3.2
		c0-0.2,0.1-0.3,0.2-0.4c0.1-0.1,0.2-0.1,0.3-0.1c0,0,0.1,0,0.1,0L71,164.9c4.5,1.4,8.3,2.1,11.9,2.1c5.5,0,10.3-1.5,16.3-3.5
		l42.4-13.6c4.7-1.5,8-4.8,8.9-9c0.7-3.2-0.3-6.4-2.6-8.4c-1.3-1.2-3.8-2.6-7.8-2.6c-2.1,0-4.4,0.4-7,1.2l-13.6,2.6c0,0-0.1,0-0.1,0
		c-0.2,0-0.3-0.1-0.4-0.3c-0.1-0.2-0.1-0.4,0.1-0.6l29.9-30.6c12-12.9,15.6-32.1,9-48.9c-0.1-0.2,0-0.4,0.2-0.6
		c1-0.8,1.8-1.5,2.6-2.3l0.2-0.2c0.3-0.3,0.7-0.7,1-1c0.7-0.7,1.3-1.5,1.9-2.2l0.1-0.2c0.2-0.3,0.4-0.6,0.7-0.9
		c0.2-0.3,0.4-0.7,0.7-1l0.1-0.2c0.2-0.4,0.5-0.8,0.7-1.2c0.9-1.7,1.7-3.4,2.2-5.3c0.1-0.4,0.2-0.8,0.3-1.2l0-0.1
		c0-0.1,0-0.2,0.1-0.2c0.1-0.3,0.2-0.7,0.2-1l0-0.2c0,0,0-0.1,0-0.1c0,0,0-0.1,0-0.1c0.1-0.3,0.1-0.6,0.2-0.9l0.1-0.4
		c0-0.1,0-0.3,0-0.4c0-0.4,0.1-0.7,0.1-1.1c0-0.5,0.1-1,0.1-1.5c0-0.5,0-1.1,0-1.7C169.6,25,168.6,20.7,166.7,16.7z M23,151.8
		c0,0.3-0.2,0.5-0.5,0.5H5.2c-0.3,0-0.5-0.2-0.5-0.5v-40c0-0.3,0.2-0.5,0.5-0.5h17.3c0.3,0,0.5,0.2,0.5,0.5V151.8z M134.4,135.6
		c2.1-0.7,4-1,5.7-1c0.8,0,1.4,0.1,2,0.2c0.2,0,0.4,0.1,0.6,0.2c0.4,0.1,0.7,0.2,1.1,0.4c0,0,0,0,0,0c0.1,0,0.1,0.1,0.1,0.1
		c0.1,0.1,0.2,0.1,0.3,0.2c0,0,0,0,0,0c0.2,0.1,0.3,0.2,0.5,0.4c0.1,0.1,0.3,0.3,0.4,0.4c0.1,0.1,0.1,0.1,0.2,0.2
		c0.1,0.2,0.2,0.4,0.3,0.5c0,0,0,0.1,0,0.2c0,0.1,0.1,0.2,0.1,0.3c0,0.1,0,0.2,0,0.2c0,0.1,0,0.2,0.1,0.2c0,0.1,0,0.2,0,0.3l0,0.2
		c0,0.1,0,0.2,0,0.3v0.2c0,0.2,0,0.4-0.1,0.7c0,0.1,0,0.2,0,0.2c-0.5,2.5-2.7,4.5-5.7,5.5l-43,13.8c-2.7,0.9-5,1.6-7.2,2.1
		c-2.6,0.6-4.8,0.9-7,0.9c-3.1,0-6.5-0.6-10.6-1.9l-44-12c-0.2,0-0.4-0.2-0.4-0.5v-32.4c0-0.2,0.2-0.4,0.4-0.5l23.9-3.9
		c2.8-0.5,5.4-0.9,7.6-1.3l0.4-0.1c5.8-1.1,10-1.8,14.2-1.8c0.5,0,1,0,1.5,0c1,0,1.9,0.1,2.8,0.3l0.4,0.1c0.4,0.1,0.8,0.1,1.3,0.2
		l13.6,2.5l0.3,0.1c0,0,0.7,0.3,0.7,0.3c0.1,0.1,0.5,0.2,0.5,0.2l0.1,0l0.3,0.1c0,0,0.1,0,0.1,0.1l0,0c0.1,0,0.2,0.1,0.2,0.1
		c0,0,0.1,0.1,0.1,0.1c0,0,0,0,0,0c0,0,0.2,0.1,0.2,0.1c0.1,0,0.1,0,0.1,0.1c0.1,0,0.1,0.1,0.1,0.1c0,0,0.1,0.1,0.1,0.1
		c0,0,0.1,0.1,0.2,0.1c0,0,0.1,0,0.1,0l0.2,0.2c0,0,0.2,0.1,0.2,0.1c0,0,0,0,0.1,0.1l0.2,0.1c0,0,0.1,0.1,0.2,0.1
		c0.2,0.2,0.4,0.4,0.6,0.6l0.1,0.1c0.1,0.1,0.1,0.1,0.2,0.2c0,0,0,0,0,0.1c0.1,0.1,0.2,0.2,0.3,0.3c0.1,0.1,0.2,0.2,0.3,0.4
		c0,0,0,0,0,0.1c0.2,0.3,0.4,0.6,0.6,0.9c0.1,0.2,0.2,0.5,0.3,0.7c0,0,0,0,0,0c0,0.1,0,0.1,0,0.1c0,0,0,0.1,0,0.1c0,0,0,0.1,0,0.1
		c0,0,0,0.2,0,0.2c0,0.1,0,0.1,0,0.1c0,0,0,0.1,0,0.2c0,0,0,0.1,0,0.1c0,0,0,0.1,0,0.1c0,0,0,0.1,0,0.1c0,0,0,0.1,0,0.2
		c0,0.2,0,0.3,0,0.5c0,0.1,0,0.2,0,0.2c0,0.1,0,0.3,0,0.4c0,0,0,0.2,0,0.2c-0.3,1.4-1.1,2.5-2.4,3.3c-1.2,0.8-2.9,1.2-4.8,1.2
		c-0.5,0-1,0-1.5-0.1c-3.7-0.4-7.8-0.9-11.7-1.4l-0.8-0.1c-1.1-0.1-2.1-0.3-3.1-0.4c-0.4-0.1-0.8-0.1-1.2-0.1
		c-1.9,0-3.7,0.7-5.2,2.1c-0.1,0.1-0.2,0.2-0.2,0.2l-0.1,0.2c0,0-0.2,0.3-0.3,0.4c-0.1,0.1-0.1,0.1-0.1,0.2c0,0-0.1,0.1-0.1,0.1
		c0,0-0.1,0.1-0.1,0.1l-0.1,0.1c-0.1,0.2-0.2,0.3-0.3,0.5c0,0.1-0.1,0.1-0.1,0.2c-0.2,0.3-0.3,0.6-0.4,0.9l-0.1,0.2
		c-0.1,0.3-0.2,0.7-0.3,1v0c0,0,0,0.1,0,0.1c-0.1,0.4-0.1,0.8-0.2,1.1c0,0,0,0,0,0.1v0.1c0,0.2,0,0.3,0,0.5c0,0.1,0,0.2,0,0.4l0,0.2
		c0,0.2,0,0.3,0,0.5c0,0.1,0,0.3,0.1,0.4c0,0,0,0,0,0c0,0.1,0,0.1,0,0.2c0,0,0,0.2,0,0.2c0.1,0.3,0.2,0.6,0.3,0.9
		c0,0,0.1,0.3,0.1,0.3l0.1,0.1c0,0.1,0.1,0.2,0.1,0.3c0,0,0,0.1,0,0.1c0,0,0.1,0.1,0.1,0.2c0,0,0,0.1,0.1,0.1c0,0,0.1,0.2,0.1,0.2
		c0,0,0,0.1,0.1,0.1c0,0,0.1,0.1,0.1,0.1c0,0,0,0.1,0.1,0.1c0,0,0.1,0.1,0.1,0.1c0,0.1,0,0.1,0.1,0.1c0,0,0,0.1,0.1,0.1
		c0,0.1,0.1,0.1,0.1,0.1c0,0,0.1,0.1,0.1,0.1c0,0,0,0.1,0.1,0.1c0,0,0,0,0,0c0.1,0.1,0.2,0.2,0.2,0.3c0,0,0,0,0,0
		c0,0,0.1,0.1,0.1,0.1c0,0,0,0,0.1,0.1c0.1,0.1,0.2,0.2,0.3,0.3c0,0,0.1,0,0.1,0.1c0,0,0.4,0.3,0.5,0.4c0.1,0.1,0.2,0.2,0.4,0.3
		c0,0,0,0,0,0l0.2,0.2c0,0,0.1,0.1,0.2,0.1c0.1,0.1,0.2,0.2,0.4,0.2c0,0,0.1,0,0.1,0.1c0,0,0.2,0.1,0.3,0.1c0,0,0.1,0,0.1,0.1
		c0,0,0.1,0.1,0.1,0.1c0,0,0.1,0,0.2,0.1c0,0,0.1,0,0.1,0.1c0.1,0,0.1,0.1,0.2,0.1c0.2,0.1,0.4,0.1,0.6,0.2c0,0,0.1,0,0.1,0
		c0,0,0.2,0,0.3,0.1l0.1,0c0.1,0,0.2,0,0.3,0.1c0,0,0,0,0,0c0.1,0,17.9,3.3,17.9,3.3l3.1,0.6c0.3,0,0.5,0.1,0.8,0.1l0.1,0
		c0.5,0.1,0.9,0.1,1.3,0.2c1.1,0.1,2,0.2,2.8,0.2c1.1,0,2.1-0.1,3.5-0.3c0.4-0.1,1.7-0.3,2.8-0.6l5.8-1.1
		C132,136.1,134.3,135.6,134.4,135.6z M145.5,99l-35.6,36.5c-0.1,0.1-0.2,0.1-0.3,0.1l-5,1c-2,0.4-3.2,0.6-4.6,0.6
		c-1,0-2.2-0.1-4.2-0.4l-21.3-3.9c-3-1-2.7-3.4-2.5-4.1c0.2-0.9,1.1-2.6,3-2.6c0.1,0,0.3,0,0.6,0l3.1,0.4l1.8,0.2
		c3.4,0.4,7.3,0.9,10.8,1.3c0.8,0.1,1.4,0.1,2,0.1c7.5,0,11-4.4,11.8-8.2c1-4.7-1.7-11-9.9-13.6c0,0-0.1,0-0.2,0c0,0-0.1,0-0.2,0
		l-13.7-2.5c-2.3-0.4-4.5-0.6-6.8-0.6c-4.7,0-9.3,0.8-15.1,1.9c-2.3,0.4-4.9,0.9-7.9,1.4l-3,0.5l-3.3,0.6c0,0,0,0-0.1,0
		c-0.1,0-0.3-0.1-0.4-0.2l-8.1-8.3c-11.3-12.1-14.1-31.4-6.8-46.7c2.6-5,5.2-8.3,6.9-10.2c5.4-5.7,12.4-8.8,20.4-9
		c0.1,0,0.2,0,0.3,0c0.1,0,0.2,0,0.4,0c0.7,0,1.4,0,2.1,0.1l0.5,0v0.1c8.8,0.7,17.7,4.9,24.6,11.7l2.7,2.7c1.3,1.3,2.4,1.9,3.4,1.9
		c1.1,0,2.1-0.6,3.4-1.9l2.8-2.7c4-3.9,8.7-7,13.6-9c0.1,0,0.1,0,0.2,0c0.1,0,0.2,0,0.2,0.1c0.1,0.1,0.2,0.2,0.3,0.3
		c3.1,13.3,14.9,22.7,28.7,22.7c4.6,0,9-1,13.1-3.1c0.1,0,0.2,0,0.2,0c0.1,0,0.1,0,0.2,0c0.1,0.1,0.2,0.2,0.3,0.3
		C159.2,71,155.9,87.8,145.5,99z M140.1,55.2c-14.2,0-25.8-11.6-25.8-25.8c0-4.8,1.3-9.5,3.8-13.5c1.2-1.9,2.6-3.6,4.2-5.1
		c0,0,0.1,0,0.1-0.1c4.8-4.5,11.1-7,17.7-7c14.2,0,25.8,11.6,25.8,25.8S154.3,55.2,140.1,55.2z"/>
</g>
</svg>
