<?xml version="1.0" encoding="utf-8"?>
<!-- Generator: Adobe Illustrator 24.3.0, SVG Export Plug-In . SVG Version: 6.00 Build 0)  -->
<svg version="1.1" id="Layer_1" xmlns="http://www.w3.org/2000/svg" xmlns:xlink="http://www.w3.org/1999/xlink" x="0px" y="0px"
	 viewBox="0 0 135.1 165" style="enable-background:new 0 0 135.1 165;" xml:space="preserve">
<style type="text/css">
	.st0{fill:#00B0FB;}
	.st1{fill:#FFFFFF;}
	.st2{fill:#00B0FB;fill-opacity:0.4;}
</style>
<g>
	<path class="st1" d="M14.94,27.78c0-5.09,0-9.94,0-14.79c0-3.48,0.5-3.99,3.96-3.99c21.36,0,42.73,0,64.09,0
		c3.72,0,4.24,0.52,4.24,4.17c0,4.78,0,9.57,0,14.61c3.12,0,6.02-0.01,8.93,0c2.97,0.01,3.55,0.57,3.55,3.52
		c0.01,15.17,0.03,30.34-0.03,45.51c-0.01,1.62,0.38,2.22,2.08,2.51c15.9,2.74,29.07,16.88,30.91,33.05
		c2.31,20.29-10.32,38.51-30.3,42.67c-15.68,3.26-28.79-1.82-38.84-14.36c-1.03-1.29-2.01-1.78-3.62-1.77
		c-17.89,0.05-35.77,0.03-53.66,0.03c-3.54,0-4.09-0.55-4.09-4.12c0-34.31,0-68.62,0-102.93c0-3.62,0.48-4.1,4.06-4.11
		C9,27.78,11.78,27.78,14.94,27.78z M7.15,32.58c0,34.02,0,67.79,0,101.51c7.43,0,14.7,0,22.1,0c0-0.92,0-1.68,0-2.44
		c0-7.51-0.01-15.03,0-22.54c0-3.17,0.59-3.74,3.81-3.75c7.51-0.01,15.03,0.02,22.54-0.04c0.71-0.01,1.81-0.28,2.07-0.77
		c1.22-2.37,2.21-4.86,3.25-7.21c-6.06,0-12.1,0.04-18.14-0.02c-2.21-0.02-3.13-0.93-3.14-3.02c-0.04-5.84-0.01-11.69-0.02-17.53
		c0-1.85,0.9-2.93,2.76-2.94c5.7-0.04,11.41-0.03,17.11-0.01c1.74,0.01,2.72,0.9,2.74,2.7c0.01,0.77,0.01,1.53,0.01,2.3
		c0,5.33,0,10.65,0,16.14c3.49-2.96,4.11-4.23,4.11-8.19c0-3.2-0.02-6.4,0.01-9.6c0.02-2.55,0.83-3.35,3.41-3.36
		c4.52-0.02,9.04-0.01,13.57-0.01c5.06,0,5.06,0,5.97,4.96c1.81-0.11,3.65-0.23,5.49-0.34c0-15.42,0-30.61,0-45.85
		C65.49,32.58,36.37,32.58,7.15,32.58z M94.31,151.23c18.57,0.02,33.89-15.16,33.9-33.58c0.01-19.09-14.94-34.32-33.73-34.36
		c-18.77-0.05-33.97,15.11-34,33.89C60.44,135.99,75.55,151.2,94.31,151.23z M82.45,13.92c-20.91,0-41.72,0-62.56,0
		c0,4.68,0,9.21,0,13.72c20.95,0,41.71,0,62.56,0C82.45,23.01,82.45,18.53,82.45,13.92z M59.41,134.15
		c-3.54-7.73-4.65-15.65-3.23-23.9c-7.51,0-14.76,0-21.97,0c0,8.06,0,15.95,0,23.9C42.61,134.15,50.85,134.15,59.41,134.15z
		 M44.56,78.72c0,4.7,0,9.17,0,13.69c4.36,0,8.57,0,12.85,0c0-4.6,0-9.08,0-13.69C53.11,78.72,48.91,78.72,44.56,78.72z
		 M71.31,85.42c4.17-1.82,8.2-3.57,12.22-5.37c0.36-0.16,0.59-0.65,1.15-1.3c-4.78,0-9.03,0-13.37,0
		C71.31,81.15,71.31,83.41,71.31,85.42z"/>
	<path class="st2" d="M82.45,13.92c0,4.6,0,9.09,0,13.72c-20.85,0-41.61,0-62.56,0c0-4.51,0-9.04,0-13.72
		C40.73,13.92,61.54,13.92,82.45,13.92z"/>
	<path class="st0" d="M59.41,134.15c-8.56,0-16.8,0-25.2,0c0-7.95,0-15.84,0-23.9c7.22,0,14.47,0,21.97,0
		C54.76,118.5,55.87,126.42,59.41,134.15z"/>
	<path class="st1" d="M35.47,85.41c0,2.92,0.03,5.84-0.01,8.75c-0.03,2.26-0.75,3.13-2.93,3.15c-5.56,0.07-11.12,0.07-16.67,0
		c-2.18-0.03-2.94-0.9-2.95-3.16c-0.03-5.77-0.03-11.53,0-17.3c0.01-2.2,0.83-3.03,3.05-3.04c5.49-0.04,10.98-0.04,16.47,0
		c2.23,0.02,3,0.81,3.04,3.04C35.5,79.71,35.47,82.56,35.47,85.41z M30.6,92.43c0-4.7,0-9.18,0-13.69c-4.35,0-8.55,0-12.86,0
		c0,4.62,0,9.1,0,13.69C22.07,92.43,26.28,92.43,30.6,92.43z"/>
	<path class="st1" d="M62.24,57.31c0,2.92,0.04,5.84-0.01,8.76c-0.03,2.16-0.89,3.02-3.06,3.03c-5.49,0.03-10.98,0.03-16.47,0
		c-2.12-0.01-3.05-0.94-3.06-3.07c-0.04-5.77-0.03-11.54,0-17.31c0.01-2.2,0.84-3.1,2.99-3.12c5.56-0.05,11.12-0.03,16.68-0.01
		c1.94,0,2.95,0.97,2.94,2.96C62.23,51.47,62.24,54.39,62.24,57.31z M44.59,50.4c0,4.72,0,9.25,0,13.81c4.39,0,8.6,0,12.77,0
		c0-4.69,0-9.23,0-13.81C53.06,50.4,48.9,50.4,44.59,50.4z"/>
	<path class="st1" d="M89.03,57.28c0,2.92,0.04,5.84-0.01,8.76c-0.04,2.18-0.91,3.05-3.05,3.06c-5.49,0.03-10.98,0.03-16.47,0
		c-2.13-0.01-3.1-0.93-3.12-3.04c-0.05-5.84-0.03-11.68-0.01-17.52c0.01-1.92,1.02-2.96,2.99-2.96c5.56,0,11.12-0.04,16.68,0.01
		c2.17,0.02,2.94,0.87,2.98,3.13C89.07,51.58,89.03,54.43,89.03,57.28z M84.13,64.26c0-4.73,0-9.27,0-13.8c-4.35,0-8.55,0-12.76,0
		c0,4.66,0,9.18,0,13.8C75.68,64.26,79.82,64.26,84.13,64.26z"/>
	<path class="st1" d="M35.47,57.27c0,2.92,0.03,5.84-0.01,8.76c-0.03,2.2-0.86,3.06-3.02,3.07c-5.49,0.03-10.98,0.03-16.47,0
		c-2.18-0.01-3.05-0.86-3.06-3.04c-0.04-5.84,0-11.67-0.01-17.51c0-1.98,0.98-2.96,2.93-2.96c5.56-0.01,11.12-0.04,16.68,0.01
		c2.18,0.02,2.93,0.87,2.95,3.12C35.5,51.57,35.47,54.42,35.47,57.27z M17.79,50.44c0,4.64,0,9.17,0,13.78c4.35,0,8.55,0,12.83,0
		c0-4.67,0-9.2,0-13.78C26.27,50.44,22.07,50.44,17.79,50.44z"/>
	<path class="st1" d="M108.78,106.26c-3.42,0-6.49-0.2-9.49,0.12c-0.93,0.1-2.42,1.62-2.44,2.51c-0.18,7.65-0.08,15.3-0.06,22.96
		c0,0.12,0.11,0.24,0.22,0.49c0.68,0.05,1.57-0.12,2.15,0.23c0.84,0.51,1.85,1.28,2.07,2.13c0.34,1.3-0.63,2.36-1.98,2.4
		c-3.34,0.11-6.69,0.16-10.01-0.08c-0.72-0.05-1.86-1.44-1.87-2.21c-0.01-0.75,1.08-1.71,1.91-2.21c0.63-0.38,1.6-0.19,2.55-0.27
		c0.05-0.71,0.12-1.32,0.12-1.93c0.01-6.89,0.01-13.78,0-20.67c0-2.13-1.3-3.45-3.43-3.47c-2.78-0.03-5.55-0.01-8.67-0.01
		c1.15,3.14,2.16,6.07,3.3,8.95c0.81,2.05,2.1,3.96,2.59,6.07c0.34,1.49,0.01,3.34-0.58,4.8c-1.49,3.65-6.04,5.77-10.27,5.09
		c-5.02-0.8-7.79-3.4-8.35-7.89c-0.07-0.6-0.06-1.28,0.15-1.82c2.27-5.89,4.64-11.73,6.85-17.64c0.76-2.03,1.78-2.71,4.05-2.49
		c3.45,0.33,6.95,0.16,10.43,0.1c0.47-0.01,1.07-0.51,1.37-0.95c2.79-4.04,7.04-3.99,9.87,0.09c0.34,0.49,1.2,0.87,1.82,0.87
		c3.61,0.01,7.23-0.06,10.84-0.21c1.5-0.06,2.35,0.57,2.84,1.91c1.85,5.01,3.72,10.02,5.58,15.04c0.22,0.59,0.42,1.18,0.69,1.74
		c1.5,3.04,1.23,5.64-1.09,8.13c-3.02,3.24-6.82,3.82-10.92,2.74c-3.18-0.84-5.49-2.84-6.12-6.14c-0.26-1.35,0.1-2.94,0.57-4.28
		C105.1,115.71,106.92,111.15,108.78,106.26z M76.25,110.36c-1.29,3.5-2.35,6.37-3.47,9.39c2.48,0,4.63,0,6.99,0
		C78.61,116.67,77.53,113.8,76.25,110.36z M112.34,110.37c-1.29,3.47-2.37,6.35-3.5,9.38c2.41,0,4.56,0,6.97,0
		C114.68,116.67,113.62,113.83,112.34,110.37z M80.5,124.77c-2.97,0-5.52,0-8.18,0C74.46,127,77.48,127.07,80.5,124.77z
		 M108.06,124.74c2.94,2.38,6.53,2.25,7.97,0C113.51,124.74,110.98,124.74,108.06,124.74z"/>
	<path class="st0" d="M76.25,110.36c1.29,3.44,2.36,6.31,3.52,9.39c-2.36,0-4.51,0-6.99,0C73.89,116.73,74.95,113.86,76.25,110.36z"
		/>
	<path class="st0" d="M112.34,110.37c1.28,3.46,2.33,6.3,3.48,9.38c-2.41,0-4.57,0-6.97,0
		C109.97,116.72,111.05,113.84,112.34,110.37z"/>
	<path class="st0" d="M80.5,124.77c-3.02,2.29-6.04,2.23-8.18,0C74.99,124.77,77.54,124.77,80.5,124.77z"/>
	<path class="st0" d="M108.06,124.74c2.92,0,5.45,0,7.97,0C114.6,126.99,111,127.13,108.06,124.74z"/>
</g>
</svg>
