<?xml version="1.0" encoding="utf-8"?>
<!-- Generator: Adobe Illustrator 24.3.0, SVG Export Plug-In . SVG Version: 6.00 Build 0)  -->
<svg version="1.1" id="Layer_1" xmlns="http://www.w3.org/2000/svg" xmlns:xlink="http://www.w3.org/1999/xlink" x="0px" y="0px"
	 viewBox="0 0 165.99 166.6" style="enable-background:new 0 0 165.99 166.6;" xml:space="preserve">
<style type="text/css">
	.st0{fill:#00B0FB;fill-opacity:0.4;}
	.st1{fill:#FFFFFF;}
	.st2{fill:#00B0FB;}
	.st3{fill:none;stroke:#FFFFFF;stroke-width:4;stroke-miterlimit:10;}
</style>
<g>
	<rect x="25.72" y="44.24" class="st2" width="81.99" height="18.12"/>
	<g>
		<path class="st1" d="M123.71,66.46c4.35,0.5,6.66,2.66,7.08,6.87c0.2,1.99,2.62,2.87,4.35,1.76c3.97-2.54,6.59-2.27,9.89,1.02
			c0.9,0.89,1.81,1.77,2.67,2.69c2.55,2.75,2.71,6.02,0.48,9.04c-1.67,2.26-0.84,4.47,1.87,4.96c3.44,0.61,5.5,2.76,5.73,6.24
			c0.14,2.04,0.13,4.12-0.06,6.16c-0.3,3.18-2.5,5.3-5.66,5.76c-3.12,0.45-4.03,2.45-2.29,5.04c1.9,2.84,1.71,5.89-0.58,8.48
			c-0.89,1-1.86,1.94-2.82,2.88c-3.31,3.25-6.34,3.5-10.14,0.84c-1.75-1.22-4.26-0.33-4.53,1.78c-0.39,3.11-2,4.98-4.86,6.11
			c-0.57,0.23-1.08,1.39-1.09,2.13c-0.08,6.41-0.04,12.81-0.05,19.22c-0.01,3.44-0.73,4.17-4.16,4.17c-35.04,0-70.07,0-105.11,0
			c-3.75,0-4.32-0.58-4.32-4.46c0-40.34,0-80.67,0-121.01c0-8.94-0.01-17.87,0-26.81c0-3.69,0.63-4.33,4.23-4.33
			c35.04,0,70.07,0,105.11,0c3.55,0,4.26,0.71,4.26,4.32c0.01,18.03,0,36.06,0,54.09C123.71,64.36,123.71,65.3,123.71,66.46z
			 M111.24,128.16c-0.23,0.14-0.47,0.27-0.7,0.41c0,3.47,0,6.95,0,10.42c0,2.02-1.04,3.12-3.05,3.13
			c-5.61,0.03-11.23,0.04-16.84-0.01c-1.74-0.01-2.88-0.93-2.89-2.76c-0.04-5.77-0.04-11.54,0-17.32c0.01-1.68,0.99-2.59,2.68-2.7
			c0.61-0.04,1.22-0.11,1.4-0.13c0.92-1.76,1.59-3.25,2.46-4.62c1.23-1.92,0.3-4.17-2-4.59c-3.97-0.72-5.92-2.98-5.98-6.97
			c-0.02-1.19-0.01-2.37,0-3.56c0.02-4.88,1.7-6.86,6.49-7.67c1.86-0.31,3.28-2.65,2.2-4.07c-1.94-2.53-2.54-5.14-1.1-8.26
			c-6.81,0-13.29,0-19.76,0c-5.14,0-10.28,0.03-15.42-0.02c-2.38-0.02-4.04-2-2.92-3.56c0.63-0.88,2.17-1.56,3.31-1.57
			c12.57-0.11,25.15-0.06,37.72-0.08c0.85,0,1.84,0.07,2.53-0.31c3.15-1.72,5.99-1.49,8.78,0.8c1.27,1.04,4.06,0.14,4.2-1.44
			c0.35-3.86,2.51-5.95,6-6.84c0-10.87,0-21.6,0-32.41c-34.35,0-68.55,0-102.85,0c0,40.81,0,81.49,0,122.19
			c34.36,0,68.57,0,102.88,0c0-6.66,0-13.18,0-19.81C113.56,135.91,111.33,133.02,111.24,128.16z M15.49,28.55
			c34.37,0,68.56,0,102.87,0c0-6.13,0-12.1,0-18.2c-34.33,0-68.53,0-102.87,0C15.49,16.45,15.49,22.48,15.49,28.55z M144.77,83.47
			c-1.02-1.1-2.01-2.08-2.9-3.15c-1.3-1.57-2.41-1.95-4.34-0.56c-4.26,3.06-11.22-0.11-11.88-5.35c-0.26-2.04-1.03-2.82-3-2.58
			c-0.7,0.09-1.43,0.1-2.13,0.03c-1.74-0.17-2.63,0.24-3,2.29c-0.95,5.33-7.85,8.32-11.99,5.12c-2.1-1.62-3.27-1.15-4.68,0.51
			c-0.56,0.66-1.42,1.15-1.76,1.89c-0.32,0.69-0.5,1.83-0.14,2.4c3.58,5.7,0.97,11.65-5.71,13.04c-0.66,0.14-1.37,1.05-1.63,1.76
			c-0.28,0.77,0.02,1.73-0.09,2.58c-0.27,2.26,0.42,3.28,2.91,3.74c4.97,0.91,7.56,7.98,4.43,11.95c-1.48,1.87-1.23,2.99,0.38,4.33
			c0.66,0.56,1.25,1.21,1.83,1.85c0.92,1.01,1.88,1.12,2.86,0.16c4.1-4.05,12.71,0.12,12.74,5.51c0.01,1.58,0.76,2.11,2.19,2.05
			c0.63-0.03,1.28-0.16,1.89-0.06c2.45,0.41,3.57-0.33,4.11-3.02c0.97-4.77,7.82-7.38,11.63-4.48c2.1,1.6,3.41,1.43,4.88-0.5
			c0.43-0.56,0.97-1.04,1.51-1.5c1.1-0.97,1.18-1.94,0.16-3.03c-3.83-4.11,0.27-12.79,5.53-12.56c1.51,0.07,2.14-0.74,2.1-2.2
			c-0.03-0.95-0.05-1.9,0.01-2.84c0.11-1.73-0.31-2.78-2.37-2.97c-5.22-0.48-8.45-8.82-4.74-12.66
			C143.99,84.76,144.27,84.19,144.77,83.47z M105.24,128.96c-3.5,1.06-6.07-0.01-8.34-2.42c-0.91-0.97-2.2-1.58-3.79-2.69
			c0,4.87,0,8.85,0,12.87c4.14,0,8.11,0,12.13,0C105.24,134.09,105.24,131.66,105.24,128.96z"/>
		<path class="st2" d="M15.49,28.55c0-6.07,0-12.1,0-18.2c34.34,0,68.54,0,102.87,0c0,6.1,0,12.07,0,18.2
			C84.06,28.55,49.86,28.55,15.49,28.55z M72.47,19.27c7.19,0,14.38-0.02,21.57,0.01c1.77,0.01,3.27-0.36,3.32-2.45
			c0.05-2.15-1.39-2.78-3.3-2.78c-14.46,0.01-28.91,0.01-43.37-0.01c-1.88,0-3.45,0.54-3.47,2.65c-0.02,2.16,1.56,2.61,3.45,2.6
			C57.93,19.25,65.2,19.27,72.47,19.27z M31.28,19.27c2.76,0,5.52-0.02,8.28,0.01c1.71,0.02,3.05-0.52,3.13-2.42
			c0.08-1.99-1.23-2.78-3.05-2.79c-5.52-0.02-11.04-0.02-16.56-0.01c-1.81,0-3.17,0.73-3.14,2.71c0.03,1.87,1.33,2.51,3.06,2.5
			C25.76,19.25,28.52,19.27,31.28,19.27z"/>
		<path class="st0" d="M144.77,83.47c-0.49,0.72-0.78,1.29-1.2,1.73c-3.71,3.84-0.48,12.18,4.74,12.66
			c2.07,0.19,2.48,1.24,2.37,2.97c-0.06,0.94-0.04,1.9-0.01,2.84c0.04,1.46-0.59,2.26-2.1,2.2c-5.26-0.23-9.36,8.46-5.53,12.56
			c1.02,1.1,0.95,2.06-0.16,3.03c-0.53,0.47-1.08,0.94-1.51,1.5c-1.47,1.93-2.78,2.1-4.88,0.5c-3.81-2.9-10.66-0.29-11.63,4.48
			c-0.55,2.69-1.67,3.43-4.11,3.02c-0.61-0.1-1.26,0.03-1.89,0.06c-1.43,0.07-2.18-0.47-2.19-2.05c-0.03-5.39-8.64-9.56-12.74-5.51
			c-0.98,0.97-1.94,0.86-2.86-0.16c-0.58-0.64-1.17-1.29-1.83-1.85c-1.6-1.34-1.85-2.46-0.38-4.33c3.13-3.97,0.54-11.04-4.43-11.95
			c-2.5-0.46-3.19-1.48-2.91-3.74c0.1-0.86-0.2-1.82,0.09-2.58c0.26-0.71,0.97-1.62,1.63-1.76c6.68-1.39,9.28-7.33,5.71-13.04
			c-0.36-0.57-0.18-1.71,0.14-2.4c0.35-0.74,1.2-1.23,1.76-1.89c1.41-1.66,2.59-2.14,4.68-0.51c4.13,3.2,11.04,0.22,11.99-5.12
			c0.37-2.05,1.25-2.46,3-2.29c0.7,0.07,1.43,0.06,2.13-0.03c1.98-0.24,2.75,0.53,3,2.58c0.66,5.24,7.62,8.41,11.88,5.35
			c1.93-1.39,3.04-1.01,4.34,0.56C142.76,81.39,143.75,82.38,144.77,83.47z M137.77,101.28c-0.03-9.23-7.51-16.59-16.82-16.55
			c-9.25,0.04-16.61,7.51-16.57,16.81c0.04,9.12,7.49,16.57,16.58,16.6C130.32,118.16,137.8,110.65,137.77,101.28z"/>
		<path class="st2" d="M105.24,128.96c0,2.7,0,5.13,0,7.76c-4.02,0-7.99,0-12.13,0c0-4.01,0-8,0-12.87
			c1.59,1.11,2.88,1.72,3.79,2.69C99.17,128.95,101.74,130.02,105.24,128.96z"/>
		<path class="st1" d="M66.85,64.82c-13.2,0-26.4,0-39.6,0c-3.17,0-4.02-0.87-4.03-4.09c-0.01-4.9-0.02-9.8,0.01-14.7
			c0.01-2.66,0.92-3.6,3.52-3.6c26.79-0.01,53.59-0.01,80.38,0c2.5,0,3.38,0.91,3.39,3.45c0.03,5.06,0.02,10.12,0,15.18
			c-0.01,2.91-0.89,3.77-3.84,3.77C93.41,64.82,80.13,64.82,66.85,64.82z M105.21,47.82c-25.67,0-51.15,0-76.58,0
			c0,4.02,0,7.85,0,11.63c25.61,0,51.04,0,76.58,0C105.21,55.55,105.21,51.78,105.21,47.82z"/>
		<path class="st1" d="M34.74,119.33c2.69,0,5.37,0.03,8.06-0.01c2.15-0.03,3.24,0.91,3.24,3.1c-0.02,5.53-0.02,11.06,0,16.59
			c0.01,2.21-1.17,3.13-3.26,3.13c-5.37,0-10.74,0.02-16.12-0.01c-2.42-0.02-3.41-1.03-3.43-3.5c-0.03-5.29-0.03-10.59,0-15.88
			c0.02-2.5,0.94-3.39,3.45-3.42C29.37,119.3,32.06,119.33,34.74,119.33z M28.5,136.76c4.19,0,8.15,0,12.13,0c0-4.13,0-8.09,0-12.01
			c-4.16,0-8.12,0-12.13,0C28.5,128.81,28.5,132.67,28.5,136.76z"/>
		<path class="st1" d="M66.99,119.33c2.69,0,5.37,0.02,8.06-0.01c2.14-0.02,3.25,0.94,3.25,3.12c-0.01,5.53,0,11.06,0,16.59
			c0,2.05-1.08,3.08-3.07,3.09c-5.53,0.03-11.06,0.03-16.59,0c-2.13-0.01-3.15-1.15-3.15-3.28c0.01-5.45,0.01-10.9,0-16.36
			c0-2.14,1.04-3.19,3.2-3.17C61.46,119.35,64.23,119.33,66.99,119.33z M60.84,136.74c4.16,0,8.12,0,12.04,0c0-4.14,0-8.11,0-12.05
			c-4.11,0-8.01,0-12.04,0C60.84,128.73,60.84,132.64,60.84,136.74z"/>
		<path class="st1" d="M55.65,88.94c9.48,0,18.96,0.01,28.44-0.01c1.87,0,3.7,0.12,3.64,2.58c-0.05,2.33-1.82,2.65-3.71,2.65
			c-18.96,0-37.92,0-56.89,0c-0.24,0-0.47,0-0.71-0.01c-1.82-0.08-3.18-0.94-3.11-2.82c0.07-1.78,1.41-2.42,3.18-2.4
			c5.53,0.05,11.06,0.02,16.59,0.02C47.28,88.94,51.47,88.94,55.65,88.94z"/>
		<path class="st1" d="M55.48,108.05c-8.69,0-17.38-0.02-26.07,0.02c-1.92,0.01-3.73-0.26-3.7-2.58c0.03-2.22,1.78-2.67,3.72-2.67
			c17.3,0.02,34.6,0.01,51.9,0.01c0.24,0,0.47,0,0.71,0c1.84,0.04,3.19,0.91,3.13,2.79c-0.06,1.77-1.36,2.46-3.14,2.44
			c-5.45-0.05-10.9-0.02-16.35-0.02C62.28,108.05,58.88,108.05,55.48,108.05z"/>
		<path class="st1" d="M35.5,73.42c2.93,0,5.85,0,8.78,0c1.73,0,3.04,0.66,3.07,2.53c0.04,2-1.28,2.69-3.14,2.69
			c-5.93-0.02-11.86-0.03-17.79,0c-1.78,0.01-3.06-0.78-3.11-2.52c-0.05-1.9,1.31-2.72,3.17-2.71C29.49,73.43,32.5,73.42,35.5,73.42
			z"/>
		<path class="st1" d="M72.47,19.27c-7.27,0-14.54-0.02-21.8,0.02c-1.89,0.01-3.47-0.44-3.45-2.6c0.02-2.1,1.59-2.65,3.47-2.65
			c14.46,0.02,28.91,0.01,43.37,0.01c1.91,0,3.35,0.63,3.3,2.78c-0.05,2.09-1.55,2.46-3.32,2.45
			C86.85,19.25,79.66,19.27,72.47,19.27z"/>
		<path class="st1" d="M31.28,19.27c-2.76,0-5.52-0.01-8.28,0c-1.73,0.01-3.03-0.63-3.06-2.5c-0.03-1.98,1.33-2.71,3.14-2.71
			c5.52-0.01,11.04-0.02,16.56,0.01c1.82,0.01,3.13,0.8,3.05,2.79c-0.08,1.9-1.42,2.43-3.13,2.42
			C36.8,19.25,34.04,19.27,31.28,19.27z"/>
		<path class="st1" d="M137.77,101.28c0.03,9.37-7.45,16.88-16.8,16.85c-9.09-0.02-16.54-7.48-16.58-16.6
			c-0.04-9.3,7.32-16.77,16.57-16.81C130.26,84.69,137.74,92.05,137.77,101.28z M121.14,89.95c-6.37-0.03-11.49,5-11.54,11.34
			c-0.05,6.37,4.96,11.52,11.3,11.62c6.43,0.1,11.66-5.06,11.66-11.49C132.55,95.05,127.5,89.98,121.14,89.95z"/>
		<path class="st2" d="M28.5,136.76c0-4.09,0-7.95,0-12.01c4.01,0,7.97,0,12.13,0c0,3.91,0,7.88,0,12.01
			C36.65,136.76,32.69,136.76,28.5,136.76z"/>
		<path class="st2" d="M60.84,136.74c0-4.1,0-8.01,0-12.05c4.03,0,7.93,0,12.04,0c0,3.95,0,7.91,0,12.05
			C68.95,136.74,64.99,136.74,60.84,136.74z"/>
	</g>
</g>
</svg>
