<?xml version="1.0" encoding="utf-8"?>
<!-- Generator: Adobe Illustrator 24.3.0, SVG Export Plug-In . SVG Version: 6.00 Build 0)  -->
<svg version="1.1" id="Layer_1" xmlns="http://www.w3.org/2000/svg" xmlns:xlink="http://www.w3.org/1999/xlink" x="0px" y="0px"
	 viewBox="0 0 165.99 166.6" style="enable-background:new 0 0 165.99 166.6;" xml:space="preserve">
<style type="text/css">
	.st0{fill:#00B0FB;fill-opacity:0.4;}
	.st1{fill:#FFFFFF;}
	.st2{fill:#00B0FB;}
	.st3{fill:none;stroke:#FFFFFF;stroke-width:4;stroke-miterlimit:10;}
</style>
<g>
	<g>
		<path class="st1" d="M2.47,83.24c0-23.99,0-47.97,0-71.96c0-6.19,2.46-8.67,8.58-8.67c47.96,0,95.93,0,143.89,0
			c6.01,0,8.57,2.51,8.57,8.46c0.01,48.13,0.01,96.26,0,144.39c0,6.01-2.53,8.54-8.48,8.54c-48.04,0-96.08,0-144.12,0
			c-5.96,0-8.44-2.51-8.44-8.56C2.47,131.37,2.47,107.3,2.47,83.24z M156.67,156.56c0-1.18,0-2.02,0-2.86
			c0-35.58-0.02-71.17,0.05-106.75c0.01-2.35-0.56-2.98-2.95-2.97c-47.18,0.08-94.35,0.07-141.53,0c-2.32,0-3,0.51-2.99,2.93
			c0.09,35.51,0.06,71.01,0.06,106.52c0,3.42,0,3.42,3.35,3.41c39.86-0.09,79.72-0.19,119.57-0.28
			C140.25,156.54,148.26,156.56,156.67,156.56z M156.67,37.39c0-0.89,0-1.65,0-2.41c0-7.63-0.09-15.26,0.05-22.89
			c0.04-2.22-0.69-2.69-2.77-2.69c-29.96,0.06-59.93,0.04-89.9,0.04c-0.82,0-1.65,0-2.49,0c0,9.51,0,18.67,0,27.94
			C93.26,37.39,124.82,37.39,156.67,37.39z M9.52,9.74c0,9.32,0,18.36,0,27.36c15.1,0,29.99,0,44.89,0c0-9.25,0-18.32,0-27.36
			C39.38,9.74,24.49,9.74,9.52,9.74z"/>
		<path class="st2" d="M156.67,37.39c-31.85,0-63.41,0-95.1,0c0-9.27,0-18.42,0-27.94c0.84,0,1.67,0,2.49,0
			c29.97,0,59.93,0.02,89.9-0.04c2.08,0,2.81,0.46,2.77,2.69c-0.14,7.63-0.05,15.26-0.05,22.89
			C156.67,35.74,156.67,36.49,156.67,37.39z M145.98,20.22c-20.41,0-40.59,0-60.81,0c0,2.32,0,4.45,0,6.6c20.36,0,40.54,0,60.81,0
			C145.98,24.57,145.98,22.49,145.98,20.22z"/>
		<path class="st2" d="M9.52,9.74c14.97,0,29.86,0,44.89,0c0,9.04,0,18.11,0,27.36c-14.9,0-29.8,0-44.89,0
			C9.52,28.1,9.52,19.06,9.52,9.74z M29.16,23.53c0.02-2.37-2.04-4.46-4.4-4.47c-2.39-0.01-4.39,2.01-4.42,4.44
			c-0.02,2.49,1.91,4.47,4.35,4.46C27.06,27.96,29.14,25.9,29.16,23.53z M44.58,23.55c0.05-2.49-1.84-4.46-4.31-4.49
			c-2.41-0.03-4.46,1.95-4.5,4.35c-0.04,2.4,1.96,4.51,4.33,4.55C42.43,28,44.52,25.94,44.58,23.55z"/>
		<path class="st1" d="M79.14,76.54c3.76-3.82,7.51-7.65,11.28-11.45c5.5-5.53,9.72-5.56,15.19-0.12c4.58,4.56,9.15,9.12,13.71,13.7
			c4.58,4.6,4.6,9.77,0.07,14.32c-3.84,3.86-7.7,7.72-11.54,11.58c-0.1,0.1-0.13,0.27-0.39,0.84c2.91,0,5.65-0.08,8.38,0.02
			c2.08,0.08,4.24,0.06,6.19,0.65c3.38,1.03,5.32,3.69,5.39,7.15c0.17,8.17,0.18,16.35,0,24.52c-0.09,4.19-3.52,7.33-7.72,7.65
			c-0.62,0.05-1.24,0.06-1.87,0.06c-23.35,0-46.71,0.01-70.06,0c-4.65,0-7.51-1.74-8.83-5.43c-0.35-1-0.47-2.12-0.48-3.19
			c-0.02-23.75-0.03-47.5-0.01-71.25c0-6.18,3.38-9.57,9.49-9.58c7.08-0.01,14.17-0.02,21.25,0c5.85,0.02,9.24,3.39,9.3,9.28
			c0.04,3.64,0.01,7.28,0.01,10.92C78.71,76.34,78.93,76.44,79.14,76.54z M44.99,100.43c0,11.68,0.03,23.35-0.03,35.03
			c-0.01,2.1,0.69,2.9,2.85,2.87c6.85-0.1,13.7-0.1,20.55,0c2.22,0.03,3-0.69,2.99-2.95c-0.06-23.28-0.06-46.55,0-69.83
			c0.01-2.21-0.7-3.06-2.96-3.02c-6.69,0.1-13.39,0.03-20.08,0.04c-3.13,0-3.31,0.18-3.31,3.3C44.99,77.39,44.99,88.91,44.99,100.43
			z M78.67,123.38c0.43-0.2,0.6-0.24,0.7-0.34c12-11.98,23.98-23.97,35.98-35.93c1.26-1.26,0.94-2.23-0.19-3.34
			c-5.02-4.98-10.04-9.97-15-15.01c-1.58-1.61-2.85-1.38-4.32,0.14c-5.36,5.53-10.8,10.97-16.13,16.52
			c-0.67,0.69-1.12,1.86-1.16,2.83c-0.14,3.34-0.18,6.69,0.01,10.03c0.07,1.17,0.65,2.54,1.45,3.4c2.14,2.32,4.53,4.42,6.5,6.3
			c-1.71,1.99-3.11,3.61-4.54,5.28c-1.14-1.09-2.08-1.99-3.31-3.16C78.67,114.73,78.67,118.94,78.67,123.38z M78.62,138.12
			c0.2,0.05,0.41,0.15,0.63,0.15c13.07,0.01,26.14,0,39.21,0.04c1.81,0,2.23-0.98,2.23-2.52c-0.02-7.08-0.04-14.16,0.01-21.25
			c0.01-1.92-0.81-2.62-2.67-2.59c-4.9,0.06-9.83,0.31-14.7-0.07c-4.16-0.32-5.56,2.71-7.62,5.27c1.14,0,2.29,0,3.48,0
			c0,5.4,0,10.63,0,15.84c-2.25,0-4.31,0-6.65,0c0-4.39,0-8.62,0-12.86c-0.18-0.09-0.37-0.17-0.55-0.26
			c-3.42,3.48-6.74,7.07-10.29,10.42C79.44,132.42,77.66,134.57,78.62,138.12z"/>
		<path class="st1" d="M145.98,20.22c0,2.27,0,4.35,0,6.6c-20.27,0-40.45,0-60.81,0c0-2.15,0-4.28,0-6.6
			C105.4,20.22,125.57,20.22,145.98,20.22z"/>
		<path class="st1" d="M29.16,23.53c-0.02,2.36-2.1,4.43-4.47,4.43c-2.45,0.01-4.38-1.97-4.35-4.46c0.02-2.43,2.03-4.45,4.42-4.44
			C27.12,19.08,29.18,21.16,29.16,23.53z"/>
		<path class="st1" d="M44.58,23.55c-0.05,2.39-2.15,4.46-4.48,4.41c-2.37-0.04-4.38-2.15-4.33-4.55c0.04-2.4,2.09-4.38,4.5-4.35
			C42.74,19.09,44.63,21.06,44.58,23.55z"/>
		<path class="st0" d="M44.99,100.43c0-11.52-0.01-23.04,0-34.56c0-3.13,0.19-3.3,3.31-3.3c6.69,0,13.39,0.06,20.08-0.04
			c2.26-0.03,2.96,0.82,2.96,3.02c-0.06,23.28-0.06,46.55,0,69.83c0.01,2.26-0.77,2.99-2.99,2.95c-6.85-0.11-13.7-0.1-20.55,0
			c-2.16,0.03-2.86-0.77-2.85-2.87C45.02,123.79,44.99,112.11,44.99,100.43z M67.55,125.38c0.04-5.09-3.98-9.22-9.1-9.34
			c-5.11-0.12-9.42,4.15-9.39,9.3c0.03,5.08,4.16,9.19,9.24,9.2C63.41,134.54,67.51,130.49,67.55,125.38z M65.26,86
			c-5.24,0-10.41,0-15.72,0c0,2.25,0,4.37,0,6.79c3.52,0,6.91,0,10.31,0c6.11,0,6.11,0,5.64-6.15C65.49,86.5,65.4,86.36,65.26,86z
			 M49.52,107.84c0.22,0.11,0.43,0.29,0.63,0.29c3.26,0.04,6.52,0.07,9.77,0.08c6.15,0.01,6.16,0,5.56-6.22
			c-0.01-0.14-0.12-0.27-0.25-0.54c-5.16,0-10.38,0-15.72,0C49.52,103.6,49.52,105.6,49.52,107.84z M65.41,70.98
			c-5.42,0-10.58,0-15.82,0c0,2.25,0,4.36,0,6.48c5.35,0,10.52,0,15.82,0C65.41,75.28,65.41,73.23,65.41,70.98z"/>
		<path class="st0" d="M78.67,123.38c0-4.44,0-8.65,0-13.29c1.23,1.18,2.17,2.07,3.31,3.16c1.43-1.66,2.83-3.29,4.54-5.28
			c-1.97-1.88-4.36-3.98-6.5-6.3c-0.8-0.86-1.38-2.23-1.45-3.4c-0.19-3.33-0.15-6.69-0.01-10.03c0.04-0.97,0.5-2.14,1.16-2.83
			c5.33-5.55,10.77-10.99,16.13-16.52c1.48-1.52,2.74-1.75,4.32-0.14c4.96,5.04,9.97,10.03,15,15.01c1.12,1.11,1.45,2.09,0.19,3.34
			c-12.01,11.97-23.99,23.95-35.98,35.93C79.27,123.14,79.1,123.18,78.67,123.38z M96.75,75.43c-1.58,1.55-3.16,3.1-4.27,4.19
			c3.73,3.85,7.39,7.61,10.81,11.13c1.48-1.36,3.04-2.8,4.59-4.22C104.17,82.83,100.54,79.21,96.75,75.43z M92.2,101.76
			c1.55-1.38,3.19-2.83,4.61-4.08c-3.7-3.73-7.34-7.41-10.81-10.9c-1.52,1.37-3.1,2.81-4.67,4.23
			C85.16,94.8,88.85,98.45,92.2,101.76z"/>
		<path class="st0" d="M78.62,138.12c-0.96-3.56,0.82-5.7,3.09-7.84c3.55-3.35,6.87-6.93,10.29-10.42c0.18,0.09,0.37,0.17,0.55,0.26
			c0,4.23,0,8.46,0,12.86c2.34,0,4.4,0,6.65,0c0-5.2,0-10.44,0-15.84c-1.2,0-2.34,0-3.48,0c2.06-2.56,3.46-5.59,7.62-5.27
			c4.87,0.37,9.8,0.13,14.7,0.07c1.87-0.02,2.69,0.67,2.67,2.59c-0.05,7.08-0.03,14.16-0.01,21.25c0,1.54-0.42,2.53-2.23,2.52
			c-13.07-0.03-26.14-0.02-39.21-0.04C79.04,138.27,78.82,138.17,78.62,138.12z M107.79,133.01c2.32,0,4.38,0,6.55,0
			c0-5.31,0-10.47,0-15.71c-2.26,0-4.37,0-6.55,0C107.79,122.6,107.79,127.71,107.79,133.01z"/>
		<path class="st1" d="M67.55,125.38c-0.04,5.11-4.14,9.17-9.25,9.16c-5.08-0.01-9.21-4.12-9.24-9.2c-0.03-5.15,4.28-9.42,9.39-9.3
			C63.57,116.15,67.59,120.28,67.55,125.38z M61.06,125.75c-0.01-0.36-0.02-0.72-0.03-1.07c-0.91-0.59-1.78-1.58-2.74-1.69
			c-1.49-0.17-2.63,1.02-2.25,2.46c0.23,0.89,1.52,1.99,2.42,2.06C59.27,127.57,60.19,126.39,61.06,125.75z"/>
		<path class="st1" d="M65.26,86c0.14,0.36,0.23,0.5,0.24,0.64c0.46,6.15,0.46,6.15-5.64,6.15c-3.39,0-6.79,0-10.31,0
			c0-2.41,0-4.54,0-6.79C54.85,86,60.02,86,65.26,86z"/>
		<path class="st1" d="M49.52,107.84c0-2.24,0-4.24,0-6.39c5.33,0,10.55,0,15.72,0c0.13,0.27,0.23,0.4,0.25,0.54
			c0.6,6.22,0.6,6.23-5.56,6.22c-3.26-0.01-6.52-0.04-9.77-0.08C49.95,108.13,49.74,107.95,49.52,107.84z"/>
		<path class="st1" d="M65.41,70.98c0,2.25,0,4.31,0,6.48c-5.3,0-10.47,0-15.82,0c0-2.12,0-4.23,0-6.48
			C54.83,70.98,59.99,70.98,65.41,70.98z"/>
		<path class="st1" d="M96.75,75.43c3.79,3.78,7.42,7.4,11.13,11.11c-1.55,1.42-3.12,2.86-4.59,4.22
			c-3.42-3.52-7.07-7.29-10.81-11.13C93.59,78.53,95.18,76.97,96.75,75.43z"/>
		<path class="st1" d="M92.2,101.76c-3.35-3.32-7.04-6.97-10.87-10.75c1.56-1.42,3.15-2.85,4.67-4.23
			c3.46,3.49,7.11,7.17,10.81,10.9C95.39,98.93,93.75,100.39,92.2,101.76z"/>
		<path class="st1" d="M107.79,133.01c0-5.3,0-10.41,0-15.71c2.17,0,4.28,0,6.55,0c0,5.24,0,10.4,0,15.71
			C112.17,133.01,110.11,133.01,107.79,133.01z"/>
	</g>
	<circle class="st2" cx="76.09" cy="107.83" r="3.58"/>
</g>
</svg>
