<?xml version="1.0" encoding="utf-8"?>
<!-- Generator: Adobe Illustrator 24.3.0, SVG Export Plug-In . SVG Version: 6.00 Build 0)  -->
<svg version="1.1" id="Layer_1" xmlns="http://www.w3.org/2000/svg" xmlns:xlink="http://www.w3.org/1999/xlink" x="0px" y="0px"
	 width="50.6px" height="55.7px" viewBox="0 0 50.6 55.7" style="enable-background:new 0 0 50.6 55.7;" xml:space="preserve">
<style type="text/css">
	.st0{fill:#00B0FB;}
	.st1{opacity:0.4;fill:#00B0FB;}
</style>
<path class="st0" d="M34.1,28.9v-2.1h-0.8c0,0.1,0,0.3,0,0.4c0,0,0,0.1,0,0.1c-1.7,0-3.3,0-5,0c0-0.2,0-0.3,0-0.5h-1.7
	c0,0.2,0,0.3,0,0.5c-0.6,0-1.3,0-1.9,0c-1.6,0-3.2,0-4.8,0c0-0.2,0-0.3,0-0.5h-1.7c0,0.2,0,0.3,0,0.5c-0.7,0-1.3,0-2,0
	c-0.7,0-1.3,0.1-2,0.2c-0.3,0.1-0.7,0.2-1,0.3c0-0.3,0-0.6,0-1h-1.7c0,0.4,0,0.9,0,1.3c0,0.1,0,0.2,0,0.3h1.4v1.2
	c1-0.5,2.1-0.8,3.4-0.7c3,0,6,0,9,0c2.7,0,5.4,0,8.1,0c0.2,0,0.4,0,0.5,0.1L34.1,28.9L34.1,28.9z"/>
<path class="st0" d="M1.8,36.5c0.1,0,4.4-3.9,4.4-3.9l13.3,13.1L17,48.4l-2.3,2L1.3,37.2L1.8,36.5z"/>
<polygon class="st1" points="8.2,15.7 23.3,5.2 39.2,16.1 38.8,17.2 37.5,18.8 35,17.9 32.4,15.5 24.6,10.3 23.5,9.9 21.1,10.7 
	13.3,16.3 11.4,17.5 9,18.8 7.2,16.1 "/>
<path d="M48.9,23.3c-1.5-1.2-3.8-1.1-5.2,0.3c-1.4,1.4-4.7,4.7-6.4,6.5c-0.5-0.8-1.3-1.5-2.2-1.8c0-0.1,0-0.2,0-0.3c0-3,0-5.9,0-8.9
	c0-0.2,0-0.4,0-0.6c0.6,0.4,1.2,0.8,1.8,1.2c0.7,0.5,1.1,0.4,1.5-0.3c0.6-0.8,1.2-1.6,1.7-2.5c0.5-0.7,0.4-1.1-0.3-1.5
	c-1.4-1-2.9-2-4.3-3c-0.3-0.2-0.4-0.5-0.4-0.8c0-2.1,0-4.2,0-6.3c0-0.8-0.3-1-1-1c-1.5,0-3,0-4.6,0c-0.8,0-1,0.3-1,1.1
	c0,0.7,0,1.4,0,2.2c-0.2-0.1-0.4-0.2-0.5-0.3c-1.3-0.9-2.6-1.8-3.8-2.7c-0.5-0.3-0.9-0.3-1.3,0c-5.3,3.7-10.5,7.3-15.8,11
	C6.3,16,6.2,16.4,6.6,17c0.6,0.9,1.2,1.7,1.8,2.6c0.4,0.6,0.8,0.7,1.4,0.2c0.6-0.4,1.2-0.8,1.9-1.3c0,3.2,0,7.3,0,10.4
	c0,0.1,0,0.3,0,0.4c-0.4,0.3-0.8,0.6-1.2,0.9l0,0c0,0-1.7,1.4-2.5,2.5c-0.3-0.3-0.6-0.6-0.9-0.9c-0.6-0.6-1-0.6-1.5-0.1
	c-1.6,1.6-3.2,3.2-4.8,4.8c-0.5,0.5-0.5,0.9,0,1.4c4.4,4.4,8.7,8.7,13.1,13.1c0.5,0.5,0.9,0.5,1.4,0c1.6-1.6,3.2-3.2,4.8-4.8
	c0.5-0.5,0.4-0.9,0-1.4c-0.3-0.3-0.6-0.6-1-0.9c0.7-0.7,1.4-0.9,2.2-0.9c4.6,0,9.2,0,13.8,0c0.6,0,1.2,0,1.9-0.2
	c2.3-0.4,4.1-1.8,5.4-3.7c2.3-3.3,4.6-6.7,6.9-10c0.3-0.5,0.6-1,0.8-1.5C50.6,26,50.1,24.4,48.9,23.3z M29.9,6c1.1,0,2.2,0,3.3,0
	c0,1.7,0,3.3,0,5.1c-0.6-0.4-1.2-0.8-1.7-1.2C31,9.5,30.3,9.2,30,8.7c-0.3-0.5-0.1-1.2-0.1-1.9C29.9,6.5,29.9,6.3,29.9,6z M9.8,17.8
	c-0.1,0.1-0.3,0.2-0.5,0.3c-0.4-0.5-0.7-1-1-1.5c0.1-0.1,0.2-0.2,0.3-0.3c4.8-3.3,9.5-6.6,14.3-10c0.2-0.2,0.4-0.2,0.7,0
	c4.8,3.4,9.6,6.7,14.4,10c0.1,0.1,0.2,0.1,0.3,0.2c-0.3,0.5-0.7,1-1,1.5c-0.2-0.1-0.4-0.3-0.6-0.4c-4.2-2.9-8.4-5.8-12.6-8.8
	c-0.7-0.5-0.8-0.5-1.5,0C18.3,11.9,14.1,14.8,9.8,17.8z M13.3,17.8c0-0.3,0.1-0.5,0.4-0.7c3.1-2.1,6.2-4.3,9.2-6.4
	c0.3-0.2,0.5-0.2,0.8,0c3.1,2.1,6.1,4.3,9.2,6.4c0.3,0.2,0.4,0.4,0.4,0.8c0,3.4,0,6.8,0,10.2c0,0,0,0.1,0,0.1c-1.7,0-3.3,0-5,0
	c0-2.6,0-5.3,0-7.9c0-0.6-0.3-0.9-0.9-0.9c-2.7,0-5.4,0-8.1,0c-0.6,0-0.9,0.3-0.9,0.9c0,2.6,0,5.3,0,7.9c-0.7,0-1.3,0-2,0
	c-0.7,0-1.3,0.1-2,0.2c-0.3,0.1-0.7,0.2-1,0.3C13.3,25.3,13.3,21.1,13.3,17.8z M26.6,28.1c-0.6,0-1.3,0-1.9,0c-1.6,0-3.2,0-4.8,0
	c0-2.2,0-4.4,0-6.6c0-0.2,0-0.4,0-0.6c2.2,0,4.4,0,6.6,0c0,0.2,0,0.4,0,0.6C26.6,23.7,26.6,25.9,26.6,28.1z M14.6,49.2
	c-4-4-8-8-12-12c1.2-1.2,2.4-2.4,3.6-3.6c4,4,8,8,12,12C17,46.8,15.8,48.1,14.6,49.2z M48.4,27.1c-0.1,0.3-0.2,0.6-0.4,0.9
	c-2.5,3.6-4.9,7.2-7.5,10.7c-1.3,1.9-3.2,2.8-5.5,2.7c-4.4,0-8.8,0-13.2,0c-1.5,0-2.8,0.3-4,1.4c-0.2-0.2-0.3-0.4-0.4-0.5
	c-2.8-2.8-5.6-5.6-8.4-8.4c0.5-0.5,1.3-1.3,1.9-1.8c0.1-0.1,0.1-0.1,0.2-0.2c0.2-0.2,0.3-0.3,0.5-0.5c0,0,0,0,0.1-0.1
	c1.3-1.1,2.9-1.6,4.7-1.6c3,0,6,0,9,0c2.7,0,5.4,0,8.1,0c1.2,0,2.1,0.7,2.4,1.8c0.5,1.6-0.7,3.2-2.4,3.2c-3,0-6,0-9,0
	c-0.6,0-1,0.3-1,0.8c0,0.5,0.3,0.8,1,0.8c3,0,6.1,0,9.1,0c1,0,1.9-0.4,2.7-1.1c1-0.9,1.5-2.2,1.4-3.5c0.1-0.1,0.1-0.1,0.2-0.2
	c1.5-1.5,5.3-5.3,6.9-6.9c0.8-0.8,1.9-0.9,2.8-0.3C48.5,25,48.8,26,48.4,27.1z"/>
</svg>
