<?xml version="1.0" encoding="utf-8"?>
<!-- Generator: Adobe Illustrator 24.3.0, SVG Export Plug-In . SVG Version: 6.00 Build 0)  -->
<svg version="1.1" id="Layer_1" xmlns="http://www.w3.org/2000/svg" xmlns:xlink="http://www.w3.org/1999/xlink" x="0px" y="0px"
	 width="97.2px" height="119px" viewBox="0 0 97.2 119" style="enable-background:new 0 0 97.2 119;" xml:space="preserve">
<style type="text/css">
	.st0{fill:#00B0FB;}
	.st1{fill:#00B0FB;fill-opacity:0.4;}
	.st2{fill:#FFFFFF;}
	.st3{fill:none;}
	.st4{fill:#001135;}
	.st5{fill:#3C7CFF;}
	.st6{fill:#3C7CFF;stroke:#001135;stroke-width:0.7602;stroke-miterlimit:10;}
</style>
<g>
	<path class="st2" d="M12.5,85.4c-2.3,0-2.3,3.5,0,3.5S14.8,85.4,12.5,85.4z"/>
	<path class="st2" d="M42.1,76.4c-0.2-2.6-0.2-5.3-0.1-8.2c0.1-0.6,0.6-1.2,1.2-1.3c2-0.3,3.8-0.6,5.5-1.1c-2,0.1-4,0.1-6,0.1
		c-5.4,0-10.8-0.3-15.8-1c-1.8-0.3-1.5-3.1,0.4-2.8c9.9,1.3,21.6,1.3,31.5-0.1c7.6-4,9.7-8.4,11.6-6.9c4.6,3.7,8.2,6.3,12.2,8.1
		V46.1c-6.6,6-23.7,9.2-39.9,9.2c-16.3,0-33.4-3.2-39.9-9.2v18.4C2.8,70.1,18.9,76.3,42.1,76.4z M12.5,57.9c6,0,6,9.1,0,9.1
		C6.6,66.9,6.6,57.9,12.5,57.9z"/>
	<path class="st4" d="M12.5,39.4c2.3,0,2.3-3.5,0-3.5S10.2,39.4,12.5,39.4z"/>
	<path class="st4" d="M42.7,52.6c23.6,0,39.9-6.3,39.9-12V20.3c-6.6,6-23.7,9.2-39.9,9.2c-16.3,0-33.4-3.2-39.9-9.2v20.3
		C2.8,46.2,19.2,52.6,42.7,52.6z M27.3,37.6c14.9,2,33.8,1,46.1-3.6c1.7-0.6,2.7,2,1,2.6c-8,2.9-19.6,4.7-31.7,4.7
		c-5.4,0-10.8-0.3-15.8-1C25.1,40.1,25.4,37.3,27.3,37.6z M12.5,33.1c6,0,6,9.1,0,9.1C6.6,42.2,6.6,33.1,12.5,33.1z"/>
	<path class="st2" d="M42.7,26.7c23.6,0,39.9-6.3,39.9-12c0-5.6-16.4-11.9-39.9-11.9C19.2,2.8,2.8,9.1,2.8,14.7
		C2.8,20.4,19.2,26.7,42.7,26.7z"/>
	<path class="st2" d="M12.5,64.1c2.4,0,2.3-3.5,0-3.5S10.2,64.1,12.5,64.1z"/>
	<path class="st2" d="M42.7,90.8c-5.4,0-10.8-0.3-15.8-1c-1.8-0.3-1.5-3.1,0.4-2.8c6.1,0.8,10.9,1,16.9,0.9
		c-0.9-2.8-1.5-5.8-1.8-8.8C26.2,79.1,9.3,76,2.8,70v20.3c0,5.7,16.4,12,39.9,12c2.8,0,5.6-0.1,8.4-0.3c-2.5-3.5-4.5-7.2-5.9-11.2
		C44.4,90.8,43.6,90.8,42.7,90.8z M12.5,91.7c-5.9,0-5.9-9.1,0-9.1C18.5,82.6,18.5,91.7,12.5,91.7z"/>
	<path class="st2" d="M83.7,66.8c-0.1,0-0.3-0.1-0.4-0.2c-4.8-1.9-8.8-4.6-13.7-8.5c-3.4,2.7-6.4,4.8-9.5,6.5
		c-0.1,0.1-0.3,0.2-0.5,0.3c-4.2,2.2-8.7,3.7-14.8,4.7c-0.1,2.7,0,5.2,0.2,7.7c0,0.1,0.1,0.3,0.1,0.5c0,0.1,0,0.1,0,0.1
		c0.4,3.8,1.2,7.3,2.3,10.7c0.1,0.1,0.1,0.3,0.1,0.4c3.6,10.3,10.9,19,22.1,26.8c17.6-12.2,25.5-27,24.8-46.3
		C90.2,68.9,86.8,68,83.7,66.8z M70.3,112.3c-0.2,0.1-0.5,0.2-0.8,0.2s-0.6-0.1-0.8-0.2C46.1,97,47.1,73.8,47.2,72.8
		c0.1-0.6,0.6-1.2,1.2-1.3C58.6,70,68.6,62.1,68.7,62c0.5-0.4,1.2-0.4,1.7,0c0.1,0.1,10.1,7.9,20.3,9.4c0.7,0.1,1.2,0.7,1.2,1.3
		C92,73.8,93,96.9,70.3,112.3z"/>
	<path class="st5" d="M50,74c0.1,4.7,1.7,22.8,19.6,35.4C87.5,96.8,89.1,78.7,89.2,74c-8.8-1.6-16.9-7.2-19.6-9.1
		C66.9,66.9,58.8,72.4,50,74z M78.7,82.7L67.9,93.6c-0.3,0.2-0.6,0.3-1,0.3c-0.4,0-0.8-0.1-1-0.3l-5.4-5.4c-1.3-1.3,0.6-3.3,2-2
		l4.5,4.4l9.8-9.8C78,79.5,80,81.4,78.7,82.7z"/>
	<path class="st4" d="M95.9,67c-4.1-0.6-7.5-1.4-10.5-2.5V14.7C85.5,5.2,63.4,0,42.7,0C22,0,0,5.2,0,14.7v75.6
		c0,9.6,22,14.8,42.7,14.8c3.5,0,7-0.2,10.4-0.4c4.1,5.1,9.3,9.7,15.7,14.1c0.2,0.1,0.5,0.3,0.8,0.3s0.6-0.1,0.8-0.3
		c19.4-13.2,28-29.2,26.8-50.5C97.1,67.6,96.6,67.1,95.9,67z M42.7,2.8c23.6,0,39.9,6.3,39.9,11.9c0,5.7-16.4,12-39.9,12
		c-23.6,0-39.9-6.3-39.9-12C2.8,9.1,19.2,2.8,42.7,2.8z M2.8,20.3c6.6,6,23.7,9.2,39.9,9.2c16.3,0,33.4-3.2,39.9-9.2v20.3
		c0,5.6-16.4,12-39.9,12c-23.6,0-39.9-6.3-39.9-12V20.3z M2.8,46.1c6.6,6,23.7,9.2,39.9,9.2c16.3,0,33.4-3.2,39.9-9.2v17.3
		c-4-1.8-7.6-4.4-12.2-8.1c-1.9-1.5-4.1,2.9-11.6,6.9c-9.9,1.4-21.6,1.5-31.5,0.1c-1.9-0.3-2.2,2.5-0.4,2.8c5,0.6,10.4,1,15.8,1
		c2,0,4-0.1,6-0.1c-1.7,0.4-3.5,0.8-5.5,1.1c-0.6,0.1-1.1,0.6-1.2,1.3c-0.1,2.8-0.1,5.5,0.1,8.2C18.9,76.3,2.8,70.1,2.8,64.5V46.1z
		 M42.7,102.3c-23.6,0-39.9-6.3-39.9-12V70c6.5,6,23.4,9.2,39.6,9.2c0.4,3,1,6,1.8,8.8c-6,0-10.8-0.1-16.9-0.9
		c-1.9-0.3-2.2,2.5-0.4,2.8c5,0.6,10.4,1,15.8,1c0.8,0,1.6,0,2.4,0c1.5,3.9,3.4,7.7,5.9,11.2C48.4,102.2,45.6,102.3,42.7,102.3z
		 M69.6,115.9c-11.2-7.7-18.4-16.5-22.1-26.8c0-0.1-0.1-0.3-0.1-0.4c-1.2-3.4-1.9-7-2.3-10.7c0,0,0-0.1,0-0.1c0-0.2,0-0.4-0.1-0.5
		c-0.2-2.5-0.3-5.1-0.2-7.7c6.1-1,10.6-2.4,14.8-4.7c0.2-0.1,0.4-0.2,0.5-0.3c3.1-1.7,6.1-3.8,9.5-6.5c5,3.9,9,6.6,13.7,8.5
		c0.1,0.1,0.2,0.1,0.4,0.2c3.1,1.2,6.5,2.1,10.7,2.8C95.1,88.9,87.2,103.7,69.6,115.9z"/>
	<path class="st4" d="M90.8,71.5C80.6,70,70.5,62.1,70.5,62c-0.6-0.4-1.3-0.4-1.7,0c-0.1,0.1-10.2,7.9-20.4,9.4
		c-0.6,0.1-1.1,0.7-1.2,1.3c-0.1,1-1,24.2,21.6,39.5c0.2,0.1,0.5,0.2,0.8,0.2s0.6-0.1,0.8-0.2C93,96.9,92,73.8,92,72.8
		C92,72.2,91.5,71.6,90.8,71.5z M69.6,109.4C51.7,96.8,50.1,78.7,50,74c8.9-1.6,16.9-7.2,19.6-9.1c2.6,2,10.8,7.5,19.6,9.1
		C89.1,78.7,87.5,96.8,69.6,109.4z"/>
	<path class="st4" d="M12.5,66.9c6,0,6-9.1,0-9.1C6.6,57.9,6.6,66.9,12.5,66.9z M12.5,60.7c2.3,0,2.4,3.5,0,3.5
		C10.2,64.1,10.2,60.7,12.5,60.7z"/>
	<path class="st2" d="M62.5,86.2c-1.3-1.3-3.3,0.7-2,2l5.4,5.4c0.3,0.2,0.6,0.3,1,0.3c0.3,0,0.7-0.1,1-0.3l10.8-10.8
		c1.3-1.3-0.7-3.3-2-2l-9.8,9.8L62.5,86.2z"/>
	<path class="st4" d="M12.5,82.6c-5.9,0-5.9,9.1,0,9.1C18.5,91.7,18.5,82.6,12.5,82.6z M12.5,88.9c-2.3,0-2.3-3.5,0-3.5
		S14.8,88.9,12.5,88.9z"/>
	<path class="st5" d="M26.9,40.4c5,0.6,10.4,1,15.8,1c12.1,0,23.7-1.7,31.7-4.7c1.7-0.6,0.8-3.3-1-2.6c-12.3,4.6-31.2,5.5-46.1,3.6
		C25.4,37.3,25.1,40.1,26.9,40.4z"/>
	<path class="st5" d="M12.5,42.2c6,0,6-9.1,0-9.1C6.6,33.1,6.6,42.2,12.5,42.2z M12.5,35.9c2.3,0,2.3,3.5,0,3.5S10.2,35.9,12.5,35.9
		z"/>
</g>
</svg>
