<?xml version="1.0" encoding="utf-8"?>
<!-- Generator: Adobe Illustrator 24.3.0, SVG Export Plug-In . SVG Version: 6.00 Build 0)  -->
<svg version="1.1" id="Layer_1" xmlns="http://www.w3.org/2000/svg" xmlns:xlink="http://www.w3.org/1999/xlink" x="0px" y="0px"
	 width="141.6px" height="134.4px" viewBox="0 0 141.6 134.4" style="enable-background:new 0 0 141.6 134.4;" xml:space="preserve"
	>
<style type="text/css">
	.st0{fill:#185AE9;}
	.st1{fill:#00B0FB;}
	.st2{fill:#00B0FB;fill-opacity:0.4;}
	.st3{fill:#FFFFFF;}
</style>
<g>
	<g>
		<path class="st1" d="M140,103.6L140,103.6v-5.1h-1.6c0.2,1,0.2,2-0.1,3c-0.5,1.4-1.5,2.6-2.8,3.3l-17,8.4l-14,6.4l-28,5.7
			c-0.5,0.1-1,0.2-1.4,0.2c-0.6,0-1.3-0.1-1.9-0.3l-43.9-12.6c-0.1,0-0.2-0.1-0.2-0.3v-2.5h-0.8v5.1h2.9v1.3L72.3,128
			c0.9,0.3,1.8,0.4,2.7,0.4c0.7,0,1.3-0.1,2-0.2l28.2-5.7c0.1,0,0.2-0.1,0.3-0.1l14.2-6.5l17-8.4c1.3-0.7,2.4-1.6,3.2-2.8V103.6z"/>
		<path class="st2" d="M15.8,68.8H3.2c-0.2,0-0.3,0.1-0.3,0.3v62c0,0.2,0.1,0.3,0.3,0.3h12.6c0.2,0,0.3-0.1,0.3-0.3v-62
			C16.1,68.9,16,68.8,15.8,68.8z"/>
		<path class="st2" d="M83.8,22.7c0.4,0,0.7,0.1,1,0.4l42.3,37.1c0.5,0.4,1.1,0.6,1.7,0.6c0.7,0,1.4-0.3,1.9-0.9l0.4-0.4
			c0.4-0.5,0.7-1.2,0.6-1.8c0-0.7-0.4-1.3-0.9-1.8L84,14.8c-0.1,0-0.1-0.1-0.2-0.1s-0.1,0-0.2,0.1l-46.8,41
			c-1.1,0.9-1.2,2.5-0.2,3.6l0.4,0.4c0.4,0.5,1.1,0.8,1.8,0.9c0.1,0,0.1,0,0.2,0c0.6,0,1.2-0.2,1.7-0.6L82.8,23
			C83.1,22.8,83.5,22.7,83.8,22.7z"/>
		<path class="st1" d="M98.1,102.7c0.1,0.1,0.1,0.1,0.2,0.1c0,0,5.5-0.1,5.5-0.1l15.1-5.4l1.5-0.6c0.1,0,0.2-0.2,0.2-0.3V58.4
			c0-0.1,0-0.2-0.1-0.2L84,26.3c-0.1,0-0.1-0.1-0.2-0.1s-0.1,0-0.2,0.1L47.2,58.2c-0.1,0.1-0.1,0.2-0.1,0.3v19.8
			c0,0.1,0,0.2,0.1,0.2c0.1,0,0.1,0.1,0.2,0.1c0,0,0,0,0,0c1.7-0.2,3.3-0.4,5-0.5c0.3,0,0.6,0,0.8,0c3.5,0,6.8,1.2,10.2,3.8l5.7,4.4
			c0.1,0,0.1,0.1,0.2,0.1c0,0,0.1,0,0.1,0c0.1-0.1,0.2-0.2,0.2-0.3V66.2c0-7.1,6.4-12.8,14.2-12.8S98,59.1,98,66.2v36.3
			C98,102.6,98,102.6,98.1,102.7z"/>
		<path class="st3" d="M140.7,96.9c-1.4-2.9-4.4-4.6-7.7-4.6c-1.3,0-2.5,0.2-3.7,0.7l-5.4,2.2c0,0-0.1,0-0.1,0c0,0-0.1,0-0.2-0.1
			c-0.1-0.1-0.1-0.2-0.1-0.2V61.5c0-0.1,0.1-0.2,0.2-0.3c0,0,0.1,0,0.1,0c0.1,0,0.2,0,0.2,0.1l1.2,1.1c1,0.9,2.3,1.4,3.6,1.4
			c1.6,0,3.1-0.7,4.1-1.9l0.4-0.4c1-1.1,1.4-2.5,1.3-4c-0.1-1.5-0.8-2.8-1.9-3.8l-14.8-13c-0.1-0.1-0.1-0.1-0.1-0.2V16.7
			c0-0.8-0.7-1.5-1.5-1.5h-13.9c-0.8,0-1.5,0.7-1.5,1.5v8.4c0,0.1-0.1,0.2-0.2,0.3c0,0-0.1,0-0.1,0c-0.1,0-0.1,0-0.2-0.1L84.8,11.6
			c-0.3-0.2-0.6-0.4-1-0.4c-0.4,0-0.7,0.1-1,0.4l-2.6,2.3c-0.1,0-0.1,0.1-0.2,0.1c0,0-0.1,0-0.1,0c-0.1,0-0.2-0.1-0.2-0.2
			c-0.1-0.4-0.4-0.9-0.7-1.2l-6-6c-0.6-0.6-1.3-0.9-2.2-0.9c-0.6,0-1.2,0.2-1.7,0.5l-4.7,3.1c0,0-0.1,0.1-0.2,0.1c0,0-0.1,0-0.1,0
			c-0.8-0.4-1.6-0.7-2.5-1c-0.1,0-0.2-0.1-0.2-0.2l-1.2-5.5C60.1,1,58.8,0,57.4,0h-8.5c-1.4,0-2.7,1-3,2.4l-1.2,5.5
			c0,0.1-0.1,0.2-0.2,0.2c-0.8,0.3-1.7,0.6-2.5,1c0,0-0.1,0-0.1,0c-0.1,0-0.1,0-0.2-0.1L37,6.1c-0.5-0.3-1.1-0.5-1.7-0.5
			c-0.8,0-1.6,0.3-2.2,0.9l-6,6c-1,1-1.2,2.6-0.4,3.8l3.1,4.7c0.1,0.1,0.1,0.2,0,0.3c-0.4,0.8-0.7,1.6-1,2.5c0,0.1-0.1,0.2-0.2,0.2
			l-5.5,1.2c-1.4,0.3-2.4,1.5-2.4,3v8.5c0,1.4,1,2.7,2.4,3l5.5,1.2c0.1,0,0.2,0.1,0.2,0.2c0.3,0.8,0.7,1.7,1,2.5
			c0.1,0.1,0,0.2,0,0.3l-3.1,4.7c-0.8,1.2-0.6,2.8,0.4,3.8l5.7,5.7c0,0.1,0.1,0.1,0.1,0.2c0.1,1.2,0.6,2.3,1.3,3.2l0.4,0.4
			c1,1.1,2.3,1.8,3.8,1.9c0.1,0,0.2,0,0.4,0c1.3,0,2.6-0.5,3.6-1.4l1.2-1.1c0.1,0,0.1-0.1,0.2-0.1c0,0,0.1,0,0.1,0
			c0.1,0,0.2,0.1,0.2,0.3v17.3c0,0.1-0.1,0.3-0.2,0.3c-5.2,1-10,2.8-14.5,5.3c0,0-0.1,0-0.1,0c-0.1,0-0.1,0-0.2,0
			c-0.1,0-0.1-0.1-0.1-0.3v-9.8c0-0.8-0.7-1.5-1.5-1.5h-8.2c-0.2,0-0.3-0.1-0.3-0.3v-5.2c0-0.8-0.7-1.5-1.5-1.5H1.5
			c-0.8,0-1.5,0.7-1.5,1.5v65.6c0,0.8,0.7,1.5,1.5,1.5h16.1c0.8,0,1.5-0.7,1.5-1.5v-5.2c0-0.2,0.1-0.3,0.3-0.3h8.2
			c0.8,0,1.5-0.7,1.5-1.5v-9c0-0.1,0-0.2,0.1-0.2c0.1,0,0.1-0.1,0.2-0.1c0,0,0.1,0,0.1,0L72.3,129c0.9,0.3,1.8,0.4,2.7,0.4
			c0.7,0,1.3-0.1,2-0.2l28.2-5.7c0.1,0,0.2-0.1,0.3-0.1l14.2-6.5l17-8.4c2.1-1,3.6-2.8,4.3-5C141.8,101.2,141.7,98.9,140.7,96.9z
			 M16.1,131.2c0,0.2-0.1,0.3-0.3,0.3H3.2c-0.2,0-0.3-0.1-0.3-0.3V69.1c0-0.2,0.1-0.3,0.3-0.3h12.6c0.2,0,0.3,0.1,0.3,0.3V131.2z
			 M26.1,124.1c0,0.2-0.1,0.3-0.3,0.3h-6.4c-0.2,0-0.3-0.1-0.3-0.3v-48c0-0.2,0.1-0.3,0.3-0.3h6.4c0.2,0,0.3,0.1,0.3,0.3V124.1z
			 M103.9,18.5c0-0.2,0.1-0.3,0.3-0.3h10.3c0.2,0,0.3,0.1,0.3,0.3v18.8c0,0.1-0.1,0.2-0.2,0.3c0,0-0.1,0-0.1,0c-0.1,0-0.1,0-0.2-0.1
			L104,28.5c-0.1,0-0.1-0.1-0.1-0.2V18.5z M34.1,54.5c-0.1,0.1-0.1,0.1-0.2,0.1c0,0,0,0,0,0c-0.1,0-0.2,0-0.2-0.1l-4.2-4.2
			c-0.1-0.1-0.1-0.2,0-0.4l3-4.7c0.6-0.9,0.6-2,0.2-3c-0.4-0.8-0.7-1.5-1-2.3c-0.3-1-1.2-1.8-2.2-2l-5.4-1.2c-0.1,0-0.2-0.1-0.2-0.3
			v-8.2c0-0.1,0.1-0.3,0.2-0.3l5.4-1.2c1.1-0.2,1.9-1,2.2-2c0.3-0.8,0.6-1.6,1-2.3c0.5-1,0.4-2.1-0.2-3l-3-4.7
			c-0.1-0.1-0.1-0.3,0-0.4l5.8-5.8c0.1-0.1,0.1-0.1,0.2-0.1c0.1,0,0.1,0,0.2,0.1l4.7,3c0.5,0.3,1.1,0.5,1.7,0.5
			c0.5,0,0.9-0.1,1.3-0.3c0.8-0.4,1.6-0.7,2.3-1c1-0.3,1.8-1.2,2-2.2l1.2-5.4c0-0.1,0.2-0.2,0.3-0.2h8.2c0.1,0,0.3,0.1,0.3,0.2
			l1.2,5.4c0.2,1.1,1,1.9,2,2.2c0.8,0.3,1.6,0.6,2.3,1c0.4,0.2,0.9,0.3,1.3,0.3c0.6,0,1.2-0.2,1.7-0.5l4.7-3c0,0,0.1-0.1,0.2-0.1
			c0.1,0,0.2,0,0.2,0.1l5.8,5.8c0.1,0.1,0.1,0.2,0,0.4L74,19.4l-6.9,6c-0.1,0.1-0.1,0.1-0.2,0.1c0,0,0,0-0.1,0
			c-0.1,0-0.2-0.1-0.2-0.2c-2.7-5-7.8-8.2-13.5-8.2c-8.4,0-15.3,6.8-15.3,15.3c0,4.9,2.4,9.6,6.5,12.5c0.1,0.1,0.1,0.1,0.1,0.2
			c0,0.1,0,0.2-0.1,0.2l-9.5,8.3C34.6,53.9,34.3,54.2,34.1,54.5z M64.3,27.8L47.1,42.9C47,43,47,43,46.9,43c-0.1,0-0.1,0-0.2,0
			c-3.7-2.2-6-6.3-6-10.6c0-6.8,5.5-12.3,12.3-12.3h0c4.9,0,9.3,2.9,11.3,7.4C64.5,27.6,64.4,27.7,64.3,27.8z M40.6,60.1
			c-0.5,0.4-1.1,0.6-1.7,0.6c-0.1,0-0.1,0-0.2,0c-0.7,0-1.3-0.3-1.8-0.9l-0.4-0.4c-0.9-1.1-0.8-2.7,0.2-3.6l46.8-41
			c0.1,0,0.1-0.1,0.2-0.1c0.1,0,0.1,0,0.2,0.1l46.8,41c0.5,0.4,0.8,1.1,0.9,1.8c0,0.7-0.2,1.3-0.6,1.8l-0.4,0.4
			c-0.5,0.6-1.2,0.9-1.9,0.9c-0.6,0-1.2-0.2-1.7-0.6L84.8,23c-0.3-0.2-0.6-0.4-1-0.4c-0.4,0-0.7,0.1-1,0.4L40.6,60.1z M83.8,53.4
			c-7.8,0-14.2,5.7-14.2,12.8V86c0,0.1-0.1,0.2-0.2,0.3c0,0-0.1,0-0.1,0c-0.1,0-0.1,0-0.2-0.1l-5.7-4.4c-3.4-2.6-6.6-3.8-10.2-3.8
			c-0.3,0-0.6,0-0.8,0c-1.7,0.1-3.4,0.2-5,0.5h0c-0.1,0-0.1,0-0.2-0.1c-0.1-0.1-0.1-0.1-0.1-0.2V58.5c0-0.1,0-0.2,0.1-0.3l36.4-31.9
			c0.1,0,0.1-0.1,0.2-0.1c0.1,0,0.1,0,0.2,0.1l36.4,31.9c0.1,0.1,0.1,0.1,0.1,0.2v37.9c0,0.1-0.1,0.2-0.2,0.3l-1.4,0.6l-15.1,5.4
			l-5.5,0.1c-0.1,0-0.1,0-0.2-0.1c-0.1-0.1-0.1-0.1-0.1-0.2V66.2C98,59.1,91.6,53.4,83.8,53.4z M95,66.2v31.9c0,0.1-0.1,0.3-0.2,0.3
			c0,0,0,0-0.1,0c-0.1,0-0.2-0.1-0.3-0.2c-1-2.1-2.8-3.8-5.1-4.5l-16.5-5c-0.1,0-0.2-0.2-0.2-0.3V66.2c0-5.4,5-9.9,11.2-9.9
			C90,56.3,95,60.7,95,66.2z M138.3,102.5c-0.5,1.4-1.5,2.6-2.8,3.3l-17,8.4l-14,6.4l-28,5.7c-0.5,0.1-1,0.2-1.4,0.2
			c-0.6,0-1.3-0.1-1.9-0.3l-43.9-12.6c-0.1,0-0.2-0.1-0.2-0.3V88.3c0-0.1,0-0.2,0.1-0.3c6.9-4.3,14.4-6.6,23.5-7c0.2,0,0.4,0,0.6,0
			c2.9,0,5.6,1,8.4,3.2l8.8,6.8c0.1,0.1,0.3,0.2,0.5,0.2l17.5,5.3c2.7,0.8,4.3,3.5,3.6,6c-0.6,2.2-2.5,3.7-4.8,3.7
			c-0.4,0-0.8,0-1.2-0.1l-25.6-6.6c-0.1,0-0.2-0.1-0.4-0.1c-0.7,0-1.3,0.5-1.4,1.1c-0.2,0.8,0.3,1.6,1,1.8l25.6,6.6
			c0.7,0.2,1.3,0.2,2,0.2c1.4,0,2.8-0.4,4-1.1c1-0.6,1.8-1.3,2.4-2.2c0-0.1,0.1-0.1,0.2-0.1l10.2-0.2c0.2,0,0.3,0,0.5-0.1L120,100
			l10.4-4.3c0.8-0.3,1.7-0.5,2.6-0.5c2.2,0,4.2,1.2,5.1,3C138.7,99.5,138.8,101.1,138.3,102.5z"/>
	</g>
</g>
</svg>
