<?xml version="1.0" encoding="utf-8"?>
<!-- Generator: Adobe Illustrator 24.3.0, SVG Export Plug-In . SVG Version: 6.00 Build 0)  -->
<svg version="1.1" id="Layer_1" xmlns="http://www.w3.org/2000/svg" xmlns:xlink="http://www.w3.org/1999/xlink" x="0px" y="0px"
	 viewBox="0 0 115.98 129.9" style="enable-background:new 0 0 115.98 129.9;" xml:space="preserve">
<style type="text/css">
	.st0{fill:#001135;}
	.st1{fill:#FFFFFF;}
	.st2{fill:#3C7CFF;}
</style>
<g>
	<path class="st0" d="M29.03,80.66c2.53-10.16,8.58-16.77,18.78-18.64c9.98-1.83,17.9,2.05,23.76,10.25
		c6.98-5.94,11.35-19.45,5.49-31.57c-5.81-12.03-19.9-18.45-32.27-14.91c-14.55,4.18-21.55,17.61-20.53,28.39
		c1.51-0.41,2.99-0.92,4.51-1.18c0.67-0.12,1.81,0.03,2.06,0.45c0.33,0.55,0.26,1.66-0.1,2.26c-3.06,5.19-6.23,10.31-9.33,15.48
		c-0.82,1.37-1.73,1.63-3.17,0.82c-5.16-2.89-10.38-5.67-15.53-8.57C2,63.05,1.58,62.19,1.04,61.55c0.68-0.56,1.28-1.28,2.06-1.63
		c1.4-0.62,3.46-0.61,4.2-1.62c0.7-0.95,0.04-2.89,0-4.39C6.64,31.87,22.51,12.41,44.18,8.68C67.68,4.63,90.2,19.52,95.5,42.76
		c2.89,12.68,0.53,24.47-6.7,35.28c-0.52,0.78-1.07,1.54-1.72,2.48c3.78,0,7.37,0,11.2,0c0-1.59-0.12-3.2,0.05-4.78
		c0.08-0.77,0.55-1.78,1.15-2.1c0.44-0.23,1.58,0.29,2.08,0.8c4.14,4.23,8.21,8.52,12.29,12.81c1.49,1.56,1.49,1.95,0.05,3.47
		c-4.08,4.29-8.15,8.59-12.3,12.81c-0.53,0.53-1.7,1.02-2.25,0.78c-0.57-0.25-0.94-1.38-1.03-2.17c-0.16-1.48-0.05-2.99-0.05-4.59
		c-0.63-0.04-1.11-0.1-1.6-0.1c-9.27-0.01-18.55,0.01-27.82-0.03c-1.08,0-1.6,0.25-2.07,1.33c-0.78,1.82-1.8,3.57-2.94,5.21
		c-0.57,0.82-0.51,1.32-0.07,2.07c1.7,2.88,3.41,5.76,5,8.71c0.37,0.68,0.56,1.79,0.24,2.39c-0.24,0.44-1.43,0.53-2.19,0.5
		c-0.98-0.03-1.96-0.33-3.06-0.53c-0.32,0.89-0.52,1.77-0.95,2.52c-0.46,0.81-1.14,1.49-1.73,2.23c-0.71-0.63-1.62-1.13-2.09-1.9
		c-1.87-3.04-3.6-6.16-5.39-9.25c-1.04-1.79-2.27-1.79-3.32,0.03c-1.81,3.14-3.56,6.32-5.45,9.41c-0.44,0.72-1.35,1.15-2.04,1.72
		c-0.56-0.7-1.11-1.39-1.66-2.09c-0.07-0.09-0.11-0.19-0.15-0.3c-0.84-2.32-0.84-2.33-3.27-1.9c-0.28,0.05-0.57,0.19-0.82,0.13
		c-0.71-0.14-1.72-0.15-2.03-0.61c-0.32-0.48-0.2-1.53,0.12-2.13c1.45-2.7,2.94-5.4,4.61-7.96c0.95-1.47,1.06-2.46-0.18-3.88
		c-1.06-1.22-1.79-2.84-2.31-4.4c-0.38-1.11-0.89-1.3-1.9-1.29c-10.28,0.03-20.56,0.02-30.84,0.02c-0.39,0-0.78-0.01-1.17,0
		c-1.47,0.04-2.16-0.7-2.16-2.14C1,91.14,1.01,86.95,1,82.76C1,81.18,1.8,80.63,3.32,80.64c8.05,0.03,16.09,0.02,24.14,0.02
		C27.95,80.66,28.45,80.66,29.03,80.66z M67.46,91.16c0.47-0.17,0.84-0.28,1.18-0.43c24.38-10.75,32.47-41.28,16.61-62.7
		C73.62,12.31,52.56,6.93,34.75,15.01c-15.54,7.05-26.17,23.76-24,42.36c0.5,4.27-0.12,3.8-3.13,4.63
		c-0.06,0.02-0.07,0.17-0.16,0.39c3.82,2.09,7.66,4.2,11.62,6.36c2.35-3.86,4.62-7.6,6.96-11.45c-0.4-0.04-0.57-0.09-0.72-0.07
		c-4.19,0.77-4.38,0.61-4.48-3.79c0-0.06,0-0.11,0-0.17C20.49,33.4,38.84,18.15,58.28,22.41c12.97,2.84,21.23,11.08,23.99,23.97
		c2.63,12.27-1.36,22.73-11.14,30.7c-2.51,2.04-5.53,3.46-8.42,5.23C65.11,84.64,66.8,87.59,67.46,91.16z M32.57,80.66
		c3.22,0,6.34,0.04,9.46-0.03c0.79-0.02,1.65-0.25,2.35-0.61c4.36-2.26,8.81-2.6,13.4-0.8c0.46,0.18,1,0.48,1.41,0.37
		c3.64-0.94,6.97-2.51,9.87-4.92c-3.9-7.02-12.55-11.08-20.29-9.61C40.37,66.65,33.59,73.08,32.57,80.66z M101.57,79.09
		c0,0.91,0,1.33,0,1.76c-0.02,2.77-0.21,2.95-2.96,2.95c-4.36,0-8.72-0.05-13.07,0.04c-0.79,0.02-1.75,0.39-2.32,0.93
		c-3.56,3.36-7.5,6.15-11.9,8.3c-0.55,0.27-1.1,0.54-1.66,0.8c0.04,0.11,0.08,0.22,0.12,0.32c2.06,0,4.12,0,6.19,0
		c7.71,0,15.42-0.01,23.13,0.01c1.96,0,2.46,0.53,2.48,2.49c0.01,0.63,0,1.26,0,2.3c3.38-3.54,6.4-6.72,9.5-9.96
		C107.95,85.76,104.95,82.61,101.57,79.09z M4.44,94.07c10.63,0,21.15,0,31.77,0c-0.04-3.77,1.21-7.04,3.45-10.17
		c-11.89,0-23.51,0-35.22,0C4.44,87.29,4.44,90.61,4.44,94.07z M64.39,93.91c0.03-6.98-5.38-12.51-12.29-12.55
		c-7.04-0.04-12.62,5.44-12.63,12.41c-0.01,6.91,5.49,12.45,12.41,12.5C58.79,106.31,64.36,100.82,64.39,93.91z M43.23,107.03
		c-1.31,2.3-2.54,4.47-3.77,6.64c2.44-0.81,3.35,0.52,3.89,2.66c1.52-2.64,2.85-4.94,4.2-7.28
		C46.1,108.37,44.75,107.74,43.23,107.03z M56.35,109.03c1.37,2.37,2.7,4.67,4.23,7.32c0.5-2.36,1.61-3.38,4.19-2.19
		c-1.58-2.74-2.85-4.92-4.11-7.11C59.14,107.75,57.83,108.35,56.35,109.03z"/>
	<path class="st0" d="M63.5,47.47c0.01,6.37-5.05,11.48-11.45,11.55c-6.43,0.07-11.64-5.08-11.64-11.53
		c0-6.35,5.1-11.51,11.45-11.59C58.21,35.83,63.48,41.06,63.5,47.47z M51.91,55.82c4.56,0.02,8.35-3.71,8.41-8.26
		c0.06-4.52-3.7-8.35-8.26-8.42c-4.63-0.07-8.46,3.71-8.46,8.35C43.61,52.07,47.33,55.8,51.91,55.82z"/>
	<path class="st1" d="M67.46,91.16c-0.67-3.57-2.35-6.52-4.75-8.84c2.89-1.77,5.91-3.19,8.42-5.23c9.78-7.97,13.77-18.43,11.14-30.7
		C79.51,33.5,71.25,25.26,58.28,22.41C38.84,18.15,20.49,33.4,20.83,53.28c0,0.06,0,0.11,0,0.17c0.1,4.4,0.29,4.56,4.48,3.79
		c0.15-0.03,0.32,0.03,0.72,0.07c-2.34,3.86-4.61,7.59-6.96,11.45c-3.95-2.17-7.79-4.27-11.62-6.36c0.09-0.23,0.11-0.38,0.16-0.39
		c3.01-0.83,3.63-0.37,3.13-4.63c-2.17-18.6,8.46-35.31,24-42.36c17.82-8.08,38.87-2.7,50.51,13.01
		c15.86,21.42,7.77,51.95-16.61,62.7C68.3,90.88,67.93,90.99,67.46,91.16z"/>
	<path class="st1" d="M32.57,80.66c1.01-7.58,7.8-14.01,16.21-15.6c7.74-1.47,16.39,2.59,20.29,9.61c-2.9,2.41-6.23,3.98-9.87,4.92
		c-0.41,0.11-0.96-0.19-1.41-0.37c-4.59-1.8-9.04-1.46-13.4,0.8c-0.71,0.37-1.56,0.6-2.35,0.61C38.91,80.7,35.79,80.66,32.57,80.66z
		"/>
	<path class="st2" d="M64.39,93.91c-0.03,6.9-5.6,12.4-12.52,12.35c-6.92-0.05-12.42-5.59-12.41-12.5
		c0.01-6.97,5.59-12.45,12.63-12.41C59.01,81.41,64.43,86.94,64.39,93.91z M61.31,93.87c0.03-5.15-4.15-9.4-9.29-9.43
		c-5.16-0.04-9.4,4.14-9.43,9.29c-0.04,5.18,4.1,9.37,9.28,9.41C57.07,103.16,61.28,99.03,61.31,93.87z"/>
	<path class="st2" d="M43.23,107.03c1.52,0.71,2.86,1.34,4.31,2.01c-1.35,2.34-2.68,4.64-4.2,7.28c-0.53-2.14-1.44-3.47-3.89-2.66
		C40.69,111.5,41.92,109.33,43.23,107.03z"/>
	<path class="st2" d="M56.35,109.03c1.49-0.68,2.8-1.29,4.31-1.98c1.26,2.18,2.53,4.37,4.11,7.11c-2.58-1.19-3.69-0.17-4.19,2.19
		C59.04,113.7,57.71,111.4,56.35,109.03z"/>
	<path class="st0" d="M61.31,93.87c-0.03,5.16-4.25,9.29-9.44,9.26c-5.18-0.03-9.32-4.23-9.28-9.41c0.04-5.15,4.28-9.32,9.43-9.29
		C57.16,84.48,61.34,88.72,61.31,93.87z M52,99.91c3.42-0.02,6.1-2.77,6.06-6.21c-0.04-3.36-2.73-6.01-6.08-6.02
		c-3.43-0.01-6.13,2.7-6.12,6.14C45.85,97.25,48.56,99.94,52,99.91z"/>
	<path class="st2" d="M52,99.91c-3.44,0.02-6.15-2.66-6.15-6.1c-0.01-3.44,2.7-6.15,6.12-6.14c3.36,0.01,6.04,2.67,6.08,6.02
		C58.1,97.14,55.42,99.89,52,99.91z"/>
</g>
</svg>
