<?xml version="1.0" encoding="utf-8"?>
<!-- Generator: Adobe Illustrator 24.3.0, SVG Export Plug-In . SVG Version: 6.00 Build 0)  -->
<svg version="1.1" id="Layer_1" xmlns="http://www.w3.org/2000/svg" xmlns:xlink="http://www.w3.org/1999/xlink" x="0px" y="0px"
	 viewBox="0 0 115.98 129.9" style="enable-background:new 0 0 115.98 129.9;" xml:space="preserve">
<style type="text/css">
	.st0{fill:#001135;}
	.st1{fill:#FFFFFF;}
	.st2{fill:#3C7CFF;}
</style>
<g>
	<path class="st0" d="M109.96,44.81c0,5.38-0.06,10.76,0.01,16.13c0.26,19.86-7.51,36.22-21.69,49.74
		c-8.28,7.9-17.97,13.57-28.66,17.58c-0.83,0.31-1.95,0.44-2.74,0.14c-18.22-6.82-33.02-17.9-42.79-35.02
		C8.7,83.93,6.01,73.69,6,62.77C6,49.3,6,35.82,6,22.35c0-2.17,0.19-2.33,2.4-2.37c17.64-0.34,33.31-6.07,47.05-17.13
		c2.5-2.01,2.49-2.02,4.99-0.2C69.87,9.47,80.39,13.9,91.6,16.67c5.37,1.33,10.86,2.25,16.32,3.17c1.65,0.28,2.07,0.98,2.06,2.49
		C109.93,29.83,109.96,37.32,109.96,44.81z M58.01,4.04C43.61,15.87,27.22,22.06,8.62,22.5c-0.04,0.63-0.1,1.1-0.11,1.56
		c0,12.87-0.01,25.75,0,38.62c0.01,10.68,2.67,20.67,8.01,29.91c9.33,16.12,23.36,26.58,40.48,33.23c0.6,0.23,1.46,0.23,2.06-0.01
		c12.48-4.81,23.48-11.84,32.33-21.98c9.42-10.78,15.37-23.18,15.81-37.64c0.41-13.59,0.18-27.2,0.22-40.79
		c0.01-3.1,0-3.09-3.12-3.56C87.64,19.3,71.95,14.16,58.01,4.04z"/>
	<path class="st1" d="M58.01,4.04c13.94,10.12,29.63,15.26,46.31,17.81c3.12,0.48,3.13,0.47,3.12,3.56
		c-0.05,13.6,0.19,27.21-0.22,40.79c-0.44,14.46-6.4,26.85-15.81,37.64c-8.85,10.13-19.85,17.17-32.33,21.98
		c-0.61,0.23-1.46,0.24-2.06,0.01c-17.11-6.65-31.15-17.11-40.48-33.23c-5.34-9.23-8.01-19.23-8.01-29.91
		c-0.01-12.87,0-25.75,0-38.62c0-0.47,0.06-0.93,0.11-1.56C27.22,22.06,43.61,15.87,58.01,4.04z M99.7,49.72
		c0-5.2-0.06-10.39,0.03-15.58c0.03-1.61-0.58-2.26-2.11-2.51c-2.14-0.36-4.25-0.87-6.36-1.38c-10.84-2.57-21.28-6.23-31.03-11.69
		c-1.32-0.74-2.3-0.7-3.6,0.12c-11.79,7.44-24.6,12.17-38.43,14.02c-1.54,0.21-1.99,0.93-1.98,2.4c0.05,9,0.05,18,0.01,27
		c-0.04,9.65,2.75,18.44,8.1,26.41c8.1,12.05,19.5,19.88,32.72,25.31c0.59,0.24,1.46,0.17,2.07-0.08
		c9.61-3.9,18.31-9.24,25.57-16.72c9.45-9.73,15.05-21.16,15-34.99C99.69,57.94,99.7,53.83,99.7,49.72z"/>
	<path class="st0" d="M99.7,49.72c0,4.11-0.01,8.22,0,12.32c0.05,13.83-5.54,25.26-15,34.99c-7.26,7.48-15.96,12.82-25.57,16.72
		c-0.61,0.25-1.48,0.32-2.07,0.08c-13.22-5.43-24.63-13.26-32.72-25.31c-5.35-7.97-8.14-16.76-8.1-26.41c0.04-9,0.03-18-0.01-27
		c-0.01-1.47,0.44-2.19,1.98-2.4c13.83-1.85,26.64-6.58,38.43-14.02c1.31-0.82,2.28-0.86,3.6-0.12c9.75,5.46,20.19,9.12,31.03,11.69
		c2.11,0.5,4.22,1.02,6.36,1.38c1.53,0.25,2.13,0.9,2.11,2.51C99.65,39.33,99.7,44.53,99.7,49.72z M18.78,35.64
		c0,0.39,0,0.98,0,1.58c0,8.34,0.04,16.68-0.01,25.02c-0.04,7.47,1.7,14.49,5.3,21.01c7.5,13.59,19.33,22.09,33.31,27.98
		c0.46,0.19,1.17,0.03,1.68-0.18c8.58-3.52,16.35-8.31,22.98-14.83c9.97-9.81,15.54-21.47,15.17-35.74
		c-0.21-8.09-0.04-16.2-0.04-24.3c0-0.65,0-1.31,0-1.99c-0.67-0.17-1.19-0.33-1.72-0.44c-12.53-2.59-24.57-6.55-35.89-12.61
		c-0.57-0.31-1.66-0.19-2.24,0.16c-6.8,4.09-13.87,7.61-21.49,9.87C30.3,32.82,24.65,34.12,18.78,35.64z"/>
	<path class="st0" d="M39.03,69.5c-2.33-1.21-4.32-2.2-6.26-3.3c-0.52-0.29-1.18-0.89-1.19-1.36c-0.01-0.46,0.63-1.1,1.14-1.39
		c1.98-1.13,4.02-2.15,6.27-3.33c-2.25-1.18-4.29-2.2-6.26-3.32c-0.51-0.29-1.17-0.91-1.16-1.37c0.01-0.47,0.67-1.07,1.19-1.36
		c1.97-1.12,4-2.15,6.25-3.33c-2.25-1.16-4.25-2.13-6.18-3.22c-0.55-0.31-1.18-0.96-1.25-1.52c-0.05-0.39,0.69-1.06,1.22-1.34
		c7.91-4.13,15.83-8.25,23.8-12.27c0.76-0.38,2.05-0.39,2.82,0c7.92,3.99,15.78,8.08,23.64,12.19c0.57,0.3,1.31,0.94,1.33,1.46
		c0.02,0.49-0.69,1.19-1.25,1.5c-1.92,1.09-3.91,2.06-6.14,3.21c2.05,1.07,3.89,1.95,5.65,2.97c0.71,0.42,1.24,1.15,1.85,1.75
		c-0.62,0.59-1.17,1.31-1.89,1.73c-1.72,0.99-3.52,1.84-5.64,2.93c2.13,1.09,4.05,2,5.88,3.06c0.66,0.38,1.4,1.05,1.54,1.71
		c0.08,0.38-0.89,1.13-1.51,1.49c-1.82,1.05-3.71,1.98-5.85,3.11c2.2,1.14,4.18,2.1,6.09,3.19c0.56,0.32,1.29,1,1.28,1.5
		c-0.01,0.51-0.74,1.18-1.31,1.48c-7.91,4.14-15.83,8.25-23.8,12.27c-0.7,0.35-1.9,0.31-2.62-0.05c-7.97-4.02-15.9-8.13-23.81-12.26
		c-0.56-0.29-1.29-1.01-1.26-1.48c0.03-0.52,0.78-1.13,1.35-1.46C34.82,71.62,36.77,70.67,39.03,69.5z M35.65,45.97
		c0.4,0.31,0.52,0.45,0.67,0.52c6.96,3.62,13.91,7.25,20.9,10.8c0.5,0.26,1.41,0.09,1.97-0.19c4.21-2.11,8.38-4.29,12.56-6.45
		c2.82-1.46,5.62-2.94,8.44-4.41c-0.16-0.28-0.19-0.42-0.27-0.46c-7.07-3.67-14.14-7.33-21.23-10.96c-0.35-0.18-0.95-0.2-1.29-0.02
		C50.19,38.47,43.02,42.17,35.65,45.97z M80.54,55.45c-1.89-0.99-3.45-1.94-5.11-2.62c-0.71-0.29-1.78-0.29-2.46,0.04
		c-4.32,2.13-8.61,4.34-12.84,6.64c-1.48,0.81-2.68,0.85-4.18,0.03c-4.28-2.34-8.63-4.55-12.99-6.75c-0.56-0.28-1.43-0.39-1.97-0.15
		c-1.8,0.79-3.52,1.77-5.43,2.76c0.61,0.35,1.05,0.63,1.53,0.88C43.6,59.66,50.15,63,56.65,66.43c1.06,0.56,1.83,0.52,2.82-0.05
		c1.61-0.94,3.31-1.72,4.97-2.58C69.73,61.06,75.01,58.32,80.54,55.45z M80.53,64.82c-1.84-0.96-3.4-1.91-5.06-2.59
		c-0.71-0.29-1.78-0.33-2.44,0c-4.49,2.21-8.93,4.51-13.35,6.87c-1.2,0.64-2.17,0.63-3.37-0.01c-4.41-2.36-8.87-4.64-13.33-6.9
		c-0.53-0.27-1.33-0.47-1.8-0.26c-1.86,0.82-3.65,1.83-5.59,2.83c0.39,0.27,0.61,0.46,0.87,0.59c6.8,3.51,13.59,7.05,20.43,10.49
		c0.61,0.31,1.64,0.29,2.27-0.01c3.52-1.71,6.98-3.56,10.46-5.36C73.19,68.62,76.76,66.77,80.53,64.82z M80.52,74.19
		c-1.87-0.97-3.41-1.91-5.07-2.59c-0.71-0.29-1.77-0.32-2.44,0.01c-4.5,2.2-8.96,4.48-13.37,6.85c-1.23,0.66-2.16,0.6-3.35-0.04
		c-4.42-2.36-8.89-4.61-13.35-6.88c-0.46-0.23-1.12-0.56-1.48-0.39c-1.94,0.88-3.81,1.9-5.81,2.93c0.37,0.33,0.49,0.48,0.65,0.56
		C43.15,78.19,50,81.76,56.9,85.22c0.65,0.33,1.77,0.22,2.47-0.12c3.58-1.74,7.1-3.61,10.63-5.45
		C73.41,77.89,76.82,76.11,80.52,74.19z"/>
	<path class="st2" d="M35.65,45.97c7.37-3.8,14.55-7.51,21.74-11.18c0.35-0.18,0.94-0.16,1.29,0.02
		c7.09,3.63,14.16,7.29,21.23,10.96c0.08,0.04,0.11,0.19,0.27,0.46c-2.82,1.47-5.63,2.95-8.44,4.41c-4.18,2.17-8.35,4.35-12.56,6.45
		c-0.56,0.28-1.46,0.45-1.97,0.19c-6.99-3.55-13.94-7.18-20.9-10.8C36.16,46.42,36.04,46.29,35.65,45.97z"/>
	<path class="st2" d="M80.54,55.45c-5.52,2.86-10.81,5.61-16.1,8.35c-1.66,0.86-3.36,1.65-4.97,2.58c-0.99,0.57-1.76,0.61-2.82,0.05
		C50.15,63,43.6,59.66,37.07,56.29c-0.47-0.24-0.92-0.53-1.53-0.88c1.91-0.99,3.63-1.97,5.43-2.76c0.54-0.24,1.42-0.13,1.97,0.15
		c4.36,2.19,8.71,4.4,12.99,6.75c1.51,0.83,2.7,0.78,4.18-0.03c4.23-2.31,8.52-4.51,12.84-6.64c0.68-0.33,1.75-0.33,2.46-0.04
		C77.09,53.51,78.65,54.46,80.54,55.45z"/>
	<path class="st2" d="M80.53,64.82c-3.77,1.95-7.34,3.8-10.91,5.64c-3.48,1.8-6.94,3.65-10.46,5.36c-0.62,0.3-1.65,0.32-2.27,0.01
		c-6.84-3.44-13.63-6.98-20.43-10.49c-0.26-0.13-0.49-0.33-0.87-0.59c1.94-1,3.73-2,5.59-2.83c0.48-0.21,1.28,0,1.8,0.26
		c4.47,2.26,8.92,4.54,13.33,6.9c1.2,0.64,2.17,0.65,3.37,0.01c4.41-2.36,8.86-4.66,13.35-6.87c0.67-0.33,1.73-0.29,2.44,0
		C77.13,62.92,78.69,63.86,80.53,64.82z"/>
	<path class="st2" d="M80.52,74.19c-3.7,1.93-7.11,3.7-10.52,5.47c-3.54,1.83-7.05,3.71-10.63,5.45c-0.69,0.34-1.81,0.44-2.47,0.12
		C50,81.76,43.15,78.19,36.3,74.64c-0.16-0.08-0.27-0.23-0.65-0.56c2-1.03,3.87-2.05,5.81-2.93c0.36-0.17,1.03,0.16,1.48,0.39
		c4.46,2.27,8.94,4.52,13.35,6.88c1.19,0.64,2.12,0.7,3.35,0.04c4.41-2.37,8.87-4.65,13.37-6.85c0.67-0.33,1.73-0.3,2.44-0.01
		C77.11,72.28,78.66,73.21,80.52,74.19z"/>
</g>
</svg>
