<?xml version="1.0" encoding="utf-8"?>
<!-- Generator: Adobe Illustrator 24.3.0, SVG Export Plug-In . SVG Version: 6.00 Build 0)  -->
<svg version="1.1" id="Layer_1" xmlns="http://www.w3.org/2000/svg" xmlns:xlink="http://www.w3.org/1999/xlink" x="0px" y="0px"
	 width="564.3px" height="478px" viewBox="0 0 564.3 478" style="enable-background:new 0 0 564.3 478;" xml:space="preserve">
<style type="text/css">
	.st0{fill:#185AE9;}
	.st1{fill:#00B0FB;}
	.st2{fill:#00B0FB;fill-opacity:0.4;}
	.st3{fill:#FFFFFF;}
	.st4{fill:#3C7CFF;}
	.st5{fill:#001135;}
	.st6{fill:#DBDBDB;}
	.st7{fill:#FEFEFE;}
	.st8{fill:#010101;}
	.st9{fill:#646464;}
	.st10{fill:#FDFDFD;}
	.st11{fill:#070707;}
	.st12{fill:#F6F6F6;}
	.st13{fill:#D3D3D3;}
	.st14{fill:#F7F7F7;}
	.st15{fill:#D7D7D7;}
	.st16{fill:#DFDFDF;}
	.st17{fill:#696969;}
	.st18{fill:#D2D2D2;}
	.st19{fill:#9C9C9C;}
	.st20{fill:#050505;}
	.st21{fill:#CFCFCF;}
	.st22{fill:#EEEEEE;}
	.st23{fill:#040404;}
	.st24{fill:#080808;}
	.st25{fill:#222222;}
	.st26{fill:#272727;}
	.st27{fill:#060606;}
	.st28{fill:#0B0B0B;}
	.st29{fill:#0C0C0C;}
	.st30{fill:#161616;}
	.st31{fill:#202020;}
	.st32{fill:#232323;}
	.st33{fill:#0A0A0A;}
</style>
<g>
	<g>
		<path d="M0,222c0.2,5.3,1.9,10.2,3.9,15c5.5,12.7,13.3,24,21.8,34.8c4.9,6.3,10,12.4,15.2,18.3c1.5,1.7,3.1,3.5,4.6,5.2
			c2.4,2.6,4.8,5.2,7.2,7.7c1.7,1.8,3.5,3.6,5.3,5.5c6,6.1,12.2,12.1,18.5,18c0.9,0.8,1.8,1.7,2.7,2.5c0.7,0.6,1.4,1.3,2.1,1.9
			c4.1,3.8,8.3,7.6,12.5,11.3c0.3,0.2,0.5,0.5,0.8,0.7c4.2,3.8,8.5,7.5,12.8,11.1c0.6,0.5,1.2,1,1.8,1.5c0.6,0.5,1.2,1,1.7,1.5
			c0.2,0.1,0.3,0.3,0.5,0.4c10.5,8.8,21.2,17.4,32.1,25.7c1.1,0.8,2.1,1.6,3.2,2.4c0.2,0.1,0.3,0.2,0.4,0.3c3.5,2.6,7,5.2,10.5,7.8
			c3.2,2.4,6.5,4.7,9.7,7c1.2,0.8,2.4,1.7,3.5,2.5c11.5,8.1,23.3,15.8,35.2,23.3c1.8,1.1,3.7,2.3,5.5,3.4c1.1,0.7,2.2,1.4,3.4,2.1
			c5.7,3.5,11.5,6.9,17.4,10.2c1.5,0.9,3.1,1.8,4.6,2.6c14.9,8.3,30.3,15.8,46.2,22.2c14,5.5,28.1,10.4,43.6,11
			c2.2-0.2,4.6-0.2,6.9-0.5c8.8-1.4,13.6-7,13.4-15.8c0-4.8-1.4-9.3-3.1-13.7c-4.6-11.6-11.4-21.9-18.7-31.8
			c-9.2-12.3-19.1-23.9-29.6-35c-1.4-1.5-2.9-3-4.3-4.5c-1-1-2-2.1-3-3.1c-1-1-1.9-2-2.9-3c-1.8-1.8-3.5-3.5-5.3-5.2
			c0,0-0.1-0.1-0.1-0.1c-0.9-0.9-1.9-1.9-2.8-2.8c-0.2-0.2-0.4-0.4-0.6-0.6c0,0,0,0,0,0c-0.1-0.1-0.2-0.2-0.4-0.3
			c-2.9-2.8-5.8-5.5-8.7-8.2c-1-1-2.1-1.9-3.1-2.9c-0.7-0.7-1.4-1.3-2.2-2c-0.7-0.6-1.4-1.3-2.1-1.9c-0.5-0.5-1.1-1-1.6-1.5
			c-0.6-0.5-1.1-1-1.7-1.5c-2.3-2-4.5-4.1-6.8-6.1c-0.3-0.2-0.6-0.5-0.8-0.7c-0.1-0.1-0.2-0.2-0.3-0.3c-0.6-0.5-1.2-1-1.7-1.5
			c-0.3-0.2-0.5-0.5-0.8-0.7c-2.8-2.4-5.6-4.8-8.4-7.2c-1.1-1-2.3-1.9-3.4-2.9c-1.1-0.9-2.1-1.8-3.2-2.6c-2.2-1.8-4.4-3.7-6.7-5.5
			c0,0,0,0,0,0c-2.2-1.8-4.4-3.5-6.6-5.2c-0.2-0.2-0.4-0.3-0.6-0.5c-0.9-0.7-1.9-1.5-2.8-2.2c-0.9-0.7-1.8-1.4-2.8-2.1
			c-1.2-1-2.4-1.9-3.6-2.8c-3.8-2.9-7.5-5.8-11.4-8.6c-0.8-0.6-1.6-1.2-2.4-1.8c-1.8-1.3-3.5-2.6-5.3-3.9c-1-0.8-2.1-1.5-3.1-2.2
			c-2.6-1.9-5.2-3.7-7.7-5.5c0,0-0.1-0.1-0.1-0.1c-0.1-0.1-0.3-0.2-0.4-0.3c-0.8-0.6-1.7-1.2-2.5-1.8c-0.2-0.1-0.3-0.2-0.5-0.3
			c-0.1-0.1-0.2-0.1-0.3-0.2c-3.6-2.5-7.2-5-10.9-7.5c-2.5-1.7-5-3.3-7.4-5c-1-0.7-2-1.3-3-2c-0.3-0.2-0.5-0.3-0.8-0.5
			c-0.9-0.6-1.8-1.2-2.7-1.8c-1.1-0.7-2.1-1.4-3.2-2c-4.6-2.9-9.3-5.8-13.9-8.7c-1.1-0.7-2.1-1.3-3.2-1.9c-0.8-0.5-1.6-0.9-2.4-1.4
			c-1.1-0.6-2.1-1.3-3.2-1.9c-6.4-3.8-12.9-7.4-19.5-10.9c-3.8-2-7.6-4-11.5-6c-1-0.5-2-1-2.9-1.5c-3-1.5-6-3-9.1-4.4v0
			c-1.3-0.6-2.7-1.2-4-1.8c-2.3-1-4.6-2-6.9-3c-9.4-4-19-7.5-29-10.1c-8.6-2.3-17.4-4-26.4-2.8C4.7,206.5-0.3,212.3,0,222z"/>
		<g>
			<path class="st3" d="M183.8,412c1.5,1,3.1,2,4.6,3C187.6,412.4,185.9,411.9,183.8,412z"/>
			<path class="st6" d="M138.3,379.1c1.7,1.4,3.5,2.7,5.2,4c1.1,0.8,2.1,1.6,3.2,2.4c0.2,0.1,0.3,0.2,0.4,0.3
				c3.5,2.6,7,5.2,10.5,7.8c1.5,1.1,3,2.2,4.5,3.3c0.1-0.6,0.2-1.1,0.4-1.7c2.8-12.6,10.7-20.8,22.5-22.4
				c-6.4-2.8-12.7-3.6-18.6-5.4c-12-3.7-20.5,0.9-27.2,10.4C138.9,378.3,138.6,378.7,138.3,379.1z"/>
			<path class="st6" d="M119.1,363.9c5.2,4.2,10.4,8.4,15.7,12.5c1.1-1.6,2.2-3.1,3.4-4.6c2.4-2.9,5.4-5.3,8.8-8.1
				c-8.6-2.4-16.6-2.3-24.6-0.6C121.2,363.4,120.1,363.6,119.1,363.9z M85,334.5c2.9,2.6,5.7,5.2,8.6,7.7c0.3,0.2,0.5,0.5,0.8,0.7
				c4.2,3.8,8.5,7.5,12.8,11.1c0.6,0.5,1.2,1,1.8,1.5c0.6,0.5,1.2,1,1.7,1.5c0.2,0.2,0.3,0.3,0.5,0.4c1.2,1,2.4,2,3.7,3.1
				c8.9-2.5,18-3.5,27.4-2.5c0.8,0.1,1.5,0,2.2,0c0.4-1.6-0.7-2.4-1.3-3.3c-6.8-9.6-14.6-18.3-23.3-26.2c-1.4-1.3-4.6-2.8-3.1-4.7
				c2-2.4,4.3,0.5,5.9,1.8c7.3,6.1,13.5,13.2,19.7,20.5c1.4,1.6,2.7,3.2,4,4.7c1.4-0.7,0.9-1.8,0.8-2.6c-0.9-14.8-0.8-29.9-3.1-44.5
				c-3.1-19-11.2-36.1-26.7-48.7c-1.6-1.3-4.7-3.1-3.6-4.4c1.5-1.9,3.9,0.6,5.6,1.7c7.8,5.2,14,11.9,18.1,20.4
				c2,4.3,4.1,8.5,6.1,12.8c6.9,14.1,6,29.5,6.9,44.5c0.5,8.8,1,17.6,2.5,26.3c0.5,3,1.6,4.6,5.2,5c9.3,1.1,18.2,3.8,27.1,6.9
				c2.9,1,5.1,2.9,5.3,6.2c0.1,1.2,0.5,2.1,1.8,2.2c8.7,0.8,17.2,4.3,26.1,1.5c8.4-2.6,16.8-5.2,25.2-8c4.6-1.5,9-1.6,13.4,0.4
				c4,1.8,8.2,2.7,12.6,2.6c1.5,0,2.4,0.1,2.5-1.9c0.2-4.3,0.5-8.5,0.8-12.8c2-31.6,4.6-63.2,3.6-94.9c0-0.8-0.3-1.7,0.7-1.9
				c0.9-0.2,1.3,0.8,1.6,1.4c1.4,2.8,2.2,5.9,2.2,9.1c0.1,24.2-0.8,48.4-2.9,72.6c-0.2,2.9-0.3,5.8-0.4,8.7
				c-0.1,2.2,0.7,2.5,2.5,1.6c1.3-0.6,2.6-1.3,3.6-2.4c0.9-1.1,1.8-2.2,3.2-3c-2.8,3.8-1.2,10.5-8.1,11.7c-1,0.2-1.3,0.8-1.4,1.5
				c-0.1,0.4-0.1,0.9-0.1,1.3c-0.4,3.5-0.7,7.1-1.1,10.6c-0.1,1.5,0.5,2.8,1.8,3.1c1.4,0.3,1.4-1.3,1.8-2.2c1.1-2.5,2.1-4.9,3.1-7.4
				c5.8-13.6,11.5-27.2,17.2-40.8c-1.6-6.7-4.6-18-5.8-23.5c-2.9-13.6-6.1-27.2-10.6-40.4c-3.8-11.1-9.8-19.9-21.3-24.2
				c-3.8-1.4-7.4-3.5-11-5.2c-1.2-0.6-2.2-0.8-2.8,0.8c-2,5.1-6.5,7.5-11.2,9.3c-2.7,1-3.5,2.3-2.9,5.3c2.2,9.4,2.2,19.1,2.6,28.7
				c0.4,9.3,0.6,18.7,0.9,28c0.1,2.4,0.5,4.7,0.8,7c0.2,1.4,0.5,3-0.9,4c-1,0.8-2.2,0.8-3.4,0.2c-1.6-0.8-1.4-2.3-1.4-3.8
				c0-19.6-0.5-39.2-2.3-58.8c-0.2-2.6-0.8-5.2-1.7-7.7c-1.2-3.1,0.1-4.8,2.8-5.8c2.5-0.8,5-1.5,7.3-2.9c4-2.5,5.8-5.8,5-10.6
				c-1.5-8.9-11-16.9-19.8-16.4c-5.3,0.3-5.6,0.7-4.8,6.8c2.1-1.2,3.8-2.5,5.9-2.7c5-0.4,7.8,3.1,6,7.7c-0.7,1.8-1.9,3.5-3,5
				c-3.2,4.3-7.4,7.8-11.4,11.5c-3.2,3-5.9,2.9-9.4,0.5c-10.1-7.1-20.4-14-30.6-21c-9.7-6.5-19.2-13.5-30.7-16.7
				c-1.7-0.5-3-1.4-2.3-3.4c0.6-1.9,2.2-2.2,3.8-1.5c3.5,1.5,7.2,2.7,10.5,4.6c3.4,1.9,5.1,1,6.5-2.3c2.2-5.3,2-5.8-3.6-6.1
				c-7.9-0.4-15.8,0.1-23.6,1.3c-4,0.6-7,2.4-8.9,6.3c-3.6,7.2-9.1,13.2-13.7,19.8c-0.7,1.1-1.7,2-1.9,3.4c-0.2,1.6-0.5,3.3,0.7,4.5
				c1.2,1.2,2.5-0.2,3.6-0.6c4-1.5,8.1-0.6,12.1-0.2c19.3,1.8,38,6.8,56.8,11.2c1.9,0.4,3.3,1.4,2.8,3.6c-0.6,2.3-2.5,1.8-4.2,1.3
				c-20.1-6-40.6-10-61.5-11.9c-1.8-0.2-3.4,0.4-4.9,1.1c-3,1.3-5.8,2.8-8.6,4.3c-4.6,2.6-9.1,5.5-13.4,8.6c-2.8,2-4.4,4.7-5.6,7.9
				c-3.9,10.5-5.3,21.5-5.9,32.5C84.4,303,84.2,318.8,85,334.5z M205,300.9c0-0.2,0-0.3,0-0.4c0-0.5,0-1,0-1.4c0-1.1,0-2.3,0-3.5
				c-0.8-15.4-3.3-30.6-8.6-45.1c-0.4-1.2-1.2-2.3-1.8-3.5c-1-1.8-0.7-3.5,1.3-4.2c1.9-0.7,3.2,0.1,3.9,2.2
				c5.3,16,9.2,32.4,9.8,49.4c0.1,2.1,0.3,4.2,0.8,6.2c0.1,0.3,0.1,0.6,0.1,0.8c0,0.1,0,0.2,0,0.3c0,0.1,0,0.1,0,0.2
				c0,0.1,0,0.2-0.1,0.2c0,0.1,0,0.1-0.1,0.2c-0.1,0.2-0.2,0.4-0.4,0.6c-0.1,0.1-0.1,0.1-0.2,0.2c-0.1,0.1-0.2,0.2-0.3,0.2
				c-0.1,0.1-0.2,0.1-0.3,0.2c0,0-0.1,0-0.1,0c-0.1,0-0.2,0.1-0.3,0.1c-0.1,0-0.2,0-0.3,0.1c-0.1,0-0.3,0-0.4,0
				c-1.8,0.1-2.7-0.9-2.8-2.6C205.1,301,205.1,301,205,300.9z"/>
			<path class="st3" d="M168.2,204.4c-0.8,1.8-0.6,2.9,1,3.9c2.9,1.9,5.6,3.9,8.4,5.8c10.6,7.4,21,15,32,21.7c3.9,2.4,6.1,1,6.2-3.6
				c0-3.7-0.8-7.4-0.4-11c0.4-4.5-0.5-7.5-5.4-8.7c-2-0.5-3.8-1.8-5.5-3.1c-7.3-5.2-13.5-11.3-17-19.8c-0.5-1.2-1.2-2.6,0.4-3.5
				c1.2-0.7,1.9,0.6,2.6,1.2c4.9,4.7,10.9,7.9,16.9,10.7c5.5,2.6,11.2,4.5,17.4,4.6c5.3,0,7.3-1.3,9-6.3c1-2.9,2.2-5.6,3.7-8.3
				c4.9-9,8.1-18.6,8.7-28.9c0.1-1,1.1-3-1.2-2.8c-2.6,0.3-3.8-1.3-5.8-4c-0.3,5.5,1.7,9.3,2.7,13.3c1.2,4.7-0.9,7.5-5.7,7.4
				c-1.1,0-3.1,0.6-3.3-1.1c-0.2-2,1.9-1.3,3-1.5c3.7-0.6,4.4-1.6,3.2-5.4c-1.1-3.4-2.1-6.8-2.3-10.4c-0.1-1.3-0.2-3,1.2-3.5
				c2.4-0.8,4.6-2.8,7.4-2c3,0.9,2.6-1.7,2.8-3c0.3-2.4-1.6-1.4-2.7-1.3c-0.9,0.1-1.8,0.3-2.7,0.5c-1,0.1-1.9,0.1-2.4-0.9
				c-0.5-1.2,0.4-2,1.3-2.6c1.7-1.2,3.7-1.3,5.7-1.4c1.4-0.1,2.7-0.2,2.6-2.1c-0.2-6.5,1-13.1-1.6-19.5c-1.2-2.9-2-4.8-5.8-3.8
				c-3,0.8-6.3,0.2-9.4-0.4c-8.9-1.8-17.8-3.6-26.7-5.3c-3.8-0.7-5.3,0.6-4.6,4.4c0.6,3.5,1.7,6.9,2.6,10.3c1.2,4.4,0,8.3-3.6,10.9
				c-5.3,3.8-7.8,8.7-7.9,15.1c0,1.2-0.2,2.3-1.7,2.8c-3.8,1.1-9-1.7-9.7-5.7c-0.7-3.5-2.2-6.5-4.7-8.9c-2.2-2-4.7-3.4-7.9-2
				c-3,1.4-4.2,3.9-4.2,7c-0.1,7.6,3.4,13.7,8.4,19c1.5,1.7,3.6,2.6,6.1,2c1.6-0.4,3.3-1,3.7,1.4c0.3,2.6-1.5,3-3.5,3.1
				c-0.8,0-1.6,0.1-2.3-0.1c-2.6-0.8-3.1,0.3-2.9,2.7C174.7,183.1,173,194.1,168.2,204.4z M178.5,157.1c-1,0.8-2,0.2-2.8-0.5
				c-2.8-2.7-1.6-6.8-3.3-9.8c-0.3-0.5,0.8-1.3,1.6-1.3c1.3-0.1,2.5,0.1,3,1.4c0.3,0.8,0.3,1.8,0.4,2.4c-0.5,2.3,0.2,3.9,1.2,5.5
				C179.2,155.4,179.4,156.4,178.5,157.1z M216.3,176.1c1.3-1.5,2.2,0.3,3.1,1c3.2,2.7,7,3.4,11,3.4c1.7,0,4.5-1,4.5,1.6
				c0,2.7-2.9,1.7-4.5,2.1c-4.9-0.2-9.3-1.4-13-4.5C216.3,178.7,215.1,177.4,216.3,176.1z M212.5,150.3c3-2,6-4,9.7-2.6
				c1.5,0.5,3.3,1.5,3.2,3c-0.1,1.9-2.5,2.4-3.9,3.3c-1.2,0.9-3.1,0.8-3.8-0.6C216.6,151.2,214.6,151.1,212.5,150.3z M210.9,139.7
				c2.2-1.3,4.7-1.4,6.8-1.5c3.4,0,6.3,0.8,9.2,1.8c1.2,0.4,2.1,1.2,1.8,2.6c-0.3,1.5-1.6,1.9-2.8,1.4c-4.6-1.8-9.3-2.4-14.2-1.4
				c-0.8,0.2-1.6-0.1-1.9-1C209.6,140.7,210.1,140.1,210.9,139.7z"/>
			<path class="st3" d="M226.2,108.9c0.6,0.1,1.3,0.1,1.8,0.1c4.9-0.6,9.9-0.7,13.6-4.4c0.7-0.7,1.6-1.6,0.6-2.7
				c-0.7-0.9-1.7-0.7-2.4-0.1c-4,3-8.5,3.7-13.4,3.6c-1.1,0-2.2,0.3-2.3,1.6C224.1,108.1,225.1,108.6,226.2,108.9z"/>
			<path class="st3" d="M275.2,382.8c0.2,0.3,0.6,0.4,0.9,0.6c-0.6-3.2-2.3-5.3-5.1-6.4C272.2,379.1,273.7,380.9,275.2,382.8z"/>
			<path class="st6" d="M250.9,410.1c-17.6-0.4-35.2,0.4-52.8-0.7c-0.9-0.1-1.8-0.1-2.8,0c-1.3,0.2-3,0.4-2.8,2.1
				c0.2,1.6,1.8,1.1,2.9,1.1c19.7-0.2,39.4,1.1,59.1,0.6c2,0,4.2-0.1,5.5,1.6c2.3,2.9,2.9,1.2,3.6-1.1c0.3-1.1,1.2-2,0.8-3.8
				C259.9,411.5,255.4,410.2,250.9,410.1z"/>
			<path d="M354.5,367.5c-2.7,0.4-4.5,2.1-4.9,4.8c-0.3,1.6,0.7,2.6,2.3,2.4c2.7-0.5,4.3-2.2,5.1-4.6
				C356.8,368.3,356.1,367.2,354.5,367.5z"/>
			<path class="st6" d="M274.3,418.1c17.1-0.5,34.2-1,51.3-1.5c3.5-0.1,7.1-0.2,10.6-0.3c13.5-0.4,27.1-1,40.6-1.1
				c8.6,0,9.5-0.3,12.5-8.5c6.7-18.3,13.5-36.5,20.3-54.8c3.1-8.4,6.3-16.8,9.3-25.2c1.5-4.2,0.1-6.6-3.7-6.6l-50.1-1.8
				c-16.2,0-32.4,0.1-48.6-0.1c-4.2,0-6.9,1.1-8.5,5.3c-2.4,6.4-5.2,12.6-7.8,19c-4.2,10.1-8.4,20.1-12.6,30.2
				c-5.6,13.5-11.2,26.9-16.8,40.4C269.1,417.3,269.8,418.2,274.3,418.1z M345.5,373c-0.2-4.8,4.6-10,9.2-10.2
				c3.4-0.1,6.2,2.7,6.3,6.2c0.1,4.3-5,9.6-9.3,9.7C348.4,378.9,345.6,376.3,345.5,373z"/>
			<path class="st3" d="M166.1,399.8c0.4,0.3,0.8,0.6,1.2,0.9c1.2,0.8,2.4,1.7,3.5,2.5c2.6,1.8,5.2,3.6,7.8,5.4
				c1.8-0.4,3.5-0.7,5.3-1.1c7.6-1.5,15.1-4.1,23-2.6c10.5,2.1,20.6,1.9,30.5-2.4c6.3-2.8,12.3-2.4,17.6,2.6
				c0.6,0.6,1.5,1.1,2.3,1.5c1.2,0.6,2.3,0,3.3-0.7c1.1-0.9,1.1-2.1,0.6-3.2c-1.1-2.6-3.1-4.2-5.5-5.4c-3-1.5-6.2-2.2-9.5-2.7
				c-1.7-0.3-3.4-0.8-3-2.8c0.4-1.8,2.2-1.7,3.6-1.3c6.8,1.8,14.2,2.6,18.4,9.4c0.3,0.5,0.9,0.9,1.5,1.3c1.1,0.7,2.2,1,3.1-0.2
				c0.9-1.1,0.8-1.9,0-3.1c-4.1-7.1-9.7-12-18.2-12.8c-0.9-0.1-1.8-0.3-2.7-0.6c-1.2-0.3-2.2-1-2-2.5c0.3-1.7,1.7-2,3.1-1.7
				c7.8,2.2,16.3,3,20.6,11.5c0.4,0.8,1,2.7,2.5,1.6c0.9-0.7,1.9-2.4,1.2-3.5c-2.6-4.2-4.5-9.2-9.4-11.4c-8.8-4-17.7-6.7-27.1-1.5
				c-0.7,0.4-1.5,0.5-2.2,0.8c-11.9,4.1-23.7,7.9-36.6,4.8c-5.5-1.3-11.2-1.8-16.7-2.9c-3.1-0.6-5.3,0.2-7.5,2.3
				C169.6,386.8,167,392.9,166.1,399.8z"/>
			<path d="M80.4,330.2c0.3,0.2,0.5,0.5,0.8,0.7c1.3,1.2,2.6,2.4,3.9,3.5c-0.8-15.7-0.6-31.4,0.3-47.2c0.6-11,2-22,5.9-32.5
				c1.2-3.2,2.8-5.9,5.6-7.9c4.3-3.1,8.8-6,13.4-8.6c2.8-1.6,5.7-3,8.6-4.3c1.6-0.7,3.1-1.3,4.9-1.1c20.9,1.9,41.4,5.9,61.5,11.9
				c1.7,0.5,3.6,1,4.2-1.3c0.6-2.1-0.9-3.1-2.8-3.6c-18.8-4.4-37.5-9.4-56.8-11.2c-4-0.4-8.1-1.4-12.1,0.2c-1.1,0.4-2.4,1.8-3.6,0.6
				c-1.2-1.2-0.9-3-0.7-4.5c0.2-1.4,1.2-2.3,1.9-3.4c4.5-6.6,10.1-12.5,13.7-19.8c1.9-3.9,4.9-5.7,8.9-6.3
				c7.8-1.2,15.7-1.7,23.6-1.3c5.6,0.3,5.7,0.8,3.6,6.1c-1.4,3.4-3.1,4.3-6.5,2.3c-3.3-1.9-6.9-3.1-10.5-4.6
				c-1.7-0.7-3.2-0.5-3.8,1.5c-0.7,2,0.6,3,2.3,3.4c11.5,3.2,21,10.1,30.7,16.7c10.2,6.9,20.5,13.9,30.6,21c3.4,2.4,6.2,2.4,9.4-0.5
				c3.9-3.7,8.1-7.1,11.4-11.5c1.2-1.6,2.3-3.2,3-5c1.8-4.7-1-8.2-6-7.7c-2.2,0.2-3.8,1.5-5.9,2.7c-0.8-6.1-0.5-6.4,4.8-6.8
				c8.8-0.5,18.4,7.4,19.8,16.4c0.8,4.8-1,8.2-5,10.6c-2.3,1.4-4.8,2.1-7.3,2.9c-2.8,0.9-4,2.6-2.8,5.8c0.9,2.5,1.4,5.1,1.7,7.7
				c1.8,19.5,2.3,39.2,2.3,58.8c0,1.5-0.3,3,1.4,3.8c1.1,0.6,2.4,0.6,3.4-0.2c1.4-1,1-2.6,0.9-4c-0.2-2.3-0.7-4.7-0.8-7
				c-0.4-9.3-0.5-18.7-0.9-28c-0.4-9.6-0.4-19.2-2.6-28.7c-0.7-3,0.2-4.2,2.9-5.3c4.7-1.8,9.2-4.2,11.2-9.3c0.6-1.6,1.6-1.4,2.8-0.8
				c3.7,1.8,7.2,3.8,11,5.2c11.5,4.3,17.5,13.1,21.3,24.2c4.5,13.2,7.6,26.8,10.6,40.4c1.2,5.5,4.3,16.8,5.8,23.5
				c-5.7,13.6-11.5,27.2-17.2,40.8c-1,2.5-2.1,4.9-3.1,7.4c-0.4,0.9-0.4,2.5-1.8,2.2c-1.3-0.3-2-1.6-1.8-3.1
				c0.4-3.5,0.7-7.1,1.1-10.6c0-0.4,0.1-0.9,0.1-1.3c0.1-0.7,0.4-1.4,1.4-1.5c6.9-1.2,5.3-7.9,8.1-11.7c-1.3,0.8-2.3,1.9-3.2,3
				c-0.9,1.2-2.2,1.8-3.6,2.4c-1.8,0.9-2.7,0.5-2.5-1.6c0.2-2.9,0.2-5.8,0.4-8.7c2-24.2,2.9-48.3,2.9-72.6c0-3.2-0.8-6.2-2.2-9.1
				c-0.3-0.7-0.8-1.6-1.6-1.4c-1,0.2-0.7,1.1-0.7,1.9c1,31.7-1.7,63.3-3.6,94.9c-0.3,4.3-0.5,8.5-0.8,12.8c-0.1,1.9-0.9,1.8-2.5,1.9
				c-4.4,0.1-8.6-0.7-12.6-2.6c-4.4-2-8.8-2-13.4-0.4c-8.4,2.8-16.8,5.4-25.2,8c-8.9,2.8-17.4-0.7-26.1-1.5c-1.2-0.1-1.6-1-1.8-2.2
				c-0.3-3.3-2.4-5.1-5.3-6.2c-8.8-3.1-17.8-5.8-27.1-6.9c-3.6-0.5-4.7-2-5.2-5c-1.5-8.7-2-17.5-2.5-26.3c-0.9-15,0-30.4-6.9-44.5
				c-2.1-4.2-4.1-8.5-6.1-12.8c-4.1-8.5-10.3-15.2-18.1-20.4c-1.7-1.1-4.1-3.6-5.6-1.7c-1.1,1.4,2.1,3.2,3.6,4.4
				c15.5,12.6,23.6,29.7,26.7,48.7c2.4,14.6,2.2,29.6,3.1,44.5c0,0.8,0.6,1.8-0.8,2.6c-1.3-1.5-2.6-3.1-4-4.7
				c-6.1-7.2-12.3-14.4-19.7-20.5c-1.6-1.3-3.9-4.3-5.9-1.8c-1.6,1.9,1.7,3.4,3.1,4.7c8.7,7.9,16.6,16.6,23.3,26.2
				c0.6,0.9,1.7,1.7,1.3,3.3c-0.7,0-1.5,0.1-2.2,0c-9.4-0.9-18.5,0.1-27.4,2.5c1.4,1.2,2.7,2.3,4.1,3.4c1.1-0.3,2.2-0.5,3.2-0.7
				c8-1.7,16.1-1.8,24.6,0.6c-3.4,2.8-6.4,5.2-8.8,8.1c-1.2,1.5-2.4,3-3.4,4.6c1.2,0.9,2.3,1.8,3.5,2.7c0.3-0.4,0.6-0.9,0.9-1.3
				c6.7-9.6,15.2-14.1,27.2-10.4c5.9,1.8,12.2,2.6,18.6,5.4c-11.7,1.6-19.7,9.8-22.5,22.4c-0.1,0.6-0.2,1.2-0.4,1.7
				c1.3,1,2.7,1.9,4,2.8c0.9-6.8,3.5-13,8.8-18c2.2-2.1,4.4-2.9,7.5-2.3c5.5,1.1,11.2,1.5,16.7,2.9c12.9,3.2,24.7-0.7,36.6-4.8
				c0.7-0.3,1.5-0.4,2.2-0.8c9.4-5.2,18.3-2.5,27.1,1.5c4.9,2.2,6.8,7.2,9.4,11.4c0.7,1.2-0.2,2.8-1.2,3.5c-1.5,1.1-2.1-0.8-2.5-1.6
				c-4.3-8.5-12.8-9.3-20.6-11.5c-1.4-0.4-2.8,0-3.1,1.7c-0.3,1.4,0.7,2.1,2,2.5c0.9,0.2,1.8,0.5,2.7,0.6
				c8.5,0.8,14.1,5.7,18.2,12.8c0.7,1.2,0.8,2.1,0,3.1c-1,1.2-2.1,0.9-3.1,0.2c-0.6-0.4-1.2-0.8-1.5-1.3c-4.3-6.8-11.6-7.6-18.4-9.4
				c-1.4-0.4-3.3-0.5-3.6,1.3c-0.4,2,1.3,2.5,3,2.8c3.3,0.5,6.5,1.2,9.5,2.7c2.4,1.2,4.5,2.8,5.5,5.4c0.5,1.2,0.5,2.4-0.6,3.2
				c-0.9,0.8-2,1.4-3.3,0.7c-0.8-0.4-1.7-0.8-2.3-1.5c-5.3-4.9-11.2-5.3-17.6-2.6c-9.9,4.3-20.1,4.5-30.5,2.4
				c-7.8-1.6-15.4,1.1-23,2.6c-1.8,0.3-3.5,0.7-5.3,1.1c1.7,1.2,3.4,2.3,5.1,3.5c2.1-0.2,3.8,0.3,4.6,3c4.9,3.2,9.7,6.4,14.7,9.5
				h66.3c20.6,0,41.2,0,61.9,0c14.7,0,29.4,0,44.1,0c1.7-2.5,4.4-4.3,8.4-4.3h0c-0.1-0.1-0.1-0.1-0.2-0.2c5.8-1.8,7.7-6.5,9.5-11.4
				c5.8-15.5,11.7-31,17.4-46.6c4.3-11.7,8.6-23.5,12.7-35.2c2.1-6.1-1.4-10.9-7.8-10.8c-1.7,0-3.4,0-5.1,0
				c-31.7-0.7-63.4-1.4-95.2-2c-6.2-0.1-9.3,1.6-11.8,6.4c-1.9-7.9-5.1-20.8-6.8-27.6c-3.6-14.4-6.7-29-13.8-42.2
				c-2.6-4.9-6.1-8.8-11.2-11.3c-6.4-3.1-12.7-6.3-19-9.6c-1.2-0.6-2.7-1.1-3.3-2.7c-3.3-9.5-9.7-16.3-19.1-20.3
				c3-1.6,5.8-3.3,6.7-6.5c1.8-6.4,5.4-12,7.7-18.1c2.4-6.1,4.7-12.4,5-19c0.3-6.3,2-12.4,3.2-18.6c1.8-9.8,2.9-19.9-1.7-29.4
				c-0.9-1.8,0-2.5,0.9-3.6c3.2-3.8,5.4-8.1,4.9-13.3c-0.2-2-0.8-3.7-3.6-2.3c-4,2-4.2,1.8-4.8-2.5c-0.6-3.8-2.4-5.5-5.4-4.1
				c-5.1,2.4-9.4,0.9-13.9-1.4c-9.8-5.1-20.2-7-31.3-6.6c-8.8,0.3-16.2,3.2-22.1,9.6c-1,1.1-2.1,2-3.4,2.6
				c-10.3,4.8-15.3,13.3-16.5,24.2c-1.7,16.1,2.1,31.2,9.8,45.2c4,7.3,5.1,14.7,3.5,22.8c-0.7,3.3-1.6,4.5-5.2,4.2
				c-9.3-0.8-18.7-0.3-27.9,1.4c-4.2,0.8-7.5,2.6-9.8,6.5c-4.3,7.3-8.9,14.3-14.2,20.8c-2,2.4-3.7,5.4-2.7,8.3
				c1.5,4.8-0.7,6.9-3.8,8.8c-0.6,0.3-1.2,0.7-1.8,1c-1.5,0.8-2.8,1.9-4.3,2.7c-8,4.2-12.3,11.1-14.4,19.7
				c-2.5,10.3-3.8,20.7-4.3,31.2C80.1,303.7,79.9,317,80.4,330.2z M263.6,413.7c-0.6,2.2-1.2,3.9-3.6,1.1c-1.3-1.6-3.5-1.6-5.5-1.6
				c-19.7,0.5-39.4-0.8-59.1-0.6c-1.1,0-2.8,0.5-2.9-1.1c-0.2-1.7,1.5-1.9,2.8-2.1c0.9-0.1,1.8-0.1,2.8,0
				c17.6,1.1,35.2,0.3,52.8,0.7c4.6,0.1,9.1,1.4,13.6-0.2C264.8,411.7,263.9,412.6,263.6,413.7z M276.1,383.4
				c-0.3-0.2-0.7-0.3-0.9-0.5c-1.5-1.9-3-3.8-4.3-5.8C273.8,378.1,275.5,380.2,276.1,383.4z M308,323.7c1.6-4.2,4.2-5.4,8.5-5.3
				c16.2,0.2,32.4,0.1,48.6,0.1l50.1,1.8c3.8,0,5.2,2.4,3.7,6.6c-3,8.4-6.2,16.8-9.3,25.2c-6.8,18.2-13.5,36.5-20.3,54.8
				c-3,8.2-3.9,8.4-12.5,8.5c-13.6,0.1-27.1,0.7-40.6,1.1c-3.6,0.1-7.1,0.2-10.6,0.3c-17.1,0.5-34.2,1-51.3,1.5
				c-4.4,0.1-5.2-0.8-3.5-4.8c5.6-13.5,11.2-26.9,16.8-40.4c4.2-10.1,8.4-20.1,12.6-30.2C302.8,336.4,305.6,330.1,308,323.7z
				 M241.6,104.5c-3.7,3.7-8.7,3.9-13.6,4.5c-0.5,0-1.2,0-1.8-0.1c-1.1-0.2-2.1-0.7-2-2c0.1-1.3,1.1-1.6,2.3-1.6
				c4.8,0.2,9.4-0.6,13.4-3.6c0.8-0.6,1.7-0.8,2.4,0.1C243.2,103,242.3,103.8,241.6,104.5z M168.2,204.4c4.8-10.4,6.5-21.3,5.9-32.7
				c-0.1-2.4,0.4-3.5,2.9-2.7c0.7,0.2,1.6,0.1,2.3,0.1c2-0.1,3.9-0.5,3.5-3.1c-0.3-2.4-2.1-1.8-3.7-1.4c-2.5,0.7-4.6-0.3-6.1-2
				c-5-5.3-8.4-11.4-8.4-19c0-3.1,1.2-5.7,4.2-7c3.1-1.4,5.7,0,7.9,2c2.6,2.4,4.1,5.4,4.7,8.9c0.7,3.9,5.9,6.8,9.7,5.7
				c1.5-0.4,1.6-1.6,1.7-2.8c0.2-6.3,2.7-11.3,7.9-15.1c3.6-2.6,4.8-6.5,3.6-10.9c-0.9-3.4-2-6.8-2.6-10.3c-0.7-3.8,0.8-5.2,4.6-4.4
				c8.9,1.7,17.8,3.5,26.7,5.3c3.1,0.6,6.4,1.2,9.4,0.4c3.8-1,4.6,0.8,5.8,3.8c2.6,6.4,1.4,13,1.6,19.5c0.1,1.9-1.2,2-2.6,2.1
				c-2,0.1-4,0.3-5.7,1.4c-0.9,0.6-1.8,1.3-1.3,2.6c0.4,1,1.4,1.1,2.4,0.9c0.9-0.1,1.8-0.4,2.7-0.5c1.1-0.1,3-1.1,2.7,1.3
				c-0.2,1.3,0.2,3.9-2.8,3c-2.8-0.8-5,1.2-7.4,2c-1.5,0.5-1.3,2.1-1.2,3.5c0.2,3.6,1.3,7,2.3,10.4c1.2,3.8,0.6,4.8-3.2,5.4
				c-1.2,0.2-3.2-0.5-3,1.5c0.2,1.7,2.2,1.1,3.3,1.1c4.8,0.1,6.9-2.7,5.7-7.4c-1-4-3.1-7.8-2.7-13.3c2,2.7,3.2,4.3,5.8,4
				c2.3-0.3,1.2,1.8,1.2,2.8c-0.6,10.3-3.8,19.8-8.7,28.9c-1.4,2.7-2.7,5.4-3.7,8.3c-1.7,5-3.7,6.3-9,6.3c-6.2,0-11.9-2-17.4-4.6
				c-6.1-2.9-12-6-16.9-10.7c-0.7-0.7-1.4-1.9-2.6-1.2c-1.5,0.9-0.8,2.4-0.4,3.5c3.5,8.5,9.7,14.6,17,19.8c1.7,1.2,3.5,2.6,5.5,3.1
				c4.9,1.2,5.8,4.2,5.4,8.7c-0.3,3.6,0.4,7.4,0.4,11c0,4.6-2.2,6-6.2,3.6c-11-6.7-21.4-14.4-32-21.7c-2.8-2-5.6-4-8.4-5.8
				C167.6,207.3,167.4,206.2,168.2,204.4z"/>
			<path d="M196.4,250.4c5.3,14.6,7.8,29.7,8.6,45.1c0,1.8-0.1,3.7,0,5.5c0.1,1.7,1,2.7,2.8,2.6c1.9-0.1,3-1.3,2.5-3.2
				c-0.5-2.1-0.7-4.1-0.8-6.2c-0.6-17-4.5-33.3-9.8-49.4c-0.7-2.1-2-2.9-3.9-2.2c-2,0.7-2.2,2.4-1.3,4.2
				C195.2,248.1,196,249.2,196.4,250.4z"/>
			<path d="M345.5,373c0.1,3.3,2.9,5.9,6.2,5.8c4.3-0.1,9.3-5.4,9.3-9.7c-0.1-3.5-2.9-6.3-6.3-6.2C350.1,363,345.3,368.3,345.5,373z
				 M349.5,372.3c0.5-2.7,2.2-4.4,4.9-4.8c1.6-0.2,2.3,0.8,2.4,2.6c-0.7,2.4-2.4,4.1-5.1,4.6C350.2,374.9,349.2,373.9,349.5,372.3z"
				/>
			<path d="M211.7,142.6c4.9-1,9.6-0.4,14.2,1.4c1.2,0.5,2.4,0.1,2.8-1.4c0.3-1.4-0.6-2.2-1.8-2.6c-2.9-1-5.8-1.8-9.2-1.8
				c-2.1,0.1-4.6,0.3-6.8,1.5c-0.7,0.4-1.3,1-1,1.9C210.1,142.5,210.9,142.7,211.7,142.6z"/>
			<path d="M216.3,176.1c-1.2,1.4-0.1,2.7,1.1,3.7c3.7,3,8,4.3,13,4.5c1.6-0.3,4.5,0.6,4.5-2.1c0-2.6-2.8-1.6-4.5-1.6
				c-4,0-7.8-0.7-11-3.4C218.5,176.3,217.6,174.5,216.3,176.1z"/>
			<path d="M217.7,153.4c0.7,1.5,2.6,1.5,3.8,0.7c1.4-1,3.8-1.4,3.9-3.3c0.1-1.6-1.8-2.5-3.3-3c-3.7-1.4-6.7,0.6-9.7,2.6
				C214.6,151.1,216.6,151.2,217.7,153.4z"/>
			<path d="M177.4,149.1c-0.1-0.6,0-1.6-0.4-2.4c-0.5-1.2-1.7-1.5-3-1.4c-0.9,0.1-1.9,0.8-1.6,1.3c1.7,3.1,0.5,7.2,3.3,9.9
				c0.8,0.8,1.8,1.3,2.8,0.5c0.9-0.7,0.7-1.7,0.1-2.5C177.6,153,176.9,151.3,177.4,149.1z"/>
		</g>
	</g>
	<g>
		<path class="st3" d="M462.1,63.9c2.9,0,5.6-2.7,5.6-5.6c0-2.9-2.7-5.6-5.6-5.5c-3,0-5.6,2.7-5.6,5.6
			C456.5,61.2,459.2,63.9,462.1,63.9z"/>
		<path class="st3" d="M514.7,84.7c-2.9,0-5.6,2.7-5.6,5.6c0,2.8,2.5,5.4,5.4,5.5c2.9,0.1,5.6-2.6,5.7-5.5
			C520.2,87.3,517.6,84.6,514.7,84.7z"/>
		<path class="st3" d="M451.3,143.3c-2.7,0-5.4,2.8-5.4,5.6c0,2.9,2.7,5.6,5.6,5.5c2.9,0,5.5-2.5,5.5-5.4
			C457.1,146,454.4,143.3,451.3,143.3z"/>
		<path class="st3" d="M381.3,186.2c3.9,0,7.3-3.3,7.4-7.2c0-3.8-3.3-7.1-7.2-7.2c-4,0-7.3,3.2-7.3,7.2
			C374.2,182.9,377.4,186.2,381.3,186.2z"/>
		<path class="st3" d="M427.4,121.5c2.9,0,5.5-2.7,5.5-5.6c0-2.9-2.4-5.4-5.4-5.5c-3-0.1-5.6,2.4-5.7,5.3
			C421.7,118.8,424.3,121.5,427.4,121.5z"/>
		<path class="st3" d="M493.7,174c1.4,0.1,1.8-0.5,1.8-1.8c-0.1-3.7-0.1-7.3,0-11c0-1.4-0.4-1.8-1.8-1.8c-3.7,0.1-7.5,0.1-11.2,0
			c-1.2,0-1.8,0.4-1.8,1.7c0,3.8,0,7.6,0,11.4c0,1.2,0.5,1.6,1.6,1.5c1.9-0.1,3.9,0,5.8,0C489.9,174,491.8,173.9,493.7,174z"/>
		<path class="st3" d="M521.3,234.2c2.4,0.1,4.7-2.1,4.7-4.6c0-2.4-2.1-4.5-4.5-4.5c-2.5,0-4.7,2.1-4.7,4.6
			C516.8,232.1,518.8,234.1,521.3,234.2z"/>
		<path class="st6" d="M544.7,149c0-1.6-0.1-3.2,0-4.8c0-1.1-0.3-1.5-1.4-1.5c-3.1,0-6.2,0.1-9.3,0c-1.3,0-1.5,0.5-1.5,1.6
			c0.1,1.7,0,3.3,0,5c0,1.8-0.9,2.7-2.7,2.6c-1.7,0-3.5,0-5.2,0c-0.7,0-1.1,0.1-1.2,1c-0.6,3.8-0.1,4.5,3.7,4.5c0.5,0,1,0,1.5,0
			c2.4,0,2.9,0.5,2.9,2.9c0,4.4,0,8.7,0,13.1c0,3-0.3,3.3-3.4,3.3c-5.2,0-5.2,0-4.9,5.3c0.1,1.1,0.4,1.5,1.5,1.5c1.7,0,3.5,0,5.2,0
			c1.7,0,2.5,0.9,2.5,2.6c0,1.5,0.1,2.9,0,4.4c-0.1,1.1,0.3,1.6,1.5,1.6c3-0.1,6-0.1,8.9,0c1.1,0,1.5-0.4,1.4-1.5
			c-0.1-1.5,0-3,0-4.6c0-1.7,0.9-2.6,2.6-2.5c1.4,0,2.8-0.1,4.1,0c1.5,0.1,1.9-0.4,1.9-1.9c-0.1-4.8,0-9.5,0-14.3c0,0,0,0-0.1,0
			c0-4.8,0-9.7,0-14.5c0-1.3-0.4-1.7-1.6-1.7c-1.3,0.1-2.6,0-3.9,0C545.4,151.2,544.7,150.4,544.7,149z"/>
		<path class="st6" d="M520.6,178.2c-0.1-1.1-0.4-1.5-1.4-1.5c-1.5,0-3,0-4.6,0c-1.8,0-2.5-0.8-2.5-2.5c0-1.2-0.1-2.5,0-3.7
			c0.3-2.1-0.6-2.6-2.5-2.5c-2.1,0.1-4.1,0-6.2,0c-5.2,0-5.2,0-5.2,5.1c0,3.4-0.3,3.7-3.7,3.7c-5.5,0-5.4,0-5.2,5.5
			c0,1.3,0.5,1.7,1.7,1.6c1.4-0.1,2.8,0,4.1,0c1.6-0.1,2.3,0.8,2.3,2.3c0,1,0.1,2.1,0,3.1c-0.2,1.8,0.6,2.3,2.2,2.1
			c1.6-0.1,3.2,0,4.8,0c0,0,0,0,0,0c1,0,2.1,0,3.1,0c4.2,0,4.2,0,4.2-4.1c0-3.5,0.3-3.8,3.7-3.8
			C520.9,183.5,520.8,183.5,520.6,178.2z"/>
		<path class="st3" d="M522.2,149.2c1.9,0,3.9,0,5.8,0c1.1,0,1.7-0.3,1.6-1.5c-0.1-3.8-0.1-7.6,0-11.4c0-1.2-0.4-1.6-1.6-1.6
			c-3.9,0-7.9,0-11.8-0.1c-1,0-1.5,0.4-1.5,1.5c0,3.9,0,7.7,0,11.6c0,1,0.4,1.5,1.5,1.5C518.2,149.2,520.2,149.2,522.2,149.2
			C522.2,149.2,522.2,149.2,522.2,149.2z"/>
		<path class="st3" d="M546.7,187.9c0,3.7,0,7.5,0,11.2c0,1.3,0.5,1.7,1.7,1.7c1.9-0.1,3.7,0,5.6,0c0,0,0,0.1,0,0.1
			c1.8,0,3.6-0.1,5.4,0c1.6,0.1,2.2-0.4,2.2-2.1c-0.1-3.5-0.1-7.1,0-10.6c0-1.4-0.4-2-1.9-2c-3.7,0.1-7.5,0.1-11.2,0
			C547.3,186.2,546.7,186.6,546.7,187.9z"/>
		<path class="st3" d="M529.3,193.3C529.3,193.3,529.3,193.3,529.3,193.3c0-1.8-0.1-3.6,0-5.4c0.1-1.2-0.4-1.7-1.6-1.7
			c-3.8,0.1-7.6,0.1-11.4,0c-1.1,0-1.6,0.3-1.6,1.5c0,3.8,0,7.6,0,11.4c0,1.2,0.4,1.6,1.6,1.6c3.9,0,7.8,0,11.6,0
			c1.2,0,1.6-0.5,1.5-1.6C529.3,197.2,529.3,195.3,529.3,193.3z"/>
		<path class="st3" d="M531.9,53.1c1.7,0,3.1-1.3,3-2.7c-0.1-1.5-1.1-2.4-2.6-2.5c-1.5-0.2-2.9,1.2-2.9,2.6
			C529.5,52.1,530.5,52.9,531.9,53.1z"/>
		<path class="st3" d="M468.3,313.3c0-5.3,0-10.7,0-16c0-1.2-0.4-1.7-1.7-1.7c-2.7,0.1-5.4,0-8.1,0c0,0,0,0,0,0
			c-2.7,0-5.4,0.1-8.1,0c-1.4,0-1.8,0.5-1.8,1.8c0.1,5.3,0,10.5,0,15.8c0,1.2,0.3,1.8,1.7,1.7c5.5-0.1,10.9-0.1,16.4,0
			C467.9,314.9,468.3,314.4,468.3,313.3z"/>
		<path class="st3" d="M484.8,288.2C484.8,288.2,484.8,288.2,484.8,288.2c0,4.2,0,8.4,0,12.7c0,0.9,0.1,1.6,1.3,1.6
			c2.3-0.1,4.7-0.1,7.1,0c0.9,0,1.2-0.3,1.2-1.2c0-1.6,0-3.2,0-4.8c0-1.9,0.9-2.8,2.8-2.8c1.9,0,3.9,0,5.8,0c1.1,0,1.5-0.3,1.5-1.4
			c-0.1-2.6-0.1-5.3,0-7.9c0-1.1-0.4-1.4-1.5-1.4c-2.1,0-4.1,0-6.2,0c-1.6,0-2.4-0.8-2.4-2.4c0-1.7-0.1-3.3,0-5
			c0.1-1.2-0.3-1.6-1.5-1.6c-2.1,0.1-4.2,0.1-6.2,0c-1.4-0.1-1.8,0.4-1.8,1.8C484.9,279.9,484.8,284.1,484.8,288.2z"/>
		<path class="st3" d="M477.8,234.2c2.4,0.1,4.6-2,4.6-4.4c0.1-2.5-2.1-4.6-4.6-4.6c-2.4,0-4.5,2.1-4.5,4.5
			C473.3,232,475.4,234.1,477.8,234.2z"/>
		<path class="st3" d="M514.2,311.3c-0.1-4.4-0.1-8.9,0-13.3c0-1.4-0.5-1.8-1.8-1.8c-2.2,0.1-4.4,0-6.6,0c0,0,0,0,0,0
			c-2.3,0-4.6,0.1-6.8,0c-1.3,0-1.9,0.3-1.9,1.7c0.1,4.5,0.1,9,0,13.5c0,1.3,0.5,1.7,1.7,1.7c4.6,0,9.1,0,13.7,0
			C513.7,313.2,514.2,312.7,514.2,311.3z"/>
		<path class="st6" d="M506.4,321.7c-0.1,1.5,0.5,1.9,1.9,1.9c6.2-0.1,12.5,0,18.7,0c0,0,0,0,0,0c5,0,10,0,14.9,0
			c5.9,0,5.8,0,5.7-5.9c0-1.4-0.6-1.7-1.8-1.7c-1.8,0.1-3.6,0-5.4,0c-3,0-3.4-0.4-3.4-3.3c0-2.1-0.1-4.3,0-6.4
			c0-1.1-0.4-1.4-1.5-1.4c-2.5,0.1-5-0.1-7.5,0c-2,0.1-2.5-0.5-2.5-2.5c0.1-8.9,0-17.7,0.1-26.6c0-1.4-0.3-2-1.8-1.9
			c-1.5,0.1-3,0.1-4.6,0c-1.5-0.1-1.9,0.5-1.8,1.9c0.1,1.5,0,3,0,4.6c0,1.7-0.8,2.6-2.6,2.5c-2.1-0.1-4.2,0-6.2,0
			c-1,0-1.5,0.3-1.5,1.4c0.1,2.6,0.1,5.3,0,7.9c0,1.2,0.5,1.5,1.6,1.5c1.9-0.1,3.7,0,5.6,0c1.6,0,2.5,0.7,2.5,2.4
			c0,5.7,0,11.5,0,17.2c0,1.7-0.9,2.5-2.6,2.5c-0.7,0-1.4,0-2.1,0c-1.8,0.1-4.3-0.8-5.4,0.4C505.5,317.4,506.5,319.8,506.4,321.7z"
			/>
		<path class="st6" d="M502.4,315.7c-1.7,0-3.5,0-5.2,0c-1.9,0-2.8-0.9-2.8-2.8c0-2.1-0.1-4.3,0-6.4c0-1.3-0.4-1.7-1.7-1.7
			c-2.7,0.1-5.4-0.1-8.1,0.1c-2.1,0.2-2.5-0.6-2.5-2.6c0.1-8.7,0-17.3,0.1-26c0-2.1-0.6-2.6-2.6-2.5c-2.4,0.1-4.8,0.1-7.3,0
			c-1.7-0.1-2.4,0.4-2.2,2.2c0.1,1.4,0,2.9,0,4.4c0,1.6-0.7,2.5-2.4,2.5c-6.1,0-12.2,0-18.3,0c-1.7,0-2.3-0.9-2.3-2.5
			c0-1.7-0.1-3.3,0-5c0-1.1-0.3-1.6-1.5-1.6c-4.6,0.1-9.3,0.1-13.9,0.1c-1.3,0-1.6,0.5-1.6,1.7c0.1,7.8,0.1,15.5,0,23.3
			c0,1.4,0.6,1.6,1.7,1.6c3,0,6.1,0,9.1,0c4.9,0,4.9,0,5-4.8c0.1-2.1,0.8-2.9,2.9-2.9c6.4,0,12.9,0,19.3,0c1.7,0,2.6,1,2.6,2.6
			c0,6.4,0,12.7,0,19.1c0,1.8-1,2.8-2.9,2.8c-1.2,0-2.5,0-3.7,0c-4.2,0-4.1,0-4.2,4.1c0,1.7,0.5,2.1,2.1,2.1c6.6-0.1,13.2,0,19.7,0
			c5.4,0,10.8,0,16.2,0c6.4,0,6.4,0,5.7-6.5C503.7,316.1,503.4,315.7,502.4,315.7z"/>
		<path class="st3" d="M436,229.6c0-2.3-2.2-4.4-4.6-4.5c-2.4-0.1-4.5,2-4.5,4.5c0,2.5,1.9,4.5,4.4,4.6
			C433.8,234.3,436.1,232,436,229.6z"/>
		<path class="st3" d="M386.1,225.1c-2.3,0.1-4.4,2.2-4.4,4.5c0,2.4,2.3,4.7,4.7,4.6c2.4-0.1,4.5-2.2,4.5-4.6
			C390.9,227.1,388.6,225,386.1,225.1z"/>
		<path class="st3" d="M342.4,225.1c-2.4,0-4.6,2-4.7,4.3c-0.1,2.4,2.1,4.7,4.5,4.7c2.4,0.1,4.7-2.1,4.7-4.6
			C346.9,227.2,344.9,225.1,342.4,225.1z"/>
		<path d="M503.7,332c0,1.1,0,2.1,0.1,3.2c0,0.8-0.3,1.8,1.2,1.8c1.6,0,1.4-1,1.4-1.9c0-1,0-2.1,0-3.1H503.7z"/>
		<path d="M506.4,329.1c0-2.7,0-2.7,2.6-2.7c6.4,0,12.9,0,19.3,0c0,0,0,0,0,0c6.7,0,13.4,0,20.2,0c1.4,0,1.8-0.4,1.8-1.8
			c-0.1-2,0.1-4,0-6c-0.2-1.9,0.3-2.8,2.4-2.5c1.5,0.2,3,0,4.6,0c1.7,0,2.6-0.8,2.6-2.5c0-6.1,0-12.2,0-18.3c0-1.4-0.7-2.2-2.2-2.2
			c-6.1,0-12.2,0-18.3,0c-1.6,0-2.4,0.8-2.4,2.5c0,1.8,0,3.6,0,5.4c0,1.1-0.4,1.5-1.5,1.4c-1.8-0.1-3.6-0.1-5.4,0
			c-1.5,0.1-1.9-0.5-1.9-1.9c0.1-6.6,0-13.2,0-19.7c0-2.2-1-5.1,0.5-6.4c1.4-1.2,4.2-0.3,6.4-0.4c1.2-0.1,1.8,0.3,1.7,1.6
			c-0.1,1.5,0,3,0,4.6c0,2.3,0.5,2.8,2.8,2.8c5.7,0,11.4,0,17,0c2.4,0,3-0.6,3-2.9c0-6,0.1-11.9,0-17.9c0-2.2-0.7-2.9-2.8-2.9
			c-5.7,0-11.4,0-17,0c-2.4,0-3.1,0.7-3.1,3.1c0,2.3,0,4.6,0.1,6.9c0,1.3-0.3,1.8-1.7,1.8c-5.4,0-10.8,0-16.2,0.1
			c-1.3,0-1.7-0.5-1.6-1.7c0.1-2.4,0.1-4.7,0.1-7.1c0-2.3-0.7-3-2.9-3c-5.7,0-11.4,0-17,0c-2.6,0-3.2,0.7-3.2,3.2c0,2.4,0,4.7,0,7.1
			c0,1.1-0.3,1.6-1.5,1.6c-7-0.1-14-0.1-21,0c-1.1,0-1.6-0.4-1.5-1.6c0.1-2.5,0-5,0.1-7.5c0-1.9-0.9-2.8-2.8-2.8
			c-5.8,0-11.6,0-17.5,0c-2.3,0-2.9,0.8-2.9,3.1c0,2.3,0,4.6,0.1,6.9c0.1,1.5-0.5,1.9-1.9,1.9c-5.3-0.1-10.5,0.1-15.8,0
			c-1.8,0-2.2,0.6-2.2,2.2c0.1,9.3,0.1,18.6,0,27.8c0,1.5,0.4,2,1.9,2c4.9-0.1,9.8,0.1,14.7,0c1.7,0,2.1,0.5,2,2.1c-0.1,3,0,6,0,8.9
			c0,2.4,0.8,3.2,3.3,3.2c1,0,2.1,0,3.1,0c4.9,0,4.9,0,4.9,4.8c0,4.1,0,4.1,4.2,4.1c13.3,0,26.6,0,39.9,0c1.7,0,2.3,0.5,2.2,2.2
			c-0.1,1.2-0.1,2.3-0.1,3.5h2.7C506.4,331,506.4,330,506.4,329.1z M486.5,274c2.1,0.1,4.1,0,6.2,0c1.2,0,1.6,0.4,1.5,1.6
			c-0.1,1.7,0,3.3,0,5c0,1.6,0.8,2.4,2.4,2.4c2.1,0,4.1,0,6.2,0c1,0,1.5,0.3,1.5,1.4c0,2.6,0,5.3,0,7.9c0,1.1-0.4,1.5-1.5,1.4
			c-1.9,0-3.9,0-5.8,0c-1.9,0-2.8,0.8-2.8,2.8c0,1.6,0,3.2,0,4.8c0,0.9-0.3,1.2-1.2,1.2c-2.4,0-4.7,0-7.1,0c-1.2,0-1.3-0.6-1.3-1.6
			c0-4.2,0-8.4,0-12.7c0,0,0,0,0,0c0-4.1,0-8.3,0-12.4C484.8,274.4,485.2,273.9,486.5,274z M450.3,314.9c-1.3,0-1.7-0.6-1.7-1.7
			c0-5.3,0-10.5,0-15.8c0-1.3,0.4-1.9,1.8-1.8c2.7,0.1,5.4,0,8.1,0c0,0,0,0,0,0c2.7,0,5.4,0,8.1,0c1.3,0,1.7,0.5,1.7,1.7
			c0,5.3,0,10.7,0,16c0,1.1-0.3,1.6-1.5,1.6C461.2,314.8,455.8,314.8,450.3,314.9z M498.1,323.6c-5.4,0-10.8,0-16.2,0
			c-6.6,0-13.2-0.1-19.7,0c-1.6,0-2.1-0.4-2.1-2.1c0.1-4.1,0-4.1,4.2-4.1c1.2,0,2.5,0,3.7,0c1.9,0,2.9-1,2.9-2.8
			c0.1-6.4,0.1-12.7,0-19.1c0-1.6-0.9-2.6-2.6-2.6c-6.4,0-12.9,0-19.3,0c-2.1,0-2.8,0.9-2.9,2.9c-0.2,4.8-0.2,4.8-5,4.8
			c-3,0-6.1-0.1-9.1,0c-1.2,0-1.7-0.2-1.7-1.6c0.1-7.8,0.1-15.5,0-23.3c0-1.2,0.3-1.7,1.6-1.7c4.6,0,9.3,0,13.9-0.1
			c1.2,0,1.5,0.5,1.5,1.6c-0.1,1.7,0,3.3,0,5c0,1.6,0.7,2.5,2.3,2.5c6.1,0,12.2,0,18.3,0c1.6,0,2.4-0.9,2.4-2.5c0-1.5,0.1-2.9,0-4.4
			c-0.2-1.8,0.6-2.3,2.2-2.2c2.4,0.1,4.9,0.2,7.3,0c1.9-0.1,2.6,0.4,2.6,2.5c-0.1,8.7,0,17.3-0.1,26c0,1.9,0.4,2.7,2.5,2.6
			c2.7-0.2,5.4,0,8.1-0.1c1.3,0,1.7,0.4,1.7,1.7c-0.1,2.1,0,4.3,0,6.4c0,1.9,0.9,2.8,2.8,2.8c1.7,0,3.5,0,5.2,0c1,0,1.3,0.4,1.4,1.3
			C504.5,323.6,504.5,323.6,498.1,323.6z M498.7,313.1c-1.2,0-1.7-0.4-1.7-1.7c0-4.5,0.1-9,0-13.5c0-1.4,0.6-1.7,1.9-1.7
			c2.3,0.1,4.6,0,6.8,0c0,0,0,0,0,0c2.2,0,4.4,0,6.6,0c1.3,0,1.8,0.4,1.8,1.8c-0.1,4.4,0,8.9,0,13.3c0,1.4-0.5,1.8-1.8,1.8
			C507.8,313.1,503.3,313.1,498.7,313.1z M506.7,316.1c1.1-1.2,3.5-0.2,5.4-0.4c0.7-0.1,1.4,0,2.1,0c1.7,0,2.6-0.8,2.6-2.5
			c0-5.7,0-11.5,0-17.2c0-1.6-0.9-2.4-2.5-2.4c-1.9,0-3.7,0-5.6,0c-1.1,0-1.7-0.2-1.6-1.5c0.1-2.6,0.1-5.3,0-7.9
			c0-1.1,0.5-1.4,1.5-1.4c2.1,0.1,4.2,0,6.2,0c1.8,0,2.5-0.8,2.6-2.5c0-1.5,0.1-3,0-4.6c-0.1-1.4,0.3-2,1.8-1.9
			c1.5,0.1,3.1,0.1,4.6,0c1.5-0.1,1.8,0.4,1.8,1.9c-0.1,8.9,0,17.7-0.1,26.6c0,2,0.5,2.7,2.5,2.5c2.5-0.2,5,0,7.5,0
			c1.1,0,1.5,0.3,1.5,1.4c0,2.1,0,4.3,0,6.4c0,2.9,0.4,3.3,3.4,3.3c1.8,0,3.6,0.1,5.4,0c1.3,0,1.8,0.3,1.8,1.7
			c0.1,5.9,0.2,5.9-5.7,5.9c-5,0-10,0-14.9,0c0,0,0,0,0,0c-6.2,0-12.5,0-18.7,0c-1.4,0-2-0.4-1.9-1.9
			C506.5,319.8,505.5,317.4,506.7,316.1z"/>
		<path d="M544.6,134.3c0,1.5-0.1,2.9,0,4.4c0.1,1.2-0.4,1.6-1.5,1.5c-2.1,0-4.2,0-6.2,0.1c-4.4,0-4.4,0-4.4-4.3c0-0.3,0-0.7,0-1
			c-0.1-2.3-0.7-3-3-3c-4.8,0-9.7,0-14.5,0c-2.3,0-2.9,0.6-2.9,2.8c0,4.1,0,8.2,0,12.3c0,4.9,0,4.9,5,4.9c3.9,0,3.9,0,3.7,3.9
			c0,1.1-0.3,1.6-1.5,1.6c-1.6-0.1-3.2,0-4.8,0c-1.5,0-2.3,0.7-2.3,2.3c0,1.5,0,2.9,0,4.4c0,0.9-0.2,1.4-1.3,1.4
			c-3.8,0-7.6,0-11.4,0.1c-1,0-1.4-0.4-1.3-1.4c0.1-1.6,0-3.2,0-4.8c0-1.8-0.9-2.7-2.7-2.7c-5,0-10,0-15,0c-1.7,0-2.7,0.8-2.7,2.5
			c0,5.1,0,10.2,0,15.4c0,1.6,1,2.3,2.6,2.3c1.7,0,3.3,0,5,0c0.5,0,1.2-0.1,1.2,0.5c0.1,2.1,0.4,4.2-0.1,6.2
			c-0.3,1.1-2.2,0.3-3.4,0.5c-0.8,0.1-1.7,0.1-2.5,0c-1.8,0-2.6,0.9-2.6,2.7c0,4.6,0,9.3,0,13.9c0,1.7,0.7,2.6,2.5,2.6
			c4.8,0,9.7,0,14.5,0c1.7,0,2.4-0.7,2.4-2.4c0-1.8,0-3.6,0-5.4c0-0.9,0.3-1.4,1.3-1.4c3.9,0,7.8,0,11.6,0c1.1,0,1.4,0.5,1.4,1.5
			c-0.1,1.8,0,3.6,0,5.4c0,1.7,0.7,2.6,2.4,2.6c5.2,0,10.4,0,15.6,0c1.5,0,2.3-0.8,2.3-2.3c0-1.7,0.1-3.5,0-5.2
			c0-0.9,0.3-1.4,1.3-1.4c3,0,6.1,0.1,9.1,0c1.2,0,1.4,0.5,1.4,1.5c0,1.7,0,3.3,0,5c0,1.4,0.7,2.4,2.3,2.4c5.3,0,10.7,0,16,0
			c1.3,0,2.1-0.8,2.1-2c0-5.3,0-10.5,0-15.8c0-1.5-0.9-2.2-2.4-2.2c-1.5,0-3.1-0.1-4.6,0c-1.7,0.1-2.4-0.4-2.4-2.3
			c0.2-4.6,0-9.1,0-13.7c0,0,0,0,0,0c0-4.9,0-9.8,0-14.7c0-1.3,0.4-1.7,1.6-1.7c1.7,0.1,3.3,0,5,0c1.5,0,2.2-0.7,2.2-2.1
			c0-5,0-10,0-15c0-1.3-0.7-2-2.1-2c-5,0-10,0-15,0C545.3,132.1,544.6,132.8,544.6,134.3z M516.2,149.2c-1.1,0-1.5-0.4-1.5-1.5
			c0-3.9,0-7.7,0-11.6c0-1.1,0.4-1.5,1.5-1.5c3.9,0,7.9,0.1,11.8,0.1c1.1,0,1.6,0.4,1.6,1.6c0,3.8,0,7.6,0,11.4
			c0,1.2-0.5,1.6-1.6,1.5c-1.9,0-3.9,0-5.8,0c0,0,0,0,0,0C520.2,149.2,518.2,149.2,516.2,149.2z M482.3,174c-1.1,0-1.6-0.4-1.6-1.5
			c0-3.8,0.1-7.6,0-11.4c0-1.3,0.5-1.7,1.8-1.7c3.7,0,7.5,0.1,11.2,0c1.4,0,1.8,0.5,1.8,1.8c-0.1,3.7,0,7.3,0,11
			c0,1.3-0.4,1.9-1.8,1.8c-1.9-0.1-3.7,0-5.6,0C486.1,174,484.2,174,482.3,174z M511.8,187.4c0,4.1,0,4.1-4.2,4.1c-1,0-2.1,0-3.1,0
			c0,0,0,0,0,0c-1.6,0-3.2-0.1-4.8,0c-1.7,0.1-2.5-0.3-2.2-2.1c0.1-1,0.1-2.1,0-3.1c-0.1-1.5-0.7-2.3-2.3-2.3c-1.4,0-2.8-0.1-4.1,0
			c-1.2,0.1-1.7-0.3-1.7-1.6c-0.2-5.5-0.3-5.5,5.2-5.5c3.4,0,3.7-0.3,3.7-3.7c0-5.2,0-5.2,5.2-5.1c2.1,0,4.2,0.1,6.2,0
			c1.9-0.1,2.8,0.4,2.5,2.5c-0.2,1.2,0,2.5,0,3.7c-0.1,1.7,0.7,2.6,2.5,2.5c1.5,0,3,0.1,4.6,0c1.1,0,1.4,0.4,1.4,1.5
			c0.3,5.3,0.3,5.3-5.1,5.3C512.1,183.5,511.8,183.8,511.8,187.4z M527.8,200.8c-3.9,0-7.8,0-11.6,0c-1.1,0-1.6-0.4-1.6-1.6
			c0.1-3.8,0.1-7.6,0-11.4c0-1.2,0.5-1.5,1.6-1.5c3.8,0,7.6,0,11.4,0c1.3,0,1.7,0.5,1.6,1.7c-0.1,1.8,0,3.6,0,5.4c0,0,0,0,0,0
			c0,1.9,0,3.9,0,5.8C529.3,200.3,529,200.8,527.8,200.8z M559.7,186.2c1.4,0,1.9,0.6,1.9,2c-0.1,3.5-0.1,7.1,0,10.6
			c0.1,1.7-0.6,2.2-2.2,2.1c-1.8-0.1-3.6,0-5.4,0c0,0,0-0.1,0-0.1c-1.9,0-3.7,0-5.6,0c-1.2,0-1.7-0.4-1.7-1.7
			c0.1-3.7,0.1-7.5,0-11.2c0-1.3,0.5-1.7,1.7-1.7C552.2,186.3,555.9,186.3,559.7,186.2z M550.8,151.1c1.3-0.1,1.7,0.4,1.6,1.7
			c-0.1,4.8,0,9.7,0,14.5c0,0,0,0,0.1,0c0,4.8,0,9.5,0,14.3c0,1.4-0.4,2-1.9,1.9c-1.4-0.1-2.8,0-4.1,0c-1.7,0-2.5,0.9-2.6,2.5
			c0,1.5-0.1,3,0,4.6c0,1.1-0.3,1.5-1.4,1.5c-3,0-6,0-8.9,0c-1.2,0-1.6-0.5-1.5-1.6c0.1-1.4,0-2.9,0-4.4c0-1.7-0.8-2.6-2.5-2.6
			c-1.7,0-3.5-0.1-5.2,0c-1.1,0-1.4-0.4-1.5-1.5c-0.3-5.3-0.3-5.3,4.9-5.3c3,0,3.4-0.4,3.4-3.3c0-4.4,0-8.7,0-13.1
			c0-2.4-0.5-2.9-2.9-2.9c-0.5,0-1,0-1.5,0c-3.8,0-4.3-0.7-3.7-4.5c0.1-0.8,0.5-1,1.2-1c1.7,0,3.5,0,5.2,0c1.8,0.1,2.7-0.9,2.7-2.6
			c0-1.7,0.1-3.3,0-5c0-1.1,0.2-1.6,1.5-1.6c3.1,0.1,6.2,0.1,9.3,0c1.1,0,1.5,0.4,1.4,1.5c-0.1,1.6,0,3.2,0,4.8
			c0,1.4,0.7,2.2,2.2,2.2C548.2,151.1,549.5,151.2,550.8,151.1z"/>
		<path d="M438.3,232.7c0.5-1.1,1.1-1.4,2.2-1.4c9.4,0,18.8,0,28.3,0c1.1,0,1.7,0.2,2.2,1.3c1.4,2.9,3.8,4.4,7,4.4
			c3.1,0,5.4-1.6,6.7-4.5c0.4-0.9,1-1.2,1.9-1.2c8.7,0,17.3,0,26,0c1,0,1.6,0.3,2.1,1.3c1.3,3,3.8,4.4,7,4.3c3-0.1,5.3-1.5,6.6-4.3
			c0.5-1.1,1.2-1.3,2.2-1.3c5.3,0,10.7,0,16,0c0,0,0,0,0,0c5.3,0,10.7,0,16,0c1.1,0,1.9,0,1.8-1.5c-0.2-1.5-1.3-1-2-1
			c-10.4,0-20.8,0-31.2,0c-1.4,0-2-0.3-2.5-1.7c-1-3.1-3.7-5-6.9-5c-3.4,0-6.1,1.8-7.2,5.1c-0.4,1.2-1,1.6-2.2,1.5
			c-8.4,0-16.8,0-25.1,0c-1.1,0-1.6-0.3-2-1.5c-1-3.3-3.7-5.2-6.9-5.3c-3.4,0-6.3,1.8-7.3,5.1c-0.4,1.3-1,1.7-2.3,1.7
			c-9.2-0.1-18.4,0-27.6,0c-1.2,0-1.8-0.3-2.2-1.5c-1.1-3.3-3.8-5.2-7-5.2c-3.4,0-6.2,1.9-7.3,5.4c-0.3,1.1-0.8,1.4-1.9,1.4
			c-8.9,0-17.9,0-26.8,0c-1.1,0-1.7-0.2-2-1.4c-0.9-3.1-3.8-5.2-6.9-5.3c-3.3-0.1-6.3,1.8-7.4,5c-0.5,1.4-1.1,1.8-2.5,1.8
			c-8.2-0.1-16.5,0-24.7,0c-1.4,0-2.2-0.2-2.7-1.8c-1.1-3.2-3.9-5-7.2-5c-3.2,0.1-6.1,1.9-6.9,4.9c-0.5,1.6-1.3,1.8-2.7,1.8
			c-0.8,0-1.9-0.5-1.9,1.1c0,1.5,1,1.3,2,1.4c1.1,0,2.2-0.2,2.9,1.3c1.2,2.9,3.7,4.3,6.8,4.3c3,0,5.3-1.4,6.8-4.1
			c0.6-1.1,1.2-1.6,2.5-1.6c8.5,0,17,0,25.6,0c1.2,0,1.8,0.3,2.4,1.4c3,5.5,10.1,5.7,13.3,0.3c0.8-1.3,1.5-1.7,2.9-1.7
			c8.9,0,17.9,0,26.8-0.1c1,0,1.6,0.3,2,1.3c1.3,3,3.8,4.4,6.9,4.4C434.6,237.1,436.9,235.6,438.3,232.7z M521.4,225.1
			c2.4,0,4.5,2.1,4.5,4.5c0,2.5-2.2,4.7-4.7,4.6c-2.4-0.1-4.5-2.1-4.5-4.5C516.7,227.2,518.9,225.1,521.4,225.1z M477.8,225.1
			c2.6,0.1,4.7,2.2,4.6,4.6c-0.1,2.4-2.3,4.5-4.6,4.4c-2.4-0.1-4.5-2.2-4.5-4.6C473.3,227.2,475.4,225.1,477.8,225.1z M342.2,234.2
			c-2.5-0.1-4.6-2.3-4.5-4.7c0.1-2.3,2.3-4.4,4.7-4.3c2.5,0,4.5,2.1,4.5,4.5C346.9,232,344.6,234.2,342.2,234.2z M386.4,234.2
			c-2.4,0.1-4.7-2.2-4.7-4.6c0-2.3,2.1-4.4,4.4-4.5c2.5-0.1,4.8,2,4.8,4.5C390.9,231.9,388.8,234.1,386.4,234.2z M427,229.6
			c0-2.4,2.1-4.5,4.5-4.5c2.4,0.1,4.6,2.1,4.6,4.5c0,2.4-2.3,4.7-4.7,4.6C428.9,234.1,426.9,232,427,229.6z"/>
		<path d="M366.7,181.1c2,0,3.2,0.4,4,2.5c2,5.3,5.7,9.4,9.7,13.4c0.8,0.8,1.3,0.8,2,0c4-4,7.8-8.3,9.8-13.7
			c0.7-1.9,1.7-2.3,3.5-2.3c11.4,0.1,22.9,0.2,34.3-0.1c9.2-0.2,18-2.1,25.6-7.8c3.7-2.8,6.3-6.4,7.3-11c0.6-3,0.8-5.9-0.2-8.9
			l0-0.1c0,0-0.1-0.2-0.2-0.4c-0.3-0.8-0.6-1.6-1.1-2.4c0,0,0,0,0,0c-0.3-0.6-0.7-1.3-1.1-1.8c0-2.3-1-4.5-2.8-6.3
			c-4.6-4.3-12-2.6-14.4,3.3c-0.5,1.3-1.1,1.8-2.5,1.7c-3.6-0.2-7.2-0.2-10.8-0.3c-9.4-0.2-18.8-0.7-28.1-2.6
			c-4.6-1-9.2-2.1-12.7-5.6c-3-3-4.9-6.5-4-10.8c1.2-5.8,5.4-8.8,10.7-10.5c7-2.2,14.2-1.8,21.4-1.5c1.1,0,1.1,0.7,1.3,1.5
			c1,4.3,4.5,7.2,8.7,7.3c4,0.1,7.7-2.5,8.8-6.6c0.4-1.5,1.1-1.7,2.5-1.7c11.1,0,22.3,0.1,33.4,0c9.8-0.1,19.5,0.4,29.3-0.3
			c5.5-0.4,10.8-1.5,15.5-4.8c4-2.8,6.3-6.4,6.1-11.2l0,0c0,0,0,0,0,0c0-0.4,0-0.7-0.1-1.1c0-0.5-0.1-0.9-0.2-1.2
			c-0.3-1-0.7-1.7-1-2.1c3.1-4.3,2.8-8.8-0.7-12c-3.7-3.4-8.9-3-13,1c-0.5,0.5-0.9,0.7-1.6,0.5c-5.1-1.5-10.4-1.6-15.6-1.6
			c-15.9,0-31.7,0-47.6,0c-3.9,0-7.6-0.6-10.8-3c-4.9-3.7-5.8-10.3-1.7-14.6c3.4-3.6,7.5-6.1,12.8-6c2.7,0.1,5.4,0,8.1,0
			c1.3,0,1.9,0.2,2.5,1.5c1.5,3.7,4.5,5.6,8.5,5.6c3.9,0,6.7-2.1,8.2-5.7c0.4-1,0.8-1.4,1.9-1.4c3.1,0.1,6.2,0.1,9.3,0.2
			c11.2,0.3,22.4,0.9,33.6,0.7c1.8,0,3.6-0.1,5.3-0.8c1-0.4,1.9-1,2.1-2.1c0.2-1.3-0.5-2.1-1.4-2.8c-1.2-0.9-2.7-1.4-4.1-2
			c-1-0.4-2.2-0.6-3.1-1.4c0.7-0.6,1.4-0.5,2.1-0.6c2.5-0.5,7.8-0.4,10.4-0.3c0.3,2.8,2.5,5,5.3,5c3.1,0.1,5.6-2.4,5.7-5.6
			c0.1-2.7-1.7-4.8-4.3-5.3c0-0.2,0-0.4,0-0.7c0-6.5,0-16,0-22.5c0,0,0,0,0,0c0-6.6,0-13.1,0-19.7c0-1,0.2-2.3-1.3-2.3
			c-1.4,0-1.4,1.3-1.4,2.3c0,13.1,0,29.1,0.1,42.2c0,0.2,0,0.5-0.1,0.7c-1.5,0.4-2.8,1.4-3.5,2.7c-4.3-0.1-11.2-0.4-15.2,1
			c-1.2,0.4-2.6,0.9-2.7,2.5c-0.1,1.7,1.1,2.5,2.4,3c2,0.9,4,1.8,6,2.6c0,0.2,0,0.3,0,0.5c-1.6,0.1-3.1,0.3-4.7,0.3
			c-13.6-0.3-27.1-0.7-40.7-1c-0.9,0-1.3-0.3-1.6-1.2c-1.5-4-4.5-6.3-8.3-6.3c-4-0.1-7.2,2.1-8.8,6.1c-0.4,1-0.9,1.4-1.9,1.4
			c-3,0-6,0.1-8.9,0.1c-6-0.1-10.9,2.6-14.8,6.9c-4.8,5.2-4.6,12.7,0.3,17.8c3.6,3.8,8.1,5.1,13.2,5.1c17.2,0,34.3,0,51.5,0.1
			c3.9,0,7.8,0.2,11.5,1.2c0.7,0.2,1.3,0.3,1.3,1.4c-0.1,6.7,5.2,10.9,11.5,9.1c2.1-0.6,2.3,0.3,2.2,1.8c-0.3,4.5-2.8,7.4-6.6,9.4
			c-5.2,2.7-10.8,3.5-16.5,3.5c-19.6,0.1-39.2,0-58.8,0.1c-1.1,0-1.7-0.3-2.2-1.4c-1.5-3.1-4.1-4.8-7.6-4.9
			c-3.7-0.1-6.5,1.4-8.2,4.6c-0.6,1-1.2,1.3-2.3,1.2c-3.3-0.1-6.6-0.4-10-0.3c-5.9,0.2-11.8,0.8-17.1,3.7c-6.3,3.4-9.6,9.4-8.6,15.9
			c1,6.1,4.8,10,10.1,12.6c4.5,2.2,9.3,3.1,14.2,3.8c11.3,1.7,22.6,1.8,34,1.8c1.8,0,2.7,0.4,3.5,2.2c1.5,3.6,4.6,5.2,8.5,5.2
			c3.1,0,5.9-1.8,7.4-4.6c0.4,1.3,0.8,3.2,0.8,4.7c0,5.4-2.6,9.8-7.2,13.1c-6.2,4.6-13.5,6.3-21.1,6.7c-12.3,0.6-24.6,0.1-37,0.3
			c-1.5,0-1.6-0.8-1.9-1.9c-1.3-5.4-5.8-8.9-11.3-8.9c-5.6,0-10.4,3.5-11.7,8.8c-0.4,1.7-1,2.1-2.7,2.1c-12-0.1-24.1,0-36.1,0
			c-1.4,0-2,0.3-1.9,1.8c0.1,1.6,1.2,1.3,2,1.3C343,181.2,354.9,181.2,366.7,181.1z M532.3,47.9c1.5,0.2,2.4,1,2.6,2.5
			c0.1,1.4-1.3,2.7-3,2.7c-1.4-0.2-2.3-1-2.4-2.6C529.4,49.1,530.9,47.7,532.3,47.9z M462,52.7c2.9,0,5.7,2.7,5.6,5.5
			c0,2.9-2.7,5.6-5.6,5.6c-2.9,0-5.6-2.6-5.6-5.5C456.5,55.4,459.1,52.7,462,52.7z M514.5,95.8c-2.9-0.1-5.4-2.7-5.4-5.5
			c0-2.9,2.7-5.6,5.6-5.6c2.9,0,5.5,2.7,5.5,5.6C520.1,93.2,517.3,95.9,514.5,95.8z M427.5,110.3c2.9,0.1,5.4,2.6,5.4,5.5
			c0,3-2.7,5.6-5.5,5.6c-3,0-5.6-2.7-5.5-5.8C421.9,112.7,424.5,110.3,427.5,110.3z M451.5,154.4c-3,0-5.7-2.6-5.6-5.5
			c0-2.8,2.7-5.6,5.4-5.6c3.1,0,5.8,2.7,5.7,5.7C457,151.9,454.4,154.4,451.5,154.4z M381.5,171.9c3.9,0,7.2,3.3,7.2,7.2
			c0,3.9-3.4,7.2-7.4,7.2c-3.9,0-7.1-3.3-7.1-7.2C374.2,175.1,377.5,171.8,381.5,171.9z"/>
		<path d="M536.7,17.7c4-1.5,8-3,12-4.5c3.4-1.3,6.8-2.5,10.8-4c-8.1-2.3-15.8-4.4-23.4-6.5C535,2.4,535,3,535,3.7
			c0,4.3,0.1,8.6,0,12.9C535,18.1,535.5,18.1,536.7,17.7z"/>
	</g>
</g>
</svg>
