<?xml version="1.0" encoding="utf-8"?>
<!-- Generator: Adobe Illustrator 25.0.0, SVG Export Plug-In . SVG Version: 6.00 Build 0)  -->
<svg version="1.1" id="Layer_1" xmlns="http://www.w3.org/2000/svg" xmlns:xlink="http://www.w3.org/1999/xlink" x="0px" y="0px"
	 viewBox="0 0 315.83 188" style="enable-background:new 0 0 315.83 188;" xml:space="preserve">
<style type="text/css">
	.st0{fill:#185AE9;}
	.st1{fill:#00B0FB;}
	.st2{fill-rule:evenodd;clip-rule:evenodd;fill:#00B0FB;}
	.st3{fill:#3C7CFF;}
	.st4{fill:#001135;}
	.st5{fill:#FFFFFF;}
	.st6{fill:#061639;}
	.st7{fill:#1429FF;}
	.st8{fill:#663398;}
	.st9{fill:#FEFEFE;}
	.st10{fill:#8DB849;}
	.st11{fill:#5A863E;}
	.st12{fill:#FFFFFE;}
	.st13{fill-rule:evenodd;clip-rule:evenodd;fill:#7FC728;}
	.st14{fill:#B3B3B3;}
	.st15{fill:#A6120D;}
	.st16{fill:#DD1B16;}
	.st17{fill:#F2F2F2;}
	.st18{fill:#8F9ED1;}
	.st19{fill:#030303;}
	.st20{fill:#0E0E0D;}
	.st21{fill:#8F8F90;}
	.st22{fill:#DBDBDB;}
	.st23{fill:#FDFDFD;}
	.st24{fill:#FDFCFD;}
	.st25{fill:#010101;}
	.st26{fill:#FCB415;}
	.st27{opacity:0.2;fill:#FFFFFF;enable-background:new    ;}
	.st28{fill:#68B345;}
	.st29{fill:#0A99D6;}
	.st30{opacity:0.1;fill:#010101;enable-background:new    ;}
	.st31{fill:#EE3325;}
	.st32{fill:url(#SVGID_1_);}
	.st33{fill:#FF2D20;}
	.st34{clip-path:url(#SVGID_2_);fill:#F9C638;}
	.st35{fill:#2A2D2C;}
	.st36{fill:#F9C638;}
	.st37{fill:#833CF7;}
</style>
<g>
	<path class="st12" d="M191.75,32.02c-2.45-0.52-4.78-0.77-6.97-0.77c-12.39,0-22.47,6.46-30.34,19.37
		c-6.71,10.98-10.07,23.11-10.07,36.41c0,9.94,2.07,18.46,6.2,25.57c4.65,8.13,11.49,13.04,20.66,14.98
		c2.45,0.52,4.78,0.77,6.97,0.77c12.52,0,22.6-6.46,30.34-19.37c6.71-11.1,10.07-23.24,10.07-36.54c0-10.07-2.07-18.46-6.2-25.44
		C207.76,38.87,200.79,33.96,191.75,32.02z M196.14,82.77c-1.81,8.52-5.04,14.85-9.81,19.11c-3.74,3.36-7.23,4.78-10.46,4.13
		c-3.1-0.65-5.68-3.36-7.62-8.39c-1.55-4-2.32-8.01-2.32-11.75c0-3.23,0.26-6.46,0.9-9.43c1.16-5.29,3.36-10.46,6.84-15.37
		c4.26-6.33,8.78-8.91,13.43-8.01c3.1,0.65,5.68,3.36,7.62,8.39c1.55,4,2.32,8.01,2.32,11.75C197.04,76.57,196.78,79.8,196.14,82.77
		z"/>
	<path class="st12" d="M272.71,32.02c-2.45-0.52-4.78-0.77-6.97-0.77c-12.4,0-22.47,6.46-30.34,19.37
		c-6.71,10.98-10.07,23.11-10.07,36.41c0,9.94,2.07,18.46,6.2,25.57c4.65,8.13,11.49,13.04,20.66,14.98
		c2.45,0.52,4.78,0.77,6.97,0.77c12.52,0,22.6-6.46,30.34-19.37c6.71-11.1,10.07-23.24,10.07-36.54c0-10.07-2.07-18.46-6.2-25.44
		C288.72,38.87,281.87,33.96,272.71,32.02z M277.1,82.77c-1.81,8.52-5.04,14.85-9.81,19.11c-3.75,3.36-7.23,4.78-10.46,4.13
		c-3.1-0.65-5.68-3.36-7.62-8.39c-1.55-4-2.32-8.01-2.32-11.75c0-3.23,0.26-6.46,0.9-9.43c1.16-5.29,3.36-10.46,6.84-15.37
		c4.26-6.33,8.78-8.91,13.43-8.01c3.1,0.65,5.68,3.36,7.62,8.39c1.55,4,2.32,8.01,2.32,11.75C278,76.57,277.61,79.8,277.1,82.77z"/>
	<path class="st12" d="M145.39,33.44c1.03-1.94,1.42-3.87,1.29-6.2c-0.26-2.97-1.55-5.42-4-7.36c-2.45-1.94-5.17-2.84-8.13-2.58
		c-3.74,0.26-6.59,2.07-8.52,5.68C118.02,37.57,112.34,61.2,108.98,94c-4.91-12.4-9.04-26.99-12.27-44.16
		c-1.42-7.62-4.91-11.23-10.59-10.85c-3.87,0.26-7.1,2.84-9.68,7.75l-28.28,53.84c-4.65-18.72-9.04-41.58-13.04-68.56
		c-0.9-6.71-4.65-9.81-11.23-9.3c-3.62,0.26-6.33,1.55-8.13,4c-1.81,2.32-2.45,5.29-2.07,8.65c7.62,48.42,14.72,81.09,21.3,98
		c2.58,6.2,5.55,9.17,9.04,8.91c5.42-0.39,11.88-7.88,19.5-22.47c4-8.26,10.2-20.66,18.59-37.19c6.97,24.4,16.53,42.74,28.54,55.01
		c3.36,3.49,6.84,5.04,10.2,4.78c2.97-0.26,5.29-1.81,6.84-4.65c1.29-2.45,1.81-5.29,1.55-8.52c-0.77-11.75,0.39-28.15,3.62-49.19
		C136.22,58.36,140.36,42.74,145.39,33.44z"/>
	<path class="st37" d="M187.1,53.07c-4.65-0.9-9.17,1.68-13.43,8.01c-3.49,4.91-5.68,10.07-6.84,15.37c-0.65,2.97-0.9,6.2-0.9,9.43
		c0,3.74,0.77,7.75,2.32,11.75c1.94,5.04,4.52,7.75,7.62,8.39c3.23,0.65,6.71-0.77,10.46-4.13c4.78-4.26,8.01-10.59,9.81-19.11
		c0.65-2.97,0.9-6.2,0.9-9.55c0-3.74-0.77-7.75-2.32-11.75C192.78,56.43,190.2,53.71,187.1,53.07z"/>
	<path class="st37" d="M268.06,53.07c-4.65-0.9-9.17,1.68-13.43,8.01c-3.49,4.91-5.68,10.07-6.84,15.37c-0.65,2.97-0.9,6.2-0.9,9.43
		c0,3.74,0.77,7.75,2.32,11.75c1.94,5.04,4.52,7.75,7.62,8.39c3.23,0.65,6.71-0.77,10.46-4.13c4.78-4.26,8.01-10.59,9.81-19.11
		c0.52-2.97,0.9-6.2,0.9-9.55c0-3.74-0.77-7.75-2.32-11.75C273.74,56.43,271.16,53.71,268.06,53.07z"/>
	<path class="st37" d="M286.39,0H29.31C13.04,0-0.13,13.3,0,29.44v98.13c0,16.27,13.17,29.44,29.44,29.44H151.2L206.85,188
		l-12.65-30.99h92.19c16.27,0,29.44-13.17,29.44-29.44V29.44C315.83,13.17,302.66,0,286.39,0z M129.25,129.25
		c0.26,3.23-0.26,6.07-1.55,8.52c-1.55,2.84-3.87,4.39-6.84,4.65c-3.36,0.26-6.84-1.29-10.2-4.78
		c-12.01-12.27-21.56-30.6-28.54-55.01c-8.39,16.53-14.59,28.92-18.59,37.19c-7.62,14.59-14.07,22.08-19.5,22.47
		c-3.49,0.26-6.46-2.71-9.04-8.91c-6.59-16.91-13.69-49.58-21.3-98c-0.39-3.36,0.26-6.33,2.07-8.65c1.81-2.45,4.52-3.74,8.13-4
		c6.59-0.52,10.33,2.58,11.23,9.3c4,26.99,8.39,49.84,13.04,68.56l28.28-53.84c2.58-4.91,5.81-7.49,9.68-7.75
		c5.68-0.39,9.17,3.23,10.59,10.85c3.23,17.17,7.36,31.76,12.27,44.16c3.36-32.8,9.04-56.43,17.04-71.02
		c1.94-3.62,4.78-5.42,8.52-5.68c2.97-0.26,5.68,0.65,8.13,2.58c2.45,1.94,3.74,4.39,4,7.36c0.13,2.32-0.26,4.26-1.29,6.2
		c-5.04,9.3-9.17,24.92-12.52,46.61C129.64,101.1,128.48,117.5,129.25,129.25z M208.53,108.98c-7.75,12.91-17.82,19.37-30.34,19.37
		c-2.2,0-4.52-0.26-6.97-0.77c-9.17-1.94-16.01-6.84-20.66-14.98c-4.13-7.1-6.2-15.62-6.2-25.57c0-13.3,3.36-25.44,10.07-36.41
		c7.88-12.91,17.95-19.37,30.34-19.37c2.2,0,4.52,0.26,6.97,0.77c9.04,1.94,16.01,6.84,20.66,14.98c4.13,6.97,6.2,15.37,6.2,25.44
		C218.6,85.74,215.25,97.87,208.53,108.98z M289.49,108.98c-7.75,12.91-17.82,19.37-30.34,19.37c-2.19,0-4.52-0.26-6.97-0.77
		c-9.17-1.94-16.01-6.84-20.66-14.98c-4.13-7.1-6.2-15.62-6.2-25.57c0-13.3,3.36-25.44,10.07-36.41
		c7.88-12.91,17.95-19.37,30.34-19.37c2.19,0,4.52,0.26,6.97,0.77c9.17,1.94,16.01,6.84,20.66,14.98c4.13,6.97,6.2,15.37,6.2,25.44
		C299.56,85.74,296.21,97.87,289.49,108.98z"/>
</g>
</svg>
