<?xml version="1.0" encoding="utf-8"?>
<!-- Generator: Adobe Illustrator 25.0.0, SVG Export Plug-In . SVG Version: 6.00 Build 0)  -->
<svg version="1.1" id="Layer_1" xmlns="http://www.w3.org/2000/svg" xmlns:xlink="http://www.w3.org/1999/xlink" x="0px" y="0px"
	 viewBox="0 0 109.97 107" style="enable-background:new 0 0 109.97 107;" xml:space="preserve">
<style type="text/css">
	.st0{fill:#185AE9;}
	.st1{fill:#00B0FB;}
	.st2{fill-rule:evenodd;clip-rule:evenodd;fill:#00B0FB;}
</style>
<g>
	<path class="st1" d="M69.64,0H2.11C0.94,0,0,0.95,0,2.11v27.43h71.75V2.11C71.75,0.95,70.81,0,69.64,0z M14.77,25.32
		C8.95,25.32,4.23,20.6,4.22,14.77c0-5.83,4.72-10.55,10.55-10.55s10.55,4.72,10.55,10.55C25.32,20.6,20.6,25.32,14.77,25.32z
		 M48.54,25.32H31.66c-1.17,0-2.11-0.95-2.11-2.11c0-1.17,0.94-2.11,2.11-2.11h16.88c1.17,0,2.11,0.95,2.11,2.11
		C50.65,24.38,49.7,25.32,48.54,25.32z M29.55,14.77c0-1.17,0.94-2.11,2.11-2.11h10.55c1.17,0,2.11,0.94,2.11,2.11
		c0,1.17-0.94,2.11-2.11,2.11H31.66C30.49,16.88,29.55,15.94,29.55,14.77z M63.31,8.44H31.66c-1.17,0-2.11-0.94-2.11-2.11
		c0-1.17,0.94-2.11,2.11-2.11h31.66c1.17,0,2.11,0.94,2.11,2.11C65.42,7.5,64.48,8.44,63.31,8.44z"/>
	<path class="st1" d="M107.85,55.98H78.7l18.52,20.11c2.79,3.05,2.79,7.74,0,10.79L78.7,107h29.15c1.17,0,2.13-0.95,2.13-2.13V58.11
		C109.97,56.93,109.02,55.98,107.85,55.98z"/>
	<path class="st1" d="M94.1,78.98l-18.14-19.7v44.42L94.1,84C95.4,82.58,95.4,80.4,94.1,78.98z"/>
	<path class="st1" d="M0,92.86c0,1.17,0.94,2.11,2.11,2.11h54.87v-8.44c0-3.5,2.83-6.33,6.33-6.33h8.44V33.77H0V92.86z M54.87,80.19
		H16.88c-1.17,0-2.11-0.94-2.11-2.11c0-1.17,0.94-2.11,2.11-2.11h37.99c1.17,0,2.11,0.94,2.11,2.11
		C56.98,79.25,56.04,80.19,54.87,80.19z M54.87,71.75H16.88c-1.17,0-2.11-0.94-2.11-2.11c0-1.17,0.94-2.11,2.11-2.11h37.99
		c1.17,0,2.11,0.94,2.11,2.11C56.98,70.81,56.04,71.75,54.87,71.75z M54.87,63.31H16.88c-1.17,0-2.11-0.94-2.11-2.11
		c0-1.17,0.94-2.11,2.11-2.11h37.99c1.17,0,2.11,0.94,2.11,2.11C56.98,62.37,56.04,63.31,54.87,63.31z M54.87,54.87H16.88
		c-1.17,0-2.11-0.95-2.11-2.11c0-1.17,0.94-2.11,2.11-2.11h37.99c1.17,0,2.11,0.94,2.11,2.11C56.98,53.92,56.04,54.87,54.87,54.87z
		 M12.66,40.1h46.43c1.17,0,2.11,0.95,2.11,2.11c0,1.17-0.94,2.11-2.11,2.11H12.66c-1.17,0-2.11-0.94-2.11-2.11
		C10.55,41.04,11.5,40.1,12.66,40.1z"/>
	<path class="st1" d="M62.35,88.21v6.76l9.4-9.4H65C63.54,85.56,62.35,86.75,62.35,88.21z"/>
	<path class="st1" d="M14.77,8.44c-3.5,0-6.33,2.83-6.33,6.33c0,3.5,2.83,6.33,6.33,6.33s6.33-2.83,6.33-6.33
		C21.1,11.28,18.27,8.44,14.77,8.44z"/>
	<path class="st1" d="M107.85,0H78.08c-1.17,0-2.13,0.95-2.13,2.13v46.77c0,1.17,0.95,2.13,2.13,2.13h29.76
		c1.17,0,2.13-0.95,2.13-2.13V2.13C109.97,0.95,109.02,0,107.85,0z M88.71,17.01c0-1.17,0.95-2.13,2.13-2.13
		c1.17,0,2.13,0.95,2.13,2.13v6.38c0,1.17-0.95,2.13-2.13,2.13c-1.17,0-2.13-0.95-2.13-2.13V17.01z M80.21,6.38
		c0-1.17,0.95-2.13,2.13-2.13c1.17,0,2.13,0.95,2.13,2.13v17.01c0,1.17-0.95,2.13-2.13,2.13c-1.17,0-2.13-0.95-2.13-2.13V6.38z
		 M88.71,46.77c-4.7,0-8.5-3.81-8.5-8.5s3.81-8.5,8.5-8.5s8.5,3.81,8.5,8.5S93.41,46.77,88.71,46.77z M101.47,23.38
		c0,1.17-0.95,2.13-2.13,2.13c-1.17,0-2.13-0.95-2.13-2.13V12.76c0-1.17,0.95-2.13,2.13-2.13c1.17,0,2.13,0.95,2.13,2.13V23.38z"/>
	<path class="st1" d="M88.71,34.01c-2.35,0-4.25,1.9-4.25,4.25c0,2.35,1.9,4.25,4.25,4.25c2.35,0,4.25-1.9,4.25-4.25
		C92.97,35.92,91.06,34.01,88.71,34.01z"/>
	<path class="st1" d="M63.81,99.36H62.2V107h1.61c1.04,0,2.06-0.28,2.95-0.82l4.99-3l-4.99-3C65.87,99.64,64.85,99.36,63.81,99.36z"
		/>
	<path class="st1" d="M0,101.27v3.82c0,1.06,0.86,1.91,1.91,1.91h7.64v-7.64H1.91C0.86,99.36,0,100.21,0,101.27z"/>
	<rect x="13.73" y="99.36" class="st1" width="44.64" height="7.64"/>
</g>
</svg>
