<?xml version="1.0" encoding="utf-8"?>
<!-- Generator: Adobe Illustrator 25.0.0, SVG Export Plug-In . SVG Version: 6.00 Build 0)  -->
<svg version="1.1" id="Layer_1" xmlns="http://www.w3.org/2000/svg" xmlns:xlink="http://www.w3.org/1999/xlink" x="0px" y="0px"
	 viewBox="0 0 105.67 107" style="enable-background:new 0 0 105.67 107;" xml:space="preserve">
<style type="text/css">
	.st0{fill:#185AE9;}
	.st1{fill:#00B0FB;}
	.st2{fill-rule:evenodd;clip-rule:evenodd;fill:#00B0FB;}
</style>
<g>
	<path class="st1" d="M74.39,89.17l-12.81-7.39c-0.28-0.16-0.61-0.16-0.9,0c-0.28,0.16-0.44,0.44-0.44,0.77v14.79
		c0,0.33,0.16,0.61,0.44,0.78c0.28,0.16,0.61,0.16,0.9,0l12.81-7.4c0.28-0.16,0.44-0.45,0.44-0.77
		C74.83,89.62,74.67,89.34,74.39,89.17z"/>
	<path class="st1" d="M64.89,72.9c-9.42,0-17.05,7.64-17.05,17.05S55.46,107,64.89,107c9.42,0,17.05-7.63,17.05-17.05
		C81.94,80.53,74.3,72.9,64.89,72.9z M75.72,93.03l-12.81,7.4c-1.11,0.64-2.45,0.64-3.56,0c-1.11-0.64-1.78-1.81-1.78-3.09V82.55
		c0-1.28,0.67-2.45,1.78-3.09c1.11-0.64,2.45-0.64,3.56,0l12.81,7.4c1.11,0.64,1.78,1.81,1.78,3.09
		C77.5,91.23,76.83,92.39,75.72,93.03z"/>
	<path class="st1" d="M72.64,36.66c-1.43-2.47-4.09-4.01-6.94-4.01c-0.58,0-1.16,0.06-1.73,0.19l7.64,13.24
		C73.98,43.52,74.42,39.73,72.64,36.66z"/>
	<path class="st1" d="M29.29,87.54l4.21-7.79l-2.04-3.54l-11.78,6.8c-0.3,0.17-0.61,0.34-0.93,0.49l12.25,21.22
		c0.63,1.09,1.82,1.77,3.09,1.77c0.62,0,1.23-0.16,1.76-0.47c0.82-0.47,1.4-1.23,1.65-2.15c0.25-0.92,0.12-1.88-0.35-2.7
		L29.29,87.54z"/>
	<path class="st1" d="M39.05,46.66c-0.71,0.55-1.59,0.85-2.49,0.85c-0.69,0-1.37-0.18-1.98-0.51l-6.36-3.54l-9.36,8.94l11.69,20.26
		L66,65.17L44.5,27.92l-6.25,5.97l2.24,8.52C40.91,43.98,40.34,45.65,39.05,46.66z"/>
	<path class="st1" d="M70.21,65.12c0.63,1.09,1.8,1.76,3.06,1.76c0.62,0,1.22-0.16,1.76-0.47c1.69-0.97,2.27-3.13,1.29-4.82L52.9,21
		c-0.63-1.09-1.81-1.76-3.07-1.76c-0.62,0-1.22,0.16-1.75,0.47c-0.81,0.47-1.4,1.23-1.64,2.14c-0.25,0.91-0.12,1.87,0.35,2.68
		L70.21,65.12z"/>
	<path class="st1" d="M15.74,54.33l-9.46,5.46c-2.67,1.54-4.58,4.03-5.38,7.03c-0.8,2.99-0.4,6.11,1.14,8.78
		c2.06,3.56,5.91,5.78,10.05,5.78c0,0,0,0,0,0c2.02,0,4-0.53,5.75-1.54l9.46-5.46C27.31,74.37,18.68,59.42,15.74,54.33z"/>
	<path class="st1" d="M18.81,37.61c1.55,0,3.05-0.18,4.49-0.54l12.82,7.15c0.32,0.18,0.7,0.15,0.99-0.08
		c0.28-0.22,0.4-0.57,0.31-0.93l-3.48-13.22c2.31-3.13,3.68-7,3.68-11.18C37.62,8.42,29.19,0,18.81,0C8.43,0,0,8.42,0,18.81
		C0,29.19,8.43,37.61,18.81,37.61z M26.7,27.1H10.16c-0.73,0-1.34-0.6-1.34-1.34s0.61-1.33,1.34-1.33H26.7
		c0.74,0,1.34,0.59,1.34,1.33S27.44,27.1,26.7,27.1z M10.16,11.17H26.7c0.74,0,1.34,0.59,1.34,1.33s-0.6,1.34-1.34,1.34H10.16
		c-0.74,0-1.33-0.6-1.34-1.34C8.82,11.76,9.43,11.17,10.16,11.17z M6.8,17.79h23.26c0.74,0,1.34,0.6,1.34,1.34
		c0,0.74-0.6,1.34-1.34,1.34H6.8c-0.74,0-1.34-0.6-1.34-1.34C5.46,18.39,6.06,17.79,6.8,17.79z"/>
	<path class="st1" d="M87.45,13.24c0.16,0.11,0.35,0.11,0.51,0l15.89-11.09c0.16-0.11,0.23-0.31,0.17-0.5
		c-0.06-0.19-0.23-0.31-0.42-0.31H71.81c-0.2,0-0.37,0.12-0.42,0.31c-0.06,0.19,0.01,0.39,0.17,0.5L87.45,13.24z"/>
	<path class="st1" d="M105.43,4.59L105.43,4.59c-0.15-0.08-0.33-0.07-0.46,0.03L88.49,16.12c-0.46,0.34-1.08,0.34-1.55,0.01
		L70.44,4.61c-0.14-0.1-0.32-0.11-0.46-0.03c-0.15,0.08-0.24,0.22-0.24,0.39v22.65h35.94V4.98C105.67,4.81,105.58,4.66,105.43,4.59z
		"/>
</g>
</svg>
