<?xml version="1.0" encoding="utf-8"?>
<!-- Generator: Adobe Illustrator 25.0.0, SVG Export Plug-In . SVG Version: 6.00 Build 0)  -->
<svg version="1.1" id="Layer_1" xmlns="http://www.w3.org/2000/svg" xmlns:xlink="http://www.w3.org/1999/xlink" x="0px" y="0px"
	 viewBox="0 0 119.84 107" style="enable-background:new 0 0 119.84 107;" xml:space="preserve">
<style type="text/css">
	.st0{fill:#185AE9;}
	.st1{fill:#00B0FB;}
	.st2{fill-rule:evenodd;clip-rule:evenodd;fill:#00B0FB;}
</style>
<g>
	<rect x="10.7" y="10.7" class="st1" width="47.08" height="21.4"/>
	<rect x="40.66" y="44.94" class="st1" width="17.12" height="17.12"/>
	<path class="st1" d="M66.34,0H6.42C2.89,0,0,2.89,0,6.42v66.34h66.34V0z M32.1,62.06c0,2.35-1.93,4.28-4.28,4.28H10.7
		c-2.35,0-4.28-1.93-4.28-4.28V44.94c0-2.35,1.93-4.28,4.28-4.28h17.12c2.35,0,4.28,1.93,4.28,4.28V62.06z M62.06,62.06
		c0,2.35-1.93,4.28-4.28,4.28H40.66c-2.35,0-4.28-1.93-4.28-4.28V44.94c0-2.35,1.93-4.28,4.28-4.28h17.12
		c2.35,0,4.28,1.93,4.28,4.28V62.06z M62.06,32.1c0,2.35-1.93,4.28-4.28,4.28H10.7c-2.35,0-4.28-1.93-4.28-4.28V10.7
		c0-2.35,1.93-4.28,4.28-4.28h47.08c2.35,0,4.28,1.93,4.28,4.28V32.1z"/>
	<path class="st1" d="M0,79.18c0,3.53,2.89,6.42,6.42,6.42h107c3.53,0,6.42-2.89,6.42-6.42v-2.14H0V79.18z"/>
	<path class="st1" d="M45.9,89.88l-7.17,14.04c-0.32,0.65-0.29,1.42,0.09,2.03c0.19,0.3,0.77,1.05,1.93,1.05h38.33
		c1.16,0,1.73-0.73,1.93-1.05c0.19-0.3,0.56-1.09,0.09-2.03h-0.02l-7.17-14.04H45.9z"/>
	<path class="st1" d="M113.42,0h-42.8v72.76h49.22V6.42C119.84,2.89,116.95,0,113.42,0z M89.94,27.31l4.28-17.12
		c0-0.02,0.01-0.03,0.01-0.05c0.29-1.13,1.45-1.81,2.58-1.51c0.01,0,0.01,0,0.02,0c1.14,0.29,1.83,1.44,1.54,2.59L94.1,28.33
		c0,0.01,0,0.02-0.01,0.03c-0.29,1.14-1.45,1.82-2.58,1.53C90.35,29.62,89.67,28.46,89.94,27.31z M75.33,17.98l6.42-8.56
		c0.71-0.94,2.05-1.13,3-0.43c0.94,0.71,1.13,2.05,0.43,3l-5.46,7.28l5.46,7.28c0.71,0.94,0.51,2.29-0.43,3
		c-0.39,0.28-0.83,0.43-1.28,0.43c-0.64,0-1.28-0.3-1.71-0.86l-6.42-8.56C74.75,19.79,74.75,18.73,75.33,17.98z M111.28,66.34h-32.1
		c-1.18,0-2.14-0.96-2.14-2.14c0-1.18,0.96-2.14,2.14-2.14h32.1c1.18,0,2.14,0.96,2.14,2.14C113.42,65.38,112.46,66.34,111.28,66.34
		z M111.28,55.64h-32.1c-1.18,0-2.14-0.96-2.14-2.14s0.96-2.14,2.14-2.14h32.1c1.18,0,2.14,0.96,2.14,2.14
		S112.46,55.64,111.28,55.64z M111.28,44.94h-32.1c-1.18,0-2.14-0.96-2.14-2.14c0-1.18,0.96-2.14,2.14-2.14h32.1
		c1.18,0,2.14,0.96,2.14,2.14C113.42,43.98,112.46,44.94,111.28,44.94z M112.99,20.54l-6.42,8.56c-0.43,0.56-1.07,0.86-1.71,0.86
		c-0.45,0-0.9-0.15-1.28-0.43c-0.94-0.71-1.13-2.05-0.43-3l5.46-7.28l-5.46-7.28c-0.71-0.94-0.51-2.29,0.43-3
		c0.94-0.71,2.29-0.51,3,0.43l6.42,8.56C113.57,18.73,113.57,19.79,112.99,20.54z"/>
	<rect x="10.7" y="44.94" class="st1" width="17.12" height="17.12"/>
</g>
</svg>
