<?xml version="1.0" encoding="utf-8"?>
<!-- Generator: Adobe Illustrator 25.0.0, SVG Export Plug-In . SVG Version: 6.00 Build 0)  -->
<svg version="1.1" id="Layer_1" xmlns="http://www.w3.org/2000/svg" xmlns:xlink="http://www.w3.org/1999/xlink" x="0px" y="0px"
	 viewBox="0 0 114.82 111" style="enable-background:new 0 0 114.82 111;" xml:space="preserve">
<style type="text/css">
	.st0{fill:#185AE9;}
	.st1{fill:#00B0FB;}
	.st2{fill:#00B0FB;fill-opacity:0.4;}
	.st3{fill:#FFFFFF;}
	.st4{fill:#3C7CFF;}
	.st5{fill:#3C7CFF;stroke:#001135;stroke-width:0.7602;stroke-miterlimit:10;}
	.st6{fill:#001135;}
	.st7{fill:#0A0A0A;}
	.st8{fill:#DBDBDB;}
	.st9{fill:#FDFDFD;}
	.st10{fill:#030303;}
	.st11{fill:none;}
	.st12{fill:#010101;}
	.st13{fill:#020202;}
	.st14{fill:#181818;}
	.st15{fill:#1C1C1C;}
	.st16{fill:#171717;}
	.st17{fill:#090909;}
	.st18{fill:#060606;}
	.st19{fill:#070707;}
	.st20{fill:#191919;}
	.st21{fill:#FBFBFB;}
	.st22{fill:#FCFCFC;}
	.st23{fill:#050505;}
	.st24{fill:#0B0B0B;}
	.st25{fill:#040404;}
	.st26{fill:#FAFAFA;}
	.st27{fill:#FBFAFB;}
	.st28{fill:#0C0C0C;}
</style>
<g>
	<path class="st1" d="M50.17,37.61c-0.16,0-0.38,0.06-0.5,0.32l-9.29,20.5h19.6l-9.29-20.5C50.56,37.67,50.34,37.61,50.17,37.61z"/>
	<polygon class="st1" points="6.35,97.42 13.58,104.66 16.15,102.09 16.72,101.52 16.94,101.29 16.94,101.29 24.69,93.54 
		33.68,84.55 26.45,77.32 	"/>
	<path class="st1" d="M0.57,103.2c-0.76,0.76-0.76,1.99,0,2.75c4.61,4.61,4.54,4.57,4.79,4.73c0,0,0.01,0.01,0.01,0.01
		c0.64,0.42,1.47,0.42,2.11,0c0,0,0.01-0.01,0.01-0.01c0.24-0.16,0.25-0.2,3.55-3.5l-7.23-7.23L0.57,103.2z"/>
	<path class="st1" d="M12.88,65.37V0H5.69c-2.1,0-3.81,1.71-3.81,3.81v62.62c1.15-0.69,2.46-1.06,3.81-1.06H12.88z"/>
	<path class="st1" d="M64.31,47.09c-0.97,0-1.82,0.48-2.32,1.31l-1.51,2.5l3.42,7.55h8.81L66.63,48.4
		C66.13,47.56,65.28,47.09,64.31,47.09z"/>
	<polygon class="st1" points="35.52,81.34 39.17,71.83 29.66,75.48 	"/>
	<path class="st1" d="M74.86,12l2.04-2.04c0.69-0.67,1.79-0.67,2.49,0c0.71,0.69,0.73,1.82,0.04,2.53l-2.04,2.04l3.94,3.94
		l2.04-2.04c0.7-0.7,1.83-0.7,2.53,0c0.7,0.7,0.7,1.83,0,2.53l-2.04,2.04l3.94,3.94l2.04-2.04c0.7-0.7,1.83-0.7,2.53,0
		c0.7,0.7,0.7,1.83,0,2.53l-2.04,2.04l3.94,3.94l2.04-2.04c0.69-0.67,1.79-0.67,2.49,0c0.71,0.69,0.73,1.82,0.04,2.53l-2.04,2.04
		l3.94,3.94l2.04-2.04c0.7-0.7,1.83-0.7,2.53,0c0.7,0.7,0.7,1.83,0,2.53l-2.04,2.04l11.56,11.56V0.44H63.31L74.86,12z M89.91,8.55
		h13.88c1.61,0,2.91,1.31,2.91,2.91v13.88c0,1.65-1.34,2.91-2.92,2.91c-0.77,0-1.51-0.31-2.06-0.85L87.85,13.52
		C86.02,11.69,87.32,8.55,89.91,8.55z"/>
	<path class="st1" d="M25.63,11.18C25.63,11.18,25.63,11.18,25.63,11.18l-9.18,0v55.13c0,1.45-1.18,2.63-2.63,2.63H5.69
		c-2.1,0-3.81,1.71-3.81,3.81c0,2.1,1.71,3.8,3.81,3.8h16.47l2.52-2.52c0.53-0.53,1.19-0.93,1.79-1.16l11.99-4.59
		c1.23-0.47,2.58-0.19,3.52,0.75c0.93,0.94,1.22,2.28,0.75,3.52l-1.54,4.01h62.89V46.27L68.99,11.18H25.63z M73.3,62.01H39.86
		c-1.1,0-2.13-0.56-2.72-1.48c-0.6-0.93-0.69-2.09-0.23-3.09l9.51-20.97c0.68-1.49,2.12-2.42,3.76-2.42c1.64,0,3.08,0.93,3.76,2.42
		l4.75,10.48c0.07-0.07,1.67-3.43,5.62-3.43c2.22,0,4.23,1.13,5.38,3.03l6.38,10.55C77.38,59.25,75.82,62.01,73.3,62.01z
		 M64.31,38.64c-3.56,0-6.46-2.9-6.46-6.46s2.9-6.46,6.46-6.46c3.56,0,6.46,2.9,6.46,6.46S67.87,38.64,64.31,38.64z"/>
	<polygon class="st1" points="103.14,12.12 91.51,12.12 103.14,23.75 	"/>
	<circle class="st1" cx="64.31" cy="32.18" r="2.88"/>
	<path class="st1" d="M106.9,84.19c-3.59,0-6.61,2.48-7.44,5.82H87.69c-0.38-0.59-0.13-0.23-6.88-6.99
		c-0.64-0.65-1.52-1.01-2.43-1.01c-0.91,0-1.79,0.36-2.43,1.01c-6.74,6.76-6.5,6.41-6.88,6.99H57.29c-0.83-3.34-3.85-5.82-7.44-5.82
		c-4.23,0-7.66,3.44-7.66,7.66c0,4.23,3.44,7.66,7.66,7.66c3.59,0,6.61-2.48,7.44-5.82h11.78c0.38,0.59,0.14,0.24,6.88,6.99
		c0.64,0.65,1.52,1.01,2.43,1.01c0.92,0,1.78-0.36,2.43-1.01c6.75-6.77,6.5-6.41,6.88-6.99h11.78c0.83,3.34,3.85,5.82,7.44,5.82
		c4.23,0,7.66-3.44,7.66-7.66C114.57,87.63,111.13,84.19,106.9,84.19z M49.85,95.83c-2.19,0-3.97-1.78-3.97-3.97
		c0-2.19,1.78-3.97,3.97-3.97c2.19,0,3.97,1.78,3.97,3.97C53.82,94.05,52.04,95.83,49.85,95.83z M78.38,97.91l-6.05-6.05l6.05-6.05
		l6.05,6.05L78.38,97.91z M106.9,95.83c-2.19,0-3.97-1.78-3.97-3.97c0-2.19,1.78-3.97,3.97-3.97c2.19,0,3.97,1.78,3.97,3.97
		C110.88,94.05,109.09,95.83,106.9,95.83z"/>
</g>
</svg>
