<?xml version="1.0" encoding="utf-8"?>
<!-- Generator: Adobe Illustrator 25.0.0, SVG Export Plug-In . SVG Version: 6.00 Build 0)  -->
<svg version="1.1" id="Layer_1" xmlns="http://www.w3.org/2000/svg" xmlns:xlink="http://www.w3.org/1999/xlink" x="0px" y="0px"
	 viewBox="0 0 166.33 171.23" style="enable-background:new 0 0 166.33 171.23;" xml:space="preserve">
<style type="text/css">
	.st0{fill:#185AE9;}
	.st1{fill:#00B0FB;}
	.st2{fill-rule:evenodd;clip-rule:evenodd;fill:#00B0FB;}
	.st3{fill:#00B0FB;fill-opacity:0.4;}
	.st4{fill:#FFFFFF;}
	.st5{fill:#3C7CFF;}
	.st6{fill:#001135;}
	.st7{fill:#00769D;}
	.st8{fill:#8DB849;}
	.st9{fill:#5A863E;}
	.st10{fill:#FFFFFE;}
	.st11{fill:#7F54B3;}
	.st12{fill:#F26322;}
	.st13{fill:#009CDE;}
	.st14{clip-path:url(#SVGID_1_);}
	.st15{fill:#FFFFFF;filter:url(#Adobe_OpacityMaskFilter);}
	.st16{mask:url(#prefix__a_2_);}
	.st17{fill:#FFFFFF;filter:url(#Adobe_OpacityMaskFilter_1_);}
	.st18{mask:url(#prefix__b_2_);}
	.st19{fill:url(#SVGID_2_);}
	.st20{fill:url(#SVGID_3_);}
	.st21{fill:#FF2D20;}
</style>
<path class="st21" d="M166.24,38.74c0.06,0.23,0.09,0.46,0.09,0.7v36.75c0,0.96-0.51,1.85-1.35,2.32l-30.85,17.76v35.2
	c0,0.96-0.51,1.84-1.34,2.32L68.4,170.87c-0.15,0.08-0.31,0.14-0.47,0.19c-0.06,0.02-0.12,0.06-0.18,0.07
	c-0.45,0.12-0.92,0.12-1.37,0c-0.07-0.02-0.14-0.06-0.21-0.09c-0.15-0.05-0.3-0.1-0.44-0.18L1.35,133.8
	C0.51,133.32,0,132.44,0,131.48V21.22c0-0.24,0.03-0.48,0.09-0.7c0.02-0.08,0.07-0.15,0.09-0.22c0.05-0.14,0.1-0.28,0.17-0.42
	c0.05-0.09,0.12-0.16,0.18-0.24c0.08-0.11,0.15-0.22,0.24-0.31c0.08-0.08,0.18-0.13,0.26-0.2c0.1-0.08,0.18-0.17,0.29-0.23h0
	L33.53,0.36c0.83-0.48,1.85-0.48,2.68,0l32.19,18.53h0.01c0.11,0.07,0.2,0.15,0.29,0.23c0.09,0.07,0.18,0.13,0.26,0.2
	c0.09,0.1,0.16,0.21,0.24,0.31c0.06,0.08,0.13,0.15,0.18,0.24c0.08,0.13,0.12,0.27,0.17,0.42c0.03,0.08,0.07,0.15,0.09,0.23
	c0.06,0.23,0.09,0.46,0.09,0.7v68.87l26.82-15.45V39.43c0-0.23,0.03-0.47,0.09-0.7c0.02-0.08,0.07-0.15,0.09-0.23
	c0.05-0.14,0.1-0.28,0.17-0.42c0.05-0.09,0.12-0.16,0.18-0.24c0.08-0.11,0.15-0.22,0.24-0.31c0.08-0.08,0.17-0.13,0.26-0.2
	c0.1-0.08,0.19-0.17,0.29-0.23h0l32.19-18.53c0.83-0.48,1.85-0.48,2.68,0l32.19,18.53c0.11,0.07,0.2,0.15,0.3,0.23
	c0.08,0.07,0.18,0.13,0.26,0.2c0.09,0.1,0.16,0.21,0.24,0.31c0.06,0.08,0.13,0.15,0.18,0.24c0.08,0.13,0.12,0.27,0.17,0.42
	C166.17,38.59,166.21,38.66,166.24,38.74L166.24,38.74z M160.96,74.64V44.08l-11.27,6.49l-15.56,8.96v30.56L160.96,74.64
	L160.96,74.64z M128.77,129.93V99.34l-15.31,8.74l-43.71,24.95v30.87L128.77,129.93z M5.37,25.86v104.07l59.02,33.98v-30.86
	l-30.83-17.45l-0.01-0.01l-0.01-0.01c-0.1-0.06-0.19-0.15-0.29-0.22c-0.08-0.07-0.18-0.12-0.25-0.19l-0.01-0.01
	c-0.09-0.08-0.15-0.19-0.22-0.28c-0.07-0.09-0.15-0.17-0.2-0.26l0-0.01c-0.06-0.1-0.1-0.22-0.14-0.33c-0.04-0.1-0.1-0.19-0.13-0.3v0
	c-0.03-0.13-0.04-0.26-0.05-0.39c-0.01-0.1-0.04-0.2-0.04-0.3V41.3l-15.56-8.96L5.37,25.86L5.37,25.86z M34.88,5.78L8.06,21.22
	l26.81,15.44l26.82-15.44L34.88,5.78L34.88,5.78z M48.83,102.13l15.56-8.96V25.86l-11.27,6.49L37.56,41.3v67.32L48.83,102.13z
	 M131.45,24l-26.82,15.44l26.82,15.44l26.81-15.44L131.45,24z M128.77,59.52l-15.56-8.96l-11.27-6.49v30.56l15.56,8.96l11.27,6.49
	V59.52z M67.06,128.4l39.34-22.46l19.66-11.22l-26.8-15.43L68.41,97.05l-28.12,16.19L67.06,128.4z"/>
</svg>
