<?xml version="1.0" encoding="utf-8"?>
<!-- Generator: Adobe Illustrator 25.0.0, SVG Export Plug-In . SVG Version: 6.00 Build 0)  -->
<svg version="1.1" id="Layer_1" xmlns="http://www.w3.org/2000/svg" xmlns:xlink="http://www.w3.org/1999/xlink" x="0px" y="0px"
	 viewBox="0 0 173.62 173.62" style="enable-background:new 0 0 173.62 173.62;" xml:space="preserve">
<style type="text/css">
	.st0{fill:#185AE9;}
	.st1{fill:#00B0FB;}
	.st2{fill-rule:evenodd;clip-rule:evenodd;fill:#00B0FB;}
	.st3{fill:#00B0FB;fill-opacity:0.4;}
	.st4{fill:#FFFFFF;}
	.st5{fill:#3C7CFF;}
	.st6{fill:#001135;}
	.st7{fill:#00769D;}
	.st8{fill:#8DB849;}
	.st9{fill:#5A863E;}
	.st10{fill:#FFFFFE;}
	.st11{fill:#7F54B3;}
	.st12{fill:#F26322;}
	.st13{fill:#009CDE;}
	.st14{clip-path:url(#SVGID_1_);}
	.st15{fill:#FFFFFF;filter:url(#Adobe_OpacityMaskFilter);}
	.st16{mask:url(#prefix__a_2_);}
	.st17{fill:#FFFFFF;filter:url(#Adobe_OpacityMaskFilter_1_);}
	.st18{mask:url(#prefix__b_2_);}
	.st19{fill:url(#SVGID_2_);}
	.st20{fill:url(#SVGID_3_);}
	.st21{fill:#FF2D20;}
</style>
<g>
	<path class="st7" d="M12.34,86.81c0,29.47,17.12,54.95,41.97,67.02L18.79,56.5C14.66,65.76,12.34,76.01,12.34,86.81z M137.08,83.04
		c0-9.2-3.3-15.58-6.14-20.53c-3.77-6.14-7.31-11.32-7.31-17.47c0-6.84,5.19-13.21,12.5-13.21c0.33,0,0.64,0.04,0.97,0.05
		c-13.25-12.14-30.91-19.55-50.29-19.55c-26.02,0-48.91,13.35-62.22,33.57c1.75,0.05,3.4,0.09,4.8,0.09
		c7.79,0,19.84-0.95,19.84-0.95c4.01-0.23,4.49,5.67,0.48,6.14c0,0-4.04,0.47-8.52,0.7l27.12,80.67l16.3-48.88l-11.6-31.79
		c-4.01-0.23-7.82-0.7-7.82-0.7c-4.02-0.24-3.54-6.38,0.47-6.14c0,0,12.3,0.95,19.61,0.95c7.79,0,19.85-0.95,19.85-0.95
		c4.02-0.23,4.49,5.67,0.48,6.14c0,0-4.05,0.47-8.52,0.7l26.91,80.05l7.43-24.82C135.19,97.44,137.08,89.43,137.08,83.04z
		 M88.12,93.32l-22.35,64.92c6.68,1.96,13.73,3.03,21.04,3.03c8.67,0,16.99-1.5,24.73-4.22c-0.19-0.32-0.38-0.66-0.54-1.02
		L88.12,93.32z M152.16,51.08c0.33,2.37,0.5,4.92,0.5,7.66c0,7.55-1.42,16.05-5.67,26.67l-22.74,65.77
		c22.14-12.91,37.03-36.89,37.03-64.37C161.28,73.86,157.97,61.68,152.16,51.08z"/>
	<g>
		<path class="st7" d="M0,86.81c0,47.86,38.94,86.81,86.81,86.81c47.88,0,86.81-38.95,86.81-86.81S134.69,0,86.81,0S0,38.94,0,86.81
			z M3.98,86.81c0-45.67,37.16-82.83,82.83-82.83s82.84,37.16,82.84,82.83s-37.16,82.83-82.83,82.83S3.98,132.48,3.98,86.81z"/>
	</g>
</g>
</svg>
