<?xml version="1.0" encoding="utf-8"?>
<!-- Generator: Adobe Illustrator 24.3.0, SVG Export Plug-In . SVG Version: 6.00 Build 0)  -->
<svg version="1.1" id="Layer_1" xmlns="http://www.w3.org/2000/svg" xmlns:xlink="http://www.w3.org/1999/xlink" x="0px" y="0px"
	 width="669.7px" height="607.8px" viewBox="0 0 669.7 607.8" style="enable-background:new 0 0 669.7 607.8;" xml:space="preserve"
	>
<style type="text/css">
	.st0{fill:#00B0FB;}
	.st1{fill:#00B0FB;fill-opacity:0.4;}
	.st2{fill:#FFFFFF;}
	.st3{fill:none;}
	.st4{fill:#001135;}
	.st5{fill:#3C7CFF;}
	.st6{fill:#3C7CFF;stroke:#001135;stroke-width:0.7602;stroke-miterlimit:10;}
	.st7{fill:#DBDBDB;}
	.st8{fill:#B9B9B9;}
	.st9{fill:#080808;}
	.st10{fill:#060606;}
	.st11{fill:#070707;}
	.st12{fill:#121212;}
	.st13{fill:#111111;}
	.st14{fill:#090909;}
	.st15{fill:#FDFDFD;}
	.st16{fill:#F9F9F9;}
	.st17{fill:#F3F2F3;}
	.st18{fill:#FAFAFA;}
	.st19{fill:#0A0A0A;}
	.st20{fill:#EEEEEE;}
	.st21{fill:#0D0D0D;}
	.st22{fill:#0C0C0C;}
	.st23{fill:#0E0E0E;}
	.st24{fill:#050505;}
	.st25{fill:#3A3A3A;}
	.st26{fill:#525252;}
	.st27{fill:#474747;}
	.st28{fill:#1E1E1E;}
	.st29{fill:#1D1D1D;}
	.st30{fill:#222222;}
	.st31{fill:#494949;}
	.st32{fill:#585858;}
	.st33{fill:#EDEDED;}
	.st34{fill:#F0F0F0;}
	.st35{fill:#EAEAEA;}
	.st36{fill:#EAE9EA;}
	.st37{fill:#040404;}
	.st38{fill:#F4F3F4;}
	.st39{fill:#030303;}
	.st40{fill:#E8E8E8;}
	.st41{fill:#0C0C0B;}
	.st42{fill:#0D0D0C;}
	.st43{fill:#919191;}
	.st44{fill:#909090;}
	.st45{fill:#0E0E0D;}
	.st46{fill:#0C0D0C;}
	.st47{fill:#090908;}
	.st48{fill:#141414;}
	.st49{fill:#4C4D4D;}
	.st50{fill:#737474;}
	.st51{fill:#242424;}
	.st52{fill:#202020;}
	.st53{fill:#101010;}
	.st54{fill:#0D0E0D;}
	.st55{fill:#111212;}
	.st56{fill:#0B0B0B;}
	.st57{fill:#0D0C0C;}
	.st58{fill:#E7E7E7;}
	.st59{fill:#272727;}
	.st60{fill:#2E2E2E;}
	.st61{fill:#1F1E1E;}
	.st62{fill:#1B1A1A;}
	.st63{fill:#E6E6E6;}
	.st64{fill:#0F0E0E;}
	.st65{fill:#F2F2F2;}
	.st66{fill:#F4F3F3;}
	.st67{fill:#F9F8F8;}
	.st68{fill:#F1F1F0;}
	.st69{fill:#F6F6F6;}
	.st70{fill:#F5F6F6;}
	.st71{fill:#F5F5F5;}
	.st72{fill:#2C2C2C;}
	.st73{fill:#252625;}
	.st74{fill:#303030;}
	.st75{fill:#2D2D2C;}
	.st76{fill:#2D2D2D;}
	.st77{fill:#262727;}
	.st78{fill:#191919;}
	.st79{fill:#1B1B1B;}
	.st80{fill:#F7F7F7;}
	.st81{fill:#F6F7F7;}
	.st82{fill:#F9F9FA;}
	.st83{fill:#F4F4F4;}
	.st84{fill:#F8F8F8;}
	.st85{fill:#FCFCFC;}
	.st86{fill:#FBFBFB;}
	.st87{fill:#E2E1E2;}
	.st88{fill:#D8D7D8;}
	.st89{fill:#0F0F0F;}
	.st90{fill:#161616;}
	.st91{fill:#181818;}
	.st92{fill:#131313;}
	.st93{fill-rule:evenodd;clip-rule:evenodd;fill:#00B0FB;}
	.st94{fill:#030302;}
	.st95{fill:#D2D3D3;}
	.st96{fill:#1F1F1F;}
	.st97{fill:#0E0D0E;}
	.st98{fill:#BABBBB;}
	.st99{fill:#8A8A8A;}
	.st100{fill:#8E8F8F;}
	.st101{fill:#464746;}
	.st102{fill:#5F5E5E;}
	.st103{fill:#151414;}
	.st104{fill:#282828;}
	.st105{fill:#030202;}
	.st106{fill:#040403;}
	.st107{fill:#040303;}
	.st108{fill:#202021;}
	.st109{fill:#020202;}
	.st110{fill:#050506;}
	.st111{fill:#010101;}
	.st112{fill:#F3F3F3;}
	.st113{fill:#F1F1F1;}
	.st114{fill:#FAFAF9;}
	.st115{fill:#040504;}
	.st116{fill:#070708;}
	.st117{fill:#131212;}
	.st118{fill:#070808;}
	.st119{fill:#3C3C3C;}
	.st120{fill:#FEFEFE;}
</style>
<g>
	<path d="M669.7,351.8c-0.2,5.3-1.9,10.2-3.9,15c-5.5,12.7-13.3,24-21.8,34.8c-4.9,6.3-10,12.4-15.2,18.3c-1.5,1.7-3.1,3.5-4.6,5.2
		c-2.4,2.6-4.8,5.2-7.2,7.7c-1.7,1.8-3.5,3.6-5.3,5.5c-6,6.1-12.2,12.1-18.5,18c-0.9,0.8-1.8,1.7-2.7,2.5c-0.7,0.6-1.4,1.3-2.1,1.9
		c-4.1,3.8-8.3,7.6-12.5,11.3c-0.3,0.2-0.5,0.5-0.8,0.7c-4.2,3.8-8.5,7.5-12.8,11.1c-0.6,0.5-1.2,1-1.8,1.5c-0.6,0.5-1.2,1-1.7,1.5
		c-0.2,0.1-0.3,0.3-0.5,0.4c-10.5,8.8-21.2,17.4-32.1,25.7c-1.1,0.8-2.1,1.6-3.2,2.4c-0.2,0.1-0.3,0.2-0.4,0.3
		c-3.5,2.6-7,5.2-10.5,7.8c-3.2,2.4-6.5,4.7-9.7,7c-1.2,0.8-2.4,1.7-3.5,2.5c-11.5,8.1-23.3,15.8-35.2,23.3
		c-1.8,1.1-3.7,2.3-5.5,3.4c-1.1,0.7-2.2,1.4-3.4,2.1c-5.7,3.5-11.5,6.9-17.4,10.2c-1.5,0.9-3.1,1.8-4.6,2.6
		c-14.9,8.3-30.3,15.8-46.2,22.2c-14,5.5-28.1,10.4-43.6,11c-2.2-0.2-4.6-0.2-6.9-0.5c-8.8-1.4-13.6-7-13.4-15.8
		c0-4.8,1.4-9.3,3.1-13.7c4.6-11.6,11.4-21.9,18.7-31.8c9.2-12.3,19.1-23.9,29.6-35c1.4-1.5,2.9-3,4.3-4.5c1-1,2-2.1,3-3.1
		c1-1,1.9-2,2.9-3c1.8-1.8,3.5-3.5,5.3-5.2c0,0,0.1-0.1,0.1-0.1c0.9-0.9,1.9-1.9,2.8-2.8c0.2-0.2,0.4-0.4,0.6-0.6c0,0,0,0,0,0
		c0.1-0.1,0.2-0.2,0.4-0.3c2.9-2.8,5.8-5.5,8.7-8.2c1-1,2.1-1.9,3.1-2.9c0.7-0.7,1.4-1.3,2.2-2c0.7-0.6,1.4-1.3,2.1-1.9
		c0.5-0.5,1.1-1,1.6-1.5c0.6-0.5,1.1-1,1.7-1.5c2.3-2,4.5-4.1,6.8-6.1c0.3-0.2,0.6-0.5,0.8-0.7c0.1-0.1,0.2-0.2,0.3-0.3
		c0.6-0.5,1.2-1,1.7-1.5c0.3-0.2,0.5-0.5,0.8-0.7c2.8-2.4,5.6-4.8,8.4-7.2c1.1-1,2.3-1.9,3.4-2.9c1.1-0.9,2.1-1.8,3.2-2.6
		c2.2-1.8,4.4-3.7,6.7-5.5c0,0,0,0,0,0c2.2-1.8,4.4-3.5,6.6-5.2c0.2-0.2,0.4-0.3,0.6-0.5c0.9-0.7,1.9-1.5,2.8-2.2
		c0.9-0.7,1.8-1.4,2.8-2.1c1.2-1,2.4-1.9,3.6-2.8c3.8-2.9,7.5-5.8,11.4-8.6c0.8-0.6,1.6-1.2,2.4-1.8c1.8-1.3,3.5-2.6,5.3-3.9
		c1-0.8,2.1-1.5,3.1-2.2c2.6-1.9,5.2-3.7,7.7-5.5c0,0,0.1-0.1,0.1-0.1c0.1-0.1,0.3-0.2,0.4-0.3c0.8-0.6,1.7-1.2,2.5-1.8
		c0.2-0.1,0.3-0.2,0.5-0.3c0.1-0.1,0.2-0.1,0.3-0.2c3.6-2.5,7.2-5,10.9-7.5c2.5-1.7,5-3.3,7.4-5c1-0.7,2-1.3,3-2
		c0.3-0.2,0.5-0.3,0.8-0.5c0.9-0.6,1.8-1.2,2.7-1.8c1.1-0.7,2.1-1.4,3.2-2c4.6-2.9,9.3-5.8,13.9-8.7c1.1-0.7,2.1-1.3,3.2-1.9
		c0.8-0.5,1.6-0.9,2.4-1.4c1.1-0.6,2.1-1.3,3.2-1.9c6.4-3.8,12.9-7.4,19.5-10.9c3.8-2,7.6-4,11.5-6c1-0.5,2-1,2.9-1.5
		c3-1.5,6-3,9.1-4.4v0c1.3-0.6,2.7-1.2,4-1.8c2.3-1,4.6-2,6.9-3c9.4-4,19-7.5,29-10.1c8.6-2.3,17.4-4,26.4-2.8
		C665,336.4,670.1,342.1,669.7,351.8z"/>
	<g>
		<path class="st3" d="M299.2,252.3c0,0.1,0,0.2,0,0.2C299.1,252.4,299.1,252.3,299.2,252.3z"/>
		<path class="st3" d="M302,255.2c0.1,0.1,0.2,0.1,0.2,0.1C302.2,255.3,302.1,255.3,302,255.2z"/>
		<path class="st3" d="M219.1,267.9C219.1,267.9,219.1,267.9,219.1,267.9c0-0.1,0.1-0.2,0.1-0.3
			C219.2,267.7,219.1,267.8,219.1,267.9z"/>
		<path class="st3" d="M302.9,249.7c0,0.1-0.1,0.1-0.1,0.2C302.8,249.8,302.9,249.7,302.9,249.7z"/>
		<path class="st3" d="M219.5,266.3c0-0.1,0.1-0.2,0.1-0.3C219.6,266.1,219.6,266.2,219.5,266.3z"/>
		<path class="st3" d="M318.1,247.4c0,0.1-0.1,0.3-0.1,0.4c-0.2,0.7-0.3,1.4-0.3,2.2c0-0.8,0.1-1.5,0.3-2.2
			C318,247.7,318.1,247.5,318.1,247.4z"/>
		<path class="st3" d="M218.4,273.1c0-0.5,0.1-1,0.1-1.5C218.4,272.1,218.4,272.6,218.4,273.1z"/>
		<path class="st3" d="M305.7,258.1c0-0.1,0-0.1,0-0.2c0-0.1,0-0.1,0-0.2c0,0.1,0,0.1,0,0.2C305.7,258,305.7,258.1,305.7,258.1z"/>
		<path class="st3" d="M301.9,255.2c0,0-0.1-0.1-0.1-0.1c-0.2-0.2-0.5-0.4-0.8-0.6c0.3,0.2,0.6,0.4,0.8,0.6
			C301.8,255.1,301.9,255.1,301.9,255.2z"/>
		<path class="st3" d="M218.3,274.8c0-0.4,0-0.8,0-1.2C218.3,274,218.3,274.4,218.3,274.8z"/>
		<path class="st3" d="M218.5,271c0-0.3,0.1-0.7,0.1-1C218.6,270.3,218.6,270.6,218.5,271z"/>
		<path class="st3" d="M220.1,264.9c0.1-0.3,0.3-0.5,0.4-0.8C220.3,264.4,220.2,264.6,220.1,264.9z"/>
		<path class="st3" d="M218.8,269.4c0.1-0.4,0.1-0.7,0.2-1.1C218.9,268.7,218.8,269,218.8,269.4z"/>
		<path class="st3" d="M325.4,248.1C325.4,248.1,325.4,248.1,325.4,248.1C325.4,248.1,325.4,248.1,325.4,248.1z"/>
		<path class="st3" d="M303.8,264.3c0,0-0.1,0-0.1,0.1C303.8,264.4,303.8,264.3,303.8,264.3z"/>
		<path class="st3" d="M227.2,301.3c0.3,0.6,0.7,1.1,1.1,1.7c0.3,0.5,0.6,0.9,1,1.4c-0.3-0.5-0.7-0.9-1-1.4
			C227.9,302.5,227.6,301.9,227.2,301.3z"/>
		<path class="st3" d="M348.8,242.7c2.5-0.9,5-1.8,7.4-2.8c0.2-0.1,0.5-0.2,0.7-0.2c-0.3,0.1-0.5,0.1-0.7,0.2
			C353.8,240.9,351.2,241.7,348.8,242.7z"/>
		<path class="st3" d="M302.3,247.1C302.3,247.1,302.3,247.1,302.3,247.1C302.3,247.1,302.3,247.1,302.3,247.1z"/>
		<path class="st3" d="M332.2,248.1c0.2,0,0.4,0.1,0.6,0.1c0.3,0,0.6,0,0.9,0.1c-0.3,0-0.7-0.1-1-0.1
			C332.6,248.1,332.4,248.1,332.2,248.1z"/>
		<path class="st3" d="M334,242.8c0.5,0.1,1.1,0.3,1.6,0.6C335,243.2,334.5,242.9,334,242.8c-4.3-1-8.6-0.7-12.8,1
			c-0.2,0.1-0.4,0.2-0.5,0.3c0.2-0.1,0.3-0.2,0.5-0.3C325.3,242.2,329.6,241.8,334,242.8z"/>
		<path class="st3" d="M221.7,288.2C221.7,288.3,221.7,288.3,221.7,288.2C221.7,288.3,221.7,288.3,221.7,288.2L221.7,288.2z"/>
		<path class="st3" d="M223.6,260.4c-0.8,0.6-1.5,1.3-2.1,2.1c-0.3,0.3-0.5,0.7-0.7,1.1c0.2-0.4,0.5-0.8,0.8-1.1
			C222.1,261.8,222.8,261.1,223.6,260.4z"/>
		<path class="st3" d="M300.8,245.8c0.7,0.2,1.1,0.6,1.5,1.2C301.9,246.5,301.5,246,300.8,245.8z"/>
		<path class="st3" d="M296,255.8c-0.4-1.4-0.6-2.8-0.7-4.3C295.3,253,295.6,254.5,296,255.8z"/>
		<path class="st3" d="M301.7,264.2c-0.5-0.3-1-0.7-1.5-1.2C300.7,263.5,301.2,264,301.7,264.2z"/>
		<path class="st3" d="M302.3,255.4c0.8,0.4,1.9,0.5,2.7,1.1C304.2,255.9,303.1,255.8,302.3,255.4z"/>
		<path class="st3" d="M220.8,286.7c-0.2-0.3-0.3-0.6-0.4-0.9C220.5,286.1,220.6,286.4,220.8,286.7z"/>
		<path class="st3" d="M319.7,238.7c0.1-2.1,2.5-2.4,4.4-3c1.5-0.5,3-0.7,4.5-0.7c-1.5,0-3,0.2-4.5,0.7
			C322.2,236.3,319.7,236.5,319.7,238.7z"/>
		<path class="st3" d="M321.6,259c-0.1-0.2-0.3-0.3-0.4-0.5C321.3,258.7,321.5,258.8,321.6,259z"/>
		<path class="st3" d="M221.6,288.1c-0.2-0.3-0.4-0.7-0.6-1C221.2,287.5,221.4,287.8,221.6,288.1z"/>
		<path class="st3" d="M325.2,251.6c0.1,0.1,0.1,0.2,0.2,0.3C325.4,251.8,325.3,251.7,325.2,251.6z"/>
		<path class="st3" d="M312.8,249.2C312.8,249.2,312.8,249.2,312.8,249.2c0.7,0,6-5.9,7.1-7.9C318.9,243.3,313.6,249.2,312.8,249.2z
			"/>
		<path class="st3" d="M238.1,314c-1.8-1.5-3.4-3.1-4.9-4.8C234.6,311,236.3,312.5,238.1,314z"/>
		<path class="st3" d="M359.4,238.4c0.1-0.3,0.1-0.6,0.1-1c-0.2-1-0.3-2.2-0.9-3.1c0.5,0.9,0.7,2.1,0.9,3.1
			C359.6,237.8,359.5,238.1,359.4,238.4z"/>
		<path class="st3" d="M333.4,235.6c-0.4-0.1-0.7-0.2-1.1-0.2C332.7,235.5,333,235.6,333.4,235.6c1.2,0.3,2.5,0.5,3.3,1.2
			C335.8,236.2,334.6,236,333.4,235.6z"/>
		<path class="st3" d="M305.3,234.6c0.2,2.1,0.6,4.3,0.8,6.4c0.1,1.1,0.3,2.1,0.5,3c-0.2-0.9-0.3-1.9-0.5-3
			C305.9,238.9,305.5,236.7,305.3,234.6z"/>
		<path class="st3" d="M301.4,250.6c-1.4,0.6-2,1.1-2.2,1.6C299.3,251.7,300,251.2,301.4,250.6c0.5-0.2,1-0.4,1.3-0.7
			C302.4,250.2,301.9,250.4,301.4,250.6z"/>
		<path class="st3" d="M354.6,232.2c-5.8-1.2-8.6-5.5-9.3-11.1c-0.2-1.3-0.4-2.2-0.8-2.8c0.4,0.6,0.7,1.5,0.8,2.8
			C346,226.7,348.8,231,354.6,232.2z"/>
		<path class="st3" d="M315.8,215.6c-1.4-0.5-2.9-0.4-4.5,1.7c-0.5,0.6-1.1,1.2-1.7,1.7c0.6-0.5,1.2-1.1,1.7-1.7
			C312.9,215.2,314.4,215.1,315.8,215.6z"/>
		<path class="st3" d="M328.7,235C328.7,235,328.7,235,328.7,235C328.7,235,328.7,235,328.7,235z"/>
		<path class="st3" d="M356.4,232.5c0.9,0.2,1.5,0.7,1.9,1.2C357.9,233.2,357.3,232.8,356.4,232.5z"/>
		<path class="st3" d="M218.8,280.3c-0.1-0.4-0.1-0.9-0.2-1.3C218.6,279.5,218.7,279.9,218.8,280.3z"/>
		<path class="st3" d="M218.5,278.7c-0.1-0.5-0.1-1-0.1-1.6C218.4,277.6,218.5,278.2,218.5,278.7z"/>
		<path class="st3" d="M320.8,258c-0.1-0.1-0.2-0.2-0.2-0.3C320.6,257.8,320.7,257.9,320.8,258z"/>
		<path class="st3" d="M218.4,276.5c0-0.3,0-0.7,0-1C218.3,275.8,218.3,276.1,218.4,276.5z"/>
		<path class="st3" d="M304.1,264.2C304.1,264.2,304.1,264.2,304.1,264.2c1.1-0.6,1.5-1.7,1.7-2.9
			C305.6,262.5,305.2,263.6,304.1,264.2z"/>
		<path class="st3" d="M220.1,285.4c-0.2-0.4-0.3-0.8-0.5-1.3C219.8,284.5,220,284.9,220.1,285.4z"/>
		<path class="st3" d="M338.9,243.3c0,0,0-0.1-0.1-0.1C338.9,243.2,338.9,243.3,338.9,243.3z"/>
		<path class="st3" d="M341,244.9c-0.9-0.3-1.6-0.8-2.1-1.5C339.4,244,340.1,244.6,341,244.9z"/>
		<path class="st3" d="M219.1,282c-0.1-0.4-0.2-0.7-0.2-1.1C218.9,281.3,219,281.6,219.1,282z"/>
		<path class="st3" d="M219.6,284c-0.2-0.5-0.3-1-0.4-1.5C219.3,283,219.5,283.5,219.6,284z"/>
		<path class="st3" d="M446.9,277.8C446.9,277.8,446.9,277.8,446.9,277.8c0,0-0.1,0-0.1-0.1C446.8,277.8,446.8,277.8,446.9,277.8z"
			/>
		<path class="st3" d="M376.2,337c0-0.1,0-0.1,0-0.2C376.2,336.9,376.2,337,376.2,337z"/>
		<path class="st3" d="M408.6,312.6c10.1-6.8,17.1-17.9,18.3-30.7c0-0.5,0.2-1.1,0.3-1.6c-0.1,0.5-0.2,1.1-0.3,1.6
			C425.7,294.6,418.6,305.7,408.6,312.6z"/>
		<path class="st3" d="M281.9,353c-0.6-0.6-1.1-1.3-1.6-1.9c-0.1-0.1-0.2-0.3-0.3-0.5c0.1,0.2,0.2,0.3,0.3,0.5
			C280.8,351.8,281.3,352.4,281.9,353z"/>
		<path class="st3" d="M386.1,261C386.1,261,386.1,261,386.1,261c1.1-0.7,1.5-1.1,1.9-1.3C387.6,259.9,387.1,260.2,386.1,261z"/>
		<path class="st3" d="M381,314c0.3-0.9,0.5-1.8,0.8-2.7C381.5,312.2,381.3,313.1,381,314c-0.9,3-1.1,5.8,3.7,5.9
			c2.1,0,4.1-0.1,6.1-0.4c-2,0.3-4,0.4-6.1,0.4C379.8,319.8,380.1,317,381,314z"/>
		<path class="st3" d="M418.3,272c-1.2-1.1-2.3-2.2-3.4-3.3c-0.1-0.1-0.3-0.2-0.4-0.3c0.1,0.1,0.3,0.2,0.4,0.3
			C416,269.8,417.1,270.9,418.3,272z"/>
		<path class="st3" d="M346.4,247.9c1.2-0.5,2.5-1,3.7-1.5C348.9,246.9,347.7,247.4,346.4,247.9z"/>
		<path class="st3" d="M283,369.2c0,0.4-0.1,0.7-0.4,1C282.9,369.9,283,369.6,283,369.2z"/>
		<path class="st3" d="M311.9,372.4c-0.7,0.1-1.5-0.2-2.2-0.5C310.5,372.1,311.2,372.5,311.9,372.4z"/>
		<path class="st3" d="M310.2,357.8c-3.7-1.5-7.7-2.6-12.1-3c0,0,0,0,0,0C302.5,355.3,306.5,356.3,310.2,357.8z"/>
		<path class="st3" d="M383.4,289.6c0,0.2,0,0.4,0,0.6c0.3,4.6,0.2,9.1-0.3,13.6c0.5-4.5,0.6-9.1,0.3-13.6
			C383.4,290,383.4,289.8,383.4,289.6z"/>
		<path class="st3" d="M312.9,371.4c0.3-0.6,0.2-1.2-0.1-1.6C313.1,370.2,313.2,370.8,312.9,371.4c-0.2,0.5-0.4,0.7-0.7,0.9
			C312.5,372.1,312.7,371.9,312.9,371.4z"/>
		<path class="st3" d="M277.3,348.8c0.2-0.1,0.4-0.1,0.6-0.1C277.7,348.7,277.5,348.7,277.3,348.8c-0.7,0.2-1.2,0.7-1.4,1.2
			C276.1,349.5,276.5,349,277.3,348.8z"/>
		<path class="st3" d="M319.2,275.8C319.2,275.8,319.2,275.8,319.2,275.8c-3.6,0.8-4.1,2.4-3.7,4.2
			C315.2,278.1,315.6,276.6,319.2,275.8z"/>
		<path class="st3" d="M312.5,252.7c0.5-0.1,1-0.1,1.4,0.1C313.5,252.6,313,252.6,312.5,252.7c-0.9,0.2-1.2,0.8-1.3,1.5
			C311.3,253.5,311.6,252.9,312.5,252.7z"/>
		<path class="st3" d="M385.6,234c-3.8,0.7-6.3,4.2-8.2,11.4c-0.3,1.2-0.7,2-1.2,2.6c0.5-0.6,0.9-1.5,1.2-2.6
			C379.4,238.2,381.8,234.8,385.6,234z"/>
		<path class="st3" d="M309.6,261.9c-0.2,0.8-0.4,1.6-0.7,2.4C309.2,263.6,309.4,262.8,309.6,261.9z"/>
		<path class="st3" d="M378.2,288.8c-6.8,9.5-15,17-26,20.5C363.2,305.7,371.4,298.3,378.2,288.8c0.9-1.2,1.6-2.9,3.2-2.8
			C379.8,285.9,379.1,287.5,378.2,288.8z"/>
		<path class="st3" d="M325.9,302c-1.6-2.4-3.2-4.8-4.5-7.3C322.7,297.2,324.2,299.7,325.9,302c4.9,7.1,9.7,9.7,17.1,9.1
			C335.5,311.8,330.8,309.2,325.9,302z"/>
		<path class="st3" d="M373,249.1c-0.3,0-0.7-0.1-1.1-0.2c-0.3-0.1-0.5-0.1-0.8-0.2c0.3,0.1,0.6,0.1,0.8,0.2
			C372.2,249,372.6,249.1,373,249.1z"/>
		<path class="st3" d="M367.5,247.7c-0.7-0.3-1.3-0.8-1.8-1.4c-0.4-0.5-0.8-1-1.2-1.4c0.4,0.4,0.8,0.8,1.2,1.4
			C366.2,246.9,366.8,247.4,367.5,247.7z"/>
		<path class="st3" d="M287.4,403.1c-1.1-0.9-2-1.9-2.8-2.9C285.4,401.2,286.4,402.2,287.4,403.1c3.6,3.1,7.2,6,11.5,8.2
			c6.1,3.2,12,6.4,16.4,11.6c-4.4-5.2-10.4-8.4-16.4-11.6C294.7,409.1,291,406.2,287.4,403.1z"/>
		<path class="st3" d="M317.4,258c-0.7-1.2-1.3-2.4-2-3.6c0,0-0.1-0.1-0.1-0.1c0,0,0.1,0.1,0.1,0.1
			C316.1,255.6,316.7,256.8,317.4,258z"/>
		<path class="st3" d="M342.7,252.4c0.1-1.8,0.6-2.9,1.9-3.6C343.3,249.5,342.7,250.5,342.7,252.4c-0.1,2.7-0.4,4.8-1,6.5
			C342.3,257.2,342.6,255.1,342.7,252.4z"/>
		<polygon class="st3" points="376.2,337.8 376.2,337.8 376.2,337.8 		"/>
		<path class="st3" d="M278.3,372.3C278.3,372.2,278.3,372.2,278.3,372.3C278.3,372.2,278.3,372.2,278.3,372.3z"/>
		<path class="st3" d="M284.2,301.6c-2.7-9.6-6.9-18-12.7-25.1C277.3,283.6,281.5,292,284.2,301.6c2.2,8,1.8,15.8-5.4,22
			c-6.9,5.9-20.8,4.1-29.4-0.6c8.7,4.6,22.5,6.4,29.4,0.6C286,317.5,286.4,309.6,284.2,301.6z"/>
		<path class="st3" d="M277,359c-0.7-1.2-1.2-2.4-1.5-3.7C275.8,356.6,276.4,357.9,277,359z"/>
		<path class="st3" d="M281.5,394.6c-1-2.9-1.3-6-1.2-9.2C280.2,388.6,280.5,391.7,281.5,394.6z"/>
		<path class="st3" d="M278.3,348.8C278.3,348.8,278.4,348.8,278.3,348.8C278.4,348.8,278.3,348.8,278.3,348.8z"/>
		<path class="st3" d="M434,278.6c0-0.5,0.1-1,0.1-1.3C434.1,277.7,434,278.1,434,278.6c-0.4,8.5-2.7,16.2-6.3,22.7
			C431.3,294.8,433.6,287.2,434,278.6z"/>
		<path class="st3" d="M277.9,348.7c0.1,0,0.2,0,0.3,0C278.1,348.7,278,348.7,277.9,348.7z"/>
		<path class="st3" d="M324.4,261.4c1,0.6,2,1.1,3.1,1.2c0.8,0.1,1.5,0.2,2.3,0.1c-0.8,0-1.5,0-2.3-0.1
			C326.5,262.5,325.4,262,324.4,261.4z"/>
		<path class="st3" d="M338.6,258.9c0.8-0.9,1.3-2,1.6-3.1c-0.1-0.6,0-1.5,0.1-2.4c0,0.9-0.2,1.7-0.1,2.4
			C339.9,257,339.3,258,338.6,258.9z"/>
		<path class="st3" d="M378.1,329.2c-0.7,1.4-1.1,3.4-1.7,6.6c0,0.1,0,0.1,0,0.1c0,0,0-0.1,0-0.1
			C377.1,332.7,377.5,330.6,378.1,329.2z"/>
		<path class="st3" d="M339.3,250.7c-0.2-0.1-0.4-0.2-0.6-0.3c-0.1,0-0.2-0.1-0.3-0.1c0.1,0,0.2,0.1,0.3,0.1
			C338.9,250.5,339.1,250.6,339.3,250.7z"/>
		<path class="st3" d="M330.7,253.6c-0.6,0.6-1.3,0.8-2,0.6C329.5,254.4,330.2,254.2,330.7,253.6z"/>
		<path class="st3" d="M305.3,365.2c-1.1-1.1-2-2.3-2.8-3.5C303.3,362.9,304.2,364.1,305.3,365.2z"/>
		<path class="st3" d="M323.1,428.8c0.3-0.2,0.6-0.3,0.9-0.5C323.7,428.4,323.4,428.6,323.1,428.8
			C323.1,428.8,323.1,428.8,323.1,428.8z"/>
		<path class="st3" d="M306.8,273.2c-0.1-0.1-0.2-0.2-0.3-0.3C306.6,273,306.7,273.1,306.8,273.2z"/>
		<path class="st3" d="M445.5,277.1C445.5,277.1,445.5,277.1,445.5,277.1C445.5,277.1,445.5,277.1,445.5,277.1z"/>
		<path class="st3" d="M322.4,429.1C322.4,429.1,322.3,429.1,322.4,429.1C322.3,429.1,322.4,429.1,322.4,429.1z"/>
		<path class="st3" d="M342,414C342,414,342,414,342,414C342,414,342,414,342,414z"/>
		<path class="st3" d="M344.6,248.7c0.1-0.1,0.2-0.1,0.4-0.2C344.9,248.6,344.7,248.6,344.6,248.7z"/>
		<path class="st3" d="M446.2,277.4c0,0,0.1,0,0.1,0.1C446.3,277.5,446.3,277.4,446.2,277.4z"/>
		<path class="st3" d="M307.4,273.6c-0.1-0.1-0.3-0.1-0.4-0.2C307.1,273.5,307.3,273.5,307.4,273.6z"/>
		<path class="st3" d="M309.7,371.8C309.7,371.8,309.7,371.8,309.7,371.8C309.7,371.8,309.7,371.8,309.7,371.8z"/>
		<path class="st3" d="M325.1,251.4c0,0,0-0.1-0.1-0.2C325,251.3,325,251.3,325.1,251.4z"/>
		<path class="st3" d="M337,419.3c1.6-1.5,3.2-3.1,4.6-4.8c0.1-0.1,0.2-0.3,0.4-0.4c-0.1,0.2-0.2,0.3-0.4,0.4
			C340.2,416.2,338.7,417.8,337,419.3z"/>
		<path class="st3" d="M312,372.3c0.1,0,0.1,0,0.2-0.1C312.1,372.3,312,372.3,312,372.3z"/>
		<path class="st7" d="M384.3,337c17.4-0.5,30.4-4.6,40.9-13c12.7-10.2,19.5-22.9,20.7-38.9c0.1-1.8,0.3-3.5,0.4-5.3
			c0.1-1,0.4-1.7,0.6-2.1c0,0-0.1,0-0.1-0.1c-0.1-0.1-0.3-0.2-0.4-0.2c0,0-0.1,0-0.1-0.1c-0.2-0.1-0.4-0.2-0.7-0.3c0,0,0,0-0.1,0
			c-1.6-0.6-3.8-1.1-7-1.7c-2.7-0.6-3.9-0.3-4.3,1.9c-0.1,0.4-0.1,0.8-0.1,1.3c-0.4,8.5-2.7,16.1-6.3,22.7
			c-8,14.3-23,23.3-40.5,24.8c-5.8,0.5-7.8,0.8-9,3.2c-0.7,1.4-1.1,3.4-1.7,6.6c0,0.1,0,0.1,0,0.1c-0.1,0.3-0.1,0.5-0.1,0.8
			c0,0.1,0,0.1,0,0.2c0,0.3,0,0.6,0,0.8c0,0,0,0,0,0C378.4,337.2,381,337.1,384.3,337z"/>
		<path class="st7" d="M279.7,307.4c-0.4-18.4-19.6-41.6-37.8-45.5c-11.7-2.5-19.5,4.2-18.9,16.2c1,18,18.6,39.6,36,44.2
			C271,325.4,279.9,319,279.7,307.4z M272,298.2c-6.4-13.2-14.6-23.5-28.7-28.8C253.1,267.3,272.5,287,272,298.2z"/>
		<path class="st120" d="M278.8,323.6c7.2-6.2,7.6-14,5.4-22c-2.7-9.6-6.9-18-12.6-25.1c-6.5-8-14.9-14.2-25.4-18.7
			c-7.7-3.3-17.1-1.9-22.6,2.5c-0.8,0.6-1.5,1.3-2.1,2.1c-0.3,0.3-0.5,0.7-0.8,1.1c-0.1,0.2-0.2,0.3-0.3,0.5
			c-0.1,0.3-0.3,0.5-0.4,0.8c-0.2,0.4-0.3,0.7-0.4,1.1c0,0.1-0.1,0.2-0.1,0.3c-0.1,0.4-0.3,0.8-0.4,1.3c0,0.1-0.1,0.2-0.1,0.3
			c0,0.1-0.1,0.3-0.1,0.4c-0.1,0.3-0.2,0.7-0.2,1.1c0,0.2-0.1,0.4-0.1,0.6c0,0.3-0.1,0.6-0.1,1c0,0.2-0.1,0.4-0.1,0.6
			c0,0.5-0.1,1-0.1,1.5c0,0.2,0,0.3,0,0.5c0,0.4,0,0.8,0,1.2c0,0.2,0,0.4,0,0.7c0,0.3,0,0.7,0,1c0,0.2,0,0.4,0,0.6
			c0,0.5,0.1,1.1,0.1,1.6c0,0.1,0,0.2,0,0.3c0.1,0.4,0.1,0.9,0.2,1.3c0,0.2,0.1,0.4,0.1,0.6c0.1,0.4,0.1,0.7,0.2,1.1
			c0,0.2,0.1,0.3,0.1,0.5c0.1,0.5,0.3,1,0.4,1.5c0,0,0,0.1,0,0.1c0.1,0.4,0.3,0.9,0.5,1.3c0.1,0.1,0.1,0.3,0.2,0.4
			c0.1,0.3,0.3,0.6,0.4,0.9c0.1,0.1,0.1,0.3,0.2,0.4c0.2,0.4,0.4,0.7,0.6,1c0,0,0,0.1,0.1,0.1c0,0,0,0,0,0c-0.5-3.3-1.3-6.5-1.6-9.8
			c-1.2-12.8,6.8-20.7,19.5-19.6c6.3,0.5,11.8,3.1,16.8,6.7c14.8,10.6,25.4,24.1,25.8,43.1c0.3,11.3-6.5,17.2-17.7,17.3
			c-8.3,0-15-4.1-21.6-8.2c1.3,2,3.6,3.9,6.5,5.4C258,327.7,271.9,329.5,278.8,323.6z"/>
		<path class="st120" d="M322.3,429.1C322.3,429.1,322.4,429.1,322.3,429.1c0.3-0.1,0.6-0.2,0.8-0.3c0.3-0.2,0.6-0.3,0.9-0.5
			c4.8-2.4,9.1-5.4,13-9c1.6-1.5,3.2-3.1,4.6-4.8c0.1-0.1,0.2-0.3,0.4-0.4c0,0,0,0,0,0c0,0,0,0,0,0c0.8-1.1,1.4-2.2,0.3-3.7
			c-5.7-7.7-7.2-16.9-9.5-25.8c-3.3-12.6-11.4-22-22.6-26.7c-3.7-1.5-7.7-2.6-12.1-3c1.6,2.3,2.9,4.6,4.3,6.8
			c0.9,1.3,1.8,2.5,2.8,3.5c1.4,1.4,3.1,2.6,5.3,3.3c0.8,0.2,1.7,0.6,2.2,1.3c0.3,0.4,0.3,0.9,0.1,1.6c-0.2,0.5-0.4,0.7-0.7,0.9
			c0,0,0,0,0,0c-0.1,0-0.1,0.1-0.2,0.1c0,0,0,0,0,0c-0.7,0.1-1.5-0.2-2.2-0.5c0,0,0,0,0,0c0,0,0,0,0,0c-0.2-0.1-0.3-0.1-0.5-0.2
			c-11.2-3.3-19.8-10.2-27.4-18.6c-0.6-0.6-1.1-1.3-1.6-1.9c-0.1-0.1-0.2-0.3-0.3-0.5c-0.5-0.7-0.8-1.6-1.6-1.9c0,0,0,0,0,0
			c-0.1,0-0.1,0-0.2-0.1c-0.1,0-0.2,0-0.3,0c0,0,0,0,0,0c-0.2,0-0.4,0-0.6,0.1c-0.7,0.2-1.2,0.7-1.4,1.2c-0.4,0.8-0.4,1.9-0.4,2.8
			c-0.1,0.9,0,1.7,0.2,2.6c0.3,1.3,0.8,2.6,1.5,3.7c0,0.1,0.1,0.1,0.1,0.2c1.6,2.7,3.3,5.3,5,8c0.4,0.6,0.8,1.4,0.8,2
			c0,0.4-0.1,0.7-0.4,1c-0.2,0.1-0.5,0.2-0.9,0.3c-2.3,0.2-3.2,0.9-3.3,1.8c0,0,0,0.1,0,0.1c-0.1,1.2,0.8,2.7,1.1,3.9
			c0.4,1.6,1.5,2.9,1.3,4.9c-0.2,1.5-0.3,2.9-0.4,4.3c-0.1,3.2,0.2,6.3,1.2,9.2c0.7,2,1.7,3.9,3.1,5.6c0.8,1,1.7,2,2.8,2.9
			c3.6,3.1,7.3,6,11.5,8.2c6.1,3.2,12,6.4,16.4,11.6c1.1,1.3,2.2,2.8,3.1,4.4C319.3,428.8,320.4,429.7,322.3,429.1z"/>
		<path class="st120" d="M312.8,249.2c0.7,0,6-5.9,7.1-7.9c0.2-0.3,0.2-0.5,0.2-0.6c-0.3-0.8-0.5-1.5-0.5-2.1c0.1-2.1,2.5-2.4,4.4-3
			c1.5-0.5,3-0.7,4.5-0.7c0.1,0,0.1,0,0.2,0c0,0,0,0,0,0c1.2,0,2.4,0.2,3.6,0.4c0.4,0.1,0.7,0.1,1.1,0.2c1.2,0.3,2.5,0.5,3.3,1.2
			c0.9,0.6,1.4,1.7,1.3,3.7c0,0.8,0.2,1.8,0.8,2.7c0,0,0,0.1,0.1,0.1c0,0,0,0,0,0c0.5,0.7,1.2,1.3,2.1,1.5c0.9,0.3,2.1,0.2,3.5-0.4
			c1.4-0.6,2.8-1.2,4.2-1.7c2.5-0.9,5-1.8,7.4-2.8c0.2-0.1,0.5-0.2,0.7-0.2c1-0.2,2.1-0.4,2.5-1.3c0.1-0.3,0.1-0.6,0.1-1
			c-0.2-1-0.3-2.2-0.9-3.1c-0.1-0.2-0.2-0.3-0.3-0.5c-0.4-0.6-1-1-1.9-1.2c-0.2-0.1-0.4-0.1-0.6-0.1c-0.4-0.1-0.8-0.1-1.2-0.2
			c-5.8-1.2-8.6-5.5-9.3-11.1c-0.2-1.3-0.4-2.2-0.8-2.8c-0.9-1.3-2.3-1.1-4.6-0.2c-6.8,2.5-13.6,2.3-20.4-0.6
			c-1.2-0.5-2.4-1.5-3.7-1.9c-1.4-0.5-2.9-0.4-4.5,1.7c-0.5,0.6-1.1,1.2-1.7,1.7c-1.8,1.5-3.7,2.7-3.9,5.4c-1,3.4-0.8,6.8-0.4,10.1
			c0.2,2.1,0.6,4.3,0.8,6.4c0.1,1.1,0.3,2.1,0.5,3C307.4,247.8,309,249.3,312.8,249.2z"/>
		<path class="st120" d="M383.4,289.6c0,0.2,0,0.4,0,0.6c0.3,4.6,0.2,9.1-0.3,13.6c-0.3,2.5-0.7,5-1.4,7.5c-0.2,0.9-0.5,1.8-0.8,2.7
			c-0.9,3-1.1,5.8,3.7,5.9c2.1,0,4.1-0.1,6.1-0.4c6.5-0.9,12.6-3.3,17.8-6.9c10-6.8,17.1-17.9,18.3-30.7c0-0.5,0.2-1.1,0.3-1.6
			c0.1-0.7,0-1.3-0.8-1.8c-2.9-1.9-5.6-4.1-8.1-6.5c-1.2-1.1-2.3-2.2-3.4-3.3c-0.1-0.1-0.3-0.2-0.4-0.3c-0.6-0.3-1.2-0.2-2,0
			c-10.2,2.9-17.6-3.3-26.5-7.5c0,0,0,0,0,0c0,0,0,0,0,0c1.1-0.7,1.5-1.1,1.9-1.3c0.1,0,0.1,0,0.2-0.1c7.9-2,11.1-5.8,10.6-12.4
			c-0.6-7.2-4.6-12.6-9.8-13.2c-1.2-0.1-2.3-0.1-3.3,0.1c-3.8,0.7-6.3,4.2-8.2,11.4c-0.3,1.2-0.7,2-1.2,2.6c-0.8,0.9-1.8,1.2-3.3,1
			c-0.3,0-0.7-0.1-1.1-0.2c-0.3-0.1-0.5-0.1-0.8-0.2c-1.2-0.3-2.4-0.5-3.5-1c-0.7-0.3-1.3-0.8-1.8-1.4c-0.4-0.5-0.8-1-1.2-1.4
			c-3.2-3.2-6.8-2-10.6-0.2c-1.2,0.6-2.5,1.1-3.8,1.7c-1.2,0.5-2.5,1-3.7,1.5c-0.4,0.2-0.8,0.3-1.2,0.5c-0.1,0-0.2,0.1-0.3,0.1
			c-0.1,0.1-0.3,0.1-0.4,0.2c0,0,0,0,0,0c-1.3,0.7-1.8,1.8-1.9,3.6c-0.1,2.7-0.4,4.8-1,6.5c-1.1,3.1-3.5,4.6-7.8,5.7
			c-7.4,1.9-12.4,0.1-16.2-6.1c-0.1-0.2-0.2-0.3-0.3-0.5c-0.7-1.2-1.3-2.4-2-3.6c0,0-0.1-0.1-0.1-0.1c-0.4-0.7-0.9-1.2-1.5-1.4
			c-0.4-0.2-0.9-0.2-1.4-0.1c-0.9,0.2-1.2,0.8-1.3,1.5c-0.1,0.3-0.1,0.6-0.2,0.9c-0.4,2.3-0.9,4.5-1.4,6.8c-0.2,0.8-0.4,1.6-0.7,2.4
			c-0.5,1.8-1.2,3.6-2.1,5.3c-0.7,1.4-0.8,2.5-0.3,3.2c0.1,0.1,0.2,0.2,0.3,0.3c0.1,0.1,0.1,0.1,0.2,0.2c0.1,0.1,0.3,0.2,0.4,0.2
			c0.5,0.3,1.2,0.5,2.1,0.6c2.8,0.4,5.8-0.5,9.7,1.5c0,0,0,0,0,0c0,0,0,0,0,0c-3.6,0.8-4,2.4-3.7,4.2c0.2,0.8,0.5,1.7,0.7,2.5
			c1.2,4.3,3,8.4,5.1,12.3c1.4,2.5,2.9,4.9,4.5,7.3c4.9,7.1,9.7,9.7,17.1,9.1c1.2-0.1,2.5-0.3,4-0.5c1.9-0.4,3.6-0.8,5.3-1.4
			c11-3.6,19.2-11,26-20.5c0.9-1.2,1.6-2.9,3.2-2.8c0.2,0,0.5,0.1,0.7,0.1C383.9,286.7,383.5,288.3,383.4,289.6z M325.6,292.1
			c-0.2-0.2-0.8-0.6-1-1.2c-0.3-0.8,0.6-1.2,1.1-1.4c3.2-1.5,6-3.3,8.2-6.1c0.3-0.4,1.1-0.6,1.7-0.7c0.2,0,0.7,0.8,0.7,1.2
			C336.4,286.6,328.6,292.8,325.6,292.1z M383.7,246.6c-0.3,0.1-1.1-0.3-1.1-0.5c-0.4-2.6,1.1-4.3,3-5.5c1.9-1.2,4.2-2.1,6.1-0.1
			c1.1,1.2-0.2,1.8-1.2,1.9c-1.5,0.2-3.1-0.1-4.3,2c2.4,1.1,4.9,1.8,5.8,4.5c0.4,1.3,0.3,2.6-1,3.1c-1.9,0.8-1.6-1-2-2
			C388,247.8,387.4,244.7,383.7,246.6z"/>
		<path class="st120" d="M325.4,248.1C325.4,248.1,325.4,248.1,325.4,248.1c0.9-0.8,2.2-0.7,3.3-0.6c1.2,0.1,2.3,0.4,3.5,0.6
			c0.2,0,0.4,0.1,0.6,0.1c0.3,0,0.6,0.1,1,0.1c1.6,0.2,3.5,0.6,3.8-1.5c0.2-1.4-0.7-2.6-2-3.3c-0.5-0.3-1-0.5-1.6-0.6
			c-4.3-1-8.6-0.7-12.8,1c-0.2,0.1-0.4,0.2-0.5,0.3c-1.3,0.7-2,1.9-2.5,3.3c0,0.1-0.1,0.3-0.1,0.4c-0.2,0.7-0.3,1.4-0.3,2.2
			c0,2.5,1.2,5.3,2.8,7.7c0.1,0.1,0.2,0.2,0.2,0.3c0.1,0.2,0.3,0.3,0.4,0.5c0.1,0.2,0.3,0.3,0.4,0.5c0.9,1,1.8,1.8,2.8,2.4
			c1,0.6,2,1.1,3.1,1.2c0.8,0.1,1.5,0.2,2.3,0.1c3.5-0.1,6.8-1.5,8.7-3.9c0.8-0.9,1.3-2,1.6-3.1c-0.1-0.6,0-1.5,0.1-2.4
			c0-1.1-0.1-2.2-1-2.8c-0.2-0.1-0.4-0.2-0.6-0.3c-0.1,0-0.2-0.1-0.3-0.1c-2.2-0.6-5.4-1.3-6.9,2.2c-0.2,0.5-0.4,0.8-0.7,1.1
			c-0.6,0.6-1.3,0.8-2,0.6c-0.3-0.1-0.7-0.2-1-0.5c-0.7-0.5-1.6-1.1-2.2-1.8c-0.1-0.1-0.1-0.2-0.2-0.3c-0.1-0.1-0.1-0.2-0.2-0.3
			c0,0,0-0.1-0.1-0.2c-0.3-0.6-0.4-1.2-0.2-2C324.9,248.7,325.1,248.4,325.4,248.1z"/>
		<path class="st120" d="M305.8,261.3c0.1-1,0-2.2,0-3.2c0-0.1,0-0.1,0-0.2c0-0.1,0-0.1,0-0.2c-0.1-0.6-0.4-1-0.7-1.3
			c-0.7-0.6-1.8-0.7-2.7-1.1c0,0,0,0,0,0c-0.1,0-0.2-0.1-0.2-0.1c0,0-0.1-0.1-0.1-0.1c0,0-0.1-0.1-0.1-0.1c-0.2-0.2-0.5-0.4-0.8-0.6
			c-0.9-0.6-1.8-1.2-1.8-1.9c0-0.1,0-0.2,0-0.2c0,0,0,0,0,0c0.2-0.5,0.8-1,2.2-1.6c0.5-0.2,1-0.4,1.3-0.7c0,0,0,0,0.1-0.1
			c0-0.1,0.1-0.1,0.1-0.2c0.2-0.3,0.2-0.6,0-1.2c-0.2-0.5-0.3-1-0.6-1.4c0,0,0,0,0,0c0,0,0,0,0-0.1c-0.3-0.5-0.8-1-1.5-1.2
			c-0.2-0.1-0.4-0.1-0.6-0.1c-3.4-0.3-4.9,1.7-4.9,4.7c0,0.4,0,0.8,0,1.2c0,1.5,0.3,2.9,0.7,4.3c0.6,2.1,1.6,4,3,5.8
			c0.4,0.5,0.8,1,1.3,1.5c0.5,0.5,1,0.9,1.5,1.2c0.6,0.3,1.3,0.4,2,0.2c0,0,0.1,0,0.1-0.1c0.1,0,0.2-0.1,0.3-0.1
			C305.2,263.6,305.6,262.5,305.8,261.3z"/>
		<path d="M326.7,454.1C326.7,454.1,326.7,454.1,326.7,454.1c0-0.1-0.1-0.2-0.2-0.3C326.5,453.9,326.6,454,326.7,454.1z"/>
		<path d="M368.5,425.5l0.1,0c0.1,0,0.2,0,0.3,0.1c-0.4-1.2-1.2-2.2-2-3c-3-3.1-5.9-6.2-8.9-9.5c-1.2-1.3-2.5-2.7-3.8-4.1
			c-0.7-0.7-1.5-1.2-2.4-1.5c0.3,0.4,0.6,0.7,0.8,1.1C357.8,414.4,362.8,420.3,368.5,425.5z"/>
		<path d="M325.4,452.1c-2.1-4.6-7.2-9.2-6.6-13.1c0.1-0.5,0.2-0.9,0.5-1.3c-0.3,0.4-0.4,0.8-0.5,1.3
			C318.2,442.9,323.3,447.5,325.4,452.1c0.3,0.7,0.6,1.2,1,1.7C326,453.3,325.7,452.7,325.4,452.1z"/>
		<path d="M350.4,412.6C350.4,412.6,350.4,412.6,350.4,412.6c4.5,4.9,8.6,9.4,12.8,13.7c0,0,0.1,0.1,0.1,0.1c0,0,0,0,0,0
			c0,0-0.1-0.1-0.1-0.1C359,422,354.9,417.5,350.4,412.6z"/>
		<path d="M348.5,415.7c-4.6,7-10.5,12.3-17.6,16.5c-2.4,1.4-5.9,2.2-8.5,3.3c2.6-1.1,6.1-1.9,8.5-3.3
			C338,428,343.9,422.7,348.5,415.7z"/>
		<path d="M326.8,454.3C326.8,454.3,326.8,454.3,326.8,454.3C326.9,454.3,326.9,454.3,326.8,454.3
			C326.8,454.3,326.8,454.3,326.8,454.3z"/>
		<path class="st7" d="M330.7,451.9c11.8-4.7,21.7-12.2,29.4-22.4c0.5-0.7,1.6-2.1,3.2-3.1c0,0-0.1-0.1-0.1-0.1
			c-4.2-4.4-8.3-8.9-12.8-13.7c-0.6,1.1-1.2,2.1-1.9,3.1c-4.6,7-10.5,12.3-17.6,16.5c-2.4,1.4-5.9,2.2-8.5,3.3
			c-1.4,0.6-2.5,1.3-3.2,2.2c-0.3,0.4-0.4,0.8-0.5,1.3c-0.6,3.9,4.5,8.6,6.6,13.1c0.3,0.7,0.6,1.2,1,1.7c0,0,0,0,0.1,0.1
			c0.1,0.1,0.2,0.2,0.3,0.3c0,0,0.1,0.1,0.1,0.1c0,0,0,0,0,0C328.2,452.9,329.9,452.2,330.7,451.9z"/>
		<path d="M414.9,484.6c0.8,0.4,1.7,0.7,2.5,1C416.6,485.2,415.7,484.9,414.9,484.6c-16.8-7-31.1-17.7-43.7-30.8
			c-0.4-0.4-0.8-0.8-1.1-1.2c0.4,0.4,0.7,0.8,1.1,1.2C383.8,466.9,398,477.5,414.9,484.6z"/>
		<path d="M449.6,483.9c3.4-3.5,5.9-8.4,7.3-14.5c3.7-15.8,2.3-31.2-1.9-46.5c4.2,15.2,5.6,30.7,1.9,46.5
			C455.5,475.6,453,480.4,449.6,483.9z"/>
		<path d="M448.2,279.3c0.2,0.5,0.3,1,0.4,1.6C448.5,280.3,448.4,279.8,448.2,279.3z"/>
		<path d="M506.2,398.5c10.7,11.5,19.3,24.2,26,38C525.5,422.7,516.9,410,506.2,398.5z"/>
		<path d="M543.7,468.5C543.7,468.5,543.7,468.5,543.7,468.5c1-13.2-12.9-46.5-35.9-71.8C530.8,421.9,544.7,455.3,543.7,468.5z"/>
		<path d="M376.6,339C376.6,339,376.6,339,376.6,339C376.6,339,376.6,339,376.6,339z"/>
		<path d="M451,414.6c-0.2,0.3-0.6,0.6-0.5,0.8C450.4,415.2,450.8,414.9,451,414.6z"/>
		<path d="M454.6,358c-11.3-5.4-21.4-8.8-28.2-9.7C433.1,349.2,443.3,352.6,454.6,358z"/>
		<path d="M453.3,417C453.3,417,453.3,417,453.3,417C453.3,417,453.3,417,453.3,417z"/>
		<path d="M453,415.9c0.1,0.3,0.2,0.7,0.3,1C453.2,416.5,453.1,416.2,453,415.9z"/>
		<path d="M448.6,281c0,0.2,0,0.3,0,0.5C448.6,281.3,448.6,281.1,448.6,281z"/>
		<path d="M449.6,375.1c-18.7-9.9-39.4-15.3-62.6-14.7c0,0,0.1,0,0.1,0C410.3,359.8,431,365.1,449.6,375.1z"/>
		<path d="M379.4,340.1c-0.1,0-0.2,0-0.2,0C379.2,340.1,379.3,340.1,379.4,340.1z"/>
		<path d="M523.2,480.5c-0.7-12.7-3.5-24.4-7.9-35.4C519.7,456,522.5,467.8,523.2,480.5C523.2,480.5,523.2,480.5,523.2,480.5z"/>
		<path d="M410.9,363.3c8.3,1.7,16.2,4.2,23.9,7.3C427.1,367.4,419.2,365,410.9,363.3z"/>
		<path d="M429.2,350.5c-2.8-0.8-5.6-1.6-8.4-2.2c0,0,0,0,0,0C423.6,348.9,426.4,349.7,429.2,350.5z"/>
		<path d="M377.4,339.7c0,0-0.1,0-0.1-0.1C377.3,339.7,377.4,339.7,377.4,339.7z"/>
		<path d="M378,339.9c-0.1,0-0.1,0-0.2,0C377.9,339.9,378,339.9,378,339.9z"/>
		<path d="M451,414.5C451,414.5,451,414.5,451,414.5c0.2,0,0.3,0,0.4,0C451.3,414.6,451.2,414.5,451,414.5z"/>
		<path d="M377,339.4C376.9,339.4,376.9,339.4,377,339.4C376.9,339.4,376.9,339.4,377,339.4z"/>
		<path d="M412.6,511c-23.4-9.7-42.3-25.2-57.9-45c-1.5-1.9-2.7-4.3-5.4-5.6c0.7,3.4,0.7,3.5,2.2,5.4c12.2,15.7,26.4,29.2,43.6,39.3
			c10.7,6.3,22,11.2,34.6,12.8c21.1,2.7,39.4-7,47.1-25c4.9-11.4,6.6-23.4,6.4-35.7c-0.1-4.4,0.1-8.9-2.1-13.8
			c-2.2,2.7-1.2,4.9-1,6.8c1.1,9.8,0.4,19.5-1.5,29.1c-4.6,23.2-20.3,36.9-42.1,36.8C428.3,515.8,420.3,514.2,412.6,511z"/>
		<path d="M364.1,447.5C364.1,447.5,364.1,447.5,364.1,447.5c1.3,0.6,2.3,1.3,3.2,2.1C366.4,448.8,365.4,448.1,364.1,447.5z"/>
		<path d="M378.6,340c-0.1,0-0.1,0-0.2,0C378.5,340,378.5,340,378.6,340z"/>
		<path d="M448,279c0,0.1,0.1,0.2,0.1,0.3C448.1,279.2,448.1,279.1,448,279z"/>
		<path d="M591.5,420.7C591.5,420.7,591.5,420.7,591.5,420.7c-2.4-5.1-4.6-10.3-7-15.4C586.9,410.4,589.1,415.6,591.5,420.7z"/>
		<path d="M446.9,277.8C446.9,277.8,446.9,277.8,446.9,277.8C446.9,277.8,446.9,277.8,446.9,277.8
			C446.9,277.8,446.9,277.8,446.9,277.8z"/>
		<path d="M533.6,358.8c-1.6-1.5-3.1-3-4.7-4.5C530.4,355.8,532,357.3,533.6,358.8c20.8,20.2,35.4,44.3,45,71.4
			C569,403,554.4,379,533.6,358.8z"/>
		<path d="M580.3,435.5C580.3,435.5,580.3,435.5,580.3,435.5c1.7-10.4-16.9-51.2-45-78.6c-17.6-17.1-41.2-31.9-58.6-39.3
			c17.4,7.5,41,22.2,58.6,39.4C563.4,384.3,582,425.1,580.3,435.5z"/>
		<path d="M473.3,298.3c-4.1-1.3-7.5-1.9-10.1-1.7c0,0,0,0,0,0C465.8,296.4,469.3,297,473.3,298.3z"/>
		<path d="M499.6,312.7c-4.7-2.6-9.4-4.9-14.3-7.1C490.2,307.8,495,310.1,499.6,312.7z"/>
		<path d="M584.5,405.1C584.5,405.1,584.5,405.1,584.5,405.1C584.5,405.1,584.5,405.1,584.5,405.1z"/>
		<path d="M447.1,295.5c-2.1,7.3-5.1,13.8-9.1,19.3C442,309.3,445,302.8,447.1,295.5c0.3-2.2,0.8-4.8,1.1-7.4c0.3-3,0.5-5.1,0.5-6.7
			c0.1,1.6-0.1,3.7-0.5,6.7C447.9,290.8,447.4,293.3,447.1,295.5z"/>
		<path d="M539.7,342c-8.3-7.7-17.1-14.7-26.5-21C522.6,327.3,531.5,334.3,539.7,342z"/>
		<path d="M566.5,373c-6.5-9.3-13.7-18.1-21.8-26.2C552.8,354.9,560,363.6,566.5,373z"/>
		<path d="M457.1,312.5c3.7,1.2,7.4,2.4,11,3.8C464.4,315,460.8,313.7,457.1,312.5C457.1,312.5,457.1,312.5,457.1,312.5z"/>
		<path d="M519.1,376.8c9.8,9.6,18.1,20,25.2,31.2C537.2,396.8,528.8,386.4,519.1,376.8c-21.5-21.1-46.3-36.9-75.1-46.1c0,0,0,0,0,0
			C472.8,340,497.6,355.8,519.1,376.8z"/>
		<path d="M447,277.9c0.2,0.1,0.4,0.3,0.5,0.4C447.3,278.2,447.2,278,447,277.9z"/>
		<path d="M584.9,401.5c-7.5-17.9-17.9-33.9-30.8-48.4C566.9,367.6,577.4,383.6,584.9,401.5z"/>
		<path d="M447.8,278.7c0.1,0.1,0.1,0.2,0.2,0.2C447.9,278.8,447.8,278.7,447.8,278.7z"/>
		<path d="M447.5,278.3c0.1,0.1,0.1,0.1,0.2,0.2C447.7,278.5,447.6,278.4,447.5,278.3z"/>
		<path d="M413.8,334c1-0.4,1.9-0.9,2.9-1.3c1-0.5,1.9-1,2.9-1.5c-0.9,0.5-1.9,1-2.9,1.5C415.7,333.2,414.7,333.6,413.8,334z"/>
		<path d="M564.8,451.8C564.8,451.8,564.8,451.8,564.8,451.8c-3.8-11.4-8.5-22.3-14-32.6C556.3,429.5,561,440.4,564.8,451.8z"/>
		<path d="M378.8,433.6c0,0,0-0.1,0-0.1c-1.8-1.6-3.6-3.3-5.3-5c-1.2-1.1-2.6-2.4-4.5-2.9c0.1,0.1,0.1,0.3,0.1,0.4
			C372,428.8,375.2,431.4,378.8,433.6z"/>
		<polygon points="376.2,337.8 376.2,337.8 376.2,337.8 		"/>
		<path d="M604.4,412.8c-4.9-12.7-9.8-25.1-16.7-36.5c-23-38.3-56-68-98-88.3c-9.6-4.7-21.1-9.8-33.3-12.8c-0.7-0.2-1.4-0.3-2.1-0.5
			c4.8,1.6,9.6,3.3,14.4,5c40.4,14.5,73.9,38.9,100.8,72.1c15.6,19.3,27.5,40.7,34.4,64.7c1.1,4,1.2,7.7,0.1,11.8
			c-0.7,2.7-1.4,5.3-2.2,7.9c0.5-0.9,0.9-1.8,1.3-2.8C606.6,426.1,607,419.6,604.4,412.8z"/>
		<path d="M454.6,358c0.1,0.1,0.3,0.1,0.4,0.2C454.9,358.2,454.8,358.1,454.6,358z"/>
		<path d="M446.3,279.9c-0.2,1.8-0.3,3.5-0.4,5.3c-1.2,16-8,28.7-20.7,38.9c-10.5,8.4-23.5,12.5-40.9,13c-3.3,0.1-5.9,0.2-8,0.8
			c0,0,0,0,0,0c0,0.5,0.1,0.8,0.3,1.1c0,0,0,0.1,0.1,0.1c0.1,0.1,0.2,0.2,0.3,0.3c0,0,0.1,0,0.1,0.1c0.1,0.1,0.2,0.1,0.3,0.2
			c0,0,0.1,0,0.1,0.1c0.1,0.1,0.3,0.1,0.4,0.2c0.1,0,0.1,0,0.2,0c0.1,0,0.2,0.1,0.4,0.1c0.1,0,0.1,0,0.2,0c0.2,0,0.4,0,0.6,0.1
			c0.1,0,0.2,0,0.2,0c0.2,0,0.4,0,0.7,0c11.7,0.1,23-1.5,33.7-6.1c1-0.4,2-0.9,2.9-1.3c1-0.5,1.9-1,2.9-1.5
			c7.6-4.2,13.8-9.7,18.5-16.3c4-5.6,7-12,9.1-19.3c0.3-2.2,0.8-4.8,1.1-7.4c0.3-3,0.5-5.1,0.5-6.7c0,0,0,0,0,0c0-0.2,0-0.3,0-0.5
			c0,0,0,0,0,0c-0.1-0.6-0.2-1.1-0.4-1.6c0,0,0,0,0-0.1c0-0.1-0.1-0.2-0.1-0.3c0,0,0-0.1-0.1-0.1c-0.1-0.1-0.1-0.2-0.2-0.2
			c0,0,0-0.1-0.1-0.1c-0.1-0.1-0.1-0.2-0.2-0.2c0,0,0,0,0,0c-0.2-0.2-0.3-0.3-0.5-0.4c0,0,0,0,0,0c0,0,0,0-0.1,0
			C446.7,278.2,446.4,278.9,446.3,279.9z"/>
		<path d="M331.8,454.7c0.2-0.1,0.4-0.1,0.6-0.2c2.3-1,4.6-2,6.7-3.2c-2.2,1.2-4.4,2.2-6.7,3.2C332.1,454.6,331.9,454.7,331.8,454.7
			z"/>
		<path d="M363.6,429.6c0.1-0.1,0.1-0.2,0.2-0.3c0.1-0.1,0.1-0.2,0.1-0.3c0,0,0-0.1,0-0.1c-0.1,0.3-0.3,0.6-0.5,0.9
			C363.5,429.7,363.5,429.6,363.6,429.6z"/>
		<path d="M331.3,454.9c0,0,0.1,0,0.1,0C331.4,454.9,331.3,454.9,331.3,454.9C331.3,454.9,331.3,454.9,331.3,454.9z"/>
		<path d="M330.9,455C331,455,331,455,330.9,455c0,0,0,0-0.1,0L330.9,455z"/>
		<path d="M364.1,428.5c0-0.1,0-0.1,0-0.2c0,0.1-0.1,0.2-0.1,0.4C364,428.7,364,428.6,364.1,428.5z"/>
		<path d="M330.2,455.2C330.2,455.2,330.2,455.2,330.2,455.2C330.2,455.2,330.2,455.2,330.2,455.2
			C330.2,455.2,330.1,455.2,330.2,455.2C330.1,455.2,330.1,455.2,330.2,455.2z"/>
		<path d="M330,455.2c-0.2,0-0.4,0.1-0.7,0.1C329.6,455.3,329.8,455.3,330,455.2z"/>
		<path d="M329.1,455.3c-0.1,0-0.1,0-0.2,0C329,455.3,329,455.3,329.1,455.3z"/>
		<path d="M364.1,428.3c0-0.1,0-0.1,0-0.2c0,0,0,0,0,0c0-0.1,0-0.1,0-0.2C364.1,428,364.1,428.2,364.1,428.3
			C364.1,428.3,364.1,428.3,364.1,428.3z"/>
		<path d="M328.1,455.1C328.1,455.1,328.1,455.1,328.1,455.1C328.1,455.1,328.1,455.1,328.1,455.1
			C328.1,455.1,328.1,455.1,328.1,455.1z"/>
		<path d="M328.6,455.2c0,0-0.1,0-0.1,0C328.5,455.2,328.6,455.2,328.6,455.2z"/>
		<path d="M364.1,427.7C364.1,427.7,364.1,427.7,364.1,427.7c0-0.1,0-0.1-0.1-0.2c0,0,0-0.1,0-0.1c0.1,0.1,0.1,0.3,0.1,0.4
			C364.1,427.8,364.1,427.7,364.1,427.7z"/>
		<path d="M363.5,426.6c-0.1-0.1-0.1-0.2-0.2-0.2c0,0,0,0,0,0C363.3,426.5,363.4,426.6,363.5,426.6z"/>
		<path d="M351.4,442.8c4.3-3.7,8.2-7.9,11.7-12.6c0.1-0.1,0.1-0.2,0.2-0.3c0,0,0,0,0,0c0-0.1,0.1-0.1,0.1-0.2
			c-0.1,0.2-0.2,0.3-0.3,0.5C359.6,435,355.7,439.2,351.4,442.8z"/>
		<path d="M326.9,454.3C326.9,454.3,326.9,454.3,326.9,454.3C326.9,454.3,326.9,454.3,326.9,454.3
			C326.9,454.3,326.9,454.3,326.9,454.3z"/>
		<path d="M368.5,425.5c0.2,0.2,0.4,0.4,0.6,0.5c0-0.1-0.1-0.3-0.1-0.4c-0.1,0-0.2-0.1-0.3-0.1L368.5,425.5z"/>
		<path d="M363.9,427.2c0-0.1-0.1-0.2-0.2-0.3c0,0,0,0,0,0c0.1,0.1,0.2,0.3,0.3,0.4C363.9,427.3,363.9,427.3,363.9,427.2z"/>
		<path d="M360.1,429.5c-7.7,10.2-17.6,17.8-29.4,22.4c-0.8,0.3-2.5,1-3.8,2.4c0,0,0,0,0,0c0.1,0.1,0.2,0.2,0.3,0.3
			c0.1,0.1,0.2,0.1,0.3,0.2c0.2,0.1,0.4,0.2,0.6,0.3c0,0,0,0,0,0c0.1,0,0.3,0.1,0.4,0.1c0,0,0.1,0,0.1,0c0.1,0,0.2,0,0.3,0
			c0.1,0,0.1,0,0.2,0c0.1,0,0.2,0,0.3,0c0.2,0,0.4,0,0.7-0.1c0,0,0,0,0.1,0c0.1,0,0.1,0,0.2,0c0.1,0,0.2,0,0.3-0.1l0.3-0.1
			c0.1,0,0.1,0,0.2-0.1c0.1,0,0.2-0.1,0.3-0.1c0,0,0.1,0,0.1,0c0.1,0,0.2-0.1,0.3-0.1c0,0,0,0,0,0c0.2-0.1,0.4-0.1,0.6-0.2
			c2.3-1,4.6-2,6.7-3.2c4.4-2.4,8.6-5.2,12.4-8.5c4.3-3.7,8.2-7.9,11.7-12.6c0.1-0.2,0.2-0.3,0.3-0.5c0,0,0,0,0-0.1
			c0.2-0.3,0.4-0.6,0.5-0.9c0,0,0-0.1,0-0.1c0-0.1,0.1-0.2,0.1-0.4c0,0,0,0,0,0c0-0.1,0-0.3,0-0.4c0,0,0,0,0,0c0,0,0-0.1,0-0.1
			c0-0.1-0.1-0.3-0.1-0.4c0,0,0,0,0-0.1c-0.1-0.1-0.1-0.3-0.3-0.4c-0.1-0.1-0.1-0.2-0.2-0.3c-0.1-0.1-0.1-0.2-0.2-0.2
			C361.7,427.4,360.6,428.8,360.1,429.5z"/>
		<path class="st7" d="M334.3,459.3c-1,0.4-2.4,0.9-3.9,1.1c0.2,0.4,0.4,0.8,0.7,1.2c9.4,15.5,20.5,29.6,33.4,42.1
			c17,16.5,36.1,30.1,59.6,35.2c26.2,5.7,47.8,0.5,61.2-23.6c14.2-25.5,19.4-51.2,1-77.1c-3.3-4.7-6.4-9.6-10.1-14
			c-22.5-26-49.9-42.8-85-44.7c-1.2-0.1-2.6,0.1-4.1-1.9c10-0.9,18.9,0.6,27.5,3.2c27.1,8.3,49.8,23.4,66.9,46.2
			c12,15.9,20.5,33.2,20.6,53.8c0,8-1.3,15.8-3.3,24.1c1.6-0.4,2.6-0.6,3.6-0.8c20.5-5.5,39.2-14.6,56.4-26.9
			c16.8-12.1,30.8-26.7,39.6-45.8c2.5-5.5,3.3-10.7,1-16.6c-4.7-12.2-9.5-24.4-16.3-35.7c-23.1-38.5-55.5-66.8-95.8-86.3
			c-11.5-5.5-23.1-10.6-35.6-13.2c-0.2,0.5-0.3,0.7-0.3,0.8c-0.1,1.7-0.3,3.5-0.4,5.2c-1.3,17.5-9,31.6-22.6,42.6
			c-12.9,10.3-28,13.7-44,14.2c-9.5,0.3-9.3,0.4-10.2,9.6c-3,30.7,8.3,56,29,77.8c3.5,3.7,6.9,7.6,10.9,11.9c2.2-8-3.4-13-4.9-19.2
			c4.1,2.9,6,7.1,8,11.6c3,7-0.6,14.1,1.3,21c0.7,2.5,0.5,5.2,4.2,5.4c3.6,0.2,6.8-0.3,8.1-4.1c0.8-2.3,1.3-4.8,1.3-7.2
			c0.1-14.7-4.7-28.1-11.1-41c-1.7-3.3-4.2-6.3-4.4-10.4c4,3.4,5.9,8,8.1,12.5c6.3,12.6,10.4,26,9.8,40.2
			c-0.4,11.4-6.1,15.1-17.1,12.2c-1-0.3-2-0.6-3-1c-16.9-6.8-31.8-16.5-44.8-29.3c-0.4-0.4-0.8-0.8-1.2-1c-0.3,0.7-0.7,1.4-1.3,2.1
			C358.5,445.1,347.4,453.9,334.3,459.3z M463.2,296.5c2.6-0.2,6,0.5,10.1,1.7c18.1,5.6,48.5,23.7,66.4,40.3
			c5.1,4.7,9.8,9.5,14.3,14.6c12.9,14.5,23.4,30.5,30.8,48.4c2.6,6.2,4.8,12.5,6.6,19.1c0,0,0,0,0,0c0,0,0,0,0,0
			c-2.3-5.1-4.6-10.3-7-15.4c0-0.1-0.1-0.1-0.1-0.2c0,0,0,0,0,0c-3.9-8.6-8.1-17.1-13.3-25.2c-1.5-2.3-3.1-4.6-4.7-6.9
			c-6.5-9.3-13.7-18.1-21.8-26.2c-1-1-1.9-1.9-2.9-2.9c-0.7-0.7-1.4-1.3-2.1-1.9c-8.3-7.7-17.1-14.7-26.5-21
			c-2.7-1.8-5.5-3.6-8.3-5.3c-1.8-1.1-3.5-2.1-5.3-3.1c-4.7-2.6-9.4-4.9-14.3-7.1C478.1,302.3,470.7,299.4,463.2,296.5
			C463.2,296.5,463.2,296.5,463.2,296.5C463.2,296.5,463.2,296.5,463.2,296.5z M476.7,317.6c17.4,7.5,41,22.2,58.6,39.3
			c28.1,27.4,46.7,68.2,45,78.6c0,0,0,0,0,0c0,0,0,0,0,0c-0.6-1.8-1.2-3.6-1.8-5.3c-9.5-27.2-24.2-51.2-45-71.4
			c-1.6-1.5-3.1-3-4.7-4.5c-18-16.4-38.1-29.3-60.8-38c-3.6-1.4-7.2-2.7-11-3.8c0,0,0,0,0,0c0,0,0,0,0,0
			C461.2,312.1,468.2,314,476.7,317.6z M444,330.7c40.3-1,121.9,80.8,120.8,121.1c0,0,0,0,0,0c0,0,0,0,0,0
			c-3.8-11.4-8.5-22.3-14-32.6c-2-3.8-4.2-7.5-6.5-11.2c-7.1-11.2-15.4-21.7-25.2-31.2C497.6,355.8,472.8,340,444,330.7
			C444,330.7,444,330.7,444,330.7C444,330.7,444,330.7,444,330.7z M420.8,348.3c1.4-0.3,3.3-0.3,5.6,0c6.8,0.9,16.9,4.3,28.2,9.7
			c0,0,0,0,0,0c0.1,0.1,0.3,0.1,0.4,0.2c15,7.3,32,18.1,46.1,31.5c2.3,2.2,4.5,4.5,6.7,6.8c23,25.3,36.9,58.7,35.9,71.9c0,0,0,0,0,0
			c0,0,0,0,0,0c-2.9-11.2-6.7-21.9-11.5-31.9c-6.7-13.8-15.3-26.5-26-38c-2.4-2.5-4.8-5-7.4-7.5c-20.2-19-43.2-32.9-69.6-40.6
			C426.4,349.7,423.6,348.9,420.8,348.3C420.8,348.3,420.8,348.3,420.8,348.3C420.8,348.3,420.8,348.3,420.8,348.3z M387.1,360.4
			c23.2-0.6,43.9,4.7,62.6,14.7c13.8,7.3,26.4,17.2,38.1,29c12,12.2,21.4,25.8,27.6,41c4.5,11,7.2,22.7,7.9,35.4c0,0,0,0,0,0
			c0,0,0,0,0,0c-5.4-33.8-21.2-61.8-47.1-84.1c-12.8-11-26.5-19.7-41.3-25.8c-7.7-3.2-15.7-5.6-23.9-7.3
			C403.2,361.7,395.3,360.7,387.1,360.4C387.1,360.4,387.1,360.4,387.1,360.4C387.1,360.4,387.1,360.4,387.1,360.4z M478.7,479.1
			c1.9-9.6,2.6-19.3,1.5-29.1c-0.2-1.9-1.2-4.1,1-6.8c2.1,4.8,2,9.4,2.1,13.8c0.2,12.3-1.5,24.3-6.4,35.7c-7.7,18-26,27.8-47.1,25
			c-12.5-1.6-23.8-6.5-34.6-12.8c-17.2-10.1-31.4-23.6-43.6-39.3c-1.5-1.9-1.4-1.9-2.2-5.4c2.7,1.4,3.9,3.7,5.4,5.6
			c15.6,19.8,34.5,35.3,57.9,45c7.7,3.2,15.7,4.9,23.9,4.9C458.4,516.1,474.1,502.4,478.7,479.1z M364.1,447.5
			c1.3,0.6,2.3,1.3,3.2,2.1c1,0.9,1.9,1.9,2.7,2.9c0.4,0.4,0.7,0.8,1.1,1.2c12.6,13.1,26.9,23.7,43.7,30.8c0.8,0.4,1.7,0.7,2.5,1
			c3.4,1.2,7,2.1,10.6,2.5c13.7,1.8,22.8-4.6,26.4-18.7c4.1-16,1.9-31.8-2.3-47.5c-0.6-2.2-1.2-4.3-1.7-6.5c0,0,0,0,0,0
			c0-0.2,0.3-0.5,0.5-0.8c0,0,0,0,0,0c0,0,0,0,0,0c0,0,0,0,0,0c0.2,0,0.3,0,0.4,0c0.9,0.1,1.3,0.6,1.5,1.3c0.1,0.3,0.2,0.7,0.3,1
			c0,0,0,0.1,0,0.1c0,0,0,0,0,0c0,0.2,0.1,0.3,0.1,0.4c0.6,1.9,1.1,3.7,1.6,5.6c4.2,15.2,5.6,30.7,1.9,46.5
			c-1.4,6.1-3.9,11-7.3,14.5c-5.5,5.7-13.5,7.9-23.6,6.2c-12.7-2.1-23.7-8.1-34-15.3c-9-6.3-17.3-13.6-24.7-21.7
			C366,451.7,364,450.5,364.1,447.5C364.1,447.5,364.1,447.5,364.1,447.5C364.1,447.5,364.1,447.5,364.1,447.5z"/>
		<path class="st7" d="M364.2,432.6c-8.3,11-18.8,19.1-31.7,24.1c-2.5,1-2.9,1.9-2.1,3.6c1.5-0.2,2.8-0.7,3.9-1.1
			c13.1-5.5,24.2-14.2,32.9-25.9c0.5-0.7,1-1.4,1.3-2.1C367,430.1,365.9,430.4,364.2,432.6z"/>
		<path d="M412.8,446.7C412.8,446.7,412.8,446.7,412.8,446.7c-1-0.2-1.9-0.8-2.6-1.6c-1.3-1.4-2.5-2.8-3.8-4.1
			c-2.4-2.7-4.7-5.2-7.1-7.7c-23.4-24.8-33.4-51.6-30.4-81.9l0.1-0.6c0.5-5.1,0.8-8.5,3.6-11c1.1-0.9,2.2-1.5,3.6-1.9c0,0,0,0,0,0
			c0-0.2,0-0.5,0-0.8c0-0.1,0-0.1,0-0.2c0-0.2,0.1-0.5,0.1-0.8c0-0.1,0-0.1,0-0.1c0.7-3.2,1.1-5.3,1.7-6.6c1.2-2.4,3.2-2.7,9-3.2
			c17.6-1.5,32.5-10.4,40.5-24.8c3.7-6.5,5.9-14.1,6.3-22.7c0-0.5,0.1-1,0.2-1.3c0.4-2.2,1.7-2.5,4.4-1.9c3.2,0.7,5.4,1.1,7,1.7
			c0,0,0.1,0,0.1,0c0.2,0.1,0.5,0.2,0.7,0.3c0,0,0.1,0,0.1,0.1c0.2,0.1,0.3,0.2,0.4,0.2c0,0,0.1,0,0.1,0.1c0,0,0,0,0,0
			c0-0.1,0.1-0.2,0.1-0.3c1-2.3,3.5-3.6,5.9-3.1c0.5,0.1,0.9,0.2,1.4,0.3c-9.5-3.2-19.3-5.7-29.5-6.3c-4.8-0.3-7.7-6-5.5-10.4
			c3.2-6.4,4.4-12.9,1.6-19.7c-1.2-2.8-0.4-4.5,1.9-6.1c3-2.1,6-4.2,8.4-7.1c6.9-8,4.3-16.4-5.9-19c-4-1-8.2-1.5-12.4-2.2
			c0.9-1.7,1.6-3.1,2.3-4.5c5.1-10.2,0.9-18.2-10.3-19.7c-6.6-0.9-13.3-0.8-19.6,1.5c-3,1.1-3.6,0.3-4.4-2.5
			c-3.3-11.8-12.9-17.4-24.9-15c-5,1-9.6,3.1-13.9,5.9c-3.5,2.4-5.3,7.9-8.7,8.5c-3.7,0.7-7-4.4-11.1-5.9
			c-11.3-4.1-20.9,1.8-19.9,13.2c0.6,6.7,0.1,9.6-7.5,9.6c-5.1,0-9.2,3.5-10.3,8.9c-1.1,5.3,1.8,9,5.5,12.2c2.6,2.2,5.6,3.7,8.8,4.6
			c2.6,0.7,3,2,2.8,4.5c-0.4,4.5-0.5,9.1-0.3,13.6c0.2,2.7-0.2,4-3.3,4.3c-4.1,0.4-6,3.4-6,7.4c0.1,5.4,1.8,10.4,6.1,14
			c2.5,2.1,5.5,3.4,3.8,7.9c-0.9,2.6,1.9,4.5,4.5,4.7c4.1,0.4,5.3,2.8,6.2,6.3c2,7.9,5.8,15,10.5,21.5c8,11.1,21.9,13.1,36.6,5
			c3.4-1.9,6-2.6,9.4,0.1c3.5,2.7,4.5,5.4,3.4,9.8c-4.2,16.8-5.7,34-5.5,51.4c0.3,21.4,3.1,42.3,11.4,62.3
			c10.3,9.1,21.8,16.4,34.5,21.9C412.5,452.4,412.6,449.4,412.8,446.7z M304.1,264.2C304.1,264.2,304.1,264.2,304.1,264.2
			C304.1,264.2,304.1,264.2,304.1,264.2c-0.1,0.1-0.2,0.1-0.3,0.1c0,0-0.1,0-0.1,0.1c-0.7,0.3-1.4,0.2-2-0.2c-0.5-0.3-1-0.7-1.5-1.2
			c-0.5-0.5-0.9-1-1.3-1.5c-1.4-1.8-2.4-3.7-3-5.8c-0.4-1.4-0.6-2.8-0.7-4.3c0-0.4,0-0.8,0-1.2c0.1-3,1.5-5,4.9-4.7
			c0.2,0,0.4,0.1,0.6,0.1c0.7,0.2,1.1,0.6,1.5,1.2c0,0,0,0,0,0.1c0,0,0,0,0,0c0.2,0.4,0.4,0.9,0.6,1.4c0.2,0.5,0.1,0.9,0,1.2
			c0,0.1-0.1,0.1-0.1,0.2c0,0,0,0.1-0.1,0.1c-0.3,0.3-0.8,0.5-1.3,0.7c-1.4,0.6-2,1.1-2.2,1.6c0,0,0,0,0,0c0,0.1,0,0.2,0,0.2
			c0,0.7,0.9,1.3,1.8,1.9c0.3,0.2,0.6,0.4,0.8,0.6c0,0,0.1,0.1,0.1,0.1c0,0,0.1,0.1,0.1,0.1c0.1,0.1,0.2,0.1,0.2,0.1c0,0,0,0,0,0
			c0.8,0.4,1.9,0.5,2.7,1.1c0.4,0.3,0.6,0.7,0.7,1.3c0,0.1,0,0.1,0,0.2c0,0.1,0,0.1,0,0.2c0.1,1,0.2,2.1,0,3.2
			C305.6,262.5,305.2,263.6,304.1,264.2z M306.6,244c-0.2-0.9-0.3-1.9-0.5-3c-0.2-2.1-0.6-4.3-0.8-6.4c-0.4-3.4-0.5-6.7,0.4-10.2
			c0.2-2.7,2.1-3.9,3.9-5.4c0.6-0.5,1.2-1.1,1.7-1.7c1.6-2.1,3-2.2,4.5-1.7c1.2,0.5,2.4,1.4,3.7,1.9c6.7,2.9,13.6,3.1,20.4,0.6
			c2.3-0.8,3.7-1.1,4.5,0.2c0.4,0.6,0.7,1.5,0.8,2.8c0.8,5.6,3.6,9.9,9.3,11.1c0.4,0.1,0.8,0.1,1.2,0.2c0.2,0,0.4,0.1,0.6,0.1
			c0.9,0.2,1.5,0.7,1.9,1.2c0.1,0.2,0.2,0.3,0.3,0.5c0.5,0.9,0.7,2.1,0.9,3.1c0.1,0.4,0,0.7-0.1,1c-0.3,0.9-1.5,1-2.5,1.3
			c-0.3,0.1-0.5,0.1-0.7,0.2c-2.5,1-5,1.9-7.4,2.8c-1.4,0.5-2.9,1.1-4.2,1.7c-1.4,0.6-2.5,0.7-3.5,0.4c-0.9-0.3-1.6-0.8-2.1-1.5
			c0,0,0,0,0,0c0,0,0-0.1-0.1-0.1c-0.6-0.8-0.8-1.8-0.8-2.7c0.1-2-0.5-3.1-1.3-3.7c-0.9-0.7-2.1-0.9-3.3-1.2
			c-0.4-0.1-0.7-0.2-1.1-0.2c-1.2-0.2-2.4-0.4-3.6-0.4c0,0,0,0,0,0c-0.1,0-0.1,0-0.2,0c-1.5,0-3,0.2-4.5,0.7c-1.9,0.6-4.3,0.8-4.4,3
			c0,0.5,0.1,1.2,0.5,2.1c0,0.1,0,0.3-0.2,0.6c-1.1,2-6.4,7.9-7.1,7.9c0,0,0,0,0,0c0,0,0,0,0,0C309,249.3,307.4,247.8,306.6,244z
			 M325,251.2c0,0.1,0,0.1,0.1,0.2c0.1,0.1,0.1,0.2,0.2,0.3c0.1,0.1,0.1,0.2,0.2,0.3c0.6,0.7,1.5,1.3,2.2,1.8c0.3,0.3,0.7,0.4,1,0.5
			c0.8,0.2,1.5,0,2-0.6c0.3-0.3,0.5-0.7,0.7-1.1c1.5-3.5,4.7-2.8,6.9-2.2c0.1,0,0.2,0.1,0.3,0.1c0.2,0.1,0.4,0.2,0.6,0.3
			c0.9,0.6,1,1.7,1,2.8c0,0.9-0.1,1.7-0.1,2.4c-0.3,1.2-0.9,2.2-1.6,3.1c-2,2.4-5.3,3.8-8.7,3.9c-0.8,0-1.5,0-2.3-0.1
			c-1.1-0.2-2.1-0.6-3.1-1.2c-1-0.6-1.9-1.5-2.8-2.4c-0.1-0.2-0.3-0.3-0.4-0.5c-0.1-0.2-0.3-0.3-0.4-0.5c-0.1-0.1-0.2-0.2-0.2-0.3
			c-1.7-2.3-2.8-5.2-2.8-7.7c0-0.8,0.1-1.5,0.3-2.2c0-0.1,0.1-0.3,0.1-0.4c0.5-1.4,1.2-2.6,2.5-3.3c0.2-0.1,0.3-0.2,0.5-0.3
			c4.1-1.7,8.4-2,12.8-1c0.5,0.1,1.1,0.3,1.6,0.6c1.3,0.7,2.3,1.9,2,3.3c-0.3,2.1-2.2,1.7-3.8,1.5c-0.3,0-0.7-0.1-0.9-0.1
			c-0.2,0-0.4,0-0.6-0.1c-1.2-0.1-2.3-0.5-3.5-0.6c-1.1,0-2.4-0.1-3.3,0.6c0,0,0,0-0.1,0c-0.3,0.3-0.5,0.6-0.6,1.1
			C324.6,250,324.7,250.6,325,251.2z M382.2,286.1c-0.3-0.1-0.5-0.1-0.7-0.1c-1.6-0.1-2.3,1.6-3.2,2.8c-6.8,9.5-15,17-26,20.5
			c-1.7,0.6-3.5,1-5.3,1.4c-1.4,0.3-2.7,0.4-4,0.5c-7.4,0.6-12.2-2-17.1-9.1c-1.6-2.4-3.2-4.8-4.5-7.3c-2.1-3.9-3.9-8-5.1-12.3
			c-0.2-0.8-0.5-1.7-0.7-2.5c-0.3-1.8,0.1-3.4,3.7-4.2c-3.9-2.1-6.9-1.1-9.7-1.5c-0.9-0.1-1.6-0.3-2.1-0.6c-0.1-0.1-0.3-0.1-0.4-0.2
			c-0.1-0.1-0.1-0.1-0.2-0.2c-0.1-0.1-0.2-0.2-0.3-0.3c-0.5-0.7-0.4-1.8,0.3-3.2c0.9-1.7,1.5-3.5,2.1-5.3c0.2-0.8,0.5-1.6,0.7-2.4
			c0.6-2.2,1-4.5,1.4-6.8c0.1-0.3,0.1-0.6,0.2-0.9c0.1-0.7,0.4-1.4,1.3-1.5c0.5-0.1,1-0.1,1.4,0.1c0.6,0.2,1.1,0.8,1.5,1.4
			c0,0,0.1,0.1,0.1,0.1c0.7,1.2,1.3,2.4,2,3.6c0.1,0.2,0.2,0.3,0.3,0.5c3.8,6.1,8.8,8,16.2,6.1c4.3-1.1,6.6-2.6,7.8-5.7
			c0.6-1.6,0.9-3.7,1-6.5c0.1-1.8,0.6-2.9,1.9-3.6c0,0,0,0,0,0c0.1-0.1,0.2-0.1,0.4-0.2c0.1,0,0.2-0.1,0.3-0.1
			c0.4-0.2,0.8-0.3,1.2-0.5c1.2-0.5,2.5-1,3.7-1.5c1.3-0.5,2.5-1.1,3.8-1.7c3.8-1.8,7.4-3,10.6,0.2c0.4,0.4,0.8,0.8,1.2,1.4
			c0.5,0.7,1.1,1.1,1.8,1.4c1.1,0.5,2.3,0.7,3.5,1c0.3,0.1,0.6,0.1,0.8,0.2c0.4,0.1,0.8,0.2,1.1,0.2c1.5,0.2,2.5-0.1,3.3-1
			c0.5-0.6,0.9-1.5,1.2-2.6c1.9-7.3,4.3-10.7,8.2-11.4c1-0.2,2.1-0.2,3.3-0.1c5.2,0.6,9.2,6.1,9.8,13.3c0.5,6.7-2.7,10.5-10.6,12.4
			c-0.1,0-0.1,0-0.2,0.1c-0.4,0.2-0.8,0.6-1.9,1.3c8.8,4.1,16.3,10.3,26.5,7.5c0.8-0.2,1.4-0.4,2,0c0.1,0.1,0.3,0.2,0.4,0.3
			c1.1,1.1,2.3,2.2,3.4,3.3c2.5,2.4,5.2,4.6,8.1,6.5c0.7,0.5,0.8,1.1,0.8,1.8c-0.1,0.5-0.2,1.1-0.3,1.6
			c-1.2,12.8-8.2,23.9-18.3,30.7c-5.3,3.6-11.3,6-17.8,6.9c-2,0.3-4,0.4-6.1,0.4c-4.8,0-4.6-2.9-3.7-5.9c0.3-0.9,0.5-1.8,0.8-2.7
			c0.6-2.5,1.1-5,1.4-7.5c0.5-4.5,0.6-9.1,0.3-13.6c0-0.2,0-0.4,0-0.6C383.5,288.3,383.9,286.6,382.2,286.1z"/>
		<path d="M324.1,429.3c1.6-0.5,3.2-1.1,4.2-1.7c7.7-4.6,13.4-10.3,17.6-17.7c0.8-1.5,2.3-2.4,3.9-2.6c0.6-0.1,1.3,0,1.9,0.1
			c0.1,0,0.1,0,0.2,0.1c-1-1.5-2.1-3.1-3.8-2.8c-4.7,0.9-5.4-2.7-6.3-5.3c-1.7-4.9-2.8-10.1-4.1-15.1c-1.2-4.6-2.7-9-5-13.2
			c-7.2-13-20-17.1-33-21.1c-2-0.6-4-0.6-5.2-2.8c-3.1-5.3-6.4-10.4-9.6-15.6c-1.2-1.9-1.7-3.2,0.2-5.3c5.3-5.8,7.5-12.9,6.2-20.8
			c-4.2-25.9-18.9-44.3-43-53.7c-22.4-8.7-39.5,6.5-35.3,30.2c3,16.9,12.1,30.3,25.4,40.8c7.8,6.2,16.4,10.6,26.6,10.9
			c4.7,0.1,10.2,5.2,10.6,9.7c0.1,0.9-0.4,1.2-0.8,1.7c-5,5.2-3.7,10.8-1.1,16.5c0.8,1.7,3,3.5,2.2,5.1c-2.9,5.6-0.8,11.3-0.7,16.9
			c0.1,7.9,1.1,16,8,21.8c3.2,2.7,6.4,5.4,10.1,7.5c4.4,2.5,8.8,5,13.1,7.7c4.7,2.9,8.6,9.4,6.7,12.4c-1.6,2.6-0.7,4.4,0.4,6.3
			c0-0.3,0-0.7,0.1-1C314.4,432.5,320,430.7,324.1,429.3z M278.8,323.6c-6.9,5.9-20.8,4.1-29.4-0.6c-2.9-1.5-5.2-3.4-6.5-5.4
			c-1.7-1.1-3.3-2.4-4.8-3.6c-1.8-1.5-3.4-3.1-4.9-4.8c-0.8-0.8-1.5-1.7-2.2-2.6c-0.6-0.7-1.1-1.5-1.7-2.3c-0.3-0.5-0.7-0.9-1-1.4
			c-0.4-0.6-0.7-1.1-1.1-1.7c-0.3-0.6-0.7-1.1-1-1.7c-0.6-1.2-1.2-2.4-1.8-3.6c-1.1-2.4-2-5-2.8-7.7c0,0,0,0,0-0.1l0,0
			c0,0,0-0.1-0.1-0.1c-0.2-0.3-0.4-0.7-0.6-1c-0.1-0.1-0.1-0.3-0.2-0.4c-0.2-0.3-0.3-0.6-0.4-0.9c-0.1-0.1-0.1-0.3-0.2-0.4
			c-0.2-0.4-0.3-0.8-0.5-1.3c0,0,0-0.1,0-0.1c-0.2-0.5-0.3-1-0.4-1.5c0-0.2-0.1-0.3-0.1-0.5c-0.1-0.4-0.2-0.7-0.2-1.1
			c0-0.2-0.1-0.4-0.1-0.6c-0.1-0.4-0.1-0.9-0.2-1.3c0-0.1,0-0.2,0-0.3c-0.1-0.5-0.1-1-0.1-1.6c0-0.2,0-0.4,0-0.6c0-0.3,0-0.7,0-1
			c0-0.2,0-0.4,0-0.7c0-0.4,0-0.8,0-1.2c0-0.2,0-0.3,0-0.5c0-0.5,0.1-1,0.1-1.5c0-0.2,0-0.4,0.1-0.6c0-0.3,0.1-0.6,0.1-1
			c0-0.2,0.1-0.4,0.1-0.6c0.1-0.4,0.1-0.7,0.2-1.1c0-0.1,0.1-0.3,0.1-0.4c0,0,0,0,0,0c0-0.1,0.1-0.2,0.1-0.3
			c0.1-0.4,0.2-0.9,0.4-1.3c0-0.1,0.1-0.2,0.1-0.3c0.1-0.4,0.3-0.8,0.4-1.1c0.1-0.3,0.3-0.5,0.4-0.8c0.1-0.2,0.2-0.3,0.3-0.5
			c0.2-0.4,0.5-0.8,0.7-1.1c0.6-0.8,1.3-1.5,2.1-2.1c5.5-4.4,14.9-5.8,22.6-2.5c10.5,4.4,18.9,10.7,25.4,18.7
			c5.7,7.1,10,15.4,12.7,25.1C286.4,309.6,286,317.5,278.8,323.6z M298.9,411.3c-4.2-2.2-7.9-5.1-11.4-8.2c-1.1-0.9-2-1.9-2.8-2.9
			c-1.4-1.8-2.4-3.6-3.1-5.6c-1-2.9-1.3-6-1.2-9.2c0-1.4,0.2-2.9,0.4-4.3c0.3-2-0.8-3.3-1.3-4.9c-0.4-1.3-1.3-2.8-1.1-3.9
			c0,0,0-0.1,0-0.1c0.1-0.9,1-1.6,3.3-1.8c0.4,0,0.7-0.1,0.9-0.3c0.4-0.2,0.5-0.6,0.4-1c-0.1-0.6-0.5-1.4-0.8-2
			c-1.7-2.7-3.5-5.2-5-8c0-0.1-0.1-0.1-0.1-0.2c-0.7-1.2-1.2-2.4-1.5-3.7c-0.2-0.8-0.2-1.7-0.2-2.5c0.1-0.9,0.1-2,0.4-2.8
			c0.3-0.5,0.7-1,1.4-1.2c0.2-0.1,0.4-0.1,0.6-0.1c0,0,0,0,0,0c0.1,0,0.2,0,0.3,0c0.1,0,0.1,0,0.2,0.1c0,0,0,0,0,0
			c0.7,0.3,1.1,1.2,1.6,1.9c0.1,0.2,0.2,0.3,0.3,0.5c0.5,0.6,1.1,1.3,1.6,1.9c7.5,8.5,16.2,15.3,27.4,18.6c0.1,0,0.3,0.1,0.5,0.2
			c0,0,0,0,0,0c0,0,0,0,0,0c0.7,0.3,1.5,0.7,2.2,0.5c0,0,0,0,0,0c0.1,0,0.1,0,0.2-0.1c0,0,0,0,0,0c0.3-0.1,0.5-0.4,0.7-0.9
			c0.3-0.7,0.2-1.2-0.1-1.6c-0.4-0.7-1.4-1.1-2.2-1.3c-2.2-0.7-3.9-1.9-5.3-3.3c-1.1-1.1-2-2.3-2.8-3.5c-1.4-2.1-2.7-4.5-4.3-6.8
			c0,0,0,0,0,0c0,0,0,0,0,0c4.3,0.5,8.4,1.5,12.1,3c11.3,4.7,19.4,14.1,22.6,26.7c2.3,8.9,3.8,18.1,9.5,25.8
			c1.1,1.5,0.5,2.6-0.3,3.7c0,0,0,0,0,0c0,0,0,0,0,0c-0.1,0.1-0.2,0.3-0.4,0.4c-1.4,1.7-3,3.3-4.6,4.8c-3.9,3.6-8.2,6.5-13,9
			c-0.3,0.2-0.6,0.3-0.9,0.5c0,0,0,0,0,0c0,0,0,0,0,0c-0.3,0.1-0.5,0.2-0.7,0.3c0,0-0.1,0-0.1,0c-1.9,0.6-3-0.3-3.9-1.8
			c-0.9-1.6-2-3.1-3.1-4.4C310.9,417.7,305,414.4,298.9,411.3z"/>
		<path d="M445.6,277.1c0.2,0.1,0.5,0.2,0.7,0.3C446,277.3,445.8,277.2,445.6,277.1z"/>
		<path d="M376.2,337.8c0-0.2,0-0.5,0-0.8C376.2,337.3,376.2,337.6,376.2,337.8z"/>
		<path d="M376.3,336.8c0-0.2,0.1-0.5,0.1-0.8C376.3,336.3,376.3,336.6,376.3,336.8z"/>
		<path d="M438.5,275.4c3.2,0.7,5.4,1.1,7,1.7C443.9,276.5,441.7,276,438.5,275.4c-2.7-0.6-3.9-0.3-4.3,1.9
			C434.6,275.1,435.8,274.8,438.5,275.4z"/>
		<path d="M446.3,277.5c0.2,0.1,0.3,0.2,0.4,0.2C446.6,277.6,446.5,277.6,446.3,277.5z"/>
		<path d="M387.2,326.1c17.6-1.5,32.5-10.4,40.5-24.8C419.6,315.6,404.7,324.6,387.2,326.1c-5.8,0.5-7.8,0.8-9,3.2
			C379.3,326.8,381.3,326.6,387.2,326.1z"/>
		<path d="M218.7,270c0-0.2,0.1-0.4,0.1-0.6C218.7,269.6,218.7,269.8,218.7,270z"/>
		<path d="M219.2,267.6c0.1-0.4,0.2-0.9,0.4-1.3C219.4,266.7,219.3,267.2,219.2,267.6z"/>
		<path d="M220.3,285.8c-0.1-0.1-0.1-0.3-0.2-0.4C220.2,285.5,220.3,285.6,220.3,285.8z"/>
		<path d="M221,287.1c-0.1-0.1-0.1-0.3-0.2-0.4C220.8,286.8,220.9,287,221,287.1z"/>
		<path d="M219.7,266c0.1-0.4,0.3-0.8,0.4-1.1C219.9,265.3,219.8,265.6,219.7,266z"/>
		<path d="M221.7,288.2C221.6,288.2,221.6,288.2,221.7,288.2C221.6,288.2,221.6,288.2,221.7,288.2
			C221.7,288.2,221.7,288.2,221.7,288.2C221.7,288.2,221.7,288.2,221.7,288.2z"/>
		<path d="M220.5,264.1c0.1-0.2,0.2-0.3,0.3-0.5C220.6,263.8,220.6,264,220.5,264.1z"/>
		<path d="M242.9,317.7c1.3,2,3.6,3.9,6.5,5.4C246.5,321.5,244.2,319.7,242.9,317.7C242.9,317.7,242.9,317.7,242.9,317.7z"/>
		<path d="M246.1,257.9c10.5,4.4,18.9,10.7,25.4,18.7C265,268.6,256.6,262.3,246.1,257.9c-7.7-3.3-17.1-1.9-22.6,2.5
			C229,256,238.5,254.7,246.1,257.9z"/>
		<path d="M218.3,273.6c0-0.2,0-0.4,0-0.5C218.3,273.3,218.3,273.4,218.3,273.6z"/>
		<path d="M218.3,275.4c0-0.2,0-0.4,0-0.7C218.3,275,218.3,275.2,218.3,275.4z"/>
		<path d="M218.4,277.1c0-0.2,0-0.4,0-0.6C218.4,276.7,218.4,276.9,218.4,277.1z"/>
		<path d="M219.7,284.1c0,0,0-0.1,0-0.1C219.6,284,219.7,284,219.7,284.1z"/>
		<path d="M218.5,271.6c0-0.2,0-0.4,0.1-0.6C218.5,271.2,218.5,271.4,218.5,271.6z"/>
		<path d="M219.2,282.5c0-0.2-0.1-0.3-0.1-0.5C219.1,282.1,219.2,282.3,219.2,282.5z"/>
		<path d="M218.9,280.9c0-0.2-0.1-0.4-0.1-0.6C218.8,280.5,218.8,280.7,218.9,280.9z"/>
		<path d="M218.6,279c0-0.1,0-0.2,0-0.3C218.5,278.8,218.6,278.9,218.6,279z"/>
		<path d="M219,268.3c0-0.1,0.1-0.3,0.1-0.4C219.1,268,219,268.2,219,268.3z"/>
		<path d="M298.1,354.8c1.6,2.3,2.9,4.6,4.3,6.8C301,359.5,299.7,357.1,298.1,354.8C298.1,354.8,298.1,354.8,298.1,354.8z"/>
		<path d="M311.9,372.4C311.9,372.3,311.9,372.3,311.9,372.4C311.9,372.3,311.9,372.3,311.9,372.4z"/>
		<path d="M279.9,350.7c-0.5-0.7-0.8-1.6-1.6-1.9C279.1,349.1,279.5,349.9,279.9,350.7z"/>
		<path d="M309.7,371.8c-0.2-0.1-0.3-0.1-0.5-0.2c-11.2-3.3-19.8-10.2-27.4-18.6c7.5,8.5,16.2,15.3,27.4,18.6
			C309.4,371.7,309.6,371.8,309.7,371.8z"/>
		<path d="M342,414C342,414,342,414.1,342,414C342,414.1,342,414,342,414z"/>
		<path d="M323.1,428.8C323.1,428.8,323.1,428.8,323.1,428.8c-0.3,0.1-0.5,0.2-0.7,0.3C322.6,429,322.9,428.9,323.1,428.8z"/>
		<path d="M278.1,348.7c0.1,0,0.1,0,0.2,0.1C278.3,348.7,278.2,348.7,278.1,348.7z"/>
		<path d="M312.2,372.3C312.2,372.3,312.2,372.3,312.2,372.3C312.2,372.3,312.2,372.3,312.2,372.3z"/>
		<path d="M309.7,371.8C309.7,371.8,309.7,371.8,309.7,371.8C309.7,371.8,309.7,371.8,309.7,371.8z"/>
		<path d="M277.9,348.7C277.9,348.7,277.9,348.7,277.9,348.7C277.9,348.7,277.9,348.7,277.9,348.7z"/>
		<path d="M322.3,429.1c-1.9,0.6-3-0.3-3.9-1.8c-0.9-1.6-2-3.1-3.1-4.4c1.1,1.3,2.2,2.8,3.1,4.4
			C319.3,428.8,320.4,429.7,322.3,429.1z"/>
		<path d="M281.6,370.4c0.4,0,0.7-0.1,0.9-0.3C282.3,370.3,282,370.4,281.6,370.4c-2.3,0.2-3.2,0.9-3.3,1.8
			C278.5,371.3,279.3,370.6,281.6,370.4z"/>
		<path d="M282.2,367.2c-1.7-2.6-3.5-5.2-5-8c0-0.1-0.1-0.1-0.1-0.2c0,0.1,0.1,0.1,0.1,0.2C278.7,362,280.5,364.5,282.2,367.2
			c0.4,0.6,0.8,1.4,0.8,2C282.9,368.6,282.5,367.8,282.2,367.2z"/>
		<path d="M275.9,350c-0.4,0.8-0.4,1.8-0.4,2.8c-0.1,0.9,0,1.7,0.2,2.5c-0.2-0.8-0.2-1.7-0.2-2.6C275.5,351.8,275.5,350.8,275.9,350
			z"/>
		<path d="M279.4,376.2c-0.4-1.3-1.3-2.8-1.1-3.9C278.2,373.4,279.1,374.9,279.4,376.2c0.5,1.6,1.5,2.9,1.3,4.9
			c-0.2,1.5-0.3,2.9-0.4,4.3c0-1.4,0.2-2.9,0.4-4.3C281,379.1,279.9,377.8,279.4,376.2z"/>
		<path d="M310.7,368.5c-2.2-0.7-3.9-1.9-5.3-3.3C306.7,366.6,308.4,367.8,310.7,368.5c0.8,0.3,1.7,0.6,2.2,1.3
			C312.4,369.1,311.4,368.7,310.7,368.5z"/>
		<path d="M324.1,428.3c4.8-2.4,9.1-5.4,13-9C333.2,422.9,328.8,425.9,324.1,428.3z"/>
		<path d="M332.8,384.5c2.3,8.9,3.8,18.2,9.5,25.8c1.1,1.5,0.5,2.6-0.3,3.7c0.8-1.1,1.4-2.2,0.3-3.7
			C336.6,402.7,335.1,393.5,332.8,384.5c-3.3-12.6-11.4-22-22.6-26.7C321.4,362.5,329.6,371.9,332.8,384.5z"/>
		<path d="M281.5,394.6c0.7,2,1.7,3.9,3.1,5.6C283.2,398.4,282.2,396.6,281.5,394.6z"/>
		<path d="M312.8,249.2c-3.8,0.1-5.4-1.4-6.2-5.2C307.4,247.8,309,249.3,312.8,249.2C312.8,249.2,312.8,249.2,312.8,249.2z"/>
		<path d="M305.7,224.4c0.2-2.7,2.1-4,3.9-5.4C307.9,220.5,305.9,221.8,305.7,224.4c-1,3.4-0.8,6.8-0.4,10.1
			C304.9,231.2,304.8,227.9,305.7,224.4z"/>
		<path d="M339.9,218.1c2.3-0.8,3.7-1.1,4.6,0.2C343.6,217.1,342.1,217.3,339.9,218.1c-6.8,2.5-13.7,2.3-20.4-0.6
			c-1.2-0.5-2.4-1.5-3.7-1.9c1.2,0.5,2.4,1.4,3.7,1.9C326.2,220.5,333.1,220.7,339.9,218.1z"/>
		<path d="M357,239.6c1-0.2,2.1-0.4,2.5-1.3C359.1,239.3,357.9,239.4,357,239.6z"/>
		<path d="M355.8,232.4c0.2,0,0.4,0.1,0.6,0.1C356.2,232.5,356,232.5,355.8,232.4c-0.4-0.1-0.8-0.1-1.2-0.2
			C354.9,232.3,355.3,232.4,355.8,232.4z"/>
		<path d="M328.7,235c-0.1,0-0.1,0-0.2,0C328.6,235,328.6,235,328.7,235z"/>
		<path d="M320,241.3c0.2-0.3,0.2-0.5,0.2-0.6c-0.3-0.8-0.5-1.5-0.5-2.1c0,0.5,0.1,1.2,0.5,2.1C320.2,240.8,320.1,241,320,241.3z"/>
		<path d="M332.3,235.4c-1.2-0.2-2.4-0.4-3.6-0.4C329.9,235,331.1,235.2,332.3,235.4z"/>
		<path d="M341,244.9c0.9,0.3,2.1,0.2,3.5-0.4c1.4-0.6,2.8-1.2,4.2-1.7c-1.4,0.5-2.9,1.1-4.2,1.7C343.1,245,342,245.1,341,244.9z"/>
		<path d="M358.3,233.8c0.1,0.2,0.2,0.3,0.3,0.5C358.5,234.1,358.4,233.9,358.3,233.8z"/>
		<path d="M338,240.5c0.1-2-0.5-3-1.3-3.7C337.6,237.5,338.1,238.5,338,240.5c0,0.8,0.2,1.8,0.8,2.7
			C338.3,242.3,338,241.3,338,240.5z"/>
		<path d="M338.9,243.3C338.9,243.3,338.9,243.3,338.9,243.3C338.9,243.3,338.9,243.3,338.9,243.3z"/>
		<path d="M382.2,286.1c-0.3-0.1-0.5-0.1-0.7-0.1C381.7,286,381.9,286,382.2,286.1c1.7,0.6,1.3,2.2,1.3,3.5
			C383.5,288.3,383.9,286.7,382.2,286.1z"/>
		<path d="M343,311.2c1.2-0.1,2.5-0.3,4-0.5c1.9-0.4,3.6-0.8,5.3-1.4c-1.7,0.6-3.5,1-5.3,1.4C345.5,310.9,344.2,311.1,343,311.2z"/>
		<path d="M412.5,268.4c0.8-0.2,1.4-0.4,2,0C413.9,268,413.3,268.2,412.5,268.4c-10.2,2.9-17.6-3.3-26.5-7.5c0,0,0,0,0,0
			C394.9,265.1,402.3,271.3,412.5,268.4z"/>
		<path d="M364.5,244.9c-3.2-3.2-6.8-2-10.6-0.2c-1.2,0.6-2.5,1.1-3.8,1.7c1.3-0.5,2.5-1.1,3.8-1.7
			C357.7,242.9,361.3,241.7,364.5,244.9z"/>
		<path d="M307,273.4c-0.1-0.1-0.1-0.1-0.2-0.2C306.9,273.2,306.9,273.3,307,273.4z"/>
		<path d="M398.7,247.2c0.5,6.7-2.7,10.5-10.6,12.4c-0.1,0-0.1,0-0.2,0.1c0.1,0,0.1,0,0.2-0.1C396,257.7,399.2,253.9,398.7,247.2
			c-0.6-7.2-4.6-12.6-9.8-13.2c-1.2-0.1-2.3-0.1-3.3,0.1c1-0.2,2.1-0.2,3.3-0.1C394.1,234.6,398.1,240,398.7,247.2z"/>
		<path d="M376.3,248.1c-0.8,0.9-1.8,1.2-3.3,1C374.4,249.4,375.5,249,376.3,248.1z"/>
		<path d="M383.1,303.9c-0.3,2.5-0.7,5-1.4,7.5C382.4,308.8,382.8,306.4,383.1,303.9z"/>
		<path d="M427.2,280.2c0.1-0.7,0-1.3-0.8-1.8c-2.9-1.9-5.6-4.1-8.1-6.5c2.5,2.4,5.2,4.6,8.1,6.5
			C427.1,278.9,427.2,279.6,427.2,280.2z"/>
		<path d="M390.8,319.5c6.5-0.9,12.6-3.3,17.8-6.9C403.3,316.1,397.3,318.6,390.8,319.5z"/>
		<path d="M344.6,248.7C344.6,248.7,344.6,248.7,344.6,248.7C344.6,248.7,344.6,248.7,344.6,248.7z"/>
		<path d="M309.5,274.2c-0.9-0.1-1.6-0.3-2.1-0.6C307.9,273.9,308.6,274.1,309.5,274.2c2.8,0.4,5.8-0.5,9.7,1.5c0,0,0,0,0,0
			C315.3,273.7,312.3,274.6,309.5,274.2z"/>
		<path d="M315.5,279.9c0.2,0.8,0.5,1.7,0.7,2.5c1.2,4.3,3,8.4,5.1,12.3c-2.1-3.9-3.9-8-5.1-12.3C316,281.6,315.7,280.7,315.5,279.9
			z"/>
		<path d="M346.4,247.9c-0.4,0.2-0.8,0.3-1.2,0.5c-0.1,0-0.2,0.1-0.3,0.1c0.1,0,0.2-0.1,0.3-0.1C345.6,248.2,346,248.1,346.4,247.9z
			"/>
		<path d="M306.8,269.7c0.8-1.7,1.5-3.5,2.1-5.3C308.4,266.2,307.7,268,306.8,269.7c-0.7,1.4-0.8,2.5-0.3,3.2
			C306.1,272.2,306.1,271.1,306.8,269.7z"/>
		<path d="M311.2,254.2c-0.1,0.3-0.1,0.6-0.2,0.9c-0.4,2.3-0.9,4.5-1.4,6.8c0.6-2.2,1-4.5,1.4-6.8
			C311.1,254.9,311.1,254.5,311.2,254.2z"/>
		<path d="M333.9,264.6c4.3-1.1,6.6-2.6,7.8-5.7C340.5,262,338.2,263.4,333.9,264.6c-7.4,1.9-12.4,0.1-16.2-6.1
			c-0.1-0.2-0.2-0.3-0.3-0.5c0.1,0.2,0.2,0.3,0.3,0.5C321.6,264.6,326.6,266.5,333.9,264.6z"/>
		<path d="M371,248.7c-1.2-0.3-2.4-0.5-3.5-1C368.6,248.2,369.8,248.4,371,248.7z"/>
		<path d="M313.9,252.8c0.6,0.2,1.1,0.8,1.5,1.4C315,253.6,314.5,253,313.9,252.8z"/>
		<path d="M329.8,262.8c3.5-0.1,6.8-1.5,8.7-3.9C336.6,261.3,333.3,262.7,329.8,262.8z"/>
		<path d="M324.4,261.4c-1-0.6-1.9-1.5-2.8-2.4C322.5,260,323.4,260.8,324.4,261.4z"/>
		<path d="M317.7,250c0,2.5,1.2,5.3,2.8,7.7C318.9,255.3,317.8,252.5,317.7,250z"/>
		<path d="M338.3,250.3c-2.2-0.7-5.4-1.3-6.9,2.2c-0.2,0.5-0.4,0.8-0.7,1.1c0.3-0.3,0.5-0.7,0.7-1.1
			C332.9,249,336.1,249.7,338.3,250.3z"/>
		<path d="M340.3,253.5c0-1.1-0.1-2.2-1-2.8C340.2,251.3,340.3,252.4,340.3,253.5z"/>
		<path d="M328.7,254.2c-0.3-0.1-0.7-0.2-1-0.5c-0.7-0.5-1.6-1.1-2.2-1.8c0.6,0.7,1.5,1.3,2.2,1.8C328,254,328.4,254.2,328.7,254.2z
			"/>
		<path d="M325.2,251.6c-0.1-0.1-0.1-0.2-0.2-0.3C325.1,251.5,325.2,251.5,325.2,251.6z"/>
		<path d="M337.6,246.7c-0.3,2.1-2.2,1.7-3.8,1.5C335.4,248.5,337.2,248.8,337.6,246.7c0.2-1.4-0.7-2.6-2-3.3
			C336.8,244.2,337.8,245.3,337.6,246.7z"/>
		<path d="M321.2,258.5c-0.1-0.2-0.3-0.3-0.4-0.5C320.9,258.2,321.1,258.3,321.2,258.5z"/>
		<path d="M324.8,249.2c-0.2,0.8-0.1,1.4,0.2,2C324.7,250.6,324.6,250,324.8,249.2c0.1-0.5,0.3-0.8,0.6-1.1
			C325.1,248.4,324.9,248.7,324.8,249.2z"/>
		<path d="M325.4,248.1c0.8-0.7,2.1-0.6,3.3-0.6c1.2,0.1,2.3,0.4,3.5,0.6c-1.2-0.2-2.3-0.5-3.5-0.6
			C327.6,247.4,326.3,247.3,325.4,248.1z"/>
		<path d="M320.6,244.1c-1.3,0.7-2,1.9-2.5,3.3C318.6,246,319.4,244.8,320.6,244.1z"/>
		<path d="M300.2,245.7c0.2,0,0.4,0.1,0.6,0.1C300.6,245.8,300.4,245.7,300.2,245.7c-3.4-0.3-4.9,1.7-4.9,4.7c0,0.4,0,0.8,0,1.2
			c0-0.4,0-0.8,0-1.2C295.4,247.4,296.8,245.4,300.2,245.7z"/>
		<path d="M299.2,252.3C299.2,252.2,299.2,252.2,299.2,252.3C299.2,252.2,299.2,252.2,299.2,252.3z"/>
		<path d="M305.7,258.1c0.1,1,0.2,2.1,0,3.2C305.9,260.3,305.8,259.1,305.7,258.1z"/>
		<path d="M300.9,254.4c-0.9-0.6-1.8-1.2-1.8-1.9C299.1,253.2,300.1,253.8,300.9,254.4z"/>
		<path d="M302.3,255.4C302.3,255.4,302.3,255.4,302.3,255.4C302.3,255.4,302.3,255.4,302.3,255.4z"/>
		<path d="M302.3,247C302.3,247,302.3,247.1,302.3,247C302.3,247.1,302.3,247,302.3,247z"/>
		<path d="M302.8,249.9C302.7,249.9,302.7,249.9,302.8,249.9C302.7,249.9,302.7,249.9,302.8,249.9z"/>
		<path d="M305.7,257.8c-0.1-0.6-0.4-1-0.7-1.3C305.3,256.8,305.6,257.2,305.7,257.8z"/>
		<path d="M302.9,249.7c0.2-0.3,0.2-0.6,0-1.2c-0.2-0.5-0.3-1-0.6-1.4c0.2,0.4,0.4,0.9,0.6,1.4C303.1,249,303,249.4,302.9,249.7z"/>
		<path d="M301.9,255.2c0,0,0.1,0.1,0.1,0.1C302,255.2,301.9,255.2,301.9,255.2z"/>
		<path d="M296,255.8c0.6,2.1,1.6,4,3,5.8c0.4,0.5,0.8,1,1.3,1.5c-0.5-0.5-0.9-1-1.3-1.5C297.6,259.8,296.6,257.9,296,255.8z"/>
		<path d="M301.7,264.2c0.6,0.3,1.3,0.4,2,0.2C303,264.6,302.3,264.5,301.7,264.2z"/>
		<path d="M304.1,264.2C304.1,264.2,304.1,264.2,304.1,264.2c-0.1,0.1-0.2,0.1-0.3,0.1C303.9,264.3,304,264.3,304.1,264.2z"/>
		<path d="M325.2,456.9c0.4-1.1,1-1.9,1.6-2.6c0,0,0,0,0,0c0,0-0.1-0.1-0.1-0.1c0,0,0,0,0,0c-0.1-0.1-0.1-0.2-0.2-0.3
			c0,0,0,0-0.1-0.1c-0.3-0.4-0.7-1-1-1.7c-2.1-4.6-7.2-9.2-6.6-13.1c0.1-0.5,0.2-0.9,0.5-1.3c0.6-0.9,1.8-1.6,3.2-2.2
			c2.6-1.1,6.1-1.9,8.5-3.3c7-4.2,13-9.5,17.6-16.5c0.7-1,1.3-2,1.9-3.1l0,0c0,0,0,0,0,0c4.5,4.9,8.6,9.4,12.8,13.7
			c0,0,0.1,0.1,0.1,0.1c1.4-0.8,3.1-1.3,5.2-0.9c-5.7-5.3-10.7-11.2-15.8-16.9c-0.3-0.3-0.6-0.7-0.8-1.1c-0.1,0-0.1,0-0.2-0.1
			c-0.6-0.2-1.2-0.2-1.9-0.1c-1.7,0.2-3.1,1.2-3.9,2.6c-4.1,7.3-9.8,13.1-17.6,17.7c-1,0.6-2.6,1.1-4.2,1.7
			c-4.1,1.4-9.7,3.2-10.5,8.9c-0.1,0.3-0.1,0.7-0.1,1c0.1,0.1,0.1,0.2,0.2,0.3c1.6,2.9,3.2,5.8,5.1,8.6c1.4,2,1.7,3.3,0.7,4.1
			c0.5,0.7,0.9,1.4,1.2,2.1c1.1,2.3,2.5,4,4.2,5.1C324.8,458.6,324.9,457.8,325.2,456.9z"/>
		<path d="M326.8,454.3c0,0-0.1-0.1-0.1-0.1C326.7,454.2,326.8,454.2,326.8,454.3z"/>
		<path d="M350.4,412.6c-0.6,1.1-1.2,2.1-1.9,3.1C349.2,414.7,349.8,413.7,350.4,412.6L350.4,412.6z"/>
		<path d="M326.4,453.8C326.4,453.8,326.4,453.8,326.4,453.8C326.4,453.8,326.4,453.8,326.4,453.8z"/>
		<path d="M322.5,435.5c-1.4,0.6-2.5,1.3-3.2,2.2C319.9,436.8,321.1,436.1,322.5,435.5z"/>
		<path d="M604,416.6c-6.9-24-18.8-45.5-34.4-64.7c-27-33.2-60.5-57.6-100.8-72.1c-4.8-1.7-9.5-3.5-14.4-5c-0.5-0.1-0.9-0.2-1.4-0.3
			c-2.5-0.5-4.9,0.8-5.9,3.1c-0.1,0.1-0.1,0.2-0.1,0.3c0,0,0,0,0,0c0,0,0,0,0.1,0c0,0,0,0,0,0c0.2,0.1,0.4,0.3,0.5,0.4c0,0,0,0,0,0
			c0.1,0.1,0.1,0.1,0.2,0.2c0,0,0,0.1,0.1,0.1c0.1,0.1,0.1,0.2,0.2,0.2c0,0,0,0.1,0.1,0.1c0,0.1,0.1,0.2,0.1,0.3c0,0,0,0,0,0.1
			c0.2,0.4,0.3,1,0.4,1.6c0,0,0,0,0,0c0,0.2,0,0.3,0,0.5c0,0,0,0,0,0c0.1,1.6-0.1,3.7-0.5,6.7c-0.3,2.6-0.7,5.2-1.1,7.4
			c-2.1,7.3-5.1,13.8-9.1,19.3c-4.7,6.7-10.9,12.1-18.5,16.3c-0.9,0.5-1.9,1-2.9,1.5c-1,0.5-1.9,0.9-2.9,1.3
			c-10.7,4.6-22,6.2-33.7,6.1c-0.2,0-0.5,0-0.7,0c-0.1,0-0.2,0-0.2,0c-0.2,0-0.4,0-0.6-0.1c-0.1,0-0.1,0-0.2,0c-0.1,0-0.3,0-0.4-0.1
			c-0.1,0-0.1,0-0.2,0c-0.2,0-0.3-0.1-0.4-0.2c0,0-0.1,0-0.1-0.1c-0.1-0.1-0.2-0.1-0.3-0.2c0,0-0.1,0-0.1-0.1
			c-0.1-0.1-0.2-0.2-0.3-0.3c0,0,0-0.1-0.1-0.1c-0.2-0.3-0.3-0.7-0.3-1.1c0,0,0,0,0,0c-1.3,0.4-2.5,1-3.6,1.9
			c-2.8,2.5-3.1,5.9-3.6,11l-0.1,0.6c-3,30.4,7,57.2,30.4,81.9c2.3,2.5,4.6,5,7.1,7.7c1.2,1.3,2.5,2.7,3.8,4.1
			c0.7,0.8,1.6,1.3,2.6,1.6c0,0,0,0,0,0c-0.2,2.7-0.3,5.6,0.4,8.7c-12.6-5.4-24.2-12.8-34.5-21.9c0,0,0,0.1,0,0.1
			c-3.5-2.3-6.7-4.8-9.7-7.6c0.5,1.5,0.4,3.2-0.5,5.2c0.3,0.3,0.7,0.6,1.2,1c12.9,12.8,27.9,22.6,44.8,29.3c1,0.4,1.9,0.8,3,1
			c11,2.9,16.7-0.8,17.1-12.2c0.5-14.2-3.5-27.6-9.8-40.2c-2.2-4.4-4.2-9.1-8.1-12.5c0.2,4.1,2.7,7.1,4.4,10.4
			c6.4,12.9,11.2,26.3,11.1,41c0,2.4-0.5,4.9-1.3,7.2c-1.3,3.8-4.4,4.3-8.1,4.1c-3.7-0.2-3.5-2.9-4.2-5.4c-1.9-6.9,1.7-14-1.3-21
			c-1.9-4.5-3.8-8.7-8-11.6c1.4,6.2,7.1,11.1,4.9,19.2c-4-4.3-7.4-8.2-10.9-11.9c-20.7-21.8-32-47.1-29-77.8
			c0.9-9.2,0.7-9.4,10.2-9.6c16.1-0.5,31.2-3.9,44-14.2c13.6-10.9,21.3-25.1,22.6-42.6c0.1-1.7,0.3-3.5,0.4-5.2
			c0-0.2,0.1-0.3,0.3-0.8c12.5,2.6,24.1,7.7,35.6,13.2c40.3,19.5,72.7,47.8,95.8,86.3c6.8,11.2,11.6,23.4,16.3,35.7
			c2.3,5.9,1.5,11.1-1,16.6c-8.8,19.1-22.7,33.7-39.6,45.8c-17.2,12.3-35.9,21.4-56.4,26.9c-1,0.3-2,0.5-3.6,0.8
			c2-8.3,3.3-16.1,3.3-24.1c-0.1-20.5-8.6-37.9-20.6-53.8c-17.2-22.7-39.8-37.9-66.9-46.2c-8.6-2.6-17.5-4-27.5-3.2
			c1.5,2,2.9,1.9,4.1,1.9c35.2,2,62.5,18.8,85,44.7c3.7,4.3,6.8,9.3,10.1,14c18.3,25.9,13.2,51.6-1,77.1
			c-13.4,24.1-35.1,29.3-61.2,23.6c-23.6-5.2-42.6-18.7-59.6-35.2c-13-12.6-24-26.7-33.4-42.1c-0.3-0.4-0.5-0.8-0.7-1.2
			c-1.1,0.1-2.2,0.1-3.3-0.2c-0.8-0.2-1.6-0.5-2.3-0.9c0.1,2.2,1.2,4,1.8,5c2.6,4.3,5.3,8.4,8.2,12.5c7.1,7.6,13.7,15.6,19.7,23.9
			c3.2,3.1,6.5,6.1,9.8,9.1c6,5.5,12.1,10.9,18.5,16.1c12.3,8.7,24.6,14.4,37.5,17.6c0.9,0.2,1.8,0.4,2.7,0.6
			c2.2,0.5,4.3,0.9,6.4,1.2c6.4-0.2,12.9,0.3,19,0.7c18.2-1.7,32.1-11.1,41.5-28.1c1.7-3,3.4-6.2,5-9.7c0.1,0.1,0.2,0.2,0.2,0.3
			c0.7,0.7,1.5,1.2,2.5,1.4c0.8,0.2,1.6,0.2,2.4,0c0.6-0.1,1-0.2,1.5-0.3c0.9-0.2,1.6-0.4,2.3-0.5c16.8-4.5,32.8-11.5,47.9-20.9
			c0,0,0,0,0,0c1.8-1.4,3.6-2.9,5.4-4.3c3.4-2.7,6.8-5.4,10.3-8c0.4-0.3,0.6-0.5,0.9-0.6c0.4-0.4,0.9-0.7,1.3-1.1
			c1.6-1.4,3.1-2.8,4.7-4.2c3-2.8,5.8-5.7,8.6-8.6c4.8-5.1,9.2-10.4,13.8-15.7c1.9-3.1,3.7-6.2,5.3-9.5c0.8-2.6,1.6-5.2,2.2-7.9
			C605.2,424.3,605.1,420.6,604,416.6z"/>
		<path d="M448.6,281.4C448.6,281.4,448.6,281.5,448.6,281.4C448.6,281.5,448.6,281.4,448.6,281.4z"/>
		<path d="M448.6,280.9C448.6,280.9,448.6,280.9,448.6,280.9C448.6,280.9,448.6,280.9,448.6,280.9z"/>
		<path d="M447.7,278.6C447.7,278.6,447.8,278.6,447.7,278.6C447.8,278.6,447.7,278.6,447.7,278.6z"/>
		<path d="M376.9,339.4c-0.1-0.1-0.2-0.2-0.3-0.3C376.7,339.2,376.8,339.3,376.9,339.4z"/>
		<path d="M446.9,277.8C446.9,277.8,447,277.9,446.9,277.8C447,277.9,446.9,277.8,446.9,277.8z"/>
		<path d="M379.4,340.1c0.2,0,0.4,0,0.7,0c11.7,0.1,23-1.5,33.7-6.1c-10.7,4.6-22,6.2-33.7,6.1C379.9,340.1,379.6,340.1,379.4,340.1
			z"/>
		<path d="M419.5,331.2c7.6-4.2,13.8-9.7,18.5-16.3C433.3,321.5,427.2,327,419.5,331.2z"/>
		<path d="M377.3,339.6c-0.1-0.1-0.2-0.1-0.3-0.2C377.1,339.5,377.2,339.6,377.3,339.6z"/>
		<path d="M377.8,339.9c-0.2,0-0.3-0.1-0.4-0.2C377.5,339.8,377.7,339.8,377.8,339.9z"/>
		<path d="M448.1,279.3C448.2,279.3,448.2,279.3,448.1,279.3C448.2,279.3,448.2,279.3,448.1,279.3z"/>
		<path d="M378.4,340c-0.1,0-0.3,0-0.4-0.1C378.1,339.9,378.3,340,378.4,340z"/>
		<path d="M379.2,340.1c-0.2,0-0.4,0-0.6-0.1C378.8,340,379,340.1,379.2,340.1z"/>
		<path d="M376.5,338.9c-0.2-0.3-0.3-0.7-0.3-1.1C376.3,338.3,376.4,338.6,376.5,338.9z"/>
		<path d="M448,278.9C448,278.9,448,279,448,278.9C448,279,448,278.9,448,278.9z"/>
		<path d="M447.5,278.3C447.5,278.3,447.5,278.3,447.5,278.3C447.5,278.3,447.5,278.3,447.5,278.3z"/>
		<path d="M330.5,460.4c-0.8-1.8-0.4-2.7,2.1-3.6c12.8-5,23.4-13.2,31.7-24.1c1.7-2.2,2.7-2.6,4.3-1.4c0.9-2,0.9-3.7,0.5-5.2
			c-0.2-0.2-0.4-0.3-0.6-0.5c-2.1-0.5-3.9,0-5.2,0.9c0.1,0.1,0.1,0.2,0.2,0.2c0.1,0.1,0.2,0.2,0.2,0.3c0,0,0,0,0,0
			c0.1,0.1,0.1,0.2,0.2,0.3c0,0,0,0.1,0.1,0.1c0,0,0,0,0,0.1c0,0,0,0.1,0,0.1c0,0.1,0,0.1,0.1,0.2c0,0,0,0,0,0c0,0,0,0.1,0,0.1
			c0,0,0,0.1,0,0.1c0,0.1,0,0.1,0,0.2c0,0,0,0,0,0c0,0.1,0,0.1,0,0.2c0,0,0,0,0,0c0,0,0,0,0,0c0,0.1,0,0.1,0,0.2
			c0,0.1,0,0.1-0.1,0.2c0,0,0,0.1,0,0.1c0,0,0,0.1,0,0.1c0,0.1-0.1,0.2-0.1,0.3c-0.1,0.1-0.1,0.2-0.2,0.3c0,0-0.1,0.1-0.1,0.1
			c0,0,0,0,0,0.1c0,0.1-0.1,0.1-0.1,0.2c0,0,0,0,0,0c-0.1,0.1-0.1,0.2-0.2,0.3c-3.5,4.7-7.4,8.9-11.7,12.6
			c-3.8,3.2-7.9,6.1-12.4,8.5c-2.2,1.2-4.4,2.2-6.7,3.2c-0.2,0.1-0.4,0.1-0.6,0.2c-0.1,0-0.2,0.1-0.3,0.1c0,0-0.1,0-0.1,0
			c0,0,0,0,0,0c-0.1,0-0.2,0.1-0.3,0.1c0,0-0.1,0-0.1,0l-0.1,0c-0.2,0.1-0.4,0.1-0.6,0.1c0,0,0,0-0.1,0c0,0,0,0,0,0c0,0,0,0-0.1,0
			c0,0,0,0-0.1,0c-0.2,0-0.4,0.1-0.7,0.1c-0.1,0-0.2,0-0.3,0c-0.1,0-0.1,0-0.2,0c-0.1,0-0.2,0-0.3,0c0,0-0.1,0-0.1,0
			c-0.1,0-0.3-0.1-0.4-0.1c0,0,0,0,0,0c0,0,0,0,0,0c-0.4-0.2-0.8-0.4-1.2-0.8c0,0,0,0,0,0c-0.7,0.7-1.3,1.5-1.6,2.6
			c-0.3,0.8-0.4,1.7-0.3,2.4c0.7,0.4,1.4,0.7,2.3,0.9C328.3,460.6,329.4,460.6,330.5,460.4z"/>
		<path d="M363.5,426.6c0.1,0.1,0.2,0.2,0.2,0.3C363.6,426.8,363.5,426.7,363.5,426.6z"/>
		<path d="M330.1,455.2C330.1,455.2,330,455.2,330.1,455.2C330,455.2,330.1,455.2,330.1,455.2z"/>
		<path d="M331.3,454.9c-0.1,0-0.2,0.1-0.3,0.1C331.1,455,331.2,454.9,331.3,454.9z"/>
		<path d="M329.4,455.3c-0.1,0-0.2,0-0.3,0C329.2,455.3,329.3,455.3,329.4,455.3z"/>
		<path d="M364.1,428.3C364.1,428.3,364.1,428.3,364.1,428.3C364.1,428.3,364.1,428.3,364.1,428.3z"/>
		<path d="M328.9,455.3c-0.1,0-0.2,0-0.3,0C328.7,455.2,328.8,455.3,328.9,455.3z"/>
		<path d="M364,428.7c0,0,0,0.1,0,0.1C364,428.8,364,428.8,364,428.7z"/>
		<path d="M363.5,429.7C363.4,429.7,363.4,429.8,363.5,429.7C363.4,429.8,363.4,429.7,363.5,429.7z"/>
		<path d="M363.9,427.3C363.9,427.4,363.9,427.4,363.9,427.3C363.9,427.4,363.9,427.4,363.9,427.3z"/>
		<path d="M364.1,427.9c0,0,0-0.1,0-0.1C364.1,427.8,364.1,427.9,364.1,427.9C364.1,427.9,364.1,427.9,364.1,427.9z"/>
		<path d="M328.5,455.2c-0.1,0-0.3-0.1-0.4-0.1C328.2,455.1,328.4,455.2,328.5,455.2z"/>
		<path d="M331.4,454.8c0.1,0,0.2-0.1,0.3-0.1c0,0,0,0,0,0C331.6,454.8,331.5,454.8,331.4,454.8z"/>
		<path d="M330.2,455.2c0.2,0,0.4-0.1,0.6-0.1l-0.3,0.1C330.4,455.1,330.3,455.2,330.2,455.2z"/>
		<path d="M339,451.3c4.4-2.4,8.6-5.2,12.4-8.5C347.6,446.1,343.5,448.9,339,451.3z"/>
		<path d="M327.2,454.6c-0.1-0.1-0.2-0.2-0.3-0.3c0.4,0.4,0.8,0.6,1.2,0.8c-0.2-0.1-0.4-0.2-0.6-0.3
			C327.4,454.7,327.3,454.7,327.2,454.6z"/>
		<path d="M242.9,317.7c6.7,4.2,13.3,8.3,21.6,8.2c11.2,0,18-6,17.7-17.3c-0.5-19.1-11-32.5-25.8-43.1c-5-3.6-10.5-6.1-16.8-6.7
			c-12.7-1.1-20.7,6.8-19.5,19.6c0.3,3.3,1,6.5,1.6,9.8c0,0,0,0,0,0l0,0c0,0,0,0,0,0c0,0.1,0.1,0.3,0.1,0.4
			c1.3,4.6,3.1,8.8,5.5,12.7c0.3,0.6,0.7,1.1,1.1,1.7c0.3,0.5,0.6,1,1,1.4c0.5,0.8,1.1,1.5,1.7,2.3c0.7,0.9,1.4,1.7,2.2,2.6
			c1.5,1.7,3.2,3.3,4.9,4.8C239.6,315.3,241.2,316.5,242.9,317.7C242.9,317.7,242.9,317.7,242.9,317.7z M223,278.1
			c-0.7-12,7.2-18.8,18.9-16.2c18.2,3.9,37.4,27.1,37.8,45.5c0.3,11.6-8.7,18-20.7,14.9C241.6,317.6,224,296,223,278.1z"/>
		<path d="M229.2,304.4c0.5,0.8,1.1,1.5,1.7,2.3c0.7,0.9,1.4,1.7,2.2,2.6c-0.8-0.8-1.5-1.7-2.2-2.6
			C230.3,306,229.8,305.2,229.2,304.4z"/>
		<path d="M242.9,317.7c-1.7-1.1-3.3-2.4-4.8-3.6C239.6,315.3,241.2,316.5,242.9,317.7C242.9,317.7,242.9,317.7,242.9,317.7
			C242.9,317.7,242.9,317.7,242.9,317.7z"/>
		<path d="M224.4,296c0.6,1.2,1.1,2.4,1.8,3.6c0.3,0.6,0.6,1.2,1,1.7c-2.3-3.9-4.1-8.1-5.5-12.7C222.5,291.2,223.4,293.7,224.4,296z
			"/>
		<polygon points="221.7,288.2 221.7,288.2 221.7,288.2 		"/>
		<path d="M228.3,303c0.3,0.5,0.6,0.9,1,1.4c0,0,0,0,0,0C228.9,304,228.6,303.5,228.3,303z"/>
		<path d="M229.2,304.4c0.5,0.8,1.1,1.5,1.7,2.3C230.3,306,229.8,305.2,229.2,304.4C229.2,304.4,229.2,304.4,229.2,304.4z"/>
		<path d="M221.7,288.2C221.7,288.2,221.7,288.2,221.7,288.2C221.7,288.3,221.7,288.3,221.7,288.2c0,0.2,0.1,0.3,0.1,0.4
			C221.7,288.5,221.7,288.4,221.7,288.2z"/>
		<path d="M226.2,299.6c-0.6-1.2-1.2-2.4-1.8-3.6C225,297.2,225.6,298.4,226.2,299.6z"/>
		<path d="M221.7,288.3c0.8,2.7,1.7,5.3,2.8,7.7c-1-2.3-1.9-4.8-2.7-7.4C221.7,288.5,221.7,288.4,221.7,288.3z"/>
		<path d="M434.8,370.6c14.8,6.1,28.6,14.8,41.3,25.8c25.9,22.3,41.7,50.3,47.1,84.1c-0.7-12.6-3.5-24.4-7.9-35.4
			c-6.2-15.2-15.6-28.8-27.6-41c-11.7-11.9-24.3-21.7-38.1-29c-18.6-9.9-39.3-15.2-62.5-14.6c8.2,0.3,16.1,1.3,23.7,2.8
			C419.2,365,427.1,367.4,434.8,370.6z"/>
		<path d="M515.3,445.1c-6.2-15.2-15.6-28.8-27.6-41c-11.7-11.9-24.3-21.7-38.1-29c13.8,7.3,26.4,17.2,38.1,29
			C499.7,416.3,509.1,429.9,515.3,445.1z"/>
		<path d="M476.1,396.4c-12.8-11-26.5-19.7-41.3-25.8C449.6,376.7,463.4,385.4,476.1,396.4c25.9,22.3,41.7,50.3,47.1,84.1
			c0,0,0,0,0,0C517.8,446.6,502,418.6,476.1,396.4z"/>
		<path d="M410.9,363.3c-7.6-1.6-15.6-2.6-23.7-2.8c0,0-0.1,0-0.1,0C395.3,360.7,403.2,361.7,410.9,363.3z"/>
		<path d="M499.6,312.7c1.8,1,3.6,2,5.3,3.1c2.8,1.7,5.6,3.5,8.3,5.3c9.4,6.3,18.2,13.3,26.5,21c0.7,0.6,1.4,1.3,2.1,1.9
			c1,0.9,1.9,1.9,2.9,2.9c8.1,8.1,15.3,16.8,21.8,26.2c1.6,2.3,3.1,4.6,4.7,6.9c5.1,8,9.3,16.6,13.3,25.2c0,0,0,0,0,0
			c0,0.1,0.1,0.1,0.1,0.2c2.3,5.1,4.6,10.3,7,15.4c-1.8-6.6-4.1-13-6.6-19.1c-7.5-17.9-17.9-33.9-30.8-48.4
			c-4.5-5-9.3-9.9-14.3-14.6c-17.9-16.6-48.3-34.7-66.4-40.3c-4.1-1.3-7.5-1.9-10.1-1.7c7.5,2.8,14.8,5.8,22.1,9
			C490.2,307.8,495,310.1,499.6,312.7z"/>
		<path d="M485.3,305.6c-7.2-3.3-14.6-6.2-22.1-9c0,0,0,0,0,0C470.7,299.4,478.1,302.3,485.3,305.6z"/>
		<path d="M539.7,342c0.7,0.6,1.4,1.3,2.1,1.9c1,0.9,1.9,1.9,2.9,2.9c-1-1-1.9-1.9-2.9-2.9C541.1,343.3,540.4,342.6,539.7,342z"/>
		<path d="M584.5,405.3c0-0.1-0.1-0.1-0.1-0.2C584.5,405.2,584.5,405.2,584.5,405.3z"/>
		<path d="M571.2,379.9c-1.5-2.3-3.1-4.7-4.7-6.9C568.1,375.3,569.7,377.6,571.2,379.9c5.1,8,9.3,16.6,13.3,25.2
			C580.5,396.5,576.3,387.9,571.2,379.9z"/>
		<path d="M591.5,420.7c-1.8-6.6-4.1-13-6.6-19.1C587.4,407.7,589.6,414,591.5,420.7C591.5,420.7,591.5,420.7,591.5,420.7z"/>
		<path d="M499.6,312.7c1.8,1,3.6,2,5.3,3.1c2.8,1.7,5.6,3.5,8.3,5.3c-2.7-1.8-5.5-3.6-8.3-5.3C503.2,314.7,501.4,313.7,499.6,312.7
			z"/>
		<path d="M554,353.1c-4.5-5-9.3-9.9-14.3-14.6c-17.9-16.6-48.3-34.7-66.4-40.3c18.1,5.6,48.4,23.7,66.4,40.3
			C544.8,343.2,549.5,348.1,554,353.1z"/>
		<path d="M457.1,312.5c3.7,1.2,7.4,2.4,11,3.8c22.7,8.7,42.8,21.6,60.8,38c1.6,1.5,3.2,2.9,4.7,4.5c20.8,20.2,35.4,44.3,45,71.4
			c0.6,1.8,1.2,3.5,1.8,5.3c1.7-10.4-16.9-51.2-45-78.6c-17.6-17.1-41.2-31.9-58.6-39.4C468.2,314,461.2,312.1,457.1,312.5z"/>
		<path d="M528.8,354.3c-17.9-16.4-38.1-29.3-60.8-38C490.7,325,510.9,337.9,528.8,354.3z"/>
		<path d="M476.7,317.6c-8.5-3.6-15.5-5.5-19.6-5.1c0,0,0,0,0,0C461.2,312.1,468.2,314,476.7,317.6z"/>
		<path d="M580.3,435.5C580.3,435.5,580.3,435.5,580.3,435.5c-0.6-1.8-1.2-3.6-1.8-5.3C579.2,432,579.8,433.8,580.3,435.5z"/>
		<path d="M544.2,408.1c2.3,3.6,4.5,7.4,6.5,11.2c5.6,10.3,10.2,21.2,14,32.6c1.1-40.3-80.5-122-120.8-121.1
			c28.8,9.3,53.6,25.1,75.1,46.1C528.8,386.4,537.2,396.8,544.2,408.1z"/>
		<path d="M564.8,451.8C564.8,451.8,564.8,451.8,564.8,451.8c1.1-40.3-80.5-122.1-120.8-121.1c0,0,0,0,0,0
			C484.3,329.7,565.9,411.5,564.8,451.8z"/>
		<path d="M544.2,408.1c2.3,3.6,4.5,7.4,6.5,11.2C548.7,415.4,546.5,411.7,544.2,408.1z"/>
		<path d="M498.8,391.1c2.6,2.4,5,4.9,7.4,7.5c10.7,11.5,19.3,24.2,26,38c4.8,10.1,8.7,20.7,11.5,31.9c0.9-13.2-12.9-46.5-35.9-71.8
			c-2.1-2.4-4.4-4.7-6.7-6.8c-14-13.4-31.1-24.3-46.1-31.5c-0.1-0.1-0.3-0.1-0.4-0.2c0,0,0,0,0,0c-11.3-5.4-21.4-8.8-28.2-9.7
			c-2.3-0.3-4.2-0.3-5.6,0c2.8,0.7,5.6,1.4,8.4,2.2C455.6,358.1,478.6,372.1,498.8,391.1z"/>
		<path d="M429.2,350.5c26.5,7.7,49.5,21.6,69.6,40.6c2.6,2.4,5,4.9,7.4,7.5c-2.4-2.5-4.8-5-7.4-7.5
			C478.6,372.1,455.6,358.1,429.2,350.5z"/>
		<path d="M507.8,396.6c-2.1-2.4-4.4-4.7-6.7-6.8c-14-13.4-31.1-24.3-46.1-31.5c15,7.3,32,18.1,46.1,31.5
			C503.4,392,505.6,394.3,507.8,396.6z"/>
		<path d="M420.8,348.3C420.8,348.3,420.8,348.3,420.8,348.3c1.4-0.3,3.3-0.2,5.6,0C424.1,348,422.2,348,420.8,348.3z"/>
		<path d="M454.6,358C454.6,358,454.6,358,454.6,358C454.6,358,454.6,358,454.6,358z"/>
		<path d="M543.7,468.5C543.7,468.5,543.7,468.5,543.7,468.5c-2.9-11.2-6.7-21.9-11.5-31.9C537,446.6,540.9,457.2,543.7,468.5z"/>
		<path d="M367.3,453.1c7.4,8.2,15.6,15.5,24.7,21.7c10.4,7.2,21.4,13.2,34,15.3c10.1,1.7,18.1-0.5,23.6-6.2
			c3.4-3.5,5.9-8.4,7.3-14.5c3.7-15.8,2.3-31.2-1.9-46.5c-0.5-1.9-1-3.7-1.6-5.6c0-0.1-0.1-0.3-0.1-0.4c0,0,0,0,0,0c0,0,0-0.1,0-0.1
			c-0.1-0.3-0.2-0.7-0.3-1c-0.2-0.6-0.6-1.2-1.5-1.3c-0.1,0-0.3,0-0.4,0c0,0,0,0,0,0c-0.2,0.3-0.6,0.6-0.5,0.8c0,0,0,0,0,0
			c0.5,2.2,1.1,4.4,1.7,6.5c4.2,15.7,6.4,31.5,2.3,47.5c-3.6,14.1-12.7,20.5-26.4,18.7c-3.6-0.5-7.1-1.3-10.6-2.5
			c-0.9-0.3-1.7-0.6-2.5-1c-16.9-7-31.1-17.7-43.7-30.8c-0.4-0.4-0.8-0.8-1.1-1.2c-0.9-1-1.7-2-2.7-2.9c-0.9-0.8-1.9-1.6-3.2-2.1
			C364,450.5,366,451.7,367.3,453.1z"/>
		<path d="M453.2,416.8c0,0,0,0.1,0,0.1C453.2,416.9,453.2,416.9,453.2,416.8z"/>
		<path d="M455,423c-0.5-1.9-1-3.7-1.6-5.6c0-0.1-0.1-0.3-0.1-0.4c0,0.1,0.1,0.3,0.1,0.4C454,419.3,454.5,421.1,455,423z"/>
		<path d="M451,414.5C451,414.5,451,414.6,451,414.5C451,414.6,451,414.5,451,414.5C451,414.5,451,414.5,451,414.5z"/>
		<path d="M367.3,449.7c1,0.9,1.9,1.9,2.7,2.9C369.2,451.6,368.3,450.6,367.3,449.7z"/>
		<path d="M453,415.9c-0.2-0.6-0.6-1.2-1.5-1.3C452.3,414.7,452.7,415.2,453,415.9z"/>
		<path d="M428,488.1c13.7,1.8,22.9-4.6,26.4-18.7c4.1-16,1.9-31.8-2.3-47.5c-0.6-2.2-1.2-4.3-1.7-6.5c0,0,0,0,0,0c0,0,0,0,0,0
			c0.5,2.2,1.1,4.4,1.7,6.5c4.2,15.7,6.4,31.5,2.3,47.5C450.8,483.5,441.7,489.9,428,488.1c-3.6-0.5-7.1-1.3-10.6-2.5
			C420.9,486.8,424.4,487.6,428,488.1z"/>
		<path d="M367.3,453.1c7.4,8.2,15.6,15.4,24.7,21.7c10.4,7.2,21.4,13.2,34,15.3c10.1,1.7,18.1-0.5,23.6-6.2
			c-5.5,5.7-13.5,7.9-23.6,6.2c-12.6-2.1-23.7-8.1-34-15.3C382.9,468.5,374.7,461.3,367.3,453.1c-1.3-1.4-3.3-2.6-3.1-5.6
			c0,0,0,0,0,0C364,450.5,366,451.7,367.3,453.1z"/>
		<path d="M391,252.1c1.3-0.5,1.4-1.8,1-3.1c-0.9-2.7-3.4-3.5-5.8-4.5c1.2-2.1,2.8-1.8,4.3-2c1-0.1,2.4-0.8,1.2-1.9
			c-1.9-2-4.2-1.1-6.1,0.1c-1.9,1.2-3.5,2.9-3,5.5c0,0.2,0.9,0.6,1.1,0.5c3.7-1.9,4.3,1.2,5.3,3.4C389.4,251.1,389,252.9,391,252.1z
			"/>
		<path d="M335.6,282.7c-0.6,0-1.4,0.2-1.7,0.7c-2.2,2.8-5,4.6-8.2,6.1c-0.6,0.3-1.4,0.6-1.1,1.4c0.2,0.6,0.8,1,1,1.2
			c3,0.7,10.7-5.5,10.7-8.2C336.3,283.5,335.8,282.7,335.6,282.7z"/>
		<path d="M272,298.2c0.5-11.2-18.9-30.9-28.7-28.8C257.4,274.8,265.6,285,272,298.2z"/>
	</g>
	<g>
		<path class="st120" d="M118.4,286c8.4-1.2,17.7-2.5,27-3.9c0.9-0.1,2.5,0.3,2.1-1.6c-0.3-1.2-0.8-2.4-2.4-2.3
			c-2,0.1-4.1,0.2-6.1,0.6c-2.8,0.5-5,0.4-7.2-2.2c-2.5-2.9-6.1-1.7-7.2,2.1c-0.4,1.4-1.1,2.1-2.4,2.4c-1.7,0.3-3.5,0.4-5.2,0.8
			c-1.4,0.3-3.7-0.5-3.3,2.3C114.1,286.8,116,286,118.4,286z"/>
		<path class="st7" d="M223.8,384.6c-14.2-32.5-28.4-64.9-42.6-97.4c-1.5-3.5-3.9-5.1-7.7-4.6c-4.3,0.5-8.7,1.1-13,1.8
			c-2.8,0.5-6.4-0.6-7.9,3.4c-0.2,0.5-1.4,0.6-2.2,0.7c-8.8,1.3-17.5,2.8-26.3,3.8c-4.5,0.5-9.3,2.9-13.6-0.9c-0.3-0.3-1.1,0-1.1,0
			c-8.8,1.2-17.2,2.4-25.6,3.4c-5.2,0.7-5.8,1.6-3.8,6.6c13.6,33,27.3,66,40.9,99c2.4,5.9,3.7,6.6,9.9,5.6
			c29.3-4.3,58.6-8.6,87.8-12.9C225.8,392.2,226.6,391,223.8,384.6z M186.6,336.6c0.1,0.5,0.1,1,0.2,1.6
			c-15.1,2.1-30.3,4.3-45.4,6.4c-0.1-0.5-0.1-0.9-0.2-1.4C156.3,340.5,171.5,338.8,186.6,336.6z M175,310.2
			c-15.2,2.2-30.5,4.4-45.7,6.7C132,314.2,171.6,308.5,175,310.2z M110.2,323.2c-2.9-1.7-5.8-3.5-8.7-5.4c-1.1-0.7-1.9-1.7-1.1-3.1
			c0.5-0.9,1.2-1.4,2.7-1.4c1.4,0.8,3.1,1.7,4.5,2.9c2.1,1.8,3.5,1.9,4.9-0.9c1.5-2.9,3.5-5.5,5.3-8.2c0.7-1.1,1.6-2,3-1.1
			c1.4,0.9,1.6,2,0.8,3.4c-2.5,4.2-4.9,8.5-7.3,12.7C113.4,323.8,111.9,324.2,110.2,323.2z M121.4,352.2c-2.6-1.7-5.3-3.3-7.9-5
			c-1-0.6-1.6-1.5-1-2.8c0.5-0.9,1.3-1.4,2.8-1.2c1.3,0.7,3.1,1.4,4.5,2.6c2.3,1.9,3.3,1,4.5-1.2c1.6-3,3.5-5.8,5.3-8.6
			c0.7-1.1,1.7-2.2,3.3-1.1c1.6,1.1,1.5,2.2,0.6,3.8c-2.4,3.9-4.6,8-6.9,12C125.5,352.9,123.7,353.7,121.4,352.2z M145.9,368.3
			c-2.4,4.1-4.7,8.3-7.1,12.4c-0.6,1.1-1.4,2-2.8,2.1c-1.5,0.1-10.9-5.4-11.4-6.8c-0.4-1-0.2-1.9,0.5-2.7c0.6-0.7,1.4-0.8,2.2-0.5
			c0.5,0.2,1,0.5,1.4,0.8c6.3,3.5,6.2,3.5,10.1-2.9c1.1-1.7,2.2-3.4,3.4-5.1c0.6-0.8,1.4-1.4,2.4-0.9c0.9,0.4,1.5,1.1,1.8,2.2
			C146.3,367.3,146.1,367.9,145.9,368.3z M152.6,370.3c15.2-2.2,30.3-4.4,45.5-6.6c0.1,0.5,0.1,1,0.2,1.6
			c-15.2,2.2-30.3,4.4-45.5,6.6C152.7,371.3,152.7,370.8,152.6,370.3z M156.2,379.4c-0.1-0.5-0.1-0.9-0.2-1.4
			c15.3-2.1,30.6-4.2,45.9-6.3c0,0.5,0,1,0.1,1.5C186.8,375.5,171.6,378.1,156.2,379.4z"/>
		<path d="M229.1,382.3l-10.2-20.9c-5.4-12.7-11-25.3-16.5-37.9c-5.7-12.9-11.3-25.7-17-38.5c-2.8-6.2-7.2-8.4-13.8-7.5
			c-5.8,0.8-11.6,1.7-17.4,2.4c-0.7,0.1-1.4,0.4-2.1,0.4c-0.5,0-1-0.2-1.3-0.7c-2.6-4.8-6.8-3.6-10.8-3c-2.4,0.4-4.3,0.1-6.4-1.6
			c-3.5-3-9-2.9-10.1,0.2c-1.6,4.7-5.1,4.6-8.6,4.9c-1.8,0.2-4.1,0.2-4,2.4c0,1.7-0.5,2.6-1.2,3.1c-0.9,0.6-2.2,0.7-3.5,0.9
			c-8,1.1-16,1.9-23.9,3.2c-2.9,0.4-4.9,1.1-6.3,2.1c-0.8,0.6-1.3,1.3-1.7,2.2c-0.7,1.9-0.2,4.6,1.3,8.2c14,33.9,28,67.8,41.9,101.7
			c2.7,6.7,6.4,8.9,13.7,7.8c25.6-3.8,51.3-7.4,76.9-11.3c2.7-0.4,5.4-0.7,8.1-1c1.4-0.2,2.8-0.4,4.2-0.6c0.1,0,0.2,0,0.4-0.1
			c1.5-0.3,2.9-0.6,4.4-1c2-0.7,3.9-1.9,5.1-4C232.3,389.6,230.3,385.2,229.1,382.3z M117.1,282c1.7-0.4,3.5-0.5,5.2-0.8
			c1.3-0.2,2-0.9,2.4-2.4c1-3.8,4.7-5.1,7.2-2.1c2.2,2.6,4.4,2.7,7.2,2.1c2-0.4,4-0.5,6.1-0.6c1.6-0.1,2.1,1.1,2.4,2.3
			c0.4,1.9-1.2,1.5-2.1,1.6c-9.3,1.4-18.5,2.7-27,3.9c-2.4,0-4.3,0.8-4.6-1.8C113.4,281.5,115.7,282.3,117.1,282z M218.7,393.2
			c-29.3,4.2-58.6,8.5-87.8,12.9c-6.2,0.9-7.4,0.3-9.9-5.6c-13.6-33-27.2-66-40.9-99c-2-4.9-1.4-5.9,3.8-6.6
			c8.4-1.1,16.8-2.2,25.6-3.4c0.1,0,0.8-0.2,1.1,0c4.3,3.7,9.1,1.4,13.6,0.9c8.8-1,17.5-2.5,26.3-3.8c0.8-0.1,2.1-0.3,2.2-0.7
			c1.4-4,5-2.9,7.9-3.4c4.3-0.8,8.6-1.3,13-1.8c3.7-0.5,6.1,1.1,7.7,4.6c14.1,32.5,28.4,64.9,42.6,97.4
			C226.6,391,225.8,392.2,218.7,393.2z"/>
		<path d="M126.7,350.6c2.3-4,4.5-8,6.9-12c0.9-1.6,1-2.7-0.6-3.8c-1.6-1.1-2.6,0-3.3,1.1c-1.9,2.8-3.7,5.7-5.3,8.7
			c-1.2,2.1-2.2,3.1-4.5,1.2c-1.4-1.2-3.2-1.9-4.5-2.6c-1.5-0.2-2.3,0.3-2.8,1.2c-0.6,1.2,0,2.1,1,2.8c2.6,1.7,5.2,3.4,7.9,5
			C123.7,353.7,125.4,352.9,126.7,350.6z"/>
		<path d="M144.7,364.7c-1.1-0.5-1.8,0-2.4,0.9c-1.2,1.7-2.3,3.4-3.4,5.1c-3.9,6.4-3.9,6.4-10.1,2.9c-0.5-0.3-0.9-0.6-1.4-0.8
			c-0.8-0.3-1.6-0.2-2.2,0.5c-0.7,0.8-0.9,1.7-0.5,2.7c0.5,1.4,9.8,6.9,11.4,6.8c1.4-0.1,2.2-1,2.8-2.1c2.4-4.1,4.7-8.3,7.1-12.4
			c0.3-0.5,0.4-1,0.6-1.4C146.2,365.8,145.6,365.1,144.7,364.7z"/>
		<path d="M114.4,322c2.4-4.2,4.9-8.5,7.3-12.7c0.8-1.4,0.7-2.6-0.8-3.4c-1.4-0.8-2.3,0.1-3,1.1c-1.8,2.7-3.8,5.3-5.3,8.2
			c-1.4,2.8-2.8,2.7-4.9,0.9c-1.4-1.2-3.2-2-4.5-2.9c-1.5,0-2.2,0.5-2.7,1.4c-0.8,1.4,0,2.4,1.1,3.1c2.8,1.9,5.7,3.7,8.7,5.4
			C111.9,324.2,113.4,323.8,114.4,322z"/>
		<path d="M156,378c0.1,0.5,0.1,0.9,0.2,1.4c15.4-1.3,30.5-3.9,45.8-6.3c0-0.5,0-1-0.1-1.5C186.6,373.7,171.3,375.9,156,378z"/>
		<path d="M129.2,316.8c15.2-2.2,30.5-4.4,45.7-6.7C171.5,308.5,132,314.2,129.2,316.8z"/>
		<path d="M141.4,344.6c15.1-2.1,30.3-4.3,45.4-6.4c-0.1-0.5-0.1-1.1-0.2-1.6c-15.2,2.2-30.4,3.9-45.4,6.6
			C141.3,343.7,141.3,344.2,141.4,344.6z"/>
		<path d="M198,363.7c-15.2,2.2-30.3,4.4-45.5,6.6c0.1,0.5,0.1,1.1,0.2,1.6c15.2-2.2,30.3-4.4,45.5-6.6
			C198.2,364.7,198.1,364.2,198,363.7z"/>
	</g>
	<g>
		<path class="st7" d="M104.4,184.4c0,3.3,2.2,5.1,5.2,5.2c3.2,0.1,5-1.8,5.2-5.3c-0.2-3.2-2.2-4.8-5.4-4.7
			C106.4,179.7,104.4,181.3,104.4,184.4z"/>
		<path class="st7" d="M12.2,166.5c1.7,0,3.3,0.1,5,0.1c24.8,0,49.7,0,74.5,0v0.2c24.2,0,48.4,0,72.7,0c2.3,0,4.6-0.1,6.9-0.1
			c1.9,0,2.1-1.2,2.1-2.8c0-1.5-0.2-2.7-2.1-2.7c-1.7,0-3.3-0.2-5-0.2c-49.4,0-98.7,0-148.1,0c-2,0-4,0.2-5.9,0.2
			c-1.9,0-2.1,1.1-2.3,2.7C9.7,165.7,10.4,166.5,12.2,166.5z"/>
		<path class="st2" d="M23.4,149.5c3.1,0.2,6.1-2.7,6.3-5.9c0.1-3.2-2.6-6.3-5.8-6.5c-3.1-0.1-6.2,2.8-6.3,5.9
			C17.4,146.2,20.2,149.3,23.4,149.5z"/>
		<path class="st7" d="M145.4,184.4c0.2,3.3,2.1,5.3,5.2,5.2c3-0.1,5.2-1.9,5.2-5.3c0-3.1-2-4.7-5-4.8
			C147.6,179.6,145.6,181.1,145.4,184.4z"/>
		<path class="st2" d="M109.5,148.4c3.1,0.1,5.2-1.7,5.2-5.1c-0.1-3.1-1.8-4.7-4.9-4.9c-2.9,0.2-5,1.5-5.2,4.6
			C104.4,146.2,106.4,148.3,109.5,148.4z"/>
		<path class="st7" d="M124.9,184.5c0,2.9,1.8,4.9,4.8,5.1c3.2,0.2,5-1.8,5.5-5.2c-0.4-2.6-1.7-4.6-4.8-4.7
			C127,179.6,124.9,181.3,124.9,184.5z"/>
		<path class="st7" d="M82,125.6c8.1,0,16.2,0,24.3,0c0-0.4,0-0.9,0-1.4c0-6.4-0.2-22.9,0.1-29.3c0.2-4-1.3-5-5-4.8
			c-4.9,0.3-9.8,0.3-14.6,0c-3.5-0.2-4.9,0.7-4.7,4.5c0.3,6.5,0,23.2-0.1,29.7C82,124.8,82,125.2,82,125.6z"/>
		<path class="st2" d="M107.5,84.7C107.5,84.6,107.5,84.6,107.5,84.7c20.7,0,41.5,0.1,62.2-0.1c11.4-0.1,19.9-5.6,24.5-16.1
			c4.2-9.6,2.2-18.5-4.5-26.4c-7.6-9-20.8-11-32.6-5.2c-4.5,2.2-6.2,1.3-5.9-3.8c0.4-7.8-2.5-14-8.3-18.9c-3.3-2.8-7.2-4.5-11.3-5.8
			c-13.4-4.4-26.5-3.6-39,3c-9.3,4.9-12,10.8-10,21.2c0.3,1.8-0.2,3-1.9,3.7c-1.7,0.7-2.9-0.3-3.9-1.5c-1.1-1.3-0.9-3.2-2.5-4.3
			c-5.3-3.5-18.7-1.2-22.5,4c-2.3,3.2-1.8,5.4,1.9,7.3c1.4,0.7,2.3,1.6,2,3.2c-0.4,1.7-1.6,2.6-3.4,2.4c-1.2-0.1-2.4-0.5-3.6-0.8
			c-8.1-1.7-16.4,1.3-20.6,7.7c-4.5,6.8-4.4,15.6,0.5,22.3c4.3,5.9,10.6,8,17.6,8.1C66.6,84.7,87.1,84.7,107.5,84.7z"/>
		<path class="st2" d="M150.7,148.5c3-0.1,5.1-2.1,5-5.4c-0.1-3.3-2.4-4.6-5.3-5.1c-3.1,0.5-5,2.1-4.9,5.5
			C145.7,146.8,147.7,148.6,150.7,148.5z"/>
		<path class="st7" d="M132,90.2c-5.6,0.2-11.3,0.2-16.9,0c-2.7-0.1-3.3,1.1-3.3,3.5c0.1,6.9,0,23.8-0.1,30.7c0,0.4,0,0.8,0,1.2
			c1.4,0,2.9,0,4.3,0c6.6,0,13.1,0,19.7-0.1c0-0.5,0-1,0-1.5c0-6.6-0.1-23.2,0.1-29.7C135.8,91.4,135.1,90.1,132,90.2z"/>
		<path class="st2" d="M125,143.3c0.1,3.1,2.1,5.2,5.3,5c2.9-0.1,5-1.9,4.9-5c-0.1-3.2-2.2-4.9-5.4-5.1
			C126.8,138.6,124.9,140.3,125,143.3z"/>
		<path class="st120" d="M114.7,225.6c-0.1-3.1-1.8-4.7-4.9-4.9c-2.9,0.2-5,1.5-5.2,4.6c-0.2,3.2,1.8,5.3,5,5.4
			C112.6,230.8,114.7,229,114.7,225.6z"/>
		<path class="st7" d="M193.2,202.3c-3.8-0.1-7.6,0-11.3-0.2c-2.2-0.1-3.3,0.3-3.4,2.9c0,0.7,0.1,1.5,0.2,2.2
			c0.1,0.6,0.7,1.1,1.3,1.1c5.2,0.2,10.4,0.5,15.7,0.4c0.7,0,1.2-0.6,1.2-1.2V205l-0.1,0C196.8,202.1,195,202.3,193.2,202.3z"/>
		<path class="st7" d="M180.5,210.9c-2.4-0.1-2.7,1.4-2.7,3.3c0,4,0,7.9,0,11.9h0c0,3.8,0,7.6,0,11.4c0,1.8-0.3,3.9,2.5,3.8
			c2.3-0.1,2.6-1.8,2.6-3.5c0-7.9,0-15.8-0.1-23.8C182.8,212.5,182.7,210.9,180.5,210.9z"/>
		<path class="st7" d="M180.3,158.9c2.4-0.1,2.6-1.8,2.6-3.5c0-7.9,0-15.8-0.1-23.8c0-1.5-0.2-3.1-2.4-3.2c-2.4-0.1-2.7,1.4-2.7,3.3
			c0,4,0,7.9,0,11.9h0c0,3.8,0,7.6,0,11.4C177.8,156.9,177.5,159,180.3,158.9z"/>
		<path class="st7" d="M177.9,196.4c0,1.6,0.1,3.1,2.3,3.2c2,0.1,2.7-1.2,2.7-2.9c0-8.1,0-16.1,0-24.2c0-1.9-1.1-2.7-2.9-2.7
			c-1.9,0.1-2.2,1.3-2.2,2.8v11.9h0.1C177.9,188.5,177.8,192.5,177.9,196.4z"/>
		<path class="st7" d="M181.2,161.3c-2.1-0.4-3.2,0.1-3,2.5c0.1,2.1,0.6,3.6,3.1,3.2c0.3,0,0.6,0.1,0.9,0c4.9-2.4,9.8,0.1,14.7,0.1
			v-5.7C191.7,161.3,186.4,162.3,181.2,161.3z"/>
		<path class="st7" d="M17.5,184.3c-0.1,3.3,2.6,6.2,5.9,6.4c3.1,0.2,6.2-2.7,6.3-5.9c0.1-3.4-2.5-6.1-5.9-6.2
			C20.4,178.4,17.6,181.1,17.5,184.3z"/>
		<path class="st2" d="M23.4,231.8c3.1,0.2,6.1-2.7,6.3-5.9c0.1-3.2-2.6-6.3-5.8-6.5c-3.1-0.1-6.2,2.8-6.3,5.9
			C17.4,228.6,20.2,231.6,23.4,231.8z"/>
		<path class="st2" d="M18.1,243.4c-2,0-4,0.2-5.9,0.2l159-0.1c-1.7,0-3.3-0.2-5-0.2C116.8,243.4,67.4,243.4,18.1,243.4z"/>
		<path class="st120" d="M171.2,202.2c-1.4,0-2.7-0.1-4.1-0.1c-50.3,0-100.6,0-150.9,0c-1.2,0-2.4,0.1-3.7,0.1c-2,0-2.6,1.9-2.5,3.8
			c0,0.8,0.2,1.5,0.6,1.9c35.1,0.1,70.2,0.1,105.4,0c17.2,0,34.5-0.2,51.7-0.1c1.8,0,3.7,0.1,5.5,0.1c0.5-0.6,0.8-1.9,0.7-3
			C173.8,203.2,173.2,202.1,171.2,202.2z"/>
		<path class="st120" d="M155.7,225.5c-0.1-3.3-2.4-4.6-5.3-5.1c-3.1,0.5-5,2.1-4.9,5.5c0.2,3.3,2.2,5.2,5.2,5
			C153.8,230.7,155.9,228.8,155.7,225.5z"/>
		<path class="st120" d="M135.1,225.7c-0.1-3.2-2.2-4.9-5.4-5.1c-3,0.4-4.9,2-4.8,5c0.1,3.1,2.1,5.2,5.3,5
			C133.1,230.6,135.3,228.8,135.1,225.7z"/>
		<path d="M203.5,171.5c0-0.8-0.1-1.4-0.2-2v-11c0.1-0.5,0.1-1.1,0.1-1.7c-0.1-8.7,0-17.4,0.1-26.1c0-3.1-1.3-4.5-4.4-4.4
			c-10.5,0.4-21-0.6-31.5-0.8c-8.8-0.1-17.7-0.1-26.5,0c0-0.4,0-0.8,0-1.2c0-6.6,0.2-23.2-0.1-29.7c-0.1-3.5,1.1-4.4,4.5-4.3
			c8.5,0.2,17.1,0.2,25.6,0c15-0.3,27.7-11.4,30.4-26.2c2.5-14.1-5.2-27.8-18.9-33.5c-7.4-3.1-14.9-3-22.4-1.1
			c-2.6,0.6-3.4,0.2-3.8-2.5c-1-6.7-4.4-12.3-9.7-16.6c-12.5-9.9-26.9-11.9-42-9.2C91.8,3.5,80.3,8.7,75.9,23
			c-0.6,2-2.1,1.3-3.3,1.1c-4.7-0.9-9.5-0.9-14.1,0.4c-6.4,1.8-12.2,4.8-13.3,12.2c-0.5,3.2-1.9,3.8-4.6,4.2
			C28.5,42.6,19.8,52,19.3,63.6c-0.6,12.7,7,22.7,19.4,25.8c6.3,1.6,12.8,0.4,18.2,0.8c3.1,0,5.3,0,7.4,0c2.1,0,4.3,0,6.4,0
			c5.8,0,5.9,0,5.9,6.1c0,5.9,0,22,0,27.9c0,0.4,0,0.9,0,1.3c-23.6,0-47.1,0-70.7-0.1c-4.4,0-5.9,1.4-5.8,5.8
			c0.3,8.4,0.1,16.8,0,25.2c0,2.5,0,4.7,3.2,5c2,0.2,1.8,1.7,2,3c0.2,1.4-0.5,1.9-1.7,2.1C0.4,167,0,169.1,0,171.9
			c0.1,8.5,0.1,17.1,0.1,25.6c0,2.5,0.2,4.6,3.3,5c1.3,0.1,1.9,0.9,1.8,2.1c-0.1,0.8,0.2,2.5-0.3,3.3c-3.6,0.2-5,1.7-4.8,5.8
			c0.3,8.4,0.1,16.8,0,25.2c0,2.5,0,4.7,3.2,5l177.9-0.1c5.7,1.1,11.5-0.3,17.2,0.1c3.4,0.2,5.1-1.1,5-4.7c-0.1-8.7,0-17.4,0.1-26.1
			c0-0.7-0.1-1.3-0.2-1.9v-14.5C204.6,188.5,203.4,179.9,203.5,171.5z M150.4,138c2.9,0.5,5.2,1.9,5.3,5.1c0.1,3.3-2,5.2-5,5.4
			c-3.1,0.1-5.1-1.7-5.2-5C145.4,140.1,147.3,138.6,150.4,138z M46.2,84.6c-7,0-13.3-2.2-17.6-8.1c-4.9-6.7-5-15.5-0.5-22.3
			c4.2-6.3,12.5-9.4,20.6-7.7c1.2,0.3,2.4,0.6,3.6,0.8c1.8,0.2,3-0.8,3.4-2.4c0.4-1.5-0.6-2.5-2-3.2c-3.6-1.8-4.2-4.1-1.9-7.3
			c3.8-5.2,17.2-7.5,22.5-4c1.6,1,1.4,3,2.5,4.3c1.1,1.3,2.2,2.2,3.9,1.5c1.6-0.6,2.2-1.9,1.9-3.7c-2-10.4,0.6-16.3,10-21.2
			c12.5-6.5,25.6-7.4,39-3c4.1,1.3,8,3,11.3,5.8c5.9,4.9,8.8,11.1,8.3,18.9c-0.3,5.1,1.4,6,5.9,3.8c11.8-5.8,25-3.7,32.6,5.2
			c6.7,7.9,8.7,16.8,4.5,26.4c-4.6,10.5-13.1,16-24.5,16.1c-20.7,0.2-41.5,0.1-62.2,0.1c0,0,0,0,0,0C87.1,84.7,66.6,84.7,46.2,84.6z
			 M135.7,124c0,0.5,0,1,0,1.5c-6.6,0-13.1,0.1-19.7,0.1c-1.4,0-2.9,0-4.3,0c0-0.4,0-0.8,0-1.2c0-6.9,0.1-23.8,0.1-30.7
			c0-2.4,0.5-3.6,3.3-3.5c5.6,0.2,11.3,0.2,16.9,0c3.1-0.1,3.8,1.3,3.8,4.1C135.6,100.8,135.7,117.4,135.7,124z M135.1,143.4
			c0.1,3.1-2,4.8-4.9,5c-3.2,0.2-5.2-1.9-5.3-5c-0.1-3,1.8-4.7,4.8-5C133,138.5,135,140.2,135.1,143.4z M82.1,94.7
			c-0.1-3.8,1.3-4.7,4.7-4.5c4.9,0.3,9.8,0.2,14.6,0c3.7-0.2,5.2,0.8,5,4.8c-0.3,6.4-0.1,22.9-0.1,29.3c0,0.5,0,0.9,0,1.4
			c-8.1,0-16.2,0-24.3,0c0-0.4,0-0.8,0-1.2C82.1,117.8,82.4,101.2,82.1,94.7z M109.8,138.3c3.1,0.2,4.9,1.8,4.9,4.9
			c0.1,3.4-2,5.2-5.2,5.1c-3.1-0.1-5.1-2.2-5-5.4C104.7,139.9,106.8,138.5,109.8,138.3z M23.9,137.1c3.1,0.1,5.9,3.2,5.8,6.5
			c-0.1,3.3-3.2,6.1-6.3,5.9c-3.2-0.2-5.9-3.2-5.8-6.4C17.7,139.8,20.7,136.9,23.9,137.1z M9.9,164c0.1-1.5,0.4-2.7,2.3-2.7
			c2,0,4-0.2,5.9-0.2c49.4,0,98.7,0,148.1,0c1.7,0,3.3,0.1,5,0.2c1.9,0,2.1,1.2,2.1,2.7c0,1.5-0.2,2.7-2.1,2.8
			c-2.3,0-4.6,0.1-6.9,0.1c-24.2,0-48.4,0-72.7,0v-0.2c-24.8,0-49.7,0-74.5,0c-1.7,0-3.3-0.1-5-0.1C10.4,166.5,9.7,165.7,9.9,164z
			 M155.8,184.4c0,3.3-2.1,5.2-5.2,5.3c-3.1,0.1-5-1.9-5.2-5.2c0.2-3.3,2.2-4.8,5.4-4.8C153.8,179.7,155.7,181.3,155.8,184.4z
			 M135.1,184.4c-0.5,3.5-2.2,5.4-5.5,5.2c-3-0.2-4.8-2.2-4.8-5.1c0.1-3.2,2.2-4.9,5.4-4.8C133.4,179.8,134.7,181.8,135.1,184.4z
			 M114.8,184.4c-0.2,3.4-2,5.4-5.2,5.3c-3-0.1-5.2-1.9-5.2-5.2c0-3.1,2-4.7,5-4.8C112.6,179.6,114.5,181.2,114.8,184.4z
			 M29.7,184.8c-0.1,3.2-3.2,6.1-6.3,5.9c-3.3-0.2-6-3.1-5.9-6.4c0.1-3.3,2.9-5.9,6.3-5.8C27.2,178.7,29.8,181.4,29.7,184.8z
			 M12.1,243.6c2,0,4-0.2,5.9-0.2c49.4,0,98.7,0,148.1,0c1.7,0,3.3,0.1,5,0.2L12.1,243.6z M17.6,225.4c0.1-3.2,3.2-6.1,6.3-5.9
			c3.1,0.1,5.9,3.2,5.8,6.5c-0.1,3.3-3.2,6.1-6.3,5.9C20.2,231.6,17.4,228.6,17.6,225.4z M104.6,225.3c0.1-3.1,2.3-4.4,5.2-4.6
			c3.1,0.2,4.9,1.8,4.9,4.9c0.1,3.4-2,5.2-5.2,5.1C106.4,230.6,104.4,228.6,104.6,225.3z M125,225.7c-0.1-3,1.8-4.7,4.8-5
			c3.2,0.2,5.2,1.9,5.4,5.1c0.1,3.1-2,4.8-4.9,5C127.1,230.9,125.1,228.8,125,225.7z M145.5,225.8c-0.2-3.4,1.8-4.9,4.9-5.5
			c2.9,0.5,5.2,1.9,5.3,5.1c0.1,3.3-2,5.2-5,5.4C147.7,231,145.7,229.1,145.5,225.8z M173.2,208c-1.8-0.1-3.7-0.1-5.5-0.1
			c-17.2-0.2-34.5,0-51.7,0.1c-35.1,0-70.2,0.1-105.4,0c-0.4-0.4-0.6-1-0.6-1.9c0-1.9,0.5-3.8,2.5-3.8c1.2,0,2.4-0.1,3.7-0.1
			c50.3,0,100.6,0,150.9,0c1.4,0,2.7,0.1,4.1,0.1c2,0,2.6,1,2.6,2.9C173.9,206.1,173.7,207.4,173.2,208z M177.8,143.7L177.8,143.7
			c0-4,0-7.9,0-11.9c0-1.9,0.3-3.4,2.7-3.3c2.2,0.1,2.4,1.6,2.4,3.2c0.1,7.9,0.1,15.8,0.1,23.8c0,1.7-0.3,3.5-2.6,3.5
			c-2.9,0.1-2.5-2.1-2.5-3.8C177.7,151.3,177.8,147.5,177.8,143.7z M177.8,172.7c0-1.5,0.3-2.8,2.2-2.8c1.8-0.1,2.9,0.7,2.9,2.7
			c0,8.1,0.1,16.1,0,24.2c0,1.7-0.7,3-2.7,2.9c-2.2-0.1-2.3-1.6-2.3-3.2c0-3.9,0-7.9,0-11.8h-0.1V172.7z M180.3,241.3
			c-2.9,0.1-2.5-2.1-2.5-3.8c0-3.8,0-7.6,0-11.4h0c0-4,0-7.9,0-11.9c0-1.9,0.3-3.4,2.7-3.3c2.2,0.1,2.4,1.6,2.4,3.2
			c0.1,7.9,0.1,15.8,0.1,23.8C183,239.5,182.7,241.2,180.3,241.3z M196.9,207.5c0,0.7-0.5,1.2-1.2,1.2c-5.2,0.1-10.5-0.2-15.7-0.4
			c-0.6,0-1.2-0.5-1.3-1.1c-0.2-0.7-0.2-1.6-0.2-2.2c0.1-2.6,1.2-3,3.4-2.9c3.8,0.2,7.5,0.2,11.3,0.2c1.8,0,3.6-0.2,3.7,2.7l0.1,0
			V207.5z M196.9,167.1c-4.9,0-9.8-2.4-14.7-0.1c-0.3,0.1-0.6,0-0.9,0c-2.6,0.4-3-1.1-3.1-3.2c-0.2-2.4,0.9-2.9,3-2.5
			c5.2,1,10.5-0.1,15.7,0V167.1z"/>
	</g>
</g>
</svg>
