<?xml version="1.0" encoding="utf-8"?>
<!-- Generator: Adobe Illustrator 24.3.0, SVG Export Plug-In . SVG Version: 6.00 Build 0)  -->
<svg version="1.1" id="Layer_1" xmlns="http://www.w3.org/2000/svg" xmlns:xlink="http://www.w3.org/1999/xlink" x="0px" y="0px"
	 viewBox="0 0 115.98 129.9" style="enable-background:new 0 0 115.98 129.9;" xml:space="preserve">
<style type="text/css">
	.st0{fill:#FFFFFF;}
	.st1{fill:#001135;}
	.st2{fill:#3C7CFF;}
</style>
<g>
	<g>
		<path class="st1" d="M63.84,90.93c4.46,11.34,8.72,22.17,13.15,33.43c1.65-4.14,3.13-7.83,4.6-11.52
			c0.85-2.16,1.18-2.31,3.38-1.58c3.61,1.2,7.23,2.39,11.32,3.74c-4.1-9.7-10.23-24.51-14.21-33.95c0.74-0.32,1.39-0.6,2.26-0.97
			c1.19,2.78,4.53,10.94,5.68,13.65c3.07,7.25,6.15,14.49,9.18,21.76c0.29,0.69,0.17,1.54,0.24,2.32c-0.79,0.01-1.64,0.22-2.36,0
			c-4.28-1.31-8.52-2.73-13-4.18c-0.79,1.92-1.58,3.78-2.34,5.67c-1.06,2.64-2.04,5.31-3.17,7.92c-0.3,0.69-1.02,1.19-1.55,1.77
			c-0.53-0.59-1.28-1.1-1.55-1.79c-4.36-10.97-8.66-21.97-12.98-32.96c-0.51-1.3-1.12-2.56-1.52-3.89
			c-0.46-1.55-1.81-2.24-2.99-2.21c-1.17,0.03-2.38,0.76-2.97,2.27c-4.66,12.03-9.41,24.02-14.14,36.02
			c-0.18,0.45-0.27,0.97-0.56,1.33c-0.38,0.48-0.94,1.18-1.38,1.15c-0.47-0.03-1.07-0.72-1.3-1.26c-1.64-3.97-3.2-7.98-4.8-11.97
			c-0.26-0.66-0.56-1.31-0.88-2.04c-4.45,1.44-8.75,2.86-13.09,4.18c-0.7,0.21-1.55-0.05-2.33-0.1c0.08-0.73-0.01-1.53,0.26-2.17
			c4.38-10.44,8.8-20.87,13.21-31.3c0.25-0.6,0.48-1.21,0.82-2.07c-1.33-0.06-2.44-0.11-3.56-0.16c-3.61-0.14-3.66-0.19-3.82-3.86
			c-0.13-2.91-0.32-5.82-0.33-8.73c-0.01-1.32-0.48-2.05-1.6-2.73c-2.85-1.72-5.56-3.68-8.43-5.38c-1.63-0.97-1.79-1.93-0.9-3.52
			c1.67-3.02,3.22-6.11,4.7-9.23c0.3-0.63,0.3-1.65,0.01-2.27c-1.59-3.33-3.28-6.62-5.02-9.88c-0.63-1.18-0.36-1.86,0.7-2.54
			c3.07-1.95,6.08-3.99,9.17-5.91c0.93-0.58,1.32-1.22,1.34-2.33c0.06-3.34,0.23-6.67,0.38-10c0.1-2.36,0.35-2.62,2.63-2.73
			c3.33-0.16,6.66-0.35,10-0.43c1.15-0.03,1.88-0.36,2.5-1.38c1.84-3,3.82-5.9,5.68-8.89C45,0.97,45.79,0.65,47.19,1.4
			c3.2,1.73,6.45,3.36,9.73,4.92c0.59,0.28,1.54,0.28,2.12,0c3.11-1.49,6.16-3.11,9.24-4.68c2.22-1.14,2.31-1.11,3.71,1.06
			c1.78,2.75,3.6,5.47,5.31,8.26c0.64,1.03,1.35,1.5,2.61,1.53c3.39,0.06,6.78,0.34,10.18,0.4c1.72,0.03,2.37,0.77,2.41,2.41
			c0.09,3.4,0.33,6.79,0.4,10.18c0.02,1.15,0.34,1.87,1.36,2.49c2.9,1.76,5.72,3.66,8.56,5.51c2.02,1.31,2.05,1.43,0.94,3.6
			c-1.43,2.8-2.79,5.65-4.36,8.38c-0.84,1.45-0.73,2.6,0.05,4c1.56,2.8,2.9,5.73,4.48,8.52c0.85,1.5,0.6,2.37-0.84,3.25
			c-2.89,1.77-5.67,3.73-8.58,5.48c-1.21,0.72-1.59,1.57-1.61,2.93c-0.04,3.27-0.31,6.55-0.36,9.82c-0.02,1.79-0.81,2.47-2.53,2.51
			c-3.39,0.08-6.79,0.34-10.18,0.39c-1.19,0.02-1.85,0.45-2.46,1.43c-1.81,2.94-3.79,5.78-5.58,8.74c-0.89,1.48-1.8,1.7-3.24,0.83
			C67.22,92.56,65.77,91.92,63.84,90.93z M52.05,90.98c-2.06,1.04-3.65,1.93-5.32,2.63c-0.53,0.22-1.63,0.15-1.87-0.2
			c-2.55-3.74-4.98-7.55-7.5-11.43c0.78-0.49,1.37-0.87,2.1-1.33c2.02,3.12,4.02,6.14,5.94,9.21c0.59,0.95,1.05,1.23,2.14,0.62
			c2.43-1.36,5.04-2.4,7.41-3.86c2.11-1.3,3.86-1.32,6-0.03c2.77,1.67,5.76,2.99,8.72,4.5c2.12-3.27,4.19-6.33,6.1-9.49
			c0.77-1.27,1.7-1.69,3.11-1.72c3.21-0.06,6.42-0.28,9.64-0.36c1.08-0.02,1.47-0.38,1.5-1.48c0.09-3.27,0.34-6.54,0.42-9.82
			c0.03-1.35,0.44-2.24,1.65-2.95c2.2-1.28,4.3-2.72,6.44-4.11c1.04-0.68,2.05-1.4,3.07-2.1c-1.79-3.49-3.42-6.81-5.17-10.06
			c-0.62-1.15-0.58-2.07,0.04-3.22c1.77-3.29,3.41-6.65,5.15-10.08c-2.57-1.67-4.89-3.47-7.46-4.77c-2.93-1.48-4.02-3.53-3.83-6.77
			c0.16-2.86-0.26-5.76-0.43-8.71c-3.43-0.17-6.64-0.48-9.85-0.43c-2.32,0.03-3.79-0.7-4.94-2.78c-1.6-2.9-3.56-5.6-5.42-8.48
			c-3.46,1.77-6.82,3.42-10.11,5.2c-1.15,0.62-2.08,0.59-3.21-0.02c-3.3-1.77-6.65-3.43-10.09-5.18c-2.01,3.1-4.04,6.04-5.84,9.11
			c-0.92,1.58-2.09,2.09-3.82,2.13c-3.5,0.06-6.99,0.31-10.59,0.48c-0.15,2.97-0.55,5.77-0.37,8.52c0.22,3.39-0.94,5.53-4.01,7.06
			c-2.56,1.27-4.86,3.09-7.3,4.68c1.78,3.5,3.4,6.82,5.14,10.07c0.62,1.15,0.65,2.06,0.03,3.21c-1.77,3.3-3.42,6.66-5.18,10.13
			c3.08,2,6.01,4.03,9.08,5.83c1.56,0.92,2.13,2.06,2.15,3.81c0.05,3.5,0.28,7,0.44,10.61c2.04,0.12,3.91,0.2,5.77,0.34
			c2.29,0.17,2.59,0.63,1.71,2.72c-3.04,7.2-6.11,14.38-9.15,21.57c-1.5,3.53-2.98,7.07-4.62,10.97c4.05-1.34,7.71-2.54,11.37-3.76
			c2.11-0.7,2.47-0.54,3.27,1.5c1.48,3.75,2.97,7.5,4.61,11.64C43.34,113.15,47.6,102.31,52.05,90.98z"/>
		<path class="st0" d="M52.05,90.98c-4.45,11.33-8.72,22.18-13.12,33.39c-1.64-4.14-3.13-7.89-4.61-11.64
			c-0.81-2.04-1.16-2.2-3.27-1.5c-3.66,1.22-7.32,2.42-11.37,3.76c1.64-3.89,3.12-7.43,4.62-10.97c3.05-7.19,6.11-14.38,9.15-21.57
			c0.88-2.09,0.59-2.54-1.71-2.72c-1.86-0.14-3.73-0.22-5.77-0.34c-0.16-3.61-0.4-7.11-0.44-10.61c-0.02-1.75-0.59-2.89-2.15-3.81
			c-3.06-1.81-6-3.84-9.08-5.83c1.76-3.47,3.41-6.83,5.18-10.13c0.62-1.15,0.59-2.06-0.03-3.21c-1.75-3.25-3.37-6.57-5.14-10.07
			c2.44-1.59,4.74-3.41,7.3-4.68c3.07-1.52,4.24-3.67,4.01-7.06c-0.18-2.75,0.22-5.55,0.37-8.52c3.61-0.18,7.1-0.42,10.59-0.48
			c1.74-0.03,2.9-0.55,3.82-2.13c1.8-3.07,3.83-6.01,5.84-9.11c3.44,1.76,6.79,3.41,10.09,5.18c1.14,0.61,2.06,0.64,3.21,0.02
			c3.29-1.77,6.65-3.43,10.11-5.2c1.86,2.88,3.82,5.58,5.42,8.48c1.15,2.08,2.62,2.82,4.94,2.78c3.2-0.05,6.41,0.26,9.85,0.43
			c0.17,2.95,0.59,5.85,0.43,8.71c-0.19,3.24,0.91,5.29,3.83,6.77c2.57,1.3,4.89,3.1,7.46,4.77c-1.74,3.43-3.38,6.79-5.15,10.08
			c-0.61,1.14-0.66,2.07-0.04,3.22c1.75,3.25,3.39,6.57,5.17,10.06c-1.02,0.7-2.03,1.42-3.07,2.1c-2.13,1.39-4.24,2.83-6.44,4.11
			c-1.21,0.7-1.62,1.6-1.65,2.95c-0.08,3.27-0.33,6.54-0.42,9.82c-0.03,1.1-0.41,1.46-1.5,1.48c-3.21,0.07-6.42,0.3-9.64,0.36
			c-1.4,0.03-2.34,0.45-3.11,1.72c-1.91,3.16-3.98,6.21-6.1,9.49c-2.96-1.51-5.95-2.83-8.72-4.5c-2.13-1.29-3.89-1.27-6,0.03
			c-2.36,1.46-4.98,2.5-7.41,3.86c-1.09,0.61-1.55,0.33-2.14-0.62c-1.91-3.07-3.92-6.09-5.94-9.21c-0.73,0.46-1.32,0.84-2.1,1.33
			c2.52,3.88,4.95,7.7,7.5,11.43c0.24,0.35,1.34,0.42,1.87,0.2C48.4,92.91,49.99,92.02,52.05,90.98z M57.99,16.16
			C40.8,16.15,26.72,30.16,26.66,47.32c-0.06,17.19,14.12,31.45,31.29,31.46c17.11,0.01,31.26-14.11,31.32-31.24
			C89.32,30.28,75.27,16.17,57.99,16.16z"/>
		<path class="st1" d="M57.99,16.16c17.27,0.01,31.33,14.12,31.28,31.38C89.22,64.68,75.06,78.8,57.96,78.78
			c-17.17-0.01-31.35-14.27-31.29-31.46C26.72,30.16,40.8,16.15,57.99,16.16z M58.09,18.71C42.1,18.68,29.24,31.45,29.21,47.37
			C29.19,63.26,42.1,76.23,57.95,76.24c15.8,0.01,28.72-12.86,28.77-28.64C86.77,31.61,74.01,18.74,58.09,18.71z"/>
		<path class="st1" d="M72.95,38.29c0.27,0.51,0.44,0.71,0.5,0.93c0.7,2.89,2.15,4.63,5.5,3.99c0.41-0.08,1.43,1.04,1.52,1.69
			c0.22,1.67,0.07,3.39,0.07,5.08c0,1.1-0.58,1.92-1.64,1.69c-3.29-0.72-4.66,1.05-5.39,3.83c-0.08,0.29-0.25,0.55-0.75,1.24
			c0.94,0.76,1.9,1.49,2.82,2.28c0.96,0.83,1.03,1.7,0.06,2.62c-1.18,1.13-2.35,2.28-3.47,3.47c-0.92,0.98-1.74,0.9-2.61-0.05
			c-0.78-0.85-1.59-1.66-2.41-2.52c-1.42,0.57-2.79,1.03-4.04,1.7c-0.42,0.22-0.78,1-0.77,1.52c0.08,4.82-0.2,4.24-4.47,4.26
			c-0.12,0-0.24,0-0.36,0c-3.83,0-3.9,0-3.8-3.75c0.04-1.39-0.38-2.07-1.71-2.43c-1.03-0.28-1.99-0.82-3.4-1.43
			c-0.65,0.78-1.37,1.67-2.12,2.54c-0.87,1.02-1.75,1.16-2.75,0.09c-1.12-1.19-2.3-2.33-3.47-3.47c-0.88-0.85-0.96-1.8,0.04-2.46
			c2.49-1.65,2.64-3.55,1.21-6.03c-0.52-0.89-0.82-1.42-1.94-1.38c-4.62,0.16-4.15-0.01-4.15-4.31c0-0.06,0-0.12,0-0.18
			c-0.04-4.11-0.27-4.23,4.02-4.08c1.14,0.04,1.76-0.24,2.07-1.43c0.28-1.1,0.86-2.12,1.75-3.56c-0.98-0.8-1.99-1.57-2.95-2.41
			c-0.91-0.8-0.88-1.63,0.01-2.47c1.18-1.13,2.35-2.28,3.47-3.47c0.91-0.97,1.7-0.95,2.61-0.02c0.84,0.86,1.72,2.27,2.64,2.31
			c1.32,0.06,2.73-0.81,4-1.46c0.37-0.19,0.61-0.99,0.61-1.5c-0.08-4.89,0.13-4.18,4.46-4.22c0.18,0,0.36,0,0.55,0
			c3.65,0,3.71,0,3.63,3.72c-0.03,1.36,0.5,1.79,1.67,2.46c2.52,1.44,4.16,0.87,5.71-1.29c0.68-0.95,1.59-0.97,2.46-0.07
			c1.18,1.22,2.38,2.42,3.6,3.6c0.9,0.87,0.84,1.66-0.04,2.47C74.78,36.6,73.89,37.42,72.95,38.29z M42.64,34.67
			c0.68,0.64,1.32,1.3,2.01,1.88c1.11,0.94,1.21,1.87,0.47,3.18c-0.79,1.41-1.14,3.05-1.88,4.49c-0.31,0.61-1.07,1.23-1.73,1.37
			c-1.09,0.22-2.26,0.06-3.44,0.06c0,1.28,0,2.38,0,3.6c1.22,0,2.3,0.05,3.38-0.01c1.12-0.06,1.56,0.46,1.89,1.5
			c0.51,1.6,1.17,3.17,1.92,4.67c0.51,1.02,0.55,1.83-0.33,2.59c-0.83,0.71-1.67,1.4-2.62,2.2c1.09,1.05,1.86,1.8,2.91,2.81
			c0.66-0.79,1.3-1.52,1.9-2.28c0.93-1.16,1.88-1.17,3.16-0.44c1.35,0.76,2.85,1.34,4.35,1.75c1.18,0.32,1.58,0.91,1.52,2.06
			c-0.06,1.07-0.01,2.15-0.01,3.28c1.29,0,2.4,0,3.48,0c0.07-0.23,0.14-0.35,0.12-0.45c-0.61-3.28,0.93-4.48,3.94-5.85
			c3.25-1.47,5.06-1.06,6.96,1.49c0.05,0.07,0.2,0.08,0.19,0.07c0.86-0.74,1.67-1.45,2.53-2.19c-0.38-0.42-0.62-0.7-0.87-0.96
			c-2.7-2.76-2.88-2.2-0.94-5.75c0.71-1.3,0.7-3.32,1.71-4.06c1.07-0.79,2.97-0.45,4.59-0.61c0-1.11,0-2.22,0-3.32
			c-0.29-0.05-0.47-0.09-0.64-0.1c-3.91-0.13-3.54-0.33-5.39-3.71c-1.76-3.2-1.7-5.44,1.72-7.33c-0.98-0.97-1.75-1.72-2.91-2.87
			c-0.7,0.9-1.32,1.72-1.96,2.51c-0.83,1.04-1.74,0.99-2.88,0.39c-1.38-0.73-2.84-1.37-4.34-1.78c-1.31-0.36-1.8-1-1.68-2.31
			c0.09-1,0.02-2.01,0.02-3.02c-1.32,0-2.39,0-3.52,0c-0.04,0.31-0.09,0.54-0.1,0.77c-0.14,3.79-0.34,3.43-3.65,5.24
			c-3.17,1.74-5.45,1.84-7.26-1.49C44.33,32.99,43.57,33.75,42.64,34.67z"/>
		<path class="st2" d="M42.64,34.67c0.92-0.93,1.68-1.69,2.62-2.62c1.81,3.33,4.09,3.23,7.26,1.49c3.31-1.82,3.51-1.45,3.65-5.24
			c0.01-0.23,0.06-0.46,0.1-0.77c1.14,0,2.2,0,3.52,0c0,1,0.07,2.02-0.02,3.02c-0.12,1.31,0.37,1.95,1.68,2.31
			c1.5,0.42,2.96,1.06,4.34,1.78c1.14,0.6,2.05,0.65,2.88-0.39c0.64-0.8,1.26-1.61,1.96-2.51c1.16,1.15,1.93,1.91,2.91,2.87
			c-3.42,1.89-3.48,4.13-1.72,7.33c1.86,3.38,1.48,3.58,5.39,3.71c0.18,0.01,0.35,0.05,0.64,0.1c0,1.11,0,2.21,0,3.32
			c-1.61,0.16-3.51-0.17-4.59,0.61c-1.01,0.74-1,2.75-1.71,4.06c-1.94,3.55-1.76,2.99,0.94,5.75c0.25,0.26,0.48,0.53,0.87,0.96
			c-0.85,0.74-1.67,1.44-2.53,2.19c0.02,0.01-0.13,0-0.19-0.07c-1.9-2.55-3.71-2.96-6.96-1.49c-3.02,1.37-4.55,2.57-3.94,5.85
			c0.02,0.1-0.06,0.22-0.12,0.45c-1.08,0-2.19,0-3.48,0c0-1.13-0.04-2.21,0.01-3.28c0.06-1.14-0.34-1.73-1.52-2.06
			c-1.5-0.41-3-0.99-4.35-1.75c-1.29-0.72-2.24-0.72-3.16,0.44c-0.6,0.75-1.23,1.48-1.9,2.28c-1.05-1.01-1.83-1.77-2.91-2.81
			c0.95-0.8,1.8-1.49,2.62-2.2c0.88-0.76,0.84-1.57,0.33-2.59c-0.75-1.5-1.41-3.07-1.92-4.67c-0.33-1.03-0.77-1.56-1.89-1.5
			c-1.08,0.06-2.17,0.01-3.38,0.01c0-1.22,0-2.32,0-3.6c1.18,0,2.35,0.16,3.44-0.06c0.65-0.13,1.41-0.76,1.73-1.37
			c0.74-1.44,1.1-3.08,1.88-4.49c0.73-1.31,0.63-2.24-0.47-3.18C43.96,35.97,43.33,35.32,42.64,34.67z M57.95,57.4
			c5.53,0.01,9.95-4.34,10.01-9.86c0.06-5.56-4.42-10.12-9.96-10.14c-5.52-0.02-10.05,4.55-10.02,10.09
			C48.01,53,52.44,57.39,57.95,57.4z"/>
		<path class="st1" d="M57.95,57.4c-5.51-0.01-9.94-4.4-9.97-9.9c-0.03-5.54,4.5-10.11,10.02-10.09c5.54,0.02,10.02,4.58,9.96,10.14
			C67.9,53.06,63.48,57.41,57.95,57.4z M58.02,54.92c4.12-0.02,7.53-3.46,7.49-7.54c-0.04-4.04-3.58-7.54-7.59-7.5
			c-4.04,0.04-7.51,3.56-7.48,7.6C50.48,51.59,53.9,54.94,58.02,54.92z"/>
	</g>
	<polygon class="st1" points="39.46,80.64 31.74,79.73 33.45,82.45 37.37,81.97 	"/>
</g>
</svg>
