<?xml version="1.0" encoding="utf-8"?>
<!-- Generator: Adobe Illustrator 25.0.0, SVG Export Plug-In . SVG Version: 6.00 Build 0)  -->
<svg version="1.1" id="Layer_1" xmlns="http://www.w3.org/2000/svg" xmlns:xlink="http://www.w3.org/1999/xlink" x="0px" y="0px"
	 viewBox="0 0 173.6 173.6" style="enable-background:new 0 0 173.6 173.6;" xml:space="preserve">
<style type="text/css">
	.st0{fill:#00B0FB;}
	.st1{fill:#00B0FB;fill-opacity:0.4;}
	.st2{fill:#185AE9;}
	.st3{fill:#FFFFFF;}
	.st4{fill:#3C7CFF;}
	.st5{fill:#001135;}
	.st6{fill:#FDFDFD;}
	.st7{fill:#DBDBDB;}
	.st8{fill:none;}
	.st9{fill:#040404;}
	.st10{fill:#030303;}
	.st11{fill:#060606;}
	.st12{fill:#FF9A00;}
	.st13{fill:#330000;}
	.st14{fill:#D7A2FE;}
	.st15{fill:#371351;}
	.st16{fill:#1E1E1E;}
	.st17{fill:#D26E00;}
	.st18{fill:#FF9100;}
	.st19{fill:#FFA403;}
	.st20{fill:#5E5E5E;}
	.st21{fill:#939393;}
	.st22{fill:#B3D8FB;}
	.st23{fill:#27A2FB;}
	.st24{fill:#D8EAFB;}
	.st25{fill:#0A81F9;}
	.st26{fill:#8F818F;}
	.st27{fill:#003932;}
	.st28{fill:url(#SVGID_1_);}
	.st29{fill:url(#SVGID_2_);}
	.st30{fill:url(#SVGID_3_);}
	.st31{opacity:0.2;fill:url(#SVGID_4_);enable-background:new    ;}
	.st32{opacity:0.1;fill:url(#SVGID_5_);enable-background:new    ;}
	.st33{opacity:0.2;fill:url(#SVGID_6_);enable-background:new    ;}
	.st34{opacity:0.1;fill:url(#SVGID_7_);enable-background:new    ;}
	.st35{fill:url(#SVGID_8_);}
	.st36{fill:url(#SVGID_9_);}
	.st37{fill:url(#SVGID_10_);}
	.st38{opacity:0.2;fill:url(#SVGID_11_);enable-background:new    ;}
	.st39{opacity:0.1;fill:url(#SVGID_12_);enable-background:new    ;}
	.st40{opacity:0.2;fill:url(#SVGID_13_);enable-background:new    ;}
	.st41{opacity:0.1;fill:url(#SVGID_14_);enable-background:new    ;}
	.st42{opacity:0.2;fill:url(#SVGID_15_);enable-background:new    ;}
	.st43{opacity:0.1;fill:url(#SVGID_16_);enable-background:new    ;}
	.st44{opacity:0.2;fill:url(#SVGID_17_);enable-background:new    ;}
	.st45{opacity:0.1;fill:url(#SVGID_18_);enable-background:new    ;}
	.st46{fill:url(#SVGID_19_);}
	.st47{fill-rule:evenodd;clip-rule:evenodd;fill:#00B0FB;}
	.st48{fill:#050505;}
</style>
<g>
	<path class="st0" d="M88.01,164.63h-3.09c0.09,0.42,0.2,0.84,0.34,1.25c0.13,0.36,0.08,0.77-0.15,1.09
		c-0.22,0.32-0.59,0.51-0.98,0.51H8.58c-2.46,0-4.46-2-4.46-4.45v-4.97c-0.59,0.08-1.19,0.14-1.81,0.14c-0.21,0-0.42-0.02-0.63-0.03
		c0.37,1.23,0.58,2.52,0.58,3.85c0,1.68-0.33,3.29-0.9,4.8c1.71,0.92,3.19,2.2,4.4,3.71c1.08,0.23,2.12,0.6,3.1,1.07h78.85
		c-0.21-0.95-0.33-1.94-0.33-2.95C87.39,167.26,87.61,165.91,88.01,164.63z"/>
	<path class="st0" d="M36.45,110.82h0.21c3.85,0.91,6.57,4.34,6.57,8.35v6.97c0,4.01-2.72,7.44-6.62,8.36l-0.14-0.01
		c-0.47,0-0.9,0.28-1.1,0.71c-0.19,0.43-0.11,0.94,0.2,1.29c3.93,4.4,9.57,6.92,15.47,6.92h0.11c11.45-0.06,20.71-9.42,20.65-20.87
		c-0.06-11.38-9.37-20.65-20.75-20.65h-0.11c-5.87,0.02-11.48,2.54-15.39,6.92c-0.31,0.35-0.39,0.86-0.2,1.29
		C35.54,110.54,35.97,110.82,36.45,110.82z"/>
	<path class="st1" d="M93.32,56.27H8.58c-2.46,0-4.46,2-4.46,4.46v16.3c0,0.66,0.54,1.2,1.2,1.2h91.26c0.66,0,1.2-0.54,1.2-1.2
		v-16.3C97.78,58.27,95.78,56.27,93.32,56.27z M21.62,69.31H15.1c-1.14,0-2.06-0.93-2.06-2.06c0-1.14,0.92-2.06,2.06-2.06h6.52
		c1.13,0,2.06,0.92,2.06,2.06C23.68,68.38,22.75,69.31,21.62,69.31z M67.25,69.31H34.66c-1.14,0-2.06-0.93-2.06-2.06
		c0-1.14,0.92-2.06,2.06-2.06h32.59c1.13,0,2.06,0.92,2.06,2.06C69.31,68.38,68.38,69.31,67.25,69.31z M86.8,69.31h-6.51
		c-1.14,0-2.06-0.93-2.06-2.06c0-1.14,0.92-2.06,2.06-2.06h6.51c1.14,0,2.06,0.92,2.06,2.06C88.86,68.38,87.94,69.31,86.8,69.31z"/>
	<path class="st0" d="M39.11,126.21l0-6.95c0.05-2.1-1.41-3.96-3.48-4.43l-2.57-0.59c-0.08-0.02-0.17-0.03-0.27-0.03
		c-0.5,0-0.93,0.3-1.11,0.76c-0.97,2.45-1.47,5.03-1.49,7.67c-0.01,2.71,0.49,5.36,1.49,7.88c0.18,0.46,0.62,0.76,1.11,0.76
		c0.09,0,0.18-0.01,0.27-0.03l2.57-0.59C37.7,130.2,39.17,128.33,39.11,126.21z"/>
	<path class="st1" d="M41.17,13.04h27.31c0.46,0,0.87-0.25,1.07-0.66l3.26-6.52c0.19-0.38,0.17-0.81-0.05-1.17
		c-0.22-0.36-0.6-0.57-1.02-0.57H44.43c-2.46,0-4.46,2-4.46,4.46v3.26C39.97,12.5,40.51,13.04,41.17,13.04z"/>
	<path class="st0" d="M132.43,69.31H103.1c-0.66,0-1.2,0.54-1.2,1.2v32.59c0,0.66,0.54,1.2,1.2,1.2h29.33c0.66,0,1.2-0.54,1.2-1.2
		V70.51C133.63,69.85,133.09,69.31,132.43,69.31z M124.71,93.32c0,1.14-0.92,2.06-2.05,2.06c-1.14,0-2.06-0.92-2.06-2.06V80.28
		c0-1.13,0.92-2.05,2.06-2.05c1.13,0,2.05,0.92,2.05,2.05V93.32z"/>
	<path class="st1" d="M135.69,121.45H103.1c-0.66,0-1.2,0.54-1.2,1.2v32.59c0,0.66,0.54,1.2,1.2,1.2h32.59c0.66,0,1.2-0.54,1.2-1.2
		v-32.59C136.89,121.99,136.35,121.45,135.69,121.45z"/>
	<path d="M80.29,69.31h6.52c1.14,0,2.06-0.92,2.06-2.06c0-1.13-0.92-2.06-2.06-2.06h-6.52c-1.14,0-2.06,0.92-2.06,2.06
		C78.23,68.38,79.15,69.31,80.29,69.31z"/>
	<path d="M124.71,28.14v13.03c0,1.14-0.92,2.06-2.05,2.06c-1.14,0-2.06-0.92-2.06-2.06V28.14c0-1.14,0.92-2.06,2.06-2.06
		C123.79,26.08,124.71,27,124.71,28.14z"/>
	<path d="M34.66,69.31h32.59c1.14,0,2.06-0.92,2.06-2.06c0-1.13-0.92-2.06-2.06-2.06H34.66c-1.14,0-2.06,0.92-2.06,2.06
		C32.6,68.38,33.52,69.31,34.66,69.31z"/>
	<path d="M50.95,97.78c-13.71,0-24.87,11.16-24.87,24.87c0,13.72,11.16,24.88,24.87,24.88c13.72,0,24.88-11.16,24.88-24.88
		C75.83,108.94,64.67,97.78,50.95,97.78z M33.07,131.26c-0.09,0.02-0.18,0.03-0.27,0.03c-0.5,0-0.94-0.3-1.12-0.76
		c-1-2.52-1.5-5.17-1.48-7.88c0.01-2.64,0.51-5.22,1.48-7.67c0.18-0.46,0.62-0.76,1.12-0.76c0.09,0,0.18,0.01,0.26,0.03l2.58,0.59
		c2.06,0.46,3.53,2.32,3.47,4.43v6.94c0.06,2.12-1.41,3.99-3.47,4.46L33.07,131.26z M51.17,143.41h-0.12
		c-5.89,0-11.53-2.52-15.46-6.92c-0.32-0.35-0.4-0.86-0.21-1.29c0.2-0.43,0.63-0.71,1.1-0.71l0.14,0.01
		c3.89-0.92,6.61-4.35,6.61-8.36v-6.97c0-4.01-2.72-7.44-6.57-8.35h-0.21c-0.47,0-0.91-0.28-1.1-0.71s-0.11-0.94,0.2-1.29
		c3.92-4.38,9.53-6.9,15.4-6.92h0.11c11.38,0,20.69,9.26,20.75,20.64C71.87,133.99,62.61,143.35,51.17,143.41z"/>
	<path d="M122.66,78.23c-1.14,0-2.06,0.92-2.06,2.06v13.04c0,1.13,0.92,2.06,2.06,2.06s2.06-0.92,2.06-2.06V80.28
		C124.71,79.15,123.79,78.23,122.66,78.23z"/>
	<path d="M15.1,69.31h6.52c1.14,0,2.06-0.92,2.06-2.06c0-1.13-0.92-2.06-2.06-2.06H15.1c-1.14,0-2.06,0.92-2.06,2.06
		C13.04,68.38,13.96,69.31,15.1,69.31z"/>
	<path d="M165.03,104.3h-26.08c-0.66,0-1.2-0.54-1.2-1.2V8.58c0-4.73-3.85-8.58-8.58-8.58H44.43c-4.73,0-8.57,3.85-8.57,8.58v42.37
		c0,0.66-0.54,1.2-1.2,1.2H8.58C3.85,52.15,0,56,0,60.73v104.3c0,4.73,3.85,8.57,8.58,8.57h156.45c4.73,0,8.57-3.84,8.57-8.57
		v-52.15C173.6,108.15,169.76,104.3,165.03,104.3z M39.97,8.58c0-2.46,2-4.46,4.46-4.46h27.32c0.41,0,0.8,0.21,1.02,0.57
		c0.22,0.36,0.24,0.79,0.05,1.17l-3.26,6.52c-0.21,0.41-0.62,0.66-1.07,0.66H41.17c-0.66,0-1.2-0.54-1.2-1.2V8.58z M39.97,18.36
		c0-0.66,0.54-1.2,1.2-1.2H70.5c0.78,0,1.49-0.44,1.83-1.13l5.64-11.25c0.21-0.4,0.62-0.66,1.08-0.66h50.12c2.46,0,4.46,2,4.46,4.46
		v55.41c0,0.66-0.54,1.2-1.2,1.2H103.1c-0.66,0-1.2-0.54-1.2-1.2v-3.26c0-4.73-3.85-8.58-8.58-8.58H41.17c-0.66,0-1.2-0.54-1.2-1.2
		V18.36z M133.63,70.51v32.59c0,0.66-0.54,1.2-1.2,1.2H103.1c-0.66,0-1.2-0.54-1.2-1.2V70.51c0-0.66,0.54-1.2,1.2-1.2h29.33
		C133.09,69.31,133.63,69.85,133.63,70.51z M4.12,60.73c0-2.46,2-4.46,4.46-4.46h84.74c2.46,0,4.46,2,4.46,4.46v16.3
		c0,0.66-0.54,1.2-1.2,1.2H5.32c-0.66,0-1.2-0.54-1.2-1.2V60.73z M15.1,160.57h68.44c0.67,0,1.2,0.53,1.2,1.2v3.25
		c0.01,0.97,0.19,1.94,0.52,2.86c0.13,0.36,0.08,0.77-0.15,1.09c-0.22,0.32-0.59,0.51-0.98,0.51H8.58c-2.46,0-4.46-2-4.46-4.45
		V83.54c0-0.66,0.54-1.2,1.2-1.2h91.26c0.66,0,1.2,0.54,1.2,1.2v19.56c0,0.66-0.54,1.2-1.2,1.2h-3.26c-4.73,0-8.58,3.85-8.58,8.58
		v42.37c0,0.66-0.53,1.2-1.2,1.2H15.1c-1.14,0-2.06,0.92-2.06,2.06C13.04,159.64,13.96,160.57,15.1,160.57z M169.49,165.03
		c0,2.45-2.01,4.45-4.46,4.45H93.32c-2.46,0-4.46-2-4.46-4.45v-52.15c0-2.46,2-4.46,4.46-4.46h71.71c2.45,0,4.46,2,4.46,4.46V165.03
		z"/>
	<path d="M160.57,151.99c0,1.13-0.93,2.06-2.06,2.06h-6.52c-1.14,0-2.06-0.93-2.06-2.06c0-1.14,0.92-2.06,2.06-2.06h6.52
		C159.64,149.93,160.57,150.85,160.57,151.99z"/>
	<path d="M138.95,117.34H99.84c-1.14,0-2.06,0.92-2.06,2.06v39.11c0,1.13,0.92,2.06,2.06,2.06h39.11c1.14,0,2.06-0.93,2.06-2.06
		V119.4C141.01,118.26,140.09,117.34,138.95,117.34z M136.89,155.25c0,0.66-0.54,1.2-1.2,1.2H103.1c-0.66,0-1.2-0.54-1.2-1.2v-32.6
		c0-0.66,0.54-1.2,1.2-1.2h32.59c0.66,0,1.2,0.54,1.2,1.2V155.25z"/>
	<path d="M160.57,125.91c0,1.14-0.93,2.06-2.06,2.06h-6.52c-1.14,0-2.06-0.92-2.06-2.06c0-1.13,0.92-2.06,2.06-2.06h6.52
		C159.64,123.85,160.57,124.78,160.57,125.91z"/>
	<path d="M160.57,138.95c0,1.14-0.93,2.06-2.06,2.06h-6.52c-1.14,0-2.06-0.92-2.06-2.06c0-1.13,0.92-2.06,2.06-2.06h6.52
		C159.64,136.89,160.57,137.82,160.57,138.95z"/>
</g>
</svg>
