<?xml version="1.0" encoding="utf-8"?>
<!-- Generator: Adobe Illustrator 24.3.0, SVG Export Plug-In . SVG Version: 6.00 Build 0)  -->
<svg version="1.1" id="Layer_1" xmlns="http://www.w3.org/2000/svg" xmlns:xlink="http://www.w3.org/1999/xlink" x="0px" y="0px"
	 width="157.4px" height="120px" viewBox="0 0 157.4 120" style="enable-background:new 0 0 157.4 120;" xml:space="preserve">
<style type="text/css">
	.st0{fill:#00B0FB;}
	.st1{fill:#00B0FB;fill-opacity:0.4;}
	.st2{fill:#FFFFFF;}
	.st3{fill:none;}
	.st4{fill:#001135;}
	.st5{fill:#3C7CFF;}
	.st6{fill:#3C7CFF;stroke:#001135;stroke-width:0.7602;stroke-miterlimit:10;}
	.st7{fill:#DBDBDB;}
	.st8{fill:#B9B9B9;}
	.st9{fill:#080808;}
	.st10{fill:#060606;}
	.st11{fill:#070707;}
	.st12{fill:#121212;}
	.st13{fill:#111111;}
	.st14{fill:#090909;}
	.st15{fill:#FDFDFD;}
	.st16{fill:#F9F9F9;}
	.st17{fill:#F3F2F3;}
	.st18{fill:#FAFAFA;}
	.st19{fill:#0A0A0A;}
	.st20{fill:#EEEEEE;}
	.st21{fill:#0D0D0D;}
	.st22{fill:#0C0C0C;}
	.st23{fill:#0E0E0E;}
	.st24{fill:#050505;}
	.st25{fill:#3A3A3A;}
	.st26{fill:#525252;}
	.st27{fill:#474747;}
	.st28{fill:#1E1E1E;}
	.st29{fill:#1D1D1D;}
	.st30{fill:#222222;}
	.st31{fill:#494949;}
	.st32{fill:#585858;}
	.st33{fill:#EDEDED;}
	.st34{fill:#F0F0F0;}
	.st35{fill:#EAEAEA;}
	.st36{fill:#EAE9EA;}
	.st37{fill:#040404;}
	.st38{fill:#F4F3F4;}
	.st39{fill:#030303;}
	.st40{fill:#E8E8E8;}
	.st41{fill:#0C0C0B;}
	.st42{fill:#0D0D0C;}
	.st43{fill:#919191;}
	.st44{fill:#909090;}
	.st45{fill:#0E0E0D;}
	.st46{fill:#0C0D0C;}
	.st47{fill:#090908;}
	.st48{fill:#141414;}
	.st49{fill:#4C4D4D;}
	.st50{fill:#737474;}
	.st51{fill:#242424;}
	.st52{fill:#202020;}
	.st53{fill:#101010;}
	.st54{fill:#0D0E0D;}
	.st55{fill:#111212;}
	.st56{fill:#0B0B0B;}
	.st57{fill:#0D0C0C;}
	.st58{fill:#E7E7E7;}
	.st59{fill:#272727;}
	.st60{fill:#2E2E2E;}
	.st61{fill:#1F1E1E;}
	.st62{fill:#1B1A1A;}
	.st63{fill:#E6E6E6;}
	.st64{fill:#0F0E0E;}
	.st65{fill:#F2F2F2;}
	.st66{fill:#F4F3F3;}
	.st67{fill:#F9F8F8;}
	.st68{fill:#F1F1F0;}
	.st69{fill:#F6F6F6;}
	.st70{fill:#F5F6F6;}
	.st71{fill:#F5F5F5;}
	.st72{fill:#2C2C2C;}
	.st73{fill:#252625;}
	.st74{fill:#303030;}
	.st75{fill:#2D2D2C;}
	.st76{fill:#2D2D2D;}
	.st77{fill:#262727;}
	.st78{fill:#191919;}
	.st79{fill:#1B1B1B;}
	.st80{fill:#F7F7F7;}
	.st81{fill:#F6F7F7;}
	.st82{fill:#F9F9FA;}
	.st83{fill:#F4F4F4;}
	.st84{fill:#F8F8F8;}
	.st85{fill:#FCFCFC;}
	.st86{fill:#FBFBFB;}
	.st87{fill:#E2E1E2;}
	.st88{fill:#D8D7D8;}
	.st89{fill:#0F0F0F;}
	.st90{fill:#161616;}
	.st91{fill:#181818;}
	.st92{fill:#131313;}
	.st93{fill-rule:evenodd;clip-rule:evenodd;fill:#00B0FB;}
</style>
<g>
	<path class="st0" d="M130.4,27.3c-1.1,0-2.3,0.1-3.7,0.3c-1.7,0.2-3.4-0.9-3.8-2.6c-3.6-14.7-16.8-25-31.9-25
		C78.3,0,67,7,61.4,18.4C60.6,20,58.6,20.8,57,20c-3.1-1.4-6.3-2-9.7-2c-12.6,0-23.1,9.8-23.9,22.4c-0.1,1.9-1.8,3.3-3.6,3.2
		l-0.9-0.1C8.5,43.5,0,52,0,62.5s8.5,18.9,18.9,18.9h13v-6.5c0-1.6,0.5-3.1,1.3-4.4c-0.8-1.2-1.3-2.7-1.3-4.4V48.4
		c0-4.3,3.5-7.8,7.8-7.8h78c0.8,0,1.5,0.1,2.2,0.3c0.2,0,0.4,0.1,0.5,0.2c0.3,0.1,0.6,0.2,0.8,0.4c0.1,0.1,0.2,0.1,0.3,0.2
		c0.1,0.1,0.3,0.2,0.4,0.2c0.2,0.1,0.4,0.3,0.6,0.4c0,0,0,0,0,0c0.2,0.1,0.3,0.3,0.5,0.4c0,0,0.1,0.1,0.1,0.1
		c0.1,0.1,0.3,0.3,0.4,0.4c0,0,0.1,0.1,0.1,0.2c0.1,0.1,0.2,0.3,0.3,0.4c0.1,0.2,0.2,0.3,0.3,0.5c0.1,0.1,0.2,0.3,0.2,0.4
		c0,0.1,0.1,0.2,0.1,0.3c0,0.1,0.1,0.2,0.1,0.3c0,0.1,0.1,0.3,0.1,0.4c0,0.1,0.1,0.3,0.1,0.4c0,0,0,0.1,0,0.1
		c0.1,0.2,0.1,0.4,0.1,0.6c0,0,0,0.1,0,0.1c0,0.2,0.1,0.5,0.1,0.7v18.9c0,0.3-0.1,0.6-0.1,0.9c-0.2,1.1-0.6,2-1.2,2.9
		c0.1,0.2,0.2,0.4,0.3,0.6c0.1,0.1,0.1,0.3,0.2,0.4c0.1,0.1,0.1,0.2,0.2,0.3c0.1,0.1,0.1,0.3,0.2,0.5c0,0.1,0.1,0.3,0.1,0.4
		c0,0.1,0.1,0.3,0.1,0.5c0,0.1,0,0.2,0.1,0.3c0.1,0.3,0.1,0.6,0.1,0.9c0,0.2,0,0.4,0,0.6v6.5h4.9c14.9,0,27.1-12.1,27.1-27.1
		S145.3,27.3,130.4,27.3z"/>
	<path class="st0" d="M117.7,100.4h-78c-0.5,0-0.9,0.4-0.9,0.9v17.7c0,0.5,0.4,0.9,0.9,0.9h78c0.5,0,0.9-0.4,0.9-0.9v-17.7
		C118.7,100.8,118.2,100.4,117.7,100.4z M48.9,113.6h-3.1c-1.9,0-3.4-1.5-3.4-3.4c0-1.9,1.5-3.4,3.4-3.4h3.1c1.9,0,3.4,1.5,3.4,3.4
		C52.3,112.1,50.8,113.6,48.9,113.6z M61.4,113.6h-3.1c-1.9,0-3.4-1.5-3.4-3.4c0-1.9,1.5-3.4,3.4-3.4h3.1c1.9,0,3.4,1.5,3.4,3.4
		C64.9,112.1,63.3,113.6,61.4,113.6z M111.6,113.6H78.8c-1.9,0-3.4-1.5-3.4-3.4c0-1.9,1.5-3.4,3.4-3.4h32.9c1.9,0,3.4,1.5,3.4,3.4
		C115.1,112.1,113.5,113.6,111.6,113.6z"/>
	<path class="st0" d="M117.7,73.9h-78c-0.5,0-0.9,0.4-0.9,0.9v17.7c0,0.5,0.4,0.9,0.9,0.9h78c0.5,0,0.9-0.4,0.9-0.9V74.9
		C118.7,74.4,118.2,73.9,117.7,73.9z M48.9,87.2h-3.1c-1.9,0-3.4-1.5-3.4-3.4c0-1.9,1.5-3.4,3.4-3.4h3.1c1.9,0,3.4,1.5,3.4,3.4
		C52.3,85.6,50.8,87.2,48.9,87.2z M61.4,87.2h-3.1c-1.9,0-3.4-1.5-3.4-3.4c0-1.9,1.5-3.4,3.4-3.4h3.1c1.9,0,3.4,1.5,3.4,3.4
		C64.9,85.6,63.3,87.2,61.4,87.2z M111.6,87.2H78.8c-1.9,0-3.4-1.5-3.4-3.4c0-1.9,1.5-3.4,3.4-3.4h32.9c1.9,0,3.4,1.5,3.4,3.4
		C115.1,85.6,113.5,87.2,111.6,87.2z"/>
	<path class="st0" d="M117.7,47.5h-78c-0.5,0-0.9,0.4-0.9,0.9v17.7c0,0.5,0.4,0.9,0.9,0.9h78c0.5,0,0.9-0.4,0.9-0.9V48.4
		C118.7,47.9,118.2,47.5,117.7,47.5z M48.9,60.7h-3.1c-1.9,0-3.4-1.5-3.4-3.4c0-1.9,1.5-3.4,3.4-3.4h3.1c1.9,0,3.4,1.5,3.4,3.4
		C52.3,59.2,50.8,60.7,48.9,60.7z M61.4,60.7h-3.1c-1.9,0-3.4-1.5-3.4-3.4c0-1.9,1.5-3.4,3.4-3.4h3.1c1.9,0,3.4,1.5,3.4,3.4
		C64.9,59.2,63.3,60.7,61.4,60.7z M111.6,60.7H78.8c-1.9,0-3.4-1.5-3.4-3.4c0-1.9,1.5-3.4,3.4-3.4h32.9c1.9,0,3.4,1.5,3.4,3.4
		C115.1,59.2,113.5,60.7,111.6,60.7z"/>
</g>
</svg>
