<?xml version="1.0" encoding="utf-8"?>
<!-- Generator: Adobe Illustrator 24.3.0, SVG Export Plug-In . SVG Version: 6.00 Build 0)  -->
<svg version="1.1" id="Layer_1" xmlns="http://www.w3.org/2000/svg" xmlns:xlink="http://www.w3.org/1999/xlink" x="0px" y="0px"
	 width="122px" height="122px" viewBox="0 0 122 122" style="enable-background:new 0 0 122 122;" xml:space="preserve">
<style type="text/css">
	.st0{fill:#00B0FB;}
	.st1{fill:#00B0FB;fill-opacity:0.4;}
	.st2{fill:#FFFFFF;}
	.st3{fill:none;}
	.st4{fill:#001135;}
	.st5{fill:#3C7CFF;}
	.st6{fill:#3C7CFF;stroke:#001135;stroke-width:0.7602;stroke-miterlimit:10;}
	.st7{fill:#DBDBDB;}
	.st8{fill:#B9B9B9;}
	.st9{fill:#080808;}
	.st10{fill:#060606;}
	.st11{fill:#070707;}
	.st12{fill:#121212;}
	.st13{fill:#111111;}
	.st14{fill:#090909;}
	.st15{fill:#FDFDFD;}
	.st16{fill:#F9F9F9;}
	.st17{fill:#F3F2F3;}
	.st18{fill:#FAFAFA;}
	.st19{fill:#0A0A0A;}
	.st20{fill:#EEEEEE;}
	.st21{fill:#0D0D0D;}
	.st22{fill:#0C0C0C;}
	.st23{fill:#0E0E0E;}
	.st24{fill:#050505;}
	.st25{fill:#3A3A3A;}
	.st26{fill:#525252;}
	.st27{fill:#474747;}
	.st28{fill:#1E1E1E;}
	.st29{fill:#1D1D1D;}
	.st30{fill:#222222;}
	.st31{fill:#494949;}
	.st32{fill:#585858;}
	.st33{fill:#EDEDED;}
	.st34{fill:#F0F0F0;}
	.st35{fill:#EAEAEA;}
	.st36{fill:#EAE9EA;}
	.st37{fill:#040404;}
	.st38{fill:#F4F3F4;}
	.st39{fill:#030303;}
	.st40{fill:#E8E8E8;}
	.st41{fill:#0C0C0B;}
	.st42{fill:#0D0D0C;}
	.st43{fill:#919191;}
	.st44{fill:#909090;}
	.st45{fill:#0E0E0D;}
	.st46{fill:#0C0D0C;}
	.st47{fill:#090908;}
	.st48{fill:#141414;}
	.st49{fill:#4C4D4D;}
	.st50{fill:#737474;}
	.st51{fill:#242424;}
	.st52{fill:#202020;}
	.st53{fill:#101010;}
	.st54{fill:#0D0E0D;}
	.st55{fill:#111212;}
	.st56{fill:#0B0B0B;}
	.st57{fill:#0D0C0C;}
	.st58{fill:#E7E7E7;}
	.st59{fill:#272727;}
	.st60{fill:#2E2E2E;}
	.st61{fill:#1F1E1E;}
	.st62{fill:#1B1A1A;}
	.st63{fill:#E6E6E6;}
	.st64{fill:#0F0E0E;}
	.st65{fill:#F2F2F2;}
	.st66{fill:#F4F3F3;}
	.st67{fill:#F9F8F8;}
	.st68{fill:#F1F1F0;}
	.st69{fill:#F6F6F6;}
	.st70{fill:#F5F6F6;}
	.st71{fill:#F5F5F5;}
	.st72{fill:#2C2C2C;}
	.st73{fill:#252625;}
	.st74{fill:#303030;}
	.st75{fill:#2D2D2C;}
	.st76{fill:#2D2D2D;}
	.st77{fill:#262727;}
	.st78{fill:#191919;}
	.st79{fill:#1B1B1B;}
	.st80{fill:#F7F7F7;}
	.st81{fill:#F6F7F7;}
	.st82{fill:#F9F9FA;}
	.st83{fill:#F4F4F4;}
	.st84{fill:#F8F8F8;}
	.st85{fill:#FCFCFC;}
	.st86{fill:#FBFBFB;}
	.st87{fill:#E2E1E2;}
	.st88{fill:#D8D7D8;}
	.st89{fill:#0F0F0F;}
	.st90{fill:#161616;}
	.st91{fill:#181818;}
	.st92{fill:#131313;}
	.st93{fill-rule:evenodd;clip-rule:evenodd;fill:#00B0FB;}
</style>
<g>
	<path class="st0" d="M55.4,87c-0.9,0-1.8,0.4-2.4,1l-28.1,28.1c-1,1-1.3,2.4-0.7,3.8c0.5,1.3,1.8,2.1,3.2,2.1h28.1
		c1.9,0,3.4-1.5,3.4-3.4V90.4C58.9,88.5,57.3,87,55.4,87z"/>
	<path class="st0" d="M89.9,52.5c-0.9,0-1.8,0.4-2.4,1L65.9,75.1c-0.7,0.6-1,1.5-1,2.4v41c0,1.9,1.5,3.4,3.4,3.4h21.6
		c1.9,0,3.4-1.5,3.4-3.4V56C93.4,54.1,91.8,52.5,89.9,52.5z"/>
	<path class="st0" d="M3.4,57.1h41c0.9,0,1.8-0.4,2.4-1l21.6-21.6c1-1,1.3-2.4,0.7-3.8c-0.5-1.3-1.8-2.1-3.2-2.1H3.4
		c-1.9,0-3.4,1.5-3.4,3.4v21.6C0,55.6,1.5,57.1,3.4,57.1z"/>
	<path class="st0" d="M3.5,98.1c0.9,0,1.8-0.4,2.4-1L34,69c1-1,1.3-2.4,0.7-3.8c-0.5-1.3-1.8-2.1-3.2-2.1H3.4
		c-1.9,0-3.4,1.5-3.4,3.4v28.1C0,96.6,1.6,98.1,3.5,98.1z"/>
	<path class="st0" d="M118.6,0H106c-1.9,0-3.4,1.6-3.4,3.5c0,0.9,0.4,1.8,1,2.4c0.6,0.6,0.6,1.5,0,2L1,110.4c-0.7,0.7-1,1.5-1,2.4
		v5.7c0,1.9,1.5,3.4,3.4,3.4h5.7c0.9,0,1.8-0.4,2.4-1L114.1,18.5c0.3-0.3,0.6-0.4,1-0.4c0.4,0,0.7,0.2,1,0.4c0.7,0.7,1.5,1,2.4,1
		c0.9,0,1.7-0.3,2.4-0.9c0.7-0.6,1.1-1.5,1.1-2.5V3.4C122,1.5,120.5,0,118.6,0z"/>
</g>
</svg>
