<?xml version="1.0" encoding="utf-8"?>
<!-- Generator: Adobe Illustrator 24.3.0, SVG Export Plug-In . SVG Version: 6.00 Build 0)  -->
<svg version="1.1" id="Layer_1" xmlns="http://www.w3.org/2000/svg" xmlns:xlink="http://www.w3.org/1999/xlink" x="0px" y="0px"
	 width="116.4px" height="116.4px" viewBox="0 0 116.4 116.4" style="enable-background:new 0 0 116.4 116.4;" xml:space="preserve"
	>
<style type="text/css">
	.st0{fill:#00C8FF;}
	.st1{fill-rule:evenodd;clip-rule:evenodd;fill:#00C8FF;}
	.st2{fill:#185AE9;}
	.st3{fill:#FFFFFF;}
	.st4{fill-rule:evenodd;clip-rule:evenodd;fill:#FFFFFF;}
	.st5{fill:#00B0FB;}
	.st6{fill:#00B0FB;fill-opacity:0.4;}
	.st7{fill:#E4ECF4;}
	.st8{fill:#FFE8A0;}
	.st9{fill:none;}
	.st10{fill:#0D0D0D;}
	.st11{fill-rule:evenodd;clip-rule:evenodd;fill:#00B0FB;}
	.st12{fill:#FAFBFF;}
	.st13{fill:#070707;}
	.st14{fill:#D9D9D9;filter:url(#Adobe_OpacityMaskFilter);}
	.st15{mask:url(#mask0_103_2708_1_);}
	.st16{fill-rule:evenodd;clip-rule:evenodd;fill:#DAB6E4;}
	.st17{stroke:#FFFFFF;stroke-width:2;}
	.st18{fill:#FFFFFF;stroke:#000000;stroke-width:2;}
	.st19{fill-rule:evenodd;clip-rule:evenodd;}
	.st20{stroke:#FFFFFF;}
	.st21{fill:#FFFFFF;filter:url(#Adobe_OpacityMaskFilter_1_);}
	.st22{mask:url(#path-22-inside-1_103_2708_1_);fill:#FFFFFF;}
	.st23{fill-rule:evenodd;clip-rule:evenodd;fill:#263238;}
	.st24{fill:#EFEFEF;}
	
		.st25{fill:none;stroke:#000000;stroke-width:10.01;stroke-linecap:round;stroke-linejoin:round;stroke-miterlimit:3.08;stroke-dasharray:70.84,70.84;}
	.st26{fill:#010000;}
	.st27{opacity:0.64;}
	.st28{fill:#F9F7F5;}
	.st29{fill:#D9D9D9;filter:url(#Adobe_OpacityMaskFilter_2_);}
	.st30{mask:url(#mask0_103_2310_1_);}
	.st31{fill:#FFFFFF;filter:url(#Adobe_OpacityMaskFilter_3_);}
	.st32{mask:url(#mask1_103_2310_1_);}
	.st33{fill:#E6E6E6;}
	.st34{fill:#FFFFFF;filter:url(#Adobe_OpacityMaskFilter_4_);}
	.st35{mask:url(#mask2_103_2310_1_);}
	.st36{fill:none;stroke:#000000;stroke-width:1.5;stroke-linecap:round;stroke-linejoin:round;stroke-miterlimit:10;}
	.st37{fill:#FFFFFF;filter:url(#Adobe_OpacityMaskFilter_5_);}
	.st38{mask:url(#mask3_103_2310_1_);}
	.st39{fill:#FFFFFF;filter:url(#Adobe_OpacityMaskFilter_6_);}
	.st40{mask:url(#mask4_103_2310_1_);}
	.st41{fill:#FFFFFF;filter:url(#Adobe_OpacityMaskFilter_7_);}
	.st42{mask:url(#mask5_103_2310_1_);}
	.st43{fill:#FFFFFF;filter:url(#Adobe_OpacityMaskFilter_8_);}
	.st44{mask:url(#mask6_103_2310_1_);}
	.st45{fill:#DBDBDB;}
	.st46{fill:#FFFFFF;filter:url(#Adobe_OpacityMaskFilter_9_);}
	.st47{mask:url(#mask7_103_2310_1_);}
	.st48{fill:#FFFFFF;filter:url(#Adobe_OpacityMaskFilter_10_);}
	.st49{mask:url(#mask8_103_2310_1_);}
	.st50{fill:#FFFFFF;filter:url(#Adobe_OpacityMaskFilter_11_);}
	.st51{mask:url(#mask9_103_2310_1_);}
	.st52{fill:#FFFFFF;filter:url(#Adobe_OpacityMaskFilter_12_);}
	.st53{mask:url(#mask10_103_2310_1_);}
	.st54{fill:#FFFFFF;filter:url(#Adobe_OpacityMaskFilter_13_);}
	.st55{mask:url(#mask11_103_2310_1_);}
	.st56{fill:#FFFFFF;filter:url(#Adobe_OpacityMaskFilter_14_);}
	.st57{mask:url(#mask12_103_2310_1_);}
	.st58{fill:#FFFFFF;stroke:#000000;}
	.st59{fill:#FFFFFF;filter:url(#Adobe_OpacityMaskFilter_15_);stroke:#FFFFFF;}
	.st60{mask:url(#mask13_103_2310_1_);}
	.st61{fill:#FFFFFF;filter:url(#Adobe_OpacityMaskFilter_16_);}
	.st62{mask:url(#path-55-inside-1_103_2310_1_);}
	.st63{fill:#FFFFFF;filter:url(#Adobe_OpacityMaskFilter_17_);}
	.st64{mask:url(#path-59-inside-2_103_2310_1_);fill:#FFFFFF;}
	.st65{fill:none;stroke:#FFFFFF;stroke-width:1.5;stroke-linecap:round;stroke-linejoin:round;stroke-miterlimit:10;}
	.st66{fill:#181818;}
	.st67{fill:#BEBEBE;}
	.st68{fill:#FEFEFE;}
	.st69{fill:none;stroke:#000000;stroke-width:2.1125;stroke-miterlimit:6.5;}
	.st70{fill:#3C7CFF;stroke:#001135;stroke-width:0.7602;stroke-miterlimit:10;}
	.st71{fill:#001135;}
	.st72{fill:#3C7CFF;}
	.st73{clip-path:url(#SVGID_1_);}
	.st74{fill:#FFFFFF;stroke:#001135;stroke-width:0.7602;stroke-miterlimit:10;}
	.st75{fill:none;stroke:#001135;stroke-width:0.7602;stroke-miterlimit:10;}
	.st76{fill:#001135;stroke:#001135;stroke-width:0.7602;stroke-miterlimit:10;}
	.st77{fill:#0F0D0E;}
	.st78{fill:#161415;}
	.st79{fill:#FCFCFC;}
	.st80{fill:#FBFBFB;}
	.st81{fill:#FAFAFA;}
	.st82{fill:#C1C1C1;}
	.st83{fill:#0E0E0E;}
	.st84{fill:#EFEEEE;}
	.st85{fill:#A8A8A8;}
	.st86{fill:#9A9A9B;}
	.st87{fill:#404040;}
	.st88{fill:#EDEDED;}
	.st89{fill:#E7E7E7;}
	.st90{fill:#9A9999;}
	.st91{fill:#D2D2D2;}
	.st92{fill:#AEAEAE;}
	.st93{fill:#8D8D8C;}
	.st94{fill:#B9BABC;}
	.st95{fill:#61605F;}
	.st96{fill:#A5A5A5;}
	.st97{fill:#B5B6B6;}
	.st98{fill:#1B1C1C;}
	.st99{fill:#171616;}
	.st100{fill:#161616;}
	.st101{fill:#0F0F0F;}
	.st102{fill:#F0F0F0;}
	.st103{fill:#EDEDEC;}
	.st104{fill:#EBEBEB;}
	.st105{fill:#EBEBEA;}
	.st106{fill:#ECECEC;}
	.st107{fill:#E9E9E9;}
	.st108{fill:#EBEAEA;}
	.st109{fill:#B9BAB9;}
	.st110{fill:#EDECEC;}
	.st111{fill:#EAEAEA;}
	.st112{fill:#1F1F1E;}
	.st113{fill:#1E1E1D;}
	.st114{fill:#202020;}
	.st115{fill:#1B1A1A;}
	.st116{fill:#1F1F20;}
	.st117{fill:#252424;}
	.st118{fill:#1F1E1E;}
	.st119{fill:#222121;}
	.st120{fill:#2B2B2B;}
	.st121{fill:#1E1E1E;}
	.st122{fill:#1F1F1F;}
	.st123{fill:#434242;}
	.st124{fill:#2C2C2C;}
	.st125{fill:#484848;}
	.st126{fill:#FDFDFD;}
	.st127{fill:#F4F4F3;}
	.st128{fill:#F2F2F2;}
	.st129{fill:#F3F3F3;}
	.st130{fill:#F1F1F1;}
	.st131{fill:#191918;}
	.st132{fill:#1A1A19;}
	.st133{fill:#1D1C1D;}
	.st134{fill:#1C1A1B;}
	.st135{fill:#1E1D1E;}
	.st136{fill:#212021;}
	.st137{fill:#1D1D1D;}
	.st138{fill:#1D1B1B;}
	.st139{fill:#1F1D1E;}
	.st140{fill:#1E1D1D;}
	.st141{fill:#FCFBFB;}
</style>
<g>
	<path class="st5" d="M16.8,55.3h3.1V53h-1.7c-1,0-1.7-0.8-1.7-1.7V14.9c0-1,0.8-1.7,1.7-1.7H22v-3h-3.8c-2.6,0-4.7,2.1-4.7,4.7
		v36.4c0,2.1,1.4,3.9,3.3,4.5V55.3z"/>
	<path class="st5" d="M108,3H65.1c-3,0-5.4,2.4-5.4,5.4v26.7c0,3,2.4,5.4,5.4,5.4H108c3,0,5.4-2.4,5.4-5.4V8.4
		C113.4,5.4,111,3,108,3z M96.1,22.2c-0.1,0.4-0.3,0.7-0.7,0.9l-15.8,9.1c-0.2,0.1-0.5,0.2-0.8,0.2c-0.8,0-1.5-0.7-1.5-1.5V12.7
		c0-0.3,0.1-0.5,0.2-0.8c0.3-0.5,0.8-0.8,1.3-0.8c0.3,0,0.5,0.1,0.8,0.2l15.8,9.1c0.2,0.1,0.4,0.3,0.6,0.5
		C96.2,21.4,96.2,21.8,96.1,22.2z"/>
	<path class="st6" d="M23.4,100.3h-4.8c-0.4,0-0.8,0.4-0.8,0.8v11.5c0,0.4,0.4,0.8,0.8,0.8h4.8c0.4,0,0.8-0.4,0.8-0.8l0-11.5
		c0-0.2-0.1-0.4-0.2-0.6C23.8,100.3,23.6,100.3,23.4,100.3z"/>
	<path class="st5" d="M68.4,81.8c-0.1,0-0.2-0.1-0.3-0.1c-0.2,0-0.3,0-0.4,0.1c-0.2,0.1-0.4,0.4-0.4,0.7v10.6c0,0.3,0.1,0.5,0.4,0.7
		c0.1,0.1,0.3,0.1,0.4,0.1c0.1,0,0.2,0,0.3-0.1c2.4-1,4-3.4,4-6S70.8,82.8,68.4,81.8z"/>
	<path class="st6" d="M23.4,78.4H12.4c-5.2,0-9.4,4.2-9.4,9.4c0,5.2,4.2,9.4,9.4,9.4h10.9c0.4,0,0.8-0.4,0.8-0.8l0-17.3
		c0-0.2-0.1-0.4-0.2-0.6C23.8,78.5,23.6,78.4,23.4,78.4z"/>
	<path d="M57,100.6c0,0.4-0.2,0.8-0.4,1.1c-0.3,0.3-0.7,0.4-1.1,0.4c-0.4,0-0.8-0.2-1.1-0.4c-0.3-0.3-0.4-0.7-0.4-1.1
		c0-0.4,0.2-0.8,0.4-1.1c0.3-0.3,0.7-0.4,1.1-0.4c0.4,0,0.8,0.2,1.1,0.4C56.8,99.8,57,100.2,57,100.6z"/>
	<path d="M98.2,86.4h-13c-0.8,0-1.5,0.7-1.5,1.5s0.7,1.5,1.5,1.5h13c0.8,0,1.5-0.7,1.5-1.5S99,86.4,98.2,86.4z"/>
	<path d="M67.9,78.5c-0.4-0.1-0.6-0.4-0.6-0.8v-17c0-0.8-0.7-1.5-1.5-1.5c-0.2,0-0.4,0-0.6,0.1l-39.7,16c-0.1,0-0.2,0.1-0.3,0.1
		H12.4C5.6,75.4,0,81,0,87.8c0,6.9,5.6,12.4,12.4,12.4H14c0.4,0,0.8,0.4,0.8,0.8v13.8c0,0.8,0.7,1.5,1.5,1.5h9.4
		c0.8,0,1.5-0.7,1.5-1.5v-12.7c0-0.3,0.1-0.5,0.4-0.7c0.1-0.1,0.3-0.1,0.4-0.1c0.1,0,0.2,0,0.3,0.1l37,14.9c0.2,0.1,0.4,0.1,0.6,0.1
		c0.3,0,0.6-0.1,0.9-0.3c0.4-0.3,0.7-0.8,0.7-1.2v-17c0-0.4,0.2-0.7,0.6-0.8c4.3-1,7.5-4.9,7.5-9.3C75.4,83.4,72.2,79.4,67.9,78.5z
		 M24.2,112.6c0,0.4-0.4,0.8-0.8,0.8h-4.8c-0.4,0-0.8-0.4-0.8-0.8v-11.5c0-0.4,0.4-0.8,0.8-0.8h4.8c0.2,0,0.4,0.1,0.6,0.2
		c0.2,0.1,0.2,0.3,0.2,0.6V112.6z M24.2,96.4c0,0.4-0.4,0.8-0.8,0.8H12.4C7.2,97.2,3,93,3,87.8c0-5.2,4.2-9.4,9.4-9.4h10.9
		c0.2,0,0.4,0.1,0.6,0.2c0.2,0.1,0.2,0.3,0.2,0.6V96.4z M64.3,111.5c0,0.3-0.1,0.5-0.3,0.7c-0.1,0.1-0.3,0.1-0.5,0.1
		c-0.1,0-0.2,0-0.3-0.1L27.7,97.9c-0.3-0.1-0.5-0.4-0.5-0.7V78.4c0-0.3,0.2-0.6,0.5-0.7l25.2-10.2c0.1,0,0.2-0.1,0.3-0.1
		c0.2,0,0.3,0,0.5,0.1c0.2,0.1,0.3,0.4,0.3,0.7v22.9c0,0.8,0.7,1.5,1.5,1.5S57,92,57,91.2V66.4c0-0.3,0.2-0.6,0.5-0.8l5.7-2.3
		c0.1,0,0.2-0.1,0.3-0.1c0.2,0,0.3,0,0.5,0.1c0.2,0.2,0.3,0.4,0.3,0.7V111.5z M68.4,93.8c-0.1,0-0.2,0.1-0.3,0.1
		c-0.2,0-0.3,0-0.4-0.1c-0.2-0.1-0.4-0.4-0.4-0.7V82.5c0-0.3,0.1-0.5,0.4-0.7c0.1-0.1,0.3-0.1,0.4-0.1c0.1,0,0.2,0,0.3,0.1
		c2.4,1,4,3.4,4,6C72.4,90.4,70.8,92.8,68.4,93.8z"/>
	<path d="M82.4,99.5c-0.3-0.3-0.7-0.4-1.1-0.4s-0.8,0.2-1.1,0.4c-0.6,0.6-0.6,1.5,0,2.1l4.7,4.7c0.3,0.3,0.7,0.4,1.1,0.4
		c0.4,0,0.8-0.2,1.1-0.4c0.6-0.6,0.6-1.5,0-2.1L82.4,99.5z"/>
	<path d="M81.3,76.3L81.3,76.3c0.4,0,0.8-0.2,1.1-0.4l4.5-4.5c0.6-0.6,0.6-1.5,0-2.1c-0.3-0.3-0.7-0.4-1.1-0.4s-0.8,0.2-1.1,0.4
		l-4.5,4.5c-0.6,0.6-0.6,1.5,0,2.1C80.6,76.2,80.9,76.3,81.3,76.3z"/>
	<path d="M108,0H65.1c-4.7,0-8.4,3.8-8.4,8.4v0.9c0,0.4-0.4,0.8-0.8,0.8H17.2c-2.6,0-4.7,2.1-4.7,4.7v36.4c0,2.6,2.1,4.7,4.7,4.7
		h2.4c0.4,0,0.8,0.4,0.8,0.8v7.1c0,0.8,0.7,1.5,1.5,1.5c0.4,0,0.8-0.2,1.1-0.4l8.7-8.7c0.2-0.1,0.3-0.2,0.6-0.2H78
		c2.6,0,4.7-2.1,4.7-4.7v-6.9c0-0.4,0.4-0.8,0.8-0.8H108c4.7,0,8.4-3.8,8.4-8.4V8.4C116.4,3.8,112.6,0,108,0z M79.7,51.3
		c0,1-0.8,1.7-1.7,1.7H31.2c-0.4,0-0.8,0.2-1.1,0.4l-5.4,5.4c-0.2,0.2-0.4,0.2-0.6,0.2c-0.1,0-0.2,0-0.3-0.1
		c-0.3-0.1-0.5-0.4-0.5-0.7v-3.8c0-0.8-0.7-1.5-1.5-1.5h-4.7c-1,0-1.7-0.8-1.7-1.7V14.9c0-1,0.8-1.7,1.7-1.7h38.7
		c0.4,0,0.8,0.4,0.8,0.8v21.2c0,4.6,3.8,8.4,8.4,8.4h13.8c0.4,0,0.8,0.4,0.8,0.8V51.3z M113.4,35.2c0,3-2.4,5.4-5.4,5.4H65.1
		c-3,0-5.4-2.4-5.4-5.4V8.4c0-3,2.4-5.4,5.4-5.4H108c3,0,5.4,2.4,5.4,5.4V35.2z"/>
	<path d="M50.2,38.6c0,0.4-0.2,0.8-0.5,1.1c-0.3,0.3-0.7,0.4-1.1,0.4c-0.4,0-0.8-0.2-1.1-0.4c-0.3-0.3-0.4-0.7-0.4-1.1
		c0-0.4,0.2-0.8,0.4-1.1c0.3-0.3,0.7-0.4,1.1-0.4c0.4,0,0.8,0.2,1.1,0.4C50,37.8,50.2,38.2,50.2,38.6z"/>
	<path d="M50.2,25.7c0,0.8-0.7,1.5-1.5,1.5h-23c-0.8,0-1.5-0.7-1.5-1.5c0-0.8,0.7-1.5,1.5-1.5h23C49.5,24.2,50.2,24.9,50.2,25.7z"/>
	<path d="M41.5,38.6c0,0.8-0.7,1.5-1.5,1.5H25.6c-0.8,0-1.5-0.7-1.5-1.5c0-0.8,0.7-1.5,1.5-1.5H40C40.8,37.1,41.5,37.8,41.5,38.6z"
		/>
	<path d="M96,21c-0.1-0.2-0.3-0.4-0.6-0.5l-15.8-9.1c-0.2-0.1-0.5-0.2-0.8-0.2c-0.5,0-1,0.3-1.3,0.8c-0.1,0.2-0.2,0.5-0.2,0.8v18.2
		c0,0.8,0.7,1.5,1.5,1.5c0.3,0,0.5-0.1,0.8-0.2l15.8-9.1c0.4-0.2,0.6-0.5,0.7-0.9C96.2,21.8,96.2,21.4,96,21z M90.5,22.5l-8.9,5.1
		c-0.1,0.1-0.3,0.1-0.4,0.1s-0.3,0-0.4-0.1c-0.2-0.1-0.4-0.4-0.4-0.7V16.7c0-0.3,0.1-0.5,0.4-0.7c0.1-0.1,0.3-0.1,0.4-0.1
		s0.3,0,0.4,0.1l8.9,5.1c0.2,0.1,0.4,0.4,0.4,0.7C90.8,22.1,90.7,22.3,90.5,22.5z"/>
</g>
</svg>
