<?xml version="1.0" encoding="utf-8"?>
<!-- Generator: Adobe Illustrator 24.3.0, SVG Export Plug-In . SVG Version: 6.00 Build 0)  -->
<svg version="1.1" id="Layer_1" xmlns="http://www.w3.org/2000/svg" xmlns:xlink="http://www.w3.org/1999/xlink" x="0px" y="0px"
	 width="203.5px" height="163px" viewBox="0 0 203.5 163" style="enable-background:new 0 0 203.5 163;" xml:space="preserve">
<style type="text/css">
	.st0{fill:#185AE9;}
	.st1{fill:#00B0FB;}
	.st2{fill:#00B0FB;fill-opacity:0.4;}
	.st3{fill:#FFFFFF;}
</style>
<g>
	<path class="st1" d="M78,2.3c-1.3,0-2.6-0.2-3.7-0.5c-0.5,0-0.9,0.1-1.4,0c-1,0-2-0.1-2.9-0.3c-1.6,0-3-0.3-4.5-0.8
		c-6.8,1-13.2,3.1-18.7,6.2c-2.4,1.4-4.7,3-6.7,4.8c-4.1,3.7-7.1,8.4-8.8,13.5c-2.1,6.2-2.9,13.2-2.5,21.4l0,0.4
		c0,1.1,0.2,3.9,0.3,6.8c0.1,1.9-0.7,3.7-2.1,4.9C11.5,72.2,2.3,91.9,2,112.7c-0.2,13.8,3.4,27.3,10.5,39c2.4,4,6.1,7.2,10.3,9.1
		c1.2-0.3,2.5-0.6,4-0.6c1.3,0,2.6,0.2,3.7,0.5c1.1-0.3,2.4-0.5,3.7-0.5c1.6,0,3.1,0.2,4.4,0.7V159h-5.8c-6.9,0-13.3-3.6-16.8-9.4
		C9.4,138.5,6,125.8,6.2,112.8c0.3-19.6,9-38.2,23.8-51c2.3-2,3.6-5.1,3.5-8.2c-0.2-2.9-0.3-5.6-0.3-6.8l0-0.4
		c-0.4-7.6,0.4-14.2,2.3-19.9c1.5-4.4,4.1-8.5,7.7-11.8c1.8-1.6,3.7-3,5.9-4.2C55.9,6.5,64.3,4.3,73.3,4c0.8,0,1.5,0,2.3,0
		c1.6,0,3.2,0.1,4.8,0.2c-0.1-0.7-0.1-1.4-0.1-2.1C79.6,2.2,78.8,2.3,78,2.3z"/>
	<path class="st1" d="M82.5,90H75c-1.2,0-2.3,1-2.3,2.3V158c0,0.6,0.4,1,1,1h10c0.6,0,1-0.4,1-1V92.3C84.8,91.1,83.8,90,82.5,90z"/>
	<path class="st1" d="M67.8,99.7H59c-1.2,0-2.3,1-2.3,2.3v45.2c0,1.2,1,2.3,2.3,2.3h8.8c0.6,0,1-0.4,1-1v-47.7
		C68.8,100.1,68.3,99.7,67.8,99.7z"/>
	<path class="st2" d="M92.8,44.4c0.3,0,0.5-0.1,0.8-0.3c0.2-0.2,0.5-0.5,0.5-1c-0.6-11.6-4-17.8-11.1-20c-2.8-0.9-6.2-1.4-9.8-1.4
		s-7,0.5-9.8,1.4c-7.1,2.3-10.5,8.4-11.1,20c0,0.6,0.3,0.9,0.5,1c0.2,0.2,0.5,0.3,0.8,0.3c0.1,0,0.3,0,0.4-0.1
		c6.2-1.8,12.7-2.8,19.2-2.8c0.6,0,1.3,0,1.9,0c5.9,0.2,11.8,1.1,17.5,2.8C92.5,44.4,92.7,44.4,92.8,44.4z"/>
	<path class="st1" d="M185.6,99.7h-8.8c-0.6,0-1,0.4-1,1v47.7c0,0.6,0.4,1,1,1h8.8c1.2,0,2.3-1,2.3-2.3v-45.2
		C187.8,100.7,186.8,99.7,185.6,99.7z"/>
	<path class="st1" d="M197.2,117.7h-4.4c-0.6,0-1,0.4-1,1v11.6c0,0.6,0.4,1,1,1h4.4c1.2,0,2.2-1,2.2-2.2v-9.2
		C199.5,118.7,198.5,117.7,197.2,117.7z"/>
	<path class="st1" d="M51.7,117.7h-4.4c-1.2,0-2.2,1-2.2,2.2v9.2c0,1.2,1,2.2,2.2,2.2h4.4c0.6,0,1-0.4,1-1v-11.6
		C52.7,118.1,52.3,117.7,51.7,117.7z"/>
	<path class="st1" d="M154.8,118.1H89.8c-0.6,0-1,0.4-1,1v10.8c0,0.6,0.4,1,1,1h64.9c0.6,0,1-0.4,1-1v-10.8
		C155.8,118.5,155.3,118.1,154.8,118.1z"/>
	<path class="st1" d="M169.5,90H162c-1.2,0-2.3,1-2.3,2.3v64.4c0,1.2,1,2.3,2.3,2.3h7.5c1.2,0,2.3-1,2.3-2.3V92.3
		C171.8,91.1,170.8,90,169.5,90z"/>
	<path class="st3" d="M84.1,19.3c-3.2-1-7-1.6-11-1.6c-4,0-7.8,0.6-11,1.6C49.2,23.4,48.4,38,48.2,42.8c-0.1,1.7,0.7,3.3,2,4.4
		c0.9,0.7,2.1,1.1,3.3,1.1c0.5,0,1-0.1,1.5-0.2c5.9-1.7,11.9-2.6,18.1-2.6c0.6,0,1.2,0,1.8,0c5.6,0.2,11.1,1,16.4,2.6
		c0.5,0.1,1,0.2,1.5,0.2c1.2,0,2.3-0.4,3.3-1.1c1.3-1.1,2.1-2.7,2-4.4C97.8,38.1,97,23.4,84.1,19.3z M93.6,44.2
		c-0.2,0.2-0.5,0.3-0.8,0.3c-0.1,0-0.3,0-0.4-0.1c-5.7-1.7-11.5-2.6-17.5-2.8c-0.6,0-1.3,0-1.9,0c-6.5,0-13,0.9-19.2,2.8
		c-0.1,0-0.3,0.1-0.4,0.1c-0.3,0-0.5-0.1-0.8-0.3c-0.2-0.2-0.5-0.5-0.5-1c0.6-11.5,4.1-17.7,11.1-20c2.8-0.9,6.2-1.4,9.8-1.4
		s7,0.5,9.8,1.4c7.1,2.3,10.5,8.4,11.1,20C94.1,43.7,93.8,44,93.6,44.2z"/>
	<path class="st3" d="M197.2,113.7h-4.4c-0.6,0-1-0.4-1-1v-10.8c0-3.5-2.8-6.3-6.3-6.3h-8.8c-0.6,0-1-0.4-1-1v-2.4
		c0-3.4-2.8-6.3-6.3-6.3H162c-3.5,0-6.3,2.8-6.3,6.3v20.8c0,0.6-0.4,1-1,1h-8.1c-0.5,0-1-0.4-1-1c0-3-0.2-6-0.7-9
		c0,0-0.1-0.6-0.2-1.6c0,0,0,0,0,0c-0.6-4-2.4-13.7-5.7-19c0,0,0-0.1-0.1-0.1c-4.2-9.1-10.5-17.5-18-24.2c-1.4-1.2-2.2-3-2.1-4.8
		c0.2-7.6-0.1-18.5-0.3-19.7c-1-7.9-3.5-14.6-7.5-19.8c-3.7-4.9-8.1-8.1-14.6-10.7c-7-2.8-14.8-4.2-23-4.2c-0.8,0-1.6,0-2.4,0
		c-9.7,0.3-18.7,2.7-26.1,6.9c-2.4,1.4-4.7,3-6.7,4.8c-4.1,3.7-7.1,8.4-8.8,13.5c-2.1,6.2-2.9,13.2-2.5,21.4l0,0.4
		c0,1.1,0.2,3.9,0.3,6.8c0.1,1.9-0.7,3.7-2.1,4.9C9.5,72.2,0.3,91.9,0,112.7c-0.2,13.8,3.4,27.3,10.5,39c4.2,7,12,11.3,20.2,11.3
		H115c8,0,15.7-4.2,19.8-11c3.2-5.1,5.7-10.6,7.5-16.4c0.1-0.4,0.5-0.7,1-0.7h11.5c0.6,0,1,0.5,1,1v20.8c0,3.5,2.8,6.3,6.3,6.3h7.5
		c3.5,0,6.3-2.8,6.3-6.3v-2.4c0-0.5,0.4-1,1-1H187c2.7,0,4.8-2.2,4.8-4.8v-12.2c0-0.6,0.4-1,1-1h5.8c2.7,0,4.8-2.2,4.8-4.8v-10.6
		C203.5,116.5,200.7,113.7,197.2,113.7z M68.8,148.4c0,0.5-0.5,1-1,1H59c-1.2,0-2.3-1-2.3-2.3v-45.2c0-1.2,1-2.3,2.3-2.3h8.8
		c0.5,0,1,0.4,1,1V148.4z M84.8,158c0,0.6-0.5,1-1,1h-10c-0.6,0-1-0.4-1-1V92.3c0-1.2,1-2.2,2.2-2.2h7.5c1.2,0,2.2,1,2.2,2.2V158z
		 M82.5,85.6H75c-3.5,0-6.3,2.8-6.3,6.3v2.8c0,0.6-0.5,1-1,1H59c-3.5,0-6.3,2.8-6.3,6.3v10.8c0,0.6-0.4,1-1,1h-4.4
		c-3.4,0-6.2,2.8-6.2,6.2v9.2c0,3.4,2.8,6.2,6.2,6.2h4.4c0.6,0,1,0.4,1,1v10.8c0,3.5,2.8,6.3,6.3,6.3h8.8c0.5,0,1,0.5,1,1v3.6
		c0,0.6-0.5,1-1,1H30.9c-6.9,0-13.3-3.6-16.8-9.4C7.4,138.5,4,125.8,4.2,112.8c0.3-19.6,9-38.2,23.8-51c2.3-2,3.6-5.1,3.5-8.2
		c-0.2-2.9-0.3-5.6-0.3-6.8l0-0.4c-0.4-7.6,0.4-14.2,2.3-19.9c1.5-4.4,4.1-8.5,7.7-11.8c1.8-1.6,3.7-3,5.9-4.2
		C53.9,6.5,62.3,4.3,71.3,4c0.8,0,1.5,0,2.3,0c7.7,0,15,1.3,21.5,3.9c5.9,2.3,9.6,5.1,12.9,9.4c3.6,4.8,5.9,10.8,6.7,17.8
		c0.1,1.1,0.5,11.6,0.3,19.1c-0.1,3,1.2,5.9,3.5,7.9c6.9,6,12.6,13.6,16.6,21.9c2,4.3,4.7,11.5,6.2,20.8c0.4,2.7,0.6,5.5,0.6,8.3
		c0,0.3-0.1,0.5-0.3,0.7s-0.4,0.3-0.7,0.3h-51c-0.6,0-1-0.4-1-1V91.9C88.8,88.4,86,85.6,82.5,85.6z M52.7,118.7v11.6
		c0,0.5-0.4,1-1,1h-4.4c-1.2,0-2.2-1-2.2-2.2v-9.2c0-1.2,1-2.2,2.2-2.2h4.4C52.3,117.7,52.7,118.1,52.7,118.7z M138.2,136.3
		c-1.6,4.8-3.8,9.4-6.5,13.7c-3.5,5.6-9.7,9.1-16.4,9.1H89.8c-0.6,0-1-0.4-1-1v-22.1c0-0.5,0.4-1,1-1h47.4c0.3,0,0.6,0.2,0.8,0.4
		C138.2,135.6,138.3,136,138.2,136.3z M155.8,129.9c0,0.6-0.4,1-1,1H89.8c-0.6,0-1-0.4-1-1v-10.8c0-0.6,0.4-1,1-1h64.9
		c0.6,0,1,0.4,1,1V129.9z M171.8,156.7c0,1.2-1,2.3-2.3,2.3H162c-1.2,0-2.2-1-2.2-2.3V92.3c0-1.2,1-2.2,2.2-2.2h7.5
		c1.2,0,2.3,1,2.3,2.2V156.7z M187.8,147.1c0,1.2-1,2.3-2.2,2.3h-8.8c-0.6,0-1-0.5-1-1v-47.7c0-0.6,0.4-1,1-1h8.8
		c1.2,0,2.2,1,2.2,2.3V147.1z M199.5,129.1c0,1.2-1,2.2-2.2,2.2h-4.4c-0.6,0-1-0.5-1-1v-11.6c0-0.6,0.4-1,1-1h4.4
		c1.2,0,2.2,1,2.2,2.2V129.1z"/>
</g>
</svg>
