<?xml version="1.0" encoding="utf-8"?>
<!-- Generator: Adobe Illustrator 24.3.0, SVG Export Plug-In . SVG Version: 6.00 Build 0)  -->
<svg version="1.1" id="Layer_1" xmlns="http://www.w3.org/2000/svg" xmlns:xlink="http://www.w3.org/1999/xlink" x="0px" y="0px"
	 width="166px" height="166.1px" viewBox="0 0 166 166.1" style="enable-background:new 0 0 166 166.1;" xml:space="preserve">
<style type="text/css">
	.st0{fill:#185AE9;}
	.st1{fill:#00B0FB;}
	.st2{fill:#00B0FB;fill-opacity:0.4;}
	.st3{fill:#FFFFFF;}
</style>
<g>
	<path class="st1" d="M158.1,165c0.8-0.8,1.7-1.5,2.8-2.1c0.7-2,2-3.7,3.7-5c-0.5-1.6-0.7-3.4-0.5-5.1h-3.2c0.7,0.9,1.2,2,1.2,3.2
		c0,2.8-2.2,5-5,5H8.9c-2.8,0-5-2.2-5-5c0-1.3,0.5-2.4,1.2-3.2h-3c0.2,2.2-0.1,4.5-1,6.5c0.2,0.3,0.3,0.7,0.5,1
		c0.5,0.4,0.9,0.9,1.2,1.4c2.4,0.5,4.3,1.7,5.7,3.3c0.1,0,0.2,0,0.3,0h148.2C157.4,165.1,157.8,165.1,158.1,165z"/>
	<path class="st2" d="M87.1,59.7h-8.3c-0.3,0-0.5,0.2-0.5,0.5v8.3c0,0.3,0.2,0.5,0.5,0.5h8.3c0.3,0,0.5-0.2,0.5-0.5v-8.3
		C87.6,59.9,87.4,59.7,87.1,59.7z"/>
	<path class="st2" d="M62.8,59.7h-8.3c-0.3,0-0.5,0.2-0.5,0.5v8.3c0,0.3,0.2,0.5,0.5,0.5h8.3c0.3,0,0.5-0.2,0.5-0.5v-8.3
		C63.3,59.9,63.1,59.7,62.8,59.7z"/>
	<path class="st2" d="M103.2,69h8.3c0.3,0,0.5-0.2,0.5-0.5v-8.3c0-0.3-0.2-0.5-0.5-0.5h-8.3c-0.3,0-0.5,0.2-0.5,0.5v8.3
		C102.7,68.8,102.9,69,103.2,69z"/>
	<path class="st1" d="M63.5,114c-0.3,0-0.5,0.2-0.5,0.5V136v3.2v8.5c0,0.3,0.2,0.5,0.5,0.5h17c0.3,0,0.5-0.2,0.5-0.5v-33.2
		c0-0.3-0.2-0.5-0.5-0.5H63.5z"/>
	<path class="st1" d="M85.4,114c-0.3,0-0.5,0.2-0.5,0.5v33.2c0,0.3,0.2,0.5,0.5,0.5h17c0.3,0,0.5-0.2,0.5-0.5v-33.2
		c0-0.3-0.2-0.5-0.5-0.5H85.4z"/>
	<path class="st2" d="M132.2,12.5V5.2c0-0.7-0.6-1.3-1.3-1.3H35.2c-0.7,0-1.3,0.6-1.3,1.3v7.3c0,0.7,0.6,1.3,1.3,1.3h95.7
		C131.6,13.8,132.2,13.3,132.2,12.5z"/>
	<path class="st3" d="M157.1,148.2h-5.5c-0.3,0-0.5-0.2-0.5-0.5V105c0-0.2,0.1-0.3,0.2-0.4c0.1-0.1,0.2-0.1,0.3-0.1h0.1
		c5.5,1,7.8,5.1,7.9,5.3c0.3,0.7,1,1.1,1.7,1.1c0.3,0,0.6-0.1,0.9-0.2c0.9-0.5,1.3-1.7,0.9-2.6c-0.1-0.2-2.8-5.5-9.5-7.1
		c-0.2-0.1-0.3-0.2-0.4-0.4c0-0.2,0-0.4,0.2-0.5c3.6-3,8.8-3.2,8.9-3.2c1.1,0,1.9-1,1.9-2c-0.1-1-0.9-1.9-2-1.9
		c-0.1,0-1.5,0.1-3.3,0.5c-1.9,0.4-4.3,1.2-6.4,2.6c-0.1,0.1-0.2,0.1-0.3,0.1s-0.1,0-0.2,0c-0.2-0.1-0.3-0.2-0.3-0.4
		c-1-6.5-5.7-9.7-5.9-9.9c-0.3-0.2-0.7-0.3-1.1-0.3c-0.7,0-1.3,0.3-1.6,0.9c-0.3,0.4-0.4,1-0.3,1.5c0.1,0.5,0.4,1,0.8,1.2
		c0.1,0.1,3.4,2.4,4.2,7c0,0.2-0.1,0.4-0.2,0.5c-0.1,0.1-0.2,0.1-0.3,0.1s-0.2,0-0.3-0.1c-4.5-3.3-10.3-3.6-10.7-3.6
		c-1,0-1.9,0.8-1.9,1.9c-0.1,1.1,0.8,2,1.9,2c0.1,0,5.3,0.3,8.9,3.2c0.2,0.1,0.2,0.3,0.2,0.5s-0.2,0.3-0.4,0.4
		c-6.7,1.7-9.4,6.9-9.5,7.1c-0.2,0.5-0.3,1-0.1,1.5s0.5,0.9,1,1.1c0.3,0.1,0.6,0.2,0.9,0.2c0.7,0,1.4-0.4,1.7-1.1
		c0.1-0.2,2.3-4.3,7.8-5.3h0.1c0.1,0,0.2,0,0.3,0.1s0.2,0.2,0.2,0.4v42.8c0,0.3-0.2,0.5-0.5,0.5H131c-0.3,0-0.5-0.2-0.5-0.5V86V18.2
		c0-0.3,0.2-0.5,0.5-0.5c2.9,0,5.2-2.3,5.2-5.2V5.2c0-2.9-2.4-5.2-5.2-5.2H35.2C32.3,0,30,2.3,30,5.2v7.3c0,2.9,2.3,5.2,5.2,5.2
		c0.3,0,0.5,0.2,0.5,0.5v129.5c0,0.3-0.2,0.5-0.5,0.5H19.3c-0.3,0-0.5-0.2-0.5-0.5V105c0-0.2,0.1-0.3,0.2-0.4s0.2-0.1,0.3-0.1h0.1
		c5.4,1,7.6,4.9,7.9,5.3c0.3,0.7,1,1.1,1.7,1.1c0.3,0,0.6-0.1,0.9-0.2c1-0.5,1.3-1.7,0.9-2.6c-0.1-0.2-2.8-5.5-9.5-7.1
		c-0.2-0.1-0.3-0.2-0.4-0.4c0-0.2,0-0.4,0.2-0.5c3.6-3,8.9-3.2,8.9-3.2c1.1,0,1.9-1,1.9-2c-0.1-1.1-0.9-1.9-2-1.9
		c-0.1,0-1.6,0.1-3.7,0.6s-4.6,1.4-6.9,3c-0.1,0.1-0.2,0.1-0.3,0.1c-0.1,0-0.2,0-0.3-0.1c-0.2-0.1-0.3-0.3-0.2-0.5
		c0.8-4.6,4-6.9,4.2-7c0.4-0.3,0.7-0.7,0.8-1.2c0.1-0.5,0-1-0.3-1.5c-0.4-0.5-1-0.8-1.6-0.8c-0.4,0-0.7,0.1-1.1,0.3
		c-0.2,0.1-4.9,3.3-5.9,9.9c0,0.2-0.1,0.3-0.3,0.4c-0.1,0-0.1,0-0.2,0c-0.1,0-0.2,0-0.3-0.1C9.4,93.3,4.2,93,3.9,93
		c-1,0-1.9,0.8-1.9,1.9s0.8,2,1.9,2c0.1,0,5.3,0.3,8.9,3.2c0.2,0.1,0.2,0.3,0.2,0.5s-0.2,0.3-0.4,0.4c-6.7,1.7-9.4,6.9-9.5,7.1
		c-0.5,1-0.1,2.1,0.8,2.6c0.3,0.1,0.6,0.2,0.9,0.2c0.7,0,1.4-0.4,1.8-1.1c0,0,2.2-4.3,7.9-5.3h0.1c0.1,0,0.2,0,0.3,0.1
		s0.2,0.2,0.2,0.4v42.8c0,0.3-0.2,0.5-0.5,0.5H8.9c-4.9,0-8.9,4-8.9,8.9s4,8.9,8.9,8.9h148.2c4.9,0,8.9-4,8.9-8.9
		C166,152.2,162,148.2,157.1,148.2z M35.1,13.9c-0.7,0-1.3-0.6-1.3-1.3V5.2c0-0.7,0.6-1.3,1.3-1.3h95.7c0.7,0,1.3,0.6,1.3,1.3v7.3
		c0,0.7-0.6,1.3-1.3,1.3L35.1,13.9L35.1,13.9z M104.9,110.1H61.1c-1.1,0-2,0.9-2,2v35.7c0,0.3-0.2,0.5-0.5,0.5H40.1
		c-0.3,0-0.5-0.2-0.5-0.5V52.9l0,0V18.2c0-0.3,0.2-0.5,0.5-0.5H126c0.3,0,0.5,0.2,0.5,0.5v129.5c0,0.3-0.2,0.5-0.5,0.5h-18.6
		c-0.3,0-0.5-0.2-0.5-0.5V112C106.9,110.9,106,110.1,104.9,110.1z M103,114.5v33.2c0,0.3-0.2,0.5-0.5,0.5h-17
		c-0.3,0-0.5-0.2-0.5-0.5v-33.2c0-0.3,0.2-0.5,0.5-0.5h17C102.7,114,103,114.2,103,114.5z M81,114.5v33.2c0,0.3-0.2,0.5-0.5,0.5h-17
		c-0.3,0-0.5-0.2-0.5-0.5v-33.2c0-0.3,0.2-0.5,0.5-0.5h17C80.8,114,81,114.2,81,114.5z M157.1,162.1H8.9c-2.8,0-5-2.2-5-5s2.2-5,5-5
		h148.2c2.8,0,5,2.2,5,5S159.9,162.1,157.1,162.1z"/>
	<path class="st3" d="M63.6,55.8h-9.9c-2,0-3.6,1.6-3.6,3.6v9.9c0,2,1.6,3.6,3.6,3.6h9.9c2,0,3.6-1.6,3.6-3.6v-9.9
		C67.2,57.4,65.6,55.8,63.6,55.8z M63.3,68.5c0,0.3-0.2,0.5-0.5,0.5h-8.2c-0.3,0-0.5-0.2-0.5-0.5v-8.2c0-0.3,0.2-0.5,0.5-0.5h8.2
		c0.3,0,0.5,0.2,0.5,0.5V68.5z"/>
	<path class="st3" d="M63.6,29.2h-9.9c-2,0-3.6,1.6-3.6,3.6v9.9c0,2,1.6,3.6,3.6,3.6h9.9c2,0,3.6-1.6,3.6-3.6v-9.9
		C67.2,30.9,65.6,29.2,63.6,29.2z M63.3,41.9c0,0.3-0.2,0.5-0.5,0.5h-8.2c-0.3,0-0.5-0.2-0.5-0.5v-8.2c0-0.3,0.2-0.5,0.5-0.5h8.2
		c0.3,0,0.5,0.2,0.5,0.5V41.9z"/>
	<path class="st3" d="M112.3,55.8h-9.9c-2,0-3.6,1.6-3.6,3.6v9.9c0,2,1.6,3.6,3.6,3.6h9.9c2,0,3.6-1.6,3.6-3.6v-9.9
		C115.9,57.4,114.3,55.8,112.3,55.8z M112,68.5c0,0.3-0.2,0.5-0.5,0.5h-8.2c-0.3,0-0.5-0.2-0.5-0.5v-8.2c0-0.3,0.2-0.5,0.5-0.5h8.2
		c0.3,0,0.5,0.2,0.5,0.5V68.5z"/>
	<path class="st3" d="M87.9,29.2H78c-2,0-3.6,1.6-3.6,3.6v9.9c0,2,1.6,3.6,3.6,3.6h9.9c2,0,3.6-1.6,3.6-3.6v-9.9
		C91.5,30.9,89.9,29.2,87.9,29.2z M87.6,41.9c0,0.3-0.2,0.5-0.5,0.5h-8.2c-0.3,0-0.5-0.2-0.5-0.5v-8.2c0-0.3,0.2-0.5,0.5-0.5h8.2
		c0.3,0,0.5,0.2,0.5,0.5V41.9z"/>
	<path class="st3" d="M87.9,82.4H78c-2,0-3.6,1.6-3.6,3.6v9.9c0,2,1.6,3.6,3.6,3.6h9.9c2,0,3.6-1.6,3.6-3.6V86
		C91.5,84,89.9,82.4,87.9,82.4z M87.6,95c0,0.3-0.2,0.5-0.5,0.5h-8.2c-0.3,0-0.5-0.2-0.5-0.5v-8.2c0-0.3,0.2-0.5,0.5-0.5h8.2
		c0.3,0,0.5,0.2,0.5,0.5V95z"/>
	<path class="st3" d="M63.6,82.4h-9.9c-2,0-3.6,1.6-3.6,3.6v9.9c0,2,1.6,3.6,3.6,3.6h9.9c2,0,3.6-1.6,3.6-3.6V86
		C67.2,84,65.6,82.4,63.6,82.4z M63.3,95c0,0.3-0.2,0.5-0.5,0.5h-8.2c-0.3,0-0.5-0.2-0.5-0.5v-8.2c0-0.3,0.2-0.5,0.5-0.5h8.2
		c0.3,0,0.5,0.2,0.5,0.5V95z"/>
	<path class="st3" d="M87.9,55.8H78c-2,0-3.6,1.6-3.6,3.6v9.9c0,2,1.6,3.6,3.6,3.6h9.9c2,0,3.6-1.6,3.6-3.6v-9.9
		C91.5,57.4,89.9,55.8,87.9,55.8z M87.6,68.5c0,0.3-0.2,0.5-0.5,0.5h-8.2c-0.3,0-0.5-0.2-0.5-0.5v-8.2c0-0.3,0.2-0.5,0.5-0.5h8.2
		c0.3,0,0.5,0.2,0.5,0.5V68.5z"/>
	<path class="st3" d="M112.3,29.2h-9.9c-2,0-3.6,1.6-3.6,3.6v9.9c0,2,1.6,3.6,3.6,3.6h9.9c2,0,3.6-1.6,3.6-3.6v-9.9
		C115.9,30.9,114.3,29.2,112.3,29.2z M112,41.9c0,0.3-0.2,0.5-0.5,0.5h-8.2c-0.3,0-0.5-0.2-0.5-0.5v-8.2c0-0.3,0.2-0.5,0.5-0.5h8.2
		c0.3,0,0.5,0.2,0.5,0.5V41.9z"/>
	<path class="st3" d="M112.3,82.4h-9.9c-2,0-3.6,1.6-3.6,3.6v9.9c0,2,1.6,3.6,3.6,3.6h9.9c2,0,3.6-1.6,3.6-3.6V86
		C115.9,84,114.3,82.4,112.3,82.4z M112,95c0,0.3-0.2,0.5-0.5,0.5h-8.2c-0.3,0-0.5-0.2-0.5-0.5v-8.2c0-0.3,0.2-0.5,0.5-0.5h8.2
		c0.3,0,0.5,0.2,0.5,0.5V95z"/>
</g>
</svg>
