<?xml version="1.0" encoding="utf-8"?>
<!-- Generator: Adobe Illustrator 24.3.0, SVG Export Plug-In . SVG Version: 6.00 Build 0)  -->
<svg version="1.1" id="Layer_1" xmlns="http://www.w3.org/2000/svg" xmlns:xlink="http://www.w3.org/1999/xlink" x="0px" y="0px"
	 width="564.3px" height="478px" viewBox="0 0 564.3 478" style="enable-background:new 0 0 564.3 478;" xml:space="preserve">
<style type="text/css">
	.st0{fill:#185AE9;}
	.st1{fill:#00B0FB;}
	.st2{fill-rule:evenodd;clip-rule:evenodd;fill:#00B0FB;}
	.st3{fill:#00B0FB;fill-opacity:0.4;}
	.st4{fill:#FFFFFF;}
	.st5{fill:#001135;}
	.st6{fill:#3C7CFF;}
	.st7{fill:#DBDBDB;}
	.st8{fill:#FCFCFC;}
	.st9{fill:none;}
	.st10{fill:#FDFDFD;}
	.st11{fill-rule:evenodd;clip-rule:evenodd;}
	.st12{fill:#030302;}
	.st13{fill:#D2D3D3;}
	.st14{fill:#1F1F1F;}
	.st15{fill:#F6F6F6;}
	.st16{fill:#0E0D0E;}
	.st17{fill:#BABBBB;}
	.st18{fill:#8A8A8A;}
	.st19{fill:#8E8F8F;}
	.st20{fill:#464746;}
	.st21{fill:#5F5E5E;}
	.st22{fill:#0B0B0B;}
	.st23{fill:#090909;}
	.st24{fill:#151414;}
	.st25{fill:#101010;}
	.st26{fill:#282828;}
</style>
<g>
	<path d="M217.2,460.9c0.2-5.3,1.9-10.2,3.9-15c5.5-12.7,13.3-24,21.8-34.8c4.9-6.3,10-12.4,15.2-18.3c1.5-1.7,3.1-3.5,4.6-5.2
		c2.4-2.6,4.8-5.2,7.2-7.7c1.7-1.8,3.5-3.6,5.3-5.5c6-6.1,12.2-12.1,18.5-18c0.9-0.8,1.8-1.7,2.7-2.5c0.7-0.6,1.4-1.3,2.1-1.9
		c4.1-3.8,8.3-7.6,12.5-11.3c0.3-0.2,0.5-0.5,0.8-0.7c4.2-3.8,8.5-7.5,12.8-11.1c0.6-0.5,1.2-1,1.8-1.5c0.6-0.5,1.2-1,1.7-1.5
		c0.2-0.1,0.3-0.3,0.5-0.4c10.5-8.8,21.2-17.4,32.1-25.7c1.1-0.8,2.1-1.6,3.2-2.4c0.2-0.1,0.3-0.2,0.4-0.3c3.5-2.6,7-5.2,10.5-7.8
		c3.2-2.4,6.5-4.7,9.7-7c1.2-0.8,2.4-1.7,3.5-2.5c11.5-8.1,23.3-15.8,35.2-23.3c1.8-1.1,3.7-2.3,5.5-3.4c1.1-0.7,2.2-1.4,3.4-2.1
		c5.7-3.5,11.5-6.9,17.4-10.2c1.5-0.9,3.1-1.8,4.6-2.6c14.9-8.3,30.3-15.8,46.2-22.2c14-5.5,28.1-10.4,43.6-11
		c2.2,0.2,4.6,0.2,6.9,0.5c8.8,1.4,13.6,7,13.4,15.8c0,4.8-1.4,9.3-3.1,13.7c-4.6,11.6-11.4,21.9-18.7,31.8
		c-9.2,12.3-19.1,23.9-29.6,35c-1.4,1.5-2.9,3-4.3,4.5c-1,1-2,2.1-3,3.1c-1,1-1.9,2-2.9,3c-1.8,1.8-3.5,3.5-5.3,5.2
		c0,0-0.1,0.1-0.1,0.1c-0.9,0.9-1.9,1.9-2.8,2.8c-0.2,0.2-0.4,0.4-0.6,0.6c0,0,0,0,0,0c-0.1,0.1-0.2,0.2-0.4,0.3
		c-2.9,2.8-5.8,5.5-8.7,8.2c-1,1-2.1,1.9-3.1,2.9c-0.7,0.7-1.4,1.3-2.2,2c-0.7,0.6-1.4,1.3-2.1,1.9c-0.5,0.5-1.1,1-1.6,1.5
		c-0.6,0.5-1.1,1-1.7,1.5c-2.3,2-4.5,4.1-6.8,6.1c-0.3,0.2-0.6,0.5-0.8,0.7c-0.1,0.1-0.2,0.2-0.3,0.3c-0.6,0.5-1.2,1-1.7,1.5
		c-0.3,0.2-0.5,0.5-0.8,0.7c-2.8,2.4-5.6,4.8-8.4,7.2c-1.1,1-2.3,1.9-3.4,2.9c-1.1,0.9-2.1,1.8-3.2,2.6c-2.2,1.8-4.4,3.7-6.7,5.5
		c0,0,0,0,0,0c-2.2,1.8-4.4,3.5-6.6,5.2c-0.2,0.2-0.4,0.3-0.6,0.5c-0.9,0.7-1.9,1.5-2.8,2.2c-0.9,0.7-1.8,1.4-2.8,2.1
		c-1.2,1-2.4,1.9-3.6,2.8c-3.8,2.9-7.5,5.8-11.4,8.6c-0.8,0.6-1.6,1.2-2.4,1.8c-1.8,1.3-3.5,2.6-5.3,3.9c-1,0.8-2.1,1.5-3.1,2.2
		c-2.6,1.9-5.2,3.7-7.7,5.5c0,0-0.1,0.1-0.1,0.1c-0.1,0.1-0.3,0.2-0.4,0.3c-0.8,0.6-1.7,1.2-2.5,1.8c-0.2,0.1-0.3,0.2-0.5,0.3
		c-0.1,0.1-0.2,0.1-0.3,0.2c-3.6,2.5-7.2,5-10.9,7.5c-2.5,1.7-5,3.3-7.4,5c-1,0.7-2,1.3-3,2c-0.3,0.2-0.5,0.3-0.8,0.5
		c-0.9,0.6-1.8,1.2-2.7,1.8c-1.1,0.7-2.1,1.4-3.2,2c-4.6,2.9-9.3,5.8-13.9,8.7c-1.1,0.7-2.1,1.3-3.2,1.9c-0.8,0.5-1.6,0.9-2.4,1.4
		c-1.1,0.6-2.1,1.3-3.2,1.9c-6.4,3.8-12.9,7.4-19.5,10.9c-3.8,2-7.6,4-11.5,6c-1,0.5-2,1-2.9,1.5c-3,1.5-6,3-9.1,4.4v0
		c-1.3,0.6-2.7,1.2-4,1.8c-2.3,1-4.6,2-6.9,3c-9.4,4-19,7.5-29,10.1c-8.6,2.3-17.4,4-26.4,2.8C221.9,476.4,216.9,470.6,217.2,460.9z
		"/>
	<g>
		<path class="st4" d="M55.1,69.2c0,2.3,0.7,3,2.9,3c13.8-0.1,27.6-0.1,41.4,0c2,0,2.4-0.7,2.4-2.5c-0.1-7.3,0-14.6,0-21.8
			c0,0-0.1,0-0.1,0c0-7.4,0-14.7,0-22.1c0-1.8-0.4-2.5-2.3-2.5c-14,0.1-28,0.1-41.9,0c-1.9,0-2.4,0.5-2.4,2.4
			C55.2,40.2,55.2,54.7,55.1,69.2z M93.9,66.7c-10.1,0-20.2,0.1-30.3,0c-0.8,0-2.2,0.3-2.2-0.9c0-1.3,1.3-1,2.1-1
			c5.1,0,10.2,0,15.3,0c0,0,0,0,0,0c5,0,10,0,15,0c0.8,0,2-0.2,2,0.9C95.9,67,94.7,66.7,93.9,66.7z M93.8,59.9c-5.1,0-10.2,0-15.3,0
			c0,0,0,0,0,0.1c-5,0-10,0-15.1,0c-0.9,0-2.1,0.2-2-1.2c0.1-1.1,1.2-0.9,2-0.9c10.1,0,20.3,0,30.4,0c0.8,0,2-0.3,2.1,0.8
			C96,60.2,94.6,59.9,93.8,59.9z M94.9,52.9c-3.8,0-7.7,0-11.5,0c-0.8,0-1.7-0.2-1.7-1.1c0-0.9,0.8-1.1,1.6-1.1c2,0,4,0,6,0
			c0,0,0,0,0,0c1.8,0,3.7,0,5.5,0c0.8,0,1.6,0.2,1.6,1.2C96.4,52.8,95.6,52.9,94.9,52.9z M94.9,46c-2,0-4,0-6,0c-1.9,0-3.8,0-5.7,0
			c-0.7,0-1.4-0.1-1.5-0.9c-0.1-0.9,0.7-1,1.4-1c4,0,8,0,12,0c0.7,0,1.4,0.1,1.3,1C96.3,45.8,95.6,46,94.9,46z M91.1,29.6h5
			c0.6,0,1.1,0.5,1.1,1.1s-0.5,1.1-1.1,1.1h-5c-0.6,0-1.1-0.5-1.1-1.1S90.6,29.6,91.1,29.6z M89.1,36.9c1.9,0,3.8,0,5.8,0
			c0.8,0,1.6,0.1,1.7,1.1c0.1,1-0.7,1.2-1.5,1.2c-4,0-8,0-12,0c-0.7,0-1.4-0.2-1.5-1c0-1,0.8-1.2,1.6-1.2
			C85.1,36.9,87.1,36.9,89.1,36.9C89.1,36.9,89.1,36.9,89.1,36.9z M81.8,29.6h5c0.6,0,1.1,0.5,1.1,1.1s-0.5,1.1-1.1,1.1h-5
			c-0.6,0-1.1-0.5-1.1-1.1S81.2,29.6,81.8,29.6z M72.4,29.6h5c0.6,0,1.1,0.5,1.1,1.1s-0.5,1.1-1.1,1.1h-5c-0.6,0-1.1-0.5-1.1-1.1
			S71.8,29.6,72.4,29.6z M63,29.6h5c0.6,0,1.1,0.5,1.1,1.1s-0.5,1.1-1.1,1.1h-5c-0.6,0-1.1-0.5-1.1-1.1S62.4,29.6,63,29.6z
			 M60.7,38.8c0-1.5,1.3-2.8,2.8-2.8H75c1.5,0,2.8,1.3,2.8,2.8v12c0,1.5-1.3,2.8-2.8,2.8H63.5c-1.5,0-2.8-1.3-2.8-2.8V38.8z"/>
		<path class="st7" d="M78.5,152.7c4,0.1,7.3-3.5,7.4-7.9c0.1-4.3-3.2-7.9-7.3-7.9c-4.1,0-7.2,3.1-7.2,7.4
			C71.2,148.8,74.5,152.6,78.5,152.7z"/>
		<path class="st4" d="M208.6,116c0-1.9-0.5-2.4-2.4-2.4c-14.2,0.1-28.3,0.1-42.5,0c-2,0-2.6,0.6-2.6,2.6c0.1,13.6,0.1,27.1,0,40.7
			c0,1.8,0.6,2.3,2.3,2.2c7.1-0.1,14.2,0,21.4,0c0,0,0,0,0,0c7,0,13.9-0.1,20.9,0c2.3,0,3-0.6,3-2.9
			C208.5,142.8,208.5,129.4,208.6,116z M187.7,122.1h4.8c0.6,0,1,0.5,1,1c0,0.6-0.5,1-1,1h-4.8c-0.6,0-1-0.5-1-1
			C186.7,122.5,187.1,122.1,187.7,122.1z M178.7,122.1h4.8c0.6,0,1,0.5,1,1c0,0.6-0.5,1-1,1h-4.8c-0.6,0-1-0.5-1-1
			C177.7,122.5,178.2,122.1,178.7,122.1z M169.8,122.1h4.8c0.6,0,1,0.5,1,1c0,0.6-0.5,1-1,1h-4.8c-0.6,0-1-0.5-1-1
			C168.8,122.5,169.2,122.1,169.8,122.1z M167.6,131.1c0-1.5,1.3-2.8,2.8-2.8h11.5c1.5,0,2.8,1.3,2.8,2.8v12c0,1.5-1.3,2.8-2.8,2.8
			h-11.5c-1.5,0-2.8-1.3-2.8-2.8V131.1z M199.2,152.5c-9.9,0-19.7,0-29.6,0c-0.9,0-2.2,0.2-2.1-1.1c0.1-1.3,1.4-0.9,2.2-0.9
			c4.8,0,9.7,0,14.5,0c0,0,0,0,0,0c4.9,0,9.9,0,14.8,0c0.8,0,2.1-0.3,2.2,1C201.3,152.7,200.1,152.5,199.2,152.5z M200.6,145
			c-3.8,0-7.5,0-11.3,0c-0.8,0-1.6-0.2-1.6-1.1c0-1.1,1-1,1.7-1c1.9,0,3.8,0,5.8,0c0,0,0,0,0,0c1.8,0,3.7,0,5.5,0
			c0.7,0,1.4,0.2,1.5,1C202.2,144.8,201.4,145,200.6,145z M200.9,137.8c-1.9,0-3.8,0-5.8,0c0,0,0,0,0,0c-1.9,0-3.8,0-5.8,0
			c-0.7,0-1.4-0.1-1.5-1c0-1,0.8-1,1.4-1c3.8-0.1,7.7-0.1,11.5-0.1c0.8,0,1.6,0.1,1.5,1.2C202.3,137.7,201.6,137.8,200.9,137.8z
			 M200.7,130.6c-1.8,0-3.7,0-5.5,0c-2,0-4,0-6,0c-0.7,0-1.4-0.2-1.4-1.1c0-0.9,0.6-1.1,1.3-1.1c3.9,0,7.8-0.1,11.8-0.1
			c0.8,0,1.5,0.3,1.5,1.3C202.4,130.7,201.5,130.6,200.7,130.6z M201.4,124.1h-4.8c-0.6,0-1-0.5-1-1c0-0.6,0.5-1,1-1h4.8
			c0.6,0,1,0.5,1,1C202.4,123.6,202,124.1,201.4,124.1z"/>
		<path class="st4" d="M235.6,125c-0.1-0.7-0.3-1.3-0.5-2c-1.7-6.5-4.2-12.6-8.1-18.1c-4.8-6.7-11.1-12.3-18.5-16.1
			c-3.7-1.9-7.7-3.4-11.8-4.3c-8.7-2-18.2-1.8-26.8,0.6c-7,2-13.5,5.5-19.1,10.2c-5.5,4.7-9.9,10.5-13,17
			c-3.2,6.8-4.8,14.2-4.9,21.7c-0.2,28.3,22.8,51.4,51.5,51.7c28.8,0.2,51.7-22.3,52.1-51C236.7,131.5,236.3,128.2,235.6,125z
			 M185,182.4c-26.5,0.1-48.3-21.2-48.5-47.4c-0.2-27,20.8-48.2,47.8-48.4c27.2-0.2,48.9,21.2,48.7,48.4
			C232.9,161.5,211.6,182.5,185,182.4z"/>
		<path class="st7" d="M122.1,215.3c-4.6,0-8.5,3.8-8.6,8.4c-0.1,4.7,3.9,8.7,8.5,8.7c4.7,0,8.6-3.9,8.6-8.6
			C130.6,219.3,126.7,215.4,122.1,215.3z"/>
		<path class="st7" d="M185.8,89.8c-24.9-0.5-45.6,19.1-46,43.7c-0.4,24.5,19.4,45.2,43.6,45.7c25.7,0.5,45.9-18.8,46.4-44.3
			C230.3,111,210,90.2,185.8,89.8z M150.6,134.8c-1.5,0.5-3,0.9-4.5,1.4c-1.1,0.2-1.5-0.5-1.8-1.4c-0.3-1,0.1-1.6,1.1-1.9
			c1.4-0.4,2.9-0.8,4.3-1.2c1-0.3,1.4,0.2,1.6,1C151.5,133.6,151.7,134.4,150.6,134.8z M212,159.2c0,2.4-1,3.2-3.3,3.2
			c-15.7,0-31.3,0-47,0c-3.4,0-3.8-0.5-3.8-3.7c0-15.1,0-30.1-0.1-45.2c0-2.4,1-3.3,3.3-3.3c8,0.1,16.1,0,24.1,0c0,0,0,0,0,0
			c7.9,0,15.7,0.1,23.6,0c2.4,0,3.3,0.9,3.3,3.3C212,128.7,212,144,212,159.2z"/>
		<path class="st7" d="M64.8,51.5h8.9c1.2,0,2.2-1,2.2-2.2v-9.3c0-1.2-1-2.2-2.2-2.2h-8.9c-1.2,0-2.2,1-2.2,2.2v9.3
			C62.7,50.6,63.7,51.5,64.8,51.5z"/>
		<path class="st4" d="M171.7,143.9h8.9c1.2,0,2.2-1,2.2-2.2v-9.3c0-1.2-1-2.2-2.2-2.2h-8.9c-1.2,0-2.2,1-2.2,2.2v9.3
			C169.5,143,170.5,143.9,171.7,143.9z"/>
		<path class="st7" d="M111.4,302.8c-4-0.1-7.2,3.3-7.2,7.4c0,4.5,3.1,8.2,7,8.3c4.2,0.1,7.4-3.3,7.4-7.8
			C118.6,306.1,115.7,302.8,111.4,302.8z"/>
		<path class="st4" d="M135.1,296.3c0-1.8-0.4-2.5-2.3-2.5c-14.5,0.1-28.9,0.1-43.4,0c-1.8,0-2.5,0.5-2.5,2.4
			c0.1,13.6,0.1,27.3,0,40.9c0,2.1,0.8,2.5,2.6,2.4c7.1-0.1,14.2,0,21.3,0c7.3,0,14.6-0.1,21.8,0c1.8,0,2.5-0.5,2.4-2.4
			C135.1,323.5,135.1,309.9,135.1,296.3z M126.9,335c-1.2,0.1-1.8-0.4-2.1-1.7c-2-10.1-12.4-14.5-21.2-9.1c-3.4,2.1-5.5,5.1-5.6,9.2
			c0,1.3-0.2,2.5-1.8,2.4c-1.7-0.1-1.9-1.3-1.8-2.7c0.1-5.9,3-10,7.9-12.7c1.9-1,1.6-1.5,0.5-2.9c-4.6-6.1-2.4-15,4.3-17.8
			c3.9-1.6,7.6-1.1,10.9,1.4c3.7,2.7,4.8,6.5,4.3,10.9c-0.3,2.7-1.4,5.1-3.4,7.3c3.5,1.8,6.3,3.8,8.1,7c1.2,2.1,1.7,4.3,1.6,6.7
			C128.7,334.3,128.2,335,126.9,335z"/>
		<path class="st4" d="M176.6,277.5h8.9c1.2,0,2.2-1,2.2-2.2v-9.3c0-1.2-1-2.2-2.2-2.2h-8.9c-1.2,0-2.2,1-2.2,2.2v9.3
			C174.4,276.6,175.4,277.5,176.6,277.5z"/>
		<path class="st7" d="M27.5,221.1c-10.6,0.4-19.9,7.5-22.7,17.5c-2.5,9,0.5,19.3,7.2,23.7c0.3-6.6,3.3-11.5,9-14.5
			c-4.4-6-4.4-12.2-0.2-16.4c3.5-3.5,8.9-4,12.8-1.1c2.1,1.5,3.3,3.5,3.9,6c1,4.3-0.1,8.2-2.8,11.7c6,3.1,8.6,8,8.9,14.6
			c7.3-5.7,10.1-16.6,6.7-25.6C46.9,227.2,37.5,220.8,27.5,221.1z"/>
		<path class="st4" d="M55,172.5c0,1.8,0.6,2.3,2.3,2.3c14-0.1,28-0.1,41.9,0c1.9,0,2.4-0.6,2.4-2.4c-0.1-7,0-14.1,0-21.1
			c0,0,0,0,0,0c0-7.2,0-14.4,0-21.6c0-1.6-0.3-2.4-2.2-2.4c-14.1,0.1-28.3,0.1-42.4,0c-1.6,0-2,0.5-2,2
			C55.1,143.7,55.1,158.1,55,172.5z M61.4,167.7c0.2-5.9,2.9-10.2,8.1-13c1.4-0.8,1.7-1.2,0.6-2.6c-2.9-3.9-3.5-8.3-1.4-12.8
			c1.8-3.9,5-6,9.3-6.3c6.4-0.4,11.6,4.7,11.6,11.4c0,2.8-0.6,5.4-2.3,7.5c-1.2,1.5-0.7,2,0.7,2.7c5.1,2.6,7.9,6.8,8.2,12.6
			c0.1,1.3-0.3,2.2-1.7,2.3c-1.3,0.1-2.2-0.6-2.1-1.9c0.3-8.5-10.6-13.3-18.7-10.3c-5,1.8-8.1,5.2-8.3,10.8
			c-0.1,1.4-0.5,2.3-2.1,2.2C61.7,170.1,61.4,169,61.4,167.7z"/>
		<path class="st7" d="M213,273.1C213,273.1,213,273.1,213,273.1c0-7.4-0.1-14.9,0-22.3c0.1-2.4-0.5-3.1-3-3.1
			c-14,0.1-28,0.1-41.9,0.1c-1.8,0-2.3,0.7-2.3,2.3c0,15.5,0,31,0,46.4c0,1.8,0.6,2.3,2.3,2.3c14.2-0.1,28.5-0.1,42.7,0
			c1.8,0,2.2-0.6,2.2-2.3C213,288.7,213,280.9,213,273.1z M201.6,255.7h4.8c0.6,0,1,0.5,1,1s-0.5,1-1,1h-4.8c-0.6,0-1-0.5-1-1
			S201,255.7,201.6,255.7z M200,262.1c2,0,4,0,6,0c0.7,0,1.4,0.2,1.4,1.1c0,0.9-0.7,1.1-1.4,1.1c-4.1,0-8.2,0-12.3,0
			c-0.7,0-1.3-0.3-1.3-1.2c0.1-0.7,0.7-0.9,1.3-0.9C195.8,262.1,197.9,262.1,200,262.1C200,262.1,200,262.1,200,262.1z M192.6,255.7
			h4.8c0.6,0,1,0.5,1,1s-0.5,1-1,1h-4.8c-0.6,0-1-0.5-1-1S192,255.7,192.6,255.7z M183.6,255.7h4.8c0.6,0,1,0.5,1,1s-0.5,1-1,1h-4.8
			c-0.6,0-1-0.5-1-1S183.1,255.7,183.6,255.7z M174.7,255.7h4.8c0.6,0,1,0.5,1,1s-0.5,1-1,1h-4.8c-0.6,0-1-0.5-1-1
			S174.1,255.7,174.7,255.7z M172.5,264.8c0-1.5,1.3-2.8,2.8-2.8h11.5c1.5,0,2.8,1.3,2.8,2.8v12c0,1.5-1.3,2.8-2.8,2.8h-11.5
			c-1.5,0-2.8-1.3-2.8-2.8V264.8z M174.4,283.3c10.1,0,20.2,0,30.4,0c0.8,0,2-0.1,1.9,1c0,1.2-1.2,0.8-2,0.8c-5.1,0-10.2,0-15.3,0
			c0,0,0,0.1,0,0.1c-5,0-10,0-15.1,0c-0.8,0-2,0.3-2-0.9C172.3,283.1,173.6,283.3,174.4,283.3z M204.7,292.2c-5,0-10,0-15,0
			c0,0,0,0,0,0c-5.1,0-10.2,0-15.3,0c-0.8,0-1.9,0.2-2-0.9c-0.1-1.3,1.1-1,1.9-1c10.2,0,20.4,0,30.6,0c0.8,0,2-0.2,2,0.9
			C206.8,292.5,205.5,292.2,204.7,292.2z M205.9,278.2c-2,0-4,0-6,0c0,0,0,0,0,0c-2,0-4,0-6,0c-0.6,0-1.3-0.2-1.3-0.9
			c-0.1-0.8,0.6-1.2,1.3-1.2c4,0,8,0,12,0c0.7,0,1.4,0.2,1.4,1C207.4,278.1,206.6,278.2,205.9,278.2z M206.1,271.2
			c-2.1,0-4.2,0-6.3,0c0,0,0,0,0,0c-2,0-4,0-6,0c-0.6,0-1.3-0.2-1.3-0.8c-0.1-0.8,0.6-1.2,1.3-1.2c4.1,0,8.2,0,12.3,0
			c0.7,0,1.4,0.3,1.3,1.1C207.4,271,206.7,271.1,206.1,271.2z"/>
		<path class="st4" d="M28,250.1c-6.1-0.1-11.4,4.9-12,11.2c-0.1,0.9-0.1,1.9-0.5,2.7c-0.6,1.1,0,1.4,0.8,1.9
			c3.6,2,7.4,3.1,10.9,3.3c3.3,0,6-0.7,8.6-1.6c4.4-1.5,4.4-1.6,4-6.1C39.3,255.1,34.2,250.2,28,250.1z"/>
		<path class="st4" d="M34.2,239.2c-0.1-4.1-3-7.3-6.5-7.2c-3.5,0.1-6.2,3.3-6.2,7.2c0,4.3,2.8,7.5,6.5,7.5
			C31.5,246.6,34.2,243.3,34.2,239.2z"/>
		<path class="st4" d="M237.3,188.4c-0.5-0.5-0.9-1.2-1.8-1.2c-0.6,0-1,0.3-1.2,0.7c-0.5,0.9,0.1,1.4,0.6,2
			c9.6,10.2,19.3,20.5,28.9,30.7c0.7,0.8,1.5,1.5,2.5,0.5c0.9-0.9,0.1-1.7-0.5-2.3C256.3,208.6,246.8,198.5,237.3,188.4z"/>
		<path class="st4" d="M200.9,22.6c0-4.1-2.8-7.2-6.4-7.3c-3.6,0-6.5,3.2-6.5,7.2c0,4.1,2.7,7.4,6.2,7.5
			C197.8,30.1,200.8,26.8,200.9,22.6z"/>
		<path class="st7" d="M178.8,45.2c0.3-3.7,1.2-7.1,3.6-10c1.4-1.7,4-2.6,4.7-4.2c0.6-1.3-2.1-3.5-2.4-5.6c0-0.2-0.1-0.3-0.1-0.5
			c-0.6-4.4,0-8.4,3.8-11.3c3.4-2.6,7.1-2.9,10.8-0.9c4,2.2,5.5,5.8,5.3,10.3c-0.2,3.1-1.5,5.7-3.2,8.2c6.2,3.1,8.9,8.2,8.8,15.1
			c7.8-4.9,11.2-15.8,8.4-25.4c-2.9-10-12.4-17-23.2-17c-10.8,0-20.4,7.2-23.5,17.8C169.3,30.4,172.5,41.2,178.8,45.2z"/>
		<path class="st4" d="M206,42.7c-1.3-6.1-8.1-10.5-14.1-8.9c-5.5,1.5-9.4,5.4-9.6,13.1c0,1.2,0.2,1.8,1.2,2.3c3.5,2,7.2,3,11.2,3.1
			c3.9,0,7.6-1,11.1-2.7c0.5-0.3,1.6-0.4,1.1-1.3C206,46.6,206.4,44.6,206,42.7z"/>
		<path d="M226.6,185.6c4.7-4,4.7-4,0.7-8.6c-1-1.2-1-1.8,0.1-3c10.2-11.1,15.4-24.1,15.4-39.2c0-3.4-0.2-6.9-0.9-10.2
			c-8-40.3-52.6-60.1-87.9-39.2c-24.7,14.7-34.5,47.7-22.2,73.3c14.1,29.3,50.6,43.6,81.8,26c1.4-0.8,2.2-0.8,3.4,0.4
			c1.4,1.6,2.9,4,4.8,4.2C223.6,189.5,225,186.9,226.6,185.6z M184.5,185.8c-28.7-0.2-51.7-23.3-51.5-51.7
			c0.1-7.5,1.7-14.9,4.9-21.7c3.1-6.5,7.5-12.4,13-17c5.5-4.7,12.1-8.2,19.1-10.2c8.6-2.5,18-2.7,26.8-0.6c4.1,1,8.1,2.4,11.8,4.3
			c7.3,3.8,13.7,9.4,18.5,16.1c3.9,5.5,6.4,11.6,8.1,18.1c0.2,0.6,0.3,1.3,0.5,2c0.7,3.2,1,6.5,1,9.8
			C236.2,163.5,213.3,186,184.5,185.8z"/>
		<path d="M191.8,56.1c-0.3,0.6-0.8,1.1-0.8,1.5c-0.2,4.5-0.4,9-0.5,13.6c0,1.2,0.9,1.5,1.9,1.5c1.3,0.1,1.5-0.7,1.6-1.7
			c0.1-4.2,0.4-8.4,0.4-12.5c0-1.8,0.5-2.3,2.2-2.3c5-0.2,9.7-1.6,14-4.4c10.3-6.8,15-19.3,11.9-31.2c-3-11.4-13.2-19.5-25.5-20.4
			c-11.5-0.8-22.6,5.7-27.4,16c-5,10.8-3,22.9,5.1,31.4C179.3,52.3,185.2,54.8,191.8,56.1z M205.8,49.7c-3.5,1.7-7.2,2.7-11.1,2.7
			c-4-0.2-7.7-1.2-11.2-3.1c-1-0.6-1.2-1.1-1.2-2.3c0.2-7.7,4-11.6,9.6-13.1c6-1.6,12.9,2.8,14.1,8.9c0.4,1.9,0,3.8,0.9,5.6
			C207.4,49.2,206.4,49.4,205.8,49.7z M188,22.5c0-4,2.9-7.2,6.5-7.2c3.6,0,6.4,3.2,6.4,7.3c0,4.1-3,7.5-6.6,7.4
			C190.8,29.9,188,26.7,188,22.5z M171.8,21.7c3.1-10.6,12.6-17.8,23.5-17.8c10.8,0,20.3,7,23.2,17c2.8,9.7-0.6,20.5-8.4,25.4
			c0-6.9-2.7-12-8.8-15.1c1.8-2.5,3.1-5.1,3.2-8.2c0.2-4.5-1.3-8.1-5.3-10.3c-3.7-2-7.5-1.7-10.8,0.9c-3.7,2.9-4.4,6.9-3.8,11.3
			c0,0.2,0.1,0.3,0.1,0.5c0.4,2.2,3,4.3,2.4,5.6c-0.7,1.6-3.3,2.5-4.7,4.2c-2.4,2.9-3.3,6.3-3.6,10
			C172.5,41.2,169.3,30.4,171.8,21.7z"/>
		<path d="M27.9,217.2C12.6,217.2,0,229.6,0,244.9c0,15.2,12.6,27.9,27.8,28c15,0.1,27.9-12.5,28-27.5
			C55.8,229.5,43.8,217.3,27.9,217.2z M35.7,267.6c-2.6,0.9-5.3,1.6-8.6,1.6c-3.5-0.2-7.3-1.3-10.9-3.3c-0.8-0.5-1.3-0.8-0.8-1.9
			c0.4-0.8,0.4-1.8,0.5-2.7c0.6-6.3,5.9-11.2,12-11.2c6.2,0.1,11.3,5,11.8,11.4C40.1,266,40.1,266.1,35.7,267.6z M21.5,239.2
			c0-4,2.7-7.2,6.2-7.2c3.6-0.1,6.5,3.1,6.5,7.2c0.1,4.1-2.7,7.5-6.2,7.5C24.3,246.7,21.5,243.5,21.5,239.2z M43.7,262.4
			c-0.3-6.6-3-11.6-8.9-14.6c2.7-3.5,3.8-7.4,2.8-11.7c-0.6-2.4-1.9-4.5-3.9-6c-3.9-2.9-9.3-2.4-12.8,1.1
			c-4.2,4.2-4.1,10.4,0.2,16.4c-5.7,3.1-8.7,8-9,14.5c-6.7-4.4-9.7-14.7-7.2-23.7c2.8-10,12.1-17.1,22.7-17.5
			c10-0.3,19.3,6.1,22.9,15.7C53.8,245.8,51,256.7,43.7,262.4z"/>
		<path d="M238.4,184.3c-1.8-1.9-3-2-4.9-0.2c-2.9,2.6-5.8,5.3-8.7,8c-2.1,1.9-2.1,3.4,0,5.6c10.2,10.8,20.3,21.6,30.5,32.4
			c2.1,2.2,4.7,3.4,8.2,3.4c3.7-0.1,6.7-2,8.3-5.7c1.5-3.6,1-7.1-1.7-10C259.5,206.6,249,195.5,238.4,184.3z M266.3,221.1
			c-1,1-1.8,0.3-2.5-0.5c-9.6-10.2-19.3-20.4-28.9-30.7c-0.5-0.5-1.1-1.1-0.6-2c0.3-0.5,0.7-0.7,1.2-0.7c0.9,0,1.3,0.7,1.8,1.2
			c9.5,10.1,19,20.2,28.5,30.4C266.4,219.4,267.3,220.1,266.3,221.1z"/>
		<path d="M135,290.3c-15.9,0-31.8,0-47.7,0c-3.1,0-3.7,0.6-3.7,3.6c0,15.2-0.1,30.3-0.1,45.5c0,3,0.5,3.5,3.5,3.5
			c8,0,16.1,0,24.1,0c0,0,0,0,0,0c8,0,15.9,0,23.9,0c3.1,0,3.6-0.5,3.6-3.7c0-15.2,0-30.3,0-45.5C138.5,291,137.8,290.3,135,290.3z
			 M132.7,339.5c-7.3-0.1-14.6,0-21.8,0c-7.1,0-14.2,0-21.3,0c-1.8,0-2.7-0.3-2.6-2.4c0.1-13.6,0.1-27.3,0-40.9
			c0-1.9,0.7-2.4,2.5-2.4c14.5,0.1,28.9,0.1,43.4,0c2,0,2.3,0.7,2.3,2.5c-0.1,13.6-0.1,27.3,0,40.9
			C135.2,339.1,134.5,339.6,132.7,339.5z"/>
		<path d="M55.3,178.2c15.4,0,30.8,0,46.2,0c3.2,0,3.5-0.4,3.5-3.7c0-7.9,0-15.7,0-23.6c0,0,0,0,0,0c0-8-0.1-15.9,0-23.9
			c0-2.3-0.7-3.3-3.2-3.3c-15.6,0.1-31.1,0.1-46.7,0.1c-3.3,0-3.6,0.4-3.6,3.6c0,15.7,0,31.3,0,47C51.6,177.8,52,178.2,55.3,178.2z
			 M57,127.3c14.1,0,28.3,0.1,42.4,0c1.9,0,2.2,0.7,2.2,2.4c-0.1,7.2,0,14.4,0,21.6c0,0,0,0,0,0c0,7-0.1,14.1,0,21.1
			c0,1.9-0.5,2.4-2.4,2.4c-14-0.1-28-0.1-41.9,0c-1.7,0-2.3-0.5-2.3-2.3c0.1-14.4,0-28.8,0-43.2C55,127.8,55.4,127.2,57,127.3z"/>
		<path d="M213.6,244.3c-15.9,0-31.8,0-47.7,0.1c-2.9,0-3.4,0.5-3.4,3.4c0,8.5,0,16.9,0,25.4c0,0,0,0,0,0c0,8.6,0,17.2,0,25.9
			c0,2.3,0.9,3.2,3.1,3.2c15.9,0,31.8,0,47.7,0c2.2,0,3.3-0.8,3.3-3.1c0-17.2,0-34.5,0.1-51.7C216.6,245.3,215.7,244.3,213.6,244.3z
			 M210.9,298.8c-14.2-0.1-28.5-0.1-42.7,0c-1.7,0-2.3-0.5-2.3-2.3c0.1-15.5,0.1-31,0-46.4c0-1.7,0.5-2.3,2.3-2.3
			c14,0.1,28,0.1,41.9-0.1c2.4,0,3,0.7,3,3.1c-0.2,7.4-0.1,14.9-0.1,22.3c0,0,0,0,0,0c0,7.8,0,15.6,0,23.3
			C213.1,298.2,212.7,298.8,210.9,298.8z"/>
		<path d="M54.8,75.3c15.8,0,31.6,0,47.5,0c2.2,0,3-1,3-3c0-16.5,0-33,0-49.5c0-2.1-0.9-2.9-3.1-2.9c-15.7,0.1-31.3,0-47,0.1
			c-3.1,0-3.5,0.5-3.5,3.7c0,8,0,15.9,0,23.9c0,8.2,0.1,16.4,0,24.6C51.7,74.4,52.5,75.3,54.8,75.3z M57.5,23.3
			c14,0.1,28,0.1,41.9,0c2,0,2.4,0.7,2.3,2.5c-0.1,7.4,0,14.7,0,22.1c0,0,0.1,0,0.1,0c0,7.3-0.1,14.6,0,21.8c0,1.8-0.4,2.5-2.4,2.5
			c-13.8-0.1-27.6-0.1-41.4,0c-2.3,0-3-0.7-2.9-3c0.1-14.5,0.1-29,0-43.4C55.1,23.9,55.6,23.3,57.5,23.3z"/>
		<path d="M122.3,211.4c-7-0.1-12.6,5.4-12.7,12.5c-0.1,6.8,5.4,12.3,12.5,12.4c6.5,0.1,12.3-5.6,12.4-12.3
			C134.6,217.2,129.1,211.5,122.3,211.4z M122,232.4c-4.7,0-8.6-4-8.5-8.7c0.1-4.6,4-8.4,8.6-8.4c4.6,0,8.5,3.9,8.5,8.5
			C130.6,228.6,126.7,232.5,122,232.4z"/>
		<path d="M111.2,46.8c1.3-0.2,1.9-0.2,2.4-0.3c15.4-2.9,30.9-5.9,46.3-8.8c1.2-0.2,2.8-0.2,2.4-2.1c-0.3-1.9-1.7-1.6-3.2-1.3
			c-9.3,1.8-18.6,3.6-27.9,5.3c-6.6,1.3-13.1,2.6-19.7,3.8c-1.1,0.2-1.7,0.7-1.7,1.8C110.1,46.3,110.8,46.8,111.2,46.8z"/>
		<path d="M106.1,230.4c0.6-0.4,0.9-1,0.6-1.7c-0.2-0.8-0.7-1.4-1.6-1.3c-0.9,0.1-1.8,0.4-2.7,0.7c-12.5,3.8-24.9,7.6-37.4,11.4
			c-1,0.3-1.9,0.5-2.9,0.9c-0.7,0.3-1.1,1.1-0.9,1.9c0.3,0.9,0.9,1.4,2,1.3c0.3-0.1,0.7-0.2,1.1-0.3c13.5-4.1,27-8.2,40.5-12.3
			C105.3,230.7,105.7,230.6,106.1,230.4z"/>
		<path d="M117.2,242.6c-0.6,4.2-1.3,8.4-2,12.6c-1.4,9.4-2.8,18.9-4.3,28.3c-0.3,1.3,0.2,2.2,1.5,2.4c1.2,0.1,1.6-0.9,1.8-2
			c2.1-13.6,4.2-27.3,6.3-40.9c0.2-1.1,0.5-2.5-1.2-2.8C117.6,240,117.4,241.3,117.2,242.6z"/>
		<path d="M95.2,80.4c-0.6,0.9-0.3,1.7,0.6,2.4c0.4,0.3,0.8,0.6,1.2,0.8c8.9,5.7,17.9,11.4,26.8,17c1.5,0.9,3,1.8,4.5,2.7
			c1.3,0.7,2.7,0,2.7-1.3c0.1-1.2-0.9-1.5-1.7-2c-7.2-4.6-14.3-9.2-21.5-13.7c-3.4-2.2-6.8-4.2-10.2-6.4
			C96.7,79.2,95.8,79.4,95.2,80.4z"/>
		<path d="M85,82.1c0-1.2,0-2.5-1.6-2.6c-1.8,0-1.9,1.3-1.9,2.6c0,11.6,0,23.3,0,34.9c0,1.2,0.1,2.5,1.7,2.6
			c1.8,0.1,1.8-1.3,1.8-2.6c0-5.8,0-11.6,0-17.3c0,0,0,0,0,0C85,93.9,84.9,88,85,82.1z"/>
		<path d="M44.5,218.4c1,0.7,1.9,0.5,2.6-0.5c0.2-0.3,0.5-0.7,0.7-1.1c5.6-9.7,11.2-19.3,16.8-29c0.4-0.6,0.6-1.3,0.9-1.9
			c0-1.5-0.9-1.9-2-1.7c-1.1,0.2-1.4,1.2-1.8,1.9c-4,6.8-7.9,13.6-11.9,20.3c-1.8,3.2-3.7,6.4-5.5,9.5
			C43.7,216.9,43.5,217.7,44.5,218.4z"/>
		<path d="M94.9,184c-1.4,1-0.4,2,0.2,3c3.9,6,7.7,11.9,11.6,17.9c1.1,1.8,2.3,3.5,3.5,5.2c0.5,0.7,1.1,1,1.9,0.7
			c0.7-0.3,1.3-0.8,1.3-1.8c-0.2-0.3-0.4-0.8-0.6-1.2c-4.9-7.6-9.9-15.1-14.8-22.6C97.2,183.9,96.3,183,94.9,184z"/>
		<path d="M134.7,210.2c5-7,10.1-14,15.1-21c0.3-0.5,0.6-1,0.8-1.4c-0.1-1-0.6-1.5-1.4-1.7c-1.1-0.3-1.7,0.4-2.2,1.2
			c-5,7-10.1,14-15.1,21c-0.7,1-1.2,1.8,0,2.8C133.3,212.1,134,211.3,134.7,210.2z"/>
		<path d="M155.1,252c0.6-0.3,1-0.9,1-1.5c0.1-0.9-0.5-1.3-1-1.7c-6.1-4.7-12.2-9.3-18.3-14c-0.9-0.7-1.8-1-2.6,0
			c-0.9,1.1-0.4,2,0.6,2.7c1.7,1.3,3.3,2.6,5,3.8c4.4,3.3,8.8,6.7,13.2,10C153.5,251.9,154.2,252.5,155.1,252z"/>
		<path d="M156.5,289.6c-4,2-8,4-12.1,6c-0.8,0.4-1.2,1.2-0.9,2.1c0.3,0.8,0.9,1.2,2.2,1.1c3.9-2,8.2-4.1,12.5-6.4
			c0.9-0.5,0.6-1.5,0.2-2.2C158,289.5,157.4,289.2,156.5,289.6z"/>
		<path d="M111.4,145.9c3.6-0.7,7.1-1.3,10.6-2c0.9-0.2,1.2-0.8,1-1.7c-0.2-1-0.6-1.8-1.8-1.6c-3.4,0.6-6.9,1.2-10.3,1.9
			c-1.1,0.2-1.5,1-1.3,2C109.9,145.4,110.5,146,111.4,145.9z"/>
		<path d="M184.3,86.6c-27,0.2-48,21.4-47.8,48.4c0.1,26.3,21.9,47.6,48.5,47.4c26.7,0.1,47.9-20.9,48.1-47.4
			C233.2,107.8,211.5,86.4,184.3,86.6z M183.4,179.2c-24.3-0.5-44-21.2-43.6-45.7c0.4-24.6,21.1-44.2,46-43.7
			c24.2,0.5,44.5,21.2,44,45.1C229.3,160.4,209.1,179.7,183.4,179.2z"/>
		<path d="M119,319.3c2-2.2,3.1-4.6,3.4-7.3c0.4-4.3-0.7-8.2-4.3-10.9c-3.3-2.5-7-3-10.9-1.4c-6.7,2.8-8.9,11.8-4.3,17.8
			c1.1,1.5,1.3,1.9-0.5,2.9c-5,2.7-7.8,6.9-7.9,12.7c0,1.4,0.2,2.6,1.8,2.7c1.6,0.1,1.8-1.1,1.8-2.4c0.2-4.1,2.2-7.1,5.6-9.2
			c8.9-5.5,19.2-1.1,21.2,9.1c0.2,1.2,0.9,1.7,2.1,1.7c1.2-0.1,1.7-0.8,1.7-2c0-2.4-0.5-4.6-1.6-6.7
			C125.2,323.1,122.4,321.1,119,319.3z M111.2,318.4c-3.9-0.1-7-3.7-7-8.3c0-4.2,3.2-7.5,7.2-7.4c4.3,0.1,7.3,3.3,7.2,7.9
			C118.6,315.2,115.4,318.5,111.2,318.4z"/>
		<path d="M63.2,170.2c1.5,0.1,2-0.8,2.1-2.2c0.2-5.5,3.3-9,8.3-10.8c8.2-3,19.1,1.8,18.7,10.3c-0.1,1.3,0.8,2,2.1,1.9
			c1.4-0.1,1.8-1,1.7-2.3c-0.3-5.8-3.1-10-8.2-12.6c-1.4-0.7-1.9-1.2-0.7-2.7c1.7-2.1,2.3-4.8,2.3-7.5c0-6.7-5.2-11.9-11.6-11.4
			c-4.3,0.3-7.5,2.4-9.3,6.3c-2,4.5-1.5,8.9,1.4,12.8c1.1,1.4,0.8,1.9-0.6,2.6c-5.1,2.8-7.8,7.1-8.1,13
			C61.4,169,61.7,170.1,63.2,170.2z M78.5,136.9c4.1,0,7.4,3.6,7.3,7.9c-0.1,4.4-3.4,8-7.4,7.9c-4-0.1-7.3-3.9-7.2-8.4
			C71.4,140,74.5,136.9,78.5,136.9z"/>
		<path d="M174.3,285.3c5,0,10,0,15.1,0c0,0,0-0.1,0-0.1c5.1,0,10.2,0,15.3,0c0.8,0,2,0.3,2-0.8c0-1.1-1.1-1-1.9-1
			c-10.1,0-20.2,0-30.4,0c-0.9,0-2.1-0.2-2.1,1.1C172.4,285.6,173.6,285.3,174.3,285.3z"/>
		<path d="M204.8,290.3c-10.2,0-20.4,0-30.6,0c-0.8,0-1.9-0.3-1.9,1c0.1,1.2,1.2,0.9,2,0.9c5.1,0,10.2,0,15.3,0c0,0,0,0,0,0
			c5,0,10,0,15,0c0.9,0,2.1,0.3,2.1-1C206.8,290.1,205.6,290.3,204.8,290.3z"/>
		<path d="M192.4,263c-0.1,0.9,0.5,1.2,1.3,1.2c4.1,0,8.2,0,12.3,0c0.7,0,1.4-0.2,1.4-1.1c0-0.9-0.7-1.1-1.4-1.1c-2,0-4,0-6,0
			c0,0,0,0,0,0c-2.1,0-4.2,0-6.3,0C193,262.1,192.5,262.3,192.4,263z"/>
		<path d="M206.1,269.2c-4.1,0-8.2,0-12.3,0c-0.7,0-1.4,0.4-1.3,1.2c0.1,0.7,0.7,0.8,1.3,0.8c2,0,4,0,6,0c0,0,0,0,0,0
			c2.1,0,4.2,0,6.3,0c0.6,0,1.3-0.2,1.3-0.9C207.5,269.4,206.8,269.2,206.1,269.2z"/>
		<path d="M205.9,276.2c-4,0-8,0-12,0c-0.8,0-1.4,0.4-1.3,1.2c0,0.7,0.7,0.9,1.3,0.9c2,0,4,0,6,0c0,0,0,0,0,0c2,0,4,0,6,0
			c0.7,0,1.5-0.1,1.4-1C207.3,276.3,206.6,276.2,205.9,276.2z"/>
		<path d="M93.8,58c-10.1,0-20.3,0-30.4,0c-0.8,0-2-0.2-2,0.9c-0.1,1.3,1.2,1.1,2,1.2c5,0,10,0,15.1,0c0,0,0,0,0-0.1
			c5.1,0,10.2,0,15.3,0c0.8,0,2.2,0.3,2.1-1.1C95.8,57.7,94.6,58,93.8,58z"/>
		<path d="M93.8,64.9c-5,0-10,0-15,0c0,0,0,0,0,0c-5.1,0-10.2,0-15.3,0c-0.9,0-2.2-0.4-2.1,1c0,1.3,1.4,0.9,2.2,0.9
			c10.1,0,20.2,0,30.3,0c0.8,0,2,0.3,1.9-0.9C95.8,64.7,94.6,64.9,93.8,64.9z"/>
		<path d="M94.8,50.8c-1.8,0-3.7,0-5.5,0c0,0,0,0,0,0c-2,0-4,0-6,0c-0.8,0-1.7,0.2-1.6,1.1c0,0.9,0.9,1.1,1.7,1.1
			c3.8,0,7.7,0,11.5,0c0.7,0,1.5-0.1,1.5-1C96.4,51,95.6,50.8,94.8,50.8z"/>
		<path d="M81.6,38.1c0,0.8,0.8,1,1.5,1c4,0,8,0,12,0c0.8,0,1.6-0.2,1.5-1.2c-0.1-1-0.9-1.1-1.7-1.1c-1.9,0-3.8,0-5.8,0c0,0,0,0,0,0
			c-2,0-4,0-6,0C82.3,36.9,81.5,37.1,81.6,38.1z"/>
		<path d="M95.1,44c-4,0-8,0-12,0c-0.7,0-1.4,0.2-1.4,1c0.1,0.8,0.8,0.9,1.5,0.9c1.9,0,3.8,0,5.7,0c2,0,4,0,6,0c0.7,0,1.4-0.1,1.5-1
			C96.5,44,95.7,44,95.1,44z"/>
		<path d="M208.8,110.3c-7.9,0.1-15.7,0-23.6,0c0,0,0,0,0,0c-8,0-16.1,0-24.1,0c-2.3,0-3.3,0.8-3.3,3.3c0.1,15.1,0.1,30.1,0.1,45.2
			c0,3.2,0.5,3.7,3.8,3.7c15.7,0,31.3,0,47,0c2.3,0,3.4-0.9,3.3-3.2c0-15.2,0-30.5,0.1-45.7C212.1,111.2,211.2,110.2,208.8,110.3z
			 M205.7,159.1c-6.9-0.1-13.9,0-20.9,0c0,0,0,0,0,0c-7.1,0-14.2,0-21.4,0c-1.7,0-2.3-0.4-2.3-2.2c0.1-13.6,0.1-27.1,0-40.7
			c0-2,0.6-2.6,2.6-2.6c14.2,0.1,28.3,0.1,42.5,0c1.9,0,2.4,0.6,2.4,2.4c-0.1,13.4,0,26.8,0.1,40.2
			C208.7,158.6,208,159.2,205.7,159.1z"/>
		<path d="M149.6,131.7c-1.4,0.4-2.9,0.8-4.3,1.2c-1,0.3-1.4,0.9-1.1,1.9c0.3,0.8,0.7,1.5,1.8,1.4c1.5-0.5,3-0.9,4.5-1.4
			c1.1-0.4,0.9-1.2,0.7-2.1C151,131.9,150.6,131.4,149.6,131.7z"/>
		<path d="M199.1,150.4c-4.9,0-9.9,0-14.8,0c0,0,0,0,0,0c-4.8,0-9.7,0-14.5,0c-0.8,0-2.2-0.4-2.2,0.9c-0.1,1.3,1.2,1.1,2.1,1.1
			c9.9,0,19.7,0,29.6,0c0.9,0,2.1,0.2,2.1-1.1C201.2,150,200,150.4,199.1,150.4z"/>
		<path d="M200.8,135.7c-3.8,0-7.7,0.1-11.5,0.1c-0.6,0-1.5,0-1.4,1c0,0.9,0.8,1,1.5,1c1.9,0,3.8,0,5.8,0c0,0,0,0,0,0
			c1.9,0,3.8,0,5.8,0c0.7,0,1.4-0.2,1.5-1C202.4,135.8,201.6,135.7,200.8,135.7z"/>
		<path d="M200.9,128.3c-3.9,0-7.8,0-11.8,0.1c-0.7,0-1.3,0.3-1.3,1.1c0,0.9,0.7,1.1,1.4,1.1c2,0,4,0,6,0c1.8,0,3.7,0,5.5,0
			c0.7,0,1.6,0.1,1.7-1C202.5,128.6,201.8,128.3,200.9,128.3z"/>
		<path d="M200.6,142.8c-1.8,0-3.7,0-5.5,0c0,0,0,0,0,0c-1.9,0-3.8,0-5.8,0c-0.7,0-1.7-0.1-1.7,1c0,0.9,0.8,1.1,1.6,1.1
			c3.8,0,7.5,0,11.3,0c0.8,0,1.6-0.2,1.5-1.2C202.1,143,201.4,142.8,200.6,142.8z"/>
		<path d="M169.8,124.1h4.8c0.6,0,1-0.5,1-1c0-0.6-0.5-1-1-1h-4.8c-0.6,0-1,0.5-1,1C168.8,123.6,169.2,124.1,169.8,124.1z"/>
		<path d="M178.7,124.1h4.8c0.6,0,1-0.5,1-1c0-0.6-0.5-1-1-1h-4.8c-0.6,0-1,0.5-1,1C177.7,123.6,178.2,124.1,178.7,124.1z"/>
		<path d="M187.7,124.1h4.8c0.6,0,1-0.5,1-1c0-0.6-0.5-1-1-1h-4.8c-0.6,0-1,0.5-1,1C186.7,123.6,187.1,124.1,187.7,124.1z"/>
		<path d="M201.4,122.1h-4.8c-0.6,0-1,0.5-1,1c0,0.6,0.5,1,1,1h4.8c0.6,0,1-0.5,1-1C202.4,122.5,202,122.1,201.4,122.1z"/>
		<path d="M170.4,145.9h11.5c1.5,0,2.8-1.3,2.8-2.8v-12c0-1.5-1.3-2.8-2.8-2.8h-11.5c-1.5,0-2.8,1.3-2.8,2.8v12
			C167.6,144.7,168.8,145.9,170.4,145.9z M169.5,132.5c0-1.2,1-2.2,2.2-2.2h8.9c1.2,0,2.2,1,2.2,2.2v9.3c0,1.2-1,2.2-2.2,2.2h-8.9
			c-1.2,0-2.2-1-2.2-2.2V132.5z"/>
		<path d="M174.7,257.7h4.8c0.6,0,1-0.5,1-1s-0.5-1-1-1h-4.8c-0.6,0-1,0.5-1,1S174.1,257.7,174.7,257.7z"/>
		<path d="M183.6,257.7h4.8c0.6,0,1-0.5,1-1s-0.5-1-1-1h-4.8c-0.6,0-1,0.5-1,1S183.1,257.7,183.6,257.7z"/>
		<path d="M192.6,257.7h4.8c0.6,0,1-0.5,1-1s-0.5-1-1-1h-4.8c-0.6,0-1,0.5-1,1S192,257.7,192.6,257.7z"/>
		<path d="M201.6,257.7h4.8c0.6,0,1-0.5,1-1s-0.5-1-1-1h-4.8c-0.6,0-1,0.5-1,1S201,257.7,201.6,257.7z"/>
		<path d="M175.3,279.6h11.5c1.5,0,2.8-1.3,2.8-2.8v-12c0-1.5-1.3-2.8-2.8-2.8h-11.5c-1.5,0-2.8,1.3-2.8,2.8v12
			C172.5,278.3,173.7,279.6,175.3,279.6z M174.4,266.1c0-1.2,1-2.2,2.2-2.2h8.9c1.2,0,2.2,1,2.2,2.2v9.3c0,1.2-1,2.2-2.2,2.2h-8.9
			c-1.2,0-2.2-1-2.2-2.2V266.1z"/>
		<path d="M63,31.7h5c0.6,0,1.1-0.5,1.1-1.1s-0.5-1.1-1.1-1.1h-5c-0.6,0-1.1,0.5-1.1,1.1S62.4,31.7,63,31.7z"/>
		<path d="M72.4,31.7h5c0.6,0,1.1-0.5,1.1-1.1s-0.5-1.1-1.1-1.1h-5c-0.6,0-1.1,0.5-1.1,1.1S71.8,31.7,72.4,31.7z"/>
		<path d="M81.8,31.7h5c0.6,0,1.1-0.5,1.1-1.1s-0.5-1.1-1.1-1.1h-5c-0.6,0-1.1,0.5-1.1,1.1S81.2,31.7,81.8,31.7z"/>
		<path d="M91.1,31.7h5c0.6,0,1.1-0.5,1.1-1.1s-0.5-1.1-1.1-1.1h-5c-0.6,0-1.1,0.5-1.1,1.1S90.6,31.7,91.1,31.7z"/>
		<path d="M63.5,53.5H75c1.5,0,2.8-1.3,2.8-2.8v-12c0-1.5-1.3-2.8-2.8-2.8H63.5c-1.5,0-2.8,1.3-2.8,2.8v12
			C60.7,52.3,62,53.5,63.5,53.5z M62.7,40.1c0-1.2,1-2.2,2.2-2.2h8.9c1.2,0,2.2,1,2.2,2.2v9.3c0,1.2-1,2.2-2.2,2.2h-8.9
			c-1.2,0-2.2-1-2.2-2.2V40.1z"/>
	</g>
	<g>
		<path class="st4" d="M418.4,69.4c-3.4-2.3-6.9-4.4-10-7.1c-3-2.6-6-5.2-9.1-7.8C403.5,62.3,410.1,67,418.4,69.4z"/>
		<path class="st7" d="M440.8,131.7c-7,20.4-15.5,40.4-20.8,61.4c-1.3,5.1-2.5,10.3-3.7,15.4c-0.2,2.1,1.5,2.3,2.7,2.9
			c6,3.1,6,3.1,8.3-2.9c6-15.4,13.4-30.1,21.4-44.5c1.5-2.7,1.5-4.5-1.1-6.3c-1.7-1.2-3.1-2.6-4.7-4c-1.5-1.4-1.5-2.4,0.8-2.8
			c0.6-0.1,1.2-0.3,1.8-0.4c6.6-1,5.8-1.2,6.7-7.5c1.1-7.5-3.6-9.8-8.5-12.6C442.1,129.6,441.4,130,440.8,131.7z"/>
		<path class="st7" d="M356.3,178.7c0.4-4.3,0.8-8,1.2-11.8c1.6,3.2,1.8,6.6,0.7,9.5c-1.7,4.4,0.4,7,3.4,10.2
			c1.3-5.8,2.5-11.2,3.8-16.6c0.4-1.5,0.9-3,1.1-4.5c0.8-4.8,2.8-8.5,8.1-9.6c2.3-0.5,3.2-1.8,0.4-3.2c-1.8-0.9-2.7-2.1-0.3-4.7
			c-10.2,3.7-19.2,6.6-22.2,17.6C350.5,172.6,350.4,173.1,356.3,178.7z"/>
		<path class="st4" d="M419.9,235.6c2.2,1.6,2.9,0.7,3.2-1.5c0.2-1.7,0.4-3.3,0.6-5c0.8-8.4,0.8-8.4-6.6-12.2
			c-4.1-2.1-6.9-5.6-9.9-8.8c-4.1-4.4-8-8.9-12.1-13.4c-0.8-0.9-1.6-2-2.8-2.1c-10.1-0.6-20.3-1.6-28.8,5.8c-0.8,0.7-2.7,1-1.7,2.6
			c0.8,1.3,2.3,0.5,3.3,0c7.2-3.7,14.7-4.5,23.1-3.6c-2.3,2.7-5.4,3.8-7.7,5.9c-1.3,1.2-4.5,2-2.8,4.6c1.8,2.7,3.5-0.3,5.1-1
			c2.7-1.2,5.1-3.1,9.1-3.9c-3.1,3.8-6.8,5-9.9,7c-1.3,0.9-2.8,1.6-1.6,3.6c0.8,1.4,1.5,2.2,3.4,1.2c2.9-1.5,5.7-3.5,10-4
			c-2.7,3.1-5.4,4.1-7.9,5.4c-3,1.5-2.7,3.1-0.8,5.2c1.7,1.8,3.8,2.4,6.2,2.4c0.9,0,2.3,0.5,2.4-0.8c0.1-1.1-0.8-1.9-2.2-1.9
			c-0.4,0-0.9-0.2-1.4-0.3c2.6-3.4,4.1-3.4,6.3-0.1c3.1,4.7,6.5,8.8,13,7.7c1-0.2,1.5,0.6,2.2,1.1
			C414.2,231.6,417.1,233.5,419.9,235.6z"/>
		<path class="st7" d="M381,156.2c-0.2,0.1-0.4,0.3-0.6,0.3c-7.8,1.7-10.8,7-11.6,14.5c-0.7,5.9-2.4,11.7-3.8,17.6
			c-0.3,1.4-0.2,2.7,0.9,3.6c1.2,1,2.2-0.3,3.2-0.8c2.2-1.1,4.4-2.5,7-2.8c1.2-0.1,1.6-0.7,1.9-1.8c4.4-18.2,11.5-35.4,19.5-52.2
			c0.1-0.3,0.2-0.7,0.4-1.7c-3.3,3-6.5,4.9-9.6,7c-2.8,1.8-5.6,3.7-7.9,6.2c-3.4,3.8-3.5,3.9,0.7,6.6
			C383,154.2,383.3,155.1,381,156.2z"/>
		<path class="st4" d="M334.2,167.2c2.6-0.1,4.2,0.8,5.7,2.9c6,8.4,12.2,16.7,18.3,25.1c1,1.4,1.7,2.4,3.6,1
			c2.1-1.5,0.6-2.4-0.1-3.4c-6.2-8.7-12.5-17.4-18.6-26.2c-1.6-2.2-3.4-3.1-6.1-3c-19.1,0.9-38.2,1.8-57.4,2.7c-1,0-2.2-0.2-3,1.5
			c10.1,0,19.9,0.1,29.8,0C315.7,167.6,324.9,167.4,334.2,167.2z"/>
		<path class="st7" d="M367.2,233.7c-7.5,0.1-7.5-0.1-7.4,7.4c0,2.5,0,5.1,0,8.8c1.9,11.5-3.7,23.1-5.6,35.3
			c-2,12.4-4.8,24.8-7.2,37.1c-0.7,3.7,5.2,8.9,8.9,7.8c1.4-0.4,1.5-1.7,1.8-2.8c2.9-9.9,4.4-20.2,6-30.4c3.1-19.6,5.2-39.3,7.3-59
			C371.3,234.5,370.4,233.6,367.2,233.7z"/>
		<path class="st4" d="M383.7,230.5c1.1-0.3,1.7-1.1,2.3-1.9c0.6-0.7,0.6-1.4-0.2-1.8c-5.9-3.7-6.8-10.9-11-15.8
			c-1.7-2-3.3-4.2-4.6-6.4c-1.3-2.1-2.8-1.6-4.3-0.7c-1.9,1.2-0.1,2.3,0.5,3.2c5.2,7.2,10.4,14.4,15.7,21.6
			C382.6,229.4,383.2,230,383.7,230.5z"/>
		<path class="st7" d="M355.9,246.5c0.4-1.6-0.1-3.1-1-4.4c-1.6-2.2-3.4-4.3-4.9-6.7c-1.6-2.6-4.1-1.8-6.2-1.5
			c-2,0.3-0.8,2.4-0.8,3.7c-0.2,8.7-3.5,15.8-10.1,21.5c-2.6,2.3-5.8,3.3-9.8,3.4c5.8,4.3,11.3,7.6,17.6,9.6c5.9,1.9,9.4,0,10.8-5.9
			C353.2,259.6,354.5,253,355.9,246.5z"/>
		<path class="st4" d="M331.4,253.4c4-4.9,6.6-10.3,6.6-16.7c0-2.2-0.9-3.3-3.3-3.2c-2.6,0.1-5.3,0-7.9,0c-2.8,0-4.8-1.2-5.8-3.9
			c-0.9-2.6,1.2-3.6,2.6-4.9c2.6-2.3,5.5-4.3,7.6-7.1c0.7-1,1.7-2.1,0.8-3.2c-1.1-1.3-2.2,0-3.1,0.6c-4.2,3-8.3,6.1-13.2,8.1
			c2-3.3,5-5.6,7.7-8.2c1.9-1.8,3.9-3.6,5.7-5.5c1.1-1.2,1.7-2.7,0.2-4.2c-1.4-1.4-2.7-0.4-3.8,0.5c-3.7,2.9-7.4,5.8-11.1,8.7
			c-1.5,1.1-3,2.2-5.4,2.9c0.7-2.6,2.2-4,3.5-5.4c3.2-3.6,6.6-7,9.8-10.6c1.1-1.2,2.4-2.7,0.9-4.4c-1.7-1.9-3.4-0.8-4.7,0.4
			c-3.8,3.4-7.4,6.8-11.1,10.3c-0.8,0.7-1.6,1.4-2.5,2.1c-0.5,0.4-1.2,1-1.9,0.4c-0.6-0.6-0.3-1.3,0.1-2c1.7-3.2,4.1-5.9,6.4-8.7
			c1.2-1.5,2.4-3,3.4-4.7c0.7-1.1,0.6-2.3-0.4-3.3c-1.1-1-2.3-0.7-3.2,0.2c-4.5,4.5-9,9-12.2,14.6c-1.4,2.4-1.1,4.9,0.4,7.2
			c4.6,6.9,9.3,13.8,17.2,17.5c1.4,0.6,2.3,1.6,2.6,3.2c1.8,7.6,6.7,13.4,11.5,19.3C329.4,254.4,330.3,254.8,331.4,253.4z"/>
		<path class="st7" d="M490.7,168.5c-1.3-10.7-5.9-17.5-16.3-20.8c-5.7-1.8-11.1-4.7-16.5-7.2c-1.7-0.8-2.4-0.5-2.4,1.4
			c0,0.7-0.1,1.4-0.1,2.2c-0.2,4.8,1.3,10.7-8.2,9.3c0.3,0.4,0.6,0.9,0.9,1.3c0.9,0.7,1.9,1.4,2.8,2.2c5,4.1,3.9,3.3,1.4,8.1
			c-8.1,15.3-15.8,30.8-22.9,46.6c-1.2,2.7-0.8,3.8,2.1,4.8c7.8,2.6,15.4,5.4,23.1,8.2c2.7,1,3.3,0.1,3.3-2.5
			c0.2-7.1-0.5-14.2-0.9-21.3c-0.4-9.1,0.6-18,4.5-26.4c3.1-6.8,7.7-12.3,14.5-16.4c-11.5,17.1-16.4,35.5-11.5,56.6
			c2.4-4.5,4.4-8.3,6.4-12c0.1,5.4-1.5,10.5-2.4,15.6c-0.4,2-1,4-1.2,6c-0.6,4.4,0.2,5.3,4.6,4.7c5.7-0.7,10.7,0.9,15.3,4.1
			c0.6,0.4,1,0.9,2.1,1.8c-4.6,0-8.5-1.8-13.1-1c4.3,4.4,7.5,9.2,8.1,15.4c-3.3-4.1-6.9-8-11.2-11.1c-3.4-2.4-7-4.2-10.9-5.5
			c-9.5-3.1-18.9-6.4-28.3-9.7c-5-1.8-5-1.8-5,3.3c0,8.5-0.9,16.8-4.3,24.7c-0.8,1.9-0.6,2.8,1.4,3.4c17,5.1,33.8,11.3,51.2,15.1
			c1.7,0.4,3.6,0.6,5.4,0.5c8.7-0.5,10.4-1.9,11.7-9.4c2.3-13.5,2.1-27.1,1.1-40.7C493.9,202.7,492.7,185.6,490.7,168.5z"/>
		<path class="st7" d="M402.4,290c-8,1.2-16.1,0.9-24.1-0.1c-4.2-0.5-4.2-0.4-4.2,4.2c-0.7,2.7,0.8,3.7,3.8,4.1
			c8.4,1,16.8,0.7,25.2,0.3c4-0.2,2.9-2.8,2.8-5.1C405.8,291.1,405.4,289.5,402.4,290z"/>
		<path class="st7" d="M459.1,277.3c-13.4-5.9-26.8-12.1-40.6-16.9c-3.3-1.2-4.7-3-4.5-6.3c0.2-4.1,0.4-8.2,0.5-12.3
			c0-0.8,0.2-1.7-0.1-2.5c-0.3-1.1-1.5-1.8-2.5-1.8c-1-0.1-0.9,1.2-1,2c-1,5.6-1.2,11.2-1.3,17.3c1.1,22.7,4.7,45.3,11.8,67.3
			c2,6.2,5.5,8.5,11.7,8.6c13.1,0.1,25.9-1.5,38.4-5.4c2-0.6,3-1.4,2.4-3.8c-3.1-13.1-5.7-26.3-9.2-39.3
			C464.1,280.8,462.3,278.7,459.1,277.3z M460.2,284.9c-7.3,1.5-14.6,2.5-21.6,2.9c-2,0-3.6,0-5.2,0c-1.8,0-1.6-1.5-1.8-2.6
			c-0.3-1.3,0.9-1.2,1.7-1.3c8.9-0.4,17.7-1.3,26.4-2.7c1.2-0.2,2.4-0.3,2.6,1.5C462.5,284.5,461.4,284.7,460.2,284.9z"/>
		<path class="st4" d="M381.2,78.5c1.1,0.1,2.1,0.4,3.1,0.8c0.8,0.3,2.1,0.7,1.7,1.9c-0.3,1-1.4,0.4-2.2,0.5
			c-1.2,0.1-3.3-1.7-3.4,1.2c-0.1,1.9,0.3,3.9,3.2,3.3c1.3-0.3,3.2,0.3,3.1,1.7c-0.1,1.5-1.6,2.6-3.4,2.4c-0.6,0-1.1-0.6-1.7,0
			c-0.2,5.6,1,10.9,3.6,15.9c2.2,4.3,4.5,8.5,6.9,12.7c3.2,5.6,6.4,6.9,12.7,5c8.8-2.7,16.1-7.9,22.5-14.6
			c-1.1,8.6-10.8,20.9-19.9,24.8c-2.5,1.1-4.1,2.5-5.1,5.1c-0.8,2.1-2.5,3.8-3.9,5.6c-1.2,1.6-1.4,2.6,1,3.2
			c1.7,0.4,3.5,0.9,4.9,2.9c-2.4,0.5-4.3-0.3-6.1-0.6c-2.8-0.5-3.7,0.9-3.4,3.1c1,6.2,2.6,12.2,6,17.6c1.5,2.3,3.1,2.5,5.4,1.4
			c7.2-3.3,13.4-8,18.9-13.7c1.8-1.8,3.5-4.7,2.8-6.7c-0.8-1.9-4.1-0.7-6.3-0.5c-1.9,0.1-3.8,0.5-5.8,0.9c0.4-2,2-2.6,3.5-3.2
			c1.2-0.4,2.6-0.9,3.9-0.8c6.4,0.5,9-3,10.8-8.5c1.7-5.3,3.3-10.1,1.4-15.9c-2.3-7.2-2.2-14.9-2-22.6c0-1.5,0.3-2.3,2.1-2.7
			c6.7-1.5,11.6-12.1,8.6-18.4c-1.6-3.4-5.3-4.7-7.5-1.6c-4.9,6.6-10.8,4.8-16.7,2.9c-7-2.2-14-4.4-21.4-1.9
			c-0.7,0.2-1.8,0.4-2.2-0.6c-0.5-1.3,0.6-1.7,1.5-2c1.9-0.7,3.9-1.3,6.3-2.1c-6.5-4.9-12.1-10.1-16.7-16.4c-1.1-1.5-2.1-1.5-3.1,0
			c-3.8,5.5-5,11.6-4.7,18.2C379.4,78,380.1,78.4,381.2,78.5z M438.8,81.7c0.6-0.2,1.2-0.3,1.7,0.2c0.2,0.2,0.3,0.9,0.2,0.9
			c-2.5,1-3,4.7-6.7,5.1C435.1,84.9,436,82.5,438.8,81.7z M399.6,86.4c0.5-1.3,1.9-1.8,3.3-1.8c1.9,0,3.8,0.1,5.6,1.2
			c-1.4,1.2-2.5,2.3-3.9,3.3c-1.2,0.9-2.6,0.6-3.6-0.4C400.4,88.1,399.2,87.5,399.6,86.4z M405.4,106.3c-2.1,4.4-8.5,7-12.3,5.3
			c-0.8-0.4-1.6-0.8-1.6-1.7c0-1,0.8-1.1,1.5-1.1C397.2,108.9,401.3,108.1,405.4,106.3z M387.4,97.9c0.4-2.7,1.3-5.3,2.1-8.4
			c1.5,1.9,0.8,3.5,0.6,4.9c-0.6,5.7-0.7,5.7,5.2,7.3C390.4,103.6,386.8,101.7,387.4,97.9z"/>
		<path d="M498.7,192c-1-10.8-2.1-21.6-4.5-32.1c-1.6-6.9-5.6-11.7-12.2-14.5c-7.3-3.1-14.8-5.9-21.7-9.9c-1.3-0.8-2.9-1.2-3.9-2.8
			c1.3-1.2,2.7-2.4,3.9-3.7c6.2-6.6,8.4-14.9,4.3-22.6c-5.7-10.7-7.3-22-8.9-33.5c-0.9-7.1-2.6-14-5.9-20.4
			c-8.5-16.8-27.5-24.2-46.8-18.6c-10.1,2.9-18.2,8.9-24.9,16.6c-7.4,8.7-9.2,18.9-4.4,29.3c5,10.8,4.5,21.1-0.1,31.7
			c-1.6,3.6-3,7.4-4.2,11.1c-2.1,6.5-0.4,12.1,4.8,16.5c0.5,0.5,1,1,1.9,1.7c-4.5,2-8.7,4.2-13,5.8c-8.1,3-13.1,8.6-15.3,16.9
			c-0.1,0.6-0.4,1.1-0.6,1.7c0,0.1-0.2,0.1-0.8,0.6c-2.7-5.4-7.3-5.2-12.4-4.9c-18.2,0.9-36.3,1.5-54.5,2.1
			c-2.8,0.1-4.9,0.9-6.2,3.4c-1.3,2.4,0,4.4,1.4,6.2c6.3,8.4,12.5,16.8,18.8,25.2c1.2,1.6,1.6,2.9,0.4,4.8
			c-2.9,4.5-2.5,9.2,0.5,13.6c4.4,6.5,9.1,12.7,15.7,17.3c2.9,2,4.2,4.6,3.9,8.3c-0.4,5.3,0.1,10.6,0.9,15.8
			c0.7,4.1,2.4,7.5,5.9,9.9c6.4,4.5,12.9,8.8,20.9,10.3c1.2,0.2,2.4,0.4,3.6,0.4c4.7-0.1,4.8-0.1,3.9,4.4
			c-2.5,12.7-4.7,25.5-7.7,38.2c-1.4,5.9,0.4,9.5,5.3,12.1c2.1,1.1,2.8,2.6,2.8,4.9c0,1.9,0.1,3.8,0.2,5.6h21.8v-5.7h32.8v5.7H464
			c0.1-0.6,0.3-1.1,0.8-1.5c0-1.9,1.5-3.8,3.8-3.1c0.4,0.1,0.9,0.2,1.3,0.3c0.9-0.5,1.7-1,2.6-1.4c0-0.1,0-0.1,0-0.2
			c-0.4-3,0.6-4.5,3.4-5.6c5.2-2,5.1-2.1,4.1-7.5c-3-15.5-6.6-30.8-10.2-46.1c-1-4.4-1-4.5,3.4-3.6c5.6,1.1,11.1,1.9,16.7,0
			c4.7-1.6,7.7-4.6,9.3-9.3c2.2-6.5,2.7-13.2,2.7-19.9C502.1,227.5,500.3,209.8,498.7,192z M452.1,143.1c-0.9,6.3-0.1,6.4-6.7,7.5
			c-0.6,0.1-1.2,0.3-1.8,0.4c-2.3,0.4-2.2,1.4-0.8,2.8c1.5,1.4,3,2.8,4.7,4c2.6,1.8,2.6,3.6,1.1,6.3c-7.9,14.4-15.4,29.1-21.4,44.5
			c-2.3,6-2.3,6-8.3,2.9c-1.2-0.6-3-0.8-2.7-2.9c1.2-5.1,2.4-10.3,3.7-15.4c5.3-21,13.8-41,20.8-61.4c0.6-1.7,1.2-2.1,2.8-1.1
			C448.5,133.4,453.3,135.7,452.1,143.1z M408.4,62.3c3.1,2.7,6.6,4.8,10,7.1c-8.3-2.4-14.9-7.1-19.1-14.9
			C402.3,57.1,405.4,59.7,408.4,62.3z M384.1,58.6c1-1.4,2-1.5,3.1,0c4.6,6.2,10.2,11.5,16.7,16.4c-2.5,0.8-4.4,1.4-6.3,2.1
			c-0.9,0.3-2,0.7-1.5,2c0.4,1,1.5,0.8,2.2,0.6c7.4-2.5,14.4-0.3,21.4,1.9c5.9,1.9,11.8,3.7,16.7-2.9c2.2-3,5.9-1.8,7.5,1.6
			c3,6.3-1.9,16.9-8.6,18.4c-1.7,0.4-2,1.1-2.1,2.7c-0.1,7.6-0.3,15.3,2,22.6c1.9,5.8,0.3,10.6-1.4,15.9c-1.7,5.6-4.4,9.1-10.8,8.5
			c-1.3-0.1-2.6,0.4-3.9,0.8c-1.5,0.5-3.1,1.2-3.5,3.2c2-0.3,3.9-0.7,5.8-0.9c2.2-0.1,5.5-1.4,6.3,0.5c0.8,1.9-1,4.8-2.8,6.7
			c-5.4,5.7-11.6,10.4-18.9,13.7c-2.3,1.1-4,0.8-5.4-1.4c-3.4-5.4-5.1-11.4-6-17.6c-0.3-2.2,0.6-3.6,3.4-3.1
			c1.8,0.3,3.7,1.2,6.1,0.6c-1.5-2-3.3-2.5-4.9-2.9c-2.4-0.6-2.2-1.6-1-3.2c1.4-1.8,3-3.6,3.9-5.6c1-2.6,2.6-4,5.1-5.1
			c9.1-3.9,18.8-16.2,19.9-24.8c-6.3,6.7-13.6,11.9-22.5,14.6c-6.3,1.9-9.4,0.6-12.7-5c-2.4-4.2-4.7-8.4-6.9-12.7
			c-2.6-5-3.7-10.4-3.6-15.9c0.7-0.6,1.2,0,1.7,0c1.8,0.2,3.4-0.9,3.4-2.4c0.1-1.4-1.7-2-3.1-1.7c-3,0.6-3.3-1.4-3.2-3.3
			c0.1-2.9,2.2-1,3.4-1.2c0.8-0.1,1.9,0.5,2.2-0.5c0.4-1.2-0.9-1.6-1.7-1.9c-1-0.4-2.1-0.7-3.1-0.8c-1.1-0.1-1.8-0.5-1.9-1.7
			C379.1,70.3,380.3,64.1,384.1,58.6z M381,152.8c-4.2-2.7-4.1-2.8-0.7-6.6c2.3-2.5,5.1-4.4,7.9-6.2c3.1-2,6.3-4,9.6-7
			c-0.3,1-0.3,1.4-0.4,1.7c-8,16.8-15.1,34.1-19.5,52.2c-0.3,1.1-0.7,1.7-1.9,1.8c-2.6,0.3-4.7,1.6-7,2.8c-1,0.5-2,1.8-3.2,0.8
			c-1.1-0.9-1.2-2.2-0.9-3.6c1.3-5.9,3.1-11.7,3.8-17.6c0.9-7.5,3.8-12.8,11.6-14.5c0.2,0,0.4-0.2,0.6-0.3
			C383.3,155.1,383,154.2,381,152.8z M352.5,165.6c3-11,12.1-13.9,22.2-17.6c-2.4,2.6-1.4,3.8,0.3,4.7c2.8,1.4,1.9,2.8-0.4,3.2
			c-5.3,1.1-7.3,4.7-8.1,9.6c-0.3,1.5-0.8,3-1.1,4.5c-1.2,5.4-2.5,10.8-3.8,16.6c-3-3.2-5.1-5.8-3.4-10.2c1.1-2.9,0.9-6.4-0.7-9.5
			c-0.4,3.8-0.8,7.6-1.2,11.8C350.4,173.1,350.5,172.6,352.5,165.6z M276.6,167.7c0.8-1.7,2-1.5,3-1.5c19.1-0.9,38.2-1.8,57.4-2.7
			c2.7-0.1,4.5,0.7,6.1,3c6.1,8.8,12.4,17.5,18.6,26.2c0.7,1,2.3,1.9,0.1,3.4c-2,1.4-2.6,0.4-3.6-1c-6.1-8.4-12.3-16.6-18.3-25.1
			c-1.5-2.1-3.1-3-5.7-2.9c-9.3,0.3-18.5,0.5-27.8,0.5C296.6,167.8,286.7,167.7,276.6,167.7z M317.1,233.9c-0.4-1.6-1.3-2.6-2.6-3.2
			c-7.9-3.7-12.6-10.6-17.2-17.5c-1.5-2.3-1.8-4.8-0.4-7.2c3.2-5.6,7.7-10.1,12.2-14.6c0.9-0.9,2.1-1.3,3.2-0.2
			c1.1,1,1.2,2.1,0.4,3.3c-1,1.6-2.2,3.1-3.4,4.6c-2.2,2.8-4.7,5.5-6.4,8.7c-0.3,0.6-0.7,1.4-0.1,2c0.7,0.7,1.3,0,1.9-0.4
			c0.9-0.6,1.7-1.3,2.5-2.1c3.7-3.4,7.4-6.9,11.1-10.3c1.4-1.2,3.1-2.3,4.7-0.4c1.5,1.7,0.2,3.2-0.9,4.4c-3.2,3.6-6.6,7-9.8,10.6
			c-1.3,1.4-2.8,2.8-3.5,5.4c2.4-0.7,4-1.7,5.4-2.9c3.7-2.9,7.4-5.8,11.1-8.7c1.2-0.9,2.4-1.9,3.8-0.5c1.5,1.4,0.9,3-0.2,4.2
			c-1.8,1.9-3.8,3.7-5.7,5.5c-2.7,2.6-5.7,4.9-7.7,8.2c5-2,9.1-5.1,13.2-8.1c0.9-0.6,2-1.9,3.1-0.6c0.9,1.1,0,2.3-0.8,3.2
			c-2.2,2.8-5,4.8-7.6,7.1c-1.5,1.3-3.6,2.3-2.6,4.9c1,2.8,3,3.9,5.8,3.9c2.6,0,5.3,0.2,7.9,0c2.4-0.1,3.3,1,3.3,3.2
			c0.1,6.5-2.5,11.9-6.6,16.7c-1.1,1.3-2,0.9-2.9-0.2C323.8,247.3,318.9,241.5,317.1,233.9z M340.8,272c-6.2-2-11.8-5.2-17.6-9.6
			c4-0.1,7.2-1.2,9.8-3.4c6.6-5.6,9.9-12.8,10.1-21.5c0-1.2-1.2-3.3,0.8-3.7c2-0.4,4.5-1.1,6.2,1.5c1.5,2.3,3.3,4.4,4.9,6.7
			c1,1.3,1.4,2.8,1,4.4c-1.4,6.6-2.7,13.2-4.3,19.7C350.2,272,346.7,273.9,340.8,272z M371,237.8c-2,19.7-4.2,39.4-7.3,59
			c-1.6,10.2-3.1,20.4-6,30.4c-0.3,1.1-0.4,2.4-1.8,2.8c-3.7,1.1-9.7-4.1-8.9-7.8c2.4-12.4,5.2-24.7,7.2-37.1
			c2-12.2,7.5-23.8,5.6-35.3c0-3.7,0-6.2,0-8.8c-0.1-7.4-0.1-7.3,7.4-7.4C370.4,233.6,371.3,234.5,371,237.8z M366.5,207.1
			c-0.6-0.8-2.4-1.9-0.5-3.2c1.5-1,3-1.4,4.3,0.7c1.4,2.2,2.9,4.4,4.6,6.4c4.2,4.9,5.1,12.1,11,15.8c0.8,0.5,0.7,1.2,0.2,1.8
			c-0.6,0.7-1.2,1.5-2.3,1.9c-0.5-0.6-1.1-1.1-1.6-1.8C376.9,221.5,371.6,214.4,366.5,207.1z M403.1,298.5
			c-8.4,0.4-16.8,0.7-25.2-0.3c-3-0.4-4.5-1.3-3.8-4.1c0-4.7,0-4.8,4.2-4.2c8,1,16.1,1.3,24.1,0.1c3.1-0.5,3.4,1.1,3.5,3.4
			C405.9,295.7,407.1,298.3,403.1,298.5z M409.2,228.5c-6.5,1.1-10-3-13-7.7c-2.2-3.3-3.6-3.3-6.3,0.1c0.5,0.1,0.9,0.3,1.4,0.3
			c1.3,0,2.2,0.8,2.1,1.9c-0.1,1.3-1.5,0.8-2.4,0.8c-2.4,0-4.5-0.6-6.2-2.4c-2-2.1-2.2-3.7,0.8-5.2c2.5-1.3,5.3-2.3,7.9-5.4
			c-4.3,0.5-7.1,2.6-10,4c-1.9,0.9-2.6,0.1-3.4-1.2c-1.2-2,0.3-2.8,1.6-3.6c3.1-2,6.8-3.2,9.9-7c-4.1,0.8-6.4,2.7-9.1,3.9
			c-1.6,0.7-3.3,3.7-5.1,1c-1.7-2.5,1.5-3.3,2.8-4.6c2.3-2.1,5.5-3.2,7.7-5.9c-8.3-0.9-15.9-0.1-23.1,3.6c-1,0.5-2.4,1.4-3.3,0
			c-1-1.6,0.9-1.9,1.7-2.6c8.5-7.4,18.7-6.5,28.8-5.8c1.3,0.1,2,1.2,2.8,2.1c4,4.5,8,9,12.1,13.4c3,3.2,5.8,6.7,9.9,8.8
			c7.5,3.8,7.5,3.8,6.6,12.2c-0.2,1.7-0.4,3.3-0.6,5c-0.3,2.1-1,3.1-3.2,1.5c-2.8-2.1-5.7-4-8.6-6
			C410.7,229.1,410.2,228.3,409.2,228.5z M474.1,323.4c0.6,2.4-0.4,3.2-2.4,3.8c-12.5,3.9-25.3,5.5-38.4,5.4
			c-6.2-0.1-9.7-2.4-11.7-8.6c-7.1-22-10.7-44.6-11.8-67.3c0.1-6,0.3-11.7,1.3-17.3c0.1-0.8,0-2.1,1-2c1,0.1,2.1,0.7,2.5,1.8
			c0.2,0.8,0.1,1.7,0.1,2.5c-0.2,4.1-0.3,8.2-0.5,12.3c-0.2,3.3,1.2,5.1,4.5,6.3c13.9,4.9,27.2,11,40.6,16.9
			c3.2,1.4,4.9,3.5,5.8,6.8C468.4,297.1,471.1,310.3,474.1,323.4z M494.2,260.5c-1.3,7.6-3.1,8.9-11.7,9.4c-1.8,0.1-3.6-0.1-5.4-0.5
			c-17.4-3.8-34.1-10-51.2-15.1c-2-0.6-2.3-1.5-1.4-3.4c3.5-7.9,4.3-16.2,4.3-24.7c0-5.1,0-5.1,5-3.3c9.4,3.3,18.8,6.6,28.3,9.7
			c3.9,1.3,7.5,3.2,10.9,5.5c4.4,3,7.9,7,11.2,11.1c-0.7-6.1-3.8-10.9-8.1-15.4c4.6-0.8,8.4,1,13.1,1c-1-0.9-1.5-1.5-2.1-1.8
			c-4.6-3.2-9.6-4.8-15.3-4.1c-4.4,0.5-5.1-0.3-4.6-4.7c0.3-2,0.9-4,1.2-6c0.9-5.2,2.6-10.2,2.4-15.6c-2,3.8-4,7.6-6.4,12
			c-4.9-21.2,0-39.5,11.5-56.6c-6.7,4.1-11.3,9.6-14.5,16.4c-3.9,8.4-4.9,17.3-4.5,26.4c0.3,7.1,1,14.2,0.9,21.3
			c-0.1,2.6-0.6,3.5-3.3,2.5c-7.7-2.9-15.3-5.7-23.1-8.2c-2.9-1-3.3-2.1-2.1-4.8c7.2-15.8,14.8-31.3,22.9-46.6
			c2.6-4.8,3.6-4.1-1.4-8.1c-0.9-0.8-1.9-1.5-2.8-2.2c-0.3-0.4-0.6-0.9-0.9-1.3c9.4,1.5,8-4.5,8.2-9.3c0-0.7,0.1-1.4,0.1-2.2
			c-0.1-1.9,0.6-2.2,2.4-1.4c5.5,2.5,10.8,5.4,16.5,7.2c10.4,3.3,15,10.1,16.3,20.8c2,17.1,3.2,34.2,4.6,51.4
			C496.3,233.5,496.5,247,494.2,260.5z"/>
		<path d="M393,108.7c-0.7,0-1.5,0.1-1.5,1.1c0,1,0.8,1.4,1.6,1.7c3.8,1.7,10.2-0.9,12.3-5.3C401.3,108.1,397.2,108.9,393,108.7z"/>
		<path d="M395.4,101.8c-5.9-1.7-5.9-1.7-5.2-7.3c0.2-1.5,0.9-3-0.6-4.9c-0.8,3-1.7,5.7-2.1,8.4
			C386.8,101.7,390.4,103.6,395.4,101.8z"/>
		<path d="M401.1,88.7c1,1,2.4,1.3,3.6,0.4c1.3-1,2.5-2.1,3.9-3.3c-1.9-1-3.7-1.2-5.6-1.2c-1.4,0-2.8,0.5-3.3,1.8
			C399.2,87.5,400.4,88.1,401.1,88.7z"/>
		<path d="M440.7,82.8c0,0,0-0.7-0.2-0.9c-0.5-0.5-1.1-0.3-1.7-0.2c-2.8,0.9-3.7,3.2-4.8,6.1C437.7,87.4,438.1,83.7,440.7,82.8z"/>
		<path d="M459.7,281.2c-8.8,1.4-17.6,2.3-26.4,2.7c-0.8,0-1.9-0.1-1.7,1.3c0.2,1.1,0.1,2.6,1.8,2.6c1.6,0,3.1,0,5.2,0
			c7-0.4,14.3-1.4,21.6-2.9c1.2-0.3,2.4-0.4,2.1-2.1C462.1,281,460.9,281.1,459.7,281.2z"/>
	</g>
</g>
</svg>
