<?xml version="1.0" encoding="utf-8"?>
<!-- Generator: Adobe Illustrator 24.3.0, SVG Export Plug-In . SVG Version: 6.00 Build 0)  -->
<svg version="1.1" id="Layer_1" xmlns="http://www.w3.org/2000/svg" xmlns:xlink="http://www.w3.org/1999/xlink" x="0px" y="0px"
	 width="564.3px" height="478px" viewBox="0 0 564.3 478" style="enable-background:new 0 0 564.3 478;" xml:space="preserve">
<style type="text/css">
	.st0{fill:#185AE9;}
	.st1{fill:#00B0FB;}
	.st2{fill-rule:evenodd;clip-rule:evenodd;fill:#00B0FB;}
	.st3{fill:#00B0FB;fill-opacity:0.4;}
	.st4{fill:#FFFFFF;}
	.st5{fill:#001135;}
	.st6{fill:#3C7CFF;}
	.st7{fill:#DBDBDB;}
	.st8{fill:#FCFCFC;}
	.st9{fill:none;}
	.st10{fill:#FDFDFD;}
	.st11{fill-rule:evenodd;clip-rule:evenodd;}
	.st12{fill:#030302;}
	.st13{fill:#D2D3D3;}
	.st14{fill:#1F1F1F;}
	.st15{fill:#F6F6F6;}
	.st16{fill:#0E0D0E;}
	.st17{fill:#BABBBB;}
	.st18{fill:#8A8A8A;}
	.st19{fill:#8E8F8F;}
	.st20{fill:#464746;}
	.st21{fill:#5F5E5E;}
	.st22{fill:#0B0B0B;}
	.st23{fill:#090909;}
	.st24{fill:#151414;}
	.st25{fill:#101010;}
	.st26{fill:#282828;}
</style>
<g>
	<g>
		<path d="M0,222c0.2,5.3,1.9,10.2,3.9,15c5.5,12.7,13.3,23.9,21.8,34.8c4.9,6.3,10,12.4,15.2,18.3c1.5,1.7,3.1,3.5,4.6,5.2
			c2.4,2.6,4.8,5.2,7.2,7.7c1.7,1.8,3.5,3.6,5.3,5.5c6,6.1,12.2,12.1,18.5,18c0.9,0.8,1.8,1.7,2.7,2.5c0.7,0.6,1.4,1.3,2.1,1.9
			c4.1,3.8,8.3,7.6,12.5,11.3c0.3,0.2,0.5,0.5,0.8,0.7c4.2,3.8,8.5,7.5,12.8,11.1c0.6,0.5,1.2,1,1.8,1.5c0.6,0.5,1.2,1,1.7,1.5
			c0.2,0.1,0.3,0.3,0.5,0.4c10.5,8.8,21.2,17.4,32.1,25.7c1.1,0.8,2.1,1.6,3.2,2.4c0.2,0.1,0.3,0.2,0.4,0.3c3.5,2.6,7,5.2,10.5,7.8
			c3.2,2.4,6.5,4.7,9.7,7c1.2,0.8,2.4,1.7,3.5,2.5c11.5,8.1,23.3,15.8,35.2,23.3c1.8,1.1,3.7,2.3,5.5,3.4c1.1,0.7,2.2,1.4,3.4,2.1
			c5.7,3.5,11.5,6.9,17.4,10.2c1.5,0.9,3.1,1.8,4.6,2.6c14.9,8.3,30.3,15.8,46.2,22.2c14,5.5,28.1,10.4,43.6,11
			c2.2-0.2,4.6-0.2,6.9-0.5c8.8-1.4,13.6-7,13.4-15.8c0-4.8-1.4-9.3-3.1-13.7c-4.6-11.6-11.4-21.9-18.7-31.8
			c-9.2-12.3-19.1-23.9-29.6-35c-1.4-1.5-2.9-3-4.3-4.5c-1-1-2-2.1-3-3.1c-1-1-1.9-2-2.9-3c-1.8-1.8-3.5-3.5-5.3-5.2
			c0,0-0.1-0.1-0.1-0.1c-0.9-0.9-1.9-1.9-2.8-2.8c-0.2-0.2-0.4-0.4-0.6-0.6c0,0,0,0,0,0c-0.1-0.1-0.2-0.2-0.4-0.3
			c-2.9-2.8-5.8-5.5-8.7-8.2c-1-1-2.1-1.9-3.1-2.9c-0.7-0.7-1.4-1.3-2.2-2c-0.7-0.6-1.4-1.3-2.1-1.9c-0.5-0.5-1.1-1-1.6-1.5
			c-0.6-0.5-1.1-1-1.7-1.5c-2.3-2-4.5-4.1-6.8-6.1c-0.3-0.2-0.6-0.5-0.8-0.7c-0.1-0.1-0.2-0.2-0.3-0.3c-0.6-0.5-1.2-1-1.7-1.5
			c-0.3-0.2-0.5-0.5-0.8-0.7c-2.8-2.4-5.6-4.8-8.4-7.2c-1.1-1-2.3-1.9-3.4-2.9c-1.1-0.9-2.1-1.8-3.2-2.6c-2.2-1.8-4.4-3.7-6.7-5.5
			c0,0,0,0,0,0c-2.2-1.8-4.4-3.5-6.6-5.2c-0.2-0.2-0.4-0.3-0.6-0.5c-0.9-0.7-1.9-1.5-2.8-2.2c-0.9-0.7-1.8-1.4-2.8-2.1
			c-1.2-1-2.4-1.9-3.6-2.8c-3.8-2.9-7.5-5.8-11.4-8.6c-0.8-0.6-1.6-1.2-2.4-1.8c-1.8-1.3-3.5-2.6-5.3-3.9c-1-0.8-2.1-1.5-3.1-2.2
			c-2.6-1.9-5.2-3.7-7.7-5.5c0,0-0.1-0.1-0.1-0.1c-0.1-0.1-0.3-0.2-0.4-0.3c-0.8-0.6-1.7-1.2-2.5-1.8c-0.2-0.1-0.3-0.2-0.5-0.3
			c-0.1-0.1-0.2-0.1-0.3-0.2c-3.6-2.5-7.2-5-10.9-7.5c-2.5-1.7-5-3.3-7.4-5c-1-0.7-2-1.3-3-2c-0.3-0.2-0.5-0.3-0.8-0.5
			c-0.9-0.6-1.8-1.2-2.7-1.8c-1.1-0.7-2.1-1.4-3.2-2c-4.6-2.9-9.3-5.8-13.9-8.7c-1.1-0.7-2.1-1.3-3.2-1.9c-0.8-0.5-1.6-0.9-2.4-1.4
			c-1.1-0.6-2.1-1.3-3.2-1.9c-6.4-3.8-12.9-7.4-19.5-10.9c-3.8-2-7.6-4-11.5-6c-1-0.5-2-1-2.9-1.5c-3-1.5-6-3-9.1-4.4v0
			c-1.3-0.6-2.7-1.2-4-1.8c-2.3-1-4.6-2-6.9-3c-9.4-4-19-7.5-29-10.1c-8.6-2.3-17.4-4-26.4-2.8C4.7,206.5-0.3,212.3,0,222z"/>
		<g>
			<path class="st4" d="M183.8,412c1.5,1,3.1,2,4.6,3C187.6,412.4,185.9,411.9,183.8,412z"/>
			<path class="st7" d="M138.3,379.1c1.7,1.4,3.5,2.7,5.2,4c1.1,0.8,2.1,1.6,3.2,2.4c0.2,0.1,0.3,0.2,0.4,0.3
				c3.5,2.6,7,5.2,10.5,7.8c1.5,1.1,3,2.2,4.5,3.3c0.1-0.6,0.2-1.1,0.4-1.7c2.8-12.6,10.7-20.8,22.5-22.4
				c-6.4-2.8-12.7-3.6-18.6-5.4c-12-3.7-20.5,0.9-27.2,10.4C138.9,378.3,138.6,378.7,138.3,379.1z"/>
			<path class="st7" d="M119.1,363.9c5.2,4.2,10.4,8.4,15.7,12.5c1.1-1.6,2.2-3.1,3.4-4.6c2.4-2.9,5.4-5.3,8.8-8.1
				c-8.6-2.4-16.6-2.3-24.6-0.6C121.2,363.4,120.1,363.6,119.1,363.9z M85,334.5c2.9,2.6,5.7,5.2,8.6,7.7c0.3,0.2,0.5,0.5,0.8,0.7
				c4.2,3.8,8.5,7.5,12.8,11.1c0.6,0.5,1.2,1,1.8,1.5c0.6,0.5,1.2,1,1.7,1.5c0.2,0.2,0.3,0.3,0.5,0.4c1.2,1,2.4,2,3.7,3.1
				c8.9-2.5,18-3.5,27.4-2.5c0.8,0.1,1.5,0,2.2,0c0.4-1.6-0.7-2.4-1.3-3.3c-6.8-9.6-14.6-18.3-23.3-26.2c-1.4-1.3-4.6-2.8-3.1-4.7
				c2-2.4,4.3,0.5,5.9,1.8c7.3,6.1,13.5,13.2,19.7,20.5c1.4,1.6,2.7,3.2,4,4.7c1.4-0.7,0.9-1.8,0.8-2.6c-0.9-14.8-0.8-29.9-3.1-44.5
				c-3.1-19-11.2-36.1-26.7-48.7c-1.6-1.3-4.7-3.1-3.6-4.4c1.5-1.9,3.9,0.6,5.6,1.7c7.8,5.2,14,11.9,18.1,20.4
				c2,4.3,4.1,8.5,6.1,12.8c6.9,14.1,6,29.5,6.9,44.5c0.5,8.8,1,17.6,2.5,26.3c0.5,3,1.6,4.6,5.2,5c9.3,1.1,18.2,3.8,27.1,6.9
				c2.9,1,5.1,2.9,5.3,6.2c0.1,1.2,0.5,2.1,1.8,2.2c8.7,0.8,17.2,4.3,26.1,1.5c8.4-2.6,16.8-5.2,25.2-8c4.6-1.5,9-1.6,13.4,0.4
				c4,1.8,8.2,2.7,12.6,2.6c1.5,0,2.4,0.1,2.5-1.9c0.2-4.3,0.5-8.5,0.8-12.8c2-31.6,4.6-63.2,3.6-94.9c0-0.8-0.3-1.7,0.7-1.9
				c0.9-0.2,1.3,0.8,1.6,1.4c1.4,2.8,2.2,5.9,2.2,9.1c0.1,24.2-0.8,48.4-2.9,72.6c-0.2,2.9-0.3,5.8-0.4,8.7
				c-0.1,2.2,0.7,2.5,2.5,1.6c1.3-0.6,2.6-1.3,3.6-2.4c0.9-1.1,1.8-2.2,3.2-3c-2.8,3.8-1.2,10.5-8.1,11.7c-1,0.2-1.3,0.8-1.4,1.5
				c-0.1,0.4-0.1,0.9-0.1,1.3c-0.4,3.5-0.7,7.1-1.1,10.6c-0.1,1.5,0.5,2.8,1.8,3.1c1.4,0.3,1.4-1.3,1.8-2.2c1.1-2.5,2.1-4.9,3.1-7.4
				c5.8-13.6,11.5-27.2,17.2-40.8c-1.6-6.7-4.6-18-5.8-23.5c-2.9-13.6-6.1-27.2-10.6-40.4c-3.8-11.1-9.8-19.9-21.3-24.2
				c-3.8-1.4-7.4-3.5-11-5.2c-1.2-0.6-2.2-0.8-2.8,0.8c-2,5.1-6.5,7.5-11.2,9.3c-2.7,1-3.5,2.3-2.9,5.3c2.2,9.4,2.2,19.1,2.6,28.7
				c0.4,9.3,0.6,18.7,0.9,28c0.1,2.4,0.5,4.7,0.8,7c0.2,1.4,0.5,3-0.9,4c-1,0.8-2.2,0.8-3.4,0.2c-1.6-0.8-1.4-2.3-1.4-3.8
				c0-19.6-0.5-39.2-2.3-58.8c-0.2-2.6-0.8-5.2-1.7-7.7c-1.2-3.1,0.1-4.8,2.8-5.8c2.5-0.8,5-1.5,7.3-2.9c4-2.5,5.8-5.8,5-10.6
				c-1.5-8.9-11-16.9-19.8-16.4c-5.3,0.3-5.6,0.7-4.8,6.8c2.1-1.2,3.8-2.5,5.9-2.7c5-0.4,7.8,3.1,6,7.7c-0.7,1.8-1.9,3.5-3,5
				c-3.2,4.3-7.4,7.8-11.4,11.5c-3.2,3-5.9,2.9-9.4,0.5c-10.1-7.1-20.4-14-30.6-21c-9.7-6.5-19.2-13.5-30.7-16.7
				c-1.7-0.5-3-1.4-2.3-3.4c0.6-1.9,2.2-2.2,3.8-1.5c3.5,1.5,7.2,2.7,10.5,4.6c3.4,1.9,5.1,1,6.5-2.3c2.2-5.3,2-5.8-3.6-6.1
				c-7.9-0.4-15.8,0.1-23.6,1.3c-4,0.6-7,2.4-8.9,6.3c-3.6,7.2-9.1,13.2-13.7,19.8c-0.7,1.1-1.7,2-1.9,3.4c-0.2,1.6-0.5,3.3,0.7,4.5
				c1.2,1.2,2.5-0.2,3.6-0.6c4-1.5,8.1-0.6,12.1-0.2c19.3,1.8,38,6.8,56.8,11.2c1.9,0.4,3.3,1.4,2.8,3.6c-0.6,2.3-2.5,1.8-4.2,1.3
				c-20.1-6-40.6-10-61.5-11.9c-1.8-0.2-3.4,0.4-4.9,1.1c-3,1.3-5.8,2.8-8.6,4.3c-4.6,2.6-9.1,5.5-13.4,8.6c-2.8,2-4.4,4.7-5.6,7.9
				c-3.9,10.5-5.3,21.5-5.9,32.5C84.4,303,84.2,318.8,85,334.5z M205,300.9c0-0.2,0-0.3,0-0.4c0-0.5,0-1,0-1.4c0-1.1,0-2.3,0-3.5
				c-0.8-15.4-3.3-30.6-8.6-45.1c-0.4-1.2-1.2-2.3-1.8-3.5c-1-1.8-0.7-3.5,1.3-4.2c1.9-0.7,3.2,0.1,3.9,2.2
				c5.3,16,9.2,32.4,9.8,49.4c0.1,2.1,0.3,4.2,0.8,6.2c0.1,0.3,0.1,0.6,0.1,0.8c0,0.1,0,0.2,0,0.3c0,0.1,0,0.1,0,0.2
				c0,0.1,0,0.2-0.1,0.2c0,0.1,0,0.1-0.1,0.2c-0.1,0.2-0.2,0.4-0.4,0.6c-0.1,0.1-0.1,0.1-0.2,0.2c-0.1,0.1-0.2,0.2-0.3,0.2
				c-0.1,0.1-0.2,0.1-0.3,0.2c0,0-0.1,0-0.1,0c-0.1,0-0.2,0.1-0.3,0.1c-0.1,0-0.2,0-0.3,0.1c-0.1,0-0.3,0-0.4,0
				c-1.8,0.1-2.7-0.9-2.8-2.6C205.1,301,205.1,301,205,300.9z"/>
			<path class="st4" d="M168.2,204.4c-0.8,1.8-0.6,2.9,1,3.9c2.9,1.9,5.6,3.9,8.4,5.8c10.6,7.4,21,15,32,21.7c3.9,2.4,6.1,1,6.2-3.6
				c0-3.7-0.8-7.4-0.4-11c0.4-4.5-0.5-7.5-5.4-8.7c-2-0.5-3.8-1.8-5.5-3.1c-7.3-5.2-13.5-11.3-17-19.8c-0.5-1.2-1.2-2.6,0.4-3.5
				c1.2-0.7,1.9,0.6,2.6,1.2c4.9,4.7,10.9,7.9,16.9,10.7c5.5,2.6,11.2,4.5,17.4,4.6c5.3,0,7.3-1.3,9-6.3c1-2.9,2.2-5.6,3.7-8.3
				c4.9-9,8.1-18.6,8.7-28.9c0.1-1,1.1-3-1.2-2.8c-2.6,0.3-3.8-1.3-5.8-4c-0.3,5.5,1.7,9.3,2.7,13.3c1.2,4.7-0.9,7.5-5.7,7.4
				c-1.1,0-3.1,0.6-3.3-1.1c-0.2-2,1.9-1.3,3-1.5c3.7-0.6,4.4-1.6,3.2-5.4c-1.1-3.4-2.1-6.8-2.3-10.4c-0.1-1.3-0.2-3,1.2-3.5
				c2.4-0.8,4.6-2.8,7.4-2c3,0.9,2.6-1.7,2.8-3c0.3-2.4-1.6-1.4-2.7-1.3c-0.9,0.1-1.8,0.3-2.7,0.5c-1,0.1-1.9,0.1-2.4-0.9
				c-0.5-1.2,0.4-2,1.3-2.6c1.7-1.2,3.7-1.3,5.7-1.4c1.4-0.1,2.7-0.2,2.6-2.1c-0.2-6.5,1-13.1-1.6-19.5c-1.2-2.9-2-4.8-5.8-3.8
				c-3,0.8-6.3,0.2-9.4-0.4c-8.9-1.8-17.8-3.6-26.7-5.3c-3.8-0.7-5.3,0.6-4.6,4.4c0.6,3.5,1.7,6.9,2.6,10.3c1.2,4.4,0,8.3-3.6,10.9
				c-5.3,3.8-7.8,8.7-7.9,15.1c0,1.2-0.2,2.3-1.7,2.8c-3.8,1.1-9-1.7-9.7-5.7c-0.7-3.5-2.2-6.5-4.7-8.9c-2.2-2-4.7-3.4-7.9-2
				c-3,1.4-4.2,3.9-4.2,7c-0.1,7.6,3.4,13.7,8.4,19c1.5,1.7,3.6,2.6,6.1,2c1.6-0.4,3.3-1,3.7,1.4c0.3,2.6-1.5,3-3.5,3.1
				c-0.8,0-1.6,0.1-2.3-0.1c-2.6-0.8-3.1,0.3-2.9,2.7C174.7,183.1,173,194.1,168.2,204.4z M178.5,157.1c-1,0.8-2,0.2-2.8-0.5
				c-2.8-2.7-1.6-6.8-3.3-9.8c-0.3-0.5,0.8-1.3,1.6-1.3c1.3-0.1,2.5,0.1,3,1.4c0.3,0.8,0.3,1.8,0.4,2.4c-0.5,2.3,0.2,3.9,1.2,5.5
				C179.2,155.4,179.4,156.4,178.5,157.1z M216.3,176.1c1.3-1.5,2.2,0.3,3.1,1c3.2,2.7,7,3.4,11,3.4c1.7,0,4.5-1,4.5,1.6
				c0,2.7-2.9,1.7-4.5,2.1c-4.9-0.2-9.3-1.4-13-4.5C216.3,178.7,215.1,177.4,216.3,176.1z M212.5,150.3c3-2,6-4,9.7-2.6
				c1.5,0.5,3.3,1.5,3.2,3c-0.1,1.9-2.5,2.4-3.9,3.3c-1.2,0.9-3.1,0.8-3.8-0.6C216.6,151.2,214.6,151.1,212.5,150.3z M210.9,139.7
				c2.2-1.3,4.7-1.4,6.8-1.5c3.4,0,6.3,0.8,9.2,1.8c1.2,0.4,2.1,1.2,1.8,2.6c-0.3,1.5-1.6,1.9-2.8,1.4c-4.6-1.8-9.3-2.4-14.2-1.4
				c-0.8,0.2-1.6-0.1-1.9-1C209.6,140.7,210.1,140.1,210.9,139.7z"/>
			<path class="st4" d="M226.2,108.9c0.6,0.1,1.3,0.1,1.8,0.1c4.9-0.6,9.9-0.7,13.6-4.4c0.7-0.7,1.6-1.6,0.6-2.7
				c-0.7-0.9-1.7-0.7-2.4-0.1c-4,3-8.5,3.7-13.4,3.6c-1.1,0-2.2,0.3-2.3,1.6C224.1,108.1,225.1,108.6,226.2,108.9z"/>
			<path class="st4" d="M275.2,382.8c0.2,0.3,0.6,0.4,0.9,0.6c-0.6-3.2-2.3-5.3-5.1-6.4C272.2,379.1,273.7,380.9,275.2,382.8z"/>
			<path class="st7" d="M250.9,410.1c-17.6-0.4-35.2,0.4-52.8-0.7c-0.9-0.1-1.8-0.1-2.8,0c-1.3,0.2-3,0.4-2.8,2.1
				c0.2,1.6,1.8,1.1,2.9,1.1c19.7-0.2,39.4,1.1,59.1,0.6c2,0,4.2-0.1,5.5,1.6c2.3,2.9,2.9,1.2,3.6-1.1c0.3-1.1,1.2-2,0.8-3.8
				C259.9,411.5,255.4,410.2,250.9,410.1z"/>
			<path d="M354.5,367.5c-2.7,0.4-4.5,2.1-4.9,4.8c-0.3,1.6,0.7,2.6,2.3,2.4c2.7-0.5,4.3-2.2,5.1-4.6
				C356.8,368.3,356.1,367.2,354.5,367.5z"/>
			<path class="st7" d="M274.3,418.1c17.1-0.5,34.2-1,51.3-1.5c3.5-0.1,7.1-0.2,10.6-0.3c13.5-0.4,27.1-1,40.6-1.1
				c8.6,0,9.5-0.3,12.5-8.5c6.7-18.3,13.5-36.5,20.3-54.8c3.1-8.4,6.3-16.8,9.3-25.2c1.5-4.2,0.1-6.6-3.7-6.6l-50.1-1.8
				c-16.2,0-32.4,0.1-48.6-0.1c-4.2,0-6.9,1.1-8.5,5.3c-2.4,6.4-5.2,12.6-7.8,19c-4.2,10.1-8.4,20.1-12.6,30.2
				c-5.6,13.5-11.2,26.9-16.8,40.4C269.1,417.3,269.8,418.2,274.3,418.1z M345.5,373c-0.2-4.8,4.6-10,9.2-10.2
				c3.4-0.1,6.2,2.7,6.3,6.2c0.1,4.3-5,9.6-9.3,9.7C348.4,378.9,345.6,376.3,345.5,373z"/>
			<path class="st4" d="M166.1,399.8c0.4,0.3,0.8,0.6,1.2,0.9c1.2,0.8,2.4,1.7,3.5,2.5c2.6,1.8,5.2,3.6,7.8,5.4
				c1.8-0.4,3.5-0.7,5.3-1.1c7.6-1.5,15.1-4.1,23-2.6c10.5,2.1,20.6,1.9,30.5-2.4c6.3-2.8,12.3-2.4,17.6,2.6
				c0.6,0.6,1.5,1.1,2.3,1.5c1.2,0.6,2.3,0,3.3-0.7c1.1-0.9,1.1-2.1,0.6-3.2c-1.1-2.6-3.1-4.2-5.5-5.4c-3-1.5-6.2-2.2-9.5-2.7
				c-1.7-0.3-3.4-0.8-3-2.8c0.4-1.8,2.2-1.7,3.6-1.3c6.8,1.8,14.2,2.6,18.4,9.4c0.3,0.5,0.9,0.9,1.5,1.3c1.1,0.7,2.2,1,3.1-0.2
				c0.9-1.1,0.8-1.9,0-3.1c-4.1-7.1-9.7-12-18.2-12.8c-0.9-0.1-1.8-0.3-2.7-0.6c-1.2-0.3-2.2-1-2-2.5c0.3-1.7,1.7-2,3.1-1.7
				c7.8,2.2,16.3,3,20.6,11.5c0.4,0.8,1,2.7,2.5,1.6c0.9-0.7,1.9-2.4,1.2-3.5c-2.6-4.2-4.5-9.2-9.4-11.4c-8.8-4-17.7-6.7-27.1-1.5
				c-0.7,0.4-1.5,0.5-2.2,0.8c-11.9,4.1-23.7,7.9-36.6,4.8c-5.5-1.3-11.2-1.8-16.7-2.9c-3.1-0.6-5.3,0.2-7.5,2.3
				C169.6,386.8,167,392.9,166.1,399.8z"/>
			<path d="M80.4,330.2c0.3,0.2,0.5,0.5,0.8,0.7c1.3,1.2,2.6,2.4,3.9,3.5c-0.8-15.7-0.6-31.4,0.3-47.2c0.6-11,2-22,5.9-32.5
				c1.2-3.2,2.8-5.9,5.6-7.9c4.3-3.1,8.8-6,13.4-8.6c2.8-1.6,5.7-3,8.6-4.3c1.6-0.7,3.1-1.3,4.9-1.1c20.9,1.9,41.4,5.9,61.5,11.9
				c1.7,0.5,3.6,1,4.2-1.3c0.6-2.1-0.9-3.1-2.8-3.6c-18.8-4.4-37.5-9.4-56.8-11.2c-4-0.4-8.1-1.4-12.1,0.2c-1.1,0.4-2.4,1.8-3.6,0.6
				c-1.2-1.2-0.9-3-0.7-4.5c0.2-1.4,1.2-2.3,1.9-3.4c4.5-6.6,10.1-12.5,13.7-19.8c1.9-3.9,4.9-5.7,8.9-6.3
				c7.8-1.2,15.7-1.7,23.6-1.3c5.6,0.3,5.7,0.8,3.6,6.1c-1.4,3.4-3.1,4.3-6.5,2.3c-3.3-1.9-6.9-3.1-10.5-4.6
				c-1.7-0.7-3.2-0.5-3.8,1.5c-0.7,2,0.6,3,2.3,3.4c11.5,3.2,21,10.1,30.7,16.7c10.2,6.9,20.5,13.9,30.6,21c3.4,2.4,6.2,2.4,9.4-0.5
				c3.9-3.7,8.1-7.1,11.4-11.5c1.2-1.6,2.3-3.2,3-5c1.8-4.7-1-8.2-6-7.7c-2.2,0.2-3.8,1.5-5.9,2.7c-0.8-6.1-0.5-6.4,4.8-6.8
				c8.8-0.5,18.4,7.4,19.8,16.4c0.8,4.8-1,8.2-5,10.6c-2.3,1.4-4.8,2.1-7.3,2.9c-2.8,0.9-4,2.6-2.8,5.8c0.9,2.5,1.4,5.1,1.7,7.7
				c1.8,19.5,2.3,39.2,2.3,58.8c0,1.5-0.3,3,1.4,3.8c1.1,0.6,2.4,0.6,3.4-0.2c1.4-1,1-2.6,0.9-4c-0.2-2.3-0.7-4.7-0.8-7
				c-0.4-9.3-0.5-18.7-0.9-28c-0.4-9.6-0.4-19.2-2.6-28.7c-0.7-3,0.2-4.2,2.9-5.3c4.7-1.8,9.2-4.2,11.2-9.3c0.6-1.6,1.6-1.4,2.8-0.8
				c3.7,1.8,7.2,3.8,11,5.2c11.5,4.3,17.5,13.1,21.3,24.2c4.5,13.2,7.6,26.8,10.6,40.4c1.2,5.5,4.3,16.8,5.8,23.5
				c-5.7,13.6-11.5,27.2-17.2,40.8c-1,2.5-2.1,4.9-3.1,7.4c-0.4,0.9-0.4,2.5-1.8,2.2c-1.3-0.3-2-1.6-1.8-3.1
				c0.4-3.5,0.7-7.1,1.1-10.6c0-0.4,0.1-0.9,0.1-1.3c0.1-0.7,0.4-1.4,1.4-1.5c6.9-1.2,5.3-7.9,8.1-11.7c-1.3,0.8-2.3,1.9-3.2,3
				c-0.9,1.2-2.2,1.8-3.6,2.4c-1.8,0.9-2.7,0.5-2.5-1.6c0.2-2.9,0.2-5.8,0.4-8.7c2-24.2,2.9-48.3,2.9-72.6c0-3.2-0.8-6.2-2.2-9.1
				c-0.3-0.7-0.8-1.6-1.6-1.4c-1,0.2-0.7,1.1-0.7,1.9c1,31.7-1.7,63.3-3.6,94.9c-0.3,4.3-0.5,8.5-0.8,12.8c-0.1,1.9-0.9,1.8-2.5,1.9
				c-4.4,0.1-8.6-0.7-12.6-2.6c-4.4-2-8.8-2-13.4-0.4c-8.4,2.8-16.8,5.4-25.2,8c-8.9,2.8-17.4-0.7-26.1-1.5c-1.2-0.1-1.6-1-1.8-2.2
				c-0.3-3.3-2.4-5.1-5.3-6.2c-8.8-3.1-17.8-5.8-27.1-6.9c-3.6-0.5-4.7-2-5.2-5c-1.5-8.7-2-17.5-2.5-26.3c-0.9-15,0-30.4-6.9-44.5
				c-2.1-4.2-4.1-8.5-6.1-12.8c-4.1-8.5-10.3-15.2-18.1-20.4c-1.7-1.1-4.1-3.6-5.6-1.7c-1.1,1.4,2.1,3.2,3.6,4.4
				c15.5,12.6,23.6,29.7,26.7,48.7c2.4,14.6,2.2,29.6,3.1,44.5c0,0.8,0.6,1.8-0.8,2.6c-1.3-1.5-2.6-3.1-4-4.7
				c-6.1-7.2-12.3-14.4-19.7-20.5c-1.6-1.3-3.9-4.3-5.9-1.8c-1.6,1.9,1.7,3.4,3.1,4.7c8.7,7.9,16.6,16.6,23.3,26.2
				c0.6,0.9,1.7,1.7,1.3,3.3c-0.7,0-1.5,0.1-2.2,0c-9.4-0.9-18.5,0.1-27.4,2.5c1.4,1.2,2.7,2.3,4.1,3.4c1.1-0.3,2.2-0.5,3.2-0.7
				c8-1.7,16.1-1.8,24.6,0.6c-3.4,2.8-6.4,5.2-8.8,8.1c-1.2,1.5-2.4,3-3.4,4.6c1.2,0.9,2.3,1.8,3.5,2.7c0.3-0.4,0.6-0.9,0.9-1.3
				c6.7-9.6,15.2-14.1,27.2-10.4c5.9,1.8,12.2,2.6,18.6,5.4c-11.7,1.6-19.7,9.8-22.5,22.4c-0.1,0.6-0.2,1.2-0.4,1.7
				c1.3,1,2.7,1.9,4,2.8c0.9-6.8,3.5-13,8.8-18c2.2-2.1,4.4-2.9,7.5-2.3c5.5,1.1,11.2,1.5,16.7,2.9c12.9,3.2,24.7-0.7,36.6-4.8
				c0.7-0.3,1.5-0.4,2.2-0.8c9.4-5.2,18.3-2.5,27.1,1.5c4.9,2.2,6.8,7.2,9.4,11.4c0.7,1.2-0.2,2.8-1.2,3.5c-1.5,1.1-2.1-0.8-2.5-1.6
				c-4.3-8.5-12.8-9.3-20.6-11.5c-1.4-0.4-2.8,0-3.1,1.7c-0.3,1.4,0.7,2.1,2,2.5c0.9,0.2,1.8,0.5,2.7,0.6
				c8.5,0.8,14.1,5.7,18.2,12.8c0.7,1.2,0.8,2.1,0,3.1c-1,1.2-2.1,0.9-3.1,0.2c-0.6-0.4-1.2-0.8-1.5-1.3c-4.3-6.8-11.6-7.6-18.4-9.4
				c-1.4-0.4-3.3-0.5-3.6,1.3c-0.4,2,1.3,2.5,3,2.8c3.3,0.5,6.5,1.2,9.5,2.7c2.4,1.2,4.5,2.8,5.5,5.4c0.5,1.2,0.5,2.4-0.6,3.2
				c-0.9,0.8-2,1.4-3.3,0.7c-0.8-0.4-1.7-0.8-2.3-1.5c-5.3-4.9-11.2-5.3-17.6-2.6c-9.9,4.3-20.1,4.5-30.5,2.4
				c-7.8-1.6-15.4,1.1-23,2.6c-1.8,0.3-3.5,0.7-5.3,1.1c1.7,1.2,3.4,2.3,5.1,3.5c2.1-0.2,3.8,0.3,4.6,3c4.9,3.2,9.7,6.4,14.7,9.5
				h66.3c20.6,0,41.2,0,61.9,0c14.7,0,29.4,0,44.1,0c1.7-2.5,4.4-4.3,8.4-4.3h0c-0.1-0.1-0.1-0.1-0.2-0.2c5.8-1.8,7.7-6.5,9.5-11.4
				c5.8-15.5,11.7-31,17.4-46.6c4.3-11.7,8.6-23.5,12.7-35.2c2.1-6.1-1.4-10.9-7.8-10.8c-1.7,0-3.4,0-5.1,0
				c-31.7-0.7-63.4-1.4-95.2-2c-6.2-0.1-9.3,1.6-11.8,6.4c-1.9-7.9-5.1-20.8-6.8-27.6c-3.6-14.4-6.7-29-13.8-42.2
				c-2.6-4.9-6.1-8.8-11.2-11.3c-6.4-3.1-12.7-6.3-19-9.6c-1.2-0.6-2.7-1.1-3.3-2.7c-3.3-9.5-9.7-16.3-19.1-20.3
				c3-1.6,5.8-3.3,6.7-6.5c1.8-6.4,5.4-12,7.7-18.1c2.4-6.1,4.7-12.4,5-19c0.3-6.3,2-12.4,3.2-18.6c1.8-9.8,2.9-19.9-1.7-29.4
				c-0.9-1.8,0-2.5,0.9-3.6c3.2-3.8,5.4-8.1,4.9-13.3c-0.2-2-0.8-3.7-3.6-2.3c-4,2-4.2,1.8-4.8-2.5c-0.6-3.8-2.4-5.5-5.4-4.1
				c-5.1,2.4-9.4,0.9-13.9-1.4c-9.8-5.1-20.2-7-31.3-6.6c-8.8,0.3-16.2,3.2-22.1,9.6c-1,1.1-2.1,2-3.4,2.6
				c-10.3,4.8-15.3,13.3-16.5,24.2c-1.7,16.1,2.1,31.2,9.8,45.2c4,7.3,5.1,14.7,3.5,22.8c-0.7,3.3-1.6,4.5-5.2,4.2
				c-9.3-0.8-18.7-0.3-27.9,1.4c-4.2,0.8-7.5,2.6-9.8,6.5c-4.3,7.3-8.9,14.3-14.2,20.8c-2,2.4-3.7,5.4-2.7,8.3
				c1.5,4.8-0.7,6.9-3.8,8.8c-0.6,0.3-1.2,0.7-1.8,1c-1.5,0.8-2.8,1.9-4.3,2.7c-8,4.2-12.3,11.1-14.4,19.7
				c-2.5,10.3-3.8,20.7-4.3,31.2C80.1,303.7,79.9,317,80.4,330.2z M263.6,413.7c-0.6,2.2-1.2,3.9-3.6,1.1c-1.3-1.6-3.5-1.6-5.5-1.6
				c-19.7,0.5-39.4-0.8-59.1-0.6c-1.1,0-2.8,0.5-2.9-1.1c-0.2-1.7,1.5-1.9,2.8-2.1c0.9-0.1,1.8-0.1,2.8,0
				c17.6,1.1,35.2,0.3,52.8,0.7c4.6,0.1,9.1,1.4,13.6-0.2C264.8,411.7,263.9,412.6,263.6,413.7z M276.1,383.4
				c-0.3-0.2-0.7-0.3-0.9-0.5c-1.5-1.9-3-3.8-4.3-5.8C273.8,378.1,275.5,380.2,276.1,383.4z M308,323.7c1.6-4.2,4.2-5.4,8.5-5.3
				c16.2,0.2,32.4,0.1,48.6,0.1l50.1,1.8c3.8,0,5.2,2.4,3.7,6.6c-3,8.4-6.2,16.8-9.3,25.2c-6.8,18.2-13.5,36.5-20.3,54.8
				c-3,8.2-3.9,8.4-12.5,8.5c-13.6,0.1-27.1,0.7-40.6,1.1c-3.6,0.1-7.1,0.2-10.6,0.3c-17.1,0.5-34.2,1-51.3,1.5
				c-4.4,0.1-5.2-0.8-3.5-4.8c5.6-13.5,11.2-26.9,16.8-40.4c4.2-10.1,8.4-20.1,12.6-30.2C302.8,336.4,305.6,330.1,308,323.7z
				 M241.6,104.5c-3.7,3.7-8.7,3.9-13.6,4.5c-0.5,0-1.2,0-1.8-0.1c-1.1-0.2-2.1-0.7-2-2c0.1-1.3,1.1-1.6,2.3-1.6
				c4.8,0.2,9.4-0.6,13.4-3.6c0.8-0.6,1.7-0.8,2.4,0.1C243.2,103,242.3,103.8,241.6,104.5z M168.2,204.4c4.8-10.4,6.5-21.3,5.9-32.7
				c-0.1-2.4,0.4-3.5,2.9-2.7c0.7,0.2,1.6,0.1,2.3,0.1c2-0.1,3.9-0.5,3.5-3.1c-0.3-2.4-2.1-1.8-3.7-1.4c-2.5,0.7-4.6-0.3-6.1-2
				c-5-5.3-8.4-11.4-8.4-19c0-3.1,1.2-5.7,4.2-7c3.1-1.4,5.7,0,7.9,2c2.6,2.4,4.1,5.4,4.7,8.9c0.7,3.9,5.9,6.8,9.7,5.7
				c1.5-0.4,1.6-1.6,1.7-2.8c0.2-6.3,2.7-11.3,7.9-15.1c3.6-2.6,4.8-6.5,3.6-10.9c-0.9-3.4-2-6.8-2.6-10.3c-0.7-3.8,0.8-5.2,4.6-4.4
				c8.9,1.7,17.8,3.5,26.7,5.3c3.1,0.6,6.4,1.2,9.4,0.4c3.8-1,4.6,0.8,5.8,3.8c2.6,6.4,1.4,13,1.6,19.5c0.1,1.9-1.2,2-2.6,2.1
				c-2,0.1-4,0.3-5.7,1.4c-0.9,0.6-1.8,1.3-1.3,2.6c0.4,1,1.4,1.1,2.4,0.9c0.9-0.1,1.8-0.4,2.7-0.5c1.1-0.1,3-1.1,2.7,1.3
				c-0.2,1.3,0.2,3.9-2.8,3c-2.8-0.8-5,1.2-7.4,2c-1.5,0.5-1.3,2.1-1.2,3.5c0.2,3.6,1.3,7,2.3,10.4c1.2,3.8,0.6,4.8-3.2,5.4
				c-1.2,0.2-3.2-0.5-3,1.5c0.2,1.7,2.2,1.1,3.3,1.1c4.8,0.1,6.9-2.7,5.7-7.4c-1-4-3.1-7.8-2.7-13.3c2,2.7,3.2,4.3,5.8,4
				c2.3-0.3,1.2,1.8,1.2,2.8c-0.6,10.3-3.8,19.8-8.7,28.9c-1.4,2.7-2.7,5.4-3.7,8.3c-1.7,5-3.7,6.3-9,6.3c-6.2,0-11.9-2-17.4-4.6
				c-6.1-2.9-12-6-16.9-10.7c-0.7-0.7-1.4-1.9-2.6-1.2c-1.5,0.9-0.8,2.4-0.4,3.5c3.5,8.5,9.7,14.6,17,19.8c1.7,1.2,3.5,2.6,5.5,3.1
				c4.9,1.2,5.8,4.2,5.4,8.7c-0.3,3.6,0.4,7.4,0.4,11c0,4.6-2.2,6-6.2,3.6c-11-6.7-21.4-14.4-32-21.7c-2.8-2-5.6-4-8.4-5.8
				C167.6,207.3,167.4,206.2,168.2,204.4z"/>
			<path d="M196.4,250.4c5.3,14.6,7.8,29.7,8.6,45.1c0,1.8-0.1,3.7,0,5.5c0.1,1.7,1,2.7,2.8,2.6c1.9-0.1,3-1.3,2.5-3.2
				c-0.5-2.1-0.7-4.1-0.8-6.2c-0.6-17-4.5-33.3-9.8-49.4c-0.7-2.1-2-2.9-3.9-2.2c-2,0.7-2.2,2.4-1.3,4.2
				C195.2,248.1,196,249.2,196.4,250.4z"/>
			<path d="M345.5,373c0.1,3.3,2.9,5.9,6.2,5.8c4.3-0.1,9.3-5.4,9.3-9.7c-0.1-3.5-2.9-6.3-6.3-6.2C350.1,363,345.3,368.3,345.5,373z
				 M349.5,372.3c0.5-2.7,2.2-4.4,4.9-4.8c1.6-0.2,2.3,0.8,2.4,2.6c-0.7,2.4-2.4,4.1-5.1,4.6C350.2,374.9,349.2,373.9,349.5,372.3z"
				/>
			<path d="M211.7,142.6c4.9-1,9.6-0.4,14.2,1.4c1.2,0.5,2.4,0.1,2.8-1.4c0.3-1.4-0.6-2.2-1.8-2.6c-2.9-1-5.8-1.8-9.2-1.8
				c-2.1,0.1-4.6,0.3-6.8,1.5c-0.7,0.4-1.3,1-1,1.9C210.1,142.5,210.9,142.7,211.7,142.6z"/>
			<path d="M216.3,176.1c-1.2,1.4-0.1,2.7,1.1,3.7c3.7,3,8,4.3,13,4.5c1.6-0.3,4.5,0.6,4.5-2.1c0-2.6-2.8-1.6-4.5-1.6
				c-4,0-7.8-0.7-11-3.4C218.5,176.3,217.6,174.5,216.3,176.1z"/>
			<path d="M217.7,153.4c0.7,1.5,2.6,1.5,3.8,0.7c1.4-1,3.8-1.4,3.9-3.3c0.1-1.6-1.8-2.5-3.3-3c-3.7-1.4-6.7,0.6-9.7,2.6
				C214.6,151.1,216.6,151.2,217.7,153.4z"/>
			<path d="M177.4,149.1c-0.1-0.6,0-1.6-0.4-2.4c-0.5-1.2-1.7-1.5-3-1.4c-0.9,0.1-1.9,0.8-1.6,1.3c1.7,3.1,0.5,7.2,3.3,9.9
				c0.8,0.8,1.8,1.3,2.8,0.5c0.9-0.7,0.7-1.7,0.1-2.5C177.6,153,176.9,151.3,177.4,149.1z"/>
		</g>
	</g>
	<path class="st8" d="M546.7,96c-6,0-11.9,0-17.9,0c0,6.6,0,13,0,19.6c6.1,0,12,0,17.9,0C546.7,109,546.7,102.5,546.7,96z"/>
	<g>
		<path class="st9" d="M538.8,96.8c-0.1,0-0.3,0-0.4,0c0,0-0.1,0-0.1,0c-0.1,0-0.3,0-0.4,0c0,0,0,0,0,0s0,0,0,0c-0.1,0-0.3,0-0.4,0
			c0,0-0.1,0-0.1,0c-0.1,0-0.3,0-0.4,0c0,0,0,0,0,0c-4.2,0.5-7.5,3.9-7.7,8.2c0,0,0,0,0,0.1c0,0.1,0,0.2,0,0.3c0,0,0,0.1,0,0.1
			c0,0.1,0,0.2,0,0.3c0,0,0,0.1,0,0.1c0,0.1,0,0.2,0,0.3c0,0,0,0.1,0,0.1c0,0.1,0,0.2,0,0.4c0,0,0,0,0,0.1c0,0.3,0.1,0.6,0.2,0.8
			c0,0,0,0,0,0.1c0,0.1,0.1,0.2,0.1,0.3c0,0,0,0.1,0,0.1c0,0.1,0.1,0.2,0.1,0.3c0,0,0,0.1,0,0.1c0,0.1,0.1,0.2,0.1,0.3
			c0,0,0,0,0,0.1c0.1,0.1,0.1,0.2,0.2,0.3c0,0,0,0,0,0c1,2,2.7,3.6,4.9,4.4c0,0,0,0,0,0c0.1,0,0.2,0.1,0.3,0.1c0,0,0.1,0,0.1,0
			c0.1,0,0.2,0,0.3,0.1c0.1,0,0.1,0,0.2,0.1c0.1,0,0.1,0,0.2,0c0.1,0,0.2,0,0.3,0.1c0,0,0.1,0,0.1,0c0.2,0,0.5,0.1,0.7,0.1
			c0,0,0.1,0,0.1,0c0.2,0,0.5,0,0.7,0c0,0,0,0,0,0s0,0,0,0c0.2,0,0.5,0,0.7,0c0,0,0.1,0,0.1,0c0.2,0,0.5-0.1,0.7-0.1
			c0,0,0.1,0,0.1,0c0.1,0,0.2,0,0.3-0.1c0.1,0,0.1,0,0.2,0c0.1,0,0.1,0,0.2-0.1c0.1,0,0.2,0,0.3-0.1c0,0,0.1,0,0.1,0
			c0.1,0,0.2-0.1,0.3-0.1c0,0,0,0,0,0c2.1-0.8,3.9-2.4,4.9-4.4c0,0,0,0,0,0c0.1-0.1,0.1-0.2,0.2-0.3c0,0,0,0,0-0.1
			c0-0.1,0.1-0.2,0.1-0.3c0,0,0-0.1,0-0.1c0-0.1,0.1-0.2,0.1-0.3c0,0,0-0.1,0-0.1c0-0.1,0.1-0.2,0.1-0.3c0,0,0,0,0-0.1
			c0.1-0.3,0.1-0.5,0.2-0.8c0,0,0,0,0-0.1c0-0.1,0-0.2,0-0.4c0,0,0-0.1,0-0.1c0-0.1,0-0.2,0-0.3c0,0,0-0.1,0-0.1c0-0.1,0-0.2,0-0.3
			c0,0,0-0.1,0-0.1c0-0.1,0-0.2,0-0.3c0,0,0,0,0-0.1c-0.1-1.4-0.5-2.7-1.2-3.9l-5.9,5.9c-0.4,0.4-1,0.7-1.6,0.7
			c-0.6,0-1.2-0.2-1.6-0.6c-0.9-0.9-0.9-2.3,0-3.2l5.9-5.9C541.1,97.4,540,97,538.8,96.8C538.8,96.8,538.8,96.8,538.8,96.8z"/>
		<rect x="468.8" y="185.3" class="st7" width="40.5" height="1.8"/>
		<path class="st7" d="M499.1,197.4h5.7c0.1,0,0.3-0.1,0.3-0.3v-3.2c0-0.1-0.1-0.3-0.3-0.3h-5.7c-0.1,0-0.3,0.1-0.3,0.3v3.2
			C498.8,197.3,498.9,197.4,499.1,197.4z"/>
		<path class="st4" d="M471.4,212.3h35.3c1.4,0,2.6-1.2,2.6-2.6v-21.1h-40.5v21.1C468.8,211.1,469.9,212.3,471.4,212.3z
			 M497.3,193.9c0-1,0.8-1.7,1.7-1.7h5.7c1,0,1.7,0.8,1.7,1.7v3.2c0,1-0.8,1.7-1.7,1.7h-5.7c-1,0-1.7-0.8-1.7-1.7V193.9z
			 M497.3,203.8c0-1,0.8-1.7,1.7-1.7h5.7c1,0,1.7,0.8,1.7,1.7v3.2c0,1-0.8,1.7-1.7,1.7h-5.7c-1,0-1.7-0.8-1.7-1.7V203.8z
			 M484.4,193.9c0-1,0.8-1.7,1.7-1.7h5.7c1,0,1.7,0.8,1.7,1.7v3.2c0,1-0.8,1.7-1.7,1.7h-5.7c-1,0-1.7-0.8-1.7-1.7V193.9z
			 M484.4,203.8c0-1,0.8-1.7,1.7-1.7h5.7c1,0,1.7,0.8,1.7,1.7v3.2c0,1-0.8,1.7-1.7,1.7h-5.7c-1,0-1.7-0.8-1.7-1.7V203.8z
			 M471.6,193.9c0-1,0.8-1.7,1.7-1.7h5.7c1,0,1.7,0.8,1.7,1.7v3.2c0,1-0.8,1.7-1.7,1.7h-5.7c-1,0-1.7-0.8-1.7-1.7V193.9z
			 M471.6,203.8c0-1,0.8-1.7,1.7-1.7h5.7c1,0,1.7,0.8,1.7,1.7v3.2c0,1-0.8,1.7-1.7,1.7h-5.7c-1,0-1.7-0.8-1.7-1.7V203.8z"/>
		<path class="st4" d="M509.2,180.5c0-1.4-1.2-2.6-2.6-2.6h-3.4v1.8c0,1.4-1.1,2.5-2.5,2.5c-1.4,0-2.5-1.1-2.5-2.5v-1.8h-6.6v1.8
			c0,1.4-1.1,2.5-2.5,2.5c-1.4,0-2.5-1.1-2.5-2.5v-1.8h-6.7v1.8c0,1.4-1.1,2.5-2.5,2.5c-1.4,0-2.5-1.1-2.5-2.5v-1.8h-3.4
			c-1.4,0-2.6,1.2-2.6,2.6v3.3h40.5V180.5z"/>
		<path class="st7" d="M477.3,180.7c0.5,0,1-0.3,1-1v-5c0-0.6-0.5-1-1-1c-0.6,0-1,0.5-1,1v2.4c0,0.1,0,0.1,0,0.2v2.4
			C476.3,180.4,476.8,180.7,477.3,180.7z"/>
		<path class="st7" d="M489,180.7c0.5,0,1-0.3,1-1v-2.4c0-0.1,0-0.1,0-0.2v-2.4c0-0.6-0.5-1-1-1c-0.6,0-1,0.5-1,1v5
			C488,180.4,488.5,180.7,489,180.7z"/>
		<path class="st7" d="M473.3,197.4h5.7c0.1,0,0.3-0.1,0.3-0.3v-3.2c0-0.1-0.1-0.3-0.3-0.3h-5.7c-0.1,0-0.3,0.1-0.3,0.3v3.2
			C473,197.3,473.2,197.4,473.3,197.4z"/>
		<path class="st7" d="M473.3,207.3h5.7c0.1,0,0.3-0.1,0.3-0.3v-3.2c0-0.1-0.1-0.3-0.3-0.3h-5.7c-0.1,0-0.3,0.1-0.3,0.3v3.2
			C473,207.1,473.2,207.3,473.3,207.3z"/>
		<path class="st7" d="M486.2,207.3h5.7c0.1,0,0.3-0.1,0.3-0.3v-3.2c0-0.1-0.1-0.3-0.3-0.3h-5.7c-0.1,0-0.3,0.1-0.3,0.3v3.2
			C485.9,207.1,486,207.3,486.2,207.3z"/>
		<path class="st7" d="M499.1,207.3h5.7c0.1,0,0.3-0.1,0.3-0.3v-3.2c0-0.1-0.1-0.3-0.3-0.3h-5.7c-0.1,0-0.3,0.1-0.3,0.3v3.2
			C498.8,207.1,498.9,207.3,499.1,207.3z"/>
		<path class="st7" d="M486.2,197.4h5.7c0.1,0,0.3-0.1,0.3-0.3v-3.2c0-0.1-0.1-0.3-0.3-0.3h-5.7c-0.1,0-0.3,0.1-0.3,0.3v3.2
			C485.9,197.3,486,197.4,486.2,197.4z"/>
		<path class="st7" d="M500.7,180.7c0.5,0,1-0.3,1-1v-5c0-0.6-0.5-1-1-1c-0.6,0-1,0.5-1,1v2.4c0,0.1,0,0.1,0,0.2v2.4
			C499.7,180.4,500.2,180.7,500.7,180.7z"/>
		<path class="st7" d="M476.4,258.9l1.2,0l2.7,0c1.8,0,3.7,0,5.5,0c0,0,0,0,0,0h0c0.5,0,0.9,0.2,1.3,0.5c0.5,0.5,1,0.9,1.4,1.3
			c0.1,0.1,0.3,0.1,0.4,0.1c1.7,0,3.4,0,5.2,0c1.6,0,3.2,0,4.8,0c0.1,0,0.2-0.1,0.3-0.1c0.4-0.3,0.8-0.7,1.2-1.1l0.2-0.2
			c0.4-0.3,0.8-0.5,1.3-0.5c1.9,0,3.9,0,5.8,0l2.5,0l1.1,0h6.9c0-0.1,0-0.1,0-0.2c0-0.8,0-1.5,0-2.3c0-9.8,0-19.6,0-29.4
			c0-0.6-0.1-0.7-0.7-0.7l-47.4,0c-0.3,0-0.4,0.1-0.4,0.1c-0.1,0.1-0.1,0.2-0.1,0.4c0,8.1,0,16.3,0,24.4l0,5.1l0,2.3
			c0,0,0,0.1,0,0.1H476.4z M509.3,245.3c-0.1,0.2-0.4,0.4-0.6,0.4c-0.1,0-0.3,0-0.4-0.1l-3.3-1.9c-0.2-0.1-0.4-0.4-0.4-0.6
			c0-0.1,0-0.3,0.1-0.4c0.1-0.2,0.4-0.4,0.6-0.4c0.1,0,0.3,0,0.4,0.1l3.4,1.9c0.2,0.1,0.4,0.4,0.4,0.6
			C509.4,245.1,509.3,245.2,509.3,245.3z M509.4,236.6c0.1,0,0.1,0,0.2,0c0.3,0,0.6,0.2,0.7,0.5c0,0.1,0,0.1,0,0.2
			c0,0.3-0.2,0.6-0.5,0.7l-3.7,1c-0.1,0-0.1,0-0.2,0c-0.3,0-0.6-0.2-0.7-0.5c0-0.1,0-0.1,0-0.2c0-0.3,0.2-0.6,0.5-0.7L509.4,236.6z
			 M502.3,234.1l1.9-3.3c0,0,0-0.1,0-0.1c0.1-0.2,0.3-0.3,0.6-0.3c0.1,0,0.3,0,0.4,0.1c0.2,0.1,0.4,0.4,0.4,0.6c0,0.1,0,0.3-0.1,0.4
			l-1.9,3.4c-0.1,0.2-0.4,0.4-0.6,0.4c-0.1,0-0.2,0-0.4-0.1c-0.2-0.1-0.4-0.4-0.4-0.6C502.2,234.3,502.3,234.2,502.3,234.1z
			 M478,242.5c0.6-1,1.5-1.7,2.6-2c0.8-0.2,1.2-0.3,1.6-0.4c0.6-0.1,0.9-0.2,2.1-0.6c4.3-1.4,7.7-3.8,9.4-6.7c0,0,0-0.1,0-0.1
			l-0.1-0.5c-0.1-0.2-0.1-0.4-0.1-0.6c0-0.4,0.1-0.8,0.3-1.2c0.3-0.6,0.8-1,1.5-1.1c0.2-0.1,0.4-0.1,0.6-0.1c0.4,0,0.8,0.1,1.2,0.3
			c0.6,0.3,1,0.8,1.1,1.5l1.5,5.7c0,0.1,0.1,0.1,0.2,0.1l1.2,0c0.9,0,1.7,0.6,1.9,1.5l0.4,1.4c0,0.2,0.1,0.4,0.1,0.5
			c0,0.7-0.4,1.4-1,1.7l-1.1,0.6c-0.1,0-0.1,0.1-0.1,0.2l1.5,5.7c0.1,0.2,0.1,0.4,0.1,0.6c0,0.4-0.1,0.8-0.3,1.2
			c-0.3,0.6-0.8,1-1.5,1.1c-0.2,0.1-0.4,0.1-0.6,0.1c-1.1,0-2-0.7-2.3-1.8l-0.1-0.5c0,0,0-0.1-0.1-0.1c-1.9-1.1-4.2-1.6-6.8-1.6
			c-1.2,0-2.4,0.1-3.7,0.3c-0.1,0-0.1,0-0.1,0.1c0,0.1,0,0.1,0,0.2l2.9,5c0.2,0.4,0.4,0.9,0.4,1.3c0,0.2,0,0.5-0.1,0.7
			c-0.2,0.7-0.6,1.3-1.2,1.6c-0.4,0.2-0.9,0.4-1.3,0.4c-0.2,0-0.5,0-0.7-0.1c-0.7-0.2-1.3-0.6-1.6-1.2l-3.8-6.5
			c0-0.1-0.1-0.1-0.2-0.1c0,0,0,0,0,0c-2,0-3.7-1.3-4.2-3.3c-0.1-0.4-0.2-0.8-0.2-1.2C477.4,243.9,477.6,243.1,478,242.5z"/>
		<path class="st4" d="M481.8,247.7c0.2,0,0.5,0,0.7-0.1c0.8-0.2,1.2-0.3,1.6-0.5c0.1,0,0.1,0,0.1,0c0,0,0.1,0,0.1-0.1s0-0.1,0-0.1
			l-1.4-5.4c0-0.1-0.1-0.1-0.2-0.1c0,0,0,0,0,0c-0.1,0-0.1,0-0.2,0l-0.2,0c-0.3,0.1-0.7,0.2-1.4,0.3c-0.7,0.2-1.3,0.7-1.7,1.3
			c-0.2,0.4-0.4,0.9-0.4,1.4c0,0.3,0,0.6,0.1,0.8C479.4,246.8,480.5,247.7,481.8,247.7z"/>
		<path class="st4" d="M501,241C501,241.1,501.1,241.1,501,241c0.1,0,0.1,0,0.2,0l0.6-0.4c0.2-0.1,0.3-0.3,0.3-0.5
			c0-0.1,0-0.1,0-0.2l-0.4-1.4c-0.1-0.2-0.3-0.4-0.5-0.4c0,0-0.7,0-0.7,0c-0.1,0-0.1,0-0.1,0.1c0,0,0,0.1,0,0.2l0.7,2.5
			C500.9,241,501,241,501,241z"/>
		<path class="st4" d="M486,246.7C486,246.7,486,246.7,486,246.7c0.1,0,0.2,0,0.3-0.1c1.7-0.4,3.4-0.6,5-0.6c2.2,0,4.2,0.4,6,1.1
			c0,0,0,0,0.1,0c0,0,0.1,0,0.1,0c0.1,0,0.1-0.1,0.1-0.2l-3.2-12c0-0.1-0.1-0.1-0.1-0.1c0,0,0,0,0,0c-0.1,0-0.1,0-0.1,0.1
			c-2.1,2.6-5.2,4.6-9.3,6c-0.1,0-0.2,0.1-0.2,0.1c-0.1,0-0.2,0.1-0.2,0.2l1.4,5.4C485.8,246.6,485.9,246.7,486,246.7z"/>
		<path class="st4" d="M485.7,248.3C485.7,248.3,485.7,248.3,485.7,248.3c-0.5,0.1-0.8,0.2-1.1,0.3c-0.3,0.1-0.6,0.2-0.9,0.3
			c-0.1,0-0.1,0.1-0.1,0.1c0,0.1,0,0.1,0,0.2l3.4,6c0.2,0.3,0.4,0.5,0.7,0.6c0.1,0,0.2,0,0.3,0c0.2,0,0.4-0.1,0.6-0.2
			c0.3-0.2,0.5-0.4,0.6-0.7c0-0.1,0-0.2,0-0.3c0-0.2-0.1-0.4-0.2-0.6l-3.2-5.5C485.9,248.3,485.8,248.3,485.7,248.3z"/>
		<path class="st4" d="M499.7,249.3c0.1,0.4,0.5,0.7,0.9,0.7c0.1,0,0.2,0,0.2,0c0.2-0.1,0.4-0.2,0.5-0.4c0.1-0.1,0.1-0.3,0.1-0.5
			c0-0.1,0-0.2,0-0.2l-4.7-17.6c-0.1-0.2-0.2-0.4-0.4-0.5c-0.1-0.1-0.3-0.1-0.5-0.1c-0.1,0-0.2,0-0.2,0c-0.2,0.1-0.4,0.2-0.5,0.4
			c-0.1,0.1-0.1,0.3-0.1,0.5c0,0.1,0,0.2,0,0.2L499.7,249.3z"/>
		<path d="M452.8,172.2c-13.1,0-26.2,0.1-39.3,0c-1.7,0-2.3,0.6-2.2,2.3c0.1,6,0.1,12,0,18c0,1.6,0.7,1.9,2.1,1.9c6.5,0,13,0,19.4,0
			c0,0,0,0,0,0c6.6,0,13.2,0,19.8,0c1.4,0,2.1-0.3,2.1-1.9c-0.1-6.1,0-12.1,0-18.2C454.9,172.8,454.3,172.2,452.8,172.2z"/>
		<path d="M368.6,194.4C368.6,194.4,368.6,194.4,368.6,194.4c6.5,0,13.1,0,19.6,0c1.4,0,2.1-0.3,2.1-1.9c-0.1-6.1-0.1-12.3,0-18.4
			c0-1.4-0.5-1.9-1.9-1.9c-13,0-26,0.1-39.1,0c-1.5,0-2.2,0.5-2.2,2.1c0.1,5.9,0.1,11.9,0,17.8c0,1.8,0.6,2.3,2.4,2.3
			C355.9,194.4,362.2,194.4,368.6,194.4z"/>
		<path d="M377,103.3c6.8-0.1,13.5-0.1,20.3,0c1.5,0,2.1-0.4,2-2c-0.1-2.8,0-5.7,0-8.7c6.8,0,13.5,0,20.3,0
			c-0.5,2.7-0.1,5.3-0.1,7.8c0,2.8,0,2.8,3,2.8c6.6,0,13.2-0.1,19.9,0.1c1.8,0,2.2-0.6,2.2-2.2c-0.1-2.8,0-5.5,0-8.5
			c7.1,0,13.8,0,20.9,0c0,3,0.1,5.8,0,8.5c-0.1,1.7,0.5,2.1,2.1,2.1c6.6-0.1,13.2-0.1,19.9,0c1.7,0,2.1-0.6,2.1-2.2
			c-0.1-6.8-0.1-13.5,0-20.3c0-1.5-0.4-2-2-2c-6.7,0.1-13.4,0.1-20.1,0c-1.7,0-2.1,0.7-2,2.2c0.1,3,0,5.9,0,8.9c-7.1,0-14,0-20.9,0
			c0-3.1-0.1-6,0-8.9c0.1-1.7-0.5-2.2-2.2-2.2c-6.8,0.1-13.6,0.1-20.5,0c-1.9,0-2.5,0.6-2.4,2.5c0.1,2.9,0,5.8,0,8.7
			c-6.9,0-13.5,0-20.2,0c0-3.2,0-6.2,0-9.3c0-1.3-0.4-1.9-1.7-1.9c-6.9,0-13.8,0-20.7,0c-1.3,0-1.8,0.4-1.8,1.8c0,7,0,13.9,0,20.9
			C375,102.9,375.6,103.3,377,103.3z M467.9,81.3c6.4,0,12.5,0,18.9,0c0,6.5,0,12.9,0,19.4c-6.2,0-12.5,0-18.9,0
			C467.9,94.2,467.9,87.8,467.9,81.3z M422.1,81.3c6.5,0,13,0,19.6,0c0,6.4,0,12.8,0,19.4c-6.5,0-13,0-19.6,0
			C422.1,94.2,422.1,87.9,422.1,81.3z M377.7,81.3c6.4,0,12.7,0,19.1,0c0,6.5,0,12.9,0,19.5c-6.4,0-12.7,0-19.1,0
			C377.7,94.2,377.7,87.9,377.7,81.3z"/>
		<path d="M448.1,134.6c0-8.9-6.7-15.5-15.6-15.5c-8.9,0-15.7,6.7-15.7,15.4c0,8.8,6.8,15.5,15.6,15.5
			C441.2,150,448.1,143.3,448.1,134.6z"/>
		<path d="M553.7,54.8c1.3,0,2.6-0.2,3.7,0.3c0.5,0.7-0.2,1.6,0.8,2.3c1.8-1.1,3.7-2.2,5.5-3.4c0.6-0.4,0.7-1.2-0.1-1.7
			c-1.5-1.1-3-2.2-4.5-3.2c-0.9-0.6-1.6-0.4-1.7,0.8c0,0.5-0.1,0.9-0.1,1.8c-1,0-1.9,0-2.8,0c-33.8,0-67.6,0-101.3,0
			c-37.9,0-75.9,0-113.8,0c-0.5,0-1,0-1.4,0c-0.9,0.1-1.2,0.7-1.2,1.6c0,0.9,0.4,1.4,1.3,1.5c0.5,0,1.1,0,1.6,0
			c18.1,0,36.2,0,54.2,0C447.3,54.8,500.5,54.7,553.7,54.8z"/>
		<path d="M339.8,41.9c10.5,0,21,0,31.5,0c6.9,0,13.8,0,20.7,0c1.8,0,2.7-0.7,2.6-2.5c-0.1-2.6,0-5.2-0.1-7.8c-0.2-3,0-5.9,0-8.9
			c4.2,0,7.8,0,11.5,0c0,0.7,0.1,1.2,0.1,1.7c0,1.5,0.6,1.9,1.9,1.1c1.7-1.1,3.5-2.1,5.2-3.3c1.6-1.1,1.6-1.8,0.1-2.9
			c-1.1-0.8-2.2-1.6-3.4-2.3c-3.5-2.2-3.5-2.2-4,1.9c-3.6,0-7.3,0-11.1,0c0-0.9,0-1.8,0-2.7c0-4.6,0-9.1,0.1-13.7
			c0-1.8-0.7-2.6-2.5-2.6c-17.5,0-35.1,0-52.6,0c-2.3,0-2.8,0.5-2.8,2.7c0,12.1,0,24.1,0,36.2C336.7,41.4,337.3,41.9,339.8,41.9z
			 M339.8,4.5c0-1.7,0.5-2.2,2.2-2.2c8,0.1,16,0,23.9,0c0,0,0,0,0,0c7.9,0,15.8,0,23.7,0c1.7,0,2,0.5,2,2.1
			c-0.1,10.9-0.1,21.8-0.1,32.7c0,1.9-0.5,2.4-2.4,2.4c-15.6-0.1-31.2-0.1-46.8,0c-2.1,0-2.6-0.6-2.6-2.7
			C339.9,26.1,339.9,15.3,339.8,4.5z"/>
		<path d="M421.7,42c17.1,0,34.2,0,51.4,0c3.7,0,3.7,0,3.7-3.6c0-5.2,0-10.3,0-15.6c3.9,0,7.5,0,11.4,0c0,0.8,0,1.3,0,1.9
			c0,1.5,0.7,1.9,1.9,1.1c1.9-1.2,3.8-2.4,5.6-3.7c1.1-0.7,1-1.5-0.1-2.2c-1.4-1-2.8-2-4.2-2.9c-0.8-0.5-1.5-1.7-2.7-1.2
			c-1.2,0.5-0.3,1.8-0.6,2.8c0,0.1-0.1,0.2-0.2,0.4c-3.7,0-7.4,0-11.2,0c0-5.4,0-10.6,0-15.8c0-2.9-0.2-3.1-3.2-3.1
			c-17.3,0-34.5,0-51.8,0c-2.7,0-2.9,0.2-3,2.9c0,12.1,0,24.3,0,36.4C418.8,41.6,419.2,42,421.7,42z M421.9,2.6
			c0.4-0.4,0.9-0.3,1.3-0.3c16.2,0,32.3,0,48.5,0c1.4,0,2.1,0.3,2.1,1.9c-0.1,11.3,0,22.6-0.1,34c0,0.3-0.1,0.7-0.1,1.2
			c-17.3,0-34.4,0-51.7,0C421.9,27.1,421.9,14.9,421.9,2.6z"/>
		<path d="M504.2,42.1c8.9,0,17.9,0,26.8,0c0,0,0,0,0,0c8.9,0,17.7,0,26.6,0c2.8,0,3-0.3,3-3c0-11.8,0-23.6,0-35.4
			c0-3-0.2-3.3-3.2-3.3c-17.7,0-35.3,0-53,0c-2.7,0-3.1,0.4-3.1,3.1c0,11.9,0,23.9,0,35.8C501.4,41.7,501.8,42.1,504.2,42.1z
			 M506.5,2.8c12.3,0.1,24.6,0.1,36.8,0.1c4,0,7.9,0,11.9,0c0.8,0,1.6-0.2,2.5,0.4c0,12,0,24.1,0,36.3c-17.8,0-35.4,0-53.3,0
			c0-9.8,0-19.4,0-29c0-1.8,0.1-3.7-0.1-5.5C504.2,3.2,504.9,2.8,506.5,2.8z"/>
		<path d="M443.3,220.5c-3,0.1-6,0-9.1,0c0-8.1,0-15.9,0-23.7c-0.9-0.1-1.7-0.2-2.6,0.1c0,7.8,0,15.6,0,23.5c-20.4,0-40.6,0-61,0
			c0-7.9,0-15.8,0-23.6c-0.9-0.2-1.6-0.3-2.5,0.1c0,7.8,0,15.6,0,23.6c-1.9,0-3.7,0-5.5,0c-4.6,0-3.8-0.2-3.9,3.8c0,4.5,0,9,0,13.4
			c1,0.3,1.7,0.4,2.5-0.1c0-4.7,0-9.6,0-14.4c13.2,0,26.2,0,39.3,0c0,5,0,9.8,0,14.5c0.9,0.3,1.6,0.3,2.6-0.1c0-4.8,0-9.7,0-14.5
			c13.4,0,26.5,0,39.8,0c0,4.9,0,9.8,0,14.7c0.9,0.1,1.7,0.3,2.6-0.2c0-4.9-0.1-9.9,0-14.9C445.6,221,445,220.4,443.3,220.5z"/>
		<path d="M401.9,240.2c-6.3,0-11.6,5-11.5,11.1c0,6.2,5.1,11.1,11.7,11c6.8,0,11.6-4.7,11.6-11.1
			C413.6,245.1,408.4,240.3,401.9,240.2z"/>
		<path d="M444.3,240.2c-6.5-0.1-11.7,4.9-11.8,11.1c0,6.1,5.2,11,11.6,11c6.8,0,11.8-4.5,11.8-10.9
			C455.9,245.1,450.9,240.3,444.3,240.2z"/>
		<path d="M360.1,240.3c-6.5-0.1-11.8,4.8-11.9,11c-0.1,5.9,5,11,11.3,11.1c6.7,0.1,11.9-4.6,12-10.8
			C371.6,245.4,366.5,240.3,360.1,240.3z"/>
		<path d="M413.8,137c0-0.8,0-1.5,0-2c-0.4-0.5-0.8-0.4-1.2-0.4c-14.2,0-28.4,0-42.5,0c-1.6,0-2.1,0.6-2.1,2.1
			c0.1,8.2,0.1,16.5,0.1,24.7c0,0.8,0.2,1.6-0.2,2.3c-1.1,0.6-2.4-0.4-3.3,0.8c0.2,0.9,0.9,1.5,1.4,2.2c3,4,3.1,4,6.2,0.2
			c0.6-0.7,1.6-1.3,1.3-2.4c-0.4-1.2-1.7-0.4-2.5-0.7c-0.1,0-0.2-0.1-0.3-0.2c0-8.8,0-17.7,0-26.7C385.1,137,399.4,137,413.8,137z"
			/>
		<path d="M487.1,164.1c-0.7,0.1-1.8-0.4-2.2,0.7c-0.3,0.8,0.6,1.3,1,1.9c0.1,0.2,0.3,0.3,0.4,0.5c3,3.7,3,3.7,5.8,0
			c0.6-0.7,1.7-1.3,1.3-2.4c-0.4-1.2-1.7-0.4-2.5-0.7c-0.1,0-0.2-0.1-0.5-0.3c0-1.1,0-2.3,0-3.6c0-7.8,0-15.7,0.1-23.5
			c0-1.4-0.3-2.1-1.9-2c-11.1,0.1-22.1,0-33.2,0c-1.5,0-3,0-4.4,0c-0.3,0.9-0.3,1.6,0,2.6c12.3,0,24.6,0,36.9,0c0,9,0,17.9,0,26.8
			C487.6,164,487.4,164.1,487.1,164.1z"/>
		<path d="M431.6,152.8c0,3.6,0,7.3,0,11.2c-0.7,0-1.1,0-1.5,0c-0.6,0.1-1.3-0.2-1.7,0.5c-0.4,0.8,0.3,1.2,0.7,1.8
			c0.2,0.2,0.3,0.4,0.5,0.7c3.1,4,3.1,4.1,6.2,0c0.5-0.7,1.7-1.3,1.2-2.4c-0.5-1-1.6-0.3-2.4-0.6c-0.1,0-0.2-0.1-0.6-0.4
			c0-3.5,0-7.2,0-10.9C433,152.5,432.4,152.4,431.6,152.8z"/>
		<path d="M408.9,185c0.2-0.8,0.2-1.6,0-2.3c-5.3,0-10.6,0-15.9,0c-0.1,0.9-0.3,1.6,0.1,2.3C398.4,185,403.7,185,408.9,185z"/>
		<path d="M431.2,116.3c0.8,0.1,1.5,0.2,2.2-0.1c0-3.8,0-7.5,0-11.3c-0.7-0.4-1.4-0.3-2.4-0.2C431.2,108.7,430.8,112.5,431.2,116.3z
			"/>
		<path class="st8" d="M441.8,81.3c-6.6,0-13.1,0-19.6,0c0,6.5,0,12.9,0,19.4c6.6,0,13.1,0,19.6,0C441.8,94.2,441.8,87.8,441.8,81.3
			z"/>
		<path class="st7" d="M396.7,81.3c-6.4,0-12.6,0-19.1,0c0,6.6,0,13,0,19.5c6.4,0,12.7,0,19.1,0C396.7,94.2,396.7,87.8,396.7,81.3z"
			/>
		<path class="st7" d="M486.9,81.3c-6.4,0-12.6,0-18.9,0c0,6.6,0,12.9,0,19.4c6.4,0,12.7,0,18.9,0C486.9,94.2,486.9,87.8,486.9,81.3
			z"/>
		<path class="st7" d="M342.4,39.5c15.6-0.1,31.2-0.1,46.8,0c1.9,0,2.4-0.5,2.4-2.4c-0.1-10.9,0-21.8,0.1-32.7c0-1.6-0.4-2.1-2-2.1
			c-7.9,0.1-15.8,0-23.7,0c0,0,0,0,0,0c-8,0-16,0-23.9,0c-1.7,0-2.2,0.4-2.2,2.2c0.1,10.8,0.1,21.5,0,32.3
			C339.8,38.9,340.3,39.5,342.4,39.5z M354.6,8.4c1.9,0,3.6,1.6,3.6,3.5c0,2-1.8,3.5-4,3.5c-1.9-0.1-3.3-1.5-3.3-3.4
			C350.9,10.1,352.6,8.4,354.6,8.4z M345.1,31.3c3.9-3.8,7.5-7.7,11-11.9c0.9-1.1,1.9-1.2,3-0.5c0.3,0.2,0.6,0.4,0.9,0.5
			c3.4,2.2,3.4,2.2,6.3-0.9c1.8-1.9,3.6-3.9,5.4-5.9c1.6-1.7,2.6-1.7,3.9,0.2c4,6.1,8,12.2,12.3,18.1c0.6,0.8,1.3,1.7,0.8,2.8
			c-0.5,1.2-1.8,0.8-2.7,0.8c-6.5,0-13.1,0-19.6,0c0,0,0,0,0,0c-6.6,0-13.2,0-19.8,0c-0.9,0-1.9,0.2-2.3-0.8
			C343.7,32.7,344.4,32,345.1,31.3z"/>
		<path class="st8" d="M473.8,38.2c0-11.3,0-22.6,0.1-34c0-1.6-0.6-1.9-2.1-1.9c-16.2,0-32.3,0-48.5,0c-0.5,0-1-0.1-1.3,0.3
			c0,12.3,0,24.5,0,36.7c17.3,0,34.4,0,51.7,0C473.7,38.8,473.8,38.5,473.8,38.2z M434.2,9.9c3.4,0,6.8,0,10.2,0c4.5,0,9,0,13.5,0
			c1,0,2.5-0.5,2.5,1.2c0,1.7-1.4,1.3-2.4,1.3c-3.8,0-7.6,0-11.4,0c0,0,0,0,0,0c-3.7,0-7.4,0-11,0c-0.5,0-1,0-1.4,0
			c-0.9,0-1.4-0.5-1.4-1.4C432.8,10.1,433.5,9.9,434.2,9.9z M433.9,16.9c2.3,0,4.6,0,7,0c2.5,0,4.9,0,7.4,0c0,0,0,0,0,0
			c4.3,0,8.6,0,12.9,0c0.9,0,2.2-0.3,2.1,1.2c0,1.4-1.3,1.1-2.2,1.1c-8.7,0-17.3,0-26,0c-0.4,0-0.8,0-1.2,0c-0.7,0-1.2-0.5-1.2-1.2
			C432.6,17.2,433.2,16.9,433.9,16.9z M449.8,32.9c-5.2,0-10.5-0.1-15.7-0.1c-0.8,0-1.4-0.3-1.4-1.1c0-1,0.7-1.2,1.5-1.2
			c2.7,0,5.3,0,8,0c0,0,0,0,0,0c2.5,0,5,0,7.6,0c0.8,0,1.5,0.1,1.5,1.2C451.3,32.5,450.7,32.9,449.8,32.9z M461.4,26
			c-8.9,0-17.7,0-26.6-0.1c-1,0-2.2,0.1-2.1-1.2c0-1.2,1.2-1.1,2.1-1.1c4.5,0,9,0,13.5,0c0,0,0,0,0,0c4.4,0,8.7,0,13.1,0
			c1,0,2.1-0.1,2.1,1.3C463.4,26,462.3,26,461.4,26z"/>
		<path class="st7" d="M504.4,10.5c0,9.6,0,19.2,0,29c17.9,0,35.6,0,53.3,0c0-12.2,0-24.3,0-36.3c-0.8-0.5-1.7-0.4-2.5-0.4
			c-4,0-7.9,0-11.9,0c-12.3,0-24.6,0-36.8-0.1c-1.7,0-2.3,0.4-2.2,2.2C504.5,6.8,504.4,8.6,504.4,10.5z M531.4,7.5
			c7.7,0.1,13.8,6.4,13.6,13.9c-0.1,7.6-6.2,13.3-14,13.2c-7.9-0.1-13.8-6.1-13.8-13.7C517.4,13.4,523.7,7.4,531.4,7.5z"/>
		<path d="M346.5,34.6c6.6,0,13.2,0,19.8,0c0,0,0,0,0,0c6.5,0,13.1,0,19.6,0c1,0,2.2,0.4,2.7-0.8c0.5-1.1-0.2-2-0.8-2.8
			c-4.3-5.9-8.3-12-12.3-18.1c-1.2-1.9-2.3-1.9-3.9-0.2c-1.8,2-3.6,4-5.4,5.9c-2.9,3-2.9,3-6.3,0.9c-0.3-0.2-0.6-0.4-0.9-0.5
			c-1.2-0.7-2.1-0.6-3,0.5c-3.5,4.1-7.1,8.1-11,11.9c-0.7,0.7-1.4,1.4-1,2.5C344.6,34.8,345.6,34.6,346.5,34.6z M361.2,28.4
			c3-3.1,6-6.3,9-9.4c0.5-0.6,1.1-1.4,2-0.5c0.2,0.6-0.3,0.9-0.6,1.3c-3,3.3-6.1,6.6-9.1,9.9c-0.4,0.5-0.9,1-1.5,0.5
			C360.3,29.5,360.7,28.9,361.2,28.4z"/>
		<path d="M354.2,15.4c2.2,0.1,3.9-1.4,4-3.5c0-1.8-1.6-3.4-3.6-3.5c-2,0-3.7,1.6-3.7,3.5C350.9,13.9,352.3,15.3,354.2,15.4z"/>
		<path d="M461.3,23.6c-4.4,0-8.7,0-13.1,0c0,0,0,0,0,0c-4.5,0-9,0-13.5,0c-0.9,0-2-0.1-2.1,1.1c0,1.3,1.2,1.2,2.1,1.2
			c8.9,0,17.7,0,26.6,0.1c0.9,0,2,0,2-1.1C463.5,23.5,462.3,23.6,461.3,23.6z"/>
		<path d="M434.1,12.4c0.5,0,1,0,1.4,0c3.7,0,7.4,0,11,0c0,0,0,0,0,0c3.8,0,7.6,0,11.4,0c1,0,2.5,0.4,2.4-1.3c0-1.7-1.6-1.2-2.5-1.2
			c-4.5,0-9,0-13.5,0c-3.4,0-6.8,0-10.2,0c-0.8,0-1.4,0.2-1.5,1C432.7,11.9,433.2,12.3,434.1,12.4z"/>
		<path d="M433.8,19.1c0.4,0,0.8,0,1.2,0c8.7,0,17.3,0,26,0c0.9,0,2.2,0.3,2.2-1.1c0-1.5-1.2-1.2-2.1-1.2c-4.3,0-8.6,0-12.9,0
			c0,0,0,0,0,0c-2.5,0-4.9,0-7.4,0c-2.3,0-4.6,0-7,0c-0.7,0-1.3,0.3-1.3,1C432.7,18.5,433.1,19,433.8,19.1z"/>
		<path d="M449.8,30.4c-2.5,0-5,0-7.6,0c0,0,0,0,0,0c-2.7,0-5.3,0-8,0c-0.8,0-1.5,0.2-1.5,1.2c0,0.8,0.6,1.1,1.4,1.1
			c5.2,0,10.5,0.1,15.7,0.1c0.9,0,1.4-0.4,1.5-1.3C451.3,30.5,450.6,30.4,449.8,30.4z"/>
		<path d="M531,34.7c7.8,0.1,13.9-5.6,14-13.2c0.1-7.6-6-13.8-13.6-13.9c-7.7-0.1-14,5.9-14.1,13.4C517.2,28.6,523.2,34.6,531,34.7z
			 M527,16.4c0.1-1.8,0.9-2.3,2.3-1.3c2.4,1.8,5.1,3.1,7.7,4.6c0.7,0.4,1.4,0.7,1.3,1.6c0,0.9-0.8,1.2-1.5,1.5
			c-2.6,1.4-5.2,2.9-7.8,4.3c-1.4,0.8-2,0.4-2-1.2c0-1.6,0-3.3,0-4.9C527,19.6,527,18,527,16.4z"/>
		<path class="st8" d="M362.5,29.7c3-3.3,6.1-6.6,9.1-9.9c0.3-0.3,0.7-0.7,0.6-1.3c-0.9-0.8-1.4,0-2,0.5c-3,3.1-6,6.3-9,9.4
			c-0.5,0.5-0.9,1.1-0.2,1.7C361.6,30.7,362.1,30.1,362.5,29.7z"/>
		<path class="st8" d="M527,26c0,1.6,0.6,2,2,1.2c2.6-1.5,5.2-2.9,7.8-4.3c0.7-0.4,1.4-0.6,1.5-1.5c0-0.9-0.7-1.2-1.3-1.6
			c-2.6-1.5-5.3-2.8-7.7-4.6c-1.4-1-2.2-0.5-2.3,1.3c0,1.6,0,3.1,0,4.7C527,22.7,527,24.4,527,26z"/>
		<path d="M551.7,95h5.8c0.2,0,0.3-0.1,0.4-0.2l5.8-5.8c0.2-0.2,0.2-0.4,0.1-0.6c-0.1-0.2-0.3-0.4-0.5-0.4h-3.5
			c-0.2,0-0.5-0.1-0.5-0.4c-0.1-0.2,0-0.5,0.1-0.6l0.7-0.7c0.9-0.9,0.9-2.3,0-3.1c-0.4-0.4-1-0.6-1.6-0.6c-0.6,0-1.2,0.2-1.6,0.6
			l-0.7,0.7c-0.1,0.1-0.3,0.2-0.4,0.2c-0.1,0-0.2,0-0.2,0c-0.2-0.1-0.4-0.3-0.4-0.5V80c0-0.2-0.1-0.5-0.4-0.5c-0.1,0-0.2,0-0.2,0
			c-0.2,0-0.3,0.1-0.4,0.2l-5.8,5.8c-0.1,0.1-0.2,0.3-0.2,0.4v5.8c0,0.2-0.1,0.3-0.2,0.4l-2.3,2.3c1.2,0.9,2.3,1.9,3.1,3.1l2.3-2.3
			C551.4,95,551.5,95,551.7,95z"/>
		<path d="M536.2,107.1c0.4,0.4,1,0.6,1.6,0.6c0.6,0,1.2-0.2,1.6-0.7l5.9-5.9c-0.8-1.3-1.8-2.4-3.1-3.1l-5.9,5.9
			C535.4,104.8,535.4,106.2,536.2,107.1z"/>
		<path d="M562,95.4c0,0-0.1,0-0.1,0c-0.2,0-0.3,0.1-0.4,0.2L560,97c-0.4,0.4-1,0.7-1.6,0.9c-0.2,0-0.3,0.1-0.4,0.3
			c-0.1,0.1-0.1,0.3,0,0.5c0.8,2.2,1.1,4.5,1.1,6.9c0,11.8-9.6,21.4-21.4,21.4c-11.8,0-21.4-9.6-21.4-21.4
			c0-11.8,9.6-21.3,21.4-21.3c2.3,0,4.6,0.4,6.8,1.1c0.1,0,0.1,0,0.2,0c0.1,0,0.2,0,0.3-0.1c0.1-0.1,0.3-0.2,0.3-0.4
			c0.1-0.6,0.4-1.1,0.9-1.6l1.5-1.5c0.1-0.1,0.2-0.3,0.2-0.5c0-0.2-0.2-0.4-0.4-0.4c-3.1-1.2-6.4-1.9-9.7-1.9c0,0-0.1,0-0.1,0
			c-14.6,0.1-26.4,11.9-26.4,26.5c0,14.6,11.9,26.5,26.5,26.5h0c0,0,0,0,0,0c7.1,0,13.7-2.8,18.7-7.8c5-5,7.8-11.7,7.7-18.8
			c0-3.3-0.6-6.6-1.9-9.7C562.3,95.6,562.2,95.4,562,95.4z"/>
		<path d="M546.5,105C546.5,105.1,546.5,105.1,546.5,105c0,0.2,0,0.3,0,0.4c0,0,0,0.1,0,0.1c0,0.1,0,0.2,0,0.3c0,0,0,0.1,0,0.1
			c0,0.1,0,0.2,0,0.3c0,0,0,0.1,0,0.1c0,0.1,0,0.2,0,0.4c0,0,0,0,0,0.1c0,0.3-0.1,0.6-0.2,0.8c0,0,0,0,0,0.1c0,0.1-0.1,0.2-0.1,0.3
			c0,0,0,0.1,0,0.1c0,0.1-0.1,0.2-0.1,0.3c0,0,0,0.1,0,0.1c0,0.1-0.1,0.2-0.1,0.3c0,0,0,0,0,0.1c-0.1,0.1-0.1,0.2-0.2,0.3
			c0,0,0,0,0,0c-1,2-2.7,3.6-4.9,4.4c0,0,0,0,0,0c-0.1,0-0.2,0.1-0.3,0.1c0,0-0.1,0-0.1,0c-0.1,0-0.2,0-0.3,0.1
			c-0.1,0-0.1,0-0.2,0.1c-0.1,0-0.1,0-0.2,0c-0.1,0-0.2,0-0.3,0.1c0,0-0.1,0-0.1,0c-0.2,0-0.5,0.1-0.7,0.1c0,0-0.1,0-0.1,0
			c-0.2,0-0.5,0-0.7,0c0,0,0,0,0,0s0,0,0,0c-0.2,0-0.5,0-0.7,0c0,0-0.1,0-0.1,0c-0.2,0-0.5-0.1-0.7-0.1c0,0-0.1,0-0.1,0
			c-0.1,0-0.2,0-0.3-0.1c-0.1,0-0.1,0-0.2,0c-0.1,0-0.1,0-0.2-0.1c-0.1,0-0.2,0-0.3-0.1c0,0-0.1,0-0.1,0c-0.1,0-0.2-0.1-0.3-0.1
			c0,0,0,0,0,0c-2.1-0.8-3.9-2.4-4.9-4.4c0,0,0,0,0,0c-0.1-0.1-0.1-0.2-0.2-0.3c0,0,0,0,0-0.1c0-0.1-0.1-0.2-0.1-0.3
			c0,0,0-0.1,0-0.1c0-0.1-0.1-0.2-0.1-0.3c0,0,0-0.1,0-0.1c0-0.1-0.1-0.2-0.1-0.3c0,0,0,0,0-0.1c-0.1-0.3-0.1-0.5-0.2-0.8
			c0,0,0,0,0-0.1c0-0.1,0-0.2,0-0.4c0,0,0-0.1,0-0.1c0-0.1,0-0.2,0-0.3c0,0,0-0.1,0-0.1c0-0.1,0-0.2,0-0.3c0,0,0-0.1,0-0.1
			c0-0.1,0-0.2,0-0.3c0,0,0,0,0-0.1c0.2-4.3,3.5-7.7,7.7-8.2c0,0,0,0,0,0c0.1,0,0.3,0,0.4,0c0,0,0.1,0,0.1,0c0.1,0,0.3,0,0.4,0
			c0,0,0,0,0,0s0,0,0,0c0.1,0,0.3,0,0.4,0c0,0,0.1,0,0.1,0c0.1,0,0.3,0,0.4,0c0,0,0,0,0,0c1.2,0.1,2.4,0.5,3.4,1.1l3.7-3.7
			c-1.8-1.3-4-2.2-6.3-2.5c0,0-0.1,0-0.1,0c-0.1,0-0.3,0-0.4,0c-0.1,0-0.2,0-0.3,0c-0.1,0-0.2,0-0.3,0c-0.2,0-0.4,0-0.6,0
			c0,0,0,0,0,0s0,0,0,0c-0.2,0-0.4,0-0.6,0c-0.1,0-0.2,0-0.3,0c-0.1,0-0.2,0-0.3,0c-0.1,0-0.3,0-0.4,0c0,0-0.1,0-0.1,0
			c-6,0.8-10.9,5.4-11.9,11.4c0,0,0,0,0,0.1c0,0.1,0,0.3-0.1,0.4c0,0.1,0,0.2,0,0.3c0,0.1,0,0.2,0,0.3c0,0.1,0,0.2,0,0.4
			c0,0.1,0,0.2,0,0.2c0,0.2,0,0.4,0,0.6c0,7.5,6.1,13.7,13.6,13.8c0.1,0,0.2,0,0.3,0c0,0,0,0,0,0c0,0,0,0,0,0c0,0,0,0,0,0
			c0,0,0,0,0,0c0.1,0,0.2,0,0.3,0c7.5-0.1,13.6-6.3,13.6-13.8c0-0.2,0-0.4,0-0.6c0-0.1,0-0.2,0-0.2c0-0.1,0-0.2,0-0.4
			c0-0.1,0-0.2,0-0.3c0-0.1,0-0.2,0-0.3c0-0.1,0-0.3-0.1-0.4c0,0,0,0,0-0.1c-0.4-2.1-1.2-4.1-2.4-5.7l-3.7,3.7
			C546,102.3,546.4,103.6,546.5,105z"/>
		<path d="M545.9,94.3l-3.7,3.7c1.3,0.8,2.4,1.8,3.1,3.1l3.7-3.7C548.1,96.2,547.1,95.1,545.9,94.3z"/>
		<path class="st8" d="M466.1,264.5c0.5,0.9,1.3,1.4,2.6,1.4l50.4,0c1.5,0,2.7-0.9,2.8-2.1c0.1-0.7,0.1-1.5,0-2.3c0-0.3,0-0.6,0-0.8
			h-18.2c-0.2,0-0.4,0-0.6,0c-0.2,0-0.4,0-0.6,0c-0.3,0-0.5,0-0.7,0.1c-0.4,0.1-0.7,0.5-1,0.8c-0.2,0.2-0.3,0.3-0.5,0.5l-0.1,0
			c0,0-0.1,0-0.1,0.1c-0.3,0.3-0.7,0.5-1.3,0.5c-1.2,0-2.5,0-3.7,0H495c-2.1,0-4.2,0-6.4,0c-0.4,0-0.8-0.2-1.1-0.4
			c-0.5-0.3-0.9-0.7-1.3-1.1l-0.1-0.1c-0.2-0.2-0.4-0.3-0.7-0.3c-2.5,0-4.9,0-7.4,0l-12.2,0c0,0.2,0,0.4,0,0.6c0,0.7,0,1.3,0,1.9
			C465.8,263.5,465.9,264,466.1,264.5z"/>
		<path d="M468.5,267.5l9.4,0c6.1,0,21.9,0,21.9,0c0,0,14.4,0,17.8,0h1.6c2.4,0,4.4-1.8,4.5-4.1c0-0.9,0-1.8,0-2.7l0-0.6
			c0-0.7-0.4-1.1-1-1.2c-0.4,0-0.8-0.1-1.1-0.1l-0.3,0c-0.2,0-0.4,0-0.6,0l-0.7,0v-2.4l0-29.4c0-1.5-0.9-2.4-2.4-2.4
			c-0.7,0-1.7,0-2.7,0l-1.9,0c0,0,0,0-0.1,0l-42.5,0c-1.7,0-2.6,0.8-2.6,2.5l0,29.3l0,2.4l-1.6,0c-0.3,0-0.6,0-0.9,0
			c-0.8,0-1.3,0.5-1.3,1.2l0,0.4c0,0.8,0,1.8,0,2.7C464.1,265.7,466.1,267.5,468.5,267.5z M469.6,256.5l0-5.1c0-8.1,0-16.3,0-24.4
			c0-0.2,0-0.4,0.1-0.4c0,0,0.1-0.1,0.4-0.1l47.4,0c0.6,0,0.7,0.1,0.7,0.7c0,9.8,0,19.6,0,29.4c0,0.8,0,1.5,0,2.3c0,0.1,0,0.1,0,0.2
			h-6.9l-1.1,0l-2.5,0c-1.9,0-3.8,0-5.8,0c-0.5,0-0.9,0.2-1.3,0.5l-0.2,0.2c-0.4,0.4-0.8,0.7-1.2,1.1c-0.1,0.1-0.2,0.1-0.3,0.1
			c-1.6,0-3.2,0-4.8,0c-1.7,0-3.4,0-5.2,0c-0.1,0-0.2-0.1-0.4-0.1c-0.5-0.4-0.9-0.8-1.4-1.3c-0.4-0.3-0.8-0.5-1.3-0.5h0c0,0,0,0,0,0
			c-1.8,0-3.7,0-5.5,0l-2.7,0l-1.2,0h-6.8c0-0.1,0-0.1,0-0.1L469.6,256.5z M465.8,261.2c0-0.2,0-0.4,0-0.6l12.2,0c2.5,0,4.9,0,7.4,0
			c0.3,0,0.5,0.1,0.7,0.3l0.1,0.1c0.4,0.4,0.8,0.8,1.3,1.1c0.4,0.3,0.8,0.4,1.1,0.4c2.1,0,4.2,0,6.4,0h0.2c1.2,0,2.5,0,3.7,0
			c0.6,0,1-0.2,1.3-0.5c0,0,0,0,0.1-0.1l0.1,0c0.2-0.1,0.3-0.3,0.5-0.5c0.3-0.3,0.7-0.7,1-0.8c0.2-0.1,0.4-0.1,0.7-0.1
			c0.2,0,0.4,0,0.6,0c0.2,0,0.4,0,0.6,0h18.2c0,0.3,0,0.5,0,0.8c0,0.8,0,1.5,0,2.3c-0.1,1.2-1.3,2.1-2.8,2.1l-50.4,0
			c-1.2,0-2.1-0.5-2.6-1.4c-0.2-0.4-0.3-0.9-0.3-1.3C465.8,262.6,465.8,261.9,465.8,261.2z"/>
		<path d="M481.8,249.2C481.8,249.2,481.8,249.2,481.8,249.2c0.1,0,0.1,0,0.2,0.1l3.8,6.5c0.3,0.6,0.9,1.1,1.6,1.2
			c0.2,0.1,0.5,0.1,0.7,0.1c0.5,0,0.9-0.1,1.3-0.4c0.6-0.4,1.1-0.9,1.2-1.6c0.1-0.2,0.1-0.5,0.1-0.7c0-0.5-0.1-0.9-0.4-1.3l-2.9-5
			c0-0.1,0-0.1,0-0.2c0-0.1,0.1-0.1,0.1-0.1c1.3-0.2,2.5-0.3,3.7-0.3c2.6,0,5,0.6,6.8,1.6c0,0,0.1,0.1,0.1,0.1l0.1,0.5
			c0.3,1,1.2,1.8,2.3,1.8c0.2,0,0.4,0,0.6-0.1c0.6-0.2,1.1-0.6,1.5-1.1c0.2-0.4,0.3-0.8,0.3-1.2c0-0.2,0-0.4-0.1-0.6l-1.5-5.7
			c0-0.1,0-0.2,0.1-0.2l1.1-0.6c0.6-0.4,1-1,1-1.7c0-0.2,0-0.4-0.1-0.5l-0.4-1.4c-0.2-0.9-1-1.5-1.9-1.5l-1.2,0
			c-0.1,0-0.2-0.1-0.2-0.1l-1.5-5.7c-0.2-0.6-0.6-1.1-1.1-1.5c-0.4-0.2-0.8-0.3-1.2-0.3c-0.2,0-0.4,0-0.6,0.1
			c-0.6,0.2-1.1,0.6-1.5,1.1c-0.2,0.4-0.3,0.8-0.3,1.2c0,0.2,0,0.4,0.1,0.6l0.1,0.5c0,0,0,0.1,0,0.1c-1.7,2.9-5.1,5.3-9.4,6.7
			c-1.2,0.4-1.5,0.5-2.1,0.6c-0.4,0.1-0.8,0.2-1.6,0.4c-1.1,0.3-2.1,1-2.6,2c-0.4,0.7-0.6,1.4-0.6,2.2c0,0.4,0.1,0.8,0.2,1.2
			C478.1,247.8,479.8,249.2,481.8,249.2z M489.1,253.9c0.1,0.2,0.2,0.4,0.2,0.6c0,0.1,0,0.2,0,0.3c-0.1,0.3-0.3,0.6-0.6,0.7
			c-0.2,0.1-0.4,0.2-0.6,0.2c-0.1,0-0.2,0-0.3,0c-0.3-0.1-0.6-0.3-0.7-0.6l-3.4-6c0,0,0-0.1,0-0.2c0-0.1,0.1-0.1,0.1-0.1
			c0.4-0.1,0.6-0.2,0.9-0.3c0.3-0.1,0.6-0.2,1.1-0.3c0,0,0,0,0,0c0.1,0,0.1,0,0.2,0.1L489.1,253.9z M500.3,238.3
			c0,0,0.1-0.1,0.1-0.1c0,0,0.7,0,0.7,0c0.3,0,0.5,0.2,0.5,0.4l0.4,1.4c0,0.1,0,0.1,0,0.2c0,0.2-0.1,0.4-0.3,0.5l-0.6,0.4
			c0,0-0.1,0-0.1,0c0,0,0,0-0.1,0c-0.1,0-0.1-0.1-0.1-0.1l-0.7-2.5C500.2,238.4,500.2,238.3,500.3,238.3z M495.1,231.1
			c0.1-0.2,0.3-0.4,0.5-0.4c0.1,0,0.2,0,0.2,0c0.2,0,0.3,0,0.5,0.1c0.2,0.1,0.4,0.3,0.4,0.5l4.7,17.6c0,0.1,0,0.2,0,0.2
			c0,0.2,0,0.3-0.1,0.5c-0.1,0.2-0.3,0.4-0.5,0.4c-0.1,0-0.2,0-0.2,0c-0.4,0-0.8-0.3-0.9-0.7l-4.7-17.6c0-0.1,0-0.2,0-0.2
			C495,231.3,495,231.2,495.1,231.1z M484.5,240.9c0.1,0,0.1,0,0.2-0.1c4.1-1.3,7.2-3.3,9.3-6c0,0,0.1-0.1,0.1-0.1c0,0,0,0,0,0
			c0.1,0,0.1,0.1,0.1,0.1l3.2,12c0,0.1,0,0.1-0.1,0.2c0,0-0.1,0-0.1,0c0,0,0,0-0.1,0c-1.8-0.7-3.8-1.1-6-1.1c-1.6,0-3.3,0.2-5,0.6
			c-0.1,0-0.2,0-0.3,0.1c0,0,0,0,0,0c-0.1,0-0.2-0.1-0.2-0.1l-1.4-5.4C484.3,241,484.4,240.9,484.5,240.9z M479.3,243.2
			c0.4-0.7,1-1.1,1.7-1.3c0.7-0.2,1.1-0.3,1.4-0.3l0.2,0c0.1,0,0.1,0,0.2,0c0,0,0,0,0,0c0.1,0,0.2,0.1,0.2,0.1l1.4,5.4
			c0,0,0,0.1,0,0.1s-0.1,0.1-0.1,0.1c0,0-0.1,0-0.1,0c-0.3,0.1-0.8,0.2-1.6,0.5c-0.2,0.1-0.5,0.1-0.7,0.1c-1.3,0-2.4-0.9-2.8-2.2
			c-0.1-0.3-0.1-0.6-0.1-0.8C478.9,244.1,479,243.6,479.3,243.2z"/>
		<path d="M505.2,238.3c0,0.1,0,0.1,0,0.2c0.1,0.3,0.4,0.5,0.7,0.5c0.1,0,0.1,0,0.2,0l3.7-1c0.3-0.1,0.5-0.4,0.5-0.7
			c0-0.1,0-0.1,0-0.2c-0.1-0.3-0.4-0.5-0.7-0.5c-0.1,0-0.1,0-0.2,0l-3.7,1C505.4,237.6,505.2,237.9,505.2,238.3z"/>
		<path d="M509,244.3l-3.4-1.9c-0.1-0.1-0.2-0.1-0.4-0.1c-0.3,0-0.5,0.1-0.6,0.4c-0.1,0.1-0.1,0.2-0.1,0.4c0,0.3,0.1,0.5,0.4,0.6
			l3.3,1.9c0.1,0.1,0.2,0.1,0.4,0.1c0.3,0,0.5-0.1,0.6-0.4c0.1-0.1,0.1-0.2,0.1-0.4C509.4,244.7,509.2,244.4,509,244.3z"/>
		<path d="M503,235.2c0.3,0,0.5-0.1,0.6-0.4l1.9-3.4c0.1-0.1,0.1-0.2,0.1-0.4c0-0.3-0.1-0.5-0.4-0.6c-0.1-0.1-0.2-0.1-0.4-0.1
			c-0.3,0-0.5,0.1-0.6,0.3c0,0,0,0.1,0,0.1l-1.9,3.3c-0.1,0.1-0.1,0.2-0.1,0.4c0,0.3,0.1,0.5,0.4,0.6
			C502.7,235.2,502.9,235.2,503,235.2z"/>
		<path d="M471.4,213.8h35.3c2.2,0,4.1-1.8,4.1-4.1v-21.8c0-0.1,0-0.1,0-0.2v-3.1c0-0.1,0-0.1,0-0.2v-4c0-2.2-1.8-4.1-4.1-4.1h-3.4
			v-1.7c0-1.6-1.3-2.5-2.5-2.5c-1.3,0-2.5,0.9-2.5,2.5v1.7h-6.6v-1.7c0-1.6-1.3-2.5-2.5-2.5c-1.3,0-2.5,0.9-2.5,2.5v1.7h-6.7v-1.7
			c0-1.6-1.3-2.5-2.5-2.5c-1.3,0-2.5,0.9-2.5,2.5v1.7h-3.4c-2.2,0-4.1,1.8-4.1,4.1v29.2C467.3,211.9,469.1,213.8,471.4,213.8z
			 M499.7,177.3c0-0.1,0-0.1,0-0.2v-2.4c0-0.6,0.5-1,1-1c0.6,0,1,0.5,1,1v5c0,0.7-0.5,1-1,1s-1-0.3-1-1V177.3z M488,174.7
			c0-0.6,0.5-1,1-1c0.6,0,1,0.5,1,1v2.4c0,0.1,0,0.1,0,0.2v2.4c0,0.7-0.5,1-1,1c-0.5,0-1-0.3-1-1V174.7z M476.3,177.3
			c0-0.1,0-0.1,0-0.2v-2.4c0-0.6,0.5-1,1-1c0.6,0,1,0.5,1,1v5c0,0.7-0.5,1-1,1c-0.5,0-1-0.3-1-1V177.3z M468.8,180.5
			c0-1.4,1.2-2.6,2.6-2.6h3.4v1.8c0,1.4,1.1,2.5,2.5,2.5c1.4,0,2.5-1.1,2.5-2.5v-1.8h6.7v1.8c0,1.4,1.1,2.5,2.5,2.5
			c1.4,0,2.5-1.1,2.5-2.5v-1.8h6.6v1.8c0,1.4,1.1,2.5,2.5,2.5c1.4,0,2.5-1.1,2.5-2.5v-1.8h3.4c1.4,0,2.6,1.2,2.6,2.6v3.3h-40.5
			V180.5z M468.8,185.3h40.5v1.8h-40.5V185.3z M468.8,188.6h40.5v21.1c0,1.4-1.2,2.6-2.6,2.6h-35.3c-1.4,0-2.6-1.2-2.6-2.6V188.6z"
			/>
		<path d="M486.2,198.9h5.7c1,0,1.7-0.8,1.7-1.7v-3.2c0-1-0.8-1.7-1.7-1.7h-5.7c-1,0-1.7,0.8-1.7,1.7v3.2
			C484.4,198.1,485.2,198.9,486.2,198.9z M485.9,193.9c0-0.1,0.1-0.3,0.3-0.3h5.7c0.1,0,0.3,0.1,0.3,0.3v3.2c0,0.1-0.1,0.3-0.3,0.3
			h-5.7c-0.1,0-0.3-0.1-0.3-0.3V193.9z"/>
		<path d="M473.3,208.8h5.7c1,0,1.7-0.8,1.7-1.7v-3.2c0-1-0.8-1.7-1.7-1.7h-5.7c-1,0-1.7,0.8-1.7,1.7v3.2
			C471.6,208,472.3,208.8,473.3,208.8z M473,203.8c0-0.1,0.1-0.3,0.3-0.3h5.7c0.1,0,0.3,0.1,0.3,0.3v3.2c0,0.1-0.1,0.3-0.3,0.3h-5.7
			c-0.1,0-0.3-0.1-0.3-0.3V203.8z"/>
		<path d="M499.1,198.9h5.7c1,0,1.7-0.8,1.7-1.7v-3.2c0-1-0.8-1.7-1.7-1.7h-5.7c-1,0-1.7,0.8-1.7,1.7v3.2
			C497.3,198.1,498.1,198.9,499.1,198.9z M498.8,193.9c0-0.1,0.1-0.3,0.3-0.3h5.7c0.1,0,0.3,0.1,0.3,0.3v3.2c0,0.1-0.1,0.3-0.3,0.3
			h-5.7c-0.1,0-0.3-0.1-0.3-0.3V193.9z"/>
		<path d="M499.1,208.8h5.7c1,0,1.7-0.8,1.7-1.7v-3.2c0-1-0.8-1.7-1.7-1.7h-5.7c-1,0-1.7,0.8-1.7,1.7v3.2
			C497.3,208,498.1,208.8,499.1,208.8z M498.8,203.8c0-0.1,0.1-0.3,0.3-0.3h5.7c0.1,0,0.3,0.1,0.3,0.3v3.2c0,0.1-0.1,0.3-0.3,0.3
			h-5.7c-0.1,0-0.3-0.1-0.3-0.3V203.8z"/>
		<path d="M486.2,208.8h5.7c1,0,1.7-0.8,1.7-1.7v-3.2c0-1-0.8-1.7-1.7-1.7h-5.7c-1,0-1.7,0.8-1.7,1.7v3.2
			C484.4,208,485.2,208.8,486.2,208.8z M485.9,203.8c0-0.1,0.1-0.3,0.3-0.3h5.7c0.1,0,0.3,0.1,0.3,0.3v3.2c0,0.1-0.1,0.3-0.3,0.3
			h-5.7c-0.1,0-0.3-0.1-0.3-0.3V203.8z"/>
		<path d="M473.3,198.9h5.7c1,0,1.7-0.8,1.7-1.7v-3.2c0-1-0.8-1.7-1.7-1.7h-5.7c-1,0-1.7,0.8-1.7,1.7v3.2
			C471.6,198.1,472.3,198.9,473.3,198.9z M473,193.9c0-0.1,0.1-0.3,0.3-0.3h5.7c0.1,0,0.3,0.1,0.3,0.3v3.2c0,0.1-0.1,0.3-0.3,0.3
			h-5.7c-0.1,0-0.3-0.1-0.3-0.3V193.9z"/>
	</g>
</g>
</svg>
