<?xml version="1.0" encoding="utf-8"?>
<!-- Generator: Adobe Illustrator 25.0.0, SVG Export Plug-In . SVG Version: 6.00 Build 0)  -->
<svg version="1.1" id="Layer_1" xmlns="http://www.w3.org/2000/svg" xmlns:xlink="http://www.w3.org/1999/xlink" x="0px" y="0px"
	 viewBox="0 0 118.98 118.97" style="enable-background:new 0 0 118.98 118.97;" xml:space="preserve">
<style type="text/css">
	.st0{fill:#185AE9;}
	.st1{fill-rule:evenodd;clip-rule:evenodd;fill:#00B0FB;}
	.st2{fill:#00B0FB;}
	.st3{fill:#00B0FB;fill-opacity:0.4;}
	.st4{fill:#FFFFFF;}
</style>
<g>
	<g>
		<path class="st2" d="M117.96,11.05h-5.37v1.24h2.27c0.5,0,0.9,0.4,0.9,0.9v102.66c0,0.49-0.4,0.9-0.9,0.9h-2.2v1.15h5.32
			c0-0.02,0.01-0.03,0.01-0.04V11.17C117.98,11.13,117.96,11.09,117.96,11.05z"/>
		<path class="st2" d="M40.79,68.39c0.18,0.16,0.39,0.24,0.61,0.24c1.5-0.14,2.78-0.2,4-0.2c1.23,0,2.52,0.06,3.92,0.2
			c0.01,0,0.01,0,0.02,0c0.29,0,0.5-0.08,0.66-0.22c0.18-0.16,0.29-0.4,0.3-0.65c0.01-0.08,0.02-0.15,0.02-0.23
			c0-2.72-2.21-4.93-4.93-4.93c-2.72,0-4.93,2.21-4.93,4.93c0,0.08,0.01,0.16,0.02,0.23C40.5,67.98,40.61,68.23,40.79,68.39z"/>
		<path class="st2" d="M45.4,70.66C24.61,70.7,7.46,86.99,6.36,107.75c-0.02,0.24,0.07,0.48,0.24,0.66
			c0.17,0.18,0.41,0.29,0.66,0.29h76.28c0.25,0,0.49-0.11,0.65-0.29c0.17-0.17,0.26-0.42,0.25-0.66
			C83.34,86.99,66.19,70.7,45.4,70.66z M15.52,101.16l-2.16-0.55c0.24-0.83,0.51-1.65,0.81-2.46l2.07,0.84
			C15.97,99.7,15.73,100.43,15.52,101.16z M52.3,79.48c-2.26-0.51-4.57-0.77-6.88-0.77c-10.73,0-20.85,5.65-26.5,14.78L17,92.38
			c6.04-9.82,16.89-15.89,28.42-15.89c2.49,0,4.99,0.28,7.43,0.84L52.3,79.48z"/>
		<path class="st3" d="M71.32,10.06h36.48c0.5,0,0.9-0.4,0.9-0.9v-5.7c0-0.26-0.12-0.51-0.31-0.68c-0.17-0.14-0.37-0.22-0.59-0.22
			c-0.02,0-0.12,0.01-0.14,0.01l-36.48,5.7c-0.46,0.07-0.79,0.49-0.76,0.96C70.46,9.7,70.85,10.06,71.32,10.06z"/>
		<path class="st3" d="M95.79,23.75c-1.81,0-3.52,0.69-4.82,1.95l-3.01,3.01c-2.66,2.76-2.59,7.16,0.16,9.82
			c1.3,1.26,3.01,1.95,4.82,1.95c1.9,0,3.67-0.75,4.99-2.12l2.83-2.84c2.62-2.71,2.62-6.95,0.01-9.65
			C99.46,24.5,97.69,23.75,95.79,23.75z"/>
		<path d="M45.42,78.71c2.31,0,4.62,0.26,6.87,0.77l0.56-2.15c-2.44-0.56-4.94-0.84-7.43-0.84c-11.53,0-22.38,6.08-28.42,15.89
			l1.93,1.11C24.57,84.36,34.69,78.71,45.42,78.71z"/>
		<path d="M16.24,98.99l-2.06-0.83c-0.3,0.81-0.57,1.63-0.81,2.46l2.16,0.56C15.73,100.43,15.97,99.7,16.24,98.99z"/>
		<path d="M117.86,10.06h-6.04c-0.49,0-0.9-0.4-0.9-0.9V1.11c0-0.61-0.49-1.11-1.11-1.11c-0.06,0-0.11,0-0.17,0.01L45.48,10.04
			c-0.09,0.03-0.17,0.06-0.26,0.07c-0.54,0.08-0.93,0.53-0.93,1.06v48.58c0,0.41-0.28,0.77-0.68,0.87
			c-3.16,0.81-5.36,3.66-5.36,6.92c0,0.11,0.01,0.22,0.04,0.42c0.01,0.09,0.03,0.18,0.03,0.27c0.05,0.47-0.27,0.88-0.72,0.97
			C18.82,72.84,5.05,88.73,4.13,107.84c-0.03,0.48-0.42,0.86-0.9,0.86H1.11c-0.61,0-1.11,0.49-1.11,1.11c0,0.09,0.01,0.18,0.03,0.27
			l2.02,8.05c0.12,0.5,0.56,0.84,1.08,0.84h114.73c0.62,0,1.12-0.5,1.12-1.11V11.17C118.98,10.56,118.48,10.06,117.86,10.06z
			 M71.18,8.27l36.48-5.7c0.02,0,0.12-0.01,0.14-0.01c0.21,0,0.42,0.08,0.59,0.22c0.19,0.17,0.31,0.42,0.31,0.68v5.7
			c0,0.5-0.4,0.9-0.9,0.9H71.32c-0.47,0-0.86-0.36-0.9-0.83C70.39,8.76,70.72,8.34,71.18,8.27z M45.4,62.61
			c2.71,0,4.92,2.21,4.92,4.93c0,0.07,0,0.15-0.02,0.23c-0.01,0.24-0.12,0.48-0.3,0.64c-0.16,0.14-0.37,0.22-0.66,0.22
			c-0.01,0-0.01,0-0.02,0c-1.41-0.13-2.69-0.19-3.92-0.19c-1.21,0-2.5,0.06-4,0.2c-0.21,0-0.43-0.09-0.61-0.25
			c-0.18-0.16-0.29-0.41-0.3-0.62c-0.01-0.08-0.02-0.16-0.02-0.23C40.47,64.82,42.68,62.61,45.4,62.61z M45.4,70.66
			c20.79,0.04,37.94,16.33,39.04,37.09c0.01,0.24-0.08,0.49-0.25,0.66c-0.16,0.18-0.4,0.29-0.65,0.29H7.26
			c-0.25,0-0.49-0.11-0.66-0.29c-0.17-0.18-0.26-0.42-0.24-0.66C7.46,86.99,24.61,70.7,45.4,70.66z M87.98,112.04l-1.01,4.02
			c-0.1,0.41-0.46,0.69-0.87,0.69H4.7c-0.42,0-0.77-0.28-0.87-0.69l-1.01-4.02c-0.07-0.27-0.01-0.55,0.16-0.77s0.44-0.35,0.71-0.35
			H87.1c0.28,0,0.54,0.13,0.71,0.35C87.98,111.49,88.04,111.77,87.98,112.04z M116.75,115.85c0,0.49-0.4,0.9-0.9,0.9h-25.6
			c-0.28,0-0.54-0.13-0.71-0.35c-0.17-0.22-0.23-0.51-0.16-0.77l1.38-5.55c0.07-0.29,0.03-0.59-0.12-0.84
			c-0.16-0.26-0.4-0.44-0.69-0.51c-0.09-0.02-0.18-0.03-0.27-0.03h-2.11c-0.48,0-0.88-0.38-0.9-0.86
			c-0.93-19.11-14.69-35-33.47-38.64c-0.46-0.09-0.77-0.5-0.73-0.97c0.01-0.11,0.03-0.21,0.05-0.36c0.01-0.11,0.03-0.22,0.03-0.33
			c0-3.26-2.21-6.11-5.36-6.92c-0.4-0.1-0.68-0.46-0.68-0.87V13.19c0-0.5,0.4-0.9,0.9-0.9h68.44c0.5,0,0.9,0.4,0.9,0.9V115.85z"/>
		<rect x="36.23" y="16.1" width="2.22" height="34.43"/>
		<rect x="106.69" y="80.51" width="2.22" height="2.23"/>
		<rect x="90.58" y="88.57" width="10.28" height="2.22"/>
		<rect x="106.69" y="88.57" width="2.22" height="2.22"/>
		<rect x="106.69" y="72.46" width="2.22" height="2.23"/>
		<rect x="84.54" y="80.51" width="16.32" height="2.23"/>
		<rect x="76.49" y="72.46" width="24.37" height="2.23"/>
		<path d="M86.83,41.22c0.17-0.17,0.4-0.27,0.64-0.27c0.17,0,0.35,0.06,0.49,0.15c1.51,1,3.25,1.52,5.05,1.52
			c2.45,0,4.76-0.95,6.49-2.68l2.85-2.86c1.76-1.7,2.76-3.98,2.8-6.43s-0.87-4.77-2.57-6.53c-1.74-1.8-4.08-2.8-6.59-2.8
			c-2.39,0-4.65,0.92-6.37,2.58c-0.09,0.09-3.08,3.08-3.08,3.08c-3.07,3.06-3.56,7.92-1.17,11.53c0.24,0.36,0.19,0.83-0.11,1.14
			l-2.99,2.99c-0.17,0.17-0.4,0.26-0.64,0.26s-0.47-0.09-0.64-0.26l-5.83-5.84c-0.3-0.3-0.35-0.78-0.12-1.13
			c2.39-3.62,1.9-8.47-1.16-11.54l-5.06-5.06l-1.57,1.58l5.06,5.06c2.05,2.07,2.58,5.23,1.33,7.86c-0.12,0.27-0.37,0.45-0.66,0.5
			c-0.02,0.01-0.13,0.02-0.15,0.02c-0.24,0-0.47-0.1-0.64-0.27l-9.06-9.06l-1.58,1.57l9.07,9.07c0.2,0.2,0.3,0.5,0.25,0.79
			c-0.05,0.28-0.24,0.53-0.5,0.66c-0.94,0.45-1.95,0.68-3,0.68c-1.84,0-3.57-0.72-4.88-2.01l-5.06-5.06l-1.57,1.58l5.06,5.05
			c1.73,1.73,4.03,2.69,6.48,2.69c1.8,0,3.55-0.53,5.05-1.52c0.15-0.1,0.32-0.15,0.5-0.15c0.24,0,0.46,0.09,0.63,0.26l5.84,5.84
			c0.17,0.17,0.27,0.4,0.27,0.64c0,0.24-0.1,0.46-0.27,0.63L61.55,63.35l1.58,1.57l17.86-17.86c0.17-0.17,0.4-0.27,0.64-0.27
			s0.47,0.1,0.64,0.27l17.86,17.86l1.58-1.57L83.84,45.48c-0.35-0.35-0.35-0.92,0-1.27L86.83,41.22z M87.96,28.71l3.01-3.01
			c1.3-1.26,3.01-1.95,4.82-1.95c1.9,0,3.67,0.75,4.99,2.12c2.61,2.7,2.61,6.94-0.01,9.65l-2.83,2.83c-1.32,1.37-3.1,2.12-5,2.12
			c-1.81,0-3.52-0.69-4.82-1.95C85.37,35.87,85.3,31.46,87.96,28.71z"/>
	</g>
</g>
</svg>
