<?xml version="1.0" encoding="utf-8"?>
<!-- Generator: Adobe Illustrator 25.0.0, SVG Export Plug-In . SVG Version: 6.00 Build 0)  -->
<svg version="1.1" id="Layer_1" xmlns="http://www.w3.org/2000/svg" xmlns:xlink="http://www.w3.org/1999/xlink" x="0px" y="0px"
	 viewBox="0 0 94.98 120" style="enable-background:new 0 0 94.98 120;" xml:space="preserve">
<style type="text/css">
	.st0{fill:#185AE9;}
	.st1{fill-rule:evenodd;clip-rule:evenodd;fill:#00B0FB;}
	.st2{fill:#00B0FB;}
	.st3{fill:#00B0FB;fill-opacity:0.4;}
	.st4{fill:#FFFFFF;}
</style>
<g>
	<g>
		<path class="st2" d="M88.4,113.71v2.55c0,0.46-0.38,0.83-0.84,0.83H7.42c-0.46,0-0.84-0.37-0.84-0.83v-2.55H5.91v5.24h83.28v-5.24
			H88.4z"/>
		<path class="st2" d="M19.76,25.04c-0.58,0-1.05,0.47-1.05,1.05v30.15h2.88h2.76V26.09c0-0.58-0.47-1.05-1.05-1.05H19.76z"/>
		<path class="st2" d="M71.68,25.04c-0.58,0-1.05,0.47-1.05,1.05v30.15h2.76h2.88V26.09c0-0.58-0.47-1.05-1.05-1.05H71.68z"/>
		<path class="st3" d="M81.71,1.44H13.26c-1.56,0-2.82,1.26-2.82,2.82v16.52c0,1.56,1.26,2.82,2.82,2.82h68.44
			c1.56,0,2.82-1.26,2.82-2.82V4.26C84.53,2.71,83.26,1.44,81.71,1.44z M28.04,14.29c0,1.63-1.34,2.97-2.98,2.97h-4.72
			c-1.64,0-2.98-1.34-2.98-2.97v-3.55c0-1.64,1.34-2.97,2.98-2.97h4.72c1.64,0,2.98,1.33,2.98,2.97V14.29z M62.26,14.29
			c0,1.63-1.34,2.97-2.98,2.97H38.05c-1.64,0-2.98-1.34-2.98-2.97v-3.55c0-1.64,1.34-2.97,2.98-2.97h21.23
			c1.64,0,2.98,1.33,2.98,2.97V14.29z M77.6,14.29c0,1.63-1.33,2.97-2.97,2.97h-2.36c-1.64,0-2.98-1.34-2.98-2.97v-3.55
			c0-1.64,1.34-2.97,2.98-2.97h2.36c1.64,0,2.97,1.33,2.97,2.97V14.29z"/>
		<path class="st2" d="M90.5,58.1H4.47c-1.44,0-2.61,1.17-2.61,2.61v6.49c0,0.46,0.38,0.84,0.84,0.84h89.57
			c0.46,0,0.84-0.38,0.84-0.84v-6.49C93.12,59.27,91.94,58.1,90.5,58.1z"/>
		<path class="st3" d="M60.79,88.54c-0.15-0.11-0.32-0.16-0.5-0.16c-0.15,0-0.29,0.04-0.42,0.11l-5.04,2.86
			c-0.14,0.08-0.3,0.12-0.46,0.12c-0.32,0-0.61-0.16-0.78-0.43l-5.4-8.37c-0.15-0.24-0.42-0.39-0.71-0.39s-0.55,0.14-0.71,0.39
			l-5.4,8.37c-0.17,0.27-0.46,0.43-0.78,0.43c-0.16,0-0.32-0.04-0.46-0.12l-5.04-2.86c-0.13-0.07-0.27-0.11-0.42-0.11
			c-0.18,0-0.35,0.06-0.5,0.16c-0.27,0.2-0.4,0.53-0.33,0.85l2.13,10.12c0.08,0.39,0.43,0.67,0.82,0.67h21.35
			c0.4,0,0.74-0.28,0.82-0.67l2.13-10.12C61.18,89.07,61.05,88.73,60.79,88.54z"/>
		<path d="M91.09,69.91h2.95c0.52,0,0.94-0.42,0.94-0.94v-8.25c0-2.46-2.01-4.47-4.47-4.47h-12.8V26.09c0-0.58,0.47-1.05,1.05-1.05
			h2.95c2.36,0,4.26-1.92,4.26-4.26V4.26c0-2.35-1.91-4.26-4.26-4.26H13.26c-2.35,0-4.25,1.92-4.25,4.26v16.52
			c0,2.35,1.91,4.26,4.25,4.26h2.96c0.58,0,1.04,0.47,1.04,1.05v30.15H4.47C2.01,56.24,0,58.25,0,60.72v8.25
			c0,0.52,0.42,0.94,0.93,0.94h2.96c0.46,0,0.84,0.38,0.84,0.84v46.56c0,0.46-0.38,0.83-0.84,0.83H0.93c-0.51,0-0.93,0.42-0.93,0.94
			c0,0.51,0.42,0.93,0.93,0.93h93.12c0.52,0,0.94-0.42,0.94-0.93c0-0.52-0.42-0.94-0.94-0.94h-2.95c-0.46,0-0.84-0.37-0.84-0.83
			V70.75C90.25,70.28,90.63,69.91,91.09,69.91z M13.26,23.6c-1.56,0-2.82-1.26-2.82-2.82V4.26c0-1.56,1.26-2.82,2.82-2.82h68.44
			c1.56,0,2.82,1.26,2.82,2.82v16.52c0,1.56-1.26,2.82-2.82,2.82H13.26z M76.27,26.09v30.15h-5.64V26.09c0-0.58,0.47-1.05,1.05-1.05
			h3.54C75.8,25.04,76.27,25.52,76.27,26.09z M69.19,26.09v30.15h-43.4V26.09c0-0.58,0.46-1.05,1.04-1.05h41.31
			C68.72,25.04,69.19,25.52,69.19,26.09z M24.35,26.09v30.15h-5.64V26.09c0-0.58,0.47-1.05,1.05-1.05h3.54
			C23.87,25.04,24.35,25.52,24.35,26.09z M88.4,117.31c0,0.46-0.38,0.83-0.84,0.83H7.42c-0.46,0-0.84-0.37-0.84-0.83V70.75
			c0-0.46,0.38-0.84,0.84-0.84h80.14c0.46,0,0.84,0.38,0.84,0.84V117.31z M2.71,68.04c-0.46,0-0.84-0.38-0.84-0.84v-6.48
			c0-1.44,1.17-2.61,2.61-2.61h86.03c1.44,0,2.61,1.17,2.61,2.61v6.48c0,0.46-0.38,0.84-0.84,0.84H2.71z"/>
		<path d="M60.53,108.18c0,0.52-0.41,0.94-0.93,0.94H35.38c-0.52,0-0.93-0.42-0.93-0.94c0-0.51,0.41-0.93,0.93-0.93H59.6
			C60.12,107.25,60.53,107.67,60.53,108.18z"/>
		<path d="M63.38,84.99c-0.16-0.12-0.35-0.18-0.55-0.18c-0.17,0-0.33,0.04-0.46,0.12l-7,3.98c-0.13,0.07-0.27,0.12-0.41,0.12
			c-0.29,0-0.56-0.15-0.71-0.39l-5.99-9.27c-0.17-0.26-0.46-0.43-0.78-0.43s-0.61,0.17-0.78,0.43l-5.98,9.27
			c-0.16,0.24-0.42,0.39-0.71,0.39c-0.15,0-0.29-0.04-0.42-0.12l-6.99-3.98c-0.15-0.07-0.31-0.12-0.46-0.12
			c-0.2,0-0.39,0.06-0.55,0.18c-0.29,0.21-0.43,0.58-0.36,0.94l3.22,15.37c0.09,0.43,0.47,0.74,0.92,0.74H59.6
			c0.43,0,0.82-0.31,0.91-0.74l3.23-15.37C63.81,85.57,63.67,85.2,63.38,84.99z M61.12,89.39l-2.13,10.12
			c-0.08,0.39-0.43,0.66-0.82,0.66H36.81c-0.39,0-0.74-0.27-0.82-0.66l-2.13-10.12c-0.06-0.33,0.06-0.65,0.33-0.85
			c0.15-0.11,0.32-0.16,0.49-0.16c0.15,0,0.29,0.03,0.42,0.11l5.04,2.86c0.14,0.08,0.29,0.13,0.45,0.13c0.32,0,0.61-0.16,0.78-0.43
			l5.4-8.37c0.16-0.24,0.42-0.39,0.72-0.39c0.28,0,0.55,0.15,0.71,0.39l5.4,8.37c0.17,0.26,0.46,0.43,0.78,0.43
			c0.16,0,0.32-0.04,0.45-0.13l5.04-2.86c0.13-0.07,0.27-0.11,0.42-0.11c0.18,0,0.35,0.05,0.49,0.16
			C61.05,88.74,61.18,89.06,61.12,89.39z"/>
		<path d="M59.28,7.78H38.05c-1.64,0-2.98,1.33-2.98,2.97v3.55c0,1.63,1.34,2.97,2.98,2.97h21.23c1.64,0,2.98-1.34,2.98-2.97v-3.55
			C62.26,9.11,60.93,7.78,59.28,7.78z M61.03,14.29c0,0.96-0.78,1.74-1.75,1.74H38.05c-0.97,0-1.75-0.78-1.75-1.74v-3.55
			c0-0.96,0.78-1.75,1.75-1.75h21.23c0.97,0,1.75,0.79,1.75,1.75V14.29z"/>
		<path d="M74.63,7.78h-2.36c-1.64,0-2.98,1.33-2.98,2.97v3.55c0,1.63,1.34,2.97,2.98,2.97h2.36c1.64,0,2.97-1.34,2.97-2.97v-3.55
			C77.6,9.11,76.27,7.78,74.63,7.78z M76.38,14.29c0,0.96-0.79,1.74-1.75,1.74h-2.36c-0.97,0-1.75-0.78-1.75-1.74v-3.55
			c0-0.96,0.78-1.75,1.75-1.75h2.36c0.96,0,1.75,0.79,1.75,1.75V14.29z"/>
		<path d="M25.06,7.78h-4.72c-1.64,0-2.98,1.33-2.98,2.97v3.55c0,1.63,1.34,2.97,2.98,2.97h4.72c1.64,0,2.98-1.34,2.98-2.97v-3.55
			C28.04,9.11,26.71,7.78,25.06,7.78z M26.81,14.29c0,0.96-0.78,1.74-1.75,1.74h-4.72c-0.97,0-1.75-0.78-1.75-1.74v-3.55
			C18.6,9.79,19.38,9,20.35,9h4.72c0.97,0,1.75,0.79,1.75,1.75V14.29z"/>
	</g>
</g>
</svg>
