<?xml version="1.0" encoding="utf-8"?>
<!-- Generator: Adobe Illustrator 24.3.0, SVG Export Plug-In . SVG Version: 6.00 Build 0)  -->
<svg version="1.1" id="Layer_1" xmlns="http://www.w3.org/2000/svg" xmlns:xlink="http://www.w3.org/1999/xlink" x="0px" y="0px"
	 width="140.3px" height="126.9px" viewBox="0 0 140.3 126.9" style="enable-background:new 0 0 140.3 126.9;" xml:space="preserve"
	>
<style type="text/css">
	.st0{fill:#00C8FF;}
	.st1{fill-rule:evenodd;clip-rule:evenodd;fill:#00C8FF;}
	.st2{fill:#185AE9;}
	.st3{fill:#FFFFFF;}
	.st4{fill-rule:evenodd;clip-rule:evenodd;fill:#FFFFFF;}
	.st5{fill:#00B0FB;}
	.st6{fill:#00B0FB;fill-opacity:0.4;}
	.st7{fill:#E4ECF4;}
	.st8{fill:#FFE8A0;}
	.st9{fill:none;}
	.st10{fill:#0D0D0D;}
	.st11{fill-rule:evenodd;clip-rule:evenodd;fill:#00B0FB;}
	.st12{fill:#FAFBFF;}
	.st13{fill:#070707;}
	.st14{fill:#D9D9D9;filter:url(#Adobe_OpacityMaskFilter);}
	.st15{mask:url(#mask0_103_2708_1_);}
	.st16{fill-rule:evenodd;clip-rule:evenodd;fill:#DAB6E4;}
	.st17{stroke:#FFFFFF;stroke-width:2;}
	.st18{fill:#FFFFFF;stroke:#000000;stroke-width:2;}
	.st19{fill-rule:evenodd;clip-rule:evenodd;}
	.st20{stroke:#FFFFFF;}
	.st21{fill:#FFFFFF;filter:url(#Adobe_OpacityMaskFilter_1_);}
	.st22{mask:url(#path-22-inside-1_103_2708_1_);fill:#FFFFFF;}
	.st23{fill-rule:evenodd;clip-rule:evenodd;fill:#263238;}
	.st24{fill:#EFEFEF;}
	
		.st25{fill:none;stroke:#000000;stroke-width:10.01;stroke-linecap:round;stroke-linejoin:round;stroke-miterlimit:3.08;stroke-dasharray:70.84,70.84;}
	.st26{fill:#010000;}
	.st27{opacity:0.64;}
	.st28{fill:#F9F7F5;}
	.st29{fill:#D9D9D9;filter:url(#Adobe_OpacityMaskFilter_2_);}
	.st30{mask:url(#mask0_103_2310_1_);}
	.st31{fill:#FFFFFF;filter:url(#Adobe_OpacityMaskFilter_3_);}
	.st32{mask:url(#mask1_103_2310_1_);}
	.st33{fill:#E6E6E6;}
	.st34{fill:#FFFFFF;filter:url(#Adobe_OpacityMaskFilter_4_);}
	.st35{mask:url(#mask2_103_2310_1_);}
	.st36{fill:none;stroke:#000000;stroke-width:1.5;stroke-linecap:round;stroke-linejoin:round;stroke-miterlimit:10;}
	.st37{fill:#FFFFFF;filter:url(#Adobe_OpacityMaskFilter_5_);}
	.st38{mask:url(#mask3_103_2310_1_);}
	.st39{fill:#FFFFFF;filter:url(#Adobe_OpacityMaskFilter_6_);}
	.st40{mask:url(#mask4_103_2310_1_);}
	.st41{fill:#FFFFFF;filter:url(#Adobe_OpacityMaskFilter_7_);}
	.st42{mask:url(#mask5_103_2310_1_);}
	.st43{fill:#FFFFFF;filter:url(#Adobe_OpacityMaskFilter_8_);}
	.st44{mask:url(#mask6_103_2310_1_);}
	.st45{fill:#DBDBDB;}
	.st46{fill:#FFFFFF;filter:url(#Adobe_OpacityMaskFilter_9_);}
	.st47{mask:url(#mask7_103_2310_1_);}
	.st48{fill:#FFFFFF;filter:url(#Adobe_OpacityMaskFilter_10_);}
	.st49{mask:url(#mask8_103_2310_1_);}
	.st50{fill:#FFFFFF;filter:url(#Adobe_OpacityMaskFilter_11_);}
	.st51{mask:url(#mask9_103_2310_1_);}
	.st52{fill:#FFFFFF;filter:url(#Adobe_OpacityMaskFilter_12_);}
	.st53{mask:url(#mask10_103_2310_1_);}
	.st54{fill:#FFFFFF;filter:url(#Adobe_OpacityMaskFilter_13_);}
	.st55{mask:url(#mask11_103_2310_1_);}
	.st56{fill:#FFFFFF;filter:url(#Adobe_OpacityMaskFilter_14_);}
	.st57{mask:url(#mask12_103_2310_1_);}
	.st58{fill:#FFFFFF;stroke:#000000;}
	.st59{fill:#FFFFFF;filter:url(#Adobe_OpacityMaskFilter_15_);stroke:#FFFFFF;}
	.st60{mask:url(#mask13_103_2310_1_);}
	.st61{fill:#FFFFFF;filter:url(#Adobe_OpacityMaskFilter_16_);}
	.st62{mask:url(#path-55-inside-1_103_2310_1_);}
	.st63{fill:#FFFFFF;filter:url(#Adobe_OpacityMaskFilter_17_);}
	.st64{mask:url(#path-59-inside-2_103_2310_1_);fill:#FFFFFF;}
	.st65{fill:none;stroke:#FFFFFF;stroke-width:1.5;stroke-linecap:round;stroke-linejoin:round;stroke-miterlimit:10;}
	.st66{fill:#181818;}
	.st67{fill:#BEBEBE;}
	.st68{fill:#FEFEFE;}
	.st69{fill:none;stroke:#000000;stroke-width:2.1125;stroke-miterlimit:6.5;}
</style>
<g>
	<path class="st5" d="M135.8,115.4v2c0,1.1-0.9,2-2,2H6.5c-1.1,0-2-0.9-2-2v-2H0v4.3c0,2.3,1.9,4.2,4.2,4.2h131.8
		c2.3,0,4.2-1.9,4.2-4.2v-4.3H135.8z"/>
	<rect x="28.9" y="96.6" class="st5" width="7.5" height="7.5"/>
	<path class="st5" d="M6.5,17.9h78.9c1.1,0,2-0.9,2-2V6.5c0-1.1-0.9-2-2-2H6.5c-1.1,0-2,0.9-2,2v9.5C4.5,17,5.4,17.9,6.5,17.9z"/>
	<path class="st6" d="M133.8,4.5h-40c-1.1,0-2,0.9-2,2v9.5c0,1.1,0.9,2,2,2h40c1.1,0,2-0.9,2-2V6.5C135.8,5.4,134.9,4.5,133.8,4.5z
		 M101,13.5c-0.8-0.2-1.5-0.9-1.7-1.7c-0.4-1.8,1.2-3.3,2.9-2.9c0.8,0.2,1.5,0.9,1.7,1.7C104.4,12.4,102.8,13.9,101,13.5z
		 M113.9,13.6c-1.3,0-2.4-1.1-2.4-2.4c0-1.3,1.1-2.4,2.4-2.4c1.3,0,2.4,1.1,2.4,2.4C116.3,12.5,115.2,13.6,113.9,13.6z M126.1,13.6
		c-1.3,0-2.4-1.1-2.4-2.4c0-1.5,1.4-2.7,3-2.3c0.8,0.2,1.5,0.8,1.7,1.6C128.8,12.1,127.7,13.6,126.1,13.6z"/>
	<rect x="28.9" y="75.7" class="st5" width="7.5" height="7.5"/>
	<path class="st3" d="M136.1,0H4.2C1.9,0,0,1.9,0,4.2v118.4c0,2.3,1.9,4.2,4.2,4.2h131.8c2.3,0,4.2-1.9,4.2-4.2V4.2
		C140.3,1.9,138.4,0,136.1,0z M4.5,6.5c0-1.1,0.9-2,2-2h78.9c1.1,0,2,0.9,2,2v9.5c0,1.1-0.9,2-2,2H6.5c-1.1,0-2-0.9-2-2V6.5z
		 M135.8,120.4c0,1.1-0.9,2-2,2H6.5c-1.1,0-2-0.9-2-2v-96c0-1.1,0.9-2,2-2h127.4c1.1,0,2,0.9,2,2V120.4z M135.8,15.9
		c0,1.1-0.9,2-2,2h-40c-1.1,0-2-0.9-2-2V6.5c0-1.1,0.9-2,2-2h40c1.1,0,2,0.9,2,2V15.9z"/>
	<path class="st3" d="M101,13.5c1.8,0.4,3.3-1.1,2.9-2.9c-0.2-0.8-0.9-1.5-1.7-1.7c-1.8-0.4-3.3,1.1-2.9,2.9
		C99.5,12.6,100.2,13.3,101,13.5z"/>
	<path class="st3" d="M113.9,13.6c1.3,0,2.4-1.1,2.4-2.4c0-1.3-1.1-2.4-2.4-2.4c-1.3,0-2.4,1.1-2.4,2.4
		C111.5,12.5,112.6,13.6,113.9,13.6z"/>
	<path class="st3" d="M126.1,13.6c1.5,0,2.7-1.5,2.3-3.1c-0.2-0.8-0.9-1.4-1.7-1.6c-1.6-0.4-3,0.8-3,2.3
		C123.7,12.5,124.8,13.6,126.1,13.6z"/>
	<path class="st3" d="M38.6,71.2H26.6c-1.2,0-2.2,1-2.2,2.2v11.9c0,1.2,1,2.2,2.2,2.2h12c1.2,0,2.2-1,2.2-2.2V73.5
		C40.8,72.2,39.8,71.2,38.6,71.2z M36.3,83.1h-7.5v-7.5h7.5V83.1z"/>
	<path class="st3" d="M38.6,92.1H26.6c-1.2,0-2.2,1-2.2,2.2v11.9c0,1.2,1,2.2,2.2,2.2h11.9c1.2,0,2.2-1,2.2-2.2V94.3
		C40.8,93.1,39.8,92.1,38.6,92.1z M36.3,104h-7.5v-7.5h7.5V104z"/>
	<path class="st3" d="M51.4,42l-5.2,17.2c-0.2,0.9-1,1.5-1.9,1.6s-1.8-0.3-2.2-1.1l-4.2-7.1l-4.2,7.1c-0.3,0.5-0.7,0.8-1.3,1
		c-1.2,0.4-2.4-0.3-2.8-1.5L24.5,42c-0.1-0.2-0.1-0.4-0.1-0.6c0-1,0.6-1.8,1.6-2.1c1.2-0.4,2.4,0.3,2.8,1.5L32.5,53l3.6-6
		c0.2-0.3,0.5-0.6,0.8-0.8c1.1-0.6,2.4-0.3,3.1,0.8l3.6,6l3.7-12.3c0.4-1.2,1.6-1.9,2.8-1.5C51.1,39.5,51.8,40.8,51.4,42z"/>
	<path class="st3" d="M81.5,42l-5.2,17.2c-0.2,0.5-0.5,1-1,1.3c-1.1,0.6-2.4,0.3-3.1-0.8L68,52.6l-4.2,7.1c-0.4,0.8-1.3,1.2-2.2,1.1
		S60,60,59.7,59.2L54.6,42c-0.4-1.2,0.3-2.4,1.5-2.8c0,0,0,0,0,0c1.2-0.3,2.4,0.3,2.8,1.5L62.6,53l3.6-5.9c0.2-0.3,0.5-0.6,0.8-0.8
		c1.1-0.6,2.4-0.3,3.1,0.8l3.6,5.9l3.7-12.3c0.4-1.2,1.6-1.8,2.8-1.5C81.2,39.5,81.9,40.8,81.5,42z"/>
	<path class="st3" d="M93.8,79.4c0,1.2-1,2.2-2.3,2.2h-44c-1.4,0-2.5-1.3-2.2-2.8c0.2-1,1.2-1.7,2.3-1.7h44
		C92.8,77.2,93.8,78.2,93.8,79.4z"/>
	<path class="st3" d="M93.8,100.3c0,1.2-1,2.2-2.3,2.2h-44c-1.4,0-2.5-1.3-2.2-2.8c0.2-1,1.2-1.7,2.3-1.7h44
		C92.8,98.1,93.8,99.1,93.8,100.3z"/>
	<path class="st3" d="M111.7,100.3c0,1.2-1,2.2-2.2,2.2h-9c-1.2,0-2.2-1-2.2-2.2s1-2.2,2.2-2.2h9C110.7,98.1,111.7,99.1,111.7,100.3
		z"/>
	<path class="st3" d="M111.6,80c-0.2,1-1.2,1.7-2.3,1.7h-8.8c-1,0-2-0.7-2.3-1.7c-0.3-1.5,0.8-2.8,2.2-2.8h9
		C110.9,77.2,112,78.5,111.6,80z"/>
	<path class="st3" d="M111.6,42l-5.1,17.2c-0.2,0.9-1,1.5-1.9,1.6s-1.8-0.3-2.2-1.1l-4.2-7.1l-4.2,7.1c-0.3,0.5-0.7,0.8-1.3,1
		c-1.2,0.4-2.4-0.3-2.8-1.5L84.7,42c-0.4-1.2,0.3-2.4,1.5-2.8c1.2-0.3,2.4,0.3,2.8,1.5L92.7,53l3.6-5.9c0.2-0.3,0.4-0.6,0.8-0.8
		c1.1-0.6,2.4-0.3,3.1,0.8l3.6,5.9l3.7-12.3c0.4-1.2,1.6-1.8,2.8-1.5C111.3,39.5,112,40.8,111.6,42z"/>
</g>
</svg>
