<?xml version="1.0" encoding="utf-8"?>
<!-- Generator: Adobe Illustrator 24.3.0, SVG Export Plug-In . SVG Version: 6.00 Build 0)  -->
<svg version="1.1" id="Layer_1" xmlns="http://www.w3.org/2000/svg" xmlns:xlink="http://www.w3.org/1999/xlink" x="0px" y="0px"
	 width="126.9px" height="126.9px" viewBox="0 0 126.9 126.9" style="enable-background:new 0 0 126.9 126.9;" xml:space="preserve"
	>
<style type="text/css">
	.st0{fill:#00C8FF;}
	.st1{fill-rule:evenodd;clip-rule:evenodd;fill:#00C8FF;}
	.st2{fill:#185AE9;}
	.st3{fill:#FFFFFF;}
	.st4{fill-rule:evenodd;clip-rule:evenodd;fill:#FFFFFF;}
	.st5{fill:#00B0FB;}
	.st6{fill:#00B0FB;fill-opacity:0.4;}
	.st7{fill:#E4ECF4;}
	.st8{fill:#FFE8A0;}
	.st9{fill:none;}
	.st10{fill:#0D0D0D;}
	.st11{fill-rule:evenodd;clip-rule:evenodd;fill:#00B0FB;}
	.st12{fill:#FAFBFF;}
	.st13{fill:#070707;}
	.st14{fill:#D9D9D9;filter:url(#Adobe_OpacityMaskFilter);}
	.st15{mask:url(#mask0_103_2708_1_);}
	.st16{fill-rule:evenodd;clip-rule:evenodd;fill:#DAB6E4;}
	.st17{stroke:#FFFFFF;stroke-width:2;}
	.st18{fill:#FFFFFF;stroke:#000000;stroke-width:2;}
	.st19{fill-rule:evenodd;clip-rule:evenodd;}
	.st20{stroke:#FFFFFF;}
	.st21{fill:#FFFFFF;filter:url(#Adobe_OpacityMaskFilter_1_);}
	.st22{mask:url(#path-22-inside-1_103_2708_1_);fill:#FFFFFF;}
	.st23{fill-rule:evenodd;clip-rule:evenodd;fill:#263238;}
	.st24{fill:#EFEFEF;}
	
		.st25{fill:none;stroke:#000000;stroke-width:10.01;stroke-linecap:round;stroke-linejoin:round;stroke-miterlimit:3.08;stroke-dasharray:70.84,70.84;}
	.st26{fill:#010000;}
	.st27{opacity:0.64;}
	.st28{fill:#F9F7F5;}
	.st29{fill:#D9D9D9;filter:url(#Adobe_OpacityMaskFilter_2_);}
	.st30{mask:url(#mask0_103_2310_1_);}
	.st31{fill:#FFFFFF;filter:url(#Adobe_OpacityMaskFilter_3_);}
	.st32{mask:url(#mask1_103_2310_1_);}
	.st33{fill:#E6E6E6;}
	.st34{fill:#FFFFFF;filter:url(#Adobe_OpacityMaskFilter_4_);}
	.st35{mask:url(#mask2_103_2310_1_);}
	.st36{fill:none;stroke:#000000;stroke-width:1.5;stroke-linecap:round;stroke-linejoin:round;stroke-miterlimit:10;}
	.st37{fill:#FFFFFF;filter:url(#Adobe_OpacityMaskFilter_5_);}
	.st38{mask:url(#mask3_103_2310_1_);}
	.st39{fill:#FFFFFF;filter:url(#Adobe_OpacityMaskFilter_6_);}
	.st40{mask:url(#mask4_103_2310_1_);}
	.st41{fill:#FFFFFF;filter:url(#Adobe_OpacityMaskFilter_7_);}
	.st42{mask:url(#mask5_103_2310_1_);}
	.st43{fill:#FFFFFF;filter:url(#Adobe_OpacityMaskFilter_8_);}
	.st44{mask:url(#mask6_103_2310_1_);}
	.st45{fill:#DBDBDB;}
	.st46{fill:#FFFFFF;filter:url(#Adobe_OpacityMaskFilter_9_);}
	.st47{mask:url(#mask7_103_2310_1_);}
	.st48{fill:#FFFFFF;filter:url(#Adobe_OpacityMaskFilter_10_);}
	.st49{mask:url(#mask8_103_2310_1_);}
	.st50{fill:#FFFFFF;filter:url(#Adobe_OpacityMaskFilter_11_);}
	.st51{mask:url(#mask9_103_2310_1_);}
	.st52{fill:#FFFFFF;filter:url(#Adobe_OpacityMaskFilter_12_);}
	.st53{mask:url(#mask10_103_2310_1_);}
	.st54{fill:#FFFFFF;filter:url(#Adobe_OpacityMaskFilter_13_);}
	.st55{mask:url(#mask11_103_2310_1_);}
	.st56{fill:#FFFFFF;filter:url(#Adobe_OpacityMaskFilter_14_);}
	.st57{mask:url(#mask12_103_2310_1_);}
	.st58{fill:#FFFFFF;stroke:#000000;}
	.st59{fill:#FFFFFF;filter:url(#Adobe_OpacityMaskFilter_15_);stroke:#FFFFFF;}
	.st60{mask:url(#mask13_103_2310_1_);}
	.st61{fill:#FFFFFF;filter:url(#Adobe_OpacityMaskFilter_16_);}
	.st62{mask:url(#path-55-inside-1_103_2310_1_);}
	.st63{fill:#FFFFFF;filter:url(#Adobe_OpacityMaskFilter_17_);}
	.st64{mask:url(#path-59-inside-2_103_2310_1_);fill:#FFFFFF;}
	.st65{fill:none;stroke:#FFFFFF;stroke-width:1.5;stroke-linecap:round;stroke-linejoin:round;stroke-miterlimit:10;}
	.st66{fill:#181818;}
	.st67{fill:#BEBEBE;}
	.st68{fill:#FEFEFE;}
	.st69{fill:none;stroke:#000000;stroke-width:2.1125;stroke-miterlimit:6.5;}
</style>
<g>
	<path class="st5" d="M65.8,19.6c0.1-0.1,0.1-0.2,0.2-0.3c0.2-0.3,0.5-0.7,0.7-1c0.1-0.2,0.3-0.3,0.4-0.5c0.1-0.1,0.1-0.2,0.2-0.3
		c0.1-0.1,0.1-0.2,0.2-0.3c4.3-5.5,10.3-9.5,17.1-11.2V2c-1.2,0.3-2.4,0.6-3.6,1c-0.1,0-0.2,0.1-0.3,0.1c-0.2,0.1-0.4,0.1-0.5,0.2
		c-0.1,0-0.2,0.1-0.4,0.1c-0.1,0.1-0.2,0.1-0.4,0.1c0,0-0.1,0-0.1,0c-0.2,0.1-0.3,0.1-0.5,0.2c-0.4,0.2-0.8,0.3-1.2,0.5
		c0,0-0.1,0-0.1,0c0,0-0.1,0-0.1,0.1c0,0,0,0,0,0c0,0,0,0-0.1,0c-0.3,0.1-0.5,0.2-0.8,0.4c0,0-0.1,0-0.1,0c0,0-0.1,0-0.1,0.1
		c-1.5,0.7-2.9,1.6-4.2,2.5c-4.9,3.4-8.8,8-11.5,13.3c-0.1,0.1-0.1,0.2-0.2,0.4h1V27h5.2V26h4.7v-1.8c-2.4,0.3-4.6,0.7-6.8,1.1
		c-0.1-0.1-0.2-0.2-0.3-0.3l-1.1-0.8c0.6-1.5,1.4-2.9,2.2-4.3C65.6,19.8,65.7,19.7,65.8,19.6z"/>
	<path class="st5" d="M84.6,10.4V6.6c-0.2,0.3-0.4,0.6-0.5,0.9c0,0,0,0,0,0c-0.5,0.9-1,1.9-1.5,2.9H84.6z"/>
	<path class="st5" d="M30,59.1v3.5h-1.5c-0.7,1.1-1.4,2.4-2,3.8v0h0c-0.3,0.6-0.5,1.2-0.7,1.8c-1.1,2.9-2,6.3-2.6,10v0.4h3.7
		c0.6-3.3,1.4-6.4,2.4-9.1c2-5.4,4.7-8.6,7.2-8.6c0.7,0,1.4,0.3,2.1,0.7c0.8,0.5,1.6,1.4,2.3,2.5c0.3,0.4,0.6,0.9,0.9,1.4
		c0.1,0.1,0.2,0.3,0.2,0.4c0.2,0.4,0.4,0.8,0.6,1.3c0.1,0.2,0.2,0.5,0.3,0.7v-8.7H30z"/>
	<path class="st6" d="M24.7,67c1-2.6,2.1-4.7,3.3-6.4C17.7,63,9.3,70.6,5.7,80.5c4.8-1,10.3-1.8,16.2-2.2
		C22.5,74.1,23.5,70.3,24.7,67z"/>
	<path class="st6" d="M25.2,101.1c1.7,0.1,3.4,0.2,5.1,0.2c1.7,0,3.4,0.1,5.2,0.1s3.5,0,5.2-0.1c1.7,0,3.4-0.1,5.1-0.2
		c0.4-3.1,0.5-6.3,0.5-9.7c0-3.3-0.2-6.6-0.5-9.7c-3.3-0.2-6.8-0.3-10.3-0.3c-3.5,0-7,0.1-10.3,0.3c-0.4,3.1-0.5,6.3-0.5,9.7
		C24.6,94.7,24.8,98,25.2,101.1z"/>
	<path class="st6" d="M46.2,115.8c-1,2.6-2.1,4.7-3.3,6.4c1.2-0.3,2.4-0.6,3.5-1.1c0,0,0.1,0,0.1,0c0.2-0.1,0.4-0.2,0.7-0.3
		c0.1,0,0.2-0.1,0.3-0.1c0.2-0.1,0.3-0.1,0.5-0.2c0.1-0.1,0.3-0.1,0.4-0.2c0.1-0.1,0.2-0.1,0.4-0.2c0.2-0.1,0.4-0.2,0.6-0.3
		c0.1,0,0.1-0.1,0.2-0.1c0.2-0.1,0.5-0.2,0.7-0.4c0,0,0,0,0.1,0c6.9-3.6,12.3-9.8,15-17.2c-4.8,1-10.3,1.8-16.2,2.2
		C48.4,108.7,47.4,112.5,46.2,115.8z"/>
	<path class="st5" d="M77.9,48.6c-5.9-0.5-11.4-1.2-16.2-2.2c0.1,0.3,0.2,0.6,0.4,0.9c0.3,0.8,0.7,1.6,1.1,2.4
		c0.1,0.1,0.1,0.3,0.2,0.4c0.1,0.1,0.1,0.2,0.2,0.3c0,0,0,0,0,0c0.1,0.2,0.2,0.4,0.3,0.5c3,5.3,7.5,9.7,12.9,12.5c0,0,0,0,0.1,0
		c0.2,0.1,0.5,0.3,0.7,0.4c0.1,0,0.1,0.1,0.2,0.1c0.2,0.1,0.4,0.2,0.6,0.3c0.1,0.1,0.2,0.1,0.4,0.2c0.1,0.1,0.3,0.1,0.4,0.2
		c0.2,0.1,0.3,0.1,0.5,0.2c0.1,0,0.2,0.1,0.3,0.1c0.2,0.1,0.4,0.2,0.7,0.3c0,0,0.1,0,0.1,0c1.1,0.4,2.3,0.8,3.5,1.1
		c-1.2-1.7-2.4-3.9-3.3-6.4C79.5,56.6,78.5,52.7,77.9,48.6z"/>
	<path class="st5" d="M105,22.3c5.9,0.5,11.4,1.2,16.2,2.2c-2.5-6.8-7.3-12.5-13.4-16.2c-0.3-0.2-0.5-0.3-0.8-0.5
		c-0.3-0.1-0.5-0.3-0.8-0.4c-2.4-1.3-4.9-2.2-7.5-2.8c1.2,1.7,2.4,3.9,3.3,6.4C103.4,14.3,104.3,18.1,105,22.3z"/>
	<path class="st5" d="M101.8,26.9c0-0.4-0.1-0.8-0.1-1.2c-1.2-0.1-2.5-0.1-3.7-0.2c-0.9,0-1.8-0.1-2.6-0.1c-0.8,0-1.7,0-2.5,0
		c-0.5,0-0.9,0-1.4,0c-0.5,0-0.9,0-1.4,0c-0.8,0-1.7,0-2.5,0c-0.9,0-1.8,0-2.7,0.1c-1.2,0-2.5,0.1-3.7,0.2c0,0.1,0,0.2,0,0.4
		c-0.3,3-0.5,6.1-0.5,9.3c0,3.3,0.2,6.6,0.5,9.7c1.7,0.1,3.4,0.2,5.1,0.2c1.7,0,3.4,0.1,5.2,0.1c1.7,0,3.5,0,5.2-0.1
		c1.7,0,3.4-0.1,5.1-0.2c0-0.3,0.1-0.5,0.1-0.8c0.1-1,0.2-2,0.3-3c0-0.6,0.1-1.3,0.1-1.9c0.1-1.3,0.1-2.6,0.1-3.9
		c0-1.2,0-2.5-0.1-3.7c0-0.8-0.1-1.6-0.1-2.4C102,28.5,101.9,27.7,101.8,26.9z"/>
	<path class="st3" d="M126.8,34.1c0-0.2,0-0.4,0-0.6c0-0.1,0-0.1,0-0.2c0-0.2,0-0.4,0-0.6c0-0.2,0-0.3,0-0.5c0-0.1,0-0.3,0-0.4
		c0,0,0-0.1,0-0.1c0-0.2,0-0.3-0.1-0.5c-0.1-0.5-0.1-1.1-0.2-1.6c-0.8-5.2-2.8-10.1-5.9-14.5c-0.4-0.6-0.8-1.2-1.3-1.7
		c0,0-0.1-0.1-0.1-0.2c0,0,0,0,0,0c-0.1-0.1-0.1-0.2-0.2-0.2c0,0,0,0,0-0.1c-0.1-0.1-0.1-0.1-0.2-0.2c-0.1-0.2-0.3-0.3-0.4-0.5
		c-0.1-0.1-0.2-0.2-0.2-0.2c-0.1-0.2-0.3-0.3-0.4-0.5c-0.1-0.1-0.1-0.2-0.2-0.2c-0.2-0.1-0.3-0.3-0.5-0.5c-0.1-0.1-0.1-0.2-0.2-0.2
		c-0.1-0.1-0.2-0.2-0.3-0.4c0,0-0.1-0.1-0.1-0.1c-0.1-0.1-0.2-0.2-0.2-0.2c-0.2-0.1-0.3-0.3-0.5-0.4c-0.1-0.1-0.2-0.2-0.3-0.2
		c-0.2-0.1-0.3-0.3-0.5-0.4c-0.1-0.1-0.2-0.2-0.3-0.3c-0.1-0.1-0.3-0.2-0.4-0.4c0,0,0,0,0,0c0,0-0.1-0.1-0.1-0.1
		c-0.8-0.7-1.7-1.3-2.5-1.9c0,0,0,0,0,0c-0.2-0.1-0.3-0.2-0.5-0.3c-0.1,0-0.2-0.1-0.2-0.2c-0.1-0.1-0.2-0.2-0.3-0.2c0,0,0,0-0.1,0
		c0,0-0.1-0.1-0.2-0.1c-0.1-0.1-0.2-0.1-0.4-0.2c-0.2-0.1-0.3-0.2-0.5-0.3c-0.1-0.1-0.2-0.1-0.4-0.2c-0.1,0-0.1-0.1-0.2-0.1
		c-0.1-0.1-0.2-0.1-0.3-0.2c-0.1-0.1-0.2-0.1-0.3-0.2c0,0,0,0-0.1,0c-0.2-0.1-0.3-0.2-0.5-0.3c-0.1-0.1-0.3-0.1-0.4-0.2
		c-0.2-0.1-0.3-0.2-0.5-0.2c-0.1,0-0.1,0-0.2-0.1c-0.1,0-0.1,0-0.2-0.1c-0.3-0.2-0.7-0.3-1-0.4c0,0-0.1,0-0.1-0.1
		c-0.7-0.3-1.4-0.5-2.1-0.8c-1.5-0.6-3.2-1-4.8-1.3c-1.3-0.2-2.5-0.4-3.8-0.5c-0.2,0-0.4,0-0.5,0c-0.2,0-0.4,0-0.6,0
		c-0.1,0-0.2,0-0.3,0c-0.2,0-0.3,0-0.5,0h-0.3c-0.2,0-0.5,0-0.7,0c-0.2,0-0.5,0-0.7,0h-0.3c-0.2,0-0.3,0-0.5,0c-0.1,0-0.2,0-0.3,0
		c-0.1,0-0.3,0-0.4,0c-0.1,0-0.2,0-0.3,0c-0.1,0-0.2,0-0.3,0c0,0,0,0,0,0c-0.2,0-0.4,0-0.6,0.1c-0.1,0-0.2,0-0.2,0h0
		c-1,0.1-2.1,0.2-3.1,0.5C83,1,81.4,1.3,79.9,1.9C79.8,2,79.7,2,79.6,2c-0.2,0.1-0.4,0.1-0.5,0.2c-0.1,0-0.2,0.1-0.3,0.1
		c-0.1,0.1-0.2,0.1-0.4,0.1c0,0-0.1,0-0.1,0c-0.2,0.1-0.3,0.1-0.4,0.2c-0.4,0.2-0.8,0.3-1.2,0.5c0,0-0.1,0-0.1,0c0,0-0.1,0-0.1,0.1
		c0,0,0,0,0,0c0,0,0,0-0.1,0c-0.2,0.1-0.5,0.2-0.8,0.4c0,0-0.1,0-0.1,0c0,0-0.1,0-0.1,0.1c-1.5,0.7-2.9,1.6-4.2,2.5
		c-4.9,3.4-8.8,8-11.5,13.3c-0.2,0.4-0.4,0.8-0.5,1.2l-4.9-3.5c-0.8-0.6-2-0.7-2.9-0.2c-0.9,0.5-1.5,1.4-1.5,2.5v4.6H41
		c-4.1,0-7.5,3.4-7.5,7.5v2.7c-2.2,0.8-3.7,2.8-3.7,5.3v6.9c0,2.4,1.6,4.5,3.7,5.3V56c-0.6,0-1.2,0.1-1.8,0.1c-0.2,0-0.4,0-0.6,0.1
		c-0.2,0-0.4,0-0.6,0.1c-0.1,0-0.3,0-0.4,0.1c-0.5,0.1-1,0.1-1.5,0.2c-1.6,0.3-3.2,0.7-4.8,1.3c-0.7,0.2-1.4,0.5-2,0.8
		c-0.1,0-0.1,0-0.1,0c-0.3,0.1-0.7,0.3-1,0.4c0,0-0.1,0.1-0.2,0.1c-0.1,0-0.1,0-0.2,0.1c-0.2,0.1-0.3,0.2-0.5,0.2
		c-0.1,0.1-0.3,0.1-0.4,0.2c-0.2,0.1-0.3,0.2-0.5,0.3c-0.1,0.1-0.2,0.1-0.4,0.2c-0.2,0.1-0.3,0.2-0.5,0.3c-0.1,0.1-0.2,0.1-0.4,0.2
		c-0.2,0.1-0.3,0.2-0.5,0.3c-0.1,0.1-0.2,0.1-0.3,0.2c-0.1,0-0.1,0.1-0.2,0.1c-0.1,0.1-0.2,0.1-0.3,0.2c-0.1,0.1-0.2,0.2-0.3,0.2
		c-0.2,0.1-0.3,0.2-0.5,0.3c-0.1,0.1-0.2,0.2-0.3,0.2c-0.2,0.1-0.3,0.2-0.5,0.3c-0.1,0.1-0.2,0.2-0.3,0.3c-0.2,0.1-0.3,0.2-0.4,0.3
		c-0.1,0.1-0.2,0.1-0.3,0.2c0,0-0.1,0.1-0.1,0.1c-0.1,0.1-0.3,0.2-0.4,0.3c-0.1,0.1-0.2,0.2-0.3,0.3c-0.2,0.1-0.3,0.2-0.4,0.4
		c-0.1,0.1-0.2,0.2-0.3,0.3c-0.2,0.1-0.3,0.3-0.5,0.4c-0.1,0.1-0.2,0.2-0.3,0.2c-0.1,0.2-0.3,0.3-0.5,0.4c-0.1,0.1-0.2,0.2-0.2,0.2
		c0,0-0.1,0.1-0.1,0.1c-0.1,0.1-0.2,0.2-0.3,0.4c-0.1,0.1-0.2,0.2-0.2,0.2c-0.2,0.2-0.3,0.3-0.5,0.5c-0.1,0.1-0.2,0.2-0.2,0.2
		C9.2,67.7,9,67.8,8.9,68c-0.1,0.1-0.1,0.2-0.2,0.2c-0.1,0.2-0.3,0.3-0.4,0.5c-0.1,0.1-0.1,0.1-0.2,0.2c0,0,0,0,0,0.1
		c-0.1,0.2-0.3,0.3-0.4,0.5c-0.1,0.1-0.1,0.2-0.2,0.2C7.2,70,7.1,70.1,7,70.3c0,0.1-0.1,0.1-0.1,0.2c-0.2,0.2-0.3,0.4-0.5,0.6
		c0,0-0.1,0.1-0.1,0.2c-0.2,0.2-0.3,0.5-0.5,0.7c0,0,0,0.1-0.1,0.1c0,0,0,0.1-0.1,0.1c-0.1,0.2-0.2,0.4-0.4,0.6c0,0-0.1,0.1-0.1,0.1
		c-0.1,0.2-0.3,0.5-0.4,0.7c0,0-0.1,0.1-0.1,0.2c-0.1,0.2-0.3,0.5-0.4,0.7c0,0.1-0.1,0.1-0.1,0.2c-0.1,0.2-0.2,0.5-0.4,0.7
		c0,0.1-0.1,0.1-0.1,0.2c0,0,0,0,0,0c-0.1,0.2-0.2,0.5-0.3,0.7c0,0-0.1,0.1-0.1,0.1c-0.1,0.3-0.2,0.6-0.4,0.9c0,0,0,0,0,0.1
		c-0.3,0.6-0.5,1.3-0.8,1.9c-0.2,0.6-0.4,1.2-0.6,1.8c0,0,0,0,0,0.1c-0.1,0.2-0.2,0.5-0.2,0.8c0,0.1,0,0.2-0.1,0.2
		c0,0.2-0.1,0.4-0.1,0.6c0,0,0,0,0,0C1,83,1,83.1,1,83.2v0c-0.1,0.2-0.1,0.5-0.2,0.7c0,0.1,0,0.2,0,0.3c-0.2,1-0.4,2-0.5,3
		C0.1,88.6,0,90,0,91.4c0,0.3,0,0.6,0,0.8c0,0.1,0,0.1,0,0.2c0,0.2,0,0.5,0,0.7c0,0.1,0,0.1,0,0.2c0,0.1,0,0.2,0,0.3
		c0,0.2,0,0.4,0,0.6c0,0.1,0,0.1,0,0.2c0,0.5,0.1,0.9,0.1,1.4c0,0,0,0,0,0c0.2,1.9,0.6,3.8,1.2,5.6c0,0,0,0,0,0
		c0.1,0.2,0.1,0.4,0.2,0.7c0,0,0,0,0,0l0.2,0.6c0,0,0,0.1,0,0.1c0.1,0.1,0.1,0.3,0.2,0.4c0,0.1,0,0.2,0.1,0.3
		c0.1,0.2,0.1,0.3,0.2,0.5c0,0.1,0,0.1,0,0.2c0.1,0.2,0.2,0.4,0.3,0.6c0.1,0.2,0.2,0.4,0.3,0.7c0.1,0.2,0.2,0.4,0.3,0.6
		c0,0,0,0.1,0,0.1c0.1,0.2,0.2,0.4,0.3,0.6c0.1,0.2,0.2,0.4,0.3,0.6c0.1,0.1,0.1,0.2,0.2,0.3l0.2,0.4c0,0.1,0.1,0.1,0.1,0.2l0.2,0.4
		c0.1,0.1,0.1,0.2,0.2,0.3c0,0.1,0.1,0.2,0.2,0.3c0.1,0.1,0.1,0.2,0.2,0.3c0.1,0.1,0.1,0.2,0.2,0.3c0.2,0.4,0.4,0.7,0.7,1.1
		c0.1,0.2,0.2,0.3,0.3,0.4c0.1,0.2,0.3,0.4,0.4,0.6c0.3,0.4,0.5,0.7,0.8,1.1c0,0,0.1,0.1,0.1,0.2c1.5,1.9,3.1,3.6,4.9,5.2
		c0,0,0,0,0,0c0,0.1,0.1,0.1,0.2,0.2c0.1,0.1,0.2,0.2,0.3,0.2c0,0,0.1,0.1,0.1,0.1c0.1,0.1,0.2,0.2,0.3,0.3c0,0,0.1,0,0.1,0.1
		c0.2,0.2,0.5,0.4,0.8,0.6c0.1,0.1,0.3,0.2,0.4,0.3c0.3,0.2,0.6,0.4,0.8,0.6c0.1,0.1,0.3,0.2,0.4,0.3c0.1,0.1,0.3,0.2,0.4,0.3
		c0.1,0.1,0.3,0.2,0.4,0.3c1.8,1.1,3.7,2.1,5.7,2.9c0.2,0.1,0.4,0.2,0.6,0.2c0,0,0,0,0,0c0.1,0,0.2,0.1,0.3,0.1
		c0.1,0,0.2,0.1,0.3,0.1c0,0,0,0,0,0c0.2,0.1,0.4,0.1,0.6,0.2l0.6,0.2c0.7,0.2,1.3,0.4,2,0.6c0.4,0.1,0.9,0.2,1.3,0.3
		c0.2,0,0.5,0.1,0.7,0.1c2.2,0.4,4.4,0.6,6.6,0.6c6.9,0,13.3-2,18.7-5.4c0.2-0.1,0.3-0.2,0.5-0.3c0.1-0.1,0.2-0.2,0.4-0.2
		c0.3-0.2,0.6-0.4,0.9-0.6c0.2-0.2,0.5-0.3,0.7-0.5c0.6-0.4,1.2-0.9,1.8-1.4c0,0,0.1,0,0.1-0.1c0,0,0,0,0,0c1.9-1.6,3.6-3.4,5.1-5.3
		c0,0,0,0,0,0l0,0c0.1-0.1,0.2-0.2,0.2-0.3c0.1-0.1,0.2-0.2,0.3-0.3c0.1-0.1,0.2-0.2,0.2-0.4c0.1-0.1,0.2-0.2,0.2-0.3
		c2.7-3.8,4.5-8.1,5.5-12.6c0-0.1,0.1-0.3,0.1-0.4c0.1-0.4,0.2-0.8,0.2-1.3c0.3-1.9,0.5-3.9,0.5-5.9c0-2.5-0.2-4.9-0.7-7.2
		c0-0.1,0-0.2-0.1-0.3c0-0.2-0.1-0.5-0.2-0.7v0c0,0,0,0,0,0c0-0.2-0.1-0.5-0.2-0.7c0-0.1,0-0.2-0.1-0.3c0-0.1,0-0.1,0-0.2
		c0,0,0,0,0-0.1c-0.1-0.2-0.1-0.4-0.2-0.6c0,0,0,0,0,0c0,0,0-0.1,0-0.1c0,0,0,0,0-0.1c0-0.1,0-0.1-0.1-0.2c0-0.1-0.1-0.3-0.1-0.4
		c-0.1-0.4-0.3-0.8-0.4-1.2c-0.1-0.3-0.2-0.6-0.4-1c-0.1-0.3-0.3-0.6-0.4-1c0,0,0,0,0-0.1c-0.1-0.3-0.2-0.6-0.4-0.9
		c-0.2-0.3-0.3-0.6-0.4-0.9c0,0,0,0,0,0c-0.1-0.2-0.2-0.3-0.3-0.5c-0.1-0.1-0.1-0.2-0.2-0.3c0-0.1-0.1-0.1-0.1-0.2
		c-0.1-0.2-0.3-0.5-0.4-0.7c0,0-0.1-0.1-0.1-0.2c-0.3-0.5-0.6-1-0.9-1.4c0,0,0,0,0,0c0,0,0-0.1-0.1-0.1c-0.1-0.2-0.3-0.5-0.5-0.7
		c0,0-0.1-0.1-0.1-0.2c0,0,0,0,0-0.1c-0.1-0.2-0.2-0.3-0.3-0.4c-0.1-0.1-0.2-0.2-0.2-0.3c-0.1-0.1-0.1-0.1-0.2-0.2
		c-0.1-0.2-0.3-0.4-0.4-0.6c-0.1-0.1-0.1-0.2-0.2-0.2c-0.2-0.2-0.3-0.4-0.4-0.5c0,0,0,0,0-0.1c0,0,0,0-0.1-0.1
		c-0.2-0.2-0.3-0.4-0.5-0.6c-0.1-0.1-0.1-0.2-0.2-0.2c-0.1-0.1-0.2-0.2-0.3-0.4c0,0-0.1-0.1-0.1-0.1c-0.1-0.1-0.1-0.2-0.2-0.2
		L61.1,67c-0.1-0.1-0.1-0.2-0.2-0.2c-0.1-0.1-0.2-0.2-0.2-0.2c0,0-0.1-0.1-0.1-0.1c-0.1-0.1-0.2-0.2-0.2-0.2c0,0,0,0-0.1,0
		c0,0,0,0,0-0.1C60.1,66,60,65.9,60,65.8c-0.1-0.1-0.3-0.3-0.5-0.4c-0.1-0.1-0.2-0.2-0.3-0.2c-0.2-0.1-0.3-0.3-0.5-0.4
		c-0.1-0.1-0.2-0.2-0.3-0.3c-0.1-0.1-0.3-0.2-0.4-0.4c-0.1-0.1-0.2-0.2-0.3-0.3c-0.1-0.1-0.3-0.2-0.4-0.3c0,0-0.1,0-0.1-0.1
		c0,0,0,0,0,0c0,0-0.1,0-0.1-0.1c0,0-0.1-0.1-0.1-0.1c-0.2-0.1-0.3-0.2-0.4-0.3c-0.1-0.1-0.2-0.2-0.3-0.3c-0.2-0.1-0.3-0.2-0.5-0.3
		c-0.1-0.1-0.2-0.2-0.3-0.2c-0.2-0.1-0.3-0.2-0.5-0.3c-0.1-0.1-0.2-0.1-0.3-0.2c0,0,0,0,0,0c-0.1-0.1-0.2-0.1-0.3-0.2
		c-0.1,0-0.1-0.1-0.2-0.1c-0.1-0.1-0.2-0.1-0.4-0.2c-0.1,0-0.2-0.1-0.2-0.2c-0.1,0-0.2-0.1-0.2-0.1c0,0-0.1,0-0.1-0.1
		c-0.1,0-0.2-0.1-0.3-0.2c0,0,0,0-0.1,0l-0.4-0.2c0,0,0,0,0,0c-0.1-0.1-0.2-0.1-0.3-0.2c0,0,0,0-0.1,0c-0.1-0.1-0.2-0.1-0.3-0.2
		c-0.1,0-0.1-0.1-0.2-0.1c-0.1,0-0.1,0-0.2-0.1c-0.1,0-0.1-0.1-0.2-0.1c-0.1,0-0.1,0-0.2-0.1c-0.1-0.1-0.2-0.1-0.3-0.2
		c-0.1,0-0.1-0.1-0.2-0.1c0,0-0.1,0-0.2-0.1c-0.3-0.1-0.6-0.2-0.9-0.4c0,0-0.1,0-0.1-0.1c0,0-0.1,0-0.1,0c-0.7-0.3-1.4-0.6-2.1-0.8
		c-1.5-0.6-3.2-1-4.8-1.3c-0.8-0.1-1.5-0.3-2.3-0.4c-0.1,0-0.2,0-0.4,0c-0.2,0-0.3,0-0.5-0.1c-0.6-0.1-1.2-0.1-1.8-0.1v-4.2
		c2.2-0.8,3.8-2.8,3.8-5.3v-6.9c0-2.4-1.6-4.5-3.8-5.3v-2.7c0-2,1.7-3.7,3.7-3.7h8.8v4.7c0,1.1,0.6,2,1.5,2.5
		c0.4,0.2,0.8,0.3,1.3,0.3c0.6,0,1.1-0.2,1.6-0.5l1.8-1.3c0,0.1,0,0.2,0,0.2c0,0.2,0,0.3,0,0.5c0,0.2,0,0.3,0,0.5c0,0.2,0,0.4,0,0.5
		c0,0.1,0,0.3,0,0.4v0.4c0,0.2,0,0.4,0,0.6c0,0.1,0,0.2,0,0.3c0,0.1,0,0.1,0,0.2c0,0.2,0,0.4,0,0.7c0,0.1,0,0.2,0,0.3
		c0,0.3,0,0.6,0.1,0.9c0.6,5.6,2.5,11,5.6,15.7c0.3,0.5,0.7,1,1,1.5c0.1,0.2,0.3,0.4,0.5,0.6c0,0,0,0,0,0c1.2,1.6,2.6,3.2,4.2,4.6
		c0.1,0.1,0.1,0.1,0.2,0.2c0.2,0.2,0.4,0.4,0.6,0.6c0.1,0.1,0.1,0.1,0.2,0.2c1.5,1.3,3.2,2.5,4.9,3.5c0.1,0,0.1,0.1,0.2,0.1
		c2.3,1.4,4.8,2.4,7.3,3.2c0.1,0.1,0.3,0.1,0.4,0.1c0.4,0.1,0.8,0.2,1.3,0.4c0.1,0,0.2,0,0.3,0.1c0.8,0.2,1.5,0.4,2.3,0.5l1,0.2
		c0.2,0,0.4,0.1,0.5,0.1c0,0,0,0,0.1,0c0.4,0,0.7,0.1,1,0.1h0l0.4,0c0.6,0,1.2,0.1,1.9,0.1c0.1,0,0.3,0,0.4,0c0.1,0,0.3,0,0.4,0H92
		c0.1,0,0.3,0,0.4,0c0.1,0,0.2,0,0.4,0c0.3,0,0.6,0,0.9,0c0.1,0,0.3,0,0.4,0c0.2,0,0.4,0,0.6,0l0.4,0h0c0.2,0,0.3,0,0.5-0.1
		c0.2,0,0.4,0,0.6-0.1c0,0,0,0,0,0c0.2,0,0.4,0,0.6-0.1c0.4,0,0.7-0.1,1-0.2c0.3-0.1,0.7-0.1,1-0.2c0.2,0,0.4-0.1,0.5-0.1
		c0.2-0.1,0.5-0.1,0.7-0.2c0.1,0,0.2,0,0.3-0.1c1.9-0.5,3.7-1.1,5.5-1.9c0,0,0,0,0,0c0,0,0,0,0,0c0,0,0,0,0,0
		c0.2-0.1,0.5-0.2,0.7-0.3c0,0,0,0,0,0c0.1,0,0.2-0.1,0.3-0.2c0,0,0.1,0,0.1,0c0.1-0.1,0.3-0.1,0.4-0.2c0,0,0.1,0,0.1,0
		c0,0,0.1,0,0.1,0c0.2-0.1,0.4-0.2,0.6-0.3c0.2-0.1,0.5-0.3,0.7-0.4c0.1-0.1,0.3-0.2,0.4-0.2c0,0,0.1-0.1,0.1-0.1
		c0.1,0,0.2-0.1,0.2-0.1c0.2-0.1,0.4-0.2,0.5-0.3c0.3-0.2,0.5-0.3,0.7-0.5c0.2-0.2,0.5-0.3,0.7-0.5c0.9-0.6,1.8-1.3,2.6-2
		c0,0,0.1-0.1,0.1-0.1c0.2-0.2,0.5-0.4,0.7-0.6c0.2-0.2,0.4-0.4,0.6-0.5l0.1-0.1c0.5-0.5,1-1,1.4-1.4c0.8-0.8,1.5-1.7,2.2-2.5
		c0,0,0.1-0.1,0.1-0.1c3.9-5.1,6.3-10.9,7-17.2c0-0.1,0-0.3,0-0.4c0-0.3,0.1-0.6,0.1-0.9c0-0.4,0.1-0.8,0.1-1.1c0-0.1,0-0.1,0-0.2
		c0-0.1,0-0.3,0-0.4c0-0.1,0-0.2,0-0.3c0-0.1,0-0.1,0-0.2v0c0-0.3,0-0.6,0-0.8C126.9,35,126.9,34.5,126.8,34.1z M35.5,101.4
		c-1.8,0-3.5,0-5.2-0.1c-1.7-0.1-3.4-0.1-5.1-0.2c-0.4-3.1-0.5-6.3-0.5-9.7c0-3.3,0.2-6.6,0.5-9.7c1.7-0.1,3.4-0.2,5.1-0.2
		c1.7,0,3.4-0.1,5.2-0.1c1.8,0,3.5,0,5.2,0.1c1.7,0,3.4,0.1,5.1,0.2c0.1,0.8,0.2,1.5,0.2,2.3c0.1,1.6,0.2,3.2,0.3,4.8
		c0,0.8,0,1.7,0,2.5c0,0.8,0,1.7,0,2.5c0,0,0,0,0,0c0,1.6-0.1,3.2-0.3,4.8c-0.1,0.8-0.2,1.6-0.2,2.3c-1.7,0.1-3.4,0.2-5.1,0.2
		C38.9,101.3,37.2,101.4,35.5,101.4z M37.9,77.8c-0.8,0-1.6,0-2.4,0c-0.8,0-1.6,0-2.5,0c-2,0-4,0.1-6,0.2c-0.4,0-0.9,0-1.3,0.1
		c0.6-3.6,1.5-6.8,2.5-9.7c2-5.4,4.8-8.6,7.2-8.6c0.7,0,1.4,0.2,2.1,0.7c0.6,0.4,1.2,0.9,1.7,1.6c0,0,0,0,0,0c0,0,0,0,0,0
		c0.2,0.2,0.4,0.5,0.6,0.8c0.3,0.4,0.6,0.9,0.9,1.4c0.1,0.1,0.2,0.3,0.2,0.4c0.2,0.4,0.4,0.8,0.6,1.2c0.1,0.3,0.3,0.6,0.4,0.9
		c0.2,0.5,0.4,1,0.6,1.5c1.1,2.8,1.9,6.1,2.5,9.7C42.8,77.9,40.4,77.8,37.9,77.8z M5.7,80.5c0.2-0.6,0.5-1.2,0.7-1.8
		c0.2-0.5,0.5-1,0.7-1.5c0.4-0.8,0.8-1.5,1.2-2.2c0.1-0.2,0.2-0.4,0.3-0.5c0.1-0.2,0.2-0.4,0.3-0.5c0.2-0.2,0.3-0.5,0.5-0.7
		c0.2-0.3,0.4-0.6,0.6-0.8c0,0,0.1-0.1,0.1-0.1c0.1-0.2,0.2-0.3,0.4-0.4c0.1-0.2,0.3-0.4,0.5-0.6c0.2-0.2,0.4-0.4,0.5-0.7
		c0.2-0.2,0.4-0.4,0.5-0.6c0.3-0.3,0.6-0.6,0.8-0.9c0.1-0.1,0.2-0.2,0.2-0.2c0.1-0.1,0.2-0.2,0.3-0.2c0.2-0.2,0.4-0.3,0.5-0.5
		c0.2-0.2,0.3-0.3,0.5-0.5c0.2-0.2,0.4-0.3,0.5-0.5c0.2-0.2,0.5-0.4,0.8-0.6c0.3-0.2,0.5-0.4,0.8-0.6c1-0.8,2.1-1.5,3.3-2.1
		c0.6-0.3,1.1-0.6,1.7-0.9c0.6-0.3,1.2-0.6,1.8-0.8c0.8-0.3,1.5-0.6,2.3-0.8c0.4-0.1,0.8-0.2,1.2-0.4c0.4-0.1,0.8-0.2,1.2-0.3h0
		c-0.1,0.2-0.3,0.4-0.5,0.6c-0.3,0.5-0.6,1-0.9,1.6c-0.1,0.2-0.2,0.4-0.3,0.6c-0.6,1.1-1.1,2.3-1.6,3.6c-0.2,0.4-0.3,0.8-0.5,1.2
		c-0.1,0.4-0.2,0.7-0.3,1.1c-0.1,0.4-0.2,0.7-0.3,1.1c0,0,0,0,0,0s0,0,0,0c-0.1,0.3-0.1,0.5-0.2,0.8c-0.1,0.3-0.2,0.7-0.3,1
		c-0.1,0.5-0.2,1-0.3,1.4c-0.1,0.5-0.2,1-0.3,1.5c-0.1,0.5-0.2,1-0.3,1.5c-0.1,0.5-0.2,1-0.3,1.5v0c-0.7,0.1-1.5,0.1-2.2,0.2
		c-0.5,0-1.1,0.1-1.6,0.2c-0.4,0-0.9,0.1-1.3,0.1c-0.1,0-0.1,0-0.2,0c-0.1,0-0.1,0-0.2,0c-0.5,0.1-1,0.1-1.5,0.2c-1,0.1-2,0.3-3,0.4
		c-0.4,0-0.7,0.1-1.1,0.2c-0.1,0-0.1,0-0.2,0c-0.1,0-0.2,0-0.4,0.1c0,0-0.1,0-0.1,0c-0.4,0.1-0.8,0.1-1.2,0.2
		c-0.5,0.1-1,0.2-1.4,0.3c-0.3,0.1-0.6,0.1-0.9,0.2C6.3,80.4,6,80.4,5.7,80.5L5.7,80.5z M4.5,98.2c-0.1-0.5-0.2-1-0.3-1.5
		c0-0.1,0-0.2,0-0.3c0-0.2,0-0.3-0.1-0.5c0-0.1,0-0.2,0-0.3c0-0.2-0.1-0.5-0.1-0.7c-0.1-0.7-0.1-1.4-0.2-2.1c0-0.4,0-0.9,0-1.3
		c0-2.3,0.2-4.6,0.7-6.8c4.9-1.2,10.7-2,16.9-2.6c-0.3,3-0.5,6.2-0.5,9.4c0,3.2,0.2,6.4,0.5,9.4c-0.5,0-1-0.1-1.5-0.1
		C14.2,100.1,9,99.3,4.5,98.2z M24.6,121.2C24.5,121.2,24.5,121.2,24.6,121.2c-0.3-0.1-0.5-0.2-0.7-0.3c-0.1,0-0.2-0.1-0.3-0.1
		c-0.2-0.1-0.3-0.1-0.5-0.2c-0.2,0-0.3-0.1-0.4-0.2c-0.1-0.1-0.2-0.1-0.4-0.2c-0.2-0.1-0.4-0.2-0.6-0.3c-0.1,0-0.1-0.1-0.2-0.1
		c-0.2-0.1-0.5-0.2-0.7-0.4c0,0,0,0,0,0c-6.9-3.6-12.3-9.8-15-17.1c4.8,1,10.3,1.8,16.2,2.3c0.7,4.1,1.6,7.9,2.9,11.2
		c0.3,0.8,0.6,1.6,1,2.3c0,0,0,0,0,0c0.7,1.6,1.5,3,2.4,4.1C26.9,122,25.7,121.6,24.6,121.2z M35.5,123.1c-1,0-2.1-0.5-3.1-1.5
		c-1.3-1.2-2.5-3.1-3.6-5.6c-0.2-0.5-0.4-1-0.6-1.5c-0.1-0.4-0.3-0.7-0.4-1.1c-0.1-0.2-0.1-0.4-0.2-0.6c-0.8-2.4-1.5-5.1-1.9-8
		c3.2,0.2,6.4,0.3,9.8,0.3c3.3,0,6.6-0.1,9.8-0.3c-0.6,3.6-1.5,6.8-2.5,9.7C40.6,119.9,37.9,123.1,35.5,123.1z M65.2,102.3
		c-0.4,0.9-0.7,1.8-1.1,2.7c-0.2,0.4-0.4,0.8-0.6,1.2c-0.1,0.2-0.2,0.4-0.3,0.6c-0.1,0.2-0.2,0.4-0.3,0.5c-0.2,0.4-0.4,0.7-0.7,1.1
		c-0.2,0.4-0.5,0.7-0.7,1.1c-0.2,0.3-0.4,0.6-0.7,0.9c-0.1,0.1-0.1,0.1-0.2,0.2c-0.2,0.3-0.5,0.6-0.7,0.9c-0.3,0.3-0.5,0.7-0.8,1
		c-0.3,0.3-0.6,0.6-0.9,0.9c-0.7,0.7-1.4,1.4-2.1,2c-0.7,0.6-1.5,1.2-2.3,1.8c-0.3,0.2-0.6,0.4-0.9,0.6c-0.3,0.2-0.6,0.4-0.9,0.6
		c-0.2,0.1-0.3,0.2-0.5,0.3c-0.2,0.1-0.3,0.2-0.5,0.3c-0.3,0.2-0.6,0.4-1,0.5v0c0,0,0,0,0,0c0,0,0,0,0,0c-0.2,0.1-0.5,0.2-0.7,0.4
		c-0.1,0-0.1,0.1-0.2,0.1c-0.2,0.1-0.4,0.2-0.6,0.3c-0.1,0.1-0.2,0.1-0.3,0.2c0,0-0.1,0-0.1,0c0,0-0.1,0-0.1,0.1c0,0,0,0-0.1,0h0
		c0,0-0.1,0-0.1,0.1c-0.2,0.1-0.3,0.2-0.5,0.2c0,0-0.1,0-0.1,0c0,0-0.1,0-0.1,0c-0.1,0-0.1,0.1-0.2,0.1c0,0-0.1,0-0.1,0
		c-0.1,0-0.2,0.1-0.3,0.1c0,0,0,0,0,0c0,0,0,0,0,0c-1.1,0.4-2.3,0.8-3.5,1c0.2-0.2,0.3-0.4,0.5-0.7c0.3-0.5,0.6-0.9,0.9-1.4
		c0.4-0.8,0.8-1.6,1.2-2.5c0.3-0.6,0.5-1.2,0.8-1.9c1.2-3.3,2.2-7.1,2.8-11.2c1.4-0.1,2.8-0.2,4.2-0.4c3.6-0.4,7-0.9,10.2-1.5
		c0.3-0.1,0.6-0.1,0.9-0.2C64.6,102.5,64.9,102.4,65.2,102.3L65.2,102.3z M66.4,84.6c0.5,2.2,0.7,4.5,0.7,6.8c0,0.3,0,0.6,0,0.9
		c0,0.1,0,0.2,0,0.3c0,0.2,0,0.4,0,0.6c0,0.1,0,0.2,0,0.3c0,0.2,0,0.4,0,0.6c0,0,0,0.1,0,0.1c-0.1,1.4-0.3,2.8-0.6,4.1
		c-4.5,1.1-9.8,1.9-15.4,2.4c-0.5,0-1,0.1-1.5,0.1c0.3-3,0.5-6.2,0.5-9.4c0-3.2-0.2-6.4-0.5-9.4C55.8,82.5,61.5,83.4,66.4,84.6z
		 M51.9,64.3c0.2,0.1,0.3,0.2,0.4,0.3c0.3,0.2,0.5,0.3,0.8,0.5c0.4,0.3,0.8,0.5,1.2,0.8c0.3,0.2,0.5,0.4,0.8,0.6s0.5,0.4,0.8,0.6
		c0.5,0.4,1,0.8,1.5,1.3c0.2,0.2,0.5,0.4,0.7,0.7c0.2,0.2,0.5,0.5,0.7,0.7c0.6,0.6,1.1,1.2,1.6,1.8c0.2,0.3,0.4,0.5,0.6,0.8
		c0.3,0.4,0.6,0.8,0.9,1.2c0.2,0.3,0.3,0.5,0.5,0.8c0.2,0.3,0.3,0.5,0.5,0.8c0.1,0.1,0.2,0.3,0.2,0.4c0.1,0.1,0.2,0.3,0.2,0.4
		c0.3,0.6,0.6,1.1,0.9,1.7c0.1,0.2,0.1,0.3,0.2,0.5c0.3,0.7,0.6,1.5,0.9,2.3c-4.8-1-10.3-1.8-16.2-2.2c-0.6-4.2-1.6-8-2.8-11.2
		c-0.2-0.5-0.4-1-0.6-1.4c0-0.1-0.1-0.3-0.2-0.5c-0.4-0.9-0.8-1.7-1.2-2.5c-0.1-0.3-0.3-0.5-0.4-0.7c-0.2-0.3-0.4-0.7-0.6-1
		c-0.1-0.1-0.2-0.3-0.3-0.4c0.1,0,0.2,0,0.3,0.1C46.2,61.4,49.2,62.7,51.9,64.3z M37.3,39.6v6.9c0,1-0.8,1.9-1.9,1.9
		c-1,0-1.9-0.8-1.9-1.9v-6.9c0-1,0.8-1.9,1.9-1.9C36.5,37.7,37.3,38.6,37.3,39.6z M99.9,4.9c0.3,0.1,0.6,0.2,0.9,0.2
		c0.2,0.1,0.4,0.1,0.6,0.2c0.2,0.1,0.4,0.1,0.6,0.2c0,0,0.1,0,0.1,0c0,0,0.1,0,0.1,0c0,0,0.1,0,0.1,0c0.4,0.2,0.8,0.3,1.2,0.5
		c0.6,0.2,1.2,0.5,1.8,0.8c0.3,0.1,0.6,0.3,0.9,0.5c0.3,0.1,0.5,0.3,0.8,0.4c0.2,0.1,0.5,0.2,0.7,0.4c0,0,0.1,0,0.1,0.1
		c0.3,0.2,0.6,0.4,1,0.6c0.3,0.2,0.5,0.4,0.8,0.5c0,0,0.1,0.1,0.1,0.1c0,0,0.1,0,0.1,0.1c0.2,0.1,0.4,0.2,0.5,0.4
		c0.2,0.1,0.4,0.3,0.5,0.4c0.2,0.1,0.3,0.2,0.4,0.3c0,0,0,0,0.1,0.1c0,0,0,0,0,0c0,0,0.1,0.1,0.1,0.1c0,0,0,0,0.1,0
		c0,0,0.1,0.1,0.1,0.1c0.2,0.2,0.4,0.3,0.5,0.5c0.2,0.2,0.3,0.3,0.5,0.5c0.2,0.2,0.4,0.4,0.6,0.6c0.2,0.2,0.5,0.5,0.7,0.7
		c0.3,0.3,0.6,0.6,0.9,1c0.3,0.3,0.6,0.7,0.9,1c0.3,0.3,0.6,0.7,0.8,1v0c0.3,0.3,0.5,0.7,0.8,1.1c0.3,0.4,0.5,0.7,0.7,1.1
		c0.2,0.4,0.5,0.8,0.7,1.1c0.5,0.8,0.9,1.6,1.2,2.4c0.4,0.8,0.7,1.6,1,2.5c-1.1-0.2-2.3-0.5-3.5-0.7c-0.1,0-0.2,0-0.2,0
		c-1.3-0.2-2.6-0.4-4-0.6c-0.7-0.1-1.4-0.2-2.1-0.3c-0.7-0.1-1.4-0.2-2.1-0.2c-1.4-0.2-2.9-0.3-4.3-0.4c-0.1-0.5-0.2-1-0.3-1.5
		c-0.1-0.5-0.2-1-0.3-1.5c-0.1-0.4-0.2-0.8-0.2-1.1c-0.5-2.1-1-4.1-1.6-5.9c-0.1-0.4-0.3-0.8-0.4-1.1c-0.1-0.3-0.2-0.6-0.4-0.9
		c-0.1-0.3-0.2-0.6-0.4-0.9c-0.1-0.3-0.3-0.6-0.4-0.9c-0.1-0.3-0.3-0.6-0.4-0.8c-0.1-0.2-0.2-0.5-0.4-0.7c-0.1-0.2-0.2-0.4-0.3-0.6
		c-0.1-0.1-0.1-0.2-0.2-0.3c-0.1-0.1-0.1-0.2-0.2-0.3c0,0,0,0,0,0c-0.1-0.1-0.2-0.2-0.2-0.3C99.1,5,99,4.8,98.8,4.6
		c0.2,0.1,0.5,0.1,0.7,0.2C99.7,4.8,99.8,4.8,99.9,4.9z M91.4,45.4c-1.8,0-3.5,0-5.2-0.1c-0.8,0-1.7-0.1-2.6-0.1
		c-0.8,0-1.7-0.1-2.5-0.1v0c-0.3-3.1-0.5-6.3-0.5-9.7c0-1.6,0-3.2,0.1-4.7c0.1-1.6,0.2-3.1,0.4-4.6c0-0.1,0-0.2,0-0.4
		c1.2-0.1,2.5-0.1,3.7-0.2c0.9,0,1.8-0.1,2.7-0.1c0.5,0,1.1,0,1.7,0c0.1,0,0.1,0,0.2,0c0.2,0,0.4,0,0.6,0h2.8c0.2,0,0.4,0,0.6,0
		c0.1,0,0.1,0,0.2,0c0.6,0,1.1,0,1.7,0c0.4,0,0.9,0,1.3,0c0.4,0,0.9,0,1.3,0c0.6,0,1.2,0,1.8,0.1c0.1,0,0.2,0,0.3,0
		c0.5,0,1.1,0.1,1.6,0.1h0c0,0.4,0.1,0.8,0.1,1.2s0.1,0.8,0.1,1.2c0,0.4,0.1,0.8,0.1,1.2c0,0.4,0,0.8,0.1,1.2c0,0.4,0,0.8,0.1,1.2
		c0,1.2,0.1,2.5,0.1,3.7c0,1.3,0,2.6-0.1,3.8v0.1c0,0.7-0.1,1.3-0.1,1.9c-0.1,1-0.2,2-0.3,3c0,0.1,0,0.3,0,0.4c0,0.1,0,0.3,0,0.4
		c-0.8,0-1.7,0.1-2.6,0.1c-0.8,0-1.7,0.1-2.5,0.1h-0.1C94.9,45.4,93.2,45.4,91.4,45.4z M63.6,24.1c-0.1-0.1-0.1-0.1-0.2-0.2
		c0,0-0.1-0.1-0.1-0.1l-1.1-0.8c0.6-1.5,1.4-2.9,2.2-4.3c0.1-0.1,0.2-0.3,0.3-0.4c0.1-0.1,0.1-0.2,0.2-0.3c0.2-0.3,0.5-0.7,0.7-1
		c0.1-0.2,0.2-0.3,0.4-0.5c0.1-0.1,0.2-0.2,0.2-0.3c0.1-0.1,0.2-0.2,0.2-0.3C70.8,10.3,77.1,6.3,84,4.6c-0.4,0.5-0.8,1.1-1.1,1.7
		c0,0,0,0,0,0c0,0,0,0.1-0.1,0.1c-0.8,1.3-1.5,2.9-2.1,4.6c-1.1,2.9-2,6.2-2.6,9.7c-0.1,0.5-0.2,1-0.3,1.5
		C72.8,22.7,68,23.3,63.6,24.1z M91.2,3.7c0.1,0,0.2,0,0.2,0c0.1,0,0.1,0,0.2,0c2.4,0.2,5,3.4,7,8.6c0.9,2.5,1.7,5.3,2.3,8.4
		c0,0.2,0.1,0.4,0.1,0.7c0,0.2,0.1,0.4,0.1,0.7c-2.4-0.1-4.8-0.2-7.3-0.2c-0.8,0-1.6,0-2.4,0c-0.8,0-1.6,0-2.5,0
		c-2.5,0-4.9,0.1-7.3,0.2c0.2-1.3,0.5-2.7,0.8-3.9c0.3-1.2,0.6-2.4,1-3.6c0,0,0,0,0,0c0.2-0.8,0.5-1.5,0.8-2.2
		C86.2,7.1,88.8,3.9,91.2,3.7z M53.5,30.9v-9.4l4.2,3h0l2.4,1.7l-3.5,2.5L53.5,30.9z M60.4,41.9c-0.1-0.3-0.1-0.7-0.2-1
		c0-0.4-0.1-0.7-0.2-1c0-0.1,0-0.3-0.1-0.4c0,0,0,0,0,0c0-0.3-0.1-0.5-0.1-0.8c0-0.1,0-0.3,0-0.4c0-0.1,0-0.3,0-0.4c0,0,0-0.1,0-0.2
		c0-0.1,0-0.3,0-0.4v-0.1c0,0,0-0.1,0-0.1c0-0.2,0-0.3,0-0.5c0-0.1,0-0.2,0-0.3c0-0.1,0-0.2,0-0.3c0-0.2,0-0.4,0-0.5
		c0-0.2,0-0.3,0-0.5v-0.1c0-0.2,0-0.3,0-0.5c0-0.2,0-0.4,0-0.6c0-0.2,0-0.3,0-0.5c0-0.1,0-0.2,0-0.3c0-0.1,0-0.3,0-0.4
		c0-0.2,0-0.3,0-0.5c0-0.2,0-0.3,0-0.5c0-0.2,0.1-0.5,0.1-0.8l0,0l3.3-2.3c0.2-0.1,0.4-0.3,0.6-0.6c0.3-0.1,0.6-0.1,0.9-0.2
		c0.2,0,0.4-0.1,0.7-0.1c0.5-0.1,1.1-0.2,1.6-0.3c0.2,0,0.5-0.1,0.8-0.1c0.2,0,0.4-0.1,0.7-0.1c0.3,0,0.5-0.1,0.8-0.1
		c0.3-0.1,0.7-0.1,1-0.2c0.6-0.1,1.1-0.1,1.7-0.2c0.6-0.1,1.2-0.1,1.9-0.2c0.4,0,0.7-0.1,1.1-0.1c0.4,0,0.8-0.1,1.1-0.1
		c0.4,0,0.8-0.1,1.2-0.1c-0.3,3-0.5,6.2-0.5,9.4c0,3.2,0.2,6.4,0.5,9.4c-0.5,0-1-0.1-1.5-0.1c-5.7-0.5-10.9-1.3-15.4-2.4L60.4,41.9z
		 M80.5,65.2C80.5,65.2,80.5,65.2,80.5,65.2c-0.2,0-0.2-0.1-0.3-0.1c0,0-0.1,0-0.1,0c0,0-0.1,0-0.1,0c0,0,0,0-0.1,0
		c0,0-0.1,0-0.1-0.1c-0.1,0-0.2-0.1-0.3-0.1c-0.2-0.1-0.3-0.1-0.5-0.2c-0.1,0-0.2-0.1-0.2-0.1c0,0-0.1,0-0.1,0c0,0-0.1,0-0.1,0
		l-0.4-0.2c-0.2-0.1-0.4-0.2-0.6-0.3c-0.1,0-0.1-0.1-0.2-0.1c0,0-0.1,0-0.1,0c-0.2-0.1-0.4-0.2-0.6-0.3c0,0,0,0-0.1,0
		c-5.4-2.9-9.9-7.2-12.9-12.5c-0.1-0.2-0.2-0.4-0.3-0.5c0,0,0,0,0,0c-0.1-0.1-0.1-0.2-0.2-0.3c-0.1-0.2-0.2-0.3-0.2-0.4
		c-0.2-0.4-0.4-0.8-0.6-1.2c-0.2-0.4-0.3-0.8-0.5-1.2c-0.1-0.2-0.1-0.3-0.2-0.5c-0.1-0.2-0.1-0.3-0.2-0.5c0.6,0.1,1.2,0.2,1.8,0.4
		c0.5,0.1,1,0.2,1.6,0.3c0.4,0.1,0.7,0.1,1.1,0.2c0.4,0.1,0.8,0.1,1.1,0.2c0.5,0.1,1,0.2,1.5,0.2c0.5,0.1,1,0.1,1.5,0.2
		c1,0.1,2.1,0.2,3.1,0.4c1.4,0.1,2.9,0.3,4.4,0.4c0.6,4.2,1.6,8,2.8,11.2c0.1,0.3,0.2,0.6,0.4,1s0.2,0.6,0.4,0.9
		c0.1,0.2,0.2,0.4,0.3,0.6c0.1,0.2,0.2,0.4,0.3,0.6c0.1,0.2,0.2,0.4,0.3,0.5c0.3,0.5,0.6,1,0.9,1.5c0.3,0.5,0.6,0.9,0.9,1.4
		C82.9,66,81.7,65.6,80.5,65.2z M98.7,58.5c-2,5.4-4.8,8.6-7.2,8.6c-2.5,0-5.2-3.2-7.2-8.6c-1.1-2.8-1.9-6.1-2.5-9.7
		c3.2,0.2,6.4,0.2,9.8,0.2c3.3,0,6.6-0.1,9.7-0.2C100.6,52.4,99.7,55.7,98.7,58.5z M121,47c-0.1,0.3-0.2,0.5-0.3,0.8
		c-1.2,2.9-2.9,5.6-4.9,8c-0.2,0.3-0.4,0.5-0.6,0.7c-0.1,0.1-0.2,0.2-0.3,0.3c-0.1,0.1-0.2,0.2-0.3,0.3c0,0-0.1,0.1-0.1,0.1
		c-0.2,0.2-0.4,0.4-0.6,0.6c0,0,0,0,0,0l-0.2,0.2c-0.2,0.2-0.3,0.3-0.5,0.4c0,0.1-0.1,0.1-0.2,0.2c-0.3,0.2-0.5,0.5-0.8,0.7
		c-0.3,0.2-0.5,0.5-0.8,0.7h0c-1.6,1.3-3.3,2.4-5.2,3.4c0,0,0,0,0,0c-0.2,0.1-0.5,0.3-0.7,0.4c-0.1,0-0.1,0.1-0.2,0.1
		c-0.2,0.1-0.4,0.2-0.6,0.3l-0.4,0.2c-0.1,0-0.3,0.1-0.4,0.2c-0.2,0.1-0.3,0.1-0.5,0.2c-0.1,0-0.2,0.1-0.3,0.1
		c-0.2,0.1-0.4,0.2-0.7,0.3c0,0-0.1,0-0.1,0c-1.1,0.4-2.3,0.8-3.5,1c1-1.4,1.9-3.1,2.8-5c0.2-0.5,0.4-0.9,0.6-1.4
		c0.2-0.6,0.5-1.2,0.7-1.9c0,0,0,0,0,0c0.1-0.4,0.3-0.9,0.4-1.3c0.5-1.6,0.9-3.2,1.2-5c0.1-0.5,0.2-1,0.3-1.5c0.1-0.5,0.2-1,0.3-1.5
		c0.4,0,0.7-0.1,1.1-0.1c0.4,0,0.7-0.1,1.1-0.1c1.8-0.2,3.6-0.4,5.3-0.6c0.3,0,0.7-0.1,1-0.1c0.4,0,0.7-0.1,1-0.1
		c1-0.1,1.9-0.3,2.8-0.5c1.3-0.2,2.6-0.5,3.9-0.7C121.1,46.6,121.1,46.8,121,47z M123.1,36.6C123.1,36.6,123.1,36.6,123.1,36.6v0.3
		c0,0.1,0,0.2,0,0.3c0,0.1,0,0.2,0,0.2c0,0.1,0,0.2,0,0.3c0,0.1,0,0.2,0,0.3c0,0.1,0,0.2,0,0.3c0,0.2,0,0.4-0.1,0.6
		c0,0.1,0,0.2,0,0.3c0,0.1,0,0.3,0,0.4c0,0.2,0,0.3-0.1,0.5c0,0,0,0.1,0,0.1c0,0.1,0,0.3-0.1,0.4c0,0.1,0,0.2-0.1,0.3
		c0,0.1,0,0.2-0.1,0.4c-0.1,0.3-0.1,0.6-0.2,0.9c-4.5,1.1-9.7,1.9-15.4,2.4c-0.5,0-1,0.1-1.5,0.1c0.3-3,0.5-6.2,0.5-9.4
		s-0.2-6.4-0.5-9.4h0c0.4,0,0.8,0.1,1.2,0.1c1.4,0.1,2.8,0.3,4.2,0.4c0.7,0.1,1.5,0.2,2.2,0.3c0.6,0.1,1.3,0.2,1.9,0.3
		c0.3,0,0.6,0.1,1,0.2c0.4,0.1,0.7,0.1,1.1,0.2c0.1,0,0.2,0,0.3,0c1.8,0.3,3.5,0.7,5.1,1.1c0.2,1,0.4,1.9,0.5,2.9c0,0.1,0,0.3,0,0.5
		c0,0.4,0.1,0.8,0.1,1.3c0,0.3,0,0.6,0,0.8v0c0,0.4,0,0.9,0,1.3C123.2,35.8,123.2,36.2,123.1,36.6z"/>
</g>
</svg>
