<?xml version="1.0" encoding="utf-8"?>
<!-- Generator: Adobe Illustrator 24.3.0, SVG Export Plug-In . SVG Version: 6.00 Build 0)  -->
<svg version="1.1" id="Layer_1" xmlns="http://www.w3.org/2000/svg" xmlns:xlink="http://www.w3.org/1999/xlink" x="0px" y="0px"
	 width="130.4px" height="128.8px" viewBox="0 0 130.4 128.8" style="enable-background:new 0 0 130.4 128.8;" xml:space="preserve"
	>
<style type="text/css">
	.st0{fill:#00C8FF;}
	.st1{fill-rule:evenodd;clip-rule:evenodd;fill:#00C8FF;}
	.st2{fill:#185AE9;}
	.st3{fill:#FFFFFF;}
	.st4{fill-rule:evenodd;clip-rule:evenodd;fill:#FFFFFF;}
	.st5{fill:#00B0FB;}
	.st6{fill:#00B0FB;fill-opacity:0.4;}
	.st7{fill:#E4ECF4;}
	.st8{fill:#FFE8A0;}
	.st9{fill:none;}
	.st10{fill:#0D0D0D;}
	.st11{fill-rule:evenodd;clip-rule:evenodd;fill:#00B0FB;}
	.st12{fill:#FAFBFF;}
	.st13{fill:#070707;}
	.st14{fill:#D9D9D9;filter:url(#Adobe_OpacityMaskFilter);}
	.st15{mask:url(#mask0_103_2708_1_);}
	.st16{fill-rule:evenodd;clip-rule:evenodd;fill:#DAB6E4;}
	.st17{stroke:#FFFFFF;stroke-width:2;}
	.st18{fill:#FFFFFF;stroke:#000000;stroke-width:2;}
	.st19{fill-rule:evenodd;clip-rule:evenodd;}
	.st20{stroke:#FFFFFF;}
	.st21{fill:#FFFFFF;filter:url(#Adobe_OpacityMaskFilter_1_);}
	.st22{mask:url(#path-22-inside-1_103_2708_1_);fill:#FFFFFF;}
	.st23{fill-rule:evenodd;clip-rule:evenodd;fill:#263238;}
	.st24{fill:#EFEFEF;}
	
		.st25{fill:none;stroke:#000000;stroke-width:10.01;stroke-linecap:round;stroke-linejoin:round;stroke-miterlimit:3.08;stroke-dasharray:70.84,70.84;}
	.st26{fill:#010000;}
	.st27{opacity:0.64;}
	.st28{fill:#F9F7F5;}
	.st29{fill:#D9D9D9;filter:url(#Adobe_OpacityMaskFilter_2_);}
	.st30{mask:url(#mask0_103_2310_1_);}
	.st31{fill:#FFFFFF;filter:url(#Adobe_OpacityMaskFilter_3_);}
	.st32{mask:url(#mask1_103_2310_1_);}
	.st33{fill:#E6E6E6;}
	.st34{fill:#FFFFFF;filter:url(#Adobe_OpacityMaskFilter_4_);}
	.st35{mask:url(#mask2_103_2310_1_);}
	.st36{fill:none;stroke:#000000;stroke-width:1.5;stroke-linecap:round;stroke-linejoin:round;stroke-miterlimit:10;}
	.st37{fill:#FFFFFF;filter:url(#Adobe_OpacityMaskFilter_5_);}
	.st38{mask:url(#mask3_103_2310_1_);}
	.st39{fill:#FFFFFF;filter:url(#Adobe_OpacityMaskFilter_6_);}
	.st40{mask:url(#mask4_103_2310_1_);}
	.st41{fill:#FFFFFF;filter:url(#Adobe_OpacityMaskFilter_7_);}
	.st42{mask:url(#mask5_103_2310_1_);}
	.st43{fill:#FFFFFF;filter:url(#Adobe_OpacityMaskFilter_8_);}
	.st44{mask:url(#mask6_103_2310_1_);}
	.st45{fill:#DBDBDB;}
	.st46{fill:#FFFFFF;filter:url(#Adobe_OpacityMaskFilter_9_);}
	.st47{mask:url(#mask7_103_2310_1_);}
	.st48{fill:#FFFFFF;filter:url(#Adobe_OpacityMaskFilter_10_);}
	.st49{mask:url(#mask8_103_2310_1_);}
	.st50{fill:#FFFFFF;filter:url(#Adobe_OpacityMaskFilter_11_);}
	.st51{mask:url(#mask9_103_2310_1_);}
	.st52{fill:#FFFFFF;filter:url(#Adobe_OpacityMaskFilter_12_);}
	.st53{mask:url(#mask10_103_2310_1_);}
	.st54{fill:#FFFFFF;filter:url(#Adobe_OpacityMaskFilter_13_);}
	.st55{mask:url(#mask11_103_2310_1_);}
	.st56{fill:#FFFFFF;filter:url(#Adobe_OpacityMaskFilter_14_);}
	.st57{mask:url(#mask12_103_2310_1_);}
	.st58{fill:#FFFFFF;stroke:#000000;}
	.st59{fill:#FFFFFF;filter:url(#Adobe_OpacityMaskFilter_15_);stroke:#FFFFFF;}
	.st60{mask:url(#mask13_103_2310_1_);}
	.st61{fill:#FFFFFF;filter:url(#Adobe_OpacityMaskFilter_16_);}
	.st62{mask:url(#path-55-inside-1_103_2310_1_);}
	.st63{fill:#FFFFFF;filter:url(#Adobe_OpacityMaskFilter_17_);}
	.st64{mask:url(#path-59-inside-2_103_2310_1_);fill:#FFFFFF;}
	.st65{fill:none;stroke:#FFFFFF;stroke-width:1.5;stroke-linecap:round;stroke-linejoin:round;stroke-miterlimit:10;}
	.st66{fill:#181818;}
	.st67{fill:#BEBEBE;}
	.st68{fill:#FEFEFE;}
	.st69{fill:none;stroke:#000000;stroke-width:2.1125;stroke-miterlimit:6.5;}
</style>
<g>
	<path class="st5" d="M32.2,110h-4.7c-3.7,0-6.6-3-6.6-6.6c0-3.6,3-6.6,6.6-6.6h4.7v-5.1h-4.7c-3.7,0-6.6-3-6.6-6.6
		c0-3.7,3-6.6,6.6-6.6h4.7v-5.1h-4.7c-3.7,0-6.6-3-6.6-6.6s3-6.6,6.6-6.6h4.7V55h-4.7c-3.7,0-6.6-3-6.6-6.6c0-3.6,3-6.6,6.6-6.6h4.7
		v-3.4H21.5c-3.4,2-5.8,5.8-5.8,10.1c0,3.7,1.7,7,4.4,9.2c-2.7,2.1-4.4,5.4-4.4,9.2s1.7,7,4.4,9.2c-2.7,2.2-4.4,5.5-4.4,9.2
		c0,3.7,1.7,7,4.4,9.2c-2.7,2.2-4.4,5.5-4.4,9.2c0,6.5,5.2,11.7,11.7,11.7h4.7V110z"/>
	<path class="st6" d="M80.7,11.7c0-3.7-3-6.6-6.6-6.6H11.7c-3.7,0-6.6,3-6.6,6.6s3,6.6,6.6,6.6h62.4C77.7,18.3,80.7,15.4,80.7,11.7z
		"/>
	<path class="st5" d="M87.1,47.4c-21.1,0-38.2,17.1-38.2,38.2s17.1,38.2,38.2,38.2s38.2-17.1,38.2-38.2S108.1,47.4,87.1,47.4z
		 M90.9,52.5h0.2c1.4,0,2.5,1.2,2.5,2.6c0,1.4-1.2,2.5-2.6,2.5h-0.2c-1.4,0-2.5-1.1-2.5-2.6C88.4,53.6,89.5,52.5,90.9,52.5z
		 M76.1,114.2c-0.6,1.3-2.1,1.8-3.4,1.2c-5.5-2.7-10.2-6.8-13.6-12C55.8,98.1,54,91.9,54,85.6c0-5.4,1.3-10.8,3.9-15.5
		c0.7-1.2,2.2-1.7,3.5-1.1c1.2,0.7,1.7,2.2,1,3.5c-2.1,4-3.3,8.5-3.3,13.1c0,10.7,6.2,20.6,15.9,25.3
		C76.2,111.4,76.7,112.9,76.1,114.2z M83.3,118.7h-0.2c-1.4,0-2.5-1.2-2.5-2.5c0-1.4,1.1-2.5,2.6-2.5h0.1c1.4,0,2.5,1.1,2.5,2.6
		C85.8,117.5,84.7,118.7,83.3,118.7z M87.1,82.8c5.9,0,10.7,4.5,10.7,10c0,4.7-3.5,8.6-8.1,9.6v1.1c0,1.4-1.1,2.5-2.5,2.5
		c-1.4,0-2.5-1.1-2.5-2.5v-1.1c-4.7-1.1-8.2-5-8.2-9.6c0-1.4,1.1-2.5,2.6-2.5c1.4,0,2.5,1.1,2.5,2.5c0,2.7,2.5,4.8,5.6,4.8
		c3.1,0,5.6-2.2,5.6-4.8c0-2.7-2.5-4.9-5.6-4.9c-5.9,0-10.7-4.5-10.7-9.9c0-4.7,3.5-8.6,8.2-9.7V67c0-1.4,1.1-2.5,2.5-2.5
		c1.4,0,2.5,1.1,2.5,2.5v1.3c4.7,1.1,8.1,5,8.1,9.7c0,1.4-1.1,2.5-2.5,2.5c-1.4,0-2.5-1.1-2.5-2.5c0-2.7-2.5-4.8-5.6-4.8
		c-3.1,0-5.6,2.2-5.6,4.8C81.5,80.7,84,82.8,87.1,82.8z M112.9,102.1c-1.2-0.7-1.7-2.2-1.1-3.4c2.1-4,3.3-8.6,3.3-13.1
		c0-10.7-6.2-20.6-15.9-25.2c-1.3-0.6-1.8-2.1-1.2-3.4s2.1-1.8,3.4-1.2c5.5,2.7,10.2,6.8,13.5,12c3.4,5.3,5.2,11.5,5.2,17.9
		c0,5.4-1.3,10.8-3.9,15.5C115.7,102.3,114.1,102.8,112.9,102.1z"/>
	<path class="st3" d="M83.3,113.6l-0.1,0c-1.4,0-2.6,1.1-2.6,2.5c0,1.4,1.1,2.6,2.5,2.6l0.2,0c1.4,0,2.5-1.1,2.5-2.5
		S84.7,113.6,83.3,113.6z"/>
	<path class="st3" d="M75,110.8L75,110.8c-9.7-4.6-15.9-14.6-15.9-25.3c0-4.6,1.1-9.1,3.3-13.1c0.7-1.2,0.2-2.8-1.1-3.4
		c-1.2-0.7-2.8-0.2-3.4,1.1C55.3,74.8,54,80.1,54,85.6c0,6.4,1.8,12.5,5.2,17.9c3.3,5.2,8,9.3,13.6,12c1.3,0.6,2.8,0,3.4-1.3
		C76.7,112.9,76.2,111.4,75,110.8z"/>
	<path class="st3" d="M90.9,57.5l0.1,0h0c1.4,0,2.5-1.1,2.5-2.5c0-1.4-1.1-2.6-2.5-2.6l-0.2,0c-1.4,0-2.5,1.1-2.5,2.5
		S89.5,57.5,90.9,57.5z"/>
	<path class="st3" d="M87.1,73.1c3.1,0,5.6,2.2,5.6,4.8c0,1.4,1.1,2.5,2.5,2.5s2.5-1.1,2.5-2.5c0-4.7-3.5-8.6-8.1-9.7V67
		c0-1.4-1.1-2.5-2.5-2.5s-2.5,1.1-2.5,2.5v1.3c-4.7,1.1-8.1,5-8.1,9.7c0,5.5,4.8,9.9,10.7,9.9c3.1,0,5.6,2.2,5.6,4.8
		c0,2.7-2.5,4.8-5.6,4.8c-3.1,0-5.6-2.2-5.6-4.8c0-1.4-1.1-2.5-2.5-2.5s-2.5,1.1-2.5,2.5c0,4.7,3.5,8.6,8.1,9.7v1.1
		c0,1.4,1.1,2.5,2.5,2.5s2.5-1.1,2.5-2.5v-1.1c4.7-1.1,8.1-5,8.1-9.7c0-5.5-4.8-9.9-10.7-9.9c-3.1,0-5.6-2.2-5.6-4.8
		C81.5,75.3,84,73.1,87.1,73.1z"/>
	<path class="st3" d="M101.4,55.7c-1.3-0.6-2.8-0.1-3.4,1.2c-0.6,1.3-0.1,2.8,1.2,3.4c9.7,4.6,15.9,14.6,15.9,25.3
		c0,4.6-1.1,9.1-3.3,13.1c-0.7,1.2-0.2,2.8,1.1,3.4c1.2,0.7,2.8,0.2,3.4-1.1c2.5-4.7,3.9-10.1,3.9-15.5c0-6.4-1.8-12.5-5.2-17.9
		C111.6,62.5,106.9,58.4,101.4,55.7z"/>
	<path class="st3" d="M98.6,43.8c-0.3-0.7-0.7-1.4-1.1-2.1h6.6c6.5,0,11.7-5.2,11.7-11.7c0-6.5-5.2-11.7-11.7-11.7H83.8
		c1.3-1.9,2.1-4.2,2.1-6.6C85.8,5.3,80.5,0,74.1,0H11.7C5.3,0,0,5.3,0,11.7c0,6.5,5.3,11.7,11.7,11.7h20.4c-1.3,1.9-2.1,4.2-2.1,6.6
		c0,2.4,0.8,4.7,2.1,6.6h-6.6c-6.5,0-11.7,5.2-11.7,11.7c0,3.7,1.7,7,4.4,9.2c-2.7,2.1-4.4,5.4-4.4,9.2s1.7,7,4.4,9.2
		c-2.7,2.2-4.4,5.5-4.4,9.2c0,3.7,1.7,7,4.4,9.2c-2.7,2.2-4.4,5.5-4.4,9.2c0,6.5,5.2,11.7,11.7,11.7h30c7.9,8.5,19.1,13.8,31.6,13.8
		c23.9,0,43.3-19.4,43.3-43.3C130.4,65.7,116.9,48.9,98.6,43.8z M104.1,23.4c3.7,0,6.6,3,6.6,6.6c0,3.6-3,6.6-6.6,6.6H41.8
		c-3.6,0-6.6-3-6.6-6.6c0-3.7,3-6.6,6.6-6.6H104.1z M11.7,18.3c-3.7,0-6.6-3-6.6-6.6c0-3.7,3-6.6,6.6-6.6h62.4c3.7,0,6.6,3,6.6,6.6
		c0,3.7-3,6.6-6.6,6.6H11.7z M25.5,41.8h62.4c1,0,2,0.2,2.9,0.7c-1.2-0.1-2.4-0.2-3.7-0.2c-12,0-22.8,4.9-30.6,12.7h-31
		c-3.7,0-6.6-3-6.6-6.6C18.8,44.7,21.8,41.8,25.5,41.8z M25.5,60.1h26.6c-2.9,4-5.1,8.4-6.5,13.2H25.5c-3.7,0-6.6-3-6.6-6.6
		S21.8,60.1,25.5,60.1z M25.5,78.4h18.9c-0.4,2.4-0.6,4.8-0.6,7.1c0,2.1,0.2,4.1,0.4,6.1H25.5c-3.7,0-6.6-3-6.6-6.6
		C18.8,81.4,21.8,78.4,25.5,78.4z M25.5,110c-3.7,0-6.6-3-6.6-6.6c0-3.6,3-6.6,6.6-6.6h19.8c1.3,4.7,3.3,9.2,6.1,13.2H25.5z
		 M87.1,123.8c-21.1,0-38.2-17.1-38.2-38.2S66,47.4,87.1,47.4s38.2,17.1,38.2,38.2S108.1,123.8,87.1,123.8z"/>
</g>
</svg>
