<svg width="216" height="162" viewBox="0 0 216 162" fill="none" xmlns="http://www.w3.org/2000/svg">
<path d="M108.09 85.313C101.137 85.3021 94.8675 89.489 92.2098 95.9211C89.5415 102.342 91.0166 109.729 95.9301 114.653C100.844 119.567 108.241 121.031 114.663 118.374C121.084 115.716 125.271 109.447 125.271 102.494C125.26 93.0138 117.581 85.3238 108.09 85.313ZM108.09 114.014C103.425 114.014 99.2278 111.216 97.449 106.909C95.6593 102.603 96.6464 97.6463 99.9438 94.3488C103.23 91.0514 108.187 90.0643 112.493 91.8541C116.8 93.633 119.609 97.8414 119.609 102.495C119.598 108.851 114.446 114.003 108.09 114.014Z" fill="url(#paint0_linear_122_1835)"/>
<path d="M154.839 111.887C155.588 111.887 156.314 111.594 156.846 111.062C157.377 110.531 157.67 109.804 157.67 109.056V95.931C157.67 95.1826 157.377 94.4558 156.846 93.9243C156.314 93.3928 155.588 93.1 154.839 93.1H140.326C139.643 90.7571 138.71 88.49 137.528 86.3424L147.8 76.0706L147.789 76.0814C148.895 74.975 148.895 73.1744 147.789 72.0681L138.504 62.7832L138.515 62.794C137.397 61.6876 135.608 61.6876 134.501 62.794L124.24 73.0658C122.104 71.8836 119.837 70.9399 117.483 70.2566V55.7435C117.483 54.9951 117.19 54.2683 116.658 53.7368C116.127 53.2053 115.411 52.9125 114.652 52.9125H101.527C99.9651 52.9125 98.6962 54.1815 98.6962 55.7434V70.2565C96.3424 70.9398 94.0862 71.8835 91.9386 73.0657L81.6668 62.7939H81.6776C80.5712 61.6875 78.7706 61.6875 77.6643 62.7939L68.3794 72.0789L68.3902 72.068C67.2838 73.1744 67.2838 74.975 68.3902 76.0813L78.6512 86.3423C77.4689 88.49 76.5361 90.746 75.8528 93.0999H61.3397C59.7778 93.0999 58.5088 94.3689 58.5088 95.9308V109.055C58.5088 109.804 58.8017 110.531 59.3332 111.062C59.8647 111.594 60.5914 111.887 61.3398 111.887H75.8529C76.5362 114.24 77.4691 116.497 78.6513 118.644L68.3795 128.916L68.3903 128.905C67.284 130.011 67.284 131.812 68.3903 132.918L77.6753 142.203L77.6645 142.192C78.7708 143.299 80.5715 143.299 81.6777 142.192L91.9387 131.931C94.0756 133.114 96.3424 134.047 98.6963 134.73V149.243C98.6963 150.002 98.9892 150.718 99.5207 151.25C100.052 151.781 100.768 152.085 101.527 152.085H114.652H114.641C115.4 152.085 116.116 151.781 116.648 151.25C117.179 150.718 117.483 150.002 117.483 149.243V134.741C119.826 134.057 122.093 133.114 124.23 131.931L134.502 142.203V142.192C135.608 143.299 137.398 143.299 138.504 142.192L147.789 132.907V132.918C148.895 131.812 148.895 130.022 147.789 128.916L137.528 118.644C138.71 116.507 139.643 114.24 140.326 111.897L154.839 111.887ZM135.359 108.448C134.653 111.681 133.374 114.761 131.584 117.549C130.857 118.666 131.02 120.141 131.963 121.084L141.791 130.912L136.519 136.183L126.703 126.356H126.681C125.737 125.412 124.273 125.25 123.145 125.976C120.358 127.777 117.277 129.057 114.045 129.762C112.732 130.055 111.81 131.204 111.81 132.539V146.412H104.359V132.528C104.359 131.194 103.426 130.044 102.124 129.762C98.8918 129.057 95.8115 127.777 93.0348 125.976C91.9067 125.26 90.4315 125.412 89.4988 126.356L79.6715 136.183L74.4001 130.912L84.2274 121.085L84.2165 121.095C85.1602 120.152 85.3229 118.677 84.5962 117.559C82.8065 114.772 81.5265 111.68 80.8214 108.448C80.5394 107.147 79.3788 106.214 78.0447 106.214H64.1716V98.7621H78.0555C79.3897 98.7621 80.5394 97.8401 80.8214 96.5385C81.5265 93.2952 82.8172 90.215 84.607 87.4382C85.3229 86.3101 85.171 84.8458 84.2273 83.9022L74.4001 74.075L79.6715 68.8035L89.4988 78.6308C90.4316 79.5745 91.9068 79.7263 93.0347 79.0105C95.8115 77.2099 98.9029 75.9299 102.135 75.2249C103.447 74.9429 104.369 73.7931 104.369 72.459V58.5751H111.821V72.459H111.832C111.832 73.7931 112.754 74.9429 114.056 75.2249C117.299 75.9408 120.379 77.2207 123.156 79.0105C124.284 79.7372 125.759 79.5745 126.692 78.6308L136.508 68.8035L141.78 74.075L131.953 83.9022H131.974C131.031 84.8459 130.868 86.3211 131.595 87.4382C133.384 90.2258 134.653 93.3063 135.358 96.5493C135.64 97.851 136.801 98.7838 138.135 98.7729H152.019V106.235H138.124C136.801 106.235 135.651 107.157 135.359 108.448Z" fill="url(#paint1_linear_122_1835)"/>
<path d="M170.523 12.4865H153.428C151.855 12.4865 150.586 13.7556 150.586 15.3174V32.4229C150.586 33.1713 150.89 33.8872 151.422 34.4187C151.953 34.9502 152.669 35.2539 153.428 35.2539H170.534H170.523C171.282 35.2539 171.998 34.9502 172.53 34.4187C173.061 33.8872 173.365 33.1713 173.365 32.4229V15.3174C173.365 14.569 173.061 13.8423 172.53 13.3108C171.998 12.7793 171.282 12.4865 170.523 12.4865ZM167.692 29.592L156.259 29.5811V18.1486H167.692V29.592Z" fill="url(#paint2_linear_122_1835)"/>
<path d="M199.462 12.4865H182.367C180.795 12.4865 179.536 13.7556 179.536 15.3174V32.4229C179.536 33.1713 179.829 33.8872 180.361 34.4187C180.892 34.9502 181.608 35.2539 182.367 35.2539H199.462C200.221 35.2539 200.937 34.9502 201.468 34.4187C202 33.8872 202.304 33.1713 202.304 32.4229V15.3174C202.304 14.569 202 13.8423 201.468 13.3108C200.937 12.7793 200.221 12.4865 199.462 12.4865ZM196.631 29.592L185.198 29.5811V18.1486H196.631V29.592Z" fill="url(#paint3_linear_122_1835)"/>
<path d="M48.5832 8.27965C45.1447 8.27965 42.0533 10.3514 40.7302 13.5294C39.4177 16.7074 40.1445 20.3628 42.5741 22.7925C45.0038 25.2221 48.6591 25.9488 51.8372 24.6364C55.0152 23.3239 57.0869 20.2219 57.0869 16.7834C57.0869 12.0868 53.2798 8.27965 48.5832 8.27965ZM48.5832 19.6144C47.4443 19.6144 46.403 18.9311 45.9691 17.8681C45.5352 16.8051 45.7739 15.5903 46.5874 14.7767C47.39 13.9741 48.6157 13.7246 49.6679 14.1693C50.7309 14.6032 51.4251 15.6336 51.4251 16.7834C51.4251 17.5318 51.1214 18.2585 50.5899 18.79C50.0584 19.3215 49.3425 19.6144 48.5832 19.6144Z" fill="url(#paint4_linear_122_1835)"/>
<path d="M25.9133 8.27965C22.4856 8.27965 19.3834 10.3514 18.0603 13.5294C16.7478 16.7074 17.4745 20.3628 19.9042 22.7925C22.3339 25.2221 26.0001 25.9488 29.1672 24.6364C32.3453 23.3239 34.417 20.2219 34.417 16.7834C34.417 12.0868 30.6099 8.27965 25.9133 8.27965ZM25.9133 19.6144C24.7743 19.6144 23.7439 18.9311 23.2992 17.8681C22.8653 16.8051 23.1039 15.5903 23.9175 14.7767C24.7201 13.9741 25.9458 13.7246 26.998 14.1693C28.061 14.6032 28.7552 15.6336 28.7552 16.7834C28.7552 17.5318 28.4514 18.2585 27.92 18.79C27.3885 19.3215 26.6725 19.6144 25.9133 19.6144Z" fill="url(#paint5_linear_122_1835)"/>
<path d="M205.31 0.490906H10.8717C5.10133 0.501752 0.426357 5.17672 0.415527 10.9363V151.544C0.426373 157.314 5.10133 161.989 10.8717 162H205.31C211.08 161.989 215.755 157.314 215.766 151.544V101.084C215.766 99.5115 214.497 98.2425 212.924 98.2425C211.362 98.2425 210.093 99.5116 210.093 101.084V151.544C210.093 154.19 207.946 156.327 205.31 156.327H10.8717C8.23598 156.327 6.0882 154.191 6.0882 151.544V33.0755H78.587L91.9285 46.4171H91.9177C92.4492 46.9486 93.1759 47.2414 93.9243 47.2414H210.093V75.584C210.093 77.1459 211.362 78.4149 212.924 78.4149C214.497 78.4149 215.766 77.1458 215.766 75.584V10.9379C215.755 5.17833 211.08 0.501735 205.31 0.490906ZM95.0968 41.5788L81.7553 28.2373C81.2238 27.7058 80.5079 27.4129 79.7595 27.4129H6.08889V10.9475C6.08889 8.30086 8.23656 6.16391 10.8724 6.16391H205.31C207.946 6.16391 210.094 8.30072 210.094 10.9475V41.5781L95.0968 41.5788Z" fill="url(#paint6_linear_122_1835)"/>
<defs>
<linearGradient id="paint0_linear_122_1835" x1="125.271" y1="102.498" x2="90.8965" y2="102.498" gradientUnits="userSpaceOnUse">
<stop stop-color="#407AFF"/>
<stop offset="1" stop-color="#185AE9"/>
</linearGradient>
<linearGradient id="paint1_linear_122_1835" x1="157.67" y1="102.499" x2="58.5088" y2="102.499" gradientUnits="userSpaceOnUse">
<stop stop-color="#407AFF"/>
<stop offset="1" stop-color="#185AE9"/>
</linearGradient>
<linearGradient id="paint2_linear_122_1835" x1="173.365" y1="23.8701" x2="150.586" y2="23.8701" gradientUnits="userSpaceOnUse">
<stop stop-color="#407AFF"/>
<stop offset="1" stop-color="#185AE9"/>
</linearGradient>
<linearGradient id="paint3_linear_122_1835" x1="202.304" y1="23.8701" x2="179.536" y2="23.8701" gradientUnits="userSpaceOnUse">
<stop stop-color="#407AFF"/>
<stop offset="1" stop-color="#185AE9"/>
</linearGradient>
<linearGradient id="paint4_linear_122_1835" x1="57.0869" y1="16.7806" x2="40.085" y2="16.7806" gradientUnits="userSpaceOnUse">
<stop stop-color="#407AFF"/>
<stop offset="1" stop-color="#185AE9"/>
</linearGradient>
<linearGradient id="paint5_linear_122_1835" x1="34.417" y1="16.7806" x2="17.415" y2="16.7806" gradientUnits="userSpaceOnUse">
<stop stop-color="#407AFF"/>
<stop offset="1" stop-color="#185AE9"/>
</linearGradient>
<linearGradient id="paint6_linear_122_1835" x1="215.766" y1="81.2454" x2="0.415527" y2="81.2454" gradientUnits="userSpaceOnUse">
<stop stop-color="#407AFF"/>
<stop offset="1" stop-color="#185AE9"/>
</linearGradient>
</defs>
</svg>
