<?xml version="1.0" encoding="utf-8"?>
<!-- Generator: Adobe Illustrator 25.0.0, SVG Export Plug-In . SVG Version: 6.00 Build 0)  -->
<svg version="1.1" id="Layer_1" xmlns="http://www.w3.org/2000/svg" xmlns:xlink="http://www.w3.org/1999/xlink" x="0px" y="0px"
	 viewBox="0 0 114.57 115" style="enable-background:new 0 0 114.57 115;" xml:space="preserve">
<style type="text/css">
	.st0{fill:#185AE9;}
	.st1{fill:#00B0FB;}
	.st2{fill:#FFFFFF;}
	.st3{fill:#00B0FB;fill-opacity:0.4;}
	.st4{fill:#3C7CFF;}
	.st5{fill:#001135;}
	.st6{fill:#3C8BD9;}
	.st7{fill:#FABC04;}
	.st8{fill:#34A852;}
	.st9{fill:#E1C025;}
	.st10{fill:#0169AD;}
	.st11{fill:#3499E0;}
	.st12{fill:#005389;}
	.st13{fill:#018ADD;}
	.st14{fill:#83BEEA;}
	.st15{fill:#1582CD;}
	.st16{fill:#FAFBFC;}
	.st17{fill:#04558B;}
	.st18{clip-path:url(#SVGID_1_);}
	.st19{fill-rule:evenodd;clip-rule:evenodd;fill:url(#SVGID_2_);}
	.st20{fill:url(#SVGID_3_);}
	.st21{fill:url(#SVGID_4_);}
	.st22{fill:url(#SVGID_5_);}
	.st23{fill:url(#SVGID_6_);}
	.st24{fill:url(#SVGID_7_);}
	.st25{fill:url(#SVGID_8_);}
	.st26{fill:url(#SVGID_9_);}
	.st27{fill:url(#SVGID_10_);}
	.st28{fill:#0B63BD;}
	.st29{fill:#F0A500;}
	.st30{fill:#DB7002;}
	.st31{fill:#3D7CFE;}
	.st32{fill:#DBDBDB;}
	.st33{fill:#FDFDFD;}
	.st34{fill:#FCFCFC;}
	.st35{fill:#0A0A0A;}
	.st36{fill:#030302;}
	.st37{fill:#D2D3D3;}
	.st38{fill:#1F1F1F;}
	.st39{fill:#F6F6F6;}
	.st40{fill:#0E0D0E;}
	.st41{fill:#BABBBB;}
	.st42{fill:#8A8A8A;}
	.st43{fill:#8E8F8F;}
	.st44{fill:#464746;}
	.st45{fill:#5F5E5E;}
	.st46{fill:#0B0B0B;}
	.st47{fill:#090909;}
	.st48{fill:#151414;}
	.st49{fill:#101010;}
	.st50{fill:#282828;}
</style>
<g>
	<g>
		<path class="st1" d="M113.95,60.05c-0.04,0.22-0.36-0.69-0.09-0.32c-0.35-0.48-0.76-0.91-1.13-1.37
			c-0.46-0.56-0.81-1.18-1.06-1.83c-0.2,0.28-0.42,0.54-0.68,0.77c1.58,2.19,1.63,5.59-0.06,7.34L79.19,97.58
			c-2.93,3.04-6.56,4.59-10.79,4.59H20.5c-0.22,0-0.39-0.18-0.39-0.39v-0.62c-0.01,0-0.02,0-0.03,0c-0.15,0-0.3-0.01-0.45-0.02v3.89
			c0.09,0,0.17-0.01,0.26-0.01c0.08,0,0.15,0.01,0.23,0.01v-0.12c0-0.22,0.17-0.39,0.39-0.39h47.9c4.89,0,9.09-1.78,12.48-5.3
			l31.75-32.94c0.35-0.36,0.65-0.77,0.91-1.21c-0.03-0.51-0.02-1.02,0.08-1.54C113.82,62.43,114.02,61.03,113.95,60.05z"/>
		<path class="st3" d="M53.24,11.53c2.64,0,4.79-2.15,4.79-4.79c0-2.64-2.15-4.78-4.79-4.78c-2.64,0-4.78,2.15-4.78,4.78
			C48.45,9.38,50.6,11.53,53.24,11.53z"/>
		<path class="st3" d="M37.19,54.26c-0.11,0.18-0.12,0.41-0.01,0.59c0.1,0.18,0.29,0.3,0.5,0.3h31.1c0.21,0,0.4-0.11,0.51-0.3
			c0.1-0.18,0.1-0.41-0.02-0.59c-3.4-5.41-9.54-8.78-16.04-8.78S40.59,48.84,37.19,54.26z"/>
		<path class="st3" d="M72.79,30.69c0.1,0.17,0.29,0.27,0.49,0.27h19.26c0.2,0,0.38-0.1,0.49-0.27c0.11-0.17,0.12-0.38,0.03-0.56
			l-9.63-20.04c-0.09-0.2-0.3-0.33-0.52-0.33c-0.22,0-0.42,0.13-0.52,0.33l-9.63,20.04C72.67,30.31,72.68,30.52,72.79,30.69z"/>
		<path class="st3" d="M13.95,30.96h19.26c0.2,0,0.39-0.1,0.49-0.27c0.11-0.17,0.12-0.38,0.03-0.56L24.1,10.09
			c-0.09-0.2-0.3-0.33-0.52-0.33c-0.22,0-0.43,0.13-0.52,0.33l-9.63,20.04c-0.09,0.18-0.07,0.39,0.03,0.56
			C13.56,30.86,13.75,30.96,13.95,30.96z"/>
		<path class="st1" d="M13.36,72.6H6.75c-2.43,0-4.41,1.98-4.41,4.41v31.24c0,2.43,1.98,4.41,4.41,4.41h6.61
			c2.43,0,4.41-1.98,4.41-4.41V77.01C17.77,74.58,15.79,72.6,13.36,72.6z"/>
		<path d="M112.14,56.01c-0.81-0.81-2.59-2.17-5.45-2.17c-3.67,0-7.82,2.2-12.33,6.54l-16.7,16.05c-1.43,1.37-2.93,2.37-4.58,3.05
			c-0.02,0.01-0.12,0.03-0.15,0.03c-0.1,0-0.21-0.05-0.28-0.12c-0.11-0.12-0.13-0.3-0.06-0.44c0.54-1.07,0.83-2.28,0.83-3.48
			c0-4.12-3.4-7.51-7.73-7.74l-0.1,0.01c-1.89,0.15-3.55,0.23-5.08,0.23c-2.98,0-4.98-0.29-7.11-0.59
			c-1.54-0.22-3.13-0.45-5.15-0.56c-0.24-0.01-0.48-0.01-0.72-0.01c-5.86,0-10.07,3.64-13.09,6.81l-5.9,6.21
			c-0.07,0.07-0.17,0.12-0.28,0.12H20.5c-0.22,0-0.39-0.18-0.39-0.39v-2.55c0-3.73-3.03-6.75-6.75-6.75H6.75
			C3.03,70.26,0,73.28,0,77.01v31.24c0,3.72,3.03,6.75,6.75,6.75h6.61c3.72,0,6.75-3.03,6.75-6.75v-2.35c0-0.22,0.17-0.39,0.39-0.39
			h47.9c4.89,0,9.09-1.78,12.48-5.3l31.75-32.94C115.4,64.4,115.16,59.03,112.14,56.01z M17.77,108.25c0,2.43-1.98,4.41-4.41,4.41
			H6.75c-2.43,0-4.4-1.98-4.4-4.41V77.01c0-2.43,1.97-4.41,4.4-4.41h6.61c2.43,0,4.41,1.98,4.41,4.41V108.25z M110.94,65.64
			L79.19,98.58c-2.93,3.04-6.56,4.59-10.79,4.59H20.5c-0.22,0-0.39-0.18-0.39-0.39v-20.1c0-0.22,0.17-0.39,0.39-0.39h8.43
			c0.33,0,0.63-0.13,0.85-0.36l6.36-6.7c4-4.21,7.5-6.08,11.36-6.08c0.21,0,0.42,0,0.63,0.01c1.89,0.11,3.43,0.33,4.96,0.54
			c2.1,0.3,4.27,0.61,7.43,0.61c1.56,0,3.26-0.07,5.21-0.23c3.05,0.21,5.34,2.52,5.34,5.39c0,2.49-1.77,4.71-4.24,5.26l-1.23,0.13
			H50c-0.65,0-1.17,0.52-1.17,1.17c0,0.65,0.52,1.17,1.17,1.17h15.69c0.5,0,1.01-0.05,1.54-0.15l1.83-0.19
			c3.99-0.42,7.34-1.97,10.22-4.74l16.7-16.05c3.97-3.81,7.79-5.91,10.75-5.91c1.49,0,2.75,0.51,3.75,1.5
			C112.57,59.76,112.8,63.71,110.94,65.64z"/>
		<path d="M95.9,31.52L83.79,6.32C83.64,6,83.27,5.78,82.88,5.78c-0.24,0.01-0.47,0.13-0.76,0.29c-0.12,0.07-0.25,0.14-0.38,0.2
			c-1.15,0.54-2.45,0.82-3.85,0.82c-0.43,0-0.86-0.03-1.29-0.08c-1.68-0.2-3.28-0.73-4.84-1.25l-0.12-0.05
			c-2.19-0.73-4.67-1.56-7.2-1.56c-1.43,0-2.76,0.26-4.05,0.79c-0.07,0.03-0.15,0.04-0.22,0.04c-0.06,0-0.19-0.03-0.24-0.05
			c-0.14-0.06-0.26-0.19-0.31-0.34C58.69,1.84,56.13,0,53.24,0s-5.46,1.84-6.39,4.59c-0.05,0.15-0.16,0.27-0.3,0.33
			c-0.07,0.04-0.16,0.06-0.25,0.06c-0.04,0-0.17-0.03-0.21-0.05c-1.29-0.52-2.61-0.77-4.04-0.77c-2.53,0-4.9,0.79-7.2,1.55
			l-0.18,0.06c-1.59,0.54-3.23,1.09-4.95,1.28c-0.39,0.05-0.77,0.07-1.15,0.07c-1.56,0-3.04-0.38-4.28-1.1
			c-0.31-0.17-0.53-0.25-0.74-0.25c-0.06,0-0.13,0.01-0.18,0.02c-0.3,0.07-0.54,0.26-0.67,0.53L10.59,31.51
			c-0.12,0.24-0.13,0.52-0.04,0.76c2.25,6.22,7.36,10.23,13.03,10.23s10.79-4.01,13.03-10.23c0.09-0.24,0.08-0.52-0.04-0.75
			L26.13,9.78c-0.1-0.19-0.07-0.42,0.06-0.6c0.11-0.14,0.27-0.22,0.53-0.22c0.01,0,0.02,0,0.02,0c0.59,0.1,1.16,0.14,1.71,0.14
			c2.43,0,4.77-0.77,7.02-1.53c2.26-0.75,4.39-1.47,6.55-1.47c1.51,0,2.89,0.35,4.24,1.07c0.16,0.09,0.27,0.25,0.29,0.44
			c0.36,2.81,2.47,5.12,5.25,5.72c0.26,0.06,0.46,0.3,0.46,0.57v29.09c0,0.31-0.24,0.56-0.54,0.58
			c-7.71,0.55-14.42,5.21-17.52,12.15c-0.11,0.24-0.12,0.51-0.02,0.75c0.09,0.25,0.27,0.44,0.51,0.55c0.13,0.05,0.26,0.08,0.4,0.08
			h36.29c0.54,0,0.98-0.44,0.98-0.98c0-0.13-0.03-0.27-0.08-0.4c-3.1-6.94-9.82-11.6-17.52-12.15c-0.31-0.02-0.54-0.27-0.54-0.58
			V13.9c0-0.27,0.19-0.51,0.45-0.57c2.78-0.6,4.88-2.9,5.25-5.71c0.02-0.19,0.14-0.35,0.3-0.44c1.35-0.72,2.74-1.07,4.25-1.07
			c2.16,0,4.29,0.71,6.55,1.46c2.14,0.72,4.57,1.53,7.02,1.53c0.57,0,1.15-0.05,1.8-0.15c0.18,0,0.35,0.09,0.46,0.24
			c0.13,0.17,0.16,0.4,0.06,0.59L69.92,31.51c-0.12,0.24-0.13,0.51-0.04,0.76c2.25,6.22,7.36,10.23,13.03,10.23
			c5.67,0,10.79-4.01,13.03-10.23C96.03,32.03,96.02,31.76,95.9,31.52z M33.8,33.77c-2.28,4.24-6.1,6.77-10.22,6.77
			s-7.94-2.53-10.22-6.77c-0.09-0.18-0.09-0.39,0.02-0.57c0.1-0.17,0.29-0.28,0.49-0.28h19.42c0.2,0,0.39,0.11,0.49,0.28
			C33.89,33.38,33.89,33.6,33.8,33.77z M33.73,30.13c0.09,0.18,0.08,0.39-0.03,0.56c-0.1,0.17-0.29,0.27-0.49,0.27H13.95
			c-0.2,0-0.39-0.1-0.49-0.27c-0.11-0.17-0.12-0.38-0.03-0.56l9.63-20.04c0.09-0.2,0.3-0.33,0.52-0.33s0.43,0.13,0.52,0.33
			L33.73,30.13z M69.28,54.25c0.11,0.19,0.12,0.41,0.01,0.59c-0.1,0.19-0.29,0.3-0.5,0.3H37.68c-0.21,0-0.4-0.11-0.5-0.29
			c-0.1-0.19-0.1-0.41,0.01-0.59c3.4-5.42,9.55-8.78,16.05-8.78C59.73,45.48,65.88,48.84,69.28,54.25z M53.24,11.53
			c-2.64,0-4.79-2.15-4.79-4.79c0-2.63,2.15-4.78,4.79-4.78c2.63,0,4.78,2.15,4.78,4.78C58.02,9.38,55.87,11.53,53.24,11.53z
			 M72.76,30.13l9.63-20.04c0.09-0.2,0.3-0.33,0.52-0.33c0.22,0,0.42,0.13,0.52,0.33l9.63,20.04c0.09,0.18,0.08,0.39-0.03,0.56
			c-0.11,0.17-0.29,0.27-0.49,0.27H73.28c-0.2,0-0.39-0.1-0.49-0.27C72.68,30.52,72.67,30.31,72.76,30.13z M93.13,33.77
			c-2.28,4.24-6.1,6.77-10.22,6.77c-4.12,0-7.94-2.53-10.22-6.77c-0.09-0.17-0.09-0.39,0.02-0.57c0.1-0.17,0.29-0.28,0.49-0.28
			h19.42c0.2,0,0.39,0.11,0.5,0.29C93.22,33.38,93.22,33.59,93.13,33.77z"/>
	</g>
</g>
</svg>
