<?xml version="1.0" encoding="utf-8"?>
<!-- Generator: Adobe Illustrator 25.0.0, SVG Export Plug-In . SVG Version: 6.00 Build 0)  -->
<svg version="1.1" id="Layer_1" xmlns="http://www.w3.org/2000/svg" xmlns:xlink="http://www.w3.org/1999/xlink" x="0px" y="0px"
	 viewBox="0 0 167.89 185.49" style="enable-background:new 0 0 167.89 185.49;" xml:space="preserve">
<style type="text/css">
	.st0{fill:#185AE9;}
	.st1{fill:#00B0FB;}
	.st2{fill:#00B0FB;fill-opacity:0.4;}
	.st3{fill:#FFFFFF;}
	.st4{fill:#001135;}
	.st5{fill:#3C7CFF;}
	.st6{fill-rule:evenodd;clip-rule:evenodd;fill:#252F3E;}
	.st7{fill-rule:evenodd;clip-rule:evenodd;fill:#FF9900;}
	.st8{fill:#8D3124;}
	.st9{fill:#E05244;}
	.st10{fill:#F7ADAE;}
	.st11{fill:#5B1E19;}
	.st12{fill:#F58436;}
	.st13{fill:#9D5026;}
	.st14{fill:#1A476F;}
	.st15{fill:#1F5B98;}
	.st16{fill:#2D72B8;}
	.st17{fill:#5294CF;}
	.st18{fill:#FF9900;}
	.st19{fill:#252F3E;}
	.st20{fill:#FDFDFD;}
	.st21{fill:#DBDBDB;}
	.st22{fill:#040404;}
	.st23{fill:#0C0C0C;}
	.st24{fill:#010101;}
	.st25{fill:#D9D9D9;}
	.st26{fill:#DCDCDC;}
	.st27{fill:#D7D7D7;}
	.st28{fill:#D8D8D8;}
	.st29{fill:#111111;}
	.st30{fill:#050505;}
	.st31{fill:#070707;}
	.st32{fill:#060606;}
	.st33{fill:#030303;}
	.st34{fill:#020202;}
	.st35{fill:#151515;}
	.st36{fill:#0F0F0F;}
	.st37{fill:#606060;}
	.st38{fill:#FCFCFC;}
	.st39{fill:#0A0A0A;}
	.st40{fill:#191919;}
	.st41{fill:#0D0D0D;}
	.st42{fill:#101010;}
	.st43{fill:#090909;}
	.st44{fill:#161616;}
	.st45{fill:#080808;}
	.st46{fill-rule:evenodd;clip-rule:evenodd;fill:#00B0FB;}
</style>
<g>
	<g>
		<path class="st1" d="M149.46,147.47c-0.57,0.06-1.16,0.11-1.78,0.11c-0.33,0-0.65-0.03-0.97-0.05v1.08c0,0.45-0.37,0.81-0.81,0.81
			h-44.41c-5.36,0-10.33,2.15-14.02,6.07c-0.16,0.16-0.37,0.26-0.59,0.26c-0.1,0-0.21-0.02-0.3-0.06c-0.31-0.13-0.51-0.43-0.51-0.76
			v-2.9c-0.62,0.06-1.26,0.1-1.92,0.1c-0.67,0-1.32-0.04-1.95-0.11v2.9c0,0.33-0.2,0.63-0.51,0.76c-0.09,0.03-0.2,0.06-0.3,0.06
			c-0.22,0-0.44-0.09-0.59-0.26c-3.68-3.92-8.66-6.07-14.02-6.07H22.36c-0.45,0-0.81-0.36-0.81-0.81v-3.11H19.6
			c0.29,2.59,0,5.23-0.82,7.68c1.05,0.04,2.06,0.15,2.99,0.36c0.15-0.16,0.35-0.26,0.59-0.26h44.41c4.86,0,9.25,2.27,12.09,5.87
			h10.53c2.84-3.6,7.24-5.87,12.1-5.87h44.41c0.16,0,0.31,0.06,0.44,0.15c0.86-0.51,1.81-0.94,2.83-1.27
			C149.06,150.59,149.16,149.01,149.46,147.47z"/>
		<path class="st2" d="M162.54,72.18h-11.15c-0.45,0-0.81,0.37-0.81,0.81v93.88c0,3.42-2.78,6.21-6.21,6.21H23.89
			c-3.42,0-6.21-2.78-6.21-6.21V72.99c0-0.45-0.37-0.81-0.81-0.81H5.35c-0.82,0-1.49,0.67-1.49,1.49v95.76
			c0,6.73,5.48,12.21,12.21,12.21h135.74c6.73,0,12.21-5.48,12.21-12.21V73.67C164.02,72.85,163.36,72.18,162.54,72.18z"/>
		<path class="st1" d="M55.86,58.34c0.09,0.14,17.44,27.14,17.61,27.41c0.2,0.31,0.3,0.67,0.3,1.04v3.56c0,1.06,0.77,1.94,1.82,2.1
			c0.04,0,0.08,0.01,0.12,0.01c0.2,0,0.4-0.08,0.55-0.21c0.18-0.17,0.28-0.4,0.26-0.65l-1.75-29.65c-0.03-0.43-0.38-0.77-0.81-0.77
			h-3.13c-4.02,0-7.3-3.27-7.3-7.3v-0.34c0-4.02,3.27-7.3,7.3-7.3c3.86,0,7.06,3.02,7.29,6.87l0.21,3.44
			c0.03,0.43,0.38,0.76,0.81,0.76h9.62c0.43,0,0.79-0.34,0.81-0.77l0.2-3.44c0.23-3.85,3.43-6.87,7.29-6.87c4.02,0,7.3,3.27,7.3,7.3
			v0.34c0,4.02-3.27,7.3-7.3,7.3h-3.13c-0.43,0-0.79,0.34-0.81,0.77l-1.74,29.67c-0.01,0.22,0.07,0.44,0.22,0.61
			c0.15,0.16,0.37,0.26,0.59,0.26h0.17c1.17,0,2.13-0.95,2.13-2.13v-3.56c0-0.37,0.11-0.73,0.3-1.04l17.55-27.33
			c4.18-5.92,6.35-12.8,6.35-19.98c0-19.07-15.51-34.58-34.58-34.58c-8.65,0-16.93,3.22-23.33,9.07
			c-6.35,5.8-10.28,13.69-11.08,22.22c-0.67,8.91,2.58,16.75,3.24,18.23C53.8,55.15,54.78,56.81,55.86,58.34z"/>
		<path d="M162.54,68.32h-11.16c-0.44,0-0.81-0.36-0.81-0.81v-1.26c0-2.66-2.17-4.83-4.83-4.83H116.5c-0.3,0-0.58-0.17-0.72-0.44
			c-0.14-0.27-0.12-0.58,0.05-0.84c4.42-6.42,6.74-13.92,6.74-21.7C122.56,17.25,105.31,0,84.12,0C74.5,0,65.28,3.58,58.18,10.08
			c-6.01,5.5-10.04,12.61-11.68,20.56c-0.01,0.05-0.02,0.09-0.05,0.15c-0.34,1.34-3.1,13.37,2.79,23.84c0.05,0.06,0.08,0.1,0.1,0.16
			c0.87,1.86,1.91,3.66,3.07,5.35c0.17,0.26,0.19,0.57,0.05,0.84c-0.14,0.27-0.42,0.44-0.72,0.44H22.52c-2.66,0-4.83,2.17-4.83,4.83
			v1.26c0,0.45-0.37,0.81-0.81,0.81H5.36C2.41,68.32,0,70.72,0,73.66v95.77c0,8.86,7.22,16.06,16.07,16.06h135.74
			c8.87,0,16.07-7.21,16.07-16.06V73.66C167.89,70.72,165.48,68.32,162.54,68.32z M49.71,35.16c0.8-8.53,4.74-16.42,11.09-22.22
			c6.39-5.86,14.68-9.08,23.33-9.08c19.06,0,34.58,15.52,34.58,34.58c0,7.17-2.17,14.06-6.36,19.98L94.79,85.75
			c-0.2,0.31-0.3,0.67-0.3,1.03v3.56c0,1.17-0.95,2.13-2.13,2.13h-0.17c-0.22,0-0.44-0.09-0.59-0.26c-0.15-0.16-0.23-0.37-0.22-0.6
			l1.74-29.67c0.02-0.43,0.38-0.77,0.81-0.77h3.13c4.02,0,7.3-3.27,7.3-7.3v-0.34c0-4.02-3.28-7.3-7.3-7.3
			c-3.86,0-7.05,3.02-7.29,6.87l-0.2,3.44c-0.02,0.43-0.38,0.77-0.81,0.77h-9.62c-0.43,0-0.79-0.34-0.81-0.76l-0.21-3.45
			c-0.23-3.85-3.43-6.87-7.29-6.87c-4.02,0-7.3,3.28-7.3,7.3v0.34c0,4.03,3.28,7.3,7.3,7.3h3.13c0.43,0,0.79,0.34,0.81,0.77
			l1.76,29.65c0.01,0.24-0.08,0.49-0.27,0.65c-0.15,0.14-0.34,0.21-0.55,0.21h-0.12c-1.06-0.16-1.82-1.05-1.82-2.1v-3.56
			c0-0.36-0.1-0.72-0.3-1.03c-0.17-0.27-17.53-27.28-17.61-27.41c-1.08-1.53-2.06-3.2-2.91-4.96C52.3,51.91,49.04,44.06,49.71,35.16
			z M93.44,56.45l0.19-3.11c0.1-1.81,1.62-3.24,3.43-3.24c1.89,0,3.44,1.55,3.44,3.44v0.34c0,1.91-1.55,3.44-3.44,3.44h-2.8
			c-0.22,0-0.44-0.09-0.59-0.26C93.51,56.89,93.43,56.67,93.44,56.45z M89.62,96.33c0.45,0,0.81,0.37,0.81,0.81v4.07
			c0,2.3-1.88,4.17-4.18,4.17h-4.24c-2.31,0-4.18-1.87-4.18-4.17v-4.07c0-0.44,0.36-0.81,0.81-0.81H89.62z M78.64,62.03
			c-0.01-0.22,0.07-0.44,0.22-0.6c0.15-0.16,0.37-0.26,0.59-0.26h8.98c0.22,0,0.44,0.09,0.59,0.26c0.15,0.16,0.23,0.38,0.22,0.6
			L87.51,91.7c-0.02,0.43-0.38,0.77-0.81,0.77h-5.49c-0.43,0-0.79-0.34-0.81-0.77L78.64,62.03z M74.44,56.45
			c0.01,0.23-0.07,0.44-0.22,0.62c-0.15,0.15-0.37,0.24-0.59,0.24h-2.8c-1.89,0-3.44-1.53-3.44-3.44v-0.34
			c0-1.89,1.55-3.44,3.44-3.44c1.8,0,3.31,1.43,3.44,3.24L74.44,56.45z M21.55,66.25c0-0.53,0.44-0.98,0.98-0.98h32.46l0.28-0.02
			c0.28,0,0.53,0.14,0.69,0.37l13.83,21.54c0.08,0.14,0.13,0.29,0.13,0.44v2.74c0,2.37,1.41,4.51,3.57,5.47
			c0.3,0.14,0.49,0.43,0.49,0.74v4.64c0,4.44,3.6,8.05,8.04,8.05h4.24c4.43,0,8.04-3.61,8.04-8.05v-4.64c0-0.31,0.19-0.6,0.49-0.74
			c2.16-0.95,3.57-3.1,3.57-5.47V87.6c0-0.15,0.05-0.3,0.13-0.44l13.83-21.54c0.15-0.23,0.4-0.37,0.76-0.37
			c0.01,0,0.21,0.02,0.21,0.02h32.46c0.53,0,0.98,0.44,0.98,0.98v84.68c0,0.45-0.37,0.81-0.81,0.81h-44.41
			c-5.36,0-10.33,2.15-14.02,6.07c-0.16,0.16-0.37,0.26-0.59,0.26c-0.1,0-0.21-0.02-0.3-0.06c-0.31-0.13-0.51-0.43-0.51-0.76v-35.51
			c0-1.07-0.87-1.94-1.94-1.94c-1.06,0-1.93,0.87-1.93,1.94v35.51c0,0.33-0.2,0.63-0.51,0.76c-0.09,0.03-0.2,0.06-0.3,0.06
			c-0.22,0-0.44-0.09-0.59-0.26c-3.68-3.92-8.66-6.07-14.02-6.07H22.36c-0.45,0-0.81-0.36-0.81-0.81V66.25z M146.71,156.42v10.46
			c0,1.29-1.06,2.35-2.35,2.35H87.11c-0.23,0-0.46-0.12-0.62-0.3c-0.16-0.19-0.22-0.42-0.17-0.66c1.32-7.33,7.71-12.66,15.17-12.66
			h44.41C146.34,155.6,146.71,155.97,146.71,156.42z M21.55,156.42c0-0.44,0.36-0.81,0.81-0.81h44.41c7.46,0,13.83,5.32,15.17,12.66
			c0.05,0.23-0.01,0.48-0.17,0.66c-0.15,0.19-0.38,0.3-0.62,0.3H23.9c-1.29,0-2.35-1.06-2.35-2.35V156.42z M164.03,169.43
			c0,6.73-5.47,12.2-12.22,12.2H16.07c-6.73,0-12.2-5.47-12.2-12.2V73.66c0-0.81,0.66-1.49,1.49-1.49h11.52
			c0.44,0,0.81,0.37,0.81,0.81v93.89c0,3.42,2.78,6.21,6.21,6.21h120.47c3.43,0,6.21-2.79,6.21-6.21V72.99
			c0-0.44,0.37-0.81,0.81-0.81h11.16c0.81,0,1.49,0.67,1.49,1.49V169.43z"/>
		<path d="M132.21,19.22L132.21,19.22c0.47,0,0.92-0.17,1.27-0.48l5.98-5.26c0.38-0.34,0.61-0.81,0.64-1.33
			c0.03-0.52-0.14-1.01-0.49-1.4c-0.37-0.41-0.89-0.65-1.44-0.65c-0.46,0-0.91,0.17-1.26,0.47l-5.99,5.26
			c-0.8,0.7-0.88,1.93-0.18,2.73C131.13,18.98,131.66,19.22,132.21,19.22z"/>
		<path d="M136.93,41.24c0.35,0.31,0.8,0.48,1.27,0.48h0.01c1.06,0,1.93-0.86,1.93-1.93c0-0.56-0.24-1.09-0.66-1.45l-5.99-5.26
			c-0.35-0.31-0.81-0.48-1.27-0.48c-0.56,0-1.09,0.24-1.45,0.66c-0.34,0.39-0.51,0.89-0.48,1.4c0.03,0.52,0.26,0.99,0.65,1.33
			L136.93,41.24z"/>
		<path d="M34.77,18.74c0.35,0.31,0.8,0.48,1.27,0.48h0c1.06,0,1.93-0.87,1.93-1.93c0-0.56-0.24-1.08-0.66-1.45l-5.99-5.26
			c-0.35-0.31-0.8-0.48-1.27-0.48c-0.56,0-1.09,0.24-1.45,0.66c-0.34,0.39-0.51,0.89-0.48,1.4c0.03,0.51,0.27,0.99,0.65,1.32
			L34.77,18.74z"/>
		<path d="M34.77,33.07l-5.99,5.26c-0.8,0.7-0.88,1.93-0.18,2.73c0.37,0.42,0.9,0.66,1.45,0.66h0c0.47,0,0.92-0.17,1.27-0.48
			l5.99-5.26c0.8-0.7,0.88-1.93,0.18-2.73c-0.37-0.42-0.9-0.66-1.45-0.66C35.58,32.59,35.13,32.76,34.77,33.07z"/>
		<path d="M59.03,94.41c0,1.06-0.87,1.93-1.93,1.93H30.06c-1.06,0-1.93-0.87-1.93-1.93c0-1.07,0.87-1.94,1.93-1.94H57.1
			C58.16,92.47,59.03,93.34,59.03,94.41z"/>
		<path d="M67.39,108.37c0,1.06-0.86,1.93-1.93,1.93H35.02c-1.07,0-1.93-0.87-1.93-1.93c0-1.07,0.86-1.93,1.93-1.93h30.44
			C66.53,106.44,67.39,107.3,67.39,108.37z"/>
		<path d="M67.39,121.75c0,1.06-0.86,1.93-1.93,1.93H35.02c-1.07,0-1.93-0.87-1.93-1.93c0-1.07,0.86-1.94,1.93-1.94h30.44
			C66.53,119.8,67.39,120.68,67.39,121.75z"/>
		<path d="M67.39,135.11c0,1.07-0.86,1.93-1.93,1.93H35.02c-1.07,0-1.93-0.86-1.93-1.93c0-1.06,0.86-1.93,1.93-1.93h30.44
			C66.53,133.18,67.39,134.05,67.39,135.11z"/>
		<path d="M140.13,94.41c0,1.06-0.87,1.93-1.93,1.93h-27.05c-1.06,0-1.93-0.87-1.93-1.93c0-1.07,0.87-1.94,1.93-1.94h27.05
			C139.26,92.47,140.13,93.34,140.13,94.41z"/>
		<path d="M135.17,108.37c0,1.06-0.86,1.93-1.93,1.93H102.8c-1.07,0-1.93-0.87-1.93-1.93c0-1.07,0.86-1.93,1.93-1.93h30.44
			C134.31,106.44,135.17,107.3,135.17,108.37z"/>
		<path d="M135.17,121.75c0,1.06-0.86,1.93-1.93,1.93H102.8c-1.07,0-1.93-0.87-1.93-1.93c0-1.07,0.86-1.94,1.93-1.94h30.44
			C134.31,119.8,135.17,120.68,135.17,121.75z"/>
		<path d="M135.17,135.11c0,1.07-0.86,1.93-1.93,1.93H102.8c-1.07,0-1.93-0.86-1.93-1.93c0-1.06,0.86-1.93,1.93-1.93h30.44
			C134.31,133.18,135.17,134.05,135.17,135.11z"/>
	</g>
</g>
</svg>
