<?xml version="1.0" encoding="utf-8"?>
<!-- Generator: Adobe Illustrator 24.3.0, SVG Export Plug-In . SVG Version: 6.00 Build 0)  -->
<svg version="1.1" id="Layer_1" xmlns="http://www.w3.org/2000/svg" xmlns:xlink="http://www.w3.org/1999/xlink" x="0px" y="0px"
	 viewBox="0 0 115.98 129.9" style="enable-background:new 0 0 115.98 129.9;" xml:space="preserve">
<style type="text/css">
	.st0{fill:#001135;}
	.st1{fill:#FFFFFF;}
	.st2{fill:#3C7CFF;}
	.st3{fill:#FFFFFF;fill-opacity:0.4;}
</style>
<g>
	<path class="st0" d="M33.83,15.66c0-1.1-0.01-1.9,0-2.7c0.02-2.39,0.4-2.76,2.85-2.77c2.4-0.01,4.8,0,6.97,0
		c0.63-1.79,0.96-3.4,1.74-4.76c1.7-2.98,4.44-4.38,7.86-4.41c3.09-0.02,6.18-0.05,9.27,0c5.22,0.1,8.45,2.98,9.3,8.21
		c0.04,0.26,0.14,0.5,0.28,0.96c2.33,0,4.67-0.01,7.01,0c2.68,0.01,3,0.34,3.01,3.02c0,0.73,0,1.46,0,2.45c2.62,0,5.09,0,7.55,0
		c3.02,0,6.05,0.05,9.07-0.02c1.65-0.04,2.37,0.67,2.29,2.28c-0.02,0.4,0,0.81,0,1.21c0,35.43,0,70.85,0,106.28
		c0,3.33-0.15,3.48-3.56,3.48c-26.35,0-52.69,0-79.04,0c-3.39,0-3.52-0.13-3.52-3.51c0-35.43,0-70.85,0-106.28
		c0-3.44,0-3.44,3.52-3.44C23.48,15.66,28.51,15.66,33.83,15.66z M87.77,24.65c0,2.82,0.01,5.49,0,8.16
		c-0.02,4.68-2.37,7.04-7.08,7.04c-15.12,0.01-30.24,0.01-45.36,0c-4.83,0-7.11-2.32-7.13-7.19c-0.01-2.66,0-5.32,0-7.96
		c-1.28,0-2.24,0-3.25,0c0,30.99,0,61.82,0,92.78c22.03,0,43.98,0,66.03,0c0-30.97,0-61.85,0-92.83
		C89.95,24.65,89.03,24.65,87.77,24.65z M82.2,21.46c3.16,0,6.11-0.01,9.05,0c2.55,0.01,2.89,0.35,2.89,2.92
		c0,31.13,0,62.26,0,93.39c0,2.55-0.26,2.81-2.73,2.81c-22.32,0-44.63,0-66.95,0c-2.35,0-2.63-0.29-2.63-2.7
		c-0.01-31.2-0.01-62.39,0-93.59c0-2.47,0.35-2.82,2.78-2.83c3.01-0.02,6.01,0,9.06,0c0-1.04,0-1.85,0-2.64c-5.29,0-10.42,0-15.53,0
		c0,35.72,0,71.26,0,106.87c26.62,0,53.13,0,79.65,0c0-35.72,0-71.3,0-106.87c-5.28,0-10.41,0-15.58,0
		C82.2,19.72,82.2,20.44,82.2,21.46z M37.07,26.46c14.04,0,27.9,0,41.74,0c0-4.47,0-8.79,0-13.23c-2.5,0-4.84,0.01-7.18,0
		c-2.54-0.01-2.7-0.18-2.75-2.77c-0.08-3.91-2.54-6.37-6.46-6.41c-2.82-0.03-5.64-0.01-8.46,0c-4.46,0.01-6.85,2.3-6.85,6.8
		c0,1.91-0.82,2.46-2.57,2.41c-2.46-0.08-4.92-0.02-7.46-0.02C37.07,17.77,37.07,22.04,37.07,26.46z M31.53,24.63
		c-0.11,0.3-0.2,0.42-0.2,0.54c-0.02,2.42-0.05,4.84-0.05,7.25c0,3.52,0.86,4.39,4.39,4.39c14.31,0.01,28.62,0,42.92,0
		c1.07,0,2.15,0.03,3.22-0.05c1.52-0.11,2.67-0.95,2.74-2.46c0.15-3.19,0.05-6.4,0.05-9.64c-0.9,0-1.59,0-2.38,0
		c-0.04,0.51-0.08,0.9-0.09,1.29c-0.08,3.77-0.12,3.82-3.87,3.82c-13.5,0-27,0-40.51,0c-3.85,0-3.85,0-3.94-3.94
		c-0.01-0.38-0.09-0.76-0.15-1.21C32.9,24.63,32.25,24.63,31.53,24.63z"/>
	<path class="st1" d="M82.2,21.46c0-1.01,0-1.74,0-2.64c5.18,0,10.3,0,15.58,0c0,35.57,0,71.15,0,106.87c-26.52,0-53.03,0-79.65,0
		c0-35.61,0-71.15,0-106.87c5.11,0,10.24,0,15.53,0c0,0.78,0,1.6,0,2.64c-3.04,0-6.05-0.01-9.06,0c-2.43,0.01-2.78,0.36-2.78,2.83
		c-0.01,31.2-0.01,62.39,0,93.59c0,2.42,0.29,2.7,2.63,2.7c22.32,0.01,44.63,0.01,66.95,0c2.47,0,2.73-0.26,2.73-2.81
		c0-31.13,0-62.26,0-93.39c0-2.58-0.34-2.91-2.89-2.92C88.3,21.45,85.36,21.46,82.2,21.46z"/>
	<path class="st2" d="M37.07,26.46c0-4.42,0-8.7,0-13.23c2.54,0,5-0.06,7.46,0.02c1.75,0.06,2.57-0.5,2.57-2.41
		c0.01-4.49,2.4-6.78,6.85-6.8c2.82-0.01,5.64-0.02,8.46,0c3.92,0.04,6.39,2.5,6.46,6.41c0.05,2.58,0.22,2.76,2.75,2.77
		c2.34,0.01,4.69,0,7.18,0c0,4.44,0,8.77,0,13.23C64.97,26.46,51.12,26.46,37.07,26.46z M57.96,6.42c-2.78,0.01-4.97,2.19-5.01,4.97
		c-0.04,2.84,2.23,5.15,5.06,5.13c2.74-0.01,4.98-2.23,5.02-4.98C63.08,8.71,60.8,6.41,57.96,6.42z"/>
	<path class="st0" d="M85.03,79.51c-0.03,14.93-12.19,26.96-27.18,26.91C42.9,106.37,30.9,94.26,30.93,79.25
		c0.03-14.91,12.2-26.95,27.18-26.9C73.05,52.4,85.06,64.52,85.03,79.51z M58.04,103.38c13.25-0.04,23.95-10.77,23.95-24
		c0-13.22-10.73-23.96-23.98-23.99C44.72,55.35,33.84,66.26,33.97,79.5C34.1,92.8,44.8,103.42,58.04,103.38z"/>
	<path class="st0" d="M57.96,6.42c2.85-0.01,5.12,2.29,5.07,5.13c-0.04,2.75-2.29,4.97-5.02,4.98c-2.83,0.01-5.1-2.29-5.06-5.13
		C52.98,8.61,55.18,6.43,57.96,6.42z M58.61,9.23c-0.31-0.02-0.63-0.04-0.94-0.06c-0.57,0.73-1.65,1.52-1.59,2.19
		c0.07,0.74,1.11,1.8,1.88,1.94c0.56,0.1,1.82-0.99,1.91-1.66C59.97,10.9,59.07,10.04,58.61,9.23z"/>
	<path class="st1" d="M58.04,103.38C44.8,103.42,34.1,92.8,33.97,79.5c-0.13-13.24,10.75-24.15,24.05-24.12
		c13.25,0.04,23.98,10.77,23.98,23.99C82,92.61,71.29,103.34,58.04,103.38z M64.77,85.13c1.79,2.52,4.2,3.05,6.85,2.17
		c2.77-0.92,3.95-3.31,4-5.97c0.05-2.58-0.06-5.31-0.84-7.73c-2.56-7.91-9.82-12.45-18.45-11.93c-7.2,0.43-14.07,6.29-15.64,13.35
		c-1.85,8.32,1.65,16.24,8.99,20.13c4.64,2.46,9.47,2.75,14.41,0.98c1.05-0.38,2.44-0.75,1.88-2.3c-0.55-1.54-1.8-0.99-2.89-0.59
		c-0.06,0.02-0.12,0.07-0.18,0.09c-3.09,1.07-6.24,1.11-9.32,0.18c-6.44-1.94-10.76-8.28-10.33-14.9
		c0.47-7.26,5.49-12.69,12.83-13.91c6.12-1.02,13.13,2.78,15.39,8.89c0.94,2.53,0.93,5.49,0.98,8.25c0.03,1.67-1.19,2.87-3.04,2.83
		c-1.83-0.04-2.23-1.5-2.48-2.92c-0.16-0.92-0.07-1.88-0.14-2.81c-0.28-3.83-2.75-6.96-6.31-8.02c-3.5-1.05-7.27,0.2-9.51,3.17
		c-2.25,2.97-2.43,6.83-0.44,10.01C53.09,88.2,59.47,90.32,64.77,85.13z"/>
	<path class="st0" d="M64.77,85.13c-5.3,5.19-11.68,3.06-14.25-1.04c-1.99-3.18-1.81-7.04,0.44-10.01c2.25-2.96,6.01-4.21,9.51-3.17
		c3.56,1.06,6.03,4.19,6.31,8.02c0.07,0.94-0.02,1.9,0.14,2.81c0.25,1.42,0.65,2.88,2.48,2.92c1.86,0.04,3.07-1.16,3.04-2.83
		c-0.04-2.77-0.04-5.72-0.98-8.25c-2.26-6.11-9.27-9.91-15.39-8.89c-7.34,1.22-12.36,6.66-12.83,13.91
		c-0.43,6.62,3.88,12.96,10.33,14.9c3.08,0.92,6.23,0.88,9.32-0.18c0.06-0.02,0.12-0.07,0.18-0.09c1.09-0.39,2.34-0.95,2.89,0.59
		c0.55,1.56-0.83,1.93-1.88,2.3c-4.94,1.77-9.78,1.48-14.41-0.98c-7.34-3.89-10.84-11.8-8.99-20.13
		c1.57-7.06,8.43-12.92,15.64-13.35c8.64-0.51,15.9,4.03,18.45,11.93c0.78,2.42,0.9,5.15,0.84,7.73c-0.06,2.67-1.23,5.05-4,5.97
		C68.97,88.19,66.56,87.65,64.77,85.13z M63.72,79.35c-0.02-3.2-2.6-5.77-5.77-5.75c-3.17,0.02-5.71,2.61-5.7,5.81
		c0.01,3.24,2.5,5.7,5.76,5.68C61.26,85.08,63.74,82.59,63.72,79.35z"/>
</g>
</svg>
