<?xml version="1.0" encoding="utf-8"?>
<!-- Generator: Adobe Illustrator 25.0.0, SVG Export Plug-In . SVG Version: 6.00 Build 0)  -->
<svg version="1.1" id="Layer_1" xmlns="http://www.w3.org/2000/svg" xmlns:xlink="http://www.w3.org/1999/xlink" x="0px" y="0px"
	 viewBox="0 0 170 170" style="enable-background:new 0 0 170 170;" xml:space="preserve">
<style type="text/css">
	.st0{fill:#185AE9;}
	.st1{fill:#00B0FB;}
	.st2{fill:#00B0FB;fill-opacity:0.4;}
	.st3{fill:#FFFFFF;}
	.st4{fill:#3C7CFF;}
	.st5{fill:#3C7CFF;stroke:#001135;stroke-width:0.7602;stroke-miterlimit:10;}
	.st6{fill:#001135;}
	.st7{fill:#0A0A0A;}
	.st8{fill:#DBDBDB;}
	.st9{fill:#FDFDFD;}
	.st10{fill:#030303;}
	.st11{fill:none;}
	.st12{fill:#010101;}
	.st13{fill:#020202;}
	.st14{fill:#181818;}
	.st15{fill:#1C1C1C;}
	.st16{fill:#171717;}
	.st17{fill:#090909;}
	.st18{fill:#060606;}
	.st19{fill:#070707;}
	.st20{fill:#191919;}
	.st21{fill:#FBFBFB;}
	.st22{fill:#FCFCFC;}
	.st23{fill:#050505;}
	.st24{fill:#0B0B0B;}
	.st25{fill:#040404;}
	.st26{fill:#FAFAFA;}
	.st27{fill:#FBFAFB;}
	.st28{fill:#0C0C0C;}
</style>
<g>
	<g>
		<g>
			<path class="st1" d="M87,5.11C87,5.11,87,5.11,87,5.11c2.09,0,4.15,0.11,6.2,0.27V2.46H79.89V2.14h-7.15v-0.9
				C32.64,8.04,2,42.99,2,85c0,43.25,32.48,79.02,74.32,84.29v-0.81H93.2v-3.85c-2.05,0.16-4.11,0.26-6.2,0.26
				c-44.05,0-79.89-35.84-79.89-79.89C7.11,40.95,42.95,5.11,87,5.11z"/>
		</g>
		<g>
			<path class="st2" d="M144.77,96.73c0,0-0.01,0-0.01,0c-25.19,0.75-44.95,21.08-44.99,46.29v1.11c0,0.15,0.07,0.3,0.19,0.4
				c0.09,0.07,0.2,0.1,0.31,0.1c0.04,0,0.08,0,0.12-0.02c22.6-5.85,40.21-24.41,44.87-47.28c0.03-0.15-0.01-0.3-0.11-0.42
				C145.05,96.8,144.92,96.73,144.77,96.73z"/>
			<path class="st1" d="M85.02,23.41c-6.22,0-12.41,0.95-18.41,2.83C47.4,32.26,32.34,47.32,26.32,66.53
				c-0.05,0.15-0.02,0.32,0.07,0.45c0.09,0.13,0.24,0.2,0.4,0.2h20.03c0.16,0,0.31-0.07,0.4-0.2l4.58-6.11
				c2.78-3.69,7.2-5.9,11.82-5.91h42.75c4.62,0.01,9.03,2.22,11.81,5.91l4.58,6.11c0.09,0.13,0.24,0.2,0.4,0.2h20.03
				c0.16,0,0.31-0.08,0.4-0.2c0.09-0.13,0.12-0.29,0.07-0.45C135.6,40.74,112.02,23.41,85.02,23.41z"/>
			<path class="st2" d="M25.25,96.73c0,0-0.01,0-0.01,0c-0.15,0-0.29,0.07-0.38,0.18c-0.1,0.12-0.14,0.27-0.11,0.42
				c4.65,22.87,22.26,41.43,44.86,47.28c0.04,0.01,0.08,0.02,0.12,0.02c0.11,0,0.22-0.04,0.31-0.1c0.12-0.09,0.19-0.24,0.19-0.4
				v-1.11C70.2,117.81,50.44,97.48,25.25,96.73z"/>
			<path d="M85,0C38.13,0,0,38.13,0,85c0,46.87,38.13,85,85,85c46.82-0.05,84.95-38.18,85-85C170,38.13,131.87,0,85,0z M85,164.89
				c-44.05,0-79.89-35.84-79.89-79.89C5.11,40.95,40.95,5.11,85,5.11c0,0,0,0,0,0C129,5.16,164.84,41,164.89,85
				C164.89,129.05,129.05,164.89,85,164.89z"/>
			<path d="M100.8,20.23c-5.21-1.27-10.54-1.92-15.86-1.92c-30.76,0-57.34,20.9-64.65,50.82c-0.05,0.2-0.07,0.4-0.07,0.61
				c0,1.41,1.14,2.55,2.55,2.55h25.58c0.8,0,1.56-0.38,2.04-1.02l5.5-7.33c1.82-2.41,4.71-3.86,7.73-3.86h42.75
				c3.02,0.01,5.91,1.45,7.73,3.87l5.5,7.33c0.48,0.64,1.24,1.02,2.04,1.02h25.58c0.21,0,0.41-0.02,0.61-0.07
				c0.66-0.16,1.22-0.57,1.58-1.16c0.35-0.58,0.46-1.27,0.3-1.93C143.78,44.88,125.04,26.15,100.8,20.23z M143.6,66.97
				c-0.09,0.13-0.24,0.2-0.4,0.2h-20.03c-0.16,0-0.31-0.07-0.4-0.2l-4.58-6.11c-2.78-3.69-7.2-5.9-11.81-5.91H63.63
				c-4.62,0.01-9.04,2.22-11.82,5.91l-4.58,6.11c-0.09,0.13-0.24,0.2-0.4,0.2H26.8c-0.16,0-0.31-0.08-0.4-0.2
				c-0.09-0.13-0.12-0.29-0.07-0.45c6.02-19.21,21.08-34.27,40.29-40.29c5.99-1.88,12.19-2.83,18.41-2.83
				c27,0,50.58,17.33,58.66,43.12C143.73,66.68,143.7,66.85,143.6,66.97z"/>
			<path d="M23.93,91.61H21.6c-0.12,0-0.24,0.01-0.36,0.03c-0.68,0.1-1.27,0.45-1.68,1c-0.41,0.55-0.58,1.22-0.48,1.89
				c4.02,28.05,25.41,50.52,53.22,55.93c0.16,0.03,0.32,0.05,0.49,0.05c1.41,0,2.55-1.15,2.55-2.55v-4.92
				C75.31,114.7,52.24,91.64,23.93,91.61z M70.23,144.13c0,0.15-0.07,0.3-0.19,0.4c-0.09,0.07-0.2,0.1-0.31,0.1
				c-0.04,0-0.08,0-0.12-0.02c-22.6-5.85-40.21-24.41-44.86-47.28c-0.03-0.15,0.01-0.3,0.11-0.42c0.1-0.11,0.24-0.18,0.38-0.18
				c0,0,0.01,0,0.01,0c25.2,0.75,44.96,21.08,44.98,46.29V144.13z"/>
			<path d="M146.07,91.61c-28.32,0.03-51.38,23.09-51.41,51.41v4.92c0,1.41,1.15,2.55,2.56,2.55h0.01c0.16,0,0.32-0.02,0.47-0.05
				c27.82-5.4,49.21-27.88,53.23-55.93c0.02-0.12,0.03-0.24,0.03-0.36c0-1.41-1.15-2.55-2.55-2.55H146.07z M100.39,144.61
				c-0.04,0.01-0.08,0.02-0.12,0.02c-0.11,0-0.22-0.04-0.31-0.1c-0.12-0.09-0.19-0.24-0.19-0.4v-1.11
				c0.03-25.21,19.79-45.54,44.99-46.29c0,0,0.01,0,0.01,0c0.15,0,0.29,0.07,0.38,0.18c0.1,0.12,0.14,0.27,0.11,0.42
				C140.6,120.21,122.99,138.77,100.39,144.61z"/>
			<path d="M102.82,91.11c0-9.83-7.99-17.82-17.82-17.82s-17.82,7.99-17.82,17.82c0,9.83,7.99,17.82,17.82,17.82
				C94.82,108.92,102.81,100.92,102.82,91.11z M85,103.82c-7.01,0-12.71-5.7-12.71-12.71S77.99,78.39,85,78.39c0,0,0,0,0,0
				c7,0.01,12.71,5.71,12.71,12.71C97.71,98.12,92.01,103.82,85,103.82z"/>
		</g>
	</g>
</g>
</svg>
