<?xml version="1.0" encoding="utf-8"?>
<!-- Generator: Adobe Illustrator 24.3.0, SVG Export Plug-In . SVG Version: 6.00 Build 0)  -->
<svg version="1.1" id="Layer_1" xmlns="http://www.w3.org/2000/svg" xmlns:xlink="http://www.w3.org/1999/xlink" x="0px" y="0px"
	 viewBox="0 0 108 108" style="enable-background:new 0 0 108 108;" xml:space="preserve">
<style type="text/css">
	.st0{fill:#00B0FB;}
	.st1{fill:#FFFFFF;}
	.st2{fill:#00B0FB;fill-opacity:0.4;}
</style>
<g>
	<path class="st0" d="M106.71,65.22c-0.37-3.4-0.53-6.89-1.48-10.17c-4.74-16.32-15.75-26.89-32.78-31.57
		c-3.17-0.88-6.5-1.18-9.94-1.78c0-2.72,0-5.6-0.01-8.48c-0.01-6.23-4.11-10.19-10.61-10.2c-13.33-0.02-26.67-0.02-40.01,0
		C5.39,3.03,1.27,7,1.27,13.24c-0.01,27.21-0.02,54.42,0,81.61c0,6.16,4.11,10.12,10.54,10.14c13.39,0.02,26.77,0.02,40.16,0
		c6.43-0.01,10.52-3.98,10.53-10.12c0.01-6.93,0.03-13.85-0.02-20.78c-0.01-1.42,0.01-2.56,1.76-3.11c0.71-0.22,1.3-0.98,1.8-1.6
		c1.21-1.49,2.37-3.03,3.5-4.59c1.99-2.75,3.94-5.54,5.92-8.36c1.87,2.19,2.94,5.27,3.2,9.03c0.11,1.7,0.51,2.1,2.3,2.1
		c7.82,0.01,15.63,0.01,23.45,0C106.29,67.56,106.91,67.04,106.71,65.22z M21.95,6.44h20c0,0.64,0.01,1.13,0,1.63
		c-0.02,1.33-0.74,2.02-2.13,2.02c-5.3,0.01-10.6,0.03-15.9-0.01C22.08,10.07,21.66,9.22,21.95,6.44z M59.05,95.37
		c-0.02,3.61-2.67,6.29-6.46,6.3c-13.81,0.05-27.61,0.05-41.42,0c-3.7-0.02-6.21-2.49-6.45-6.02c-0.02-0.3-0.02-0.6-0.02-0.9V13.28
		c0-3.42,1.39-5.52,4.32-6.58c0.42-0.16,0.89-0.28,1.34-0.32c0.68-0.07,1.36-0.08,2.03-0.08c1.92-0.01,3.84,0,5.99,0
		c0,0.86-0.02,1.49,0.01,2.14c0.13,2.84,2.22,4.89,5.19,4.92c5.52,0.05,11.05,0.05,16.56,0c3.08-0.03,5.23-2.15,5.16-5.21
		c-0.03-1.54,0.43-2.01,2.01-1.89c1.7,0.14,3.44-0.01,5.16,0.04c3.88,0.12,6.53,2.69,6.57,6.39c0.03,2.88,0,5.77-0.01,8.66
		c0,0.15-0.04,0.3-0.08,0.52c-1.87,0.23-3.76,0.46-5.64,0.72C36.17,24.99,20.8,38.06,16.58,54.1c-0.94,3.55-1.26,7.24-1.67,10.9
		c-0.25,2.17,0.26,2.56,2.5,2.56c7.61,0.01,15.22,0.01,22.82,0c2.28,0,2.53-0.23,2.72-2.49c0.73-8.42,6.88-14.9,15.21-16.03
		c0.2-0.02,0.41-0.02,0.77-0.04c0.04,0.43,0.12,0.86,0.12,1.27c0.01,2.69-0.03,5.39,0.03,8.08c0.01,0.89-0.25,1.49-1.06,1.97
		c-0.61,0.36-1.18,0.83-1.69,1.31c-3.1,2.92-2.32,7.85,1.59,9.7c0.8,0.37,1.16,0.72,1.16,1.62C59.04,80.41,59.07,87.89,59.05,95.37z
		 M63.12,67.57c-1.2,1.55-3.25,1.54-4.48,0.24c-1.23-1.29-1.06-3.09,0.65-4.28c4.08-2.83,8.23-5.55,12.36-8.32
		c0.13,0.12,0.25,0.23,0.38,0.34C69.07,59.56,66.16,63.62,63.12,67.57z M62.59,57.16v-8.19c3,0.25,5.61,1.2,8.26,2.88
		C68.08,53.63,65.45,55.32,62.59,57.16z M82.4,64.15c-0.87-2.47-1.68-4.86-2.55-7.23c-0.2-0.56-0.48-1.14-0.9-1.57
		c-1.42-1.44-1.43-2.8,0.02-4.2c0.25-0.24,0.55-0.58,0.56-0.88c0.01-0.69,0.1-1.62-0.31-2c-0.4-0.37-1.7-0.51-2.04-0.19
		c-2.28,2.15-4.13,1.13-6.49-0.08c-13.08-6.76-28.86,1.11-31.04,15.32c-0.03,0.24-0.06,0.49-0.12,0.89H18.32
		c0.49-9.91,4.27-18.39,11.22-25.85c1.73,1.66,3.37,3.24,5.01,4.83c0.37,0.35,0.72,0.72,1.11,1.04c0.78,0.65,1.64,0.72,2.38,0.01
		c0.78-0.74,0.74-1.61-0.03-2.37c-1.61-1.57-3.23-3.11-4.85-4.66c-0.35-0.35-0.69-0.71-1.15-1.19c7.71-6.61,16.6-10.16,27.06-10.72
		v6.38c0,0.54-0.01,1.09,0,1.64c0.01,1.09,0.47,1.89,1.7,1.89c1.23,0.01,1.73-0.74,1.73-1.85c0-2.15,0-4.29,0.01-6.43
		c0-0.49,0.04-0.97,0.07-1.62c10.37,0.56,19.26,4.09,27.1,10.82c-1.97,1.84-3.83,3.57-5.68,5.31c-1.09,1.03-1.29,2.19-0.48,2.84
		c1.09,0.87,2,0.38,2.86-0.46c1.81-1.78,3.65-3.54,5.62-5.43c6.96,7.36,10.66,15.85,11.27,25.78H82.4z"/>
	<path class="st0" d="M36.3,88.62c-1.61-0.04-3.22-0.01-4.83-0.01c-1.57,0-3.12-0.03-4.68,0.01c-2.67,0.06-4.67,1.9-4.8,4.35
		c-0.14,2.57,1.67,4.74,4.37,4.86c3.42,0.15,6.86,0.14,10.28,0.01c2.57-0.11,4.56-2.34,4.49-4.69
		C41.06,90.68,38.96,88.68,36.3,88.62z M36.51,94.37c-0.14,0.08-0.26,0.15-0.41,0.17c-1.54,0.18-3.11,0.06-4.67,0.06
		c-1.46,0-2.91,0.01-4.37,0c-0.95-0.01-1.77-0.43-1.54-1.41c0.14-0.52,0.97-1.22,1.51-1.24c3.02-0.12,6.04-0.12,9.04,0.01
		c0.14,0,0.28,0.05,0.41,0.14C37.28,92.61,37.29,93.84,36.51,94.37z"/>
</g>
</svg>
