<?xml version="1.0" encoding="utf-8"?>
<!-- Generator: Adobe Illustrator 25.0.0, SVG Export Plug-In . SVG Version: 6.00 Build 0)  -->
<svg version="1.1" id="Layer_1" xmlns="http://www.w3.org/2000/svg" xmlns:xlink="http://www.w3.org/1999/xlink" x="0px" y="0px"
	 viewBox="0 0 98.64 98.65" style="enable-background:new 0 0 98.64 98.65;" xml:space="preserve">
<style type="text/css">
	.st0{fill:#185AE9;}
	.st1{fill-rule:evenodd;clip-rule:evenodd;fill:#00B0FB;}
	.st2{fill:#00B0FB;}
	.st3{fill:#00B0FB;fill-opacity:0.4;}
	.st4{fill:#FFFFFF;}
	.st5{fill:#001135;}
	.st6{fill:#3C7CFF;}
	.st7{fill:#1429FF;}
	.st8{fill:#DBDBDB;}
	.st9{fill:#0A0A0A;}
	.st10{fill:#FEFDFE;}
	.st11{fill:#040404;}
	.st12{fill:#FDFDFD;}
	.st13{fill:#050504;}
</style>
<g>
	<path class="st2" d="M55.99,98.65c-14.83,0-29.67,0-44.5-0.02c-6.76,0-11.48-4.68-11.48-11.38C0,71.58,0,55.91,0,40.23l0-16.81
		h98.64v63.6c-0.01,7.05-4.56,11.61-11.58,11.62C76.71,98.65,66.35,98.65,55.99,98.65z M11.13,86.72c-0.85,0-1.54,0.04-2.17,0.12
		c-0.31,0.04-0.54,0.19-0.68,0.29c-0.48,0.35-0.78,0.91-0.82,1.53c-0.04,0.67,0.23,1.33,0.72,1.77c0.18,0.15,0.35,0.29,0.52,0.42
		c0.2,0.14,0.43,0.2,0.72,0.2c0.15,0,0.31-0.02,0.47-0.03c0.12-0.01,0.25-0.03,0.37-0.03h29.1c16.5,0,33.01,0,49.51,0.01
		c0.9,0,1.82-0.08,2.4-0.67c0.36-0.36,0.54-0.86,0.53-1.49c-0.01-2.1-2.02-2.1-2.67-2.1l-0.28,0c-0.62,0.01-1.25,0.02-1.89,0.02
		l-2.14,0l0-5.73c0-4.11,0-8.21-0.01-12.33c-0.01-4.75-2.84-7.6-7.58-7.61c-2.2-0.01-4.4-0.01-6.59-0.01l-8.13,0
		c0-0.3,0.01-0.6,0.02-0.89c0.02-0.95,0.05-1.84-0.05-2.72c-0.38-3.91-3.07-6.37-7.01-6.41c-0.95-0.01-1.9-0.01-2.84-0.01
		l-5.68,0.01l-2.25,0c-0.38,0-0.75,0-1.13,0c-4.05,0.02-7.32,3.23-7.42,7.3c-0.04,1.66-0.03,3.29-0.02,5.02
		c0,0.63,0.01,1.26,0.01,1.91l-9.93,0l-4.24,0c-5.44,0-8.09,2.64-8.1,8.08v13.41c-0.4,0-0.79-0.01-1.18-0.02
		C12.15,86.74,11.63,86.72,11.13,86.72z M41.32,32.56c-0.37,0-0.71,0.08-1.05,0.16c-0.12,0.03-0.24,0.05-0.35,0.08
		c-1.29,0.25-2.33,1.17-2.64,2.36c-0.27,1.02,0.06,2.05,0.88,2.75c3.1,2.67,3.83,4.74,2.52,7.14c-0.04,0.07-0.06,0.14-0.06,0.22
		c-0.05,1.2,0.33,2.31,1.05,3.06c0.53,0.55,1.19,0.86,1.87,0.86c0.46,0,0.91-0.14,1.32-0.41c1.47-0.97,2.83-1.45,4.16-1.45
		c1.32,0,2.69,0.47,4.17,1.44c0.4,0.27,0.87,0.41,1.36,0.41c0.89,0,1.79-0.46,2.36-1.21c0.51-0.67,0.69-1.5,0.48-2.27
		c-0.93-3.35-0.19-5.67,2.48-7.75c0.91-0.73,1.24-1.89,0.87-3.03c-0.39-1.19-1.43-2-2.65-2.06c-3.51-0.2-5.38-1.53-6.25-4.46
		c-0.35-1.19-1.33-1.92-2.55-1.92c-0.44,0-0.88,0.1-1.3,0.29c-0.89,0.4-1.79,1.4-2.19,2.44c-0.96,2.44-2.08,3.39-3.98,3.39
		c-0.11,0-0.22,0-0.33-0.01L41.32,32.56z M18.72,42.41c0.84,0,1.48-0.22,1.9-0.65c0.36-0.37,0.54-0.88,0.52-1.5
		c-0.02-0.77-0.37-2.06-2.51-2.06H8.68c-0.83,0-1.46,0.22-1.89,0.65c-0.37,0.38-0.55,0.88-0.54,1.51c0.02,1.28,0.9,2.05,2.35,2.05
		c1.69,0,3.37-0.01,5.06-0.01C15.35,42.4,17.04,42.4,18.72,42.41z M84.38,38.18c-1.74,0-3.47,0-5.21,0.01
		c-0.74,0.01-1.34,0.23-1.75,0.65c-0.36,0.37-0.55,0.89-0.54,1.49c0.02,1.27,0.92,2.06,2.35,2.06l8.47,0c0.55,0,1.66,0,1.66,0
		c1.55,0,2.44-0.8,2.44-2.13c0-1.28-0.9-2.08-2.34-2.08L84.38,38.18z M8.73,29.4c-2.11,0-2.47,1.26-2.49,2.01
		c-0.02,0.63,0.15,1.15,0.52,1.53c0.44,0.46,1.13,0.7,2.04,0.7c2.86,0.01,5.73,0.01,8.59,0.01c2.12,0,4.23,0,6.35-0.01
		c0.9,0,1.58-0.23,2.01-0.68c0.37-0.39,0.54-0.92,0.51-1.57c-0.04-0.9-0.5-1.99-2.48-1.99c-1.27,0.01-2.49,0.01-3.7,0.01l-8.07,0
		c-1.07,0-2.15,0-3.23-0.02C8.78,29.4,8.73,29.4,8.73,29.4z M74.27,29.4c-1.99,0-2.46,1.07-2.5,1.98c-0.04,0.65,0.14,1.19,0.51,1.58
		c0.43,0.46,1.11,0.69,2.01,0.69c2.49,0,4.98,0.01,7.47,0.01s4.99,0,7.48-0.01c0.92,0,1.61-0.24,2.06-0.7
		c0.37-0.38,0.54-0.89,0.52-1.52c-0.04-0.92-0.51-2.02-2.59-2.02l-0.12,0c-1.05,0.01-2.1,0.02-3.15,0.02l-4.24-0.01l-4.24,0.01
		c-1.05,0-2.09,0-3.14-0.02C74.33,29.4,74.27,29.4,74.27,29.4z"/>
	<path class="st2" d="M18.15,86.63c0-0.04,0-0.07-0.01-0.11c-0.02-0.31-0.04-0.63-0.04-0.95l0-4.11c0-2.74,0-5.49,0-8.24
		c0.01-2.86,0.92-3.78,3.75-3.78c4.33-0.01,8.66-0.01,12.99-0.01h1.21v17.2H18.15z"/>
	<path class="st2" d="M62.68,86.71V65.2c1.83,0.04,3.74,0.06,5.82,0.06c1.02,0,4.96-0.01,5.94-0.01s1.96,0,2.94,0.01
		c1.42,0.02,3.12,0.54,3.14,2.91c0.05,4.82,0.04,9.73,0.03,14.47l-0.01,3.98c0,0.01-0.01,0.04-0.03,0.08H62.68z"/>
	<path class="st2" d="M40.36,86.68c0-0.04-0.01-0.08-0.01-0.12c-0.03-0.36-0.05-0.72-0.05-1.08l0-8.84c0-5.89,0-11.79,0-17.68
		c0.01-2.05,1.7-3.72,3.76-3.72c1.88-0.01,3.75-0.01,5.62-0.01c1.87,0,3.74,0,5.61,0.02c0.22,0,0.43,0.02,0.62,0.05
		c0.11,0.01,0.2,0.03,0.27,0.05c0.13,0.02,0.22,0.05,0.31,0.08c0.12,0.04,0.2,0.06,0.27,0.09c0.15,0.06,0.3,0.14,0.44,0.25
		c0.06,0.04,0.11,0.07,0.14,0.11c0.13,0.1,0.19,0.15,0.24,0.21c0.07,0.07,0.12,0.13,0.16,0.18c0,0,0.15,0.2,0.16,0.21
		c0,0,0.07,0.12,0.07,0.13c0.04,0.06,0.05,0.1,0.07,0.14c0.04,0.07,0.05,0.12,0.07,0.16c0.05,0.14,0.09,0.26,0.12,0.39
		c0.01,0.05,0.02,0.09,0.02,0.12c0.04,0.23,0.06,0.43,0.06,0.64c0.04,8.25,0.03,16.6,0.02,24.69l0,3.76c0,0.04-0.01,0.1-0.03,0.17
		H40.36z"/>
	<path class="st2" d="M0.16,19.05c-0.01-0.93-0.04-1.86-0.07-2.79c-0.08-2.41-0.15-4.68,0.13-6.94c0.71-5.55,5.13-9.29,11-9.3
		C14.96,0,18.69,0,22.41,0l15.03,0.01l32.81,0c5.47,0,10.94,0,16.41,0c7.49,0,11.97,4.49,11.98,12.01v7.03H0.16z M27.84,3.88
		c-3.09,0-5.65,2.53-5.69,5.63c-0.03,3.16,2.48,5.78,5.61,5.85l0.11,0c3.01,0,5.59-2.6,5.65-5.67c0.04-3.16-2.47-5.77-5.6-5.81
		C27.92,3.88,27.84,3.88,27.84,3.88z M43.79,3.88c-3.13,0-5.69,2.55-5.7,5.68c-0.02,3.11,2.57,5.77,5.66,5.8
		c3.11,0,5.71-2.62,5.74-5.72c0.01-1.52-0.57-2.95-1.65-4.05c-1.07-1.1-2.5-1.7-4.01-1.71C43.82,3.88,43.79,3.88,43.79,3.88z
		 M11.91,3.88C10.4,3.88,8.97,4.49,7.88,5.58c-1.1,1.1-1.7,2.53-1.69,4.02c0.01,3.06,2.69,5.74,5.73,5.74
		c3.11-0.01,5.72-2.65,5.72-5.77c-0.01-3.09-2.62-5.7-5.7-5.7C11.93,3.88,11.91,3.88,11.91,3.88z M89.33,11.71
		c0.11,0,0.23,0.01,0.35,0.02c0.15,0.01,0.3,0.02,0.45,0.02c0.24,0,0.6-0.02,0.89-0.22c0.74-0.5,1.6-1.24,1.5-1.96
		c-0.08-0.61-0.61-1.24-1.61-1.94c-0.28-0.19-0.6-0.21-0.82-0.21c-0.16,0-0.33,0.01-0.49,0.03c-0.13,0.01-0.27,0.02-0.39,0.02H60.63
		c-1.53,0-2.52,0.29-3.04,0.9c-0.31,0.36-0.43,0.83-0.35,1.34c0.28,2,1.98,2,2.79,2l0.56-0.01l19.15,0L89.33,11.71z"/>
	<g>
		<path class="st2" d="M11.84,6.89C11.84,6.89,11.84,6.89,11.84,6.89c-0.72,0.02-1.39,0.32-1.87,0.85c-0.5,0.55-0.74,1.27-0.69,2.04
			c0.11,1.44,0.98,2.33,2.46,2.5c0.05,0.01,0.09,0.01,0.14,0.01c0.02,0,0.04,0,0.06,0c1.48-0.08,2.65-1.25,2.67-2.65
			c0.01-0.68-0.28-1.37-0.8-1.9C13.27,7.19,12.58,6.89,11.84,6.89z"/>
		<path class="st2" d="M27.88,6.91C27.88,6.91,27.88,6.91,27.88,6.91c-1.51,0.05-2.53,0.97-2.73,2.46
			c-0.09,0.67,0.12,1.35,0.58,1.89c0.51,0.61,1.28,0.98,2.1,1.02c0.02,0,0.04,0,0.06,0c0.04,0,0.08,0,0.12-0.01
			c1.47-0.14,2.38-1.05,2.48-2.47c0.07-0.76-0.19-1.51-0.7-2.07C29.3,7.2,28.64,6.91,27.88,6.91z"/>
		<path class="st2" d="M43.66,6.9c-0.66,0-1.28,0.27-1.75,0.76c-0.51,0.54-0.79,1.29-0.75,2.05c0.06,1.44,0.91,2.35,2.4,2.55
			c0.05,0.01,0.11,0.01,0.16,0.01c0.01,0,0.01,0,0.02,0c0.79-0.01,1.53-0.34,2.05-0.9c0.49-0.53,0.73-1.22,0.68-1.93
			C46.33,7.93,45.34,7,43.66,6.9z"/>
	</g>
	<path class="st2" d="M52.75,43.88c-1.29-0.9-2.59-1.35-3.87-1.35c-1.16,0-2.33,0.37-3.49,1.11c0.6-2.8-0.13-5.06-2.22-6.87
		c2.83-0.31,4.75-1.72,5.84-4.26c1.21,2.73,3.21,4.07,6.09,4.07c0.01,0,0.01,0,0.02,0c-0.14,0.15-0.27,0.29-0.41,0.43
		c-0.86,0.91-1.67,1.76-2,2.8c-0.33,1.06-0.19,2.22-0.04,3.45C52.71,43.47,52.73,43.67,52.75,43.88z"/>
</g>
</svg>
