<?xml version="1.0" encoding="utf-8"?>
<!-- Generator: Adobe Illustrator 24.3.0, SVG Export Plug-In . SVG Version: 6.00 Build 0)  -->
<svg version="1.1" id="Layer_1" xmlns="http://www.w3.org/2000/svg" xmlns:xlink="http://www.w3.org/1999/xlink" x="0px" y="0px"
	 width="103.9px" height="114px" viewBox="0 0 103.9 114" style="enable-background:new 0 0 103.9 114;" xml:space="preserve">
<style type="text/css">
	.st0{fill:#00B0FB;}
	.st1{fill:#00B0FB;fill-opacity:0.4;}
	.st2{fill:#FFFFFF;}
	.st3{fill:none;}
	.st4{fill:#001135;}
	.st5{fill:#3C7CFF;}
	.st6{fill:#3C7CFF;stroke:#001135;stroke-width:0.7602;stroke-miterlimit:10;}
</style>
<g>
	<path class="st4" d="M74.4,58.8c-14.2,0-25.8,11.6-25.8,25.8s11.6,25.8,25.8,25.8s25.8-11.6,25.8-25.8S88.6,58.8,74.4,58.8z
		 M87.1,97.4l-2.7,6.3c-0.3,0.7-1,1.1-1.7,1.1c-0.3,0-0.5-0.1-0.7-0.2c-0.9-0.4-1.4-1.5-0.9-2.4c0,0,0,0,0,0l0.4-0.8
		c-1.6,0.7-3.3,1.1-5,1.3c-0.6,0.1-1.3,0.1-1.9,0.1c-4.2,0-8.1-1.4-11.4-4.1c-3.8-3.1-6.1-7.4-6.7-12.2c-0.3-3,0.1-6,1.3-8.8
		c0.4-0.9,1.5-1.4,2.4-1c0,0,0,0,0,0c0.9,0.4,1.4,1.5,1,2.4c-0.9,2.2-1.3,4.6-1,7c0.4,3.9,2.3,7.3,5.3,9.8c3,2.4,6.8,3.6,10.7,3.2
		c1.6-0.2,3.2-0.6,4.6-1.3l-2.2-0.4c-1-0.2-1.7-1.1-1.5-2.1c0.2-1,1.1-1.7,2.1-1.5c0,0,0,0,0,0l6.7,1.2c0.6,0.1,1,0.4,1.3,0.9
		C87.3,96.3,87.3,96.9,87.1,97.4z M91.3,91.2c-0.3,0.7-1,1.2-1.7,1.2c-1,0-1.8-0.8-1.8-1.8c0-0.2,0-0.5,0.1-0.7
		c0.9-2.2,1.2-4.5,0.9-6.9c-0.4-3.9-2.3-7.3-5.3-9.8c-3-2.4-6.8-3.6-10.7-3.2c-1.5,0.2-3,0.6-4.4,1.2l2,0.3c1,0.2,1.7,1.1,1.5,2.1
		c-0.2,1-1.1,1.7-2.1,1.5l-6.7-1.2c-1-0.2-1.7-1.1-1.5-2.1c0-0.1,0.1-0.3,0.1-0.4l2.7-6.3c0.4-0.9,1.5-1.4,2.4-0.9
		c0.9,0.4,1.4,1.5,0.9,2.4c0,0,0,0,0,0l-0.4,1c1.6-0.7,3.3-1.1,5.1-1.3c4.8-0.5,9.6,0.9,13.4,4c3.8,3.1,6.1,7.4,6.7,12.2
		C92.8,85.5,92.4,88.5,91.3,91.2z"/>
	<path class="st5" d="M46,76.8c-2,0.1-4.1,0.2-6.2,0.2c-10.3,0-20-1.3-27.4-3.6c-3.7-1.2-6.7-2.6-8.7-4.1v18.4
		c0,4.3,13.7,10.2,36.1,10.2c2.7,0,5.5-0.1,8.2-0.3c-1.9-3.9-3-8.3-3-13C44.9,81.9,45.3,79.3,46,76.8z"/>
	<path class="st5" d="M39.8,48.7c22.4,0,36.1-6,36.1-10.2V20.1c-2.1,1.6-5,3-8.7,4.1c-7.3,2.3-17.1,3.6-27.4,3.6
		c-10.3,0-20-1.3-27.4-3.6c-3.7-1.2-6.7-2.6-8.7-4.1v18.4C3.7,42.7,17.4,48.7,39.8,48.7z"/>
	<path class="st2" d="M39.8,73.3c2.5,0,5-0.1,7.5-0.2c4.5-10.5,15-17.9,27.1-17.9c0.5,0,1,0,1.5,0V44.6c-2.1,1.6-5,3-8.7,4.1
		c-7.3,2.3-17.1,3.6-27.4,3.6c-10.3,0-20-1.3-27.4-3.6c-3.7-1.2-6.7-2.6-8.7-4.1V63C3.7,67.3,17.4,73.3,39.8,73.3z"/>
	<ellipse class="st2" cx="39.8" cy="13.9" rx="36.1" ry="10.2"/>
	<path class="st5" d="M85.9,70.4c-3.8-3.1-8.5-4.5-13.4-4c-1.7,0.2-3.5,0.6-5.1,1.3l0.4-1c0,0,0,0,0,0c0.4-0.9,0-2-0.9-2.4
		c-0.9-0.4-2,0-2.4,0.9l-2.7,6.3c-0.1,0.1-0.1,0.3-0.1,0.4c-0.2,1,0.5,2,1.5,2.1l6.7,1.2c1,0.2,2-0.5,2.1-1.5c0.2-1-0.5-2-1.5-2.1
		l-2-0.3c1.4-0.6,2.9-1,4.4-1.2c3.9-0.4,7.6,0.7,10.7,3.2c3,2.4,4.9,5.9,5.3,9.8c0.2,2.4-0.1,4.7-0.9,6.9c-0.1,0.2-0.1,0.4-0.1,0.7
		c0,1,0.8,1.8,1.8,1.8c0.8,0,1.4-0.5,1.7-1.2c1.1-2.7,1.5-5.7,1.2-8.6C92,77.8,89.6,73.5,85.9,70.4z"/>
	<path class="st5" d="M85.7,94.9L79,93.7c0,0,0,0,0,0c-1-0.2-1.9,0.5-2.1,1.5c-0.2,1,0.5,1.9,1.5,2.1l2.2,0.4
		c-1.5,0.7-3,1.1-4.6,1.3c-3.9,0.4-7.6-0.7-10.7-3.2c-3-2.4-4.9-5.9-5.3-9.8c-0.3-2.4,0.1-4.8,1-7c0.4-0.9-0.1-2-1-2.4c0,0,0,0,0,0
		c-0.9-0.4-2,0.1-2.4,1c-1.1,2.8-1.6,5.8-1.3,8.8c0.5,4.8,2.9,9.2,6.7,12.2c3.3,2.6,7.3,4.1,11.4,4.1c0.6,0,1.3,0,1.9-0.1
		c1.7-0.2,3.4-0.6,5-1.3l-0.4,0.8c0,0,0,0,0,0c-0.4,0.9,0,2,0.9,2.4c0.2,0.1,0.5,0.2,0.7,0.2c0.7,0,1.4-0.4,1.7-1.1l2.7-6.3
		c0.2-0.5,0.2-1.1-0.1-1.6C86.7,95.3,86.3,95,85.7,94.9z"/>
	<path class="st4" d="M79.6,55.5V13.9c0-4.2-4.3-7.7-12.4-10.3C59.8,1.3,50.1,0,39.8,0c-10.3,0-20,1.3-27.4,3.6
		C4.3,6.2,0,9.8,0,13.9v73.6c0,4.2,4.3,7.7,12.4,10.3c7.3,2.3,17.1,3.6,27.4,3.6c3.5,0,6.9-0.1,10.2-0.4c5.3,7.8,14.3,13,24.4,13
		c16.2,0,29.5-13.2,29.5-29.5C103.9,70.1,93.4,58,79.6,55.5z M39.8,3.7c22.4,0,36.1,6,36.1,10.2c0,4.3-13.7,10.2-36.1,10.2
		s-36.1-6-36.1-10.2C3.7,9.6,17.4,3.7,39.8,3.7z M3.7,20.1c2.1,1.6,5,3,8.7,4.1c7.3,2.3,17.1,3.6,27.4,3.6c10.3,0,20-1.3,27.4-3.6
		c3.7-1.2,6.7-2.6,8.7-4.1v18.4c0,4.3-13.7,10.2-36.1,10.2s-36.1-6-36.1-10.2V20.1z M3.7,44.6c2.1,1.6,5,3,8.7,4.1
		c7.3,2.3,17.1,3.6,27.4,3.6c10.3,0,20-1.3,27.4-3.6c3.7-1.2,6.7-2.6,8.7-4.1v10.5c-0.5,0-1,0-1.5,0c-12.1,0-22.6,7.4-27.1,17.9
		c-2.5,0.2-5,0.2-7.5,0.2c-22.4,0-36.1-6-36.1-10.2V44.6z M39.8,97.8c-22.4,0-36.1-6-36.1-10.2V69.2c2.1,1.6,5,3,8.7,4.1
		c7.3,2.3,17.1,3.6,27.4,3.6c2.1,0,4.2-0.1,6.2-0.2c-0.7,2.5-1,5.1-1,7.8c0,4.7,1.1,9.1,3,13C45.2,97.7,42.5,97.8,39.8,97.8z
		 M74.4,110.3c-14.2,0-25.8-11.6-25.8-25.8s11.6-25.8,25.8-25.8s25.8,11.6,25.8,25.8S88.6,110.3,74.4,110.3z"/>
</g>
</svg>
