<?xml version="1.0" encoding="utf-8"?>
<!-- Generator: Adobe Illustrator 25.0.0, SVG Export Plug-In . SVG Version: 6.00 Build 0)  -->
<svg version="1.1" id="Layer_1" xmlns="http://www.w3.org/2000/svg" xmlns:xlink="http://www.w3.org/1999/xlink" x="0px" y="0px"
	 viewBox="0 0 156.16 167.4" style="enable-background:new 0 0 156.16 167.4;" xml:space="preserve">
<style type="text/css">
	.st0{fill:#001135;}
	.st1{fill:#FFFFFF;}
	.st2{fill:#3C7CFF;}
	.st3{fill:#185AE9;}
	.st4{fill:#00B0FB;}
	.st5{fill-rule:evenodd;clip-rule:evenodd;fill:#00B0FB;}
	.st6{fill:#061639;}
	.st7{fill:#1429FF;}
	.st8{fill:#663398;}
	.st9{fill:#FEFEFE;}
	.st10{fill:#8DB849;}
	.st11{fill:#5A863E;}
	.st12{fill:#FFFFFE;}
	.st13{fill-rule:evenodd;clip-rule:evenodd;fill:#7FC728;}
	.st14{fill:#B3B3B3;}
	.st15{fill:#A6120D;}
	.st16{fill:#DD1B16;}
	.st17{fill:#F2F2F2;}
	.st18{fill:#8F9ED1;}
	.st19{fill:#030303;}
	.st20{fill:#0E0E0D;}
	.st21{fill:#8F8F90;}
	.st22{fill:#DBDBDB;}
	.st23{fill:#FDFDFD;}
	.st24{fill:#FDFCFD;}
	.st25{fill:#010101;}
	.st26{fill:#FCB415;}
	.st27{opacity:0.2;fill:#FFFFFF;enable-background:new    ;}
	.st28{fill:#68B345;}
	.st29{fill:#0A99D6;}
	.st30{opacity:0.1;fill:#010101;enable-background:new    ;}
	.st31{fill:#EE3325;}
	.st32{fill:url(#SVGID_1_);}
	.st33{fill:#FF2D20;}
	.st34{clip-path:url(#SVGID_2_);fill:#F9C638;}
	.st35{fill:#2A2D2C;}
	.st36{fill:#F9C638;}
	.st37{fill:#833CF7;}
	.st38{fill:none;}
	.st39{fill:#0A0A0A;}
	.st40{fill:#050505;}
	.st41{fill:#2A2A2A;}
	.st42{fill:#000100;}
	.st43{fill:#FBFBFB;}
	.st44{fill:#070707;}
	.st45{fill:#080808;}
	.st46{fill:#F7F7F7;}
	.st47{fill:#0B0B0B;}
	.st48{fill:#F1F0F1;}
	.st49{fill:#F4F4F4;}
	.st50{fill:#0C0C0C;}
	.st51{fill:#ECECEC;}
	.st52{fill:#252525;}
	.st53{fill:#D5D5D5;}
	.st54{fill:#3F3F3F;}
	.st55{fill:#818181;}
	.st56{fill:#A2A2A2;}
	.st57{fill:#040404;}
	.st58{fill:#151515;}
	.st59{fill:#343434;}
	.st60{fill:#4B4B4B;}
	.st61{fill:#0D0D0D;}
	.st62{fill:#00D8FF;}
	.st63{fill:#4DBA87;}
	.st64{fill:#425466;}
	.st65{fill:url(#SVGID_3_);}
	.st66{fill:url(#SVGID_4_);}
	.st67{fill:#14559A;}
	.st68{fill:url(#SVGID_6_);}
	.st69{fill:#3092C4;}
	.st70{fill:#1969BC;}
	.st71{fill:url(#SVGID_7_);}
	.st72{fill:url(#SVGID_8_);}
	.st73{fill:url(#SVGID_9_);}
	.st74{fill:#2B74B1;}
	.st75{fill:#125A9E;}
	.st76{fill:url(#SVGID_10_);}
	.st77{fill:url(#SVGID_11_);}
	.st78{fill:#0D82CA;}
	.st79{fill:url(#SVGID_12_);}
	.st80{fill:#127BCA;}
	.st81{fill:url(#SVGID_13_);}
	.st82{fill:url(#SVGID_14_);}
	.st83{fill:#05A1E6;}
	.st84{fill:url(#SVGID_15_);}
	.st85{fill:url(#SVGID_16_);}
	.st86{fill:url(#SVGID_17_);}
	.st87{fill:#079AE1;}
	.st88{fill:#1E5CB3;}
	.st89{fill:#1D60B5;}
	.st90{fill:#175FAB;}
	.st91{fill:url(#SVGID_18_);}
	.st92{fill:#7DCBEC;}
	.st93{fill:#5EC5ED;}
	.st94{fill:url(#SVGID_19_);}
	.st95{fill:url(#SVGID_20_);}
	.st96{fill:url(#SVGID_21_);}
	.st97{fill:#6EB341;}
	.st98{fill:#F6F6F6;}
	.st99{fill:#060606;}
	.st100{fill:#101010;}
</style>
<g>
	<path class="st4" d="M152.89,116.83c-0.03-0.74,0.01-1.47,0.09-2.2c-0.41-0.18-0.81-0.38-1.19-0.6c0.02,0.12,0.05,0.23,0.06,0.35
		c0.25,2.46-0.77,4.91-2.81,6.72c-5.04,4.48-10.2,8.99-15.19,13.34c-2.22,1.95-4.45,3.89-6.68,5.84c-1.73,1.52-3.47,3.04-5.21,4.55
		c-4.47,3.91-9.09,7.94-13.6,11.97c-3.3,2.95-7.17,4.39-11.84,4.39l-1.82-0.01c-5.53-0.03-11.07-0.06-16.61-0.06
		c-5.5,0-10.35,0.03-14.83,0.09c-0.25,0-0.51,0.01-0.77,0.01c-5.99,0-11.83-0.91-17.83-2.77c-1.09-0.34-2.18-0.7-3.28-1.05
		c-5.25-1.71-10.68-3.47-16.39-3.47c-1.72,0-3.36,0.15-5.01,0.47c-0.02,0-0.04,0.01-0.06,0.01c-0.07,0-0.14-0.03-0.19-0.07
		c-0.07-0.06-0.11-0.14-0.11-0.23c0-1.21,0-2.39,0-3.58H17.6c0.1,0.65,0.17,1.31,0.2,1.98c0.06,1.43-0.11,2.81-0.45,4.15
		c1.04,0.33,2.06,0.78,3.02,1.39c0.1,0.05,0.2,0.1,0.29,0.15c0.04,0.02,0.08,0.05,0.12,0.08c0.17,0.12,0.33,0.26,0.5,0.38
		c1.11-0.12,2.23-0.21,3.35-0.21c5.25,0,10.18,1.36,14.73,2.83l1.85,0.6c5.23,1.73,10.64,3.51,16.32,3.51h0.52
		c7.66,0,15.33,0.01,22.99,0.01c5.7,0,11.39,0,17.08-0.01c4.49-0.01,8.82-1.65,12.21-4.6c12.39-10.81,27.02-23.6,41.61-36.45
		c0.76-0.67,1.41-1.42,1.96-2.22C153.33,120.44,152.97,118.67,152.89,116.83z"/>
	<path class="st4" d="M78.36,60.71c0,0.5-0.41,0.9-0.9,0.9h-10.1c-0.5,0-0.9-0.4-0.9-0.9v-7.09c0-0.49,0.4-0.9,0.9-0.9h10.1
		c0.49,0,0.9,0.41,0.9,0.9V60.71z M78.38,48.3c0,0.5-0.4,0.9-0.9,0.9H67.39c-0.49,0-0.9-0.4-0.9-0.9v-7c0-0.5,0.41-0.9,0.9-0.9
		h10.09c0.5,0,0.9,0.4,0.9,0.9V48.3z M93.62,60.67c0,0.49-0.4,0.9-0.89,0.9H82.64c-0.5,0-0.9-0.41-0.9-0.9v-7.03
		c0-0.5,0.4-0.9,0.9-0.9h10.09c0.49,0,0.89,0.4,0.89,0.9V60.67z M93.66,48.31c0,0.5-0.4,0.9-0.9,0.9h-10.1c-0.5,0-0.9-0.4-0.9-0.9
		v-7.03c0-0.49,0.4-0.9,0.9-0.9h10.1c0.5,0,0.9,0.41,0.9,0.9V48.31z"/>
	<path class="st4" d="M90.72,52.74H80.64c-0.5,0-0.9,0.4-0.9,0.9v7.03c0,0.5,0.4,0.9,0.9,0.9h10.09c0.5,0,0.9-0.4,0.9-0.9v-7.03
		C91.62,53.14,91.22,52.74,90.72,52.74z"/>
	<path class="st4" d="M90.76,40.38h-10.1c-0.5,0-0.9,0.4-0.9,0.9v7.03c0,0.5,0.4,0.9,0.9,0.9h10.1c0.5,0,0.9-0.4,0.9-0.9v-7.03
		C91.66,40.79,91.26,40.38,90.76,40.38z"/>
	<path class="st4" d="M65.44,81.44c-0.15,0-0.27,0.11-0.3,0.25c-0.02,0.15-0.05,0.29-0.08,0.42c-0.06,0.32-0.12,0.6-0.12,0.89
		l-0.01,4.19c-0.01,8.16-0.03,16.6,0.07,24.9c0.01,0.98,0.91,2.16,1.75,2.76c4.27,3.08,8.94,3.49,12.95,3.49
		c1.29,0,2.6-0.05,3.87-0.09c1.27-0.04,2.58-0.09,3.86-0.09c1.19,0,2.24,0.04,3.21,0.12c0.01,0,0.02,0,0.03,0
		c0.07,0,0.15-0.03,0.2-0.08c0.06-0.06,0.1-0.14,0.1-0.22V81.74c0-0.17-0.13-0.3-0.3-0.3H65.44z"/>
	<path class="st4" d="M50.74,80.91H40.01c-0.5,0-0.9,0.4-0.9,0.9v14.91c0,0.5,0.4,0.9,0.9,0.9h10.73c0.5,0,0.9-0.4,0.9-0.9V81.81
		C51.64,81.32,51.24,80.91,50.74,80.91z"/>
	<path class="st4" d="M75.48,40.4H65.39c-0.5,0-0.9,0.4-0.9,0.9v7.01c0,0.5,0.4,0.9,0.9,0.9h10.09c0.5,0,0.9-0.4,0.9-0.9V41.3
		C76.38,40.8,75.98,40.4,75.48,40.4z"/>
	<path class="st4" d="M75.46,52.72h-10.1c-0.5,0-0.9,0.4-0.9,0.9v7.09c0,0.5,0.4,0.9,0.9,0.9h10.1c0.5,0,0.9-0.4,0.9-0.9v-7.09
		C76.36,53.13,75.95,52.72,75.46,52.72z"/>
	<path class="st4" d="M106,97.65h10.55c0.5,0,0.9-0.4,0.9-0.9v-15c0-0.5-0.4-0.9-0.9-0.9H106c-0.5,0-0.9,0.4-0.9,0.9v15
		C105.11,97.25,105.51,97.65,106,97.65z"/>
	<path class="st4" d="M14.61,116.9H4.68c-0.16,0-0.29,0.12-0.3,0.28l-0.04,0.45c-0.04,0.47-0.09,1.01-0.09,1.53
		c-0.01,2.39-0.01,4.78-0.01,7.16l0,3.11c0,0.01,0,0.09,0,0.1l0.02,33.18c0,0.17,0.13,0.3,0.3,0.3h10.04c0.17,0,0.3-0.13,0.3-0.3
		V117.2C14.91,117.03,14.77,116.9,14.61,116.9z"/>
	<path class="st4" d="M113.38,15.67c-0.17,0-0.3,0.13-0.3,0.3c0,0.79,0,1.57-0.01,2.34c-0.01,2.11-0.02,4.11,0.04,6.13
		c0.01,0.66,0.5,1.41,0.95,1.79c2.39,1.92,4.8,3.79,7.35,5.78l3.14,2.44c0.05,0.04,0.12,0.06,0.18,0.06c0.04,0,0.09-0.01,0.13-0.03
		c0.1-0.05,0.17-0.15,0.17-0.27V15.97c0-0.17-0.13-0.3-0.3-0.3H113.38z"/>
	<path class="st4" d="M109.45,10.92h19.46c0.17,0,0.3-0.13,0.3-0.3V5.7c0-0.17-0.13-0.3-0.3-0.3h-19.46c-0.17,0-0.3,0.13-0.3,0.3
		v4.92C109.15,10.78,109.29,10.92,109.45,10.92z"/>
	<path class="st4" d="M67.57,19.26c2.71-2.1,5.51-4.27,8.2-6.48c0.83-0.68,1.55-0.99,2.26-0.99c0.73,0,1.49,0.34,2.4,1.06
		C98,26.66,115.89,40.66,133.19,54.2l6.91,5.41l0.45,0.36c0.35,0.28,0.7,0.56,1.06,0.82c0.83,0.6,1.63,0.9,2.37,0.9
		c0.87,0,1.62-0.41,2.25-1.23c1.11-1.45,0.77-2.9-1.01-4.3c-6.25-4.91-12.49-9.82-18.75-14.71L81.05,5.9
		c-1.4-1.1-2.17-1.59-2.99-1.59c-0.88,0-1.74,0.62-2.94,1.56c-8.13,6.37-16.27,12.73-24.4,19.11l-0.31,0.24
		c-0.15,0.12-0.3,0.23-0.45,0.36c-0.18,0.15-0.36,0.28-0.55,0.41c-4.85,3.79-13.28,10.4-20.14,15.77l-10.16,7.96
		c-2.66,2.09-5.32,4.18-7.99,6.24c-0.8,0.62-1.73,1.46-1.85,2.54c-0.08,0.67,0.16,1.37,0.72,2.07c0.63,0.79,1.35,1.19,2.14,1.19
		c0.77,0,1.61-0.38,2.63-1.18l49.37-38.66C65.28,21.03,66.42,20.15,67.57,19.26z"/>
	<path d="M153.47,109.62c-2.26-2.65-5.38-4.1-8.79-4.1c-2.89,0-5.68,1.03-8.09,2.99c-1.62,1.32-3.24,2.65-5.26,4.32
		c-0.06,0.05-0.12,0.07-0.19,0.07c-0.05,0-0.09-0.01-0.13-0.03c-0.11-0.05-0.17-0.15-0.17-0.27V89.31c0-6.16,0.01-16.54,0-18.77
		l-0.01-0.11l0.01-1.98v-9.93c0-0.11,0.06-0.22,0.17-0.27c0.04-0.02,0.08-0.03,0.13-0.03c0.06,0,0.13,0.02,0.18,0.06
		c0.95,0.74,1.85,1.45,2.71,2.12c1.76,1.39,3.42,2.69,5.09,3.92c1.37,1.02,2.98,1.55,4.66,1.55c3.7,0,6.76-2.53,7.28-6.01
		c0.42-2.74-0.61-5.1-3.04-7l-1.33-1.03c-5.04-3.94-10.26-8.02-15.35-12.08c-0.37-0.3-1.6-1.37-1.62-2.41
		c-0.09-5.48-0.08-11.05-0.07-16.44v-4.7c0-0.14,0.09-0.26,0.23-0.29c3.81-1,3.81-1,3.81-4.75l0.01-2.05c0-1.7,0.01-3.41-0.02-5.1
		c-0.03-2.32-0.73-3.03-2.97-3.04c-3-0.01-6-0.02-8.99-0.02l-7.23,0.01c-2.3,0-4.61-0.01-6.92-0.01c-2.01,0-2.9,0.9-2.9,2.92v7.16
		c0,3.81,0.14,3.99,3.81,4.79c0.13,0.03,0.23,0.16,0.23,0.3v5.2c0,0.11-0.06,0.22-0.16,0.27c-0.04,0.02-0.09,0.03-0.14,0.03
		c-0.06,0-0.12-0.02-0.17-0.06c-0.33-0.23-0.62-0.44-0.89-0.63c-0.45-0.32-0.84-0.59-1.22-0.89c-2.72-2.12-5.43-4.25-8.14-6.37
		c-4.92-3.85-9.84-7.7-14.77-11.54C81.37,0.7,79.68,0,78.04,0c-1.61,0-3.27,0.68-5.07,2.07c-3.49,2.7-6.96,5.44-10.44,8.17
		l-6.87,5.4c-2.26,1.77-4.51,3.54-6.8,5.31c-0.29,0.18-0.55,0.37-0.78,0.57c-0.02,0.03-0.06,0.06-9.78,7.69l-0.96,0.75
		c-9.45,7.4-18.9,14.8-28.34,22.21c-0.7,0.54-1.37,1.07-1.94,1.69c-2.71,2.97-2.78,7.08-0.16,9.98c1.34,1.49,3.18,2.31,5.18,2.31
		c1.55,0,3.07-0.49,4.39-1.44c1.27-0.89,2.5-1.89,3.7-2.86c0.7-0.56,1.4-1.13,2.11-1.68c0.47-0.37,0.96-0.7,1.49-1.06
		c0.27-0.19,0.55-0.38,0.85-0.59c0.05-0.03,0.11-0.05,0.17-0.05c0.05,0,0.1,0.01,0.14,0.03c0.1,0.05,0.16,0.16,0.16,0.27v59
		c0,0.16-0.13,0.3-0.3,0.3h-4.88c-0.16,0-0.29-0.12-0.3-0.28c-0.02-0.26-0.04-0.49-0.07-0.7c-0.03-0.32-0.06-0.6-0.06-0.89
		c-0.09-3.4-0.4-3.72-3.7-3.73c-2.03,0-4.05-0.01-6.08-0.01c-2.03,0-4.05,0.01-6.08,0.01c-3.38,0.01-3.61,0.26-3.61,3.73v4.08
		C0,124.41,0,128.54,0.02,132.67c0,0.22,0,0.44-0.01,0.67c-0.01,0.43-0.02,0.87,0.02,1.3c0.01,9.2,0.01,25.04,0,30.28
		c0,0.83,0.2,1.45,0.6,1.85c0.4,0.41,1.04,0.62,1.9,0.62c0.41,0,0.87-0.05,1.38-0.14c2.11-0.38,4.14-0.58,6.03-0.58
		c1.8,0,3.54,0.18,5.17,0.52c0.63,0.14,1.21,0.21,1.71,0.21c1.79,0,2.66-0.86,2.67-2.63v-3.63c0-0.14,0.1-0.27,0.25-0.29
		c1.6-0.27,3.25-0.4,4.9-0.4c5.25,0,10.18,1.36,14.73,2.83l1.85,0.6c5.23,1.73,10.64,3.51,16.32,3.51h0.52
		c7.66,0,15.33,0.01,22.99,0.01c5.7,0,11.39,0,17.08-0.01c4.49-0.01,8.82-1.65,12.21-4.6c12.39-10.81,27.02-23.6,41.61-36.45
		C156.9,121.98,157.58,114.47,153.47,109.62z M14.91,162.71c0,0.16-0.14,0.3-0.3,0.3H4.57c-0.17,0-0.3-0.14-0.3-0.3l-0.02-33.18
		c0-0.01,0-0.1,0-0.1v-3.11c0-2.39,0-4.78,0.01-7.16c0-0.53,0.04-1.06,0.09-1.53l0.04-0.45c0.01-0.16,0.14-0.28,0.3-0.28h9.92
		c0.16,0,0.3,0.13,0.3,0.3V162.71z M109.16,5.7c0-0.17,0.13-0.3,0.3-0.3h19.46c0.17,0,0.3,0.13,0.3,0.3v4.92
		c0,0.16-0.13,0.3-0.3,0.3h-19.46c-0.17,0-0.3-0.14-0.3-0.3V5.7z M125.04,15.97v18.25c0,0.11-0.07,0.22-0.17,0.27
		c-0.04,0.02-0.09,0.03-0.13,0.03c-0.07,0-0.14-0.02-0.19-0.07l-3.14-2.44c-2.54-1.98-4.95-3.86-7.35-5.78
		c-0.44-0.37-0.93-1.13-0.94-1.78c-0.07-2.02-0.06-4.02-0.05-6.13c0.01-0.77,0.01-1.55,0.01-2.35c0-0.16,0.13-0.3,0.3-0.3h11.36
		C124.9,15.67,125.04,15.81,125.04,15.97z M14.77,60.58c-1.03,0.81-1.86,1.18-2.64,1.18c-0.78,0-1.5-0.4-2.13-1.19
		c-0.56-0.7-0.81-1.4-0.72-2.07c0.12-1.08,1.05-1.92,1.85-2.54c2.68-2.07,5.34-4.16,7.99-6.24l10.16-7.97
		c6.85-5.37,15.28-11.99,20.14-15.77c0.18-0.13,0.37-0.26,0.55-0.41c0.14-0.12,0.29-0.24,0.44-0.35l0.31-0.25
		c8.13-6.37,16.27-12.74,24.4-19.11c1.2-0.94,2.06-1.55,2.94-1.55c0.82,0,1.58,0.49,2.99,1.59l45.42,35.56
		c6.26,4.9,12.51,9.81,18.76,14.71c1.78,1.4,2.12,2.85,1.01,4.3c-0.63,0.81-1.38,1.22-2.25,1.22c-0.74,0-1.53-0.3-2.37-0.9
		c-0.37-0.26-0.71-0.54-1.06-0.82l-0.46-0.36l-6.91-5.41C115.89,40.66,98,26.66,80.43,12.84c-0.91-0.72-1.68-1.05-2.41-1.05
		c-0.71,0-1.43,0.31-2.25,0.99c-2.69,2.21-5.49,4.38-8.2,6.48c-1.14,0.89-2.29,1.77-3.43,2.66L14.77,60.58z M126.54,85.63v7.75
		c0.01,7.17,0.01,14.34-0.02,21.51c-0.02,1.31-0.27,2.19-0.75,2.6c-2.89,2.52-5.81,4.94-8.89,7.5c-1.03,0.86-2.08,1.72-3.13,2.6
		c-0.06,0.04-0.12,0.07-0.19,0.07c-0.03,0-0.06,0-0.09-0.01c-0.09-0.03-0.17-0.1-0.2-0.2c-2.12-6.42-6.45-9.28-14.05-9.28
		c-1.07,0-2.21,0.05-3.5,0.16h-0.03c-0.07,0-0.15-0.03-0.2-0.08c-0.06-0.06-0.1-0.14-0.1-0.22v-14.52c0.01-7.69,0.01-15.37,0-23.06
		c0-2.97-0.48-3.46-3.47-3.46c-4.61,0-9.22-0.01-13.83-0.01s-9.22,0.01-13.84,0.01c-2.98,0-3.5,0.52-3.5,3.45
		c-0.01,4.65-0.01,9.3-0.01,13.96v13.96c0,0.56-0.04,1.13-0.07,1.74c-0.02,0.29-0.04,0.59-0.05,0.91c-0.01,0.1-0.05,0.18-0.13,0.24
		c-0.05,0.03-0.11,0.05-0.17,0.05c-0.03,0-0.07-0.01-0.1-0.02c-3.81-1.27-7.51-1.92-10.97-1.92c-6.95,0-13.17,2.48-19.03,7.6
		c-0.06,0.05-0.13,0.08-0.2,0.08c-0.04,0-0.08-0.01-0.11-0.02c-0.11-0.05-0.18-0.14-0.19-0.26c-0.03-0.28-0.05-0.51-0.07-0.7
		c-0.04-0.36-0.06-0.6-0.06-0.84l-0.01-5.51c-0.01-17.51-0.02-35.61,0.07-53.42c0-1.07,0.86-2.41,1.69-3.08
		c8.39-6.67,16.97-13.39,25.27-19.88l3.59-2.81c5.84-4.58,11.69-9.14,17.54-13.7l0.09-0.07c0.06-0.05,0.12-0.07,0.19-0.07
		c0.06,0,0.12,0.02,0.17,0.05l0.43,0.29c0.19,0.13,0.35,0.23,0.51,0.35c3.95,3.09,7.88,6.2,11.82,9.3
		c8.67,6.84,17.63,13.91,26.58,20.68c5.66,4.29,8.98,11.02,8.87,18c-0.02,1.36,0.02,2.75,0.06,4.09c0.04,1.23,0.08,2.45,0.07,3.67
		c0,0.07,0.01,0.32,0.01,0.32C126.53,77.33,126.54,83.61,126.54,85.63z M90.98,81.74v36.25c0,0.09-0.04,0.17-0.1,0.22
		c-0.05,0.06-0.13,0.08-0.2,0.08h-0.03c-0.96-0.08-2.01-0.12-3.21-0.12c-1.28,0-2.59,0.05-3.86,0.09c-1.27,0.05-2.58,0.09-3.87,0.09
		c-4.01,0-8.68-0.41-12.95-3.49c-0.84-0.61-1.74-1.78-1.75-2.77c-0.09-8.3-0.08-16.74-0.07-24.9L64.95,83
		c0-0.29,0.05-0.57,0.12-0.89c0.02-0.13,0.05-0.27,0.07-0.42c0.03-0.14,0.15-0.25,0.3-0.25h25.24
		C90.84,81.44,90.98,81.58,90.98,81.74z M149.04,123.1c-5.04,4.48-10.2,8.99-15.19,13.34c-2.22,1.95-4.45,3.89-6.68,5.84
		c-1.73,1.52-3.47,3.04-5.21,4.55c-4.47,3.91-9.09,7.94-13.6,11.97c-3.3,2.95-7.17,4.39-11.84,4.39l-1.82-0.01
		c-5.53-0.03-11.07-0.06-16.61-0.06c-5.5,0-10.35,0.03-14.83,0.09c-0.25,0-0.51,0.01-0.77,0.01c-5.99,0-11.83-0.91-17.83-2.77
		c-1.09-0.34-2.18-0.7-3.28-1.05c-5.25-1.71-10.68-3.47-16.39-3.47c-1.72,0-3.36,0.15-5.01,0.47c-0.02,0-0.04,0.01-0.06,0.01
		c-0.07,0-0.14-0.03-0.19-0.07c-0.07-0.06-0.11-0.14-0.11-0.23c0-11.4,0-22.17,0.03-32.79c0.01-0.16,0.12-0.29,0.27-0.3
		c0.92-0.1,1.83-0.17,2.72-0.25c2.19-0.17,4.25-0.34,6.27-0.82c1.82-0.44,3.79-1.43,5.55-2.78c4.7-3.62,10.01-5.54,15.37-5.54
		c4.9,0,9.79,1.62,14.16,4.69c4.08,2.86,8.49,4.26,13.48,4.26h0.18c4.12-0.03,8.24-0.05,12.37-0.05c4.12,0,7.87,0.02,11.47,0.06
		c2.67,0.03,4.98,1.23,6.34,3.28c1.4,2.12,1.6,4.79,0.54,7.35c-1.21,2.9-3.53,4.31-7.14,4.31H89.28c-5.64,0-11.27,0-16.91,0.02
		c-0.23,0-0.48-0.01-0.73-0.02c-0.24-0.01-0.49-0.01-0.73-0.01c-1.64,0-2.62,0.35-2.85,2.18c-0.07,0.59,0.03,1.01,0.31,1.32
		c0.54,0.61,1.84,0.89,4.1,0.89c2.78,0,5.57-0.01,8.35-0.01c2.79-0.01,5.57-0.02,8.36-0.02c3.57,0,7.14,0.01,10.71,0.06h0.27
		c5.75,0,9.78-2.35,12.32-7.17c0.3-0.56,0.77-1.11,1.45-1.69c7.8-6.54,16.64-13.96,25.24-21.1c1.8-1.49,3.61-2.24,5.39-2.24
		c1.19,0,2.38,0.34,3.53,1c2.15,1.25,3.53,3.3,3.76,5.64C152.1,118.84,151.08,121.29,149.04,123.1z"/>
	<path d="M92.12,36.97c-4.69-0.01-9.37-0.02-14.06-0.02c-4.68,0-9.36,0.01-14.05,0.02c-2.27,0-2.67,0.39-2.68,2.62
		c-0.03,7.23-0.02,14.46-0.01,21.69l0.01,0.95c0.01,2.34,0.23,2.55,2.65,2.56c1.99,0.02,3.99,0.02,5.99,0.02l8.06-0.01l8.19,0.01
		c2.04,0,4.07,0,6.1-0.02c2.22-0.02,2.43-0.23,2.44-2.51c0.01-7.55,0.01-15.09,0-22.64C94.75,37.35,94.38,36.98,92.12,36.97z
		 M76.36,60.71c0,0.5-0.41,0.9-0.9,0.9h-10.1c-0.5,0-0.9-0.4-0.9-0.9v-7.09c0-0.49,0.4-0.9,0.9-0.9h10.1c0.49,0,0.9,0.41,0.9,0.9
		V60.71z M76.38,48.3c0,0.5-0.4,0.9-0.9,0.9H65.39c-0.49,0-0.9-0.4-0.9-0.9v-7c0-0.5,0.41-0.9,0.9-0.9h10.09c0.5,0,0.9,0.4,0.9,0.9
		V48.3z M91.62,60.67c0,0.49-0.4,0.9-0.89,0.9H80.64c-0.5,0-0.9-0.41-0.9-0.9v-7.03c0-0.5,0.4-0.9,0.9-0.9h10.09
		c0.49,0,0.89,0.4,0.89,0.9V60.67z M91.66,48.31c0,0.5-0.4,0.9-0.9,0.9h-10.1c-0.5,0-0.9-0.4-0.9-0.9v-7.03c0-0.49,0.4-0.9,0.9-0.9
		h10.1c0.5,0,0.9,0.41,0.9,0.9V48.31z"/>
	<path d="M54.86,79.78c0-0.83-0.15-1.39-0.48-1.72c-0.33-0.34-0.93-0.5-1.82-0.5c-2,0.01-4.01,0.01-6.01,0.01
		c-2.7,0-5.4-0.01-8.09-0.01h-0.22c-0.85,0-1.43,0.16-1.77,0.51c-0.33,0.34-0.49,0.91-0.48,1.74c0.04,2.17,0.03,4.34,0.02,6.51
		L36,89.1l0.01,3.18c0,2.12,0.01,4.24-0.01,6.37c-0.01,0.88,0.15,1.48,0.5,1.84c0.33,0.33,0.89,0.49,1.71,0.49
		c2.42-0.01,4.84-0.01,7.26-0.01s4.84,0,7.25,0.01h0.04c0.77,0,1.3-0.15,1.61-0.48c0.32-0.33,0.47-0.88,0.47-1.67v-2.81
		C54.83,90.71,54.81,85.23,54.86,79.78z M51.64,96.73c0,0.49-0.4,0.9-0.9,0.9H40.01c-0.49,0-0.9-0.41-0.9-0.9V81.81
		c0-0.49,0.41-0.9,0.9-0.9h10.73c0.5,0,0.9,0.41,0.9,0.9V96.73z"/>
	<path d="M120.73,79.72c0-1.56-0.59-2.14-2.18-2.14h-14.52c-0.84,0-1.41,0.17-1.76,0.52c-0.34,0.36-0.5,0.95-0.49,1.8
		c0.05,2.12,0.04,4.34,0.03,6.29c-0.01,0.93-0.02,5.16-0.02,5.16c0,2.37-0.01,4.75,0.03,7.15c0.02,2.01,0.5,2.47,2.55,2.48
		l2.15,0.01l6.91-0.01c1.67,0,3.33,0,4.99,0.02h0.08c0.83,0,1.41-0.17,1.74-0.51c0.33-0.33,0.49-0.89,0.49-1.72
		C120.71,92.45,120.71,86.04,120.73,79.72z M117.46,96.75c0,0.5-0.41,0.9-0.9,0.9h-10.55c-0.5,0-0.9-0.4-0.9-0.9V81.76
		c0-0.5,0.4-0.9,0.9-0.9h10.55c0.49,0,0.9,0.4,0.9,0.9V96.75z"/>
</g>
</svg>
