<?xml version="1.0" encoding="utf-8"?>
<!-- Generator: Adobe Illustrator 24.3.0, SVG Export Plug-In . SVG Version: 6.00 Build 0)  -->
<svg version="1.1" id="Layer_1" xmlns="http://www.w3.org/2000/svg" xmlns:xlink="http://www.w3.org/1999/xlink" x="0px" y="0px"
	 width="123.4px" height="123.4px" viewBox="0 0 123.4 123.4" style="enable-background:new 0 0 123.4 123.4;" xml:space="preserve"
	>
<style type="text/css">
	.st0{fill:#185AE9;}
	.st1{fill:#00B0FB;}
	.st2{fill:#00B0FB;fill-opacity:0.4;}
	.st3{fill:#FFFFFF;}
</style>
<g>
	<path class="st1" d="M122.6,115.3c-0.1-1.3,0-2.7,0.3-4h-1.7v5.2c0,2.1-1.7,3.9-3.9,3.9H35.6c-2.1,0-3.9-1.7-3.9-3.9v-5.2h-1
		c0,1.4-0.2,2.8-0.5,4.2c0.1,1.2,0.1,2.3,0,3.5c0.9,2.1,3,3.5,5.5,3.5h81.8c2.3,0,4.3-1.3,5.3-3.2
		C122.5,117.9,122.5,116.6,122.6,115.3z"/>
	<path class="st1" d="M28.2,39.4h19.6c0.4,0,0.8-0.2,1-0.5c0.3-0.3,0.4-0.7,0.3-1.1C48,27.7,40.5,19.4,30.4,17.4c0,0-0.1,0-0.1,0
		c-0.5-0.1-1.2-0.2-2-0.3l-0.2,0c-0.3,0-0.7,0.1-0.9,0.3c-0.3,0.3-0.5,0.6-0.5,1v19.6C26.8,38.8,27.4,39.4,28.2,39.4z"/>
	<path class="st2" d="M64.2,77.6c-2.1,0-3.9,1.7-3.9,3.9c0,1,0.4,2,1.1,2.7c0.7,0.7,1.7,1.1,2.7,1.1c1,0,2-0.4,2.7-1.1
		c0.7-0.7,1.1-1.7,1.1-2.7C68,79.3,66.3,77.6,64.2,77.6z"/>
	<path class="st2" d="M45.4,97.3c-2.1,0-3.9,1.7-3.9,3.9s1.7,3.9,3.9,3.9c2.1,0,3.9-1.7,3.9-3.9c0-1-0.4-2-1.1-2.7
		C47.4,97.7,46.5,97.3,45.4,97.3z"/>
	<path class="st2" d="M81.4,97.3c-1,0-2,0.4-2.7,1.1c-0.7,0.7-1.1,1.7-1.1,2.7c0,2.1,1.7,3.9,3.9,3.9c2.1,0,3.9-1.7,3.9-3.9
		S83.5,97.3,81.4,97.3z"/>
	<path class="st1" d="M48.8,42.1c-0.2-0.3-0.6-0.5-1-0.5h-22c-0.6,0-1.1-0.5-1.1-1.1V18.5c0-0.4-0.2-0.8-0.5-1.1
		c-0.3-0.2-0.6-0.3-0.9-0.3h-0.1c-12,1.3-21,11.4-21,23.5c0,13,10.6,23.6,23.6,23.6c1.6,0,3.2-0.2,4.7-0.5
		c10.1-2,17.6-10.3,18.7-20.5C49.2,42.7,49.1,42.3,48.8,42.1z M25.7,56.4c-8.8,0-15.9-7.1-15.9-15.8c0-0.1,0-0.2,0-0.3
		c0-0.1,0-0.1,0.1-0.1c0-0.1,0.1-0.2,0.2-0.3c0,0,0-0.1,0.1-0.1c0.1-0.1,0.2-0.1,0.3-0.2c0.1-0.1,0.3-0.1,0.4-0.1
		c0.1,0,0.3,0,0.4,0.1c0.1,0,0.2,0.1,0.3,0.2c0,0,0.1,0.1,0.1,0.1c0.1,0.1,0.1,0.2,0.2,0.3c0,0,0,0.1,0.1,0.1c0,0.1,0,0.2,0,0.3
		c0,0.2,0,0.5,0,0.7c0,0.2,0,0.3,0,0.5c0,0.1,0,0.3,0,0.4c0,0.2,0.1,0.5,0.1,0.7c0,0.1,0,0.2,0.1,0.4c0,0.2,0.1,0.4,0.1,0.6
		c0,0.1,0.1,0.2,0.1,0.3c0,0.2,0.1,0.3,0.1,0.5c0.1,0.4,0.3,0.8,0.5,1.2c0.4,0.8,0.8,1.6,1.3,2.3c0.2,0.4,0.5,0.7,0.8,1.1
		c0.3,0.3,0.6,0.7,0.9,1c0.1,0.1,0.2,0.2,0.2,0.2c0.1,0.1,0.2,0.2,0.3,0.3c0.1,0.1,0.2,0.2,0.3,0.3c0.2,0.2,0.5,0.4,0.7,0.6
		c0.5,0.4,1,0.7,1.6,1c0.1,0.1,0.2,0.1,0.4,0.2c0.2,0.1,0.3,0.2,0.5,0.2c0.2,0.1,0.3,0.1,0.5,0.2c0.2,0.1,0.3,0.1,0.5,0.2
		c0.5,0.2,1,0.3,1.6,0.5c0.1,0,0.3,0.1,0.4,0.1c0.2,0,0.4,0.1,0.6,0.1c0.2,0,0.4,0.1,0.7,0.1c0.4,0.1,0.9,0.1,1.3,0.1
		c0.6,0,1.1,0.5,1.1,1.1C26.8,55.9,26.3,56.4,25.7,56.4z"/>
	<path class="st2" d="M106.8,67.7c-2.1,0-3.9,1.7-3.9,3.9c0,2.1,1.7,3.9,3.9,3.9c2.1,0,3.9-1.7,3.9-3.9
		C110.7,69.4,108.9,67.7,106.8,67.7z"/>
	<path class="st2" d="M100.1,24.7h16.2c0.6,0,1.1-0.3,1.3-0.9c0.2-0.5,0.1-1.1-0.3-1.5L101.1,6c-0.3-0.3-0.6-0.4-1-0.4
		c-0.2,0-0.4,0-0.5,0.1c-0.5,0.2-0.9,0.7-0.9,1.3v16.2C98.7,24,99.4,24.7,100.1,24.7z"/>
	<path class="st3" d="M61.3,40.5c0,0.6-0.5,1.1-1.1,1.1c-0.6,0-1.1-0.5-1.1-1.1c0-0.6,0.5-1.1,1.1-1.1
		C60.8,39.4,61.3,39.9,61.3,40.5z"/>
	<path class="st3" d="M61.3,50.4c0,0.6-0.5,1.1-1.1,1.1c-0.6,0-1.1-0.5-1.1-1.1s0.5-1.1,1.1-1.1C60.8,49.3,61.3,49.8,61.3,50.4z"/>
	<path class="st3" d="M88.9,15.9c0,0.6-0.5,1.1-1.1,1.1H61.7c-0.6,0-1.1-0.5-1.1-1.1c0-0.6,0.5-1.1,1.1-1.1h26.1
		C88.4,14.8,88.9,15.3,88.9,15.9z"/>
	<path class="st3" d="M88.9,25.7c0,0.6-0.5,1.1-1.1,1.1H61.7c-0.6,0-1.1-0.5-1.1-1.1c0-0.6,0.5-1.1,1.1-1.1h26.1
		C88.4,24.7,88.9,25.1,88.9,25.7z"/>
	<path class="st3" d="M25.7,54.2c-7.6,0-13.7-6.2-13.7-13.7c0-0.6-0.5-1.1-1.1-1.1s-1.1,0.5-1.1,1.1c0,8.7,7.1,15.9,15.9,15.9
		c0.6,0,1.1-0.5,1.1-1.1C26.8,54.7,26.3,54.2,25.7,54.2z"/>
	<path class="st3" d="M123.4,25.6l0-0.1l0-0.1l0-0.1c0,0-0.1-0.2-0.1-0.2l0-0.1L98.4,0.3c0,0,0,0-0.1-0.1c0,0-0.1,0-0.1-0.1
		c0,0-0.1,0-0.1-0.1c0,0,0,0,0,0l-0.2,0c0,0-0.2,0-0.2,0H35.6c-3.3,0-6,2.7-6,6v7.5c0,0.4-0.2,0.8-0.5,1c-0.3,0.2-0.6,0.4-0.9,0.4
		H28c-0.8-0.1-1.5-0.1-2.3-0.1C11.5,14.8,0,26.3,0,40.5c0,14.2,11.5,25.7,25.7,25.7c0.8,0,1.6,0,2.3-0.1h0.1c0.3,0,0.7,0.1,0.9,0.4
		c0.3,0.3,0.5,0.6,0.5,1v49.9c0,3.3,2.7,6,6,6h81.8c3.3,0,6-2.7,6-6L123.4,25.6z M98.8,7c0-0.6,0.3-1.1,0.9-1.3
		c0.2-0.1,0.3-0.1,0.5-0.1h0c0.1,0,0.2,0,0.3,0c0.1,0,0.1,0,0.2,0.1c0.1,0,0.2,0.1,0.3,0.1c0.1,0,0.1,0.1,0.2,0.2v0l16.2,16.2
		c0.1,0.1,0.1,0.1,0.2,0.2v0c0,0.1,0.1,0.1,0.1,0.2c0,0,0,0,0,0.1c0,0,0,0,0,0c0,0.1,0,0.1,0,0.2c0,0.1,0,0.2,0,0.2
		c0,0.2,0,0.4-0.1,0.6v0c0,0.1-0.1,0.2-0.2,0.3c0,0.1-0.1,0.2-0.2,0.2c0,0-0.1,0.1-0.1,0.1c-0.1,0.1-0.2,0.1-0.4,0.2
		c-0.1,0-0.3,0.1-0.4,0.1h-16.2c-0.4,0-0.7-0.2-1-0.4c-0.2-0.2-0.4-0.6-0.4-1V7z M31.7,6c0-2.1,1.7-3.9,3.9-3.9h59.7
		c0.8,0,1.4,0.6,1.4,1.4v22.2c0,0.6,0.5,1.1,1.1,1.1h22.2c0.8,0,1.4,0.6,1.4,1.4v89.2c0,2.1-1.7,3.9-3.9,3.9H35.6
		c-2.1,0-3.9-1.7-3.9-3.9V66.6c0-0.6,0.4-1.2,1-1.3c11-3.1,18.7-13.3,18.7-24.7c0-11.5-7.7-21.6-18.7-24.8c-0.6-0.2-1-0.7-1-1.4V6z
		 M26.8,18.5c0-0.4,0.2-0.8,0.5-1v0c0.2-0.2,0.6-0.3,0.9-0.3h0.2c0.4,0.1,0.8,0.1,1.1,0.2c0.2,0,0.3,0.1,0.5,0.1
		c0.1,0,0.3,0,0.4,0.1c0,0,0.1,0,0.1,0c0,0,0,0,0,0c0.3,0.1,0.6,0.1,0.9,0.2h0c0.3,0.1,0.6,0.2,0.9,0.2c0.3,0.1,0.6,0.2,0.9,0.3
		c0.3,0.1,0.6,0.2,0.9,0.3h0c0.3,0.1,0.6,0.2,0.9,0.4c0.3,0.1,0.5,0.2,0.8,0.4c0.1,0,0.2,0.1,0.3,0.1c0,0,0,0,0,0
		c0.1,0,0.2,0.1,0.4,0.2c0.3,0.2,0.7,0.4,1,0.6c1.1,0.6,2.1,1.3,3,2.1c0.3,0.2,0.5,0.4,0.8,0.7c0.1,0.1,0.3,0.2,0.4,0.4l0,0
		c0,0,0,0,0,0c0.3,0.2,0.5,0.5,0.8,0.8c0.5,0.5,0.9,0.9,1.3,1.4c0.2,0.2,0.4,0.5,0.6,0.8c0.2,0.2,0.4,0.5,0.6,0.8
		c0.2,0.3,0.4,0.5,0.5,0.8c0.2,0.3,0.4,0.6,0.5,0.8c0.5,0.9,1,1.8,1.4,2.8c0.1,0.2,0.2,0.4,0.2,0.6c0,0,0,0,0,0c0,0,0,0.1,0,0.1
		c0,0,0,0,0,0c0,0,0,0,0,0.1c0,0.2,0.1,0.3,0.2,0.4c0.1,0.2,0.2,0.5,0.2,0.7c0.1,0.2,0.2,0.4,0.2,0.7c0,0.2,0.1,0.3,0.1,0.5
		c0,0.1,0,0.1,0,0.2c0,0.2,0.1,0.3,0.1,0.5c0.1,0.3,0.1,0.6,0.2,0.9c0.1,0.6,0.2,1.2,0.3,1.9v0c0,0.3,0,0.6-0.1,0.8
		c-0.1,0.1-0.1,0.2-0.2,0.3c-0.1,0.1-0.1,0.1-0.2,0.2c-0.1,0-0.1,0.1-0.2,0.1c0,0-0.1,0-0.1,0c0,0-0.1,0-0.1,0
		c-0.1,0-0.3,0.1-0.4,0.1H28.2c-0.4,0-0.7-0.1-1-0.4c-0.2-0.2-0.4-0.6-0.4-1V18.5z M25.7,64.1c-13,0-23.6-10.6-23.6-23.6
		c0-12,9-22.1,21-23.5h0.1c0.3,0,0.7,0.1,0.9,0.3c0.3,0.3,0.5,0.7,0.5,1.1v22.1c0,0.6,0.5,1.1,1.1,1.1h22c0.4,0,0.8,0.2,1,0.5
		c0.3,0.3,0.4,0.7,0.3,1.1C48,53.3,40.5,61.6,30.4,63.6C28.9,63.9,27.3,64.1,25.7,64.1z"/>
	<path class="st3" d="M106.8,65.6c-3.3,0-6,2.7-6,6c0,1.2,0.4,2.3,1,3.3c0.4,0.5,0.3,1.3-0.1,1.7L84.6,95c-0.3,0.3-0.6,0.4-1,0.4
		c-0.1,0-0.3,0-0.4-0.1c-0.5-0.2-1.1-0.3-1.7-0.3c-0.8,0-1.7,0.2-2.4,0.5c-0.2,0.1-0.4,0.1-0.6,0.1c-0.4,0-0.8-0.2-1.1-0.5l-7.7-9.6
		c-0.4-0.4-0.4-1-0.2-1.5c0.4-0.8,0.7-1.8,0.7-2.8c0-3.3-2.7-6-6-6c-3.3,0-6,2.7-6,6c0,0.9,0.2,1.8,0.6,2.7c0.3,0.5,0.2,1.2-0.2,1.6
		l-9,9.7c-0.3,0.3-0.6,0.5-1,0.5c-0.2,0-0.4,0-0.6-0.1c-0.8-0.4-1.7-0.6-2.5-0.6c-3.3,0-6,2.7-6,6c0,3.3,2.7,6,6,6c3.3,0,6-2.7,6-6
		c0-0.9-0.2-1.8-0.6-2.6c-0.3-0.5-0.2-1.1,0.2-1.6l9-9.8c0.3-0.3,0.6-0.4,1-0.4c0.2,0,0.4,0.1,0.6,0.1c0.8,0.4,1.7,0.5,2.5,0.5
		c0.8,0,1.6-0.2,2.4-0.5c0.2-0.1,0.4-0.1,0.6-0.1c0.4,0,0.8,0.2,1.1,0.5l7.7,9.6c0.3,0.4,0.4,1,0.1,1.5c-0.4,0.8-0.7,1.8-0.7,2.7
		c0,3.3,2.7,6,6,6c3.3,0,6-2.7,6-6c0-1.2-0.4-2.3-1-3.3c-0.4-0.5-0.3-1.2,0.1-1.7l17.1-18.4c0.3-0.3,0.6-0.4,1-0.4
		c0.2,0,0.3,0,0.4,0.1c0.6,0.2,1.2,0.2,1.7,0.2c3.3,0,6-2.7,6-6C112.8,68.3,110.1,65.6,106.8,65.6z M45.4,105c-1.1,0-2-0.4-2.7-1.1
		c-0.7-0.7-1.1-1.7-1.1-2.7c0-0.1,0-0.2,0-0.3c0-0.1,0-0.2,0-0.2c0,0,0-0.1,0-0.1c0-0.1,0-0.2,0.1-0.2c0-0.1,0-0.2,0.1-0.3
		c0.1-0.2,0.1-0.4,0.2-0.6c0-0.1,0.1-0.2,0.1-0.2c0.1-0.1,0.1-0.2,0.2-0.3c0.1-0.2,0.2-0.3,0.4-0.5c0,0,0.1-0.1,0.1-0.1
		c0,0,0.1-0.1,0.1-0.1c0.1-0.1,0.2-0.1,0.2-0.2c0.1-0.1,0.2-0.1,0.2-0.2c0.1-0.1,0.2-0.1,0.3-0.2c0.1,0,0.1-0.1,0.2-0.1
		c0.1,0,0.1-0.1,0.2-0.1c0.1,0,0.1-0.1,0.2-0.1c0.1,0,0.1-0.1,0.2-0.1c0.1,0,0.1,0,0.2,0c0.1,0,0.2,0,0.3,0c0.1,0,0.3,0,0.4,0
		c1,0,2,0.4,2.7,1.1c0.2,0.2,0.3,0.4,0.5,0.6c0.1,0.2,0.3,0.4,0.4,0.7c0,0.1,0.1,0.2,0.1,0.4c0.1,0.2,0.1,0.5,0.2,0.7
		c0,0.1,0,0.2,0,0.4C49.3,103.3,47.5,105,45.4,105z M66.9,84.2c-0.7,0.7-1.7,1.1-2.7,1.1c-0.1,0-0.3,0-0.4,0c-0.2,0-0.5-0.1-0.7-0.2
		c-0.2-0.1-0.3-0.1-0.5-0.2h0c0,0-0.1,0-0.1-0.1c-0.1,0-0.2-0.1-0.2-0.1c-0.1,0-0.2-0.1-0.2-0.1c-0.2-0.1-0.4-0.3-0.6-0.5
		c-0.7-0.7-1.1-1.7-1.1-2.7c0-1.1,0.4-2,1.1-2.7c0.2-0.2,0.4-0.3,0.6-0.5c0.2-0.1,0.4-0.3,0.7-0.4c0.5-0.2,1-0.3,1.5-0.3
		c0.5,0,1,0.1,1.5,0.3c0.2,0.1,0.5,0.2,0.7,0.4c0.2,0.1,0.4,0.3,0.6,0.5c0.7,0.7,1.1,1.7,1.1,2.7C68,82.4,67.6,83.4,66.9,84.2z
		 M81.4,105c-2.1,0-3.9-1.7-3.9-3.9c0-1,0.4-2,1.1-2.7c0.7-0.7,1.7-1.1,2.7-1.1c0.5,0,1,0.1,1.5,0.3c0.2,0.1,0.5,0.2,0.7,0.4
		c0.2,0.1,0.4,0.3,0.6,0.5c0.7,0.7,1.1,1.7,1.1,2.7C85.3,103.3,83.5,105,81.4,105z M106.8,75.4c-2.1,0-3.9-1.7-3.9-3.9
		c0-0.2,0-0.3,0-0.4c0-0.2,0-0.3,0.1-0.5c0,0,0,0,0,0c0-0.1,0.1-0.2,0.1-0.3c0-0.1,0.1-0.3,0.2-0.4c0-0.1,0.1-0.2,0.2-0.3
		c0.1-0.2,0.2-0.3,0.3-0.4c0.1-0.1,0.2-0.2,0.2-0.3c0.1-0.1,0.2-0.2,0.3-0.3c0.2-0.2,0.4-0.3,0.6-0.4c0.2-0.1,0.5-0.2,0.7-0.3
		c0.1,0,0.2-0.1,0.3-0.1c0.2-0.1,0.5-0.1,0.8-0.1c0.4,0,0.8,0.1,1.1,0.2c0.1,0,0.2,0.1,0.3,0.1c0.1,0.1,0.2,0.1,0.4,0.2
		c0.2,0.1,0.4,0.3,0.6,0.4c0.1,0.1,0.2,0.2,0.3,0.3c0.1,0.1,0.2,0.2,0.2,0.3c0.1,0.1,0.2,0.3,0.3,0.4c0.1,0.1,0.1,0.2,0.2,0.3
		c0.1,0.1,0.1,0.2,0.2,0.4c0,0.1,0.1,0.2,0.1,0.3c0,0,0,0,0,0c0,0.2,0.1,0.3,0.1,0.5c0,0.1,0,0.3,0,0.4
		C110.7,73.7,108.9,75.4,106.8,75.4z"/>
	<path class="st3" d="M108.6,40.5c0,0.6-0.5,1.1-1.1,1.1H70.1c-0.6,0-1.1-0.5-1.1-1.1c0-0.6,0.5-1.1,1.1-1.1h37.5
		C108.1,39.4,108.6,39.9,108.6,40.5z"/>
	<path class="st3" d="M108.6,50.4c0,0.6-0.5,1.1-1.1,1.1H70.1c-0.6,0-1.1-0.5-1.1-1.1s0.5-1.1,1.1-1.1h37.5
		C108.1,49.3,108.6,49.8,108.6,50.4z"/>
</g>
</svg>
