<?xml version="1.0" encoding="utf-8"?>
<!-- Generator: Adobe Illustrator 24.3.0, SVG Export Plug-In . SVG Version: 6.00 Build 0)  -->
<svg version="1.1" id="Layer_1" xmlns="http://www.w3.org/2000/svg" xmlns:xlink="http://www.w3.org/1999/xlink" x="0px" y="0px"
	 width="122.2px" height="132.2px" viewBox="0 0 122.2 132.2" style="enable-background:new 0 0 122.2 132.2;" xml:space="preserve"
	>
<style type="text/css">
	.st0{fill:#185AE9;}
	.st1{fill:#00B0FB;}
	.st2{fill:#00B0FB;fill-opacity:0.4;}
	.st3{fill:#FFFFFF;}
</style>
<g>
	<path class="st1" d="M28.5,6.9c0-2.8,1.2-4,4-4c2.2,0,4.4,0,6.6,0l8.9,0l8.9,0c2,0,4.1,0,6.1,0c3,0,4.1,1.1,4.1,4h1.8
		C68.8,2.7,67,1,62.7,1C57.8,1,53,1,48.2,1c-5,0-10.1,0-15.1,0c-2.8,0-4.6,0.7-5.5,2.3v3.6H28.5z"/>
	<path class="st2" d="M105.4,106.3c0.5,0.5,1.3,0.6,1.8,0.6l0.1,0c1.8,0,3.5-0.1,5.3-0.1c1.6,0,3.1,0,4.5,0.1l0.4,0
		c0.7,0,1.6-0.1,2.2-0.7c0.5-0.5,0.7-1.3,0.7-2.5c-0.1-7.1-0.1-14.2-0.1-21.1c0-2.5,0-5,0-7.5l0-7.5c0-7,0-14.3,0-21.4
		c0-1.1-0.2-1.8-0.7-2.2c-0.6-0.6-1.4-0.7-2-0.7l-0.2,0c-1.5,0-3.1,0.1-4.7,0.1c-1.7,0-3.5,0-5.2-0.1l-0.2,0c-0.6,0-1.4,0.1-1.9,0.6
		c-0.4,0.4-0.6,1.1-0.6,2c0,18.1,0,37.1,0,58.3C104.7,104.9,104.8,105.7,105.4,106.3z"/>
	<path class="st2" d="M43.3,55.7c2.6,0,4.6-2,4.6-4.6c0-2.6-2-4.7-4.5-4.7h-0.1c-2.5,0-4.6,2.1-4.6,4.6
		C38.7,53.7,40.7,55.7,43.3,55.7z"/>
	<path class="st2" d="M52.1,97.7c-2.5,0.1-4.6,2.2-4.5,4.7c0,2.5,2.1,4.6,4.6,4.6c1.2,0,2.4-0.5,3.3-1.5c0.9-0.9,1.4-2.2,1.3-3.4
		C56.7,99.7,54.6,97.7,52.1,97.7C52.2,97.7,52.1,97.7,52.1,97.7z"/>
	<path class="st1" d="M93.7,18.5c0-4.9-3-8-7.8-8c-1.3,0-2.6,0-3.9,0l-5.5,0c-1.6,0-3.3,0-5,0c-1.8,0-2.5,0.8-2.6,2.5
		c-0.1,4.4-1.8,6-6.2,6c-4.9,0-9.7,0-14.6,0C43,19,38,19,32.9,19c-4.4,0-6.1-1.6-6.2-6c0-1.7-0.8-2.5-2.5-2.5c-2,0-4,0-6,0l-7.7,0
		c-5.8,0-8.7,2.8-8.7,8.7c0,34.2,0,68.3,0,102.5c0,5.8,2.8,8.7,8.7,8.7h74.6c5.7,0,8.6-2.9,8.6-8.5c0-14.7,0-65.3,0-65.3
		C93.7,43.8,93.7,31.2,93.7,18.5z M87.2,121.3c0,2.6,0,2.6-2.6,2.6H11.1c-2.6,0-2.6,0-2.6-2.5c0,0,0-77.8,0-89.4
		c0-2.4,0-2.4,2.3-2.4h74c2.4,0,2.5,0,2.5,2.5V121.3z"/>
	<path class="st3" d="M84.7,8.6c0,0-6,0-7.3,0c-1.9,0-3.9,0-5.8,0h-0.1c-1.8,0-2.6-0.8-2.6-2.6c-0.1-4.3-1.9-6-6.2-6
		C57.8,0,53,0,48.2,0c-5,0-10.1,0-15.1,0c-4.5,0-6.3,1.7-6.4,6.1c0,1.7-0.8,2.5-2.6,2.5c-2.1,0-4.1,0-6.2,0c-1.3,0-7,0-7.3,0
		C3.8,8.6,0,12.4,0,19.2c0,34.2,0,68.3,0,102.5c0,6.7,3.8,10.5,10.5,10.5h74.8c6.5,0,10.3-3.8,10.3-10.4c0-12.2,0-102.5,0-102.5
		C95.6,12.2,91.9,8.6,84.7,8.6z M28.5,10.2c0-1.4,0-2.9,0-4.3c0-2.8,1.2-4,4-4.1c2.2,0,4.4,0,6.6,0l8.9,0l8.9,0c2,0,4.1,0,6.1,0
		C66,1.9,67,2.9,67,6c0,1,0,2,0,3v0.2c0,1.4,0,2.8,0,4.2c0,1.2-0.3,2.1-0.9,2.8c-0.6,0.7-1.6,1-2.7,1c-5.1,0-10.2,0-15.2,0
		c-5.3,0-10.7,0-16,0c-2.3,0-3.7-1.4-3.7-3.8V10.2z M93.7,121.8c0,5.7-2.9,8.5-8.6,8.5H10.5c-5.8,0-8.7-2.9-8.7-8.7
		c0-34.2,0-68.4,0-102.5c0-5.8,2.8-8.7,8.7-8.7l7.7,0c2,0,3.9,0,6,0c1.7,0,2.5,0.8,2.5,2.5c0.1,4.4,1.8,6,6.2,6c5.1,0,10.2,0,15.2,0
		c4.9,0,9.7,0,14.6,0c4.4,0,6.1-1.6,6.2-6c0-1.8,0.8-2.5,2.6-2.5c1.7,0,3.3,0,5,0l5.5,0c1.3,0,2.6,0,3.9,0c4.8,0,7.8,3.1,7.8,8
		c0,12.7,0,25.4,0,38C93.7,56.5,93.7,107.2,93.7,121.8z"/>
	<path class="st3" d="M121.5,41c-1.7-3.4-3.4-6.8-5.1-10.2l-2.7-5.3c-0.4-0.8-0.6-1.1-1.2-1.2c-0.6,0-0.8,0.3-1.3,1.4l-1.4,2.8
		c-2.1,4.2-4.2,8.3-6.3,12.5c-0.5,0.9-0.7,1.6-0.7,2.4c0,8.4,0,29.5,0,29.5c0,14.6,0,29.2,0,43.8c0,3.3,2,5.3,5.4,5.4c1,0,2,0,3.1,0
		c0.9,0,4.6,0,4.6,0c4.4,0,6.2-1.8,6.2-6.2V70.7c0-8.8,0-17.7,0-26.5C122.2,42.9,122,41.9,121.5,41z M106.6,39
		c1.2-2.4,2.4-4.8,3.7-7.4l1.4-2.8c0.2-0.3,0.5-0.5,0.8-0.5c0.3,0,0.7,0.2,0.8,0.5l1.8,3.6c1.1,2.3,2.2,4.5,3.3,6.6
		c0.2,0.5,0.5,1.2,0.1,1.8c-0.4,0.6-1.1,0.7-1.8,0.7c-1.6,0-3.2,0-4.7,0c-1.3,0-2.7,0-4,0c-0.3,0-1.2,0-1.6-0.7
		C106.1,40.2,106.3,39.5,106.6,39z M104.7,46c0-0.9,0.2-1.6,0.6-2c0.5-0.5,1.3-0.6,1.9-0.6h0.2c1.7,0,3.5,0.1,5.2,0.1
		c1.7,0,3.2,0,4.7-0.1h0.2c0.6,0,1.4,0.1,2,0.7c0.5,0.5,0.7,1.2,0.7,2.2c-0.1,7.2-0.1,14.4,0,21.4v7.5c0,2.5,0,5,0,7.5
		c0,6.9,0,14,0.1,21.1c0,1.2-0.2,2-0.7,2.5c-0.6,0.6-1.5,0.7-2.2,0.7h-0.4c-1.4-0.1-2.8-0.1-4.4-0.1c-1.8,0-3.5,0-5.3,0.1h-0.1
		c-0.5,0-1.3-0.1-1.8-0.6c-0.5-0.6-0.6-1.3-0.6-2C104.8,83.1,104.8,64,104.7,46z M120.4,116c-0.1,0.5-0.1,1.1-0.2,1.6
		c-0.1,1.6-1.4,2.7-3.3,2.7c-1.6,0-3.2,0-4.7,0c-1.3,0-2.7,0-4,0c-2.1,0-3.4-1.3-3.4-3.3c0-0.7,0-1.4,0-2.1v-0.3c0-1.2,0-2.4,0-3.6
		c0-0.7,0.2-1.3,0.5-1.7c0.5-0.5,1.2-0.6,1.7-0.6h0.1c0.8,0,1.6,0,2.4,0h3.2c0,0,0.1,0,0.2,0l0.4,0c0.1,0,0.2,0,0.3,0
		c0.1,0,0.2,0,0.4,0c0.5,0,1-0.1,1.6-0.1c0.6-0.1,1.2-0.1,1.8-0.1c0.8,0,1.9,0.1,2.5,1.1C120.9,111.4,120.6,113.7,120.4,116z"/>
	<path class="st3" d="M84.8,29.6h-74c-2.3,0-2.3,0-2.3,2.4c0,11.6,0,89.4,0,89.4c0,2.5,0,2.5,2.6,2.5h73.5c2.6,0,2.6,0,2.6-2.6V32.1
		C87.2,29.7,87.2,29.6,84.8,29.6z M85.4,118.9c0,1-0.1,1.8-0.7,2.4c-0.5,0.5-1.2,0.7-2.3,0.7c-11.5,0-22.9,0-34.3,0
		c-11.5,0-23.1,0-34.6,0.1c-1.2,0-1.9-0.2-2.4-0.7c-0.6-0.6-0.7-1.4-0.7-2.5c0-10.8,0-21.8,0-32.3V66.1c0-9.7,0-20.7,0-31.3
		c0-1.1,0.1-2,0.8-2.6c0.5-0.5,1.3-0.8,2.5-0.8h0c11.5,0,23.1,0.1,34.6,0.1c11.4,0,22.7,0,34.1,0c0.8,0,1.8,0.1,2.4,0.7
		c0.5,0.5,0.7,1.2,0.7,2.4C85.3,61.7,85.3,90.1,85.4,118.9z"/>
	<path class="st3" d="M70.2,59.8c-0.1-2.1-0.3-4.3-0.5-6.4L69.4,50c-0.1-1-0.5-1-0.9-1h-0.1c-3.1,0.2-6.5,0.4-9.7,0.6
		c-0.4,0-0.7,0.1-0.9,0.3c-0.1,0.1-0.2,0.3-0.2,0.7c0,0.4,0.1,0.8,1.1,0.8c0.1,0,0.1,0,0.2,0c1-0.1,2.1-0.1,3.4-0.2
		c0,0,1.7-0.1,1.7-0.1c0.3,0,0.6,0.2,0.8,0.5c0.2,0.3,0.1,0.7-0.1,1L63.5,54c-0.5,0.7-1,1.4-1.5,2c-7.5,10.3-11.1,22.5-10.7,36.2
		c0.1,1.7-0.1,3.5-2.6,4.8c-2.4,1.2-3.5,4.1-2.7,7c0.8,2.8,3.2,4.7,6,4.7l0.2,0c2.7,0,5.2-1.8,6.1-4.4c0.8-2.5,0.3-5.8-2.3-7.1
		c-3-1.5-3.1-3.7-2.9-5.8c0-0.6,0-1.1,0-1.7c0-0.4,0-0.8,0-1.1c0.2-12.4,4.1-23.4,11.5-32.9c0.1-0.1,0.1-0.2,0.2-0.3
		c0.4-0.5,0.9-1.3,2-1.6c0.1,0,0.2,0,0.3,0c0.2,0,0.4,0.1,0.5,0.2c0.2,0.2,0.4,0.4,0.4,0.7c0,0.6,0.1,1.1,0.1,1.7
		c0.1,1.2,0.1,2.4,0.2,3.5c0.1,1.1,0.7,1.1,0.9,1.1c0.1,0,0.1,0,0.2,0C69.8,60.8,70.2,60.7,70.2,59.8z M56.9,102.1
		c0,1.2-0.4,2.4-1.3,3.4c-0.9,0.9-2.1,1.5-3.3,1.5c-2.5,0-4.5-2.1-4.6-4.6c0-2.5,2-4.6,4.5-4.7h0.1C54.6,97.7,56.7,99.7,56.9,102.1z
		"/>
	<path class="st3" d="M46.6,75.4C46.4,75.7,45.8,76,45,76c-3,0-5.9,0-8.9,0H23.3c-0.3,0-0.6,0.2-0.8,0.4c-0.2,0.3-0.2,0.6-0.1,0.9
		c0.5,1,1.1,1.7,1.7,2.2c0.2,0.2,0.4,0.4,0.6,0.6c0.6,0.8,0.4,1.1,0.1,1.4c-0.2,0.2-0.4,0.3-0.6,0.3c-0.3,0-0.6-0.3-0.7-0.4
		c-1.8-1.8-3.6-3.6-5.6-5.6c-0.6-0.6-0.5-1,0.1-1.7c1.8-1.8,3.5-3.5,5.3-5.3c0.2-0.2,0.6-0.5,1-0.5c0.2,0,0.4,0.1,0.6,0.3
		c0.3,0.3,0.6,0.6-0.3,1.6c-0.1,0.2-0.3,0.3-0.5,0.5c-0.5,0.5-1.1,1-1.4,1.9c-0.1,0.4,0,0.8,0.3,1c0.6,0.5,1.2,0.5,1.7,0.5
		c0.2,0,0.4,0,0.6,0c0.2,0,0.3,0,0.5,0c3.4,0,6.9,0,10.3,0h8.9c1,0,1.5,0.1,1.7,0.6C46.7,75,46.7,75.2,46.6,75.4z"/>
	<path class="st3" d="M43.3,44.7c-1.8,0-3.4,0.7-4.6,1.9c-1.2,1.2-1.8,2.9-1.8,4.6c0.1,3.5,2.9,6.3,6.4,6.3h0c1.8,0,3.4-0.7,4.6-1.9
		c1.2-1.2,1.9-2.9,1.8-4.6C49.7,47.5,46.8,44.7,43.3,44.7z M43.3,55.8c-2.6,0-4.6-2.1-4.5-4.6c0-2.5,2.1-4.6,4.6-4.6h0
		c2.5,0,4.5,2.1,4.5,4.7C47.9,53.7,45.8,55.8,43.3,55.8z"/>
	<path class="st3" d="M29.4,107.2c0,0.2-0.1,0.4-0.3,0.6c-0.2,0.2-0.4,0.3-0.6,0.3c-0.2,0-0.6-0.2-0.9-0.6L27,107
		c-0.6-0.6-1.2-1.1-1.7-1.7c-0.3-0.4-0.9-0.9-1.7-0.9c-0.8,0-1.3,0.6-1.7,1c-0.8,0.9-1.7,1.7-2.4,2.4c-0.3,0.3-0.6,0.4-0.8,0.4
		c-0.2,0-0.4-0.1-0.6-0.3c-0.3-0.3-0.5-0.6,0.1-1.4c0.3-0.4,0.7-0.7,1.2-1.1c1-0.8,2-1.7,2.1-3c0-1.4-1.1-2.3-2.1-3.1
		c-0.4-0.3-0.9-0.7-1.1-1c-0.7-0.8-0.4-1.1-0.2-1.4c0.2-0.2,0.4-0.3,0.6-0.3c0.2,0,0.6,0.2,1,0.5c0.3,0.3,0.7,0.7,1,1.1
		c0.8,0.9,1.6,2,2.9,2c0.1,0,0.2,0,0.3,0C25,100,25.9,99,26.7,98c0.3-0.4,0.6-0.8,0.9-1c0.3-0.3,0.5-0.4,0.8-0.4
		c0.1,0,0.3,0,0.5,0.1c0.2,0.1,0.4,0.3,0.4,1c-0.1,0.6-0.8,1.2-1.6,1.8l-0.4,0.3c-1.1,0.9-1.6,1.8-1.6,2.7c0,0.9,0.6,1.7,1.7,2.4
		c0.3,0.2,0.6,0.5,0.9,0.9l0.1,0.1c0.1,0.1,0.2,0.3,0.4,0.4C29.2,106.6,29.4,107,29.4,107.2z"/>
	<path class="st3" d="M29,57.3c-0.2,0.2-0.4,0.3-0.5,0.3c-0.2,0-0.5-0.1-0.8-0.4c-0.2-0.2-0.4-0.4-0.6-0.5l-0.3-0.3
		c-1.5-1.5-2.2-2.2-3.2-2.2c-1,0-1.8,0.8-3.3,2.3L20,56.6c-0.3,0.3-0.5,0.5-0.7,0.7c-0.2,0.2-0.5,0.3-0.7,0.3
		c-0.2,0-0.4-0.1-0.6-0.3c-0.3-0.3-0.5-0.7,0-1.2c0.5-0.6,1-1.1,1.6-1.7c0.4-0.4,0.7-0.7,1-1c0.2-0.2,0.4-0.5,0.6-0.7l0.3-0.3
		c0.3-0.3,0.3-0.8,0-1.1l-0.3-0.3c-0.2-0.3-0.4-0.5-0.6-0.7c-0.3-0.3-0.6-0.6-0.9-0.9c-0.6-0.6-1.2-1.2-1.7-1.7
		c-0.6-0.7-0.1-1.1,0-1.2c0.2-0.2,0.4-0.3,0.6-0.3c0.2,0,0.4,0.1,0.6,0.3c0.9,0.7,1.6,1.5,2.3,2.2c0.4,0.5,1.1,1.2,2,1.2
		c0.7,0,1.3-0.4,2-1.2c0.5-0.7,1.2-1.3,1.9-1.9l0.2-0.2c0.3-0.3,0.6-0.4,0.8-0.4c0.2,0,0.4,0.1,0.6,0.3c0.3,0.3,0.6,0.6-0.2,1.5
		c-0.3,0.3-0.7,0.7-1.1,1c-1,0.8-2.2,1.7-2,3.2c0.1,1.2,1.1,2,2.1,2.9c0.4,0.3,0.8,0.6,1,1C29.7,56.7,29.4,57,29,57.3z"/>
	<path class="st3" d="M77.5,85.6c0.4,0.4,0.6,0.7,0.6,1c0,0.2-0.1,0.4-0.3,0.6c-0.2,0.2-0.4,0.3-0.5,0.3c-0.2,0-0.5-0.1-1-0.6
		c-0.3-0.3-0.6-0.7-0.9-1c-0.8-1-1.7-2.1-3-2.1c-1.3,0-2.2,1.1-3,2.1c-0.3,0.4-0.6,0.8-1,1.1c-0.4,0.4-0.8,0.6-1,0.6
		c-0.1,0-0.3-0.1-0.5-0.3c-0.4-0.4-0.6-0.8,0.2-1.7c0.4-0.4,0.7-0.8,1.1-1.1l0.1-0.1c0,0,0.8-0.8,1.1-1.1l0.1-0.1
		c0.3-0.3,0.7-0.7,1.1-1.5c0.2-0.4,0-0.8-0.3-1.1c-0.2-0.2-0.5-0.4-0.8-0.5c-0.5-0.4-1-0.7-1.5-1.2c-0.2-0.2-0.4-0.4-0.6-0.6
		c-0.5-0.5-1.1-1-1.1-1.4c0-0.2,0.2-0.4,0.4-0.7c0.2-0.2,0.4-0.4,0.6-0.4c0.4,0,0.9,0.6,1.4,1.1c0.2,0.2,0.4,0.4,0.5,0.6
		c1.3,1.3,2,1.9,2.9,1.9c0.9,0,1.6-0.6,2.9-1.9c0.2-0.2,0.4-0.4,0.6-0.6c0.4-0.5,1-1.1,1.3-1.1c0.2,0,0.4,0.1,0.6,0.4
		c0.3,0.2,0.4,0.5,0.4,0.6c0,0.3-0.6,0.9-1,1.3c-0.2,0.2-0.4,0.3-0.6,0.5c-2.7,2.8-2.6,3.3,0.1,6l0.4,0.4
		C77.2,85.3,77.3,85.5,77.5,85.6z"/>
</g>
</svg>
