<?xml version="1.0" encoding="utf-8"?>
<!-- Generator: Adobe Illustrator 24.3.0, SVG Export Plug-In . SVG Version: 6.00 Build 0)  -->
<svg version="1.1" id="Layer_1" xmlns="http://www.w3.org/2000/svg" xmlns:xlink="http://www.w3.org/1999/xlink" x="0px" y="0px"
	 width="132.2px" height="133.2px" viewBox="0 0 132.2 133.2" style="enable-background:new 0 0 132.2 133.2;" xml:space="preserve"
	>
<style type="text/css">
	.st0{fill:#185AE9;}
	.st1{fill:#00B0FB;}
	.st2{fill:#00B0FB;fill-opacity:0.4;}
	.st3{fill:#FFFFFF;}
</style>
<g>
	<path class="st1" d="M14.9,126.7H11c-4.1,0-7.5-3.3-7.5-7.5V64.7c0-0.5,0.4-0.9,0.9-0.9h5.7v-1.9H1v57.4c0,3.7,2,6.9,5,8.6h8.9
		V126.7z"/>
	<path class="st2" d="M80,46.3H10c-4.1,0-7.5,3.3-7.5,7.5v6.6c0,0.5,0.4,0.9,0.9,0.9h83c0.5,0,0.9-0.4,0.9-0.9v-6.6
		C87.4,49.6,84.1,46.3,80,46.3z M14.4,55c-0.7,0-1.3-0.6-1.3-1.3c0-0.7,0.6-1.3,1.3-1.3s1.3,0.6,1.3,1.3C15.7,54.4,15.1,55,14.4,55z
		 M27.5,55c-0.7,0-1.3-0.6-1.3-1.3c0-0.7,0.6-1.3,1.3-1.3s1.3,0.6,1.3,1.3C28.8,54.4,28.2,55,27.5,55z M40.6,55
		c-0.7,0-1.3-0.6-1.3-1.3c0-0.7,0.6-1.3,1.3-1.3c0.7,0,1.3,0.6,1.3,1.3C41.9,54.4,41.3,55,40.6,55z"/>
	<path class="st2" d="M119.3,2.6H49.4c-4.1,0-7.4,3.3-7.5,7.5v6.6c0,0.5,0.4,0.9,0.9,0.9h83c0.5,0,0.9-0.4,0.9-0.9V10
		C126.7,5.9,123.4,2.6,119.3,2.6z M53.7,11.3c-0.7,0-1.3-0.6-1.3-1.3c0-0.7,0.6-1.3,1.3-1.3c0.7,0,1.3,0.6,1.3,1.3
		C55,10.7,54.4,11.3,53.7,11.3z M66.8,11.3c-0.7,0-1.3-0.6-1.3-1.3c0-0.7,0.6-1.3,1.3-1.3c0.7,0,1.3,0.6,1.3,1.3
		C68.1,10.7,67.5,11.3,66.8,11.3z M80,11.3c-0.7,0-1.3-0.6-1.3-1.3c0-0.7,0.6-1.3,1.3-1.3s1.3,0.6,1.3,1.3
		C81.2,10.7,80.7,11.3,80,11.3z"/>
	<path class="st1" d="M95.1,115.7c-0.5,0-0.8,0.1-1.2,0.1c-1,0-2.1-0.1-3.1-0.3c0,0-0.1,0-0.2,0c-0.2,0-0.5,0.1-0.6,0.3l-7.2,7.2
		c-1.7,1.7-4,2.6-6.4,2.6c-2.4,0-4.7-0.9-6.4-2.6c-1.7-1.7-2.6-4-2.6-6.4c0-2.4,0.9-4.7,2.6-6.4l21.5-21.6c1.3-1.3,2.9-2.1,4.7-2.5
		C96.9,86,97.4,86,98,86c4.3,0,8,3.1,8.8,7.3c0.1,0.3,0.3,0.6,0.6,0.7c0.1,0,0.2,0,0.3,0c0.2,0,0.5-0.1,0.6-0.3L111,91
		c0.2-0.2,0.3-0.6,0.2-0.9c-0.7-1.9-1.8-3.7-3.2-5.1c-2.7-2.7-6.2-4.2-10-4.2s-7.3,1.5-10,4.2l-21.6,21.5c-5.5,5.5-5.5,14.5-0.1,20
		c1.4,1.4,3,2.5,4.8,3.2c1.7,0.7,3.5,1,5.3,1c3.8,0,7.3-1.5,10-4.2l9.3-9.3c0.3-0.3,0.3-0.7,0.2-1C95.8,115.9,95.5,115.7,95.1,115.7
		z"/>
	<path class="st2" d="M18.5,87.4h15.3c0.5,0,0.9-0.4,0.9-0.9v-8.7c0-0.5-0.4-0.9-0.9-0.9H18.5c-0.5,0-0.9,0.4-0.9,0.9v8.7
		C17.6,87,18,87.4,18.5,87.4z"/>
	<path class="st1" d="M126.5,68.6c-0.3-0.4-0.6-0.7-1-1.2c-2.7-2.7-6.2-4.2-10-4.2c-3.8,0-7.3,1.5-10,4.2l-9.3,9.3
		c-0.3,0.3-0.3,0.7-0.2,1c0.1,0.3,0.5,0.5,0.8,0.5c0.5,0,0.9,0,1.2,0c1,0,2.1,0.1,3.1,0.3c0,0,0.1,0,0.2,0c0.2,0,0.5-0.1,0.6-0.3
		l7.2-7.2c1.7-1.7,4-2.6,6.4-2.6c2.4,0,4.7,0.9,6.4,2.6c1.7,1.7,2.6,4,2.6,6.4c0,2.4-0.9,4.7-2.6,6.4l-21.5,21.6
		c-1.3,1.3-2.9,2.1-4.6,2.5c-0.6,0.1-1.2,0.2-1.7,0.2c-4.3,0-8-3.1-8.8-7.3c-0.1-0.3-0.3-0.6-0.6-0.7c-0.1,0-0.2,0-0.3,0
		c-0.2,0-0.5,0.1-0.6,0.3l-2.7,2.7c-0.2,0.2-0.3,0.6-0.2,0.9c0.7,1.9,1.8,3.7,3.2,5.1c2.7,2.7,6.2,4.1,10,4.1c3.8,0,7.3-1.5,10-4.1
		l21.6-21.5c3.2-3.2,4.7-7.9,3.9-12.4C129.1,72.7,128.1,70.5,126.5,68.6z"/>
	<path class="st3" d="M116.2,40.4c0,0.3-0.1,0.7-0.4,0.9c-0.2,0.2-0.6,0.4-0.9,0.4c-0.3,0-0.7-0.1-0.9-0.4l-2.9-2.9
		c-0.2-0.2-0.4-0.3-0.6-0.3c-0.1,0-0.2,0-0.3,0.1c-0.3,0.1-0.6,0.5-0.6,0.8v12.2c0,0.7-0.6,1.3-1.3,1.3c-0.7,0-1.3-0.6-1.3-1.3V39.1
		c0-0.4-0.2-0.7-0.6-0.8c-0.1,0-0.2-0.1-0.3-0.1c-0.2,0-0.5,0.1-0.6,0.3l-2.8,2.8c-0.2,0.2-0.5,0.4-0.9,0.4c-0.4,0-0.7-0.1-0.9-0.4
		c-0.5-0.5-0.5-1.3,0-1.8l6.5-6.5c0.2-0.2,0.6-0.4,0.9-0.4c0.3,0,0.7,0.1,0.9,0.4l6.6,6.6C116.1,39.7,116.2,40,116.2,40.4z"/>
	<path class="st3" d="M92.2,31.9c0,0.7-0.6,1.3-1.3,1.3H53.7c-0.7,0-1.3-0.6-1.3-1.3s0.6-1.3,1.3-1.3h37.1
		C91.6,30.6,92.2,31.2,92.2,31.9z"/>
	<path class="st3" d="M53.7,11.3c0.7,0,1.3-0.6,1.3-1.3c0-0.7-0.6-1.3-1.3-1.3c-0.7,0-1.3,0.6-1.3,1.3C52.4,10.7,53,11.3,53.7,11.3z
		"/>
	<path class="st3" d="M66.8,11.3c0.7,0,1.3-0.6,1.3-1.3c0-0.7-0.6-1.3-1.3-1.3c-0.7,0-1.3,0.6-1.3,1.3
		C65.6,10.7,66.1,11.3,66.8,11.3z"/>
	<path class="st3" d="M80,11.3c0.7,0,1.3-0.6,1.3-1.3c0-0.7-0.6-1.3-1.3-1.3c-0.7,0-1.3,0.6-1.3,1.3C78.7,10.7,79.2,11.3,80,11.3z"
		/>
	<path class="st3" d="M14.4,55c0.7,0,1.3-0.6,1.3-1.3c0-0.7-0.6-1.3-1.3-1.3s-1.3,0.6-1.3,1.3C13.1,54.4,13.7,55,14.4,55z"/>
	<path class="st3" d="M27.5,55c0.7,0,1.3-0.6,1.3-1.3c0-0.7-0.6-1.3-1.3-1.3c-0.7,0-1.3,0.6-1.3,1.3C26.2,54.4,26.8,55,27.5,55z"/>
	<path class="st3" d="M40.6,55c0.7,0,1.3-0.6,1.3-1.3c0-0.7-0.6-1.3-1.3-1.3c-0.7,0-1.3,0.6-1.3,1.3C39.3,54.4,39.9,55,40.6,55z"/>
	<path class="st3" d="M129.5,68.3c-0.1-0.2-0.2-0.3-0.2-0.5V10c0-5.5-4.5-10-10-10H49.4c-5.5,0-10,4.5-10,10v32.8
		c0,0.5-0.4,0.9-0.9,0.9H10c-5.5,0-10,4.5-10,10v65.5c0,5.5,4.5,10,10,10h55.5c0.2,0,0.4,0.1,0.6,0.2c3,2.4,6.7,3.7,10.5,3.7
		c4.4,0,8.6-1.7,11.8-4.9l39-39C132.9,83.7,133.8,74.9,129.5,68.3z M41.9,10c0-4.1,3.4-7.5,7.5-7.5h69.9c4.1,0,7.4,3.3,7.4,7.5v6.6
		c0,0.5-0.4,0.9-0.9,0.9h-83c-0.5,0-0.9-0.4-0.9-0.9V10z M2.6,53.7c0-4.1,3.4-7.5,7.5-7.5H80c4.1,0,7.5,3.3,7.5,7.5v6.6
		c0,0.5-0.4,0.9-0.9,0.9h-83c-0.5,0-0.9-0.4-0.9-0.9V53.7z M62.4,126.3c-0.2,0.3-0.5,0.5-0.8,0.5H10c-4.1,0-7.5-3.3-7.5-7.5V64.7
		c0-0.5,0.4-0.9,0.9-0.9h85.2c0.7,0,1.3-0.6,1.3-1.3v-8.7c0-5.5-4.5-10-10-10H42.8c-0.5,0-0.9-0.4-0.9-0.9V21c0-0.5,0.4-0.9,0.9-0.9
		h83c0.5,0,0.9,0.4,0.9,0.9v42.3c0,0.3-0.2,0.7-0.5,0.8c-0.1,0.1-0.3,0.1-0.4,0.1c-0.2,0-0.4-0.1-0.5-0.2c-2.9-2.1-6.3-3.2-9.9-3.2
		c-4.4,0-8.7,1.8-11.8,4.9l-39,39c-5.5,5.6-6.5,14.1-2.3,20.7C62.5,125.6,62.5,126,62.4,126.3z M95.8,117.2l-9.3,9.3
		c-2.7,2.7-6.2,4.2-10,4.2c-1.8,0-3.6-0.3-5.3-1c-1.8-0.7-3.4-1.8-4.8-3.2c-5.5-5.5-5.4-14.5,0.1-20L88,85c2.7-2.7,6.2-4.2,10-4.2
		c3.8,0,7.3,1.5,10,4.2c1.4,1.4,2.5,3.2,3.2,5.1c0.1,0.3,0,0.7-0.2,0.9l-2.7,2.7c-0.2,0.2-0.4,0.3-0.6,0.3c-0.1,0-0.2,0-0.3,0
		c-0.3-0.1-0.5-0.4-0.6-0.7C106,89,102.3,86,98,86c-0.6,0-1.2,0.1-1.7,0.2c-1.8,0.3-3.4,1.2-4.7,2.5l-21.5,21.6
		c-1.7,1.7-2.6,4-2.6,6.4c0,2.4,0.9,4.7,2.6,6.4s4,2.6,6.4,2.6c2.4,0,4.7-0.9,6.4-2.6l7.2-7.2c0.2-0.2,0.4-0.3,0.6-0.3
		c0,0,0.1,0,0.2,0c1,0.2,2.1,0.3,3.1,0.3c0.4,0,0.7,0,1.2-0.1c0.4,0,0.7,0.2,0.8,0.5C96.1,116.5,96,117,95.8,117.2z M105,79.4
		c0-0.3,0-0.6,0.2-0.8l5.7-5.6c1.2-1.2,2.8-1.8,4.5-1.8c1.8,0,3.4,0.7,4.6,2c2.5,2.5,2.4,6.5,0,9l-5.7,5.7c-0.2,0.2-0.4,0.3-0.6,0.3
		c0,0-0.1,0-0.2,0c-0.3,0-0.5-0.2-0.7-0.5c-1.6-3.2-4.2-5.9-7.4-7.4C105.3,79.9,105.1,79.7,105,79.4z M102.6,99.5l-4.1,4.1
		c-1.2,1.2-2.8,1.8-4.5,1.8c-1.8,0-3.4-0.7-4.6-2c-2.5-2.5-2.4-6.5,0-9l4.1-4.1c1.2-1.2,2.8-1.8,4.5-1.8c1.8,0,3.4,0.7,4.6,2
		C105,93,105,97,102.6,99.5z M79,106.5c0.8,1.6,1.8,3.1,3.1,4.3c1.2,1.2,2.7,2.3,4.3,3.1c0.3,0.1,0.4,0.4,0.5,0.7
		c0,0.3,0,0.6-0.2,0.8l-5.7,5.7c-1.2,1.2-2.8,1.8-4.5,1.8c-1.8,0-3.4-0.7-4.6-2c-2.5-2.5-2.4-6.5,0-9l5.7-5.7
		c0.2-0.2,0.4-0.3,0.6-0.3c0,0,0.1,0,0.2,0C78.7,106.1,78.9,106.3,79,106.5z M125.5,87.5L104,109c-2.7,2.7-6.2,4.2-10,4.2
		c-3.8,0-7.3-1.5-10-4.2c-1.4-1.4-2.5-3.2-3.2-5.1c-0.1-0.3,0-0.7,0.2-1l2.7-2.7c0.2-0.2,0.4-0.3,0.6-0.3c0.1,0,0.2,0,0.3,0
		c0.3,0.1,0.6,0.4,0.6,0.7c0.8,4.2,4.5,7.3,8.8,7.3c0.6,0,1.2-0.1,1.7-0.2c1.8-0.3,3.4-1.2,4.6-2.5l21.6-21.6c1.7-1.7,2.6-4,2.6-6.4
		c0-2.4-0.9-4.7-2.6-6.4c-1.7-1.7-4-2.6-6.4-2.6c-2.4,0-4.7,0.9-6.4,2.6l-7.2,7.2c-0.2,0.2-0.4,0.3-0.6,0.3c0,0-0.1,0-0.2,0
		c-1-0.2-2-0.3-3.1-0.3c-0.4,0-0.8,0-1.2,0c-0.3,0-0.7-0.2-0.8-0.5c-0.1-0.3-0.1-0.7,0.2-1l9.3-9.3c2.7-2.7,6.2-4.2,10-4.2
		c3.8,0,7.3,1.5,10,4.2c0.4,0.4,0.8,0.8,1,1.2c1.5,1.9,2.5,4.1,2.9,6.5C130.2,79.6,128.8,84.3,125.5,87.5z"/>
	<path class="st3" d="M36,74.3H16.3c-0.7,0-1.3,0.6-1.3,1.3v13.1c0,0.7,0.6,1.3,1.3,1.3H36c0.7,0,1.3-0.6,1.3-1.3V75.6
		C37.3,74.9,36.7,74.3,36,74.3z M34.7,86.5c0,0.5-0.4,0.9-0.9,0.9H18.5c-0.5,0-0.9-0.4-0.9-0.9v-8.7c0-0.5,0.4-0.9,0.9-0.9h15.3
		c0.5,0,0.9,0.4,0.9,0.9V86.5z"/>
	<path class="st3" d="M52.6,108.4c0,0.7-0.6,1.3-1.3,1.3H21.6c-0.4,0-0.7,0.2-0.8,0.6c-0.1,0.3-0.1,0.7,0.2,1l2.8,2.8
		c0.3,0.2,0.4,0.6,0.4,0.9c0,0.3-0.1,0.7-0.3,0.9c-0.2,0.2-0.6,0.4-0.9,0.4c-0.3,0-0.7-0.1-0.9-0.4l-6.6-6.6c-0.5-0.5-0.5-1.3,0-1.8
		l6.6-6.6c0.2-0.2,0.5-0.4,0.9-0.4c0.4,0,0.7,0.1,0.9,0.4c0.5,0.5,0.5,1.3,0,1.8l-2.8,2.8c-0.3,0.3-0.3,0.6-0.2,1s0.5,0.6,0.8,0.6
		h29.7C52,107.1,52.6,107.7,52.6,108.4z"/>
	<path class="st3" d="M66.7,88.7c0,0.7-0.6,1.3-1.3,1.3H47.9c-0.7,0-1.3-0.6-1.3-1.3c0-0.7,0.6-1.3,1.3-1.3h17.5
		C66.1,87.4,66.7,88,66.7,88.7z"/>
	<path class="st3" d="M79.8,75.6c0,0.7-0.6,1.3-1.3,1.3H47.9c-0.7,0-1.3-0.6-1.3-1.3s0.6-1.3,1.3-1.3h30.6
		C79.2,74.3,79.8,74.9,79.8,75.6z"/>
</g>
</svg>
