<?xml version="1.0" encoding="utf-8"?>
<!-- Generator: Adobe Illustrator 24.3.0, SVG Export Plug-In . SVG Version: 6.00 Build 0)  -->
<svg version="1.1" id="Layer_1" xmlns="http://www.w3.org/2000/svg" xmlns:xlink="http://www.w3.org/1999/xlink" x="0px" y="0px"
	 width="134.6px" height="134.6px" viewBox="0 0 134.6 134.6" style="enable-background:new 0 0 134.6 134.6;" xml:space="preserve"
	>
<style type="text/css">
	.st0{fill:#185AE9;}
	.st1{fill:#00B0FB;}
	.st2{fill:#00B0FB;fill-opacity:0.4;}
	.st3{fill:#FFFFFF;}
</style>
<g>
	<path class="st1" d="M7.8,25.7h4.9v-1.6H5.2v-0.8c-2.5,1-4.2,3.5-4.2,6.3v62.2h10.1V91h-6C4.5,91,4,90.4,4,89.8V29.6
		C4,27.4,5.7,25.7,7.8,25.7z"/>
	<path class="st1" d="M130.4,3H95.2c-3.1,0-5.6,2.5-5.6,5.6V48c0,0.4,0.2,0.8,0.6,1c0.2,0.1,0.4,0.2,0.6,0.2c0.2,0,0.4,0,0.5-0.1
		c1.2-0.6,2.5-0.9,3.8-0.9h35.2c0.7,0,1.2-0.5,1.2-1.2V4.2C131.6,3.5,131.1,3,130.4,3z M117.4,38.8h-13.5c-0.8,0-1.5-0.7-1.5-1.5
		s0.7-1.5,1.5-1.5h13.5c0.8,0,1.5,0.7,1.5,1.5S118.2,38.8,117.4,38.8z M117.4,27h-13.5c-0.8,0-1.5-0.7-1.5-1.5
		c0-0.8,0.7-1.5,1.5-1.5h13.5c0.8,0,1.5,0.7,1.5,1.5C118.8,26.4,118.2,27,117.4,27z M117.4,15.3h-13.5c-0.8,0-1.5-0.7-1.5-1.5
		c0-0.8,0.7-1.5,1.5-1.5h13.5c0.8,0,1.5,0.7,1.5,1.5C118.8,14.6,118.2,15.3,117.4,15.3z"/>
	<path class="st2" d="M25,45.2h-6.4c-0.7,0-1.2,0.5-1.2,1.2v6.4c0,0.7,0.5,1.2,1.2,1.2H25c0.7,0,1.2-0.5,1.2-1.2v-6.4
		C26.2,45.8,25.7,45.2,25,45.2z"/>
	<path class="st2" d="M25,68.8h-6.4c-0.7,0-1.2,0.5-1.2,1.2v6.4c0,0.7,0.5,1.2,1.2,1.2H25c0.7,0,1.2-0.5,1.2-1.2V70
		C26.2,69.3,25.7,68.8,25,68.8z"/>
	<path class="st1" d="M81.1,3H45.9c-0.7,0-1.2,0.5-1.2,1.2V47c0,0.7,0.5,1.2,1.2,1.2h35.3c1.3,0,2.6,0.3,3.8,0.9
		c0.2,0.1,0.4,0.1,0.5,0.1c0.2,0,0.4-0.1,0.6-0.2c0.4-0.2,0.6-0.6,0.6-1V8.5C86.7,5.4,84.2,3,81.1,3z M72.4,38.8H59
		c-0.8,0-1.5-0.7-1.5-1.5s0.7-1.5,1.5-1.5h13.5c0.8,0,1.5,0.7,1.5,1.5S73.2,38.8,72.4,38.8z M72.4,27H59c-0.8,0-1.5-0.7-1.5-1.5
		c0-0.8,0.7-1.5,1.5-1.5h13.5c0.8,0,1.5,0.7,1.5,1.5C73.9,26.4,73.2,27,72.4,27z M72.4,15.3H59c-0.8,0-1.5-0.7-1.5-1.5
		c0-0.8,0.7-1.5,1.5-1.5h13.5c0.8,0,1.5,0.7,1.5,1.5C73.9,14.6,73.2,15.3,72.4,15.3z"/>
	<path class="st2" d="M116.8,94.2c-0.2-0.2-0.5-0.3-0.8-0.3c0,0-0.2,0-0.2,0H4.1c-0.7,0-1.2,0.5-1.2,1.2v7.5c0,2.1,1.7,3.9,3.9,3.9
		h106.5c2.1,0,3.9-1.7,3.9-3.9v-7.5C117.2,94.8,117,94.5,116.8,94.2z M60.4,101c-0.3,0.3-0.7,0.4-1,0.4c-0.4,0-0.8-0.2-1-0.4
		c-0.3-0.3-0.4-0.7-0.4-1c0-0.4,0.2-0.8,0.4-1c0.3-0.3,0.7-0.4,1-0.4c0.4,0,0.8,0.2,1,0.4c0.3,0.3,0.4,0.7,0.4,1
		C60.8,100.3,60.7,100.7,60.4,101z"/>
	<path class="st2" d="M38.3,130c-0.1,0.4-0.1,0.8,0.2,1.1c0.2,0.3,0.6,0.5,1,0.5h41.4c0.4,0,0.8-0.2,1-0.5c0.2-0.3,0.3-0.7,0.2-1.1
		c-1.3-3.7-4.8-6.2-8.7-6.2H47C43.1,123.9,39.6,126.4,38.3,130z"/>
	<path class="st3" d="M59.4,98.5c-0.4,0-0.8,0.2-1,0.4c-0.3,0.3-0.4,0.7-0.4,1s0.2,0.8,0.4,1c0.3,0.3,0.7,0.4,1,0.4
		c0.4,0,0.8-0.2,1-0.4c0.3-0.3,0.4-0.7,0.4-1c0-0.4-0.2-0.8-0.4-1C60.1,98.6,59.8,98.5,59.4,98.5z"/>
	<path class="st3" d="M133.1,0H95.2c-2.4,0-4.5,0.9-6.2,2.7C88.8,2.9,88.5,3,88.2,3s-0.7-0.1-0.9-0.4C85.7,0.9,83.5,0,81.1,0H43.2
		c-0.8,0-1.5,0.7-1.5,1.5v21.3H6.8c-3.8,0-6.8,3.1-6.8,6.8v73.1c0,3.8,3.1,6.8,6.8,6.8h39.9c0.7,0,1.2,0.5,1.2,1.2v9.1
		c0,0.7-0.5,1.2-1.2,1.2c-6.6,0.1-12,5.6-12,12.2c0,0.8,0.7,1.5,1.5,1.5h47.6c0.8,0,1.5-0.7,1.5-1.5c0-6.6-5.4-12-11.9-12.2
		c-0.7,0-1.2-0.5-1.2-1.2v-9.1c0-0.7,0.5-1.2,1.2-1.2h39.9c3.8,0,6.8-3.1,6.8-6.8V62.8c0-0.7,0.5-1.2,1.2-1.2h11.8
		c0.8,0,1.5-0.7,1.5-1.5V1.5C134.6,0.7,133.9,0,133.1,0z M44.7,4.2c0-0.7,0.5-1.2,1.2-1.2h35.2c3.1,0,5.6,2.5,5.6,5.6V48
		c0,0.4-0.2,0.8-0.6,1c-0.2,0.1-0.4,0.2-0.6,0.2c-0.2,0-0.4,0-0.5-0.1c-1.2-0.6-2.5-0.9-3.8-0.9H45.9c-0.7,0-1.2-0.5-1.2-1.2V4.2z
		 M44.7,52.3c0-0.7,0.5-1.2,1.2-1.2h35.2c3.1,0,5.6,2.5,5.6,5.5c0,0.1,0,0.3,0.1,0.4c0.1,0.4,0,0.8-0.2,1.1c-0.2,0.3-0.6,0.5-1,0.5
		H45.9c-0.7,0-1.2-0.5-1.2-1.2V52.3z M73.2,123.9c3.9,0,7.4,2.5,8.7,6.1c0.1,0.4,0.1,0.8-0.1,1.1c-0.2,0.3-0.6,0.5-1,0.5H39.4
		c-0.4,0-0.8-0.2-1-0.5c-0.2-0.3-0.3-0.7-0.1-1.1c1.3-3.7,4.8-6.1,8.7-6.1H73.2z M50.8,119.7v-9.1c0-0.7,0.5-1.2,1.2-1.2h16.1
		c0.7,0,1.2,0.5,1.2,1.2v9.1c0,0.7-0.5,1.2-1.2,1.2H52C51.4,120.9,50.8,120.4,50.8,119.7z M117.2,102.6c0,2.1-1.7,3.9-3.9,3.9H6.8
		c-2.1,0-3.9-1.7-3.9-3.9v-7.5c0-0.7,0.5-1.2,1.2-1.2h111.6c0,0,0.2,0,0.2,0c0.3,0,0.6,0.1,0.8,0.3c0.2,0.2,0.4,0.6,0.4,0.9V102.6z
		 M117.2,89.8c0,0.3-0.2,0.7-0.4,0.9c-0.2,0.2-0.5,0.3-0.8,0.3c0,0-0.2,0-0.2,0H4.1C3.5,91,3,90.4,3,89.8V29.6
		c0-2.1,1.7-3.9,3.9-3.9h34.9v34.4c0,0.8,0.7,1.5,1.5,1.5H116c0.7,0,1.2,0.5,1.2,1.2V89.8z M131.6,57.4c0,0.7-0.5,1.2-1.2,1.2H90.7
		c-0.4,0-0.7-0.2-1-0.5c-0.2-0.3-0.3-0.7-0.2-1.1c0-0.1,0.1-0.3,0.1-0.4c0-3.1,2.5-5.5,5.6-5.5h35.2c0.7,0,1.2,0.5,1.2,1.2V57.4z
		 M131.6,47c0,0.7-0.5,1.2-1.2,1.2H95.2c-1.3,0-2.6,0.3-3.8,0.9c-0.2,0.1-0.4,0.1-0.5,0.1c-0.2,0-0.4-0.1-0.6-0.2
		c-0.3-0.2-0.6-0.6-0.6-1V8.5c0-3.1,2.5-5.6,5.6-5.6h35.2c0.7,0,1.2,0.5,1.2,1.2V47z"/>
	<path class="st3" d="M117.4,12.3h-13.5c-0.8,0-1.5,0.7-1.5,1.5s0.7,1.5,1.5,1.5h13.5c0.8,0,1.5-0.7,1.5-1.5S118.2,12.3,117.4,12.3z
		"/>
	<path class="st3" d="M59,38.8h13.5c0.8,0,1.5-0.7,1.5-1.5s-0.7-1.5-1.5-1.5H59c-0.8,0-1.5,0.7-1.5,1.5S58.1,38.8,59,38.8z"/>
	<path class="st3" d="M27.7,65.8H15.9c-0.8,0-1.5,0.7-1.5,1.5v11.8c0,0.8,0.7,1.5,1.5,1.5h11.8c0.8,0,1.5-0.7,1.5-1.5V67.3
		C29.2,66.5,28.5,65.8,27.7,65.8z M26.2,76.4c0,0.7-0.5,1.2-1.2,1.2h-6.4c-0.7,0-1.2-0.5-1.2-1.2V70c0-0.7,0.5-1.2,1.2-1.2H25
		c0.7,0,1.2,0.5,1.2,1.2V76.4z"/>
	<path class="st3" d="M59,15.3h13.5c0.8,0,1.5-0.7,1.5-1.5s-0.7-1.5-1.5-1.5H59c-0.8,0-1.5,0.7-1.5,1.5S58.1,15.3,59,15.3z"/>
	<path class="st3" d="M59,27h13.5c0.8,0,1.5-0.7,1.5-1.5s-0.7-1.5-1.5-1.5H59c-0.8,0-1.5,0.7-1.5,1.5S58.1,27,59,27z"/>
	<path class="st3" d="M117.4,24.1h-13.5c-0.8,0-1.5,0.7-1.5,1.5s0.7,1.5,1.5,1.5h13.5c0.8,0,1.5-0.7,1.5-1.5S118.2,24.1,117.4,24.1z
		"/>
	<path class="st3" d="M91,79.1c0,0.8-0.7,1.5-1.5,1.5H39.1c-0.8,0-1.5-0.7-1.5-1.5c0-0.8,0.7-1.5,1.5-1.5h50.4
		C90.3,77.6,91,78.3,91,79.1z"/>
	<path class="st3" d="M27.7,42.3H15.9c-0.8,0-1.5,0.7-1.5,1.5v11.8c0,0.8,0.7,1.5,1.5,1.5h11.8c0.8,0,1.5-0.7,1.5-1.5V43.8
		C29.2,42.9,28.5,42.3,27.7,42.3z M26.2,52.9c0,0.7-0.5,1.2-1.2,1.2h-6.4c-0.7,0-1.2-0.5-1.2-1.2v-6.4c0-0.7,0.5-1.2,1.2-1.2H25
		c0.7,0,1.2,0.5,1.2,1.2V52.9z"/>
	<path class="st3" d="M103,79.1c0,0.4-0.1,0.8-0.4,1.1c-0.3,0.3-0.7,0.4-1,0.4c-0.4,0-0.8-0.2-1-0.4c-0.3-0.3-0.4-0.7-0.4-1.1
		c0-0.4,0.2-0.8,0.4-1c0.3-0.3,0.7-0.4,1-0.4c0.4,0,0.8,0.1,1,0.4C102.9,78.3,103,78.7,103,79.1z"/>
	<path class="st3" d="M117.4,35.9h-13.5c-0.8,0-1.5,0.7-1.5,1.5s0.7,1.5,1.5,1.5h13.5c0.8,0,1.5-0.7,1.5-1.5S118.2,35.9,117.4,35.9z
		"/>
</g>
</svg>
