<?xml version="1.0" encoding="utf-8"?>
<!-- Generator: Adobe Illustrator 24.3.0, SVG Export Plug-In . SVG Version: 6.00 Build 0)  -->
<svg version="1.1" id="Layer_1" xmlns="http://www.w3.org/2000/svg" xmlns:xlink="http://www.w3.org/1999/xlink" x="0px" y="0px"
	 width="178.9px" height="138.6px" viewBox="0 0 178.9 138.6" style="enable-background:new 0 0 178.9 138.6;" xml:space="preserve"
	>
<style type="text/css">
	.st0{fill:#00B0FB;}
	.st1{fill:#00B0FB;fill-opacity:0.4;}
	.st2{fill:#FFFFFF;}
	.st3{fill:none;}
	.st4{fill:#001135;}
	.st5{fill:#3C7CFF;}
	.st6{fill:#3C7CFF;stroke:#001135;stroke-width:0.7602;stroke-miterlimit:10;}
	.st7{fill:#DBDBDB;}
	.st8{fill:#B9B9B9;}
	.st9{fill:#080808;}
	.st10{fill:#060606;}
	.st11{fill:#070707;}
	.st12{fill:#121212;}
	.st13{fill:#111111;}
	.st14{fill:#090909;}
	.st15{fill:#FDFDFD;}
	.st16{fill:#F9F9F9;}
	.st17{fill:#F3F2F3;}
	.st18{fill:#FAFAFA;}
	.st19{fill:#0A0A0A;}
	.st20{fill:#EEEEEE;}
	.st21{fill:#0D0D0D;}
	.st22{fill:#0C0C0C;}
	.st23{fill:#0E0E0E;}
	.st24{fill:#050505;}
	.st25{fill:#3A3A3A;}
	.st26{fill:#525252;}
	.st27{fill:#474747;}
	.st28{fill:#1E1E1E;}
	.st29{fill:#1D1D1D;}
	.st30{fill:#222222;}
	.st31{fill:#494949;}
	.st32{fill:#585858;}
	.st33{fill:#EDEDED;}
	.st34{fill:#F0F0F0;}
	.st35{fill:#EAEAEA;}
	.st36{fill:#EAE9EA;}
	.st37{fill:#040404;}
	.st38{fill:#F4F3F4;}
	.st39{fill:#030303;}
	.st40{fill:#E8E8E8;}
	.st41{fill:#0C0C0B;}
	.st42{fill:#0D0D0C;}
	.st43{fill:#919191;}
	.st44{fill:#909090;}
	.st45{fill:#0E0E0D;}
	.st46{fill:#0C0D0C;}
	.st47{fill:#090908;}
	.st48{fill:#141414;}
	.st49{fill:#4C4D4D;}
	.st50{fill:#737474;}
	.st51{fill:#242424;}
	.st52{fill:#202020;}
	.st53{fill:#101010;}
	.st54{fill:#0D0E0D;}
	.st55{fill:#111212;}
	.st56{fill:#0B0B0B;}
	.st57{fill:#0D0C0C;}
	.st58{fill:#E7E7E7;}
	.st59{fill:#272727;}
	.st60{fill:#2E2E2E;}
	.st61{fill:#1F1E1E;}
	.st62{fill:#1B1A1A;}
	.st63{fill:#E6E6E6;}
	.st64{fill:#0F0E0E;}
	.st65{fill:#F2F2F2;}
	.st66{fill:#F4F3F3;}
	.st67{fill:#F9F8F8;}
	.st68{fill:#F1F1F0;}
	.st69{fill:#F6F6F6;}
	.st70{fill:#F5F6F6;}
	.st71{fill:#F5F5F5;}
	.st72{fill:#2C2C2C;}
	.st73{fill:#252625;}
	.st74{fill:#303030;}
	.st75{fill:#2D2D2C;}
	.st76{fill:#2D2D2D;}
	.st77{fill:#262727;}
	.st78{fill:#191919;}
	.st79{fill:#1B1B1B;}
	.st80{fill:#F7F7F7;}
	.st81{fill:#F6F7F7;}
	.st82{fill:#F9F9FA;}
	.st83{fill:#F4F4F4;}
	.st84{fill:#F8F8F8;}
	.st85{fill:#FCFCFC;}
	.st86{fill:#FBFBFB;}
	.st87{fill:#E2E1E2;}
	.st88{fill:#D8D7D8;}
	.st89{fill:#0F0F0F;}
	.st90{fill:#161616;}
	.st91{fill:#181818;}
	.st92{fill:#131313;}
	.st93{fill-rule:evenodd;clip-rule:evenodd;fill:#00B0FB;}
	.st94{fill:#030302;}
	.st95{fill:#D2D3D3;}
	.st96{fill:#1F1F1F;}
	.st97{fill:#0E0D0E;}
	.st98{fill:#BABBBB;}
	.st99{fill:#8A8A8A;}
	.st100{fill:#8E8F8F;}
	.st101{fill:#464746;}
	.st102{fill:#5F5E5E;}
	.st103{fill:#151414;}
	.st104{fill:#282828;}
	.st105{fill:#030202;}
	.st106{fill:#040403;}
	.st107{fill:#040303;}
	.st108{fill:#202021;}
	.st109{fill:#020202;}
	.st110{fill:#050506;}
</style>
<g>
	<path class="st0" d="M161.1,69.4c-0.4-0.3-0.6-0.7-0.5-1.2c0.9-6-1.2-12.1-5.4-16.4c-3.6-3.6-8.5-5.7-13.6-5.7
		c-1.6,0-3.2,0.2-4.7,0.6c-0.1,0-0.2,0-0.3,0c-0.4,0-0.7-0.2-1-0.5c-6.4-8.6-15.6-14.6-25.8-17.2v1h-6.7v2.5c0,0,0.1,0,0.1,0
		c12.2,1.4,23.1,8.1,29.9,18.5c0.4,0.7,1.2,1,2,1c0.3,0,0.6,0,0.9-0.2c1.8-0.7,3.6-1.1,5.5-1.1c3.9,0,7.5,1.5,10.3,4.3
		c3.7,3.7,5.1,9.2,3.7,14.3c-0.3,1,0.1,2.1,1.1,2.7c10.2,5.9,16.6,16.9,16.6,28.7c0,18.2-14.8,33.1-33.1,33.1h-7.6v4.7h7.6
		c20.8,0,37.7-16.9,37.7-37.7C177.9,88.2,171.6,76.5,161.1,69.4z"/>
	<circle class="st1" cx="106.5" cy="110.6" r="7.6"/>
	<circle class="st1" cx="72.5" cy="110.6" r="7.6"/>
	<path class="st0" d="M97,32.7h-2.3c-1.1,0-2-0.7-2.3-1.8l-0.1-0.4c-0.7-2.6-1.7-5.1-3.1-7.3c-0.6-0.9-0.4-2.1,0.3-2.9l1.6-1.6
		c0.2-0.2,0.3-0.5,0.3-0.9c0-0.3-0.1-0.6-0.3-0.9l-5.3-5.3c-0.2-0.2-0.5-0.4-0.8-0.4s-0.6,0.1-0.9,0.4l-1.6,1.6
		c-0.4,0.4-1,0.7-1.6,0.7c-0.4,0-0.9-0.1-1.2-0.3c-2.4-1.5-5-2.5-7.7-3.2c-1.1-0.3-1.8-1.2-1.8-2.3V5.9c0-0.7-0.5-1.2-1.2-1.2h-7.5
		c-0.7,0-1.2,0.5-1.2,1.2v2.3c0,1.1-0.7,2-1.8,2.3c-2.7,0.7-5.3,1.7-7.7,3.2C50.4,13.9,50,14,49.6,14c-0.6,0-1.2-0.2-1.7-0.7
		l-1.6-1.6c-0.2-0.2-0.5-0.4-0.9-0.4s-0.6,0.1-0.8,0.4L39.3,17c-0.2,0.2-0.4,0.5-0.4,0.9c0,0.3,0.1,0.6,0.4,0.9l1.6,1.6
		c0.8,0.8,0.9,1.9,0.3,2.9c-1.5,2.4-2.5,5-3.2,7.7c-0.3,1.1-1.2,1.8-2.3,1.8h-2.3c-0.7,0-1.2,0.5-1.2,1.2v7.5c0,0.7,0.5,1.2,1.2,1.2
		h2.3c1.1,0,2,0.7,2.3,1.8c0.7,2.7,1.8,5.3,3.2,7.7c0.4,0.7,0.5,1.6,0,2.4c-0.1,0.2-0.2,0.3-0.4,0.5l-1.6,1.6
		c-0.2,0.2-0.4,0.5-0.4,0.8c0,0.3,0.1,0.6,0.4,0.9l5.3,5.3c0.2,0.2,0.5,0.4,0.8,0.4s0.6-0.1,0.9-0.4l1.6-1.6c0.4-0.4,1-0.7,1.7-0.7
		c0.4,0,0.8,0.1,1.2,0.3c2.4,1.4,5,2.5,7.7,3.2c1,0.3,1.8,1.2,1.8,2.3v2.3c0,0.7,0.5,1.2,1.2,1.2H69c0.7,0,1.2-0.5,1.2-1.2v-2.3
		c0-1.1,0.7-2,1.8-2.3c2.7-0.7,5.3-1.8,7.7-3.2c0.4-0.2,0.8-0.3,1.2-0.3c0.6,0,1.2,0.2,1.6,0.7l1.6,1.6c0.2,0.2,0.5,0.4,0.9,0.4
		s0.6-0.1,0.8-0.4l5.3-5.3c0.2-0.2,0.3-0.5,0.3-0.9c0-0.3-0.1-0.6-0.3-0.8l-1.6-1.6c-0.8-0.8-0.9-1.9-0.3-2.9c1.5-2.4,2.5-5,3.2-7.7
		c0.3-1.1,1.2-1.8,2.3-1.8H97c0.7,0,1.2-0.5,1.2-1.2v-7.5C98.2,33.2,97.7,32.7,97,32.7z M65.3,52.6c-4.6,0-8.9-2.1-11.8-5.7
		c-2.1-2.7-3.3-5.9-3.3-9.3c0-8.3,6.7-15,15-15c6.9,0,13.1,4.9,14.6,11.7c0.2,1.1,0.4,2.2,0.4,3.3C80.3,45.9,73.5,52.6,65.3,52.6z"
		/>
	<path d="M162.1,69.4c-0.4-0.3-0.6-0.7-0.5-1.2c0.9-6-1.2-12.1-5.4-16.4c-3.6-3.6-8.5-5.7-13.6-5.7c-1.6,0-3.2,0.2-4.7,0.6
		c-0.1,0-0.2,0-0.3,0c-0.4,0-0.7-0.2-1-0.5c-8.7-11.7-22.6-18.7-37.2-18.7c-0.7,0-1.4,0-2.1,0.1c-0.5,0-1-0.3-1.1-0.8
		c-0.5-1.3-1-2.6-1.6-3.8c-0.2-0.5-0.1-1,0.2-1.4l2.3-2.2c0.4-0.4,0.7-1,0.7-1.7c0-0.6-0.2-1.2-0.7-1.6L86.7,5.9
		c-0.5-0.4-1-0.7-1.7-0.7s-1.2,0.2-1.7,0.7l-2.2,2.3c-0.2,0.2-0.5,0.3-0.8,0.3c-0.2,0-0.4,0-0.5-0.1c-1.3-0.6-2.7-1.2-4-1.7
		c-0.5-0.2-0.8-0.6-0.8-1.1V2.3c0-1.3-1-2.3-2.3-2.3H58c-1.3,0-2.3,1.1-2.3,2.3v3.2c0,0.5-0.3,1-0.8,1.1c-1.4,0.5-2.7,1-4,1.7
		c-0.2,0.1-0.3,0.1-0.5,0.1c-0.3,0-0.6-0.1-0.9-0.3l-2.3-2.3c-0.4-0.4-1-0.7-1.7-0.7c-0.6,0-1.2,0.2-1.6,0.7L33.5,16.2
		c-0.9,0.9-0.9,2.4,0,3.3l2.3,2.2c0.4,0.4,0.5,0.9,0.2,1.4c-0.7,1.3-1.2,2.7-1.7,4c-0.2,0.5-0.6,0.8-1.1,0.8H30
		c-1.3,0-2.3,1.1-2.3,2.3v14.6c0,1.3,1,2.4,2.3,2.4h3.2c0.5,0,1,0.3,1.1,0.8c0.4,1.2,0.9,2.4,1.5,3.6c0.2,0.3,0.2,0.7,0,1
		c-0.2,0.3-0.4,0.6-0.8,0.7c-5.6,1.3-10.6,4.3-14.3,8.7c-4,4.7-6.3,10.6-6.5,16.8c0,0.4-0.2,0.7-0.5,1C5,86,0,95.6,0,106.2
		c0,17.8,14.5,32.4,32.4,32.4h108.8c20.8,0,37.7-16.9,37.7-37.7C178.9,88.2,172.6,76.5,162.1,69.4z M35.8,42.6h-2.3
		c-0.7,0-1.2-0.5-1.2-1.2v-7.5c0-0.7,0.5-1.2,1.2-1.2h2.3c1.1,0,2-0.7,2.3-1.8c0.7-2.7,1.8-5.3,3.2-7.7c0.5-0.9,0.4-2.1-0.3-2.9
		l-1.6-1.6c-0.2-0.2-0.4-0.5-0.4-0.9c0-0.3,0.1-0.6,0.4-0.9l5.3-5.3c0.2-0.2,0.5-0.4,0.8-0.4s0.6,0.1,0.9,0.4l1.6,1.6
		c0.4,0.4,1,0.7,1.7,0.7c0.4,0,0.8-0.1,1.2-0.3c2.4-1.5,5-2.5,7.7-3.2c1-0.3,1.8-1.2,1.8-2.3V5.9c0-0.7,0.5-1.2,1.2-1.2H69
		c0.7,0,1.2,0.5,1.2,1.2v2.3c0,1.1,0.7,2,1.8,2.3c2.7,0.7,5.3,1.7,7.7,3.2c0.4,0.2,0.8,0.3,1.2,0.3c0.6,0,1.2-0.2,1.6-0.7l1.6-1.6
		c0.2-0.2,0.5-0.4,0.9-0.4s0.6,0.1,0.8,0.4l5.3,5.3c0.2,0.2,0.3,0.5,0.3,0.9c0,0.3-0.1,0.6-0.3,0.9l-1.6,1.6
		c-0.8,0.8-0.9,1.9-0.3,2.9c1.4,2.3,2.4,4.8,3.1,7.3l0.1,0.4c0.3,1.1,1.2,1.8,2.3,1.8H97c0.7,0,1.2,0.5,1.2,1.2v7.5
		c0,0.7-0.5,1.2-1.2,1.2h-2.3c-1.1,0-2,0.7-2.3,1.8c-0.7,2.7-1.7,5.3-3.2,7.7c-0.6,0.9-0.4,2.1,0.3,2.9l1.6,1.6
		c0.2,0.2,0.3,0.5,0.3,0.8c0,0.3-0.1,0.6-0.3,0.9l-5.3,5.3c-0.2,0.2-0.5,0.4-0.8,0.4s-0.6-0.1-0.9-0.4L82.6,62
		c-0.4-0.4-1-0.7-1.6-0.7c-0.4,0-0.9,0.1-1.2,0.3c-2.4,1.4-5,2.5-7.7,3.2c-1.1,0.3-1.8,1.2-1.8,2.3v2.3c0,0.7-0.5,1.2-1.2,1.2h-7.5
		c-0.7,0-1.2-0.5-1.2-1.2v-2.3c0-1.1-0.7-2-1.8-2.3c-2.7-0.7-5.3-1.8-7.7-3.2c-0.4-0.2-0.8-0.3-1.2-0.3c-0.6,0-1.2,0.2-1.7,0.7
		l-1.6,1.6c-0.2,0.2-0.5,0.4-0.9,0.4s-0.6-0.1-0.8-0.4l-5.3-5.3c-0.2-0.2-0.4-0.5-0.4-0.9c0-0.3,0.1-0.6,0.4-0.8l1.6-1.6
		c0.1-0.1,0.3-0.3,0.4-0.5c0.4-0.7,0.4-1.6,0-2.4c-1.5-2.4-2.5-5-3.2-7.7C37.8,43.3,36.9,42.6,35.8,42.6z M141.2,133.9H32.4
		c-15.3,0-27.7-12.4-27.7-27.7c0-9.6,4.9-18.4,13.1-23.5c0.7-0.4,1.1-1.2,1.1-2.1c0-0.3,0-0.7,0-1c0-9,5.3-17.1,13.6-20.5
		c0.1-0.1,0.3-0.1,0.5-0.1c0.3,0,0.6,0.1,0.9,0.4l10.1,10.1c0.4,0.4,1,0.7,1.6,0.7c0.6,0,1.2-0.2,1.7-0.7l2.3-2.3
		c0.2-0.2,0.5-0.4,0.9-0.4c0.2,0,0.4,0,0.5,0.1c1.3,0.6,2.7,1.2,4,1.7c0.5,0.2,0.8,0.6,0.8,1.1v3.2c0,1.3,1,2.3,2.3,2.3h14.6
		c1.3,0,2.3-1.1,2.3-2.3v-3.2c0-0.5,0.3-1,0.8-1.1c1.4-0.5,2.7-1,4-1.7c0.2-0.1,0.4-0.1,0.5-0.1c0.3,0,0.6,0.1,0.8,0.4l2.2,2.3
		c0.5,0.4,1,0.7,1.7,0.7s1.2-0.2,1.7-0.7L97,59.1c0.9-0.9,0.9-2.4,0-3.3l-2.3-2.3c-0.4-0.4-0.5-0.9-0.2-1.4c0.6-1.3,1.2-2.7,1.7-4
		c0.2-0.5,0.6-0.8,1.1-0.8h3.2c1.3,0,2.3-1.1,2.3-2.4V33.9c0-0.3,0.2-0.7,0.4-0.9c0.2-0.2,0.5-0.3,0.8-0.3c0,0,0.1,0,0.1,0
		c12.2,1.4,23.1,8.1,29.9,18.5c0.4,0.7,1.2,1,2,1c0.3,0,0.6,0,0.9-0.2c1.8-0.7,3.6-1.1,5.5-1.1c3.9,0,7.5,1.5,10.3,4.3
		c3.7,3.7,5.1,9.2,3.7,14.3c-0.3,1,0.1,2.1,1.1,2.7c10.2,5.9,16.6,16.9,16.6,28.7C174.2,119.1,159.4,133.9,141.2,133.9z"/>
	<path d="M116.4,97.1c-1.2,0-2.1,0.8-2.3,1.9c-0.1,0.4-0.3,0.7-0.7,0.9c-0.2,0.1-0.3,0.1-0.5,0.1c-0.2,0-0.4,0-0.6-0.1
		c-1.8-1-3.8-1.5-5.9-1.5c-6.8,0-12.2,5.5-12.2,12.2c0,6.8,5.5,12.3,12.3,12.3c2.2,0,4.3-0.6,6.2-1.7c0.2-0.1,0.4-0.2,0.6-0.2
		c0.1,0,0.2,0,0.3,0c0.3,0.1,0.6,0.3,0.7,0.6c0.4,0.8,1.2,1.2,2.1,1.2c1.3,0,2.3-1.1,2.3-2.3V99.4C118.8,98.1,117.7,97.1,116.4,97.1
		z M106.5,118.2c-4.2,0-7.6-3.4-7.6-7.6c0-4.2,3.4-7.6,7.6-7.6c4.2,0,7.6,3.4,7.6,7.6C114.1,114.8,110.7,118.2,106.5,118.2z"/>
	<path d="M152.9,114.2c-0.9,5-5.8,8.7-11.6,8.7c-4.8,0-9.5-2-12.6-5.4c-0.4-0.5-0.6-1.1-0.6-1.7c0-0.6,0.3-1.2,0.8-1.6
		c0.4-0.4,1-0.6,1.6-0.6c0.7,0,1.3,0.3,1.7,0.8c2.2,2.4,5.6,3.8,9.1,3.8c3.8,0,6.5-2.5,7-4.8c0.4-2.4-1.4-4.6-5.1-6
		c-4.9-1.8-9.2-3.7-9.2-3.7c-0.1,0-0.2-0.1-0.3-0.2c-2.8-1.8-4.2-5-3.7-8.3c0.5-3.6,3.1-6.5,6.9-7.6c1.3-0.4,2.6-0.6,4-0.6
		c5.8,0,10.2,3.6,10.4,3.8c0.5,0.4,0.8,1,0.8,1.6c0,0.6-0.1,1.2-0.5,1.7c-0.4,0.5-1.1,0.8-1.8,0.8c-0.5,0-1.1-0.2-1.5-0.5
		c-0.1-0.1-3.4-2.7-7.4-2.7c-0.9,0-1.8,0.1-2.6,0.4c-2.9,0.9-3.5,2.9-3.6,3.8c-0.1,0.7-0.1,2.3,1.4,3.5c0.1,0.1,0.2,0.1,0.2,0.1
		c1,0.4,4.7,2,8.6,3.5C151.8,105.6,153.6,110.5,152.9,114.2z"/>
	<path d="M82.4,97.1c-1.2,0-2.1,0.8-2.3,1.9c-0.1,0.4-0.3,0.7-0.7,0.9c-0.2,0.1-0.3,0.1-0.5,0.1c-0.2,0-0.4,0-0.6-0.1
		c-1.8-1-3.8-1.5-5.9-1.5c-6.8,0-12.3,5.5-12.3,12.2c0,6.8,5.5,12.3,12.3,12.3c2.2,0,4.3-0.6,6.2-1.7c0.2-0.1,0.4-0.2,0.6-0.2
		c0.1,0,0.2,0,0.3,0c0.3,0.1,0.6,0.3,0.7,0.6c0.4,0.8,1.2,1.2,2.1,1.2c1.3,0,2.3-1.1,2.3-2.3V99.4C84.8,98.1,83.7,97.1,82.4,97.1z
		 M72.5,118.2c-4.2,0-7.6-3.4-7.6-7.6c0-4.2,3.4-7.6,7.6-7.6c4.2,0,7.6,3.4,7.6,7.6C80.1,114.8,76.7,118.2,72.5,118.2z"/>
	<path d="M50.6,114.2c-0.9,5-5.8,8.7-11.6,8.7c-4.8,0-9.5-2-12.6-5.4c-0.9-0.9-0.8-2.4,0.2-3.3c0.4-0.4,1-0.6,1.6-0.6
		c0.7,0,1.3,0.3,1.7,0.8c2.2,2.4,5.6,3.8,9.1,3.8c3.8,0,6.5-2.5,7-4.8c0.4-2.4-1.4-4.6-5.1-6c-4.8-1.8-9.2-3.7-9.2-3.7
		c-0.1,0-0.2-0.1-0.3-0.2c-2.8-1.8-4.2-5-3.7-8.3c0.5-3.6,3.1-6.5,6.8-7.6c1.3-0.4,2.7-0.6,4-0.6c5.8,0,10.2,3.6,10.4,3.8
		c0.5,0.4,0.8,1,0.8,1.6c0,0.6-0.1,1.2-0.5,1.7c-0.5,0.5-1.1,0.8-1.8,0.8c-0.5,0-1.1-0.2-1.5-0.5c-0.1-0.1-3.4-2.7-7.4-2.7
		c-0.9,0-1.8,0.1-2.7,0.4C33,93,32.4,95,32.3,95.9c-0.1,0.7-0.2,2.3,1.4,3.5c0.1,0.1,0.2,0.1,0.2,0.1c1,0.4,4.7,2,8.6,3.5
		C49.5,105.6,51.3,110.5,50.6,114.2z"/>
	<path d="M79.9,34.3c-1.5-6.8-7.7-11.7-14.6-11.7c-8.3,0-15,6.7-15,15c0,3.4,1.1,6.6,3.3,9.3c2.9,3.6,7.2,5.7,11.8,5.7
		c8.3,0,15-6.7,15-15C80.3,36.5,80.1,35.4,79.9,34.3z M75.6,37.9C75.4,43.4,70.8,48,65.3,48c-1.8,0-3.5-0.4-5-1.3
		c-3.3-1.8-5.3-5.3-5.3-9c0-5.7,4.6-10.3,10.3-10.3c5.7,0,10.3,4.6,10.3,10.3L75.6,37.9z"/>
</g>
</svg>
