<?xml version="1.0" encoding="utf-8"?>
<!-- Generator: Adobe Illustrator 24.3.0, SVG Export Plug-In . SVG Version: 6.00 Build 0)  -->
<svg version="1.1" id="Layer_1" xmlns="http://www.w3.org/2000/svg" xmlns:xlink="http://www.w3.org/1999/xlink" x="0px" y="0px"
	 width="48px" height="48px" viewBox="0 0 48 48" style="enable-background:new 0 0 48 48;" xml:space="preserve">
<style type="text/css">
	.st0{fill:#3C7CFF;}
</style>
<path class="st0" d="M23.9,36h-1c-2-0.1-3.8-0.9-4.9-2.6c0,0-0.1-0.1-0.1,0c0,0,0,0,0,0c-1.4,1.9-3.2,2.4-5.5,2.6h-1.1
	c-3.8-0.4-6.5-3.2-7.5-6.7c-0.2-0.7-0.3-1.7-0.3-2.9c0-3.9,0-6.4,0-7.5c0,0,0-0.1-0.1-0.1H0.8c0,0-0.1,0-0.1-0.1c0,0,0,0,0,0l2-3.2
	c0,0,0.1-0.1,0.1-0.1h5.3c0.1,0,0.1,0,0.1,0.1c0,3.7,0,7.9,0,12.4c0,1.3,1,2.5,2.2,3c1.6,0.8,3.6,0.1,4.4-1.6
	c0.2-0.5,0.3-1.5,0.3-2.9c0-0.1,0-3.7,0-10.8c0,0,0-0.1,0.1-0.1c0,0,0,0,0,0l4.5,2.9c0.1,0,0.1,0.1,0.1,0.2c0,2.3,0,5.3,0,9.2
	c0,2,2.2,3.8,4.2,3.4c1.6-0.3,2.7-1.5,2.7-3.2c0-1.4-0.1-2.8,0.2-4.2c1.4-6.8,8.6-10.2,14.8-7.1c0.1,0.1,0.4,0.3,0.6,0.3
	c0,0,0.1,0,0.1-0.1c0,0,0,0,0,0v-4.7c0,0,0-0.1,0.1-0.1h4.6c0.1,0,0.1,0,0.1,0.1c0,7.1,0,11.2,0,12.5c0,1.5-0.1,2.6-0.3,3.4
	C45.2,35.1,37,38.3,31,34c-0.1,0-0.1-0.1,0-0.2c0,0,0,0,0,0c0.6-0.8,1.1-1.8,1.5-2.8c0.2-0.7,0.4-1.7,0.3-2.8c0-1.7,0-2.7,0-3
	c0,0,0-0.1,0.1-0.1c0,0,0,0,0.1,0c1.6,1.8,2.8,3.7,3.5,5.9c0,0.1,0.1,0.1,0.1,0.1c1.4,0.1,2.8-0.3,3.9-1.2c4.3-3.5,1.3-10.4-4.2-9.6
	c-2.6,0.4-4.6,2.5-4.7,5.1c0,0.8,0,1.8,0,3c0,0.1,0,0.3,0,0.4C30.7,32.5,27.8,35.6,23.9,36z"/>
</svg>
