<?xml version="1.0" encoding="utf-8"?>
<!-- Generator: Adobe Illustrator 24.3.0, SVG Export Plug-In . SVG Version: 6.00 Build 0)  -->
<svg version="1.1" id="Layer_1" xmlns="http://www.w3.org/2000/svg" xmlns:xlink="http://www.w3.org/1999/xlink" x="0px" y="0px"
	 width="125px" height="125px" viewBox="0 0 125 125" style="enable-background:new 0 0 125 125;" xml:space="preserve">
<style type="text/css">
	.st0{fill:#00B0FB;}
	.st1{fill:#00B0FB;fill-opacity:0.4;}
	.st2{fill:#FFFFFF;}
	.st3{fill:none;}
	.st4{fill:#001135;}
	.st5{fill:#3C7CFF;}
	.st6{fill:#3C7CFF;stroke:#001135;stroke-width:0.7602;stroke-miterlimit:10;}
	.st7{fill:#DBDBDB;}
	.st8{fill:#B9B9B9;}
	.st9{fill:#080808;}
	.st10{fill:#060606;}
	.st11{fill:#070707;}
	.st12{fill:#121212;}
	.st13{fill:#111111;}
	.st14{fill:#090909;}
	.st15{fill:#FDFDFD;}
	.st16{fill:#F9F9F9;}
	.st17{fill:#F3F2F3;}
	.st18{fill:#FAFAFA;}
	.st19{fill:#0A0A0A;}
	.st20{fill:#EEEEEE;}
	.st21{fill:#0D0D0D;}
	.st22{fill:#0C0C0C;}
	.st23{fill:#0E0E0E;}
	.st24{fill:#050505;}
	.st25{fill:#3A3A3A;}
	.st26{fill:#525252;}
	.st27{fill:#474747;}
	.st28{fill:#1E1E1E;}
	.st29{fill:#1D1D1D;}
	.st30{fill:#222222;}
	.st31{fill:#494949;}
	.st32{fill:#585858;}
	.st33{fill:#EDEDED;}
	.st34{fill:#F0F0F0;}
	.st35{fill:#EAEAEA;}
	.st36{fill:#EAE9EA;}
	.st37{fill:#040404;}
	.st38{fill:#F4F3F4;}
	.st39{fill:#030303;}
	.st40{fill:#E8E8E8;}
	.st41{fill:#0C0C0B;}
	.st42{fill:#0D0D0C;}
	.st43{fill:#919191;}
	.st44{fill:#909090;}
	.st45{fill:#0E0E0D;}
	.st46{fill:#0C0D0C;}
	.st47{fill:#090908;}
	.st48{fill:#141414;}
	.st49{fill:#4C4D4D;}
	.st50{fill:#737474;}
	.st51{fill:#242424;}
	.st52{fill:#202020;}
	.st53{fill:#101010;}
	.st54{fill:#0D0E0D;}
	.st55{fill:#111212;}
	.st56{fill:#0B0B0B;}
	.st57{fill:#0D0C0C;}
	.st58{fill:#E7E7E7;}
	.st59{fill:#272727;}
	.st60{fill:#2E2E2E;}
	.st61{fill:#1F1E1E;}
	.st62{fill:#1B1A1A;}
	.st63{fill:#E6E6E6;}
	.st64{fill:#0F0E0E;}
	.st65{fill:#F2F2F2;}
	.st66{fill:#F4F3F3;}
	.st67{fill:#F9F8F8;}
	.st68{fill:#F1F1F0;}
	.st69{fill:#F6F6F6;}
	.st70{fill:#F5F6F6;}
	.st71{fill:#F5F5F5;}
	.st72{fill:#2C2C2C;}
	.st73{fill:#252625;}
	.st74{fill:#303030;}
	.st75{fill:#2D2D2C;}
	.st76{fill:#2D2D2D;}
	.st77{fill:#262727;}
	.st78{fill:#191919;}
	.st79{fill:#1B1B1B;}
	.st80{fill:#F7F7F7;}
	.st81{fill:#F6F7F7;}
	.st82{fill:#F9F9FA;}
	.st83{fill:#F4F4F4;}
	.st84{fill:#F8F8F8;}
	.st85{fill:#FCFCFC;}
	.st86{fill:#FBFBFB;}
	.st87{fill:#E2E1E2;}
	.st88{fill:#D8D7D8;}
	.st89{fill:#0F0F0F;}
	.st90{fill:#161616;}
	.st91{fill:#181818;}
	.st92{fill:#131313;}
	.st93{fill-rule:evenodd;clip-rule:evenodd;fill:#00B0FB;}
	.st94{fill:#030302;}
	.st95{fill:#D2D3D3;}
	.st96{fill:#1F1F1F;}
	.st97{fill:#0E0D0E;}
	.st98{fill:#BABBBB;}
	.st99{fill:#8A8A8A;}
	.st100{fill:#8E8F8F;}
	.st101{fill:#464746;}
	.st102{fill:#5F5E5E;}
	.st103{fill:#151414;}
	.st104{fill:#282828;}
	.st105{fill:#030202;}
	.st106{fill:#040403;}
	.st107{fill:#040303;}
	.st108{fill:#202021;}
	.st109{fill:#020202;}
	.st110{fill:#050506;}
	.st111{fill:#010101;}
	.st112{fill:#F3F3F3;}
	.st113{fill:#F1F1F1;}
	.st114{fill:#FAFAF9;}
	.st115{fill:#040504;}
	.st116{fill:#070708;}
	.st117{fill:#131212;}
	.st118{fill:#070808;}
	.st119{fill:#3C3C3C;}
	.st120{fill:#FEFEFE;}
	.st121{fill:#47C5FB;}
	.st122{fill:#00569E;}
	.st123{fill:#00B5F8;}
	.st124{fill:url(#SVGID_1_);fill-opacity:0.8;}
	.st125{fill-rule:evenodd;clip-rule:evenodd;fill:#00D8FF;}
	.st126{fill:#00D8FF;}
	.st127{fill:url(#SVGID_2_);}
	.st128{fill:url(#SVGID_3_);}
	.st129{fill:url(#SVGID_4_);}
	.st130{fill:url(#SVGID_5_);}
	.st131{fill:#3C7DFE;}
	.st132{fill:#A4C639;}
	.st133{fill:none;stroke:#A4C639;stroke-width:10.5192;stroke-linecap:round;stroke-linejoin:round;stroke-miterlimit:14.0256;}
	.st134{fill:#D6D6D6;}
	.st135{fill:#030203;}
	.st136{fill:#070606;}
	.st137{fill:#010100;}
	.st138{fill:#020201;}
</style>
<g>
	<path class="st2" d="M33.6,45.7c0-2.5-2.1-4.6-4.6-4.6c-2.5,0-4.6,2.1-4.6,4.6c0,2.5,2.1,4.6,4.6,4.6
		C31.5,50.3,33.6,48.3,33.6,45.7z"/>
	<path class="st2" d="M93.6,83.5C93.6,83.5,93.6,83.5,93.6,83.5c-0.1,0-0.3,0.1-0.3,0.2c-0.1,0.2-0.3,0.3-0.4,0.5
		c-0.1,0.1-0.2,0.3-0.3,0.4c-0.3,0.3-0.5,0.6-0.8,0.9c-0.4,0.5-0.8,0.9-1.2,1.3L90,87.5c-0.8,0.9-1.6,1.7-2.5,2.5
		c0,0-0.5,0.5-0.7,0.6c-0.4,0.4-0.9,0.8-1.3,1.2c-0.3,0.3-0.6,0.5-0.9,0.8c-0.1,0.1-0.3,0.2-0.4,0.3c-0.2,0.1-0.3,0.3-0.5,0.4
		c-0.1,0.1-0.2,0.2-0.2,0.3c0,0.1,0,0.2,0.1,0.3l5.8,5.8c0.1,0.1,0.2,0.1,0.3,0.1s0.2,0,0.3-0.1l9.6-9.6c0.2-0.2,0.2-0.4,0-0.6
		l-5.8-5.8C93.8,83.6,93.7,83.5,93.6,83.5z"/>
	<circle class="st2" cx="49.9" cy="66.7" r="4.6"/>
	<path class="st4" d="M51.9,3.2c-10.2,0-20,3.1-28.3,9.1C1.8,27.9-3.3,58.4,12.3,80.3c9.1,12.8,24,20.4,39.7,20.4
		c10.2,0,20-3.1,28.3-9.1c1-0.7,1.9-1.4,2.7-2.1c0.1-0.1,0.3-0.2,0.4-0.3c0,0,0.3-0.2,0.4-0.3c0.7-0.6,1.5-1.3,2.2-2
		c0.3-0.3,0.6-0.6,0.9-0.9c0.7-0.7,1.4-1.4,2-2.2l0.2-0.3c0.1-0.2,0.3-0.3,0.4-0.5c0.7-0.8,1.4-1.7,2.1-2.7
		c12.1-16.9,12.1-39.7,0-56.6C82.5,10.9,67.6,3.2,51.9,3.2z M52,95.6C28,95.6,8.4,76.1,8.4,52S28,8.4,52,8.4
		c24,0,43.6,19.6,43.6,43.6C95.7,76.1,76.1,95.6,52,95.6z"/>
	<path class="st2" d="M52,11.8c-18.8,0-35.4,13.4-39.3,31.8c0,0.1,0,0.2,0.1,0.3C12.9,44,13,44,13.1,44h7.8c0.2,0,0.3-0.1,0.4-0.3
		c0.9-3.5,4.1-6,7.7-6c2.1,0,4.1,0.8,5.6,2.3c1.5,1.5,2.3,3.5,2.3,5.6c0,1.4-0.4,2.8-1.1,4c-0.1,0.2-0.1,0.4,0.1,0.5l9.5,9.5
		c0.1,0.1,0.2,0.1,0.3,0.1c0.1,0,0.1,0,0.2-0.1c1.2-0.7,2.6-1.1,4-1.1s2.8,0.4,4,1.1c0.1,0,0.1,0.1,0.2,0.1c0.1,0,0.2,0,0.3-0.1
		l13.7-13.7c0.1-0.1,0.2-0.3,0.1-0.5c-0.7-1.2-1.1-2.6-1.1-4c0-4.4,3.6-8,8-8c1.4,0,2.8,0.4,4,1.1c0.1,0,0.1,0.1,0.2,0.1
		c0.1,0,0.2,0,0.3-0.1l5.2-5.2c0.1-0.1,0.2-0.4,0-0.5C77.4,18.2,65.1,11.8,52,11.8z"/>
	<path class="st2" d="M75.1,46.1c2.5,0,4.6-2.1,4.6-4.6s-2.1-4.6-4.6-4.6c-2.5,0-4.6,2.1-4.6,4.6S72.6,46.1,75.1,46.1z"/>
	<path class="st5" d="M81.9,37.5c0.7,1.2,1.1,2.6,1.1,4c0,4.4-3.6,8-8,8c-1.4,0-2.8-0.4-4-1.1c-0.1,0-0.1-0.1-0.2-0.1
		c-0.1,0-0.2,0-0.3,0.1L56.8,62.2c-0.1,0.1-0.2,0.3-0.1,0.5c0.7,1.2,1.1,2.6,1.1,4c0,4.4-3.6,8-8,8c-4.4,0-8-3.6-8-8
		c0-1.4,0.4-2.8,1.1-4c0.1-0.2,0.1-0.4-0.1-0.5l-9.5-9.5c-0.1-0.1-0.2-0.1-0.3-0.1c-0.1,0-0.1,0-0.2,0.1c-1.2,0.7-2.6,1.1-4,1.1
		c-3.6,0-6.8-2.5-7.7-6c0-0.2-0.2-0.3-0.4-0.3h-8.5c-0.2,0-0.4,0.2-0.4,0.4c-0.2,1.4-0.2,2.9-0.2,4.3c0,22.2,18.1,40.2,40.2,40.2
		c6.9,0,13.6-1.7,19.6-5.1C81,82,87.8,73.4,90.7,63.1c3-10.3,1.7-21.2-3.5-30.6c-0.1-0.1-0.2-0.2-0.3-0.2c0,0,0,0,0,0
		c-0.2,0-0.2,0-0.3,0.1L82,37C81.9,37.1,81.9,37.3,81.9,37.5z"/>
	<path class="st2" d="M104.5,16.8c2.5,0,4.6-2.1,4.6-4.6s-2.1-4.6-4.6-4.6c-2.5,0-4.6,2.1-4.6,4.6S101.9,16.8,104.5,16.8z"/>
	<path class="st5" d="M92.3,102.3c0,0.1,0,0.2,0.1,0.3l17,17c1.4,1.3,3.1,2.1,5,2.1c2,0,3.8-0.8,5.2-2.2c1.3-1.4,2.1-3.2,2.1-5.1
		c0-1.9-0.8-3.7-2.2-5.1l-16.9-16.9c-0.1-0.1-0.2-0.1-0.3-0.1c-0.1,0-0.2,0-0.3,0.1l-9.6,9.6C92.4,102.1,92.3,102.2,92.3,102.3z"/>
	<path class="st4" d="M52,8.4C28,8.4,8.4,28,8.4,52S28,95.6,52,95.6S95.7,76.1,95.7,52C95.6,28,76.1,8.4,52,8.4z M86.9,32.3
		C86.9,32.3,86.9,32.3,86.9,32.3c0.1,0,0.3,0.1,0.3,0.2c5.2,9.4,6.5,20.2,3.5,30.6C87.8,73.4,81,82,71.6,87.2
		c-6,3.3-12.7,5.1-19.6,5.1c-22.2,0-40.2-18-40.2-40.2c0-1.4,0.1-2.9,0.2-4.3c0-0.2,0.2-0.4,0.4-0.4h8.5c0.2,0,0.3,0.1,0.4,0.3
		c0.9,3.5,4.1,6,7.7,6c1.4,0,2.8-0.4,4-1.1c0.1,0,0.1-0.1,0.2-0.1c0.1,0,0.2,0,0.3,0.1l9.5,9.5c0.1,0.1,0.2,0.3,0.1,0.5
		c-0.7,1.2-1.1,2.6-1.1,4c0,4.4,3.6,8,8,8c4.4,0,8-3.6,8-8c0-1.4-0.4-2.8-1.1-4c-0.1-0.2-0.1-0.4,0.1-0.5l13.7-13.7
		c0.1-0.1,0.2-0.1,0.3-0.1c0.1,0,0.1,0,0.2,0.1c1.2,0.7,2.6,1.1,4,1.1c4.4,0,8-3.6,8-8c0-1.4-0.4-2.8-1.1-4
		c-0.1-0.2-0.1-0.4,0.1-0.5l4.6-4.6C86.7,32.4,86.8,32.3,86.9,32.3z M24.4,45.7c0-2.5,2.1-4.6,4.6-4.6c2.5,0,4.6,2.1,4.6,4.6
		c0,2.5-2.1,4.6-4.6,4.6C26.4,50.3,24.4,48.3,24.4,45.7z M45.3,66.7c0-2.5,2.1-4.6,4.6-4.6c2.5,0,4.6,2.1,4.6,4.6
		c0,2.5-2.1,4.6-4.6,4.6C47.4,71.3,45.3,69.2,45.3,66.7z M70.5,41.5c0-2.5,2.1-4.6,4.6-4.6c2.5,0,4.6,2.1,4.6,4.6s-2.1,4.6-4.6,4.6
		C72.6,46.1,70.5,44.1,70.5,41.5z M84.9,29.4l-5.2,5.2c-0.1,0.1-0.2,0.1-0.3,0.1c-0.1,0-0.1,0-0.2-0.1c-1.2-0.7-2.6-1.1-4-1.1
		c-4.4,0-8,3.6-8,8c0,1.4,0.4,2.8,1.1,4c0.1,0.2,0.1,0.4-0.1,0.5L54.5,59.8c-0.1,0.1-0.2,0.1-0.3,0.1c-0.1,0-0.1,0-0.2-0.1
		c-1.2-0.7-2.6-1.1-4-1.1s-2.8,0.4-4,1.1c-0.1,0-0.1,0.1-0.2,0.1c-0.1,0-0.2,0-0.3-0.1l-9.5-9.5c-0.1-0.1-0.2-0.3-0.1-0.5
		c0.7-1.2,1.1-2.6,1.1-4c0-2.1-0.8-4.1-2.3-5.6c-1.5-1.5-3.5-2.3-5.6-2.3c-3.6,0-6.8,2.5-7.7,6c0,0.2-0.2,0.3-0.4,0.3h-7.8
		c-0.1,0-0.2-0.1-0.3-0.2c-0.1-0.1-0.1-0.2-0.1-0.3c4-18.4,20.5-31.7,39.3-31.8c13.1,0,25.4,6.4,32.9,17.1C85,29,85,29.2,84.9,29.4z
		"/>
	<path class="st4" d="M99.9,19.1c0.1-0.1,0.2-0.1,0.3-0.1c0.1,0,0.1,0,0.2,0.1c1.2,0.7,2.6,1.1,4,1.1c3.6,0,6.8-2.5,7.7-6
		c0-0.2,0.2-0.3,0.4-0.3H125v-3.4h-12.5c-0.2,0-0.3-0.1-0.4-0.3c-0.9-3.5-4.1-6-7.7-6c-4.4,0-8,3.6-8,8c0,1.4,0.4,2.8,1.1,4
		c0.1,0.2,0.1,0.4-0.1,0.5l-3.7,3.7c-0.1,0.1-0.2,0.1-0.3,0.1c0,0,0,0,0,0c-0.1,0-0.2-0.1-0.3-0.2C83.3,7.4,68.3,0,52,0
		C40.4,0,29.5,3.7,20.3,10.8C-2.4,28.2-6.7,60.9,10.7,83.7C20.7,96.6,35.7,104,52,104c10,0,19.8-2.9,28.2-8.4c0.1,0,0.1-0.1,0.2-0.1
		c0.1,0,0.2,0,0.3,0.1l26.2,26.2c2,2,4.7,3.1,7.5,3.1s5.5-1.1,7.5-3.1s3.1-4.7,3.1-7.5c0-2.8-1.1-5.5-3.1-7.5L95.7,80.8
		c-0.1-0.1-0.2-0.4-0.1-0.5c11.1-17.1,11.1-39.3,0-56.5c-0.1-0.2-0.1-0.4,0.1-0.5L99.9,19.1z M104.5,7.6c2.5,0,4.6,2.1,4.6,4.6
		s-2.1,4.6-4.6,4.6c-2.5,0-4.6-2.1-4.6-4.6S101.9,7.6,104.5,7.6z M102.4,92.3c0.1,0,0.2,0,0.3,0.1l16.9,16.9
		c1.4,1.3,2.1,3.1,2.2,5.1c0,1.9-0.7,3.7-2.1,5.1c-1.4,1.4-3.2,2.2-5.2,2.2c-1.9,0-3.7-0.7-5-2.1l-17-17c-0.1-0.1-0.1-0.2-0.1-0.3
		c0-0.1,0-0.2,0.1-0.3l9.6-9.6C102.1,92.4,102.2,92.3,102.4,92.3z M99.7,89.5c0.2,0.2,0.2,0.4,0,0.6l-9.6,9.6
		c-0.1,0.1-0.2,0.1-0.3,0.1s-0.2,0-0.3-0.1l-5.8-5.8c-0.1-0.1-0.1-0.2-0.1-0.3c0-0.1,0.1-0.2,0.2-0.3c0.2-0.1,0.3-0.3,0.5-0.4
		c0.1-0.1,0.3-0.2,0.4-0.3c0.3-0.2,0.6-0.5,0.9-0.8c0.5-0.4,0.9-0.8,1.3-1.2c0.1-0.1,0.7-0.6,0.7-0.6c0.8-0.8,1.7-1.6,2.5-2.5
		l0.6-0.7c0.4-0.4,0.8-0.9,1.2-1.3c0.3-0.3,0.5-0.6,0.8-0.9c0.1-0.1,0.2-0.3,0.3-0.4c0.1-0.2,0.3-0.3,0.4-0.5
		c0.1-0.1,0.2-0.2,0.3-0.2c0,0,0,0,0,0c0.1,0,0.2,0,0.3,0.1L99.7,89.5z M91.6,80.3c-0.7,1-1.4,1.9-2.1,2.7c-0.1,0.2-0.3,0.3-0.4,0.5
		l-0.2,0.3c-0.6,0.7-1.3,1.5-2,2.2c-0.3,0.3-0.6,0.6-0.9,0.9c-0.7,0.7-1.4,1.4-2.2,2c-0.1,0.1-0.4,0.3-0.4,0.3
		c-0.1,0.1-0.3,0.2-0.4,0.3c-0.8,0.7-1.7,1.3-2.7,2.1c-8.3,5.9-18.1,9.1-28.3,9.1c-15.7,0-30.5-7.6-39.7-20.4
		c-15.6-21.9-10.5-52.3,11.3-68C32,6.4,41.7,3.2,51.9,3.2c15.7,0,30.5,7.6,39.7,20.4C103.7,40.6,103.7,63.3,91.6,80.3z"/>
</g>
</svg>
