<?xml version="1.0" encoding="utf-8"?>
<!-- Generator: Adobe Illustrator 24.3.0, SVG Export Plug-In . SVG Version: 6.00 Build 0)  -->
<svg version="1.1" id="Layer_1" xmlns="http://www.w3.org/2000/svg" xmlns:xlink="http://www.w3.org/1999/xlink" x="0px" y="0px"
	 viewBox="0 0 115.98 129.9" style="enable-background:new 0 0 115.98 129.9;" xml:space="preserve">
<style type="text/css">
	.st0{fill:#001135;}
	.st1{fill:#3C7CFF;}
	.st2{fill:#FFFFFF;}
</style>
<g>
	<path class="st0" d="M58.1,7.94c14.22,0,28.44-0.01,42.67,0.01c6.37,0.01,11.28,3.22,13.33,8.89c0.59,1.63,0.86,3.46,0.87,5.19
		c0.05,28.62,0.05,57.24,0.03,85.86c-0.01,8.23-5.81,14.04-14.07,14.05c-28.62,0.03-57.24,0.03-85.86,0
		C6.82,121.94,1,116.1,1,107.87C0.97,79.25,0.97,50.63,1,22.01C1,13.79,6.84,7.97,15.08,7.95C29.42,7.91,43.76,7.94,58.1,7.94z
		 M34.95,74.37c-2.2-5.68-2.44-11.37-0.61-17.07c1.85-5.76,5.47-10.23,10.59-13.52c-1.71-3.42-2.1-6.9-0.89-10.39
		c1.76-5.1,5.49-8.11,10.71-9.27c1.01-0.23,1.36-0.62,1.32-1.64c-0.08-1.65-0.02-3.3-0.02-4.96c0-1.85,0-3.71,0-5.68
		c-0.85,0-1.37,0-1.9,0c-12.93,0-25.85-0.01-38.78,0C8.91,11.86,4.9,15.91,4.9,22.4c-0.01,12.87,0,25.73,0,38.6c0,0.62,0,1.24,0,2
		c4.46,0,8.65-0.01,12.83,0c2.33,0.01,2.7,0.57,3.11,2.87c0.33,1.87,0.85,3.84,1.83,5.44C25.32,75.63,30.78,76.91,34.95,74.37z
		 M59.95,11.85c0,4.4,0.01,8.58,0,12.76c-0.01,2.44-0.51,2.98-2.98,3.13c-2.86,0.17-5.23,1.35-7.17,3.4
		c-2.87,3.03-3.35,7.58-1.21,10.69c11.96-4.37,23.85-0.24,30.64,9.99c4.3-2,8.62-2.14,12.83,0.29c4.16,2.4,6.24,6.24,7.12,10.76
		c4.03,0,7.89,0,11.91,0c0-0.83,0-1.53,0-2.22c0-12.51,0-25.03,0-37.54c0-7.5-3.72-11.25-11.17-11.25c-12.57,0-25.14,0-37.72,0
		C61.56,11.85,60.92,11.85,59.95,11.85z M4.9,66.97c0,0.79,0,1.37,0,1.95c0,12.8,0,25.6,0,38.39c0,6.82,3.92,10.73,10.78,10.73
		c12.74,0.01,25.48,0,38.22,0c0.63,0,1.27,0,2.13,0c0-0.81,0-1.44,0-2.07c0-3.48,0-6.96,0-10.44c0-2.73,0.42-3.17,3.1-3.39
		c3.45-0.28,6.17-1.84,8.1-4.72c1.98-2.95,2-7.04,0.09-9.38c-8.94,3.58-22.2,2.36-30.61-9.95c-4.31,2-8.62,2.12-12.83-0.33
		c-4.15-2.41-6.2-6.27-7.09-10.8C12.8,66.97,8.98,66.97,4.9,66.97z M71.13,86.21c2.02,4.3,2.13,8.62-0.3,12.82
		c-2.4,4.15-6.24,6.23-10.76,7.1c0,4.03,0,7.89,0,11.92c0.71,0,1.28,0,1.86,0c12.86,0,25.71,0.01,38.57,0
		c6.61-0.01,10.57-3.97,10.57-10.58c0.01-12.86,0-25.71,0-38.57c0-0.62,0-1.24,0-2c-4.4,0-8.52,0-12.65,0
		c-2.59,0-3.03-0.43-3.24-3.05c-0.28-3.52-1.89-6.28-4.84-8.21c-2.86-1.88-6.88-1.87-9.26-0.04C85.1,66.01,82.43,78.62,71.13,86.21z
		 M78.91,64.94c0-11.63-9.26-20.9-20.89-20.91C46.4,44.02,37.1,53.28,37.07,64.88c-0.03,11.71,9.27,21.01,20.99,20.98
		C69.69,85.84,78.91,76.58,78.91,64.94z"/>
	<path class="st2" d="M34.95,74.37c-4.16,2.54-9.62,1.25-12.28-3.06c-0.98-1.59-1.5-3.57-1.83-5.44c-0.41-2.31-0.78-2.87-3.11-2.87
		c-4.18-0.01-8.37,0-12.83,0c0-0.76,0-1.38,0-2c0-12.87-0.01-25.73,0-38.6c0.01-6.49,4.01-10.53,10.46-10.54
		c12.93-0.02,25.85,0,38.78,0c0.52,0,1.05,0,1.9,0c0,1.97,0,3.82,0,5.68c0,1.65-0.06,3.31,0.02,4.96c0.05,1.02-0.3,1.41-1.32,1.64
		c-5.21,1.16-8.94,4.16-10.71,9.27c-1.2,3.49-0.81,6.97,0.89,10.39c-5.12,3.29-8.74,7.77-10.59,13.52
		C32.51,63,32.74,68.69,34.95,74.37z"/>
	<path class="st2" d="M71.13,86.21c11.3-7.6,13.97-20.2,9.97-30.62c2.38-1.83,6.4-1.84,9.26,0.04c2.95,1.94,4.56,4.69,4.84,8.21
		c0.21,2.62,0.65,3.04,3.24,3.05c4.12,0.01,8.25,0,12.65,0c0,0.76,0,1.38,0,2c0,12.86,0.01,25.71,0,38.57
		c0,6.61-3.96,10.57-10.57,10.58c-12.86,0.01-25.71,0-38.57,0c-0.58,0-1.15,0-1.86,0c0-4.02,0-7.88,0-11.92
		c4.51-0.86,8.35-2.95,10.76-7.1C73.27,94.83,73.15,90.52,71.13,86.21z"/>
	<path class="st1" d="M78.91,64.94c0,11.65-9.22,20.91-20.85,20.93c-11.71,0.02-21.02-9.28-20.99-20.98
		c0.03-11.61,9.33-20.86,20.95-20.85C69.65,44.04,78.91,53.31,78.91,64.94z M54.74,64.19c-1.15-1.22-2.26-2.53-3.5-3.7
		c-2.22-2.1-5.4-2.09-7.49-0.07c-2.18,2.11-2.26,5.3-0.07,7.61c2.44,2.56,4.95,5.06,7.5,7.51c2.29,2.2,5.37,2.23,7.61,0.01
		c4.57-4.52,9.08-9.1,13.56-13.71c1.39-1.43,1.97-3.2,1.32-5.21c-1.3-3.98-5.88-5.15-8.94-2.23C61.45,57.53,58.24,60.75,54.74,64.19
		z"/>
	<path class="st0" d="M54.74,64.19c3.51-3.44,6.71-6.66,9.99-9.79c3.06-2.93,7.64-1.76,8.94,2.23c0.65,2.01,0.08,3.77-1.32,5.21
		c-4.48,4.61-8.99,9.19-13.56,13.71c-2.24,2.22-5.33,2.19-7.61-0.01c-2.55-2.45-5.05-4.95-7.5-7.51c-2.2-2.3-2.12-5.5,0.07-7.61
		c2.09-2.02,5.27-2.03,7.49,0.07C52.47,61.66,53.59,62.96,54.74,64.19z M69.99,58.37c-0.02-1.33-1.23-2-2.21-1.43
		c-0.45,0.26-0.8,0.69-1.17,1.06c-3.15,3.18-6.29,6.37-9.44,9.56c-1.82,1.84-2.51,1.84-4.38-0.02c-1.34-1.33-2.59-2.76-4.05-3.95
		c-0.51-0.42-1.74-0.59-2.24-0.26c-0.94,0.61-0.49,1.52,0.22,2.23c2.34,2.33,4.66,4.67,6.99,7c0.88,0.88,1.72,0.84,2.59-0.05
		c4.3-4.36,8.63-8.7,12.93-13.06C69.59,59.09,69.83,58.61,69.99,58.37z"/>
	<path class="st2" d="M69.99,58.37c-0.17,0.24-0.4,0.72-0.76,1.08c-4.3,4.36-8.62,8.7-12.93,13.06c-0.87,0.88-1.71,0.93-2.59,0.05
		c-2.33-2.33-4.66-4.67-6.99-7c-0.71-0.71-1.16-1.62-0.22-2.23c0.5-0.33,1.73-0.16,2.24,0.26c1.45,1.19,2.71,2.62,4.05,3.95
		c1.87,1.86,2.56,1.87,4.38,0.02c3.15-3.18,6.29-6.37,9.44-9.56c0.37-0.38,0.72-0.8,1.17-1.06C68.76,56.37,69.97,57.04,69.99,58.37z
		"/>
</g>
</svg>
