<?xml version="1.0" encoding="utf-8"?>
<!-- Generator: Adobe Illustrator 24.3.0, SVG Export Plug-In . SVG Version: 6.00 Build 0)  -->
<svg version="1.1" id="Layer_1" xmlns="http://www.w3.org/2000/svg" xmlns:xlink="http://www.w3.org/1999/xlink" x="0px" y="0px"
	 viewBox="0 0 115.98 129.9" style="enable-background:new 0 0 115.98 129.9;" xml:space="preserve">
<style type="text/css">
	.st0{fill:#001135;}
	.st1{fill:#3C7CFF;}
	.st2{fill:#FFFFFF;}
</style>
<g>
	<path class="st0" d="M63.3,30.05c0.98-1.01,1.94-1.99,2.89-2.98c0.99-1.03,2-1.06,3.05-0.08c1.56,1.44,3.12,2.87,4.7,4.29
		c1.06,0.95,1.17,1.93,0.24,3.04c-1.06,1.26-2.71,2.43-2.95,3.84c-0.23,1.38,1.19,2.96,1.55,4.53c0.62,2.71,0.98,5.48,1.48,8.4
		c0.44,0.02,1.12,0.05,1.79,0.1c2.77,0.2,4.72,2.17,4.83,4.95c0.06,1.57,0.01,3.15,0.01,4.91c2.29,0,4.39,0,6.5,0
		c2.76,0,5.52,0.01,8.27,0c2.33-0.01,4.17,0.9,5.65,2.72c3.8,4.7,7.7,9.32,11.45,14.05c0.66,0.83,1.11,2.07,1.14,3.13
		c0.13,4.66,0.08,9.33,0.08,14c0,5.44-3.06,8.5-8.45,8.51c-0.05,0-0.11,0.01-0.16,0c-1.93-0.3-3.05,0.21-3.8,2.32
		c-1.18,3.36-4.98,5.44-8.51,5.25c-3.73-0.21-7-2.59-8.1-6.13c-0.38-1.21-0.93-1.48-2.12-1.47c-10.77,0.07-21.53,0.1-32.3,0.08
		c-1.12,0-1.54,0.4-1.88,1.38c-1.33,3.79-4.74,6.18-8.59,6.15c-3.87-0.03-7.18-2.41-8.51-6.25c-0.33-0.95-0.78-1.31-1.81-1.27
		c-2.01,0.08-4.03,0.05-6.04,0.02c-1.64-0.02-2.33-0.69-2.31-2.34c0.12-14.85,0.24-29.7,0.42-44.54c0.04-3.45,1.97-5.29,5.47-5.49
		c0.31-0.02,0.62-0.05,0.91-0.08c0.3-2.27,0.4-4.51,0.94-6.63c0.53-2.08,1.46-4.07,2.35-6.04c0.39-0.86,0.41-1.38-0.3-2.06
		c-3.47-3.38-3.23-3.22-0.22-6.71c0.93-1.08,1.84-2.2,2.79-3.26c1.07-1.19,1.94-1.22,3.11-0.1c0.81,0.77,1.51,1.65,2.36,2.36
		c0.39,0.33,1.11,0.6,1.55,0.46c0.73-0.23,1.64-0.43,1.58-1.65c-0.1-1.96-0.03-3.92-0.02-5.89c0.01-2.08,0.58-2.7,2.6-2.68
		c4.3,0.04,8.59,0.15,12.88,0.18c1.48,0.01,2.15,0.71,2.16,2.13c0.01,1.75,0.1,3.51-0.02,5.25c-0.1,1.42,0.28,2.33,1.7,2.76
		C62.22,29.34,62.69,29.72,63.3,30.05z M32.12,49.84c-0.06,10.94,8.42,19.82,18.96,19.85c10.58,0.04,19.16-8.71,19.24-19.6
		c0.07-10.94-8.36-19.81-18.91-19.9C40.69,30.11,32.18,38.78,32.12,49.84z M25.22,84.04c17.43,0,34.69,0,51.99,0
		c0.05-0.3,0.12-0.5,0.12-0.7c0.01-8.86,0.01-17.71,0.01-26.57c0-1.15-0.41-1.97-1.72-2.02c-1.22-0.05-2.14-0.17-2.64,1.58
		c-2.5,8.7-8.18,14.51-17.05,16.44c-8.81,1.91-16.31-0.93-22.16-7.86c-2.47-2.93-3.93-6.37-4.84-10.01
		c-3.06-0.41-3.47-0.06-3.5,2.87c-0.07,8.17-0.14,16.33-0.21,24.5C25.22,82.83,25.22,83.4,25.22,84.04z M80.97,99.74
		c0.53,0.03,0.9,0.04,1.26,0.09c1.5,0.19,2.38-0.14,3-1.85c1.24-3.46,4.7-5.52,8.36-5.47c3.69,0.05,6.93,2.18,8.24,5.67
		c0.49,1.31,1.12,1.92,2.51,1.66c0.36-0.07,0.74-0.01,1.11-0.01c3.47-0.02,4.93-1.44,4.93-4.92c0-4.45-0.03-8.91-0.11-13.36
		c-0.01-0.63-0.22-1.39-0.61-1.87c-3.65-4.54-7.37-9.03-11.06-13.54c-0.87-1.06-1.93-1.56-3.31-1.54c-3.29,0.04-6.57,0.01-9.86,0.01
		c-1.46,0-2.93,0-4.46,0C80.97,76.42,80.97,88.01,80.97,99.74z M25.26,87.88c0,4.09,0,8.03,0,12c2.03,0,3.92,0,5.84,0
		c0.17-0.43,0.32-0.82,0.46-1.22c1.34-3.78,4.64-6.16,8.56-6.17c3.92-0.01,7.24,2.31,8.56,6.15c0.36,1.04,0.84,1.33,1.91,1.32
		c8.38-0.05,16.76-0.03,25.14-0.03c0.51,0,1.01-0.05,1.54-0.08c0-4.06,0-7.97,0-11.97C59.92,87.88,42.66,87.88,25.26,87.88z
		 M34.64,101.65c-0.04,3.14,2.33,5.67,5.37,5.72c3.08,0.05,5.56-2.36,5.63-5.46c0.07-3.2-2.36-5.79-5.45-5.81
		C37.13,96.08,34.68,98.53,34.64,101.65z M98.99,101.82c0.04-3.1-2.39-5.67-5.4-5.71c-3.09-0.05-5.68,2.53-5.68,5.64
		c0,3.05,2.52,5.62,5.52,5.63C96.5,107.39,98.96,104.92,98.99,101.82z M46.04,22.61c0,1.58,0,2.97,0,4.16c3.47,0,6.82,0,10.2,0
		c0-1.23,0-2.66,0-4.16C52.78,22.61,49.47,22.61,46.04,22.61z M70.53,33.03c-0.98-0.87-1.83-1.62-2.73-2.41
		c-0.6,0.63-1.07,1.12-1.58,1.66c0.86,0.92,1.68,1.79,2.6,2.76C69.39,34.38,69.88,33.8,70.53,33.03z M34.21,34.31
		c0.9-1,1.72-1.93,2.5-2.79c-0.36-0.41-0.79-0.9-1.3-1.49c-0.84,1-1.62,1.91-2.43,2.88C33.38,33.36,33.72,33.75,34.21,34.31z"/>
	<path class="st0" d="M10.38,78.56c2.07,0,4.13-0.01,6.2,0c1.6,0.01,2.57,0.69,2.45,1.81c-0.16,1.49-1.21,1.78-2.53,1.77
		c-4.03-0.03-8.05-0.01-12.08-0.02c-1.59,0-2.54-0.69-2.44-1.83c0.13-1.41,1.08-1.77,2.36-1.75C6.36,78.59,8.37,78.56,10.38,78.56z"
		/>
	<path class="st0" d="M10.46,63.32c-2.07,0-4.13-0.02-6.2,0.01c-1.3,0.02-2.28-0.43-2.26-1.83c0.02-1.28,0.93-1.77,2.18-1.76
		c4.24,0.02,8.48,0.02,12.72,0c1.26,0,2.13,0.57,2.11,1.83c-0.02,1.28-0.94,1.77-2.19,1.76C14.7,63.3,12.58,63.32,10.46,63.32z"/>
	<path class="st0" d="M10.55,69.1c1.11,0,2.23-0.06,3.34,0.02c1.07,0.07,1.8,0.61,1.82,1.8c0.01,1.19-0.71,1.77-1.79,1.8
		c-2.28,0.06-4.56,0.06-6.83,0C6,72.69,5.22,72.06,5.22,70.94c0.01-1.2,0.84-1.78,1.98-1.83C8.32,69.05,9.43,69.09,10.55,69.1z"/>
	<path class="st1" d="M32.12,49.84c0.06-11.06,8.57-19.73,19.29-19.64c10.55,0.08,18.98,8.96,18.91,19.9
		c-0.07,10.89-8.66,19.64-19.24,19.6C40.54,69.66,32.07,60.78,32.12,49.84z M51.13,55.46c3.73,0.04,6.44-3.5,5.3-7.05
		c-0.31-0.96-0.14-1.53,0.58-2.19c1.6-1.47,3.11-3.04,4.66-4.55c0.88-0.85,1.23-1.81,0.35-2.78c-0.96-1.06-1.97-0.71-2.88,0.2
		C57.6,40.62,56,42.1,54.5,43.67c-0.72,0.76-1.38,1.02-2.48,0.81c-3.06-0.6-5.98,1.73-6.26,4.83
		C45.46,52.67,47.86,55.42,51.13,55.46z"/>
	<path class="st2" d="M25.22,84.04c0-0.64,0-1.21,0-1.77c0.07-8.17,0.14-16.33,0.21-24.5c0.02-2.93,0.44-3.28,3.5-2.87
		c0.91,3.64,2.36,7.08,4.84,10.01c5.85,6.93,13.36,9.77,22.16,7.86c8.87-1.92,14.55-7.73,17.05-16.44c0.5-1.75,1.42-1.63,2.64-1.58
		c1.31,0.05,1.72,0.87,1.72,2.02c0,8.86,0,17.71-0.01,26.57c0,0.2-0.07,0.4-0.12,0.7C59.91,84.04,42.66,84.04,25.22,84.04z"/>
	<path class="st2" d="M80.97,99.74c0-11.74,0-23.33,0-35.13c1.53,0,2.99,0,4.46,0c3.29,0,6.57,0.03,9.86-0.01
		c1.38-0.02,2.45,0.48,3.31,1.54c3.69,4.51,7.4,9,11.06,13.54c0.39,0.48,0.6,1.24,0.61,1.87c0.08,4.45,0.11,8.9,0.11,13.36
		c0,3.48-1.46,4.9-4.93,4.92c-0.37,0-0.75-0.06-1.11,0.01c-1.39,0.26-2.02-0.36-2.51-1.66c-1.31-3.49-4.55-5.62-8.24-5.67
		c-3.66-0.05-7.12,2.01-8.36,5.47c-0.61,1.71-1.49,2.04-3,1.85C81.87,99.78,81.51,99.78,80.97,99.74z M89.16,80
		c0-3.17-0.01-6.08,0.01-8.98c0.01-1.29-0.44-2.25-1.87-2.22c-1.35,0.03-1.72,0.98-1.71,2.19c0.02,3.45-0.01,6.89,0.01,10.34
		c0.01,1.73,0.55,2.28,2.29,2.3c2.23,0.03,4.45,0,6.68,0.01c1.29,0.01,2.38-0.26,2.48-1.8c0.08-1.16-0.83-1.82-2.45-1.83
		C92.87,79.98,91.13,80,89.16,80z"/>
	<path class="st2" d="M34.64,101.65c0.04-3.12,2.49-5.57,5.54-5.55c3.09,0.02,5.52,2.61,5.45,5.81c-0.07,3.11-2.55,5.51-5.63,5.46
		C36.97,107.32,34.6,104.79,34.64,101.65z"/>
	<path class="st2" d="M98.99,101.82c-0.04,3.11-2.49,5.57-5.55,5.56c-3-0.01-5.52-2.58-5.52-5.63c0-3.11,2.59-5.69,5.68-5.64
		C96.6,96.15,99.03,98.72,98.99,101.82z"/>
	<path class="st0" d="M51.13,55.46c-3.27-0.04-5.67-2.79-5.36-6.14c0.28-3.1,3.2-5.43,6.26-4.83c1.1,0.21,1.76-0.05,2.48-0.81
		c1.5-1.57,3.09-3.05,4.63-4.59c0.92-0.91,1.92-1.26,2.88-0.2c0.89,0.97,0.53,1.94-0.35,2.78c-1.56,1.51-3.06,3.08-4.66,4.55
		c-0.72,0.66-0.89,1.23-0.58,2.19C57.56,51.95,54.86,55.5,51.13,55.46z M49.31,49.96c0.14,1.16,0.77,1.9,1.93,1.89
		c1.19-0.01,1.85-0.85,1.83-1.95c-0.02-1.1-0.67-1.91-1.9-1.87C49.99,48.07,49.42,48.82,49.31,49.96z"/>
	<path class="st0" d="M89.16,80c1.96,0,3.7-0.01,5.45,0c1.62,0.02,2.53,0.67,2.45,1.83c-0.1,1.54-1.2,1.81-2.48,1.8
		c-2.23-0.01-4.45,0.02-6.68-0.01c-1.74-0.03-2.28-0.57-2.29-2.3c-0.02-3.45,0.01-6.89-0.01-10.34c-0.01-1.22,0.36-2.16,1.71-2.19
		c1.43-0.03,1.87,0.92,1.87,2.22C89.15,73.92,89.16,76.83,89.16,80z"/>
</g>
</svg>
