<?xml version="1.0" encoding="utf-8"?>
<!-- Generator: Adobe Illustrator 24.3.0, SVG Export Plug-In . SVG Version: 6.00 Build 0)  -->
<svg version="1.1" id="Layer_1" xmlns="http://www.w3.org/2000/svg" xmlns:xlink="http://www.w3.org/1999/xlink" x="0px" y="0px"
	 viewBox="0 0 564.27 478" style="enable-background:new 0 0 564.27 478;" xml:space="preserve">
<style type="text/css">
	.st0{fill:#00B0FB;}
	.st1{fill:#FFFFFF;}
	.st2{fill:#00B0FB;fill-opacity:0.4;}
	.st3{fill:#DBDBDB;}
	.st4{fill:#FDFDFD;}
	.st5{fill:#292929;}
	.st6{fill:#A7A7A7;}
	.st7{fill:#D1D1D1;}
	.st8{fill:#2C2C2C;}
	.st9{fill:#818181;}
	.st10{fill:#5C5C5C;}
	.st11{fill:#D2D2D2;}
	.st12{fill:#686868;}
	.st13{fill:#404040;}
	.st14{fill:#3C3C3C;}
	.st15{fill:#D4D4D4;}
	.st16{fill:#414141;}
	.st17{fill:#DADADA;}
	.st18{fill:#FCFCFC;}
	.st19{fill:#F7F7F7;}
	.st20{fill:#F9F9F9;}
	.st21{fill:#1D1D1D;}
	.st22{fill:#1B1B1B;}
	.st23{fill:#ABABAB;}
	.st24{fill:#252525;}
	.st25{fill:#2D2D2D;}
	.st26{fill:#CCCCCC;}
	.st27{fill:#232323;}
	.st28{fill:#5D5D5D;}
	.st29{fill:#CFCFCF;}
	.st30{fill:#CECECE;}
	.st31{fill:#2E2E2E;}
	.st32{fill:#161616;}
	.st33{fill:#BEBEBE;}
	.st34{fill:#383838;}
	.st35{fill:#111111;}
	.st36{fill:#E7E7E7;}
	.st37{fill:#7C7C7C;}
	.st38{fill:#E3E3E3;}
	.st39{fill:#535353;}
	.st40{fill:#434343;}
	.st41{fill:#030303;}
	.st42{fill:#171717;}
	.st43{fill:#141414;}
	.st44{fill:#2A2A2A;}
	.st45{fill:#1F1F1F;}
	.st46{fill:#272727;}
	.st47{fill:#545454;}
	.st48{fill:#3D3D3D;}
	.st49{fill:#FAFAFA;}
	.st50{fill:#EEEEEE;}
	.st51{fill:#F0F0F0;}
	.st52{fill:#303030;}
	.st53{fill:#282828;}
	.st54{fill:#6F6F6F;}
	.st55{fill:#7B7B7B;}
	.st56{fill:#787878;}
	.st57{fill:#6D6D6D;}
	.st58{fill:#777777;}
	.st59{fill:#F6F6F6;}
	.st60{fill:#E5E5E5;}
	.st61{fill:#E6E6E6;}
</style>
<g>
	<polygon class="st4" points="17.26,104.74 17.13,229.83 20.87,232.24 27.73,232.24 269.91,232.24 272.17,229.98 272.17,107.35 	"/>
	<g>
		<path d="M294.72,240.34c6.56,1.39,10.64,5.83,13.88,11.3c0.71,1.2,1.79,1.75,3.09,2.12c4.35,1.26,7.81,3.7,10,7.75
			c0.35,0.64,0.65,1.46,1.47,1.54c3.45,0.35,6.52,1.82,10.43,0.91c9.78-2.27,17.24-7.67,23.8-14.81c1.1-1.2,2.25-2.35,3.26-3.62
			c5.7-7.11,13.52-12.04,22.36-14.24c2.19-0.55,3.18-1.54,3.2-3.93c0.02-4.57,2.25-8.09,5.97-10.68c1.2-0.84,2.45-1.61,4.27-2.81
			c-6.23-0.71-9.09-4.97-12.02-9.2c-1.63-2.35-3.41-4.6-5.25-6.79c-4.87-5.77-7.05-12.42-6.85-19.94c0.09-3.22,0.11-6.46-0.47-9.66
			c-0.44-2.41-1.41-4.54-3.02-6.48c-1.07,0.71-0.09,1.98-1.08,2.9c-5.52-4.14-5.29-9.91-4.4-16.24c-3.8,2.3-4.87,5.95-6.2,9.46
			c-3.98-4.3-3.39-10.93,1.69-17.14c-2.15,0.67-3.93,1.22-5.7,1.77c1.71-4.58,6.29-5.08,9.93-7.44c-4.35-0.97-8.63-1.67-12.16-5.57
			c8.68,0,16.58-1.14,23.47-6.47c-3.15-1.5-6.59-2.38-8.24-6.28c8.86,1.57,17.12-0.62,25.79-1.72c-1.44-1.64-3.22-1.47-4.8-1.85
			c-1.56-0.38-3.28-0.1-5.28-1.42c12.54-4.61,24.01-1.49,35.94,2.61c-0.92-1.58-2.04-2.12-2.97-2.85c-0.99-0.77-2.35-1.03-3.27-2.38
			c6.47-0.92,11.72,1.43,16.75,5.22c-0.16-2.3-2.32-2.95-3.22-4.79c3.33-0.2,6.02,0.98,8.59,2.6c2.71,1.7,5,3.91,6.44,6.73
			c1.03,2.01,2.33,2.49,4.39,2.34c3.57-0.25,7,0.44,10.16,2.15c2.57,1.39,4.6,3.28,5.28,6.75c-2.69-0.86-4.91-2.36-7.68-2.02
			c0.24,1.08,1.24,1.02,1.87,1.35c6.99,3.7,11.1,11.09,10.2,18.77c-0.24,2-0.29,4.32-2.88,5.14c-0.63,0.2-0.53,0.92-0.66,1.42
			c-1.72,6.5-4.94,12.52-5.89,19.27c-0.35,2.48-1.93,4.48-4.07,5.69c-2.15,1.22-2.84,3.08-2.98,5.26c-0.13,2.02-0.02,4.06-0.04,6.09
			c-0.02,2,0.84,2.55,2.77,1.97c7.38-2.24,14.97-3.19,22.65-3.52c5.85-0.25,11.67-0.02,17.38,1.46c7.21,1.88,12.72,7.65,14.4,14.91
			c0.49,2.11,0.93,4.25,1.17,6.41c0.35,3.11,1.77,5.61,4,7.68c2.83,2.63,5.12,5.6,6.03,9.42c0.37,1.56,1.29,1.19,2.31,1.01
			c7.48-1.29,15-2,22.6-1.28c1.19,0.11,2.36,0.38,3.53,0.57c21.72,0.94,22.62,20.42,8.42,39.34c-6.79,9.05-13.35,18.26-19.48,27.77
			c-2.93,4.53-5.99,8.97-9.27,13.28c-16.5,21.68-35.2,41.25-55.9,58.94c-29.03,24.81-60.64,45.77-94.51,63.34
			c-27.28,14.15-55.66,25.51-85.48,33.05c-15.97,4.04-32.15,6.76-48.73,5.75c-4.46-0.27-8.86-0.96-13.12-2.4
			c-7.76-2.61-12.39-10.75-10.55-18.73c2.16-9.37,6.99-17.41,12.2-25.26c11.69-17.63,26.03-32.98,41.08-47.72
			c-0.51-0.48-0.51-0.5-2.01-0.82c-0.37-0.08-0.74-0.12-0.83-0.53c-0.06-0.29,0.14-0.67,0.35-0.67c1.65-0.02,0.26-1.09,0.56-1.57
			c0.81-1.39,2.21-1.47,3.58-1.63c6.75-0.8,10.13-3.69,11.97-10.29c0.25-0.89,0.41-1.8,1.35-2.27c1.24-0.51,2.26,0.16,3.32,0.62
			c14.74-12.56,29.48-25.13,44.22-37.69c-0.62-1.03-1.43-0.57-2.07-0.55c-18.5,0.5-31.33-8.46-40.13-24.09
			c-0.77-1.36-1.81-2.28-3.05-3.1c-5.24-3.46-8.1-8.24-7.9-14.62c0.05-1.67-0.43-3.03-1.48-4.31c-4.33-5.34-6.76-11.15-4.77-18.21
			c0.57-2.03-1.92-4.11-5.32-4.86c-3.06,1.14-6.1,0.15-9.05-0.35c-5.75-0.98-11.36-2.51-16.68-5.04c-3.68-1.75-6.81-4.17-9.47-7.2
			c-0.89-1.01-1.86-1.6-3.11-1.98c-7.84-2.37-12.9-7.68-15.87-15.14c-0.37-0.94-0.85-1.84-1.13-2.82c-0.67-2.39-0.01-4.09,2.01-5.32
			c1.14,0.16,2.08,0.62,2.54,1.76c0.61,1.74,2.13,2.24,3.69,2.51c7.37,1.32,14.35,4.26,21.8,5.18c1.52,0.19,2.37,1.11,2.16,2.65
			c-0.23,1.78-1.65,2.26-3.09,1.98c-3.63-0.71-7.31-1.17-10.88-2.16c-1.32-0.37-2.64-0.71-3.98-0.96c-1.22-0.23-2.64-0.38-3.2,0.96
			c-0.38,0.9,0.11,1.61,0.7,2.24c0.82,0.89,1.83,1.55,2.87,2.14c1.33,0.76,2.55,0.7,3.23-0.82c1.31-2.91,3.78-2.9,6.3-2.51
			c4.57,0.7,7.35,3.98,10.01,7.34c0.81,1.03,0.54,2.13-0.38,2.98c-0.91,0.84-1.97,0.97-3.03,0.22c-1.51-1.07-2.63-2.6-4.18-3.62
			c-0.67-0.45-1.5-1.23-2.23-0.55c-0.9,0.84-0.04,1.73,0.53,2.4c3.61,4.33,8.27,6.99,13.65,8.49c5,1.38,10.12,2.16,15.24,2.8
			c5.17,0.64,8.95,3.15,11.87,7.26c0.86,1.2,1.66,2.44,2.54,3.63c4.99,6.71,12.22,3.33,14.83-1.78c1.88-3.69,1.72-7.21-0.81-10.66
			c-2.47-3.37-5.7-6.03-8.27-9.31c-2.07-2.64-3.86-5.32-4.75-8.64c-1.26-4.69-3.63-8.86-6.66-12.66c-2.11-2.65-4.96-4.13-8.09-5.06
			c-3.63-1.09-7.37-1.72-11.06-2.53c-0.67-0.15-1.6-0.55-1.95,0.37c-0.3,0.82,0.52,1.29,1.09,1.74c1.26,0.98,2.75,1.55,4.33,1.88
			c0.94,0.2,1.86,0.46,2.74,0.83c1.46,0.62,3.07,1.15,3,3.29c-0.07,2.05-1.64,2.5-3.11,3.02c-3.76,1.33-7.61,2.12-11.64,2.16
			c-7.67,0.09-15.33,0.01-22.84-1.79c-1.43-0.34-3.26-0.21-3.89-2.13c-0.06-1.59,0.75-2.6,2.15-3.23c4.19,0.26,8.24,1.43,12.44,1.81
			c5.46,0.5,10.87,0.38,16.19-0.24c-3.25-1.4-5.85-3.63-7.23-7.07c-0.78-1.95-1.06-3.97,0.28-5.79c1.41-1.9,3.42-1.54,5.32-1.02
			c4.27,1.16,8.57,2.22,12.92,3.04c7.75,1.45,12.58,6.56,16.61,12.82c2.23,3.47,3.57,7.35,5.02,11.13c1.17,3.07,3.05,5.38,5.36,7.57
			C293.11,237.42,294.57,238.48,294.72,240.34z"/>
		<path d="M58.01,233.08c1.45-0.35,2.91-0.36,4.36,0c4.46-0.42,8.91-0.42,13.37,0c1.45-0.35,2.91-0.36,4.36,0
			c4.46-0.42,8.91-0.42,13.37,0c1.08-0.35,2.17-0.35,3.25,0c4.64-0.42,9.28-0.42,13.92,0c2.39-0.08,4.79-0.32,7.17-0.21
			c9.85,0.43,19.7-0.04,29.55-0.01c12.51,0.04,25.03-0.08,37.54,0.05c10.04,0.1,20.08-0.33,30.12,0.11
			c1.45,0.06,1.99,0.46,2.13,1.75c-0.95,0.53-1.99,0.27-2.99,0.27c-62.87,0.01-125.74,0.01-188.61,0c-1.01,0-2.03,0.18-3.01-0.21
			c-3.7-0.81-5.04-2.56-5.28-6.56c-1.06-17.59-0.49-35.19-0.56-52.79c-0.1-24.88-0.04-49.77-0.05-74.65c0-4.82,1.56-7.23,5.44-8.48
			c0.69-0.38,1.44-0.22,2.17-0.22c39.71-0.01,79.43-0.01,119.14-0.01c0.37,0,0.74,0.01,1.1,0.1c0.07,2.22-1.8,1.88-3,2.04
			c-1.99,0.26-4.03,0.08-6.04,0.09c-1.56,0.01-3.12,0.08-4.67,0.12c-21.99-0.32-43.99-0.05-65.98-0.1
			c-2.57-0.01-5.03,1.16-7.65,0.87c-4.49-0.5-8.98-0.57-13.47,0.03c-1.19,0.16-2.41,0.32-3.57,0.08c-4.51-0.92-8.98,0.18-13.46,0.2
			c-3.45,0.01-4.91,1.72-5.21,5.16c-0.23,2.64,0.33,5.34-0.58,7.93c-0.16,1.08-1.49,1.59-1.38,2.81
			c-0.04,38.85-0.01,77.69-0.01,116.54c0,0.46,0.01,0.92,0.06,1.38c0.08,0.35,0.23,0.68,0.44,0.97c0.67,1.81,1.85,2.62,3.9,2.61
			c6.55-0.05,13.11,0.08,19.66,0.14C48.36,232.66,53.19,232.66,58.01,233.08z"/>
		<path d="M146.22,301.77c6.88,0.25,16.12-0.57,25.32,0.58c6.77,0.85,12.5,3.31,15.12,10.29c0.79,2.09,1.14,4.28,1.15,6.51
			c0.05,12.45,0.11,24.91,0.11,37.36c0,1.74-0.2,3.5-0.49,5.23c-1.37,8.3-6.32,13.13-14.65,14.22c-2.46,0.32-4.96,0.53-7.44,0.54
			c-13.47,0.05-26.94,0.06-40.41,0.01c-4.26-0.02-8.49-0.5-12.38-2.45c-6.86-3.44-9.73-9.45-9.85-16.73
			c-0.21-13.47-0.25-26.94-0.02-40.4c0.13-7.54,4.4-12.31,11.66-14.2c2.88-0.75,5.81-0.96,8.78-0.96
			C130.05,301.77,136.97,301.77,146.22,301.77z"/>
		<path d="M18.95,110.13c-0.01-0.73,0.63-0.84,1.09-1.13c0.81-1.07,1.96-1.27,3.2-1.32c1.75-0.06,3.51-0.05,5.26-0.05
			c77.74,0,155.48,0,233.21,0c1.2,0,2.4,0.02,3.6-0.01c3.69-0.1,4.99-1.06,5.29-3.9c0.46-4.3-1.27-7.38-4.56-8.06
			c-1.73-0.35-3.5-0.18-5.25-0.24c-4.88-0.18-9.79,0.52-14.62-0.67c-1.01-0.19-1.79-0.72-2.25-1.63c-0.25-0.51-0.04-0.82,0.57-0.79
			c7.66-0.01,15.32-0.08,22.98,0.02c3.33,0.04,5.43,2.16,6.26,5.61c1.08,4.48,0.46,9.01,0.47,13.52c0,1.98,0.46,2.72,2.6,2.72
			c17.17,0.01,34.34,0.16,51.52,0.23c4.82,0.02,6.18-1.45,6.18-6.33c-0.01-11.36-0.01-22.71,0-34.07c0-0.74,0-1.48,0.09-2.21
			c0.07-0.58,0.36-1.06,1.05-1.04c0.63,0.02,1.08,0.36,1.16,0.97c0.11,0.82,0.15,1.65,0.15,2.48c0.01,11.45,0.02,22.9,0.01,34.34
			c-0.01,6.25-2.31,8.51-8.54,8.47c-16.8-0.09-33.61-0.18-50.41-0.26c-3.72-0.02-3.73-0.01-3.73,3.69c0,26.5,0.03,57.98-0.02,84.48
			c0,1.79,0.55,3.7-0.63,5.37c-0.61-0.2-1.7,0.29-1.52-1.06c0.46-0.87,0.25-1.81,0.25-2.72c0.01-29.41,0.01-63.8-0.01-93.21
			c0-0.88,0.34-1.85-0.36-2.65c-1.78-0.7-3.65-0.41-5.48-0.41c-66.01-0.01-132.01,0.01-198.02,0.02c-15.14,0-30.28,0.01-45.42,0
			c-0.55,0-1.1-0.09-1.65-0.14c-0.56,0.19-1.14,0.27-1.72,0.36C19.43,110.47,19.17,110.33,18.95,110.13z"/>
		<path class="st5" d="M144.73,6.57c6.86,0.05,6.73-1.01,6.48,6.51c-0.1,2.89,2.22,2.69,3.68,3.67c1.42,0.95,2.35,0.19,3.3-0.84
			c4.59-4.94,4.07-5.21,9.15,0.2c0.06,0.07,0.13,0.14,0.19,0.2c3.93,4.24,3.96,4.27-0.17,8.36c-1.21,1.19-1.88,2.15-1.11,4.03
			c0.78,1.9,1.86,2.37,3.74,2.39c6.19,0.06,6.2-0.96,6.22,6.44c0,0.09,0,0.18,0,0.28c0.02,5.78,0.02,5.75-5.74,5.86
			c-1.45,0.03-2.98-0.48-3.83,1.7c-0.86,2.22-0.68,3.56,1.13,5.21c4.02,3.66,3.91,3.77,0.26,7.67c-0.06,0.07-0.13,0.14-0.19,0.2
			c-4.58,4.84-4.6,4.86-9.48,0.45c-1.02-0.92-1.92-1.7-3.33-0.69c-1.48,1.06-3.85,0.79-3.79,3.86c0.14,7.03,1.09,6.42-6.53,6.43
			c-7.12,0.01-6.7,0.55-6.6-6.54c0.02-1.43-0.13-2.55-1.79-2.87c-1.7-0.33-3.03-2.32-5.16-0.27c-5.16,4.97-4.12,5.04-9.33-0.15
			c-4.22-4.2-4.24-4.26,0.21-8.52c1.36-1.3,1.81-2.37,1.08-4.3c-0.75-1.97-1.83-2.35-3.72-2.32c-6.01,0.09-6.16,1.15-6.13-6.09
			c0.03-6.89-0.82-6.14,6.26-6.24c2.34-0.03,2.82-1.35,3.63-2.96c0.86-1.7-0.02-2.5-1.07-3.5c-4.52-4.34-4.51-4.36-0.16-8.75
			c4.43-4.48,4.44-4.5,9.1-0.02c1.02,0.98,1.91,1.68,3.32,0.69c1.42-1,3.79-0.61,3.77-3.56C138.05,6.59,138.22,6.59,144.73,6.57z"/>
		<path d="M87.02,361.61c-0.79,7.14-5.16,12.2-12.02,13.83c-3.06,0.72-6.19,1.03-9.34,1.04c-13.84,0.03-27.69,0.07-41.53,0.02
			c-2.2-0.01-4.43-0.25-6.6-0.65c-10.09-1.89-15.47-8.17-15.68-19.04c-0.25-13.19-0.17-26.4,0.03-39.59
			c0.12-8.12,4.46-12.99,12.43-14.67c2.71-0.57,5.47-0.82,8.25-0.81c13.57,0.03,27.13-0.01,40.7,0.11c4.8,0.04,9.58,0.51,14.17,2.15
			c3.92,1.4,6.88,3.85,8.45,7.79c-0.04,1.46,0.2,3.1-1.99,3.25c-1.19-0.19-1.53-1.24-2.04-2.08c-1.79-2.9-4.35-4.7-7.64-5.53
			c-3.68-0.93-7.43-1.46-11.22-1.47c-13.84-0.03-27.69-0.01-41.53-0.01c-1.76,0-3.5,0.13-5.23,0.48
			c-6.62,1.34-10.04,4.78-10.21,11.52c-0.34,13.1-0.47,26.21,0.03,39.3c0.38,9.97,6.43,14.94,17.44,15.16
			c7.29,0.15,14.58,0.03,21.87,0.03c6.55,0,13.1-0.02,19.66,0.01c2.7,0.01,5.33-0.4,7.95-0.94c5.34-1.1,8.62-4.32,9.88-9.62
			c0.17-0.71,0.23-1.46,0.65-2.1c0.32-0.48,0.85-0.64,1.34-0.86c1.46-0.67,2.33-0.47,2.03,1.4
			C86.82,360.77,86.71,361.21,87.02,361.61z"/>
		<path d="M267.66,373.81c0.81,0.3,1.63,0.59,2.59,0.94c-0.71,0.98-1.77,0.52-2.52,0.88c0.32,0.76,2.1-0.11,1.58,1.5
			c-0.82-1.14-2.03-0.58-3.03-0.58c-13.01-0.04-26.02,0-39.03-0.05c-2.67-0.01-5.35-0.2-8-0.49c-10.02-1.11-16.56-7.56-16.83-17.66
			c-0.38-13.92-0.31-27.86-0.03-41.79c0.15-7.76,5.29-12.97,13.04-14.19c2.36-0.37,4.77-0.6,7.16-0.61
			c14.12-0.03,28.23-0.09,42.35,0.09c5.14,0.07,10.33,0.47,14.95,3.24c0.35,1.32,0.11,2.4-1.25,3.01c-3.35-0.05-6.4-1.62-9.74-1.83
			c-1.74-0.11-3.48-0.35-5.24-0.35c-13.92,0-27.85,0-41.77,0c-1.94,0-3.86,0.1-5.76,0.56c-6.43,1.57-9.4,5.08-9.63,11.73
			c-0.17,4.98-0.04,9.96-0.05,14.94c-0.01,7.28,0.01,14.57-0.01,21.85c-0.01,2.23,0.17,4.43,0.76,6.57
			c1.23,4.46,3.88,7.69,8.34,9.25c3.25,1.14,6.62,1.59,10.06,1.59c12.63,0,25.27-0.04,37.9,0.04
			C264.95,372.49,266.72,371.98,267.66,373.81z"/>
		<path class="st6" d="M313.76,52.01c-0.03-2.78-0.05-5.56-0.08-8.34c0.49-1.27,1.44-1.82,2.77-1.88c1.38-0.06,2.77-0.08,4.15-0.07
			c8.85,0.07,17.68-0.55,26.51-0.89c2.9-0.11,3.53,0.4,3.87,3.32c0.49,4.11,0.76,8.24,0.93,11.13c-0.43-3.05-0.31-7.36-0.31-11.66
			c0-5.53-0.07-11.07,0.05-16.6c0.03-1.3-0.29-2.88,1.46-3.53c2.14,0.58,1.71,2.41,1.74,3.85c0.13,8.9,0.08,17.8,0.04,26.7
			c-0.02,3.29,0.38,6.61-0.42,9.87c-1.35,1.78-2.85,0.8-4.31,0.22c-5.58-2.19-10.91-5.03-16.66-6.79
			c-3.55-1.09-7.13-2.12-10.81-2.73c-2.38,0.13-4.6-0.85-6.95-0.93C314.66,53.65,314.32,52.69,313.76,52.01z"/>
		<path class="st7" d="M353.09,23.57c-0.03,11.33-0.06,22.67-0.09,34c0,1.14,0,2.28-0.46,3.45c-1.5-3.33-1.89-6.84-2.33-10.32
			c-0.28-2.19-0.4-4.4-0.55-6.6c-0.09-1.33-0.66-2.02-2.09-1.94c-10.39,0.57-20.78,1.02-31.2,1c-0.9,0-1.79,0.33-2.69,0.51
			c0.02-2.28,0.04-4.56,0.06-6.84c1.88-2.23,4.72-1.74,7.12-2.38c8.72-2.3,17.16-5.28,25.13-9.55c0.6-0.32,1.08-0.87,1.79-0.98
			c1.56-0.62,3.01-1.53,4.73-1.71C353.13,22.48,353.41,22.9,353.09,23.57z"/>
		<path d="M189.28,265.21c12.73,0,25.47,0,38.2,0c4.95,0,10,3.59,11.97,8.42c1.24,3.05,1.64,6.25,1.66,9.48
			c0.01,1.93,0.78,2.63,2.65,2.56c1.14-0.04,2.6-0.38,3.22,0.98c0.67,1.49-0.62,2.37-1.49,3.28c-1.35,1.4-2.57,2.89-3.6,4.55
			c-0.81,1.31-1.72,1.62-2.79,0.25c-1.52-1.97-3.13-3.87-4.56-5.91c-1.23-1.77-0.62-3.1,1.5-3.11c2.04,0,2.58-0.79,2.29-2.65
			c-0.21-1.36-0.19-2.76-0.35-4.14c-0.85-7.19-4.95-10.88-12.2-10.84c-24.55,0.12-49.09,0.29-73.64,0.44c-0.65,0-1.3-0.04-1.94,0.02
			c-1.44,0.13-1.78-0.93-1.82-1.92c-0.05-1.36,1.2-0.84,1.85-0.85c9.69-0.11,19.38-0.16,29.07-0.21c3.32-0.02,6.64,0,9.97,0
			C189.28,265.44,189.28,265.32,189.28,265.21z"/>
		<path d="M95.62,269.05c-12.72,0-25.45-0.01-38.17,0c-2.73,0-5.53-0.1-6.02,3.67c-0.11,0.84-0.89,0.78-1.56,0.68
			c-0.93-0.13-1.2-0.73-1.11-1.58c0.24-2.22,1.47-3.72,3.42-4.69c1.53-0.77,3.2-0.8,4.87-0.81c25.91-0.16,51.82-0.32,77.73-0.48
			c0.55,0,1.11,0.01,1.66,0.04c1.1,0.07,1.33,0.95,1.42,1.75c0.12,1.2-0.93,0.92-1.56,0.94c-1.84,0.07-3.69,0.06-5.53,0.06
			C119.04,268.63,95.62,268.91,95.62,269.05z"/>
		<path class="st8" d="M353.09,23.57c-0.03-0.42-0.19-0.76-0.6-0.95c-1.06,0.31-2.09,0.56-2.24-1.05c1.35-1.1,2.86-1.9,4.56-1.07
			c1.72,0.83,1.46,2.62,1.5,4.16c0.06,1.93,0.1,3.87,0.01,5.81c-0.15,3.07-0.27,5.62,3.79,6.78c3.26,0.93,3.96,4.42,3.8,7.61
			c-0.16,3.2-1.63,5.82-4.89,6.63c-2.18,0.54-2.45,1.71-2.37,3.55c0.12,2.58,0.12,5.16,0.1,7.74c-0.03,4.3-1.66,5.21-5.53,3.14
			c-0.35-2.1,1.58-1.12,2.33-1.73c-0.05-12.9-0.09-25.8-0.16-38.7C353.39,24.84,353.19,24.21,353.09,23.57z"/>
		<path d="M244.5,92.34c0.18,0.84,1.13,0.65,1.56,1.16c-0.41,1.42-1.61,1.64-2.82,1.8c-1.28,0.17-2.58,0.12-3.87,0.12
			c-26.92,0.01-53.85,0.23-80.76-0.14c-7.83-0.11-15.64,0.27-23.46,0.12c-1.44-0.03-2.99,0.25-4.21-0.88
			c-0.25-0.32-0.29-0.66-0.11-1.02c3.66-0.05,7.33-0.04,10.99-0.2c0.96-0.04,1.91-0.59,2.86-0.9c-0.46-0.65-0.26-1.32-0.03-1.98
			c-0.49-4.59-0.06-9.2-0.14-13.79c-0.02-0.94,0.11-1.99,1.42-1.89c1.08,0.08,1.19,1.03,1.19,1.87c0,3.87-0.04,7.74-0.05,11.61
			c0,3.78,0.01,3.77,3.67,3.81c7.27,0.08,14.54,0.19,21.81,0.28c-1.57,0.75-3.25,0.32-4.87,0.34c-5.26,0.06-10.52,0.02-14.09,0.02
			c7.42-0.2,16.56-0.22,25.67-0.13c19.38,0.19,38.76-0.02,58.14,0.12c0.25,0,0.76,0.3,0.75-0.35"/>
		<path d="M135.6,241.86c1.14,0.03,1.33,0.8,1.28,1.71c-0.44,7.65,2.65,14.16,6.41,20.53c3.42,5.78,4.57,12.24,4.58,18.88
			c0,2.09,0.54,3.1,2.77,2.86c0.98-0.1,2.18-0.17,2.67,0.96c0.5,1.14-0.51,1.85-1.1,2.64c-1.31,1.78-2.68,3.52-3.96,5.33
			c-1.04,1.46-1.93,1.46-2.98,0.01c-1.24-1.72-2.6-3.35-3.87-5.04c-1.62-2.16-1.06-3.72,1.63-3.89c1.98-0.12,2.17-1.07,2.18-2.65
			c0.02-7.91-2.57-15-6.45-21.75c-3.1-5.39-4.64-11.22-4.58-17.46C134.19,242.98,134.01,241.83,135.6,241.86z"/>
		<path d="M45.77,265.25c0,5.99,0.07,11.99-0.04,17.98c-0.03,1.75,0.32,2.65,2.22,2.47c0.64-0.06,1.3-0.03,1.93,0.07
			c1.92,0.31,2.52,1.64,1.23,3.13c-1.86,2.16-4.05,4.02-5.71,6.38c-0.79,1.13-1.61,0.53-2.22-0.28c-1.43-1.92-2.89-3.83-4.17-5.84
			c-1.1-1.72-0.42-3.34,1.56-3.31c2.43,0.03,2.63-1.19,2.65-3.08c0.13-11.53,0.33-23.05,0.51-34.58c0.01-0.55-0.02-1.11,0.02-1.66
			c0.06-0.97-0.2-2.25,1.32-2.27c1.44-0.02,1.45,1.15,1.44,2.19c-0.01,3.14-0.06,6.27-0.07,9.41c-0.01,3.13,0,6.27,0,9.4
			C46.21,265.25,45.99,265.25,45.77,265.25z"/>
		<path class="st9" d="M313.76,52.01c3.07,0.76,6.34,0.33,9.32,1.59c-0.04,0.77,0.32,1.53,0.08,2.31c0.65,4.83,1.35,9.66,1.92,14.51
			c0.19,1.6,1.11,3.64-1.6,4.21c-3.51,0.74-6.45-0.11-6.84-2.45C315.51,65.48,314.7,58.74,313.76,52.01z"/>
		<path d="M278.75,307.28c0.38-0.73,0.75-1.45,1.13-2.18c4.14,2.15,6.41,5.64,7.2,10.16c0.54,3.1,0.5,6.23,0.5,9.36
			c0.01,11.78,0.02,23.55,0.03,35.33c-0.93,0.76-1.85,0.86-2.78,0c-1.81-0.95-1.31-2.71-1.32-4.18c-0.08-10.77-0.1-21.54-0.02-32.31
			c0.04-5.18-0.41-10.14-4.21-14.14C278.74,308.77,278.58,308.06,278.75,307.28z"/>
		<path d="M22.53,234.82c34.33-0.02,68.65-0.05,102.98-0.06c30.54-0.01,61.09,0,91.63,0c-0.15,0.2-0.3,0.4-0.45,0.6
			c-16.51-0.04-33.02-0.12-49.52-0.12c-47.23,0-94.45,0.03-141.68,0.05C24.49,235.29,23.45,235.39,22.53,234.82z"/>
		<path d="M87.02,361.61c-0.69-0.28,0-3.15-1.96-1.04c-0.09-0.24-0.18-0.48-0.27-0.72c-0.45-0.27-0.81-0.6-1-1.11
			c-0.32-3.93-0.02-7.88-0.31-11.82c-0.18-9.89,0.31-19.79-0.29-29.67c-0.06-1.06,0.01-2.02,1.06-2.62c0.55-0.95,1.09-1.9,1.64-2.85
			c0.95,1.82,1.37,3.76,1.22,5.82c0.31,0.6,0.22,1.26,0.22,1.89c0,13.13,0,26.27,0,39.4c0,0.64,0.07,1.29-0.23,1.9
			C87.08,361.07,87.05,361.34,87.02,361.61z"/>
		<path class="st10" d="M348.56,24.82c-10.92,6.01-22.54,9.96-34.82,12.01c-0.16-0.97-0.19-1.85,1.1-2.09
			c11.49-2.11,22.14-6.57,32.62-11.54C348.34,23.4,348.65,23.97,348.56,24.82z"/>
		<path class="st11" d="M380.14,44.18c-2.48,0-4.96,0.03-7.44-0.02c-1.01-0.02-2.22-0.08-2.21-1.47c0.01-1.25,1.06-1.67,2.12-1.72
			c5.22-0.26,10.46,0.12,15.67-0.55c1.05-0.14,2.06,0.31,2.17,1.6c0.12,1.43-0.87,2.02-2.06,2.06c-2.75,0.09-5.51,0.03-8.26,0.03
			C380.14,44.12,380.14,44.15,380.14,44.18z"/>
		<path d="M144.65,90.42c0.01,0.66,0.02,1.32,0.03,1.98c-40.86-0.02-81.72-0.04-122.58-0.05c1.2-0.67,2.52-0.44,3.8-0.44
			c38.4,0.03,76.79,0.08,115.19,0.09C142.44,92,144.17,92.56,144.65,90.42z"/>
		<path class="st12" d="M323.16,55.91c-0.7-0.74-2.3-1.46-0.08-2.31c9.68,1.85,18.69,5.59,27.61,9.64c0.92,0.42,1.81,0.93,2.87,0.93
			c-0.71,0.66-1.82,0.79-2.33,1.73c-6.72-2.89-13.23-6.31-20.33-8.25C328.35,56.95,325.87,55.89,323.16,55.91z"/>
		<path class="st13" d="M309.04,35.78c0.83-0.39,1.24-0.04,1.24,0.79c0.02,5.56,0.02,11.12,0,16.68c0,0.16-0.36,0.31-0.55,0.47
			c-0.74-1.04-1.96-1.39-3.01-1.92c-4.01-2.01-4.95-7.47-1.75-10.58C306.61,39.61,308.41,38.14,309.04,35.78z"/>
		<path class="st14" d="M309.04,35.78c1.21,1.93,0.69,3.26-1.1,4.66c-1.65,1.29-3.73,2.44-3.73,5.11c0,2.61,0.54,4.73,3.34,5.64
			c1.19,0.39,2.14,1.09,2.18,2.53c-4.71-0.42-7.36-3.2-7.64-8.02C301.77,40.21,304.18,36.78,309.04,35.78z"/>
		<path d="M238.14,92.31c0.72,0.09,1.44,0.17,2.16,0.26c0,0.08-0.01,0.16-0.01,0.23c-30.65,0-61.29,0-91.94,0
			c0-0.16,0-0.33-0.01-0.49c8.07,0,16.13,0,24.2,0c14.49-0.04,28.97-0.11,43.46-0.13C223.38,92.17,230.76,92.26,238.14,92.31z"/>
		<path class="st7" d="M382.15,61.06c-0.42,1.47-1.29,2.06-2.52,1.35c-3.75-2.16-7.45-4.42-11.16-6.66
			c-0.73-0.44-0.93-1.13-0.55-1.91c0.36-0.75,1-1.24,1.79-0.87c4.18,1.95,8.08,4.41,11.88,7C381.91,60.18,382,60.74,382.15,61.06z"
			/>
		<path class="st15" d="M380.98,23.09c0.01,1.21-0.64,1.74-1.33,2.21c-3.2,2.15-6.41,4.3-9.63,6.42c-0.86,0.56-1.9,1.15-2.69,0.06
			c-0.87-1.19-0.02-2.06,0.95-2.73c3.17-2.19,6.36-4.37,9.54-6.55C379.18,21.56,380.34,21.5,380.98,23.09z"/>
		<path d="M87.11,360.79c0-14.4,0-28.79,0-43.19c0.75,4.01,0.4,8.06,0.44,12.09c0.08,8.55,0.09,17.1,0.1,25.65
			C87.65,357.17,87.8,359.03,87.11,360.79z"/>
		<path class="st16" d="M348.56,24.82c-0.83-0.22-0.86-0.98-1.1-1.61c0.93-0.55,1.85-1.09,2.78-1.64c0.75,0.35,1.5,0.7,2.24,1.05
			C351.18,23.36,349.87,24.09,348.56,24.82z"/>
		<path class="st3" d="M453.81,247.53c12.22-4.18,24.41-8.54,37.34-10.04c14.63-1.7,24.25,3.38,31.14,16.48
			c5.4,10.26,8.97,21.23,11.87,32.43c0.4,1.55,0.22,2.88-0.6,4.21c-6.43,10.38-13.79,20.07-21.62,29.42
			c-0.49,0.58-1.06,0.99-1.84,1.12c-3.08,0.5-6.16,1.02-9.76,1.63c4.29-8.66,7.82-17.25,10.41-26.61c-2.1,0.69-2.59,2.27-3.21,3.59
			c-2.75,5.84-5.37,11.75-8.14,17.58c-0.74,1.57-1.72,3.07-2.77,4.46c-2.33,3.08-3.93,2.93-5.64-0.47
			c-1.76-3.51-2.58-7.32-3.04-11.17c-1.64-13.65-1.95-27.26,1.96-40.64c3.04-10.42,8.87-17.97,20.44-19.6
			c-5.51-0.74-10.36,0.7-14.43,4.4c-6.32,5.74-9.01,13.39-10.78,21.41c-2.22,10.08-2.46,20.31-1.58,30.57
			c0.04,0.45,0.07,0.9,0.14,1.95c-2.7-1.85-4.17-4.08-5.31-6.51c-3.24-6.89-3.92-14.36-4.7-21.8c-0.14-1.39,0.66-3.83-1.5-3.74
			c-1.81,0.08-1.06,2.42-1.09,3.79c-0.14,6.58,0.61,13.07,2.05,19.5c1.37,6.13,3.86,11.73,7.76,16.68
			c2.83,3.58,4.14,7.55,3.42,12.14c-0.39,2.49-1.43,4.3-3.98,5.1c-3.98,1.25-7.78,2.88-11.2,5.33c-1.14,0.82-2.56,1.05-3.92,1.27
			c-7.08,1.11-14.15,0.95-21.23-0.07c-2.34-0.34-3.2-1.78-3.96-3.67c-4.91-12.05-9.89-24.07-14.78-36.12
			c-2.3-5.65-6.11-8.7-12.5-8.36c-3.29,0.17-6.62-0.35-9.93-0.56c-4.8-0.48-9.62-0.07-14.43-0.22c-1.17-0.04-2.37,0.22-3.51-0.22
			c-1.21-0.02-2.42-0.03-3.63-0.05c-0.26-1.49,0.85-1.62,1.84-1.78c1.36-0.22,2.74-0.18,4.11-0.13c2.38,0.08,4.42-0.41,6.23-2.2
			c1.27-1.25,3.03-2,4.99-1.42c0.02,0.09,0.06,0.18,0.06,0.27c-0.01,1.87,0.09,4.03,2.17,4.49c1.93,0.43,2.39-1.83,3.32-3.1
			c0.59-0.47,1.34-0.59,2-0.9c0.89-0.42,1.25-1.11,0.73-2.01c-2.39-4.12-1.13-8.54-1.1-12.87c-0.05-5.96-0.1-11.93-0.16-17.89
			c-0.02-1.42,0.58-1.82,1.86-1.24c0.83,2.51-0.01,5.08,0.26,7.61c0.15,1.42-0.45,3.38,1.22,3.92c2.13,0.68,4.44,2.22,6.75,0.25
			c1.36-1.16,2.9-1.45,4.64-1.11c1.18,0.23,2.38,0.08,3.57-0.08c2.25-0.32,4.11-1.04,4.5-3.66c0.11-0.76,0.52-1.55,1.39-1.43
			c1.1,0.14,0.63,1.17,0.64,1.8c0.04,6.53,0.02,13.06,0.03,19.59c0,0.82-0.17,1.66,0.18,2.45c0.2,1.79,0.78,3.49,0.77,5.36
			c-0.01,1.63,0.94,3.15,2.8,3.56c2.29,0.51,3.01-1.15,3.68-2.82c0.33-0.18,0.75-0.36,1.04-0.13c3.61,2.79,7.93,2.52,12.11,2.89
			c2.21,0.19,3.71-0.76,4.02-2.86c0.47-3.2,1.93-5.9,3.54-8.59c1.03-1.73,0.78-3.59,0.7-5.57c-0.18-4.86-2.74-8.54-4.87-12.59
			C452.13,256.49,451.65,251.94,453.81,247.53z"/>
		<path class="st17" d="M443.14,357.17c-0.86,1.01-2.06,0.68-3.11,0.68c-6.09-0.02-12.18-0.15-18.27-0.14
			c-1.74,0-2.96-0.64-4.04-1.94c-1.65-1.99-3.39-3.93-5.61-5.3c-2.73-1.68-5.6-2.54-8.5-0.39c-0.89,0.66-1.5,0.32-2.25-0.07
			c-1.42-0.73-2.91-1.14-4.53-1.07c-1.35,0.06-3.14,0.38-3.36,1.5c-0.72,3.66-4.36,3.37-6.35,5.22c-0.6,0.55-1.37,0.48-2.1,0.46
			c-6.82-0.19-13.65-0.35-20.47-0.61c-3.45-0.13-5.55-2.3-6.97-5.16c-4.49-9-8.97-18-13.35-27.05c-3.69-7.64-7.25-15.35-10.83-23.04
			c-0.88-1.89-1.44-3.83,0.19-5.66c4.86-1.11,9.77-0.24,14.64-0.16c5.16,0.09,10.33,0.29,15.48,0.33c8.1,0.05,16.16,0.78,24.26,0.69
			c8.02-0.09,16.02,0.82,24.05,0.59c4.61-0.13,7.19,2.68,8.96,6.58c5.27,11.6,9.81,23.49,14.84,35.19
			c2.11,4.91,3.87,9.97,6.13,14.82C442.61,354.09,442.79,355.64,443.14,357.17z"/>
		<path class="st4" d="M382.87,165.03c-2.29-2.13-4.28-2.47-6.64-0.87c-1.03,0.7-1.79,1.14-2.22-0.35c-0.38-1.3-2.33-2.67-0.04-4
			c1.64-0.95,3.49-1.16,5.32-1.4c0.73-0.1,1.68-0.11,1.71-1.01c0.03-1.03-0.75-1.63-1.78-1.78c-1.71-0.25-3.32,0.21-4.83,0.93
			c-1.95,0.94-2.43,0.13-2.43-1.71c-0.01-4.71,3.81-9.88,9.31-12.25c-0.78,2.63-1.82,5.11-0.78,8.13c2.02-2.19,3.69-4.25,5.63-6.01
			c1.87-1.7,3.9-3.3,7.1-4.31c-1.08,1.99-1.93,3.44-2.67,4.94c-0.38,0.77-1.3,1.71-0.45,2.46c0.72,0.63,1.75-0.03,2.56-0.44
			c2.41-1.22,4.46-2.94,6.49-4.69c3.07-2.65,6.47-4.54,10.65-4.8c1.86-0.11,2.5,0.43,2.57,2.45c0.19,5.52,2.77,10.03,7.92,11.98
			c6.45,2.44,7.46,7.62,7.89,13.25c0.23,3.01,0.69,3.51,3.49,2.39c1.6-0.64,2.47-1.87,3.04-3.39c0.82-2.19,1.88-4.23,3.7-5.76
			c2.19-1.84,4.59-3.27,7.57-2.34c3.26,1.01,4.83,3.61,5.46,6.76c1.44,7.14-2.44,14.55-9.11,17.56c-2.17,0.98-4.41,1.36-6.72,0.5
			c-1.01-0.38-1.86-0.41-2.16,0.82c-0.28,1.16-0.25,2.47,1.3,2.49c6.51,0.09,7.96,4.47,8.99,9.76c1.46,7.54,5,13.88,12.17,17.55
			c1.61,0.83,1.01,1.52,0.21,2.48c-3.99,4.78-8.66,8.82-13.64,12.52c-5.19,3.85-10.42,7.64-15.64,11.44
			c-1.5,1.09-3.09,2.01-4.98,2.27c-6.07,0.82-10.32-3.02-10.03-9.13c0.06-1.35,0.32-2.69,0.57-4.67c1.34,2.22,2.35,3.9,3.38,5.59
			c1.48-0.9,0.51-1.74,0.16-2.44c-1.59-3.26-2.69-6.65-3.33-10.22c-0.29-1.61,0.16-2.46,1.45-3.43c7.97-6,12.27-14.44,15.64-23.53
			c-1.01-0.47-1.29,0.17-1.6,0.53c-6.76,7.87-15.39,12.84-25.07,16.12c-7.18,2.43-10.3,1.33-14.8-4.7c-2.54-3.4-5.11-6.78-7.76-10.1
			c-3.29-4.11-5.12-8.72-5.15-14.01c-0.02-4.06-0.01-8.12-0.01-12.18c0-0.47,0.07-0.92,0.75-1.25c1.25,1.83,1.43,5.03,4.73,4.63
			c1.43-0.18,2.11-1.37,2.2-2.81c0.12-0.25,0.16-0.52,0.22-0.79c0.12-0.64-0.38-1.66,0.77-1.73c1.11-0.06,1.71,0.74,1.68,1.77
			c-0.06,1.79-0.47,3.54-0.98,5.27c-0.47,1.62-1.25,3.12-1.77,4.73c-0.33,1.03-0.57,1.89,0.02,2.84c-1.13-1.81,0.17-3.32,0.74-4.82
			c0.77-2.04,1.48-4.07,1.81-6.23c0.28-1.83,0.84-3.82-2.07-4.09C383.12,165.93,383.2,165.27,382.87,165.03z"/>
		<path class="st3" d="M398.4,285.18c-3.48,2.04-6.07,5.82-10.96,5.06c-2-0.31-4.2-0.49-6.2,0.47c-2.86-0.01-5.72-0.11-8.58,0.01
			c-1.97,0.08-2.75-0.73-3.12-2.61c-2.26-11.52-2.94-23.05-0.47-34.63c0.09-0.43,0.16-0.87-0.03-1.34
			c-4.63,10.15-4.77,20.98-4.68,31.92c-2.43-2.8-3.12-6.19-3.48-9.61c-0.35-3.37-0.35-6.78-0.51-10.23
			c-1.11,0.27-0.77,1.17-0.83,1.79c-0.66,7.28,0.19,14.36,2.95,21.18c1.25,3.08,1.21,3.12-2.19,3.08
			c-7.48-0.08-14.95-0.26-22.43-0.25c-7.08,0.01-10.09,4.51-7.39,11c1.84,4.43,3.78,8.82,5.87,13.14c1.03,2.14,0.45,2.79-1.7,3.3
			c-11.12,2.59-21.03,0.11-29.95-6.83c-3.58-2.78-7.07-5.66-9.48-9.6c-1.5-2.46-1.25-2.96,1.58-3.02c4.1-0.09,8.09-0.72,11.9-2.27
			c0.81-0.33,1.82-0.44,2.33-1.64c-2.54,0.44-4.93,0.99-7.35,1.25c-5.71,0.6-11.01-0.59-15.72-4.02c-2.53-1.85-4.49-4.13-5.31-7.21
			c-0.75-2.8-0.42-3.09,2.34-2.33c5.8,1.6,11.39,1.07,16.56-2.03c6.35-3.8,9.5-9.6,9.85-16.95c0.05-1.1,0.02-2.22-0.04-3.32
			c-0.13-2.05,0.86-2.14,2.38-1.42c2.35,1.11,4.09,2.84,5.16,5.19c2.29,5.04,3.45,10.32,3.01,15.88c-0.2,2.49-0.91,4.68-3.29,6.03
			c-1.28,0.73-2.32,1.86-1.28,3.39c0.99,1.46,2.46,0.98,3.74,0.31c2.03-1.06,3.01-2.94,3.56-5.05c1.22-4.66,0.8-9.34,0-14.01
			c-0.43-2.51-0.03-2.87,2.35-2.05c3.3,1.13,6.03,3.14,8.4,5.68c3.75,4.02,6.58,8.63,8.91,13.6c-0.43-5.44-2.38-10.27-5.64-14.59
			c-0.83-1.1-1.73-2.16-2.6-3.24c-1.07-1.32-1-2.53,0.76-2.91c11.29-2.46,18.74-10.34,25.89-18.5c5.52-6.29,12.03-10.8,20.02-13.28
			c2.33-0.73,3.75-0.82,4.69,2.05c1.34,4.08,4.59,6.87,7.92,9.39c1.53,1.16,2.5,2.38,2.49,4.31c1.47,1.46,0.8,3.34,0.81,4.99
			c0.02,7.22,0.01,14.44,0.03,21.66c0,1.91-0.95,3.72-0.34,5.64C398.37,283.44,398.38,284.31,398.4,285.18z"/>
		<path class="st4" d="M223.35,217.03c11.56,3.08,23.22,4.27,35,1.48c1.75-0.41,4.67-0.43,4.68-2.58c0.01-2.22-2.89-2.1-4.66-2.55
			c-3.56-0.9-6.6-2.37-8.17-5.93c-0.26-0.58-0.64-1.26-0.2-1.82c0.48-0.6,1.21-0.21,1.81-0.07c4.67,1.08,9.33,2.2,14.01,3.26
			c5.61,1.27,9.46,4.79,12.27,9.6c1.96,3.35,3.54,6.86,4.6,10.63c1.38,4.92,5.24,8.16,8.48,11.79c1.54,1.72,3.05,3.45,4.49,5.25
			c5.01,6.24-0.59,17.33-8.51,17.75c-2.76,0.15-5.12-0.45-6.84-2.76c-1.66-2.22-3.33-4.42-4.98-6.63c-2.35-3.15-5.54-4.74-9.38-5.26
			c-5.3-0.71-10.61-1.47-15.78-2.86c-5.26-1.42-9.92-3.95-13.75-7.9c-1.24-1.28-2.22-2.71-2.79-4.4c-0.27-0.79-0.7-1.66-0.03-2.34
			c0.73-0.75,1.73-0.51,2.61-0.19c1.51,0.55,2.65,1.63,3.81,2.7c1.14,1.07,2.35,2.07,3.57,3.04c0.48,0.38,1.05,0.28,1.52-0.13
			c0.56-0.49,0.41-1.11-0.05-1.42c-2.67-1.81-4.1-4.98-7.36-6.24c-4.82-1.86-7.01-0.59-7.03,4.67c-3.78-0.73-6.88-2.58-9.39-5.36
			c-1.79-1.98-0.96-4.13,1.65-4.72c1.78-0.4,3.5,0.04,5.17,0.56c4.15,1.28,8.4,2.15,12.67,2.88c0.86,0.15,2.1,0.55,2.27-0.75
			c0.18-1.3-1.09-1.2-1.98-1.31c-8.08-1.04-15.63-4.33-23.67-5.59c-1.07-0.17-3.02-0.56-1.73-2.64
			C217.19,214.61,220.65,214.55,223.35,217.03z"/>
		<path class="st3" d="M396.69,393.84c-5.85-0.87-11.65-1.87-16.95-4.76c-2.5-1.36-3.76-3.02-3.58-6.14
			c0.42-7.18,0.73-14.38,0.42-21.57c-0.08-1.86,0.56-2.56,2.35-2.3c0.18,0.03,0.37,0.02,0.55,0.02c3.55,0.05,6.49,0.43,9.45,3.49
			c3.99,4.1,8.77,7.57,13.17,11.37c4.9,4.23,10.81,4.85,16.81,5.3c5.71,0.43,11.39,1.05,16.98,2.32c3.36,0.77,3.42,0.76,1.28,3.65
			c-3.66,4.95-8.25,8.95-13.23,12.48c-3.43,2.43-6.51,5.67-10.91,6.29c-10.29,1.44-20.58,1.64-30.83-0.44
			c-0.9-0.18-1.77-0.5-2.64-0.81c-4.35-1.51-5.01-2.57-4.53-7.12c0.59-5.52,0.59-5.52,5.55-3.39c2.81,1.21,5.69,2.17,8.8,2.15
			c3.85,0.63,7.7-0.18,11.52-0.07c-0.65,0-1.26,0-1.88,0C398.22,394.26,397.37,394.47,396.69,393.84z"/>
		<path class="st3" d="M447.7,227.54c8.07-5.52,16.57-10.33,25.16-14.98c2.91-1.58,5.73-3.35,8.52-5.13c1-0.63,1.92-1.46,2.7-2.35
			c2.95-3.4,1.97-6.65-2.32-8.02c-2.68-0.86-5.51-0.37-8.22-0.97c-0.05-0.6,1.16-0.22,0.79-1.36c-0.54-1.64,1.28-1.51,2.18-2.05
			c4.82-0.31,9.57,0.13,14.22,1.51c5.35,1.59,8.89,5.03,10.68,10.3c0.9,2.63,1.59,5.35,1.66,8.1c0.12,4.57,1.8,8.05,5.59,10.78
			c4.24,3.05,5.33,7.52,4.6,12.55c-0.21,1.46-0.78,1.98-2.19,1.2c-9.21-5.05-18.87-4.01-28.58-2.04c-7.79,1.58-15.29,4.15-22.83,6.6
			c-1.14,0.37-2.3,0.64-3.46,0.95c-2.45-0.46-2.83-2.27-2.8-4.34c4.22-2.79,9.07-4.21,13.69-6.1c3.23-1.32,6.54-2.49,9.9-3.5
			c0.91-0.04,1.68-0.67,2.47-0.66c-1.2,0.3-2.52,0.67-3.81,1.16c-8.32,2.65-16.34,6.05-24.28,9.65c-1.67,0.76-3.38,1.43-5.06,2.16
			c-0.9,0.1-1.52-0.53-2.24-0.9c-5.16-2.62-4.27-5.45-0.39-8.68C445.11,230.24,447.38,229.89,447.7,227.54z"/>
		<path class="st4" d="M415,373.6c-0.51-0.47-0.67-0.76-0.89-0.8c-6.82-1.38-10.91-6.12-14.43-11.62c-1.34-2.1-2.83-4.1-4.21-6.17
			c-0.54-0.81-0.77-1.7-0.03-2.55c0.68-0.78,1.56-0.96,2.52-0.72c1.91,0.49,3.58,1.4,4.93,2.9c2.1,2.34,4.24,4.68,5.71,7.45
			c3.58,6.76,9.83,7.96,16.94,8.46c-1.45-1.68-3.24-2.03-4.8-2.21c-8.73-1-11.28-8.37-15.06-14.42c-0.9-1.45-0.03-2.51,1.75-2.34
			c2.12,0.2,3.74,1.48,5.32,2.76c0.72,0.58,1.48,1.17,1.98,1.92c3.98,6.02,10.49,6.85,16.26,5.7c7.54-1.51,15.41-0.05,22.71-3.21
			c2.86-1.24,5.39,0.24,6.96,2.98c2.62,4.58,2.16,7.47-1.82,10.72c-2.57,2.1-5.3,4.02-7.77,6.22c-2.02,1.8-4.19,1.9-6.65,1.52
			c-7.83-1.23-15.53-3.62-23.47-3.71c-9.36-0.11-16.94-3.49-23.37-10.12c-1.97-2.04-4.45-3.57-6.67-5.38
			c-1.17-0.96-2.49-2.12-1.16-3.67c1.18-1.38,2.85-1.09,4.28-0.14c1.41,0.94,2.35,2.34,3.23,3.75c1.72,2.75,3.7,5.28,5.87,7.68
			C406.18,372.01,409.75,373.58,415,373.6z"/>
		<path class="st3" d="M453.81,238.7c1.12,1.12,2.33,2.19,2.39,3.95c-5.23,1.8-10.46,3.59-15.67,5.42c-1.45,0.51-2.14,0.18-2.51-1.4
			c-0.41-1.78-1.63-2.96-3.58-2.81c-1.81,0.14-3.52,1.17-3.54,2.95c-0.03,3.57-2.4,4.06-4.97,4.66c-0.95,0.22-2.03,0.28-2.87,1.33
			c1.29,1.18,2.79,0.7,4.07,0.43c2.78-0.59,3.46,0.43,3.41,3.13c-0.17,8.3-0.08,16.61-0.09,24.91c-0.89-2.41-0.4-4.92-0.44-7.38
			c-0.08-5.04-0.02-10.08-0.41-15.14c-0.12,0.87-0.19,1.75-0.36,2.61c-0.23,1.17-0.8,2.05-2.13,2.17c-2.01,0.19-4.04,0.68-6.02,0.52
			c-2.46-0.2-4.5-0.08-6.01,2.22c-0.72,1.1-1.95,0.92-2.93,0.13c-1.36-1.09-2.72-1.48-4.27-0.4c-0.76,0.53-1.57,0.48-1.6-0.57
			c-0.09-4.12-0.46-8.26,0.23-12.36c0.07-0.41,0.5-0.76,0.76-1.13c2.23,0.12,4.34,1.41,7,0.79c-1.6-2.09-3.81-2.56-5.75-3.42
			c-1.71-0.76-3.15-1.44-3.81-3.55c-0.73-2.32-2.67-3.28-5.09-2.1c-1.1,0.54-1.91,0.24-2.8-0.37c-4.79-3.3-7.51-7.81-7.71-13.66
			c-0.13-3.8,1.15-7.11,4.24-9.47c3.11-2.38,6.65-3.96,10.48-4.78c1.05-0.22,2.27-0.41,3.04,0.69c0.76,1.09,0.24,2.15-0.33,3.1
			c-1.81,3.02-3.41,6.11-3.91,9.67c-0.69,5,0.74,9.13,4.94,12.09c2.71,1.91,5.57,3.62,8.28,5.52c2.42,1.69,4.48,1.44,6.71-0.45
			c6.61-5.61,13.44-10.94,20.7-15.7c1.45-0.95,2.94-1.85,4.42-2.78c1.9,0.49,1.29,1.34,0.28,2.17c-1.55,1.28-3.29,2.37-4.66,3.81
			c-2.14,2.24-1.91,3.17,0.64,4.95c0.82,0.57,1.54,1.28,2.31,1.92c1.85,0.35,3.16-1.08,4.81-1.45
			C451.99,238.72,452.81,237.84,453.81,238.7z"/>
		<path class="st3" d="M453.81,247.53c0.65,0.88,0.59,1.81,0.45,2.88c-0.51,4.08-0.48,8.15,2.46,11.45c3.37,3.8,3.58,8.56,4.2,13.18
			c0.12,0.87-0.04,1.94-0.47,2.69c-2.16,3.76-3.95,7.6-4.77,11.93c-0.32,1.69-2.19,2.34-3.82,2.04c-3.35-0.62-6.77-0.28-10.12-1.22
			c-1.97-0.55-3.39-1.16-4.05-3.11c0.91-11,0.55-22.02,0.55-33.04c0-1.59,0.39-2.55,2.06-2.99
			C444.82,250.14,449.31,248.81,453.81,247.53z"/>
		<path class="st3" d="M275.34,265.08c5.42,4.19,10.94,4.24,16.11,1.63c7.73-3.91,9.59-11.16,9.26-19.87
			c4.21,4.14,7.32,8.3,7.91,13.82c1.13,10.48-6.5,19.05-17.06,19.32c-2.85,0.07-5.5-0.65-7.79-2.41
			C279.77,274.5,277.11,270.49,275.34,265.08z"/>
		<path class="st18" d="M443.14,357.17c-2.15-1.82-2.72-4.54-3.72-6.95c-6.52-15.68-12.94-31.39-19.69-46.97
			c-1.76-4.07-4.5-5.9-8.96-5.91c-9.87-0.03-19.74-0.15-29.6-0.59c-13.18-0.59-26.35-1.02-39.54-1.14c-2.66-0.02-5.47,0.11-8.05-1
			c1.29-1.76,3.21-1.6,5.03-1.56c17.06,0.34,34.11,0.69,51.17,1.06c7.84,0.17,15.67,0.5,23.51,0.52c4.46,0.01,7.29,1.87,8.93,5.97
			c5.49,13.68,11.05,27.33,16.59,41c1.56,3.84,3.15,7.67,4.69,11.52C444.06,354.48,444.5,355.91,443.14,357.17z"/>
		<path class="st3" d="M468.86,347.17c2.79-9.2,18.78-12.9,26.92-9.02c-3.93,4.55-8.2,8.7-12.58,12.74c-0.43,0.4-0.93,0.72-1.4,0.12
			C478.5,346.68,474.03,345.87,468.86,347.17z"/>
		<path class="st3" d="M455.1,355.1c6.02-2.67,12.08-4.94,18.64-5.56c1.45-0.14,2.7,0.46,3.77,1.41c2.35,2.06,2.37,3.16,0.05,5.22
			c-3.37,2.99-6.78,5.93-10.1,8.98c-1.53,1.4-2.11,1.12-2.56-0.84C463.72,359.15,460.79,355.76,455.1,355.1z"/>
		<path class="st19" d="M399.5,247.51c0.48-0.85,0.7-2.12,2.06-1.79c1.17,0.28,1.43,1.39,1.45,2.43c0.11,4.98,0.18,9.96,0.22,14.94
			c0.04,4.7,0.02,9.41,0.03,14.11c0,0.55,0.04,1.11-0.02,1.66c-0.12,1.21-0.3,2.63-1.64,2.92c-1.39,0.3-1.62-1.2-2.14-2.12
			c-1.37-1.79-0.66-3.85-0.7-5.79c-0.15-7.39-0.19-14.79,0.02-22.18C398.84,250.26,398.74,248.81,399.5,247.51z"/>
		<path class="st20" d="M432.59,264.13c0-4.42-0.01-8.85,0.01-13.27c0-1.01,0.02-2.04,0.18-3.03c0.15-0.97,0.71-1.83,1.79-1.75
			c0.93,0.07,1.33,0.9,1.43,1.78c0.06,0.55,0.05,1.1,0.05,1.66c-0.01,9.49-0.02,18.99-0.03,28.48c0,0.37,0,0.74-0.02,1.11
			c-0.07,1.15-0.3,2.51-1.58,2.55c-1.48,0.05-1.81-1.33-1.81-2.6c-0.02-4.98-0.01-9.96-0.01-14.93
			C432.59,264.13,432.59,264.13,432.59,264.13z"/>
		<path class="st20" d="M444.24,346.26c5.86,0,11.83-0.01,17.81,0.01c0.51,0,1.25-0.05,1.25,0.71c0,0.71-0.65,1.1-1.23,1.37
			c-3.83,1.77-7.83,2.67-12.07,2.51C445.54,350.68,445.21,350.43,444.24,346.26z"/>
		<path class="st3" d="M507.5,325.02c-2.5,3.74-5.37,6.32-7.88,9.21c-0.41,0.47-0.97,0.51-1.52,0.31c-2.66-0.99-5.5-1.17-8.76-1.68
			C494.83,328.65,500.42,326.01,507.5,325.02z"/>
		<path class="st3" d="M476.51,192.68c-1.93,2.1-1.89,2.2,1.37,3.17c-1.72,0.09-3.03,0.16-4.34,0.24
			c-7.78,0.42-15.57,0.84-23.35,1.25C458.54,193.04,467.59,193.25,476.51,192.68z"/>
		<path class="st21" d="M382.87,165.03c0.38,0.01,0.83,1.11,1.14-0.04c0.2-0.78-0.45-1.6,0.16-2.62c2.2,2.54,2.97,5.36,2.34,8.47
			c-0.4,1.97-1,3.96-1.89,5.75c-1.24,2.48-0.98,4.36,1.34,5.93c0.43,0.29,1.08,0.64,0.87,1.26c-0.29,0.84-1.1,0.48-1.68,0.4
			c-2.85-0.39-4.4-2.85-3.58-5.64c0.86-2.9,2.45-5.59,2.65-8.69c0.06-0.99,0.32-2.02-0.46-3.1c-0.3,0.83-0.56,1.54-0.81,2.24
			C382.92,167.68,382.9,166.36,382.87,165.03z"/>
		<path class="st22" d="M399.5,247.51c-0.01,10.71-0.02,21.43-0.03,32.14c-0.75,0.83-1.01,1.85-1.12,2.92
			c-0.19-0.9-0.54-1.79-0.54-2.69c-0.02-9.87,0.02-19.73,0.04-29.6C398.5,249.41,398.29,248.03,399.5,247.51z"/>
		<path class="st3" d="M458.41,215.89c4.33-4.43,8.33-9.45,15.85-8.35c-5.12,2.99-10.24,5.97-15.35,8.96
			C458.74,216.3,458.58,216.1,458.41,215.89z"/>
		<path class="st23" d="M405.57,271.06c0.01,2.31,0.06,4.61,0.03,6.92c-0.02,1.81,0.13,3.42,1.85,4.62
			c1.07,0.74,3.09,1.62,1.53,3.38c-1.26,1.42-3.01,2.66-5.04,0.86C405.39,281.67,405.14,276.33,405.57,271.06z"/>
		<path class="st24" d="M223.35,217.03c-2.57-0.02-5.16-1.4-7.69,0.13c-0.6-0.61-1.2-1.21-1.8-1.82c1.02-1.49,2.55-1.76,4.14-1.5
			c2.43,0.39,4.83,0.95,7.24,1.44C225.31,216.62,224.03,216.5,223.35,217.03z"/>
		<path class="st3" d="M443.11,383.23c-2.02,3-5.09,4.69-7.9,6.7C437.82,387.65,438.76,383.41,443.11,383.23z"/>
		<path class="st23" d="M384.87,290.76c5-0.02,10.01-0.03,15.01-0.05c1,0,2.01,0,2.93,0.49
			C396.82,291.21,390.83,291.55,384.87,290.76z"/>
		<path class="st25" d="M402.75,394.78c-4.46,0.02-8.93,0.54-13.36-0.4c2.42-0.38,4.93,0.45,7.3-0.55c0.94,0,1.88,0,2.82,0.01
			C400.47,394.57,402.04,393.17,402.75,394.78z"/>
		<path class="st3" d="M450.92,354.17c-1.33,1.29-1.75,2.86-3.31,2.51c-0.82-0.18-0.65-1.39-0.38-1.92
			C447.93,353.38,449.18,354.03,450.92,354.17z"/>
		<path class="st26" d="M120.91,213.14c27.96,0,55.91,0,83.87,0c0.65,0,1.3-0.08,1.93,0.02c1.37,0.21,3.51-0.74,3.47,1.87
			c-0.03,2.45-1.84,2.57-3.73,2.57c-57.29-0.02-114.59-0.02-171.88-0.03c-0.73,0-1.49-0.03-2.2-0.2c-1-0.23-1.59-0.93-1.58-1.99
			c0-1.05,0.57-1.82,1.57-1.99c1.17-0.2,2.38-0.23,3.58-0.23C64.26,213.15,92.58,213.15,120.91,213.14
			C120.91,213.14,120.91,213.14,120.91,213.14z"/>
		<path class="st27" d="M91.55,137.34c18.64,0,37.28,0,55.93,0c3.61,0,4.38,0.75,4.38,4.37c-0.01,18.64-0.02,37.28-0.04,55.92
			c0,3.35-1.11,4.44-4.46,4.44c-37.28-0.01-74.57-0.03-111.85-0.05c-3.84,0-4.55-0.69-4.55-4.49c-0.01-18.73-0.01-37.47,0-56.2
			c0-3.36,0.58-3.94,4.12-3.95c18.83-0.02,37.65-0.01,56.48-0.01C91.55,137.36,91.55,137.35,91.55,137.34z"/>
		<path class="st28" d="M110.64,125.17c-25.28,0-50.57,0.02-75.85-0.04c-1.28,0-3.53,0.93-3.61-1.26c-0.08-2.25,2.2-1.43,3.47-1.43
			c50.57-0.04,101.13-0.03,151.7,0.03c1.29,0,3.61-0.84,3.61,1.28c0,2.36-2.42,1.37-3.75,1.37
			C161.02,125.18,135.83,125.17,110.64,125.17z"/>
		<path class="st29" d="M212.05,157.22c-14.31,0-28.62,0-42.93,0c-0.83,0-1.66-0.01-2.49-0.03c-1.57-0.04-2.82-0.63-2.8-2.37
			c0.02-1.69,1.39-1.97,2.76-2.04c0.65-0.03,1.29-0.03,1.94-0.03c28.99,0,57.97-0.01,86.96,0.03c1.87,0,4.74-0.75,4.66,2.32
			c-0.07,2.78-2.82,2.08-4.62,2.09C241.03,157.24,226.54,157.22,212.05,157.22z"/>
		<path class="st7" d="M208.38,184.87c-13.29,0-26.59,0.02-39.88-0.02c-1.86-0.01-4.53,0.44-4.58-2.24
			c-0.06-2.92,2.73-2.12,4.49-2.14c20.58-0.21,41.15-0.36,61.73-0.51c6.26-0.04,12.51,1.07,18.78,0.09
			c0.78-0.12,1.64,0.19,2.45,0.38c1.11,0.25,1.82,0.9,1.76,2.13c-0.06,1.16-0.73,1.92-1.84,2.12c-0.99,0.17-2.02,0.18-3.03,0.18
			C234.97,184.88,221.68,184.87,208.38,184.87z"/>
		<path class="st11" d="M194.93,166.59c8.48,0,16.96,0,25.44,0c0.74,0,1.47,0,2.21,0.01c1.48,0.02,2.86,0.23,2.91,2.14
			c0.04,1.89-1.24,2.25-2.77,2.27c-0.46,0.01-0.92,0.01-1.38,0.01c-17.51,0-35.03,0.02-52.54-0.02c-1.92,0-4.78,0.6-4.85-2.22
			c-0.07-3.07,2.9-2.14,4.72-2.16C177.41,166.54,186.17,166.59,194.93,166.59z"/>
		<path class="st30" d="M193.43,198.23c-8.4,0-16.8,0.01-25.2,0c-0.92,0-1.85-0.03-2.75-0.18c-0.87-0.15-1.53-0.69-1.65-1.63
			c-0.14-1.05,0.38-1.88,1.32-2.18c0.94-0.3,1.98-0.42,2.98-0.42c16.99-0.02,33.97-0.02,50.96,0c0.82,0,1.67,0.04,2.46,0.24
			c1,0.26,1.5,1.06,1.51,2.08c0.01,1.09-0.68,1.72-1.67,1.9c-0.9,0.16-1.83,0.18-2.75,0.18
			C210.23,198.24,201.83,198.23,193.43,198.23z"/>
		<path class="st31" d="M19.45,110.13c0.66,0.01,1.32,0.03,1.99,0.04c-1.81,0.38-1.49,1.82-1.49,3.07
			c-0.01,15.6-0.01,31.19-0.01,46.79c0.01,23.44,0.03,46.88,0.04,70.32c-0.17,0-0.34,0-0.51,0c-0.49-0.86-0.26-1.81-0.26-2.71
			c-0.01-38.26-0.01-76.52,0-114.78C19.21,111.94,18.99,111,19.45,110.13z"/>
		<path class="st32" d="M272,110.7c0.74,1.06,0.64,2.28,0.64,3.47c0,28.87,0.01,62.72,0.01,91.59c0,1.19,0.09,2.41-0.53,3.51
			c-0.06-0.55-0.19-1.09-0.19-1.64c-0.02-29.82-0.03-64.63-0.03-94.45C271.9,112.36,271.96,111.53,272,110.7z"/>
		<path class="st33" d="M230.18,213.19c4.21,0,8.43-0.01,12.64,0.01c0.62,0,1.5-0.02,1.47,0.84c-0.03,0.81-0.9,0.8-1.52,0.82
			C238.52,215.05,234.37,214.27,230.18,213.19z"/>
		<path class="st31" d="M58.01,233.08c-4.83,0-9.65,0-14.48,0C48.36,232.63,53.19,232.6,58.01,233.08z"/>
		<path class="st31" d="M110.64,233.08c-4.64,0-9.28,0-13.92,0C101.36,232.62,106,232.6,110.64,233.08z"/>
		<path class="st31" d="M93.47,233.08c-4.46,0-8.91,0-13.37,0C84.56,232.64,89.01,232.6,93.47,233.08z"/>
		<path class="st31" d="M75.74,233.08c-4.46,0-8.91,0-13.37,0C66.83,232.67,71.29,232.58,75.74,233.08z"/>
		<path class="st34" d="M130.83,94.06c5.06-0.13,10.12,0.24,15.18-0.48c4.13-0.58,8.26,0.47,12.4,0.47c27.2,0.01,54.4,0,81.6,0.03
			c2.04,0,4.04-0.21,6.04-0.57c6.24,1,12.52,0.41,18.79,0.54c5.02,0.11,6.34,1.2,7.08,6.15c1.25,8.31,0.83,8.82-7.42,8.82
			c-81.49,0-162.98,0-244.47-0.01c0-3.03-0.05-6.06,0.01-9.1c0.08-3.86,1.94-5.76,5.78-5.84c10.25-0.21,20.51-0.38,30.76-0.57
			c11.4,0.59,22.8,0.19,34.2,0.26c12.35,0.07,24.7,0.01,37.05,0.03C128.84,93.79,129.87,93.53,130.83,94.06z"/>
		<path class="st35" d="M19.45,110.13c0.01,40.07,0.01,80.14,0.02,120.2c-0.6-1.01-0.55-2.12-0.55-3.23
			c0.01-38.99,0.02-77.98,0.03-116.97C19.12,110.13,19.28,110.13,19.45,110.13z"/>
		<path d="M130.83,94.06c-23.39,0-46.79,0-70.18-0.01c-1.37,0-2.78,0.18-4.05-0.55c2.38-0.76,4.75,0.04,7.13,0.04
			c22.37-0.06,44.74-0.04,67.11-0.04C130.83,93.69,130.83,93.87,130.83,94.06z"/>
		<path class="st36" d="M185.15,320.63c-0.01-1.37,0.09-2.78-0.48-4.09c0,0,0,0,0,0c-0.57-2.62-1.36-5.13-3.48-6.97
			c-2.51-3.32-6.27-4.17-10-4.46c-17.4-1.37-34.84-0.96-52.25-0.36c-9.23,0.32-13.49,5.47-13.54,14.79
			c-0.06,11.9-0.02,23.8,0.02,35.69c0.04,12.03,5.52,17.78,17.56,18.48c0.92,0.05,1.84,0.05,2.77,0.05
			c11.71,0.01,23.43,0.04,35.14,0.02c3.41,0,6.82,0.12,10.22-0.35c8.96-1.25,13.2-5.62,14.02-14.63c0.1-1.1,0.15-2.21,0.14-3.32
			C185.23,343.87,185.2,332.25,185.15,320.63z"/>
		<path class="st37" d="M161.97,59.84c-0.61-0.93-1.17-1.91-1.85-2.79c-1.72-2.18-3.74-2.87-6.2-1.11
			c-0.29,0.21-0.65,0.39-1.01,0.45c-3.22,0.59-4.41,2.49-3.99,5.71c0.15,1.19,0.32,2.93-1.24,3.33c-2.03,0.53-4.24,0.64-6.24-0.2
			c-0.97-0.41-0.77-1.66-0.64-2.52c0.52-3.6-0.78-5.85-4.46-6.55c-0.35-0.07-0.71-0.24-1.01-0.44c-2.26-1.5-4.08-0.89-5.85,0.98
			c-0.89,0.95-1.72,2.72-3.23,2.18c-1.81-0.65-2.95-2.43-4.21-3.9c-0.36-0.42-0.12-0.88,0.2-1.24c0.43-0.48,0.89-0.94,1.34-1.4
			c3.46-3.51,3.3-3.45,1.71-7.94c-0.97-2.73-2.5-3.67-5.34-3.57c-3.93,0.15-5.11-1.68-4.01-5.54c0.23-0.81,0.67-1.29,1.49-1.41
			c0.46-0.07,0.92-0.1,1.38-0.13c4.96-0.29,6.69-1.87,7.63-6.91c0.37-1.96-1.37-2.64-2.25-3.85c-0.73-1.01-2.59-1.64-2.11-2.97
			c0.66-1.8,2.35-3.07,4.04-4.01c1.17-0.66,1.78,0.65,2.48,1.27c3.14,2.8,8.23,2.71,11.21-0.3c1.16-1.17,1-2.78,0.86-4.21
			c-0.29-2.97,1.15-3.6,3.78-3.48c3.95,0.18,4.02,0.15,4.15,3.39c0.06,1.52-0.69,3.51,0.82,4.41c2.19,1.3,4.64,2.32,7.11,2.93
			c1.52,0.37,2.49-1.4,3.45-2.47c1.65-1.85,2.98-2.29,4.9-0.15c2.69,3,2.83,2.87-0.02,5.78c-1.35,1.38-2.92,2.63-1.67,4.98
			c1.4,2.63,1.63,6.31,6.17,5.64c2.12-0.31,4.31-0.32,4.16,3.08c-0.17,3.73-0.08,3.81-3.85,3.96c-1.43,0.05-3.32-0.58-4.13,0.86
			c-1.21,2.13-2.12,4.51-2.73,6.89c-0.31,1.18,1.21,1.96,2.04,2.78c3.53,3.51,3.49,2.62-0.06,6.22
			C164.16,58.23,163.67,59.1,161.97,59.84z"/>
		<path class="st38" d="M84.9,358.84c-0.04,0.34-0.07,0.67-0.11,1.01c-0.14,0.53-0.32,1.06-0.43,1.59
			c-1.36,6.94-5.13,10.64-12.15,11.74c-2.18,0.34-4.4,0.52-6.61,0.53c-13.65,0.06-27.3,0.06-40.95,0.07c-0.65,0-1.29-0.01-1.94-0.04
			c-12.4-0.46-18.11-6.34-18.15-18.77C4.54,342.99,4.55,331,4.58,319.01c0.02-8.5,3.7-12.76,12.06-14.11
			c0.46-0.07,0.91-0.2,1.37-0.2c17.51-0.24,35.04-0.92,52.53,0.51c6.22,0.51,11.43,2.97,13.71,9.44c1.07,9.65,0.28,19.34,0.55,29
			c0.03,1.2,0.07,2.39,0.1,3.59C85.27,351.1,85.26,354.97,84.9,358.84z"/>
		<path d="M84.9,358.84c0-3.87,0-7.74,0-11.61C85.68,351.1,85.71,354.97,84.9,358.84z"/>
		<path class="st39" d="M456.45,330.21c-6.25-5.57-9.55-12.94-12.5-20.56c3.91,6.91,8.56,13.29,13.66,19.35
			C457.6,329.76,457.12,330.08,456.45,330.21z"/>
		<path class="st40" d="M456.45,330.21c0.38-0.41,0.77-0.81,1.15-1.22c2.71,3.09,5.41,6.18,7.2,8.23
			C462.5,335.91,459.25,333.35,456.45,330.21z"/>
		<path class="st41" d="M390.65,326.44c-0.3,3.69-4.05,5.87-7.04,4.46c-1.68-0.79-3.11-1.97-4.21-3.49
			c-1.32-1.83-2.12-3.72-0.38-5.76c1.73-2.04,4.5-2.67,6.7-1.31C388.17,321.86,390.26,323.76,390.65,326.44z"/>
		<path class="st32" d="M410.73,163.07c-2.25,0.69-3.64-0.98-5.61-0.87c0.14,1.34,0.44,2.7-0.05,4c-0.55,1.46-1.39,2.71-3.11,2.65
			c-1.58-0.06-2.3-1.3-2.82-2.66c-0.52-1.35,0.56-3.31-1.7-4.06c-0.48-0.16,0.17-1.15,0.59-1.61c1.67-1.82,3.81-2.21,6.05-1.58
			C406.53,159.63,408.85,160.68,410.73,163.07z"/>
		<path class="st42" d="M390.44,191.15c5.11-0.7,10.29-1.28,13.41-6.21c0.66-1.04,1.25-0.4,1.77-0.08c0.64,0.4,1.2,1.13,0.53,1.83
			c-4.41,4.66-9.19,8.59-16.24,7.68c-0.18-0.02-0.37-0.02-0.55-0.07c-1.13-0.34-2.66-0.55-2.47-2.06c0.18-1.49,1.65-1.08,2.72-1.08
			C389.89,191.16,390.17,191.15,390.44,191.15z"/>
		<path class="st42" d="M402.03,149.28c3.18-0.02,6.21,0.58,8.92,2.32c0.68,0.44,1.65,0.95,1.17,1.89
			c-0.42,0.84-1.25,0.22-1.93,0.02c-4.26-1.27-8.49-1.29-12.67,0.41c-0.76,0.31-1.55,0.63-2.35,0.75c-1.4,0.21-2.31-0.52-2.62-1.86
			c-0.3-1.29,0.64-1.84,1.65-2.14C396.76,149.92,399.33,149.25,402.03,149.28z"/>
		<path class="st43" d="M444.86,160.52c1.06-0.06,2.02,0.16,2.69,1.06c0.39,0.52,0.83,1.16,0.51,1.77c-0.53,1-1.08-0.01-1.56-0.18
			c-1.5-0.54-2.69-0.12-3.73,0.97c-1.05,1.1-0.21,1.99,0.3,2.95c1.49,2.79,0.42,6.04-2.3,7.09c-0.8,0.31-1.62,0.48-2.34-0.14
			c-0.7-0.6-0.43-1.39-0.14-2.04c0.76-1.67,0.47-3.42,0.55-5.15C439.02,163.31,441.62,160.59,444.86,160.52z"/>
		<path class="st12" d="M256.13,344.26c0.02-1.72-0.56-3.05-2.21-3.77c-0.35,0.06-0.7,0.12-1.05,0.18
			c-0.87,0.79-0.79,1.79-0.64,2.81c0.22,1.46,0.22,2.94,0.2,4.41c-0.05,4.16-0.93,5.07-5.01,5.14c-2.49,0.04-4.98-0.03-7.46,0.03
			c-1.45,0.04-2.97-0.24-4.26,0.74c-0.02,0.03-0.04,0.06-0.05,0.09c-0.47-0.36-1.06-0.33-1.68-0.08c-2.23,0.9-4.41,1.08-6.63-0.1
			c-0.7-0.37-1.38-0.33-1.9,0.16c-0.14-0.14-0.29-0.27-0.44-0.41c-1.92-0.88-3.64,0.85-5.52,0.41c-0.9-0.69-1.06-1.68-1.07-2.72
			c-0.01-6.45,0-12.89-0.02-19.34c-0.01-1.93,0.83-2.85,2.81-2.91c4.23-0.12,8.45-0.35,12.68-0.54c0.37-0.74,0.54-1.46-0.09-2.16
			c-4.7-0.01-9.4-0.01-14.1-0.04c-2.15-0.02-3.81,0.85-3.84,3.07c-0.1,8.01-0.06,16.03,0.08,24.04c0.04,2.27,1.51,3.45,3.84,3.44
			c1.93-0.01,3.87,0.01,5.8,0.02v0c0.72,1.49,0.37,3.07,0.46,4.62c0.08,1.4-1.1,3.45,0.28,4.05c1.38,0.6,2.52-1.45,3.82-2.25
			c2.69-1.67,3.9-4.83,6.63-6.43c0,0,0,0,0,0c5.16,0,10.31,0,15.47,0c2.61,0,3.91-1.27,3.9-3.9
			C256.1,349.97,256.1,347.12,256.13,344.26z"/>
		<path class="st44" d="M273.96,323.32c0.15-2.25,0.08-4.48,0.05-6.72c-0.04-3.46-0.62-3.98-3.89-4.43
			c-6.35-0.86-12.69,0.05-19.04,0.01c-0.28,0.27-0.47,0.5-0.61,0.7c-2.38,0.08-4.77-0.16-7.15,0.26c-1.94,0.35-2.88,1.33-2.82,3.37
			c0.08,2.54,0.02,5.09,0.01,7.63c-0.27,0.11-0.55,0.33-0.85,0.67c-0.42,2.29-0.21,4.61-0.2,6.92c0.01,1.5,0.74,2.28,2.02,2.83
			c1.18,0.51,2.37,0.7,3.58,0.77c-1.02-0.05-2.04-0.19-3.05-0.53c-0.66-0.22-1.25,0.14-1.57,0.81c1.95,0.86,4.02,0.53,5.98,0.35
			c6.46-0.59,12.25,0.38,16.41,5.98c0.16,0.22,0.41,0.38,0.63,0.53c1.11,0.75,2.21,2.49,3.41,1.84c1.16-0.63-0.01-2.33-0.18-3.53
			c-0.62-4.43-0.54-4.58,3.98-4.71c1.94-0.06,3.73-0.31,4.22-2.65C274.49,330.07,273.74,326.73,273.96,323.32z M245.57,335.34
			c-0.07,0-0.15,0-0.22-0.01C245.42,335.34,245.5,335.34,245.57,335.34z M250.7,335.31c0.01,0,0.01,0,0.02,0
			C250.71,335.31,250.7,335.31,250.7,335.31z"/>
		<path class="st44" d="M274.9,313.68C274.9,313.68,274.9,313.69,274.9,313.68C274.9,313.69,274.9,313.68,274.9,313.68
			c-0.76-2.02-2.4-2.64-4.34-2.64c-9.42-0.01-18.83-0.04-28.25,0.04c-2.71,0.02-3.83,1.24-3.84,3.98c-0.03,5.63,0,11.26,0.04,16.89
			c0.01,1.54,0.34,2.95,1.94,3.66c4.57,0,9.14,0,13.71,0c-2.79-0.59-5.58-0.53-8.37-0.6c-3.5-0.09-5.21-1.84-5.26-5.27
			c-0.02-1.74,0-3.49,0-5.23c1.98-1.24,1.26-3.26,1.34-4.99c0.2-4.03,1.03-4.97,5.01-5.28c1.32-0.1,2.82,0.19,3.61-1.36
			c4.96,0,9.92-0.2,14.86,0.04c8.63,0.42,7.75,0.5,7.86,7.87c0.06,4.27-0.67,8.65,1.68,12.61c0,0,0,0.01,0,0.01l0.01,0.01
			c0-0.01-0.01-0.01-0.01-0.02C275.49,326.83,275.41,320.26,274.9,313.68z"/>
		<path class="st45" d="M249.91,225.99c0.74,2.68,0.45,5.01,0.47,7.26c0.02,2.27,2.48,3.77,2.04,6.6
			C247.83,234.39,246.99,230,249.91,225.99z"/>
		<path class="st46" d="M266.86,230.21c3.26,0.79,6.46,1.6,9.8,1.61c0.52,0,1.23-0.01,1.23,0.75c-0.01,0.69-0.66,0.83-1.21,0.86
			C272.99,233.64,269.63,232.81,266.86,230.21z"/>
		<path class="st10" d="M402.75,394.78c-1.08-0.31-2.16-0.63-3.24-0.94c1.92,0,3.83,0,6.15,0
			C404.67,395.11,403.66,394.78,402.75,394.78z"/>
		<path class="st32" d="M453.81,238.7c-2.86,1.13-5.72,2.26-8.83,3.5c0.06-1.19,0.97-1.28,1.29-1.82
			c9.63-4.57,19.29-9.06,29.67-11.75c0.61-0.07,1.46-0.87,1.6,0.51C469.5,232.03,461.51,234.99,453.81,238.7z"/>
		<path class="st47" d="M477.53,229.14c-0.53-0.17-1.07-0.34-1.6-0.51c1.66-0.77,3.41-1.12,5.87-1.31
			C480.19,228.53,478.85,228.82,477.53,229.14z"/>
		<path class="st22" d="M398.16,227.89c-1.02-4.21,0.62-7.76,4.85-10.15C400.79,221.3,399.32,224.55,398.16,227.89z"/>
		<path class="st48" d="M150.76,169.65c0,8.95-0.09,17.91,0.06,26.86c0.05,2.83-0.99,4.08-3.73,4.27c-4.31,0.3-8.63,0.06-12.94,0.08
			c-32.12,0.18-64.24,0.1-96.36,0.1c-5.2,0-5.55-0.36-5.56-5.44c0-17.44-0.01-34.89,0-52.33c0-3.99,0.25-4.24,4.24-4.24
			c36.64-0.01,73.29-0.01,109.93,0c4.14,0,4.35,0.21,4.35,4.41C150.76,152.11,150.76,160.88,150.76,169.65z"/>
		<path class="st49" d="M33.9,101.12c0.01,2.15-1.64,3.79-3.56,3.69c-2.14-0.11-3.35-1.38-3.51-3.48c-0.14-1.78,1.7-3.5,3.54-3.4
			C32.52,98.06,33.59,99.38,33.9,101.12z"/>
		<path class="st50" d="M39.79,101.16c0.2-2.06,1.37-3.13,3.28-3.09c2.05,0.04,3.28,1.28,3.22,3.36c-0.05,1.97-1.38,3.04-3.26,3.04
			C40.94,104.45,39.95,103.11,39.79,101.16z"/>
		<path class="st51" d="M52.5,101.38c0.09-1.89,1.02-3.21,2.95-3.27c2.01-0.07,3.29,1.18,3.34,3.2c0.06,1.95-1.21,3.1-3.08,3.13
			C53.84,104.48,52.71,103.34,52.5,101.38z"/>
		<path class="st8" d="M120.8,347.77c2.61-2.15,5.61-0.99,8.43-0.85c1.03,0.05,1.06,1.34,1.06,2.29c0.01,2.3,0.11,4.61,0,6.91
			c-0.1,2.07,1.12,2.14,2.64,2.15c1.54,0.01,2.72-0.13,2.7-2.15c-0.04-5.44,0.11-10.88,0.02-16.31c-0.04-2.25,0.71-3.17,3.03-3.12
			c6.95,0.13,6.16-0.56,6.15,6c-0.01,4.15,0.13,8.3,0.07,12.44c-0.03,2.07,0.35,3.19,2.84,3.22c2.76,0.03,2.61-1.54,2.58-3.39
			c-0.06-3.32,0.01-6.64-0.06-9.95c-0.04-2.01,0.85-2.83,2.83-2.79c7.52,0.16,6.49-0.49,6.54,6.26c0.02,2.49,0.15,4.98,0.01,7.46
			c-0.12,2.24,1.19,2.26,2.8,2.31c1.69,0.05,2.8-0.16,2.77-2.32c-0.11-7.28-0.06-14.56-0.1-21.84c-0.01-1.31-0.05-2.6,1.16-3.5
			c1.48-0.01,2.95-0.02,4.43-0.02c3.64,0,3.8,0.18,3.8,3.71c0,7.01,0.05,14.03,0,21.04c-0.01,1.89,0.18,3.33,2.64,3
			c0.96-0.13,2.07,0.15,2.07,1.3c0,1.41-1.27,1.34-2.28,1.34c-10.8,0.01-21.6,0.02-32.4,0.02c-7.85,0-15.69,0-23.54-0.01
			c-1.01,0-2.03-0.04-3.04-0.12c-0.92-0.08-2.06-0.17-2.01-1.39c0.05-1.26,1.24-1.26,2.13-1.14c2.47,0.33,2.97-0.91,2.82-3.06
			C120.75,352.76,120.83,350.26,120.8,347.77z"/>
		<path class="st52" d="M170.69,314.05c-0.18,2.75-0.36,5.5-0.53,8.25c-0.05,0.73,0.1,1.56-0.81,1.86c-0.89,0.3-1.1-0.6-1.37-1.05
			c-1.48-2.43-2.79-1.87-4.42-0.07c-2.79,3.06-5.78,5.94-8.6,8.97c-1.35,1.45-2.47,1.5-3.97,0.19c-2.49-2.19-5.18-4.14-7.65-6.35
			c-1.31-1.17-2.25-1.07-3.53,0c-5.31,4.41-10.66,8.78-16.07,13.08c-1.12,0.89-2.29,2.35-4.08,1.11c0.06-1.45,1.09-2.28,2.02-3.17
			c5.99-5.73,12.03-11.4,17.96-17.19c1.56-1.53,2.67-1.4,4.18-0.01c2.37,2.18,4.94,4.14,7.32,6.31c1.15,1.04,1.97,0.99,3-0.09
			c2.35-2.46,4.73-4.91,7.17-7.28c1.1-1.07,1.26-1.86-0.08-2.81c-0.57-0.4-1.23-0.97-0.85-1.84c0.31-0.7,1.06-0.67,1.68-0.72
			c2.02-0.16,4.04-0.24,6.06-0.42C169.26,312.69,170.05,313.17,170.69,314.05z"/>
		<path class="st53" d="M144.94,23.74c7.48,0.01,13.41,6.21,13.42,14.04c0.01,7.21-6.45,13.53-13.78,13.49
			c-7.39-0.04-13.64-6.25-13.69-13.59C130.85,29.65,136.81,23.73,144.94,23.74z"/>
		<path class="st54" d="M36.11,318.42c1.62,2.13,0.99,4.62,0.99,6.95c-0.01,8.65,1.25,7.47-7.64,7.55
			c-3.68,0.04-7.37-0.02-11.05,0.01c-1.99,0.02-2.82-0.9-2.8-2.86c0.04-4.51,0.01-9.03,0-13.54c0-1.44,0.37-2.65,2.09-2.65
			c5.16,0.01,10.31,0.06,15.47,0.14c0.42,0.01,0.84,0.33,1.27,0.51c0.57,1.39-0.1,2.11-1.36,2.52c-3.29-0.25-6.59-0.08-9.88,0.04
			c-2.37,0.09-3.63,1.49-3.91,3.83c-0.02,0.18-0.01,0.37-0.01,0.55c0.1,6.08,0.65,8.03,8.33,7.28c2.12-0.21,4.96,0.7,5.74-2.37
			c0.53-2.08,0.86-4.31,0.23-6.51C33.96,318.62,34.66,317.88,36.11,318.42z"/>
		<path class="st55" d="M60.47,347.68c-4.06,0-8.11,0.02-12.17-0.01c-1.36-0.01-3.15,0.13-3.13-1.81c0.02-1.82,1.76-1.54,3-1.54
			c8.11-0.02,16.23-0.02,24.34,0.02c1.3,0.01,3.24-0.39,3.25,1.58c0.02,2.16-2.04,1.71-3.41,1.73c-3.96,0.07-7.93,0.03-11.89,0.03
			C60.47,347.67,60.47,347.68,60.47,347.68z"/>
		<path class="st37" d="M60.19,320.01c4.23,0,8.47-0.01,12.7,0c1.21,0,2.7-0.03,2.77,1.56c0.08,1.84-1.53,1.77-2.82,1.78
			c-8.19,0.03-16.38,0.03-24.57,0.04c-0.28,0-0.55-0.01-0.83-0.03c-1.19-0.09-2.34-0.42-2.25-1.85c0.09-1.28,1.23-1.45,2.29-1.46
			c4.23-0.01,8.47,0,12.7,0C60.19,320.03,60.19,320.02,60.19,320.01z"/>
		<path class="st56" d="M58.35,351.52c3.6,0,7.2-0.01,10.79,0.01c1.12,0.01,2.47,0.02,2.54,1.5c0.08,1.61-1.25,1.86-2.52,1.87
			c-7.2,0.02-14.4,0.02-21.6,0c-1.16,0-2.37-0.26-2.39-1.71c-0.01-1.48,1.21-1.68,2.38-1.68c3.6-0.02,7.19-0.01,10.79-0.01
			C58.35,351.5,58.35,351.51,58.35,351.52z"/>
		<path class="st57" d="M16.65,356.66c-1.25-0.62-1.08-1.73-0.99-2.82c0.47-2.37,0.1-4.77,0.22-7.16c0.04-0.73-0.12-1.49,0.15-2.2
			c0.27-0.72,0.69-1.38,1.59-1.25c0.78,0.12,0.92,0.8,1,1.47c0.3,2.46,0.81,4.88,1.79,7.16c1.9,1.54,4.13,1.7,6.42,1.49
			c0.24-0.02,0.46,0.03,0.72-0.02c6.14-1.12,7.22-2.73,6.04-9.08c0.41-1.28,1.12-2.05,2.58-1.44c1.47,4.62,1.65,9.24,0.07,13.87
			C29.7,357.05,23.17,357.09,16.65,356.66z"/>
		<path class="st31" d="M36.11,318.42c-0.7,0.41-1.28,0.94-1.67,1.67c-0.76,4.4-4.25,6.5-7.45,8.86c-0.21,0.15-0.44,0.12-0.69,0.14
			c-3.11,0.33-7.78-4.14-7.49-7.22c0.24-2.56,1.95-3.37,4.24-2.01c2.88,1.71,3.63,1.66,5.8-1.02c1.1-1.36,2.35-2.27,4.05-2.6
			c0.67-0.42,1.2-0.98,1.54-1.7c1.01-0.69,2.02-1.9,3.26-0.48c1.15,1.32,0.04,2.33-0.7,3.33C36.73,317.76,36.4,318.08,36.11,318.42z
			"/>
		<path class="st34" d="M36.15,342.82c-0.75,0.36-1.35,0.88-1.72,1.65c-0.73,4.46-4.43,6.48-7.49,9c-0.2,0.17-0.83,0.12-1.3,0.08
			c-2.51-0.21-7.02-4.96-6.98-7.47c0.02-1.07,0.37-2.07,1.36-2.53c1.04-0.49,2.11-0.31,3.13,0.34c3.27,2.05,3.34,2.07,5.77-0.96
			c1.05-1.31,2.75-1.88,3.57-3.38c0.53-0.46,1.31-0.33,1.84-0.77c1.1-0.4,2.3-1.78,3.34-0.18
			C38.92,340.48,36.91,341.48,36.15,342.82z"/>
		<path class="st58" d="M58.52,330.63c-3.59,0-7.17,0.02-10.76-0.01c-1.22-0.01-2.63-0.09-2.63-1.72c0-1.66,1.44-1.66,2.65-1.67
			c7.08-0.02,14.16-0.01,21.24,0.01c1.22,0,2.64,0.07,2.64,1.7c-0.01,1.65-1.45,1.65-2.66,1.66c-3.49,0.03-6.99,0.01-10.48,0.01
			C58.52,330.62,58.52,330.63,58.52,330.63z"/>
		<path class="st58" d="M34.35,338.76c-0.07,0.65-0.45,1.04-1.04,1.26c-2.13,1.4-4.54,1.39-6.96,1.38
			c-1.46-0.01-2.94-0.14-4.36,0.31c-2.43,0.79-3.45,3.08-2.79,5.99c0.52,2.28,1.17,4.59-0.69,6.63c-1.32-2.04-0.49-4.31-0.71-6.47
			c-0.12-1.16,0.27-2.38-0.4-3.68c-1.36,0.72-1.16,1.96-1.24,3.09c-0.16,2.19,0.4,4.43-0.5,6.56c-0.01-4.32-0.02-8.64-0.04-12.97
			c0-1.28,0.26-2.65,1.75-2.7C23.04,337.99,28.74,337.31,34.35,338.76z"/>
		<path class="st58" d="M16.65,356.66c6.52,0.01,13.05,0.02,19.57,0.03C29.7,357.38,23.17,357.37,16.65,356.66z"/>
		<path class="st4" d="M84.03,190.64c-3.88-0.42-3.88-0.42-2.89-3.94c3.3-11.71,6.59-23.41,9.89-35.12
			c0.75-2.67,4.03-3.98,6.43-2.57c1.25,0.73,0.58,1.8,0.33,2.71c-2.09,7.55-4.23,15.08-6.34,22.62c-1.29,4.61-2.66,9.21-3.83,13.85
			C87.07,190.4,86.12,191.49,84.03,190.64z"/>
		<path class="st4" d="M59.14,171.31c4.52,2.62,8.58,4.95,12.62,7.32c0.85,0.5,2.01,0.85,2.04,2.05c0.03,1.41,0.76,3.12-0.62,4.14
			c-1.28,0.95-2.41-0.31-3.49-0.92c-5.7-3.21-11.37-6.48-17.06-9.7c-3.35-1.89-3.44-3.77-0.04-5.77c5.8-3.4,11.67-6.69,17.55-9.95
			c1.08-0.6,2.69-2.13,3.44-0.17c0.59,1.56,1.3,3.88-0.92,5.2c-3.33,1.97-6.72,3.84-10.07,5.77
			C61.61,169.82,60.68,170.39,59.14,171.31z"/>
		<path class="st4" d="M120.2,171.04c-4.09-2.36-8.14-4.7-12.19-7.05c-0.86-0.5-1.99-0.85-1.96-2.08c0.04-1.41-0.69-3.11,0.8-4.11
			c1.35-0.91,2.42,0.34,3.49,0.95c5.52,3.17,11.03,6.35,16.5,9.59c3.74,2.21,3.69,3.92,0.01,6.03c-5.6,3.21-11.17,6.46-16.77,9.68
			c-1.23,0.7-2.83,2.11-3.74,0.17c-0.75-1.61-1.13-3.85,1.05-5.15c3.33-1.98,6.71-3.87,10.03-5.85
			C118.34,172.67,119.41,172.27,120.2,171.04z"/>
		<path class="st59" d="M155.85,37.5c0.01,6.36-4.84,11.2-11.19,11.17c-6.39-0.04-11.28-4.82-11.35-11.12
			c-0.08-6.26,5.05-11.37,11.43-11.39C150.92,26.15,155.84,31.17,155.85,37.5z"/>
		<path class="st60" d="M32.9,316.24c-1.89,2.12-3.82,4.21-5.67,6.38c-0.97,1.14-1.75,1.39-2.83,0.12c-0.7-0.83-1.65-1.46-2.51-2.14
			c-0.86-0.67-1.53-0.2-2.16,0.42c-0.63,0.61-0.74,1.36-0.14,1.95c1.76,1.74,3.55,3.45,5.43,5.05c1.07,0.91,1.89-0.08,2.57-0.78
			c2.31-2.36,4.56-4.77,6.84-7.17c0.8,2.71,0.29,5.47,0.38,8.21c0.04,1.29-0.78,1.75-1.97,1.75c-4.24,0-8.48,0-12.72,0.01
			c-1.44,0.01-1.93-0.79-1.92-2.1c0.04-3.32,0.07-6.64,0.08-9.95c0-1.17,0.4-1.98,1.7-2.04C24.29,315.75,28.61,315.35,32.9,316.24z"
			/>
		<path class="st61" d="M18.51,354.35c-0.62-4.11-0.09-8.25-0.24-12.37c-0.06-1.67,1.06-1.94,2.37-1.94
			c4.22-0.01,8.45-0.01,12.67-0.02c-2.01,2.27-4.08,4.5-6.01,6.84c-1.07,1.31-1.83,1.13-2.84-0.01c-0.66-0.75-1.49-1.37-2.29-1.99
			c-0.77-0.6-1.54-0.51-2.21,0.22c-0.65,0.72-0.76,1.53-0.07,2.22c1.76,1.76,3.53,3.51,5.4,5.15c0.99,0.87,1.72-0.14,2.32-0.76
			c2.31-2.38,4.56-4.82,6.83-7.24c0.81,2.68,0.41,5.43,0.39,8.15c-0.01,1.74-1.39,1.65-2.59,1.66
			C27.67,354.31,23.09,354.32,18.51,354.35z"/>
	</g>
</g>
</svg>
