<?xml version="1.0" encoding="utf-8"?>
<!-- Generator: Adobe Illustrator 24.3.0, SVG Export Plug-In . SVG Version: 6.00 Build 0)  -->
<svg version="1.1" id="Layer_1" xmlns="http://www.w3.org/2000/svg" xmlns:xlink="http://www.w3.org/1999/xlink" x="0px" y="0px"
	 viewBox="0 0 564.27 478" style="enable-background:new 0 0 564.27 478;" xml:space="preserve">
<style type="text/css">
	.st0{fill:#00B0FB;}
	.st1{fill:#FFFFFF;}
	.st2{fill:#00B0FB;fill-opacity:0.4;}
	.st3{fill:#DBDBDB;}
	.st4{fill:#FDFDFD;}
	.st5{fill:#292929;}
	.st6{fill:#A7A7A7;}
	.st7{fill:#D1D1D1;}
	.st8{fill:#2C2C2C;}
	.st9{fill:#818181;}
	.st10{fill:#5C5C5C;}
	.st11{fill:#D2D2D2;}
	.st12{fill:#686868;}
	.st13{fill:#404040;}
	.st14{fill:#3C3C3C;}
	.st15{fill:#D4D4D4;}
	.st16{fill:#414141;}
	.st17{fill:#DADADA;}
	.st18{fill:#FCFCFC;}
	.st19{fill:#F7F7F7;}
	.st20{fill:#F9F9F9;}
	.st21{fill:#1D1D1D;}
	.st22{fill:#1B1B1B;}
	.st23{fill:#ABABAB;}
	.st24{fill:#252525;}
	.st25{fill:#2D2D2D;}
	.st26{fill:#CCCCCC;}
	.st27{fill:#232323;}
	.st28{fill:#5D5D5D;}
	.st29{fill:#CFCFCF;}
	.st30{fill:#CECECE;}
	.st31{fill:#2E2E2E;}
	.st32{fill:#161616;}
	.st33{fill:#BEBEBE;}
	.st34{fill:#383838;}
	.st35{fill:#111111;}
	.st36{fill:#E7E7E7;}
	.st37{fill:#7C7C7C;}
	.st38{fill:#E3E3E3;}
	.st39{fill:#535353;}
	.st40{fill:#434343;}
	.st41{fill:#030303;}
	.st42{fill:#171717;}
	.st43{fill:#141414;}
	.st44{fill:#2A2A2A;}
	.st45{fill:#1F1F1F;}
	.st46{fill:#272727;}
	.st47{fill:#545454;}
	.st48{fill:#3D3D3D;}
	.st49{fill:#FAFAFA;}
	.st50{fill:#EEEEEE;}
	.st51{fill:#F0F0F0;}
	.st52{fill:#303030;}
	.st53{fill:#282828;}
	.st54{fill:#6F6F6F;}
	.st55{fill:#7B7B7B;}
	.st56{fill:#787878;}
	.st57{fill:#6D6D6D;}
	.st58{fill:#777777;}
	.st59{fill:#F6F6F6;}
	.st60{fill:#E5E5E5;}
	.st61{fill:#E6E6E6;}
	.st62{fill:#9E9E9E;}
	.st63{fill:#202020;}
	.st64{fill:#444444;}
	.st65{fill:#454545;}
	.st66{fill:#3F3F3F;}
	.st67{fill:#FBFBFB;}
	.st68{fill:#E9E9E9;}
	.st69{fill:#F4F4F4;}
	.st70{fill:#F2F2F2;}
	.st71{fill:#D3D3D3;}
	.st72{fill:#222222;}
	.st73{fill:#353535;}
	.st74{fill:#F3F3F3;}
	.st75{fill:#333333;}
	.st76{fill:#616161;}
	.st77{fill:#363636;}
	.st78{fill:#4F4F4F;}
	.st79{fill:#A2A2A2;}
	.st80{fill:#343434;}
	.st81{fill:#393939;}
	.st82{fill:#A4A4A4;}
	.st83{fill:#A5A5A5;}
	.st84{fill:#484848;}
	.st85{fill:#494949;}
	.st86{fill:#4B4B4B;}
	.st87{fill:#474747;}
	.st88{fill:#AFAFAF;}
	.st89{fill:#E8E8E8;}
	.st90{fill:#ACACAC;}
	.st91{fill:#DFDFDF;}
	.st92{fill:#4D4D4D;}
	.st93{fill:#626262;}
	.st94{fill:#E2E2E2;}
	.st95{fill:#515151;}
	.st96{fill:#6E6E6E;}
	.st97{fill:#131313;}
	.st98{fill:#AAAAAA;}
	.st99{fill:#EFEFEF;}
	.st100{fill:#707070;}
	.st101{fill:#767676;}
	.st102{fill:#646464;}
	.st103{fill:#9C9C9C;}
	.st104{fill:#A6A6A6;}
	.st105{fill:#121212;}
	.st106{fill:#181818;}
	.st107{fill:#191919;}
	.st108{fill:#151515;}
	.st109{fill:#ECECEC;}
	.st110{fill:#A1A1A1;}
	.st111{fill:#9A9A9A;}
	.st112{fill:#EAEAEA;}
	.st113{fill:#2B2B2B;}
	.st114{fill:#1E1E1E;}
	.st115{fill:#C1C1C1;}
	.st116{fill:#C3C3C3;}
	.st117{fill:#EDEDED;}
	.st118{fill:#F8F8F8;}
	.st119{fill:#565656;}
	.st120{fill:#ADADAD;stroke:#000000;stroke-width:2;stroke-linecap:round;stroke-linejoin:round;stroke-miterlimit:10;}
	.st121{fill:#ADADAD;}
</style>
<g>
	<path class="st108" d="M439.79,129.2c-0.88-1.64-2.06-3.02-3.83-4.48c3.51-0.35,6.1,0.9,8.61,2.47c1.89,1.18,3.93,2.4,4.87,4.38
		c1.86,3.9,4.81,4.81,8.87,4.81c4.08-0.01,7.68,1.87,10.33,5.16c0.81,1.01,1.68,2.03,1.67,3.75c-2.22-1.37-4.42-2.31-7.69-2.27
		c4.56,2.78,8.25,5.64,10.26,10.03c2.08,4.53,2.41,9.05-0.26,13.81c-0.74-1.33-0.15-2.63-1.27-3.77c-0.02,5.04-2.04,9.28-3.87,13.58
		c-1.02,2.4-1.07,4.99-1.55,7.5c-0.67,3.55-2.12,6.58-5.56,8.19c-1.15,0.54-1.51,1.45-1.7,2.48c-0.72,3.94-0.84,7.88-0.13,11.85
		c0.35,1.98,1.22,2.54,3.22,2.11c10.15-2.17,20.41-3.12,30.79-2.56c4.34,0.23,8.62,0.74,12.63,2.58c5.68,2.61,8.67,7.02,8.87,13.29
		c0.03,0.79,0.08,1.59,0.02,2.38c-0.36,4.65,1.27,8.45,4.12,12.17c1.98,2.58,3.81,3.39,6.94,3.05c5.65-0.61,11.38-0.52,16.63,2.06
		c16.8,8.24,5.16,37.81,3.99,40.31c-8.92,19.12-20.93,36.17-35.01,51.79c-26.56,29.47-57.69,53.15-92.15,72.62
		c-31.8,17.97-65.28,31.9-100.63,41.05c-20.88,5.41-42.13,8.98-63.86,8.38c-7.17-0.2-14.25-1.09-21.14-3.17
		c-1.7-0.51-3.31-1.2-4.87-2.05c-7.53-4.12-10.24-10.02-8.26-18.35c1.89-7.96,6.11-14.82,10.68-21.43
		c10.76-15.58,24.04-28.88,38.04-41.49c4.26-3.84,8.68-7.52,13.17-11.08c1.56-1.24,1.67-2.26,0.93-3.94
		c-5.84-13.42-11.61-26.88-17.39-40.32c-1.92-4.46-3.84-8.91-5.7-13.39c-0.5-1.21-0.91-2.5-1.12-3.79c-0.55-3.4,1.08-5.85,4.38-6.86
		c1.63-0.5,3.31-0.49,4.99-0.43c14.91,0.6,29.83,1.13,44.73,1.88c3.04,0.15,4.83-0.54,6.55-3.3c3.47-5.56,6.27-11.44,9.21-17.26
		c1.99-3.94,4.65-7.31,8.37-9.71c2.06-1.33,3.27-3.16,3.97-5.41c2.67-8.56,8.16-14.26,16.86-16.76c1.34-0.38,2.56-0.9,1.96-2.75
		c-1.88-5.8-1.43-11.89-2.16-17.83c-0.22-1.75-0.35-3.51-0.52-5.27c-0.29-3.12,0.38-5.81,3.38-7.44c1.22-0.66,1.3-1.79,1.26-2.97
		c-0.13-3.88,1.38-6.83,4.87-8.69c2.43-1.3,3.83-3.55,5.39-5.71c1.96-2.72,3.54-5.93,8.03-5.26c1.71,0.26,2.15-2.27,3.03-3.61
		c1.44-2.16,1.36-2.22-0.26-4.33c-0.91,0.4,0.24,1.41-0.72,1.95c-5.8-3.93-5.69-9.73-4.7-16.12c-4.04,2.38-5.96,5.75-6.78,9.88
		c-3.51-3.53-3.24-9.68,0.63-15.17c0.25-0.18,0.65-0.42,0.39-0.7c-0.28-0.3-0.75-0.16-1.1,0.1c-1.29,0.14-2.39,1.17-4.02,0.75
		c2.03-3.91,6.2-4.65,9.6-6.84c-4.25-0.79-8.35-1.43-11.6-5.28c8.53,0.39,16.11-1.11,22.84-6.44c-3.19-1.42-6.7-2.07-8.6-5.82
		c8.48,1.33,16.34-0.44,24.61-2.08c-1.66-1.04-3.23-0.97-4.68-1.29c-1.53-0.34-3.17-0.16-4.96-1.06c2.58-1.64,5.22-2.08,7.89-2.41
		c7.8-0.95,15.25,0.68,22.61,3.08c1.17,0.38,2.37,0.67,3.55,1.01c0.28,0.14,0.6,0.39,0.81-0.04c0.04-0.07-0.27-0.32-0.42-0.48
		c-1.31-1.73-3.46-2.31-5.08-3.69c4.57-1.23,9.25,0.21,16.44,5.03c0.17,0.27,0.33,0.54,0.5,0.82
		C440.11,130.02,439.93,129.61,439.79,129.2z M371.02,286.33c-0.47,0.48-0.65,1.03-0.41,1.68c-2.76,3.95-5.38,7.96-5.16,13.08
		c0.15,3.53,0.32,7.05-1.02,10.43c-0.28,0.7-0.06,1.36,0.21,2.04c2.24,5.61,4.45,11.23,6.69,16.9c0.81-0.72,1.02-1.68,1.32-2.59
		c3.02-9.12,2.35-18.21-0.28-27.27c-1.19-4.12-2.65-8.2-1.82-12.62c0.51-0.47,0.51-1.06,0.42-1.68c0.2-0.17,0.4-0.33,0.6-0.5
		c1.18,0.72,1.13,1.97,1.09,3.06c-0.2,6.39,2.65,11.9,5.02,17.61c1.48-13.17,3.26-26.23,8.19-38.89c0.71,0.84,0.55,1.47,0.44,2
		c-2.16,9.94-3.72,19.96-4.46,30.13c-1.05,14.37-0.6,28.78-1.26,43.15c-0.06,1.26,0.41,1.7,1.63,1.78c2.64,0.18,5.28,0.47,7.91,0.74
		c1.66,0.17,3.18,0.59,4.01-1.74c0.53-1.47,2.46-1.6,3.97-1.58c5.19,0.07,10.36-0.09,15.57,0.29c5.83,0.42,10.44,2.86,14.86,6.22
		c1.48,1.12,2.94,2.27,4.52,3.24c2.08,1.27,4.34,2.05,6.81,1.22c2.72-0.91,5.52-1.11,8.36-1.11c2.14,0,4.18-0.41,6.17-1.25
		c4.97-2.1,10.11-3.69,15.44-4.61c2.17-0.38,4.36-0.72,6.49-1.27c5.34-1.39,7.28-5.08,5.48-10.26c-0.96-2.76-2.18-5.41-3.74-7.88
		c-6.4-10.11-8.23-21.26-7.61-32.99c0.08-1.41,0.13-2.82,0.27-4.23c0.07-0.71,0.36-1.51,1.23-1.44c0.71,0.06,0.87,0.82,0.91,1.44
		c0.13,1.94,0.27,3.88,0.33,5.82c0.19,5.4,0.69,10.76,2.31,15.94c1.07,3.4,2.89,6.29,6.19,8.5c0.09-4.3-0.33-8.24-0.05-12.2
		c0.72-10.18,2.81-19.96,8.43-28.64c4.59-7.09,10.53-12.39,19.55-12.81c2.31-0.11,4.63-0.05,7.04,1.51c-2.72,0.13-5.02,0-7.23,0.39
		c-8.4,1.5-14.12,6.75-17.88,14.03c-5.82,11.28-7.54,23.43-6.35,36c0.43,4.49,1.21,8.94,3.44,12.96c1.73,3.11,3.45,3.44,6.11,1.2
		c1.14-0.96,2.2-2.05,3.18-3.18c4.24-4.88,7.74-10.3,11.49-15.54c0.72-1.01,1.3-2.2,2.79-2.67c0.09,1.33-0.57,2.1-1.01,2.91
		c-3.54,6.53-7.57,12.75-12.1,18.64c-0.39,0.5-1.21,0.84-0.92,1.72c-0.12,0.01-0.23,0.03-0.35,0.04c0.02,0.07,0.04,0.14,0.06,0.21
		c0.09-0.09,0.19-0.18,0.28-0.28c2.86-0.5,5.72-1.02,8.58-1.48c0.88-0.14,1.41-0.69,1.93-1.28c8.65-9.82,16.78-20.03,23.66-31.2
		c0.46-0.75,0.84-1.49,0.66-2.47c-2.29-12.45-5.08-24.75-11.18-35.99c-2.68-4.94-6.84-8.21-12.38-9.66
		c-5.68-1.48-11.37-1.21-17.09-0.34c-14.93,2.28-29.44,6.67-44.43,8.65c-1.41,0.19-1.7,0.81-1.68,2.07
		c0.03,2.91-0.01,5.83-0.11,8.74c-0.26,7.59-0.28,15.19-1.57,22.7c-0.28,1.61-0.81,3.14-2.92,3.16c-2.08,0.03-2.66-1.38-3.02-3.04
		c-0.67-3.12-0.93-6.27-0.82-9.47c0.24-7.33,0.36-14.66,0.66-21.98c0.07-1.71-0.47-2.38-2.13-2.47c-1.7-0.09-3.46-0.02-5.05-0.87
		c1.55-0.36,3.09-0.67,4.62-0.63c2.03,0.05,2.93-0.55,3.01-2.78c0.07-2.19,1.92-3.08,3.89-3.25c1.75-0.15,3.16,1,3.18,2.56
		c0.03,2.99,1.64,2.64,3.55,2.19c0.6-0.14,1.21-0.23,1.82-0.34c13.26-2.54,26.26-6.31,39.62-8.38c8.31-1.29,16.56-1.6,24.27,2.63
		c1.27,0.7,1.69,0.22,2.06-0.9c1.48-4.37,1.59-8.63-1.88-12.11c-3.16-3.17-4.55-6.8-4.15-11.23c0.13-1.39-0.01-2.82-0.14-4.23
		c-0.61-6.87-3.94-10.73-10.59-12.54c-4.93-1.35-9.95-1.39-14.99-1.32c-7.79,0.11-15.51,0.8-23.05,2.87
		c-0.81,0.22-1.91,0.19-2.36,1.64c2.6,0,4.98,0.01,7.36,0c6.36-0.03,12.72-0.11,19.07-0.08c1.58,0.01,3.17,0.25,4.72,0.55
		c1.68,0.33,3.32,0.92,3.8,2.84c0.49,1.93-0.76,3.18-2.03,4.3c-2,1.77-4.39,2.94-6.81,4.03c-11.68,5.23-23.39,10.41-34.7,16.41
		c-7.17,3.81-14.25,7.78-21.37,11.69c-1.62,0.89-3.2,1.44-4.96,0.3c-3.11-2.02-6.35-3.85-9.36-6c-4.52-3.24-5.5-7.25-3.78-12.61
		c0.88-2.74,2.87-4.57,4.49-6.72c0.55-0.72,1.01-1.44,0.46-2.41c-0.49-0.86-1.29-0.85-2.08-0.84c-3.52,0.04-6.78,1.05-9.86,2.72
		c-3.98,2.15-6.59,5.18-6.68,10.01c-0.1,5.19,2.29,8.92,6.4,11.77c0.85,0.59,1.53,0.71,2.59,0.07c2.66-1.61,5.35-0.54,5.89,2.41
		c0.33,1.79,1.24,2.43,2.72,3.06c2.01,0.86,4.32,1.34,5.91,3.48c-2.39,0.23-4.32-0.45-6.24-1.03c-1.5-0.45-2.01-0.12-2.03,1.52
		c-0.07,5.56-0.21,11.12-0.45,16.68c-0.22,5.26-0.23,10.56-1.99,15.64c-0.45,1.31-0.96,2.61-2.57,2.6
		c-1.81-0.01-2.29-1.52-2.51-2.92c-0.51-3.13-0.92-6.28-0.84-9.48c0.23-8.65,0.33-17.31,0.58-25.96c0.05-1.61-0.46-2.65-1.76-3.52
		c-4.09-2.74-7.77-5.86-8.88-11.16c-3.52,1.99-6.91,3.71-10.06,5.77c-2.29,1.49-4.81,3.55-4.66,6.36c0.21,4.08-0.57,7.79-2.53,11.16
		c-3.97,6.82-4.05,14.7-6.45,21.93C371.41,286,371.21,286.16,371.02,286.33z M351.69,245.2c-5.07,3.24-7.27,8.36-9.18,13.74
		c-1.75,4.94-0.76,9.23,2.84,12.86c4.15,4.19,9.28,5.91,15.15,5.32c3.01-0.31,6.21-0.68,8.2-3.11c3.28-4.01,5.66-8.62,7.13-13.64
		c0.11-0.09,0.22-0.17,0.33-0.26c-0.06-0.05-0.12-0.1-0.18-0.16c-0.07,0.12-0.14,0.24-0.2,0.36c-3.02,0.81-5.87,2.14-9.04,2.56
		c-9.88,1.34-19.37-6.13-14.62-17.22c0.08-0.18,0.15-0.36,0.23-0.54C352.12,245.15,351.9,245.18,351.69,245.2z M392.97,156.09
		c-0.37,0.24-0.77,0.45-1.11,0.71c-3.5,2.71-6.55,5.7-6.5,10.61c0.01,1.46,0.29,2.19,1.98,1.46c1.45-0.62,3-1.1,4.61-1.11
		c1.29-0.01,2.38,0.58,2.42,1.92c0.04,1.26-1.22,0.96-2.03,1.11c-1.65,0.29-3.34,0.43-4.81,1.32c-2.17,1.31-0.19,2.57,0.16,3.77
		c0.41,1.41,1.18,0.63,1.96,0.15c2.31-1.43,4.53-1.04,6.62,0.56c0.16,0.12,0.39,0.15,0.59,0.22c0.1-0.81,0.19-1.51,0.32-2.6
		c3.62,4.32,2.86,8.57,0.95,12.72c-1.29,2.78-1.78,5.12,1.15,7.1c0.33,0.23,0.75,0.59,0.55,1.06c-0.25,0.6-0.83,0.5-1.37,0.45
		c-3.09-0.33-4.8-2.93-3.81-5.91c0.45-1.33,1.17-2.57,1.6-3.91c0.42-1.31,1.24-2.63,0.41-4.45c-0.94,2.21-2.13,3.46-4.37,2.33
		c-1.74-0.87-1.85-2.91-3.25-4.31c-0.45,4.43-0.46,8.8-0.45,13.16c0.01,4.19,1.24,7.98,3.7,11.38c2.69,3.72,5.58,7.28,8.07,11.15
		c3.7,5.74,7.07,7.08,13.73,5.18c8.97-2.56,16.9-7.03,23.55-13.66c0.63-0.63,1.02-1.67,2.15-1.68c0.26,0.56,0.26,1.1,0.03,1.59
		c-3.61,7.54-7.6,14.83-14.79,19.61c-1.99,1.32-2.38,2.78-1.93,4.85c0.63,2.94,1.46,5.81,2.51,8.63c0.26,0.69,0.99,1.64-0.05,2.06
		c-0.89,0.36-1.13-0.8-1.56-1.38c-0.72-0.97-0.89-2.29-1.89-3.13c-2.39,7.17-0.45,11.14,5.86,12.1c2.2,0.34,4.16-0.25,6.08-1.32
		c4.85-2.71,9.72-5.38,14.62-8c6.11-3.26,11.76-7.11,16.71-12c1.2-1.18,1.37-1.67-0.11-2.68c-6.1-4.16-9.34-10.18-10.89-17.23
		c-0.43-1.98-0.85-3.97-1.12-5.98c-0.4-2.96-2.13-4.52-4.93-5.1c-0.78-0.16-1.55-0.37-2.34-0.44c-1.68-0.15-1.72-1.17-1.42-2.45
		c0.33-1.43,1.23-1.19,2.22-0.81c2.28,0.87,4.5,0.68,6.67-0.37c6.69-3.25,9.91-9.43,8.74-16.78c-1.03-6.53-6.63-8.81-11.97-4.91
		c-2.08,1.52-3.38,3.58-4.37,5.87c-0.75,1.75-1.94,2.86-3.79,3.37c-1.98,0.55-2.76,0.36-2.62-2.14c0.35-5.87-1.01-10.92-7.17-13.66
		c-4.49-2-7.13-5.72-7.33-10.8c-0.07-1.89-1.11-2.4-2.68-2.45c-2.92-0.09-5.61,0.76-8.04,2.27c-2.32,1.44-4.48,3.13-6.71,4.71
		c-1.55,1.1-3.1,2.18-5.25,2.18c0.24-2.53,2.34-4.17,2.69-6.77c-5.08,2-8.42,5.65-11.58,10.04c-1.21-2.84-0.09-4.94,0.08-7.07
		c0.34-0.2,0.49-0.59,0.27-0.83C393.38,155.44,393.21,155.95,392.97,156.09z M380.61,365.4c0.07-4.71-2.19-8.42-3.66-12.3
		c-6.42-16.88-13.12-33.66-19.64-50.51c-2.25-5.81-3.64-6.96-9.93-7.14c-10.77-0.31-21.54-0.78-32.29-1.3
		c-15.51-0.75-31.03-1.53-46.55-2.04c-7.39-0.24-8.93,2.04-6,8.93c7.66,18.01,15.58,35.92,23.05,54.01
		c2.23,5.39,5.69,7.27,11.28,7.57c22.31,1.17,44.59,2.75,66.89,4.04c10.16,0.59,20.32,2,30.22-2.38c6.67-2.95,13.76-4.95,20.69-7.32
		c1.8-0.62,2.62-1.78,2.31-3.6c-0.33-1.94-1.9-1.78-3.32-1.73c-0.7,0.03-1.4,0.22-2.1,0.23c-6.03,0.04-12.25,1.12-17.49-3.2
		c-0.19-0.16-0.48-0.25-0.73-0.27c-5.23-0.41-10.46-0.8-15.69-1.2c-0.06,1.91,0.87,2.37,2.29,2.5c4.13,0.38,8.25,0.91,12.38,1.27
		c3.1,0.27,5.97,1.53,9,2.05c1.09,0.19,1.79,1.01,1.86,1.99c0.09,1.18-1.16,1.1-1.91,1.41C394.38,359.28,386.83,360.52,380.61,365.4
		z M442.74,387.31c-2.21-1.13-4.48-1.86-6.2-3.27c-2.06-1.69-4.23-2.35-6.76-2.53c-2.21-0.16-4.4-0.18-6.6,0.01
		c-8.55,0.75-16.86-0.04-24.93-3.31c-3.8-1.54-7.65-3.38-11.85-3.5c-3.29-0.1-6.38-0.16-8.36-3.35c-0.27-0.43-0.76-0.85-1.34-0.62
		c-0.6,0.24-0.4,0.9-0.48,1.38c-0.49,3.05-0.93,6.11-1.43,9.15c-0.56,3.34,0.71,5.85,3.37,7.78c3.19,2.31,6.76,3.83,10.53,4.82
		c9.58,2.51,19.3,4.21,29.23,4.41c0.84,0.02,1.89-0.36,2.79,0.91c-16.5-0.05-32.65-0.04-46.8-9.92c-0.23,0.92-0.43,1.68-0.61,2.45
		c-1.8,7.83-0.87,9.53,6.75,12.36c0.41,0.15,0.83,0.31,1.25,0.43c6.17,1.9,12.51,2.99,18.83,4.21c3.72,0.72,7.01,0.22,10.32-1.82
		c5.6-3.44,11.49-6.39,17.11-9.81C432.64,394.01,437.87,391.06,442.74,387.31z M391.77,371.8c-0.04,0.24-0.08,0.47-0.12,0.71
		c1.34,0.53,2.69,1.05,4.03,1.59c8.52,3.45,17.25,5.77,26.55,4.37c5.23-0.79,10.35-0.28,15.5,0.65c6.09,1.1,8.3-0.4,9.97-6.38
		c0.5-1.79,0.74-3.63,0.64-5.5c-0.36-6.33-2.78-8.97-8.98-9.92c-3.73-0.57-7.16-1.84-9.96-4.5c-6.44-6.12-14.13-8.72-22.96-8.21
		c-2.37,0.14-4.76-0.03-7.15,0c-1,0.01-2.37-0.37-2.7,0.98c-0.34,1.35,0.87,2.02,1.87,2.56c0.68,0.37,1.47,0.57,2.24,0.76
		c3.31,0.82,6.65,0.72,10,0.32c1.95-0.23,3.87-0.19,5.8,0.11c1.92,0.29,2.94,1.44,3.27,3.3c0.64,3.59-0.81,5.94-4.34,6.99
		c-3.59,1.07-7.28,1.87-10.73,3.88c1.61,0.44,3.17,0.27,4.99,1.61c-4.91,0.88-9.79,0.42-13.01,4.43c4,0.65,8.15,0.45,11.88,2.52
		C402.97,373.37,397.34,370.4,391.77,371.8z M398.35,217.94c-1.15,0.98-1.96,2.26-2.3,3.7c-0.54,2.31-1.77,4.22-3.12,6.07
		c-2.95,4.01-8.54,6.13-12.35,4c-6.83-3.83-12.9-8.65-15.93-16.29c-0.31-0.79-0.66-1.39-1.42-1.79c-0.61-0.31-1.5-0.71-1.25-1.48
		c0.32-1,1.37-0.56,2.07-0.44c1.48,0.24,2.96,0.77,4.44,0.32c1.16-0.35,2.56-0.88,1.49-2.56c-0.87-1.38-5.75-2.46-7.67-1.83
		c-2.59,0.85-3.34,2.87-2.92,5.24c0.95,5.32,0.97,10.71,1.4,16.06c0.26,3.22,1.14,6.23,2.81,9c0.27,0.45,1,0.97,0.09,1.52
		c-3.85,2.34-5.41,6.62-8.3,9.77c-1.41,1.54-1.34,3.13-0.61,4.87c1.52,3.62,4.32,5.56,8.15,5.81c4.46,0.28,8.82-0.36,11.58-4.33
		c2.73-3.92,4.49-8.49,8.2-11.88c-1.55-0.57-3,0.15-4.42-0.69c1.25-1.82,2.97-1.78,4.6-1.68c5.67,0.34,9.33-2.61,11.94-7.23
		c1.61-2.84,2.85-5.9,4.63-8.61C401.43,222.51,400.88,220.18,398.35,217.94z M338.64,264.16c-3.96,1.81-6.07,5.04-7.78,8.57
		c-2.86,5.87-5.66,11.76-9.11,17.31c-1.16,1.86-0.61,2.19,1.27,2.12c8.73-0.33,17.44,0.52,26.17,0.68
		c5.04,0.09,8.45,2.58,10.13,7.42c0.8,2.32,1.7,4.63,3.23,7.13c0-1.46,0.18-2.47-0.03-3.39c-1.28-5.66,0.39-10.56,3.51-15.23
		c1.61-2.41,2.98-5.02,3.48-7.94c0.16-0.92,0.81-2.06-0.07-2.74c-0.72-0.55-1.66,0.25-2.45,0.54
		C354.68,283.25,340.33,276,338.64,264.16z M385.62,187.37c-5.14,5.74-8.32,12.11-12.48,17.77c-0.66,0.9-0.18,1.69,0.36,2.39
		c4.47,5.96,9.74,11.14,15.47,15.86c0.99,0.81,1.96,0.74,2.75-0.29c1.94-2.52,4.2-5.15,4.75-8.13c0.37-2.02-2.29-3.96-3.61-5.92
		c-0.79-1.17-1.64-2.3-2.49-3.43c-2.32-3.1-3.91-6.5-4.25-10.39C385.91,192.82,385.81,190.39,385.62,187.37z M444.94,355.36
		c5.38,3.4,6.65,8.51,6.5,14.1c-0.16,5.67-2.04,10.65-7.3,14.25c2.11,0.18,3.71,0.48,5.23-0.6c5.47-3.88,10.93-7.75,16.16-11.95
		c0.62-0.5,1.14-0.98,1.22-1.91c0.49-5.68-4.05-12.59-9.54-13.8C453.29,354.6,449.24,354.39,444.94,355.36z M469.85,367.54
		c4.37-3.07,8.08-6.54,11.83-9.96c0.88-0.8,0.73-1.68,0.43-2.65c-0.99-3.22-4.71-5.98-8.58-5.92c-4.86,0.09-9.41,1.64-14.48,3.6
		C465.41,355.9,468.46,361.02,469.85,367.54z M443.25,271.97c0.32,0,0.63,0,0.95,0c0-4.84,0.01-9.69,0-14.53
		c0-1.2,0.31-2.81-1.38-2.94c-1.61-0.13-1.85,1.42-1.89,2.66c-0.33,10.22-0.63,20.44-0.89,30.65c-0.03,1.33,0.19,3.11,1.75,3.07
		c1.3-0.04,1.45-1.79,1.46-3.05C443.26,282.54,443.25,277.26,443.25,271.97z M408.07,268.84c-0.18,0-0.36,0-0.53,0
		c0,4.76-0.01,9.53,0.01,14.29c0,0.7,0,1.45,0.24,2.08c0.26,0.69,0.5,1.67,1.48,1.61c0.8-0.05,1.03-0.88,1.27-1.53
		c0.15-0.41,0.25-0.86,0.26-1.29c0.21-10.14,0.42-20.28,0.57-30.43c0.02-1.18,0.07-2.81-1.61-2.85c-1.73-0.04-1.66,1.58-1.67,2.77
		C408.04,258.61,408.07,263.72,408.07,268.84z M364.01,202.9c0.03,0.58-0.37,1.37,0.37,1.64c0.62,0.23,1.58,0.37,2.02,0.05
		c0.55-0.41,0.91-1.29,1.04-2.03c0.51-2.81,2.03-4.03,4.94-3.66c1.66,0.21,3.14-0.45,4.05-1.96c0.52-0.86,0.63-1.75-0.67-2
		C370.4,193.94,363.8,196.57,364.01,202.9z M480.59,348.08c1.91,1.75,3.57,3.07,4.57,4.98c0.39,0.74,0.87,0.74,1.45,0.19
		c1.89-1.79,3.92-3.44,5.77-5.85C488.34,347.02,484.74,347.42,480.59,348.08z M490.85,342.49c6.03,2.36,9.22-1.2,12.12-5.72
		C498.18,337.42,494.21,339.37,490.85,342.49z M396.81,354.74c-5.59-1.44-11.33-1.43-17.03-2.11c0.02,1.75,0.99,1.93,2.15,1.97
		c2.29,0.08,4.63,0.19,6.76,1.02C391.57,356.76,394.16,356.15,396.81,354.74z M468.61,229.54c5.29-2.45,10.08-4.67,15.54-7.2
		C477.64,221.74,471.39,224.65,468.61,229.54z M385.94,228.79c-7.02-3.86-12.52-8.94-17.74-15
		C369.29,219.08,381.82,229.67,385.94,228.79z M375.12,192.16c1.41-0.17,3.38-0.57,4.75-2.27c0.8-0.99,1.42-2.26,0.41-3.32
		c-0.94-0.99-2.32-0.69-3.39,0c-1.58,1.02-2.54,2.59-3.44,4.22C372.73,192.12,373.41,192.27,375.12,192.16z M390.94,368.65
		c-3.11,0.4-6.02,1.77-9.44,2.11C384.37,372.4,386.4,371.94,390.94,368.65z M381.76,357.39c1.01,3.31,2.42,3.49,5.14,0.7
		C385.22,357.56,383.57,356.98,381.76,357.39z M372.81,201.69c-2.05,0.51-2.85,2.07-3.62,4.31
		C371.23,204.84,371.66,202.97,372.81,201.69z M468.12,229.58c0.13-0.08,0.26-0.17,0.38-0.25c-0.12-0.08-0.27-0.25-0.37-0.23
		c-0.16,0.04-0.29,0.21-0.43,0.32C467.84,229.47,467.98,229.52,468.12,229.58z"/>
	<path class="st120" d="M136.34,250.25c3.79,0.48,6.37,2.82,8.65,5.63c-0.52,1.12,0.47,1.74,0.84,2.57
		c0.06,0.26,0.13,0.51,0.18,0.77c0.7,3.4,2.55,4.51,6.18,4.43c5.98-0.13,11.12,4.41,12.58,9.95c0.52,1.98,0.28,2.7-2.07,2.69
		c-18.46-0.12-36.92-0.1-55.38-0.1c-29.24,0-58.47,0.02-87.71,0.03c-3.24,0-3.12,0-2.65-3.21c0.58-3.96,2.41-7.15,5.42-9.7
		c1.22-1.03,1.45-2.07,1.15-3.68c-2.09-11.04,5.25-21.88,16.3-24.24c1.45-0.31,2.49-0.73,3.15-2.31
		c3.62-8.64,12.02-13.22,21.43-11.75c1.41,0.22,2.2,0.22,2.3-1.44c0.36-5.49,2.24-10.53,4.93-15.23c4.71-8.23,8.46-16.84,11.3-25.89
		c1.59-5.05,3.97-9.81,6.35-14.54c1.36,0.31,2.72,0.62,4.07,0.93c-0.88,2.68-1.88,5.32-2.63,8.03c-2.9,10.57-2.55,20.91,2.45,30.87
		c1.41,2.82,1.9,2.82,3.87,0.28c8.57-11.05,10.16-23.5,7.49-36.83c1.23,0.02,2.5-0.17,3.62,0.56c1.87,7.62,3.25,15.32,4.31,23.09
		c1.68,12.25,1.81,24.59,2.01,36.93c0.03,1.6,0.54,2.49,1.81,3.42c6.2,4.51,10.9,9.99,10.97,18.22c-2.07,0.35-1.92,2.3-2.63,3.64
		c-3.6,2.26-6.93,4.78-8.92,9.33c2.89-1.49,4.87-3.38,7.48-4.36c9.04-3.4,17.91,0.64,19.37,10.64c0.19,1.31,0.65,1.38,1.7,1.01
		c5.8-2.05,11.23-1.58,16.15,2.4c0.18,0.14,0.51,0.1,0.76,0.14c0.06,0.05,0.13,0.1,0.19,0.14c-0.07-0.04-0.15-0.07-0.22-0.11
		c-0.95-4.23-7.49-7.28-12.04-6.49c-1.85,0.32-2.64,0.01-3.15-1.9c-0.92-3.46-2.71-6.47-5.54-8.81c-1.58-1.31-3.68-1.6-5.21-2.94
		C134.82,251.28,135.84,250.9,136.34,250.25z M66.3,257.68c0.06,0.05,0.13,0.1,0.19,0.14c-0.07-0.04-0.14-0.08-0.22-0.12
		c-0.17-0.26-0.33-0.53-0.5-0.79c-0.09,0.1-0.28,0.22-0.26,0.3C65.6,257.62,65.96,257.65,66.3,257.68z M115.06,264.08
		c-1.08,0.48-2.06-0.05-3.07-0.29c-3.75-0.9-7.16-0.17-10.28,2.19c3.05,0.31,6.15-0.09,9.09,0.43c2.46,0.44,3.68-0.01,4.23-2.36
		c0.27-0.16,0.7-0.26,0.25-0.69C115.21,263.61,115.13,263.84,115.06,264.08z M63.58,263.59c1.22,0.74,1.97-0.03,2.78-0.14
		c2.42-0.33,4.75-1,7.28-0.76c5.15,0.48,9.12,2.98,12.48,6.67c1.02,1.12,2.19,1.44,3.67,1.69c4.8,0.8,9.7-0.1,14.47,0.93
		c0.5,0.11,1.18,0.22,1.46-0.28c0.41-0.72-0.29-1.12-0.76-1.47c-3.05-2.29-6.47-2.1-9.85-1.15c-1.58,0.44-2.34,0.06-3.26-1.23
		c-4.45-6.22-10.47-9.25-18.2-8.55C69.91,259.66,66.62,261.04,63.58,263.59z M66.54,247.52c13.82-6.3,25.26-2.91,34.71,8.69
		C96.11,241.35,77.03,237.77,66.54,247.52z M28.9,269.58c3.63-3.6,7.85-6.15,13.04-5.92c5.41,0.24,9.11,3.5,11.59,8.29
		c-0.1-6.08-5-11.64-10.35-12.13C36.28,259.17,30.37,263.08,28.9,269.58z M37.52,254.72c9.57-4.43,18.45-5.28,27.41,1.76
		C59.38,247.33,45.29,246.53,37.52,254.72z M113.62,239.2c0.41-1.61,0.46-3.23,0.08-4.81c-0.17-0.68-0.08-1.88-1.1-1.78
		c-1.08,0.11-0.67,1.23-0.66,1.94C111.96,236.23,112.8,237.68,113.62,239.2z M34.81,257.97c0.54,0.12,0.86-0.17,1.12-0.49
		c0.29-0.36,0.87-0.74,0.05-1.22C35.23,256.55,34.76,257.04,34.81,257.97z"/>
	<path class="st108" d="M145.83,258.44c-0.37-0.83-1.36-1.45-0.84-2.57c55.47,0.07,110.93,0.37,166.4-0.03
		c5-0.04,5.67-0.64,5.67-5.68c0.03-35.42,0.03-70.84,0.04-106.25c0-6.18-0.1-12.37,0.05-18.55c0.05-2.09-0.57-2.7-2.62-2.69
		c-15.46,0.05-30.91-0.02-46.37-0.02c-43.99-0.02-87.97-0.02-131.96-0.05c-1.02,0-2.78,0.45-2.91-0.37
		c-0.25-1.57,0.25-3.31,0.65-4.92c0.16-0.65,0.92-0.06,1.39-0.04c1.86,0.06,3.18-0.78,3.48-2.56c0.28-1.72-0.85-3.04-2.44-3.27
		c-3.09-0.44-1.45-2.69-1.65-4.07c-0.31-2.01,1.52-1.25,2.43-1.25c49.2-0.06,98.39-0.08,147.59-0.09c6.71,0,6.72,0.04,6.72-6.53
		c0-2.65-0.05-5.3-0.02-7.95c0.01-0.79-0.36-1.99,1.08-1.93c1.27,0.05,1.15,1.14,1.15,2c0.02,3.89,0.16,7.78-0.04,11.66
		c-0.12,2.3,0.72,2.77,2.84,2.72c5.38-0.14,10.77-0.07,16.16-0.03c5.03,0.04,6.96,1.91,6.96,6.86c0.01,46.1,0,92.21-0.02,138.31
		c0,4.44-1.42,6.08-5.78,6.69c-2,0.28-4.04,0.37-6.07,0.38c-17.4,0.09-34.8,0-52.19,0.34c-3.25,0.06-6.58,0.78-9.9,0.87
		c-1.55,0.04-1.23,1.25-1.22,2.14c0.09,6.98,0.22,13.95,0.34,20.93c0.04,2.56,0.04,5.13-0.37,7.66c-0.99,6.01-5.61,7.65-10.95,7.65
		c-0.66,0-1.62-0.11-1.66-0.98c-0.05-1.05,0.96-0.76,1.59-0.85c0.52-0.07,1.06-0.04,1.59-0.08c4.71-0.27,7.49-2.7,7.71-7.37
		c0.44-9.18-0.2-18.36-0.43-27.54c-0.02-0.72-0.05-1.56-1.02-1.53c-2.1,0.07-3.92-1.02-6.08-1.02c-27.47,0.03-54.94-0.09-82.4-0.16
		C150.42,258.29,148.12,258.39,145.83,258.44z M150.68,114.49c-0.25-1.71-1.03-3.04-2.91-3.13c-1.9-0.09-3.01,1.07-2.99,2.89
		c0.02,1.77,1.09,2.98,2.97,3.02C149.53,117.32,150.38,116.17,150.68,114.49z"/>
	<path class="st108" d="M101.8,300.79c19.33,0,38.67-0.02,58,0.01c5.37,0.01,7.2,1.87,7.17,7.15c-0.02,6.18-0.04,12.36-0.13,18.54
		c-0.05,3.84-1.91,5.86-5.75,6.2c-2.1,0.19-4.23,0.1-6.35,0.1c-36.46,0-72.92-0.01-109.38-0.03c-1.32,0-2.66-0.03-3.95-0.24
		c-3.21-0.52-5.23-2.71-5.28-5.97c-0.1-6.71-0.11-13.42-0.02-20.13c0.04-3.07,1.78-4.92,4.81-5.37c1.47-0.22,2.99-0.23,4.48-0.23
		c18.8-0.01,37.61-0.01,56.41-0.01C101.8,300.81,101.8,300.8,101.8,300.79z M72.66,323.1c-0.2,2.63,1.09,2.23,2.24,1.49
		c2.49-1.62,4.87-1.65,7.3,0.06c0.56,0.39,1.29,0.91,1.93,0.4c0.62-0.49,0.36-1.36,0.15-1.99c-0.85-2.64-0.43-4.79,1.98-6.44
		c0.6-0.41,1.46-0.97,1.22-1.87c-0.27-1.05-1.37-1.06-2.2-1.09c-2.46-0.12-4.1-1.21-4.86-3.6c-0.13-0.41-0.48-0.74-0.68-1.13
		c-0.74-1.45-1.68-1.65-2.32-0.07c-1.25,3.07-3.32,4.78-6.69,4.98c-1.29,0.08-1.87,0.9-0.68,1.87
		C72.63,317.78,74.16,320.09,72.66,323.1z M96.04,323.15c-0.16,2.01,0.46,2.56,1.94,1.63c2.67-1.67,5.13-1.86,7.78-0.04
		c1.69,1.16,2.35,0.26,1.87-1.39c-0.89-3.05-0.31-5.39,2.44-7.27c1.5-1.03,1.14-2.22-0.7-2.32c-3.31-0.18-5.27-1.87-6.42-4.86
		c-0.6-1.55-1.64-1.34-2.1,0.02c-1.11,3.24-3.31,4.72-6.65,4.92c-1.83,0.11-1.89,1.16-0.6,2.14
		C96.2,317.96,97.42,320.28,96.04,323.15z M49.4,323.08c-0.24,2.22,0.63,2.44,1.96,1.59c2.43-1.56,4.8-1.94,7.3-0.13
		c0.6,0.44,1.44,1.07,2.15,0.43c0.64-0.58,0.33-1.56,0.08-2.27c-0.92-2.64-0.13-4.59,2.11-6.13c0.62-0.43,1.45-0.99,1.24-1.88
		c-0.22-0.92-1.22-0.99-1.97-1.03c-2.7-0.12-4.39-1.45-5.25-3.97c-0.14-0.41-0.45-0.76-0.68-1.13c-0.65-1.01-1.44-1.16-1.9,0.03
		c-1.26,3.28-3.52,5.07-7.06,5.39c-1.36,0.12-1.59,1.01-0.49,1.91C49.34,317.92,50.8,320.21,49.4,323.08z M119.39,323.11
		c-0.28,2.36,0.72,2.3,1.95,1.52c2.45-1.56,4.85-1.8,7.3-0.03c0.57,0.41,1.28,0.85,1.95,0.39c0.82-0.56,0.46-1.51,0.25-2.19
		c-0.82-2.57-0.34-4.61,1.98-6.18c0.61-0.41,1.44-1.01,1.24-1.88c-0.25-1.06-1.38-1.05-2.19-1.09c-2.58-0.14-4.24-1.38-5.1-3.78
		c-0.14-0.4-0.45-0.76-0.68-1.13c-0.68-1.05-1.5-1.08-1.9,0.08c-1.1,3.2-3.34,4.72-6.62,5.07c-1.47,0.15-1.95,0.93-0.62,1.99
		C119.45,317.9,120.59,320.31,119.39,323.11z M142.64,322.83c-0.26,1.97,0.16,2.95,1.75,1.88c2.67-1.8,5.14-1.65,7.8,0.03
		c1.66,1.05,2.32,0.26,1.83-1.51c-0.78-2.84-0.21-5.09,2.33-6.87c1.8-1.26,1.29-2.37-0.75-2.62c-2.6-0.31-4.62-1.14-5.73-3.8
		c-0.67-1.6-2.18-1.72-2.99-0.09c-1.24,2.51-3.3,3.49-5.83,3.9c-1.91,0.3-2.42,1.18-0.8,2.45
		C142.67,318.09,143.8,320.27,142.64,322.83z"/>
	<path class="st108" d="M204.51,187.03c0.58-0.59,0.39-1.34,0.39-2c0.04-10.51,0.02-21.01,0.12-31.52c0.02-2.25-0.64-2.96-3.01-2.95
		c-19.42,0.12-38.85,0.08-58.27,0.09c-0.53,0-1.06,0.02-1.59-0.01c-0.65-0.03-0.96-0.52-0.98-1.05c-0.04-0.86,0.71-0.56,1.13-0.57
		c2.56-0.05,5.12-0.07,7.68-0.07c17.92-0.01,35.85,0.03,53.77-0.07c2.37-0.01,2.94,0.69,2.93,2.99
		c-0.09,16.51-0.09,33.02,0.01,49.53c0.01,2.5-0.62,3.34-3.25,3.33c-25.52-0.09-51.03-0.08-76.55,0.01
		c-2.32,0.01-3.08-0.62-3.01-2.97c0.16-5.06,0.05-10.13,0.05-15.79c1.68,1.68,2.2,3.19,2.44,5.08c1.12-0.82,2.13-0.79,3.29-0.47
		c3.37,0.93,5.88-0.38,7.21-3.61c0.33-0.81,0.71-1.67,0.76-2.52c0.26-4.28,2.53-7.32,5.64-10.03c1.29-1.13,2.06-1.24,3.26-0.07
		c3.81,3.68,7.74,7.23,11.5,10.96c1.47,1.46,2.34,1.33,3.75-0.13c5.77-5.96,11.71-11.76,17.51-17.7c1.29-1.32,2.06-1.26,3.4-0.02
		c6.66,6.19,13.42,12.27,20.16,18.37C203.35,186.28,203.73,186.95,204.51,187.03z"/>
	<path class="st121" d="M252.01,244.01c-8.56,0-17.12,0.01-25.68-0.01c-2.96-0.01-3.6-0.62-3.62-3.56
		c-0.05-6.88-0.01-13.77-0.06-20.65c-0.02-2.36,1.12-3.34,3.41-3.33c16.94,0.02,33.89-0.01,50.83,0.03
		c3.95,0.01,4.62,0.76,4.62,4.59c0,6.44,0,12.88-0.03,19.33c-0.01,3.05-0.52,3.59-3.52,3.6
		C269.3,244.03,260.65,244.02,252.01,244.01z M245.46,230.48c0,1.85,0.07,3.7-0.02,5.54c-0.08,1.84,0.41,2.46,2.24,1.51
		c3.51-1.83,7.05-3.59,10.62-5.31c1.8-0.86,1.55-1.61,0.03-2.42c-3.1-1.66-6.22-3.29-9.31-4.97c-3.59-1.95-3.58-1.97-3.57,2.21
		C245.46,228.19,245.46,229.34,245.46,230.48z"/>
	<path class="st108" d="M93.36,165.13c-1.36-0.31-2.72-0.62-4.07-0.93c-2.51-1.25-5.77-1.28-6.96-4.65
		c-0.41-1.16-1.19-0.09-1.64,0.25c-3.32,2.49-6.64,4.96-9.86,7.56c-2.77,2.24-5.77,4.06-9.12,5.25c-3.05,1.08-4.38,0.1-3.83-2.98
		c1.59-8.94,2.8-17.96,4.8-26.82c0.53-2.33,1.61-4.15,3.61-5.61c5.13-3.73,9.86-8.01,15.45-11.11c1.45-0.8,1.26-2.22,1.5-3.45
		c1.54-7.87,2.45-15.88,5.22-23.47c3.8-10.43,10.2-19.13,18.49-26.37c6.73-5.88,11.33-4.94,15.71,2.79
		c4.49,7.93,6.62,16.65,8.36,25.51c1.71,8.67,0.03,17.04-2,25.35c-1.14,4.66-1.72,8.69,1.85,12.93c3.07,3.65,4.93,8.31,7.74,12.28
		c1.36,1.93,1.94,4.01,1.45,6.48c-1.71,8.56-3.26,17.15-4.87,25.73c-0.08,0.43-0.25,0.84-0.36,1.27c-0.41,1.53-1.1,2.82-2.82,3.15
		c-1.72,0.33-2.97-0.61-3.83-1.86c-1.69-2.47-3.31-5-4.73-7.63c-1.94-3.58-4.26-6.89-6.68-10.16c-0.45-0.61-0.82-1.59-1.81-1.15
		c-2.22,1-4.52,0.43-6.79,0.55c-1.12-0.74-2.39-0.54-3.62-0.56c-1.46-0.77-1.57,0.3-1.79,1.29c-0.8,3.61-1.63,7.2-2.44,10.81
		c-0.31,1.39-1.04,2.26-2.56,2.06c-1.49-0.19-1.66-1.34-1.71-2.56c-0.13-3.27-0.06-6.55,0.48-9.76
		C96.98,166.58,96.23,165.17,93.36,165.13z M124.03,172.67c2.1,4.14,3.46,8.75,7.49,11.96c0.56-1.78,0.25-3.47,0.66-4.89
		c2.11-7.19,2.99-14.64,4.86-21.87c0.55-2.13,0.27-3.94-0.88-5.77c-2.29-3.66-4.45-7.4-6.74-11.06c-0.52-0.84-0.86-1.94-2.09-2.3
		c-0.42,2.31-0.7,4.59-1.26,6.8c-1.39,5.42-0.76,11.51-5.2,15.93c-2.91,2.41-2.95,2.44-0.93,5.49
		C121.23,168.91,122.66,170.77,124.03,172.67z M105.53,153.28c-0.86,1.23-0.57,2.71-0.82,4.06c-1.15,6.23-1.11,6.28,5.28,7.01
		c1.51,0.17,3.25,0.73,4.52-0.56c2.44-2.49,5.29-4.62,6.92-7.82c0.8-0.83,0.78-1.94,0.93-2.95c1.95-12.45,3.93-24.89,5.76-37.36
		c1.36-9.21,0.67-18.28-2.38-27.13c-0.43-1.26-1.07-1.98-2.44-2.37c-7-2.01-14.12-3.03-21.39-3.1c-1.25-0.01-2.17,0.27-2.95,1.3
		c-4.23,5.58-8.14,11.37-9.79,18.27c-3.39,14.22-5.35,28.7-7.95,43.07c-0.2,1.12,0.04,2.1,0.86,2.91c-0.13,3.75,2.3,6.6,3.56,9.86
		c0.18,0.46,0.92,0.86,1.47,1c2.63,0.66,5.29,1.21,7.94,1.82c1.09,0.25,1.66-0.15,1.82-1.25c0.4-2.77,0.81-5.54,1.22-8.31
		c0.86-4.57,1.77-9.13,2.55-13.71c0.42-2.47,1.77-3.52,4.21-3.24c2.68,0.3,2.55,2.22,2.33,4.13
		C106.65,143.69,106.09,148.48,105.53,153.28z M61.37,169.7c4.54-1.64,8.18-3.77,10.64-7.58c0.47-0.72,0.87-1.52,1.8-1.86
		c2.27-0.83,3.99-2.58,6.07-3.73c1.33-0.74,1.61-1.62,0.84-3.01c-2.07-3.74-2.26-7.63-1.12-11.76c0.89-3.22,1.31-6.58,1.86-9.88
		c0.15-0.9,0.69-2.12-0.17-2.69c-0.75-0.49-1.63,0.46-2.31,0.95c-3.72,2.68-7.35,5.5-11.09,8.15c-1.82,1.29-2.57,2.93-2.79,5.1
		c-0.3,3.07-0.93,6.11-1.35,9.17C62.98,158.13,61.8,163.66,61.37,169.7z M124.29,84.55c-1.49-4.31-3.13-7.81-5.55-10.88
		c-2.22-2.82-4.63-3.24-7.66-1.34c-3.46,2.16-6.26,5.06-8.97,8.68C109.66,81.35,116.75,82.41,124.29,84.55z M99.3,170.05
		c2.52-9.93,3.67-20.15,5.23-30.29c0.11-0.72,0.66-1.83-0.43-2.02c-1.14-0.2-1.24,1-1.39,1.85
		C100.88,149.64,99.75,159.78,99.3,170.05z"/>
	<path class="st108" d="M165.55,359.49c0.01-6.87,4.32-11.89,10.89-12.82c1.49-0.21,2.64-0.75,3.63-1.88
		c1.4-1.58,2.95-3.04,4.38-4.6c0.86-0.94,1.97-1.8,1.02-3.39c-0.88-1.48-1.26-3.07-3.65-3.14c-3.97-0.12-6.29-4-5.01-7.78
		c0.54-1.59,2.1-1.76,3.36-2.29c1.29-0.54,2.62-0.75,2.76-2.67c0.13-1.78,0.1-3.07-1.66-4.21c-3.16-2.05-3.21-2.88-1.43-6.33
		c1.98-3.85,2.54-4.09,6.34-2.92c1.2,0.37,2.39,1.22,3.55-0.28c1.14-1.48,2.97-2.47,1.83-4.94c-0.61-1.32-1.58-3.12-0.12-4.45
		c1.76-1.6,3.97-2.74,6.32-3.09c1.56-0.23,2.4,1.46,3.06,2.61c1.21,2.11,2.95,1.69,4.8,1.59c1.9-0.1,2.14-1.52,2.65-2.81
		c0.53-1.34,0.58-3.25,2.55-3.26c2.45-0.01,5.03,0.12,7.07,1.61c1.14,0.83,0.51,2.49,0.58,3.78c0.06,1.17-0.03,2.32,1.46,2.71
		c1.49,0.39,2.69,1.69,4.54,0.19c3.89-3.16,4.67-3.03,7.62-0.18c2.58,2.49,2.63,2.91,0.8,6.09c-2.3,3.98-0.7,7.04,3.8,6.88
		c2.7-0.1,3.74,1.04,4.27,3.5c1.01,4.71,1.1,4.69-3.13,6.92c-2.21,1.16-2.63,5.21-0.71,6.87c4.07,3.53,4.22,5.44,0.85,9.7
		c-1.31,1.66-2.89,0.86-4.38,0.57c-2.9-0.56-5.75,2.3-5.07,5.17c0.04,0.17,0.08,0.34,0.12,0.52c1.12,4.44-0.54,7.12-5.02,8.16
		c-1.88,0.44-2.79-0.96-3.64-2.09c-1.33-1.77-2.76-2.28-4.96-1.72c-1.78,0.45-2.58,1.26-3.01,3c-0.91,3.66-1.64,4.08-5.41,3.68
		c-0.7-0.07-1.4-0.29-2.1-0.29c-2.27-0.02-3.13-1.26-3.11-3.37c0.01-0.62-0.11-1.24-0.07-1.85c0.07-1.02-0.34-1.63-1.3-2.02
		c-1-0.4-1.82-0.44-2.64,0.39c-2.29,2.32-4.63,4.6-6.96,6.89c-0.9,0.89-0.84,2.1-1.09,3.2c-1.58,7.08-8.08,11.02-15.08,9.17
		c-1.91-0.5-2.12-1.38-0.88-2.75c1.36-1.5,2.76-2.98,4.19-4.4c0.97-0.97,0.97-1.92-0.12-2.61c-1.23-0.77-1.69-3.45-3.9-1.89
		c-1.51,1.06-2.79,2.43-4.2,3.63c-0.78,0.67-1.53,1.77-2.69,1.33c-1.21-0.46-0.76-1.84-1.01-2.82
		C165.54,360.31,165.57,359.76,165.55,359.49z M224.29,320.16c0.13,1.4,0.23,2.81,0.39,4.2c0.78,6.75-4.09,12.73-10.85,12.92
		c-2.61,0.07-3.85,1.54-5.38,3.27c11.07,1.56,19.53-9.52,15.8-20.35c-4.81-10.89-15.59-13.98-25.33-7.27
		c-0.51,0.35-0.98,1.16-1.77,0.43c0.03-0.61,0.52-0.89,0.91-1.23c5.27-4.6,12.96-5.99,20.55-1.58c6.98,4.06,10.08,12.84,7.59,20.7
		c-2.21,6.98-11.1,12.76-17.99,11.49c-1.23-0.23-2.23,0.02-3.12,0.94c-1.32,1.38-2.7,2.7-4.3,4.29c3.22,0.65,3.01,2.88,2.93,5.03
		c-0.05,1.45,0.11,2.44,2.02,2.64c2.57,0.28,4-0.37,4.23-3.13c0.15-1.74,1.04-2.93,3.04-2.95c0.78-0.01,1.66-0.08,2.32-0.44
		c2.53-1.4,4.37-0.54,5.8,1.64c1.28,1.95,2.6,1.71,4.39,0.56c2.04-1.32,0.68-2.77,0.22-3.86c-1.82-4.34,2.24-5.82,3.89-8.43
		c1.23-1.95,2.87-0.16,4.32-0.13c0.82,0.02,1.59,0.71,2.39-0.24c1.76-2.09,1.71-3.84-0.71-5.16c-4.22-2.3-1.76-5.95-2.07-9.01
		c-0.23-2.3,2.11-1.94,3.36-2.65c0.95-0.54,2.3-0.52,1.75-2.29c-0.46-1.47-0.25-3.23-2.73-2.97c-1.35,0.14-3.22,0.69-4.06-0.4
		c-1.42-1.85-2.47-4.07-3.3-6.28c-0.48-1.25,0.89-2.22,1.66-3.12c1.35-1.56,1.24-2.71-0.27-4.19c-1.6-1.57-2.64-0.58-3.87,0.3
		c-0.98,0.71-1.61,2.17-2.95,2.07c-2.32-0.18-4.26-1.61-6.29-2.6c-1.41-0.68-0.84-2.45-0.7-3.65c0.28-2.24-0.8-2.76-2.69-3.16
		c-2.01-0.42-2.86,0.45-3.2,2.11c-0.54,2.66-1.93,4.02-4.76,3.61c-0.42-0.06-0.9,0.03-1.3,0.18c-2.3,0.83-3.85,0.09-5.04-2.02
		c-0.58-1.04-1.18-2.59-3.01-1.47c-1.5,0.91-3.29,1.47-2.06,3.9c0.97,1.94,1.01,3.78-0.98,5.41c-2.18,1.78-3.74,4.71-7.34,2.71
		c-0.66-0.36-1.55-1.01-2.45-0.39c-2.07,1.43-1.98,4.22,0.13,5.73c1.03,0.74,2.48,1.19,2.22,2.93c-0.51,3.38-0.15,7.32-5.05,7.88
		c-0.09,0.01-0.17,0.05-0.25,0.08c-1.76,0.62-1,2.01-0.88,3.14c0.11,1.04,0.32,2.19,1.86,1.94c3.12-0.5,5.27,0.53,6.17,3.75
		c0.33,1.18,0.95,1.14,1.91,0.35c2.42-2.01,3.67-3.84,2.74-7.53c-1.39-5.54,0.17-10.8,5.01-14.56c0.81,1.18-0.4,1.75-0.85,2.45
		c-2.93,4.56-3.47,9.4-2.01,14.83c0.97-0.92,1.71-1.66,2.49-2.35c2-1.77,3.3-3.71,3.87-6.55c1.72-8.56,9.68-10.05,15.81-8.76
		c2,0.42,2.43,1.82,1.44,3.63c-1.08,1.98-2.82,3.38-4.36,4.94c-0.76,0.78-1.25,1.4-0.3,2.42c0.88,0.95,1.63,1.2,2.68,0.29
		c1.47-1.27,3.01-2.44,4.5-3.69C221.67,319.53,222.91,319.21,224.29,320.16z M175.58,368.11c6.28,0.87,10.64-2.14,11.5-7.93
		c0.32-2.14,1.18-3.76,2.69-5.23c6.14-5.96,12.28-11.92,18.3-18c1.46-1.48,2.79-2.28,4.99-2.27c6.14,0.04,10.47-6.27,8.37-11.9
		c-1.56,1.3-3.1,2.61-4.68,3.87c-2.23,1.78-2.91,1.6-5.64-1.24c-1.6-1.67-1.87-3.25-0.08-5.03c1.53-1.52,3.29-2.85,4.53-4.78
		c-7.68-1.52-12.22,1.78-12.89,9.36c-0.13,1.48-0.78,2.42-1.77,3.36c-5.72,5.51-11.48,10.98-17.09,16.59
		c-2.43,2.44-4.9,4.14-8.56,4.53c-4.88,0.52-8,6.07-6.68,10.81c5.63-5.39,6.5-5.66,9.35-2.8
		C181.76,361.29,181.68,361.7,175.58,368.11z"/>
	<path class="st108" d="M261.84,148.61c13.86,0,27.72,0.04,41.59-0.05c1.94-0.01,2.65,0.39,2.5,2.45c-0.2,2.72-0.26,5.49-0.02,8.2
		c0.2,2.32-0.82,2.52-2.72,2.51c-11.04-0.07-22.07-0.03-33.11-0.04c-16.51-0.01-33.02-0.05-49.53,0.02
		c-1.93,0.01-2.68-0.38-2.55-2.45c0.18-2.81,0.14-5.65-0.01-8.47c-0.09-1.79,0.55-2.19,2.26-2.18c13.86,0.07,27.72,0.04,41.59,0.04
		C261.84,148.63,261.84,148.62,261.84,148.61z"/>
	<path class="st121" d="M255.71,69.34c-4.34,0.59-7.95-2.57-8.58-7.98c-0.51-4.36-0.43-8.74,3.65-11.76
		c0.88-0.65,0.9-1.62,1.08-2.58c2.49-13.2,10.57-21.63,23.28-24.38c14.48-3.13,29.37,5.85,33.34,20.12c0.3,1.08,0.59,2.18,0.7,3.28
		c0.21,1.96,1.25,3.22,2.65,4.59c3.63,3.54,3.25,12.79-0.51,16.36c-1.19,1.13-1.94,2.38-2.57,3.89c-2.48,5.97-7.18,9.22-13.44,10.28
		c-2.34,0.39-4.72,0.68-7.11,0.47c0.03-1.36,0.06-2.72,0.08-4.09c3.86,0.11,7.74,0.27,11.22-1.89c2.27-1.41,4.2-3.13,4.74-5.94
		c1.56-0.51,1.37-1.84,1.38-3.04c0.02-5.44,0-10.88,0.02-16.32c0-0.9,0.01-1.76-0.77-2.38c-0.61-13.24-14.25-24.04-27.28-21.6
		c-12.09,2.26-19.29,9.55-21.58,21.85c-0.11,1.05-0.3,2.09-0.3,3.14C255.69,57.36,255.71,63.35,255.71,69.34z"/>
	<path class="st121" d="M204.33,48.6c0.69,6.06,0.33,12.14,0.15,18.2c-0.07,2.34-2.13,3.73-4.45,3.75
		c-12.08,0.1-24.16,0.09-36.24,0.03c-2.75-0.02-4.66-1.99-4.69-4.74c-0.08-9.08-0.09-18.17-0.03-27.25
		c0.02-3.25,1.96-4.98,5.53-5.02c7.32-0.08,14.64-0.06,21.96-0.08c0.16,1.1,0.18,2.19-0.13,3.26c-6.79-0.04-13.58-0.08-20.36-0.11
		c-0.58,0-1.34-0.19-1.64,0.52c-0.34,0.82,0.37,1.3,0.85,1.77c4.9,4.82,9.2,10.21,14.46,14.69c2.58,2.2,3.23,2.28,5.72-0.1
		c2.23-2.13,4.43-4.28,6.65-6.41c1,0.48,2,0.97,3,1.45c-0.66,1.49-2.08,2.32-3.09,3.51c-0.55,0.65-1.01,1.27-0.39,2.08
		c2.78,3.65,6.16,6.7,9.52,9.89c0.29-2.6,0.25-5.04,0.3-7.48c0.05-2.45-0.28-4.91,0.19-7.35C202.43,48.59,203.38,48.58,204.33,48.6z
		 M165.22,67.26c11.4,0,22.25,0,33.1,0c0.14-0.19,0.28-0.37,0.41-0.56c-3.32-3.33-6.64-6.67-9.98-9.99
		c-0.48-0.48-0.93-0.12-1.4,0.18c-5.19,3.41-5.21,3.43-10.24-0.8c-0.88-0.74-1.5-0.83-2.19,0.04
		C172.01,59.87,168.2,62.82,165.22,67.26z M162.49,41.1c0,8.13,0,15.54,0,23.45c4.09-3.48,6.98-7.39,10.43-10.76
		c0.61-0.59,0.58-1.24,0.04-1.88C169.82,48.24,166.39,44.84,162.49,41.1z"/>
	<path class="st108" d="M218.62,135.25c-28.34,0-56.69,0-85.03-0.02c-0.66,0-1.79,0.55-1.89-0.67c-0.11-1.41,1.19-1.08,1.94-1.1
		c6.09-0.1,12.18-0.16,18.27-0.16c50.15-0.01,100.3-0.01,150.46,0.03c1.26,0,3.57-0.78,3.53,1.05c-0.04,1.74-2.33,0.87-3.57,0.87
		c-27.9,0.06-55.8,0.04-83.71,0.04C218.62,135.29,218.62,135.27,218.62,135.25z"/>
	<path class="st121" d="M262.13,170.66c13.42,0,26.84,0,40.26,0c0.79,0,1.6-0.02,2.37,0.11c0.79,0.14,1.15,0.75,1.16,1.55
		c0.01,0.82-0.42,1.39-1.19,1.52c-0.77,0.13-1.58,0.11-2.38,0.11c-27.02,0.01-54.03,0.02-81.05,0.02c-0.62,0-1.25,0.04-1.85-0.07
		c-0.94-0.17-1.69-0.66-1.59-1.76c0.09-0.91,0.7-1.4,1.61-1.45c0.79-0.04,1.59-0.04,2.38-0.04
		C235.29,170.65,248.71,170.65,262.13,170.66C262.13,170.66,262.13,170.66,262.13,170.66z"/>
	<path class="st121" d="M262.11,184.56c-13.59,0-27.18,0-40.77,0c-0.7,0-1.43,0.03-2.1-0.14c-0.83-0.2-1.42-0.81-1.36-1.72
		c0.06-0.96,0.77-1.31,1.66-1.35c0.53-0.02,1.06-0.02,1.59-0.02c27.27-0.01,54.54-0.03,81.81-0.03c1.09,0,2.53-0.39,2.88,1.14
		c0.45,1.95-0.94,2.14-2.4,2.14c-7.94-0.01-15.89-0.01-23.83-0.01c-5.82,0-11.65,0-17.47,0
		C262.11,184.57,262.11,184.56,262.11,184.56z"/>
	<path class="st121" d="M256.31,190.42c11.56,0,23.12,0,34.68,0.01c0.79,0,1.61-0.04,2.36,0.15c0.82,0.2,1.38,0.82,1.27,1.76
		c-0.09,0.8-0.64,1.26-1.42,1.34c-1.4,0.14-2.81,0.31-4.21,0.31c-18.97,0.02-37.94,0.03-56.91,0c-3.88-0.01-7.75-0.18-11.63-0.28
		c-1.16-0.03-2.56,0.05-2.59-1.53c-0.03-1.74,1.48-1.71,2.72-1.72c8.91-0.03,17.82-0.03,26.74-0.03
		C250.31,190.43,253.31,190.43,256.31,190.42C256.31,190.43,256.31,190.43,256.31,190.42z"/>
	<path class="st108" d="M186.43,36.76c0.3-1.08,0.29-2.17,0.13-3.26c2.67-11.13,13.94-12.92,20.5-8.76
		c8.23,5.22,8.01,17.63-0.42,22.57c-0.76,0.44-1.53,0.86-2.3,1.29c-0.95-0.02-1.9-0.02-2.7,0.63c-2.18-0.22-4.36-0.43-6.53-0.65
		c-1-0.48-2-0.97-3-1.45C188.91,44.39,186.92,40.98,186.43,36.76z M210.68,36.03c-0.01-6.2-4.72-11.06-10.75-11.08
		c-6.05-0.03-10.93,4.86-10.92,10.91c0.02,6.11,4.78,10.89,10.89,10.94C205.75,46.85,210.68,41.91,210.68,36.03z"/>
	<path class="st121" d="M249.74,203.16c-9.53,0-19.05,0.02-28.58-0.02c-1.22,0-3.08,0.57-3.2-1.34c-0.13-2,1.71-1.86,3.12-1.86
		c19.23-0.02,38.46-0.04,57.69-0.05c1.21,0,2.76-0.23,2.77,1.58c0.01,1.99-1.68,1.68-2.95,1.69
		C268.97,203.18,259.35,203.17,249.74,203.16C249.74,203.17,249.74,203.16,249.74,203.16z"/>
	<path class="st108" d="M136.29,238.12c-3,0-6.01-0.11-9.01,0.04c-2.02,0.1-2.63-0.72-2.61-2.61c0.05-5.21,0.03-10.42-0.05-15.63
		c-0.03-1.72,0.69-2.4,2.35-2.4c6.27,0.02,12.54,0.02,18.81-0.02c1.63-0.01,2.14,0.74,2.12,2.28c-0.07,5.3-0.1,10.6-0.03,15.9
		c0.02,1.92-0.81,2.43-2.57,2.38c-3-0.09-6-0.03-9.01-0.03C136.29,238.06,136.29,238.09,136.29,238.12z M136.15,235.99
		c0,0.03,0,0.06,0,0.09c2.47,0,4.93-0.06,7.4,0.02c1.67,0.06,2.44-0.57,2.43-2.28c-0.03-3.87,0-7.75,0.04-11.62
		c0.02-1.78-0.81-2.52-2.58-2.52c-4.84,0.01-9.69-0.03-14.53-0.1c-1.52-0.02-2.31,0.58-2.31,2.16c0.01,4.14,0.01,8.28-0.02,12.42
		c-0.01,1.36,0.58,1.87,1.92,1.84C131.04,235.95,133.59,235.99,136.15,235.99z"/>
	<path class="st108" d="M255.71,69.34c-0.01-5.99-0.03-11.98,0-17.97c0-1.05,0.2-2.09,0.3-3.14c1.23,0,2.47-0.12,3.68,0.03
		c2.32,0.3,3.71,1.72,3.76,4.06c0.1,4.23,0.18,8.47-0.04,12.69C263.2,69.13,260.32,70.62,255.71,69.34z"/>
	<path class="st108" d="M304.87,47.98c0.78,0.62,0.77,1.48,0.77,2.38c-0.02,5.44,0,10.88-0.02,16.32c0,1.19,0.19,2.53-1.38,3.04
		c-4.36,0.1-6.35-1.79-6.38-6.07c-0.02-2.9,0.01-5.79-0.04-8.69C297.72,49.15,299.13,47.74,304.87,47.98z"/>
	<path class="st108" d="M288.28,77.55c-0.03,1.36-0.06,2.72-0.08,4.09c-0.89,2.13-2.59,3-4.8,3.03c-2.11,0.03-4.24,0.18-6.33-0.02
		c-3.06-0.29-4.71-2.34-4.63-5.35c0.08-2.97,1.9-4.91,4.94-5.1c1.84-0.12,3.69-0.06,5.54-0.08
		C285.47,74.08,287.36,75.07,288.28,77.55z"/>
	<path class="st108" d="M164.74,163.85c0.05,3.44-2.48,6.12-5.87,6.24c-3.51,0.12-6.54-2.71-6.62-6.17
		c-0.08-3.46,2.63-6.3,6.06-6.37C161.88,157.47,164.69,160.23,164.74,163.85z"/>
	<path class="st108" d="M181.28,229.61c7.41,0,14.83-0.02,22.24,0.02c0.87,0,2.32-0.42,2.28,0.98c-0.03,1.29-1.45,0.99-2.36,0.99
		c-14.65,0-29.31-0.02-43.96-0.04c-0.53,0-1.06-0.03-1.57-0.13c-0.54-0.11-1.06-0.41-0.93-1.06c0.09-0.44,0.53-0.7,1-0.72
		c0.62-0.03,1.23-0.03,1.85-0.03C166.98,229.61,174.13,229.61,181.28,229.61z"/>
	<path class="st108" d="M181.55,222.25c7.06,0,14.12,0,21.17,0.01c0.79,0,1.59,0.02,2.37,0.13c0.41,0.06,0.85,0.35,0.84,0.86
		c-0.01,0.52-0.5,0.74-0.9,0.81c-0.69,0.12-1.4,0.12-2.1,0.12c-14.38,0-28.76-0.01-43.14-0.03c-0.61,0-1.24,0-1.84-0.12
		c-0.4-0.08-0.9-0.3-0.83-0.85c0.06-0.46,0.42-0.79,0.87-0.84c0.7-0.07,1.41-0.06,2.11-0.07c7.15,0,14.29,0,21.44,0
		C181.55,222.27,181.55,222.26,181.55,222.25z"/>
	<path class="st108" d="M181.49,215.42c7.31,0,14.62-0.01,21.94,0.01c0.9,0,2.3-0.29,2.26,1.05c-0.03,1.09-1.35,0.83-2.19,0.83
		c-14.71,0.01-29.43,0.01-44.14,0.01c-0.88,0-2.1,0.12-2.13-0.97c-0.03-1.24,1.25-0.87,2.05-0.88c7.4-0.02,14.8-0.01,22.2-0.01
		C181.49,215.45,181.49,215.44,181.49,215.42z"/>
	<path class="st108" d="M170.01,237.58c3.7,0,7.41-0.01,11.11,0c0.76,0,1.84-0.18,1.83,0.93c-0.01,1.09-1.08,0.93-1.85,0.94
		c-7.32,0.02-14.64,0.02-21.96,0.02c-0.86,0-2.07,0.08-1.98-1.11c0.07-0.9,1.21-0.77,2-0.77
		C162.78,237.59,166.39,237.59,170.01,237.58z"/>
	<path class="st108" d="M124.63,253.35c0.7-1.34,0.55-3.29,2.63-3.64c3.09-0.84,6.09-0.28,9.09,0.54c-0.5,0.66-1.52,1.04-1.16,2.16
		C131.54,251.29,128.06,252.06,124.63,253.35z"/>
	<path class="st3" d="M371.61,285.83c2.4-7.23,2.48-15.12,6.45-21.94c1.96-3.36,2.74-7.07,2.53-11.16
		c-0.14-2.81,2.38-4.87,4.66-6.36c3.16-2.06,6.54-3.77,10.06-5.77c1.11,5.3,4.79,8.42,8.88,11.16c1.31,0.88,1.81,1.91,1.76,3.52
		c-0.25,8.65-0.35,17.3-0.58,25.96c-0.09,3.2,0.32,6.35,0.84,9.48c0.23,1.4,0.7,2.91,2.51,2.92c1.61,0.01,2.11-1.29,2.57-2.6
		c1.76-5.08,1.77-10.38,1.99-15.64c0.24-5.56,0.38-11.12,0.45-16.68c0.02-1.63,0.54-1.96,2.03-1.52c1.92,0.57,3.85,1.26,6.24,1.03
		c-1.59-2.14-3.9-2.62-5.91-3.48c-1.48-0.63-2.39-1.27-2.72-3.06c-0.54-2.96-3.23-4.02-5.89-2.41c-1.06,0.64-1.74,0.52-2.59-0.07
		c-4.11-2.85-6.5-6.58-6.4-11.77c0.09-4.82,2.7-7.85,6.68-10.01c3.07-1.66,6.34-2.67,9.86-2.72c0.78-0.01,1.59-0.02,2.08,0.84
		c0.54,0.96,0.08,1.68-0.46,2.41c-1.63,2.15-3.61,3.98-4.49,6.72c-1.72,5.35-0.74,9.37,3.78,12.61c3.01,2.16,6.25,3.98,9.36,6
		c1.76,1.15,3.34,0.59,4.96-0.3c7.12-3.91,14.2-7.88,21.37-11.69c11.31-6,23.02-11.18,34.7-16.41c2.42-1.09,4.81-2.26,6.81-4.03
		c1.26-1.12,2.51-2.37,2.03-4.3c-0.48-1.92-2.12-2.51-3.8-2.84c-1.55-0.3-3.15-0.54-4.72-0.55c-6.36-0.03-12.72,0.05-19.07,0.08
		c-2.38,0.01-4.76,0-7.36,0c0.45-1.45,1.54-1.42,2.36-1.64c7.54-2.07,15.27-2.75,23.05-2.87c5.04-0.07,10.06-0.03,14.99,1.32
		c6.65,1.81,9.98,5.67,10.59,12.54c0.12,1.4,0.26,2.83,0.14,4.23c-0.4,4.43,0.99,8.05,4.15,11.23c3.48,3.48,3.36,7.74,1.88,12.11
		c-0.38,1.11-0.79,1.6-2.06,0.9c-7.71-4.22-15.96-3.91-24.27-2.63c-13.36,2.07-26.36,5.84-39.62,8.38c-0.61,0.12-1.22,0.2-1.82,0.34
		c-1.91,0.45-3.51,0.8-3.55-2.19c-0.02-1.56-1.43-2.71-3.18-2.56c-1.98,0.17-3.82,1.06-3.89,3.25c-0.08,2.23-0.98,2.83-3.01,2.78
		c-1.53-0.04-3.07,0.27-4.62,0.63c1.6,0.85,3.35,0.78,5.05,0.87c1.66,0.09,2.2,0.76,2.13,2.47c-0.3,7.32-0.42,14.65-0.66,21.98
		c-0.11,3.2,0.15,6.35,0.82,9.47c0.36,1.66,0.94,3.07,3.02,3.04c2.1-0.03,2.64-1.55,2.92-3.16c1.29-7.51,1.31-15.12,1.57-22.7
		c0.1-2.91,0.14-5.83,0.11-8.74c-0.01-1.26,0.27-1.88,1.68-2.07c14.98-1.99,29.5-6.38,44.43-8.65c5.71-0.87,11.4-1.14,17.09,0.34
		c5.54,1.45,9.7,4.71,12.38,9.66c6.1,11.24,8.88,23.55,11.18,35.99c0.18,0.98-0.2,1.72-0.66,2.47
		c-6.87,11.17-15.01,21.38-23.66,31.2c-0.52,0.59-1.04,1.14-1.93,1.28c-2.87,0.45-5.72,0.98-8.58,1.48l0.02,0.02
		c-0.3-0.89,0.53-1.22,0.92-1.73c4.53-5.89,8.56-12.11,12.1-18.64c0.44-0.81,1.1-1.58,1.01-2.91c-1.48,0.46-2.07,1.66-2.79,2.67
		c-3.75,5.24-7.25,10.66-11.49,15.54c-0.98,1.13-2.04,2.22-3.18,3.18c-2.67,2.24-4.38,1.91-6.11-1.2
		c-2.23-4.02-3.01-8.48-3.44-12.96c-1.19-12.57,0.53-24.71,6.35-36c3.76-7.28,9.47-12.53,17.88-14.03c2.21-0.39,4.52-0.26,7.23-0.39
		c-2.41-1.57-4.73-1.62-7.04-1.51c-9.02,0.42-14.96,5.72-19.55,12.81c-5.62,8.68-7.71,18.46-8.43,28.64
		c-0.28,3.96,0.14,7.9,0.05,12.2c-3.29-2.2-5.12-5.1-6.19-8.5c-1.62-5.18-2.12-10.54-2.31-15.94c-0.07-1.94-0.2-3.88-0.33-5.82
		c-0.04-0.63-0.2-1.39-0.91-1.44c-0.87-0.07-1.16,0.73-1.23,1.44c-0.14,1.4-0.19,2.82-0.27,4.23c-0.63,11.72,1.2,22.88,7.61,32.99
		c1.56,2.46,2.78,5.12,3.74,7.88c1.8,5.17-0.14,8.86-5.48,10.26c-2.13,0.56-4.32,0.9-6.49,1.27c-5.33,0.92-10.47,2.51-15.44,4.61
		c-2,0.85-4.03,1.25-6.17,1.25c-2.84,0-5.64,0.2-8.36,1.11c-2.47,0.82-4.73,0.05-6.81-1.22c-1.58-0.97-3.04-2.12-4.52-3.24
		c-4.42-3.35-9.03-5.79-14.86-6.22c-5.21-0.38-10.38-0.22-15.57-0.29c-1.51-0.02-3.44,0.11-3.97,1.58
		c-0.84,2.32-2.35,1.91-4.01,1.74c-2.63-0.27-5.27-0.56-7.91-0.74c-1.22-0.08-1.69-0.52-1.63-1.78c0.66-14.38,0.21-28.78,1.26-43.15
		c0.74-10.17,2.29-20.18,4.46-30.13c0.12-0.53,0.28-1.16-0.44-2c-4.93,12.65-6.71,25.72-8.19,38.89
		c-2.37-5.71-5.22-11.22-5.02-17.61c0.03-1.09,0.09-2.34-1.09-3.06C371.57,285.79,371.61,285.83,371.61,285.83z M411.82,227.48
		c0.13-0.09,0.26-0.17,0.39-0.26c-0.08-0.03-0.16-0.07-0.24-0.1c-0.04,0.14-0.08,0.28-0.12,0.41c-0.32-0.27-0.58-0.07-0.83,0.13
		c-3.27,2.1-4.56,5.13-3.39,8.38c0.74-3.02,2.49-5.37,3.7-7.98C411.63,227.97,411.89,227.86,411.82,227.48z M451.81,251.84
		c12.58-3.57,24.87-8.06,37.56-11.27C476.16,242.1,463.66,245.94,451.81,251.84z M386.61,266.29c-0.09,0.13-0.2,0.25-0.24,0.39
		c-0.07,0.24,0,0.45,0.29,0.38c0.09-0.02,0.18-0.26,0.17-0.39C386.82,266.55,386.69,266.43,386.61,266.29z"/>
	<path class="st1" d="M380.61,365.4c6.22-4.88,13.78-6.13,20.65-8.99c0.75-0.31,2-0.23,1.91-1.41c-0.08-0.98-0.77-1.81-1.86-1.99
		c-3.04-0.52-5.9-1.77-9-2.05c-4.13-0.37-8.25-0.89-12.38-1.27c-1.43-0.13-2.35-0.59-2.29-2.5c5.23,0.4,10.46,0.79,15.69,1.2
		c0.25,0.02,0.54,0.11,0.73,0.27c5.24,4.31,11.46,3.23,17.49,3.2c0.7,0,1.4-0.2,2.1-0.23c1.42-0.05,3-0.22,3.32,1.73
		c0.31,1.83-0.51,2.99-2.31,3.6c-6.92,2.37-14.02,4.37-20.69,7.32c-9.91,4.38-20.07,2.97-30.22,2.38
		c-22.3-1.3-44.59-2.87-66.89-4.04c-5.59-0.29-9.05-2.17-11.28-7.57c-7.47-18.09-15.39-35.99-23.05-54.01
		c-2.93-6.89-1.39-9.18,6-8.93c15.52,0.51,31.04,1.29,46.55,2.04c10.75,0.52,21.52,0.99,32.29,1.3c6.29,0.18,7.68,1.33,9.93,7.14
		c6.52,16.85,13.22,33.63,19.64,50.51C378.42,356.99,380.68,360.7,380.61,365.4z M310.58,327.42c-0.03,3.84,3.86,7.83,7.76,7.95
		c3.17,0.1,5.87-2.46,5.85-5.52c-0.03-3.79-4.09-7.72-7.98-7.73C312.91,322.11,310.61,324.27,310.58,327.42z"/>
	<path class="st1" d="M393.43,156.61c-0.17,2.13-1.28,4.23-0.08,7.07c3.17-4.38,6.5-8.03,11.58-10.04
		c-0.36,2.61-2.45,4.24-2.69,6.77c2.15,0.01,3.7-1.08,5.25-2.18c2.23-1.58,4.39-3.27,6.71-4.71c2.43-1.51,5.12-2.36,8.04-2.27
		c1.58,0.05,2.61,0.56,2.68,2.45c0.19,5.08,2.84,8.81,7.33,10.8c6.16,2.74,7.52,7.79,7.17,13.66c-0.15,2.5,0.63,2.69,2.62,2.14
		c1.85-0.51,3.04-1.63,3.79-3.37c0.98-2.29,2.29-4.36,4.37-5.87c5.34-3.9,10.94-1.62,11.97,4.91c1.16,7.35-2.06,13.53-8.74,16.78
		c-2.17,1.05-4.39,1.25-6.67,0.37c-0.99-0.38-1.89-0.62-2.22,0.81c-0.29,1.27-0.26,2.3,1.42,2.45c0.79,0.07,1.56,0.28,2.34,0.44
		c2.8,0.58,4.54,2.14,4.93,5.1c0.27,2.01,0.69,4,1.12,5.98c1.55,7.05,4.79,13.07,10.89,17.23c1.48,1.01,1.31,1.5,0.11,2.68
		c-4.95,4.89-10.6,8.74-16.71,12c-4.9,2.62-9.77,5.29-14.62,8c-1.92,1.07-3.88,1.66-6.08,1.32c-6.31-0.96-8.25-4.93-5.86-12.1
		c1,0.84,1.17,2.16,1.89,3.13c0.43,0.58,0.68,1.74,1.56,1.38c1.04-0.42,0.31-1.37,0.05-2.06c-1.05-2.81-1.88-5.69-2.51-8.63
		c-0.45-2.07-0.06-3.52,1.93-4.85c7.19-4.78,11.19-12.07,14.79-19.61c0.24-0.49,0.24-1.03-0.03-1.59c-1.13,0.01-1.53,1.05-2.15,1.68
		c-6.65,6.64-14.58,11.1-23.55,13.66c-6.66,1.9-10.03,0.56-13.73-5.18c-2.49-3.87-5.39-7.43-8.07-11.15
		c-2.46-3.41-3.68-7.2-3.7-11.38c-0.01-4.37,0-8.73,0.45-13.16c1.4,1.4,1.51,3.44,3.25,4.31c2.24,1.12,3.44-0.12,4.37-2.33
		c0.83,1.82,0.02,3.14-0.41,4.45c-0.43,1.34-1.16,2.58-1.6,3.91c-1,2.98,0.72,5.58,3.81,5.91c0.54,0.06,1.12,0.16,1.37-0.45
		c0.2-0.47-0.21-0.83-0.55-1.06c-2.92-1.97-2.43-4.31-1.15-7.1c1.91-4.14,2.67-8.4-0.95-12.72c-0.14,1.08-0.22,1.78-0.32,2.6
		c-0.2-0.07-0.43-0.1-0.59-0.22c-2.09-1.6-4.31-1.99-6.62-0.56c-0.78,0.49-1.55,1.26-1.96-0.15c-0.35-1.2-2.34-2.46-0.16-3.77
		c1.47-0.89,3.17-1.03,4.81-1.32c0.81-0.14,2.07,0.15,2.03-1.11c-0.05-1.34-1.14-1.93-2.42-1.92c-1.61,0.01-3.16,0.49-4.61,1.11
		c-1.7,0.73-1.97,0-1.98-1.46c-0.05-4.91,3-7.89,6.5-10.61c0.35-0.27,0.74-0.48,1.11-0.71
		C393.13,156.27,393.28,156.44,393.43,156.61z M418.31,174.77c1.41,0.41,2.59,0.75,3.77,1.1c0.47,0.14,0.91,0.02,1.19-0.33
		c0.51-0.62-0.13-0.95-0.46-1.26c-2.24-2.12-4.82-3.51-7.99-3.49c-1.78,0.01-3.23,0.79-4.35,2.13c-0.39,0.46-0.85,1.5-0.54,1.62
		c2.15,0.82,1.25,2.9,1.93,4.3c1.23,2.54,3.73,2.83,5.4,0.57C418.27,178.06,418.36,176.49,418.31,174.77z M425.92,167.04
		c-1.41-2.17-2.87-3.09-4.47-3.82c-4.63-2.12-9.3-1.4-13.96-0.12c-1.14,0.31-2.3,0.81-1.86,2.35c0.44,1.54,1.66,2.18,3.09,1.58
		C414.21,164.69,419.72,165.08,425.92,167.04z M403.46,205.69c0.75,0,0.92,0,1.1,0c5.99-0.05,10.01-3.76,13.91-7.6
		c0.73-0.72-0.01-1.54-0.68-1.94c-0.51-0.3-1.37-1.29-1.76,0.24c-0.34,1.34-1.52,1.89-2.54,2.53c-3.6,2.22-7.47,3.49-11.77,3.16
		c-0.89-0.07-1.88-0.15-2.11,1.02c-0.23,1.18,0.64,1.79,1.58,2.11C402.08,205.52,403.06,205.61,403.46,205.69z M458.82,176.7
		c0.15-2.56-0.48-3.38-2.66-3.57c-3.35-0.29-6,2.2-6.17,5.75c-0.08,1.65,0.34,3.31-0.34,4.95c-0.32,0.77-1.18,1.79,0.1,2.54
		c1.05,0.61,2.08,0.19,2.97-0.39c1.96-1.27,2.55-4.2,1.33-6.86c-0.42-0.92-0.96-1.72,0.02-2.57c0.85-0.73,1.81-1.1,2.91-0.71
		C457.62,176.06,458.19,176.4,458.82,176.7z"/>
	<path class="st3" d="M442.74,387.31c-4.87,3.75-10.1,6.7-15.2,9.8c-5.62,3.41-11.51,6.37-17.11,9.81c-3.3,2.03-6.6,2.54-10.32,1.82
		c-6.32-1.22-12.66-2.31-18.83-4.21c-0.42-0.13-0.84-0.28-1.25-0.43c-7.62-2.83-8.55-4.53-6.75-12.36c0.18-0.77,0.38-1.53,0.61-2.45
		c14.15,9.88,30.31,9.87,46.8,9.92c-0.9-1.28-1.94-0.89-2.79-0.91c-9.94-0.2-19.65-1.9-29.23-4.41c-3.77-0.99-7.34-2.51-10.53-4.82
		c-2.66-1.93-3.92-4.44-3.37-7.78c0.51-3.05,0.94-6.1,1.43-9.15c0.08-0.48-0.12-1.14,0.48-1.38c0.58-0.23,1.07,0.19,1.34,0.62
		c1.98,3.19,5.08,3.26,8.36,3.35c4.2,0.12,8.05,1.96,11.85,3.5c8.08,3.27,16.38,4.06,24.93,3.31c2.21-0.19,4.4-0.17,6.6-0.01
		c2.53,0.18,4.7,0.84,6.76,2.53C438.26,385.45,440.53,386.18,442.74,387.31z"/>
	<path class="st1" d="M391.77,371.8c5.57-1.4,11.2,1.58,16.8,0.29c-3.73-2.07-7.89-1.87-11.88-2.52c3.21-4.02,8.1-3.56,13.01-4.43
		c-1.83-1.35-3.38-1.17-4.99-1.61c3.45-2.02,7.14-2.81,10.73-3.88c3.54-1.05,4.98-3.41,4.34-6.99c-0.33-1.85-1.35-3-3.27-3.3
		c-1.93-0.3-3.85-0.34-5.8-0.11c-3.34,0.4-6.69,0.5-10-0.32c-0.76-0.19-1.55-0.39-2.24-0.76c-1-0.54-2.21-1.21-1.87-2.56
		c0.34-1.35,1.7-0.97,2.7-0.98c2.38-0.03,4.77,0.14,7.15,0c8.83-0.51,16.52,2.09,22.96,8.21c2.8,2.66,6.23,3.93,9.96,4.5
		c6.21,0.95,8.62,3.59,8.98,9.92c0.11,1.87-0.14,3.71-0.64,5.5c-1.67,5.98-3.88,7.48-9.97,6.38c-5.16-0.93-10.27-1.44-15.5-0.65
		c-9.3,1.4-18.02-0.92-26.55-4.37c-1.34-0.54-2.69-1.06-4.03-1.59C391.69,372.27,391.73,372.03,391.77,371.8z"/>
	<path class="st1" d="M398.35,217.94c2.53,2.24,3.09,4.57,1.12,7.57c-1.78,2.71-3.02,5.78-4.63,8.61
		c-2.61,4.61-6.27,7.57-11.94,7.23c-1.63-0.1-3.35-0.15-4.6,1.68c1.42,0.84,2.87,0.11,4.42,0.69c-3.71,3.39-5.48,7.96-8.2,11.88
		c-2.76,3.97-7.12,4.61-11.58,4.33c-3.83-0.24-6.63-2.18-8.15-5.81c-0.73-1.74-0.8-3.33,0.61-4.87c2.89-3.15,4.45-7.42,8.3-9.77
		c0.91-0.55,0.18-1.07-0.09-1.52c-1.67-2.78-2.56-5.78-2.81-9c-0.42-5.36-0.44-10.74-1.4-16.06c-0.42-2.37,0.33-4.39,2.92-5.24
		c1.93-0.63,6.8,0.45,7.67,1.83c1.06,1.68-0.33,2.2-1.49,2.56c-1.48,0.45-2.96-0.08-4.44-0.32c-0.7-0.11-1.75-0.56-2.07,0.44
		c-0.25,0.77,0.64,1.17,1.25,1.48c0.77,0.39,1.11,1,1.42,1.79c3.03,7.64,9.09,12.46,15.93,16.29c3.8,2.13,9.4,0.01,12.35-4
		c1.36-1.84,2.59-3.75,3.12-6.07C396.38,220.2,397.19,218.92,398.35,217.94z M375.77,233.04c-0.33,1.61-0.66,3.22-0.99,4.83
		C376.43,236.53,376.65,234.9,375.77,233.04z"/>
	<path class="st3" d="M338.64,264.16c1.69,11.84,16.04,19.09,28.35,14.47c0.79-0.3,1.73-1.09,2.45-0.54
		c0.88,0.68,0.23,1.82,0.07,2.74c-0.51,2.93-1.88,5.54-3.48,7.94c-3.12,4.67-4.8,9.57-3.51,15.23c0.21,0.92,0.03,1.93,0.03,3.39
		c-1.53-2.5-2.43-4.81-3.23-7.13c-1.68-4.85-5.08-7.33-10.13-7.42c-8.73-0.16-17.43-1.01-26.17-0.68c-1.88,0.07-2.43-0.25-1.27-2.12
		c3.45-5.55,6.25-11.45,9.11-17.31C332.58,269.2,334.69,265.97,338.64,264.16z"/>
	<path class="st3" d="M375.82,260.37c-1.47,5.02-3.85,9.63-7.13,13.64c-1.98,2.43-5.19,2.8-8.2,3.11c-5.87,0.6-11-1.13-15.15-5.32
		c-3.59-3.63-4.59-7.92-2.84-12.86c1.91-5.38,4.11-10.51,9.18-13.74c0.14,0.15,0.27,0.31,0.41,0.46
		c-4.75,11.09,4.74,18.55,14.62,17.22c3.17-0.43,6.01-1.75,9.04-2.56L375.82,260.37z"/>
	<path class="st121" d="M385.62,187.37c0.19,3.02,0.29,5.45,0.5,7.87c0.35,3.89,1.93,7.29,4.25,10.39c0.85,1.13,1.7,2.26,2.49,3.43
		c1.33,1.96,3.99,3.91,3.61,5.92c-0.55,2.98-2.82,5.61-4.75,8.13c-0.79,1.03-1.76,1.11-2.75,0.29c-5.74-4.72-11-9.91-15.47-15.86
		c-0.53-0.71-1.02-1.49-0.36-2.39C377.3,199.48,380.48,193.11,385.62,187.37z"/>
	<path class="st3" d="M444.94,355.36c4.3-0.96,8.35-0.76,12.27,0.1c5.49,1.21,10.03,8.12,9.54,13.8c-0.08,0.93-0.6,1.42-1.22,1.91
		c-5.23,4.2-10.7,8.08-16.16,11.95c-1.52,1.08-3.12,0.77-5.23,0.6c5.27-3.6,7.14-8.58,7.3-14.25
		C451.6,363.87,450.33,358.76,444.94,355.36z"/>
	<path class="st3" d="M370.56,287.97c-0.83,4.41,0.63,8.5,1.82,12.61c2.63,9.07,3.3,18.15,0.28,27.27c-0.3,0.91-0.51,1.87-1.32,2.59
		c-2.24-5.66-4.45-11.28-6.69-16.9c-0.27-0.68-0.49-1.34-0.21-2.04c1.34-3.38,1.17-6.9,1.02-10.43c-0.22-5.12,2.4-9.13,5.16-13.08
		C370.6,288.01,370.56,287.97,370.56,287.97z"/>
	<path class="st3" d="M469.85,367.54c-1.39-6.52-4.44-11.64-10.8-14.93c5.07-1.95,9.62-3.51,14.48-3.6
		c3.87-0.07,7.59,2.69,8.58,5.92c0.3,0.97,0.45,1.85-0.43,2.65C477.93,361,474.22,364.47,469.85,367.54z"/>
	<path class="st1" d="M443.25,271.97c0,5.29,0.01,10.57-0.01,15.86c-0.01,1.25-0.16,3.01-1.46,3.05c-1.56,0.05-1.78-1.73-1.75-3.07
		c0.26-10.22,0.56-20.44,0.89-30.65c0.04-1.24,0.27-2.79,1.89-2.66c1.69,0.13,1.38,1.74,1.38,2.94c0.01,4.84,0,9.69,0,14.53
		C443.88,271.97,443.57,271.97,443.25,271.97z"/>
	<path class="st1" d="M408.07,268.84c0-5.12-0.03-10.23,0.02-15.35c0.01-1.19-0.06-2.81,1.67-2.77c1.68,0.04,1.63,1.66,1.61,2.85
		c-0.15,10.14-0.36,20.29-0.57,30.43c-0.01,0.43-0.11,0.88-0.26,1.29c-0.24,0.65-0.47,1.48-1.27,1.53
		c-0.99,0.06-1.22-0.92-1.48-1.61c-0.24-0.63-0.24-1.38-0.24-2.08c-0.02-4.76-0.01-9.53-0.01-14.29
		C407.72,268.84,407.89,268.84,408.07,268.84z"/>
	<path class="st1" d="M364.01,202.9c-0.21-6.33,6.39-8.96,11.75-7.96c1.3,0.24,1.19,1.13,0.67,2c-0.91,1.52-2.38,2.17-4.05,1.96
		c-2.91-0.37-4.43,0.85-4.94,3.66c-0.13,0.73-0.49,1.62-1.04,2.03c-0.44,0.32-1.39,0.17-2.02-0.05
		C363.64,204.27,364.04,203.48,364.01,202.9z"/>
	<path class="st3" d="M480.59,348.08c4.15-0.65,7.76-1.06,11.79-0.68c-1.85,2.41-3.88,4.06-5.77,5.85
		c-0.58,0.55-1.06,0.55-1.45-0.19C484.16,351.15,482.5,349.83,480.59,348.08z"/>
	<path class="st3" d="M490.85,342.49c3.36-3.12,7.33-5.07,12.12-5.72C500.07,341.29,496.88,344.85,490.85,342.49z"/>
	<path class="st1" d="M396.81,354.74c-2.64,1.41-5.24,2.02-8.13,0.89c-2.12-0.83-4.46-0.95-6.76-1.02
		c-1.15-0.04-2.13-0.22-2.15-1.97C385.48,353.31,391.22,353.3,396.81,354.74z"/>
	<path class="st3" d="M468.61,229.54c2.78-4.88,9.03-7.8,15.54-7.2C478.69,224.87,473.9,227.09,468.61,229.54z"/>
	<path class="st121" d="M385.94,228.79c-4.12,0.89-16.66-9.71-17.74-15C373.42,219.85,378.92,224.92,385.94,228.79z"/>
	<path class="st1" d="M375.12,192.16c-1.71,0.12-2.4-0.03-1.66-1.37c0.89-1.63,1.86-3.2,3.44-4.22c1.07-0.69,2.45-0.99,3.39,0
		c1,1.06,0.39,2.33-0.41,3.32C378.5,191.59,376.53,191.99,375.12,192.16z"/>
	<path class="st1" d="M390.94,368.65c-4.53,3.3-6.56,3.75-9.44,2.11C384.92,370.42,387.83,369.05,390.94,368.65z"/>
	<path class="st1" d="M381.76,357.39c1.81-0.4,3.46,0.17,5.14,0.7C384.19,360.88,382.77,360.69,381.76,357.39z"/>
	<path class="st121" d="M372.81,201.69c-1.14,1.28-1.58,3.15-3.62,4.31C369.96,203.76,370.76,202.2,372.81,201.69z"/>
	<path class="st121" d="M370.97,286.29c0.09,0.62,0.09,1.21-0.42,1.68c0,0,0.05,0.04,0.05,0.04c-0.24-0.65-0.07-1.2,0.41-1.68
		L370.97,286.29z"/>
	<path class="st121" d="M468.12,229.58c-0.14-0.06-0.28-0.11-0.42-0.16c0.14-0.11,0.27-0.28,0.43-0.32c0.1-0.02,0.24,0.15,0.37,0.23
		C468.37,229.41,468.25,229.5,468.12,229.58z"/>
	<path class="st1" d="M392.97,156.09c0.24-0.14,0.41-0.65,0.73-0.31c0.22,0.23,0.07,0.63-0.27,0.83
		C393.28,156.44,393.13,156.27,392.97,156.09z"/>
	<path class="st121" d="M375.76,260.32c0.07-0.12,0.14-0.24,0.2-0.36c0.06,0.05,0.12,0.1,0.18,0.16c-0.11,0.09-0.22,0.17-0.33,0.26
		C375.82,260.37,375.76,260.32,375.76,260.32z"/>
	<path class="st121" d="M371.02,286.33c0.2-0.17,0.4-0.33,0.6-0.5c0,0-0.04-0.04-0.04-0.04c-0.2,0.17-0.4,0.33-0.6,0.5
		C370.97,286.29,371.02,286.33,371.02,286.33z"/>
	<path class="st121" d="M351.69,245.2c0.21-0.02,0.43-0.05,0.64-0.07c-0.08,0.18-0.15,0.36-0.23,0.54
		C351.96,245.51,351.83,245.36,351.69,245.2z"/>
	<path class="st121" d="M498.22,334.02c-0.09,0.09-0.19,0.18-0.28,0.28c-0.02-0.07-0.04-0.14-0.06-0.21
		c0.12-0.01,0.23-0.03,0.35-0.04C498.24,334.04,498.22,334.02,498.22,334.02z"/>
	<path class="st1" d="M93.36,165.13c2.88,0.04,3.63,1.45,3.16,4.21c-0.54,3.21-0.61,6.49-0.48,9.76c0.05,1.21,0.22,2.36,1.71,2.56
		c1.52,0.2,2.25-0.67,2.56-2.06c0.8-3.61,1.64-7.2,2.44-10.81c0.22-1,0.33-2.06,1.79-1.29c2.68,13.33,1.08,25.78-7.49,36.83
		c-1.96,2.53-2.46,2.53-3.87-0.28c-5-9.96-5.35-20.3-2.45-30.87C91.47,170.45,92.47,167.81,93.36,165.13z"/>
	<path class="st1" d="M124.63,253.35c3.43-1.29,6.91-2.06,10.55-0.94c1.53,1.34,3.63,1.63,5.21,2.94c2.83,2.35,4.62,5.35,5.54,8.81
		c0.51,1.91,1.3,2.23,3.15,1.9c4.55-0.79,11.09,2.26,12.04,6.49l0.03-0.03c-0.26-0.04-0.59,0-0.76-0.14
		c-4.91-3.98-10.35-4.45-16.15-2.4c-1.06,0.37-1.51,0.3-1.7-1.01c-1.46-10-10.34-14.05-19.37-10.64c-2.61,0.98-4.59,2.87-7.48,4.36
		C117.7,258.13,121.03,255.61,124.63,253.35z"/>
	<path class="st1" d="M63.58,263.59c3.04-2.56,6.33-3.94,10.07-4.28c7.73-0.7,13.75,2.33,18.2,8.55c0.92,1.28,1.68,1.67,3.26,1.23
		c3.39-0.94,6.8-1.13,9.85,1.15c0.47,0.35,1.17,0.75,0.76,1.47c-0.28,0.49-0.96,0.38-1.46,0.28c-4.77-1.04-9.66-0.13-14.47-0.93
		c-1.48-0.25-2.65-0.58-3.67-1.69c-3.36-3.69-7.34-6.19-12.48-6.67c-2.52-0.24-4.86,0.43-7.28,0.76
		C65.55,263.56,64.8,264.33,63.58,263.59z"/>
	<path class="st1" d="M66.54,247.52c10.49-9.75,29.58-6.17,34.71,8.69C91.79,244.61,80.36,241.22,66.54,247.52z"/>
	<path class="st1" d="M28.9,269.58c1.47-6.49,7.38-10.41,14.27-9.76c5.35,0.5,10.26,6.05,10.35,12.13
		c-2.48-4.78-6.17-8.04-11.59-8.29C36.75,263.42,32.53,265.98,28.9,269.58z"/>
	<path class="st1" d="M37.52,254.72c7.77-8.2,21.86-7.39,27.41,1.76C55.97,249.45,47.09,250.3,37.52,254.72z"/>
	<path class="st1" d="M115.03,264.06c-0.55,2.35-1.77,2.8-4.23,2.36c-2.94-0.52-6.04-0.12-9.09-0.43c3.12-2.37,6.53-3.1,10.28-2.19
		c1.01,0.24,2,0.77,3.07,0.29L115.03,264.06z"/>
	<path class="st108" d="M113.62,239.2c-0.82-1.51-1.65-2.97-1.68-4.65c-0.01-0.71-0.42-1.83,0.66-1.94c1.02-0.1,0.94,1.1,1.1,1.78
		C114.07,235.97,114.03,237.58,113.62,239.2z"/>
	<path class="st1" d="M34.81,257.97c-0.05-0.93,0.42-1.41,1.17-1.71c0.81,0.48,0.24,0.86-0.05,1.22
		C35.67,257.79,35.35,258.08,34.81,257.97z"/>
	<path class="st1" d="M66.3,257.68c-0.34-0.03-0.7-0.06-0.79-0.47c-0.02-0.07,0.17-0.2,0.26-0.3c0.17,0.26,0.33,0.53,0.5,0.79
		L66.3,257.68z"/>
	<path class="st1" d="M115.06,264.08c0.07-0.24,0.15-0.48,0.22-0.72c0.45,0.42,0.02,0.53-0.25,0.69
		C115.03,264.06,115.06,264.08,115.06,264.08z"/>
	<path class="st1" d="M161.13,272.56c0.07,0.04,0.15,0.07,0.22,0.11c-0.06-0.05-0.13-0.1-0.19-0.14
		C161.17,272.52,161.13,272.56,161.13,272.56z"/>
	<path class="st1" d="M66.27,257.71c0.07,0.04,0.14,0.08,0.22,0.12c-0.06-0.05-0.13-0.1-0.19-0.14
		C66.3,257.68,66.27,257.71,66.27,257.71z"/>
	<path class="st1" d="M150.68,114.49c-0.31,1.68-1.16,2.83-2.94,2.79c-1.88-0.04-2.94-1.26-2.97-3.02c-0.02-1.82,1.1-2.98,2.99-2.89
		C149.65,111.45,150.43,112.78,150.68,114.49z"/>
	<path class="st1" d="M72.66,323.1c1.5-3.01-0.04-5.32-2.59-7.39c-1.19-0.96-0.62-1.79,0.68-1.87c3.36-0.2,5.44-1.92,6.69-4.98
		c0.64-1.58,1.58-1.38,2.32,0.07c0.2,0.39,0.55,0.72,0.68,1.13c0.76,2.38,2.4,3.48,4.86,3.6c0.83,0.04,1.92,0.05,2.2,1.09
		c0.23,0.9-0.62,1.46-1.22,1.87c-2.41,1.65-2.83,3.8-1.98,6.44c0.2,0.63,0.47,1.5-0.15,1.99c-0.65,0.51-1.37-0.01-1.93-0.4
		c-2.43-1.71-4.81-1.68-7.3-0.06C73.75,325.33,72.46,325.72,72.66,323.1z"/>
	<path class="st1" d="M96.04,323.15c1.38-2.88,0.16-5.2-2.45-7.17c-1.3-0.98-1.23-2.03,0.6-2.14c3.34-0.2,5.54-1.68,6.65-4.92
		c0.46-1.35,1.51-1.57,2.1-0.02c1.15,2.99,3.11,4.68,6.42,4.86c1.84,0.1,2.2,1.29,0.7,2.32c-2.75,1.87-3.32,4.21-2.44,7.27
		c0.48,1.65-0.18,2.55-1.87,1.39c-2.65-1.82-5.11-1.63-7.78,0.04C96.5,325.71,95.88,325.17,96.04,323.15z"/>
	<path class="st1" d="M49.4,323.08c1.39-2.87-0.06-5.16-2.51-7.17c-1.11-0.91-0.87-1.79,0.49-1.91c3.54-0.32,5.8-2.11,7.06-5.39
		c0.46-1.19,1.25-1.05,1.9-0.03c0.24,0.37,0.55,0.72,0.68,1.13c0.86,2.52,2.55,3.85,5.25,3.97c0.74,0.03,1.75,0.11,1.97,1.03
		c0.21,0.89-0.62,1.45-1.24,1.88c-2.25,1.54-3.04,3.49-2.11,6.13c0.25,0.7,0.56,1.69-0.08,2.27c-0.71,0.64-1.55,0-2.15-0.43
		c-2.49-1.81-4.87-1.43-7.3,0.13C50.04,325.52,49.17,325.3,49.4,323.08z"/>
	<path class="st1" d="M119.39,323.11c1.21-2.8,0.07-5.21-2.46-7.24c-1.33-1.06-0.85-1.84,0.62-1.99c3.27-0.34,5.51-1.87,6.62-5.07
		c0.4-1.16,1.22-1.13,1.9-0.08c0.24,0.37,0.54,0.72,0.68,1.13c0.86,2.41,2.52,3.65,5.1,3.78c0.82,0.04,1.94,0.04,2.19,1.09
		c0.21,0.87-0.63,1.47-1.24,1.88c-2.32,1.57-2.8,3.61-1.98,6.18c0.22,0.68,0.57,1.63-0.25,2.19c-0.67,0.46-1.38,0.02-1.95-0.39
		c-2.45-1.77-4.85-1.53-7.3,0.03C120.11,325.41,119.1,325.47,119.39,323.11z"/>
	<path class="st1" d="M142.64,322.83c1.16-2.56,0.02-4.74-2.39-6.63c-1.63-1.27-1.11-2.15,0.8-2.45c2.53-0.4,4.59-1.39,5.83-3.9
		c0.81-1.63,2.31-1.51,2.99,0.09c1.12,2.66,3.14,3.49,5.73,3.8c2.04,0.24,2.55,1.35,0.75,2.62c-2.54,1.78-3.12,4.03-2.33,6.87
		c0.49,1.77-0.17,2.56-1.83,1.51c-2.66-1.68-5.13-1.83-7.8-0.03C142.8,325.77,142.38,324.8,142.64,322.83z"/>
	<path class="st1" d="M245.46,230.48c0-1.14,0-2.29,0-3.43c0-4.18-0.01-4.16,3.57-2.21c3.09,1.68,6.21,3.3,9.31,4.97
		c1.51,0.81,1.77,1.55-0.03,2.42c-3.57,1.71-7.11,3.48-10.62,5.31c-1.83,0.95-2.32,0.34-2.24-1.51
		C245.53,234.18,245.46,232.33,245.46,230.48z"/>
	<path class="st1" d="M82.08,148.6c-0.82-0.81-1.06-1.79-0.86-2.91c2.6-14.37,4.56-28.85,7.95-43.07
		c1.65-6.91,5.56-12.69,9.79-18.27c0.78-1.03,1.7-1.31,2.95-1.3c7.28,0.06,14.39,1.09,21.39,3.1c1.38,0.4,2.01,1.11,2.44,2.37
		c3.05,8.85,3.74,17.92,2.38,27.13c-1.84,12.47-3.81,24.91-5.76,37.36c-0.16,1.01-0.14,2.12-0.93,2.95
		c-5.45-0.03-10.69-1.27-15.9-2.69c0.55-4.8,1.12-9.59,1.66-14.39c0.21-1.91,0.34-3.84-2.33-4.13c-2.44-0.27-3.79,0.77-4.21,3.24
		c-0.78,4.58-1.69,9.14-2.55,13.71c-2.48,0.04-4.8-0.79-7.18-1.31C87.98,149.77,85.25,148.08,82.08,148.6z M97,109.89
		c-0.05,6.39,4.95,11.67,11.15,11.78c6.76,0.11,12.05-4.99,12.31-11.58c0.27-6.7-6.07-12.46-12.09-12.37
		C102.03,97.82,97.06,103.05,97,109.89z"/>
	<path class="st121" d="M61.37,169.7c0.43-6.05,1.61-11.57,2.38-17.16c0.42-3.06,1.05-6.1,1.35-9.17c0.21-2.18,0.97-3.81,2.79-5.1
		c3.74-2.66,7.37-5.47,11.09-8.15c0.68-0.49,1.56-1.44,2.31-0.95c0.87,0.57,0.32,1.79,0.17,2.69c-0.55,3.31-0.97,6.66-1.86,9.88
		c-1.14,4.13-0.95,8.02,1.12,11.76c0.77,1.39,0.49,2.27-0.84,3.01c-2.08,1.15-3.8,2.9-6.07,3.73c-0.93,0.34-1.33,1.14-1.8,1.86
		C69.54,165.93,65.9,168.07,61.37,169.7z"/>
	<path class="st121" d="M120.87,161.47c4.44-4.42,3.81-10.51,5.2-15.93c0.57-2.21,0.84-4.49,1.26-6.8c1.23,0.36,1.57,1.46,2.09,2.3
		c2.29,3.66,4.45,7.4,6.74,11.06c1.15,1.83,1.43,3.65,0.88,5.77c-1.87,7.23-2.75,14.68-4.86,21.87c-0.42,1.42-0.11,3.11-0.66,4.89
		c-4.03-3.22-5.38-7.83-7.49-11.96c0.72-1.12,1.51-1.74,0.44-3.6C123.11,166.71,120.83,164.56,120.87,161.47z"/>
	<path class="st1" d="M124.29,84.55c-7.55-2.14-14.64-3.2-22.18-3.54c2.71-3.62,5.51-6.52,8.97-8.68c3.04-1.9,5.44-1.48,7.66,1.34
		C121.17,76.73,122.81,80.23,124.29,84.55z"/>
	<path class="st121" d="M82.08,148.6c3.17-0.52,5.9,1.17,8.84,1.8c2.38,0.51,4.7,1.34,7.18,1.31c-0.41,2.77-0.82,5.54-1.22,8.31
		c-0.16,1.1-0.73,1.5-1.82,1.25c-2.65-0.61-5.3-1.16-7.94-1.82c-0.55-0.14-1.29-0.54-1.47-1C84.38,155.2,81.95,152.36,82.08,148.6z"
		/>
	<path class="st121" d="M105.53,153.28c5.21,1.41,10.45,2.66,15.9,2.69c-1.63,3.2-4.48,5.34-6.92,7.82
		c-1.27,1.3-3.01,0.74-4.52,0.56c-6.4-0.73-6.44-0.78-5.28-7.01C104.96,155.99,104.67,154.51,105.53,153.28z"/>
	<path class="st121" d="M99.3,170.05c0.44-10.28,1.58-20.41,3.41-30.46c0.16-0.86,0.25-2.05,1.39-1.85c1.08,0.19,0.54,1.3,0.43,2.02
		C102.97,149.9,101.83,160.12,99.3,170.05z"/>
	<path class="st1" d="M120.87,161.47c-0.04,3.09,2.24,5.24,3.6,7.6c1.08,1.87,0.29,2.48-0.44,3.6c-1.37-1.9-2.8-3.76-4.09-5.71
		C117.92,163.91,117.96,163.89,120.87,161.47z"/>
	<path class="st121" d="M197.19,313.32c-4.84,3.76-6.4,9.02-5.01,14.56c0.92,3.69-0.33,5.53-2.74,7.53
		c-0.95,0.79-1.58,0.83-1.91-0.35c-0.9-3.22-3.05-4.25-6.17-3.75c-1.54,0.25-1.75-0.9-1.86-1.94c-0.12-1.12-0.88-2.51,0.88-3.14
		c0.08-0.03,0.17-0.07,0.25-0.08c4.9-0.57,4.54-4.5,5.05-7.88c0.26-1.74-1.19-2.19-2.22-2.93c-2.11-1.51-2.2-4.3-0.13-5.73
		c0.9-0.62,1.8,0.03,2.45,0.39c3.59,2,5.16-0.93,7.34-2.71c1.99-1.63,1.95-3.48,0.98-5.41c-1.22-2.43,0.57-2.99,2.06-3.9
		c1.84-1.12,2.43,0.43,3.01,1.47c1.19,2.11,2.74,2.85,5.04,2.02c0.41-0.15,0.88-0.24,1.3-0.18c2.83,0.41,4.22-0.94,4.76-3.61
		c0.34-1.66,1.19-2.53,3.2-2.11c1.9,0.4,2.97,0.92,2.69,3.16c-0.15,1.2-0.71,2.97,0.7,3.65c2.03,0.99,3.97,2.42,6.29,2.6
		c1.34,0.1,1.97-1.36,2.95-2.07c1.23-0.89,2.27-1.87,3.87-0.3c1.51,1.48,1.62,2.63,0.27,4.19c-0.78,0.9-2.14,1.86-1.66,3.12
		c0.84,2.2,1.88,4.42,3.3,6.28c0.84,1.09,2.71,0.54,4.06,0.4c2.47-0.27,2.27,1.49,2.73,2.97c0.55,1.77-0.8,1.75-1.75,2.29
		c-1.25,0.71-3.59,0.35-3.36,2.65c0.31,3.06-2.15,6.71,2.07,9.01c2.42,1.32,2.47,3.07,0.71,5.16c-0.79,0.95-1.57,0.25-2.39,0.24
		c-1.45-0.03-3.08-1.82-4.32,0.13c-1.65,2.61-5.71,4.09-3.89,8.43c0.46,1.09,1.82,2.54-0.22,3.86c-1.78,1.16-3.1,1.4-4.39-0.56
		c-1.44-2.19-3.27-3.04-5.8-1.64c-0.66,0.36-1.54,0.44-2.32,0.44c-2,0.02-2.89,1.21-3.04,2.95c-0.23,2.76-1.66,3.4-4.23,3.13
		c-1.91-0.2-2.08-1.19-2.02-2.64c0.08-2.15,0.29-4.37-2.93-5.03c1.6-1.59,2.98-2.91,4.3-4.29c0.88-0.93,1.89-1.17,3.12-0.94
		c6.9,1.27,15.78-4.5,17.99-11.49c2.49-7.86-0.62-16.65-7.59-20.7c-7.59-4.41-15.27-3.02-20.55,1.58c-0.39,0.34-0.88,0.62-0.91,1.23
		L197.19,313.32z"/>
	<path class="st1" d="M175.58,368.11c6.09-6.4,6.18-6.82,2.35-10.66c-2.85-2.85-3.72-2.59-9.35,2.8c-1.32-4.74,1.8-10.3,6.68-10.81
		c3.67-0.39,6.13-2.1,8.56-4.53c5.61-5.62,11.37-11.09,17.09-16.59c0.98-0.94,1.63-1.88,1.77-3.36c0.67-7.58,5.21-10.88,12.89-9.36
		c-1.24,1.92-3,3.26-4.53,4.78c-1.79,1.77-1.53,3.36,0.08,5.03c2.74,2.84,3.41,3.02,5.64,1.24c1.58-1.26,3.11-2.57,4.68-3.87
		c2.11,5.63-2.23,11.94-8.37,11.9c-2.2-0.01-3.53,0.79-4.99,2.27c-6.02,6.08-12.16,12.05-18.3,18c-1.52,1.47-2.37,3.09-2.69,5.23
		C186.22,365.96,181.86,368.97,175.58,368.11z"/>
	<path class="st121" d="M197.15,313.36c0.8,0.73,1.27-0.08,1.77-0.43c9.73-6.71,20.52-3.62,25.33,7.27l0.04-0.04
		c-1.39-0.95-2.63-0.63-3.83,0.38c-1.49,1.25-3.03,2.42-4.5,3.69c-1.05,0.91-1.81,0.65-2.68-0.29c-0.95-1.02-0.46-1.64,0.3-2.42
		c1.54-1.57,3.28-2.96,4.36-4.94c0.99-1.82,0.56-3.21-1.44-3.63c-6.13-1.29-14.09,0.2-15.81,8.76c-0.57,2.84-1.87,4.78-3.87,6.55
		c-0.78,0.69-1.52,1.43-2.49,2.35c-1.46-5.44-0.92-10.27,2.01-14.83c0.45-0.7,1.66-1.27,0.85-2.45
		C197.19,313.32,197.15,313.36,197.15,313.36z"/>
	<path class="st121" d="M224.25,320.2c3.73,10.83-4.73,21.92-15.8,20.35c1.53-1.73,2.77-3.2,5.38-3.27
		c6.76-0.18,11.63-6.17,10.85-12.92c-0.16-1.4-0.26-2.8-0.39-4.2C224.29,320.16,224.25,320.2,224.25,320.2z"/>
	<path class="st1" d="M186.43,36.76c0.49,4.22,2.48,7.62,5.67,10.36c-2.22,2.14-4.42,4.29-6.65,6.41c-2.49,2.38-3.14,2.3-5.72,0.1
		c-5.26-4.47-9.56-9.87-14.46-14.69c-0.48-0.47-1.18-0.96-0.85-1.77c0.3-0.72,1.05-0.53,1.64-0.52
		C172.85,36.68,179.64,36.72,186.43,36.76z"/>
	<path class="st1" d="M165.22,67.26c2.98-4.43,6.79-7.39,9.71-11.12c0.69-0.88,1.31-0.78,2.19-0.04c5.03,4.23,5.06,4.21,10.24,0.8
		c0.47-0.31,0.91-0.66,1.4-0.18c3.34,3.32,6.66,6.66,9.98,9.99c-0.14,0.19-0.28,0.37-0.41,0.56
		C187.47,67.26,176.62,67.26,165.22,67.26z"/>
	<path class="st1" d="M162.49,41.1c3.9,3.74,7.32,7.14,10.47,10.81c0.54,0.64,0.57,1.29-0.04,1.88c-3.45,3.37-6.34,7.28-10.43,10.76
		C162.49,56.64,162.49,49.22,162.49,41.1z"/>
	<path class="st1" d="M195.1,48.58c2.18,0.22,4.35,0.43,6.53,0.65c-0.46,2.44-0.14,4.9-0.19,7.35c-0.05,2.44-0.01,4.87-0.3,7.48
		c-3.36-3.19-6.74-6.24-9.52-9.89c-0.62-0.81-0.17-1.44,0.39-2.08C193.02,50.9,194.43,50.07,195.1,48.58z"/>
	<path class="st121" d="M210.68,36.03c0.01,5.88-4.93,10.81-10.77,10.77c-6.12-0.05-10.88-4.83-10.89-10.94
		c-0.02-6.05,4.87-10.94,10.92-10.91C205.96,24.97,210.67,29.83,210.68,36.03z M201.87,36.4c-0.02,0-0.04,0-0.06,0
		c0-1.75,0.01-3.51,0-5.26c0-0.65-0.14-1.19-0.95-1.32c-1.6-0.26-2.91,0.41-4.19,1.2c-0.62,0.38-0.65,1.03-0.46,1.64
		c0.09,0.28,0.49,0.7,0.67,0.67c2.7-0.54,1.89,1.44,1.94,2.71c0.07,1.57,0.05,3.16-0.01,4.73c-0.04,1.17,0.3,1.79,1.62,1.78
		c1.24-0.01,1.45-0.67,1.44-1.67C201.85,39.38,201.87,37.89,201.87,36.4z"/>
	<path class="st121" d="M136.15,235.99c-2.55,0-5.11-0.04-7.66,0.02c-1.34,0.03-1.93-0.48-1.92-1.84c0.04-4.14,0.03-8.28,0.02-12.42
		c0-1.58,0.78-2.18,2.31-2.16c4.84,0.07,9.69,0.11,14.53,0.1c1.77-0.01,2.6,0.74,2.58,2.52c-0.04,3.87-0.06,7.75-0.04,11.62
		c0.01,1.71-0.76,2.33-2.43,2.28c-2.46-0.08-4.93-0.02-7.4-0.02C136.15,236.05,136.15,236.02,136.15,235.99z"/>
	<path class="st108" d="M451.81,251.84c11.86-5.91,24.35-9.74,37.56-11.27C476.68,243.78,464.38,248.27,451.81,251.84z"/>
	<path class="st108" d="M411.34,228.05c-1.21,2.61-2.95,4.96-3.7,7.98c-1.18-3.25,0.11-6.28,3.39-8.38
		C411.11,227.81,411.21,227.94,411.34,228.05z"/>
	<path class="st108" d="M386.61,266.29c0.08,0.13,0.21,0.26,0.22,0.39c0.01,0.13-0.08,0.37-0.17,0.39
		c-0.29,0.06-0.37-0.14-0.29-0.38C386.41,266.55,386.52,266.43,386.61,266.29z"/>
	<path class="st108" d="M411.86,227.53c0.04-0.14,0.08-0.28,0.12-0.41c0.08,0.03,0.16,0.07,0.24,0.1c-0.13,0.09-0.26,0.17-0.39,0.26
		L411.86,227.53z"/>
	<path class="st108" d="M411.82,227.48c0.07,0.39-0.19,0.49-0.48,0.58c-0.13-0.11-0.23-0.25-0.31-0.4c0.25-0.2,0.51-0.4,0.83-0.13
		C411.86,227.53,411.82,227.48,411.82,227.48z"/>
	<path class="st108" d="M310.58,327.42c0.03-3.15,2.32-5.31,5.64-5.3c3.89,0.01,7.95,3.95,7.98,7.73c0.02,3.06-2.68,5.62-5.85,5.52
		C314.44,335.25,310.55,331.26,310.58,327.42z"/>
	<path class="st108" d="M418.31,174.77c0.04,1.72-0.05,3.29-1.05,4.65c-1.67,2.26-4.17,1.97-5.4-0.57c-0.68-1.4,0.23-3.48-1.93-4.3
		c-0.31-0.12,0.16-1.16,0.54-1.62c1.13-1.34,2.58-2.12,4.35-2.13c3.17-0.02,5.76,1.37,7.99,3.49c0.33,0.31,0.97,0.65,0.46,1.26
		c-0.29,0.35-0.72,0.47-1.19,0.33C420.91,175.52,419.73,175.18,418.31,174.77z"/>
	<path class="st108" d="M425.92,167.04c-6.2-1.96-11.71-2.36-17.2-0.02c-1.43,0.61-2.65-0.03-3.09-1.58
		c-0.44-1.53,0.72-2.04,1.86-2.35c4.66-1.27,9.33-2,13.96,0.12C423.05,163.96,424.5,164.88,425.92,167.04z"/>
	<path class="st108" d="M403.46,205.69c-0.4-0.08-1.37-0.17-2.28-0.48c-0.94-0.32-1.8-0.93-1.58-2.11c0.22-1.17,1.22-1.08,2.11-1.02
		c4.29,0.33,8.17-0.93,11.77-3.16c1.03-0.63,2.21-1.19,2.54-2.53c0.39-1.53,1.25-0.54,1.76-0.24c0.67,0.39,1.42,1.21,0.68,1.94
		c-3.9,3.84-7.92,7.55-13.91,7.6C404.38,205.69,404.2,205.69,403.46,205.69z"/>
	<path class="st108" d="M458.82,176.7c-0.63-0.3-1.2-0.64-1.82-0.86c-1.1-0.4-2.06-0.03-2.91,0.71c-0.98,0.85-0.44,1.65-0.02,2.57
		c1.21,2.66,0.62,5.59-1.33,6.86c-0.9,0.58-1.92,1.01-2.97,0.39c-1.28-0.75-0.42-1.76-0.1-2.54c0.68-1.64,0.26-3.3,0.34-4.95
		c0.16-3.55,2.82-6.04,6.17-5.75C458.34,173.32,458.97,174.14,458.82,176.7z"/>
	<path class="st108" d="M375.77,233.04c0.88,1.86,0.66,3.49-0.99,4.83C375.11,236.26,375.44,234.65,375.77,233.04z"/>
	<path class="st108" d="M97,109.89c0.06-6.84,5.03-12.07,11.37-12.17c6.02-0.1,12.36,5.67,12.09,12.37
		c-0.26,6.59-5.55,11.7-12.31,11.58C101.94,121.56,96.95,116.28,97,109.89z M110.61,104.85c-0.02-2.1-2.18-4.12-4.39-4.11
		c-2.4,0.01-4.28,1.81-4.3,4.1c-0.02,2.37,1.81,4.1,4.27,4.04C108.6,108.84,110.63,106.99,110.61,104.85z"/>
	<path class="st1" d="M201.87,36.4c0,1.49-0.02,2.98,0.01,4.47c0.02,1-0.2,1.66-1.44,1.67c-1.32,0.01-1.65-0.61-1.62-1.78
		c0.05-1.58,0.07-3.16,0.01-4.73c-0.05-1.27,0.76-3.26-1.94-2.71c-0.18,0.04-0.59-0.39-0.67-0.67c-0.19-0.6-0.16-1.25,0.46-1.64
		c1.28-0.79,2.6-1.46,4.19-1.2c0.8,0.13,0.94,0.67,0.95,1.32c0.01,1.75,0,3.51,0,5.26C201.83,36.4,201.85,36.4,201.87,36.4z"/>
	<path class="st1" d="M110.61,104.85c0.02,2.13-2,3.98-4.42,4.04c-2.46,0.06-4.28-1.67-4.27-4.04c0.02-2.29,1.9-4.09,4.3-4.1
		C108.43,100.74,110.59,102.75,110.61,104.85z"/>
</g>
</svg>
