<?xml version="1.0" encoding="utf-8"?>
<!-- Generator: Adobe Illustrator 24.3.0, SVG Export Plug-In . SVG Version: 6.00 Build 0)  -->
<svg version="1.1" id="Layer_1" xmlns="http://www.w3.org/2000/svg" xmlns:xlink="http://www.w3.org/1999/xlink" x="0px" y="0px"
	 width="113.6px" height="106px" viewBox="0 0 113.6 106" style="enable-background:new 0 0 113.6 106;" xml:space="preserve">
<style type="text/css">
	.st0{fill:#185AE9;}
	.st1{fill:#00B0FB;}
	.st2{fill-rule:evenodd;clip-rule:evenodd;fill:#00B0FB;}
	.st3{fill:#00B0FB;fill-opacity:0.4;}
	.st4{fill:#FFFFFF;}
	.st5{fill:none;}
	.st6{fill:#001135;}
	.st7{fill:#3C7CFF;}
	.st8{fill:#DBDBDB;}
	.st9{fill:#0A0A0A;}
	.st10{fill:#FEFDFE;}
	.st11{fill:#030302;}
	.st12{fill:#FCFCFC;}
	.st13{fill:#D2D3D3;}
	.st14{fill:#1F1F1F;}
	.st15{fill:#F6F6F6;}
	.st16{fill:#0E0D0E;}
	.st17{fill:#BABBBB;}
	.st18{fill:#8A8A8A;}
	.st19{fill:#8E8F8F;}
	.st20{fill:#464746;}
	.st21{fill:#5F5E5E;}
	.st22{fill:#0B0B0B;}
	.st23{fill:#090909;}
	.st24{fill:#151414;}
	.st25{fill:#101010;}
	.st26{fill:#282828;}
	.st27{fill-rule:evenodd;clip-rule:evenodd;}
</style>
<g>
	<path class="st2" d="M67.3,41.9l26.5,45.9c2.2,3.8,2.2,8.3,0,12.1c-2.2,3.8-6.1,6.1-10.5,6.1H30.3c-4.4,0-8.3-2.3-10.5-6.1
		c-2.2-3.8-2.2-8.3,0-12.1l26.5-45.9c2.2-3.8,6.1-6.1,10.5-6.1S65.1,38.1,67.3,41.9L67.3,41.9z M81.9,40.3l10.3-12.1
		c0.4-0.5,0.1-1.2-0.6-1.2h-5V3.7H76v23.2h-5c-0.6,0-1,0.7-0.6,1.2l10.3,12.1C81.1,40.6,81.5,40.6,81.9,40.3
		C81.9,40.3,81.9,40.3,81.9,40.3L81.9,40.3z M38.2,36.6l10.3-12.1c0.4-0.5,0.1-1.2-0.6-1.2h-5V0H32.3v23.2h-5c-0.6,0-1,0.7-0.6,1.2
		l10.3,12.1C37.3,36.9,37.8,36.9,38.2,36.6C38.1,36.6,38.2,36.6,38.2,36.6L38.2,36.6z M11.6,77.9l10.3-12.1c0.4-0.5,0.1-1.2-0.6-1.2
		h-5V35.5H5.7v29.1h-5c-0.6,0-1,0.7-0.6,1.2l10.3,12.1C10.8,78.3,11.2,78.3,11.6,77.9C11.6,78,11.6,78,11.6,77.9L11.6,77.9z
		 M103.2,73.8l10.3-12.1c0.4-0.5,0.1-1.2-0.6-1.2h-5V31.4H97.2v29.1h-5c-0.6,0-1,0.7-0.6,1.2L102,73.8
		C102.3,74.1,102.8,74.2,103.2,73.8C103.1,73.9,103.1,73.8,103.2,73.8L103.2,73.8z M56.8,89.1c-2.2,0-4.1,1.8-4.1,4.1
		c0,2.2,1.8,4.1,4.1,4.1s4.1-1.8,4.1-4.1C60.9,90.9,59.1,89.1,56.8,89.1L56.8,89.1z M56.8,81.8c1.7,0,3.1-1.4,3.2-3.1l0.8-22.2
		c0.1-1.7-1.3-3.2-3-3.3c0,0-0.1,0-0.1,0H56c-1.7,0-3.2,1.4-3.2,3.1c0,0,0,0.1,0,0.1l0.8,22.2C53.7,80.5,55.1,81.8,56.8,81.8
		L56.8,81.8z"/>
</g>
</svg>
