<?xml version="1.0" encoding="utf-8"?>
<!-- Generator: Adobe Illustrator 25.0.0, SVG Export Plug-In . SVG Version: 6.00 Build 0)  -->
<svg version="1.1" id="Layer_1" xmlns="http://www.w3.org/2000/svg" xmlns:xlink="http://www.w3.org/1999/xlink" x="0px" y="0px"
	 viewBox="0 0 564.27 478" style="enable-background:new 0 0 564.27 478;" xml:space="preserve">
<style type="text/css">
	.st0{fill:#00B0FB;}
	.st1{fill:#00B0FB;fill-opacity:0.4;}
	.st2{fill:#FFFFFF;}
	.st3{fill:#185AE9;}
	.st4{fill-rule:evenodd;clip-rule:evenodd;fill:#00B0FB;}
	.st5{fill:#00769D;}
	.st6{fill:#8DB849;}
	.st7{fill:#5A863E;}
	.st8{fill:#FFFFFE;}
	.st9{clip-path:url(#SVGID_2_);fill:#F9C638;}
	.st10{fill:#2A2D2C;}
	.st11{fill:#F9C638;}
	.st12{fill:#009CDE;}
	.st13{fill:#92003B;}
	.st14{fill:#001135;}
	.st15{fill:#3C7CFF;}
	.st16{fill:#DBDBDB;}
	.st17{fill:#FDFDFD;}
	.st18{fill:#FBFBFB;}
	.st19{fill:#FCFCFC;}
	.st20{fill:#E7E7E7;}
	.st21{fill:#FEFEFE;}
	.st22{fill:#EAEAEA;}
	.st23{fill:#E8E8E8;}
	.st24{fill:#E4E4E4;}
	.st25{fill:#D0CFD0;}
	.st26{fill:#E4E3E4;}
	.st27{fill:#C6C5C6;}
	.st28{fill:#BDBDBD;}
	.st29{fill:#CDCDCD;}
	.st30{fill:#C7C7C7;}
	.st31{fill:#D9D9D9;}
	.st32{opacity:0.28;}
	.st33{fill:#1429FF;}
	.st34{fill:#0A0A0A;}
	.st35{fill:#FEFDFE;}
	.st36{fill:#040404;}
	.st37{fill:#050504;}
</style>
<g>
	<g>
		<path class="st17" d="M452.38,297.56c-1.41-0.07-2.42,0.78-2.48,2.2c-0.07,1.58,0.92,2.51,2.5,2.51c1.46,0,2.15-0.99,2.42-2.28
			C454.6,298.51,453.76,297.63,452.38,297.56z"/>
		<path class="st37" d="M483.09,250.02c-22.99-12.71-46.07-11.15-67.53,3.74c-15.92,11.04-24.23,26.94-25.63,46.45
			c2.41,0,4.33,0,6.23,0c2.35-29.91,27.58-51.7,56.44-51.74c26.78-0.03,52.93,20.18,55.38,51.73c1.93,0,3.87,0,6.24,0
			C512.44,277.91,502.46,260.72,483.09,250.02z"/>
		<path class="st37" d="M470.69,278.74c-7.62,3.53-14.08,9.23-22.64,11.12c-5.12,1.13-7.65,6.62-6.87,12.13
			c0.7,4.96,5.04,8.88,10.24,9.26c5.14,0.38,10.07-2.61,11.24-7.43c0.93-3.83,2.77-7.11,4.68-10.42
			c3.44-5.95,6.97-11.84,10.46-17.76c-0.14-0.16-0.28-0.31-0.42-0.47C475.16,276.36,472.98,277.67,470.69,278.74z M452.4,302.27
			c-1.59,0-2.57-0.93-2.5-2.51c0.06-1.42,1.07-2.27,2.48-2.2c1.38,0.07,2.22,0.96,2.44,2.44
			C454.55,301.28,453.87,302.27,452.4,302.27z"/>
		<path class="st37" d="M462.34,231.85c1.88,0.43,2.89-0.62,3.64-2.56c2.12-5.49,4.4-10.93,6.66-16.37
			c2.7-6.49,5.49-12.94,8.14-19.45c0.41-1,1.52-2.28,0-3.33c-1.57-1.08-5.27,0.08-6,1.86c-4.99,12.15-9.97,24.3-14.93,36.46
			C458.59,231.58,458.8,231.84,462.34,231.85z"/>
		<path class="st37" d="M437.27,215.53c4.42,3.25,8.83,6.52,13.26,9.76c1.39,1.01,2.98,2.69,4.44,0.44
			c1.17-1.79,1.45-3.81-0.77-5.46c-3.15-2.35-6.16-4.91-9.56-7.65c3.64-2.65,7.06-5.14,10.47-7.65c1.5-1.11,2.16-4.75,0.95-6.14
			c-1.63-1.87-2.98-0.21-4.24,0.69c-4.89,3.49-9.75,7.02-14.6,10.56C434.78,211.84,434.82,213.73,437.27,215.53z"/>
		<path class="st37" d="M484.75,225.3c1.33,2.14,2.96,0.54,4.39-0.53c4.38-3.3,8.8-6.54,13.2-9.81c2.86-2.12,2.91-3.67,0.2-5.8
			c-4.31-3.39-8.6-6.82-12.96-10.14c-1.18-0.9-2.45-2.76-4.14-0.76c-1.77,2.1-1.65,4.43,0.25,5.92c3.24,2.53,6.54,4.98,10.04,7.63
			c-3.57,2.65-6.94,5.19-10.33,7.69C483.07,221.2,483.68,223.56,484.75,225.3z"/>
		<path class="st37" d="M484.83,285.27c2.55,4.7,3.41,9.67,3.95,14.84c4.21,0,8.2,0,12.55,0c-0.66-7.55-2.29-14.55-6.13-21.12
			C491.64,281.27,487.92,282.64,484.83,285.27z"/>
		<path class="st37" d="M454.91,254.52c0,3.62,0,6.99,0,10.57c4.72,0.41,9.16,1.65,13.51,3.52c1.79-3.14,3.48-6.09,5.39-9.44
			C467.65,256.3,461.55,254.76,454.91,254.52z"/>
		<path class="st37" d="M478.43,261.68c-1.95,3.28-3.72,6.28-5.41,9.12c2.43,5.04,5.63,0.04,8.66,0.94
			c-0.66,3.1-4.03,6.62,1.04,8.83c3.15-1.85,6.34-3.73,9.72-5.72C488.62,269.36,484,265.16,478.43,261.68z"/>
		<path class="st37" d="M413.26,273.18c3.11,2.07,5.92,3.93,8.76,5.81c3.26-3.36,6.46-6.29,10.08-8.91c-1.59-3-2.84-6.06-4.89-8.81
			C421.65,264.27,417.1,268.14,413.26,273.18z"/>
		<path class="st37" d="M449.52,254.71c-6.06,0.12-11.65,1.27-17.32,4.01c1.56,3.26,3,6.29,4.49,9.42c4.22-2.18,8.6-2.44,12.83-3.28
			C449.52,261.45,449.52,258.18,449.52,254.71z"/>
		<path class="st37" d="M403.87,291.85c3.87,0.46,7.59,0.9,11.32,1.34c1.02-3.7,2.45-6.87,4.04-10.12
			c-3.01-1.99-5.84-3.85-8.83-5.83C407.34,281.9,404.98,286.42,403.87,291.85z"/>
	</g>
	<g>
		<g>
			<path d="M347.06,460.92c-0.17-5.26-1.86-10.17-3.9-14.98c-5.48-12.72-13.33-23.95-21.76-34.8c-4.88-6.28-9.96-12.38-15.2-18.33
				c-1.52-1.73-3.06-3.45-4.61-5.15c-2.36-2.61-4.77-5.19-7.2-7.74c-1.74-1.83-3.49-3.65-5.26-5.45
				c-6.01-6.14-12.18-12.14-18.46-18.02c-0.89-0.84-1.79-1.67-2.7-2.51c-0.68-0.64-1.37-1.28-2.06-1.91
				c-4.12-3.8-8.29-7.56-12.48-11.27c-0.26-0.24-0.52-0.47-0.79-0.7c-4.23-3.75-8.5-7.46-12.81-11.12c-0.59-0.5-1.19-1.01-1.79-1.51
				c-0.57-0.49-1.15-0.98-1.74-1.46c-0.17-0.15-0.35-0.29-0.52-0.43c-10.51-8.84-21.23-17.43-32.15-25.73
				c-1.07-0.81-2.14-1.62-3.22-2.44c-0.15-0.11-0.3-0.23-0.45-0.34c-3.47-2.62-6.97-5.2-10.48-7.77c-3.23-2.35-6.47-4.68-9.73-6.97
				c-1.17-0.84-2.35-1.67-3.53-2.49c-11.53-8.07-23.28-15.85-35.24-23.33c-1.83-1.15-3.67-2.29-5.51-3.42
				c-1.12-0.69-2.24-1.38-3.36-2.06c-5.73-3.49-11.51-6.91-17.35-10.22c-1.54-0.88-3.09-1.75-4.65-2.61
				c-14.94-8.3-30.27-15.85-46.2-22.2c-13.97-5.54-28.14-10.4-43.57-11.02c-2.2,0.23-4.58,0.17-6.9,0.51
				C4.63,206.86-0.12,212.4,0,221.27c0.04,4.81,1.36,9.27,3.11,13.67c4.57,11.59,11.35,21.88,18.7,31.77
				c9.17,12.33,19.13,23.93,29.64,35.03c1.43,1.52,2.88,3.02,4.33,4.52c1,1.04,2.02,2.07,3.03,3.1c0.97,1,1.95,1.98,2.93,2.96
				c1.76,1.76,3.53,3.5,5.31,5.25c0.03,0.03,0.07,0.07,0.11,0.1c0.94,0.93,1.9,1.85,2.85,2.76c0.2,0.2,0.4,0.39,0.6,0.57
				c0,0.03,0.01,0.03,0.01,0.03c0.12,0.11,0.23,0.22,0.35,0.33c2.87,2.77,5.78,5.52,8.71,8.24c1.03,0.96,2.07,1.91,3.1,2.86
				c0.71,0.67,1.43,1.33,2.15,1.99c0.7,0.64,1.41,1.28,2.12,1.92c0.53,0.48,1.06,0.98,1.61,1.46c0.56,0.51,1.12,1.01,1.68,1.5
				c2.26,2.05,4.54,4.07,6.83,6.08c0.28,0.23,0.55,0.48,0.82,0.71c0.1,0.09,0.19,0.18,0.29,0.26c0.58,0.5,1.15,1,1.73,1.5
				c0.27,0.24,0.54,0.48,0.8,0.69c2.78,2.42,5.57,4.81,8.38,7.17c1.14,0.97,2.27,1.92,3.41,2.87c1.06,0.89,2.12,1.76,3.19,2.64
				c2.21,1.83,4.45,3.66,6.69,5.47c0.01,0,0.01,0,0.01,0.01c2.18,1.76,4.36,3.51,6.55,5.24c0.2,0.16,0.41,0.32,0.61,0.48
				c0.93,0.74,1.86,1.48,2.8,2.21c0.92,0.72,1.84,1.43,2.76,2.14c1.2,0.95,2.41,1.88,3.63,2.81c3.76,2.89,7.54,5.76,11.35,8.58
				c0.81,0.61,1.62,1.22,2.43,1.82c1.77,1.31,3.54,2.61,5.32,3.9c1.03,0.75,2.06,1.49,3.09,2.23c2.56,1.87,5.15,3.71,7.74,5.54
				c0.05,0.03,0.09,0.07,0.14,0.1c0.15,0.11,0.29,0.2,0.44,0.31c0.84,0.59,1.66,1.17,2.51,1.75c0.16,0.11,0.32,0.22,0.48,0.33
				c0.09,0.07,0.19,0.14,0.29,0.2c3.62,2.55,7.25,5.05,10.92,7.52c2.47,1.69,4.95,3.35,7.44,4.99c1,0.67,2,1.34,3.02,1.98
				c0.26,0.17,0.5,0.33,0.76,0.5c0.89,0.59,1.78,1.17,2.68,1.76c1.06,0.67,2.11,1.36,3.17,2.04c4.61,2.94,9.26,5.84,13.95,8.67
				c1.07,0.66,2.14,1.3,3.21,1.94c0.8,0.48,1.59,0.95,2.38,1.42c1.06,0.63,2.13,1.26,3.2,1.89c6.44,3.76,12.94,7.41,19.54,10.93
				c3.81,2.03,7.64,4.02,11.5,5.95c0.98,0.51,1.96,0.99,2.94,1.49c3.01,1.49,6.03,2.95,9.06,4.37v0.01
				c1.34,0.62,2.67,1.24,4.01,1.84c2.28,1.04,4.58,2.05,6.89,3.03c9.41,3.99,19.04,7.48,29.02,10.12
				c8.64,2.26,17.35,3.95,26.38,2.82C342.37,476.4,347.4,470.64,347.06,460.92z"/>
		</g>
		<g>
			<path class="st37" d="M309.14,185.98c-15.33,0-30.65,0.03-45.97-0.04c-2.25-0.01-3.45,0.67-4.2,2.9
				c-5.1,15.16-10.79,30.11-15.46,45.42c-1.28,4.21-2.18,4.57-6.51,2.92c0.36-1.65,2.02-2.17,2.92-3.34
				c3.92-5.11,2.76-10.1-2.75-12.37c-2.5-1.04-5.22-1.61-7.6-2.88c-4.83-2.56-9.5-1.8-14.25-0.02c-1.92,0.71-3.93,1.01-5.95,0.64
				c-8.07-1.46-16.36-1.65-24.26-4.1c-1.01-3.85-1.03-3.92-5.08-3.14c-2.92,0.56-5.8,1.35-9.47,2.23c0,0-0.01,0-0.02,0
				c-0.04,0.02-0.08,0.05-0.12,0.06c-0.05,0.02-0.08,0.04-0.13,0.05c-0.06,0-0.13-0.13-0.19-0.19c0.13-0.07,0.26-0.15,0.39-0.21
				c0.04,0.04,0.07,0.07,0.1,0.1c3.2-3.5,6.89-4.13,10.35-4.87c-1.96-7.63-3.84-14.91-5.72-22.2c-1.53,3.94-2.05,7.9-3.92,11.49
				c0.31-4.75,0.87-9.44,1.55-14.11c1.66-11.29,0.29-21.45-10.52-27.99c-2.6-1.58-4.41-3.75-5.79-6.37
				c-0.31-0.19-0.61-0.37-0.98-0.6c0.62-0.46,1.07-0.26,1.53-0.06c1.67,0.68,3.27,1.56,4.99,2c3.66,0.91,7.05-0.73,7.86-3.72
				c0.61-2.3,0.99-4.66,1.48-6.99c1.61-0.39,2.55-1.67,3.16-2.97c0.86-1.85,1.68-3.25,3.94-3.79c1.68-0.4,2.21-2.12,1.76-3.97
				c-0.55-2.24-0.91-4.54-1.43-6.79c-0.36-1.51-0.08-2.79,1.01-3.88c1.43-1.43,1.95-3.23,2.08-5.19c0.23-3.31,0.62-6.63,0.72-9.95
				c0.05-1.43,0.45-2.39,1.57-3.3c2.64-2.15,3.67-5.11,4.03-8.73c-1.78,0.36-3.36,0.36-4.78-0.64c0.85-1.37,1.48-2.83,1.57-4.57
				c-2.68-0.01-5.45,0.47-7.95-1.41c0.57-1.04,1.18-2.07,1.1-3.39c-2.71,0.26-5.41,0.07-8.02-0.2c-0.57-1.08,1.04-1.79,0.18-3.07
				c-2.97,0.76-6.11,1.06-9.22,0.62c-0.41-1.13,1.21-1.44,0.73-2.42c-2.64,0.24-5.23,0.71-7.81,0.65
				c-4.91-0.11-9.18,0.99-13.76,3.27c-8.67,4.29-12.28,11.07-13.24,20.04c-0.52,4.84,0.42,9.66,0.07,14.5
				c-0.28,3.91-0.85,7.72-2.91,11.18c-2.16-0.35-4.13-0.81-6.13-0.97c-3.98-0.32-8.18-1.16-11.3,2.41
				c-3.58,4.09-8.24,5.88-13.43,6.7c-2.56,0.4-4.34,1.76-5.29,4.33c-1.18,3.21-3.16,6.05-4.83,9.03c-1.34,2.38-2.9,4.75-2.67,7.85
				c12.23-9.92,19.76-8.93,27.6-5.54c4.32,1.86,8.04,4.58,10.6,8.61c-3.47-1.53-6.63-3.47-9.9-5.18
				c-7.37-3.86-14.73-3.84-21.78,0.72c-8.79,5.68-13.81,14.22-15.91,24.09c-2.21,10.32-3.1,20.91-3.91,31.46
				c-0.28,3.69-0.51,7.39-0.72,11.08c-0.75,12.8-1.42,25.59-4,38.23c-1.26,6.2-0.68,12.09,5.11,16.22c0.52,0.37,0.9,1.13,1.05,1.77
				c1.59,6.58,3.91,12.87,6.95,18.92c0.04,0.07-0.19,0.29-0.39,0.56c-2.16-1.26-3.56-3.18-4.76-5.28c-2.06-3.61-3.46-7.5-4.26-11.55
				c-0.37-1.89-1.13-3.31-2.54-4.62c-4.03-3.75-5.75-8.41-5.01-13.9c0.61-4.49,1.49-8.95,1.87-13.46
				c0.81-9.43,1.51-18.87,2.21-28.32c0.22-3.01,0.44-6.03,0.68-9.04c0.36-4.67,0.68-9.34,1.04-14.23
				c-7.52-0.32-14.66-0.46-21.8,0.01c-3.21,0.21-6.46,0.43-9.59,1.12c-4.85,1.09-6.66,3.92-5.58,8.29c0.51,2.04,0.99,4.08,1.46,6.13
				c5.21,22.81,8.14,45.96,10.65,69.17c1.52,1.86,3.06,3.7,4.63,5.53c-1.07-8.3-1.92-16.64-2.94-24.94
				c-2.05-16.61-4.48-33.15-8.24-49.47c-0.4-1.75-0.81-3.49-1.25-5.23c-0.35-1.43-1.48-2.98-0.09-4.54c2.48-2.81,5.2-2.3,6.25,1.43
				c0.87,3.11,1.69,6.23,2.46,9.37c0.66,2.62,1.28,5.25,1.86,7.89c5.06,22.93,8.84,46.06,11.15,69.43
				c0.75,7.59,5.92,12.28,13.49,12.21c13.92-0.13,27.81,0.45,41.67,1.75c5.52,0.51,10.94,1.63,16.18,3.51
				c1.65,0.59,3.2,1.24,4.08,3.45h-9.88c-17.22,0.01-34.41,0.01-51.63,0.01c1.57,1.57,3.17,3.14,4.76,4.7
				c0.03,0.03,0.06,0.06,0.1,0.09c0.87,0.86,1.76,1.71,2.64,2.55c0.19,0.19,0.37,0.36,0.56,0.53c0,0.03,0.01,0.03,0.01,0.03
				c0.11,0.1,0.21,0.2,0.32,0.31c0.77,0.74,1.54,1.48,2.31,2.21h24.74c-0.7,6.9-1.4,13.78-2.1,20.66c0.02,0.02,0.04,0.03,0.06,0.05
				c0.09,0.08,0.18,0.17,0.27,0.24c0.54,0.46,1.06,0.93,1.6,1.39c0.25,0.22,0.5,0.44,0.74,0.64c2.38,2.07,4.76,4.12,7.16,6.14
				c1.11-9.65,2.23-19.29,3.34-28.92c1.31-0.61,2.48-0.43,3.84-0.09c2.23,13.48,4.45,26.95,6.69,40.47
				c1.69,1.37,3.39,2.73,5.09,4.07c0.19,0.15,0.38,0.3,0.56,0.44c0.86,0.68,1.72,1.37,2.59,2.05c0.85,0.67,1.7,1.32,2.55,1.98
				c0.37,0.3,0.74,0.58,1.12,0.87c-0.94-6.52-1.9-13.03-2.83-19.56c-1.48-10.35-2.88-20.7-4.37-31.45c3.53-0.44,6.62-0.82,9.89-1.22
				c0.68,6.45,1.32,12.83,2.03,19.21c1.54,13.88,3.42,27.72,6.28,41.39c0.58,0.44,1.16,0.88,1.74,1.3c0.75,0.56,1.5,1.13,2.25,1.68
				c1.64,1.21,3.28,2.42,4.92,3.61c0.95,0.69,1.91,1.38,2.86,2.06c2.37,1.73,4.77,3.43,7.16,5.13c0.05,0.03,0.08,0.06,0.13,0.09
				c0.14,0.1,0.27,0.19,0.41,0.29c0.78,0.55,1.54,1.08,2.32,1.62c0.15,0.1,0.3,0.2,0.44,0.31c0.08,0.06,0.18,0.13,0.27,0.19
				c3.35,2.36,6.71,4.67,10.11,6.96c2.29,1.56,4.58,3.1,6.89,4.62c0.93,0.62,1.85,1.24,2.8,1.83c0.24,0.16,0.46,0.31,0.7,0.46
				c0.82,0.55,1.65,1.08,2.48,1.63c0.98,0.62,1.95,1.26,2.93,1.89c0.97,0.62,1.95,1.24,2.93,1.86c5.66-0.27,11.32-0.89,16.99-1.89
				c0.84,4.61,0.71,4.88-3.43,5.45c-2.22,0.31-4.44,0.55-6.67,0.72c1.03,0.63,2.05,1.26,3.09,1.88c0.47,0.29,0.94,0.57,1.41,0.86
				c0.74-0.1,1.49-0.22,2.23-0.34c8.82-1.46,6.88-0.92,6.86-8.15c-0.01-4.54-1.13-5.65-5.57-6.92c-5.78-1.66-11.75-2.78-17.02-5.52
				c-2.63,1.91-5.91,2.27-8.4,4.17c-1.01,0.78-2.09,1.06-2.76-0.26c-0.64-1.28,0.63-1.71,1.43-2.23c2.18-1.43,4.67-2.09,7.52-2.69
				c-1.26-1.45-2.62-1.87-3.85-2.57c-0.34,0.43-0.6,1.09-1.04,1.23c-2.68,0.88-5.21,2.02-7.6,3.59c-1.28,0.83-1.8-0.39-2.28-1.51
				c2.93-2.18,5.78-4.16,9.59-4.54c-0.98-1.12-1.83-1.94-2.87-2.35c-3.18,1.7-6.65,2.54-9.54,4.62c-1.26,0.9-1.84-0.39-2.42-1.39
				c3-2.9,6.37-4.72,10.62-5.19c-0.78-0.93-1.41-1.68-2.03-2.42c-4.09,1.68-8.48,2.34-11.51,5.7c-1.57-1.73-1.7-1.82-1.31-2.35
				c2.82-3.87,6.98-5.18,11.68-5.74c-0.56-1.13-0.93-2.19-1.57-3.05c-0.61-0.81-1.52-1.41-2.35-2.14c1.18-0.4,2.2-0.75,3.3-1.12
				c-0.06-0.65-0.06-1.15-0.16-1.63c-3.81-21.02-4.32-42.26-4.29-63.54c0.01-8.76,1.22-17.5,0.16-26.28
				c-0.61-5.06-2.9-8.74-7.72-10.59c-3.76-1.43-7.51-2.92-11.35-4.08c-12.74-3.89-25.92-5.72-38.95-8.27
				c-7.2-1.41-13.63-0.68-19.9,3.1c-4.55,2.75-9.32,5.16-13.99,7.71c-0.49,0.81-1.21,0.22-1.85,0.54c0.04-0.87,0.61-0.88,1-1.1
				c6.42-6.37,14.17-10.5,22.6-13.48c1.84-0.66,3.71-0.76,5.66-0.52c13.18,1.59,26.38,3.04,39.26,6.48
				c2.87,0.77,5.75,1.52,8.59,2.37c4.28,1.28,8.47,2.78,12.45,4.91c3.66,1.96,6.04,4.9,7.19,8.68c0.19,0.62,0.35,1.27,0.47,1.93
				c0.62,3.38,0.8,6.79,0.7,10.23c-0.07,2.9-0.01,5.79-0.01,8.88c5.85,0.59,11.65,1.11,17.44,1.8c1.38,0.16,1.93-0.51,2.66-1.42
				c0.93-1.17,1.83-2.35,2.75-3.53c2.29-2.95,4.65-5.86,7.64-8.2c0.28-0.19,0.56-0.37,0.84-0.56c0.31,0.49,0.1,0.83-0.32,1.11
				c-1.21,3.65-3.57,6.5-5.98,9.33c-1.49,1.76-3.01,3.5-4.29,5.42c0.95,0.66,2.26,0.07,3.19,1.16c-0.36,22.01,3.29,43.73,7.55,65.37
				c0.43,2.17-0.43,5.53,3.42,5.95c0.13,0.01,0.26,0.51,0.3,0.8c0.3,1.96,0.59,3.77-0.43,5.81c-2.09,4.16-2.9,8.73-3.29,13.31
				c21.41,11.03,44.17,9.29,66.83,7.85c0.36,1.16,0.43,2.13,0.05,3.51c-18.68,4.85-37.53-1.31-56.32,0.15
				c0.06,2.33,0.06,2.5,2.05,2.52c11.6,0.11,23.11,1.71,34.68,2.11c6.96,0.24,13.91-0.1,20.61-2.31c0.92-0.31,1.92-0.39,2.18-1.71
				c1.07-5.4-1.42-9.64-6.74-11.08c-5.63-1.52-11.28-2.93-16.37-5.78c-3.42,3.26-6.55,4.32-8.35,2.88c0.47-1.36,1.68-1.95,2.8-2.56
				c1.06-0.57,2.21-0.97,3.52-1.54c-1.25-0.87-2.02-1.83-3.2-2.12c-3.54,3.64-7.2,4.8-9,2.86c1.83-2.34,4.37-3.6,7.52-4.4
				c-1.03-0.93-1.75-1.57-2.44-2.2c-2.46,1.81-5.43,2.33-7.78,4.15c-1.32,1.02-1.8-0.42-2.33-1.56c2.64-1.79,4.86-4.19,8.13-4.39
				c-0.46-1.83-1.64-1.76-3.09-1.5c-2.56,0.46-4.78,1.49-6.73,3.18c-0.76,0.66-1.55,1.43-2.54,0.21c-0.96-1.18-0.04-1.82,0.68-2.49
				c2.53-2.36,5.58-3.49,9.02-3.65c-1.86-5.9-2.27-6.28-6.86-6.37c-0.31-0.95-0.55-1.91,0.08-2.89c1.47-0.55,3.1-0.71,4.55-1.75
				c-1.87-10.78-2.43-21.63-2.55-32.52c-0.03-2.56-0.07-5.14-0.14-7.7c-0.16-7.11-0.39-14.22-0.28-21.32
				c0.11-7.24,0.99-14.44,0.53-21.73c-0.48-7.67-3.73-12.52-11.24-15.28c-17.58-6.44-35.73-10.38-54.04-13.74
				c-4.61-0.85-9.22-1.7-13.81-2.55c-0.57-5.25,0.1-10.16,0.33-15.08c0.03-0.61,0.06-1.46,0.76-1.45c4.91,0.06,9.11-4.96,14.56-1.77
				c1.72,1.01,4.14,0.35,6.25-0.04c1.15-0.21,2.19-1,3.77-0.68c-0.55,2.34,0.83,2.63,2.76,2.64c33.57,0.11,67.13-0.62,100.7-1.2
				c1.98-0.04,3.18-0.7,3.81-2.66c1.18-3.64,2.52-7.22,3.78-10.83c4.48-12.82,8.98-25.63,13.4-38.47
				C313.26,186.58,312.76,185.98,309.14,185.98z M238.06,232.41c-0.09-2.89,0.42-5.42-0.63-8.35
				C241.09,226.9,241.23,228.8,238.06,232.41z M175.65,375.1c-3.84,3.87-18.64,8.15-22.45,6.27
				C161.11,380.02,167.24,375.04,175.65,375.1z M151.59,298.17c-1.72,6.03-6.02,10.26-10.26,14.53
				C142.37,306.18,146.79,302.04,151.59,298.17z M145.78,292.71c-1.8,7.37-5.61,14.24-9.44,16.93
				C138.85,303.48,140.86,297.76,145.78,292.71z M233.75,381.43c-3.92,1.55-7.64,3.61-12.04,3.2c-0.79-0.07-1.93,0.43-2.09-1.02
				c-0.17-1.47,1.14-1.19,1.83-1.45c4.76-1.78,9.55-3.46,14.33-5.18C236.7,379.38,236.04,380.52,233.75,381.43z M218.08,373.09
				c5.61-2.43,11.35-4.5,17.45-5.35C230.29,371.4,224.72,373.98,218.08,373.09z M215.15,301.5c0.19-0.16,0.37-0.31,0.56-0.45
				c0.21-0.17,0.43-0.34,0.65-0.51c-0.01,0.18-0.03,0.35-0.06,0.53c-0.01,0.1-0.03,0.21-0.06,0.32c-0.01,0.09-0.03,0.19-0.06,0.28
				c-0.02,0.08-0.04,0.18-0.06,0.27c-0.03,0.12-0.06,0.24-0.1,0.36c-0.1,0.31-0.21,0.61-0.35,0.93c-0.08,0.2-0.19,0.42-0.29,0.62
				c-0.09,0.19-0.19,0.37-0.31,0.56c-0.01,0.03-0.03,0.06-0.05,0.08c-0.09,0.16-0.19,0.32-0.3,0.48c-0.12,0.19-0.25,0.38-0.38,0.56
				c-0.01,0.02-0.02,0.04-0.04,0.06c-0.13,0.18-0.25,0.34-0.38,0.51c-0.36,0.47-0.76,0.93-1.19,1.38c-0.08,0.09-0.18,0.19-0.26,0.27
				c-0.4,0.42-0.82,0.81-1.28,1.18c-0.14,0.13-0.29,0.26-0.44,0.37c-0.24,0.2-0.49,0.4-0.75,0.58c-0.21,0.17-0.44,0.31-0.66,0.47
				c-0.27,0.19-0.55,0.36-0.82,0.54c-0.31,0.19-0.64,0.39-0.97,0.57c0.06-0.22,0.11-0.43,0.19-0.66c0.3-0.93,0.74-1.88,1.34-2.83
				c0.18-0.3,0.38-0.6,0.6-0.9c0.11-0.16,0.22-0.31,0.33-0.45c0.11-0.15,0.22-0.3,0.35-0.45c0.12-0.16,0.25-0.31,0.38-0.46
				c0.13-0.16,0.27-0.31,0.41-0.46c0.28-0.31,0.57-0.63,0.89-0.95c0.14-0.15,0.29-0.3,0.43-0.43
				C213.29,303.08,214.17,302.29,215.15,301.5z M179.51,215.29c-3.27,2.64-4.97,5.91-8.84,7.01
				C171.63,218.52,175.59,215.1,179.51,215.29z M159.54,163.88c2.4,13.18,2.3,26.48,0.24,40.18
				C158.65,198.65,158.56,167.09,159.54,163.88z M167.73,140.77c-0.02,1.59-0.03,3.54-2.42,2.89c-1.99-0.54-2.8-2.02-2.19-4.17
				c0.56-1.97,1.46-3.04,3.63-1.97c0.53,0.26,1.11,0.42,1.68,0.58c0.23,0.06,0.45,0.14,0.67,0.21c0.11,0.04,0.21,0.07,0.32,0.12
				c0.44,0.19,0.85,0.42,1.18,0.77c0.15,0.16,0.29,0.34,0.4,0.55c0.13,0.22,0.23,0.48,0.31,0.78
				C170.18,140.61,169.03,140.68,167.73,140.77z M151.02,117.4c1.55-4.38,3.55-8.31,8.52-9.84c2.28-0.69,2.74-2.91,2.59-4.97
				c-0.31-4.37,1.08-6.04,6.4-4.4c3.92,1.22,7.57,3.26,12.14,3.91c-0.81,5.65,1.22,11.64-2.95,16.76c-0.86,1.06-0.88,2.42-0.63,3.76
				c0.45,2.38,0.92,4.75,1.29,7.13c0.36,2.33-0.71,3.38-2.86,2.64c-1.55-0.54-3.15-0.62-4.71-0.98c-0.14,0.14-0.29,0.28-0.43,0.41
				c0.45,0.6,0.91,1.2,1.77,2.34c-5.71-1.5-10.4-1.24-12.1,5C151.51,135.97,147.76,126.58,151.02,117.4z M98.38,137.02
				c4.25-0.94,17.22,7.18,20.02,12.04C112,145.05,104.71,142.48,98.38,137.02z M117.65,135.45c-0.21-0.2-0.43-0.41-0.65-0.61
				c-0.21-0.21-0.43-0.43-0.64-0.64c-0.16-0.06-0.26-0.17-0.32-0.31v-0.01c-0.46-0.47-0.92-0.93-1.37-1.41
				c-0.27-0.22-0.53-0.44-0.86-0.72c0.68-0.34,1.09-0.33,1.34,0.25c0.39,0.42,0.78,0.83,1.18,1.26c0.2,0.19,0.41,0.39,0.62,0.58
				c0.21,0.19,0.43,0.37,0.65,0.56c0.2,0.2,0.41,0.41,0.6,0.61c1.48,1.24,2.23,0.1,3.15-0.88c4.04-4.37,6.78-9.78,11.14-13.88
				c0.51-0.47,0.82-1.16,1.29-1.83c4.51,7.05,5.58,7.64,8.81,4.59c-2.53,0.24-4.5-0.13-5.56-2.42c-1.49-3.21-3.07-6.41-2.1-10.1
				c0.64-2.39,2.11-4.16,4.68-4.57c2.61-0.43,4.17,1.21,5.28,3.24c1.53,2.81,2.26,5.78,1.08,8.99c-1.11,3.03-1.99,6.14-3.18,9.12
				c-1.72,4.27-1.27,7.94,2.03,11.37c2.64,2.76,5.23,5.54,8.17,8.14c-2.52,3.33-4.75,6.65-5.85,10.6c-0.41,1.47-1.54,1.96-2.97,2.09
				c-2.93,0.24-5.25-1.17-7.52-2.7c-3.41-2.3-5.74-5.6-8.18-8.82C125.13,143.55,122.1,138.89,117.65,135.45z M135.53,160.5
				c5.28,2.37,10.36,4.38,15.01-1.33c3.59,21.18,2.11,42.21,1.42,63.6c-4.11,0.13-8.02-0.52-12.17-0.9
				C140.45,201.19,140.46,180.79,135.53,160.5z M105.05,230.92c4.58-6.4,10-11.53,18.49-11.98
				C117.42,222.99,110.94,226.51,105.05,230.92z M127.16,221.23c-2.38,2.77-4.47,5.39-5.91,8.44c-1.39,2.96-2.55,6-3.51,9.35
				C115.93,232.07,121.36,221.54,127.16,221.23z M127.42,165.74c-0.49-1.65-2.12-3.66,0.84-5.73c5.35,14.34,7.74,28.56,5.83,43.41
				c-0.22-2.53-0.54-5.04-0.66-7.57C132.95,185.51,130.38,175.59,127.42,165.74z M117.8,190.15c-2.94-9.8-6.04-19.54-11.82-28.41
				C112.7,164.56,118.73,179.08,117.8,190.15z M119.19,214.16c0.56-4.36-1.02-8.3-2.55-12.2c-2.2-5.61-4.97-11-6.71-16.8
				c-0.56-1.87-1.18-3.73-0.71-5.78c5.87,12.04,11.5,24.14,14.02,37.8h-19.8C105.92,215.13,109.65,214.35,119.19,214.16z
				 M74.82,263.34c9.4-0.64,18.46-3.27,27.77-4.63C93.87,263.45,84.7,265.55,74.82,263.34z M87.11,254.75
				c-0.06-0.31-0.13-0.62-0.19-0.93c3.73-0.66,7.47-1.31,11.67-2.05c-1.86-2.54-3.38-5.12-5.39-7.25c-0.33-0.35-0.66-0.7-0.97-1.07
				c-0.31-0.35-0.63-0.72-0.93-1.09c-0.2-0.24-0.41-0.49-0.59-0.74c-0.39-0.49-0.77-1-1.13-1.51c-0.21-0.3-0.42-0.6-0.62-0.91
				c-0.23-0.32-0.44-0.66-0.65-0.99c-0.43-0.67-0.82-1.34-1.21-2.03c-0.84-1.48-1.59-3-2.27-4.55c-0.19-0.42-0.36-0.83-0.53-1.25
				c-0.26-0.63-0.51-1.26-0.74-1.9c-0.02-0.06-0.04-0.12-0.06-0.18c-0.54-1.44-1.02-2.92-1.45-4.41c-0.07-0.23-0.14-0.46-0.2-0.7
				c-0.23-0.79-0.44-1.58-0.65-2.38c-0.25-0.95-0.49-1.92-0.71-2.89c-2.55-11.06-5.88-21.98-6.28-33.44
				c-0.04-0.95-0.01-1.9,0.24-2.92c1.63,5.97,3.25,11.95,4.88,17.92c2.55,9.4,5.16,18.79,7.64,28.22c0.12,0.44,0.25,0.88,0.39,1.31
				c0.06,0.21,0.14,0.43,0.22,0.64c0.07,0.21,0.15,0.43,0.23,0.64c0.09,0.24,0.19,0.48,0.3,0.72c0.01,0.03,0.02,0.05,0.04,0.07
				c0.07,0.19,0.16,0.37,0.24,0.56c0.3,0.66,0.63,1.31,0.98,1.93c0.25,0.45,0.52,0.91,0.8,1.35c0.09,0.16,0.19,0.31,0.3,0.47
				c0.47,0.74,0.98,1.46,1.53,2.18c2.24,2.97,4.42,5.98,6.54,9.03c1.68,2.4,3.67,3.74,6.82,3.45c5.54-0.52,10.98,0.66,16.45,1.71
				C110.1,251.35,98.8,255.51,87.11,254.75z M145.01,262.61c-0.3,0.03-0.59,0.06-0.89,0.08c-0.75,0.06-1.51,0.1-2.27,0.12
				c-0.34,0.02-0.68,0.03-1.02,0.04c-4.64,0.1-9.36-0.3-14.37-0.83c0.31-0.3,0.62-0.59,0.92-0.89c0.3-0.29,0.58-0.58,0.86-0.89
				c0.29-0.3,0.56-0.59,0.81-0.9c0.27-0.3,0.53-0.6,0.78-0.91c0.23-0.28,0.45-0.56,0.68-0.85c0.72-0.94,1.38-1.91,1.97-2.89
				c0.16-0.26,0.31-0.53,0.46-0.8c0.19-0.34,0.39-0.69,0.56-1.05c0.24-0.47,0.47-0.94,0.69-1.43c0.46-1.03,1.03-1.59,2.14-1.81
				c4.32-0.85,8.64-1.77,13.27-2.73c0.3,4.88-0.28,9.52-0.78,14.16c-0.17,1.59-1.68,1.33-2.62,1.44c-0.35,0.04-0.69,0.07-1.05,0.11
				C145.12,262.61,145.07,262.61,145.01,262.61z M191.81,237.89c4.42-4.79,7.16-4.94,8.98-0.48
				C197.86,238.4,194.92,237.83,191.81,237.89z M214.74,235.94c-3.37-7.72-7.39-13.87-16.46-14.24c7.31,2.98,12.89,7.43,14.18,15.78
				c-2.09,0.47-2.53-1.18-3.16-2.24c-3.04-5.16-7.38-8.41-13.27-9.57c-0.39-0.07-0.76-0.26-1.37,0.42c2.34,2.03,5.74,1.93,8.01,3.98
				c2.34,2.12,4.04,4.59,5.32,7.64c-2.39,0.68-3.74-0.53-4.72-1.85c-2.41-3.22-5.91-3.46-9.41-3.9c-1.08-0.13-1.65,0.5-2.31,1.11
				c-4.81,4.45-10.13,6.9-16.78,4.39c-1.06-0.4-2.16,0.03-3.24,0.33c-11.53,3.23-23.12,6.27-34.92,8.37
				c-0.68,0.12-1.38,0.16-2.3,0.25c-1.96-7.14-1.73-13.94,1.48-20.6c0.81-1.69,2.13-1.22,3.35-1.07c9.02,1.05,18.09,1.04,27.15,1.52
				c7.01,0.37,13.56-1.19,20.08-3.34c2.29-0.75,4.61-1.42,6.85-2.3c7.38-2.89,19.27,1.8,20.75,10.77
				C214.17,232.64,215.07,233.73,214.74,235.94z M223.61,233.29c-0.31,0.9-1.13,1.01-1.97,1.01c-2.75,0.01-4.86-0.88-5.49-3.82
				c2.14-0.06,4.41-0.73,6.35,0.92C223.09,231.9,223.93,232.32,223.61,233.29z M235.83,227.93c-0.07,2-0.41,3.99-0.78,6.03
				c-0.65-4.73-0.18-9.91-5.34-12.69c-0.23,0.23-0.45,0.47-0.69,0.7c3.81,3.34,4.24,10.63,3.05,14.99c-2.32-0.4-2.59-2.3-2.78-4.04
				c-0.48-4.5-2.67-7.7-6.79-9.56c-1.96-0.88-3.85-0.89-5.83,0.35c2.2,1.2,4.93,0.9,6.72,3.15c-1.92,1.93-4.19,2.1-6.19,0.77
				c-2.14-1.43-2.6-4.4-5.32-5.9c3.82-1.52,7.16-2.99,10.47-2.74c3.99,0.3,8.03,1.43,11.59,3.47
				C235.85,223.58,235.89,225.91,235.83,227.93z M170.59,214c-0.08,0.08-0.15,0.16-0.22,0.24c0.06-0.02,0.12-0.03,0.18-0.05
				c0.01,0,0.02,0,0.02,0c0.05-0.04,0.09-0.06,0.14-0.08C170.67,214.07,170.63,214.03,170.59,214z"/>
			<path class="st37" d="M310.91,412.94c-0.6-0.02-1.19-0.05-1.8-0.07c-4.24-52.36-8.46-104.42-12.7-156.81h23.05v-10.49H168.34
				v10.65h116.32c4.25,52.15,8.47,104.02,12.71,156.12h-10.54v5.25c8,0,16.04,0.03,24.09-0.01V412.94z"/>
			<path class="st37" d="M180.7,311.18c2.7-0.18,5.19-0.34,7.86-0.52c4.91,30.01,9.79,59.85,14.72,89.99
				c-4.03-1.05-7.25-3.35-10.55-5.46c-0.63-0.4-0.71-1.14-0.84-1.86c-3.66-21.11-7.47-42.2-10.96-63.34
				C179.91,323.85,180.62,317.57,180.7,311.18z"/>
			<path class="st16" d="M102.8,321.95c-0.7,6.9-1.4,13.78-2.1,20.66c-0.23-0.2-0.46-0.42-0.7-0.61c-2.12-1.86-4.23-3.73-6.32-5.63
				c-0.52-0.45-1.04-0.92-1.55-1.39c-0.51-0.44-1-0.91-1.49-1.35c-0.66-0.59-1.31-1.18-1.96-1.78c-0.67-0.61-1.33-1.22-1.99-1.84
				c-0.95-0.88-1.92-1.76-2.87-2.65c-1.93-1.79-3.85-3.59-5.75-5.41H102.8z"/>
			<path class="st16" d="M124.41,362.51c-0.32-0.26-0.65-0.52-0.97-0.78c0-0.01,0-0.01-0.01-0.01c-2.07-1.68-4.15-3.37-6.19-5.06
				c-0.99-0.81-1.97-1.62-2.95-2.44c-1.06-0.88-2.1-1.76-3.16-2.66c-0.19-0.17-0.4-0.33-0.59-0.5c1.11-9.65,2.23-19.29,3.34-28.92
				c1.31-0.61,2.48-0.43,3.84-0.09C119.95,335.52,122.17,349,124.41,362.51z"/>
			<path class="st16" d="M128.88,311.52h-9.88c-17.22,0.01-34.41,0.01-51.63,0.01l-0.16-0.16c-0.91-0.91-1.81-1.81-2.71-2.74
				c-0.93-0.95-1.88-1.91-2.8-2.87c-1.34-1.39-2.68-2.78-4.01-4.18c-4.6-4.86-9.08-9.81-13.42-14.9c-1.07-8.3-1.92-16.64-2.94-24.94
				c-2.05-16.61-4.48-33.15-8.24-49.47c-0.4-1.75-0.81-3.49-1.25-5.23c-0.35-1.43-1.48-2.98-0.09-4.54c2.48-2.81,5.2-2.3,6.25,1.43
				c0.87,3.11,1.69,6.23,2.46,9.37c0.66,2.62,1.28,5.25,1.86,7.89c5.06,22.93,8.84,46.06,11.15,69.43
				c0.75,7.59,5.92,12.28,13.49,12.21c13.92-0.13,27.81,0.45,41.67,1.75c5.52,0.51,10.94,1.63,16.18,3.51
				C126.44,308.66,128,309.31,128.88,311.52z"/>
			<path class="st17" d="M214.74,235.94c-3.37-7.71-7.39-13.87-16.45-14.23c7.31,2.98,12.89,7.43,14.18,15.78
				c-2.1,0.47-2.52-1.17-3.15-2.25c-3.03-5.15-7.38-8.41-13.27-9.57c-0.39-0.08-0.77-0.26-1.37,0.41c2.34,2.03,5.74,1.93,8.01,3.99
				c2.34,2.12,4.03,4.59,5.32,7.63c-2.39,0.67-3.74-0.53-4.73-1.85c-2.41-3.23-5.9-3.47-9.41-3.9c-1.09-0.13-1.66,0.5-2.32,1.11
				c-4.81,4.45-10.13,6.9-16.78,4.39c-1.06-0.4-2.15,0.03-3.24,0.33c-11.53,3.23-23.11,6.26-34.91,8.37
				c-0.68,0.12-1.38,0.15-2.31,0.25c-1.96-7.13-1.73-13.94,1.48-20.61c0.82-1.69,2.13-1.22,3.35-1.08
				c9.02,1.05,18.1,1.04,27.15,1.52c7.01,0.37,13.56-1.19,20.08-3.34c2.29-0.75,4.61-1.42,6.86-2.3c7.37-2.89,19.27,1.8,20.75,10.78
				C214.17,232.64,215.08,233.73,214.74,235.94z"/>
			<path class="st16" d="M147.33,380.29c-2.93-2.18-5.86-4.41-8.77-6.64c-0.75-0.57-1.5-1.15-2.24-1.73
				c-0.94-6.52-1.9-13.03-2.83-19.56c-1.48-10.35-2.88-20.7-4.37-31.45c3.53-0.44,6.62-0.82,9.89-1.22
				c0.68,6.45,1.32,12.83,2.03,19.21C142.58,352.78,144.47,366.62,147.33,380.29z"/>
			<path class="st17" d="M144.81,138.64c-3.3-3.42-3.75-7.1-2.03-11.37c1.19-2.98,2.07-6.09,3.18-9.12c1.18-3.2,0.44-6.17-1.08-8.99
				c-1.1-2.03-2.67-3.67-5.28-3.24c-2.57,0.42-4.04,2.18-4.68,4.57c-0.97,3.68,0.61,6.89,2.1,10.1c1.06,2.29,3.04,2.66,5.56,2.42
				c-3.23,3.05-4.3,2.46-8.81-4.59c-0.46,0.68-0.78,1.36-1.29,1.83c-4.37,4.1-7.11,9.51-11.14,13.88c-0.92,0.98-1.67,2.12-3.15,0.88
				c-0.18,0.14-0.36,0.29-0.55,0.44c4.45,3.43,7.48,8.1,10.81,12.49c2.44,3.22,4.78,6.52,8.18,8.82c2.27,1.54,4.58,2.94,7.52,2.7
				c1.43-0.13,2.56-0.62,2.97-2.09c1.1-3.94,3.33-7.27,5.85-10.6C150.04,144.18,147.44,141.4,144.81,138.64z M142.04,120.09
				c-3.58-4.13-3.54-4.54-0.1-8.02c-1.96-3.17-2.57-3.28-5.16-0.87c-0.32-1.75,0.65-2.67,2.06-3.17c1.41-0.5,2.52,0.2,3.47,1.19
				c1.25,1.31,1.64,3.47,0.81,4.41C141.57,115.39,141.61,117.19,142.04,120.09z"/>
			<path class="st17" d="M180.68,102.1c-4.57-0.65-8.22-2.68-12.14-3.91c-5.32-1.65-6.71,0.03-6.4,4.4
				c0.15,2.06-0.31,4.28-2.59,4.97c-4.97,1.53-6.97,5.46-8.52,9.84c-3.26,9.18,0.49,18.58,9.03,21.75c1.69-6.24,6.39-6.5,12.1-5
				c-0.86-1.14-1.31-1.74-1.77-2.34c-0.19-0.31-0.3-0.63,0.02-0.93c0.14,0.18,0.28,0.35,0.42,0.52c1.56,0.36,3.17,0.44,4.71,0.98
				c2.15,0.74,3.22-0.31,2.86-2.64c-0.37-2.38-0.83-4.75-1.29-7.13c-0.25-1.34-0.23-2.7,0.63-3.76
				C181.9,113.74,179.88,107.74,180.68,102.1z M165.24,118.42c2.29-0.16,4.58-0.31,7.48,0.89
				C169.31,123.31,167.47,119.3,165.24,118.42z M176.17,116.69c-0.21,0.61-0.74,0.88-1.4,0.95c-1.06,0.11-1.99-0.32-2.85-0.8
				c-2.39-1.3-5.05-1.53-7.86-1.94c3.18-2.58,9.38-2.23,11.67,0.43C176.1,115.75,176.34,116.2,176.17,116.69z"/>
			<path class="st16" d="M135.53,160.5c5.28,2.36,10.36,4.37,15.01-1.34c3.59,21.18,2.11,42.22,1.41,63.6
				c-4.11,0.13-8.02-0.52-12.17-0.9C140.44,201.18,140.46,180.79,135.53,160.5z"/>
			<path class="st16" d="M212.24,419.39c-2.22,0.31-4.44,0.55-6.67,0.72c-2.3-1.42-4.6-2.84-6.89-4.29
				c5.66-0.27,11.32-0.89,16.99-1.89C216.52,418.54,216.39,418.81,212.24,419.39z"/>
			<path class="st16" d="M86.91,253.82c3.74-0.66,7.47-1.32,11.68-2.06c-1.86-2.54-3.38-5.12-5.39-7.25
				c-7.11-7.53-10.45-16.8-12.72-26.6c-2.55-11.06-5.88-21.98-6.29-33.44c-0.03-0.95,0-1.9,0.25-2.91
				c1.62,5.97,3.25,11.94,4.87,17.92c2.56,9.4,5.16,18.79,7.64,28.22c0.97,3.68,2.75,6.87,5.02,9.87c2.24,2.97,4.42,5.98,6.55,9.04
				c1.68,2.4,3.67,3.74,6.82,3.45c5.54-0.51,10.98,0.66,16.45,1.71c-11.68-0.4-22.98,3.75-34.68,2.99
				C87.04,254.44,86.97,254.13,86.91,253.82z"/>
			<path class="st16" d="M126.46,262.01c3.54-3.32,5.98-6.73,7.74-10.59c0.47-1.03,1.03-1.59,2.14-1.81
				c4.32-0.85,8.63-1.77,13.28-2.74c0.29,4.88-0.28,9.53-0.78,14.17c-0.17,1.59-1.68,1.33-2.62,1.44
				C139.81,263.24,133.42,262.75,126.46,262.01z"/>
			<path class="st17" d="M229.02,221.98c3.81,3.34,4.24,10.62,3.06,14.99c-2.32-0.4-2.59-2.3-2.78-4.04c-0.48-4.5-2.66-7.7-6.8-9.56
				c-1.96-0.88-3.85-0.89-5.83,0.35c2.2,1.21,4.93,0.9,6.72,3.15c-1.92,1.94-4.19,2.11-6.2,0.77c-2.14-1.42-2.6-4.4-5.32-5.89
				c3.82-1.53,7.16-2.99,10.47-2.75c3.98,0.3,8.03,1.44,11.58,3.47c1.92,1.1,1.96,3.44,1.89,5.46c-0.07,2-0.41,3.99-0.77,6.03
				c-0.65-4.73-0.18-9.92-5.34-12.69c-0.26-0.3-0.53-0.67-0.94-0.27C228.36,221.4,228.82,221.68,229.02,221.98z"/>
			<path class="st16" d="M123.24,217.19c-6.48,0-13.29,0-19.8,0c2.48-2.06,6.21-2.84,15.75-3.02c0.56-4.36-1.02-8.3-2.55-12.2
				c-2.2-5.61-4.97-11-6.7-16.8c-0.56-1.87-1.19-3.74-0.71-5.78C115.09,191.43,120.72,203.53,123.24,217.19z"/>
			<path class="st16" d="M128.26,160.01c5.35,14.34,7.74,28.56,5.83,43.41c-0.22-2.52-0.53-5.04-0.65-7.57
				c-0.49-10.34-3.07-20.25-6.01-30.11C126.94,164.09,125.31,162.08,128.26,160.01z"/>
			<path class="st16" d="M159.54,163.88c2.4,13.18,2.3,26.48,0.24,40.17C158.66,198.65,158.56,167.09,159.54,163.88z"/>
			<path class="st16" d="M105.98,161.74c6.71,2.82,12.75,17.34,11.82,28.41C114.86,180.35,111.75,170.61,105.98,161.74z"/>
			<path class="st16" d="M102.59,258.71c-8.72,4.73-17.89,6.84-27.77,4.62C84.23,262.7,93.29,260.07,102.59,258.71z"/>
			<path class="st16" d="M235.78,376.98c0.91,2.39,0.26,3.54-2.02,4.45c-3.91,1.55-7.64,3.61-12.04,3.2
				c-0.78-0.07-1.93,0.44-2.09-1.02c-0.17-1.47,1.14-1.19,1.84-1.45C226.21,380.38,231,378.69,235.78,376.98z"/>
			<path class="st16" d="M118.4,149.06c-6.39-4.01-13.69-6.58-20.02-12.04C102.63,136.07,115.6,144.2,118.4,149.06z"/>
			<path class="st16" d="M153.19,381.37c7.92-1.35,14.06-6.32,22.45-6.27C171.8,378.97,157.01,383.25,153.19,381.37z"/>
			<path class="st17" d="M105.05,230.92c4.58-6.4,10-11.53,18.5-11.97C117.42,222.99,110.94,226.51,105.05,230.92z"/>
			<path class="st17" d="M117.74,239.02c-1.81-6.95,3.62-17.48,9.42-17.79c-2.38,2.77-4.48,5.39-5.91,8.45
				C119.86,232.63,118.71,235.67,117.74,239.02z"/>
			<path class="st16" d="M141.32,312.7c1.05-6.51,5.47-10.66,10.27-14.54C149.87,304.19,145.58,308.42,141.32,312.7z"/>
			<path class="st16" d="M235.53,367.74c-5.24,3.66-10.81,6.24-17.45,5.35C223.7,370.66,229.43,368.6,235.53,367.74z"/>
			<path class="st16" d="M145.78,292.7c-1.81,7.37-5.61,14.25-9.45,16.93C138.85,303.48,140.87,297.76,145.78,292.7z"/>
			<path class="st17" d="M171.42,140.51c-1.17,0.08-2.35,0.17-3.68,0.26c-0.02,1.6-0.02,3.53-2.41,2.89c-2-0.54-2.8-2.02-2.2-4.17
				c0.56-1.97,1.46-3.03,3.63-1.97c1.67,0.82,4,0.64,4.58,3.08C171.34,140.59,171.42,140.51,171.42,140.51z"/>
			<path class="st16" d="M207.57,311.47c0.85-3.5,3.81-7.09,8.8-10.93C216.16,304.17,212.6,308.67,207.57,311.47z"/>
			<path class="st17" d="M200.79,237.41c-2.93,1-5.87,0.42-8.98,0.48C196.23,233.1,198.97,232.95,200.79,237.41z"/>
			<path class="st17" d="M216.15,230.48c2.14-0.07,4.41-0.73,6.35,0.91c0.59,0.5,1.44,0.93,1.11,1.9c-0.31,0.9-1.12,1.01-1.97,1.01
				C218.89,234.31,216.78,233.43,216.15,230.48z"/>
			<path class="st16" d="M179.51,215.29c-3.27,2.64-4.97,5.92-8.84,7.01C171.63,218.52,175.59,215.1,179.51,215.29z"/>
			<path class="st17" d="M237.43,224.05c3.66,2.85,3.8,4.74,0.63,8.35C237.96,229.52,238.47,226.98,237.43,224.05z"/>
			<path d="M84.96,278.12c-0.48,0.81-1.21,0.22-1.85,0.54c0.03-0.87,0.61-0.88,1-1.1C84.39,277.74,84.68,277.93,84.96,278.12z"/>
			<path class="st17" d="M116.04,133.88c-0.46-0.47-0.92-0.94-1.37-1.41c0.16-0.16,0.32-0.32,0.49-0.47
				c0.39,0.42,0.78,0.84,1.17,1.26C116.23,133.47,116.13,133.68,116.04,133.88z"/>
			<path class="st17" d="M114.67,132.47c-0.26-0.22-0.53-0.44-0.86-0.72c0.68-0.35,1.09-0.33,1.34,0.25
				C114.99,132.16,114.83,132.31,114.67,132.47z"/>
			<path class="st37" d="M211.5,295.7c0.28-0.19,0.56-0.37,0.85-0.56c0.31,0.49,0.11,0.84-0.33,1.12
				C211.84,296.07,211.67,295.88,211.5,295.7z"/>
			<path class="st17" d="M156.53,149.95c-0.3-0.19-0.61-0.37-0.98-0.6c0.61-0.47,1.07-0.26,1.53-0.06
				C156.9,149.5,156.72,149.72,156.53,149.95z"/>
			<path class="st17" d="M117.6,134.4c0.2,0.2,0.4,0.41,0.6,0.61c-0.18,0.15-0.36,0.29-0.55,0.44c-0.22-0.2-0.44-0.41-0.65-0.61
				C117.2,134.69,117.4,134.55,117.6,134.4z"/>
			<path class="st17" d="M116.94,133.84c0.22,0.19,0.44,0.37,0.65,0.56c-0.2,0.15-0.4,0.29-0.6,0.44c-0.21-0.21-0.43-0.43-0.64-0.64
				C116.55,134.08,116.75,133.96,116.94,133.84z"/>
			<path class="st17" d="M116.36,134.2c-0.15-0.06-0.26-0.16-0.32-0.32c0.09-0.21,0.19-0.42,0.28-0.63c0.21,0.2,0.41,0.39,0.62,0.59
				C116.75,133.96,116.55,134.08,116.36,134.2z"/>
			<path class="st37" d="M170.49,213.89c0.08,0.08,0.15,0.15,0.22,0.22c-0.13,0.07-0.26,0.16-0.41,0.19
				c-0.05,0.01-0.13-0.12-0.2-0.19"/>
			<path class="st37" d="M142.04,120.09c-3.58-4.13-3.54-4.54-0.1-8.03c-1.96-3.16-2.58-3.27-5.16-0.86
				c-0.32-1.75,0.65-2.67,2.07-3.17c1.41-0.49,2.51,0.2,3.47,1.2c1.25,1.31,1.64,3.47,0.82,4.4
				C141.57,115.39,141.61,117.19,142.04,120.09z"/>
			<path class="st37" d="M164.07,114.9c3.18-2.58,9.37-2.23,11.67,0.44c0.35,0.41,0.59,0.86,0.43,1.35
				c-0.21,0.61-0.73,0.88-1.39,0.95c-1.07,0.12-1.99-0.32-2.85-0.79C169.54,115.55,166.87,115.32,164.07,114.9z"/>
			<path class="st37" d="M172.72,119.31c-3.41,4-5.24-0.01-7.47-0.89C167.53,118.26,169.82,118.12,172.72,119.31z"/>
			<path class="st37" d="M170.38,131.8c-0.19-0.31-0.29-0.62,0.02-0.92c0.14,0.17,0.28,0.35,0.42,0.52
				C170.68,131.54,170.53,131.68,170.38,131.8z"/>
			<path class="st37" d="M229.02,221.98c-0.2-0.3-0.66-0.57-0.25-0.98c0.41-0.4,0.68-0.03,0.94,0.27
				C229.48,221.5,229.25,221.74,229.02,221.98z"/>
		</g>
		<path d="M12.18,205.7c-0.31,1.68-0.36,3.44-0.11,5.17c-4.87,1.4-7.14,4.73-7.06,10.34c0.02,3.51,0.87,7.17,2.75,11.89
			c4.68,11.87,11.76,22.15,18.07,30.64c8.57,11.52,18.14,22.83,29.26,34.57c1.39,1.48,2.79,2.93,4.19,4.38l0.1,0.11
			c0.75,0.78,1.5,1.54,2.26,2.31l0.74,0.76c0.98,1,1.94,1.96,2.9,2.92c1.73,1.73,3.47,3.44,5.22,5.16l0.18,0.18
			c0.92,0.91,1.86,1.81,2.79,2.7c0.03,0.02,0.06,0.05,0.08,0.07c0.14,0.15,0.28,0.28,0.42,0.41c0.12,0.1,0.24,0.22,0.35,0.34
			c0,0,0.09,0.09,0.13,0.12c2.75,2.66,5.66,5.41,8.64,8.18c0.67,0.62,1.34,1.24,2.01,1.86l1.08,0.99c0.73,0.68,1.43,1.33,2.13,1.97
			c0.63,0.57,1.26,1.15,1.9,1.72L91,333.2c0.31,0.29,0.63,0.58,0.95,0.86c0.03,0.03,0.06,0.05,0.08,0.07
			c0.54,0.49,1.07,0.97,1.61,1.44c1.99,1.81,4.13,3.71,6.78,6.03c0.19,0.16,0.37,0.32,0.55,0.48c0,0,0.34,0.3,0.37,0.33l0.12,0.11
			c0.03,0.02,1.82,1.57,1.82,1.57c0.27,0.24,0.48,0.43,0.68,0.59c0.05,0.04,0.09,0.08,0.14,0.12c2.89,2.52,5.61,4.85,8.31,7.11
			c1.15,0.98,2.27,1.92,3.4,2.86c1.01,0.85,2.01,1.67,3.02,2.5l0.14,0.12c2.21,1.83,4.44,3.64,6.66,5.44c0,0,0.04,0.04,0.06,0.05
			c2.15,1.74,4.3,3.46,6.46,5.17l0.74,0.58c0.87,0.7,1.75,1.39,2.63,2.08c0.93,0.72,1.83,1.42,2.74,2.12
			c1.23,0.98,2.42,1.89,3.62,2.8c4.21,3.25,7.9,6.03,11.29,8.54c0.83,0.63,1.63,1.23,2.43,1.82c1.76,1.3,3.51,2.59,5.28,3.87
			c0.96,0.7,1.91,1.38,2.86,2.06l0.21,0.16c2.62,1.91,5.25,3.78,7.71,5.52c0.08,0.05,0.97,0.68,0.97,0.68
			c0.69,0.48,1.36,0.96,2.05,1.43c0,0,0.77,0.53,0.83,0.57c3.59,2.53,7.23,5.04,10.84,7.46c2.32,1.59,4.73,3.21,7.4,4.97
			c0.99,0.66,1.95,1.3,2.92,1.91l3.53,2.32c0.59,0.37,1.24,0.79,1.9,1.22l1.22,0.79c4.9,3.12,9.42,5.94,13.84,8.6
			c1.09,0.67,2.14,1.3,3.19,1.93c0.8,0.48,1.59,0.95,2.37,1.41c0.85,0.51,3.19,1.88,3.19,1.88c6.69,3.91,13.02,7.45,19.35,10.83
			c4.04,2.15,7.76,4.08,11.38,5.89c0.64,0.33,1.2,0.61,1.77,0.89l1.21,0.62c3.02,1.49,6.04,2.95,8.91,4.29
			c0.08,0.04,0.17,0.09,0.25,0.13l0.54,0.25c1.05,0.49,2.09,0.97,3.14,1.44c2.2,1,4.48,2,6.8,2.99c10.09,4.27,19.36,7.51,28.34,9.89
			c5.69,1.48,12.44,3.01,19.2,3.01c1.8,0,3.58-0.11,5.28-0.32c7.15-0.92,10.24-4.49,9.99-11.59c-0.15-4.71-1.86-9.31-3.51-13.2
			c-5.23-12.12-12.81-22.9-19.77-31.96c1.07-0.6,2.1-1.37,3.07-2.33c0.27-0.27,0.53-0.57,0.77-0.87
			c7.96,10.36,15.33,21.11,20.54,33.21c2.04,4.81,3.73,9.72,3.9,14.98c0.34,9.72-4.69,15.48-14.36,16.72
			c-9.03,1.13-17.74-0.56-26.38-2.82c-9.98-2.64-19.61-6.13-29.02-10.12c-2.31-0.98-4.61-1.99-6.89-3.03
			c-1.34-0.6-2.67-1.22-4.01-1.84v-0.01c-3.03-1.42-6.05-2.88-9.06-4.37c-0.98-0.5-1.96-0.98-2.94-1.49
			c-3.86-1.93-7.69-3.92-11.5-5.95c-6.6-3.52-13.1-7.17-19.54-10.93c-1.07-0.63-2.14-1.26-3.2-1.89c-0.79-0.47-1.58-0.94-2.38-1.42
			c-1.07-0.64-2.14-1.28-3.21-1.94c-4.69-2.83-9.34-5.73-13.95-8.67c-1.06-0.68-2.11-1.37-3.17-2.04c-0.9-0.59-1.79-1.17-2.68-1.76
			c-0.26-0.17-0.5-0.33-0.76-0.5c-1.02-0.64-2.02-1.31-3.02-1.98c-2.49-1.64-4.97-3.3-7.44-4.99c-3.67-2.47-7.3-4.97-10.92-7.52
			c-0.1-0.06-0.2-0.13-0.29-0.2c-0.16-0.11-0.32-0.22-0.48-0.33c-0.85-0.58-1.67-1.16-2.51-1.75c-0.15-0.11-0.29-0.2-0.44-0.31
			c-0.05-0.03-0.09-0.07-0.14-0.1c-2.59-1.83-5.18-3.67-7.74-5.54c-1.03-0.74-2.06-1.48-3.09-2.23c-1.78-1.29-3.55-2.59-5.32-3.9
			c-0.81-0.6-1.62-1.21-2.43-1.82c-3.81-2.82-7.59-5.69-11.35-8.58c-1.22-0.93-2.43-1.86-3.63-2.81c-0.92-0.71-1.84-1.42-2.76-2.14
			c-0.94-0.73-1.87-1.47-2.8-2.21c-0.2-0.16-0.41-0.32-0.61-0.48c-2.19-1.73-4.37-3.48-6.55-5.24c0-0.01,0-0.01-0.01-0.01
			c-2.24-1.81-4.48-3.64-6.69-5.47c-1.07-0.88-2.13-1.75-3.19-2.64c-1.14-0.95-2.27-1.9-3.41-2.87c-2.81-2.36-5.6-4.75-8.38-7.17
			c-0.26-0.21-0.53-0.45-0.8-0.69c-0.58-0.5-1.15-1-1.73-1.5c-0.1-0.08-0.19-0.17-0.29-0.26c-0.27-0.23-0.54-0.48-0.82-0.71
			c-2.29-2.01-4.57-4.03-6.83-6.08c-0.56-0.49-1.12-0.99-1.68-1.5c-0.55-0.48-1.08-0.98-1.61-1.46c-0.71-0.64-1.42-1.28-2.12-1.92
			c-0.72-0.66-1.44-1.32-2.15-1.99c-1.03-0.95-2.07-1.9-3.1-2.86c-2.93-2.72-5.84-5.47-8.71-8.24c-0.12-0.11-0.23-0.22-0.35-0.33
			c0,0-0.01,0-0.01-0.03c-0.2-0.18-0.4-0.37-0.6-0.57c-0.95-0.91-1.91-1.83-2.85-2.76c-0.04-0.03-0.08-0.07-0.11-0.1
			c-1.78-1.75-3.55-3.49-5.31-5.25c-0.98-0.98-1.96-1.96-2.93-2.96c-1.01-1.03-2.03-2.06-3.03-3.1c-1.45-1.5-2.9-3-4.33-4.52
			c-10.51-11.1-20.47-22.7-29.64-35.03c-7.35-9.89-14.13-20.18-18.7-31.77c-1.75-4.4-3.07-8.86-3.11-13.67
			C-0.11,212.84,4.19,207.42,12.18,205.7z"/>
	</g>
	<g>
		<path class="st17" d="M399.68,148.02c9.63,0,19.14,0,28.76,0c0-14.65,0-29.2,0-43.78c-9.69,0-19.19,0-28.76,0
			C399.68,118.95,399.68,133.45,399.68,148.02z"/>
		<path class="st16" d="M408.28,94.36c0-3.2,0-7.91,0-9.99c-16.91,0-33.64,0-50.57,0c0,20.3,0,40.61,0,61.16c10.9,0,25.89,0,37.42,0
			c-0.01-15.34-0.02-30.68-0.03-46.02c0-3.43,1.62-5.12,5-5.13C402.83,94.36,405.55,94.36,408.28,94.36z"/>
		<path class="st17" d="M382.25,148.88c-1.23,1.57-1.62,3.34-2.3,5.29c1.81,0.04,3.33,0.11,4.98-0.26
			C383.97,152.2,383.96,150.2,382.25,148.88z"/>
		<path class="st17" d="M380.02,19.87c0,1.22,0.74,1.92,1.91,2c1.34,0.1,2.07-0.73,2.13-1.98c0.05-1.19-0.66-1.89-1.92-2.01
			C380.96,18,380.02,18.48,380.02,19.87z"/>
		<path class="st17" d="M414.31,151.22c-1.37,0.03-2.33,0.19-2.23,1.9c0.08,1.32-0.02,2.55,1.93,2.47c1.52-0.06,2.48-0.45,2.23-2.22
			C416.45,151.93,415.96,151.18,414.31,151.22z"/>
		<path class="st17" d="M384.01,79.76c-0.12-0.8-0.59-1.35-1.41-1.4c-0.98-0.06-1.53,0.63-1.51,1.5c0.02,0.77,0.56,1.36,1.46,1.31
			C383.41,81.12,383.84,80.58,384.01,79.76z"/>
		<path class="st16" d="M544.61,98.56c0-24.01,0-47.85,0-71.85c-57.09,0-114.11,0-171.44,0c0,13.23,0,33.74,0,48.42
			c11.61-0.02,23.22-0.02,34.83,0c3.39,0,5.22,1.91,5.25,5.3c0.03,3.23,0.02,9.59,0.01,13.91c4.93,0,9.86,0,14.79,0.02
			c3,0.01,4.67,1.48,4.97,4.19C468.06,98.56,509.71,98.56,544.61,98.56z M476.42,85.42c-9.91-0.04-19.81-0.04-29.72-0.05
			c-1.25,0-2.6-0.06-2.6-1.69c0-1.65,1.36-1.67,2.6-1.66c4.99,0.01,9.98,0,14.97,0c0,0,0-0.01,0-0.01c4.92,0,9.83,0.03,14.75-0.02
			c1.3-0.01,2.27,0.24,2.28,1.72C478.72,85.22,477.68,85.43,476.42,85.42z M534.72,87.23c-16.42,0-32.78,0-49.26,0
			c0-9.81,0-19.62,0-29.67c16.51,0,32.81,0,49.26,0C534.72,67.48,534.72,77.27,534.72,87.23z M382.9,33.16
			c50.55,0,101.11,0,151.83,0c0,5.96,0,11.95,0,18.13c-50.54,0-101.04,0-151.83,0C382.9,45.25,382.9,39.32,382.9,33.16z
			 M478.67,59.55c-0.39,1.13-1.34,1.01-2.23,1.01c-9.24,0.01-18.49,0-27.73,0c0,0.01,0,0.01,0,0.02c-8.95,0-17.89,0-26.84,0
			c-0.52,0-1.04,0-1.56-0.03c-0.98-0.05-1.54-0.58-1.51-1.56c0.03-1.02,0.51-1.7,1.64-1.69c1.94,0.01,3.88,0.02,5.81,0.02
			c16.62,0,33.25,0,49.87,0.01c0.72,0,1.52-0.28,2.12,0.36C478.73,58.21,478.91,58.84,478.67,59.55z M384.77,57.3
			c4.62,0.04,9.23,0.02,13.85,0.02c0,0,0,0.01,0,0.01c4.47,0,8.94,0.01,13.4-0.01c1.22-0.01,2.37,0.13,2.35,1.66
			c-0.02,1.38-1.09,1.56-2.23,1.56c-9.16,0.01-18.32,0.02-27.47,0.05c-1.1,0-1.95-0.29-1.95-1.57
			C382.72,57.67,383.52,57.29,384.77,57.3z M386.41,68.83c-0.75,0-1.5,0.03-2.24-0.05c-0.93-0.1-1.52-0.61-1.48-1.61
			c0.04-0.96,0.57-1.53,1.55-1.56c2.31-0.06,4.62-0.1,6.93-0.1c28.34,0,56.69,0.01,85.03,0c1.28,0,2.57,0.03,2.56,1.68
			c-0.01,1.72-1.42,1.62-2.63,1.62c-15.14,0-30.28,0-45.42,0c0,0.01,0,0.02,0,0.03C415.94,68.83,401.18,68.83,386.41,68.83z
			 M422.11,77.04c-2.04,0-2.99-1-2.32-2.39c0.5-1.04,1.43-0.9,2.31-0.9c15.65-0.01,31.3-0.01,46.95-0.01c2.46,0,4.92,0.06,7.38,0.02
			c1.29-0.02,2.3,0.28,2.25,1.77c-0.05,1.38-1.07,1.54-2.24,1.53c-9.09-0.03-18.19-0.01-27.28-0.01
			C440.15,77.04,431.13,77.05,422.11,77.04z"/>
		<path class="st17" d="M387.96,19.87c0,1.21,0.77,1.95,1.94,1.98c1.3,0.04,1.98-0.79,2.23-2.17c-0.28-0.97-0.79-1.81-2.05-1.82
			C388.77,17.85,387.96,18.54,387.96,19.87z"/>
		<path class="st17" d="M395.83,19.66c-0.08,1.27,0.66,2.15,1.97,2.21c1.22,0.06,1.88-0.69,2.04-1.92c-0.1-1.28-0.83-2.01-2.12-2.07
			C396.55,17.83,395.9,18.63,395.83,19.66z"/>
		<path class="st17" d="M370.31,74.16c0.02-16.19,0.05-41.32,0.06-57.51c0-3.25,0.2-3.47,3.34-3.47
			c33.57,0.01,67.13,0.01,100.7,0.01c23.27,0,46.54-0.02,69.81-0.03c2.97,0,3.26,0.26,3.26,3.14c0.01,27.6-0.01,55.2,0.02,82.79
			c0,1.58-0.39,2.28-2.12,2.28c-35.05-0.05-77.08-0.07-112.31-0.09c0,2.98,0,5.95,0,8.93c39.37,0,85.15,0,124.24,0
			c0-34.45,0-68.78,0-103.29c-65.57,0-131.09,0-196.88,0c0,19.8,0,47.19,0,68.22c3.29-0.01,6.58-0.01,9.88-0.02
			C370.31,74.81,370.31,74.49,370.31,74.16z"/>
		<path class="st17" d="M417.99,100.41c0.56-0.01,1.09-0.14,1.04-0.84c-0.06-0.72-0.67-0.68-1.18-0.68c-1.26-0.02-2.52-0.01-3.78,0
			c-1.26,0-2.52-0.02-3.78,0.01c-0.57,0.01-1.29-0.04-1.22,0.87c0.05,0.68,0.63,0.79,1.15,0.79
			C412.8,100.52,415.39,100.46,417.99,100.41z"/>
		<path class="st37" d="M534.73,33.16c-50.72,0-101.29,0-151.83,0c0,6.16,0,12.09,0,18.13c50.79,0,101.29,0,151.83,0
			C534.73,45.12,534.73,39.12,534.73,33.16z"/>
		<path class="st37" d="M485.46,87.23c16.48,0,32.84,0,49.26,0c0-9.96,0-19.75,0-29.67c-16.45,0-32.75,0-49.26,0
			C485.46,67.61,485.46,77.42,485.46,87.23z"/>
		<path class="st37" d="M447.74,148.54c15.15,0,29.99,0,44.98,0c-2.31-4.88-2.79-9.98-3.13-15.13c-12.82,0-25.58,0-38.41,0
			C451.05,138.76,449.97,143.72,447.74,148.54z"/>
		<path class="st37" d="M430.71,68.8c15.14,0,30.28,0,45.42,0c1.21,0,2.62,0.1,2.63-1.62c0.01-1.65-1.28-1.68-2.56-1.68
			c-28.34,0.01-56.69,0-85.03,0c-2.31,0-4.62,0.05-6.93,0.1c-0.98,0.02-1.51,0.59-1.55,1.56c-0.04,1,0.55,1.52,1.48,1.61
			c0.74,0.08,1.49,0.05,2.24,0.05c14.77,0,29.54,0,44.31,0C430.71,68.82,430.71,68.81,430.71,68.8z"/>
		<path class="st37" d="M476.12,57.33c-16.62-0.01-33.25-0.01-49.87-0.01c-1.94,0-3.88-0.01-5.81-0.02c-1.13,0-1.61,0.67-1.64,1.69
			c-0.03,0.98,0.53,1.51,1.51,1.56c0.52,0.02,1.04,0.03,1.56,0.03c8.95,0,17.89,0,26.84,0c0-0.01,0-0.01,0-0.02
			c9.24,0,18.49,0,27.73,0c0.89,0,1.85,0.11,2.23-1.01c0.24-0.71,0.05-1.33-0.43-1.85C477.65,57.06,476.84,57.33,476.12,57.33z"/>
		<path class="st37" d="M476.45,77.06c1.17,0,2.19-0.15,2.24-1.53c0.05-1.48-0.95-1.79-2.25-1.77c-2.46,0.04-4.92-0.02-7.38-0.02
			c-15.65,0-31.3,0.01-46.95,0.01c-0.89,0-1.81-0.14-2.31,0.9c-0.67,1.39,0.28,2.39,2.32,2.39c9.02,0.01,18.04,0,27.05,0
			C458.26,77.04,467.35,77.03,476.45,77.06z"/>
		<path class="st37" d="M476.42,81.98c-4.92,0.05-9.83,0.02-14.75,0.02c0,0,0,0.01,0,0.01c-4.99,0-9.98,0-14.97,0
			c-1.24,0-2.6,0.02-2.6,1.66c0,1.64,1.35,1.69,2.6,1.69c9.91,0.01,19.81,0.02,29.72,0.05c1.27,0,2.3-0.2,2.29-1.72
			C478.69,82.22,477.72,81.97,476.42,81.98z"/>
		<path class="st37" d="M384.67,60.59c9.16-0.03,18.32-0.04,27.47-0.05c1.14,0,2.21-0.18,2.23-1.56c0.02-1.53-1.13-1.66-2.35-1.66
			c-4.47,0.02-8.93,0.01-13.4,0.01c0,0,0-0.01,0-0.01c-4.62,0-9.23,0.02-13.85-0.02c-1.25-0.01-2.05,0.37-2.05,1.71
			C382.72,60.3,383.56,60.59,384.67,60.59z"/>
		<path class="st37" d="M564.18,5.81c0-4.63-1.19-5.81-5.82-5.81c-66.52,0.01-133.05,0.02-199.57,0.03c-4.15,0-5.26,1.13-5.26,5.33
			c0,20.71,0.01,49.62,0.03,71.03c-0.95,0.92-1.33,2.41-1.33,4.65c0,24.08,0.02,48.16,0.04,72.24c0,3.91,1.81,5.67,5.77,5.67
			c9.32,0,18.64,0.01,27.96,0.01c2.73,0,9.94,0,12.91,0c-0.03-0.05-0.06-0.11-0.1-0.16c0.56,0.12,1.18,0.17,1.87,0.17
			c8.94,0.01,17.88,0.01,26.82,0c1.25,0,2.26-0.18,3.07-0.54c25.7,0,57.77,0,83.21,0c0-1.41,0-2.73,0-4.05c0-3.18,0-3.19-3.09-3.19
			c-19.83-0.01-39.65-0.02-59.48-0.04c-3.8,0-12.81,0-18.22,0c0.01-6.84,0.01-13.67,0-20.51c17.06,0,34.13,0,51.19,0.01
			c17.39,0,34.79,0.01,52.18,0.02c7.11,0,14.23-0.01,21.34,0.02c1.99,0.01,3.98,0.03,5.97,0.04c0.19,0,0.41-0.01,0.52-0.16
			c0.07-0.1,0.08-0.24,0.07-0.37c0-3.82-0.12-7.63-0.12-11.45C564.13,81.12,564.16,43.46,564.18,5.81z M379.94,154.17
			c0.68-1.95,1.08-3.72,2.3-5.29c1.71,1.33,1.72,3.32,2.68,5.03C383.27,154.28,381.75,154.21,379.94,154.17z M395.1,99.5
			c0,15.34,0.01,30.68,0.03,46.02c-11.53,0-26.52,0-37.42,0c0-20.55,0-40.86,0-61.16c16.93,0,33.66,0,50.57,0c0,2.09,0,6.79,0,9.99
			c-2.73,0-5.45,0.01-8.18,0.01C396.72,94.38,395.1,96.07,395.1,99.5z M381.1,79.85c-0.02-0.87,0.53-1.55,1.51-1.5
			c0.82,0.05,1.29,0.6,1.41,1.4c-0.18,0.82-0.61,1.37-1.46,1.41C381.65,81.22,381.11,80.63,381.1,79.85z M414.01,155.59
			c-1.95,0.08-1.85-1.15-1.93-2.47c-0.1-1.71,0.86-1.87,2.23-1.9c1.65-0.04,2.14,0.71,1.92,2.15
			C416.49,155.15,415.53,155.53,414.01,155.59z M428.44,148.02c-9.62,0-19.13,0-28.76,0c0-14.57,0-29.07,0-43.78
			c9.57,0,19.07,0,28.76,0C428.44,118.82,428.44,133.37,428.44,148.02z M409.05,99.76c-0.07-0.91,0.65-0.85,1.22-0.87
			c1.26-0.03,2.52-0.01,3.78-0.01c1.26,0,2.52-0.01,3.78,0c0.51,0.01,1.13-0.03,1.18,0.68c0.06,0.7-0.48,0.83-1.04,0.84
			c-2.6,0.05-5.19,0.11-7.79,0.14C409.68,100.55,409.11,100.44,409.05,99.76z M428.04,94.36c-4.93-0.01-9.86-0.02-14.79-0.02
			c0.01-4.33,0.02-10.69-0.01-13.91c-0.03-3.4-1.86-5.3-5.25-5.3c-11.61-0.02-23.22-0.01-34.83,0c0-14.68,0-35.19,0-48.42
			c57.33,0,114.36,0,171.44,0c0,24,0,47.84,0,71.85c-34.89,0-76.55,0-111.59,0C432.72,95.84,431.05,94.37,428.04,94.36z
			 M380.02,19.87c0-1.39,0.94-1.86,2.11-1.99c1.27,0.12,1.98,0.82,1.92,2.01c-0.05,1.25-0.79,2.08-2.13,1.98
			C380.76,21.79,380.02,21.09,380.02,19.87z M387.96,19.87c0-1.32,0.81-2.01,2.12-2c1.25,0.01,1.77,0.85,2.05,1.82
			c-0.25,1.37-0.93,2.21-2.23,2.17C388.72,21.82,387.95,21.08,387.96,19.87z M395.83,19.66c0.06-1.04,0.71-1.83,1.89-1.77
			c1.29,0.06,2.02,0.79,2.12,2.07c-0.16,1.24-0.82,1.99-2.04,1.92C396.49,21.81,395.76,20.93,395.83,19.66z M557.31,110.22
			c-39.09,0-84.87,0-124.24,0c0-2.98,0-5.95,0-8.93c35.23,0.02,77.26,0.04,112.31,0.09c1.73,0,2.12-0.7,2.12-2.28
			c-0.03-27.6-0.02-55.2-0.02-82.79c0-2.88-0.29-3.14-3.26-3.14c-23.27,0.01-46.54,0.03-69.81,0.03c-33.57,0-67.13,0-100.7-0.01
			c-3.14,0-3.34,0.22-3.34,3.47c-0.01,16.19-0.04,41.32-0.06,57.51c0,0.32,0,0.65,0,0.97c-3.29,0.01-6.58,0.01-9.88,0.02
			c0-21.03,0-48.42,0-68.22c65.79,0,131.32,0,196.88,0C557.31,41.43,557.31,75.77,557.31,110.22z"/>
	</g>
</g>
</svg>
