<?xml version="1.0" encoding="utf-8"?>
<!-- Generator: Adobe Illustrator 25.0.0, SVG Export Plug-In . SVG Version: 6.00 Build 0)  -->
<svg version="1.1" id="Layer_1" xmlns="http://www.w3.org/2000/svg" xmlns:xlink="http://www.w3.org/1999/xlink" x="0px" y="0px"
	 viewBox="0 0 118.19 118" style="enable-background:new 0 0 118.19 118;" xml:space="preserve">
<style type="text/css">
	.st0{fill:#185AE9;}
	.st1{fill-rule:evenodd;clip-rule:evenodd;fill:#00B0FB;}
	.st2{fill:#00B0FB;}
	.st3{fill:#00B0FB;fill-opacity:0.4;}
	.st4{fill:#FFFFFF;}
</style>
<g>
	<path class="st2" d="M3.2,79.47v-59.4c0-0.33,0.27-0.6,0.61-0.6h7.17v-1.02H1v61.02c0,2.01,0.91,3.8,2.35,4.99h13.09v-0.7H7.5
		C5.13,83.76,3.2,81.83,3.2,79.47z"/>
	<path class="st3" d="M98.7,66.78c0.99-7.14-1.26-14.27-6.17-19.57c-3.74-4.02-8.8-6.65-14.24-7.4c-1.1-0.15-2.21-0.23-3.31-0.23
		c-11.86,0-22.03,8.87-23.66,20.64c-1.31,9.43,3.1,18.73,11.23,23.7c1.73,1.06,3.59,1.89,5.54,2.47c0.06,0.02,0.12,0.02,0.17,0.02
		c0.13,0,0.26-0.04,0.36-0.12c0.15-0.11,0.24-0.3,0.24-0.49v-3.45c0-0.26-0.16-0.48-0.4-0.57c-8.61-3.09-13.95-11.91-12.7-20.97
		c1.32-9.55,9.6-16.76,19.24-16.76c0.89,0,1.79,0.06,2.67,0.19c9.56,1.32,16.76,9.59,16.76,19.24c0,0.9-0.06,1.8-0.19,2.67
		c-1,7.17-5.87,13.16-12.7,15.62c-0.24,0.09-0.4,0.31-0.4,0.57v3.46c0,0.19,0.09,0.37,0.24,0.49c0.11,0.08,0.23,0.12,0.36,0.12
		c0.06,0,0.12-0.01,0.18-0.03c1.94-0.59,3.8-1.42,5.52-2.48c1.81-1.11,3.47-2.45,4.93-4C95.83,76.29,98.01,71.74,98.7,66.78z"/>
	<path class="st2" d="M87.95,2.2H6.48C4.12,2.21,2.2,4.14,2.2,6.5v10.15c0,0.33,0.27,0.61,0.61,0.61h88.81
		c0.33,0,0.61-0.28,0.61-0.61V6.5C92.23,4.14,90.31,2.21,87.95,2.2z M68.38,11.72c-1.09,0-1.99-0.89-1.99-1.99
		c0-1.09,0.9-1.98,1.99-1.98c1.1,0,1.99,0.89,1.99,1.98C70.37,10.83,69.48,11.72,68.38,11.72z M75.99,11.72
		c-1.1,0-1.99-0.89-1.99-1.99c0-1.09,0.89-1.98,1.99-1.98c1.1,0,1.99,0.89,1.99,1.98C77.98,10.83,77.09,11.72,75.99,11.72z
		 M83.61,11.72c-1.1,0-1.99-0.89-1.99-1.99c0-1.09,0.89-1.98,1.99-1.98c1.09,0,1.98,0.89,1.98,1.98
		C85.59,10.83,84.7,11.72,83.61,11.72z"/>
	<path class="st2" d="M83.86,67.17c0.1-0.21,0.06-0.47-0.09-0.65l-8.29-9.68c-0.12-0.13-0.28-0.21-0.46-0.21
		c-0.18,0-0.35,0.08-0.46,0.21l-8.3,9.68c-0.15,0.18-0.19,0.43-0.09,0.65c0.1,0.22,0.31,0.35,0.55,0.35h3.25
		c0.61,0,1.1,0.49,1.1,1.1v24.33c0,0.33,0.27,0.61,0.61,0.61h6.67c0.33,0,0.61-0.27,0.61-0.61V68.63c0-0.61,0.5-1.1,1.11-1.1h3.25
		C83.54,67.52,83.76,67.39,83.86,67.17z"/>
	<path class="st3" d="M100.75,89.62c-0.39-0.52-1.02-0.83-1.68-0.83c-0.43,0-0.84,0.13-1.19,0.37c-0.03,0.01-0.05,0.03-0.08,0.05
		l-4.25,3.22c-0.45,0.33-0.74,0.83-0.82,1.39c-0.08,0.56,0.07,1.12,0.41,1.56l14.81,19.58c0.39,0.53,1.01,0.84,1.68,0.84
		c0.46,0,0.9-0.15,1.27-0.42l4.27-3.23c0.45-0.34,0.73-0.83,0.81-1.39c0.08-0.56-0.07-1.11-0.4-1.56L100.75,89.62z"/>
	<path class="st4" d="M117.32,107.87l-14.81-19.58c-0.81-1.09-2.07-1.71-3.44-1.71c-0.16,0-0.31,0.01-0.46,0.03h-0.06
		c-0.19,0-0.37-0.09-0.48-0.24l-3.58-4.74c-0.17-0.23-0.16-0.55,0.03-0.77c3.46-3.87,5.65-8.64,6.36-13.77
		c1.04-7.55-1.25-15.17-6.29-20.88c-0.1-0.12-0.15-0.26-0.15-0.41V6.5c0-3.59-2.92-6.5-6.5-6.5H6.49C2.91,0,0,2.91,0,6.5v72.97
		c0,3.58,2.91,6.49,6.5,6.49h54.99c0.11,0,0.22,0.03,0.31,0.09c2.06,1.21,4.28,2.13,6.61,2.73c0.26,0.07,0.45,0.31,0.45,0.59v5.29
		c0,0.61,0.49,1.1,1.1,1.1h10.09c0.61,0,1.1-0.49,1.1-1.1v-5.29c0-0.28,0.19-0.52,0.46-0.59c1.68-0.44,3.29-1.04,4.79-1.78
		c0.09-0.04,0.18-0.06,0.27-0.06c0.18,0,0.36,0.09,0.48,0.24l3.59,4.73c0.13,0.17,0.16,0.39,0.08,0.59c-0.56,1.42-0.36,3,0.56,4.21
		l14.81,19.58c0.8,1.07,2.09,1.71,3.44,1.71c0.95,0,1.85-0.3,2.6-0.87l4.26-3.22C118.38,112.47,118.76,109.76,117.32,107.87z
		 M2.2,6.5c0-2.36,1.92-4.29,4.28-4.3h81.47c2.36,0.01,4.28,1.94,4.28,4.3v10.15c0,0.33-0.28,0.61-0.61,0.61H2.81
		c-0.34,0-0.61-0.28-0.61-0.61V6.5z M57.45,83.38c-0.09,0.23-0.31,0.38-0.56,0.38H6.5c-2.37,0-4.3-1.93-4.3-4.29v-59.4
		c0-0.33,0.27-0.6,0.61-0.6h88.81c0.33,0,0.61,0.27,0.61,0.6v22.49c0,0.24-0.14,0.45-0.35,0.55c-0.08,0.04-0.17,0.06-0.26,0.06
		c-0.13,0-0.27-0.05-0.38-0.13c-3.64-2.9-8.01-4.77-12.64-5.41c-1.21-0.17-2.43-0.25-3.63-0.25c-12.95,0-24.06,9.68-25.84,22.53
		c-1.17,8.47,1.88,16.99,8.17,22.8C57.48,82.88,57.54,83.14,57.45,83.38z M68.86,78.68c0,0.2-0.1,0.4-0.28,0.51
		c-0.1,0.06-0.21,0.09-0.33,0.09c-0.08,0-0.16-0.01-0.24-0.05c-6.97-3.1-11.11-10.53-10.07-18.09c1.18-8.48,8.52-14.87,17.06-14.87
		c0.79,0,1.58,0.06,2.37,0.17c8.47,1.17,14.86,8.51,14.86,17.05c0,0.8-0.06,1.59-0.16,2.37c-0.82,5.91-4.58,10.91-10.06,13.37
		c-0.08,0.04-0.16,0.05-0.25,0.05c-0.12,0-0.23-0.03-0.33-0.09c-0.17-0.11-0.28-0.31-0.28-0.51v-8.35c0-0.33,0.28-0.6,0.61-0.6h5.26
		c0.27,0,0.52-0.09,0.72-0.27c0.46-0.39,0.52-1.09,0.13-1.55l-12-13.98l-0.14-0.15c-0.2-0.17-0.46-0.27-0.72-0.27
		c-0.33,0-0.63,0.14-0.84,0.39L62.15,67.91c-0.17,0.2-0.26,0.45-0.26,0.72c0,0.6,0.49,1.1,1.1,1.1h5.26c0.34,0,0.61,0.27,0.61,0.6
		V78.68z M80.05,67.52c-0.61,0-1.11,0.5-1.11,1.11v24.32c0,0.34-0.27,0.61-0.61,0.61h-6.66c-0.34,0-0.61-0.27-0.61-0.61V68.63
		c0-0.61-0.49-1.11-1.1-1.11h-3.25c-0.24,0-0.45-0.13-0.55-0.35c-0.1-0.21-0.07-0.47,0.09-0.65l8.3-9.67
		c0.12-0.14,0.28-0.21,0.46-0.21s0.35,0.07,0.46,0.21l8.3,9.67c0.15,0.18,0.18,0.44,0.09,0.65c-0.1,0.22-0.32,0.35-0.55,0.35H80.05z
		 M81.94,86.4c-0.06,0.02-0.12,0.03-0.18,0.03c-0.13,0-0.26-0.04-0.36-0.12c-0.15-0.12-0.25-0.3-0.25-0.49v-3.46
		c0-0.26,0.16-0.49,0.41-0.57c6.83-2.46,11.69-8.45,12.69-15.62c0.13-0.87,0.19-1.77,0.19-2.68c0-9.64-7.21-17.91-16.76-19.24
		c-0.89-0.12-1.79-0.18-2.68-0.18c-9.64,0-17.91,7.21-19.24,16.76c-1.26,9.06,4.08,17.88,12.7,20.97c0.24,0.08,0.4,0.31,0.4,0.57
		v3.44c0,0.19-0.09,0.37-0.24,0.49c-0.11,0.08-0.24,0.12-0.37,0.12c-0.06,0-0.11-0.01-0.17-0.03c-1.95-0.58-3.81-1.41-5.54-2.47
		c-8.12-4.97-12.53-14.27-11.22-23.7c1.63-11.77,11.8-20.64,23.65-20.64c1.1,0,2.22,0.08,3.32,0.23c5.44,0.75,10.5,3.38,14.24,7.4
		c4.91,5.3,7.16,12.43,6.17,19.57c-0.69,4.96-2.87,9.51-6.31,13.14c-1.46,1.55-3.12,2.9-4.93,4C85.74,84.98,83.88,85.81,81.94,86.4z
		 M92.07,90.02l-2.88-3.8c-0.1-0.14-0.15-0.31-0.12-0.47c0.03-0.17,0.13-0.31,0.27-0.41c0.94-0.62,1.88-1.33,2.78-2.11
		c0.11-0.1,0.25-0.15,0.4-0.15c0.02,0,0.04,0,0.06,0.01c0.17,0.01,0.32,0.1,0.42,0.23l2.88,3.81c0.1,0.13,0.14,0.29,0.12,0.45
		c-0.02,0.16-0.11,0.3-0.24,0.4l-2.85,2.15c-0.1,0.09-0.23,0.13-0.36,0.13C92.37,90.26,92.19,90.17,92.07,90.02z M115.97,110.76
		c-0.07,0.56-0.36,1.05-0.81,1.39l-4.27,3.22c-0.37,0.28-0.81,0.42-1.27,0.42c-0.67,0-1.28-0.3-1.67-0.83L93.14,95.38
		c-0.34-0.44-0.49-1-0.41-1.56c0.08-0.56,0.37-1.06,0.82-1.39l4.25-3.22c0.02-0.02,0.05-0.04,0.08-0.05
		c0.35-0.25,0.76-0.38,1.19-0.38c0.66,0,1.29,0.32,1.68,0.84l14.82,19.58C115.91,109.64,116.05,110.2,115.97,110.76z"/>
	<path class="st4" d="M75.99,11.72c1.1,0,1.99-0.89,1.99-1.99c0-1.09-0.89-1.98-1.99-1.98c-1.1,0-1.99,0.89-1.99,1.98
		C74,10.83,74.89,11.72,75.99,11.72z"/>
	<path class="st4" d="M68.38,11.72c1.1,0,1.99-0.89,1.99-1.99c0-1.09-0.89-1.98-1.99-1.98c-1.1,0-1.99,0.89-1.99,1.98
		C66.39,10.83,67.29,11.72,68.38,11.72z"/>
	<path class="st4" d="M83.61,11.72c1.09,0,1.98-0.89,1.98-1.99c0-1.09-0.89-1.98-1.98-1.98c-1.1,0-1.99,0.89-1.99,1.98
		C81.62,10.83,82.51,11.72,83.61,11.72z"/>
	<path class="st4" d="M30.94,48.09c0,0.61-0.5,1.1-1.11,1.1H12.44c-0.61,0-1.1-0.49-1.1-1.1s0.49-1.1,1.1-1.1h17.39
		C30.44,46.99,30.94,47.48,30.94,48.09z"/>
	<path class="st4" d="M48.32,38.79c0,0.62-0.49,1.12-1.1,1.12H12.44c-0.61,0-1.1-0.5-1.1-1.12c0-0.6,0.49-1.1,1.1-1.1h34.78
		C47.83,37.69,48.32,38.19,48.32,38.79z"/>
	<path class="st4" d="M30.94,29.51c0,0.61-0.5,1.1-1.11,1.1H12.44c-0.61,0-1.1-0.49-1.1-1.1c0-0.61,0.49-1.1,1.1-1.1h17.39
		C30.44,28.41,30.94,28.9,30.94,29.51z"/>
</g>
</svg>
