<?xml version="1.0" encoding="utf-8"?>
<!-- Generator: Adobe Illustrator 25.0.0, SVG Export Plug-In . SVG Version: 6.00 Build 0)  -->
<svg version="1.1" id="Layer_1" xmlns="http://www.w3.org/2000/svg" xmlns:xlink="http://www.w3.org/1999/xlink" x="0px" y="0px"
	 viewBox="0 0 127.79 118" style="enable-background:new 0 0 127.79 118;" xml:space="preserve">
<style type="text/css">
	.st0{fill:#185AE9;}
	.st1{fill-rule:evenodd;clip-rule:evenodd;fill:#00B0FB;}
	.st2{fill:#00B0FB;}
	.st3{fill:#00B0FB;fill-opacity:0.4;}
	.st4{fill:#FFFFFF;}
</style>
<g>
	<path class="st2" d="M5.7,15.86c0.11,0,0.22,0.01,0.33,0.01c1.22,0.05,2.55,0.08,4.17,0.08c0.98,0,1.97-0.01,2.96-0.02
		c0.25,0,0.51,0,0.76-0.01v-1.2H1v89.85c0,0.63,0,1.11,0.03,1.49h11.6v-1.08c-2.13,0-4.25,0.01-6.38,0.01
		c-1.17,0-1.87-0.19-2.31-0.65c-0.53-0.53-0.63-1.34-0.62-2.38c0.09-5.99,0.08-12.08,0.06-17.96c0-2.2-0.01-4.39-0.01-6.59V64.98
		c0.01-15.22,0.01-30.96-0.04-46.44c0-0.76,0.07-1.6,0.59-2.12C4.3,16.03,4.85,15.86,5.7,15.86z"/>
	<path class="st2" d="M123.65,107.69c-1.5-1.48-2.98-3-4.45-4.52c-2.08-2.14-4.22-4.35-6.44-6.44c-3.54-3.35-7.03-6.87-10.4-10.29
		c-1.59-1.61-3.17-3.21-4.77-4.81c-0.96-0.96-1.92-1.43-2.92-1.43c-1.25,0-2.55,0.73-4.08,2.29c-0.81,0.82-1.13,1.6-1,2.43
		c0.12,0.8,0.64,1.61,1.69,2.63c3.12,3.06,6.21,6.24,9.2,9.33c4.1,4.23,8.35,8.6,12.72,12.7c1.14,1.07,2.26,2.15,3.39,3.23
		l1.72,1.65c0.77,0.73,1.64,1.1,2.61,1.1c0.64,0,1.31-0.17,2-0.49c1.65-0.78,2.39-2.21,2.42-4.63
		C125.38,109.75,124.84,108.86,123.65,107.69z"/>
	<path class="st2" d="M100.05,57.21c0.4-0.21,0.71-0.5,1-0.79c0.12-0.12,0.25-0.24,0.37-0.35c0.26-0.22,0.86-0.73,0.59-1.43
		c-0.16-0.42-0.31-0.84-0.46-1.27c-0.45-1.29-0.91-2.61-1.66-3.77c-0.28-0.43-0.72-0.64-1.32-0.64c-0.34,0-0.71,0.07-1.06,0.14
		c-0.33,0.06-0.64,0.12-0.91,0.12c-0.15-0.01-0.22-0.01-0.3-0.01c-0.48,0-1,0.07-1.49,0.14c-0.48,0.07-0.93,0.13-1.33,0.13
		c-0.51,0-0.85-0.1-1.05-0.32c-0.57-0.61-1.25-1.17-1.91-1.7c-1.99-1.62-3.71-3.02-2.72-5.7c0.02-0.04,0.03-0.09,0.03-0.15
		c0.23-4.43,0.1-4.66-3.28-6.23l-0.24-0.11c-0.69-0.32-1.25-0.47-1.75-0.47c-0.87,0-1.6,0.43-2.35,1.38
		c-0.24,0.29-0.47,0.61-0.7,0.93c-0.81,1.13-1.66,2.3-2.84,2.56c-0.82,0.18-1.71,0.26-2.72,0.26s-2.13-0.08-3.51-0.27
		c-0.84-0.11-1.4-0.89-2-1.72c-0.21-0.3-0.43-0.6-0.66-0.87c-1.34-1.57-2.01-2.35-3.17-2.35c-0.65,0-1.39,0.24-2.61,0.63l-0.49,0.16
		c-2.15,0.7-2.91,1.94-2.5,4.04c0.63,3.18-0.18,5.41-2.71,7.45c-1.31,1.06-2.41,1.67-4.11,1.67c-0.15,0-0.3,0-0.45-0.01
		c-1.05-0.06-1.85-0.14-2.45-0.2c-0.54-0.06-0.94-0.1-1.25-0.1c-1.2,0-1.46,0.63-2.04,2.01c-0.21,0.52-0.5,1.2-0.91,2.07
		c-0.72,1.53-0.49,2.56,0.8,3.58c0.89,0.69,1.72,1.5,2.52,2.29l0.64,0.64c0.47,0.45,0.75,0.83,0.78,1.43
		c0.18,3.83,0.03,7.15-3.74,9.08c-0.28,0.15-0.5,0.37-0.7,0.56c-0.1,0.11-0.2,0.21-0.31,0.3c-0.92,0.7-0.79,1.58-0.6,2.18
		c1.18,3.94,1.46,4.88,4.7,4.88c0.56,0,1.21-0.03,2-0.05c0.59-0.03,1.19-0.05,1.79-0.05l0.46,0.01c0.48,0.01,0.77,0.05,0.99,0.28
		l0.65,0.65c2.37,2.38,4.61,4.62,3.39,8.38c-0.04,0.11-0.04,0.21-0.04,0.26c-0.69,2.32,0.79,3.22,2.16,3.75l0.29,0.1
		c1.37,0.53,2.2,0.84,2.93,0.84c1.19,0,1.94-0.82,3.44-2.46l0.44-0.48c0.4-0.45,0.81-0.9,1.24-1.33c0.46-0.46,0.82-0.66,1.22-0.66
		h0.04c0.38,0.02,0.76,0.02,1.14,0.03c3.25,0.08,6.33,0.14,8.02,3.63c0.17,0.34,0.42,0.6,0.66,0.85c0.12,0.12,0.23,0.23,0.33,0.36
		c0.33,0.41,0.73,0.61,1.23,0.61c0.16,0,0.33-0.02,0.52-0.05c4.52-0.9,5.49-2.14,5.19-6.66c-0.02-0.27-0.05-0.54-0.09-0.81
		c-0.12-0.94-0.22-1.76,0.38-2.43l0.37-0.42c1.88-2.1,3.65-4.08,6.29-4.08c0.68,0,1.41,0.13,2.17,0.4c0.14,0.05,0.27,0.06,0.37,0.06
		c0.44,0.09,0.75,0.13,1.04,0.13c1.56,0,2.23-1.2,2.59-2.11l0.12-0.3c1.5-3.69,1.44-3.94-1.56-6.66c-0.45-0.41-0.89-0.83-1.32-1.26
		l-0.47-0.45c-0.39-0.38-0.61-0.66-0.62-1.06l-0.01-0.48C96.45,62.4,96.37,59.07,100.05,57.21z M85.67,75.15
		c-3.28,3.35-7.68,5.28-12.07,5.28h-0.11c-4.87-0.03-9.56-2.04-12.87-5.5c-3.07-3.22-4.67-7.36-4.5-11.68
		c0.4-10.29,7.16-17.06,17.23-17.25h0.31c9.29,0,16.88,7.7,16.91,17.16C90.68,67.55,88.93,71.81,85.67,75.15z"/>
	<path class="st3" d="M43.19,34.16c0.17-0.46,0.18-0.98,0.17-1.39l-0.07-3.56c-0.01-0.3-0.02-0.75-0.28-1.12
		c-0.45-0.63-1.29-0.63-1.7-0.63l-26.28-0.01c-0.67,0-2.22,0-2.26,1.76l-0.07,3.55c-0.01,0.51-0.03,1.72,0.86,2.25
		c0.42,0.25,0.9,0.25,1.26,0.25l26.4,0c0.37,0,0.87,0,1.3-0.27C42.83,34.81,43.06,34.53,43.19,34.16z"/>
	<path class="st3" d="M108.3,2.38H10.72c-7.75,0-8.3,0.55-8.39,8.33c-0.01,0.83,0.05,1.66,0.58,2.2c0.53,0.54,1.38,0.61,2.15,0.61
		c9.77-0.05,19.49-0.06,29.21-0.06l24.09,0.01H87.5c7.28,0,22.23,0,22.23,0c2.27,0,3.39-0.03,4.06-0.76
		c0.66-0.72,0.66-1.88,0.66-4.21C114.45,3.64,113.18,2.38,108.3,2.38z M12.71,8.21c-0.04,0.84-0.49,1.26-1.34,1.26h-0.03
		c-0.93-0.01-1.35-0.38-1.39-1.24c-0.04-0.74,0.18-1.27,1.35-1.47C12.6,6.96,12.74,7.64,12.71,8.21z M18.03,9.49
		c-0.98-0.08-1.41-0.53-1.38-1.44c0.04-1.04,0.77-1.26,1.38-1.26c0.34,0,0.8,0.07,1.09,0.38c0.22,0.23,0.32,0.59,0.3,1.05
		C19.38,9.06,18.96,9.44,18.03,9.49z M24.81,9.49h-0.02c-0.34,0-0.8-0.07-1.09-0.38c-0.23-0.23-0.33-0.58-0.31-1.02
		c0.04-0.85,0.52-1.32,1.35-1.32c0.06,0,0.12,0,0.18,0.01c0.58,0.05,1.24,0.27,1.19,1.64C26.06,9.14,25.64,9.49,24.81,9.49z"/>
	<path class="st4" d="M125.8,106.44c-1.71-1.79-3.5-3.55-5.24-5.26c-0.74-0.72-1.48-1.45-2.22-2.19c-0.23-0.03-0.37-0.14-0.45-0.23
		c-0.11-0.12-0.17-0.26-0.19-0.43l-0.89-0.89c0.05-0.88,0.05-7.87,0.04-8.33v-0.44l-0.02-80.53c0-5.7-2.42-8.14-8.08-8.14H7.83
		C2.64,0,0,2.63,0,7.81v96.76c0,2.82,0,2.82,2.81,2.82h35.17c20.39,0,47.84,0,68.23-0.01c0.17,0,0.34,0.01,0.52,0.01
		c0.17,0.01,0.35,0.01,0.52,0.01c0.17,0,0.35-0.01,0.52-0.03c0.57,0.59,1.15,1.17,1.73,1.76c2.13,2.19,4.26,4.38,6.42,6.55
		c1.5,1.49,3.33,2.32,5.18,2.32c1.27,0,2.53-0.39,3.63-1.14c1.71-1.15,2.81-2.93,3.02-4.91
		C127.96,109.96,127.25,107.95,125.8,106.44z M10.72,2.38h97.58c4.88,0,6.15,1.26,6.15,6.12c0,2.33,0,3.49-0.66,4.21
		c-0.67,0.73-1.79,0.76-4.06,0.76c0,0-14.95,0-22.23,0H58.36l-24.09-0.01c-9.72,0-19.44,0.01-29.21,0.06
		c-0.77,0-1.62-0.07-2.15-0.61c-0.53-0.54-0.59-1.37-0.58-2.2C2.42,2.93,2.97,2.38,10.72,2.38z M63.35,104.95
		c-17.34,0-37.8,0-58.1,0.05c-1.17,0-1.87-0.19-2.31-0.65c-0.53-0.53-0.63-1.34-0.62-2.38c0.09-5.99,0.08-12.08,0.06-17.96
		c0-2.2-0.01-4.39-0.01-6.59V64.98c0.01-15.22,0.01-30.96-0.04-46.44c0-0.76,0.07-1.6,0.59-2.12c0.38-0.39,0.93-0.56,1.78-0.56
		c0.11,0,0.22,0.01,0.33,0.01c1.22,0.05,2.55,0.08,4.17,0.08c0.98,0,1.97-0.01,2.96-0.02c0.98-0.01,1.97-0.02,2.96-0.02l31.35,0.01
		c6.71,0,13.43,0,20.14-0.01h3.25c13.58-0.02,27.63-0.03,41.44-0.16h0.12c0.9,0,1.81,0.09,2.4,0.68c0.47,0.47,0.68,1.2,0.67,2.41
		c-0.05,18.73-0.04,37.79-0.03,56.22l0.01,13.48V89c-0.01,0.35-0.01,3.69,0.01,6.1l-0.68-0.67c-3.3-3.31-6.6-6.61-9.89-9.92
		c-2.94-2.95-3-3.21-1.52-6.94l0.16-0.4c0.56-1.44,1.04-2.48,1.43-3.31c1.11-2.39,1.11-2.39-1.22-4.49c-0.6-0.54-1.34-1.2-2.23-2.05
		c-1.05-1-1.37-1.99-1.54-3.27c-0.34-2.52,1.15-3.74,2.47-4.81c0.29-0.24,0.59-0.48,0.87-0.73l0.17-0.16
		c2.76-2.56,2.76-2.56,1.29-5.98c-0.57-1.33-0.96-2.37-1.26-3.21c-0.86-2.33-0.95-2.58-2.52-2.58c-0.55,0-1.26,0.05-2.15,0.11
		c-0.74,0.04-1.6,0.1-2.63,0.15h-0.24c-1.14,0-1.89-0.41-2.66-1.02c-1.82-1.42-2.44-3.2-2.03-5.77c0.12-0.74,0.17-1.53,0.21-2.28
		c0.02-0.4,0.04-0.8,0.07-1.19c0.07-0.88-0.2-1.14-0.5-1.28c-0.5-0.24-1-0.48-1.5-0.72c-2.33-1.14-4.75-2.32-7.33-2.87L80.5,32.3
		l-0.21,0.16c-0.31,0.35-0.62,0.69-0.93,1.03c-0.7,0.77-1.42,1.56-2.08,2.37c-0.94,1.17-2.07,1.4-3.34,1.55
		c-0.22,0.03-0.44,0.04-0.64,0.04c-2.05,0-3.14-1.28-4.19-2.53l-0.35-0.39c-1.88-2.19-2.53-2.88-3.45-2.88
		c-0.74,0-1.79,0.44-3.51,1.17c-5.31,2.24-5.31,2.24-5.16,8.1c0.04,1.48-0.45,2.82-1.38,3.77c-0.92,0.95-2.24,1.47-3.7,1.47
		c0,0-0.18,0-0.26,0c-1.05-0.04-2.01-0.11-2.94-0.22c-0.8-0.09-1.4-0.15-1.86-0.15c-1.09,0-1.28,0.21-2.28,2.54l-0.13,0.32
		c-0.09,0.2-0.18,0.41-0.27,0.62c-0.55,1.44-1.03,2.49-1.42,3.34c-1.12,2.48-1.12,2.48,1.35,4.69c0.59,0.53,1.31,1.18,2.17,1.98
		c0.99,0.94,1.21,1.88,1.4,3.12c0.39,2.47-1.06,3.7-2.34,4.79c-0.21,0.18-0.43,0.36-0.63,0.55c-0.59,0.53-1.09,0.96-1.51,1.31
		c-1.8,1.53-1.8,1.53-0.52,4.54l0.39,0.93c0.5,1.19,0.86,2.13,1.14,2.89c0.87,2.34,0.92,2.48,2.33,2.48c0.4,0,0.89-0.03,1.49-0.06
		c0.75-0.03,1.69-0.08,2.85-0.1h0.13c1.72,0,3.13,0.54,4.1,1.57c0.98,1.05,1.45,2.55,1.33,4.34c-0.06,0.98-0.14,1.79-0.2,2.47
		c-0.29,3.01-0.29,3.01,3.06,4.38c0.5,0.21,1.07,0.44,1.71,0.71c0.69,0.3,1.26,0.56,1.76,0.78c1.12,0.51,1.8,0.82,2.28,0.82
		c0.65,0,1.18-0.58,2.78-2.4l0.83-0.94c1.44-1.61,2.77-2.3,4.46-2.3c0.24,0,0.49,0.01,0.75,0.04c1.07,0.12,2.01,0.31,2.81,1.35
		c0.99,1.3,2.14,2.53,3.3,3.76c0.34,0.37,0.73,0.79,1.11,0.79c0.08,0,0.16-0.02,0.24-0.05c0.56-0.22,1.13-0.43,1.69-0.65
		c2.3-0.87,4.67-1.77,6.82-2.95c0.53-0.3,0.88-0.48,1.26-0.48c0.44,0,0.78,0.25,1.15,0.61c1.53,1.52,3.07,3.02,4.61,4.53
		c2.22,2.17,4.44,4.34,6.63,6.54c0.76,0.76,1.5,1.53,2.25,2.3H63.35z M87.18,84.58c0.04,0.27,0.07,0.54,0.09,0.81
		c0.3,4.52-0.67,5.76-5.19,6.66c-0.19,0.03-0.36,0.05-0.52,0.05c-0.5,0-0.9-0.2-1.23-0.61c-0.1-0.13-0.21-0.24-0.33-0.36
		c-0.24-0.25-0.49-0.51-0.66-0.85c-1.69-3.49-4.77-3.55-8.02-3.63c-0.38-0.01-0.76-0.01-1.14-0.03h-0.04c-0.4,0-0.76,0.2-1.22,0.66
		c-0.43,0.43-0.84,0.88-1.24,1.33l-0.44,0.48c-1.5,1.64-2.25,2.46-3.44,2.46c-0.73,0-1.56-0.31-2.93-0.84l-0.29-0.1
		c-1.37-0.53-2.85-1.43-2.16-3.75c0-0.05,0-0.15,0.04-0.26c1.22-3.76-1.02-6-3.39-8.38l-0.65-0.65c-0.22-0.23-0.51-0.27-0.99-0.28
		l-0.46-0.01c-0.6,0-1.2,0.02-1.79,0.05c-0.79,0.02-1.44,0.05-2,0.05c-3.24,0-3.52-0.94-4.7-4.88c-0.19-0.6-0.32-1.48,0.6-2.18
		c0.11-0.09,0.21-0.19,0.31-0.3c0.2-0.19,0.42-0.41,0.7-0.56c3.77-1.93,3.92-5.25,3.74-9.08c-0.03-0.6-0.31-0.98-0.78-1.43
		l-0.64-0.64c-0.8-0.79-1.63-1.6-2.52-2.29c-1.29-1.02-1.52-2.05-0.8-3.58c0.41-0.87,0.7-1.55,0.91-2.07
		c0.58-1.38,0.84-2.01,2.04-2.01c0.31,0,0.71,0.04,1.25,0.1c0.6,0.06,1.4,0.14,2.45,0.2c0.15,0.01,0.3,0.01,0.45,0.01
		c1.7,0,2.8-0.61,4.11-1.67c2.53-2.04,3.34-4.27,2.71-7.45c-0.41-2.1,0.35-3.34,2.5-4.04L62,35.35c1.22-0.39,1.96-0.63,2.61-0.63
		c1.16,0,1.83,0.78,3.17,2.35c0.23,0.27,0.45,0.57,0.66,0.87c0.6,0.83,1.16,1.61,2,1.72c1.38,0.19,2.5,0.27,3.51,0.27
		s1.9-0.08,2.72-0.26c1.18-0.26,2.03-1.43,2.84-2.56c0.23-0.32,0.46-0.64,0.7-0.93c0.75-0.95,1.48-1.38,2.35-1.38
		c0.5,0,1.06,0.15,1.75,0.47l0.24,0.11c3.38,1.57,3.51,1.8,3.28,6.23c0,0.06-0.01,0.11-0.03,0.15c-0.99,2.68,0.73,4.08,2.72,5.7
		c0.66,0.53,1.34,1.09,1.91,1.7c0.2,0.22,0.54,0.32,1.05,0.32c0.4,0,0.85-0.06,1.33-0.13c0.49-0.07,1.01-0.14,1.49-0.14
		c0.08,0,0.15,0,0.3,0.01c0.27,0,0.58-0.06,0.91-0.12c0.35-0.07,0.72-0.14,1.06-0.14c0.6,0,1.04,0.21,1.32,0.64
		c0.75,1.16,1.21,2.48,1.66,3.77c0.15,0.43,0.3,0.85,0.46,1.27c0.27,0.7-0.33,1.21-0.59,1.43c-0.12,0.11-0.25,0.23-0.37,0.35
		c-0.29,0.29-0.6,0.58-1,0.79c-3.68,1.86-3.6,5.19-3.52,8.71l0.01,0.48c0.01,0.4,0.23,0.68,0.62,1.06l0.47,0.45
		c0.43,0.43,0.87,0.85,1.32,1.26c3,2.72,3.06,2.97,1.56,6.66l-0.12,0.3c-0.36,0.91-1.03,2.11-2.59,2.11c-0.29,0-0.6-0.04-1.04-0.13
		c-0.1,0-0.23-0.01-0.37-0.06c-0.76-0.27-1.49-0.4-2.17-0.4c-2.64,0-4.41,1.98-6.29,4.08l-0.37,0.42
		C86.96,82.82,87.06,83.64,87.18,84.58z M122.94,115.09c-0.69,0.33-1.36,0.49-2,0.49c-0.97,0-1.85-0.37-2.61-1.1l-1.72-1.65
		c-1.13-1.08-2.25-2.16-3.39-3.23c-4.37-4.11-8.62-8.48-12.72-12.7c-2.99-3.08-6.09-6.27-9.2-9.33c-1.05-1.02-1.57-1.84-1.69-2.63
		c-0.13-0.84,0.19-1.61,1-2.44c1.53-1.56,2.83-2.29,4.08-2.29c0.99,0,1.95,0.47,2.91,1.43c1.6,1.6,3.19,3.2,4.77,4.81
		c3.37,3.41,6.86,6.94,10.4,10.29c2.21,2.09,4.36,4.3,6.43,6.44c1.48,1.51,2.95,3.03,4.45,4.51c1.19,1.17,1.73,2.06,1.71,2.77
		C125.33,112.88,124.59,114.31,122.94,115.09z"/>
	<path class="st4" d="M18.19,114.83c0.66,0.12,1.37,0.13,1.97,0.13c8.89,0.01,45.73,0.01,45.73,0.01c8.45,0,25.84,0,25.84,0
		c0.4,0,0.86-0.01,1.28-0.09c0.63-0.13,0.93-0.48,0.92-1.11c-0.01-0.87-0.51-1.07-0.89-1.14c-0.56-0.11-1.15-0.12-1.76-0.12
		l-33.94,0l-37.15,0c-0.64,0-1.33,0.02-1.98,0.13c-0.41,0.07-0.78,0.26-0.77,1.18C17.46,114.6,17.85,114.77,18.19,114.83z"/>
	<path class="st4" d="M34.23,47.44c0.01,0.4-0.08,0.69-0.25,0.87c-0.34,0.34-1.06,0.37-1.57,0.37h-0.14
		c-1.43-0.02-2.86-0.02-4.3-0.02l-5.67,0.01l-5.69-0.01c-1.43,0-2.85,0.01-4.28,0.02H12.2c-0.64,0-1.27-0.04-1.56-0.34
		c-0.18-0.18-0.26-0.48-0.26-0.9c0.02-0.89,0.42-1.15,1.82-1.15c3.47,0,6.91,0.01,10.36,0.01c3.27,0,6.54-0.01,9.81-0.02
		C33.92,46.28,34.22,46.71,34.23,47.44z"/>
	<path class="st4" d="M24.99,75.56c0,0.44-0.1,0.74-0.29,0.94c-0.24,0.24-0.65,0.36-1.23,0.36l-9.13-0.01
		c-0.77,0-2.34,0.01-2.34,0.01c-1.3,0-1.58-0.48-1.61-1.2c-0.02-0.41,0.06-0.7,0.23-0.88c0.22-0.23,0.66-0.35,1.28-0.35h11.65
		C24.74,74.44,24.98,74.87,24.99,75.56z"/>
	<path class="st4" d="M24.34,56.88c-0.01,0.29-0.03,1.19-1.43,1.19h-5.92c-1.76,0-3.51,0-5.27-0.01c-1.2,0-1.34-0.72-1.34-1.25
		c0.01-0.68,0.24-1.13,1.39-1.13h8.81c0.74,0,1.47,0,2.21-0.01c0.65,0,1.06,0.12,1.29,0.35C24.26,56.21,24.35,56.49,24.34,56.88z"/>
	<path class="st4" d="M24.34,66.27c-0.01,0.29-0.03,1.19-1.43,1.19h-5.92c-1.76,0-3.51,0-5.27-0.01c-1.2-0.01-1.34-0.72-1.34-1.26
		c0.01-0.68,0.24-1.13,1.39-1.13h5.88l2.93,0.01c0.74,0,1.47,0,2.21-0.02c0.65,0,1.06,0.12,1.29,0.36
		C24.26,65.6,24.35,65.88,24.34,66.27z"/>
	<path class="st4" d="M24.34,94.43c-0.01,0.29-0.03,1.19-1.43,1.19h-5.92c-1.76,0-3.51,0-5.27-0.01c-1.2-0.01-1.34-0.72-1.34-1.26
		c0.01-0.67,0.24-1.12,1.39-1.12h8.81c0.74,0,1.47,0,2.21-0.01c0.65,0,1.06,0.12,1.29,0.35C24.26,93.76,24.35,94.04,24.34,94.43z"/>
	<path class="st4" d="M24.93,85.12c-0.01,0.68-0.26,1.1-1.44,1.1c-1.95,0-3.88-0.01-5.82-0.01c-1.93,0-3.87,0.01-5.8,0.02h-0.03
		c-0.58,0-0.99-0.11-1.21-0.34c-0.18-0.18-0.26-0.48-0.25-0.91c0.03-0.6,0.21-1.15,1.41-1.15c0.82,0.01,1.61,0.01,2.4,0.01h9.25
		c0.59,0,0.99,0.11,1.22,0.34C24.85,84.38,24.94,84.69,24.93,85.12z"/>
	<path class="st4" d="M11.11,114.3h0.03c0.58,0,1-0.2,1.14-1.17c-0.17-1.02-0.64-1.16-1.18-1.16c0,0,0,0,0,0
		c-0.79,0.02-1.15,0.39-1.14,1.18C9.96,113.95,10.3,114.29,11.11,114.3z"/>
	<path class="st4" d="M24.79,9.49h0.02c0.82,0,1.25-0.36,1.3-1.07c0.05-1.37-0.61-1.6-1.19-1.64c-0.06-0.01-0.12-0.01-0.18-0.01
		c-0.83,0-1.31,0.47-1.35,1.31c-0.02,0.45,0.08,0.79,0.31,1.03C23.99,9.42,24.45,9.49,24.79,9.49z"/>
	<path class="st4" d="M18.03,9.49c0.93-0.05,1.35-0.43,1.39-1.26c0.02-0.46-0.08-0.82-0.3-1.06c-0.29-0.31-0.74-0.37-1.08-0.37
		c-0.61,0-1.34,0.22-1.38,1.26C16.62,8.96,17.05,9.41,18.03,9.49z"/>
	<path class="st4" d="M11.34,9.47c0,0,0.03,0,0.03,0c0.85,0,1.3-0.42,1.34-1.26c0.03-0.57-0.11-1.25-1.41-1.45
		c-1.17,0.2-1.39,0.73-1.35,1.47C9.99,9.09,10.41,9.46,11.34,9.47z"/>
	<path class="st4" d="M73.66,46h-0.31c-10.07,0.19-16.83,6.96-17.23,17.25c-0.17,4.32,1.43,8.46,4.5,11.68
		c3.31,3.46,8,5.47,12.87,5.5h0.11c4.39,0,8.79-1.93,12.07-5.28c3.26-3.34,5.01-7.6,4.9-11.99C90.54,53.7,82.95,46,73.66,46z
		 M73.22,78.36c-8.15-0.04-14.93-6.84-15.12-15.15c-0.08-3.81,1.42-7.49,4.24-10.38C65.3,49.81,69.36,48,73.2,48h0.12
		c8.39,0.08,15.19,6.93,15.17,15.26C88.47,71.58,81.65,78.36,73.22,78.36z"/>
	<path class="st4" d="M45.65,29.05v-1.08l0.01-1.19c0.03-1.23-0.41-1.7-1.63-1.74c0,0-0.24-0.01-0.26-0.01
		c-2.61,0.01-5.22,0.01-7.83,0.01c-2.6,0.01-5.22,0.01-7.82,0.01h-0.14c-5.23,0-10.45-0.01-15.66-0.02l-0.29,0.01
		c-1.19,0.04-1.63,0.51-1.61,1.75v0.11c0.03,1.75,0.02,3.51,0.02,5.27c0,1.02-0.01,2.03-0.01,2.98c0,0.02,0.01,0.13,0.01,0.15
		c0,0.22,0,0.43-0.01,0.65c-0.01,0.48,0.08,0.86,0.27,1.17c0.03,0.04,0.05,0.07,0.07,0.1c0.01,0.01,0.08,0.08,0.08,0.08
		c0.03,0.03,0.06,0.06,0.14,0.1c0.26,0.17,0.63,0.25,1.22,0.25c0,0,0.77-0.01,1.15-0.01h1.99c0.12,0,1.33,0.01,1.33,0.01h0.06
		c0,0,1.33,0.01,1.83,0.01c0.03,0,0.06-0.01,0.1-0.01h3c0,0,14.72,0,15.75,0c0.03,0,0.06,0.01,0.09,0.01c0.51,0,1.84-0.01,1.84-0.01
		h0.06c0.01,0,3.4-0.01,3.4-0.01c0.35,0,1.13,0.01,1.13,0.01c0.47,0,0.83-0.07,1.09-0.21c0.03-0.03,0.07-0.05,0.11-0.06
		c0.01-0.01,0.07-0.05,0.08-0.06c0.03-0.03,0.06-0.05,0.1-0.07l-0.04,0.01l0.1-0.12c0.19-0.26,0.28-0.65,0.28-1.19
		c-0.01-0.22-0.01-2.58-0.01-3.51C45.65,31.31,45.64,30.18,45.65,29.05z M43.19,34.16c-0.13,0.37-0.36,0.65-0.66,0.83
		c-0.43,0.27-0.93,0.27-1.3,0.27H14.84c-0.35,0-0.84,0-1.26-0.25c-0.89-0.53-0.87-1.74-0.86-2.25l0.07-3.55
		c0.03-1.76,1.59-1.76,2.26-1.76h26.27c0.41,0,1.25,0,1.7,0.64c0.26,0.37,0.27,0.82,0.28,1.12l0.07,3.56
		C43.38,33.17,43.36,33.7,43.19,34.16z"/>
</g>
</svg>
