<?xml version="1.0" encoding="utf-8"?>
<!-- Generator: Adobe Illustrator 24.3.0, SVG Export Plug-In . SVG Version: 6.00 Build 0)  -->
<svg version="1.1" id="Layer_1" xmlns="http://www.w3.org/2000/svg" xmlns:xlink="http://www.w3.org/1999/xlink" x="0px" y="0px"
	 width="50.6px" height="55.7px" viewBox="0 0 50.6 55.7" style="enable-background:new 0 0 50.6 55.7;" xml:space="preserve">
<style type="text/css">
	.st0{fill:#00B0FB;}
	.st1{opacity:0.4;fill:#00B0FB;}
	.st2{fill:none;}
	.st3{opacity:0.4;}
</style>
<g>
	<path class="st0" d="M32.8,12.9v0.8h-0.4c-0.5,11.4-1,22.8-1.5,34.2h0.2v1.1h0.1v0.1h2.4v-1.1c-0.3,0.1-0.5,0.1-0.8,0.2
		c0.5-11.6,1-23.2,1.5-34.7c0.1-0.1,0.1-0.1,0.2-0.2c0.1,0.2,0.2,0.3,0.4,0.4v-0.9H32.8z"/>
	<path d="M30.1,50.3c-0.6,0-1.3-0.2-1.9-0.3c-0.9-0.2-1.8-0.4-2.7-0.6c-0.1,0-0.3-0.1-0.4-0.1c-6.1-1.2-12.2-2.3-18.4-3.5
		c-1-0.2-1.2-0.5-1.1-1.5c1.1-8.3,2.2-16.7,3.2-25c0.1-1.1,0.7-1.8,1.8-2.1c1-0.3,2-0.6,2.9-0.9c0.3-0.1,0.7-0.5,0.8-0.8
		c0.8-2.3,1.7-4.7,3.2-6.7c0.7-1,1.6-1.9,2.6-2.6c1.7-1.2,3.6-1,5.2,0.2c0.2,0.2,0.5,0.3,0.7,0.4c3.2,0.1,4.4,0.9,5.5,3.4
		c0.8,0.4,1.4,0.7,1.9,0.9c0.1,0,0.1,0.1,0.2,0.2c1.4,1.6,3.2,2.3,5.4,2.2c0.8-0.1,1.3,0.5,1.4,1.3c1.2,8,2.3,16,3.5,24
		c0.4,2.5,0.7,4.9,1.1,7.4c0.1,1-0.1,1.3-1,1.5c-1.8,0.4-3.7,0.8-5.5,1.2c-1.8,0.4-3.7,0.8-5.5,1.2c-0.8,0.2-1.6,0.4-2.4,0.4
		C30.4,50.3,30.3,50.3,30.1,50.3z M31.4,12.7c-0.4,0.1-0.7,0.2-0.9,0.3c-6.2,1.9-12.4,3.9-18.6,5.8c-0.9,0.3-1.2,0.7-1.3,1.6
		C9.8,26.6,9,32.8,8.2,38.9c-0.2,1.7-0.4,3.4-0.6,5.2c7.5,1.4,14.8,2.8,22.3,4.2C30.3,36.4,30.8,24.6,31.4,12.7z M33.4,13.4
		c-0.1,0.1-0.1,0.1-0.2,0.2c-0.5,11.5-1,23.1-1.5,34.7c3.9-0.8,7.6-1.6,11.4-2.4c0-0.4-0.1-0.6-0.1-0.9c-0.9-5.8-1.7-11.6-2.6-17.4
		c-0.6-3.8-1.1-7.7-1.7-11.5c0-0.3-0.3-0.7-0.5-0.7C36.3,15.3,34.6,15.1,33.4,13.4z M16.4,15.4c1.1-0.3,1.9-0.6,2.8-0.9
		c0.2-0.1,0.4-0.3,0.4-0.5c0.6-2.6,1.7-4.9,4-6.6c-0.5-0.1-1-0.3-1.3-0.1c-0.8,0.4-1.6,0.8-2.2,1.4C18.3,10.6,17.4,12.9,16.4,15.4z
		 M21.6,13.8c1.2-0.4,2.2-0.7,3.3-1c0.2-0.1,0.3-0.3,0.4-0.4c0.2-1.1,0.2-2.2-0.3-3.3C23,10,22.2,11.7,21.6,13.8z M29.9,11.2
		c-0.4-1.7-1.6-2.7-2.9-2.5c0.1,1.1,0.2,2.2,0.3,3.3C28.1,11.8,29,11.5,29.9,11.2z"/>
	<path class="st1" d="M16.4,15.4c1-2.5,1.9-4.9,3.7-6.7c0.6-0.6,1.4-1,2.2-1.4c0.3-0.2,0.8,0,1.3,0.1c-2.3,1.7-3.3,4-4,6.6
		c0,0.2-0.2,0.4-0.4,0.5C18.3,14.8,17.4,15.1,16.4,15.4z"/>
	<path d="M18.9,42.9c-2.3,0-4.3-0.8-6.1-2.4c-0.5-0.5-0.7-0.9-0.5-1.6c0.3-1,0.6-2,0.9-2.9c0.3-1,0.9-1.1,1.7-0.6
		c0.8,0.5,1.7,1,2.6,1.4c0.2,0.1,0.7,0,0.8-0.2c0.2-0.2,0.2-0.7,0-0.9c-0.3-0.5-0.8-0.9-1.2-1.3c-1.3-1.1-2.5-2.3-2.9-4.2
		c-0.9-4.6,2.4-9,7.2-9.6c1.6-0.2,3.1-0.2,4.6,0.4c1,0.4,1.2,0.8,0.9,1.8c-0.4,1.3-0.9,2.5-1.3,3.8c-0.4,1-0.8,1.1-1.7,0.8
		c-0.9-0.2-1.8-0.4-2.6-0.4c-0.3,0-0.9,0.3-1,0.6c-0.1,0.2,0.2,0.8,0.5,1c0.9,0.9,2,1.6,2.9,2.5c2,1.8,2.4,5.1,1.2,7.9
		C23.9,41.5,21.7,42.9,18.9,42.9z M14.7,37.6c-0.1,0.2-0.2,0.5-0.3,0.7c-0.3,0.7-0.2,1.2,0.6,1.5c0.8,0.3,1.5,0.8,2.3,1
		c2.5,0.6,4.5-0.2,5.6-2.1c1.2-2.3,0.9-5-0.9-6.7c-0.9-0.8-1.9-1.5-2.8-2.3c-0.8-0.7-1.2-1.5-0.9-2.6c0.3-1.3,1.3-2.1,2.8-2.2
		c0.9,0,1.9,0.1,2.9,0.2c0.3-0.8,0.6-1.7,0.9-2.7c-2.1-0.4-4-0.2-5.8,0.7c-3.1,1.6-4.7,6.9-1.1,9.5c0.6,0.4,1.2,1,1.7,1.7
		c0.8,1.1,0.8,2.3,0.2,3.3c-0.7,1-1.8,1.3-3.1,0.9C16.2,38.3,15.5,37.9,14.7,37.6z"/>
	<path class="st0" d="M14.7,37.6c0.8,0.3,1.5,0.7,2.2,0.9c1.3,0.4,2.5,0,3.1-0.9c0.6-0.9,0.6-2.2-0.2-3.3c-0.5-0.6-1-1.2-1.7-1.7
		c-3.6-2.6-2-7.9,1.1-9.5c1.8-0.9,3.7-1.1,5.8-0.7c-0.3,1-0.6,1.8-0.9,2.7c-1-0.1-2-0.3-2.9-0.2c-1.5,0-2.5,0.9-2.8,2.2
		c-0.3,1.1,0.1,1.9,0.9,2.6c0.9,0.8,1.9,1.5,2.8,2.3c1.8,1.7,2.1,4.4,0.9,6.7c-1.1,1.9-3.1,2.8-5.6,2.1c-0.8-0.2-1.6-0.6-2.3-1
		c-0.7-0.3-0.9-0.8-0.6-1.5C14.6,38.1,14.6,37.8,14.7,37.6z"/>
</g>
</svg>
