<?xml version="1.0" encoding="utf-8"?>
<!-- Generator: Adobe Illustrator 24.3.0, SVG Export Plug-In . SVG Version: 6.00 Build 0)  -->
<svg version="1.1" id="Layer_1" xmlns="http://www.w3.org/2000/svg" xmlns:xlink="http://www.w3.org/1999/xlink" x="0px" y="0px"
	 width="161.2px" height="163.8px" viewBox="0 0 161.2 163.8" style="enable-background:new 0 0 161.2 163.8;" xml:space="preserve"
	>
<style type="text/css">
	.st0{fill:#185AE9;}
	.st1{fill:#00B0FB;}
	.st2{fill:none;}
	.st3{fill:#00B0FB;fill-opacity:0.4;}
	.st4{fill:#FFFFFF;}
</style>
<g>
	<g>
		<path class="st1" d="M123.6,27l-0.8,0.8c0.3,0,0.6,0.1,0.9,0.2c0.8-1.6,1.9-3,3.3-4.1c-0.2-0.2-0.3-0.4-0.5-0.6l-11.1-11.1
			c-0.9-0.9-2-1.4-3.3-1.4c-1.2,0-2.4,0.5-3.3,1.4l-6,6c-0.1,0.1-0.3,0.2-0.4,0.2c-0.1,0-0.2,0-0.3-0.1c-2.7-1.5-5.6-2.7-8.6-3.6
			c-0.3-0.1-0.4-0.3-0.4-0.6v-2.4h-4v4.4c0,0.9,0.6,1.7,1.5,1.9c1.8,0.5,3.6,1,5.4,1.8c0,0,0.3,0.1,0.4,0.1c1.8,0.8,3.7,1.7,5.4,2.7
			c0.3,0.2,0.6,0.3,1.1,0.3c0.5,0,1-0.2,1.4-0.6l7.4-7.4c0.1-0.1,0.3-0.2,0.4-0.2c0.2,0,0.3,0.1,0.4,0.2l11.1,11.1
			C123.9,26.3,123.9,26.7,123.6,27z"/>
		<path class="st3" d="M131.7,137.6H29.5c-3.2,0-5.8,2.6-5.8,5.8v15.7c0,0.3,0.3,0.6,0.6,0.6h112.6c0.3,0,0.6-0.3,0.6-0.6v-15.7
			C137.5,140.2,134.9,137.6,131.7,137.6z M129.1,150.7H32.1c-1.1,0-2-0.9-2-2c0-1.1,0.9-2,2-2h96.9c1.1,0,2,0.9,2,2
			C131.1,149.8,130.2,150.7,129.1,150.7z"/>
		<path class="st1" d="M72.7,93h15.7c0.3,0,0.6-0.3,0.6-0.6v-9.9c0-0.8,0.5-1.6,1.2-1.9c9.6-3.9,15.8-13.2,15.8-23.6
			c0-8.9-4.5-17-12.1-21.7c-0.1-0.1-0.2-0.1-0.3-0.1c-0.1,0-0.2,0-0.3,0.1c-0.2,0.1-0.3,0.3-0.3,0.5v19.9c0,2.6-2.1,4.6-4.6,4.6
			H72.7c-2.6,0-4.6-2.1-4.6-4.6V35.9c0-0.2-0.1-0.4-0.3-0.5c-0.1-0.1-0.2-0.1-0.3-0.1c-0.1,0-0.2,0-0.3,0.1
			C59.6,40,55.1,48.1,55.1,57c0,10.4,6.2,19.6,15.8,23.6c0.8,0.3,1.2,1,1.2,1.9v9.9C72.1,92.7,72.4,93,72.7,93z"/>
		<path class="st4" d="M150,93h-15.5c-0.2,0-0.3-0.1-0.4-0.2l-7.5-7.5c0,0-0.1,0-0.1-0.1l-6-6c-0.2-0.2-0.2-0.5-0.1-0.7
			c1.5-2.7,2.7-5.6,3.6-8.6c0.1-0.3,0.3-0.4,0.6-0.4h8.4c2.6,0,4.6-2.1,4.6-4.6V49.2c0-1.2-0.5-2.4-1.4-3.3
			c-0.9-0.9-2.1-1.4-3.3-1.4h-8.4c-0.3,0-0.5-0.2-0.6-0.4c-0.9-3-2.1-5.9-3.6-8.6c-0.1-0.2-0.1-0.5,0.1-0.7l6-6
			c0.9-0.9,1.4-2,1.4-3.3c0-1.2-0.5-2.4-1.4-3.3l-11.1-11.1c-0.9-0.9-2-1.4-3.3-1.4c-1.2,0-2.4,0.5-3.3,1.4l-6,6
			c-0.1,0.1-0.3,0.2-0.4,0.2c-0.1,0-0.2,0-0.3-0.1c-2.7-1.5-5.6-2.7-8.6-3.6c-0.3-0.1-0.4-0.3-0.4-0.6V4.6C93.1,2.1,91,0,88.4,0
			H72.7c-2.6,0-4.6,2.1-4.6,4.6v8.5c0,0.3-0.2,0.5-0.4,0.6c-3,0.9-5.9,2.1-8.6,3.6c-0.1,0.1-0.2,0.1-0.3,0.1c-0.2,0-0.3-0.1-0.4-0.2
			l-5.9-5.9c0,0,0,0-0.1-0.1c-0.9-0.9-2-1.4-3.3-1.4c-1.2,0-2.4,0.5-3.3,1.4L34.7,22.2c-0.9,0.9-1.3,2-1.3,3.3
			c0,1.2,0.5,2.4,1.3,3.3l6,6c0.2,0.2,0.2,0.5,0.1,0.7c-1.5,2.8-2.7,5.6-3.6,8.6c-0.1,0.2-0.3,0.4-0.6,0.4h-8.5
			c-2.6,0-4.6,2.1-4.6,4.6v15.7c0,1.2,0.5,2.4,1.4,3.3c0.9,0.9,2,1.4,3.3,1.4h8.5c0.3,0,0.5,0.2,0.6,0.4c0.9,2.9,2.1,5.8,3.6,8.6
			c0.1,0.2,0.1,0.5-0.1,0.7l-6,6c0,0,0,0-0.1,0.1l-7.5,7.5C27,92.9,26.9,93,26.7,93H11.2C5,93,0,98,0,104.2v48.5
			c0,6.2,5,11.2,11.2,11.2H150c6.2,0,11.2-5,11.2-11.2v-48.5C161.2,98,156.2,93,150,93z M33.7,92L45,80.7c0.4-0.4,0.6-1,0.6-1.6
			c0-0.3-0.1-0.6-0.3-0.8c-2.1-3.5-3.7-7.3-4.6-11.2c-0.2-0.9-1-1.5-2-1.5H28.2c-0.3,0-0.6-0.3-0.6-0.6V49.2c0-0.3,0.3-0.6,0.6-0.6
			h10.5c0.4,0,0.7-0.1,1-0.3c0.5-0.3,0.8-0.7,0.9-1.2c1-3.9,2.5-7.7,4.6-11.2c0.5-0.8,0.4-1.8-0.3-2.5L37.6,26
			c-0.2-0.2-0.2-0.6,0-0.9L48.7,14c0.1-0.1,0.3-0.2,0.4-0.2c0.2,0,0.3,0.1,0.4,0.2l7.4,7.4c0.4,0.4,0.9,0.6,1.5,0.6c0,0,0,0,0,0
			c0.3,0,0.7-0.1,1-0.3c1.8-1.1,3.6-2,5.4-2.7c0.1,0,0.4-0.1,0.4-0.1c1.8-0.7,3.6-1.3,5.4-1.8c0.9-0.2,1.5-1,1.5-1.9V4.6
			c0-0.3,0.3-0.6,0.6-0.6h15.7c0.3,0,0.6,0.3,0.6,0.6v10.5c0,0.9,0.6,1.7,1.5,1.9c1.8,0.5,3.6,1,5.4,1.8c0,0,0.3,0.1,0.4,0.1
			c1.8,0.8,3.7,1.7,5.4,2.7c0.3,0.2,0.6,0.3,1.1,0.3c0.5,0,1-0.2,1.4-0.6l7.4-7.4c0.1-0.1,0.3-0.2,0.4-0.2c0.2,0,0.3,0.1,0.4,0.2
			l11.1,11.1c0.2,0.2,0.2,0.6,0,0.9l-7.4,7.4c-0.7,0.7-0.8,1.7-0.3,2.5c2.1,3.5,3.7,7.2,4.7,11.2c0.1,0.5,0.5,1,0.9,1.2
			c0.3,0.2,0.7,0.3,1,0.3H133c0.3,0,0.6,0.3,0.6,0.6v15.7c0,0.3-0.3,0.6-0.6,0.6h-10.4c-0.9,0-1.7,0.6-2,1.5c-1,4-2.6,7.7-4.7,11.2
			c-0.1,0.2-0.2,0.4-0.2,0.7c-0.1,0.7,0.1,1.3,0.6,1.8L127.5,92c0.2,0.2,0.2,0.4,0.1,0.7c-0.1,0.2-0.3,0.4-0.6,0.4H93.7
			c-0.3,0-0.6-0.3-0.6-0.6v-8.2c0-0.2,0.1-0.4,0.3-0.5c10.2-4.9,16.7-15.3,16.7-26.6c0-12-7.2-22.7-18.3-27.3
			c-0.2-0.1-0.5-0.2-0.8-0.2c-0.8,0-1.5,0.5-1.9,1.3c-0.1,0.2-0.1,0.5-0.1,0.8v24.1c0,0.3-0.3,0.6-0.6,0.6H72.7
			c-0.3,0-0.6-0.3-0.6-0.6V31.6c0-1.1-0.9-2-2-2c-0.3,0-0.5,0-0.8,0.1C58.2,34.3,51.1,45,51.1,57c0,11.3,6.5,21.7,16.7,26.6
			c0.2,0.1,0.3,0.3,0.3,0.5v8.2c0,0.3-0.3,0.6-0.6,0.6H34.1c-0.2,0-0.5-0.1-0.6-0.4C33.5,92.4,33.5,92.1,33.7,92z M70.9,80.6
			C61.3,76.6,55.1,67.4,55.1,57c0-8.9,4.5-17,12.1-21.7c0.1-0.1,0.2-0.1,0.3-0.1c0.1,0,0.2,0,0.3,0.1c0.2,0.1,0.3,0.3,0.3,0.5v19.9
			c0,2.6,2.1,4.6,4.6,4.6h15.7c2.6,0,4.6-2.1,4.6-4.6V35.9c0-0.2,0.1-0.4,0.3-0.5c0.1-0.1,0.2-0.1,0.3-0.1c0.1,0,0.2,0,0.3,0.1
			c7.6,4.7,12.1,12.8,12.1,21.7c0,10.4-6.2,19.6-15.8,23.5c-0.8,0.3-1.2,1-1.2,1.9v9.9c0,0.3-0.3,0.6-0.6,0.6H72.7
			c-0.3,0-0.6-0.3-0.6-0.6v-9.9C72.1,81.6,71.7,80.9,70.9,80.6z M137.5,159.2c0,0.3-0.3,0.6-0.6,0.6H24.3c-0.3,0-0.6-0.3-0.6-0.6
			v-15.7c0-3.2,2.6-5.8,5.8-5.8h102.1c3.2,0,5.8,2.6,5.8,5.8V159.2z M157.2,152.6c0,3.9-3.2,7.2-7.2,7.2h-7.9
			c-0.3,0-0.6-0.3-0.6-0.6v-15.7c0-5.5-4.4-9.9-9.9-9.9H29.5c-5.4,0-9.9,4.4-9.9,9.9v15.7c0,0.3-0.3,0.6-0.6,0.6h-7.9
			c-3.9,0-7.2-3.2-7.2-7.2v-48.5c0-3.9,3.2-7.1,7.2-7.1H150c3.9,0,7.2,3.2,7.2,7.1V152.6z"/>
		<path class="st4" d="M129,146.7H32.1c-1.1,0-2,0.9-2,2c0,1.1,0.9,2,2,2H129c1.1,0,2-0.9,2-2C131.1,147.6,130.2,146.7,129,146.7z"
			/>
		<path class="st4" d="M47.9,104.2H24.3c-2.1,0-3.8,1.7-3.8,3.8v6.5c0,2.1,1.7,3.8,3.8,3.8h23.6c2.1,0,3.8-1.7,3.8-3.8v-6.5
			C51.7,106,50,104.2,47.9,104.2z M49.3,114.6c0,0.8-0.6,1.4-1.4,1.4H24.3c-0.8,0-1.4-0.6-1.4-1.4v-6.5c0-0.8,0.6-1.4,1.4-1.4h23.6
			c0.8,0,1.4,0.6,1.4,1.4V114.6z"/>
		<path class="st4" d="M47.9,104.2H24.3c-2.1,0-3.8,1.7-3.8,3.8v6.5c0,2.1,1.7,3.8,3.8,3.8h23.6c2.1,0,3.8-1.7,3.8-3.8v-6.5
			C51.7,106,50,104.2,47.9,104.2z M49.3,114.6c0,0.8-0.6,1.4-1.4,1.4H24.3c-0.8,0-1.4-0.6-1.4-1.4v-6.5c0-0.8,0.6-1.4,1.4-1.4h23.6
			c0.8,0,1.4,0.6,1.4,1.4V114.6z"/>
		<path class="st4" d="M141.5,110.7c0,1.8-1.5,3.3-3.3,3.3c-1.8,0-3.3-1.5-3.3-3.3c0-1.8,1.5-3.3,3.3-3.3
			C140.1,107.4,141.5,108.9,141.5,110.7z"/>
		<path class="st4" d="M128.4,110.7c0,1.8-1.5,3.3-3.3,3.3c-1.8,0-3.3-1.5-3.3-3.3c0-1.8,1.5-3.3,3.3-3.3
			C127,107.4,128.4,108.9,128.4,110.7z"/>
		<path class="st4" d="M115.4,110.7c0,1.8-1.5,3.3-3.3,3.3c-1.8,0-3.3-1.5-3.3-3.3c0-1.8,1.5-3.3,3.3-3.3
			C113.9,107.4,115.4,108.9,115.4,110.7z"/>
	</g>
</g>
</svg>
