<?xml version="1.0" encoding="utf-8"?>
<!-- Generator: Adobe Illustrator 24.3.0, SVG Export Plug-In . SVG Version: 6.00 Build 0)  -->
<svg version="1.1" id="Layer_1" xmlns="http://www.w3.org/2000/svg" xmlns:xlink="http://www.w3.org/1999/xlink" x="0px" y="0px"
	 width="162.6px" height="162.6px" viewBox="0 0 162.6 162.6" style="enable-background:new 0 0 162.6 162.6;" xml:space="preserve"
	>
<style type="text/css">
	.st0{fill:#185AE9;}
	.st1{fill:#00B0FB;}
	.st2{fill:none;}
	.st3{fill:#00B0FB;fill-opacity:0.4;}
	.st4{fill:#FFFFFF;}
</style>
<g>
	<g>
		<path class="st1" d="M123.4,81.8c-1.3-3.1-1.5-6.7-0.6-10c-1.3-2.6-1.7-5.6-1.3-8.5c-7.1-15.1-22.5-25.6-40.3-25.6
			c-16.1,0-30.2,8.6-38,21.4c-0.3,3-1.5,5.9-3.6,8.1c1.1,3.5,0.8,7.5-0.8,10.8c0.4,2.5,0.1,5.2-0.8,7.6c1.2,2,1.9,4.3,2.1,6.7H42
			c-0.8-3.2-1.2-6.5-1.2-10C40.8,60,59,41.8,81.3,41.8c22.3,0,40.5,18.2,40.5,40.5c0,3.4-0.4,6.8-1.2,10h1.6
			c0.2-0.9,0.4-1.7,0.7-2.6C122.3,87.1,122.5,84.3,123.4,81.8z"/>
		<path class="st1" d="M157.9,7.5c-0.2-0.1-0.3-0.1-0.5-0.1c-0.3,0-0.6,0.1-0.8,0.3c-11.3,9.9-17.8,24.2-17.8,39.3v41.8
			c0,2.1,0.6,4.2,1.7,6c0.5,0.8,1.1,1.5,1.7,2.2l7,7c0.4,0.4,0.6,0.9,0.6,1.4v48.8c0,2.4,2,4.4,4.4,4.4c2.4,0,4.4-2,4.4-4.4V8.6
			C158.6,8.1,158.3,7.7,157.9,7.5z"/>
		<path class="st3" d="M36.6,43.4c0.1-0.3-0.1-0.7-0.3-1c-0.2-0.3-0.6-0.4-0.9-0.4h-30c-0.3,0-0.7,0.2-0.9,0.4
			c-0.2,0.3-0.3,0.6-0.3,1C5,49.1,9.1,53.7,14.5,55.3c0.9,0.2,1.5,1,1.5,1.9v96.9c0,2.4,2,4.4,4.4,4.4c2.4,0,4.4-2,4.4-4.4V57.2
			c0-0.9,0.6-1.7,1.5-1.9c0.1,0,0.2-0.1,0.3-0.1C31.8,53.5,35.8,48.9,36.6,43.4z"/>
		<path class="st4" d="M81.3,36.7c-24.6,0-44.6,20-44.6,44.6c0,24.6,20,44.6,44.6,44.6s44.6-20,44.6-44.6
			C125.9,56.7,105.9,36.7,81.3,36.7z M81.3,121.8c-22.3,0-40.5-18.2-40.5-40.5C40.8,59,59,40.8,81.3,40.8
			c22.3,0,40.5,18.2,40.5,40.5C121.8,103.6,103.6,121.8,81.3,121.8z"/>
		<path class="st4" d="M161.5,0.2c-0.3-0.2-0.6-0.2-1-0.2c-0.4,0-0.8,0.1-1.1,0.3c-15.5,10.5-24.7,27.9-24.7,46.6v1.9
			c0,0.5-0.4,1-0.9,1.2c-0.1,0-0.2,0-0.3,0c-0.4,0-0.8-0.2-1-0.6c-2-3.2-4.4-6.3-6.9-9.1C114.2,28.1,98,21,81.3,21
			c-9.8,0-19.4,2.4-28,6.9c-3.7,2-7.3,4.3-10.5,7.1c-0.2,0.2-0.5,0.3-0.8,0.3c-0.2,0-0.3,0-0.5-0.1c-0.4-0.2-0.7-0.6-0.7-1.1V2
			c0-1.1-0.9-2-2-2c-1.1,0-2,0.9-2,2v34.8c0,0.7-0.5,1.2-1.2,1.2h-5.8c-0.7,0-1.2-0.5-1.2-1.2V2c0-1.1-0.9-2-2-2c-1.1,0-2,0.9-2,2
			l0,34.6c0,0.1,0,0.1,0,0.2c0,0.7-0.5,1.2-1.2,1.2h-5.8c-0.7,0-1.2-0.5-1.2-1.2V2c0-1.1-0.9-2-2-2c-1.1,0-2,0.9-2,2v34.8
			c0,0.7-0.5,1.2-1.2,1.2H5.2C4.6,38,4,37.5,4,36.8V2c0-1.1-0.9-2-2-2C0.9,0,0,0.9,0,2v39.3c0,7.4,4.4,14.1,11.2,17
			c0.4,0.2,0.7,0.6,0.7,1.1v94.7c0,4.7,3.8,8.5,8.5,8.5c4.7,0,8.5-3.8,8.5-8.5v-38.9c0-0.5,0.3-1,0.8-1.2c0.1,0,0.2,0,0.4,0
			c0.4,0,0.8,0.2,1,0.5c11.2,16.9,30,27,50.2,27c25.6,0,48.5-16.3,56.9-40.5c0.1-0.4,0.5-0.7,0.9-0.8c0.1,0,0.2,0,0.3,0
			c0.3,0,0.6,0.1,0.8,0.3l5.1,5.1c0.2,0.2,0.3,0.5,0.3,0.8v47.5c0,4.7,3.8,8.5,8.5,8.5c4.7,0,8.5-3.8,8.5-8.5V2
			C162.6,1.3,162.2,0.6,161.5,0.2z M26.6,55.2c-0.1,0-0.3,0.1-0.3,0.1c-0.9,0.2-1.4,1-1.4,1.9v96.9c0,2.4-2,4.4-4.4,4.4
			s-4.4-2-4.4-4.4V57.2c0-0.9-0.6-1.7-1.5-1.9C9.1,53.7,5,49.1,4.2,43.4c0-0.3,0.1-0.7,0.3-1c0.2-0.3,0.6-0.4,0.9-0.4h30
			c0.4,0,0.7,0.2,0.9,0.4c0.2,0.3,0.3,0.6,0.3,1C35.8,48.9,31.8,53.5,26.6,55.2z M135.6,94.6c-6.1,25.1-28.5,42.6-54.3,42.6
			c-23.2,0-44.2-14.6-52.4-36.3c-0.1-0.1-0.1-0.3-0.1-0.4v-41c0-0.5,0.3-0.9,0.7-1.1s0.9-0.4,1.3-0.6c5.5-2.9,9.1-8.3,9.8-14.4
			c0-0.3,0.1-0.5,0.3-0.7c10.7-11.1,25-17.2,40.3-17.2c24.5,0,46,15.8,53.3,39.2c0,0.1,0.1,0.2,0.1,0.4v23.8c0,1.8,0.3,3.5,0.9,5.1
			C135.7,94.1,135.7,94.3,135.6,94.6z M158.6,154.1c0,2.4-2,4.4-4.4,4.4s-4.4-2-4.4-4.4v-48.8c0-0.5-0.2-1.1-0.6-1.4l-7-7
			c-0.7-0.7-1.2-1.4-1.7-2.2c-1.1-1.8-1.7-3.9-1.7-6V46.9c0-15.1,6.5-29.4,17.8-39.3c0.2-0.2,0.5-0.3,0.8-0.3c0.2,0,0.3,0,0.5,0.1
			c0.4,0.2,0.7,0.6,0.7,1.1V154.1z"/>
		<path class="st4" d="M72.8,57.8c-0.2,0.5-0.6,0.9-1.1,1.1c-9,3.8-14.8,12.6-14.8,22.4c0,1.1-0.9,2-2,2c-1.1,0-2-0.9-2-2
			c0-11.4,6.8-21.7,17.3-26.2c0.2-0.1,0.5-0.2,0.8-0.2c0.8,0,1.5,0.5,1.9,1.2C73,56.7,73,57.3,72.8,57.8z"/>
		<path class="st4" d="M83.3,54.9c0,1.1-0.9,2-2,2h-0.1c-1.1,0-2-0.9-2-2c0-1.1,0.9-2,2-2h0.2C82.4,52.9,83.3,53.8,83.3,54.9z"/>
	</g>
</g>
</svg>
