<svg xmlns="http://www.w3.org/2000/svg" viewBox="0 0 512 512" xml:space="preserve"><circle style="fill:#273b7a" cx="256" cy="256" r="256"/><path style="fill:#121149" d="M512 256 384 128 128 384l128 128c141.384 0 256-114.616 256-256"/><path style="fill:#71e2ef" d="M128 128h95.246v95.246H128z"/><path style="fill:#71e2ef" d="m310.498 344.919 4.782-7.171L384 383.56V231.865h-66.801V256h-8.62v-56.889h8.62v24.135H384V128H231.865v103.865H128v76.714h95.246v-24.135h8.619v56.889h-8.619v-24.134H128V384h241.119z"/><path style="fill:#38c6d9" d="M384 223.246V128H257.15v256h111.969l-58.621-39.081 4.782-7.171L384 383.56V231.865h-66.801V256h-8.62v-56.889h8.62v24.135z"/></svg>