<?xml version="1.0" encoding="utf-8"?>
<!-- Generator: Adobe Illustrator 24.3.0, SVG Export Plug-In . SVG Version: 6.00 Build 0)  -->
<svg version="1.1" id="Layer_1" xmlns="http://www.w3.org/2000/svg" xmlns:xlink="http://www.w3.org/1999/xlink" x="0px" y="0px"
	 width="149.6px" height="137px" viewBox="0 0 149.6 137" style="enable-background:new 0 0 149.6 137;" xml:space="preserve">
<style type="text/css">
	.st0{fill:#00B0FB;}
	.st1{fill:#00B0FB;fill-opacity:0.4;}
	.st2{fill:#FFFFFF;}
	.st3{fill:none;}
</style>
<g>
	<path class="st0" d="M14.6,95.3H17v0.5h0.2v2.1h14.5V96h-6c-3.6,0-6.5-2.9-6.5-6.5v-18c0-3.6,2.9-6.5,6.5-6.5h6v-3.5H20.1
		c-3.5,2-5.8,5.7-5.8,10v18c0,1.3,0.2,2.6,0.7,3.8c0.2,0.6,0.1,1.3-0.2,1.8C14.7,95.2,14.6,95.3,14.6,95.3z"/>
	<path class="st0" d="M108.9,27.3l-33.5,7.6C75.2,35,75,35,74.8,35s-0.4,0-0.6-0.1l-33.5-7.6c-0.1,0-0.3,0-0.4,0
		c-0.5,0-0.9,0.2-1.2,0.4c-0.5,0.4-0.8,1-0.8,1.6V58c0,1.1,0.9,2,2,2h69c1.1,0,2-0.9,2-2V29.3c0-0.6-0.3-1.2-0.8-1.6
		c-0.4-0.3-0.8-0.4-1.2-0.4C109.2,27.3,109,27.3,108.9,27.3z"/>
	<path class="st0" d="M74.8,29.9c0.1,0,0.3,0,0.4,0l45.7-10.4c0.9-0.2,1.6-1,1.6-2s-0.6-1.7-1.6-2L75.2,5.2c-0.1,0-0.3,0-0.4,0
		s-0.3,0-0.4,0L28.7,15.5c-0.9,0.2-1.6,1-1.6,2s0.6,1.7,1.6,2l45.7,10.4C74.5,29.9,74.7,29.9,74.8,29.9z"/>
	<path class="st1" d="M133.6,101H11.5c-3.6,0-6.5,2.9-6.5,6.5v18c0,3.6,2.9,6.5,6.5,6.5h122.1c1.1,0,2-0.9,2-2v-9c0-1.1-0.9-2-2-2
		H20.5c-1.4,0-2.5-1.1-2.5-2.5s1.1-2.5,2.5-2.5h113.1c1.1,0,2-0.9,2-2v-9C135.6,101.9,134.7,101,133.6,101z"/>
	<path class="st2" d="M147.1,132h-4.5c-1.1,0-2-0.9-2-2v-27c0-1.1,0.9-2,2-2h4.5c1.4,0,2.5-1.1,2.5-2.5s-1.1-2.5-2.5-2.5h-16.8
		c-1.1,0-2-0.9-2-2V67c0-1.1,0.9-2,2-2h4.5c1.4,0,2.5-1.1,2.5-2.5s-1.1-2.5-2.5-2.5h-16.5c-1.1,0-2-0.9-2-2V27.2
		c0-0.9,0.6-1.7,1.6-1.9l23.5-5.3c1.2-0.3,1.9-1.3,1.9-2.4s-0.8-2.2-1.9-2.4l-66-15C75.2,0,75,0,74.8,0c-0.2,0-0.4,0-0.5,0.1l-66,15
		L8,15.1c-0.1,0-0.1,0-0.2,0.1c0,0-0.2,0.1-0.2,0.1l-0.3,0.2l-0.2,0.1L7,15.8c0,0-0.1,0.1-0.2,0.2c0,0-0.1,0.1-0.1,0.2
		c0,0.1-0.1,0.1-0.1,0.2l-0.1,0.2l-0.1,0.2l0,0.1L6.3,17l0,0.2c0,0.1,0,0.1,0,0.2v27c0,1.4,1.1,2.5,2.5,2.5c1.4,0,2.5-1.1,2.5-2.5
		V23.1c0-0.6,0.3-1.2,0.8-1.6c0.4-0.3,0.8-0.4,1.2-0.4c0.2,0,0.3,0,0.4,0l18,4.1c0.9,0.2,1.6,1,1.6,1.9V58c0,1.1-0.9,2-2,2h-7.5
		c-6.3,0-11.5,5.2-11.5,11.5v18c0,1.3,0.2,2.6,0.7,3.8c0.2,0.6,0.1,1.3-0.2,1.8c-0.4,0.5-1,0.8-1.6,0.9C5,96.2,0,101.3,0,107.5v18
		c0,6.3,5.2,11.5,11.5,11.5h135.6c1.4,0,2.5-1.1,2.5-2.5S148.5,132,147.1,132z M28.7,19.5c-0.9-0.2-1.6-1-1.6-2s0.6-1.7,1.6-2
		L74.4,5.2c0.1,0,0.3,0,0.4,0c0.2,0,0.3,0,0.4,0l45.7,10.4c0.9,0.2,1.6,1,1.6,2s-0.6,1.7-1.6,2L75.2,29.8c-0.1,0-0.3,0-0.4,0
		c-0.1,0-0.3,0-0.4,0L28.7,19.5z M111.3,29.3V58c0,1.1-0.9,2-2,2h-69c-1.1,0-2-0.9-2-2V29.3c0-0.6,0.3-1.2,0.8-1.6
		c0.4-0.3,0.8-0.4,1.2-0.4c0.2,0,0.3,0,0.4,0l33.5,7.6c0.2,0,0.4,0.1,0.6,0.1c0.2,0,0.4,0,0.6-0.1l33.5-7.6c0.1,0,0.3,0,0.4,0
		c0.5,0,0.9,0.2,1.2,0.4C111,28.1,111.3,28.7,111.3,29.3z M17.3,71.5c0-3.6,2.9-6.5,6.5-6.5h97.5c1.1,0,2,0.9,2,2v9c0,1.1-0.9,2-2,2
		H32.8c-1.4,0-2.5,1.1-2.5,2.5s1.1,2.5,2.5,2.5h88.5c1.1,0,2,0.9,2,2v9c0,1.1-0.9,2-2,2H23.8c-3.6,0-6.5-2.9-6.5-6.5V71.5z
		 M135.6,112c0,1.1-0.9,2-2,2H20.5c-1.4,0-2.5,1.1-2.5,2.5s1.1,2.5,2.5,2.5h113.1c1.1,0,2,0.9,2,2v9c0,1.1-0.9,2-2,2H11.5
		c-3.6,0-6.5-2.9-6.5-6.5v-18c0-3.6,2.9-6.5,6.5-6.5h122.1c1.1,0,2,0.9,2,2V112z"/>
</g>
</svg>
