<?xml version="1.0" encoding="utf-8"?>
<!-- Generator: Adobe Illustrator 25.0.0, SVG Export Plug-In . SVG Version: 6.00 Build 0)  -->
<svg version="1.1" id="Layer_1" xmlns="http://www.w3.org/2000/svg" xmlns:xlink="http://www.w3.org/1999/xlink" x="0px" y="0px"
	 viewBox="0 0 114.08 116" style="enable-background:new 0 0 114.08 116;" xml:space="preserve">
<style type="text/css">
	.st0{fill:#185AE9;}
	.st1{fill:#00B0FB;}
	.st2{fill:#00B0FB;fill-opacity:0.4;}
	.st3{fill:#FFFFFF;}
	.st4{fill:#3C7CFF;}
	.st5{fill:#3C7CFF;stroke:#001135;stroke-width:0.7602;stroke-miterlimit:10;}
	.st6{fill:#001135;}
</style>
<g>
	<path class="st3" d="M43.22,94.14c0.42,0,0.84-0.11,1.2-0.32c0.56-0.31,0.96-0.83,1.13-1.45c0.17-0.63,0.08-1.28-0.24-1.84
		l-3.82-6.56c-0.09-0.15-0.25-0.25-0.43-0.25h-0.15c-0.09,0-0.17,0.02-0.25,0.07l-3.18,1.82c-0.12,0.07-0.2,0.17-0.23,0.3
		c-0.04,0.13-0.02,0.27,0.05,0.38l3.84,6.66C41.56,93.69,42.36,94.14,43.22,94.14z"/>
	<path class="st3" d="M108.83,4.75H85.81c-1.33,0-2.42,1.08-2.42,2.42v23.02c0,1.33,1.08,2.42,2.42,2.42h23.02
		c1.33,0,2.42-1.08,2.42-2.42V7.17C111.25,5.84,110.16,4.75,108.83,4.75z M103.07,12.43h-3.84c-1.33,0-2.42,1.08-2.42,2.42v1.92
		c0,0.28,0.22,0.5,0.5,0.5h1.92c0.78,0,1.42,0.64,1.42,1.42s-0.64,1.42-1.42,1.42h-1.92c-0.28,0-0.5,0.22-0.5,0.5v5.75
		c0,0.78-0.64,1.42-1.42,1.42s-1.42-0.64-1.42-1.42V20.6c0-0.28-0.22-0.5-0.5-0.5h-1.92c-0.78,0-1.42-0.64-1.42-1.42
		s0.64-1.42,1.42-1.42h1.92c0.28,0,0.5-0.22,0.5-0.5v-1.92c0-2.9,2.36-5.25,5.25-5.25h3.84c0.78,0,1.42,0.64,1.42,1.42
		S103.86,12.43,103.07,12.43z"/>
	<path class="st3" d="M62.04,54.3c0-0.01-0.04-0.1-0.05-0.11l-4.52-7.91c-0.07-0.13-0.2-0.22-0.34-0.24c-0.03,0-0.06-0.01-0.09-0.01
		c-0.12,0-0.23,0.04-0.32,0.11L32.65,66c-0.19,0.16-0.24,0.42-0.11,0.64l4.95,8.55c0.12,0.22,0.19,0.46,0.19,0.71
		c0,0.78-0.64,1.41-1.42,1.41c-0.52,0-0.99-0.27-1.24-0.71l-4.79-8.31c-0.07-0.12-0.17-0.2-0.3-0.23c-0.04-0.01-0.09-0.02-0.13-0.02
		c-0.09,0-0.17,0.02-0.25,0.07l-6.64,3.84c-1.97,1.18-2.69,3.69-1.63,5.73l3.85,6.66c0.58,1,1.51,1.72,2.62,2.02
		c0.37,0.1,0.75,0.15,1.13,0.15c0.76,0,1.51-0.2,2.17-0.58l8.19-4.73h0.15c0.06,0,0.12-0.01,0.18-0.03l30.69-11.51
		c0.14-0.05,0.25-0.16,0.29-0.3c0.05-0.14,0.04-0.29-0.04-0.42L62.04,54.3z"/>
	<path class="st3" d="M97.32,73.8c-2.39,0-4.34,1.95-4.34,4.34c0,2.39,1.95,4.34,4.34,4.34c2.39,0,4.34-1.95,4.34-4.34
		C101.66,75.75,99.71,73.8,97.32,73.8z"/>
	<path class="st3" d="M108.83,64.21H85.81c-1.33,0-2.42,1.08-2.42,2.42v23.02c0,1.33,1.08,2.42,2.42,2.42h23.02
		c1.33,0,2.42-1.08,2.42-2.42V66.63C111.25,65.3,110.16,64.21,108.83,64.21z M97.32,85.31c-3.95,0-7.17-3.22-7.17-7.17
		c0-3.96,3.22-7.17,7.17-7.17c3.96,0,7.17,3.22,7.17,7.17C104.49,82.09,101.27,85.31,97.32,85.31z"/>
	<path class="st6" d="M3.34,49.87h19.18c0.28,0,0.5-0.22,0.5-0.5V22.52c0-0.28-0.22-0.5-0.5-0.5H3.34c-0.28,0-0.5,0.22-0.5,0.5
		v26.85C2.84,49.65,3.06,49.87,3.34,49.87z M12.93,26.85h3.84c0.78,0,1.42,0.64,1.42,1.42s-0.64,1.42-1.42,1.42h-3.84
		c-0.78,0-1.42-0.64-1.42-1.42S12.14,26.85,12.93,26.85z M9.09,34.52h7.67c0.78,0,1.42,0.64,1.42,1.42s-0.64,1.42-1.42,1.42H9.09
		c-0.78,0-1.42-0.64-1.42-1.42S8.31,34.52,9.09,34.52z M9.09,42.2h7.67c0.78,0,1.42,0.64,1.42,1.42s-0.64,1.42-1.42,1.42H9.09
		c-0.78,0-1.42-0.64-1.42-1.42S8.31,42.2,9.09,42.2z"/>
	<path class="st3" d="M19.14,80.7l-1.67,0.96c-0.56,0.32-0.97,0.85-1.14,1.48c-0.17,0.61-0.08,1.28,0.24,1.84
		c0.33,0.56,0.85,0.95,1.48,1.12c0.2,0.05,0.41,0.08,0.62,0.08c0.42,0,0.84-0.11,1.21-0.33l1.67-0.96c0.12-0.07,0.2-0.18,0.23-0.3
		c0.04-0.13,0.02-0.26-0.05-0.38l-1.92-3.32c-0.09-0.16-0.26-0.25-0.43-0.25C19.3,80.63,19.22,80.65,19.14,80.7z"/>
	<path class="st4" d="M47.45,30.69c7.68,0,13.93-6.25,13.93-13.93c0-7.68-6.25-13.93-13.93-13.93c-7.68,0-13.93,6.25-13.93,13.93
		C33.52,24.44,39.77,30.69,47.45,30.69z M42.2,11.01c0-0.22,0.05-0.44,0.15-0.63c0.24-0.48,0.73-0.78,1.27-0.78
		c0.22,0,0.44,0.05,0.64,0.15l11.51,5.75c0.26,0.13,0.48,0.35,0.61,0.61c0.36,0.7,0.08,1.55-0.62,1.91l-11.5,5.75
		c-0.2,0.1-0.42,0.16-0.64,0.16h0c-0.27,0-0.52-0.07-0.75-0.21c-0.42-0.26-0.67-0.71-0.67-1.2V11.01z"/>
	<path class="st3" d="M45.53,19.91c0.08,0,0.15-0.02,0.22-0.05l5.29-2.65c0.17-0.08,0.28-0.26,0.28-0.45s-0.11-0.36-0.28-0.45
		l-5.29-2.65c-0.07-0.04-0.15-0.05-0.22-0.05c-0.09,0-0.18,0.03-0.26,0.07c-0.15,0.09-0.24,0.25-0.24,0.43v5.29
		c0,0.17,0.09,0.33,0.24,0.43C45.35,19.88,45.44,19.91,45.53,19.91z"/>
	<path class="st4" d="M9.09,101.66h49.87c0.28,0,0.5-0.22,0.5-0.5V77.4c0-0.16-0.08-0.32-0.21-0.41c-0.08-0.06-0.18-0.09-0.29-0.09
		c-0.06,0-0.12,0.01-0.18,0.03l-14.23,5.34c-0.14,0.05-0.25,0.16-0.29,0.3c-0.05,0.14-0.04,0.29,0.04,0.42c0,0,3.5,6.1,3.51,6.11
		c1.42,2.53,0.55,5.72-1.94,7.15c-0.79,0.46-1.7,0.7-2.61,0.7c-1.87,0-3.62-1.01-4.55-2.62l-3.83-6.66
		c-0.09-0.16-0.26-0.25-0.43-0.25c-0.08,0-0.17,0.02-0.25,0.07l-1.67,0.96c-1.08,0.63-2.32,0.97-3.57,0.97c0,0,0,0,0,0
		c-0.69,0-1.3-0.08-1.89-0.25c-1.19-0.33-2.27-0.97-3.13-1.86c-0.1-0.1-0.23-0.15-0.36-0.15c-0.08,0-0.17,0.02-0.25,0.07l-1.92,1.09
		c-0.8,0.46-1.71,0.7-2.63,0.7c-0.47,0-0.93-0.06-1.37-0.18c-1.34-0.36-2.51-1.25-3.2-2.46c-0.7-1.22-0.88-2.63-0.52-3.99
		c0.37-1.35,1.24-2.49,2.46-3.18l1.92-1.09c0.2-0.11,0.29-0.35,0.23-0.57c-0.88-3.14,0.48-6.48,3.3-8.12l8.17-4.72l1.86-1.52
		c0.16-0.13,0.22-0.36,0.15-0.55s-0.26-0.33-0.47-0.33H9.09c-0.28,0-0.5,0.22-0.5,0.5v38.36C8.59,101.43,8.81,101.66,9.09,101.66z"
		/>
	<path class="st6" d="M2.84,104.99v1.92c0,3.45,2.81,6.25,6.25,6.25h3.84c0.28,0,0.5-0.22,0.5-0.5v-1.92c0-0.78,0.64-1.42,1.42-1.42
		s1.42,0.64,1.42,1.42v1.92c0,0.28,0.22,0.5,0.5,0.5h34.52c0.28,0,0.5-0.22,0.5-0.5v-1.92c0-0.78,0.64-1.42,1.42-1.42
		s1.42,0.64,1.42,1.42v1.92c0,0.28,0.22,0.5,0.5,0.5h3.84c3.45,0,6.25-2.81,6.25-6.25v-1.92c0-0.28-0.22-0.5-0.5-0.5H3.34
		C3.06,104.49,2.84,104.72,2.84,104.99z"/>
	<path class="st6" d="M103.07,9.59h-3.84c-2.9,0-5.25,2.36-5.25,5.25v1.92c0,0.28-0.22,0.5-0.5,0.5h-1.92
		c-0.78,0-1.42,0.64-1.42,1.42s0.64,1.42,1.42,1.42h1.92c0.28,0,0.5,0.22,0.5,0.5v5.75c0,0.78,0.64,1.42,1.42,1.42
		s1.42-0.64,1.42-1.42V20.6c0-0.28,0.22-0.5,0.5-0.5h1.92c0.78,0,1.42-0.64,1.42-1.42s-0.64-1.42-1.42-1.42h-1.92
		c-0.28,0-0.5-0.22-0.5-0.5v-1.92c0-1.33,1.08-2.42,2.42-2.42h3.84c0.78,0,1.42-0.64,1.42-1.42S103.86,9.59,103.07,9.59z"/>
	<path class="st6" d="M108.83,1.92H85.81c-2.9,0-5.25,2.36-5.25,5.25v23.02c0,2.9,2.36,5.25,5.25,5.25h23.02
		c2.9,0,5.25-2.36,5.25-5.25V7.17C114.08,4.27,111.73,1.92,108.83,1.92z M111.25,30.19c0,1.33-1.08,2.42-2.42,2.42H85.81
		c-1.33,0-2.42-1.08-2.42-2.42V7.17c0-1.33,1.08-2.42,2.42-2.42h23.02c1.33,0,2.42,1.08,2.42,2.42V30.19z"/>
	<path class="st6" d="M97.32,70.97c-3.95,0-7.17,3.22-7.17,7.17c0,3.95,3.22,7.17,7.17,7.17c3.96,0,7.17-3.22,7.17-7.17
		C104.49,74.18,101.27,70.97,97.32,70.97z M97.32,82.48c-2.39,0-4.34-1.95-4.34-4.34c0-2.39,1.95-4.34,4.34-4.34
		c2.39,0,4.34,1.95,4.34,4.34C101.66,80.53,99.71,82.48,97.32,82.48z"/>
	<path class="st6" d="M42.86,23.72c0.22,0.14,0.48,0.21,0.75,0.21h0c0.22,0,0.44-0.06,0.64-0.16l11.5-5.75
		c0.7-0.36,0.97-1.21,0.62-1.91c-0.14-0.27-0.35-0.48-0.61-0.61L44.25,9.75c-0.2-0.1-0.41-0.15-0.64-0.15
		c-0.54,0-1.03,0.3-1.27,0.78c-0.1,0.2-0.15,0.42-0.15,0.63v11.51C42.2,23.01,42.45,23.46,42.86,23.72z M45.03,14.12
		c0-0.17,0.09-0.33,0.24-0.43c0.08-0.05,0.17-0.07,0.26-0.07c0.08,0,0.15,0.02,0.22,0.05l5.29,2.65c0.17,0.08,0.28,0.26,0.28,0.45
		s-0.11,0.36-0.28,0.45l-5.29,2.65c-0.07,0.04-0.15,0.05-0.22,0.05c-0.09,0-0.18-0.03-0.26-0.07c-0.15-0.09-0.24-0.25-0.24-0.43
		V14.12z"/>
	<path class="st6" d="M108.83,61.38H85.81c-2.9,0-5.25,2.36-5.25,5.25v23.02c0,2.9,2.36,5.25,5.25,5.25h23.02
		c2.9,0,5.25-2.36,5.25-5.25V66.63C114.08,63.73,111.73,61.38,108.83,61.38z M111.25,89.65c0,1.33-1.08,2.42-2.42,2.42H85.81
		c-1.33,0-2.42-1.08-2.42-2.42V66.63c0-1.33,1.08-2.42,2.42-2.42h23.02c1.33,0,2.42,1.08,2.42,2.42V89.65z"/>
	<path class="st6" d="M71.25,48.3c0.27,0.36,0.69,0.57,1.14,0.57c0.3,0,0.61-0.1,0.85-0.28l7.67-5.75c0.62-0.47,0.75-1.36,0.28-1.99
		c-0.27-0.36-0.68-0.57-1.14-0.57c-0.31,0-0.6,0.1-0.85,0.28l-7.67,5.75C70.91,46.79,70.78,47.68,71.25,48.3z"/>
	<path class="st6" d="M47.45,33.52c9.24,0,16.76-7.52,16.76-16.76C64.21,7.52,56.69,0,47.45,0S30.69,7.52,30.69,16.76
		C30.69,26,38.21,33.52,47.45,33.52z M47.45,2.84c7.68,0,13.93,6.25,13.93,13.93c0,7.68-6.25,13.93-13.93,13.93
		c-7.68,0-13.93-6.25-13.93-13.93C33.52,9.08,39.77,2.84,47.45,2.84z"/>
	<path class="st6" d="M89.16,52.91c-0.12-0.68-0.71-1.17-1.39-1.17c-0.08,0-0.17,0.01-0.32,0.04l-9.64,1.92
		c-0.38,0.04-0.72,0.22-0.96,0.52s-0.35,0.67-0.32,1.05c0.07,0.73,0.68,1.29,1.42,1.29c0.05,0,0.1,0,0.19-0.01l0.29,0.01l9.6-1.92
		C88.79,54.49,89.31,53.75,89.16,52.91z"/>
	<path class="st6" d="M66.63,41.2c0.44,0,0.87-0.21,1.13-0.57l5.75-7.67c0.47-0.63,0.34-1.52-0.29-1.99
		c-0.25-0.19-0.54-0.28-0.85-0.28c-0.45,0-0.87,0.21-1.13,0.57l-5.75,7.67c-0.47,0.63-0.34,1.52,0.28,1.99
		C66.03,41.1,66.32,41.2,66.63,41.2z"/>
	<path class="st6" d="M1.42,52.71h23.02c0.78,0,1.42-0.64,1.42-1.42V20.6c0-0.78-0.64-1.42-1.42-1.42H1.42
		C0.64,19.18,0,19.82,0,20.6v30.69C0,52.07,0.64,52.71,1.42,52.71z M2.84,22.52c0-0.28,0.22-0.5,0.5-0.5h19.18
		c0.28,0,0.5,0.22,0.5,0.5v26.85c0,0.28-0.22,0.5-0.5,0.5H3.34c-0.28,0-0.5-0.22-0.5-0.5V22.52z"/>
	<path class="st6" d="M65.68,54.91l-4.95-8.68l-1.92-3.32c-0.21-0.36-0.57-0.61-0.98-0.68c-0.09-0.02-0.18-0.02-0.26-0.02
		c-0.33,0-0.65,0.11-0.9,0.32L36.26,59.34c-0.09,0.07-0.2,0.11-0.32,0.11H7.17c-0.78,0-1.42,0.64-1.42,1.42v40.28
		c0,0.28-0.22,0.5-0.5,0.5H1.42c-0.78,0-1.42,0.64-1.42,1.42v3.84c0,5.01,4.08,9.09,9.09,9.09h49.87c5.01,0,9.09-4.08,9.09-9.09
		v-3.84c0-0.78-0.64-1.42-1.42-1.42H62.8c-0.28,0-0.5-0.22-0.5-0.5v-25.2c0-0.21,0.13-0.39,0.32-0.47l10.7-4.02
		c0.39-0.15,0.7-0.46,0.84-0.85c0.14-0.39,0.1-0.82-0.1-1.17L65.68,54.91z M8.59,62.79c0-0.28,0.22-0.5,0.5-0.5h22.2
		c0.21,0,0.4,0.13,0.47,0.33s0.01,0.42-0.15,0.55l-1.86,1.52l-8.17,4.72c-2.82,1.64-4.17,4.98-3.3,8.12
		c0.06,0.22-0.04,0.46-0.23,0.57l-1.92,1.09c-1.22,0.7-2.09,1.83-2.46,3.18c-0.37,1.35-0.18,2.77,0.52,3.99
		c0.69,1.2,1.86,2.1,3.2,2.46c0.44,0.12,0.89,0.18,1.37,0.18c0.92,0,1.83-0.25,2.63-0.7l1.92-1.09c0.08-0.04,0.16-0.07,0.25-0.07
		c0.13,0,0.26,0.05,0.36,0.15c0.86,0.89,1.94,1.53,3.13,1.86c0.59,0.17,1.2,0.25,1.89,0.25c0,0,0,0,0,0c1.25,0,2.49-0.33,3.57-0.97
		l1.67-0.96c0.08-0.04,0.16-0.07,0.25-0.07c0.17,0,0.34,0.09,0.43,0.25l3.83,6.66c0.94,1.62,2.68,2.62,4.55,2.62
		c0.91,0,1.81-0.24,2.61-0.7c2.5-1.44,3.37-4.63,1.94-7.15c-0.01-0.01-3.51-6.11-3.51-6.11c-0.07-0.13-0.09-0.28-0.04-0.42
		c0.05-0.14,0.16-0.25,0.29-0.3l14.23-5.34c0.06-0.02,0.12-0.03,0.18-0.03c0.1,0,0.2,0.03,0.29,0.09c0.13,0.09,0.21,0.25,0.21,0.41
		v23.76c0,0.28-0.22,0.5-0.5,0.5H9.09c-0.28,0-0.5-0.22-0.5-0.5V62.79z M19.82,80.88l1.92,3.32c0.07,0.12,0.08,0.25,0.05,0.38
		c-0.03,0.13-0.12,0.24-0.23,0.3l-1.67,0.96c-0.37,0.21-0.79,0.33-1.21,0.33c-0.21,0-0.42-0.03-0.62-0.08
		c-0.62-0.16-1.15-0.56-1.48-1.12c-0.32-0.55-0.41-1.22-0.24-1.84c0.17-0.63,0.57-1.15,1.14-1.48l1.67-0.96
		c0.08-0.04,0.16-0.07,0.25-0.07C19.56,80.63,19.73,80.72,19.82,80.88z M37.24,85.91c0.03-0.13,0.12-0.24,0.23-0.3l3.18-1.82
		c0.08-0.04,0.16-0.07,0.25-0.07h0.15c0.18,0,0.34,0.09,0.43,0.25l3.82,6.56c0.32,0.56,0.41,1.21,0.24,1.84
		c-0.17,0.62-0.58,1.14-1.13,1.45c-0.37,0.21-0.78,0.32-1.2,0.32c-0.85,0-1.65-0.46-2.09-1.2l-3.84-6.66
		C37.23,86.18,37.21,86.04,37.24,85.91z M64.71,104.49c0.28,0,0.5,0.22,0.5,0.5v1.92c0,3.45-2.81,6.25-6.25,6.25h-3.84
		c-0.28,0-0.5-0.22-0.5-0.5v-1.92c0-0.78-0.64-1.42-1.42-1.42s-1.42,0.64-1.42,1.42v1.92c0,0.28-0.22,0.5-0.5,0.5H16.76
		c-0.28,0-0.5-0.22-0.5-0.5v-1.92c0-0.78-0.64-1.42-1.42-1.42s-1.42,0.64-1.42,1.42v1.92c0,0.28-0.22,0.5-0.5,0.5H9.09
		c-3.45,0-6.25-2.81-6.25-6.25v-1.92c0-0.28,0.22-0.5,0.5-0.5H64.71z M70.54,69.35c-0.05,0.14-0.16,0.25-0.29,0.3L39.55,81.16
		c-0.06,0.02-0.12,0.03-0.18,0.03h-0.15l-8.19,4.73c-0.66,0.38-1.41,0.58-2.17,0.58c-0.38,0-0.76-0.05-1.13-0.15
		c-1.11-0.3-2.04-1.02-2.62-2.02l-3.85-6.66c-1.06-2.04-0.34-4.55,1.63-5.73l6.64-3.84c0.08-0.04,0.16-0.07,0.25-0.07
		c0.04,0,0.09,0.01,0.13,0.02c0.13,0.04,0.24,0.12,0.3,0.23l4.79,8.31c0.25,0.44,0.72,0.71,1.24,0.71c0.78,0,1.42-0.63,1.42-1.41
		c0-0.25-0.06-0.5-0.19-0.71l-4.95-8.55c-0.12-0.21-0.07-0.48,0.11-0.64l24.07-19.85c0.09-0.07,0.2-0.11,0.32-0.11
		c0.03,0,0.06,0,0.09,0.01c0.15,0.03,0.27,0.12,0.34,0.24l4.52,7.91c0.01,0.01,0.04,0.1,0.05,0.11l8.46,14.63
		C70.57,69.06,70.58,69.21,70.54,69.35z"/>
	<path class="st3" d="M9.09,45.03h7.67c0.78,0,1.42-0.64,1.42-1.42s-0.64-1.42-1.42-1.42H9.09c-0.78,0-1.42,0.64-1.42,1.42
		S8.31,45.03,9.09,45.03z"/>
	<path class="st3" d="M9.09,37.36h7.67c0.78,0,1.42-0.64,1.42-1.42s-0.64-1.42-1.42-1.42H9.09c-0.78,0-1.42,0.64-1.42,1.42
		S8.31,37.36,9.09,37.36z"/>
	<path class="st3" d="M12.93,29.69h3.84c0.78,0,1.42-0.64,1.42-1.42s-0.64-1.42-1.42-1.42h-3.84c-0.78,0-1.42,0.64-1.42,1.42
		S12.14,29.69,12.93,29.69z"/>
</g>
</svg>
