<?xml version="1.0" encoding="utf-8"?>
<!-- Generator: Adobe Illustrator 25.0.0, SVG Export Plug-In . SVG Version: 6.00 Build 0)  -->
<svg version="1.1" id="Layer_1" xmlns="http://www.w3.org/2000/svg" xmlns:xlink="http://www.w3.org/1999/xlink" x="0px" y="0px"
	 viewBox="0 0 177.32 141.03" style="enable-background:new 0 0 177.32 141.03;" xml:space="preserve">
<style type="text/css">
	.st0{fill:#185AE9;}
	.st1{fill:#00B0FB;}
	.st2{fill:#00B0FB;fill-opacity:0.4;}
	.st3{fill:#FFFFFF;}
	.st4{fill:#001135;}
	.st5{fill:#3C7CFF;}
	.st6{fill-rule:evenodd;clip-rule:evenodd;fill:#252F3E;}
	.st7{fill-rule:evenodd;clip-rule:evenodd;fill:#FF9900;}
	.st8{fill:#8D3124;}
	.st9{fill:#E05244;}
	.st10{fill:#F7ADAE;}
	.st11{fill:#5B1E19;}
	.st12{fill:#F58436;}
	.st13{fill:#9D5026;}
	.st14{fill:#1A476F;}
	.st15{fill:#1F5B98;}
	.st16{fill:#2D72B8;}
	.st17{fill:#5294CF;}
	.st18{fill:#FF9900;}
	.st19{fill:#252F3E;}
	.st20{fill:#FDFDFD;}
	.st21{fill:#DBDBDB;}
	.st22{fill:#040404;}
	.st23{fill:#0C0C0C;}
	.st24{fill:#010101;}
	.st25{fill:#D9D9D9;}
	.st26{fill:#DCDCDC;}
	.st27{fill:#D7D7D7;}
	.st28{fill:#D8D8D8;}
	.st29{fill:#111111;}
	.st30{fill:#050505;}
	.st31{fill:#070707;}
	.st32{fill:#060606;}
	.st33{fill:#030303;}
	.st34{fill:#020202;}
	.st35{fill:#151515;}
	.st36{fill:#0F0F0F;}
	.st37{fill:#606060;}
	.st38{fill:#FCFCFC;}
	.st39{fill:#0A0A0A;}
	.st40{fill:#191919;}
	.st41{fill:#0D0D0D;}
	.st42{fill:#101010;}
	.st43{fill:#090909;}
	.st44{fill:#161616;}
	.st45{fill:#080808;}
	.st46{fill-rule:evenodd;clip-rule:evenodd;fill:#00B0FB;}
	.st47{fill:#00769D;}
	.st48{fill:#8DB849;}
	.st49{fill:#5A863E;}
	.st50{fill:#FFFFFE;}
	.st51{fill:#7F54B3;}
	.st52{fill:#F26322;}
</style>
<path class="st3" d="M112.86,28.17c-3.34-3.34-8.76-3.34-12.1,0L46.32,82.61c-6.68,6.68-17.52,6.68-24.2,0
	c-6.69-6.68-6.69-17.51,0-24.2L75.52,5.02c-6.68-6.68-17.52-6.68-24.2,0l-41.3,41.3c-13.36,13.36-13.36,35.03,0,48.39
	c13.36,13.36,35.03,13.36,48.39,0l54.44-54.44C116.2,36.93,116.2,31.51,112.86,28.17L112.86,28.17z M131,10.02
	c-13.36-13.37-35.03-13.37-48.39,0L28.17,64.46c-3.34,3.34-3.34,8.76,0,12.1c3.34,3.34,8.76,3.34,12.1,0l54.44-54.44
	c6.68-6.68,17.51-6.68,24.19,0c3.34,3.34,8.76,3.34,12.1,0C134.35,18.78,134.35,13.37,131,10.02L131,10.02z M149.15,64.46
	c-3.34-3.34-8.76-3.34-12.1,0l-54.44,54.44c-6.68,6.68-17.52,6.68-24.2,0c-3.34-3.34-8.75-3.34-12.1,0c-3.35,3.34-3.35,8.76,0,12.1
	c13.36,13.36,35.03,13.36,48.39,0l54.44-54.44C152.49,73.22,152.49,67.8,149.15,64.46L149.15,64.46z M167.3,46.32
	c-13.36-13.36-35.03-13.36-48.39,0l-54.44,54.44c-3.34,3.34-3.34,8.76,0,12.1c3.34,3.34,8.76,3.34,12.1,0L131,58.42
	c6.68-6.68,17.52-6.68,24.2,0c6.68,6.68,6.68,17.51,0,24.2l-53.39,53.39c6.68,6.68,17.51,6.68,24.2,0l41.3-41.3
	C180.66,81.34,180.66,59.68,167.3,46.32L167.3,46.32z"/>
</svg>
