<?xml version="1.0" encoding="utf-8"?>
<!-- Generator: Adobe Illustrator 25.0.0, SVG Export Plug-In . SVG Version: 6.00 Build 0)  -->
<svg version="1.1" id="Layer_1" xmlns="http://www.w3.org/2000/svg" xmlns:xlink="http://www.w3.org/1999/xlink" x="0px" y="0px"
	 viewBox="0 0 371.71 144.66" style="enable-background:new 0 0 371.71 144.66;" xml:space="preserve">
<style type="text/css">
	.st0{fill:#185AE9;}
	.st1{fill:#00B0FB;}
	.st2{fill:#00B0FB;fill-opacity:0.4;}
	.st3{fill:#FFFFFF;}
	.st4{fill:#001135;}
	.st5{fill:#3C7CFF;}
	.st6{fill-rule:evenodd;clip-rule:evenodd;fill:#252F3E;}
	.st7{fill-rule:evenodd;clip-rule:evenodd;fill:#FF9900;}
	.st8{fill:#8D3124;}
	.st9{fill:#E05244;}
	.st10{fill:#F7ADAE;}
	.st11{fill:#5B1E19;}
	.st12{fill:#F58436;}
	.st13{fill:#9D5026;}
	.st14{fill:#1A476F;}
	.st15{fill:#1F5B98;}
	.st16{fill:#2D72B8;}
	.st17{fill:#5294CF;}
	.st18{fill:#FF9900;}
	.st19{fill:#252F3E;}
	.st20{fill:#FDFDFD;}
	.st21{fill:#DBDBDB;}
	.st22{fill:#040404;}
	.st23{fill:#0C0C0C;}
	.st24{fill:#010101;}
	.st25{fill:#D9D9D9;}
	.st26{fill:#DCDCDC;}
	.st27{fill:#D7D7D7;}
	.st28{fill:#D8D8D8;}
	.st29{fill:#111111;}
	.st30{fill:#050505;}
	.st31{fill:#070707;}
	.st32{fill:#060606;}
	.st33{fill:#030303;}
	.st34{fill:#020202;}
	.st35{fill:#151515;}
	.st36{fill:#0F0F0F;}
	.st37{fill:#606060;}
	.st38{fill:#FCFCFC;}
	.st39{fill:#0A0A0A;}
	.st40{fill:#191919;}
	.st41{fill:#0D0D0D;}
	.st42{fill:#101010;}
	.st43{fill:#090909;}
	.st44{fill:#161616;}
	.st45{fill:#080808;}
	.st46{fill-rule:evenodd;clip-rule:evenodd;fill:#00B0FB;}
	.st47{fill:#00769D;}
	.st48{fill:#8DB849;}
	.st49{fill:#5A863E;}
	.st50{fill:#FFFFFE;}
	.st51{fill:#7F54B3;}
	.st52{fill:#F26322;}
</style>
<path class="st3" d="M212.66,2.77c-7.43,3.94-10.1,10.44-10.1,28.42c0,0,3.75-3.6,9.27-5.63c3.4-1.23,6.6-2.95,9.51-5.11
	c6.28-4.59,7.15-10.44,7.15-20.36C228.49,0.1,218.22-0.2,212.66,2.77z M169.04,7.02c-5.94,5.31-7.76,13.73-7.76,13.73l-20.02,76.91
	l-16.51-63.06c-1.62-6.59-4.57-15.01-9.19-20.56C109.79,7.02,98.01,6.6,96.69,6.6c-1.26,0-13.17,0.43-19.06,7.56
	c-4.57,5.63-7.54,13.95-9.16,20.58L51.97,97.79l-19.8-77.02c0,0-1.71-8.53-7.76-13.73C14.58-1.59,0,0.23,0,0.23l38.04,144.2
	c0,0,12.57,0.97,18.85-2.34c8.19-4.16,12.24-7.45,17.25-27.17c4.48-17.46,16.94-68.8,18.09-72.53c0.54-1.82,1.3-6.17,4.48-6.17
	c3.32,0,3.97,4.25,4.48,6.17c1.19,3.62,13.54,55.07,18.13,72.53c4.98,19.59,8.93,22.79,17.25,27.17c6.28,3.31,18.85,2.34,18.85,2.34
	L193.46,0.32C193.42,0.32,178.81-1.52,169.04,7.02L169.04,7.02z M228.49,23.74c0,0-2.4,3.62-7.8,6.82
	c-3.49,1.93-6.82,3.31-10.44,5.03c-6,2.86-7.69,6.17-7.69,11.05v97.81c0,0,9.7,1.17,15.86-1.93c8.1-4.12,9.9-8.08,10.05-26.08v-92.7
	L228.49,23.74z M323.44,72.63l48.27-71.97c0,0-20.36-3.51-30.48,5.74c-6.5,5.85-13.71,16.44-13.71,16.44l-17.68,25.74
	c-0.98,1.28-1.93,2.79-3.71,2.79c-1.84,0-2.99-1.39-3.75-2.79L284.51,22.9c0,0-7.15-10.55-13.74-16.42
	c-10.03-9.27-30.48-5.76-30.48-5.76l48.35,71.79l-48.35,71.66c0,0,21.29,2.77,31.35-6.5c6.5-5.85,12.78-15.55,12.78-15.55
	l17.64-25.69c0.98-1.26,1.93-2.73,3.71-2.73c1.86,0,2.99,1.39,3.75,2.73l17.68,25.69c0,0,6.59,9.47,13,15.55
	c9.99,9.27,30.96,6.5,30.96,6.5L323.44,72.63L323.44,72.63z"/>
</svg>
