<?xml version="1.0" encoding="utf-8"?>
<!-- Generator: Adobe Illustrator 25.0.0, SVG Export Plug-In . SVG Version: 6.00 Build 0)  -->
<svg version="1.1" id="Layer_1" xmlns="http://www.w3.org/2000/svg" xmlns:xlink="http://www.w3.org/1999/xlink" x="0px" y="0px"
	 viewBox="0 0 243.05 144.66" style="enable-background:new 0 0 243.05 144.66;" xml:space="preserve">
<style type="text/css">
	.st0{fill:#185AE9;}
	.st1{fill:#00B0FB;}
	.st2{fill:#00B0FB;fill-opacity:0.4;}
	.st3{fill:#FFFFFF;}
	.st4{fill:#001135;}
	.st5{fill:#3C7CFF;}
	.st6{fill-rule:evenodd;clip-rule:evenodd;fill:#252F3E;}
	.st7{fill-rule:evenodd;clip-rule:evenodd;fill:#FF9900;}
	.st8{fill:#8D3124;}
	.st9{fill:#E05244;}
	.st10{fill:#F7ADAE;}
	.st11{fill:#5B1E19;}
	.st12{fill:#F58436;}
	.st13{fill:#9D5026;}
	.st14{fill:#1A476F;}
	.st15{fill:#1F5B98;}
	.st16{fill:#2D72B8;}
	.st17{fill:#5294CF;}
	.st18{fill:#FF9900;}
	.st19{fill:#252F3E;}
	.st20{fill:#FDFDFD;}
	.st21{fill:#DBDBDB;}
	.st22{fill:#040404;}
	.st23{fill:#0C0C0C;}
	.st24{fill:#010101;}
	.st25{fill:#D9D9D9;}
	.st26{fill:#DCDCDC;}
	.st27{fill:#D7D7D7;}
	.st28{fill:#D8D8D8;}
	.st29{fill:#111111;}
	.st30{fill:#050505;}
	.st31{fill:#070707;}
	.st32{fill:#060606;}
	.st33{fill:#030303;}
	.st34{fill:#020202;}
	.st35{fill:#151515;}
	.st36{fill:#0F0F0F;}
	.st37{fill:#606060;}
	.st38{fill:#FCFCFC;}
	.st39{fill:#0A0A0A;}
	.st40{fill:#191919;}
	.st41{fill:#0D0D0D;}
	.st42{fill:#101010;}
	.st43{fill:#090909;}
	.st44{fill:#161616;}
	.st45{fill:#080808;}
	.st46{fill-rule:evenodd;clip-rule:evenodd;fill:#00B0FB;}
	.st47{fill:#00769D;}
	.st48{fill:#8DB849;}
	.st49{fill:#5A863E;}
	.st50{fill:#FFFFFE;}
	.st51{fill:#7F54B3;}
	.st52{fill:#F26322;}
</style>
<g>
	<path class="st51" d="M22.55,0h197.82c12.51-0.02,22.66,10.11,22.67,22.61c0,0.02,0,0.04,0,0.06v75.49
		c0.02,12.51-10.11,22.66-22.61,22.67c-0.02,0-0.04,0-0.06,0h-70.94l9.75,23.83l-42.83-23.84H22.67
		C10.17,120.84,0.02,110.71,0,98.21c0-0.02,0-0.04,0-0.06V22.67C-0.06,10.21,9.99,0.06,22.45,0C22.49,0,22.52,0,22.55,0L22.55,0z"/>
	<path class="st3" d="M13.84,20.65c1.38-1.88,3.45-2.87,6.22-3.06c5.04-0.39,7.9,1.98,8.6,7.12c3.06,20.65,6.39,38.14,9.98,52.48
		l21.64-41.2c1.98-3.75,4.45-5.73,7.41-5.93c4.34-0.29,7.01,2.47,8.1,8.3c2.47,13.14,5.63,24.3,9.38,33.77
		c2.57-25.08,6.91-43.2,13.02-54.34c1.48-2.76,3.65-4.15,6.52-4.34c2.26-0.19,4.51,0.53,6.24,1.99c1.79,1.34,2.91,3.4,3.06,5.63
		c0.14,1.64-0.19,3.29-0.96,4.74c-3.86,7.12-7.02,19.07-9.59,35.66c-2.47,16.11-3.38,28.65-2.76,37.63
		c0.24,2.24-0.17,4.51-1.19,6.52c-1.19,2.18-2.97,3.38-5.24,3.56c-2.57,0.2-5.23-0.99-7.8-3.65c-9.2-9.39-16.48-23.43-21.83-42.1
		c-6.43,12.65-11.17,22.13-14.23,28.46c-5.83,11.16-10.77,16.88-14.92,17.19c-2.69,0.19-4.96-2.08-6.94-6.81
		c-5.04-12.95-10.47-37.95-16.3-75C11.83,24.93,12.4,22.53,13.84,20.65z M226.15,36.18c-3.56-6.25-8.79-10-15.83-11.48
		c-1.74-0.38-3.52-0.57-5.31-0.58c-9.48,0-17.19,4.94-23.22,14.82c-5.14,8.38-7.81,18.03-7.72,27.86c0,7.61,1.58,14.13,4.74,19.56
		c3.56,6.23,8.79,9.98,15.81,11.46c1.75,0.38,3.54,0.58,5.34,0.59c9.58,0,17.28-4.94,23.21-14.82c5.13-8.42,7.8-18.12,7.72-27.98
		C230.99,47.92,229.31,41.49,226.15,36.18z M213.7,63.53c-1.38,6.52-3.86,11.36-7.51,14.62c-2.87,2.57-5.53,3.65-8,3.16
		c-2.37-0.48-4.34-2.57-5.83-6.42c-1.14-2.86-1.74-5.91-1.78-8.99c-0.02-2.42,0.21-4.84,0.69-7.21c0.93-4.23,2.71-8.23,5.24-11.76
		c3.26-4.82,6.71-6.82,10.27-6.13c2.37,0.48,4.34,2.57,5.83,6.42c1.14,2.86,1.74,5.91,1.78,8.99
		C214.42,58.67,214.19,61.12,213.7,63.53z M164.3,36.18c-3.56-6.23-8.89-9.98-15.8-11.46c-1.75-0.38-3.54-0.58-5.34-0.6
		c-9.48,0-17.19,4.94-23.22,14.82c-5.14,8.38-7.81,18.03-7.72,27.86c0,7.61,1.58,14.13,4.74,19.56c3.56,6.23,8.79,9.98,15.8,11.46
		c1.76,0.38,3.55,0.58,5.35,0.59c9.59,0,17.29-4.94,23.22-14.82c5.13-8.42,7.8-18.12,7.72-27.98
		C169.05,47.92,167.47,41.49,164.3,36.18z M151.76,63.55c-1.38,6.52-3.86,11.36-7.51,14.62c-2.87,2.57-5.53,3.65-8,3.16
		c-2.37-0.48-4.34-2.57-5.83-6.42c-1.14-2.86-1.74-5.91-1.78-8.99c-0.02-2.42,0.21-4.84,0.69-7.21c0.93-4.24,2.72-8.25,5.25-11.78
		c3.26-4.82,6.71-6.82,10.27-6.13c2.37,0.48,4.34,2.57,5.83,6.42c1.13,2.86,1.72,5.91,1.75,8.99c0.08,2.46-0.16,4.91-0.69,7.31
		L151.76,63.55z"/>
</g>
</svg>
