<?xml version="1.0" encoding="utf-8"?>
<!-- Generator: Adobe Illustrator 25.0.0, SVG Export Plug-In . SVG Version: 6.00 Build 0)  -->
<svg version="1.1" id="Layer_1" xmlns="http://www.w3.org/2000/svg" xmlns:xlink="http://www.w3.org/1999/xlink" x="0px" y="0px"
	 viewBox="0 0 144.66 144.66" style="enable-background:new 0 0 144.66 144.66;" xml:space="preserve">
<style type="text/css">
	.st0{fill:#185AE9;}
	.st1{fill:#00B0FB;}
	.st2{fill:#00B0FB;fill-opacity:0.4;}
	.st3{fill:#FFFFFF;}
	.st4{fill:#001135;}
	.st5{fill:#3C7CFF;}
	.st6{fill-rule:evenodd;clip-rule:evenodd;fill:#252F3E;}
	.st7{fill-rule:evenodd;clip-rule:evenodd;fill:#FF9900;}
	.st8{fill:#8D3124;}
	.st9{fill:#E05244;}
	.st10{fill:#F7ADAE;}
	.st11{fill:#5B1E19;}
	.st12{fill:#F58436;}
	.st13{fill:#9D5026;}
	.st14{fill:#1A476F;}
	.st15{fill:#1F5B98;}
	.st16{fill:#2D72B8;}
	.st17{fill:#5294CF;}
	.st18{fill:#FF9900;}
	.st19{fill:#252F3E;}
	.st20{fill:#FDFDFD;}
	.st21{fill:#DBDBDB;}
	.st22{fill:#040404;}
	.st23{fill:#0C0C0C;}
	.st24{fill:#010101;}
	.st25{fill:#D9D9D9;}
	.st26{fill:#DCDCDC;}
	.st27{fill:#D7D7D7;}
	.st28{fill:#D8D8D8;}
	.st29{fill:#111111;}
	.st30{fill:#050505;}
	.st31{fill:#070707;}
	.st32{fill:#060606;}
	.st33{fill:#030303;}
	.st34{fill:#020202;}
	.st35{fill:#151515;}
	.st36{fill:#0F0F0F;}
	.st37{fill:#606060;}
	.st38{fill:#FCFCFC;}
	.st39{fill:#0A0A0A;}
	.st40{fill:#191919;}
	.st41{fill:#0D0D0D;}
	.st42{fill:#101010;}
	.st43{fill:#090909;}
	.st44{fill:#161616;}
	.st45{fill:#080808;}
	.st46{fill-rule:evenodd;clip-rule:evenodd;fill:#00B0FB;}
	.st47{fill:#00769D;}
	.st48{fill:#8DB849;}
	.st49{fill:#5A863E;}
	.st50{fill:#FFFFFE;}
	.st51{fill:#7F54B3;}
	.st52{fill:#F26322;}
</style>
<g>
	<path class="st47" d="M10.28,72.33c0,24.56,14.27,45.79,34.97,55.85l-29.6-81.1C12.21,54.79,10.28,63.33,10.28,72.33z
		 M114.22,69.19c0-7.67-2.75-12.98-5.12-17.11c-3.14-5.12-6.09-9.44-6.09-14.55c0-5.7,4.32-11.01,10.42-11.01
		c0.27,0,0.54,0.03,0.81,0.04c-11.04-10.12-25.75-16.29-41.9-16.29c-21.68,0-40.75,11.12-51.85,27.97c1.46,0.04,2.83,0.07,4,0.07
		c6.49,0,16.53-0.79,16.53-0.79c3.34-0.2,3.74,4.72,0.4,5.12c0,0-3.36,0.39-7.1,0.59l22.59,67.21l13.58-40.72l-9.66-26.49
		c-3.34-0.2-6.51-0.59-6.51-0.59c-3.35-0.2-2.95-5.32,0.39-5.12c0,0,10.25,0.79,16.34,0.79c6.49,0,16.54-0.79,16.54-0.79
		c3.35-0.2,3.74,4.72,0.4,5.12c0,0-3.37,0.39-7.1,0.59l22.42,66.7l6.19-20.68C112.65,81.19,114.22,74.51,114.22,69.19z M73.42,77.76
		L54.8,131.85c5.56,1.63,11.44,2.53,17.53,2.53c7.22,0,14.16-1.25,20.61-3.52c-0.16-0.27-0.32-0.55-0.45-0.85L73.42,77.76z
		 M126.78,42.56c0.27,1.98,0.42,4.1,0.42,6.38c0,6.29-1.18,13.37-4.72,22.22l-18.95,54.8c18.45-10.76,30.85-30.74,30.85-53.63
		C134.38,61.54,131.62,51.39,126.78,42.56z"/>
	<g>
		<path class="st47" d="M0,72.33c0,39.88,32.45,72.34,72.33,72.34c39.89,0,72.34-32.45,72.34-72.34S112.22,0,72.34,0
			S0,32.44,0,72.33z M3.31,72.33c0-38.05,30.96-69.02,69.02-69.02s69.02,30.96,69.02,69.02s-30.96,69.02-69.02,69.02
			S3.31,110.38,3.31,72.33z"/>
	</g>
</g>
</svg>
