<?xml version="1.0" encoding="utf-8"?>
<!-- Generator: Adobe Illustrator 24.3.0, SVG Export Plug-In . SVG Version: 6.00 Build 0)  -->
<svg version="1.1" id="Layer_1" xmlns="http://www.w3.org/2000/svg" xmlns:xlink="http://www.w3.org/1999/xlink" x="0px" y="0px"
	 viewBox="0 0 165.99 166.6" style="enable-background:new 0 0 165.99 166.6;" xml:space="preserve">
<style type="text/css">
	.st0{fill:#00B0FB;}
</style>
<g>
	<path class="st0" d="M121.83,59.55c-4.73-15.44-19.33-27.34-34.59-28.87C64.97,28.43,45.4,44.94,42.29,67.49
		c-1.74,12.61,1.04,24.14,8.83,34.39c3.55,4.68,7.2,9.48,8.33,15.38c1.01,5.26,1.27,10.67,1.68,14.34c0,5.67-0.34,9.65,0.07,13.56
		c1.14,10.9,10.85,19.41,21.79,19.41c10.94,0.01,20.71-8.43,21.81-19.38c0.58-5.75,0.15-11.6,0.44-17.39
		c0.18-3.59,0.59-7.22,1.37-10.73c1.31-5.97,5.02-10.75,8.54-15.56C124.55,88.66,126.44,74.59,121.83,59.55z M101.58,143.41
		c-12.48,0-24.71,0-37.17,0c0-4.7,0-9.32,0-14.15c12.32,0,24.74,0,37.17,0C101.58,134.01,101.58,138.69,101.58,143.41z
		 M112.91,98.87c-3.91,5.53-8.06,10.93-9.67,17.69c-0.69,2.89-1.11,5.84-1.7,8.99c-12.4,0-24.78,0-37.42,0
		c-0.07-10.39-4.97-18.72-10.96-26.58c-11-14.43-10.06-34.76-1.36-47.71c7.92-11.8,19.01-18.25,33.3-17.32
		c15.49,1.01,26.43,9.46,32.34,23.63C123.44,71.95,122.05,85.94,112.91,98.87z"/>
	<path class="st0" d="M33.09,34.23c0.51-0.6,1.34-1.13,1.47-1.8c0.24-1.22,0.07-2.52,0.07-3.79c0.23-0.13,0.46-0.26,0.69-0.39
		c3.59,3.67,7.13,7.4,10.82,10.97c0.61,0.59,2.23,1.01,2.77,0.63c1.43-1.01,0.35-2.08-0.53-2.96c-3.24-3.25-6.49-6.49-9.73-9.75
		c-0.4-0.41-0.7-0.91-1.27-1.65c1.56,0,2.73,0.21,3.78-0.07c0.81-0.21,1.45-1.03,2.17-1.58c-0.65-0.57-1.28-1.57-1.97-1.62
		c-2.64-0.19-5.32-0.21-7.96,0.02c-0.73,0.06-1.89,1.18-1.95,1.88c-0.22,2.8-0.18,5.64,0,8.45C31.49,33.15,32.52,33.68,33.09,34.23z
		"/>
	<path class="st0" d="M120.65,38.51c3.08-2.96,6.05-6.03,9.08-9.04c0.4-0.4,0.91-0.69,1.64-1.25c0,1.56-0.2,2.73,0.07,3.79
		c0.21,0.82,1.01,1.49,1.55,2.22c0.56-0.74,1.54-1.44,1.61-2.23c0.21-2.48,0.23-5.01-0.01-7.48c-0.08-0.84-1.12-2.2-1.82-2.27
		c-2.8-0.26-5.64-0.2-8.44-0.02c-0.58,0.04-1.1,1.08-1.65,1.66c0.58,0.52,1.09,1.37,1.74,1.5c1.22,0.24,2.52,0.07,3.79,0.07
		c0.12,0.22,0.24,0.44,0.36,0.66c-3.44,3.37-6.9,6.72-10.29,10.14c-0.93,0.94-2.83,1.92-1.3,3.5
		C118.64,41.52,119.66,39.46,120.65,38.51z"/>
	<path class="st0" d="M45.96,108.59c-3.56,3.6-7.08,7.22-10.62,10.83c-0.23-0.11-0.46-0.21-0.69-0.32c0-1.18,0.18-2.39-0.06-3.52
		c-0.16-0.77-0.92-1.4-1.41-2.1c-0.61,0.68-1.67,1.33-1.73,2.05c-0.21,2.56-0.24,5.16,0.01,7.71c0.08,0.79,1.18,2.05,1.9,2.12
		c2.71,0.25,5.47,0.21,8.19,0.01c0.63-0.05,1.19-1.13,1.79-1.73c-0.61-0.49-1.16-1.28-1.84-1.41c-1.2-0.23-2.48-0.07-3.73-0.07
		c-0.1-0.21-0.2-0.42-0.3-0.64c3.59-3.52,7.19-7.04,10.77-10.58c0.92-0.91,2.11-1.88,0.72-3.21
		C47.64,106.5,46.77,107.77,45.96,108.59z"/>
	<path class="st0" d="M132.77,113.6c-0.34-0.07-1.23,0.93-1.33,1.54c-0.21,1.3-0.06,2.66-0.06,4.46c-0.86-0.72-1.35-1.08-1.78-1.5
		c-3.2-3.17-6.37-6.37-9.57-9.54c-0.83-0.82-1.7-2.08-3-0.79c-1.36,1.35-0.14,2.3,0.77,3.21c1.98,2,3.93,4.04,5.99,5.96
		c1.62,1.51,3.38,2.86,5.07,4.28c-0.22,0.32-0.44,0.63-0.66,0.95c-1.17,0-2.39-0.19-3.5,0.07c-0.75,0.17-1.36,0.96-2.03,1.47
		c0.61,0.59,1.19,1.64,1.84,1.68c2.72,0.19,5.47,0.18,8.2,0.01c0.66-0.04,1.78-0.92,1.82-1.47c0.18-2.96,0.19-5.95,0.02-8.92
		C134.51,114.48,133.46,113.75,132.77,113.6z"/>
	<path class="st0" d="M19.36,75.45c4.35,0,8.71,0.08,13.06-0.07c0.88-0.03,2.38-0.87,2.45-1.48c0.21-1.63-1.25-1.73-2.52-1.73
		c-4.43,0-8.87,0.01-13.3-0.01c-0.66,0-1.31-0.13-1.97-0.2c-0.13-0.24-0.26-0.47-0.4-0.71c0.89-0.68,2-1.22,2.59-2.1
		c0.45-0.68,0.24-1.8,0.32-2.72c-0.86,0.13-1.98-0.03-2.54,0.45c-1.95,1.68-3.82,3.49-5.45,5.48c-0.5,0.61-0.55,2.28-0.08,2.86
		c1.68,2.04,3.61,3.91,5.62,5.65c0.53,0.46,1.66,0.23,2.52,0.32c-0.08-0.86,0.15-1.95-0.3-2.54c-0.73-0.97-1.89-1.62-2.87-2.4
		c0.18-0.27,0.36-0.53,0.54-0.8C17.82,75.45,18.59,75.45,19.36,75.45z"/>
	<path class="st0" d="M154.42,72.4c-1.63-1.99-3.49-3.81-5.45-5.48c-0.58-0.49-1.79-0.25-2.7-0.35c0.12,0.86-0.04,1.93,0.42,2.54
		c0.69,0.9,1.81,1.48,2.74,2.19c-0.2,0.29-0.4,0.57-0.59,0.86c-1.26,0-2.52,0-3.78,0c-3.63,0-7.26-0.01-10.89,0.01
		c-1.34,0.01-3.12-0.27-3.11,1.71c0.01,1.85,1.73,1.52,2.97,1.56c1.29,0.04,2.58,0.01,3.87,0.01c3.68,0,7.36,0,11.05,0
		c0.16,0.28,0.32,0.57,0.48,0.85c-0.94,0.75-2.06,1.38-2.76,2.31c-0.45,0.6-0.28,1.67-0.38,2.53c0.86-0.06,2,0.21,2.52-0.24
		c2.01-1.74,3.93-3.6,5.62-5.65C154.92,74.67,154.91,73,154.42,72.4z"/>
	<path class="st0" d="M75.66,10.52c0.85-0.07,1.94,0.16,2.5-0.28c0.96-0.76,1.6-1.93,2.37-2.93c0.29,0.19,0.58,0.38,0.87,0.57
		c0,4.71-0.06,9.43,0.04,14.14c0.03,1.42-0.84,3.8,1.67,3.74c2.22-0.06,1.48-2.3,1.5-3.69c0.08-4.72,0.03-9.44,0.03-14.17
		c0.27-0.18,0.54-0.35,0.82-0.53c0.79,0.98,1.44,2.14,2.41,2.88c0.57,0.43,1.65,0.19,2.5,0.25c-0.08-0.85,0.16-1.98-0.3-2.51
		c-1.74-2-3.6-3.93-5.64-5.62c-0.58-0.48-2.25-0.46-2.84,0.03c-2.04,1.69-3.9,3.61-5.64,5.62C75.48,8.54,75.73,9.67,75.66,10.52z"/>
	<path class="st0" d="M83.43,45.55c-7.99-0.28-15.46,4.89-18.22,12.62c-2.77,7.74-0.25,16.2,6.5,21.36
		c1.17,0.89,1.48,1.82,1.61,3.21c0.11,1.15,0.67,2.63,1.53,3.26c1.21,0.87,1.35,1.78,1.34,3.04c-0.03,5.89,0.1,11.78-0.07,17.66
		c-0.07,2.45,0.67,4.22,2.34,6c5.13,5.47,4.09,5.41,8.98,0.04c3.25-3.57,3.43-8.02,0.51-11.77c2.34-2.89,2.34-2.89-0.23-5.75
		c2.62-1.42,2.12-3.82,2.11-6.04c-0.01-1.31,0.03-2.37,1.42-3.25c0.82-0.52,1.41-1.99,1.43-3.05c0.03-1.65,0.65-2.58,1.9-3.55
		c6.09-4.71,8.77-12.87,6.67-19.89C98.8,51.25,91.86,45.84,83.43,45.55z M92.96,76.28c-2.38,1.87-4.34,3.53-3.37,7.23
		c-2.85-0.37-3.17,1.09-3.09,2.94c0.06,1.37,0.11,2.75-0.03,4.11c-0.07,0.73-0.39,1.56-0.88,2.1c-2.45,2.74-2.48,2.71-0.06,5.51
		c-0.44,0.5-1.13,0.95-1.3,1.56c-0.23,0.79-0.42,2.14,0.01,2.49c1.86,1.53,2.95,3.41,2.18,5.65c-0.59,1.71-1.96,3.15-3.05,4.81
		c-2.76-2.09-4.13-4.17-3.96-7.52c0.31-6.11,0.06-12.25,0.1-18.38c0.01-1.94,0.03-3.76-3.06-3.28c1.01-3.74-1.14-5.38-3.52-7.3
		c-6.95-5.6-7.34-16.11-1.11-22.55c6.14-6.36,16.41-6.31,22.47,0.1C100.45,60.26,99.96,70.77,92.96,76.28z"/>
</g>
</svg>
