<?xml version="1.0" encoding="utf-8"?>
<!-- Generator: Adobe Illustrator 24.3.0, SVG Export Plug-In . SVG Version: 6.00 Build 0)  -->
<svg version="1.1" id="Layer_1" xmlns="http://www.w3.org/2000/svg" xmlns:xlink="http://www.w3.org/1999/xlink" x="0px" y="0px"
	 width="106px" height="106px" viewBox="0 0 106 106" style="enable-background:new 0 0 106 106;" xml:space="preserve">
<style type="text/css">
	.st0{fill:#185AE9;}
	.st1{fill:#00B0FB;}
</style>
<g>
	<path class="st1" d="M50.5,46.9V55c0.5,0.1,1,0.3,1.5,0.4c0.4,0.1,0.7,0.2,1,0.3c0.1,0,0.3,0.1,0.4,0.1c1,0.3,1.9,0.7,2.9,1.1
		c2.1,0.8,4.2,1.6,6.2,2.6c0.1,0,0.7,0.3,0.7,0.4V42c-2,1.1-4,2-6.1,2.8C55,45.7,52.8,46.4,50.5,46.9z"/>
	<polygon class="st1" points="41.1,55.3 47.2,55.3 47.2,46.6 41.1,46.6 	"/>
	<path class="st1" d="M87.2,65.2C87.2,65.2,87.2,65.2,87.2,65.2C87.2,65.2,87.2,65.2,87.2,65.2C87.2,65.2,87.2,65.2,87.2,65.2
		c0.4,0,0.8,0,1.2,0c0,0,0,0,0,0c0.2,0,0.4,0,0.6,0c0,0,0.1,0,0.1,0c0.2,0,0.3,0,0.5,0c0.1,0,0.1,0,0.2,0c0.1,0,0.3,0,0.4,0
		c0.1,0,0.2,0,0.3,0c0.1,0,0.2,0,0.2,0c0.4,0.1,0.8,0.1,1.1,0.2c1.3-4.1,2-8.3,2-12.7c0-4.3-0.7-8.6-2-12.6
		c-0.8,0.2-1.7,0.3-2.6,0.4c-0.7,0.1-1.4,0.1-2.1,0.1c0,0,0,0,0,0c0,0,0,0,0,0c-0.2,0-0.4,0-0.7,0c0,0-0.1,0-0.1,0
		c-0.2,0-0.4,0-0.6,0c0,0-0.1,0-0.1,0c-1.4-0.1-2.8-0.3-4.1-0.7c0,0,0,0,0,0c-0.2-0.1-0.4-0.1-0.6-0.2c0,0-0.1,0-0.1,0
		c-0.2-0.1-0.3-0.1-0.5-0.2c-0.1,0-0.3-0.1-0.4-0.1c-0.1,0-0.2-0.1-0.3-0.1c-0.2-0.1-0.3-0.1-0.5-0.2c0,0,0,0,0,0
		c-1-0.4-1.9-0.8-2.8-1.3c-0.1,0-0.1-0.1-0.2-0.1c-2.3-1.3-4.3-3-6-5c0,0-0.1-0.1-0.1-0.1c-0.7-0.8-1.3-1.7-1.8-2.6
		c-0.1-0.1-0.1-0.2-0.2-0.3c-0.1-0.1-0.2-0.3-0.2-0.4c-0.1-0.2-0.2-0.4-0.3-0.6c0,0,0,0,0-0.1c-1.3-2.5-2.1-5.2-2.3-8.1c0,0,0,0,0,0
		c0-0.3,0-0.6-0.1-0.9c0,0,0-0.1,0-0.1c0-0.1,0-0.2,0-0.3c0-0.4,0-0.7,0-1.1c0,0,0-0.1,0-0.1c0-0.2,0-0.3,0-0.5c0,0,0-0.1,0-0.1
		c0-0.2,0-0.4,0-0.6c0,0,0,0,0,0c0.1-1,0.2-1.9,0.4-2.8c-1-0.3-2-0.6-3.1-0.9c0,0,0,0,0,0c-0.2,0-0.4-0.1-0.6-0.1
		c-0.1,0-0.1,0-0.2,0c-0.1,0-0.2,0-0.3-0.1c-0.2,0-0.3-0.1-0.5-0.1c0,0,0,0,0,0c-2.6-0.5-5.3-0.8-8-0.8c-2.7,0-5.4,0.3-8,0.8
		c0,0,0,0,0,0c-0.2,0-0.3,0.1-0.5,0.1c-0.1,0-0.2,0-0.3,0.1c-0.1,0-0.1,0-0.2,0c-0.2,0-0.4,0.1-0.6,0.1c0,0,0,0,0,0
		c-1,0.2-2.1,0.5-3.1,0.9c0.2,0.9,0.3,1.9,0.4,2.8c0,0,0,0,0,0c0,0.2,0,0.4,0,0.6c0,0,0,0.1,0,0.1c0,0.2,0,0.3,0,0.5
		c0,0,0,0.1,0,0.1c0,0.4,0,0.7,0,1.1c0,0.1,0,0.2,0,0.3c0,0,0,0.1,0,0.1c0,0.3,0,0.6-0.1,0.9c0,0,0,0,0,0c-0.2,2.9-1.1,5.6-2.3,8.1
		c0,0,0,0,0,0.1c-0.1,0.2-0.2,0.4-0.3,0.6c-0.1,0.1-0.2,0.3-0.2,0.4c-0.1,0.1-0.1,0.2-0.2,0.3c-0.5,0.9-1.1,1.8-1.8,2.6
		c0,0-0.1,0.1-0.1,0.1c-1.7,2-3.7,3.7-6,5c0,0-0.1,0.1-0.2,0.1c-0.9,0.5-1.9,1-2.8,1.3c0,0,0,0,0,0c-0.2,0.1-0.3,0.1-0.5,0.2
		c-0.1,0-0.2,0.1-0.3,0.1c-0.1,0-0.3,0.1-0.4,0.1c-0.2,0.1-0.3,0.1-0.5,0.2c0,0-0.1,0-0.1,0c-0.2,0.1-0.4,0.1-0.6,0.2c0,0,0,0,0,0
		c-1.3,0.3-2.7,0.6-4.1,0.7c0,0-0.1,0-0.1,0c-0.2,0-0.4,0-0.6,0c0,0-0.1,0-0.1,0c-0.2,0-0.4,0-0.7,0c0,0,0,0,0,0c0,0,0,0,0,0
		c-0.7,0-1.4,0-2.1-0.1c-0.9-0.1-1.7-0.2-2.6-0.4c-1.3,4.1-2,8.3-2,12.6c0,4.3,0.7,8.6,2,12.7c0.4-0.1,0.8-0.1,1.1-0.2
		c0.1,0,0.2,0,0.2,0c0.1,0,0.2,0,0.3,0c0.1,0,0.3,0,0.4,0c0.1,0,0.1,0,0.2,0c0.2,0,0.3,0,0.5,0c0,0,0.1,0,0.1,0c0.2,0,0.4,0,0.6,0
		c0,0,0,0,0,0c0.4,0,0.8,0,1.2,0c0,0,0,0,0,0c0,0,0,0,0,0h0c7.9,0,14.9,4.2,18.8,10.5c2.1,3.4,3.3,7.3,3.3,11.5c0,0.4,0,0.8,0,1.2
		c0,0.1,0,0.2,0,0.3c0,0.1,0,0.2,0,0.3c-0.1,1-0.2,1.9-0.4,2.8c4.1,1.3,8.3,2,12.6,2c4.3,0,8.6-0.7,12.6-2c-0.2-0.9-0.3-1.9-0.4-2.8
		c0-0.1,0-0.2,0-0.3c0-0.1,0-0.2,0-0.3c0-0.4,0-0.8,0-1.2c0-4.2,1.2-8.2,3.3-11.5C72.3,69.4,79.3,65.2,87.2,65.2z M66.6,64.4
		c0,0.9-0.7,1.6-1.6,1.6s-1.6-0.7-1.6-1.6v-0.7c-1.8-1-3.7-1.8-5.6-2.7c-2-0.9-4.1-1.8-6.3-2.4c-0.3-0.1-0.6-0.2-0.8-0.2
		c-0.1,0-0.7-0.3-0.8-0.2c-0.3,0.2-0.7,0.4-1.2,0.4h-2.7l0.6,10.8c0,0.9-0.7,1.7-1.6,1.7c-0.9,0-1.7-0.7-1.7-1.6l-0.6-11h-1.5
		c-1.8,0-3.3-1.5-3.3-3.3v-8.7c0-1.8,1.5-3.3,3.3-3.3h7.6c0.4,0,0.8,0.1,1.2,0.4c2.1-0.5,4.2-1.1,6.2-1.9c2.5-1,5-2.1,7.3-3.5v-0.7
		c0-0.9,0.7-1.6,1.6-1.6c0.9,0,1.6,0.7,1.6,1.6V64.4z"/>
	<path class="st1" d="M87.2,85.5c-0.9,0-1.7,0.8-1.7,1.7c0,0.9,0.8,1.7,1.7,1.7s1.7-0.8,1.7-1.7C88.9,86.3,88.1,85.5,87.2,85.5z"/>
	<path class="st1" d="M14.7,22.9c0.5,0.2,0.9,0.8,1,1.4c0.1,0.6-0.2,1.2-0.7,1.5c-0.5,0.3-1,0.6-1.5,0.9c2.3,0.2,4.6-0.3,6.6-1.5
		c2.2-1.3,3.7-3.2,4.6-5.6c0-0.1,0-0.1,0.1-0.2c0.5-1.4,0.7-2.9,0.7-4.5c0-0.2,0-0.3,0-0.5h0c-0.1-0.3,0-0.6,0.1-0.9
		c-0.3-0.1-0.6-0.3-0.8-0.5c-1-1.2-2.8-1.3-4-0.3c-0.6,0.5-1,1.3-1,2.2v1c0,0.9-0.7,1.6-1.6,1.6c-3,0.1-5.9-1-8.2-2.9
		c-0.1,0.6-0.1,1.1-0.1,1.7C10,19.3,11.7,21.5,14.7,22.9z"/>
	<path class="st1" d="M0,19.9c0,0.2,0,0.4,0,0.6c0,0.1,0,0.2,0,0.3c0,0.2,0.1,0.4,0.1,0.7c0,0.1,0,0.1,0,0.2c0,0.3,0.1,0.5,0.1,0.8
		c0,0,0,0,0,0.1c1.4,7,6.8,12.6,13.7,14.4c0,0,0.1,0,0.1,0c0.2,0.1,0.5,0.1,0.7,0.2c0.1,0,0.2,0,0.2,0c0.2,0,0.4,0.1,0.6,0.1
		c0.1,0,0.2,0,0.4,0.1c0.2,0,0.4,0,0.5,0.1c0.1,0,0.3,0,0.4,0c0.2,0,0.3,0,0.5,0c0.2,0,0.3,0,0.5,0c0.2,0,0.5,0,0.7,0c0,0,0,0,0,0
		c0,0,0,0,0,0c0.3,0,0.5,0,0.8,0c0.1,0,0.2,0,0.2,0c0.3,0,0.5,0,0.8-0.1c0.1,0,0.2,0,0.3,0c0.2,0,0.4,0,0.5-0.1c0.1,0,0.2,0,0.3,0
		c0.2,0,0.5-0.1,0.7-0.1c0.1,0,0.2,0,0.3-0.1c0.2,0,0.4-0.1,0.5-0.1c0.1,0,0.2,0,0.2-0.1c0.3-0.1,0.5-0.1,0.8-0.2c0,0,0.1,0,0.1,0
		c4.9-1.5,8.9-4.9,11.2-9.4c0-0.1,0.1-0.1,0.1-0.2c0.1-0.2,0.2-0.4,0.3-0.5c0.1-0.2,0.1-0.3,0.2-0.5c0-0.1,0.1-0.2,0.1-0.2
		c0.1-0.2,0.2-0.4,0.2-0.6c0-0.1,0-0.1,0.1-0.2c0.1-0.2,0.1-0.4,0.2-0.6c0,0,0-0.1,0-0.1c0.1-0.2,0.1-0.4,0.2-0.6c0,0,0-0.1,0-0.1
		c0.1-0.2,0.1-0.4,0.2-0.7c0,0,0-0.1,0-0.1c0.1-0.6,0.2-1.2,0.3-1.8c0-0.2,0-0.3,0.1-0.5c0-0.1,0-0.2,0-0.3c0-0.2,0-0.4,0-0.6
		c0-0.1,0-0.2,0-0.3c0-0.2,0-0.3,0-0.5c0-0.2,0-0.4,0-0.6c0-0.1,0-0.2,0-0.4c0-0.2,0-0.4,0-0.6c0-0.1,0-0.2,0-0.3
		c0-0.3-0.1-0.5-0.1-0.8c0,0,0-0.1,0-0.1C36.2,8.5,30.6,2.5,23.5,0.6c0,0,0,0-0.1,0c-0.3-0.1-0.5-0.1-0.8-0.2c-0.1,0-0.1,0-0.2,0
		c-0.2,0-0.4-0.1-0.6-0.1c-0.1,0-0.2,0-0.3-0.1c-0.2,0-0.4,0-0.5-0.1c-0.1,0-0.3,0-0.4,0c-0.2,0-0.3,0-0.5,0c-0.2,0-0.3,0-0.5,0
		c-0.2,0-0.5,0-0.7,0c0,0,0,0,0,0c-0.3,0-0.6,0-1,0c0,0-0.1,0-0.1,0c-0.3,0-0.6,0-0.8,0.1c-0.1,0-0.2,0-0.3,0c-0.2,0-0.4,0-0.6,0.1
		c-0.1,0-0.3,0-0.4,0.1c-0.2,0-0.4,0.1-0.5,0.1c-0.1,0-0.3,0.1-0.4,0.1c-0.1,0-0.3,0.1-0.4,0.1c-0.2,0-0.3,0.1-0.5,0.1
		c-0.1,0-0.3,0.1-0.4,0.1c-0.2,0.1-0.3,0.1-0.5,0.2c-0.1,0-0.2,0.1-0.3,0.1c-0.2,0.1-0.4,0.1-0.5,0.2c-0.1,0-0.2,0.1-0.3,0.1
		c-0.2,0.1-0.4,0.2-0.5,0.2c-0.1,0-0.2,0.1-0.3,0.1c-0.2,0.1-0.3,0.2-0.5,0.3c-0.1,0-0.2,0.1-0.3,0.1C9.8,2.3,9.6,2.4,9.4,2.5
		C9.3,2.5,9.2,2.6,9.2,2.7C9,2.8,8.8,2.9,8.7,3C8.6,3,8.5,3.1,8.4,3.1C8.2,3.2,8.1,3.3,7.9,3.4C7.9,3.5,7.8,3.6,7.7,3.6
		C7.5,3.8,7.4,3.9,7.2,4C7.1,4,7,4.1,7,4.2C6.8,4.3,6.7,4.4,6.6,4.5C6.5,4.6,6.4,4.7,6.3,4.8C6.1,4.9,6,5,5.9,5.1
		C5.8,5.2,5.7,5.3,5.6,5.4C5.5,5.5,5.4,5.6,5.3,5.7C5.2,5.8,5.1,5.9,5,6C4.9,6.2,4.8,6.3,4.7,6.4C4.6,6.5,4.5,6.6,4.4,6.7
		C4.3,6.8,4.2,6.9,4.1,7C4,7.2,3.9,7.3,3.8,7.4C3.7,7.5,3.7,7.6,3.6,7.8C3.5,7.9,3.4,8,3.3,8.1C3.2,8.3,3.1,8.4,3.1,8.5
		C3,8.6,2.9,8.8,2.8,8.9C2.7,9,2.7,9.1,2.6,9.3C2.5,9.4,2.4,9.5,2.4,9.7C2.3,9.8,2.2,9.9,2.2,10c-0.1,0.1-0.1,0.3-0.2,0.4
		c-0.1,0.1-0.1,0.3-0.2,0.4c-0.1,0.1-0.1,0.3-0.2,0.4c-0.1,0.1-0.1,0.3-0.2,0.4c-0.1,0.1-0.1,0.3-0.2,0.4c-0.1,0.1-0.1,0.3-0.2,0.4
		C1,12.7,1,12.8,0.9,13c0,0.2-0.1,0.3-0.1,0.5c0,0.1-0.1,0.3-0.1,0.4c0,0.2-0.1,0.3-0.1,0.5c0,0.1-0.1,0.3-0.1,0.4
		c0,0.2-0.1,0.3-0.1,0.5c0,0.1,0,0.3-0.1,0.4c0,0.2-0.1,0.4-0.1,0.5c0,0.1,0,0.3,0,0.4c0,0.2,0,0.4-0.1,0.6c0,0.1,0,0.3,0,0.4
		c0,0.2,0,0.4,0,0.6c0,0.1,0,0.3,0,0.4c0,0.2,0,0.3,0,0.5c0,0.2,0,0.3,0,0.5C0,19.6,0,19.7,0,19.9z M7.1,24.7c1.2,0,2.3-0.1,3.5-0.5
		c-3.1-2.4-3.9-5.4-4.1-7.8c-0.1-3.1,1-5.6,1-5.7c0.2-0.5,0.8-0.9,1.3-1c0.6-0.1,1.2,0.2,1.5,0.7c1.4,2,3.6,3.4,6,3.7
		c0.2-1.5,0.9-2.9,2.1-3.9c2.2-2,5.5-2,7.8-0.2c0.6-0.3,1.2-0.6,1.8-1c0.6-0.4,1.3-0.4,1.9,0h0c0.6,0.4,0.8,1.1,0.7,1.8
		c-0.3,1.4-1,2.7-2,3.8c0,0.1,0,0.2,0,0.3c0,2-0.3,3.8-0.9,5.5c0,0.1-0.1,0.2-0.1,0.2c-1.1,3.1-3.2,5.7-6,7.3c-2.3,1.3-4.8,2-7.4,2
		c-2.7,0-5.5-0.7-8.1-2.2c-0.5-0.3-0.9-0.9-0.8-1.5C5.4,25.4,6.2,24.7,7.1,24.7z"/>
	<polygon class="st1" points="16.1,91.7 24.2,87 16.1,82.3 	"/>
	<path class="st1" d="M18.8,68.5C8.4,68.5,0,76.9,0,87.2c0,7.8,4.7,14.4,11.4,17.3c0,0,0,0,0.1,0c0.2,0.1,0.5,0.2,0.8,0.3
		c0.1,0,0.1,0,0.2,0.1c0.2,0.1,0.4,0.2,0.7,0.2c0.1,0,0.2,0,0.2,0.1c0.2,0.1,0.4,0.1,0.6,0.2c0.1,0,0.2,0.1,0.3,0.1
		c0.2,0,0.4,0.1,0.6,0.1c0.1,0,0.2,0.1,0.3,0.1c0.2,0,0.4,0.1,0.5,0.1c0.1,0,0.2,0,0.4,0.1c0.2,0,0.4,0,0.5,0.1c0.1,0,0.2,0,0.4,0
		c0.2,0,0.4,0,0.6,0c0.1,0,0.2,0,0.3,0c0.3,0,0.6,0,0.9,0c8.7,0,16.1-6,18.2-14.1c0.4-1.5,0.6-3.1,0.6-4.7c0-4.3-1.5-8.3-4-11.5
		C30.1,71.3,24.8,68.5,18.8,68.5z M27.4,89l-11.2,6.5c-0.3,0.2-0.7,0.3-1.1,0.3v0c-0.4,0-0.8-0.1-1.1-0.3c-0.7-0.4-1.1-1.2-1.1-2
		v-13c0-0.8,0.4-1.6,1.1-2c0.7-0.4,1.6-0.4,2.3,0L27.4,85c0.7,0.4,1.1,1.2,1.1,2C28.5,87.8,28.1,88.6,27.4,89z"/>
	<path class="st1" d="M94.4,78.9H80c-0.7,0-1.2,0.5-1.2,1.2v14.3c0,0.7,0.5,1.2,1.2,1.2h14.3c0.7,0,1.2-0.5,1.2-1.2V80.1
		C95.6,79.4,95,78.9,94.4,78.9z M87.2,92.2c-2.7,0-5-2.2-5-5s2.2-5,5-5s5,2.2,5,5S89.9,92.2,87.2,92.2z"/>
	<path class="st1" d="M87.2,68.5c-6,0-11.4,2.8-14.8,7.2c-2.5,3.2-4,7.2-4,11.5c0,1.6,0.2,3.2,0.6,4.7c2.1,8.1,9.4,14.1,18.2,14.1
		c0.3,0,0.6,0,0.9,0c0.1,0,0.2,0,0.3,0c0.2,0,0.4,0,0.6,0c0.1,0,0.2,0,0.4,0c0.2,0,0.4,0,0.5-0.1c0.1,0,0.2,0,0.4-0.1
		c0.2,0,0.4-0.1,0.5-0.1c0.1,0,0.2,0,0.3-0.1c0.2,0,0.4-0.1,0.6-0.1c0.1,0,0.2-0.1,0.3-0.1c0.2-0.1,0.4-0.1,0.6-0.2
		c0.1,0,0.2,0,0.2-0.1c0.2-0.1,0.4-0.1,0.7-0.2c0.1,0,0.1,0,0.2-0.1c0.3-0.1,0.5-0.2,0.8-0.3c0,0,0,0,0.1,0
		c6.7-2.9,11.4-9.5,11.4-17.3C106,76.9,97.5,68.5,87.2,68.5z M98.9,94.4c0,2.5-2,4.5-4.5,4.5H80c-2.5,0-4.5-2-4.5-4.5V80.1
		c0-2.5,2-4.5,4.5-4.5h14.3c2.5,0,4.5,2,4.5,4.5V94.4z"/>
	<path class="st1" d="M68.4,19.4c0,0.2,0,0.4,0,0.6c0,0.1,0,0.2,0,0.3c0,0.2,0,0.3,0.1,0.5c0.1,0.6,0.2,1.2,0.3,1.8c0,0,0,0.1,0,0.1
		c0,0.2,0.1,0.4,0.2,0.7c0,0,0,0.1,0,0.1c0.1,0.2,0.1,0.4,0.2,0.6c0,0,0,0.1,0,0.1c0.1,0.2,0.1,0.4,0.2,0.6c0,0.1,0,0.1,0.1,0.2
		c0.1,0.2,0.1,0.4,0.2,0.6c0,0.1,0.1,0.2,0.1,0.2c0.1,0.2,0.1,0.3,0.2,0.5c0.1,0.2,0.2,0.4,0.3,0.5c0,0.1,0.1,0.1,0.1,0.2
		c2.3,4.5,6.3,7.9,11.2,9.4c0,0,0.1,0,0.1,0c0.3,0.1,0.5,0.1,0.8,0.2c0.1,0,0.2,0,0.2,0.1c0.2,0,0.4,0.1,0.5,0.1
		c0.1,0,0.2,0,0.3,0.1c0.2,0,0.5,0.1,0.7,0.1c0.1,0,0.2,0,0.3,0c0.2,0,0.4,0,0.5,0.1c0.1,0,0.2,0,0.3,0c0.3,0,0.5,0,0.8,0.1
		c0.1,0,0.2,0,0.2,0c0.3,0,0.5,0,0.8,0c0,0,0,0,0,0c0,0,0,0,0,0c0.2,0,0.5,0,0.7,0c0.2,0,0.3,0,0.5,0c0.2,0,0.3,0,0.5,0
		c0.1,0,0.3,0,0.4,0c0.2,0,0.4,0,0.5-0.1c0.1,0,0.2,0,0.4-0.1c0.2,0,0.4-0.1,0.6-0.1c0.1,0,0.2,0,0.2,0c0.3-0.1,0.5-0.1,0.7-0.2
		c0,0,0.1,0,0.1,0c6.9-1.8,12.2-7.4,13.7-14.4c0,0,0,0,0-0.1c0.1-0.3,0.1-0.5,0.1-0.8c0-0.1,0-0.1,0-0.2c0-0.2,0.1-0.4,0.1-0.7
		c0-0.1,0-0.2,0-0.3c0-0.2,0-0.4,0-0.6c0-0.1,0-0.3,0-0.4c0-0.2,0-0.3,0-0.5c0-0.2,0-0.3,0-0.5c0-0.1,0-0.3,0-0.4c0-0.2,0-0.4,0-0.6
		c0-0.1,0-0.3,0-0.4c0-0.2,0-0.4-0.1-0.6c0-0.1,0-0.3,0-0.4c0-0.2-0.1-0.4-0.1-0.5c0-0.1,0-0.3-0.1-0.4c0-0.2-0.1-0.3-0.1-0.5
		c0-0.1-0.1-0.3-0.1-0.4c0-0.2-0.1-0.3-0.1-0.5c0-0.1-0.1-0.3-0.1-0.4c0-0.2-0.1-0.3-0.1-0.5c0-0.1-0.1-0.3-0.1-0.4
		c-0.1-0.1-0.1-0.3-0.2-0.4c-0.1-0.1-0.1-0.3-0.2-0.4c-0.1-0.1-0.1-0.3-0.2-0.4c-0.1-0.1-0.1-0.3-0.2-0.4c-0.1-0.1-0.1-0.3-0.2-0.4
		c-0.1-0.1-0.1-0.3-0.2-0.4c-0.1-0.1-0.1-0.2-0.2-0.4c-0.1-0.1-0.2-0.3-0.2-0.4c-0.1-0.1-0.1-0.2-0.2-0.3c-0.1-0.1-0.2-0.3-0.3-0.4
		c-0.1-0.1-0.1-0.2-0.2-0.3c-0.1-0.1-0.2-0.3-0.3-0.4c-0.1-0.1-0.2-0.2-0.2-0.3c-0.1-0.1-0.2-0.2-0.3-0.4c-0.1-0.1-0.2-0.2-0.3-0.3
		c-0.1-0.1-0.2-0.2-0.3-0.3c-0.1-0.1-0.2-0.2-0.3-0.3c-0.1-0.1-0.2-0.2-0.3-0.3c-0.1-0.1-0.2-0.2-0.3-0.3c-0.1-0.1-0.2-0.2-0.3-0.3
		c-0.1-0.1-0.2-0.2-0.4-0.3c-0.1-0.1-0.2-0.2-0.3-0.3c-0.1-0.1-0.3-0.2-0.4-0.3C98.9,4.1,98.8,4,98.7,4c-0.1-0.1-0.3-0.2-0.4-0.3
		c-0.1-0.1-0.2-0.1-0.3-0.2c-0.1-0.1-0.3-0.2-0.5-0.3C97.5,3.1,97.4,3,97.3,3c-0.2-0.1-0.3-0.2-0.5-0.3c-0.1-0.1-0.2-0.1-0.3-0.2
		c-0.2-0.1-0.3-0.2-0.5-0.3c-0.1,0-0.2-0.1-0.3-0.1c-0.2-0.1-0.3-0.2-0.5-0.3c-0.1,0-0.2-0.1-0.3-0.1c-0.2-0.1-0.4-0.2-0.5-0.2
		c-0.1,0-0.2-0.1-0.3-0.1c-0.2-0.1-0.4-0.1-0.5-0.2c-0.1,0-0.2-0.1-0.3-0.1c-0.2-0.1-0.3-0.1-0.5-0.2c-0.1,0-0.3-0.1-0.4-0.1
		c-0.2,0-0.3-0.1-0.5-0.1c-0.1,0-0.3-0.1-0.4-0.1c-0.1,0-0.3-0.1-0.4-0.1c-0.2,0-0.4-0.1-0.5-0.1c-0.1,0-0.3,0-0.4-0.1
		c-0.2,0-0.4-0.1-0.6-0.1c-0.1,0-0.2,0-0.3,0c-0.3,0-0.6,0-0.8-0.1c0,0-0.1,0-0.1,0c-0.3,0-0.6,0-1,0c0,0,0,0,0,0
		c-0.2,0-0.5,0-0.7,0c-0.2,0-0.3,0-0.5,0c-0.2,0-0.3,0-0.5,0c-0.1,0-0.3,0-0.4,0c-0.2,0-0.4,0-0.5,0.1c-0.1,0-0.2,0-0.3,0.1
		c-0.2,0-0.4,0.1-0.6,0.1c-0.1,0-0.1,0-0.2,0c-0.3,0.1-0.5,0.1-0.8,0.2c0,0,0,0-0.1,0c-7.2,1.9-12.7,7.9-13.8,15.3c0,0,0,0.1,0,0.1
		c0,0.3-0.1,0.5-0.1,0.8c0,0.1,0,0.2,0,0.3c0,0.2,0,0.4,0,0.6c0,0.1,0,0.2,0,0.4c0,0.2,0,0.4,0,0.6c0,0.2,0,0.3,0,0.5
		C68.4,19.2,68.4,19.3,68.4,19.4z M81.8,16.8h2.3v-4.6c0-3.4,2.8-6.2,6.2-6.2h2.1c0.9,0,1.6,0.7,1.6,1.6c0,0.9-0.7,1.6-1.6,1.6h-2.1
		c-1.6,0-2.9,1.3-2.9,2.9v4.6H90c0.9,0,1.6,0.7,1.6,1.6c0,0.9-0.7,1.6-1.6,1.6h-2.5v9.8c0,0.9-0.7,1.6-1.6,1.6s-1.6-0.7-1.6-1.6
		v-9.8h-2.3c-0.9,0-1.6-0.7-1.6-1.6C80.1,17.5,80.9,16.8,81.8,16.8z"/>
</g>
</svg>
