<?xml version="1.0" encoding="utf-8"?>
<!-- Generator: Adobe Illustrator 25.0.0, SVG Export Plug-In . SVG Version: 6.00 Build 0)  -->
<svg version="1.1" id="Layer_1" xmlns="http://www.w3.org/2000/svg" xmlns:xlink="http://www.w3.org/1999/xlink" x="0px" y="0px"
	 viewBox="0 0 564.27 478" style="enable-background:new 0 0 564.27 478;" xml:space="preserve">
<style type="text/css">
	.st0{fill:#00B0FB;}
	.st1{fill:#00B0FB;fill-opacity:0.4;}
	.st2{fill:#FFFFFF;}
	.st3{fill:#185AE9;}
	.st4{fill-rule:evenodd;clip-rule:evenodd;fill:#00B0FB;}
	.st5{fill:none;}
	.st6{fill:#3C7CFF;}
	.st7{fill:#001135;}
	.st8{fill:#8DB849;}
	.st9{fill:#5A863E;}
	.st10{fill:#FFFFFE;}
	.st11{fill:#009CDE;}
	.st12{fill:#FCB415;}
	.st13{opacity:0.2;fill:#FFFFFF;enable-background:new    ;}
	.st14{fill:#68B345;}
	.st15{fill:#0A99D6;}
	.st16{opacity:0.1;fill:#010101;enable-background:new    ;}
	.st17{fill:#EE3325;}
	.st18{fill:url(#SVGID_2_);}
	.st19{fill:#B3B3B3;}
	.st20{fill:#A6120D;}
	.st21{fill:#DD1B16;}
	.st22{fill:#F2F2F2;}
	.st23{fill:#FF2D20;}
	.st24{clip-path:url(#SVGID_3_);fill:#F9C638;}
	.st25{fill:#2A2D2C;}
	.st26{fill:#F9C638;}
	.st27{fill:#FDFDFD;}
	.st28{fill:#DBDBDB;}
	.st29{fill:#FBFBFB;}
	.st30{fill:#FCFCFC;}
	.st31{fill:#D2D3D3;}
	.st32{fill:#F6F6F6;}
	.st33{fill:#BABBBB;}
	.st34{fill:#8A8A8A;}
	.st35{fill:#8E8F8F;}
	.st36{fill:#5F5E5E;}
	.st37{fill:#00769D;}
	.st38{clip-path:url(#SVGID_4_);fill:#F9C638;}
	.st39{fill:#92003B;}
	.st40{fill:#E7E7E7;}
	.st41{fill:#FEFEFE;}
	.st42{fill:#EAEAEA;}
	.st43{fill:#E8E8E8;}
	.st44{fill:#E4E4E4;}
	.st45{fill:#D0CFD0;}
	.st46{fill:#E4E3E4;}
	.st47{fill:#C6C5C6;}
	.st48{fill:#BDBDBD;}
	.st49{fill:#CDCDCD;}
	.st50{fill:#C7C7C7;}
	.st51{fill:#D9D9D9;}
	.st52{opacity:0.28;}
</style>
<g>
	<g>
		<g>
			<path d="M217.21,460.92c0.17-5.26,1.86-10.17,3.9-14.98c5.48-12.72,13.33-23.95,21.76-34.8c4.88-6.28,9.96-12.38,15.2-18.33
				c1.52-1.73,3.06-3.45,4.61-5.15c2.36-2.61,4.77-5.19,7.2-7.74c1.74-1.83,3.49-3.65,5.26-5.45c6.01-6.14,12.18-12.14,18.46-18.02
				c0.89-0.84,1.79-1.67,2.7-2.51c0.68-0.64,1.37-1.28,2.06-1.91c4.12-3.8,8.29-7.56,12.48-11.27c0.26-0.24,0.52-0.47,0.79-0.7
				c4.23-3.75,8.5-7.46,12.81-11.12c0.59-0.5,1.19-1.01,1.79-1.51c0.57-0.49,1.15-0.98,1.74-1.46c0.17-0.15,0.35-0.29,0.52-0.43
				c10.51-8.84,21.23-17.43,32.15-25.73c1.07-0.81,2.14-1.62,3.22-2.44c0.15-0.11,0.3-0.23,0.45-0.34c3.47-2.62,6.97-5.2,10.48-7.77
				c3.23-2.35,6.47-4.68,9.73-6.97c1.17-0.84,2.35-1.67,3.53-2.49c11.53-8.07,23.28-15.85,35.24-23.33
				c1.83-1.15,3.67-2.29,5.51-3.42c1.12-0.69,2.24-1.38,3.36-2.06c5.73-3.49,11.51-6.91,17.35-10.22c1.54-0.88,3.09-1.75,4.65-2.61
				c14.94-8.3,30.27-15.85,46.2-22.2c13.97-5.54,28.14-10.4,43.57-11.02c2.2,0.23,4.58,0.17,6.9,0.51
				c8.81,1.41,13.56,6.95,13.44,15.82c-0.04,4.81-1.36,9.27-3.11,13.67c-4.57,11.59-11.35,21.88-18.7,31.77
				c-9.17,12.33-19.13,23.93-29.64,35.03c-1.43,1.52-2.88,3.02-4.33,4.52c-1,1.04-2.02,2.07-3.03,3.1c-0.97,1-1.95,1.98-2.93,2.96
				c-1.76,1.76-3.53,3.5-5.31,5.25c-0.03,0.03-0.07,0.07-0.11,0.1c-0.94,0.93-1.9,1.85-2.85,2.76c-0.2,0.2-0.4,0.39-0.6,0.57
				c0,0.03-0.01,0.03-0.01,0.03c-0.12,0.11-0.23,0.22-0.35,0.33c-2.87,2.77-5.78,5.52-8.71,8.24c-1.03,0.96-2.07,1.91-3.1,2.86
				c-0.71,0.67-1.43,1.33-2.15,1.99c-0.7,0.64-1.41,1.28-2.12,1.92c-0.53,0.48-1.06,0.98-1.61,1.46c-0.56,0.51-1.12,1.01-1.68,1.5
				c-2.26,2.05-4.54,4.07-6.83,6.08c-0.28,0.23-0.55,0.48-0.82,0.71c-0.1,0.09-0.19,0.18-0.29,0.26c-0.58,0.5-1.15,1-1.73,1.5
				c-0.27,0.24-0.54,0.48-0.8,0.69c-2.78,2.42-5.57,4.81-8.38,7.17c-1.14,0.97-2.27,1.92-3.41,2.87c-1.06,0.89-2.12,1.76-3.19,2.64
				c-2.21,1.83-4.45,3.66-6.69,5.47c-0.01,0-0.01,0-0.01,0.01c-2.18,1.76-4.36,3.51-6.55,5.24c-0.2,0.16-0.41,0.32-0.61,0.48
				c-0.93,0.74-1.86,1.48-2.8,2.21c-0.92,0.72-1.84,1.43-2.76,2.14c-1.2,0.95-2.41,1.88-3.63,2.81c-3.76,2.89-7.54,5.76-11.35,8.58
				c-0.81,0.61-1.62,1.22-2.43,1.82c-1.77,1.31-3.54,2.61-5.32,3.9c-1.03,0.75-2.06,1.49-3.09,2.23c-2.56,1.87-5.15,3.71-7.74,5.54
				c-0.05,0.03-0.09,0.07-0.14,0.1c-0.15,0.11-0.29,0.2-0.44,0.31c-0.84,0.59-1.66,1.17-2.51,1.75c-0.16,0.11-0.32,0.22-0.48,0.33
				c-0.09,0.07-0.19,0.14-0.29,0.2c-3.62,2.55-7.25,5.05-10.92,7.52c-2.47,1.69-4.95,3.35-7.44,4.99c-1,0.67-2,1.34-3.02,1.98
				c-0.26,0.17-0.5,0.33-0.76,0.5c-0.89,0.59-1.78,1.17-2.68,1.76c-1.06,0.67-2.11,1.36-3.17,2.04c-4.61,2.94-9.26,5.84-13.95,8.67
				c-1.07,0.66-2.14,1.3-3.21,1.94c-0.8,0.48-1.59,0.95-2.38,1.42c-1.06,0.63-2.13,1.26-3.2,1.89c-6.44,3.76-12.94,7.41-19.54,10.93
				c-3.81,2.03-7.64,4.02-11.5,5.95c-0.98,0.51-1.96,0.99-2.94,1.49c-3.01,1.49-6.03,2.95-9.06,4.37v0.01
				c-1.34,0.62-2.67,1.24-4.01,1.84c-2.28,1.04-4.58,2.05-6.89,3.03c-9.41,3.99-19.04,7.48-29.02,10.12
				c-8.64,2.26-17.35,3.95-26.38,2.82C221.9,476.4,216.87,470.64,217.21,460.92z"/>
			<g>
				<g>
					<path class="st2" d="M386.84,397.27c-1.58,1.05-3.16,2.1-4.74,3.15C382.94,397.61,384.72,397.1,386.84,397.27z"/>
					<path class="st28" d="M433.83,363.34c-1.78,1.39-3.57,2.75-5.35,4.12c-1.1,0.84-2.21,1.67-3.32,2.52
						c-0.15,0.11-0.31,0.24-0.46,0.35c-3.58,2.7-7.19,5.36-10.81,8.02c-1.55,1.12-3.09,2.25-4.64,3.36
						c-0.1-0.59-0.23-1.19-0.36-1.77c-2.89-12.97-11.08-21.44-23.19-23.12c6.61-2.94,13.08-3.71,19.2-5.61
						c12.34-3.82,21.1,0.9,28.01,10.78C433.21,362.43,433.52,362.89,433.83,363.34z"/>
					<path class="st28" d="M450.29,346.82c-8.29-1.77-16.56-1.83-25.41,0.63c3.51,2.87,6.57,5.32,9.07,8.36
						c1.26,1.54,2.44,3.11,3.53,4.71c5.44-4.24,10.81-8.55,16.14-12.94C452.52,347.3,451.4,347.05,450.29,346.82z M488.44,268.57
						c-0.66-11.36-2.1-22.71-6.09-33.54c-1.22-3.3-2.92-6.05-5.81-8.12c-4.48-3.21-9.07-6.23-13.85-8.92
						c-2.89-1.63-5.85-3.14-8.91-4.48c-1.61-0.71-3.23-1.31-5.09-1.15c-21.55,1.99-42.69,6.11-63.42,12.3
						c-1.77,0.54-3.68,1.08-4.34-1.33c-0.6-2.19,0.93-3.23,2.84-3.67c19.39-4.58,38.69-9.68,58.62-11.55
						c4.14-0.39,8.32-1.4,12.49,0.2c1.14,0.44,2.46,1.89,3.67,0.63c1.2-1.24,0.92-3.04,0.71-4.67c-0.19-1.43-1.22-2.38-1.98-3.51
						c-4.67-6.83-10.43-12.94-14.11-20.4c-1.97-4.01-5.05-5.88-9.16-6.5c-8.08-1.21-16.21-1.72-24.37-1.34
						c-5.77,0.28-5.91,0.85-3.67,6.27c1.44,3.49,3.16,4.43,6.68,2.42c3.39-1.93,7.15-3.25,10.79-4.75c1.71-0.7,3.29-0.47,3.96,1.53
						c0.71,2.07-0.59,3.05-2.33,3.53c-11.87,3.3-21.68,10.43-31.68,17.19c-10.56,7.15-21.13,14.32-31.6,21.61
						c-3.52,2.46-6.38,2.51-9.66-0.56c-4.06-3.81-8.37-7.38-11.72-11.85c-1.22-1.62-2.42-3.34-3.15-5.2
						c-1.87-4.83,1.05-8.41,6.18-7.97c2.27,0.2,3.93,1.58,6.14,2.76c0.78-6.29,0.51-6.64-4.98-6.98
						c-9.12-0.56-18.95,7.65-20.46,16.88c-0.81,4.96,1.05,8.43,5.16,10.98c2.34,1.44,4.96,2.14,7.54,2.99
						c2.85,0.95,4.1,2.72,2.91,5.95c-0.92,2.53-1.5,5.25-1.74,7.92c-1.84,20.17-2.37,40.39-2.35,60.63
						c0.01,1.51,0.29,3.08-1.39,3.91c-1.16,0.58-2.43,0.58-3.48-0.23c-1.4-1.08-1.05-2.67-0.89-4.15c0.26-2.42,0.69-4.84,0.79-7.27
						c0.37-9.62,0.54-19.26,0.98-28.88c0.46-9.9,0.45-19.86,2.7-29.58c0.7-3.07-0.18-4.36-2.94-5.45
						c-4.86-1.89-9.46-4.31-11.56-9.58c-0.66-1.67-1.68-1.41-2.9-0.83c-3.79,1.83-7.46,3.95-11.39,5.41
						c-11.86,4.43-18.06,13.51-21.99,24.98c-4.66,13.66-7.87,27.65-10.91,41.71c-1.24,5.71-4.4,17.35-6.01,24.26
						c5.9,14.04,11.82,28.06,17.76,42.07c1.07,2.55,2.16,5.1,3.24,7.64c0.38,0.91,0.43,2.59,1.84,2.24c1.36-0.34,2.05-1.69,1.9-3.24
						c-0.36-3.64-0.68-7.29-1.1-10.92c-0.04-0.42-0.05-0.89-0.13-1.33c-0.11-0.73-0.43-1.39-1.5-1.57
						c-7.1-1.19-5.45-8.12-8.37-12.06c1.38,0.85,2.33,1.98,3.27,3.13c0.98,1.19,2.3,1.86,3.66,2.52c1.9,0.92,2.77,0.54,2.63-1.7
						c-0.19-2.98-0.21-5.98-0.45-8.95c-2.1-24.91-3.03-49.87-2.96-74.87c0.01-3.34,0.78-6.45,2.28-9.39
						c0.36-0.71,0.78-1.65,1.7-1.49c1.07,0.2,0.74,1.17,0.72,1.98c-1.01,32.71,1.7,65.29,3.73,97.88c0.28,4.39,0.54,8.8,0.77,13.19
						c0.1,2,0.95,1.89,2.54,1.93c4.58,0.09,8.9-0.76,13.04-2.64c4.58-2.08,9.13-2.01,13.86-0.43c8.61,2.87,17.29,5.55,25.95,8.27
						c9.16,2.89,17.98-0.7,26.94-1.56c1.26-0.11,1.69-1.02,1.81-2.29c0.3-3.4,2.51-5.29,5.52-6.36c9.09-3.23,18.34-5.97,27.9-7.15
						c3.72-0.46,4.83-2.09,5.36-5.19c1.55-8.97,2.03-18.05,2.56-27.13c0.9-15.53-0.01-31.35,7.09-45.94
						c2.14-4.38,4.24-8.79,6.34-13.19c4.21-8.81,10.6-15.7,18.65-21.09c1.77-1.19,4.27-3.75,5.82-1.79
						c1.11,1.41-2.14,3.27-3.74,4.58c-16.02,13.02-24.34,30.64-27.53,50.28c-2.46,15.07-2.28,30.57-3.24,45.87
						c-0.04,0.83-0.61,1.9,0.87,2.64c1.34-1.59,2.72-3.24,4.12-4.87c6.32-7.47,12.73-14.87,20.29-21.13
						c1.68-1.39,4.01-4.42,6.08-1.9c1.6,1.96-1.72,3.53-3.17,4.85c-9.01,8.14-17.08,17.08-24.08,27c-0.65,0.93-1.77,1.75-1.39,3.4
						c0.76,0,1.55,0.06,2.32-0.01c9.66-0.96,19.06,0.08,28.27,2.63c1.27-1.04,2.53-2.09,3.79-3.16c0.18-0.14,0.36-0.29,0.54-0.44
						c0.61-0.5,1.21-1,1.8-1.51c0.62-0.52,1.24-1.04,1.85-1.56c4.45-3.78,8.85-7.6,13.21-11.47c0.28-0.24,0.55-0.47,0.82-0.72
						c2.97-2.63,5.94-5.29,8.88-7.97C489.6,301.06,489.39,284.82,488.44,268.57z M364.92,282.83c-0.06,1.77-1.03,2.83-2.85,2.7
						c-0.16-0.01-0.32-0.03-0.46-0.05c-0.11-0.02-0.22-0.04-0.32-0.07c-0.12-0.03-0.24-0.06-0.35-0.1
						c-0.03-0.01-0.06-0.02-0.09-0.04c-0.12-0.05-0.25-0.11-0.36-0.18c-0.12-0.07-0.24-0.15-0.34-0.24
						c-0.07-0.06-0.14-0.13-0.21-0.21c-0.17-0.19-0.3-0.39-0.39-0.63c-0.02-0.05-0.04-0.11-0.06-0.18
						c-0.02-0.08-0.04-0.17-0.05-0.25c-0.02-0.05-0.02-0.1-0.03-0.17c-0.01-0.1-0.02-0.22-0.02-0.33c0-0.27,0.03-0.56,0.1-0.87
						c0.51-2.14,0.71-4.26,0.78-6.44c0.65-17.52,4.63-34.36,10.13-50.92c0.71-2.13,2.03-2.96,3.99-2.23
						c2.06,0.77,2.31,2.44,1.3,4.33c-0.64,1.19-1.42,2.32-1.88,3.58c-5.47,15.04-8.03,30.66-8.87,46.57c0,1.2,0.02,2.38,0.02,3.57
						c0,0.5-0.01,0.99-0.02,1.49c0,0.15-0.01,0.3-0.01,0.45C364.92,282.69,364.92,282.77,364.92,282.83z"/>
					<path class="st2" d="M396.91,149.43c0.14-2.47-0.37-3.58-3.04-2.79c-0.75,0.22-1.62,0.1-2.42,0.08
						c-2.08-0.06-3.99-0.53-3.64-3.19c0.33-2.49,2.18-1.89,3.78-1.46c2.55,0.68,4.69-0.31,6.28-2.02c5.12-5.5,8.68-11.78,8.62-19.58
						c-0.02-3.22-1.23-5.84-4.32-7.23c-3.24-1.45-5.86-0.03-8.13,2.08c-2.64,2.47-4.19,5.57-4.86,9.18
						c-0.76,4.07-6.08,7.05-10.03,5.87c-1.53-0.46-1.68-1.67-1.71-2.88c-0.18-6.54-2.74-11.65-8.17-15.55
						c-3.72-2.68-4.9-6.71-3.69-11.26c0.94-3.54,2.1-7.05,2.71-10.64c0.67-3.95-0.84-5.32-4.8-4.57c-9.2,1.73-18.37,3.62-27.55,5.43
						c-3.22,0.64-6.59,1.25-9.7,0.41c-3.94-1.06-4.76,0.86-5.99,3.89c-2.7,6.61-1.46,13.4-1.65,20.13c-0.06,1.92,1.23,2.07,2.7,2.17
						c2.02,0.13,4.1,0.28,5.84,1.48c0.9,0.62,1.85,1.37,1.31,2.65c-0.44,1.05-1.45,1.09-2.44,0.94c-0.94-0.14-1.87-0.4-2.81-0.46
						c-1.16-0.06-3.12-1.11-2.77,1.34c0.2,1.36-0.26,4.01,2.85,3.11c2.92-0.85,5.17,1.26,7.69,2.06c1.5,0.47,1.36,2.18,1.28,3.56
						c-0.22,3.69-1.3,7.19-2.39,10.69c-1.23,3.89-0.58,4.93,3.26,5.53c1.2,0.2,3.29-0.56,3.11,1.51c-0.18,1.78-2.24,1.11-3.42,1.13
						c-4.95,0.11-7.13-2.79-5.89-7.67c1.03-4.12,3.17-7.99,2.82-13.72c-2.07,2.77-3.3,4.42-5.97,4.09
						c-2.38-0.29-1.27,1.86-1.21,2.86c0.62,10.61,3.93,20.46,8.94,29.76c1.49,2.76,2.75,5.6,3.78,8.55c1.78,5.18,3.82,6.49,9.3,6.48
						c6.42-0.01,12.32-2.03,17.97-4.7c6.25-2.95,12.38-6.22,17.46-11.08c0.72-0.68,1.48-1.96,2.69-1.26
						c1.59,0.91,0.87,2.44,0.37,3.64c-3.57,8.74-9.99,15.07-17.53,20.4c-1.76,1.25-3.63,2.65-5.65,3.16
						c-5.01,1.26-5.97,4.35-5.57,9.02c0.33,3.74-0.46,7.58-0.45,11.37c0.01,4.8,2.31,6.18,6.34,3.71
						c11.36-6.94,22.08-14.83,33-22.43c2.9-2.01,5.75-4.1,8.7-6.02c1.69-1.1,1.91-2.25,1.07-4.05
						C398.03,172.43,396.21,161.14,396.91,149.43z M392.18,131.68c1.04-1.64,1.83-3.33,1.29-5.69c0.08-0.6,0.02-1.61,0.37-2.43
						c0.55-1.27,1.78-1.53,3.09-1.4c0.9,0.08,1.97,0.86,1.67,1.38c-1.75,3.2-0.47,7.4-3.4,10.16c-0.85,0.79-1.82,1.37-2.88,0.57
						C391.4,133.56,391.64,132.53,392.18,131.68z M352.16,157.61c-3.82,3.14-8.29,4.45-13.37,4.62c-1.64-0.35-4.67,0.65-4.67-2.14
						c-0.01-2.67,2.89-1.69,4.61-1.69c4.18-0.01,8.09-0.7,11.39-3.49c0.95-0.8,1.82-2.65,3.2-1.08
						C354.56,155.24,353.37,156.61,352.16,157.61z M351.85,130.5c-0.75,1.51-2.7,1.55-3.96,0.67c-1.46-1.01-3.92-1.46-4.03-3.45
						c-0.1-1.63,1.83-2.57,3.35-3.14c3.86-1.43,6.89,0.6,10.02,2.67C355.09,128.09,353.02,128.17,351.85,130.5z M360.01,118.27
						c-0.26,0.96-1.14,1.19-1.94,1.02c-5.05-1.05-9.9-0.41-14.69,1.46c-1.19,0.46-2.51,0.08-2.84-1.45
						c-0.3-1.44,0.58-2.29,1.85-2.72c2.95-1.01,5.94-1.82,9.48-1.84c2.19,0.09,4.74,0.29,7.06,1.59
						C359.69,116.76,360.26,117.34,360.01,118.27z"/>
					<path class="st2" d="M343.11,84.52c-0.65,0.13-1.34,0.09-1.9,0.12c-5.07-0.57-10.17-0.74-14.02-4.59
						c-0.72-0.72-1.63-1.62-0.65-2.79c0.76-0.9,1.7-0.74,2.53-0.13c4.11,3.05,8.81,3.86,13.78,3.7c1.17-0.04,2.27,0.26,2.35,1.63
						C345.26,83.75,344.23,84.29,343.11,84.52z"/>
					<path class="st2" d="M292.57,367.11c-0.21,0.26-0.59,0.38-0.9,0.57c0.57-3.29,2.37-5.43,5.31-6.56
						C295.67,363.25,294.14,365.2,292.57,367.11z"/>
					<path class="st28" d="M317.68,395.3c18.15-0.43,36.32,0.43,54.46-0.71c0.94-0.06,1.91-0.09,2.84,0.02
						c1.35,0.17,3.07,0.41,2.89,2.14c-0.17,1.67-1.9,1.11-3.02,1.1c-20.32-0.19-40.63,1.14-60.96,0.64
						c-2.05-0.05-4.33-0.07-5.7,1.61c-2.41,2.95-3.03,1.22-3.68-1.1c-0.32-1.13-1.28-2.07-0.86-3.95
						C308.3,396.74,312.98,395.41,317.68,395.3z"/>
					<path d="M210.79,351.28c2.79,0.42,4.59,2.19,5.1,4.98c0.29,1.63-0.69,2.73-2.33,2.45c-2.74-0.47-4.45-2.26-5.21-4.73
						C208.37,352.13,209.16,351.04,210.79,351.28z"/>
					<path class="st28" d="M297.14,398.59c-5.78-13.91-11.56-27.79-17.36-41.69c-4.33-10.39-8.68-20.78-13.01-31.16
						c-2.71-6.51-5.61-12.96-8.08-19.56c-1.6-4.31-4.38-5.52-8.76-5.48c-16.69,0.19-33.39,0.08-50.09,0.08l-51.71,1.81
						c-3.95,0.01-5.38,2.49-3.83,6.82c3.12,8.68,6.38,17.3,9.57,25.95c6.97,18.83,13.95,37.65,20.9,56.49
						c3.12,8.44,4.02,8.71,12.93,8.76c13.98,0.09,27.96,0.7,41.92,1.09c3.66,0.1,7.32,0.21,10.99,0.32
						c17.64,0.51,35.28,1.02,52.92,1.5C298.12,403.65,298.84,402.7,297.14,398.59z M213.58,362.96c-4.45-0.11-9.63-5.58-9.55-10.05
						c0.07-3.64,3.01-6.54,6.49-6.41c4.82,0.2,9.72,5.6,9.51,10.5C219.89,360.41,217.03,363.05,213.58,362.96z"/>
					<path class="st2" d="M405.11,384.62c-0.42,0.31-0.85,0.61-1.27,0.91c-1.21,0.87-2.42,1.72-3.64,2.57
						c-2.67,1.88-5.36,3.73-8.07,5.57c-1.82-0.38-3.62-0.76-5.44-1.11c-7.83-1.53-15.61-4.26-23.69-2.65
						c-10.79,2.16-21.26,1.98-31.49-2.48c-6.54-2.86-12.68-2.44-18.11,2.66c-0.67,0.64-1.56,1.08-2.39,1.51
						c-1.29,0.65-2.39,0.03-3.36-0.74c-1.15-0.91-1.1-2.14-0.6-3.34c1.11-2.64,3.25-4.31,5.71-5.55c3.06-1.55,6.4-2.24,9.76-2.76
						c1.74-0.28,3.52-0.84,3.08-2.9c-0.38-1.84-2.29-1.72-3.75-1.35c-7.05,1.81-14.6,2.64-19,9.68c-0.34,0.55-0.96,0.96-1.53,1.32
						c-1.11,0.69-2.23,1-3.24-0.25c-0.9-1.1-0.77-1.97-0.03-3.25c4.27-7.3,10.01-12.37,18.8-13.19c0.94-0.08,1.87-0.34,2.77-0.6
						c1.29-0.35,2.32-1.08,2.05-2.57c-0.31-1.72-1.74-2.08-3.15-1.7c-8.02,2.23-16.8,3.08-21.26,11.81
						c-0.42,0.84-1.05,2.76-2.58,1.61c-0.95-0.73-1.92-2.43-1.2-3.62c2.65-4.36,4.64-9.48,9.66-11.76
						c9.05-4.12,18.29-6.94,27.94-1.56c0.7,0.38,1.53,0.57,2.29,0.84c12.24,4.23,24.46,8.19,37.75,4.91
						c5.65-1.39,11.53-1.82,17.25-2.98c3.16-0.64,5.46,0.23,7.7,2.38C401.48,371.23,404.14,377.58,405.11,384.62z"/>
					<path d="M493.13,271.81c-0.53-10.87-1.87-21.59-4.47-32.17c-2.19-8.89-6.61-15.96-14.87-20.34c-1.56-0.83-2.95-1.95-4.49-2.81
						c-0.64-0.36-1.27-0.71-1.87-1.07c-3.14-1.91-5.45-4.14-3.87-9.06c0.96-3.02-0.73-6.07-2.83-8.58
						c-5.55-6.72-10.3-14.01-14.69-21.5c-2.36-4.01-5.71-5.93-10.08-6.72c-9.55-1.72-19.18-2.24-28.81-1.43
						c-3.71,0.32-4.7-0.9-5.37-4.3c-1.64-8.38-0.54-16.05,3.6-23.56c7.96-14.49,11.86-30,10.14-46.63
						c-1.19-11.33-6.43-20.02-17.01-25.01c-1.39-0.65-2.5-1.56-3.53-2.67c-6.16-6.63-13.77-9.57-22.85-9.88
						c-11.4-0.39-22.14,1.51-32.27,6.8c-4.55,2.37-9.05,3.91-14.3,1.4c-3.14-1.49-5.03,0.29-5.6,4.22c-0.64,4.48-0.87,4.68-4.95,2.6
						c-2.86-1.45-3.46,0.35-3.67,2.37c-0.59,5.35,1.66,9.8,5.01,13.74c1.01,1.18,1.86,1.91,0.97,3.75
						c-4.72,9.83-3.56,20.2-1.71,30.32c1.17,6.39,2.91,12.64,3.26,19.19c0.37,6.86,2.74,13.28,5.2,19.61
						c2.44,6.31,6.08,12.11,7.96,18.67c0.98,3.39,3.87,5.11,6.93,6.76c-9.76,4.13-16.31,11.08-19.73,20.92
						c-0.57,1.62-2.08,2.08-3.37,2.74c-6.52,3.33-13.03,6.68-19.63,9.86c-5.25,2.54-8.84,6.55-11.54,11.62
						c-7.31,13.7-10.47,28.74-14.2,43.58c-1.77,7.05-5.09,20.28-7.04,28.47c-2.56-4.93-5.78-6.75-12.14-6.61
						c-32.72,0.66-65.44,1.4-98.17,2.1c-1.76,0.04-3.53,0.05-5.29,0.03c-6.59-0.05-10.22,4.84-8.01,11.17
						c4.28,12.16,8.68,24.27,13.14,36.35c5.93,16.04,11.98,32.03,17.95,48.04c1.88,5.02,3.85,9.95,9.83,11.76
						c-0.06,0.08-0.12,0.13-0.18,0.21h0.03c4.06,0,6.94,1.84,8.64,4.45c15.17,0,30.34-0.01,45.51-0.01
						c21.26-0.01,42.53-0.01,63.8-0.01H367c5.08-3.2,10.11-6.46,15.11-9.77c0.83-2.81,2.61-3.32,4.74-3.15
						c1.76-1.2,3.53-2.39,5.29-3.6c-1.82-0.38-3.62-0.76-5.44-1.11c-7.83-1.53-15.61-4.26-23.69-2.65
						c-10.79,2.16-21.26,1.98-31.49-2.48c-6.54-2.86-12.68-2.44-18.11,2.66c-0.67,0.64-1.56,1.08-2.39,1.51
						c-1.29,0.65-2.39,0.03-3.36-0.74c-1.15-0.91-1.1-2.14-0.6-3.34c1.11-2.64,3.25-4.31,5.71-5.55c3.06-1.55,6.4-2.24,9.76-2.76
						c1.74-0.28,3.52-0.84,3.08-2.9c-0.38-1.84-2.29-1.72-3.75-1.35c-7.05,1.81-14.6,2.64-19,9.68c-0.34,0.55-0.96,0.96-1.53,1.32
						c-1.11,0.69-2.23,1-3.24-0.25c-0.9-1.1-0.77-1.97-0.03-3.25c4.27-7.3,10.01-12.37,18.8-13.19c0.94-0.08,1.87-0.34,2.77-0.6
						c1.29-0.35,2.32-1.08,2.05-2.57c-0.31-1.72-1.74-2.08-3.15-1.7c-8.02,2.23-16.8,3.08-21.26,11.81
						c-0.42,0.84-1.05,2.76-2.58,1.61c-0.95-0.73-1.92-2.43-1.2-3.62c2.65-4.36,4.64-9.48,9.66-11.76
						c9.05-4.12,18.29-6.94,27.94-1.56c0.7,0.38,1.53,0.57,2.29,0.84c12.24,4.23,24.46,8.19,37.75,4.91
						c5.65-1.39,11.53-1.82,17.25-2.98c3.16-0.64,5.46,0.23,7.7,2.38c5.42,5.22,8.08,11.56,9.05,18.61
						c1.38-0.96,2.75-1.94,4.13-2.92c-0.1-0.59-0.23-1.19-0.36-1.77c-2.89-12.97-11.08-21.44-23.19-23.12
						c6.61-2.94,13.08-3.71,19.2-5.61c12.34-3.82,21.1,0.9,28.01,10.78c0.32,0.45,0.63,0.91,0.94,1.36
						c1.22-0.93,2.43-1.88,3.64-2.83c-1.08-1.61-2.27-3.18-3.53-4.71c-2.5-3.03-5.56-5.49-9.07-8.36c8.85-2.46,17.11-2.4,25.41-0.63
						c1.11,0.24,2.23,0.48,3.33,0.76c1.41-1.16,2.83-2.32,4.24-3.51c-9.2-2.55-18.61-3.59-28.27-2.63
						c-0.77,0.07-1.56,0.01-2.32,0.01c-0.38-1.65,0.74-2.48,1.39-3.4c6.99-9.91,15.07-18.86,24.08-27c1.44-1.32,4.77-2.89,3.17-4.85
						c-2.06-2.52-4.39,0.51-6.08,1.9c-7.56,6.26-13.97,13.66-20.29,21.13c-1.39,1.63-2.77,3.28-4.12,4.87
						c-1.48-0.74-0.91-1.82-0.87-2.64c0.96-15.31,0.78-30.8,3.24-45.87c3.2-19.64,11.51-37.26,27.53-50.28
						c1.61-1.31,4.86-3.17,3.74-4.58c-1.55-1.96-4.04,0.61-5.82,1.79c-8.05,5.38-14.44,12.28-18.65,21.09
						c-2.1,4.4-4.21,8.81-6.34,13.19c-7.1,14.59-6.19,30.41-7.09,45.94c-0.53,9.08-1.01,18.16-2.56,27.13
						c-0.54,3.09-1.64,4.72-5.36,5.19c-9.56,1.18-18.82,3.92-27.9,7.15c-3.01,1.07-5.22,2.96-5.52,6.36
						c-0.11,1.27-0.55,2.18-1.81,2.29c-8.96,0.86-17.78,4.45-26.94,1.56c-8.67-2.72-17.34-5.41-25.95-8.27
						c-4.74-1.58-9.28-1.65-13.86,0.43c-4.14,1.88-8.46,2.73-13.04,2.64c-1.59-0.04-2.43,0.07-2.54-1.93
						c-0.24-4.39-0.5-8.8-0.77-13.19c-2.03-32.59-4.75-65.16-3.73-97.88c0.02-0.81,0.35-1.78-0.72-1.98
						c-0.92-0.17-1.34,0.77-1.7,1.49c-1.5,2.94-2.27,6.05-2.28,9.39c-0.07,25.01,0.86,49.96,2.96,74.87
						c0.25,2.97,0.27,5.97,0.45,8.95c0.14,2.24-0.73,2.62-2.63,1.7c-1.36-0.66-2.68-1.33-3.66-2.52c-0.94-1.15-1.89-2.28-3.27-3.13
						c2.92,3.94,1.27,10.87,8.37,12.06c1.06,0.18,1.38,0.84,1.5,1.57c0.08,0.44,0.09,0.91,0.13,1.33c0.42,3.63,0.74,7.28,1.1,10.92
						c0.15,1.55-0.54,2.9-1.9,3.24c-1.4,0.35-1.45-1.33-1.84-2.24c-1.08-2.55-2.17-5.1-3.24-7.64
						c-5.94-14.01-11.86-28.03-17.76-42.07c1.61-6.91,4.78-18.55,6.01-24.26c3.04-14.06,6.25-28.05,10.91-41.71
						c3.93-11.47,10.13-20.56,21.99-24.98c3.93-1.45,7.6-3.58,11.39-5.41c1.22-0.59,2.24-0.85,2.9,0.83
						c2.1,5.27,6.71,7.7,11.56,9.58c2.76,1.08,3.64,2.37,2.94,5.45c-2.25,9.72-2.24,19.67-2.7,29.58
						c-0.44,9.62-0.61,19.26-0.98,28.88c-0.1,2.43-0.54,4.85-0.79,7.27c-0.16,1.48-0.52,3.06,0.89,4.15c1.04,0.8,2.32,0.8,3.48,0.23
						c1.68-0.83,1.4-2.4,1.39-3.91c-0.02-20.24,0.52-40.46,2.35-60.63c0.25-2.67,0.83-5.4,1.74-7.92c1.19-3.23-0.06-5-2.91-5.95
						c-2.58-0.86-5.2-1.55-7.54-2.99c-4.11-2.55-5.97-6.01-5.16-10.98c1.51-9.22,11.34-17.43,20.46-16.88
						c5.49,0.34,5.77,0.69,4.98,6.98c-2.21-1.19-3.87-2.57-6.14-2.76c-5.13-0.43-8.05,3.15-6.18,7.97c0.72,1.86,1.93,3.58,3.15,5.2
						c3.35,4.48,7.65,8.05,11.72,11.85c3.28,3.06,6.14,3.01,9.66,0.56c10.47-7.29,21.03-14.46,31.6-21.61
						c10-6.76,19.81-13.89,31.68-17.19c1.74-0.47,3.04-1.45,2.33-3.53c-0.67-2-2.25-2.23-3.96-1.53c-3.64,1.5-7.4,2.82-10.79,4.75
						c-3.53,2-5.24,1.06-6.68-2.42c-2.24-5.43-2.09-5.99,3.67-6.27c8.16-0.38,16.29,0.13,24.37,1.34c4.11,0.62,7.19,2.49,9.16,6.5
						c3.68,7.47,9.44,13.58,14.11,20.4c0.76,1.12,1.79,2.07,1.98,3.51c0.21,1.63,0.48,3.44-0.71,4.67
						c-1.22,1.26-2.53-0.19-3.67-0.63c-4.17-1.6-8.36-0.59-12.49-0.2c-19.93,1.88-39.23,6.97-58.62,11.55
						c-1.91,0.44-3.44,1.49-2.84,3.67c0.66,2.41,2.57,1.87,4.34,1.33c20.73-6.19,41.87-10.31,63.42-12.3
						c1.86-0.17,3.48,0.43,5.09,1.15c3.06,1.34,6.02,2.85,8.91,4.48c4.79,2.69,9.38,5.71,13.85,8.92c2.89,2.07,4.59,4.82,5.81,8.12
						c3.98,10.83,5.43,22.18,6.09,33.54c0.95,16.25,1.16,32.48,0.29,48.67c1.33-1.21,2.66-2.42,3.99-3.65
						c0.27-0.25,0.54-0.5,0.8-0.74C494.04,299.21,493.79,285.53,493.13,271.81z M303.67,395.05c4.63,1.68,9.32,0.36,14.02,0.25
						c18.15-0.42,36.31,0.43,54.46-0.7c0.95-0.06,1.91-0.09,2.85,0.02c1.34,0.17,3.06,0.4,2.88,2.14c-0.16,1.67-1.9,1.11-3.01,1.1
						c-20.32-0.2-40.63,1.13-60.96,0.63c-2.05-0.04-4.33-0.07-5.69,1.61c-2.41,2.96-3.03,1.22-3.68-1.09
						C304.2,397.87,303.25,396.93,303.67,395.05z M296.98,361.12c-1.32,2.13-2.85,4.07-4.42,5.99c-0.21,0.26-0.59,0.38-0.9,0.57
						C292.25,364.39,294.04,362.25,296.98,361.12z M266.77,325.74c4.33,10.39,8.68,20.78,13.01,31.16
						c5.8,13.9,11.58,27.78,17.36,41.69c1.7,4.11,0.98,5.05-3.61,4.93c-17.64-0.47-35.28-0.99-52.92-1.5
						c-3.66-0.11-7.32-0.22-10.99-0.32c-13.97-0.39-27.95-1-41.92-1.09c-8.9-0.05-9.81-0.32-12.93-8.76
						c-6.95-18.84-13.93-37.66-20.9-56.49c-3.2-8.65-6.46-17.28-9.57-25.95c-1.56-4.33-0.12-6.81,3.83-6.82l51.71-1.81
						c16.7,0,33.4,0.1,50.09-0.08c4.37-0.04,7.16,1.17,8.76,5.48C261.16,312.78,264.06,319.23,266.77,325.74z M326.54,77.26
						c0.76-0.91,1.7-0.74,2.53-0.13c4.11,3.05,8.81,3.86,13.78,3.69c1.17-0.04,2.27,0.27,2.34,1.63c0.07,1.3-0.96,1.84-2.08,2.06
						c-0.65,0.13-1.34,0.09-1.9,0.12c-5.08-0.58-10.17-0.73-14.03-4.59C326.47,79.33,325.55,78.43,326.54,77.26z M401.89,187.18
						c-2.95,1.93-5.8,4.01-8.7,6.02c-10.92,7.59-21.64,15.48-33,22.43c-4.03,2.47-6.33,1.08-6.34-3.71
						c-0.01-3.79,0.78-7.62,0.45-11.37c-0.4-4.66,0.56-7.76,5.57-9.02c2.02-0.51,3.89-1.91,5.65-3.16
						c7.54-5.33,13.96-11.67,17.53-20.4c0.5-1.2,1.22-2.73-0.37-3.64c-1.22-0.7-1.97,0.58-2.69,1.26
						c-5.09,4.86-11.21,8.13-17.46,11.08c-5.65,2.67-11.55,4.69-17.97,4.7c-5.49,0.01-7.52-1.3-9.3-6.48
						c-1.02-2.95-2.29-5.79-3.78-8.55c-5.01-9.3-8.32-19.15-8.94-29.76c-0.06-1-1.18-3.15,1.21-2.86c2.67,0.33,3.9-1.31,5.97-4.09
						c0.35,5.73-1.78,9.6-2.82,13.72c-1.24,4.89,0.94,7.79,5.89,7.67c1.19-0.02,3.25,0.65,3.42-1.13c0.19-2.06-1.91-1.31-3.11-1.51
						c-3.84-0.6-4.49-1.64-3.26-5.53c1.09-3.5,2.18-6.99,2.39-10.69c0.08-1.38,0.22-3.08-1.28-3.56c-2.52-0.8-4.77-2.91-7.69-2.06
						c-3.11,0.91-2.65-1.74-2.85-3.11c-0.34-2.46,1.62-1.4,2.77-1.34c0.94,0.06,1.87,0.32,2.81,0.46c0.99,0.15,2,0.11,2.44-0.94
						c0.54-1.28-0.41-2.03-1.31-2.65c-1.74-1.2-3.82-1.34-5.84-1.48c-1.48-0.09-2.76-0.25-2.7-2.17c0.19-6.73-1.05-13.51,1.65-20.13
						c1.24-3.03,2.05-4.95,5.99-3.89c3.1,0.84,6.48,0.23,9.7-0.41c9.18-1.81,18.35-3.69,27.55-5.43c3.96-0.75,5.47,0.62,4.8,4.57
						c-0.61,3.59-1.77,7.1-2.71,10.64c-1.21,4.56-0.03,8.58,3.69,11.26c5.43,3.9,7.99,9.01,8.17,15.55
						c0.03,1.21,0.19,2.41,1.71,2.88c3.95,1.18,9.26-1.79,10.03-5.87c0.67-3.61,2.22-6.72,4.86-9.18c2.27-2.11,4.89-3.54,8.13-2.08
						c3.09,1.39,4.3,4.01,4.32,7.23c0.05,7.8-3.51,14.08-8.62,19.58c-1.59,1.71-3.73,2.7-6.28,2.02c-1.6-0.42-3.45-1.02-3.78,1.46
						c-0.35,2.66,1.56,3.13,3.64,3.19c0.8,0.02,1.67,0.13,2.42-0.08c2.67-0.79,3.19,0.32,3.04,2.79
						c-0.7,11.71,1.11,22.99,6.05,33.69C403.79,184.93,403.58,186.08,401.89,187.18z"/>
					<path d="M373.81,230.56c-5.46,15.04-8.03,30.65-8.87,46.57c0,1.9,0.05,3.8-0.02,5.7c-0.06,1.77-1.03,2.82-2.85,2.71
						c-2-0.13-3.05-1.38-2.6-3.3c0.51-2.14,0.71-4.27,0.79-6.44c0.64-17.52,4.63-34.37,10.13-50.92c0.71-2.13,2.03-2.96,3.99-2.23
						c2.07,0.77,2.31,2.44,1.3,4.33C375.05,228.16,374.27,229.3,373.81,230.56z"/>
					<path d="M210.52,346.51c-3.48-0.13-6.42,2.76-6.49,6.41c-0.08,4.47,5.11,9.93,9.55,10.05c3.45,0.09,6.31-2.55,6.45-5.95
						C220.23,352.11,215.33,346.7,210.52,346.51z M213.56,358.71c-2.74-0.47-4.46-2.26-5.22-4.73c0.03-1.84,0.81-2.94,2.44-2.69
						c2.8,0.42,4.6,2.19,5.1,4.98C216.18,357.9,215.2,359,213.56,358.71z"/>
					<path d="M358.07,119.29c-5.06-1.05-9.91-0.41-14.69,1.46c-1.19,0.47-2.51,0.09-2.84-1.45c-0.31-1.44,0.57-2.29,1.84-2.72
						c2.95-1.01,5.94-1.81,9.48-1.84c2.18,0.1,4.74,0.29,7.06,1.59c0.76,0.42,1.33,1.01,1.08,1.93
						C359.75,119.23,358.87,119.46,358.07,119.29z"/>
					<path d="M353.32,153.84c1.24,1.41,0.06,2.78-1.15,3.77c-3.82,3.14-8.29,4.45-13.37,4.63c-1.64-0.36-4.67,0.65-4.68-2.14
						c0-2.68,2.89-1.69,4.61-1.7c4.18-0.01,8.09-0.7,11.39-3.49C351.07,154.12,351.94,152.27,353.32,153.84z"/>
					<path d="M351.85,130.5c-0.75,1.51-2.7,1.55-3.96,0.68c-1.46-1.01-3.92-1.47-4.03-3.45c-0.1-1.63,1.83-2.57,3.35-3.14
						c3.87-1.44,6.9,0.6,10.02,2.67C355.09,128.09,353.02,128.17,351.85,130.5z"/>
					<path d="M393.47,125.99c0.08-0.6,0.01-1.61,0.37-2.43c0.55-1.28,1.79-1.53,3.09-1.41c0.91,0.08,1.97,0.86,1.68,1.39
						c-1.76,3.2-0.48,7.4-3.41,10.16c-0.84,0.79-1.82,1.38-2.88,0.57c-0.92-0.7-0.68-1.73-0.15-2.57
						C393.22,130.04,394,128.35,393.47,125.99z"/>
				</g>
			</g>
		</g>
	</g>
	<g>
		<path class="st28" d="M165.93,27.43c-53.58,0-107.21,0-161.19,0c-0.1,1.17-0.19,1.77-0.19,2.38C4.5,60.37,4.44,90.93,4.43,121.49
			c0,4.87,1.63,6.3,7.01,6.3c49.18,0.01,98.36,0.01,147.54-0.01c6.06,0,7.58-1.58,7.58-7.78c0-29.32,0-58.64-0.03-87.96
			C166.51,30.55,166.95,28.96,165.93,27.43z M64.85,94.88c-1.45,2.42-3.2,0.68-4.74-0.19c-8.63-4.88-17.28-9.73-25.88-14.67
			c-4.41-2.53-4.4-4.74-0.1-7.25c8.43-4.91,16.87-9.82,25.33-14.69c1.69-0.97,3.77-2.64,5.27-0.22c1.58,2.54-0.51,3.75-2.56,4.9
			c-7.7,4.3-15.33,8.72-23.5,13.39c8.18,4.78,15.91,9.35,23.7,13.8C64.42,91.12,66.43,92.25,64.85,94.88z M96.53,52.07
			c-3.17,8.88-6.38,17.74-9.54,26.62c-2.54,7.13-5.19,14.24-7.48,21.45c-1.1,3.48-3.03,3.16-5.78,2.42
			c0.26-3.95,1.77-7.2,2.91-10.51c4.67-13.43,9.49-26.81,14.26-40.21c0.21-0.58,0.36-1.18,0.58-1.76c0.74-1.92,2.2-2.63,4.07-1.94
			C97.59,48.91,97.06,50.58,96.53,52.07z M137.4,79.05c-9.23,5.36-18.5,10.67-27.74,16.01c-1.48,0.85-2.99,1.27-4.05-0.44
			c-1.12-1.82-0.37-3.14,1.43-4.16c8.06-4.57,16.08-9.2,24.76-14.18c-7.45-4.22-14.32-8.1-21.17-12c-1.48-0.84-2.94-1.72-4.35-2.66
			c-1.42-0.95-1.49-2.37-0.75-3.69c0.82-1.45,2.21-1.63,3.61-0.81c9.51,5.51,19.04,10.97,28.46,16.61
			C140.28,75.31,140.17,77.44,137.4,79.05z"/>
		<path class="st2" d="M166.53,22.6c0-3.49-0.01-6.71,0-9.93c0.03-7.26-0.91-8.17-8.36-8.17c-32.57-0.02-65.14-0.05-97.72-0.07
			C44.16,4.42,27.88,4.42,11.59,4.4c-3.1,0-6.45,0.27-6.86,3.97c-0.51,4.68-0.12,9.46-0.12,14.24
			C58.82,22.6,112.43,22.6,166.53,22.6z M43.07,9.69c2.84,0.01,4.21,1.87,4.1,4.51c-0.11,2.48-1.8,3.76-4.05,4.07
			c-2.58-0.41-4.27-1.54-4.27-4.18C38.85,11.36,40.3,9.68,43.07,9.69z M29.34,9.62c2.85,0.08,4.01,1.92,4.25,4.41
			c-0.3,2.72-1.85,4.16-4.32,4.08c-2.7-0.09-4.33-1.76-4.17-4.55C25.24,11.06,26.75,9.55,29.34,9.62z M15.69,9.6
			c2.72-0.16,4.15,1.51,4.64,4.09c-0.31,2.58-1.51,4.43-4.27,4.5c-2.49,0.06-4.07-1.43-4.23-3.89C11.67,11.72,12.9,9.77,15.69,9.6z"
			/>
		<path d="M158.68,0.01C134.32-0.01,109.95,0,85.59,0c0,0.02,0,0.03,0,0.05c-24.83,0-49.66-0.01-74.49,0C3.14,0.06,0,3.15,0,10.95
			c0,36.47,0,72.94,0.02,109.41c0,8.49,3.07,11.64,11.39,11.64c49.51-0.01,99.01-0.04,148.52-0.09c7.85-0.01,11.19-3.5,11.2-11.44
			c0.01-36,0.02-72.01,0.04-108.01C171.17,2.83,168.39,0.02,158.68,0.01z M4.74,8.37c0.4-3.7,3.76-3.97,6.86-3.97
			c16.28,0.02,32.57,0.02,48.85,0.03c32.57,0.02,65.14,0.05,97.72,0.07c7.46,0,8.39,0.92,8.36,8.17c-0.01,3.22,0,6.44,0,9.93
			c-54.1,0-107.71,0-161.91,0C4.61,17.83,4.23,13.05,4.74,8.37z M166.55,120.01c0,6.2-1.52,7.77-7.58,7.78
			c-49.18,0.01-98.36,0.02-147.54,0.01c-5.37,0-7.01-1.43-7.01-6.3C4.44,90.93,4.5,60.37,4.55,29.81c0-0.61,0.1-1.21,0.19-2.38
			c53.98,0,107.61,0,161.19,0c1.02,1.53,0.58,3.12,0.58,4.62C166.55,61.37,166.55,90.69,166.55,120.01z"/>
		<path d="M137.61,73.71c-9.42-5.65-18.96-11.1-28.46-16.61c-1.4-0.81-2.79-0.63-3.61,0.81c-0.75,1.32-0.67,2.74,0.75,3.69
			c1.41,0.94,2.87,1.82,4.35,2.66c6.85,3.9,13.72,7.78,21.17,12c-8.68,4.98-16.7,9.61-24.76,14.18c-1.8,1.02-2.55,2.34-1.43,4.16
			c1.06,1.71,2.57,1.3,4.05,0.44c9.25-5.34,18.51-10.65,27.74-16.01C140.17,77.44,140.28,75.31,137.61,73.71z"/>
		<path d="M62.38,89.95c-7.8-4.45-15.52-9.02-23.7-13.8c8.17-4.67,15.81-9.09,23.5-13.39c2.05-1.15,4.15-2.36,2.56-4.9
			c-1.51-2.42-3.59-0.75-5.27,0.22c-8.46,4.86-16.9,9.77-25.33,14.69c-4.3,2.51-4.31,4.72,0.1,7.25c8.6,4.94,17.25,9.79,25.88,14.67
			c1.55,0.87,3.3,2.61,4.74,0.19C66.43,92.25,64.42,91.12,62.38,89.95z"/>
		<path d="M95.55,48.15c-1.87-0.69-3.33,0.02-4.07,1.94c-0.22,0.58-0.37,1.18-0.58,1.76c-4.76,13.4-9.59,26.78-14.26,40.21
			c-1.15,3.3-2.65,6.56-2.91,10.51c2.76,0.74,4.68,1.05,5.78-2.42c2.28-7.22,4.93-14.32,7.48-21.45c3.16-8.88,6.37-17.74,9.54-26.62
			C97.06,50.58,97.59,48.91,95.55,48.15z"/>
		<path d="M29.27,18.12c2.47,0.08,4.02-1.36,4.32-4.08c-0.24-2.5-1.4-4.34-4.25-4.41c-2.59-0.07-4.1,1.43-4.24,3.95
			C24.95,16.36,26.57,18.03,29.27,18.12z"/>
		<path d="M16.05,18.19c2.76-0.07,3.96-1.92,4.27-4.5c-0.49-2.58-1.91-4.25-4.64-4.09c-2.79,0.17-4.02,2.12-3.86,4.7
			C11.98,16.76,13.56,18.26,16.05,18.19z"/>
		<path d="M43.12,18.26c2.26-0.31,3.95-1.59,4.05-4.07c0.11-2.64-1.26-4.5-4.1-4.51c-2.78-0.01-4.22,1.67-4.22,4.4
			C38.85,16.72,40.53,17.86,43.12,18.26z"/>
	</g>
	<g>
		<g>
			<path class="st2" d="M189.09,2.61c-0.24,1.86-0.33,53.29-0.08,56.56c15.68,0,31.24,0,46.85,0c0-18.96,0-37.75,0-56.52
				C233.46,2.31,191.25,2.3,189.09,2.61z M215.57,51.07c-6.99,0-13.62,0-20.64,0c0-2.95,0-5.68,0-8.41c0-0.99,0.55-1.4,1.49-1.4
				c5.88,0.01,11.77,0.02,17.65,0.03c0.94,0,1.47,0.51,1.48,1.45C215.58,45.47,215.57,48.19,215.57,51.07z M212.88,8.27
				c5.82,0,11.64,0.05,17.45-0.03c1.72-0.03,2.41,0.51,2.4,2.27c-0.06,6.68-0.05,13.36-0.02,20.05c0.01,1.49-0.57,2.12-2.09,2.12
				c-11.87-0.05-23.74-0.06-35.61-0.05c-1.48,0-2.1-0.49-2.09-2.05c0.02-6.68-0.02-13.36-0.12-20.04c-0.03-1.79,0.72-2.29,2.4-2.27
				C201.09,8.32,206.98,8.27,212.88,8.27C212.88,8.27,212.88,8.27,212.88,8.27z"/>
			<path class="st28" d="M195.3,30.14c11.79,0,23.38,0,34.95,0c0-6.59,0-13,0-19.51c-11.7,0-23.23,0-34.95,0
				C195.3,17.26,195.3,23.72,195.3,30.14z"/>
			<path d="M235.95,0.01C220.29,0.06,204.63,0.06,188.96,0c-1.9-0.01-2.42,0.71-2.42,2.51c0.07,18.65,0.08,37.31,0.11,55.96
				c0,3.11,0.01,3.18,3.15,3.18c15.35,0.02,30.7-0.03,46.04,0.03c2.05,0.01,2.31-0.98,2.3-2.62c-0.03-9.37-0.02-18.73-0.02-28.1
				c0.01,0,0.02,0,0.03,0c0-9.52-0.03-19.05,0.03-28.57C238.21,0.71,237.78,0,235.95,0.01z M235.86,59.17c-15.61,0-31.16,0-46.85,0
				c-0.25-3.27-0.16-54.7,0.08-56.56c2.16-0.31,44.36-0.29,46.77,0.03C235.86,21.42,235.86,40.21,235.86,59.17z"/>
			<path d="M195.19,8.25c-1.69-0.02-2.43,0.49-2.4,2.27c0.1,6.68,0.14,13.36,0.12,20.04c0,1.57,0.61,2.05,2.09,2.05
				c11.87-0.01,23.74,0,35.61,0.05c1.53,0.01,2.1-0.62,2.09-2.12c-0.03-6.68-0.04-13.36,0.02-20.05c0.02-1.77-0.68-2.3-2.4-2.27
				c-5.82,0.09-11.63,0.03-17.45,0.03c0,0,0,0.01,0,0.01C206.98,8.27,201.09,8.32,195.19,8.25z M230.24,10.63
				c0,6.51,0,12.92,0,19.51c-11.56,0-23.15,0-34.95,0c0-6.42,0-12.88,0-19.51C207.01,10.63,218.54,10.63,230.24,10.63z"/>
			<path d="M214.08,41.3c-5.88-0.02-11.77-0.02-17.65-0.03c-0.94,0-1.49,0.41-1.49,1.4c0,2.73,0,5.46,0,8.41c7.02,0,13.65,0,20.64,0
				c0-2.88,0.01-5.6-0.01-8.33C215.55,41.81,215.02,41.3,214.08,41.3z"/>
		</g>
		<g>
			<path class="st28" d="M195.73,119.35c4.43,0,8.78,0,13.21,0c0-1.9,0-3.69,0-5.66c-4.54,0-8.89,0-13.28,0
				C195.53,115.66,195.43,117.44,195.73,119.35z"/>
			<path class="st28" d="M216.69,119.35c4.49,0,8.87,0,13.42,0c0-1.95,0-3.74,0-5.63c-4.53,0-8.96,0-13.42,0
				C216.69,115.67,216.69,117.44,216.69,119.35z"/>
			<path class="st28" d="M230,81c-11.68,0-23.19,0-34.8,0c0,6.58,0,13,0,19.48c11.8,0,23.31,0,34.8,0C230,93.87,230,87.46,230,81z"
				/>
			<path class="st2" d="M188.85,129.52c15.67,0,31.21,0,46.86,0c0-18.96,0-37.74,0-56.68c-15.66,0-31.21,0-46.86,0
				C188.85,91.75,188.85,110.61,188.85,129.52z M209.69,121.68c-4.88,0-9.76,0.02-14.63,0.05c-1.3,0.01-1.81-0.59-1.78-1.89
				c0.05-2.12,0.05-4.25-0.03-6.37c-0.06-1.57,0.64-2.07,2.13-2.02c2.36,0.08,4.72,0.02,7.08,0.02c0,0,0,0.01,0,0.01
				c2.28,0,4.57,0.05,6.85-0.02c1.37-0.04,2.05,0.41,2.01,1.88c-0.06,2.2-0.06,4.41,0.01,6.61
				C211.36,121.16,210.88,121.68,209.69,121.68z M232.5,119.81c0.04,1.32-0.48,1.88-1.77,1.88c-4.88-0.02-9.76-0.04-14.64-0.02
				c-1.17,0.01-1.79-0.41-1.79-1.61c-0.01-2.28-0.02-4.57-0.03-6.85c-0.01-1.31,0.65-1.77,1.93-1.73c2.36,0.07,4.72,0.02,7.08,0.02
				c0-0.01,0-0.02,0-0.04c2.44,0,4.88,0.03,7.32-0.01c1.42-0.03,1.97,0.58,1.91,1.99C232.44,115.56,232.44,117.69,232.5,119.81z
				 M195.1,78.6c11.71,0.03,23.43,0.02,35.14-0.05c1.83-0.01,2.25,0.8,2.23,2.45c-0.05,6.52-0.05,13.05,0.03,19.57
				c0.02,1.83-0.58,2.5-2.45,2.47c-5.82-0.09-11.63-0.03-17.45-0.03c0-0.01,0-0.02,0-0.03c-5.82,0-11.64-0.05-17.45,0.03
				c-1.7,0.02-2.37-0.45-2.34-2.26c0.08-6.6,0.07-13.21-0.02-19.81C192.76,79.19,193.37,78.6,195.1,78.6z"/>
			<path d="M235.76,70.3c-15.5,0.07-31.01,0.11-46.51,0.02c-2.3-0.01-2.75,0.82-2.73,2.9c0.09,9.28,0.04,18.57,0.04,27.86
				c0.01,0,0.03,0,0.04,0c0,9.52,0.03,19.04-0.03,28.56c-0.01,1.68,0.4,2.36,2.24,2.35c15.66-0.06,31.32-0.06,46.98-0.01
				c1.75,0.01,2.36-0.58,2.36-2.32c-0.02-18.96,0-37.93,0.05-56.89C238.22,70.98,237.66,70.29,235.76,70.3z M235.71,129.52
				c-15.66,0-31.19,0-46.86,0c0-18.91,0-37.76,0-56.68c15.65,0,31.2,0,46.86,0C235.71,91.77,235.71,110.55,235.71,129.52z"/>
			<path d="M192.81,100.76c-0.02,1.81,0.64,2.28,2.34,2.26c5.82-0.08,11.63-0.03,17.45-0.03c0,0.01,0,0.02,0,0.03
				c5.82,0,11.64-0.06,17.45,0.03c1.87,0.03,2.47-0.65,2.45-2.47c-0.08-6.52-0.09-13.05-0.03-19.57c0.01-1.65-0.41-2.46-2.23-2.45
				c-11.71,0.06-23.43,0.08-35.14,0.05c-1.73,0-2.33,0.59-2.31,2.35C192.88,87.56,192.89,94.16,192.81,100.76z M195.2,81
				c11.61,0,23.12,0,34.8,0c0,6.46,0,12.87,0,19.48c-11.49,0-23,0-34.8,0C195.2,94,195.2,87.58,195.2,81z"/>
			<path d="M230.61,111.44c-2.44,0.05-4.88,0.01-7.32,0.01c0,0.01,0,0.02,0,0.04c-2.36,0-4.72,0.05-7.08-0.02
				c-1.28-0.04-1.94,0.43-1.93,1.73c0.01,2.28,0.02,4.57,0.03,6.85c0,1.2,0.63,1.62,1.79,1.61c4.88-0.03,9.76,0,14.64,0.02
				c1.29,0.01,1.81-0.56,1.77-1.88c-0.07-2.12-0.06-4.25,0.02-6.37C232.58,112.02,232.03,111.42,230.61,111.44z M230.11,119.35
				c-4.56,0-8.93,0-13.42,0c0-1.91,0-3.68,0-5.63c4.46,0,8.89,0,13.42,0C230.11,115.62,230.11,117.4,230.11,119.35z"/>
			<path d="M211.31,113.33c0.04-1.47-0.64-1.92-2.01-1.88c-2.28,0.07-4.56,0.02-6.85,0.02c0,0,0-0.01,0-0.01
				c-2.36,0-4.72,0.06-7.08-0.02c-1.49-0.05-2.19,0.45-2.13,2.02c0.08,2.12,0.09,4.25,0.03,6.37c-0.03,1.3,0.48,1.9,1.78,1.89
				c4.88-0.03,9.76-0.04,14.63-0.05c1.19,0,1.67-0.52,1.63-1.74C211.25,117.74,211.25,115.53,211.31,113.33z M208.94,119.35
				c-4.43,0-8.78,0-13.21,0c-0.3-1.91-0.2-3.69-0.07-5.66c4.39,0,8.73,0,13.28,0C208.94,115.66,208.94,117.45,208.94,119.35z"/>
		</g>
	</g>
	<g>
		<path class="st2" d="M54.1,255.3c9.41,0,18.64,0,27.86,0c0-4.21,0-8.21,0-12.24c-9.39,0-18.56,0-27.86,0
			C54.1,247.18,54.1,251.17,54.1,255.3z"/>
		<path class="st2" d="M140.8,246.84c0.94-0.92,1.85-1.79,2.54-2.47c-1.5-1.44-2.89-2.77-4.33-4.15c-0.76,0.73-1.67,1.6-2.69,2.57
			C137.77,244.32,139.04,245.79,140.8,246.84z"/>
		<path class="st2" d="M160.24,256.36c-4.07-3.88-8.13-7.78-12.13-11.62c-2.27,0.92-3.52,2.65-5.03,4.05
			c-1.7,1.57-1.5,2.94,0.18,4.46c2.94,2.66,5.76,5.45,8.63,8.17c1.31,1.25,2.6,2.5,3.9,3.75c1.01,0.97,2.03,1.92,3.06,2.85
			c0.35,0.31,0.69,0.63,1.04,0.94c2.22,1.94,5.3,1.59,7.15-0.57c1.61-1.89,1.35-4.27-0.75-6.32
			C164.31,260.14,162.25,258.28,160.24,256.36z"/>
		<path class="st2" d="M115.14,194.43c-14.58-0.16-27.1,12.26-27.27,27.04c-0.16,14.7,12.12,27.06,27.01,27.16
			c14.93,0.11,27.44-11.84,27.51-26.3C142.49,206.8,130.56,194.59,115.14,194.43z M115.22,245.05c-13.36,0.09-23.82-10.43-23.87-24
			c-0.05-12.51,10.8-22.96,24-23.09c12.52-0.12,23.44,10.69,23.48,23.25C138.87,234.7,128.7,244.97,115.22,245.05z"/>
		<path class="st28" d="M138.64,250.15c-0.04-2.62-3.04-3.1-4.44-5.02c-7.58,5.34-15.81,7.68-24.97,5.89
			c-7.87-1.54-14.11-5.74-18.81-12.1c-8.89-12.02-7.64-27.16,3.01-38.22c9.63-10,26.19-12.95,39.36-3.47
			c11.02,7.93,17.43,23.18,8.6,39.93c1.16,1.28,2.2,2.47,3.28,3.62c0.52,0.56,1.1,1.43,1.96,1c2.32-1.15,3.45,0.51,4.8,1.79
			c2.57,2.47,5.15,4.93,7.73,7.4c0.05-8,0.07-20.63,0.08-28c0.01-10.21,0-24.59,0-35.3h-22.47c-1.97-0.01-10.93-0.02-13.04-0.02
			c-0.23,0.23-0.45,0.46-0.67,0.7c-1.51,1.61-2.76,1.63-4.65,0.73c-5.6-2.7-11.3-5.18-17.15-7.84c-5.56,6.01-11.03,11.76-16.3,17.68
			c-2,2.25-3.69,2.39-6.07,0.7c-2.41-1.72-5.04-3.12-7.64-4.7c-7.11,4.91-13.42,10.64-20.15,15.85c-1.5,1.16-4.29,3.29-7.21,5.52
			c0,0,0,0,0,0c0,0,0,0,0,0c0.02,13.7,0.01,34.88,0.01,48.9c9.25,0,18.17,0.01,27.08,0c22.84-0.01,55.94-0.04,80.26-0.04
			c-3.29-3.12-6.57-6.24-9.87-9.36C139.75,254.27,138.67,252.62,138.64,250.15z M151.76,234.2c-0.69-0.04-1.47-0.28-1.86,0.02
			c-0.96,0-1.55,0-2.13,0c-0.6,0-1.14-0.12-1.42-0.52c-0.12-0.18-0.2-0.41-0.19-0.71c0.01-0.22,0.05-0.43,0.12-0.63
			c0.06-0.16,0.14-0.31,0.24-0.45c0.23-0.3,0.57-0.52,1-0.6c0.24-0.04,0.48-0.07,0.72-0.09c0.44-0.03,0.89-0.03,1.32,0.03
			c0.46,0.06,1.01-0.01,1.55-0.04c0.24-0.01,0.47-0.02,0.69,0c0.54,0.04,0.99,0.23,1.2,0.79c0.07,0.18,0.11,0.39,0.12,0.65
			C153.18,234.06,152.52,234.25,151.76,234.2z M151.43,223.43C151.43,223.43,151.43,223.43,151.43,223.43c-0.02,0-0.02,0-0.03,0
			c-0.33,0-0.67-0.02-0.99,0c-0.28-0.03-0.6-0.02-0.91-0.03c-0.51-0.01-1.02-0.06-1.36-0.34c-0.29-0.23-0.46-0.62-0.41-1.3
			c0.14-1.85,1.81-1.38,3.02-1.45c0.7-0.04,1.47-0.02,2,0.29c0.39,0.23,0.65,0.63,0.65,1.3
			C153.38,223.32,152.45,223.43,151.43,223.43z M153.45,211.17c0,0.02-0.01,0.04-0.01,0.05c-0.08,0.88-0.78,1.47-1.85,1.42
			c-0.99-0.04-1.97-0.03-2.96-0.02c-0.29,0-0.58,0-0.87,0c-0.23,0-0.44-0.03-0.64-0.08c-0.67-0.16-1.14-0.59-1.17-1.42
			c-0.02-0.47,0.09-0.79,0.28-1.03c0.21-0.26,0.53-0.4,0.91-0.47c0.01,0,0.01,0,0.02-0.01c0.01,0,0.03,0,0.04,0
			c0.23-0.03,0.48-0.05,0.73-0.04c0.69,0.01,1.37,0,2.06,0c0,0,0,0,0,0c0-0.01,0-0.02,0-0.02c0.29,0,0.59,0,0.88,0
			c0.2,0,0.39,0,0.59,0c1.13-0.03,2.02,0.43,1.97,1.6C153.45,211.15,153.45,211.16,153.45,211.17z M140.52,199.51
			c0.07-0.06,0.16-0.11,0.25-0.15c0.27-0.13,0.59-0.2,0.95-0.2c2.4-0.03,4.79-0.05,7.19-0.05c0.96,0,1.92-0.01,2.88,0
			c0.25,0,0.48,0.04,0.69,0.12c0.21,0.08,0.39,0.19,0.53,0.33c0.3,0.29,0.46,0.7,0.41,1.22c-0.02,0.21-0.07,0.4-0.16,0.57
			c-0.26,0.5-0.79,0.8-1.5,0.8c-1.68-0.01-3.36,0-5.04,0c0,0,0,0,0,0c0-0.01,0-0.02,0-0.04c-1.68,0-3.36-0.01-5.04,0
			c-0.93,0.01-1.56-0.41-1.64-1.33C140.01,200.17,140.19,199.77,140.52,199.51z M84.52,233.98c-0.01,1.13-0.74,1.37-1.57,1.41
			c-0.39,0.02-0.8-0.01-1.17-0.01c-4.65,0-9.3,0-13.95,0c0,0,0,0,0,0c0-0.01,0-0.02,0-0.03c0,0,0,0,0,0c-2.61,0-5.22,0-7.84,0
			c-2.14,0-4.27,0-6.41,0c-1.11,0-2.5,0.08-2.56-1.32c-0.05-1.04,0.52-1.38,1.24-1.48c0.43-0.06,0.92-0.05,1.37-0.05
			c4.7-0.01,9.4-0.02,14.1-0.03c4.7-0.01,9.4-0.02,14.1-0.02C83.04,232.45,84.54,232.37,84.52,233.98z M60.45,216.3
			c0.02-0.02,0.03-0.04,0.05-0.05c0.01,0,0.01-0.01,0.02-0.01c0.38-0.33,0.98-0.44,1.58-0.44c5.95-0.01,11.91,0,17.86-0.02
			c0.14,0,0.27,0.01,0.4,0.02c0.48,0.04,0.89,0.18,1.19,0.44c0.29,0.25,0.46,0.62,0.45,1.15c-0.02,0.74-0.39,1.05-0.88,1.19
			c-0.41,0.12-0.9,0.11-1.35,0.11c-2.88,0-5.76,0-8.63,0c0,0,0,0,0,0c0-0.01,0-0.03,0-0.04c0,0,0,0,0,0c-2.1,0-4.19,0-6.29,0
			c-0.88,0-1.76,0-2.64,0c-0.4,0-0.8-0.03-1.15-0.13c-0.57-0.17-0.98-0.55-0.94-1.37C60.12,216.77,60.26,216.5,60.45,216.3z
			 M53.28,224.55c2.23,0,4.46,0,6.69,0c2.23,0,4.46,0,6.69,0c0,0,0,0,0,0c0-0.01,0-0.03,0-0.04c4.36,0,8.72-0.01,13.09,0.01
			c0.65,0,1.42-0.06,1.92,0.25c0.31,0.2,0.52,0.54,0.51,1.16c-0.01,0.44-0.14,0.72-0.35,0.91c-0.46,0.4-1.28,0.31-1.93,0.31
			c-6.93,0.02-13.87,0.02-20.8,0.02c-1.99,0-3.98,0-5.97,0c-0.06,0-0.13,0-0.19,0c-0.46-0.01-0.92-0.04-1.28-0.19
			c0,0-0.01,0-0.02-0.01c0,0,0,0-0.01,0c-0.2-0.09-0.37-0.22-0.49-0.41c-0.12-0.19-0.18-0.45-0.17-0.78
			C51.05,224.39,52.3,224.55,53.28,224.55z M85.1,245.37c-0.02,1.8-0.03,3.59-0.04,5.39c-0.01,1.55-0.01,3.1-0.01,4.65
			c-0.01,1.52-0.52,2.45-1.66,2.84c-0.4,0.14-0.88,0.21-1.44,0.2c-4.99-0.02-9.97-0.02-14.96-0.02c-4.13,0.01-8.26,0.02-12.4,0.05
			c-0.81,0.01-1.47-0.08-2-0.29c-0.44-0.17-0.79-0.43-1.04-0.77c-0.43-0.59-0.6-1.46-0.54-2.67c0.02-0.46,0.03-0.91,0.04-1.37
			c0.06-1.88,0.06-3.76,0.03-5.64c-0.03-1.53-0.07-3.06-0.11-4.58c-0.03-1.09,0.17-1.86,0.65-2.35c0.48-0.5,1.23-0.72,2.31-0.71
			c0,0,0,0,0,0c4.76,0.05,9.51,0.01,14.27,0.01c0,0,0-0.01,0-0.01c2.78,0,5.57,0.02,8.35,0.02c1.78,0,3.55-0.01,5.33-0.05
			c0.53-0.01,0.98,0.04,1.38,0.14c1.25,0.31,1.83,1.2,1.86,2.79c0,0.08,0.01,0.14,0.01,0.22C85.12,243.94,85.11,244.66,85.1,245.37z
			 M132.44,258.49c-0.02,0-0.05,0-0.07,0c-1.09,0-2.18-0.01-3.27-0.01c-11.68-0.03-23.37-0.06-35.05-0.11
			c-0.38,0-0.8,0.01-1.19-0.03c-0.83-0.09-1.54-0.39-1.53-1.48c0.02-1.3,0.97-1.39,1.93-1.37c0.29,0.01,0.58,0.03,0.85,0.03
			c6.34-0.01,12.67-0.01,19.01-0.01c0,0,0,0,0,0c0,0.02,0,0.03,0,0.05c4.12,0,8.24,0,12.36,0c2.32,0,4.63,0,6.95,0.01
			c0.32,0,0.69-0.02,1.04-0.01c0.47,0.02,0.91,0.1,1.19,0.39c0.19,0.19,0.31,0.47,0.32,0.89
			C135.04,258.44,133.64,258.49,132.44,258.49z"/>
		<path class="st2" d="M115.03,201.11c-11.06-0.04-20.39,9.06-20.5,20.01c-0.11,11.48,9.19,21.09,20.46,21.14
			c11.23,0.05,20.66-9.08,20.81-20.15C135.96,210.37,126.85,201.16,115.03,201.11z M98.19,219.35c-0.1-1.8,1.55-1.5,2.63-1.51
			c8.5-0.12,17-0.17,25.5-0.25c1.18-0.01,2.3,0.2,2.35,1.63c0.05,1.73-1.4,1.37-2.38,1.38c-4.25,0.05-8.5,0.02-12.75,0.02
			c0-0.02,0-0.04,0-0.06c-4.25,0-8.5,0.01-12.75-0.01C99.74,220.56,98.28,220.87,98.19,219.35z M126.92,231.2
			c-4.07,0.04-8.13,0.02-12.2,0.02c0,0.01,0,0.03,0,0.04c-4.26,0-8.53,0.01-12.79,0c-1.09,0-2.47,0.08-2.42-1.44
			c0.04-1.43,1.37-1.44,2.49-1.44c8.33,0.02,16.66,0.04,24.99,0.08c1.11,0,2.4,0.04,2.4,1.54
			C129.38,231.76,127.9,231.19,126.92,231.2z"/>
		<path d="M162.2,253.86c0.13-0.38,0.14-0.83,0.08-1.32c-0.05-0.39-0.02-0.79-0.02-1.19c0.02-17.86,0.02-45.85,0.11-63.71
			c0.01-2.17-0.61-3.05-2.87-3c-5.36,0.11-10.72,0.04-16.08,0.04c-3.42,0.01-11.67,0.02-16.81,0.05c2.03-2.03,4.1-4.02,6.15-6.02
			c4.22-4.11,8.47-8.19,12.76-12.34c1.56,1.47,3.18,3.03,5.27,5.01c1.45-5.9,2.77-11.31,4.18-17.07c-6,0.08-11.51,1.38-17.09,1.93
			c-1.68,0.17-1.28,1.45-0.24,2.32c1.51,1.26,2.98,2.54,4.3,4.36c-6.95,7.05-13.85,14.01-20.68,21.04c-1.06,1.1-1.91,0.62-2.89,0.16
			c-3.59-1.67-7.17-3.34-10.75-5.04c-7.63-3.61-7.58-3.58-13.29,2.85c-4.2,4.74-8.53,9.35-12.88,14.11
			c-2.59-1.76-5.12-3.18-7.27-5.04c-2.36-2.04-4.18-1.84-6.48,0.08c-8.17,6.77-16.45,13.41-24.69,20.09
			c-1.69,1.38-10.01,7.44-11.64,8.88c-1.35,1.19-0.89,2.41,0.17,3.61c1.11,1.25,2,0.73,3.03-0.1c1.35-1.1,3.78-2.99,6.43-5.02
			c-0.01,13.69,0.05,33.32-0.05,46.16c-0.02,2.6,0.77,3.47,3.38,3.46c32.73-0.04,76.8,0,110.08,0.01c0.92,0.86,1.83,1.72,2.75,2.57
			c3.71,3.44,8.83,3.35,11.97-0.05c3.13-3.39,2.57-7.81-1.34-11.5C165.93,257.41,164.07,255.63,162.2,253.86z M70.99,265.21
			c-8.91,0.01-17.83,0-27.08,0c0-14.02,0.01-35.2-0.01-48.9c0,0,0,0,0,0c0,0,0,0,0,0c2.93-2.23,5.71-4.36,7.21-5.52
			c6.73-5.21,13.04-10.94,20.15-15.85c2.6,1.58,5.24,2.98,7.64,4.7c2.37,1.69,4.07,1.54,6.07-0.7c5.26-5.93,10.73-11.68,16.3-17.68
			c5.84,2.65,11.55,5.14,17.15,7.84c1.89,0.91,3.14,0.88,4.65-0.73c0.22-0.23,0.45-0.46,0.67-0.7c2.1,0,11.07,0.02,13.04,0.02h22.47
			c0,10.71,0.01,25.08,0,35.3c-0.01,7.36-0.03,20-0.08,28c-2.58-2.47-5.16-4.93-7.73-7.4c-1.35-1.29-2.48-2.94-4.8-1.79
			c-0.86,0.43-1.44-0.44-1.96-1c-1.08-1.15-2.13-2.34-3.28-3.62c8.84-16.75,2.42-32-8.6-39.93c-13.17-9.47-29.73-6.53-39.36,3.47
			c-10.66,11.06-11.9,26.2-3.01,38.22c4.7,6.36,10.94,10.56,18.81,12.1c9.16,1.79,17.39-0.55,24.97-5.89c1.4,1.92,4.4,2.4,4.44,5.02
			c0.03,2.47,1.11,4.12,2.74,5.65c3.29,3.12,6.57,6.24,9.87,9.36C126.94,265.17,93.83,265.2,70.99,265.21z M139.01,240.23
			c1.44,1.38,2.83,2.71,4.33,4.15c-0.69,0.67-1.6,1.55-2.54,2.47c-1.76-1.05-3.03-2.51-4.49-4.04
			C137.34,241.82,138.24,240.96,139.01,240.23z M114.88,248.63c-14.9-0.11-27.18-12.46-27.01-27.16
			c0.17-14.78,12.69-27.2,27.27-27.04c15.43,0.17,27.35,12.38,27.26,27.9C142.32,236.78,129.81,248.73,114.88,248.63z M167.05,268.4
			c-1.85,2.16-4.93,2.51-7.15,0.57c-0.35-0.31-0.7-0.63-1.04-0.94c-1.04-0.94-2.06-1.89-3.06-2.85c-1.3-1.25-2.59-2.5-3.9-3.75
			c-2.87-2.73-5.69-5.52-8.63-8.17c-1.69-1.52-1.89-2.88-0.18-4.46c1.52-1.39,2.76-3.12,5.03-4.05c4,3.84,8.06,7.73,12.13,11.62
			c2.01,1.92,4.06,3.78,6.05,5.72C168.4,264.13,168.65,266.51,167.05,268.4z"/>
		<path d="M83.26,240.22c-0.4-0.1-0.85-0.15-1.38-0.14c-1.77,0.04-3.55,0.05-5.33,0.05c-2.78,0-5.57-0.02-8.35-0.02
			c0,0,0,0.01,0,0.01c-4.76,0-9.51,0.03-14.27-0.01c0,0,0,0,0,0c-1.07-0.01-1.83,0.21-2.31,0.71c-0.48,0.5-0.68,1.27-0.65,2.35
			c0.05,1.53,0.09,3.06,0.11,4.58c0.03,1.88,0.03,3.76-0.03,5.64c-0.01,0.46-0.02,0.91-0.04,1.37c-0.06,1.21,0.11,2.08,0.54,2.67
			c0.25,0.35,0.6,0.6,1.04,0.77c0.53,0.2,1.19,0.29,2,0.29c4.13-0.03,8.26-0.05,12.4-0.05c4.99-0.01,9.97,0,14.96,0.02
			c0.56,0,1.04-0.07,1.44-0.2c1.13-0.38,1.65-1.31,1.66-2.84c0.01-1.55,0.01-3.1,0.01-4.65c0.01-1.8,0.02-3.59,0.04-5.39
			c0.01-0.72,0.01-1.43,0.02-2.15c0-0.08-0.01-0.14-0.01-0.22C85.09,241.41,84.5,240.53,83.26,240.22z M81.96,255.3
			c-9.21,0-18.45,0-27.86,0c0-4.13,0-8.13,0-12.24c9.3,0,18.47,0,27.86,0C81.96,247.1,81.96,251.09,81.96,255.3z"/>
		<path d="M133.47,255.57c-0.35-0.01-0.72,0.01-1.04,0.01c-2.32-0.01-4.63-0.01-6.95-0.01c-4.12,0-8.24,0-12.36,0
			c0-0.02,0-0.03,0-0.05c0,0,0,0,0,0c-6.34,0-12.67-0.01-19.01,0.01c-0.27,0-0.56-0.02-0.85-0.03c-0.96-0.03-1.91,0.07-1.93,1.37
			c-0.02,1.08,0.7,1.39,1.53,1.48c0.39,0.04,0.81,0.03,1.19,0.03c11.68,0.04,23.37,0.08,35.05,0.11c1.09,0,2.18,0.01,3.27,0.01
			c0.02,0,0.05,0,0.07,0c1.2,0,2.6-0.05,2.55-1.64c-0.01-0.42-0.13-0.7-0.32-0.89C134.38,255.68,133.94,255.59,133.47,255.57z"/>
		<path d="M67.73,232.48c-4.7,0.01-9.4,0.02-14.1,0.03c-0.45,0-0.94-0.02-1.37,0.05c-0.72,0.11-1.29,0.44-1.24,1.48
			c0.06,1.4,1.46,1.32,2.56,1.32c2.14,0,4.27,0,6.41,0c2.61,0,5.22,0,7.84,0c0,0,0,0,0,0c0,0.01,0,0.02,0,0.03c0,0,0,0,0,0
			c4.65,0,9.3,0,13.95,0c0.37,0,0.78,0.03,1.17,0.01c0.83-0.04,1.56-0.28,1.57-1.41c0.02-1.61-1.49-1.53-2.69-1.52
			C77.13,232.46,72.43,232.47,67.73,232.48z"/>
		<path d="M51.64,226.95C51.65,226.95,51.65,226.95,51.64,226.95c0.01,0.01,0.02,0.01,0.02,0.01c0.36,0.16,0.83,0.19,1.28,0.19
			c0.06,0,0.13,0,0.19,0c1.99,0,3.98,0,5.97,0c6.93,0,13.87,0,20.8-0.02c0.65,0,1.47,0.09,1.93-0.31c0.21-0.18,0.34-0.47,0.35-0.91
			c0.01-0.62-0.2-0.96-0.51-1.16c-0.5-0.31-1.27-0.25-1.92-0.25c-4.36-0.02-8.72-0.01-13.09-0.01c0,0.01,0,0.03,0,0.04c0,0,0,0,0,0
			c-2.23,0-4.46,0-6.69,0c-2.23,0-4.46,0-6.69,0c-0.98,0-2.24-0.15-2.29,1.21c-0.01,0.33,0.05,0.58,0.17,0.78
			C51.27,226.72,51.44,226.86,51.64,226.95z"/>
		<path d="M61.05,218.51c0.34,0.1,0.74,0.13,1.15,0.13c0.88,0,1.76,0,2.64,0c2.1,0,4.19,0,6.29,0c0,0,0,0,0,0c0,0.01,0,0.03,0,0.04
			c0,0,0,0,0,0c2.88,0,5.76,0,8.63,0c0.46,0,0.95,0,1.35-0.11c0.49-0.14,0.85-0.45,0.88-1.19c0.02-0.53-0.16-0.89-0.45-1.15
			c-0.29-0.26-0.71-0.4-1.19-0.44c-0.13-0.01-0.27-0.02-0.4-0.02c-5.95,0.02-11.91,0.01-17.86,0.02c-0.6,0-1.19,0.11-1.58,0.44
			c-0.01,0-0.01,0.01-0.02,0.01c-0.02,0.02-0.03,0.04-0.05,0.05c-0.2,0.2-0.33,0.47-0.35,0.84
			C60.07,217.96,60.48,218.34,61.05,218.51z"/>
		<path d="M141.7,202.1c1.68-0.01,3.36,0,5.04,0c0,0.01,0,0.02,0,0.04c0,0,0,0,0,0c1.68,0,3.36,0,5.04,0c0.7,0,1.24-0.29,1.5-0.8
			c0.09-0.17,0.14-0.36,0.16-0.57c0.05-0.52-0.11-0.93-0.41-1.22c-0.15-0.14-0.33-0.25-0.53-0.33c-0.21-0.08-0.44-0.12-0.69-0.12
			c-0.96-0.01-1.92,0-2.88,0c-2.4,0-4.8,0.02-7.19,0.05c-0.36,0.01-0.68,0.07-0.95,0.2c-0.09,0.04-0.17,0.1-0.25,0.15
			c-0.33,0.26-0.52,0.67-0.46,1.26C140.14,201.69,140.77,202.1,141.7,202.1z"/>
		<path d="M151.48,209.55c-0.2,0.01-0.39,0.01-0.59,0c-0.29,0-0.59,0-0.88,0c0,0.01,0,0.02,0,0.02c0,0,0,0,0,0
			c-0.69,0-1.37,0.01-2.06,0c-0.26,0-0.5,0.01-0.73,0.04c-0.01,0-0.03,0-0.04,0c-0.01,0-0.01,0-0.02,0.01
			c-0.38,0.07-0.69,0.21-0.91,0.47c-0.19,0.23-0.3,0.56-0.28,1.03c0.03,0.83,0.5,1.26,1.17,1.42c0.2,0.05,0.41,0.07,0.64,0.08
			c0.29,0,0.58,0,0.87,0c0.99,0,1.97-0.02,2.96,0.02c1.07,0.05,1.77-0.54,1.85-1.42c0-0.02,0.01-0.04,0.01-0.05
			c0-0.01,0-0.02,0-0.03C153.5,209.98,152.61,209.51,151.48,209.55z"/>
		<path d="M151.8,231.21c-0.22-0.02-0.45-0.01-0.69,0c-0.54,0.03-1.09,0.1-1.55,0.04c-0.43-0.06-0.88-0.06-1.32-0.03
			c-0.24,0.02-0.49,0.04-0.72,0.09c-0.44,0.08-0.77,0.3-1,0.6c-0.1,0.13-0.18,0.29-0.24,0.45c-0.07,0.2-0.12,0.41-0.12,0.63
			c-0.01,0.31,0.07,0.53,0.19,0.71c0.28,0.4,0.82,0.53,1.42,0.52c0.59,0,1.17,0,2.13,0c0.39-0.3,1.17-0.06,1.86-0.02
			c0.76,0.04,1.42-0.15,1.36-1.56c-0.01-0.26-0.05-0.48-0.12-0.65C152.79,231.44,152.34,231.25,151.8,231.21z"/>
		<path d="M152.74,220.59c-0.53-0.31-1.29-0.33-2-0.29c-1.21,0.06-2.88-0.4-3.02,1.45c-0.05,0.67,0.12,1.06,0.41,1.3
			c0.34,0.28,0.85,0.33,1.36,0.34c0.32,0.01,0.63,0,0.91,0.03c0.32-0.02,0.66,0,0.99,0c0.01,0,0.01,0,0.02,0c0,0,0.01,0,0.01,0
			c1.01,0.01,1.95-0.11,1.96-1.53C153.39,221.23,153.14,220.83,152.74,220.59z"/>
		<path d="M115.34,197.97c-13.2,0.13-24.05,10.57-24,23.09c0.06,13.57,10.52,24.08,23.87,24c13.49-0.09,23.65-10.35,23.61-23.84
			C138.78,208.66,127.86,197.85,115.34,197.97z M114.99,242.27c-11.27-0.05-20.57-9.66-20.46-21.14
			c0.11-10.95,9.43-20.05,20.5-20.01c11.82,0.04,20.92,9.26,20.76,21C135.64,233.19,126.22,242.32,114.99,242.27z"/>
		<path d="M100.78,220.57c4.25,0.02,8.5,0.01,12.75,0.01c0,0.02,0,0.04,0,0.06c4.25,0,8.5,0.03,12.75-0.02
			c0.98-0.01,2.44,0.35,2.38-1.38c-0.04-1.44-1.17-1.64-2.35-1.63c-8.5,0.08-17,0.13-25.5,0.25c-1.08,0.01-2.74-0.29-2.63,1.51
			C98.28,220.87,99.74,220.56,100.78,220.57z"/>
		<path d="M126.99,228.45c-8.33-0.03-16.66-0.05-24.99-0.08c-1.13,0-2.45,0.01-2.49,1.44c-0.04,1.52,1.33,1.43,2.42,1.44
			c4.26,0.01,8.53,0,12.79,0c0-0.01,0-0.03,0-0.04c4.07,0,8.13,0.02,12.2-0.02c0.97-0.01,2.46,0.56,2.47-1.2
			C129.4,228.49,128.1,228.46,126.99,228.45z"/>
	</g>
</g>
</svg>
