<?xml version="1.0" encoding="utf-8"?>
<!-- Generator: Adobe Illustrator 24.3.0, SVG Export Plug-In . SVG Version: 6.00 Build 0)  -->
<svg version="1.1" id="Layer_1" xmlns="http://www.w3.org/2000/svg" xmlns:xlink="http://www.w3.org/1999/xlink" x="0px" y="0px"
	 viewBox="0 0 165.99 166.6" style="enable-background:new 0 0 165.99 166.6;" xml:space="preserve">
<style type="text/css">
	.st0{fill:#00B0FB;fill-opacity:0.4;}
	.st1{fill:#00B0FB;}
	.st2{fill:#FFFFFF;}
	.st3{fill:none;stroke:#000000;stroke-width:6.5991;stroke-miterlimit:10;}
</style>
<g>
	<g>
		<path class="st0" d="M77.74,81.01c2.93-5.11,5.63-9.97,8.51-14.71c0.63-1.03,1.88-2.24,2.92-2.31c0.85-0.06,2.09,1.3,2.66,2.31
			c3.51,6.17,6.87,12.43,10.29,18.66c0.35,0.64,0.75,1.26,1.32,2.21c1.92-3.2,3.74-6.09,5.39-9.07c0.92-1.66,2.06-2.36,4.01-2.32
			c5.89,0.12,11.77,0.06,17.66,0.03c1.73-0.01,3.21,0.35,3.16,2.38c-0.05,1.86-1.48,2.24-3.11,2.23
			c-5.12-0.03-10.25,0.07-15.37-0.06c-1.7-0.04-2.59,0.55-3.39,1.98c-1.89,3.4-3.93,6.73-5.96,10.05c-1.67,2.75-3.54,2.72-5.09-0.1
			c-3.73-6.75-7.42-13.52-11.13-20.28c-0.14-0.26-0.33-0.5-0.66-0.98c-2.89,5.02-5.69,9.89-8.5,14.76
			c-1.68,2.91-3.43,2.94-5.22,0.11c-1.63-2.57-3.25-5.15-5.04-7.98c-1.33,2.21-2.58,4.12-3.66,6.12c-0.83,1.54-1.98,2.12-3.7,2.09
			c-4.2-0.08-8.41-0.04-12.62-0.02c-1.75,0.01-3.41-0.21-3.33-2.44c0.08-2.17,1.76-2.36,3.48-2.35c3.44,0.02,6.88-0.05,10.32,0.03
			c1.37,0.03,2.22-0.33,2.91-1.61c1.3-2.42,2.76-4.76,4.25-7.06c1.45-2.25,3.13-2.26,4.62-0.01C74.2,75.34,75.86,78.05,77.74,81.01z
			"/>
		<path class="st1" d="M137.86,29.81c2.36,0,4.41,0,6.45,0c1.57,0,2.76,0.53,2.78,2.29c0.03,1.89-1.19,2.46-2.87,2.44
			c-1.98-0.02-3.96,0-6.37,0c0,2.12-0.02,4.14,0.01,6.16c0.02,1.73-0.41,3.14-2.46,3.08c-1.93-0.06-2.25-1.49-2.24-3.07
			c0.01-1.96,0-3.93,0-6.16c-2.3,0-4.33-0.03-6.37,0.01c-1.71,0.03-2.95-0.62-2.93-2.41c0.02-1.81,1.34-2.37,3.01-2.34
			c1.97,0.04,3.95,0.01,6.3,0.01c0-2.21,0.01-4.23,0-6.25c-0.01-1.63,0.42-2.98,2.32-3c1.88-0.02,2.41,1.26,2.38,2.93
			C137.83,25.47,137.86,27.45,137.86,29.81z"/>
		<path class="st1" d="M28.65,129.37c0-4.59,0.05-9.18-0.03-13.76c-0.03-1.45,0.43-1.93,1.88-2.17c11.45-1.87,22.89-3.78,34.32-5.81
			c7.56-1.34,14.92-0.17,22.25,1.46c2.5,0.55,5.06,1.2,7.32,2.34c2.63,1.33,3.63,4.01,3.02,6.35c-0.52,2.01-2.66,3.73-5.54,3.62
			c-4.57-0.17-9.12-0.78-13.67-1.22c-1.14-0.11-2.27-0.32-3.4-0.46c-4.41-0.55-7.9,1.91-8.76,6.16c-0.85,4.2,1.41,8.13,5.66,9.13
			c4.75,1.12,9.59,1.85,14.39,2.75c1.65,0.31,3.33,0.52,4.95,0.93c6.59,1.67,12.89-0.31,19.23-1.53c7.64-1.47,15.25-3.09,22.89-4.57
			c1.18-0.23,2.45-0.27,3.64-0.11c3.93,0.55,5.37,4.01,2.75,7.01c-1.18,1.36-2.97,2.47-4.7,3.03c-15.31,4.98-30.67,9.77-46,14.69
			c-6.26,2.01-12.33,1.11-18.47-0.6c-13.15-3.68-26.32-7.28-39.51-10.79c-1.75-0.47-2.32-1.13-2.27-2.91
			C28.74,138.4,28.65,133.88,28.65,129.37z"/>
	</g>
	<path class="st2" d="M142.56,102.87c12.6-13.2,15.78-28.69,10.52-46c-0.29-0.95-0.33-1.66-0.09-2.3
		C159.68,49.35,164,41.23,164,32.09c0-15.75-12.78-28.54-28.54-28.54s-28.54,12.78-28.54,28.54c0,0.39,0.04,0.77,0.06,1.16
		c-0.24,0.31-0.59,0.57-1.14,0.79c-5.48,2.13-10.27,5.37-14.48,9.47c-0.87,0.84-1.76,1.66-2.74,2.58c-1.15-1.09-2.19-2.08-3.23-3.07
		c-5.73-5.41-12.34-9.27-20.06-10.97c-11.85-2.61-22.44-0.26-31.3,8.41l0,0l0,0c-2.35,1.6-5.46,6.91-7.09,9.9
		c-0.24,0.29-0.44,0.65-0.61,1.06c-0.14,0.35-0.33,0.69-0.49,1.03l0,0l0,0l0,0c-7.79,17.28-4.32,36.89,8.93,50.49
		c1.31,1.34,2.62,2.68,4.23,4.33c-3.69,0.6-6.89,1.12-10.14,1.65c-0.63-2.83-2.45-3.6-4.96-3.57c-5.74,0.07-11.47,0.01-17.21,0.03
		C3.13,105.4,2,106.54,2,110.04c-0.01,13.01-0.01,26.01,0,39.02c0,3.48,1.17,4.63,4.71,4.65c5.43,0.02,10.86-0.06,16.29,0.04
		c2.81,0.05,5.22-0.29,5.89-3.61c12.9,3.52,25.6,6.83,38.21,10.48c7.93,2.3,15.79,3.59,23.87,1c15.41-4.94,30.82-9.88,46.21-14.86
		c3.17-1.02,5.68-2.95,7.23-5.98c2.74-5.32,0.52-11.14-5.27-12.51c-2.84-0.67-6.05-0.32-9.01,0.14c-5.01,0.77-9.95,1.99-15.45,3.13
		c0.79-0.85,1.18-1.31,1.6-1.74C125.05,120.83,133.9,111.94,142.56,102.87z M23.77,148.74c-5.78,0-11.32,0-16.99,0
		c0-12.81,0-25.47,0-38.33c5.63,0,11.23,0,16.99,0C23.77,123.12,23.77,135.85,23.77,148.74z M114.2,22.72
		c0.12-0.27,0.22-0.55,0.32-0.82c1.49-3.06,3.6-5.75,6.21-7.88c0.3-0.16,0.59-0.35,0.89-0.56c6.84-4.9,14.26-5.92,22.17-3.1
		c0.67,0.24,1.31,0.51,1.94,0.81c0.1,0.05,0.21,0.1,0.31,0.15c0.39,0.19,0.77,0.41,1.14,0.63c0.39,0.23,0.78,0.45,1.16,0.7
		c0.13,0.09,0.26,0.18,0.39,0.27c0.51,0.36,1.02,0.73,1.5,1.12c0.06,0.05,0.12,0.1,0.17,0.15c0.5,0.41,0.97,0.85,1.43,1.3
		c0.11,0.11,0.22,0.23,0.33,0.34c0.37,0.38,0.73,0.78,1.08,1.18c0.21,0.25,0.41,0.51,0.61,0.77c0.22,0.28,0.43,0.56,0.64,0.85
		c0.28,0.41,0.56,0.82,0.81,1.25c0.1,0.16,0.2,0.33,0.3,0.5c0.3,0.51,0.57,1.04,0.83,1.57c0.05,0.11,0.11,0.23,0.16,0.34
		c0.25,0.54,0.47,1.08,0.68,1.64c0.06,0.17,0.13,0.34,0.19,0.51c0.16,0.46,0.3,0.93,0.44,1.4c0.1,0.35,0.19,0.7,0.27,1.06
		c0.07,0.28,0.12,0.56,0.18,0.84c0.27,1.41,0.42,2.86,0.42,4.35c0,12.88-10.43,23.31-23.31,23.31c-5.58,0-10.7-1.97-14.72-5.24
		c-0.06-0.05-0.12-0.09-0.17-0.14c-0.51-0.42-0.99-0.87-1.46-1.33c-0.08-0.08-0.16-0.16-0.24-0.24c-0.44-0.45-0.86-0.91-1.27-1.4
		c-0.09-0.11-0.18-0.22-0.27-0.33c-0.37-0.46-0.73-0.94-1.07-1.43c-0.11-0.16-0.22-0.33-0.33-0.49c-0.29-0.45-0.57-0.91-0.83-1.37
		c-0.14-0.26-0.27-0.51-0.4-0.77c-0.2-0.39-0.4-0.79-0.57-1.19c-0.18-0.4-0.33-0.81-0.48-1.23c-0.1-0.28-0.21-0.55-0.3-0.83
		c-0.2-0.63-0.38-1.26-0.53-1.9c-0.02-0.08-0.04-0.15-0.06-0.23C111.72,32.63,112.11,27.58,114.2,22.72z M133.16,132.58
		c1.18-0.23,2.45-0.27,3.64-0.11c3.93,0.55,5.37,4.01,2.75,7.01c-1.18,1.36-2.97,2.47-4.7,3.03c-15.31,4.98-30.67,9.77-46,14.69
		c-6.26,2.01-12.33,1.11-18.47-0.6c-13.15-3.68-26.32-7.28-39.51-10.79c-1.75-0.47-2.32-1.13-2.27-2.91
		c0.13-4.51,0.04-9.02,0.04-13.53c0-4.59,0.05-9.18-0.03-13.76c-0.03-1.45,0.43-1.93,1.88-2.17c11.45-1.87,22.89-3.78,34.32-5.81
		c7.56-1.34,14.92-0.17,22.25,1.46c2.5,0.55,5.06,1.2,7.32,2.34c2.63,1.33,3.63,4.01,3.02,6.35c-0.52,2.01-2.66,3.73-5.54,3.62
		c-4.57-0.17-9.12-0.78-13.67-1.22c-1.14-0.11-2.27-0.32-3.4-0.46c-4.41-0.55-7.9,1.91-8.76,6.16c-0.85,4.2,1.41,8.13,5.66,9.13
		c4.75,1.12,9.59,1.85,14.39,2.75c1.65,0.31,3.33,0.52,4.95,0.93c6.59,1.67,12.89-0.31,19.23-1.53
		C117.91,135.69,125.52,134.07,133.16,132.58z M107.46,132.06c-0.42,0.43-0.91,1-1.43,1.07c-3.76,0.52-7.62,1.64-11.3,1.24
		c-7.12-0.78-14.14-2.44-21.2-3.74c-1.91-0.35-3.06-1.47-2.96-3.45c0.1-1.94,1.44-2.92,3.76-2.68c4.56,0.46,9.1,1.24,13.67,1.53
		c2.61,0.16,5.4,0.06,7.87-0.7c5.19-1.59,7.66-6.95,5.92-11.93c-1.43-4.08-4.44-6.81-8.43-7.76c-7.41-1.77-14.89-3.99-22.59-3.22
		c-7.81,0.78-15.56,2.24-23.31,3.53c-1.8,0.3-3.15,0.28-4.44-1.27c-1.66-1.99-3.64-3.71-5.41-5.62
		c-9.81-10.53-12.98-22.92-9.98-36.89c0.63-2.95,1.91-5.78,2.96-8.63c0,0,0,0,0,0c1.74-4.83,4.18-7.52,5.62-8.8
		c0.41-0.22,0.81-0.54,1.2-0.92c8.26-8.07,18.03-9.67,28.84-6.65c7.36,2.06,13.26,6.41,18.53,11.81c3.09,3.18,4.43,3.02,7.7,0.11
		c3.13-2.78,6.37-5.47,9.74-7.96c1.6-1.18,3.55-1.89,5.44-2.8c2.86,12.75,14.22,22.28,27.83,22.28c4.62,0,8.96-1.12,12.82-3.07
		c0.16,0.28,0.36,0.56,0.45,0.87c4.35,14.84,2.14,28.46-8.49,39.93C129.59,109.84,118.41,120.85,107.46,132.06z"/>
</g>
<g>
	<g>
		<path d="M12.85,280.31c-2.67-2.42-5.31-4.89-8.03-7.26c-8.82-7.72-17.67-15.4-26.6-23.17c0.81-1.04,1.93-2.47,2.99-3.84
			c4.71,2.01,6.27,1.68,9.54-1.89c0.56-0.61,1.2-1.17,1.64-1.88C-2.6,234.34-16.53,224.54-22,218l-0.32-50.12
			c0.06-5.36-3.63-8.68-9.05-8.83c-1.51-0.04-3.02,0-4.76,0c0.3-1.1,0.48-1.71,0.64-2.33c1.64-6.48-1.15-9.99-7.89-9.95
			c-3.04,0.01-6.08,0-9.28,0c-0.09-0.38-0.19-0.81-0.29-1.24c-0.47-2.06-0.8-4.17-1.49-6.16c-0.22-0.63-1.41-0.92-2.15-1.37
			c-0.35,0.65-0.87,1.27-1.01,1.97c-0.3,1.54-0.6,3.12-0.56,4.67c0.05,2.32-1.12,2.73-3.1,2.7c-3.05-0.04-6.13-0.05-9.15,0.3
			c-3.81,0.43-5.5,2.7-5.17,6.52c0.15,1.73,0.55,3.44,0.89,5.41c-2.01,0-3.95-0.08-5.88,0.02c-4.71,0.24-8.08,3.5-8.02,8.2L-89,213
			c-4.04-1.95-5.79-2.71-9.72-4.61c7.96-9.66,7.96-19.26-0.02-26.04c-6.9-5.86-17.53-5.06-23.48,1.76
			c-6.69,7.68-5.81,17.36,2.52,24.68c-0.83,0.29-1.43,0.51-2.04,0.72c-14.68,5-25.34,19.27-25.55,34.68
			c-0.15,11.57,0.04,23.15,0.2,34.73c0.1,6.45,4.09,9.23,10.77,9.23c3.62,0,7.22-0.52,10.83-0.76c-0.62,1.03-1.56,1.44-2.02,2.15
			c-0.62,0.99-1.38,2.33-1.14,3.29c0.19,0.75,1.77,1.23,2.79,1.67c0.47,0.2,1.1,0.04,1.66,0.03c24.63-0.19,49.27-0.33,73.9-0.6
			c12.87-0.14,25.74-0.47,38.61-0.78c1.8-0.05,3.6-0.46,5.4-0.7c-3.05-2.84-5.95-5.16-9.17-6.91c-3.45-1.88-7.14-4.36-10.82-4.55
			c-5.57-0.27-8.49-2.47-9.8-7.54c4.62-6.64,4.7-6.93,3.03-11.02c1.31-1.14,2.63-2.28,4.19-3.64c0.23,0.35,0.4,0.69,0.63,0.98
			c9.18,11.87,20.66,21.42,31.78,31.33c3.32,2.96,6.55,2.22,9.96-1.8C16.15,286.2,15.92,283.1,12.85,280.31z M-23.08,223.57
			l10.52,11.07c0.79,0.84,1.18,1.91,1.18,2.97c0,1.22-0.51,2.43-1.51,3.28c-1.69,1.45-4.21,1.37-5.81-0.19l-10.91-10.66
			c-1.68-1.64-1.73-4.34-0.12-6.05l0.4-0.41C-27.64,221.78-24.78,221.78-23.08,223.57z M-71.46,153.36c0.12-0.51,1.2-1.14,1.83-1.14
			c9.16-0.03,18.32-0.01,27.47,0.16c0.75,0.02,1.85,1.11,2.14,1.94c0.48,1.35,0.43,2.89,0.67,4.89h-32.87
			C-71.99,157.29-71.88,155.29-71.46,153.36z M-83.83,168.14c0.06-2.68,1.28-3.63,4.44-3.62c13.24,0.03,26.49,0.08,39.73,0.11
			c2.41,0.01,4.81-0.04,7.22-0.05c3.4-0.01,4.5,1.04,4.57,4.44c0.24,12.04,0.43,24.07,0.72,36.11c0.09,4.05,0.39,8.09,0.59,12.11
			c-5.61,1.64-9.98,7.8-8.88,11.15c-5.34,6.32-10.38,12.28-15.52,18.36c-3.59-1.33-5.44-0.73-8.3,2.49
			c-0.69,0.77-2.04,1.36-3.08,1.35c-2.93-0.05-5.86-0.44-9.06-0.73c0-1.25-0.02-2.52,0-3.79c0.21-11.28-3.94-20.72-11.9-28.62
			c-0.81-0.8-1.55-2.15-1.53-3.24C-84.58,198.86-84.21,183.5-83.83,168.14z M-44.68,275.68c2.97,0.02,5.62,0.74,7.44,3.63h-58.41
			c1.28-2.7,3.32-3.43,5.46-3.69c2.01-0.24,4.06-0.1,6.1-0.1C-70.96,275.57-57.82,275.62-44.68,275.68z M-72,270
			c0-5,0.24-9,0.24-13.93c0.42-0.15,0.59-0.25,0.77-0.27c2.56-0.29,5.85,0.38,7.99,1.2c1.89,0.72,2.35,2.01,4,3.73
			c2.85,2.98,5.97,5.71,8.97,8.55c-0.19,0.34-0.38,0.68-0.57,1.02C-58.07,270.3-64.29,270-72,270z M-39.34,268.34
			c-1.59,1.55-4.11,1.64-5.81,0.18l-11.57-9.93c-1.79-1.52-2.01-4.21-0.52-6.03l0.38-0.43c1.57-1.91,4.42-2.09,6.23-0.42
			l11.22,10.37c0.84,0.78,1.3,1.83,1.37,2.88C-37.96,266.18-38.39,267.42-39.34,268.34z M-121.06,195.77
			c0.08-6.69,5.43-11.99,12.01-11.9c6.64,0.09,11.89,5.49,11.81,12.14c-0.09,6.74-5.62,12.85-11.63,12.84
			C-115.06,208.84-121.15,202.32-121.06,195.77z M-108.37,219.91c1.29,10.63,2.63,21.26,3.78,31.9c0.15,1.38-0.4,3.01-1.1,4.25
			c-1,1.73-2.44,3.21-3.94,5.11c-1.86-2.18-3.55-4.02-5.05-5.99c-0.48-0.64-0.74-1.69-0.64-2.5c1.57-12.37,3.21-24.73,4.84-37.09
			c0.11-0.81,0.33-1.6,1.19-2.45C-108.98,215.39-108.65,217.65-108.37,219.91z M-142.68,282c0.05-12.86-0.35-27.33,0.52-40.14
			c1-14.73,14.69-27.57,29.33-28.81c0.62-0.05,1.24,0,2.07,0c-2.29,9.09-4.48,17.68-6.59,26.28c-1.1,4.49-2.24,8.98-2.95,13.53
			c-0.24,1.6,0.32,3.67,1.24,5.03c2.07,3.05,4.53,5.85,6.95,8.64c1.89,2.18,3.36,2.09,5.23-0.14c2.38-2.83,4.64-5.77,7.07-8.56
			c1.35-1.55,1.7-3.12,1.2-5.1c-3.01-11.91-5.94-23.83-8.9-35.74c-0.3-1.22-0.58-2.45-0.95-4.04c8.82,0.41,16.03,3.48,21.96,9.38
			c5.84,5.81,9.32,12.9,9.95,21.13c0.69,8.93,0.07,17.89,0.55,27.43c-4.03,0-7.08-0.03-11.03,0.01c-5.2,0.06-9.44,1.64-11.44,7.03
			c-0.22,0.61-1.54,1.05-2.4,1.16c-3.75,0.49-7.56,2.16-11.26,2.87L-142.68,282z M-30.75,283.81c6.24-0.15,11.65,1.1,15.86,6.09
			c-33.88-0.35-67.6-0.71-101.89-1.07c3-2.58,6.14-3.5,9.42-3.65c6.38-0.28,12.76-0.36,19.15-0.46
			C-69.06,284.43-49.9,284.27-30.75,283.81z M-36.99,260.15l-11.11-9.5l16.08-18.8l11.11,9.5L-36.99,260.15z M7.93,287.38
			c-11.72-10.33-23.29-20.52-35.05-30.88c0.98-1.24,2.17-2.74,3.42-4.32c11.25,10.95,22.37,21.76,33.77,32.86
			C9.24,285.95,8.58,286.67,7.93,287.38z"/>
	</g>
</g>
</svg>
