<?xml version="1.0" encoding="utf-8"?>
<!-- Generator: Adobe Illustrator 24.3.0, SVG Export Plug-In . SVG Version: 6.00 Build 0)  -->
<svg version="1.1" id="Layer_1" xmlns="http://www.w3.org/2000/svg" xmlns:xlink="http://www.w3.org/1999/xlink" x="0px" y="0px"
	 viewBox="0 0 165.99 166.6" style="enable-background:new 0 0 165.99 166.6;" xml:space="preserve">
<style type="text/css">
	.st0{fill:#00B0FB;fill-opacity:0.4;}
	.st1{fill:#FFFFFF;}
	.st2{fill:#00B0FB;}
	.st3{fill:none;stroke:#000000;stroke-width:6.5991;stroke-miterlimit:10;}
</style>
<g>
	<g>
		<path class="st1" d="M161.85,147.31c-2.67-2.42-5.31-4.89-8.03-7.26c-8.82-7.72-17.67-15.4-26.6-23.17
			c0.81-1.04,1.93-2.47,2.99-3.84c4.71,2.01,6.27,1.68,9.54-1.89c0.56-0.61,1.2-1.17,1.64-1.88c5.01-7.93-8.92-17.73-14.39-24.27
			l-0.32-50.12c0.06-5.36-3.63-8.68-9.05-8.83c-1.51-0.04-3.02,0-4.76,0c0.3-1.1,0.48-1.71,0.64-2.33c1.64-6.48-1.15-9.99-7.89-9.95
			c-3.04,0.01-6.08,0-9.28,0c-0.09-0.38-0.19-0.81-0.29-1.24c-0.47-2.06-0.8-4.17-1.49-6.16C94.34,5.74,93.15,5.45,92.41,5
			c-0.35,0.65-0.87,1.27-1.01,1.97c-0.3,1.54-0.6,3.12-0.56,4.67c0.05,2.32-1.12,2.73-3.1,2.7c-3.05-0.04-6.13-0.05-9.15,0.3
			c-3.81,0.43-5.5,2.7-5.17,6.52c0.15,1.73,0.55,3.44,0.89,5.41c-2.01,0-3.95-0.08-5.88,0.02c-4.71,0.24-8.08,3.5-8.02,8.2L60,80
			c-4.04-1.95-5.79-2.71-9.72-4.61c7.96-9.66,7.96-19.26-0.02-26.04c-6.9-5.86-17.53-5.06-23.48,1.76
			c-6.69,7.68-5.81,17.36,2.52,24.68c-0.83,0.29-1.43,0.51-2.04,0.72c-14.68,5-25.34,19.27-25.55,34.68
			c-0.15,11.57,0.04,23.15,0.2,34.73c0.1,6.45,4.09,9.23,10.77,9.23c3.62,0,7.22-0.52,10.83-0.76c-0.62,1.03-1.56,1.44-2.02,2.15
			c-0.62,0.99-1.38,2.33-1.14,3.29c0.19,0.75,1.77,1.23,2.79,1.67c0.47,0.2,1.1,0.04,1.66,0.03c24.63-0.19,49.27-0.33,73.9-0.6
			c12.87-0.14,25.74-0.47,38.61-0.78c1.8-0.05,3.6-0.46,5.4-0.7c-3.05-2.84-5.95-5.16-9.17-6.91c-3.45-1.88-7.14-4.36-10.82-4.55
			c-5.57-0.27-8.49-2.47-9.8-7.54c4.62-6.64,4.7-6.93,3.03-11.02c1.31-1.14,2.63-2.28,4.19-3.64c0.23,0.35,0.4,0.69,0.63,0.98
			c9.18,11.87,20.66,21.42,31.78,31.33c3.32,2.96,6.55,2.22,9.96-1.8C165.15,153.2,164.92,150.1,161.85,147.31z M125.92,90.57
			l10.52,11.07c0.79,0.84,1.18,1.91,1.18,2.97c0,1.22-0.51,2.43-1.51,3.28c-1.69,1.45-4.21,1.37-5.81-0.19l-10.91-10.66
			c-1.68-1.64-1.73-4.34-0.12-6.05l0.4-0.41C121.36,88.78,124.22,88.78,125.92,90.57z M77.54,20.36c0.12-0.51,1.2-1.14,1.83-1.14
			c9.16-0.03,18.32-0.01,27.47,0.16c0.75,0.02,1.85,1.11,2.14,1.94c0.48,1.35,0.43,2.89,0.67,4.89H76.78
			C77.01,24.29,77.12,22.29,77.54,20.36z M65.17,35.14c0.06-2.68,1.28-3.63,4.44-3.62c13.24,0.03,26.49,0.08,39.73,0.11
			c2.41,0.01,4.81-0.04,7.22-0.05c3.4-0.01,4.5,1.04,4.57,4.44c0.24,12.04,0.43,24.07,0.72,36.11c0.09,4.05,0.39,8.09,0.59,12.11
			c-5.61,1.64-9.98,7.8-8.88,11.15c-5.34,6.32-10.38,12.28-15.52,18.36c-3.59-1.33-5.44-0.73-8.3,2.49
			c-0.69,0.77-2.04,1.36-3.08,1.35c-2.93-0.05-5.86-0.44-9.06-0.73c0-1.25-0.02-2.52,0-3.79c0.21-11.28-3.94-20.72-11.9-28.62
			c-0.81-0.8-1.55-2.15-1.53-3.24C64.42,65.86,64.79,50.5,65.17,35.14z M104.32,142.68c2.97,0.02,5.62,0.74,7.44,3.63H53.35
			c1.28-2.7,3.32-3.43,5.46-3.69c2.01-0.24,4.06-0.1,6.1-0.1C78.04,142.57,91.18,142.62,104.32,142.68z M77,137
			c0-5,0.24-9,0.24-13.93c0.42-0.15,0.59-0.25,0.77-0.27c2.56-0.29,5.85,0.38,7.99,1.2c1.89,0.72,2.35,2.01,4,3.73
			c2.85,2.98,5.97,5.71,8.97,8.55c-0.19,0.34-0.38,0.68-0.57,1.02C90.93,137.3,84.71,137,77,137z M109.66,135.34
			c-1.59,1.55-4.11,1.64-5.81,0.18l-11.57-9.93c-1.79-1.52-2.01-4.21-0.52-6.03l0.38-0.43c1.57-1.91,4.42-2.09,6.23-0.42
			l11.22,10.37c0.84,0.78,1.3,1.83,1.37,2.88C111.04,133.18,110.61,134.42,109.66,135.34z M27.94,62.77
			c0.08-6.69,5.43-11.99,12.01-11.9c6.64,0.09,11.89,5.49,11.81,12.14c-0.09,6.74-5.62,12.85-11.63,12.84
			C33.94,75.84,27.85,69.32,27.94,62.77z M40.63,86.91c1.29,10.63,2.63,21.26,3.78,31.9c0.15,1.38-0.4,3.01-1.1,4.25
			c-1,1.73-2.44,3.21-3.94,5.11c-1.86-2.18-3.55-4.02-5.05-5.99c-0.48-0.64-0.74-1.69-0.64-2.5c1.57-12.37,3.21-24.73,4.84-37.09
			c0.11-0.81,0.33-1.6,1.19-2.45C40.02,82.39,40.35,84.65,40.63,86.91z M6.32,149c0.05-12.86-0.35-27.33,0.52-40.14
			c1-14.73,14.69-27.57,29.33-28.81c0.62-0.05,1.24,0,2.07,0c-2.29,9.09-4.48,17.68-6.59,26.28c-1.1,4.49-2.24,8.98-2.95,13.53
			c-0.24,1.6,0.32,3.67,1.24,5.03c2.07,3.05,4.53,5.85,6.95,8.64c1.89,2.18,3.36,2.09,5.23-0.14c2.38-2.83,4.64-5.77,7.07-8.56
			c1.35-1.55,1.7-3.12,1.2-5.1c-3.01-11.91-5.94-23.83-8.9-35.74c-0.3-1.22-0.58-2.45-0.95-4.04c8.82,0.41,16.03,3.48,21.96,9.38
			c5.84,5.81,9.32,12.9,9.95,21.13c0.69,8.93,0.07,17.89,0.55,27.43c-4.03,0-7.08-0.03-11.03,0.01c-5.2,0.06-9.44,1.64-11.44,7.03
			c-0.22,0.61-1.54,1.05-2.4,1.16c-3.75,0.49-7.56,2.16-11.26,2.87L6.32,149z M118.25,150.81c6.24-0.15,11.65,1.1,15.86,6.09
			c-33.88-0.35-67.6-0.71-101.89-1.07c3-2.58,6.14-3.5,9.42-3.65c6.38-0.28,12.76-0.36,19.15-0.46
			C79.94,151.43,99.1,151.27,118.25,150.81z M112.01,127.15l-11.11-9.5l16.08-18.8l11.11,9.5L112.01,127.15z M156.93,154.38
			c-11.72-10.33-23.29-20.52-35.05-30.88c0.98-1.24,2.17-2.74,3.42-4.32c11.25,10.95,22.37,21.76,33.77,32.86
			C158.24,152.95,157.58,153.67,156.93,154.38z"/>
		<path class="st2" d="M77.6,116.86c0-1.26-0.02-2.53,0-3.8c0.21-11.28-3.94-20.71-11.9-28.61c-0.81-0.8-1.55-2.15-1.53-3.24
			c0.25-15.36,0.62-30.71,1-46.07c0.07-2.69,1.28-3.63,4.45-3.63c13.24,0.03,26.48,0.08,39.73,0.12c2.41,0.01,4.82-0.04,7.22-0.05
			c3.39-0.01,4.5,1.04,4.57,4.44c0.24,12.03,0.44,24.07,0.72,36.1c0.09,4.05,0.39,8.1,0.6,12.12c-5.62,1.64-9.99,7.79-8.88,11.15
			c-5.34,6.32-10.38,12.28-15.52,18.36c-3.6-1.32-5.45-0.73-8.31,2.49c-0.69,0.77-2.04,1.36-3.08,1.34
			C83.73,117.54,80.8,117.15,77.6,116.86z"/>
		<path class="st2" d="M134.11,156.9c-33.88-0.36-67.61-0.71-101.89-1.07c3-2.58,6.14-3.5,9.43-3.65
			c6.37-0.29,12.76-0.36,19.14-0.46c19.15-0.3,38.31-0.45,57.46-0.91C124.49,150.66,129.9,151.91,134.11,156.9z"/>
		<path class="st0" d="M39.95,50.87c6.65,0.09,11.89,5.48,11.81,12.14c-0.09,6.74-5.62,12.85-11.63,12.84
			c-6.19-0.01-12.27-6.53-12.19-13.08C28.02,56.08,33.37,50.78,39.95,50.87z"/>
		<path class="st2" d="M39.37,128.17c-1.86-2.18-3.55-4.01-5.05-5.99c-0.48-0.64-0.74-1.69-0.64-2.49
			c1.57-12.37,3.2-24.73,4.84-37.1c0.11-0.8,0.33-1.59,1.18-2.45c0.31,2.26,0.65,4.51,0.92,6.77c1.29,10.63,2.63,21.26,3.78,31.91
			c0.15,1.37-0.4,3.01-1.1,4.24C42.31,124.79,40.87,126.27,39.37,128.17z"/>
		<path class="st0" d="M111.76,146.31c-19.51,0-38.73,0-58.41,0c1.29-2.7,3.32-3.43,5.46-3.68c2.01-0.24,4.06-0.11,6.09-0.1
			c13.14,0.05,26.27,0.1,39.41,0.16C107.29,142.7,109.94,143.42,111.76,146.31z"/>
	</g>
	<path class="st1" d="M85.31,52.36h-4.62c-3.1,0-5.61-2.51-5.61-5.61v-3.01c0-3.1,2.51-5.61,5.61-5.61h4.62
		c3.1,0,5.61,2.51,5.61,5.61v3.01C90.91,49.85,88.4,52.36,85.31,52.36z"/>
	<path class="st1" d="M105.81,52.36h-4.62c-3.1,0-5.61-2.51-5.61-5.61v-3.01c0-3.1,2.51-5.61,5.61-5.61h4.62
		c3.1,0,5.61,2.51,5.61,5.61v3.01C111.42,49.85,108.91,52.36,105.81,52.36z"/>
	<path class="st1" d="M105.06,70.47h-4.62c-3.1,0-5.61-2.51-5.61-5.61v-3.01c0-3.1,2.51-5.61,5.61-5.61h4.62
		c3.1,0,5.61,2.51,5.61,5.61v3.01C110.66,67.96,108.15,70.47,105.06,70.47z"/>
	<path class="st1" d="M85.31,70.47h-4.62c-3.1,0-5.61-2.51-5.61-5.61v-3.01c0-3.1,2.51-5.61,5.61-5.61h4.62
		c3.1,0,5.61,2.51,5.61,5.61v3.01C90.91,67.96,88.4,70.47,85.31,70.47z"/>
</g>
</svg>
