<?xml version="1.0" encoding="utf-8"?>
<!-- Generator: Adobe Illustrator 25.0.0, SVG Export Plug-In . SVG Version: 6.00 Build 0)  -->
<svg version="1.1" id="Layer_1" xmlns="http://www.w3.org/2000/svg" xmlns:xlink="http://www.w3.org/1999/xlink" x="0px" y="0px"
	 viewBox="0 0 104.19 111.76" style="enable-background:new 0 0 104.19 111.76;" xml:space="preserve">
<style type="text/css">
	.st0{fill:#00B0FB;}
	.st1{fill:#00B0FB;fill-opacity:0.4;}
	.st2{fill:#FFFFFF;}
	.st3{fill:#185AE9;}
	.st4{fill-rule:evenodd;clip-rule:evenodd;fill:#00B0FB;}
	.st5{fill:none;}
</style>
<g>
	<path class="st0" d="M4.54,2.93c0.79-0.7,1.75-1.06,2.84-1.06h1.98V1.18H3.83c-1.84,1.29-2.78,3.14-2.8,5.56
		C0.99,12.7,1,18.67,1,24.63l0.01,7.4v58.1h4.21v-1.19H3.65c-0.44,0-0.8-0.36-0.8-0.8c0,0,0-79.33,0-81.18
		C2.85,5.3,3.41,3.94,4.54,2.93z"/>
	<path class="st2" d="M104.17,101.63l-0.42-3.65c-0.38-3.24-0.76-6.48-1.16-9.72c-0.04-0.33-0.17-0.6-0.27-0.72
		c-2.17-2.72-4.34-5.42-6.52-8.12l-2.12-2.62c-0.43-0.54-0.99-0.82-1.77-0.9c-0.38-0.03-0.87-0.25-1.1-0.67
		c-0.18-0.32-0.37-0.65-0.58-1.01c-0.59-1.03-1.21-2.11-1.71-3.23c-0.5-1.15-0.9-2.34-1.29-3.49c-0.18-0.52-0.35-1.04-0.54-1.57
		l-0.09-0.28c-0.07-0.22-0.14-0.42-0.23-0.55c-2.88-4.31-5.77-8.61-8.66-12.91c-0.87-1.29-2.32-2.08-3.86-2.08
		c-0.91,0-1.82,0.27-2.6,0.79l-0.99,0.65c-0.13,0.09-0.28,0.13-0.44,0.13c-0.13,0-0.26-0.03-0.38-0.09
		C69.16,51.45,69,51.18,69,50.87V37.2c0.01-10.17,0.01-20.35,0-30.52C68.99,2.93,66.08,0,62.37,0c-2.51,0.03-5.01,0.03-7.51,0.03
		L44.18,0.02L20.51,0.03c-3.99,0-14.02-0.01-14.03-0.01c-1.03,0-1.9,0.17-2.62,0.53C1.34,1.83,0.04,3.9,0.02,6.74
		C-0.01,12.7,0,18.67,0,24.63l0.01,7.4v72.93c0,0.42,0.04,0.84,0.1,1.23c0.44,2.77,2.79,5.57,6.42,5.57h0.06
		c2.32-0.02,4.63-0.03,6.95-0.03l10.1,0.02l17.59-0.02l21.25,0.01c0.93,0,1.73-0.14,2.44-0.43c2.44-1,4.07-3.5,4.08-6.2
		c0.01-1.57,0-3.12,0-4.7v-3.13c0-0.33,0.21-0.64,0.53-0.75c0.09-0.03,0.18-0.05,0.27-0.05c0.24,0,0.46,0.11,0.61,0.29l0.13,0.15
		c0.09,0.1,0.14,0.16,0.19,0.23l1.52,2.14c1.4,1.99,2.82,3.96,4.2,5.97c0.39,0.57,0.76,0.69,1.19,0.69c0.11,0,0.21-0.01,0.32-0.02
		c2.71-0.34,5.42-0.66,8.13-0.98l17.02-1.99c0.3-0.03,0.68-0.12,0.88-0.36C104.21,102.35,104.21,101.94,104.17,101.63z M1.85,6.95
		c0-1.66,0.56-3.01,1.69-4.02c0.79-0.7,1.75-1.06,2.84-1.06h25.76l21.95-0.01c0.88,0,1.77,0.01,2.64,0.01
		c0.88,0.01,1.76,0.01,2.63,0.01c1,0,2,0,3-0.03h0.12c2.65,0,4.35,2.12,4.62,4.11c0.04,0.33,0.07,0.66,0.07,0.98v44.23
		c0,0.23-0.1,0.45-0.27,0.6c-0.14,0.13-0.32,0.2-0.59,0.2h-0.03c-0.21-0.03-0.41-0.04-0.61-0.04c-1.56,0-2.95,0.72-4.53,2.33
		c-0.15,0.15-0.36,0.24-0.57,0.24c-0.1,0-0.2-0.02-0.29-0.06c-0.17-0.07-0.34-0.14-0.51-0.21c-0.35-0.15-0.67-0.28-1-0.37
		c-0.32-0.09-0.69-0.13-1.15-0.18c-0.15-0.02-0.31-0.04-0.46-0.06c-0.21-0.03-0.41-0.15-0.54-0.32c-0.12-0.18-0.18-0.4-0.14-0.61
		c1.24-6.94-0.27-13.16-4.49-18.5c-3.12-3.94-7.15-6.54-11.98-7.72c-1.84-0.45-3.7-0.68-5.56-0.68c-8.34,0-15.92,4.64-19.79,12.11
		c-4.72,9.08-2.8,19.84,4.77,26.8c4.11,3.77,9.47,5.86,15.09,5.86c4.46,0,8.8-1.32,12.53-3.8c0.13-0.09,0.29-0.14,0.44-0.14
		c0.27,0,0.52,0.13,0.67,0.35l4.6,6.85c0.18,0.27,0.18,0.62,0,0.89c-0.15,0.22-0.39,0.36-0.66,0.36c-0.06,0-0.11-0.01-0.16-0.02
		l-0.93-0.19c-0.67-0.13-1.3-0.26-1.94-0.41c-0.37-0.08-0.74-0.12-1.11-0.12c-2.46,0-4.59,1.76-5.09,4.17
		c-0.28,1.39,0,2.81,0.79,3.99c0.76,1.13,1.91,1.89,3.22,2.14c1,0.18,2.01,0.35,3.02,0.52c1.34,0.22,2.73,0.45,4.1,0.72
		c1.29,0.27,2.62,0.61,3.78,0.91c0,0,1.13,0.3,1.59,0.41c0.1,0.02,0.19,0.06,0.39,0.12c0.38,0.13,0.61,0.58,0.51,1.01
		c-0.09,0.36-0.41,0.61-0.78,0.61H2.65c-0.44,0-0.8-0.36-0.8-0.8C1.85,88.13,1.85,8.81,1.85,6.95z M39.47,54.07
		c1.1,1.66,5.41,8.04,5.41,8.04c0.31,0.46,0.62,0.92,0.94,1.4l0.38,0.58c0.24,0.37,0.14,0.87-0.22,1.11
		c-3.47,2.32-7.31,3.49-11.44,3.49h-0.19c-4.88-0.04-9.15-1.62-13.07-4.82c-0.17-0.14-0.28-0.35-0.29-0.58
		c-0.01-0.23,0.08-0.45,0.24-0.61l0.72-0.7c0.43-0.41,0.84-0.82,1.25-1.22l3.39-3.4c2.79-2.78,5.57-5.57,8.37-8.34
		c0.36-0.35,0.47-0.72,0.46-1.59c0-4.46,0-8.93-0.01-13.39c0-1.46,0.01-5.29,0.01-5.29c0-0.07,0.01-0.15,0.03-0.34
		c0.04-0.41,0.38-0.71,0.79-0.71l0.01-0.2l0.07,0.2c4.23,0.41,7.99,1.95,11.16,4.56c4.22,3.5,6.72,8.03,7.4,13.45
		c0.4,3.11,0.06,6.21-0.99,9.22c-0.1,0.26-0.24,0.46-0.41,0.69c-0.09,0.11-0.18,0.21-0.29,0.34l-0.14,0.15
		c-0.16,0.18-0.38,0.27-0.65,0.27c-0.25-0.01-0.48-0.14-0.62-0.35l-0.81-1.2l-1.27-1.89c-0.88-1.32-1.77-2.64-2.66-3.95
		c-0.76-1.13-2.15-1.84-3.59-1.84c-0.72,0-1.41,0.18-2.02,0.51c-1.82,0.99-2.64,2.35-2.61,4.26C38.83,52.72,39.05,53.44,39.47,54.07
		z M14.24,49.37c0.15-0.17,0.37-0.26,0.59-0.26h15.24c0.33,0,0.62,0.19,0.74,0.49c0.13,0.3,0.06,0.65-0.17,0.87l-10.81,10.8
		c-0.16,0.15-0.35,0.23-0.6,0.23c-0.23-0.01-0.44-0.12-0.58-0.29c-2.67-3.25-4.21-7.02-4.6-11.24
		C14.02,49.76,14.09,49.54,14.24,49.37z M14,46.36c0.43-4.23,1.98-8,4.59-11.17c3.6-4.35,8.34-6.88,14.08-7.5h0.09
		c0.2,0,0.39,0.07,0.53,0.2c0.17,0.15,0.27,0.37,0.27,0.6v17.95c0,0.44-0.36,0.8-0.8,0.8H14.8c-0.23,0-0.44-0.09-0.59-0.26
		C14.05,46.81,13.98,46.59,14,46.36z M67.16,104.97c-0.02,2.08-0.94,3.62-2.66,4.48c-0.55,0.28-1.24,0.43-1.97,0.43
		c-4.2,0.01-8.42,0.01-12.63,0.01H14.42c-0.67,0-2.36-0.01-2.36-0.01c-0.78,0-1.57-0.01-2.35-0.01c-1.01,0-2.02,0.01-3.03,0.04H6.53
		c-2.48,0-4.48-1.95-4.67-4.53c-0.02-0.28-0.02-0.56-0.02-0.84v-12.9c0-0.44,0.36-0.8,0.8-0.8h63.72c0.44,0,0.8,0.36,0.8,0.8
		l0.01,8.41C67.18,101.69,67.18,103.32,67.16,104.97z M70.07,90.36l-0.7-0.51c-0.45-0.34-0.9-0.67-1.37-0.98
		c-2.69-1.72-5.7-2.73-8.29-3.49c-4.23-1.25-8.57-1.98-12.25-2.52c-1.74-0.26-2.91-1.68-2.86-3.44c0.05-1.73,1.36-3.11,3.06-3.22
		c0.08-0.01,0.16-0.01,0.23-0.01c0.54,0,1.05,0.11,1.5,0.21l0.3,0.07c1.27,0.26,2.54,0.53,3.81,0.81l2.05,0.43
		c0.12,0.03,0.24,0.05,0.35,0.05c0.33,0,0.58-0.13,0.76-0.39c0.09-0.13,0.36-0.52-0.07-1.15l-9.3-13.81
		c-2.07-3.05-4.12-6.11-6.17-9.17c-0.85-1.26-0.52-2.81,0.76-3.67c0.54-0.37,1.09-0.55,1.65-0.55c0.83,0,1.59,0.43,2.11,1.21
		l6.71,9.98c0.11,0.18,0.22,0.34,0.34,0.45c0.16,0.16,0.38,0.25,0.61,0.25c0.17,0,0.34-0.05,0.49-0.14c0.35-0.22,0.5-0.62,0.39-1.06
		c-0.23-0.92,0-1.93,0.64-2.75c0.69-0.88,1.71-1.41,2.73-1.41c0.22,0,0.43,0.03,0.64,0.08c0.68,0.15,1.25,0.53,1.69,1.13
		c0.1,0.13,0.19,0.27,0.28,0.42c0.08,0.11,0.16,0.22,0.24,0.34c0.17,0.24,0.45,0.39,0.73,0.39c0.08,0,0.15-0.01,0.23-0.03
		c0.44-0.12,0.66-0.39,0.69-0.83c0.08-1.03,0.58-1.88,1.45-2.43l0.18-0.12c0.48-0.31,1.09-0.7,1.91-0.7h0.15
		c0.92,0.06,1.7,0.51,2.23,1.29l0.32,0.49c0.09,0.12,0.17,0.25,0.26,0.38c0.22,0.32,0.51,0.49,0.82,0.49c0.09,0,0.19-0.01,0.29-0.05
		c0.43-0.14,0.64-0.49,0.63-1.03c-0.02-0.79,0.33-1.6,0.97-2.26c0.71-0.72,1.67-1.15,2.57-1.15c0.25,0,0.49,0.03,0.72,0.1
		c0.66,0.18,1.21,0.58,1.63,1.19L78,55.93c2.21,3.29,4.41,6.58,6.6,9.88c0.28,0.42,0.41,0.89,0.53,1.36
		c0.04,0.14,0.07,0.27,0.11,0.4c1.05,3.2,2.35,6.02,3.97,8.63c0.03,0.05,0.06,0.11,0.15,0.27c0.2,0.35,0.09,0.8-0.24,1.04L71,90.36
		c-0.14,0.1-0.3,0.15-0.47,0.15C70.36,90.51,70.2,90.46,70.07,90.36z M102.13,100.51c0,0.4-0.3,0.75-0.7,0.79
		c0,0-1.97,0.24-2.54,0.31l-13.85,1.62c-2.13,0.25-4.25,0.5-6.51,0.75c-0.31,0-0.76-0.13-1.02-0.49c-2.05-2.87-4.08-5.75-6.15-8.66
		l-0.69-0.98c-0.12-0.17-0.17-0.39-0.14-0.6c0.04-0.21,0.15-0.39,0.33-0.51l20.57-14.59c0.14-0.09,0.3-0.14,0.47-0.14
		c0.24,0,0.46,0.11,0.62,0.29c0,0,1.33,1.64,1.7,2.1c2.08,2.57,4.15,5.14,6.22,7.71c0.22,0.28,0.37,0.61,0.41,0.94
		c0.38,3.2,0.75,6.4,1.12,9.6l0.16,1.42c0.01,0.1,0.02,0.2,0.01,0.32V100.51z"/>
	<path class="st0" d="M41.42,47.67c0.6-0.33,1.3-0.51,2.01-0.51c1.45,0,2.83,0.7,3.6,1.84c0.89,1.31,1.77,2.63,2.66,3.95l1.27,1.89
		l0.82,1.2c0.14,0.21,0.36,0.34,0.61,0.35c0.27,0,0.5-0.09,0.65-0.27l0.14-0.16c0.11-0.12,0.21-0.23,0.29-0.34
		c0.17-0.23,0.32-0.43,0.41-0.69c1.06-3.01,1.4-6.11,1-9.22c-0.69-5.43-3.18-9.96-7.41-13.45c-3.17-2.62-6.92-4.15-11.15-4.57
		l-0.08-0.2l0,0.2c-0.41,0-0.75,0.31-0.8,0.72c-0.02,0.19-0.03,0.26-0.03,0.34c0,0-0.01,3.82-0.01,5.29c0,4.46,0,8.93,0.01,13.39
		c0,0.87-0.11,1.24-0.47,1.59c-2.8,2.77-5.58,5.55-8.36,8.33l-3.39,3.39c-0.41,0.41-0.83,0.81-1.25,1.23l-0.72,0.7
		c-0.16,0.16-0.25,0.38-0.24,0.61c0.01,0.23,0.12,0.44,0.29,0.59c3.92,3.2,8.2,4.77,13.07,4.81l0.19,0c4.12,0,7.97-1.18,11.43-3.49
		c0.37-0.24,0.47-0.74,0.22-1.11l-0.38-0.58c-0.32-0.48-0.62-0.95-0.94-1.41c0,0-4.3-6.38-5.41-8.03c-0.42-0.63-0.65-1.35-0.66-2.14
		C38.78,50.02,39.61,48.67,41.42,47.67z"/>
	<path class="st0" d="M19.22,61.5c0.25,0,0.45-0.08,0.61-0.23l10.81-10.8c0.23-0.23,0.3-0.57,0.17-0.87
		c-0.12-0.3-0.42-0.49-0.74-0.49H14.83c-0.22,0-0.44,0.1-0.59,0.26c-0.15,0.17-0.23,0.39-0.21,0.61c0.39,4.21,1.94,7.99,4.61,11.23
		C18.78,61.39,18.99,61.49,19.22,61.5z"/>
	<path class="st0" d="M32.76,47.24c0.44,0,0.8-0.36,0.8-0.8V28.49c0-0.23-0.1-0.44-0.27-0.6c-0.15-0.13-0.34-0.2-0.54-0.2l-0.09,0
		c-5.74,0.62-10.48,3.15-14.07,7.5c-2.62,3.17-4.16,6.93-4.59,11.17c-0.02,0.23,0.05,0.45,0.2,0.62c0.15,0.17,0.37,0.26,0.6,0.26
		H32.76z"/>
	<path class="st1" d="M101.96,98.66c-0.37-3.2-0.74-6.4-1.12-9.59c-0.04-0.33-0.19-0.67-0.41-0.95c-2.06-2.58-4.14-5.15-6.21-7.72
		c-0.37-0.46-1.7-2.09-1.7-2.09c-0.15-0.19-0.38-0.3-0.62-0.3c-0.17,0-0.33,0.05-0.46,0.15L70.85,92.73
		c-0.18,0.13-0.29,0.31-0.33,0.52c-0.04,0.21,0.01,0.42,0.14,0.6l0.69,0.98c2.07,2.92,4.11,5.79,6.15,8.66
		c0.26,0.36,0.71,0.49,1.02,0.49c2.26-0.25,4.38-0.5,6.51-0.75l13.86-1.61c0.57-0.07,2.54-0.31,2.54-0.31
		c0.4-0.05,0.71-0.39,0.71-0.8l0-0.11c0-0.12,0-0.22-0.01-0.32L101.96,98.66z"/>
	<path class="st1" d="M67.17,91.64c0-0.44-0.36-0.8-0.8-0.8H2.65c-0.44,0-0.8,0.36-0.8,0.8v12.9c0,0.28,0,0.56,0.02,0.84
		c0.18,2.59,2.19,4.53,4.67,4.53h0.15c1.01-0.03,2.02-0.04,3.03-0.04c0.78,0,1.57,0.01,2.35,0.01c0,0,1.69,0.01,2.36,0.01H49.9
		c4.21,0,8.43,0,12.63-0.01c0.72,0,1.41-0.15,1.97-0.43c1.72-0.86,2.64-2.41,2.66-4.48c0.02-1.65,0.02-3.28,0.02-4.93L67.17,91.64z
		 M35.6,101.31c-0.25,0.27-0.62,0.42-1.06,0.43l-0.11,0.01c-0.59,0-1.31-0.6-1.32-1.35c0-0.79,0.59-1.43,1.36-1.46
		c0.83,0,1.45,0.55,1.48,1.31C35.96,100.67,35.84,101.05,35.6,101.31z"/>
	<path class="st2" d="M45.44,10.9c-0.16,0.11-0.39,0.19-0.56,0.19c-1.89,0.01-3.77,0.01-5.66,0.01h-4.73c-0.01,0-0.1,0.01-0.11,0.01
		H24.27c-0.67,0-1.06-0.33-1.06-0.92c0-0.25,0.08-0.46,0.24-0.62c0.18-0.19,0.47-0.29,0.82-0.29h20.52c0.48,0,0.82,0.21,0.96,0.6
		C45.89,10.26,45.77,10.66,45.44,10.9z"/>
	<path class="st2" d="M34.46,98.93c-0.77,0.02-1.36,0.67-1.36,1.46c0.01,0.75,0.73,1.35,1.32,1.35c0,0,0.11-0.01,0.11-0.01
		c0.44-0.01,0.81-0.16,1.06-0.43c0.25-0.27,0.37-0.63,0.35-1.06C35.91,99.48,35.29,98.93,34.46,98.93z"/>
</g>
</svg>
