<?xml version="1.0" encoding="utf-8"?>
<!-- Generator: Adobe Illustrator 25.0.0, SVG Export Plug-In . SVG Version: 6.00 Build 0)  -->
<svg version="1.1" id="Layer_1" xmlns="http://www.w3.org/2000/svg" xmlns:xlink="http://www.w3.org/1999/xlink" x="0px" y="0px"
	 viewBox="0 0 101.89 111" style="enable-background:new 0 0 101.89 111;" xml:space="preserve">
<style type="text/css">
	.st0{fill:#00B0FB;}
	.st1{fill:#00B0FB;fill-opacity:0.4;}
	.st2{fill:#FFFFFF;}
	.st3{fill:#185AE9;}
	.st4{fill-rule:evenodd;clip-rule:evenodd;fill:#00B0FB;}
	.st5{fill:none;}
</style>
<g>
	<path class="st5" d="M92.4,92.1c0.01-2.29,0-4.58-0.01-6.86l-0.01-2.21c0-0.14-0.01-0.29-0.02-0.46l-0.03-0.25
		c-0.01-0.16-0.14-0.28-0.3-0.28h-1.84h-5.12l-51.8,0.02c-1.66,0.52-3.39,1.02-5.06,1.64c-0.39,0.14-0.71,0.21-0.99,0.21
		c-0.61,0-1.07-0.32-1.56-1.08c-0.16-0.25-0.32-0.52-0.48-0.77l-13.29,0.01H1.96c-0.16,0-0.29,0.1-0.31,0.25
		c-0.03,0.13-0.05,0.24-0.05,0.35l-0.01,2.86c0,2.73-0.01,5.44,0.02,8.17c0.02,1.6,0.74,2.93,2.07,3.86
		c1.25,0.86,2.75,1.28,4.57,1.28h76.62h0.75C89.34,98.83,92.39,95.81,92.4,92.1z M51.03,93.35c-0.95,0.97-2.21,1.5-3.54,1.5h-0.01
		c-2.71,0-4.94-2.23-4.95-4.96c-0.01-2.73,2.21-4.96,4.94-4.98c2.73,0,4.95,2.21,4.99,4.93C52.48,91.14,51.98,92.4,51.03,93.35z"/>
	<path class="st5" d="M44.31,88.82c-0.12,0.35-0.2,0.72-0.19,1.09c0.01,0.56,0.17,1.09,0.44,1.57c-0.26-0.47-0.43-1.01-0.43-1.57
		C44.12,89.54,44.2,89.17,44.31,88.82z"/>
	<path class="st5" d="M50.84,89.9c0.01,0.73-0.24,1.43-0.68,2.02C50.6,91.33,50.85,90.63,50.84,89.9c0-0.23-0.02-0.46-0.07-0.68
		C50.82,89.44,50.84,89.66,50.84,89.9z"/>
	<path class="st5" d="M45.79,86.97c-0.23,0.14-0.45,0.3-0.65,0.5c-0.05,0.05-0.08,0.11-0.13,0.16c0.04-0.05,0.08-0.11,0.13-0.15
		C45.34,87.27,45.56,87.11,45.79,86.97z"/>
	<path class="st0" d="M92.33,82.32l0.03,0.25c0.01,0.17,0.02,0.32,0.02,0.46l0.01,2.21c0.01,2.28,0.02,4.57,0.01,6.86
		c-0.01,3.71-3.06,6.73-6.78,6.74h1c3.72-0.01,6.77-3.03,6.78-6.74c0.01-2.29,0-4.58-0.01-6.86l-0.01-2.21
		c0-0.14-0.01-0.29-0.02-0.46l-0.03-0.25c-0.01-0.16-0.14-0.28-0.3-0.28h-1C92.19,82.04,92.32,82.16,92.33,82.32z"/>
	<path class="st1" d="M50.77,89.22c-0.31-1.55-1.67-2.72-3.28-2.74h-0.03c-0.59,0-1.16,0.18-1.67,0.49c-0.23,0.14-0.45,0.3-0.65,0.5
		c-0.05,0.05-0.08,0.1-0.13,0.15c-0.31,0.35-0.55,0.76-0.7,1.19c-0.12,0.35-0.2,0.72-0.19,1.09c0.01,0.57,0.17,1.1,0.43,1.57
		c0.16,0.28,0.34,0.55,0.56,0.78c0.61,0.61,1.45,1,2.34,1.02c0.93,0,1.75-0.35,2.38-0.98c0.12-0.12,0.22-0.25,0.32-0.38
		c0.44-0.59,0.69-1.29,0.68-2.02C50.84,89.66,50.82,89.44,50.77,89.22z"/>
	<path class="st5" d="M13.37,68.28l1.49-0.46c1.72-0.53,3.47-1.08,5.22-1.63c-1.75,0.55-3.5,1.1-5.21,1.63L13.37,68.28z"/>
	<path class="st5" d="M10.76,68.16c-0.18-0.17-0.39-0.35-0.58-0.57C10.38,67.8,10.58,68,10.76,68.16c0.14,0.13,0.27,0.24,0.36,0.35
		c0.02,0.02,0.05,0.03,0.07,0.05c-0.02-0.02-0.05-0.03-0.07-0.05C11.03,68.4,10.9,68.29,10.76,68.16z"/>
	<path class="st5" d="M8.58,54.49c1.15-0.36,2.3-0.73,3.45-1.1C10.88,53.76,9.73,54.13,8.58,54.49c-1.45,0.47-2.12,1.46-1.92,2.85
		C6.46,55.96,7.13,54.96,8.58,54.49z"/>
	<path class="st5" d="M14.78,52.52c2.75-0.88,5.53-1.76,8.32-2.61C20.31,50.76,17.52,51.64,14.78,52.52z"/>
	<path class="st5" d="M6.69,57.47c0.03,0.16,0.06,0.32,0.11,0.49c0.13,0.42,0.26,0.83,0.39,1.24c-0.13-0.41-0.26-0.82-0.38-1.24
		C6.75,57.79,6.72,57.63,6.69,57.47z"/>
	<path class="st5" d="M28.85,60.84c-0.85-2.86-1.7-5.57-2.58-8.2C27.14,55.27,27.99,57.99,28.85,60.84z"/>
	<path class="st0" d="M25.63,50.75c-0.05-0.14-0.14-0.27-0.26-0.4c-0.1-0.1-0.22-0.2-0.35-0.29c-0.34-0.23-0.75-0.38-1.07-0.38
		c-0.09,0-0.17,0.02-0.24,0.04c-0.21,0.06-0.41,0.13-0.62,0.19c-2.79,0.85-5.57,1.73-8.32,2.61c-0.59,0.19-1.2,0.38-1.79,0.57
		c-0.32,0.1-0.64,0.2-0.96,0.3c-1.15,0.37-2.3,0.74-3.45,1.1c-1.45,0.47-2.12,1.46-1.92,2.85c0.01,0.04,0.02,0.09,0.03,0.13
		c0.03,0.16,0.06,0.32,0.11,0.49c0.13,0.42,0.26,0.82,0.38,1.24c0.78,2.55,1.57,5.07,2.45,7.53c0.12,0.33,0.32,0.61,0.55,0.86
		c0.19,0.21,0.39,0.4,0.58,0.57c0.14,0.13,0.27,0.24,0.36,0.35c0.02,0.02,0.05,0.03,0.07,0.05c0.07,0.05,0.15,0.09,0.24,0.09
		c0.01,0,0.02-0.01,0.04-0.01c0.25-0.02,0.44-0.03,0.58-0.04c0.24-0.02,0.37-0.03,0.52-0.07l0.8-0.25l1.49-0.46
		c1.72-0.53,3.47-1.08,5.21-1.63c2.71-0.85,5.43-1.72,8.14-2.6c0.54-0.17,1.07-1.25,0.9-1.83c-0.09-0.31-0.18-0.61-0.27-0.92
		c-0.86-2.86-1.71-5.57-2.58-8.2C26.06,52.01,25.85,51.38,25.63,50.75z"/>
	<path class="st2" d="M23.95,49.68c0.32,0,0.72,0.16,1.07,0.38C24.67,49.83,24.27,49.68,23.95,49.68c-0.09,0-0.17,0.02-0.24,0.04
		c-0.21,0.06-0.41,0.13-0.62,0.19c0.21-0.06,0.41-0.13,0.62-0.19C23.78,49.7,23.86,49.68,23.95,49.68z"/>
	<path class="st2" d="M26.27,52.64c-0.21-0.63-0.42-1.27-0.63-1.89c-0.05-0.14-0.14-0.28-0.26-0.4c0.12,0.13,0.21,0.26,0.26,0.4
		C25.85,51.38,26.06,52.01,26.27,52.64z"/>
	<path class="st2" d="M12.05,68.6c-0.14,0.01-0.33,0.02-0.58,0.04c-0.02,0-0.03,0.01-0.04,0.01c-0.08,0-0.16-0.04-0.24-0.09
		c0.07,0.05,0.15,0.09,0.23,0.09c0.01,0,0.02-0.01,0.04-0.01C11.72,68.62,11.91,68.61,12.05,68.6c0.24-0.02,0.37-0.03,0.52-0.07
		l0.8-0.25l-0.8,0.25C12.42,68.57,12.29,68.58,12.05,68.6z"/>
	<path class="st2" d="M28.22,63.59c-2.71,0.88-5.43,1.75-8.14,2.6C22.79,65.34,25.52,64.47,28.22,63.59
		c0.54-0.17,1.07-1.25,0.9-1.83c-0.09-0.31-0.18-0.61-0.28-0.92c0.09,0.31,0.18,0.6,0.27,0.92C29.29,62.34,28.76,63.42,28.22,63.59z
		"/>
	<path class="st2" d="M14.78,52.52c-0.59,0.19-1.19,0.38-1.78,0.57c-0.32,0.1-0.64,0.2-0.96,0.31c0.32-0.1,0.64-0.2,0.96-0.3
		C13.58,52.9,14.18,52.71,14.78,52.52z"/>
	<path class="st2" d="M7.19,59.2c0.78,2.55,1.57,5.06,2.45,7.53c0.12,0.33,0.32,0.61,0.55,0.86c-0.22-0.25-0.43-0.54-0.55-0.86
		C8.75,64.27,7.97,61.76,7.19,59.2z"/>
	<path class="st5" d="M44.56,31.72c-0.4,1.91-0.42,3.83-0.29,5.73C44.15,35.55,44.16,33.63,44.56,31.72z"/>
	<path class="st5" d="M45.3,43.05c0.28,0.27,0.68,0.44,1.25,0.44c0.14,0,0.3-0.02,0.46-0.04c-0.16,0.02-0.32,0.03-0.46,0.03
		C45.98,43.49,45.58,43.32,45.3,43.05z"/>
	<path class="st5" d="M49.96,58.18c0.57,1.14,1.09,2.22,1.8,3.19c1.38,1.89,2.79,3.72,4.39,5.32c-1.6-1.61-3-3.43-4.38-5.32
		C51.05,60.4,50.53,59.32,49.96,58.18c-0.24-0.5-0.5-1.02-0.77-1.54c-0.06-0.1-0.07-0.21-0.03-0.32c0.03-0.1,0.11-0.19,0.21-0.23
		l0.66-0.31l-0.66,0.3c-0.1,0.04-0.18,0.13-0.21,0.23c-0.04,0.11-0.03,0.23,0.03,0.33C49.46,57.16,49.72,57.68,49.96,58.18z"/>
	<path class="st5" d="M52.86,44.95c0.75,0.74,1.35,1.68,1.71,2.78c0,0,0,0,0,0C54.21,46.62,53.61,45.68,52.86,44.95z"/>
	<path class="st5" d="M54.58,47.77c0.73,2.27,0,4.67-1.75,6.3C54.58,52.44,55.32,50.04,54.58,47.77z"/>
	<path class="st5" d="M55.67,33.88c-1.28-2.07-2.82-4.02-4.87-5.63c-0.19-0.15-0.37-0.27-0.56-0.38c0.18,0.12,0.37,0.24,0.55,0.39
		C52.84,29.86,54.39,31.81,55.67,33.88z"/>
	<path class="st5" d="M60.58,68.43c0.26-0.12,0.5-0.28,0.73-0.5c0.23-0.23,0.44-0.5,0.62-0.81c-0.19,0.31-0.39,0.59-0.63,0.81
		C61.08,68.14,60.84,68.3,60.58,68.43z"/>
	<path class="st5" d="M45.33,29.26c0.16-0.36,0.35-0.67,0.54-0.94C45.68,28.59,45.5,28.9,45.33,29.26z"/>
	<path class="st5" d="M63.3,60.02c-0.01,1.97-0.24,3.75-0.68,5.33C63.06,63.78,63.29,62,63.3,60.02c0.05-6.63-1.55-13.33-5.01-21.07
		c-0.54-1.22-1.13-2.44-1.79-3.64c0.66,1.2,1.25,2.42,1.79,3.64C61.75,46.69,63.35,53.39,63.3,60.02z"/>
	<path class="st0" d="M49.16,56.31c-0.04,0.11-0.03,0.22,0.03,0.32c0.27,0.52,0.53,1.05,0.77,1.55c0.56,1.14,1.09,2.21,1.8,3.19
		c1.38,1.9,2.79,3.72,4.38,5.32c0.25,0.25,0.49,0.51,0.75,0.75c0.89,0.81,1.79,1.23,2.64,1.23c0.37,0,0.72-0.09,1.04-0.24
		c0.26-0.12,0.5-0.29,0.72-0.5c0.23-0.22,0.44-0.5,0.63-0.81c0.22-0.37,0.41-0.79,0.56-1.28c0.05-0.16,0.08-0.33,0.13-0.49
		c0.43-1.58,0.67-3.36,0.68-5.33c0.05-6.64-1.55-13.33-5.01-21.07c-0.54-1.22-1.13-2.44-1.79-3.64c-0.26-0.48-0.54-0.96-0.83-1.43
		c-1.28-2.07-2.82-4.02-4.87-5.62c-0.19-0.15-0.37-0.27-0.55-0.39c-0.8-0.52-1.54-0.8-2.2-0.8c-0.86,0-1.58,0.42-2.17,1.25
		c-0.19,0.27-0.38,0.58-0.54,0.94c-0.09,0.21-0.18,0.43-0.27,0.66c-0.22,0.6-0.37,1.2-0.5,1.8c-0.4,1.91-0.42,3.83-0.29,5.73
		c0.07,1.01,0.17,2.01,0.28,3.01l0.07,0.72c0.07,0.74,0.23,1.44,0.68,1.87c0.28,0.27,0.68,0.43,1.25,0.43c0.14,0,0.3-0.01,0.46-0.03
		c0.14-0.02,0.3-0.05,0.46-0.08c0.43-0.09,0.88-0.14,1.31-0.14c1.56,0,2.98,0.64,4.08,1.72c0.75,0.74,1.35,1.67,1.71,2.78
		c0,0,0,0,0,0l0,0c0,0.01,0.01,0.03,0.01,0.04c0.74,2.27,0,4.67-1.75,6.3c-0.48,0.45-1.02,0.85-1.65,1.16
		c-0.3,0.15-0.61,0.3-1.02,0.49l-0.13,0.06l-0.66,0.31C49.27,56.12,49.19,56.21,49.16,56.31z"/>
	<path class="st2" d="M51.18,55.23c0.63-0.31,1.17-0.71,1.65-1.16C52.35,54.52,51.81,54.92,51.18,55.23
		c-0.3,0.15-0.61,0.3-1.02,0.49l-0.12,0.06l0.13-0.06C50.57,55.53,50.88,55.38,51.18,55.23z"/>
	<path class="st2" d="M56.9,67.44c-0.26-0.24-0.5-0.5-0.75-0.75C56.4,66.95,56.64,67.21,56.9,67.44c0.89,0.81,1.79,1.23,2.64,1.23
		c0.37,0,0.72-0.09,1.05-0.25c-0.33,0.16-0.67,0.24-1.04,0.24C58.69,68.67,57.79,68.25,56.9,67.44z"/>
	<path class="st2" d="M45.33,29.26c-0.1,0.21-0.19,0.43-0.27,0.67c-0.21,0.6-0.37,1.2-0.49,1.8c0.13-0.6,0.28-1.2,0.5-1.8
		C45.15,29.68,45.24,29.46,45.33,29.26z"/>
	<path class="st2" d="M44.55,40.46c-0.11-0.99-0.21-2-0.28-3.01C44.34,38.46,44.44,39.47,44.55,40.46l0.07,0.72
		c0.07,0.74,0.23,1.44,0.68,1.87c-0.45-0.43-0.6-1.13-0.68-1.87L44.55,40.46z"/>
	<path class="st2" d="M54.57,47.73c0,0.01,0.01,0.03,0.01,0.04C54.58,47.76,54.58,47.74,54.57,47.73L54.57,47.73z"/>
	<path class="st2" d="M48.04,27.07c0.67,0,1.41,0.28,2.2,0.8C49.45,27.35,48.71,27.07,48.04,27.07c-0.86,0-1.58,0.42-2.17,1.25
		C46.46,27.49,47.18,27.07,48.04,27.07z"/>
	<path class="st2" d="M61.93,67.12c0.22-0.37,0.41-0.79,0.56-1.28c0.05-0.16,0.08-0.32,0.13-0.48c-0.04,0.16-0.08,0.33-0.13,0.49
		C62.34,66.33,62.15,66.75,61.93,67.12z"/>
	<path class="st2" d="M47.47,43.37c-0.16,0.03-0.32,0.06-0.46,0.08C47.15,43.43,47.31,43.41,47.47,43.37
		c0.43-0.09,0.88-0.14,1.31-0.14c1.56,0,2.98,0.64,4.08,1.71c-1.1-1.08-2.52-1.72-4.08-1.72C48.35,43.23,47.9,43.28,47.47,43.37z"/>
	<path class="st5" d="M32.58,80.6c-0.73,0.24-1.44,0.47-2.14,0.69C31.14,81.06,31.85,80.84,32.58,80.6l0.23-0.08l0.86-0.28
		l-0.86,0.28L32.58,80.6z"/>
	<path class="st5" d="M26.35,67.03c1.07,1.64,2.14,3.28,3.21,4.95C28.49,70.32,27.42,68.67,26.35,67.03
		c-0.13-0.21-0.37-0.37-0.62-0.48C25.98,66.67,26.21,66.83,26.35,67.03z"/>
	<path class="st5" d="M19.86,70.52l0.19,0.3c2,3.19,3.99,6.37,6.03,9.54c-2.03-3.17-4.03-6.35-6.02-9.53L19.86,70.52z"/>
	<path class="st0" d="M19.35,68.17c-0.14,0.04-0.25,0.16-0.27,0.3c-0.03,0.14-0.05,0.23-0.07,0.29c-0.03,0.13-0.06,0.29,0.03,0.45
		l0.82,1.31l0.19,0.31c2,3.18,4,6.37,6.02,9.53c0.04,0.05,0.07,0.11,0.1,0.16c0.16,0.25,0.32,0.51,0.48,0.76
		C26.9,81.66,27.49,82,27.93,82c0.04,0,0.17-0.02,0.21-0.03c0.76-0.22,1.53-0.45,2.31-0.69c0.7-0.22,1.41-0.45,2.14-0.69l0.23-0.08
		l0.86-0.28l0.49-0.16c0.11-0.04,0.21-0.13,0.25-0.24c0.04-0.12,0.03-0.25-0.04-0.36l-1.58-2.45c-1.1-1.72-2.17-3.39-3.23-5.04
		c-1.08-1.67-2.14-3.32-3.21-4.95c-0.13-0.2-0.37-0.37-0.62-0.48c-0.22-0.1-0.45-0.15-0.64-0.15c-0.09,0-0.17,0.01-0.25,0.03
		c-0.28,0.08-0.56,0.17-0.84,0.26c-0.6,0.18-1.2,0.37-1.8,0.56c-0.52,0.17-1.05,0.34-1.56,0.51L19.35,68.17z"/>
	<path class="st2" d="M27.93,82c-0.44,0-1.03-0.34-1.27-0.72c-0.16-0.25-0.32-0.51-0.48-0.76c-0.04-0.05-0.07-0.11-0.1-0.16
		c0.03,0.05,0.07,0.11,0.1,0.16c0.16,0.25,0.32,0.51,0.48,0.76C26.9,81.66,27.49,82,27.93,82c0.04,0,0.17-0.02,0.21-0.03
		c0.77-0.22,1.53-0.45,2.31-0.69c-0.78,0.24-1.54,0.47-2.31,0.69C28.1,81.98,27.97,82,27.93,82z"/>
	<path class="st2" d="M25.08,66.4c0.19,0,0.42,0.06,0.64,0.15C25.51,66.46,25.27,66.4,25.08,66.4c-0.09,0-0.17,0.01-0.25,0.03
		c-0.28,0.08-0.56,0.17-0.84,0.26c0.28-0.08,0.56-0.17,0.84-0.26C24.91,66.41,24.99,66.4,25.08,66.4z"/>
	<path class="st2" d="M19.86,70.52l-0.82-1.31c-0.09-0.16-0.06-0.32-0.03-0.45c0.02-0.06,0.04-0.15,0.07-0.29
		c0.02-0.14,0.13-0.26,0.27-0.3l1.28-0.42c0.51-0.17,1.04-0.34,1.56-0.51c-0.52,0.17-1.05,0.34-1.56,0.5l-1.28,0.42
		c-0.14,0.04-0.25,0.16-0.27,0.3c-0.03,0.14-0.05,0.23-0.07,0.29c-0.03,0.13-0.06,0.29,0.03,0.45L19.86,70.52z"/>
	<path class="st2" d="M34.37,79.48c0.07,0.11,0.08,0.24,0.04,0.36c-0.04,0.11-0.14,0.2-0.25,0.24l-0.49,0.16l0.49-0.16
		c0.11-0.04,0.21-0.13,0.25-0.24C34.45,79.72,34.44,79.59,34.37,79.48l-1.58-2.45c-1.1-1.72-2.17-3.39-3.23-5.04
		c1.06,1.65,2.13,3.32,3.23,5.04L34.37,79.48z"/>
	<path class="st5" d="M28.76,55.01c-0.54-1.72-1.1-3.44-1.61-5.17c-0.2-0.69-0.09-1.78,0.39-2.29c2.84-3.03,5.74-6.05,8.61-9.04
		c-2.88,2.98-5.78,6.01-8.62,9.04c-0.48,0.51-0.59,1.6-0.39,2.29C27.66,51.57,28.22,53.29,28.76,55.01
		c0.63,1.97,1.28,4.01,1.86,6.04c0.17,0.58,0.4,1.04,0.71,1.4c-0.31-0.36-0.54-0.82-0.71-1.4C30.04,59.02,29.39,56.98,28.76,55.01z"
		/>
	<path class="st5" d="M34.64,63.73c3.61,0.67,7.22,1.36,10.83,2.06l4.34,0.84l-4.34-0.84C41.86,65.09,38.26,64.4,34.64,63.73z"/>
	<path class="st0" d="M52.92,67.22c0.13,0,0.26-0.07,0.33-0.18c0.09-0.14,0.09-0.32-0.01-0.45c-7.08-9.97-10.58-20.84-10.72-33.22
		c0-0.13-0.06-0.24-0.16-0.32c-0.07-0.05-0.15-0.08-0.24-0.08c-0.04,0-0.08,0.01-0.12,0.02c-0.17,0.05-0.29,0.09-0.39,0.11
		c-0.18,0.05-0.32,0.08-0.45,0.21l-1.98,2.06c-0.99,1.03-2.01,2.09-3.02,3.14c-2.87,2.99-5.77,6.01-8.61,9.04
		c-0.48,0.51-0.59,1.6-0.39,2.29c0.51,1.73,1.07,3.45,1.61,5.17c0.63,1.97,1.28,4.01,1.86,6.04c0.17,0.58,0.4,1.03,0.71,1.4
		c0.48,0.55,1.15,0.88,2.1,1.05c0.4,0.07,0.81,0.16,1.21,0.23c3.61,0.67,7.22,1.36,10.83,2.06l4.34,0.84l3.03,0.58
		C52.87,67.22,52.89,67.22,52.92,67.22z"/>
	<path class="st2" d="M42.36,33.05c-0.07-0.05-0.15-0.08-0.24-0.08c-0.04,0-0.08,0.01-0.12,0.02c-0.17,0.05-0.29,0.09-0.39,0.11
		c-0.18,0.05-0.32,0.08-0.45,0.21l-1.98,2.06c-0.99,1.03-2.01,2.09-3.02,3.14c1.01-1.05,2.03-2.11,3.02-3.14l1.98-2.06
		c0.13-0.13,0.27-0.16,0.45-0.21c0.1-0.02,0.22-0.06,0.39-0.11c0.04-0.01,0.08-0.02,0.12-0.02C42.21,32.97,42.29,33,42.36,33.05
		c0.1,0.08,0.16,0.19,0.16,0.32c0.14,12.38,3.64,23.25,10.72,33.22c0.1,0.13,0.1,0.31,0.01,0.45c-0.07,0.11-0.2,0.18-0.33,0.18
		c-0.03,0-0.05,0-0.08-0.01l-3.03-0.58l3.03,0.59c0.03,0.01,0.05,0.01,0.08,0.01c0.13,0,0.26-0.07,0.33-0.18
		c0.09-0.14,0.09-0.32-0.01-0.45c-7.08-9.97-10.59-20.84-10.72-33.22C42.53,33.24,42.46,33.13,42.36,33.05z"/>
	<path class="st2" d="M31.33,62.45c0.47,0.55,1.14,0.88,2.09,1.06c0.41,0.07,0.81,0.15,1.21,0.23c-0.4-0.07-0.81-0.16-1.21-0.23
		C32.48,63.33,31.81,63,31.33,62.45z"/>
	<path class="st5" d="M48.39,44.83c0.05-0.01,0.1-0.02,0.15-0.02h0.01c2.11,0.08,3.86,1.44,4.44,3.34c-0.58-1.9-2.33-3.27-4.44-3.35
		h-0.01C48.49,44.81,48.44,44.82,48.39,44.83c-0.16,0.07-0.45,0.09-0.71,0.11c-0.43,0.03-0.91,0.07-1.28,0.29
		c0.37-0.22,0.85-0.26,1.29-0.29C47.94,44.92,48.23,44.9,48.39,44.83z"/>
	<path class="st5" d="M51.46,53.16c0.34-0.27,0.65-0.58,0.89-0.94C52.11,52.58,51.8,52.89,51.46,53.16z"/>
	<path class="st5" d="M47.88,53.18l-0.32-0.86c-0.1-0.25-0.19-0.5-0.28-0.75c0.09,0.25,0.19,0.5,0.28,0.75L47.88,53.18
		c0.1,0.27,0.39,0.5,0.71,0.65C48.27,53.67,47.99,53.45,47.88,53.18z"/>
	<path class="st5" d="M46.06,45.52C46.06,45.52,46.06,45.52,46.06,45.52c-0.24,0.31-0.31,0.73-0.21,1.27
		c0.2,1.15,0.54,2.27,0.92,3.38c-0.38-1.1-0.72-2.23-0.92-3.37C45.75,46.25,45.82,45.83,46.06,45.52z"/>
	<path class="st0" d="M49.68,54.03c0.67-0.14,1.27-0.45,1.78-0.87c0.34-0.27,0.65-0.58,0.89-0.94c0.62-0.9,0.93-2.04,0.8-3.22
		c-0.03-0.29-0.09-0.57-0.17-0.84c-0.58-1.9-2.33-3.26-4.44-3.34h-0.01c-0.05,0-0.1,0.01-0.15,0.02c-0.16,0.07-0.44,0.09-0.7,0.11
		c-0.44,0.03-0.91,0.07-1.29,0.29c-0.12,0.07-0.24,0.17-0.33,0.29c-0.24,0.31-0.31,0.73-0.21,1.28c0.2,1.15,0.54,2.27,0.92,3.37
		c0.16,0.47,0.33,0.94,0.51,1.4c0.09,0.25,0.19,0.5,0.28,0.75l0.32,0.86c0.1,0.27,0.39,0.5,0.71,0.65c0.3,0.15,0.63,0.23,0.87,0.23
		C49.54,54.06,49.61,54.05,49.68,54.03z"/>
	<path class="st2" d="M46.06,45.52C46.06,45.52,46.06,45.52,46.06,45.52c0.1-0.12,0.21-0.21,0.33-0.29
		C46.27,45.3,46.16,45.4,46.06,45.52z"/>
	<path class="st2" d="M49.68,54.03c0.67-0.14,1.27-0.45,1.78-0.87C50.95,53.58,50.35,53.89,49.68,54.03
		c-0.07,0.02-0.14,0.03-0.21,0.03c-0.24,0-0.57-0.09-0.87-0.23c0.3,0.15,0.63,0.23,0.88,0.23C49.54,54.06,49.61,54.05,49.68,54.03z"
		/>
	<path class="st2" d="M52.36,52.22c0.62-0.9,0.94-2.04,0.81-3.21c-0.03-0.29-0.09-0.58-0.18-0.85c0.08,0.27,0.14,0.55,0.17,0.84
		C53.29,50.18,52.98,51.32,52.36,52.22z"/>
	<path class="st5" d="M74.92,49c0.01,0,0.55,0.08,1.04,0.15C75.47,49.08,74.93,49,74.92,49l-0.02,0c-0.46,0.03-0.81,0.17-1.12,0.35
		c0.3-0.18,0.66-0.31,1.12-0.34H74.92z"/>
	<path class="st5" d="M71.72,55.85c0.11-0.44,0.22-0.88,0.33-1.32c0.11-0.45,0.22-0.91,0.33-1.37c-0.11,0.46-0.22,0.92-0.34,1.36
		C71.94,54.98,71.83,55.41,71.72,55.85c-0.19,0.81-0.23,1.34-0.02,1.74C71.5,57.19,71.53,56.67,71.72,55.85z"/>
	<path class="st1" d="M100.07,52.81c-0.02-0.03-0.05-0.05-0.07-0.07c-0.07-0.08-0.14-0.15-0.23-0.22c-0.26-0.19-0.61-0.32-1.09-0.38
		c-0.9-0.12-1.8-0.24-2.7-0.35c-1.45-0.19-2.89-0.38-4.34-0.57l-1.92-0.25l-2.56-0.33c-1.87-0.23-3.73-0.47-5.6-0.71
		c-0.32-0.04-0.65-0.08-0.98-0.12c-1.28-0.16-2.56-0.35-3.86-0.54c0,0-0.36-0.05-0.76-0.11C75.47,49.08,74.93,49,74.92,49H74.9
		c-0.46,0.03-0.81,0.16-1.12,0.34c-0.14,0.08-0.27,0.18-0.38,0.29c-0.11,0.12-0.23,0.24-0.3,0.39c-0.1,0.19-0.16,0.41-0.2,0.65
		c0,0.02-0.02,0.04-0.02,0.07c-0.12,0.81-0.3,1.61-0.49,2.42c-0.11,0.46-0.22,0.92-0.33,1.37c-0.11,0.44-0.22,0.87-0.33,1.32
		c-0.19,0.81-0.23,1.34-0.02,1.74c0.02,0.04,0.06,0.08,0.08,0.11c0.04,0.05,0.07,0.11,0.12,0.16c0.04,0.04,0.09,0.08,0.14,0.11
		c0.25,0.21,0.6,0.39,1.09,0.57c3.56,1.39,7.11,2.78,10.66,4.17c2.86,1.12,5.73,2.24,8.6,3.36l0.53,0.21
		c0.64,0.25,1.28,0.5,1.92,0.75c0.38,0.15,0.71,0.22,1,0.22c0.65,0,1.01-0.37,1.23-0.76c0.17-0.3,0.25-0.61,0.29-0.78
		c0.1-0.39,0.19-0.79,0.29-1.18c0.65-2.63,1.31-5.26,1.96-7.89l0.26-1.04l0.32-1.27C100.36,53.67,100.32,53.18,100.07,52.81z"/>
	<path class="st2" d="M72.88,50.75c-0.12,0.81-0.3,1.61-0.49,2.41C72.58,52.36,72.76,51.56,72.88,50.75
		C72.88,50.75,72.88,50.75,72.88,50.75z"/>
	<path class="st2" d="M80.58,49.8c0.32,0.04,0.65,0.08,0.98,0.12C81.23,49.88,80.91,49.84,80.58,49.8
		c-1.28-0.16-2.56-0.35-3.86-0.54c0,0-0.36-0.05-0.76-0.11c0.4,0.06,0.76,0.11,0.76,0.11C78.02,49.45,79.3,49.64,80.58,49.8z"/>
	<path class="st5" d="M76.52,2.33c0.19-0.25,0.45-0.44,0.69-0.62c0.12-0.08,0.23-0.16,0.35-0.25c0,0,0,0,0,0
		c-0.12,0.09-0.23,0.17-0.35,0.25C76.97,1.89,76.71,2.08,76.52,2.33c-4.61,6.02-9.19,12.05-13.78,18.07l-0.41,0.54l0.41-0.54
		C67.33,14.38,71.91,8.35,76.52,2.33z"/>
	<path class="st5" d="M87.43,13.18c-1.33,1.07-2.65,2.13-3.99,3.19l-1.99,1.6l1.99-1.59C84.77,15.31,86.1,14.25,87.43,13.18
		c0.33-0.27,0.57-0.5,0.73-0.73C88,12.68,87.76,12.92,87.43,13.18z"/>
	<path class="st5" d="M68.91,28.01c0.07-0.05,0.15-0.11,0.22-0.17c1.5-1.2,3-2.4,4.5-3.6c-1.5,1.2-3,2.4-4.5,3.61
		C69.05,27.9,68.98,27.95,68.91,28.01z"/>
	<path class="st5" d="M62.13,23.65c-0.07-0.07-0.13-0.14-0.19-0.21C62,23.51,62.06,23.58,62.13,23.65c1.43,1.38,2.87,2.73,4.3,4.1
		c0.08,0.07,0.16,0.14,0.23,0.2c-0.08-0.07-0.15-0.13-0.23-0.2C65,26.38,63.56,25.03,62.13,23.65z"/>
	<path class="st1" d="M61.94,23.44c0.06,0.07,0.12,0.14,0.19,0.21c1.43,1.38,2.87,2.73,4.3,4.1c0.08,0.07,0.15,0.14,0.23,0.2
		c0.38,0.32,0.74,0.54,1.13,0.54c0.36,0,0.72-0.19,1.12-0.48c0.07-0.05,0.14-0.1,0.22-0.17c1.5-1.2,3-2.4,4.5-3.61
		c2.43-1.95,4.86-3.91,7.3-5.86l0.52-0.42l1.99-1.6c1.34-1.06,2.66-2.12,3.99-3.19c0.33-0.27,0.57-0.5,0.73-0.73
		c0.16-0.23,0.23-0.45,0.24-0.69c0.02-0.43-0.22-0.86-0.76-1.39c-0.25-0.24-0.5-0.48-0.75-0.72c-2.53-2.45-5.06-4.9-7.62-7.34
		c-0.08-0.08-0.16-0.16-0.25-0.24c-0.21-0.2-0.47-0.32-0.74-0.45c-0.12-0.06-0.26-0.12-0.39-0.2c-0.05-0.02-0.1-0.03-0.16-0.03
		c-0.06,0-0.13,0.02-0.18,0.07c-0.12,0.09-0.23,0.17-0.35,0.25c-0.24,0.18-0.5,0.37-0.69,0.62c-4.6,6.01-9.19,12.05-13.77,18.07
		l-0.41,0.54l-0.38,0.51C61.44,22.12,61.44,22.82,61.94,23.44z"/>
	<path class="st5" d="M39.95,100.49h14.94c0.08,0,0.15,0.04,0.21,0.09c-0.06-0.06-0.13-0.09-0.21-0.09L39.95,100.49
		c-0.17,0-0.3,0.14-0.3,0.3v0C39.65,100.63,39.78,100.49,39.95,100.49z"/>
	<path class="st1" d="M39.95,109.38h14.94c0.16,0,0.3-0.14,0.3-0.3v-8.29c0-0.08-0.04-0.15-0.09-0.21
		c-0.06-0.05-0.13-0.09-0.21-0.09H39.95c-0.17,0-0.3,0.14-0.3,0.3v8.29C39.65,109.24,39.78,109.38,39.95,109.38z"/>
	<path class="st5" d="M92.03,80.51c0.16,0,0.29-0.13,0.3-0.28l0.02-0.25c0.02-0.16,0.03-0.29,0.03-0.42
		c0.01-2.75,0.01-8.32,0.01-11.13v-0.05v-0.6c-4.39-1.71-8.76-3.42-13.14-5.12l-4.79-1.88c-0.84-0.32-1.66-0.65-2.5-0.98
		c-1.51-0.61-2.3-2.14-1.91-3.71c0.24-0.99,0.52-2,0.79-2.99c0.19-0.72,0.38-1.42,0.57-2.13c0.06-0.25,0.1-0.49,0.14-0.73
		c0.07-0.38,0.13-0.73,0.26-1.05c0.47-1.07,1.55-1.67,2.98-1.67c0.19,0,0.38,0.01,0.57,0.03c3.14,0.36,6.33,0.78,9.4,1.19
		c1.46,0.19,6.22,0.81,6.22,0.81c0.47,0.06,0.94,0.12,1.41,0.18c0-0.04,0-0.08,0-0.12V40.7c-0.01-5.01-0.01-10,0.03-15.01
		c0-1.13-0.39-2.15-1.13-2.89c-0.64-0.65-1.5-1.02-2.42-1.08c-0.66,0.02-1.68,0.04-3.07,0.04c-1.69,0-3.56-0.02-4.85-0.03
		l-1.19-0.01c-0.09,0-0.18-0.01-0.27-0.02h-0.04c-0.07,0-0.13,0.02-0.19,0.06l-5.89,4.72l-0.92,0.76c-0.92,0.73-1.85,1.5-2.82,2.18
		c-0.35,0.25-0.78,0.41-1.25,0.57c-0.19,0.07-0.37,0.13-0.55,0.21c-0.94-0.16-1.63-0.47-2.19-1l-0.43-0.41
		c-1.44-1.36-2.87-2.72-4.28-4.09c-0.73-0.71-1.07-1.67-0.94-2.62c0.01-0.08-0.01-0.17-0.07-0.23c-0.06-0.07-0.14-0.11-0.23-0.11
		c-5.78,0-54.19-0.04-54.19-0.04c-2.41,0-3.9,1.51-3.9,3.94v30.03l0.02,5.51v18.98c0,0.17,0.13,0.31,0.3,0.31h11.21
		c0.3,0.03,0.61,0.04,0.93,0.05h0.29c0.31-0.01,0.63-0.02,0.94-0.05h0.62c0.01,0.02,0.02,0.03,0.02,0.05h8.28
		c-0.66-1.03-1.31-2.06-1.98-3.08c-1.35-2.12-2.77-4.32-4.12-6.51c-0.5-0.81-1.12-1.58-2.25-1.58c-0.37,0-0.79,0.1-1.28,0.26
		c-1.23,0.43-2.22,0.63-3,0.63c-1.87,0-2.93-1.14-3.89-4.19L6.98,63.8c-0.56-1.77-1.13-3.55-1.68-5.33
		c-0.86-2.85,0.14-4.69,3.06-5.61c1.56-0.5,3.13-0.99,4.69-1.47c3.26-1.02,6.65-2.07,9.95-3.21c1.45-0.49,2.86-1.38,3.88-2.41
		c4.43-4.57,8.89-9.25,13.2-13.8c1.59-1.68,3.19-3.36,4.79-5.03c1-1.06,2.05-1.6,3.07-1.6c0.65,0,1.3,0.21,1.94,0.62
		c1.61,1.04,3.92,2.65,5.37,4.72c6.82,9.7,10.04,20.42,9.56,31.85c-0.07,1.54-0.56,3.29-1.51,5.34c-0.73,1.58-1.91,2.35-3.62,2.35
		c-0.43,0-0.89-0.05-1.38-0.15l-1.8-0.37c-7.94-1.61-16.16-3.29-24.26-4.84c-0.29-0.06-0.61-0.08-0.97-0.08
		c-0.58,0-1.17,0.07-1.75,0.15c-0.39,0.05-0.78,0.1-1.17,0.12c-0.18,0.02-0.34,0.15-0.37,0.33l-0.13,0.68
		c-0.03,0.11,0,0.22,0.05,0.3c0,0,5.9,9.23,7.77,12.15c0.6,0.95,0.98,1.62,0.96,2.02c20.72,0,46.63,0.01,46.63,0.01
		c1.97,0,3.93-0.01,5.89-0.02l0.96,0c0,0,0,0,0,0L92.03,80.51z"/>
	<path class="st0" d="M92.84,67.96c-0.15-0.06-0.3-0.12-0.45-0.18v0.6L92.84,67.96z"/>
	<path class="st5" d="M72.04,57.98c0.25,0.21,0.6,0.39,1.09,0.58c3.56,1.39,7.11,2.78,10.66,4.17c-3.55-1.39-7.11-2.78-10.66-4.17
		C72.64,58.37,72.29,58.19,72.04,57.98z"/>
	<path class="st5" d="M100,52.73c0.02,0.03,0.05,0.05,0.07,0.07c0.25,0.37,0.29,0.86,0.12,1.55l-0.32,1.27l0.32-1.27
		c0.17-0.68,0.13-1.17-0.12-1.54C100.05,52.78,100.02,52.76,100,52.73z"/>
	<path class="st5" d="M89.72,50.96l-2.56-0.33c-1.87-0.23-3.74-0.46-5.6-0.71c1.87,0.24,3.73,0.48,5.6,0.71L89.72,50.96z"/>
	<path class="st5" d="M97.07,66.5c0.17-0.3,0.25-0.61,0.29-0.77c0.1-0.39,0.2-0.79,0.29-1.18c-0.1,0.39-0.19,0.79-0.29,1.18
		C97.32,65.89,97.24,66.2,97.07,66.5z"/>
	<path class="st5" d="M99.77,52.51c-0.26-0.19-0.61-0.32-1.09-0.38c-0.9-0.12-1.8-0.23-2.7-0.35c0.9,0.12,1.8,0.23,2.7,0.35
		C99.16,52.19,99.51,52.32,99.77,52.51z"/>
	<path class="st0" d="M92.42,25.69c-0.04,5.01-0.04,10-0.03,15.01v8.91c0,0.04,0,0.08,0,0.12c0.34,0.04,0.67,0.08,1.01,0.12
		c-0.01-0.08-0.01-0.16-0.01-0.24V40.7c-0.01-5.01-0.01-10,0.03-15.01c0-1.13-0.39-2.15-1.13-2.89c-0.7-0.71-1.66-1.1-2.67-1.1
		h-0.24c-0.13,0.01-0.31,0.02-0.51,0.02c0.91,0.06,1.78,0.43,2.42,1.08C92.03,23.54,92.42,24.56,92.42,25.69z"/>
	<path class="st0" d="M93.33,80.23l0.02-0.25c0.02-0.16,0.03-0.29,0.03-0.42c0.01-2.77,0.01-8.39,0.01-11.18
		c0-0.12-0.08-0.23-0.19-0.28c-0.07-0.03-0.15-0.06-0.22-0.09L93.01,69l-0.62-0.57c0,2.81,0,8.37-0.01,11.13
		c0,0.13-0.01,0.26-0.03,0.42l-0.02,0.25c-0.01,0.15-0.14,0.28-0.3,0.28l-1.92,0c0,0,0,0,0,0l2.92-0.01
		C93.19,80.51,93.32,80.38,93.33,80.23z"/>
	<path class="st0" d="M92.39,68.43L93.01,69l-0.03-0.99c-0.05-0.02-0.09-0.04-0.14-0.05l-0.45,0.42V68.43z"/>
	<path class="st2" d="M98.84,50.53c-1.29-0.15-2.57-0.32-3.85-0.48V25.49c-0.02-2.98-2.17-5.27-5.03-5.35
		c-0.81-0.03-2.5-0.03-4.3-0.03c-1.19,0-3.48,0-3.48,0c-0.12,0-0.24-0.08-0.28-0.2c-0.04-0.12,0-0.25,0.1-0.33
		c2.19-1.76,4.38-3.52,6.58-5.28c0.84-0.67,1.32-1.54,1.36-2.47c0.04-0.91-0.35-1.82-1.11-2.55l-2.08-2.01
		c-1.67-1.61-3.32-3.22-5.01-4.81c-0.24-0.21-0.47-0.44-0.69-0.67c-0.69-0.73-1.34-1.42-2.34-1.69C78.46,0.03,78.18,0,77.9,0
		c-0.99,0-1.92,0.4-2.41,1.04c-1.36,1.79-2.74,3.56-4.11,5.36c-1.65,2.17-3.29,4.33-4.93,6.49l-1.25,1.64
		c-1.4,1.84-2.81,3.69-4.2,5.53c-0.06,0.08-0.15,0.12-0.24,0.12c-1.54-0.01-4.14-0.02-6.73-0.03c-2.6-0.01-5.19-0.02-6.7-0.02
		c0,0-9.03,0.01-10.61,0.01l-19.24-0.01c-4.09,0-8.19,0.01-12.28,0.02c-0.78,0-1.65,0.21-2.35,0.57c-1.94,1-2.88,2.66-2.85,5.09
		c0.03,2.19,0.02,4.39,0.02,6.6V44.1c0.01,6.08,0.02,12.16,0.02,18.25c0,8.57-0.01,17.15-0.02,25.73l-0.01,5.15
		C0,96.25,1.4,98.4,4.14,99.65c1.22,0.55,2.62,0.81,4.4,0.81h29.27c0.17,0,0.3,0.14,0.3,0.3v8.36c0,0.17-0.13,0.3-0.3,0.3H25.66
		l-1.94-0.01c-0.37,0-0.73,0-1.1,0.01c-0.31,0-0.59,0.1-0.76,0.28c-0.13,0.14-0.2,0.32-0.2,0.53c0.01,0.46,0.36,0.74,0.94,0.76
		h47.25l1.43,0.01c0.41,0,0.83,0,1.25-0.02c0.33-0.02,0.61-0.2,0.73-0.47c0.11-0.23,0.07-0.49-0.09-0.69
		c-0.17-0.2-0.6-0.38-0.94-0.38c-2.87-0.02-5.74-0.03-8.6-0.03l-6.58,0.01c-0.17,0-0.3-0.14-0.3-0.3v-8.36c0-0.16,0.13-0.3,0.3-0.3
		l21.31,0.01c2.68,0,5.38,0,8.06-0.01c2.89-0.01,5.22-1.16,6.93-3.45c1.15-1.52,1.66-3.32,1.64-5.83
		c-0.03-4.5-0.02-10.32-0.01-15.68v-6.37c0-0.09,0.04-0.17,0.1-0.23c0.06-0.04,0.13-0.07,0.2-0.07h0.05
		c0.17,0.03,0.34,0.04,0.5,0.04c1.43,0,2.6-0.96,2.98-2.46c0.73-2.85,1.45-5.7,2.16-8.56c0.24-0.98,0.48-1.97,0.68-2.83l0.24-0.95
		C101.9,52.08,100.76,50.75,98.84,50.53z M61.95,21.45l0.38-0.51l0.41-0.54c4.59-6.02,9.17-12.05,13.78-18.07
		c0.19-0.25,0.45-0.44,0.69-0.62c0.12-0.08,0.23-0.16,0.35-0.25c0,0,0,0,0,0c0,0,0,0,0,0c0.05-0.05,0.12-0.07,0.18-0.07
		c0.05,0,0.1,0.01,0.15,0.03c0.13,0.08,0.27,0.14,0.39,0.2c0.27,0.13,0.53,0.25,0.74,0.45c0.08,0.08,0.16,0.16,0.24,0.24
		c2.55,2.44,5.08,4.89,7.62,7.34c0.25,0.24,0.5,0.48,0.75,0.72c0.54,0.53,0.78,0.97,0.76,1.4c-0.01,0.23-0.09,0.45-0.25,0.68
		c-0.16,0.23-0.4,0.47-0.73,0.73c-1.33,1.07-2.66,2.13-3.99,3.19l-1.99,1.59l-0.52,0.42c-2.44,1.95-4.87,3.9-7.31,5.86
		c-1.5,1.2-3,2.4-4.5,3.6c-0.08,0.06-0.15,0.11-0.22,0.17c-0.4,0.29-0.75,0.49-1.12,0.49c-0.39,0-0.75-0.22-1.13-0.54
		c-0.08-0.07-0.15-0.13-0.23-0.2c-1.43-1.37-2.87-2.72-4.3-4.1c-0.07-0.07-0.13-0.14-0.19-0.21C61.44,22.82,61.44,22.12,61.95,21.45
		z M55.19,109.08c0,0.16-0.14,0.3-0.3,0.3H39.95c-0.17,0-0.3-0.14-0.3-0.3v-8.28c0,0,0,0,0,0v0c0-0.16,0.13-0.3,0.3-0.3h14.94
		c0.08,0,0.16,0.04,0.21,0.09c0.06,0.06,0.09,0.13,0.09,0.21V109.08z M100.19,54.35l-0.32,1.27l-0.26,1.03
		c-0.65,2.63-1.3,5.26-1.96,7.89c-0.1,0.39-0.2,0.79-0.29,1.18c-0.04,0.16-0.12,0.47-0.29,0.77c-0.22,0.39-0.59,0.76-1.23,0.76
		c-0.29,0-0.62-0.07-1.01-0.22c-0.64-0.25-1.28-0.5-1.91-0.75l0.05,1.55l0.38-0.35c0.26,0.47,0.57,0.92,0.93,1.34h-0.01
		c-0.07,0-0.14,0.03-0.2,0.07c-0.06,0.06-0.1,0.14-0.1,0.23v6.37c-0.01,5.36-0.02,11.18,0.01,15.68c0.02,2.51-0.49,4.31-1.64,5.83
		c-0.89,1.19-1.95,2.06-3.16,2.64v-0.06h-4.32v-0.75H8.25c-1.82,0-3.32-0.42-4.57-1.28c-1.33-0.93-2.05-2.26-2.07-3.86
		c-0.03-2.73-0.02-5.44-0.02-8.17l0.01-2.86c0-0.11,0.02-0.22,0.05-0.35c0.02-0.15,0.15-0.25,0.31-0.25h9.93l13.29-0.01
		c0.16,0.25,0.32,0.52,0.48,0.77c0.49,0.76,0.95,1.08,1.56,1.08c0.28,0,0.6-0.07,0.99-0.21c1.67-0.62,3.4-1.12,5.06-1.64l51.8-0.02
		h5.12c0.03-0.51,0-1.02-0.08-1.52l-0.96,0c-1.96,0.01-3.92,0.02-5.89,0.02c0,0-25.91-0.01-46.63-0.01c0.02-0.4-0.36-1.07-0.96-2.02
		c-1.87-2.92-7.77-12.15-7.77-12.15c-0.05-0.08-0.08-0.19-0.05-0.3l0.13-0.68c0.03-0.18,0.19-0.31,0.37-0.33
		c0.39-0.02,0.78-0.07,1.17-0.12c0.58-0.08,1.17-0.15,1.75-0.15c0.36,0,0.68,0.02,0.97,0.08c8.1,1.55,16.32,3.23,24.26,4.84
		l1.8,0.37c0.49,0.1,0.95,0.15,1.38,0.15c1.71,0,2.89-0.77,3.62-2.35c0.95-2.05,1.44-3.8,1.51-5.34
		c0.48-11.43-2.74-22.15-9.56-31.85c-1.45-2.07-3.76-3.68-5.37-4.72c-0.64-0.41-1.29-0.62-1.94-0.62c-1.02,0-2.07,0.54-3.07,1.6
		c-1.6,1.67-3.2,3.35-4.79,5.03c-4.31,4.55-8.77,9.23-13.2,13.8c-1.02,1.03-2.43,1.92-3.88,2.41c-3.3,1.14-6.69,2.19-9.95,3.21
		c-1.56,0.48-3.13,0.97-4.69,1.47c-2.92,0.92-3.92,2.76-3.06,5.61c0.55,1.78,1.12,3.56,1.68,5.33l0.71,2.25
		c0.96,3.05,2.02,4.19,3.89,4.19c0.78,0,1.77-0.2,3-0.63c0.49-0.16,0.91-0.26,1.28-0.26c1.13,0,1.75,0.77,2.25,1.58
		c1.35,2.19,2.77,4.39,4.12,6.51c0.67,1.02,1.32,2.05,1.98,3.08h-8.28c0-0.02-0.01-0.03-0.02-0.05h-0.62
		c-0.31,0.03-0.63,0.04-0.94,0.05h-0.29c-0.32-0.01-0.63-0.02-0.93-0.05H1.92c-0.17,0-0.3-0.14-0.3-0.31V61.18L1.6,55.67V25.64
		c0-2.43,1.49-3.94,3.9-3.94c0,0,48.41,0.04,54.19,0.04c0.09,0,0.17,0.04,0.23,0.11c0.06,0.06,0.08,0.15,0.07,0.23
		c-0.13,0.95,0.21,1.91,0.94,2.62c1.41,1.37,2.84,2.73,4.28,4.09l0.43,0.41c0.56,0.53,1.25,0.84,2.19,1
		c0.18-0.08,0.36-0.14,0.55-0.21c0.47-0.16,0.9-0.32,1.25-0.57c0.97-0.68,1.9-1.45,2.82-2.18l0.92-0.76l5.89-4.72
		c0.06-0.04,0.12-0.06,0.19-0.06h0.04c0.09,0.01,0.18,0.02,0.27,0.02l1.19,0.01c1.29,0.01,3.16,0.03,4.85,0.03
		c1.39,0,2.41-0.01,3.07-0.04c-0.09-0.01-0.17-0.02-0.25-0.02h-0.24c-0.35,0.02-0.93,0.04-1.72,0.05c-0.02-0.21-0.04-0.42-0.07-0.63
		h4.73V20.8c1.6,0.89,2.67,2.61,2.68,4.69v24.56c0.03,0,0.05,0.01,0.08,0.01c-0.04,0.05-0.08,0.1-0.11,0.15
		c-0.06,0.07-0.11,0.13-0.16,0.2c-0.15-0.01-0.29-0.02-0.44-0.02c-0.58,0-1.11,0.08-1.61,0.2c-0.52-0.16-1.07-0.27-1.69-0.29v-0.74
		c0.78,0.1,1.57,0.19,2.36,0.29c-0.01-0.04,0-0.08-0.01-0.12c-0.47-0.06-0.95-0.12-1.41-0.18c0,0-4.76-0.62-6.22-0.81
		c-3.07-0.41-6.26-0.83-9.4-1.19c-0.19-0.02-0.38-0.03-0.57-0.03c-1.43,0-2.51,0.6-2.98,1.67c-0.13,0.32-0.19,0.67-0.26,1.05
		c-0.04,0.24-0.08,0.48-0.14,0.73c-0.19,0.71-0.38,1.41-0.57,2.13c-0.27,0.99-0.55,2-0.79,2.99c-0.39,1.57,0.4,3.1,1.91,3.71
		c0.84,0.33,1.66,0.66,2.5,0.98l4.79,1.88c4.38,1.71,8.75,3.42,13.14,5.12v-1.7c-2.87-1.12-5.73-2.24-8.6-3.36
		c-3.55-1.39-7.11-2.78-10.66-4.17c-0.49-0.19-0.84-0.37-1.09-0.58c-0.05-0.04-0.1-0.07-0.14-0.11c-0.05-0.05-0.08-0.11-0.12-0.16
		c-0.03-0.04-0.06-0.07-0.08-0.11c-0.21-0.4-0.17-0.93,0.02-1.74c0.11-0.44,0.22-0.87,0.33-1.32c0.12-0.45,0.23-0.91,0.34-1.36
		c0.19-0.8,0.37-1.61,0.49-2.41c0,0,0,0,0,0c0-0.03,0.02-0.04,0.02-0.07c0.04-0.24,0.11-0.46,0.2-0.65c0.08-0.15,0.19-0.27,0.3-0.39
		c0.11-0.11,0.24-0.21,0.38-0.29c0.3-0.18,0.66-0.31,1.12-0.35h0.02c0.01,0,0.55,0.08,1.04,0.15c0.4,0.06,0.76,0.11,0.76,0.11
		c1.3,0.19,2.58,0.38,3.86,0.54c0.33,0.04,0.65,0.08,0.98,0.12c1.87,0.24,3.73,0.48,5.6,0.71l2.56,0.33l1.92,0.25
		c1.45,0.19,2.89,0.38,4.34,0.57c0.9,0.12,1.8,0.23,2.7,0.35c0.48,0.06,0.83,0.19,1.09,0.38c0.09,0.06,0.16,0.14,0.23,0.22
		c0.02,0.03,0.05,0.05,0.07,0.08C100.32,53.18,100.36,53.67,100.19,54.35z M49.16,56.31c0.03-0.1,0.11-0.19,0.21-0.23l0.66-0.3
		l0.12-0.06c0.41-0.19,0.72-0.34,1.03-0.49c0.63-0.31,1.17-0.71,1.65-1.16c1.75-1.63,2.48-4.03,1.75-6.3c0-0.01-0.01-0.03-0.01-0.04
		c-0.37-1.11-0.96-2.05-1.71-2.78c-1.1-1.08-2.52-1.71-4.08-1.71c-0.43,0-0.87,0.05-1.31,0.14c-0.16,0.03-0.32,0.06-0.46,0.08
		c-0.16,0.02-0.32,0.04-0.46,0.04c-0.57,0-0.97-0.17-1.25-0.44c-0.45-0.43-0.61-1.13-0.68-1.87l-0.07-0.72c-0.1-0.99-0.2-2-0.27-3
		c-0.13-1.9-0.11-3.82,0.29-5.73c0.13-0.6,0.28-1.2,0.49-1.8c0.09-0.24,0.18-0.46,0.27-0.67c0.16-0.36,0.35-0.67,0.54-0.94
		c0.59-0.83,1.31-1.25,2.17-1.25c0.66,0,1.41,0.28,2.2,0.8c0.18,0.12,0.37,0.24,0.56,0.38c2.04,1.61,3.59,3.56,4.87,5.63
		c0.29,0.47,0.57,0.95,0.83,1.43c0.66,1.2,1.25,2.42,1.79,3.64c3.46,7.74,5.06,14.44,5.01,21.07c-0.01,1.98-0.24,3.76-0.68,5.33
		c-0.04,0.16-0.08,0.33-0.13,0.48c-0.15,0.49-0.34,0.91-0.56,1.28c-0.19,0.31-0.39,0.59-0.62,0.81c-0.22,0.21-0.47,0.37-0.73,0.5
		c-0.33,0.16-0.68,0.25-1.05,0.25c-0.84,0-1.75-0.42-2.63-1.23c-0.26-0.24-0.5-0.5-0.75-0.75c-1.6-1.6-3-3.43-4.39-5.32
		c-0.71-0.97-1.23-2.05-1.8-3.19c-0.24-0.5-0.5-1.02-0.77-1.54C49.13,56.54,49.12,56.42,49.16,56.31z M48.6,53.83
		c-0.32-0.16-0.61-0.38-0.72-0.65l-0.32-0.87c-0.09-0.25-0.19-0.5-0.28-0.75c-0.17-0.46-0.34-0.93-0.51-1.4
		c-0.38-1.1-0.72-2.23-0.92-3.38c-0.1-0.54-0.03-0.96,0.21-1.27c0,0,0,0,0,0c0,0,0,0,0,0c0.1-0.12,0.21-0.21,0.33-0.29
		c0.37-0.22,0.85-0.26,1.28-0.29c0.26-0.02,0.55-0.04,0.71-0.11c0.05-0.01,0.1-0.02,0.15-0.02h0.01c2.11,0.08,3.86,1.44,4.44,3.35
		c0.08,0.27,0.14,0.56,0.18,0.85c0.13,1.18-0.18,2.31-0.81,3.21c-0.25,0.36-0.56,0.67-0.89,0.94c-0.51,0.42-1.11,0.73-1.78,0.87
		c-0.07,0.02-0.14,0.03-0.21,0.03C49.23,54.06,48.9,53.98,48.6,53.83z M53.24,66.59c0.1,0.13,0.1,0.31,0.01,0.45
		c-0.07,0.11-0.2,0.18-0.33,0.18c-0.03,0-0.05,0-0.08-0.01l-3.03-0.59l-4.34-0.84c-3.61-0.7-7.22-1.39-10.83-2.06
		c-0.41-0.07-0.81-0.15-1.21-0.23c-0.95-0.18-1.62-0.51-2.09-1.06c-0.31-0.36-0.55-0.82-0.71-1.4c-0.58-2.03-1.23-4.07-1.86-6.04
		c-0.54-1.72-1.1-3.44-1.61-5.17c-0.2-0.69-0.09-1.78,0.39-2.29c2.84-3.03,5.74-6.06,8.62-9.04c1.01-1.05,2.02-2.11,3.02-3.14
		l1.98-2.06c0.13-0.13,0.27-0.16,0.45-0.21c0.1-0.02,0.22-0.06,0.39-0.11c0.04-0.01,0.08-0.02,0.12-0.02c0.09,0,0.17,0.03,0.24,0.08
		c0.1,0.08,0.16,0.19,0.16,0.32C42.66,45.75,46.16,56.62,53.24,66.59z M28.85,60.84c0.09,0.31,0.18,0.61,0.28,0.92
		c0.17,0.57-0.36,1.66-0.9,1.83c-2.7,0.88-5.43,1.74-8.14,2.59c-1.75,0.55-3.5,1.1-5.22,1.63l-1.49,0.46l-0.8,0.25
		c-0.15,0.04-0.28,0.05-0.52,0.07c-0.14,0.01-0.33,0.02-0.58,0.04c-0.02,0-0.03,0.01-0.04,0.01c-0.08,0-0.16-0.04-0.23-0.09
		c-0.02-0.02-0.05-0.03-0.07-0.05c-0.09-0.11-0.22-0.22-0.36-0.35c-0.18-0.16-0.39-0.36-0.57-0.57c-0.23-0.25-0.43-0.53-0.55-0.86
		c-0.88-2.46-1.67-4.98-2.45-7.53c-0.13-0.42-0.26-0.82-0.39-1.24c-0.05-0.17-0.08-0.33-0.11-0.49c-0.01-0.04-0.02-0.09-0.03-0.13
		c-0.2-1.39,0.46-2.38,1.92-2.85c1.15-0.36,2.3-0.73,3.45-1.1c0.32-0.1,0.64-0.2,0.96-0.31c0.59-0.19,1.19-0.38,1.78-0.57
		c2.75-0.88,5.53-1.76,8.32-2.61c0.21-0.06,0.41-0.13,0.62-0.19c0.07-0.02,0.15-0.04,0.24-0.04c0.31,0,0.72,0.16,1.06,0.39
		c0.13,0.09,0.25,0.18,0.35,0.29c0.12,0.13,0.22,0.26,0.26,0.4c0.21,0.62,0.42,1.26,0.63,1.89C27.14,55.27,27.99,57.99,28.85,60.84z
		 M19.01,68.76c0.02-0.06,0.04-0.15,0.07-0.29c0.02-0.14,0.13-0.26,0.27-0.3l1.28-0.42c0.51-0.17,1.04-0.34,1.56-0.5
		c0.59-0.19,1.19-0.37,1.8-0.56c0.28-0.09,0.56-0.18,0.84-0.26c0.08-0.02,0.16-0.03,0.25-0.03c0.19,0,0.42,0.06,0.64,0.16
		c0.25,0.11,0.49,0.27,0.63,0.48c1.07,1.64,2.14,3.29,3.21,4.96c1.06,1.65,2.13,3.32,3.23,5.04l1.58,2.45
		c0.07,0.11,0.08,0.24,0.04,0.36c-0.04,0.11-0.14,0.2-0.25,0.24l-0.49,0.16l-0.86,0.28l-0.23,0.08c-0.73,0.24-1.44,0.46-2.13,0.68
		c-0.78,0.24-1.54,0.48-2.31,0.69C28.1,81.98,27.97,82,27.93,82c-0.43,0-1.03-0.34-1.27-0.72c-0.16-0.25-0.32-0.51-0.48-0.76
		c-0.03-0.05-0.07-0.11-0.1-0.16c-2.03-3.17-4.03-6.35-6.03-9.54l-0.19-0.3l-0.82-1.3C18.95,69.05,18.98,68.89,19.01,68.76z"/>
	<path class="st2" d="M92.39,67.78c0.15,0.06,0.3,0.12,0.45,0.18l0.13-0.12l-0.05-1.55c-0.18-0.07-0.36-0.14-0.53-0.21V67.78z"/>
	<path class="st2" d="M89.62,21.7c1.01,0,1.97,0.39,2.67,1.1c0.74,0.74,1.13,1.76,1.13,2.89c-0.04,5.01-0.04,10-0.03,15.01v8.91
		c0,0.08,0,0.16,0.01,0.24c-0.34-0.04-0.67-0.08-1.01-0.12c0,0.04,0,0.08,0.01,0.12c-0.79-0.1-1.58-0.2-2.36-0.29v0.74
		c0.62,0.02,1.18,0.13,1.69,0.29c0.49-0.13,1.03-0.2,1.61-0.2c0.15,0,0.3,0.01,0.44,0.02c0.05-0.07,0.11-0.13,0.16-0.2
		c0.04-0.05,0.07-0.1,0.11-0.15c-0.03,0-0.05-0.01-0.08-0.01V25.49c-0.01-2.08-1.08-3.8-2.68-4.69v0.32h-4.73
		c0.03,0.21,0.06,0.42,0.07,0.63c0.8-0.01,1.37-0.03,1.72-0.05h0.24c0.09,0,0.17,0.02,0.25,0.02c0.2-0.01,0.37-0.02,0.51-0.02H89.62
		z"/>
	<path class="st2" d="M93.2,68.1c0.11,0.05,0.19,0.16,0.19,0.28c0,2.79,0,8.41-0.01,11.18c0,0.13-0.01,0.26-0.03,0.42l-0.02,0.25
		c-0.01,0.15-0.14,0.28-0.3,0.28l-2.92,0.01c0.08,0.5,0.11,1.01,0.08,1.52h1.84h1c0.16,0,0.29,0.12,0.3,0.28l0.03,0.25
		c0.01,0.17,0.02,0.32,0.02,0.46l0.01,2.21c0.01,2.28,0.02,4.57,0.01,6.86c-0.01,3.71-3.06,6.73-6.78,6.74h-1h-0.75v0.75h4.32v0.06
		c1.21-0.57,2.27-1.45,3.16-2.64c1.15-1.52,1.66-3.32,1.64-5.83c-0.03-4.5-0.02-10.32-0.01-15.68v-6.37c0-0.09,0.04-0.17,0.1-0.23
		c0.06-0.04,0.13-0.07,0.2-0.07h0.01c-0.36-0.42-0.68-0.87-0.93-1.34l-0.38,0.35l0.01,0.17C93.05,68.04,93.13,68.07,93.2,68.1z"/>
	<path class="st2" d="M92.98,68.01l-0.01-0.17l-0.13,0.12C92.89,67.98,92.93,68,92.98,68.01z"/>
	<path class="st2" d="M97.65,64.55c0.66-2.63,1.31-5.26,1.96-7.89l0.26-1.03l-0.26,1.04C98.97,59.29,98.31,61.92,97.65,64.55z"/>
	<path class="st2" d="M95.84,67.26c-0.29,0-0.62-0.07-1-0.22c-0.64-0.25-1.28-0.5-1.92-0.75l0,0c0.64,0.25,1.28,0.5,1.91,0.75
		C95.22,67.19,95.55,67.26,95.84,67.26c0.65,0,1.01-0.37,1.23-0.76C96.85,66.89,96.49,67.26,95.84,67.26z"/>
	<path class="st2" d="M83.79,62.73c2.86,1.12,5.73,2.24,8.6,3.36v0C89.52,64.96,86.66,63.84,83.79,62.73z"/>
	<path class="st2" d="M92.39,66.08L92.39,66.08c0.18,0.07,0.36,0.14,0.53,0.21l0,0C92.75,66.22,92.57,66.15,92.39,66.08z"/>
	<path class="st2" d="M95.98,51.78c-1.45-0.19-2.89-0.38-4.34-0.57l-1.92-0.25l1.92,0.25C93.09,51.4,94.53,51.59,95.98,51.78z"/>
	<path class="st2" d="M55.19,100.79v8.29c0,0.16-0.14,0.3-0.3,0.3H39.95c-0.17,0-0.3-0.14-0.3-0.3v-8.29c0,0,0,0,0,0v8.28
		c0,0.16,0.13,0.3,0.3,0.3h14.94c0.16,0,0.3-0.14,0.3-0.3L55.19,100.79c0-0.08-0.03-0.15-0.09-0.21
		C55.16,100.64,55.19,100.71,55.19,100.79z"/>
	<path class="st2" d="M66.66,27.95c0.38,0.33,0.73,0.54,1.13,0.54c0.37,0,0.72-0.19,1.12-0.49c-0.4,0.29-0.76,0.48-1.12,0.48
		C67.4,28.49,67.05,28.28,66.66,27.95z"/>
	<path class="st2" d="M73.63,24.24c2.43-1.95,4.87-3.91,7.31-5.86l0.52-0.42l-0.52,0.42C78.49,20.33,76.06,22.28,73.63,24.24z"/>
	<path class="st2" d="M88.4,11.76c-0.01,0.23-0.09,0.46-0.24,0.69C88.31,12.22,88.39,12,88.4,11.76c0.02-0.43-0.22-0.86-0.76-1.39
		c-0.25-0.24-0.5-0.48-0.75-0.72c0.25,0.24,0.5,0.48,0.75,0.72C88.18,10.9,88.42,11.33,88.4,11.76z"/>
	<path class="st2" d="M77.9,1.42c0.13,0.08,0.27,0.14,0.39,0.2c0.27,0.13,0.53,0.25,0.74,0.45c0.08,0.08,0.16,0.16,0.25,0.24
		c-0.08-0.08-0.16-0.16-0.24-0.24c-0.21-0.2-0.47-0.32-0.74-0.45C78.17,1.56,78.03,1.5,77.9,1.42c-0.05-0.02-0.1-0.03-0.16-0.03
		c-0.06,0-0.13,0.02-0.18,0.07c0,0,0,0,0,0c0.05-0.05,0.12-0.07,0.18-0.07C77.8,1.39,77.85,1.4,77.9,1.42z"/>
	<path class="st2" d="M61.95,21.45l0.38-0.51L61.95,21.45c-0.51,0.67-0.51,1.37-0.01,1.99C61.44,22.82,61.44,22.12,61.95,21.45z"/>
	<path class="st2" d="M47.47,84.91c-2.73,0.02-4.95,2.25-4.94,4.98c0.01,2.73,2.24,4.96,4.95,4.96h0.01c1.33,0,2.59-0.53,3.54-1.5
		c0.95-0.95,1.45-2.21,1.43-3.51C52.42,87.12,50.2,84.91,47.47,84.91z M50.16,91.92c-0.1,0.13-0.2,0.26-0.31,0.38
		c-0.63,0.63-1.46,0.99-2.38,0.99c-0.89-0.02-1.73-0.41-2.34-1.03c-0.23-0.23-0.41-0.5-0.56-0.78c-0.26-0.47-0.43-1.01-0.44-1.57
		c0-0.37,0.07-0.74,0.19-1.09c0.15-0.44,0.38-0.84,0.7-1.19c0.04-0.05,0.08-0.11,0.13-0.16c0.2-0.2,0.42-0.36,0.65-0.5
		c0.51-0.31,1.09-0.49,1.67-0.49h0.03c1.61,0.02,2.97,1.19,3.28,2.74c0.04,0.22,0.07,0.45,0.07,0.68
		C50.85,90.63,50.6,91.33,50.16,91.92z"/>
	<path class="st2" d="M47.46,93.28c-0.89-0.02-1.73-0.41-2.34-1.02c-0.22-0.23-0.41-0.5-0.56-0.78c0.16,0.28,0.34,0.55,0.56,0.78
		C45.73,92.87,46.57,93.26,47.46,93.28c0.93,0,1.75-0.35,2.38-0.98c0.12-0.12,0.21-0.25,0.31-0.38c-0.1,0.13-0.2,0.27-0.32,0.38
		C49.21,92.93,48.39,93.28,47.46,93.28z"/>
	<path class="st2" d="M44.31,88.82c0.15-0.43,0.39-0.84,0.7-1.19C44.7,87.98,44.46,88.38,44.31,88.82z"/>
	<path class="st2" d="M47.49,86.48c1.61,0.02,2.97,1.19,3.28,2.74C50.46,87.67,49.1,86.5,47.49,86.48l-0.03,0
		c-0.59,0-1.16,0.18-1.67,0.49c0.51-0.31,1.09-0.49,1.67-0.49H47.49z"/>
</g>
</svg>
