<?xml version="1.0" encoding="utf-8"?>
<!-- Generator: Adobe Illustrator 25.0.0, SVG Export Plug-In . SVG Version: 6.00 Build 0)  -->
<svg version="1.1" id="Layer_1" xmlns="http://www.w3.org/2000/svg" xmlns:xlink="http://www.w3.org/1999/xlink" x="0px" y="0px"
	 viewBox="0 0 112.25 112.24" style="enable-background:new 0 0 112.25 112.24;" xml:space="preserve">
<style type="text/css">
	.st0{fill:#00B0FB;}
	.st1{fill:#00B0FB;fill-opacity:0.4;}
	.st2{fill:#FFFFFF;}
	.st3{fill:#185AE9;}
	.st4{fill-rule:evenodd;clip-rule:evenodd;fill:#00B0FB;}
	.st5{fill:none;}
</style>
<g>
	<path class="st0" d="M5.55,94.01c-1.75-1.75-2.71-4.08-2.71-6.54V22.86c0-0.44,0.36-0.81,0.8-0.81h3.23V21.3H1v66.17
		c0,4.94,3.25,9.14,7.72,10.58v-0.09h4.82v-1.23h-1.45C9.62,96.73,7.3,95.77,5.55,94.01z"/>
	<path class="st1" d="M45.54,63.98c-0.03,0-0.06,0-0.09,0c-0.21,0-0.42,0.08-0.57,0.24l-5.6,5.61c-0.17,0.17-0.4,0.27-0.65,0.27
		c-0.17,0-0.42-0.05-0.64-0.27c-0.35-0.36-0.35-0.95,0.01-1.32l5.56-5.55c0.18-0.18,0.26-0.42,0.23-0.67
		c-0.03-0.25-0.17-0.46-0.38-0.59c-1.34-0.81-2.87-1.24-4.44-1.24c-2.25,0-4.36,0.87-5.95,2.46l-7.81,7.81
		c-3.3,3.3-3.3,8.67,0,11.97c1.59,1.59,3.72,2.47,5.98,2.47c2.26,0,4.39-0.88,5.98-2.47l7.82-7.81c2.82-2.83,3.29-7.16,1.14-10.54
		C46,64.14,45.78,64,45.54,63.98z"/>
	<path class="st1" d="M74.26,42.1c0-2.25-0.88-4.37-2.47-5.98c-1.61-1.6-3.73-2.47-5.98-2.47c-2.26,0-4.37,0.88-5.97,2.47
		l-7.81,7.81c-1.6,1.6-2.48,3.73-2.48,5.98c0,1.54,0.42,3.02,1.25,4.4c0.13,0.21,0.35,0.35,0.59,0.38c0.03,0,0.06,0.01,0.1,0.01
		c0.21,0,0.42-0.08,0.57-0.24l5.57-5.57c0.17-0.17,0.4-0.26,0.65-0.26c0.25,0,0.48,0.09,0.65,0.26c0.17,0.17,0.26,0.4,0.26,0.65
		s-0.09,0.48-0.26,0.65l-5.6,5.6c-0.17,0.17-0.26,0.41-0.23,0.66c0.03,0.24,0.16,0.46,0.37,0.59c1.36,0.87,2.93,1.33,4.55,1.33
		c2.27,0,4.38-0.88,5.96-2.49l7.81-7.8C73.38,46.48,74.26,44.36,74.26,42.1z"/>
	<path class="st1" d="M85.87,1.84H11.12c-5.12,0-9.28,4.17-9.28,9.29v8.3c0,0.44,0.36,0.8,0.8,0.8h91.71c0.44,0,0.8-0.36,0.8-0.8
		v-8.3C95.15,6.01,90.99,1.84,85.87,1.84z M13.89,14.55c-1.94,0-3.53-1.58-3.53-3.53s1.59-3.54,3.53-3.54
		c1.95,0,3.54,1.59,3.54,3.54S15.84,14.55,13.89,14.55z M23.29,14.55c-1.95,0-3.54-1.58-3.54-3.53s1.59-3.54,3.54-3.54
		s3.53,1.59,3.53,3.54S25.24,14.55,23.29,14.55z M32.67,14.55c-1.95,0-3.53-1.58-3.53-3.53s1.58-3.54,3.53-3.54s3.54,1.59,3.54,3.54
		S34.62,14.55,32.67,14.55z M85.94,11.93h-25.2c-0.5,0-0.91-0.41-0.91-0.91s0.41-0.91,0.91-0.91h25.2c0.5,0,0.91,0.41,0.91,0.91
		S86.44,11.93,85.94,11.93z"/>
	<path class="st0" d="M101.16,15.49h-3.34c-0.45,0-0.81,0.36-0.81,0.81v71.17c0,6.13-4.99,11.12-11.12,11.12H17.94
		c-0.45,0-0.81,0.36-0.81,0.81v1.72c0,5.12,4.16,9.28,9.27,9.28h74.77c5.11,0,9.27-4.16,9.27-9.28V24.78
		C110.43,19.66,106.27,15.49,101.16,15.49z"/>
	<path class="st2" d="M101.14,13.65H97.8c-0.45,0-0.81-0.36-0.81-0.8v-1.72C96.99,4.99,92,0,85.87,0H11.12C4.99,0,0,4.99,0,11.13
		v76.34c0,6.13,4.99,11.12,11.12,11.12h3.34c0.45,0,0.81,0.36,0.81,0.81v1.72c0,6.13,4.98,11.12,11.11,11.12h74.76
		c6.13,0,11.11-4.99,11.11-11.12V24.78C112.25,18.64,107.27,13.65,101.14,13.65z M1.84,11.13c0-5.12,4.16-9.29,9.28-9.29h74.75
		c5.12,0,9.28,4.17,9.28,9.29v8.3c0,0.44-0.36,0.8-0.8,0.8H2.64c-0.44,0-0.8-0.36-0.8-0.8V11.13z M11.09,96.73
		c-2.47,0-4.79-0.96-6.54-2.72c-1.75-1.75-2.71-4.08-2.71-6.54V22.86c0-0.44,0.36-0.81,0.8-0.81h91.71c0.44,0,0.8,0.37,0.8,0.81
		v64.59c0,5.12-4.16,9.28-9.28,9.28H11.09z M110.43,101.12c0,5.11-4.16,9.28-9.27,9.28H26.4c-5.11,0-9.27-4.17-9.27-9.28V99.4
		c0-0.45,0.36-0.81,0.81-0.81h67.95c6.13,0,11.12-4.99,11.12-11.12V16.3c0-0.45,0.36-0.81,0.81-0.81h3.34
		c5.11,0,9.27,4.17,9.27,9.29V101.12z"/>
	<path class="st2" d="M60.74,11.93h25.2c0.5,0,0.91-0.41,0.91-0.91c0-0.5-0.41-0.91-0.91-0.91h-25.2c-0.5,0-0.91,0.41-0.91,0.91
		C59.83,11.52,60.24,11.93,60.74,11.93z"/>
	<path class="st2" d="M32.67,7.48c-1.95,0-3.53,1.59-3.53,3.54s1.58,3.53,3.53,3.53s3.54-1.58,3.54-3.53S34.62,7.48,32.67,7.48z
		 M34.31,12.61c-0.44,0.44-1.02,0.68-1.64,0.68c-1.25,0-2.27-1.02-2.27-2.27c0-1.26,1.02-2.28,2.27-2.28c1.26,0,2.28,1.01,2.28,2.26
		C34.96,11.6,34.73,12.17,34.31,12.61z"/>
	<path class="st2" d="M23.29,7.48c-1.95,0-3.54,1.59-3.54,3.54s1.59,3.53,3.54,3.53s3.53-1.58,3.53-3.53S25.24,7.48,23.29,7.48z
		 M24.91,12.61c-0.43,0.44-1.01,0.68-1.62,0.68c-1.26,0-2.28-1.02-2.28-2.27c0-1.26,1.02-2.28,2.28-2.28s2.28,1.02,2.28,2.27
		C25.57,11.61,25.34,12.18,24.91,12.61z"/>
	<path class="st2" d="M13.89,7.48c-1.94,0-3.53,1.59-3.53,3.54s1.59,3.53,3.53,3.53c1.95,0,3.54-1.58,3.54-3.53
		S15.84,7.48,13.89,7.48z M13.89,13.29c-1.25,0-2.28-1.02-2.28-2.27c0-1.26,1.03-2.28,2.28-2.28c1.26,0,2.28,1.02,2.28,2.28
		C16.17,12.27,15.15,13.29,13.89,13.29z"/>
	<path class="st2" d="M73.08,34.84c-1.95-1.95-4.53-3.02-7.28-3.02c-2.74,0-5.32,1.07-7.28,3.02l-7.81,7.81
		c-1.94,1.93-3.01,4.52-3.01,7.28c0,2.14,0.67,4.22,1.94,5.99c0.23,0.32,0.2,0.76-0.08,1.04l-3.51,3.51
		c-0.16,0.16-0.36,0.24-0.57,0.24c-0.16,0-0.33-0.05-0.47-0.16c-1.76-1.26-3.84-1.93-6.02-1.93c-2.75,0-5.33,1.07-7.26,3.01
		l-7.8,7.81c-4,4.01-4,10.55-0.01,14.56c1.96,1.95,4.55,3.02,7.28,3.02c2.76,0,5.35-1.07,7.28-3.02l7.81-7.8
		c3.62-3.63,4.04-9.26,0.99-13.4c-0.24-0.32-0.2-0.77,0.08-1.05l3.46-3.47c0.16-0.15,0.37-0.23,0.57-0.23
		c0.17,0,0.34,0.05,0.48,0.15c1.78,1.32,3.89,2.01,6.1,2.01c2.77,0,5.35-1.07,7.28-3.02l7.83-7.8c1.95-1.95,3.02-4.54,3.02-7.28
		C76.1,39.37,75.03,36.79,73.08,34.84z M44.99,74.88l-7.82,7.8c-1.59,1.6-3.71,2.48-5.98,2.48c-2.26,0-4.38-0.88-5.98-2.48
		c-3.3-3.3-3.3-8.67,0-11.97l7.81-7.8c1.59-1.59,3.7-2.46,5.95-2.46c1.57,0,3.1,0.43,4.44,1.24c0.21,0.13,0.35,0.35,0.38,0.59
		c0.03,0.25-0.05,0.49-0.23,0.67L38,68.5c-0.36,0.37-0.36,0.96-0.01,1.32c0.22,0.22,0.47,0.27,0.64,0.27c0.25,0,0.48-0.1,0.65-0.27
		l5.6-5.61c0.15-0.16,0.36-0.24,0.57-0.24c0.03,0,0.06,0,0.09,0.01c0.24,0.02,0.46,0.16,0.59,0.36
		C48.28,67.71,47.81,72.04,44.99,74.88z M71.78,48.07l-7.81,7.8c-1.57,1.61-3.69,2.49-5.96,2.49c-1.62,0-3.2-0.46-4.55-1.33
		c-0.21-0.13-0.34-0.35-0.37-0.59c-0.02-0.24,0.06-0.48,0.23-0.66l5.61-5.6c0.16-0.17,0.26-0.4,0.26-0.65s-0.1-0.48-0.26-0.65
		c-0.17-0.17-0.4-0.26-0.65-0.26s-0.48,0.09-0.65,0.26l-5.57,5.57c-0.16,0.16-0.36,0.24-0.57,0.24h-0.1
		c-0.25-0.03-0.47-0.18-0.59-0.39c-0.84-1.37-1.26-2.85-1.26-4.39c0-2.26,0.88-4.38,2.48-5.98l7.81-7.81
		c1.6-1.6,3.72-2.48,5.97-2.48s4.38,0.88,5.98,2.48c1.6,1.6,2.48,3.73,2.48,5.98C74.26,44.36,73.38,46.48,71.78,48.07z"/>
	<path class="st2" d="M76.34,66.99c-0.06,0.46-0.45,0.8-0.9,0.8h-0.08l-6.43-0.88c-0.51-0.08-0.86-0.54-0.79-1.05
		c0.07-0.45,0.46-0.8,0.92-0.8c0.04,0,0.08,0.01,0.12,0.01l6.38,0.87C76.07,66.02,76.42,66.49,76.34,66.99z"/>
	<path class="st2" d="M69.6,80.54c-0.16,0.17-0.39,0.26-0.63,0.26c-0.17,0-0.42-0.04-0.64-0.27l-4.56-4.55
		c-0.17-0.17-0.27-0.4-0.27-0.65s0.1-0.48,0.27-0.65c0.17-0.17,0.4-0.27,0.65-0.27s0.48,0.1,0.65,0.27l4.54,4.55
		C69.96,79.59,69.96,80.18,69.6,80.54z"/>
	<path class="st2" d="M56.85,86.2c0.07,0.51-0.29,0.98-0.79,1.05l-0.13,0.01c-0.45,0-0.83-0.34-0.9-0.8l-0.87-6.37
		c-0.06-0.51,0.29-0.97,0.8-1.04c0.03-0.01,0.08-0.01,0.12-0.01c0.45,0,0.84,0.34,0.91,0.79L56.85,86.2z"/>
	<path class="st2" d="M28.85,52.96c-0.06,0.44-0.45,0.78-0.9,0.78h-0.08l-6.43-0.88c-0.51-0.06-0.87-0.53-0.81-1.04
		c0.07-0.45,0.45-0.78,0.92-0.78c0.04,0,0.08,0,0.13,0.01l6.38,0.86C28.57,51.99,28.92,52.45,28.85,52.96z"/>
	<path class="st2" d="M33.22,44.13c-0.17,0.18-0.4,0.27-0.64,0.27c-0.17,0-0.42-0.05-0.64-0.27l-4.58-4.56
		c-0.35-0.35-0.35-0.95,0-1.3c0.17-0.17,0.41-0.26,0.65-0.26c0.25,0,0.48,0.09,0.65,0.26l4.56,4.56
		C33.57,43.18,33.57,43.77,33.22,44.13z"/>
	<path class="st2" d="M42.84,38.71c0.07,0.51-0.29,0.98-0.79,1.05l-0.13,0.01c-0.45,0-0.85-0.35-0.92-0.81l-0.86-6.37
		c-0.04-0.44,0.28-0.87,0.76-0.96c0.06-0.01,0.11-0.02,0.17-0.02c0.45,0,0.83,0.32,0.91,0.76L42.84,38.71z"/>
</g>
</svg>
