<?xml version="1.0" encoding="utf-8"?>
<!-- Generator: Adobe Illustrator 25.0.0, SVG Export Plug-In . SVG Version: 6.00 Build 0)  -->
<svg version="1.1" id="Layer_1" xmlns="http://www.w3.org/2000/svg" xmlns:xlink="http://www.w3.org/1999/xlink" x="0px" y="0px"
	 viewBox="0 0 186.68 171" style="enable-background:new 0 0 186.68 171;" xml:space="preserve">
<style type="text/css">
	.st0{fill:#00B0FB;}
	.st1{fill:#00B0FB;fill-opacity:0.4;}
	.st2{fill:#185AE9;}
	.st3{fill:#FFFFFF;}
	.st4{fill:#3C7CFF;}
	.st5{fill:#001135;}
	.st6{fill:#FDFDFD;}
	.st7{fill:#DBDBDB;}
	.st8{fill:none;}
	.st9{fill:#040404;}
	.st10{fill:#030303;}
	.st11{fill:#060606;}
	.st12{fill:#FF9A00;}
	.st13{fill:#330000;}
	.st14{fill:#D7A2FE;}
	.st15{fill:#371351;}
	.st16{fill:#1E1E1E;}
	.st17{fill:#D26E00;}
	.st18{fill:#FF9100;}
	.st19{fill:#FFA403;}
	.st20{fill:#5E5E5E;}
	.st21{fill:#939393;}
	.st22{fill:#B3D8FB;}
	.st23{fill:#27A2FB;}
	.st24{fill:#D8EAFB;}
	.st25{fill:#0A81F9;}
	.st26{fill:#8F818F;}
	.st27{fill:#003932;}
	.st28{fill:url(#SVGID_1_);}
	.st29{fill:url(#SVGID_2_);}
	.st30{fill:url(#SVGID_3_);}
	.st31{opacity:0.2;fill:url(#SVGID_4_);enable-background:new    ;}
	.st32{opacity:0.1;fill:url(#SVGID_5_);enable-background:new    ;}
	.st33{opacity:0.2;fill:url(#SVGID_6_);enable-background:new    ;}
	.st34{opacity:0.1;fill:url(#SVGID_7_);enable-background:new    ;}
	.st35{fill:url(#SVGID_8_);}
	.st36{fill:url(#SVGID_9_);}
	.st37{fill:url(#SVGID_10_);}
	.st38{opacity:0.2;fill:url(#SVGID_11_);enable-background:new    ;}
	.st39{opacity:0.1;fill:url(#SVGID_12_);enable-background:new    ;}
	.st40{opacity:0.2;fill:url(#SVGID_13_);enable-background:new    ;}
	.st41{opacity:0.1;fill:url(#SVGID_14_);enable-background:new    ;}
	.st42{opacity:0.2;fill:url(#SVGID_15_);enable-background:new    ;}
	.st43{opacity:0.1;fill:url(#SVGID_16_);enable-background:new    ;}
	.st44{opacity:0.2;fill:url(#SVGID_17_);enable-background:new    ;}
	.st45{opacity:0.1;fill:url(#SVGID_18_);enable-background:new    ;}
	.st46{fill:url(#SVGID_19_);}
	.st47{fill-rule:evenodd;clip-rule:evenodd;fill:#00B0FB;}
</style>
<g>
	<g>
		<path class="st0" d="M173.85,40.55V26.97c-0.68-4.29-2.99-8.03-6.26-10.61h-4.65V15.4h-9.51v2.79h3.7
			c6.33,0,11.48,5.13,11.48,11.45V62.7c0,6.31-5.15,11.45-11.49,11.45h-2.62c0.09,0.62,0.15,1.25,0.15,1.89
			c0,0.73-0.08,1.44-0.2,2.14c0.07,0,0.14,0.01,0.2,0.01c1.57-0.62,3.27-0.98,5.03-0.98c1.59,0,3.12,0.29,4.56,0.8
			c5.79-2.68,9.83-8.53,9.83-15.31V40.55H173.85z"/>
		<path class="st1" d="M83.43,96.26H30.92c-6.33,0-11.48,5.13-11.48,11.44v33.07c0,6.31,5.15,11.44,11.48,11.44h8.4
			c2.32,0.01,4.21,1.9,4.21,4.22v0.06c-0.04,3.13-0.47,5.65-1.03,7.64c5.11-2.34,7.89-6.29,8.5-8.73c0.48-1.88,2.14-3.19,4.06-3.19
			h28.37c6.33,0,11.48-5.13,11.48-11.44v-33.06C94.91,101.39,89.76,96.26,83.43,96.26z M36.31,109.3h19.1
			c1.51,0,2.73,1.22,2.73,2.73c0,1.51-1.22,2.74-2.73,2.74h-19.1c-1.51,0-2.73-1.23-2.73-2.74C33.58,110.52,34.8,109.3,36.31,109.3z
			 M70.98,137.57H36.31c-1.51,0-2.73-1.22-2.73-2.73c0-1.51,1.22-2.74,2.73-2.74h34.67c1.51,0,2.74,1.23,2.74,2.74
			C73.72,136.35,72.49,137.57,70.98,137.57z M70.98,126.17H36.31c-1.51,0-2.73-1.22-2.73-2.73s1.22-2.74,2.73-2.74h34.67
			c1.51,0,2.74,1.23,2.74,2.74S72.49,126.17,70.98,126.17z"/>
		<path class="st1" d="M150.38,114.59h-24.79c-1.91,0-3.46,1.55-3.46,3.46s1.55,3.46,3.46,3.46h24.79c1.91,0,3.46-1.55,3.46-3.46
			S152.28,114.59,150.38,114.59z"/>
		<path class="st0" d="M174.47,5.47H12.22c-3.72,0-6.75,3.03-6.75,6.74v16.96h84.21c0.25-9.11,7.75-16.45,16.93-16.45h52.52
			c9.18,0,16.68,7.34,16.93,16.45h5.15V12.21C181.21,8.5,178.19,5.47,174.47,5.47z M17.77,21.94c-2.61,0-4.74-2.13-4.74-4.74
			s2.13-4.74,4.74-4.74s4.74,2.13,4.74,4.74S20.38,21.94,17.77,21.94z M31.79,21.94c-2.61,0-4.74-2.13-4.74-4.74
			s2.13-4.74,4.74-4.74c2.61,0,4.74,2.13,4.74,4.74S34.4,21.94,31.79,21.94z M45.81,21.94c-2.62,0-4.74-2.13-4.74-4.74
			s2.12-4.74,4.74-4.74c2.61,0,4.73,2.13,4.73,4.74S48.42,21.94,45.81,21.94z"/>
		<path class="st3" d="M174.47,0H12.22C5.48,0,0,5.48,0,12.21v123.24c0,6.74,5.48,12.22,12.22,12.22h3.23
			c2.65,5.89,8.58,10.01,15.47,10.01h7.1c-0.27,4.85-1.63,7.43-2.24,8.36c-0.7,1.08-0.69,2.48,0.03,3.55
			c0.61,0.89,1.6,1.41,2.65,1.41c0.21,0,0.43-0.02,0.64-0.06c8.9-1.8,15.07-7.86,16.92-13.26h27.41c6.88,0,12.82-4.12,15.47-10.01
			h75.57c6.73,0,12.21-5.48,12.21-12.22V12.21C186.68,5.48,181.2,0,174.47,0z M94.91,140.77c0,6.31-5.15,11.44-11.48,11.44H55.06
			c-1.92,0-3.58,1.31-4.06,3.19c-0.61,2.44-3.39,6.39-8.5,8.73c0.56-1.99,0.99-4.51,1.03-7.64v-0.06c0-2.32-1.89-4.21-4.21-4.22
			h-8.4c-6.33,0-11.48-5.13-11.48-11.44V107.7c0-6.31,5.15-11.44,11.48-11.44h52.51c6.33,0,11.48,5.13,11.48,11.45V140.77z
			 M181.21,135.45c0,3.72-3.02,6.75-6.74,6.75h-74.16c0.04-0.48,0.07-0.95,0.07-1.43v-33.06c0-9.33-7.61-16.92-16.95-16.92H30.92
			c-9.35,0-16.95,7.59-16.95,16.91v33.07c0,0.48,0.02,0.95,0.06,1.43h-1.81c-3.72,0-6.75-3.03-6.75-6.75V34.64h84.19V62.7
			c0,9.33,7.61,16.92,16.95,16.92h27.41c1.85,5.39,8.02,11.45,16.92,13.25c0.21,0.04,0.43,0.06,0.64,0.06
			c1.05,0,2.04-0.51,2.65-1.41c0.72-1.07,0.74-2.46,0.03-3.54c-0.61-0.93-1.97-3.52-2.24-8.36h7.1c9.35,0,16.95-7.59,16.95-16.92
			V34.64h5.14V135.45z M147.54,86.06c-5.11-2.34-7.88-6.29-8.5-8.73c-0.47-1.87-2.14-3.18-4.06-3.18h-28.37
			c-6.33,0-11.48-5.14-11.48-11.45V29.64c0-6.31,5.15-11.45,11.48-11.45h52.52c6.33,0,11.48,5.13,11.48,11.45V62.7
			c0,6.31-5.15,11.45-11.49,11.45h-8.4c-2.32,0-4.21,1.89-4.21,4.21v0.07C146.55,81.55,146.98,84.08,147.54,86.06z M181.21,29.17
			h-5.15c-0.25-9.11-7.75-16.45-16.93-16.45h-52.52c-9.18,0-16.68,7.34-16.93,16.45H5.47V12.21c0-3.71,3.03-6.74,6.75-6.74h162.25
			c3.72,0,6.74,3.03,6.74,6.74V29.17z"/>
		<circle class="st3" cx="17.77" cy="17.2" r="4.74"/>
		<ellipse transform="matrix(0.9871 -0.1602 0.1602 0.9871 -2.3445 5.314)" class="st3" cx="31.79" cy="17.2" rx="4.74" ry="4.74"/>
		<circle class="st3" cx="45.81" cy="17.2" r="4.74"/>
		<path class="st3" d="M131.84,33.25c0,1.51-1.23,2.74-2.74,2.74h-19.09c-1.51,0-2.73-1.23-2.73-2.74s1.22-2.73,2.73-2.73h19.09
			C130.61,30.52,131.84,31.74,131.84,33.25z"/>
		<path class="st3" d="M147.42,44.66c0,1.51-1.23,2.73-2.74,2.73h-34.67c-1.51,0-2.73-1.22-2.73-2.73c0-1.51,1.22-2.74,2.73-2.74
			h34.67C146.19,41.92,147.42,43.15,147.42,44.66z"/>
		<path class="st3" d="M147.42,56.06c0,1.51-1.23,2.73-2.74,2.73h-34.67c-1.51,0-2.73-1.22-2.73-2.73s1.22-2.74,2.73-2.74h34.67
			C146.19,53.32,147.42,54.55,147.42,56.06z"/>
		<path class="st3" d="M36.31,114.77h19.09c1.51,0,2.73-1.22,2.73-2.73s-1.22-2.73-2.73-2.73H36.31c-1.51,0-2.73,1.22-2.73,2.73
			S34.8,114.77,36.31,114.77z"/>
		<path class="st3" d="M70.98,120.7H36.31c-1.51,0-2.73,1.22-2.73,2.73c0,1.51,1.22,2.73,2.73,2.73h34.67
			c1.51,0,2.73-1.22,2.73-2.73C73.72,121.93,72.49,120.7,70.98,120.7z"/>
		<path class="st3" d="M70.98,132.1H36.31c-1.51,0-2.73,1.22-2.73,2.73c0,1.51,1.22,2.73,2.73,2.73h34.67
			c1.51,0,2.73-1.22,2.73-2.73C73.72,133.33,72.49,132.1,70.98,132.1z"/>
		<path class="st3" d="M150.38,109.12h-24.8c-4.92,0-8.93,4.01-8.93,8.93c0,4.93,4.01,8.93,8.93,8.93h24.8c4.92,0,8.93-4,8.93-8.93
			C159.31,113.13,155.3,109.12,150.38,109.12z M150.38,121.51h-24.8c-1.91,0-3.46-1.55-3.46-3.46c0-1.91,1.55-3.46,3.46-3.46h24.8
			c1.9,0,3.46,1.55,3.46,3.46C153.84,119.96,152.28,121.51,150.38,121.51z"/>
	</g>
</g>
</svg>
