<?xml version="1.0" encoding="utf-8"?>
<!-- Generator: Adobe Illustrator 25.0.0, SVG Export Plug-In . SVG Version: 6.00 Build 0)  -->
<svg version="1.1" id="Layer_1" xmlns="http://www.w3.org/2000/svg" xmlns:xlink="http://www.w3.org/1999/xlink" x="0px" y="0px"
	 viewBox="0 0 169 169" style="enable-background:new 0 0 169 169;" xml:space="preserve">
<style type="text/css">
	.st0{fill:#00B0FB;}
	.st1{fill:#00B0FB;fill-opacity:0.4;}
	.st2{fill:#185AE9;}
	.st3{fill:#FFFFFF;}
	.st4{fill:#3C7CFF;}
	.st5{fill:#001135;}
	.st6{fill:#FDFDFD;}
	.st7{fill:#DBDBDB;}
	.st8{fill:none;}
	.st9{fill:#040404;}
	.st10{fill:#030303;}
	.st11{fill:#060606;}
	.st12{fill:#FF9A00;}
	.st13{fill:#330000;}
	.st14{fill:#D7A2FE;}
	.st15{fill:#371351;}
	.st16{fill:#1E1E1E;}
	.st17{fill:#D26E00;}
	.st18{fill:#FF9100;}
	.st19{fill:#FFA403;}
	.st20{fill:#5E5E5E;}
	.st21{fill:#939393;}
	.st22{fill:#B3D8FB;}
	.st23{fill:#27A2FB;}
	.st24{fill:#D8EAFB;}
	.st25{fill:#0A81F9;}
	.st26{fill:#8F818F;}
	.st27{fill:#003932;}
	.st28{fill:url(#SVGID_1_);}
	.st29{fill:url(#SVGID_2_);}
	.st30{fill:url(#SVGID_3_);}
	.st31{opacity:0.2;fill:url(#SVGID_4_);enable-background:new    ;}
	.st32{opacity:0.1;fill:url(#SVGID_5_);enable-background:new    ;}
	.st33{opacity:0.2;fill:url(#SVGID_6_);enable-background:new    ;}
	.st34{opacity:0.1;fill:url(#SVGID_7_);enable-background:new    ;}
	.st35{fill:url(#SVGID_8_);}
	.st36{fill:url(#SVGID_9_);}
	.st37{fill:url(#SVGID_10_);}
	.st38{opacity:0.2;fill:url(#SVGID_11_);enable-background:new    ;}
	.st39{opacity:0.1;fill:url(#SVGID_12_);enable-background:new    ;}
	.st40{opacity:0.2;fill:url(#SVGID_13_);enable-background:new    ;}
	.st41{opacity:0.1;fill:url(#SVGID_14_);enable-background:new    ;}
	.st42{opacity:0.2;fill:url(#SVGID_15_);enable-background:new    ;}
	.st43{opacity:0.1;fill:url(#SVGID_16_);enable-background:new    ;}
	.st44{opacity:0.2;fill:url(#SVGID_17_);enable-background:new    ;}
	.st45{opacity:0.1;fill:url(#SVGID_18_);enable-background:new    ;}
	.st46{fill:url(#SVGID_19_);}
	.st47{fill-rule:evenodd;clip-rule:evenodd;fill:#00B0FB;}
</style>
<g>
	<g>
		<path class="st0" d="M144.52,53.51v1.43h9.31c0.03-0.2,0.05-0.4,0.05-0.61V4.13c0-0.59-0.13-1.15-0.35-1.66h-5.94v2.48h1.35v48.56
			H144.52z"/>
		<path class="st1" d="M62.92,19.73c1.64,0,2.97-1.33,2.97-2.97c0-1.64-1.33-2.97-2.97-2.97c-1.64,0-2.97,1.33-2.97,2.97
			C59.94,18.39,61.28,19.73,62.92,19.73z"/>
		<rect x="65.12" y="102.49" class="st0" width="16.9" height="49.56"/>
		<rect x="86.97" y="102.49" class="st0" width="16.9" height="49.56"/>
		<rect x="34.39" y="102.49" class="st1" width="9.46" height="25.35"/>
		<rect x="125.15" y="102.49" class="st1" width="9.46" height="25.35"/>
		<path class="st1" d="M62.92,32.22c-0.47,0-1.64,0.13-2.37,1.34l-1.66,2.74l3.8,8.39v0h9.33l-6.73-11.12
			C64.56,32.35,63.39,32.22,62.92,32.22z"/>
		<path class="st1" d="M46.43,21.17c-0.16,0-0.21,0.1-0.23,0.15L35.61,44.68h21.65L46.66,21.32C46.64,21.26,46.59,21.17,46.43,21.17
			z"/>
		<polygon class="st1" points="75.1,58.46 41.28,58.46 41.28,64.98 127.72,64.98 127.72,58.46 83.36,58.46 		"/>
		<path class="st0" d="M89.89,82.78v-1.84H79.1v1.84c0,2.97,2.42,5.39,5.39,5.39S89.89,85.75,89.89,82.78z"/>
		<path class="st0" d="M137.1,82.78v-1.84h-10.79v1.84c0,2.97,2.42,5.39,5.39,5.39C134.68,88.17,137.1,85.75,137.1,82.78z"/>
		<path class="st0" d="M121.36,82.78v-1.84h-10.79v1.84c0,2.97,2.42,5.39,5.39,5.39S121.36,85.75,121.36,82.78z"/>
		<path class="st0" d="M152.84,82.78v-1.84h-10.78v1.84c0,2.97,2.42,5.39,5.39,5.39C150.42,88.17,152.84,85.75,152.84,82.78z"/>
		<rect x="4.95" y="157" class="st0" width="159.1" height="7.05"/>
		<path class="st0" d="M105.62,82.78v-1.84H94.84v1.84c0,2.97,2.42,5.39,5.39,5.39C103.21,88.17,105.62,85.75,105.62,82.78z"/>
		<path class="st0" d="M26.94,82.78v-1.84H16.16v1.84c0,2.97,2.42,5.39,5.39,5.39C24.52,88.17,26.94,85.75,26.94,82.78z"/>
		<path class="st0" d="M58.42,82.78v-1.84H47.63v1.84c0,2.97,2.42,5.39,5.39,5.39S58.42,85.75,58.42,82.78z"/>
		<path class="st0" d="M42.68,82.78v-1.84H31.89v1.84c0,2.97,2.42,5.39,5.39,5.39C40.26,88.17,42.68,85.75,42.68,82.78z"/>
		<path class="st0" d="M74.15,82.78v-1.84H63.37v1.84c0,2.97,2.42,5.39,5.39,5.39C71.73,88.17,74.15,85.75,74.15,82.78z"/>
		<path class="st3" d="M164.87,152.05h-8.99V88.76c1.24-1.75,1.91-3.84,1.91-5.98v-1.84h3.09c2.28,0,4.13-1.85,4.13-4.13V69.1
			c0-2.27-1.85-4.12-4.13-4.12h-28.21v-6.52h19.08c2.28,0,4.13-1.85,4.13-4.13V4.13c0-2.28-1.85-4.13-4.13-4.13H17.24
			c-2.27,0-4.13,1.85-4.13,4.13v50.2c0,2.28,1.86,4.13,4.13,4.13h19.08v6.52H8.11c-2.27,0-4.12,1.85-4.12,4.12v7.71
			c0,2.28,1.85,4.13,4.12,4.13h3.1v1.84c0,2.23,0.7,4.29,1.9,5.98v63.29H4.12c-2.27,0-4.12,1.85-4.12,4.13v8.69
			c0,2.28,1.85,4.13,4.12,4.13h160.75c2.28,0,4.13-1.85,4.13-4.13v-8.69C169,153.9,167.15,152.05,164.87,152.05z M18.07,53.51V4.95
			h132.86v48.56H18.07z M127.72,58.46v6.52H41.28v-6.52H127.72z M8.94,75.98v-6.05h151.11v6.05H8.94z M108.82,138.54v-36.87
			c0-2.28-1.85-4.13-4.12-4.13H64.3c-2.28,0-4.13,1.85-4.13,4.13v36.87h-42.1V92.52c1.11,0.4,2.29,0.61,3.48,0.6
			c3.15,0,5.97-1.41,7.87-3.64c1.9,2.23,4.72,3.64,7.87,3.64c3.14,0,5.97-1.41,7.86-3.64c1.9,2.23,4.73,3.64,7.87,3.64
			c3.15,0,5.97-1.41,7.87-3.64c1.9,2.23,4.72,3.64,7.87,3.64c3.15,0,5.97-1.41,7.87-3.64c1.9,2.23,4.72,3.64,7.87,3.64
			c3.14,0,5.97-1.41,7.87-3.64c1.89,2.23,4.72,3.64,7.86,3.64c3.15,0,5.97-1.41,7.87-3.64c1.9,2.23,4.72,3.64,7.87,3.64
			s5.97-1.41,7.87-3.64c1.9,2.23,4.72,3.64,7.87,3.64c3.15,0,5.97-1.41,7.87-3.64c1.89,2.23,4.72,3.64,7.86,3.64
			c1.19,0.01,2.37-0.2,3.49-0.6v46.02H108.82z M150.93,143.49v8.56h-42.11v-8.56H150.93z M103.87,102.49v49.56h-16.9v-49.56H103.87z
			 M82.02,102.49v49.56h-16.9v-49.56H82.02z M18.07,143.49h42.1v8.56h-42.1V143.49z M16.16,82.78v-1.84h10.78v1.84
			c0,2.97-2.42,5.39-5.39,5.39C18.58,88.17,16.16,85.75,16.16,82.78z M31.89,82.78v-1.84h10.79v1.84c0,2.97-2.42,5.39-5.39,5.39
			C34.31,88.17,31.89,85.75,31.89,82.78z M47.63,82.78v-1.84h10.79v1.84c0,2.97-2.42,5.39-5.4,5.39
			C50.05,88.17,47.63,85.75,47.63,82.78z M63.37,82.78v-1.84h10.78v1.84c0,2.97-2.42,5.39-5.39,5.39
			C65.79,88.17,63.37,85.75,63.37,82.78z M79.1,82.78v-1.84h10.79v1.84c0,2.97-2.42,5.39-5.39,5.39
			C81.52,88.17,79.1,85.75,79.1,82.78z M94.84,82.78v-1.84h10.78v1.84c0,2.97-2.41,5.39-5.39,5.39
			C97.26,88.17,94.84,85.75,94.84,82.78z M110.58,82.78v-1.84h10.78v1.84c0,2.97-2.42,5.39-5.39,5.39S110.58,85.75,110.58,82.78z
			 M126.31,82.78v-1.84h10.79v1.84c0,2.97-2.42,5.39-5.39,5.39C128.73,88.17,126.31,85.75,126.31,82.78z M147.44,88.17
			c-2.97,0-5.39-2.42-5.39-5.39v-1.84h10.79v1.84C152.84,85.75,150.42,88.17,147.44,88.17z M164.05,164.05H4.95V157h159.1V164.05z"
			/>
		<path class="st3" d="M76.97,43.3L69.53,31c-1.41-2.34-3.89-3.73-6.61-3.73c-2.67,0-5.08,1.33-6.51,3.56l-5.24-11.56
			c-0.85-1.88-2.67-3.05-4.74-3.06c-2.07,0-3.89,1.18-4.74,3.06L30.6,43.74c-0.59,1.29-0.48,2.79,0.29,3.98
			c0.77,1.19,2.09,1.91,3.51,1.91h39c1.51,0,2.9-0.81,3.64-2.12C77.78,46.19,77.75,44.59,76.97,43.3z M35.61,44.68L46.2,21.32
			c0.02-0.06,0.06-0.15,0.23-0.15c0.16,0,0.21,0.09,0.23,0.15l10.59,23.36H35.61z M62.69,44.68l-3.8-8.39l1.65-2.73
			c0.73-1.21,1.91-1.34,2.38-1.34c0.47,0,1.64,0.13,2.37,1.34l6.73,11.12H62.69z"/>
		<path class="st3" d="M44.67,97.54H33.56c-2.27,0-4.12,1.85-4.12,4.13v27c0,2.27,1.85,4.12,4.12,4.12h11.11
			c2.28,0,4.13-1.85,4.13-4.12v-27C48.8,99.39,46.95,97.54,44.67,97.54z M43.85,127.84h-9.46v-25.35h9.46V127.84z"/>
		<path class="st3" d="M116.99,37.79c0,1.37-1.11,2.47-2.48,2.47h-21.1c-1.36,0-2.47-1.1-2.47-2.47s1.11-2.48,2.47-2.48h21.1
			C115.88,35.31,116.99,36.42,116.99,37.79z"/>
		<path class="st3" d="M62.92,8.83c-4.37,0-7.93,3.55-7.93,7.92s3.56,7.93,7.93,7.93s7.92-3.56,7.92-7.93S67.29,8.83,62.92,8.83z
			 M62.92,19.73c-1.64,0-2.98-1.34-2.98-2.98s1.34-2.97,2.98-2.97s2.97,1.33,2.97,2.97S64.56,19.73,62.92,19.73z"/>
		<path class="st3" d="M138.09,20.67c0,1.37-1.11,2.48-2.48,2.48h-42.2c-1.36,0-2.47-1.11-2.47-2.48s1.11-2.48,2.47-2.48h42.2
			C136.98,18.19,138.09,19.3,138.09,20.67z"/>
		<path class="st3" d="M135.43,97.54h-11.11c-2.28,0-4.13,1.85-4.13,4.13v27c0,2.27,1.85,4.12,4.13,4.12h11.11
			c2.28,0,4.13-1.85,4.13-4.12v-27C139.56,99.39,137.71,97.54,135.43,97.54z M134.61,127.84h-9.46v-25.35h9.46V127.84z"/>
	</g>
</g>
</svg>
