<?xml version="1.0" encoding="utf-8"?>
<!-- Generator: Adobe Illustrator 25.0.0, SVG Export Plug-In . SVG Version: 6.00 Build 0)  -->
<svg version="1.1" id="Layer_1" xmlns="http://www.w3.org/2000/svg" xmlns:xlink="http://www.w3.org/1999/xlink" x="0px" y="0px"
	 viewBox="0 0 112.93 129" style="enable-background:new 0 0 112.93 129;" xml:space="preserve">
<style type="text/css">
	.st0{fill:#185AE9;}
	.st1{fill:#00B0FB;}
	.st2{fill:#00B0FB;fill-opacity:0.4;}
	.st3{fill:#FFFFFF;}
	.st4{fill:#3C7CFF;}
	.st5{fill:#001135;}
	.st6{fill:#FDFDFD;}
	.st7{fill:#DBDBDB;}
	.st8{fill:none;}
	.st9{fill:#040404;}
	.st10{fill:#030303;}
	.st11{fill:#060606;}
	.st12{fill:#FF9A00;}
	.st13{fill:#330000;}
	.st14{fill:#D7A2FE;}
	.st15{fill:#371351;}
	.st16{fill:#1E1E1E;}
	.st17{fill:#D26E00;}
	.st18{fill:#FF9100;}
	.st19{fill:#FFA403;}
	.st20{fill:#5E5E5E;}
	.st21{fill:#939393;}
	.st22{fill:#B3D8FB;}
	.st23{fill:#27A2FB;}
	.st24{fill:#D8EAFB;}
	.st25{fill:#0A81F9;}
	.st26{fill:#8F818F;}
	.st27{fill:#003932;}
	.st28{fill:url(#SVGID_1_);}
	.st29{fill:url(#SVGID_2_);}
	.st30{fill:url(#SVGID_3_);}
	.st31{opacity:0.2;fill:url(#SVGID_4_);enable-background:new    ;}
	.st32{opacity:0.1;fill:url(#SVGID_5_);enable-background:new    ;}
	.st33{opacity:0.2;fill:url(#SVGID_6_);enable-background:new    ;}
	.st34{opacity:0.1;fill:url(#SVGID_7_);enable-background:new    ;}
	.st35{fill:url(#SVGID_8_);}
	.st36{fill:url(#SVGID_9_);}
	.st37{fill:url(#SVGID_10_);}
	.st38{opacity:0.2;fill:url(#SVGID_11_);enable-background:new    ;}
	.st39{opacity:0.1;fill:url(#SVGID_12_);enable-background:new    ;}
	.st40{opacity:0.2;fill:url(#SVGID_13_);enable-background:new    ;}
	.st41{opacity:0.1;fill:url(#SVGID_14_);enable-background:new    ;}
	.st42{opacity:0.2;fill:url(#SVGID_15_);enable-background:new    ;}
	.st43{opacity:0.1;fill:url(#SVGID_16_);enable-background:new    ;}
	.st44{opacity:0.2;fill:url(#SVGID_17_);enable-background:new    ;}
	.st45{opacity:0.1;fill:url(#SVGID_18_);enable-background:new    ;}
	.st46{fill:url(#SVGID_19_);}
</style>
<g>
	<path class="st14" d="M68.09,0H19.95c-4.64,0-8.41,3.78-8.41,8.44v112.12c0,4.66,3.78,8.41,8.44,8.44h84.51
		c4.66,0,8.41-3.78,8.44-8.44l-0.25-83.28L68.09,0z"/>
	<path class="st15" d="M68.09,0l-0.13,36.4c0,0,0.13,0.88,0.88,0.88h43.83L68.09,0z M3.43,62.14h85.04c1.89,0,3.43,1.54,3.43,3.43
		v37.99c0,1.89-1.54,3.43-3.43,3.43H3.43c-1.89,0-3.43-1.54-3.43-3.43V65.57C0,63.68,1.54,62.14,3.43,62.14L3.43,62.14z"/>
	<g>
		<path class="st3" d="M16.88,87.99l5.54-0.35c0.13,0.91,0.35,1.59,0.73,2.07c0.6,0.76,1.46,1.13,2.57,1.13
			c0.83,0,1.49-0.2,1.91-0.58c0.43-0.33,0.65-0.83,0.68-1.36c0-0.5-0.25-0.98-0.65-1.31c-0.43-0.38-1.44-0.76-3-1.11
			c-2.54-0.58-4.38-1.34-5.47-2.29c-1.08-0.91-1.69-2.24-1.64-3.65c0-0.98,0.3-1.94,0.83-2.75c0.63-0.91,1.51-1.61,2.54-2.04
			c1.13-0.5,2.67-0.73,4.64-0.73c2.42,0,4.26,0.45,5.52,1.34c1.26,0.91,2.02,2.32,2.27,4.28l-5.49,0.33
			c-0.15-0.86-0.45-1.46-0.93-1.86c-0.48-0.4-1.11-0.58-1.94-0.58c-0.68,0-1.18,0.15-1.54,0.43c-0.33,0.25-0.5,0.63-0.5,1.06
			c0,0.33,0.18,0.63,0.43,0.81c0.28,0.25,0.93,0.48,1.96,0.71c2.54,0.55,4.38,1.11,5.47,1.66c0.98,0.45,1.81,1.18,2.39,2.09
			c0.5,0.83,0.78,1.81,0.76,2.8c0,1.18-0.35,2.37-1.01,3.35c-0.68,1.03-1.66,1.84-2.8,2.32c-1.21,0.53-2.72,0.78-4.53,0.78
			c-3.2,0-5.44-0.63-6.68-1.86C17.76,91.47,17.05,89.88,16.88,87.99L16.88,87.99z M35.07,75.34h6.1l4.26,13.58l4.18-13.58h5.92
			l-7,18.87h-6.32L35.07,75.34z M66,87.39v-3.93h9.02v8.04c-1.74,1.18-3.25,1.96-4.58,2.39c-1.54,0.45-3.12,0.68-4.71,0.63
			c-2.24,0-4.06-0.38-5.47-1.13c-1.41-0.78-2.57-1.96-3.27-3.4c-0.81-1.61-1.21-3.4-1.16-5.19c0-2.07,0.43-3.85,1.26-5.37
			c0.86-1.51,2.17-2.75,3.73-3.48c1.28-0.6,3-0.91,5.16-0.91c2.09,0,3.65,0.2,4.69,0.58c1.01,0.35,1.89,0.96,2.57,1.76
			c0.73,0.88,1.26,1.91,1.54,3.02l-5.62,1.01c-0.2-0.65-0.6-1.23-1.18-1.64c-0.63-0.4-1.36-0.6-2.12-0.58
			c-1.16-0.05-2.29,0.45-3.05,1.34c-0.76,0.88-1.13,2.29-1.13,4.21c0,2.04,0.38,3.5,1.16,4.38c0.78,0.88,1.84,1.31,3.2,1.28
			c0.63,0,1.26-0.1,1.86-0.28c0.71-0.25,1.39-0.58,2.04-0.96v-1.76H66L66,87.39z"/>
	</g>
</g>
</svg>
