<?xml version="1.0" encoding="utf-8"?>
<!-- Generator: Adobe Illustrator 25.0.0, SVG Export Plug-In . SVG Version: 6.00 Build 0)  -->
<svg version="1.1" id="Layer_1" xmlns="http://www.w3.org/2000/svg" xmlns:xlink="http://www.w3.org/1999/xlink" x="0px" y="0px"
	 viewBox="0 0 148.85 129" style="enable-background:new 0 0 148.85 129;" xml:space="preserve">
<style type="text/css">
	.st0{fill:#185AE9;}
	.st1{fill:#00B0FB;}
	.st2{fill:#00B0FB;fill-opacity:0.4;}
	.st3{fill:#FFFFFF;}
	.st4{fill:#3C7CFF;}
	.st5{fill:#001135;}
	.st6{fill:#FDFDFD;}
	.st7{fill:#DBDBDB;}
	.st8{fill:none;}
	.st9{fill:#040404;}
	.st10{fill:#030303;}
	.st11{fill:#060606;}
	.st12{fill:#FF9A00;}
	.st13{fill:#330000;}
	.st14{fill:#D7A2FE;}
	.st15{fill:#371351;}
	.st16{fill:#1E1E1E;}
	.st17{fill:#D26E00;}
	.st18{fill:#FF9100;}
	.st19{fill:#FFA403;}
	.st20{fill:#5E5E5E;}
	.st21{fill:#939393;}
	.st22{fill:#B3D8FB;}
	.st23{fill:#27A2FB;}
	.st24{fill:#D8EAFB;}
	.st25{fill:#0A81F9;}
	.st26{fill:#8F818F;}
	.st27{fill:#003932;}
	.st28{fill:url(#SVGID_1_);}
	.st29{fill:url(#SVGID_2_);}
	.st30{fill:url(#SVGID_3_);}
	.st31{opacity:0.2;fill:url(#SVGID_4_);enable-background:new    ;}
	.st32{opacity:0.1;fill:url(#SVGID_5_);enable-background:new    ;}
	.st33{opacity:0.2;fill:url(#SVGID_6_);enable-background:new    ;}
	.st34{opacity:0.1;fill:url(#SVGID_7_);enable-background:new    ;}
	.st35{fill:url(#SVGID_8_);}
	.st36{fill:url(#SVGID_9_);}
	.st37{fill:url(#SVGID_10_);}
	.st38{opacity:0.2;fill:url(#SVGID_11_);enable-background:new    ;}
	.st39{opacity:0.1;fill:url(#SVGID_12_);enable-background:new    ;}
	.st40{opacity:0.2;fill:url(#SVGID_13_);enable-background:new    ;}
	.st41{opacity:0.1;fill:url(#SVGID_14_);enable-background:new    ;}
	.st42{opacity:0.2;fill:url(#SVGID_15_);enable-background:new    ;}
	.st43{opacity:0.1;fill:url(#SVGID_16_);enable-background:new    ;}
	.st44{opacity:0.2;fill:url(#SVGID_17_);enable-background:new    ;}
	.st45{opacity:0.1;fill:url(#SVGID_18_);enable-background:new    ;}
	.st46{fill:url(#SVGID_19_);}
</style>
<g>
	<path class="st12" d="M136.44,129H12.4C5.55,129,0,123.45,0,116.6V12.4C0,5.55,5.55,0,12.4,0h48.2c3.29,0,6.44,1.31,8.77,3.63
		l11.34,11.34c2.33,2.33,5.48,3.63,8.77,3.63h46.96c6.85,0,12.4,5.55,12.4,12.4v85.59C148.85,123.45,143.29,129,136.44,129z"/>
	<path class="st13" d="M4.96,23.57H135.2c4.8,0,8.68,3.89,8.68,8.68v83.11c0,4.8-3.89,8.68-8.68,8.68H13.64
		c-4.8,0-8.68-3.89-8.68-8.68V23.57z"/>
	<g>
		<path class="st12" d="M98.57,57.06c-1.48,0.06-2.93-0.47-4.01-1.49c-2.06-2.33-2.04-5.83,0.04-8.14c1.09-1.03,2.55-1.59,4.05-1.53
			c1.5-0.08,2.97,0.48,4.05,1.53c1.03,1.11,1.56,2.58,1.49,4.09c0.07,1.5-0.48,2.97-1.53,4.05
			C101.55,56.59,100.08,57.13,98.57,57.06L98.57,57.06z M73.95,84.35H57.77L53.6,97.37c-0.06,0.4-0.3,0.62-0.76,0.62h-7.6
			c-0.51,0-0.68-0.25-0.53-0.76l14.83-44.39c0.42-1.3,0.63-2.65,0.62-4.02c-0.03-0.22,0.12-0.42,0.33-0.45
			c0.04-0.01,0.08-0.01,0.12,0h10.47c0.3,0,0.48,0.12,0.53,0.38l16.41,48.56c0.15,0.45,0,0.68-0.38,0.68h-8.52
			c-0.32,0.02-0.62-0.16-0.76-0.45L73.95,84.35z M59.59,76.9H72.2l-6.46-21.09L59.59,76.9z M94.27,97.29V61.4
			c-0.04-0.3,0.16-0.58,0.46-0.62c0.05-0.01,0.11-0.01,0.16,0h7.44c0.3-0.04,0.58,0.16,0.62,0.46c0.01,0.05,0.01,0.11,0,0.16v35.97
			c0.04,0.3-0.16,0.58-0.46,0.62c-0.05,0.01-0.11,0.01-0.16,0h-7.36c-0.34,0.05-0.65-0.19-0.7-0.53
			C94.26,97.41,94.26,97.35,94.27,97.29z"/>
	</g>
</g>
</svg>
