<?xml version="1.0" encoding="utf-8"?>
<!-- Generator: Adobe Illustrator 25.0.0, SVG Export Plug-In . SVG Version: 6.00 Build 0)  -->
<svg version="1.1" id="Layer_1" xmlns="http://www.w3.org/2000/svg" xmlns:xlink="http://www.w3.org/1999/xlink" x="0px" y="0px"
	 viewBox="0 0 271.36 235.14" style="enable-background:new 0 0 271.36 235.14;" xml:space="preserve">
<style type="text/css">
	.st0{fill:#185AE9;}
	.st1{fill:#00B0FB;}
	.st2{fill:#00B0FB;fill-opacity:0.4;}
	.st3{fill:#FFFFFF;}
	.st4{fill:#001135;}
	.st5{fill:#3C7CFF;}
	.st6{fill-rule:evenodd;clip-rule:evenodd;fill:#252F3E;}
	.st7{fill-rule:evenodd;clip-rule:evenodd;fill:#FF9900;}
	.st8{fill:#8D3124;}
	.st9{fill:#E05244;}
	.st10{fill:#F7ADAE;}
	.st11{fill:#5B1E19;}
	.st12{fill:#F58436;}
	.st13{fill:#9D5026;}
	.st14{fill:#1A476F;}
	.st15{fill:#1F5B98;}
	.st16{fill:#2D72B8;}
	.st17{fill:#5294CF;}
	.st18{fill:#FF9900;}
	.st19{fill:#252F3E;}
	.st20{fill:#FDFDFD;}
	.st21{fill:#DBDBDB;}
	.st22{fill:#040404;}
	.st23{fill:#0C0C0C;}
	.st24{fill:#010101;}
	.st25{fill:#D9D9D9;}
	.st26{fill:#DCDCDC;}
	.st27{fill:#D7D7D7;}
	.st28{fill:#D8D8D8;}
	.st29{fill:#111111;}
	.st30{fill:#050505;}
	.st31{fill:#070707;}
	.st32{fill:#060606;}
	.st33{fill:#030303;}
	.st34{fill:#020202;}
	.st35{fill:#151515;}
	.st36{fill:#0F0F0F;}
	.st37{fill:#606060;}
	.st38{fill:#FCFCFC;}
	.st39{fill:#0A0A0A;}
	.st40{fill:#191919;}
	.st41{fill:#0D0D0D;}
	.st42{fill:#101010;}
	.st43{fill:#090909;}
	.st44{fill:#161616;}
	.st45{fill:#080808;}
	.st46{fill-rule:evenodd;clip-rule:evenodd;fill:#00B0FB;}
</style>
<g>
	<path class="st5" d="M113.04,22.29c-25.07,0-45.47,20.4-45.47,45.47s20.4,45.47,45.47,45.47c25.04-0.03,45.44-20.42,45.47-45.47
		C158.5,42.68,138.11,22.29,113.04,22.29z M113.04,63.4c5.66,0,10.74,3.59,12.63,8.93c1.2,3.38,1.01,7.01-0.53,10.25
		c-1.54,3.23-4.25,5.67-7.63,6.86c-0.07,0.03-0.12,0.09-0.12,0.17v5.31c0,2.4-1.95,4.35-4.35,4.35c-2.4,0-4.35-1.95-4.35-4.35V90.4
		c0-0.1-0.08-0.18-0.18-0.18h-4.53c-2.4,0-4.35-1.95-4.35-4.35c0-2.4,1.95-4.35,4.35-4.35h9.06c2.6,0,4.71-2.11,4.71-4.71
		c0-2.6-2.11-4.71-4.71-4.71c-5.66,0-10.74-3.59-12.63-8.93c-1.2-3.38-1.01-7.02,0.54-10.25c1.54-3.23,4.25-5.67,7.63-6.86
		c0.07-0.03,0.12-0.09,0.12-0.17v-5.31c0-2.4,1.95-4.35,4.35-4.35c2.4,0,4.35,1.95,4.35,4.35v4.53c0,0.1,0.08,0.18,0.18,0.18h4.53
		c2.4,0,4.35,1.95,4.35,4.35s-1.95,4.35-4.35,4.35h-9.06c-2.6,0-4.71,2.11-4.71,4.71S110.44,63.4,113.04,63.4z"/>
	<path class="st3" d="M217.2,99.28h-18.11c-0.1,0-0.18,0.08-0.18,0.18v126.81c0,0.1,0.08,0.18,0.18,0.18h18.11
		c0.1,0,0.18-0.08,0.18-0.18V99.45C217.38,99.36,217.3,99.28,217.2,99.28z"/>
	<path class="st4" d="M81.33,185.32H63.22c-0.1,0-0.18,0.08-0.18,0.18v40.76c0,0.1,0.08,0.18,0.18,0.18h18.12
		c0.1,0,0.18-0.08,0.18-0.18V185.5C81.51,185.4,81.43,185.32,81.33,185.32z"/>
	<path class="st3" d="M36.05,207.97H17.93c-0.1,0-0.18,0.08-0.18,0.18v18.11c0,0.1,0.08,0.18,0.18,0.18h18.11
		c0.1,0,0.18-0.08,0.18-0.18v-18.11C36.23,208.05,36.15,207.97,36.05,207.97z"/>
	<path class="st4" d="M171.91,130.98H153.8c-0.1,0-0.18,0.08-0.18,0.18v95.1c0,0.1,0.08,0.18,0.18,0.18h18.12
		c0.1,0,0.18-0.08,0.18-0.18v-95.1C172.09,131.06,172.01,130.98,171.91,130.98z"/>
	<path class="st5" d="M126.62,167.21h-18.11c-0.1,0-0.18,0.08-0.18,0.18v58.87c0,0.1,0.08,0.18,0.18,0.18h18.11
		c0.1,0,0.18-0.08,0.18-0.18v-58.87C126.8,167.29,126.72,167.21,126.62,167.21z"/>
	<path class="st4" d="M262.49,63.04h-18.11c-0.1,0-0.18,0.08-0.18,0.18v163.04c0,0.1,0.08,0.18,0.18,0.18h18.11
		c0.1,0,0.18-0.08,0.18-0.18V63.22C262.67,63.12,262.58,63.04,262.49,63.04z"/>
	<path class="st4" d="M267.01,54.35h-27.17c-2.4,0-4.35,1.95-4.35,4.35v172.09c0,2.4,1.95,4.35,4.35,4.35h27.17
		c2.4,0,4.35-1.95,4.35-4.35V58.7C271.36,56.3,269.41,54.35,267.01,54.35z M262.67,226.26c0,0.1-0.08,0.18-0.18,0.18h-18.11
		c-0.1,0-0.18-0.08-0.18-0.18V63.22c0-0.1,0.08-0.18,0.18-0.18h18.11c0.1,0,0.18,0.08,0.18,0.18V226.26z"/>
	<path class="st4" d="M221.73,90.58h-27.17c-2.4,0-4.35,1.95-4.35,4.35v135.86c0,2.4,1.95,4.35,4.35,4.35h27.17
		c2.4,0,4.35-1.95,4.35-4.35V94.93C226.08,92.53,224.13,90.58,221.73,90.58z M217.38,226.26c0,0.1-0.08,0.18-0.18,0.18h-18.11
		c-0.1,0-0.18-0.08-0.18-0.18V99.45c0-0.1,0.08-0.18,0.18-0.18h18.11c0.1,0,0.18,0.08,0.18,0.18V226.26z"/>
	<path class="st4" d="M176.44,122.28h-27.17c-2.4,0-4.35,1.95-4.35,4.35v104.16c0,2.4,1.95,4.35,4.35,4.35h27.17
		c2.4,0,4.35-1.95,4.35-4.35V126.63C180.79,124.23,178.84,122.28,176.44,122.28z M172.09,226.26c0,0.1-0.08,0.18-0.18,0.18H153.8
		c-0.1,0-0.18-0.08-0.18-0.18v-95.1c0-0.1,0.08-0.18,0.18-0.18h18.12c0.1,0,0.18,0.08,0.18,0.18V226.26z"/>
	<path class="st4" d="M131.15,158.51h-27.17c-2.4,0-4.35,1.95-4.35,4.35v67.93c0,2.4,1.95,4.35,4.35,4.35h27.17
		c2.4,0,4.35-1.95,4.35-4.35v-67.93C135.5,160.46,133.55,158.51,131.15,158.51z M126.8,226.26c0,0.1-0.08,0.18-0.18,0.18h-18.11
		c-0.1,0-0.18-0.08-0.18-0.18v-58.87c0-0.1,0.08-0.18,0.18-0.18h18.11c0.1,0,0.18,0.08,0.18,0.18V226.26z"/>
	<path class="st4" d="M85.86,176.62H58.69c-2.4,0-4.35,1.95-4.35,4.35v49.82c0,2.4,1.95,4.35,4.35,4.35h27.17
		c2.4,0,4.35-1.95,4.35-4.35v-49.82C90.21,178.57,88.26,176.62,85.86,176.62z M81.51,226.26c0,0.1-0.08,0.18-0.18,0.18H63.22
		c-0.1,0-0.18-0.08-0.18-0.18V185.5c0-0.1,0.08-0.18,0.18-0.18h18.12c0.1,0,0.18,0.08,0.18,0.18V226.26z"/>
	<path class="st4" d="M40.58,199.27H13.4c-2.4,0-4.35,1.95-4.35,4.35v27.17c0,2.4,1.95,4.35,4.35,4.35h27.17
		c2.4,0,4.35-1.95,4.35-4.35v-27.17C44.93,201.22,42.97,199.27,40.58,199.27z M36.23,226.26c0,0.1-0.08,0.18-0.18,0.18H17.93
		c-0.1,0-0.18-0.08-0.18-0.18v-18.11c0-0.1,0.08-0.18,0.18-0.18h18.11c0.1,0,0.18,0.08,0.18,0.18V226.26z"/>
	<path class="st4" d="M267.01,0h-27.17c-2.4,0-4.35,1.95-4.35,4.35s1.95,4.35,4.35,4.35h16.24c0.07,0,0.14,0.04,0.17,0.11
		c0.03,0.07,0.01,0.14-0.04,0.19l-63.53,63.46h-25.49c-0.05,0-0.1-0.02-0.13-0.06c-0.02-0.02-0.05-0.1-0.05-0.14
		c0.13-1.48,0.19-3,0.19-4.51c0-29.87-24.3-54.17-54.17-54.17c-29.87,0.01-54.17,24.31-54.17,54.17c0,26.05,18.58,48.44,44.19,53.23
		c0.07,0.01,0.12,0.06,0.14,0.12c0.02,0.06,0,0.13-0.05,0.18l-19.16,19.1H49.63c-1.15,0-2.27,0.46-3.08,1.27L1.27,186.95
		c-1.69,1.7-1.69,4.46,0,6.15c0.82,0.82,1.92,1.27,3.08,1.27s2.25-0.45,3.08-1.27l44.08-44.02h34.36c1.15,0,2.27-0.46,3.08-1.27
		l26-25.94c24.15-0.88,44.47-17.19,50.54-40.59c0.02-0.08,0.09-0.13,0.17-0.13h28.89c1.15,0,2.27-0.46,3.08-1.27l64.72-64.73
		c0.03-0.03,0.07-0.05,0.13-0.05c0.01,0,0.06,0,0.07,0.01c0.07,0.03,0.11,0.09,0.11,0.17v16.24c0,2.4,1.95,4.35,4.35,4.35
		c2.4,0,4.35-1.95,4.35-4.35V4.35C271.36,1.95,269.41,0,267.01,0z M113.04,113.22c-25.07,0-45.47-20.4-45.47-45.47
		s20.4-45.47,45.47-45.47s45.47,20.4,45.47,45.47C158.47,92.79,138.08,113.19,113.04,113.22z"/>
	<path class="st4" d="M113.04,53.99h9.06c2.4,0,4.35-1.95,4.35-4.35s-1.95-4.35-4.35-4.35h-4.53c-0.1,0-0.18-0.08-0.18-0.18v-4.53
		c0-2.4-1.95-4.35-4.35-4.35c-2.4,0-4.35,1.95-4.35,4.35v5.31c0,0.08-0.05,0.14-0.12,0.17c-3.37,1.19-6.08,3.63-7.63,6.86
		c-1.54,3.23-1.73,6.87-0.54,10.25c1.89,5.34,6.97,8.93,12.63,8.93c2.6,0,4.71,2.11,4.71,4.71c0,2.6-2.11,4.71-4.71,4.71h-9.06
		c-2.4,0-4.35,1.95-4.35,4.35c0,2.4,1.95,4.35,4.35,4.35h4.53c0.1,0,0.18,0.08,0.18,0.18v4.53c0,2.4,1.95,4.35,4.35,4.35
		c2.4,0,4.35-1.95,4.35-4.35v-5.31c0-0.08,0.05-0.14,0.12-0.17c3.37-1.19,6.08-3.63,7.63-6.86c1.54-3.23,1.73-6.87,0.53-10.25
		c-1.89-5.34-6.96-8.93-12.63-8.93c-2.6,0-4.71-2.11-4.71-4.71S110.44,53.99,113.04,53.99z"/>
</g>
</svg>
