<?xml version="1.0" encoding="utf-8"?>
<!-- Generator: Adobe Illustrator 25.0.0, SVG Export Plug-In . SVG Version: 6.00 Build 0)  -->
<svg version="1.1" id="Layer_1" xmlns="http://www.w3.org/2000/svg" xmlns:xlink="http://www.w3.org/1999/xlink" x="0px" y="0px"
	 viewBox="0 0 146.77 128" style="enable-background:new 0 0 146.77 128;" xml:space="preserve">
<style type="text/css">
	.st0{fill:#FFFFFF;}
	.st1{fill:#001135;}
	.st2{fill:#3C7CFF;}
	.st3{fill:#185AE9;}
	.st4{fill:#00B0FB;}
	.st5{fill:#00D8FF;}
	.st6{fill:#B3B3B3;}
	.st7{fill:#A6120D;}
	.st8{fill:#DD1B16;}
	.st9{fill:#F2F2F2;}
	.st10{fill:#4DBA87;}
	.st11{fill:#425466;}
	.st12{fill-rule:evenodd;clip-rule:evenodd;fill:#7FC728;}
	.st13{fill:url(#SVGID_1_);}
	.st14{fill:url(#SVGID_2_);}
	.st15{fill:#14559A;}
	.st16{fill:url(#SVGID_3_);}
	.st17{fill:#3092C4;}
	.st18{fill:#1969BC;}
	.st19{fill:url(#SVGID_4_);}
	.st20{fill:url(#SVGID_5_);}
	.st21{fill:url(#SVGID_6_);}
	.st22{fill:#2B74B1;}
	.st23{fill:#125A9E;}
	.st24{fill:url(#SVGID_7_);}
	.st25{fill:url(#SVGID_8_);}
	.st26{fill:#0D82CA;}
	.st27{fill:url(#SVGID_9_);}
	.st28{fill:#127BCA;}
	.st29{fill:url(#SVGID_10_);}
	.st30{fill:url(#SVGID_11_);}
	.st31{fill:#05A1E6;}
	.st32{fill:url(#SVGID_12_);}
	.st33{fill:url(#SVGID_13_);}
	.st34{fill:url(#SVGID_14_);}
	.st35{fill:#079AE1;}
	.st36{fill:#1E5CB3;}
	.st37{fill:#1D60B5;}
	.st38{fill:#175FAB;}
	.st39{fill:url(#SVGID_15_);}
	.st40{fill:#7DCBEC;}
	.st41{fill:#5EC5ED;}
	.st42{fill:url(#SVGID_16_);}
	.st43{fill:url(#SVGID_17_);}
	.st44{fill:url(#SVGID_18_);}
	.st45{fill:#6EB341;}
	.st46{fill:#F6F6F6;}
	.st47{fill:none;}
</style>
<g>
	<path class="st0" d="M103.87,49.18c-0.9-0.98-1.78-1.95-2.66-2.94c-0.1-0.11-0.24-0.17-0.38-0.17c-0.15,0-0.29,0.06-0.39,0.17
		L90.26,57.38c-1.09-2.33-1.99-4.24-2.98-6.33c-0.07-0.15-0.21-0.25-0.36-0.28l-0.11-0.01c-0.13,0-0.25,0.05-0.34,0.13
		c-5.35,4.67-5.95,5.66-5.87,9.66c0.03,1.35,0.33,2.6,2.39,2.6c3.9-0.02,7.74-0.02,11.59-0.02h0.62c4.35,0,8.69-0.01,13.04-0.03
		c0.55,0,2.22-0.45,2.22-1.26c0.01-0.36,0.05-0.75,0.08-1.16c0.13-1.56,0.26-3.18-0.52-4.25C108.17,53.87,106.08,51.59,103.87,49.18
		z"/>
	<path class="st1" d="M51.42,77.39c-0.09-0.16-0.27-0.26-0.45-0.26h0c-0.18,0-0.36,0.1-0.45,0.26l-1.3,2.25
		c-3.12,5.41-6.09,10.58-9.05,15.74c-0.22,0.38-0.4,0.78-0.58,1.2l-0.23,0.51c-0.07,0.15-0.06,0.33,0.02,0.47
		c0.08,0.14,0.22,0.24,0.39,0.26c4.99,0.6,5.63,1.3,5.64,6.23v19.8c0,0.29,0.23,0.52,0.52,0.52h9.96c0.29,0,0.52-0.23,0.52-0.52
		l0-6.66c0-4.38,0.01-8.65,0-12.91c-0.03-5.07,0.84-5.97,6.14-6.43c0.18-0.02,0.33-0.12,0.42-0.28c0.08-0.16,0.08-0.35-0.01-0.5
		l-2.85-4.86C57.22,87.29,54.37,82.45,51.42,77.39z"/>
	<path class="st0" d="M110.13,33.71c-0.54-0.54-1.32-0.59-2.15-0.59c-3.08,0.02-6.16,0.02-9.24,0.02l-17.37-0.01
		c-0.29,0-0.52,0.23-0.52,0.52v16.29c0,0.2,0.12,0.38,0.3,0.47c0.03,0.02,0.18,0.05,0.22,0.05c0.12,0,0.23-0.04,0.33-0.12
		c0.57-0.46,1.12-1.01,1.65-1.53c1.13-1.12,2.2-2.17,3.16-2.2c0.99,0,2.1,0.99,3.28,2.03c0.59,0.53,1.19,1.05,1.82,1.51
		c0.09,0.06,0.19,0.1,0.3,0.1c0.15,0,0.29-0.06,0.38-0.17l6.43-7.11c0.92-1.01,1.58-1.46,2.12-1.46c0.54,0,1.18,0.44,2.07,1.43
		c0.57,0.64,6.25,7.13,6.25,7.13c0.1,0.11,0.24,0.18,0.39,0.18c0.03,0,0.16-0.03,0.2-0.04c0.26-0.11,0.4-0.16,0.54-0.21
		c0.21-0.07,0.35-0.27,0.35-0.49l-0.01-4.01c-0.01-3.32-0.02-6.7,0.03-10.02C110.69,34.66,110.51,34.09,110.13,33.71z M91.59,42.6
		c-0.13,0-0.26-0.01-0.39-0.03c-0.96-0.17-2.31-1.5-2.59-2.54c-0.17-0.62-0.08-1.19,0.26-1.65c0.42-0.58,1.2-0.94,2.12-0.99
		c0.08-0.01,0.15-0.01,0.23-0.01c1.45,0,2.29,0.87,2.47,2.59C93.61,41.53,92.77,42.6,91.59,42.6z"/>
	<path class="st0" d="M63.78,33.23c-5.81-0.08-11.51-0.09-16.8-0.09l-10.49,0.01c-0.29,0-0.52,0.23-0.52,0.52l0,5.13
		c0,7.3-0.01,14.84,0.07,22.31c0,0.83,1.32,1.95,2.1,1.97c4.4,0.05,8.79,0.07,13.19,0.07c4.12,0,8.24-0.02,12.35-0.07
		c0.89-0.02,2.2-1.29,2.2-2.13c0.1-8.46,0.1-17.06,0-25.53C65.86,34.56,64.6,33.25,63.78,33.23z M57.91,49.58
		c-3.92,2.4-7.97,4.72-12.39,7.11c-0.37,0.2-0.71,0.3-1.03,0.3c-0.87,0-1.45-0.83-1.5-2.16c-0.06-1.6-0.05-3.25-0.04-4.84
		c0.01-0.69,0.01-1.37,0.01-2.04c0-0.65-0.01-1.3-0.01-1.95c-0.01-1.54-0.03-3.11,0.04-4.65c0.05-1.36,0.61-2.14,1.53-2.14
		c0.38,0,0.81,0.13,1.28,0.38c3.96,2.16,8.03,4.53,12.11,7.04c0.68,0.42,1.05,0.95,1.05,1.48C58.97,48.65,58.59,49.17,57.91,49.58z"
		/>
	<path class="st1" d="M101.34,97.21V77.73c0-0.29-0.23-0.52-0.52-0.52H90.62c-0.29,0-0.52,0.23-0.52,0.52l0.01,8.48
		c0.01,4.15,0.02,8.3-0.02,12.44c-0.03,3.21-1.14,4.52-4.08,4.81c-0.55,0.06-1.03,0.11-1.92,0.19c-0.18,0.02-0.33,0.12-0.41,0.28
		c-0.08,0.16-0.08,0.35,0.01,0.5c0,0,8.94,15.23,11.58,19.71c0.09,0.16,0.27,0.26,0.45,0.26c0.19,0,0.36-0.1,0.45-0.26l11.19-19.6
		c0.08-0.15,0.09-0.33,0.02-0.48c-0.08-0.16-0.22-0.26-0.39-0.29C101.71,102.96,101.34,102.53,101.34,97.21z"/>
	<path class="st0" d="M52.99,47.63c-2.15-1.19-3.85-2.14-5.78-3.21c-0.08-0.04-0.17-0.07-0.25-0.07c-0.09,0-0.18,0.02-0.26,0.07
		c-0.16,0.1-0.26,0.27-0.26,0.45v6.68c0,0.19,0.1,0.36,0.26,0.45c0.08,0.04,0.17,0.07,0.26,0.07c0.09,0,0.18-0.03,0.27-0.07
		l5.78-3.46c0.16-0.1,0.26-0.27,0.25-0.45C53.26,47.89,53.16,47.72,52.99,47.63z"/>
	<path class="st2" d="M124.83,43.04c-1.6-0.13-2.54-0.46-2.79-0.99c-0.25-0.52,0.06-1.45,0.94-2.75c3.93-5.83,3.55-12.81-0.97-17.78
		c-2.6-2.85-6.35-4.49-10.3-4.49c-2.46,0-4.92,0.63-7.13,1.83c-1.12,0.61-1.8,0.87-2.26,0.87c-0.54,0-0.96-0.37-1.62-2.33
		c-1.51-4.44-4.07-7.92-7.62-10.35c-3.35-2.3-7.22-3.52-11.17-3.52c-5.32,0-10.38,2.18-14.23,6.13c-1.11,1.14-1.77,1.79-2.28,1.79
		c-0.51,0-1.26-0.59-2.44-1.56c-0.49-0.4-0.99-0.79-1.49-1.16c-4.41-3.25-9.98-5.04-15.67-5.04c-5.53,0-10.97,1.7-15.33,4.79
		c-9.34,6.63-13.59,18.64-10.35,29.22c1.45,4.74,1.45,4.74-3.28,6.41C8.23,47.16,3.26,55.38,4.18,65.04
		c0.8,8.33,7.91,15.58,16.18,16.51c2.22,0.25,4.43,0.3,7.05,0.3l2.81-0.01c2.03,0,4.2,0.03,6.31,0.23c0.71,0.07,1.35,0.1,1.98,0.1
		c4.57,0,7.29-1.85,9.1-6.19c0.62-1.49,1.85-2.38,3.29-2.38c1.45,0,2.76,0.94,3.41,2.46c1.8,4.2,4.47,6.16,8.42,6.16
		c0.75,0,1.58-0.07,2.44-0.22c0.34-0.06,0.71-0.09,1.16-0.09c0.33,0,0.66,0.02,1,0.03c0,0,0.15,0.01,0.15,0.01
		c0.35,0.02,0.7,0.03,1.05,0.03h17.39c0.28,0,0.51-0.22,0.52-0.5l0.05-1.02c0.03-0.66,0.06-1.24,0.08-1.82
		c0.07-3.57,1.48-4.99,5.03-5.05c0.53-0.01,1.06-0.01,1.59-0.01l3.19,0.01c7.63,0,7.79,0.15,8.46,7.9c0.02,0.26,0.25,0.47,0.52,0.47
		c0,0,8.56,0.02,8.57,0.02c2.14,0,4.27-0.01,6.39-0.04c2.13-0.03,4.2-0.21,6.16-0.54c10.32-1.75,17.44-10.14,16.93-19.95
		C142.88,51.6,135.07,43.86,124.83,43.04z M69.32,61.48c-0.05,3.35-1.76,4.99-5.23,5.01c-4.38,0.03-8.76,0.05-13.15,0.05
		c-4.38,0-8.77-0.02-13.16-0.05c-3.46-0.02-5.23-1.8-5.26-5.28c-0.08-8.64-0.08-17.4,0-26.03c0.02-3.7,1.64-5.3,5.41-5.34
		c1.44-0.01,2.88-0.01,4.33-0.01l8.67,0.01l7.9-0.01c1.8,0,3.59,0.01,5.39,0.03c3.42,0.04,5.03,1.56,5.08,4.8
		C69.43,43.41,69.44,52.43,69.32,61.48z M114.06,61.53c-0.04,3.13-1.87,4.94-5.04,4.96c-4.47,0.04-8.95,0.06-13.42,0.06
		c-4.47,0-8.94-0.02-13.41-0.06c-3.16-0.02-4.85-1.68-4.88-4.78c-0.13-8.99-0.13-18.11,0-27.09c0.05-3.21,1.67-4.72,5.11-4.75
		c1.79-0.02,3.59-0.03,5.38-0.03l7.89,0.01l7.89-0.01c1.79,0,3.59,0.01,5.38,0.03c3.33,0.04,5.04,1.66,5.08,4.84
		C114.17,43.19,114.17,51.96,114.06,61.53z"/>
	<path class="st1" d="M138.98,45.62c-2.16-1.87-4.76-3.19-7.59-4.63c-1.22-0.62-2.48-1.26-3.69-1.95c-0.23-0.13-0.32-0.41-0.22-0.66
		c2.93-6.85,1.97-13.32-2.79-18.71c-3.55-4.02-7.83-6.05-12.7-6.05c-2.42,0-5.03,0.51-7.73,1.5c-0.03,0.01-0.15,0.03-0.18,0.03
		c-0.2,0-0.39-0.12-0.47-0.31C99.55,5.8,91.22,0.18,81.87,0.18c-5.95,0-11.79,2.35-16.43,6.61c-0.1,0.09-0.22,0.14-0.35,0.14
		c-0.11,0-0.21-0.03-0.3-0.1C58.46,2.3,52.03,0,45.7,0c-5.11,0-10.2,1.5-15.15,4.47C17.89,12.08,13.3,23.89,16.92,39.55
		c0.04,0.16,0,0.32-0.1,0.44c-0.05,0.07-0.09,0.12-0.12,0.17c-0.07,0.11-0.17,0.24-0.33,0.31c-0.36,0.16-0.71,0.31-1.1,0.48
		c-0.36,0.15-0.73,0.31-1.09,0.47C5.02,45.41,0.11,52.61,0,62.24c-0.11,9.55,4.63,16.88,13.71,21.2c3.73,1.75,7.67,1.89,11.39,1.89
		l1.69-0.01c0,0,3.68-0.02,5.16-0.02l9.22,0.01c0.18,0,0.36,0.1,0.45,0.26c0.09,0.16,0.09,0.36,0,0.52
		c-0.63,1.1-1.24,2.14-1.85,3.18c-1.25,2.14-2.42,4.16-3.53,6.2c-0.75,1.38-0.83,2.76-0.23,3.89c0.6,1.14,1.86,1.89,3.44,2.05
		c0.41,0.05,0.82,0.08,1.31,0.13l0.72,0.07c0.27,0.03,0.47,0.25,0.47,0.52l-0.01,8.29c-0.01,4.17-0.01,8.34,0.02,12.52
		c0.01,3.58,1.39,5,4.93,5.05c1.33,0.01,2.66,0.02,3.98,0.02s2.66-0.01,3.98-0.02c3.81-0.04,5.1-1.32,5.11-5.1
		c0.02-3.34,0.01-6.67,0.01-10.01l0-0.36c0-2.57,0-5.14,0-7.71c0-0.62,0.03-1.24,0.07-1.89l0.05-0.91c0.01-0.28,0.24-0.5,0.52-0.5
		l0.44,0.01c2.41,0,4.14-0.78,4.87-2.19c0.76-1.47,0.39-3.5-0.99-5.45c-1.16-1.64-2.11-3.38-3.11-5.22c-0.43-0.8-0.87-1.6-1.34-2.41
		c-0.09-0.16-0.09-0.36,0-0.52c0.09-0.16,0.26-0.26,0.45-0.26h25.05c0.29,0,0.52,0.23,0.52,0.52v13.54c0,0.27-0.2,0.49-0.48,0.52
		c-2.81,0.23-4.76,1.11-5.49,2.47c-0.52,0.97-0.39,2.2,0.36,3.56c3.44,6.18,7.18,12.64,11.43,19.75c0.75,1.26,1.99,2,3.31,2
		c1.32,0,2.51-0.71,3.25-1.96c4.06-6.76,7.95-13.48,11.56-19.98c0.65-1.18,0.71-2.43,0.15-3.53c-0.59-1.17-1.83-1.98-3.31-2.17
		c-0.51-0.07-1.02-0.1-1.57-0.13l-0.52-0.03c-0.27-0.02-0.49-0.24-0.49-0.52V85.79c0-0.29,0.23-0.52,0.52-0.52
		c1.64,0,3.25,0.02,4.83,0.03c1.55,0.02,3.08,0.03,4.59,0.03c2.21,0,4.02-0.03,5.68-0.1c3.12-0.14,6.43-0.39,9.55-1.29
		c8.6-2.48,13.99-7.8,16.02-15.8C148.21,59.28,145.8,51.49,138.98,45.62z M62.94,97.06c0.09,0.15,0.09,0.34,0.01,0.5
		c-0.08,0.16-0.24,0.26-0.42,0.28c-5.31,0.47-6.17,1.37-6.14,6.43c0.01,4.26,0.01,8.53,0,12.91l0,6.66c0,0.29-0.23,0.52-0.52,0.52
		h-9.96c-0.29,0-0.52-0.23-0.52-0.52v-19.8c-0.01-4.93-0.64-5.63-5.64-6.23c-0.17-0.02-0.31-0.12-0.39-0.26
		c-0.08-0.14-0.09-0.32-0.02-0.47l0.23-0.51c0.18-0.42,0.36-0.82,0.58-1.2c2.96-5.16,5.94-10.33,9.05-15.74l1.3-2.25
		c0.09-0.16,0.26-0.26,0.45-0.26h0c0.18,0,0.35,0.1,0.45,0.26c2.96,5.06,5.8,9.9,8.68,14.81L62.94,97.06z M106.99,103.78
		c0.17,0.03,0.32,0.13,0.39,0.29c0.07,0.15,0.07,0.34-0.02,0.48l-11.19,19.6c-0.09,0.16-0.26,0.26-0.45,0.26
		c-0.18,0-0.35-0.1-0.45-0.26c-2.64-4.49-11.58-19.71-11.58-19.71c-0.09-0.15-0.09-0.34-0.01-0.5c0.08-0.16,0.23-0.26,0.41-0.28
		c0.88-0.08,1.37-0.14,1.92-0.19c2.94-0.29,4.05-1.59,4.08-4.81c0.04-4.14,0.03-8.29,0.02-12.44l-0.01-8.48
		c0-0.29,0.23-0.52,0.52-0.52h10.19c0.29,0,0.52,0.23,0.52,0.52v19.48C101.34,102.53,101.71,102.96,106.99,103.78z M126.46,81.4
		c-1.96,0.33-4.03,0.51-6.16,0.54c-2.13,0.03-4.26,0.04-6.39,0.04c0,0-8.57-0.02-8.57-0.02c-0.27,0-0.49-0.21-0.52-0.47
		c-0.67-7.76-0.83-7.9-8.46-7.9l-3.19-0.01c-0.53,0-1.06,0-1.59,0.01c-3.55,0.06-4.96,1.47-5.03,5.05
		c-0.02,0.59-0.05,1.17-0.08,1.82l-0.05,1.02c-0.01,0.28-0.24,0.5-0.52,0.5H68.53c-0.35,0-0.7-0.02-1.05-0.03
		c0,0-0.15-0.01-0.15-0.01c-0.33-0.02-0.67-0.03-1-0.03c-0.45,0-0.82,0.03-1.16,0.09c-0.87,0.15-1.69,0.22-2.44,0.22
		c-3.94,0-6.62-1.96-8.42-6.16c-0.65-1.52-1.96-2.46-3.41-2.46c-1.44,0-2.67,0.89-3.29,2.38c-1.81,4.34-4.53,6.19-9.1,6.19
		c-0.62,0-1.27-0.03-1.98-0.1c-2.11-0.2-4.28-0.23-6.31-0.23l-2.81,0.01c-2.63,0-4.83-0.05-7.05-0.3
		c-8.27-0.93-15.37-8.18-16.18-16.51c-0.92-9.67,4.05-17.88,12.66-20.92c4.73-1.68,4.73-1.68,3.28-6.41
		c-3.24-10.58,1.01-22.6,10.35-29.22c4.36-3.09,9.8-4.79,15.33-4.79c5.69,0,11.25,1.79,15.67,5.04c0.5,0.37,1,0.76,1.49,1.16
		c1.18,0.97,1.93,1.56,2.44,1.56c0.51,0,1.17-0.65,2.28-1.79c3.85-3.95,8.91-6.13,14.23-6.13c3.96,0,7.82,1.22,11.17,3.52
		c3.55,2.43,6.11,5.92,7.62,10.35c0.66,1.96,1.08,2.33,1.62,2.33c0.46,0,1.14-0.26,2.26-0.87c2.2-1.2,4.67-1.83,7.13-1.83
		c3.95,0,7.7,1.64,10.3,4.49c4.51,4.97,4.89,11.95,0.97,17.78c-0.87,1.3-1.19,2.23-0.94,2.75c0.25,0.53,1.19,0.86,2.79,0.99
		c10.24,0.82,18.05,8.56,18.57,18.41C143.9,71.26,136.78,79.65,126.46,81.4z"/>
	<path class="st1" d="M108.98,29.86c-1.79-0.02-3.59-0.03-5.38-0.03l-7.89,0.01l-7.89-0.01c-1.79,0-3.59,0.01-5.38,0.03
		c-3.44,0.04-5.07,1.55-5.11,4.75c-0.13,8.99-0.13,18.1,0,27.09c0.03,3.1,1.72,4.75,4.88,4.78c4.47,0.04,8.93,0.06,13.41,0.06
		c4.47,0,8.94-0.02,13.42-0.06c3.16-0.02,5-1.83,5.04-4.96c0.11-9.56,0.11-18.34,0-26.82C114.02,31.53,112.32,29.9,108.98,29.86z
		 M110.53,60.67c-0.03,0.41-0.07,0.81-0.08,1.16c0,0.81-1.66,1.26-2.22,1.26c-4.35,0.03-8.7,0.03-13.04,0.03h-0.62
		c-3.85,0-7.69,0-11.59,0.02c-2.06,0-2.37-1.25-2.39-2.6c-0.08-4,0.52-4.99,5.87-9.66c0.09-0.08,0.22-0.13,0.34-0.13l0.11,0.01
		c0.16,0.03,0.29,0.14,0.36,0.28c0.99,2.09,1.89,4,2.98,6.33l10.17-11.15c0.1-0.11,0.24-0.17,0.39-0.17c0.15,0,0.28,0.07,0.38,0.17
		c0.88,1,1.76,1.96,2.66,2.94c2.21,2.42,4.3,4.7,6.15,7.24C110.8,57.49,110.66,59.1,110.53,60.67z M110.64,45.48l0.01,4.01
		c0,0.23-0.14,0.42-0.35,0.49c-0.14,0.05-0.28,0.1-0.54,0.21c-0.03,0.01-0.16,0.04-0.2,0.04c-0.15,0-0.29-0.06-0.39-0.18
		c0,0-5.68-6.48-6.25-7.13c-0.89-0.99-1.53-1.43-2.07-1.43c-0.55,0-1.2,0.45-2.12,1.46l-6.43,7.11c-0.1,0.11-0.24,0.17-0.38,0.17
		c-0.11,0-0.21-0.03-0.3-0.1c-0.63-0.45-1.22-0.98-1.82-1.51c-1.18-1.04-2.3-2.03-3.28-2.03c-0.96,0.03-2.03,1.08-3.16,2.2
		c-0.53,0.53-1.08,1.07-1.65,1.53c-0.09,0.07-0.21,0.12-0.33,0.12c-0.04,0-0.19-0.03-0.22-0.05c-0.18-0.09-0.3-0.27-0.3-0.47V33.65
		c0-0.29,0.23-0.52,0.52-0.52l17.37,0.01c3.08,0,6.16-0.01,9.24-0.02c0.83,0,1.62,0.05,2.15,0.59c0.38,0.38,0.56,0.96,0.54,1.75
		C110.62,38.78,110.63,42.17,110.64,45.48z"/>
	<path class="st1" d="M64.23,29.86c-1.8-0.02-3.6-0.03-5.39-0.03l-7.9,0.01l-8.67-0.01c-1.44,0-2.89,0-4.33,0.01
		c-3.77,0.04-5.39,1.63-5.41,5.34c-0.08,8.64-0.08,17.39,0,26.03c0.02,3.48,1.79,5.26,5.26,5.28c4.39,0.03,8.77,0.05,13.16,0.05
		c4.38,0,8.77-0.02,13.15-0.05c3.47-0.02,5.18-1.66,5.23-5.01c0.12-9.05,0.11-18.07-0.01-26.82C69.26,31.42,67.64,29.9,64.23,29.86z
		 M65.88,60.95c0,0.84-1.31,2.11-2.2,2.13c-4.12,0.05-8.24,0.07-12.35,0.07c-4.39,0-8.79-0.03-13.19-0.07
		c-0.78-0.02-2.1-1.14-2.1-1.97c-0.07-7.47-0.07-15.01-0.07-22.31l0-5.13c0-0.29,0.23-0.52,0.52-0.52l10.49-0.01
		c5.29,0,10.99,0.01,16.8,0.09c0.83,0.02,2.08,1.33,2.1,2.19C65.98,43.89,65.98,52.48,65.88,60.95z"/>
	<path class="st1" d="M91.22,37.38c-0.07,0-0.15,0-0.23,0.01c-0.93,0.05-1.7,0.41-2.12,0.99c-0.33,0.46-0.42,1.03-0.26,1.65
		c0.28,1.04,1.64,2.37,2.59,2.54c0.13,0.02,0.26,0.03,0.39,0.03c1.18,0,2.02-1.07,2.09-2.63C93.5,38.25,92.67,37.38,91.22,37.38z"/>
	<path class="st1" d="M57.92,46.63c-4.08-2.51-8.16-4.88-12.11-7.04c-0.47-0.25-0.9-0.38-1.28-0.38c-0.92,0-1.48,0.78-1.53,2.14
		c-0.06,1.54-0.05,3.12-0.04,4.65c0.01,0.65,0.01,1.3,0.01,1.95c0,0.68-0.01,1.35-0.01,2.04c-0.01,1.59-0.03,3.23,0.04,4.84
		c0.05,1.33,0.63,2.16,1.5,2.16c0.32,0,0.66-0.1,1.03-0.3c4.42-2.39,8.47-4.71,12.39-7.11c0.68-0.41,1.06-0.94,1.06-1.47
		C58.97,47.58,58.6,47.05,57.92,46.63z M53.01,48.53l-5.78,3.46c-0.08,0.05-0.17,0.07-0.27,0.07c-0.09,0-0.18-0.02-0.26-0.07
		c-0.16-0.09-0.26-0.26-0.26-0.45v-6.68c0-0.18,0.1-0.35,0.26-0.45c0.08-0.04,0.17-0.07,0.26-0.07c0.09,0,0.17,0.02,0.25,0.07
		c1.93,1.08,3.63,2.02,5.78,3.21c0.16,0.09,0.26,0.26,0.27,0.45C53.27,48.26,53.17,48.43,53.01,48.53z"/>
</g>
</svg>
