<svg width="63" height="29" viewBox="0 0 63 29" fill="none" xmlns="http://www.w3.org/2000/svg">
<path d="M15.873 28.1304H56.9035V16.7766L49.1089 12.3068L47.7643 11.7256L15.873 11.9445V28.1304Z" fill="white"/>
<path d="M42.7107 26.622C43.0924 25.3142 42.9471 24.1149 42.3116 23.2236C41.7304 22.406 40.7481 21.9333 39.5681 21.879L17.1997 21.5884C17.0544 21.5884 16.9284 21.5148 16.8548 21.4063C16.7812 21.2978 16.7638 21.1544 16.8006 21.0071C16.8742 20.7882 17.0912 20.6254 17.3276 20.608L39.8956 20.3174C42.5693 20.1895 45.4756 18.0273 46.4908 15.3768L47.7812 12.0152C47.838 11.8772 47.8515 11.7251 47.8199 11.5793C46.3668 5.00145 40.4962 0.0957031 33.4824 0.0957031C27.0112 0.0957031 21.5281 4.27489 19.5634 10.0738C18.2905 9.12832 16.6572 8.6207 14.9289 8.78345C11.8212 9.09345 9.31019 11.5812 9.02345 14.6889C8.94814 15.4618 9.00316 16.2419 9.1862 16.9965C6.74137 17.0627 4.41914 18.0814 2.71472 19.8354C1.01031 21.5894 0.0585843 23.9399 0.0625121 26.3856C0.0625121 26.839 0.101262 27.2963 0.153575 27.7477C0.192325 27.9666 0.372512 28.1294 0.589512 28.1294H41.8737C41.9925 28.1271 42.1075 28.0872 42.2022 28.0155C42.2968 27.9438 42.3664 27.8439 42.4007 27.7303L42.7107 26.622Z" fill="#F38020"/>
<path d="M49.8333 12.249L49.2133 12.2684C49.068 12.2684 48.9421 12.3769 48.8839 12.5203L48.0121 15.5544C47.6304 16.8622 47.7757 18.0615 48.4112 18.9528C48.9924 19.7704 49.9747 20.2431 51.1547 20.2974L55.9151 20.588C56.0604 20.588 56.1864 20.6616 56.26 20.7701C56.3336 20.8786 56.3511 21.0414 56.3142 21.1693C56.2406 21.3882 56.0236 21.551 55.7872 21.5684L50.8272 21.859C48.138 21.9869 45.2472 24.1491 44.232 26.7996L43.8677 27.7258C43.7941 27.9079 43.922 28.09 44.1196 28.09H61.1638C61.2625 28.0914 61.3588 28.06 61.4377 28.0007C61.5166 27.9415 61.5736 27.8577 61.5997 27.7626C61.9018 26.6879 62.0575 25.5774 62.0628 24.4611C62.0536 21.2222 60.7615 18.119 58.4695 15.8306C56.1775 13.5422 53.0722 12.2531 49.8333 12.249Z" fill="#FAAE40"/>
</svg>
