<svg width="65" height="38" viewBox="0 0 65 38" fill="none" xmlns="http://www.w3.org/2000/svg">
<path d="M64.5625 36.7153C62.2345 37.3073 60.7945 36.7413 59.5025 34.8013L50.3145 22.0893L48.9865 20.3293L38.2565 34.8433C37.0305 36.5893 35.7445 37.3493 33.4565 36.7313L47.1965 18.2873L34.4045 1.62726C36.6045 1.19926 38.1245 1.41726 39.4745 3.38726L49.0045 16.2573L58.6045 3.45726C59.8345 1.71126 61.1565 1.04726 63.3645 1.69126L58.4045 8.26726L51.6845 17.0173C50.8845 18.0173 50.9945 18.7013 51.7305 19.6673L64.5625 36.7153ZM0.5785 17.9793L1.7025 12.4513C4.7625 1.51126 17.3025 -3.03474 25.9505 3.72526C31.0045 7.70126 32.2605 13.3253 32.0105 19.6253H3.5225C3.0945 30.9653 11.2565 37.8093 21.6625 34.3173C25.3125 33.0913 27.4625 30.2333 28.5385 26.6573C29.0845 24.8653 29.9885 24.5853 31.6725 25.0973C30.8125 29.5693 28.8725 33.3053 24.7725 35.6433C18.6465 39.1433 9.9025 38.0113 5.3025 33.1473C2.5625 30.3253 1.4305 26.7493 0.9225 22.9253C0.8425 22.2933 0.6825 21.6913 0.5625 21.0853C0.573167 20.0506 0.5785 19.0159 0.5785 17.9813V17.9793ZM3.5745 17.2193H29.3185C29.1505 9.01926 24.0445 3.19526 17.0665 3.14526C9.4065 3.08526 3.9065 8.77126 3.5745 17.2193Z" fill="white"/>
</svg>
