<svg width="60" height="64" viewBox="0 0 60 64" fill="none" xmlns="http://www.w3.org/2000/svg">
<path d="M32.4578 0.682793C30.8354 -0.229642 28.7202 -0.225551 27.0964 0.682793C18.9638 5.17091 10.8311 9.66038 2.69698 14.1464C1.11419 14.9791 0.0466488 16.6788 0.0636774 18.443V45.5607C0.0522488 47.3594 1.17483 49.0755 2.79844 49.8967C5.13481 51.1397 7.40473 52.5088 9.78334 53.6691C12.5309 55.0192 15.9685 55.3178 18.7497 53.9098C21.0073 52.7429 22.01 50.1475 22.007 47.7623C22.0253 38.8128 22.01 29.8631 22.0141 20.9134C22.0678 20.5157 21.7691 20.0905 21.3353 20.1001C20.2959 20.0837 19.2553 20.0905 18.2159 20.0974C17.8233 20.0604 17.4399 20.3865 17.4697 20.7813C17.4557 29.6732 17.4724 38.5678 17.4612 47.4611C17.4838 48.6912 16.6527 49.8734 15.4672 50.289C12.7291 51.2487 4.91372 46.1742 4.91372 46.1742C4.6269 46.0414 4.44478 45.7303 4.47289 45.4213C4.47289 36.4745 4.47429 27.5276 4.47289 18.5822C4.43346 18.2215 4.65575 17.8967 4.98695 17.7495C13.0928 13.2878 21.1945 8.81496 29.3003 4.35054C29.5819 4.16264 29.9743 4.16321 30.2553 4.35192C38.3611 8.81496 46.4642 13.2837 54.5714 17.7456C54.9037 17.8926 55.1165 18.2229 55.0827 18.5822C55.0813 27.5276 55.0855 36.4745 55.08 45.4201C55.104 45.7367 54.9403 46.0435 54.6448 46.1824C46.6146 50.6199 38.493 54.9143 30.5355 59.4807C30.1883 59.6798 29.7949 59.9054 29.4059 59.686C27.3133 58.5285 25.2461 57.326 23.1604 56.1573C22.9337 56.0158 22.645 55.955 22.4084 56.1134C21.4733 56.6062 20.5938 57.0053 19.5199 57.4304C18.0118 58.0275 18.2527 58.2716 19.613 59.064C22.0521 60.4444 24.4953 61.8192 26.9343 63.201C28.5401 64.203 30.6976 64.2743 32.3549 63.3484C40.4889 58.8659 48.6203 54.3781 56.7559 49.8956C58.3751 49.0698 59.5033 47.3605 59.4919 45.5605V18.443C59.5076 16.7146 58.4809 15.0452 56.9458 14.2002C48.7849 9.69023 40.6201 5.19004 32.4578 0.682793Z" fill="#8CC84B"/>
<path d="M44.7312 21.0429C41.5387 19.335 37.7408 19.2441 34.1931 19.4674C31.6301 19.7206 28.9346 20.4278 27.0674 22.2651C25.1522 24.112 24.7353 27.0944 25.645 29.5053C26.2969 31.2091 27.9378 32.317 29.6347 32.9031C31.8205 33.6747 34.1163 33.9133 36.4128 34.152C38.5074 34.3696 40.6027 34.5874 42.616 35.2098C43.4384 35.4823 44.3961 35.8992 44.648 36.794C44.8807 37.8537 44.6256 39.0855 43.7652 39.8217C41.0324 41.9847 33.4306 41.6532 30.7305 39.9508C29.6388 39.2256 29.1684 37.9417 28.9771 36.7181C28.9558 36.3369 28.6489 35.9872 28.2349 36.0162C27.1984 36.0039 26.1618 36.0066 25.1252 36.0148C24.7636 35.9844 24.3876 36.2418 24.3677 36.6109C24.1547 42.2148 29.3014 44.6578 34.13 45.1956C36.8886 45.4585 39.7078 45.4434 42.4244 44.8514C44.4665 44.3865 46.514 43.5303 47.9197 41.9575C49.6532 40.0459 49.994 37.2 49.2167 34.8189C48.6224 33.0423 46.9239 31.9026 45.1876 31.3163C42.8265 30.5067 40.0283 30.0715 37.8898 29.8678C34.7814 29.5718 31.0877 29.6928 30.208 27.6502C29.8571 26.5808 30.1556 25.2528 31.1385 24.5949C33.7389 22.831 39.0315 23.0653 41.7245 24.383C42.9611 25.0022 43.6777 26.274 43.9734 27.5579C44.0283 27.935 44.282 28.3286 44.7186 28.3122C45.7481 28.3328 46.7776 28.3177 47.8068 28.319C48.1604 28.3437 48.5476 28.1442 48.6167 27.7821C48.573 25.0987 47.2027 22.3517 44.7312 21.0429Z" fill="#8CC84B"/>
</svg>
