<?xml version="1.0" encoding="utf-8"?>
<!-- Generator: Adobe Illustrator 25.0.0, SVG Export Plug-In . SVG Version: 6.00 Build 0)  -->
<svg version="1.1" id="Layer_1" xmlns="http://www.w3.org/2000/svg" xmlns:xlink="http://www.w3.org/1999/xlink" x="0px" y="0px"
	 viewBox="0 0 113.43 113.43" style="enable-background:new 0 0 113.43 113.43;" xml:space="preserve">
<style type="text/css">
	.st0{fill:#001135;}
	.st1{fill:#FFFFFF;}
	.st2{fill:#3C7CFF;}
	.st3{fill:#185AE9;}
	.st4{fill:#00B0FB;}
	.st5{fill-rule:evenodd;clip-rule:evenodd;fill:#00B0FB;}
	.st6{fill:#061639;}
	.st7{fill:#1429FF;}
	.st8{fill:#663398;}
	.st9{fill:#FEFEFE;}
	.st10{fill:#8DB849;}
	.st11{fill:#5A863E;}
	.st12{fill:#FFFFFE;}
	.st13{fill-rule:evenodd;clip-rule:evenodd;fill:#7FC728;}
	.st14{fill:#B3B3B3;}
	.st15{fill:#A6120D;}
	.st16{fill:#DD1B16;}
	.st17{fill:#F2F2F2;}
	.st18{fill:#8F9ED1;}
	.st19{fill:#030303;}
	.st20{fill:#0E0E0D;}
	.st21{fill:#8F8F90;}
	.st22{fill:#DBDBDB;}
	.st23{fill:#FDFDFD;}
	.st24{fill:#FDFCFD;}
	.st25{fill:#010101;}
	.st26{fill:#FCB415;}
	.st27{opacity:0.2;fill:#FFFFFF;enable-background:new    ;}
	.st28{fill:#68B345;}
	.st29{fill:#0A99D6;}
	.st30{opacity:0.1;fill:#010101;enable-background:new    ;}
	.st31{fill:#EE3325;}
	.st32{fill:url(#SVGID_1_);}
	.st33{fill:#FF2D20;}
	.st34{clip-path:url(#SVGID_2_);fill:#F9C638;}
	.st35{fill:#2A2D2C;}
	.st36{fill:#F9C638;}
	.st37{fill:#833CF7;}
	.st38{fill:none;}
	.st39{fill:#0A0A0A;}
	.st40{fill:#050505;}
	.st41{fill:#2A2A2A;}
	.st42{fill:#000100;}
	.st43{fill:#FBFBFB;}
	.st44{fill:#070707;}
	.st45{fill:#080808;}
	.st46{fill:#F7F7F7;}
	.st47{fill:#0B0B0B;}
	.st48{fill:#F1F0F1;}
	.st49{fill:#F4F4F4;}
	.st50{fill:#0C0C0C;}
	.st51{fill:#ECECEC;}
	.st52{fill:#252525;}
	.st53{fill:#D5D5D5;}
	.st54{fill:#3F3F3F;}
	.st55{fill:#818181;}
	.st56{fill:#A2A2A2;}
	.st57{fill:#040404;}
	.st58{fill:#151515;}
	.st59{fill:#343434;}
	.st60{fill:#4B4B4B;}
	.st61{fill:#0D0D0D;}
	.st62{fill:#00D8FF;}
	.st63{fill:#4DBA87;}
	.st64{fill:#425466;}
	.st65{fill:url(#SVGID_3_);}
	.st66{fill:url(#SVGID_4_);}
	.st67{fill:#14559A;}
	.st68{fill:url(#SVGID_6_);}
	.st69{fill:#3092C4;}
	.st70{fill:#1969BC;}
	.st71{fill:url(#SVGID_7_);}
	.st72{fill:url(#SVGID_8_);}
	.st73{fill:url(#SVGID_9_);}
	.st74{fill:#2B74B1;}
	.st75{fill:#125A9E;}
	.st76{fill:url(#SVGID_10_);}
	.st77{fill:url(#SVGID_11_);}
	.st78{fill:#0D82CA;}
	.st79{fill:url(#SVGID_12_);}
	.st80{fill:#127BCA;}
	.st81{fill:url(#SVGID_13_);}
	.st82{fill:url(#SVGID_14_);}
	.st83{fill:#05A1E6;}
	.st84{fill:url(#SVGID_15_);}
	.st85{fill:url(#SVGID_16_);}
	.st86{fill:url(#SVGID_17_);}
	.st87{fill:#079AE1;}
	.st88{fill:#1E5CB3;}
	.st89{fill:#1D60B5;}
	.st90{fill:#175FAB;}
	.st91{fill:url(#SVGID_18_);}
	.st92{fill:#7DCBEC;}
	.st93{fill:#5EC5ED;}
	.st94{fill:url(#SVGID_19_);}
	.st95{fill:url(#SVGID_20_);}
	.st96{fill:url(#SVGID_21_);}
	.st97{fill:#6EB341;}
	.st98{fill:#F6F6F6;}
	.st99{fill:#060606;}
	.st100{fill:#101010;}
</style>
<g>
	<path class="st0" d="M66.2,89.36c2.03-3.02,2.06-7.3,0.07-9.74c-0.06-0.07-0.14-0.11-0.23-0.11c-0.04,0-0.08,0.01-0.11,0.02
		c-2.84,1.14-6.01,1.74-9.17,1.74c-4.92,0-14.2-1.5-21.08-11.58c-0.06-0.08-0.15-0.13-0.25-0.13c-0.04,0-0.09,0.01-0.13,0.03
		c-2.11,0.98-4.19,1.48-6.17,1.48c-2.19,0-4.33-0.6-6.38-1.79c-3.69-2.15-5.97-5.61-6.95-10.6c-0.03-0.14-0.15-0.24-0.29-0.24h0
		c-3.99,0.01-7.81,0.01-11.89,0.01c-0.17,0-0.3,0.13-0.3,0.3v40.34c0,7.01,4.04,11.03,11.08,11.03l12.74,0l27.61,0
		c0.17,0,0.3-0.13,0.3-0.3V97.3c0-2.56,0.29-2.88,2.82-3.09C61.44,93.92,64.24,92.29,66.2,89.36z"/>
	<path class="st2" d="M109.79,58.37H97.14c-2.41,0-2.74-0.31-2.94-2.77c-0.29-3.63-1.96-6.47-4.97-8.44
		c-1.43-0.94-3.21-1.46-4.99-1.46c-1.77,0-3.41,0.51-4.61,1.43c-0.1,0.08-0.14,0.22-0.1,0.35c3.61,9.35,1.97,22.32-9.84,30.25
		c-0.12,0.08-0.17,0.24-0.1,0.38c2.07,4.41,1.98,8.63-0.29,12.54c-2.16,3.73-5.61,6-10.56,6.96c-0.14,0.03-0.24,0.15-0.24,0.29
		v11.92c0,0.17,0.13,0.3,0.3,0.3l27.57,0c4.29,0,8.57,0,12.86,0c6.81-0.01,10.87-4.08,10.87-10.88c0.01-8.57,0-17.14,0-25.71
		l0-14.86C110.09,58.51,109.96,58.37,109.79,58.37z"/>
	<path class="st1" d="M35.49,56.65c-0.02,5.73,2.17,11.09,6.15,15.08c3.99,4,9.34,6.2,15.08,6.2c11.92-0.02,21.21-9.34,21.21-21.22
		c0-11.88-9.31-21.2-21.19-21.21c0,0-0.02,0-0.02,0C44.85,35.5,35.52,44.79,35.49,56.65z M46.14,50.98c1.31,0,2.6,0.53,3.62,1.5
		c0.86,0.82,1.69,1.72,2.48,2.6c0.33,0.37,0.67,0.73,1,1.09c0.06,0.06,0.13,0.09,0.21,0.09c0,0,0,0,0.01,0
		c0.08,0,0.15-0.03,0.21-0.09c1.19-1.16,2.34-2.3,3.47-3.42c2.24-2.21,4.35-4.3,6.52-6.37c1.04-1,2.35-1.55,3.67-1.55
		c2.18,0,4.05,1.44,4.77,3.66c0.58,1.8,0.16,3.46-1.25,4.91c-5.03,5.18-9.47,9.66-13.56,13.71c-1.03,1.02-2.26,1.57-3.56,1.57
		c-1.3,0-2.56-0.55-3.63-1.58c-2.58-2.48-5.1-5-7.49-7.5c-2.06-2.15-2.03-5.17,0.06-7.19C43.63,51.49,44.86,50.98,46.14,50.98z"/>
	<path class="st0" d="M98.64,3.33H60.92c-0.64-0.01-1.28-0.01-2.25-0.01c-0.17,0-0.3,0.13-0.3,0.3l0,4.38c0,2.83,0,5.6,0,8.38
		c-0.01,2.29-0.39,2.69-2.7,2.83c-2.86,0.17-5.34,1.35-7.37,3.49c-2.97,3.14-3.49,7.79-1.24,11.07c0.06,0.08,0.15,0.13,0.25,0.13
		c0.03,0,0.07-0.01,0.1-0.02c3.11-1.13,6.26-1.71,9.37-1.71c8.41,0,16.03,4.22,20.92,11.58c0.06,0.09,0.15,0.13,0.25,0.13
		c0.04,0,0.09-0.01,0.13-0.03c2.12-0.99,4.21-1.49,6.21-1.49c2.18,0,4.31,0.59,6.34,1.77c3.73,2.15,6.01,5.6,6.98,10.56
		c0.03,0.14,0.15,0.24,0.29,0.24h11.91c0.17,0,0.3-0.13,0.3-0.3V14.88C110.11,7.22,106.25,3.33,98.64,3.33z"/>
	<path class="st1" d="M49.47,61.79l2.75,2.76c0.48,0.48,0.98,0.73,1.48,0.73c0.52,0,1.03-0.25,1.54-0.78
		c2.14-2.17,4.29-4.33,6.43-6.5c2.17-2.19,4.34-4.37,6.5-6.56c0.29-0.29,0.51-0.65,0.67-0.92c0.05-0.08,0.09-0.15,0.13-0.21
		c0.03-0.05,0.05-0.11,0.05-0.17c-0.02-1.1-0.78-1.93-1.77-1.93c-0.31,0-0.61,0.08-0.89,0.24c-0.38,0.22-0.69,0.54-0.99,0.85
		l-0.24,0.25c-2.1,2.12-4.19,4.24-6.28,6.36l-3.16,3.2c-0.92,0.93-1.46,1.29-1.95,1.29c-0.49,0-1.05-0.37-2-1.31
		c-0.4-0.39-0.78-0.8-1.17-1.2c-0.91-0.95-1.86-1.92-2.9-2.77c-0.42-0.35-1.14-0.5-1.67-0.5c-0.27,0-0.65,0.04-0.93,0.22
		c-0.4,0.26-0.62,0.59-0.66,0.98c-0.07,0.66,0.42,1.3,0.83,1.71C46.65,58.96,48.06,60.37,49.47,61.79z"/>
	<path class="st2" d="M3.62,55.07l8.64,0c1.41,0,2.8,0,4.19,0c2.16,0.01,2.43,0.44,2.82,2.62c0.42,2.39,1.02,4.15,1.87,5.54
		c1.73,2.82,4.69,4.5,7.93,4.5c0,0,0,0,0,0c1.67,0,3.32-0.46,4.76-1.34c0.12-0.08,0.18-0.23,0.12-0.36
		c-2.18-5.64-2.39-11.31-0.6-16.87c1.78-5.55,5.3-10.04,10.47-13.36c0.13-0.08,0.17-0.25,0.11-0.39c-1.72-3.45-2.02-6.86-0.88-10.16
		c1.67-4.85,5.2-7.9,10.49-9.08c1.18-0.27,1.6-0.8,1.56-1.94c-0.06-1.15-0.04-2.32-0.03-3.45c0.01-0.5,0.01-1,0.01-1.5V3.61
		c0-0.17-0.13-0.3-0.3-0.3l-27.75,0l-12.93,0C7.45,3.33,3.32,7.49,3.32,14.17c-0.01,8.58,0,17.15,0,25.73l0,14.87
		C3.32,54.94,3.46,55.07,3.62,55.07z"/>
	<path class="st0" d="M112.54,8.71c-1.99-5.51-6.75-8.68-13.05-8.69c-7.03-0.01-14.06-0.01-21.08-0.01l-21.59,0L30.93,0
		C25.22,0,19.51,0,13.8,0.02C5.69,0.04,0.02,5.7,0.02,13.78c-0.03,28.49-0.03,57.37,0,85.86c0,8.11,5.66,13.77,13.77,13.77
		c14.31,0.01,28.62,0.02,42.93,0.02c14.31,0,28.62-0.01,42.93-0.02c8.1-0.01,13.76-5.66,13.77-13.75
		c0.02-33.45,0.01-60.74-0.03-85.86C113.38,11.98,113.09,10.22,112.54,8.71z M3.32,14.17c0-6.68,4.13-10.84,10.77-10.86l12.93,0
		l27.75,0c0.17,0,0.3,0.13,0.3,0.3v5.68c0,0.5-0.01,1-0.01,1.5c-0.01,1.13-0.02,2.3,0.03,3.45c0.04,1.15-0.38,1.68-1.56,1.94
		c-5.29,1.17-8.82,4.23-10.49,9.08c-1.14,3.29-0.85,6.71,0.88,10.16c0.07,0.14,0.02,0.3-0.11,0.39c-5.16,3.32-8.68,7.81-10.47,13.36
		c-1.78,5.56-1.58,11.23,0.6,16.87c0.05,0.14,0,0.29-0.12,0.36c-1.44,0.88-3.09,1.34-4.76,1.34c0,0,0,0,0,0
		c-3.24,0-6.2-1.68-7.93-4.5c-0.85-1.39-1.45-3.16-1.87-5.54c-0.39-2.19-0.65-2.61-2.82-2.62c-1.39,0-2.79,0-4.19,0l-8.64,0
		c-0.17,0-0.3-0.13-0.3-0.3l0-14.87C3.32,31.33,3.32,22.75,3.32,14.17z M56.72,35.5c0,0,0.02,0,0.02,0
		c11.88,0.01,21.19,9.33,21.19,21.21c0,11.88-9.29,21.2-21.21,21.22c-5.74,0-11.09-2.2-15.08-6.2c-3.98-3.99-6.17-9.35-6.15-15.08
		C35.52,44.79,44.85,35.5,56.72,35.5z M55.05,97.3v12.51c0,0.17-0.13,0.3-0.3,0.3l-27.61,0l-12.74,0c-7.04,0-11.08-4.02-11.08-11.03
		V58.74c0-0.17,0.13-0.3,0.3-0.3c4.08,0,7.9,0,11.89-0.01h0c0.14,0,0.27,0.1,0.29,0.24c0.98,4.99,3.25,8.45,6.95,10.6
		c2.05,1.19,4.19,1.79,6.38,1.79c1.99,0,4.06-0.5,6.17-1.48c0.04-0.02,0.08-0.03,0.13-0.03c0.1,0,0.19,0.05,0.25,0.13
		c6.88,10.07,16.16,11.58,21.08,11.58c3.16,0,6.34-0.6,9.17-1.74c0.04-0.01,0.07-0.02,0.11-0.02c0.09,0,0.17,0.04,0.23,0.11
		c1.99,2.44,1.96,6.71-0.07,9.74c-1.96,2.93-4.76,4.56-8.32,4.85C55.34,94.42,55.05,94.74,55.05,97.3z M110.09,99.24
		c0,6.8-4.06,10.87-10.87,10.88c-4.29,0-8.57,0-12.86,0l-27.57,0c-0.17,0-0.3-0.13-0.3-0.3V97.9c0-0.14,0.1-0.27,0.24-0.29
		c4.95-0.95,8.4-3.23,10.56-6.96c2.26-3.91,2.36-8.13,0.29-12.54c-0.06-0.13-0.02-0.29,0.1-0.38c11.8-7.93,13.45-20.91,9.84-30.25
		c-0.05-0.12-0.01-0.26,0.1-0.35c1.2-0.92,2.84-1.43,4.61-1.43c1.79,0,3.56,0.52,4.99,1.46c3.01,1.97,4.69,4.81,4.97,8.44
		c0.2,2.46,0.53,2.77,2.94,2.77h12.65c0.17,0,0.3,0.13,0.3,0.3l0,14.86C110.1,82.1,110.1,90.67,110.09,99.24z M110.11,54.64
		c0,0.17-0.13,0.3-0.3,0.3H97.9c-0.14,0-0.27-0.1-0.29-0.24c-0.96-4.95-3.25-8.41-6.98-10.56c-2.03-1.17-4.16-1.77-6.34-1.77
		c-2,0-4.09,0.5-6.21,1.49c-0.04,0.02-0.08,0.03-0.13,0.03c-0.1,0-0.19-0.05-0.25-0.13c-4.89-7.36-12.51-11.58-20.92-11.58
		c-3.11,0-6.27,0.58-9.37,1.71c-0.03,0.01-0.07,0.02-0.1,0.02c-0.1,0-0.19-0.05-0.25-0.13c-2.25-3.27-1.73-7.93,1.24-11.07
		c2.03-2.15,4.51-3.32,7.37-3.49c2.31-0.14,2.69-0.54,2.7-2.83c0.01-2.77,0-5.54,0-8.38l0-4.38c0-0.17,0.13-0.3,0.3-0.3
		c0.97,0,1.61,0,2.25,0.01h37.72c7.61,0,11.47,3.89,11.47,11.55V54.64z"/>
	<path class="st0" d="M42.62,59.59c2.4,2.5,4.92,5.03,7.49,7.5c1.07,1.03,2.33,1.58,3.63,1.58c1.3,0,2.53-0.54,3.56-1.57
		c4.09-4.05,8.52-8.53,13.56-13.71c1.41-1.45,1.83-3.1,1.25-4.91c-0.72-2.22-2.6-3.66-4.77-3.66c-1.33,0-2.63,0.55-3.67,1.55
		c-2.17,2.07-4.28,4.16-6.52,6.37c-1.13,1.12-2.28,2.25-3.47,3.42c-0.06,0.05-0.13,0.09-0.21,0.09c0,0,0,0-0.01,0
		c-0.08,0-0.16-0.04-0.21-0.09c-0.34-0.36-0.67-0.72-1-1.09c-0.8-0.87-1.62-1.78-2.48-2.6c-1.02-0.97-2.31-1.5-3.62-1.5
		c-1.28,0-2.51,0.51-3.46,1.43C40.59,54.42,40.56,57.44,42.62,59.59z M45.06,54.85c0.28-0.18,0.66-0.22,0.93-0.22
		c0.53,0,1.25,0.16,1.67,0.5c1.04,0.85,1.99,1.83,2.9,2.77c0.39,0.4,0.78,0.8,1.17,1.2c0.95,0.94,1.51,1.31,2,1.31
		c0.49,0,1.04-0.36,1.95-1.29l3.16-3.2c2.09-2.12,4.18-4.24,6.28-6.36l0.24-0.25c0.3-0.31,0.6-0.63,0.99-0.85
		c0.28-0.16,0.58-0.24,0.89-0.24c0.99,0,1.76,0.83,1.77,1.93c0,0.06-0.02,0.12-0.05,0.17c-0.04,0.06-0.08,0.13-0.13,0.21
		c-0.16,0.26-0.37,0.62-0.67,0.92c-2.16,2.19-4.33,4.38-6.5,6.56c-2.15,2.16-4.29,4.33-6.43,6.5c-0.51,0.52-1.02,0.78-1.54,0.78
		c-0.5,0-1-0.24-1.48-0.73l-2.75-2.76c-1.41-1.42-2.82-2.83-4.24-4.24c-0.42-0.42-0.9-1.06-0.83-1.71
		C44.44,55.44,44.66,55.11,45.06,54.85z"/>
</g>
</svg>
