<?xml version="1.0" encoding="utf-8"?>
<!-- Generator: Adobe Illustrator 25.0.0, SVG Export Plug-In . SVG Version: 6.00 Build 0)  -->
<svg version="1.1" id="Layer_1" xmlns="http://www.w3.org/2000/svg" xmlns:xlink="http://www.w3.org/1999/xlink" x="0px" y="0px"
	 viewBox="0 0 165.31 165" style="enable-background:new 0 0 165.31 165;" xml:space="preserve">
<style type="text/css">
	.st0{fill:#185AE9;}
	.st1{fill:#00B0FB;}
	.st2{fill:#00B0FB;fill-opacity:0.4;}
	.st3{fill:#FFFFFF;}
	.st4{fill:#00769D;}
	.st5{fill:#8DB849;}
	.st6{fill:#5A863E;}
	.st7{fill:#FFFFFE;}
	.st8{fill:#F26322;}
	.st9{fill:#009CDE;}
	.st10{fill-rule:evenodd;clip-rule:evenodd;fill:#7FC728;}
	.st11{fill:#00D8FF;}
	.st12{fill:#3C7CFF;}
	.st13{fill:#001135;}
	.st14{fill:#DBDBDB;}
	.st15{fill:#FDFDFD;}
	.st16{fill:#020202;}
	.st17{fill:#030303;}
	.st18{fill:#FBFBFB;}
	.st19{fill:#060606;}
	.st20{fill:#050505;}
	.st21{fill:#0A0A0A;}
	.st22{fill:#0E0E0E;}
	.st23{fill:#0D0D0D;}
	.st24{fill:#101010;}
	.st25{fill:#070707;}
	.st26{fill:#0C0C0C;}
	.st27{fill:#FCFCFC;}
	.st28{fill:#D2D3D3;}
	.st29{fill:#F6F6F6;}
	.st30{fill:#BABBBB;}
	.st31{fill:#8A8A8A;}
	.st32{fill:#8E8F8F;}
	.st33{fill:#5F5E5E;}
	.st34{fill:#FEFDFE;}
	.st35{fill-rule:evenodd;clip-rule:evenodd;fill:#00B0FB;}
	.st36{fill:none;}
</style>
<g>
	<path class="st1" d="M55,10.25c-3.34-0.16-6.01-1.33-8-3.11c-4.82,0.54-9.52,1.86-14,3.95C22,16.22,13.67,25.31,9.54,36.69
		C3.18,54.12,8,73.42,21.82,85.86c0.15,0.13,0.2,0.35,0.13,0.54l-4.47,12.33c-0.22,0.59-0.19,1.23,0.07,1.8l2.21,4.76
		c0.05,0.12,0.06,0.25,0.01,0.38c-0.04,0.12-0.14,0.22-0.26,0.28l-4.76,2.21c-0.57,0.26-1.01,0.74-1.22,1.34
		c-0.22,0.59-0.18,1.23,0.09,1.81l2.21,4.76c0.05,0.12,0.06,0.25,0.01,0.38c-0.04,0.12-0.13,0.22-0.25,0.28l-4.77,2.21
		c-0.57,0.26-1,0.74-1.22,1.33c-0.21,0.6-0.18,1.24,0.09,1.82l2.21,4.76c0.06,0.12,0.06,0.25,0.02,0.38
		c-0.05,0.12-0.14,0.22-0.26,0.28l-4.76,2.21c-0.58,0.26-1.03,0.74-1.23,1.32l-3.53,9.72c-0.19,0.52-0.19,1.09,0,1.61l5.88,16.31
		c2.06,0.31,3.83,1.03,5.3,2.05c0.24-0.01,0.48-0.03,0.73-0.03c0.36,0,0.7,0.03,1.04,0.05c-0.09-0.85-0.11-1.7-0.07-2.55l-1.27,0.74
		c-0.07,0.05-0.16,0.07-0.25,0.07c-0.06,0-0.11-0.01-0.17-0.03c-0.14-0.05-0.25-0.16-0.3-0.3l-6.08-16.86
		c-0.04-0.11-0.04-0.23,0-0.34l2.78-7.63c0.05-0.12,0.14-0.22,0.26-0.28l6.28-2.93c0.58-0.26,1.01-0.73,1.23-1.33
		c0.21-0.6,0.18-1.24-0.09-1.81l-2.21-4.76c-0.06-0.12-0.06-0.26-0.02-0.39c0.05-0.12,0.14-0.22,0.26-0.28l4.76-2.21
		c0.58-0.26,1.01-0.73,1.23-1.33c0.21-0.6,0.18-1.24-0.1-1.81l-2.2-4.76c-0.12-0.25-0.01-0.55,0.24-0.67l4.76-2.21
		c0.57-0.26,1.01-0.73,1.22-1.33c0.22-0.6,0.19-1.24-0.09-1.81l-2.92-6.28c-0.06-0.12-0.06-0.26-0.02-0.38l4.76-13.08
		c0.35-0.92,0.06-1.98-0.71-2.62C13.12,72.64,8.15,54.46,14.02,38.35c5.82-15.98,21.17-26.72,38.19-26.72
		c1.98,0,3.96,0.16,5.91,0.46c0.02-0.35,0.06-0.69,0.1-1.03C57.06,10.9,55.98,10.63,55,10.25z"/>
	<path class="st1" d="M145.4,49.31c-0.04-0.15-0.16-0.27-0.3-0.33l-36.81-14.02c-0.06-0.02-0.12-0.03-0.18-0.03
		c-0.15,0-0.3,0.07-0.4,0.2l-12.1,16c-0.07,0.09-0.1,0.2-0.1,0.31c0.09,5.67-0.82,11.17-2.69,16.33c-1.35,3.71-3.22,7.27-5.56,10.58
		c-0.09,0.12-0.11,0.28-0.07,0.43l11.1,38.71c0.04,0.13,0.12,0.24,0.24,0.3c0.07,0.04,0.16,0.06,0.24,0.06
		c0.05,0,0.09-0.01,0.14-0.02l13.79-3.96c0.27-0.08,0.42-0.35,0.34-0.62L102.77,77.4c-0.17-0.61-0.1-1.25,0.21-1.81
		c0.31-0.56,0.81-0.96,1.42-1.13l27.55-7.91c0.21-0.06,0.43-0.09,0.65-0.09c0.4,0,0.8,0.1,1.15,0.3c0.56,0.3,0.97,0.82,1.14,1.42
		l10.25,35.8c0.04,0.13,0.12,0.24,0.24,0.3c0.07,0.04,0.16,0.06,0.24,0.06c0.05,0,0.09-0.01,0.14-0.02l13.77-3.95
		c0.13-0.04,0.24-0.12,0.3-0.24c0.06-0.12,0.08-0.25,0.04-0.38L145.4,49.31z"/>
	<path class="st2" d="M69.47,11.22C78.21,15.3,85.31,22,90,30.59c0.08,0.15,0.23,0.25,0.4,0.26c0.01,0,0.02,0,0.04,0
		c0.16,0,0.3-0.07,0.4-0.2l7.88-10.41c1.54-2.01,3.96-3.22,6.49-3.22c0.54,0,1.08,0.06,1.61,0.16c0.03,0.01,0.07,0.01,0.1,0.01
		c0.16,0,0.32-0.08,0.42-0.22c0.11-0.17,0.11-0.39,0-0.56c-3.13-4.63-7.55-8.1-12.8-10.02c-2.9-1.07-5.94-1.61-9.04-1.61
		c-3.82,0-7.67,0.86-11.13,2.49c-0.06,0.03-0.11,0.07-0.15,0.11c-1.65,0.76-3.24,1.74-4.84,2.99c-0.14,0.11-0.21,0.28-0.19,0.45
		C69.21,11,69.32,11.15,69.47,11.22z"/>
	<path class="st2" d="M55.42,25.05c-1.51,0.72-2.65,1.97-3.21,3.52c-1.15,3.22,0.53,6.8,3.74,7.98c0.68,0.24,1.39,0.37,2.11,0.37
		c2.61,0,4.97-1.65,5.87-4.11c0.24-0.68,0.36-1.38,0.36-2.1c0-3.45-2.8-6.25-6.25-6.26C57.14,24.46,56.23,24.67,55.42,25.05z"/>
	<path class="st3" d="M165.22,101.16c-0.01-0.02-0.01-0.04-0.01-0.06l-14.04-48.94c-0.05-0.18,0.01-0.37,0.15-0.5
		c0.09-0.09,0.21-0.13,0.33-0.13c0.06,0,0.12,0.01,0.18,0.03l1.34,0.51c0.27,0.1,0.55,0.15,0.84,0.15c0.99,0,1.87-0.59,2.22-1.52
		l4.1-10.72c0.47-1.23-0.14-2.61-1.37-3.08l-44.3-16.86c-0.13-0.05-0.23-0.16-0.29-0.29c-3.28-8.32-9.93-14.82-18.25-17.86
		C92.7,0.64,89.12,0,85.48,0c-4.52,0-9.06,1.02-13.15,2.93c-3.11,1.47-5.95,3.43-8.44,5.82c-0.09,0.09-0.21,0.14-0.34,0.14
		c-0.05,0-0.1-0.01-0.15-0.02c-4.37-1.34-8.87-2.02-13.37-2.02c-6.59,0-13,1.42-19.04,4.23C20,16.22,11.67,25.31,7.54,36.69
		C1.18,54.12,6,73.42,19.82,85.86c0.15,0.13,0.2,0.35,0.13,0.54l-4.47,12.33c-0.22,0.59-0.19,1.23,0.07,1.8l2.21,4.76
		c0.05,0.12,0.06,0.25,0.01,0.38c-0.04,0.12-0.14,0.22-0.26,0.28l-4.76,2.21c-0.57,0.26-1.01,0.74-1.22,1.34
		c-0.22,0.59-0.18,1.23,0.09,1.81l2.21,4.76c0.05,0.12,0.06,0.25,0.01,0.38c-0.04,0.12-0.13,0.22-0.25,0.28l-4.77,2.21
		c-0.57,0.26-1,0.74-1.22,1.33c-0.21,0.6-0.18,1.24,0.09,1.82l2.21,4.76c0.06,0.12,0.06,0.25,0.02,0.38
		c-0.05,0.12-0.14,0.22-0.26,0.28l-4.76,2.21c-0.58,0.26-1.03,0.74-1.23,1.32l-3.53,9.72c-0.19,0.52-0.19,1.09,0,1.61l7.6,21.07
		c0.33,0.94,1.22,1.56,2.2,1.56c0.27,0,0.53-0.04,0.78-0.13c0.15-0.05,0.29-0.12,0.43-0.2l19.34-11.26c0.5-0.3,0.87-0.74,1.05-1.24
		l19.78-54.36c0.07-0.19,0.25-0.32,0.45-0.33c11.84-0.43,22.88-5.38,31.09-13.92c0.09-0.1,0.22-0.15,0.36-0.15
		c0.04,0,0.08,0,0.12,0.01c0.17,0.05,0.31,0.18,0.36,0.35l10.81,37.68c0.17,0.6,0.58,1.11,1.13,1.41c0.37,0.2,0.78,0.31,1.14,0.31
		c0.25,0,0.47-0.03,0.66-0.09l66.15-18.98c0.6-0.17,1.11-0.58,1.42-1.13C165.32,102.41,165.39,101.77,165.22,101.16z M154.61,40.35
		c0.13,0.05,0.23,0.14,0.28,0.26c0.05,0.12,0.06,0.26,0.01,0.39l-2.06,5.36c-0.08,0.19-0.27,0.32-0.47,0.32
		c-0.06,0-0.12-0.01-0.18-0.04l-44.21-16.83c-0.26-0.1-0.54-0.15-0.82-0.15c-0.74,0-1.45,0.35-1.9,0.93L95.51,43.5
		c-0.09,0.12-0.24,0.2-0.4,0.2c-0.03,0-0.07-0.01-0.11-0.02c-0.19-0.04-0.34-0.19-0.38-0.38c-0.51-2.51-1.15-4.75-1.92-6.84
		c-0.06-0.16-0.04-0.34,0.07-0.48l9.72-12.87c0.64-0.84,1.65-1.33,2.71-1.33c0.41,0,0.81,0.07,1.19,0.22L154.61,40.35z M69.38,10.37
		c1.61-1.24,3.19-2.22,4.84-2.98c0.04-0.05,0.1-0.09,0.15-0.11c3.46-1.63,7.31-2.49,11.13-2.49c3.1,0,6.14,0.54,9.04,1.61
		c5.25,1.92,9.68,5.39,12.8,10.02c0.12,0.17,0.12,0.39,0,0.56c-0.09,0.14-0.25,0.22-0.41,0.22c-0.04,0-0.07,0-0.1-0.01
		c-0.53-0.11-1.07-0.16-1.61-0.16c-2.53,0-4.96,1.2-6.5,3.22l-7.88,10.4c-0.1,0.13-0.24,0.2-0.4,0.2H90.4
		c-0.16-0.01-0.32-0.11-0.4-0.26C85.31,22,78.21,15.3,69.47,11.22c-0.16-0.07-0.26-0.22-0.28-0.4
		C69.17,10.65,69.24,10.48,69.38,10.37z M50.01,92.92h-0.14c-0.06,0-0.12-0.01-0.18-0.04c-0.99,0.1-1.77,0.67-2.1,1.55l-20.13,55.25
		c-0.04,0.11-0.11,0.2-0.22,0.26l-15.48,9c-0.07,0.05-0.16,0.07-0.25,0.07c-0.06,0-0.11-0.01-0.17-0.03
		c-0.14-0.05-0.25-0.16-0.3-0.3l-6.08-16.86c-0.04-0.11-0.04-0.23,0-0.34l2.78-7.63c0.05-0.12,0.14-0.22,0.26-0.28l6.28-2.93
		c0.58-0.26,1.01-0.73,1.23-1.33c0.21-0.6,0.18-1.24-0.09-1.81l-2.21-4.76c-0.06-0.12-0.06-0.26-0.02-0.39
		c0.05-0.12,0.14-0.22,0.26-0.28l4.76-2.21c0.58-0.26,1.01-0.73,1.23-1.33c0.21-0.6,0.18-1.24-0.1-1.81l-2.2-4.76
		c-0.12-0.25-0.01-0.55,0.24-0.67l4.76-2.21c0.57-0.26,1.01-0.73,1.22-1.33c0.22-0.6,0.19-1.24-0.09-1.81l-2.92-6.28
		c-0.06-0.12-0.06-0.26-0.02-0.38l4.76-13.08c0.35-0.92,0.06-1.98-0.71-2.62C11.12,72.64,6.15,54.46,12.02,38.35
		c5.82-15.98,21.17-26.72,38.19-26.72c3.18,0,6.35,0.38,9.44,1.12c0.16,0.04,0.29,0.15,0.35,0.3c0.06,0.16,0.04,0.33-0.05,0.47
		c-1.34,1.94-2.43,3.99-3.25,6.09c-0.06,0.16-0.21,0.28-0.38,0.31c-1.14,0.19-2.05,0.46-2.88,0.85c-2.65,1.23-4.66,3.43-5.68,6.2
		c-1.01,2.73-0.88,5.71,0.36,8.39c1.23,2.64,3.43,4.66,6.19,5.67c1.23,0.44,2.49,0.66,3.73,0.66c4.6,0,8.74-2.9,10.31-7.21
		c2.01-5.56-0.84-11.83-6.36-13.96c-0.13-0.05-0.23-0.15-0.28-0.28c-0.05-0.12-0.05-0.27,0.01-0.39c0.8-1.72,1.84-3.37,3.16-5.03
		c0.09-0.13,0.24-0.19,0.39-0.19c0.06,0,0.13,0.01,0.19,0.03c9.58,3.88,17.25,11.14,21.59,20.47c4.59,9.84,5.08,20.89,1.37,31.09
		C82.6,82.19,67.17,92.92,50.01,92.92z M64.3,30.72c0,0.71-0.13,1.42-0.37,2.1c-0.9,2.45-3.26,4.1-5.87,4.1
		c-0.72,0-1.43-0.12-2.11-0.37c-3.21-1.17-4.89-4.75-3.74-7.97c0.56-1.55,1.7-2.8,3.21-3.53c0.81-0.38,1.71-0.59,2.62-0.59
		C61.49,24.46,64.3,27.27,64.3,30.72z M140.27,105.95l-22.05,6.33c-0.05,0.02-0.09,0.02-0.14,0.02c-0.08,0-0.17-0.02-0.24-0.06
		c-0.12-0.06-0.2-0.17-0.24-0.3l-9.49-33.08c-0.08-0.27,0.08-0.55,0.34-0.62l22.05-6.34c0.04-0.01,0.09-0.02,0.14-0.02
		c0.08,0,0.16,0.02,0.24,0.06c0.12,0.07,0.2,0.18,0.24,0.3l9.49,33.09C140.68,105.6,140.53,105.87,140.27,105.95z M159.83,100.15
		c-0.06,0.11-0.17,0.2-0.3,0.24l-13.77,3.95c-0.05,0.01-0.09,0.02-0.14,0.02c-0.08,0-0.17-0.02-0.24-0.07
		c-0.12-0.06-0.2-0.17-0.24-0.3l-10.25-35.8c-0.17-0.6-0.59-1.12-1.14-1.42c-0.35-0.2-0.75-0.3-1.15-0.3
		c-0.22,0-0.44,0.03-0.65,0.08l-27.55,7.92c-0.61,0.17-1.11,0.57-1.42,1.13s-0.39,1.2-0.22,1.8l10.27,35.84
		c0.07,0.27-0.08,0.55-0.35,0.62l-13.79,3.96c-0.04,0.01-0.09,0.02-0.13,0.02c-0.09,0-0.17-0.02-0.25-0.07
		c-0.11-0.06-0.2-0.17-0.23-0.3l-11.1-38.7c-0.04-0.15-0.02-0.3,0.07-0.43c2.34-3.3,4.21-6.86,5.56-10.57
		c1.88-5.17,2.78-10.67,2.69-16.34c0-0.11,0.04-0.22,0.1-0.31l12.1-16c0.1-0.12,0.25-0.19,0.4-0.19c0.06,0,0.12,0.01,0.18,0.03
		l36.81,14.02c0.15,0.05,0.26,0.18,0.31,0.33l14.47,50.46C159.91,99.89,159.9,100.03,159.83,100.15z"/>
</g>
</svg>
