<?xml version="1.0" encoding="utf-8"?>
<!-- Generator: Adobe Illustrator 24.3.0, SVG Export Plug-In . SVG Version: 6.00 Build 0)  -->
<svg version="1.1" id="Layer_1" xmlns="http://www.w3.org/2000/svg" xmlns:xlink="http://www.w3.org/1999/xlink" x="0px" y="0px"
	 width="777.4px" height="464.8px" viewBox="0 0 777.4 464.8" style="enable-background:new 0 0 777.4 464.8;" xml:space="preserve"
	>
<style type="text/css">
	.st0{fill:#00B0FB;}
	.st1{fill:#00B0FB;fill-opacity:0.4;}
	.st2{fill:#FFFFFF;}
	.st3{fill:none;}
	.st4{fill:#001135;}
	.st5{fill:#3C7CFF;}
	.st6{fill:#3C7CFF;stroke:#001135;stroke-width:0.7602;stroke-miterlimit:10;}
	.st7{fill:#DBDBDB;}
	.st8{fill:#B9B9B9;}
	.st9{fill:#080808;}
	.st10{fill:#060606;}
	.st11{fill:#070707;}
	.st12{fill:#121212;}
	.st13{fill:#111111;}
	.st14{fill:#090909;}
	.st15{fill:#FDFDFD;}
	.st16{fill:#F9F9F9;}
	.st17{fill:#F3F2F3;}
	.st18{fill:#FAFAFA;}
	.st19{fill:#0A0A0A;}
	.st20{fill:#EEEEEE;}
	.st21{fill:#0D0D0D;}
	.st22{fill:#0C0C0C;}
	.st23{fill:#0E0E0E;}
	.st24{fill:#050505;}
	.st25{fill:#3A3A3A;}
	.st26{fill:#525252;}
	.st27{fill:#474747;}
	.st28{fill:#1E1E1E;}
	.st29{fill:#1D1D1D;}
	.st30{fill:#222222;}
	.st31{fill:#494949;}
	.st32{fill:#585858;}
	.st33{fill:#EDEDED;}
	.st34{fill:#F0F0F0;}
	.st35{fill:#EAEAEA;}
	.st36{fill:#EAE9EA;}
	.st37{fill:#040404;}
	.st38{fill:#F4F3F4;}
</style>
<g>
	<path d="M777.4,208.8c-0.2,5.3-1.9,10.2-3.9,15c-5.5,12.7-13.3,24-21.8,34.8c-15.3,19.7-32.5,37.6-50.7,54.7
		c-0.9,0.8-1.8,1.7-2.7,2.5c-0.7,0.6-1.4,1.3-2.1,1.9c-4.1,3.8-8.3,7.6-12.5,11.3c-0.3,0.2-0.5,0.5-0.8,0.7
		c-4.8,4.3-9.7,8.5-14.6,12.6c-0.6,0.5-1.2,1-1.7,1.5c-10.7,9-21.6,17.7-32.7,26.2c-1.2,0.9-2.4,1.9-3.7,2.8
		c-21.8,16.4-44.4,31.8-67.9,46c-21.9,13.3-44.4,25.5-68.2,35c-14,5.5-28.1,10.4-43.6,11c-2.2-0.2-4.6-0.2-6.9-0.5
		c-8.8-1.4-13.6-6.9-13.4-15.8c0-4.8,1.4-9.3,3.1-13.7c4.6-11.6,11.4-21.9,18.7-31.8c11.3-15.2,23.8-29.2,37-42.7c1-1,2-2,2.9-3
		c1.8-1.8,3.5-3.5,5.3-5.2c0,0,0.1-0.1,0.1-0.1c0.9-0.9,1.9-1.8,2.9-2.8c0.2-0.2,0.4-0.4,0.6-0.6c0,0,0,0,0,0
		c0.1-0.1,0.2-0.2,0.4-0.3c2.9-2.8,5.8-5.5,8.7-8.2c1-1,2.1-1.9,3.1-2.9c1.4-1.3,2.8-2.6,4.3-3.9c0.5-0.5,1.1-1,1.6-1.5
		c2.8-2.6,5.6-5.1,8.5-7.6c0.3-0.2,0.5-0.5,0.8-0.7c0.1-0.1,0.2-0.2,0.3-0.3c0.6-0.5,1.2-1,1.7-1.5c0.3-0.2,0.5-0.5,0.8-0.7
		c2.8-2.4,5.6-4.8,8.4-7.2c1.1-1,2.3-1.9,3.4-2.9c1.1-0.9,2.1-1.8,3.2-2.6c2.2-1.8,4.5-3.7,6.7-5.5c0,0,0,0,0,0
		c2.2-1.8,4.4-3.5,6.5-5.2c0.2-0.2,0.4-0.3,0.6-0.5c0.9-0.7,1.9-1.5,2.8-2.2c5.9-4.6,11.8-9.1,17.7-13.5c3.6-2.7,7.2-5.3,10.8-7.9
		c2.6-1.9,5.2-3.8,7.9-5.6c0.1-0.1,0.3-0.2,0.4-0.3c0.8-0.6,1.7-1.2,2.5-1.8c0.3-0.2,0.5-0.4,0.8-0.5c3.6-2.5,7.3-5,10.9-7.5
		c2.5-1.7,4.9-3.3,7.4-5c1-0.7,2-1.3,3-2c0.3-0.2,0.5-0.3,0.8-0.5c0.9-0.6,1.8-1.2,2.7-1.8c1.1-0.7,2.1-1.4,3.2-2
		c4.6-2.9,9.3-5.8,13.9-8.7c1.9-1.1,3.7-2.2,5.6-3.4c1.1-0.6,2.1-1.3,3.2-1.9c6.4-3.8,12.9-7.4,19.5-10.9c3.8-2,7.6-4,11.5-5.9
		c1-0.5,2-1,2.9-1.5c3-1.5,6-2.9,9.1-4.4v0c1.3-0.6,2.7-1.2,4-1.8c11.6-5.3,23.5-9.9,35.9-13.1c8.6-2.3,17.3-4,26.4-2.8
		C772.7,193.3,777.8,199.1,777.4,208.8z"/>
	<g>
		<path class="st10" d="M165,131.2c30.3,0,60.5,0,90.8,0c1.7,0,3.4,0,5.1,0.2c8,0.7,12.8,5.1,12.8,13.1c0.2,30.6,0.2,61.1-0.1,91.7
			c-0.1,9.3-4.7,13.9-13.9,15.2c-2.1,0.3-4.3,0.3-6.4,0.3c-61,0-121.9,0-182.9-0.1c-12.2,0-17.4-4.9-17.6-17.3
			c-0.3-15.5,0-31,0-46.5c0-12.8,0.1-25.6,0.1-38.4c0-12.3,5.8-18.3,18.3-18.4c21-0.2,42.1-0.1,63.1-0.2c10.2,0,20.5,0,30.7,0
			C165,131.1,165,131.2,165,131.2z"/>
		<path class="st7" d="M162.4,247.5c-30.4,0-60.9,0-91.3,0c-10.7,0-14.9-4.2-14.9-15.1c0.1-27.9,0.2-55.7,0.3-83.6
			c0-10,3.7-13.8,13.6-13.9c61.7-0.3,123.4-0.6,185.1-0.8c10.9,0,14.4,3.8,14.4,14.8c0,28.2,0.1,56.3,0.2,84.5
			c0,9.8-3.8,13.8-14,13.8c-14.6,0.1-29.3,0-43.9,0c-16.5,0-33,0-49.5,0C162.4,247.3,162.4,247.4,162.4,247.5z"/>
		<path class="st10" d="M68.2,214c0-11.2,6.3-17.7,17.2-17.5c2.9,0.1,3.5-1.9,4.6-3.6c7.2-10.5,18.1-13.9,28.4-8.6
			c4.7,2.4,8.1,6.2,10.2,11c0.9,2.2,2.3,3.4,4.4,4.2c3.4,1.3,6.8,3,10.3,4c3.1,0.9,4.4,2.5,4.6,5.7c0.5,9.3-0.3,18.4-7.5,25.2
			c-6.4,6.1-12.5,8.1-20.4,2.3c-3.2-2.4-6.7-2.7-10.4-2.8c-8.5-0.3-17,0.6-25.5-0.8C72.5,231.1,68.2,225.9,68.2,214z"/>
		<path class="st11" d="M244.7,206c0.3,0.9,0.7,1.4,0.6,1.9c-0.4,3.2,1,4.2,4.1,4c1.5-0.1,4.4-0.9,4.4,0.9c0,2.5-3,1.5-4.5,1.4
			c-2.9-0.3-3.9,1.2-4.4,4.1c-0.7-5.5-4.5-4.2-7.6-4.2c-12.2,0-24.4-0.1-36.7,0.1c-2.9,0-6.3-1.7-8.6,1.6c-1.6-1.2-3.4-1.7-5.5-1.7
			c-8.4,0.1-16.8,0.1-25.1,0c-1.5,0-3.1,0.6-4.6-1c1-1.7,2.7-1.2,4-1.2c8.7-0.1,17.3-0.1,26-0.1c3.4,0,6.2-4.1,3.8-6.3
			c-2.2-2-4.1-5.5-8.7-4.6c-8.6,1.8-17.3,2.9-26,4.3c-1.3,0.2-2.9,0.6-3.1-1.1c-0.2-1.4,1.5-1.4,2.6-1.6c8.7-1.5,17.3-2.9,26-4.3
			c1.9-0.3,3.1-0.8,4.1-2.9c2.7-5.7,9-6.1,12.5-0.8c1.1,1.7,2.1,2.2,4.1,1.9c7.3-1.1,14.7-1.7,21.9-2.9c4.5-0.8,8.1-3.9,11.8-6.5
			c0.9-0.6,0.4-1.6,0.5-2.4c0.4-2.5,1.5-4.6,3.5-6.2c3.1-2.4,6.2-2,8.9,0.3c2.6,2.1,3.3,5.2,1.6,8c-1.7,2.9-4.4,6.4-8,4.4
			c-4.7-2.5-7.7-0.6-10.9,1.9c-3.9,3-8.4,3.2-12.8,3.8c-5.6,0.7-11.3,1.6-16.9,1.9c-3.4,0.2-3.7,3.9-6.1,4.7
			c-3.4,1.1-2.7,3.6-2.9,6.1c-0.1,1.7,0.5,2.2,2.2,2.2c15.6,0,31.3,0,46.9-0.1C245.9,211.8,242.7,207.8,244.7,206z"/>
		<path class="st9" d="M174.4,157c-13.9,0-27.8,0-41.8,0c-1.3,0-2.6,0-3.8-0.2c-1-0.2-1.9-0.8-2-1.9c0-1.1,0.6-2,1.6-2.2
			c1.5-0.3,3.1-0.5,4.6-0.5c28.3-0.1,56.5-0.1,84.8-0.1c2,0,4.5-0.3,4.5,2.5c0,2.9-2.7,2.4-4.6,2.4C203.4,157,188.9,157,174.4,157
			C174.4,157,174.4,157,174.4,157z"/>
		<path class="st12" d="M173.6,166.3c-13.8,0-27.6,0-41.4,0c-0.7,0-1.4,0-2.1,0c-1.3-0.1-2.8-0.3-2.9-1.9c-0.1-1.7,1.5-1.8,2.7-2
			c1.3-0.1,2.6-0.1,3.8-0.1c27,0,54,0,81,0c2.2,0,5.9-0.9,5.9,2.2c0,2.8-3.6,1.8-5.7,1.8C201.2,166.4,187.4,166.4,173.6,166.3
			C173.6,166.3,173.6,166.3,173.6,166.3z"/>
		<path class="st9" d="M95.5,146.7c4.9,0,6,1.8,4.1,5.9c-1.5,3.1-3.2,6-3.1,9.6c0,1.6-0.7,2.9-2.2,3.2c-1.5,0.4-2.1-1-3-2
			c-1-1.2-1.2-3.8-3.5-2.8c-2.1,0.9-1.5,3.1-1.2,4.9c0.1,0.4,0.2,0.8,0.2,1.3c-0.1,2.3,1.5,5.3-1.6,6.4c-3.1,1-3.4-2.3-4.4-4.1
			c-1.9-3.4-3.4-1.6-4.5,0.4c-1.1,2.1-1.8,4.5-3.9,5.9c-0.8,0.6-1.6,1.2-2.6,0.2c-2.6-2.5-1.9-10,1.6-11.1c8.2-2.7,13.5-8.5,18.5-15
			C91.4,147.5,93.3,146.4,95.5,146.7z"/>
		<path class="st13" d="M260.2,227.4c-1.7,1.9-3.2,1.4-4.5,1.4c-31.7,0-63.4,0-95.1,0c-0.6,0-1.1,0-1.7,0c-0.8,0-2,0-2-1.1
			c0-1.3,1.2-1.3,2.2-1.4c0.6,0,1.1,0,1.7,0c32.3,0,64.5-0.4,96.8,0.7C258.2,226.9,258.9,227.1,260.2,227.4z"/>
		<path class="st11" d="M242.7,151.1c0.6,0,1.1-0.1,1.7,0c3,0.4,7.1-1.5,8.8,1.2c2.1,3.5,0.8,8,0.5,12c-0.1,1.5-1.1,2.2-2.6,2.2
			c-5.2,0-10.7,0.9-15.7-0.2c-6.8-1.6-2.1-7.8-3.2-11.8c-0.8-2.7,1-3.7,3.7-3.5C238.2,151.3,240.5,151.1,242.7,151.1z"/>
		<path class="st12" d="M71.4,159.4c-2.3,0.5-3.3-0.5-3.2-3.2c0.1-2.4-0.1-4.6,3.4-4.2c2.7,0.3,5.4,0.1,8.1,0.1c1,0,2.2-0.2,2.7,0.8
			c0.7,1.3-0.6,2-1.3,2.9C78.9,158.6,77.1,159.2,71.4,159.4z"/>
		<path class="st14" d="M244.3,201.1c-0.6-3.5-0.8-5.8,0-9.2C245.7,195.3,245.6,197.6,244.3,201.1z"/>
		<path class="st15" d="M125.5,198.5c-4.3,2.5-8.6,4.9-13.3,6.4c-1.8,0.6-2.4,1.5-2.4,3.3c0.2,5.8-0.2,11.6,1.5,17.3
			c0.8,2.6,0.6,3.8-2.7,3.7c-7.8-0.4-15.6-0.2-23.4-0.6c-6.9-0.3-10.4-3.2-12.5-9.6c-2-6.3-0.3-13.3,4.2-17.1
			c2.6-2.3,5.6-2.9,8.6-1.4c3.2,1.6,4.9,0.5,6.1-2.5c0.5-1.2,1.3-2.2,2-3.3c8-11.6,20.3-11.8,28.8-0.5
			C123.6,195.6,124.5,197,125.5,198.5z"/>
		<path class="st16" d="M112.2,212.4c-0.9-3.1,0-5.3,3.7-5.8c0.8-0.1,1.7-0.4,2.4-0.8c7.6-4.9,15-3,22.3,0.7c1.8,0.9,3,1.9,3.4,3.9
			c1.6,9.3-4.1,20.8-12.4,25.1c-2.2,1.2-4.1,1.1-6.4-0.1C116,230.5,112.7,222.3,112.2,212.4z"/>
		<path class="st17" d="M195.4,197.9c-0.3,2.1-1.6,3.1-3.5,3.1c-2-0.1-3.2-1.2-3.2-3.2c0-1.9,1.1-3.3,3.2-3.2
			C194,194.5,195.2,195.7,195.4,197.9z"/>
		<path class="st18" d="M243.3,164c-0.7,0-1.4,0-2.1,0c-6.3,0-7.8-1.9-6.3-8.1c0.4-1.7,1.5-1.9,2.8-1.9c2.8-0.1,5.6-0.2,8.5-0.2
			c5.3,0,5.2,0.2,5.4,5.5c0.1,3.7-1.1,5.3-4.8,4.7C245.6,163.8,244.5,163.9,243.3,164C243.3,163.9,243.3,164,243.3,164z"/>
		<path class="st9" d="M140,214.3c0,3-0.9,5.8-2.1,8.6c-2,4.5-5.3,9.3-9.7,8.9c-4.6-0.4-8.4-5-10.2-9.9c-1.1-3-1.2-6.3-1.8-9.5
			c-0.3-1.6,0.8-1.8,1.9-2.3c3.1-1.3,6.3-2.6,9.4-3.8C132,204.7,140,209.9,140,214.3z"/>
	</g>
	<g>
		<path class="st19" d="M684.4,328.4c-0.2,0.2-0.4,0.3-0.6,0.5c-0.3,0.2-0.5,0.5-0.8,0.7c-0.9,0.8-1.8,1.5-2.6,2.3
			c-4,3.5-8,6.9-12,10.3c-0.6,0.5-1.2,1-1.7,1.5c-4.7,3.9-9.4,7.8-14.1,11.6c-1.2,1-2.4,2-3.7,2.9c-0.5-0.5-0.8-1.1-1.1-1.6
			c-0.5,1.3-1.1,2.5-1.6,3.8c-2.5,2-5.1,4-7.6,5.9c-1.5,1.2-3.1,2.4-4.6,3.5c-1.2,0.9-2.4,1.8-3.7,2.8c-5,3.8-10.1,7.5-15.2,11.2
			c-4.5,3.2-9.1,6.4-13.7,9.6c-0.8-0.1-1.6-0.2-2.5-0.5c-0.3-0.1-0.7-0.1-1-0.1c-0.6,0-1.4,0.2-2.5,0.7l-0.6,0.3
			c-3.2,1.5-6.8,3.2-11,3.6c-0.7,0.1-1.3,0.1-1.9,0.1c-4.7,0-8.7-2.2-11.5-6.2c-1-1.5-1.1-3.5-0.1-5c0.1-0.2,0.3-0.5,0.5-0.7
			c0.1-0.1,0.2-0.2,0.3-0.3c0.1-0.1,0.2-0.2,0.3-0.3c-3.7-1.1-7.4-2.2-11.1-3.2c0.6,0.9,1.2,1.9,1.8,3.1c1,2.2,2.5,4.3,4.1,6.5
			c0.7,1,1.5,2.1,2.3,3.2c3.6,5.4,7.7,9.5,12.5,12.5c-4.1,2.6-8.2,5.3-12.4,7.8c-5.6-3.8-10.6-8.8-15-15.3c-0.7-1-1.4-2-2.1-3
			c-3.4-5-7-10.1-10-16.2c-0.6-1.3-0.6-2.8,0-4c-1.9-0.5-3.8-1.1-5.7-1.7l-12.2-3.5c-1.4-0.4-2.7-0.8-4.1-1.2
			c-2.8-0.8-5.8-1.6-8.6-2.5c-2.3-0.7-4.2-1.2-6-1.2c-1.2,0-2.4,0.2-3.5,0.7c-1.9,0.8-3.9,1.2-6,1.2c-2.9,0-5.8-0.7-8.5-2.1l-0.1,0
			c-0.7-0.3-1.3-0.7-2-1c-3-1.6-6.1-3.3-8.9-5.4c-0.2,0.5-0.4,1-0.8,1.5h-17.7c-2.6-1.7-4.8-4.1-6.4-7.3c-0.7-1.2-1-2.5-1.2-3.6
			c-2.3-0.7-3.6-2.7-4.3-3.7c-0.1-0.2-0.2-0.3-0.3-0.5c-1.9-2.6-2-5-1.7-6.5c0,0,0-0.1,0-0.1c-0.9-0.7-1.7-1.8-2.4-3.3
			c-3.5-8.1,1.8-11.7,4.2-12.8c0.1-0.1,0.3-0.1,0.4-0.2c-1.9-0.5-3.9-0.7-6.1-0.9c-2.7-0.2-5.5-0.5-8.4-1.4
			c-3.5-1.1-8.7-2.7-10.8-8.7c-1.2-3.5-0.3-5.7,0.6-7c0.7-1,2.4-2.6,5.5-2.6c0.5,0,1.1,0.1,1.8,0.2c3,0.5,5.9,0.9,8.9,1.4
			c9.9,1.6,20.1,3.2,30.1,5c4.4,0.8,8.1,3,11.4,5c0.1,0.5,0.3,1,0.5,1.6c0.3-0.3,0.5-0.5,0.8-0.8l0.2,0.1c1.3,0.8,2.6,1.6,3.9,2.4
			c5,3,10.1,6.1,14.7,10.3c4.6,4.2,9.8,6.4,17.2,7.3c0.9,0.1,1.9,0.2,3,0.3c0.6,0,1.2,0.1,1.7,0.1c-0.7-0.9-1.4-1.9-2.1-2.8
			c-9.4-12.7-16.3-23.8-21.5-34.8c0.4-0.6,0.1-1.1-0.7-1.6c-1-2.2-2-4.4-2.9-6.6c-0.8-1.9-1.5-3.9-2.2-5.8c-0.1,0-0.1,0.1-0.2,0.1
			c-0.7,0.4-1.5,0.6-2.3,0.6c-1.2,0-2.4-0.5-3.4-1.4c-0.6-0.7-1.2-1.3-1.9-2c-0.2,0.6-0.5,1.2-1,1.7c-0.9,1-2.2,1.5-3.5,1.5
			c-0.6,0-1.1-0.1-1.7-0.3c-8.3-3.2-17.1-4.1-25.5-5c-4.6-0.5-9.4-1-14.1-1.8c-1.2-0.3-2.3-0.5-3.5-0.8c-1-0.4-1.7-1.2-2.2-2.1
			c-0.7-1.2-0.7-2.7-0.2-4c0.8-1.9,1.4-3.8,2-5.7c-0.6,0.5-1.2,1.1-1.8,1.5c-2.6,1.8-4.8,3.5-7,5.2c-1.3,1-2.6,1.7-3.9,2.1
			c-3.3-0.9-6.6-1.8-10-2.6c-1.1-0.3-2.1-0.5-3.1-0.8h0c-2.3-0.5-4.5-0.9-6.8-1.2c-5.8-0.7-10.2-3.4-12-8.8c0.1-0.3,0.1-0.5,0.2-0.8
			c0.2-0.4,0.4-0.8,0.6-1.2c0.2-0.2,0.4-0.5,0.6-0.7c0.3-0.3,0.7-0.6,1.1-0.8c-6.4-3-13-6.1-19.4-9c-10-5-20-10-30.2-14.6
			c-1.9-0.9-3.8-1.6-5.8-1.9c-0.6-0.1-1.2-0.2-1.8-0.2c-1.9-0.1-3.9,0.3-6,1.3c-5.1,2.3-10.8,2.3-16.4,1.9c-1.1-0.1-1.9-0.2-2.2,0.8
			c-0.9-0.1-1.8-0.2-2.7-0.3c0.2,1.2,0,2.4-0.6,3.6c-0.6,1.2-1.6,2.2-2.7,2.6c-1.7,0.1-3.6-0.3-5.2-1.2c-1.5-0.8-2.8-1.9-4-3
			c-0.4-0.3-0.7-0.6-1.1-0.9c-0.4-0.2-0.7-0.5-1.1-0.6c-1.1-0.5-2.4-0.8-3.8-0.7c-1.7,0.1-3.4-0.2-5-0.5c-5.1-1-6.6-3.2-5.6-8.2
			c0.1-0.6,0.7-1.4,0.5-1.8c-0.2-0.5-0.5-0.9-0.6-1.4c0,0,0,0,0,0c-1.7-4.5-1-9,0.5-13.5c0.5-1.5-0.9-1.3-1.7-1.3
			c-3.6-0.2-7.2-0.4-10.8-0.5c-3.8-0.2-7.5-0.7-10.6-3c-2.5-1.8-3.9-4.4-3-7.4c0.8-2.9,3.6-2.9,6.1-3c14.1-0.7,28-2.7,42.1-3.2
			c4.9-0.2,9.5,0.2,14,2c18.2,7.5,37.2,12.2,56.5,16.1c8.5,1.7,17,3.4,25.5,5.2c0.5,0.1,1.1,0.2,1.6,0.2c0,0,0,0,0,0
			c1.4,0.2,2.8,0.1,4.2-0.4c0.4-0.1,0.8-0.3,1.3-0.6c1.8-1,3.8-1.6,6-0.7c4.2,1.7,8.6,2.6,13,3l0.1,0c0.7,0.1,1.4,0.1,2.2,0.2
			c0.4,0.2,0.9,0.3,1.3,0.5c0.3,0.1,0.6,0.3,0.9,0.4c0.3-0.3,0.6-0.5,0.9-0.7c1.3,0,2.6,0.1,3.9,0.1c0.4,0,0.8,0,1.1,0.2
			c3.6,1.7,7.3,2.3,11,2.3c0,0,0,0,0,0c3.6,0,7.3-0.5,11-1c1.1-0.2,2.2-0.3,3.3-0.5c6.6-1,13.1-2.2,19.5-4c3.9-1.1,6.8-4.1,10.8-5
			c1.5-0.3,2.7-0.5,3.6-0.8c0.4-0.1,0.8-0.2,1.2-0.4c3.1-1.1,2.5-2.7-0.2-8.4c-3.6-7.6-6.4-15.5-7.7-23.8c-0.6-3.9-0.2-7.5,1-11.1
			c1.5-4.8,0.9-9.4-0.4-14h-0.2c-1.5,0-0.2,1.7-1.6,2c-4.7-5.4-4.6-11.8-3-18.6c-2.8,1.2-5,2.7-6.5,5.1c-0.6,1-1.3,2.8-2.8,2.2
			c-1.4-0.5-0.7-2.3-0.7-3.5c0.2-8,4-14.3,10-19.9c-2.6-0.4-4.8-0.9-6.7-2c-2.1-1.2-3.5-2.9-4.4-5.9c7.4,1.3,14.3,1.1,20.2-4.5
			c-4.1-0.6-7.6-1.7-8.7-6.8c7.4,1.3,14.5,1.6,21.9-0.3c-3.3-2.9-6.5-5.6-5.4-10.9c7.9,5.8,16.9,4.7,25.7,4.5
			c15.3-0.3,19.4,0.5,35.2,7.9c-3.7-4.1-7.5-6.6-11.6-8.9c5-0.4,10.9,1.7,15.9,5.3c4.8,3.6,7.4,8.6,9.6,15c0.8-3.9-1-6.4-1.2-9.2
			c4.9,1.5,7.8,5.2,6.8,9.6c-0.5,2.4,0.5,2.8,2.1,3.6c6.2,3,11,7.6,14.1,13.9c1.3,2.5,2.4,5.1,2,8.5c-1.7-2.1-3.2-4-4.8-5.8
			c4.3,13.5,1.5,25.5-7.2,36.9l-0.6,0.8c5-0.3,9.2-0.6,13.4-0.7c4.4-0.2,8.8,0,13.1,1c9.4,2.1,15,8.5,19.5,16.4
			c0.6,1.1,0.9,2.3,2,3.2c7.1,5.6,12.1,12.7,14.8,21.3c0.5,1.6,1.2,1.5,1.9,1.2c0.5,2.1,0.8,4.3,0.9,6.5c0.1,2.7,1.7,5.2,3.6,8.1
			c0.9,1.4,1.8,2.8,2.6,4.4c0.3,0.5,0.4,1,0.5,1.5c0.2,1.3-0.2,2.6-1.1,3.7c-0.9,1.1-2.2,1.6-3.5,1.6c-0.5,0-1-0.1-1.5-0.2
			c0,0,0,0,0.1,0c9.9,8.2,16.1,18,19,29.7c1.2,5.1,2.5,10.2,3.8,15.4C676.9,296.7,680.8,312.5,684.4,328.4z"/>
		<g>
			<path class="st19" d="M684.4,328.4c-0.2,0.2-0.4,0.3-0.6,0.5c-0.3,0.2-0.5,0.5-0.8,0.7c-0.9,0.8-1.8,1.5-2.6,2.3
				c-4,3.5-8,6.9-12,10.3c-0.6,0.5-1.2,1-1.7,1.5c-4.7,3.9-9.4,7.8-14.1,11.6c-1.2,1-2.4,2-3.7,2.9c-0.5-0.5-0.8-1.1-1.1-1.6
				c-0.5,1.3-1.1,2.5-1.6,3.8c-2.5,2-5.1,4-7.6,5.9c-1.5,1.2-3.1,2.4-4.6,3.5c-1.2,0.9-2.4,1.8-3.7,2.8c-5,3.8-10.1,7.5-15.2,11.2
				c-4.5,3.2-9.1,6.4-13.7,9.6c-0.8-0.1-1.6-0.2-2.5-0.5c-0.3-0.1-0.7-0.1-1-0.1c-0.6,0-1.4,0.2-2.5,0.7l-0.6,0.3
				c-3.2,1.5-6.8,3.2-11,3.6c-0.7,0.1-1.3,0.1-1.9,0.1c-4.7,0-8.7-2.2-11.5-6.2c-1-1.5-1.1-3.5-0.1-5c0.1-0.2,0.3-0.5,0.5-0.7
				c0.1-0.1,0.2-0.2,0.3-0.3c0.1-0.1,0.2-0.2,0.3-0.3c-3.7-1.1-7.4-2.2-11.1-3.2c0.6,0.9,1.2,1.9,1.8,3.1c1,2.2,2.5,4.3,4.1,6.5
				c0.7,1,1.5,2.1,2.3,3.2c3.6,5.4,7.7,9.5,12.5,12.5c-4.1,2.6-8.2,5.3-12.4,7.8c-5.6-3.8-10.6-8.8-15-15.3c-0.7-1-1.4-2-2.1-3
				c-3.4-5-7-10.1-10-16.2c-0.6-1.3-0.6-2.8,0-4c-1.9-0.5-3.8-1.1-5.7-1.7l-12.2-3.5c-1.4-0.4-2.7-0.8-4.1-1.2
				c-2.8-0.8-5.8-1.6-8.6-2.5c-2.3-0.7-4.2-1.2-6-1.2c-1.2,0-2.4,0.2-3.5,0.7c-1.9,0.8-3.9,1.2-6,1.2c-2.9,0-5.8-0.7-8.5-2.1l-0.1,0
				c-0.7-0.3-1.3-0.7-2-1c-3-1.6-6.1-3.3-8.9-5.4c-0.2,0.5-0.4,1-0.8,1.5c-0.7,1-1.9,1.9-3.9,2.3c-1.5,0.3-2.9,0.4-4.2,0.4
				c-3.6,0-6.8-0.9-9.6-2.7c-2.6-1.7-4.8-4.1-6.4-7.3c-0.7-1.2-1-2.5-1.2-3.6c-2.3-0.7-3.6-2.7-4.3-3.7c-0.1-0.2-0.2-0.3-0.3-0.5
				c-1.9-2.6-2-5-1.7-6.5c0,0,0-0.1,0-0.1c-0.9-0.7-1.7-1.8-2.4-3.3c-3.5-8.1,1.8-11.7,4.2-12.8c0.1-0.1,0.3-0.1,0.4-0.2
				c-1.9-0.5-3.9-0.7-6.1-0.9c-2.7-0.2-5.5-0.5-8.4-1.4c-3.5-1.1-8.7-2.7-10.8-8.7c-1.2-3.5-0.3-5.7,0.6-7c0.7-1,2.4-2.6,5.5-2.6
				c0.5,0,1.1,0.1,1.8,0.2c3,0.5,5.9,0.9,8.9,1.4c9.9,1.6,20.1,3.2,30.1,5c4.4,0.8,8.1,3,11.4,5c0.2,0.2,0.5,0.3,0.7,0.4l0.6,0.4
				l0.2,0.1c1.3,0.8,2.6,1.6,3.9,2.4c5,3,10.1,6.1,14.7,10.3c4.6,4.2,9.8,6.4,17.2,7.3c0.9,0.1,1.9,0.2,3,0.3c0.6,0,1.2,0.1,1.7,0.1
				c-0.7-0.9-1.4-1.9-2.1-2.8c-9.4-12.7-16.3-23.8-21.5-34.8c-0.2-0.5-0.5-1.1-0.7-1.6c-1-2.2-2-4.4-2.9-6.6
				c-0.8-1.9-1.5-3.9-2.2-5.8c-0.1,0-0.1,0.1-0.2,0.1c-0.7,0.4-1.5,0.6-2.3,0.6c-1.2,0-2.4-0.5-3.4-1.4c-0.6-0.7-1.2-1.3-1.9-2
				c-0.2,0.6-0.5,1.2-1,1.7c-0.9,1-2.2,1.5-3.5,1.5c-0.6,0-1.1-0.1-1.7-0.3c-8.3-3.2-17.1-4.1-25.5-5c-4.6-0.5-9.4-1-14.1-1.8
				c-0.9-0.2-1.7-0.3-2.6-0.5c-0.3-0.1-0.6-0.2-0.9-0.3c-1-0.4-1.7-1.2-2.2-2.1c-0.7-1.2-0.7-2.7-0.2-4c0.8-1.9,1.4-3.8,2-5.7
				c-0.6,0.5-1.2,1.1-1.8,1.5c-2.6,1.8-4.8,3.5-7,5.2c-1.3,1-2.6,1.7-3.9,2.1c-0.9,0.3-1.9,0.5-2.9,0.5c-2.2,0-4.2-0.7-6.2-2.2
				c-0.4-0.3-0.7-0.6-0.9-0.9c-0.3-0.4-0.5-0.7-0.6-1.2c-0.8,0.2-1.6,0.3-2.5,0.4h0c-0.7,0.1-1.4,0.1-2.1,0.1
				c-5.9,0-11.6-2.3-15.5-6.2c-1.1-1.1-1.5-2.5-1.3-4c0.1-0.3,0.1-0.5,0.2-0.8c0.2-0.4,0.4-0.8,0.6-1.2c0.2-0.2,0.4-0.5,0.6-0.7
				c0.3-0.3,0.7-0.6,1.1-0.8c-6.4-3-13-6.1-19.4-9c-5.9-2.7-11.7-5.4-17.5-8c-3.9-1.8-7.7-3.5-11.6-5.3c-0.8-0.4-1.7-0.7-2.5-1.1
				c-0.8-0.3-1.6-0.7-2.4-1l-0.2-0.1c-0.4-0.2-1.1-0.5-1.8-0.9c-0.2-0.2-0.5-0.4-0.8-0.6c-0.3,0.2-0.7,0.3-1,0.4
				c-1.9-0.1-3.9,0.3-6,1.3c-5.1,2.3-10.8,2.3-16.4,1.9c-1.1-0.1-1.9-0.2-2.2,0.8c-0.9-0.1-1.8-0.2-2.7-0.3c0.2,1.2,0,2.4-0.6,3.6
				c-0.6,1.2-1.6,2.2-2.7,2.6l-10.2-5.1c-0.1-0.2-0.2-0.5-0.3-0.8c-0.3,0-0.6,0.1-0.8,0.1c-1.1-0.5-2.4-0.8-3.8-0.7
				c-1.7,0.1-3.4-0.2-5-0.5c-5.1-1-6.6-3.2-5.6-8.2c0.1-0.6,0.7-1.4,0.5-1.8c-0.2-0.5-0.5-0.9-0.6-1.4c0,0,0,0,0,0c0,0,0,0,0,0
				l9.8-0.7c0,0,0,0,0,0l93.5-6.6c0,0,0,0,0,0l16.9-1.2c0,0,0,0,0,0c1.2,0.2,2.4,0.5,3.6,0.7c0.2-0.4,0.4-0.8,0.6-1.1l20.3,1.8
				l0.1,0l2.2,0.2c0.4,0.2,0.9,0.3,1.3,0.5c0.3,0.1,0.6,0.3,0.9,0.4c0.3-0.3,0.6-0.5,0.9-0.7c0.4-0.2,0.8-0.4,1.2-0.5
				c0.8-0.2,1.6-0.3,2.5-0.3c1.9,0,3.9,0.5,5.7,1.4c2,1,4.2,1.7,6.6,1.9c0,0,0,0,0,0c0.8,0.1,1.6,0.1,2.5,0.1
				c3.4,0,6.9-0.6,10.1-1.3c0.6-0.1,1.1-0.2,1.7-0.3c1-0.2,2.1-0.4,3.1-0.6c8.5-1.7,16.6-3.3,23.7-7.4c1.1-0.6,2.2-0.9,3-1.1
				c0.2,0,0.4-0.1,0.6-0.1c0.9-0.3,1.8-0.5,2.9-0.5c0.2,0,0.5,0,0.7,0c0.3,0,0.7,0.1,1,0.2c0.1-0.2,0.1-0.4,0.2-0.5
				c0-0.1,0-0.1,0.1-0.2c0.3-0.8,0.8-1.5,1.4-2.1c-3.1-6.3-6.3-13.2-8.5-20.8c-1.8-6.1-3.2-13.4-0.6-21.4c0.5-1.5,0.6-3.3,0.8-5.6
				c0.1-1,0.2-2.2,0.3-3.4c-1.1-1.5-1.1-3.2-1.1-4v-4c0-0.8,0.2-1.6,0.6-2.3c-0.7-1.2-1.1-2.9-0.5-5.1c1.3-5.4,4.8-8.8,8.1-11.5
				c3.5-2.9,7.4-5,12.3-6.8c0.5-0.2,1.1-0.3,1.6-0.3c1.4,0,2.8,0.7,3.7,1.9c1.1,1.5,1.2,3.5,0.4,5l10.9-4.8c0.6-0.3,1.2-0.4,1.9-0.4
				c1.4,0,2.7,0.6,3.6,1.7c0.8,1,1.1,2.2,1,3.4c1.5-0.4,3.1-0.9,4.6-1.4c1.4-0.5,2.9-0.9,4.5-1.4c0.4-0.1,0.8-0.2,1.3-0.2
				c1.2,0,2.4,0.5,3.2,1.3c1.2,1.2,1.7,2.9,1.3,4.5c-1.6,6.3-0.4,12.2,4,19.6c0,0,0.3,0.5,0.3,0.6c3.8,0.3,6.6,3.4,6.9,7.4
				c0.1,0.8,0.2,1.6,0.3,2.5c1.2-1.7,2.7-3.1,4.4-4.3c2.9-1.9,5.8-2.9,8.7-2.9c2.2,0,4.3,0.5,6.3,1.6c4.8,2.5,7.2,7.4,6.6,13.5
				c-0.1,0.8-0.2,1.6-0.3,2.3c0.8-0.8,1.9-1.3,3.2-1.7c1.2-0.3,2.7-0.6,4.5-0.8l0.2,0c3.3-0.3,7-0.7,10.7-0.7c3,0,5.8,0.2,8.3,0.7
				c8.6,1.6,15.3,6.2,19.3,13.2c1.9,3.3,4.3,6.3,7.3,9c7.6,6.8,12.1,13.8,13.9,21.7c0.5,2.1,0.8,4.3,0.9,6.5
				c0.1,2.7,1.7,5.2,3.6,8.1c0.9,1.4,1.8,2.8,2.6,4.4c0.3,0.5,0.4,1,0.5,1.5c0.2,1.3-0.2,2.6-1.1,3.7c-0.9,1.1-2.2,1.6-3.5,1.6
				c-0.5,0-1-0.1-1.5-0.2c0,0,0,0,0.1,0c9.9,8.2,16.1,18,19,29.7c1.2,5.1,2.5,10.2,3.8,15.4C676.9,296.7,680.8,312.5,684.4,328.4z"
				/>
		</g>
		<path class="st20" d="M680.4,331.9c-4,3.5-8,6.9-12,10.3c-0.6,0.5-1.2,1-1.7,1.5c-4.7,3.9-9.4,7.8-14.1,11.6
			c-0.7-0.6-0.8-1.6-0.9-2.6c-0.6-5.8,1-11,4.1-15.8c2.4-3.8,5.1-7.4,7.7-11.1c2.4-3.4,4.5-6.9,3.5-11.9c-2.6,3.8-4.2,8-8.2,10.6
			c3.3-14.4,6.4-28.6,1.9-42.9c-1.4,24.4-6.5,48-15.9,70.6c-2,4.7-4,9.4-6,14.1c-1.5,1.2-3.1,2.4-4.6,3.5c-1.2,0.9-2.4,1.8-3.7,2.8
			c-5,3.8-10.1,7.5-15.2,11.2c1.7-10.1,2.2-20.3-1.4-30.2c-3.8-10.6-11.7-17-22.6-20.2c7.1-6.2,16.9-8.2,22.6-16
			c-4.3,1-8.1,3-11.9,4.9c-3.8,2-7.5,4-11.3,5.9c-1,0.5-2.1,2.3-3.2,0.8c-1.2-1.5-2.6-3.3-1.6-5.6c0.8-1.8,2.1-3.2,3.9-4.1
			c14.9-7.6,29.5-16.1,47-16.4c1.3,0,2.6-0.3,3.8-0.8c-17.6-5.2-31.3,6.3-46.9,11.5c4.6-11.3,8.2-22.7,9.4-34.7
			c-4.8,3.8-4.6,10-7.3,15.2c-2.3-6.7-3.3-13.4-4.3-20.1c-1.7,4.2-1,8.5-0.5,12.6c0.8,6.3,0.5,12.7,0.3,19
			c-0.2,4.5-2.2,8.5-5.3,11.7c-3.2,3.2-4.6,6.9-3.4,11.3c0.5,2.1-0.4,2.7-2.1,3.2c-2.6,0.8-5.1,1.8-7.6,2.8c-1.4,0.6-3.4,1-4,2.1
			c-2.7,4.9-6.9,3.6-11.1,3.5c-8.7-0.3-17.2-1.8-25.8-2.7c-3.1-0.3-4.9-1.9-6.7-4.3c-1-1.3-1.9-2.5-2.8-3.8
			c-9.6-13-18.2-26.6-24.2-41.6c-5.4-13.4-8.7-27.5-11.8-41.6c-1.8-8.1-7-13.5-13.1-18.6c12.5,13.2,10.8,31.3,16.7,47.8
			c-4.3-5.3-6.8-11-11.4-15.1c2.4,7.1,8.5,12.3,10.6,19.6c-13.7-14.2-22.5-32.2-36.1-46.4c7.8,15.6,18.1,29.9,26.5,46.3
			c-14.3-5.6-29.1-4.5-42.8-7.5c7.8-18.9,3.5-36-5.8-52.5c1.4-0.4,3.3,0,4.8,0.8c7.3,3.8,14.9,2.7,22.3,1.2
			c10.2-2.1,20.6-3.6,29.9-8.9c0.8-0.4,1.7-0.6,2.6-0.8c1.9-0.5,2.9-0.6,2.9,2.1c-0.4,15.5,6.6,27.6,18.2,37.2
			c1.6,1.4,2.1,2.5,1.9,4.5c-1.2,11.9-0.7,23.8-0.7,35.7c0,2.4,0.3,4.5,1.9,6.5c1.9,2.4,1.7,5.6,1.8,8.5c0.1,2,0.2,4.3,3,3.8
			c2.6-0.4,2.4-2.3,1.8-4.5c-0.6-2-0.7-4.1-1-6.1c-0.2-1.1-0.2-2,1-2.6c2.7-1.3,2.5-3.8,2-6.1c-2.2-10-1-20.1-1.3-30.2
			c-0.1-2,0.7-2.1,2.3-1.5c2.3,0.8,4.7,1.4,7.5,1.3c-4.5-3.1-9-6.3-13.6-9.2c-11.3-7.1-18.7-16.8-21.4-30c-0.9-4.6,0-8.8,1.5-13.5
			c4,3.9,8.6,5.8,13.8,5.8c3.3,0,2.1,2.3,1.8,3.8c-1.5,8.9,0,17.2,4.4,25.1c0.2,0.4,0.6,0.8,1.5,1c-1-3.5-2.1-6.9-2.9-10.4
			c-1.4-5.9-1.3-11.7,0.1-17.7c0.7-3.1,3.1-2.6,4.8-2.5c1.6,0.1,1.5,2.3,1.1,3.5c-4.9,17,2.6,30.7,12,44.1
			c7.7-8.8,15.6-17.3,24.2-25.2c13.2-12,26.4-24,39.6-36.1c3.3-3.1,6.4-6.4,9.5-9.7c4.3-4.6,3.3-8.5-2.6-10.5
			c-4.5-1.6-9.1-1.5-13.8-1.4c-2.7,0.1-5.4,0-8.1,0c1-5.9,1-5.8,6.8-6.4c5.9-0.6,11.9-1.1,17.8,0c7,1.3,12.6,4.8,16.1,11
			c2.2,3.9,4.9,7.2,8.2,10.1c7.4,6.7,12.8,14.4,13.2,24.9c0.2,5.5,4.2,9.6,6.7,14.5c-20.2-6.8-38.4,1.3-56.9,6.7
			c-8.5,2.5-16.9,5.6-25.3,8.4c-0.9,0.3-1-0.1-0.9-0.9c16-9.5,31.8-19.3,49-26.5c5.1-2.1,10.3-3.8,16.4-6c-4.2-1.5-7.4-0.5-10.4,0.4
			c-9.1,2.8-17.2,7.7-25.4,12.3c-18.9,10.6-37.7,21.4-56.5,32.2c-1.4,0.8-2.8,1.7-4.8,3c4.7,0.9,8.2-1.8,12.4-1.8
			c-1.1,10.3-0.1,20.7-0.8,30.9c-0.3,5,1.5,9.6,2.4,14.3c0.3,1.8,0.5,3.6,0.4,5.5c-0.1,1.8,1.7,2,3.2,1.9c1.7-0.1,2.7-0.8,2.6-2.6
			c0-1-0.1-2.1-0.3-3.1c-0.6-2.8-0.7-5.3,1.5-7.7c0,0,0.1-0.1,0.1-0.1c1.7-1.8,1.2-4.5,0.9-7c-1.2-10.6-1.2-21.1-0.2-31.7
			c0.2-2.1,1-3.2,3-4c19-6.9,37.6-15.1,57.4-19.6c5.4-1.2,11-1.5,16.6-1c3.2,0.3,6.1,1.2,8.7,2.8c0.9,0.5,1.7,1.1,2.6,1.8
			c8.7,7.2,14.7,16.1,17.4,27.2C670.1,288.6,675.5,310.2,680.4,331.9z"/>
		<path class="st20" d="M552.2,188.7c5.1-1.7,10.5,1.7,15-2.4c0.9,3.5,1.4,6.5,2.4,9.3c1.9,5.1,5.2,9.5,8.8,13.6
			c1.2,1.3,1.3,2.1-0.2,3.4c-12.4,11.6-24.7,23.2-36.9,34.9c-1.5,1.5-2.4,1.4-4.1,0.3c-6.7-4.3-10.9-12.1-9.7-19
			c3.4,1.7,4.5,5.6,7.7,7.8c0.5-3.2-1.1-5.6-2-8.2c-3.4-9.7-3.4-9.6,3.6-17.4c3.5-3.9,7-8,10.4-12c1.3-1.6,2.2-3.3,3-5.8
			c-8.5,5.5-17,9.5-25.7,13.3c-4.8,2.1-9.7,3.4-15,3c-4.6-0.4-8.2-2.4-10.3-6.5c-3.3-6.7-6.4-13.5-8.5-20.7
			c-1.8-6.2-2.8-12.2-0.7-18.6c1-3,0.9-6.3,1.4-10.5c0.3,2.6,0.2,4.1,0.6,5.6c0.4,1.3,1.2,2.6,2.9,2.7c1.7,0.1,2.8-0.8,3.3-2.3
			c0.7-2.2,1.4-4.5-0.1-6.7c-1.4-2.2-3.6-2.6-5.8-1.8c-1.7,0.6-2.1,0.1-2.1-1.4c0-1.3,0-2.6,0-4c3,0.3,5.5,1.7,8.3,3
			c-0.6-3.8-2.3-5.8-6.9-6.9c-1.9-0.5-1.7-1.3-1.4-2.5c0.9-3.9,3.5-6.5,6.5-8.9c3.1-2.5,6.5-4.4,11-6.1c-2.9,3.9-5.7,7.1-5.7,11.7
			c7.6-3.3,15.1-6.6,22.6-9.9c-1.6,2.2-3.9,3.4-5.6,6.1c7.4,1,13.7-1.9,20.6-3.9c-2.2,8.7,0.3,16.1,4.5,23.2
			c0.8,1.4,1.6,2.8,3.7,2.8c1.6,0,2.8,1.4,2.9,3.1c0.3,4.6,2,9.1,0,13.8c3.8-0.1,5.5-1.2,6.6-4.6c1-3.1,2.6-5.6,5.3-7.4
			c3.2-2.2,6.7-2.9,10.2-1.1c3.6,1.9,4.5,5.4,4.1,9c-0.9,10.1-8.7,19.6-19.8,17.4C553.1,182.9,553.7,186.7,552.2,188.7z"/>
		<path class="st20" d="M462.1,352.2c1.4,2.6,3.1,2.6,5.2,1.9c2.3-0.8,4.6,1.1,4.2,3.5c-0.1,0.8-0.6,1-1.3,1.1
			c-6.9,1.3-12.2-1.3-15.3-7.2c-1.5-2.9-0.7-4.6,1.8-6c4-2.2,7.9-4.3,11.9-6.4c0.7-0.4,1.4-0.7,2-1.1c0.9-0.7,2.2-1.6,1.3-2.8
			c-0.9-1.2-1.8,0.2-2.6,0.7c-5.3,3.7-11.7,5.4-16.9,9.3c-1.7,1.3-2.8-0.9-3.7-2.2c-1.4-1.9-1.2-3.7,0.8-4.9
			c4.2-2.5,8.5-4.9,12.7-7.5c1.9-1.2,4.7-1.5,5.3-5.3c-3.6,2-6.7,3.6-9.8,5.3c-2.5,1.3-5,2.7-7.6,3.9c-1.6,0.7-3.5,2.9-5-0.4
			c-1.2-2.9-1.3-5.3,1.9-6.8c3.4-1.6,6.8-3.2,10.1-4.8c0.9-0.5,2.5-0.7,1.8-2.4c-0.5-1.4-1.9-1.7-2.9-1.1c-3.1,1.9-6,0.4-8.9-0.4
			c-4.9-1.5-10-0.9-14.9-2.4c-3.2-1-6.5-2-7.7-5.7c-0.9-2.5-0.1-3.8,2.7-3.4c13,2.1,26,4.1,39,6.4c4.1,0.7,7.7,3.1,11.1,5.3
			c6.1,3.8,12.6,7.3,17.9,12.2c6.6,6,14.2,8.2,23,8.8c12.4,0.8,24.6,2.8,36.9,4.2c3.2,0.4,6.5,0.3,9.7,0.5c3,0.2,6,0.2,8.9,0.9
			c12,3.2,17.9,25.3,9.3,34.2c-2.3,2.4-4.5,2.7-7.5,1.8c-16.9-5-33.9-9.9-50.9-14.7c-4.2-1.2-8.5-2.3-12.6-3.7
			c-4.2-1.3-8.2-2.3-12.7-0.3c-3.3,1.4-7.2,0.9-10.6-0.8c-5.4-2.8-10.8-5.6-14.7-10.5c-1.3-1.7-2.8-2.2-4.7-1.5
			C467.1,350.7,464.8,351.4,462.1,352.2z"/>
		<path class="st20" d="M296.7,203.4c-0.5,3.5-2.7,2.9-5,2.3c-7.7-2.1-15.6-2.1-23.5-1.9c-3.6,0.1-7.2-0.2-10.4-2.2
			c-1.4-0.8-2.8-2-2.5-3.6c0.4-2,2.3-1,3.6-1.1c14-1.3,28-2.4,42.1-3.7c2.7-0.3,5.4-0.5,8,0.7c26,11.9,53.9,17.3,81.6,23.2
			c3.9,0.8,7.8,1.7,11.7,2.4c1.4,0.3,1.9,1.2,2.4,2.2c4.1,7.2,2.8,21.9-2.3,28.5c-2.3,3-4.8,4.2-8.6,2.4
			c-16.2-7.6-32.5-15.1-48.8-22.5c-1.6-0.8-3.3-1.4-5-2.2c-0.6-0.3-1.4-0.5-1.6-1c-1.2-2.2-1.2-2.5-3.6-1.3c-9.3,4.4-18.9,5.8-29,4
			c-5.6-1-11,0.6-16.6,1.1c-1.2,0.1-2.3,0.2-3.5,0.4c-2.1,0.2-4.1-0.3-4.7-2.4c-0.7-2.2,0.5-4,2.5-5.2c3.2-1.9,6.7-2.6,10.3-3.1
			c5.1-0.8,10-2.3,14.7-4.5c1.2-0.6,2.3-1.1,2.8-2.4c0.2-0.6,0.4-1.2-0.1-1.8c-0.6-0.7-1.1-0.1-1.7,0.1c-2,0.6-3.5,3.3-5.8,1.9
			c-2.6-1.6-4.1-4.3-5.1-7.1C298.1,205.5,298.2,204.2,296.7,203.4z"/>
		<path class="st20" d="M570.2,341.2c3.7-5,11.2-6.9,18.4-4.8c15.5,4.5,22.2,13.5,23.6,31.4c0.5,6.3-0.7,12.1-4,17.4
			c-1.8,2.9-4.5,4.4-7.9,3.4c-2.4-0.7-4.5-0.2-6.7,0.8c-3.3,1.5-6.6,3.1-10.2,3.5c-3.7,0.4-6.7-0.7-9-4.1
			c9.3,1.1,15.1-3.5,16.3-13.4c1.1-9.4-0.9-18.3-6.6-26C580.7,344.7,576.2,342,570.2,341.2z"/>
		<path class="st20" d="M393.6,260.8c9.4-1.2,12.9-8.1,15.1-15.9c2.5-8.8,2.3-17.6-1.9-26c-0.4-0.8-1.5-1.8-0.8-2.7
			c0.8-1,2.2-0.9,3.3-0.6c5,1.5,10.2,2.9,15,4.8c3.7,1.4,5.7,4.9,7,8.4c3.3,8.9,4.1,18,2.1,27.4c-0.6,2.6-1.9,4.7-4.1,6.3
			c-2.4,1.7-4.8,3.5-7.2,5.3c-2.4,1.9-4.8,2.2-7.4,0.3c10.6-13.8,13.6-22.1,10.7-31.1c-0.6,3.8-1,7.2-1.8,10.6
			c-1.5,6.2-4.9,11.4-9.7,15.5C408.8,267.3,398.8,266.1,393.6,260.8z"/>
		<path class="st20" d="M552.9,289.9c3.3,0.5,4,2.6,3.8,5.1c-0.1,1.5-0.8,2.8-2.6,2.8c-1.6-0.1-2.7-1-2.7-2.7
			c0.1-9.5-1.4-19.1-0.3-28.6c0.4-3.5,0.9-6.9,1.2-10.4c0.2-2.5,2.1-3,3.8-2.8c2.6,0.3,1.4,2.1,1,3.6c-2.3,9.4-1.5,19-1.7,28.6
			C555.4,287.3,555.4,289.1,552.9,289.9z"/>
		<path class="st20" d="M515.9,254.3c3.3,0.7,4.1,2.4,3.7,5.5c-1.1,10.3-1.3,20.6-0.2,30.9c0.2,1.8,0.8,3.9-2,4.1
			c-2.5,0.1-2.1-2-2.3-3.6c-2.1-11.6-1.7-23.1,0.4-34.6C515.6,255.9,515.7,255.1,515.9,254.3z"/>
		<path class="st20" d="M289.3,212.2c-1.4,1.6-1.5,3.7-1.8,5.8c-0.1,0.7-2.4,0.9-3.7,1.5c-2,1-3-0.3-3.5-1.8c-1-3.1,0.4-6.1,2.2-8.1
			c1.3-1.4,4,0.5,6,1.2C289,211,289.4,211.3,289.3,212.2z"/>
		<path class="st20" d="M575.5,197.1c4.1,1,7.7,2.1,10.9,4.3c0.7,0.5,2.1,1.1,1.5,1.9c-1.1,1.5-2.6,2.8-4.1,4
			c-1.2,0.9-1.4-0.6-1.9-1.2C579.7,203.2,577.6,200.1,575.5,197.1z"/>
		<path class="st20" d="M297.6,233.7c1.8,0,3.8-0.6,4.7,1.5c0.1,0.3-0.3,1.2-0.6,1.2C299.5,237.1,299,234.8,297.6,233.7z"/>
		<path class="st20" d="M553.3,301c1.8,2.9,1.1,4.9,1.2,6.9C552.6,306.2,553,304.1,553.3,301z"/>
		<path class="st20" d="M568.7,245.9c0.3,0.3,0.6,0.6,0.9,0.9c-1.6,1.3-3.5,1.8-6.2,2.4C565.3,247.3,567,246.5,568.7,245.9z"/>
		<path class="st21" d="M652.9,251.2c-6.1-0.9-12.1-2.3-18.3-2.8c-7.6-0.6-14,1.6-19.2,7c-4.3,4.5-7.8,9.6-11.1,14.9
			c-1,1.6-1.8,3.4-4.1,5.1c4.5-10.6,9.5-19.6,18.5-26c3.7-2.7,8-2.5,12.2-2.8C638.7,246.1,645.9,248,652.9,251.2z"/>
		<path class="st22" d="M602.6,331.5c8-0.5,15.9-0.3,23.6,2.3c0.4,0.1,0.7,0.3,1,0.6c2,1.4,4.8,3,4.1,5.4c-0.4,1.4-3.6-0.1-5.4-0.6
			c-6-1.5-11.9-3.1-17.8-4.7C606,333.9,604.1,333.3,602.6,331.5z"/>
		<path class="st14" d="M530.7,158.8c-2.1-0.8-3.9-1.5-5.9-2.3c-0.1,0.6-0.1,0.9-0.1,1.3c0,4.1-1.6,6.9-4.3,6.6
			c-3.9-0.4-4.3-3.4-4.1-6.6c0-0.4,0.2-0.8,0.1-1.1c-0.9-2.6-0.5-3.3,2.2-3.9C522.6,151.9,528.4,154.7,530.7,158.8z"/>
		<path class="st23" d="M534.6,149.2c-6.5-1.9-12.9-1.8-19.3-0.4c-0.9,0.2-1.8,0.2-2.7,0c-1.6-0.3-2.5-1.7-2.6-3
			c-0.1-1.5,1.5-1.4,2.5-1.5c6.5-0.8,13.1-2.2,18.9,2.2c0.7,0.5,1.4,1.1,2.1,1.7C534.1,148.4,534.3,148.8,534.6,149.2z"/>
		<path class="st22" d="M572.4,166.9c-1.8-1.5-2.7-4.4-5.4-2.1c-1.4,1.2-2.4,1.7-1,3.8c1.8,2.8-1.3,7.2-4.7,7.1
			c-1.7,0-1.5-1.2-0.8-2.1c1.2-1.4,1.1-2.8,0.9-4.6c-0.6-4,4-8.5,8.1-8.1C573.1,161.2,572.9,163.7,572.4,166.9z"/>
		<path class="st19" d="M500.6,177.8c-3.5,0.4-6.1-0.7-7.9-3.5c-1.7-2.7-0.4-4.8,1.6-6.8c3.1-3.2,5.3-7.2,8-11.1
			c1.2,2.2-0.2,3.8-0.7,5.5c-0.4,1.2-1.2,2.3-1.8,3.4C495.8,171.9,495.8,171.9,500.6,177.8z"/>
		<path class="st22" d="M520.5,183.6c0,3.4-2.8,3.5-4.5,3.9c-5.8,1.3-11.7,2.5-17.1-1.5C506.3,187.4,513.4,186.7,520.5,183.6z"/>
		<path class="st7" d="M680.4,331.9c-4,3.5-8,6.9-12,10.3c-0.6,0.5-1.2,1-1.7,1.5c-4.7,3.9-9.4,7.8-14.1,11.6
			c-0.7-0.6-0.8-1.6-0.9-2.6c-0.6-5.8,1-11,4.1-15.8c2.4-3.8,5.1-7.4,7.7-11.1c2.4-3.4,4.5-6.9,3.5-11.9c-2.6,3.8-4.2,8-8.2,10.6
			c3.3-14.4,6.4-28.6,1.9-42.9c-1.4,24.4-6.5,48-15.9,70.6c-2,4.7-4,9.4-6,14.1c-1.5,1.2-3.1,2.4-4.6,3.5c-1.2,0.9-2.4,1.8-3.7,2.8
			c-5,3.8-10.1,7.5-15.2,11.2c1.7-10.1,2.2-20.3-1.4-30.2c-3.8-10.6-11.7-17-22.6-20.2c7.1-6.2,16.9-8.2,22.6-16
			c-4.3,1-8.1,3-11.9,4.9c-3.8,2-7.5,4-11.3,5.9c-1,0.5-2.1,2.3-3.2,0.8c-1.2-1.5-2.6-3.3-1.6-5.6c0.8-1.8,2.1-3.2,3.9-4.1
			c14.9-7.6,29.5-16.1,47-16.4c1.3,0,2.6-0.3,3.8-0.8c-17.6-5.2-31.3,6.3-46.9,11.5c4.6-11.3,8.2-22.7,9.4-34.7
			c-4.8,3.8-4.6,10-7.3,15.2c-2.3-6.7-3.3-13.4-4.3-20.1c-1.7,4.2-1,8.5-0.5,12.6c0.8,6.3,0.5,12.7,0.3,19
			c-0.2,4.5-2.2,8.5-5.3,11.7c-3.2,3.2-4.6,6.9-3.4,11.3c0.5,2.1-0.4,2.7-2.1,3.2c-2.6,0.8-5.1,1.8-7.6,2.8c-1.4,0.6-3.4,1-4,2.1
			c-2.7,4.9-6.9,3.6-11.1,3.5c-8.7-0.3-17.2-1.8-25.8-2.7c-3.1-0.3-4.9-1.9-6.7-4.3c-1-1.3-1.9-2.5-2.8-3.8
			c-9.6-13-18.2-26.6-24.2-41.6c-5.4-13.4-8.7-27.5-11.8-41.6c-1.8-8.1-7-13.5-13.1-18.6c12.5,13.2,10.8,31.3,16.7,47.8
			c-4.3-5.3-6.8-11-11.4-15.1c2.4,7.1,8.5,12.3,10.6,19.6c-13.7-14.2-22.5-32.2-36.1-46.4c7.8,15.6,18.1,29.9,26.5,46.3
			c-14.3-5.6-29.1-4.5-42.8-7.5c7.8-18.9,3.5-36-5.8-52.5c1.4-0.4,3.3,0,4.8,0.8c7.3,3.8,14.9,2.7,22.3,1.2
			c10.2-2.1,20.6-3.6,29.9-8.9c0.8-0.4,1.7-0.6,2.6-0.8c1.9-0.5,2.9-0.6,2.9,2.1c-0.4,15.5,6.6,27.6,18.2,37.2
			c1.6,1.4,2.1,2.5,1.9,4.5c-1.2,11.9-0.7,23.8-0.7,35.7c0,2.4,0.3,4.5,1.9,6.5c1.9,2.4,1.7,5.6,1.8,8.5c0.1,2,0.2,4.3,3,3.8
			c2.6-0.4,2.4-2.3,1.8-4.5c-0.6-2-0.7-4.1-1-6.1c-0.2-1.1-0.2-2,1-2.6c2.7-1.3,2.5-3.8,2-6.1c-2.2-10-1-20.1-1.3-30.2
			c-0.1-2,0.7-2.1,2.3-1.5c2.3,0.8,4.7,1.4,7.5,1.3c-4.5-3.1-9-6.3-13.6-9.2c-11.3-7.1-18.7-16.8-21.4-30c-0.9-4.6,0-8.8,1.5-13.5
			c4,3.9,8.6,5.8,13.8,5.8c3.3,0,2.1,2.3,1.8,3.8c-1.5,8.9,0,17.2,4.4,25.1c0.2,0.4,0.6,0.8,1.5,1c-1-3.5-2.1-6.9-2.9-10.4
			c-1.4-5.9-1.3-11.7,0.1-17.7c0.7-3.1,3.1-2.6,4.8-2.5c1.6,0.1,1.5,2.3,1.1,3.5c-4.9,17,2.6,30.7,12,44.1
			c7.7-8.8,15.6-17.3,24.2-25.2c13.2-12,26.4-24,39.6-36.1c3.3-3.1,6.4-6.4,9.5-9.7c4.3-4.6,3.3-8.5-2.6-10.5
			c-4.5-1.6-9.1-1.5-13.8-1.4c-2.7,0.1-5.4,0-8.1,0c1-5.9,1-5.8,6.8-6.4c5.9-0.6,11.9-1.1,17.8,0c7,1.3,12.6,4.8,16.1,11
			c2.2,3.9,4.9,7.2,8.2,10.1c7.4,6.7,12.8,14.4,13.2,24.9c0.2,5.5,4.2,9.6,6.7,14.5c-20.2-6.8-38.4,1.3-56.9,6.7
			c-8.5,2.5-16.9,5.6-25.3,8.4c-0.9,0.3-1-0.1-0.9-0.9c16-9.5,31.8-19.3,49-26.5c5.1-2.1,10.3-3.8,16.4-6c-4.2-1.5-7.4-0.5-10.4,0.4
			c-9.1,2.8-17.2,7.7-25.4,12.3c-18.9,10.6-37.7,21.4-56.5,32.2c-1.4,0.8-2.8,1.7-4.8,3c4.7,0.9,8.2-1.8,12.4-1.8
			c-1.1,10.3-0.1,20.7-0.8,30.9c-0.3,5,1.5,9.6,2.4,14.3c0.3,1.8,0.5,3.6,0.4,5.5c-0.1,1.8,1.7,2,3.2,1.9c1.7-0.1,2.7-0.8,2.6-2.6
			c0-1-0.1-2.1-0.3-3.1c-0.6-2.8-0.7-5.3,1.5-7.7c0,0,0.1-0.1,0.1-0.1c1.7-1.8,1.2-4.5,0.9-7c-1.2-10.6-1.2-21.1-0.2-31.7
			c0.2-2.1,1-3.2,3-4c19-6.9,37.6-15.1,57.4-19.6c5.4-1.2,11-1.5,16.6-1c3.2,0.3,6.1,1.2,8.7,2.8c0.9,0.5,1.7,1.1,2.6,1.8
			c8.7,7.2,14.7,16.1,17.4,27.2C670.1,288.6,675.5,310.2,680.4,331.9z"/>
		<path class="st20" d="M462.1,352.2c1.4,2.6,3.1,2.6,5.2,1.9c2.3-0.8,4.6,1.1,4.2,3.5c-0.1,0.8-0.6,1-1.3,1.1
			c-6.9,1.3-12.2-1.3-15.3-7.2c-1.5-2.9-0.7-4.6,1.8-6c4-2.2,7.9-4.3,11.9-6.4c0.7-0.4,1.4-0.7,2-1.1c0.9-0.7,2.2-1.6,1.3-2.8
			c-0.9-1.2-1.8,0.2-2.6,0.7c-5.3,3.7-11.7,5.4-16.9,9.3c-1.7,1.3-2.8-0.9-3.7-2.2c-1.4-1.9-1.2-3.7,0.8-4.9
			c4.2-2.5,8.5-4.9,12.7-7.5c1.9-1.2,4.7-1.5,5.3-5.3c-3.6,2-6.7,3.6-9.8,5.3c-2.5,1.3-5,2.7-7.6,3.9c-1.6,0.7-3.5,2.9-5-0.4
			c-1.2-2.9-1.3-5.3,1.9-6.8c3.4-1.6,6.8-3.2,10.1-4.8c0.9-0.5,2.5-0.7,1.8-2.4c-0.5-1.4-1.9-1.7-2.9-1.1c-3.1,1.9-6,0.4-8.9-0.4
			c-4.9-1.5-10-0.9-14.9-2.4c-3.2-1-6.5-2-7.7-5.7c-0.9-2.5-0.1-3.8,2.7-3.4c13,2.1,26,4.1,39,6.4c4.1,0.7,7.7,3.1,11.1,5.3
			c6.1,3.8,12.6,7.3,17.9,12.2c6.6,6,14.2,8.2,23,8.8c12.4,0.8,24.6,2.8,36.9,4.2c3.2,0.4,6.5,0.3,9.7,0.5c3,0.2,6,0.2,8.9,0.9
			c12,3.2,17.9,25.3,9.3,34.2c-2.3,2.4-4.5,2.7-7.5,1.8c-16.9-5-33.9-9.9-50.9-14.7c-4.2-1.2-8.5-2.3-12.6-3.7
			c-4.2-1.3-8.2-2.3-12.7-0.3c-3.3,1.4-7.2,0.9-10.6-0.8c-5.4-2.8-10.8-5.6-14.7-10.5c-1.3-1.7-2.8-2.2-4.7-1.5
			C467.1,350.7,464.8,351.4,462.1,352.2z"/>
		<path class="st20" d="M296.7,203.4c-0.5,3.5-2.7,2.9-5,2.3c-7.7-2.1-15.6-2.1-23.5-1.9c-3.6,0.1-7.2-0.2-10.4-2.2
			c-1.4-0.8-2.8-2-2.5-3.6c0.4-2,2.3-1,3.6-1.1c14-1.3,28-2.4,42.1-3.7c2.7-0.3,5.4-0.5,8,0.7c26,11.9,53.9,17.3,81.6,23.2
			c3.9,0.8,7.8,1.7,11.7,2.4c1.4,0.3,1.9,1.2,2.4,2.2c4.1,7.2,2.8,21.9-2.3,28.5c-2.3,3-4.8,4.2-8.6,2.4
			c-16.2-7.6-32.5-15.1-48.8-22.5c-1.6-0.8-3.3-1.4-5-2.2c-0.6-0.3-1.4-0.5-1.6-1c-1.2-2.2-1.2-2.5-3.6-1.3c-9.3,4.4-18.9,5.8-29,4
			c-5.6-1-11,0.6-16.6,1.1c-1.2,0.1-2.3,0.2-3.5,0.4c-2.1,0.2-4.1-0.3-4.7-2.4c-0.7-2.2,0.5-4,2.5-5.2c3.2-1.9,6.7-2.6,10.3-3.1
			c5.1-0.8,10-2.3,14.7-4.5c1.2-0.6,2.3-1.1,2.8-2.4c0.2-0.6,0.4-1.2-0.1-1.8c-0.6-0.7-1.1-0.1-1.7,0.1c-2,0.6-3.5,3.3-5.8,1.9
			c-2.6-1.6-4.1-4.3-5.1-7.1C298.1,205.5,298.2,204.2,296.7,203.4z"/>
		<path class="st7" d="M570.2,341.2c3.7-5,11.2-6.9,18.4-4.8c15.5,4.5,22.2,13.5,23.6,31.4c0.5,6.3-0.7,12.1-4,17.4
			c-1.8,2.9-4.5,4.4-7.9,3.4c-2.4-0.7-4.5-0.2-6.7,0.8c-3.3,1.5-6.6,3.1-10.2,3.5c-3.7,0.4-6.7-0.7-9-4.1
			c9.3,1.1,15.1-3.5,16.3-13.4c1.1-9.4-0.9-18.3-6.6-26C580.7,344.7,576.2,342,570.2,341.2z"/>
		<path class="st7" d="M393.6,260.8c9.4-1.2,12.9-8.1,15.1-15.9c2.5-8.8,2.3-17.6-1.9-26c-0.4-0.8-1.5-1.8-0.8-2.7
			c0.8-1,2.2-0.9,3.3-0.6c5,1.5,10.2,2.9,15,4.8c3.7,1.4,5.7,4.9,7,8.4c3.3,8.9,4.1,18,2.1,27.4c-0.6,2.6-1.9,4.7-4.1,6.3
			c-2.4,1.7-4.8,3.5-7.2,5.3c-2.4,1.9-4.8,2.2-7.4,0.3c10.6-13.8,13.6-22.1,10.7-31.1c-0.6,3.8-1,7.2-1.8,10.6
			c-1.5,6.2-4.9,11.4-9.7,15.5C408.8,267.3,398.8,266.1,393.6,260.8z"/>
		<path class="st7" d="M552.9,289.9c3.3,0.5,4,2.6,3.8,5.1c-0.1,1.5-0.8,2.8-2.6,2.8c-1.6-0.1-2.7-1-2.7-2.7
			c0.1-9.5-1.4-19.1-0.3-28.6c0.4-3.5,0.9-6.9,1.2-10.4c0.2-2.5,2.1-3,3.8-2.8c2.6,0.3,1.4,2.1,1,3.6c-2.3,9.4-1.5,19-1.7,28.6
			C555.4,287.3,555.4,289.1,552.9,289.9z"/>
		<path class="st7" d="M515.9,254.3c3.3,0.7,4.1,2.4,3.7,5.5c-1.1,10.3-1.3,20.6-0.2,30.9c0.2,1.8,0.8,3.9-2,4.1
			c-2.5,0.1-2.1-2-2.3-3.6c-2.1-11.6-1.7-23.1,0.4-34.6C515.6,255.9,515.7,255.1,515.9,254.3z"/>
		<path class="st20" d="M289.3,212.2c-1.4,1.6-1.5,3.7-1.8,5.8c-0.1,0.7-2.4,0.9-3.7,1.5c-2,1-3-0.3-3.5-1.8c-1-3.1,0.4-6.1,2.2-8.1
			c1.3-1.4,4,0.5,6,1.2C289,211,289.4,211.3,289.3,212.2z"/>
		<path class="st7" d="M575.5,197.1c4.1,1,7.7,2.1,10.9,4.3c0.7,0.5,2.1,1.1,1.5,1.9c-1.1,1.5-2.6,2.8-4.1,4
			c-1.2,0.9-1.4-0.6-1.9-1.2C579.7,203.2,577.6,200.1,575.5,197.1z"/>
		<path class="st20" d="M297.6,233.7c1.8,0,3.8-0.6,4.7,1.5c0.1,0.3-0.3,1.2-0.6,1.2C299.5,237.1,299,234.8,297.6,233.7z"/>
		<path class="st20" d="M553.3,301c1.8,2.9,1.1,4.9,1.2,6.9C552.6,306.2,553,304.1,553.3,301z"/>
		<path class="st20" d="M568.7,245.9c0.3,0.3,0.6,0.6,0.9,0.9c-1.6,1.3-3.5,1.8-6.2,2.4C565.3,247.3,567,246.5,568.7,245.9z"/>
	</g>
	<g>
		<path class="st11" d="M107.8,106.3c-30.2,0-60.5,0-90.7,0c-11.9,0-17-5-17.1-17.2C0,68.5,0,47.8,0,27.1c0-1.8-0.1-3.6,0.2-5.4
			C1.5,14.2,6.6,9.3,14.4,9.1c17.1-0.4,34.2-0.4,51.3-0.4c43.1,0,86.1,0.1,129.2,0.2c2.3,0,4.7,0,7,0.3c8.5,1.2,13.9,6.8,14,15.3
			c0.1,22.2,0.4,44.4-0.4,66.7c-0.4,9.7-5.1,14.1-15,14.1c-30.9,0.1-61.8,0-92.7,0C107.8,105.7,107.8,106,107.8,106.3z"/>
		<path class="st15" d="M107.6,101.8c-30,0-59.9,0-89.9,0c-9.4,0-13.9-4-13.9-13.4c0-21,0-42,0.1-62.9c0.1-7.7,3.5-11.4,11-12.3
			c2.7-0.3,5.5-0.3,8.3-0.3c58.9-0.1,117.9-0.1,176.8-0.2c1.2,0,2.4,0.1,3.7,0.5c5.2,1.6,8.6,5.5,8.6,10.9c0.1,22.4,0,44.7-0.2,67.1
			c-0.1,6.5-4.4,9.9-12.1,9.9c-22.8,0.1-45.6,0.1-68.3,0.2c-8,0-16,0-24,0C107.6,101.4,107.6,101.6,107.6,101.8z"/>
		<path class="st7" d="M94.3,89.7c-12,0-23.9-0.1-35.9,0.1c-3.4,0.1-5.8-0.3-6.2-4.2c-1-0.2-1.7-0.9-2.4-1.6c-0.8,6.2-5.2,6-9.9,5.8
			c-5.5-0.3-10.9-0.1-16.4,0c-1.9,0-3.5-0.3-4.7-1.8c0.4-1.9,2.1-2,3.4-2.5c6.7-2.5,13.8-3.9,20.6-6.3c0.7-0.2,1.4-0.4,2-0.4
			c9.2,1.3,17-3.8,25.4-6c5.2-1.3,10.2-3.4,15.2-5.4c3-1.2,6.2-0.9,9.2-1.3c5.1-0.6,9.9-0.7,14.8,0.7c1.6,0.4,3.1-0.8,4.6-1.7
			c8.7-4.8,17.3-9.8,26.2-14c2.6-1.2,5.3-2.3,6.6,1.6c2.2-3.7,4-4.7,7.9-3.9c3,0.6,6,1.2,8.8,2.3c3.6,1.3,6.4,0.4,9.2-1.9
			c4.1-3.3,8.1-6.7,12.2-9.9c1.1-0.9,2.1-2.3,3.9-1.7c1.1,2.8,2.3,1.3,3.5,0c1.5,2-0.3,4.7,1.5,6.6c-0.8,1.7,0.4,3.4-0.1,5.1
			c-1.2,2.2-1.2,4.4,0.1,6.5c-1,1.9-0.2,3.8,0,5.7c-1.4,2.1-1.1,4.3-0.1,6.5c0,1.8,0,3.5,0,5.3c-1.1,2.2-1.2,4.4,0.1,6.5
			c0.2,2.2-1.1,4.4,0.7,6.7c0.6,0.8,0.7,2.9-0.7,4c-0.5-1-1-1.6-1.6,0c-0.6-0.4-1.2-1.1-1.7-1c-14.1,2.1-28.1,1.3-42.2,0.2
			c-0.9-1.3-1.7-1.5-2.6,0c-16.3,1.8-32.7-0.7-49-0.1C95.8,87.3,95,88.4,94.3,89.7z"/>
		<path class="st19" d="M34.4,18.4c12.2,0,21.2,8.8,21.1,20.6c-0.1,12.1-9.1,20.8-21.4,20.8c-11.7,0-21.1-9.3-21-20.9
			C13.1,27.3,22.4,18.4,34.4,18.4z"/>
		<path class="st24" d="M188.8,37.6c-5.1,4.1-10.4,8.2-15.3,12.5c-3,2.6-5.9,3.7-9.8,2.2c-2.7-1-5.5-1.6-8.4-2.3
			c-5.1-1.2-6.6-0.2-7.5,4.8c-0.1,0.5-0.5,0.9-0.8,1.5c-0.3-0.3-0.6-0.5-0.6-0.8c-1.5-5.5-1.9-5.8-7.3-2.9
			c-8.1,4.3-16.3,8.6-24.2,13.3c-3.8,2.3-7.3,2.9-11.2,0.6c-1.6-1-3.1-1.2-4.8,0.1c-1.7,1.3-3.7,1.8-5.7,0.3
			C92,66.1,91,66.8,90,67.2c-12.3,4.2-24.7,8.4-37,12.7c-0.6,0.2-1.4,0.7-1.9,0.6c-9.3-2.4-16.9,3.5-25.4,5
			c-2.4,0.4-4.6,1.7-6.9,2.5c-1.1,0-2.5,0.4-2.7-1.2c-0.2-1.6,1.3-1.8,2.5-2.2c7.7-2.6,15.3-5.3,23-7.8c1.9-0.6,3-1.2,3.3-3.5
			c0.3-2.7,2.5-4.2,5.3-4.4c2.6-0.2,4.8,0.8,5.6,3.3c0.6,2.1,1.5,1.6,3,1.2c9.7-2.7,19-6.3,28.5-9.6c1.5-0.5,2.1-1.3,2.2-3
			c0.2-3.1,2.2-5,5.3-5.4c3.2-0.4,5.6,1,7,4c1.7,3.7,6.7,5.3,10.1,3.3c8.6-4.9,17.2-9.8,25.8-14.7c1.6-0.9,2.6-1.9,3.2-3.9
			c1.3-4.4,7.4-6,9.8-2.3c2.7,4.1,6.8,4.1,10.5,5.6c4.4,1.8,8.2,1.3,11.7-2.5c2.6-2.8,5.9-4.9,8.8-7.5c2.6-2.3,6-3.7,5.3-8.7
			c-0.5-3.4,3.3-5.8,6.8-5.5c3.6,0.3,6,3.2,5.8,6.7c-0.2,3.3-3.4,6.4-7,6.4C191.1,36.4,189.6,35.6,188.8,37.6z"/>
		<path class="st10" d="M93,25.8c6.6,0,13.2,0,19.9,0c1.7,0,3.8,0.1,3.7,2.2c-0.1,2.1-2.2,2-3.9,2c-13.4,0-26.8,0-40.1,0
			c-1.8,0-4.2,0-4.3-2.2c-0.1-2.7,2.6-2.3,4.4-2.3c6.8,0,13.5,0,20.3,0C93,25.6,93,25.7,93,25.8z"/>
		<path class="st25" d="M49.8,83.9c1.6-0.7,2.3,0.1,2.4,1.6c-0.7,1.4,1.1,4.2-1.5,4.1c-1.9-0.1-0.8-2.7-1-4.1
			C49.7,85,49.8,84.5,49.8,83.9z"/>
		<path class="st26" d="M94.3,89.7c0.4-1.6-0.9-4.5,1.1-4.5c2.1,0,0.9,2.9,1.2,4.5C95.9,90.1,95.1,90.4,94.3,89.7z"/>
		<path class="st27" d="M145.7,89.7c0.5-1.4-0.7-4.1,1.3-4.1c2,0,0.7,2.7,1.3,4.1C147.4,90.8,146.5,90.8,145.7,89.7z"/>
		<path class="st28" d="M193.8,55.8c-2.4-1.6-2.4-4.7-0.1-6.5C193.7,51.4,193.7,53.6,193.8,55.8z"/>
		<path class="st29" d="M193.7,44.2c-3.5-1.5-1.1-4.4-1.5-6.6C195.7,39.1,193.3,41.9,193.7,44.2z"/>
		<path class="st29" d="M193.8,79.8c-2.4-1.6-2.5-4.5-0.1-6.5C194.2,75.5,194,77.7,193.8,79.8z"/>
		<path class="st30" d="M193.7,68c-2.4-2-2.3-5,0.1-6.5C194,63.7,194.1,65.8,193.7,68z"/>
		<path class="st22" d="M192.1,90.5c0.2-1.7-1.1-4.8,0.8-4.8c2,0,0.6,3.1,0.8,4.8C193.2,90.5,192.7,90.5,192.1,90.5z"/>
		<path class="st31" d="M146.9,80.7c-1.7-2.4-1.4-4.7-0.5-7c0-0.1,0.9-0.1,1,0C148.3,75.9,148.5,78.2,146.9,80.7z"/>
		<path class="st32" d="M95.5,79.5c-1.2-2.4-1.6-4.8,0-7.6C97.1,74.8,96.6,77.2,95.5,79.5z"/>
		<path class="st9" d="M146.9,61.7c1.1,2.1,1.1,4.2,0.3,7.1C145.5,65.9,146,63.8,146.9,61.7z"/>
		<path class="st7" d="M34.1,35.5c2.7,0.1,4.6,1.1,4.5,3.9c-0.1,2.5-1.8,4-4.3,4c-2.3,0-4-1.3-4-3.7C30.2,37.1,31.7,35.7,34.1,35.5z
			"/>
		<path class="st7" d="M39.7,36.1c1.7-3,4.9-4.8,7.3-7.2c1.1-1.1,1.5,0,2,0.9c0.6,1.2,0.2,2.9-0.7,2.7c-3.8-0.9-5,2.6-7.4,3.9
			C40.6,36.5,40.2,36.8,39.7,36.1z"/>
		<path class="st7" d="M30.6,25.3c-0.7,2.4-4.1,1.7-5.4,3.9c-0.1,0.2-2.2-1.2-2.1-2c0.5-2.9,3.3-2.6,5.4-3.4
			C29.6,23.4,30.4,23.6,30.6,25.3z"/>
		<path class="st7" d="M39.2,23.5c2.2,0.9,5,1,5.8,3.8c0.1,0.5-1.3,1.8-2.2,1.3c-1.9-1.1-4.6-1.4-5.3-4
			C37.2,23.8,38.2,23.3,39.2,23.5z"/>
		<path class="st7" d="M51.4,39.2c0,0.7-0.6,1.8-2.1,1.7c-1.4-0.1-2.4-0.9-2.5-2.3c-0.1-1.5,0.9-2.7,2.5-2.6
			C50.8,36,51.4,37.1,51.4,39.2z"/>
		<path class="st7" d="M18.8,36.3c1.5,0.3,2.5,1.1,2.4,2.5c-0.1,1.3-1.1,2.2-2.6,2.2c-1.5-0.1-2.3-0.9-2.2-2.4
			C16.6,37.1,17.5,36.3,18.8,36.3z"/>
		<path class="st7" d="M32.8,24.9c0.2-0.9-0.4-2.2,1-2.4c1.6-0.1,1.4,1.4,1.5,2.4c0.1,1.1,0.1,2.6-1.3,2.6
			C32.5,27.5,33.1,25.8,32.8,24.9z"/>
		<path class="st7" d="M18.9,31c0.2-1,0.6-1.8,1.5-1.8c1.4,0.1,2.1,1.2,2.6,2.4c0.4,0.9-0.5,1.2-1.2,1.1
			C20.5,32.6,19.2,32.4,18.9,31z"/>
		<path class="st33" d="M146.2,42.7c1.9,0.2,3.3,1.2,3.2,3.1c-0.1,1.9-1.5,2.9-3.3,2.9c-1.7,0-2.8-1-2.9-2.8
			C143.1,43.9,144.5,43,146.2,42.7z"/>
		<path class="st34" d="M49.8,72c1.7,0.1,3,0.9,3.1,2.7c0.1,1.9-1,3.3-2.9,3.3c-1.7,0-2.7-1.3-2.9-2.9C46.9,73.2,48.1,72.3,49.8,72z
			"/>
		<path class="st35" d="M189.8,29.5c0.4-1.5,1.2-2.8,2.9-2.9c2-0.1,3,1.3,3,3.1c0,1.5-1,2.6-2.5,2.7
			C191.3,32.5,190.3,31.2,189.8,29.5z"/>
		<path class="st36" d="M98.4,61.3c-0.3,1.7-1.2,2.9-2.9,2.9c-1.7,0-2.9-1-2.9-2.8c-0.1-1.9,1.3-2.8,2.8-2.9
			C97.2,58.4,98,59.8,98.4,61.3z"/>
	</g>
	<g>
		<path class="st37" d="M339.2,104.9c-27.9,0-55.8,0-83.6,0c-2.5,0-5-0.1-7.4-0.3c-10.5-0.7-15.5-5.8-15.5-16.4
			c0.1-18.8,0.5-37.5,0.7-56.3c0.1-5.5,0.1-11,0.2-16.6c0.2-9.1,5-14.3,14.2-15c3.2-0.3,6.3-0.3,9.5-0.3
			c57.1,0.2,114.3,0.5,171.4,0.7c3.7,0,7.5,0.1,11.1,1.1c6.8,1.8,10.6,5.8,10.7,12.8c0.3,24.4,0.5,48.9-0.4,73.3
			c-0.4,10.5-7.5,16.4-18.9,16.5c-23.7,0.3-47.5,0.4-71.2,0.6C353,105,346.1,105,339.2,104.9C339.2,104.9,339.2,104.9,339.2,104.9z"
			/>
		<path class="st15" d="M340.5,100.3c-29.5,0-59.1,0.1-88.6,0c-12.1,0-15.8-3.8-15.7-16c0.1-22,0.3-43.9,0.4-65.9
			c0-2.7-0.1-5.5,1.1-8.1c1.3-3,3.4-5,6.8-5.3c3-0.3,6-0.7,9.1-0.7c57.8,0,115.7,0,173.5,0c3.9,0,7.7,0,11.5,1.1
			c5,1.5,7.9,5.1,7.9,10.4c0,23.1,0,46.1-0.2,69.2c-0.1,10-4.8,14.6-15,14.6c-30.2,0.1-60.5,0-90.7,0
			C340.5,99.8,340.5,100,340.5,100.3z"/>
		<path class="st7" d="M429.9,58.8c1,7.8,2.3,15.6-0.8,23.2c-1.2,1.4-2.8,0.9-4.3,0.9c-27.6,0-55.2,0-82.7,0c-0.7,0-1.4,0-2.1,0
			c-2.1,0-2.9-1.3-3-3.2c0-2.2,1-3.5,3.2-3.4c3.6,0.3,7.2,0.2,10.7,0.6c2.9,0.4,5.1-0.4,7.1-2.3c1.5-1.5,3.1-2.8,4.9-3.8
			c4-2.3,7.2-0.6,7.6,4.1c1-5.2,3.7-7.8,8.5-6.6c7,1.7,13,0.5,18.5-4.1c0.8-0.7,1.9-1.2,2.9-1.5c3.3-1,5.8,0.7,6.1,4.1
			c0.2,2.2,0,4.4,0,5.7c-0.7-4.1,0-8.6,4.6-11.6c0.3-0.2,0.6-0.6,1-0.8C418.1,58.2,423.9,56.9,429.9,58.8z"/>
		<path class="st9" d="M440.9,29.2c0.3,10.1-7.5,18.2-18,18.7c-9,0.4-17.5-8.2-17.8-17.7c-0.3-9.7,7.7-17.8,17.7-18
			C432.6,11.9,440.6,19.4,440.9,29.2z"/>
		<path class="st10" d="M285.5,92c-22.7-0.1-40.1-16.6-40-38c0.1-21,17.9-38,39.9-38c22.3-0.1,39.7,16.7,39.7,38.4
			C325.2,76,308.2,92.1,285.5,92z"/>
		<path class="st10" d="M429.9,58.8c-4.9,0.4-9.9,0.7-14.8,1.3c-3.1,0.3-7.1,5.1-7.1,8.3c0,3-0.1,6.1-0.2,9.1c0,0.4-0.3,0.7-0.6,1.4
			c-2.1-2.2-0.6-4.8-1.1-7c-0.6-2.7,1.7-6.1-2-8.1c-3.7-2-6,1.2-7.8,2.8c-5.3,4.8-11,4.1-17,2.7c-4.4-1-7.3,1.5-7.3,6.1
			c0,0.8,0,1.7,0,2.5c0,0.7,0,1.5-0.9,1.6c-1.1,0.1-1.3-0.8-1.4-1.7c-0.1-1.2,0-2.5-0.1-3.7c0-1.1,0.7-2.5-1.3-2.9
			c-1.4-0.3-2.7-1.6-4,0c-0.1,0.1-0.3,0.1-0.3,0.2c-6,8-14.3,7.2-22.7,5.9c-1.8-0.3-3.5-0.6-3.5,2.3c0,2.6,1.4,2.4,3.1,2.4
			c29.4-0.1,58.8-0.1,88.2-0.2c0.8,0.6,1.2,1.4,0,1.7c-1.2,0.3-2.5,0.2-3.7,0.3c-28.8,0-57.7,0-86.5,0.1c-2.9,0-3.9-0.7-3.7-3.6
			c0.2-4.1,0.1-8.3,0.1-12.4c0-0.9-0.3-2.2,1-2.3c1.2-0.1,1.6,1.2,1.4,2.1c-1.4,6.2,2.9,5.8,7,6.6c7.4,1.5,12.7-1.4,17.5-6.4
			c1-1,1.9-1.9,1.9-3.5c0.2-3,2.2-4.3,4.8-4.8c2.9-0.6,5.5,0.4,6.5,3.1c0.8,2,2,2.3,3.8,3c7.7,3.1,13.5-0.4,19.2-4.7
			c1.1-0.8,1.6-1.6,1.9-2.9c0.5-2.8,2.2-4.8,5.1-5.3c2.7-0.5,4.9,0.7,6.1,3.1c0.8,1.6,2,1.6,3.4,1.4c4.2-0.5,8.5-0.7,12.7-1.3
			C430.8,55.7,430.8,56.8,429.9,58.8z"/>
		<path class="st21" d="M364.7,36.5c-9.2,0-18.5,0-27.7,0c-1.6,0-3.8,0.2-3.7-2c0.1-1.8,2-1.9,3.6-1.9c18.7,0,37.5-0.1,56.2-0.1
			c1.6,0,3.8-0.3,3.7,2.1c-0.1,2-2,1.8-3.6,1.8C383.7,36.5,374.2,36.5,364.7,36.5C364.7,36.5,364.7,36.5,364.7,36.5z"/>
		<path class="st11" d="M352.4,21.7c5.2,0,10.4,0,15.7,0c1.7,0,3.3,0.2,3.4,2.1c0,1.9-1.6,2.2-3.3,2.2c-10.4-0.1-20.9-0.1-31.3-0.1
			c-1.5,0-3.4,0.2-3.4-2c0.1-2.1,1.9-2.3,3.7-2.3C342.3,21.6,347.4,21.6,352.4,21.7C352.4,21.6,352.4,21.6,352.4,21.7z"/>
		<path class="st7" d="M413.8,29.6c0.5-2,1.7-2.9,3.8-2c1,0.4,1.9,1.3,2.4,2.2c1.5,2.4,2.7,1.8,4.3,0c1.5-1.8,3.2-3.4,4.9-5
			c1.2-1.1,2.6-1.7,4-0.3c1.3,1.3,0.6,2.6-0.4,3.6c-3,3.1-6,6.1-9,9.1c-0.5,0.5-1.2,0.9-1.8,0.9C420.8,38.2,413.8,31.1,413.8,29.6z"
			/>
		<path class="st7" d="M321.6,54.2c0.2,19-15,34.1-34.7,34.4c-21,0.4-37.6-14.5-37.8-33.8c-0.2-19.9,16-35.6,37.2-35.4
			C306.1,19.5,321.9,34.4,321.6,54.2z"/>
		<path class="st38" d="M373.8,66.1c-0.3,2.1-1.2,3.5-3.4,3.4c-2.2-0.1-3.6-1.3-3.5-3.7c0.1-2.2,1.6-3.1,3.6-3
			C372.5,62.9,373.7,64.1,373.8,66.1z"/>
		<path class="st34" d="M406.2,55.5c2.2,0.2,3.6,1.4,3.7,3.6c0.1,2.2-1.5,3.1-3.5,3.2c-2,0.1-3-1.3-3.1-3.1
			C403.1,57.3,403.9,55.8,406.2,55.5z"/>
		<path class="st9" d="M260.3,51.8c-0.6-0.4-1.1-0.8-1.6-1c-5.2-2-5.3-2.2-3.3-7.4c1-2.7,2.3-5.3,4.1-7.6c1.3-1.5,2.4-2.8,3.9-0.3
			c0.2,0.3,0.5,0.7,0.9,0.8c1.1,0.4,1.9,2.8,3.3,1.2c1.3-1.5-0.8-2.2-1.7-3.1c-0.8-0.9-1.8-1.6-2.9-2.6c3.5-3.3,7.4-5.9,12.1-7.4
			c2.2-0.7,3.1-0.3,3.1,2c0,0.4,0,0.9,0.2,1.2c0.7,1,0.4,3.4,2.3,2.7c1.6-0.6,0.9-2.5,0.3-3.6c-1.8-3.2-0.3-3.8,2.6-4
			c9.9-0.8,18.4,2.2,25.5,9.2c0.4,0.4,1,1,1,1.1c-1.8,2.5-4.3,4.1-6.6,6c-1.7,1.4-2.4-0.4-3.4-1.1c-7.8-5.5-15.9-6.7-24.4-1.9
			c-12.2,6.8-14.8,20.3-6.3,31.6c0.8,1.1,2.8,2.2,1.4,3.8c-1.8,2.1-4,3.7-6.1,5.5c-0.1,0.1-0.9-0.6-1.3-0.9c-6-5.4-9.4-12-10-20.2
			c-0.2-2.9,0.2-4.7,3.7-3.3C258.1,53,259.2,53.3,260.3,51.8z"/>
		<path class="st14" d="M307.4,53.2c-0.1-3.6,3.4-7.4,7.1-7.9c1.5-0.2,2.4,0.3,2.7,1.8c2.2,9.9,0.6,18.8-6.5,26.5
			c-1.5,1.6-2.9,2.6-4.6,0.3c-0.5-0.6-1.2-1.1-1.9-1.5c-2.9-1.7-3.1-3.5-1.1-6.2C306.8,61.1,307.5,58.4,307.4,53.2z"/>
		<path class="st14" d="M290.1,61.5c-3.8,0.1-7-2.7-6.7-5.9c0.3-3.3,3.5-5.9,7-5.2c1.8,0.4,2.8-0.4,4-1.3
			c5.1-3.8,10.1-7.6,15.3-11.3c1.2-0.9,2.5-2.2,4.1,0c1.6,2.2,0.4,3.2-1.1,4.3c-3.7,2.7-7.3,5.4-10.9,8.2c-2.9,2.2-6.1,4-7.1,8.2
			C294.3,60.4,292.3,61.6,290.1,61.5z"/>
	</g>
</g>
</svg>
