<?xml version="1.0" encoding="utf-8"?>
<!-- Generator: Adobe Illustrator 24.3.0, SVG Export Plug-In . SVG Version: 6.00 Build 0)  -->
<svg version="1.1" id="Layer_1" xmlns="http://www.w3.org/2000/svg" xmlns:xlink="http://www.w3.org/1999/xlink" x="0px" y="0px"
	 width="124.9px" height="119.4px" viewBox="0 0 124.9 119.4" style="enable-background:new 0 0 124.9 119.4;" xml:space="preserve"
	>
<style type="text/css">
	.st0{fill:#185AE9;}
	.st1{fill:#00B0FB;}
	.st2{fill:none;}
	.st3{fill:#00B0FB;fill-opacity:0.4;}
	.st4{fill:#FFFFFF;}
</style>
<g>
	<path class="st2" d="M27.2,18.9c5.5,0,10.9,0,16.4,0h16.1c5.8,0,11.7,0,17.5,0c0.2,0,0.6,0,1-0.3c0.3-0.3,0.3-0.8,0.3-1
		c0-4.7,0-9.4,0-14.1c0-0.3,0-0.7-0.3-1c-0.3-0.3-0.8-0.3-1-0.3H53.3c-8.7,0-26.2,0-26.2,0c-0.2,0-0.6,0-1,0.3
		c-0.3,0.3-0.3,0.8-0.3,1c0,4.7,0,9.4,0,14.1c0,0.3,0,0.7,0.3,1C26.5,18.9,27,18.9,27.2,18.9z"/>
	<path class="st2" d="M82,98.8l0.2,0c1.9,0.1,3.8,0.1,5.7,0.2c1.4,0.1,4.5,0.2,4.6,0.2c0.1,0,0.5,0,0.7-0.3c0.3-0.3,0.3-0.6,0.3-0.9
		l0-0.2c0-2.6,0-9.6,0-13.6c0-0.4-0.4-0.8-0.8-0.8h-1.6c-1.9,0-3.8,0-5.7,0c-0.4,0-0.8-0.1-1-0.4c-0.2-0.2-0.4-0.6-0.4-1
		c0-4.3,0-8.7,0-13V46.7c0-0.9,0.4-1.3,1.3-1.3h7.3c0.4,0,0.8-0.4,0.8-0.8c0-9.5,0-23.6,0-32.4V12c0-0.3,0-0.7-0.3-1
		c-0.3-0.3-0.6-0.3-0.8-0.3l-0.3,0l-3.1,0c-2.4,0-4.7,0-7.1,0c-0.3,0-0.7,0-1,0.3c-0.3,0.3-0.4,0.7-0.4,1c0,1.6,0,3.3,0,4.9v1
		c0,1.8-1.3,3.1-3.1,3.1H26.9c-2,0-3.2-1.2-3.2-3.2l0-1.3c0-1.5,0-3,0-4.6c0-0.2,0-0.6-0.3-0.9c-0.3-0.3-0.8-0.3-0.9-0.3
		c-1.8,0-3.6,0-5.4,0c-1.4,0-2.7,0-4.1,0c-0.4,0-1.2,0.2-1.2,1.3c0,3.3,0,36.7,0,40c0,0.1,0,0.2,0,0.3v63.5c0,0.4,0,0.8,0.3,1.1
		c0.3,0.3,0.7,0.3,1.1,0.3h0.1h4.9c18.7,0,37.4,0,56.1,0c0.2,0,0.7,0,1-0.3c0.3-0.3,0.3-0.7,0.3-1.1c0-3.3,0-6.5,0-9.8v-0.8
		C75.6,101.7,78.5,98.8,82,98.8z M22.2,36.2c0.5-0.5,1.2-0.8,2-0.8c1.7,0,3.3,0,5,0h7.3c1.4,0,2.5,1.1,2.5,2.5v6.2c0,0,0,0.1,0,0.1
		v6c0,1.7-1,2.7-2.7,2.7H24.1c-1.6,0-2.7-1-2.7-2.7l0-3.6c0-2.8,0-5.7,0-8.5C21.4,37.4,21.7,36.7,22.2,36.2z M36.5,96.6
		c-2.1,0-4.3,0-6.4,0c-2.1,0-4.1,0-6.2,0c-1.4,0-2.4-1.1-2.4-2.5c0-4.2,0-8.4,0-12.6c0-1.4,1.1-2.4,2.5-2.4c0.8,0,1.6,0,2.5,0l3.9,0
		l3.8,0c0.8,0,1.6,0,2.4,0c1.4,0,2.5,1.1,2.5,2.5c0,4.2,0,8.3,0,12.5C39,95.5,37.9,96.6,36.5,96.6z M39,72.2c0,1.4-1.1,2.6-2.5,2.6
		c-2.2,0-4.4,0-6.6,0c-2.1,0-4.1,0-6.1,0c-1.2,0-2.3-1.2-2.3-2.4c0-4.2,0-8.4,0-12.6c0-1.4,1.1-2.5,2.5-2.5l12.4,0
		c1.5,0,2.6,1.1,2.6,2.6V66c0,0.1,0,0.1,0,0.1V72.2z M66.4,90.5c-0.2,0.5-0.7,0.6-1,0.6h-9.7l-5.4,0c-1.4,0-2.8,0-4.2,0h0
		c-0.3,0-0.7-0.2-0.9-0.5c-0.1-0.2-0.2-0.5-0.1-0.9c0.1-0.3,0.4-0.5,0.9-0.5c0.6,0,19.4,0,19.4,0c0.4,0,0.7,0.1,0.9,0.4
		C66.5,89.8,66.5,90.2,66.4,90.5z M71.7,84.9l-25.5,0c-0.5,0-1.1-0.2-1.1-1c0-0.3,0.1-0.5,0.2-0.7c0.2-0.2,0.5-0.3,0.8-0.3h25.6
		c0.6,0,1,0.4,1,1C72.7,84.5,72.3,84.9,71.7,84.9z M72.1,70c-0.2,0.1-0.3,0.1-0.5,0.1H46.1c-0.4,0-0.8-0.2-1-0.5
		c-0.2-0.3-0.2-0.6,0-1c0.1-0.2,0.4-0.5,1-0.5h25.5c0.5,0,0.9,0.3,1,0.7C72.8,69.4,72.6,69.8,72.1,70z M45,62.8
		c0-0.5,0.4-0.9,0.9-0.9c0.2,0,0.3,0,0.5,0l0.7,0l24.4,0c0.7,0,1.1,0.4,1.1,1c0,0.3-0.1,0.5-0.2,0.7c-0.2,0.2-0.5,0.3-0.8,0.3H46.1
		c-0.3,0-0.7-0.1-0.8-0.3C45.1,63.4,45,63.1,45,62.8z M72.6,46.9c0,0.1-0.2,0.5-0.9,0.5H46c-0.4,0-0.7-0.2-0.9-0.4
		c-0.1-0.1-0.3-0.5-0.1-0.9c0.2-0.4,0.4-0.6,0.9-0.6c0.3,0,0.6,0,0.9,0h24.7c0.5,0,0.7,0.1,0.9,0.3C72.7,46.2,72.8,46.5,72.6,46.9z
		 M72.6,40.7c-0.2,0.4-0.5,0.5-1,0.5H46.1c-0.4,0-0.7-0.1-0.9-0.3c-0.2-0.2-0.3-0.4-0.2-0.7c0-0.4,0.4-0.8,0.8-0.9
		c0.1,0,0.3,0,0.4,0h25.4c0.4,0,0.8,0.2,0.9,0.5C72.7,40.1,72.7,40.4,72.6,40.7z"/>
	<path class="st1" d="M11.9,10.7c-0.4,0-1.2,0.1-1.2,1.3c0,3.3,0,36.7,0,40c0,0.1,0,0.2,0,0.3v63.5c0,0.4,0,0.8,0.3,1.1
		c0.3,0.3,0.7,0.3,1.1,0.3h1c-0.4,0-0.8,0-1.1-0.3c-0.3-0.3-0.3-0.7-0.3-1.1V52.3c0-0.1,0-0.2,0-0.3c0-3.3,0-36.7,0-40
		c0-1.1,0.8-1.2,1.2-1.3C12.6,10.7,12.2,10.7,11.9,10.7L11.9,10.7z"/>
	<path class="st1" d="M37,86.4c0-1.5,0-3,0-4.4c0-0.1,0-0.5-0.2-0.8C36.5,81,36.2,81,36.1,81H24.3c-0.1,0-0.5,0-0.7,0.2
		c-0.2,0.3-0.2,0.6-0.2,0.7c0,3.9,0,7.8,0,11.7c0,0.2,0,0.4,0.2,0.6c0.1,0.2,0.3,0.4,0.8,0.4c2.1,0,4.2,0,6.4,0h5.4
		c0.1,0,0.5,0,0.7-0.2c0.3-0.2,0.3-0.6,0.2-0.7c0-1.4,0-2.8,0-4.2V86.4z"/>
	<path class="st1" d="M24.3,51c2,0,4,0,6,0c1.9,0,3.9,0,5.8,0c0.1,0,0.5,0,0.7-0.2C37,50.5,37,50.2,37,50c0-3.9,0-7.8,0-11.8
		c0-0.1,0-0.4-0.2-0.7s-0.6-0.2-0.7-0.2c-1,0-2,0-2.9,0h-5.7l-3.1,0c-0.2,0-0.5,0-0.7,0.2c-0.2,0.2-0.2,0.6-0.2,0.7
		c0,3.9,0,7.9,0,11.8c0,0.1,0,0.4,0.2,0.7C23.9,51,24.2,51,24.3,51z"/>
	<path class="st1" d="M37,60.3c0-0.9-0.3-1.1-1.1-1.1l-6.7,0c-1.6,0-3.2,0-4.8,0c-0.3,0-0.6,0.1-0.8,0.3s-0.3,0.5-0.2,0.8v3.5
		c0,2.7,0,5.3,0,8c0,0.2,0,0.6,0.3,0.8c0.3,0.3,0.7,0.3,0.8,0.3c1.9,0,3.8,0,5.6,0c1.9,0,5.9,0,5.9,0c0.2,0,0.5,0,0.8-0.3
		C37,72.3,37,72,37,71.8c0-1.4,0-2.9,0-4.3V60.3z"/>
	<path class="st3" d="M91.7,101.9c-0.1-0.3-0.3-0.5-0.7-0.5c0,0-0.1,0-0.2,0l-2.4-0.1c-2.1-0.1-4.1-0.2-6.2-0.2l-0.1,0
		c-2.4,0-4.2,1.9-4.2,4.3v8.8c0,0.2-0.1,0.5,0.2,0.8c0.1,0.2,0.3,0.3,0.6,0.3c0,0,0,0,0.1,0c0.2,0,0.4-0.1,0.6-0.2l12.3-12.3
		C91.7,102.5,91.8,102.2,91.7,101.9z"/>
	<path class="st3" d="M86.3,48.9c0,7.4,0,14.9,0,22.3v8.9c0,0.2,0,0.6,0.3,0.9c0.3,0.3,0.6,0.3,0.8,0.3h9.7c6.6,0,13.1,0,19.7,0
		c1,0,1.3-0.6,1.3-0.9c0-0.1,0-0.1,0-0.2l0-0.7c0-0.1,0-0.3,0-0.4c0-6.6,0-30.2,0-30.2c0-0.4,0-0.8-0.3-1c-0.3-0.3-0.6-0.3-0.8-0.3
		l-0.4,0H109c-7.1,0-14.2,0-21.3,0C86.5,47.6,86.3,48.3,86.3,48.9z M92.2,64.7c0.3-0.3,0.6-0.4,0.9-0.4c0.3,0,0.5,0.1,0.7,0.3
		c1.4,1.3,2.7,2.7,4,4c0.1,0.1,0.4,0.4,0.9,0.4c0.5,0,0.8-0.3,0.9-0.4c2.2-2.2,4.4-4.4,6.5-6.5l2-2c1-1,2-2,2.9-2.9
		c0.2-0.2,0.5-0.4,0.9-0.4c0.3,0,0.5,0.1,0.7,0.2c0.3,0.3,0.4,0.5,0.4,0.8c0,0.3-0.1,0.6-0.4,0.8c-1.7,1.7-3.5,3.5-5.2,5.2l-2.8,2.8
		c-1.7,1.7-3.5,3.5-5.2,5.2c-0.2,0.2-0.4,0.3-0.6,0.3c0,0-0.2,0-0.2,0l-0.1,0c-0.1,0-0.4,0-0.7-0.4l-0.2-0.2
		c-1.8-1.8-3.6-3.6-5.4-5.4C91.8,65.8,91.8,65.1,92.2,64.7z"/>
	<path class="st4" d="M124.3,117.4c-0.2-0.1-0.5-0.2-0.9-0.2H82.4c-0.2,0-0.5-0.1-0.6-0.3c-0.2-0.2-0.2-0.4-0.2-0.7
		c0.1-0.4,0.4-0.7,0.5-0.8l13.3-13.3c0.3-0.3,0.4-0.6,0.4-0.8V84.3c0-0.4,0.4-0.8,0.8-0.8h6c0,0,13.9,0,16.7,0
		c0.7,0,1.1-0.4,1.1-1.1v-0.5c0-1,0-2,0-3V46.7c0-1-0.4-1.4-1.3-1.4H96.6c-0.4,0-0.8-0.4-0.8-0.8c0-8.3,0-20,0-28.8v-4.2
		c0-0.2,0-0.4-0.1-0.6c-0.4-1.5-1.5-2.4-3-2.4l-4.4,0c-2.1,0-4.2,0-6.3,0c-0.2,0-0.6,0-1-0.3c-0.3-0.3-0.3-0.8-0.3-0.9
		c0-1,0-2.1,0-3.1l0-1.1c0-0.3,0-0.5,0-0.7c-0.3-1.4-1.5-2.3-3-2.3H26.7c-1.8,0-3.1,1.3-3.1,3.1v1.1c0,1,0,1.9,0,2.9
		c0,0.3,0,0.7-0.3,1.1c-0.3,0.3-0.8,0.4-1,0.4c0,0,0,0,0,0c-1.9,0-3.7,0-5.6,0l-5.1,0c-1.7,0-3.1,1.2-3.1,2.9c0,2.9,0,24.3,0,34.1
		v69.3c0,0.4,0,0.8,0,1.2c0,0.1,0,0.6-0.3,0.9c-0.3,0.3-0.7,0.3-0.9,0.3c0,0,0,0,0,0c-1,0-2,0-3,0H1.6c-0.2,0-0.5,0-0.6,0.1
		c-0.4,0.1-0.7,0.4-0.9,0.7c-0.1,0.2-0.1,0.5,0.1,0.9c0.3,0.4,0.7,0.6,1.4,0.6c39,0,74.5,0,113,0c0,0,8.9,0,8.9,0c0.1,0,0.2,0,0.3,0
		c0.5-0.1,1-0.5,1.1-0.9C124.9,118.1,124.7,117.7,124.3,117.4z M109,47.6h7.8l0.4,0c0.1,0,0.5,0,0.8,0.3c0.3,0.3,0.3,0.6,0.3,1
		c0,0,0,23.5,0,30.2c0,0.1,0,0.3,0,0.4l0,0.7c0,0.1,0,0.1,0,0.2c-0.1,0.3-0.3,0.9-1.3,0.9c-6.5,0-13.1,0-19.7,0h-9.7
		c-0.2,0-0.6,0-0.8-0.3c-0.3-0.3-0.3-0.6-0.3-0.9v-8.9c0-7.4,0-14.9,0-22.3c0-0.6,0.2-1.3,1.3-1.3C94.8,47.6,101.9,47.6,109,47.6z
		 M25.8,3.5c0-0.2,0-0.6,0.3-1c0.3-0.3,0.8-0.3,1-0.3c0,0,17.4,0,26.2,0h23.9c0.2,0,0.6,0,1,0.3c0.3,0.3,0.3,0.7,0.3,1
		c0,4.7,0,9.4,0,14.1c0,0.2,0,0.6-0.3,1c-0.3,0.3-0.8,0.3-1,0.3c-5.8,0-11.7,0-17.5,0H43.6c-5.5,0-10.9,0-16.4,0c-0.2,0-0.7,0-1-0.3
		c-0.3-0.3-0.3-0.7-0.3-1C25.8,12.9,25.8,8.2,25.8,3.5z M75.7,115.8c0,0.3,0,0.7-0.3,1.1c-0.3,0.3-0.8,0.3-1,0.3
		c-18.7,0-37.4,0-56.1,0h-4.9c-0.1,0.3-0.3,0.6-0.4,0.9c-0.9-0.2-1.8-0.3-2.8-0.3c-0.1,0-0.2,0-0.3,0c0-0.8-0.1-1.6-0.2-2.4
		c0-0.2,0-0.4,0-0.6V45.5c0-9.9,0-31.2,0-34.1c0-0.4,0.1-0.8,0.2-1.1c0,0,0,0,0.1,0c2.2,0,4.2-0.5,5.8-1.2c0.1,0.6,0.2,1.1,0.3,1.7
		c-1,0-2,0-3,0h0c0,0,0,0,0,0c1.4,0,2.7,0,4.1,0c1.8,0,3.6,0,5.4,0c0.1,0,0.6,0,0.9,0.3c0.3,0.3,0.3,0.8,0.3,0.9c0,1.5,0,3,0,4.6
		l0,1.3c0,2,1.2,3.2,3.2,3.2h50.7c1.8,0,3.1-1.2,3.1-3.1v-1c0-1.6,0-3.3,0-4.9c0-0.3,0-0.7,0.4-1c0.3-0.3,0.7-0.3,1-0.3
		c2.4,0,4.7,0,7.1,0l3.1,0l0.3,0c0.1,0,0.5,0,0.8,0.3c0.3,0.3,0.3,0.6,0.3,1v0.2c0,8.8,0,23,0,32.4c0,0.4-0.4,0.8-0.8,0.8h-7.3
		c-0.9,0-1.3,0.4-1.3,1.3v22.4c0,4.3,0,8.7,0,13c0,0.4,0.1,0.8,0.4,1c0.2,0.2,0.6,0.4,1,0.4c1.9,0,3.8,0,5.7,0h1.6
		c0.4,0,0.8,0.4,0.8,0.8c0,3.9,0,10.9,0,13.6l0,0.2c0,0.2,0,0.6-0.3,0.9c-0.3,0.3-0.6,0.3-0.7,0.3c-0.1,0-3.2-0.1-4.6-0.2
		c-1.9-0.1-3.8-0.1-5.7-0.2l-0.2,0c-3.5,0-6.4,2.9-6.4,6.4v0.8C75.6,109.3,75.6,112.6,75.7,115.8z M78.6,115.2
		C78.6,115.2,78.6,115.2,78.6,115.2c-0.3,0-0.5-0.1-0.6-0.3c-0.2-0.3-0.2-0.6-0.2-0.8v-8.8c0-2.4,1.8-4.3,4.2-4.3l0.1,0
		c2.1,0.1,4.1,0.2,6.2,0.2l2.4,0.1c0.1,0,0.2,0,0.2,0c0.3,0,0.6,0.2,0.7,0.5c0.1,0.3,0,0.6-0.2,0.8L79.2,115
		C79.1,115.2,78.8,115.2,78.6,115.2z"/>
	<path class="st4" d="M12.1,117.2c-0.4,0-0.8,0-1.1-0.3c-0.3-0.3-0.3-0.7-0.3-1.1V52.3c0-0.1,0-0.2,0-0.3c0-3.3,0-36.7,0-40
		c0-1.1,0.8-1.3,1.2-1.3h0c0.3,0,0.6,0,1,0c0,0,0,0,0,0h0c1,0,2,0,3,0c-0.1-0.6-0.2-1.1-0.3-1.7c-1.6,0.8-3.6,1.2-5.8,1.2
		c0,0,0,0-0.1,0c-0.1,0.3-0.2,0.7-0.2,1.1c0,2.9,0,24.3,0,34.1v69.3c0,0.2,0,0.4,0,0.6c0.1,0.8,0.2,1.6,0.2,2.4c0.1,0,0.2,0,0.3,0
		c1,0,1.9,0.1,2.8,0.3c0.1-0.3,0.2-0.6,0.4-0.9h-0.1H12.1z"/>
	<path class="st4" d="M97.6,71.5l0.2,0.2c0.3,0.3,0.6,0.4,0.7,0.4l0.1,0c0,0,0.2,0,0.2,0c0.2,0,0.4-0.1,0.6-0.3
		c1.7-1.7,3.5-3.5,5.2-5.2l2.8-2.8c1.7-1.7,3.5-3.5,5.2-5.2c0.2-0.2,0.4-0.5,0.4-0.8c0-0.3-0.1-0.6-0.4-0.8
		c-0.2-0.2-0.4-0.2-0.7-0.2c-0.3,0-0.6,0.1-0.9,0.4c-1,1-2,1.9-2.9,2.9l-2,2c-2.2,2.2-4.4,4.4-6.5,6.5c-0.1,0.1-0.4,0.4-0.9,0.4
		c-0.5,0-0.8-0.3-0.9-0.4c-1.3-1.3-2.6-2.6-4-4c-0.2-0.2-0.5-0.3-0.7-0.3c-0.3,0-0.6,0.2-0.9,0.4c-0.4,0.4-0.3,1.1,0.1,1.5
		C94,68,95.8,69.8,97.6,71.5z"/>
	<path class="st4" d="M21.5,46.6l0,3.6c0,1.6,1,2.7,2.7,2.7h12.2c1.7,0,2.7-1,2.7-2.7v-6c0,0,0-0.1,0-0.1v-6.2
		c0-1.4-1.1-2.5-2.5-2.5h-7.3c-1.7,0-3.3,0-5,0c-0.8,0-1.4,0.3-2,0.8c-0.5,0.5-0.8,1.2-0.8,2C21.5,41,21.5,43.8,21.5,46.6z
		 M23.4,38.3c0-0.1,0-0.4,0.2-0.7c0.2-0.2,0.6-0.2,0.7-0.2l3.1,0h5.7c1,0,2,0,2.9,0c0.1,0,0.5,0,0.7,0.2s0.2,0.6,0.2,0.7
		c0,3.9,0,7.8,0,11.8c0,0.1,0,0.4-0.2,0.7C36.5,51,36.2,51,36.1,51c-1.9,0-3.9,0-5.8,0c-2,0-4,0-6,0c-0.1,0-0.5,0-0.7-0.2
		c-0.2-0.2-0.2-0.6-0.2-0.7C23.4,46.1,23.4,42.2,23.4,38.3z"/>
	<path class="st4" d="M36.5,79.1c-0.8,0-1.6,0-2.4,0l-3.8,0l-3.9,0c-0.8,0-1.6,0-2.5,0c-1.4,0-2.5,1.1-2.5,2.4c0,4.2,0,8.4,0,12.6
		c0,1.4,1.1,2.5,2.4,2.5c2.1,0,4.1,0,6.2,0c2.2,0,4.3,0,6.4,0c1.4,0,2.4-1.1,2.5-2.5c0-4.2,0-8.3,0-12.5
		C39,80.2,37.9,79.1,36.5,79.1z M36.8,94.4c-0.2,0.2-0.6,0.2-0.7,0.2h-5.4c-2.1,0-4.2,0-6.4,0c-0.5,0-0.7-0.2-0.8-0.4
		c-0.2-0.2-0.2-0.5-0.2-0.6c0-3.9,0-7.8,0-11.7c0-0.1,0-0.5,0.2-0.7c0.2-0.2,0.6-0.2,0.7-0.2h11.7c0.1,0,0.5,0,0.7,0.2
		C37,81.5,37,81.8,37,82c0,1.5,0,3,0,4.4v3.1c0,1.4,0,2.8,0,4.2C37,93.8,37,94.2,36.8,94.4z"/>
	<path class="st4" d="M39,59.8c0-1.5-1.1-2.6-2.6-2.6l-12.4,0c-1.4,0-2.5,1.1-2.5,2.5c0,4.2,0,8.4,0,12.6c0,1.3,1.1,2.4,2.3,2.4
		c2,0,4.1,0,6.1,0c2.2,0,4.4,0,6.6,0c1.4,0,2.5-1.1,2.5-2.6v-6c0-0.1,0-0.1,0-0.1V59.8z M36.8,72.6c-0.2,0.3-0.6,0.3-0.8,0.3
		c0,0-4,0-5.9,0c-1.9,0-3.7,0-5.6,0c-0.1,0-0.5,0-0.8-0.3c-0.2-0.2-0.3-0.6-0.3-0.8c0-2.7,0-5.3,0-8v-3.5c0-0.3,0.1-0.6,0.2-0.8
		s0.4-0.3,0.8-0.3c1.6,0,3.2,0,4.8,0l6.7,0c0.9,0,1.1,0.3,1.1,1.1v7.2c0,1.4,0,2.9,0,4.3C37,72,37,72.3,36.8,72.6z"/>
	<path class="st4" d="M71.6,45.5H46.9c-0.3,0-0.6,0-0.9,0c-0.4,0-0.7,0.2-0.9,0.6c-0.2,0.4,0,0.8,0.1,0.9c0.2,0.3,0.5,0.4,0.9,0.4
		h25.7c0.6,0,0.8-0.4,0.9-0.5c0.2-0.4,0.1-0.8-0.2-1.1C72.3,45.6,72.1,45.5,71.6,45.5z"/>
	<path class="st4" d="M71.6,68.1H46.1c-0.6,0-0.8,0.3-1,0.5c-0.2,0.3-0.2,0.7,0,1c0.2,0.3,0.5,0.5,1,0.5h25.5c0.2,0,0.4,0,0.5-0.1
		c0.5-0.2,0.7-0.6,0.6-1.1C72.6,68.4,72.2,68.1,71.6,68.1z"/>
	<path class="st4" d="M46.1,63.9h25.5c0.3,0,0.6-0.1,0.8-0.3c0.2-0.2,0.2-0.4,0.2-0.7c0-0.6-0.4-1-1.1-1l-24.4,0l-0.7,0
		c-0.2,0-0.3,0-0.5,0c-0.5,0-0.9,0.4-0.9,0.9c0,0.3,0.1,0.5,0.2,0.7C45.5,63.7,45.8,63.9,46.1,63.9z"/>
	<path class="st4" d="M71.6,39.3H46.2c-0.1,0-0.3,0-0.4,0c-0.4,0.1-0.8,0.4-0.8,0.9c0,0.3,0.1,0.5,0.2,0.7c0.2,0.2,0.5,0.3,0.9,0.3
		h25.4c0.5,0,0.8-0.1,1-0.5c0.2-0.3,0.2-0.7,0-0.9C72.4,39.5,72,39.3,71.6,39.3z"/>
	<path class="st4" d="M71.7,83H46.1c-0.3,0-0.6,0.1-0.8,0.3c-0.2,0.2-0.3,0.4-0.2,0.7c0,0.7,0.6,1,1.1,1l25.5,0c0.6,0,1-0.4,1-1
		C72.7,83.4,72.3,83,71.7,83z"/>
	<path class="st4" d="M65.4,89.2c0,0-18.8,0-19.4,0c-0.4,0-0.8,0.3-0.9,0.5c-0.2,0.4-0.1,0.7,0.1,0.9c0.2,0.3,0.5,0.5,0.9,0.5h0
		c1.4,0,2.8,0,4.2,0l5.4,0h9.7c0.3,0,0.8-0.1,1-0.6c0.1-0.3,0.1-0.7-0.1-0.9C66.1,89.3,65.8,89.2,65.4,89.2z"/>
</g>
</svg>
