<?xml version="1.0" encoding="utf-8"?>
<!-- Generator: Adobe Illustrator 24.3.0, SVG Export Plug-In . SVG Version: 6.00 Build 0)  -->
<svg version="1.1" id="Layer_1" xmlns="http://www.w3.org/2000/svg" xmlns:xlink="http://www.w3.org/1999/xlink" x="0px" y="0px"
	 width="121.4px" height="121.4px" viewBox="0 0 121.4 121.4" style="enable-background:new 0 0 121.4 121.4;" xml:space="preserve"
	>
<style type="text/css">
	.st0{fill:#185AE9;}
	.st1{fill:#00B0FB;}
	.st2{fill:none;}
	.st3{fill:#00B0FB;fill-opacity:0.4;}
	.st4{fill:#FFFFFF;}
</style>
<g>
	<path class="st2" d="M13.2,56.5h13.1c0.6-16.4,13.8-29.6,30.2-30.2v-4.8v-7.4C33,14.7,14.3,33.2,13.2,56.5z"/>
	<path class="st2" d="M56.5,44c-6.7,0.5-12,5.8-12.5,12.5h12.5V44z"/>
	<path class="st2" d="M56.5,71.2V58.8H44C44.5,65.4,49.8,70.7,56.5,71.2z"/>
	<path class="st2" d="M58.8,14.1v7.4v4.8C75.1,26.9,88.4,40.1,89,56.5H102C100.9,33.2,82.2,14.7,58.8,14.1z"/>
	<path class="st2" d="M63.1,72.6c-1.5,0.6-3,0.9-4.4,0.9v13.1c3.5-0.2,6.8-0.8,9.8-2.1L63.1,72.6z"/>
	<path class="st2" d="M58.8,62.9v8.3c1.1-0.1,2.2-0.3,3.4-0.7L58.8,62.9z"/>
	<path class="st2" d="M58.8,89v13.1c5.7-0.2,11.1-1.3,16.1-3.4l-5.4-12C66.1,88.1,62.5,88.8,58.8,89z"/>
	<path class="st2" d="M71.2,58.8h-8.3l7.6,3.4C70.9,60.9,71.2,59.8,71.2,58.8z"/>
	<path class="st2" d="M98.7,74.8c2.2-5.1,3.3-10.5,3.4-16.1H89c-0.2,3.7-0.9,7.2-2.3,10.7L98.7,74.8z"/>
	<path class="st2" d="M58.8,44v12.5h12.5C70.7,49.8,65.4,44.5,58.8,44z"/>
	<path class="st2" d="M26.2,58.8H13.1c0.6,23.8,19.6,42.8,43.4,43.4V89C40.1,88.4,26.8,75.2,26.2,58.8z"/>
	<path class="st2" d="M72.6,63.1l12,5.4c1.2-3,1.9-6.3,2.1-9.8H73.6C73.5,60.2,73.2,61.6,72.6,63.1z"/>
	<path class="st1" d="M56.5,14.1v-1c-23.8,0.6-42.8,19.6-43.4,43.4h0C14.3,33.2,33,14.7,56.5,14.1z"/>
	<path class="st1" d="M58.8,13.1v1c23.4,0.6,42.2,19.1,43.3,42.4h0.1C101.5,32.7,82.5,13.7,58.8,13.1z"/>
	<path class="st1" d="M73.6,56.5h13.1c-0.6-15.1-12.8-27.4-28-28v13.1C66.7,42.2,73,48.6,73.6,56.5z"/>
	<path class="st3" d="M95.4,90c-0.3-0.3-0.4-0.6-0.3-1.1c0.1-0.4,0.3-0.7,0.7-0.8l15.8-5l-12.9-5.8L70.7,64.7l-10.8-4.8l11.1,24.9
		l6.3,14.1c0,0,0,0.1,0,0.1l5.8,12.7l5-15.8c0.2-0.4,0.5-0.7,0.8-0.8h0.3c0.3,0,0.6,0.1,0.8,0.3l22.6,22.6c0.7,0.7,1.7,1.1,2.7,1.1
		c1,0,2-0.4,2.7-1.1c0.7-0.7,1.1-1.7,1.1-2.7c0-1-0.4-2-1.1-2.7L95.4,90z"/>
	<path class="st1" d="M41.7,58.8H28.6c0.6,15.1,12.8,27.4,28,28V73.6C48.6,73,42.3,66.7,41.7,58.8z"/>
	<path class="st1" d="M56.5,41.7V28.6c-15.1,0.6-27.4,12.8-28,27.9h13.1C42.2,48.6,48.6,42.3,56.5,41.7z"/>
	<path class="st4" d="M119.6,111L98.3,89.7l17-5.3c0.4-0.1,0.7-0.5,0.8-1c0-0.5-0.3-0.9-0.7-1.1l-14.6-6.5c2.3-5.4,3.5-11.1,3.6-17
		h9.8c0.6,0,1.1-0.5,1.1-1.1c0-0.6-0.5-1.1-1.1-1.1h-9.8c-0.6-25-20.6-45-45.6-45.6v1c24.9,0.6,44.7,20.3,45.6,45.1h-2.3
		c0-0.2,0-0.4,0-0.6H89c-0.6-16.4-13.8-29.6-30.2-30.2v-4.8h-2.3v4.8c-16.4,0.6-29.6,13.8-30.2,30.2H13.2c0,0.3,0,0.7,0,1H15v0.9
		c-0.9-0.2-1.8-0.2-2.7-0.2c-0.4,0-0.7,0-1.1,0.1c0-0.4,0.1-0.8,0.1-1.2c1.3-2.8,1.6-6.1,0.9-9.2C17,27.5,34.9,12.4,56.5,11.9v-1
		c-25,0.6-45,20.6-45.6,45.6H1.1c-0.6,0-1.1,0.5-1.1,1.1c0,0.6,0.5,1.1,1.1,1.1h9.8c0.6,25,20.6,45,45.6,45.6v9.8
		c0,0.6,0.5,1.1,1.1,1.1c0.6,0,1.1-0.5,1.1-1.1v-9.8c5.8-0.2,11.5-1.4,17-3.6l6.5,14.6c0.2,0.4,0.6,0.7,1.1,0.7c0.5,0,0.9-0.4,1-0.8
		l5.3-17l21.3,21.3c1.2,1.2,2.8,1.8,4.3,1.8c1.6,0,3.2-0.7,4.3-1.8c1.2-1.2,1.8-2.7,1.8-4.3C121.4,113.7,120.8,112.1,119.6,111z
		 M56.5,28.6v13.1c-7.9,0.6-14.2,6.9-14.8,14.8H28.5C29.1,41.4,41.3,29.2,56.5,28.6z M44,56.5c0.5-6.6,5.8-12,12.5-12.5v12.5H44z
		 M56.5,58.8v12.5c-6.7-0.5-12-5.8-12.5-12.5H56.5z M56.5,102.1c-23.8-0.6-42.8-19.6-43.4-43.4h13.1C26.8,75.2,40.1,88.4,56.5,89
		V102.1z M56.5,86.7c-15.1-0.6-27.4-12.8-28-28h13.1c0.6,7.9,6.9,14.2,14.8,14.8V86.7z M102.1,58.8c-0.1,5.5-1.2,10.9-3.4,16.1
		l-12-5.4c1.4-3.4,2.2-7,2.3-10.7H102.1z M84.6,68.5l-12-5.4c0.6-1.5,0.9-3,0.9-4.4h13.1C86.6,62.2,85.9,65.5,84.6,68.5z M58.8,28.5
		c15.1,0.6,27.4,12.8,28,28H73.6c-0.6-7.9-6.9-14.2-14.8-14.8V28.5z M58.8,44c6.6,0.5,12,5.8,12.5,12.5H58.8V44z M71.2,58.8
		c-0.1,1.1-0.3,2.2-0.7,3.4l-7.6-3.4H71.2z M58.8,62.9l3.4,7.6c-1.2,0.4-2.3,0.6-3.4,0.7V62.9z M58.8,73.6c1.4-0.1,2.8-0.4,4.4-0.9
		l5.4,12c-3,1.2-6.3,1.9-9.8,2.1V73.6z M58.8,102.1V89c3.8-0.1,7.4-0.9,10.7-2.3l5.4,12C69.8,100.8,64.4,102,58.8,102.1z M118,118
		c-0.7,0.7-1.7,1.1-2.7,1.1c-1.1,0-2-0.4-2.7-1.1L89.9,95.4c-0.2-0.2-0.5-0.3-0.8-0.3h-0.3c-0.4,0.1-0.7,0.4-0.8,0.8l-5,15.8
		L77.3,99c0,0,0-0.1,0-0.1l-6.3-14.1L59.9,59.9l10.8,4.8l28.1,12.7l12.9,5.8l-15.8,5c-0.4,0.2-0.7,0.5-0.7,0.8
		c-0.1,0.4,0,0.8,0.3,1.1l22.6,22.6c0.7,0.7,1.1,1.7,1.1,2.7C119.1,116.3,118.7,117.3,118,118z"/>
	<path class="st4" d="M57.7,1c0.6,0,1.1,0.5,1.1,1.1v-1c0-0.6-0.5-1.1-1.1-1.1c-0.6,0-1.1,0.5-1.1,1.1v1C56.5,1.5,57.1,1,57.7,1z"/>
	<path class="st4" d="M12.2,47.8c0.6,3.1,0.3,6.3-0.9,9.2c0,0.4-0.1,0.8-0.1,1.2c0.4,0,0.7-0.1,1.1-0.1c1,0,1.9,0.1,2.7,0.2v-0.9
		h-1.9c0-0.3,0-0.7,0-1h0c0.6-23.8,19.6-42.8,43.4-43.4v1v7.4h2.3v-7.4v-1c23.8,0.6,42.8,19.6,43.3,43.4H102c0,0.2,0,0.4,0,0.6h2.3
		c-0.9-24.8-20.7-44.5-45.6-45.1v-1V2.1c0-0.6-0.5-1.1-1.1-1.1c-0.6,0-1.1,0.5-1.1,1.1v8.8v1C34.9,12.4,17,27.5,12.2,47.8z"/>
</g>
</svg>
