<?xml version="1.0" encoding="utf-8"?>
<!-- Generator: Adobe Illustrator 25.0.0, SVG Export Plug-In . SVG Version: 6.00 Build 0)  -->
<svg version="1.1" id="Layer_1" xmlns="http://www.w3.org/2000/svg" xmlns:xlink="http://www.w3.org/1999/xlink" x="0px" y="0px"
	 viewBox="0 0 184.6 184.6" style="enable-background:new 0 0 184.6 184.6;" xml:space="preserve">
<style type="text/css">
	.st0{fill:#185AE9;}
	.st1{fill:#00B0FB;}
	.st2{fill-rule:evenodd;clip-rule:evenodd;fill:#00B0FB;}
	.st3{fill:#00B0FB;fill-opacity:0.4;}
	.st4{fill:#FFFFFF;}
	.st5{fill:#3C7CFF;}
	.st6{fill:#001135;}
	.st7{fill:#00769D;}
	.st8{fill:#8DB849;}
	.st9{fill:#5A863E;}
	.st10{fill:#FFFFFE;}
	.st11{fill:#7F54B3;}
	.st12{fill:#F26322;}
</style>
<g>
	<path class="st1" d="M183.33,137.38h-2.56v5.9c0,2.38-1.94,4.32-4.32,4.32H8.15c-2.38,0-4.31-1.94-4.31-4.32v-4.56H0.75
		c0.68,2,1.1,4.13,1.2,6.32c0.05,1.12-0.01,2.22-0.17,3.3c1.49,1.88,3.8,3.09,6.38,3.09h60.82v-0.36h52.28v0.36h55.2
		c2.49,0,4.7-1.13,6.19-2.88c0.08-1.05,0.23-2.08,0.45-3.08c-0.17-0.93-0.28-1.88-0.33-2.85
		C182.68,140.82,182.89,139.06,183.33,137.38z"/>
	<path class="st1" d="M146.28,115.73c-0.04-0.44-0.33-0.82-0.74-0.99l-9.15-3.72c-0.58-0.23-1.01-0.72-1.16-1.32
		c-1.06-4.29-2.75-8.37-5.03-12.15c-0.32-0.52-0.36-1.18-0.12-1.74l3.82-8.95c0.17-0.39,0.11-0.84-0.14-1.18
		c-0.96-1.3-2.02-2.53-3.17-3.66c-1.28-1.25-2.36-2.23-3.39-3.08c-0.21-0.18-0.48-0.28-0.76-0.28c-0.16,0-0.31,0.03-0.46,0.09
		l-9.11,3.83c-0.24,0.1-0.5,0.16-0.76,0.16c-0.35,0-0.69-0.1-0.99-0.27c-3.78-2.29-7.87-3.98-12.16-5.04
		c-0.6-0.15-1.09-0.58-1.32-1.15l-3.61-9.03c-0.16-0.4-0.52-0.68-0.95-0.74c-1.71-0.24-3.45-0.36-5.18-0.36
		c-1.41,0-2.83,0.08-4.23,0.24c-0.44,0.05-0.81,0.33-0.98,0.74l-3.72,9.14c-0.23,0.58-0.73,1.01-1.32,1.16
		c-4.29,1.06-8.38,2.75-12.16,5.03c-0.3,0.18-0.64,0.27-0.99,0.27c-0.26,0-0.51-0.05-0.75-0.15l-8.95-3.82
		c-0.15-0.06-0.31-0.1-0.47-0.1c-0.26,0-0.51,0.08-0.71,0.23c-1.29,0.96-2.52,2.02-3.65,3.17c-1.26,1.29-2.24,2.37-3.08,3.39
		c-0.28,0.35-0.35,0.82-0.18,1.23l3.83,9.11c0.25,0.57,0.2,1.22-0.11,1.75c-2.28,3.77-3.98,7.86-5.04,12.15
		c-0.15,0.6-0.58,1.09-1.15,1.32l-9.03,3.6c-0.39,0.16-0.67,0.5-0.74,0.91c-0.08,0.44-0.12,0.89-0.16,1.35l-0.02,0.24
		c-0.03,0.34,0.08,0.67,0.31,0.92c0.23,0.25,0.55,0.39,0.89,0.39h15.58c0.62,0,1.15-0.48,1.2-1.1c1.45-17.72,15.37-31.64,33.1-33.1
		c0.99-0.08,2-0.12,2.99-0.12c18.66,0,34.48,14.59,36.01,33.22c0.05,0.62,0.57,1.1,1.2,1.1h15.63c0.33,0,0.65-0.14,0.88-0.38
		c0.23-0.24,0.35-0.57,0.32-0.9l-0.02-0.4C146.33,116.4,146.31,116.06,146.28,115.73z"/>
	<path class="st3" d="M108.11,153.43H76.5c-0.61,0-1.12,0.45-1.19,1.06c-0.54,4.47-2.64,8.64-5.91,11.74
		c-0.36,0.34-0.47,0.86-0.29,1.32c0.18,0.46,0.62,0.76,1.11,0.76h44.15c0.49,0,0.94-0.3,1.12-0.75c0.18-0.46,0.07-0.98-0.29-1.32
		c-3.27-3.1-5.37-7.27-5.91-11.74C109.23,153.89,108.71,153.43,108.11,153.43z"/>
	<path class="st3" d="M176.45,3.83H8.15c-2.38,0-4.31,1.94-4.31,4.32V129.7c0,0.66,0.54,1.2,1.2,1.2h174.53c0.66,0,1.2-0.54,1.2-1.2
		V8.15C180.77,5.77,178.83,3.83,176.45,3.83z M172.14,117.23c0,2.78-2.26,5.04-5.04,5.04H17.5c-2.77,0-5.03-2.26-5.03-5.04V17.5
		c0-2.77,2.26-5.03,5.03-5.03h149.6c2.78,0,5.04,2.26,5.04,5.03V117.23z"/>
	<path class="st4" d="M176.45,0H8.15C3.66,0,0,3.66,0,8.15v137.13c0,4.5,3.66,8.15,8.15,8.15h62.03c0.35,0,0.69,0.16,0.92,0.43
		c0.23,0.28,0.32,0.64,0.26,0.99c-2.03,11.1-13.37,13.41-13.9,13.51c-5.99,0.29-10.69,5.22-10.71,11.21c0,2.77,2.26,5.03,5.04,5.03
		h81.03c2.78,0,5.03-2.26,5.03-5.03c-0.02-5.98-4.77-10.91-10.88-11.23c-0.48-0.1-11.75-2.53-13.72-13.49
		c-0.06-0.36,0.03-0.71,0.26-0.98c0.23-0.28,0.56-0.44,0.92-0.44h62.02c4.5,0,8.15-3.65,8.15-8.15V8.15
		C184.6,3.66,180.95,0,176.45,0z M126.59,172.13c4.09,0.01,7.42,3.35,7.43,7.43c0,0.32-0.13,0.63-0.35,0.85
		c-0.23,0.23-0.53,0.36-0.85,0.36H51.79c-0.66,0-1.2-0.54-1.2-1.2c0-4.1,3.33-7.44,7.43-7.44H126.59z M115.21,166.23
		c0.36,0.34,0.47,0.85,0.28,1.32c-0.18,0.45-0.63,0.75-1.11,0.75H70.23c-0.5,0-0.94-0.3-1.12-0.76c-0.18-0.46-0.07-0.97,0.29-1.31
		c3.27-3.1,5.37-7.27,5.91-11.74c0.07-0.6,0.59-1.06,1.19-1.06h31.61c0.6,0,1.12,0.46,1.19,1.06
		C109.84,158.96,111.94,163.13,115.21,166.23z M180.77,145.28c0,2.38-1.94,4.32-4.32,4.32H8.15c-2.38,0-4.31-1.94-4.31-4.32v-9.35
		c0-0.66,0.54-1.2,1.2-1.2h174.53c0.66,0,1.2,0.54,1.2,1.2V145.28z M180.77,129.7c0,0.66-0.54,1.2-1.2,1.2H5.04
		c-0.66,0-1.2-0.54-1.2-1.2V8.15c0-2.38,1.93-4.32,4.31-4.32h168.3c2.38,0,4.32,1.94,4.32,4.32V129.7z"/>
	<path class="st4" d="M167.1,12.47H17.5c-2.77,0-5.03,2.26-5.03,5.03v99.73c0,2.78,2.26,5.04,5.03,5.04h149.6
		c2.78,0,5.04-2.26,5.04-5.04V17.5C172.14,14.73,169.88,12.47,167.1,12.47z M124.2,118.04c-0.23,0.25-0.55,0.39-0.89,0.39H61.29
		c-0.34,0-0.66-0.14-0.89-0.39s-0.34-0.59-0.3-0.93c1.66-16.61,15.49-29.13,32.16-29.13c1.09,0,2.19,0.05,3.27,0.16
		c15.26,1.53,27.44,13.72,28.98,28.97C124.54,117.45,124.43,117.79,124.2,118.04z M146.05,118.05c-0.22,0.25-0.54,0.38-0.87,0.38
		h-15.63c-0.63,0-1.15-0.48-1.2-1.1c-1.53-18.63-17.34-33.22-36.01-33.22c-0.99,0-2,0.04-2.99,0.12
		c-17.73,1.46-31.65,15.38-33.1,33.1c-0.05,0.62-0.57,1.1-1.19,1.1H39.47c-0.33,0-0.66-0.14-0.88-0.39
		c-0.23-0.25-0.34-0.58-0.31-0.92l0.02-0.24c0.04-0.46,0.08-0.91,0.16-1.35c0.07-0.41,0.35-0.75,0.74-0.91l9.03-3.6
		c0.57-0.23,1-0.72,1.15-1.32c1.06-4.29,2.75-8.38,5.04-12.16c0.31-0.52,0.35-1.18,0.11-1.75l-3.83-9.11
		c-0.18-0.41-0.11-0.88,0.18-1.23c0.84-1.02,1.82-2.1,3.08-3.39c1.13-1.14,2.36-2.2,3.66-3.16c0.2-0.16,0.45-0.24,0.71-0.24
		c0.16,0,0.32,0.03,0.47,0.1l8.95,3.82c0.24,0.1,0.49,0.15,0.75,0.15c0.35,0,0.69-0.09,0.99-0.27c3.78-2.29,7.87-3.98,12.16-5.04
		c0.6-0.15,1.09-0.58,1.32-1.16l3.72-9.14c0.17-0.41,0.54-0.69,0.98-0.74c1.4-0.16,2.82-0.24,4.23-0.24c1.73,0,3.47,0.12,5.18,0.36
		c0.42,0.06,0.79,0.34,0.95,0.74l3.61,9.03c0.23,0.57,0.72,1,1.32,1.15c4.29,1.06,8.38,2.76,12.15,5.04
		c0.3,0.18,0.64,0.28,0.99,0.28c0.26,0,0.52-0.05,0.76-0.16l9.12-3.83c0.14-0.06,0.3-0.09,0.46-0.09c0.28,0,0.55,0.1,0.76,0.27
		c1.04,0.86,2.11,1.84,3.39,3.09c1.15,1.13,2.21,2.36,3.17,3.65c0.25,0.34,0.3,0.8,0.14,1.18l-3.82,8.96
		c-0.24,0.56-0.2,1.21,0.12,1.74c2.28,3.77,3.97,7.86,5.03,12.15c0.15,0.6,0.58,1.09,1.16,1.32l9.14,3.72
		c0.42,0.17,0.7,0.55,0.75,0.99c0.03,0.33,0.05,0.67,0.07,1.02l0.03,0.4C146.4,117.48,146.28,117.81,146.05,118.05z M168.3,117.23
		c0,0.67-0.53,1.2-1.2,1.2h-15.67c-0.64,0-1.16-0.5-1.19-1.14c-0.04-0.64-0.08-1.28-0.14-1.9c-0.2-1.94-1.44-3.6-3.25-4.33
		l-7.58-3.02c-0.35-0.14-0.61-0.44-0.71-0.79c-1.02-3.6-2.46-7.08-4.29-10.33c-0.18-0.33-0.2-0.72-0.05-1.06l3.21-7.53
		c0.78-1.76,0.49-3.85-0.74-5.32c-1.07-1.29-2.21-2.54-3.38-3.71c-1.16-1.15-2.38-2.27-3.64-3.31c-0.91-0.78-2.08-1.2-3.28-1.2
		c-0.72,0-1.42,0.15-2.09,0.45l-7.51,3.2c-0.15,0.07-0.31,0.1-0.47,0.1c-0.21,0-0.41-0.05-0.59-0.15
		c-3.26-1.83-6.74-3.27-10.33-4.29c-0.36-0.1-0.65-0.36-0.79-0.71l-3.03-7.58c-0.72-1.8-2.36-3.04-4.27-3.25
		c-1.66-0.14-3.34-0.22-5-0.22c-1.66,0-3.33,0.08-4.98,0.22c-1.94,0.2-3.6,1.45-4.32,3.26l-3.03,7.58c-0.14,0.34-0.43,0.6-0.79,0.7
		c-3.59,1.02-7.07,2.46-10.33,4.29c-0.18,0.1-0.38,0.15-0.59,0.15c-0.16,0-0.32-0.03-0.47-0.09l-7.51-3.22
		c-0.65-0.3-1.35-0.45-2.06-0.45c-1.19,0-2.35,0.43-3.27,1.19c-1.12,0.93-2.26,1.97-3.7,3.37c-1.15,1.16-2.26,2.39-3.31,3.64
		c-1.25,1.48-1.54,3.59-0.75,5.37l3.2,7.53c0.14,0.34,0.12,0.74-0.06,1.06c-1.83,3.26-3.27,6.74-4.29,10.33
		c-0.1,0.36-0.36,0.65-0.71,0.79l-7.58,3.03c-1.8,0.72-3.04,2.37-3.25,4.28c-0.06,0.63-0.09,1.29-0.13,1.96
		c-0.04,0.64-0.56,1.13-1.2,1.13H17.5c-0.66,0-1.2-0.53-1.2-1.2V17.5c0-0.66,0.54-1.2,1.2-1.2h149.6c0.67,0,1.2,0.54,1.2,1.2V117.23
		z"/>
	<path class="st4" d="M72.4,45.55c0,4.49-3.65,8.15-8.15,8.15c-4.49,0-8.15-3.66-8.15-8.15V33.08c0-4.49,3.66-8.15,8.15-8.15
		c4.5,0,8.15,3.66,8.15,8.15c0,1.06-0.86,1.92-1.91,1.92c-1.06,0-1.92-0.86-1.92-1.92c0-2.38-1.94-4.31-4.32-4.31
		s-4.31,1.93-4.31,4.31v12.47c0,2.38,1.93,4.32,4.31,4.32s4.32-1.94,4.32-4.32c0-1.06,0.86-1.92,1.92-1.92
		C71.54,43.63,72.4,44.49,72.4,45.55z"/>
	<path class="st4" d="M156.55,51.78c0,1.06-0.86,1.92-1.91,1.92h-12.47c-1.06,0-1.92-0.86-1.92-1.92c0-1.05,0.86-1.91,1.92-1.91
		h12.47C155.69,49.87,156.55,50.73,156.55,51.78z"/>
	<path class="st4" d="M44.35,51.78c0,1.06-0.86,1.92-1.91,1.92H29.97c-1.06,0-1.92-0.86-1.92-1.92c0-1.05,0.86-1.91,1.92-1.91h12.47
		C43.49,49.87,44.35,50.73,44.35,51.78z"/>
	<path class="st4" d="M124.43,52.61c-1.24,0.71-2.65,1.09-4.07,1.09c-2.9,0-5.61-1.56-7.06-4.08c-0.47-0.86-0.17-1.97,0.69-2.5
		c0.31-0.19,0.65-0.29,1.01-0.29c0.67,0,1.28,0.34,1.63,0.91c0.76,1.31,2.18,2.13,3.72,2.13c2.38,0,4.32-1.94,4.32-4.32
		c0-1.15-0.45-2.23-1.26-3.05c-0.82-0.82-1.9-1.27-3.06-1.27c-2.9,0-5.6-1.56-7.05-4.07c-1.09-1.89-1.38-4.08-0.82-6.19
		c0.57-2.1,1.91-3.86,3.8-4.95c1.24-0.71,2.64-1.09,4.07-1.09c2.9,0,5.61,1.56,7.06,4.08c0.47,0.87,0.17,1.97-0.69,2.51
		c-0.31,0.18-0.66,0.28-1.01,0.28c-0.67,0-1.28-0.34-1.63-0.91c-0.76-1.3-2.18-2.12-3.72-2.12c-2.38,0-4.32,1.93-4.32,4.31
		c0,1.15,0.45,2.24,1.26,3.05c0.82,0.82,1.9,1.27,3.05,1.27c2.91,0,5.61,1.56,7.06,4.08C129.66,45.37,128.32,50.36,124.43,52.61z"/>
	<path class="st4" d="M103.57,28.41v23.37c0,1.06-0.86,1.92-1.92,1.92c-1.05,0-1.91-0.86-1.91-1.92v-18.7
		c0-0.51-0.33-0.97-0.82-1.14c-0.12-0.04-0.25-0.06-0.38-0.06c-0.38,0-0.74,0.18-0.96,0.49l-2.5,3.32c-0.13,0.16-0.31,0.34-0.5,0.5
		c-0.65,0.53-1.44,0.8-2.27,0.8c-1.1,0-2.12-0.48-2.81-1.34l-2.47-3.29c-0.22-0.3-0.58-0.48-0.96-0.48c-0.13,0-0.26,0.03-0.38,0.07
		c-0.49,0.16-0.82,0.62-0.82,1.13v18.7c0,1.06-0.86,1.92-1.92,1.92c-1.05,0-1.91-0.86-1.91-1.92V28.41c0-1.09,0.52-2.13,1.39-2.78
		c0.6-0.46,1.32-0.7,2.08-0.7c1.1,0,2.12,0.51,2.78,1.39l4.05,5.41c0.23,0.3,0.59,0.48,0.96,0.48c0.38,0,0.74-0.18,0.96-0.48
		l4.06-5.41c0.65-0.87,1.69-1.39,2.78-1.39C102.01,24.93,103.57,26.49,103.57,28.41z"/>
</g>
</svg>
