<?xml version="1.0" encoding="utf-8"?>
<!-- Generator: Adobe Illustrator 24.3.0, SVG Export Plug-In . SVG Version: 6.00 Build 0)  -->
<svg version="1.1" id="Layer_1" xmlns="http://www.w3.org/2000/svg" xmlns:xlink="http://www.w3.org/1999/xlink" x="0px" y="0px"
	 width="564.3px" height="478px" viewBox="0 0 564.3 478" style="enable-background:new 0 0 564.3 478;" xml:space="preserve">
<style type="text/css">
	.st0{fill:#185AE9;}
	.st1{fill:#00B0FB;}
	.st2{fill:none;}
	.st3{fill:#00B0FB;fill-opacity:0.4;}
	.st4{fill:#FFFFFF;}
	.st5{fill:#3C7CFF;}
	.st6{fill:#001135;}
	.st7{fill:#DBDBDB;}
	.st8{fill:#030302;}
	.st9{fill:#FCFCFC;}
	.st10{fill:#D2D3D3;}
	.st11{fill:#1F1F1F;}
	.st12{fill:#F6F6F6;}
	.st13{fill:#0E0D0E;}
	.st14{fill:#BABBBB;}
	.st15{fill:#8A8A8A;}
	.st16{fill:#8E8F8F;}
	.st17{fill:#464746;}
	.st18{fill:#5F5E5E;}
	.st19{fill:#0B0B0B;}
	.st20{fill:#090909;}
	.st21{fill:#151414;}
	.st22{fill:#101010;}
	.st23{fill:#282828;}
	.st24{fill:#E8E8E8;}
	.st25{fill:#FEFEFE;}
	.st26{fill:#0A0A0A;}
</style>
<g>
	<g>
		<path class="st7" d="M140.4,137.1c-0.1-6-1.7-7.8-7.7-7.8c-11,0-21.9,0-32.9,0c0,0,0-0.1,0-0.1c-11.2,0-22.3,0-33.5,0
			c-4.8,0-6.7,1.9-6.8,6.7c-0.1,5.8,0,11.5-0.1,17.3c-0.2,21.3-0.4,42.5-0.5,63.8c0,5.5,2.3,7.7,7.8,7.8c14.1,0.2,28.2,0.4,42.3,0.7
			c3.9,0.1,7.7,0.1,11.6,0.3c1.6,0.1,2.9-0.5,4.1-1.6c4.8-4.5,9.5-9,14.4-13.3c2.2-1.9,3-4,2.9-6.9
			C141.4,181.7,140.9,159.4,140.4,137.1z"/>
		<g>
			<path class="st7" d="M31.2,45.5c8.7,0,15.8-7,15.8-15.5c0-8.6-6.9-15.5-15.5-15.6c-9-0.1-15.9,6.7-16,15.5
				C15.5,38.5,22.5,45.5,31.2,45.5z"/>
			<path d="M28.6,84.7c2.2,2.9,2.8,2.9,5.1,0.1c8.7-10.8,16.6-22.2,23.1-34.4c3.1-5.7,5.6-11.6,5.4-18c0-21.4-20.3-37.4-41-30.8
				C9.4,5.3,0.1,17.4,0,29.9c-0.1,6.7,2.4,12.6,5.2,18.4C11.5,61.4,19.9,73.1,28.6,84.7z M31.5,14.4C40.1,14.5,47,21.4,47,30
				c0,8.5-7.1,15.5-15.8,15.5c-8.7,0-15.7-7-15.6-15.6C15.6,21.1,22.6,14.4,31.5,14.4z"/>
		</g>
		<path d="M80,37c0.7,0.2,1.4,0.3,2.2,0.4c4.7,0.6,9.3,1.8,13.8,3.2c20,6.3,30.1,21.7,27.3,41.4c-0.8,5.5-2.3,10.8-4.8,15.9
			c-1.1-1-1-2.1-1.4-3c-0.7-1.7-1.7-3.1-3.8-2.5c-1.9,0.6-2.1,2.2-1.8,3.9c0.9,4.6,1.8,9.3,2.8,13.9c0.2,1.1,0.6,2.4,2,1.5
			c4.9-3.1,9.7-6.3,14.4-9.6c0.9-0.6,0.9-1.9,0.5-2.9c-0.5-1.2-1.6-1.7-2.8-1.5c-1.3,0.2-2.6,0.6-3.9,0.9c-0.1-0.3-0.2-0.5-0.2-0.6
			c0.6-2.1,1.3-4.2,1.9-6.3c3.3-11.7,4.1-23.2-1.8-34.3c-6.4-12.2-17.3-18.2-29.9-21.8c-4.5-1.3-9.2-2.3-13.9-2.7
			c-1.4-0.1-2.9,0-3.2,1.8C77.1,36.3,78.6,36.7,80,37z"/>
		<path d="M43.4,184.8c-0.6,0.5-1.2,0.9-1.8,1.3c-3.9,2.7-7.5,5.8-10.8,9.2C16,210.1,14,228.4,25.5,244.7c3.2,4.5,7,8.5,11.5,11.9
			c0.6-1.4-0.1-2.3-0.1-3.4c-0.1-1.8,0.1-3.5,2.2-3.9c1.9-0.4,2.9,1,3.4,2.6c1.3,4.5,2.6,9.1,3.9,13.6c0.3,1,0.5,2.4-1.1,2.3
			c-5.7-0.5-11.5-1.2-17.2-1.9c-1.1-0.1-1.7-1.2-1.7-2.4c-0.1-1.3,0.7-2.2,1.8-2.6c1.3-0.4,2.6-0.6,3.9-1c0-0.3,0-0.5-0.1-0.7
			c-1.5-1.6-3.1-3.1-4.6-4.7c-8.3-8.8-14.2-18.8-14.1-31.4c0.1-13.7,7.1-24.1,16.6-33.1c3.4-3.2,7.1-6.3,11.1-8.8
			c1.2-0.8,2.6-1.3,3.6,0.1C45.6,182.8,44.4,183.9,43.4,184.8z"/>
		<g>
			<path class="st4" d="M67.9,133.9c-3.6,0-3.7-0.1-3.7,3.5c-0.2,25.7-0.4,51.4-0.5,77.1c0,5.6,0,5.6,5.4,5.6c1.3,0,2.6,0,4,0
				c14.3,0.2,28.5,0.3,42.8,0.6c2.8,0.1,3.8-0.9,3.7-3.6c-0.1-3.1,0-6.2,0-9.4c-0.1-2.4,1.1-3.5,3.4-3.5c3.7,0,7.4-0.1,11.1,0
				c2.5,0.1,3.3-0.8,3.2-3.3c-0.3-8.6-0.4-17.2-0.5-25.8c-0.2-12.3-0.5-24.6-0.7-36.8c0-2.6-0.7-3.9-3.7-4.1
				c-11.2-0.5-22.3,0-37.3-0.5C88.5,133.9,78.2,133.9,67.9,133.9z M72.5,150.5c1.2-1.2,2.4-0.4,3.5,0.5c4.3,3.8,4.3,3.8,8.4-0.3
				c1.5-1.5,3-3.1,4.6-4.6c1-1,2.2-1.3,3.3-0.2c1,1,0.8,2.1,0,3.1c-3.5,3.7-7,7.4-10.6,11c-0.4,0.4-1,0.5-1.3,0.6
				c-1.1-0.1-1.8-0.6-2.4-1.2c-1.7-1.8-3.4-3.6-5.1-5.3C71.7,152.9,71.2,151.6,72.5,150.5z M91.5,194.1c-3,3.1-6.1,6.2-9,9.4
				c-1.6,1.7-3.1,1.9-4.8,0.1c-1.6-1.7-3.3-3.4-4.8-5.2c-1-1.1-1.7-2.5-0.3-3.7c1.4-1.2,2.6-0.3,3.7,0.8c3.9,3.8,3.9,3.8,7.7-0.1
				c1.7-1.7,3.3-3.4,5-5.1c0.8-0.8,1.8-1.1,2.8-0.5c0.7,0.4,1.1,1.1,1.1,1.9C92.8,192.6,92.2,193.4,91.5,194.1z M91.7,171.5
				c-3.1,3.3-6.3,6.5-9.4,9.8c-1.5,1.5-2.9,1.7-4.4,0.2c-1.8-1.8-3.6-3.6-5.3-5.5c-0.9-1-1.4-2.2-0.3-3.3c1.2-1.2,2.4-0.8,3.5,0.2
				c0.1,0.1,0.1,0.1,0.2,0.2c4.2,3.8,4.2,3.8,8.2-0.3c1.6-1.6,3.1-3.3,4.7-4.9c0.8-0.8,1.8-1,2.9-0.5c0.7,0.4,1.1,1,1.1,1.8
				C92.9,170.3,92.3,170.9,91.7,171.5z M126.2,201.4c-4.7,0.1-9.5,0-14.2,0c0,0,0,0.1,0,0.1c-4.2,0-8.3,0-12.5,0
				c-0.9,0-1.9-0.1-2.8-0.3c-0.9-0.2-1.5-0.8-1.5-1.8c0-1.1,0.7-1.8,1.7-1.9c0.8-0.1,1.7-0.1,2.5-0.1c8.4,0,16.8,0,25.3,0
				c0.5,0,0.9,0,1.4,0c1.3,0.1,2.6,0.3,2.6,1.9C128.8,200.9,127.5,201.4,126.2,201.4z M98.2,153.6c4.6,0,9.2,0,13.9,0
				c4.5,0,9.1,0,13.6,0c1.5,0,3.1,0.1,3.1,2c0,1.9-1.6,2.1-3.1,2.1c-9.1,0-18.3,0-27.4,0c-1.4,0-3.1-0.2-3.1-2.1
				C95.1,153.7,96.7,153.6,98.2,153.6z M98.4,175.2c4.5,0,9.1,0,13.6,0c0,0,0,0,0,0c4.5,0,9.1,0,13.6,0c1.6,0,3.3,0.1,3.2,2.2
				c-0.1,1.9-1.7,2-3.2,2c-9.1,0-18.1,0-27.2,0c-1.6,0-3.3-0.2-3.3-2.2C95.1,175.2,96.9,175.2,98.4,175.2z"/>
			<path d="M99.7,129.3c0,0,0-0.1,0-0.1c-11.2,0-22.3,0-33.5,0c-4.8,0-6.7,1.9-6.8,6.7c-0.1,5.8,0,11.5-0.1,17.3
				c-0.2,21.3-0.4,42.5-0.5,63.8c0,5.5,2.3,7.7,7.8,7.8c14.1,0.2,28.2,0.4,42.3,0.7c3.9,0.1,7.7,0.1,11.6,0.3
				c1.6,0.1,2.9-0.5,4.1-1.6c4.8-4.5,9.5-9,14.4-13.3c2.2-1.9,3-4,2.9-6.9c-0.6-22.3-1.1-44.6-1.6-66.9c-0.1-6-1.7-7.8-7.7-7.8
				C121.7,129.3,110.7,129.3,99.7,129.3z M132.8,210.1c-2.8,2.6-5.6,5.2-8.7,8c-0.6-3-0.3-5.5-0.3-8c0-0.7,0.3-1.4,1-1.5
				c2.6-0.4,5.3-0.3,7.9,0C133.7,208.8,133.3,209.6,132.8,210.1z M136,138.4c0.2,12.3,0.5,24.6,0.7,36.8c0.2,8.6,0.3,17.2,0.5,25.8
				c0.1,2.5-0.7,3.4-3.2,3.3c-3.7-0.2-7.4,0-11.1,0c-2.3,0-3.5,1.1-3.4,3.5c0.1,3.1-0.1,6.2,0,9.4c0.1,2.7-0.9,3.6-3.7,3.6
				c-14.3-0.3-28.5-0.4-42.8-0.6c-1.3,0-2.6,0-4,0c-5.5,0-5.5,0-5.4-5.6c0.2-25.7,0.4-51.4,0.5-77.1c0-3.6,0-3.5,3.7-3.5
				c10.3,0,20.6,0,27.1,0c15,0.4,26.1,0,37.3,0.5C135.2,134.5,135.9,135.8,136,138.4z"/>
			<path d="M98.4,179.4c9.1,0,18.1,0,27.2,0c1.5,0,3.1-0.1,3.2-2c0.1-2.1-1.6-2.2-3.2-2.2c-4.5,0-9.1,0-13.6,0c0,0,0,0,0,0
				c-4.5,0-9.1,0-13.6,0c-1.5,0-3.4,0-3.3,2.1C95.1,179.3,96.8,179.4,98.4,179.4z"/>
			<path d="M98.2,157.7c9.1,0,18.3,0,27.4,0c1.5,0,3.1-0.2,3.1-2.1c0-1.9-1.7-2-3.1-2c-4.5,0-9.1,0-13.6,0c-4.6,0-9.2,0-13.9,0
				c-1.5,0-3.1,0.1-3.1,2C95.1,157.5,96.8,157.7,98.2,157.7z"/>
			<path d="M126.1,197.4c-0.5,0-0.9,0-1.4,0c-8.4,0-16.8,0-25.3,0c-0.8,0-1.7,0-2.5,0.1c-1,0.2-1.7,0.8-1.7,1.9c0,1,0.6,1.6,1.5,1.8
				c0.9,0.2,1.9,0.3,2.8,0.3c4.2,0,8.3,0,12.5,0c0,0,0-0.1,0-0.1c4.7,0,9.5,0,14.2,0c1.3,0,2.6-0.5,2.5-2.1
				C128.7,197.8,127.5,197.5,126.1,197.4z"/>
			<path d="M91.8,189.8c-1.1-0.6-2-0.3-2.8,0.5c-1.7,1.7-3.3,3.4-5,5.1c-3.8,3.9-3.8,3.9-7.7,0.1c-1.1-1.1-2.3-2-3.7-0.8
				c-1.5,1.2-0.8,2.6,0.3,3.7c1.6,1.8,3.3,3.4,4.8,5.2c1.6,1.8,3.2,1.7,4.8-0.1c3-3.2,6-6.2,9-9.4c0.7-0.7,1.3-1.4,1.3-2.4
				C92.8,190.8,92.5,190.1,91.8,189.8z"/>
			<path d="M91.8,167.5c-1.1-0.5-2.1-0.3-2.9,0.5c-1.6,1.6-3.1,3.3-4.7,4.9c-4,4.1-4,4.1-8.2,0.3c-0.1-0.1-0.1-0.1-0.2-0.2
				c-1.1-1-2.3-1.4-3.5-0.2c-1.1,1.1-0.6,2.3,0.3,3.3c1.7,1.9,3.5,3.7,5.3,5.5c1.5,1.5,2.9,1.4,4.4-0.2c3.1-3.3,6.3-6.6,9.4-9.8
				c0.6-0.6,1.1-1.3,1.2-2.3C92.8,168.5,92.5,167.9,91.8,167.5z"/>
			<path d="M77.8,159.3c0.6,0.6,1.3,1.1,2.4,1.2c0.3-0.1,1-0.3,1.3-0.6c3.6-3.6,7.1-7.3,10.6-11c0.9-0.9,1-2.1,0-3.1
				c-1.1-1.1-2.3-0.8-3.3,0.2c-1.6,1.5-3.1,3.1-4.6,4.6c-4.1,4.2-4.1,4.2-8.4,0.3c-1.1-1-2.2-1.7-3.5-0.5c-1.2,1.2-0.7,2.4,0.3,3.5
				C74.5,155.7,76.1,157.5,77.8,159.3z"/>
		</g>
		<g>
			<path class="st4" d="M149.7,349.7c-7.1,0.2-14.3,0.3-21.4,0.4c-0.7,0-1.6,0.1-2,0.8c-0.8,1.3-0.7,4,1.2,4.2c0.7,0.1,1.3,0,2,0
				c6.7,0,13.4-0.2,20.1-0.6c0.3,0,0.6,0,0.9-0.1c1.4-0.1,1.9-1,1.9-2.3C152.4,350.2,151.6,349.7,149.7,349.7z"/>
			<path class="st4" d="M120.6,334.1c7.7,0,13.8-6.1,13.8-13.5c-0.1-7.6-6.1-13.2-14.3-13.2c-7.6,0-13.5,5.8-13.5,13.2
				C106.7,328.5,112.6,334.1,120.6,334.1z M120.6,316c2.8,0.1,4.9,2.2,4.9,4.9c0,2.7-2.4,5.1-5.1,5.1c-2.7,0-5-2.4-5.1-5.1
				C115.3,318.1,117.7,315.9,120.6,316z"/>
			<path class="st7" d="M68.3,356.9c-0.2,4.1-0.1,8.3,0,12.4h4.6c0-0.2,0-0.4,0-0.6c0.2-3.8,0.2-7.7,0-11.5c-0.1-2.3,0.8-2.9,3-2.8
				c12.1,0.4,24.1,0.5,36.2,0.9c2.4,0.1,2.9-0.8,2.8-2.9c-0.1-2.2-1.6-1.9-2.9-2c-11.9-0.3-23.7-0.7-35.6-0.8
				c-2.9,0-3.6-0.8-3.5-3.6c0.2-6.5,0.2-13,0-19.5c-0.1-2.5,0.8-3.1,3.1-3c5.2,0.1,10.5,0,15.7-0.2c2-0.1,3.1,0.5,3.5,2.6
				c2.6,11.3,9.8,17.9,20.9,20.4c1.4,0.3,2,0.9,1.9,2.3c-0.1,6.9-0.1,13.9-0.1,20.8h4.9v-0.1c0.1-6.6,0-13.2-0.1-19.9
				c0-2,0.4-2.9,2.6-3.4c10.7-2.4,17.8-8.9,20.3-19.8c0.6-2.6,1.7-3.1,4.1-3.1c1.1,0,2.1,0,2.8,0v-4.6c0,0,0,0,0,0
				c-0.7-0.1-1.5-0.1-2.2,0c-2.8,0.4-4-0.7-4.7-3.6c-0.8-3.3-2.2-6.5-4.1-9.3c-4.3-6.2-11.8-10.2-19.2-10.7c-4-0.3-8.1,0.5-11.8,2.1
				c-7.7,3.3-13.4,10.3-15.2,18.5c-0.5,2.5-1.7,3-3.9,3c-5.2-0.1-10.5-0.1-15.7,0.1c-2.2,0.1-2.7-0.7-2.7-2.7c0.1-7,0.1-14,0-21.1
				c0-0.6,0-1.1,0-1.7c0-1.6,1.6-4.4-2.2-4.5c-3.8-0.1-2.3,2.7-2.3,4.3c0,0.6,0,1.3,0,1.9c-0.1,6.9-0.1,13.7,0,20.6
				c0.1,2.8-0.9,3.4-3.4,3.3c-4.9-0.1-9.8,0.1-14.7,0.1c-2.1,0-2.7,0.9-2.8,2.9c-0.1,2.4,1.5,2.1,3,2.1c5-0.1,10.1-0.1,15.1-0.2
				c2-0.1,2.9,0.5,2.8,2.7c-0.1,6.9-0.1,13.9,0,20.8c0,1.8-0.6,2.5-2.4,2.4c-5.2-0.2-10.5-0.4-15.7-0.5c-1.6,0-3.7-1.1-3.8,2.2
				c-0.1,3,1.8,2.6,3.5,2.7c5.1,0.1,10.3,0.3,15.4,0.3C67.5,354,68.4,354.6,68.3,356.9z M102.2,318.7c-1.9,0.2-2-0.7-1.8-2.3
				c1.2-7.3,7.9-14.1,15.3-15.5c1.8-0.3,2.6,0,2.6,1.9c0,1.2-0.7,2.8,1.8,2.8c2.5,0,2.5-1.3,2.5-3c0-1.4,0.4-2.1,2.1-1.9
				c6.9,0.7,15.7,9.6,16.1,16.4c0.3,2.1-1.3,1.4-2.3,1.5c-1.4,0.2-3-0.4-3,2.1c0,2.4,1.2,2.7,3,2.4c2.5-0.4,2.6,0.8,2.1,2.7
				c-2.3,7.7-7.3,12.5-15,14.7c-2,0.6-3.2,0.4-2.9-2c0.2-1.8-0.6-2.3-2.3-2.5c-2.1-0.2-2,1.1-1.9,2.3c0.1,2.2-0.8,2.7-2.9,2.2
				c-7.1-1.6-13.7-8.1-15.1-15.1c-0.3-1.7-0.2-2.7,1.8-2.5c1.5,0.2,2-0.6,2-2.1C104.2,319.5,104,318.4,102.2,318.7z"/>
			<path d="M75.3,372c0.3,0,0.5,0,0.8,0c0.2,0,0.5,0,0.7,0h48.6h0.1h22.3c0.9,0,1.8,0,2.7,0c0,0,0,0,0,0c0.4,0,0.9,0,1.3,0
				c0.3,0,0.6,0,0.8,0c0.4,0,0.8-0.1,1.1-0.2c0.5,0,0.9-0.1,1.2-0.2c0-0.3,0-0.7,0.1-1c0.1-0.2,0.1-0.3,0.2-0.5
				c0.1-0.5,0.2-1.1,0.2-1.8c-0.1-6.9,0-13.9,0-20.8h0.1c0-6.2,0.1-12.4,0-18.6c0-2.5,0.1-3.9-0.2-4.7v-15.8c0-0.9,0-1.8,0-2.6
				c0-1.3,0-2.5,0-3.8h-0.1c0-2.9,0-5.8,0-8.6c0-1.7,0-3.4,0.1-5.1c0-0.6,0-1.1-0.1-1.5c-0.3-1.2-1.2-1.6-3-1.6
				c-7.4,0.1-14.7,0.1-22.1,0.1c-1.1,0-2,0-2.8,0h-11.9h-0.1c-22.9,0.3-45.8,0.5-68.6,0.6c-0.8,0-1.5,0.1-2,0.3
				c-1,0.4-1.3,1.4-1.3,3c0.1,13,0,26.1,0,39.1h-0.1c0,13.3,0,26.5,0,39.8c0,2.8,0.8,4.1,3.9,4c1.5-0.1,3.1-0.1,4.7-0.1v0.1H75.3z
				 M150.6,354.5c-0.3,0-0.6,0-0.9,0.1c-6.7,0.4-13.4,0.6-20.1,0.6c-0.7,0-1.3,0.1-2,0c-1.9-0.2-2.1-2.9-1.2-4.2
				c0.4-0.7,1.2-0.8,2-0.8c7.1,0,14.3-0.2,21.4-0.4c1.9-0.1,2.6,0.5,2.7,2.5C152.5,353.6,152,354.5,150.6,354.5z M50,353.8
				c-1.8,0-3.6,0.3-3.5-2.7c0.1-3.2,2.2-2.2,3.8-2.2c5.2,0.1,10.5,0.3,15.7,0.5c1.8,0.1,2.4-0.6,2.4-2.4c-0.1-6.9-0.1-13.9,0-20.8
				c0-2.2-0.8-2.7-2.8-2.7c-5,0.2-10,0.2-15.1,0.2c-1.5,0-3,0.3-3-2.1c0-2,0.7-2.9,2.8-2.9c4.9,0,9.8-0.2,14.7-0.1
				c2.6,0.1,3.5-0.6,3.4-3.3c-0.2-6.9-0.1-13.7,0-20.6c0-0.6,0-1.3,0-1.9c0-1.6-1.4-4.4,2.3-4.3c3.7,0.1,2.1,2.9,2.2,4.5
				c0,0.6,0,1.1,0,1.7c0.1,7,0.1,14,0,21.1c0,2.1,0.5,2.8,2.7,2.7c5.2-0.2,10.5-0.2,15.7-0.1c2.2,0,3.3-0.5,3.9-3
				c1.8-8.2,7.5-15.2,15.2-18.5c3.7-1.6,7.8-2.3,11.8-2.1c7.5,0.5,14.9,4.5,19.2,10.7c1.9,2.8,3.3,6,4.1,9.3c0.7,2.9,1.9,4,4.7,3.6
				c0.7-0.1,1.5-0.1,2.2,0c0,0,0,0,0,0v4.6c-0.7,0-1.6,0-2.8,0c-2.4-0.1-3.5,0.4-4.1,3.1c-2.5,10.9-9.6,17.3-20.3,19.8
				c-2.2,0.5-2.7,1.4-2.6,3.4c0.1,6.6,0.2,13.2,0.1,19.9v0.1H118c-0.1-6.9,0-13.9,0.1-20.8c0-1.4-0.5-2-1.9-2.3
				c-11.2-2.5-18.4-9.1-20.9-20.4c-0.5-2.1-1.5-2.7-3.5-2.6c-5.2,0.2-10.5,0.3-15.7,0.2c-2.3,0-3.2,0.5-3.1,3c0.2,6.5,0.2,13,0,19.5
				c-0.1,2.8,0.6,3.6,3.5,3.6c11.9,0.1,23.7,0.5,35.6,0.8c1.3,0,2.8-0.3,2.9,2c0.1,2.1-0.4,3-2.8,2.9c-12.1-0.4-24.1-0.6-36.2-0.9
				c-2.1-0.1-3.1,0.5-3,2.8c0.2,3.8,0.1,7.7,0,11.5c0,0.2,0,0.4,0,0.6h-4.6c-0.1-4.1-0.1-8.3,0-12.4c0.1-2.3-0.8-2.9-3-2.9
				C60.2,354.1,55.1,353.9,50,353.8z"/>
			<path d="M102.3,323.1c-2.1-0.2-2.2,0.8-1.8,2.5c1.4,7,7.9,13.5,15.1,15.1c2.1,0.5,3,0,2.9-2.2c-0.1-1.3-0.2-2.5,1.9-2.3
				c1.8,0.1,2.5,0.7,2.3,2.5c-0.3,2.4,0.9,2.6,2.9,2c7.7-2.2,12.8-7,15-14.7c0.6-1.9,0.5-3.1-2.1-2.7c-1.8,0.3-3,0-3-2.4
				c0-2.5,1.6-2,3-2.1c1-0.1,2.6,0.6,2.3-1.5c-0.4-6.8-9.2-15.7-16.1-16.4c-1.7-0.2-2.1,0.5-2.1,1.9c0,1.7-0.1,3-2.5,3
				c-2.5,0-1.8-1.6-1.8-2.8c0-2-0.9-2.3-2.6-1.9c-7.4,1.4-14.1,8.2-15.3,15.5c-0.3,1.6-0.2,2.5,1.8,2.3c1.8-0.2,2.1,0.8,2.1,2.3
				C104.3,322.5,103.8,323.2,102.3,323.1z M120.1,307.5c8.2,0,14.2,5.5,14.3,13.2c0.1,7.4-6.1,13.4-13.8,13.5c-8,0-13.9-5.6-14-13.5
				C106.6,313.2,112.5,307.5,120.1,307.5z"/>
			<path d="M120.4,325.9c2.7,0,5.1-2.3,5.1-5.1c0-2.7-2.1-4.8-4.9-4.9c-2.9-0.1-5.3,2.1-5.3,4.8
				C115.3,323.6,117.6,325.9,120.4,325.9z"/>
		</g>
	</g>
	<path d="M250.5,478c14.8-0.6,28.4-5.3,41.8-10.6c22.9-9.1,44.5-20.8,65.5-33.6c46.1-28.1,88.8-60.5,128.5-97
		c19.2-17.6,37.3-36.2,53.3-56.8c8.1-10.4,15.6-21.2,20.9-33.4c2-4.6,3.6-9.3,3.7-14.4c0.3-9.3-4.5-14.9-13.8-16.1
		c-8.7-1.1-17,0.5-25.3,2.7c-17.5,4.6-33.8,11.9-49.9,20c-28.6,14.4-55.6,31.4-81.7,49.8c-30.2,21.3-59,44.4-86.1,69.6
		c-20.1,18.7-39.2,38.3-55.6,60.4c-7.1,9.5-13.6,19.4-18,30.5c-1.7,4.2-2.9,8.5-3,13.1c-0.1,8.5,4.5,13.8,12.9,15.2
		C246.1,477.8,248.3,477.8,250.5,478z"/>
	<g>
		<g>
			<g>
				<path class="st7" d="M414.5,287.4c-2.1-5.2-7.2-2.8-10.8-4.3c-0.5-0.2-1-0.1-1.5-0.2c-3.9-0.8-7.3-1.5-10.1-2
					c-17.5-3.4-17.7-3.9-28.4-23.4c-4.8-8.8-10.3-12.9-20.3-11.9c-6.4,0.7-13.1-0.3-18.1,5.1c-1.4,1.5-3.2,3.7-5.3,3.5
					c-3.5-0.3-0.9-3.5-1.7-5.3c-6.3-13.9-7.2-28.5-6.2-43.5c0.4-6.2,1.4-11,8.4-12.5c2.5-0.5,4.1-1.9,1.4-4.4
					c-2.1-2-1.9-3.8-0.2-6.1c1.7-2.2,3-4.7,5.3-8.4c-5.6,2.3-9.7,4.4-13.9,5.6c-11.7,3.6-16.7,11.6-16.9,23.5
					c-0.1,5.8-0.9,19.3-1.5,27c1.5,0.6,2.7,1.7,3.8,3.2c8.3,11.7,16.8,23.2,25.1,34.9c9.8,14,19.5,28.2,29.2,42.3
					c1.1,1.7,2.3,3.3,3.4,5c0.6,0.9,1,2.3,2.6,1.4c1.5-0.8,1.4-2.1,0.8-3.4c-0.4-0.9-1.1-1.7-1.6-2.5c-0.7-1-1.4-2-2.1-3
					c-5-7.2-10-14.5-15.1-21.6c-1-1.5-1.5-2.4,0.7-2.7c4.5-0.7,8.8-1.4,12,3.3c2.9,4.2,7,7.6,12.4,7.2c2.3-0.2,4.4,0.2,6.5,0.9
					c1.8,0.6,3.6,1.4,5.4,2.1c11.1,4.6,22.2,9.1,33.3,13.5c1.7,0.7,3.7,1.8,4.7-0.8C418.7,302.5,417.5,294.9,414.5,287.4z
					 M346.8,274.5c-4.3,1.2-8.6,2.6-13.3,1.8c3.8-3.5,8.5-3.6,13.1-4.1c0.3,0,0.9,0.4,1.1,0.8C348.1,273.9,347.3,274.4,346.8,274.5z
					 M328.8,262.4c0.9,4.3,4,1.6,6,1.4c4.3-0.5,8.5-2.2,13.1-1.2c-0.4,0.9-0.5,1.3-0.7,1.5c-5.5,2.8-12,2.2-17.5,5.3
					c-0.9,0.5-1.7-0.7-2.3-1.5c-1-1.5-1.9-3.2-3.1-4.5c-1.7-1.8-1.1-2.8,0.4-4.5c6.6-7.5,15.1-6.4,23.9-6.6
					c-0.8,2.8-2.6,2.7-4.2,2.9c-3.6,0.6-7.2,1.2-10.8,1.8C330.5,257.4,328.1,258.8,328.8,262.4z"/>
				<path class="st7" d="M467.4,233.4c-0.6-4.6-1.2-9.3-1.8-13.9c-1.3-9.4-2.9-18.8-4.4-28.1c-0.9-5.4-3.7-8.9-8.9-11
					c-11.9-5-24.5-8.3-36.8-14.4c1.1,6.1,1.6,11.5,3,16.8c1.3,4.9-0.2,7.1-4.9,8c-1.5,0.3-3,1.1-4.7,1.6c0.4,0.7,0.6,1.2,0.9,1.5
					c7.1,7.5,7.1,7.5,1,15.9c-8.1,11.1-17.9,20.6-27.4,30.4c-4.3,4.4-8.3,8.9-13.1,13c0.3-6.4,5.4-9.9,8.6-14.7
					c-9.9,0.3-16.5,8-12.6,14.9c2.5,4.3,5.5,8.3,8.4,12.4c3.1,4.4,7.1,7.1,12.6,8.1c3.8,0.6,7.5,1.5,11.3,2.3
					c6.1,1.3,12.3,2.2,18.8,1.5c3.3-0.4,4.4-1.4,5.4-4.3c1.8-5,2.3-9.9,2.2-15c0-1.4-0.1-2.8-0.2-4.2c-1-13.5-1-27,2.5-40.2
					c2.2-8.5,6.1-16.2,11.7-23c1.2-1.4,2.4-4,4.7-2.3c2.2,1.7-0.2,3.2-1.1,4.6c-6.2,8.7-10.1,18.2-11.9,28.8
					c-1.8,11-1.5,22.1-1.2,33.4c0.2,6.3,0.5,12.7,0.4,19.3c4.4-3.9,8.2-6.8,12.7-8.5c1.4-0.5,3.2-2,4.4,0.1c1.2,2.2-1,2.8-2.3,3.6
					c-3.1,1.9-6.5,3.5-9.4,5.7c-1.1,0.9-6,0.3-2.7,4.4c0.5,0.7-1.5,1-2.3,1.1c-3.9,0.4-7.8,0.7-12.2,1.1c3.6,8.5,6,17,3.9,26
					c-1,4.1-2.2,8.2-6.5,10.1c-2.5,1.1-5.3,2.6-7.1-1.4c-0.3-0.8-1.5-1.3-2.4-1.7c-10.9-4.1-21.5-8.9-32.1-13.8
					c-0.4-0.2-0.9-0.4-1.4-0.5c-2.7-1-4.6-1.5-5.8-1.5c-1.1,0-1.7,0.5-2.1,1.6c-0.4,1.2-0.5,3.1-0.4,5.8c0.1,24.7,1,49.3,6.9,73.4
					c3.7,15,8.8,21.9,19.2,23.4c16.2-10.9,31.9-22.3,47.3-34.3c-2.1-7.8-4.4-15.6-7.1-23.2c-2-5.6-4-11.3-5.2-17.2
					c-0.7-3.6,0-5.6,4.2-4.6c1.5,0.4,3,0.4,4.5,0.6c6.9,1.1,8.7,0.1,10.9-6.6c3.6-10.9,2.5-21.7-2.2-32.1c-0.9-2-2.7-4.1-1.3-6
					c1.6-2.1,4.4-0.9,6.5-0.3c7,1.9,13.3,5.2,18.3,10.7c1.3,1.4,3.2,3.1,0.9,5.1c-2,1.7-2.9-0.7-4-1.6c-4.7-4-9.3-8-16-9.5
					c5.6,13.2,7.3,25.8,0.4,38.5c-1.2,2.2-0.3,2.6,1.6,2.7c3.5,0.3,7,0.7,10.5,0.1c5-0.8,8.6-3.5,10.3-8.4c1.6-4.8,2.3-9.7,2.4-14.7
					C473,279.7,470.4,256.5,467.4,233.4z M377.2,263.7c-2,0-3-1.2-3.1-3.3c0.2-1.3,0.5-3.1,2.4-2.9c2,0.1,3.5,1.3,3.6,3.5
					C380.1,262.8,378.9,263.7,377.2,263.7z M373.3,331.7c-2.6,0.1-3.8-1.7-4.3-4.2c0.5-2.1,2-3.4,4.2-3.4c2.3,0,3.8,1.5,3.9,3.7
					C377.1,330.2,375.5,331.7,373.3,331.7z M419.9,343c-7.4,1.2-14.7,2.3-22.2,2.3c-2.7,0-5.3,0.1-8,0c-1.9-0.1-4.6,0.6-4.5-2.3
					c0.1-3,2.8-2.2,4.6-2.2c9.8,0.2,19.5-0.4,29.2-2.3c2-0.4,4.5-1.3,5,1.3C424.5,342.4,421.8,342.7,419.9,343z"/>
				<path class="st4" d="M323.2,358.6c-0.2-2.7,1.3-2.9,3.4-2.7c10.8,1,21.6,1.5,32.4,0.9c3.5-0.2,2.9,2.3,3.2,4.3
					c0.4,2.5-0.4,3.7-3.1,3.6c-3.8-0.1-7.6,0-11.5,0c-7.3,0.2-14.6-0.4-21.9-1.3C322.3,363,323.4,360.6,323.2,358.6z"/>
				<path class="st7" d="M316.6,324.1c-2,0.2-4,0-6,0c-10.1,0.2-10.1,0.2-11.4,10.3c-1.3,9.5-3,19-4.9,28.4
					c-1.8,9-3.8,17.9-5.6,26.9c-1,4.9-0.4,7.4,4.6,9.4c11.6,4.6,14.6,3.7,18.1-8.3c4.9-16.9,6.7-34.3,8.1-51.7
					c0.3-3.8,0.6-7.6,0.9-11.4C320.5,324.8,319.3,323.9,316.6,324.1z M312.3,337.3c2,0.1,3.4,1.4,3.2,3.5c-0.2,1.9-1.7,2.9-3.5,2.9
					c-1.9,0-2.8-1.5-2.9-3.2C309.5,338.7,310.4,337.2,312.3,337.3z"/>
				<path class="st4" d="M275.8,291.7c-5.4,3.2-11,6.3-16.4,9.6c-1.3,0.8-3.3,1.1-3.2,3.5c1.8,0.9,3.2-0.2,4.6-0.9
					c3.8-2,7.6-4.2,11.4-6.1c1.4-0.7,3-3.4,4.5-1c1.2,1.8-1,3.3-2.4,4.4c-3.7,2.8-7.6,5.4-11.3,8.2c-5.2,3.9-8.7,3.7-13.6-0.5
					c-6.4-5.5-9.8-12.9-13-20.5c-1.4-3.4,0-6.1,2.9-8.2c6.3-4.6,13.5-7.1,20.6-9.9c2-0.8,4.2-0.6,5,1.9c0.8,2.4-0.7,3.8-2.7,4.7
					c-5.1,2.1-10.1,4.4-14.7,7.4c-1.3,0.9-3.1,1.4-3,3.6c2,0.9,3.5-0.3,5.1-1.1c6.3-3,12.6-6,19-8.9c2.3-1,5.2-2.3,6.6,0.7
					c1.6,3.3-1.7,4.2-3.8,5.1c-6.7,3.1-13.2,6.4-19.4,10.2c-0.8,0.5-2,1.2-1.5,2.3c0.7,1.6,2,0.7,2.9,0.2c6.5-3.3,13-6.7,19.6-9.9
					c1.8-0.9,4-3,5.6-0.1C280.2,289.1,277.8,290.5,275.8,291.7z"/>
				<path class="st7" d="M280.7,334.6c-7.7-1.8-12-7.8-16.3-13.8c-0.5-0.7-0.8-1.6,0.1-2.2c1.1-0.7,1.9,0.2,2.5,1
					c4.2,5.6,9.8,6.8,15.4,5.5c3.6,0,6.2,0.1,8.9,0c3.5-0.2,3.4,1.5,2.5,3.9C292.2,333.2,286.1,335.8,280.7,334.6z"/>
				<path class="st7" d="M349.7,162.6c-6.6,11.2-10.4,22.9-13.6,34.7c-3.2,11.9-7,23.6-8.5,35.9c-0.4,3.6-0.9,7.3-1.4,10.9
					c-0.2,2-1.3,3.8-3.1,4.2c-2.2,0.4-2.1-2.1-2.6-3.4c-3.9-12.2-5.2-24.6-4.2-37.4c0.5-6.2,1.9-10.8,8.6-12.5
					c3.2-0.8,4.4-3,1.7-5.8c-2.6-2.8-1.7-5,0.2-7.8C332.5,173.2,339.3,166.6,349.7,162.6z"/>
				<polygon points="371.6,230.6 307.7,251 313.7,262 374.7,239.3 				"/>
				<path class="st4" d="M356,240.1c6.3-2.3,12.7-4.4,19.5-5.2c-6,3.5-11.9,6.8-18.8,8.3c-0.9,0.2-2.1,0.3-2.4-1
					C354,241,355.1,240.4,356,240.1z"/>
				<path class="st4" d="M394.4,155.5c-7-12-8.1-25.6-10-38.9c-0.2-1.5,0.3-2.1,1.9-2.7c8.4-2.9,11.4-18.4,5-24.6
					c-2.9-2.7-6.4-2.2-9.2,1.7c-1.3,1.7-1.9,2-4.5,1.7c-7.4-1-14.8-1.8-22.2-2.5c-3.5-0.3-7.2,2.8-10.9,4.3c-1.3,0.5-3,2-3.9,0.1
					c-0.8-1.7,1.3-2.4,2.6-2.9c2.1-0.9,4.2-1.7,6.4-2.5c-10.2-3.9-19.4-8.8-28.1-14.7c-2.1-1.4-3.1-0.9-4.1,1.3
					c-2.8,6.6-2.4,13.3-1.1,20.1c0.4,2,1.6,2.1,3.3,2c2.1-0.1,4.2-0.3,6.7,1c-1.2,1.3-2.4,1-3.3,1.3c-1.6,0.5-4.8-1.3-4.5,2
					c0.3,2.9,1,6.7,5.7,5.9c1.8-0.3,3.5-0.7,6-1.3c-1.2,3.3-3.5,4.6-6,4.9c-2.9,0.3-3,1.7-2.8,4c0.7,6.1,3.2,11.5,6.7,16.5
					c3.2,4.6,6.8,9,10.3,13.5c4.4,5.6,8.7,6.7,15.4,4c8.2-3.3,14.6-9.2,20.3-15.9c1.5-1.7,3-3.5,5-5.8c0.5,5.4-2.1,8.7-4.4,11.9
					c-4.1,6-9.7,10.6-16.1,13.8c-2.5,1.2-3.4,2.5-3.4,5.2c0,6.1-0.9,11.7-6.7,15.7c-4,2.7-3.7,11-0.4,17.8c2.3,4.7,6.5,6.9,11.9,6.1
					c8.3-1.1,14.6-6,21.1-10.8c9.5-7,11.8-17.6,14.5-28C395.8,158.2,395.2,156.9,394.4,155.5z M331.8,122.1c0-0.2,0.9-0.7,1-0.6
					c2.7,2.5,5.7-0.2,10,0.4c-4,3.1-6.9,4.4-10.4,1.9C332,123.5,331.8,122.7,331.8,122.1z M344.4,140.5c-2.5,0.5-5.1,0.6-6.6-3.2
					c5.6,1.7,9.4-0.1,12.9-5.2c-4.9,1.4-8.6,3.4-12.8,3.1c-0.9-0.1-2.2,0.4-2.4-1c-0.2-1.3,1-1.7,1.9-1.8c5.8-0.6,11.1-2.7,16.6-4.9
					C353.2,134,349,139.6,344.4,140.5z M342.9,103c5.4,0.5,9.5-1.4,13.5-3.7C353.8,106.1,347.9,107.9,342.9,103z M387.7,94.2
					c-0.2,4.3-0.4,5-2.2,7.8C383.4,97.8,383.8,96.1,387.7,94.2z"/>
				<path class="st7" d="M274.2,237.7c-11.4,1.1-22.8,2.2-34.3,3.2c-1.3,0.1-2.7,0.3-4,0c-2.2-0.4-3.6-2.2-3.5-4.2
					c0.1-2,2.3-1.4,3.6-1.6c2.8-0.4,5.6-0.7,8.4-0.9c3.1-0.2,4.9-0.9,2.8-4.5c-0.9-1.5-1.2-3.6,0.7-4.9c1.6-1.2,3.5-1.1,5.2-0.3
					c2,0.9,4.1,2.2,4.5,4.4c0.6,3.5,2.7,3.6,5.4,3.3c1.5-0.2,3-0.2,5.9-0.4c0.6-0.1,2.6-0.3,4.6-0.5c3.1-0.3,4.3,1.9,4.5,4.3
					C278.1,238,275.6,237.6,274.2,237.7z"/>
				<path class="st7" d="M410,187.9c-8.7,2.7-8.8,3-2.3,9.3c3,3,3.4,5.2,0.9,8.7c-7.3,10.3-16,19.4-25.4,28.7
					c-1.7-6.4-5.8-6.5-11.6-3.9c1.7-7.4,4.9-12.9,7.2-18.7c7.5-18.8,19.4-35.9,21.9-56.9c6.6,2.7,11.5,6.4,11.6,14.3
					c0.1,3.9,0.9,7.9,1.8,11.8C415.1,185.2,413.7,186.8,410,187.9z"/>
				<path d="M360.4,423c-2.8,1.7-5.6,3.4-8.4,5c-0.2-1.7-0.3-3.4-0.5-5H360.4z"/>
				<path d="M348.2,430.3c-17,9.9-34.6,18.8-52.9,26.1c0,0-0.1,0-0.1,0c-1.4-11.1-2.6-22.3-3.3-33.5h55.8
					C347.8,425.4,348,427.9,348.2,430.3z"/>
				<path d="M294.6,230.3c-0.1,1.1-0.2,2.1-0.2,2.9c-0.3,3.6-2.9,2.4-4.8,2.6c-3.1,0.3-1.8-1.9-1.6-3.4c0.1-0.7,0.1-1.4,0.2-2.2
					c0.9-0.1,1.8-0.2,2.7-0.3C292.3,229.7,293.5,229.9,294.6,230.3z"/>
				<path d="M444.7,270.1c1.3-0.8,3.5-1.4,2.3-3.6c-1.2-2.1-3-0.6-4.4-0.1c-4.5,1.7-8.4,4.6-12.7,8.5c0-6.5-0.2-13-0.4-19.3
					c-0.4-11.3-0.7-22.3,1.2-33.4c1.7-10.6,5.7-20.1,11.9-28.8c1-1.4,3.3-2.9,1.1-4.6c-2.3-1.8-3.5,0.9-4.7,2.3
					c-5.6,6.8-9.4,14.5-11.7,23c-3.5,13.2-3.5,26.7-2.5,40.2c0.1,1.4,0.2,2.8,0.2,4.2c0.1,5.1-0.4,10-2.2,15c-1,2.9-2.2,3.9-5.4,4.3
					c-6.5,0.7-12.6-0.3-18.8-1.5c-3.8-0.8-7.5-1.6-11.3-2.3c-5.5-0.9-9.5-3.7-12.6-8.1c-2.8-4.1-5.9-8.1-8.4-12.4
					c-3.9-6.8,2.7-14.6,12.6-14.9c-3.1,4.8-8.3,8.3-8.6,14.7c4.7-4.1,8.8-8.6,13.1-13c9.5-9.8,19.3-19.3,27.4-30.4
					c6.1-8.4,6.1-8.4-1-15.9c-0.3-0.3-0.5-0.8-0.9-1.5c1.7-0.6,3.1-1.4,4.7-1.6c4.7-0.9,6.3-3.1,4.9-8c-1.4-5.2-2-10.7-3-16.8
					c12.2,6,24.8,9.4,36.8,14.4c5.2,2.2,8,5.7,8.9,11c1.5,9.4,3.1,18.7,4.4,28.1c0.6,4.6,1.2,9.3,1.8,13.9c3,23.1,5.6,46.3,4.9,69.7
					c-0.1,5-0.8,10-2.4,14.7c-1.7,4.9-5.2,7.5-10.3,8.4c-3.5,0.6-7,0.2-10.5-0.1c-1.9-0.2-2.8-0.5-1.6-2.7
					c6.9-12.6,5.2-25.3-0.4-38.5c6.7,1.5,11.3,5.5,16,9.5c1.1,0.9,2,3.3,4,1.6c2.3-1.9,0.3-3.6-0.9-5.1c-4.9-5.5-11.2-8.8-18.3-10.7
					c-2.1-0.6-4.9-1.8-6.5,0.3c-1.4,1.9,0.4,4,1.3,6c4.7,10.4,5.9,21.2,2.2,32.1c-2.2,6.8-4.1,7.7-10.9,6.6c-1.5-0.2-3-0.3-4.5-0.6
					c-4.2-1-4.9,1-4.2,4.6c1.1,5.9,3.1,11.5,5.2,17.2c2.7,7.6,5.1,15.4,7.1,23.2c1.7-1.3,3.3-2.6,5-3.9
					c-3.2-11.3-6.9-22.4-10.7-33.5c-0.2-0.7-0.5-1.5-0.8-2.6c6.8,1,13.2,1.9,19.5,2.8c15,2.1,23.8-4,26.6-18.8
					c2.4-12.9,1.4-25.9,0.6-38.9c-1-14.8-2.7-29.6-4.6-44.3c-1.8-13.4-3.8-26.7-6-40c-1.2-7.4-4.8-12.6-11.9-15.2
					c-11.2-4.2-22.4-8.6-33.5-12.9c-1.8-0.7-3.6-1.7-5.4-2.6c0.1-0.4,0.2-0.9,0.3-1c7.2-2.1,9-7.6,9.9-14.4c1.1-9.6-0.5-18.5-4-27.3
					c-0.4-1.2-1.7-2.1-0.8-4c8.1,12.1,9.8,24.9,5.4,39c9-6.1,11.5-17.7,8.6-28.6c-1.9-7.2-5.8-13.5-10.3-19.2
					c-6.1-7.8-10.4-16.5-13.4-26c-5.7-17.9-15.8-32.3-34-39.4c-20.9-8.2-48.2,0.3-60.9,18.9c-0.8,1.2-1.8,2.4-3,3.2
					c-15.1,9.9-17.2,28.5-10.6,39.7c7.1,12,7.6,23.5,4.4,36.7c-3.6,14.3,0.6,21.8,14.5,32.1c-4.4,2.9-9.4,4.3-14.1,6.1
					c-11.8,4.5-16.9,13.3-17.9,25.3c-0.6,6.6-1.4,21.5-2.1,29.6c0.9-0.1,1.8-0.2,2.7-0.3c1.4-0.2,2.7,0,3.8,0.4
					c0.6-7.7,1.4-21.2,1.5-27c0.2-12,5.2-19.9,16.9-23.5c4.2-1.3,8.3-3.3,13.9-5.6c-2.3,3.6-3.6,6.1-5.3,8.4
					c-1.7,2.2-1.9,4.1,0.2,6.1c2.7,2.5,1,3.9-1.4,4.4c-7,1.5-8,6.3-8.4,12.5c-1,15-0.2,29.6,6.2,43.5c0.8,1.8-1.8,5,1.7,5.3
					c2.1,0.2,3.8-2,5.3-3.5c5.1-5.4,11.7-4.4,18.1-5.1c10-1,15.4,3.1,20.3,11.9c10.7,19.5,10.9,20,28.4,23.4c2.9,0.6,6.2,1.2,10.1,2
					c0.5,0.1,1,0,1.5,0.2c3.6,1.5,8.8-0.9,10.8,4.3c3,7.5,4.3,15.1,1.3,22.8c-1,2.6-3,1.4-4.7,0.8c-11.1-4.5-22.2-9-33.3-13.5
					c-1.8-0.8-3.6-1.5-5.4-2.1c-2-0.6-4.1-1-6.5-0.9c-5.5,0.4-9.5-3-12.4-7.2c-3.3-4.7-7.6-4-12-3.3c-2.2,0.3-1.7,1.2-0.7,2.7
					c5.1,7.2,10.1,14.4,15.1,21.6c0.7,1,1.4,2,2.1,3c0.6,0.8,1.2,1.6,1.6,2.5c0.6,1.3,0.7,2.6-0.8,3.4c-1.6,0.9-1.9-0.5-2.6-1.4
					c-1.1-1.7-2.3-3.3-3.4-5c-9.7-14.1-19.4-28.3-29.2-42.3c-8.2-11.7-16.8-23.2-25.1-34.9c-1.1-1.5-2.3-2.6-3.8-3.2
					c-0.1,1.1-0.2,2.1-0.2,2.9c-0.3,3.6-3,2.4-4.8,2.6c-3.1,0.3-1.8-1.9-1.6-3.4c0.1-0.7,0.1-1.4,0.2-2.2c-1.9,0.2-3.8,0.4-5.8,0.5
					c-2.5,0.2-5,1-6.6-2.6c-1.1-2.4-4.3-1.2-6.4-1c-4.5,0.4-8.3,0.3-11.2-4.1c-2-3-5.8-3.6-9.5-3.5c-2.9,0.1-6,1.7-5.9,4.4
					c0.2,7-4.6,5.5-8.6,6.4c-6.8,1.6-13.6,2.7-20.6,2.9c-4.6,0.1-5.8,4.6-2.5,9c6.6,8.8,13.2,17.6,19.8,26.3c1,1.3,1.9,2.8,3,4
					c2,2.2,2.2,3.9-0.1,6.2c-2.9,2.8-3.5,6.6-2.3,10.2c4.1,13,10.3,24.3,24.3,28.9c1.7,0.5,2.3,1.7,3.1,3c1.7,2.9,3.3,5.8,5.3,8.5
					c7.9,10.7,14.9,13.2,28.1,9.7c-1.5,10.8-3.6,21.3-5.8,31.7c-1.6,7.5-3.2,14.8-4.6,22.2c-1,5.1,0.5,7.7,4.7,9.3
					c3.7,1.4,4.6,3.8,4.7,7.6c0.2,4.4,0.4,8.7,0.7,13.1h55.8c-0.3-4.4-0.6-8.9-0.8-13.3c-0.1-1.6-1.6-4.2,1.3-4.4
					c2.6-0.1,1.8,2.6,2,4.3c0.5,4.5,0.9,8.9,1.4,13.4h8.9c0.1-0.1,0.2-0.1,0.4-0.2c10-6.1,19.9-12.4,29.6-18.9
					c-10.4-1.6-15.5-8.4-19.2-23.4c-5.9-24.1-6.8-48.8-6.9-73.4c0-2.8,0.1-4.7,0.4-5.8c0.4-1.1,1-1.6,2.1-1.6c1.2,0,3.1,0.6,5.8,1.5
					c0.5,0.2,1,0.3,1.4,0.5c10.6,4.9,21.2,9.6,32.1,13.8c0.9,0.3,2,0.9,2.4,1.7c1.7,4,4.5,2.5,7.1,1.4c4.3-1.9,5.5-6,6.5-10.1
					c2.1-9-0.3-17.4-3.9-26c4.3-0.4,8.2-0.7,12.2-1.1c0.8-0.1,2.8-0.4,2.3-1.1 M232.4,236.7c0.1-2,2.2-1.5,3.6-1.6
					c2.8-0.4,5.6-0.7,8.4-0.9c3.1-0.2,4.9-0.9,2.8-4.5c-0.9-1.5-1.2-3.6,0.7-4.9c1.6-1.2,3.5-1.1,5.2-0.2c2,0.9,4.1,2.2,4.4,4.4
					c0.6,3.5,2.7,3.6,5.4,3.3c1.5-0.2,3-0.2,5.9-0.4c0.6-0.1,2.6-0.3,4.6-0.5c3.1-0.3,4.3,1.9,4.5,4.3c0.2,2.4-2.3,2-3.7,2.1
					c-11.4,1.1-22.8,2.2-34.3,3.2c-1.3,0.1-2.7,0.3-4,0C233.7,240.5,232.3,238.7,232.4,236.7z M249.5,308.9
					c-6.4-5.5-9.8-12.9-13-20.4c-1.4-3.4,0-6.1,2.9-8.2c6.3-4.6,13.5-7.1,20.6-9.9c2-0.8,4.2-0.6,5,1.9c0.8,2.3-0.7,3.8-2.7,4.7
					c-5.1,2.1-10,4.4-14.7,7.4c-1.3,0.8-3.1,1.4-3,3.6c2,0.9,3.5-0.3,5.1-1.1c6.3-3,12.6-6,19-8.9c2.3-1,5.2-2.3,6.6,0.7
					c1.6,3.3-1.7,4.2-3.8,5.1c-6.7,3.1-13.2,6.4-19.4,10.2c-0.8,0.5-2,1.2-1.5,2.3c0.7,1.6,2,0.7,2.9,0.2c6.5-3.3,13-6.7,19.6-9.9
					c1.8-0.9,4-3,5.6-0.1c1.6,2.8-0.9,4.2-2.9,5.4c-5.4,3.2-10.9,6.3-16.4,9.6c-1.3,0.8-3.3,1.1-3.2,3.5c1.8,0.9,3.2-0.1,4.6-0.9
					c3.8-2,7.6-4.2,11.4-6.1c1.4-0.7,3-3.4,4.5-1c1.2,1.8-1,3.3-2.4,4.4c-3.7,2.8-7.6,5.4-11.3,8.2
					C257.9,313.2,254.4,313,249.5,308.9z M280.7,334.6c-7.7-1.8-12-7.8-16.3-13.8c-0.5-0.7-0.8-1.6,0.1-2.2c1.1-0.7,2,0.2,2.5,1
					c4.2,5.6,9.8,6.8,15.4,5.6c3.6,0,6.2,0.1,8.9,0c3.5-0.2,3.4,1.5,2.5,3.9C292.2,333.2,286.1,335.9,280.7,334.6z M311.2,390.9
					c-3.4,12-6.4,12.9-18.1,8.3c-5-2-5.6-4.5-4.6-9.4c1.9-9,3.8-17.9,5.6-26.9c1.9-9.4,3.6-18.9,4.9-28.4
					c1.4-10.1,1.4-10.1,11.4-10.3c2,0,4,0.1,6,0c2.7-0.2,4,0.6,3.7,3.6c-0.3,3.8-0.6,7.6-0.9,11.4
					C317.9,356.5,316.1,373.9,311.2,390.9z M359.2,364.7c-3.8-0.1-7.6,0-11.5,0c-7.3,0.2-14.6-0.4-21.9-1.3
					c-3.5-0.4-2.4-2.8-2.6-4.8c-0.2-2.7,1.3-2.9,3.5-2.7c10.8,1,21.5,1.5,32.4,0.9c3.5-0.2,2.9,2.3,3.2,4.3
					C362.7,363.6,361.9,364.8,359.2,364.7z M336,197.4c-3.2,11.9-7,23.6-8.5,35.9c-0.4,3.6-0.9,7.2-1.4,10.9c-0.2,2-1.3,3.8-3.1,4.2
					c-2.2,0.4-2.1-2.1-2.6-3.4c-3.9-12.2-5.2-24.6-4.2-37.4c0.4-6.2,1.9-10.8,8.6-12.5c3.2-0.8,4.4-3,1.7-5.8
					c-2.6-2.8-1.7-5,0.2-7.8c5.6-8.1,12.4-14.7,22.8-18.7C343,173.9,339.2,185.5,336,197.4z M347.9,192.4
					c-3.3-6.8-3.6-15.1,0.4-17.8c5.8-4,6.8-9.6,6.7-15.7c0-2.7,0.9-4,3.4-5.2c6.5-3.2,12-7.8,16.1-13.8c2.2-3.3,4.9-6.6,4.4-11.9
					c-2,2.4-3.5,4.1-5,5.8c-5.7,6.6-12,12.5-20.3,15.9c-6.7,2.7-11,1.6-15.4-4c-3.5-4.4-7.1-8.8-10.3-13.5c-3.5-5-6-10.4-6.7-16.5
					c-0.3-2.3-0.1-3.7,2.8-4c2.5-0.3,4.8-1.5,6-4.9c-2.5,0.5-4.2,1-6,1.3c-4.6,0.7-5.4-3.1-5.7-5.9c-0.4-3.2,2.9-1.5,4.5-2
					c1-0.3,2.1,0,3.3-1.3c-2.5-1.3-4.6-1.1-6.7-1c-1.6,0.1-2.9,0-3.3-2c-1.2-6.8-1.7-13.5,1.1-20.1c1-2.2,2-2.7,4.1-1.3
					c8.7,5.9,18,10.7,28.1,14.7c-2.1,0.8-4.3,1.6-6.4,2.5c-1.3,0.6-3.4,1.2-2.6,2.9c0.9,1.9,2.6,0.4,3.9-0.1
					c3.7-1.5,7.4-4.6,10.9-4.3c7.4,0.7,14.9,1.5,22.2,2.5c2.6,0.3,3.2,0.1,4.5-1.7c2.8-3.9,6.4-4.5,9.2-1.7c6.5,6.2,3.4,21.8-5,24.6
					c-1.7,0.6-2.2,1.2-1.9,2.7c1.9,13.3,3.1,26.9,10,38.9c0.8,1.4,1.4,2.7,1,4.2c-2.7,10.5-5,21.1-14.5,28
					c-6.5,4.8-12.8,9.6-21.1,10.8C354.4,199.3,350.2,197.1,347.9,192.4z M356.7,243.2c-0.9,0.2-2.1,0.4-2.4-1
					c-0.3-1.2,0.8-1.8,1.7-2.1c6.3-2.3,12.7-4.3,19.5-5.2C369.5,238.3,363.6,241.7,356.7,243.2z M410,187.9c-8.7,2.6-8.8,3-2.3,9.3
					c3,3,3.4,5.2,0.9,8.7c-7.4,10.3-16,19.4-25.4,28.7c-1.7-6.4-5.8-6.5-11.6-3.9c1.7-7.4,4.9-12.9,7.2-18.7
					c7.5-18.8,19.4-35.9,21.9-56.9c6.6,2.7,11.5,6.4,11.6,14.3c0.1,4,0.9,8,1.8,11.8C415.1,185.2,413.7,186.8,410,187.9z"/>
				<path d="M348.7,252.2c-0.8,2.8-2.6,2.7-4.2,2.9c-3.6,0.6-7.2,1.2-10.8,1.8c-3.2,0.5-5.6,1.8-4.9,5.4c0.8,4.3,4,1.6,6,1.4
					c4.3-0.4,8.5-2.2,13.1-1.2c-0.4,0.9-0.5,1.3-0.7,1.5c-5.5,2.8-12,2.3-17.5,5.3c-0.9,0.5-1.7-0.7-2.3-1.6c-1-1.5-1.9-3.2-3.1-4.5
					c-1.7-1.8-1.1-2.8,0.4-4.5C331.3,251.2,339.9,252.4,348.7,252.2z"/>
				<path d="M347.7,273.1c0.4,0.8-0.4,1.3-0.9,1.4c-4.3,1.2-8.6,2.6-13.3,1.8c3.8-3.5,8.5-3.6,13.1-4
					C347,272.3,347.6,272.7,347.7,273.1z"/>
				<path d="M389.8,340.8c9.8,0.2,19.5-0.4,29.2-2.3c2-0.4,4.5-1.3,5,1.3c0.5,2.6-2.2,2.9-4.1,3.2c-7.4,1.2-14.7,2.3-22.2,2.3
					c-2.7,0-5.3,0.1-8,0c-1.8-0.1-4.6,0.7-4.5-2.3C385.3,340,388,340.8,389.8,340.8z"/>
				<path d="M373.1,324.2c2.3,0,3.8,1.5,3.9,3.7c0.1,2.3-1.5,3.8-3.7,3.9c-2.6,0.1-3.8-1.7-4.3-4.2
					C369.4,325.4,370.9,324.2,373.1,324.2z"/>
				<path d="M377.2,263.7c-2,0-3-1.1-3.1-3.3c0.2-1.3,0.5-3,2.4-2.9c2,0.1,3.5,1.3,3.5,3.5C380.1,262.8,378.9,263.7,377.2,263.7z"/>
				<path d="M337.3,132.4c5.8-0.6,11.1-2.7,16.6-4.9c-0.7,6.5-4.8,12.1-9.5,13c-2.5,0.5-5.1,0.6-6.6-3.2c5.6,1.7,9.3-0.1,12.9-5.2
					c-4.9,1.4-8.6,3.4-12.8,3.1c-0.9-0.1-2.2,0.4-2.4-1C335.1,132.9,336.4,132.5,337.3,132.4z"/>
				<path d="M342.9,103c5.4,0.5,9.5-1.4,13.5-3.7C353.8,106.1,347.9,107.9,342.9,103z"/>
				<path d="M332.4,123.8c-0.4-0.3-0.6-1.1-0.6-1.7c0-0.2,0.9-0.7,1-0.6c2.7,2.5,5.7-0.2,10,0.4C338.8,125,335.9,126.4,332.4,123.8z
					"/>
				<path d="M387.7,94.2c-0.2,4.3-0.4,5-2.2,7.8C383.4,97.8,383.8,96.1,387.7,94.2z"/>
				<path d="M312.3,337.3c2,0.1,3.4,1.4,3.2,3.5c-0.2,1.9-1.7,2.9-3.4,2.9c-1.9,0-2.8-1.5-2.9-3.2
					C309.5,338.7,310.4,337.2,312.3,337.3z"/>
			</g>
		</g>
		<g>
			<path d="M418.3,284.9c-2.3-5.8-7.2-6-10.5-6.1c-1.3-0.1-2.5-0.1-3.3-0.5c-0.8-0.3-1.6-0.4-2.1-0.4c-0.1,0-0.1,0-0.2,0
				c-3.6-0.8-6.8-1.4-9.6-1.9l-1.6-0.3c-7.3-1.4-12-2.4-15.2-4.3c-0.7-0.4-1.4-0.9-2.1-1.5c-0.1-0.1-0.3-0.2-0.4-0.3
				c-4.3-2.9-6.9-7.4-9.7-12.2c-0.8-1.3-1.5-2.7-2.3-4c-4.4-7.1-9.8-10.5-17.5-11c-2.4-0.2-4.4-0.2-6.3-0.2
				c-4.7,0-11.7,0.4-18.5,4.2l-0.4,0.2c-1.4,0.8-5.3,2.8-4.2,7.1c0,0,0,0.1,0,0.1c0.1,0.2,0.1,0.3,0.2,0.5c0.9,2.5,2.9,3.9,5.5,3.9
				c0.4,0,0.9,0,1.4-0.1c0.5-0.1,1-0.2,1.5-0.4c-0.3,0.9-0.4,1.7-0.5,2.3c0,0.5,0,0.9,0,1.2c0.2,1.8,0.7,3.1,1.5,4
				c-1.4,1.7-1.4,3.9-1.2,5.7c0.2,2,0.9,3.4,2.2,4.4c-0.6,0.9-0.7,2-0.7,3c0,4,3.1,6.9,7.5,7.1c0.7,0,1.4,0.1,2.1,0.2
				c0.1,0,0.3,0,0.4,0c0.2,0,0.3,0,0.5,0c0,0,0.3,0,0.3,0c1.6-0.2,3.1-0.5,4.5-0.5c2.1,0,3.7,0.5,5.3,2.8c3.5,5.1,7.7,8.2,12.4,9.1
				c1,0.2,2.1,0.3,3.2,0.3c0.3,0,0.6,0,1,0c0.1,0,0.2,0,0.2,0c0.3,0,0.7,0,1,0c1.6,0,3.1,0.3,4.9,0.8c1.3,0.4,2.6,0.9,3.7,1.4
				l0.9,0.4c0.4,0.2,0.8,0.4,1.2,0.5c12.2,5,24.6,10,36.5,14.9l0.7,0.3c1,0.4,2.3,1,3.8,1c0,0,0,0,0,0c2.4,0,4.3-1.4,5.3-3.9
				C423,304.2,422.5,295.2,418.3,284.9z"/>
			<path class="st4" d="M415.3,286.2c-2.3-5.7-8-3.1-12-4.7c-0.5-0.2-1.1-0.1-1.6-0.2c-4.3-0.9-8-1.6-11.2-2.3
				c-7.9-1.5-12.6-2.6-16.2-4.7c-1-0.6-1.8-1.2-2.7-1.9c0,0,0,0,0,0c-6.3-4.2-9.2-11.1-13-17.2c-3.5-5.7-7.8-9-14.9-9.4
				c-8-0.5-15.7-0.4-22.9,3.6c-1.5,0.8-3.5,1.6-3,3.6c0,0.1,0.1,0.2,0.1,0.3c0.6,1.7,1.9,1.9,3.3,1.7c0.6-0.1,1.2-0.3,1.8-0.5
				c6.9-2.6,13.9-2.9,21.1-1.7c0.4,0.1,0.9,0.2,1.3,0.4c0.2,0.1,0.3,0.5,0.5,0.7c-1,1.9-2.9,1.3-4.4,1.5c-3.8,0.5-7.6,0.7-11.3,1.3
				c-2.1,0.3-4,1.2-4.1,3.7c0,0.2,0,0.5,0,0.8c0.2,1.8,0.3,2.5,2.6,2.2c1.3-0.2,2.6-0.3,3.9-0.4c2.9-0.2,5.9-0.2,8.8-0.3
				c1.1,0,2.8,0,2.8,1.6c0,1.4-1.6,1.1-2.6,1.1c-4.1,0.4-8.2,0.7-12.2,1c-2.9,0.2-3.2,1.9-3,4.4c0.1,1.2,0.4,1.8,0.9,2.1
				c0.7,0.4,1.8,0.2,2.9,0.1c2.5-0.1,5-0.5,7.6-0.3c1.7,0.1,3.5,0.5,5.4,1.3c-4.1,2.4-7.9,1.2-11.3,2.1c-1.6,0.4-4.2-0.3-4.2,2.3
				c0,2.4,1.9,3.7,4.3,3.8c0.8,0,1.6,0.1,2.4,0.2c0,0,0.1,0,0.1,0c5-0.7,9.7-1.6,13.3,3.7c2.6,3.7,6,6.9,10.4,7.8
				c1,0.2,2.1,0.3,3.3,0.2c0,0,0,0,0,0h0.1c2.6-0.2,4.9,0.2,7.1,1c1.3,0.4,2.6,0.9,3.9,1.5c0.7,0.3,1.4,0.6,2.1,0.9
				c12.2,5.1,24.5,10,36.8,15c1.8,0.7,4,2,5.1-0.9C420,302.8,418.6,294.4,415.3,286.2z"/>
		</g>
	</g>
</g>
</svg>
