<?xml version="1.0" encoding="utf-8"?>
<!-- Generator: Adobe Illustrator 24.3.0, SVG Export Plug-In . SVG Version: 6.00 Build 0)  -->
<svg version="1.1" id="Layer_1" xmlns="http://www.w3.org/2000/svg" xmlns:xlink="http://www.w3.org/1999/xlink" x="0px" y="0px"
	 width="564.3px" height="478px" viewBox="0 0 564.3 478" style="enable-background:new 0 0 564.3 478;" xml:space="preserve">
<style type="text/css">
	.st0{fill:#185AE9;}
	.st1{fill:#00B0FB;}
	.st2{fill:none;}
	.st3{fill:#00B0FB;fill-opacity:0.4;}
	.st4{fill:#FFFFFF;}
	.st5{fill:#3C7CFF;}
	.st6{fill:#001135;}
	.st7{fill:#DBDBDB;}
	.st8{fill:#030302;}
	.st9{fill:#FCFCFC;}
	.st10{fill:#D2D3D3;}
	.st11{fill:#1F1F1F;}
	.st12{fill:#F6F6F6;}
	.st13{fill:#0E0D0E;}
	.st14{fill:#BABBBB;}
	.st15{fill:#8A8A8A;}
	.st16{fill:#8E8F8F;}
	.st17{fill:#464746;}
	.st18{fill:#5F5E5E;}
	.st19{fill:#0B0B0B;}
	.st20{fill:#090909;}
	.st21{fill:#151414;}
	.st22{fill:#101010;}
	.st23{fill:#282828;}
	.st24{fill:#E8E8E8;}
	.st25{fill:#FEFEFE;}
	.st26{fill:#0A0A0A;}
</style>
<g>
	<g>
		<path d="M417.1,232.8c-1.5-0.2-2.1,0.1-2.3,1.7c-1.6,12.7-3.3,25.4-5,38.1c-0.6,4.7-0.5,4.7,4,4.6c1.9,0.2,1.5-1.2,1.6-2
			c1.7-12.8,3.3-25.6,4.9-38.4C420.8,233.2,420.8,233.3,417.1,232.8z"/>
		<path d="M401.2,249.2c1.2-0.9,1.7-4,0.6-5.2c-1.2-1.2-2.1,0.5-2.9,1c-5.8,3.9-11.5,8-17.3,11.9c-1.3,0.9-2.3,1.7-2.1,3.4
			c0.2,1.7,1.4,2.5,2.9,3c7,2.3,14,4.7,21,7.1c2.2,0.7,2.2,0.6,2.3-1.7c0.1-1.9-0.6-2.7-2.4-3.3c-5.5-1.8-10.9-3.8-16.8-5.8
			c1.7-1.2,3-2.2,4.3-3.1C394.2,254,397.7,251.6,401.2,249.2z"/>
		<path d="M449.2,247.6c-3.2-1.2-6.5-2.2-9.8-3.3c-4.2-1.4-8.3-2.8-12.5-4.2c-0.5-0.2-1.3-0.9-1.5,0.4c-0.4,2.2,0.8,4.1,2.9,4.9
			c5.3,1.9,10.7,3.7,16.2,5.7c-4.5,3.7-9.1,6.7-13.7,9.7c-2.2,1.4-2.6,2.9-1.8,5.2c0.3,1,0.6,1.4,1.6,0.7c6.5-4.5,13-8.9,19.5-13.5
			C452.4,251.5,451.9,248.6,449.2,247.6z"/>
	</g>
	<g>
		<path class="st4" d="M438.2,203.8c0.1,0,0.2,0,0.2,0c0.1,0,0.3,0,0.4,0c-0.1,0-0.3,0-0.4,0C438.4,203.8,438.3,203.8,438.2,203.8z"
			/>
		<path class="st7" d="M474.2,158.9c-2.4-1.6-2.8-4.1-3.4-5.9c0.2-3.2-1.3-4.6-3.9-4.9c-2.4-0.3-4.9-0.8-6.4-3.2
			c-1.1-1.7-3.6-1.7-4.7-0.1c-1.7,2.5-4.1,3.4-7,3.3c-2-0.1-3.8,1.7-3.6,3.6c0.3,2.8-0.8,5.2-3,6.9c-2,1.6-2,3.4,0.1,4.8
			c2.1,1.3,2.9,3.3,2.9,5.6c0,2.5,1.3,3.7,3.7,4.1c2.5,0.4,5,1,6.7,3.3c1.3,1.7,3.5,1.7,4.8,0.1c1.9-2.4,4.2-3.4,7.3-3.2
			c1.6,0.1,3.5-2.4,3.4-4c-0.2-2.6,0-4.9,2.9-6.1C476,162.4,476.1,160.1,474.2,158.9z M458.1,171.2c-6-0.1-10.6-4.8-10.4-10.6
			c0.2-5.8,5-10.4,10.8-10.2c5.7,0.1,10.3,5,10.2,10.6C468.6,166.7,463.8,171.3,458.1,171.2z"/>
		<path class="st4" d="M314.6,200.4c0.5,0.7,1,1.3,1.7,1.8C315.6,201.8,315,201.2,314.6,200.4z"/>
		<path class="st7" d="M417.4,134c0-3.8-0.1-3.9-3.8-3.9c-12.7,0-25.3,0-38,0c-11,0-22.1,0.1-33.1,0c-2.5,0-3.3,0.8-3.2,3.2
			c0.1,3.8,0.1,7.7,0,11.5c-0.1,2.2,0.6,2.9,2.9,2.9c12-0.1,24.1,0,36.1,0c12,0,24.1-0.1,36.1,0c2.5,0,3.3-0.9,3.2-3.3
			C417.4,140.9,417.5,137.4,417.4,134z"/>
		<path class="st4" d="M458,155.7c-3,0-5.3,2.3-5.3,5.2c0,3,2.6,5.5,5.5,5.5c2.9-0.1,5.3-2.5,5.2-5.3
			C463.4,157.9,461.1,155.6,458,155.7z"/>
		<path class="st4" d="M313.2,16.8C313.2,16.8,313.2,16.8,313.2,16.8c0,34.2,0,68.3,0,102.4C313.2,85.1,313.2,51,313.2,16.8
			C313.2,16.8,313.2,16.8,313.2,16.8z"/>
		<path class="st7" d="M401.7,74.4c0.1-7.7-6.7-14.3-14.9-14.4c-8.1-0.1-15,6.6-15,14.6c-0.1,8.3,6.8,15.1,15.1,15.1
			C394.9,89.6,401.5,82.8,401.7,74.4z"/>
		<path class="st4" d="M313.2,194.7C313.2,194.7,313.2,194.7,313.2,194.7c0,2.4,0.4,4.3,1.3,5.7C313.7,199,313.2,197.1,313.2,194.7
			C313.2,194.7,313.2,194.7,313.2,194.7z"/>
		<path class="st4" d="M313.2,8.5L313.2,8.5c0-1.8,0.3-3.2,0.8-4.5C313.5,5.3,313.2,6.8,313.2,8.5z"/>
		<path class="st4" d="M555.7,0L555.7,0c1.1,0,2,0.1,2.9,0.3C557.7,0.1,556.7,0,555.7,0z"/>
		<path class="st4" d="M314.1,4c0.2-0.5,0.5-0.9,0.8-1.3C314.6,3.1,314.3,3.6,314.1,4z"/>
		<path class="st4" d="M555.5,204C555.5,204,555.5,204,555.5,204C555.5,204,555.5,204,555.5,204z"/>
		<path class="st4" d="M561.2,202.3c0.7-0.5,1.3-1.1,1.7-1.8C562.4,201.2,561.9,201.8,561.2,202.3z"/>
		<path class="st4" d="M564.3,8.5c0,1.3,0,2.6,0,3.9C564.3,11.1,564.3,9.8,564.3,8.5c0-3.2-0.9-5.5-2.7-6.9
			C563.4,3.1,564.3,5.3,564.3,8.5z"/>
		<path class="st4" d="M321.8,0c19.6,0,39.1,0,58.7,0C361,0,341.4,0,321.8,0c-3.2,0-5.5,0.9-7,2.7C316.3,0.9,318.6,0,321.8,0z"/>
		<path class="st7" d="M319.3,26.4c0.3,0.6,0.9,0.9,1.8,1c0.5,0,1.2,0,2,0c3.2,0,6.4,0,9.6,0c17.1,0,34.2,0,51.3,0h54.5c0,0,0,0,0,0
			c0.1,0,0.2,0,0.3,0c0,0,0,0,0,0c18.2,0,36.4,0,54.5,0c17.5,0,34.9,0,52.4,0c2.8,0,5.6,0,8.5,0c0.8,0,1.5,0,2,0
			c0.9-0.1,1.5-0.4,1.9-0.9c0.1-0.6,0-1.5,0-2.9c0.1-4.5,0-8.9,0-13.4c0-1.9-0.1-3-0.8-3.5c-1-0.6-2.9-0.6-6.7-0.6
			c-37.5,0-74.9,0-112.4,0c-37.2,0-74.4,0-111.5,0c-3.9,0-5.8-0.1-6.8,0.6c-0.6,0.6-0.8,1.6-0.8,3.5c0,4.5,0,8.9,0,13.4
			C319.3,25,319.2,25.9,319.3,26.4z M351.7,16.1c0.2-2.2,2.4-4,4.7-3.7c2.2,0.2,3.9,2.1,3.7,4.4c-0.2,2.4-2.1,4-4.5,3.8
			C353.2,20.4,351.5,18.4,351.7,16.1z M343.6,12.1c2.3,0,4.4,2.2,4.3,4.5c-0.1,2.2-1.9,4-4.1,4c-2.2,0-4.5-2.1-4.4-4.1
			C339.3,14.4,341.5,12.1,343.6,12.1z M331.6,12.3c2.3,0.1,4,1.9,4,4.1c0,2.3-2,4.3-4.3,4.2c-2.1,0-4-2.1-4-4.2
			C327.3,14.2,329.3,12.3,331.6,12.3z"/>
		<path class="st4" d="M530.1,119.7c-0.4,1.2-0.1,3-2,2.8c-1.6-0.2-2.9-1.3-2.9-3c0-1.7,1.4-2.8,3-2.8
			C530,116.7,529.8,118.5,530.1,119.7z"/>
		<path class="st4" d="M524.4,148.9c2,0,4-1.9,4-3.9c0-2.1-1.8-3.8-3.9-3.8c-2,0-3.7,1.7-3.8,3.7C520.6,147,522.4,148.9,524.4,148.9
			z"/>
		<path class="st4" d="M558.3,192.9c0-0.8,0-1.6,0-2.4c0-51.2,0-102.5,0-153.8c0-1.6,0-2.5-0.1-3.1c-0.3-0.6-0.9-0.9-1.9-0.9
			c-0.5,0-1.2,0-2,0c-26.6,0-53.2,0-79.8,0h-94.7c-18.9,0-37.8,0-56.6,0c-0.8,0-1.5,0-2,0c-1,0.1-1.5,0.3-1.9,0.9
			c-0.1,0.6-0.1,1.6-0.1,3.1c0,51.3,0,102.5,0,153.8c0,0.8,0,1.6,0,2.4c-0.1,5.2-0.1,5.2,5.2,5.2h17.1c0.5-0.1,1.1,0,1.6,0
			c30.3,0,60.7,0,91.1,0c33.4,0,66.8,0,100.2,0c0.5,0,1.1,0,1.6,0h17.1C558.4,198.1,558.4,198.1,558.3,192.9z M431.5,51.5
			c34.9,0,69.7,0,104.6,0c0.8,0,1.6,0,2.4,0.2c1.3,0.3,2,1.1,1.9,2.5c-0.1,1.2-1,1.9-2.1,2c-0.9,0.1-1.8,0.1-2.7,0.1
			c-17.3,0-34.6,0-51.9,0c-17.4,0-34.8,0-52.1,0c-1.8,0-4.3,0.4-4.4-2.2C427,51.4,429.5,51.5,431.5,51.5z M431.7,66.1
			c34.8,0,69.6,0,104.4-0.1c0.7,0,1.4,0.1,2.1,0.1c1.2,0.1,2,0.9,2,2.1c0.1,1.4-0.7,2.2-2,2.4c-0.9,0.2-1.8,0.2-2.7,0.2
			c-17.3,0-34.6,0-51.8,0c-17.4,0-34.7,0-52.1,0c-2,0-4.7,0.4-4.7-2.5C427.2,65.7,429.8,66.1,431.7,66.1z M429.2,80.9
			c0.8-0.1,1.6-0.1,2.4-0.1h39.8c0,0,0,0,0,0c13.5,0,27.1,0,40.6,0c2,0,3.4,0.4,3.1,2.8c-0.2,1.9-1.6,1.9-2.9,1.9
			c-5.5,0-11,0-16.6,0c-21.5,0-42.9,0-64.4,0c-0.6,0-1.3,0-1.9-0.1c-1.3-0.2-2.2-1-2.2-2.2C427.1,82,427.9,81.1,429.2,80.9z
			 M458.7,98.5c1.6,0,2.9,0.4,2.9,2.3c0,1.9-1.3,2.3-2.9,2.3h-21.1v0.1c-6.7,0-13.3,0-20-0.1c-1.2,0-3.1,0.8-3.4-1.4
			c-0.2-1.7,1.6-3.2,3.8-3.2C431.5,98.5,445.1,98.5,458.7,98.5z M460.7,116.9c0,1.2-0.5,2.1-1.7,2.3c-0.7,0.1-1.4,0.1-2.1,0.1h-24.3
			v0.1c-8.3,0-16.6,0-24.9,0c-1.2,0-2.9,0.4-3-1.4c0-1.5,1-2.9,2.7-3.2c1.1-0.2,2.1-0.1,3.2-0.1c15.1,0,30.3,0,45.4,0
			c1,0,2,0,2.9,0.2C460.2,115,460.7,115.8,460.7,116.9z M335.7,86.7C335.7,86.7,335.7,86.7,335.7,86.7c0-9.5,0-19.1,0-28.6
			c0-3.3,0.3-3.6,3.7-3.6c4.3,0,8.5,0,12.8,0c1.3,0,2.7,0,2.8,1.7c0,1.7-1.2,2.2-2.7,2.2c-3.4,0-6.8,0-10.2,0
			c-1.5,0-2.2,0.3-2.2,2.1c0,17.5,0,34.9,0,52.4c0,1.8,0.9,2,2.3,2c7.4,0,14.8-0.1,22.2,0c1.6,0,3.3-0.3,4.5,1.2
			c0.5,0.6,1.2,1.2,0.9,2.1c-0.3,1-1.3,0.8-2,0.8c-6.4,0.1-12.8,0.1-19.2,0.1c-3.1,0-6.2-0.2-9.4,0c-2.6,0.2-3.4-1-3.4-3.4
			C335.7,106,335.7,96.3,335.7,86.7z M416.2,181.3c-25.1,0-50.3,0-75.4,0c-1.1,0-2.2,0-3.2-0.2c-1.2-0.3-1.7-1.2-1.7-2.4
			c0-1.2,0.7-2,1.9-2.2c0.9-0.1,1.8-0.1,2.7-0.1c12.6,0,25.1,0,37.7,0c12.7,0,25.3,0,38,0c1.8,0,4.5-0.6,4.5,2.4
			C420.7,181.7,418.1,181.3,416.2,181.3z M418.9,166.4c-0.9,0.2-1.8,0.1-2.7,0.1c-12.7,0-25.5,0-38.2,0c0,0,0,0,0,0
			c-12.7,0-25.5,0-38.2,0c-0.7,0-1.5,0.1-2.1-0.2c-1.1-0.3-1.8-1.2-1.8-2.4c0-1.2,0.7-1.8,1.8-2.1c0.9-0.2,1.8-0.2,2.6-0.2
			c25.6,0,51.1,0,76.7,0c0.6,0,1.3,0,1.9,0.1c1.2,0.2,1.9,1,2,2.2C420.9,165.2,420.2,166.1,418.9,166.4z M421.2,149.1
			c0,2.2-1.6,2.5-3.3,2.6c-5.7,0-11.4,0-17.1,0c-20.2,0-40.5,0-60.7-0.1c-4.2,0-4.3-0.1-4.3-4.4c0-5.7,0-11.4,0-17.1
			c0-3.4,0.3-3.7,3.6-3.7c14.3,0,28.7,0,43.1,0c0.9,0,2,0.4,2.5-0.4c0.5-1-0.5-1.8-1.1-2.5c-8.6-10.9-16.2-22.3-22.1-34.9
			c-3-6.5-4.6-13.1-3-20.2c2.7-12,13.4-20.6,26.5-21.4c16.6-1,30.8,12.9,29.9,29.1c-0.4,6.7-2.8,12.9-5.9,18.7
			c-5.2,10.1-11,19.7-17.9,28.8c-0.5,0.7-1,1.4-1.9,2.7h21.1c2.6,0,5.2,0.1,7.8,0c2,0,3,0.9,3,2.9
			C421.3,135.9,421.3,142.4,421.2,149.1z M482.6,147.7c0,10.5-0.1,21,0,31.5c0,2.4-0.7,3.3-3.2,3.3c-7.9-0.1-15.9-0.1-23.8-0.1
			c0,0,0,0,0,0c-8,0-16-0.1-24.1,0.1c-2.4,0-3.1-0.8-3.1-3.1c0.1-16.3,0.1-32.6,0-48.9c0-2,0.7-2.6,2.7-2.6c8.5,0.1,17.1,0,25.7,0
			c2,0,3.3,0.7,3.8,2.6c1.9,8.9,9.2,12.4,18,12.9C482.6,143.6,482.6,143.5,482.6,147.7z M548.2,149.1c-2,11-9.9,18.5-20.8,19.9
			c-10.5,1.4-20.4-4-24.9-13.8c-1.9-4-2.6-8.3-1.6-12.8c0.2-1,0.1-2.5,1.9-2.3c2,0.3,0.8,1.7,0.7,2.5c-1.1,9.9,3.5,18.1,12.5,22
			c8.3,3.6,18.6,1.4,24.4-5.4c6.2-7.2,7-17.6,1.9-25.6c-1.7-2.7-4-4.7-6.8-6.3c-1-0.6-1.6-0.6-2.2,0.7c-0.9,2-2.7,3.1-4.9,3
			c-1.7-0.1-2.7,0.5-3.5,2.1c-1.4,3.2-3.9,4.8-7.6,4.8c-13.5-0.1-26.9,0-40.4,0c-2.4,0-4.8-0.1-6.9-1.5c-2.8-1.8-3.8-4.7-3.8-7.8
			c-0.1-6-0.2-11.9-0.1-17.9c0.1-6.4,3.2-9.2,9.6-9.2c6.8,0,13.5,0,20.3,0v-0.1h20.6c4,0,7.1,1.5,8.9,5.2c0.6,1.4,1.7,1.7,2.9,1.9
			c3.9,0.7,5.5,2.5,5.6,6.5c0.1,2.1,0.1,4.1,0,6.1c-0.1,1.5,0.6,2.2,1.8,2.9C545.1,129.3,550,139.2,548.2,149.1z M518.7,156.6
			c6.7,3.3,14.5,0.2,16.9-6.9c0.1-0.3,0.2-0.7,0.3-1c0.3-1.2,1.1-1.9,2.4-1.5c1.2,0.4,1,1.5,0.7,2.5c-1.6,6.1-7.3,10.7-13.6,11
			c-0.4,0-0.9,0-1.3,0c-7,0-12.3-4-14.4-10.9c-0.3-1.1-0.6-2.2,0.8-2.6c1.4-0.4,1.9,0.6,2.2,1.7
			C513.5,152.3,515.4,154.9,518.7,156.6z M517.7,145.1c0-3.9,3-6.8,7-6.8c3.4,0,6.5,3.1,6.5,6.4c0,3.9-3,6.9-7,6.9
			C520.4,151.6,517.8,148.9,517.7,145.1z"/>
		<path d="M418.4,126.4c-2.6,0-5.2,0-7.8,0c-6.8,0-13.7,0-21.1,0c0.9-1.3,1.4-2,2-2.7c6.9-9,12.7-18.7,17.9-28.8
			c3-5.9,5.5-12,5.9-18.7c0.9-16.3-13.3-30.2-29.9-29.1c-13.2,0.8-23.8,9.4-26.5,21.4c-1.6,7.1-0.1,13.8,3,20.2
			c5.9,12.6,13.6,24,22.1,34.9c0.6,0.7,1.6,1.5,1.1,2.5c-0.4,0.8-1.6,0.4-2.5,0.4c-14.4,0-28.7,0-43.1,0c-3.4,0-3.6,0.3-3.6,3.7
			c0,5.7,0,11.4,0,17.1c0,4.3,0.1,4.4,4.3,4.4c20.2,0,40.5,0,60.7,0c5.7,0,11.4,0,17.1,0c1.7,0,3.3-0.4,3.3-2.6
			c0.1-6.6,0.2-13.2,0.2-19.8C421.4,127.3,420.4,126.3,418.4,126.4z M371.8,74.5c0.1-8,7-14.7,15-14.6c8.2,0.1,15,6.8,14.9,14.4
			c-0.1,8.4-6.8,15.2-14.8,15.2C378.5,89.6,371.7,82.8,371.8,74.5z M414.3,147.7c-12-0.1-24.1,0-36.1,0c-12,0-24.1,0-36.1,0
			c-2.2,0-3-0.7-2.9-2.9c0.1-3.8,0.2-7.7,0-11.5c-0.1-2.4,0.8-3.2,3.2-3.2c11,0.1,22.1,0,33.1,0c12.7,0,25.3,0,38,0
			c3.8,0,3.8,0.1,3.8,3.9c0,3.5-0.1,7,0.1,10.4C417.6,146.8,416.8,147.7,414.3,147.7z"/>
		<path d="M478.5,143.4c-8.8-0.5-16.1-4-18-12.9c-0.4-1.9-1.8-2.7-3.8-2.6c-8.6,0.1-17.1,0.1-25.7,0c-1.9,0-2.7,0.6-2.7,2.6
			c0,16.3,0,32.6,0,48.9c0,2.3,0.8,3.1,3.1,3.1c8-0.1,16,0,24.1,0c0,0,0,0,0,0c7.9,0,15.9-0.1,23.8,0c2.5,0,3.2-0.9,3.2-3.3
			c-0.1-10.5,0-21,0-31.5C482.6,143.5,482.6,143.6,478.5,143.4z M474,163.2c-2.9,1.2-3.1,3.5-2.9,6.1c0.1,1.6-1.8,4.1-3.4,4
			c-3-0.3-5.4,0.8-7.3,3.2c-1.2,1.6-3.5,1.5-4.8-0.1c-1.7-2.2-4.2-2.9-6.7-3.3c-2.4-0.4-3.6-1.6-3.7-4.1c0-2.3-0.9-4.3-2.9-5.6
			c-2.1-1.4-2.1-3.2-0.1-4.8c2.2-1.7,3.3-4.1,3-6.9c-0.2-1.9,1.6-3.7,3.6-3.6c2.9,0.1,5.3-0.8,7-3.3c1-1.6,3.6-1.6,4.7,0.1
			c1.5,2.4,4,2.9,6.4,3.2c2.6,0.3,4.1,1.6,3.9,4.9c0.6,1.7,1,4.3,3.4,5.9C476.1,160.1,476,162.4,474,163.2z"/>
		<path d="M431.5,56.3c17.4,0,34.8,0,52.1,0c17.3,0,34.6,0,51.9,0c0.9,0,1.8,0,2.7-0.1c1.2-0.2,2-0.8,2.1-2c0.1-1.4-0.6-2.2-1.9-2.5
			c-0.8-0.2-1.6-0.2-2.4-0.2c-34.9,0-69.7,0-104.6,0c-2,0-4.5-0.2-4.4,2.6C427.2,56.7,429.7,56.3,431.5,56.3z"/>
		<path d="M431.8,70.9c17.4,0,34.7,0,52.1,0c17.3,0,34.6,0,51.8,0c0.9,0,1.8,0,2.7-0.2c1.3-0.2,2.1-1.1,2-2.4
			c-0.1-1.2-0.8-1.9-2-2.1c-0.7-0.1-1.4-0.1-2.1-0.1c-34.8,0-69.6,0-104.5,0.1c-1.9,0-4.6-0.4-4.6,2.3
			C427.1,71.3,429.8,70.9,431.8,70.9z"/>
		<path d="M339.1,119c3.1-0.2,6.2,0,9.3,0c6.4,0,12.8,0,19.2-0.1c0.8,0,1.7,0.2,2-0.8c0.3-0.9-0.4-1.5-0.9-2.1
			c-1.2-1.5-2.9-1.2-4.5-1.2c-7.4,0-14.8,0-22.2,0c-1.4,0-2.3-0.2-2.3-2c0.1-17.5,0.1-34.9,0-52.4c0-1.7,0.8-2.1,2.3-2.1
			c3.4,0,6.8,0,10.2,0c1.6,0,2.7-0.5,2.7-2.2c0-1.7-1.4-1.7-2.8-1.7c-4.3,0-8.6,0-12.8,0c-3.4,0-3.7,0.3-3.7,3.6
			c0,9.5,0,19.1,0,28.6c0,0,0,0,0,0c0,9.6,0,19.2,0,28.9C335.6,118,336.4,119.2,339.1,119z"/>
		<path d="M429.3,85.5c0.6,0.1,1.2,0,1.9,0c21.5,0,42.9,0,64.4,0c5.5,0,11,0,16.6,0c1.4,0,2.7-0.1,2.9-1.9c0.3-2.4-1.1-2.8-3.1-2.8
			c-13.5,0-27.1,0-40.6,0c0,0,0,0,0,0c-13.3,0-26.5,0-39.8,0c-0.8,0-1.6-0.1-2.4,0.1c-1.3,0.2-2.1,1.1-2.1,2.4
			C427.1,84.6,428,85.4,429.3,85.5z"/>
		<path d="M416.2,176.4c-12.7,0-25.3,0-38,0c-12.6,0-25.1,0-37.7,0c-0.9,0-1.8,0-2.7,0.1c-1.2,0.2-1.9,0.9-1.9,2.2
			c0,1.2,0.5,2.1,1.7,2.4c1,0.2,2.1,0.2,3.2,0.2c25.1,0,50.3,0,75.4,0c1.9,0,4.4,0.4,4.4-2.5C420.7,175.9,418.1,176.4,416.2,176.4z"
			/>
		<path d="M418.8,161.7c-0.6-0.1-1.2-0.1-1.9-0.1c-25.6,0-51.1,0-76.7,0c-0.9,0-1.8,0-2.6,0.2c-1,0.3-1.7,0.9-1.8,2.1
			c0,1.2,0.7,2,1.8,2.4c0.7,0.2,1.4,0.2,2.1,0.2c12.7,0,25.5,0,38.2,0c0,0,0,0,0,0c12.7,0,25.5,0,38.2,0c0.9,0,1.8,0,2.7-0.1
			c1.3-0.2,2-1.1,1.9-2.5C420.7,162.7,420,161.9,418.8,161.7z"/>
		<path d="M456.1,114.7c-15.1,0-30.3,0-45.4,0c-1.1,0-2.2,0-3.2,0.1c-1.7,0.3-2.8,1.6-2.7,3.2c0,1.8,1.8,1.4,3,1.4
			c8.3,0,16.6,0,24.9,0c0,0,0,0,0-0.1c8.1,0,16.2,0,24.3,0c0.7,0,1.4,0,2.1-0.1c1.2-0.2,1.8-1.1,1.7-2.3c0-1.1-0.5-1.9-1.7-2
			C458,114.7,457.1,114.7,456.1,114.7z"/>
		<path d="M414.1,101.7c0.3,2.2,2.2,1.4,3.4,1.4c6.7,0.1,13.4,0,20,0c0,0,0,0,0-0.1c7,0,14.1,0,21.1,0c1.6,0,2.9-0.4,2.9-2.3
			c0-1.9-1.3-2.3-2.9-2.3c-13.6,0-27.2,0-40.9,0C415.7,98.5,413.8,100,414.1,101.7z"/>
		<path d="M512.7,148.9c-0.3-1.1-0.9-2.1-2.2-1.7c-1.4,0.4-1.2,1.5-0.8,2.6c2.1,6.9,7.4,10.9,14.4,10.9c0.4,0,0.9,0,1.3,0
			c6.3-0.3,12-4.9,13.6-11c0.3-1,0.5-2-0.7-2.5c-1.3-0.4-2,0.2-2.4,1.5c-0.1,0.3-0.2,0.7-0.3,1c-2.4,7.1-10.2,10.2-16.9,6.9
			C515.4,154.9,513.5,152.3,512.7,148.9z"/>
		<path d="M524.3,151.6c4,0,7-3,7-6.9c0-3.4-3.1-6.4-6.5-6.4c-4,0-7,2.9-7,6.8C517.8,148.9,520.4,151.6,524.3,151.6z M524.4,141.2
			c2.1,0,3.9,1.8,3.9,3.8c0,2-1.9,3.8-4,3.9c-2,0-3.8-1.9-3.7-4C520.7,142.9,522.4,141.2,524.4,141.2z"/>
		<path d="M343.8,20.6c2.3,0,4.1-1.7,4.1-4c0.1-2.3-2-4.5-4.3-4.5c-2.1,0-4.3,2.2-4.3,4.3C339.3,18.5,341.5,20.6,343.8,20.6z"/>
		<path d="M355.6,20.5c2.4,0.2,4.3-1.4,4.5-3.8c0.2-2.2-1.5-4.1-3.7-4.4c-2.3-0.2-4.4,1.5-4.7,3.7C351.5,18.4,353.2,20.4,355.6,20.5
			z"/>
		<path d="M331.3,20.7c2.2,0,4.2-2,4.3-4.2c0-2.2-1.7-4-4-4.1c-2.3-0.1-4.3,1.9-4.3,4.1C327.3,18.6,329.2,20.6,331.3,20.7z"/>
		<path d="M458.5,150.4c-5.8-0.1-10.6,4.4-10.8,10.2c-0.2,5.8,4.4,10.4,10.4,10.6c5.7,0.1,10.5-4.5,10.6-10.2
			C468.8,155.4,464.2,150.6,458.5,150.4z M458.2,166.3c-2.9,0.1-5.4-2.5-5.5-5.5c0-2.9,2.3-5.2,5.3-5.2c3.1,0,5.4,2.2,5.4,5.4
			C463.5,163.9,461.1,166.3,458.2,166.3z"/>
		<path d="M324,204c-1.8,0-3.6,0.2-5.3-0.4c-0.9-0.3-1.7-0.7-2.4-1.2c0.7,0.5,1.5,0.9,2.4,1.2C320.4,204.1,322.2,204,324,204
			c38.1,0,76.1-0.1,114.2-0.1c0,0,0,0,0,0s0,0,0,0C400.1,203.9,362.1,203.9,324,204z"/>
		<path d="M558.8,203.5c-1.1,0.4-2.2,0.5-3.3,0.5C556.6,204,557.7,203.9,558.8,203.5c0.9-0.3,1.7-0.7,2.4-1.2
			C560.5,202.8,559.7,203.2,558.8,203.5z"/>
		<path d="M439.3,203.8c-0.1,0-0.3,0-0.4,0C439,203.8,439.2,203.8,439.3,203.8c38.1,0.1,76.1,0.1,114.2,0.1c0.4,0,0.9,0,1.3,0
			c-0.4,0-0.9,0-1.3,0C515.4,203.9,477.4,203.9,439.3,203.8z"/>
		<path d="M555.5,204c-0.2,0-0.4,0-0.7,0C555,204,555.3,204,555.5,204z"/>
		<path d="M313.2,170.4c0-17.1,0-34.1,0-51.2C313.2,136.3,313.2,153.3,313.2,170.4c0,8.1,0,16.2,0,24.3
			C313.2,186.6,313.2,178.5,313.2,170.4z"/>
		<path d="M564.3,16.9L564.3,16.9c0-0.2,0-0.4,0-0.6c0-1.3,0-2.6,0-3.9c0,1.3,0,2.6,0,3.9C564.3,16.5,564.3,16.7,564.3,16.9z"/>
		<path d="M555.7,0L555.7,0c-38.8,0-77.6,0-116.4,0c-19.6,0-39.1,0-58.7,0c19.6,0,39.1,0,58.7,0C478.1,0,516.9,0,555.7,0z"/>
		<path d="M564.2,194.7c0-8.1,0-16.2,0-24.3c0-51.2,0-102.3,0-153.5c0,51.2,0,102.3,0,153.5C564.2,178.5,564.3,186.6,564.2,194.7z"
			/>
		<path d="M313.2,8.5L313.2,8.5c0,2.7,0,5.5,0,8.2c0,0,0,0,0,0c0,0,0,0,0,0C313.2,14,313.2,11.3,313.2,8.5z"/>
		<path d="M559.4,0.5c0.5,0.2,1,0.4,1.5,0.7C560.4,0.9,560,0.7,559.4,0.5z"/>
		<path d="M564.3,12.4c0-1.3,0-2.6,0-3.9c0-3.2-0.9-5.5-2.7-6.9c-0.2-0.2-0.4-0.3-0.6-0.4c-0.5-0.3-1-0.5-1.5-0.7
			c-0.3-0.1-0.5-0.2-0.8-0.2c-0.9-0.2-1.8-0.3-2.9-0.3c-38.8,0-77.6,0-116.4,0c-19.6,0-39.1,0-58.7,0c-19.6,0-39.1,0-58.7,0
			c-3.2,0-5.5,0.9-7,2.7c-0.3,0.4-0.6,0.8-0.8,1.3c-0.6,1.2-0.9,2.7-0.9,4.5v8.4c0,34.1,0,68.2,0,102.3c0,17.1,0,34.1,0,51.2
			c0,8.1,0,16.2,0,24.3c0,2.4,0.4,4.3,1.3,5.7c0.5,0.7,1,1.3,1.7,1.8c0.7,0.5,1.5,0.9,2.4,1.2c1.7,0.6,3.5,0.4,5.3,0.4
			c38.1,0,76.1-0.1,114.2-0.1h1.1c38.1,0.1,76.1,0.1,114.2,0.1c0.4,0,0.9,0,1.3,0h0.7c1.1,0,2.2-0.1,3.3-0.5
			c0.9-0.3,1.7-0.7,2.4-1.2c0.7-0.5,1.3-1.1,1.7-1.8c0.9-1.4,1.3-3.3,1.4-5.7c0-8.1,0-16.2,0-24.3c0-51.2,0-102.3,0-153.5v0
			c0-0.2,0-0.4,0-0.6V12.4z M319.3,10.2c0-1.9,0.1-2.9,0.8-3.5c1-0.7,2.9-0.6,6.8-0.6c37.2,0,74.4,0,111.5,0c37.5,0,74.9,0,112.4,0
			c3.8,0,5.8-0.1,6.7,0.6c0.6,0.6,0.8,1.6,0.8,3.5c0,4.5,0,8.9,0,13.4c0,1.4,0.1,2.3,0,2.9c-0.3,0.6-0.9,0.9-1.8,0.9
			c-0.5,0-1.2,0-2,0c-2.8,0-5.6,0-8.5,0c-17.5,0-34.9,0-52.4,0h-54.5v0h-0.3c0,0,0,0,0,0H384c-17.1,0-34.2,0-51.3,0h-9.6
			c-0.8,0-1.5,0-2,0c-0.9-0.1-1.5-0.4-1.8-1c-0.1-0.6,0-1.5,0-2.9C319.2,19.1,319.3,14.6,319.3,10.2z M553.1,198.1H536
			c-0.5-0.1-1.1,0-1.6,0c-33.4,0-66.8,0-100.2,0c-30.3,0-60.7,0-91.1,0c-0.5,0-1.1,0-1.6,0h-17.1c-5.3,0-5.3,0-5.2-5.2
			c0-0.8,0-1.6,0-2.4c0-51.2,0-102.5,0-153.8c0-1.6,0-2.6,0.1-3.1c0.3-0.6,0.9-0.9,1.9-0.9c0.5,0,1.2,0,2,0c18.9,0,37.8,0,56.6,0
			h94.7c26.6,0,53.2,0,79.8,0c0.8,0,1.5,0,2,0c0.9,0.1,1.5,0.3,1.9,0.9c0.1,0.6,0.1,1.6,0.1,3.1c0,51.3,0,102.5,0,153.8
			c0,0.8,0,1.6,0,2.4C558.4,198.1,558.4,198.1,553.1,198.1z"/>
		<path d="M535.6,124.2c-1.2-0.7-1.9-1.4-1.8-2.9c0.1-2,0.1-4.1,0-6.1c-0.1-4.1-1.6-5.8-5.6-6.5c-1.3-0.2-2.3-0.6-2.9-1.9
			c-1.7-3.8-4.9-5.2-8.9-5.2h-20.6v0.1c-6.8,0-13.5,0-20.3,0c-6.3,0-9.4,2.8-9.6,9.2c-0.1,6-0.1,11.9,0.1,17.9c0.1,3.1,1,6,3.8,7.8
			c2.1,1.4,4.5,1.5,6.9,1.5c13.5,0,26.9-0.1,40.4,0c3.7,0,6.2-1.5,7.6-4.8c0.7-1.7,1.7-2.2,3.5-2.1c2.3,0.1,4-1,4.9-3
			c0.6-1.3,1.2-1.2,2.2-0.7c2.8,1.5,5.1,3.6,6.8,6.3c5.1,8,4.3,18.4-1.9,25.6c-5.8,6.8-16.1,9.1-24.4,5.4
			c-8.9-3.9-13.6-12.2-12.5-22c0.1-0.8,1.3-2.2-0.7-2.5c-1.8-0.2-1.7,1.3-1.9,2.3c-0.9,4.4-0.2,8.8,1.6,12.8
			c4.5,9.7,14.4,15.1,24.9,13.8c11-1.4,18.8-9,20.8-19.9C550,139.2,545.1,129.3,535.6,124.2z M528.1,122.6c-1.6-0.2-2.9-1.3-2.9-3
			c0-1.7,1.4-2.8,3-2.8c1.8,0,1.6,1.8,1.9,3C529.8,120.9,530,122.8,528.1,122.6z"/>
		<g>
			<path class="st7" d="M483.7,123.7c0-0.6-0.2-1.1-0.6-1.4s-1.2-0.7-2.2-1c-1.1-0.4-1.9-0.7-2.6-1c-2.2-1.1-3.3-2.6-3.3-4.5
				c0-0.9,0.3-1.8,0.8-2.5c0.6-0.7,1.3-1.3,2.3-1.7c1-0.4,2.1-0.6,3.4-0.6c1.2,0,2.3,0.2,3.3,0.7c1,0.4,1.7,1.1,2.3,1.9
				c0.5,0.8,0.8,1.7,0.8,2.8h-4.1c0-0.7-0.2-1.2-0.6-1.6c-0.4-0.4-1-0.6-1.7-0.6c-0.7,0-1.3,0.2-1.7,0.5c-0.4,0.3-0.6,0.7-0.6,1.2
				c0,0.4,0.2,0.8,0.7,1.2s1.3,0.7,2.5,1.1s2.2,0.8,2.9,1.2c1.8,1.1,2.8,2.5,2.8,4.4c0,1.5-0.6,2.7-1.7,3.5
				c-1.1,0.9-2.7,1.3-4.6,1.3c-1.4,0-2.6-0.2-3.8-0.7c-1.1-0.5-2-1.2-2.5-2c-0.6-0.9-0.9-1.9-0.9-3h4.1c0,0.9,0.2,1.6,0.7,2
				c0.5,0.4,1.2,0.7,2.3,0.7c0.7,0,1.2-0.1,1.6-0.4C483.5,124.6,483.7,124.2,483.7,123.7z"/>
			<path class="st7" d="M500.6,121h-6.5v4.1h7.7v3.2H490v-17.1h11.8v3.2h-7.7v3.6h6.5V121z"/>
			<path class="st7" d="M517.9,120c0,1.7-0.3,3.1-0.9,4.4c-0.6,1.3-1.5,2.3-2.6,3c-1.1,0.7-2.4,1-3.9,1c-1.5,0-2.7-0.3-3.9-1
				c-1.1-0.7-2-1.6-2.6-2.9c-0.6-1.2-1-2.7-1-4.3v-1c0-1.7,0.3-3.2,0.9-4.4c0.6-1.3,1.5-2.3,2.6-3s2.5-1,3.9-1c1.4,0,2.7,0.3,3.9,1
				c1.1,0.7,2,1.7,2.6,2.9c0.6,1.3,0.9,2.7,1,4.4V120z M513.7,119.3c0-1.7-0.3-3-0.9-3.9c-0.6-0.9-1.4-1.3-2.4-1.3
				c-2.1,0-3.2,1.6-3.3,4.7l0,1.3c0,1.7,0.3,3,0.8,3.9c0.6,0.9,1.4,1.4,2.5,1.4c1,0,1.8-0.4,2.4-1.3c0.6-0.9,0.8-2.2,0.9-3.8V119.3z
				"/>
		</g>
	</g>
	<g>
		<path d="M320.4,477.5c8.5-1.4,13-6.7,12.9-15.2c-0.1-4.6-1.3-8.9-3-13.1c-4.4-11.1-10.9-21-18-30.5
			c-16.4-22.1-35.5-41.7-55.6-60.4c-27.1-25.2-55.9-48.3-86.1-69.6c-26.1-18.4-53.1-35.4-81.7-49.8c-16.1-8.1-32.4-15.4-49.9-20
			c-8.3-2.2-16.7-3.8-25.3-2.7c-9.3,1.2-14.1,6.7-13.8,16.1c0.2,5,1.8,9.8,3.7,14.4c5.3,12.2,12.8,23,20.9,33.4
			c16,20.6,34.1,39.1,53.3,56.8c39.7,36.5,82.4,69,128.5,97c21,12.8,42.6,24.5,65.5,33.6c13.4,5.3,27,10,41.8,10.6
			C315.9,477.8,318.2,477.8,320.4,477.5z"/>
		<g>
			<path class="st8" d="M381.8,306.3c-12.1,2.3-24.2,4.6-36.3,7.1c-20.3,4.1-40.7,8.3-61,12.4c-3.6,0.7-6.5,2.6-8.4,5.6
				c-1.6,2.5-2.5,2.1-4.1,0.1c-2.4-2.9-5.7-5.1-3.2-9.9c1.1-2-0.4-4.5-2-6.1c-7.5-7.5-12.2-16.7-16.3-26.2
				c-5.2-12.2-14.2-20.2-26.9-24.2c-4.6-1.4-9-3.4-13.4-5.2c-1.1-0.5-2.7-0.6-2-2.7c0.6-1.9,1.7-2.1,3.4-1.8
				c2.2,0.3,4.5,0.4,6.7,0.2c3.7-0.3,7.2-1.6,9.4-4.8c6.7-9.5,12.9-19.3,12.2-31.7c-0.1-1.9-0.6-3.9-1-5.8c-0.8-4-0.5-7.6,2.2-11
				c2.9-3.7,2.9-8.3,2.5-13.2c3.5,1.6,5.4,3.9,6.2,7.2c3.5-4.8,1.8-12.2-4.7-19.6c4-0.6,6.9-2.5,8.1-6.9c-5.2,0.6-10,0.3-14.4-3
				c3.3-1.1,6-3,7.9-6.7c-6.9,1.9-13,0-19.6-1.4c2-2.8,5.4-5.1,3.9-9.5c-6.5,3.9-13.3,4.2-20.4,3c-8-1.3-15.8-0.9-23.6,1.8
				c1.2-1,2.5-1.9,4.3-3.3c-9.5,0.1-16.1,3.8-20.8,11.7c-1.1-0.9,0.2-3.6-1.9-3.3c-1.9,0.3-3.3,2.3-3.1,4c0.4,4.3-2.4,5.2-5.4,7
				c-6.3,3.6-10.1,9.2-10.4,16.8c1.7,0.2,1.3-1.6,2.5-1.7c0.1,0.1,0.4,0.4,0.3,0.5c-1.7,5.9-1.1,11.7,1.1,17.3
				c3.3,8.4,5.4,17.8,11.8,24.1c7.8,7.6,4.4,14.4,1.2,21.9c-1.3,2.9-3.6,4.3-6.7,5.4c-14.1,5.4-28.6,10.3-41.7,18.1
				c-3.6,2.1-6.7,4.6-9.3,7.4c-6.3,6.6-10.2,15-12.1,24.2c-1.7,8.3-5.1,12.9-13.6,13.7c-2.3,0.2-4.6,1.5-6.8,2.4
				c-2.7,1.1-4.9,2.3-6.6,3.8c1.2,1.4,2.5,2.7,3.7,4c1.1-1,2.4-1.8,4.1-2.7c4.6-2.3,9.6-3.3,14.8-4.8c0.6,3.4-0.9,4.6-3.4,5.7
				c-4.7,2-7.8,4.4-9.7,7.7c5.3,5.4,10.8,10.5,16.5,15.5c0.3-14.8,3.9-44.8,10-55.8c2.4-4.3,5-8.3,8.5-11.6c1.2-1.1,2.4-2.2,3.7-3.2
				c9.5-6.9,20.5-10.5,30.9-15.4c2.7-1.3,3.8-0.8,5.1,1.8c3.3,6.8,8.4,11.9,15.3,15.3c0.4-0.4,0.7-0.7,1-1.1
				c-5.3-3.8-10.2-7.9-13.2-13.9c-2.2-4.4-2.1-4.6,2.7-6.5c3.9,12.3,16.3,21.3,30.2,21.7c5.2,0.2,10.1-0.3,14.2-4.2
				c3.7-3.5,3.9-7.7,3-12.3c3.1,0.4,4.3,1.9,4.1,4.6c-0.1,2.1-0.4,4.2-0.6,6.2c0.3,0.6,0.6,1.1,0.9,1.7c2.1-3,2-6.5,2.5-10
				c4.2,1,7.9,3.1,11.9,4.4c8.5,2.7,14,8.5,17.9,16.1c2.2,4.3,4.3,8.6,6.3,13c2.7,6.1,6.4,11.7,11.4,16c3.3,2.8,3.1,4.7,0.1,7.6
				c-6.9,6.6-14.2,12.5-22.9,16.5c-1.3,0.6-2,3.4-4.4,1.3c-2.2-2-0.9-3.7-0.4-5.7c2.6-8.7,5.1-17.5,7.7-26.6
				c-2.3,1.7-2.1,4.6-4.4,5.8c-0.3-7.5-2.4-15.4-4.9-19.2c1.4,23.4,1.3,23.3-6.2,46.1c-0.4,1.3-0.8,2.6-1.2,4
				c-1.1,4-1.7,8.2-1.9,12.4c-0.1,3,1.3,6.8-0.1,8.8c-1.4,1.9-5.5,1.7-8.3,2.6c-10.6,3.3-21.2,5-32.4,4.1
				c-12.2-0.9-24.1-3.4-36.1-5.2c-7.4-1.1-7.3-1-7.3-8.5c0-1.7,0.5-2.8,1.7-3.8c2.4-2.1,3.5-4.8,3.3-8c-1-10.8,0.4-21.2,4.4-31.3
				c-0.8-0.7,0.8-2.5-1.2-2.7c-0.7,2.2-0.9,4.5-3,6.3c0.5-7,0.4-13.7-3-20.3c0.3,4,0.8,7.5,0.6,10.9c-0.9,12.6-3.8,25-2.7,37.7
				c0,0.4-0.2,0.9-0.3,1.3c-0.5,2.8-1.6,3.6-4.7,2.5c-0.5-0.2-1-0.4-1.4-0.5c-1-0.3-1.9-0.7-2.9-1c-0.5-0.2-1-0.3-1.4-0.4
				c-1.4-0.4-2.9-0.8-4.3-1.1c-2.2-0.5-4.3-0.8-6.5-1.1c-0.8-0.1-1.6-0.1-2.4-0.2c0,0,0,0,0,0c-1.7-0.1-3.3,0-5,0.1
				c-0.5,0-0.9,0.1-1.4,0.2c0,0,0,0,0,0c-0.5,0.1-0.9,0.1-1.4,0.2c-0.3,0.1-0.6,0.1-1,0.2c-1.6,0.3-3.1,0.7-4.7,1.3
				c-1,0.4-2.1,0.8-3.1,1.2c1.3,1.2,2.7,2.3,4,3.5c0.9-0.6,2.3-0.8,4.5-1c7.4-0.5,14.6,0.3,21.9,1.8c4.5,0.9,6.3,2.5,5.6,7.4
				c-0.4,3-0.1,5.8-3.9,6.8c-0.7,0.2-1.8,0.6-1.5,2.3c6.7-2,13.2,0.2,19.7,1.5c23.8,4.6,47.7,7.8,71.2-1.1c12.8-4.9,22.8,0,32.4,7.5
				c1.9,1.5,3.7,3.3,3.7,7.2c-7.6-5.7-13.6-12.7-23.1-13.3c0.4,1.2,1.3,1.5,2.1,1.7c7.2,2,12.7,6.7,17.8,11.9
				c0.7,0.7,2.6,1.1,1.3,2.7c-1.1,1.2-2.6,1.9-4,0.8c-1.4-1.1-2.6-2.4-3.9-3.7c-4.3-4.4-8.8-8.1-15.6-7.4
				c7.2,2.1,12.6,6.6,16.9,12.7c-2.9,2.1-5.1,1.4-7.3-0.9c-4.2-4.5-9.2-7.5-15.7-7.4c4.2,2.3,8.6,4.1,11.6,8.1c0.6,0.8,2.2,1.8,1,3
				c-1,0.9-2.6,1.8-4.1,0.7c-0.9-0.6-1.6-1.4-2.4-2c-4.8-3.3-9.6-5.2-15.4-1.9c-4.5,2.6-9.7,3.8-14.8,2c-4.5-1.5-8.6-1.3-13.1-0.2
				c-9,2.1-18,3.7-27.1,4.7c0.3,0.2,0.7,0.5,1,0.7c0.4,0.3,0.8,0.6,1.2,0.8c1,0.7,2,1.3,2.9,2c0.1,0.1,0.2,0.2,0.3,0.2
				c1.8-0.3,3.6-0.6,5.4-0.9c3.8-0.7,6.6-1.4,7,4.2c0.2,2.6-0.1,3-2.2,3.3c0,0,0,0,0,0c2.1,1.4,4.3,2.7,6.4,4c1.7,1,3.4,2.1,5,3.1
				l54.4,14.5l21.9-1.4c14.6-3.6,29.2-7.1,43.7-10.8c0.7-0.2,1.3-0.3,2-0.5l14.4-3.1c9.3-2.2,18.3-4.4,27.2-6.6
				c3.2-0.8,6.4-1.8,9.6-2.5c6.5-1.3,9.4-5.6,5.8-10.8c-3.3-4.7-0.9-7.5,0.6-11.3c6.2-16,12.1-32,18.2-48c2.3-6,4.8-12,6.9-18.1
				C394.7,310.3,389.9,304.8,381.8,306.3z M198,253.2c4,3.5,6.6,7,3.8,12.5c-0.6,1.1-0.8,2.9,0.8,3.5c1.9,0.7-0.2-2.8,2-2.2
				c1,5.2-2.5,9-9.2,10.1c-8.7,1.5-19.6-2.7-26.4-9.4c-0.5-0.5-1-1-1.4-1.5c-0.2-0.2-0.3-0.4-0.5-0.6c-0.3-0.4-0.6-0.8-0.9-1.2
				c-0.1-0.2-0.3-0.4-0.4-0.6c-0.2-0.3-0.4-0.6-0.5-0.8c-0.2-0.3-0.3-0.6-0.5-0.9c0-0.1-0.1-0.1-0.1-0.2c-0.1-0.2-0.2-0.4-0.3-0.6
				c0-0.1-0.1-0.1-0.1-0.2c-0.1-0.1-0.1-0.2-0.1-0.4c-0.1-0.5,0.1-1,0.8-1.6c6.2-5.4,9.1-12.8,10-20.6c0.6-4.9,2.5-6.7,7-6.8
				c0.2,0,0.3-0.4,0.5-0.6c-1.6-2-1.6-2-2.9-2c-7.9,0.1-14.3-7-13.6-14.8c0.3-3.5,1.6-6.3,5.1-7.1c3.8-0.8,6.8,0.7,8.7,4.1
				c0.9,1.5,1.7,3.2,2.7,4.7c0.5,0.7,1.3,1.4,2.3,1.2c1.3-0.3,0.6-1.4,0.8-2.2c0.5-3.8-0.1-8.3,3.2-10.8c6.7-5,8.6-11.5,7.2-19.5
				c5.1,0.9,9.3,4.6,14.6,3.7c0.2-2.1-2.1-3-2.1-5.1c5.9,2.6,11.5,5,17.1,7.5c0.8-3.1-1.5-5.1-2.8-8c4.6,1.7,8.2,4,11.1,7
				c2.1,2.1,2.6,5,2.1,7.5c-0.4,1.9-2.8,0-4.3,0.7c-1.5,0.7-3.7,1-3.3,3c0.5,2.6,2.6,1.1,4,0.7c3.6-1.1,4.2,0.6,3.4,3.5
				c-0.2,0.9-0.5,1.7-0.8,2.6c0,0.3,0,0.7,0,1c1.9,12.2,0.7,23.7-6.7,34.4c-5.8,8.4-9,10.1-19.1,7.7c-8.1-2-14.9-6.6-22.5-12.1
				C190.5,244.4,193.7,249.3,198,253.2z M243.8,342.7c4.3-2.5,8.5-5.1,12.4-8.1c2.5-2,4.7-6.3,7.2-5.7c2.8,0.8,4.5,4.9,6.9,7.4
				c1.9,2,2.2,3.7,1.2,6.3c-2.8,7.7-5.2,15.6-7.8,23.4c-0.3,0.9-0.3,2.2-1.9,2.1c-3-1.2-5.5-3.5-6.1-6.5c-0.4-2.2-0.6-3.1-2.8-4.6
				c-4.2-2.8-6.9-7.4-10.1-11.4C241.5,344,242.4,343.6,243.8,342.7z M239.1,368.4c-2.1-1.1-4.6-1.7-7-1.3c-3,0.4-3.5-1.4-3.8-3.7
				c-0.1-0.7-0.2-1.4-0.2-2.2c0-0.3,0-0.6,0-0.9c0-0.4,0-0.8,0-1.2c0-0.2,0-0.3,0-0.5c0-0.2,0-0.3,0-0.4c0-0.3,0-0.6,0.1-0.9
				c0-0.3,0-0.6,0.1-0.9c0,0,0,0,0,0c0-0.3,0.1-0.6,0.1-0.9c0.1-0.6,0.2-1.1,0.3-1.7c0.3-1.5,0.6-3,1-4.5c0.3-1.1,0.6-2.3,0.9-3.4
				c0.4,0.1,0.7,0.3,1.1,0.4c1.3,0.5,2.6,1.1,3.8,1.8c0.5,0.3,1.1,0.6,1.6,0.9c0.3,0.2,0.6,0.4,0.9,0.6c0.2,0.2,0.5,0.3,0.7,0.5
				c0.9,0.6,1.8,1.3,2.6,2c0.2,0.2,0.4,0.4,0.6,0.5c2.8,2.5,5.2,5.3,7.3,8.3c0.2,0.3,0.4,0.6,0.6,0.9c0.1,0.2,0.2,0.3,0.3,0.5
				c0.2,0.3,0.4,0.5,0.5,0.8c0.2,0.3,0.4,0.6,0.5,0.8c0.3,0.5,0.6,0.9,0.9,1.4l0.4,0.6c0.3,0.5,0.5,0.9,0.8,1.4
				c0.3,0.6,0.6,1.1,1,1.7C248.7,371,243.9,370.8,239.1,368.4z M250.8,375.1c0.5-1.3,1.3-1.2,2-1.4c2.6-1,5.8-1.4,7.7,0.1
				c1.5,1.3-1.1,3.8-1.3,6c0,0.3-0.2,0.5-0.6,1.3C255.6,379,252.8,377.4,250.8,375.1z M253.5,396.6c-5.4,3-11.6,2.8-17.3,4.5
				C241.4,397.6,247.6,397.9,253.5,396.6z M251.5,402.6c-4.3,0.4-8.6,3.5-12.9-0.1c2.2,0.4,4.4,0.5,6.5-0.4
				C247.3,401.2,249.4,401,251.5,402.6z M197.7,398.8c-2.2,0.3-4.5,1.2-7.3-0.4C193.4,397.5,195.6,397.2,197.7,398.8z M190.3,401
				c19.7,2.8,39.5,5.5,59.2,8.3c-0.1,0.4-0.1,0.8-0.2,1.2c-19.8-2.3-39.6-4.9-59.2-8.5C190.2,401.8,190.3,401.4,190.3,401z
				 M358.1,401.9c-9,2.2-18.1,4.4-27.1,6.5c-9,2.2-18.1,4.4-27.1,6.5c-1.4,0.3-2.7,0.7-4.1,1c-5.1,1.2-10.3,2.5-15.5,3.7
				c-6.5,1.6-13.1,3.1-19.6,4.6c-6.1,1.4-12.2,3.1-18.6,1.6c-9.8-2.3-19.7-4.2-29.5-6.1c-9.7-1.9-19.5-3.8-29.2-5.5
				c-4.1-0.7-3.4-3.8-3.2-6.3c0.2-3.5,2.9-1.1,4.1-0.9c17.5,2.7,35,5.4,52.5,8.4c5.7,1,12.5,0,16.1,6.5c0.2,0.3,0.8,0.4,1.2,0.5
				c-0.4-5.4-0.5-5.5,5-6.8c10.6-2.6,21.3-5.2,32-7.7c0.8-0.2,1.5-0.4,2.3-0.5c4.3-1,8.7-2,13-3c4.5-1,9-2.1,13.5-3.1
				c10.8-2.5,21.6-5,32.3-7.4c3.5-0.8,6.1,1,6.5,4.6C362.8,401.7,360,401.4,358.1,401.9z M326.8,363c-0.1-3.1,1.6-5.3,4.1-6.3
				c1.7-0.7,2,1.4,2,2.7c0.1,2.9-0.9,5.4-4,6.1C327,366,326.9,364.3,326.8,363z M366.1,317.3c-25.8,5.3-51.5,10.5-77.3,15.7
				c-4.5,0.9-7.5,3.3-9,7.8c-0.4,1.4-0.9,2.8-1.4,4.2c-0.2,0.6-0.4,1.2-0.6,1.8c-0.4,1.2-0.8,2.4-1.2,3.6
				c-2.7,7.9-5.5,15.8-8.1,23.8c-0.5,1.6-1,3.2-1.6,4.8c0,0,0,0,0,0c-0.4,1.1-0.7,2.3-1.1,3.4c-0.3,1-0.6,2-0.9,3
				c-0.3,1-0.6,2-0.9,3c-2.3,7.9-5,15.6-7.8,24.3c-1.2-2.6-0.7-3.9-0.4-5.2c2.9-10.1,5.9-20.2,9.1-30.2c0.5-1.7,1.1-3.3,1.6-5
				c0.5-1.7,1.1-3.4,1.7-5.1c0.5-1.6,1-3.2,1.6-4.8c2.7-8.3,5.5-16.5,8.3-24.8c1-2.9,2.8-5.4,6-6.2c3-0.8,6.1-1.6,9.2-2.2
				c29.5-5.8,59-11.7,88.5-17.4c1.7-0.3,3.6-0.8,5,1.4C379.8,314.4,373,315.9,366.1,317.3z"/>
			<path class="st7" d="M261.8,316.4c-5-4.4-8.7-9.9-11.4-16c-2-4.4-4.1-8.7-6.3-13c-3.9-7.6-9.5-13.4-17.9-16.1
				c-4-1.3-7.7-3.4-11.9-4.4c-0.5,3.5-0.3,7-2.5,10c-2.2,5.5-6.8,8.3-12.1,9.9c-11.1,3.2-20.9-0.8-30.3-6.2
				c-6.8-3.4-11.9-8.5-15.3-15.3c-1.3-2.6-2.4-3-5.1-1.8c-10.4,4.9-21.4,8.5-30.9,15.4c-1.3,1-2.6,2-3.7,3.2
				c-3.4,3.4-6.1,7.3-8.5,11.6c-6.1,10.9-9.6,41-10,55.8c0.8,0.8,1.7,1.5,2.5,2.2c1.1-0.5,2.1-0.9,3.1-1.2c1.6-0.5,3.1-1,4.7-1.3
				c0.3-0.1,0.6-0.1,1-0.2c0.5-0.1,0.9-0.1,1.4-0.2c0,0,0,0,0,0c0.5-0.1,0.9-0.1,1.4-0.2c1.7-0.1,3.3-0.2,5-0.1c0,0,0,0,0,0
				c0.8,0,1.6,0.1,2.4,0.2c2.2,0.2,4.3,0.6,6.5,1.1c1.4,0.3,2.9,0.7,4.3,1.1c0.5,0.1,1,0.3,1.4,0.4c1,0.3,1.9,0.6,2.9,1
				c0.5,0.2,1,0.3,1.4,0.5c3,1.1,4.2,0.3,4.7-2.5c0.1-0.4,0.3-0.9,0.3-1.3c-1.1-12.7,1.8-25.1,2.7-37.7c0.2-3.4-0.4-6.9-0.6-10.9
				c3.5,6.7,3.5,13.3,3,20.3c2-1.7,2.3-4.1,3-6.3c0.5-2.4,0.2-5.1,2-7.7c0.6,3.9,0.5,7.2-0.8,10.4c-4,10.1-5.3,20.6-4.4,31.3
				c0.3,3.2-0.8,5.9-3.3,8c-1.2,1.1-1.7,2.1-1.7,3.8c0,7.5,0,7.4,7.3,8.5c12,1.8,23.9,4.2,36.1,5.2c11.2,0.9,21.8-0.8,32.4-4.1
				c2.8-0.9,6.9-0.7,8.3-2.6c1.4-1.9,0-5.8,0.1-8.8c0.1-4.2,0.8-8.3,1.9-12.4c0.4-1.3,0.7-2.7,1.2-4c7.5-22.7,7.6-22.7,6.2-46.1
				c2.5,3.8,4.5,11.7,4.9,19.2c2.3-1.2,2.1-4.1,4.4-5.8c-2.7,9.1-5.2,17.9-7.7,26.6c-0.6,1.9-1.9,3.7,0.4,5.7
				c2.4,2.1,3.1-0.7,4.4-1.3c8.7-4,16-9.9,22.9-16.5C264.8,321.1,265.1,319.2,261.8,316.4z M131,283.7c3.3,0.6,5.2,2.7,6.9,6.4
				c-2.9-2.4-5.1-4.2-7.3-5.9c-2.6-0.7-4.8-2.4-7.7-4.1C126.8,280,128.9,282,131,283.7z"/>
			<path class="st4" d="M233.7,189.7c-3-3-6.5-5.3-11.1-7c1.3,2.9,3.6,4.9,2.8,8c-5.7-2.5-11.3-4.9-17.1-7.5
				c0.1,2.1,2.4,2.9,2.1,5.1c-5.3,0.9-9.5-2.8-14.6-3.7c1.4,8-0.4,14.5-7.2,19.5c-3.3,2.5-2.7,7-3.2,10.8c-0.1,0.8,0.5,1.9-0.8,2.2
				c-1,0.2-1.8-0.5-2.3-1.2c-1-1.5-1.8-3.1-2.7-4.7c-2-3.3-5-4.9-8.7-4.1c-3.5,0.8-4.8,3.5-5.1,7.1c-0.6,7.9,5.7,14.9,13.6,14.8
				c1.3,0,1.3,0,2.9,2c-0.2,0.2-0.3,0.6-0.5,0.6c-4.5,0.1-6.4,1.9-7,6.8c-1,7.8-3.9,15.2-10,20.6c-0.7,0.6-0.9,1.1-0.8,1.6
				c0,0.1,0.1,0.2,0.1,0.4c0,0.1,0.1,0.1,0.1,0.2c0.1,0.2,0.2,0.4,0.3,0.6c0,0.1,0.1,0.1,0.1,0.2c0.2,0.3,0.3,0.6,0.5,0.9
				c0.2,0.3,0.4,0.6,0.5,0.8c0.1,0.2,0.3,0.4,0.4,0.6c0.3,0.4,0.6,0.8,0.9,1.2c0.2,0.2,0.3,0.4,0.5,0.6c0.5,0.5,0.9,1,1.4,1.5
				c6.8,6.7,17.7,10.8,26.4,9.4c6.7-1.1,10.1-5,9.2-10.1c-2.2-0.5-0.1,2.9-2,2.2c-1.6-0.6-1.4-2.4-0.8-3.5c2.8-5.5,0.2-8.9-3.8-12.5
				c-4.3-3.9-7.5-8.7-11.5-14.5c7.6,5.6,14.4,10.1,22.5,12.1c10.1,2.5,13.3,0.7,19.1-7.7c7.3-10.6,8.5-22.1,6.7-34.4
				c-3.3-0.2-0.9,2.7-2,3.9c-0.9,0.9-1.2,2.5-2.9,2.4c-1.9-0.1-2.5-1.6-2.7-3.1c-0.2-2,0.3-3.8,2-5.2c2.2-1.8,3.8,0,5.5,1
				c0.3-0.9,0.6-1.7,0.8-2.6c0.7-3,0.2-4.7-3.4-3.5c-1.4,0.4-3.5,1.9-4-0.7c-0.4-2,1.8-2.3,3.3-3c1.5-0.7,3.9,1.3,4.3-0.7
				C236.3,194.7,235.7,191.8,233.7,189.7z M173.7,218.1c1.3-5.1,0.9-5.5-4.3-4.3c0.3-2.4,1.3-3.9,3.7-3.1c2.7,0.9,6,2.4,4.9,5.7
				c-0.7,2.3,0,3.9,1,6.5C175.9,221.9,172.7,222.1,173.7,218.1z M199.5,201.4c3-3.4,11.7-4.8,15.5-2.6c1.1,0.6,1.6,1.3,1.2,2.5
				c-0.5,1.3-1.7,1.8-2.9,1.5c-4.7-1.1-9.4-0.9-14.4,0.8C199.2,202.5,199.1,201.8,199.5,201.4z M203,210.6c1.3-1.2,2.5-2.6,4-3.5
				c2.2-1.3,4.2-0.5,5.1,1.7c0.9,2.4,1.2,5.2-1.6,6.7c-2.4,1.3-3.8-0.8-4.1-2.6C205.9,210.4,204.9,210,203,210.6z M208.3,233.7
				c-0.5-0.5-1.2-1-0.5-1.9c0.5-0.6,1-0.4,1.5,0c4.9,3.1,10.4,3,17,2.1C220.8,238.5,212,237.9,208.3,233.7z M228,219.8
				c3.1,4.6,1.8,7-5.7,7.9c4.6-3.1,4-5.7,1.9-8.8c-1.5-2.2-2.7-5.1-0.4-8.7c0.7,2.4,1,4,1.6,5.5C226.1,217.1,227.1,218.5,228,219.8z
				"/>
			<path class="st4" d="M256.2,387.6c-7.6-5.7-13.6-12.7-23.1-13.3c0.4,1.2,1.3,1.5,2.1,1.7c7.2,2,12.7,6.7,17.8,11.9
				c0.7,0.7,2.6,1.1,1.3,2.7c-1.1,1.2-2.6,1.9-4,0.8c-1.4-1.1-2.6-2.4-3.9-3.7c-4.3-4.4-8.8-8.1-15.6-7.4
				c7.2,2.1,12.6,6.6,16.9,12.7c-2.9,2.1-5.1,1.4-7.3-0.9c-4.2-4.5-9.2-7.5-15.7-7.4c4.2,2.3,8.6,4.1,11.6,8.1c0.6,0.8,2.2,1.8,1,3
				c-1,0.9-2.6,1.8-4.1,0.7c-0.9-0.6-1.6-1.4-2.4-2c-4.8-3.3-9.6-5.2-15.4-1.9c-4.5,2.6-9.7,3.8-14.8,2c-4.5-1.5-8.6-1.3-13.1-0.2
				c-9,2.1-18,3.7-27.1,4.7c-2-1.3-3.9-2.7-5.8-4c-7.6-5.3-15.1-10.7-22.5-16.3c-0.8-0.6-1.6-1.2-2.4-1.8c-5.7-4.4-11.4-8.9-17-13.5
				c-3.3-2.7-6.6-5.5-9.9-8.3c0.9-0.6,2.3-0.8,4.5-1c7.4-0.5,14.6,0.3,21.9,1.8c4.5,0.9,6.3,2.5,5.6,7.4c-0.4,3-0.1,5.8-3.9,6.8
				c-0.7,0.2-1.8,0.6-1.5,2.3c6.7-2,13.2,0.2,19.7,1.5c23.8,4.6,47.7,7.8,71.2-1.1c12.8-4.9,22.8,0,32.4,7.5
				C254.3,381.9,256.2,383.7,256.2,387.6z"/>
			<path class="st7" d="M246.1,425.9c-9.8-2.3-19.7-4.2-29.5-6.1c-9.7-1.9-19.5-3.8-29.2-5.5c-4.1-0.7-3.4-3.8-3.2-6.3
				c0.2-3.6,2.9-1.1,4.1-0.9c17.5,2.7,35,5.4,52.5,8.4c5.7,1,12.5,0,16.1,6.5c0.2,0.3,0.8,0.4,1.2,0.5c-0.4-5.4-0.5-5.5,5-6.8
				c10.6-2.6,21.3-5.2,32-7.7c20.3-4.7,40.7-9.4,61.1-14.1c3.5-0.8,6.1,1,6.5,4.6c0.4,3.2-2.5,2.9-4.3,3.4
				c-31.1,7.5-62.2,15-93.4,22.4C258.7,425.7,252.6,427.4,246.1,425.9z"/>
			<path class="st9" d="M178,406.1c0.2,2.6-0.1,3-2.2,3.3c-1.8-1.1-3.5-2.2-5.2-3.4c-1.6-1.1-3.3-2.1-4.9-3.2
				c1.8-0.3,3.6-0.6,5.4-0.9C174.8,401.1,177.6,400.5,178,406.1z"/>
			<path class="st4" d="M263.6,366c-0.3,0.9-0.3,2.2-1.9,2.1c-3-1.2-5.5-3.5-6.1-6.5c-0.4-2.2-0.6-3.1-2.8-4.6
				c-4.2-2.8-6.9-7.4-10-11.4c-1.3-1.6-0.4-2,1-2.9c4.3-2.5,8.5-5.1,12.4-8.1c2.5-2,4.7-6.4,7.2-5.7c2.8,0.8,4.5,4.9,6.9,7.4
				c1.9,2,2.2,3.7,1.2,6.3C268.6,350.3,266.2,358.2,263.6,366z"/>
			<path class="st7" d="M279.8,340.8c-5.1,15.9-11,31.4-15.7,47.4c-2.3,7.9-5,15.6-7.8,24.3c-1.2-2.6-0.7-3.9-0.4-5.2
				c6.7-23.5,14.4-46.8,22.2-70c1-2.9,2.8-5.4,6-6.2c3-0.8,6.1-1.6,9.2-2.2c29.5-5.8,59-11.7,88.5-17.4c1.7-0.3,3.6-0.8,5,1.4
				c-6.9,1.5-13.8,2.9-20.7,4.3c-25.8,5.3-51.5,10.5-77.3,15.7C284.3,333.9,281.3,336.3,279.8,340.8z"/>
			<path class="st7" d="M239.1,368.4c-2.1-1.1-4.6-1.7-7-1.3c-3,0.4-3.5-1.4-3.8-3.7c-0.9-6,0.6-11.6,2.1-17.5
				c11.5,4.3,18.1,13.2,23.6,23.2C248.7,371,243.9,370.8,239.1,368.4z"/>
			<path class="st7" d="M190.4,285.9c-7.2-0.6-13.7-2.9-20-6.4c-5.3-3.8-10.2-7.9-13.2-13.9c-2.2-4.4-2.1-4.6,2.7-6.5
				c3.9,12.3,16.3,21.3,30.2,21.7c5.2,0.2,10.1-0.3,14.2-4.2c3.7-3.5,3.9-7.7,3-12.3c3.1,0.4,4.3,1.9,4.1,4.6
				c-0.1,2.1-0.4,4.2-0.6,6.2l0,0C206.6,283.1,199.5,286.8,190.4,285.9z"/>
			<path class="st10" d="M249.4,410.6c-19.8-2.3-39.6-4.9-59.2-8.5c0.1-0.4,0.1-0.7,0.2-1.1c19.7,2.8,39.5,5.5,59.2,8.3
				C249.5,409.8,249.5,410.2,249.4,410.6z"/>
			<path class="st11" d="M173,281.6c-1.1-0.4-2.3-0.8-3.6-1c0.3-0.4,0.7-0.7,1-1.1C171.3,280.3,172.1,281,173,281.6z"/>
			<path class="st11" d="M210.9,275.2L210.9,275.2c0.3,0.6,0.6,1.2,0.9,1.7l0,0c-0.7,0.6-1.4,1.3-2.1,1.9
				C210.3,277.8,210.7,276.6,210.9,275.2z"/>
			<path class="st11" d="M199.7,286.8c-11.1,3.2-20.9-0.8-30.3-6.2c1.3,0.2,2.4,0.5,3.6,1c4.5,3,9.7,4,15,5
				c6.2,1.2,11.8-0.1,17.1-3.4c2-1.2,3.6-2.6,4.6-4.4c0.7-0.6,1.4-1.3,2.1-1.9C209.6,282.4,205,285.3,199.7,286.8z"/>
			<path class="st11" d="M209.7,278.8c-3,2.8-6.1,5.4-10.2,6.8c-7.3,2.4-14.1,0.7-20.9-1.6c-1.9-0.7-3.7-1.6-5.6-2.4
				c-0.9-0.6-1.7-1.3-2.5-2c6.2,3.5,12.8,5.7,20,6.4c9.1,0.8,16.2-2.8,20.5-10.7l0,0l0,0C210.7,276.6,210.3,277.8,209.7,278.8z"/>
			<path class="st11" d="M199.6,285.6c4.1-1.4,7.2-4,10.2-6.8c-1,1.8-2.6,3.2-4.6,4.4c-5.3,3.3-10.9,4.6-17.1,3.4
				c-5.3-1.1-10.6-2-15-5c1.9,0.7,3.7,1.7,5.6,2.4C185.5,286.4,192.3,288,199.6,285.6z"/>
			<path class="st12" d="M260.4,373.9c1.5,1.3-1.1,3.9-1.4,6c0,0.3-0.2,0.5-0.6,1.3c-2.9-2.1-5.7-3.7-7.7-6c0.5-1.3,1.3-1.2,2-1.4
				C255.3,372.8,258.6,372.4,260.4,373.9z"/>
			<path class="st13" d="M231.9,211.1c-0.5,1-0.8,2.6-2.4,1.8c-1.4-0.7-1.2-2.2-0.6-3.5c1.3-2.8,3.9-1.2,5.9-1.7l0,0l0,0
				c0,0.3,0,0.7,0,1l0,0C232.2,207.5,232.5,209.9,231.9,211.1z"/>
			<path class="st13" d="M232.8,212.6c-0.9,0.9-1.2,2.5-2.9,2.4c-1.9-0.1-2.5-1.6-2.7-3.1c-0.2-2,0.4-3.8,2-5.2c2.2-1.8,3.8,0,5.5,1
				l0,0c-2,0.5-4.6-1.2-5.9,1.7c-0.6,1.3-0.9,2.8,0.6,3.5c1.6,0.8,1.9-0.8,2.4-1.8c0.6-1.2,0.3-3.6,2.9-2.4
				C231.5,208.6,233.9,211.4,232.8,212.6z"/>
			<path class="st7" d="M330.9,356.7c1.7-0.7,2,1.4,2,2.7c0.1,2.9-0.9,5.4-4,6.1c-2,0.5-2-1.2-2.1-2.6
				C326.7,359.9,328.4,357.7,330.9,356.7z"/>
			<path class="st14" d="M236.2,401.1c5.2-3.5,11.5-3.2,17.3-4.5C248.1,399.7,241.9,399.5,236.2,401.1z"/>
			<path class="st15" d="M245.1,402.2c2.3-0.9,4.3-1.1,6.4,0.4c-4.3,0.4-8.6,3.5-12.9-0.1C240.8,402.9,243,403,245.1,402.2z"/>
			<path class="st16" d="M148.5,317.2c-0.8-0.7,0.8-2.5-1.2-2.7c0.8-0.8,1.2-1.8,1.4-2.8C148.6,313.6,148.6,315.4,148.5,317.2z"/>
			<path class="st16" d="M148.5,317.2c0.1-1.8,0.1-3.7,0.2-5.5c0.2-1.2,0.2-2.5,0.3-3.8c-0.2,1.3-0.3,2.5-0.3,3.8
				c-0.2,1-0.5,2-1.4,2.8c0.5-2.4,0.2-5.1,2-7.7C149.9,310.7,149.8,314,148.5,317.2z"/>
			<path class="st16" d="M148.7,311.7c0.1-1.3,0.1-2.5,0.3-3.8C148.9,309.2,148.9,310.5,148.7,311.7z"/>
			<path class="st17" d="M197.7,398.8c-2.2,0.3-4.5,1.2-7.3-0.4C193.4,397.5,195.6,397.2,197.7,398.8z"/>
			<path class="st18" d="M131,283.7c3.3,0.6,5.2,2.7,6.9,6.4c-2.9-2.4-5.1-4.2-7.3-5.9C130.8,284,130.9,283.8,131,283.7z"/>
			<path class="st18" d="M122.9,280.1c3.9,0,5.9,1.9,8.1,3.6c-0.1,0.2-0.3,0.3-0.4,0.5C128,283.4,125.9,281.8,122.9,280.1z"/>
			<path class="st19" d="M215,198.8c1.1,0.6,1.6,1.3,1.2,2.5c-0.5,1.3-1.7,1.8-2.9,1.5c-4.7-1.1-9.4-0.9-14.4,0.8
				c0.3-1.2,0.3-1.9,0.6-2.2C202.4,198,211.2,196.6,215,198.8z"/>
			<path class="st20" d="M212.1,208.8c0.9,2.4,1.1,5.2-1.6,6.7c-2.5,1.3-3.8-0.8-4.1-2.6c-0.4-2.5-1.4-2.8-3.3-2.3
				c1.3-1.2,2.5-2.6,4-3.5C209.2,205.7,211.2,206.5,212.1,208.8z"/>
			<path class="st21" d="M173.7,218.1c1.3-5.1,0.9-5.5-4.3-4.3c0.3-2.4,1.3-3.9,3.7-3.1c2.7,0.9,6,2.4,4.9,5.7c-0.7,2.3,0,3.9,1,6.5
				C175.9,221.9,172.7,222.1,173.7,218.1z"/>
			<path class="st22" d="M224.2,218.9c-1.5-2.2-2.6-5.1-0.4-8.7c0.7,2.4,1,4,1.6,5.5c0.7,1.5,1.6,2.8,2.5,4.2c3.1,4.6,1.8,7-5.7,7.9
				C226.9,224.6,226.4,222,224.2,218.9z"/>
			<path class="st23" d="M209.3,231.8c4.9,3.1,10.4,3,17,2.1c-5.5,4.6-14.4,4-18-0.2c-0.5-0.5-1.2-1-0.5-1.9
				C208.2,231.2,208.7,231.4,209.3,231.8z"/>
		</g>
	</g>
</g>
</svg>
