<?xml version="1.0" encoding="utf-8"?>
<!-- Generator: Adobe Illustrator 24.3.0, SVG Export Plug-In . SVG Version: 6.00 Build 0)  -->
<svg version="1.1" id="Layer_1" xmlns="http://www.w3.org/2000/svg" xmlns:xlink="http://www.w3.org/1999/xlink" x="0px" y="0px"
	 width="564.3px" height="478px" viewBox="0 0 564.3 478" style="enable-background:new 0 0 564.3 478;" xml:space="preserve">
<style type="text/css">
	.st0{fill:#185AE9;}
	.st1{fill:#00B0FB;}
	.st2{fill:none;}
	.st3{fill:#00B0FB;fill-opacity:0.4;}
	.st4{fill:#FFFFFF;}
	.st5{fill:#3C7CFF;}
	.st6{fill:#001135;}
	.st7{fill:#DBDBDB;}
	.st8{fill:#030302;}
	.st9{fill:#FCFCFC;}
	.st10{fill:#D2D3D3;}
	.st11{fill:#1F1F1F;}
	.st12{fill:#F6F6F6;}
	.st13{fill:#0E0D0E;}
	.st14{fill:#BABBBB;}
	.st15{fill:#8A8A8A;}
	.st16{fill:#8E8F8F;}
	.st17{fill:#464746;}
	.st18{fill:#5F5E5E;}
	.st19{fill:#0B0B0B;}
	.st20{fill:#090909;}
	.st21{fill:#151414;}
	.st22{fill:#101010;}
	.st23{fill:#282828;}
	.st24{fill:#E8E8E8;}
	.st25{fill:#FEFEFE;}
	.st26{fill:#0A0A0A;}
</style>
<g>
	<path d="M373.5,305.6c-0.3,0-0.5,0-0.8-0.1c-19-2.3-35.8-17.8-39.1-36.2c-0.8-4.6-1.3-9.2,0.3-14.2c1.6,1.7,2.9,3.2,4.2,4.6
		c0.6,0.6,1.2,1.1,2.1,0.7c0.8-0.4,0.8-1.1,0.8-1.9c0-2-0.4-3.9-0.8-5.9c-1-4.4-1.5-8.9-0.3-13.3c0.3-1,0.8-2-0.2-2.8
		c-1-0.8-2.1,0-3,0.5c-5.7,3.1-10.6,7.1-14.6,12.2c-0.6,0.7-1.2,1.4-0.8,2.4c0.4,1.1,1.4,1,2.3,1c1,0,2,0,3-0.1
		c2.3-0.4,2.6,0.6,2.4,2.7c-2.4,20.6,7.2,39,25.5,48.9c5.8,3.1,12,5.2,18.6,5.9c1.5,0.2,3.1,0.3,3.4-1.7
		C376.7,306.2,375.2,305.7,373.5,305.6z"/>
	<g>
		<path d="M469.1,74.7c-22.6,0.1-41.9,19.4-41.9,41.9c0,23,19,41.7,42.2,41.7c23.6,0,42.3-18.9,42.2-42.5
			C511.5,93,492.4,74.6,469.1,74.7z M499.9,111.9c-0.8,2.8-2.6,3.1-4.4,0.9c-2.1-2.7-4-2.2-6.2-0.3c-6.9,5.7-14,11.4-21,17.1
			c-1.3,1-2,2.2-2.4,3.8c-0.8,3.2-3.1,5.2-6.5,5.3c-3.3,0.1-5.4-1.6-6.6-4.6c-1.5-3.7-7.2-6.9-11.3-6.5c-3.7,0.4-6.3-1.3-7.2-4.5
			c-0.8-3.1,0.6-5.9,3.4-7.2c3.2-1.5,6.4-0.4,8.4,2.7c3.1,5,9.3,7.8,14.8,6.4c0.8-0.2,1.5-0.7,2.1-1.2c7.2-6,14.3-12.1,21.6-18.1
			c1.7-1.4,2.4-2.5,0.9-4.7c-1.8-2.6-1.1-3.8,2.2-4.1c2.2-0.2,4.3-0.2,6.5-0.4c0,0,0-0.1,0-0.1c2.2-0.1,4.3-0.2,6.5-0.3
			c1.9,0,3.1,0.9,2.6,2.9C502.3,103.4,501.2,107.7,499.9,111.9z"/>
		<path class="st4" d="M279.8,31.9c0,2.4,0.9,3.1,3.1,3c1.4-0.1,2.8,0,4.2,0c41.7,0,83.3,0,125,0c0,0,0,0,0,0c21.6,0,43.3,0,64.9,0
			c21.2,0,42.4-0.1,63.5,0.1c3.1,0,4.1-0.9,3.9-4c-0.2-5.8,0-11.7-0.1-17.5c-0.1-7.2,1-6.8-6.8-6.8c-59.1,0-118.2,0-177.2,0
			c-25.7,0-51.5,0-77.2-0.1c-2.4,0-3.4,0.9-3.3,3.3C279.8,17.2,279.9,24.6,279.8,31.9z M328.2,16.2c2.9,0,5.1,2.3,5,5.1
			c-0.1,2.8-2.4,4.9-5.3,4.9c-2.9,0-5.2-2.3-5-5.1C323,18.4,325.4,16.1,328.2,16.2z M312.6,16.1c2.8,0,5.1,2.3,5.1,5.1
			c-0.1,2.8-2.3,4.9-5.3,4.9c-3,0-5.2-2.2-5.1-5C307.4,18.2,309.6,16.1,312.6,16.1z M296.7,16c3,0,5.1,2,5.2,4.9
			c0,2.9-2.2,5.2-4.9,5.2c-2.8,0-5.2-2.3-5.2-5C291.6,18.3,293.9,16,296.7,16z"/>
		<path class="st7" d="M539.7,40.1c-85.3,0-170.6,0-255.9,0c-3.1,0-4.2,0.7-4.2,4c0.1,50,0,99.9,0,149.9c0,5.3,0,5.3,5.4,5.3
			c73.9,0,175.1,0,249.7,0c-8.5-8.4-17-16.9-25.5-25.3c-2-2-1.8-3.9-0.3-5.7c1.5-1.8,0.9-2.9-0.6-4.2c-2.3-2.1-4.2-5.2-6.9-6.2
			c-3-1.1-5.3,2.4-7.9,3.8c-25.2,13.3-57.2,3.4-70-21.8c-13.3-26.1-2.9-57.1,23.3-69.8c34-16.5,74.7,8.9,74.2,49.2
			c-0.1,8.4-3.3,18.8-10.5,27.8c-1.4,1.8-1.4,3,0.3,4.5c1.5,1.3,2.8,2.7,4.1,4.1c1.8,1.9,3.3,3.4,6.3,1.3c2.4-1.7,4.5,0.4,6.2,2.1
			c5.7,5.6,11.3,11.2,17,16.9c0-39.1,0-96.5,0-131.1C544.4,40.1,544.4,40.1,539.7,40.1z M291.8,135.7c-0.1-2.6,1.4-4.7,3.8-4.7
			c4.2,0,6.8-2.7,9.9-4.7c6-4.1,11.9-8.2,18-12.3c1.6-1.1,2.8-2.2,3.2-4.3c0.5-2.5,2.5-4,5-4.2c2.6-0.2,5.2,0.9,5.9,3.5
			c0.7,2.6,2.5,3.8,4.5,4.9c2.3,1.3,4.7,2.6,7,4.1c2.5,1.7,3.7,0.8,4.8-1.7c2.6-6.1,5.4-12.2,8.1-18.2c0.7-1.6,0.8-3,0.3-4.7
			c-0.9-3.4,0.6-6.1,3.6-6.9c2.9-0.8,6,0.7,6.9,3.8c0.6,2.1,1.9,3.1,3.5,4.1c7.7,4.8,15.4,9.7,23.2,14.5c1.6,1,3.2,2.1,2.1,4.1
			c-1.2,2.3-2.9,1.1-4.5,0.1c-8-4.9-15.9-9.9-23.9-14.7c-3.9-2.4-5.1-2-7,2.2c-2.6,5.7-5.1,11.5-7.7,17.3c-0.8,1.7-0.6,3.4-0.4,5.1
			c0.4,2.6-0.4,4.7-3.2,5.5c-2.6,0.7-5.1-0.1-5.9-2.5c-1.1-3.4-3.8-4.5-6.3-6c-2.3-1.3-4.4-3.1-7.1-3.4c-4.7,0-8.9,0.7-12.9,3.9
			c-5.8,4.7-12.3,8.5-18.6,12.6c-1.4,0.9-2.5,1.8-2.9,3.6c-0.5,2.7-2.7,3.4-5.1,3.2C293.5,139.8,291.9,138.3,291.8,135.7z
			 M334.9,176.5c-6,0.1-11.9,0-17.9,0c0,0,0,0,0,0.1c-6.2,0-12.4,0-18.6,0c-1.8,0-3.8-0.1-3.8-2.5c0-2.5,2-2.5,3.8-2.5
			c12.1,0,24.3-0.1,36.4-0.1c2,0,4,0.2,4,2.8C338.8,176.7,336.6,176.5,334.9,176.5z M389.6,176.5c-12.1,0-24.2,0-36.4,0
			c-1.8,0-3.5-0.3-3.4-2.5c0.1-2.2,1.8-2.5,3.6-2.5c6.2,0,12.4,0,18.5,0c0,0,0,0,0-0.1c5.8,0,11.7,0,17.5,0c1.8,0,3.7,0.2,3.7,2.6
			C393.1,176.3,391.2,176.5,389.6,176.5z M413.2,154c-0.1,1.2-0.9,1.9-2.1,1.9c-1,0.1-2.1,0.1-3.2,0.1c-18,0-36,0-54,0c0,0,0,0,0,0
			c-18,0-36,0-54,0c-1.2,0-2.3,0-3.5-0.2c-1-0.1-1.7-0.8-1.8-1.9c-0.1-1.2,0.4-2.1,1.5-2.4c1.1-0.3,2.3-0.4,3.5-0.4
			c36.3,0,72.7-0.1,109-0.1c0.9,0,1.9,0,2.8,0.2C412.6,151.7,413.3,152.7,413.2,154z"/>
		<path d="M560,191.4c-0.6-0.6-1.2-1.2-1.8-1.8c-2.5-2.5-5-5-7.6-7.5c0-50.7,0.1-124.3,0.1-172.6c0-6.7-3-9.5-9.8-9.5
			C498,0,455,0,412.1,0c0,0,0,0,0,0c-42.9,0-85.9,0-128.8,0c-6.9,0-9.6,2.7-9.6,9.5c0,12.1,0,24.1,0,36.2c0,50.3,0,100.6,0,150.9
			c0,6.4,2.5,9,8.8,9.1c1.6,0,3.3,0,4.9,0c74.2,0,176.4,0,250.6,0c1.1,0,2.3,0.1,3.4,0c0.8,0.8,1.5,1.5,2.3,2.3
			c5,4.9,12.1,4.5,17-0.6C565.7,202.2,565.5,196.7,560,191.4z M283.1,6.5c25.7,0.1,51.5,0.1,77.2,0.1c59.1,0,118.2,0,177.2,0
			c7.8,0,6.7-0.4,6.8,6.8c0.1,5.8-0.1,11.7,0.1,17.5c0.1,3.1-0.8,4-3.9,4c-21.2-0.1-42.4-0.1-63.5-0.1c-21.6,0-43.3,0-64.9,0
			c0,0,0,0,0,0c-41.7,0-83.3,0-125,0c-1.4,0-2.8-0.1-4.2,0c-2.2,0.1-3.1-0.6-3.1-3c0.1-7.4,0.1-14.7,0-22.1
			C279.7,7.4,280.7,6.5,283.1,6.5z M527.5,159.1c-1.7-1.7-3.9-3.8-6.2-2.1c-3,2.1-4.5,0.6-6.3-1.3c-1.3-1.4-2.6-2.8-4.1-4.1
			c-1.7-1.5-1.7-2.7-0.3-4.5c7.1-9,10.4-19.4,10.5-27.8c0.6-40.4-40.1-65.7-74.2-49.2c-26.3,12.7-36.6,43.8-23.3,69.8
			c12.8,25.1,44.8,35,70,21.8c2.6-1.4,4.9-5,7.9-3.8c2.7,1,4.6,4.1,6.9,6.2c1.5,1.3,2.1,2.4,0.6,4.2c-1.5,1.8-1.7,3.8,0.3,5.7
			c8.5,8.4,17,16.9,25.5,25.3c-74.6,0-175.8,0-249.7,0c-5.4,0-5.4,0-5.4-5.3c0-50,0.1-99.9,0-149.9c0-3.3,1-4,4.2-4
			c85.3,0.1,170.6,0,255.9,0c4.7,0,4.7,0,4.7,4.8c0,34.6,0,92,0,131.1C538.8,170.4,533.1,164.7,527.5,159.1z M469.4,158.2
			c-23.2,0-42.2-18.6-42.2-41.5c0-22.4,19.3-41.6,41.9-41.7c23.3-0.1,42.3,18.3,42.5,40.9C511.7,139.4,493,158.1,469.4,158.2z"/>
		<path d="M301.1,136.9c0.3-1.8,1.4-2.7,2.9-3.6c6.3-4.1,12.7-7.9,18.6-12.6c4-3.2,8.2-3.9,12.9-3.9c2.7,0.3,4.8,2.1,7.1,3.4
			c2.6,1.5,5.3,2.6,6.3,6c0.7,2.4,3.3,3.2,5.9,2.5c2.8-0.8,3.6-2.9,3.2-5.5c-0.3-1.8-0.4-3.4,0.4-5.1c2.6-5.7,5.1-11.6,7.7-17.3
			c1.9-4.1,3.1-4.5,7-2.2c8,4.8,15.9,9.8,23.9,14.7c1.5,0.9,3.2,2.1,4.5-0.1c1.1-2.1-0.5-3.1-2.1-4.1c-7.7-4.8-15.5-9.7-23.2-14.5
			c-1.6-1-2.9-2.1-3.5-4.1c-0.9-3.1-4-4.6-6.9-3.8c-3,0.8-4.5,3.5-3.6,6.9c0.5,1.7,0.4,3.1-0.3,4.7c-2.8,6.1-5.5,12.1-8.1,18.2
			c-1.1,2.4-2.3,3.4-4.8,1.7c-2.2-1.5-4.6-2.7-7-4.1c-2-1.2-3.8-2.3-4.5-4.9c-0.7-2.6-3.2-3.7-5.9-3.5c-2.6,0.2-4.6,1.7-5,4.2
			c-0.4,2.1-1.6,3.2-3.2,4.3c-6,4.1-12,8.2-18,12.3c-3,2.1-5.7,4.7-9.9,4.7c-2.4,0-3.9,2.1-3.8,4.7c0.1,2.6,1.7,4.1,4.2,4.4
			C298.4,140.4,300.6,139.6,301.1,136.9z"/>
		<path d="M411.4,151.3c-0.9-0.3-1.8-0.2-2.8-0.2c-36.3,0-72.7,0-109,0.1c-1.2,0-2.3,0.1-3.5,0.4c-1.1,0.3-1.7,1.3-1.5,2.4
			c0.1,1.1,0.8,1.7,1.8,1.9c1.1,0.2,2.3,0.2,3.5,0.2c18,0,36,0,54,0c0,0,0,0,0,0c18,0,36,0,54,0c1.1,0,2.1,0,3.2-0.1
			c1.2-0.1,2-0.7,2.1-1.9C413.3,152.7,412.6,151.7,411.4,151.3z"/>
		<path d="M334.8,171.4c-12.1,0-24.3,0-36.4,0.1c-1.8,0-3.8,0.1-3.8,2.5c0,2.4,2.1,2.5,3.8,2.5c6.2,0,12.4,0,18.6,0c0,0,0,0,0-0.1
			c6,0,11.9,0,17.9,0c1.7,0,3.9,0.3,3.9-2.3C338.9,171.6,336.8,171.4,334.8,171.4z"/>
		<path d="M389.4,171.4c-5.8,0-11.7,0-17.5,0c0,0,0,0,0,0.1c-6.2,0-12.4,0-18.5,0c-1.7,0-3.5,0.3-3.6,2.5c-0.1,2.2,1.6,2.5,3.4,2.5
			c12.1,0,24.2,0,36.4,0c1.7,0,3.5-0.2,3.5-2.4C393.1,171.6,391.2,171.5,389.4,171.4z"/>
		<path d="M312.4,26c3,0,5.2-2.1,5.3-4.9c0.1-2.8-2.2-5.1-5.1-5.1c-2.9,0-5.2,2.1-5.3,4.9C307.2,23.8,309.4,26,312.4,26z"/>
		<path d="M297,26.1c2.8,0,5-2.3,4.9-5.2c0-2.9-2.2-4.9-5.2-4.9c-2.9,0-5.1,2.3-5,5.1C291.8,23.8,294.2,26.1,297,26.1z"/>
		<path d="M327.9,26.1c2.9,0,5.2-2.1,5.3-4.9c0.1-2.8-2.2-5.1-5-5.1c-2.8,0-5.2,2.2-5.3,4.9C322.8,23.8,325,26.1,327.9,26.1z"/>
		<path class="st4" d="M500.8,96.1c-2.2,0-4.3,0.2-6.5,0.3c0,0,0,0.1,0,0.1c-2.2,0.1-4.3,0.1-6.5,0.4c-3.3,0.3-4,1.5-2.2,4.1
			c1.5,2.2,0.8,3.3-0.9,4.7c-7.2,6-14.4,12.1-21.6,18.1c-0.6,0.5-1.4,1-2.1,1.2c-5.5,1.3-11.7-1.4-14.8-6.4c-2-3.2-5.1-4.2-8.4-2.7
			c-2.8,1.3-4.2,4.1-3.4,7.2c0.8,3.3,3.4,4.9,7.2,4.5c4.1-0.4,9.8,2.8,11.3,6.5c1.2,3,3.3,4.8,6.6,4.6c3.4-0.2,5.6-2.1,6.5-5.3
			c0.4-1.6,1.2-2.8,2.4-3.8c7-5.7,14-11.3,21-17.1c2.3-1.9,4.1-2.4,6.2,0.3c1.8,2.3,3.6,1.9,4.4-0.9c1.3-4.3,2.3-8.6,3.4-12.9
			C503.8,97,502.7,96.1,500.8,96.1z"/>
	</g>
	<g>
		<path class="st4" d="M228.2,49.3c-0.2-2.6-1.7-3.6-4.1-3.9c-8.1-1-15.6-3.7-22.2-8.6c-3.1-2.3-3.7-2.3-6.8-0.1
			c-6.1,4.3-12.8,7.2-20.3,8c-1.1,0.1-2.2,0.3-3.3,0.4c-2.5,0.3-3.8,1.6-3.7,4.2c0.1,1.8,0,3.6,0,5.3c-0.4,3.8,0.1,7.6,0.7,11.4
			c0.5,2.9,1.1,5.8,2.1,8.6c4.9,12.8,14.5,20.7,26.5,26.2c1,0.5,2,0.4,2.9-0.1c7.4-3.5,14-8,18.8-14.7
			C226.9,75.2,229,62.6,228.2,49.3z"/>
		<g>
			<path d="M228.2,49.3c-0.2-2.6-1.7-3.6-4.1-3.9c-8.1-1-15.6-3.7-22.2-8.6c-3.1-2.3-3.7-2.3-6.8-0.1c-6.1,4.3-12.8,7.2-20.3,8
				c-1.1,0.1-2.2,0.3-3.3,0.4c-2.5,0.3-3.8,1.6-3.7,4.2c0.1,1.8,0,3.6,0,5.3c-0.4,3.8,0.1,7.6,0.7,11.4c0.5,2.9,1.1,5.8,2.1,8.6
				c4.9,12.8,14.5,20.7,26.5,26.2c1,0.5,2,0.4,2.9-0.1c7.4-3.5,14-8,18.8-14.7C226.9,75.2,229,62.6,228.2,49.3z M221.7,57.3
				c-0.9,15.9-6.7,28.9-21.5,36.5c-1,0.5-1.9,0.9-3.1,0.3C186,88,177.5,79.9,174.8,67c-0.9-4.3-1.1-8.7-1.1-13.1
				c0-1.6,0.6-2.5,2.3-2.7c6.5-0.7,12.4-3.3,18-6.5c2.5-1.4,4.9-1.8,7.7-0.4c6,2.9,11.8,6.4,18.7,6.9c1.2,0.1,1.3,1.1,1.3,2.1
				C221.7,54.6,221.7,55.9,221.7,57.3z"/>
			<path d="M210.2,59.9c-1.6-1.2-2.9-0.5-4.1,1c-2.7,3.3-5.6,6.5-8.3,9.9c-1.1,1.4-2,1.4-3.2,0.1c-0.9-1-1.9-1.9-2.9-2.8
				c-1.3-1.2-2.7-1.1-3.9,0.1c-1.2,1.2-1.1,2.6,0.1,3.8c2,2,4.1,4,6.2,6.1c0.6,0.6,1.3,1.1,2.2,1.1c1,0,1.8-0.4,2.4-1.1
				c3.9-4.6,7.9-9.1,11.8-13.7C211.8,62.8,211.8,61.2,210.2,59.9z"/>
		</g>
	</g>
	<g>
		<path d="M437.5,290.4c14.9,0,27.2-10.9,29-25.7c0.3-2.2,0.3-4.4,0-6.7c-0.2-1.5,0.5-2.1,2-1.8c0.7,0.1,1.5,0.2,2.2,0.3
			c4.2,0.3,4.3,0.4,4.3,4.6c-0.2,20.6-15.5,35.3-34,37.3c-17.2,1.9-36.6-10-40.6-29.5c-0.4-1.9-1.3-2.4-3-2.3
			c-3,0.1-3.1-0.2-1.7-2.8c2.2-4.1,4.4-8.1,6.6-12.2c1.1-2.1,2.1-2.1,3.4-0.2c2.7,4.3,5.3,8.6,7.9,13c1,1.7,0.7,2.1-1.4,2.2
			c-4.2,0.2-4.3,0.3-2.7,4.4C414.2,282.6,425.4,290.4,437.5,290.4z"/>
		<path d="M437,232.1c-11.2,0.5-20,5.2-25.9,14.9c-1.2,2-2.3,2.1-4.1,1.1c-5.2-3-5.3-2-1.8-7.1c7.6-11.1,18.5-16.6,31.7-16.8
			c10.4-0.1,19.6,4.2,26.9,11.8c1.4,1.4,2.4,1.6,4,0.5c2-1.3,2.5-1.1,2.9,1.2c0.9,4.4,1.7,8.9,2.5,13.4c0.4,2.2-0.5,2.9-2.4,2.1
			c-5-2.2-10.1-4.5-15-6.8c-2-1-2-1.4-0.2-2.6c2.9-2,3-2,0.3-4.3C450.4,234.8,444.1,232.5,437,232.1z"/>
	</g>
	<g>
		<path class="st7" d="M546.4,261.2c-0.1-2.5-0.5-5.2-1.4-7.9c-0.1-0.4-0.2-0.9-0.5-1.2c-1.6-4.1-4.1-7.6-7.8-10.4
			c-0.2-0.3-0.6-0.5-0.9-0.7c-4.6-3-9.2-4.6-14-4.7c-0.1,0-0.2,0-0.3,0c-0.2,0-0.3,0-0.5,0c-0.2,0-0.3,0-0.5,0c-0.1,0-0.2,0-0.3,0
			c-4.8,0.2-9.4,1.8-14,4.7c-0.3,0.2-0.8,0.4-0.9,0.7c-3.7,2.8-6.3,6.3-7.8,10.4c-0.2,0.3-0.3,0.8-0.5,1.2c-0.9,2.7-1.3,5.3-1.4,7.9
			c0,0.1,0,0.1,0,0.2c0,0,0,0.1,0,0.1c-0.1,4.4,1.1,8.5,3.4,12.4c1.9,3.4,4.5,6.2,7.9,8.4c4.2,3,8.9,4.4,14,4.3
			c5.1,0.2,9.8-1.3,14-4.3c3.4-2.1,6-4.9,7.9-8.4c2.4-3.8,3.5-8,3.4-12.4c0,0,0-0.1,0-0.1C546.4,261.3,546.4,261.3,546.4,261.2z"/>
		<path d="M534.8,253.1c0,0.9-0.4,1.5-0.9,2c-5.1,5.5-10.2,11-15.4,16.5c-1.1,1.2-2.1,1.3-3.3,0.2c-2.4-2.2-4.7-4.5-7-6.7
			c-1.4-1.4-1.3-2.5,0.5-4.2c1.3-1.3,2.1-1.2,3.5,0.1c1.1,1.1,2.3,2.1,3.4,3.2c0.9,1,1.5,0.7,2.3-0.2c3.9-4.4,7.9-8.6,11.8-13
			c0.8-0.9,1.7-1.3,2.8-0.8C533.8,250.9,534.6,251.9,534.8,253.1z"/>
		<path d="M546.4,261.5c0,0,0-0.1,0-0.1c0-0.1,0-0.1,0-0.2c-0.1-2.5-0.5-5.2-1.4-7.9c-0.1-0.4-0.2-0.9-0.5-1.2
			c-1.6-4.1-4.1-7.6-7.8-10.4c-0.2-0.3-0.6-0.5-0.9-0.7c-4.6-3-9.2-4.6-14-4.7c-0.1,0-0.2,0-0.3,0c-0.2,0-0.3,0-0.5,0
			c-0.2,0-0.3,0-0.5,0c-0.1,0-0.2,0-0.3,0c-4.8,0.2-9.4,1.8-14,4.7c-0.3,0.2-0.8,0.4-0.9,0.7c-3.7,2.8-6.3,6.3-7.8,10.4
			c-0.2,0.3-0.3,0.8-0.5,1.2c-0.9,2.7-1.3,5.3-1.4,7.9c0,0.1,0,0.1,0,0.2c0,0,0,0.1,0,0.1c-0.1,4.4,1.1,8.5,3.4,12.4
			c1.9,3.4,4.5,6.2,7.9,8.4c4.2,3,8.9,4.4,14,4.3c5.1,0.2,9.8-1.3,14-4.3c3.4-2.1,6-4.9,7.9-8.4C545.3,270,546.4,265.9,546.4,261.5z
			 M507.8,244.1c0.8-0.6,1.7-1.2,2.5-1.6c3.6-1.9,7.2-2.9,10.7-2.9c3.5,0.1,7.1,1,10.7,2.9c0.8,0.5,1.7,1,2.5,1.6
			c3.7,2.7,6.2,6,7.6,9.7c0,0.1,0,0.3,0,0.4c0.1,0.7,0.3,1.3,0.5,2c0.8,3.6,0.9,7.2-0.1,10.8c-0.9,3-2.2,5.6-4,7.9
			c-2.1,2.5-4.8,4.6-7.7,6.1c-2.8,1.3-5.9,2.1-9.1,2.1c-0.1,0-0.3,0-0.4,0c-0.1,0-0.3,0-0.4,0c-3.2-0.1-6.3-0.8-9.1-2.1
			c-2.9-1.4-5.6-3.6-7.7-6.1c-1.8-2.2-3.2-4.9-4-7.9c-1-3.6-0.9-7.2-0.1-10.8c0.1-0.7,0.3-1.3,0.5-2c0-0.2,0-0.3,0-0.4
			C501.6,250.1,504.1,246.8,507.8,244.1z"/>
	</g>
	<g>
		<path d="M341.9,461.8c0.1,8.8-4.6,14.3-13.3,15.7c-2.3,0.4-4.6,0.4-6.8,0.6c-15.2-0.7-29.2-5.4-42.9-11
			c-23.5-9.4-45.6-21.5-67.2-34.7c-2.8-1.7-5.7-3.5-8.5-5.3c-1.9-1.2-3.8-2.4-5.6-3.6c-0.1-0.1-0.3-0.2-0.4-0.3
			c-0.8-0.5-1.7-1.1-2.5-1.6v0c-2.7-1.7-5.4-3.5-8.1-5.3c-5.1-3.4-10.2-6.8-15.2-10.3c-0.5-0.3-0.9-0.7-1.4-1
			c-2-1.4-4.1-2.9-6.1-4.3c-2.6-1.8-5.2-3.7-7.8-5.6c0,0,0,0,0,0c-0.2-0.2-0.5-0.4-0.7-0.5c-1.9-1.4-3.7-2.8-5.6-4.1
			c-1.9-1.5-3.9-3-5.9-4.4c-0.1-0.1-0.3-0.2-0.4-0.3c-1.2-0.9-2.4-1.8-3.6-2.7c-0.5-0.4-1-0.8-1.5-1.1c-0.4-0.3-0.8-0.7-1.2-1
			c-2.4-1.8-4.7-3.7-7-5.5c-2.5-2-5-4-7.4-6c-1-0.8-1.9-1.6-2.9-2.4c-5.6-4.6-11.2-9.3-16.7-14c-1-0.8-1.9-1.6-2.8-2.4
			c-6.3-5.4-12.4-11-18.6-16.6c-0.6-0.6-1.2-1.1-1.8-1.7c-0.6-0.6-1.2-1.2-1.9-1.7c-3.3-3.1-6.6-6.2-9.9-9.4
			c-1.6-1.6-3.2-3.1-4.8-4.7c-1-1-2-2-3-3c-6.7-6.8-13.2-13.7-19.5-20.9c-2.3-2.6-4.6-5.3-6.8-8c-1.5-1.8-2.9-3.6-4.4-5.4
			c-1.5-1.8-2.9-3.7-4.3-5.5c-8.3-10.8-16-21.9-21.4-34.5c-2-4.7-3.6-9.6-3.8-14.8c-0.4-9.6,4.6-15.4,14.1-16.6
			c8.9-1.1,17.5,0.6,26,2.8c10.8,2.9,21.2,6.8,31.4,11.3c3.6,1.6,7.2,3.2,10.7,5c2.2,1.1,4.4,2.1,6.5,3.2c0.8,0.4,1.6,0.8,2.5,1.2
			c0.3,0.2,0.7,0.4,1,0.5c0.6,0.3,1.1,0.6,1.7,0.9c8.7,4.5,17.2,9.2,25.6,14c4.8,2.8,9.6,5.7,14.4,8.7h0c3.1,1.9,6.1,3.8,9.2,5.8
			c4.9,3.2,9.9,6.4,14.7,9.7c2.3,1.6,4.6,3.1,6.9,4.7c0,0,0.1,0,0.1,0.1c0,0,0,0,0.1,0c1,0.7,2,1.4,3,2.1c0.3,0.2,0.6,0.5,1,0.6
			c1.4,1,2.8,2,4.2,2.9c0.5,0.3,0.9,0.6,1.3,0.9c0.2,0.1,0.4,0.3,0.5,0.4c1.4,1,2.7,1.9,4,2.9c0.8,0.6,1.5,1.1,2.3,1.6
			c0.7,0.5,1.4,1,2.1,1.5c0.7,0.6,1.5,1.1,2.2,1.7c1.2,0.8,2.3,1.7,3.5,2.6c0.6,0.5,1.3,0.9,1.9,1.4c0,0,0,0,0.1,0.1
			c1.7,1.2,3.4,2.5,5.1,3.8c0.9,0.7,1.8,1.4,2.7,2c0,0,0.1,0.1,0.1,0.1c2.8,2.1,5.5,4.2,8.2,6.3c1.2,0.9,2.4,1.9,3.6,2.8
			c1.3,1,2.6,2,3.8,3c0.4,0.3,0.8,0.6,1.2,0.9c0.6,0.5,1.2,0.9,1.7,1.4c0.8,0.6,1.6,1.3,2.4,1.9l3.4,2.8c1.7,1.4,3.4,2.8,5.2,4.3
			c3.5,2.9,6.9,5.8,10.4,8.8c1.6,1.4,3.2,2.8,4.8,4.2c0.6,0.5,1.1,1,1.7,1.5c1.3,1.1,2.6,2.3,3.9,3.5c0.4,0.3,0.8,0.7,1.2,1.1
			c1,0.9,2,1.7,2.9,2.6c1.1,1,2.2,2,3.3,3c2.2,2,4.4,4.1,6.6,6.1c2.6,2.4,5.1,4.8,7.6,7.2c0.8,0.8,1.6,1.5,2.4,2.3
			c12.5,12.2,24.6,24.8,35.7,38.3c2.7,3.3,5.4,6.6,7.9,10c1.1,1.5,2.3,3,3.4,4.5c0.2,0.2,0.4,0.5,0.5,0.7
			c7.1,9.6,13.5,19.5,17.9,30.7C340.5,452.6,341.8,457,341.9,461.8z"/>
		<g>
			<path class="st7" d="M121.3,258c-0.1,2.4,1,3.2,3.2,3.8c7.1,2,7.1,2.2,4.6,8.8c-1.8,4.6-2.2,8.7,1.6,12.7
				c3.2,3.5,5.8,7.6,8.5,11.5c5.2,7.3,10.8,14.4,13.6,23.1c0.3,1.1-0.4,3.5,2.2,3c2.2-0.5,3.7-1.4,3.3-4.4
				c-1.6-9.8-3.8-19.4-7.9-28.6c-7.4-16.8-17.2-32.4-23.7-49.5c-7.3,2.7-7.8,7.9-6.1,14C121,254.2,121.3,256.2,121.3,258z"/>
			<path class="st7" d="M202.3,329.4c0.8-2.7,2.8-4.6,4.3-6.8c0.7-1,1.7-2-0.6-2.5c-4-0.9-8.2,1.5-8.5,5.3c-0.2,2.4,0.2,4.9,0.4,7.7
				c1.7-1.4,3-2.3,4.3-3.3c-1.7,3.4-5.4,5.6-5.8,9.7c18.8-21.6,37.2-43.4,54.4-66.3c-10.9,11.7-21.1,23.8-31.5,35.9
				C213.5,315.8,208.7,323.2,202.3,329.4z"/>
			<path class="st4" d="M116.3,197.3c-1.4,7-0.7,14.4-4.2,21C117.9,212.2,116.3,204.6,116.3,197.3z"/>
			<path class="st4" d="M95.5,224.3c1.2-4.3,4.6-7.5,6.3-11.5c-8.3,7.3-11.8,18.3-7.6,24.4C93.8,232.8,94.3,228.6,95.5,224.3z"/>
			<path class="st4" d="M82.4,208.1c-3.9,4.4-5.6,9.8-4.6,14.3c1.2-8.4,6.2-14.3,12.2-19.7c3.4-3,5.7-6.9,6.7-11.6
				C93.7,198.2,87.3,202.5,82.4,208.1z"/>
			<path class="st7" d="M205.7,293.6c-2-10.4-4.3-20.8-7.3-31c-2.3-7.8-7.3-12.8-15.3-14.8c-3.5-0.9-7.2-1.3-10.6-3.1
				c2.5,3.7,5.9,6.5,8.3,10.2c1,1.5,1.8,2.9,0.2,4.3c-2.1,1.9-1.1,3.1,0.7,4.5c4.4,3.4,6.5,8.2,7.8,13.5c1.4,5.6,1.6,11.4,1.6,17.1
				c0,1.7,0,3.4-0.1,5.1c1.9,0.3,2.8-1.2,4.1-1.3c0.4,0,0.7,0,1-0.1c2.2-0.4,2.2-2,2-4.2c-0.4-5-1.3-9.7-3.7-14.1
				c-0.6-1.2-1.9-2.5-0.6-4c0.3,0.1,0.6,0.1,0.8,0.2c0.3,0.3,0.4,0.7,0.6,1c3,5.5,5.2,11.1,5,17.5c-0.1,3.4,1.9,2.7,4,2.7
				C207.5,297,205.9,294.9,205.7,293.6z M193.8,271.5c-0.4,0-0.7,0-1.1,0v-13.8C194.3,262.3,194.4,266.9,193.8,271.5z"/>
			<path class="st7" d="M179.3,256.3c-5.5-7.8-11.7-14.9-20.5-18.8c12.1,20.8,22.8,42.2,26,66.8c1.6-0.8,3.5-1.4,3.8-3.6
				c1.5-15,0.9-29.5-12.2-39.7C177.1,258.7,181.6,259.5,179.3,256.3z"/>
			<path class="st4" d="M144.8,179.2c4.5-1.6,7.1-4.4,8.5-9.3C150.6,173.9,147.7,176.2,144.8,179.2z"/>
			<path class="st4" d="M184,309.1c-3.7,4.3-8.2,8.1-13.7,10.2c-2.8,1-2.7,2.7-2.1,4.8c1.1,4.2,2.6,8.3,5.2,12.4
				c-0.7-2.7,1.1-3.2,2.7-3.8c2.8-1,5.7-1.8,8.5-3c3.9-1.6,8.4-2.5,10.7-6.3c2.5-4.1,5.8-5.4,10.3-5c0.9,0.1,1.9,0,2.9,0
				c1,0,2,0.1,2.2-1.2c0.2-1-0.7-1.4-1.4-1.8c-2.1-1.3-4.5-1.8-7-2c-1.1-0.1-3.1,0.6-2.9-1.1c0.2-1.7,2.2-1.2,3.5-1
				c3,0.5,5.8,1.4,8.5,2.8c2.6,1.3,3-1.2,3.6-2.6c1-2.3-1.3-1.6-2.1-1.7c-5.1-0.9-9.3-4.3-14.6-4.8c2.6-0.7,4.9-0.3,7.2,0.8
				c3.1,1.4,6.5,2.1,9.8,2.6c1,0.2,2.3,0.6,2.9-0.8c0.5-1.3-0.9-1.9-1.6-2.6c-1.9-1.9-4.9-1.3-7.4-2.9c3.7-0.6,6.7,0.7,9.7,2
				c1.4,0.6,1.6-0.2,2.2-0.8c1-1,0.7-1.6-0.5-2.1c-0.6-0.3-1.2-0.6-1.1-1.5c1.1-1.4,2.3,1.8,3.4,0c-0.1-0.2-0.2-0.6-0.4-0.6
				c-2-0.3-4-0.7-6.1-0.7C204.7,298.8,192.9,298.9,184,309.1z"/>
			<path class="st7" d="M171.6,340.2c-2.8-6.6-5.6-13.2-6.2-20.8c-0.8,0.4-1.4,0.7-2,0.9c-14.2,5.9-28,13.1-43.4,15.3
				c-6.4,0.9-10.7,4.3-14.3,9.2c-0.5,0.7-0.6,1.9-2.4,2c1.4-5.5,5.6-8.2,10.4-11.5c-5.4-0.1-9.5,1.5-13.5,3.4
				c2.5-3.9,6.2-5.7,10.6-5.3c2.9,0.2,3.3-0.5,3.2-3.2c-0.7-14.6-0.3-29.1,0.1-43.8c1.3,1.9,1.5,4,1.6,6.2
				c0.2,12.4,0.5,24.8,0.6,37.3c0,2.9,0.5,3.8,3.6,3.1c7.9-1.6,15.6-4,23-7.1c9.7-4.1,9.8-4,4.9-13.6c-5-10-12.3-18.3-18.9-27.2
				c-3.8-5.1-4.8-10-1.6-15.4c2.1-3.4,0.9-4.8-2.5-5.4c-3.7-0.6-5.7-2.4-5.7-6.5c0-3.5-1-7-1.3-10.5c-0.2-2.2-0.9-2.6-3.1-1.9
				c-2.7,0.9-5.6,1.2-8.4,1.6c-14.2,1.9-22.1,8.9-23.6,21.7c-2.5,21.8-3,43.6-1,65.3c6.1,5.7,12.3,11.2,18.6,16.6
				c1,0.8,1.9,1.6,2.8,2.4c5.5,4.7,11.1,9.4,16.7,14c0.3-0.1,0.6-0.2,0.9-0.3c17.2-5.9,33-15.1,49.6-22.3
				C172.3,343.4,172.5,342.3,171.6,340.2z M107.5,268.4c-4-5-7.5-10.6-14.2-12.3C99.3,255,106.8,261.4,107.5,268.4z M160.1,341.2
				c-0.4,2-0.5,3.8-2.9,3.5c-1.8-0.2-2.8-1.1-2.4-2.9c0.4-2,1.9-3,3.8-2.9C160.3,338.9,160.1,340.3,160.1,341.2z"/>
			<path class="st4" d="M156,156.8c-3.5,10.7-11,17.9-21.2,23.1C144.1,179.4,155.8,166.6,156,156.8z"/>
			<path class="st4" d="M181,196c-3.4-4.1-4.7-8.8-4.1-14.1c0.2-2.2,0.1-4.4,0-6.5c-0.5-6.8-2.6-12.8-8.8-16.7
				c-5.5-3.4-5.4-3.5-6.8,2.9c-2.6,11.9-8.4,21.5-19.7,27.1c-3.2,1.5-6.2,2.4-9-1.2c-1.6-2.1-4.2-3.2-7-2c-2.9,1.2-3.6,3.8-3.6,6.8
				c0.1,3.5,1.7,6.3,3.9,8.8c2.4,2.7,5.2,4.9,9.3,4.1c0,1.2-0.7,1.8-1.2,1.7c-4.6-0.8-3.4,1.9-3,4.5c1,5.7,2.2,11.9-0.2,17
				c-3.4,7.3-1.1,12.9,2.5,18.9c1.2,1.9,1.9,2.8,4.3,2.4c3.2-0.6,6.4-0.5,8.8,2.5c-2.6-0.6-5.2-0.8-7.7-0.8c-3.2,0-3.1,1.4-1.6,3.4
				c0.9,1.2,1.8,2.4,2.9,3.4c1.1,1.1,2.2,2.1,3.3,3.1c6.7,6.1,14.1,11.5,21.4,17.8c0.1-1.2,0.2-2.3,0.3-3.4c0.8-7.4,2-14.4,0-21.4
				c-1.7-5.9-1.8-5.9-7.6-3.4c-0.1,0.1-0.4-0.2-0.7-0.3c0.7-3,3.6-1.8,5.4-2.8c-1.2-2.8-2.4-5.5-4.8-7.7c-0.9,2.4,0.3,4.4-0.1,6.5
				c-1.7-1.3-1.5-2.9-1.5-4.3c-0.1-4.5-0.2-9.1,1.3-13.4c0.8-2.4,0.3-3.4-2.1-4c-4.1-1.1-7.9-3.1-10.9-6.6c1.5-0.4,2.2,0.4,2.9,0.9
				c6.3,4.1,13.4,5.3,20.7,5.7c5,0.3,7.2-1.8,6.9-6.7c-0.1-1.6,0.1-2.9,1.2-4.1c0.8-0.8,0.7-1.7,0.2-2.6c-0.6-1.2-1.6-0.9-2.5-0.7
				c-2.3,0.4-4.4,0.5-6.7-2c2.9,0,5.1-0.1,7.2,0c2.8,0.1,4.6-0.6,4-3.9c-0.4-1.9,0.4-3,2.3-3.7C182.8,199.9,182.7,198.1,181,196z
				 M166.8,190.5c-1.8-0.2-2.7-2.1-2.7-3.6c0-1.8,1.5-3,3.2-2.8c2,0.1,1.6,2.1,2,3.4C169,189,168.6,190.8,166.8,190.5z M170.5,179.2
				c-0.2,0.9-0.8,1.4-1.8,1.1c-1.4-0.5-2.9-0.6-4.4-0.4c-1.4,0.2-2.8,0.5-4.9,1c2.5-3.2,7.4-4.5,10.1-3.2
				C170.1,178,170.6,178.4,170.5,179.2z"/>
			<path class="st7" d="M186.3,378.9c-8.8,2.5-17.6,2.1-27,2.7C165.7,385.1,183.3,383.3,186.3,378.9z"/>
			<path class="st4" d="M248.7,332.9c-0.6-0.7-1.1-0.7-1.6-0.2c-2.1,2.4-4.2,5-6.3,7.4c2.3-1.7,4.5-2.3,7.3-2.2
				c1.4,0.1,3.4-0.8,4.7-2.7C250.5,334.9,250.4,334.9,248.7,332.9z"/>
			<path class="st7" d="M237.2,341.1c-12.1-0.1-24.2,0.1-36.3,0.2c-0.8,0-1.9-0.5-2.2,1c-1.2,5.8,2.3,10.3,8.3,10.4
				c1.6,0,3.3,0,4.9-0.3c8.1-1.5,15.7-4.2,22.8-8.4c0.5-0.3,1.2-0.5,1.6-0.7c1.1,1.2-1.4,1.3-0.2,2.6c3.6-1.3,8-1.3,11.1-6.1
				C243.1,341.3,240.2,341.2,237.2,341.1z"/>
			<path class="st4" d="M283,267.8c-4.1-0.7-8.4-0.2-12.6,0c-1.1,0-1.7,0.8-1.6,2c0.2,1.2,1.2,0.8,1.9,0.8c3.4,0,6.8-0.1,10.2-0.1
				c1.7,0,3.6,0.2,2.5,3C285.2,271.1,285.3,268.2,283,267.8z"/>
			<path class="st4" d="M265.6,311.1c-2.6-1.2-5.1-2.7-7.7-3.7c-1.7-0.7-3.9-3.2-5.3-0.6c-1.3,2.4,1.9,3.1,3.4,4.1
				c5.6,3.7,5.6,3.7,6.9,6.2c-4.7-1.8-8.7-4.1-12.7-6.3c-1.2-0.7-2.3-1.5-3.8-1.4c-1,0-2,0.2-2.5,1.1c-0.6,1.3,0.6,1.7,1.4,2.1
				c3.5,2.1,7,4.2,10.5,6.3c0.9,0.5,2.5,0.6,2,2.7c-0.6-0.2-1.3-0.3-1.8-0.6c-4.2-2.2-8.5-4.4-12.6-6.7c-1.8-1-2.4,0-3,1.3
				c-1,1.9,0.6,1.4,1.5,2.1c3.9,3,8.8,4.6,12.4,8.1c-1.1,1-1.9,0.7-2.5,0.3c-2.9-1.8-5.8-3.6-8.7-5.4c-0.9-0.6-1.8-2.3-3.1-0.8
				c-1.4,1.6,0.5,2.4,1.4,3.2c3.2,3.1,7.1,5.4,9.5,9.4c1.2,1.9,3.9,2,6.2,0.4c6-4,8.9-10,11.1-16.4
				C268.8,314.5,268,312.2,265.6,311.1z"/>
			<path class="st7" d="M202.4,421.6c-2.1,1.1-3.6,1.7-4.8,1.9c-1.4,0.2-2.3-0.4-2.9-1.8v0c-0.4-1-0.7-2.5-1-4.4
				c-3.8-26.8-7.1-53.6-8-80.6c-0.2-5-0.2-5,5.5-7.2c-0.5,10.8-2.8,21-2.5,31.4c0.4,0,0.7,0.1,1.1,0.1c0.6-6,1.3-12,1.9-18
				c0.4-4.1,0.7-8.2,1.1-12.2c0.1-1.4,0.1-3.2,1.9-3.1c2.2,0.1,1.1,2.1,1.2,3.2c0.2,2.2,0.2,4.3-0.6,6.4c-0.5,1.4-1.3,3.2,1,4.2
				c0.9,0.4,0.6,1.4,0.6,2.2c0.4,20,4.7,39.5,8.5,59.1c0.6,3.1,1.2,6.2,1.8,9.2C208.2,417.7,207.6,418.9,202.4,421.6z"/>
			<path class="st7" d="M159.2,352c-2.3,1.2-4.5,2.5-6.8,3.7c-9.8,5-19.5,10.1-29.7,13.6c2.5,2,4.9,4,7.4,6c2.3,1.9,4.7,3.7,7,5.5
				c0.4,0.3,0.8,0.7,1.2,1c0.5,0.4,1,0.8,1.5,1.1c1.2,0.9,2.4,1.8,3.6,2.7c0.1,0.1,0.3,0.2,0.4,0.3c2,1.5,4,3,5.9,4.4
				c1.9,1.4,3.7,2.8,5.6,4.1c0.6-3.6,1.2-7.2,1.7-10.8c1.6-10.5,3.2-21,3.5-31.9C159.7,351.9,159.4,351.9,159.2,352z M151.3,373
				c-1.4,0.8-1.4-1.4-1.4-2.5c-0.1-2.2,0-4.4,2.8-5c1.5,0.2,2.8,1,2.6,2.5C155.1,370.3,153.1,372,151.3,373z"/>
			<path class="st26" d="M299.9,270.2c-0.6-1.2-1.8-1-2.9-1c-2.7,0-5.5,0.1-8.2,0.1c-0.9,0-2,0.4-2.7-0.5c-5-5.9-11.9-3.8-16.8-1.7
				c-4.1,1.8-7.7,2.4-11.7,2.3c-4.8-0.1-8.2,1.9-11.2,5.4c-6,7.1-12.2,14-18.4,20.9c-0.8,0.9-1.3,2.5-3.2,1.6
				c-4.1-1.8-8.6-1.5-12.9-1.4c-2,0.1-2.7-0.4-3.1-2.5c-1.9-9.8-3.7-19.5-6.4-29.2c-2.9-10.6-8.8-18-20.4-19.8
				c-1.9-0.3-4-0.4-5.7-1.9c4.5-2.9,4.5-3,5.8-5.2c1-1.7,1.4-2.5-1.2-3.3c-3.7-1.2-6.8-7.5-5.3-10.4c2.1-3.9,0.9-8.4,3-12.3
				c1.9-3.5,0.6-8.5,5.3-11c2.2-1.2,1.1-3.3-0.2-4.9c-3.5-4.3-4.6-8.8-1.9-14c0.7-1.3,1-2.8,1.4-4.3c3.1-11.3-1.6-24.3-11.1-29.2
				c-3.7-1.9-7.4-3.8-11.2-5.6c-22.6-10.6-61.8-1.4-66.6,33c-1.6,11.6-5.8,21.5-14.9,29.1c-0.3,0.3-0.6,0.6-0.8,0.9
				c-4.5,5.2-6.8,10.6-7.1,16.1c-0.3,5.9,1.8,11.8,6.1,17.6c3.9,5.3,9,7.1,15.2,8.9C82.3,253.5,80,263,78.7,273
				c-0.9,6.9-1.2,13.9-1.2,20.8c0,12.2-0.4,24.5,0.5,36.7c0.6,0.6,1.2,1.2,1.9,1.7c0.6,0.6,1.2,1.1,1.8,1.7c-2-21.8-1.5-43.6,1-65.3
				c1.5-12.8,9.4-19.7,23.6-21.7c2.8-0.4,5.7-0.7,8.4-1.6c2.2-0.7,2.9-0.3,3.1,1.9c0.4,3.5,1.4,7,1.3,10.5c0,4.2,2,5.9,5.7,6.5
				c3.4,0.6,4.6,2,2.5,5.4c-3.2,5.4-2.2,10.3,1.6,15.4c6.6,8.9,13.9,17.2,18.9,27.2c4.8,9.6,4.7,9.5-4.9,13.6
				c-7.4,3.2-15.1,5.5-23,7.1c-3.1,0.6-3.6-0.3-3.6-3.1c-0.1-12.4-0.3-24.8-0.6-37.3c0-2.2-0.2-4.3-1.6-6.2
				c-0.4,14.6-0.9,29.2-0.1,43.8c0.1,2.7-0.3,3.4-3.2,3.2c-4.4-0.4-8.1,1.4-10.6,5.3c4-1.9,8-3.5,13.5-3.4c-4.7,3.3-9,6-10.4,11.5
				c1.8-0.2,1.9-1.3,2.4-2c3.6-4.9,7.9-8.3,14.3-9.2c15.5-2.2,29.2-9.4,43.4-15.3c0.6-0.2,1.2-0.6,2-0.9c0.6,7.5,3.4,14.2,6.2,20.8
				c0.9,2.1,0.7,3.2-1.4,4.2c-16.6,7.3-32.3,16.5-49.6,22.3c-0.3,0.1-0.6,0.2-0.9,0.3c1,0.8,1.9,1.6,2.9,2.4
				c10.2-3.6,19.9-8.7,29.7-13.6c2.3-1.2,4.5-2.5,6.8-3.7c0.2-0.1,0.5-0.1,1.4-0.1c-0.3,10.9-1.9,21.4-3.5,31.9
				c-0.6,3.6-1.1,7.2-1.7,10.8c0.2,0.2,0.5,0.3,0.7,0.5c0,0,0,0,0,0c2.5,1.9,5.1,3.8,7.8,5.6c2,1.5,4.1,2.9,6.1,4.3
				c0.5,0.3,0.9,0.7,1.4,1c5,3.5,10.1,6.9,15.2,10.3c2.7,1.8,5.4,3.5,8.1,5.3c-0.4-1-0.7-2.5-1-4.4c-3.8-26.8-7.1-53.6-8-80.6
				c-0.2-5-0.2-5,5.5-7.2c-0.5,10.8-2.8,21-2.5,31.4c0.4,0,0.7,0.1,1.1,0.1c0.6-6,1.3-12,1.9-18c0.4-4.1,0.7-8.2,1.1-12.2
				c0.1-1.4,0.1-3.2,1.9-3.1c2.2,0.1,1.1,2.1,1.2,3.2c0.2,2.2,0.2,4.3-0.6,6.4c-0.5,1.4-1.3,3.2,1,4.2c0.9,0.4,0.6,1.4,0.6,2.2
				c0.4,20,4.7,39.5,8.5,59.1c0.6,3.1,1.2,6.2,1.8,9.2c1.1,5.8,0.6,7-4.7,9.7c-2.1,1.1-3.6,1.7-4.8,1.9c1.8,1.2,3.7,2.4,5.6,3.6
				c0-2.2,0.7-3.3,2.7-4.2c4.2-1.8,5.7-5,4.6-9.6c-1.4-6.2-2.5-12.6-3.7-18.9c-2.5-13.4-5.1-26.7-6.7-40.5c4.7,2.2,9.4,2.2,13.9,1
				c9.6-2.5,19.1-5.5,28.6-8.4c2.2-0.7,4.3-1.9,5.8-3.8c0.3-0.4,0.7-0.8,1.1-1.2c1.2-1.1,2.5-2,3.9-2.9c11.3-7,19.2-15.8,16.5-30.5
				c-0.2-1,0.6-1.4,1.1-2c3.7-4.4,7.4-8.7,11.2-13.1c5.6-6.5,11.2-13.1,16.8-19.6C299.6,272.5,300.6,271.6,299.9,270.2z M183,247.8
				c8,2,13.1,7,15.3,14.8c3,10.2,5.3,20.6,7.3,31c0.2,1.2,1.8,3.3-1.4,3.4c-2.1,0-4.1,0.7-4-2.7c0.2-6.3-2-12-5-17.5
				c-0.2-0.3-0.4-0.7-0.6-1c-0.2-0.2-0.5-0.2-0.8-0.2c-1.2,1.6,0,2.9,0.6,4c2.4,4.4,3.3,9.2,3.7,14.1c0.2,2.2,0.2,3.9-2,4.2
				c-0.3,0-0.6,0.1-1,0.1c-1.3,0-2.2,1.5-4.1,1.3c0-1.7,0.1-3.4,0.1-5.1c0-5.7-0.2-11.4-1.6-17.1c-1.3-5.3-3.4-10.1-7.8-13.5
				c-1.8-1.4-2.8-2.6-0.7-4.5c1.6-1.4,0.7-2.9-0.2-4.3c-2.4-3.7-5.8-6.5-8.3-10.2C175.8,246.6,179.5,246.9,183,247.8z M181.3,287
				c-0.2-0.5-0.3-1-0.4-1.6c-0.2-0.6-0.3-1.1-0.5-1.6c-0.3-1.1-0.7-2.2-1-3.3c-0.2-0.5-0.3-1-0.5-1.6c0-0.1,0-0.1,0-0.1
				c0,0,0-0.1,0-0.1c0-0.1,0-0.1-0.1-0.2c-0.3-1-0.7-2-1-2.9c0,0,0,0,0,0c-0.4-1-0.8-2.1-1.2-3.1c-0.4-1-0.8-2-1.2-3.1
				c0-0.1-0.1-0.2-0.1-0.3c-0.4-0.9-0.8-1.8-1.2-2.7c0,0,0-0.1,0-0.1c0,0,0,0,0,0c0-0.1-0.1-0.2-0.1-0.3c-0.3-0.8-0.7-1.5-1-2.2
				c-0.2-0.4-0.3-0.7-0.5-1.1c-0.2-0.4-0.3-0.7-0.5-1.1c0,0,0-0.1-0.1-0.1c-0.4-0.8-0.8-1.6-1.1-2.4c-0.3-0.6-0.6-1.3-0.9-1.9
				c0,0,0-0.1,0-0.1c-0.4-0.8-0.8-1.6-1.2-2.3c-0.4-0.8-0.8-1.6-1.3-2.4c-0.5-1-1.1-2-1.6-3c0-0.1-0.1-0.1-0.1-0.2
				c-0.5-0.9-1-1.9-1.6-2.8c-0.5-1-1.1-2-1.7-3c-0.4-0.7-0.8-1.4-1.2-2c-0.4-0.7-0.7-1.3-1.1-2c-0.4-0.6-0.8-1.3-1.1-2
				c8.8,3.9,15,11.1,20.5,18.8c2.2,3.2-2.3,2.4-3,4.6c1.3,1,2.4,2,3.5,3.1c0.5,0.5,1,1.1,1.5,1.6c0.8,0.9,1.5,1.9,2.2,2.9
				c0,0,0,0,0,0c0,0,0,0,0,0c0.2,0.2,0.3,0.4,0.4,0.6c0.2,0.2,0.3,0.5,0.4,0.7c0.7,1.2,1.3,2.4,1.8,3.6c0.3,0.6,0.5,1.2,0.7,1.9
				c0.2,0.7,0.5,1.4,0.7,2.2c0.2,0.6,0.3,1.1,0.4,1.7c0.1,0.7,0.3,1.3,0.4,2c0.1,0.7,0.2,1.3,0.3,2c0.1,0.6,0.1,1.2,0.2,1.8
				c0.1,0.6,0.1,1.2,0.1,1.8v0.1c0,0.6,0.1,1.2,0.1,1.8c0,0.6,0,1.2,0,1.8c0,0.8,0,1.7,0,2.5v0.1c0,0.6-0.1,1.2-0.1,1.8
				c0,0.4-0.1,0.8-0.1,1.3c-0.1,0.7-0.1,1.4-0.2,2.1c-0.1,0.9-0.1,1.7-0.2,2.6c-0.2,2.2-2.2,2.8-3.8,3.6c-0.1-0.8-0.2-1.5-0.3-2.3
				c-0.1-0.7-0.2-1.4-0.3-2.1c-0.1-0.7-0.2-1.4-0.4-2.1c-0.1-0.6-0.2-1.2-0.4-1.8c-0.1-0.4-0.2-0.8-0.2-1.2
				c-0.1-0.6-0.2-1.1-0.4-1.7c-0.3-1.3-0.6-2.6-0.9-3.9c-0.2-0.6-0.3-1.2-0.5-1.8C181.4,287.2,181.3,287.1,181.3,287
				C181.3,287.1,181.3,287,181.3,287z M156,156.8c-0.2,9.8-11.9,22.6-21.2,23.1C145,174.6,152.4,167.5,156,156.8z M153.3,169.9
				c-1.4,4.9-4,7.7-8.5,9.3C147.7,176.2,150.6,173.9,153.3,169.9z M116.3,197.3c0,7.3,1.6,14.9-4.2,21
				C115.5,211.8,114.9,204.3,116.3,197.3z M82.4,208.1c4.9-5.6,11.3-10,14.4-17c-1,4.7-3.4,8.5-6.7,11.6c-6,5.4-11,11.3-12.2,19.8
				C76.9,217.9,78.5,212.5,82.4,208.1z M93.7,236.5c-0.1-0.2-0.2-0.4-0.3-0.6c0,0,0-0.1-0.1-0.2c-0.1-0.1-0.1-0.3-0.2-0.4
				c0,0,0,0,0,0c-0.1-0.2-0.1-0.4-0.2-0.6c0,0,0-0.1,0-0.1c0,0,0,0,0,0c0-0.1-0.1-0.2-0.1-0.3s-0.1-0.2-0.1-0.3
				c0-0.1-0.1-0.2-0.1-0.3c0-0.2-0.1-0.3-0.1-0.5c0,0,0-0.1,0-0.1c0-0.1-0.1-0.3-0.1-0.4c0-0.1,0-0.2,0-0.3c0-0.2-0.1-0.5-0.1-0.8
				c0-0.3,0-0.6,0-0.9c0-0.3,0-0.5,0-0.8c0-0.2,0-0.5,0.1-0.7c0-0.2,0-0.5,0.1-0.7c0-0.3,0.1-0.6,0.1-0.8c0.1-0.3,0.1-0.5,0.2-0.8
				c0,0,0-0.1,0-0.1c0-0.2,0.1-0.4,0.1-0.6c0.1-0.3,0.2-0.6,0.3-0.9c0-0.1,0.1-0.2,0.1-0.3c0.1-0.3,0.2-0.5,0.3-0.8
				c0.2-0.7,0.5-1.3,0.8-2c0.1-0.3,0.3-0.5,0.4-0.8c0.1-0.1,0.1-0.2,0.2-0.3c0.1-0.3,0.3-0.6,0.5-0.8c0,0,0-0.1,0.1-0.1
				c0.2-0.3,0.4-0.7,0.6-1c0,0,0,0,0,0c0.2-0.3,0.5-0.7,0.7-1c0.1-0.2,0.2-0.3,0.4-0.5c0.1-0.2,0.2-0.3,0.4-0.5
				c0.1-0.2,0.3-0.3,0.4-0.5c0.1-0.2,0.3-0.3,0.4-0.5c0.3-0.3,0.6-0.7,0.9-1c0.3-0.3,0.6-0.6,0.9-0.9c0.2-0.2,0.3-0.4,0.5-0.5
				c0.3-0.3,0.7-0.7,1.1-1c-1.6,4.1-5.1,7.2-6.3,11.5c-0.1,0.4-0.2,0.9-0.3,1.3c-0.1,0.4-0.2,0.9-0.3,1.3c-0.1,0.3-0.1,0.6-0.2,0.9
				c-0.1,0.3-0.1,0.6-0.1,0.8c0,0.1,0,0.2,0,0.3c0,0.2,0,0.3-0.1,0.5c-0.1,0.7-0.2,1.5-0.2,2.2c0,0.3,0,0.5-0.1,0.8
				c0,0.1,0,0.1,0,0.2c-0.1,1.5-0.1,3.1,0.1,4.6C94,237,93.8,236.8,93.7,236.5z M154.9,320.9c-2.6,0.6-1.8-1.9-2.2-3
				c-2.9-8.7-8.4-15.8-13.6-23.1c-2.7-3.9-5.3-8-8.5-11.5c-3.8-4.1-3.4-8.1-1.6-12.7c2.6-6.6,2.5-6.7-4.6-8.8
				c-2.1-0.6-3.2-1.4-3.2-3.8c0.1-1.9-0.2-3.8-0.8-5.7c-0.3-0.9-0.5-1.9-0.6-2.8c0-0.3-0.1-0.6-0.1-0.8s-0.1-0.6-0.1-0.8
				c0-0.1,0-0.1,0-0.2c0-0.4,0-0.8,0-1.1c0-0.1,0-0.3,0-0.4v0c0-0.1,0-0.1,0-0.1c0,0,0-0.1,0-0.1c0-0.2,0.1-0.5,0.1-0.7c0,0,0,0,0,0
				c0-0.2,0.1-0.3,0.1-0.5c0,0,0-0.1,0-0.1c0-0.1,0.1-0.2,0.1-0.4c0,0,0,0,0-0.1s0,0,0-0.1c0-0.1,0-0.1,0.1-0.1c0,0,0,0,0-0.1
				c0-0.1,0.1-0.1,0.1-0.2c0-0.1,0.1-0.1,0.1-0.2c0-0.1,0.1-0.1,0.1-0.2c0-0.1,0.1-0.2,0.1-0.3c0,0,0,0,0,0c0-0.1,0.1-0.2,0.1-0.3
				c0.1-0.1,0.1-0.2,0.2-0.3c0-0.1,0.1-0.1,0.1-0.2c0,0,0,0,0,0c0-0.1,0.1-0.2,0.2-0.3c0.1-0.1,0.2-0.2,0.3-0.3c0,0,0,0,0,0
				c0-0.1,0.1-0.1,0.1-0.2c0.1-0.1,0.2-0.2,0.2-0.2l0,0c0.1-0.1,0.2-0.2,0.3-0.3c0.2-0.2,0.3-0.3,0.5-0.4c0,0,0.1-0.1,0.1-0.1
				c0,0,0.1,0,0.1-0.1c0,0,0,0,0,0c0.1-0.1,0.3-0.2,0.4-0.3c0.2-0.1,0.4-0.3,0.7-0.4c0.5-0.3,1-0.5,1.6-0.8c0.3-0.1,0.6-0.2,0.9-0.4
				c0.4,1,0.7,1.9,1.1,2.8c0.1,0.3,0.2,0.5,0.3,0.8c0.3,0.8,0.7,1.6,1,2.3c0.1,0.2,0.2,0.4,0.2,0.6c0.4,0.9,0.8,1.8,1.2,2.7
				c0.4,0.9,0.8,1.8,1.2,2.6c0.2,0.5,0.5,1,0.7,1.5c0.4,0.8,0.8,1.6,1.1,2.4c0.2,0.4,0.4,0.8,0.6,1.3c0,0.1,0.1,0.2,0.1,0.3
				c0.1,0.1,0.1,0.2,0.2,0.3c0.6,1.2,1.1,2.3,1.7,3.5c0.6,1.3,1.3,2.6,2,3.9c1.6,3.1,3.1,6.1,4.7,9.2c0.4,0.8,0.8,1.6,1.2,2.4
				c0.6,1.3,1.3,2.5,1.9,3.8c1,2.1,2,4.1,3,6.2c0.5,1,1,2.1,1.4,3.1c4.1,9.2,6.3,18.8,7.9,28.6C158.6,319.5,157.1,320.4,154.9,320.9
				z M164.6,278.9c-7.2-6.4-14.6-11.8-21.4-17.8c-1.1-1-2.2-2.1-3.3-3.1c-1.1-1-2-2.2-2.9-3.4c-1.5-2.1-1.6-3.4,1.6-3.4
				c2.6,0,5.1,0.1,7.7,0.8c-2.4-2.9-5.6-3.1-8.8-2.5c-2.4,0.5-3.2-0.5-4.3-2.4c-3.6-6-5.9-11.5-2.5-18.9c2.4-5.1,1.2-11.3,0.2-17
				c-0.5-2.6-1.6-5.3,3-4.5c0.6,0.1,1.2-0.5,1.2-1.7c-4,0.8-6.8-1.4-9.3-4.1c-2.2-2.5-3.8-5.3-3.9-8.8c0-2.9,0.7-5.5,3.6-6.8
				c2.7-1.2,5.4-0.1,7,2c2.8,3.7,5.9,2.8,9,1.2c11.3-5.5,17.1-15.2,19.7-27.1c1.4-6.4,1.3-6.3,6.8-2.9c6.2,3.9,8.3,9.9,8.8,16.7
				c0.2,2.2,0.2,4.4,0,6.5c-0.5,5.3,0.7,10,4.1,14.1c1.8,2.1,1.9,3.9-1,5c-1.8,0.7-2.7,1.8-2.3,3.7c0.7,3.3-1.2,4-4,3.9
				c-2.1-0.1-4.2,0-7.2,0c2.3,2.5,4.4,2.4,6.7,2c0.9-0.2,1.9-0.4,2.5,0.7c0.5,0.9,0.5,1.9-0.2,2.6c-1.2,1.2-1.3,2.5-1.2,4.1
				c0.3,4.9-1.9,7-6.9,6.7c-7.3-0.4-14.4-1.6-20.7-5.7c-0.7-0.5-1.4-1.3-2.9-0.9c3,3.6,6.8,5.5,10.9,6.6c2.4,0.7,3,1.6,2.1,4
				c-1.5,4.3-1.4,8.9-1.3,13.4c0,1.5-0.1,3,1.5,4.3c0.3-2.2-0.8-4.2,0.1-6.5c2.4,2.3,3.7,4.9,4.8,7.7c-1.8,1.1-4.7-0.1-5.4,2.8
				c0.3,0.1,0.6,0.3,0.7,0.3c5.8-2.5,5.9-2.6,7.6,3.4c2,7,0.8,14,0,21.4C164.8,276.6,164.7,277.8,164.6,278.9z M186.3,378.9
				c-2.9,4.3-20.6,6.2-27,2.7C168.7,381.1,177.4,381.4,186.3,378.9z M195.3,323.3c-2.3,3.8-6.8,4.8-10.7,6.3c-2.8,1.1-5.7,1.9-8.5,3
				c-1.6,0.6-3.5,1.1-2.7,3.8c-2.6-4.2-4-8.2-5.2-12.4c-0.6-2.1-0.7-3.7,2.1-4.8c5.5-2,10-5.9,13.7-10.2c0.6-0.6,1.1-1.2,1.7-1.8
				c0.5-0.5,1-0.9,1.5-1.4c0.2-0.2,0.4-0.4,0.7-0.5c0,0,0.1-0.1,0.1-0.1c0,0,0.1-0.1,0.1-0.1c0.2-0.1,0.3-0.3,0.5-0.4c0,0,0,0,0.1,0
				c0.2-0.2,0.4-0.3,0.6-0.5c0.6-0.4,1.2-0.8,1.9-1.2c0.3-0.2,0.6-0.4,1-0.5c0.3-0.2,0.6-0.3,1-0.5c0.7-0.3,1.4-0.6,2.2-0.9
				c0.3-0.1,0.5-0.2,0.8-0.3c0.3-0.1,0.7-0.2,1-0.3c0.3-0.1,0.7-0.2,1-0.3c0.3-0.1,0.6-0.2,0.9-0.2c0.4-0.1,0.7-0.2,1.1-0.2
				c0.4-0.1,0.7-0.1,1.1-0.2c0.3-0.1,0.7-0.1,1.1-0.2c0.1,0,0.2,0,0.3-0.1c0.1,0,0.2,0,0.3,0c0.5-0.1,1-0.1,1.6-0.2
				c0.8-0.1,1.7-0.2,2.5-0.2c0.3,0,0.6-0.1,0.9-0.1c0.1,0,0.2,0,0.4,0c0.1,0,0.1,0,0.2,0c0.3,0,0.7,0,1-0.1c0.1,0,0.2,0,0.3,0
				c0.5,0,0.9-0.1,1.4-0.1c0.4,0,0.7,0,1.1,0c0.9,0,1.8,0,2.7-0.1c0.6,0,1.2,0,1.8,0c2,0,4,0.4,6.1,0.7c0.1,0,0.2,0.4,0.4,0.6
				c-1.1,1.8-2.3-1.4-3.4,0c-0.2,0.9,0.4,1.2,1.1,1.5c1.1,0.5,1.4,1.2,0.5,2.1c-0.6,0.6-0.8,1.4-2.2,0.8c-2.9-1.3-6-2.7-9.7-2
				c2.4,1.6,5.4,1,7.4,2.9c0.7,0.7,2.1,1.2,1.6,2.6c-0.5,1.4-1.8,0.9-2.9,0.8c-0.4-0.1-0.8-0.1-1.3-0.2c-0.2,0-0.5-0.1-0.7-0.1
				c0,0-0.1,0-0.1,0c-0.6-0.1-1.1-0.2-1.7-0.3c0,0-0.1,0-0.1,0c-0.4-0.1-0.8-0.2-1.2-0.3c-0.4-0.1-0.7-0.2-1.1-0.3
				c-0.3-0.1-0.6-0.2-1-0.3h0c-0.3-0.1-0.5-0.2-0.8-0.3c0,0-0.1,0-0.1,0c0,0,0,0-0.1,0s0,0-0.1,0c-0.3-0.1-0.5-0.2-0.8-0.3
				c-0.3-0.1-0.6-0.2-0.9-0.4c-2.3-1.1-4.6-1.5-7.2-0.8c0.2,0,0.5,0.1,0.8,0.1c0,0,0,0,0.1,0c0.1,0,0.2,0,0.3,0.1c0.1,0,0.1,0,0.2,0
				c0.2,0,0.4,0.1,0.6,0.1c0,0,0.1,0,0.1,0c0,0,0,0,0,0c0.3,0.1,0.6,0.1,0.9,0.2c0.3,0.1,0.5,0.1,0.8,0.2c0.4,0.1,0.8,0.3,1.1,0.4
				c0.4,0.1,0.8,0.3,1.1,0.5c0.4,0.2,0.7,0.3,1.1,0.5c0.7,0.3,1.4,0.6,2.1,0.9c0.2,0.1,0.4,0.2,0.7,0.3c0.9,0.4,1.8,0.7,2.8,1
				c0.2,0.1,0.4,0.1,0.6,0.2c0.2,0.1,0.4,0.1,0.5,0.1c0.3,0.1,0.6,0.1,0.9,0.2c0.8,0.1,3.1-0.6,2.1,1.7c-0.1,0.3-0.2,0.6-0.3,0.9
				c0,0.1-0.1,0.2-0.1,0.3c-0.1,0.1-0.1,0.2-0.1,0.4c0,0,0,0.1-0.1,0.1c0,0.1-0.1,0.2-0.1,0.2c0,0.1-0.1,0.2-0.1,0.2
				c0,0.1-0.1,0.1-0.2,0.2c0,0.1-0.1,0.1-0.2,0.2c-0.1,0.1-0.1,0.1-0.2,0.2c0,0-0.1,0.1-0.1,0.1c0,0,0,0-0.1,0
				c-0.1,0-0.1,0.1-0.2,0.1h0c-0.1,0-0.2,0.1-0.3,0.1c-0.1,0-0.2,0-0.3,0c-0.4,0-0.8-0.1-1.3-0.4c-2.7-1.4-5.5-2.3-8.5-2.8
				c-1.2-0.2-3.3-0.7-3.5,1c-0.2,1.7,1.8,0.9,2.9,1.1c2.5,0.3,4.9,0.7,7,2c0.7,0.4,1.6,0.7,1.4,1.8c-0.2,1.2-1.3,1.2-2.2,1.2
				c-0.9,0-1.9,0-2.9,0C201.1,317.9,197.8,319.3,195.3,323.3z M196.3,339.4c0.4-4.2,4.1-6.4,5.8-9.8c-1.3,1-2.5,2-4.3,3.3
				c-0.2-2.8-0.6-5.2-0.4-7.7c0.4-3.8,4.6-6.2,8.6-5.3c2.2,0.5,1.2,1.5,0.6,2.5c-1.5,2.2-3.5,4.2-4.3,6.8c0.3-0.3,0.6-0.6,0.9-0.9
				c0.3-0.3,0.6-0.6,0.9-0.9c0.2-0.3,0.5-0.5,0.7-0.8c0.2-0.2,0.5-0.5,0.7-0.8c0.1-0.1,0.1-0.1,0.2-0.2c0.6-0.6,1.1-1.2,1.6-1.9
				c0.6-0.7,1.2-1.4,1.8-2.1c0.6-0.7,1.2-1.4,1.7-2.2c0.6-0.7,1.1-1.5,1.7-2.2c0.5-0.6,1-1.3,1.5-1.9c0-0.1,0.1-0.1,0.1-0.2
				c0.5-0.7,1.1-1.4,1.6-2.1c0.1-0.1,0.2-0.2,0.3-0.4c0.5-0.6,1-1.3,1.6-1.9c0.5-0.6,1-1.3,1.6-1.9c10.4-12.1,20.6-24.3,31.5-35.9
				c-1.5,1.9-2.9,3.9-4.4,5.8c-0.6,0.8-1.2,1.6-1.8,2.4c-0.6,0.8-1.2,1.6-1.8,2.4c-0.7,0.9-1.4,1.8-2,2.6c-0.7,0.9-1.4,1.7-2.1,2.6
				c-0.6,0.7-1.1,1.4-1.7,2.1c-0.5,0.7-1.1,1.4-1.7,2.1c-1.8,2.3-3.7,4.6-5.5,6.8c-1.1,1.3-2.2,2.7-3.3,4c0,0,0,0.1-0.1,0.1
				c-1.1,1.3-2.2,2.6-3.3,3.9c-1.6,1.9-3.2,3.8-4.7,5.7c-0.3,0.3-0.6,0.7-0.8,1c-0.8,0.9-1.6,1.9-2.4,2.8c-1.4,1.7-2.9,3.4-4.3,5.1
				c-1.7,2-3.4,4-5.1,6c-1.3,1.6-2.7,3.2-4.1,4.7C199.9,335.3,198.1,337.4,196.3,339.4z M236,346c-1.2-1.3,1.2-1.4,0.2-2.6
				c-0.4,0.2-1,0.3-1.6,0.7c-7.1,4.2-14.7,7-22.8,8.4c-1.6,0.3-3.2,0.4-4.9,0.3c-6-0.1-9.5-4.6-8.3-10.4c0.3-1.5,1.4-1,2.2-1
				c12.1-0.2,24.2-0.3,36.3-0.2c3,0,5.9,0.2,9.9-1.3C243.9,344.7,239.6,344.7,236,346z M248.1,337.9c-0.3,0-0.6,0-0.8,0
				c-0.2,0-0.4,0-0.6,0c-0.1,0-0.1,0-0.1,0c-0.1,0-0.2,0-0.2,0c-0.1,0-0.3,0-0.4,0c-0.1,0-0.3,0-0.4,0.1c-0.1,0-0.1,0-0.2,0
				c0,0-0.1,0-0.1,0c-0.2,0-0.3,0.1-0.5,0.1c-0.6,0.1-1.2,0.4-1.8,0.6c-0.2,0.1-0.3,0.2-0.5,0.2c-0.3,0.1-0.6,0.3-0.9,0.5
				c-0.1,0.1-0.2,0.2-0.4,0.2c-0.1,0.1-0.3,0.2-0.4,0.3c1-1.2,1.9-2.3,2.9-3.5c1.1-1.3,2.2-2.7,3.4-4c0.5-0.5,1-0.5,1.6,0.2
				c1.6,2.1,1.8,2.1,4.1,2.4C251.5,337.1,249.5,338,248.1,337.9z M268.1,316.5c-2.2,6.4-5.1,12.4-11.1,16.4c-2.3,1.5-5,1.5-6.2-0.4
				c-2.5-4-6.3-6.4-9.5-9.4c-0.8-0.8-2.7-1.7-1.4-3.2c1.2-1.4,2.1,0.3,3.1,0.8c2.9,1.8,5.8,3.6,8.7,5.4c0.7,0.4,1.5,0.8,2.6-0.3
				c-3.6-3.5-8.5-5.1-12.4-8.1c-0.9-0.7-2.5-0.1-1.5-2.1c0.7-1.3,1.2-2.3,3.1-1.3c4.1,2.3,8.4,4.5,12.6,6.7c0.6,0.3,1.2,0.4,1.8,0.6
				c0.6-2.1-1.1-2.2-2-2.7c-3.5-2.2-7-4.2-10.5-6.3c-0.7-0.4-2-0.9-1.4-2.1c0.5-1,1.5-1.1,2.5-1.1c1.5-0.1,2.6,0.8,3.8,1.4
				c4,2.2,8,4.6,12.7,6.3c-1.3-2.5-1.3-2.5-6.9-6.2c-1.5-1-4.7-1.7-3.4-4.1c1.4-2.6,3.6-0.1,5.3,0.6c2.6,1.1,5.1,2.5,7.7,3.7
				C268,312.2,268.8,314.5,268.1,316.5z M283.5,273.4c1.1-2.8-0.8-3-2.5-3c-3.4,0-6.8,0.1-10.2,0.1c-0.7,0-1.7,0.5-1.9-0.8
				c-0.2-1.2,0.5-1.9,1.6-2c4.2-0.1,8.5-0.7,12.6,0C285.3,268.2,285.2,271.1,283.5,273.4z"/>
			<path d="M107.5,268.4c-0.6-7-8.2-13.4-14.2-12.3C100,257.8,103.5,263.4,107.5,268.4z"/>
			<path d="M157.3,344.7c2.4,0.2,2.5-1.6,2.9-3.5c0-0.8,0.2-2.3-1.6-2.3c-1.9,0-3.4,0.9-3.8,2.9
				C154.5,343.6,155.4,344.5,157.3,344.7z"/>
			<path d="M152.8,365.5c-2.8,0.6-2.9,2.8-2.8,5c0,1.1,0,3.3,1.4,2.5c1.7-1,3.8-2.6,4-5C155.5,366.5,154.3,365.6,152.8,365.5z"/>
			<path d="M167.3,184.1c-1.8-0.1-3.3,1.1-3.2,2.8c0,1.5,0.9,3.4,2.7,3.6c1.9,0.3,2.2-1.5,2.6-3
				C168.9,186.2,169.3,184.2,167.3,184.1z"/>
			<path d="M168.7,180.3c0.9,0.3,1.6-0.2,1.8-1.1c0.1-0.7-0.4-1.2-1-1.5c-2.7-1.3-7.5,0-10.1,3.2c2.1-0.4,3.5-0.8,4.9-1
				C165.8,179.7,167.3,179.8,168.7,180.3z"/>
			<path d="M192.8,257.7c0,4.6,0,9.2,0,13.8c0.4,0,0.7,0,1.1,0C194.4,266.9,194.3,262.3,192.8,257.7z"/>
		</g>
	</g>
</g>
</svg>
