<?xml version="1.0" encoding="utf-8"?>
<!-- Generator: Adobe Illustrator 24.3.0, SVG Export Plug-In . SVG Version: 6.00 Build 0)  -->
<svg version="1.1" id="Layer_1" xmlns="http://www.w3.org/2000/svg" xmlns:xlink="http://www.w3.org/1999/xlink" x="0px" y="0px"
	 width="170.6px" height="168px" viewBox="0 0 170.6 168" style="enable-background:new 0 0 170.6 168;" xml:space="preserve">
<style type="text/css">
	.st0{fill:#00B0FB;}
	.st1{fill:#00B0FB;fill-opacity:0.4;}
	.st2{fill:#FFFFFF;}
	.st3{fill:none;}
	.st4{fill:#001135;}
	.st5{fill:#3C7CFF;}
	.st6{fill:#3C7CFF;stroke:#001135;stroke-width:0.7602;stroke-miterlimit:10;}
	.st7{fill:#DBDBDB;}
	.st8{fill:#B9B9B9;}
	.st9{fill:#080808;}
	.st10{fill:#060606;}
	.st11{fill:#070707;}
	.st12{fill:#121212;}
	.st13{fill:#111111;}
	.st14{fill:#090909;}
	.st15{fill:#FDFDFD;}
	.st16{fill:#F9F9F9;}
	.st17{fill:#F3F2F3;}
	.st18{fill:#FAFAFA;}
	.st19{fill:#0A0A0A;}
	.st20{fill:#EEEEEE;}
	.st21{fill:#0D0D0D;}
	.st22{fill:#0C0C0C;}
	.st23{fill:#0E0E0E;}
	.st24{fill:#050505;}
	.st25{fill:#3A3A3A;}
	.st26{fill:#525252;}
	.st27{fill:#474747;}
	.st28{fill:#1E1E1E;}
	.st29{fill:#1D1D1D;}
	.st30{fill:#222222;}
	.st31{fill:#494949;}
	.st32{fill:#585858;}
	.st33{fill:#EDEDED;}
	.st34{fill:#F0F0F0;}
	.st35{fill:#EAEAEA;}
	.st36{fill:#EAE9EA;}
	.st37{fill:#040404;}
	.st38{fill:#F4F3F4;}
	.st39{fill:#030303;}
	.st40{fill:#E8E8E8;}
	.st41{fill:#0C0C0B;}
	.st42{fill:#0D0D0C;}
	.st43{fill:#919191;}
	.st44{fill:#909090;}
	.st45{fill:#0E0E0D;}
	.st46{fill:#0C0D0C;}
	.st47{fill:#090908;}
	.st48{fill:#141414;}
	.st49{fill:#4C4D4D;}
	.st50{fill:#737474;}
	.st51{fill:#242424;}
	.st52{fill:#202020;}
	.st53{fill:#101010;}
	.st54{fill:#0D0E0D;}
	.st55{fill:#111212;}
	.st56{fill:#0B0B0B;}
	.st57{fill:#0D0C0C;}
	.st58{fill:#E7E7E7;}
	.st59{fill:#272727;}
	.st60{fill:#2E2E2E;}
	.st61{fill:#1F1E1E;}
	.st62{fill:#1B1A1A;}
	.st63{fill:#E6E6E6;}
	.st64{fill:#0F0E0E;}
	.st65{fill:#F2F2F2;}
	.st66{fill:#F4F3F3;}
	.st67{fill:#F9F8F8;}
	.st68{fill:#F1F1F0;}
	.st69{fill:#F6F6F6;}
	.st70{fill:#F5F6F6;}
	.st71{fill:#F5F5F5;}
	.st72{fill:#2C2C2C;}
	.st73{fill:#252625;}
	.st74{fill:#303030;}
	.st75{fill:#2D2D2C;}
	.st76{fill:#2D2D2D;}
	.st77{fill:#262727;}
	.st78{fill:#191919;}
	.st79{fill:#1B1B1B;}
	.st80{fill:#F7F7F7;}
	.st81{fill:#F6F7F7;}
	.st82{fill:#F9F9FA;}
	.st83{fill:#F4F4F4;}
	.st84{fill:#F8F8F8;}
	.st85{fill:#FCFCFC;}
	.st86{fill:#FBFBFB;}
	.st87{fill:#E2E1E2;}
	.st88{fill:#D8D7D8;}
	.st89{fill:#0F0F0F;}
	.st90{fill:#161616;}
	.st91{fill:#181818;}
	.st92{fill:#131313;}
	.st93{fill-rule:evenodd;clip-rule:evenodd;fill:#00B0FB;}
	.st94{fill:#030302;}
	.st95{fill:#D2D3D3;}
	.st96{fill:#1F1F1F;}
	.st97{fill:#0E0D0E;}
	.st98{fill:#BABBBB;}
	.st99{fill:#8A8A8A;}
	.st100{fill:#8E8F8F;}
	.st101{fill:#464746;}
	.st102{fill:#5F5E5E;}
	.st103{fill:#151414;}
	.st104{fill:#282828;}
	.st105{fill:#030202;}
	.st106{fill:#040403;}
	.st107{fill:#040303;}
	.st108{fill:#202021;}
	.st109{fill:#020202;}
	.st110{fill:#050506;}
</style>
<g>
	<g>
		<path class="st3" d="M143.6,39.8c0,0.6-0.2,1.1-0.5,1.6C143.4,40.9,143.6,40.4,143.6,39.8l0-7h0V39.8z"/>
		<path class="st3" d="M79.7,121.9c-1.1-0.1-2.1-0.3-3-0.4c-0.4-0.1-0.9-0.1-1.3-0.1c0,0,0,0,0,0c0.4,0,0.9,0,1.3,0.1
			C77.6,121.7,78.7,121.8,79.7,121.9c4.1,0.5,8.5,1.1,12.5,1.5c0.5,0.1,1,0.1,1.4,0.1c0,0,0,0,0,0c-0.5,0-0.9,0-1.4-0.1
			C88.3,123,83.8,122.5,79.7,121.9z"/>
		<path class="st3" d="M130.9,27.1h7v0L130.9,27.1c-1.4,0-2.5,1-2.8,2.3C128.3,28.1,129.5,27.1,130.9,27.1z"/>
		<path class="st3" d="M150.5,27.1h-7v-7c0-1.6-1.3-2.9-2.9-2.9c-1.2,0-2.2,0.7-2.6,1.8c0.4-1,1.5-1.8,2.6-1.8
			c1.6,0,2.9,1.3,2.9,2.9v7L150.5,27.1c1.6,0,2.9,1.3,2.9,2.9c0,0.8-0.3,1.5-0.8,2c0.5-0.5,0.8-1.2,0.8-2
			C153.4,28.4,152.1,27.1,150.5,27.1z"/>
		<path class="st3" d="M153.9,56.8c-4,2-8.5,3.1-13.3,3.1c-14.1,0-26.1-9.8-29.2-23.1c-4.9,2-9.6,5.1-13.5,8.9l-2.8,2.7
			c-1.4,1.4-2.6,2-3.8,2c-1.2,0-2.4-0.7-3.8-2l-2.7-2.7c-7-6.9-15.9-11-24.7-11.6c-7.4,0.4-14,3.4-19,8.7c-1.8,2-4.3,5.2-6.8,10.1
			c-7.2,15.2-4.6,34.1,6.7,46.2l7.6,7.8l3-0.5c2.9-0.5,5.5-1,7.9-1.4c5.9-1.1,10.5-1.9,15.2-1.9c2.3,0,4.6,0.2,6.9,0.6l13.7,2.5
			c0.1,0,0.2,0.1,0.3,0.1c8.6,2.7,11.3,9.3,10.3,14.2c-0.8,4-4.5,8.6-12.3,8.6c-0.7,0-1.4,0-2.1-0.1c-4.2-0.4-8.9-1-12.7-1.5
			l-3.1-0.4c-0.2,0-0.4,0-0.5,0c-1.9,0-2.5,2-2.5,2.2c-0.2,0.8-0.3,2.7,2.2,3.6l21.2,3.9c1.9,0.3,3.1,0.4,4.1,0.4
			c1.4,0,2.6-0.2,4.8-0.7l4.8-0.9l35.6-36.5C155.9,88.1,159.2,71.5,153.9,56.8z M136.3,81.1h-19.1l-7.9,13.3
			c-0.5,0.9-1.5,1.4-2.5,1.4c0,0-0.1,0-0.1,0c-1,0-2-0.6-2.5-1.5L91.8,71.4l-9.2,16.1c-0.2,0.4-0.6,0.8-1,1c-0.5,0.3-1,0.4-1.5,0.4
			c-1,0-1.9-0.5-2.4-1.3L72,78.8l-4.2,6.9c-0.5,0.9-1.5,1.4-2.4,1.4H49.9c-1.6,0-2.9-1.3-2.9-2.9c0-1.6,1.3-2.9,2.9-2.9h13.9
			l5.7-9.5c0.5-0.9,1.4-1.4,2.4-1.4c1,0,1.9,0.5,2.5,1.3l5.5,8.8l9.4-16.4c0.5-0.9,1.5-1.5,2.5-1.5c1.1,0,2,0.6,2.5,1.5L107,87.1
			l6.2-10.4c0.5-0.9,1.5-1.4,2.5-1.4h20.7c1.6,0,2.9,1.3,2.9,2.9C139.2,79.8,137.9,81.1,136.3,81.1z"/>
		<rect x="5.7" y="112.3" class="st3" width="17.3" height="40"/>
		<path class="st3" d="M106.9,142.1c-1.1,0.2-2.4,0.5-2.8,0.5c-1.4,0.3-2.4,0.4-3.6,0.4c0,0,0,0,0,0c1.1,0,2.2-0.1,3.6-0.4
			C104.5,142.6,105.8,142.3,106.9,142.1l5.8-1.1c22.2-4.4,22.3-4.4,22.3-4.4c2.1-0.7,3.9-1,5.6-1c0,0,0,0,0,0c-1.6,0-3.5,0.3-5.6,1
			c0,0-0.1,0-22.3,4.4L106.9,142.1z"/>
		<path class="st3" d="M28.8,148.4v-32.4l23.8-3.9c2.8-0.5,5.4-0.9,7.6-1.3l0.3-0.1c5.8-1,10-1.8,14.1-1.8c0,0,0,0,0,0
			c-4.1,0-8.3,0.8-14.1,1.8l-0.3,0.1c-2.3,0.4-4.8,0.9-7.6,1.3l-23.8,3.9L28.8,148.4l44.1,12c4.1,1.3,7.4,1.9,10.5,1.9c0,0,0,0,0,0
			c-3.1,0-6.4-0.6-10.5-1.9L28.8,148.4z"/>
		<path class="st0" d="M32.4,53c2.5-4.9,5-8.1,6.8-10.1c5-5.4,11.6-8.3,19-8.7c-0.7,0-1.4-0.1-2.2-0.1c-0.2,0-0.4,0-0.7,0
			c-7.8,0.2-14.7,3.2-20,8.8c-1.8,2-4.3,5.2-6.8,10.1c-7.2,15.2-4.6,34.1,6.7,46.2l8.1,8.3l3.3-0.5l-7.6-7.8
			C27.8,87.1,25.1,68.3,32.4,53z"/>
		<path class="st0" d="M140.6,4.7c-6.7,0-12.8,2.6-17.4,6.9h0c-1.6,1.5-3,3.2-4.1,5.1c-2.4,3.9-3.8,8.4-3.8,13.3
			c0,13.9,11.3,25.3,25.3,25.3c13.9,0,25.3-11.3,25.3-25.3C165.8,16,154.5,4.7,140.6,4.7z M152.6,32c-0.2,0.2-0.4,0.4-0.7,0.5
			c-0.1,0-0.2,0.1-0.3,0.1v0c0,0,0,0-0.1,0c-0.1,0-0.1,0.1-0.2,0.1c0,0,0,0-0.1,0c-0.1,0-0.1,0-0.2,0c-0.1,0-0.1,0-0.2,0
			c0,0,0,0,0,0h-0.1c-0.1,0-0.1,0-0.2,0c-0.1,0-0.1,0-0.2,0h-7v7c0,0.6-0.2,1.1-0.5,1.6c-0.1,0.1-0.1,0.2-0.2,0.3c0,0,0,0,0,0
			c-0.1,0.1-0.2,0.2-0.2,0.2c-0.1,0.1-0.2,0.1-0.3,0.2c-0.1,0.1-0.2,0.1-0.3,0.2v0c-0.1,0-0.1,0.1-0.2,0.1c0,0-0.1,0-0.1,0v0
			c-0.1,0-0.2,0.1-0.3,0.1c0,0-0.1,0-0.1,0c0,0,0,0,0,0c-0.1,0-0.1,0-0.2,0h0c-0.1,0-0.2,0-0.4,0c-0.1,0-0.1,0-0.1,0
			c-0.1,0-0.1,0-0.2,0c-0.2,0-0.4-0.1-0.5-0.1v0c0,0-0.1,0-0.1,0c-0.1,0-0.1-0.1-0.2-0.1v0c0,0-0.1,0-0.1,0c-0.1,0-0.1-0.1-0.2-0.1
			v0c0,0-0.1,0-0.1,0c0,0-0.1,0-0.1-0.1c0,0-0.1,0-0.1,0v0c0,0-0.1-0.1-0.1-0.1c-0.1-0.1-0.2-0.2-0.3-0.3c-0.5-0.5-0.8-1.2-0.8-2
			v-6.9h-7c-0.1,0-0.1,0-0.1,0h-0.1c0,0-0.1,0-0.1,0c-0.1,0-0.1,0-0.1,0c-0.1,0-0.3-0.1-0.4-0.1v0c0,0-0.1,0-0.1,0
			c-0.1,0-0.1-0.1-0.2-0.1v0c0,0-0.1,0-0.1,0c-0.1,0-0.1-0.1-0.2-0.1v0c0,0-0.1,0-0.1,0c0,0-0.1,0-0.1-0.1s-0.1,0-0.1,0v0
			c0,0-0.1-0.1-0.1-0.1c-0.1-0.1-0.2-0.2-0.3-0.3c-0.5-0.5-0.8-1.2-0.8-2c0-0.1,0-0.2,0-0.3c0,0,0,0,0,0c0-0.1,0-0.2,0.1-0.3
			c0-0.1,0.1-0.2,0.1-0.3c0,0,0-0.1,0-0.1c0-0.1,0.1-0.1,0.1-0.2c0.1-0.3,0.2-0.5,0.4-0.7c0.1-0.1,0.2-0.2,0.3-0.3
			c0.5-0.4,1.1-0.7,1.8-0.7h7v-6.9c0-0.1,0-0.2,0-0.3v0c0-0.1,0-0.2,0.1-0.3c0-0.2,0.1-0.4,0.2-0.5c0.2-0.5,0.6-1,1-1.3
			c0.5-0.3,1-0.5,1.6-0.5c0.2,0,0.4,0,0.6,0.1v0h0c0.1,0,0.2,0,0.2,0.1c0,0,0,0,0.1,0c0.1,0,0.1,0.1,0.2,0.1v0c0,0,0,0,0,0
			c0,0,0,0,0,0h0c0,0,0,0,0,0c0,0,0.1,0,0.1,0c0,0,0.1,0.1,0.1,0.1c0.1,0.1,0.2,0.1,0.3,0.2h0c0.1,0.1,0.1,0.1,0.2,0.1
			c0.1,0.1,0.1,0.1,0.2,0.2c0.5,0.5,0.8,1.2,0.8,2v6.9h7c0.2,0,0.4,0,0.6,0.1v0h0c0.1,0,0.2,0,0.2,0.1c0,0,0,0,0.1,0l0.2,0.1v0
			c0,0,0,0,0,0c0,0,0,0,0,0h0c0,0,0,0,0,0c0,0,0.1,0,0.1,0c0,0,0.1,0.1,0.1,0.1c0.1,0.1,0.2,0.1,0.3,0.2h0c0.1,0.1,0.1,0.1,0.2,0.1
			c0.1,0.1,0.1,0.1,0.2,0.2c0.5,0.5,0.8,1.2,0.8,2C153.4,30.8,153.1,31.5,152.6,32z"/>
		<path class="st1" d="M112.7,141l-5.8,1.1c-1.1,0.2-2.4,0.5-2.8,0.5c-1.4,0.3-2.4,0.4-3.6,0.4c0,0,0,0,0,0c0,0,0,0,0,0
			c-1.3,0-2.9-0.2-5.1-0.5L75,138.8c-0.6-0.1-1.4-0.3-1.5-0.3c-3.8-1.2-6.2-4.1-6.4-7.8c-0.1-0.9,0-1.7,0.2-2.6
			c0.8-3.2,3.6-6.7,8.1-6.7c0,0,0,0,0,0c0,0,0,0,0,0c0.4,0,0.9,0,1.3,0.1c0.9,0.1,2,0.2,3,0.4c4.1,0.5,8.5,1.1,12.5,1.5
			c0.5,0.1,1,0.1,1.4,0.1c3.6,0,6.2-1.5,6.7-4c0.5-2.5-1.2-5.9-6.3-7.6l-13.5-2.5c-2-0.4-3.9-0.5-5.9-0.5c-4.1,0-8.3,0.8-14.1,1.8
			l-0.3,0.1c-2.3,0.4-4.8,0.9-7.6,1.3l-23.8,3.9v32.4l44.1,12c4.1,1.3,7.4,1.9,10.5,1.9c4.7,0,8.9-1.4,14.7-3.2l42.4-13.6
			c2.9-0.9,4.9-2.8,5.4-5.1c0.3-1.4-0.1-2.6-1-3.4c-0.9-0.8-2.4-1.3-4.2-1.3c-1.6,0-3.5,0.3-5.6,1C135,136.6,134.9,136.6,112.7,141z
			"/>
		<path class="st2" d="M150.5,27.1h-7v-7c0-1.6-1.3-2.9-2.9-2.9c-1.2,0-2.2,0.7-2.6,1.8c-0.1,0.3-0.2,0.7-0.2,1.1v7h0v0h-7
			c-1.4,0-2.5,1-2.8,2.3c0,0.2-0.1,0.4-0.1,0.6c0,1.6,1.3,2.9,2.9,2.9h7v7c0,1.6,1.3,2.9,2.9,2.9c1,0,1.9-0.5,2.4-1.3
			c0.3-0.5,0.5-1,0.5-1.6v-7h0v0h7c0.8,0,1.5-0.3,2-0.9c0.5-0.5,0.8-1.2,0.8-2C153.4,28.4,152.1,27.1,150.5,27.1z"/>
		<path class="st2" d="M140.7,42.7c-1.6,0-2.9-1.3-2.9-2.9v-7h-7c-1.6,0-2.9-1.3-2.9-2.9c0-0.2,0-0.4,0.1-0.6c0,0.2-0.1,0.4-0.1,0.6
			c0,1.6,1.3,2.9,2.9,2.9h7v7C137.8,41.4,139.1,42.7,140.7,42.7c1,0,1.9-0.5,2.4-1.3C142.6,42.2,141.7,42.7,140.7,42.7z"/>
		<path class="st2" d="M150.5,32.8h-7v0L150.5,32.8c0.8,0,1.5-0.3,2-0.9C152,32.5,151.3,32.8,150.5,32.8z"/>
		<path class="st2" d="M137.8,20.2c0-0.4,0.1-0.8,0.2-1.1C137.9,19.4,137.8,19.8,137.8,20.2l0,7h0V20.2z"/>
		<path class="st2" d="M136.3,75.4h-20.7c-1,0-2,0.5-2.5,1.4L107,87.1L94.4,64.2c-0.5-0.9-1.5-1.5-2.5-1.5c-1,0-2,0.6-2.5,1.5
			L80,80.6l-5.5-8.8c-0.5-0.8-1.4-1.3-2.5-1.3c-1,0-1.9,0.5-2.4,1.4l-5.7,9.5H49.9c-1.6,0-2.9,1.3-2.9,2.9c0,1.6,1.3,2.9,2.9,2.9
			h15.5c1,0,1.9-0.5,2.4-1.4l4.2-6.9l5.6,8.9c0.5,0.8,1.4,1.3,2.4,1.3c0.5,0,1.1-0.2,1.5-0.4c0.4-0.3,0.7-0.6,1-1l9.2-16.1
			l12.5,22.8c0.5,0.9,1.4,1.5,2.5,1.5c0,0,0,0,0.1,0c1,0,1.9-0.5,2.5-1.4l7.9-13.3h19.1c1.6,0,2.9-1.3,2.9-2.9
			C139.2,76.7,137.9,75.4,136.3,75.4z"/>
		<path class="st2" d="M167.6,17c-0.4-0.9-0.9-1.7-1.4-2.5c-0.5-0.8-1-1.7-1.6-2.4c-0.6-0.8-1.1-1.5-1.8-2.2c0,0,0,0,0-0.1
			c-5.5-6-13.4-9.8-22.2-9.8c-16.5,0-30,13.4-30,30c0,0.3,0,0.7,0,1c-6.1,2.3-11.9,6-16.7,10.7l-2.5,2.4c0-0.1-5.6-5.1-6.2-5.5
			c-2.2-1.7-4.5-3.3-6.9-4.7c-4.9-2.8-10.3-4.6-15.9-5.1c-10.5-1-20.9,2.8-28.5,10c-0.7,0.7-1.5,1.4-2.1,2.2
			c-0.7,0.7-1.3,1.4-1.9,2.2c-7.4,9.5-10.4,22.3-8.6,34.2c1.6,10.9,7.1,21,14.7,28.9c0.7,0.7,1.5,1.4,2.2,2.2
			c-0.8,0.5-9.4,1.3-9.4,1.6c-0.1-2.1-1.9-3.7-4.2-3.7H4.1c-2.3,0-4.1,1.7-4.1,3.9v43.8c0,2.1,1.9,3.9,4.1,3.9h20.5
			c2.2,0,4-1.6,4.2-3.7l42.5,11.6c4.6,1.4,8.4,2.1,12.1,2.1c5.5,0,10.3-1.5,16.4-3.5l42.4-13.6c4.8-1.6,8.3-5.1,9.2-9.4
			c0.7-3.4-0.3-6.7-2.7-8.9c-1.4-1.3-3.9-2.8-8.1-2.8c-2.2,0-4.6,0.4-7.1,1.2l-13.6,2.6l29.9-30.6c12.2-13,15.8-32.4,9.1-49.4
			c0.9-0.7,1.8-1.5,2.6-2.3c0.4-0.4,0.8-0.8,1.2-1.2c0.7-0.7,1.3-1.5,1.9-2.3c0.3-0.4,0.6-0.8,0.8-1.1c0.3-0.4,0.5-0.8,0.8-1.2
			c0.3-0.4,0.5-0.8,0.7-1.3c0.9-1.7,1.7-3.5,2.3-5.4c0.1-0.4,0.2-0.8,0.3-1.2c0-0.1,0.1-0.3,0.1-0.4c0.1-0.4,0.2-0.8,0.3-1.2
			c0-0.1,0-0.1,0-0.1c0.1-0.4,0.2-0.9,0.2-1.3c0-0.1,0-0.2,0.1-0.3c0.1-0.4,0.1-0.7,0.1-1.1c0.1-0.5,0.1-1,0.1-1.5
			c0-0.6,0.1-1.1,0.1-1.7C170.6,25.3,169.5,20.9,167.6,17z M23,152.3H5.7v-40H23V152.3z M135,136.6c2.1-0.7,3.9-1,5.6-1
			c1.8,0,3.3,0.4,4.2,1.3c0.7,0.6,1.1,1.5,1.1,2.5c0,0.3,0,0.6-0.1,0.9c-0.5,2.3-2.5,4.2-5.4,5.1L98,159c-2.9,0.9-5.4,1.7-7.8,2.3
			c-2.3,0.6-4.6,0.9-6.9,0.9c-3.1,0-6.4-0.6-10.5-1.9l-44.1-12V116l23.8-3.9c2.8-0.5,5.4-0.9,7.6-1.3l0.3-0.1c5.8-1,10-1.8,14.1-1.8
			c2,0,3.9,0.2,5.9,0.5l13.5,2.5c0.7,0.2,1.4,0.5,2,0.8c0.2,0.1,0.4,0.2,0.6,0.3c0.1,0.1,0.2,0.1,0.3,0.2c0,0,0.1,0.1,0.1,0.1
			c0.2,0.1,0.3,0.2,0.4,0.3c0,0,0,0,0,0c0.4,0.3,0.7,0.5,1,0.8c0.1,0.2,0.3,0.3,0.4,0.4c0.1,0.2,0.3,0.3,0.4,0.5
			c0.1,0.1,0.1,0.1,0.1,0.2c0.1,0.1,0.1,0.2,0.2,0.3c0,0,0,0,0,0c0.2,0.3,0.3,0.6,0.4,0.9c0.1,0.1,0.1,0.2,0.1,0.3
			c0,0.1,0,0.1,0.1,0.2c0.1,0.2,0.1,0.3,0.1,0.5c0,0.1,0,0.1,0,0.1c0,0,0,0.1,0,0.1c0,0.1,0,0.1,0,0.2c0,0.2,0,0.3,0,0.5
			c0,0.3,0,0.6-0.1,0.9c-0.3,1.2-1,2.3-2.2,2.9c-1.2,0.7-2.7,1.1-4.5,1.1c-0.5,0-0.9,0-1.4-0.1c-3.9-0.4-8.4-1-12.5-1.5
			c-1.1-0.1-2.1-0.3-3-0.4c-0.4-0.1-0.9-0.1-1.3-0.1c-2.2,0-4.1,0.9-5.4,2.1c-1.4,1.3-2.3,2.9-2.6,4.5c-0.2,0.6-0.2,1.3-0.2,2
			c0,0.2,0,0.4,0,0.6c0,0.2,0,0.4,0.1,0.5c0,0.2,0,0.3,0.1,0.5c0,0,0,0,0,0.1c0,0.1,0,0.2,0.1,0.3c0.1,0.4,0.2,0.8,0.3,1.1
			c0,0,0,0,0,0c0.1,0.2,0.2,0.5,0.3,0.7c0,0.1,0.1,0.1,0.1,0.2c0,0.1,0.1,0.2,0.1,0.2c0.1,0.2,0.2,0.4,0.4,0.6
			c0.1,0.1,0.1,0.2,0.2,0.3c0.1,0.1,0.1,0.2,0.2,0.3c0,0,0,0.1,0.1,0.1c0,0,0,0,0,0c0,0,0,0,0,0c0.1,0.1,0.2,0.3,0.3,0.4
			c0,0,0,0.1,0.1,0.1c0,0,0.1,0.1,0.1,0.1c0.1,0.1,0.2,0.2,0.3,0.3c0,0,0,0,0.1,0.1c0.1,0.1,0.3,0.3,0.4,0.4
			c0.1,0.1,0.3,0.2,0.4,0.3c0.2,0.1,0.3,0.2,0.5,0.3c0.2,0.1,0.3,0.2,0.5,0.3c0,0,0,0,0,0c0,0,0,0,0,0c0.1,0.1,0.3,0.1,0.4,0.2
			c0.1,0,0.1,0.1,0.2,0.1c0.1,0,0.1,0.1,0.2,0.1c0.1,0,0.2,0.1,0.3,0.1c0.2,0.1,0.5,0.2,0.7,0.3c0.1,0,0.9,0.2,1.5,0.3l20.4,3.7
			c2.2,0.3,3.8,0.5,5.1,0.5c1.1,0,2.2-0.1,3.6-0.4c0.4-0.1,1.7-0.3,2.8-0.5l5.8-1.1C134.9,136.6,135,136.6,135,136.6z M145.6,99.2
			L110,135.7l-4.8,0.9c-2.1,0.4-3.3,0.7-4.8,0.7c-1,0-2.2-0.1-4.1-0.4L75.1,133c-2.5-0.9-2.4-2.8-2.2-3.6c0.1-0.2,0.6-2.2,2.5-2.2
			c0.1,0,0.3,0,0.5,0l3.1,0.4c3.8,0.5,8.5,1.1,12.7,1.5c0.7,0.1,1.4,0.1,2.1,0.1c7.8,0,11.5-4.6,12.3-8.6c1-4.9-1.8-11.5-10.3-14.2
			c-0.1,0-0.2-0.1-0.3-0.1l-13.7-2.5c-2.3-0.4-4.6-0.6-6.9-0.6c-4.7,0-9.3,0.8-15.2,1.9c-2.3,0.4-4.9,0.9-7.9,1.4l-3,0.5l0.5,0.5
			l6.3-1c2.9-0.5,5.5-1,7.9-1.4c1.5-0.3,2.9-0.5,4.2-0.7v3.2h-1v2.1H55.4v0.5h-2.3v1.1H41.2v1.2h-6.8v-2.6c2.6-0.4,7.1-0.9,7.7-1.3
			c-0.6-0.8-1.5-1.4-2.2-2.2c-7.6-7.9-13.1-18-14.7-28.9c-1.8-12,1.1-24.7,8.6-34.2c0.6-0.8,1.2-1.5,1.9-2.2
			c0.7-0.8,1.4-1.5,2.1-2.2c5.8-5.5,13.3-9,21.1-9.9v1.6h1.4v3.4h3.2v0.3c-0.5,0-1.1-0.1-1.6-0.1c-0.2,0-0.4,0-0.7,0
			c-0.3,0-0.7,0.1-1,0.1C69.1,34.8,78,39,84.9,45.8l2.7,2.7c1.4,1.4,2.6,2,3.8,2c1.2,0,2.3-0.6,3.8-2l2.8-2.7
			c3.9-3.8,8.5-6.9,13.5-8.9c3.1,13.2,15,23.1,29.2,23.1c4.8,0,9.3-1.1,13.3-3.1C159.2,71.5,155.9,88.1,145.6,99.2z M140.6,55.2
			c-13.9,0-25.3-11.3-25.3-25.3c0-4.9,1.4-9.4,3.8-13.3c1.1-1.8,2.5-3.5,4.1-5.1h0c4.5-4.3,10.6-6.9,17.4-6.9
			c13.9,0,25.3,11.3,25.3,25.3C165.8,43.9,154.5,55.2,140.6,55.2z"/>
		<path class="st2" d="M37.3,99.2C26,87.1,23.3,68.3,30.5,53c2.5-4.9,5-8.1,6.8-10.1c5.3-5.6,12.2-8.7,20-8.8c0.2,0,0.4,0,0.7,0
			c0.7,0,1.4,0,2.2,0.1c0.3,0,0.7-0.1,1-0.1c0.2,0,0.4,0,0.7,0c0.5,0,1.1,0,1.6,0.1v-0.3h-3.2v-3.4h-1.4V29
			c-7.9,0.9-15.3,4.4-21.1,9.9c-0.7,0.7-1.5,1.4-2.1,2.2c-0.7,0.7-1.3,1.4-1.9,2.2c-7.4,9.5-10.4,22.3-8.6,34.2
			c1.6,10.9,7.1,21,14.7,28.9c0.7,0.7,1.5,1.4,2.2,2.2c-0.5,0.4-5.1,0.9-7.7,1.3v2.6h6.8v-1.2h11.9v-1.1h2.3v-0.5h11.2v-2.1h1v-3.2
			c-1.3,0.2-2.7,0.5-4.2,0.7c-2.3,0.4-4.9,0.9-7.9,1.4l-6.3,1l-0.5-0.5l-3.3,0.5L37.3,99.2z"/>
		<path class="st2" d="M67.3,128.1c-0.2,0.8-0.3,1.7-0.2,2.6c0.2,3.7,2.6,6.6,6.4,7.8c0.1,0,0.9,0.2,1.5,0.3l20.4,3.7
			c2.2,0.3,3.8,0.5,5.1,0.5c0,0,0,0,0,0c-1.3,0-2.9-0.2-5.1-0.5L75,138.8c-0.6-0.1-1.4-0.3-1.5-0.3c-3.8-1.2-6.2-4.1-6.4-7.8
			C67,129.8,67.1,129,67.3,128.1c0.8-3.2,3.6-6.7,8.1-6.7c0,0,0,0,0,0C70.9,121.5,68.1,124.9,67.3,128.1z"/>
		<path class="st2" d="M145.8,140.3c-0.5,2.3-2.5,4.2-5.4,5.1L98,159c-5.8,1.9-10,3.2-14.7,3.2c0,0,0,0,0,0c4.7,0,8.9-1.4,14.7-3.2
			l42.4-13.6C143.3,144.5,145.3,142.6,145.8,140.3c0.3-1.4-0.1-2.6-1-3.4c-0.9-0.8-2.4-1.3-4.2-1.3c0,0,0,0,0,0
			c1.8,0,3.3,0.4,4.2,1.3C145.7,137.7,146.1,139,145.8,140.3z"/>
		<path class="st2" d="M94.1,111.9c5.1,1.7,6.8,5.1,6.3,7.6c-0.5,2.5-3.1,4-6.7,4c0,0,0,0,0,0c3.6,0,6.2-1.5,6.7-4
			C100.9,117,99.2,113.6,94.1,111.9l-13.5-2.5c-2-0.4-3.9-0.5-5.9-0.5c0,0,0,0,0,0c2,0,3.9,0.2,5.9,0.5L94.1,111.9z"/>
	</g>
</g>
</svg>
