<?xml version="1.0" encoding="utf-8"?>
<!-- Generator: Adobe Illustrator 25.0.0, SVG Export Plug-In . SVG Version: 6.00 Build 0)  -->
<svg version="1.1" id="Layer_1" xmlns="http://www.w3.org/2000/svg" xmlns:xlink="http://www.w3.org/1999/xlink" x="0px" y="0px"
	 viewBox="0 0 131 131" style="enable-background:new 0 0 131 131;" xml:space="preserve">
<style type="text/css">
	.st0{fill:#00B0FB;}
	.st1{fill:#00B0FB;fill-opacity:0.4;}
	.st2{fill:#FFFFFF;}
	.st3{fill:#185AE9;}
	.st4{fill:#3C7CFF;}
	.st5{fill:#001135;}
	.st6{fill:#3C8BD9;}
	.st7{fill:#FABC04;}
	.st8{fill:#34A852;}
	.st9{fill:#E1C025;}
	.st10{fill:#0169AD;}
	.st11{fill:#3499E0;}
	.st12{fill:#005389;}
	.st13{fill:#018ADD;}
	.st14{fill:#83BEEA;}
	.st15{fill:#1582CD;}
	.st16{fill:#FAFBFC;}
	.st17{fill:#04558B;}
	.st18{clip-path:url(#SVGID_1_);}
	.st19{fill-rule:evenodd;clip-rule:evenodd;fill:url(#SVGID_2_);}
	.st20{fill:url(#SVGID_3_);}
	.st21{fill:url(#SVGID_4_);}
	.st22{fill:url(#SVGID_5_);}
	.st23{fill:url(#SVGID_6_);}
	.st24{fill:url(#SVGID_7_);}
	.st25{fill:url(#SVGID_8_);}
	.st26{fill:url(#SVGID_9_);}
	.st27{fill:url(#SVGID_10_);}
	.st28{fill:#0B63BD;}
	.st29{fill:#F0A500;}
	.st30{fill:#DB7002;}
	.st31{fill:#3D7CFE;}
</style>
<g>
	<g>
		<g>
			<path class="st28" d="M12.15,0h106.69C125.56,0,131,5.44,131,12.15v106.69c0,6.71-5.44,12.15-12.15,12.15H12.15
				C5.44,131,0,125.56,0,118.85V12.15C0,5.44,5.44,0,12.15,0z"/>
			<g>
				<path class="st2" d="M47.19,35.73c0,6.17-5,11.16-11.16,11.16s-11.16-5-11.16-11.16s5-11.16,11.16-11.16
					S47.19,29.56,47.19,35.73z M44.66,54.34v49.33c0.01,1.53-1.22,2.77-2.75,2.78c0,0-0.01,0-0.01,0H30.13
					c-1.53,0-2.76-1.23-2.77-2.75c0,0,0-0.01,0-0.01V54.34c0-1.53,1.24-2.77,2.77-2.77c0,0,0,0,0,0H41.9
					C43.42,51.57,44.66,52.81,44.66,54.34z M106.17,80.01v23.88c0,1.4-1.13,2.54-2.53,2.55c0,0-0.01,0-0.01,0H90.97
					c-1.4,0-2.54-1.13-2.55-2.53c0,0,0-0.01,0-0.01V80.75c0-3.45,1.01-15.12-9.03-15.12c-7.78,0-9.36,7.99-9.68,11.57v26.69
					c0,1.39-1.12,2.53-2.51,2.55H54.99c-1.4,0-2.54-1.14-2.54-2.54c0,0,0,0,0-0.01V54.12c0-1.4,1.13-2.54,2.53-2.55c0,0,0,0,0.01,0
					h12.22c1.41,0,2.55,1.14,2.55,2.55v4.3c2.89-4.33,7.17-7.67,16.3-7.67C106.29,50.75,106.17,69.64,106.17,80.01z"/>
			</g>
		</g>
	</g>
</g>
</svg>
