<?xml version="1.0" encoding="utf-8"?>
<!-- Generator: Adobe Illustrator 24.3.0, SVG Export Plug-In . SVG Version: 6.00 Build 0)  -->
<svg version="1.1" id="Layer_1" xmlns="http://www.w3.org/2000/svg" xmlns:xlink="http://www.w3.org/1999/xlink" x="0px" y="0px"
	 width="153px" height="153px" viewBox="0 0 153 153" style="enable-background:new 0 0 153 153;" xml:space="preserve">
<style type="text/css">
	.st0{fill:#00B0FB;}
	.st1{fill:#00B0FB;fill-opacity:0.4;}
	.st2{fill:#FFFFFF;}
	.st3{fill:none;}
	.st4{fill:#001135;}
	.st5{fill:#3C7CFF;}
	.st6{fill:#3C7CFF;stroke:#001135;stroke-width:0.7602;stroke-miterlimit:10;}
	.st7{fill:#DBDBDB;}
	.st8{fill:#B9B9B9;}
	.st9{fill:#080808;}
	.st10{fill:#060606;}
	.st11{fill:#070707;}
	.st12{fill:#121212;}
	.st13{fill:#111111;}
	.st14{fill:#090909;}
	.st15{fill:#FDFDFD;}
	.st16{fill:#F9F9F9;}
	.st17{fill:#F3F2F3;}
	.st18{fill:#FAFAFA;}
	.st19{fill:#0A0A0A;}
	.st20{fill:#EEEEEE;}
	.st21{fill:#0D0D0D;}
	.st22{fill:#0C0C0C;}
	.st23{fill:#0E0E0E;}
	.st24{fill:#050505;}
	.st25{fill:#3A3A3A;}
	.st26{fill:#525252;}
	.st27{fill:#474747;}
	.st28{fill:#1E1E1E;}
	.st29{fill:#1D1D1D;}
	.st30{fill:#222222;}
	.st31{fill:#494949;}
	.st32{fill:#585858;}
	.st33{fill:#EDEDED;}
	.st34{fill:#F0F0F0;}
	.st35{fill:#EAEAEA;}
	.st36{fill:#EAE9EA;}
	.st37{fill:#040404;}
	.st38{fill:#F4F3F4;}
	.st39{fill:#030303;}
	.st40{fill:#E8E8E8;}
	.st41{fill:#0C0C0B;}
	.st42{fill:#0D0D0C;}
	.st43{fill:#919191;}
	.st44{fill:#909090;}
	.st45{fill:#0E0E0D;}
	.st46{fill:#0C0D0C;}
	.st47{fill:#090908;}
	.st48{fill:#141414;}
	.st49{fill:#4C4D4D;}
	.st50{fill:#737474;}
	.st51{fill:#242424;}
	.st52{fill:#202020;}
	.st53{fill:#101010;}
	.st54{fill:#0D0E0D;}
	.st55{fill:#111212;}
	.st56{fill:#0B0B0B;}
	.st57{fill:#0D0C0C;}
	.st58{fill:#E7E7E7;}
	.st59{fill:#272727;}
	.st60{fill:#2E2E2E;}
	.st61{fill:#1F1E1E;}
	.st62{fill:#1B1A1A;}
	.st63{fill:#E6E6E6;}
	.st64{fill:#0F0E0E;}
	.st65{fill:#F2F2F2;}
	.st66{fill:#F4F3F3;}
	.st67{fill:#F9F8F8;}
	.st68{fill:#F1F1F0;}
	.st69{fill:#F6F6F6;}
	.st70{fill:#F5F6F6;}
	.st71{fill:#F5F5F5;}
	.st72{fill:#2C2C2C;}
	.st73{fill:#252625;}
	.st74{fill:#303030;}
	.st75{fill:#2D2D2C;}
	.st76{fill:#2D2D2D;}
	.st77{fill:#262727;}
	.st78{fill:#191919;}
	.st79{fill:#1B1B1B;}
	.st80{fill:#F7F7F7;}
	.st81{fill:#F6F7F7;}
	.st82{fill:#F9F9FA;}
	.st83{fill:#F4F4F4;}
	.st84{fill:#F8F8F8;}
	.st85{fill:#FCFCFC;}
	.st86{fill:#FBFBFB;}
	.st87{fill:#E2E1E2;}
	.st88{fill:#D8D7D8;}
	.st89{fill:#0F0F0F;}
	.st90{fill:#161616;}
	.st91{fill:#181818;}
	.st92{fill:#131313;}
	.st93{fill-rule:evenodd;clip-rule:evenodd;fill:#00B0FB;}
	.st94{fill:#030302;}
	.st95{fill:#D2D3D3;}
	.st96{fill:#1F1F1F;}
	.st97{fill:#0E0D0E;}
	.st98{fill:#BABBBB;}
	.st99{fill:#8A8A8A;}
	.st100{fill:#8E8F8F;}
	.st101{fill:#464746;}
	.st102{fill:#5F5E5E;}
	.st103{fill:#151414;}
	.st104{fill:#282828;}
	.st105{fill:#030202;}
	.st106{fill:#040403;}
	.st107{fill:#040303;}
	.st108{fill:#202021;}
	.st109{fill:#020202;}
	.st110{fill:#050506;}
	.st111{fill:#010101;}
	.st112{fill:#F3F3F3;}
	.st113{fill:#F1F1F1;}
	.st114{fill:#FAFAF9;}
	.st115{fill:#040504;}
	.st116{fill:#070708;}
	.st117{fill:#131212;}
	.st118{fill:#070808;}
	.st119{fill:#3C3C3C;}
	.st120{fill:#FEFEFE;}
	.st121{fill:#47C5FB;}
	.st122{fill:#00569E;}
	.st123{fill:#00B5F8;}
	.st124{fill:url(#SVGID_1_);fill-opacity:0.8;}
	.st125{fill-rule:evenodd;clip-rule:evenodd;fill:#00D8FF;}
	.st126{fill:#00D8FF;}
	.st127{fill:url(#SVGID_2_);}
	.st128{fill:url(#SVGID_3_);}
	.st129{fill:url(#SVGID_4_);}
	.st130{fill:url(#SVGID_5_);}
	.st131{fill:#3C7DFE;}
	.st132{fill:#A4C639;}
	.st133{fill:none;stroke:#A4C639;stroke-width:10.5192;stroke-linecap:round;stroke-linejoin:round;stroke-miterlimit:14.0256;}
</style>
<g>
	<path class="st132" d="M57.9,90.2c4.5,0,8.2,3.7,8.2,8.2v35.3c0,4.5-3.7,8.2-8.2,8.2c-4.5,0-8.2-3.7-8.2-8.2V98.5
		C49.7,93.9,53.4,90.2,57.9,90.2L57.9,90.2z"/>
	<path class="st132" d="M39.1,47.8c0,0.3-0.1,0.6-0.1,0.9v53.5c0,5.8,4.6,10.4,10.2,10.4h54.4c5.7,0,10.2-4.6,10.2-10.4V48.7
		c0-0.3,0-0.6,0-0.9L39.1,47.8L39.1,47.8z"/>
	<path class="st132" d="M95.1,90.2c4.5,0,8.2,3.7,8.2,8.2v35.3c0,4.5-3.7,8.2-8.2,8.2c-4.5,0-8.2-3.7-8.2-8.2V98.5
		C86.8,93.9,90.5,90.2,95.1,90.2L95.1,90.2z M25.9,52.5c4.5,0,8.2,3.7,8.2,8.2v35.3c0,4.5-3.7,8.2-8.2,8.2c-4.5,0-8.2-3.7-8.2-8.2
		V60.8C17.6,56.2,21.3,52.5,25.9,52.5L25.9,52.5z M127.1,52.5c4.5,0,8.2,3.7,8.2,8.2v35.3c0,4.5-3.7,8.2-8.2,8.2
		c-4.5,0-8.2-3.7-8.2-8.2V60.8C118.9,56.2,122.6,52.5,127.1,52.5L127.1,52.5z M39.4,44.3c0.2-16.4,14.6-29.9,33-31.7h8.3
		c18.4,1.8,32.8,15.2,33,31.7H39.4z"/>
	<path class="st133" d="M42.2,11l8.7,15 M110.8,11l-8.7,15"/>
	<path class="st2" d="M65.4,29.5c0,2.3-1.9,4.2-4.2,4.2c-2.4,0-4.3-1.9-4.3-4.1v0c0-2.3,1.9-4.2,4.2-4.2
		C63.5,25.4,65.4,27.2,65.4,29.5L65.4,29.5z M97.2,29.5c0,2.3-1.9,4.2-4.2,4.2c-2.4,0-4.3-1.9-4.3-4.1v0c0-2.3,1.9-4.2,4.2-4.2
		C95.3,25.4,97.2,27.2,97.2,29.5L97.2,29.5z"/>
</g>
</svg>
