<?xml version="1.0" encoding="utf-8"?>
<!-- Generator: Adobe Illustrator 25.0.0, SVG Export Plug-In . SVG Version: 6.00 Build 0)  -->
<svg version="1.1" id="Layer_1" xmlns="http://www.w3.org/2000/svg" xmlns:xlink="http://www.w3.org/1999/xlink" x="0px" y="0px"
	 viewBox="0 0 96.36 106" style="enable-background:new 0 0 96.36 106;" xml:space="preserve">
<style type="text/css">
	.st0{fill:#001135;}
	.st1{fill:#FFFFFF;}
	.st2{fill:#3C7CFF;}
	.st3{fill:#185AE9;}
	.st4{fill:#00B0FB;}
	.st5{fill-rule:evenodd;clip-rule:evenodd;fill:#00B0FB;}
	.st6{fill:#061639;}
	.st7{fill:#1429FF;}
	.st8{fill:#663398;}
	.st9{fill:#FEFEFE;}
	.st10{fill:#8DB849;}
	.st11{fill:#5A863E;}
	.st12{fill:#FFFFFE;}
	.st13{fill-rule:evenodd;clip-rule:evenodd;fill:#7FC728;}
	.st14{fill:#B3B3B3;}
	.st15{fill:#A6120D;}
	.st16{fill:#DD1B16;}
	.st17{fill:#F2F2F2;}
	.st18{fill:#8F9ED1;}
	.st19{fill:#030303;}
	.st20{fill:#0E0E0D;}
	.st21{fill:#8F8F90;}
	.st22{fill:#DBDBDB;}
	.st23{fill:#FDFDFD;}
	.st24{fill:#FDFCFD;}
	.st25{fill:#010101;}
	.st26{fill:#FCB415;}
	.st27{opacity:0.2;fill:#FFFFFF;enable-background:new    ;}
	.st28{fill:#68B345;}
	.st29{fill:#0A99D6;}
	.st30{opacity:0.1;fill:#010101;enable-background:new    ;}
	.st31{fill:#EE3325;}
	.st32{fill:url(#SVGID_1_);}
	.st33{fill:#FF2D20;}
	.st34{clip-path:url(#SVGID_2_);fill:#F9C638;}
	.st35{fill:#2A2D2C;}
	.st36{fill:#F9C638;}
	.st37{fill:#833CF7;}
	.st38{fill:none;}
	.st39{fill:#0A0A0A;}
	.st40{fill:#050505;}
	.st41{fill:#2A2A2A;}
	.st42{fill:#000100;}
	.st43{fill:#FBFBFB;}
	.st44{fill:#070707;}
	.st45{fill:#080808;}
	.st46{fill:#F7F7F7;}
	.st47{fill:#0B0B0B;}
	.st48{fill:#F1F0F1;}
	.st49{fill:#F4F4F4;}
	.st50{fill:#0C0C0C;}
	.st51{fill:#ECECEC;}
	.st52{fill:#252525;}
	.st53{fill:#D5D5D5;}
	.st54{fill:#3F3F3F;}
	.st55{fill:#818181;}
	.st56{fill:#A2A2A2;}
	.st57{fill:#040404;}
	.st58{fill:#151515;}
	.st59{fill:#343434;}
	.st60{fill:#4B4B4B;}
	.st61{fill:#0D0D0D;}
	.st62{fill:#00D8FF;}
	.st63{fill:#4DBA87;}
	.st64{fill:#425466;}
	.st65{fill:url(#SVGID_3_);}
	.st66{fill:url(#SVGID_4_);}
	.st67{fill:#14559A;}
	.st68{fill:url(#SVGID_6_);}
	.st69{fill:#3092C4;}
	.st70{fill:#1969BC;}
	.st71{fill:url(#SVGID_7_);}
	.st72{fill:url(#SVGID_8_);}
	.st73{fill:url(#SVGID_9_);}
	.st74{fill:#2B74B1;}
	.st75{fill:#125A9E;}
	.st76{fill:url(#SVGID_10_);}
	.st77{fill:url(#SVGID_11_);}
	.st78{fill:#0D82CA;}
	.st79{fill:url(#SVGID_12_);}
	.st80{fill:#127BCA;}
	.st81{fill:url(#SVGID_13_);}
	.st82{fill:url(#SVGID_14_);}
	.st83{fill:#05A1E6;}
	.st84{fill:url(#SVGID_15_);}
	.st85{fill:url(#SVGID_16_);}
	.st86{fill:url(#SVGID_17_);}
	.st87{fill:#079AE1;}
	.st88{fill:#1E5CB3;}
	.st89{fill:#1D60B5;}
	.st90{fill:#175FAB;}
	.st91{fill:url(#SVGID_18_);}
	.st92{fill:#7DCBEC;}
	.st93{fill:#5EC5ED;}
	.st94{fill:url(#SVGID_19_);}
	.st95{fill:url(#SVGID_20_);}
	.st96{fill:url(#SVGID_21_);}
	.st97{fill:#6EB341;}
	.st98{fill:#F6F6F6;}
	.st99{fill:#060606;}
	.st100{fill:#101010;}
</style>
<g>
	<path class="st4" d="M77.09,65.53c10.64,0,19.27-8.64,19.27-19.27c0-10.64-8.64-19.27-19.27-19.27c-1.83,0-3.64,0.26-5.39,0.77
		c-0.24,0.07-0.5,0.09-0.75,0.07c-1.06-0.12-1.82-1.07-1.71-2.13c0.09-0.84,0.14-1.69,0.14-2.56C69.38,10.36,59.02,0,46.25,0
		C33.49,0,23.13,10.36,23.13,23.13c0,1.98,0.25,3.95,0.75,5.86c0.08,0.32,0.09,0.65,0.01,0.97c-0.26,1.03-1.31,1.65-2.34,1.39
		c-1.35-0.34-2.75-0.51-4.2-0.51C7.77,30.84,0,38.61,0,48.18s7.77,17.35,17.35,17.35h13.49v12.3l-10.5,5.25
		c-0.65,0.33-1.07,0.99-1.07,1.72v9.64c0,0.13,0.01,0.26,0.04,0.39c-2.14,0.81-3.68,2.83-3.74,5.24c-0.08,3.19,2.44,5.85,5.63,5.93
		c3.08-0.08,5.55-2.56,5.63-5.63c0.07-2.53-1.5-4.71-3.74-5.56c0.02-0.12,0.04-0.25,0.04-0.37v-8.45l10.5-5.25
		c0.65-0.33,1.07-0.99,1.07-1.72V65.53h11.56v28.91c0.01,0.13,0.03,0.26,0.06,0.38c-2.15,0.8-3.7,2.83-3.76,5.25
		c-0.08,3.19,2.44,5.85,5.63,5.93c3.08-0.08,5.55-2.56,5.63-5.63c0.07-2.53-1.51-4.72-3.76-5.56c0.03-0.12,0.05-0.24,0.05-0.37
		V65.53h11.56v13.49c0,0.73,0.41,1.4,1.07,1.72l10.5,5.25v8.45c0,0.13,0.01,0.25,0.04,0.37c-2.24,0.84-3.81,3.03-3.74,5.56
		c0.08,3.08,2.56,5.55,5.63,5.63c3.19-0.08,5.71-2.74,5.63-5.93c-0.06-2.41-1.6-4.43-3.74-5.24c0.03-0.13,0.04-0.26,0.04-0.39V84.8
		c0-0.73-0.41-1.4-1.07-1.72l-10.5-5.25v-12.3H77.09z M65.53,36.62c0-1.06,0.86-1.93,1.93-1.93s1.93,0.86,1.93,1.93v19.27
		c0,1.06-0.86,1.93-1.93,1.93s-1.93-0.86-1.93-1.93V36.62z M42.4,55.89c0,1.06-0.86,1.93-1.93,1.93s-1.93-0.86-1.93-1.93v-5.78
		h-7.71v5.78c0,1.06-0.86,1.93-1.93,1.93c-1.06,0-1.93-0.86-1.93-1.93V44.33c0-0.42,0.14-0.82,0.39-1.16l5.78-7.71
		c0.11-0.15,0.24-0.28,0.39-0.39c0.85-0.64,2.06-0.47,2.7,0.39l5.78,7.71c0.25,0.33,0.39,0.74,0.39,1.16V55.89z M59.75,48.18h-9.64
		v7.71c0,1.06-0.86,1.93-1.93,1.93s-1.93-0.86-1.93-1.93V36.62c0-1.06,0.86-1.93,1.93-1.93h11.56c1.06,0,1.93,0.86,1.93,1.93v9.64
		C61.67,47.32,60.81,48.18,59.75,48.18z"/>
	<polygon class="st4" points="30.84,44.97 30.84,46.25 38.55,46.25 38.55,44.97 34.69,39.83 	"/>
	<rect x="50.11" y="38.55" class="st4" width="7.71" height="5.78"/>
</g>
</svg>
