<?xml version="1.0" encoding="utf-8"?>
<!-- Generator: Adobe Illustrator 25.0.0, SVG Export Plug-In . SVG Version: 6.00 Build 0)  -->
<svg version="1.1" id="Layer_1" xmlns="http://www.w3.org/2000/svg" xmlns:xlink="http://www.w3.org/1999/xlink" x="0px" y="0px"
	 viewBox="0 0 99.16 99.16" style="enable-background:new 0 0 99.16 99.16;" xml:space="preserve">
<style type="text/css">
	.st0{fill:#001135;}
	.st1{fill:#FFFFFF;}
	.st2{fill:#3C7CFF;}
	.st3{fill:#185AE9;}
	.st4{fill:#00B0FB;}
	.st5{fill-rule:evenodd;clip-rule:evenodd;fill:#00B0FB;}
	.st6{fill:#061639;}
	.st7{fill:#1429FF;}
	.st8{fill:#663398;}
	.st9{fill:#FEFEFE;}
	.st10{fill:#8DB849;}
	.st11{fill:#5A863E;}
	.st12{fill:#FFFFFE;}
	.st13{fill-rule:evenodd;clip-rule:evenodd;fill:#7FC728;}
	.st14{fill:#B3B3B3;}
	.st15{fill:#A6120D;}
	.st16{fill:#DD1B16;}
	.st17{fill:#F2F2F2;}
	.st18{fill:#8F9ED1;}
	.st19{fill:#030303;}
	.st20{fill:#0E0E0D;}
	.st21{fill:#8F8F90;}
	.st22{fill:#DBDBDB;}
	.st23{fill:#FDFDFD;}
	.st24{fill:#FDFCFD;}
	.st25{fill:#010101;}
	.st26{fill:#FCB415;}
	.st27{opacity:0.2;fill:#FFFFFF;enable-background:new    ;}
	.st28{fill:#68B345;}
	.st29{fill:#0A99D6;}
	.st30{opacity:0.1;fill:#010101;enable-background:new    ;}
	.st31{fill:#EE3325;}
	.st32{fill:url(#SVGID_1_);}
	.st33{fill:#FF2D20;}
	.st34{clip-path:url(#SVGID_2_);fill:#F9C638;}
	.st35{fill:#2A2D2C;}
	.st36{fill:#F9C638;}
	.st37{fill:#833CF7;}
	.st38{fill:none;}
	.st39{fill:#0A0A0A;}
	.st40{fill:#050505;}
	.st41{fill:#2A2A2A;}
	.st42{fill:#000100;}
	.st43{fill:#FBFBFB;}
	.st44{fill:#070707;}
	.st45{fill:#080808;}
	.st46{fill:#F7F7F7;}
	.st47{fill:#0B0B0B;}
	.st48{fill:#F1F0F1;}
	.st49{fill:#F4F4F4;}
	.st50{fill:#0C0C0C;}
	.st51{fill:#ECECEC;}
	.st52{fill:#252525;}
	.st53{fill:#D5D5D5;}
	.st54{fill:#3F3F3F;}
	.st55{fill:#818181;}
	.st56{fill:#A2A2A2;}
	.st57{fill:#040404;}
	.st58{fill:#151515;}
	.st59{fill:#343434;}
	.st60{fill:#4B4B4B;}
	.st61{fill:#0D0D0D;}
	.st62{fill:#00D8FF;}
	.st63{fill:#4DBA87;}
	.st64{fill:#425466;}
	.st65{fill:url(#SVGID_3_);}
	.st66{fill:url(#SVGID_4_);}
	.st67{fill:#14559A;}
	.st68{fill:url(#SVGID_6_);}
	.st69{fill:#3092C4;}
	.st70{fill:#1969BC;}
	.st71{fill:url(#SVGID_7_);}
	.st72{fill:url(#SVGID_8_);}
	.st73{fill:url(#SVGID_9_);}
	.st74{fill:#2B74B1;}
	.st75{fill:#125A9E;}
	.st76{fill:url(#SVGID_10_);}
	.st77{fill:url(#SVGID_11_);}
	.st78{fill:#0D82CA;}
	.st79{fill:url(#SVGID_12_);}
	.st80{fill:#127BCA;}
	.st81{fill:url(#SVGID_13_);}
	.st82{fill:url(#SVGID_14_);}
	.st83{fill:#05A1E6;}
	.st84{fill:url(#SVGID_15_);}
	.st85{fill:url(#SVGID_16_);}
	.st86{fill:url(#SVGID_17_);}
	.st87{fill:#079AE1;}
	.st88{fill:#1E5CB3;}
	.st89{fill:#1D60B5;}
	.st90{fill:#175FAB;}
	.st91{fill:url(#SVGID_18_);}
	.st92{fill:#7DCBEC;}
	.st93{fill:#5EC5ED;}
	.st94{fill:url(#SVGID_19_);}
	.st95{fill:url(#SVGID_20_);}
	.st96{fill:url(#SVGID_21_);}
	.st97{fill:#6EB341;}
	.st98{fill:#F6F6F6;}
	.st99{fill:#060606;}
	.st100{fill:#101010;}
</style>
<g>
	<path class="st4" d="M51.31,73.75c-3.64-1.01-7.1-2.57-10.27-4.62l-4.02,1.99l-2.73-2.73H0v5.13c0,2.82,2.3,5.12,5.13,5.12h49.89
		c0.02-0.06,0.04-0.13,0.06-0.19C52.94,77.87,51.42,75.97,51.31,73.75z M6.84,75.23H3.42v-3.42h3.42V75.23z M13.67,75.23h-3.42
		v-3.42h3.42V75.23z M20.51,75.23h-3.42v-3.42h3.42V75.23z"/>
	<rect x="47.87" y="82.06" class="st4" width="6.84" height="3.42"/>
	<path class="st4" d="M54.71,67.59v5.93c0,0.94,0.76,1.71,1.71,1.71h10.25c0.95,0,1.71-0.77,1.71-1.71v-5.93
		c-2.2,0.51-4.48,0.8-6.84,0.8C59.19,68.39,56.91,68.1,54.71,67.59z"/>
	<path class="st4" d="M63.25,78.64h-3.41c-0.95,0-1.71,0.77-1.71,1.71v15.39c0,1.89,1.53,3.42,3.41,3.42c1.89,0,3.42-1.53,3.42-3.42
		V80.35C64.96,79.41,64.2,78.64,63.25,78.64z"/>
	<path class="st4" d="M28.04,62.13l1.99-4.02c-2.53-3.87-4.32-8.18-5.26-12.71l-4.26-1.43V31.25l4.26-1.43
		c0.18-0.84,0.41-1.65,0.64-2.47H5.13C2.29,27.36,0,29.65,0,32.48v32.49h30.87L28.04,62.13z M3.42,30.77h13.67v17.1H3.42V30.77z
		 M20.51,61.55H3.42v-3.42h17.09V61.55z M20.51,54.71H3.42v-3.42h17.09V54.71z"/>
	<rect x="6.84" y="34.19" class="st4" width="6.83" height="10.26"/>
	<path class="st4" d="M10.25,92.32h44.46V88.9H13.67C11.79,88.9,10.25,90.44,10.25,92.32z"/>
	<rect x="20.51" y="82.06" class="st4" width="23.94" height="3.42"/>
	<path class="st4" d="M73.44,32.56c-0.89,0.04-1.6,0.75-1.64,1.63v6.84c0.05,0.95,0.84,1.68,1.79,1.63
		c0.88-0.03,1.59-0.74,1.63-1.63v-6.84C75.18,33.25,74.38,32.52,73.44,32.56z"/>
	<path class="st4" d="M95.15,31.43c-0.86-4.75-2.72-9.26-5.46-13.22l-0.57-0.83l1.78-3.61l-5.52-5.51l-3.6,1.78l-0.83-0.57
		c-3.97-2.74-8.48-4.61-13.22-5.46l-0.99-0.19L65.45,0h-7.81l-1.29,3.82l-0.99,0.19c-4.74,0.85-9.25,2.72-13.22,5.46l-0.82,0.57
		l-3.61-1.78l-5.52,5.51l1.79,3.61l-0.57,0.83c-2.75,3.96-4.61,8.47-5.47,13.22l-0.18,0.99l-3.83,1.29v7.8l3.83,1.29l0.18,0.99
		c0.86,4.75,2.72,9.26,5.46,13.22l0.57,0.83l-1.78,3.61l3.52,3.52h0.19v0.19l1.81,1.81l3.6-1.79l0.83,0.57
		c2.81,1.93,5.89,3.43,9.15,4.43v-3.59c-11.94-4.24-20.52-15.61-20.52-28.98c0-16.97,13.81-30.77,30.77-30.77
		c16.97,0,30.78,13.8,30.78,30.77c0,13.37-8.59,24.74-20.52,28.98v3.59c3.26-1.01,6.34-2.5,9.15-4.43l0.83-0.57l3.6,1.79l5.52-5.52
		l-1.79-3.61l0.57-0.83c2.75-3.96,4.61-8.47,5.47-13.22l0.18-0.99l3.83-1.29v-7.8l-3.83-1.29L95.15,31.43z"/>
	<path class="st4" d="M61.54,17.1c-11.31,0-20.51,9.2-20.51,20.51c0,11.32,9.2,20.52,20.51,20.52c11.32,0,20.52-9.2,20.52-20.52
		C82.06,26.3,72.86,17.1,61.54,17.1z M54.71,34.19h-3.42v-0.25c0-0.8-0.66-1.46-1.46-1.46h-0.5c-0.81,0-1.46,0.66-1.46,1.46
		c0,0.56,0.31,1.06,0.81,1.31l3.33,1.67c1.66,0.82,2.7,2.51,2.7,4.36c-0.01,2.69-2.19,4.88-4.88,4.88h-0.5
		c-2.7,0-4.88-2.18-4.88-4.88v-0.25h3.42v0.25c0,0.81,0.65,1.46,1.46,1.46h0.49c0.81,0,1.46-0.65,1.47-1.46
		c0-0.55-0.31-1.06-0.81-1.3l-3.33-1.67c-1.66-0.82-2.71-2.52-2.7-4.37c0-2.69,2.18-4.87,4.88-4.88h0.49
		c2.7,0.01,4.88,2.19,4.89,4.88V34.19z M64.96,32.48h-3.42v3.42h3.42v3.42h-3.42v3.42h3.42v3.42h-6.83v-17.1h6.83V32.48z
		 M73.51,46.16c-2.83,0-5.13-2.3-5.13-5.13v-6.84c0-2.82,2.3-5.13,5.13-5.13s5.13,2.31,5.13,5.13v6.84
		C78.64,43.86,76.34,46.16,73.51,46.16z"/>
	<path class="st4" d="M88.9,37.61c0-15.08-12.27-27.35-27.36-27.35c-15.08,0-27.35,12.27-27.35,27.35
		c0,15.09,12.27,27.36,27.35,27.36C76.63,64.97,88.9,52.7,88.9,37.61z M61.54,61.55c-13.19,0-23.93-10.74-23.93-23.94
		c0-13.2,10.74-23.93,23.93-23.93c13.2,0,23.94,10.73,23.94,23.93C85.48,50.81,74.74,61.55,61.54,61.55z"/>
</g>
</svg>
