<?xml version="1.0" encoding="utf-8"?>
<!-- Generator: Adobe Illustrator 25.0.0, SVG Export Plug-In . SVG Version: 6.00 Build 0)  -->
<svg version="1.1" id="Layer_1" xmlns="http://www.w3.org/2000/svg" xmlns:xlink="http://www.w3.org/1999/xlink" x="0px" y="0px"
	 viewBox="0 0 105.4 105.4" style="enable-background:new 0 0 105.4 105.4;" xml:space="preserve">
<style type="text/css">
	.st0{fill:#001135;}
	.st1{fill:#FFFFFF;}
	.st2{fill:#3C7CFF;}
	.st3{fill:#185AE9;}
	.st4{fill:#00B0FB;}
	.st5{fill-rule:evenodd;clip-rule:evenodd;fill:#00B0FB;}
	.st6{fill:#061639;}
	.st7{fill:#1429FF;}
	.st8{fill:#663398;}
	.st9{fill:#FEFEFE;}
	.st10{fill:#8DB849;}
	.st11{fill:#5A863E;}
	.st12{fill:#FFFFFE;}
	.st13{fill-rule:evenodd;clip-rule:evenodd;fill:#7FC728;}
	.st14{fill:#B3B3B3;}
	.st15{fill:#A6120D;}
	.st16{fill:#DD1B16;}
	.st17{fill:#F2F2F2;}
	.st18{fill:#8F9ED1;}
	.st19{fill:#030303;}
	.st20{fill:#0E0E0D;}
	.st21{fill:#8F8F90;}
	.st22{fill:#DBDBDB;}
	.st23{fill:#FDFDFD;}
	.st24{fill:#FDFCFD;}
	.st25{fill:#010101;}
	.st26{fill:#FCB415;}
	.st27{opacity:0.2;fill:#FFFFFF;enable-background:new    ;}
	.st28{fill:#68B345;}
	.st29{fill:#0A99D6;}
	.st30{opacity:0.1;fill:#010101;enable-background:new    ;}
	.st31{fill:#EE3325;}
	.st32{fill:url(#SVGID_1_);}
	.st33{fill:#FF2D20;}
	.st34{clip-path:url(#SVGID_2_);fill:#F9C638;}
	.st35{fill:#2A2D2C;}
	.st36{fill:#F9C638;}
	.st37{fill:#833CF7;}
	.st38{fill:none;}
	.st39{fill:#0A0A0A;}
	.st40{fill:#050505;}
	.st41{fill:#2A2A2A;}
	.st42{fill:#000100;}
	.st43{fill:#FBFBFB;}
	.st44{fill:#070707;}
	.st45{fill:#080808;}
	.st46{fill:#F7F7F7;}
	.st47{fill:#0B0B0B;}
	.st48{fill:#F1F0F1;}
	.st49{fill:#F4F4F4;}
	.st50{fill:#0C0C0C;}
	.st51{fill:#ECECEC;}
	.st52{fill:#252525;}
	.st53{fill:#D5D5D5;}
	.st54{fill:#3F3F3F;}
	.st55{fill:#818181;}
	.st56{fill:#A2A2A2;}
	.st57{fill:#040404;}
	.st58{fill:#151515;}
	.st59{fill:#343434;}
	.st60{fill:#4B4B4B;}
	.st61{fill:#0D0D0D;}
	.st62{fill:#00D8FF;}
	.st63{fill:#4DBA87;}
	.st64{fill:#425466;}
	.st65{fill:url(#SVGID_3_);}
	.st66{fill:url(#SVGID_4_);}
	.st67{fill:#14559A;}
	.st68{fill:url(#SVGID_6_);}
	.st69{fill:#3092C4;}
	.st70{fill:#1969BC;}
	.st71{fill:url(#SVGID_7_);}
	.st72{fill:url(#SVGID_8_);}
	.st73{fill:url(#SVGID_9_);}
	.st74{fill:#2B74B1;}
	.st75{fill:#125A9E;}
	.st76{fill:url(#SVGID_10_);}
	.st77{fill:url(#SVGID_11_);}
	.st78{fill:#0D82CA;}
	.st79{fill:url(#SVGID_12_);}
	.st80{fill:#127BCA;}
	.st81{fill:url(#SVGID_13_);}
	.st82{fill:url(#SVGID_14_);}
	.st83{fill:#05A1E6;}
	.st84{fill:url(#SVGID_15_);}
	.st85{fill:url(#SVGID_16_);}
	.st86{fill:url(#SVGID_17_);}
	.st87{fill:#079AE1;}
	.st88{fill:#1E5CB3;}
	.st89{fill:#1D60B5;}
	.st90{fill:#175FAB;}
	.st91{fill:url(#SVGID_18_);}
	.st92{fill:#7DCBEC;}
	.st93{fill:#5EC5ED;}
	.st94{fill:url(#SVGID_19_);}
	.st95{fill:url(#SVGID_20_);}
	.st96{fill:url(#SVGID_21_);}
	.st97{fill:#6EB341;}
	.st98{fill:#F6F6F6;}
	.st99{fill:#060606;}
	.st100{fill:#101010;}
</style>
<g>
	<path class="st5" d="M36.74,105.4c-1.87,0-3.39-1.52-3.39-3.39s1.52-3.39,3.39-3.39h39.44c1.87,0,3.39,1.52,3.39,3.39
		s-1.52,3.39-3.39,3.39H36.74z M44.27,94.94c0.75-2.44,1.27-5.24,1.47-7.96h21.28c0.23,2.69,0.79,5.49,1.58,7.96H44.27z M6.41,88.62
		C2.88,88.62,0,85.74,0,82.21V50.13c0-3.53,2.88-6.41,6.41-6.41h20.81c3.53,0,6.41,2.88,6.41,6.41v32.07c0,3.53-2.88,6.41-6.41,6.41
		H6.41z M25.32,77.35c-1.63,0-2.95,1.32-2.95,2.95c0,1.63,1.32,2.95,2.95,2.95c1.63,0,2.95-1.32,2.95-2.95
		C28.27,78.68,26.94,77.35,25.32,77.35z M16.81,77.35c-1.63,0-2.95,1.32-2.95,2.95c0,1.63,1.32,2.95,2.95,2.95
		c1.63,0,2.95-1.32,2.95-2.95C19.76,78.68,18.44,77.35,16.81,77.35z M8.31,77.35c-1.63,0-2.95,1.32-2.95,2.95
		c0,1.63,1.32,2.95,2.95,2.95s2.95-1.32,2.95-2.95C11.26,78.68,9.94,77.35,8.31,77.35z M37.26,83.28c0.04-0.36,0.06-0.72,0.06-1.07
		v-8.83h61.01v4.15c0,3.17-2.58,5.75-5.75,5.75H37.26z M53.12,75.71c-1.02,0-1.85,0.83-1.85,1.85c0,1.02,0.83,1.85,1.85,1.85h6.66
		c1.02,0,1.85-0.83,1.85-1.85c0-1.02-0.83-1.85-1.85-1.85H53.12z M37.32,69.69V50.13c0-5.57-4.53-10.1-10.1-10.1H14.57V29.1
		c0-3.17,2.58-5.76,5.76-5.76h52.03v24.48c0,3.95,3.21,7.16,7.15,7.16h18.82v14.7H37.32z M79.52,51.3c-1.91,0-3.46-1.56-3.46-3.47
		V3.47c0-1.91,1.55-3.47,3.46-3.47h22.42c1.91,0,3.47,1.56,3.47,3.47v44.36c0,1.91-1.56,3.47-3.47,3.47H79.52z M88.68,44.53
		c-1.02,0-1.85,0.83-1.85,1.85c0,1.02,0.83,1.85,1.85,1.85h4.09c1.02,0,1.85-0.83,1.85-1.85c0-1.02-0.83-1.85-1.85-1.85H88.68z"/>
</g>
</svg>
