<?xml version="1.0" encoding="utf-8"?>
<!-- Generator: Adobe Illustrator 25.0.0, SVG Export Plug-In . SVG Version: 6.00 Build 0)  -->
<svg version="1.1" id="Layer_1" xmlns="http://www.w3.org/2000/svg" xmlns:xlink="http://www.w3.org/1999/xlink" x="0px" y="0px"
	 viewBox="0 0 97.92 92.69" style="enable-background:new 0 0 97.92 92.69;" xml:space="preserve">
<style type="text/css">
	.st0{fill:#001135;}
	.st1{fill:#FFFFFF;}
	.st2{fill:#3C7CFF;}
	.st3{fill:#185AE9;}
	.st4{fill:#00B0FB;}
	.st5{fill-rule:evenodd;clip-rule:evenodd;fill:#00B0FB;}
	.st6{fill:#061639;}
	.st7{fill:#1429FF;}
	.st8{fill:#663398;}
	.st9{fill:#FEFEFE;}
	.st10{fill:#8DB849;}
	.st11{fill:#5A863E;}
	.st12{fill:#FFFFFE;}
	.st13{fill-rule:evenodd;clip-rule:evenodd;fill:#7FC728;}
	.st14{fill:#B3B3B3;}
	.st15{fill:#A6120D;}
	.st16{fill:#DD1B16;}
	.st17{fill:#F2F2F2;}
	.st18{fill:#8F9ED1;}
	.st19{fill:#030303;}
	.st20{fill:#0E0E0D;}
	.st21{fill:#8F8F90;}
	.st22{fill:#DBDBDB;}
	.st23{fill:#FDFDFD;}
	.st24{fill:#FDFCFD;}
	.st25{fill:#010101;}
	.st26{fill:#FCB415;}
	.st27{opacity:0.2;fill:#FFFFFF;enable-background:new    ;}
	.st28{fill:#68B345;}
	.st29{fill:#0A99D6;}
	.st30{opacity:0.1;fill:#010101;enable-background:new    ;}
	.st31{fill:#EE3325;}
	.st32{fill:url(#SVGID_1_);}
	.st33{fill:#FF2D20;}
	.st34{clip-path:url(#SVGID_2_);fill:#F9C638;}
	.st35{fill:#2A2D2C;}
	.st36{fill:#F9C638;}
	.st37{fill:#833CF7;}
	.st38{fill:none;}
	.st39{fill:#0A0A0A;}
	.st40{fill:#050505;}
	.st41{fill:#2A2A2A;}
	.st42{fill:#000100;}
	.st43{fill:#FBFBFB;}
	.st44{fill:#070707;}
	.st45{fill:#080808;}
	.st46{fill:#F7F7F7;}
	.st47{fill:#0B0B0B;}
	.st48{fill:#F1F0F1;}
	.st49{fill:#F4F4F4;}
	.st50{fill:#0C0C0C;}
	.st51{fill:#ECECEC;}
	.st52{fill:#252525;}
	.st53{fill:#D5D5D5;}
	.st54{fill:#3F3F3F;}
	.st55{fill:#818181;}
	.st56{fill:#A2A2A2;}
	.st57{fill:#040404;}
	.st58{fill:#151515;}
	.st59{fill:#343434;}
	.st60{fill:#4B4B4B;}
	.st61{fill:#0D0D0D;}
	.st62{fill:#00D8FF;}
	.st63{fill:#4DBA87;}
	.st64{fill:#425466;}
	.st65{fill:url(#SVGID_3_);}
	.st66{fill:url(#SVGID_4_);}
	.st67{fill:#14559A;}
	.st68{fill:url(#SVGID_6_);}
	.st69{fill:#3092C4;}
	.st70{fill:#1969BC;}
	.st71{fill:url(#SVGID_7_);}
	.st72{fill:url(#SVGID_8_);}
	.st73{fill:url(#SVGID_9_);}
	.st74{fill:#2B74B1;}
	.st75{fill:#125A9E;}
	.st76{fill:url(#SVGID_10_);}
	.st77{fill:url(#SVGID_11_);}
	.st78{fill:#0D82CA;}
	.st79{fill:url(#SVGID_12_);}
	.st80{fill:#127BCA;}
	.st81{fill:url(#SVGID_13_);}
	.st82{fill:url(#SVGID_14_);}
	.st83{fill:#05A1E6;}
	.st84{fill:url(#SVGID_15_);}
	.st85{fill:url(#SVGID_16_);}
	.st86{fill:url(#SVGID_17_);}
	.st87{fill:#079AE1;}
	.st88{fill:#1E5CB3;}
	.st89{fill:#1D60B5;}
	.st90{fill:#175FAB;}
	.st91{fill:url(#SVGID_18_);}
	.st92{fill:#7DCBEC;}
	.st93{fill:#5EC5ED;}
	.st94{fill:url(#SVGID_19_);}
	.st95{fill:url(#SVGID_20_);}
	.st96{fill:url(#SVGID_21_);}
	.st97{fill:#6EB341;}
	.st98{fill:#F6F6F6;}
	.st99{fill:#060606;}
	.st100{fill:#101010;}
</style>
<g>
	<path class="st4" d="M6.13,27.46c2-1.9,3.88-3.67,5.99-5.67c-0.61-0.51-1.37-1-1.94-1.65c-0.89-1.02-1.64-1.23-2.55-0.04
		c-0.48,0.62-1.09,1.13-1.65,1.68C3.06,24.69,3.06,24.7,6.13,27.46z"/>
	<path class="st4" d="M51.94,86.39c-5.33,2.18-10.85,3.13-16.58,2.5c-13.04-1.43-22.64-8.03-28.38-19.81
		C-2.7,49.19,8.85,25.25,30.4,20.15c16.17-3.83,32.86,4.25,39.71,19.39c0.84,1.85,1.82,2.56,3.71,2.23c0.14-0.02,0.29,0,0.44-0.02
		c0.1-0.01,0.18-0.06,0.54-0.18c-0.55-1.33-1.01-2.71-1.66-3.98c-6.55-12.75-16.85-20.3-31.21-21.64C23.22,14.2,6.36,26,1.39,44.06
		c-2.15,7.8-1.8,15.55,0.95,23.17c0.1,0.28,0.17,0.57,0.28,0.84c1.14,3.49,3.37,6.62,3.37,6.62c2.64,4.16,5.9,7.77,9.95,10.56
		c12.2,8.4,25.13,9.61,38.72,3.76c0.22-0.1,0.44-0.22,0.65-0.34c0.04-0.02,0.06-0.07,0.4-0.42c-0.76-0.66-1.48-1.4-2.32-1.93
		C53.05,86.11,52.37,86.21,51.94,86.39z"/>
	<path class="st4" d="M42.36,12.77c0-1.51,0-2.95,0-4.36c-2.69,0-5.27,0-7.82,0c0,1.53,0,2.94,0,4.36
		C37.2,12.77,39.78,12.77,42.36,12.77z"/>
	<path class="st4" d="M38.58,50.75c-1.86-0.06-3.52,1.56-3.51,3.43c0.01,1.81,1.58,3.37,3.39,3.38c1.84,0.02,3.38-1.49,3.41-3.34
		C41.9,52.37,40.41,50.8,38.58,50.75z"/>
	<path class="st4" d="M49.27,3.98c0.12-3.95,0.14-3.95-3.78-3.95c-1.87,0-3.74-0.01-5.61,0.01h-7.74c-0.93-0.01-1.87,0-2.8,0
		c-0.29,0-0.66-0.11-0.87,0.03c-1.62,1.05-0.41,2.67-0.73,3.99c-0.18,0.76,0.19,1.18,1.05,1.18c6.44-0.01,12.88-0.01,19.32,0
		C49.03,5.24,49.25,4.83,49.27,3.98z"/>
	<path class="st4" d="M70.8,27.58c0.65-0.67,1.5-1.42,2.18-2.3c0.24-0.31,0.25-1.11,0.02-1.42c-0.61-0.81-1.41-1.48-2.14-2.21
		c-2.94-2.93-2.94-2.93-5.71,0.21c-0.06,0.07-0.08,0.17-0.04,0.12C66.98,23.82,68.82,25.63,70.8,27.58z"/>
	<path class="st4" d="M97.89,67.49c0-2.22,0.01-2.32-2.13-2.58c-2.01-0.24-2.96-1.17-3.89-3.07c-1.3-2.65-1.21-4.67,0.72-6.75
		c0.56-0.6,0.5-1.16-0.16-1.75c-0.96-0.84-1.92-1.71-2.7-2.71c-0.92-1.19-1.78-1.12-2.77-0.21c-1.73,1.59-3.55,1.9-5.55,0.49
		c-0.38-0.27-0.9-0.39-1.37-0.5c-1.26-0.28-1.86-1.07-2.11-2.32c-0.67-3.3-0.7-3.29-4.11-3.29c-3.29,0-3.25,0.01-3.92,3.23
		c-0.14,0.71-0.56,1.78-1.06,1.91c-1.96,0.51-3.53,2.24-5.75,1.85c-0.26-0.05-0.49-0.3-0.74-0.46c-0.94-0.6-1.89-1.21-3.2-2.04
		c-0.58,0.72-1.13,1.47-1.75,2.17c-0.81,0.91-2.23,1.71-2.35,2.69c-0.12,0.96,1.06,2.08,1.69,3.12c0.91,1.49-1.13,6.79-2.81,7.29
		c-0.04,0.01-0.09,0.02-0.14,0.03c-1.21,0.33-2.9,0.3-3.49,1.09c-0.62,0.83-0.19,2.45-0.22,3.72c0,0.09,0,0.19,0,0.29
		c0.07,2.68-0.54,2.28,2.38,2.8c1.87,0.33,2.67,1.21,3.53,2.9c1.38,2.71,1.26,4.85-0.74,7.04c-0.22,0.24-0.23,0.99-0.02,1.23
		c1.3,1.47,2.68,2.86,3.97,4.2c0.38-0.12,0.53-0.15,0.65-0.22c0.25-0.14,0.52-0.28,0.74-0.47c1.92-1.73,3.77-1.79,6.24-0.69
		c2.15,0.96,3.29,2.01,3.38,4.3c0.05,1.4,0.74,2.1,2.26,1.86c0.81-0.12,1.66-0.01,2.5-0.02c2.61-0.04,2.32,0.48,2.75-2.26
		c0.31-1.99,1.25-2.84,3.06-3.73c2.63-1.3,4.67-1.25,6.75,0.72c0.62,0.59,1.17,0.45,1.74-0.18c0.85-0.94,1.73-1.88,2.71-2.7
		c1.03-0.87,1.22-1.67,0.27-2.69c-1.62-1.74-1.51-3.41-0.66-5.7c0.98-2.63,2.54-3.58,5.01-3.78c0.96-0.07,1.36-0.53,1.31-1.57
		C97.83,69.66,97.89,68.57,97.89,67.49z M80.3,83.63c-10.84,4.44-22.56-3.29-22.56-14.87c-0.07-2.87,0.7-5.53,2.07-8.03
		c0,0,0.03-0.06,0.1-0.17c0.11-0.19,0.22-0.36,0.34-0.51c0.75-1.07,2.51-3.25,5.49-5.26c0.22-0.19,0.49-0.35,0.78-0.51
		c8.01-4.25,18.15-0.8,22.12,7.54C92.55,70.06,88.67,80.2,80.3,83.63z"/>
	<path class="st4" d="M72.31,55.68c-1.53,0.24-3.02,0.81-4.48,1.36c0,0-3.3,1.45-5,4.46c-0.1,0.22-0.22,0.45-0.35,0.68
		c-4.29,7.81-0.19,17.22,8.4,19.34c5.09,1.26,10.52-0.74,13.7-5.06c3.11-4.21,3.36-10.03,0.64-14.57
		C82.54,57.43,77.37,54.88,72.31,55.68z M76.11,76.2c-0.39,0.22-0.51,0.86-0.84,1.22c-0.4,0.43-0.88,1.03-1.35,1.06
		c-0.48,0.03-1.01-0.53-1.47-0.89c-0.48-0.38-0.88-0.86-1.37-1.22c-0.43-0.31-1.12-0.4-1.37-0.8c-0.36-0.58-0.44-1.34-0.64-2.02
		c0.68-0.2,1.38-0.58,2.05-0.54c0.75,0.04,1.46,0.6,2.21,0.68c1.16,0.12,2.16-0.31,2.49-1.57c0.35-1.31-0.45-1.82-1.54-2.24
		c-1.18-0.46-2.38-0.97-3.41-1.69c-2.73-1.9-2.43-5.69,0.48-7.3c0.46-0.25,0.85-0.73,1.13-1.19c0.67-1.09,2.21-1.29,2.57-0.17
		c0.37,1.14,1.25,1.39,2.02,1.92c0.9,0.62,1.26,1.41,0.64,2.38c-0.2,0.32-0.71,0.45-1.12,0.69c-0.49-0.23-0.91-0.48-1.36-0.63
		c-0.59-0.19-1.24-0.48-1.81-0.39c-0.48,0.07-1.09,0.53-1.25,0.97c-0.12,0.34,0.24,1.08,0.6,1.32c0.77,0.51,1.65,0.87,2.52,1.18
		c2.05,0.74,3.56,2.02,3.68,4.29C79.09,73.44,78.04,75.09,76.11,76.2z"/>
	<path class="st4" d="M56.07,48.5c2.44-2.44,3.5-2.55,6.41-0.65c2.03,1.33,4.3,0.39,4.79-1.99c0.1-0.48,0.06-1.05,0.31-1.43
		c1.22-1.84,0.01-3.22-0.8-4.79c-0.74,0.41-1.4,0.8-2.1,1.15c-0.88,0.44-1.81,0.32-2.09-0.61c-0.17-0.56,0.21-1.47,0.64-1.97
		c0.47-0.56,1.28-0.83,2.03-1.29c-2.51-3.9-5.63-7-9.52-9.52c-0.63,1.06-1.21,2.02-1.77,2.99c-0.54,0.93-1.2,1.69-2.34,0.99
		c-1.11-0.68-0.78-1.66-0.26-2.58c0.54-0.96,1.1-1.92,1.69-2.96c-4.2-2.05-8.39-3.34-13.03-3.38c0,0.91,0.06,1.65-0.02,2.37
		c-0.1,0.93-0.66,1.72-1.62,1.46c-0.57-0.15-1.17-0.91-1.39-1.53c-0.24-0.68-0.05-1.51-0.05-2.36c-4.76,0.21-8.98,1.32-13.03,3.49
		c0.67,1.17,1.23,2.14,1.78,3.12c0.53,0.93,0.58,1.84-0.44,2.42c-0.99,0.56-1.67-0.04-2.17-0.88c-0.62-1.04-1.23-2.08-1.87-3.15
		c-3.92,2.58-7.05,5.67-9.51,9.53c0.78,0.47,1.43,0.82,2.04,1.23c0.77,0.52,1.21,1.19,0.63,2.11c-0.56,0.87-1.34,0.9-2.19,0.47
		c-0.68-0.34-1.34-0.72-2-1.08C8.09,43.3,6.5,49.43,6.85,52.6c1.14,0,2.31-0.02,3.48,0.01c1.06,0.02,1.89,0.47,1.84,1.64
		c-0.04,1.08-0.84,1.47-1.85,1.47c-1.16,0-2.33,0-3.62,0c0.19,4.69,1.34,8.92,3.47,13.02c0.74-0.43,1.36-0.81,2.01-1.15
		c0.84-0.44,1.63-0.43,2.19,0.45c0.59,0.92,0.17,1.59-0.6,2.12c-0.64,0.43-1.32,0.81-2.05,1.26c2.52,3.88,5.62,7,9.52,9.5
		c0.65-1.11,1.24-2.12,1.84-3.12c0.49-0.83,1.13-1.46,2.15-0.91c1.05,0.57,0.99,1.48,0.48,2.41c-0.56,1.03-1.15,2.04-1.8,3.17
		c4.11,2.11,8.33,3.31,13.04,3.46c0-0.87-0.02-1.6,0.01-2.32c0.04-0.96,0.5-1.62,1.52-1.62s1.48,0.68,1.55,1.62
		c0.05,0.72,0.01,1.45,0.01,2.3c4-0.07,7.71-0.73,10.89-2.57c1.43-0.82,1.98-3.16,2.91-4.81c0.03-0.05-0.07-0.18-0.1-0.27
		c-0.54-1.63-1.23-2.91-3.32-3.09c-2.37-0.2-3.33-1.46-3.41-3.83c-0.05-1.52-0.02-3.05-0.01-4.57c0.02-3.11,0.74-4,3.75-4.64
		c2.81-0.6,3.71-2.71,2.16-5.09c-0.13-0.21-0.27-0.41-0.4-0.62c-1.14-1.84-0.98-3.33,0.54-4.89C54.05,50.51,55.06,49.51,56.07,48.5z
		 M44.73,55.74c-0.63,2.77-3.31,4.82-6.29,4.81c-2.99-0.02-5.52-2-6.21-4.89c-0.71-3,0.66-5.92,3.58-7.3
		c0.91-0.43,1.18-0.94,1.15-1.89c-0.06-2.35-0.02-4.71-0.02-7.07c0-2.45,0.02-4.91,0-7.36c-0.01-1.11,0.28-2.11,1.51-2.12
		c1.31-0.01,1.61,1.02,1.61,2.18c-0.02,4.81,0.01,9.63-0.03,14.44c0,0.87,0.15,1.37,1.05,1.79C44.08,49.72,45.44,52.59,44.73,55.74z
		"/>
</g>
</svg>
