<?xml version="1.0" encoding="utf-8"?>
<!-- Generator: Adobe Illustrator 25.0.0, SVG Export Plug-In . SVG Version: 6.00 Build 0)  -->
<svg version="1.1" id="Layer_1" xmlns="http://www.w3.org/2000/svg" xmlns:xlink="http://www.w3.org/1999/xlink" x="0px" y="0px"
	 viewBox="0 0 186.62 186.63" style="enable-background:new 0 0 186.62 186.63;" xml:space="preserve">
<style type="text/css">
	.st0{fill:#185AE9;}
	.st1{fill:#00B0FB;}
	.st2{fill:#00B0FB;fill-opacity:0.4;}
	.st3{fill:#FFFFFF;}
	.st4{fill:#001135;}
	.st5{fill:#3C7CFF;}
	.st6{fill-rule:evenodd;clip-rule:evenodd;fill:#252F3E;}
	.st7{fill-rule:evenodd;clip-rule:evenodd;fill:#FF9900;}
	.st8{fill:#8D3124;}
	.st9{fill:#E05244;}
	.st10{fill:#F7ADAE;}
	.st11{fill:#5B1E19;}
	.st12{fill:#F58436;}
	.st13{fill:#9D5026;}
	.st14{fill:#1A476F;}
	.st15{fill:#1F5B98;}
	.st16{fill:#2D72B8;}
	.st17{fill:#5294CF;}
	.st18{fill:#FF9900;}
	.st19{fill:#252F3E;}
	.st20{fill:#FDFDFD;}
	.st21{fill:#DBDBDB;}
	.st22{fill:#040404;}
	.st23{fill:#0C0C0C;}
	.st24{fill:#010101;}
	.st25{fill:#D9D9D9;}
	.st26{fill:#DCDCDC;}
	.st27{fill:#D7D7D7;}
	.st28{fill:#D8D8D8;}
	.st29{fill:#111111;}
	.st30{fill:#050505;}
	.st31{fill:#070707;}
	.st32{fill:#060606;}
	.st33{fill:#030303;}
	.st34{fill:#020202;}
	.st35{fill:#151515;}
	.st36{fill:#0F0F0F;}
	.st37{fill:#606060;}
	.st38{fill:#FCFCFC;}
	.st39{fill:#0A0A0A;}
	.st40{fill:#191919;}
	.st41{fill:#0D0D0D;}
	.st42{fill:#101010;}
	.st43{fill:#090909;}
	.st44{fill:#161616;}
	.st45{fill:#080808;}
	.st46{fill-rule:evenodd;clip-rule:evenodd;fill:#00B0FB;}
</style>
<g>
	<path class="st1" d="M19.74,181.96h-3.28c-5.4,0-9.8-4.39-9.8-9.8V47.82c0-0.39,0.31-0.7,0.7-0.7h9.61v-2.28H2v127.32
		c0.01,4.3,1.9,8.15,4.89,10.8h12.86V181.96z"/>
	<path class="st1" d="M129.71,95.92l-15.27-7.63c-0.07-0.04-0.24-0.08-0.31-0.08c-0.18,0-0.36,0.07-0.49,0.2l-6.05,6.05l-3.3-3.3
		l4.62-4.62c0.16-0.16,0.23-0.39,0.2-0.61c-0.03-0.22-0.17-0.41-0.38-0.51l-6.41-3.21c-0.07-0.04-0.24-0.08-0.31-0.08
		c-0.18,0-0.36,0.07-0.49,0.2l-6.05,6.05l-3.3-3.3l4.62-4.62c0.16-0.16,0.23-0.39,0.2-0.61c-0.03-0.22-0.17-0.41-0.38-0.51
		l-3.68-1.84l-7.44-0.08c-0.19,0-0.36,0.07-0.49,0.2l-5.18,5.18c-0.44,0.44-1.03,0.68-1.65,0.68H62.98c-0.89,0-1.69-0.49-2.09-1.29
		l-2.19-4.39c-0.12-0.23-0.36-0.39-0.63-0.39h-4.19c-0.39,0-0.7,0.31-0.7,0.7v24.26c0,0.39,0.31,0.7,0.7,0.7h78.85
		c0.39,0,0.7-0.31,0.7-0.7v-0.44C133.45,99.39,132.02,97.07,129.71,95.92z"/>
	<path class="st1" d="M132.74,107.78H53.88c-0.39,0-0.7,0.31-0.7,0.7c0,3.73,3.04,6.77,6.77,6.77h66.72c3.73,0,6.77-3.04,6.77-6.77
		C133.44,108.09,133.12,107.78,132.74,107.78z"/>
	<path class="st2" d="M23.56,156.3h-6.07c-0.39,0-0.7,0.31-0.7,0.7v6.07c0,0.39,0.31,0.7,0.7,0.7h6.07c0.39,0,0.7-0.31,0.7-0.7V157
		C24.26,156.61,23.94,156.3,23.56,156.3z"/>
	<path class="st2" d="M108.47,156.3h-6.07c-0.39,0-0.7,0.31-0.7,0.7v6.07c0,0.39,0.31,0.7,0.7,0.7h6.07c0.39,0,0.7-0.31,0.7-0.7V157
		C109.17,156.61,108.86,156.3,108.47,156.3z"/>
	<path class="st2" d="M172.16,4.66H14.46c-5.4,0-9.8,4.4-9.8,9.8v27.3c0,0.38,0.31,0.7,0.7,0.7h175.9c0.39,0,0.7-0.32,0.7-0.7v-27.3
		C181.96,9.06,177.56,4.66,172.16,4.66z M102.41,34.99c-6.3,0-11.43-5.13-11.43-11.43c0-6.3,5.13-11.43,11.43-11.43
		c6.3,0,11.43,5.13,11.43,11.43C113.84,29.86,108.71,34.99,102.41,34.99z M132.74,34.99c-6.31,0-11.44-5.13-11.44-11.43
		c0-6.3,5.13-11.43,11.44-11.43c6.3,0,11.43,5.13,11.43,11.43C144.17,29.86,139.04,34.99,132.74,34.99z M163.06,34.99
		c-6.3,0-11.43-5.13-11.43-11.43c0-6.3,5.13-11.43,11.43-11.43c6.31,0,11.43,5.13,11.43,11.43
		C174.49,29.86,169.37,34.99,163.06,34.99z"/>
	<path class="st3" d="M172.16,0H14.46C6.49,0.01,0.01,6.49,0,14.46v157.7c0.01,7.97,6.49,14.46,14.46,14.47h157.7
		c7.97-0.01,14.46-6.5,14.46-14.47V14.46C186.62,6.49,180.13,0.01,172.16,0z M172.16,4.66c5.4,0,9.8,4.4,9.8,9.8v27.3
		c0,0.38-0.31,0.7-0.7,0.7H5.36c-0.39,0-0.7-0.32-0.7-0.7v-27.3c0-5.4,4.4-9.8,9.8-9.8H172.16z M14.46,181.96
		c-5.4,0-9.8-4.39-9.8-9.8V47.82c0-0.39,0.31-0.7,0.7-0.7h175.9c0.39,0,0.7,0.31,0.7,0.7v124.34c0,5.41-4.4,9.8-9.8,9.8H14.46z"/>
	<path class="st3" d="M26.59,151.64H14.46c-1.29,0-2.33,1.04-2.33,2.33v12.13c0,1.28,1.04,2.33,2.33,2.33h12.13
		c1.29,0,2.33-1.05,2.33-2.33v-12.13C28.92,152.68,27.88,151.64,26.59,151.64z M24.26,163.07c0,0.38-0.32,0.7-0.7,0.7h-6.07
		c-0.38,0-0.7-0.32-0.7-0.7V157c0-0.39,0.32-0.7,0.7-0.7h6.07c0.38,0,0.7,0.31,0.7,0.7V163.07z"/>
	<rect x="36.39" y="151.64" class="st3" width="53.19" height="4.66"/>
	<rect x="121.3" y="163.77" class="st3" width="53.19" height="4.66"/>
	<rect x="36.39" y="163.77" class="st3" width="53.19" height="4.66"/>
	<path class="st3" d="M111.51,151.64H99.38c-1.29,0-2.34,1.04-2.34,2.33v12.13c0,1.28,1.05,2.33,2.34,2.33h12.13
		c1.28,0,2.33-1.05,2.33-2.33v-12.13C113.84,152.68,112.79,151.64,111.51,151.64z M109.17,163.07c0,0.38-0.31,0.7-0.7,0.7h-6.06
		c-0.39,0-0.7-0.32-0.7-0.7V157c0-0.39,0.31-0.7,0.7-0.7h6.06c0.39,0,0.7,0.31,0.7,0.7V163.07z"/>
	<path class="st3" d="M132.74,12.13c-6.31,0-11.44,5.13-11.44,11.43c0,6.3,5.13,11.43,11.44,11.43c6.3,0,11.43-5.13,11.43-11.43
		C144.17,17.26,139.04,12.13,132.74,12.13z M132.74,30.33c-3.73,0-6.77-3.04-6.77-6.77c0-3.73,3.04-6.77,6.77-6.77
		s6.76,3.04,6.76,6.77C139.5,27.29,136.47,30.33,132.74,30.33z"/>
	<path class="st3" d="M102.41,12.13c-6.3,0-11.43,5.13-11.43,11.43c0,6.3,5.13,11.43,11.43,11.43c6.3,0,11.43-5.13,11.43-11.43
		C113.84,17.26,108.71,12.13,102.41,12.13z M102.41,30.33c-3.73,0-6.77-3.04-6.77-6.77c0-3.73,3.04-6.77,6.77-6.77
		c3.73,0,6.76,3.04,6.76,6.77C109.17,27.29,106.14,30.33,102.41,30.33z"/>
	<path class="st3" d="M163.06,12.13c-6.3,0-11.43,5.13-11.43,11.43c0,6.3,5.13,11.43,11.43,11.43c6.31,0,11.43-5.13,11.43-11.43
		C174.49,17.26,169.37,12.13,163.06,12.13z M163.06,30.33c-3.73,0-6.76-3.04-6.76-6.77c0-3.73,3.03-6.77,6.76-6.77
		s6.77,3.04,6.77,6.77C169.83,27.29,166.79,30.33,163.06,30.33z"/>
	<rect x="121.3" y="151.64" class="st3" width="53.19" height="4.66"/>
	<path class="st3" d="M172.16,54.59H14.46c-1.29,0-2.33,1.04-2.33,2.33v78.85c0,1.29,1.04,2.33,2.33,2.33h157.7
		c1.29,0,2.33-1.04,2.33-2.33V56.92C174.49,55.63,173.45,54.59,172.16,54.59z M169.83,132.74c0,0.38-0.31,0.7-0.7,0.7H17.49
		c-0.38,0-0.7-0.32-0.7-0.7V59.95c0-0.38,0.32-0.7,0.7-0.7h151.64c0.39,0,0.7,0.32,0.7,0.7V132.74z"/>
	<path class="st3" d="M131.78,91.74L94.35,73.03c-0.32-0.16-0.68-0.25-1.04-0.25h-9.1c-0.61,0-1.21,0.25-1.65,0.69l-5.18,5.18
		c-0.13,0.13-0.3,0.2-0.49,0.2H64.86c-0.27,0-0.51-0.15-0.63-0.39l-2.18-4.39c-0.39-0.79-1.2-1.29-2.1-1.29h-9.1
		c-1.28,0-2.33,1.05-2.33,2.34v33.36c0,6.3,5.13,11.43,11.43,11.43h66.72c6.3,0,11.43-5.13,11.43-11.43v-6.51
		C138.12,97.6,135.69,93.68,131.78,91.74z M126.67,115.24H59.95c-3.73,0-6.77-3.03-6.77-6.76c0-0.39,0.32-0.7,0.7-0.7h78.86
		c0.38,0,0.7,0.31,0.7,0.7C133.44,112.21,130.4,115.24,126.67,115.24z M133.44,102.41c0,0.39-0.32,0.7-0.7,0.7H53.88
		c-0.38,0-0.7-0.31-0.7-0.7V78.15c0-0.39,0.32-0.7,0.7-0.7h4.2c0.26,0,0.51,0.15,0.62,0.39l2.19,4.38c0.4,0.8,1.2,1.29,2.09,1.29
		h15.17c0.62,0,1.21-0.24,1.65-0.68l5.18-5.18c0.13-0.13,0.3-0.2,0.49-0.2l7.44,0.07l3.68,1.84c0.2,0.1,0.35,0.3,0.38,0.51
		c0.04,0.22-0.04,0.45-0.2,0.62l-4.61,4.61l3.29,3.3l6.05-6.05c0.14-0.13,0.31-0.2,0.5-0.2c0.07,0,0.24,0.04,0.31,0.07l6.41,3.21
		c0.21,0.1,0.35,0.29,0.38,0.51c0.04,0.22-0.03,0.45-0.19,0.61l-4.62,4.62l3.29,3.3l6.06-6.05c0.13-0.13,0.3-0.21,0.49-0.21
		c0.07,0,0.24,0.04,0.31,0.08l15.27,7.63c2.31,1.15,3.74,3.47,3.73,6.05V102.41z"/>
</g>
</svg>
