<?xml version="1.0" encoding="utf-8"?>
<!-- Generator: Adobe Illustrator 24.3.0, SVG Export Plug-In . SVG Version: 6.00 Build 0)  -->
<svg version="1.1" id="Layer_1" xmlns="http://www.w3.org/2000/svg" xmlns:xlink="http://www.w3.org/1999/xlink" x="0px" y="0px"
	 width="169.6px" height="142.9px" viewBox="0 0 169.6 142.9" style="enable-background:new 0 0 169.6 142.9;" xml:space="preserve"
	>
<style type="text/css">
	.st0{fill:#00B0FB;}
	.st1{fill:#00B0FB;fill-opacity:0.4;}
	.st2{fill:#FFFFFF;}
	.st3{fill:none;}
	.st4{fill:#001135;}
	.st5{fill:#3C7CFF;}
	.st6{fill:#3C7CFF;stroke:#001135;stroke-width:0.7602;stroke-miterlimit:10;}
	.st7{fill:#DBDBDB;}
	.st8{fill:#B9B9B9;}
	.st9{fill:#080808;}
	.st10{fill:#060606;}
	.st11{fill:#070707;}
	.st12{fill:#121212;}
	.st13{fill:#111111;}
	.st14{fill:#090909;}
	.st15{fill:#FDFDFD;}
	.st16{fill:#F9F9F9;}
	.st17{fill:#F3F2F3;}
	.st18{fill:#FAFAFA;}
	.st19{fill:#0A0A0A;}
	.st20{fill:#EEEEEE;}
	.st21{fill:#0D0D0D;}
	.st22{fill:#0C0C0C;}
	.st23{fill:#0E0E0E;}
	.st24{fill:#050505;}
	.st25{fill:#3A3A3A;}
	.st26{fill:#525252;}
	.st27{fill:#474747;}
	.st28{fill:#1E1E1E;}
	.st29{fill:#1D1D1D;}
	.st30{fill:#222222;}
	.st31{fill:#494949;}
	.st32{fill:#585858;}
	.st33{fill:#EDEDED;}
	.st34{fill:#F0F0F0;}
	.st35{fill:#EAEAEA;}
	.st36{fill:#EAE9EA;}
	.st37{fill:#040404;}
	.st38{fill:#F4F3F4;}
</style>
<g>
	<g>
		<path class="st0" d="M112.9,80.5c-0.2-0.5-0.8-0.9-1.5-0.9H65.1c-0.4,0-0.8-0.2-1-0.6c-0.2-0.4-0.2-0.8-0.1-1.1l0.1-0.1
			c-0.4,0.2-0.9,0.3-1.4,0.4c-0.2,0.5-0.4,1-0.6,1.5c0.7,0.5,1.3,1.2,1.7,2c0.4,0.1,0.8,0.3,1.1,0.5c0,0,0.1,0,0.1,0
			c0.7-0.2,1.5-0.4,2.4-0.4c1.6,0,3,0.4,4.1,1.2c0.9-0.5,2-0.7,3.3-0.7c0,0,0.1,0,0.1,0c0.6-0.2,1.3-0.2,2-0.2
			c0.7,0,1.3,0.1,1.9,0.2c0.9-0.4,1.8-0.6,2.8-0.4c5.2,0.7,10.2,0.1,15.4,0c4.9-0.1,9.9,0.1,14.9,0.2c0.3,0,0.5,0,0.8,0
			C113,81.6,113.1,81,112.9,80.5z"/>
		<path class="st1" d="M159.6,4H10c-3.3,0-6,2.7-6,6v101.5c0,3.3,2.7,6,6,6h149.6c3.3,0,6-2.7,6-6V10C165.6,6.7,162.9,4,159.6,4z
			 M158.9,108.8c0,1.1-0.9,2-2,2H12.7c-1.1,0-2-0.9-2-2V12.7c0-1.1,0.9-2,2-2h144.2c1.1,0,2,0.9,2,2V108.8z"/>
		<path class="st0" d="M113.9,41.3c0,0-9-0.4-9-0.4c-0.3,0-0.5,0.2-0.5,0.5l-0.8,8.9c0,0.1,0,0.3,0.1,0.4c0.1,0.1,0.2,0.2,0.4,0.2
			h8.1c0.2,0,0.4-0.2,0.5-0.4l1.7-8.5c0-0.1,0-0.3-0.1-0.4S114,41.3,113.9,41.3z"/>
		<path class="st0" d="M111.1,54.8h-7.6c-0.3,0-0.5,0.2-0.5,0.5l-0.9,9.4c0,0.1,0,0.3,0.1,0.4c0.1,0.1,0.2,0.1,0.3,0.1
			c0,0,0,0,0.1,0l2.7-0.3c2.6-0.3,4.7-2.2,5.2-4.8l0.9-4.7c0-0.1,0-0.3-0.1-0.4S111.3,54.8,111.1,54.8z"/>
		<path class="st0" d="M99.8,40.6c0,0-9.9-0.5-9.9-0.5c-0.1,0-0.3,0-0.3,0.1c-0.1,0.1-0.2,0.2-0.2,0.4v9.6c0,0.3,0.2,0.5,0.5,0.5h9
			c0.3,0,0.5-0.2,0.5-0.5l0.8-9.1c0-0.1,0-0.3-0.1-0.4S100,40.6,99.8,40.6z"/>
		<path class="st0" d="M104,121.5h-9.2c-0.2,0-0.4,0.2-0.5,0.4l-0.9,3.6c-1,3.9-4.5,6.7-8.6,6.7c-4.1,0-7.6-2.8-8.6-6.7l-0.9-3.6
			c-0.1-0.2-0.3-0.4-0.5-0.4h-9.2c-0.3,0-0.5,0.2-0.5,0.4l-2,16.4c0,0.1,0,0.3,0.1,0.4c0.1,0.1,0.2,0.2,0.4,0.2H106
			c0.1,0,0.3-0.1,0.4-0.2c0.1-0.1,0.1-0.3,0.1-0.4l-2-16.4C104.4,121.7,104.2,121.5,104,121.5z"/>
		<path class="st0" d="M98.5,54.8H90c-0.3,0-0.5,0.2-0.5,0.5v10.9c0,0.1,0.1,0.3,0.2,0.4c0.1,0.1,0.2,0.1,0.3,0.1c0,0,0,0,0.1,0
			l7.7-0.9c0.2,0,0.4-0.2,0.4-0.5l0.9-10c0-0.1,0-0.3-0.1-0.4C98.8,54.8,98.7,54.8,98.5,54.8z"/>
		<path class="st0" d="M85,54.8h-7.8c-0.1,0-0.3,0.1-0.4,0.2c-0.1,0.1-0.1,0.3-0.1,0.4l2,12.1c0,0.2,0.3,0.4,0.5,0.4c0,0,0,0,0.1,0
			l5.8-0.7c0.3,0,0.4-0.2,0.4-0.5V55.2C85.5,55,85.3,54.8,85,54.8z"/>
		<path class="st0" d="M85,40c0,0-10.4-0.5-10.4-0.5c-0.1,0-0.3,0.1-0.4,0.2c-0.1,0.1-0.1,0.3-0.1,0.4l1.7,10.3
			c0,0.2,0.2,0.4,0.5,0.4H85c0.3,0,0.5-0.2,0.5-0.5v-9.8C85.5,40.2,85.3,40,85,40z"/>
		<path class="st0" d="M72.1,54.8h-8c-0.2,0-0.3,0.1-0.4,0.2c-0.1,0.1-0.1,0.3-0.1,0.4l3.2,11.1C67.2,68,68.5,69,70,69
			c0.1,0,0.3,0,0.4,0l3.8-0.5c0.1,0,0.3-0.1,0.3-0.2c0.1-0.1,0.1-0.2,0.1-0.4l-2.1-12.7C72.5,54.9,72.3,54.8,72.1,54.8z"/>
		<path class="st0" d="M71.6,50.6c0.1-0.1,0.1-0.3,0.1-0.4L70,39.7c0-0.2-0.2-0.4-0.5-0.4c0,0-10-0.5-10-0.5c-0.2,0-0.3,0.1-0.4,0.2
			C59,39.1,59,39.3,59,39.4l3.1,11c0.1,0.2,0.3,0.4,0.5,0.4h8.6C71.4,50.8,71.5,50.7,71.6,50.6z"/>
		<path class="st2" d="M70.6,87.8c-0.1,0.7-0.7,1.3-1.4,1.4c-0.1,0-0.2,0-0.4,0c-0.6,0-1.1-0.2-1.4-0.7c-0.4-0.4-0.5-1-0.4-1.5
			c0.1-0.7,0.7-1.3,1.4-1.4c0.1,0,0.2,0,0.4,0c0.6,0,1.1,0.2,1.4,0.7C70.6,86.7,70.7,87.3,70.6,87.8z"/>
		<path class="st2" d="M108,87.8c-0.1,0.7-0.7,1.3-1.4,1.4c-0.1,0-0.2,0-0.4,0c-0.5,0-1.1-0.2-1.4-0.7c-0.4-0.4-0.5-1-0.4-1.5
			c0.1-0.7,0.7-1.3,1.4-1.4c0.1,0,0.2,0,0.4,0c0.5,0,1.1,0.2,1.4,0.7C108,86.7,108.1,87.3,108,87.8z"/>
		<path class="st2" d="M118,38.5c-0.3-0.3-0.7-0.6-1.1-0.6l-58.8-2.7l-0.1,0c-0.4,0-0.8-0.3-1-0.7c-0.3-0.9-0.9-1.7-1.7-2.3
			l-7.2-4.8c-0.2-0.2-0.5-0.2-0.8-0.2c-0.5,0-1,0.2-1.2,0.7c-0.4,0.7-0.3,1.6,0.4,2.1l7.2,4.8c0.1,0.1,0.2,0.2,0.4,0.4
			c0,0.1,0.1,0.2,0.1,0.3l9.2,32.1c0.2,0.9,0.6,1.6,1.2,2.4c0.2,0.3,0.2,0.7,0.1,1l-3.3,6.6c-0.3,0.7-0.5,1.3-0.5,1.9
			c0,1.3,0.6,2.6,1.7,3.4c0.4,0.3,0.5,0.9,0.3,1.3c-1.3,2.3-1.2,5.1,0.3,7.3c0.9,1.4,2.4,2.3,4,2.7c0.6,0.1,1.1,0.2,1.6,0.2
			c3.8,0,6.8-3.1,6.8-6.8c0-0.9-0.2-1.7-0.5-2.5c-0.1-0.3-0.1-0.7,0.1-0.9c0.2-0.3,0.5-0.5,0.8-0.5h22.8c0.3,0,0.6,0.2,0.8,0.5
			c0.2,0.3,0.2,0.6,0.1,0.9c-0.8,2.2-0.5,4.6,0.9,6.5c0.9,1.3,2.4,2.3,4,2.6c0.5,0.1,1,0.2,1.5,0.2c3.8,0,6.8-3.1,6.8-6.8
			c0-1.1-0.2-2.1-0.7-3c-0.2-0.4-0.1-0.9,0.2-1.2c0.5-0.4,0.6-1.1,0.4-1.7c-0.2-0.5-0.8-0.9-1.5-0.9H65.1c-0.4,0-0.8-0.2-1-0.6
			c-0.2-0.4-0.2-0.8-0.1-1.1l3.1-6.2c0.2-0.3,0.5-0.5,0.9-0.5c0.1,0,0.1,0,0.2,0c0.6,0.1,1.1,0.2,1.7,0.2c0.3,0,0.5,0,0.8-0.1
			l35.1-4.1c4.1-0.5,7.4-3.5,8.2-7.6l4.2-21C118.4,39.3,118.3,38.8,118,38.5z M102.4,86.7c0.3-1.5,1.5-2.7,3-3
			c0.2,0,0.5-0.1,0.7-0.1c1.1,0,2.2,0.5,3,1.4c0.7,0.9,1,2,0.8,3.2c-0.3,1.5-1.5,2.7-3,3c-0.2,0-0.5,0.1-0.7,0.1
			c-1.2,0-2.2-0.5-3-1.4C102.5,89,102.2,87.9,102.4,86.7z M65,86.7c0.3-1.5,1.5-2.7,3-3c0.2,0,0.5-0.1,0.7-0.1c1.1,0,2.2,0.5,3,1.4
			c0.7,0.9,1,2,0.8,3.2c-0.3,1.5-1.5,2.7-3,3c-0.2,0-0.5,0.1-0.7,0.1c-1.2,0-2.2-0.5-3-1.4C65.1,89,64.8,87.9,65,86.7z M62.7,50.8
			c-0.2,0-0.4-0.2-0.5-0.4l-3.1-11c0-0.2,0-0.3,0.1-0.5c0.1-0.1,0.2-0.2,0.4-0.2c0,0,10,0.5,10,0.5c0.2,0,0.4,0.2,0.5,0.4l1.7,10.5
			c0,0.1,0,0.3-0.1,0.4c-0.1,0.1-0.2,0.2-0.4,0.2H62.7z M74.6,68.3c-0.1,0.1-0.2,0.2-0.3,0.2l-3.8,0.5c-0.1,0-0.3,0-0.4,0
			c-1.5,0-2.8-1-3.2-2.4l-3.2-11.1c0-0.2,0-0.3,0.1-0.4c0.1-0.1,0.2-0.2,0.4-0.2h8c0.2,0,0.4,0.2,0.5,0.4l2.1,12.7
			C74.7,68,74.7,68.2,74.6,68.3z M85.5,66.7c0,0.2-0.2,0.5-0.4,0.5l-5.8,0.7h-0.1c-0.2,0-0.5-0.2-0.5-0.4l-2-12.1
			c0-0.1,0-0.3,0.1-0.4c0.1-0.1,0.2-0.2,0.4-0.2H85c0.3,0,0.5,0.2,0.5,0.5V66.7z M85.5,50.2c0,0.3-0.2,0.5-0.5,0.5h-8.7
			c-0.2,0-0.4-0.2-0.5-0.4l-1.7-10.3c0-0.2,0-0.3,0.1-0.4c0.1-0.1,0.2-0.2,0.4-0.2c0,0,10.4,0.5,10.4,0.5c0.3,0,0.5,0.2,0.5,0.5
			V50.2z M98.1,65.3c0,0.2-0.2,0.4-0.4,0.5L90,66.6H90c-0.1,0-0.2,0-0.3-0.1c-0.1-0.1-0.2-0.2-0.2-0.4V55.2c0-0.3,0.2-0.5,0.5-0.5
			h8.6c0.1,0,0.3,0.1,0.4,0.2C99,55,99,55.2,99,55.3L98.1,65.3z M99.5,50.3c0,0.2-0.2,0.5-0.5,0.5h-9c-0.3,0-0.5-0.2-0.5-0.5v-9.6
			c0-0.1,0.1-0.3,0.2-0.4c0.1-0.1,0.2-0.1,0.3-0.1c0,0,9.9,0.5,9.9,0.5c0.1,0,0.3,0.1,0.4,0.2c0.1,0.1,0.1,0.2,0.1,0.4L99.5,50.3z
			 M110.7,60c-0.5,2.6-2.6,4.5-5.2,4.8l-2.7,0.3h-0.1c-0.1,0-0.3,0-0.3-0.1c-0.1-0.1-0.2-0.3-0.2-0.4l0.8-9.4c0-0.3,0.2-0.5,0.5-0.5
			h7.6c0.1,0,0.3,0.1,0.4,0.2c0.1,0.1,0.1,0.3,0.1,0.4L110.7,60z M112.6,50.3c-0.1,0.2-0.2,0.4-0.5,0.4H104c-0.1,0-0.3-0.1-0.4-0.2
			c-0.1-0.1-0.1-0.2-0.1-0.4l0.8-8.9c0-0.2,0.2-0.5,0.5-0.5c0,0,9,0.4,9,0.4c0.1,0,0.3,0.1,0.4,0.2c0.1,0.1,0.1,0.3,0.1,0.4
			L112.6,50.3z"/>
		<path class="st2" d="M159.6,0H10C4.5,0,0,4.5,0,10v101.5c0,5.5,4.5,10,10,10h50.6c0.1,0,0.3,0.1,0.4,0.2c0.1,0.1,0.1,0.2,0.1,0.4
			l-2,16.4c0,0.2-0.2,0.4-0.5,0.4h-8.3c-1.1,0-2,0.8-2.1,1.8c-0.1,0.6,0.1,1.1,0.5,1.5c0.4,0.4,0.9,0.7,1.5,0.7h69.3
			c1.1,0,2-0.8,2.1-1.8c0.1-0.6-0.1-1.1-0.5-1.5c-0.4-0.4-0.9-0.7-1.5-0.7h-8.5c-0.2,0-0.5-0.2-0.5-0.4l-2.1-16.4
			c0-0.1,0-0.3,0.1-0.4c0.1-0.1,0.2-0.2,0.4-0.2h50.6c5.5,0,10-4.5,10-10V10C169.6,4.5,165.1,0,159.6,0z M106.4,138.7
			c-0.1,0.1-0.2,0.2-0.4,0.2H63.6c-0.1,0-0.3-0.1-0.4-0.2c-0.1-0.1-0.1-0.2-0.1-0.4l2.1-16.4c0-0.2,0.2-0.4,0.5-0.4h9.2
			c0.2,0,0.4,0.2,0.5,0.4l0.9,3.6c1,3.9,4.5,6.7,8.6,6.7c4.1,0,7.6-2.8,8.6-6.7l0.9-3.6c0.1-0.2,0.3-0.4,0.5-0.4h9.2
			c0.2,0,0.5,0.2,0.5,0.4l2,16.4C106.5,138.5,106.5,138.6,106.4,138.7z M79.5,122.2c0-0.2,0-0.3,0.1-0.4c0.1-0.1,0.2-0.2,0.4-0.2
			h9.6c0.1,0,0.3,0.1,0.4,0.2c0.1,0.1,0.1,0.3,0.1,0.4l-0.6,2.2c-0.5,1.9-1.9,3.3-3.7,3.7c-0.3,0.1-0.7,0.1-1,0.1
			c-2.2,0-4.2-1.5-4.7-3.7L79.5,122.2z M165.6,111.5c0,3.3-2.7,6-6,6H10c-3.3,0-6-2.7-6-6V10c0-3.3,2.7-6,6-6h149.6c3.3,0,6,2.7,6,6
			V111.5z"/>
		<path class="st2" d="M156.9,10.7H12.7c-1.1,0-2,0.9-2,2v96.2c0,1.1,0.9,2,2,2h144.2c1.1,0,2-0.9,2-2V12.7
			C158.9,11.6,158,10.7,156.9,10.7z M154.9,104.8c0,1.1-0.9,2-2,2H16.7c-1.1,0-2-0.9-2-2V16.7c0-1.1,0.9-2,2-2h136.2
			c1.1,0,2,0.9,2,2V104.8z"/>
	</g>
</g>
</svg>
