<?xml version="1.0" encoding="utf-8"?>
<!-- Generator: Adobe Illustrator 24.3.0, SVG Export Plug-In . SVG Version: 6.00 Build 0)  -->
<svg version="1.1" id="Layer_1" xmlns="http://www.w3.org/2000/svg" xmlns:xlink="http://www.w3.org/1999/xlink" x="0px" y="0px"
	 width="116.6px" height="116.6px" viewBox="0 0 116.6 116.6" style="enable-background:new 0 0 116.6 116.6;" xml:space="preserve"
	>
<style type="text/css">
	.st0{fill:#185AE9;}
	.st1{fill:#00B0FB;}
	.st2{fill:#00B0FB;fill-opacity:0.4;}
	.st3{fill:#FFFFFF;}
	.st4{fill:#3C7CFF;}
	.st5{fill:#001135;}
</style>
<g>
	<path class="st3" d="M97,34.7c-2.3,0-4.2,1.9-4.2,4.2s1.9,4.2,4.2,4.2s4.2-1.9,4.2-4.2S99.3,34.7,97,34.7z"/>
	<circle class="st3" cx="44.1" cy="38.9" r="4.2"/>
	<path class="st3" d="M71,62.2c-2.3,0-4.2,1.9-4.2,4.2s1.9,4.2,4.2,4.2s4.2-1.9,4.2-4.2S73.3,62.2,71,62.2z"/>
	<path class="st4" d="M112.7,19.8H4.1c0,0-0.2,0-0.2,0c-0.2,0-0.4,0.1-0.5,0.2c-0.1,0.1-0.2,0.3-0.2,0.5v72.3c0,2.3,1.9,4.1,4.1,4.1
		h2.6c0.4,0,0.7-0.3,0.7-0.7v-6.6c0-0.9,0.7-1.6,1.6-1.6H27c0.9,0,1.6,0.7,1.6,1.6v23c0,0.4,0.3,0.7,0.7,0.7h6.5
		c0.4,0,0.7-0.3,0.7-0.7V64.2c0-0.9,0.7-1.6,1.6-1.6h14.8c0.9,0,1.6,0.7,1.6,1.6v48.5c0,0.4,0.3,0.7,0.7,0.7h6.5
		c0.4,0,0.7-0.3,0.7-0.7v-29c0-0.9,0.7-1.6,1.6-1.6h14.8c0.9,0,1.6,0.7,1.6,1.6v29c0,0.4,0.3,0.7,0.7,0.7h6.5c0.4,0,0.7-0.3,0.7-0.7
		v-52c0-0.9,0.7-1.6,1.6-1.6h14.8c0.9,0,1.6,0.7,1.6,1.6v35.5c0,0.4,0.3,0.7,0.7,0.7h2.6c2.3,0,4.1-1.9,4.1-4.1V20.5
		C113.4,20.1,113.1,19.8,112.7,19.8z M30.6,29.4c0.3-0.3,0.8-0.5,1.3-0.5c0.5,0,0.9,0.2,1.3,0.5c0.3,0.3,0.5,0.8,0.5,1.3
		c0,0.5-0.2,0.9-0.5,1.3c-0.3,0.3-0.8,0.5-1.3,0.5c-0.5,0-0.9-0.2-1.3-0.5c-0.3-0.3-0.5-0.8-0.5-1.3C30.1,30.2,30.2,29.7,30.6,29.4z
		 M12.2,28.8h11.1c1,0,1.8,0.8,1.8,1.8s-0.8,1.8-1.8,1.8H12.2c-1,0-1.8-0.8-1.8-1.8S11.2,28.8,12.2,28.8z M10.4,41.7
		c0-1,0.8-1.8,1.8-1.8h11.1c1,0,1.8,0.8,1.8,1.8s-0.8,1.8-1.8,1.8H12.2C11.2,43.5,10.4,42.7,10.4,41.7z M97,46.7c-1,0-2-0.2-2.9-0.5
		c-0.1,0-0.1,0-0.2,0c-0.1,0-0.3,0.1-0.4,0.1L77.9,62c-0.2,0.2-0.2,0.4-0.1,0.6c0.6,1.2,1,2.4,1,3.8c0,4.3-3.5,7.8-7.8,7.8
		c-4.3,0-7.8-3.5-7.8-7.8c0-1.5,0.4-2.9,1.2-4.1c0.1-0.2,0.1-0.5-0.1-0.6L48.5,45.8c-0.1-0.1-0.2-0.1-0.4-0.1c-0.1,0-0.2,0-0.2,0.1
		c-1.1,0.6-2.4,1-3.8,1c-1.2,0-2.3-0.3-3.4-0.8c-0.1,0-0.1-0.1-0.2-0.1c-0.1,0-0.3,0.1-0.4,0.1L26.3,59.8c-0.2,0.2-0.2,0.4-0.1,0.6
		c0.6,1.2,1,2.4,1,3.8c0,4.3-3.5,7.8-7.8,7.8c-4.3,0-7.8-3.5-7.8-7.8c0-4.3,3.5-7.8,7.8-7.8c1.3,0,2.6,0.3,3.8,1
		c0.1,0,0.2,0.1,0.2,0.1c0.1,0,0.3,0,0.4-0.1l13.6-13.6c0.2-0.2,0.2-0.4,0.1-0.6c-0.8-1.2-1.2-2.6-1.2-4.1c0-4.3,3.5-7.8,7.8-7.8
		c4.3,0,7.8,3.5,7.8,7.8c0,1.3-0.3,2.6-1,3.8c-0.1,0.2-0.1,0.4,0.1,0.6l16,16c0.1,0.1,0.2,0.1,0.4,0.1c0.1,0,0.2,0,0.2-0.1
		c1-0.5,2.2-0.8,3.4-0.8c1.3,0,2.6,0.3,3.8,1c0.1,0,0.2,0.1,0.2,0.1c0.1,0,0.3,0,0.4-0.1l15.3-15.3c0.2-0.2,0.2-0.4,0-0.6
		c-1-1.3-1.5-2.9-1.5-4.6c0-4.3,3.5-7.8,7.8-7.8s7.8,3.5,7.8,7.8C104.8,43.2,101.3,46.7,97,46.7z"/>
	<path class="st3" d="M105.8,3.2h-95c-4.2,0-7.6,3.4-7.6,7.6v5.1c0,0.2,0.1,0.4,0.2,0.5c0.1,0.1,0.3,0.2,0.5,0.2c0.1,0,0.2,0,0.2,0
		h108.5c0.4,0,0.7-0.3,0.7-0.7v-5.1C113.4,6.6,110,3.2,105.8,3.2z M15.3,11.2c-0.3,0.3-0.8,0.5-1.3,0.5c-0.5,0-0.9-0.2-1.3-0.5
		c-0.3-0.3-0.5-0.8-0.5-1.3s0.2-0.9,0.5-1.3s0.8-0.5,1.3-0.5c0.5,0,0.9,0.2,1.3,0.5c0.3,0.3,0.5,0.8,0.5,1.3S15.7,10.8,15.3,11.2z
		 M24.5,11.2c-0.3,0.3-0.8,0.5-1.3,0.5c-0.5,0-0.9-0.2-1.3-0.5c-0.3-0.3-0.5-0.8-0.5-1.3S21.7,9,22,8.6s0.8-0.5,1.3-0.5
		c0.5,0,0.9,0.2,1.3,0.5c0.3,0.3,0.5,0.8,0.5,1.3S24.9,10.8,24.5,11.2z M33.8,11.2c-0.3,0.3-0.8,0.5-1.3,0.5c-0.5,0-0.9-0.2-1.3-0.5
		c-0.3-0.3-0.5-0.8-0.5-1.3s0.2-0.9,0.5-1.3s0.8-0.5,1.3-0.5c0.5,0,0.9,0.2,1.3,0.5c0.3,0.3,0.5,0.8,0.5,1.3S34.1,10.8,33.8,11.2z
		 M102.6,11.7H50.5c-1,0-1.8-0.8-1.8-1.8s0.8-1.8,1.8-1.8h52.1c1,0,1.8,0.8,1.8,1.8S103.5,11.7,102.6,11.7z"/>
	<path class="st3" d="M19.4,60c-2.3,0-4.2,1.9-4.2,4.2s1.9,4.2,4.2,4.2s4.2-1.9,4.2-4.2S21.7,60,19.4,60z"/>
	<path class="st5" d="M24.7,91.2H14.5c-0.4,0-0.7,0.3-0.7,0.7v20.7c0,0.4,0.3,0.7,0.7,0.7h10.1c0.4,0,0.7-0.3,0.7-0.7V91.9
		C25.4,91.6,25,91.2,24.7,91.2z"/>
	<path class="st5" d="M50.5,65.8H40.3c-0.4,0-0.7,0.3-0.7,0.7v46.2c0,0.4,0.3,0.7,0.7,0.7h10.1c0.4,0,0.7-0.3,0.7-0.7V66.5
		C51.2,66.1,50.9,65.8,50.5,65.8z"/>
	<path class="st5" d="M76.3,85.3H66.1c-0.4,0-0.7,0.3-0.7,0.7v26.7c0,0.4,0.3,0.7,0.7,0.7h10.1c0.4,0,0.7-0.3,0.7-0.7V86
		C77,85.6,76.7,85.3,76.3,85.3z"/>
	<path class="st5" d="M102.1,62.3H91.9c-0.4,0-0.7,0.3-0.7,0.7v49.7c0,0.4,0.3,0.7,0.7,0.7h10.1c0.4,0,0.7-0.3,0.7-0.7V63
		C102.8,62.6,102.5,62.3,102.1,62.3z"/>
	<path class="st5" d="M105.8,0h-95C4.9,0,0,4.9,0,10.8v82c0,4.1,3.3,7.3,7.3,7.3h2.6c0.4,0,0.7,0.3,0.7,0.7v11.9
		c0,0.4-0.3,0.7-0.7,0.7H1.6c-0.9,0-1.6,0.7-1.6,1.6s0.7,1.6,1.6,1.6H115c0.9,0,1.6-0.7,1.6-1.6s-0.7-1.6-1.6-1.6h-8.3
		c-0.4,0-0.7-0.3-0.7-0.7v-11.9c0-0.4,0.3-0.7,0.7-0.7h2.6c4.1,0,7.3-3.3,7.3-7.3v-82C116.6,4.9,111.7,0,105.8,0z M25.4,112.7
		c0,0.4-0.3,0.7-0.7,0.7H14.5c-0.4,0-0.7-0.3-0.7-0.7V91.9c0-0.4,0.3-0.7,0.7-0.7h10.1c0.4,0,0.7,0.3,0.7,0.7V112.7z M51.2,112.7
		c0,0.4-0.3,0.7-0.7,0.7H40.3c-0.4,0-0.7-0.3-0.7-0.7V66.5c0-0.4,0.3-0.7,0.7-0.7h10.1c0.4,0,0.7,0.3,0.7,0.7V112.7z M77,112.7
		c0,0.4-0.3,0.7-0.7,0.7H66.1c-0.4,0-0.7-0.3-0.7-0.7V86c0-0.4,0.3-0.7,0.7-0.7h10.1c0.4,0,0.7,0.3,0.7,0.7V112.7z M102.8,112.7
		c0,0.4-0.3,0.7-0.7,0.7H91.9c-0.4,0-0.7-0.3-0.7-0.7V63c0-0.4,0.3-0.7,0.7-0.7h10.1c0.4,0,0.7,0.3,0.7,0.7V112.7z M113.4,92.8
		c0,2.3-1.9,4.1-4.1,4.1h-2.6c-0.4,0-0.7-0.3-0.7-0.7V60.7c0-0.9-0.7-1.6-1.6-1.6H89.6c-0.9,0-1.6,0.7-1.6,1.6v52
		c0,0.4-0.3,0.7-0.7,0.7h-6.5c-0.4,0-0.7-0.3-0.7-0.7v-29c0-0.9-0.7-1.6-1.6-1.6H63.8c-0.9,0-1.6,0.7-1.6,1.6v29
		c0,0.4-0.3,0.7-0.7,0.7h-6.5c-0.4,0-0.7-0.3-0.7-0.7V64.2c0-0.9-0.7-1.6-1.6-1.6H38c-0.9,0-1.6,0.7-1.6,1.6v48.5
		c0,0.4-0.3,0.7-0.7,0.7h-6.5c-0.4,0-0.7-0.3-0.7-0.7v-23c0-0.9-0.7-1.6-1.6-1.6H12.2c-0.9,0-1.6,0.7-1.6,1.6v6.6
		c0,0.4-0.3,0.7-0.7,0.7H7.3c-2.3,0-4.1-1.9-4.1-4.1V20.5c0-0.2,0.1-0.4,0.2-0.5c0.1-0.1,0.3-0.2,0.5-0.2c0,0,0.2,0,0.2,0h108.5
		c0.4,0,0.7,0.3,0.7,0.7V92.8z M113.4,15.9c0,0.4-0.3,0.7-0.7,0.7H4.1c0,0-0.1,0-0.2,0c-0.2,0-0.3-0.1-0.5-0.2
		c-0.1-0.1-0.2-0.3-0.2-0.5v-5.1c0-4.2,3.4-7.6,7.6-7.6h95c4.2,0,7.6,3.4,7.6,7.6V15.9z"/>
	<path class="st5" d="M102.6,8.1H50.5c-1,0-1.8,0.8-1.8,1.8s0.8,1.8,1.8,1.8h52.1c1,0,1.8-0.8,1.8-1.8S103.5,8.1,102.6,8.1z"/>
	<path class="st5" d="M23.3,8.1c-0.5,0-0.9,0.2-1.3,0.5s-0.5,0.8-0.5,1.3s0.2,0.9,0.5,1.3c0.3,0.3,0.8,0.5,1.3,0.5
		c0.5,0,0.9-0.2,1.3-0.5s0.5-0.8,0.5-1.3S24.9,9,24.5,8.6C24.2,8.3,23.7,8.1,23.3,8.1z"/>
	<path class="st5" d="M14.1,8.1c-0.5,0-0.9,0.2-1.3,0.5s-0.5,0.8-0.5,1.3s0.2,0.9,0.5,1.3c0.3,0.3,0.8,0.5,1.3,0.5
		c0.5,0,0.9-0.2,1.3-0.5s0.5-0.8,0.5-1.3S15.7,9,15.3,8.6C15,8.3,14.5,8.1,14.1,8.1z"/>
	<path class="st5" d="M32.5,8.1c-0.5,0-0.9,0.2-1.3,0.5s-0.5,0.8-0.5,1.3s0.2,0.9,0.5,1.3c0.3,0.3,0.8,0.5,1.3,0.5
		c0.5,0,0.9-0.2,1.3-0.5s0.5-0.8,0.5-1.3S34.1,9,33.8,8.6C33.4,8.3,33,8.1,32.5,8.1z"/>
	<path class="st5" d="M97,31.1c-4.3,0-7.8,3.5-7.8,7.8c0,1.7,0.5,3.2,1.5,4.6c0.1,0.2,0.1,0.5,0,0.6L75.4,59.5
		c-0.1,0.1-0.2,0.1-0.4,0.1c-0.1,0-0.2,0-0.2-0.1c-1.2-0.6-2.5-1-3.8-1c-1.2,0-2.4,0.3-3.4,0.8c-0.1,0-0.1,0.1-0.2,0.1
		c-0.1,0-0.3-0.1-0.4-0.1l-16-16c-0.2-0.2-0.2-0.4-0.1-0.6c0.6-1.2,1-2.5,1-3.8c0-4.3-3.5-7.8-7.8-7.8c-4.3,0-7.8,3.5-7.8,7.8
		c0,1.4,0.4,2.9,1.2,4.1c0.1,0.2,0.1,0.5-0.1,0.6L23.8,57.2c-0.1,0.1-0.2,0.1-0.4,0.1c-0.1,0-0.2,0-0.2-0.1c-1.1-0.6-2.5-1-3.8-1
		c-4.3,0-7.8,3.5-7.8,7.8c0,4.3,3.5,7.8,7.8,7.8c4.3,0,7.8-3.5,7.8-7.8c0-1.3-0.3-2.6-1-3.8c-0.1-0.2-0.1-0.4,0.1-0.6L40.1,46
		c0.1-0.1,0.2-0.1,0.4-0.1c0.1,0,0.1,0,0.2,0.1c1.1,0.5,2.2,0.8,3.4,0.8c1.3,0,2.6-0.3,3.8-1c0.1,0,0.2-0.1,0.2-0.1
		c0.1,0,0.3,0,0.4,0.1l15.8,15.8c0.2,0.2,0.2,0.4,0.1,0.6c-0.8,1.2-1.2,2.6-1.2,4.1c0,4.3,3.5,7.8,7.8,7.8c4.3,0,7.8-3.5,7.8-7.8
		c0-1.3-0.3-2.6-1-3.8c-0.1-0.2-0.1-0.4,0.1-0.6l15.7-15.7c0.1-0.1,0.2-0.1,0.4-0.1c0.1,0,0.1,0,0.2,0c0.9,0.4,1.9,0.5,2.9,0.5
		c4.3,0,7.8-3.5,7.8-7.8C104.8,34.6,101.3,31.1,97,31.1z M19.4,68.3c-2.3,0-4.2-1.9-4.2-4.2s1.9-4.2,4.2-4.2s4.2,1.9,4.2,4.2
		S21.7,68.3,19.4,68.3z M44.1,43.1c-2.3,0-4.2-1.9-4.2-4.2s1.9-4.2,4.2-4.2s4.2,1.9,4.2,4.2S46.4,43.1,44.1,43.1z M71,70.6
		c-2.3,0-4.2-1.9-4.2-4.2s1.9-4.2,4.2-4.2s4.2,1.9,4.2,4.2S73.3,70.6,71,70.6z M97,43.1c-2.3,0-4.2-1.9-4.2-4.2s1.9-4.2,4.2-4.2
		s4.2,1.9,4.2,4.2S99.3,43.1,97,43.1z"/>
	<path class="st5" d="M31.9,32.5c0.5,0,0.9-0.2,1.3-0.5c0.3-0.3,0.5-0.8,0.5-1.3c0-0.5-0.2-0.9-0.5-1.3c-0.3-0.3-0.8-0.5-1.3-0.5
		c-0.5,0-0.9,0.2-1.3,0.5c-0.3,0.3-0.5,0.8-0.5,1.3c0,0.5,0.2,0.9,0.5,1.3C30.9,32.3,31.4,32.5,31.9,32.5z"/>
	<path class="st5" d="M12.2,32.5h11.1c1,0,1.8-0.8,1.8-1.8s-0.8-1.8-1.8-1.8H12.2c-1,0-1.8,0.8-1.8,1.8S11.2,32.5,12.2,32.5z"/>
	<path class="st5" d="M23.3,43.5c1,0,1.8-0.8,1.8-1.8s-0.8-1.8-1.8-1.8H12.2c-1,0-1.8,0.8-1.8,1.8s0.8,1.8,1.8,1.8H23.3z"/>
</g>
</svg>
