<?xml version="1.0" encoding="utf-8"?>
<!-- Generator: Adobe Illustrator 25.0.0, SVG Export Plug-In . SVG Version: 6.00 Build 0)  -->
<svg version="1.1" id="Layer_1" xmlns="http://www.w3.org/2000/svg" xmlns:xlink="http://www.w3.org/1999/xlink" x="0px" y="0px"
	 viewBox="0 0 131.72 173.62" style="enable-background:new 0 0 131.72 173.62;" xml:space="preserve">
<style type="text/css">
	.st0{fill:#185AE9;}
	.st1{fill:#00B0FB;}
	.st2{fill:#00B0FB;fill-opacity:0.4;}
	.st3{fill:#FFFFFF;}
	.st4{fill:#3C7CFF;}
	.st5{fill:#001135;}
	.st6{fill:#00769D;}
	.st7{fill:#8DB849;}
	.st8{fill:#5A863E;}
	.st9{fill:#FFFFFE;}
	.st10{fill:#F26322;}
	.st11{fill:#009CDE;}
	.st12{clip-path:url(#SVGID_1_);}
	.st13{fill:#FFFFFF;filter:url(#Adobe_OpacityMaskFilter);}
	.st14{mask:url(#prefix__a_2_);}
	.st15{fill:#FFFFFF;filter:url(#Adobe_OpacityMaskFilter_1_);}
	.st16{mask:url(#prefix__b_2_);}
	.st17{fill:url(#SVGID_2_);}
	.st18{fill:url(#SVGID_3_);}
	.st19{fill:#FF2D20;}
	.st20{fill:#FDFDFD;}
	.st21{fill:#DBDBDB;}
	.st22{fill:#070707;}
	.st23{fill:#060605;}
	.st24{fill:#080707;}
	.st25{fill:#181717;}
	.st26{fill:#0F0F0F;}
	.st27{fill:#010101;}
	.st28{fill:#060606;}
	.st29{fill:#050505;}
	.st30{fill:#040404;}
	.st31{fill:#080808;}
	.st32{fill:#030303;}
	.st33{fill:#0C0C0C;}
	.st34{fill:#FEFEFE;}
	.st35{fill:#F8F8F8;}
	.st36{fill:#F1F1F1;}
	.st37{fill:#FAFAFA;}
	.st38{fill:#F9F9F9;}
	.st39{fill:#F2F2F2;}
	.st40{fill:#F7F7F7;}
	.st41{fill:#F3F3F3;}
	.st42{fill:#0D0D0D;}
	.st43{fill:#090909;}
	.st44{fill:#0A0A0A;}
	.st45{fill:#070807;}
	.st46{fill:#020202;}
	.st47{fill:#141414;}
	.st48{fill:#0E0E0E;}
	.st49{fill:#FCFCFC;}
	.st50{fill:#D2D3D3;}
	.st51{fill:#F6F6F6;}
	.st52{fill:#BABBBB;}
	.st53{fill:#8A8A8A;}
	.st54{fill:#8E8F8F;}
	.st55{fill:#5F5E5E;}
	.st56{fill-rule:evenodd;clip-rule:evenodd;fill:#7FC728;}
	.st57{fill:#00D8FF;}
</style>
<path class="st11" d="M93.24,36.6C81.04,24.71,69.47,13.14,66.03,0c-3.44,13.14-15.02,24.71-27.22,36.6
	C20.67,54.74,0.02,75.39,0.02,106.36c-0.94,36.29,28.15,66.63,64.44,67.26s66.63-28.15,67.26-64.44v-2.82
	C132.03,75.39,111.38,54.74,93.24,36.6L93.24,36.6z M33.81,112.3c-1.88,2.5-3.75,5.32-5.01,8.13c-0.31,0.31-0.63,0.94-1.25,0.94
	l-0.31,0c-1.56,0-3.13-2.82-3.13-2.82c-0.31-0.63-0.94-1.56-1.25-2.19l-0.31-0.62c-4.07-8.76-0.63-20.96-0.63-20.96
	c1.56-5.94,4.38-11.89,7.82-16.89c2.19-3.13,4.69-6.26,7.19-9.38l3.13,3.13l14.7,15.02c0.63,0.63,0.63,1.56,0,2.19l-15.33,17.21
	L33.81,112.3L33.81,112.3z M66.65,155.47c-12.51,0-22.83-10.32-22.52-22.83c0-5.63,2.19-10.95,5.63-15.02
	c4.69-5.63,10.64-11.26,17.21-18.77c7.51,8.13,12.51,13.45,17.21,19.71c0.31,0.31,0.63,0.94,0.94,1.56
	c2.5,3.75,4.07,8.13,4.07,12.83C89.49,145.46,79.17,155.47,66.65,155.47L66.65,155.47z M109.51,119.18
	c-0.31,0.94-1.25,1.56-2.19,1.88l-0.31,0c-0.94-0.31-1.56-0.94-2.19-1.56c-4.07-5.94-8.44-11.57-13.45-16.58l-5.94-6.26L65.4,76.01
	c-4.07-3.75-8.13-8.13-11.89-12.2c0-0.31-0.31-0.31-0.31-0.31c-0.63-0.94-1.25-1.88-1.56-3.13v-0.63c-0.63-3.44,0.63-6.88,3.13-9.38
	c3.75-3.75,7.82-7.82,11.57-11.89c4.07,4.38,8.44,8.76,12.83,13.14c8.76,8.13,16.58,17.21,23.77,26.9
	c5.94,8.44,9.07,18.14,9.07,28.47C111.39,110.74,110.76,115.11,109.51,119.18L109.51,119.18z"/>
</svg>
