<?xml version="1.0" encoding="utf-8"?>
<!-- Generator: Adobe Illustrator 25.0.0, SVG Export Plug-In . SVG Version: 6.00 Build 0)  -->
<svg version="1.1" id="Layer_1" xmlns="http://www.w3.org/2000/svg" xmlns:xlink="http://www.w3.org/1999/xlink" x="0px" y="0px"
	 viewBox="0 0 171.61 171.75" style="enable-background:new 0 0 171.61 171.75;" xml:space="preserve">
<style type="text/css">
	.st0{fill:#00B0FB;}
	.st1{fill:#00B0FB;fill-opacity:0.4;}
	.st2{fill:#FFFFFF;}
	.st3{fill:#185AE9;}
	.st4{fill-rule:evenodd;clip-rule:evenodd;fill:#00B0FB;}
	.st5{fill:#00769D;}
	.st6{fill:#8DB849;}
	.st7{fill:#5A863E;}
	.st8{fill:#FFFFFE;}
	.st9{clip-path:url(#SVGID_2_);fill:#F9C638;}
	.st10{fill:#2A2D2C;}
	.st11{fill:#F9C638;}
	.st12{fill:#009CDE;}
	.st13{fill:#92003B;}
	.st14{fill:#001135;}
	.st15{fill:#3C7CFF;}
	.st16{fill:#DBDBDB;}
	.st17{fill:#FDFDFD;}
	.st18{fill:#FBFBFB;}
	.st19{fill:#FCFCFC;}
	.st20{fill:#E7E7E7;}
	.st21{fill:#FEFEFE;}
	.st22{fill:#EAEAEA;}
	.st23{fill:#E8E8E8;}
	.st24{fill:#E4E4E4;}
	.st25{fill:#D0CFD0;}
	.st26{fill:#E4E3E4;}
	.st27{fill:#C6C5C6;}
	.st28{fill:#BDBDBD;}
	.st29{fill:#CDCDCD;}
	.st30{fill:#C7C7C7;}
	.st31{fill:#D9D9D9;}
	.st32{opacity:0.28;}
</style>
<g>
	<path class="st0" d="M167.07,153.15v7.37c0,2.89-2.35,5.23-5.23,5.23H9.77c-2.88,0-5.22-2.35-5.22-5.23v-10.98H2.55v17.55
		c1.79,1.97,4.36,3.2,7.22,3.2h152.07c2.94,0,5.58-1.31,7.38-3.37v-13.78H167.07z"/>
	<path class="st1" d="M140.98,134.58c-4.68,0-8.49,3.81-8.49,8.49c0,4.67,3.81,8.48,8.49,8.48c4.67,0,8.47-3.8,8.47-8.48
		C149.46,138.38,145.65,134.58,140.98,134.58z"/>
	<path class="st1" d="M161.83,4.55H9.77c-2.88,0-5.22,2.34-5.22,5.22v24.86c0,0.62,0.5,1.12,1.12,1.12h160.27
		c0.62,0,1.12-0.5,1.12-1.12V9.77C167.07,6.89,164.72,4.55,161.83,4.55z M71.04,22.43H20.03c-1.25,0-2.28-1.02-2.28-2.27
		c0-1.26,1.02-2.28,2.28-2.28h51.01c1.25,0,2.28,1.02,2.28,2.28C73.32,21.41,72.3,22.43,71.04,22.43z M120.37,24.24
		c-2.26,0-4.1-1.83-4.1-4.09c0-2.25,1.83-4.09,4.08-4.09c2.27,0,4.11,1.83,4.11,4.09C124.46,22.41,122.63,24.24,120.37,24.24z
		 M135.07,24.24c-2.26,0-4.1-1.83-4.1-4.09c0-2.25,1.83-4.09,4.08-4.09c2.26,0,4.11,1.83,4.11,4.09
		C139.16,22.41,137.33,24.24,135.07,24.24z M149.78,24.24c-2.26,0-4.1-1.83-4.1-4.09c0-2.25,1.83-4.09,4.08-4.09
		c2.27,0,4.11,1.83,4.11,4.09C153.86,22.41,152.03,24.24,149.78,24.24z"/>
	<path class="st0" d="M22.96,101.49c0.11,0.03,0.21,0.05,0.32,0.05c0.39,0,0.74-0.2,0.95-0.52L43.5,70.64
		c0.42-0.66,1.14-1.06,1.92-1.06s1.5,0.39,1.92,1.06l14.18,22.35c0.21,0.33,0.56,0.52,0.95,0.52s0.74-0.19,0.95-0.52l9.63-15.17
		c0.42-0.66,1.14-1.06,1.92-1.06s1.5,0.39,1.92,1.06l14.71,23.18c0.21,0.33,0.56,0.52,0.95,0.52c0.1,0,0.21-0.01,0.31-0.04
		c0.48-0.14,0.82-0.58,0.82-1.08V57.98c0-0.62-0.5-1.12-1.12-1.12H23.27c-0.62,0-1.12,0.5-1.12,1.12v42.43
		C22.15,100.9,22.48,101.35,22.96,101.49z"/>
	<path class="st1" d="M104.19,134.58c-4.67,0-8.48,3.81-8.48,8.49c0,4.67,3.8,8.48,8.48,8.48c4.68,0,8.48-3.8,8.48-8.48
		C112.68,138.38,108.87,134.58,104.19,134.58z"/>
	<path class="st1" d="M67.41,134.58c-4.67,0-8.48,3.81-8.48,8.49c0,4.67,3.8,8.48,8.48,8.48c4.67,0,8.48-3.8,8.48-8.48
		C75.89,138.38,72.09,134.58,67.41,134.58z"/>
	<path class="st1" d="M30.64,134.58c-4.68,0-8.49,3.81-8.49,8.49c0,4.67,3.81,8.48,8.49,8.48c4.67,0,8.48-3.8,8.48-8.48
		C39.11,138.38,35.31,134.58,30.64,134.58z"/>
	<path class="st0" d="M75.92,84.78c-0.21-0.33-0.56-0.52-0.95-0.52c-0.39,0-0.74,0.19-0.95,0.52l-8.47,13.34
		c-0.23,0.37-0.23,0.84,0,1.2l6.33,9.98c0.21,0.33,0.56,0.52,0.95,0.52h16.94c0.41,0,0.79-0.22,0.98-0.58
		c0.2-0.36,0.18-0.8-0.04-1.14L75.92,84.78z"/>
	<path class="st0" d="M46.37,77.6c-0.21-0.33-0.56-0.52-0.95-0.52c-0.39,0-0.74,0.19-0.95,0.52L25.11,108.1
		c-0.22,0.35-0.23,0.79-0.03,1.14c0.2,0.36,0.57,0.58,0.98,0.58h38.72c0.41,0,0.79-0.22,0.98-0.58c0.2-0.36,0.18-0.8-0.03-1.14
		L46.37,77.6z"/>
	<path class="st2" d="M135.06,16.07c-2.25,0-4.08,1.83-4.08,4.09c0,2.25,1.84,4.09,4.1,4.09c2.25,0,4.09-1.83,4.09-4.09
		C139.16,17.9,137.32,16.07,135.06,16.07z"/>
	<path class="st2" d="M149.76,16.07c-2.25,0-4.08,1.83-4.08,4.09c0,2.25,1.84,4.09,4.1,4.09c2.25,0,4.09-1.83,4.09-4.09
		C153.86,17.9,152.02,16.07,149.76,16.07z"/>
	<path class="st2" d="M120.35,16.07c-2.25,0-4.08,1.83-4.08,4.09c0,2.25,1.84,4.09,4.1,4.09c2.25,0,4.09-1.83,4.09-4.09
		C124.46,17.9,122.62,16.07,120.35,16.07z"/>
	<path class="st2" d="M71.04,17.88H20.03c-1.25,0-2.27,1.02-2.27,2.27c0,1.25,1.02,2.27,2.27,2.27h51.02c1.25,0,2.27-1.02,2.27-2.27
		C73.32,18.9,72.3,17.88,71.04,17.88z"/>
	<path class="st2" d="M161.83,0H9.77C4.38,0,0,4.38,0,9.77v152.2c0,5.39,4.38,9.78,9.77,9.78h152.07c5.39,0,9.78-4.39,9.78-9.78
		V9.77C171.61,4.38,167.23,0,161.83,0z M167.07,161.97c0,2.89-2.35,5.23-5.23,5.23H9.77c-2.88,0-5.22-2.35-5.22-5.23V41.43
		c0-0.62,0.5-1.12,1.12-1.12h160.27c0.62,0,1.12,0.5,1.12,1.12V161.97z M167.07,34.63c0,0.62-0.5,1.12-1.12,1.12H5.67
		c-0.62,0-1.12-0.5-1.12-1.12V9.77c0-2.88,2.34-5.22,5.22-5.22h152.07c2.89,0,5.23,2.34,5.23,5.22V34.63z"/>
	<path class="st2" d="M30.63,130.03c-7.18,0-13.04,5.85-13.04,13.04c0,7.18,5.85,13.02,13.04,13.02s13.02-5.84,13.02-13.02
		C43.66,135.88,37.82,130.03,30.63,130.03z M30.63,151.54c-4.68,0-8.49-3.8-8.49-8.48c0-4.68,3.81-8.49,8.49-8.49
		c4.67,0,8.48,3.81,8.48,8.49C39.11,147.74,35.31,151.54,30.63,151.54z"/>
	<path class="st2" d="M67.41,130.03c-7.18,0-13.02,5.85-13.02,13.04c0,7.18,5.84,13.02,13.02,13.02c7.18,0,13.02-5.84,13.02-13.02
		C80.44,135.88,74.6,130.03,67.41,130.03z M67.41,151.54c-4.67,0-8.48-3.8-8.48-8.48c0-4.68,3.8-8.49,8.48-8.49
		c4.67,0,8.48,3.81,8.48,8.49C75.89,147.74,72.09,151.54,67.41,151.54z"/>
	<path class="st2" d="M104.19,130.03c-7.18,0-13.02,5.85-13.02,13.04c0,7.18,5.84,13.02,13.02,13.02c7.19,0,13.04-5.84,13.04-13.02
		C117.23,135.88,111.38,130.03,104.19,130.03z M104.19,151.54c-4.67,0-8.48-3.8-8.48-8.48c0-4.68,3.8-8.49,8.48-8.49
		c4.68,0,8.48,3.81,8.48,8.49C112.68,147.74,108.87,151.54,104.19,151.54z"/>
	<path class="st2" d="M140.98,130.03c-7.19,0-13.04,5.85-13.04,13.04c0,7.18,5.85,13.02,13.04,13.02c7.18,0,13.02-5.84,13.02-13.02
		C154,135.88,148.16,130.03,140.98,130.03z M140.98,151.54c-4.68,0-8.48-3.8-8.48-8.48c0-4.68,3.81-8.49,8.48-8.49
		c4.67,0,8.48,3.81,8.48,8.49C149.46,147.74,145.65,151.54,140.98,151.54z"/>
	<path class="st2" d="M95.95,52.31H19.88c-1.25,0-2.27,1.02-2.27,2.27v57.54c0,0.03,0,0.07,0.01,0.14l0,0.07l0.04,0.22l0.05,0.2
		c0,0,0.08,0.21,0.09,0.24c0.01,0.02,0.09,0.18,0.09,0.19c0.01,0.02,0.07,0.11,0.1,0.16c0,0.01,0.01,0.03,0.02,0.04l0-0.01
		l0.05,0.07l0.08,0.1c0.03,0.04,0.07,0.07,0.11,0.12l0.04,0.04c0.03,0.03,0.05,0.05,0.14,0.12l0.03,0.03
		c0.01,0.01,0.18,0.13,0.18,0.13l0.07,0.04c0.07,0.04,0.14,0.08,0.24,0.12l0.04,0.02c0.08,0.04,0.17,0.07,0.23,0.09l0.11,0.03
		c0.07,0.02,0.14,0.03,0.24,0.05l0.07,0.01c0.08,0.01,0.16,0.01,0.22,0.01c0.05,0,0.07,0,0.07,0.01c0.03,0,76.02,0,76.02,0
		l0.08-0.01c0.08,0,0.16-0.01,0.24-0.01c0.01,0,0.03,0,0.09-0.01c0.07-0.01,0.13-0.03,0.21-0.05l0.07-0.01
		c0.09-0.03,0.17-0.06,0.23-0.08l0.08-0.04c0.08-0.04,0.15-0.08,0.23-0.13l0.04-0.02c0,0,0.16-0.12,0.17-0.12l0.17-0.15l0.08-0.09
		c0.03-0.03,0.06-0.06,0.08-0.08l0.12-0.16l0.06-0.09c0.03-0.04,0.05-0.08,0.07-0.11c0,0,0.09-0.18,0.1-0.2
		c0.01-0.03,0.02-0.06,0.05-0.15l0.02-0.06c0.01-0.02,0.05-0.19,0.06-0.21c0-0.02,0.03-0.21,0.04-0.24c0-0.01,0.01-0.2,0.02-0.25
		V54.58C98.22,53.33,97.2,52.31,95.95,52.31z M65.76,109.25c-0.2,0.36-0.57,0.58-0.98,0.58H26.06c-0.41,0-0.79-0.22-0.99-0.58
		c-0.2-0.36-0.18-0.8,0.04-1.15l19.36-30.51c0.21-0.33,0.56-0.52,0.95-0.52c0.38,0,0.74,0.19,0.95,0.52l19.36,30.5
		C65.95,108.45,65.96,108.88,65.76,109.25z M90.75,109.24c-0.2,0.36-0.57,0.58-0.98,0.58H72.83c-0.38,0-0.74-0.2-0.95-0.52
		l-6.33-9.98c-0.23-0.37-0.23-0.84,0-1.2l8.47-13.34c0.21-0.32,0.56-0.52,0.95-0.52c0.39,0,0.74,0.2,0.95,0.52l14.8,23.32
		C90.93,108.45,90.95,108.89,90.75,109.24z M93.67,100.41c0,0.5-0.34,0.94-0.82,1.08c-0.1,0.03-0.2,0.04-0.3,0.04
		c-0.39,0-0.74-0.2-0.95-0.52L76.89,77.82c-0.42-0.66-1.14-1.05-1.92-1.05c-0.78,0-1.5,0.4-1.92,1.05l-9.63,15.17
		c-0.21,0.32-0.56,0.52-0.95,0.52c-0.39,0-0.74-0.2-0.95-0.52L47.34,70.64c-0.42-0.66-1.14-1.05-1.92-1.05
		c-0.78,0-1.5,0.39-1.92,1.05l-19.28,30.37c-0.21,0.33-0.56,0.52-0.95,0.52c-0.11,0-0.21-0.01-0.32-0.04
		c-0.47-0.14-0.8-0.58-0.8-1.08V57.98c0-0.62,0.5-1.12,1.12-1.12h69.27c0.62,0,1.12,0.5,1.12,1.12V100.41z"/>
	<path class="st2" d="M153.87,54.58c0,1.25-1.02,2.28-2.27,2.28h-37.91c-1.25,0-2.28-1.02-2.28-2.28c0-1.25,1.02-2.27,2.28-2.27
		h37.91C152.85,52.31,153.87,53.33,153.87,54.58z"/>
	<path class="st2" d="M153.87,73.41c0,1.25-1.02,2.28-2.27,2.28h-37.91c-1.25,0-2.28-1.02-2.28-2.28c0-1.25,1.02-2.27,2.28-2.27
		h37.91C152.85,71.14,153.87,72.16,153.87,73.41z"/>
	<path class="st2" d="M153.87,92.24c0,1.25-1.02,2.28-2.27,2.28h-37.91c-1.25,0-2.28-1.02-2.28-2.28c0-1.25,1.02-2.27,2.28-2.27
		h37.91C152.85,89.97,153.87,90.98,153.87,92.24z"/>
	<path class="st2" d="M153.87,111.06c0,1.25-1.02,2.27-2.27,2.27h-37.91c-1.25,0-2.28-1.02-2.28-2.27c0-1.25,1.02-2.28,2.28-2.28
		h37.91C152.85,108.79,153.87,109.81,153.87,111.06z"/>
</g>
</svg>
