<?xml version="1.0" encoding="utf-8"?>
<!-- Generator: Adobe Illustrator 25.0.0, SVG Export Plug-In . SVG Version: 6.00 Build 0)  -->
<svg version="1.1" id="Layer_1" xmlns="http://www.w3.org/2000/svg" xmlns:xlink="http://www.w3.org/1999/xlink" x="0px" y="0px"
	 viewBox="0 0 211.59 174" style="enable-background:new 0 0 211.59 174;" xml:space="preserve">
<style type="text/css">
	.st0{fill:#00B0FB;}
	.st1{fill:#00B0FB;fill-opacity:0.4;}
	.st2{fill:#FFFFFF;}
	.st3{fill:#185AE9;}
	.st4{fill-rule:evenodd;clip-rule:evenodd;fill:#00B0FB;}
	.st5{fill:#00769D;}
	.st6{fill:#8DB849;}
	.st7{fill:#5A863E;}
	.st8{fill:#FFFFFE;}
	.st9{clip-path:url(#SVGID_2_);fill:#F9C638;}
	.st10{fill:#2A2D2C;}
	.st11{fill:#F9C638;}
	.st12{fill:#009CDE;}
	.st13{fill:#92003B;}
	.st14{fill:#001135;}
	.st15{fill:#3C7CFF;}
	.st16{fill:#DBDBDB;}
	.st17{fill:#FDFDFD;}
	.st18{fill:#FBFBFB;}
	.st19{fill:#FCFCFC;}
	.st20{fill:#E7E7E7;}
	.st21{fill:#FEFEFE;}
	.st22{fill:#EAEAEA;}
	.st23{fill:#E8E8E8;}
	.st24{fill:#E4E4E4;}
	.st25{fill:#D0CFD0;}
	.st26{fill:#E4E3E4;}
	.st27{fill:#C6C5C6;}
	.st28{fill:#BDBDBD;}
	.st29{fill:#CDCDCD;}
	.st30{fill:#C7C7C7;}
	.st31{fill:#D9D9D9;}
	.st32{opacity:0.28;}
</style>
<g>
	<path class="st0" d="M21.65,171.77v-1.76h-5.68c-5.81,0-10.54-4.73-10.54-10.54V64.65c0-5.81,4.73-10.54,10.54-10.54h5.26v-1.04
		h-14C3.69,55.75,1.45,60,1.45,64.65v94.82c0,5.15,2.69,9.67,6.74,12.25h4.16v0.05H21.65z"/>
	<path class="st1" d="M124.92,142.97c0-0.63-0.51-1.14-1.14-1.14h-25.1c-0.63,0-1.14,0.51-1.14,1.14v1.94
		c0,8.25-2.26,16.33-6.54,23.36c-0.21,0.35-0.22,0.8-0.02,1.15c0.2,0.36,0.58,0.58,1,0.58h38.51c0.41,0,0.79-0.22,0.99-0.58
		c0.2-0.36,0.19-0.8-0.02-1.15c-4.28-7.03-6.55-15.11-6.55-23.36V142.97z"/>
	<path class="st1" d="M59.05,83.67H23.73c-0.81,0-1.47,0.66-1.47,1.47v23.37c0,0.48,0.31,0.91,0.76,1.08
		c0.12,0.04,0.25,0.06,0.38,0.06c0.35,0,0.67-0.15,0.89-0.42l8.28-10.27c0.16-0.2,0.35-0.38,0.55-0.55
		c0.65-0.52,1.42-0.79,2.25-0.79c1.1,0,2.12,0.49,2.8,1.34l5.04,6.25c0.21,0.27,0.54,0.42,0.89,0.42c0.37,0,0.69-0.17,0.9-0.44
		l2.46-3.19c0.69-0.89,1.72-1.4,2.84-1.4c1.12,0,2.16,0.51,2.85,1.4l5.33,6.9c0.21,0.28,0.55,0.44,0.9,0.44
		c0.12,0,0.24-0.02,0.36-0.06c0.47-0.16,0.78-0.59,0.78-1.08V85.14C60.52,84.33,59.86,83.67,59.05,83.67z"/>
	<path class="st0" d="M51.21,106c-0.22-0.28-0.55-0.44-0.9-0.44c-0.35,0-0.69,0.17-0.9,0.45l-2.17,2.8c-0.32,0.42-0.32,1,0.02,1.42
		l3.83,4.75c0.22,0.27,0.54,0.42,0.89,0.42h4.17c0.44,0,0.83-0.24,1.03-0.64c0.19-0.39,0.15-0.85-0.12-1.2L51.21,106z"/>
	<path class="st1" d="M17.66,50.13h6.27c0.63,0,1.14-0.51,1.14-1.14V16.19c0-2.02,1.64-3.66,3.66-3.66h154.14
		c2.02,0,3.66,1.64,3.66,3.66v32.79c0,0.63,0.51,1.14,1.14,1.14h6.27c0.63,0,1.14-0.51,1.14-1.14V14.52
		c0-5.81-4.73-10.54-10.54-10.54H27.06c-5.81,0-10.54,4.73-10.54,10.54v34.46C16.52,49.61,17.03,50.13,17.66,50.13z"/>
	<path class="st0" d="M184.48,54.11h-16.01c-0.63,0-1.14,0.51-1.14,1.14v6.68c0,0.63,0.51,1.14,1.14,1.14h16.01
		c0.63,0,1.14-0.51,1.14-1.14v-6.68C185.62,54.62,185.11,54.11,184.48,54.11z"/>
	<path class="st0" d="M36.26,102.93c-0.22-0.27-0.54-0.42-0.89-0.42c-0.35,0-0.67,0.16-0.89,0.42l-8.55,10.61
		c-0.28,0.34-0.33,0.81-0.14,1.21c0.19,0.39,0.59,0.65,1.03,0.65h17.1c0.44,0,0.84-0.25,1.03-0.65c0.19-0.39,0.13-0.87-0.14-1.21
		L36.26,102.93z"/>
	<path class="st1" d="M194.13,97.74h-35.32c-0.81,0-1.47,0.66-1.47,1.47v23.37c0,0.49,0.3,0.92,0.76,1.08
		c0.12,0.04,0.25,0.07,0.38,0.07c0.34,0,0.67-0.16,0.88-0.43l8.28-10.27c0.16-0.2,0.35-0.39,0.55-0.55
		c0.65-0.51,1.42-0.79,2.23-0.79c0.13,0,0.27,0.01,0.4,0.03c0.96,0.11,1.81,0.57,2.41,1.32l5.04,6.25c0.21,0.27,0.54,0.42,0.89,0.42
		c0.36,0,0.69-0.16,0.9-0.44l2.46-3.19c0.58-0.76,1.43-1.25,2.38-1.37c0.16-0.02,0.32-0.03,0.47-0.03c0.79,0,1.55,0.26,2.19,0.75
		c0.24,0.18,0.46,0.41,0.65,0.65l5.33,6.91c0.22,0.28,0.55,0.45,0.91,0.45c0.12,0,0.24-0.02,0.36-0.06
		c0.47-0.16,0.78-0.59,0.78-1.08V99.21C195.61,98.4,194.95,97.74,194.13,97.74z M181.18,106.8c-0.02,0.13-0.06,0.25-0.11,0.37
		c-0.05,0.14-0.11,0.25-0.18,0.36c-0.07,0.1-0.15,0.2-0.25,0.3c-0.09,0.09-0.19,0.17-0.29,0.24c-0.12,0.08-0.23,0.14-0.35,0.19
		c-0.13,0.05-0.26,0.09-0.39,0.12c-0.11,0.02-0.24,0.03-0.37,0.03c-0.53,0-1.04-0.21-1.41-0.58c-0.1-0.1-0.18-0.21-0.26-0.32
		c-0.06-0.09-0.13-0.21-0.18-0.33c-0.04-0.11-0.08-0.23-0.11-0.36c-0.03-0.14-0.04-0.27-0.04-0.4c0-0.13,0.01-0.26,0.04-0.38
		c0.03-0.15,0.07-0.28,0.12-0.4c0.04-0.11,0.11-0.22,0.18-0.33c0.06-0.1,0.15-0.2,0.24-0.3c0.37-0.37,0.89-0.58,1.42-0.58
		c0.13,0,0.25,0.01,0.38,0.04c0.12,0.03,0.24,0.06,0.36,0.11c0.13,0.06,0.25,0.11,0.35,0.18c0.12,0.08,0.22,0.16,0.31,0.25
		c0.09,0.09,0.18,0.2,0.26,0.31c0.06,0.09,0.12,0.21,0.16,0.32c0.06,0.15,0.1,0.26,0.12,0.38c0.03,0.14,0.04,0.28,0.04,0.4
		C181.22,106.55,181.21,106.68,181.18,106.8z"/>
	<path class="st0" d="M186.29,120.07c-0.22-0.28-0.55-0.44-0.9-0.44c-0.35,0-0.69,0.17-0.9,0.44l-2.17,2.81
		c-0.32,0.42-0.32,1,0.02,1.41l3.83,4.75c0.22,0.27,0.54,0.42,0.89,0.42h4.17c0.43,0,0.83-0.25,1.02-0.64
		c0.19-0.39,0.15-0.85-0.12-1.2L186.29,120.07z"/>
	<path class="st0" d="M171.34,117c-0.22-0.27-0.54-0.42-0.89-0.42c-0.35,0-0.67,0.15-0.89,0.42l-8.55,10.61
		c-0.28,0.34-0.33,0.82-0.14,1.21c0.19,0.39,0.59,0.65,1.03,0.65H179c0.44,0,0.84-0.25,1.03-0.65c0.19-0.39,0.13-0.87-0.14-1.21
		L171.34,117z"/>
	<path class="st0" d="M138.6,29.05H73c-2.45,0-4.44,1.99-4.44,4.44v15.57c0,0.59,0.44,1.08,1.03,1.13c7.4,0.67,13.2,7.03,13.2,14.46
		v2.2c0,0.48,0.3,0.91,0.76,1.08c0.12,0.04,0.25,0.06,0.38,0.06c0.34,0,0.67-0.15,0.89-0.42l5.93-7.36
		c0.23-0.28,0.49-0.54,0.77-0.77c0.89-0.71,1.96-1.09,3.09-1.09c0.18,0,0.37,0.01,0.55,0.03c1.32,0.15,2.5,0.79,3.33,1.83
		l11.49,14.25c0.22,0.27,0.54,0.43,0.88,0.43c0.37,0,0.69-0.17,0.91-0.45l6.65-8.62c0.95-1.23,2.38-1.93,3.93-1.93h0
		c1.55,0,2.98,0.7,3.93,1.93l13.02,16.87c0.21,0.28,0.55,0.44,0.9,0.44c0.12,0,0.24-0.02,0.36-0.06c0.47-0.16,0.78-0.59,0.78-1.08
		V60.48c0-1.91,0.53-3.78,1.53-5.41c0.11-0.18,0.17-0.39,0.17-0.6V33.49C143.05,31.04,141.05,29.05,138.6,29.05z M110.9,56.47
		c-5.1,0-9.25-4.18-9.25-9.32c0-5.14,4.15-9.32,9.25-9.32c5.1,0,9.25,4.18,9.25,9.32C120.15,52.29,116,56.47,110.9,56.47z"/>
	<path class="st2" d="M110.9,37.83c-5.1,0-9.25,4.18-9.25,9.32c0,5.14,4.15,9.32,9.25,9.32c5.1,0,9.25-4.18,9.25-9.32
		C120.15,42.01,116,37.83,110.9,37.83z M110.9,52.49c-2.9,0-5.27-2.4-5.27-5.34c0-2.94,2.36-5.34,5.27-5.34
		c2.9,0,5.26,2.39,5.26,5.34C116.17,50.09,113.8,52.49,110.9,52.49z"/>
	<path class="st2" d="M201.25,50.13h-1.04c-0.63,0-1.14-0.51-1.14-1.14V14.53c0-8.01-6.51-14.53-14.53-14.53H27.06
		c-8.01,0-14.53,6.51-14.53,14.53V49.3c0,0.54-0.38,1.01-0.91,1.12C4.89,51.79,0,57.78,0,64.65v94.82C0,167.49,6.51,174,14.53,174
		h53.73c8.01,0,14.53-6.51,14.53-14.53v-16.5c0-0.63,0.51-1.14,1.14-1.14h8.49c0.63,0,1.14,0.51,1.14,1.14v1.95
		c0,8.11-2.39,15.98-6.89,22.74c-0.83,1.25-0.91,2.86-0.2,4.19c0.71,1.33,2.09,2.16,3.6,2.16h42.32c2.25,0,4.09-1.83,4.09-4.09
		c0-0.8-0.24-1.58-0.69-2.25c-4.5-6.76-6.88-14.62-6.88-22.74v-1.95c0-0.63,0.51-1.14,1.14-1.14h10.16c0.63,0,1.14,0.51,1.14,1.14
		v20.68c0,5.71,4.64,10.35,10.35,10.35h49.55c5.71,0,10.35-4.64,10.35-10.35V60.48C211.59,54.77,206.95,50.13,201.25,50.13z
		 M16.52,14.53c0-5.81,4.73-10.54,10.55-10.54h157.48c5.81,0,10.54,4.73,10.54,10.54v34.46c0,0.63-0.51,1.14-1.14,1.14h-6.27
		c-0.63,0-1.14-0.51-1.14-1.14V16.19c0-2.02-1.64-3.66-3.66-3.66H28.73c-2.02,0-3.66,1.65-3.66,3.66v32.79
		c0,0.63-0.51,1.14-1.14,1.14h-6.27c-0.63,0-1.14-0.51-1.14-1.14V14.53z M185.62,55.25v6.68c0,0.63-0.51,1.14-1.14,1.14h-16.01
		c-0.63,0-1.14-0.51-1.14-1.14v-6.68c0-0.63,0.51-1.14,1.14-1.14h16.01C185.11,54.11,185.62,54.62,185.62,55.25z M78.8,159.47
		c0,5.81-4.73,10.54-10.54,10.54H14.53c-5.81,0-10.54-4.73-10.54-10.54V64.65c0-5.81,4.73-10.54,10.54-10.54h53.73
		c5.81,0,10.54,4.73,10.54,10.54V159.47z M131.46,168.28c0.21,0.35,0.22,0.79,0.01,1.15c-0.2,0.36-0.58,0.58-0.99,0.58H91.97
		c-0.41,0-0.79-0.22-1-0.58c-0.2-0.36-0.19-0.8,0.02-1.15c4.28-7.04,6.54-15.11,6.54-23.36v-1.95c0-0.63,0.51-1.14,1.14-1.14h25.1
		c0.63,0,1.14,0.51,1.14,1.14v1.95C124.92,153.17,127.18,161.24,131.46,168.28z M141.35,136.71c0,0.63-0.51,1.14-1.14,1.14H83.92
		c-0.63,0-1.14-0.51-1.14-1.14v-18.8c0-0.63,0.51-1.14,1.14-1.14h56.29c0.63,0,1.14,0.51,1.14,1.14V136.71z M141.35,111.65
		c0,0.63-0.51,1.14-1.14,1.14H83.92c-0.63,0-1.14-0.51-1.14-1.14V96.52c0-0.63,0.51-1.14,1.14-1.14h54.68
		c0.46,0,0.94-0.04,1.41-0.13c0.04,0,0.16-0.01,0.2-0.01c0.27,0,0.53,0.1,0.73,0.27c0.26,0.21,0.41,0.54,0.41,0.87V111.65z
		 M117,89.53c0.27,0.34,0.33,0.82,0.14,1.21c-0.19,0.4-0.59,0.65-1.03,0.65H83.92c-0.63,0-1.14-0.51-1.14-1.14V76.84
		c0-0.26,0.09-0.52,0.25-0.72l10.69-13.26c0.22-0.27,0.54-0.42,0.88-0.42c0.35,0,0.67,0.15,0.89,0.42L117,89.53z M114,78.07
		l7.45-9.64c0.21-0.28,0.55-0.44,0.9-0.44c0.36,0,0.69,0.16,0.91,0.44l16.31,21.13c0.25,0.33,0.29,0.79,0.09,1.2
		c-0.19,0.38-0.61,0.64-1.05,0.64h-14.44c-0.35,0-0.67-0.16-0.89-0.42l-9.26-11.48C113.68,79.07,113.68,78.49,114,78.07z
		 M143.05,54.47c0,0.21-0.05,0.42-0.17,0.6c-1,1.62-1.53,3.49-1.53,5.41V82c0,0.49-0.31,0.92-0.78,1.08
		c-0.12,0.04-0.24,0.06-0.36,0.06c-0.35,0-0.69-0.17-0.9-0.44l-13.02-16.87c-0.95-1.23-2.39-1.93-3.93-1.93h0
		c-1.55,0-2.98,0.71-3.93,1.93l-6.65,8.62c-0.21,0.28-0.54,0.44-0.91,0.45c-0.34,0-0.67-0.16-0.88-0.43L98.48,60.21
		c-0.83-1.03-2.01-1.68-3.33-1.83c-0.18-0.02-0.37-0.03-0.55-0.03c-1.13,0-2.2,0.38-3.09,1.09c-0.28,0.22-0.54,0.49-0.77,0.77
		l-5.93,7.36c-0.22,0.27-0.54,0.42-0.89,0.42c-0.13,0-0.26-0.02-0.38-0.06c-0.46-0.17-0.76-0.6-0.76-1.08v-2.2
		c0-7.43-5.8-13.79-13.2-14.46c-0.59-0.05-1.03-0.54-1.03-1.13V33.49c0-2.45,1.99-4.44,4.44-4.44h65.61c2.45,0,4.44,1.99,4.44,4.44
		V54.47z M138.6,25.06H73c-4.65,0-8.43,3.78-8.43,8.42v15.5c0,0.63-0.51,1.14-1.14,1.14H30.19c-0.63,0-1.14-0.51-1.14-1.14V17.66
		c0-0.63,0.51-1.14,1.14-1.14h151.22c0.63,0,1.14,0.51,1.14,1.14v31.33c0,0.63-0.51,1.14-1.14,1.14H151.7
		c-1.08,0-2.15,0.17-3.16,0.5c-0.12,0.04-0.24,0.05-0.36,0.05c-0.24,0-0.47-0.08-0.67-0.22c-0.29-0.21-0.47-0.56-0.47-0.92V33.49
		C147.03,28.84,143.25,25.06,138.6,25.06z M207.61,163.65c0,3.51-2.85,6.36-6.36,6.36H151.7c-3.51,0-6.37-2.85-6.37-6.36l0.02-72.09
		c0.04-0.24,0.04-0.46-0.02-0.85V60.48c0-3.51,2.86-6.36,6.37-6.36h10.51c0.63,0,1.14,0.51,1.14,1.14v6.89
		c0,2.71,2.21,4.91,4.92,4.91h16.43c2.71,0,4.92-2.2,4.92-4.91v-6.89c0-0.63,0.51-1.14,1.14-1.14h10.51c3.51,0,6.36,2.85,6.36,6.36
		V163.65z"/>
	<path class="st2" d="M194.13,93.76h-35.32c-3.01,0-5.46,2.45-5.46,5.46V128c0,1.3,0.47,2.56,1.35,3.58c0.05,0.06,0.1,0.12,0.19,0.2
		c1.04,1.08,2.43,1.67,3.92,1.67h35.32c1.51,0,2.92-0.62,3.99-1.74c0.04-0.05,0.09-0.09,0.15-0.16c0.85-0.99,1.33-2.25,1.33-3.55
		V99.21C199.59,96.21,197.15,93.76,194.13,93.76z M180.03,128.82c-0.18,0.39-0.59,0.65-1.03,0.65h-17.1c-0.44,0-0.84-0.25-1.03-0.65
		c-0.19-0.4-0.13-0.87,0.14-1.21l8.55-10.61c0.22-0.27,0.54-0.42,0.89-0.42c0.34,0,0.67,0.15,0.88,0.42l8.55,10.61
		C180.16,127.95,180.22,128.42,180.03,128.82z M192.24,128.83c-0.19,0.38-0.59,0.63-1.02,0.63h-4.17c-0.35,0-0.67-0.15-0.89-0.42
		l-3.83-4.76c-0.33-0.41-0.34-0.99-0.02-1.41l2.17-2.81c0.22-0.28,0.55-0.44,0.9-0.44c0.36,0,0.69,0.16,0.9,0.44l5.84,7.56
		C192.39,127.97,192.44,128.43,192.24,128.83z M195.61,122.27c0,0.49-0.31,0.92-0.78,1.08c-0.12,0.04-0.24,0.06-0.36,0.06
		c-0.36,0-0.69-0.17-0.91-0.45l-5.33-6.91c-0.19-0.24-0.41-0.46-0.65-0.65c-0.63-0.49-1.39-0.75-2.19-0.75
		c-0.16,0-0.31,0.01-0.47,0.03c-0.95,0.12-1.8,0.61-2.38,1.37l-2.46,3.19c-0.22,0.28-0.54,0.44-0.9,0.44
		c-0.35,0-0.67-0.16-0.89-0.42l-5.04-6.25c-0.6-0.75-1.45-1.21-2.41-1.32c-0.13-0.02-0.27-0.03-0.4-0.03
		c-0.82,0-1.59,0.27-2.23,0.79c-0.2,0.16-0.4,0.36-0.55,0.55l-8.28,10.27c-0.22,0.27-0.54,0.43-0.88,0.43
		c-0.13,0-0.26-0.02-0.38-0.07c-0.46-0.16-0.76-0.59-0.76-1.08V99.21c0-0.81,0.66-1.47,1.47-1.47h35.32c0.81,0,1.48,0.66,1.48,1.47
		V122.27z"/>
	<path class="st2" d="M181.06,105.64c-0.04-0.11-0.1-0.22-0.16-0.32c-0.08-0.11-0.16-0.22-0.26-0.31c-0.09-0.09-0.19-0.18-0.31-0.25
		c-0.11-0.07-0.22-0.13-0.35-0.18c-0.12-0.05-0.24-0.08-0.36-0.11c-0.13-0.03-0.25-0.04-0.38-0.04c-0.53,0-1.05,0.21-1.42,0.58
		c-0.1,0.09-0.18,0.2-0.24,0.3c-0.07,0.11-0.14,0.23-0.18,0.33c-0.05,0.12-0.09,0.25-0.12,0.4c-0.03,0.12-0.04,0.25-0.04,0.38
		c0,0.13,0.01,0.26,0.04,0.4c0.02,0.13,0.06,0.25,0.11,0.36c0.05,0.13,0.12,0.24,0.18,0.34c0.07,0.11,0.16,0.22,0.26,0.32
		c0.37,0.37,0.88,0.58,1.41,0.58c0.13,0,0.26-0.01,0.37-0.03c0.13-0.03,0.26-0.06,0.39-0.12c0.12-0.05,0.23-0.11,0.35-0.19
		c0.11-0.07,0.21-0.15,0.3-0.24c0.1-0.1,0.18-0.2,0.25-0.3c0.07-0.12,0.13-0.22,0.19-0.36c0.05-0.12,0.09-0.24,0.11-0.37
		c0.03-0.13,0.04-0.25,0.04-0.38c0-0.13-0.01-0.26-0.04-0.4C181.15,105.91,181.12,105.79,181.06,105.64z"/>
	<path class="st2" d="M199.59,143.99c0,1.1-0.9,1.99-1.99,1.99h-42.25c-1.1,0-1.99-0.89-1.99-1.99c0-1.1,0.89-1.99,1.99-1.99h42.25
		C198.7,141.99,199.59,142.89,199.59,143.99z"/>
	<path class="st2" d="M187.06,156.52c0,1.1-0.89,1.99-1.99,1.99h-17.19c-1.1,0-1.99-0.9-1.99-1.99c0-1.1,0.9-1.99,1.99-1.99h17.19
		C186.17,154.53,187.06,155.42,187.06,156.52z"/>
	<path class="st2" d="M59.05,79.68H23.73c-3.01,0-5.46,2.45-5.46,5.46v28.78c0,1.3,0.48,2.57,1.36,3.59
		c0.05,0.06,0.1,0.12,0.18,0.19c1.04,1.08,2.44,1.68,3.93,1.68h35.32c1.51,0,2.91-0.61,3.98-1.73c0.05-0.05,0.1-0.11,0.16-0.18
		c0.85-0.99,1.32-2.25,1.32-3.55V85.14C64.51,82.13,62.06,79.68,59.05,79.68z M44.95,114.75c-0.19,0.39-0.59,0.65-1.03,0.65H26.81
		c-0.44,0-0.84-0.26-1.03-0.65c-0.19-0.4-0.13-0.87,0.14-1.21l8.55-10.61c0.22-0.27,0.54-0.42,0.89-0.42c0.34,0,0.67,0.16,0.88,0.42
		l8.55,10.61C45.08,113.88,45.14,114.35,44.95,114.75z M57.17,114.75c-0.2,0.4-0.59,0.64-1.03,0.64h-4.17
		c-0.35,0-0.67-0.16-0.89-0.43l-3.83-4.75c-0.33-0.42-0.34-1-0.01-1.42l2.17-2.8c0.21-0.28,0.55-0.44,0.9-0.44
		c0.36,0,0.69,0.16,0.91,0.44l5.84,7.56C57.31,113.9,57.35,114.36,57.17,114.75z M60.52,108.2c0,0.49-0.31,0.92-0.78,1.08
		c-0.11,0.04-0.24,0.06-0.36,0.06c-0.35,0-0.69-0.16-0.9-0.44l-5.33-6.9c-0.69-0.9-1.73-1.4-2.85-1.4c-1.12,0-2.16,0.51-2.85,1.4
		L45,105.18c-0.21,0.28-0.54,0.44-0.91,0.44c-0.34,0-0.67-0.15-0.88-0.42l-5.04-6.25c-0.68-0.85-1.7-1.34-2.8-1.34
		c-0.83,0-1.61,0.28-2.25,0.79c-0.2,0.16-0.38,0.35-0.55,0.55l-8.28,10.27c-0.22,0.27-0.54,0.42-0.89,0.42
		c-0.13,0-0.26-0.02-0.38-0.06c-0.46-0.16-0.76-0.59-0.76-1.08V85.14c0-0.81,0.66-1.47,1.47-1.47h35.32c0.81,0,1.47,0.66,1.47,1.47
		V108.2z"/>
	<path class="st2" d="M64.51,129.92c0,1.09-0.9,1.99-1.99,1.99H20.27c-1.1,0-1.99-0.9-1.99-1.99c0-1.1,0.9-1.99,1.99-1.99h42.25
		C63.62,127.93,64.51,128.82,64.51,129.92z"/>
	<path class="st2" d="M51.98,142.45c0,1.1-0.89,1.99-1.99,1.99H32.8c-1.1,0-1.99-0.89-1.99-1.99c0-1.1,0.89-1.99,1.99-1.99h17.19
		C51.08,140.46,51.98,141.35,51.98,142.45z"/>
</g>
</svg>
