<svg width="704" height="145" viewBox="0 0 704 145" fill="none" xmlns="http://www.w3.org/2000/svg">
<path d="M41.0001 132.625L40.3481 134.516L41.0001 132.625ZM701.17 143.873C702.274 143.918 703.204 143.059 703.248 141.955L703.968 123.969C704.012 122.866 703.153 121.935 702.049 121.891C700.946 121.847 700.015 122.706 699.971 123.809L699.332 139.797L683.344 139.157C682.241 139.113 681.31 139.972 681.266 141.076C681.222 142.179 682.081 143.11 683.184 143.154L701.17 143.873ZM41.0001 1.625L39.4847 0.319714C36.7544 3.48945 33.9253 7.00333 31.0958 10.7893L32.6978 11.9866L34.2999 13.1839C37.0752 9.47043 39.8465 6.02868 42.5154 2.93029L41.0001 1.625ZM18.2359 34.2436L16.488 33.2716C12.1262 41.1149 8.27206 49.4175 5.4494 57.8058L7.34496 58.4437L9.24052 59.0815C11.9696 50.9713 15.714 42.8936 19.9838 35.2156L18.2359 34.2436ZM2.57085 84.4595L0.570869 84.4511C0.531382 93.8124 2.5848 102.825 7.57547 110.85L9.27382 109.793L10.9722 108.737C6.45059 101.467 4.53389 93.2254 4.57083 84.468L2.57085 84.4595ZM28.807 127.353L27.8593 129.114C31.5858 131.119 35.7392 132.926 40.3481 134.516L41.0001 132.625L41.6521 130.734C37.2259 129.208 33.2727 127.484 29.7547 125.591L28.807 127.353ZM41.0001 132.625L40.3481 134.516C43.8768 135.733 47.5119 136.825 51.2426 137.799L51.7479 135.864L52.2532 133.929C48.6149 132.979 45.078 131.916 41.6521 130.734L41.0001 132.625ZM73.8265 140.148L73.5591 142.13C80.8663 143.116 88.4242 143.76 96.1721 144.098L96.2592 142.1L96.3463 140.101C88.7053 139.768 81.2687 139.134 74.094 138.166L73.8265 140.148ZM118.745 142.26L118.798 144.26C126.223 144.063 133.764 143.635 141.375 143.003L141.21 141.01L141.044 139.017C133.502 139.643 126.035 140.066 118.692 140.261L118.745 142.26ZM163.586 138.609L163.845 140.592C171.279 139.623 178.737 138.488 186.178 137.213L185.84 135.241L185.502 133.27C178.11 134.537 170.705 135.663 163.328 136.625L163.586 138.609ZM207.952 131.039L208.359 132.997C215.773 131.454 223.127 129.793 230.38 128.038L229.91 126.094L229.439 124.15C222.226 125.896 214.914 127.547 207.544 129.081L207.952 131.039ZM251.702 120.466L252.231 122.395C259.629 120.365 266.866 118.258 273.893 116.103L273.307 114.191L272.721 112.279C265.731 114.423 258.531 116.518 251.172 118.538L251.702 120.466ZM294.717 107.267L295.362 109.16C302.817 106.62 309.93 104.057 316.627 101.513L315.917 99.6436L315.207 97.774C308.555 100.301 301.485 102.848 294.072 105.374L294.717 107.267ZM336.789 91.211L337.582 93.0472C341.215 91.4791 344.644 89.9383 347.849 88.4359L347 86.625L346.151 84.8141C342.987 86.2974 339.596 87.8214 335.997 89.3748L336.789 91.211ZM347 86.625L347.849 88.4359C351.397 86.7728 354.973 85.1559 358.571 83.5864L357.771 81.7532L356.971 79.9201C353.341 81.5037 349.732 83.1355 346.151 84.8141L347 86.625ZM379.682 72.8702L380.386 74.7425C387.778 71.9659 395.209 69.3931 402.625 67.034L402.019 65.1281L401.413 63.2222C393.931 65.6019 386.436 68.1971 378.979 70.9979L379.682 72.8702ZM424.734 58.5536L425.238 60.4889C432.975 58.4719 440.637 56.7043 448.164 55.1976L447.772 53.2365L447.379 51.2754C439.775 52.7977 432.038 54.5826 424.229 56.6183L424.734 58.5536ZM471.092 49.3458L471.353 51.3287C479.428 50.2642 487.247 49.5457 494.727 49.1884L494.632 47.1907L494.536 45.193C486.935 45.556 479.004 46.2854 470.83 47.363L471.092 49.3458ZM518.266 47.3503L518.128 49.3455C522.156 49.6241 526.019 50.0422 529.699 50.6022L530 48.625L530.301 46.6478C526.502 46.0697 522.53 45.6405 518.404 45.355L518.266 47.3503ZM530 48.625L529.699 50.6022C533.095 51.119 536.966 52.0732 541.236 53.4128L541.835 51.5045L542.434 49.5962C538.035 48.2165 533.958 47.2042 530.301 46.6478L530 48.625ZM564.644 60.4538L563.821 62.2765C570.793 65.4254 578.166 69.0505 585.734 72.9871L586.657 71.2128L587.58 69.4385C579.963 65.4762 572.521 61.8172 565.468 58.6311L564.644 60.4538ZM608.19 82.916L607.207 84.6578C614.316 88.67 621.418 92.811 628.35 96.9514L629.376 95.2343L630.401 93.5172C623.445 89.3625 616.314 85.2048 609.173 81.1743L608.19 82.916ZM650.282 108.01L649.223 109.707C656.645 114.341 663.61 118.793 669.864 122.859L670.954 121.182L672.044 119.506C665.771 115.427 658.786 110.962 651.341 106.314L650.282 108.01ZM691.341 134.752L690.211 136.402C693.129 138.401 695.471 140.041 697.139 141.243C697.975 141.845 698.632 142.33 699.104 142.692C699.638 143.101 699.8 143.253 699.78 143.232L701.25 141.875L702.72 140.518C702.459 140.236 701.993 139.867 701.538 139.518C701.021 139.121 700.328 138.61 699.478 137.998C697.775 136.771 695.404 135.111 692.472 133.102L691.341 134.752Z" fill="white"/>
</svg>
