<?xml version="1.0" encoding="utf-8"?>
<!-- Generator: Adobe Illustrator 24.3.0, SVG Export Plug-In . SVG Version: 6.00 Build 0)  -->
<svg version="1.1" id="Layer_1" xmlns="http://www.w3.org/2000/svg" xmlns:xlink="http://www.w3.org/1999/xlink" x="0px" y="0px"
	 width="122.6px" height="125px" viewBox="0 0 122.6 125" style="enable-background:new 0 0 122.6 125;" xml:space="preserve">
<style type="text/css">
	.st0{fill:#00B0FB;}
	.st1{fill:#00B0FB;fill-opacity:0.4;}
	.st2{fill:#FFFFFF;}
	.st3{fill:none;}
	.st4{fill:#001135;}
	.st5{fill:#3C7CFF;}
	.st6{fill:#3C7CFF;stroke:#001135;stroke-width:0.7602;stroke-miterlimit:10;}
	.st7{fill:#DBDBDB;}
	.st8{fill:#B9B9B9;}
	.st9{fill:#080808;}
	.st10{fill:#060606;}
	.st11{fill:#070707;}
	.st12{fill:#121212;}
	.st13{fill:#111111;}
	.st14{fill:#090909;}
	.st15{fill:#FDFDFD;}
	.st16{fill:#F9F9F9;}
	.st17{fill:#F3F2F3;}
	.st18{fill:#FAFAFA;}
	.st19{fill:#0A0A0A;}
	.st20{fill:#EEEEEE;}
	.st21{fill:#0D0D0D;}
	.st22{fill:#0C0C0C;}
	.st23{fill:#0E0E0E;}
	.st24{fill:#050505;}
	.st25{fill:#3A3A3A;}
	.st26{fill:#525252;}
	.st27{fill:#474747;}
	.st28{fill:#1E1E1E;}
	.st29{fill:#1D1D1D;}
	.st30{fill:#222222;}
	.st31{fill:#494949;}
	.st32{fill:#585858;}
	.st33{fill:#EDEDED;}
	.st34{fill:#F0F0F0;}
	.st35{fill:#EAEAEA;}
	.st36{fill:#EAE9EA;}
	.st37{fill:#040404;}
	.st38{fill:#F4F3F4;}
	.st39{fill:#030303;}
	.st40{fill:#E8E8E8;}
	.st41{fill:#0C0C0B;}
	.st42{fill:#0D0D0C;}
	.st43{fill:#919191;}
	.st44{fill:#909090;}
	.st45{fill:#0E0E0D;}
	.st46{fill:#0C0D0C;}
	.st47{fill:#090908;}
	.st48{fill:#141414;}
	.st49{fill:#4C4D4D;}
	.st50{fill:#737474;}
	.st51{fill:#242424;}
	.st52{fill:#202020;}
	.st53{fill:#101010;}
	.st54{fill:#0D0E0D;}
	.st55{fill:#111212;}
	.st56{fill:#0B0B0B;}
	.st57{fill:#0D0C0C;}
	.st58{fill:#E7E7E7;}
	.st59{fill:#272727;}
	.st60{fill:#2E2E2E;}
	.st61{fill:#1F1E1E;}
	.st62{fill:#1B1A1A;}
	.st63{fill:#E6E6E6;}
	.st64{fill:#0F0E0E;}
	.st65{fill:#F2F2F2;}
	.st66{fill:#F4F3F3;}
	.st67{fill:#F9F8F8;}
	.st68{fill:#F1F1F0;}
	.st69{fill:#F6F6F6;}
	.st70{fill:#F5F6F6;}
	.st71{fill:#F5F5F5;}
	.st72{fill:#2C2C2C;}
	.st73{fill:#252625;}
	.st74{fill:#303030;}
	.st75{fill:#2D2D2C;}
	.st76{fill:#2D2D2D;}
	.st77{fill:#262727;}
	.st78{fill:#191919;}
	.st79{fill:#1B1B1B;}
	.st80{fill:#F7F7F7;}
	.st81{fill:#F6F7F7;}
	.st82{fill:#F9F9FA;}
	.st83{fill:#F4F4F4;}
	.st84{fill:#F8F8F8;}
	.st85{fill:#FCFCFC;}
	.st86{fill:#FBFBFB;}
	.st87{fill:#E2E1E2;}
	.st88{fill:#D8D7D8;}
	.st89{fill:#0F0F0F;}
	.st90{fill:#161616;}
	.st91{fill:#181818;}
	.st92{fill:#131313;}
	.st93{fill-rule:evenodd;clip-rule:evenodd;fill:#00B0FB;}
	.st94{fill:#030302;}
	.st95{fill:#D2D3D3;}
	.st96{fill:#1F1F1F;}
	.st97{fill:#0E0D0E;}
	.st98{fill:#BABBBB;}
	.st99{fill:#8A8A8A;}
	.st100{fill:#8E8F8F;}
	.st101{fill:#464746;}
	.st102{fill:#5F5E5E;}
	.st103{fill:#151414;}
	.st104{fill:#282828;}
	.st105{fill:#030202;}
	.st106{fill:#040403;}
	.st107{fill:#040303;}
	.st108{fill:#202021;}
	.st109{fill:#020202;}
	.st110{fill:#050506;}
</style>
<g>
	<path class="st0" d="M116.4,37.3c-0.8-0.8-1-1.5-0.8-2.5c0.3-1.8,0.3-3.8-0.2-5.9c-1.9-9.3-10-15.8-19.6-15.8
		c-0.6,0-1.3-0.1-1.8-0.9C88.4,5.1,80.3,1,71.7,1c-6,0-11.8,2-16.8,5.7c-0.1,0.1-0.3,0.2-0.5,0.3c1,0.4,1.9,1,2.6,1.8
		c4.3-2.9,9.5-4.5,14.5-4.5c8.3,0,15.8,4.1,20.7,11.3c0.6,0.8,1,1,1.7,1c0.1,0,0.3,0,0.4,0c0.5,0,0.9-0.1,1.4-0.1
		c5.2,0,10,2.3,13.3,6.4c3.1,3.9,4.2,9,3,13.8c-0.3,1.1,0,1.4,0.8,2c4.2,3.2,6.1,7.1,5.6,11.7c-0.6,4.9-3.5,8.7-7.7,10.3h2.8v-0.4
		h1.5v-0.8h0.8v-0.8h1.8v-0.5h1.1c1.7-2.3,2.8-5,3-7.9C121.9,45.7,120,40.9,116.4,37.3z"/>
	<path class="st1" d="M20.9,96.6C20.9,96.6,20.9,96.6,20.9,96.6c-0.1,0-0.2,0-0.2,0c-0.3,0-0.6,0-0.9,0c-3.3,0-6.6,0.7-9.9,2
		l-0.1,0.1c-1.1,0.4-2.5,1-2.5,2.6c0,1.4,1.3,2,2.2,2.4l0.4,0.2c3.2,1.5,6.6,1.9,9.9,2c0,0,0,0,0,0c3.9,0,7.7-0.8,10.2-2
		c0.1-0.1,0.3-0.1,0.4-0.2c0.9-0.4,2.1-1,2.1-2.4c0-1.5-1.5-2.1-2.5-2.5C26.9,97.4,24,96.8,20.9,96.6C21,96.6,20.9,96.6,20.9,96.6z"
		/>
	<path class="st1" d="M74.6,113.8c-0.1,0-0.1,0-0.2,0c-0.1,0-0.2,0-0.2,0.1c-3.8,2.1-7.7,3.1-11.6,3.1c-3.9,0-8-1.1-12-3.2
		c-0.1,0-0.2-0.1-0.2-0.1c-0.1,0-0.2,0-0.2,0.1c-0.1,0.1-0.2,0.2-0.3,0.4c-0.3,2,0.4,3.5,2.1,4.9c1,0.7,2.1,1.3,3.4,1.8
		c2.2,0.8,4.6,1.2,7,1.2c1.1,0,2.3-0.1,3.4-0.3c3.1-0.5,5.5-1.4,7.4-3c1.7-1.4,2.2-2.8,1.8-4.6C74.8,114,74.7,113.9,74.6,113.8z"/>
	<path class="st1" d="M117.2,113.8c-0.1,0-0.1,0-0.2,0c-0.1,0-0.2,0-0.2,0.1c-3.9,2.1-7.8,3.2-11.7,3.2c-3.9,0-8-1.1-12-3.2
		c-0.1,0-0.2-0.1-0.2-0.1c-0.1,0-0.1,0-0.2,0c-0.1,0.1-0.2,0.2-0.3,0.4c-0.4,2,0.3,3.6,2.2,4.9c0.5,0.4,1.1,0.8,1.6,1
		c2.6,1.3,5.5,2,8.6,2c1.3,0,2.6-0.1,4-0.3c3.2-0.5,5.5-1.6,7.3-3.2c1.3-1.2,1.8-2.6,1.4-4.3C117.4,114,117.3,113.8,117.2,113.8z"/>
	<path class="st1" d="M94.7,98.7c-1,0.4-2.4,1-2.4,2.5c0,1.4,1.3,2,2.2,2.5l0.4,0.2c3.3,1.6,6.9,1.9,9.9,2c3.4-0.1,6.9-0.4,10.2-2.1
		l0.3-0.2c0.9-0.4,2.1-1,2.1-2.3c0-1.4-1.2-1.9-2-2.4l-0.3-0.2c-2.2-1.1-4.8-1.8-8.1-2c-0.8-0.1-1.6-0.1-2.3-0.1
		c-3.7,0-6.8,0.6-9.7,1.9L94.7,98.7z"/>
	<path class="st1" d="M52.6,98.5l-0.3,0.1c-1,0.4-2.5,1-2.5,2.5c0,1.5,1.3,2.1,2.3,2.5l0.4,0.2c3.2,1.5,6.7,1.8,10,1.9
		c3.2-0.1,6.8-0.4,10.2-2.1l0.3-0.1c0.9-0.4,2-1,2.1-2.3c0-1.4-1.2-2-2.1-2.4l-0.3-0.1c-2.2-1.1-4.8-1.8-8.1-2
		c-0.8-0.1-1.6-0.1-2.4-0.1C58.5,96.6,55.4,97.3,52.6,98.5z"/>
	<path class="st0" d="M48.9,57.1c1.5,0,3,0,4.5,0l9,0l9.1,0c1.5,0,3,0,4.6,0c2.2,0,3-0.8,3-3V39c0-2.3-0.8-3.2-3.1-3.2
		c-4.5,0-9,0-13.6,0s-9,0-13.6,0c-2.2,0-3.1,0.9-3.1,3.1c0,5,0,10,0,14.9C45.7,56.4,46.4,57.1,48.9,57.1z"/>
	<path class="st1" d="M32.1,113.8c-0.1,0-0.1,0-0.2,0c-0.1,0-0.2,0-0.2,0.1c-3.9,2.1-7.8,3.2-11.7,3.2c-3.9,0-7.9-1.1-11.9-3.2
		c-0.1,0-0.2-0.1-0.2-0.1c-0.1,0-0.1,0-0.2,0c-0.1,0.1-0.2,0.2-0.3,0.4c-0.6,2.8,1.2,4.3,2.8,5.4c2.3,1.5,5.1,2.3,8.4,2.5
		c0.5,0,1,0,1.5,0c3.9,0,7.2-0.9,9.9-2.7c2.1-1.4,2.9-3.1,2.5-5.1C32.4,114,32.3,113.8,32.1,113.8z"/>
	<path class="st2" d="M82.6,63.9c3.4,0,7.7,0,11.9,0c4.4,0,8.7,0,11.9,0c3.7,0,6.9-1,9.6-2.9c3.9-2.8,6.2-6.9,6.6-11.5
		c0.4-4.8-1.6-9.5-5.2-13.1c-0.8-0.8-1-1.5-0.8-2.5c0.3-1.8,0.3-3.8-0.2-5.9c-1.9-9.3-10-15.8-19.6-15.8c-0.6,0-1.3-0.1-1.8-0.9
		C89.4,4.1,81.3,0,72.7,0c-6,0-11.8,2-16.8,5.7c-0.3,0.2-0.6,0.4-1.1,0.4c-0.3,0-0.5-0.1-0.8-0.2c-2.6-1.2-5.2-1.8-7.9-1.8
		c-7.7,0-14.3,4.9-16.8,12.6c-0.3,1-0.8,1.7-2.1,1.7c0,0-0.2,0-0.3,0c-0.3,0-0.6,0-0.9,0c-7.5,0-13.8,4.2-16.5,11.1
		C9.3,30,9.1,30.8,9,31.5c-0.2,1-0.4,2-0.9,2.9c-0.5,0.8-1.3,1.4-2.1,2c-0.6,0.4-1.2,0.9-1.7,1.5c-4.5,5.3-5.5,11-2.9,16.9
		c2.7,6.1,7.5,9.3,14.2,9.5c1.4,0,2.8,0.1,4.2,0.1c1.2,0,2.3,0,3.5,0c1.1,0,2.3,0,3.5,0h15.3c0.1,0,0.3,0,0.4,0.1
		c0.1,0.1,0.1,0.2,0.1,0.4c0,0.4,0,0.9,0,1.3c-0.1,1.8,0.4,3.4,1.4,4.5c1.1,1.2,2.9,1.9,5,1.9c3.8,0,7.6-0.1,11.4-0.1
		c0.3,0,0.5,0.2,0.5,0.5V77c0,0,0,0.8,0,0.8c0,0.5,0,0.9-0.4,1.3c-0.3,0.3-0.8,0.4-1.3,0.4c-3.3,0-6.6,0-9.9,0l-20,0
		c-3.4,0-6.8,0-10.2,0c-0.5,0-0.6,0.1-0.7,0.1c0,0-0.1,0.2-0.1,0.6c0.1,2,0,4.1,0,6.1l0,1.9c0,1.4,0,3.3,0.3,4.9
		c0,0.1,0,0.3-0.1,0.4c-0.1,0.1-0.2,0.2-0.4,0.2c-1,0-2.1,0.1-3.3,0.3c-3.1,0.5-5.5,1.3-7.6,2.6C5,97.9,4,99.7,4.1,102.1
		c0.1,4.2,0.1,8.3,0,12.2c-0.1,3.1,1.2,5.5,3.9,7.4c2.7,1.9,5.9,2.9,9.8,3.2c0.8,0.1,1.6,0.1,2.4,0.1c4.6,0,8.4-1.1,11.7-3.3
		c2.7-1.9,3.9-4.2,3.8-7.2c-0.1-1.4,0-2.8,0-4.2c0-0.6,0-1.2,0-1.8c0-0.7,0-1.4,0-2.1c0-1.5,0-3.1,0-4.6c0.1-1.8-0.6-3.3-2.2-4.5
		c-0.9-0.7-2-1.4-3.2-1.8c-2.6-1-5.4-1.6-8.2-1.7c-0.3,0-0.5-0.2-0.5-0.5l0-1.4c0-2.9,0-6.3,0-7.4c0-0.5,0-1.1,0.4-1.4
		c0.4-0.4,0.9-0.4,1.3-0.4l0.2,0c0.8,0,1.6,0.1,2.4,0.1c0.5,0,1.1,0,1.6,0c0.5,0,1.1,0,1.6,0h9.9c6.8,0,13.6,0,20.4,0
		c0.5,0,1.1,0.1,1.4,0.4c0.4,0.4,0.4,0.9,0.3,1.3c-0.1,1,0,5,0,7.4c0,0.7,0,1.3,0,1.6c0,0.3-0.2,0.5-0.5,0.5c-0.3,0-0.7,0-1.1,0.1
		c-3.9,0.3-6.8,1.2-9.4,2.7c-2.3,1.4-3.4,3.2-3.3,5.8c0.1,3.7,0.1,7.7,0,12.2c-0.1,3,1.2,5.4,3.8,7.2c3.3,2.2,7.1,3.3,11.6,3.3
		c0.8,0,1.6,0,2.4-0.1c4.4-0.3,7.8-1.6,10.5-3.8c2.2-1.8,3.2-3.9,3-6.4c-0.1-1.5,0-3,0-4.4c0-0.6,0-1.3,0-1.9V106c0-1.5,0-3.1,0-4.7
		c0-1.3-0.4-2.4-1.4-3.5c-0.8-0.8-1.7-1.5-2.9-2c-2.8-1.3-5.9-2-9.4-2.2c-0.3,0-0.5-0.2-0.5-0.5l0-2.6c0-2.4,0-5,0-6.1
		c0-0.6,0-1.2,0.4-1.6c0.4-0.4,1-0.4,1.3-0.4h0.2c1,0,2.1,0.1,3.5,0.1c0.8,0,1.5,0,2.2,0c0.8,0,1.5,0,2.2,0h10.9c5.7,0,11.3,0,17,0
		c0.5,0,1,0,1.4,0.4c0.4,0.4,0.4,0.9,0.3,1.3c-0.1,1,0,5,0,7.4c0,0.7,0,1.3,0,1.6c0,0.3-0.2,0.5-0.5,0.5c-1,0.1-2.1,0.2-3.1,0.3
		c-2.5,0.4-5.6,1.1-8.3,3.1c-1.6,1.2-2.4,2.7-2.3,4.6c0,1.6,0,3.2,0,4.8c0,0.6,0,1.3,0,2c0,0.6,0,1.2,0,1.8c0,1.4,0,2.8,0,4.2
		c-0.2,3,1.1,5.4,3.9,7.4c2.7,1.8,5.8,2.8,9.7,3.1c0.8,0,1.5,0.1,2.3,0.1c2.3,0,4.4-0.3,6.4-0.8c2-0.6,3.7-1.4,5.4-2.5
		c2.6-1.8,3.9-4.2,3.8-7.3c-0.1-3.9-0.1-8,0-12.4c0-2.3-0.9-4-2.9-5.3c-1-0.7-2.1-1.2-3.3-1.6c-2.4-0.8-4.9-1.3-7.5-1.4
		c-0.3,0-0.5-0.2-0.5-0.5c0-4.3,0-10.3,0-12.9c0-0.4,0-0.7-0.1-0.8c0,0-0.2-0.1-0.7-0.1c-7.2,0-14.3,0-21.5,0H67.3
		c-3.1,0-3.4-0.2-3.4-3.4c0,0,0-0.2,0-0.2c0-0.2,0-0.3,0-0.3c0,0,0,0,0,0v-0.1l0-2.5c0-0.3,0.2-0.5,0.5-0.5l11.1,0
		c0.8,0,1.4-0.1,2-0.2c2.5-0.4,4.4-2.5,4.5-5c0-0.9,0-1.9,0-2.8c0-0.1,0.1-0.3,0.1-0.4C82.3,63.9,82.4,63.9,82.6,63.9z M29.9,119.2
		c-2.8,1.8-6,2.7-9.9,2.7c-0.5,0-1,0-1.5,0c-3.3-0.2-6.1-1-8.4-2.5c-1.6-1-3.3-2.6-2.8-5.4c0-0.2,0.1-0.3,0.3-0.4c0.1,0,0.1,0,0.2,0
		c0.1,0,0.2,0,0.2,0.1c4,2.1,8,3.2,11.9,3.2c3.9,0,7.8-1.1,11.7-3.2c0.1,0,0.2-0.1,0.2-0.1c0.1,0,0.2,0,0.2,0
		c0.2,0.1,0.2,0.2,0.3,0.4C32.8,116.2,32,117.8,29.9,119.2z M30.9,110.3c-1.7,1.6-3.8,2.5-6.7,3.1c-1.6,0.3-3.1,0.4-4.5,0.4
		c-2.7,0-5.3-0.5-7.8-1.6c-1.5-0.6-2.6-1.4-3.5-2.3c-0.6-0.7-1.4-1.7-1.1-3.2c0-0.1,0.1-0.3,0.2-0.4c0.1,0,0.2-0.1,0.2-0.1
		c0.1,0,0.1,0,0.2,0c4.1,1.6,8.1,2.5,12.1,2.5c3.9,0,7.8-0.8,11.7-2.4c0.1,0,0.1,0,0.2,0c0.1,0,0.2,0,0.2,0.1
		c0.1,0.1,0.2,0.2,0.2,0.4C32.7,108.4,31.7,109.5,30.9,110.3z M29.9,98.7c1,0.4,2.5,1,2.5,2.5c0,1.3-1.2,1.9-2.1,2.4
		c-0.1,0.1-0.3,0.1-0.4,0.2c-2.5,1.3-6.2,2-10.1,2h0c-3.2-0.1-6.7-0.4-9.9-2l-0.4-0.2c-0.9-0.4-2.2-1-2.2-2.4c0-1.6,1.5-2.1,2.5-2.6
		l0.1-0.1c3.3-1.3,6.6-2,9.9-2c0.3,0,0.6,0,0.9,0h0.2c0,0,0.1,0,0.1,0C24,96.8,26.9,97.4,29.9,98.7z M116,118.4
		c-1.8,1.7-4.1,2.7-7.3,3.2c-1.4,0.2-2.7,0.3-4,0.3c-3.1,0-5.9-0.7-8.6-2c-0.5-0.3-1.1-0.6-1.6-1c-1.8-1.4-2.5-3-2.2-4.9
		c0-0.1,0.1-0.3,0.3-0.4c0.1,0,0.1,0,0.2,0c0.1,0,0.2,0,0.2,0.1c4,2.1,8,3.2,12,3.2c3.9,0,7.8-1.1,11.7-3.2c0.1,0,0.2-0.1,0.2-0.1
		c0.1,0,0.1,0,0.2,0c0.1,0.1,0.2,0.2,0.3,0.4C117.8,115.8,117.3,117.2,116,118.4z M116,110.3c-1.7,1.6-3.8,2.6-6.7,3.1
		c-1.6,0.3-3.1,0.5-4.6,0.5c-2.8,0-5.4-0.5-7.9-1.6c-1.4-0.6-2.5-1.4-3.4-2.4c-0.6-0.7-1.3-1.8-1.1-3.1c0-0.1,0.1-0.3,0.2-0.3
		c0.1,0,0.2-0.1,0.2-0.1c0.1,0,0.1,0,0.2,0c4.1,1.6,8.1,2.5,12.1,2.5c3.9,0,7.9-0.8,11.7-2.4c0.1,0,0.1,0,0.2,0c0.1,0,0.2,0,0.2,0.1
		c0.1,0.1,0.2,0.2,0.2,0.4C117.7,108.5,116.8,109.5,116,110.3z M107,96.7c3.3,0.2,5.9,0.8,8.1,2l0.3,0.2c0.9,0.4,2.1,1,2,2.4
		c0,1.3-1.2,1.9-2.1,2.3l-0.3,0.2c-3.3,1.6-6.8,2-10.2,2.1c-3.1-0.1-6.6-0.4-9.9-2l-0.4-0.2c-1-0.4-2.3-1-2.2-2.5
		c0-1.4,1.4-2.1,2.4-2.5l0.2-0.1c2.9-1.3,6-1.9,9.7-1.9C105.4,96.7,106.2,96.7,107,96.7z M73.1,118.7c-1.9,1.6-4.3,2.5-7.4,3
		c-1.2,0.2-2.3,0.3-3.4,0.3c-2.4,0-4.8-0.4-7-1.2c-1.3-0.5-2.4-1.1-3.4-1.8c-1.7-1.3-2.4-2.9-2.1-4.9c0-0.2,0.1-0.3,0.3-0.4
		c0.1,0,0.1-0.1,0.2-0.1c0.1,0,0.2,0,0.2,0.1c4,2.1,8.1,3.2,12,3.2c3.9,0,7.8-1.1,11.6-3.1c0.1,0,0.2-0.1,0.2-0.1c0.1,0,0.1,0,0.2,0
		c0.1,0.1,0.2,0.2,0.3,0.3C75.3,115.9,74.8,117.4,73.1,118.7z M73.6,110.2c-1.6,1.6-3.8,2.6-6.8,3.2c-1.6,0.3-3.1,0.5-4.6,0.5
		c-2.7,0-5.4-0.5-7.9-1.6c-1.4-0.6-2.5-1.3-3.3-2.3c-0.4-0.4-1-1.1-1.2-2c0,0,0-0.1,0-0.2c-0.1-0.3-0.2-0.9,0.2-1.3
		c0.2-0.1,0.3-0.2,0.6-0.2c0.3,0,0.5,0.1,0.7,0.3c0,0,0.1,0.1,0.2,0.1c3.6,1.4,7.4,2.2,11.1,2.2c3.3,0,6.6-0.6,10-1.7
		c0.4-0.1,0.7-0.3,1.1-0.5c0.2-0.1,0.5-0.2,0.7-0.3c0.1,0,0.1,0,0.2,0c0.1,0,0.2,0,0.2,0.1c0.1,0.1,0.2,0.2,0.2,0.4
		C75.2,108.4,74.3,109.5,73.6,110.2z M64.5,96.7c3.3,0.2,5.9,0.9,8.1,2l0.3,0.1c0.9,0.4,2.1,1,2.1,2.4c0,1.3-1.2,1.9-2,2.3l-0.3,0.1
		c-3.4,1.7-7,2-10.2,2.1c-3.3-0.1-6.7-0.4-10-1.9l-0.4-0.2c-1-0.4-2.3-1.1-2.3-2.5c0-1.5,1.5-2.1,2.5-2.5l0.3-0.1
		c2.8-1.2,6-1.9,9.5-1.9C62.9,96.7,63.7,96.7,64.5,96.7z M79.1,66c0,2.6-0.7,3.3-3.4,3.3H48.8c-2.3,0-3.1-0.8-3.1-3.1v-0.8
		c0-0.8,0-1.6,0-2.4c0-1.8,0.9-2.7,2.7-2.7c3.9,0,7.8,0,11.7,0c5.4,0,10.9,0,16.3,0c1.7,0,2.6,0.9,2.7,2.6c0,0.8,0,1.6,0,2.3V66z
		 M79.1,54.1c0,2.2-0.9,3-3,3H48.9c-2.4,0-3.2-0.8-3.2-3.2c0-5,0-10,0-14.9c0-2.2,0.9-3.1,3.1-3.1c4.5,0,9,0,13.6,0
		c4.5,0,9,0,13.6,0c2.3,0,3.2,0.8,3.2,3.2V54.1z M81.7,60.6c0,0-0.1-0.1-0.1-0.2c-0.2-0.4-0.4-0.7-0.6-1c-0.2-0.3-0.6-0.8,0-1.6
		c0.8-0.9,1.1-2.1,1.1-3.8c0-2.9,0-5.8,0-8.7v-6.5c0-4-2.1-6.1-6.1-6.1c-1.5,0-3,0-4.5,0l-9,0l-9.1,0c-1.5,0-3,0-4.6,0
		c-3.8,0-6,2.2-6,6c0,3.4,0,6.9,0,10.3v5.1c0,0.3,0,0.6,0,0.9c0,0.6,0.4,1.2,0.7,1.8c0.3,0.6,0.6,1.1,0.7,1.7c0,0.6-0.3,1.3-0.7,1.9
		c-0.1,0.1-0.2,0.3-0.3,0.5c-0.1,0.2-0.2,0.3-0.4,0.3c-4,0-9,0-13.9,0c-4.7,0-9.3,0-12.9,0c-4.1,0-7.5-1.7-10-4.9
		c-2.3-3-3.2-6.7-2.4-10.3c0.8-3.7,3.3-6.9,6.9-8.9c0.7-0.4,0.9-0.6,1-1.4c0.5-8.2,6.7-14.1,14.6-14.1c0.9,0,1.7,0.1,2.6,0.2
		c0.4,0.1,0.9,0.2,1.3,0.4c0.5,0.2,0.9,0.3,1.2,0.3c0.1,0,0.1,0,0.2,0c0.3-0.2,0.3-0.8,0.3-1.4c0-0.5,0-0.9,0.1-1.4
		C33.1,12.4,38.9,7.5,46,7.5c2.9,0,5.8,0.9,8.5,2.6c0.2,0.1,0.4,0.2,0.5,0.2s0.3-0.1,0.4-0.2c4.8-4.4,10.8-6.8,17-6.8
		c8.3,0,15.8,4.1,20.7,11.3c0.6,0.8,1,1,1.7,1c0.1,0,0.3,0,0.4,0c0.5,0,0.9-0.1,1.4-0.1c5.2,0,10,2.3,13.3,6.4c3.1,3.9,4.2,9,3,13.8
		c-0.3,1.1,0,1.4,0.8,2c4.2,3.2,6.1,7.1,5.6,11.7c-0.8,6.7-5.9,11.3-12.8,11.3c-2.6,0-6,0-9.7,0l-14.7,0
		C82,60.8,81.8,60.7,81.7,60.6z"/>
	<path class="st2" d="M67.9,63.7c0,1.3,0,2.1-0.2,2.3c-0.2,0.2-1,0.2-2.2,0.2l-7.3,0c-3,0-5.9,0-8.9,0h0c-0.4,0-0.6-0.1-0.6-0.1
		c0,0-0.1-0.2-0.1-0.6v-0.1c0-1.1,0-1.8,0.2-2c0.2-0.2,1-0.2,2.1-0.2h7.3l5,0c1.4,0,2.8,0,4.1,0h0C67.9,63.2,67.9,63.2,67.9,63.7z"
		/>
	<path class="st2" d="M76.1,64.7c0,0.7,0,1.3-0.1,1.4c-0.1,0.1-0.8,0.1-1.4,0.1h-0.4c-0.2,0-0.8,0-0.9-0.1c-0.1-0.1-0.1-0.7-0.1-1.3
		c0-0.7,0-1.4,0.1-1.5c0.1-0.1,0.7-0.1,1.4-0.1c0.6,0,1.2,0,1.2,0.1C76.1,63.4,76.1,64.1,76.1,64.7z"/>
</g>
</svg>
