<?xml version="1.0" encoding="utf-8"?>
<!-- Generator: Adobe Illustrator 24.3.0, SVG Export Plug-In . SVG Version: 6.00 Build 0)  -->
<svg version="1.1" id="Layer_1" xmlns="http://www.w3.org/2000/svg" xmlns:xlink="http://www.w3.org/1999/xlink" x="0px" y="0px"
	 width="99px" height="123px" viewBox="0 0 99 123" style="enable-background:new 0 0 99 123;" xml:space="preserve">
<style type="text/css">
	.st0{fill:#00B0FB;}
	.st1{fill:#00B0FB;fill-opacity:0.4;}
	.st2{fill:#FFFFFF;}
	.st3{fill:none;}
	.st4{fill:#001135;}
	.st5{fill:#3C7CFF;}
	.st6{fill:#3C7CFF;stroke:#001135;stroke-width:0.7602;stroke-miterlimit:10;}
	.st7{fill:#DBDBDB;}
	.st8{fill:#B9B9B9;}
	.st9{fill:#080808;}
	.st10{fill:#060606;}
	.st11{fill:#070707;}
	.st12{fill:#121212;}
	.st13{fill:#111111;}
	.st14{fill:#090909;}
	.st15{fill:#FDFDFD;}
	.st16{fill:#F9F9F9;}
	.st17{fill:#F3F2F3;}
	.st18{fill:#FAFAFA;}
	.st19{fill:#0A0A0A;}
	.st20{fill:#EEEEEE;}
	.st21{fill:#0D0D0D;}
	.st22{fill:#0C0C0C;}
	.st23{fill:#0E0E0E;}
	.st24{fill:#050505;}
	.st25{fill:#3A3A3A;}
	.st26{fill:#525252;}
	.st27{fill:#474747;}
	.st28{fill:#1E1E1E;}
	.st29{fill:#1D1D1D;}
	.st30{fill:#222222;}
	.st31{fill:#494949;}
	.st32{fill:#585858;}
	.st33{fill:#EDEDED;}
	.st34{fill:#F0F0F0;}
	.st35{fill:#EAEAEA;}
	.st36{fill:#EAE9EA;}
	.st37{fill:#040404;}
	.st38{fill:#F4F3F4;}
	.st39{fill:#030303;}
	.st40{fill:#E8E8E8;}
	.st41{fill:#0C0C0B;}
	.st42{fill:#0D0D0C;}
	.st43{fill:#919191;}
	.st44{fill:#909090;}
	.st45{fill:#0E0E0D;}
	.st46{fill:#0C0D0C;}
	.st47{fill:#090908;}
	.st48{fill:#141414;}
	.st49{fill:#4C4D4D;}
	.st50{fill:#737474;}
	.st51{fill:#242424;}
	.st52{fill:#202020;}
	.st53{fill:#101010;}
	.st54{fill:#0D0E0D;}
	.st55{fill:#111212;}
	.st56{fill:#0B0B0B;}
	.st57{fill:#0D0C0C;}
	.st58{fill:#E7E7E7;}
	.st59{fill:#272727;}
	.st60{fill:#2E2E2E;}
	.st61{fill:#1F1E1E;}
	.st62{fill:#1B1A1A;}
	.st63{fill:#E6E6E6;}
	.st64{fill:#0F0E0E;}
	.st65{fill:#F2F2F2;}
	.st66{fill:#F4F3F3;}
	.st67{fill:#F9F8F8;}
	.st68{fill:#F1F1F0;}
	.st69{fill:#F6F6F6;}
	.st70{fill:#F5F6F6;}
	.st71{fill:#F5F5F5;}
	.st72{fill:#2C2C2C;}
	.st73{fill:#252625;}
	.st74{fill:#303030;}
	.st75{fill:#2D2D2C;}
	.st76{fill:#2D2D2D;}
	.st77{fill:#262727;}
	.st78{fill:#191919;}
	.st79{fill:#1B1B1B;}
	.st80{fill:#F7F7F7;}
	.st81{fill:#F6F7F7;}
	.st82{fill:#F9F9FA;}
	.st83{fill:#F4F4F4;}
	.st84{fill:#F8F8F8;}
	.st85{fill:#FCFCFC;}
	.st86{fill:#FBFBFB;}
	.st87{fill:#E2E1E2;}
	.st88{fill:#D8D7D8;}
	.st89{fill:#0F0F0F;}
	.st90{fill:#161616;}
	.st91{fill:#181818;}
	.st92{fill:#131313;}
	.st93{fill-rule:evenodd;clip-rule:evenodd;fill:#00B0FB;}
	.st94{fill:#030302;}
	.st95{fill:#D2D3D3;}
	.st96{fill:#1F1F1F;}
	.st97{fill:#0E0D0E;}
	.st98{fill:#BABBBB;}
	.st99{fill:#8A8A8A;}
	.st100{fill:#8E8F8F;}
	.st101{fill:#464746;}
	.st102{fill:#5F5E5E;}
	.st103{fill:#151414;}
	.st104{fill:#282828;}
	.st105{fill:#030202;}
	.st106{fill:#040403;}
	.st107{fill:#040303;}
	.st108{fill:#202021;}
	.st109{fill:#020202;}
	.st110{fill:#050506;}
</style>
<g>
	<path class="st0" d="M4,49.5v-16c0-3.6,2.9-6.5,6.5-6.5h3.2v-1.2h-3.7v1H3.8C2.1,28.5,1,30.9,1,33.5v16c0,2.3,0.9,4.6,2.4,6.3
		c0.9,1,0.9,2.4,0,3.3c-1.6,1.7-2.4,4-2.4,6.3v16c0,2.3,0.9,4.6,2.4,6.3c0.1,0.2,0.3,0.3,0.4,0.5h7.6V88h-0.9C6.9,88,4,85.1,4,81.5
		v-16c0-3.6,2.9-6.5,6.5-6.5h1.3v-3h-1.3C6.9,56,4,53.1,4,49.5z"/>
	<path class="st1" d="M89.5,91h-80C5.9,91,3,93.9,3,97.5v16c0,3.6,2.9,6.5,6.5,6.5h80c3.6,0,6.5-2.9,6.5-6.5v-16
		C96,93.9,93.1,91,89.5,91z M17.5,107.5c-1.1,0-2-0.9-2-2c0-1.1,0.9-2,2-2c1.1,0,2,0.9,2,2C19.5,106.6,18.6,107.5,17.5,107.5z
		 M29.5,107.5c-1.1,0-2-0.9-2-2c0-1.1,0.9-2,2-2c1.1,0,2,0.9,2,2C31.5,106.6,30.6,107.5,29.5,107.5z M41.5,107.5c-1.1,0-2-0.9-2-2
		c0-1.1,0.9-2,2-2c1.1,0,2,0.9,2,2C43.5,106.6,42.6,107.5,41.5,107.5z M81.5,107.5h-24c-1.1,0-2-0.9-2-2c0-1.1,0.9-2,2-2h24
		c1.1,0,2,0.9,2,2C83.5,106.6,82.6,107.5,81.5,107.5z"/>
	<path class="st0" d="M35.9,60.8c0.3,0.2,0.7,0.3,1.1,0.3c0.7,0,1.3-0.3,1.8-0.7c0.8-0.8,1-1.9,0.5-2.9c-3.1-6.3-4.9-13.1-5.4-20.1
		C33.8,36,32.7,35,31.4,35h-9.6c-0.7,0-1.4,0.3-1.9,0.9c-0.5,0.5-0.7,1.3-0.6,2C20.7,47.7,26.9,56.3,35.9,60.8z"/>
	<path class="st0" d="M37.5,31.2c0.5,0.5,1.1,0.8,1.8,0.8h6.1c1.4,0,2.5-1.1,2.5-2.5v-20c0-1.1-0.8-2.1-1.8-2.4
		C45.9,7,45.7,7,45.5,7c-0.9,0-1.7,0.5-2.2,1.2c-3.7,6.4-6,13.7-6.5,21.1C36.8,30,37.1,30.7,37.5,31.2z"/>
	<path class="st0" d="M21.8,32h9.6c1.3,0,2.4-1,2.5-2.4c0.4-7,2.2-13.8,5.4-20.1c0.5-1,0.3-2.1-0.5-2.9C38.3,6.2,37.6,6,37,6
		c-0.4,0-0.8,0.1-1.1,0.3c-9,4.5-15.1,13.1-16.6,22.9c-0.1,0.7,0.1,1.4,0.6,2C20.4,31.7,21.1,32,21.8,32z"/>
	<path class="st0" d="M45.5,35h-6.1c-0.7,0-1.4,0.3-1.8,0.8c-0.5,0.5-0.7,1.2-0.7,1.9c0.5,7.4,2.7,14.7,6.5,21.1
		c0.4,0.8,1.3,1.2,2.2,1.2c0.2,0,0.4,0,0.6-0.1c1.1-0.3,1.9-1.3,1.9-2.4v-20C48,36.1,46.9,35,45.5,35z"/>
	<path class="st0" d="M52.8,59.9c0.2,0.1,0.4,0.1,0.7,0.1c0.9,0,1.7-0.5,2.2-1.2c3.7-6.4,6-13.7,6.5-21.1c0-0.7-0.2-1.4-0.7-1.9
		C61,35.3,60.3,35,59.6,35h-6.1c-1.4,0-2.5,1.1-2.5,2.5v20C51,58.7,51.8,59.6,52.8,59.9z"/>
	<path class="st0" d="M53.5,32h6.1c0.7,0,1.4-0.3,1.8-0.8c0.5-0.5,0.7-1.2,0.7-1.9c-0.5-7.4-2.7-14.7-6.5-21.1
		C55.2,7.5,54.4,7,53.5,7c-0.2,0-0.4,0-0.6,0.1C51.8,7.4,51,8.4,51,9.5v20C51,30.9,52.1,32,53.5,32z"/>
	<path class="st0" d="M65.1,29.6c0.1,1.3,1.2,2.4,2.5,2.4h9.6c0.7,0,1.4-0.3,1.9-0.9c0.5-0.5,0.7-1.3,0.6-2
		c-1.4-9.9-7.6-18.4-16.5-22.9C62.8,6.1,62.4,6,62,6c-0.7,0-1.3,0.3-1.8,0.7c-0.8,0.8-1,1.9-0.5,2.9C62.9,15.9,64.7,22.6,65.1,29.6z
		"/>
	<path class="st0" d="M77.2,35h-9.6c-1.3,0-2.4,1-2.5,2.4c-0.4,7-2.2,13.8-5.4,20.1c-0.5,1-0.3,2.1,0.5,2.9c0.5,0.5,1.1,0.7,1.8,0.7
		c0.4,0,0.8-0.1,1.1-0.3c9-4.5,15.1-13.1,16.6-22.9c0.1-0.7-0.1-1.4-0.6-2C78.6,35.3,77.9,35,77.2,35z"/>
	<path class="st2" d="M99,49.5v-16c0-5.2-4.3-9.5-9.5-9.5h-6.1c-1.1,0-2-0.7-2.4-1.7C76.9,10.5,66.2,1.9,53.8,0.3
		c-0.1,0-0.3,0-0.4-0.1c-0.1,0-0.3-0.1-0.4-0.1l-0.3,0c-0.1,0-0.1,0-0.2,0c-1-0.1-2-0.1-2.9-0.1c-0.9,0-1.8,0-2.8,0.1h-0.2
		c-0.1,0-0.2,0-0.3,0c-0.1,0-0.1,0-0.2,0c-0.2,0-0.3,0-0.5,0.1c-0.2,0.1-0.3,0.1-0.5,0.1C32.5,2,22.1,10.4,17.9,22.3
		c-0.4,1-1.3,1.7-2.4,1.7h-6C4.3,24,0,28.3,0,33.5v16c0,2.3,0.9,4.6,2.4,6.3c0.9,1,0.9,2.4,0,3.3c-1.6,1.7-2.4,4-2.4,6.3v16
		c0,2.3,0.9,4.6,2.4,6.3c0.9,1,0.9,2.4,0,3.3c-1.6,1.7-2.4,4-2.4,6.3v16c0,5.2,4.3,9.5,9.5,9.5h80c5.2,0,9.5-4.3,9.5-9.5v-16
		c0-2.3-0.9-4.6-2.4-6.3c-0.8-1-0.8-2.4,0-3.3c1.6-1.7,2.4-4,2.4-6.3v-16c0-2.3-0.9-4.6-2.4-6.3c-0.8-1-0.8-2.4,0-3.3
		C98.1,54.1,99,51.8,99,49.5z M60.3,6.7C60.7,6.2,61.4,6,62,6c0.4,0,0.8,0.1,1.1,0.3c8.9,4.5,15.1,13.1,16.5,22.9
		c0.1,0.7-0.1,1.4-0.6,2c-0.5,0.6-1.2,0.9-1.9,0.9h-9.6c-1.3,0-2.4-1-2.5-2.3c-0.4-7-2.2-13.8-5.3-20.1C59.3,8.6,59.5,7.5,60.3,6.7z
		 M79.7,37.9c-1.4,9.9-7.6,18.4-16.5,22.9c-0.3,0.2-0.7,0.3-1.1,0.3c-0.7,0-1.3-0.3-1.8-0.7c-0.8-0.8-1-1.9-0.5-2.9
		c3.2-6.3,5-13.1,5.4-20.1c0.1-1.3,1.2-2.4,2.5-2.4h9.6c0.7,0,1.4,0.3,1.9,0.9C79.6,36.4,79.8,37.1,79.7,37.9z M51,9.5
		c0-1.1,0.8-2.1,1.8-2.4C53.1,7,53.3,7,53.5,7c0.9,0,1.7,0.5,2.2,1.2c3.7,6.4,6,13.7,6.5,21.1c0,0.7-0.2,1.4-0.7,1.9
		C61,31.7,60.3,32,59.6,32h-6.1c-1.4,0-2.5-1.1-2.5-2.5V9.5z M51,37.5c0-1.4,1.1-2.5,2.5-2.5h6.1c0.7,0,1.4,0.3,1.8,0.8
		c0.5,0.5,0.7,1.2,0.7,1.9c-0.5,7.4-2.7,14.7-6.5,21.1c-0.5,0.8-1.3,1.2-2.2,1.2c-0.2,0-0.4,0-0.7-0.1c-1.1-0.3-1.8-1.3-1.8-2.4
		V37.5z M45.5,7c0.2,0,0.4,0,0.6,0.1C47.2,7.4,48,8.4,48,9.5v20c0,1.4-1.1,2.5-2.5,2.5h-6.1c-0.7,0-1.4-0.3-1.8-0.8
		c-0.5-0.5-0.7-1.2-0.7-1.9c0.5-7.4,2.7-14.7,6.5-21.1C43.8,7.4,44.6,7,45.5,7z M48,37.5v20c0,1.1-0.8,2.1-1.9,2.4
		C45.9,60,45.7,60,45.5,60c-0.9,0-1.7-0.5-2.2-1.2c-3.7-6.4-6-13.7-6.5-21.1c0-0.7,0.2-1.4,0.7-1.9c0.5-0.5,1.1-0.8,1.8-0.8h6.1
		C46.9,35,48,36.1,48,37.5z M19.3,29.2c1.4-9.9,7.6-18.5,16.5-22.9C36.2,6,36.6,5.9,37,5.9c0.7,0,1.3,0.3,1.8,0.7
		c0.8,0.8,0.9,1.9,0.5,2.9c-3.2,6.3-5,13.1-5.4,20.1C33.8,31,32.7,32,31.4,32h-9.6c-0.7,0-1.4-0.3-1.9-0.9
		C19.4,30.6,19.2,29.9,19.3,29.2z M19.9,35.9c0.5-0.6,1.2-0.9,1.9-0.9h9.6c1.3,0,2.4,1,2.5,2.4c0.4,7,2.2,13.8,5.4,20.1
		c0.5,1,0.3,2.1-0.5,2.9c-0.5,0.5-1.1,0.7-1.8,0.7c-0.4,0-0.8-0.1-1.1-0.3c-9-4.5-15.1-13.1-16.5-22.9
		C19.2,37.1,19.4,36.4,19.9,35.9z M3,49.5v-16C3,29.9,5.9,27,9.5,27h4.2c0.7,0,1.4,0.3,1.9,0.8c0.5,0.5,0.7,1.2,0.6,1.9
		C16.1,31,16,32.3,16,33.5c0,6.7,1.9,13.1,5.6,18.6c0.5,0.8,0.6,1.8,0.1,2.6c-0.4,0.8-1.3,1.3-2.2,1.3H9.5C5.9,56,3,53.1,3,49.5z
		 M96,97.5v16c0,3.6-2.9,6.5-6.5,6.5h-80c-3.6,0-6.5-2.9-6.5-6.5v-16C3,93.9,5.9,91,9.5,91h80C93.1,91,96,93.9,96,97.5z M96,65.5v16
		c0,3.6-2.9,6.5-6.5,6.5h-80C5.9,88,3,85.1,3,81.5v-16C3,61.9,5.9,59,9.5,59h17.4c0.6,0,1.1,0.2,1.6,0.6c5.9,4.8,13.4,7.4,21.1,7.4
		c7.7,0,15-2.6,21-7.4c0.4-0.4,1-0.6,1.6-0.6h17.4C93.1,59,96,61.9,96,65.5z M96,49.5c0,3.6-2.9,6.5-6.5,6.5H79.4
		c-0.9,0-1.8-0.5-2.2-1.3c-0.4-0.8-0.4-1.8,0.1-2.6C81,46.6,83,40.2,83,33.5c0-1.2-0.1-2.5-0.2-3.7c-0.1-0.7,0.1-1.4,0.6-1.9
		c0.5-0.5,1.2-0.8,1.9-0.8h4.2c3.6,0,6.5,2.9,6.5,6.5V49.5z"/>
	<circle class="st2" cx="17.5" cy="73.5" r="2"/>
	<circle class="st2" cx="29.5" cy="73.5" r="2"/>
	<circle class="st2" cx="41.5" cy="73.5" r="2"/>
	<path class="st2" d="M83.5,73.5c0,1.1-0.9,2-2,2h-24c-1.1,0-2-0.9-2-2c0-1.1,0.9-2,2-2h24C82.6,71.5,83.5,72.4,83.5,73.5z"/>
	<circle class="st2" cx="17.5" cy="105.5" r="2"/>
	<circle class="st2" cx="29.5" cy="105.5" r="2"/>
	<circle class="st2" cx="41.5" cy="105.5" r="2"/>
	<path class="st2" d="M81.5,103.5h-24c-1.1,0-2,0.9-2,2s0.9,2,2,2h24c1.1,0,2-0.9,2-2S82.6,103.5,81.5,103.5z"/>
</g>
</svg>
