<?xml version="1.0" encoding="utf-8"?>
<!-- Generator: Adobe Illustrator 24.3.0, SVG Export Plug-In . SVG Version: 6.00 Build 0)  -->
<svg version="1.1" id="Layer_1" xmlns="http://www.w3.org/2000/svg" xmlns:xlink="http://www.w3.org/1999/xlink" x="0px" y="0px"
	 width="130.1px" height="127.3px" viewBox="0 0 130.1 127.3" style="enable-background:new 0 0 130.1 127.3;" xml:space="preserve"
	>
<style type="text/css">
	.st0{fill:#00B0FB;}
	.st1{fill:#00B0FB;fill-opacity:0.4;}
	.st2{fill:#FFFFFF;}
	.st3{fill:none;}
	.st4{fill:#001135;}
	.st5{fill:#3C7CFF;}
	.st6{fill:#3C7CFF;stroke:#001135;stroke-width:0.7602;stroke-miterlimit:10;}
	.st7{fill:#DBDBDB;}
	.st8{fill:#B9B9B9;}
	.st9{fill:#080808;}
	.st10{fill:#060606;}
	.st11{fill:#070707;}
	.st12{fill:#121212;}
	.st13{fill:#111111;}
	.st14{fill:#090909;}
	.st15{fill:#FDFDFD;}
	.st16{fill:#F9F9F9;}
	.st17{fill:#F3F2F3;}
	.st18{fill:#FAFAFA;}
	.st19{fill:#0A0A0A;}
	.st20{fill:#EEEEEE;}
	.st21{fill:#0D0D0D;}
	.st22{fill:#0C0C0C;}
	.st23{fill:#0E0E0E;}
	.st24{fill:#050505;}
	.st25{fill:#3A3A3A;}
	.st26{fill:#525252;}
	.st27{fill:#474747;}
	.st28{fill:#1E1E1E;}
	.st29{fill:#1D1D1D;}
	.st30{fill:#222222;}
	.st31{fill:#494949;}
	.st32{fill:#585858;}
	.st33{fill:#EDEDED;}
	.st34{fill:#F0F0F0;}
	.st35{fill:#EAEAEA;}
	.st36{fill:#EAE9EA;}
	.st37{fill:#040404;}
	.st38{fill:#F4F3F4;}
	.st39{fill:#030303;}
	.st40{fill:#E8E8E8;}
	.st41{fill:#0C0C0B;}
	.st42{fill:#0D0D0C;}
	.st43{fill:#919191;}
	.st44{fill:#909090;}
	.st45{fill:#0E0E0D;}
	.st46{fill:#0C0D0C;}
	.st47{fill:#090908;}
	.st48{fill:#141414;}
	.st49{fill:#4C4D4D;}
	.st50{fill:#737474;}
	.st51{fill:#242424;}
	.st52{fill:#202020;}
	.st53{fill:#101010;}
	.st54{fill:#0D0E0D;}
	.st55{fill:#111212;}
	.st56{fill:#0B0B0B;}
	.st57{fill:#0D0C0C;}
	.st58{fill:#E7E7E7;}
	.st59{fill:#272727;}
	.st60{fill:#2E2E2E;}
	.st61{fill:#1F1E1E;}
	.st62{fill:#1B1A1A;}
	.st63{fill:#E6E6E6;}
	.st64{fill:#0F0E0E;}
	.st65{fill:#F2F2F2;}
	.st66{fill:#F4F3F3;}
	.st67{fill:#F9F8F8;}
	.st68{fill:#F1F1F0;}
	.st69{fill:#F6F6F6;}
	.st70{fill:#F5F6F6;}
	.st71{fill:#F5F5F5;}
	.st72{fill:#2C2C2C;}
	.st73{fill:#252625;}
	.st74{fill:#303030;}
	.st75{fill:#2D2D2C;}
	.st76{fill:#2D2D2D;}
	.st77{fill:#262727;}
	.st78{fill:#191919;}
	.st79{fill:#1B1B1B;}
	.st80{fill:#F7F7F7;}
	.st81{fill:#F6F7F7;}
	.st82{fill:#F9F9FA;}
	.st83{fill:#F4F4F4;}
	.st84{fill:#F8F8F8;}
	.st85{fill:#FCFCFC;}
	.st86{fill:#FBFBFB;}
	.st87{fill:#E2E1E2;}
	.st88{fill:#D8D7D8;}
	.st89{fill:#0F0F0F;}
	.st90{fill:#161616;}
	.st91{fill:#181818;}
	.st92{fill:#131313;}
	.st93{fill-rule:evenodd;clip-rule:evenodd;fill:#00B0FB;}
	.st94{fill:#030302;}
	.st95{fill:#D2D3D3;}
	.st96{fill:#1F1F1F;}
	.st97{fill:#0E0D0E;}
	.st98{fill:#BABBBB;}
	.st99{fill:#8A8A8A;}
	.st100{fill:#8E8F8F;}
	.st101{fill:#464746;}
	.st102{fill:#5F5E5E;}
	.st103{fill:#151414;}
	.st104{fill:#282828;}
	.st105{fill:#030202;}
	.st106{fill:#040403;}
	.st107{fill:#040303;}
	.st108{fill:#202021;}
	.st109{fill:#020202;}
	.st110{fill:#050506;}
</style>
<g>
	<path class="st0" d="M2.5,47.7v-2c0-2.3,0.8-3.1,3.1-3.1h87.6c2.5,0,3.2,0.7,3.2,3.2l0,1.9h2.5c0-0.8,0-1.5,0-2.3
		c0-3.5-1.8-5.3-5.3-5.3H89c-0.2,0-0.3-0.1-0.3-0.3v-2.2h-2.7v2.1c0,0.2-0.1,0.3-0.3,0.3H13.2c-0.2,0-0.3-0.1-0.3-0.3v-2.1h-2.7v2.2
		c0,0.2-0.1,0.3-0.3,0.3c-0.6,0-1.1,0-1.7,0c-0.5,0-1.1,0-1.6,0c-0.6,0-1.2,0-1.8,0c-0.1,0-0.1,0-0.2,0c-1.1,0-2.3,0.5-3.2,1.5
		c-1,1-1.5,2.3-1.5,3.5c0,0.9,0,1.8,0,2.7H2.5z"/>
	<path class="st0" d="M79.4,24.4c3.7-0.1,6.6-3.1,6.6-6.7c0-3.6-3-6.6-6.6-6.6c0,0,0,0,0,0c-3.6,0-6.6,3-6.6,6.6
		C72.8,21.4,75.8,24.4,79.4,24.4z"/>
	<path class="st0" d="M79.4,63.4c1.7,0,3.5-0.8,4.7-2C85,60.5,86,59,86,56.8c0-3.7-2.9-6.6-6.5-6.6c0,0,0,0,0,0
		c-3.6,0-6.6,2.9-6.6,6.5c0,1.8,0.7,3.4,1.9,4.7C76,62.7,77.7,63.4,79.4,63.4z"/>
	<path class="st1" d="M73.8,73.3c0.1-0.1,0.1-0.2,0-0.3s-0.2-0.2-0.3-0.2H13.3c-0.2,0-0.3,0.1-0.3,0.3v4.7c0,0.2,0.1,0.3,0.3,0.3
		l17.8,0c12.6,0,25.1,0,37.7,0c0.2,0,1.1,0,1.6-0.5c0.9-1,1.7-2,2.5-3.1L73.8,73.3z"/>
	<path class="st0" d="M72.5,79.2c-0.1,0.1-0.1,0.2,0,0.3c0,0.1,0.1,0.2,0.3,0.2l0.4,0c0.3,0,0.5,0,0.7,0h7c1.7,0,2.1,0.4,2.2,1
		c0.1,0.7-0.1,1.2-2,1.7c-0.1,0-0.1,0.1-0.2,0.1c0,0.1,0,0.2,0,0.2c3,9.1,6.1,18.1,9.1,27.2c0,0.1,0.2,0.2,0.3,0.2c0,0,0.3,0,0.3,0
		c0.1,0,0.2-0.1,0.2-0.2l1.3-4.4c0.9-3.1,1.9-6.1,2.8-9.2c0.1-0.4,0-0.9-0.2-1.3c-0.4-1.3-0.9-2.5-1.3-3.8c-0.7-1.9-1.4-3.8-2-5.8
		c-0.3-0.8-0.7-1.1-1.5-1.1l-0.2,0c-1.1,0-1.6-0.4-1.6-1.2c0-0.4,0.1-0.6,0.3-0.8c0.3-0.3,0.8-0.4,1.4-0.4c1.3,0,2.5,0,3.8,0l7.5,0
		l1.7,0c0.4,0,0.9,0,1.3,0c0.8,0,1.2,0.4,1.2,1.2c0,0.7-0.3,1.1-1,1.2c-0.2,0-0.4,0.1-0.6,0.1l-0.3,0c-0.1,0-0.2,0.1-0.2,0.1
		c0,0.1-0.1,0.2,0,0.3c0,0,4.3,14.2,6,19.7c0,0.1,0.1,0.2,0.2,0.2c0,0,0,0,0.1,0c0.1,0,0.2,0,0.2-0.1c0.1-0.1,0.1-0.2,0.2-0.2
		c0.1-0.1,0.1-0.2,0.2-0.3l0.8-2.8c0.9-3.1,1.8-6.2,2.7-9.3c0.2-0.5-0.2-1.2-0.4-1.6c-1.2-2.2-2.5-4.6-2.9-7.3
		c-0.7-4,1.3-7.5,5.1-8.9c0.1-0.1,0.3-0.1,0.4-0.2l0.1-0.1c0.1-0.1,0.1-0.1,0.1-0.2c0-0.1,0-0.2-0.1-0.2c-5.4-4.7-11.9-7.2-19-7.2
		C86.8,66.4,77.3,71.4,72.5,79.2z"/>
	<path class="st1" d="M93.3,2.6c-14.6,0-29.2,0-43.8,0s-29.2,0-43.8,0c-2.4,0-3.1,0.8-3.1,3.1V28c0,2.5,0.8,3.3,3.2,3.3
		c14.6,0,29.2,0,43.8,0h43.9c2.2,0,3-0.8,3-3c0-7.5,0-15.1,0-22.6C96.5,3.3,95.7,2.6,93.3,2.6z M44.4,12.6c0.8-1,1.8-2,3-3
		c0.1-0.1,0.3-0.2,0.6-0.2c0.2,0,0.5,0.1,0.7,0.1c0.2,0.1,0.4,0.4,0.5,0.6c0,0.1,0.1,0.2,0.1,0.2c0,0.1,0,0.2,0,0.3
		c0,0.1,0,0.1,0,0.1l-0.8,0.8C48,12,47.5,12.5,47,13c-0.5,0.5-1,1-1.5,1.4c-0.3,0-0.9-0.3-1.1-0.5C44.2,13.6,44.2,12.8,44.4,12.6z
		 M26.8,12.6c1-1.2,2-2.2,3-3c0.1-0.1,0.3-0.1,0.6-0.1c0.3,0,0.6,0.1,0.7,0.2c0.3,0.3,0.5,1.2,0.4,1.4c-0.8,1-1.7,1.9-2.6,2.8
		l-0.6,0.6c0,0-0.2,0.1-0.3,0.1c-0.1,0-0.2,0-0.3,0.1c-0.1-0.1-0.2-0.1-0.2-0.1c-0.2-0.1-0.6-0.3-0.6-0.5
		C26.6,13.5,26.6,12.8,26.8,12.6z M18,12.5c1-1.2,2-2.2,2.9-2.9c0.1-0.1,0.3-0.1,0.6-0.1c0.4,0,0.7,0.1,0.8,0.2
		c0.3,0.2,0.4,1.2,0.3,1.4c-0.8,1-1.7,1.8-2.6,2.7l-0.6,0.6c0,0-0.2,0.1-0.4,0.1c-0.1,0-0.2,0-0.3,0.1c-0.1-0.1-0.2-0.1-0.2-0.2
		C18.3,14.2,18,14,18,13.8C17.8,13.4,17.9,12.8,18,12.5z M9.3,12.4c0.9-1.1,1.9-2,2.8-2.9c0.2-0.2,0.5-0.3,0.8-0.3
		c0.2,0,0.5,0.1,0.7,0.4c0.3,0.4,0.4,1.3,0.3,1.5c-0.7,0.9-1.6,1.8-2.5,2.6l-0.6,0.6c0,0-0.2,0.1-0.4,0.1c-0.1,0-0.2,0.1-0.3,0.1
		c-0.1-0.1-0.2-0.1-0.2-0.2c-0.3-0.2-0.6-0.4-0.7-0.6C9,13.4,9.1,12.7,9.3,12.4z M10.3,24.5L10.3,24.5c-0.4,0-1-0.4-1.2-0.6
		c-0.2-0.3-0.1-1,0.1-1.2c0.9-1.1,1.8-2,2.9-2.9c0.1-0.1,0.4-0.2,0.7-0.2c0.2,0,0.4,0,0.6,0.1c0.2,0.1,0.4,0.4,0.6,0.7
		c0,0.1,0.1,0.1,0.1,0.2C13.9,21.5,11.1,24.5,10.3,24.5z M19.1,24.4L19.1,24.4c-0.5-0.1-1-0.4-1.1-0.7c-0.1-0.3-0.1-1,0.1-1.3
		c0.8-1,1.8-1.9,2.8-2.8c0.2-0.1,0.5-0.2,0.8-0.2c0.2,0,0.3,0,0.5,0.1c0.2,0.1,0.4,0.4,0.6,0.6c0,0.1,0.1,0.1,0.1,0.2
		C22.7,21.6,19.9,24.4,19.1,24.4z M31.6,20.8c-0.1,0.2-0.1,0.4-0.2,0.4L31,21.8c-0.8,0.8-1.6,1.7-2.5,2.4c0,0-0.1,0.1-0.4,0.1
		c-0.4,0-0.8-0.1-1.1-0.3c-0.2-0.2-0.4-0.4-0.4-0.6c0-0.3,0.1-0.6,0.3-0.9c1.1-1.2,2-2.2,2.9-2.9c0.2-0.1,0.5-0.2,0.8-0.2
		c0.2,0,0.4,0,0.5,0.1c0.2,0.1,0.4,0.4,0.6,0.7c0.1,0.1,0.1,0.2,0.2,0.3C31.7,20.6,31.7,20.7,31.6,20.8z M38.7,23
		c-1,1-1.8,1.5-2.1,1.5l0,0c-0.4-0.1-0.9-0.4-1-0.6c-0.2-0.4-0.1-1,0.1-1.3c0.9-1.1,1.9-2,2.9-2.9c0.1-0.1,0.4-0.2,0.7-0.2
		c0.2,0,0.4,0,0.6,0.1c0.2,0.1,0.4,0.4,0.5,0.6c0,0.1,0.1,0.1,0.1,0.2C40.4,20.9,39.7,21.9,38.7,23z M38.6,13.1
		c-0.9,0.9-1.6,1.4-1.9,1.4h0c-0.4-0.1-1-0.4-1.1-0.7c-0.2-0.3-0.1-1,0.1-1.3c0.9-1.1,1.9-2.1,2.9-2.9c0.1-0.1,0.4-0.2,0.7-0.2
		c0.2,0,0.4,0,0.6,0.1c0.2,0.1,0.4,0.4,0.5,0.6c0,0.1,0.1,0.1,0.1,0.2C40.4,10.9,39.6,12,38.6,13.1z M49.2,20.8
		c0,0.2-0.1,0.3-0.1,0.4l-0.6,0.6c-0.8,0.8-1.6,1.7-2.5,2.4c0,0-0.1,0.1-0.4,0.1c-0.4,0-0.8-0.1-1.1-0.3c-0.2-0.1-0.4-0.3-0.4-0.6
		c0-0.3,0-0.6,0.2-0.8c1-1.2,2.1-2.2,3.2-3.1c0.1,0,0.2-0.1,0.4-0.1c0.3,0,0.6,0.1,0.7,0.2c0.2,0.1,0.4,0.4,0.5,0.7
		c0,0.1,0.1,0.2,0.1,0.2C49.3,20.6,49.3,20.7,49.2,20.8z M53.2,12.5c1-1.2,1.9-2.1,2.9-2.9c0.1-0.1,0.4-0.1,0.7-0.1
		c0.3,0,0.7,0.1,0.8,0.2c0.2,0.2,0.5,1.1,0.3,1.2c-0.8,1-1.7,1.9-2.6,2.8l-0.7,0.7c0,0-0.2,0-0.3,0.1c-0.1,0-0.2,0-0.3,0.1
		c-0.1-0.1-0.1-0.1-0.2-0.2c-0.3-0.1-0.5-0.3-0.6-0.5C53,13.4,53,12.8,53.2,12.5z M56.5,22.7c-1.1,1.1-2.1,1.8-2.4,1.8h0
		c-0.5,0-0.9-0.3-1.1-0.8c-0.2-0.4-0.1-0.7,0.1-1c1-1.2,2.1-2.3,3.2-3.2c0.2-0.1,0.3-0.2,0.5-0.2c0.6,0,1.2,0.5,1.2,1.2
		C58.1,20.9,57.6,21.7,56.5,22.7z M79.5,26.9L79.5,26.9c-2.5,0-4.7-0.9-6.4-2.7c-1.7-1.7-2.7-4.1-2.7-6.5c0-5,4.1-9.1,9.1-9.1
		c5,0,9.1,4.1,9.1,9.1C88.5,22.8,84.5,26.9,79.5,26.9z"/>
	<path class="st0" d="M117.2,76.5c-1.9,0-3.4,1-4.1,2.8c-0.4,1-0.6,2.3-0.5,3.4c0.3,2.6,1.6,4.9,2.9,7.1l0.2,0.3
		c0.3,0.5,0.5,1.3,0.4,1.8c-1.2,4.5-2.5,9.1-3.8,13.5l-1.4,5.1c-0.2,0.8-0.7,1.2-1.3,1.2c-0.6,0-1-0.4-1.3-1.2
		c-0.4-1.3-0.8-2.7-1.2-4l-0.5-1.6l-1.1-3.8c-1.5-5.1-3.1-10.2-4.7-15.4c-0.1-0.4-0.6-1.1-1.1-1.2c-0.8,0-1.7-0.1-2.6-0.1
		c0,0-2.4,0-3,0c-0.1,0-0.2,0-0.2,0.1s-0.1,0.2,0,0.3l13.7,38.3c0,0.1,0.1,0.2,0.2,0.2c0,0,0.1,0,0.1,0c0.1,0,0.1,0,0.2-0.1
		c0.3-0.3,0.7-0.5,1-0.8c0.7-0.5,1.4-1,1.6-1.6c3.6-11.2,7-22.3,9.9-31.8c0.9-3.1,1.3-5.8,1-8.4c-0.2-1.7-2.1-3.9-3.5-4.2
		C117.8,76.5,117.5,76.5,117.2,76.5z"/>
	<path class="st0" d="M114.2,118.9c0.1,0,0.1,0.1,0.2,0.1c0.1,0,0.1,0,0.2-0.1c6-4.5,9.7-10.6,11.1-18c0.9-4.9,0.5-9.7-1.1-14.4
		c0-0.1-0.2-0.2-0.3-0.2c0,0,0,0,0,0c-0.1,0-0.2,0.1-0.3,0.2l-9.9,32C114,118.6,114.1,118.8,114.2,118.9z"/>
	<path class="st0" d="M70.1,84.5c0-0.1-0.1-0.2-0.3-0.2c0,0,0,0,0,0c-0.1,0-0.2,0.1-0.3,0.2c-6.4,14.5,1,30,11.4,36.1
		c0,0,0.1,0,0.2,0c0.1,0,0.1,0,0.2-0.1c0.1-0.1,0.1-0.2,0.1-0.3C77.6,108.2,73.9,96.4,70.1,84.5z"/>
	<path class="st0" d="M96.5,100.7C96.5,100.7,96.5,100.7,96.5,100.7c-0.1,0-0.2,0.1-0.3,0.2l-7.1,23c0,0.1,0,0.2,0,0.2
		s0.1,0.1,0.2,0.1c2.4,0.6,4.9,0.9,7.3,0.9c2.7,0,5.4-0.4,8.2-1.1c0.1,0,0.1-0.1,0.2-0.2s0-0.2,0-0.2c-2.7-7.6-5.4-15-8.1-22.8
		C96.8,100.8,96.6,100.7,96.5,100.7z"/>
	<path class="st0" d="M86.5,107.6l-0.7-2.1c-2.4-7.3-4.9-14.6-7.4-22c-0.1-0.4-0.6-1.1-1.1-1.2c-0.6,0-1.3-0.1-2.3-0.1
		c-0.4,0-2.1,0-2.6,0c-0.1,0-0.2,0-0.2,0.1s-0.1,0.2-0.1,0.3l0.1,0.3c0,0.2,0.1,0.3,0.1,0.4c4.1,12.8,8.1,25.6,12.2,38.4
		c0.1,0.4,0.5,0.7,0.8,1.1c0.2,0.2,0.4,0.4,0.6,0.6c0.1,0.1,0.1,0.1,0.2,0.1c0,0,0,0,0.1,0c0.1,0,0.2-0.1,0.2-0.2l0.7-2
		c0.6-1.7,1.1-3.4,1.6-5c0.2-0.6,0.2-1.4,0-2C88.1,112.1,87.3,109.8,86.5,107.6z"/>
	<path class="st2" d="M103.4,64.6c-0.9-0.2-1.8-0.3-2.7-0.5c-0.5-0.1-0.9-0.2-1.4-0.2c-0.1,0-0.2-0.1-0.2-0.3l0-0.7
		c0-0.6-0.1-1.2-0.1-1.7v-8.4c0-2.8,0-5.6,0-8.4c0-3.5-1.8-5.3-5.3-5.3H89c-0.2,0-0.3-0.1-0.3-0.3V34c0-0.2,0.1-0.3,0.3-0.3h2.4
		c0.8,0,1.6,0,2.4,0c3,0,5-2,5-4.9c0-3,0-5.9,0-8.9c0-4.9,0-9.9,0-14.9c0-1.2-0.5-2.5-1.5-3.4c-1-1-2.3-1.6-3.6-1.6
		C78,0,62.1,0.1,46.3,0.1l-42,0C2.5,0.1,0,2.6,0,4.4c0,6.3,0,12.5,0,18.8v6.3c0,0.3,0,0.7,0.1,0.9c1.1,2.3,2.7,3.4,4.9,3.4h0.3
		c0.6,0,1.2,0,1.7,0c0.5,0,1,0,1.4,0c0.5,0,1,0,1.4,0c0.2,0,0.3,0.1,0.3,0.3v4.8c0,0.2-0.1,0.3-0.3,0.3c-0.6,0-1.1,0-1.7,0
		c-0.5,0-1.1,0-1.6,0c-0.6,0-1.2,0-1.8,0c-0.1,0-0.1,0-0.2,0c-1.1,0-2.3,0.5-3.2,1.5c-1,1-1.5,2.3-1.5,3.5
		c0.1,5.5,0.1,11.1,0.1,16.6c0,2.5,0,5,0,7.6c0,0.4,0,0.9,0.2,1.2c1,2.2,2.6,3.3,4.8,3.3c0.1,0,0.2,0,0.3,0c0.6,0,1.2,0,1.8,0
		c0.5,0,2.4,0,2.9,0c0.2,0,0.3,0.1,0.3,0.3v4.8c0,0.2-0.1,0.3-0.3,0.3l-3.6,0c-0.6,0-1.2,0-1.8,0c-1,0-2.2,0.5-3.1,1.4
		c-1,1-1.5,2.2-1.5,3.3c0.1,8.3,0.1,16.3,0,24c0,2.4,2.3,4.8,4.6,4.9c0.5,0,1.1,0,1.6,0c20.4,0,40.8,0,61.2,0c1,0,1.6,0.3,2.2,1.1
		c0.1,0.1,0.3,0.4,0.4,0.5c1.3,1.8,2.8,3.4,4.4,4.9c6.1,5.7,14.3,9,22.6,9c2.1,0,4.2-0.2,6.2-0.6c14.4-2.9,25.2-16.2,25.2-30.9
		C128.5,80.6,118.2,67.8,103.4,64.6z M115.8,73.5c0.1,0.1,0.1,0.2,0.1,0.2c0,0.1,0,0.2-0.1,0.2l-0.1,0.1c-0.1,0.1-0.2,0.2-0.4,0.2
		c-3.8,1.4-5.8,4.9-5.1,8.9c0.5,2.8,1.7,5.1,2.9,7.3c0.2,0.4,0.5,1.1,0.4,1.6c-0.9,3.1-1.8,6.2-2.6,9.3l-0.8,2.8
		c0,0.1-0.1,0.2-0.2,0.3c0,0.1-0.1,0.1-0.2,0.2c-0.1,0.1-0.1,0.1-0.2,0.1h0c-0.1,0-0.2-0.1-0.2-0.2c-1.7-5.5-6-19.7-6-19.7
		c0-0.1,0-0.2,0-0.3c0-0.1,0.1-0.1,0.2-0.1l0.2,0c0.2,0,0.4-0.1,0.6-0.1c0.7-0.2,1.1-0.6,1-1.2c0-0.8-0.4-1.2-1.2-1.2
		c-0.4,0-0.9,0-1.3,0l-1.7,0H89.7c-0.7,0-1.1,0.1-1.4,0.4c-0.2,0.2-0.3,0.5-0.3,0.8c0,0.8,0.5,1.2,1.6,1.2h0.2
		c0.8,0,1.2,0.3,1.5,1.1c0.7,1.9,1.4,3.8,2,5.8c0.5,1.3,0.9,2.5,1.3,3.8c0.2,0.4,0.3,0.9,0.2,1.3c-0.9,3.1-1.9,6.1-2.8,9.2l-1.3,4.4
		c0,0.1-0.1,0.2-0.2,0.2c0,0-0.3,0-0.3,0c-0.1,0-0.2-0.1-0.3-0.2c-3-9.1-6.1-18.1-9.1-27.2c0-0.1,0-0.2,0-0.2c0-0.1,0.1-0.1,0.2-0.2
		c1.8-0.5,2.1-0.9,2-1.7c-0.1-0.7-0.5-1.1-2.2-1.1h-7c-0.2,0-0.5,0-0.7,0l-0.4,0c-0.1,0-0.2-0.1-0.2-0.2c0-0.1,0-0.2,0-0.3
		c4.8-7.8,14.4-12.9,24.2-12.9C103.8,66.3,110.4,68.8,115.8,73.5z M70.3,77.6c-0.4,0.5-1.4,0.5-1.6,0.5c-12.6,0-25.1,0-37.7,0
		l-17.8,0c-0.2,0-0.3-0.1-0.3-0.3v-4.7c0-0.2,0.1-0.3,0.3-0.3h60.3c0.1,0,0.2,0.1,0.3,0.2c0,0.1,0,0.2,0,0.3l-0.9,1.2
		C72,75.5,71.2,76.6,70.3,77.6z M5.8,31.2c-2.5,0-3.2-0.8-3.2-3.3V5.7c0-2.3,0.8-3.1,3.1-3.1c14.6,0,29.2,0,43.8,0s29.2,0,43.8,0
		c2.3,0,3.1,0.8,3.1,3.1c0,7.5,0,15.1,0,22.6c0,2.2-0.8,3-3,3H49.5C34.9,31.2,20.4,31.2,5.8,31.2z M86.1,34.1v4.6
		c0,0.2-0.1,0.3-0.3,0.3H13.2c-0.2,0-0.3-0.1-0.3-0.3v-4.6c0-0.2,0.1-0.3,0.3-0.3h72.5C86,33.8,86.1,33.9,86.1,34.1z M5.9,70.2
		c-2.7,0-3.3-0.7-3.3-3.3V44.7c0-2.3,0.8-3.1,3.1-3.1h87.6c2.5,0,3.2,0.7,3.2,3.2l0,4.8c0,4.2,0,8.5,0,12.7c0,1.2-0.4,1.6-1.6,1.7
		c-5.4,0.2-10.4,1.8-14.8,4.7c-2.2,1.4-4.3,1.6-6.2,1.6c-15,0-29.9,0-44.9,0H5.9z M67.4,109.1c0,0.1-0.1,0.1-0.2,0.1H5.7
		c-2.5,0-3.2-0.8-3.2-3.2c0-7.5,0-15.1,0-22.6c0-2,0.9-2.9,2.8-2.9H68c0.1,0,0.2,0.1,0.3,0.1c0,0.1,0.1,0.2,0,0.3
		c-2.3,4.5-3.4,9-3.6,13.8c-0.1,4.8,0.8,9.4,2.8,14C67.5,108.9,67.5,109,67.4,109.1z M81.4,120.5c-0.1,0.1-0.1,0.1-0.2,0.1
		c-0.1,0-0.1,0-0.2,0c-10.5-6.1-17.8-21.6-11.4-36.1c0-0.1,0.2-0.2,0.3-0.2c0,0,0,0,0,0c0.1,0,0.2,0.1,0.3,0.2
		c3.8,11.9,7.5,23.7,11.3,35.7C81.5,120.3,81.4,120.5,81.4,120.5z M88.8,116.3c-0.5,1.6-1,3.3-1.6,5l-0.7,2c0,0.1-0.1,0.2-0.2,0.2
		c0,0,0,0-0.1,0c-0.1,0-0.2,0-0.2-0.1c-0.2-0.2-0.4-0.4-0.6-0.6c-0.4-0.3-0.7-0.6-0.8-1.1c-4.1-12.8-8.2-25.6-12.2-38.4
		c0-0.1-0.1-0.2-0.1-0.4l-0.1-0.4c0-0.1,0-0.2,0.1-0.2c0-0.1,0.1-0.1,0.2-0.1c0.5,0,2.1,0,2.6,0c0.9,0,1.6,0,2.2,0.1
		c0.5,0,1,0.8,1.1,1.2c2.5,7.3,4.9,14.6,7.3,21.9l0.7,2.1c0.8,2.2,1.5,4.5,2.3,6.8C89,115,89,115.8,88.8,116.3z M104.9,123.9
		c0,0.1-0.1,0.1-0.2,0.2c-2.8,0.8-5.5,1.1-8.2,1.1c-2.4,0-4.8-0.3-7.3-0.9c-0.1,0-0.1-0.1-0.2-0.1c0-0.1,0-0.2,0-0.2l7.1-23
		c0-0.1,0.1-0.2,0.3-0.2c0,0,0,0,0,0c0.1,0,0.2,0.1,0.3,0.2c2.8,7.7,5.4,15.2,8.1,22.8C105,123.8,105,123.8,104.9,123.9z
		 M108.9,122.6c-0.3,0.2-0.7,0.5-1,0.8c0,0-0.1,0.1-0.2,0.1c0,0,0,0-0.1,0c-0.1,0-0.2-0.1-0.2-0.2L93.7,84.9c0-0.1,0-0.2,0-0.3
		c0.1-0.1,0.1-0.1,0.2-0.1c0.5,0,3,0,3,0c0.9,0,1.7,0,2.6,0.1c0.5,0,1,0.8,1.1,1.2c1.6,5.1,3.1,10.2,4.7,15.4l1.2,3.8l0.5,1.6
		c0.4,1.3,0.8,2.7,1.2,4c0.3,0.9,0.7,1.2,1.3,1.2c0.7,0,1.1-0.4,1.3-1.2l1.5-5.1c1.3-4.4,2.6-9,3.8-13.5c0.1-0.5-0.1-1.3-0.4-1.8
		l-0.2-0.3c-1.3-2.2-2.6-4.4-2.9-7.1c-0.1-1.1,0.1-2.3,0.5-3.4c0.7-1.8,2.3-2.8,4.1-2.8c0.3,0,0.5,0,0.8,0.1
		c1.4,0.2,3.3,2.5,3.5,4.2c0.3,2.6-0.1,5.3-1,8.4c-2.9,9.4-6.3,20.6-9.9,31.8C110.3,121.6,109.7,122.1,108.9,122.6z M114.5,118.8
		c0,0-0.1,0.1-0.2,0.1s-0.1,0-0.2,0c-0.1-0.1-0.2-0.2-0.1-0.3l9.9-32c0-0.1,0.2-0.2,0.3-0.2s0.2,0.1,0.3,0.2
		c1.6,4.7,1.9,9.5,1.1,14.4C124.2,108.3,120.5,114.3,114.5,118.8z"/>
	<path class="st2" d="M129.8,72.4c-3.5-7.4-9.5-12.4-18.1-15.3c-0.1,0-0.3-0.1-0.4-0.1l-0.1,0c-0.5,0-1,0.3-1.2,0.7
		c-0.2,0.3-0.2,0.7,0,1c0.2,0.4,0.8,0.8,1.3,0.9c7.8,2.7,13.2,7.3,16.4,14.1c0.1,0.2,0.2,0.4,0.3,0.5c0.3,0.3,0.6,0.5,0.9,0.5
		c0,0,0,0,0,0c0.2,0,0.5-0.1,0.8-0.3C130.2,73.9,130.3,73.3,129.8,72.4z"/>
	<path class="st2" d="M104.2,58c0.4,0.1,0.9,0.1,1.3,0.2c0.2,0,0.5,0.1,0.7,0.1l0.1,0c0.7,0,1.2-0.4,1.3-1c0.2-1-0.5-1.3-1-1.4
		c-0.7-0.1-1.4-0.2-2.1-0.2c-0.7,0-1.1,0.4-1.2,1.1C103.1,57.6,103.7,57.9,104.2,58z"/>
	<path class="st2" d="M49.5,30.9c-14.6,0-29.2,0-43.8,0C20.4,30.9,34.9,30.9,49.5,30.9c14.6,0,29.3,0,43.9,0
		C78.8,30.9,64.2,30.9,49.5,30.9z"/>
	<path class="st2" d="M79.5,8.7c-5,0-9.1,4.1-9.1,9.1c0,2.5,0.9,4.8,2.7,6.5c1.7,1.7,4,2.7,6.4,2.7h0c5,0,9.1-4.1,9.1-9.1
		C88.5,12.8,84.5,8.7,79.5,8.7z M79.4,24.4c-3.6,0-6.6-3.1-6.6-6.6c0-3.6,3-6.6,6.6-6.6h0c3.6,0,6.5,3,6.6,6.6
		C86.1,21.4,83.1,24.4,79.4,24.4z"/>
	<path class="st2" d="M10.3,24.5L10.3,24.5c0.7,0,3.6-2.9,3.8-4.1c0-0.1-0.1-0.1-0.1-0.2c-0.1-0.2-0.3-0.6-0.6-0.7
		c-0.1-0.1-0.3-0.1-0.6-0.1c-0.3,0-0.6,0.1-0.7,0.2c-1.1,0.9-2,1.9-2.9,2.9C9,22.8,9,23.5,9.2,23.8C9.3,24.1,9.9,24.4,10.3,24.5z"/>
	<path class="st2" d="M44.5,24.1c0.3,0.2,0.7,0.3,1.1,0.3c0.3,0,0.4-0.1,0.4-0.1c0.9-0.7,1.7-1.6,2.5-2.4l0.6-0.6
		c0.1-0.1,0.1-0.2,0.1-0.4c0-0.1,0.1-0.2,0.1-0.3c0-0.1-0.1-0.2-0.1-0.2c-0.2-0.3-0.3-0.6-0.5-0.7c-0.2-0.1-0.5-0.2-0.7-0.2
		c-0.2,0-0.4,0-0.4,0.1c-1.1,0.9-2.2,2-3.2,3.1c-0.2,0.2-0.3,0.5-0.2,0.8C44.1,23.7,44.3,23.9,44.5,24.1z"/>
	<path class="st2" d="M39.8,19.6c-0.2-0.1-0.4-0.1-0.6-0.1c-0.3,0-0.6,0.1-0.7,0.2c-1,0.9-2,1.8-2.9,2.9c-0.2,0.2-0.3,0.9-0.1,1.3
		c0.1,0.3,0.6,0.6,1,0.7l0,0c0.3,0,1.1-0.5,2.1-1.5c1-1,1.7-2.1,1.8-2.6c0,0-0.1-0.1-0.1-0.2C40.2,20,40,19.6,39.8,19.6z"/>
	<path class="st2" d="M45.5,14.4L45.5,14.4c1-0.9,2-1.9,2.9-2.9l0.8-0.8c0,0,0-0.1,0-0.1c0-0.1,0-0.2,0-0.3c0-0.1-0.1-0.1-0.1-0.2
		c-0.1-0.2-0.3-0.5-0.5-0.6c-0.2-0.1-0.4-0.1-0.7-0.1c-0.3,0-0.5,0.1-0.6,0.1c-1.1,1-2.1,2-3,3c-0.2,0.2-0.2,1,0,1.3
		C44.6,14.1,45.2,14.4,45.5,14.4z"/>
	<path class="st2" d="M36.7,14.4L36.7,14.4c0.3,0,1-0.5,1.9-1.4c1-1,1.8-2.2,1.9-2.7c0,0-0.1-0.1-0.1-0.2c-0.1-0.2-0.3-0.5-0.5-0.6
		c-0.2-0.1-0.4-0.1-0.6-0.1c-0.3,0-0.5,0.1-0.7,0.2c-1,0.8-2,1.8-2.9,2.9c-0.2,0.3-0.3,0.9-0.1,1.3C35.7,14,36.2,14.4,36.7,14.4z"/>
	<path class="st2" d="M9.8,14.4c0.1,0.1,0.2,0.1,0.2,0.2c0.1,0,0.2-0.1,0.3-0.1c0.2,0,0.3-0.1,0.4-0.1l0.6-0.6
		c0.9-0.8,1.8-1.7,2.5-2.6c0.2-0.2,0-1.1-0.3-1.5c-0.2-0.3-0.5-0.4-0.7-0.4c-0.3,0-0.6,0.1-0.8,0.3c-1,0.9-2,1.8-2.8,2.9
		c-0.2,0.3-0.3,0.9-0.1,1.3C9.2,14,9.5,14.2,9.8,14.4z"/>
	<path class="st2" d="M18.6,14.3c0.1,0.1,0.2,0.1,0.3,0.2c0.1,0,0.2,0,0.3-0.1c0.2,0,0.3-0.1,0.4-0.1l0.6-0.6
		c0.9-0.8,1.8-1.7,2.6-2.7c0.1-0.2,0-1.1-0.3-1.4c-0.1-0.1-0.5-0.2-0.8-0.2c-0.3,0-0.5,0.1-0.6,0.1C20,10.3,19,11.3,18,12.5
		c-0.2,0.2-0.2,0.9-0.1,1.3C18,14,18.3,14.2,18.6,14.3z"/>
	<path class="st2" d="M26.9,24.1c0.3,0.2,0.7,0.3,1.1,0.3c0.3,0,0.4-0.1,0.4-0.1c0.9-0.7,1.7-1.6,2.5-2.4l0.5-0.5
		c0.1-0.1,0.1-0.2,0.2-0.4c0-0.1,0.1-0.2,0.1-0.3c-0.1-0.1-0.1-0.2-0.2-0.3c-0.2-0.3-0.4-0.6-0.6-0.7c-0.1-0.1-0.3-0.1-0.5-0.1
		c-0.3,0-0.6,0.1-0.8,0.2c-0.9,0.7-1.8,1.7-2.9,2.9c-0.2,0.3-0.3,0.6-0.3,0.9C26.5,23.7,26.7,23.9,26.9,24.1z"/>
	<path class="st2" d="M27.4,14.4c0.1,0,0.2,0.1,0.2,0.1c0.1,0,0.2,0,0.3-0.1c0.1,0,0.3,0,0.3-0.1l0.6-0.6c0.9-0.9,1.8-1.8,2.6-2.8
		c0.1-0.2-0.1-1.1-0.4-1.4c-0.1-0.1-0.4-0.2-0.7-0.2c-0.3,0-0.5,0.1-0.6,0.1c-1,0.8-2,1.8-3,3c-0.2,0.2-0.2,0.9,0,1.3
		C26.9,14.1,27.2,14.2,27.4,14.4z"/>
	<path class="st2" d="M53.8,14.4c0.1,0.1,0.2,0.1,0.2,0.2c0.1,0,0.2,0,0.3-0.1c0.1,0,0.3,0,0.3-0.1l0.7-0.7c0.9-0.9,1.9-1.8,2.6-2.8
		c0.1-0.2-0.1-1.1-0.3-1.2c-0.2-0.1-0.5-0.2-0.8-0.2c-0.3,0-0.5,0.1-0.7,0.1c-1,0.7-1.9,1.7-2.9,2.9c-0.2,0.2-0.2,0.9-0.1,1.3
		C53.2,14,53.5,14.2,53.8,14.4z"/>
	<path class="st2" d="M54.1,24.5L54.1,24.5c0.3,0,1.3-0.6,2.4-1.8c1-1,1.5-1.9,1.5-2.2c0-0.7-0.7-1.3-1.2-1.3
		c-0.2,0-0.4,0.1-0.5,0.2c-1.2,0.9-2.2,2-3.2,3.2c-0.2,0.3-0.3,0.6-0.1,1C53.2,24.2,53.6,24.5,54.1,24.5z"/>
	<path class="st2" d="M19.1,24.5L19.1,24.5c0.8,0,3.7-2.9,3.8-4.1c0-0.1-0.1-0.1-0.1-0.2c-0.1-0.2-0.4-0.6-0.6-0.6
		c-0.1,0-0.3-0.1-0.5-0.1c-0.3,0-0.7,0.1-0.8,0.2c-1.1,0.9-2,1.8-2.8,2.8c-0.2,0.2-0.3,0.9-0.1,1.3C18.1,24.1,18.6,24.4,19.1,24.5z"
		/>
	<path class="st2" d="M79.5,47.6h-0.1c-4.9,0-9,4.1-9,9.1c0,2.4,0.9,4.7,2.7,6.5c1.7,1.7,3.9,2.7,6.1,2.7h0.2c5.1,0,9.2-4,9.2-9
		C88.6,51.8,84.5,47.7,79.5,47.6z M84.2,61.4c-1.3,1.3-3,2-4.7,2c-1.8,0-3.5-0.7-4.7-2c-1.3-1.3-1.9-2.9-1.9-4.7
		c0-3.6,3-6.5,6.6-6.5h0c3.6,0,6.5,2.9,6.5,6.6C86.1,59,85,60.5,84.2,61.4z"/>
	<path class="st2" d="M40.2,60.4c-1.1,1.2-2,2.1-3,2.9c-0.1,0.1-0.4,0.2-0.7,0.2c-0.2,0-0.3,0-0.4-0.1c-0.2-0.1-0.4-0.4-0.6-0.7
		c-0.1-0.1-0.1-0.2-0.2-0.3c0.1-0.1,0.1-0.2,0.2-0.3c0.1-0.3,0.2-0.5,0.4-0.7c0.9-0.9,1.8-1.9,2.7-2.7c0.2-0.2,0.5-0.3,0.8-0.3
		c0.3,0,0.6,0.2,0.9,0.5C40.6,59.3,40.6,59.9,40.2,60.4z"/>
	<path class="st2" d="M13.9,50.1c-0.9,1.1-2,2.2-3.2,3.2c0,0-0.1,0.1-0.3,0.1c-0.4,0-0.8-0.1-1-0.3c-0.3-0.3-0.4-1.1-0.3-1.3
		c0.8-1,1.7-1.9,2.6-2.7l0.6-0.6c0.1-0.1,0.2-0.1,0.3-0.1c0,0,0.1,0,0.2,0c0.6,0,1.1,0.4,1.2,0.8C14.1,49.3,14.2,49.7,13.9,50.1z"/>
	<path class="st2" d="M58,59.3C58,59.9,57.3,61,56.3,62c-1,1-1.8,1.5-2.1,1.5l0,0c-0.4-0.1-1-0.4-1.2-0.8c-0.1-0.2,0-0.8,0.2-1.1
		c0.9-1.1,1.8-2,2.8-2.8c0.2-0.1,0.5-0.2,0.9-0.2c0.2,0,0.3,0,0.4,0.1c0.2,0.1,0.5,0.4,0.6,0.6C58,59.2,58,59.2,58,59.3z"/>
	<path class="st2" d="M14,60c-0.9,1.1-1.9,2.2-3.3,3.3c0,0-0.1,0-0.3,0c-0.4,0-0.9-0.2-1-0.3c-0.3-0.3-0.4-1.1-0.2-1.3
		c0.7-0.9,1.6-1.8,2.5-2.6l0.7-0.6c0.1-0.1,0.2-0.1,0.3-0.1c0.1,0,0.1,0,0.2-0.1c0.6,0,1,0.4,1.2,0.8C14.1,59.3,14.2,59.7,14,60z"/>
	<path class="st2" d="M49.1,49.9c-0.8,1-1.7,1.9-2.6,2.7l-0.7,0.7c0,0-0.2,0.1-0.3,0.1c-0.1,0-0.2,0-0.3,0.1
		c-0.1-0.1-0.2-0.1-0.2-0.2c-0.2-0.2-0.5-0.3-0.6-0.5c-0.2-0.4-0.1-1.1,0.1-1.3c1-1.2,2-2.2,2.9-2.9c0.1-0.1,0.3-0.1,0.6-0.1
		c0.3,0,0.7,0.1,0.9,0.2C49,48.9,49.2,49.8,49.1,49.9z"/>
	<path class="st2" d="M49.4,59.5c-0.1,0.1-0.1,0.2-0.2,0.3c-0.1,0.2-0.2,0.5-0.3,0.6c-0.9,1-1.8,1.8-2.6,2.6
		c-0.3,0.3-0.6,0.4-0.9,0.4c-0.3,0-0.6-0.2-1-0.5c-0.3-0.3-0.7-0.9,0.1-1.6c0.2-0.2,0.4-0.4,0.6-0.7c0.7-0.7,1.3-1.4,2.1-2
		c0.2-0.1,0.5-0.2,0.9-0.2c0.2,0,0.4,0,0.5,0.1c0.2,0.1,0.4,0.4,0.6,0.7C49.3,59.3,49.3,59.4,49.4,59.5z"/>
	<path class="st2" d="M40.3,50.1c-0.8,1-1.7,1.9-2.6,2.8l-0.5,0.5c-0.1,0.1-0.2,0.1-0.3,0.1c-0.1,0-0.1,0-0.2,0
		c-0.5,0-1-0.3-1.2-0.8c-0.2-0.4-0.1-0.8,0.1-1.1c1-1.2,2-2.2,3.1-3c0.1-0.1,0.2-0.1,0.4-0.1c0.4,0,0.8,0.1,1,0.3
		C40.3,49,40.4,49.9,40.3,50.1z"/>
	<path class="st2" d="M22.7,60.1c-0.8,1-1.7,1.9-2.7,2.8l-0.5,0.5c0,0.1-0.2,0.1-0.4,0.1c-0.1,0-0.2,0-0.3,0.1
		c-0.1-0.1-0.2-0.1-0.2-0.2c-0.3-0.2-0.5-0.3-0.6-0.6c-0.2-0.4-0.1-1.1,0.1-1.3c1-1.2,2-2.2,2.9-2.9c0.1-0.1,0.3-0.1,0.6-0.1
		c0.4,0,0.7,0.1,0.8,0.2C22.7,59,22.8,59.9,22.7,60.1z"/>
	<path class="st2" d="M57.9,50c-0.8,1-1.8,1.9-2.7,2.8l-0.6,0.6c0,0-0.2,0.1-0.3,0.1c-0.1,0-0.2,0-0.3,0.1c-0.1-0.1-0.2-0.1-0.2-0.2
		c-0.3-0.1-0.6-0.3-0.7-0.5c-0.2-0.4-0.2-1.1,0-1.3c1-1.2,2-2.2,3-3c0.1-0.1,0.2-0.1,0.5-0.1c0.4,0,0.8,0.1,1,0.2
		C57.9,48.9,58,49.8,57.9,50z"/>
	<path class="st2" d="M22.9,49.3c-0.1,0.5-0.8,1.6-1.7,2.6c-1,1-1.8,1.5-2.1,1.5h0c-0.4-0.1-0.9-0.4-1-0.6c-0.2-0.4-0.1-1,0.1-1.3
		c0.8-1,1.8-2,2.9-2.9c0.1-0.1,0.4-0.2,0.7-0.2c0.2,0,0.4,0,0.6,0.1c0.2,0.1,0.4,0.4,0.5,0.6C22.8,49.2,22.8,49.3,22.9,49.3z"/>
	<path class="st2" d="M31.6,59.9c-0.8,1-1.8,1.9-2.8,2.9l-0.7,0.6c0,0-0.1,0-0.2,0.1c-0.1,0-0.2,0-0.3,0.1c-0.1-0.1-0.2-0.1-0.2-0.1
		c-0.2-0.2-0.6-0.3-0.7-0.5c-0.2-0.3-0.2-1,0-1.2c1.1-1.3,2.1-2.3,3.2-3.1c0,0,0.2-0.1,0.3-0.1c0.4,0,0.8,0.1,1,0.3
		C31.5,59,31.7,59.8,31.6,59.9z"/>
	<path class="st2" d="M31.7,49.5c0,0.3-0.5,1.1-1.5,2.2c-1.1,1.1-2,1.7-2.4,1.7h0c-0.5,0-0.9-0.3-1.1-0.8c-0.2-0.3-0.1-0.7,0.1-1
		c1-1.2,2-2.3,3.2-3.2c0.2-0.1,0.4-0.2,0.6-0.2C31,48.3,31.6,48.8,31.7,49.5z"/>
	<path class="st2" d="M58,88.3c-0.1,0.5-0.7,1.5-1.7,2.5c-1,1-1.9,1.6-2.2,1.6l0,0c-0.4-0.1-0.9-0.4-1-0.6c-0.2-0.4-0.1-1,0.1-1.3
		c0.8-1,1.8-2,2.9-2.9c0.1-0.1,0.4-0.2,0.7-0.2c0.2,0,0.4,0,0.6,0.1c0.2,0.1,0.4,0.4,0.5,0.6C58,88.2,58,88.2,58,88.3z"/>
	<path class="st2" d="M14,89c-0.9,1.1-2,2.2-3.3,3.3c0,0-0.1,0-0.2,0c-0.3,0-0.8-0.1-1-0.3C9.1,91.8,9,91,9.1,90.8
		c0.8-1,1.8-1.9,2.7-2.8l0.7-0.7c0,0,0.1,0,0.2,0c0,0,0.1,0,0.1,0c0.6,0,1,0.4,1.2,0.8C14.1,88.3,14.2,88.6,14,89z"/>
	<path class="st2" d="M22.9,98.6c0,0.8-3.1,3.9-3.9,3.9h0c-0.5,0-0.9-0.3-1.1-0.7c-0.2-0.4-0.1-0.8,0.1-1.1c0.9-1.1,1.9-2.2,3.1-3.2
		c0.2-0.1,0.4-0.2,0.6-0.2C22.2,97.3,22.9,97.8,22.9,98.6z"/>
	<path class="st2" d="M58.1,98.5c0,0.1-0.1,0.2-0.1,0.3c-0.1,0.2-0.1,0.3-0.2,0.4l-0.6,0.6c-0.8,0.9-1.7,1.8-2.6,2.5
		c0,0-0.1,0.1-0.4,0.1c-0.4,0-0.8-0.2-1-0.3c-0.3-0.3-0.4-1.2-0.2-1.4c0.8-1,1.8-2.1,3-3.1c0.1-0.1,0.3-0.1,0.6-0.1
		c0.2,0,0.5,0.1,0.7,0.1c0.2,0.1,0.4,0.4,0.5,0.7C58,98.3,58.1,98.4,58.1,98.5z"/>
	<path class="st2" d="M22.7,89c-0.7,0.9-1.6,1.8-2.5,2.6l-0.7,0.7c-0.1,0.1-0.2,0.1-0.4,0.1c-0.1,0-0.2,0-0.3,0.1
		c-0.1-0.1-0.1-0.1-0.2-0.1c-0.3-0.2-0.6-0.4-0.6-0.6c-0.2-0.4-0.1-1.1,0-1.3c1-1.2,2-2.2,3-3c0.1-0.1,0.3-0.1,0.6-0.1
		c0.4,0,0.7,0.1,0.8,0.2C22.7,87.9,22.8,88.8,22.7,89z"/>
	<path class="st2" d="M31.5,89.1c-0.7,0.9-1.6,1.8-2.5,2.6l-0.6,0.6c-0.1,0.1-0.2,0.1-0.4,0.1c-0.1,0-0.2,0.1-0.3,0.1
		c-0.1-0.1-0.2-0.1-0.2-0.2c-0.3-0.2-0.6-0.4-0.7-0.6c-0.2-0.4-0.1-1,0.1-1.3c0.9-1,1.9-2,2.8-2.9c0.2-0.2,0.5-0.3,0.8-0.3
		c0.3,0,0.5,0.1,0.7,0.4C31.5,88,31.6,88.9,31.5,89.1z"/>
	<path class="st2" d="M49,89.2c-1,1.2-1.9,2.1-2.9,2.9c-0.1,0.1-0.4,0.2-0.6,0.2c-0.3,0-0.6-0.1-0.7-0.2c-0.3-0.2-0.5-1.1-0.4-1.2
		c0.9-1,1.8-2,2.8-2.9l0.7-0.7c0,0,0.4-0.1,0.5-0.1c0.1,0.1,0.2,0.1,0.2,0.2c0.2,0.2,0.5,0.4,0.6,0.6C49.2,88.4,49.2,89,49,89.2z"/>
	<path class="st2" d="M40.2,99.3c-0.9,1.1-2,2.1-2.8,2.9c-0.2,0.2-0.5,0.3-0.8,0.3c-0.2,0-0.5-0.1-0.7-0.4c-0.3-0.4-0.4-1.3-0.3-1.5
		c0.8-1,1.7-1.8,2.6-2.7l0.6-0.5c0.1-0.1,0.2-0.1,0.4-0.1c0.1,0,0.2-0.1,0.3-0.1c0.1,0.1,0.2,0.1,0.2,0.2c0.3,0.2,0.6,0.4,0.7,0.6
		C40.4,98.4,40.4,99.1,40.2,99.3z"/>
	<path class="st2" d="M31.5,99c-0.8,1-1.7,1.9-2.6,2.8l-0.6,0.6c0,0-0.2,0.1-0.3,0.1c-0.1,0-0.2,0-0.3,0.1c-0.1-0.1-0.2-0.1-0.2-0.2
		c-0.3-0.2-0.6-0.4-0.7-0.6c-0.2-0.4-0.1-1,0.1-1.3c1-1.2,1.9-2.1,2.8-2.8c0.1-0.1,0.4-0.2,0.8-0.2c0.3,0,0.6,0.1,0.7,0.2
		C31.4,97.9,31.6,98.8,31.5,99z"/>
	<path class="st2" d="M40.2,89.2c-1,1.2-2,2.2-2.9,2.9c-0.1,0.1-0.3,0.1-0.6,0.1c-0.3,0-0.7-0.1-0.9-0.2c-0.2-0.2-0.4-1.1-0.3-1.3
		c0.8-1,1.8-2,2.7-2.9l0.6-0.6c0,0,0.2,0,0.3-0.1c0.1,0,0.2,0,0.3-0.1c0.1,0.1,0.2,0.1,0.2,0.2c0.2,0.2,0.5,0.3,0.6,0.5
		C40.4,88.3,40.4,89,40.2,89.2z"/>
	<path class="st2" d="M13.9,99.1c-0.8,0.9-1.7,1.8-2.6,2.7l-0.6,0.6c0,0-0.2,0.1-0.3,0.1c-0.1,0-0.2,0-0.3,0.1
		c-0.1-0.1-0.2-0.1-0.2-0.1c-0.3-0.2-0.6-0.4-0.6-0.6c-0.2-0.4-0.1-1.1,0.1-1.3c1-1.2,2-2.2,2.9-2.9c0.1-0.1,0.3-0.1,0.6-0.1
		c0.3,0,0.7,0.1,0.8,0.2C13.9,98,14,98.9,13.9,99.1z"/>
	<path class="st2" d="M49.1,98.9c-0.8,1-1.8,1.9-2.7,2.8l-0.7,0.7c0,0-0.4,0.1-0.5,0.1c-0.1,0-0.2-0.1-0.2-0.1
		c-0.3-0.1-0.5-0.3-0.6-0.5c-0.2-0.4-0.2-1.1,0-1.3c1-1.2,2-2.2,3-3c0.1-0.1,0.3-0.1,0.6-0.1c0.3,0,0.7,0.1,0.8,0.2
		C49,97.9,49.2,98.8,49.1,98.9z"/>
</g>
</svg>
