<?xml version="1.0" encoding="utf-8"?>
<!-- Generator: Adobe Illustrator 24.3.0, SVG Export Plug-In . SVG Version: 6.00 Build 0)  -->
<svg version="1.1" id="Layer_1" xmlns="http://www.w3.org/2000/svg" xmlns:xlink="http://www.w3.org/1999/xlink" x="0px" y="0px"
	 width="119.5px" height="119px" viewBox="0 0 119.5 119" style="enable-background:new 0 0 119.5 119;" xml:space="preserve">
<style type="text/css">
	.st0{fill:#185AE9;}
	.st1{fill:#00B0FB;}
	.st2{fill-rule:evenodd;clip-rule:evenodd;fill:#00B0FB;}
	.st3{fill:#00B0FB;fill-opacity:0.4;}
	.st4{fill:#FFFFFF;}
</style>
<g>
	<path class="st1" d="M118.4,90c0-5.6,0-11.2,0-16.7c0-4.5,0-9.1,0-13.6c0-4.6,0-9.2,0-13.8c0-5.5,0-11.1,0-16.8c0-2.7,0-5.5,0-8.2
		c-0.7,0.1-1.4,0.2-2.2,0.2c-0.8,0-1.5-0.1-2.3-0.2c-0.1,0.6-0.3,1.1-0.5,1.6h2.7c0.3,0,0.5,0.2,0.5,0.5v84c0,4.9-2.2,8.3-6.4,9.7
		c-0.9,0.3-1.9,0.4-2.9,0.4c-2.3,0-4.7,0-7,0v1.9c2,0,3.9,0,5.9,0h0c3.6,0,6.6-1.2,8.8-3.5c2.2-2.2,3.4-5.3,3.3-8.7
		C118.4,101.3,118.4,95.6,118.4,90z"/>
	<path class="st4" d="M119.4,73.2c0-4.5,0-9.1,0-13.6c0-4.6,0-9.2,0-13.8c0-5.5,0-11.1,0-16.8c0-5.6,0-11.3,0.1-16.9
		c0-3.4-1.2-6.5-3.4-8.8C114,1.2,110.9,0,107.4,0c-12.7,0-26.3,0.1-44,0.1c-7.6,0-51.4,0-51.4,0C4.6,0.1,0,4.7,0,12.1
		c0,31.5,0,63.1,0,94.6c0,7.5,4.6,12.2,12.1,12.2l51.8,0c14.4,0,28.9,0,43.3,0.1h0c3.6,0,6.6-1.2,8.8-3.5c2.2-2.2,3.4-5.3,3.3-8.7
		c-0.1-5.6-0.1-11.3-0.1-16.9C119.4,84.4,119.4,78.8,119.4,73.2z M1.9,9.9C2.2,5.5,6.2,1.8,11,1.8c1,0,2.1,0,3.1,0c1,0,2,0,3,0
		c1,0,2,0,3,0h87.4c4.7,0,8,2.1,9.6,6l0.1,0.1c0.2,0.4,0.4,0.9,0.4,1.4c0,2.7,0,5.4,0,8.1V20c0,0.3-0.2,0.5-0.5,0.5H2.3
		c-0.3,0-0.5-0.2-0.5-0.5c0-1.1,0-2.1,0-3.2C1.8,14.5,1.7,12.2,1.9,9.9z M117.7,107c0,4.9-2.2,8.3-6.4,9.7c-0.9,0.3-1.9,0.4-2.9,0.4
		c-18.6,0-37.2,0-55.8,0c-13.8,0-27.6,0-41.4,0c-5.3,0-9.4-4-9.4-9.4c0-22.4,0-44.9,0-67.3V24.2c0-0.2,0-0.5,0-0.8l0-0.4
		c0-0.3,0.2-0.5,0.5-0.5h114.8c0.3,0,0.5,0.2,0.5,0.5V107z"/>
	<path class="st1" d="M96,43.5l-16.6,0c-8.4,0-16.8,0-25.2,0c-0.9,0-1.7,0.1-2.4,0.2c-2.1,0.5-3.5,1.9-3.7,3.9
		C48,49.7,48,51.8,48,53.9c0,0.9,0,1.8,0,2.7c0,0.3,0.2,0.5,0.5,0.5H54c0.3,0,0.5-0.2,0.5-0.5c0-0.6,0-1.1,0-1.6c0-1.2,0-2.3,0-3.4
		c0-0.5,0.1-0.9,0.3-1.1C55,50.1,55.4,50,56,50c6.3,0,12.6,0,18.9,0c6.4,0,12.8,0,19.3,0c0.6,0,1,0.1,1.2,0.3
		c0.2,0.2,0.3,0.6,0.3,1.3c0,6.7,0,13.6,0,21c0,0.6-0.1,1-0.3,1.3c-0.2,0.2-0.6,0.3-1.2,0.3c-6.4,0-12.9,0-19.3,0
		c-6.3,0-12.6,0-18.8,0c-0.6,0-1-0.1-1.2-0.3c-0.2-0.2-0.3-0.6-0.3-1.1c0-1.1,0-2.2,0-3.4c0-0.5,0-1,0-1.5c0-0.3-0.2-0.5-0.5-0.5
		h-5.3c-0.2,0-0.4,0.1-0.5,0.3c0,0.1-0.1,0.1-0.1,0.1c-0.1,0.1-0.1,0.3-0.2,0.5l0,1c0,1.9,0,3.9,0,5.8c0,3.7,2.1,5.8,5.8,5.8
		c7.1,0,14.2,0,21.3,0s14.2,0,21.3,0c3.8,0,5.7-2,5.8-5.8c0-7.9,0-15.8,0-23.7l0-1.7C102.2,45.3,100.4,43.5,96,43.5z"/>
	<path class="st1" d="M119.4,29.1c0-5.6,0-11.3,0.1-16.9l0,0C119.4,17.8,119.4,23.5,119.4,29.1z"/>
	<path class="st3" d="M117.5,9.3c0-0.5-0.2-1-0.4-1.4l-0.1-0.1c-1.6-3.9-4.9-6-9.6-6H20.1c-1,0-2,0-3,0c-1,0-2,0-3,0
		c-1,0-2.1,0-3.1,0C6.2,1.8,2.2,5.5,1.9,9.9c-0.2,2.3-0.1,4.6-0.1,6.9c0,1.1,0,2.1,0,3.2c0,0.3,0.2,0.5,0.5,0.5H117
		c0.3,0,0.5-0.2,0.5-0.5v-2.6C117.5,14.7,117.5,12,117.5,9.3z M12.9,13.6L12.9,13.6c-1.3,0-2.4-1.1-2.4-2.4c0-0.6,0.2-1.2,0.7-1.7
		c0.5-0.5,1.1-0.7,1.7-0.7c1.3,0,2.4,1.1,2.4,2.4C15.2,12.5,14.2,13.6,12.9,13.6z M22.3,13.6L22.3,13.6c-1.3,0-2.4-1.1-2.4-2.4
		c0-0.6,0.2-1.2,0.7-1.7c0.4-0.5,1-0.7,1.7-0.7c1.3,0,2.4,1,2.4,2.4C24.6,12.5,23.6,13.6,22.3,13.6z M33.3,12.9
		c-0.5,0.5-1.1,0.7-1.7,0.7h0c-1.3,0-2.4-1.1-2.4-2.4c0-1.3,1.1-2.4,2.4-2.4c1.3,0,2.4,1.1,2.4,2.4C34.1,11.8,33.8,12.4,33.3,12.9z"
		/>
	<path class="st1" d="M71.4,83.1c0-0.3-0.2-0.5-0.5-0.5h-5.4c-0.3,0-0.5,0.2-0.5,0.5c0,0.5,0,1,0,1.5c0,1.1,0,2.2,0,3.3
		c0,0.6-0.1,1.1-0.3,1.3c-0.2,0.2-0.7,0.4-1.3,0.4c-6.4,0-12.8,0-19.2,0c-6.3,0-12.5,0-18.8,0c-0.6,0-1-0.1-1.3-0.3
		c-0.2-0.2-0.3-0.6-0.3-1.2c0-7,0-14.1,0-21c0-0.6,0.1-1,0.3-1.3c0.2-0.2,0.6-0.3,1.2-0.3c7.3,0,14.7,0,22,0c5.4,0,10.8,0,16.2,0
		c0.6,0,1,0.1,1.2,0.3C64.9,66,65,66.4,65,67c0,1.1,0,2.2,0,3.3c0,0.5,0,1,0,1.5c0,0.3,0.2,0.5,0.5,0.5h5.5c0.3,0,0.5-0.2,0.5-0.5
		l0-2.3c0-1.7,0-3.3,0-5c0-3.7-1.9-5.6-5.5-5.6c-7.1,0-14.2,0-21.3,0c-7.2,0-14.5,0-21.7,0c-3.6,0-5.6,2-5.6,5.7
		c0,8.6,0,17.1,0,25.7c0,3.8,2,5.8,5.9,5.8l24.5,0l10.5,0c2.6,0,5.2,0,7.9,0c2.9,0,5.2-1.7,5.3-4.1c0.1-2.1,0.1-4.2,0.1-6.3
		C71.4,84.9,71.4,84,71.4,83.1z"/>
	<path class="st1" d="M119.4,90c0-5.6,0-11.2,0-16.7c0-4.5,0-9.1,0-13.6l0,0c0,4.5,0,9.1,0,13.6C119.4,78.8,119.4,84.4,119.4,90z"/>
	<path class="st4" d="M119.4,45.9c0,4.6,0,9.2,0,13.8l0,0C119.5,55,119.4,50.5,119.4,45.9c0-5.5,0-11.1,0-16.7
		C119.4,34.7,119.4,40.3,119.4,45.9z"/>
	<path class="st4" d="M119.5,106.9L119.5,106.9c-0.1-5.6-0.1-11.3-0.1-16.9C119.4,95.6,119.4,101.3,119.5,106.9z"/>
	<path class="st4" d="M96.4,41.7c-7,0-14,0-21,0c-7.2,0-14.3,0-21.5,0c-5,0-7.7,2.8-7.7,7.8c0,1.6,0,3.2,0,4.8v2.3
		c0,0.3-0.2,0.5-0.5,0.5l-14.4,0c-2.8,0-5.7,0-8.5,0c-4.5,0-7.4,2.9-7.4,7.4c0,8.2,0,16.6,0,25.9c0,4.7,2.8,7.4,7.5,7.4
		c7.1,0,14.3,0,21.4,0s14.3,0,21.4,0c4.7,0,7.4-2.7,7.4-7.4v-7.5c0-0.3,0.2-0.5,0.5-0.5l14.6,0c2.7,0,5.4,0,8.1,0
		c4.8,0,7.5-2.7,7.5-7.5c0-8.5,0-17,0-25.5C104,44.5,101.3,41.7,96.4,41.7z M71.3,92c-0.2,2.4-2.4,4.1-5.3,4.1c-2.6,0-5.2,0-7.9,0
		H47.6l-24.5,0c-3.8,0-5.9-2-5.9-5.8c0-8.6,0-17.1,0-25.7c0-3.7,2-5.7,5.7-5.7c7.2,0,14.5,0,21.7,0c7.1,0,14.2,0,21.3,0
		c3.6,0,5.5,1.9,5.5,5.6c0,1.6,0,3.3,0,5v2.3c0,0.3-0.2,0.5-0.5,0.5h-5.5c-0.3,0-0.5-0.2-0.5-0.5c0-0.5,0-1,0-1.5c0-1.1,0-2.2,0-3.3
		c0-0.6-0.1-1-0.3-1.3c-0.2-0.2-0.6-0.3-1.2-0.3c-5.4,0-10.8,0-16.2,0c-7.3,0-14.7,0-22,0c-0.6,0-1,0.1-1.2,0.3
		c-0.2,0.2-0.3,0.6-0.3,1.3c0,6.9,0,14,0,21c0,0.6,0.1,1,0.3,1.2c0.2,0.2,0.6,0.3,1.3,0.3c6.3,0,12.6,0,18.8,0c6.4,0,12.8,0,19.2,0
		c0.7,0,1.1-0.1,1.3-0.4c0.2-0.2,0.3-0.7,0.3-1.3c0-1.1,0-2.2,0-3.3c0-0.5,0-1,0-1.5c0-0.3,0.2-0.5,0.5-0.5h5.4
		c0.3,0,0.5,0.2,0.5,0.5c0,0.9,0,1.8,0,2.7C71.4,87.8,71.5,90,71.3,92z M65.5,57.1c-1.1,0-2.1,0-3.2,0l-5.3,0
		c-0.3,0-0.5-0.2-0.5-0.5v-4.3c0-0.3,0.2-0.5,0.5-0.5h36.5c0.3,0,0.5,0.2,0.5,0.5v19.5c0,0.3-0.2,0.5-0.5,0.5H73.7
		c-0.3,0-0.5-0.2-0.5-0.5v-7C73.2,59.8,70.5,57.2,65.5,57.1z M63.1,67.8v4.1c0,0.3-0.2,0.5-0.5,0.5H57c-0.3,0-0.5-0.2-0.5-0.5v-4.1
		c0-0.3,0.2-0.5,0.5-0.5h5.7C62.9,67.3,63.1,67.5,63.1,67.8z M53.8,82.4h8.8c0.3,0,0.5,0.2,0.5,0.5v4.2c0,0.3-0.2,0.5-0.5,0.5H26.2
		c-0.3,0-0.5-0.2-0.5-0.5V67.8c0-0.3,0.2-0.5,0.5-0.5h19.5c0.3,0,0.5,0.2,0.5,0.5v2.2c0,1.6,0,3.2,0,4.8
		C46.2,79.7,48.9,82.4,53.8,82.4z M102.2,51.3c0,7.9,0,15.8,0,23.7c0,3.8-2,5.8-5.8,5.8H53.8c-3.7,0-5.8-2.1-5.8-5.8
		c0-1.9,0-3.9,0-5.8l0-1c0-0.2,0.1-0.3,0.2-0.5c0,0,0-0.1,0.1-0.2c0.1-0.2,0.3-0.3,0.4-0.3H54c0.3,0,0.5,0.2,0.5,0.5
		c0,0.5,0,1,0,1.5c0,1.2,0,2.3,0,3.4c0,0.6,0.1,0.9,0.3,1.1c0.2,0.2,0.6,0.3,1.2,0.3c6.3,0,12.6,0,18.8,0c6.4,0,12.9,0,19.3,0
		c0.6,0,1-0.1,1.2-0.3c0.2-0.2,0.3-0.6,0.3-1.2c0-7.4,0-14.3,0-21c0-0.6-0.1-1-0.3-1.2c-0.2-0.2-0.6-0.3-1.2-0.3
		c-6.4,0-12.8,0-19.2,0c-6.3,0-12.6,0-18.9,0c-0.6,0-1,0.1-1.2,0.3c-0.2,0.2-0.3,0.6-0.3,1.1c0,1.1,0,2.2,0,3.4c0,0.5,0,1.1,0,1.6
		c0,0.3-0.2,0.5-0.5,0.5h-5.5c-0.3,0-0.5-0.2-0.5-0.5c0-0.9,0-1.8,0-2.7c0-2.1-0.1-4.2,0.1-6.3c0.2-1.9,1.6-3.4,3.7-3.9
		c0.7-0.2,1.5-0.2,2.4-0.2c8.4,0,16.8,0,25.2,0l16.6,0c4.4,0,6.2,1.8,6.2,6.1V51.3z"/>
	<path class="st4" d="M22.2,8.8c-0.6,0-1.2,0.3-1.7,0.7c-0.4,0.5-0.7,1.1-0.7,1.7c0,1.3,1.1,2.4,2.4,2.4h0c1.3,0,2.4-1.1,2.4-2.4
		C24.6,9.9,23.6,8.8,22.2,8.8z"/>
	<path class="st4" d="M12.8,8.8c-0.6,0-1.2,0.3-1.7,0.7c-0.5,0.5-0.7,1.1-0.7,1.7c0,1.3,1.1,2.4,2.4,2.4h0c1.3,0,2.4-1.1,2.4-2.4
		C15.2,9.9,14.1,8.8,12.8,8.8z"/>
	<path class="st4" d="M31.6,8.8c-1.3,0-2.4,1.1-2.4,2.4c0,1.3,1.1,2.4,2.4,2.4h0c0.6,0,1.2-0.3,1.7-0.7c0.5-0.5,0.7-1.1,0.7-1.7
		C34.1,9.9,32.9,8.8,31.6,8.8z"/>
</g>
</svg>
