<?xml version="1.0" encoding="utf-8"?>
<!-- Generator: Adobe Illustrator 24.3.0, SVG Export Plug-In . SVG Version: 6.00 Build 0)  -->
<svg version="1.1" id="Layer_1" xmlns="http://www.w3.org/2000/svg" xmlns:xlink="http://www.w3.org/1999/xlink" x="0px" y="0px"
	 width="564.3px" height="478px" viewBox="0 0 564.3 478" style="enable-background:new 0 0 564.3 478;" xml:space="preserve">
<style type="text/css">
	.st0{fill:#00B0FB;}
	.st1{fill:#00B0FB;fill-opacity:0.4;}
	.st2{fill:#FFFFFF;}
	.st3{fill:none;}
	.st4{fill:#3C7CFF;}
	.st5{fill:#001135;}
	.st6{fill:#185AE9;}
	.st7{fill:#DBDBDB;}
	.st8{fill:#FDFDFD;}
	.st9{fill:#0A0A0A;}
	.st10{fill:#010101;}
	.st11{fill:#FEFEFE;}
	.st12{fill:#020202;}
	.st13{fill:#E8E8E8;}
	.st14{fill:#575757;}
	.st15{fill:#F9F9F9;}
	.st16{fill:#E2E2E2;}
	.st17{fill:#030302;}
	.st18{fill:#FCFCFC;}
	.st19{fill:#D2D3D3;}
	.st20{fill:#1F1F1F;}
	.st21{fill:#F6F6F6;}
	.st22{fill:#0E0D0E;}
	.st23{fill:#BABBBB;}
	.st24{fill:#8A8A8A;}
	.st25{fill:#8E8F8F;}
	.st26{fill:#464746;}
	.st27{fill:#5F5E5E;}
	.st28{fill:#0B0B0B;}
	.st29{fill:#090909;}
	.st30{fill:#151414;}
	.st31{fill:#101010;}
	.st32{fill:#282828;}
	.st33{fill:#FAFAFA;}
	.st34{fill:#F2F2F2;}
</style>
<g>
	<path d="M250.5,478c14.8-0.6,28.4-5.3,41.8-10.6c22.9-9.1,44.5-20.8,65.5-33.6c46.1-28.1,88.8-60.5,128.5-97
		c19.2-17.6,37.3-36.2,53.3-56.8c8.1-10.4,15.6-21.2,20.9-33.4c2-4.6,3.6-9.3,3.7-14.4c0.3-9.3-4.5-14.9-13.8-16.1
		c-8.7-1.1-17,0.5-25.3,2.7c-17.5,4.6-33.8,11.9-49.9,20c-28.6,14.4-55.6,31.4-81.7,49.8c-30.2,21.3-59,44.4-86.1,69.6
		c-20.1,18.7-39.2,38.3-55.6,60.4c-7.1,9.5-13.6,19.4-18,30.5c-1.7,4.2-2.9,8.5-3,13.1c-0.1,8.5,4.5,13.8,12.9,15.2
		C246.1,477.8,248.3,477.8,250.5,478z"/>
	<g>
		<path d="M237.3,87.6c-1.8,0-3.6-0.2-5.4,0.1c-2.9,0.4-3.7-0.7-3.6-3.6c0.1-16,0.1-32,0.1-48c0-3.6-0.5-4.2-3.8-4.2
			c-2.9,0-5.8,0-8.7,0.1c-4.5,0-4.6,0.1-4.6,4.5c0,15.1,0,30.2,0,45.3c0,5.9,0,5.7-5.8,5.9c-3,0.1-3.7-1-3.6-3.8
			c0.2-8.8,0.1-17.6,0.2-26.4c0-2.5-0.8-3.7-3.5-3.5c-3.2,0.2-6.4,0-9.6,0c-3.8,0-3.9,0.1-3.9,3.8c0,7.9,0,15.8,0,23.7
			c0,6.2,0,6.1-6.2,6.1c-2.2,0-2.9-0.6-2.9-2.9c0.1-7,0-14,0.1-21c0-2.5-0.9-3.7-3.5-3.6c-3.4,0.1-6.8,0.1-10.2,0
			c-2.3-0.1-3.2,1-3.1,3.3c0.1,5.8,0,11.6,0,17.4c0,7.4,0,7.3-7.3,6.8c-1.6-0.1-2.1-0.7-2.1-2.2c0-2.4,0-4.8,0-7.2
			c0-1.7-0.8-2.6-2.6-2.6c-3.9,0-7.8,0.1-11.7,0.1c-2.1,0-2.8,1-2.7,3c0.1,2.1-0.1,4.2,0,6.3c0.1,2-0.7,2.6-2.6,2.5
			c-2.2-0.1-4.4,0-6.6,0c-1,0-1.8,0.4-2,1.5c-0.2,1-0.2,2.1,0.8,2.7c1,0.7,2.1,0.4,3.2,0.4c14.6,0,29.2,0,43.8,0.1
			c1.6,0,3.3,0,5.6,0c-3.6,5.6-6.7,10.5-9.9,15.4c-0.6,0.9-1.5,0.9-2.4,1c-1.2,0.1-2.3,0.4-2.2,1.9c0.1,1.4,1.3,1.6,2.5,1.6
			c12.6,0,25.2-0.1,37.8-0.1c1.1,0,2.1-0.2,2.2-1.5c0.1-1.4-1-1.8-2.2-1.9c-1.1,0-2.1-0.1-2.8-1.2c-3.1-4.9-6.2-9.7-9.5-15
			c0.9-0.1,1.3-0.1,1.7-0.1c14.5,0,29-0.1,43.5-0.1c1.3,0,2.6,0,3.9-0.1c1.5-0.1,2-1.1,1.9-2.5C239.4,88.3,238.7,87.6,237.3,87.6z"
			/>
		<path d="M167.5,43.5c1.6-1.7,2.6-1.8,4.3-0.2c2.4,2.3,5.2,4.4,7.6,6.7c1.4,1.3,2.5,1.5,4.1,0.1c10.3-9.3,21.2-18,30.8-28
			c1.6-1.7,3-4.2,4.9-4.6c2.2-0.5,3.8,2.4,5.7,3.8c0.7,0.5,1.4,1.3,2.4,0.9c1-0.4,0.9-1.4,0.9-2.3c0-5.5-0.1-11,0.1-16.5
			c0.1-2.7-1.2-3.5-3.7-3.2c-4.6,0.6-9.3,1-14,1.6c-1.7,0.2-4.2-0.5-4.9,1.4c-0.7,2,2,2.6,3.1,3.9c1,1.3,2.1,2.1,0.6,3.9
			c-7.9,10.3-17.1,19.5-26.8,28.2c-1.3,1.1-2,0.8-3-0.1c-2.7-2.4-5.6-4.6-8.1-7.1c-2-2.1-3.1-1.6-4.8,0.4
			c-8.3,9.8-16.5,19.8-25.6,28.9c-3.7,3.7-7.8,6.9-11.6,10.5c5.6-1.5,10.3-4.6,15-7.8C153.1,58.2,160.5,51.1,167.5,43.5z"/>
	</g>
	<g>
		<path class="st7" d="M82.3,54.1c0.4,0.7,0.8,1.4,1.3,2c0.5,0.6,1.1,1,1.9,0.6c0.8-0.4,0.8-1.1,0.5-1.9c-0.2-0.4-0.3-0.8-0.5-1.2
			c-2.7-4.6-6-8.9-10.1-12.3c-15.7-12.8-38.6-10.6-51.7,4.9c-0.7,0.8-1.4,1.6-2.2,2.6c-0.3-0.6-0.5-1.1-0.8-1.5
			c-0.5-1-1.1-2-2.5-1.6C16.8,46,17,47.2,17,48.2c0,3.4,0,6.7,0.1,10.1c0.1,2.1,0.8,2.6,2.6,1.5C23.1,58,26.4,56,29.8,54
			c0.9-0.5,1.8-1.2,1.2-2.4c-0.6-1.2-1.6-1.2-2.8-1c-1.3,0.3-2.5,1.1-4.3,1.1c0.5-0.8,0.8-1.4,1.2-2C32.6,38.4,48,33.1,61.9,37
			C71.2,39.7,77.4,46.1,82.3,54.1z"/>
		<path class="st7" d="M96.3,66.5c-2.6-2.3-5.1-4.6-7.7-6.9c-0.9-0.8-1.7-0.8-2.5,0.1c-2.6,3.1-5.1,6.2-7.7,9.4
			c-0.6,0.8-0.6,1.7,0.1,2.4c0.8,0.7,1.6,0.5,2.4-0.1c0.5-0.4,1-0.9,1.5-1.3c1.4-1.1,2.5-2.5,4.3-3.3c0.2,0.4,0.3,0.6,0.3,0.8
			c0.1,0.5,0.1,1,0.1,1.5C87.2,80,83,88.9,74.5,95.7c-5.1,4.1-10.9,6.9-17.5,7.7c-1.1,0.1-2.5,0.3-2.4,1.7c0,1.4,1.3,1.1,2.2,1.1
			c17.4-1.4,31.9-16.2,33-33.7c0.1-1.9,0.2-3.8,0.4-5.8c1.6,0.6,2.7,1.7,4.1,2.4c0.8,0.5,1.8,0.6,2.4-0.2
			C97.2,68.1,97,67.2,96.3,66.5z"/>
		<path class="st7" d="M49.4,102.9c-5-3-9.5-6.6-12.6-11.7c-0.2-0.4-0.4-1-1.2-1c-0.4,2-0.1,3.9,1,5.7c1,1.7,2.1,3.4,3.2,5.2
			c-1.3,0.1-2.2-0.5-3.2-0.9c-13-5.9-20.9-20.6-18.6-34.7c0.2-1.1,0.8-2.6-0.9-2.9c-1.7-0.3-1.7,1.2-1.8,2.4
			c-2.3,15.1,6,30.8,19.8,37.5c1.8,0.9,3.7,1.8,5.9,2.8c-1.2,0.8-2.1,1.4-3,2c-1,0.7-2.3,1.5-1.3,3c0.8,1.3,2.1,0.8,3.1,0.2
			c3.2-1.6,6.4-3.2,9.6-4.8c0.6-0.3,1.6-0.5,1.6-1.4C50.9,103.4,50,103.2,49.4,102.9z"/>
	</g>
	<g>
		<path class="st2" d="M272,76.1c0.3,8.3,2.2,16.1,7,23.1c6.2,9,15.4,13.8,25.1,18c0.8,0.3,1.5,0.1,2.2-0.2
			c3.9-1.8,7.9-3.5,11.6-5.7c8.4-5.1,14.6-11.9,17.7-21.4c2.4-7.6,2.6-15.3,2.5-23.1c0-3.5,0-7,0-10.5c0-3.3-0.2-3.6-3.5-4.2
			c-9.9-1.7-19.6-4.4-28.2-9.7c-0.9-0.5-1.6-0.6-2.5-0.1c-9,5.5-18.9,8.3-29.3,9.9c-1.8,0.3-2.7,1.2-2.7,3.1
			C272,62.2,271.8,69.2,272,76.1z M276.3,58.3c0-1.4,0.6-1.8,1.8-2c8.6-1.4,16.9-3.9,24.7-7.9c1.4-0.7,2.6-0.7,4.1,0
			c7.8,3.9,16.1,6.5,24.8,7.9c1.4,0.2,2,0.7,2,2.3c-0.1,3.1,0,6.1,0,9.2c-0.1,6.3-0.3,12.7-1.9,18.8c-2,7.3-6,13.3-12,17.8
			c-4.1,3.1-8.6,5.6-13.5,7.5c-0.7,0.3-1.3,0.5-2,0.2c-7.6-3.1-14.6-6.9-19.9-13.3c-4.4-5.3-6.5-11.6-7.3-18.4
			C276.1,73.1,276.4,65.7,276.3,58.3z"/>
		<path class="st7" d="M298.4,107.9c8.3,4.1,5,4.1,13.3,0c8-4,14.5-9.6,17.7-18.3c2.7-7.4,3.2-15.1,3.2-22.8c0-2.4-0.1-4.9,0-7.3
			c0.1-1.3-0.4-1.8-1.7-2c-8.6-1.6-16.9-4.1-24.7-8.2c-1-0.5-1.7-0.3-2.5,0.1c-7.7,3.8-15.7,6.7-24.3,8c-1.2,0.2-1.6,0.7-1.6,1.9
			c0.2,5.9-0.1,11.8,0.3,17.7C279.1,91.3,285.7,101.6,298.4,107.9z M288.5,80.1c2-2.4,3.4-2.9,5-1.5c2.1,1.6,4.1,3.4,6,5.2
			c1.1,1,1.8,1,2.9-0.1c5-5.4,10.2-10.7,15.2-16c1-1,2.1-1.9,3.5-1.1c1.5,0.9,3.1,1.9,3.4,3.6c0,1.3-0.5,2-1.2,2.7
			c-6.5,6.7-12.9,13.5-19.4,20.2c-1.6,1.6-3.2,1.8-5,0.4c-3.5-3-7-6.1-10.5-9.2C287.3,82.9,287.3,81.5,288.5,80.1z"/>
		<path d="M278.8,103.2c6.5,8,15.3,12.6,24.5,16.5c1.3,0.6,2.7,0.3,4.1-0.3c3.7-1.5,7.3-3.2,10.7-5.1c10.7-6,18.1-14.7,21-26.8
			c1.8-7.4,2-15,1.9-21.6c0-4,0-7,0-10c0-4.2-1.2-5.5-5.3-6.3c-10-1.9-19.7-4.4-28.4-10c-1.3-0.8-2.7-0.8-4-0.1
			c-1.4,0.7-2.7,1.5-4,2.2c-7.7,4.3-16.1,6.4-24.7,7.9c-3.9,0.7-5.1,2-5.1,6c0,6.9-0.1,13.8,0.1,20.7
			C269.8,86.2,272.4,95.4,278.8,103.2z M272,55.2c0-1.9,0.9-2.8,2.7-3.1c10.3-1.6,20.3-4.4,29.3-9.9c0.9-0.5,1.6-0.5,2.5,0.1
			c8.7,5.3,18.3,8,28.2,9.7c3.3,0.6,3.5,0.9,3.5,4.2c0,3.5,0,7,0,10.5c0.1,7.8,0,15.6-2.5,23.1c-3.1,9.5-9.3,16.3-17.7,21.4
			c-3.7,2.2-7.7,3.9-11.6,5.7c-0.7,0.3-1.4,0.6-2.2,0.2c-9.7-4.1-18.9-8.9-25.1-18c-4.8-7-6.7-14.8-7-23.1
			C271.8,69.2,272,62.2,272,55.2z"/>
		<path d="M277,80.4c0.8,6.7,3,13,7.3,18.4c5.3,6.4,12.3,10.3,19.9,13.3c0.7,0.3,1.3,0,2-0.2c4.8-1.9,9.3-4.3,13.5-7.5
			c6.1-4.6,10-10.5,12-17.8c1.7-6.2,1.9-12.5,1.9-18.8c0-3.1-0.1-6.1,0-9.2c0.1-1.6-0.6-2-2-2.3c-8.6-1.4-16.9-4-24.8-7.9
			c-1.5-0.7-2.7-0.7-4.1,0c-7.8,4-16.1,6.5-24.7,7.9c-1.2,0.2-1.8,0.6-1.8,2C276.4,65.7,276.1,73.1,277,80.4z M279.4,57.4
			c8.5-1.3,16.6-4.2,24.3-8c0.9-0.4,1.6-0.6,2.5-0.1c7.8,4.1,16.1,6.6,24.7,8.2c1.3,0.2,1.8,0.7,1.7,2c-0.1,2.4,0,4.9,0,7.3
			c0.1,7.8-0.4,15.4-3.2,22.8c-3.2,8.7-9.7,14.3-17.7,18.3c-8.2,4.1-5,4-13.3,0c-12.7-6.2-19.4-16.6-20.3-30.8
			c-0.4-5.9-0.1-11.8-0.3-17.7C277.8,58.1,278.2,57.6,279.4,57.4z"/>
		<path d="M288.7,84.2c3.5,3.1,7,6.2,10.5,9.2c1.7,1.5,3.4,1.3,5-0.4c6.4-6.7,12.9-13.5,19.4-20.2c0.6-0.7,1.2-1.4,1.2-2.7
			c-0.3-1.7-1.9-2.7-3.4-3.6c-1.3-0.8-2.5,0-3.5,1.1c-5.1,5.3-10.2,10.6-15.2,16c-1.1,1.1-1.8,1.1-2.9,0.1c-1.9-1.8-4-3.5-6-5.2
			c-1.7-1.3-3-0.9-5,1.5C287.3,81.5,287.3,82.9,288.7,84.2z"/>
	</g>
	<g>
		<path class="st7" d="M96.4,173.6c-4.1,0-7.6,2.9-8.4,6.8c-0.1,0.6-0.2,1.1-0.2,1.7c0,0.6,0.1,1.2,0.2,1.7c0.8,4,4.3,6.9,8.4,6.9
			c4.1,0,7.6-2.9,8.4-6.8c0.1-0.6,0.2-1.1,0.2-1.7c0-0.6-0.1-1.2-0.2-1.7C104,176.5,100.4,173.6,96.4,173.6z"/>
		<path class="st7" d="M147.1,216.4c-3.7,0-7,2.4-8.1,5.9c-0.1,0.3-0.2,0.6-0.2,0.9c-0.1,0.6-0.2,1.1-0.2,1.7c0,0.6,0.1,1.2,0.2,1.7
			c0.1,0.3,0.1,0.6,0.3,0.9c1.1,3.5,4.4,5.9,8.1,5.9c4.1,0,7.6-2.9,8.4-6.8c0.1-0.6,0.2-1.1,0.2-1.7c0-0.6-0.1-1.2-0.2-1.7
			C154.7,219.3,151.1,216.4,147.1,216.4z"/>
		<path class="st7" d="M169.5,259.2c-4.1,0-7.6,2.9-8.4,6.8c-0.1,0.6-0.2,1.1-0.2,1.7c0,0.6,0.1,1.2,0.2,1.7c0.8,4,4.3,6.9,8.4,6.9
			c4.1,0,7.6-2.9,8.4-6.8c0.1-0.6,0.2-1.1,0.2-1.7c0-0.6-0.1-1.2-0.2-1.7C177.1,262.1,173.5,259.2,169.5,259.2z"/>
		<path class="st2" d="M221.6,152.1c0-7.9-0.3-8.2-8.4-8.2c-29.6,0-59.3,0-88.9,0l-10.9,0l-10.8,0c-29.6,0-59.3,0-88.9,0
			c-8.1,0-8.4,0.2-8.4,8.2l0,3.9c0,20.8-0.1,42.4-0.1,63.6c0,23.7,0.1,49.2,0.1,80.3c0,5.1,0.9,6.1,6.2,6.2l0.3,0
			c3.3,0.1,6.8,0.2,10.2,0.2c21.3,0.1,42.7,0.1,64,0.2l27.4,0.1l27.4-0.1c21.3,0,42.7-0.1,64-0.2c3.4,0,6.8-0.1,10.2-0.2l0.3,0
			c5.2-0.1,6.1-1.1,6.2-6.2c0.1-31.2,0.1-56.7,0.1-80.3c0-21.2,0-42.7-0.1-63.5L221.6,152.1z M195.7,269.7c-0.5,0.5-1.2,0.8-1.9,0.8
			h-10.1c-1.3,6.8-7.3,11.9-14.3,11.9c-6.9,0-13-5.1-14.3-11.9H33.1c-1.5,0-2.6-1.2-2.6-2.6c0-0.7,0.3-1.4,0.8-1.9
			c0.5-0.5,1.2-0.8,1.9-0.8h122.1c1.3-6.8,7.3-11.9,14.3-11.9c6.9,0,13,5.1,14.3,11.9h10.1c1.5,0,2.6,1.2,2.6,2.6
			C196.5,268.5,196.2,269.2,195.7,269.7z M195.7,226.9c-0.5,0.5-1.2,0.8-1.9,0.8h-32.5c-1.3,6.8-7.3,11.9-14.3,11.9
			c-6.9,0-13-5.1-14.3-11.9H33.1c-1.5,0-2.6-1.2-2.6-2.6c0-0.7,0.3-1.4,0.8-1.9c0.5-0.5,1.2-0.8,1.9-0.8h99.7
			c1.3-6.8,7.3-11.9,14.3-11.9c6.9,0,13,5.1,14.3,11.9h32.5c1.5,0,2.6,1.2,2.6,2.6C196.5,225.7,196.2,226.4,195.7,226.9z
			 M195.7,184.1c-0.5,0.5-1.2,0.8-1.9,0.8h-83.2c-1.3,6.8-7.3,11.9-14.3,11.9c-6.9,0-13-5.1-14.3-11.9h-49c-1.5,0-2.6-1.2-2.6-2.6
			c0-0.7,0.3-1.4,0.8-1.9c0.5-0.5,1.2-0.8,1.9-0.8h49c1.3-6.8,7.3-11.9,14.3-11.9c6.9,0,13,5.1,14.3,11.9h83.2
			c1.5,0,2.6,1.2,2.6,2.6C196.5,182.9,196.2,183.6,195.7,184.1z"/>
		<path d="M215.3,138.8c-13.9,0-27.8,0-41.7,0l-49.5,0c-0.1,0-0.2,0-0.3,0l-10.3,0l-10.3,0c-0.1,0-0.2,0-0.3,0l-49.5,0
			c-13.9,0-27.8,0-41.7,0c-8.9,0-11.7,2.7-11.7,11.6c0,31.2,0,62.9,0,93.6l0,26.2c0,10,0,20.2,0.1,30.4c0,7.6,3.1,10.7,10.6,10.7
			c11.9,0,23.8,0,35.7,0c21.6,0,43.1,0,64.7,0h4.7c21.6,0,43.1,0,64.7,0c11.9,0,23.8,0,35.7,0c7.5,0,10.6-3.1,10.6-10.7
			c0-9.9,0-20,0.1-29.8l0-28.9c0-30.5,0-60.9,0-91.4C227,141.5,224.2,138.8,215.3,138.8z M221.6,300c0,5.1-0.9,6.1-6.2,6.2l-0.3,0
			c-3.3,0.1-6.8,0.2-10.2,0.2c-21.3,0.1-42.7,0.1-64,0.2l-27.4,0.1l-27.4-0.1c-21.3,0-42.7-0.1-64-0.2c-3.4,0-6.8-0.1-10.2-0.2
			l-0.3,0c-5.2-0.1-6.1-1.1-6.2-6.2c-0.1-31.2-0.1-56.7-0.1-80.3c0-21.2,0-42.7,0.1-63.6l0-3.9c0-7.9,0.3-8.2,8.4-8.2
			c29.6,0,59.3,0,88.9,0l10.8,0l10.9,0c29.6,0,59.3,0,88.9,0c8.1,0,8.4,0.2,8.4,8.2l0,3.9c0,20.8,0.1,42.4,0.1,63.5
			C221.7,243.3,221.6,268.8,221.6,300z"/>
		<path d="M193.8,179.6h-83.2c-1.3-6.8-7.3-11.9-14.3-11.9c-6.9,0-13,5.1-14.3,11.9h-49c-0.7,0-1.4,0.3-1.9,0.8
			c-0.5,0.5-0.8,1.2-0.8,1.9c0,1.5,1.2,2.6,2.6,2.6h49c1.3,6.8,7.3,11.9,14.3,11.9c6.9,0,13-5.1,14.3-11.9h83.2
			c0.7,0,1.4-0.3,1.9-0.8c0.5-0.5,0.8-1.2,0.8-1.9C196.5,180.7,195.3,179.6,193.8,179.6z M104.8,183.9c-0.8,4-4.3,6.8-8.4,6.8
			c-4.1,0-7.6-2.9-8.4-6.9c-0.1-0.5-0.2-1.1-0.2-1.7c0-0.6,0.1-1.2,0.2-1.7c0.8-4,4.3-6.8,8.4-6.8c4.1,0,7.6,2.9,8.4,6.9
			c0.1,0.5,0.2,1.1,0.2,1.7C104.9,182.8,104.9,183.4,104.8,183.9z"/>
		<path d="M193.8,222.4h-32.5c-1.3-6.8-7.3-11.9-14.3-11.9c-6.9,0-13,5.1-14.3,11.9H33.1c-0.7,0-1.4,0.3-1.9,0.8
			c-0.5,0.5-0.8,1.2-0.8,1.9c0,1.5,1.2,2.6,2.6,2.6h99.7c1.3,6.8,7.3,11.9,14.3,11.9c6.9,0,13-5.1,14.3-11.9h32.5
			c0.7,0,1.4-0.3,1.9-0.8c0.5-0.5,0.8-1.2,0.8-1.9C196.5,223.5,195.3,222.4,193.8,222.4z M155.5,226.7c-0.8,4-4.3,6.8-8.4,6.8
			c-3.7,0-7-2.4-8.1-5.9c-0.1-0.3-0.2-0.6-0.3-0.9c-0.1-0.5-0.2-1.1-0.2-1.7c0-0.6,0.1-1.2,0.2-1.7c0.1-0.3,0.1-0.6,0.2-0.9
			c1.1-3.5,4.4-5.9,8.1-5.9c4.1,0,7.6,2.9,8.4,6.9c0.1,0.5,0.2,1.1,0.2,1.7C155.6,225.6,155.6,226.2,155.5,226.7z"/>
		<path d="M193.8,265.2h-10.1c-1.3-6.8-7.3-11.9-14.3-11.9c-6.9,0-13,5.1-14.3,11.9H33.1c-0.7,0-1.4,0.3-1.9,0.8
			c-0.5,0.5-0.8,1.2-0.8,1.9c0,1.5,1.2,2.6,2.6,2.6h122.1c1.3,6.8,7.3,11.9,14.3,11.9c6.9,0,13-5.1,14.3-11.9h10.1
			c0.7,0,1.4-0.3,1.9-0.8c0.5-0.5,0.8-1.2,0.8-1.9C196.5,266.4,195.3,265.2,193.8,265.2z M177.9,269.5c-0.8,4-4.3,6.8-8.4,6.8
			c-4.1,0-7.6-2.9-8.4-6.9c-0.1-0.5-0.2-1.1-0.2-1.7c0-0.6,0.1-1.2,0.2-1.7c0.8-4,4.3-6.8,8.4-6.8c4.1,0,7.6,2.9,8.4,6.9
			c0.1,0.5,0.2,1.1,0.2,1.7C178,268.4,178,269,177.9,269.5z"/>
	</g>
	<g>
		<path class="st2" d="M396.3,353.2c-1.2,0-2.6-0.5-2.7-1.9c-0.1-1.6,1.6-1.4,2.7-1.6c0.9-0.2,1.3,0.3,1,1.3
			C396.8,351.6,397.9,353.2,396.3,353.2z"/>
		<path class="st7" d="M419.7,344.5c-4.4-7.5-8.9-15-13.3-22.5c-1.7-3-4-4.3-7.5-4.1c-3.9,0.2-7.8,0.2-11.7,0.2
			c-0.6,0-1.6,0.4-1.6-0.7c0-0.7,0.9-0.6,1.5-0.7c4.8-0.3,9.6-0.6,14.5-0.8c2.3-0.1,3.9,1.2,5.1,3.3c2.8,5.1,5.7,10.2,8.6,15.3
			c2.3,4.1,4.4,8.3,6.7,12.4C420.6,346.4,420.2,345.4,419.7,344.5z"/>
		<path class="st2" d="M363.2,313.3c2.5-0.7,4.9-1.1,7.5-1c0.5,0,0.9,0.3,0.9,0.7c0,0.6-0.6,0.7-1.1,0.7
			C368.1,313.9,365.6,314,363.2,313.3z"/>
		<path class="st2" d="M396.1,359.5c6.3,3.5,13.2,4.6,20.3,5.2c2.6,0.2,2.9,0.2,4.9,1.7c-8.2,0.7-15.4-1.7-23.3-3.6
			c6.3,8.1,15.2,8.3,23.6,9.8l-0.1,0.9c-1.7-0.1-3.5-0.1-5.2-0.3c-1.8-0.2-3.5-0.5-5.3-0.9c-1.8-0.4-3.5-0.9-5.6-1.4
			c1.3,2.5,3.3,3.8,5.5,4.6c6.8,2.4,13.8,3.7,20.8,3.6c0,0,0,0,0,0c2.4-1.8,4.7-3.7,7-5.5c6.1-4.8,12-9.7,18-14.6
			c-1.3-2.4-3.1-2.9-7.1-2.7c-3.8,0.2-6.7-1.2-9.6-3.3c-4.5-3.2-9-6.4-14.9-6.6c-0.2,0-0.5,0-0.9,0c0.5,2.5,3.1,1.6,4.4,3.1
			c-2.7,0.6-5.2,0.5-7.7,0.4c-6.9-0.5-13.9-0.2-20.8-0.4c-2.8-0.1-2.1,1.9-2.4,3.2c-0.5,1.6,1,1.5,1.9,1.7
			c6.3,1.3,12.8,1.6,19.2,2.4c0.8,0.1,2.1-0.1,2,0.9c-0.1,1.2-1.4,1-2.3,0.9c-7.2-0.3-14.3-1.5-21.5-2.3c-1.1-0.1-2.6-0.9-3.1,0.7
			C393.5,358.3,395,358.9,396.1,359.5z"/>
		<path class="st2" d="M356.4,318.9c0.5,0.1,1.2-0.2,1.4,0.8c-1.2,0-2.4,0.9-3.3-0.3c-0.4-0.5-0.3-1.5-0.1-2.2
			c0.3-0.7,1.1-0.3,1.8-0.3c-0.4,0.6-1.7,0-1.5,1.1C354.8,318.8,355.7,318.8,356.4,318.9z"/>
		<path class="st7" d="M333.4,324.5c0.4,0.7,0.9,1.4,1.3,2.1c9.7,15.1,19.4,30.2,29.1,45.2c2.6,4.1,5.3,8.1,7.8,12.2
			c1.8,3.1,4.4,4.6,7.8,5c1.2,0.1,2.4,0.2,3.5,0.2c11.7,0,23.4,0.1,35.1,0.1c0.4-0.3,0.7-0.5,1.1-0.8c2-1.5,4-3,5.9-4.4
			c0.1-0.1,0.3-0.2,0.4-0.3c1.2-0.9,2.4-1.8,3.5-2.7c-6,0-12-1.4-17.9-3.3c-4-1.3-7.2-3.8-9.1-7.7c-0.4-0.9-1.1-1.5-1.9-2
			c-1.8-1.4-3.5-3-4.2-5.3c-0.4-1.1-1.3-1.6-2.1-2.2c-1.8-1.5-3-3.3-1.8-5.8c0.4-0.8,0.1-1.4-0.2-2.1c-1-2.6-0.2-4.2,2.6-4.9
			c2.7-0.7,5.6-0.7,8.3-0.7c5.3-0.1,10.7,0,16,0c0.1-0.9-0.5-1.6-0.9-2.3c-4.4-7.5-8.9-15-13.3-22.6c-1.1-1.9-2.8-2.9-5-2.9
			c-4.3,0.1-8.8-0.4-12.9,0.6c-9,2.3-18.1,1.2-27.2,2.1c-2.3,0.2-4.8,0.6-6.9-1c-0.3-0.3-1-0.1-1.5-0.1c-3.4,0.2-6.9,0.3-10.3,0.5
			c-2,0.1-4,0.2-6,0.3C332.4,321.9,332.1,322.5,333.4,324.5z"/>
		<path class="st7" d="M384.5,248.5c-4.3-4.2-5.2-10.7-1.9-14.1c0,2.5-0.4,4.8,0,7.1C382.9,244,383.8,246.2,384.5,248.5z"/>
		<path class="st2" d="M361.7,170.3c-0.3,0.9-1.2,0.7-2,0.6c-1.9-0.2-3.8-0.4-5.7,0.5c-1.7,0.8-2.3,1.8-1.4,3.6
			c0.5,1,0.9,2.1,1.4,3.3c2.7-4.1,4.9-4.2,10.3-0.4c-0.1-1.3-0.2-2.4-0.3-3.8c2.3,1.8,2.6,4,2.4,6.3c-0.2,2.4-0.8,4.7-1.7,6.9
			c-1.8,4.5-1.7,4.5,1.6,7.5c-1.7,0.5-2.6,0.3-3.7-0.9c-1-1.2-1.4-2.4-0.8-4c0.9-2.5,1.8-5,2.5-7.5c0.4-1.3,0.5-2.7-1.4-3.5
			c0,2.2,0,4.5-3,4.6c-1.9,0.1-3-1.7-3.4-5.3c-1.7,0.2-2.3,1.2-2.2,2.9c0.3,4.4-0.8,8.8,0.2,13.2c1,4.3,2.9,8.1,5.1,11.8
			c1.9,3.3,4,6.5,6.1,9.7c4,6.1,7.1,7.3,14.2,5.4c9.6-2.6,17.8-7.8,25-14.5c0.8-0.7,1.5-1.6,2.2-2.4c0.6,0.3,0.5,0.7,0.3,0.9
			c-3.9,7.5-8.2,14.6-14.4,20.5c-0.1,0.1-0.1,0.1-0.2,0.2c-4.5,3.3-5.5,7.4-2.8,12.4c0.7,1.2,1.5,2.7,0.6,4.5c-1-1.6-1.8-3-2.7-4.4
			c-1.9,4.1-0.8,9.5,2.4,12.2c2.4,2,5,2.3,7.9,1.3c1.9-0.7,3.5-1.7,5-2.9c10.1-7.9,19.6-16.4,28.8-25.4c2-2,2-2.4-0.5-4
			c-0.4-0.3-0.9-0.7-1.3-0.7c-3.8-0.5-4.9-3.6-6.1-6.4c-1.4-3.3-2.5-6.8-3.8-10.3c-1-2.9-4.1-5.2-7-5.5c-1-0.1-1.2,1-2.1,1.1
			c-0.3-0.9,0.3-1.7,0.5-2.5c0.2-1.3,0.7-1.7,2-0.9c2.1,1.3,4.4,0.6,6.2-0.6c4.7-3,8.2-7.1,9.3-12.8c0.3-1.5,0.3-3-0.1-4.5
			c-1.5-6.3-7.7-8.2-12.5-3.9c-1.6,1.4-2.5,3.2-3.3,5.1c-0.8,1.7-1.8,3.1-3.7,3.5c-1,0.2-1.5,0-1.6-1.2c-0.5-8-0.6-8-6.2-15
			c-0.7,0.3-0.2,1.3-1.1,1.6c-3.4-4.3-7.3-8.5-7.2-14.6c0-1.1-0.6-1.2-1.5-1.3c-3.1-0.4-5.8,0.4-8.1,2.8c-4.1,4.4-9.4,6.5-15.8,7.5
			c2.7-3,5.4-5.4,6.7-9.3c-6.1,2.2-10.5,5.9-14.1,11.2c-0.6-2.9,0.3-5.3,1-7.7c-7.8,3.4-11.7,8.8-10.1,14.5c2.1-1.4,4.4-2.1,6.9-1.7
			c0.6,0.1,1.2,0.1,1.7,0.4C361,168.8,362,169.3,361.7,170.3z M415.9,186.2c0.6-1.2,1.1-2.5,0.8-3.9c-0.5-3.2,1.1-6.3,4-7.6
			c2.8-1.2,5.1,0.3,5.2,3.8c-0.8-0.7-1.4-1.4-2.1-1.8c-1.6-0.9-2.7,0.2-3.7,1.2c-0.7,0.7-1.1,1.3-0.2,2.4c2.6,3,1.1,6.9-2.9,7.7
			c-0.5,0.1-1,0.2-1.5-0.2C415,187.2,415.7,186.7,415.9,186.2z M392.4,167.5c-5.1-2.7-10.3-2.3-15.5-0.6c-1.2,0.4-2.9,0.8-3.4-1.1
			c-0.5-2,1.1-2.5,2.6-2.7c3.1-0.5,6.2-0.9,9.4-0.5c3.4,0.4,6.5,1.5,8.7,5C393.2,167.6,392.8,167.7,392.4,167.5z M383.5,180.7
			c-2.3,0-3.7-1.8-4-5.5c-0.6-0.4-1.1,0.9-1.8,0.2c0.8-2.1,1.9-3.9,4.4-3.8c3.6,0.1,6.5,1.5,9.2,4.4c-1.9,0.4-3-0.5-4.4-0.6
			C386.8,179.1,385.8,180.7,383.5,180.7z M368.7,202.6c5.3,0.5,10.1-0.5,14-4.4c0.4-0.4,0.6-0.8,1.2-0.3c0.7,0.7,0,1-0.3,1.4
			c-4.1,4.9-13.6,6.6-17.8,3.8C366.7,202.1,367.7,202.5,368.7,202.6z"/>
		<path class="st7" d="M452.6,214.9c-7,4.3-13.6,8.3-20.2,12.3c-0.3,0.2-0.6,0.6-1.4,0.2C437.2,221.7,442.3,214.4,452.6,214.9z"/>
		<path class="st7" d="M451.8,351.9c3.5,0.9,5.9,2.5,7.6,4.7c2.1-1.8,4.3-3.6,6.4-5.5c0,0,0.1-0.1,0.1-0.1c-1.5-0.5-3.2-0.7-5.1-0.6
			C458,350.7,455,350.6,451.8,351.9z"/>
		<path class="st7" d="M465.4,347.6c1,0.5,1.9,1,2.8,1.6c0.2-0.2,0.3-0.3,0.5-0.4c1-0.9,2.1-1.8,3.1-2.7
			C469.5,345.9,467.3,346.4,465.4,347.6z"/>
		<path class="st7" d="M296.3,329.5c3.5,2.1,6.9,3,10.5,3.4c8.4,1,16.4-0.4,24.2-3.4c0.1-0.1,0.2-0.1,0.4-0.2
			c0.8-0.3,1.4-0.7,1.5-1.3c0.1-0.5-0.1-1-0.7-1.8c-0.6-0.8-1.1-1.7-1.5-2.7c-1.7-3.6,0.3-7,4.3-7.2c2.6-0.1,5.3-0.2,7.9-0.2
			c1.8,0,2.8-0.8,3.3-2.6c1.1-3.8,0.1-7.2-1.8-10.4c-2.1-3.6-4.2-7.2-5.9-11c-0.4-1-0.8-2-0.8-3.2c2.1,2.8,4.2,5.6,6.4,8.3
			c1.2,1.4,2.7,3.8,4.2,3.2c1.5-0.6,0.4-3.2,0.3-4.9c-0.8-9.5-0.6-19-0.4-28.5c0-0.5-0.2-1.2,0.7-1.8c0.9,4.1,0.9,8.1,1.3,12.1
			c0.9,9.2,1.8,18.4,3.2,27.5c0.3,1.8,0.7,3.5,1.3,5.2c0.3,0.8,0.6,1.6,1,2.4c0.5,1.2,1.3,1.7,2.6,1.6c1.3-0.1,1.8-0.8,1.9-1.9
			c0.2-1.4,1.1-2,2.4-2.1c3-0.1,5.9-0.2,8.9-0.4c1.5-0.1,2.7,0.4,3.3,1.8c0.6,1.5,1.6,1.5,3,1.7c8,1,16,0.5,24,0.2
			c3.1-0.2,5.3,1.7,6.9,4.4c4.4,7.8,8.9,15.6,13.3,23.5c0.8,1.4,1.7,2.2,3.3,2.4c4.7,0.9,9.2,2.4,13.3,5c0.9,0.5,1.4,0.5,2.3-0.1
			c3.9-2.8,8.3-3.8,13-3.3c2,0.2,3-0.7,3.8-2.2c3-5.5,3.1-11.2,0.9-17c-1.9-5-4.1-9.9-5.6-15c-1.6-5.8-1.8-11.6-0.9-17.6
			c0.9,9,3.4,17.4,9.4,24.5c-0.1-5-0.3-9.9-0.1-14.9c0.5-9.3,1.8-18.4,5.4-27.1c2.4-5.7,5.9-10.7,11.4-14c3.6-2.2,7.4-3.2,11.6-2.8
			c0,0.6-0.4,0.7-0.7,0.7c-10.8,1.3-17.1,8-20.6,17.7c-3.9,10.7-4.2,21.8-3.3,32.9c0.4,5.1,1.3,10.1,3,14.9c1.4,4.1,3.1,4.4,5.7,1
			c5.1-6.6,9.9-13.3,14.9-20c0.7-0.9,1.4-1.8,2.4-2.6c-5.3,10-10.9,19.8-17.2,29.5c2.7,0.4,5,0.1,7.3-0.9c2.8-1.3,5.7-2.4,8.7-3
			c3.7-3.4,7.3-6.9,11-10.4c1.6-1.6,3.2-3.1,4.8-4.7c1-1,2-2,3-3c2.3-2.3,4.5-4.6,6.7-6.9c-2.9-11.3-6.3-22.6-10.4-33.5
			c-1-2.5-2-5-3.2-7.5c-1.3-2.7-2.3-5.9-6.2-6.2c0.6-0.1,1.3-0.2,2.3-0.3c-4.9-6.6-10.4-11.8-18.8-12.6c-7.6-0.8-14.8,1.2-22,3.4
			c-9.2,2.8-18.3,6-27.4,9c-4.7,1.5-9.5,3-14.3,4.2c-1.8,0.5-1.7,1.6-1.7,2.9c0,1.1,0,2.2,0,3.3c0,8.6-0.1,17.2,0,25.8
			c0.1,3.4-1.2,6.7-0.9,10.1c0.1,1.3-0.9,2.2-2.3,2.1c-1.5-0.1-1.8-1.1-1.7-2.3c0.2-1.8,0-3.5-1.4-4.9c-0.8-0.8-0.6-2.1-0.6-3.2
			c0-7.6,0-15.2,0-22.9c0-2.2,0-4.4,0-6.7c0-2.1-0.6-2.7-2.6-2.1c-1.2,0.3-2.4,0.4-3.8,0.6c0.4-1.1,1.4-1.2,2.1-1.6
			c2.2-1.2,4.6-2.2,5.6-4.8c0.2-0.5,0.7-0.6,1.2-0.8c0.3-1.2,1.2-1.5,2.3-1.2c1.1,0.3,1.9,1,1.9,2.1c0,2.5,1.3,2.2,2.9,1.6
			c7.9-2.9,15.8-5.8,23.8-8.7c2.7-1,5.4-1.9,8-2.8c9.1-3.1,18.2-6.2,27.9-6.2c4.7,0,9.1,0.9,13.2,3.1c1.8,1,2.3,0.6,2.7-1.3
			c1-5.5-1-10.2-4.1-14.2c-0.9-1.1-1.7-2.2-2.5-3.3c-3.7-5-7-10.3-9.5-16c-2-4.6-6.4-6.7-11.2-7.6c-12-2.2-23.8-0.4-36.1,3
			c4.2,1.2,7.8,1.4,11.4,1.1c5.3-0.5,10.6-1.1,16-0.6c0.7,0.1,1.4,0.1,2,0.2c1.8,0.3,3.7,0.4,4.4,2.4c0.7,2.2-0.6,3.8-2,5.1
			c-3,2.9-6.8,4.7-10.5,6.7c-19.1,10.4-36.8,22.7-52.5,37.8c-1.3,1.3-2.1,1.4-3.4,0c-1.5-1.7-3.6-2.8-5.7-3.9
			c-10.1-5.2-12.8-15.3-6.6-24.8c0.8-1.2,1.2-2.3,0.4-3.7c-0.8-1.3-2-1-3.1-1c-6.3,0.5-14.6,9.4-11.1,18c1.6,3.9,3.6,7.5,6.6,10.4
			c1.3,1.2,2.4,2.5,4.6,1.9c1.3-0.3,2.7,0.5,3.1,1.7c1.1,2.9,3.7,3.8,6,5.1c1,0.6,2.2,0.8,3.1,2.1c-2-0.4-3.8-0.7-5.4-1.2
			c-1.8-0.6-2.1,0.1-2.1,1.7c0,8,0,16,0,24c0,2.1,0,4.2,0,6.3c0,3-1.5,5.7-1.2,8.7c0.1,1.1-1,1.8-2.1,1.6c-1.2-0.2-1.5-1.1-1.8-2.2
			c-0.9-3.2-1.4-6.3-1.7-9.5c-0.7-8.7,0.3-17.4-0.2-26.1c0-0.4,0-0.8,0-1.3c0.5-4.8-0.2-8.8-4.6-11.9c-2.5-1.8-4.2-4.7-5.4-7.6
			c-0.6-1.6-1.5-1.7-2.9-1.2c-6.5,2.2-11.8,6.3-16.6,11c-3,3-5.7,6.3-8.2,9.8c-4.4,6.1-9.7,11.3-16.2,15.3c-0.6,0.4-1.1,0.8-1.7,1.1
			c-3.4,2.4-3.4,2.5-0.8,5.8c8.2,10.3,7.7,26.7-1.2,36.4c-0.3,0.3-0.5,0.9-1.4,0.8c1.8-4.1,3.7-8,4.4-12.4
			c1.1-7.4,0.4-14.6-3.7-21.1c-2.6-4.1-6.3-6.5-11.6-8c5.8,8.2,8.4,16.6,6.4,25.9C310.9,319.1,305.9,326,296.3,329.5z M378.2,226.2
			c-1.1,3.2-2.2,6.1-3.3,9.3C373.4,232.3,374.8,228.4,378.2,226.2z M415.6,253.4c12.6-8.7,26.3-15.1,41-19.4
			C442.3,239.2,428.9,246.2,415.6,253.4z M468.5,343.1c2,0,3.9,0.2,5.7,0.8c2.5-2.2,4.9-4.4,7.4-6.6c-3.2,0-6.4,0.7-9.3,2.2
			C470.8,340.2,469.4,341.1,468.5,343.1z"/>
		<g>
			<path class="st2" d="M229.2,271.6c2.4,0.4,3.7,1.8,5.7,2.9C232.2,274.9,230.9,273.3,229.2,271.6z"/>
			<path class="st2" d="M210.1,248c0.3-1.5,1.6-1.5,2.8-1.5c8.9,0.4,17.6-0.9,26.2-2.9c2.7-0.6,5-0.1,7.2,1.6
				c2.2,1.7,4.1,3.8,6.1,5.8c7.7,7.6,14.6,16.1,24.5,21.1c3.3,1.7,6.4,3.8,9.7,5.6c1,0.6,1.7,1.3,1.9,2.5c0.9,4.9,0.3,9.6-2.3,14
				c-3.5,6-10.8,7.2-15.8,2.4c-4.8-4.7-9.2-9.7-13.8-14.6c1.1-0.9,2.4-1.1,3.2-2.2c-1.4-1.1-2.9-0.3-4.1,0c-6.3,1.6-11.5,0-15.9-4.8
				c-2.8-3.1-6.2-5.2-10.3-6.2c-1.3-0.3-2.6-0.8-3.8-1.4c-2-1-3.9-2.1-5.2-4c-0.7-1-0.9-2.1,0.4-2.8c2-1.1,4.4,0.3,4.6,2.8
				c-0.6-3.1,1.4-2.4,2.8-2.1c2.6,0.6,5.2,1.5,7.8,2.2c2.6,0.6,5.3,0.8,7.9-0.7c-3.2,0.2-3.3-1.8-3.4-4.1c-0.1-2-0.3-4.1-1.8-6
				c-1.1,1.6-0.2,3.2-0.8,4.7c-1.1-0.4-1.9-1.2-2.6-2c-1.9-2.4-4.2-3.1-7.2-2.8c-4.1,0.3-8.2-0.7-12.3-0.5c-1.5,0.1-3-0.6-4.3-1.4
				C210.8,250.2,209.8,249.4,210.1,248z"/>
			<path class="st2" d="M232.2,256.2c0.6,0.6,1.9,1.2,1.6,2.1c-0.4,1.1-1.7,1.3-2.8,1.2c-1-0.1-2-0.2-3.6-1.2
				c0.9-0.7,1.7-1.1,2.3-1.7C230.4,255.8,231.2,255.2,232.2,256.2z"/>
		</g>
		<path class="st7" d="M268.7,300.7c3.1,4.1,7.3,5.2,12,3.1c9.9-4.3,14.3-19.4,8.3-28.6c4.6,3.1,9.6,5.8,13.7,9.5
			c8.8,7.7,10.6,23.4,4.1,34c-5.1,8.5-11.3,10-18.4,6.9c-2.1-0.9-4.3-1.5-6.1-3c-1.6-1.3-2.8-2.8-3.6-5c6.8,1.5,12.2-0.5,16.5-5.4
			c4-4.4,6.7-12.4,5.5-16.7c-1.1,5-2.4,9.7-5.5,13.7c-4,5.3-9.8,7.6-15.1,5.8c-6.8-2.3-12.6-9.2-12.6-15.4
			C268.3,299.7,268.4,300.3,268.7,300.7z"/>
		<path class="st2" d="M333.4,319.1c6.2-0.6,12.3-0.8,18.5-0.9c0,0.3,0,0.7,0,1c-6.2,0.3-12.4,0.6-18.5,0.9
			C333.4,319.7,333.4,319.4,333.4,319.1z"/>
		<path class="st7" d="M379.4,256c1.1-0.1,1.6,0.8,1.8,1.8c0.1,0.6,0.1,1.2,0.1,1.8c0,5.7,0,11.4,0,17h0.1c0,5.8,0,11.5,0,17.3
			c0,0.8,0,1.7-0.2,2.5c-0.1,0.6-0.5,1.1-1.2,1.2c-0.8,0.1-1.3-0.4-1.5-1.1c-0.2-0.7-0.2-1.5-0.2-2.3c0-6.9,0-13.7,0-20.6
			c0-5.3,0-10.5,0.1-15.8C378.4,257.2,378.4,256.1,379.4,256z"/>
		<path class="st7" d="M409.1,256.6c1.9-1.1,2.4,0,2.4,1.7c0,12.3,0.1,24.6,0.1,36.9c0,1.1-0.1,2.2-1.4,2.3
			c-1.6,0.1-1.5-1.3-1.6-2.3c0-0.4,0-0.8,0-1.3c0-11.3,0-22.6,0.1-33.8C408.6,258.9,408.5,257.7,409.1,256.6z"/>
		<path d="M263.5,292.5c0.1,1,0.2,1.9,0.1,2.9v0c0.8,2.1,1.2,4.4,1.1,6.8c0.2,0.3,0.2,0.7,0.3,1c0.6,2,1.2,4,2.7,5.4
			c4.1,3.9,6.6,8.8,9.7,13.4c2,3,4.9,4.8,8.5,5.5c0.9,0.2,1.6,0.5,2.3,1c8.4,6.6,18.1,8.4,28.5,7.7c2.7-0.2,5.3-0.5,7.9-1.1
			c2.9-0.6,5.8-1.5,8.7-2.6c1.6-0.7,2.4-0.4,3.3,1c7.3,11.5,14.7,23,22,34.5c2.7,4.2,5.2,8.6,8.1,12.6c2.3,3.1,2.9,6.6,3.1,10.2
			c0,0.4,0,0.8,0,1.2h44.4c1.2-0.9,2.5-1.8,3.7-2.7c-11.7,0-23.4-0.1-35.1-0.1c-1.2,0-2.4-0.1-3.5-0.2c-3.4-0.4-6-2-7.8-5
			c-2.4-4.2-5.2-8.2-7.8-12.2c-9.7-15.1-19.4-30.2-29.1-45.2c-0.4-0.7-0.9-1.4-1.3-2.1c-1.3-2-1-2.6,1.5-2.8c2-0.1,4-0.2,6-0.3
			c3.4-0.2,6.9-0.3,10.3-0.5c0.5,0,1.2-0.1,1.5,0.1c2.1,1.7,4.6,1.2,6.9,1c9-0.9,18.2,0.3,27.2-2.1c4.1-1.1,8.6-0.5,12.9-0.6
			c2.2,0,3.9,1,5,2.9c4.4,7.5,8.9,15,13.3,22.6c0.4,0.7,1.1,1.4,0.9,2.3c-5.4,0-10.7-0.1-16,0c-2.8,0-5.6,0-8.3,0.7
			c-2.8,0.7-3.6,2.3-2.6,4.9c0.3,0.7,0.5,1.3,0.2,2.1c-1.2,2.4,0,4.2,1.8,5.8c0.8,0.6,1.7,1.1,2.1,2.2c0.8,2.2,2.4,3.8,4.2,5.3
			c0.7,0.6,1.4,1.2,1.9,2c1.9,3.9,5.1,6.4,9.1,7.7c5.8,1.9,11.8,3.3,17.9,3.3c0,0,0,0,0,0c0.5-0.4,1-0.8,1.5-1.1
			c0.4-0.3,0.8-0.6,1.2-1c-7,0.2-14-1.2-20.8-3.6c-2.2-0.8-4.2-2.1-5.5-4.6c2.1,0.5,3.8,1.1,5.6,1.4c1.7,0.4,3.5,0.7,5.3,0.9
			c1.7,0.2,3.5,0.2,5.2,0.3l0.1-0.9c-8.4-1.5-17.4-1.7-23.6-9.8c7.9,1.9,15.1,4.3,23.3,3.6c-2-1.4-2.3-1.4-4.9-1.7
			c-7-0.6-14-1.7-20.3-5.2c-1.1-0.6-2.6-1.3-2.2-2.8c0.4-1.6,2-0.8,3.1-0.7c7.2,0.8,14.3,1.9,21.5,2.3c0.9,0,2.2,0.2,2.3-0.9
			c0.1-1-1.3-0.8-2-0.9c-6.4-0.9-12.8-1.1-19.2-2.4c-0.9-0.2-2.4-0.1-1.9-1.7c0.4-1.3-0.3-3.3,2.4-3.2c6.9,0.2,13.9,0,20.8,0.4
			c2.5,0.2,5,0.3,7.7-0.4c-1.3-1.5-3.9-0.5-4.4-3.1c0.4,0,0.6-0.1,0.9,0c5.8,0.3,10.4,3.4,14.9,6.6c2.9,2.1,5.8,3.6,9.6,3.3
			c4-0.3,5.9,0.3,7.1,2.7c0.9-0.8,1.8-1.5,2.7-2.2c-1.6-2.1-4.1-3.8-7.6-4.7c3.2-1.3,6.1-1.2,9.1-1.4c1.9-0.1,3.6,0.1,5.1,0.6
			c0.8-0.6,1.5-1.3,2.2-1.9c-0.9-0.6-1.8-1.1-2.8-1.6c1.9-1.2,4.1-1.7,6.3-1.5c0.8-0.7,1.6-1.4,2.4-2.2c-1.8-0.6-3.6-0.8-5.7-0.8
			c0.9-2,2.3-2.9,3.8-3.7c2.9-1.5,6-2.2,9.3-2.2c2.5-2.2,5-4.5,7.4-6.8c0.3-0.2,0.5-0.5,0.8-0.8c-3,0.7-5.9,1.7-8.7,3
			c-2.3,1.1-4.6,1.4-7.3,0.9c6.3-9.7,11.9-19.5,17.2-29.5c-0.9,0.8-1.7,1.6-2.4,2.6c-5,6.7-9.8,13.4-14.9,20c-2.6,3.4-4.3,3-5.7-1
			c-1.7-4.8-2.6-9.8-3-14.9c-1-11.2-0.6-22.2,3.3-32.9c3.6-9.7,9.8-16.3,20.6-17.7c0.3,0,0.7-0.1,0.7-0.7c-4.2-0.3-8,0.6-11.6,2.8
			c-5.4,3.4-8.9,8.3-11.4,14c-3.6,8.6-4.9,17.8-5.4,27.1c-0.3,4.9-0.1,9.9,0.1,14.9c-6-7.1-8.5-15.5-9.4-24.5
			c-0.9,6-0.8,11.9,0.9,17.6c1.5,5.1,3.7,10,5.6,15c2.2,5.8,2.1,11.4-0.9,17c-0.8,1.5-1.8,2.4-3.8,2.2c-4.7-0.5-9.1,0.5-13,3.3
			c-0.8,0.6-1.4,0.6-2.3,0.1c-4.1-2.5-8.6-4.1-13.3-5c-1.6-0.3-2.5-1.1-3.3-2.4c-4.4-7.8-8.9-15.6-13.3-23.5
			c-1.5-2.8-3.8-4.6-6.9-4.4c-8,0.4-16,0.8-24-0.2c-1.4-0.2-2.4-0.2-3-1.7c-0.6-1.5-1.8-1.9-3.3-1.8c-3,0.1-5.9,0.3-8.9,0.4
			c-1.4,0.1-2.2,0.7-2.4,2.1c-0.2,1.1-0.7,1.8-1.9,1.9c-1.3,0.1-2.1-0.4-2.6-1.6c-0.4-0.8-0.7-1.6-1-2.4c-0.6-1.7-1-3.4-1.3-5.2
			c-1.4-9.1-2.4-18.3-3.2-27.5c-0.4-4-0.4-8-1.3-12.1c-0.9,0.6-0.6,1.2-0.7,1.8c-0.2,9.5-0.3,19,0.4,28.5c0.1,1.7,1.2,4.3-0.3,4.9
			c-1.5,0.6-3-1.8-4.2-3.2c-2.2-2.7-4.3-5.6-6.4-8.3c0,1.2,0.4,2.2,0.8,3.2c1.7,3.8,3.8,7.4,5.9,11c1.9,3.2,2.9,6.6,1.8,10.4
			c-0.5,1.7-1.4,2.6-3.3,2.6c-2.6,0-5.3,0.1-7.9,0.2c-3.9,0.2-6,3.6-4.3,7.2c0.4,0.9,0.9,1.9,1.5,2.7c0.6,0.8,0.8,1.3,0.7,1.8
			c-0.1,0.5-0.7,0.9-1.5,1.3c-0.1,0.1-0.2,0.1-0.4,0.2c-7.8,3-15.8,4.4-24.2,3.4c-3.6-0.4-7.1-1.3-10.5-3.4
			c9.5-3.5,14.6-10.5,16.5-19.7c2-9.3-0.6-17.7-6.4-25.9c5.3,1.5,9.1,3.9,11.6,8c4.1,6.5,4.8,13.6,3.7,21.1
			c-0.6,4.4-2.6,8.3-4.4,12.4c0.9,0.1,1.1-0.4,1.4-0.8c8.9-9.7,9.5-26.1,1.2-36.4c-2.6-3.3-2.6-3.4,0.8-5.8c0.6-0.4,1.1-0.8,1.7-1.1
			c6.4-4,11.7-9.2,16.2-15.3c2.5-3.4,5.1-6.8,8.2-9.8c4.8-4.7,10.1-8.8,16.6-11c1.4-0.5,2.3-0.3,2.9,1.2c1.2,2.9,2.9,5.8,5.4,7.6
			c4.4,3.1,5.2,7.1,4.6,11.9c0,0.4,0,0.9,0,1.3c0.4,8.7-0.6,17.5,0.2,26.1c0.3,3.2,0.8,6.4,1.7,9.5c0.3,1.1,0.6,2,1.8,2.2
			c1.2,0.1,2.2-0.6,2.1-1.6c-0.3-3,1.2-5.8,1.2-8.7c0-2.1,0-4.2,0-6.3c0-8,0.1-16,0-24c0-1.7,0.3-2.3,2.1-1.7
			c1.7,0.5,3.4,0.8,5.4,1.2c-0.9-1.3-2.1-1.6-3.1-2.1c-2.3-1.3-4.9-2.2-6-5.1c-0.4-1.2-1.9-2.1-3.1-1.7c-2.2,0.6-3.3-0.7-4.6-1.9
			c-3-3-5-6.5-6.6-10.4c-3.4-8.6,4.9-17.6,11.1-18c1.2-0.1,2.3-0.4,3.1,1c0.8,1.4,0.4,2.5-0.4,3.7c-6.2,9.4-3.4,19.6,6.6,24.8
			c2.1,1.1,4.1,2.2,5.7,3.9c1.3,1.4,2,1.3,3.4,0c15.7-15.1,33.4-27.4,52.5-37.8c3.7-2,7.4-3.8,10.5-6.7c1.4-1.4,2.8-3,2-5.1
			c-0.7-2-2.6-2.2-4.4-2.4c-0.7-0.1-1.3-0.2-2-0.2c-5.4-0.5-10.7,0.2-16,0.6c-3.6,0.3-7.2,0.1-11.4-1.1c12.3-3.4,24.1-5.2,36.1-3
			c4.8,0.8,9.1,2.9,11.2,7.6c2.5,5.8,5.8,11,9.5,16c0.8,1.1,1.7,2.2,2.5,3.3c3.2,4,5.2,8.8,4.1,14.2c-0.4,1.8-0.9,2.2-2.7,1.3
			c-4.1-2.2-8.6-3.1-13.2-3.1c-9.8,0-18.9,3.1-27.9,6.2c-2.7,0.9-5.4,1.9-8,2.8c-7.9,2.8-15.8,5.8-23.8,8.7
			c-1.6,0.6-2.9,0.8-2.9-1.6c0-1.1-0.7-1.9-1.9-2.1c-1.1-0.3-1.9,0.1-2.3,1.2c-0.5,0.1-1,0.2-1.2,0.8c-1,2.7-3.4,3.6-5.6,4.8
			c-0.7,0.4-1.6,0.5-2.1,1.6c1.3-0.2,2.6-0.3,3.8-0.6c2-0.6,2.7,0,2.6,2.1c0,2.2,0,4.4,0,6.7c0,7.6,0,15.2,0,22.9
			c0,1.1-0.2,2.4,0.6,3.2c1.5,1.4,1.6,3,1.4,4.9c-0.1,1.2,0.2,2.2,1.7,2.3c1.4,0.1,2.5-0.8,2.3-2.1c-0.3-3.4,1-6.7,0.9-10.1
			c-0.1-8.6-0.1-17.2,0-25.8c0-1.1,0-2.2,0-3.3c0-1.3-0.1-2.4,1.7-2.9c4.8-1.3,9.5-2.7,14.3-4.2c9.2-2.9,18.2-6.1,27.4-9
			c7.2-2.2,14.4-4.2,22-3.4c8.4,0.8,13.9,6,18.8,12.6c-1.1,0.2-1.7,0.2-2.3,0.3c3.9,0.4,4.9,3.5,6.2,6.2c1.2,2.4,2.3,4.9,3.2,7.5
			c4.1,11,7.5,22.2,10.4,33.5c1-1,1.9-2,2.9-3c-2.9-10.5-6.2-20.9-10.2-31.2c-3-7.9-6.6-15.5-12.9-21.4c-0.6-0.6-0.8-1.1-0.6-2
			c1.9-8.4-0.9-15.6-6.2-21.9c-0.2-0.2-0.4-0.5-0.6-0.8c-2.4-3-4.5-6.1-5.7-9.9c-0.2-0.7-0.6-1.4-0.9-2.1
			c-3.9-9.2-11.1-13.2-20.7-13.8c-11.2-0.6-22.2,1.2-33.1,3.4c-2.1,0.4-2.7,0-2.7-2.1c-0.1-3.4,0-6.4,3.1-9.2c4.4-4,6-9.5,5.9-15.4
			c0-1.8,0.4-3.4,1.5-5c4.8-7.2,5.7-14.7,1.9-22.7c-1.6-3.3-4.3-5.3-8.2-7.1c3.9-0.1,6.5,1.3,9.2,2.9c-1-4.5-6.7-9-12.2-9
			c-3.2,0-4.5-0.7-5.4-4c-1.4-5.7-6-8.3-12.3-9.5c2.1,2.6,4.2,4.5,4.4,8c-5.3-6.6-11.5-10.2-19.9-9.6c2.8,1.9,5.6,3.6,7.8,7.1
			c-12.3-5.6-24.4-9.2-37.6-6.3c3.3,1.4,6.7,2.5,10,4.9c-8.9,1.3-17.4,2-26.3-0.3c2.1,4.7,5.8,6.8,10.2,8.9
			c-9.1,1.8-17.2,5.9-27,4.5c2.2,2.3,4.1,3.8,6.3,4.8c2.2,1.1,4.7,1.4,7.3,2.1c-3.8,2.7-7.9,3.4-12.5,3.4c1.9,1.9,4.1,2.3,6.3,2.8
			c-3,4.4-4.2,9-2,14.9c1.8-4.6,4.5-7.6,8.8-9.1c-2,5.9-2.3,11.4,2.4,16.8c0.5-2.1,0.3-3.9,1.2-5.6c2,6.2,5.1,11.9,4.3,18.7
			c-0.8,7.2,1.9,13.7,5.5,19.8c2.6,4.3,5.3,8.5,8.1,12.6c1.4,2.2,3.2,4,6.3,4.6c-1.1,1.2-2,2.2-2.9,3.1c-3.3,3.2-4.9,7.1-4.4,11.7
			c0.2,1.7-0.4,2.5-1.9,3.3c-9.5,4.4-17.3,10.9-23.7,19.2c-5.7,7.4-12,14.1-20,18.9c-2.7,1.6-5.2,3-8.4,1.1
			c-0.6-0.4-1.5-0.6-2.2-0.6c-5.5,0.1-9.9-2.5-14.3-5.4c-3.4-2.3-6.8-4.2-11.1-3.5c-0.4,0.1-0.9-0.1-1.2-0.3c-1.1-0.7-2.3-1.4-3.5-2
			c-1.8-0.5-3.6-1.3-5.2-2.3c-0.2-0.1-0.4-0.2-0.6-0.2c-0.3-0.1-0.6-0.3-0.9-0.4v2.3c0,0,0,0,0.1,0c0.5,0.4,1.1,0.7,1.7,1.1
			c0.5,0.3,1,0.6,1.5,0.9c0.4,0.2,0.7,0.4,1.1,0.6c0.4,0.2,0.7,0.4,1.1,0.6c3.3,1.7,6.4,3.8,9.7,5.6c1,0.6,1.7,1.3,1.9,2.5
			c0.9,4.9,0.3,9.6-2.3,14c-3.5,6-10.8,7.2-15.8,2.4c-1.4-1.4-2.9-2.9-4.3-4.3h-2.7C263.5,292.4,263.5,292.4,263.5,292.5z
			 M411.6,268.6c0,8.9,0,17.7,0.1,26.6c0,1.1-0.1,2.2-1.4,2.3c-1.6,0.1-1.5-1.3-1.6-2.3c-0.1-0.4,0-0.8,0-1.3c0-7.7,0-15.5,0-23.2
			c0-3.5,0-7.1,0-10.6c0-1.2-0.1-2.3,0.5-3.4c1.9-1.1,2.4,0,2.4,1.7C411.5,261.7,411.6,265.2,411.6,268.6z M431,227.4
			c6.2-5.7,11.3-13,21.6-12.5c-7,4.3-13.6,8.3-20.2,12.3C432,227.4,431.7,227.8,431,227.4z M382.6,234.5c0,2.5-0.4,4.8,0,7.1
			c0.3,2.4,1.2,4.7,1.9,7C380.2,244.3,379.3,237.8,382.6,234.5z M365.7,215.8c-2.1-3.2-4.2-6.4-6.1-9.7c-2.2-3.7-4.1-7.6-5.1-11.8
			c-1-4.4,0.1-8.8-0.2-13.2c-0.1-1.7,0.5-2.7,2.2-2.9c0.4,3.6,1.5,5.3,3.4,5.3c3-0.1,2.9-2.4,3-4.6c1.8,0.8,1.8,2.2,1.4,3.5
			c-0.8,2.5-1.6,5-2.5,7.5c-0.6,1.6-0.2,2.8,0.8,4c1,1.2,1.9,1.3,3.7,0.9c-3.3-3-3.3-3-1.6-7.5c0.9-2.2,1.5-4.5,1.7-6.9
			c0.2-2.3-0.1-4.5-2.4-6.3c0.1,1.4,0.2,2.6,0.3,3.8c-5.3-3.8-7.6-3.7-10.3,0.4c-0.5-1.2-0.8-2.3-1.4-3.3c-0.9-1.8-0.3-2.8,1.4-3.6
			c1.9-1,3.8-0.8,5.7-0.5c0.8,0.1,1.7,0.3,2-0.6c0.3-1-0.6-1.5-1.4-1.8c-0.5-0.2-1.1-0.3-1.7-0.4c-2.5-0.4-4.8,0.3-6.9,1.7
			c-1.5-5.8,2.3-11.2,10.1-14.5c-0.7,2.5-1.6,4.8-1,7.7c3.6-5.3,8-9,14.1-11.2c-1.3,4-4,6.3-6.7,9.3c6.5-1,11.7-3.1,15.8-7.5
			c2.2-2.4,4.9-3.1,8.1-2.8c0.8,0.1,1.5,0.2,1.5,1.3c-0.1,6.1,3.8,10.2,7.2,14.6c0.9-0.2,0.4-1.3,1.1-1.6c5.6,6.9,5.7,6.9,6.2,15
			c0.1,1.2,0.6,1.4,1.6,1.2c2-0.4,3-1.8,3.7-3.5c0.8-1.9,1.7-3.7,3.3-5.1c4.8-4.3,11-2.3,12.5,3.9c0.4,1.5,0.4,3,0.1,4.5
			c-1.1,5.7-4.5,9.8-9.3,12.8c-1.9,1.2-4.1,1.9-6.2,0.6c-1.3-0.8-1.8-0.4-2,0.9c-0.1,0.8-0.7,1.5-0.5,2.5c0.9-0.1,1-1.2,2.1-1.1
			c2.9,0.3,6,2.6,7,5.5c1.2,3.4,2.3,6.9,3.8,10.3c1.2,2.8,2.3,5.9,6.1,6.4c0.5,0.1,0.9,0.4,1.3,0.7c2.4,1.6,2.5,2,0.5,4
			c-9.2,8.9-18.7,17.5-28.8,25.4c-1.5,1.2-3.2,2.3-5,2.9c-2.9,1-5.5,0.7-7.9-1.3c-3.1-2.7-4.2-8.1-2.4-12.2c0.9,1.5,1.7,2.9,2.7,4.4
			c0.9-1.8,0.1-3.3-0.6-4.5c-2.7-5-1.7-9.1,2.8-12.4c0.1,0,0.1-0.1,0.2-0.2c6.2-5.9,10.6-13,14.4-20.5c0.1-0.3,0.3-0.6-0.3-0.9
			c-0.7,0.8-1.4,1.6-2.2,2.4c-7.2,6.7-15.4,12-25,14.5C372.8,223.2,369.7,221.9,365.7,215.8z M378.3,292.1c0-6.2,0-12.3,0-18.5
			c0-5.2,0-10.5,0.1-15.8c0-0.7-0.1-1.8,0.9-1.8c1.1-0.1,1.6,0.8,1.8,1.8c0.1,0.6,0.1,1.2,0.1,1.8v17h0.1c0,4.4,0,8.8,0,13.2v4
			c0,0.8,0,1.7-0.2,2.5c-0.1,0.6-0.5,1.1-1.2,1.2c-0.8,0.1-1.3-0.4-1.5-1.1c-0.2-0.7-0.2-1.5-0.2-2.2V292.1z M397.3,351.1
			c-0.5,0.5,0.6,2.1-1.1,2.1c-1.1,0-2.6-0.5-2.7-1.9c-0.1-1.6,1.6-1.4,2.7-1.6C397.2,349.5,397.5,350,397.3,351.1z M385.7,317.3
			c0-0.7,0.9-0.6,1.5-0.7c4.8-0.3,9.6-0.6,14.5-0.8c2.3-0.1,3.9,1.2,5,3.2c2.8,5.1,5.7,10.2,8.6,15.3c2.3,4.1,4.4,8.3,6.7,12.4
			c-1.2-0.4-1.6-1.4-2.2-2.3c-4.4-7.5-8.9-15-13.3-22.5c-1.7-3-4-4.3-7.5-4.1c-3.9,0.2-7.8,0.2-11.7,0.2
			C386.6,318,385.6,318.4,385.7,317.3z M363.2,313.3c2.5-0.7,4.9-1.1,7.5-1c0.5,0,0.9,0.3,0.9,0.7c0,0.6-0.6,0.7-1.1,0.7
			C368.1,313.9,365.6,314,363.2,313.3z M354.4,317.3c0.3-0.7,1.2-0.3,1.8-0.3c-0.4,0.6-1.8,0-1.5,1.1c0.1,0.7,1,0.8,1.7,0.9
			c0.5,0.1,1.2-0.2,1.4,0.8c-1.2,0-2.4,0.9-3.3-0.3C354.1,319,354.2,317.9,354.4,317.3z M333.4,319.1c1-0.1,2-0.2,3-0.2
			c0.6-0.1,1.2-0.1,1.8-0.1c0.7,0,1.3-0.1,2-0.1c1.5-0.1,3-0.2,4.5-0.2c2.4-0.1,4.8-0.2,7.2-0.2c0,0.3,0,0.7,0.1,1
			c-2.9,0.1-5.8,0.3-8.7,0.4h0c-3.3,0.2-6.5,0.3-9.8,0.5C333.4,319.7,333.4,319.4,333.4,319.1z M267.7,299.7c0.6,0.1,0.7,0.7,1,1
			c3.1,4.1,7.3,5.2,12,3.1c9.9-4.3,14.3-19.4,8.3-28.6c4.6,3.1,9.6,5.8,13.7,9.5c8.8,7.7,10.6,23.4,4.1,34
			c-5.1,8.5-11.3,10-18.4,6.9c-2.1-0.9-4.3-1.5-6.1-3c-1.6-1.3-2.8-2.8-3.5-5c6.8,1.5,12.1-0.5,16.5-5.4c4-4.4,6.7-12.4,5.5-16.7
			c-1.1,5-2.4,9.7-5.5,13.7c-4,5.3-9.8,7.6-15.1,5.8C273.5,312.8,267.8,305.8,267.7,299.7z"/>
		<path d="M415.6,253.4c12.6-8.7,26.3-15.1,41-19.4C442.3,239.2,428.9,246.2,415.6,253.4z"/>
		<path d="M378.2,226.2c-1.1,3.2-2.2,6.1-3.3,9.3C373.4,232.3,374.8,228.4,378.2,226.2z"/>
		<path d="M379.5,175.2c-0.6-0.4-1.1,0.9-1.8,0.2c0.8-2.1,1.9-3.9,4.4-3.8c3.6,0.1,6.5,1.5,9.2,4.4c-1.9,0.4-3-0.5-4.4-0.6
			c-0.1,3.8-1.1,5.3-3.4,5.3C381.2,180.6,379.9,178.8,379.5,175.2z"/>
		<path d="M376.9,166.9c-1.2,0.4-2.9,0.8-3.4-1.1c-0.5-2,1.1-2.5,2.5-2.7c3.1-0.5,6.2-0.9,9.4-0.5c3.4,0.4,6.5,1.5,8.7,5
			c-0.9-0.1-1.4,0-1.7-0.2C387.3,164.8,382.2,165.2,376.9,166.9z"/>
		<path d="M416.7,182.3c-0.5-3.2,1.1-6.3,4-7.6c2.8-1.2,5.1,0.3,5.2,3.8c-0.8-0.7-1.4-1.4-2.1-1.8c-1.6-0.9-2.7,0.2-3.7,1.2
			c-0.7,0.7-1.1,1.4-0.2,2.4c2.6,3,1.1,6.9-2.9,7.7c-0.5,0.1-1,0.2-1.5-0.2c-0.7-0.6,0-1.1,0.2-1.6C416.5,185,417,183.7,416.7,182.3
			z"/>
		<path d="M383.9,198c0.7,0.7,0,1-0.3,1.4c-4.1,4.9-13.6,6.6-17.8,3.8c0.9-1.1,1.9-0.7,2.9-0.6c5.3,0.5,10.1-0.5,14-4.4
			C383.1,197.9,383.3,197.5,383.9,198z"/>
		<path d="M208.1,247.7c0.2-1.2,1.1-3.1,4.3-3.1c0.2,0,0.5,0,0.7,0c1.1,0.1,2.2,0.1,3.2,0.1c6.7,0,13.8-0.9,22.4-3
			c0.9-0.2,1.7-0.3,2.5-0.3c2.2,0,4.4,0.8,6.3,2.3c1.8,1.4,3.3,2.9,4.8,4.4c0.5,0.5,1,1,1.5,1.5c1.6,1.6,3.2,3.2,4.7,4.8
			c6,6.2,11.7,12.1,19.3,16c2.2,1.1,4.4,2.4,6.5,3.7c1.1,0.7,2.2,1.3,3.3,2c1.6,0.9,2.6,2.2,2.9,3.9c1,5.6,0.2,10.8-2.5,15.4
			c-2.3,4-6.2,6.4-10.5,6.4c-3.1,0-6.1-1.3-8.4-3.6c-3.4-3.3-6.6-6.8-9.7-10.2c-1.4-1.5-2.8-3-4.2-4.5c-0.3-0.4-0.5-0.8-0.6-1.3
			c-1.2,0.2-2.3,0.3-3.4,0.3c-4.9,0-9.2-2-12.8-6.1c-0.5-0.5-0.9-1-1.4-1.4c-0.2,0.8-0.8,1.3-1.6,1.4c-0.4,0.1-0.9,0.1-1.3,0.1
			c0,0,0,0,0,0c-2.9,0-4.6-1.8-6.1-3.3l-0.2-0.2c-0.6-0.6-0.7-1.6-0.3-2.4c0-0.1,0.1-0.1,0.1-0.2c-1-0.4-1.9-0.8-2.7-1.1
			c-2.1-1-4.4-2.3-6-4.7c-0.8-1.2-1-2.3-0.8-3.4c0.2-0.7,0.6-1.6,1.9-2.3c0.7-0.4,1.6-0.6,2.4-0.6c1.1,0,2.2,0.4,3.1,1
			c0,0,0,0,0.1,0c-0.1-0.3-0.2-0.6-0.2-0.9c0-0.7,0.3-1.3,0.8-1.7c0.3-0.2,0.6-0.5,0.9-0.6c0.5-0.3,0.9-0.6,1.1-0.9
			c0.1-0.1,0.2-0.2,0.4-0.4c-0.6,0-1.2,0.1-1.9,0.1c-1.7,0-3.3-0.2-4.9-0.3c-1.6-0.1-3.1-0.3-4.6-0.3c-0.3,0-0.6,0-0.9,0
			c-0.1,0-0.2,0-0.3,0c-1.6,0-3.3-0.5-5.2-1.7C210,252.1,207.5,250.6,208.1,247.7z"/>
		<g>
			<path class="st2" d="M229.2,271.6c2.4,0.4,3.7,1.8,5.7,2.9C232.2,274.9,230.9,273.3,229.2,271.6z"/>
			<path class="st2" d="M210.1,248c0.3-1.5,1.6-1.5,2.8-1.5c8.9,0.4,17.6-0.9,26.2-2.9c2.7-0.6,5-0.1,7.2,1.6
				c2.2,1.7,4.1,3.8,6.1,5.8c7.7,7.6,14.6,16.1,24.5,21.1c3.3,1.7,6.4,3.8,9.7,5.6c1,0.6,1.7,1.3,1.9,2.5c0.9,4.9,0.3,9.6-2.3,14
				c-3.5,6-10.8,7.2-15.8,2.4c-4.8-4.7-9.2-9.7-13.8-14.6c1.1-0.9,2.4-1.1,3.2-2.2c-1.4-1.1-2.9-0.3-4.1,0c-6.3,1.6-11.5,0-15.9-4.8
				c-2.8-3.1-6.2-5.2-10.3-6.2c-1.3-0.3-2.6-0.8-3.8-1.4c-2-1-3.9-2.1-5.2-4c-0.7-1-0.9-2.1,0.4-2.8c2-1.1,4.4,0.3,4.6,2.8
				c-0.6-3.1,1.4-2.4,2.8-2.1c2.6,0.6,5.2,1.5,7.8,2.2c2.6,0.6,5.3,0.8,7.9-0.7c-3.2,0.2-3.3-1.8-3.4-4.1c-0.1-2-0.3-4.1-1.8-6
				c-1.1,1.6-0.2,3.2-0.8,4.7c-1.1-0.4-1.9-1.2-2.6-2c-1.9-2.4-4.2-3.1-7.2-2.8c-4.1,0.3-8.2-0.7-12.3-0.5c-1.5,0.1-3-0.6-4.3-1.4
				C210.8,250.2,209.8,249.4,210.1,248z"/>
			<path class="st2" d="M232.2,256.2c0.6,0.6,1.9,1.2,1.6,2.1c-0.4,1.1-1.7,1.3-2.8,1.2c-1-0.1-2-0.2-3.6-1.2
				c0.9-0.7,1.7-1.1,2.3-1.7C230.4,255.8,231.2,255.2,232.2,256.2z"/>
		</g>
	</g>
</g>
</svg>
