<?xml version="1.0" encoding="utf-8"?>
<!-- Generator: Adobe Illustrator 24.3.0, SVG Export Plug-In . SVG Version: 6.00 Build 0)  -->
<svg version="1.1" id="Layer_1" xmlns="http://www.w3.org/2000/svg" xmlns:xlink="http://www.w3.org/1999/xlink" x="0px" y="0px"
	 width="167px" height="167px" viewBox="0 0 167 167" style="enable-background:new 0 0 167 167;" xml:space="preserve">
<style type="text/css">
	.st0{fill:#00B0FB;}
	.st1{fill:#00B0FB;fill-opacity:0.4;}
	.st2{fill:#FFFFFF;}
	.st3{fill:none;}
	.st4{fill:#001135;}
	.st5{fill:#3C7CFF;}
	.st6{fill:#3C7CFF;stroke:#001135;stroke-width:0.7602;stroke-miterlimit:10;}
	.st7{fill:#DBDBDB;}
	.st8{fill:#B9B9B9;}
	.st9{fill:#080808;}
	.st10{fill:#060606;}
	.st11{fill:#070707;}
	.st12{fill:#121212;}
	.st13{fill:#111111;}
	.st14{fill:#090909;}
	.st15{fill:#FDFDFD;}
	.st16{fill:#F9F9F9;}
	.st17{fill:#F3F2F3;}
	.st18{fill:#FAFAFA;}
	.st19{fill:#0A0A0A;}
	.st20{fill:#EEEEEE;}
	.st21{fill:#0D0D0D;}
	.st22{fill:#0C0C0C;}
	.st23{fill:#0E0E0E;}
	.st24{fill:#050505;}
	.st25{fill:#3A3A3A;}
	.st26{fill:#525252;}
	.st27{fill:#474747;}
	.st28{fill:#1E1E1E;}
	.st29{fill:#1D1D1D;}
	.st30{fill:#222222;}
	.st31{fill:#494949;}
	.st32{fill:#585858;}
	.st33{fill:#EDEDED;}
	.st34{fill:#F0F0F0;}
	.st35{fill:#EAEAEA;}
	.st36{fill:#EAE9EA;}
	.st37{fill:#040404;}
	.st38{fill:#F4F3F4;}
	.st39{fill:#030303;}
	.st40{fill:#E8E8E8;}
	.st41{fill:#0C0C0B;}
	.st42{fill:#0D0D0C;}
	.st43{fill:#919191;}
	.st44{fill:#909090;}
	.st45{fill:#0E0E0D;}
	.st46{fill:#0C0D0C;}
	.st47{fill:#090908;}
	.st48{fill:#141414;}
	.st49{fill:#4C4D4D;}
	.st50{fill:#737474;}
	.st51{fill:#242424;}
	.st52{fill:#202020;}
	.st53{fill:#101010;}
	.st54{fill:#0D0E0D;}
	.st55{fill:#111212;}
	.st56{fill:#0B0B0B;}
	.st57{fill:#0D0C0C;}
	.st58{fill:#E7E7E7;}
	.st59{fill:#272727;}
	.st60{fill:#2E2E2E;}
	.st61{fill:#1F1E1E;}
	.st62{fill:#1B1A1A;}
	.st63{fill:#E6E6E6;}
	.st64{fill:#0F0E0E;}
	.st65{fill:#F2F2F2;}
	.st66{fill:#F4F3F3;}
	.st67{fill:#F9F8F8;}
	.st68{fill:#F1F1F0;}
	.st69{fill:#F6F6F6;}
	.st70{fill:#F5F6F6;}
	.st71{fill:#F5F5F5;}
	.st72{fill:#2C2C2C;}
	.st73{fill:#252625;}
	.st74{fill:#303030;}
	.st75{fill:#2D2D2C;}
	.st76{fill:#2D2D2D;}
	.st77{fill:#262727;}
	.st78{fill:#191919;}
	.st79{fill:#1B1B1B;}
	.st80{fill:#F7F7F7;}
	.st81{fill:#F6F7F7;}
	.st82{fill:#F9F9FA;}
	.st83{fill:#F4F4F4;}
	.st84{fill:#F8F8F8;}
	.st85{fill:#FCFCFC;}
	.st86{fill:#FBFBFB;}
	.st87{fill:#E2E1E2;}
	.st88{fill:#D8D7D8;}
	.st89{fill:#0F0F0F;}
	.st90{fill:#161616;}
	.st91{fill:#181818;}
	.st92{fill:#131313;}
	.st93{fill-rule:evenodd;clip-rule:evenodd;fill:#00B0FB;}
	.st94{fill:#030302;}
	.st95{fill:#D2D3D3;}
	.st96{fill:#1F1F1F;}
	.st97{fill:#0E0D0E;}
	.st98{fill:#BABBBB;}
	.st99{fill:#8A8A8A;}
	.st100{fill:#8E8F8F;}
	.st101{fill:#464746;}
	.st102{fill:#5F5E5E;}
	.st103{fill:#151414;}
	.st104{fill:#282828;}
	.st105{fill:#030202;}
	.st106{fill:#040403;}
	.st107{fill:#040303;}
	.st108{fill:#202021;}
	.st109{fill:#020202;}
	.st110{fill:#050506;}
	.st111{fill:#010101;}
	.st112{fill:#F3F3F3;}
	.st113{fill:#F1F1F1;}
	.st114{fill:#FAFAF9;}
	.st115{fill:#040504;}
	.st116{fill:#070708;}
	.st117{fill:#131212;}
	.st118{fill:#070808;}
	.st119{fill:#3C3C3C;}
</style>
<g>
	<path class="st1" d="M10.7,119.4c-3.4,0-6.1,2.7-6.1,6.1s2.7,6.1,6.1,6.1c3.4,0,6.1-2.7,6.1-6.1C16.8,122.1,14.1,119.4,10.7,119.4z
		"/>
	<g>
		<path class="st0" d="M31.5,92.1c0.9,0,1.8,0.1,2.7,0.2c0.9-0.1,1.7-0.2,2.6-0.2c1.1,0,2.2,0.1,3.3,0.3c0.1-1,0.3-1.9,0.5-2.8h-5.4
			c-15.7,0-28.5-12.8-28.5-28.5c0-15.7,12.8-28.5,28.5-28.5c0.9,0,1.8,0.1,2.7,0.1c-0.3-0.8-0.5-1.6-0.7-2.4c-1.6,0.5-3.3,0.7-5,0.7
			c-0.4,0-0.8,0-1.2-0.1c-1.4,0.3-2.7,0.5-4.2,0.5c-1.8,0-3.4-0.3-5-0.7C10.1,36,2,47.6,2,61.1C2,76.3,12.2,89.1,26.1,93
			C27.9,92.4,29.7,92.1,31.5,92.1z"/>
		<path class="st1" d="M41.5,150.2c-3.4,0-6.1,2.7-6.1,6.1s2.7,6.1,6.1,6.1s6.1-2.7,6.1-6.1C47.6,152.9,44.9,150.2,41.5,150.2
			C41.5,150.2,41.5,150.2,41.5,150.2z"/>
		<path class="st1" d="M119.4,156.3c0,3.4,2.7,6.1,6.1,6.1s6.1-2.7,6.1-6.1c0-3.4-2.7-6.1-6.1-6.1c0,0,0,0,0,0
			C122.1,150.2,119.4,152.9,119.4,156.3z"/>
		<path class="st1" d="M156.3,119.4c-3.4,0-6.1,2.7-6.1,6.1s2.7,6.1,6.1,6.1c3.4,0,6.1-2.7,6.1-6.1
			C162.4,122.1,159.6,119.4,156.3,119.4z"/>
		<path class="st1" d="M114.3,88.6H52.7c-1.8,0-3.3,1.5-3.3,3.3v11.2c0,1.8,1.5,3.3,3.3,3.3h61.6c1.8,0,3.3-1.5,3.3-3.3V91.9
			C117.6,90.1,116.1,88.6,114.3,88.6z M88.6,99.8H56v-4.6h32.6V99.8z M99.8,99.8h-4.6v-4.6h4.6V99.8z M111,99.8h-4.6v-4.6h4.6V99.8z
			"/>
		<path class="st0" d="M114.3,43.8H52.7c-1.8,0-3.3,1.5-3.3,3.3v11.2c0,1.8,1.5,3.3,3.3,3.3h61.6c1.8,0,3.3-1.5,3.3-3.3V47.1
			C117.6,45.3,116.1,43.8,114.3,43.8z M88.6,55H56v-4.6h32.6V55z M99.8,55h-4.6v-4.6h4.6V55z M111,55h-4.6v-4.6h4.6V55z"/>
		<path class="st1" d="M83.5,144.6c-3.4,0-6.1,2.7-6.1,6.1s2.7,6.1,6.1,6.1s6.1-2.7,6.1-6.1C89.6,147.3,86.8,144.6,83.5,144.6
			C83.5,144.6,83.5,144.6,83.5,144.6z"/>
		<rect x="95.2" y="95.2" class="st2" width="4.6" height="4.6"/>
		<rect x="106.4" y="95.2" class="st2" width="4.6" height="4.6"/>
		<rect x="106.4" y="50.4" class="st2" width="4.6" height="4.6"/>
		<rect x="95.2" y="72.8" class="st2" width="4.6" height="4.6"/>
		<rect x="106.4" y="72.8" class="st2" width="4.6" height="4.6"/>
		<rect x="56" y="95.2" class="st2" width="32.6" height="4.6"/>
		<rect x="56" y="50.4" class="st2" width="32.6" height="4.6"/>
		<rect x="95.2" y="50.4" class="st2" width="4.6" height="4.6"/>
		<rect x="56" y="72.8" class="st2" width="32.6" height="4.6"/>
		<path class="st2" d="M166.6,122.8c-1.2-4.7-5.5-8-10.4-8c-4.9,0-9.1,3.3-10.4,8c-0.1,0.2-0.3,0.4-0.5,0.4h-31.2
			c-0.3,0-0.5-0.2-0.5-0.5v-11.2c0-0.3,0.2-0.5,0.5-0.5c4.4,0,7.9-3.5,7.9-7.9v-8.4c0-0.3,0.2-0.5,0.5-0.5h16.8
			c15.2,0,27.5-12.4,27.5-27.5c0-15.2-12.3-27.5-27.5-27.5c-1.5,0-3,0.1-4.4,0.4c0,0-0.1,0-0.1,0c-0.2,0-0.4-0.1-0.5-0.4
			C128.3,16.1,107.4,0,83.5,0C79,0,74.4,0.6,70,1.8C55.9,5.5,43.8,15,37,27.9c-0.1,0.2-0.3,0.3-0.4,0.3h0c-1.1-0.1-2.3-0.2-3.4-0.2
			C14.8,28,0,42.9,0,61.1s14.8,33.1,33.1,33.1h11.2c0.3,0,0.5,0.2,0.5,0.5v8.4c0,4.4,3.5,7.9,7.9,7.9c0.3,0,0.5,0.2,0.5,0.5v11.2
			c0,0.3-0.2,0.5-0.5,0.5H21.5c-0.2,0-0.4-0.2-0.5-0.4c-1.2-4.7-5.5-8-10.4-8c-0.9,0-1.8,0.1-2.7,0.3c-5.7,1.5-9.1,7.3-7.7,13
			c1.2,4.7,5.5,8,10.4,8c0.9,0,1.8-0.1,2.7-0.4c3.8-1,6.7-3.9,7.7-7.7c0-0.2,0.2-0.4,0.5-0.4h34c1.3,0,2.3-1,2.3-2.3v-14
			c0-0.3,0.2-0.5,0.5-0.5h5.6c0.3,0,0.5,0.2,0.5,0.5v22.4c0,0.3-0.2,0.5-0.5,0.5H41.5c-1.3,0-2.3,1-2.3,2.3v8.8
			c0,0.2-0.2,0.4-0.4,0.5c-5.7,1.5-9.2,7.3-7.7,13c1.2,4.7,5.5,8,10.4,8c0.9,0,1.8-0.1,2.7-0.3c2.8-0.7,5.1-2.5,6.5-4.9
			c1.5-2.5,1.9-5.3,1.1-8.1c-1-3.8-3.9-6.7-7.7-7.7c-0.2-0.1-0.4-0.3-0.4-0.5v-6c0-0.3,0.2-0.5,0.5-0.5h22.4c1.3,0,2.3-1,2.3-2.3
			v-25.2c0-0.3,0.2-0.5,0.5-0.5h11.2c0.3,0,0.5,0.2,0.5,0.5v28.3c0,0.2-0.2,0.4-0.4,0.5c-5.7,1.5-9.2,7.3-7.7,13
			c1.2,4.7,5.5,8,10.3,8c0.9,0,1.8-0.1,2.7-0.3c5.7-1.5,9.2-7.3,7.7-13c-1-3.8-3.9-6.7-7.7-7.7c-0.2-0.1-0.4-0.2-0.4-0.5v-28.3
			c0-0.3,0.2-0.5,0.5-0.5h11.2c0.3,0,0.5,0.2,0.5,0.5v25.2c0,1.3,1,2.3,2.3,2.3h22.4c0.3,0,0.5,0.2,0.5,0.5v6c0,0.2-0.2,0.4-0.4,0.5
			c-5.7,1.5-9.2,7.3-7.7,13c1.2,4.7,5.5,8,10.3,8c0.9,0,1.8-0.1,2.7-0.3c2.8-0.7,5.1-2.5,6.5-4.9c1.4-2.5,1.9-5.3,1.1-8.1
			c-1-3.8-3.9-6.7-7.7-7.7c-0.2-0.1-0.4-0.3-0.4-0.5v-8.8c0-1.3-1-2.3-2.3-2.3h-22.4c-0.3,0-0.5-0.2-0.5-0.5v-22.4
			c0-0.3,0.2-0.5,0.5-0.5h5.6c0.3,0,0.5,0.2,0.5,0.5v14c0,1.3,1,2.3,2.3,2.3h34c0.2,0,0.4,0.2,0.5,0.4c1.2,4.7,5.5,8,10.3,8
			c0.9,0,1.8-0.1,2.7-0.4c2.8-0.7,5.1-2.5,6.5-4.9C167,128.5,167.3,125.6,166.6,122.8z M10.7,131.6c-3.4,0-6.1-2.7-6.1-6.1
			c0-3.4,2.7-6.1,6.1-6.1c3.4,0,6.1,2.7,6.1,6.1C16.8,128.9,14.1,131.6,10.7,131.6z M47.6,156.3c0,3.4-2.7,6.1-6.1,6.1
			c-3.4,0-6.1-2.7-6.1-6.1s2.7-6.1,6.1-6.1c0,0,0,0,0,0C44.8,150.2,47.6,152.9,47.6,156.3z M125.5,150.2c3.3,0,6.1,2.7,6.1,6.1
			s-2.7,6.1-6.1,6.1c-3.4,0-6.1-2.7-6.1-6.1S122.1,150.2,125.5,150.2C125.5,150.2,125.5,150.2,125.5,150.2z M117.6,80.7
			c0,1.8-1.5,3.3-3.3,3.3H52.7c-1.8,0-3.3-1.5-3.3-3.3V69.5c0-1.8,1.5-3.3,3.3-3.3h61.6c1.8,0,3.3,1.5,3.3,3.3V80.7z M117.6,58.3
			c0,1.8-1.5,3.3-3.3,3.3H52.7c-1.8,0-3.3-1.5-3.3-3.3V47.1c0-1.8,1.5-3.3,3.3-3.3h61.6c1.8,0,3.3,1.5,3.3,3.3V58.3z M44.8,47.1
			v11.2c0,2,0.7,3.8,2,5.3c0.2,0.2,0.2,0.5,0,0.7c-1.3,1.4-2,3.3-2,5.3v11.2c0,1.9,0.7,3.8,2,5.3c0.2,0.2,0.2,0.5,0,0.7
			c-0.7,0.8-1.2,1.7-1.6,2.6c-0.1,0.2-0.3,0.3-0.5,0.3H33.1c-15.7,0-28.5-12.8-28.5-28.5c0-15.7,12.8-28.5,28.5-28.5
			c1.6,0,3.1,0.1,4.7,0.4c0.1,0,0.2,0,0.4,0c0.9,0,1.7-0.5,2.1-1.3c8-16.5,25-27.1,43.3-27.1c7.3,0,14.4,1.6,21,4.8
			c13.3,6.5,23.1,19,26.1,33.4c0.2,1.1,1.2,1.8,2.2,1.8c0.2,0,0.3,0,0.5-0.1l0.2,0c2-0.5,4-0.8,6-0.8c10.3,0,19.4,6.9,22.1,16.9
			c3.3,12.2-3.9,24.8-16,28.1c-2,0.5-4,0.8-6,0.8h-17.3c-0.2,0-0.4-0.1-0.5-0.3c-0.3-1-0.9-1.9-1.6-2.6c-0.2-0.2-0.2-0.5,0-0.7
			c1.3-1.4,2-3.3,2-5.3V69.5c0-2-0.7-3.8-2-5.3c-0.2-0.2-0.2-0.5,0-0.7c1.3-1.5,2-3.3,2-5.3V47.1c0-4.3-3.5-7.9-7.9-7.9H52.7
			C48.3,39.2,44.8,42.8,44.8,47.1z M87.8,146.4c1.1,1.1,1.8,2.6,1.8,4.3c0,3.4-2.7,6.1-6.1,6.1s-6.1-2.7-6.1-6.1
			c0-3.4,2.7-6.1,6.1-6.1C85.2,144.6,86.7,145.3,87.8,146.4z M52.7,106.4c-1.8,0-3.3-1.5-3.3-3.3V91.9c0-1.8,1.5-3.3,3.3-3.3h61.6
			c1.8,0,3.3,1.5,3.3,3.3v11.2c0,1.8-1.5,3.3-3.3,3.3H52.7z M156.3,131.6c-3.4,0-6.1-2.7-6.1-6.1c0-3.4,2.7-6.1,6.1-6.1
			s6.1,2.7,6.1,6.1C162.4,128.9,159.6,131.6,156.3,131.6z"/>
	</g>
</g>
</svg>
