<?xml version="1.0" encoding="utf-8"?>
<!-- Generator: Adobe Illustrator 24.3.0, SVG Export Plug-In . SVG Version: 6.00 Build 0)  -->
<svg version="1.1" id="Layer_1" xmlns="http://www.w3.org/2000/svg" xmlns:xlink="http://www.w3.org/1999/xlink" x="0px" y="0px"
	 width="168px" height="168px" viewBox="0 0 168 168" style="enable-background:new 0 0 168 168;" xml:space="preserve">
<style type="text/css">
	.st0{fill:#00B0FB;}
	.st1{fill:#00B0FB;fill-opacity:0.4;}
	.st2{fill:#FFFFFF;}
	.st3{fill:none;}
	.st4{fill:#001135;}
	.st5{fill:#3C7CFF;}
	.st6{fill:#3C7CFF;stroke:#001135;stroke-width:0.7602;stroke-miterlimit:10;}
	.st7{fill:#DBDBDB;}
	.st8{fill:#B9B9B9;}
	.st9{fill:#080808;}
	.st10{fill:#060606;}
	.st11{fill:#070707;}
	.st12{fill:#121212;}
	.st13{fill:#111111;}
	.st14{fill:#090909;}
	.st15{fill:#FDFDFD;}
	.st16{fill:#F9F9F9;}
	.st17{fill:#F3F2F3;}
	.st18{fill:#FAFAFA;}
	.st19{fill:#0A0A0A;}
	.st20{fill:#EEEEEE;}
	.st21{fill:#0D0D0D;}
	.st22{fill:#0C0C0C;}
	.st23{fill:#0E0E0E;}
	.st24{fill:#050505;}
	.st25{fill:#3A3A3A;}
	.st26{fill:#525252;}
	.st27{fill:#474747;}
	.st28{fill:#1E1E1E;}
	.st29{fill:#1D1D1D;}
	.st30{fill:#222222;}
	.st31{fill:#494949;}
	.st32{fill:#585858;}
	.st33{fill:#EDEDED;}
	.st34{fill:#F0F0F0;}
	.st35{fill:#EAEAEA;}
	.st36{fill:#EAE9EA;}
	.st37{fill:#040404;}
	.st38{fill:#F4F3F4;}
	.st39{fill:#030303;}
	.st40{fill:#E8E8E8;}
	.st41{fill:#0C0C0B;}
	.st42{fill:#0D0D0C;}
	.st43{fill:#919191;}
	.st44{fill:#909090;}
	.st45{fill:#0E0E0D;}
	.st46{fill:#0C0D0C;}
	.st47{fill:#090908;}
	.st48{fill:#141414;}
	.st49{fill:#4C4D4D;}
	.st50{fill:#737474;}
	.st51{fill:#242424;}
	.st52{fill:#202020;}
	.st53{fill:#101010;}
	.st54{fill:#0D0E0D;}
	.st55{fill:#111212;}
	.st56{fill:#0B0B0B;}
	.st57{fill:#0D0C0C;}
	.st58{fill:#E7E7E7;}
	.st59{fill:#272727;}
	.st60{fill:#2E2E2E;}
	.st61{fill:#1F1E1E;}
	.st62{fill:#1B1A1A;}
	.st63{fill:#E6E6E6;}
	.st64{fill:#0F0E0E;}
	.st65{fill:#F2F2F2;}
	.st66{fill:#F4F3F3;}
	.st67{fill:#F9F8F8;}
	.st68{fill:#F1F1F0;}
	.st69{fill:#F6F6F6;}
	.st70{fill:#F5F6F6;}
	.st71{fill:#F5F5F5;}
	.st72{fill:#2C2C2C;}
	.st73{fill:#252625;}
	.st74{fill:#303030;}
	.st75{fill:#2D2D2C;}
	.st76{fill:#2D2D2D;}
	.st77{fill:#262727;}
	.st78{fill:#191919;}
	.st79{fill:#1B1B1B;}
	.st80{fill:#F7F7F7;}
	.st81{fill:#F6F7F7;}
	.st82{fill:#F9F9FA;}
	.st83{fill:#F4F4F4;}
	.st84{fill:#F8F8F8;}
	.st85{fill:#FCFCFC;}
	.st86{fill:#FBFBFB;}
	.st87{fill:#E2E1E2;}
	.st88{fill:#D8D7D8;}
	.st89{fill:#0F0F0F;}
	.st90{fill:#161616;}
	.st91{fill:#181818;}
	.st92{fill:#131313;}
	.st93{fill-rule:evenodd;clip-rule:evenodd;fill:#00B0FB;}
	.st94{fill:#030302;}
	.st95{fill:#D2D3D3;}
	.st96{fill:#1F1F1F;}
	.st97{fill:#0E0D0E;}
	.st98{fill:#BABBBB;}
	.st99{fill:#8A8A8A;}
	.st100{fill:#8E8F8F;}
	.st101{fill:#464746;}
	.st102{fill:#5F5E5E;}
	.st103{fill:#151414;}
	.st104{fill:#282828;}
	.st105{fill:#030202;}
	.st106{fill:#040403;}
	.st107{fill:#040303;}
	.st108{fill:#202021;}
	.st109{fill:#020202;}
	.st110{fill:#050506;}
	.st111{fill:#010101;}
	.st112{fill:#F3F3F3;}
	.st113{fill:#F1F1F1;}
	.st114{fill:#FAFAF9;}
	.st115{fill:#040504;}
	.st116{fill:#070708;}
	.st117{fill:#131212;}
	.st118{fill:#070808;}
	.st119{fill:#3C3C3C;}
</style>
<g>
	<path class="st0" d="M84,2c-4.7,0-9.4,0.7-13.9,2.1C57.4,8,47.1,17,41.4,28.8c0.3,1.2,0.4,2.4,0.5,3.7c0.2,4.3-1.4,8.4-4.1,11.7
		c1.3,1,1.5,2.5,2.5,3.8c0.1-3,1.4-6.2,2.1-9.1C47.2,19.8,64.3,6.4,84,6.4c3.5,0,7,0.4,10.5,1.3c13.9,3.5,25,13.5,29.8,27
		c1.4-0.6,2.8-1,4.3-1.3C121.9,14.5,104.3,2,84,2z"/>
	<path class="st0" d="M115,71.8H53c-0.5,0-0.9,0.4-0.9,0.9V84c0,0.5,0.4,0.9,0.9,0.9h62c0.5,0,0.9-0.4,0.9-0.9V72.7
		C115.9,72.2,115.5,71.8,115,71.8z M63.4,79.7c0,0.3-0.3,0.6-0.6,0.6h-2.6c-0.3,0-0.6-0.3-0.6-0.6V77c0-0.3,0.3-0.6,0.6-0.6h2.6
		c0.3,0,0.6,0.3,0.6,0.6V79.7z M74.7,79.7c0,0.3-0.3,0.6-0.6,0.6h-2.6c-0.3,0-0.6-0.3-0.6-0.6V77c0-0.3,0.3-0.6,0.6-0.6h2.6
		c0.3,0,0.6,0.3,0.6,0.6V79.7z M85.9,79.7c0,0.3-0.3,0.6-0.6,0.6h-2.6c-0.3,0-0.6-0.3-0.6-0.6V77c0-0.3,0.3-0.6,0.6-0.6h2.6
		c0.3,0,0.6,0.3,0.6,0.6V79.7z M108.5,79.7c0,0.3-0.3,0.6-0.6,0.6H94c-0.3,0-0.6-0.3-0.6-0.6V77c0-0.3,0.3-0.6,0.6-0.6h13.9
		c0.3,0,0.6,0.3,0.6,0.6V79.7z"/>
	<path class="st0" d="M115,122.6H53c-0.5,0-0.9,0.4-0.9,0.9v11.3c0,0.5,0.4,0.9,0.9,0.9h62c0.5,0,0.9-0.4,0.9-0.9v-11.3
		C115.9,123,115.5,122.6,115,122.6z M63.4,130.4c0,0.3-0.3,0.6-0.6,0.6h-2.6c-0.3,0-0.6-0.3-0.6-0.6v-2.6c0-0.3,0.3-0.6,0.6-0.6h2.6
		c0.3,0,0.6,0.3,0.6,0.6V130.4z M74.7,130.4c0,0.3-0.3,0.6-0.6,0.6h-2.6c-0.3,0-0.6-0.3-0.6-0.6v-2.6c0-0.3,0.3-0.6,0.6-0.6h2.6
		c0.3,0,0.6,0.3,0.6,0.6V130.4z M85.9,130.4c0,0.3-0.3,0.6-0.6,0.6h-2.6c-0.3,0-0.6-0.3-0.6-0.6v-2.6c0-0.3,0.3-0.6,0.6-0.6h2.6
		c0.3,0,0.6,0.3,0.6,0.6V130.4z M108.5,130.4c0,0.3-0.3,0.6-0.6,0.6H94c-0.3,0-0.6-0.3-0.6-0.6v-2.6c0-0.3,0.3-0.6,0.6-0.6h13.9
		c0.3,0,0.6,0.3,0.6,0.6V130.4z"/>
	<path class="st1" d="M80.6,160.1c0,1.9,1.5,3.4,3.4,3.4c1.9,0,3.4-1.5,3.4-3.4s-1.5-3.4-3.4-3.4C82.1,156.7,80.6,158.3,80.6,160.1z
		"/>
	<path class="st1" d="M31,117.8V58.6c0-0.3-0.3-0.6-0.6-0.6h-5.6c-0.3,0-0.6,0.3-0.6,0.6v59.2c0,1.2-1,2.2-2.2,2.2h-3
		c-0.2,0-0.4,0.1-0.5,0.3c-0.1,0.2-0.1,0.4,0,0.6l8.6,12.1c0.1,0.1,0.3,0.2,0.5,0.2s0.4-0.1,0.5-0.2l8.6-12.1c0.1-0.2,0.2-0.4,0-0.6
		c-0.1-0.2-0.3-0.3-0.5-0.3h-3C32,120.1,31,119.1,31,117.8z"/>
	<path class="st1" d="M149.6,73c0.1-0.2,0.1-0.4,0-0.6l-8.6-12.1c-0.1-0.2-0.3-0.3-0.5-0.3s-0.4,0.1-0.5,0.2l-8.6,12.1
		c-0.1,0.2-0.2,0.4,0,0.6c0.1,0.2,0.3,0.3,0.5,0.3h3c1.2,0,2.2,1,2.2,2.2v59.2c0,0.3,0.3,0.6,0.6,0.6h5.6c0.3,0,0.6-0.3,0.6-0.6
		V75.5c0-1.2,1-2.2,2.2-2.2h3C149.2,73.3,149.5,73.2,149.6,73z"/>
	<path class="st2" d="M60.2,131h2.6c0.3,0,0.6-0.3,0.6-0.6v-2.6c0-0.3-0.3-0.6-0.6-0.6h-2.6c-0.3,0-0.6,0.3-0.6,0.6v2.6
		C59.6,130.8,59.8,131,60.2,131z"/>
	<path class="st2" d="M74.7,102.4v2.6c0,0.3-0.3,0.6-0.6,0.6h-2.6c-0.3,0-0.6-0.3-0.6-0.6v-2.6c0-0.3,0.3-0.6,0.6-0.6h2.6
		C74.4,101.8,74.7,102.1,74.7,102.4z"/>
	<path class="st2" d="M108.5,102.4v2.6c0,0.3-0.3,0.6-0.6,0.6H94c-0.3,0-0.6-0.3-0.6-0.6v-2.6c0-0.3,0.3-0.6,0.6-0.6h13.9
		C108.2,101.8,108.5,102.1,108.5,102.4z"/>
	<path class="st2" d="M63.4,102.4v2.6c0,0.3-0.3,0.6-0.6,0.6h-2.6c-0.3,0-0.6-0.3-0.6-0.6v-2.6c0-0.3,0.3-0.6,0.6-0.6h2.6
		C63.1,101.8,63.4,102.1,63.4,102.4z"/>
	<path class="st2" d="M85.9,102.4v2.6c0,0.3-0.3,0.6-0.6,0.6h-2.6c-0.3,0-0.6-0.3-0.6-0.6v-2.6c0-0.3,0.3-0.6,0.6-0.6h2.6
		C85.7,101.8,85.9,102.1,85.9,102.4z"/>
	<path class="st2" d="M62.8,76.5h-2.6c-0.3,0-0.6,0.3-0.6,0.6v2.6c0,0.3,0.3,0.6,0.6,0.6h2.6c0.3,0,0.6-0.3,0.6-0.6v-2.6
		C63.4,76.7,63.1,76.5,62.8,76.5z"/>
	<path class="st2" d="M94,131h13.9c0.3,0,0.6-0.3,0.6-0.6v-2.6c0-0.3-0.3-0.6-0.6-0.6H94c-0.3,0-0.6,0.3-0.6,0.6v2.6
		C93.4,130.8,93.7,131,94,131z"/>
	<path class="st2" d="M71.4,131h2.6c0.3,0,0.6-0.3,0.6-0.6v-2.6c0-0.3-0.3-0.6-0.6-0.6h-2.6c-0.3,0-0.6,0.3-0.6,0.6v2.6
		C70.8,130.8,71.1,131,71.4,131z"/>
	<path class="st2" d="M82.7,131h2.6c0.3,0,0.6-0.3,0.6-0.6v-2.6c0-0.3-0.3-0.6-0.6-0.6h-2.6c-0.3,0-0.6,0.3-0.6,0.6v2.6
		C82.1,130.8,82.4,131,82.7,131z"/>
	<path class="st2" d="M74.1,76.5h-2.6c-0.3,0-0.6,0.3-0.6,0.6v2.6c0,0.3,0.3,0.6,0.6,0.6h2.6c0.3,0,0.6-0.3,0.6-0.6v-2.6
		C74.7,76.7,74.4,76.5,74.1,76.5z"/>
	<path class="st2" d="M107.9,76.5H94c-0.3,0-0.6,0.3-0.6,0.6v2.6c0,0.3,0.3,0.6,0.6,0.6h13.9c0.3,0,0.6-0.3,0.6-0.6v-2.6
		C108.5,76.7,108.2,76.5,107.9,76.5z"/>
	<path class="st2" d="M85.3,76.5h-2.6c-0.3,0-0.6,0.3-0.6,0.6v2.6c0,0.3,0.3,0.6,0.6,0.6h2.6c0.3,0,0.6-0.3,0.6-0.6v-2.6
		C85.9,76.7,85.7,76.5,85.3,76.5z"/>
	<path class="st2" d="M165.8,157.9H92.6c-0.1,0-0.3,0-0.6,0.1c-0.3,0-0.5-0.2-0.6-0.4c-0.8-2.3-2.6-4.1-4.9-4.9
		c-0.3-0.1-0.5-0.5-0.4-0.8c0-0.1,0.1-0.2,0.1-0.3v-0.8c0-0.1-0.1-0.2-0.2-0.2c-0.1,0-0.2-0.1-0.2-0.2v-10.2c0-0.5,0.4-0.9,0.9-0.9
		h31c1,0,1.9-0.8,1.9-1.9v-16.9c0-1.1-0.9-1.9-1.9-1.9H115c-0.5,0-0.9-0.4-0.9-0.9V115c0-0.5,0.4-0.9,0.9-0.9h2.8
		c1,0,1.9-0.9,1.9-1.9v-5.6c0-0.2,0.1-0.4,0.2-0.5c0,0,0.1,0,0.1,0c0,0,0.1,0,0.1,0.1h0.2c0.1-0.1,0.2-0.1,0.3-0.1H132
		c0.3,0,0.6,0.3,0.6,0.6v31c0,1.2,1,2.2,2.2,2.2h11.3c1.2,0,2.2-1,2.2-2.2v-35.2c0-0.2,0.1-0.4,0.3-0.5c8.5-4.4,14.8-11.9,17.7-21.1
		c2.9-9.2,2.1-19-2.4-27.5c-6.2-12-18.5-19.4-32-19.4c-0.7,0-1.4,0-2.1,0c-0.3,0-0.5-0.2-0.6-0.4C123.2,13.5,105,0,84,0
		c-4.7,0-9.4,0.7-13.9,2.1c-15,4.6-26.8,16.3-31.4,31.4c-0.1,0.2-0.3,0.4-0.6,0.4c-0.7,0-1.4,0-2.1,0C16.2,33.9,0,50,0,69.9
		c0,13.5,7.5,25.8,19.4,32c0.2,0.1,0.3,0.3,0.3,0.5V115c0,0.3-0.3,0.6-0.6,0.6h-5.6c-1.2,0-2.2,1-2.2,2.2c0,0.5,0.1,0.9,0.4,1.3
		l14.1,19.7c0.4,0.6,1.1,0.9,1.8,0.9c0.5,0,0.9-0.2,1.2-0.4c0.2-0.1,0.4-0.3,0.6-0.5l14.1-19.7c0.7-1,0.5-2.4-0.5-3.1
		c-0.4-0.3-0.8-0.4-1.3-0.4h-5.6c-0.3,0-0.6-0.3-0.6-0.6v-8.5c0-0.3,0.3-0.6,0.6-0.6l11.3,0l0.1-0.1c0,0,0-0.1,0.1-0.1
		c0,0,0,0,0.1,0c0,0,0,0,0.1,0c0.3,0.1,0.5,0.5,0.5,0.8v5.6c0,1,0.9,1.9,1.9,1.9H53c0.5,0,0.9,0.4,0.9,0.9v2.8
		c0,0.5-0.4,0.9-0.9,0.9h-2.8c-1.1,0-1.9,0.9-1.9,1.9v16.9c0,1.1,0.9,1.9,1.9,1.9h31c0.5,0,0.9,0.4,0.9,0.9v10.2
		c0,0.1-0.1,0.2-0.2,0.2s-0.1,0.1-0.1,0.2v0.7c0,0.1,0,0.2,0.1,0.3c0.1,0.1,0.1,0.3,0,0.5c-0.1,0.2-0.2,0.3-0.4,0.3
		c-2.3,0.8-4,2.5-4.9,4.8c-0.1,0.2-0.3,0.4-0.6,0.4H2.2c-1.2,0-2.2,1-2.2,2.2c0,1.2,1,2.2,2.2,2.2h73.8c0.3,0,0.5,0.2,0.6,0.4
		c1.1,3.1,4.1,5.2,7.4,5.2c0.9,0,1.8-0.1,2.6-0.4c2.3-0.8,4.1-2.6,4.8-4.9c0.1-0.2,0.3-0.4,0.5-0.4l0.2,0c0.1,0.1,0.3,0.1,0.4,0.1
		h73.3c1.2,0,2.2-1,2.2-2.2C168,158.9,167,157.9,165.8,157.9z M146.1,73.3c-1.2,0-2.2,1-2.2,2.2v59.2c0,0.3-0.3,0.6-0.6,0.6h-5.6
		c-0.3,0-0.6-0.3-0.6-0.6V75.5c0-1.2-1-2.2-2.2-2.2h-3c-0.2,0-0.4-0.1-0.5-0.3c-0.1-0.2-0.1-0.5,0-0.6l8.6-12.1
		c0.1-0.2,0.3-0.2,0.5-0.2s0.4,0.1,0.5,0.3l8.6,12.1c0.1,0.2,0.2,0.4,0,0.6c-0.1,0.2-0.3,0.3-0.5,0.3H146.1z M36.2,120.1
		c0.2,0,0.4,0.1,0.5,0.3c0.1,0.2,0.1,0.5,0,0.6l-8.6,12.1c-0.1,0.2-0.3,0.2-0.5,0.2s-0.4-0.1-0.5-0.2L18.5,121
		c-0.1-0.2-0.1-0.4,0-0.6c0.1-0.2,0.3-0.3,0.5-0.3h3c1.2,0,2.2-1,2.2-2.2V58.6c0-0.3,0.3-0.6,0.6-0.6h5.6c0.3,0,0.6,0.3,0.6,0.6
		v59.2c0,1.2,1,2.2,2.2,2.2H36.2z M48.3,95.3v5.6c0,0.4-0.2,0.7-0.5,0.8c0,0,0,0-0.1,0c0,0-0.1,0-0.1,0c0,0-0.1,0-0.1-0.1l-0.2-0.1
		H36.1c-0.3,0-0.6-0.3-0.6-0.6V55.8c0-1.2-1-2.2-2.2-2.2H22c-1.2,0-2.2,1-2.2,2.2v40.1c0,0.2-0.1,0.4-0.3,0.5
		c-0.1,0-0.2,0.1-0.3,0.1c-0.1,0-0.2,0-0.3-0.1c-7.1-4.6-12-11.7-13.7-20c-1.8-8.2-0.2-16.7,4.4-23.8c5.9-9,15.8-14.4,26.5-14.4
		c0.1,0,0.3,0,0.5,0c0,0,0.2,0,0.2,0c0.2,0,0.4,0.1,0.5,0.2c0.1,0.1,0.2,0.3,0.1,0.5c-0.5,2.8-0.7,5.6-0.7,8.3c0,1.2,1,2.2,2.2,2.2
		c1.2,0,2.2-1,2.2-2.2c0-3.6,0.4-7.1,1.3-10.5C47.2,17.8,64.3,4.4,84,4.4c3.5,0,7,0.4,10.5,1.3c14.3,3.6,25.6,14.1,30.3,28.2
		c0.1,0.2,0,0.3,0,0.5c-0.1,0.2-0.2,0.3-0.4,0.3c-6.1,1.3-11.7,4.2-16.4,8.4c-0.9,0.8-1,2.2-0.2,3.1c0.4,0.5,1,0.8,1.7,0.8
		c0.5,0,0.9-0.2,1.3-0.4c0,0,0.2-0.1,0.2-0.1c4.8-4.3,10.8-7,17.2-7.8c1.4-0.2,2.7-0.2,4-0.2c15.9,0,29.3,11.9,31.3,27.7
		c1.5,12-4.1,23.9-14.2,30.5c-0.1,0.1-0.2,0.1-0.3,0.1c-0.1,0-0.2,0-0.3-0.1c-0.2-0.1-0.3-0.3-0.3-0.5V78.4c0-0.3,0.3-0.6,0.6-0.6
		h5.6c1.2,0,2.2-1,2.2-2.2c0-0.4-0.1-0.9-0.4-1.3l-14.1-19.7c-0.4-0.5-1.1-0.9-1.8-0.9c-0.5,0-1,0.2-1.5,0.6
		c-0.1,0.1-0.2,0.2-0.3,0.3l-14.1,19.8c-0.3,0.5-0.5,1.1-0.4,1.6c0.1,0.6,0.4,1.1,0.9,1.5c0.4,0.2,0.8,0.4,1.3,0.4h5.6
		c0.3,0,0.6,0.3,0.6,0.6v22.6c0,0.3-0.3,0.6-0.6,0.6h-11.3c-0.1,0-0.2,0-0.3-0.1l-0.2,0c0,0-0.1,0.1-0.1,0.1h0c0,0-0.1,0-0.1-0.1
		c-0.1-0.2-0.2-0.4-0.2-0.5v-5.6c0-1.1-0.9-1.9-1.9-1.9H115c-0.5,0-0.9-0.4-0.9-0.9v-2.8c0-0.5,0.4-0.9,0.9-0.9h2.8
		c1,0,1.9-0.9,1.9-1.9V69.9c0-1-0.9-1.9-1.9-1.9H50.2c-1.1,0-1.9,0.8-1.9,1.9v16.9c0,1,0.9,1.9,1.9,1.9H53c0.5,0,0.9,0.4,0.9,0.9
		v2.8c0,0.5-0.4,0.9-0.9,0.9h-2.8C49.1,93.4,48.3,94.2,48.3,95.3z M53,84.9c-0.5,0-0.9-0.4-0.9-0.9V72.7c0-0.5,0.4-0.9,0.9-0.9h62
		c0.5,0,0.9,0.4,0.9,0.9V84c0,0.5-0.4,0.9-0.9,0.9H53z M110.3,89.6v2.8c0,0.5-0.4,0.9-0.9,0.9H58.6c-0.5,0-0.9-0.4-0.9-0.9v-2.8
		c0-0.5,0.4-0.9,0.9-0.9h50.8C109.9,88.7,110.3,89.1,110.3,89.6z M53,110.3c-0.5,0-0.9-0.4-0.9-0.9V98.1c0-0.5,0.4-0.9,0.9-0.9h62
		c0.5,0,0.9,0.4,0.9,0.9v11.3c0,0.5-0.4,0.9-0.9,0.9H53z M110.3,115v2.8c0,0.5-0.4,0.9-0.9,0.9H58.6c-0.5,0-0.9-0.4-0.9-0.9V115
		c0-0.5,0.4-0.9,0.9-0.9h50.8C109.9,114.1,110.3,114.5,110.3,115z M53,135.7c-0.5,0-0.9-0.4-0.9-0.9v-11.3c0-0.5,0.4-0.9,0.9-0.9h62
		c0.5,0,0.9,0.4,0.9,0.9v11.3c0,0.5-0.4,0.9-0.9,0.9H53z M84,163.6c-1.9,0-3.4-1.5-3.4-3.4c0-1.9,1.5-3.4,3.4-3.4
		c1.9,0,3.4,1.5,3.4,3.4C87.4,162,85.9,163.6,84,163.6z"/>
</g>
</svg>
