<?xml version="1.0" encoding="utf-8"?>
<!-- Generator: Adobe Illustrator 24.3.0, SVG Export Plug-In . SVG Version: 6.00 Build 0)  -->
<svg version="1.1" id="Layer_1" xmlns="http://www.w3.org/2000/svg" xmlns:xlink="http://www.w3.org/1999/xlink" x="0px" y="0px"
	 viewBox="0 0 172.72 168.4" style="enable-background:new 0 0 172.72 168.4;" xml:space="preserve">
<style type="text/css">
	.st0{fill:#00B0FB;}
	.st1{fill:#FFFFFF;}
	.st2{fill:#00B0FB;fill-opacity:0.4;}
	.st3{fill:#00B0FB;fill-opacity:0.4;stroke:#FFFFFF;stroke-width:5;stroke-miterlimit:10;}
	.st4{fill:#FFFFFF;fill-opacity:0.4;}
</style>
<g>
	<path class="st1" d="M132.61,84.44c0,23.57-0.12,47.14,0.08,70.71c0.05,6.09-3.49,11.51-11.45,11.43
		c-23.25-0.23-46.51-0.23-69.76,0c-7.64,0.08-11.47-5-11.45-11.42c0.15-47.3,0.08-94.6,0.08-141.9c0-7.78,3.57-11.36,11.35-11.36
		c23.26-0.01,46.51,0.14,69.76-0.08c7.81-0.08,11.51,5.23,11.46,11.44C132.49,36.98,132.61,60.71,132.61,84.44z M45.42,84.2
		c0,23.57,0,47.14,0,70.7c0,5.12,1.15,6.28,6.21,6.28c23.09,0,46.18,0,69.28,0c5.25,0,6.4-1.14,6.4-6.34c0-46.49,0-92.98,0-139.48
		c0-7.75-0.42-8.17-8.21-8.17c-6.14,0-6.14,0-8.1,5.74c-0.23,0.68-0.51,1.35-0.7,2.05c-0.47,1.71-1.58,2.55-3.33,2.55
		c-13.76,0-27.52,0.01-41.28,0c-1.76,0-2.81-0.92-3.3-2.6c-0.59-2-1.38-3.94-1.89-5.96c-0.34-1.34-0.97-1.85-2.34-1.79
		c-2.25,0.09-4.5,0.02-6.76,0.02c-4.7,0.02-5.97,1.29-5.97,6.05C45.42,36.91,45.42,60.56,45.42,84.2z M106.93,7.43
		c-13.8,0-27.47,0-41.18,0c0.98,4.8,0.98,4.8,5.41,4.8c10.13,0,20.26,0,30.39,0c4.26,0,4.26,0,5.37-4.11
		C106.96,7.98,106.93,7.82,106.93,7.43z"/>
	<path class="st2" d="M106.93,7.43c0,0.38,0.03,0.55-0.01,0.7c-1.11,4.11-1.12,4.11-5.37,4.11c-10.13,0-20.26,0-30.39,0
		c-4.43,0-4.43,0-5.41-4.8C79.46,7.43,93.13,7.43,106.93,7.43z"/>
	<path class="st1" d="M112.02,88.03c-7.74,0-15.11,0-22.74,0c0,2.21-0.13,4.29,0.07,6.34c0.06,0.65,0.89,1.39,1.55,1.78
		c3.59,2.16,5.2,5.45,4.56,9.56c-0.53,3.4-3.42,6.27-7.07,7.01c-4.08,0.83-8.25-1.33-9.87-5.12c-1.69-3.94-0.54-8.71,3.16-10.8
		c2.11-1.19,2.47-2.58,2.31-4.62c-0.11-1.34-0.02-2.69-0.02-4.15c-7.61,0-14.97,0-22.6,0c0,5.67-0.03,11.19,0.06,16.72
		c0.01,0.5,0.75,1.12,1.29,1.44c3.87,2.27,5.76,6.26,4.74,10.15c-1.04,3.95-4.62,6.75-8.66,6.78c-4.08,0.03-7.65-2.71-8.7-6.68
		c-1.07-4.02,0.74-7.91,4.53-10.23c0.69-0.42,1.35-1.52,1.37-2.33c0.12-5.79,0.05-11.58,0.07-17.37c0.01-3.27,0.68-3.92,4-3.93
		c7-0.01,13.99,0,20.99,0c0.87,0,1.75,0,2.71,0c0.38-2.21,0.61-3.77-1.9-4.98c-4.08-1.97-5.73-6.67-4.53-11.14
		c1.07-3.98,5.1-6.98,9.38-6.98c4.51-0.01,8.37,3.01,9.52,7.42c1.07,4.1-0.7,8.79-4.59,10.68c-2.34,1.13-2.76,2.52-2.08,5.01
		c1.26,0,2.6,0,3.95,0c6.68,0,13.35-0.01,20.03,0.01c3.21,0.01,3.8,0.61,3.81,3.84c0.02,5.71,0.03,11.42-0.01,17.13
		c-0.01,1.29,0.17,2.12,1.54,2.83c3.79,1.95,5.5,6.03,4.49,9.97c-1.02,3.99-4.55,6.76-8.63,6.77c-3.97,0.01-7.63-2.74-8.61-6.48
		c-1.09-4.17,0.59-8.08,4.32-10.32c0.65-0.39,1.51-1.14,1.52-1.74C112.07,99.13,112.02,93.67,112.02,88.03z M86.78,64.79
		c-2.5-0.03-4.43,1.87-4.46,4.38c-0.03,2.54,1.83,4.46,4.35,4.49c2.48,0.02,4.47-1.91,4.49-4.38
		C91.19,66.82,89.25,64.83,86.78,64.79z M90.25,103.96c-0.03-2.04-1.44-3.42-3.51-3.43c-2.06-0.01-3.76,1.65-3.68,3.6
		c0.07,1.84,1.78,3.51,3.61,3.53C88.66,107.69,90.28,106.01,90.25,103.96z M58.76,117.78c2.04-0.02,3.61-1.67,3.54-3.74
		c-0.07-1.92-1.67-3.44-3.61-3.42c-1.93,0.02-3.54,1.59-3.59,3.49C55.06,116.1,56.75,117.8,58.76,117.78z M114.67,117.78
		c2.05,0.01,3.64-1.61,3.59-3.68c-0.04-1.96-1.57-3.47-3.54-3.48c-1.94-0.01-3.54,1.5-3.62,3.43
		C111.03,116.08,112.64,117.77,114.67,117.78z"/>
	<path class="st1" d="M113.39,76.81c-2.65,0-5.31,0.06-7.96-0.01c-2.92-0.08-3.84-1.31-3.27-4.16c1.3-6.47-1.24-12.85-6.57-16.46
		c-5.3-3.59-12.2-3.74-17.48-0.13c-5.74,3.92-8.01,9.43-6.88,16.3c0.56,3.38-0.26,4.44-3.71,4.46c-5.15,0.03-10.3,0.03-15.45,0
		c-3.21-0.02-3.93-0.79-3.95-4.03c-0.01-2.41,0.1-4.83-0.03-7.24c-0.11-2.19,0.68-3.67,2.85-4.05c4.84-0.84,4.65-5.39,6.19-8.55
		c0.43-0.88-0.8-2.66-1.44-3.94c-0.8-1.61-0.54-2.91,0.72-4.13c1.84-1.8,3.72-3.57,5.44-5.48c1.54-1.71,3.31-2.18,5.13-0.91
		c4.07,2.85,7.08-0.61,10.39-1.73c0.91-0.31,1.26-2.46,1.75-3.82c0.6-1.66,1.67-2.41,3.46-2.35c2.73,0.08,5.47,0.08,8.2,0
		c1.9-0.06,3.26,0.71,3.53,2.54c0.75,4.97,5.33,4.94,8.55,6.54c0.78,0.39,2.37-0.65,3.49-1.22c2-1,3.62-0.79,5.16,0.93
		c1.61,1.79,3.34,3.49,5.12,5.11c1.61,1.47,2.12,3.14,0.87,4.91c-2.86,4.04,0.51,7.12,1.63,10.46c0.29,0.86,2.32,1.2,3.6,1.64
		c1.85,0.64,2.69,1.82,2.63,3.8c-0.09,2.65,0.01,5.31-0.03,7.96c-0.04,2.58-0.88,3.46-3.5,3.52
		C119.02,76.86,116.21,76.81,113.39,76.81z M119.88,71.35c0.06-0.69,0.09-1.23,0.17-1.77c0.32-2.31-0.16-4.04-2.85-4.51
		c-2.07-0.36-2.98-1.83-3.49-3.81c-0.44-1.69-1.03-3.44-1.97-4.89c-1.42-2.21-1.7-4.27-0.23-6.47c0.96-1.45,0.78-2.61-0.63-3.67
		c-1.45-1.09-2.32-3.53-4.87-1.79c-2.07,1.41-4.12,1.35-6.24-0.14c-1.09-0.77-2.42-1.39-3.73-1.62c-3.13-0.55-4.98-2.2-5.81-5.27
		c-0.17-0.63-1.23-1.26-1.99-1.43c-1.07-0.24-2.26-0.18-3.36-0.01c-0.58,0.09-1.45,0.6-1.55,1.06c-0.8,3.65-3.28,5.25-6.68,5.93
		c-0.84,0.17-1.71,0.55-2.41,1.06c-2.43,1.76-4.85,1.88-7.34,0.21c-1.14-0.77-2.02-0.51-2.86,0.53c-0.65,0.81-1.57,1.42-2.16,2.26
		c-0.34,0.49-0.61,1.49-0.35,1.87c2.17,3.14,1.34,6-0.53,8.88c-0.51,0.79-0.93,1.75-1.05,2.67c-0.4,2.97-2.18,4.5-4.94,5.11
		c-1.24,0.27-1.7,0.96-1.6,2.22c0.09,1.16,0.02,2.34,0.02,3.72c2.26,0,4.17,0,6.09,0c1.98,0,3.96,0,5.94,0
		C64.99,56.42,76.3,48.24,86.32,48.11c5.24-0.07,9.97,1.57,13.99,5c5.57,4.76,7.82,10.97,7.58,18.24
		C111.98,71.35,115.88,71.35,119.88,71.35z"/>
	<path class="st4" d="M86.36,152.75c-2.65,0-5.31,0.08-7.96-0.02c-4.06-0.16-6.92-3.38-6.85-7.57c0.07-4.06,2.91-7.19,6.84-7.27
		c5.3-0.1,10.61-0.1,15.91,0c3.93,0.07,6.76,3.19,6.84,7.26c0.07,4.19-2.77,7.42-6.83,7.58C91.66,152.83,89.01,152.75,86.36,152.75z
		"/>
	<path class="st2" d="M86.35,151.49c-2.41,0-4.83,0.07-7.23-0.02c-3.69-0.13-6.29-2.81-6.22-6.29c0.06-3.38,2.65-5.98,6.22-6.04
		c4.82-0.08,9.65-0.08,14.47,0c3.57,0.06,6.15,2.65,6.22,6.03c0.07,3.48-2.52,6.17-6.21,6.3C91.18,151.56,88.77,151.49,86.35,151.49
		z"/>
	<path class="st0" d="M86.78,64.79c2.47,0.03,4.4,2.02,4.38,4.49c-0.03,2.47-2.01,4.4-4.49,4.38c-2.52-0.03-4.38-1.95-4.35-4.49
		C82.35,66.66,84.29,64.76,86.78,64.79z"/>
	<path class="st0" d="M90.25,103.96c0.03,2.06-1.59,3.73-3.58,3.7c-1.84-0.03-3.54-1.7-3.61-3.53c-0.08-1.95,1.62-3.61,3.68-3.6
		C88.81,100.54,90.22,101.91,90.25,103.96z"/>
	<path class="st0" d="M58.76,117.78c-2.01,0.02-3.71-1.68-3.66-3.67c0.05-1.9,1.66-3.47,3.59-3.49c1.94-0.02,3.54,1.5,3.61,3.42
		C62.38,116.11,60.81,117.76,58.76,117.78z"/>
	<path class="st0" d="M114.67,117.78c-2.03-0.01-3.65-1.7-3.56-3.73c0.08-1.93,1.67-3.45,3.62-3.43c1.96,0.01,3.49,1.52,3.54,3.48
		C118.31,116.17,116.73,117.8,114.67,117.78z"/>
	<path class="st0" d="M119.88,71.35c-4.01,0-7.9,0-12,0c0.23-7.26-2.01-13.48-7.58-18.24c-4.02-3.43-8.75-5.07-13.99-5
		c-10.02,0.13-21.33,8.31-20.85,23.39c-1.98,0-3.96,0-5.94,0c-1.92,0-3.83,0-6.09,0c0-1.38,0.07-2.56-0.02-3.72
		c-0.1-1.26,0.36-1.94,1.6-2.22c2.76-0.61,4.54-2.14,4.94-5.11c0.12-0.93,0.54-1.88,1.05-2.67c1.86-2.88,2.69-5.74,0.53-8.88
		c-0.26-0.38,0.01-1.38,0.35-1.87c0.59-0.84,1.51-1.45,2.16-2.26c0.84-1.04,1.72-1.3,2.86-0.53c2.49,1.67,4.91,1.55,7.34-0.21
		c0.7-0.5,1.57-0.89,2.41-1.06c3.41-0.69,5.89-2.28,6.68-5.93c0.1-0.46,0.97-0.98,1.55-1.06c1.1-0.17,2.29-0.23,3.36,0.01
		c0.76,0.17,1.82,0.8,1.99,1.43c0.83,3.07,2.68,4.72,5.81,5.27c1.3,0.23,2.64,0.86,3.73,1.62c2.12,1.49,4.18,1.55,6.24,0.14
		c2.55-1.74,3.41,0.69,4.87,1.79c1.41,1.06,1.59,2.22,0.63,3.67c-1.46,2.2-1.19,4.26,0.23,6.47c0.94,1.45,1.53,3.2,1.97,4.89
		c0.51,1.98,1.43,3.45,3.49,3.81c2.7,0.47,3.18,2.19,2.85,4.51C119.97,70.12,119.95,70.66,119.88,71.35z"/>
</g>
</svg>
