<?xml version="1.0" encoding="utf-8"?>
<!-- Generator: Adobe Illustrator 24.3.0, SVG Export Plug-In . SVG Version: 6.00 Build 0)  -->
<svg version="1.1" id="Layer_1" xmlns="http://www.w3.org/2000/svg" xmlns:xlink="http://www.w3.org/1999/xlink" x="0px" y="0px"
	 viewBox="0 0 172.72 168.4" style="enable-background:new 0 0 172.72 168.4;" xml:space="preserve">
<style type="text/css">
	.st0{fill:#00B0FB;}
	.st1{fill:#FFFFFF;}
	.st2{fill:#00B0FB;fill-opacity:0.4;}
	.st3{fill:#00B0FB;fill-opacity:0.4;stroke:#FFFFFF;stroke-width:5;stroke-miterlimit:10;}
</style>
<g>
	<path class="st1" d="M168.02,130.45c-0.01,19.28-16.05,35.39-35.22,35.36c-19.78-0.03-35.57-15.77-35.55-35.43
		c0.02-19.36,15.97-35.37,35.19-35.34C152.26,95.08,168.03,110.78,168.02,130.45z M118.87,133.28c0.65,4.15,1.28,8.13,1.87,11.85
		c4.41-0.35,8.25-0.9,12.1-0.9c3.9,0,7.8,0.55,11.96,0.88c0.51-3.92,1.02-7.8,1.55-11.84C137.11,133.28,128.17,133.28,118.87,133.28
		z M118.99,127.54c9.27,0,18.21,0,27.37,0c-0.55-4.08-1.07-7.97-1.58-11.77c-4.29,0.37-8.21,0.98-12.13,0.98
		c-3.92,0-7.84-0.61-11.91-0.96c-0.22,0.86-0.55,1.79-0.68,2.75C119.67,121.46,119.36,124.41,118.99,127.54z M122.73,110.12
		c5.24,1.58,14.9,1.58,20.1,0c-1.3-3.18-2.91-6.1-5.67-8.22c-2.79-2.14-5.86-2.23-8.68-0.18
		C125.58,103.82,123.88,106.77,122.73,110.12z M142.49,150.56c-6.66-1.29-13.26-1.37-19.93,0.03c1.93,6.01,6.07,9.89,10.29,9.77
		C136.97,160.24,140.99,156.22,142.49,150.56z M151.87,127.59c3.54,0,7.05,0,10.56,0c-0.28-5.08-2.27-10.79-5.11-14.27
		c-0.44-0.54-1.52-1.04-2.13-0.88c-1.79,0.47-3.49,1.29-5.12,1.93C150.68,118.9,151.27,123.2,151.87,127.59z M162.49,133.27
		c-3.59,0-7.1,0-10.63,0c-0.6,4.48-1.19,8.84-1.79,13.27c1.59,0.62,3.15,1.16,4.64,1.84c1.19,0.55,1.93,0.27,2.64-0.8
		C160.2,143.25,162.12,138.61,162.49,133.27z M113.44,133.28c-3.58,0-7.09,0-11.27,0c1.31,3.87,2.22,7.56,3.8,10.94
		c2.38,5.12,2.58,5.03,7.86,2.85c0.51-0.21,1.01-0.46,1.41-0.64C114.62,141.95,114.03,137.65,113.44,133.28z M113.44,127.59
		c0.6-4.47,1.19-8.83,1.79-13.26c-1.59-0.62-3.15-1.13-4.63-1.83c-1.22-0.57-1.95-0.25-2.66,0.81c-2.87,4.31-4.75,8.97-5.15,14.28
		C106.39,127.59,109.89,127.59,113.44,127.59z M113.06,153.28c2.41,1.65,4.23,2.89,6.04,4.14c0.12-0.12,0.23-0.23,0.35-0.35
		c-0.76-1.65-1.53-3.3-2.38-5.14C115.9,152.33,114.85,152.68,113.06,153.28z M148.25,151.89c-0.89,1.89-1.66,3.52-2.43,5.15
		c0.13,0.1,0.27,0.2,0.4,0.3c1.81-1.26,3.62-2.51,5.8-4.03C150.48,152.73,149.5,152.36,148.25,151.89z M146.23,103.46
		c-0.13,0.15-0.26,0.29-0.38,0.44c0.81,1.66,1.61,3.32,2.48,5.1c1.24-0.5,2.24-0.9,3.75-1.5
		C149.83,105.95,148.03,104.71,146.23,103.46z M117.07,108.96c0.9-1.92,1.64-3.5,2.38-5.08c-0.12-0.1-0.23-0.2-0.35-0.31
		c-1.82,1.23-3.65,2.46-5.88,3.97C114.83,108.13,115.86,108.51,117.07,108.96z"/>
	<path class="st1" d="M4.74,2.58c23.67,0,47.05,0,70.58,0c0,6.07,0.33,12.08-0.17,18.02c-0.19,2.26-2.1,4.53-3.64,6.46
		c-0.86,1.08-1.52,1.89-1.51,3.34c0.06,9.65,0.03,19.29,0.03,28.94c0,0.9,0,1.8,0,2.86c-19.95,0-39.77,0-59.88,0
		c0-0.88,0-1.75,0-2.63c0-9.65-0.02-19.29,0.02-28.94c0.01-1.48-0.22-2.58-1.55-3.57c-2.44-1.81-3.75-4.46-3.84-7.45
		C4.63,14.03,4.74,8.43,4.74,2.58z M29.18,35.29c7.43,0,14.49,0,21.87,0c0,7.24,0,14.36,0,21.52c4.65,0,8.98,0,13.43,0
		c0-9.07,0-18.02,0-26.43c-2.92-1.37-5.56-2.6-8.4-3.92c-1.95,1.96-4.67,3.64-7.83,3.14c-2.88-0.45-5.61-1.81-8.77-2.89
		c-5.24,4.23-9.25,4.23-15.27-0.19c-2.9,1.32-5.6,2.55-8.44,3.85c0,8.55,0,17.49,0,26.44c4.51,0,8.85,0,13.41,0
		C29.18,49.61,29.18,42.55,29.18,35.29z M10.27,13.22c20,0,39.81,0,59.57,0c0-1.84,0-3.52,0-5.16c-19.95,0-39.7,0-59.57,0
		C10.27,9.8,10.27,11.41,10.27,13.22z M34.78,56.76c3.62,0,7.11,0,10.63,0c0-5.41,0-10.65,0-15.99c-3.62,0-7.11,0-10.63,0
		C34.78,46.19,34.78,51.43,34.78,56.76z M10.33,18.92c0.29,3.32,2.3,5.34,5.26,5.34c2.96,0.01,4.99-2.02,5.28-5.34
		C17.35,18.92,13.84,18.92,10.33,18.92z M37.2,19.01c-3.54,0-7.07,0-10.63,0c0.68,3.53,2.69,5.37,5.58,5.24
		C35,24.14,36.9,22.17,37.2,19.01z M42.94,18.89c0.51,3.59,2.68,5.57,5.68,5.36c2.87-0.2,4.81-2.34,4.81-5.36
		C49.99,18.89,46.56,18.89,42.94,18.89z M59.21,18.93c0.7,3.63,2.71,5.46,5.6,5.33c2.85-0.12,4.75-2.09,5.06-5.33
		C66.36,18.93,62.85,18.93,59.21,18.93z"/>
	<path class="st2" d="M91.53,138.65c0.16,1.59,0.32,3.2,0.54,5.31c-3.15,0-6.09,0.15-9-0.02c-28.41-1.73-51.39-22.66-55.68-50.72
		c-0.26-1.7-0.88-2.44-2.57-2.54c-2.7-0.16-5.39-0.47-8.66-0.77c5.24-7.45,10.26-14.59,15.51-22.06c3.87,8.39,7.54,16.36,11.39,24.7
		c-3.72-0.35-7.03-0.66-10.36-0.97C34.08,111.08,54.13,140.91,91.53,138.65z"/>
	<path class="st2" d="M127.23,67.59c3.74-0.4,6.99-0.74,10.56-1.13c-4.2-12.02-11.47-21.24-21.86-28
		c-10.44-6.79-21.97-9.42-34.7-8.59c-0.17-1.73-0.34-3.38-0.52-5.26c1.31-0.12,2.35-0.28,3.39-0.31
		c27.95-0.84,50.9,16.7,58.59,40.04c0.49,1.48,1.32,1.63,2.6,1.47c2.77-0.35,5.55-0.63,8.87-1c-3.78,8.42-7.39,16.45-11.15,24.8
		C137.71,82.21,132.6,75.08,127.23,67.59z"/>
	<path class="st2" d="M118.87,133.28c9.3,0,18.23,0,27.48,0c-0.53,4.04-1.04,7.92-1.55,11.84c-4.16-0.33-8.06-0.88-11.96-0.88
		c-3.85,0-7.7,0.54-12.1,0.9C120.15,141.41,119.53,137.43,118.87,133.28z"/>
	<path class="st2" d="M122.73,110.12c1.14-3.35,2.85-6.3,5.75-8.41c2.82-2.05,5.9-1.96,8.68,0.18c2.76,2.12,4.37,5.04,5.67,8.22
		C137.63,111.7,127.98,111.7,122.73,110.12z"/>
	<path class="st2" d="M162.49,133.27c-0.37,5.34-2.29,9.98-5.14,14.31c-0.71,1.07-1.45,1.35-2.64,0.8
		c-1.49-0.68-3.04-1.22-4.64-1.84c0.6-4.43,1.18-8.8,1.79-13.27C155.39,133.27,158.9,133.27,162.49,133.27z"/>
	<path class="st2" d="M113.44,133.28c0.6,4.37,1.19,8.67,1.8,13.15c-0.4,0.18-0.9,0.43-1.41,0.64c-5.28,2.19-5.47,2.28-7.86-2.85
		c-1.57-3.38-2.48-7.07-3.8-10.94C106.35,133.28,109.86,133.28,113.44,133.28z"/>
	<path class="st2" d="M146.23,103.46c1.8,1.24,3.59,2.48,5.84,4.04c-1.5,0.6-2.5,1-3.75,1.5c-0.87-1.78-1.67-3.44-2.48-5.1
		C145.98,103.76,146.11,103.61,146.23,103.46z"/>
	<path class="st2" d="M117.07,108.96c-1.22-0.45-2.25-0.83-3.85-1.42c2.24-1.51,4.06-2.74,5.88-3.97c0.12,0.1,0.23,0.2,0.35,0.31
		C118.71,105.45,117.97,107.03,117.07,108.96z"/>
	<path class="st0" d="M10.27,13.22c0-1.8,0-3.42,0-5.16c19.87,0,39.62,0,59.57,0c0,1.64,0,3.31,0,5.16
		C50.08,13.22,30.27,13.22,10.27,13.22z"/>
	<path class="st0" d="M34.78,56.76c0-5.33,0-10.58,0-15.99c3.52,0,7.01,0,10.63,0c0,5.33,0,10.58,0,15.99
		C41.88,56.76,38.4,56.76,34.78,56.76z"/>
</g>
</svg>
