<?xml version="1.0" encoding="utf-8"?>
<!-- Generator: Adobe Illustrator 24.3.0, SVG Export Plug-In . SVG Version: 6.00 Build 0)  -->
<svg version="1.1" id="Layer_1" xmlns="http://www.w3.org/2000/svg" xmlns:xlink="http://www.w3.org/1999/xlink" x="0px" y="0px"
	 width="123.4px" height="138.5px" viewBox="0 0 123.4 138.5" style="enable-background:new 0 0 123.4 138.5;" xml:space="preserve"
	>
<style type="text/css">
	.st0{fill:#185AE9;}
	.st1{fill:#00B0FB;}
	.st2{fill:none;}
	.st3{fill:#00B0FB;fill-opacity:0.4;}
	.st4{fill:#FFFFFF;}
	.st5{fill:#3C7CFF;}
	.st6{fill:#001135;}
</style>
<g>
	<path class="st4" d="M61.7,17L61.7,17c-19.6,0-35.6,16-35.5,35.5C26.2,72.1,42.1,88,61.7,88h0.1c9.5,0,18.4-3.7,25.1-10.4
		c6.7-6.7,10.4-15.6,10.4-25.1C97.2,32.9,81.3,17,61.7,17z M61.7,28.2C61.7,28.2,61.7,28.2,61.7,28.2C61.7,28.2,61.7,28.2,61.7,28.2
		L61.7,28.2z M82.7,48.3c-2.1,2.7-4.4,5.4-6.7,8l-0.1,0.1c-0.1,0.1-0.1,0.2-0.1,0.4c0,0.2,0.1,0.6,0.1,1.2c0.2,2.7,0.7,8.3,0.5,11.1
		c0,0.1,0,0.2,0,0.3c0,0.5-0.1,0.9-0.9,1.6c-0.6,0.4-1,0.5-1.2,0.5c-0.2,0-0.4,0-0.5-0.1c-0.1,0-0.2-0.1-0.3-0.1
		c-2.5-0.6-5.1-1.7-7.7-2.8c-1.3-0.5-2.5-1.1-3.8-1.5c-0.1,0-0.1,0-0.2,0c-0.1,0-0.1,0-0.2,0c-0.4,0.2-1,0.4-1.7,0.7
		c-2.7,1.1-7.1,3-9.8,3.6c-0.1,0-0.2,0-0.3,0.1c-0.2,0-0.4,0.1-0.5,0.1c-0.2,0-0.6-0.1-1.2-0.5c-0.9-0.6-0.9-1.1-0.9-1.5
		c0-0.1,0-0.2,0-0.3c-0.2-2.7,0-5.4,0.3-8.3c0.1-1.3,0.2-2.6,0.3-4c0-0.1,0-0.2-0.1-0.3c-0.2-0.2-0.5-0.6-1-1.1
		c-1.7-2-5.3-6.1-6.7-8.5c0-0.1-0.1-0.2-0.2-0.3c-0.3-0.4-0.5-0.8-0.1-1.8c0.3-1,0.7-1.2,1.2-1.4c0.1,0,0.2-0.1,0.3-0.1
		c2.7-1.1,5.9-1.8,9-2.5c1-0.2,1.9-0.5,2.9-0.7c0.1,0,0.2-0.1,0.3-0.2c0.2-0.4,0.6-0.9,1-1.6l0.1-0.1c1.5-2.6,3.9-6.4,5.7-8.6
		c0.1-0.1,0.1-0.1,0.2-0.2c0.3-0.4,0.6-0.7,1.6-0.7c1.1,0,1.3,0.3,1.6,0.7c0.1,0.1,0.2,0.2,0.2,0.3c1.6,2,3.1,4.4,4.5,6.7
		c0.7,1.2,1.5,2.4,2.2,3.5c0.1,0.1,0.2,0.2,0.3,0.2c1,0.3,2.1,0.5,3.1,0.7c3,0.7,6,1.4,8.8,2.5l0.2,0.1c0.5,0.2,1,0.4,1.2,1.4
		C84.2,45.9,83.8,47.1,82.7,48.3z"/>
	<path class="st4" d="M48.9,103c-10-2.5-19-8-25.9-15.8c-0.1-0.1-0.2-0.2-0.4-0.2c-0.2,0-0.4,0.1-0.4,0.2L5.6,115.9
		c-0.1,0.2-0.1,0.4,0,0.5c0.1,0.1,0.2,0.2,0.4,0.2l18.2-3.6c0.1,0,0.2,0,0.3,0c0.7,0,1.4,0.5,1.6,1.1l5.9,17.5
		c0.1,0.2,0.2,0.3,0.4,0.3c0,0,0,0,0,0c0.2,0,0.4-0.1,0.5-0.2l16.2-28.1c0.1-0.1,0.1-0.3,0-0.4C49.1,103.1,49,103,48.9,103z"/>
	<path class="st4" d="M101.3,87.3c-0.1-0.1-0.2-0.2-0.4-0.2c0,0,0,0-0.1,0c-0.1,0-0.3,0.1-0.4,0.2c-6.9,7.8-15.9,13.2-25.9,15.8
		c-0.2,0-0.3,0.1-0.3,0.3c-0.1,0.1,0,0.3,0,0.4l16.2,28.1c0.1,0.2,0.3,0.2,0.4,0.2c0.2,0,0.4-0.2,0.5-0.3l5.9-17.5
		c0.2-0.7,0.9-1.1,1.6-1.1c0.1,0,0.2,0,0.3,0l18.1,3.6c0,0,0,0,0,0c0.2,0,0.4-0.1,0.5-0.2c0.1-0.2,0.1-0.4,0-0.5L101.3,87.3z"/>
	<path class="st5" d="M79.5,45.8c-1.8-0.5-3.7-1-5.4-1.4c-1.5-0.4-2.9-0.7-4.3-1.1l-0.3-0.1c-0.3-0.1-0.6-0.2-1-0.5
		c-0.5-0.4-0.6-0.6-0.8-0.8c-0.1-0.1-0.1-0.2-0.2-0.3c-0.8-1.2-1.5-2.4-2.3-3.6c-1-1.6-2-3.2-3.1-4.8C62,33.1,61.9,33,61.7,33
		c-0.2,0-0.3,0.1-0.4,0.2c-0.7,1.1-1.4,2.2-2.1,3.3l-0.6,1c-0.8,1.3-1.7,2.8-2.6,4.2l-0.2,0.2c-0.2,0.3-0.3,0.5-0.8,0.9
		c-0.5,0.3-0.7,0.4-1,0.5l-0.3,0.1c-1.3,0.3-2.6,0.7-3.9,1c-1.9,0.5-3.8,0.9-5.8,1.5c-0.2,0-0.3,0.2-0.3,0.3c-0.1,0.2,0,0.3,0.1,0.5
		c0.9,1.1,1.9,2.4,3,3.7c1.2,1.4,2.3,2.7,3.3,4c0.1,0.1,0.1,0.2,0.2,0.2c0.2,0.3,0.4,0.4,0.5,1c0.2,0.6,0.2,0.8,0.2,1.2l0,0.3
		c-0.1,1.5-0.2,2.9-0.3,4.4c-0.1,1.8-0.3,3.7-0.3,5.6c0,0.2,0.1,0.3,0.2,0.4c0.1,0.1,0.2,0.1,0.3,0.1c0.1,0,0.1,0,0.2,0
		c1.7-0.6,3.3-1.3,4.9-1.9c1.5-0.6,2.9-1.2,4.4-1.7c0.1,0,0.2-0.1,0.3-0.1c0.3-0.1,0.5-0.2,1.1-0.2c2.1,0.4,4.4,1.4,6.6,2.3
		c1.4,0.6,2.8,1.2,4.2,1.7c0.1,0,0.1,0,0.2,0c0.1,0,0.2,0,0.3-0.1c0.1-0.1,0.2-0.3,0.2-0.4c-0.1-1.8-0.2-3.6-0.3-5.2
		c-0.1-1.6-0.2-3.2-0.3-4.8l0-0.3c0-0.3,0-0.6,0.2-1.2c0.2-0.6,0.3-0.8,0.5-1c0.1-0.1,0.1-0.2,0.2-0.2c0.9-1.1,1.7-2.1,2.6-3.2
		c1.2-1.4,2.5-2.9,3.7-4.5c0.1-0.1,0.1-0.3,0.1-0.5C79.8,46,79.6,45.8,79.5,45.8z"/>
	<path class="st6" d="M110.4,52.5c0-26.8-21.8-48.7-48.6-48.7h-0.1c-13,0-25.2,5.1-34.4,14.3c-9.2,9.2-14.2,21.4-14.2,34.4
		c0,26.8,21.8,48.6,48.6,48.6C88.5,101.2,110.4,79.4,110.4,52.5z M61.7,91.4c-21.4,0-38.9-17.5-38.9-38.9
		c0-21.4,17.5-38.9,38.9-38.9c21.4,0,38.9,17.5,38.9,38.9C100.6,74,83.1,91.4,61.7,91.4z"/>
	<polygon class="st6" points="61.7,0 61.7,0 61.7,0 	"/>
	<path class="st6" d="M103.4,84.2c-0.1-0.2-0.1-0.4,0-0.5c6.7-9,10.3-19.8,10.3-31.1c0-28.7-23.4-52-52-52c-28.7,0-52,23.4-52,52
		c0,11.3,3.6,22,10.3,31.1c0.1,0.2,0.1,0.4,0,0.5L0.2,118.5c-0.5,0.8-0.2,1.8,0.6,2.3c0.3,0.1,0.5,0.2,0.8,0.2c0.1,0,0.2,0,0.3,0
		l21-4.1c0.2,0,0.4,0.1,0.5,0.3l6.9,20.2c0.2,0.7,0.9,1.1,1.6,1.1c0.2,0,0.4,0,0.5-0.1c0.4-0.1,0.7-0.4,0.9-0.8l19.4-33.5
		c0.1-0.1,0.2-0.2,0.5-0.2c0,0,0,0,0,0c2.8,0.5,5.6,0.7,8.4,0.7c2.8,0,5.6-0.2,8.4-0.7c0.2,0,0.3,0.1,0.4,0.2l19.4,33.5
		c0.3,0.5,0.9,0.8,1.5,0.8c0.3,0,0.6-0.1,0.8-0.2c0.4-0.2,0.6-0.5,0.8-0.9l6.9-20.2c0.1-0.2,0.2-0.3,0.5-0.3c0,0,0,0,0,0l20.9,4.1
		c0.1,0,0.2,0,0.3,0c0.8,0,1.5-0.6,1.7-1.4c0.1-0.4,0-0.8-0.2-1.2L103.4,84.2z M49.2,103.7L33,131.8c-0.1,0.2-0.3,0.2-0.5,0.2
		c0,0,0,0,0,0c-0.2,0-0.4-0.2-0.4-0.3l-5.9-17.5c-0.2-0.7-0.9-1.1-1.6-1.1c-0.1,0-0.2,0-0.3,0L6,116.7c-0.2,0-0.3-0.1-0.4-0.2
		c-0.1-0.2-0.1-0.4,0-0.5l16.6-28.7c0.1-0.1,0.2-0.2,0.4-0.2c0.1,0,0.3,0.1,0.4,0.2c6.9,7.8,15.9,13.2,25.9,15.8
		c0.2,0,0.3,0.1,0.3,0.3C49.3,103.4,49.3,103.6,49.2,103.7z M61.7,101.2c-26.8,0-48.6-21.8-48.6-48.6c0-13,5-25.2,14.2-34.4
		C36.5,9,48.7,3.9,61.7,3.9h0.1c26.8,0,48.6,21.8,48.6,48.7C110.4,79.4,88.5,101.2,61.7,101.2z M117.8,116.5
		c-0.1,0.1-0.2,0.2-0.5,0.2c0,0,0,0,0,0l-18.1-3.6c-0.1,0-0.2,0-0.3,0c-0.7,0-1.4,0.5-1.6,1.1l-5.9,17.5c-0.1,0.2-0.2,0.3-0.5,0.3
		c-0.2,0-0.3-0.1-0.4-0.2l-16.2-28.1c-0.1-0.1-0.1-0.3,0-0.4c0.1-0.1,0.2-0.3,0.3-0.3c10-2.5,19-8,25.9-15.8
		c0.1-0.1,0.2-0.2,0.4-0.2c0,0,0,0,0.1,0c0.2,0,0.3,0.1,0.4,0.2l16.6,28.7C118,116.1,118,116.3,117.8,116.5z"/>
	<path class="st6" d="M61.7,13.6c-21.4,0-38.9,17.5-38.9,38.9c0,21.4,17.5,38.9,38.9,38.9c21.4,0,38.9-17.5,38.9-38.9
		C100.6,31.1,83.1,13.7,61.7,13.6z M86.9,77.6C80.2,84.3,71.3,88,61.8,88h-0.1c-19.5,0-35.5-15.9-35.5-35.5C26.2,33,42.1,17,61.7,17
		h0.1c19.6,0,35.5,15.9,35.5,35.5C97.2,62,93.5,70.9,86.9,77.6z"/>
	<path class="st6" d="M82.7,43.4l-0.2-0.1c-2.8-1.1-5.8-1.8-8.8-2.5c-1-0.2-2.1-0.5-3.1-0.7c-0.1,0-0.2-0.1-0.3-0.2
		c-0.8-1.1-1.5-2.3-2.2-3.5c-1.4-2.3-2.9-4.7-4.5-6.7c-0.1-0.1-0.2-0.2-0.2-0.3c-0.3-0.4-0.6-0.7-1.6-0.7c-1.1,0-1.3,0.3-1.6,0.7
		c-0.1,0.1-0.1,0.2-0.2,0.2c-1.8,2.1-4.2,6-5.7,8.6l-0.1,0.1c-0.4,0.7-0.7,1.2-1,1.6c-0.1,0.1-0.2,0.2-0.3,0.2
		c-0.9,0.2-1.9,0.5-2.9,0.7c-3.1,0.7-6.3,1.5-9,2.5c-0.1,0-0.2,0.1-0.3,0.1c-0.5,0.2-0.9,0.4-1.2,1.4c-0.3,1-0.1,1.4,0.1,1.8
		c0.1,0.1,0.1,0.2,0.2,0.3c1.4,2.3,5,6.5,6.7,8.5c0.4,0.5,0.8,0.9,1,1.1c0.1,0.1,0.1,0.2,0.1,0.3c-0.1,1.4-0.2,2.7-0.3,4
		c-0.2,2.9-0.5,5.6-0.3,8.3c0,0.1,0,0.2,0,0.3c0,0.5,0.1,0.9,0.9,1.5c0.6,0.4,1,0.5,1.2,0.5c0.2,0,0.4,0,0.5-0.1
		c0.1,0,0.2-0.1,0.3-0.1c2.7-0.6,7.1-2.5,9.8-3.6c0.7-0.3,1.3-0.5,1.7-0.7c0.1,0,0.1,0,0.2,0c0.1,0,0.1,0,0.2,0
		c1.3,0.5,2.5,1,3.8,1.5c2.5,1.1,5.2,2.2,7.7,2.8c0.1,0,0.2,0,0.3,0.1c0.2,0,0.4,0.1,0.5,0.1c0.2,0,0.6-0.1,1.2-0.5
		c0.9-0.6,0.9-1,0.9-1.6c0-0.1,0-0.2,0-0.3c0.2-2.8-0.2-8.4-0.5-11.1c0-0.5-0.1-0.9-0.1-1.2c0-0.1,0-0.3,0.1-0.4l0.1-0.1
		c2.2-2.6,4.6-5.3,6.7-8c1.1-1.2,1.5-2.4,1.2-3.5C83.7,43.9,83.2,43.6,82.7,43.4z M79.7,46.6c-1.2,1.6-2.5,3.1-3.7,4.5
		c-0.9,1.1-1.8,2.1-2.6,3.2c-0.1,0.1-0.1,0.2-0.2,0.2c-0.2,0.3-0.4,0.4-0.5,1c-0.2,0.6-0.2,0.8-0.2,1.2l0,0.3
		c0.1,1.6,0.2,3.2,0.3,4.8c0.1,1.6,0.2,3.4,0.3,5.2c0,0.2-0.1,0.3-0.2,0.4c-0.1,0.1-0.2,0.1-0.3,0.1c-0.1,0-0.1,0-0.2,0
		c-1.4-0.5-2.8-1.1-4.2-1.7c-2.2-0.9-4.5-1.9-6.6-2.3c-0.6,0-0.8,0.1-1.1,0.2c-0.1,0-0.2,0.1-0.3,0.1c-1.5,0.6-2.9,1.1-4.4,1.7
		c-1.6,0.7-3.3,1.3-4.9,1.9c-0.1,0-0.1,0-0.2,0c-0.1,0-0.2,0-0.3-0.1c-0.1-0.1-0.2-0.3-0.2-0.4c0.1-1.9,0.2-3.8,0.3-5.6
		c0.1-1.5,0.2-2.9,0.3-4.4l0-0.3c0-0.3,0-0.6-0.2-1.2c-0.2-0.6-0.3-0.8-0.5-1c-0.1-0.1-0.1-0.1-0.2-0.2c-1-1.3-2.2-2.7-3.3-4
		c-1.1-1.3-2.1-2.5-3-3.7c-0.1-0.1-0.1-0.3-0.1-0.5c0.1-0.2,0.2-0.3,0.3-0.3c2-0.6,3.9-1,5.8-1.5c1.3-0.3,2.6-0.6,3.9-1l0.3-0.1
		c0.3-0.1,0.5-0.2,1-0.5c0.5-0.4,0.6-0.6,0.8-0.9l0.2-0.2c0.9-1.3,1.8-2.8,2.6-4.2l0.6-1c0.7-1.1,1.4-2.2,2.1-3.3
		c0.1-0.1,0.2-0.2,0.4-0.2c0.2,0,0.3,0.1,0.4,0.2c1.1,1.6,2.1,3.2,3.1,4.8c0.7,1.2,1.5,2.4,2.3,3.6c0.1,0.1,0.1,0.2,0.2,0.3
		c0.2,0.3,0.3,0.5,0.8,0.8c0.5,0.4,0.7,0.4,1,0.5l0.3,0.1c1.4,0.4,2.8,0.7,4.3,1.1c1.8,0.4,3.6,0.9,5.4,1.4c0.2,0,0.3,0.2,0.3,0.3
		C79.9,46.3,79.8,46.5,79.7,46.6z"/>
	<polygon class="st6" points="61.7,28.2 61.7,28.2 61.7,28.2 	"/>
</g>
</svg>
