<?xml version="1.0" encoding="utf-8"?>
<!-- Generator: Adobe Illustrator 24.3.0, SVG Export Plug-In . SVG Version: 6.00 Build 0)  -->
<svg version="1.1" id="Layer_1" xmlns="http://www.w3.org/2000/svg" xmlns:xlink="http://www.w3.org/1999/xlink" x="0px" y="0px"
	 width="137px" height="137px" viewBox="0 0 137 137" style="enable-background:new 0 0 137 137;" xml:space="preserve">
<style type="text/css">
	.st0{fill:#185AE9;}
	.st1{fill:#00B0FB;}
	.st2{fill:none;}
	.st3{fill:#00B0FB;fill-opacity:0.4;}
	.st4{fill:#FFFFFF;}
	.st5{fill:#3C7CFF;}
	.st6{fill:#001135;}
</style>
<g>
	<path class="st5" d="M110.9,27.1h17.9c0.4,0,0.8-0.2,0.9-0.6c0.2-0.4,0.1-0.8-0.2-1.1L111.6,7.6c-0.2-0.2-0.4-0.3-0.7-0.3
		c-0.1,0-0.3,0-0.4,0.1c-0.4,0.2-0.6,0.5-0.6,0.9v17.9C109.9,26.7,110.3,27.1,110.9,27.1z"/>
	<path class="st6" d="M54.1,48c0-0.3-0.1-0.6-0.2-0.8c-0.2-0.2-0.5-0.3-0.7-0.3H28.9c-0.9,0-1.7-0.8-1.7-1.7V20.9
		c0-0.3-0.1-0.6-0.3-0.7c-0.2-0.2-0.4-0.3-0.7-0.3c0,0-0.1,0-0.1,0C13.1,21.3,3.4,32.2,3.4,45.2c0,14,11.4,25.4,25.4,25.4
		c1.7,0,3.4-0.2,5.1-0.5C44.8,67.9,52.9,59,54.1,48z M28.9,63.2c-9.9,0-18-8.1-18-18c0-0.9,0.8-1.7,1.7-1.7s1.7,0.8,1.7,1.7
		c0,8,6.5,14.6,14.6,14.6c0.9,0,1.7,0.8,1.7,1.7S29.8,63.2,28.9,63.2z"/>
	<path class="st5" d="M31.6,43.4h21.6c0.3,0,0.6-0.1,0.7-0.3c0.2-0.2,0.3-0.5,0.2-0.8c-1.2-11-9.3-19.9-20.2-22.1
		c-0.7-0.1-1.5-0.3-2.3-0.4c0,0-0.1,0-0.1,0c-0.2,0-0.5,0.1-0.7,0.3c-0.2,0.2-0.3,0.5-0.3,0.7v21.6C30.6,43,31,43.4,31.6,43.4z"/>
	<path class="st4" d="M132.6,30.6h-24.4c-0.9,0-1.7-0.8-1.7-1.7V4.4c0-0.6-0.4-1-1-1H39.7c-2,0-3.7,1.7-3.7,3.7v9.3
		c0,0.4,0.3,0.8,0.7,1c12.4,3.5,21,14.9,21,27.8s-8.6,24.3-21,27.8c-0.4,0.1-0.7,0.5-0.7,1v56c0,2,1.7,3.7,3.7,3.7h90.1
		c2,0,3.7-1.7,3.7-3.7V31.6C133.6,31,133.1,30.6,132.6,30.6z M119,43.4c0.9,0,1.7,0.8,1.7,1.7s-0.8,1.7-1.7,1.7H77.7
		c-0.9,0-1.7-0.8-1.7-1.7s0.8-1.7,1.7-1.7H119z M120.7,56c0,0.9-0.8,1.7-1.7,1.7H77.7C76.8,57.7,76,57,76,56s0.8-1.7,1.7-1.7H119
		C119.9,54.3,120.7,55.1,120.7,56z M68.5,16.3h28.8c0.9,0,1.7,0.8,1.7,1.7s-0.8,1.7-1.7,1.7H68.5c-0.9,0-1.7-0.8-1.7-1.7
		S67.6,16.3,68.5,16.3z M68.5,27.1h28.8c0.9,0,1.7,0.8,1.7,1.7s-0.8,1.7-1.7,1.7H68.5c-0.9,0-1.7-0.8-1.7-1.7S67.6,27.1,68.5,27.1z
		 M66.9,43.4c0.9,0,1.7,0.8,1.7,1.7s-0.8,1.7-1.7,1.7s-1.7-0.8-1.7-1.7S65.9,43.4,66.9,43.4z M66.9,54.3c0.9,0,1.7,0.8,1.7,1.7
		s-0.8,1.7-1.7,1.7S65.2,57,65.2,56S65.9,54.3,66.9,54.3z M118.2,86.5c-0.7,0-1.4-0.1-2.1-0.3c-0.1,0-0.2,0-0.3,0
		c-0.3,0-0.5,0.1-0.7,0.3l-18.9,20.2c-0.3,0.3-0.4,0.9-0.1,1.2c0.8,1.2,1.2,2.6,1.2,4c0,3.9-3.2,7.1-7.1,7.1s-7.1-3.2-7.1-7.1
		c0-1.2,0.3-2.3,0.8-3.3c0.2-0.4,0.1-0.8-0.1-1.1L75.3,97c-0.2-0.2-0.5-0.4-0.8-0.4c-0.1,0-0.3,0-0.4,0.1c-0.9,0.4-1.9,0.6-2.9,0.6
		c-1.1,0-2.1-0.2-3-0.7c-0.1-0.1-0.3-0.1-0.4-0.1c-0.3,0-0.5,0.1-0.7,0.3l-9.9,10.7c-0.3,0.3-0.3,0.7-0.2,1.1c0.5,1,0.7,2,0.7,3.2
		c0,3.9-3.2,7.1-7.1,7.1s-7.1-3.2-7.1-7.1s3.2-7.1,7.1-7.1c1.1,0,2.1,0.2,3,0.7c0.1,0.1,0.3,0.1,0.4,0.1c0.3,0,0.5-0.1,0.7-0.3
		l9.9-10.7c0.3-0.3,0.3-0.8,0.2-1.1c-0.5-1-0.7-2.1-0.7-3.2c0-3.9,3.2-7.1,7.1-7.1s7.1,3.2,7.1,7.1c0,1.2-0.3,2.3-0.8,3.3
		c-0.2,0.4-0.1,0.8,0.1,1.1l8.5,10.5c0.2,0.2,0.5,0.4,0.8,0.4c0.1,0,0.3,0,0.4-0.1c0.9-0.4,1.9-0.6,2.9-0.6c0.7,0,1.4,0.1,2.1,0.3
		c0.1,0,0.2,0,0.3,0c0.3,0,0.5-0.1,0.7-0.3l18.9-20.2c0.3-0.3,0.4-0.9,0.1-1.2c-0.8-1.2-1.2-2.6-1.2-4c0-3.9,3.2-7.1,7.1-7.1
		s7.1,3.2,7.1,7.1S122.1,86.5,118.2,86.5z"/>
	<circle class="st5" cx="118.2" cy="79.4" r="3.7"/>
	<path class="st5" d="M50.6,108.2c-2,0-3.7,1.7-3.7,3.7s1.7,3.7,3.7,3.7s3.7-1.7,3.7-3.7c0-1-0.4-1.9-1.1-2.6
		C52.5,108.6,51.6,108.2,50.6,108.2z"/>
	<path class="st5" d="M71.2,86.5c-2,0-3.7,1.7-3.7,3.7c0,1,0.4,1.9,1.1,2.6c0.7,0.7,1.6,1.1,2.6,1.1c1,0,1.9-0.4,2.6-1.1
		c0.7-0.7,1.1-1.6,1.1-2.6C74.9,88.2,73.3,86.5,71.2,86.5z"/>
	<path class="st5" d="M90.2,108.2c-1,0-1.9,0.4-2.6,1.1c-0.7,0.7-1.1,1.6-1.1,2.6c0,2,1.7,3.7,3.7,3.7s3.7-1.7,3.7-3.7
		S92.3,108.2,90.2,108.2z"/>
	<circle class="st6" cx="66.9" cy="45.2" r="1.7"/>
	<circle class="st6" cx="66.9" cy="56" r="1.7"/>
	<path class="st6" d="M68.5,19.7h28.8c0.9,0,1.7-0.8,1.7-1.7s-0.8-1.7-1.7-1.7H68.5c-0.9,0-1.7,0.8-1.7,1.7S67.6,19.7,68.5,19.7z"/>
	<path class="st6" d="M68.5,30.6h28.8c0.9,0,1.7-0.8,1.7-1.7s-0.8-1.7-1.7-1.7H68.5c-0.9,0-1.7,0.8-1.7,1.7S67.6,30.6,68.5,30.6z"/>
	<path class="st4" d="M28.9,59.7c-8,0-14.6-6.5-14.6-14.6c0-0.9-0.8-1.7-1.7-1.7s-1.7,0.8-1.7,1.7c0,9.9,8.1,18,18,18
		c0.9,0,1.7-0.8,1.7-1.7S29.8,59.7,28.9,59.7z"/>
	<path class="st6" d="M137,28.5c0-0.1,0-0.1,0-0.2c0-0.1,0-0.1-0.1-0.2c0,0,0-0.1-0.1-0.2c0,0,0-0.1-0.1-0.1l-0.1-0.1
		c0,0-0.1-0.1-0.1-0.1L109.3,0.5c0,0-0.1-0.1-0.2-0.1c0,0-0.1,0-0.1-0.1c0,0-0.1,0-0.1-0.1c0,0-0.1,0-0.2-0.1c0,0-0.1,0-0.2-0.1
		c0,0-0.1,0-0.2,0l-0.1,0c-0.1,0-0.1,0-0.2,0H39.7c-3.9,0-7.1,3.2-7.1,7.1v8.3c0,0.3-0.1,0.5-0.3,0.7c-0.2,0.2-0.4,0.3-0.8,0.3
		c0,0,0,0,0,0c-0.9-0.1-1.8-0.1-2.6-0.1C12.9,16.3,0,29.2,0,45.2S12.9,74,28.9,74c0.9,0,1.8,0,2.7-0.1c0.3,0,0.5,0.1,0.7,0.3
		c0.2,0.2,0.3,0.5,0.3,0.7v55c0,3.9,3.2,7.1,7.1,7.1h90.1c3.9,0,7.1-3.2,7.1-7.1v-101c0-0.1,0-0.1,0-0.2L137,28.5z M109.9,8.3
		c0-0.4,0.2-0.8,0.6-0.9c0.1-0.1,0.3-0.1,0.4-0.1c0.3,0,0.5,0.1,0.7,0.3l17.9,17.9c0.3,0.3,0.4,0.7,0.2,1.1
		c-0.2,0.4-0.5,0.6-0.9,0.6h-17.9c-0.6,0-1-0.4-1-1V8.3z M30.6,20.9c0-0.3,0.1-0.6,0.3-0.7c0.2-0.2,0.4-0.3,0.7-0.3c0,0,0.1,0,0.1,0
		c0.8,0.1,1.5,0.2,2.3,0.4c10.8,2.2,18.9,11.1,20.2,22.1c0,0.3-0.1,0.6-0.2,0.8c-0.2,0.2-0.5,0.3-0.7,0.3H31.6c-0.6,0-1-0.4-1-1
		V20.9z M33.9,70.1c-1.7,0.3-3.4,0.5-5.1,0.5c-14,0-25.4-11.4-25.4-25.4c0-13,9.7-23.8,22.6-25.3c0,0,0.1,0,0.1,0
		c0.2,0,0.5,0.1,0.7,0.3c0.2,0.2,0.3,0.5,0.3,0.7v24.3c0,0.9,0.8,1.7,1.7,1.7h24.3c0.3,0,0.6,0.1,0.7,0.3c0.2,0.2,0.3,0.5,0.2,0.8
		C52.9,59,44.8,67.9,33.9,70.1z M133.6,129.9c0,2-1.7,3.7-3.7,3.7H39.7c-2,0-3.7-1.7-3.7-3.7v-56c0-0.4,0.3-0.8,0.7-1
		c12.4-3.5,21-14.9,21-27.8s-8.6-24.3-21-27.8c-0.4-0.1-0.7-0.5-0.7-1V7.1c0-2,1.7-3.7,3.7-3.7h65.7c0.6,0,1,0.4,1,1v24.4
		c0,0.9,0.8,1.7,1.7,1.7h24.4c0.6,0,1,0.4,1,1V129.9z"/>
	<path class="st6" d="M118.2,72.2c-3.9,0-7.1,3.2-7.1,7.1c0,1.4,0.4,2.8,1.2,4c0.3,0.4,0.2,0.9-0.1,1.2l-18.9,20.2
		c-0.2,0.2-0.5,0.3-0.7,0.3c-0.1,0-0.2,0-0.3,0c-0.7-0.2-1.4-0.3-2.1-0.3c-1,0-2,0.2-2.9,0.6c-0.1,0.1-0.3,0.1-0.4,0.1
		c-0.3,0-0.6-0.1-0.8-0.4l-8.5-10.5c-0.2-0.3-0.3-0.7-0.1-1.1c0.5-1,0.8-2.1,0.8-3.3c0-3.9-3.2-7.1-7.1-7.1s-7.1,3.2-7.1,7.1
		c0,1.1,0.3,2.2,0.7,3.2c0.2,0.4,0.1,0.8-0.2,1.1l-9.9,10.7c-0.2,0.2-0.5,0.3-0.7,0.3c-0.1,0-0.3,0-0.4-0.1c-0.9-0.4-2-0.7-3-0.7
		c-3.9,0-7.1,3.2-7.1,7.1s3.2,7.1,7.1,7.1s7.1-3.2,7.1-7.1c0-1.1-0.2-2.2-0.7-3.2c-0.2-0.4-0.1-0.8,0.2-1.1l9.9-10.7
		c0.2-0.2,0.5-0.3,0.7-0.3c0.1,0,0.3,0,0.4,0.1c0.9,0.4,2,0.7,3,0.7c1,0,2-0.2,2.9-0.6c0.1-0.1,0.3-0.1,0.4-0.1
		c0.3,0,0.6,0.1,0.8,0.4l8.5,10.5c0.2,0.3,0.3,0.7,0.1,1.1c-0.5,1-0.8,2.1-0.8,3.3c0,3.9,3.2,7.1,7.1,7.1s7.1-3.2,7.1-7.1
		c0-1.4-0.4-2.8-1.2-4c-0.3-0.4-0.2-0.9,0.1-1.2l18.9-20.2c0.2-0.2,0.5-0.3,0.7-0.3c0.1,0,0.2,0,0.3,0c0.7,0.2,1.4,0.3,2.1,0.3
		c3.9,0,7.1-3.2,7.1-7.1S122.1,72.2,118.2,72.2z M50.6,115.7c-2,0-3.7-1.7-3.7-3.7s1.7-3.7,3.7-3.7c1,0,1.9,0.4,2.6,1.1
		c0.7,0.7,1.1,1.6,1.1,2.6C54.3,114,52.6,115.7,50.6,115.7z M73.8,92.8c-0.7,0.7-1.6,1.1-2.6,1.1c-1,0-1.9-0.4-2.6-1.1
		c-0.7-0.7-1.1-1.6-1.1-2.6c0-2,1.7-3.7,3.7-3.7s3.7,1.7,3.7,3.7C74.9,91.2,74.5,92.1,73.8,92.8z M90.2,115.7c-2,0-3.7-1.7-3.7-3.7
		c0-1,0.4-1.9,1.1-2.6c0.7-0.7,1.6-1.1,2.6-1.1c2,0,3.7,1.7,3.7,3.7S92.3,115.7,90.2,115.7z M118.2,83.1c-2,0-3.7-1.7-3.7-3.7
		s1.7-3.7,3.7-3.7s3.7,1.7,3.7,3.7S120.2,83.1,118.2,83.1z"/>
	<path class="st6" d="M76,45.2c0,0.9,0.8,1.7,1.7,1.7H119c0.9,0,1.7-0.8,1.7-1.7s-0.8-1.7-1.7-1.7H77.7C76.8,43.4,76,44.2,76,45.2z"
		/>
	<path class="st6" d="M119,54.3H77.7c-0.9,0-1.7,0.8-1.7,1.7s0.8,1.7,1.7,1.7H119c0.9,0,1.7-0.8,1.7-1.7S119.9,54.3,119,54.3z"/>
</g>
</svg>
