<?xml version="1.0" encoding="utf-8"?>
<!-- Generator: Adobe Illustrator 24.3.0, SVG Export Plug-In . SVG Version: 6.00 Build 0)  -->
<svg version="1.1" id="Layer_1" xmlns="http://www.w3.org/2000/svg" xmlns:xlink="http://www.w3.org/1999/xlink" x="0px" y="0px"
	 width="100.5px" height="114.9px" viewBox="0 0 100.5 114.9" style="enable-background:new 0 0 100.5 114.9;" xml:space="preserve"
	>
<style type="text/css">
	.st0{fill:#00C8FF;}
	.st1{fill-rule:evenodd;clip-rule:evenodd;fill:#00C8FF;}
	.st2{fill:#185AE9;}
	.st3{fill:#FFFFFF;}
	.st4{fill-rule:evenodd;clip-rule:evenodd;fill:#FFFFFF;}
	.st5{fill:#00B0FB;}
	.st6{fill:#00B0FB;fill-opacity:0.4;}
	.st7{fill:#E4ECF4;}
	.st8{fill:#FFE8A0;}
</style>
<g>
	<g>
		<path class="st2" d="M96.9,12.6c0,0.1,0.1,0.1,0.1,0.2c0.1,0.3,0.2,0.6,0.2,0.9v77.6c0,1.2-1,2.1-2.1,2.1h-9.6v2.3h9.6
			c2.4,0,4.4-2,4.4-4.4V13.7c0-0.4-0.1-0.7-0.1-1.1H96.9z"/>
	</g>
	<path class="st3" d="M98.6,11.1c-0.7-0.5-1.6-0.8-2.6-0.8h-8.3v2.3h8.3c0.3,0,0.6,0.1,0.9,0.2c0.7,0.3,1.2,1.1,1.2,1.9v77.6
		c0,1.2-1,2.1-2.1,2.1h-9.6V32.9c0-2.4-2-4.4-4.4-4.4H16.4V14.7c0-1.2,1-2.1,2.1-2.1h22.7v-2.3H18.5c-2.5,0-4.4,2-4.4,4.4v13.8H4.4
		c-2.5,0-4.4,2-4.4,4.4v77.6c0,2.4,2,4.4,4.4,4.4H82c2.4,0,4.4-2,4.4-4.4V96.6h9.6c2.4,0,4.4-2,4.4-4.4V14.7
		C100.5,13.2,99.8,11.9,98.6,11.1z M84.1,110.4c0,1.2-1,2.1-2.1,2.1H4.4c-1.2,0-2.1-0.9-2.1-2.1V39.9h81.8V110.4z M84.1,37.6H2.3
		v-4.7c0-1.2,0.9-2.1,2.1-2.1H82c1.2,0,2.1,1,2.1,2.1V37.6z"/>
	<path class="st5" d="M82,30.8H4.4c-1.2,0-2.1,1-2.1,2.1v4.7h81.8v-4.7C84.1,31.7,83.2,30.8,82,30.8z M65.6,35.8
		c-0.9,0-1.6-0.7-1.6-1.6s0.7-1.6,1.6-1.6c0.4,0,0.8,0.2,1.1,0.5c0.1,0.2,0.3,0.3,0.3,0.5c0.1,0.2,0.1,0.4,0.1,0.6
		C67.2,35.1,66.5,35.8,65.6,35.8z M72.2,35.8c-0.9,0-1.6-0.7-1.6-1.6s0.7-1.6,1.6-1.6c0.1,0,0.3,0,0.4,0.1c0.1,0,0.1,0,0.2,0.1
		c0.2,0.1,0.4,0.2,0.5,0.3c0.1,0.1,0.1,0.2,0.2,0.2c0.1,0.1,0.1,0.2,0.2,0.3c0,0.1,0.1,0.2,0.1,0.3c0,0.1,0,0.2,0,0.3c0,0,0,0,0,0.1
		C73.9,35.1,73.1,35.8,72.2,35.8z M78.9,35.8c-0.9,0-1.6-0.7-1.6-1.6s0.7-1.6,1.6-1.6c0.9,0,1.6,0.7,1.6,1.6S79.8,35.8,78.9,35.8z"
		/>
	<path class="st8" d="M58.8,88.7L58.8,88.7c0.2,0.2,0.5,0.4,0.8,0.4C59.3,89.1,59,88.9,58.8,88.7z"/>
	<path class="st3" d="M67.1,33.5c-0.1-0.2-0.2-0.4-0.3-0.5c-0.3-0.3-0.7-0.5-1.1-0.5c-0.9,0-1.6,0.7-1.6,1.6s0.7,1.6,1.6,1.6
		c0.9,0,1.6-0.7,1.6-1.6C67.2,33.9,67.2,33.7,67.1,33.5z"/>
	<path class="st3" d="M73.8,34.1c0-0.1,0-0.2,0-0.3c0-0.1,0-0.2-0.1-0.3c0-0.1-0.1-0.2-0.2-0.3c-0.1-0.1-0.1-0.2-0.2-0.2
		c-0.1-0.1-0.3-0.3-0.5-0.3c-0.1,0-0.1-0.1-0.2-0.1c-0.1,0-0.3-0.1-0.4-0.1c-0.9,0-1.6,0.7-1.6,1.6s0.7,1.6,1.6,1.6
		C73.1,35.8,73.9,35.1,73.8,34.1C73.9,34.1,73.9,34.1,73.8,34.1z"/>
	<path class="st3" d="M78.9,32.6c-0.9,0-1.6,0.7-1.6,1.6s0.7,1.6,1.6,1.6c0.9,0,1.6-0.7,1.6-1.6S79.8,32.6,78.9,32.6z"/>
	<path class="st3" d="M43.2,105.3h-33c-0.6,0-1.1,0.5-1.1,1.2c0,0.6,0.5,1.2,1.1,1.2h33c0.6,0,1.2-0.5,1.2-1.2
		C44.4,105.8,43.8,105.3,43.2,105.3z"/>
	<path class="st3" d="M23.8,71.1l17.4-17.5c4.3-4.4,11.4-4.4,15.8-0.1c0,0,0,0,0.1,0.1c1,1.1,1,2.9-0.1,4c-1.1,1.1-2.9,1.1-3.9,0
		c0,0,0,0,0,0l-0.3-0.3c-2.2-1.9-5.5-1.8-7.6,0.3L27.4,75.5c-1.2,1.1-2.9,1.1-4,0c-1.1-1.1-1.1-2.9,0-4
		C23.5,71.3,23.6,71.2,23.8,71.1L23.8,71.1z M62.9,71.5c-1.1-1.1-2.9-1.1-4,0c-0.1,0.1-0.3,0.3-0.4,0.5L41.2,89.4
		c-2.2,2.2-5.7,2.2-7.9,0c0,0,0,0,0,0l-0.1,0c-1.1-1.1-2.9-1.1-4,0c0,0,0,0,0,0c-1.1,1.1-1.1,2.9,0,4c0.1,0.1,0.3,0.3,0.4,0.4
		c4.4,4.1,11.3,3.9,15.5-0.4l17.8-17.9C64,74.3,64,72.6,62.9,71.5L62.9,71.5z M35.7,83c-1.3,0.8-1.7,2.6-0.8,3.9
		c0.1,0.2,0.2,0.3,0.4,0.5c1.1,1.1,2.9,1.1,4,0l17.8-17.9c2.2-2.2,5.7-2.2,7.9,0c0,0,0,0,0,0c2.2,2.2,2.2,5.8,0,8L48.1,94.5
		c2.2,2.2,5.7,2.2,7.9,0c0,0,0,0,0,0l13-13.1c4.4-4.4,4.4-11.5,0-15.9c-4.4-4.4-11.4-4.4-15.8-0.1c0,0,0,0-0.1,0.1L35.7,83L35.7,83z
		 M33.3,81.4L51,63.5c1.1-1.1,1.1-2.9,0-4c-1.1-1.1-2.9-1.1-3.9,0c-0.1,0.1-0.3,0.3-0.4,0.5L29.3,77.4c-2.2,2.2-5.7,2.2-7.9,0
		c0,0,0,0,0,0c-2.2-2.2-2.2-5.8,0-8l16.9-17.1c-2.2-2.2-5.7-2.2-7.9,0c0,0,0,0,0,0L17.4,65.5c-4.4,4.4-4.4,11.5,0,15.9
		C21.8,85.8,28.9,85.8,33.3,81.4C33.3,81.5,33.3,81.4,33.3,81.4z"/>
	<g>
		<path class="st6" d="M54.4,18.3c0.3,0.4,0.5,1,0.5,1.5c0,0.8-0.2,1.4-0.7,2c-0.1,0.1-0.1,0.1-0.2,0.2c-0.2,0.1-0.3,0.2-0.5,0.3
			c-0.1,0.1-0.2,0.1-0.3,0.2c-0.3,0.1-0.7,0.2-1.1,0.2c-0.1,0-0.2,0-0.3,0c-0.3,0-0.6-0.1-0.9-0.3c-0.2-0.1-0.4-0.3-0.6-0.4
			l-9.5-8.6l-0.1-0.1c-0.1-0.1-0.2-0.2-0.2-0.3c-0.1-0.1-0.2-0.2-0.2-0.4c0-0.1-0.1-0.1-0.1-0.2C40,12.2,40,11.8,40,11.4
			c0-0.4,0.1-0.8,0.2-1.1c0.2-0.3,0.4-0.7,0.7-0.9l9.5-8.6c0.1-0.1,0.3-0.2,0.4-0.3c0.1-0.1,0.3-0.2,0.5-0.2c0.1,0,0.2-0.1,0.2-0.1
			c0.1,0,0.2-0.1,0.2-0.1c0.2,0,0.3,0,0.5,0c0.3,0,0.6,0,0.8,0.1c0.2,0.1,0.4,0.1,0.5,0.2c0.1,0,0.1,0.1,0.2,0.1
			c0.2,0.1,0.3,0.3,0.5,0.4c0.5,0.5,0.8,1.2,0.7,2c0,0.6-0.2,1.1-0.5,1.5c-0.1,0.1-0.2,0.3-0.4,0.4l-5.9,5.4l-1.3,1.1l1.3,1.2
			l5.9,5.4c0.1,0.1,0.1,0.1,0.2,0.2C54.3,18.2,54.4,18.3,54.4,18.3z"/>
		<path class="st6" d="M70,3.8l-2.6,6.4l-0.9,2.3L62.9,21c-0.4,1-1.4,1.7-2.6,1.7c-0.4,0-0.7-0.1-1.1-0.2c-0.1-0.1-0.3-0.1-0.4-0.2
			c-0.2-0.1-0.3-0.2-0.5-0.4c-0.8-0.8-1.1-2-0.6-3.1l2.6-6.4l0.9-2.3l3.5-8.5c0.3-0.7,0.8-1.2,1.4-1.5c0.1-0.1,0.2-0.1,0.4-0.1
			c0.6-0.2,1.2-0.2,1.8,0.1C69.9,0.8,70.6,2.4,70,3.8z"/>
		<path class="st6" d="M89.3,11.4c0,0,0,0.1,0,0.2v0.1c0,0.1,0,0.2-0.1,0.4c0,0.2-0.1,0.3-0.2,0.5c0,0.1-0.1,0.2-0.1,0.2
			c-0.1,0.2-0.2,0.3-0.3,0.5c0,0.1-0.1,0.1-0.2,0.2L78.9,22c-0.1,0.1-0.3,0.2-0.4,0.3c-0.1,0.1-0.3,0.2-0.5,0.2
			c-0.3,0.1-0.7,0.2-1,0.2c-0.4,0-0.8-0.1-1.1-0.2c-0.2-0.1-0.3-0.2-0.5-0.3c-0.2-0.1-0.3-0.2-0.4-0.4c-0.5-0.6-0.8-1.2-0.7-2
			c0-0.7,0.4-1.4,0.9-1.9l5.9-5.4l1.1-1l0.2-0.2l-1.3-1.1l-5.9-5.4C75.1,4.8,75,4.7,75,4.6c-0.4-0.5-0.7-1.1-0.7-1.7
			c0-0.7,0.2-1.5,0.7-2c0.2-0.3,0.5-0.5,0.9-0.6c0.2-0.1,0.3-0.1,0.5-0.2c0.1,0,0.2,0,0.3-0.1c0,0,0.1,0,0.1,0c0,0,0.1,0,0.1,0h0.1
			c0.1,0,0.2,0,0.3,0c0.1,0,0.1,0,0.2,0c0.1,0,0.2,0,0.2,0.1c0.1,0,0.2,0,0.2,0.1c0.2,0.1,0.5,0.2,0.7,0.4c0.1,0.1,0.1,0.1,0.2,0.2
			l9.5,8.6c0.2,0.2,0.4,0.4,0.5,0.7c0,0.1,0.1,0.2,0.1,0.2c0,0.1,0.1,0.2,0.1,0.3c0,0.1,0.1,0.2,0.1,0.3c0,0.1,0,0.2,0,0.2
			C89.3,11.2,89.3,11.3,89.3,11.4z"/>
		<path class="st3" d="M68.5,0.2c-0.6-0.2-1.3-0.3-1.8-0.1c-0.1,0-0.3,0.1-0.4,0.1c-0.6,0.3-1.1,0.8-1.4,1.5l-3.5,8.5l-0.9,2.3
			l-2.6,6.4c-0.5,1.1-0.2,2.3,0.6,3.1c0.2,0.1,0.3,0.3,0.5,0.4c0.1,0.1,0.2,0.1,0.4,0.2c0.3,0.1,0.7,0.2,1.1,0.2
			c1.1,0,2.1-0.7,2.6-1.7l3.5-8.5l0.9-2.3L70,3.8C70.6,2.4,69.9,0.8,68.5,0.2z M68.4,3.2l-2.9,7.1l-1,2.3l-3.2,7.9
			c-0.2,0.5-0.9,0.8-1.4,0.6c-0.5-0.2-0.8-0.8-0.6-1.4l2.9-7.1l0.9-2.3l3.2-7.9c0.2-0.4,0.6-0.7,1-0.7c0.1,0,0.3,0,0.4,0.1
			C68.4,2,68.6,2.6,68.4,3.2z M89.2,11c0-0.1,0-0.2,0-0.2c0-0.1,0-0.2-0.1-0.3c0-0.1-0.1-0.2-0.1-0.3c0-0.1-0.1-0.2-0.1-0.2
			c-0.1-0.2-0.3-0.5-0.5-0.7l-9.5-8.6c-0.1-0.1-0.1-0.1-0.2-0.2c-0.2-0.1-0.4-0.3-0.7-0.4c-0.1,0-0.2-0.1-0.2-0.1
			c-0.1,0-0.2-0.1-0.2-0.1c-0.1,0-0.1,0-0.2,0c-0.1,0-0.2,0-0.3,0h-0.1c0,0-0.1,0-0.1,0c0,0-0.1,0-0.1,0c-0.1,0-0.2,0-0.3,0.1
			c-0.2,0-0.3,0.1-0.5,0.2c-0.3,0.2-0.6,0.4-0.9,0.6c-0.5,0.5-0.8,1.3-0.7,2c0,0.7,0.3,1.3,0.7,1.7c0.1,0.1,0.1,0.1,0.2,0.2l5.9,5.4
			l1.3,1.1l-0.2,0.2l-1.1,1l-5.9,5.4c-0.6,0.5-0.9,1.2-0.9,1.9c0,0.8,0.2,1.4,0.7,2c0.1,0.1,0.3,0.3,0.4,0.4
			c0.2,0.1,0.3,0.2,0.5,0.3c0.3,0.1,0.7,0.2,1.1,0.2c0.3,0,0.7-0.1,1-0.2c0.2-0.1,0.3-0.1,0.5-0.2c0.1-0.1,0.3-0.2,0.4-0.3l9.5-8.6
			c0.1-0.1,0.2-0.1,0.2-0.2c0.1-0.1,0.2-0.3,0.3-0.5c0-0.1,0.1-0.1,0.1-0.2c0.1-0.2,0.1-0.3,0.2-0.5c0-0.1,0.1-0.2,0.1-0.4v-0.1
			c0,0,0-0.1,0-0.2C89.3,11.3,89.3,11.2,89.2,11z M87.2,12.2l-0.4,0.4l-9,8.2c0,0-0.1,0.1-0.1,0.1C77.5,21,77.4,21,77.2,21
			c-0.1,0-0.3,0-0.4,0c-0.2,0-0.4-0.2-0.6-0.3C76.1,20.5,76,20.2,76,20c0-0.3,0.1-0.5,0.3-0.7v0l7.3-6.7l1.1-1l0.2-0.2l-1.3-1.1
			l-7.3-6.7C76.1,3.4,76,3.1,76,2.8c0-0.3,0.1-0.6,0.3-0.8c0-0.1,0.1-0.1,0.2-0.1c0.2-0.1,0.4-0.2,0.6-0.2H77c0.3,0,0.5,0.1,0.7,0.3
			l9,8.2l0.4,0.4c0.2,0.2,0.3,0.5,0.3,0.8c0,0,0,0.1,0,0.2C87.5,11.8,87.4,12,87.2,12.2z M54.2,18.1c-0.1-0.1-0.1-0.1-0.2-0.2
			l-5.9-5.4l-1.3-1.2l1.3-1.1l5.9-5.4c0.1-0.1,0.3-0.3,0.4-0.4c0.3-0.4,0.5-1,0.5-1.5c0-0.7-0.2-1.4-0.7-2c-0.2-0.2-0.3-0.3-0.5-0.4
			c-0.1,0-0.1-0.1-0.2-0.1c-0.2-0.1-0.3-0.2-0.5-0.2C52.7,0.1,52.5,0,52.2,0c-0.2,0-0.3,0-0.5,0c-0.1,0-0.2,0-0.2,0.1
			c-0.1,0-0.2,0-0.2,0.1c-0.2,0.1-0.3,0.1-0.5,0.2c-0.1,0.1-0.3,0.2-0.4,0.3l-9.5,8.6c-0.3,0.2-0.5,0.6-0.7,0.9
			C40,10.6,40,11,40,11.4c0,0.4,0.1,0.8,0.3,1.2c0,0.1,0.1,0.1,0.1,0.2c0.1,0.1,0.2,0.2,0.2,0.4c0.1,0.1,0.2,0.2,0.2,0.3l0.1,0.1
			l9.5,8.6c0.2,0.2,0.4,0.3,0.6,0.4c0.3,0.1,0.6,0.2,0.9,0.3c0.1,0,0.2,0,0.3,0c0.4,0,0.7-0.1,1.1-0.2c0.1,0,0.2-0.1,0.3-0.2
			c0.2-0.1,0.3-0.2,0.5-0.3c0.1-0.1,0.1-0.1,0.2-0.2c0.5-0.6,0.8-1.2,0.7-2c0-0.6-0.2-1.1-0.5-1.5C54.4,18.3,54.3,18.2,54.2,18.1z
			 M53,20.7c-0.4,0.4-1.1,0.4-1.5,0.1l-9.1-8.2L42,12.2c-0.2-0.2-0.3-0.5-0.3-0.8c0-0.3,0.1-0.6,0.3-0.8l0.4-0.4l9-8.2
			c0.2-0.2,0.5-0.3,0.7-0.3c0.3,0,0.6,0.1,0.8,0.3c0.2,0.2,0.3,0.5,0.3,0.8c0,0.3-0.1,0.5-0.3,0.7l-7.3,6.7l-1.3,1.1l1.3,1.2
			l7.3,6.7c0.2,0.2,0.3,0.5,0.3,0.7C53.3,20.2,53.2,20.5,53,20.7z"/>
	</g>
</g>
</svg>
