<?xml version="1.0" encoding="utf-8"?>
<!-- Generator: Adobe Illustrator 24.3.0, SVG Export Plug-In . SVG Version: 6.00 Build 0)  -->
<svg version="1.1" id="Layer_1" xmlns="http://www.w3.org/2000/svg" xmlns:xlink="http://www.w3.org/1999/xlink" x="0px" y="0px"
	 width="117.6px" height="117.5px" viewBox="0 0 117.6 117.5" style="enable-background:new 0 0 117.6 117.5;" xml:space="preserve"
	>
<style type="text/css">
	.st0{fill:#00C8FF;}
	.st1{fill-rule:evenodd;clip-rule:evenodd;fill:#00C8FF;}
	.st2{fill:#185AE9;}
	.st3{fill:#FFFFFF;}
	.st4{fill-rule:evenodd;clip-rule:evenodd;fill:#FFFFFF;}
	.st5{fill:#00B0FB;}
	.st6{fill:#00B0FB;fill-opacity:0.4;}
	.st7{fill:#E4ECF4;}
	.st8{fill:#FFE8A0;}
</style>
<g>
	<rect x="4.2" y="92.6" class="st2" width="109.5" height="3.9"/>
	<path class="st3" d="M110.3,26.8c-0.1,0-0.2-0.1-0.3-0.2V14.1c0-4.2-2.2-6.5-6.4-6.5c-12.1,0-24.1,0-36.2,0c-1,0-1.7-0.2-2.1-1.2
		c-0.5-1.2-1.3-2.4-1.9-3.5c-2.3-3.9-7-3.9-9.2,0c-0.7,1.2-1.4,2.5-2,3.7c-0.4,0.8-0.8,1-1.7,1c-12.2,0-24.4,0-36.6,0
		c-3.9,0-6.2,2.3-6.2,6.3v12.8c-0.2,0.1-0.2,0.1-0.4,0.2C2.3,28.5,0,31.7,0,36.9v51.6c0,6.2,4,10.1,10.2,10.1h27.7v7.6
		c-0.7,0-1.3,0-1.8,0c-2.7,0.1-5.1,1.8-5.4,4.4c-0.3,2.3-0.1,4.6-0.1,6.9h56.8c0-1.9,0-3.7,0-5.5c0-3.3-2.5-5.7-5.8-5.7
		c-0.6,0-1.1,0-1.7,0v-7.6h27.6c6.4,0,10.3-3.9,10.3-10.3V36.9C117.6,31.6,115.3,28.4,110.3,26.8z M110.1,30.9
		c2.1,0.6,3.6,2.6,3.7,4.9c0,0.8,0,1.7,0,2.5v41.3h-3.7V30.9z M103.5,11.4c2.2,0,2.8,0.5,2.8,2.7v8.6H71.6c0.1-0.4,0.1-0.7,0.2-1
		c0.5-1.7,0.2-3.4-0.7-4.9c-1-1.8-1.9-3.5-3-5.4H103.5z M51.2,26.6V39c-1.2,0.4-2.4,0.9-3.7,1.4V38H15.3v3.7h29.5
		c-12.5,8-16.5,24.9-7.8,37.9H11.5V26.6H51.2z M51.2,51.5v16.7h-7C42.2,62.5,45.5,54.5,51.2,51.5z M40,62.5h-3.8
		c0.4-4.8,2.2-9,5.2-12.7c0.9,0.9,1.7,1.8,2.6,2.8C41.8,55.5,40.4,58.8,40,62.5z M48.7,48.5c-0.7,0.2-1.2,0.8-1.8,1.2
		c-0.8-0.9-1.7-1.8-2.7-2.9c2.2-1.3,4.5-2.6,6.9-4c0.1,0.5,0.1,0.5,0.2,0.5C51.5,45.7,51.4,47.7,48.7,48.5z M36.3,66.5h3.7
		c0.7,5.3,3.1,9.7,7.5,13.2c-2,0-3.7,0-5.4,0c-0.2,0-0.3-0.2-0.5-0.3C38.9,76.8,36.2,70.3,36.3,66.5z M45.7,72.2h26.2
		c-3.1,4.8-7.4,7.4-13,7.5C53.2,79.7,48.9,77.1,45.7,72.2z M73.6,52.7c0.9-1,1.8-1.9,2.6-2.8c3.1,3.7,4.8,7.9,5.2,12.7h-3.8
		C77.2,58.9,75.9,55.5,73.6,52.7z M73.5,68.2h-7V51.7C70.7,53.3,75.7,60.8,73.5,68.2z M70.8,49.7c-1.3-0.8-2.7-1.5-4-2.3
		c-0.2-0.1-0.4-0.5-0.5-0.7c0-1.1,0-2.3,0-3.9c2.6,1.5,4.8,2.8,7.2,4.1C72.5,48,71.7,48.9,70.8,49.7z M77.7,66.5h3.8
		c-0.4,4.9-2.3,9.2-5.4,12.9c-0.2,0.2-0.5,0.3-0.8,0.3c-1.6,0-3.1,0-5,0C74.5,76.1,77,71.8,77.7,66.5z M83.8,55.7
		c-3-8.4-9-13.8-17.4-16.6V26.6h39.7v53H80.7C85.5,72.1,86.8,64.1,83.8,55.7z M57.5,4.7c0.7-1.2,1.9-1.2,2.6,0
		c2.6,4.7,5.2,9.4,7.8,14.1c1,1.9-0.2,3.9-2.3,3.9c-0.9,0-1.9,0-2.9,0v45.5H55V22.8c-1,0-2,0-2.9,0c-2.2-0.1-3.4-2-2.4-4
		C52.3,14.1,54.9,9.4,57.5,4.7z M30.4,22.7h-3.8 M15.2,22.7h-3.8c0-3.2,0-6.4,0-9.6c0-1,0.7-1.5,1.7-1.7c0.2,0,0.5,0,0.7,0h35.6
		c-0.9,1.7-1.7,3.2-2.6,4.7c-1.2,2.1-1.8,4.2-0.8,6.6h-4.3 M3.8,36.4c0-2.7,1.3-4.7,3.8-5.6v48.8H3.9c0-0.3-0.1-0.7-0.1-1.1V36.4z
		 M80.1,110c3.1,0,3.5,0.5,3.3,3.8H34.2c0-0.7-0.1-1.4,0-2.1c0.1-1,0.9-1.6,2.1-1.6c2.7,0,5.4,0,8.2,0H80.1z M41.8,106.2v-7.5h34
		v7.5H41.8z M113.5,91c-0.4,2.2-2.7,3.7-5,3.9c-0.4,0-0.8,0-1.2,0c-32.3,0-64.6,0-96.9,0c-4.4,0-6.6-2.2-6.6-6.6v-4.7H114
		C113.8,86,113.9,88.5,113.5,91z"/>
	<path class="st5" d="M62.7,68.3c-2.6,0-5.1,0-7.6,0c0-15.1,0-30.2,0-45.5c-1,0-2,0-2.9,0c-2.2-0.1-3.5-2-2.4-4
		c2.6-4.7,5.2-9.4,7.8-14.1c0.7-1.2,1.9-1.2,2.6,0c2.6,4.7,5.2,9.4,7.8,14.1c1,1.9-0.2,3.8-2.3,3.9c-0.9,0-1.9,0-2.9,0
		C62.7,37.9,62.7,53,62.7,68.3z"/>
	<path class="st6" d="M41.8,98.7c11.3,0,22.6,0,34,0c0,2.5,0,4.9,0,7.5c-11.3,0-22.6,0-34,0C41.8,103.7,41.8,101.3,41.8,98.7z"/>
	<path class="st6" d="M7.6,30.8c0,16.3,0,32.5,0,48.8c-1.2,0-2.4,0-3.7,0c0-0.3-0.1-0.7-0.1-1.1c0-14,0-28,0-42.1
		C3.8,33.7,5.1,31.7,7.6,30.8z"/>
	<path class="st6" d="M110.1,30.9c2.1,0.6,3.6,2.6,3.7,4.9c0,0.8,0,1.7,0,2.5c0,13.3,0,26.5,0,39.8c0,0.5,0,0.9,0,1.5
		c-1.2,0-2.4,0-3.7,0C110.1,63.4,110.1,47.2,110.1,30.9z"/>
	<path class="st5" d="M36.3,66.5c1.2,0,2.3,0,3.6,0c0.7,5.3,3.1,9.6,7.5,13.2c-2,0-3.7,0-5.4,0c-0.2,0-0.3-0.2-0.5-0.3
		C38.9,76.8,36.2,70.4,36.3,66.5z"/>
	<path class="st5" d="M77.7,66.5c1.3,0,2.5,0,3.8,0c-0.4,4.9-2.3,9.2-5.4,12.9c-0.2,0.2-0.5,0.3-0.8,0.3c-1.6,0-3.1,0-5,0
		C74.5,76.1,77.1,71.8,77.7,66.5z"/>
	<path class="st5" d="M41.4,49.8c0.9,0.9,1.7,1.8,2.6,2.8c-2.2,2.9-3.6,6.2-4.1,9.9c-1.3,0-2.5,0-3.8,0
		C36.6,57.7,38.3,53.6,41.4,49.8z"/>
	<path class="st5" d="M73.6,52.7c0.9-1,1.8-1.9,2.6-2.8c3.1,3.7,4.8,7.9,5.2,12.7c-1.3,0-2.5,0-3.8,0C77.2,58.9,75.9,55.5,73.6,52.7
		z"/>
	<path class="st5" d="M51,42.9c0.1,0.5,0.1,0.5,0.2,0.5c0.3,2.3,0.2,4.3-2.5,5.1c-0.6,0.2-1.2,0.8-1.8,1.2c-0.8-0.9-1.7-1.8-2.7-2.9
		C46.4,45.6,48.6,44.2,51,42.9z"/>
	<path class="st5" d="M73.6,46.9c-1.1,1.1-2,2-2.8,2.8c-1.3-0.8-2.7-1.5-4-2.3c-0.2-0.1-0.4-0.5-0.4-0.7c0-1.1,0-2.3,0-3.8
		C69,44.2,71.3,45.5,73.6,46.9z"/>
	<rect x="22.9" y="30.4" class="st3" width="24.5" height="3.6"/>
	<rect x="15.3" y="30.4" class="st3" width="3.7" height="3.7"/>
	<path class="st3" d="M53.1,89.2c0,1-0.9,1.9-1.9,1.9s-1.9-0.9-1.9-1.9c0-1,0.9-1.9,1.9-1.9C52.3,87.3,53.1,88.2,53.1,89.2z"/>
	<path class="st3" d="M60.7,89.2c0,1-0.9,1.9-1.9,1.9c-1,0-1.9-0.9-1.9-1.9c0-1,0.9-1.9,1.9-1.9C59.9,87.3,60.7,88.1,60.7,89.2z"/>
	<path class="st3" d="M68.3,89.1c0,1-0.8,1.9-1.9,1.9c-1,0-1.9-0.8-1.9-1.9c0-1,0.8-1.9,1.9-1.9C67.4,87.3,68.3,88.1,68.3,89.1z"/>
</g>
</svg>
