<?xml version="1.0" encoding="utf-8"?>
<!-- Generator: Adobe Illustrator 24.3.0, SVG Export Plug-In . SVG Version: 6.00 Build 0)  -->
<svg version="1.1" id="Layer_1" xmlns="http://www.w3.org/2000/svg" xmlns:xlink="http://www.w3.org/1999/xlink" x="0px" y="0px"
	 viewBox="0 0 165.99 166.6" style="enable-background:new 0 0 165.99 166.6;" xml:space="preserve">
<style type="text/css">
	.st0{fill:#00B0FB;fill-opacity:0.4;}
	.st1{fill:#FFFFFF;}
	.st2{fill:#00B0FB;}
	
		.st3{fill:#00B0FB;fill-opacity:0.4;stroke:#FFFFFF;stroke-width:4.0426;stroke-linecap:round;stroke-linejoin:round;stroke-miterlimit:10;}
	.st4{fill:none;stroke:#FFFFFF;stroke-width:4.0426;stroke-linecap:round;stroke-linejoin:round;stroke-miterlimit:10;}
	.st5{fill:none;}
	.st6{fill:#3C7CFF;}
	.st7{fill:#001135;}
	.st8{fill:#FFFFFF;stroke:#FFFFFF;stroke-width:4;stroke-miterlimit:10;}
	.st9{fill:none;stroke:#FFFFFF;stroke-width:4.4475;stroke-linecap:round;stroke-linejoin:round;}
</style>
<g>
	<polygon class="st0" points="5.06,20.03 5.06,53.03 161.06,53.03 161.06,21.28 	"/>
	<g>
		<path class="st1" d="M20.47,18.26c0-4.26-0.02-8.12,0.01-11.98c0.02-2.88,0.78-3.67,3.64-3.68c4.58-0.03,9.16-0.03,13.73,0
			c2.6,0.02,3.44,0.84,3.44,3.39c0.03,8.13,0.03,16.25,0,24.38c-0.01,2.62-0.79,3.42-3.38,3.44c-4.66,0.04-9.31,0.04-13.97,0
			c-2.68-0.02-3.44-0.84-3.47-3.6c-0.02-2.12,0-4.24,0-6.55c-4.34,0-8.53,0-12.87,0c0,8.51,0,16.92,0,25.56c50.2,0,100.4,0,150.76,0
			c0-8.53,0-17,0-25.76c-2.32,0-8.5-0.05-10.69-0.04c-1.84,0.01-3.44-0.44-3.47-2.62c-0.02-2.22,1.59-2.61,3.43-2.59
			c3,0.03,9.99,0.07,12.99,0.05c2.05-0.02,3.08,0.95,3.09,3c0,0.47,0.01,0.95,0.01,1.42c0,42.29-0.02,84.58,0.03,126.88
			c0,4.23-0.99,7.95-4.13,10.91c-2.46,2.31-5.39,3.51-8.78,3.53c-3.24,0.03-6.47,0.02-9.71,0.02c-41.52,0-83.03,0-124.55,0
			c-7.22,0-11.91-3.2-13.81-9.53c-0.42-1.4-0.51-2.95-0.51-4.43C2.24,107.45,2.24,64.84,2.24,22.23c0-3.41,0.58-3.96,4.03-3.97
			C10.91,18.26,15.55,18.26,20.47,18.26z M158.42,54.89c-50.42,0-100.62,0-150.85,0c-0.05,0.7-0.12,1.17-0.12,1.64
			c0,31.32-0.02,62.65,0.01,93.97c0.01,5.27,3.25,8.31,8.75,8.31c44.51,0.01,89.03,0.01,133.54-0.01c1.24,0,2.55-0.12,3.7-0.54
			c3.45-1.27,5.05-3.94,5.05-8.23c0.01-31.01,0.01-62.02,0-93.03C158.51,56.38,158.46,55.75,158.42,54.89z M35.93,28.55
			c0-7,0-13.8,0-20.63c-3.44,0-6.72,0-10.12,0c0,6.92,0,13.71,0,20.63C29.21,28.55,32.48,28.55,35.93,28.55z"/>
		<path class="st1" d="M72.56,18.26c0-4.24-0.02-8.18,0.01-12.11c0.02-2.72,0.81-3.54,3.52-3.56c4.57-0.03,9.14-0.03,13.71,0
			c2.78,0.02,3.58,0.78,3.59,3.48c0.02,8.11,0.02,16.23,0,24.34c-0.01,2.57-0.82,3.38-3.42,3.4c-4.65,0.04-9.3,0.04-13.95,0
			c-2.67-0.02-3.43-0.85-3.46-3.61c-0.02-2.12,0-4.23,0-6.61c-0.96-0.05-1.79-0.12-2.61-0.12c-7.17-0.01-14.34,0-21.51-0.01
			c-0.63,0-5.92-0.02-6.54-0.09c-1.64-0.19-2.65-1.08-2.55-2.79c0.1-1.6,1.15-2.34,2.7-2.35c4.1-0.02,12.85,0.03,16.94,0.03
			C63.4,18.26,67.8,18.26,72.56,18.26z M88.01,28.56c0-7.03,0-13.83,0-20.63c-3.46,0-6.73,0-10.09,0c0,6.93,0,13.72,0,20.63
			C81.33,28.56,84.6,28.56,88.01,28.56z"/>
		<path class="st1" d="M124.66,18.26c0-4.15-0.01-7.92,0-11.7c0.01-3.24,0.68-3.95,3.83-3.97c4.49-0.02,8.98-0.03,13.48,0
			c2.72,0.02,3.52,0.82,3.52,3.54c0.02,8.04,0.02,16.07,0,24.11c-0.01,2.75-0.78,3.55-3.49,3.57c-4.65,0.03-9.3,0.04-13.95,0
			c-2.56-0.02-3.35-0.85-3.39-3.44c-0.03-2.19-0.01-4.38-0.01-6.77c-1.01-0.05-1.85-0.13-2.68-0.13c-7.25-0.01-14.5,0-21.75-0.01
			c-0.78,0-6.59,0.16-7.08-0.25c-0.8-0.67-1.71-1.75-1.72-2.66c-0.01-0.74,1.15-1.64,1.98-2.17c0.51-0.33,6.17-0.11,6.87-0.11
			c7.17-0.01,14.34,0,21.51,0C122.65,18.26,123.51,18.26,124.66,18.26z M140.18,7.98c-3.5,0-6.82,0-10.22,0c0,6.93,0,13.66,0,20.55
			c3.43,0,6.77,0,10.22,0C140.18,21.67,140.18,14.94,140.18,7.98z"/>
		<path class="st2" d="M35.93,28.55c-3.45,0-6.73,0-10.12,0c0-6.92,0-13.71,0-20.63c3.4,0,6.68,0,10.12,0
			C35.93,14.75,35.93,21.55,35.93,28.55z"/>
		<path class="st2" d="M88.01,28.56c-3.4,0-6.68,0-10.09,0c0-6.91,0-13.7,0-20.63c3.36,0,6.63,0,10.09,0
			C88.01,14.73,88.01,21.53,88.01,28.56z"/>
		<path class="st2" d="M140.18,7.98c0,6.95,0,13.68,0,20.55c-3.45,0-6.78,0-10.22,0c0-6.88,0-13.62,0-20.55
			C133.35,7.98,136.68,7.98,140.18,7.98z"/>
		<path class="st0" d="M83,148.4c-2.29,0-4.58,0.03-6.86-0.01c-2.76-0.04-3.53-0.8-3.56-3.51c-0.03-2.37-0.12-4.74,0.04-7.09
			c0.1-1.49-0.7-2.07-1.82-2.22c-0.76-0.1-1.79,0.08-2.34,0.56c-1.83,1.61-3.52,3.39-5.23,5.13c-1.48,1.51-2.98,1.67-4.52,0.14
			c-3.47-3.45-6.93-6.9-10.37-10.37c-1.42-1.43-1.43-2.89,0.01-4.33c1.73-1.73,3.4-3.52,5.21-5.16c0.99-0.9,1.34-1.85,0.54-2.85
			c-0.54-0.68-1.46-1.39-2.26-1.45c-2.43-0.19-4.89-0.09-7.33-0.07c-2.17,0.02-3.18-1.08-3.18-3.2c0-4.81,0-9.62,0-14.43
			c0-2.12,1.03-3.21,3.19-3.19c2.37,0.02,4.73-0.04,7.1,0.01c1.21,0.03,2.07-0.2,2.57-1.5c0.47-1.22,0.29-2.01-0.67-2.89
			c-1.74-1.59-3.34-3.34-5.04-5c-1.52-1.48-1.65-2.97-0.12-4.5c3.45-3.46,6.91-6.92,10.37-10.37c1.44-1.43,2.91-1.38,4.35,0.04
			c1.79,1.78,3.51,3.64,5.39,5.3c0.53,0.47,1.57,0.61,2.33,0.51c1.15-0.15,1.9-0.75,1.81-2.23c-0.15-2.43-0.08-4.89-0.03-7.33
			c0.05-2.42,0.87-3.26,3.32-3.28c4.73-0.04,9.47-0.04,14.2,0c2.43,0.02,3.25,0.87,3.29,3.3c0.04,2.44,0.13,4.9-0.03,7.33
			c-0.1,1.5,0.71,2.06,1.84,2.21c0.76,0.1,1.81-0.04,2.34-0.51c1.88-1.67,3.6-3.53,5.38-5.31c1.44-1.44,2.91-1.45,4.34-0.02
			c3.47,3.45,6.92,6.91,10.38,10.37c1.55,1.55,1.37,3.03-0.13,4.51c-1.69,1.66-3.29,3.4-5.03,5c-0.96,0.88-1.16,1.66-0.67,2.89
			c0.51,1.3,1.36,1.52,2.57,1.49c2.37-0.05,4.73,0,7.1-0.01c2.16-0.01,3.18,1.07,3.18,3.2c-0.01,4.81-0.01,9.62,0,14.43
			c0,2.13-1.01,3.21-3.18,3.19c-2.13-0.02-4.26-0.01-6.39,0.01c-1.3,0.01-2.56-0.28-3.3,1.46c-0.73,1.71,0.23,2.46,1.18,3.39
			c1.57,1.55,3.14,3.1,4.7,4.67c1.43,1.44,1.43,2.9,0,4.34c-3.45,3.46-6.9,6.93-10.37,10.37c-1.53,1.52-3.04,1.37-4.52-0.15
			c-1.76-1.81-3.51-3.63-5.39-5.31c-0.48-0.42-1.59-0.62-2.14-0.35c-0.75,0.37-1.69,1.23-1.75,1.95c-0.21,2.51-0.05,5.04-0.09,7.56
			c-0.04,2.44-0.84,3.24-3.29,3.29C87.73,148.43,85.36,148.4,83,148.4z M83.05,132.77c14.38-0.04,26-11.71,25.98-26.08
			C109,92.35,97.27,80.67,82.93,80.71c-14.35,0.04-26.02,11.76-26,26.09C56.96,121.13,68.7,132.8,83.05,132.77z M64.17,80.89
			c-0.81-0.9-1.97-2.17-3.13-3.45c-2.45,2.54-4.78,4.95-7.03,7.28c1.01,1.14,2.19,2.47,3.01,3.39
			C59.51,85.59,61.82,83.26,64.17,80.89z M108.96,125.45c-2.55,2.54-4.88,4.86-7,6.97c0.81,0.9,2,2.21,3.03,3.35
			c2.41-2.35,4.8-4.67,7.17-6.96C110.97,127.56,109.79,126.33,108.96,125.45z M53.92,128.54c2.44,2.54,4.77,4.96,7.19,7.47
			c1.19-1.23,2.38-2.47,3.07-3.2c-2.33-2.44-4.64-4.87-7.12-7.45C56.13,126.31,54.88,127.57,53.92,128.54z M112.07,84.83
			c-2.37-2.44-4.7-4.84-7.13-7.33c-1.18,1.22-2.36,2.45-3.14,3.26c2.36,2.38,4.72,4.76,7.18,7.24
			C109.79,87.16,111.02,85.9,112.07,84.83z M88.08,70.48c-3.51,0-6.84,0-10.12,0c0,1.87,0,3.55,0,5.14c3.47,0,6.74,0,10.12,0
			C88.08,73.91,88.08,72.29,88.08,70.48z M88.07,137.87c-3.44,0-6.77,0-10.15,0c0,1.79,0,3.47,0,5.13c3.48,0,6.8,0,10.15,0
			C88.07,141.18,88.07,139.56,88.07,137.87z M46.64,111.71c1.93,0,3.68,0,5.27,0c0-3.42,0-6.61,0-9.99c-1.66,0-3.4,0-5.27,0
			C46.64,105.05,46.64,108.32,46.64,111.71z M119.32,101.72c-1.92,0-3.61,0-5.26,0c0,3.44,0,6.7,0,10.09c1.75,0,3.44,0,5.26,0
			C119.32,108.42,119.32,105.14,119.32,101.72z"/>
		<path class="st2" d="M83.05,132.77c-14.35,0.04-26.08-11.63-26.11-25.96c-0.03-14.34,11.65-26.05,26-26.09
			c14.34-0.04,26.07,11.64,26.09,25.98C109.05,121.06,97.42,132.73,83.05,132.77z M82.97,122.34c8.65,0.02,15.65-6.97,15.64-15.62
			c-0.01-8.53-6.92-15.49-15.46-15.57c-8.61-0.09-15.73,6.92-15.78,15.52C67.32,115.27,74.34,122.32,82.97,122.34z"/>
		<path class="st1" d="M82.97,122.34c-8.63-0.02-15.65-7.07-15.6-15.67c0.05-8.6,7.17-15.6,15.78-15.52
			c8.55,0.09,15.45,7.04,15.46,15.57C98.62,115.36,91.62,122.35,82.97,122.34z M82.96,117.13c5.73,0.02,10.39-4.58,10.43-10.3
			c0.04-5.72-4.55-10.41-10.26-10.48c-5.8-0.07-10.58,4.65-10.56,10.43C72.59,112.48,77.24,117.11,82.96,117.13z"/>
	</g>
</g>
</svg>
