<?xml version="1.0" encoding="utf-8"?>
<!-- Generator: Adobe Illustrator 24.3.0, SVG Export Plug-In . SVG Version: 6.00 Build 0)  -->
<svg version="1.1" id="Layer_1" xmlns="http://www.w3.org/2000/svg" xmlns:xlink="http://www.w3.org/1999/xlink" x="0px" y="0px"
	 viewBox="0 0 165.99 166.6" style="enable-background:new 0 0 165.99 166.6;" xml:space="preserve">
<style type="text/css">
	.st0{fill:#FFFFFF;}
	.st1{fill:#00B0FB;fill-opacity:0.4;}
	.st2{fill:#00B0FB;}
</style>
<g>
	<path class="st0" d="M65.13,138.93c0-1.75,0-3.46,0-5.47c-0.99,0-1.88,0-2.77,0c-7.01,0-14.02,0.03-21.02-0.01
		c-6.21-0.03-9.27-3.12-9.27-9.29c-0.01-11.71,0-23.41,0-35.12c0-0.88,0-1.77,0-2.84c-4.04,0-7.81-0.15-11.57,0.06
		c-2,0.11-3.31,1.54-3.33,3.65c-0.06,6.92-0.1,13.85,0.06,20.77c0.02,0.74,1.24,1.7,2.11,2.12c8.1,3.92,9.16,14.81,1.88,19.92
		c-5.52,3.87-13,2.23-16.52-3.62c-3.39-5.63-1.29-13.22,4.76-15.96c2.3-1.04,2.85-2.27,2.78-4.59c-0.17-5.68-0.06-11.38-0.05-17.06
		c0.01-6.88,3.31-10.2,10.11-10.21c3.13,0,6.26,0,9.58,0c0-7.46,0-14.81,0-22.42c-2,0-3.98-0.17-5.9,0.09
		c-0.69,0.09-1.39,1.16-1.8,1.93c-2.47,4.6-7.61,6.75-12.36,5.08c-4.93-1.74-7.64-6.64-6.56-11.84c0.83-3.98,3.98-6.91,8.33-7.76
		c3.62-0.71,8.29,1.02,9.89,4.57c1.31,2.92,3.15,3.31,5.75,3.05c0.81-0.08,1.63-0.01,2.86-0.01c0-3.97-0.03-7.81,0.01-11.64
		c0.04-4.1,2.18-7.03,5.95-8.11c1.01-0.29,2.11-0.36,3.17-0.36c5.02-0.04,10.05-0.02,15.47-0.02c0-2.99,0.1-5.84-0.09-8.68
		c-0.04-0.56-1.15-1.17-1.88-1.54c-4.91-2.48-7.29-7.78-5.69-12.86c1.54-4.93,6.57-8.02,11.8-7.26c4.36,0.64,8.08,4.29,8.75,8.59
		c0.78,4.97-1.49,9.45-6.13,11.53c-1.4,0.63-1.82,1.3-1.76,2.72c0.09,2.38,0.03,4.76,0.03,7.32c9.85,0,19.53,0,29.55,0
		c0-1.64,0.22-3.31-0.09-4.87c-0.16-0.77-1.2-1.53-2.01-1.98c-3.98-2.2-6.17-6.43-5.44-10.74c0.72-4.22,4.19-7.67,8.38-8.35
		c4.27-0.69,8.45,1.4,10.57,5.28c2.49,4.55,1.09,10.76-3.55,13.14c-2.68,1.38-3.18,3.06-2.87,5.58c0.07,0.57,0.07,1.15,0.12,2.11
		c0.9,0,1.76,0,2.63,0c7.83,0,15.66-0.01,23.5,0c5.81,0.01,9.08,3.23,9.09,8.98c0.02,7.67,0.01,15.33,0.01,23c0,0.89,0,1.77,0,2.91
		c4.83,0,9.42,0.11,14-0.05c1.91-0.07,3.27-1.43,3.29-3.41c0.1-7.09,0.1-14.18,0-21.27c-0.01-0.56-0.97-1.32-1.64-1.63
		c-4.25-1.95-6.84-5.12-7.2-9.83c-0.36-4.81,1.69-8.52,5.83-10.91c5.72-3.3,13.18-0.88,15.96,5.04c2.84,6.05,0.16,13.17-6.04,15.57
		c-1.5,0.58-1.96,1.24-1.94,2.81c0.09,6.35,0.07,12.7,0.03,19.04c-0.04,6.05-3.68,9.67-9.72,9.71c-4.1,0.03-8.2,0.01-12.43,0.01
		c0,9.38,0,18.48,0,27.92c2.06,0,4.03,0.17,5.94-0.09c0.68-0.09,1.39-1.12,1.79-1.87c2.02-3.8,6.03-6.05,10.21-5.6
		c4.12,0.44,7.5,3.32,8.68,7.39c1.14,3.95-0.3,8.19-3.68,10.77c-4.87,3.73-11.97,2.32-14.82-3.23c-1.05-2.04-2.22-2.69-4.31-2.46
		c-1.2,0.13-2.43,0.02-3.95,0.02c0,3.39,0,6.49,0,9.6c0,2.8,0.01,5.61,0,8.41c-0.04,5.42-3.11,8.65-8.53,8.75
		c-5.6,0.1-11.21,0.02-16.82,0.03c-0.89,0-1.77,0.07-2.84,0.12c0,2.6-0.13,4.99,0.08,7.34c0.06,0.67,1.01,1.49,1.74,1.84
		c5.08,2.41,7.55,7.88,5.83,13.19c-1.58,4.9-6.77,7.98-11.89,7.06c-4.48-0.8-8.07-4.52-8.7-8.98c-0.64-4.56,1.81-9.16,6.19-11.05
		c1.47-0.64,2-1.35,1.91-2.89c-0.12-2.11-0.03-4.24-0.03-6.5c-9.5,0-18.7,0-28.26,0c0,1.53-0.15,3,0.07,4.41
		c0.09,0.58,0.9,1.2,1.53,1.51c4.3,2.11,6.79,6.63,5.92,10.9c-0.99,4.85-4.69,8.24-9.29,8.51c-4.85,0.29-8.95-2.6-10.45-7.37
		c-1.39-4.41,0.78-9.45,5.07-11.73C63.73,139.5,64.42,139.25,65.13,138.93z M126.66,83.52c0-13.35,0.01-26.71,0-40.06
		c0-3.74-0.92-4.65-4.69-4.65c-26.79-0.01-53.59-0.01-80.38,0c-3.68,0-4.64,0.99-4.64,4.71c0,26.79,0,53.59,0,80.38
		c0,3.72,0.91,4.62,4.71,4.62c26.79,0.01,53.59,0.01,80.38,0c3.8,0,4.62-0.84,4.62-4.7C126.66,110.39,126.66,96.96,126.66,83.52z
		 M151.53,38.2c3.63-0.04,6.57-3.05,6.49-6.65c-0.08-3.6-3.12-6.55-6.7-6.49c-3.55,0.06-6.54,3.15-6.49,6.71
		C144.88,35.38,147.87,38.24,151.53,38.2z M14.65,116.8c-3.74-0.02-6.64,2.84-6.63,6.52c0.01,3.7,2.9,6.51,6.65,6.48
		c3.62-0.03,6.44-2.79,6.51-6.38C21.25,119.77,18.33,116.82,14.65,116.8z M64.78,14.06c0.04-3.13-2.4-5.63-5.54-5.71
		c-3.15-0.08-5.92,2.61-5.88,5.7c0.04,3.03,2.65,5.56,5.74,5.57C62.25,19.62,64.74,17.18,64.78,14.06z M95.36,152.63
		c0.02,3.19,2.48,5.65,5.64,5.62c3.14-0.02,5.65-2.56,5.63-5.69c-0.02-3.16-2.5-5.59-5.7-5.57C97.71,147,95.34,149.4,95.36,152.63z
		 M67.72,143.84c-3.07,0-5.1,2.02-5.08,5.04c0.02,2.89,2.32,5.17,5.17,5.14c2.82-0.03,5.17-2.42,5.15-5.23
		C72.94,145.91,70.74,143.84,67.72,143.84z M20.23,56.46c0.03-2.88-2.24-5.23-5.08-5.27c-2.76-0.04-5.29,2.38-5.34,5.12
		c-0.05,2.74,2.39,5.21,5.19,5.24C17.89,61.59,20.2,59.34,20.23,56.46z M148.61,99.08c-2.88-0.02-5.17,2.24-5.19,5.12
		c-0.02,2.87,2.27,5.24,5.09,5.28c2.78,0.04,5.21-2.36,5.24-5.17C153.78,101.49,151.44,99.1,148.61,99.08z M98.85,17.73
		c-0.01-2.83-2.38-5.2-5.18-5.19c-2.78,0.01-5.2,2.45-5.19,5.23c0.01,2.82,2.36,5.1,5.23,5.09C96.65,22.85,98.86,20.65,98.85,17.73z
		"/>
	<path class="st1" d="M151.53,38.2c-3.66,0.04-6.65-2.82-6.7-6.43c-0.05-3.56,2.93-6.65,6.49-6.71c3.58-0.06,6.62,2.89,6.7,6.49
		C158.09,35.15,155.16,38.15,151.53,38.2z"/>
	<path class="st1" d="M14.65,116.8c3.68,0.02,6.6,2.97,6.54,6.62c-0.07,3.59-2.89,6.36-6.51,6.38c-3.75,0.03-6.64-2.79-6.65-6.48
		C8.01,119.64,10.91,116.79,14.65,116.8z"/>
	<path class="st1" d="M64.78,14.06c-0.04,3.12-2.53,5.56-5.67,5.56c-3.09-0.01-5.7-2.54-5.74-5.57c-0.04-3.09,2.72-5.78,5.88-5.7
		C62.38,8.43,64.82,10.93,64.78,14.06z"/>
	<path class="st1" d="M95.36,152.63c-0.02-3.23,2.35-5.63,5.58-5.64c3.2-0.02,5.68,2.41,5.7,5.57c0.02,3.13-2.49,5.67-5.63,5.69
		C97.84,158.27,95.38,155.81,95.36,152.63z"/>
	<path class="st1" d="M67.72,143.84c3.02,0,5.21,2.07,5.24,4.96c0.02,2.81-2.33,5.2-5.15,5.23c-2.85,0.03-5.14-2.26-5.17-5.14
		C62.62,145.86,64.65,143.84,67.72,143.84z"/>
	<path class="st1" d="M20.23,56.46c-0.03,2.88-2.34,5.13-5.23,5.09c-2.8-0.04-5.25-2.5-5.19-5.24c0.05-2.74,2.58-5.16,5.34-5.12
		C17.99,51.23,20.25,53.58,20.23,56.46z"/>
	<path class="st1" d="M148.61,99.08c2.83,0.02,5.17,2.41,5.13,5.23c-0.03,2.81-2.46,5.2-5.24,5.17c-2.82-0.04-5.11-2.41-5.09-5.28
		C143.44,101.32,145.74,99.06,148.61,99.08z"/>
	<path class="st1" d="M98.85,17.73c0.01,2.91-2.2,5.12-5.14,5.13c-2.87,0.01-5.23-2.28-5.23-5.09c-0.01-2.78,2.41-5.21,5.19-5.23
		C96.47,12.53,98.84,14.9,98.85,17.73z"/>
	<path class="st0" d="M120.72,83.65c0.02,21.6-17.29,39.05-38.8,39.13c-21.44,0.08-38.97-17.41-39.02-38.93
		c-0.06-21.73,17.29-39.17,38.96-39.17C103.44,44.68,120.71,61.99,120.72,83.65z M47.77,83.77c0.03,18.74,15.2,33.95,33.95,34
		c18.83,0.06,34.15-15.2,34.19-34.06c0.04-18.85-15.21-34.09-34.1-34.1C62.96,49.62,47.74,64.89,47.77,83.77z"/>
	<path class="st2" d="M47.77,83.77c-0.03-18.89,15.19-34.15,34.04-34.15c18.9,0,34.14,15.25,34.1,34.1
		c-0.04,18.86-15.36,34.12-34.19,34.06C62.97,117.72,47.79,102.52,47.77,83.77z M75.2,81.29c0-3.28,0-6.37,0-9.84
		c4.19,0,8.29-0.04,12.38,0.05c0.44,0.01,0.81,0.91,1.32,1.15c0.95,0.44,2.22,1.21,2.92,0.89c0.76-0.35,1.43-1.79,1.43-2.75
		c-0.01-2.34-2.22-4.09-4.95-4.24c-1.28-0.07-2.56-0.01-3.75-0.01c-0.53-2.3,0.61-5.33-2.59-5.46c-3.69-0.15-2.12,3.33-2.91,5.45
		c-0.87,0-1.76-0.01-2.65,0c-4.4,0.04-6.13,1.76-6.17,6.15c-0.02,2.31-0.01,4.62,0,6.93c0.01,5.02,1.52,6.53,6.48,6.51
		c3.84-0.01,7.68,0,11.61,0c0,3.33,0,6.41,0,9.66c-4.04,0-7.91,0.05-11.77-0.05c-0.63-0.02-1.19-0.87-1.87-1.13
		c-0.99-0.38-2.2-1-3.03-0.71c-0.67,0.23-1.28,1.67-1.27,2.57c0.01,2.31,1.89,3.99,4.38,4.17c1.44,0.1,2.9,0.02,4.26,0.02
		c0.71,2.32-0.62,5.61,2.66,5.69c3.59,0.08,2.13-3.55,2.98-5.65c1.14,0,2.2,0.02,3.26,0c3.72-0.1,5.39-1.79,5.43-5.53
		c0.03-2.64,0.02-5.28,0-7.92c-0.02-4.36-1.63-5.96-5.98-5.96C83.38,81.29,79.37,81.29,75.2,81.29z"/>
	<path class="st0" d="M75.2,81.29c4.16,0,8.18,0,12.2,0c4.35,0,5.96,1.6,5.98,5.96c0.01,2.64,0.03,5.28,0,7.92
		c-0.04,3.74-1.72,5.43-5.43,5.53c-1.06,0.03-2.12,0-3.26,0c-0.84,2.1,0.61,5.73-2.98,5.65c-3.28-0.08-1.95-3.37-2.66-5.69
		c-1.37,0-2.82,0.08-4.26-0.02c-2.5-0.18-4.37-1.86-4.38-4.17c0-0.9,0.61-2.34,1.27-2.57c0.83-0.29,2.04,0.33,3.03,0.71
		c0.67,0.26,1.24,1.12,1.87,1.13c3.86,0.11,7.73,0.05,11.77,0.05c0-3.25,0-6.33,0-9.66c-3.93,0-7.77-0.01-11.61,0
		c-4.96,0.02-6.47-1.49-6.48-6.51c-0.01-2.31-0.01-4.62,0-6.93c0.03-4.39,1.76-6.12,6.17-6.15c0.89-0.01,1.77,0,2.65,0
		c0.79-2.12-0.78-5.6,2.91-5.45c3.19,0.13,2.06,3.16,2.59,5.46c1.19,0,2.47-0.06,3.75,0.01c2.73,0.15,4.94,1.9,4.95,4.24
		c0,0.96-0.66,2.39-1.43,2.75c-0.69,0.32-1.97-0.45-2.92-0.89c-0.52-0.24-0.88-1.14-1.32-1.15c-4.1-0.09-8.2-0.05-12.38-0.05
		C75.2,74.92,75.2,78.01,75.2,81.29z"/>
</g>
</svg>
