<?xml version="1.0" encoding="utf-8"?>
<!-- Generator: Adobe Illustrator 24.3.0, SVG Export Plug-In . SVG Version: 6.00 Build 0)  -->
<svg version="1.1" id="Layer_1" xmlns="http://www.w3.org/2000/svg" xmlns:xlink="http://www.w3.org/1999/xlink" x="0px" y="0px"
	 viewBox="0 0 165.99 166.6" style="enable-background:new 0 0 165.99 166.6;" xml:space="preserve">
<style type="text/css">
	.st0{fill:#00B0FB;fill-opacity:0.4;}
	.st1{fill:#FFFFFF;}
	.st2{fill:#00B0FB;}
	
		.st3{fill:#00B0FB;fill-opacity:0.4;stroke:#FFFFFF;stroke-width:4.0426;stroke-linecap:round;stroke-linejoin:round;stroke-miterlimit:10;}
	.st4{fill:none;stroke:#FFFFFF;stroke-width:4.0426;stroke-linecap:round;stroke-linejoin:round;stroke-miterlimit:10;}
	.st5{fill:none;}
	.st6{fill:#3C7CFF;}
	.st7{fill:#001135;}
	.st8{fill:#FFFFFF;stroke:#FFFFFF;stroke-width:4;stroke-miterlimit:10;}
	.st9{fill:none;stroke:#FFFFFF;stroke-width:4.4475;stroke-linecap:round;stroke-linejoin:round;}
</style>
<g>
	<g>
		<path class="st0" d="M69.92,76.37c-1.41,2.32-2.71,4.35-3.89,6.45c-0.78,1.4-1.83,1.98-3.42,1.96c-4.55-0.06-9.1-0.03-13.66-0.02
			c-1.71,0-3.04-0.53-2.99-2.48c0.05-1.91,1.41-2.44,3.09-2.43c3.45,0,6.92-0.16,10.36,0.06c2.13,0.13,3.28-0.62,4.21-2.45
			c1.13-2.23,2.5-4.35,3.86-6.46c1.5-2.32,3.22-2.34,4.75-0.05c1.81,2.72,3.52,5.5,5.46,8.56c2.96-5.16,5.68-10.08,8.6-14.87
			c0.69-1.13,2.07-2.61,3.08-2.57c1.04,0.04,2.31,1.57,2.98,2.74c3.61,6.33,7.06,12.75,10.58,19.14c0.29,0.53,0.63,1.02,1.14,1.86
			c1.95-3.25,3.82-6.21,5.51-9.27c0.94-1.69,2.09-2.45,4.1-2.4c5.88,0.13,11.77,0.06,17.66,0.04c1.81-0.01,3.79-0.03,3.72,2.41
			c-0.06,2.41-2.07,2.32-3.86,2.31c-5.18-0.02-10.36,0.04-15.54-0.04c-1.36-0.02-2.1,0.42-2.77,1.6c-2,3.55-4.13,7.03-6.24,10.52
			c-1.87,3.1-3.75,3.07-5.48-0.07c-3.75-6.8-7.47-13.6-11.21-20.4c-0.19-0.34-0.39-0.66-0.76-1.28c-2.96,5.13-5.79,10.05-8.64,14.97
			c-1.91,3.3-3.59,3.35-5.6,0.17C73.35,81.8,71.72,79.23,69.92,76.37z"/>
		<path class="st2" d="M139.4,31.81c0,2.48,0,4.58,0,6.69c0,1.63-0.61,2.8-2.41,2.8c-1.82,0-2.39-1.21-2.4-2.82
			c-0.01-2.1,0-4.2,0-6.67c-2.12,0-4.04-0.04-5.96,0.01c-1.8,0.05-3.54-0.19-3.58-2.37c-0.04-2.37,1.81-2.55,3.67-2.51
			c1.86,0.04,3.72,0.01,5.87,0.01c0-2.36,0.01-4.45,0-6.54c-0.01-1.71,0.57-3,2.51-2.95c1.79,0.05,2.33,1.28,2.32,2.9
			c-0.02,2.1-0.01,4.19-0.01,6.6c2.34,0,4.43,0.01,6.52,0c1.7-0.01,3,0.52,2.96,2.48c-0.04,1.96-1.39,2.41-3.07,2.38
			C143.79,31.79,141.76,31.81,139.4,31.81z"/>
		<path class="st2" d="M22.3,109.66c0,13.14,0,26.2,0,39.39c-5.84,0-11.53,0-17.41,0c0-13.1,0-26.16,0-39.39
			C10.66,109.66,16.41,109.66,22.3,109.66z"/>
	</g>
	<path class="st1" d="M166.06,32.22c0-16.21-13.13-29.34-29.34-29.34c-15.84,0-28.74,12.56-29.32,28.26l-0.02-0.09
		c-5.4,2.1-11.02,5.52-15.22,9.51c-1.07,1.01-2.14,2.03-3.16,2.99c-0.32-0.14-0.48-0.19-0.59-0.28c-0.63-0.59-1.26-1.19-1.88-1.78
		c-6.84-6.72-14.83-11.29-24.4-12.76c-10.82-1.68-20.41,0.89-28.51,8.37c-0.06,0.05-0.12,0.09-0.18,0.15
		c-4.21,3.34-7.42,7.89-9.14,13.11C16.41,68.07,20,88.1,33.58,102.04c1.34,1.37,2.66,2.77,4.24,4.4c-2.04,0.35-3.64,0.66-5.23,0.92
		c-1.69,0.27-3.37,0.52-5.01,0.76c-1.19-2.99-1.98-3.58-4.95-3.59c-5.97-0.02-11.93-0.02-17.91,0c-3.61,0.01-4.78,1.2-4.78,4.81
		c-0.01,13.27-0.01,26.55,0,39.82c0,3.86,1.13,4.98,5.11,4.99c5.41,0.01,10.83-0.06,16.25,0.02c2.9,0.04,5.59-0.08,6.23-3.72
		c13.37,3.66,26.48,7.1,39.49,10.86c8.07,2.34,16.08,3.57,24.28,0.94c15.81-5.07,31.63-10.14,47.43-15.26
		c3.25-1.06,5.82-3.04,7.42-6.15c2.79-5.46,0.5-11.42-5.46-12.83c-2.92-0.69-6.21-0.32-9.25,0.15c-5.13,0.79-10.2,2.04-15.87,3.22
		c0.79-0.86,1.15-1.27,1.53-1.64c8.29-8.48,16.65-16.89,24.83-25.45c3.13-3.29,6.33-6.65,8.68-10.48
		c7.51-12.15,8.75-25.18,4.58-38.8C161.83,49.62,166.06,41.42,166.06,32.22z M22.3,149.05H4.9v-39.4h17.4V149.05z M134.58,132.45
		c1.21-0.23,2.52-0.28,3.74-0.11c4.03,0.56,5.5,4.12,2.82,7.19c-1.22,1.4-3.05,2.53-4.82,3.11c-15.71,5.1-31.49,10.03-47.22,15.08
		c-6.42,2.07-12.66,1.15-18.95-0.62c-13.5-3.77-27.02-7.48-40.56-11.08c-1.8-0.47-2.37-1.16-2.32-2.98
		c0.13-4.64,0.05-9.27,0.05-13.89c0-4.72,0.05-9.42-0.04-14.13c-0.02-1.49,0.45-1.98,1.94-2.23c11.75-1.91,23.49-3.88,35.22-5.96
		c7.77-1.37,15.33-0.16,22.85,1.5c2.56,0.58,5.19,1.23,7.51,2.41c2.7,1.36,3.72,4.12,3.1,6.51c-0.53,2.07-2.73,3.83-5.69,3.72
		c-4.68-0.18-9.35-0.8-14.04-1.26c-1.16-0.12-2.32-0.33-3.49-0.47c-4.53-0.58-8.11,1.96-9,6.33c-0.87,4.31,1.46,8.34,5.82,9.36
		c4.88,1.15,9.85,1.9,14.77,2.83c1.69,0.32,3.4,0.53,5.08,0.95c6.76,1.71,13.23-0.32,19.74-1.57
		C118.92,135.64,126.74,133.97,134.58,132.45z M141.68,97.5c-10.88,11.64-22.2,22.86-33.35,34.26c-0.48,0.49-1.03,1.17-1.63,1.26
		c-3.86,0.55-7.82,1.68-11.59,1.27c-7.31-0.81-14.52-2.5-21.76-3.84c-1.97-0.36-3.13-1.54-3-3.57c0.12-1.99,1.48-2.97,3.87-2.72
		c4.76,0.49,9.52,1.02,14.25,1.73c5.49,0.82,10.88-1.21,13.23-5.21c3.07-5.23,0.47-12.32-6.08-15.06
		c-3.63-1.51-7.69-2.01-11.58-2.86c-6.49-1.44-13.01-1.94-19.62-0.75c-6.09,1.1-12.2,2.11-18.3,3.23c-1.61,0.29-2.78,0.04-3.92-1.27
		c-1.97-2.24-4.21-4.24-6.21-6.44C26.41,86.94,23.3,74.6,26.08,60.8c0.02-0.14,0.05-0.28,0.08-0.42c0.09-0.43,0.26-0.99,0.48-1.62
		c0.51-1.49,0.9-3.03,1.32-4.55c0.45-1.62,1.06-3.17,1.79-4.64c1.44-2.9,3.43-5.48,5.8-7.64c0.02-0.02,0.05-0.05,0.07-0.06
		c0.33-0.31,0.67-0.59,1.02-0.87c0.01-0.02,0.03-0.04,0.06-0.06c0.61-0.6,1.12-1.3,1.81-1.8c4.54-3.28,9.11-5.16,13.66-5.88
		c7.12-1.14,14.2,0.59,21.05,4.39c4.45,2.45,8.2,6.22,12.16,9.53c2.79,2.34,4.26,2.46,6.9,0.01c1.21-1.13,2.34-2.34,3.56-3.45
		c3.51-3.2,7.37-5.87,11.82-7.64c1.9,14.36,14.19,25.44,29.07,25.44c5.18,0,10.03-1.35,14.26-3.7
		C154.86,72.6,152.34,86.07,141.68,97.5z M136.72,55.69c-12.97,0-23.47-10.5-23.47-23.47s10.5-23.47,23.47-23.47
		s23.47,10.5,23.47,23.47S149.69,55.69,136.72,55.69z"/>
</g>
</svg>
