<?xml version="1.0" encoding="utf-8"?>
<!-- Generator: Adobe Illustrator 24.3.0, SVG Export Plug-In . SVG Version: 6.00 Build 0)  -->
<svg version="1.1" id="Layer_1" xmlns="http://www.w3.org/2000/svg" xmlns:xlink="http://www.w3.org/1999/xlink" x="0px" y="0px"
	 viewBox="0 0 165.99 166.6" style="enable-background:new 0 0 165.99 166.6;" xml:space="preserve">
<style type="text/css">
	.st0{fill:#00B0FB;fill-opacity:0.4;}
	.st1{fill:#FFFFFF;}
	.st2{fill:#00B0FB;}
</style>
<g>
	<path class="st0" d="M70.83,21.96c-0.31,6.98,5.56,12.72,12.58,12.56c6.62-0.15,12.28-6.14,11.74-12.56
		C87.1,21.96,79.03,21.96,70.83,21.96z"/>
	<path class="st0" d="M33.55,21.95c-8.23,0-16.22,0-24.4,0c-0.14,4.68,1.82,8.17,5.55,10.57c4.35,2.8,8.91,2.8,13.26,0
		C31.69,30.13,33.57,26.6,33.55,21.95z"/>
	<path class="st0" d="M125.95,21.99c-8.04,0-16.09,0-24.12,0c-0.65,6.33,4.91,12.32,11.47,12.53
		C120.49,34.75,126.24,29.12,125.95,21.99z"/>
	<path class="st0" d="M156.89,21.97c-8.18,0-16.19,0-24.39,0c-0.02,4.69,1.89,8.22,5.66,10.61c4.3,2.72,8.81,2.73,13.11-0.01
		C155.03,30.17,157.01,26.68,156.89,21.97z"/>
	<path class="st0" d="M64.25,22.04c-8.15,0-16.19,0-24.22,0c0.14,7.48,5.68,12.77,12.84,12.47C59.32,34.25,64.67,28.47,64.25,22.04z
		"/>
	<path class="st1" d="M129.32,32.73c-6.63,9.29-21.35,12.07-30.96,0.19c-8.31,10.87-23.13,10.14-30.76-0.18
		c-3.87,5.04-8.87,8.02-15.31,8.03c-6.45,0.01-11.54-2.79-15.52-8.09c-2.66,3.41-5.82,5.98-9.93,7.26
		c-11.68,3.62-23.7-4.87-24.05-17.12C2.64,17.5,2.74,12.18,2.77,6.86C2.78,4.25,3.93,3.1,6.51,3.05C8.86,3,11.22,3.04,13.57,3.04
		c48.17,0,96.35,0,144.52,0c4.42,0,5.2,0.74,5.15,5.13c-0.06,5.69,0.29,11.44-0.42,17.06c-1.02,8.06-6.17,13.15-13.93,15.03
		c-7.32,1.77-13.63-0.57-18.57-6.34C130.03,33.57,129.74,33.22,129.32,32.73z M9.18,15.5c49.37,0,98.48,0,147.58,0
		c0-2.11,0-4.04,0-5.95c-49.28,0-98.39,0-147.58,0C9.18,11.58,9.18,13.46,9.18,15.5z M70.83,21.96
		c-0.31,6.98,5.56,12.72,12.58,12.56c6.62-0.15,12.28-6.14,11.74-12.56C87.1,21.96,79.03,21.96,70.83,21.96z M33.55,21.95
		c-8.23,0-16.22,0-24.4,0c-0.14,4.68,1.82,8.17,5.55,10.57c4.35,2.8,8.91,2.8,13.26,0C31.69,30.13,33.57,26.6,33.55,21.95z
		 M125.95,21.99c-8.04,0-16.09,0-24.12,0c-0.65,6.33,4.91,12.32,11.47,12.53C120.49,34.75,126.24,29.12,125.95,21.99z M156.89,21.97
		c-8.18,0-16.19,0-24.39,0c-0.02,4.69,1.89,8.22,5.66,10.61c4.3,2.72,8.81,2.73,13.11-0.01C155.03,30.17,157.01,26.68,156.89,21.97z
		 M64.25,22.04c-8.15,0-16.19,0-24.22,0c0.14,7.48,5.68,12.77,12.84,12.47C59.32,34.25,64.67,28.47,64.25,22.04z"/>
	<path class="st1" d="M92.57,113.17c0,14.85,0,29.27,0,44.06c1.37,0,2.7-0.04,4.03,0.01c2.23,0.08,3.73,1.37,3.74,3.17
		c0.01,1.83-1.45,3.13-3.72,3.14c-9.04,0.03-18.08,0.02-27.13,0c-2.29-0.01-3.76-1.24-3.8-3.06c-0.04-1.88,1.51-3.19,3.89-3.25
		c1.2-0.03,2.41-0.01,3.79-0.01c0-14.69,0-29.22,0-44.06c-0.95,0-1.83,0-2.71,0c-9.27,0-18.54-0.03-27.81,0.01
		c-4.17,0.02-7.45-1.49-9.31-5.32c-3.03-6.24,1.25-13.15,8.3-13.55c1.04-0.06,2.09-0.01,3.4-0.01c0-2.01,0.1-3.82-0.06-5.6
		c-0.05-0.57-0.64-1.33-1.18-1.6c-4.5-2.21-6.65-5.79-6.62-10.76c0.02-3.19-0.02-6.38,0.01-9.58c0.02-2.76,1.13-3.91,3.84-3.93
		c4.79-0.03,9.57-0.03,14.36,0c2.6,0.02,3.74,1.17,3.77,3.76c0.03,3.57,0.07,7.15-0.02,10.71c-0.11,4.23-2.1,7.51-5.85,9.34
		c-1.73,0.85-2.12,1.82-1.99,3.47c0.09,1.27,0.02,2.56,0.02,4.01c3.69,0,7.22,0,10.99,0c1.56-9.84,7.21-16.14,17.31-18.55
		c0-1.87-0.02-3.74,0.01-5.62c0.04-2.41,1.29-3.96,3.16-3.98c1.87-0.02,3.15,1.53,3.21,3.93c0.02,0.91,0,1.82,0,2.74
		c0,0.91,0,1.82,0,2.9c9.85,2.32,15.66,8.47,17.3,18.59c3.58,0,7.11,0,11,0c0-1.9,0.08-3.85-0.06-5.77
		c-0.04-0.47-0.74-1.05-1.26-1.31c-4.39-2.18-6.55-5.69-6.52-10.59c0.02-3.27-0.02-6.54,0.01-9.8c0.02-2.63,1.14-3.81,3.69-3.83
		c4.86-0.04,9.73-0.04,14.59,0c2.46,0.02,3.65,1.2,3.68,3.62c0.04,3.65,0.1,7.3-0.02,10.94c-0.15,4.22-2.2,7.43-5.94,9.31
		c-1.56,0.78-2.1,1.63-1.93,3.28c0.14,1.34,0.03,2.7,0.03,4.31c1.1,0,1.99-0.02,2.88,0c5.61,0.13,9.94,4.31,9.88,9.54
		c-0.06,5.21-4.19,9.25-9.8,9.3c-9.42,0.09-18.84,0.03-28.27,0.03C94.57,113.17,93.67,113.17,92.57,113.17z M83.27,100.66
		c-2.73,0-5.47,0-8.2,0c-10.78,0-21.56-0.01-32.34,0.01c-2.44,0-3.93,1.24-3.91,3.15c0.03,1.89,1.55,3.09,3.97,3.14
		c0.3,0.01,0.61,0,0.91,0c26.19,0,52.38,0,78.57,0c0.76,0,1.54,0.07,2.27-0.09c1.69-0.37,2.71-1.51,2.61-3.23
		c-0.1-1.68-1.1-2.8-2.9-2.95c-0.68-0.06-1.37-0.03-2.05-0.03C109.23,100.66,96.25,100.66,83.27,100.66z M86.03,157.14
		c0-14.77,0-29.3,0-43.83c-2.12,0-4.07,0-6.09,0c0,14.67,0,29.21,0,43.83C82.03,157.14,83.97,157.14,86.03,157.14z M69,94.14
		c9.38,0,18.66,0,27.97,0C95.85,86.8,90.36,81.9,83.3,81.79C76.02,81.68,70.48,86.38,69,94.14z M43.71,69.23
		c0,2.9-0.09,5.55,0.03,8.19c0.1,2.28,2.02,4.11,4.25,4.33c2.18,0.22,4.63-1.29,4.87-3.55c0.31-2.95,0.08-5.96,0.08-8.97
		C49.84,69.23,46.91,69.23,43.71,69.23z M122.29,69.26c-3.15,0-6.14,0-9.26,0c0,2.96-0.19,5.83,0.06,8.66
		c0.2,2.27,2.46,3.91,4.66,3.85c2.2-0.06,4.35-1.82,4.5-4.05C122.42,74.95,122.29,72.16,122.29,69.26z"/>
	<path class="st1" d="M144.49,138.53c-6.49,0-12.61,0-19,0c0,5.27,0.04,10.41-0.01,15.56c-0.04,4.59-2.93,8.15-7.34,9.2
		c-5.54,1.31-11.28-2.75-11.4-8.44c-0.19-8.89-0.14-17.78-0.01-26.67c0.06-4.17,3.51-7.78,7.65-8.41c1.12-0.17,2.27-0.22,3.4-0.23
		c7.98-0.02,15.95-0.01,23.93-0.01c0.82,0,1.65,0,2.78,0c0-1.12,0-2,0-2.89c0.01-9.65-0.02-19.3,0.04-28.95
		c0.02-3.89,2.01-6.68,5.48-8.21c3.46-1.53,6.85-1.11,9.83,1.31c2.25,1.83,3.4,4.28,3.4,7.16c0.02,22.11,0.05,44.22-0.02,66.33
		c-0.02,5.23-4.23,9.23-9.32,9.27c-5.23,0.03-9.31-3.96-9.39-9.37C144.43,149.04,144.49,143.88,144.49,138.53z M156.93,121.05
		c0-10.41,0-20.81,0-31.22c0-0.68,0.03-1.37-0.03-2.05c-0.16-1.8-1.24-2.79-2.96-2.85c-1.74-0.07-2.86,0.92-3.18,2.64
		c-0.14,0.74-0.1,1.51-0.1,2.27c-0.01,10.48,0,20.97-0.01,31.45c0,3.69-0.84,4.51-4.59,4.51c-9.57,0.01-19.14,0-28.71,0
		c-3.51,0-4.45,0.93-4.46,4.48c-0.02,6.99-0.01,13.98,0,20.97c0,1.14-0.06,2.3,0.16,3.4c0.33,1.68,1.41,2.67,3.22,2.56
		c1.7-0.1,2.62-1.08,2.84-2.72c0.1-0.75,0.09-1.52,0.09-2.27c0.01-5.17-0.01-10.33,0.01-15.5c0.01-3.7,0.92-4.61,4.55-4.62
		c7.37-0.01,14.73,0,22.1,0c3.98,0,4.78,0.8,4.79,4.8c0.01,5.55-0.03,11.09,0.02,16.64c0.02,2.53,1.43,3.95,3.56,3.66
		c2.19-0.3,2.71-1.81,2.71-3.79C156.91,142.62,156.93,131.83,156.93,121.05z"/>
	<path class="st1" d="M21.54,138.56c0,5.38,0.06,10.6-0.02,15.82c-0.07,4.17-2.68,7.58-6.44,8.72c-6.22,1.88-12.18-2.42-12.3-8.99
		c-0.1-6-0.02-12-0.02-18.01c0-15.8-0.01-31.6,0.01-47.41c0.01-5.76,3.74-9.85,9.02-9.99c5.52-0.14,9.67,3.64,9.73,9.17
		c0.1,9.57,0.04,19.14,0.04,28.72c0,0.89,0,1.78,0,2.94c1.1,0,1.91,0,2.73,0c8.13,0,16.26-0.02,24.38,0.01
		c7.04,0.02,10.7,3.67,10.7,10.65c0.01,7.98,0.05,15.95-0.02,23.93c-0.04,5-3.64,8.9-8.47,9.41c-4.65,0.49-9.04-2.63-10.12-7.35
		c-0.3-1.31-0.21-2.72-0.21-4.08c-0.02-4.46-0.01-8.93-0.01-13.54C34.18,138.56,28.06,138.56,21.54,138.56z M9.11,121.14
		c0,7.29,0,14.59,0,21.88c0,3.72-0.03,7.45,0.03,11.17c0.03,1.89,1.08,2.98,2.99,3.02c1.9,0.05,2.94-1.02,3.18-2.86
		c0.09-0.67,0.05-1.36,0.05-2.05c0-5.32-0.01-10.64,0.01-15.95c0.01-3.2,1.04-4.23,4.21-4.24c7.67-0.01,15.34-0.01,23.01,0
		c3.17,0.01,4.2,1.02,4.22,4.25c0.03,5.32,0.01,10.64,0.01,15.95c0,0.68-0.02,1.37,0.06,2.05c0.18,1.63,1.04,2.67,2.73,2.84
		c1.8,0.18,2.9-0.74,3.34-2.42c0.19-0.72,0.2-1.5,0.2-2.26c0.01-7.37,0.02-14.74,0-22.11c-0.01-3.69-0.93-4.62-4.57-4.62
		c-9.57-0.01-19.14,0-28.71,0c-3.66,0-4.52-0.88-4.52-4.59c-0.01-10.48,0-20.97-0.01-31.45c0-0.83,0.03-1.69-0.17-2.49
		c-0.4-1.61-1.55-2.44-3.18-2.34c-1.63,0.1-2.66,1.04-2.86,2.71C9.07,88.31,9.11,89,9.11,89.69C9.11,100.17,9.11,110.65,9.11,121.14
		z"/>
	<path class="st0" d="M9.18,15.5c0-2.04,0-3.92,0-5.95c49.19,0,98.3,0,147.58,0c0,1.92,0,3.85,0,5.95
		C107.66,15.5,58.55,15.5,9.18,15.5z"/>
	<path class="st2" d="M83.27,100.66c12.98,0,25.96,0,38.94,0c0.68,0,1.37-0.03,2.05,0.03c1.8,0.15,2.8,1.27,2.9,2.95
		c0.1,1.72-0.92,2.86-2.61,3.23c-0.73,0.16-1.51,0.09-2.27,0.09c-26.19,0-52.38,0-78.57,0c-0.3,0-0.61,0-0.91,0
		c-2.43-0.05-3.94-1.25-3.97-3.14c-0.03-1.91,1.46-3.15,3.91-3.15c10.78-0.01,21.56-0.01,32.34-0.01
		C77.8,100.66,80.53,100.66,83.27,100.66z"/>
	<path class="st2" d="M156.93,121.05c0,10.79-0.02,21.57,0.01,32.36c0.01,1.98-0.52,3.49-2.71,3.79c-2.13,0.29-3.54-1.13-3.56-3.66
		c-0.05-5.55-0.01-11.09-0.02-16.64c0-3.99-0.81-4.79-4.79-4.8c-7.37,0-14.73-0.01-22.1,0c-3.62,0-4.53,0.92-4.55,4.62
		c-0.02,5.17,0,10.33-0.01,15.5c0,0.76,0.01,1.53-0.09,2.27c-0.22,1.63-1.15,2.62-2.84,2.72c-1.82,0.11-2.89-0.88-3.22-2.56
		c-0.22-1.1-0.16-2.27-0.16-3.4c-0.01-6.99-0.02-13.98,0-20.97c0.01-3.55,0.95-4.48,4.46-4.48c9.57-0.01,19.14,0,28.71,0
		c3.75,0,4.59-0.82,4.59-4.51c0.01-10.48,0-20.97,0.01-31.45c0-0.76-0.04-1.53,0.1-2.27c0.32-1.72,1.44-2.71,3.18-2.64
		c1.73,0.06,2.81,1.05,2.96,2.85c0.06,0.68,0.03,1.37,0.03,2.05C156.93,100.23,156.93,110.64,156.93,121.05z"/>
	<path class="st2" d="M9.11,121.14c0-10.48,0-20.97,0-31.45c0-0.68-0.04-1.37,0.04-2.05c0.2-1.67,1.23-2.61,2.86-2.71
		c1.63-0.1,2.78,0.73,3.18,2.34c0.2,0.8,0.17,1.66,0.17,2.49c0.01,10.48,0,20.97,0.01,31.45c0,3.72,0.86,4.59,4.52,4.59
		c9.57,0.01,19.14,0,28.71,0c3.63,0,4.56,0.93,4.57,4.62c0.02,7.37,0.01,14.74,0,22.11c0,0.75-0.01,1.54-0.2,2.26
		c-0.44,1.67-1.54,2.59-3.34,2.42c-1.69-0.16-2.55-1.21-2.73-2.84c-0.08-0.68-0.06-1.37-0.06-2.05c0-5.32,0.02-10.64-0.01-15.95
		c-0.02-3.23-1.05-4.25-4.22-4.25c-7.67-0.01-15.34-0.01-23.01,0c-3.17,0.01-4.2,1.04-4.21,4.24c-0.02,5.32,0,10.64-0.01,15.95
		c0,0.68,0.03,1.37-0.05,2.05c-0.24,1.84-1.28,2.91-3.18,2.86c-1.91-0.05-2.96-1.14-2.99-3.02c-0.06-3.72-0.02-7.44-0.03-11.17
		C9.11,135.72,9.11,128.43,9.11,121.14z"/>
</g>
</svg>
