<?xml version="1.0" encoding="utf-8"?>
<!-- Generator: Adobe Illustrator 24.3.0, SVG Export Plug-In . SVG Version: 6.00 Build 0)  -->
<svg version="1.1" id="Layer_1" xmlns="http://www.w3.org/2000/svg" xmlns:xlink="http://www.w3.org/1999/xlink" x="0px" y="0px"
	 viewBox="0 0 108 108" style="enable-background:new 0 0 108 108;" xml:space="preserve">
<style type="text/css">
	.st0{fill:#FFFFFF;}
	.st1{fill:#00B0FB;}
	.st2{fill:#00B0FB;fill-opacity:0.4;}
</style>
<g>
	<path class="st1" d="M105.21,15.6c0.06-7.96-6.29-14.64-14.72-14.59C66.22,1.17,41.94,1.18,17.66,1C9.12,0.94,2.72,7.63,2.79,15.78
		C2.99,34.92,2.98,54.06,2.8,73.2c-0.07,7.98,6.22,14.86,14.63,14.65c8.23-0.21,16.46-0.04,24.7-0.04h1.85v5.71
		c-0.74,0-1.38-0.03-2.02,0c-3.18,0.19-5.6,1.62-7.06,4.5c-2.13,4.28,0.11,8.9,4.44,8.93c9.62,0.08,19.25,0.06,28.87,0.01
		c2.24-0.01,3.83-1.21,4.71-3.28c1.6-3.73-1.1-8.79-5.26-9.82c-1.12-0.27-2.28-0.36-3.4-0.53v-5.53h1.97
		c8.13,0,16.26-0.15,24.38,0.04c8.41,0.21,14.65-6.67,14.59-14.51C105.04,54.09,105.04,34.84,105.21,15.6z M13.79,5.05
		c1.01-0.31,2.11-0.44,3.16-0.44C41.66,4.59,66.36,4.59,91.07,4.6c3.93,0,6.93,1.75,9.25,5.28H7.78C9.24,7.34,11.24,5.82,13.79,5.05
		z M6.52,13.56h94.92v56.37c-0.29,0.03-0.55,0.09-0.8,0.09h-9.72V68.1c0-11.61,0.01-23.21,0-34.81c0-4.09-2.13-6.22-6.23-6.22
		c-3.79-0.01-7.59-0.01-11.39,0c-3.72,0.02-5.86,2.14-5.92,5.85c-0.02,1.22,0,2.43,0,3.8H56.44c-1.07,0-2.14-0.01-3.21,0
		c-3.48,0.02-5.45,1.76-5.89,5.21c-0.03,0.22-0.07,0.41-0.14,0.79H33.58c-4.06,0.01-5.89,1.66-6.28,5.86h-3.77
		c-4.14,0.01-6.12,1.96-6.12,6.06c-0.01,4.49-0.01,8.98-0.01,13.47v1.8H6.52V13.56z M87.4,59.28v10.65h-6.37V30.63
		c1.58,0,3.17-0.13,4.73,0.04c1.35,0.15,1.66,1.25,1.66,2.5C87.39,41.87,87.4,50.58,87.4,59.28z M77.34,30.59v39.32h-6.32
		c-0.02-0.6-0.06-1.11-0.06-1.64c-0.01-11.59-0.01-23.18-0.01-34.77c0-2.46,0.45-2.9,2.87-2.92H77.34z M67.32,40.36v29.57h-6.26
		V40.36H67.32z M57.28,40.25v29.65h-6.28c-0.02-0.56-0.07-1.08-0.07-1.61c-0.01-8.39-0.01-16.77-0.01-25.15
		c0.01-2.46,0.43-2.87,2.89-2.88H57.28z M47.31,46.39v23.51h-6.28V46.39H47.31z M37.32,46.39v23.53h-6.29
		c-0.02-0.5-0.07-1.01-0.07-1.52c-0.01-6.47-0.01-12.93,0-19.4c0-2.32,0.4-2.72,2.68-2.73c1.02-0.01,2.03,0,3.05,0.01
		C36.84,46.27,36.99,46.32,37.32,46.39z M20.99,54.35c0.01-1.66,0.58-2.19,2.22-2.23c1.33-0.02,2.66,0,4.15,0V69.9h-6.39v-6.1
		C20.98,60.65,20.95,57.5,20.99,54.35z M65.39,97.07c2.43,0.02,4.2,1.65,4.42,3.81c0.18,1.86-0.43,2.59-2.32,2.6
		c-4.6,0.02-9.2,0-13.8,0c-4.49,0-8.98,0.01-13.48,0c-2.21-0.01-2.99-1.08-2.35-3.19c0.62-2.02,2.06-3.2,4.26-3.21
		C49.88,97.02,57.64,97.02,65.39,97.07z M47.79,93.38v-5.42h12.78v5.42H47.79z M95.83,83.19c-1.67,0.71-3.61,1.1-5.43,1.1
		c-24.27,0.07-48.55,0.06-72.82,0.04c-5.69-0.01-9.39-2.74-10.86-7.89c-0.25-0.84-0.27-1.76-0.41-2.81h95.06
		C102.05,77.13,99.6,81.58,95.83,83.19z"/>
	<path class="st1" d="M43.83,28.19c-4.06,1.64-7.86,3.18-11.66,4.72c-3.71,1.5-7.4,3.06-11.15,4.46c-0.66,0.25-1.73,0.07-2.29-0.35
		c-0.37-0.28-0.41-1.45-0.15-2c0.25-0.52,1.06-0.84,1.68-1.09c6.57-2.68,13.16-5.33,19.74-7.99c0.58-0.23,1.14-0.51,1.95-0.87
		c-1.03-0.41-1.81-0.71-2.58-1.03c-1.03-0.42-1.57-1.16-1.18-2.27c0.39-1.1,1.3-1.42,2.34-1.05c2.11,0.75,4.23,1.51,6.25,2.47
		c0.58,0.28,1.18,1.33,1.13,1.97c-0.16,2.07-0.6,4.12-0.99,6.16c-0.2,1.04-0.94,1.61-1.98,1.43c-1.11-0.19-1.59-1-1.45-2.13
		C43.58,29.88,43.69,29.16,43.83,28.19z"/>
	<path class="st1" d="M54.06,76.82c1.39,0,2.78-0.01,4.17,0c1.13,0.01,1.87,0.56,1.86,1.73c0,1.16-0.73,1.76-1.84,1.78
		c-2.78,0.04-5.56,0.03-8.34,0.01c-1.19-0.01-1.98-0.6-1.95-1.84c0.03-1.16,0.8-1.68,1.93-1.67C51.28,76.82,52.67,76.82,54.06,76.82
		z"/>
</g>
</svg>
