<?xml version="1.0" encoding="utf-8"?>
<!-- Generator: Adobe Illustrator 24.3.0, SVG Export Plug-In . SVG Version: 6.00 Build 0)  -->
<svg version="1.1" id="Layer_1" xmlns="http://www.w3.org/2000/svg" xmlns:xlink="http://www.w3.org/1999/xlink" x="0px" y="0px"
	 viewBox="0 0 108 108" style="enable-background:new 0 0 108 108;" xml:space="preserve">
<style type="text/css">
	.st0{fill:#FFFFFF;}
	.st1{fill:#00B0FB;}
	.st2{fill:#00B0FB;fill-opacity:0.4;}
</style>
<g>
	<path class="st1" d="M102.91,52.66c-2.06-0.11-4.14-0.14-6.2-0.31c-0.46-0.04-0.9-0.48-1.31-0.8c-0.78-0.61-1.44-1.62-2.3-1.83
		c-1.8-0.42-3.69-0.56-5.55-0.57c-1.66-0.02-2.64,1.15-2.77,2.86c-0.06,0.78-0.13,1.55-0.19,2.41h-9.36
		c0.12-0.45,0.21-0.82,0.32-1.18c2.04-6.53,3.19-13.21,3.35-20.05c0.07-3.1-0.87-4.24-3.96-4.82c-7.07-1.32-13.55-3.76-18.39-9.47
		c-1.46-1.72-3.64-1.46-5.33,0.17c-1.7,1.64-3.42,3.28-5.34,4.63c-3.92,2.75-8.49,3.83-13.11,4.72c-2.67,0.51-3.87,1.75-3.65,4.45
		c0.36,4.36,0.81,8.73,1.49,13.05c0.45,2.85,1.36,5.62,2.07,8.48h-9.19c0-0.88,0.11-1.68-0.03-2.43c-0.17-0.84-0.38-1.8-0.9-2.42
		c-1.65-1.93-8.42-1.06-9.67,1.15c-0.02,0.04-0.05,0.09-0.06,0.13c-0.13,0.91-0.76,0.97-1.51,0.99C9.3,51.89,7.28,52,5.26,52.12
		c-2.15,0.13-3.37,1.36-3.37,3.51c0.03,6.61,0.07,13.22,0.16,19.84c0.03,2.6,1.34,3.75,3.93,3.59c1.92-0.11,3.83-0.33,5.75-0.36
		c0.49-0.01,1.15,0.39,1.45,0.81c0.73,0.99,1.58,1.63,2.82,1.6c1.18-0.02,2.37-0.04,3.54-0.18c4.49-0.54,4.54-0.61,5.01-4.96
		c1.26-0.41,2.12-0.01,2.95,0.88c1.63,1.72,3.34,3.36,5.08,4.97c0.43,0.4,1.06,0.76,1.64,0.81c4.76,0.45,9.52,0.78,14.28,1.24
		c2.52,0.24,4.7-0.18,6.24-2.51c1.56,2.3,3.68,2.86,6.27,2.41c-0.08,0.35-0.12,0.53-0.15,0.71c-0.27,1.76-0.35,3.52,1.25,4.74
		c1.69,1.29,3.61,1.37,5.44,0.4c1.51-0.8,3.03-1.69,4.31-2.82c3.18-2.8,6.22-5.76,9.32-8.66c0.74-0.69,1.46-1.39,2.47-2.34
		c0,1.05-0.03,1.71,0,2.38c0.07,1.45,0.95,2.68,2.31,2.88c2.04,0.31,4.11,0.56,6.17,0.57c0.82,0,2.09-0.51,2.38-1.15
		c0.71-1.55,1.84-1.37,3.06-1.28c1.42,0.12,2.85,0.21,4.26,0.4c2.69,0.36,4.27-0.97,4.27-3.71c0.01-6.61,0.01-13.22,0-19.83
		C106.1,53.9,105.07,52.79,102.91,52.66z M12.59,76.9c-2.4,0.19-4.84,0.44-7.28,0.56c-1.01,0.05-1.66-0.59-1.67-1.67
		c-0.05-6.75-0.09-13.5-0.12-20.25c-0.01-1.22,0.71-1.75,1.87-1.8c2.32-0.1,4.63-0.21,7.2-0.32V76.9z M20.95,79.11
		c-1.52,0.17-3.05,0.3-4.57,0.39c-1.16,0.06-1.9-0.45-1.92-1.71c-0.11-8.43-0.21-16.86-0.31-25.29c-0.01-1.1,0.51-1.77,1.64-1.91
		c1.27-0.16,2.53-0.41,3.81-0.48c1.62-0.1,2.13,0.41,2.2,2.02c0.2,4.19,0.39,8.38,0.58,12.57h-0.07c0.2,4.04,0.41,8.08,0.59,12.12
		C22.97,78.49,22.59,78.93,20.95,79.11z M53.54,79.93c-0.29,1.52-1.9,2.5-3.67,2.38c-4.58-0.29-9.14-0.76-13.71-1
		c-1.63-0.09-2.75-0.77-3.78-1.92c-1.03-1.13-2.19-2.12-3.28-3.2c-1.96-1.92-1.95-1.92-4.72-2.07c-0.25-5.99-0.49-11.88-0.75-17.97
		h1.78c7.94,0.04,15.88,0.09,23.82,0.13c3.02,0.01,3.86,1.02,4.23,4.06c0.59,4.86,0.02,9.52-1.58,14.11
		c-0.46,1.33-1.22,2.03-2.62,2.19c-3.92,0.45-7-1.84-7.63-5.85c-0.26-1.62,0.85-2.51,2.26-3.24c0.85,1.13,1.73,2.29,2.62,3.44
		c0.27,0.35,0.52,0.78,0.89,0.96c0.36,0.17,0.86,0.06,1.29,0.07c-0.05-0.39,0.03-0.87-0.17-1.15c-1.04-1.42-2.16-2.79-3.34-4.31
		c0.58-0.45,1.13-0.73,1.46-1.17c0.35-0.47,0.5-1.1,0.74-1.66c-0.56,0.12-1.22,0.08-1.66,0.38c-2.44,1.66-4.86,3.35-7.23,5.12
		c-1.78,1.32-3.54,1.5-5.51,0.46c-0.9-0.47-1.92-0.75-2.91-0.99c-0.31-0.07-0.71,0.31-1.07,0.48c0.22,0.33,0.38,0.81,0.69,0.95
		c1.35,0.59,2.7,1.32,4.13,1.55c1.33,0.21,2.76-0.06,4.12-0.3c0.63-0.11,1.19-0.64,1.69-0.92c0.8,1.61,1.52,3.2,2.36,4.71
		c2.2,3.94,6.33,3.87,9.41,2.43c1.05-0.49,1.66-1.92,2.56-3.02C53.84,76.33,53.87,78.17,53.54,79.93z M54.73,57.88
		c-1.16-2.62-3.21-3.28-5.74-3.26c-4.39,0.03-8.78-0.09-13.16-0.08c-0.96,0-1.38-0.29-1.67-1.19c-2.11-6.67-3.31-13.48-3.45-20.48
		c-0.04-1.81,0.36-2.26,2.13-2.78c3.68-1.07,7.41-2,10.97-3.38c3.34-1.3,6.08-3.62,8.46-6.32c1.17-1.33,2.24-1.39,3.35-0.11
		c4.61,5.31,10.65,7.97,17.37,9.34c4.43,0.9,4.41,0.85,4.21,5.32c-0.28,6.29-1.51,12.4-3.36,18.4c-0.28,0.91-0.72,1.21-1.66,1.21
		c-3.9-0.02-7.79,0.12-11.69,0.07C57.95,54.58,55.93,55.3,54.73,57.88z M83.7,73.62c-0.57,1.24-2.18,1.99-3.27,3.02
		c-2.85,2.65-5.63,5.39-8.52,7.99c-1.31,1.18-2.8,2.18-4.27,3.15c-0.59,0.39-1.4,0.77-2.06,0.69c-0.99-0.13-2.17-0.41-2.83-1.08
		c-0.91-0.9-0.62-2.22,0.08-3.28c2.22-3.37,4.36-6.81,6.76-10.06c1.89-2.55,0.75-5.07-0.46-7.27c-0.13-0.24-0.65-0.25-0.99-0.37
		c-0.12,0.38-0.41,0.8-0.33,1.12c0.17,0.65,0.53,1.25,0.91,2.08c-1.4,0.32-2.65,0.61-4.14,0.96c0.29-1.9,0.57-3.57,0.78-5.26
		c0.11-0.87,0.16-1.77,0.09-2.65c-0.03-0.33-0.47-0.64-0.73-0.95c-0.27,0.29-0.74,0.55-0.79,0.88c-0.39,2.43-0.73,4.86-1.02,7.3
		c-0.16,1.35,0.9,2.31,2.33,2.17c0.63-0.07,1.25-0.26,1.88-0.39c0.56-0.12,1.13-0.24,2-0.42c-0.28,0.65-0.41,1.1-0.65,1.47
		c-1.66,2.57-3.33,5.13-5.01,7.68c-0.86,1.29-3.64,2.27-5.13,1.83c-1.68-0.48-2.7-1.83-2.67-3.96c0.1-6.26,0.26-12.52,0.48-18.77
		c0.06-1.98,1.31-3.18,3.19-3.19c8.24-0.07,16.47-0.09,24.71-0.12c0.09,0,0.18,0.06,0.49,0.16c-0.17,4.23-0.34,8.41-0.52,12.59
		C83.95,70.52,84.3,72.28,83.7,73.62z M93.68,78.41c-0.02,1.02-0.54,1.59-1.56,1.55c-1.77-0.07-3.55-0.16-5.31-0.34
		c-1.12-0.11-1.55-0.84-1.5-1.97c0.19-4.14,0.32-8.28,0.46-12.42h0.06c0.15-4.14,0.31-8.27,0.46-12.41
		c0.07-1.72,0.55-2.26,2.23-2.17c1.37,0.07,2.77,0.22,4.08,0.6c0.57,0.17,1.33,1.03,1.33,1.58C93.91,61.35,93.78,69.88,93.68,78.41z
		 M104.49,76.26c-0.01,1.23-0.71,1.77-1.92,1.68c-2.3-0.15-4.61-0.31-6.96-0.47V53.88c2.7,0.16,5.1,0.27,7.5,0.44
		c0.98,0.08,1.5,0.68,1.5,1.68C104.58,62.76,104.55,69.51,104.49,76.26z"/>
	<path class="st1" d="M66.69,39.03c-4.16,3.62-8.32,7.24-12.39,10.95c-3.1,2.83-5.59,2.73-8.25-0.52c-0.75-0.91-1.57-1.78-2.28-2.71
		c-1.04-1.37-0.9-2.95,0.29-3.98c1.2-1.05,2.74-0.95,3.98,0.27c0.42,0.41,0.79,0.87,1.18,1.32c0.39,0.43,0.77,0.88,1.17,1.33
		c2.88-2.69,5.64-5.36,8.51-7.91c1.43-1.28,3.02-2.39,4.61-3.46c1.39-0.93,3.05-0.58,3.92,0.66C68.35,36.28,68,37.89,66.69,39.03z"
		/>
</g>
</svg>
