<?xml version="1.0" encoding="utf-8"?>
<!-- Generator: Adobe Illustrator 24.3.0, SVG Export Plug-In . SVG Version: 6.00 Build 0)  -->
<svg version="1.1" id="Layer_1" xmlns="http://www.w3.org/2000/svg" xmlns:xlink="http://www.w3.org/1999/xlink" x="0px" y="0px"
	 width="672.6px" height="425.7px" viewBox="0 0 672.6 425.7" style="enable-background:new 0 0 672.6 425.7;" xml:space="preserve"
	>
<style type="text/css">
	.st0{fill:#00B0FB;}
	.st1{fill:#00B0FB;fill-opacity:0.4;}
	.st2{fill:#FFFFFF;}
	.st3{fill:none;}
	.st4{fill:#001135;}
	.st5{fill:#3C7CFF;}
	.st6{fill:#3C7CFF;stroke:#001135;stroke-width:0.7602;stroke-miterlimit:10;}
	.st7{fill:#DBDBDB;}
	.st8{fill:#B9B9B9;}
	.st9{fill:#080808;}
	.st10{fill:#060606;}
	.st11{fill:#070707;}
	.st12{fill:#121212;}
	.st13{fill:#111111;}
	.st14{fill:#090909;}
	.st15{fill:#FDFDFD;}
	.st16{fill:#F9F9F9;}
	.st17{fill:#F3F2F3;}
	.st18{fill:#FAFAFA;}
	.st19{fill:#0A0A0A;}
	.st20{fill:#EEEEEE;}
	.st21{fill:#0D0D0D;}
	.st22{fill:#0C0C0C;}
	.st23{fill:#0E0E0E;}
	.st24{fill:#050505;}
	.st25{fill:#3A3A3A;}
	.st26{fill:#525252;}
	.st27{fill:#474747;}
	.st28{fill:#1E1E1E;}
	.st29{fill:#1D1D1D;}
	.st30{fill:#222222;}
	.st31{fill:#494949;}
	.st32{fill:#585858;}
	.st33{fill:#EDEDED;}
	.st34{fill:#F0F0F0;}
	.st35{fill:#EAEAEA;}
	.st36{fill:#EAE9EA;}
	.st37{fill:#040404;}
	.st38{fill:#F4F3F4;}
	.st39{fill:#030303;}
	.st40{fill:#E8E8E8;}
	.st41{fill:#0C0C0B;}
	.st42{fill:#0D0D0C;}
	.st43{fill:#919191;}
	.st44{fill:#909090;}
	.st45{fill:#0E0E0D;}
	.st46{fill:#0C0D0C;}
	.st47{fill:#090908;}
	.st48{fill:#141414;}
	.st49{fill:#4C4D4D;}
	.st50{fill:#737474;}
	.st51{fill:#242424;}
	.st52{fill:#202020;}
	.st53{fill:#101010;}
	.st54{fill:#0D0E0D;}
	.st55{fill:#111212;}
	.st56{fill:#0B0B0B;}
	.st57{fill:#0D0C0C;}
	.st58{fill:#E7E7E7;}
	.st59{fill:#272727;}
	.st60{fill:#2E2E2E;}
	.st61{fill:#1F1E1E;}
	.st62{fill:#1B1A1A;}
	.st63{fill:#E6E6E6;}
	.st64{fill:#0F0E0E;}
	.st65{fill:#F2F2F2;}
	.st66{fill:#F4F3F3;}
	.st67{fill:#F9F8F8;}
	.st68{fill:#F1F1F0;}
	.st69{fill:#F6F6F6;}
	.st70{fill:#F5F6F6;}
	.st71{fill:#F5F5F5;}
	.st72{fill:#2C2C2C;}
	.st73{fill:#252625;}
	.st74{fill:#303030;}
	.st75{fill:#2D2D2C;}
	.st76{fill:#2D2D2D;}
	.st77{fill:#262727;}
	.st78{fill:#191919;}
	.st79{fill:#1B1B1B;}
	.st80{fill:#F7F7F7;}
	.st81{fill:#F6F7F7;}
	.st82{fill:#F9F9FA;}
	.st83{fill:#F4F4F4;}
	.st84{fill:#F8F8F8;}
	.st85{fill:#FCFCFC;}
	.st86{fill:#FBFBFB;}
	.st87{fill:#E2E1E2;}
	.st88{fill:#D8D7D8;}
	.st89{fill:#0F0F0F;}
	.st90{fill:#161616;}
	.st91{fill:#181818;}
	.st92{fill:#131313;}
	.st93{fill-rule:evenodd;clip-rule:evenodd;fill:#00B0FB;}
	.st94{fill:#030302;}
	.st95{fill:#D2D3D3;}
	.st96{fill:#1F1F1F;}
	.st97{fill:#0E0D0E;}
	.st98{fill:#BABBBB;}
	.st99{fill:#8A8A8A;}
	.st100{fill:#8E8F8F;}
	.st101{fill:#464746;}
	.st102{fill:#5F5E5E;}
	.st103{fill:#151414;}
	.st104{fill:#282828;}
	.st105{fill:#030202;}
	.st106{fill:#040403;}
	.st107{fill:#040303;}
	.st108{fill:#202021;}
	.st109{fill:#020202;}
	.st110{fill:#050506;}
</style>
<g>
	<path d="M672.5,169.7c-0.2,5.3-1.9,10.2-3.9,15c-5.5,12.7-13.3,24-21.8,34.8c-4.9,6.3-10,12.4-15.2,18.3c-1.5,1.7-3.1,3.5-4.6,5.2
		c-2.4,2.6-4.8,5.2-7.2,7.7c-1.7,1.8-3.5,3.6-5.3,5.5c-6,6.1-12.2,12.1-18.5,18c-0.9,0.8-1.8,1.7-2.7,2.5c-0.7,0.6-1.4,1.3-2.1,1.9
		c-4.1,3.8-8.3,7.6-12.5,11.3c-0.3,0.2-0.5,0.5-0.8,0.7c-4.2,3.8-8.5,7.5-12.8,11.1c-0.6,0.5-1.2,1-1.8,1.5c-0.6,0.5-1.2,1-1.7,1.5
		c-0.2,0.1-0.3,0.3-0.5,0.4c-10.5,8.8-21.2,17.4-32.1,25.7c-1.1,0.8-2.1,1.6-3.2,2.4c-0.2,0.1-0.3,0.2-0.4,0.3
		c-3.5,2.6-7,5.2-10.5,7.8c-3.2,2.4-6.5,4.7-9.7,7c-1.2,0.8-2.4,1.7-3.5,2.5c-11.5,8.1-23.3,15.8-35.2,23.3
		c-1.8,1.1-3.7,2.3-5.5,3.4c-1.1,0.7-2.2,1.4-3.4,2.1c-5.7,3.5-11.5,6.9-17.4,10.2c-1.5,0.9-3.1,1.8-4.6,2.6
		c-14.9,8.3-30.3,15.8-46.2,22.2c-14,5.5-28.1,10.4-43.6,11c-2.2-0.2-4.6-0.2-6.9-0.5c-8.8-1.4-13.6-7-13.4-15.8
		c0-4.8,1.4-9.3,3.1-13.7c4.6-11.6,11.4-21.9,18.7-31.8c9.2-12.3,19.1-23.9,29.6-35c1.4-1.5,2.9-3,4.3-4.5c1-1,2-2.1,3-3.1
		c1-1,1.9-2,2.9-3c1.8-1.8,3.5-3.5,5.3-5.2c0,0,0.1-0.1,0.1-0.1c0.9-0.9,1.9-1.9,2.8-2.8c0.2-0.2,0.4-0.4,0.6-0.6c0,0,0,0,0,0
		c0.1-0.1,0.2-0.2,0.4-0.3c2.9-2.8,5.8-5.5,8.7-8.2c1-1,2.1-1.9,3.1-2.9c0.7-0.7,1.4-1.3,2.2-2c0.7-0.6,1.4-1.3,2.1-1.9
		c0.5-0.5,1.1-1,1.6-1.5c0.6-0.5,1.1-1,1.7-1.5c2.3-2,4.5-4.1,6.8-6.1c0.3-0.2,0.6-0.5,0.8-0.7c0.1-0.1,0.2-0.2,0.3-0.3
		c0.6-0.5,1.2-1,1.7-1.5c0.3-0.2,0.5-0.5,0.8-0.7c2.8-2.4,5.6-4.8,8.4-7.2c1.1-1,2.3-1.9,3.4-2.9c1.1-0.9,2.1-1.8,3.2-2.6
		c2.2-1.8,4.4-3.7,6.7-5.5c0,0,0,0,0,0c2.2-1.8,4.4-3.5,6.6-5.2c0.2-0.2,0.4-0.3,0.6-0.5c0.9-0.7,1.9-1.5,2.8-2.2
		c0.9-0.7,1.8-1.4,2.8-2.1c1.2-1,2.4-1.9,3.6-2.8c3.8-2.9,7.5-5.8,11.4-8.6c0.8-0.6,1.6-1.2,2.4-1.8c1.8-1.3,3.5-2.6,5.3-3.9
		c1-0.8,2.1-1.5,3.1-2.2c2.6-1.9,5.2-3.7,7.7-5.5c0,0,0.1-0.1,0.1-0.1c0.1-0.1,0.3-0.2,0.4-0.3c0.8-0.6,1.7-1.2,2.5-1.8
		c0.2-0.1,0.3-0.2,0.5-0.3c0.1-0.1,0.2-0.1,0.3-0.2c3.6-2.5,7.2-5,10.9-7.5c2.5-1.7,5-3.3,7.4-5c1-0.7,2-1.3,3-2
		c0.3-0.2,0.5-0.3,0.8-0.5c0.9-0.6,1.8-1.2,2.7-1.8c1.1-0.7,2.1-1.4,3.2-2c4.6-2.9,9.3-5.8,13.9-8.7c1.1-0.7,2.1-1.3,3.2-1.9
		c0.8-0.5,1.6-0.9,2.4-1.4c1.1-0.6,2.1-1.3,3.2-1.9c6.4-3.8,12.9-7.4,19.5-10.9c3.8-2,7.6-4,11.5-6c1-0.5,2-1,2.9-1.5
		c3-1.5,6-3,9.1-4.4v0c1.3-0.6,2.7-1.2,4-1.8c2.3-1,4.6-2,6.9-3c9.4-4,19-7.5,29-10.1c8.6-2.3,17.4-4,26.4-2.8
		C667.9,154.2,672.9,160,672.5,169.7z"/>
	<g>
		<path class="st2" d="M123,77.8c0-6.5,0-63,0-69.5c0-4.8-0.1-5-4.8-5c-35,0-70,0-105,0c-1.9,0-3.7,0-5.6,0c-3.8,0-4.2,0.4-4.2,4.3
			c0,26.3,0,52.6,0,78.8c0,7,0,41.4,0,59.8c0,0,0,0,0,0c0,4.2,0.1,8.1,0,12.1c-0.1,2.8,1.2,3.9,3.9,3.9c37.2,0,74.4,0,111.6,0
			c3.9,0,4.3-0.5,4.2-4.3c0-26.1,0-52.2,0-78.3C122.9,79.1,123,78.4,123,77.8z M23.1,17.2c15.4,0,30.7,0,46.1,0c4,0,4.2,0.2,4.2,4.3
			c0,0.6-0.1,1.3,0,1.9c0.3,2.9-0.8,4-3.9,4c-8.1-0.2-16.2-0.1-24.3-0.1c0,0,0,0,0-0.1c-8.2,0-16.4-0.1-24.6,0
			c-2.8,0-3.9-0.8-3.8-3.8C17,17.2,16.8,17.2,23.1,17.2z M20,31.2c7.4,0,14.7-0.1,22.1-0.2c2.8,0,5.6,0,8.4,0c0,0,0,0,0,0
			c10,0,19.9,0.1,29.9-0.1c3,0,4,1,3.9,4c-0.2,6.2-0.1,6.2-6.1,6.1c-19,0-38-0.1-56.9-0.1c-4.4,0-4.4,0-4.4-4.3c0-0.7,0.1-1.5,0-2.2
			C16.5,32,17.7,31.2,20,31.2z M16,52.1c-0.1-2,2-1.2,3.2-1.2c14.5-0.1,29.1,0,43.6,0c0,0,0,0,0,0c14.1,0,28.2,0,42.3,0
			c0.8,0,1.7,0,2.5,0c0.7,0,1.6,0.1,1.5,1.1c-0.1,0.8-0.8,0.8-1.4,0.8c-0.8,0.1-1.7,0.1-2.5,0.1c-28.6,0-57.3,0-85.9,0
			C18,52.9,16,53.5,16,52.1z M89.3,70.9c-0.1,8.2,1.3,7.5-7.4,7.4c-7-0.1-7-0.1-7-7.4c0-7.3,0-7.3,7.1-7.4
			C90.8,63.5,89.2,62.7,89.3,70.9z M63.1,78.3c-6.6-0.1-6.6-0.1-6.6-6.8c0-8,0-8,7.9-8.1c7.4-0.1,6.4-0.7,6.4,7.1
			C70.7,78.9,72.5,78.5,63.1,78.3z M51.8,70.7c0,0.1,0,0.2,0,0.3c0,7.3,0,7.3-7.2,7.3c-7.2,0-7.2,0-7.3-7.3
			c-0.1-7.4-0.1-7.4,7.3-7.4C51.8,63.6,51.8,63.6,51.8,70.7z M24.9,78.3c-7,0-7,0-7.1-7.3c-0.1-7.8-1.7-7.5,7.3-7.4
			c7.3,0.1,7.3,0,7.2,7.4C32.3,79.3,33.7,78.3,24.9,78.3z M60.9,112.6c-6,0-12,0-18.1,0c0,0,0,0,0,0c-7.3,0-14.5-0.1-21.8,0
			c-2.4,0-3.6-0.5-3.5-3.3c0.3-8.7-1.1-7.4,7.4-7.5c13.2-0.1,26.4,0,39.6-0.1c2.7,0,3.6,0.8,3.6,3.5C68,112.6,68.1,112.6,60.9,112.6
			z M94.2,119.3c0.8,0,1.7,0,2.5,0.1c0.7,0.1,1,0.7,1.1,1.3c0.1,0.7-0.3,1.3-1,1.4c-0.8,0.2-1.6,0.2-2.5,0.2
			c-24.2,0-48.3,0-72.5-0.1c-1.5,0-4,0.8-4.1-1.4c-0.1-2.4,2.5-1.5,4-1.5c12.1-0.1,24.3,0,36.4,0C70.1,119.3,82.1,119.3,94.2,119.3z
			 M77.7,147.6c-0.8,0.1-1.6,0.2-2.5,0.2c-18,0-35.9,0-53.9-0.1c-0.1,0-0.2,0-0.3,0c-1.3-0.2-3.4,0.5-3.4-1.6c0-1.8,2-1.5,3.3-1.5
			c9.2,0,18.5,0,27.7,0c0,0,0,0,0,0c8.9,0,17.9,0,26.8,0c0.7,0,1.5,0,2.2,0.1c0.8,0.1,1.4,0.6,1.4,1.4
			C79.1,146.9,78.5,147.4,77.7,147.6z M96.6,134.9c-0.8,0.1-1.7,0.1-2.5,0.1c-12.3,0-24.5,0-36.8,0c0,0,0,0,0,0
			c-11.9,0-23.9,0-35.8,0c-0.9,0-1.9,0-2.8-0.1c-0.6-0.1-1.1-0.6-1.2-1.2c-0.1-0.7,0.5-1.2,1.1-1.3c1-0.2,2.1-0.3,3.1-0.3
			c24.2,0,48.4,0,72.6,0c0.8,0,1.7,0,2.5,0.2c0.6,0.2,1,0.7,1,1.4C97.7,134.2,97.3,134.8,96.6,134.9z M111.5,87.7
			c-0.1,0.6-0.5,0.9-1,1c-0.7,0.1-1.4,0.1-2.2,0.1c-29.6,0-59.2,0-88.8,0c-0.6,0-1.2,0-1.9,0c-0.6-0.1-1.3-0.3-1.3-1
			c-0.1-0.8,0.6-1,1.2-1.1c1.1-0.1,2.3-0.1,3.4-0.1c14.4,0,28.9,0,43.3,0c14.6,0,29.3,0,43.9,0c0.7,0,1.5,0,2.2,0.1
			C111,86.6,111.6,87,111.5,87.7z"/>
		<path d="M126.4,59.2c0-19.2,0-46.2,0-50.7c0-7-1.5-8.5-8.3-8.5C97.1,0,76,0,54.9,0c-16,0-32,0-48,0C2.1,0.1,0,2.2,0,6.6
			c0,34.5,0,112.6,0,147.1c0,0.2,0,0.3,0,0.5c0,0,0,0,0,0c0,1.6,0,3.2,0,4.8c0,4.2,2.4,6.5,6.6,6.5c37.3,0,74.6,0,111.9,0
			c6.2,0,8-1.8,8-7.9c0-25.9,0-51.8,0-77.7v0v-0.8v0c0-5.9,0-11.9,0-17.8C126.5,60.6,126.5,59.9,126.4,59.2
			C126.4,59.2,126.4,59.2,126.4,59.2z M123,157.9c0,3.9-0.4,4.3-4.2,4.3c-37.2,0-74.4,0-111.6,0c-2.8,0-4-1.1-3.9-3.9
			c0.1-3.9,0-7.9,0-12.1c0,0,0,0,0,0c0-18.5,0-52.8,0-59.8c0-26.3,0-52.6,0-78.8c0-3.9,0.4-4.3,4.2-4.3c1.9,0,3.7,0,5.6,0
			c35,0,70,0,105,0c4.7,0,4.8,0.1,4.8,5c0,6.5,0,63,0,69.5c0,0.6-0.1,1.3,0.1,1.8C123,105.7,123,131.8,123,157.9z"/>
		<path d="M16.9,36.7c0,4.3,0,4.3,4.4,4.3c19,0,38,0.1,56.9,0.1c6,0,5.9,0,6.1-6.1c0.1-3-0.8-4-3.9-4c-10,0.1-19.9,0.1-29.9,0.1
			c0,0,0,0,0,0c-2.8,0-5.6,0-8.4,0c-7.4,0.1-14.7,0.2-22.1,0.2c-2.3,0-3.5,0.8-3.2,3.3C16.9,35.2,16.9,35.9,16.9,36.7z"/>
		<path d="M20.6,27.2c8.2-0.1,16.4,0,24.6,0c0,0,0,0,0,0.1c8.1,0,16.2-0.1,24.3,0.1c3.1,0.1,4.2-1,3.9-4c-0.1-0.6,0-1.2,0-1.9
			c0-4.1-0.2-4.3-4.2-4.3c-15.4,0-30.7,0-46.1,0c-6.3,0-6.1,0-6.3,6.3C16.7,26.4,17.8,27.3,20.6,27.2z"/>
		<path d="M64.5,101.8c-13.2,0.1-26.4,0-39.6,0.1c-8.5,0.1-7.2-1.2-7.4,7.5c-0.1,2.8,1,3.3,3.5,3.3c7.3-0.1,14.5,0,21.8,0
			c0,0,0,0,0,0c6,0,12,0,18.1,0c7.2,0,7.1,0,7.2-7.3C68.2,102.6,67.3,101.8,64.5,101.8z"/>
		<path d="M21.7,119.4c-1.5,0-4-0.9-4,1.5c0.1,2.3,2.6,1.4,4.1,1.4c24.2,0.1,48.3,0.1,72.5,0.1c0.8,0,1.7,0,2.5-0.2
			c0.6-0.2,1-0.7,1-1.4c-0.1-0.6-0.4-1.2-1.1-1.3c-0.8-0.1-1.7-0.1-2.5-0.1c-12,0-24.1,0-36.1,0C45.9,119.3,33.8,119.3,21.7,119.4z"
			/>
		<path d="M96.8,132.1c-0.8-0.2-1.6-0.2-2.5-0.2c-24.2,0-48.4,0-72.6,0c-1,0-2.1,0.1-3.1,0.3c-0.6,0.1-1.1,0.6-1.1,1.3
			c0.1,0.7,0.5,1.2,1.2,1.2c0.9,0.1,1.9,0.1,2.8,0.1c11.9,0,23.9,0,35.8,0c0,0,0,0,0,0c12.3,0,24.5,0,36.8,0c0.8,0,1.7,0,2.5-0.1
			c0.7-0.1,1.1-0.6,1.1-1.3C97.8,132.9,97.4,132.3,96.8,132.1z"/>
		<path d="M110.4,86.5c-0.7-0.1-1.5-0.1-2.2-0.1c-14.6,0-29.3,0-43.9,0c-14.4,0-28.9,0-43.3,0c-1.1,0-2.3,0-3.4,0.1
			c-0.6,0.1-1.3,0.3-1.2,1.1c0.1,0.8,0.7,1,1.3,1c0.6,0.1,1.2,0,1.9,0c29.6,0,59.2,0,88.8,0c0.7,0,1.5,0,2.2-0.1c0.6-0.1,1-0.4,1-1
			C111.6,87,111,86.6,110.4,86.5z"/>
		<path d="M25.1,63.6c-9-0.1-7.4-0.4-7.3,7.4c0.1,7.3,0.1,7.4,7.1,7.3c8.8,0,7.3,1,7.4-7.4C32.5,63.6,32.4,63.6,25.1,63.6z"/>
		<path d="M64.4,63.5c-7.9,0.1-7.9,0.1-7.9,8.1c0,6.7,0,6.7,6.6,6.8c9.4,0.1,7.6,0.5,7.7-7.7C70.8,62.8,71.8,63.5,64.4,63.5z"/>
		<path d="M82,63.5c-7.1,0-7.1,0.1-7.1,7.4c0,7.4,0,7.4,7,7.4c8.7,0.1,7.3,0.8,7.4-7.4C89.2,62.7,90.8,63.5,82,63.5z"/>
		<path d="M44.6,63.6c-7.3,0-7.3,0-7.3,7.4c0.1,7.3,0.1,7.3,7.3,7.3c7.2,0,7.2,0,7.2-7.3c0-0.1,0-0.2,0-0.3
			C51.8,63.6,51.8,63.6,44.6,63.6z"/>
		<path d="M77.6,144.6c-0.7-0.1-1.4-0.1-2.2-0.1c-8.9,0-17.9,0-26.8,0c0,0,0,0,0,0c-9.2,0-18.5,0-27.7,0c-1.3,0-3.2-0.3-3.3,1.5
			c0,2.1,2,1.5,3.4,1.6c0.1,0,0.2,0,0.3,0c18,0,35.9,0,53.9,0.1c0.8,0,1.7,0,2.5-0.2c0.8-0.1,1.3-0.7,1.3-1.5
			C79,145.2,78.4,144.8,77.6,144.6z"/>
		<path d="M19.2,52.9c28.6,0,57.3,0,85.9,0c0.8,0,1.7,0,2.5-0.1c0.6,0,1.4,0,1.4-0.8c0.1-1-0.7-1.1-1.5-1.1c-0.8,0-1.7,0-2.5,0
			c-14.1,0-28.2,0-42.3,0c0,0,0,0,0,0c-14.5,0-29.1,0-43.6,0c-1.2,0-3.3-0.8-3.2,1.2C16,53.5,18,52.9,19.2,52.9z"/>
		<g>
			<path class="st2" d="M106.1,208.2c0-1.9-0.4-2.6-2.5-2.6c-15.3,0.1-30.5,0.1-45.8,0.1c0,0,0,0.1,0,0.1c-15.4,0-30.9,0-46.3,0
				c-2.2,0-3,0.6-2.9,2.9c0.1,6,0.1,12,0,18.1c0,2.1,0.7,2.7,2.6,2.7c3.1-0.1,6.1,0,9.2,0c27.6,0,55.3-0.1,82.9-0.1
				c2.3,0,3.1-0.6,3-3C106,220.2,106,214.2,106.1,208.2z M21,212.6c1.2,0.1,2,0.8,1.9,2.1c-0.1,1.2-0.9,1.7-2.1,1.7
				c-1.3,0-2-0.8-2-2.1C18.9,213.2,19.8,212.6,21,212.6z M20.9,224.9c-1.3,0-2.1-0.8-2-2c0-1.2,0.8-1.7,2-1.9c1.2,0.2,2.1,0.8,2,2.1
				C22.9,224.3,22.1,224.9,20.9,224.9z M28.7,225c-1.3-0.1-2.1-0.9-2-2.1c0.1-1.1,0.8-1.9,2-1.8c1.2,0,2.1,0.8,2.1,2
				C30.8,224.4,29.8,224.9,28.7,225z M28.6,216.5c-1.3-0.1-2-0.9-2-2.1c0.1-1.2,0.9-1.8,2-1.8c1.2,0,2,0.7,2.2,2.1
				C30.6,215.8,29.9,216.6,28.6,216.5z M44.4,212.6c1.2,0,2,0.5,2.1,1.7c0.1,1.4-0.7,2-1.9,2.3c-1.2-0.1-2.1-0.8-2.2-2.1
				C42.4,213.4,43.2,212.7,44.4,212.6z M36.7,225c-1.2,0.1-1.9-0.6-2.1-1.7c-0.1-1.3,0.7-2,1.9-2.2c1.1,0.2,2.1,0.6,2.2,1.9
				C38.8,224.3,37.9,224.9,36.7,225z M36.6,216.5c-1.3,0-2.1-0.8-2-2.1c0-1.2,0.8-1.8,2-1.8c1.3,0,2,0.6,2.2,1.7
				C38.7,215.9,37.8,216.5,36.6,216.5z M44.4,225c-1.3,0-2-0.9-2-2.1c0-1.2,0.9-1.8,2-1.9c1.3,0,2,0.7,2.2,2
				C46.4,224.3,45.7,225,44.4,225z M83.5,221.5c-2.1,0-3.9-1.8-3.9-3.8c0-2,1.9-3.8,3.9-3.9c2.1,0,4.1,1.9,4,4
				C87.5,219.7,85.5,221.5,83.5,221.5z M94.4,221.4c-2.1,0-3.9-1.8-3.9-3.9c0-2.2,1.7-3.8,3.9-3.8c2.1,0,3.9,1.7,3.8,3.9
				C98.3,219.7,96.5,221.5,94.4,221.4z"/>
			<path class="st7" d="M106.1,305.1c0.1-2.3-0.6-2.9-2.8-2.8c-15.3,0.1-30.5,0-45.8,0c0,0,0,0,0,0c-15.4,0-30.9,0-46.3,0
				c-1.9,0-2.7,0.5-2.7,2.6c0.1,5.6,0,11.2,0,16.8c0,3.4,0,3.4,3.5,3.4c8.2,0,16.5,0.1,24.7,0.1c22.1,0,44.1,0,66.2,0.1
				c2.6,0,3.3-0.7,3.3-3.3C106,316.3,106,310.7,106.1,305.1z M28.6,308.9c1.3,0,2.2,0.7,2.2,2c0.1,1.4-0.9,1.8-2.1,2
				c-1.3-0.2-2.1-0.9-2.1-2.1C26.7,309.6,27.4,308.9,28.6,308.9z M20.7,321.2c-1.2-0.1-1.8-0.8-1.8-2c0-1.3,0.8-2.1,2.1-2
				c1.2,0.1,2,0.8,2,2.2C22.8,320.8,21.9,321.3,20.7,321.2z M20.9,312.9c-1.3,0-2.1-0.9-2.1-2.1c0-1.3,0.8-2,2.1-1.9
				c1.3,0.1,1.9,0.9,2,2.1C22.8,312.4,22.1,313,20.9,312.9z M28.8,321.2c-1.3,0.1-2.1-0.6-2.2-1.8c-0.1-1.3,0.8-1.9,1.9-2.2
				c1.3,0.3,2.4,0.8,2.4,2.2C30.8,320.5,30,321.1,28.8,321.2z M44.5,308.9c1.2,0.1,1.9,0.8,1.9,2.1c0,1.3-0.9,1.8-2,1.8
				c-1.3,0-2.1-0.8-2-2.1C42.5,309.6,43.3,309,44.5,308.9z M36.5,308.9c1.2,0,2.1,0.6,2.2,1.9c0.1,1.4-0.8,1.9-2,2.1
				c-1.2-0.1-2.1-0.7-2.2-1.9C34.5,309.7,35.2,309,36.5,308.9z M36.7,321.2c-1.2,0-2-0.6-2.1-1.8c-0.1-1.3,0.6-2.1,1.9-2.2
				c1.2,0,2,0.6,2.3,1.8C38.7,320.6,37.9,321.2,36.7,321.2z M44.6,321.2c-1.3,0.1-2.1-0.7-2.2-2c0-1.2,0.8-1.9,1.9-2
				c1.3-0.1,2,0.7,2.2,2C46.4,320.5,45.7,321.1,44.6,321.2z M83.2,317.7c-2.2-0.2-3.9-2-3.7-4.1c0.2-2,2.3-3.7,4.3-3.6
				c2,0.2,3.8,2.2,3.7,4.1C87.3,316.3,85.3,317.9,83.2,317.7z M94.3,317.7c-2.2,0-3.8-1.6-3.9-3.8c0-2.3,1.6-3.8,3.8-3.8
				c2.2,0,3.9,1.7,3.9,3.8C98.3,316,96.6,317.7,94.3,317.7z"/>
			<path class="st2" d="M116.2,192.1c-0.6-0.2-1.3-0.2-2-0.2c-28,0-55.9,0-83.9,0c-0.8,0-1.7,0-2.4,0.5c-4.8,3.4-9.7,6.8-14.8,10.4
				c0.7,0.2,0.8,0.3,1,0.3c30.6,0,61.2,0,91.8,0c0.9,0,1.6-0.2,2.3-0.8c2.9-2.5,5.8-5,8.7-7.5C118.4,193.5,117.7,192.6,116.2,192.1z
				"/>
			<path class="st7" d="M118,289.8c-2.5,2.6-4.2,4.8-6.3,6.6c-2.5,2.1-3.3,4.5-3.1,7.8c0.3,5.9,0.1,11.8,0.1,17.7
				c0.2,0,0.4,0.1,0.7,0.1c0.5-0.5,0.9-1.1,1.4-1.5c6.2-5,8.4-11.4,7.4-19.3C117.6,297.8,118,294.1,118,289.8z"/>
			<path class="st2" d="M109.4,290.1c2.4-2.8,4.9-5.6,7.3-8.4c0.6-0.7,1.2-1.5,1.2-2.5c0-6.8,0-13.6,0-21.2c-2.9,3.1-5.2,5.6-7.6,8
				c-1.5,1.4-1.9,3-1.9,5c0.2,5.8,0.2,11.7,0.3,17.5C108.9,289,108.5,289.7,109.4,290.1z"/>
			<path class="st7" d="M11.3,300.8c0.8,0,1.7,0,2.5,0c16.6,0,33.2,0,49.8,0c12.9,0,25.8,0.1,38.7,0.1c1.9,0,1.9,0,2.5-1
				c-31.1,0-62.3,0-93.5,0C11.2,300.3,11.2,300.6,11.3,300.8z"/>
			<path class="st7" d="M109.1,235.4c-0.4,0.4-0.6,1.1-0.6,1.6c0,6.9,0,13.8,0,20.7c0.3,0.1,0.6,0.1,0.8,0.2c0.6-0.7,1.3-1.3,1.9-2
				c6.8-7.4,6.8-7.4,6.7-17.4c0-3.9,0-7.9,0-11.8C114.6,229.5,111.8,232.4,109.1,235.4z"/>
			<path class="st2" d="M108.8,206.3c0,6.4,0,12.9,0,19.3c0.2,0.1,0.4,0.2,0.6,0.3c2.6-3,5.2-6,7.8-9c0.4-0.5,0.7-1.2,0.7-1.9
				c0.1-5.6,0-11.3,0-17.5c-3.1,2.6-5.8,4.9-8.5,7.2C108.9,205.1,108.8,205.6,108.8,206.3z"/>
			<path class="st7" d="M103,237.1c0.9,0,1.9,0,2.2-1.3c-0.4-0.1-0.7-0.1-1-0.1c-30.3,0-60.7,0-91,0c-0.8,0-1.7-0.1-2,1.1
				c0.4,0.1,0.7,0.2,1,0.2C42.5,237,72.7,237.1,103,237.1z"/>
			<path class="st2" d="M10.9,269.1c5.7,0,11.2,0,16.7,0c24.8,0,49.7,0,74.5,0c1.1,0,2.4,0.2,3.3-1.2c-0.4-0.1-0.5-0.1-0.6-0.1
				c-30.6,0-61.2,0-91.8,0C12.2,267.8,11.4,267.8,10.9,269.1z"/>
			<path class="st2" d="M65.1,293.6c12.2,0,24.4,0,36.6,0c4.4,0,4.4,0,4.4-4.2c0-5.5-0.1-11,0-16.5c0-2-0.6-2.6-2.6-2.6
				c-15.3,0.1-30.7,0-46,0c0,0,0,0.1,0,0.1c-0.9,0-1.9,0-2.8,0c-14.4,0-28.8,0.1-43.2,0c-2.4,0-3,0.8-3,3.1c0.1,5.6,0,11.2,0,16.8
				c0,3.3,0,3.4,3.4,3.4C29.7,293.7,47.4,293.6,65.1,293.6z M94.3,278.3c2.2,0,3.9,1.7,3.9,3.8c0,2-1.7,3.7-3.7,3.8
				c-2.2,0.1-4.1-1.9-4-4.1C90.6,279.7,92.1,278.3,94.3,278.3z M83.5,278.3c2.1,0,3.9,1.8,3.9,3.9c0,2-2,3.8-4.1,3.8
				c-2-0.1-3.7-1.8-3.8-3.8C79.6,280.1,81.4,278.3,83.5,278.3z M44.4,289.4c-1.3,0-2.1-0.8-2-2.1c0.1-1.1,0.8-1.9,2-1.8
				c1.3,0.1,2,0.8,2.1,2.1C46.3,288.7,45.6,289.4,44.4,289.4z M44.4,277.1c1.1,0,1.9,0.6,2,1.8c0.1,1.4-0.7,1.9-1.9,2.1
				c-1.3,0-2-0.7-2.1-1.8C42.3,277.9,43.1,277.1,44.4,277.1z M36.5,277.2c1.2-0.1,2.1,0.5,2.3,1.7c0,1.4-0.7,2-1.8,2.1
				c-1.3,0.1-2.1-0.5-2.2-1.8C34.5,278,35.3,277.2,36.5,277.2z M36.7,285.5c1.1,0.1,2.1,0.7,2.1,2c0,1.4-1,1.9-2.2,1.9
				c-1.3,0-2.1-0.8-2-2.1C34.7,286.1,35.5,285.6,36.7,285.5z M20.9,289.4c-1.2-0.1-1.9-0.7-2-1.9c-0.1-1.2,0.5-2,1.8-2
				c1.2,0,2.1,0.7,2.2,2C22.9,288.8,22,289.2,20.9,289.4z M28.8,277.1c1.2,0.1,1.9,0.9,2.1,2.1c-0.3,1.3-1.1,1.9-2.3,1.9
				c-1.2-0.1-1.9-0.8-1.9-1.9C26.7,277.8,27.5,277,28.8,277.1z M28.5,285.5c1.3-0.1,2.2,0.6,2.3,1.8c0.2,1.4-0.8,1.9-2,2.1
				c-1.3,0-2.1-0.7-2.2-1.9C26.6,286.3,27.3,285.6,28.5,285.5z M20.9,277.1c1.2,0.1,2.1,0.8,2,2.1c-0.1,1.2-0.9,1.7-2.1,1.8
				c-1.3-0.1-2-0.9-1.9-2.1C19,277.7,19.8,277,20.9,277.1z"/>
			<path class="st7" d="M103.6,261.5c2,0,2.6-0.7,2.6-2.7c-0.1-6-0.2-12,0-18.1c0-2.1-0.8-2.5-2.7-2.5c-15.4,0.1-30.7,0-46.1,0
				c0,0.1,0,0.1,0,0.2c-15.3,0-30.5,0-45.8,0c-2.2,0-3.1,0.5-3.1,3c0.2,5.8,0.1,11.5,0,17.3c-0.1,2.3,0.8,2.9,2.9,2.9
				C42.1,261.5,72.9,261.4,103.6,261.5z M94.2,246.1c2.1-0.1,4,1.6,4,3.7c0,2.1-1.8,3.9-3.9,3.9c-2.1,0-3.8-1.6-3.9-3.7
				C90.4,247.9,92,246.2,94.2,246.1z M83.6,246.2c2.1,0,3.9,1.8,3.9,3.9c0,2-1.9,3.8-4,3.8c-2.1,0-3.9-1.8-3.9-3.9
				C79.6,248,81.5,246.2,83.6,246.2z M44.5,257.4c-1.3,0.1-2.1-0.7-2.2-2c0-1.2,0.7-1.9,1.9-1.9c1.3,0,2,0.7,2.2,2
				C46.4,256.6,45.6,257.3,44.5,257.4z M44.5,245c1.2,0,2,0.8,2,2.2c-0.2,1.2-1,1.9-2.3,1.8c-1.1-0.1-1.9-0.8-1.9-2
				C42.4,245.7,43.3,245,44.5,245z M36.6,245.1c1.2,0,2.1,0.6,2.2,2c-0.2,1.3-1,1.9-2.3,1.8c-1.2,0-1.9-0.8-1.9-2
				C34.6,245.7,35.4,245.1,36.6,245.1z M36.3,253.4c1.4,0.1,2.3,0.6,2.4,2c0,1.4-0.9,1.9-2.1,2c-1.1,0.1-1.9-0.6-2-1.8
				C34.5,254.2,35.3,253.7,36.3,253.4z M28.6,257.3c-1.1,0-1.9-0.8-1.9-1.9c0-1.3,0.8-2,2.1-2c1.3,0,1.9,0.8,2.1,2.1
				C30.6,256.8,29.8,257.4,28.6,257.3z M28.5,245c1.2,0,2.2,0.6,2.3,1.9c0.1,1.3-0.8,1.9-2,2.1c-1.3,0-2.1-0.7-2.2-2
				C26.6,245.8,27.3,245,28.5,245z M20.8,257.3c-1.2,0-1.9-0.7-1.9-1.9c0-1.1,0.6-1.9,1.8-2c1.3-0.1,2,0.6,2.2,1.9
				C22.9,256.7,22,257.3,20.8,257.3z M20.8,245.1c1.2,0.2,2.1,0.8,2,2.1c-0.1,1.2-0.9,1.8-2.1,1.7c-1.2-0.1-1.9-0.8-1.9-2
				C18.9,245.7,19.7,245.2,20.8,245.1z"/>
			<path d="M119.3,285.4c-1.4-0.7-0.8-1.3-0.2-2.1c1.2-1.5,1.6-3.3,1.6-5.2c0-7.1-0.1-14.2,0-21.4c0-2-0.8-3.2-2.6-4
				c1.4-1.6,2.5-3,2.6-4.9c0.1-7.9,0-15.8,0.1-23.7c0-2-2.8-2.3-2.2-3.9c0.7-1.6,2-2.9,2.1-4.8c0-7,0.1-14.1,0-21.1
				c0-3-2.2-5-5.2-5.1c-2.2-0.1-4.4,0-6.6,0c-25.8,0-51.6,0-77.3,0c-1.8,0-3.7-0.1-5.4,1.1c-6,4.4-12.1,8.7-18.2,13
				c-1.4,1-2.1,2.2-2.1,3.8c0,7,0,13.9,0,20.9c0,1.6,0.5,3.2,2,3.8c2.5,1.1,1.6,2.2,0.2,3.4c-1.4,1.2-2.3,2.5-2.3,4.3
				c0,6.9,0,13.7,0,20.6c0,1.6,0.6,3.1,2.1,3.8c2.2,1,1.5,2.1,0.3,3.2c-1.4,1.2-2.4,2.6-2.4,4.6c0,6.9,0,13.7,0.1,20.6
				c0,1.7,0.5,3.3,2.2,4c2.3,0.9,1.3,2,0.2,2.8c-1.7,1.3-2.4,2.9-2.4,5c0.1,7.7,0,15.4,0.1,23.1c0,3.7,1.8,5.5,5.5,5.5
				c31,0,62.1,0,93.1,0c2.2,0,3.9-0.7,5.3-2.5c2.1-2.7,4-5.8,6.5-8.1c3.8-3.5,4.3-7.9,4.5-12.4c0.2-7.1,0-14.2,0-21.4
				C120.7,287.2,120.4,286,119.3,285.4z M118,238.5c0,10,0,10-6.7,17.4c-0.6,0.7-1.3,1.3-1.9,2c-0.3-0.1-0.6-0.1-0.8-0.2
				c0-6.9,0-13.8,0-20.7c0-0.6,0.2-1.2,0.6-1.6c2.7-3,5.5-5.9,8.9-8.7C118,230.6,118,234.6,118,238.5z M117.9,215
				c0,0.6-0.3,1.4-0.7,1.9c-2.6,3-5.2,6-7.8,9c-0.2-0.1-0.4-0.2-0.6-0.3c0-6.4,0-12.9,0-19.3c0-0.6,0.2-1.2,0.7-1.6
				c2.7-2.3,5.4-4.5,8.5-7.2C117.9,203.7,118,209.4,117.9,215z M8.5,258.6c0.2-5.8,0.2-11.5,0-17.3c-0.1-2.5,0.8-3,3.1-3
				c15.3,0.1,30.5,0,45.8,0c0-0.1,0-0.1,0-0.2c15.4,0,30.7,0,46.1,0c1.9,0,2.7,0.4,2.7,2.5c-0.1,6-0.1,12,0,18.1
				c0,2-0.6,2.7-2.6,2.7c-30.7,0-61.4,0-92.1,0.1C9.3,261.6,8.4,260.9,8.5,258.6z M11.2,236.8c0.3-1.2,1.2-1.1,2-1.1
				c30.3,0,60.7,0,91,0c0.3,0,0.6,0.1,1,0.1c-0.3,1.3-1.3,1.3-2.2,1.3c-30.2,0-60.5-0.1-90.7-0.1C12,237,11.6,236.8,11.2,236.8z
				 M105.3,267.9c-1,1.4-2.2,1.2-3.3,1.2c-24.8,0-49.7,0-74.5,0c-5.5,0-10.9,0-16.7,0c0.5-1.3,1.3-1.3,2.2-1.3c30.6,0,61.2,0,91.8,0
				C104.9,267.8,104.9,267.8,105.3,267.9z M8.5,290.3c0-5.6,0.1-11.2,0-16.8c-0.1-2.3,0.6-3.1,3-3.1c14.4,0.1,28.8,0,43.2,0
				c0.9,0,1.9,0,2.8,0c0,0,0-0.1,0-0.1c15.3,0,30.7,0,46,0c2,0,2.6,0.6,2.6,2.6c-0.1,5.5,0,11,0,16.5c0,4.3,0,4.2-4.4,4.2
				c-12.2,0-24.4,0-36.6,0c-17.7,0-35.4,0-53.2,0C8.5,293.7,8.5,293.7,8.5,290.3z M104.7,300c-0.6,1-0.6,1-2.5,1
				c-12.9,0-25.8-0.1-38.7-0.1c-16.6,0-33.2,0-49.8,0c-0.8,0-1.7,0-2.5,0c0-0.3,0-0.6-0.1-0.9C42.4,300,73.7,300,104.7,300z
				 M102.9,325.2c-22.1-0.1-44.1,0-66.2-0.1c-8.2,0-16.5,0-24.7-0.1c-3.5,0-3.5,0-3.5-3.4c0-5.6,0.1-11.2,0-16.8
				c0-2.1,0.7-2.6,2.7-2.6c15.4,0.1,30.9,0,46.3,0c0,0,0,0,0,0c15.3,0,30.5,0,45.8,0c2.2,0,2.9,0.6,2.8,2.8
				c-0.1,5.6-0.1,11.2,0.1,16.8C106.3,324.5,105.5,325.2,102.9,325.2z M103.2,229.2c-27.6,0-55.3,0-82.9,0.1c-3.1,0-6.1,0-9.2,0
				c-1.9,0-2.7-0.6-2.6-2.7c0.1-6,0.1-12,0-18.1c0-2.3,0.8-2.9,2.9-2.9c15.4,0.1,30.9,0,46.3,0c0,0,0-0.1,0-0.1
				c15.3,0,30.5,0,45.8-0.1c2.1,0,2.5,0.7,2.5,2.6c0,6,0,12,0.2,18.1C106.3,228.6,105.5,229.2,103.2,229.2z M105.8,203
				c-30.6,0-61.2,0-91.8,0c-0.2,0-0.3-0.1-1-0.3c5.1-3.6,10-7,14.8-10.4c0.8-0.5,1.6-0.5,2.4-0.5c28,0,55.9,0,83.9,0
				c0.7,0,1.4,0,2,0.2c1.5,0.6,2.2,1.4,0.6,2.7c-2.9,2.5-5.8,5-8.7,7.5C107.5,202.9,106.7,203,105.8,203z M110.4,266
				c2.4-2.4,4.7-5,7.6-8c0,7.6,0,14.4,0,21.2c0,1-0.6,1.8-1.2,2.5c-2.4,2.8-4.9,5.6-7.3,8.4c-0.9-0.3-0.6-1-0.6-1.5
				c-0.1-5.8-0.1-11.7-0.3-17.5C108.5,269,108.9,267.5,110.4,266z M110.7,320.6c-0.5,0.4-0.9,1-1.4,1.5c-0.2,0-0.4-0.1-0.7-0.1
				c0-5.9,0.2-11.8-0.1-17.7c-0.2-3.3,0.6-5.6,3.1-7.8c2.1-1.8,3.8-4,6.3-6.6c0,4.3-0.4,7.9,0.1,11.5
				C119.1,309.2,116.9,315.6,110.7,320.6z"/>
			<path d="M83.5,213.8c-2.1,0-3.9,1.9-3.9,3.9c0,2,1.8,3.8,3.9,3.8c2.1,0,4-1.7,4.1-3.7C87.6,215.7,85.6,213.7,83.5,213.8z"/>
			<path d="M94.4,213.7c-2.2,0-3.9,1.7-3.9,3.8c0,2.1,1.7,3.9,3.9,3.9c2.1,0,3.9-1.7,3.9-3.8C98.3,215.4,96.6,213.7,94.4,213.7z"/>
			<path d="M44.4,221c-1.1,0-2,0.7-2,1.9c0,1.2,0.7,2.1,2,2.1c1.3,0,2-0.7,2.1-2C46.3,221.8,45.6,221,44.4,221z"/>
			<path d="M28.7,221c-1.2,0-1.9,0.7-2,1.8c-0.1,1.3,0.7,2,2,2.1c1.2-0.1,2.2-0.6,2.1-2C30.8,221.8,29.9,221.1,28.7,221z"/>
			<path d="M28.7,212.5c-1.2,0-2,0.6-2,1.8c-0.1,1.3,0.7,2.1,2,2.1c1.3,0.1,2-0.7,2.2-1.9C30.7,213.2,29.9,212.6,28.7,212.5z"/>
			<path d="M36.6,212.7c-1.2,0-1.9,0.6-2,1.8c0,1.3,0.7,2.1,2,2.1c1.2,0,2.1-0.6,2.2-2.1C38.6,213.3,37.9,212.6,36.6,212.7z"/>
			<path d="M36.6,221c-1.2,0.2-2.1,0.9-1.9,2.2c0.1,1.1,0.9,1.8,2.1,1.7c1.2-0.1,2.1-0.6,2.1-2C38.7,221.6,37.7,221.2,36.6,221z"/>
			<path d="M44.6,216.6c1.2-0.3,2.1-0.9,1.9-2.3c-0.1-1.2-1-1.8-2.1-1.7c-1.2,0-2,0.7-2,1.9C42.4,215.8,43.3,216.5,44.6,216.6z"/>
			<path d="M20.8,216.5c1.1,0,2-0.5,2.1-1.7c0.1-1.3-0.7-2-1.9-2.1c-1.2,0-2,0.5-2.1,1.7C18.8,215.6,19.5,216.4,20.8,216.5z"/>
			<path d="M20.9,221c-1.1,0.1-1.9,0.7-2,1.9c0,1.3,0.7,2,2,2c1.1,0,1.9-0.6,2-1.8C23,221.8,22.1,221.2,20.9,221z"/>
			<path d="M83.5,253.9c2.1,0,4-1.9,4-3.8c0-2.1-1.8-3.9-3.9-3.9c-2.1,0-4,1.8-4,3.8C79.6,252,81.4,253.9,83.5,253.9z"/>
			<path d="M94.3,253.8c2.1,0,3.9-1.8,3.9-3.9c0-2.1-1.8-3.8-4-3.7c-2.2,0.1-3.8,1.8-3.7,4C90.6,252.1,92.3,253.7,94.3,253.8z"/>
			<path d="M28.7,253.5c-1.3,0-2.1,0.7-2.1,2c0,1.2,0.8,1.9,1.9,1.9c1.2,0,2.1-0.5,2.3-1.8C30.7,254.3,30,253.5,28.7,253.5z"/>
			<path d="M28.8,248.9c1.2-0.2,2.1-0.7,2-2.1c-0.1-1.3-1.1-1.9-2.3-1.9c-1.1,0-1.9,0.8-1.9,2C26.7,248.2,27.5,248.9,28.8,248.9z"/>
			<path d="M44.2,248.9c1.3,0.1,2-0.6,2.3-1.8c-0.1-1.4-0.8-2.1-2-2.2c-1.2,0-2.1,0.7-2.1,2C42.3,248.1,43.1,248.9,44.2,248.9z"/>
			<path d="M36.6,257.4c1.2-0.1,2.2-0.6,2.1-2c0-1.3-1-1.8-2.4-2c-1,0.2-1.9,0.8-1.8,2.2C34.7,256.8,35.5,257.4,36.6,257.4z"/>
			<path d="M44.3,253.4c-1.2,0-2,0.7-1.9,1.9c0,1.3,0.9,2.1,2.2,2c1.1,0,1.9-0.7,2-1.9C46.3,254.1,45.6,253.4,44.3,253.4z"/>
			<path d="M36.5,248.9c1.2,0,2.1-0.5,2.3-1.8c-0.1-1.4-1-2-2.2-2c-1.1,0-1.9,0.6-2,1.9C34.6,248.1,35.3,248.9,36.5,248.9z"/>
			<path d="M20.8,248.9c1.2,0,2-0.5,2.1-1.7c0.1-1.3-0.8-1.9-2-2.1c-1.1,0.1-2,0.6-2,1.9C18.9,248.1,19.6,248.9,20.8,248.9z"/>
			<path d="M20.7,253.5c-1.2,0.1-1.8,0.8-1.8,2c0,1.2,0.8,1.9,1.9,1.9c1.2,0,2.1-0.6,2.1-2C22.8,254.1,22,253.4,20.7,253.5z"/>
			<path d="M83.4,285.9c2,0.1,4-1.8,4.1-3.8c0-2.1-1.8-3.9-3.9-3.9c-2.1,0-3.9,1.8-3.9,3.9C79.6,284.2,81.3,285.9,83.4,285.9z"/>
			<path d="M94.5,285.9c2,0,3.7-1.8,3.7-3.8c0-2.1-1.7-3.8-3.9-3.8c-2.2,0-3.7,1.4-3.8,3.6C90.4,284.1,92.3,286,94.5,285.9z"/>
			<path d="M28.8,289.4c1.2-0.2,2.2-0.7,2-2.1c-0.2-1.2-1.1-1.9-2.3-1.8c-1.2,0.1-1.9,0.8-1.9,2C26.7,288.7,27.5,289.4,28.8,289.4z"
				/>
			<path d="M28.5,281c1.3,0.1,2.1-0.5,2.3-1.9c-0.2-1.2-0.9-2-2.1-2.1c-1.3-0.1-2.1,0.7-2.1,2C26.6,280.2,27.3,280.9,28.5,281z"/>
			<path d="M20.8,281c1.2-0.1,2-0.5,2.1-1.8c0.1-1.3-0.8-2-2-2.1c-1.2-0.1-2,0.6-2,1.7C18.9,280.1,19.6,280.9,20.8,281z"/>
			<path d="M44.5,281c1.2-0.2,2-0.8,1.9-2.1c-0.1-1.2-0.9-1.8-2-1.8c-1.2,0-2.1,0.8-2,2.1C42.5,280.3,43.2,281,44.5,281z"/>
			<path d="M36.6,289.4c1.2,0,2.2-0.5,2.2-1.9c0-1.3-0.9-1.9-2.1-2c-1.3,0-2,0.6-2.1,1.8C34.5,288.6,35.3,289.4,36.6,289.4z"/>
			<path d="M36.9,281c1.1-0.1,1.8-0.7,1.8-2.1c-0.2-1.2-1.1-1.7-2.3-1.7c-1.1,0.1-1.9,0.8-1.8,2C34.8,280.4,35.6,281.1,36.9,281z"/>
			<path d="M44.4,285.5c-1.2,0-1.9,0.7-2,1.8c-0.1,1.3,0.7,2.1,2,2.1c1.1,0,1.9-0.7,2-1.8C46.4,286.3,45.7,285.5,44.4,285.5z"/>
			<path d="M20.7,285.5c-1.3,0-1.8,0.8-1.8,2c0.1,1.2,0.8,1.8,2,1.9c1.1-0.2,2-0.6,2-1.9C22.8,286.2,22,285.5,20.7,285.5z"/>
			<path d="M83.8,310.1c-2-0.2-4.1,1.6-4.3,3.6c-0.2,2,1.5,3.9,3.7,4.1c2.1,0.2,4.1-1.4,4.2-3.5C87.6,312.2,85.8,310.2,83.8,310.1z"
				/>
			<path d="M94.3,310c-2.3,0-3.9,1.5-3.8,3.8c0,2.2,1.7,3.8,3.9,3.8c2.2,0,3.9-1.6,3.9-3.8C98.2,311.7,96.5,310,94.3,310z"/>
			<path d="M28.8,312.9c1.2-0.2,2.2-0.7,2.1-2c-0.1-1.3-1-2-2.2-2c-1.2,0-2,0.7-2,1.8C26.6,312,27.4,312.8,28.8,312.9z"/>
			<path d="M28.5,317.2c-1.1,0.3-2,0.9-1.9,2.2c0.1,1.2,0.9,1.9,2.2,1.8c1.1-0.1,2-0.7,2-1.8C30.9,318,29.8,317.4,28.5,317.2z"/>
			<path d="M21,317.3c-1.3-0.1-2.1,0.6-2.1,2c0,1.1,0.6,1.9,1.8,2c1.3,0.1,2.1-0.4,2.3-1.8C23,318.1,22.1,317.4,21,317.3z"/>
			<path d="M36.8,312.9c1.2-0.2,2.1-0.8,2-2.1c-0.1-1.3-1-1.9-2.2-1.9c-1.3,0-2,0.7-1.9,2.1C34.7,312.3,35.6,312.9,36.8,312.9z"/>
			<path d="M36.5,317.3c-1.3,0-2,0.8-1.9,2.2c0.1,1.2,0.9,1.8,2.1,1.8c1.3,0,2.1-0.6,2.1-2.1C38.6,317.9,37.7,317.3,36.5,317.3z"/>
			<path d="M44.3,317.3c-1.1,0-2,0.8-1.9,2c0.1,1.3,0.9,2,2.2,2c1.2-0.1,1.9-0.7,1.9-2C46.3,318,45.5,317.2,44.3,317.3z"/>
			<path d="M21,308.9c-1.3-0.1-2.2,0.6-2.1,1.9c0,1.2,0.8,2.1,2.1,2.1c1.2,0,1.9-0.6,2-1.9C22.9,309.9,22.3,309,21,308.9z"/>
			<path d="M44.4,312.8c1.1,0,2-0.5,2-1.8c0-1.3-0.7-2-1.9-2.1c-1.2,0.1-2,0.7-2.1,1.8C42.4,312,43.2,312.8,44.4,312.8z"/>
		</g>
		<path class="st7" d="M295.1,281.5V111.3c0-1.5-1.2-2.7-2.7-2.7H167.5c-1.5,0-2.7,1.2-2.7,2.7v170.2c0,1.5,1.2,2.7,2.7,2.7h124.9
			C293.9,284.2,295.1,283,295.1,281.5z M185.5,124.1c16.9,0,33.8-0.1,50.7-0.1c4.8,0,4.8,0,4.8,4.7c0,6.4,0,6.4-6.3,6.4
			c-8.3,0-16.7,0-25,0c0,0,0,0,0-0.1c-8.9,0-17.8-0.1-26.7,0c-3.2,0-4.4-1.1-4.3-4.4C178.9,124,178.7,124.1,185.5,124.1z M183,139.4
			c11,0.1,21.9,0.1,32.9,0.1c0,0,0-0.1,0-0.1c11.1,0,22.2,0.1,33.2-0.1c3.1,0,4.2,0.8,4.2,4c-0.1,6.9,0.1,6.9-6.9,6.9
			c-20.9,0-41.8,0.1-62.7,0.1c-5,0-5,0-5-4.9c0-0.6,0.1-1.2,0-1.7C178.2,140.1,179.9,139.4,183,139.4z M177.9,162.5
			c-0.1-1.1,0.9-1.1,1.7-1.1c1-0.1,2.1-0.1,3.1-0.1c32,0,64-0.1,96-0.1c1.5,0,4.1-0.8,4.1,1c0,2.3-2.7,1.2-4.2,1.2
			c-16,0.1-32,0.1-48,0.1c-16,0-32,0-48,0c-1,0-2.1,0-3.1,0C178.8,163.4,178,163.3,177.9,162.5z M231.8,191.6
			c-8.3,0.1-8.3,0-8.3-8.3c0-9.2-1.1-8.1,7.9-8c8.3,0,8.4,0,8.3,8.5C239.6,192.8,240.6,191.5,231.8,191.6z M218,183.2
			c0,8.4,0,8.4-8.2,8.4c-7.7,0-7.7,0-7.8-7.7c-0.1-10.1-1.2-8.5,8.3-8.6C218,175.1,218,175.2,218,183.2z M180.2,183.8
			c-0.1-8.6,0-8.6,8.7-8.6c7.2,0,7.2,0,7.2,8c0,8.3,0,8.3-8.3,8.3C179,191.5,180.2,192.6,180.2,183.8z M268,228.1
			c-8.4,8.4-16.8,16.8-25.3,25.1c-5.6,5.5-11.2,11.1-16.9,16.6c-3.4,3.3-5.2,3.2-8.6-0.2c-6.8-6.9-13.7-13.7-20.6-20.6
			c-3.2-3.2-3.2-4.8,0.1-7.9c2-1.9,3.9-3.9,5.8-5.8c1.1-1.1,2.2-2,3.9-1.9c1.6-0.1,2.7,1,3.7,2c3.1,3.2,6.4,6.2,9.4,9.5
			c1.5,1.6,2.5,2,4.3,0.1c10-10.3,20.2-20.4,30.4-30.6c2.9-2.9,4.8-2.9,7.8,0.1c1.9,1.9,3.7,3.7,5.6,5.5
			C271.1,223.1,271.3,224.9,268,228.1z M281.9,202.6c-0.8,0.1-1.6,0.1-2.4,0.1c-32.5,0-64.9,0-97.4-0.1c-0.5,0-0.9,0-1.4,0
			c-1-0.1-2.4,0.2-2.3-1.3c0.1-1.2,1.4-1,2.2-1c4.9,0,9.8,0,14.7,0c11.9,0,23.8,0,35.7,0c0,0,0,0,0,0c16,0,32,0,48,0
			c0.9,0,1.8,0,2.7,0c0.5,0,1.2,0.2,1.3,0.9C283.1,202.1,282.6,202.5,281.9,202.6z"/>
		<path class="st2" d="M195.5,290.6c0.6,0.4,0.8,1,0.8,1.7c0,0.9,0,1.8,0,2.7c33.9,0,67.8,0,101.7,0c0.7,0,1.4,0,2.1,0
			c5.5,0,6.8-1.3,6.9-6.9c0-2,0-4,0.1-6v-0.1c0-0.2,0-0.3,0-0.5c0-1.7,0-4.2,0-7.1c0-1.8,0-3.7-0.1-5.5c0-0.5,0-0.9,0.1-1.4
			c0-28.2,0-83.2-0.1-96.5c0-22.2,0-44.4,0-66.5c0-5.3-1.4-6.7-6.7-6.7c-45.6,0-91.2,0-136.9,0c-10.4,0-10.6,0.2-10.6,10.4
			c0,59.8,0,119.6,0,179.4c0,6.5,0.9,7.3,7.3,7.3c9.8,0,19.7,0,29.5,0c1.4-1.3,2.8-2.6,4.2-3.8C194.3,290.7,194.8,290.2,195.5,290.6
			z M162,281.5V111.3c0-3,2.5-5.5,5.5-5.5h124.9c3,0,5.5,2.5,5.5,5.5v170.2c0,3-2.5,5.5-5.5,5.5H167.5
			C164.5,287,162,284.5,162,281.5z"/>
		<path d="M297.9,281.5V111.3c0-3-2.5-5.5-5.5-5.5H167.5c-3,0-5.5,2.5-5.5,5.5v170.2c0,3,2.5,5.5,5.5,5.5h124.9
			C295.4,287,297.9,284.5,297.9,281.5z M164.8,281.5V111.3c0-1.5,1.2-2.7,2.7-2.7h124.9c1.5,0,2.7,1.2,2.7,2.7v170.2
			c0,1.5-1.2,2.7-2.7,2.7H167.5C166,284.2,164.8,283,164.8,281.5z"/>
		<path d="M311.9,103.9c0-6.9-3.9-10.8-10.8-11c-0.9,0-1.8,0-2.7,0c-46.1,0-92.2,0-138.2,0c-8.6,0-12.2,3.6-12.2,12.3
			c0,30.4,0,60.8,0,91.2h0c0,30.6,0,61.3,0,91.9c0,7.8,3.7,11.4,11.6,11.4c8.2,0,16.5,0,24.7,0c1.8-1.6,3.6-3.3,5.4-4.9
			c-9.8,0-19.7,0-29.5,0c-6.4,0-7.3-0.8-7.3-7.3c0-59.8,0-119.6,0-179.4c0-10.3,0.2-10.4,10.6-10.4c45.6,0,91.2,0,136.9,0
			c5.3,0,6.7,1.4,6.7,6.7c0,22.2,0,44.4,0,66.5c0,13.3,0.1,68.2,0.1,96.5c-0.1,0.4-0.1,0.9-0.1,1.4c0,1.8,0.1,3.7,0.1,5.5
			c0,3,0,5.4,0,7.1c0,0.2,0,0.4,0,0.5v0.1c0,2,0,4-0.1,6c-0.1,5.6-1.4,6.9-6.9,6.9c-0.7,0-1.4,0-2.1,0c-33.9,0-67.8,0-101.7,0
			c0,1.6,0,3.3,0,4.9c34.6,0,69.2,0,103.9,0c7.9,0,11.6-3.7,11.7-11.5l0-3.5v0c0-0.7,0-1.4,0-2.1c0-5.8,0-11.6,0-17.3
			c0-0.5,0-1,0-1.6c0-28.4,0-77.3,0-89C311.9,151.2,311.9,127.5,311.9,103.9z"/>
		<path d="M267.7,219.9c-1.9-1.8-3.8-3.7-5.6-5.5c-3-3-4.9-3-7.8-0.1c-10.2,10.2-20.4,20.3-30.4,30.6c-1.8,1.9-2.8,1.5-4.3-0.1
			c-3.1-3.2-6.3-6.3-9.4-9.5c-1.1-1.1-2.1-2.1-3.7-2c-1.7-0.1-2.8,0.8-3.9,1.9c-1.9,2-3.8,3.9-5.8,5.8c-3.3,3.2-3.3,4.7-0.1,7.9
			c6.9,6.9,13.7,13.7,20.6,20.6c3.4,3.4,5.2,3.5,8.6,0.2c5.6-5.5,11.3-11,16.9-16.6c8.4-8.3,16.9-16.7,25.3-25.1
			C271.3,224.9,271.1,223.1,267.7,219.9z"/>
		<path d="M178.7,145.3c0,4.9,0,4.9,5,4.9c20.9,0,41.8-0.1,62.7-0.1c7,0,6.8,0,6.9-6.9c0-3.2-1.1-4-4.2-4
			c-11.1,0.2-22.2,0.1-33.2,0.1c0,0,0,0.1,0,0.1c-11,0-21.9,0.1-32.9-0.1c-3.2,0-4.9,0.7-4.3,4.2
			C178.8,144.2,178.7,144.8,178.7,145.3z"/>
		<path d="M183,135.1c8.9-0.1,17.8,0,26.7,0c0,0,0,0,0,0.1c8.3,0,16.7,0,25,0c6.3,0,6.3,0,6.3-6.4c0-4.7,0-4.7-4.8-4.7
			c-16.9,0-33.8,0.1-50.7,0.1c-6.8,0-6.6-0.1-6.8,6.6C178.6,134,179.8,135.1,183,135.1z"/>
		<path d="M231.4,175.2c-9,0-7.9-1.2-7.9,8c0,8.3,0,8.4,8.3,8.3c8.8-0.1,7.8,1.3,7.9-7.8C239.8,175.3,239.7,175.3,231.4,175.2z"/>
		<path d="M187.8,191.6c8.3,0,8.3,0,8.3-8.3c0-8,0-8-7.2-8c-8.8,0-8.8,0-8.7,8.6C180.2,192.6,179,191.5,187.8,191.6z"/>
		<path d="M210.3,175.2c-9.4,0.1-8.4-1.4-8.3,8.6c0.1,7.7,0.1,7.7,7.8,7.7c8.2,0,8.2,0,8.2-8.4C218,175.2,218,175.1,210.3,175.2z"/>
		<path d="M182.6,163.4c16,0,32,0,48,0c16,0,32,0,48-0.1c1.4,0,4.2,1.1,4.2-1.2c0-1.8-2.7-1-4.1-1c-32,0-64,0-96,0.1
			c-1,0-2.1,0-3.1,0.1c-0.8,0-1.8,0-1.7,1.1c0.1,0.8,0.9,0.9,1.6,0.9C180.6,163.4,181.6,163.4,182.6,163.4z"/>
		<path d="M281.8,200.4c-0.9-0.1-1.8,0-2.7,0c-16,0-32,0-48,0c0,0,0,0,0,0c-11.9,0-23.8,0-35.7,0c-4.9,0-9.8,0-14.7,0
			c-0.8,0-2.2-0.3-2.2,1c-0.1,1.5,1.4,1.2,2.3,1.3c0.5,0.1,0.9,0,1.4,0c32.5,0,64.9,0,97.4,0.1c0.8,0,1.6,0,2.4-0.1
			c0.7-0.1,1.3-0.5,1.2-1.4C283,200.5,282.3,200.4,281.8,200.4z"/>
		<path d="M173.4,309.7c-0.4,0.4-1,0.7-0.8,1.4c0.3,0.8,1.1,0.6,1.7,0.6c2.8,0.2,5.5,0.3,8.4,0.5c-0.9,3.6-2.1,6.9-3.4,10.3
			c-0.7,1.8-0.8,3.5,1.2,4.3c2,0.9,3.1-0.3,3.8-2.2c1.1-3,2.3-5.9,3.5-8.9c0.5-1.2,1-1.3,1.8-0.4c1.4,1.5,2.9,3.1,4.4,4.6
			c0.6,0.6,1.1,1.3,2.1,0.8c0.9-0.4,0.9-1.3,0.9-2.1c-0.2-6.2-0.6-12.5-0.7-18.7c-4,0-8,0-12.1,0C180.6,303.2,177,306.4,173.4,309.7
			z"/>
		<path d="M196.3,292.3c0-0.7-0.2-1.3-0.8-1.7c-0.7-0.4-1.2,0.1-1.7,0.6c-1.4,1.3-2.8,2.6-4.2,3.8c2.2,0,4.4,0,6.6,0
			C196.3,294.1,196.3,293.2,196.3,292.3z"/>
		<path d="M196.3,295c-2.2,0-4.4,0-6.6,0c-1.8,1.6-3.6,3.3-5.4,4.9c4,0,8,0,12.1,0C196.3,298.2,196.3,296.6,196.3,295z"/>
	</g>
	<g>
		<path class="st40" d="M506.2,111c-3.9-5.4-7.3-11.1-9.4-17.7C493.5,101.8,498,110.1,506.2,111z"/>
		<path class="st2" d="M501.7,350.8c-11.5,8.1-23.3,15.8-35.2,23.3c-3.1-1.7-6.2-3.6-9.1-5.7c-17.4-12.2-33.7-25.7-49.8-39.6
			c-4.6-4-9.3-5.9-15.1-4.9c-3.9,0.7-7.6,0.8-11.2,0.3c-6.9-0.8-13.3-3.6-19.5-7.7c-5.3-3.5-12.3-2.5-17.9,2.4
			c3.2,1.3,5.6-0.9,8.4-0.7c-5.9,4.5-11.2,4.4-16-0.1c-3.2-3-3-5.5,0.6-7.9c3.6-2.3,7.3-4.4,11-6.6c1.1-0.6,2.2-1.3,3.1-2.1
			c1.3-1.1,3.4-2.5,1.9-4.2c-1.5-1.6-2.3,1-3.3,1.8c-5.3,4.5-11.7,7.2-17.6,10.9c-2.3,1.4-3.9-0.8-5.1-2.6c-1.4-2.1-1.5-4.2,0.7-6
			c4.1-3.2,8.8-5.4,13.1-8.1c2.1-1.3,4.4-2.4,5.8-4.7c0.5-0.8,1.2-1.9,0.4-2.7c-0.9-0.8-1.5,0.4-2.1,0.9
			c-5.4,4.6-11.8,7.6-17.9,11.1c-2.4,1.4-4.3,1.1-5.7-1.4c-1.3-2.4-1.8-4.9,1-6.6c4.9-3,10-5.8,15-8.7c1.6-0.9,3.4-1.8,4.5-3.3
			c1.2-1.7,1.1-3.6-1.2-3.4c-4.8,0.4-9.2-1.3-13.7-2.2c-7.5-1.6-15.2-1.7-22.8-3c-2.7-0.5-5.4-1-7.7-2.8c-1.3-1-2.6-2.4-2.1-4.1
			c0.5-1.9,2.5-1.4,3.9-1.4c11.8,0.1,23.6,0.7,35.3,2.5c5.6,0.9,11.2,1.3,16.8,1.9c5.4,0.6,9.9,3.4,14.6,5.8
			c15.3,7.8,30.3,16.2,45.4,24.6c19.1,10.6,38.1,21.3,57.7,31c7.5,3.7,15,7.6,22.9,10.6C497.1,340.2,500.2,345.1,501.7,350.8z"/>
		<path class="st7" d="M601.2,233.1c3.1-1.6,6.1-3.4,8.7-5.8c-0.6-0.8-1.2-0.4-1.7-0.1c-13.8,8.8-29.4,12.6-45.2,16
			c-13,2.8-25,7.6-36.9,13.5c-7.1,3.6-14.2,7.3-21.6,10.5c-1,0.4-2.2,0.6-2.7,1.9c2.3,0,4.5,0.1,6.7,0c2.4-0.2,3.5,0.5,3.1,3.2
			c-1.8,11.6-1.9,23.2-1.6,34.9c0.1,3.2,0,6.2,2.1,8.9c1.3,1.6,1,3.8,1,5.8c0.1,1.7,0.2,3.4,2.5,3.5c2.1,0.1,2.9-1.4,2.9-3.2
			c0-3.5,0.7-6.5,2.6-9.6c1.4-2.4,0.6-5.4,0.2-8.2c-1.4-11.3,0-22.3,2.5-33.2c0.7-2.8,1.8-5.1,5-5.9c22.3-5.3,44.2-12.5,67.4-13.7
			c7-0.4,13.1,1.2,18.5,4.5c-6,6.1-12.2,12.1-18.5,18c-0.9,0.8-1.8,1.7-2.7,2.5c-0.7,0.6-1.4,1.3-2.1,1.9
			c-4.1,3.8-8.3,7.6-12.5,11.3c-0.3,0.2-0.5,0.5-0.8,0.7c-4.2,3.8-8.5,7.5-12.8,11.1c0.4-3.5,1.7-6.9,1.2-11.1
			c-1.4,4-2.5,6.8-3.5,9.8c-0.5,1.6-1.1,3.1-1.7,4.7c-10.5,8.8-21.2,17.4-32.1,25.7c-1.1,0.8-2.1,1.6-3.2,2.4
			c-1.6,0.1-3.2,0.5-4.8,1.2c-4.4,2-8.6,1.4-12.8-0.3c-7-2.8-14.2-5.1-21.9-4.8c-2.5,0.1-4.7-0.9-6.8-1.9c-12.9-5.9-25.7-12-38.1-19
			c-5.9-3.3-5.8-3.5-4.8-10.1c1-6.8,3-13.4,4.1-20.2c-3.6,5.9-5.1,12.7-8,19.4c-2.5-4.3-1.9-8.8-2.9-14c-1.2,5.4-1.2,9.9-1.4,14.3
			c-0.1,2.1-0.8,2.8-2.7,1.4c-0.1-0.1-0.2-0.1-0.3-0.2c-6.6-3.4-9.2-4.8-9.8-8c-0.4-2.1,0.1-5,1-9.9c1.5-8.5,3.8-16.9,6.7-25
			c1.2-3.6,3.3-6.8,6-9.5c4.8-4.7,10.1-8.7,15.8-12.1c1.7-1,3-1.4,3.9,1.2c2.3,7.1,6.2,13,11.6,17.8c1.7,1.6,3.6,3,5.6,4.4
			c3.2,2.2,4.2,5,3.8,8.7c-1.6,11.7-1.3,23.5-1.4,35.4c0,2.8,0.4,5.5,2.4,7.7c1.4,1.5,1.3,3.5,1.4,5.3c0.1,1.7,0.8,3,2.6,3.1
			c2.2,0.1,2.2-1.7,2.2-3.2c0.2-2.6,0.4-5.2,1.9-7.5c1.2-1.8,0.6-4.2,0.4-6.3c-1.1-10.4-0.9-20.8,0.9-31.1c0.5-3,1.4-4,4.3-2.8
			c1.4,0.6,2.9,0.9,4.6,0.3c-5.6-2.8-9.7-7.6-15.3-10.2c-3.7-1.8-7-4-9.9-6.5c-8.3-7.4-12.8-17.8-12.2-29
			c0.5-10.2,9.7-21.1,19.6-23.3c3.2-0.7,4.1,0.1,3.1,3.3c-0.9,2.8-2.4,5.5-3.6,8.3c-4.4,10.3-5.4,20.6-0.4,31
			c0.2,0.4,0.4,0.8,0.9,1.1c-0.7-4.2-1.6-8.3-1.7-12.5c-0.3-10.4,3.2-19,12.3-24.6c1.6-1,3.6-2.6,5.2,0c1.4,2.4,2.4,4.7-0.9,6.7
			c-8.9,5.2-11.4,17.9-8.4,28.8c0.1,0.5,0.3,1,0.4,1.4c2.9,8.9,8.4,16.2,14.5,23.1c1.5,1.8,2.9,1.6,4.4,0.2c2.7-2.4,5.5-4.8,8.2-7.2
			c15.4-13.7,33.2-23.8,51.4-33.3c8.7-4.5,17.5-8.8,25.8-14c2.7-1.7,6.3-3.5,5.4-7.3c-1-4.3-5.2-4.5-8.6-4.5
			c-6.6-0.1-13.3,0.4-19.9,0.5c-3.4,0.1-6.5-0.6-8.6-3.6c-0.7-0.9-1.6-2.1,0.6-2.3c13.6-1.1,27.1-3.9,40.9-1.4
			c5.4,1,9.3,4.1,11.1,9.1c3,8.6,8.3,15.7,13.9,22.6c4.6,5.7,8.7,11.7,9.6,19c-2.4,2.6-4.8,5.2-7.2,7.7c-6.3-4.3-13.6-5.2-21.5-4.7
			c-19.2,1.1-37.7,5.6-56.2,10.4c-4.8,1.2-9.6,2.6-14.6,3.5c3-3.6,6.9-5.8,11.1-7.7c11.6-5.4,24.2-7.2,36.5-10.3
			C584.1,239.6,593,237.3,601.2,233.1z"/>
		<path class="st2" d="M555.8,214.5c-3.1-2.6-5.6-5.7-7.9-9c-1.9-2.8-3.4-5.6-4.6-8.5c-3.9-9.6-4.4-19.9-3.5-30.4
			c0.3-4.1-0.8-5.9-5-5.7c0.6-2.4,1.6-3.5,4.1-2.8c11.4,3.2,26.9-12.5,22.4-26.1c-1.6-4.8-5.5-7.4-10.5-6.2
			c-5.7,1.4-10.1,4.7-11.8,10.5c-1,3.8-3.4,5.5-6.8,6.6c0-1.5-0.1-2.7,0-4c0.2-4.8-0.4-9.3-3.4-13.2c-2.8-3.6-5.5-7.1-10.7-6.9
			c-0.7,0-1.6-0.3-2.1-0.8c-3.8-3.2-8.9-2.2-13.1-4.1c-0.4-0.2-1-0.3-1.5-0.2c-4.5,1.5-8.6-1.9-13.1-0.9c-1,0.2-2.2-0.7-2.2-2.1
			c-0.1-1.4,1.1-1.9,2.2-2.3c1.2-0.5,2.8,0.1,3.8-1.1c-7.2-12.6-7.2-12.6-6.8-27.3c0.1-2.2-0.8-1.9-2.2-1.4
			c-5.1,1.7-9.6,4.4-13.6,7.8c-4.6,3.9-8.4,8.3-10.2,14.2c-0.7,2.4-1,4.4,2.7,4.1c2.2-0.2,4.5,0.6,6.3,2.2c0.9,0.8,1.6,1.8,1,3
			c-0.7,1.4-2,0.9-3,0.4c-1.8-0.8-3.7-1.7-5.8-1.4c-3.9,0.6-2,3.7-2.2,5.7c-0.1,1.8,0.5,3.2,3,2.4c2.7-0.9,5.3-0.7,7,2
			c1.8,3,1.5,6-0.1,9c-0.8,1.4-2,2.4-3.7,2.2c-1.7-0.2-2.5-1.5-3.1-2.9c-0.6-1.5-0.4-3.2-0.2-4.8c0.1-0.9,0.1-1.7-1.2-1.9
			c-1.4-0.2-1.8,0.5-1.8,1.7c-0.2,4.2-1.6,8.1-2.7,12.1c-1.8,6.6-1.7,13.1,0.2,19.7c2.5,8.8,6.7,17,9.9,25.6c2,5.2,5.7,7.8,10.9,8.5
			c2.9,0.4,5.8,0.4,8.6-0.1c13.9-2.5,26.6-8.1,38.4-15.6c0.7-0.5,1.3-1.6,2.6-1c-1.6,3-3.8,5.4-6,7.8c-7.2,8.1-14,16.9-24.4,21.4
			c-1.6,0.7-1.3,2-1.1,3.2c0.8,3.4,1.6,6.9,2.4,10.3c0.9,4.1,1.6,8.3,0.9,12.5c-0.1,0.8-0.3,1.6-0.6,2.4c-0.3,1.1-0.2,3.1-1.8,2.8
			c-1.1-0.2-1.1-1.5-1.1-2.7c0-0.2,0-0.4,0-0.6c-0.1-1.5-0.1-3-0.3-4.5c-0.1-1.2-0.7-1.6-2.1-1.4c-4.1,0.7-7.3,3.6-8.3,7.7
			c-0.5,2-0.5,4.2-0.2,6.6c1.1,7.3,6,15.3,12.1,18.4c2.3,1.2,3.9,1.1,6-0.7c10.6-9.3,22.3-17.1,34.5-24.1c6.4-3.7,12.9-7.3,19.3-11
			C559,217.2,558.9,217.1,555.8,214.5z M542.1,146.3c1.8-1.7,1.7-3.7,1.5-5.9c-0.4-5.1,4.7-9.4,9.7-8.3c2.5,0.6,4.4,1.9,3.2,5.2
			c-1-0.6-1.9-1.1-2.8-1.5c-1.8-0.8-3.1,0.4-4.5,1.3c-1.4,0.9-0.5,1.9-0.2,3c1.1,4.2-1,7.6-5.1,8.6c-0.9,0.2-1.8,0.3-2.4-0.5
			C541.1,147.5,541.6,146.8,542.1,146.3z M462.8,144.2c-1.1-2.5,0.3-4.3,2.1-5.8c3.6-3.2,5.8-7.4,8.7-11.2c0.1,4-2.2,7-4.5,9.9
			c-3.7,4.7-3.7,4.7-0.3,9.6c0.3,0.4,0.4,0.9,0.7,1.7C466.3,148.2,464,147,462.8,144.2z M493.3,158.5c-5.2,3.5-11,4.6-17.4,4.8
			c-3.4-0.1-6.9-0.9-9.8-3.4c-0.5-0.5-1.4-0.9-0.9-1.8c0.4-0.8,1.2-0.8,2-0.6c8.6,2.5,17,1.8,25.3-1.5c0.7-0.3,1.5-0.5,1.9,0.5
			C494.9,157.6,494.1,158,493.3,158.5z M500.3,125.5c-0.3,1.6-0.3,3.3-0.9,4.8c-0.8,2.2-2.3,4-5,3.7c-2.6-0.3-3.7-2.2-4.2-4.6
			c-0.4-1.9,1.3-4.4-1.7-5.7c-0.3-0.1,0.5-1,1-1.3c3.1-2.5,6.6-2.8,10.2-1.2c3,1.4,5.5,3.5,8,5.8C504.7,129.3,503,125.9,500.3,125.5
			z"/>
		<path class="st40" d="M515,341.4c-3.2,2.4-6.5,4.7-9.7,7c-0.2-0.6-0.4-1.1-0.6-1.7c-2.1-5.6-6-9.8-11.7-12.1
			c-0.5-0.2-0.9-0.4-1.3-0.7c-0.2-0.1-0.2-0.4-0.4-0.7c0.4-0.1,0.8-0.3,1.1-0.2C500,335.4,507.8,337.9,515,341.4z"/>
		<path class="st40" d="M522.6,263.6c0.3-0.9,0.8-2-0.3-2.7c-0.9-0.5-2-0.2-2.9,0.3c-3,1.6-3.9,4.5-4.6,7.4
			c-2.4,9.2-3.3,18.5-3.3,27.9c0.3,4.3,0.5,8.5,0.8,12.8c0.2,2.1,0.7,4.2,3.4,4.1c2.9-0.2,3.1-2.5,2.8-4.8c-0.4-3.5-0.8-7-0.6-10.5
			C518.6,286.5,518.7,274.8,522.6,263.6z"/>
		<path class="st40" d="M478.4,265.2c0-2.1-1-4-3-4.2c-2.4-0.3-2.5,2.1-2.7,3.7c-1.3,8.2-1.8,16.4-2.4,24.9c0.3,4.4,0.5,9.1,1,13.7
			c0.2,2.1,0.6,4.6,3.6,4.2c2.9-0.4,2.4-2.8,2.3-4.7c-0.5-10.3-0.5-20.6,0.7-30.8C478.1,269.7,478.3,267.5,478.4,265.2z"/>
		<path class="st19" d="M625.8,226.8c-4.1-6-8.4-11.9-12.5-17.9c-1.2-1.8-1.8-3.6-1.2-6c3-11.9,1.1-22.9-6.2-32.8
			c-1-1.4-2-2.8-3-4.2c-1.7-2.4-3.5-4.7-5.3-7c-6.8-8.2-9.6-17.7-9.8-28.2c-0.1-5.5-0.3-11-0.7-16.5c-1.6-20.1-8.1-37.9-24.4-51.1
			c-12.9-10.5-26.9-18-44.2-17.1c-15.9,0.8-31.4,3.7-46.3,9.2c-10.8,4-20.7,9.7-27.3,19.7c-7.2,10.8-6.7,26.1,1.3,35.4
			c0-5.2-1-10.4,2.2-15.6c-0.2,12.3-0.1,14.5,3.4,20.4c2.4,4.2,2.9,8.2,1.2,12.6c-4.8,12.6-3.7,24.9,1.8,36.9c3,6.6,3.4,13.2,1,20.1
			c-1.7,4.9-1.7,9.9,0.1,14.8c0.9,2.4,0.3,4-1.3,5.7c-4.6,4.9-7.1,10.6-6.9,17.4c0.1,3.4-2.9,5.1-5.4,6.8c-6.3,4.3-12.4,9-17.3,14.8
			c-5.1,5.9-8.6,13-11,20.5c-2.4,7.4-3.7,15.1-4.5,22.8c-0.3,2.7-0.8,3.5-3.5,2c-10.5-5.9-21.1-11.7-31.7-17.4
			c-9.7-5.2-18.9-12.1-30.9-11.2c-2.1,0.2-4.2-0.3-6.4-0.7c-13.3-2-26.7-3-40.1-2.6c-6.2,0.2-8.5,4.7-5.4,10.1
			c1.2,2.2,3.3,3.4,5.6,4.3c6.5,2.6,13.4,3,20.3,3.8c4.4,0.5,8.9,0.9,13.8,3.1c-4.9,2.6-8.7,5.2-12.4,8c-2.7,2.1-3.5,4.7-2.9,8
			c0.5,2.7,1.8,4.9,3.6,6.9c0.9,1,1.6,2,2.1,3.4c3.1,9.3,10.3,15.2,18,20.7c0.5,0.3,1.2,0.3,1.8,0.4c5.3,1.2,9.8-1.4,14.4-3.3
			c1.9-0.8,3.5-1.2,5.3-0.1c5.2,3,10.6,5,16.2,6c5.4,1,11.1,1.2,16.8,0.8c3.7-0.3,6.9,1,9.7,3.4c5.5,4.6,10.8,9.4,16.5,13.7
			c2.6,2,3.8,4.4,4.3,7.5c1.7,10.4,4.7,20.6,6.6,30.9c0.7,3.7,2.4,5.8,4.8,7.3c1.6-0.9,3.1-1.7,4.6-2.6c-3.5-10.6-7-20.8-7.6-31.8
			c0.6,0.1,0.9,0.1,1,0.2c8.9,6.7,17.8,13.5,27.3,19.3c1.8-1.1,3.7-2.3,5.5-3.4c-3.1-1.7-6.2-3.6-9.1-5.7
			c-17.4-12.2-33.7-25.7-49.8-39.6c-4.6-4-9.3-5.9-15.1-4.9c-3.9,0.7-7.6,0.8-11.2,0.3c-6.9-0.8-13.3-3.6-19.5-7.7
			c-5.3-3.5-12.3-2.5-17.9,2.4c3.2,1.3,5.6-0.9,8.4-0.7c-5.9,4.5-11.2,4.4-16-0.1c-3.2-3-3-5.5,0.6-7.9c3.6-2.3,7.3-4.4,11-6.6
			c1.1-0.6,2.2-1.3,3.1-2.1c1.3-1.1,3.4-2.5,1.9-4.2c-1.5-1.6-2.3,1-3.3,1.8c-5.3,4.5-11.7,7.2-17.6,10.9c-2.3,1.4-3.9-0.8-5.1-2.6
			c-1.4-2.1-1.5-4.2,0.7-6c4.1-3.2,8.8-5.4,13.1-8.1c2.1-1.3,4.4-2.4,5.8-4.7c0.5-0.8,1.2-1.9,0.4-2.7c-0.9-0.8-1.5,0.4-2.1,0.9
			c-5.4,4.6-11.8,7.6-17.9,11.1c-2.4,1.4-4.3,1.1-5.7-1.4c-1.3-2.4-1.8-4.9,1-6.6c4.9-3,10-5.8,15-8.7c1.6-0.9,3.4-1.8,4.5-3.3
			c1.2-1.7,1.1-3.6-1.2-3.4c-4.8,0.4-9.2-1.3-13.7-2.2c-7.5-1.6-15.2-1.7-22.8-3c-2.7-0.5-5.4-1-7.7-2.8c-1.3-1-2.6-2.4-2.1-4.1
			c0.5-1.9,2.5-1.4,3.9-1.4c11.8,0.1,23.6,0.7,35.3,2.5c5.6,0.9,11.2,1.3,16.8,1.9c5.4,0.6,9.9,3.4,14.6,5.8
			c15.3,7.8,30.3,16.2,45.4,24.6c19.1,10.6,38.1,21.3,57.7,31c7.5,3.7,15,7.6,22.9,10.6c6.2,2.4,9.2,7.3,10.8,13.1
			c1.2-0.8,2.4-1.7,3.5-2.5c-0.2-0.6-0.4-1.1-0.6-1.7c-2.1-5.6-6-9.8-11.7-12.1c-0.5-0.2-0.9-0.4-1.3-0.7c-0.2-0.1-0.2-0.4-0.4-0.7
			c0.4-0.1,0.8-0.3,1.1-0.2c7.7,2.3,15.4,4.8,22.7,8.3c3.5-2.6,7-5.1,10.5-7.8c0.1-0.1,0.3-0.2,0.4-0.3c-1.6,0.1-3.2,0.5-4.8,1.2
			c-4.4,2-8.6,1.4-12.8-0.3c-7-2.8-14.2-5.1-21.9-4.8c-2.5,0.1-4.7-0.9-6.8-1.9c-12.9-5.9-25.7-12-38.1-19
			c-5.9-3.3-5.8-3.5-4.8-10.1c1-6.8,3-13.4,4.1-20.2c-3.6,5.9-5.1,12.7-8,19.4c-2.5-4.3-1.9-8.8-2.9-14c-1.2,5.4-1.2,9.9-1.4,14.3
			c-0.1,2.1-0.8,2.8-2.7,1.4c-0.1-0.1-0.2-0.1-0.3-0.2c-6.6-3.4-9.2-4.8-9.8-8c-0.4-2.1,0.1-5,1-9.9c1.5-8.5,3.8-16.9,6.7-25
			c1.2-3.6,3.3-6.8,6-9.5c4.8-4.7,10.1-8.7,15.8-12.1c1.7-1,3-1.4,3.9,1.2c2.3,7.1,6.2,13,11.6,17.8c1.7,1.6,3.6,3,5.6,4.4
			c3.2,2.2,4.2,5,3.8,8.7c-1.6,11.7-1.3,23.5-1.4,35.4c0,2.8,0.4,5.5,2.4,7.7c1.4,1.5,1.3,3.5,1.4,5.3c0.1,1.7,0.8,3,2.6,3.1
			c2.2,0.1,2.2-1.7,2.2-3.2c0.2-2.6,0.4-5.2,1.9-7.5c1.2-1.8,0.6-4.2,0.4-6.3c-1.1-10.4-0.9-20.8,0.9-31.1c0.5-3,1.4-4,4.3-2.8
			c1.4,0.6,2.9,0.9,4.6,0.3c-5.6-2.8-9.7-7.6-15.3-10.2c-3.7-1.8-7-4-9.9-6.5c-8.3-7.4-12.8-17.8-12.2-29
			c0.5-10.2,9.7-21.1,19.6-23.3c3.2-0.7,4.1,0.1,3.1,3.3c-0.9,2.8-2.4,5.5-3.6,8.3c-4.4,10.3-5.4,20.6-0.4,31
			c0.2,0.4,0.4,0.8,0.9,1.1c-0.7-4.2-1.6-8.3-1.7-12.5c-0.3-10.4,3.2-19,12.3-24.6c1.6-1,3.6-2.6,5.2,0c1.4,2.4,2.4,4.7-0.9,6.7
			c-8.9,5.2-11.4,17.9-8.4,28.8c0.1,0.5,0.3,1,0.4,1.4c2.9,8.9,8.4,16.2,14.5,23.1c1.5,1.8,2.9,1.6,4.4,0.2c2.7-2.4,5.5-4.8,8.2-7.2
			c15.4-13.7,33.2-23.8,51.4-33.3c8.7-4.5,17.5-8.8,25.8-14c2.7-1.7,6.3-3.5,5.4-7.3c-1-4.3-5.2-4.5-8.6-4.5
			c-6.6-0.1-13.3,0.4-19.9,0.5c-3.4,0.1-6.5-0.6-8.6-3.6c-0.7-0.9-1.6-2.1,0.6-2.3c13.6-1.1,27.1-3.9,40.9-1.4
			c5.4,1,9.3,4.1,11.1,9.1c3,8.6,8.3,15.7,13.9,22.6c4.6,5.7,8.7,11.7,9.6,19c1.6-1.7,3.1-3.4,4.6-5.2
			C630.3,234.1,628.2,230.4,625.8,226.8z M472.6,264.7c0.3-1.6,0.3-4,2.7-3.7c2.1,0.2,3,2.2,3,4.2c0,2.2-0.3,4.5-0.5,6.7
			c-1.2,10.3-1.2,20.5-0.7,30.8c0.1,1.9,0.7,4.4-2.3,4.7c-3,0.4-3.4-2.1-3.6-4.2c-0.5-4.6-0.7-9.2-1-13.7
			C470.8,281.2,471.3,272.9,472.6,264.7z M496.8,93.3c2.1,6.6,5.4,12.2,9.4,17.7C498,110.1,493.5,101.8,496.8,93.3z M555.8,214.5
			c3.2,2.6,3.2,2.7-0.5,4.9c-6.4,3.7-12.8,7.3-19.3,11c-12.2,7-23.9,14.8-34.5,24.1c-2.1,1.8-3.7,1.9-6,0.7
			c-6.1-3.1-11-11-12.1-18.4c-0.4-2.3-0.3-4.5,0.2-6.6c1-4.2,4.2-7,8.3-7.7c1.3-0.2,1.9,0.2,2.1,1.4c0.1,1.5,0.2,3,0.3,4.5
			c0,0.2,0,0.4,0,0.6c0,1.2,0,2.5,1.1,2.7c1.6,0.3,1.5-1.7,1.8-2.8c0.3-0.8,0.5-1.6,0.6-2.4c0.8-4.2,0-8.3-0.9-12.5
			c-0.8-3.4-1.6-6.8-2.4-10.3c-0.3-1.2-0.6-2.5,1.1-3.2c10.4-4.5,17.2-13.2,24.4-21.4c2.2-2.4,4.4-4.8,6-7.8c-1.3-0.6-1.8,0.5-2.6,1
			C511.6,180,499,185.5,485,188c-2.9,0.5-5.8,0.6-8.6,0.1c-5.2-0.8-9-3.4-10.9-8.5c-3.2-8.6-7.4-16.7-9.9-25.6
			c-1.9-6.6-2-13.1-0.2-19.7c1.1-4,2.5-7.9,2.7-12.1c0.1-1.2,0.4-1.9,1.8-1.7c1.3,0.2,1.2,1,1.2,1.9c-0.1,1.6-0.4,3.3,0.2,4.8
			c0.6,1.4,1.4,2.8,3.1,2.9c1.7,0.2,2.9-0.8,3.7-2.2c1.6-2.9,2-6,0.1-9c-1.7-2.7-4.3-2.8-7-2c-2.4,0.8-3.1-0.6-3-2.4
			c0.2-2-1.7-5.1,2.2-5.7c2.1-0.3,3.9,0.6,5.8,1.4c1,0.4,2.3,1,3-0.4c0.6-1.2-0.1-2.2-1-3c-1.8-1.5-4-2.3-6.3-2.2
			c-3.7,0.3-3.5-1.7-2.7-4.1c1.8-5.9,5.6-10.3,10.2-14.2c4-3.4,8.5-6.2,13.6-7.8c1.4-0.4,2.3-0.8,2.2,1.4
			c-0.4,14.8-0.4,14.8,6.8,27.3c-1.1,1.1-2.6,0.6-3.8,1.1c-1.1,0.4-2.2,0.9-2.2,2.3c0.1,1.3,1.2,2.3,2.2,2.1
			c4.5-1.1,8.6,2.4,13.1,0.9c0.4-0.1,1,0,1.5,0.2c4.2,1.9,9.3,0.9,13.1,4.1c0.5,0.5,1.4,0.8,2.1,0.8c5.2-0.2,8,3.4,10.7,6.9
			c3,3.9,3.7,8.4,3.4,13.2c-0.1,1.2,0,2.5,0,4c3.4-1.1,5.8-2.9,6.8-6.6c1.6-5.8,6-9.1,11.8-10.5c4.9-1.2,8.9,1.4,10.5,6.2
			c4.5,13.6-11,29.3-22.4,26.1c-2.4-0.7-3.4,0.4-4.1,2.8c4.2-0.3,5.3,1.6,5,5.7c-0.9,10.5-0.4,20.9,3.5,30.4
			c1.2,2.9,2.7,5.8,4.6,8.5C550.1,208.7,552.7,211.9,555.8,214.5z M598.4,246c-19.2,1.1-37.7,5.6-56.2,10.4
			c-4.8,1.2-9.6,2.6-14.6,3.5c3-3.6,6.9-5.8,11.1-7.7c11.6-5.4,24.2-7.2,36.5-10.3c8.9-2.2,17.7-4.6,26-8.8c3.1-1.6,6.1-3.4,8.7-5.8
			c-0.6-0.8-1.2-0.4-1.7-0.1c-13.8,8.8-29.4,12.6-45.2,16c-13,2.8-25,7.6-36.9,13.5c-7.1,3.6-14.2,7.3-21.6,10.5
			c-1,0.4-2.2,0.6-2.7,1.9c2.3,0,4.5,0.1,6.7,0c2.4-0.2,3.5,0.5,3.1,3.2c-1.8,11.6-1.9,23.2-1.6,34.9c0.1,3.2,0,6.2,2.1,8.9
			c1.3,1.6,1,3.8,1,5.8c0.1,1.7,0.2,3.4,2.5,3.5c2.1,0.1,2.9-1.4,2.9-3.2c0-3.5,0.7-6.5,2.6-9.6c1.4-2.4,0.6-5.4,0.2-8.2
			c-1.4-11.3,0-22.3,2.5-33.2c0.7-2.8,1.8-5.1,5-5.9c22.3-5.3,44.2-12.5,67.4-13.7c7-0.4,13.1,1.2,18.5,4.5c1.8-1.8,3.5-3.6,5.3-5.5
			C613.6,246.5,606.3,245.6,598.4,246z M522.6,263.6c-3.9,11.2-4,22.9-4.7,34.5c-0.2,3.5,0.2,7,0.6,10.5c0.2,2.2,0.1,4.6-2.9,4.8
			c-2.7,0.2-3.2-2-3.4-4.1c-0.3-4.2-0.5-8.5-0.8-12.8c0-9.5,0.9-18.8,3.3-27.9c0.8-2.9,1.6-5.9,4.6-7.4c0.9-0.5,2-0.8,2.9-0.3
			C523.4,261.5,522.9,262.7,522.6,263.6z M566.5,290.6c-1.4,4-2.5,6.8-3.5,9.8c-0.5,1.6-1.1,3.1-1.7,4.7c0.2-0.1,0.4-0.3,0.5-0.4
			c0.6-0.5,1.2-1,1.7-1.5c0.6-0.5,1.2-1,1.8-1.5C565.8,298.2,567,294.8,566.5,290.6z"/>
		<path d="M490.3,129.4c0.5,2.4,1.6,4.3,4.2,4.6c2.7,0.3,4.2-1.5,5-3.7c0.6-1.5,0.6-3.1,0.9-4.8c2.7,0.5,4.4,3.8,7.5,1.5
			c-2.5-2.3-5-4.4-8-5.8c-3.6-1.7-7-1.3-10.2,1.2c-0.5,0.4-1.3,1.2-1,1.4C491.6,124.9,489.9,127.5,490.3,129.4z"/>
		<path d="M544.1,148.8c4.1-1,6.2-4.4,5.1-8.6c-0.3-1.1-1.2-2.1,0.2-3c1.3-0.9,2.6-2.1,4.5-1.3c0.9,0.4,1.7,0.9,2.8,1.5
			c1.1-3.3-0.7-4.6-3.3-5.2c-5-1.2-10.1,3.1-9.7,8.3c0.2,2.2,0.3,4.2-1.5,5.9c-0.5,0.5-1.1,1.2-0.4,2
			C542.3,149,543.2,149,544.1,148.8z"/>
		<path d="M466.2,160c2.9,2.5,6.4,3.3,9.8,3.4c6.4-0.2,12.2-1.3,17.4-4.8c0.8-0.5,1.6-0.9,1.1-2c-0.4-0.9-1.2-0.7-1.9-0.5
			c-8.3,3.3-16.7,4-25.3,1.5c-0.8-0.2-1.6-0.2-2,0.6C464.8,159.1,465.6,159.5,466.2,160z"/>
		<path d="M468.8,146.8c-3.4-5-3.3-5,0.3-9.7c2.3-2.9,4.5-5.9,4.5-9.9c-2.8,3.8-5.1,8-8.7,11.2c-1.8,1.6-3.1,3.3-2.1,5.9
			c1.2,2.8,3.5,3.9,6.7,4.3C469.2,147.6,469.1,147.1,468.8,146.8z"/>
	</g>
</g>
</svg>
