<?xml version="1.0" encoding="utf-8"?>
<!-- Generator: Adobe Illustrator 25.0.0, SVG Export Plug-In . SVG Version: 6.00 Build 0)  -->
<svg version="1.1" id="Layer_1" xmlns="http://www.w3.org/2000/svg" xmlns:xlink="http://www.w3.org/1999/xlink" x="0px" y="0px"
	 viewBox="0 0 108.05 107" style="enable-background:new 0 0 108.05 107;" xml:space="preserve">
<style type="text/css">
	.st0{fill:#185AE9;}
	.st1{fill:#00B0FB;}
	.st2{fill-rule:evenodd;clip-rule:evenodd;fill:#00B0FB;}
	.st3{fill:#00B0FB;fill-opacity:0.4;}
	.st4{fill:#FFFFFF;}
	.st5{fill:none;}
</style>
<g>
	<path class="st1" d="M71.23,60.66l3.84,1.92c0.05,0.01,0.09,0.01,0.12,0.01c0.05,0,0.07-0.01,0.09-0.02
		c0.06-0.04,0.1-0.11,0.1-0.18V59c0-0.08-0.04-0.15-0.12-0.19l-3.84-1.92l-0.1-0.02c-0.04,0-0.08,0.01-0.11,0.03
		c-0.06,0.04-0.1,0.11-0.1,0.18v3.39C71.11,60.55,71.15,60.62,71.23,60.66z"/>
	<path class="st1" d="M36.51,63.22v6.56c0,0.33,0.27,0.6,0.6,0.6c0.08,0,0.15-0.01,0.22-0.04l5-2c0.23-0.09,0.38-0.3,0.38-0.55
		v-6.56c0-0.33-0.27-0.6-0.6-0.6c-0.08,0-0.15,0.01-0.22,0.04l-5,2C36.66,62.75,36.51,62.97,36.51,63.22z"/>
	<path class="st1" d="M31.19,58.37l3.4,1.36c0.07,0.03,0.15,0.04,0.22,0.04c0.08,0,0.15-0.01,0.23-0.04l3.4-1.36
		c0.23-0.09,0.38-0.31,0.38-0.56s-0.15-0.46-0.38-0.56l-3.4-1.36c-0.07-0.03-0.15-0.04-0.22-0.04c-0.08,0-0.15,0.01-0.22,0.04
		l-3.4,1.36c-0.23,0.09-0.38,0.31-0.38,0.56S30.95,58.28,31.19,58.37z"/>
	<path class="st1" d="M78.79,59v3.39c0,0.08,0.04,0.14,0.1,0.19c0.03,0.02,0.07,0.03,0.11,0.03l3.94-1.94
		c0.07-0.04,0.12-0.11,0.12-0.19v-3.39c0-0.08-0.04-0.14-0.1-0.19c-0.03-0.02-0.07-0.03-0.11-0.03c-0.03,0-0.07,0.01-0.09,0.02
		l-3.85,1.92C78.84,58.84,78.79,58.92,78.79,59z"/>
	<path class="st1" d="M55.73,14.28v31.07c0,0.89,0.72,1.61,1.6,1.61c0.19,0,0.38-0.03,0.57-0.1l24.12-9.05
		c0.62-0.23,1.04-0.84,1.04-1.5V8.24c0-0.89-0.72-1.61-1.6-1.61c-0.13,0-0.27,0.02-0.4,0.05l-24.12,6.03
		C56.23,12.89,55.73,13.54,55.73,14.28z"/>
	<path class="st1" d="M27.28,68.34l5,2c0.07,0.03,0.15,0.04,0.22,0.04c0.33,0,0.6-0.27,0.6-0.6v-6.56c0-0.25-0.14-0.46-0.38-0.56
		l-5-2c-0.07-0.03-0.15-0.04-0.22-0.04c-0.33,0-0.6,0.27-0.6,0.6v6.56C26.91,68.03,27.05,68.25,27.28,68.34z"/>
	<path class="st1" d="M33.78,4.87l19.86,4.96c0.13,0.03,0.26,0.05,0.39,0.05c0.13,0,0.26-0.02,0.39-0.05l19.86-4.96
		c0.26-0.07,0.44-0.29,0.43-0.57c-0.01-0.27-0.19-0.49-0.46-0.54L54.32,0.03C54.22,0.01,54.12,0,54.03,0c-0.1,0-0.2,0.01-0.29,0.03
		L33.81,3.76c-0.27,0.05-0.45,0.27-0.46,0.54C33.34,4.57,33.51,4.8,33.78,4.87z"/>
	<path class="st1" d="M26.03,37.8l24.12,9.05c0.18,0.07,0.37,0.1,0.57,0.1c0.89,0,1.6-0.72,1.6-1.61V14.28
		c0-0.74-0.5-1.38-1.22-1.56L26.98,6.69c-0.13-0.03-0.26-0.05-0.39-0.05c-0.88,0-1.6,0.72-1.6,1.61V36.3
		C24.98,36.96,25.4,37.57,26.03,37.8z"/>
	<path class="st1" d="M73.6,54.16l3.39,1.69c0,0,0.01,0,0.02,0c0.04,0,0.17,0,0.17,0l3.39-1.69c0.07-0.04,0.12-0.11,0.12-0.19
		s-0.04-0.15-0.12-0.19l-3.39-1.7l-0.1-0.02c-0.03,0-0.07,0.01-0.09,0.02l-3.39,1.7c-0.07,0.04-0.12,0.11-0.12,0.19
		S73.53,54.12,73.6,54.16z"/>
	<path class="st1" d="M74.84,97.95H33.22c-0.11,0-0.21,0.01-0.31,0.03l-28.52,5.7c-0.24,0.04-0.47,0.08-0.69,0.13
		c-0.83,0.17-1.33,0.86-1.24,1.7c0.07,0.71,0.6,1.48,1.56,1.48c0.1,0,0.2-0.01,0.3-0.03l28.17-4.69c0,0,0.54-0.04,0.56-0.04h42
		l0.39,0.03l28.32,4.71c0.11,0.02,0.21,0.03,0.3,0.03c0.97,0,1.49-0.77,1.56-1.48c0.09-0.84-0.41-1.52-1.24-1.7
		c-0.21-0.05-0.44-0.09-0.69-0.13l-28.56-5.71C75.05,97.97,74.94,97.95,74.84,97.95z"/>
	<path class="st1" d="M21.57,22.69c0-0.89-0.72-1.61-1.61-1.61H9.29c-0.89,0-1.61,0.72-1.61,1.61v54.87c0,0.89,0.72,1.61,1.61,1.61
		h89.47c0.89,0,1.61-0.72,1.61-1.61V22.69c0-0.89-0.72-1.61-1.61-1.61H88.09c-0.89,0-1.61,0.72-1.61,1.61v14.94
		c0,1.28-0.81,2.45-2.01,2.9L54.63,51.72c-0.04,0.02-0.08,0.03-0.13,0.04c-0.07,0.01-0.23,0.04-0.4,0.06c-0.03,0-0.06,0.01-0.1,0.01
		c-0.05,0-0.11-0.01-0.16-0.01c-0.11-0.02-0.27-0.05-0.43-0.1L23.58,40.53c-1.2-0.45-2.01-1.62-2.01-2.9V22.69z M19.22,72.11
		c0,0.48-0.39,0.86-0.86,0.86h-1.69c-0.48,0-0.86-0.39-0.86-0.86v-1.69c0-0.48,0.39-0.86,0.86-0.86h1.69c0.48,0,0.86,0.39,0.86,0.86
		V72.11z M96.09,61.66v11.53c0,0.94-0.77,1.71-1.71,1.71H86.7c-0.94,0-1.71-0.77-1.71-1.71s0.77-1.71,1.71-1.71h3.84
		c1.18,0,2.14-0.96,2.14-2.14v-7.69c0-0.94,0.77-1.71,1.71-1.71C95.33,59.95,96.09,60.71,96.09,61.66z M84,43.98l5.41-2.16
		c0.82-0.33,1.34-1.1,1.34-1.98v-5.09c0-0.94,0.77-1.71,1.71-1.71s1.71,0.77,1.71,1.71v7.69c0,0.7-0.42,1.32-1.07,1.58l-7.83,3.13
		c-0.2,0.08-0.41,0.12-0.63,0.12c-0.7,0-1.32-0.42-1.58-1.07C82.7,45.33,83.13,44.33,84,43.98z M67.7,53.97
		c0-0.6,0.3-1.14,0.81-1.45l0.14-0.08l7.69-3.84c0.23-0.12,0.5-0.18,0.76-0.18c0.26,0,0.53,0.06,0.76,0.18l7.69,3.84l0.14,0.08
		c0.5,0.31,0.8,0.87,0.8,1.45v7.69c0,0.65-0.36,1.25-0.94,1.54l-7.69,3.84c-0.23,0.12-0.5,0.18-0.76,0.18
		c-0.26,0-0.53-0.06-0.76-0.18l-7.69-3.84c-0.59-0.29-0.95-0.88-0.94-1.54V53.97z M58.09,66.58c0-0.48,0.39-0.86,0.86-0.86h1.69
		c0.48,0,0.86,0.39,0.86,0.86v1.69c0,0.48-0.39,0.86-0.86,0.86h-1.69c-0.48,0-0.86-0.39-0.86-0.86V66.58z M52.32,58.89
		c0-0.48,0.39-0.86,0.86-0.86h1.69c0.48,0,0.86,0.39,0.86,0.86v1.69c0,0.48-0.39,0.86-0.86,0.86h-1.69c-0.48,0-0.86-0.39-0.86-0.86
		V58.89z M34.81,52.27c0.22,0,0.43,0.04,0.64,0.12l9.61,3.84c0.66,0.31,1.07,1.03,1.07,1.82v11.04c0,0.86-0.51,1.62-1.31,1.94
		l-9.37,3.75c-0.06,0.02-0.11,0.04-0.17,0.05c-0.1,0.02-0.22,0.04-0.35,0.06c-0.04,0-0.07,0.01-0.11,0.01c-0.04,0-0.07,0-0.11-0.01
		c-0.18-0.02-0.37-0.06-0.55-0.12l-9.35-3.74c-0.8-0.32-1.31-1.08-1.31-1.94V58.03c0-0.79,0.41-1.5,1.06-1.8l9.62-3.85
		C34.38,52.3,34.59,52.27,34.81,52.27z M27.95,45.88c0.42,0.18,0.74,0.51,0.91,0.93c0.17,0.43,0.16,0.89-0.02,1.31
		c-0.27,0.63-0.88,1.03-1.57,1.03c-0.23,0-0.46-0.05-0.67-0.14L14.92,44c-0.63-0.26-1.03-0.88-1.03-1.57V27.06
		c0-0.94,0.77-1.71,1.71-1.71s1.71,0.77,1.71,1.71V39.9c0,0.86,0.51,1.63,1.3,1.96L27.95,45.88z"/>
	<path class="st1" d="M71.85,94.54c0.89,0,1.61-0.72,1.61-1.61v-1.06c0-0.89-0.72-1.61-1.61-1.61H36.2c-0.89,0-1.61,0.72-1.61,1.61
		v1.06c0,0.89,0.72,1.61,1.61,1.61H71.85z"/>
	<path class="st1" d="M106.45,13.39H88.09c-0.89,0-1.61,0.72-1.61,1.61v1.06c0,0.89,0.72,1.61,1.61,1.61h14.51
		c0.65,0,1.18,0.53,1.18,1.18V81.4c0,0.65-0.53,1.18-1.18,1.18H5.45c-0.65,0-1.18-0.53-1.18-1.18V18.85c0-0.65,0.53-1.18,1.18-1.18
		h14.51c0.89,0,1.61-0.72,1.61-1.61V15c0-0.89-0.72-1.61-1.61-1.61H1.61C0.72,13.39,0,14.11,0,15v70.25c0,0.89,0.72,1.61,1.61,1.61
		h104.84c0.89,0,1.61-0.72,1.61-1.61V15C108.05,14.11,107.33,13.39,106.45,13.39z"/>
</g>
</svg>
