<?xml version="1.0" encoding="utf-8"?>
<!-- Generator: Adobe Illustrator 24.3.0, SVG Export Plug-In . SVG Version: 6.00 Build 0)  -->
<svg version="1.1" id="Layer_1" xmlns="http://www.w3.org/2000/svg" xmlns:xlink="http://www.w3.org/1999/xlink" x="0px" y="0px"
	 width="170px" height="170px" viewBox="0 0 170 170" style="enable-background:new 0 0 170 170;" xml:space="preserve">
<style type="text/css">
	.st0{fill:#185AE9;}
	.st1{fill:#00B0FB;}
	.st2{fill-rule:evenodd;clip-rule:evenodd;fill:#00B0FB;}
	.st3{fill:#00B0FB;fill-opacity:0.4;}
	.st4{fill:#FFFFFF;}
	.st5{fill:none;}
</style>
<g>
	<g>
		<path class="st1" d="M87,5.1C87,5.1,87,5.1,87,5.1c2.1,0,4.2,0.1,6.2,0.3V2.5H79.9V2.1h-7.1V1.2C32.6,8,2,43,2,85
			c0,43.2,32.5,79,74.3,84.3v-0.8h16.9v-3.9c-2,0.2-4.1,0.3-6.2,0.3c-44.1,0-79.9-35.8-79.9-79.9C7.1,40.9,42.9,5.1,87,5.1z"/>
	</g>
	<g>
		<path class="st3" d="M144.8,96.7C144.8,96.7,144.8,96.7,144.8,96.7c-25.2,0.7-45,21.1-45,46.3v1.1c0,0.2,0.1,0.3,0.2,0.4
			c0.1,0.1,0.2,0.1,0.3,0.1c0,0,0.1,0,0.1,0c22.6-5.8,40.2-24.4,44.9-47.3c0-0.1,0-0.3-0.1-0.4C145.1,96.8,144.9,96.7,144.8,96.7z"
			/>
		<path class="st1" d="M85,23.4c-6.2,0-12.4,1-18.4,2.8c-19.2,6-34.3,21.1-40.3,40.3c0,0.2,0,0.3,0.1,0.4c0.1,0.1,0.2,0.2,0.4,0.2
			h20c0.2,0,0.3-0.1,0.4-0.2l4.6-6.1C54.6,57.2,59,55,63.6,55h42.7c4.6,0,9,2.2,11.8,5.9l4.6,6.1c0.1,0.1,0.2,0.2,0.4,0.2h20
			c0.2,0,0.3-0.1,0.4-0.2c0.1-0.1,0.1-0.3,0.1-0.4C135.6,40.7,112,23.4,85,23.4z"/>
		<path class="st3" d="M25.2,96.7C25.2,96.7,25.2,96.7,25.2,96.7c-0.2,0-0.3,0.1-0.4,0.2c-0.1,0.1-0.1,0.3-0.1,0.4
			c4.7,22.9,22.3,41.4,44.9,47.3c0,0,0.1,0,0.1,0c0.1,0,0.2,0,0.3-0.1c0.1-0.1,0.2-0.2,0.2-0.4V143C70.2,117.8,50.4,97.5,25.2,96.7z
			"/>
		<path d="M85,0C38.1,0,0,38.1,0,85c0,46.9,38.1,85,85,85c46.8-0.1,84.9-38.2,85-85C170,38.1,131.9,0,85,0z M85,164.9
			c-44.1,0-79.9-35.8-79.9-79.9C5.1,40.9,40.9,5.1,85,5.1c0,0,0,0,0,0C129,5.2,164.8,41,164.9,85C164.9,129.1,129.1,164.9,85,164.9z
			"/>
		<path d="M100.8,20.2c-5.2-1.3-10.5-1.9-15.9-1.9c-30.8,0-57.3,20.9-64.6,50.8c0,0.2-0.1,0.4-0.1,0.6c0,1.4,1.1,2.6,2.6,2.6h25.6
			c0.8,0,1.6-0.4,2-1l5.5-7.3c1.8-2.4,4.7-3.9,7.7-3.9h42.8c3,0,5.9,1.5,7.7,3.9l5.5,7.3c0.5,0.6,1.2,1,2,1h25.6
			c0.2,0,0.4,0,0.6-0.1c0.7-0.2,1.2-0.6,1.6-1.2c0.4-0.6,0.5-1.3,0.3-1.9C143.8,44.9,125,26.1,100.8,20.2z M143.6,67
			c-0.1,0.1-0.2,0.2-0.4,0.2h-20c-0.2,0-0.3-0.1-0.4-0.2l-4.6-6.1c-2.8-3.7-7.2-5.9-11.8-5.9H63.6c-4.6,0-9,2.2-11.8,5.9L47.2,67
			c-0.1,0.1-0.2,0.2-0.4,0.2h-20c-0.2,0-0.3-0.1-0.4-0.2c-0.1-0.1-0.1-0.3-0.1-0.4c6-19.2,21.1-34.3,40.3-40.3
			c6-1.9,12.2-2.8,18.4-2.8c27,0,50.6,17.3,58.7,43.1C143.7,66.7,143.7,66.8,143.6,67z"/>
		<path d="M23.9,91.6h-2.3c-0.1,0-0.2,0-0.4,0c-0.7,0.1-1.3,0.5-1.7,1c-0.4,0.5-0.6,1.2-0.5,1.9c4,28,25.4,50.5,53.2,55.9
			c0.2,0,0.3,0,0.5,0c1.4,0,2.6-1.1,2.6-2.6V143C75.3,114.7,52.2,91.6,23.9,91.6z M70.2,144.1c0,0.2-0.1,0.3-0.2,0.4
			c-0.1,0.1-0.2,0.1-0.3,0.1c0,0-0.1,0-0.1,0c-22.6-5.8-40.2-24.4-44.9-47.3c0-0.1,0-0.3,0.1-0.4c0.1-0.1,0.2-0.2,0.4-0.2
			c0,0,0,0,0,0c25.2,0.7,45,21.1,45,46.3V144.1z"/>
		<path d="M146.1,91.6c-28.3,0-51.4,23.1-51.4,51.4v4.9c0,1.4,1.1,2.6,2.6,2.6h0c0.2,0,0.3,0,0.5,0c27.8-5.4,49.2-27.9,53.2-55.9
			c0-0.1,0-0.2,0-0.4c0-1.4-1.1-2.6-2.6-2.6H146.1z M100.4,144.6c0,0-0.1,0-0.1,0c-0.1,0-0.2,0-0.3-0.1c-0.1-0.1-0.2-0.2-0.2-0.4
			V143c0-25.2,19.8-45.5,45-46.3c0,0,0,0,0,0c0.1,0,0.3,0.1,0.4,0.2c0.1,0.1,0.1,0.3,0.1,0.4C140.6,120.2,123,138.8,100.4,144.6z"/>
		<path d="M102.8,91.1c0-9.8-8-17.8-17.8-17.8s-17.8,8-17.8,17.8c0,9.8,8,17.8,17.8,17.8C94.8,108.9,102.8,100.9,102.8,91.1z
			 M85,103.8c-7,0-12.7-5.7-12.7-12.7S78,78.4,85,78.4c0,0,0,0,0,0c7,0,12.7,5.7,12.7,12.7C97.7,98.1,92,103.8,85,103.8z"/>
	</g>
</g>
</svg>
