<?xml version="1.0" encoding="utf-8"?>
<!-- Generator: Adobe Illustrator 24.3.0, SVG Export Plug-In . SVG Version: 6.00 Build 0)  -->
<svg version="1.1" id="Layer_1" xmlns="http://www.w3.org/2000/svg" xmlns:xlink="http://www.w3.org/1999/xlink" x="0px" y="0px"
	 width="50.6px" height="55.7px" viewBox="0 0 50.6 55.7" style="enable-background:new 0 0 50.6 55.7;" xml:space="preserve">
<style type="text/css">
	.st0{fill:#00B0FB;}
	.st1{opacity:0.4;fill:#00B0FB;}
	.st2{fill:none;}
	.st3{opacity:0.4;}
	.st4{fill-rule:evenodd;clip-rule:evenodd;fill:#00B0FB;}
	.st5{fill-rule:evenodd;clip-rule:evenodd;}
</style>
<g>
	<path class="st0" d="M43.5,49.1h-1.2v0.5H45V33.9c0-0.1,0-0.1,0-0.2h-2.8v0.9h1.3V49.1z"/>
	<path class="st0" d="M7.4,22.6c0.3,0.5,0.7,0.9,1.2,1.2C8.1,23.4,7.7,23,7.4,22.6z"/>
	<path class="st0" d="M6.7,15.9C6.7,15.9,6.7,15.9,6.7,15.9c0-0.1,0-0.1,0-0.2C6.7,15.8,6.7,15.9,6.7,15.9
		C6.7,15.9,6.7,15.9,6.7,15.9v4.2c0,0.9,0.3,1.7,0.7,2.4C7,21.9,6.7,21,6.7,20.2V15.9z"/>
	<path class="st0" d="M5.5,40.2l-0.6,7.7c0,0.5,0.1,1,0.3,1.5c-0.3-0.4-0.4-1-0.3-1.5L5.5,40.2z"/>
	<path class="st0" d="M43.9,15.6c0,0,0-0.1-0.1-0.1l-2.2-3l2.2,3C43.8,15.5,43.9,15.6,43.9,15.6z"/>
	<polygon class="st1" points="33.1,11.2 32.8,10.6 28.8,10.6 29.4,13.9 29.5,15.2 34.9,15.2 	"/>
	<polygon class="st1" points="36.2,14.5 36.5,15.2 41.7,15.2 38.2,10.6 34.4,10.6 	"/>
	<path class="st0" d="M11,24.5L11,24.5c-0.3,0-0.6,0-0.9-0.1C10.4,24.5,10.7,24.5,11,24.5z"/>
	<path class="st0" d="M6.9,30.9c0.2-0.2,0.5-0.4,0.8-0.5C7.3,30.5,7.1,30.7,6.9,30.9z"/>
	<path class="st0" d="M44,15.9v4.2c0,0.9-0.3,1.7-0.7,2.4c0.5-0.7,0.7-1.5,0.7-2.4V15.9C44,15.9,44,15.9,44,15.9c0-0.1,0-0.1,0-0.2
		C43.9,15.8,43.9,15.9,44,15.9C44,15.9,44,15.9,44,15.9z"/>
	<path class="st0" d="M6.8,50.6c-0.3-0.1-0.6-0.2-0.9-0.4C6.1,50.3,6.4,50.5,6.8,50.6z"/>
	<path class="st0" d="M42,23.7c0.5-0.3,0.9-0.7,1.2-1.2C42.9,23,42.5,23.4,42,23.7z"/>
	<path class="st0" d="M35.5,5.1L35.5,5.1c0.5,0,1,0.1,1.5,0.3C36.6,5.2,36.1,5.1,35.5,5.1z"/>
	<path class="st0" d="M45.1,33.2L45.1,33.2c0.1,0,0.2,0,0.3,0.1C45.3,33.2,45.2,33.2,45.1,33.2z"/>
	<path class="st0" d="M45.1,50.6c0.1,0,0.2,0,0.3-0.1C45.3,50.6,45.2,50.6,45.1,50.6L45.1,50.6z"/>
	<path class="st0" d="M20.7,31.8H8.5c-0.5,0-0.9,0.4-0.9,0.9L6.3,48.1c0,0.3,0.1,0.5,0.3,0.7C6.8,49,7,49.1,7.3,49.1H22
		c0.3,0,0.5-0.1,0.7-0.3c0.2-0.2,0.3-0.5,0.3-0.7l-1.3-15.4C21.6,32.2,21.2,31.8,20.7,31.8z M18.5,35.1c0,2.2-1.7,3.9-3.9,3.9
		c-2.2,0-3.9-1.8-3.9-3.9v-1.1c0-0.4,0.3-0.8,0.8-0.8c0.4,0,0.8,0.3,0.8,0.8v1.1c0,1.3,1.1,2.4,2.4,2.4s2.4-1.1,2.4-2.4v-1.1
		c0-0.4,0.3-0.8,0.8-0.8c0.4,0,0.8,0.3,0.8,0.8V35.1z"/>
	<polygon class="st1" points="14.4,14.5 16.2,10.6 12.5,10.6 9,15.2 14.1,15.2 	"/>
	<polygon class="st1" points="27.3,10.6 23.3,10.6 23.1,11.8 22.6,15.2 28,15.2 27.5,11.8 	"/>
	<polygon class="st1" points="21.3,13.9 21.8,10.6 17.9,10.6 17.6,11.2 15.8,15.2 21.1,15.2 	"/>
	<path d="M11,24.5c0.1,0,0.2,0,0.3,0C11.2,24.5,11.1,24.5,11,24.5L11,24.5z"/>
	<path d="M11.3,8.8c0-0.3,0-0.5,0.1-0.8C11.4,8.3,11.3,8.6,11.3,8.8v0.7l-4.5,5.9l4.5-5.9V8.8z"/>
	<path d="M6.8,15.6C6.8,15.6,6.7,15.6,6.8,15.6c0,0.1,0,0.1,0,0.2C6.7,15.7,6.7,15.7,6.8,15.6C6.7,15.6,6.8,15.6,6.8,15.6z"/>
	<path d="M43.9,15.8c0,0,0-0.1,0-0.1c0,0,0,0,0,0c0,0,0,0,0,0C43.9,15.7,43.9,15.7,43.9,15.8z"/>
	<path d="M6.3,31.6c-0.1,0.3-0.2,0.6-0.2,0.9l-0.6,7.7l0.6-7.7C6.1,32.2,6.2,31.9,6.3,31.6z"/>
	<path d="M39.3,9.6l2.2,3L39.3,9.6V8.8c0-0.8-0.2-1.5-0.6-2.1c0.4,0.6,0.6,1.3,0.6,2.1V9.6z"/>
	<path d="M45.4,33.2c-0.1,0-0.2-0.1-0.3-0.1h-5.8v-8.7c0.1,0,0.2,0,0.3,0c0.9,0,1.7-0.3,2.4-0.7c0.5-0.3,0.9-0.7,1.2-1.2
		c0.5-0.7,0.7-1.5,0.7-2.4v-4.2c0,0,0,0,0,0c0,0,0-0.1,0-0.1c0,0,0-0.1,0-0.1c0,0,0,0,0,0c0,0,0-0.1-0.1-0.1l-2.2-3l-2.2-3V8.8
		c0-0.8-0.2-1.5-0.6-2.1c-0.4-0.6-1-1.1-1.7-1.4c-0.5-0.2-0.9-0.3-1.5-0.3H15.1c-1.8,0-3.3,1.3-3.7,3c-0.1,0.2-0.1,0.5-0.1,0.8v0.7
		l-4.5,5.9c0,0-0.1,0.1-0.1,0.1c0,0,0,0,0,0c0,0,0,0.1,0,0.1s0,0.1,0,0.1c0,0,0,0,0,0v4.2c0,0.9,0.3,1.7,0.7,2.4
		c0.3,0.5,0.7,0.9,1.2,1.2c0.5,0.3,1,0.5,1.5,0.7c0.3,0.1,0.6,0.1,0.9,0.1c0.1,0,0.2,0,0.3,0v5.8H8.5c-0.3,0-0.6,0.1-0.9,0.2
		c-0.3,0.1-0.5,0.3-0.8,0.5c-0.2,0.2-0.4,0.4-0.5,0.7c-0.1,0.3-0.2,0.6-0.2,0.9l-0.6,7.7l-0.6,7.7c0,0.5,0.1,1,0.3,1.5
		c0.1,0.1,0.2,0.3,0.3,0.4c0.1,0.1,0.2,0.2,0.4,0.3c0.3,0.2,0.6,0.3,0.9,0.4c0.2,0,0.3,0.1,0.5,0.1h37.8c0.1,0,0.2,0,0.3-0.1
		c0.3-0.1,0.5-0.4,0.5-0.7V33.9C45.8,33.6,45.6,33.4,45.4,33.2z M42.4,20.1c0,1.6-1.3,2.8-2.8,2.8c-1.6,0-2.8-1.3-2.8-2.8v-3.5h5.6
		V20.1z M41.7,15.2l-5.1,0l-0.3-0.7l-1.8-3.9h3.7L41.7,15.2z M29.7,16.7h5.6v3.5c0,1.6-1.3,2.8-2.9,2.8c-1.5,0-2.7-1.3-2.8-2.8V16.7
		z M29.5,15.2l-0.2-1.2l-0.5-3.4h3.9l0.3,0.7l1.8,3.9H29.5z M12.8,8.8c0-1.2,1-2.2,2.2-2.2h20.5c1.2,0,2.2,1,2.2,2.2V9h-25V8.8z
		 M28.1,16.7v3.5c0,1.6-1.3,2.8-2.8,2.8s-2.8-1.3-2.8-2.8v-3.5H28.1z M22.6,15.2l0.5-3.4l0.2-1.2h4l0.2,1.2l0.5,3.4H22.6z
		 M15.8,15.2l1.8-3.9l0.3-0.7h3.9l-0.5,3.4l-0.2,1.2H15.8z M21,16.7v3.5c0,1.6-1.3,2.8-2.9,2.8c-1.5,0-2.7-1.3-2.8-2.8v-3.5H21z
		 M12.5,10.6h3.7l-1.8,3.9l-0.3,0.7H9L12.5,10.6z M11,23c-1.6,0-2.8-1.3-2.8-2.8v-3.5h5.6v3.5C13.8,21.7,12.6,23,11,23z M22.7,48.8
		c-0.2,0.2-0.4,0.3-0.7,0.3H7.3c-0.3,0-0.5-0.1-0.7-0.3c-0.2-0.2-0.3-0.5-0.3-0.7l1.3-15.4c0-0.5,0.4-0.9,0.9-0.9h12.2
		c0.5,0,0.9,0.4,0.9,0.9L22.9,48C23,48.3,22.9,48.6,22.7,48.8z M27.1,33.9v15.1h-2.9c0.2-0.4,0.2-0.8,0.2-1.2l-1.3-15.4
		c-0.1-1.3-1.2-2.3-2.4-2.3h-7.9v-6.2c0.7-0.3,1.3-0.8,1.7-1.5c1.3,2,4,2.5,6,1.1c0.4-0.3,0.8-0.7,1.1-1.1c1.3,2,4,2.5,6,1.1
		c0.4-0.3,0.8-0.7,1.1-1.1c1.3,2,4,2.5,6,1.1c0.4-0.3,0.8-0.7,1.1-1.1c0.4,0.6,1,1.2,1.8,1.5v9.1h-9.9
		C27.5,33.2,27.1,33.5,27.1,33.9z M38.1,34.7V39h-3.2v-4.3H38.1z M44.3,49.1H28.6V34.7h4.7v5c0,0.4,0.3,0.8,0.8,0.8h4.7
		c0.4,0,0.8-0.3,0.8-0.8v-5h4.7V49.1z"/>
	<path d="M17.8,33.2c-0.4,0-0.8,0.3-0.8,0.8v1.1c0,1.3-1.1,2.4-2.4,2.4s-2.4-1.1-2.4-2.4v-1.1c0-0.4-0.3-0.8-0.8-0.8
		c-0.4,0-0.8,0.3-0.8,0.8v1.1c0,2.2,1.7,3.9,3.9,3.9c2.2,0,3.9-1.8,3.9-3.9v-1.1C18.5,33.5,18.2,33.2,17.8,33.2z"/>
	<path d="M31.4,45.6h0.5c0.4,0,0.8-0.3,0.8-0.8s-0.3-0.8-0.8-0.8h-0.5c-0.4,0-0.8,0.3-0.8,0.8S31,45.6,31.4,45.6z"/>
	<path d="M33.8,45.6h2.2c0.4,0,0.8-0.3,0.8-0.8s-0.3-0.8-0.8-0.8h-2.2c-0.4,0-0.8,0.3-0.8,0.8S33.3,45.6,33.8,45.6z"/>
	<path d="M35.9,46.2h-4.6c-0.4,0-0.8,0.3-0.8,0.8s0.3,0.8,0.8,0.8h4.6c0.4,0,0.8-0.3,0.8-0.8S36.4,46.2,35.9,46.2z"/>
</g>
</svg>
