<?xml version="1.0" encoding="utf-8"?>
<!-- Generator: Adobe Illustrator 24.3.0, SVG Export Plug-In . SVG Version: 6.00 Build 0)  -->
<svg version="1.1" id="Layer_1" xmlns="http://www.w3.org/2000/svg" xmlns:xlink="http://www.w3.org/1999/xlink" x="0px" y="0px"
	 width="434.7px" height="352.5px" viewBox="0 0 434.7 352.5" style="enable-background:new 0 0 434.7 352.5;" xml:space="preserve"
	>
<style type="text/css">
	.st0{fill:#00C8FF;}
	.st1{fill-rule:evenodd;clip-rule:evenodd;fill:#00C8FF;}
	.st2{fill:#185AE9;}
	.st3{fill:#FFFFFF;}
	.st4{fill-rule:evenodd;clip-rule:evenodd;fill:#FFFFFF;}
	.st5{fill:#00B0FB;}
	.st6{fill:#00B0FB;fill-opacity:0.4;}
	.st7{fill:#E4ECF4;}
	.st8{fill:#FFE8A0;}
	.st9{fill:none;}
	.st10{fill:#0D0D0D;}
	.st11{fill-rule:evenodd;clip-rule:evenodd;fill:#00B0FB;}
	.st12{fill:#FAFBFF;}
	.st13{fill:#070707;}
	.st14{fill:#D9D9D9;filter:url(#Adobe_OpacityMaskFilter);}
	.st15{mask:url(#mask0_103_2708_1_);}
	.st16{fill-rule:evenodd;clip-rule:evenodd;fill:#DAB6E4;}
	.st17{stroke:#FFFFFF;stroke-width:2;}
	.st18{fill:#FFFFFF;stroke:#000000;stroke-width:2;}
	.st19{fill-rule:evenodd;clip-rule:evenodd;}
	.st20{stroke:#FFFFFF;}
	.st21{fill:#FFFFFF;filter:url(#Adobe_OpacityMaskFilter_1_);}
	.st22{mask:url(#path-22-inside-1_103_2708_1_);fill:#FFFFFF;}
	.st23{fill-rule:evenodd;clip-rule:evenodd;fill:#263238;}
	.st24{fill:#EFEFEF;}
	
		.st25{fill:none;stroke:#000000;stroke-width:10.01;stroke-linecap:round;stroke-linejoin:round;stroke-miterlimit:3.08;stroke-dasharray:70.84,70.84;}
	.st26{fill:#010000;}
	.st27{opacity:0.64;}
	.st28{fill:#F9F7F5;}
	.st29{fill:#D9D9D9;filter:url(#Adobe_OpacityMaskFilter_2_);}
	.st30{mask:url(#mask0_103_2310_1_);}
	.st31{fill:#FFFFFF;filter:url(#Adobe_OpacityMaskFilter_3_);}
	.st32{mask:url(#mask1_103_2310_1_);}
	.st33{fill:#E6E6E6;}
	.st34{fill:#FFFFFF;filter:url(#Adobe_OpacityMaskFilter_4_);}
	.st35{mask:url(#mask2_103_2310_1_);}
	.st36{fill:none;stroke:#000000;stroke-width:1.5;stroke-linecap:round;stroke-linejoin:round;stroke-miterlimit:10;}
	.st37{fill:#FFFFFF;filter:url(#Adobe_OpacityMaskFilter_5_);}
	.st38{mask:url(#mask3_103_2310_1_);}
	.st39{fill:#FFFFFF;filter:url(#Adobe_OpacityMaskFilter_6_);}
	.st40{mask:url(#mask4_103_2310_1_);}
	.st41{fill:#FFFFFF;filter:url(#Adobe_OpacityMaskFilter_7_);}
	.st42{mask:url(#mask5_103_2310_1_);}
	.st43{fill:#FFFFFF;filter:url(#Adobe_OpacityMaskFilter_8_);}
	.st44{mask:url(#mask6_103_2310_1_);}
	.st45{fill:#DBDBDB;}
	.st46{fill:#FFFFFF;filter:url(#Adobe_OpacityMaskFilter_9_);}
	.st47{mask:url(#mask7_103_2310_1_);}
	.st48{fill:#FFFFFF;filter:url(#Adobe_OpacityMaskFilter_10_);}
	.st49{mask:url(#mask8_103_2310_1_);}
	.st50{fill:#FFFFFF;filter:url(#Adobe_OpacityMaskFilter_11_);}
	.st51{mask:url(#mask9_103_2310_1_);}
	.st52{fill:#FFFFFF;filter:url(#Adobe_OpacityMaskFilter_12_);}
	.st53{mask:url(#mask10_103_2310_1_);}
	.st54{fill:#FFFFFF;filter:url(#Adobe_OpacityMaskFilter_13_);}
	.st55{mask:url(#mask11_103_2310_1_);}
	.st56{fill:#FFFFFF;filter:url(#Adobe_OpacityMaskFilter_14_);}
	.st57{mask:url(#mask12_103_2310_1_);}
	.st58{fill:#FFFFFF;stroke:#000000;}
	.st59{fill:#FFFFFF;filter:url(#Adobe_OpacityMaskFilter_15_);stroke:#FFFFFF;}
	.st60{mask:url(#mask13_103_2310_1_);}
	.st61{fill:#FFFFFF;filter:url(#Adobe_OpacityMaskFilter_16_);}
	.st62{mask:url(#path-55-inside-1_103_2310_1_);}
	.st63{fill:#FFFFFF;filter:url(#Adobe_OpacityMaskFilter_17_);}
	.st64{mask:url(#path-59-inside-2_103_2310_1_);fill:#FFFFFF;}
	.st65{fill:none;stroke:#FFFFFF;stroke-width:1.5;stroke-linecap:round;stroke-linejoin:round;stroke-miterlimit:10;}
	.st66{fill:#181818;}
	.st67{fill:#BEBEBE;}
	.st68{fill:#FEFEFE;}
	.st69{fill:none;stroke:#000000;stroke-width:2.1125;stroke-miterlimit:6.5;}
</style>
<g>
	<path d="M120.9,352.5c14.8-0.6,28.4-5.3,41.8-10.6c22.9-9.1,44.5-20.8,65.5-33.6c46.1-28.1,88.8-60.5,128.5-97
		c19.2-17.6,37.3-36.2,53.3-56.8c8.1-10.4,15.6-21.2,20.9-33.4c2-4.6,3.6-9.3,3.7-14.4c0.3-9.3-4.5-14.9-13.8-16.1
		c-8.7-1.1-17,0.5-25.3,2.7c-17.5,4.6-33.8,11.9-49.9,20c-28.6,14.4-55.6,31.4-81.7,49.8c-30.2,21.3-59,44.4-86.1,69.6
		c-20.1,18.7-39.2,38.3-55.6,60.4c-7.1,9.5-13.6,19.4-18,30.5c-1.7,4.2-2.9,8.5-3,13.1c-0.1,8.5,4.5,13.8,12.9,15.2
		C116.5,352.3,118.7,352.3,120.9,352.5z"/>
	<path class="st3" d="M51.3,38.4c0,0,3.3,19,6,26.2c0,0,0.3,1.5-2.2,3.3c-2.4,1.8-7,5-3.5,7.5c3.6,2.4,11.4,1.9,12.2,3.6
		c0.7,1.6,9.5,17.9,20.4,13.5c11-4.5,15.6-11.4,15.6-11.4s24.6,24.6,31.4,26.6c6.8,2.1,29.2-22.4,16.4-45.1l-27.3-10.6L81.6,27.7
		L51.3,38.4z"/>
	<path d="M132.8,108.3c3-0.4,7.1-3.4,10.8-8.1c7.4-9.3,12.6-24.2,4.7-38.2l-0.1-0.2l-27.5-10.6l-39-24.4L50.4,37.9l0.1,0.6
		c0.1,0.8,3.3,19,6,26.2c0,0.2-0.1,1.2-1.8,2.5c-0.2,0.1-0.3,0.3-0.5,0.4c-2,1.5-4.7,3.6-4.6,5.7c0,1,0.6,1.8,1.6,2.5
		c2,1.3,5.1,1.8,7.8,2.2c1.5,0.2,3.8,0.6,4.1,1c0.5,1,2.9,5.5,6.5,9.2c4.9,5,10,6.6,14.9,4.6c9.1-3.7,13.9-9.1,15.4-11
		c4,3.9,24.7,24.3,31,26.2C131.5,108.4,132.1,108.4,132.8,108.3z M147.1,62.9c7.3,13.3,2.4,27.5-4.7,36.4c-4.5,5.6-9.1,8.1-11,7.5
		c-1.9-0.6-6.5-3.4-17.9-13.9c-6.9-6.3-13.1-12.4-13.1-12.5l-0.7-0.7l-0.5,0.8c0,0-4.6,6.9-15.3,11.2c-4.3,1.7-8.8,0.3-13.2-4.3
		c-3.5-3.5-5.8-7.9-6.2-8.8c-0.5-1.2-2.5-1.5-5.2-1.9c-2.4-0.4-5.5-0.8-7.2-2c-0.9-0.6-1-1.2-1-1.4c0-1.4,2.4-3.3,4-4.5
		c0.2-0.1,0.3-0.3,0.5-0.4c2.7-2.1,2.4-3.8,2.4-4.1l0-0.1c-2.3-6.3-5.3-22.1-5.9-25.5l29.4-10.4l38.5,24L147.1,62.9z"/>
	<path class="st66" d="M63.2,63.2c-1,0-1.9-1.1-1.9-2.4c-0.1-1.4,0.7-2.6,1.7-2.6c1,0,1.9,1.1,1.9,2.5C64.9,62,64.2,63.2,63.2,63.2z
		"/>
	<path d="M89.9,49.3c0.3,0,0.5-0.3,0.6-0.6c0-0.1,0.7-3.2,0.1-5.2c-0.1-0.4-0.6-0.6-0.9-0.5c-0.4,0.1-0.6,0.6-0.5,0.9
		c0.4,1.3,0,3.6-0.2,4.4c-0.1,0.4,0.2,0.8,0.6,0.9C89.7,49.4,89.8,49.3,89.9,49.3z"/>
	<path d="M92.9,46.9c0.1,0,0.2-0.1,0.3-0.1c0.4-0.2,0.5-0.6,0.3-1c-2-3.6-5.6-3.5-6.3-3.3c-0.7,0.2-0.6,0.7-0.7,0.8
		c0,0.4,0.4,0.7,0.8,0.7c0.1,0,0.2,0,0.4-0.1c0.6-0.1,3.1,0,4.5,2.6C92.3,46.8,92.6,47,92.9,46.9z"/>
	<path d="M99.6,79.8c0,0,4.2-4.8,6.7-8.7c0.5-0.7,1.6-0.4,1.7,0.4c0.3,5.1,1.7,14.4,7.8,23.5C115.7,95.1,102.8,83.1,99.6,79.8z"/>
	<path d="M57.8,55.6c0.3,0,0.5-0.3,0.6-0.6c0-0.1,0.9-3.4,5.4-4c0.4-0.1,0.7-0.4,0.7-0.8c-0.1-0.4-0.4-0.7-0.8-0.7
		c-5.6,0.7-6.6,5-6.6,5.2c-0.1,0.4,0.2,0.8,0.6,0.9C57.6,55.7,57.7,55.6,57.8,55.6z"/>
	<path class="st3" d="M67.3,84.4c0,0,6-3.1,14.8-4.8L67.3,84.4z"/>
	<path d="M67.7,85c0.1,0,6-3.1,14.6-4.8L82,78.8c-8.8,1.7-14.7,4.8-15,4.9L67.7,85z"/>
	<path d="M57.2,40.3c-5.4,3.8-13,0-13.3-6.7c-0.1-2.8,0.4-5.8,2.8-7.7c0,0,4.1-3.5,8.7-2.1c3.8,1.1-5.1-13.4,6.3-16.6
		S75,9.1,74.8,12.3s6.5,2.6,8.2-2.6c1.7-5.2,7.5-10.6,15.3-9.6c7.7,1.1,9.6,7,7.5,10.8c-2.1,3.8-3.6,4.4-1.4,6.4
		c2.2,1.9,7.7-2.9,17,0.4c9.3,3.4,3.9,12.3,0.7,13.9c-3.2,1.6-2.6,6.7-0.6,9.2c2.9,3.6,3.3,12.9-3.7,13.1c-7,0.2-18.2-1.2-19.6-2.9
		c-1.3-1.7,0.9-11.1-7.8-12.5c-8.7-1.3-8.1,5.7-9.7,6.3c-4.2,1.6-18-8.9-23.4-4.8C57.4,40.1,57.3,40.2,57.2,40.3z"/>
	<path class="st3" d="M50.9,64.5c-1.9-3.4-1.9-7,0-8.1s4.9,0.9,6.8,4.3c1.9,3.4,1.9,7,0,8.1C55.8,69.9,52.8,68,50.9,64.5z"/>
	<path d="M57,69.9c0.3-0.1,0.7-0.2,1-0.3c2.3-1.2,2.4-5.2,0.3-9.1c-1-1.7-2.2-3.2-3.7-4.1c-1.5-1-3-1.2-4.2-0.5
		c-2.3,1.3-2.4,5.2-0.3,9.1C52.1,68.2,54.8,70.2,57,69.9z M51.7,57c0.6-0.1,1.4,0.1,2.1,0.6c1.2,0.8,2.3,2,3.2,3.6
		c1.4,2.6,1.9,6.2,0.3,7.1c-1.6,0.9-4.3-1.4-5.8-4c-1.4-2.6-1.9-6.2-0.3-7.1C51.4,57.1,51.5,57,51.7,57z"/>
	<path d="M80.4,43.2l0.8,1.3L57.2,60l-0.8-1.3L80.4,43.2z"/>
	<path d="M185.2,255.2c8.2,16.7,17.3,33.1,24.4,50.3c1.5,3.6,2.9,7.3,3.6,11.2c0.3,0,0.5,0,0.8,0c8.5-5.3,17.1-10.5,25.6-16
		c44-28.1,85-59.9,123.2-95.4c12.5-11.7,24.6-23.8,36-36.5c1.8-2,1.8-2.9,0-4.9c-4.3-4.8-9.4-9-14.2-13.3
		c-21.3-19.4-44.1-36.9-68.9-51.7c-35.2-21.1-72.8-35.9-113.1-43.9c-16.6-3.3-33.2-5.8-50.1-5.4c-0.6,0-1.2,0.1-1.8,0.1
		c-0.4,0.7-0.1,1.1,0.4,1.6c0.9,0.5,2,0.2,2.9,0.5c0.6,0.2,1.2,0.2,1.8,0.2c10.1-0.3,20.1,1.2,30,2.6c12.4,1.7,24.6,4.3,36.7,7.4
		c18.4,4.8,36.3,11,53.7,18.7c27.3,12,52.3,27.8,75.9,45.9c9.9,7.6,19.5,15.6,28.8,23.9c5.1,4.6,10.2,9.1,15,14
		c1.7,1.7,1.8,1.8,0.2,3.6c-5.4,6-10.7,11.9-16.4,17.5c-0.7,0.7-1.5,1.4-2,2.2c-0.2,0.8-0.3,1.8-1.5,1.8c-1.2,0.5-2.1,1.3-3,2.2
		c-3.4,3.4-6.7,6.7-10.1,10.1c-6.5,6.5-13.4,12.4-20.2,18.5c-11.6,10.2-23.5,20-35.6,29.6c-13.1,10.3-26.4,20.4-40.2,29.8
		c-2.2,1.5-4.4,3.2-6.8,4.6c-0.5,0.3-1,0.7-1.4,1.2c-0.1,0.9-0.4,1.6-1.5,1.4c-3.3,1.6-6.3,3.8-9.4,5.8c-2,1.2-4.1,2.2-5.8,3.9
		c0,1.3-0.8,1.5-1.8,1.3c-2,0.5-3.5,2-5.2,3.1c-1.8,1.3-3.9,2.3-5.6,3.8c-0.3,1.1-1.2,1.1-2.1,1.2c-3.5,1.2-6.3,3.6-9.3,5.6
		c-3.6,2.3-3.6,2.4-5.2-1.5c-5.8-14.7-12.2-29.1-19.3-43.2c-1.8-3.5-3.8-6.8-5.7-10.1c-0.4-0.7-0.8-1.4-1.6-1.8
		C185.7,254.8,185.3,254.6,185.2,255.2z"/>
	<path class="st67" d="M111.1,122.5l0.2,0.1l0.2-0.1c1.2-1.7,0.5-3.6,0.7-5.5c0.1-0.9,0.2-2-0.7-2.7c-0.1-0.1-0.2-0.1-0.3,0
		C111.1,117,111.1,119.8,111.1,122.5z"/>
	<path d="M111.4,114.3c0,2.7,0,5.5,0,8.2c0.3,8,1.2,16,3,23.8c1.7,7.4,3.8,14.6,7.1,21.4c1.4-0.7,0.6-1.8,0.4-2.7
		c-1.4-4.8-2.8-9.7-4-14.5c-0.3-1.3-0.8-2.6-0.5-4c-1.8-5.3-2.3-10.9-2.9-16.3c-1-9.6-1.1-19.2,0.9-28.8c0.5-2.2,1.5-3.9,3.4-5.3
		c11.8-9.1,17.8-21.3,19.5-35.9c0.2-1.5,0.1-3.1,0.1-4.6c0.1-2.3,0.1-2.4,2.4-2.8c0.7-0.1,1.5-0.1,2.2-0.3c2.2-0.3,4.4-0.4,6.6-0.8
		c0.4-0.1,0.9,0.1,1.2-0.3c-0.1-0.5-0.3-0.9-0.4-1.4c-4.6-0.1-9.1,0.5-13.6,1.1c-0.8,0.1-1.2,0.3-1.1,1.2
		c1.5,15.8-4.6,28.7-15.5,39.6c-0.7,0.7-1.3,1.4-2.1,1.8c-3.9,2-4.8,5.6-5.5,9.5C112,106.8,111.6,110.6,111.4,114.3z"/>
	<path class="st68" d="M143,52c-1.6,0.2-3.7-0.2-4.8,0.9c-1,1-0.2,3-0.3,4.6c-0.9,15.4-6.8,28.3-19.1,37.8c-2.8,2.2-3.8,4.9-4.3,8.2
		c-1.8,10.7-1.3,21.5,0.1,32.2c0.2,1.3,0.4,2.6,0.6,3.9c0.4,2.4,0.7,4.9,2,7.1c-0.2,0.8,0.3,1.3,0.7,1.8c2.5,4.2,5.5,8,8.9,11.6
		c5.6,6,11.6,11.4,18,16.4c2.4,1.9,4.9,3.8,6.6,6.4c0.4,0.6,0.9,1.2,1,2c0.3,1.2,0,2.1-1.2,2.6c-1.2,0.5-2.4,0.8-3.8,0.5
		c-2-0.4-3.9-0.9-5.6-1.8c-1.5-0.8-3-1.6-4.7-2.3c-0.7-0.3-1.5-0.9-2.1,0.1c-0.1,1,0.7,1.6,1.1,2.3c9.4,14.3,20,27.8,30.2,41.5
		c5.6,7.6,11.1,15.3,16.2,23.2c0.8,1.1,1.2,2.4,2,3.5c0.2,0.2,0.4,0.4,0.6,0.7c1-0.4,1.2,0.6,1.6,1.1c2.3,3.6,4.4,7.3,6.3,11.1
		c7.5,14.7,14.1,29.8,20.1,45.2c0.6,1.5,1.1,1.8,2.6,0.9c3.8-2.3,7.4-5.2,11.5-7.2c0.4-0.7-0.1-1.2-0.3-1.7
		c-3.6-7.5-7.1-15.1-10.7-22.6c-1.3-2.7-2.4-5.5-3.9-8.2c-0.2-0.4-0.5-0.9-0.3-1.4c0.9-0.1,1,0.6,1.3,1.1c2.7,5.5,5.4,11,8,16.5
		c2.1,4.5,4.3,8.8,6.5,13.4c0.3,0.8,0.7,1.7,1.8,1.5c2.9-1.4,5.3-3.5,8-5.2c0.9-0.5,1.8-1,2.7-1.6c0.9-1.2,0.2-2.4-0.2-3.5
		c-1.6-4.3-3.1-8.7-5-13c-4.2-9.7-8.5-19.4-14-28.4c-0.3-0.5-0.8-1.1-0.4-2c0.9,0.3,1.2,1,1.6,1.7c4.7,8.2,8.7,16.8,12.5,25.5
		c2.3,5.3,4.3,10.7,6.3,16.2c0.3,0.8,0.4,1.6,1.2,2c5-3.2,10-6.4,15-9.6c0.5-0.9-0.1-1.7-0.3-2.4c-2.8-8.2-6.2-16.3-9.9-24.2
		c-5.3-11.1-11.3-21.8-17.2-32.6c-0.3-0.5-0.8-1-0.5-1.8c1,0.7,1.5,1.7,2.1,2.6c2.5,4,4.7,8.1,6.9,12.3
		c6.2,11.7,12.3,23.6,17.1,35.9c0.9,2.3,1.8,4.6,2.6,6.9c0.2,0.7,0.3,1.4,1,1.7c20-13.1,39-27.7,57.7-42.7
		c15.1-12.2,29.9-24.9,44.1-38.2c4.2-3.9,8.1-8.1,12.2-12.1c1-1,2.1-1.8,3.2-2.8c0.3-0.8-0.3-1.3-0.7-1.8
		c-6.1-8.3-12.5-16.4-19.4-24.2c-6.8-7.7-14.1-15-21.5-22c-10.6-10.1-22.1-19.3-34.2-27.7c-13.1-9.2-26.9-17.1-41.4-23.9
		c-13-6.1-26.5-11.1-40.5-14.8c-8.7-2.3-17.4-4.2-26.3-5.5c-4.8-0.7-9.6-1.1-14.4-1.4c-5.4-0.4-10.7,0-16.1,0.5
		c-1.6,0.1-3,1.2-4.7,0.5c0-0.5,0.3-0.5,0.6-0.5c5.1-1,10.3-1.8,15.5-1.6c7,0.3,14,1,21,2c21.5,3,42,9.5,61.8,18.3
		c15.6,7,30.3,15.6,44.3,25.4c8.7,6.1,17.1,12.6,25.2,19.5c8.7,7.4,16.8,15.2,24.6,23.6c8.6,9.1,16.6,18.6,24.2,28.5
		c0.9,1.2,1.4,2.9,3.1,3.5c7.1-6.5,13.3-13.7,19.9-20.7c0.8-0.8,0.7-1.4-0.1-2.2c-31.3-30.1-65.1-56.7-103.9-76.7
		c-27.8-14.4-57.3-24.5-87.9-30.8C191.8,55,178.5,53,165,51.9c-3.8-0.3-7.7-0.2-11.5-0.3c-0.3,0,0.1-0.1-0.2-0.1
		c-3.4-0.1-3.6-0.7-3.4,3.3c0.7,9.5-0.5,18.7-5,27.3c-4.6,8.6-11.2,15.1-19.6,19.9c-1.5,0.9-2.9,1.8-4.6,2.4c-0.6,0.2-1.2,0.7-2,0.2
		c0.3-0.9,1.2-1,1.8-1.4c14.5-7,24.4-17.9,27.7-33.9c1.1-5.1,1-10.3,0.3-15.5c-0.3-2-0.5-2.2-2.6-2.1C145.2,51.9,144.1,51.8,143,52z
		"/>
	<path d="M135.2,184.1c0.5-0.9,1.1-0.1,1.5,0.1c2.2,1,4.4,2.2,6.7,3.1c2.4,1,4.9,1.7,7.5,0.9c2.3-0.8,3-2.3,1.7-4.4
		c-1.2-2-3-3.6-4.7-5.2c-4.9-4.4-10.2-8.3-15-12.9c-6-5.8-11.4-11.9-15.7-19.1c-1,1-0.2,2.2,0.1,3.1c1.3,5.2,2.8,10.4,4.3,15.6
		c0.2,0.8,0.8,1.6,0.1,2.4c2.3,5.1,4.6,10.1,9.4,13.4C132.7,181.6,133.7,183.2,135.2,184.1z"/>
	<path d="M135.2,184.1c-1-1.6-2.1-2.9-4.1-2.9c4.3,6.1,8.6,12.1,12.8,18.2c12.7,18.2,25.1,36.5,38.5,54.2c0.6,0.8,1.1,1.5,2.2,1
		c0-1.5-0.9-2.6-1.6-3.7c-6.5-10.2-13.7-19.9-20.9-29.6C152.8,209,143.6,196.8,135.2,184.1z"/>
	<path d="M377.3,188.1c-11-14.9-23.1-28.9-36.4-41.8c-23.7-23.1-50.2-42.4-80.2-56.8c-16.6-8-33.9-14.1-51.9-18
		c-10.7-2.3-21.4-3.9-32.4-4.3c-6.1-0.3-12,0-18,1.2c-0.9,0.2-2.6-0.1-2.4,1.1c0.2,1.4,1.9,1,2.9,0.7c4.3-1.2,8.7-1.3,13-1.3
		c10.4,0,20.7,1.4,30.8,3.4c29.4,5.8,56.6,16.9,82.2,32.4c15.3,9.3,29.6,19.9,42.9,31.8c11.9,10.6,23.1,22,33.3,34.2
		c5.2,6.2,10.1,12.6,14.8,19.2C377.7,190.3,377.9,189.6,377.3,188.1z"/>
	<path d="M258.8,285.6c-6.7-19.9-16.7-38.3-26.9-56.6c-0.5-0.9-1-1.7-1.6-2.5c-0.4-0.5-0.6-1.6-1.6-1c-1.1,0.7-0.2,1.3,0.1,1.8
		c4.1,7.6,8.3,15.1,12.3,22.8c6.3,11.9,11.8,24.2,16,37C258.9,287.9,259.1,287.1,258.8,285.6z"/>
	<path d="M143,52c0.9,0,1.7,0,2.6,0c2.7,0,2.7,0,3,2.8c2.2,21.3-7.1,36.4-25,46.8c-1.4,0.8-2.9,1.4-4.3,2c-0.6,0.3-1.4,0.5-1,1.4
		c0.4,0.9,1.1,0.7,1.9,0.4c13.1-6,23-15.1,28-28.9c2.8-7.7,3.3-15.5,2.3-23.5c-0.2-1.2,0.2-1.5,1.3-1.4c0.7,0.1,1.4,0,2,0
		c-0.9-0.6-2-0.1-3-0.3C148.2,50.9,145.6,51.8,143,52z"/>
	<path d="M242.1,296.7c-4.3-11.9-9.1-23.7-14.9-35c-1.7-3.4-3.4-6.8-5.5-10c-0.3-0.5-0.6-1.6-1.6-1c-1,0.5-0.5,1.4-0.1,2.1
		c2.2,3.8,4.3,7.6,6.3,11.5c4.9,9.9,9.4,20.1,13.1,30.5c0.4,1.1,0.9,2.2,0.7,3.4C242.3,298.9,242.5,298.8,242.1,296.7z"/>
	<path d="M229.4,304.9c-0.9-0.3-1.1-1.1-1.5-1.8c-4.8-9.9-9.6-19.9-14.4-29.8c-0.1-0.3-0.3-0.5-0.4-0.8c-0.3-0.9-0.9-1.1-1.7-0.7
		c-1,0.5-0.2,1.1,0,1.5c3.9,8.4,7.9,16.7,11.8,25.1c1.2,2.7,2.6,5.3,3.8,8C228.3,306.6,229.7,307.2,229.4,304.9z"/>
	<path d="M225.1,183.9c-0.5,2.6-0.9,4.8-1.4,7.1c-2.8,11.6-8.6,21.7-15.2,31.4c-6.8,9.9-14.5,19-22.5,28c-0.3,0.3-0.6,0.8-0.7,0.9
		c7.9,10.5,12.8,22.7,19,34.4c0-3.3-0.1-6.5,0-9.7c0.2-5.4,0.9-10.8,4-15.4c4.4-6.6,6-13.8,6.3-21.5c0.2-6,2.4-11.4,6.9-15.2
		c6.1-5.3,7.7-11.9,7.4-19.4c-0.3-6.7-1.8-13.2-3.4-19.6C225.4,184.6,225.3,184.4,225.1,183.9z"/>
	<path d="M116.5,121.3c4.2-0.5,8.1-1,12.2-1c23.4,0.2,45.9,5.1,67.2,14.9c17.8,8.1,33.9,18.9,48.5,32c19.8,17.7,35.8,38.6,49.6,61.2
		c3.6,6,7,12,10.3,18.2c0.4,0.8,0.8,1.6,1.7,1c1-0.6,0.1-1.3-0.2-1.9c-5.9-11.7-12.6-22.9-20-33.7c-9.4-13.7-19.8-26.5-31.6-38.2
		c-15.4-15.3-32.5-28.2-52-37.9c-16.6-8.2-33.9-13.7-52.2-16.2c-7.3-1-14.6-1.5-22-1.2c-3.8,0.1-7.7,0.3-11.4,1
		c-0.5,0.1-1.5-0.4-1.5,0.8C115.2,121.2,115.9,121.5,116.5,121.3z"/>
	<path d="M151.8,88c4.3-1.3,9.1-1.5,13.9-1.4c13.6,0.2,27,2.6,40.1,6.1c29.3,7.8,55.3,21.9,78.7,41c23.8,19.5,43.3,42.7,58.8,69.2
		c0.8,1.4,1.5,2.7,2.3,4c0.3,0.5,0.3,1.6,1.5,0.9c1.1-0.6,0.4-1.2,0.1-1.8c-3-5.3-6.1-10.4-9.4-15.5c-11.6-17.6-25-33.7-40.5-48
		c-23.9-22.2-51.1-39.1-82.3-49.1c-11.6-3.7-23.4-6.2-35.5-7.7c-6.5-0.8-12.9-1.3-19.4-0.8c-3.1,0.3-6.1,0.7-9.1,1.4
		c-0.5,0.1-1.6-0.3-1.4,0.9C149.8,88.1,150.6,88.2,151.8,88z"/>
	<path d="M134.7,107.5c5-0.7,10.1-0.7,15.2-0.5c11.9,0.4,23.6,2.7,35.1,6.1c25.8,7.7,48.8,20.8,69.8,37.6
		c10.3,8.1,19.9,17,28.9,26.5c14.8,15.5,28.1,32.3,40.1,50.1c0.2,0.3,0.4,0.5,0.5,0.8c0.4,0.9,1,0.9,1.8,0.5c1-0.6,0.1-1.1-0.2-1.5
		c-4-6-8.2-11.9-12.5-17.7c-10.7-14.2-22.3-27.7-35-40.2c-19.6-19.2-41.2-35.7-66.2-47.5c-16.5-7.8-33.8-13.2-51.8-15.7
		c-8.4-1.1-16.8-1.7-25.3-0.5c-0.8,0.1-1.5,0.1-1.4,1.2C133.8,107.3,133.9,107.7,134.7,107.5z"/>
	<path d="M119.7,136.5c4.7-0.5,9-1,13.4-0.9c23,0.5,44.6,6.3,64.7,17.2c13.9,7.5,26.2,17.2,37.1,28.6c12,12.6,22,26.8,30.5,42
		c6.7,12.2,12.4,24.8,17.4,37.8c0.4,1,0.4,3,1.8,2.4c1.3-0.5,0.3-2.2-0.1-3.3c-4.5-11.6-9.3-23-15.3-33.9
		c-10.7-19.9-23.8-38-40.5-53.5c-19-17.6-40.9-30-66.3-35.8c-7.7-1.7-15.5-2.8-23.4-3.2c-6.3-0.4-12.6-0.4-18.8,0.4
		c-0.2,0-0.4,0-0.5,0.1c-0.7,0.1-1.4,0.3-1.5,1.1C118.2,136.2,118.9,136.5,119.7,136.5z"/>
	<path d="M266.3,266.4c1.4-0.1,1.1-0.9,0.9-1.7c-1.4-4.2-3-8.4-4.9-12.3c-7.1-14.4-16-27.8-25.3-40.8c-0.2-0.3-0.4-0.7-0.7-0.8
		c-0.6-0.3-0.8-1.7-1.8-1c-1,0.8-0.3,1.5,0.2,2.2c1.4,2,2.8,3.9,4.2,5.9c8,11.3,15.7,22.7,21.6,35.3c1.8,3.9,3.5,7.9,4.8,12
		C265.4,265.7,265.4,266.5,266.3,266.4z"/>
	<path class="st3" d="M67,159.7c0,0-3.6-9.7-3.4-18.2c0.2-8.5-11.7-6.9-12.8-6.2c-1.1,0.7,1.8,2.4,1.4,3.8c-0.4,1.4-5.3,5.7-8.1,2.4
		c-2.9-3.3-3.5-6.1-4.8-7.5c-1.3-1.4-9.4,8.9-8.6,11.3c0.8,2.4,10.5,13.6,16.5,17.5c4.7,3.1,9.3,7.7,9.5,7.7
		C56.9,170.5,67,159.7,67,159.7z"/>
	<path d="M56.8,171.3c0.3-0.1,0.4-0.1,5.7-5.7c2.5-2.7,5.1-5.4,5.1-5.4l0.3-0.3l-0.2-0.4c-0.1-0.1-3.5-9.6-3.3-17.9
		c0.1-2.8-1.1-4.9-3.3-6.2c-3.8-2.2-9.7-1.3-10.7-0.7c-0.4,0.3-0.5,0.6-0.6,0.8c-0.1,0.7,0.3,1.3,0.9,2c0.4,0.4,0.9,1.1,0.8,1.5
		c-0.1,0.5-1.9,2.5-4,3c-1.2,0.3-2.1,0-2.8-0.8c-1.6-1.8-2.5-3.5-3.2-4.9c-0.6-1-1-1.9-1.7-2.6c-0.3-0.3-1-0.6-2.1,0.1
		c-2.6,1.6-8.7,9.4-7.8,12c1,2.8,10.9,14.1,16.9,17.9c3.2,2.1,6.4,4.9,8.1,6.5C56.3,171.3,56.4,171.4,56.8,171.3z M66.1,159.5
		c-3.4,3.6-8.1,8.6-9.5,10.1c-0.2-0.2-0.5-0.4-0.8-0.7c-1.7-1.6-5-4.5-8.3-6.7c-6.2-4-15.5-15.1-16.2-17.1c-0.1-0.3,0.2-1.6,1.9-4.4
		c2.2-3.3,4.7-5.8,5.5-6.1c0.5,0.5,0.8,1.2,1.3,2.2c0.7,1.4,1.7,3.2,3.4,5.2c1.1,1.3,2.6,1.7,4.3,1.3c2.4-0.6,4.8-2.9,5.1-4
		c0.3-1.1-0.5-2-1.1-2.7c-0.2-0.2-0.4-0.5-0.5-0.7c1.2-0.4,6.1-1,9.1,0.9c1.7,1,2.4,2.6,2.4,4.8C62.7,149.1,65.4,157.5,66.1,159.5z"
		/>
	<path class="st3" d="M157.5,169.5c1,5.2,7.4,14.9,2.4,26.9c-2.4,5.8-1.4,12-6.3,8.2l-20.5-12.8l-2.5-1.3c-0.4-0.2-43.5-23-61.4-38
		c0,0-1.9-1.6-2.9-2.4c-0.3,0.3-0.8,0.9-1.2,1.5c-2.5,3.2-7.7,9.7-16.8,12.5l-0.2,0c-0.8,0-1.8,0.3-2,0.7c-0.1,0.1,0,0.3,0.1,0.5
		c0.1,0.1,0.1,0.3,0.4,0.8c5.1,11,16.1,32.5,33.1,53.2c11.1,13.6,23,24.4,35,32.2c14.9,9.5,30.3,14.5,45.9,14.6
		c6.9,0.1,14-0.8,21.1-2.6c0.1,0,7.7-3,16.6-12.3c7.7-8.2,16.5-22,21.8-32.3c9.4-18.1,3.3-36.2,6.3-38.8"/>
	<path class="st69" d="M157.5,169.5c1,5.2,7.4,14.9,2.4,26.9c-2.4,5.8-1.4,12-6.3,8.2l-20.5-12.8l-2.5-1.3c-0.4-0.2-43.5-23-61.4-38
		c0,0-1.9-1.6-2.9-2.4c-0.3,0.3-0.8,0.9-1.2,1.5c-2.5,3.2-7.7,9.7-16.8,12.5l-0.2,0c-0.8,0-1.8,0.3-2,0.7c-0.1,0.1,0,0.3,0.1,0.5
		c0.1,0.1,0.1,0.3,0.4,0.8c5.1,11,16.1,32.5,33.1,53.2c11.1,13.6,23,24.4,35,32.2c14.9,9.5,30.3,14.5,45.9,14.6
		c6.9,0.1,14-0.8,21.1-2.6c0.1,0,7.7-3,16.6-12.3c7.7-8.2,16.5-22,21.8-32.3c9.4-18.1,3.3-36.2,6.3-38.8"/>
	<path d="M161,216.4c2-0.4,3.8-1.1,5.4-2.1c6.4-4.1,9.1-13.2,8.1-27c-0.7-10.1-3.4-19.2-3.4-19.3l-1.4,0.4c0.1,0.4,10,35.4-4.1,44.6
		c-5.4,3.5-13.9,2.8-25-2.1c-13.5-5.9-31.1-18-52.2-36l-1,1.1C122.1,205.6,146.8,219.1,161,216.4z"/>
	<path d="M168.2,237.2c1.7-0.3,3.3-0.8,4.9-1.4c15.3-6.2,22.8-27.3,22.2-62.9l-1.5,0c0.6,34.9-6.6,55.5-21.3,61.5
		c-7.5,3-17,2.2-28.3-2.3c-9.2-3.7-19.4-9.8-30.6-18.2c-19.1-14.4-34.3-30.6-34.4-30.7l-1.1,1c0.2,0.2,15.4,16.5,34.6,30.9
		c11.3,8.5,21.7,14.7,31,18.4C153.1,237.2,161.3,238.5,168.2,237.2z"/>
	<path d="M173.5,256c10.8-2,19.6-8.5,26.3-19.2c7.7-12.4,12.7-30.6,14.9-54.3l-1.5-0.1c-2.1,23.4-7,41.5-14.6,53.6
		c-6.7,10.7-15.5,16.9-26.2,18.7c-9.3,1.5-20.2-0.4-32.3-5.7c-10.2-4.5-21.1-11.2-32.2-20.1c-13.3-10.6-34.3-31-39-41.9l-1.4,0.6
		c3.6,8.3,20.3,27.3,39.4,42.5c11.3,8.9,22.2,15.7,32.6,20.3c12.3,5.4,23.5,7.3,33.1,5.8C172.9,256.1,173.2,256.1,173.5,256z"/>
	<path d="M50.8,135.3l-11.4-12.2c-0.5-0.6-1.5-0.7-2.1-0.2l-4,3.2c-0.7,0.6-0.8,1.5-0.2,2.2L46,142.7
		C45.9,142.6,54.8,141.4,50.8,135.3z"/>
	<path d="M32.8,117.3l6.8,8.4l-4.1,3.2l-6.7-7.8L32.8,117.3z"/>
	<path d="M28.3,120.4c1.7-0.3,3.2-1,4.4-2.1c2.6-2.3,3.5-6.1,2.7-10.7c-0.9-4.4-3.3-9.1-6.9-13c-3.6-4-8-6.9-12.4-8.1
		c-4.4-1.3-8.3-0.7-10.9,1.6c-2.6,2.4-3.5,6.1-2.7,10.7c0.9,4.4,3.3,9.1,6.9,13c3.6,4,8,6.9,12.4,8.1
		C24.2,120.6,26.4,120.7,28.3,120.4z M9.8,87.4c1.7-0.3,3.7-0.2,5.8,0.5c4.1,1.2,8.2,3.9,11.7,7.7c7,7.7,9,17.4,4.4,21.6
		c-2.2,2-5.5,2.5-9.5,1.3c-4.1-1.2-8.2-3.9-11.7-7.7c-7-7.7-9-17.4-4.4-21.6C7.2,88.2,8.4,87.6,9.8,87.4z"/>
	<path d="M27.9,118.6c1.4-0.3,2.6-0.8,3.6-1.7c2.2-2,3-5.4,2-9.4c-0.9-3.9-3.2-8.1-6.4-11.6c-3.3-3.6-7.2-6.3-11-7.5
		C12,87,8.6,87.4,6.4,89.4c-2.2,2-3,5.4-2,9.4c0.9,3.9,3.2,8.1,6.4,11.6c3.3,3.6,7.2,6.3,11,7.5C24.1,118.7,26.1,118.9,27.9,118.6z
		 M10.3,89.1c1.5-0.3,3.3-0.1,5.3,0.5c3.6,1.2,7.3,3.7,10.3,7.1c3.1,3.4,5.3,7.3,6.1,11c0.8,3.5,0.2,6.3-1.6,8
		c-3.8,3.5-12.1,0.7-18.4-6.3C5.6,102.5,3.6,94,7.4,90.5C8.2,89.8,9.2,89.3,10.3,89.1z"/>
	<path d="M30,117.7c0.5-0.8,0.8-1.8,1-3c0.2-1.5,0.1-3-0.4-4.6c-3-10.7-9.4-15.6-14.3-17.9c-5.3-2.5-9.8-2.4-10-2.4l0,1.5
		c0,0,4.4-0.1,9.4,2.3c6.6,3.1,11.2,8.8,13.4,16.9c0.4,1.4,0.5,2.7,0.3,4c-0.1,1-0.4,1.8-0.8,2.4L30,117.7z"/>
	<path d="M26.2,122c3.4-0.6,6.1-2.4,7.8-5.2l-1.3-0.8c-4,6.6-12.9,4.4-13.2,4.3C12,118,3.1,109.4,1.7,99.7c-0.6-3.9,0.3-7.2,2.6-9.5
		c1.7-1.7,3.6-2.3,3.6-2.3l-0.5-1.5c-0.1,0-8.8,2.8-7.2,13.4c0.7,4.8,3.2,9.7,7,13.9c3.5,3.8,7.8,6.7,11.8,7.9l0,0
		c0.1,0,2.6,0.7,5.6,0.4C25.2,122.1,25.7,122.1,26.2,122z"/>
	<path d="M60.5,183.7c8.9-3.7,14.3-9.7,17.3-14.1c3.2-4.7,4.4-8.6,4.4-8.8l-1.4-0.4c0,0.2-4.6,15.1-20.9,21.9L60.5,183.7z"/>
</g>
</svg>
