<?xml version="1.0" encoding="utf-8"?>
<!-- Generator: Adobe Illustrator 25.0.0, SVG Export Plug-In . SVG Version: 6.00 Build 0)  -->
<svg version="1.1" id="Layer_1" xmlns="http://www.w3.org/2000/svg" xmlns:xlink="http://www.w3.org/1999/xlink" x="0px" y="0px"
	 viewBox="0 0 170.14 170.08" style="enable-background:new 0 0 170.14 170.08;" xml:space="preserve">
<style type="text/css">
	.st0{fill:#00B0FB;}
	.st1{fill:#00B0FB;fill-opacity:0.4;}
	.st2{fill:#FFFFFF;}
	.st3{fill:#185AE9;}
	.st4{fill-rule:evenodd;clip-rule:evenodd;fill:#00B0FB;}
	.st5{fill:none;}
	.st6{fill:#3C7CFF;}
	.st7{fill:#001135;}
	.st8{fill:#8DB849;}
	.st9{fill:#5A863E;}
	.st10{fill:#FFFFFE;}
	.st11{fill:#009CDE;}
	.st12{fill:#FCB415;}
	.st13{opacity:0.2;fill:#FFFFFF;enable-background:new    ;}
	.st14{fill:#68B345;}
	.st15{fill:#0A99D6;}
	.st16{opacity:0.1;fill:#010101;enable-background:new    ;}
	.st17{fill:#EE3325;}
	.st18{fill:url(#SVGID_2_);}
	.st19{fill:#B3B3B3;}
	.st20{fill:#A6120D;}
	.st21{fill:#DD1B16;}
	.st22{fill:#F2F2F2;}
	.st23{fill:#FF2D20;}
	.st24{clip-path:url(#SVGID_3_);fill:#F9C638;}
	.st25{fill:#2A2D2C;}
	.st26{fill:#F9C638;}
	.st27{fill:#FDFDFD;}
	.st28{fill:#DBDBDB;}
	.st29{fill:#FBFBFB;}
	.st30{fill:#121212;}
	.st31{fill:#FCFCFC;}
	.st32{fill:#D2D3D3;}
	.st33{fill:#F6F6F6;}
	.st34{fill:#BABBBB;}
	.st35{fill:#8A8A8A;}
	.st36{fill:#8E8F8F;}
	.st37{fill:#5F5E5E;}
	.st38{fill:#00769D;}
	.st39{clip-path:url(#SVGID_4_);fill:#F9C638;}
	.st40{fill:#92003B;}
</style>
<g>
	<path class="st0" d="M13.1,89.43h6.11v-2.54c-0.51,0.13-1.04,0.2-1.57,0.21c-2.11,0-4.07-1.08-5.11-2.8l-5.61-9.24
		c-0.74-1.21-0.95-2.68-0.58-4.03c0.37-1.44,1.34-2.66,2.74-3.43c3.14-1.74,5.02-4.86,5.02-8.33c0-3.51-1.88-6.62-5.03-8.34
		c-1.36-0.77-2.33-1.98-2.73-3.41c-0.37-1.36-0.16-2.83,0.58-4.04l5.61-9.24c1.04-1.73,3-2.8,5.11-2.8c0.69,0,1.38,0.13,2.03,0.35
		v-1.24h-3.06v-1.4h-4.76c-1.15,0.78-2.14,1.78-2.87,2.97l-5.61,9.25c-1.34,2.18-1.71,4.76-1.05,7.24c0.69,2.54,2.36,4.65,4.7,5.94
		c1.82,1,2.91,2.77,2.91,4.75c0,1.97-1.06,3.7-2.91,4.74c-2.37,1.31-4.04,3.42-4.7,5.94c-0.66,2.47-0.28,5.04,1.05,7.24l5.61,9.25
		c0.98,1.6,2.43,2.85,4.12,3.67V89.43z"/>
	<path class="st0" d="M160.87,87.11H82.99c-0.25,0-0.48,0.11-0.63,0.31c-1.87,2.38-4.86,3.79-7.98,3.79c-1.72,0-3.42-0.43-4.92-1.25
		c-0.92-0.5-1.95-0.77-2.98-0.77c-1.09,0-2.18,0.3-3.14,0.86c-1.75,1.04-2.75,2.73-2.75,4.65c0,3.2-1.65,6.18-4.42,7.98
		c-0.2,0.13-0.34,0.35-0.36,0.59s0.06,0.48,0.22,0.65l27.6,28.27c0.42,0.4,0.66,0.96,0.66,1.52v30.37c0,0.26,0.12,0.5,0.34,0.66
		c0.14,0.1,0.3,0.15,0.47,0.15c0.09,0,0.17-0.01,0.26-0.04l28.62-9.53c0.33-0.11,0.55-0.42,0.55-0.77v-20.84
		c0-0.58,0.23-1.11,0.64-1.5l46.28-43.7c0.24-0.23,0.32-0.58,0.2-0.89C161.5,87.31,161.2,87.11,160.87,87.11z"/>
	<path class="st1" d="M45.02,44.18c-8.34,0-15.12,6.78-15.12,15.12c0,8.34,6.78,15.12,15.12,15.12c8.34,0,15.12-6.78,15.12-15.12
		C60.13,50.96,53.35,44.18,45.02,44.18z"/>
	<circle class="st1" cx="99.4" cy="13.5" r="6.53"/>
	<path class="st1" d="M111.24,60.1h22.09c0.25,0,0.49-0.12,0.64-0.31c0.15-0.2,0.21-0.46,0.14-0.7c-1.42-5.41-6.28-9.19-11.83-9.19
		c-5.55,0-10.41,3.78-11.83,9.19c-0.06,0.24-0.01,0.5,0.14,0.7C110.76,59.99,110.99,60.1,111.24,60.1z"/>
	<path class="st1" d="M150.91,4.11c-8.34,0-15.12,6.78-15.12,15.12c0,8.34,6.78,15.12,15.12,15.12s15.12-6.78,15.12-15.12
		C166.03,10.89,159.25,4.11,150.91,4.11z"/>
	<path class="st2" d="M150.91,0c-10.6,0-19.22,8.63-19.22,19.23s8.62,19.22,19.22,19.22c10.6,0,19.23-8.62,19.23-19.22
		S161.51,0,150.91,0z M150.91,34.35c-8.33,0-15.11-6.79-15.11-15.12c0-8.34,6.78-15.12,15.11-15.12c8.34,0,15.12,6.78,15.12,15.12
		C166.03,27.56,159.25,34.35,150.91,34.35z"/>
	<path class="st2" d="M99.4,2.86c-5.87,0-10.64,4.78-10.64,10.64c0,5.87,4.77,10.64,10.64,10.64c5.86,0,10.64-4.77,10.64-10.64
		C110.04,7.64,105.26,2.86,99.4,2.86z M99.4,20.03c-3.61,0-6.54-2.92-6.54-6.53c0-3.6,2.93-6.53,6.54-6.53
		c3.6,0,6.53,2.93,6.53,6.53C105.93,17.11,103,20.03,99.4,20.03z"/>
	<path class="st2" d="M168.09,60.1h-28.88c-0.4,0-0.73-0.28-0.8-0.67c-1.34-7.9-8.12-13.64-16.12-13.64s-14.77,5.74-16.12,13.64
		c-0.06,0.39-0.4,0.67-0.79,0.67h-22.5c-0.44,0-0.81-0.36-0.81-0.8c0-1.98,1.06-3.7,2.91-4.75c2.38-1.31,4.05-3.41,4.71-5.94
		c0.65-2.47,0.28-5.04-1.06-7.24l-5.61-9.24c-1.78-2.93-5.1-4.75-8.66-4.75c-1.72,0-3.42,0.43-4.92,1.26
		c-0.92,0.5-1.95,0.76-2.97,0.76c-1.09,0-2.18-0.3-3.15-0.86c-1.74-1.04-2.74-2.73-2.74-4.65c0-5.3-4.48-9.61-9.98-9.61H39.41
		c-5.51,0-9.98,4.31-9.98,9.61c0,1.92-1,3.61-2.75,4.65c-0.96,0.56-2.05,0.86-3.14,0.86c-1.03,0-2.06-0.26-2.98-0.76
		c-1.5-0.83-3.21-1.26-4.93-1.26c-3.55,0-6.87,1.82-8.65,4.74l-5.61,9.25c-1.34,2.18-1.71,4.76-1.05,7.24
		c0.69,2.54,2.36,4.65,4.7,5.94c1.82,1,2.91,2.77,2.91,4.75c0,1.97-1.06,3.7-2.91,4.74c-2.37,1.31-4.04,3.42-4.7,5.94
		c-0.66,2.47-0.28,5.04,1.05,7.24l5.61,9.25c1.79,2.93,5.11,4.75,8.66,4.75c1.73,0,3.43-0.43,4.92-1.27
		c0.92-0.5,1.95-0.76,2.98-0.76c1.09,0,2.18,0.3,3.14,0.87c1.75,1.03,2.75,2.73,2.75,4.64c0,5.3,4.47,9.61,9.98,9.61h10.94
		c0.22,0,0.42,0.09,0.58,0.24l29.04,29.8c0.15,0.15,0.23,0.35,0.23,0.56v33.11c0,0.67,0.31,1.28,0.86,1.66
		c0.35,0.25,0.79,0.4,1.19,0.4c0.2,0,0.41-0.03,0.66-0.1l34.34-11.45c0.84-0.28,1.4-1.07,1.4-1.95v-21.67
		c0-0.22,0.09-0.43,0.26-0.59l50.51-47.68c0.02-0.04,0.06-0.09,0.1-0.12c0.06-0.07,0.16-0.19,0.27-0.42
		c0.08-0.15,0.16-0.24,0.19-0.3c0.01-0.06,0.02-0.13,0.04-0.23l0.05-0.19c0.03-0.11,0.07-0.24,0.07-0.3V62.16
		C170.14,61.03,169.22,60.1,168.09,60.1z M110.46,59.09c1.42-5.41,6.28-9.19,11.83-9.19c5.55,0,10.42,3.78,11.83,9.19
		c0.07,0.24,0.01,0.5-0.14,0.7c-0.15,0.2-0.39,0.31-0.64,0.31h-22.09c-0.26,0-0.49-0.11-0.64-0.31
		C110.45,59.59,110.4,59.33,110.46,59.09z M50.63,100.2H39.44c-3.24,0-5.88-2.47-5.88-5.5c0-3.36-1.78-6.41-4.75-8.18
		c-1.62-0.95-3.43-1.46-5.23-1.46c-1.71,0-3.43,0.44-4.96,1.28c-0.91,0.49-1.94,0.75-2.98,0.76c-2.11,0-4.07-1.08-5.11-2.8
		l-5.61-9.24c-0.74-1.21-0.95-2.68-0.58-4.03c0.37-1.44,1.34-2.66,2.74-3.43c3.14-1.74,5.02-4.86,5.02-8.33
		c0-3.51-1.88-6.62-5.03-8.34c-1.36-0.77-2.33-1.98-2.73-3.41c-0.37-1.36-0.16-2.83,0.58-4.04l5.61-9.24c1.04-1.73,3-2.8,5.11-2.8
		c1.04,0,2.07,0.26,2.98,0.76c1.52,0.84,3.23,1.29,4.94,1.29c1.83,0,3.64-0.5,5.25-1.45c2.97-1.76,4.75-4.82,4.75-8.18
		c0-3.03,2.64-5.5,5.88-5.5h11.19c3.24,0,5.87,2.47,5.87,5.5c0,3.36,1.78,6.42,4.75,8.18c1.61,0.95,3.43,1.45,5.25,1.45
		c1.72,0,3.43-0.45,4.95-1.29c0.91-0.5,1.94-0.76,2.98-0.76c2.11,0,4.06,1.07,5.11,2.79l5.61,9.25c0.73,1.21,0.95,2.68,0.58,4.02
		c-0.37,1.45-1.35,2.67-2.74,3.43c-3.15,1.74-5.02,4.86-5.02,8.34c0,3.5,1.87,6.62,5.02,8.34c1.36,0.76,2.33,1.97,2.73,3.41
		c0.36,1.31,0.18,2.73-0.5,3.92c-0.02,0.05-0.05,0.1-0.07,0.14l-5.61,9.25c-1.05,1.72-3,2.79-5.11,2.79c-1.04,0-2.07-0.26-2.99-0.76
		c-1.51-0.84-3.22-1.28-4.95-1.28c-1.84,0-3.65,0.5-5.23,1.44c-2.98,1.77-4.76,4.82-4.76,8.18C56.5,97.73,53.87,100.2,50.63,100.2z
		 M161.43,88.5l-46.28,43.71c-0.41,0.39-0.64,0.92-0.64,1.5v20.83c0,0.35-0.22,0.66-0.55,0.77l-28.62,9.53
		c-0.08,0.03-0.17,0.04-0.25,0.04c-0.17,0-0.34-0.05-0.48-0.15c-0.21-0.15-0.33-0.39-0.33-0.65v-30.37c0-0.56-0.24-1.13-0.66-1.53
		l-27.6-28.26c-0.17-0.17-0.25-0.41-0.22-0.66c0.02-0.24,0.16-0.45,0.36-0.58c2.77-1.8,4.42-4.78,4.42-7.98c0-1.91,1-3.61,2.75-4.65
		c0.96-0.56,2.05-0.86,3.14-0.86c1.02,0,2.05,0.26,2.98,0.77c1.5,0.82,3.2,1.25,4.92,1.25c3.12,0,6.11-1.42,7.98-3.79
		c0.15-0.2,0.39-0.31,0.64-0.31h77.88c0.33,0,0.63,0.2,0.75,0.51C161.75,87.93,161.67,88.28,161.43,88.5z M166.03,82.19
		c0,0.45-0.36,0.81-0.81,0.81H86.56c-0.29,0-0.56-0.16-0.7-0.41c-0.15-0.26-0.14-0.57,0.01-0.82l2.76-4.55
		c1.34-2.18,1.72-4.75,1.06-7.24c-0.45-1.65-1.35-3.17-2.6-4.38c-0.23-0.23-0.31-0.58-0.18-0.88c0.12-0.31,0.41-0.51,0.74-0.51
		h77.57c0.45,0,0.81,0.36,0.81,0.81V82.19z"/>
	<path class="st2" d="M45.02,40.07c-10.6,0-19.23,8.62-19.23,19.23c0,10.6,8.63,19.22,19.23,19.22S64.24,69.9,64.24,59.3
		C64.24,48.69,55.62,40.07,45.02,40.07z M45.02,74.41c-8.34,0-15.12-6.78-15.12-15.11c0-8.34,6.78-15.12,15.12-15.12
		c8.33,0,15.12,6.78,15.12,15.12C60.14,67.63,53.35,74.41,45.02,74.41z"/>
</g>
</svg>
