<?xml version="1.0" encoding="utf-8"?>
<!-- Generator: Adobe Illustrator 25.0.0, SVG Export Plug-In . SVG Version: 6.00 Build 0)  -->
<svg version="1.1" id="Layer_1" xmlns="http://www.w3.org/2000/svg" xmlns:xlink="http://www.w3.org/1999/xlink" x="0px" y="0px"
	 viewBox="0 0 224.01 169.6" style="enable-background:new 0 0 224.01 169.6;" xml:space="preserve">
<style type="text/css">
	.st0{fill:#00B0FB;}
	.st1{fill:#00B0FB;fill-opacity:0.4;}
	.st2{fill:#FFFFFF;}
	.st3{fill:#185AE9;}
	.st4{fill-rule:evenodd;clip-rule:evenodd;fill:#00B0FB;}
	.st5{fill:none;}
	.st6{fill:#3C7CFF;}
	.st7{fill:#001135;}
	.st8{fill:#8DB849;}
	.st9{fill:#5A863E;}
	.st10{fill:#FFFFFE;}
	.st11{fill:#009CDE;}
	.st12{fill:#FCB415;}
	.st13{opacity:0.2;fill:#FFFFFF;enable-background:new    ;}
	.st14{fill:#68B345;}
	.st15{fill:#0A99D6;}
	.st16{opacity:0.1;fill:#010101;enable-background:new    ;}
	.st17{fill:#EE3325;}
	.st18{fill:url(#SVGID_2_);}
	.st19{fill:#B3B3B3;}
	.st20{fill:#A6120D;}
	.st21{fill:#DD1B16;}
	.st22{fill:#F2F2F2;}
	.st23{fill:#FF2D20;}
	.st24{clip-path:url(#SVGID_3_);fill:#F9C638;}
	.st25{fill:#2A2D2C;}
	.st26{fill:#F9C638;}
	.st27{fill:#FDFDFD;}
	.st28{fill:#DBDBDB;}
	.st29{fill:#FBFBFB;}
	.st30{fill:#121212;}
	.st31{fill:#FCFCFC;}
	.st32{fill:#D2D3D3;}
	.st33{fill:#F6F6F6;}
	.st34{fill:#BABBBB;}
	.st35{fill:#8A8A8A;}
	.st36{fill:#8E8F8F;}
	.st37{fill:#5F5E5E;}
	.st38{fill:#00769D;}
	.st39{clip-path:url(#SVGID_4_);fill:#F9C638;}
	.st40{fill:#92003B;}
</style>
<g>
	<path class="st0" d="M184.83,32.26c0-0.4,0-0.81,0.04-0.88c0.09-0.06,0.51-0.06,0.92-0.06l2.4,0v-1.86h-7.38v114.32h-1.13v2.11
		h6.75v-2.11h-1.6V32.26z"/>
	<path class="st0" d="M162.49,87.53c-0.47-1.89-1.78-3.2-3-4.23c-2.23-1.88-4.93-3.53-8.51-5.21c-7.77-3.64-15.91-5.86-22.85-7.57
		c-9.52-2.33-19.15-3.8-28.13-5.04c-5.58-0.77-11.57-1.53-18.84-2.4c-1.53-0.18-2.48-0.84-3.27-2.26
		c-1.94-3.52-3.98-7.06-5.96-10.49c-1.05-1.82-2.1-3.64-3.14-5.46c-0.31-0.56-0.69-0.78-1.32-0.78c-0.35,0-0.66,0.01-0.96,0.01
		c-0.72,0-1.44-0.01-2.16-0.03l-1.46-0.02c-0.45,0-0.72,0.03-0.8,0.14c-0.1,0.13,0.01,0.5,0.21,1.13l1.1,3.42
		c1.05,3.28,2.14,6.67,3.25,9.98c0.37,1.08,0.19,1.83-0.62,2.58c-0.58,0.53-1.13,1.1-1.68,1.66c-0.52,0.53-1.04,1.06-1.58,1.57
		c-0.3,0.29-0.43,0.49-0.42,0.66c0.02,0.18,0.19,0.36,0.56,0.59c2.87,1.79,6.01,3.43,10.21,5.32c5.89,2.64,12.34,5,20.94,7.63
		c0.66,0.21,1.43,0.41,2.12,0.41c1.08,0,1.83-0.49,2.46-1.59c0.05-0.09,0.13-0.16,0.21-0.22c0.33-0.3,0.73-0.6,1.17-0.6
		c0.28,0,0.54,0.12,0.79,0.36c0.73,0.69,0.29,1.43-0.1,1.94c-0.11,0.14-0.23,0.28-0.35,0.41l-3.03,3.28
		c-1.94,2.09-3.87,4.19-5.81,6.29l-4.27,4.66c-2.45,2.67-4.89,5.34-7.35,8c-0.24,0.26-0.34,0.45-0.31,0.59
		c0.03,0.13,0.19,0.26,0.52,0.39l0.59,0.23c0.69,0.28,1.41,0.56,2.06,0.92c0.34,0.2,0.65,0.29,0.95,0.29c0.39,0,0.78-0.16,1.26-0.52
		c7.06-5.26,14.14-10.51,21.21-15.76l7.68-5.7c0.64-0.47,1.28-0.95,1.92-1.43c0.84-0.63,1.68-1.27,2.53-1.89
		c0.31-0.23,0.62-0.35,0.92-0.35c0.35,0,0.66,0.17,0.92,0.5c0.47,0.6,0.37,1.27-0.27,1.83c-0.24,0.21-0.5,0.39-0.76,0.58
		c-0.15,0.1-0.3,0.21-0.44,0.32c-0.29,0.22-0.58,0.42-0.87,0.63c-0.72,0.53-1.47,1.07-2.13,1.72c0.22,0.21,0.46,0.26,0.72,0.32
		l0.18,0.05c10.11,2.77,20.02,5.38,30.07,6.74c2.44,0.33,5.04,0.65,7.62,0.65c1.6,0,3.06-0.12,4.45-0.37
		c0.78-0.14,1.68-0.34,2.49-0.83C162.42,89.86,162.83,88.89,162.49,87.53z M85.45,71.41c-0.04,0.74-0.43,1.18-1.08,1.2h-0.06
		c-0.61,0-1-0.42-1.07-1.15c-0.05-0.5-0.09-0.96,0.01-1.39c0.22-0.92-0.09-1.46-1.04-1.81c-0.41-0.15-0.84-0.36-1.32-0.65
		c-0.59-0.34-0.78-0.87-0.52-1.44c0.19-0.43,0.55-0.68,0.97-0.68c0.12,0,0.24,0.02,0.37,0.06c1.37,0.5,2.43,1.02,3.32,1.64
		c0.52,0.36,0.52,0.9,0.53,1.47c0,0.17,0,0.35,0.01,0.52L85.45,71.41z M92.71,70.17c0,0.18-0.01,0.36,0,0.54l-0.04,0.66
		c-0.02,0.49-0.05,0.99-0.1,1.48c-0.07,0.66-0.48,1.05-1.08,1.05h-0.05c-0.62-0.02-1.04-0.45-1.08-1.1c-0.04-0.64,0-1.26,0.06-1.95
		c0.05-0.66-0.21-1.08-0.84-1.33c-0.42-0.17-0.93-0.39-1.42-0.65c-0.66-0.35-0.88-0.9-0.62-1.49c0.2-0.44,0.54-0.68,0.97-0.68
		c0.18,0,0.37,0.04,0.56,0.12c0.91,0.42,1.97,0.91,2.95,1.5C92.76,68.77,92.73,69.48,92.71,70.17z M99.84,72.39
		c-0.02,0.45-0.05,0.95-0.08,1.45c-0.05,0.73-0.46,1.14-1.12,1.14h-0.03c-0.61-0.01-1.01-0.44-1.06-1.13c-0.04-0.6,0-1.19,0.06-1.85
		c0.04-0.63-0.2-1.02-0.78-1.26c-0.43-0.18-0.98-0.42-1.5-0.72c-0.67-0.39-0.88-0.92-0.59-1.5c0.22-0.42,0.58-0.67,1.01-0.67
		c0.18,0,0.36,0.04,0.53,0.12c1,0.45,1.99,0.96,2.95,1.52c0.66,0.38,0.64,1.01,0.62,1.62c-0.01,0.24-0.02,0.48,0.01,0.72
		L99.84,72.39z"/>
	<path class="st0" d="M95.05,62.36c0.66,0.05,1.33,0.14,1.99,0.24c0.29,0.04,0.58,0.08,0.87,0.12l6,0.77c0-0.01,0-0.03,0-0.04
		l-3.37-6.04c-1.95-3.43-3.89-6.87-5.83-10.3c-0.17-0.3-0.36-0.43-0.61-0.43c-0.14,0-0.31,0.04-0.52,0.13l-0.91,0.38
		c-1.04,0.43-2.08,0.87-3.14,1.27c-0.32,0.12-0.5,0.26-0.57,0.43c-0.08,0.18-0.05,0.41,0.09,0.74c1.63,3.94,3.24,7.9,4.83,11.86
		C94.11,62.06,94.45,62.31,95.05,62.36z"/>
	<path class="st1" d="M171.21,4.25H53.75c-4.42,0-6.78,2.32-6.8,6.71c-0.01,2.08-0.01,4.15-0.01,6.22l0.01,3.07
		c0,0.37,0,0.75,0.04,0.83c0.08,0.04,0.48,0.04,0.87,0.04h130.27c0.19,0,0.48,0,0.67-0.01c0.01-0.2,0.01-0.49,0.01-0.66
		c0-2.88,0.01-5.76,0-8.64C178.79,7,176.02,4.25,171.21,4.25z M56.33,16.62c-2.08,0.05-3.97-1.8-3.95-3.87
		c0.02-2.18,1.73-3.89,3.88-3.91c2.19-0.01,3.91,1.67,3.96,3.84C60.25,14.79,58.49,16.58,56.33,16.62z M66.49,16.59
		c-2.13,0.01-3.92-1.78-3.91-3.9c0.01-2.11,1.79-3.83,3.95-3.83c2.2,0,3.92,1.71,3.91,3.86C70.42,14.86,68.65,16.59,66.49,16.59z
		 M76.8,16.62c-2.14,0.03-3.96-1.74-3.98-3.85c-0.01-2.13,1.74-3.89,3.88-3.91c2.19-0.01,3.96,1.69,3.99,3.81
		C80.72,14.78,78.92,16.59,76.8,16.62z M154.56,13.98C154.15,14,153.74,14,153.34,14c-0.62,0-1.23-0.01-1.84-0.01
		c-0.96,0-1.92,0.02-2.88,0c-0.65-0.01-1.25-0.22-1.27-1c-0.01-0.75,0.53-1.07,1.21-1.08c2.01-0.03,4.02-0.03,6.02-0.02
		c0.64,0.01,1.14,0.3,1.17,1.01C155.78,13.69,155.22,13.96,154.56,13.98z M171.37,17.22c-0.59,0.59-1.17,0.26-1.67-0.23
		c-0.71-0.7-1.42-1.4-2.1-2.12c-0.36-0.38-0.66-0.4-1.03-0.01c-0.69,0.72-1.4,1.41-2.1,2.11c-0.5,0.51-1.07,0.83-1.67,0.24
		c-0.64-0.64-0.25-1.23,0.27-1.74c0.66-0.65,1.3-1.32,2-1.93c0.54-0.46,0.46-0.78-0.01-1.22c-0.75-0.7-1.46-1.44-2.17-2.18
		c-0.36-0.38-0.46-0.85-0.22-1.33c0.16-0.35,0.49-0.49,0.87-0.49c0.42,0.02,0.71,0.25,0.99,0.53c0.65,0.66,1.32,1.31,1.95,1.99
		c0.42,0.46,0.77,0.44,1.19-0.01c0.64-0.67,1.31-1.32,1.99-1.95c0.5-0.46,1.12-0.8,1.69-0.21c0.59,0.6,0.21,1.18-0.28,1.67
		c-0.63,0.63-1.25,1.29-1.91,1.89c-0.48,0.44-0.53,0.79-0.03,1.26c0.71,0.65,1.37,1.35,2.04,2.04
		C171.66,16.04,171.95,16.64,171.37,17.22z"/>
	<path class="st1" d="M111.89,147.78L8.6,147.79l-2.74,0.01c-0.52,0-1.03,0-1.55-0.02c-0.06,0-0.11,0-0.15,0
		c0,0.03,0.01,0.07,0.01,0.12c0.28,1.92,0.7,3.44,1.34,4.78c4.05,8.48,10.94,12.79,20.46,12.81c22.52,0.05,46.5,0.07,77.77,0.07
		l76.05-0.01h5.4c2,0,4.63,0.01,7.29,0.11c1.22,0.04,2.43,0.08,3.65,0.08c2.33,0,4.23-0.13,5.99-0.42
		c8.93-1.45,16.01-8.23,17.62-16.89c0.03-0.17,0.08-0.42,0.11-0.63c-0.19,0-107.77,0-107.77,0
		C112.05,147.8,111.92,147.78,111.89,147.78z"/>
	<path class="st2" d="M223.46,144.5c-0.43-0.48-1.07-0.7-2.08-0.72c-0.69-0.01-1.38-0.02-2.08-0.02c-0.6,0-1.2,0.01-1.86,0.03
		c-0.09,0-0.16-0.01-0.2-0.02c0-0.03,0-0.08,0.01-0.15c0.02-0.22,0.01-0.45,0.01-0.67l-0.01-0.26c0,0,0.01-77.01,0-103.92
		c0-0.74,0-1.5-0.14-2.27c-1-5.47-5.44-9.16-11.05-9.18c-3.34-0.01-6.67-0.01-10.01-0.01c-4.21,0-8.43,0.01-12.67,0.03
		c-0.37,0-0.5-0.05-0.51-0.05c0,0,0,0,0,0.01c-0.01-0.02-0.07-0.13-0.06-0.53c0.05-5,0.03-9.88,0.01-15.28
		C182.8,4.72,178.02,0,171.21,0c-25.74,0.01-51.48,0.02-77.22,0.02H53.62c-2.34,0-4.17,0.44-5.75,1.39
		c-3.36,2.01-5.08,5.08-5.11,9.12c-0.02,3.59-0.02,7.19-0.01,10.78l0.01,5.13c0,0.37,0,0.75-0.04,0.82
		c-0.09,0.05-0.49,0.05-0.88,0.05H30.9c-2.62,0-5.24,0-7.87,0.02c-5.42,0.04-9.81,3.81-10.67,9.18c-0.3,1.91-0.25,3.84-0.21,5.71
		c0.02,0.7,0.04,1.39,0.04,2.09c-0.01,24.95-0.01,49.91-0.01,74.86L12.19,143c0,0.33,0,0.67-0.02,0.73
		c-0.08,0.04-0.44,0.04-0.79,0.04l-3.11,0.01c-1.81,0-3.62,0-5.43,0.01c-1.09,0-1.82,0.11-2.33,0.65c-0.5,0.54-0.56,1.3-0.49,2.35
		c0.24,3.58,1.2,6.8,2.87,9.59c5.18,8.67,12.94,13.1,23.06,13.15c11.23,0.05,23.29,0.07,37.95,0.07c8.06,0,16.11-0.01,24.17-0.01
		c8-0.01,16-0.02,23.99-0.02c0.06,0.02,0.13,0.03,0.19,0.03h85.45c1.45,0,2.67-0.04,3.93-0.19c12.21-1.49,21.4-10.83,22.35-22.7
		C224.07,145.67,223.91,144.99,223.46,144.5z M182.83,32.26c0-0.4,0-0.81,0.04-0.88c0.09-0.06,0.51-0.06,0.92-0.06l12.52-0.01
		c3.23,0,6.46,0.01,9.69,0.02c3.55,0.01,6.4,2.2,7.09,5.45c0.12,0.59,0.14,1.24,0.14,1.85c0.01,31.33,0.01,62.65,0.01,93.98v10.37
		c0,0.34,0,0.7-0.02,0.76c-0.08,0.04-0.43,0.04-0.77,0.04h-29.62V32.26z M46.95,10.96c0.02-4.39,2.38-6.71,6.8-6.71h117.46
		c4.81,0,7.58,2.75,7.6,7.56c0.01,2.88,0,5.76,0,8.64c0,0.17,0,0.46-0.01,0.66c-0.19,0.01-0.48,0.01-0.67,0.01H47.86
		c-0.39,0-0.79,0-0.87-0.04c-0.04-0.08-0.04-0.46-0.04-0.83l-0.01-3.07C46.94,15.11,46.94,13.04,46.95,10.96z M46.94,25.99
		c0-0.27,0-0.65,0.01-0.87c0.12-0.01,0.3-0.01,0.55-0.01l130.53,0.01c0.23,0,0.56,0,0.77,0.01c0.01,0.21,0.01,0.56,0.01,0.78v117.87
		H46.94V25.99z M16.2,38.53c0-4.29,2.89-7.19,7.18-7.21c2.67-0.01,5.34-0.01,8.01-0.01l10.46,0.01c0.39,0,0.78,0,0.85,0.03
		c0.05,0.09,0.05,0.49,0.05,0.87l0.02,111.56H16.88c-0.19,0-0.48,0-0.67-0.01c-0.01-0.19-0.01-0.48-0.01-0.68V38.53z M219.73,148.42
		c-1.6,8.66-8.68,15.45-17.62,16.9c-1.76,0.28-3.66,0.41-5.99,0.41c-1.21,0-2.43-0.03-3.65-0.07c-2.66-0.1-5.29-0.11-7.28-0.11
		h-5.41l-76.05,0.01c-31.27,0-55.25-0.02-77.77-0.06c-9.52-0.02-16.4-4.33-20.45-12.81c-0.64-1.34-1.07-2.86-1.35-4.79
		c0-0.04-0.01-0.08-0.01-0.11c0.04,0,0.09-0.01,0.15-0.01c0.52,0.02,1.03,0.02,1.55,0.02l2.74-0.01l103.29-0.01
		c0.03,0,0.16,0.02,0.19,0.02c0,0,107.58,0,107.77,0C219.81,148,219.76,148.26,219.73,148.42z"/>
	<path class="st2" d="M163.36,83.79c-2.04-2.34-4.46-4.31-7.2-5.88c-4.12-2.35-8.86-4.37-14.93-6.34
		c-9.5-3.08-19.99-5.44-32.98-7.43c-0.78-0.12-1.22-0.43-1.63-1.15c-2.03-3.61-4.07-7.21-6.12-10.8c-1.43-2.53-2.87-5.06-4.3-7.59
		c-0.37-0.64-0.78-0.94-1.32-0.94c-0.25,0-0.53,0.06-0.84,0.2c-1.49,0.63-2.98,1.24-4.48,1.85c-0.81,0.33-1.62,0.66-2.43,1
		c-1.42,0.59-1.61,1.05-1.01,2.5c0.56,1.37,1.12,2.74,1.68,4.12c1.04,2.54,2.09,5.09,3.15,7.63c0.16,0.37,0.2,0.6,0.14,0.71
		c-0.05,0.06-0.15,0.09-0.33,0.09c-0.11,0-0.25-0.01-0.41-0.04c-0.56-0.07-1.12-0.15-1.67-0.23c-1.95-0.28-3.97-0.58-5.96-0.7
		c-1.7-0.1-2.49-0.95-3.28-2.37c-1.84-3.32-3.77-6.66-5.63-9.9c-1.12-1.95-2.24-3.91-3.36-5.87c-0.42-0.74-0.95-1.05-1.79-1.06
		c-1.14-0.01-2.29-0.07-3.4-0.13l-1.4-0.07c-0.02,0-0.04,0.01-0.06,0.03h-3.15c-0.84,0-1.34,0.17-1.59,0.52
		c-0.25,0.35-0.25,0.88,0.01,1.68c0.75,2.26,1.49,4.53,2.23,6.79c0.88,2.71,1.76,5.42,2.65,8.12c0.2,0.61,0.12,1.03-0.29,1.44
		c-1.12,1.13-2.23,2.27-3.33,3.41l-0.55,0.57c-0.7,0.72-0.96,1.19-0.91,1.64c0.05,0.45,0.42,0.86,1.29,1.41
		c5.78,3.69,12.34,6.86,20.65,9.96c4.07,1.52,8.07,2.78,12.87,4.27c0.51,0.16,0.94,0.3,0.98,0.44s-0.25,0.45-0.58,0.82
		c-1.61,1.78-3.24,3.56-4.87,5.34l-5.33,5.81c-2.39,2.61-4.78,5.22-7.16,7.83c-0.58,0.63-0.81,1.13-0.72,1.56
		c0.1,0.43,0.52,0.8,1.33,1.15c0.53,0.23,1.06,0.45,1.6,0.68c1.22,0.51,2.48,1.04,3.68,1.63c0.48,0.23,0.92,0.35,1.33,0.35
		c0.58,0,1.15-0.23,1.8-0.71c3.06-2.29,6.13-4.56,9.2-6.84c5.08-3.76,10.33-7.65,15.45-11.55c1.16-0.88,2.21-1.28,3.4-1.28
		c0.58,0,1.22,0.1,1.95,0.3c11.68,3.22,22.25,5.99,33.36,7.19c2.15,0.24,3.8,0.34,5.36,0.34c1.81,0,3.44-0.15,4.99-0.45
		c1.64-0.32,2.86-0.84,3.84-1.63c1.12-0.9,1.77-2.1,1.89-3.45C165.32,87.11,164.64,85.25,163.36,83.79z M89.04,49.62
		c-0.13-0.33-0.16-0.57-0.09-0.74c0.08-0.17,0.26-0.31,0.57-0.43c1.06-0.4,2.1-0.84,3.14-1.27l0.91-0.38
		c0.22-0.09,0.38-0.13,0.52-0.13c0.26,0,0.45,0.14,0.62,0.44c1.94,3.43,3.88,6.86,5.83,10.3l3.37,6.04v0.04l-6-0.77
		c-0.29-0.04-0.58-0.08-0.88-0.12c-0.66-0.1-1.32-0.19-1.98-0.24c-0.61-0.05-0.95-0.3-1.18-0.88
		C92.28,57.52,90.68,53.56,89.04,49.62z M161.21,90.58c-0.81,0.49-1.71,0.69-2.49,0.83c-1.39,0.25-2.85,0.37-4.45,0.37
		c-2.58,0-5.18-0.32-7.62-0.65c-10.05-1.36-19.96-3.97-30.07-6.74l-0.18-0.05c-0.26-0.06-0.5-0.11-0.72-0.32
		c0.66-0.65,1.41-1.19,2.13-1.72c0.29-0.21,0.58-0.41,0.87-0.63c0.14-0.11,0.29-0.22,0.44-0.32c0.26-0.19,0.52-0.37,0.76-0.58
		c0.64-0.56,0.74-1.23,0.27-1.83c-0.26-0.33-0.57-0.5-0.92-0.5c-0.3,0-0.61,0.12-0.92,0.35c-0.85,0.62-1.69,1.26-2.53,1.89
		c-0.64,0.48-1.28,0.96-1.92,1.43l-7.68,5.7c-7.07,5.25-14.15,10.5-21.21,15.76c-0.48,0.36-0.87,0.52-1.26,0.52
		c-0.3,0-0.61-0.09-0.95-0.29c-0.65-0.36-1.37-0.64-2.06-0.92l-0.59-0.23c-0.33-0.13-0.49-0.26-0.52-0.39
		c-0.03-0.14,0.07-0.33,0.31-0.59c2.46-2.66,4.9-5.33,7.35-8l4.27-4.66c1.94-2.1,3.87-4.2,5.81-6.29l3.03-3.28
		c0.12-0.13,0.24-0.27,0.35-0.41c0.39-0.51,0.83-1.25,0.1-1.94c-0.25-0.24-0.51-0.36-0.79-0.36c-0.44,0-0.84,0.3-1.17,0.6
		c-0.08,0.06-0.16,0.13-0.21,0.22c-0.63,1.1-1.38,1.59-2.46,1.59c-0.69,0-1.46-0.2-2.12-0.41c-8.6-2.63-15.05-4.99-20.94-7.63
		c-4.2-1.89-7.34-3.53-10.21-5.32c-0.37-0.23-0.54-0.41-0.56-0.59c-0.01-0.17,0.12-0.37,0.42-0.66c0.54-0.51,1.06-1.04,1.58-1.57
		c0.55-0.56,1.1-1.13,1.68-1.66c0.81-0.75,0.99-1.5,0.62-2.58c-1.11-3.31-2.2-6.7-3.25-9.98l-1.1-3.42c-0.2-0.63-0.31-1-0.21-1.13
		c0.08-0.11,0.35-0.14,0.8-0.14l1.46,0.02c0.72,0.02,1.44,0.03,2.16,0.03c0.3,0,0.61-0.01,0.96-0.01c0.63,0,1.01,0.22,1.32,0.78
		c1.04,1.82,2.09,3.64,3.14,5.46c1.98,3.43,4.02,6.97,5.96,10.49c0.79,1.42,1.74,2.08,3.27,2.26c7.27,0.87,13.26,1.63,18.84,2.4
		c8.98,1.24,18.61,2.71,28.13,5.04c6.94,1.71,15.08,3.93,22.85,7.57c3.58,1.68,6.28,3.33,8.51,5.21c1.22,1.03,2.53,2.34,3,4.23
		C162.83,88.89,162.42,89.86,161.21,90.58z"/>
	<path class="st2" d="M144.7,126.68c-0.15,0.97-0.82,1.1-1.45,1.1c0,0-0.57-0.02-0.67-0.02c-6.57,0.01-13.13,0.01-19.69,0.01H109.8
		c-0.01,0-0.03,0-0.04-0.01H77.35c-0.49,0-1-0.01-1.51-0.07c-0.63-0.08-0.99-0.47-0.99-1.09c-0.01-0.6,0.35-0.99,1-1.1
		c0.34-0.06,0.69-0.06,1.07-0.06c21.89-0.01,43.77-0.01,65.66-0.01c1.01,0,1.64,0.17,1.95,0.53
		C144.69,126.15,144.75,126.4,144.7,126.68z"/>
	<path class="st2" d="M129.32,118.9c0,0.34-0.09,0.62-0.29,0.81c-0.25,0.26-0.65,0.38-1.23,0.38h-26.26c-3.09,0-6.18,0-9.27-0.01
		l-0.52,0.01c-0.46,0-0.92-0.04-1.22-0.34c-0.19-0.19-0.29-0.47-0.28-0.85c0-1.03,0.72-1.17,1.42-1.17l0.61,0.01h11.99
		c5.93,0,11.86,0,17.79,0.01c1.21,0.01,2.42,0.04,3.63,0.08c0.71,0.02,1.41,0.04,2.12,0.05C128.4,117.9,129.3,117.91,129.32,118.9z"
		/>
	<path class="st2" d="M165.08,13.54c-0.7,0.6-1.35,1.28-2.01,1.93c-0.52,0.51-0.91,1.1-0.26,1.74c0.59,0.59,1.17,0.27,1.67-0.24
		c0.7-0.7,1.41-1.39,2.1-2.11c0.37-0.39,0.67-0.38,1.04,0.01c0.68,0.72,1.39,1.42,2.1,2.11c0.5,0.49,1.09,0.82,1.67,0.23
		c0.57-0.58,0.29-1.18-0.2-1.69c-0.67-0.69-1.33-1.39-2.03-2.04c-0.51-0.47-0.45-0.82,0.03-1.26c0.66-0.61,1.28-1.26,1.91-1.89
		c0.49-0.49,0.87-1.07,0.28-1.67c-0.58-0.59-1.19-0.25-1.69,0.21c-0.68,0.63-1.35,1.28-1.99,1.95c-0.42,0.44-0.77,0.47-1.2,0.01
		c-0.63-0.68-1.3-1.33-1.95-1.99c-0.28-0.28-0.57-0.51-0.99-0.53c-0.38,0-0.7,0.14-0.87,0.49c-0.23,0.48-0.14,0.95,0.22,1.33
		c0.71,0.74,1.42,1.48,2.16,2.18C165.53,12.76,165.62,13.08,165.08,13.54z"/>
	<path class="st2" d="M76.7,8.86c-2.14,0.02-3.89,1.78-3.88,3.91c0.02,2.11,1.84,3.88,3.98,3.85c2.12-0.03,3.92-1.84,3.89-3.95
		C80.66,10.55,78.89,8.85,76.7,8.86z M76.69,14.6c-1.03,0-1.89-0.82-1.91-1.82c-0.02-1.01,0.99-1.98,2.02-1.96
		c1.01,0.02,1.86,0.87,1.88,1.86C78.69,13.81,77.87,14.6,76.69,14.6z"/>
	<path class="st2" d="M56.26,8.84c-2.15,0.02-3.86,1.73-3.88,3.91c-0.02,2.07,1.87,3.92,3.95,3.87c2.16-0.04,3.92-1.83,3.89-3.94
		C60.17,10.51,58.45,8.83,56.26,8.84z M56.28,14.6c-1.09,0.01-1.88-0.73-1.9-1.79c-0.03-1.05,0.83-1.96,1.87-1.99
		c1.05-0.03,1.99,0.82,2.03,1.83C58.31,13.72,57.42,14.59,56.28,14.6z"/>
	<path class="st2" d="M66.53,8.86c-2.16,0-3.94,1.72-3.95,3.83c-0.01,2.12,1.78,3.91,3.91,3.9c2.16,0,3.93-1.73,3.95-3.87
		C70.45,10.57,68.73,8.86,66.53,8.86z M66.47,14.61c-1.13-0.02-1.88-0.81-1.86-1.94c0.03-1.07,0.81-1.86,1.86-1.86
		c1.17,0,1.99,0.82,1.96,1.95C68.39,13.86,67.58,14.62,66.47,14.61z"/>
	<path class="st2" d="M148.63,13.99c0.96,0.02,1.91,0.01,2.87,0.01c0,0,0,0,0-0.01c1.02,0,2.04,0.03,3.06-0.01
		c0.66-0.02,1.22-0.29,1.19-1.07c-0.03-0.71-0.53-1.01-1.16-1.01c-2.01-0.02-4.02-0.01-6.03,0.02c-0.68,0.01-1.22,0.33-1.2,1.08
		C147.37,13.77,147.97,13.98,148.63,13.99z"/>
	<path class="st2" d="M85.04,67.19c-0.89-0.62-1.95-1.14-3.33-1.63c-0.12-0.04-0.25-0.07-0.37-0.07c-0.42,0-0.78,0.25-0.97,0.68
		c-0.26,0.58-0.07,1.1,0.52,1.45c0.48,0.28,0.92,0.49,1.33,0.64c0.95,0.35,1.26,0.89,1.04,1.81c-0.1,0.43-0.06,0.89-0.01,1.39
		c0.07,0.73,0.46,1.15,1.07,1.15c0,0,0.06,0,0.06,0c0.65-0.03,1.04-0.47,1.08-1.21l0.12-2.22c-0.01-0.18-0.02-0.35-0.02-0.52
		C85.56,68.09,85.55,67.55,85.04,67.19z"/>
	<path class="st2" d="M92.02,68.32c-0.97-0.59-2.04-1.08-2.95-1.5c-0.19-0.08-0.37-0.13-0.55-0.13c-0.43,0-0.77,0.24-0.97,0.68
		c-0.27,0.6-0.04,1.14,0.62,1.5c0.49,0.26,1,0.48,1.42,0.65c0.62,0.25,0.89,0.67,0.84,1.33c-0.06,0.69-0.1,1.31-0.06,1.95
		c0.04,0.65,0.47,1.08,1.09,1.11c0,0,0.05,0,0.05,0c0.6,0,1-0.39,1.08-1.05c0.05-0.49,0.08-0.99,0.11-1.48l0.04-0.66
		c-0.01-0.18,0-0.36,0-0.54C92.74,69.48,92.76,68.77,92.02,68.32z"/>
	<path class="st2" d="M99.23,69.49c-0.95-0.56-1.94-1.06-2.94-1.51c-0.18-0.08-0.36-0.12-0.54-0.12c-0.43,0-0.79,0.24-1,0.66
		c-0.29,0.58-0.09,1.12,0.58,1.5c0.53,0.3,1.08,0.54,1.5,0.72c0.59,0.25,0.83,0.64,0.78,1.26c-0.05,0.66-0.09,1.25-0.05,1.85
		c0.04,0.68,0.45,1.12,1.06,1.13c0,0,0.03,0,0.03,0c0.66,0,1.06-0.41,1.11-1.14c0.04-0.5,0.06-1,0.08-1.46l0.03-0.56
		c-0.03-0.24-0.02-0.48-0.01-0.72C99.87,70.5,99.89,69.87,99.23,69.49z"/>
</g>
</svg>
