<?xml version="1.0" encoding="utf-8"?>
<!-- Generator: Adobe Illustrator 25.0.0, SVG Export Plug-In . SVG Version: 6.00 Build 0)  -->
<svg version="1.1" id="Layer_1" xmlns="http://www.w3.org/2000/svg" xmlns:xlink="http://www.w3.org/1999/xlink" x="0px" y="0px"
	 viewBox="0 0 149.7 170" style="enable-background:new 0 0 149.7 170;" xml:space="preserve">
<style type="text/css">
	.st0{fill:#00B0FB;}
	.st1{fill:#00B0FB;fill-opacity:0.4;}
	.st2{fill:#FFFFFF;}
	.st3{fill:#185AE9;}
	.st4{fill-rule:evenodd;clip-rule:evenodd;fill:#00B0FB;}
	.st5{fill:none;}
	.st6{fill:#3C7CFF;}
	.st7{fill:#001135;}
	.st8{fill:#8DB849;}
	.st9{fill:#5A863E;}
	.st10{fill:#FFFFFE;}
	.st11{fill:#009CDE;}
	.st12{fill:#FCB415;}
	.st13{opacity:0.2;fill:#FFFFFF;enable-background:new    ;}
	.st14{fill:#68B345;}
	.st15{fill:#0A99D6;}
	.st16{opacity:0.1;fill:#010101;enable-background:new    ;}
	.st17{fill:#EE3325;}
	.st18{fill:url(#SVGID_2_);}
	.st19{fill:#B3B3B3;}
	.st20{fill:#A6120D;}
	.st21{fill:#DD1B16;}
	.st22{fill:#F2F2F2;}
	.st23{fill:#FF2D20;}
	.st24{clip-path:url(#SVGID_3_);fill:#F9C638;}
	.st25{fill:#2A2D2C;}
	.st26{fill:#F9C638;}
	.st27{fill:#FDFDFD;}
	.st28{fill:#DBDBDB;}
	.st29{fill:#FBFBFB;}
	.st30{fill:#121212;}
	.st31{fill:#FCFCFC;}
	.st32{fill:#D2D3D3;}
	.st33{fill:#F6F6F6;}
	.st34{fill:#BABBBB;}
	.st35{fill:#8A8A8A;}
	.st36{fill:#8E8F8F;}
	.st37{fill:#5F5E5E;}
	.st38{fill:#00769D;}
	.st39{clip-path:url(#SVGID_4_);fill:#F9C638;}
	.st40{fill:#92003B;}
</style>
<g>
	<path class="st0" d="M108.1,160.06c0.03,0.27,0.06,0.55,0.06,0.85c0.03,3.62,0.16,3.48-3.42,3.48c-9.99-0.02-19.98-0.01-29.96-0.01
		H43.74c-1.85,0-2.12-0.27-2.12-2.09c0-0.44-0.01-0.89,0-1.33h-1.48V168h70.15v-7.94H108.1z"/>
	<path class="st0" d="M78.06,77.73c-3.19,0.62-5.04,1.68-4.94,2.85c0.11,1.33,2.88,2.81,7.81,2.93c4.91-0.12,7.68-1.6,7.79-2.93
		c0.1-1.14-1.7-2.2-4.82-2.83c-1.25,1.84-2.05,2.77-2.91,2.77C80.13,80.52,79.36,79.62,78.06,77.73z"/>
	<path class="st0" d="M80.11,101.61c7.9,0,15.83-3.3,21.19-8.83c4.86-5.01,7.32-11.37,7.11-18.39c-0.01-8.89-4.33-17.24-11.58-22.36
		c-0.33,2.16-0.9,4.29-1.69,6.32c6.98,6.33,9.16,14.71,5.98,23.01c-3.31,8.63-11.66,14.65-20.32,14.65c-4.84,0-9.63-1.87-13.84-5.39
		c-4.67-3.99-7.36-9.88-7.36-16.16c0-6.24,2.64-12.11,7.25-16.11c-0.79-2.04-1.36-4.16-1.68-6.32c-5.88,4.16-9.82,10.34-11.12,17.43
		c-1.32,7.2,0.24,14.48,4.4,20.51C63.21,97.37,71.11,101.61,80.11,101.61z"/>
	<path class="st0" d="M79.97,92.81c7.69,0,15.19-4.56,18.23-11.1c2.93-6.31,1.41-13.57-4.28-20.45c-2.28,4.86-5.02,9.54-8.15,13.91
		c3.99,1.11,6.19,3.22,5.88,5.66c-0.35,2.73-4.01,5.63-10.11,5.63c-0.21,0-0.42,0-0.63-0.01c-0.2,0.01-0.41,0.01-0.61,0.01
		c-6.12,0-9.78-2.91-10.12-5.65c-0.3-2.47,1.94-4.58,6-5.67c-3.13-4.37-5.86-9.05-8.14-13.91c-3.52,3.44-5.54,8.23-5.55,13.16
		C63.75,85.92,70.28,92.81,79.97,92.81z"/>
	<path class="st0" d="M93,43.92c-0.48-1.22-1.23-2.34-2.22-3.33c-2.46-2.45-6.04-3.86-9.83-3.86c-0.79,0-1.59,0.06-2.36,0.19
		c-3.54,0.56-7.92,2.7-9.6,7c-4.04,10.29,7.52,27.47,12,32.83C85.47,71.37,97.02,54.17,93,43.92z M80.99,57.3
		c-3.81,0-7.97-2.37-8.1-7.56c0.12-5.21,4.28-7.58,8.09-7.58c3.82,0,7.98,2.37,8.11,7.57C88.96,54.93,84.8,57.3,80.99,57.3z"/>
	<path class="st0" d="M58.56,100.64l2.99-2.97c-1.38-1.16-2.67-2.44-3.83-3.83l-2.99,2.99C55.89,98.21,57.18,99.5,58.56,100.64z"/>
	<path class="st0" d="M80.99,44.83c-2.47,0-5.15,1.53-5.18,4.9c0.03,3.36,2.7,4.9,5.17,4.9c2.47,0,5.15-1.53,5.18-4.9
		C86.13,46.37,83.46,44.83,80.99,44.83z"/>
	<path class="st1" d="M133.72,8.82c-0.12-2.61-1.74-4.23-4.32-4.76c-0.68-0.13-1.35-0.15-2.03-0.15H22.54c-0.5,0-1,0-1.5,0.05
		c-3.08,0.33-4.83,2.17-5.02,5.27c-0.03,0.43-0.04,0.86-0.04,1.29v6.98c0,1.45,0,1.45,1.44,1.45h114.71c0.32,0,0.64-0.02,0.96,0
		c0.51,0.04,0.71-0.18,0.7-0.68C133.77,15.12,133.86,11.96,133.72,8.82z M24.34,13.15c-1.04,0.02-1.73-0.62-1.74-1.61
		c-0.02-0.99,0.77-1.81,1.73-1.8c0.94,0,1.75,0.76,1.78,1.66C26.14,12.38,25.39,13.13,24.34,13.15z M33.38,13.17
		c-1-0.03-1.66-0.72-1.64-1.73c0.02-0.97,0.75-1.71,1.69-1.72c1.02-0.01,1.75,0.74,1.74,1.76C35.15,12.52,34.43,13.2,33.38,13.17z
		 M42.61,13.15c-0.99,0-1.72-0.68-1.74-1.63c-0.02-0.94,0.81-1.76,1.78-1.76c0.93-0.01,1.7,0.74,1.72,1.68
		C44.4,12.46,43.69,13.15,42.61,13.15z"/>
	<path class="st1" d="M146.1,48.96c0.01-1.03-0.49-1.49-1.53-1.47c-1.75,0.03-3.51,0-5.26,0.01c-1.95,0.01-1.68-0.2-1.68,1.63
		c-0.01,26.78,0,53.57,0,80.35c0,2.32-0.6,2.92-2.91,2.92c-39.85,0-79.7,0-119.56,0c-0.32,0-0.65,0.01-0.97-0.01
		c-1.08-0.07-1.87-0.79-2.01-1.87c-0.05-0.42-0.03-0.86-0.03-1.29c0-26.64,0-53.28,0-79.92c0-0.32-0.03-0.65,0.01-0.97
		c0.07-0.66-0.21-0.87-0.86-0.86c-1.83,0.03-3.65,0.01-5.48,0.01c-1.96,0-2.08,0.12-2.08,2.06c0,22.77,0,45.55,0,68.32
		c0,0.54-0.03,1.07-0.03,1.61c-0.01,5.44-0.13,10.89,0.02,16.33c0.12,4.56,3.18,7.3,7.72,7.3c21.13,0,42.25,0,63.38,0
		c14.25,0,28.5,0,42.75,0c7.09,0,14.18,0.01,21.27,0c3.19-0.01,5.65-1.77,6.74-4.73c0.4-1.09,0.55-2.22,0.55-3.37
		c0-28.43,0-56.86,0-85.29C146.11,49.46,146.1,49.21,146.1,48.96z"/>
	<path class="st0" d="M46.72,114.44c0.96,0,1.83-0.39,2.57-1.15c0.06-0.06,7.82-7.82,9.07-9.07c-2.76-2.01-5.17-4.43-7.19-7.18
		l-9.06,9.06c-0.75,0.75-1.16,1.74-1.16,2.8c0,1.06,0.41,2.05,1.16,2.8C43.13,113.03,44.87,114.44,46.72,114.44z"/>
	<path class="st2" d="M149.7,32.43c0-1.23-0.11-2.43-0.35-3.63c-1.03-5.25-4.81-7.93-10.41-8.27c-1.11-0.06-1.36-0.34-1.34-1.4
		c0.07-3.07,0.03-6.15,0.03-9.23c-0.01-3-0.99-5.97-3.46-7.82c-1.28-0.96-2.78-1.6-4.36-1.85c-2.25-0.36-4.59-0.19-6.85-0.19h-7.11
		c-0.54,0.01-1.09,0.01-1.63,0.01H28.53c-2.16,0-4.31-0.06-6.46-0.03c-1.2,0.01-2.38,0.01-3.58,0.17c-0.96,0.14-1.83,0.58-2.64,1.12
		c-1.63,1.1-2.92,2.71-3.58,4.56c-0.65,1.81-0.7,3.75-0.67,5.65c0.03,1.85,0.02,3.7,0.02,5.54c0,2.71-0.02,2.62-2.65,3.12
		c-3.65,0.7-6.67,2.36-8.21,5.99c-0.73,1.71-0.73,3.54-0.74,5.34C0,60.08,0.01,88.65,0.01,117.21c0,6.59-0.02,13.18,0.01,19.76
		c0.01,1.46,0.01,2.97,0.85,4.25c2.41,3.7,5.61,5.93,10.27,5.91c15.28-0.06,30.57-0.02,45.85-0.02c0.68,0,1.36-0.03,2.04,0.09
		c1.29,0.22,1.73,0.7,1.78,2c0.04,0.86,0.02,1.72,0.01,2.58c-0.01,2.06-0.38,2.43-2.46,2.43c-3.97,0.02-7.94-0.02-11.92,0.02
		c-5.06,0.05-7.99,2.55-8.89,7.54c-0.39,2.18,0.04,4.35,0.2,6.52c0.08,0.94,0.54,1.52,1.47,1.71h71.33c0.6-0.41,0.85-0.98,0.93-1.71
		c0.23-2.07,0.52-4.12,0.24-6.21c-0.61-4.62-3.34-7.2-8.02-7.31c-4.4-0.11-8.81-0.01-13.21-0.03c-1.8-0.01-2.03-0.25-2.06-2.06
		c-0.02-1.32-0.01-2.65,0-3.97c0-1.55,0.49-2.03,2.07-2.03c16,0,32.01-0.01,48.01,0c4.27,0.01,7.47-1.88,9.77-5.4
		c0.98-1.51,1.39-3.19,1.39-4.99c-0.01-25.49-0.01-50.99-0.01-76.48C149.66,50.68,149.68,41.56,149.7,32.43z M138.92,24.08
		c3.53,0.31,5.77,1.86,6.69,4.77c0.27,0.83,0.3,1.69,0.34,2.54c0.2,3.68,0.18,7.36,0.1,11.04c-0.02,0.94-0.46,1.4-1.37,1.4
		c-2.11,0.02-4.22-0.01-6.33,0.02c-0.79,0.01-0.73-0.48-0.72-0.99v-9.01c0-2.86,0.05-5.73-0.03-8.58
		C137.56,24.15,137.92,24,138.92,24.08z M15.98,10.52c0-0.43,0.01-0.86,0.04-1.29c0.19-3.1,1.94-4.94,5.02-5.27
		c0.5-0.05,1-0.05,1.5-0.05h104.83c0.68,0,1.35,0.02,2.03,0.15c2.58,0.53,4.2,2.15,4.32,4.76c0.14,3.14,0.05,6.3,0.07,9.45
		c0.01,0.5-0.19,0.72-0.7,0.68c-0.32-0.02-0.64,0-0.96,0H17.42c-1.44,0-1.44,0-1.44-1.45V10.52z M17.32,22.58
		c19.19,0.04,38.38,0.03,57.57,0.03h57.47c1.43,0,1.43,0,1.43,1.45v101.93c0,2.14-0.61,2.76-2.72,2.76H18.71
		c-2.1,0-2.73-0.64-2.73-2.77c0-34.01,0.01-68.03-0.02-102.04C15.96,22.86,16.23,22.58,17.32,22.58z M3.87,30.9
		c0.21-3.88,2.54-6.35,6.54-6.77c1.74-0.18,1.74-0.19,1.74,1.56v8.27c0,2.97-0.02,5.95,0.01,8.92c0.01,0.74-0.22,0.99-0.97,0.98
		c-1.97-0.05-3.94-0.02-5.91-0.02c-0.99,0.01-1.54-0.4-1.55-1.46C3.72,38.55,3.66,34.72,3.87,30.9z M93.82,158.36
		c3.26,0,6.52-0.01,9.77,0c3.08,0.02,4.55,1.49,4.57,4.55c0.03,3.62,0.16,3.48-3.42,3.48c-9.99-0.02-19.98-0.01-29.96-0.01H43.74
		c-1.85,0-2.12-0.27-2.12-2.09c0-0.5-0.01-1,0-1.5c0.07-2.94,1.55-4.41,4.49-4.42c4.3-0.02,8.59-0.01,12.89-0.01
		c1.18,0,2.36,0.03,3.54-0.01c1.8-0.05,2.46-0.74,2.46-2.51c0.01-2.47,0-4.94,0.01-7.41c0-1.33,0.33-1.67,1.63-1.67h16.53
		c1.27,0,1.59,0.33,1.6,1.59c0.01,2.4-0.01,4.8,0.01,7.19c0.02,2.21,0.62,2.81,2.81,2.82C89.67,158.37,91.74,158.36,93.82,158.36z
		 M146.12,135c0,1.15-0.15,2.28-0.55,3.37c-1.09,2.96-3.55,4.73-6.74,4.73c-7.08,0.02-14.17,0.01-21.26,0.01H11.44
		c-4.54,0-7.6-2.75-7.72-7.3c-0.15-5.44-0.03-10.89-0.02-16.33c0-0.54,0.03-1.07,0.03-1.61V49.55c0-1.94,0.12-2.06,2.09-2.06
		c1.82,0,3.65,0.03,5.47-0.01c0.65-0.01,0.93,0.21,0.86,0.87c-0.03,0.32,0,0.64,0,0.96v79.92c0,0.43-0.02,0.87,0.03,1.29
		c0.14,1.08,0.93,1.81,2.01,1.87c0.32,0.02,0.65,0.01,0.97,0.01h119.56c2.3,0,2.91-0.61,2.91-2.92c0-26.79-0.01-53.57,0-80.35
		c0-1.83-0.27-1.62,1.68-1.63c1.75-0.02,3.51,0.02,5.26-0.01c1.04-0.02,1.54,0.44,1.53,1.47c0,0.25,0.02,0.5,0.02,0.75V135z"/>
	<path class="st2" d="M24.34,13.15c1.04-0.02,1.8-0.77,1.77-1.75c-0.03-0.9-0.84-1.66-1.78-1.67c-0.96-0.01-1.75,0.82-1.74,1.81
		C22.6,12.53,23.3,13.17,24.34,13.15z"/>
	<path class="st2" d="M33.38,13.17c1.05,0.03,1.77-0.65,1.79-1.69c0.02-1.02-0.72-1.76-1.74-1.76c-0.95,0.01-1.67,0.75-1.69,1.72
		C31.72,12.45,32.38,13.14,33.38,13.17z"/>
	<path class="st2" d="M42.61,13.15c1.07,0,1.78-0.69,1.76-1.71c-0.02-0.93-0.79-1.69-1.72-1.68c-0.97,0.01-1.8,0.83-1.78,1.76
		C40.88,12.47,41.62,13.15,42.61,13.15z"/>
	<path class="st2" d="M96.97,48.71c-0.6-10.14-8.71-14.75-15.98-14.75c-7.28,0-15.37,4.59-15.87,14.59
		c-7.09,4.43-11.95,11.39-13.68,19.62c-1.72,8.16-0.12,16.43,4.5,23.31l-2.96,2.95c-0.36-0.57-0.97-1.15-1.67-1.15
		c-0.35,0-0.68,0.15-0.97,0.44l-10.32,10.32c-1.93,2.2-2.31,5.08-1.03,7.9c1.44,3.2,4.61,5.43,7.69,5.43c1.72,0,3.34-0.7,4.68-2.02
		l10.32-10.31c0.34-0.35,0.48-0.74,0.42-1.16c-0.08-0.53-0.51-1.08-1.14-1.48l2.96-2.96c5.74,3.57,11.64,5.39,17.55,5.39
		c12.87,0,24.64-9.11,28.62-22.15C114.1,69.56,109.17,56.83,96.97,48.71z M68.99,43.92c1.68-4.3,6.06-6.44,9.6-7
		c0.77-0.13,1.57-0.19,2.36-0.19c3.79,0,7.37,1.41,9.83,3.86c0.99,0.99,1.74,2.11,2.22,3.33c4.02,10.25-7.53,27.45-12.01,32.83
		C76.51,71.39,64.95,54.21,68.99,43.92z M83.9,77.75c3.12,0.63,4.91,1.69,4.82,2.83c-0.11,1.33-2.88,2.81-7.79,2.93
		c-4.93-0.12-7.7-1.6-7.81-2.93c-0.09-1.17,1.76-2.23,4.94-2.85c1.3,1.89,2.07,2.79,2.93,2.79S82.65,79.59,83.9,77.75z M76.19,75.13
		c-4.07,1.09-6.31,3.2-6,5.67c0.33,2.74,3.99,5.65,10.11,5.65c0.21,0,0.42,0,0.62-0.01c0.21,0.01,0.42,0.01,0.63,0.01
		c6.09,0,9.76-2.9,10.11-5.63c0.31-2.44-1.88-4.55-5.88-5.66c3.13-4.37,5.87-9.05,8.15-13.9c5.69,6.88,7.21,14.14,4.28,20.45
		c-3.04,6.53-10.54,11.1-18.23,11.1c-9.7,0-16.23-6.89-17.48-18.43c0-4.92,2.02-9.71,5.54-13.16
		C70.32,66.08,73.06,70.76,76.19,75.13z M49.3,113.29c-0.75,0.76-1.61,1.15-2.58,1.15c-1.85,0-3.59-1.41-4.6-2.74
		c-0.75-0.75-1.17-1.74-1.17-2.8s0.42-2.05,1.17-2.8l9.06-9.06c2.01,2.76,4.43,5.17,7.18,7.18
		C57.12,105.47,49.36,113.23,49.3,113.29z M58.57,100.64c-1.39-1.14-2.68-2.43-3.83-3.81l2.98-2.99c1.16,1.38,2.45,2.67,3.83,3.83
		L58.57,100.64z M101.31,92.78c-5.37,5.53-13.29,8.83-21.2,8.83c-9,0-16.9-4.24-21.67-11.65c-4.16-6.02-5.72-13.31-4.4-20.51
		c1.3-7.09,5.25-13.27,11.12-17.43c0.33,2.16,0.89,4.28,1.69,6.32c-4.62,4-7.26,9.87-7.26,16.11c0.01,6.29,2.69,12.17,7.36,16.16
		c4.22,3.53,9,5.4,13.84,5.4c8.66,0,17.02-6.03,20.33-14.65c3.17-8.3,1-16.69-5.98-23.01c0.79-2.04,1.36-4.16,1.69-6.32
		c7.25,5.12,11.58,13.47,11.58,22.36C108.62,81.41,106.17,87.76,101.31,92.78z"/>
	<path class="st2" d="M80.98,42.16c-3.81,0-7.97,2.37-8.09,7.58c0.13,5.19,4.29,7.56,8.1,7.56s7.97-2.37,8.1-7.57
		C88.96,44.53,84.8,42.16,80.98,42.16z M80.99,54.63c-2.47,0-5.14-1.53-5.17-4.9c0.03-3.36,2.7-4.9,5.17-4.9
		c2.47,0,5.15,1.54,5.18,4.9C86.14,53.1,83.46,54.63,80.99,54.63z"/>
</g>
</svg>
